<?xml version="1.0" encoding="UTF-8" standalone="no"?>
<!DOCTYPE svg PUBLIC "-//W3C//DTD SVG 1.1//EN"
 "http://www.w3.org/Graphics/SVG/1.1/DTD/svg11.dtd">
<!-- Generated by graphviz version 2.38.0 (20140413.2041)
 -->
<!-- Title: /home/alejandro/Desarrollo eclipse/os1/Thirdparty/DBoW2/DBoW2/BowVector.cpp Pages: 1 -->
<svg width="378pt" height="162pt"
 viewBox="0.00 0.00 378.00 162.00" xmlns="http://www.w3.org/2000/svg" xmlns:xlink="http://www.w3.org/1999/xlink">
<g id="graph0" class="graph" transform="scale(1 1) rotate(0) translate(4 158)">
<title>/home/alejandro/Desarrollo eclipse/os1/Thirdparty/DBoW2/DBoW2/BowVector.cpp</title>
<polygon fill="white" stroke="none" points="-4,4 -4,-158 374,-158 374,4 -4,4"/>
<!-- Node0 -->
<g id="node1" class="node"><title>Node0</title>
<polygon fill="#bfbfbf" stroke="black" points="101.5,-112.5 101.5,-153.5 262.5,-153.5 262.5,-112.5 101.5,-112.5"/>
<text text-anchor="start" x="109.5" y="-141.5" font-family="Helvetica,sans-Serif" font-size="10.00">/home/alejandro/Desarrollo</text>
<text text-anchor="start" x="109.5" y="-130.5" font-family="Helvetica,sans-Serif" font-size="10.00"> eclipse/os1/Thirdparty</text>
<text text-anchor="middle" x="182" y="-119.5" font-family="Helvetica,sans-Serif" font-size="10.00">/DBoW2/DBoW2/BowVector.cpp</text>
</g>
<!-- Node1 -->
<g id="node2" class="node"><title>Node1</title>
<polygon fill="white" stroke="#bfbfbf" points="0,-0.5 0,-19.5 54,-19.5 54,-0.5 0,-0.5"/>
<text text-anchor="middle" x="27" y="-7.5" font-family="Helvetica,sans-Serif" font-size="10.00">iostream</text>
</g>
<!-- Node0&#45;&gt;Node1 -->
<g id="edge1" class="edge"><title>Node0&#45;&gt;Node1</title>
<path fill="none" stroke="midnightblue" d="M101.484,-112.998C80.6641,-104.667 59.9339,-92.8069 45,-76 33.7078,-63.2915 29.4344,-44.0909 27.8507,-29.8498"/>
<polygon fill="midnightblue" stroke="midnightblue" points="31.3277,-29.4143 27.0745,-19.7107 24.3481,-29.9487 31.3277,-29.4143"/>
</g>
<!-- Node2 -->
<g id="node3" class="node"><title>Node2</title>
<polygon fill="white" stroke="#bfbfbf" points="184,-56.5 184,-75.5 234,-75.5 234,-56.5 184,-56.5"/>
<text text-anchor="middle" x="209" y="-63.5" font-family="Helvetica,sans-Serif" font-size="10.00">fstream</text>
</g>
<!-- Node0&#45;&gt;Node2 -->
<g id="edge2" class="edge"><title>Node0&#45;&gt;Node2</title>
<path fill="none" stroke="midnightblue" d="M190.101,-112.498C193.723,-103.778 197.966,-93.5632 201.513,-85.0241"/>
<polygon fill="midnightblue" stroke="midnightblue" points="204.802,-86.2301 205.406,-75.6525 198.338,-83.5448 204.802,-86.2301"/>
</g>
<!-- Node3 -->
<g id="node4" class="node"><title>Node3</title>
<polygon fill="white" stroke="#bfbfbf" points="130,-0.5 130,-19.5 174,-19.5 174,-0.5 130,-0.5"/>
<text text-anchor="middle" x="152" y="-7.5" font-family="Helvetica,sans-Serif" font-size="10.00">vector</text>
</g>
<!-- Node0&#45;&gt;Node3 -->
<g id="edge3" class="edge"><title>Node0&#45;&gt;Node3</title>
<path fill="none" stroke="midnightblue" d="M177.113,-112.29C171.432,-89.3749 162.127,-51.8464 156.58,-29.4732"/>
<polygon fill="midnightblue" stroke="midnightblue" points="159.93,-28.4386 154.126,-19.5748 153.135,-30.1232 159.93,-28.4386"/>
</g>
<!-- Node4 -->
<g id="node5" class="node"><title>Node4</title>
<polygon fill="white" stroke="#bfbfbf" points="252,-56.5 252,-75.5 308,-75.5 308,-56.5 252,-56.5"/>
<text text-anchor="middle" x="280" y="-63.5" font-family="Helvetica,sans-Serif" font-size="10.00">algorithm</text>
</g>
<!-- Node0&#45;&gt;Node4 -->
<g id="edge4" class="edge"><title>Node0&#45;&gt;Node4</title>
<path fill="none" stroke="midnightblue" d="M211.403,-112.498C226.573,-102.436 244.743,-90.3849 258.57,-81.2136"/>
<polygon fill="midnightblue" stroke="midnightblue" points="260.556,-84.0967 266.955,-75.6525 256.687,-78.2631 260.556,-84.0967"/>
</g>
<!-- Node5 -->
<g id="node6" class="node"><title>Node5</title>
<polygon fill="white" stroke="#bfbfbf" points="326,-56.5 326,-75.5 370,-75.5 370,-56.5 326,-56.5"/>
<text text-anchor="middle" x="348" y="-63.5" font-family="Helvetica,sans-Serif" font-size="10.00">cmath</text>
</g>
<!-- Node0&#45;&gt;Node5 -->
<g id="edge5" class="edge"><title>Node0&#45;&gt;Node5</title>
<path fill="none" stroke="midnightblue" d="M231.805,-112.498C259.214,-101.766 292.405,-88.7691 316.283,-79.4192"/>
<polygon fill="midnightblue" stroke="midnightblue" points="317.867,-82.5577 325.903,-75.6525 315.315,-76.0396 317.867,-82.5577"/>
</g>
<!-- Node6 -->
<g id="node7" class="node"><title>Node6</title>
<g id="a_node7"><a xlink:href="_bow_vector_8h.html" target="_top" xlink:title="BowVector.h">
<polygon fill="white" stroke="black" points="54.5,-56.5 54.5,-75.5 127.5,-75.5 127.5,-56.5 54.5,-56.5"/>
<text text-anchor="middle" x="91" y="-63.5" font-family="Helvetica,sans-Serif" font-size="10.00">BowVector.h</text>
</a>
</g>
</g>
<!-- Node0&#45;&gt;Node6 -->
<g id="edge6" class="edge"><title>Node0&#45;&gt;Node6</title>
<path fill="none" stroke="midnightblue" d="M154.697,-112.498C140.745,-102.532 124.06,-90.6142 111.267,-81.4764"/>
<polygon fill="midnightblue" stroke="midnightblue" points="113.285,-78.6168 103.113,-75.6525 109.216,-84.313 113.285,-78.6168"/>
</g>
<!-- Node6&#45;&gt;Node1 -->
<g id="edge7" class="edge"><title>Node6&#45;&gt;Node1</title>
<path fill="none" stroke="midnightblue" d="M80.7173,-56.324C71.1637,-48.2631 56.7203,-36.0765 45.2157,-26.3695"/>
<polygon fill="midnightblue" stroke="midnightblue" points="47.3698,-23.6076 37.4698,-19.8339 42.8557,-28.9577 47.3698,-23.6076"/>
</g>
<!-- Node6&#45;&gt;Node3 -->
<g id="edge9" class="edge"><title>Node6&#45;&gt;Node3</title>
<path fill="none" stroke="midnightblue" d="M100.801,-56.324C109.818,-48.3414 123.406,-36.3128 134.318,-26.6529"/>
<polygon fill="midnightblue" stroke="midnightblue" points="136.853,-29.083 142.021,-19.8339 132.213,-23.8416 136.853,-29.083"/>
</g>
<!-- Node7 -->
<g id="node8" class="node"><title>Node7</title>
<polygon fill="white" stroke="#bfbfbf" points="73.5,-0.5 73.5,-19.5 108.5,-19.5 108.5,-0.5 73.5,-0.5"/>
<text text-anchor="middle" x="91" y="-7.5" font-family="Helvetica,sans-Serif" font-size="10.00">map</text>
</g>
<!-- Node6&#45;&gt;Node7 -->
<g id="edge8" class="edge"><title>Node6&#45;&gt;Node7</title>
<path fill="none" stroke="midnightblue" d="M91,-56.083C91,-49.0059 91,-38.8611 91,-29.9865"/>
<polygon fill="midnightblue" stroke="midnightblue" points="94.5001,-29.751 91,-19.7511 87.5001,-29.7511 94.5001,-29.751"/>
</g>
</g>
</svg>
