<?xml version="1.0" encoding="UTF-8" standalone="no"?>
<!DOCTYPE svg PUBLIC "-//W3C//DTD SVG 1.1//EN"
 "http://www.w3.org/Graphics/SVG/1.1/DTD/svg11.dtd">
<!-- Generated by graphviz version 2.38.0 (20140413.2041)
 -->
<!-- Title: /home/alejandro/Desarrollo eclipse/os1/include/Converter.h Pages: 1 -->
<svg width="5959pt" height="128pt"
 viewBox="0.00 0.00 5958.50 128.00" xmlns="http://www.w3.org/2000/svg" xmlns:xlink="http://www.w3.org/1999/xlink">
<g id="graph0" class="graph" transform="scale(1 1) rotate(0) translate(4 124)">
<title>/home/alejandro/Desarrollo eclipse/os1/include/Converter.h</title>
<polygon fill="white" stroke="none" points="-4,4 -4,-124 5954.5,-124 5954.5,4 -4,4"/>
<!-- Node0 -->
<g id="node1" class="node"><title>Node0</title>
<polygon fill="#bfbfbf" stroke="black" points="2433.5,-89.5 2433.5,-119.5 2590.5,-119.5 2590.5,-89.5 2433.5,-89.5"/>
<text text-anchor="start" x="2441.5" y="-107.5" font-family="Helvetica,sans-Serif" font-size="10.00">/home/alejandro/Desarrollo</text>
<text text-anchor="middle" x="2512" y="-96.5" font-family="Helvetica,sans-Serif" font-size="10.00"> eclipse/os1/include/Converter.h</text>
</g>
<!-- Node1 -->
<g id="node2" class="node"><title>Node1</title>
<polygon fill="white" stroke="#bfbfbf" points="0,-17 0,-36 116,-36 116,-17 0,-17"/>
<text text-anchor="middle" x="58" y="-24" font-family="Helvetica,sans-Serif" font-size="10.00">opencv2/core/core.hpp</text>
</g>
<!-- Node0&#45;&gt;Node1 -->
<g id="edge1" class="edge"><title>Node0&#45;&gt;Node1</title>
<path fill="none" stroke="midnightblue" d="M2433.39,-103.431C2046.66,-102.876 355.381,-97.883 125,-53 111.352,-50.3411 96.8563,-45.1465 84.8517,-40.1358"/>
<polygon fill="midnightblue" stroke="midnightblue" points="85.9929,-36.8152 75.4272,-36.0297 83.1969,-43.2326 85.9929,-36.8152"/>
</g>
<!-- Node2 -->
<g id="node3" class="node"><title>Node2</title>
<polygon fill="white" stroke="#bfbfbf" points="134,-17 134,-36 238,-36 238,-17 134,-17"/>
<text text-anchor="middle" x="186" y="-24" font-family="Helvetica,sans-Serif" font-size="10.00">eigen3/Eigen/Dense</text>
</g>
<!-- Node0&#45;&gt;Node2 -->
<g id="edge2" class="edge"><title>Node0&#45;&gt;Node2</title>
<path fill="none" stroke="midnightblue" d="M2433.38,-103.481C2058.78,-103.159 464.087,-99.0716 247,-53 234.707,-50.3911 221.771,-45.3496 210.991,-40.4335"/>
<polygon fill="midnightblue" stroke="midnightblue" points="212.309,-37.1841 201.778,-36.0272 209.289,-43.4991 212.309,-37.1841"/>
</g>
<!-- Node3 -->
<g id="node4" class="node"><title>Node3</title>
<polygon fill="white" stroke="#bfbfbf" points="256.5,-6 256.5,-47 363.5,-47 363.5,-6 256.5,-6"/>
<text text-anchor="start" x="264.5" y="-35" font-family="Helvetica,sans-Serif" font-size="10.00">../Thirdparty/g2o/g2o</text>
<text text-anchor="start" x="264.5" y="-24" font-family="Helvetica,sans-Serif" font-size="10.00">/types/types_six_dof</text>
<text text-anchor="middle" x="310" y="-13" font-family="Helvetica,sans-Serif" font-size="10.00">_expmap.h</text>
</g>
<!-- Node0&#45;&gt;Node3 -->
<g id="edge3" class="edge"><title>Node0&#45;&gt;Node3</title>
<path fill="none" stroke="midnightblue" d="M2433.3,-103.317C2071.55,-102.252 577.38,-95.3041 373,-53 369.378,-52.2504 365.699,-51.302 362.031,-50.2149"/>
<polygon fill="midnightblue" stroke="midnightblue" points="362.985,-46.8446 352.393,-47.0541 360.804,-53.4961 362.985,-46.8446"/>
</g>
<!-- Node4 -->
<g id="node5" class="node"><title>Node4</title>
<polygon fill="white" stroke="#bfbfbf" points="382,-6 382,-47 522,-47 522,-6 382,-6"/>
<text text-anchor="start" x="390" y="-35" font-family="Helvetica,sans-Serif" font-size="10.00">/home/alejandro/Desarrollo</text>
<text text-anchor="start" x="390" y="-24" font-family="Helvetica,sans-Serif" font-size="10.00"> eclipse/os1/Thirdparty</text>
<text text-anchor="middle" x="452" y="-13" font-family="Helvetica,sans-Serif" font-size="10.00">/g2o/g2o/core/base_vertex.h</text>
</g>
<!-- Node0&#45;&gt;Node4 -->
<g id="edge4" class="edge"><title>Node0&#45;&gt;Node4</title>
<path fill="none" stroke="midnightblue" d="M2433.49,-102.827C2089.05,-99.6942 720.496,-85.3053 531,-53 525.892,-52.1292 520.661,-51 515.441,-49.7023"/>
<polygon fill="midnightblue" stroke="midnightblue" points="516.02,-46.2337 505.454,-47.0223 514.206,-52.9946 516.02,-46.2337"/>
</g>
<!-- Node5 -->
<g id="node6" class="node"><title>Node5</title>
<polygon fill="white" stroke="#bfbfbf" points="540.5,-0.5 540.5,-52.5 673.5,-52.5 673.5,-0.5 540.5,-0.5"/>
<text text-anchor="start" x="548.5" y="-40.5" font-family="Helvetica,sans-Serif" font-size="10.00">/home/alejandro/Desarrollo</text>
<text text-anchor="start" x="548.5" y="-29.5" font-family="Helvetica,sans-Serif" font-size="10.00"> eclipse/os1/Thirdparty</text>
<text text-anchor="start" x="548.5" y="-18.5" font-family="Helvetica,sans-Serif" font-size="10.00">/g2o/g2o/core/optimizable</text>
<text text-anchor="middle" x="607" y="-7.5" font-family="Helvetica,sans-Serif" font-size="10.00">_graph.h</text>
</g>
<!-- Node0&#45;&gt;Node5 -->
<g id="edge5" class="edge"><title>Node0&#45;&gt;Node5</title>
<path fill="none" stroke="midnightblue" d="M2433.25,-102.698C2110.69,-99.2279 897.839,-84.3253 683.832,-52.7401"/>
<polygon fill="midnightblue" stroke="midnightblue" points="684.287,-49.2683 673.856,-51.1262 683.169,-56.1785 684.287,-49.2683"/>
</g>
<!-- Node6 -->
<g id="node7" class="node"><title>Node6</title>
<polygon fill="white" stroke="#bfbfbf" points="692,-17 692,-36 722,-36 722,-17 692,-17"/>
<text text-anchor="middle" x="707" y="-24" font-family="Helvetica,sans-Serif" font-size="10.00">set</text>
</g>
<!-- Node0&#45;&gt;Node6 -->
<g id="edge6" class="edge"><title>Node0&#45;&gt;Node6</title>
<path fill="none" stroke="midnightblue" d="M2433.37,-102.949C2099.09,-100.391 809.549,-88.2684 731,-53 726.447,-50.9557 722.346,-47.6003 718.875,-43.9848"/>
<polygon fill="midnightblue" stroke="midnightblue" points="721.412,-41.5588 712.354,-36.0629 716.008,-46.0079 721.412,-41.5588"/>
</g>
<!-- Node7 -->
<g id="node8" class="node"><title>Node7</title>
<polygon fill="white" stroke="#bfbfbf" points="740,-17 740,-36 794,-36 794,-17 740,-17"/>
<text text-anchor="middle" x="767" y="-24" font-family="Helvetica,sans-Serif" font-size="10.00">iostream</text>
</g>
<!-- Node0&#45;&gt;Node7 -->
<g id="edge7" class="edge"><title>Node0&#45;&gt;Node7</title>
<path fill="none" stroke="midnightblue" d="M2433.35,-103.845C2118.51,-104.866 958.478,-105.028 803,-53 796.232,-50.7351 789.621,-46.7402 783.949,-42.5749"/>
<polygon fill="midnightblue" stroke="midnightblue" points="785.907,-39.658 775.923,-36.1133 781.518,-45.1106 785.907,-39.658"/>
</g>
<!-- Node8 -->
<g id="node9" class="node"><title>Node8</title>
<polygon fill="white" stroke="#bfbfbf" points="812.5,-17 812.5,-36 841.5,-36 841.5,-17 812.5,-17"/>
<text text-anchor="middle" x="827" y="-24" font-family="Helvetica,sans-Serif" font-size="10.00">list</text>
</g>
<!-- Node0&#45;&gt;Node8 -->
<g id="edge8" class="edge"><title>Node0&#45;&gt;Node8</title>
<path fill="none" stroke="midnightblue" d="M2433.33,-102.78C2113.44,-99.6368 923.816,-85.784 851,-53 846.449,-50.9511 842.349,-47.5939 838.878,-43.9783"/>
<polygon fill="midnightblue" stroke="midnightblue" points="841.415,-41.5526 832.356,-36.0581 836.011,-46.0025 841.415,-41.5526"/>
</g>
<!-- Node9 -->
<g id="node10" class="node"><title>Node9</title>
<polygon fill="white" stroke="#bfbfbf" points="860,-17 860,-36 900,-36 900,-17 860,-17"/>
<text text-anchor="middle" x="880" y="-24" font-family="Helvetica,sans-Serif" font-size="10.00">limits</text>
</g>
<!-- Node0&#45;&gt;Node9 -->
<g id="edge9" class="edge"><title>Node0&#45;&gt;Node9</title>
<path fill="none" stroke="midnightblue" d="M2433.26,-102.498C2120.62,-98.3272 980.453,-81.2397 909,-53 903.605,-50.8677 898.544,-47.2634 894.207,-43.4259"/>
<polygon fill="midnightblue" stroke="midnightblue" points="896.41,-40.6795 886.863,-36.0849 891.461,-45.6301 896.41,-40.6795"/>
</g>
<!-- Node10 -->
<g id="node11" class="node"><title>Node10</title>
<polygon fill="white" stroke="#bfbfbf" points="918,-17 918,-36 962,-36 962,-17 918,-17"/>
<text text-anchor="middle" x="940" y="-24" font-family="Helvetica,sans-Serif" font-size="10.00">cmath</text>
</g>
<!-- Node0&#45;&gt;Node10 -->
<g id="edge10" class="edge"><title>Node0&#45;&gt;Node10</title>
<path fill="none" stroke="midnightblue" d="M2433.33,-103.88C2138.38,-104.903 1108.13,-104.704 971,-53 965.213,-50.818 959.712,-47.0842 954.996,-43.1367"/>
<polygon fill="midnightblue" stroke="midnightblue" points="957.154,-40.3628 947.459,-36.0896 952.373,-45.4759 957.154,-40.3628"/>
</g>
<!-- Node11 -->
<g id="node12" class="node"><title>Node11</title>
<polygon fill="white" stroke="#bfbfbf" points="980.5,-17 980.5,-36 1031.5,-36 1031.5,-17 980.5,-17"/>
<text text-anchor="middle" x="1006" y="-24" font-family="Helvetica,sans-Serif" font-size="10.00">typeinfo</text>
</g>
<!-- Node0&#45;&gt;Node11 -->
<g id="edge11" class="edge"><title>Node0&#45;&gt;Node11</title>
<path fill="none" stroke="midnightblue" d="M2433.09,-103.492C2146.8,-103.095 1172.66,-98.3888 1041,-53 1034.38,-50.7167 1027.94,-46.7167 1022.43,-42.5525"/>
<polygon fill="midnightblue" stroke="midnightblue" points="1024.57,-39.7827 1014.64,-36.0966 1020.1,-45.1724 1024.57,-39.7827"/>
</g>
<!-- Node12 -->
<g id="node13" class="node"><title>Node12</title>
<polygon fill="white" stroke="#bfbfbf" points="1050,-6 1050,-47 1204,-47 1204,-6 1050,-6"/>
<text text-anchor="start" x="1058" y="-35" font-family="Helvetica,sans-Serif" font-size="10.00">/home/alejandro/Desarrollo</text>
<text text-anchor="start" x="1058" y="-24" font-family="Helvetica,sans-Serif" font-size="10.00"> eclipse/os1/Thirdparty</text>
<text text-anchor="middle" x="1127" y="-13" font-family="Helvetica,sans-Serif" font-size="10.00">/g2o/g2o/core/openmp_mutex.h</text>
</g>
<!-- Node0&#45;&gt;Node12 -->
<g id="edge12" class="edge"><title>Node0&#45;&gt;Node12</title>
<path fill="none" stroke="midnightblue" d="M2433.15,-103.007C2189.32,-101.076 1449.74,-92.0683 1213,-53 1207.29,-52.0578 1201.43,-50.852 1195.57,-49.4788"/>
<polygon fill="midnightblue" stroke="midnightblue" points="1196.31,-46.056 1185.76,-47.027 1194.62,-52.8472 1196.31,-46.056"/>
</g>
<!-- Node13 -->
<g id="node14" class="node"><title>Node13</title>
<polygon fill="white" stroke="#bfbfbf" points="1222.5,-6 1222.5,-47 1355.5,-47 1355.5,-6 1222.5,-6"/>
<text text-anchor="start" x="1230.5" y="-35" font-family="Helvetica,sans-Serif" font-size="10.00">/home/alejandro/Desarrollo</text>
<text text-anchor="start" x="1230.5" y="-24" font-family="Helvetica,sans-Serif" font-size="10.00"> eclipse/os1/Thirdparty</text>
<text text-anchor="middle" x="1289" y="-13" font-family="Helvetica,sans-Serif" font-size="10.00">/g2o/config.h</text>
</g>
<!-- Node0&#45;&gt;Node13 -->
<g id="edge13" class="edge"><title>Node0&#45;&gt;Node13</title>
<path fill="none" stroke="midnightblue" d="M2433.26,-102.936C2208.96,-100.87 1569.62,-91.6608 1364,-53 1359.35,-52.1248 1354.59,-51.0237 1349.83,-49.7732"/>
<polygon fill="midnightblue" stroke="midnightblue" points="1350.7,-46.3814 1340.13,-47.0212 1348.79,-53.116 1350.7,-46.3814"/>
</g>
<!-- Node14 -->
<g id="node15" class="node"><title>Node14</title>
<polygon fill="white" stroke="#bfbfbf" points="1373.5,-17 1373.5,-36 1422.5,-36 1422.5,-17 1373.5,-17"/>
<text text-anchor="middle" x="1398" y="-24" font-family="Helvetica,sans-Serif" font-size="10.00">cassert</text>
</g>
<!-- Node0&#45;&gt;Node14 -->
<g id="edge14" class="edge"><title>Node0&#45;&gt;Node14</title>
<path fill="none" stroke="midnightblue" d="M2433.5,-102.49C2200.84,-99.1274 1525.34,-86.5564 1432,-53 1425.68,-50.7293 1419.56,-46.8524 1414.3,-42.7976"/>
<polygon fill="midnightblue" stroke="midnightblue" points="1416.25,-39.8608 1406.36,-36.0579 1411.72,-45.1975 1416.25,-39.8608"/>
</g>
<!-- Node15 -->
<g id="node16" class="node"><title>Node15</title>
<polygon fill="white" stroke="#bfbfbf" points="1441,-6 1441,-47 1581,-47 1581,-6 1441,-6"/>
<text text-anchor="start" x="1449" y="-35" font-family="Helvetica,sans-Serif" font-size="10.00">/home/alejandro/Desarrollo</text>
<text text-anchor="start" x="1449" y="-24" font-family="Helvetica,sans-Serif" font-size="10.00"> eclipse/os1/Thirdparty</text>
<text text-anchor="middle" x="1511" y="-13" font-family="Helvetica,sans-Serif" font-size="10.00">/g2o/g2o/core/hyper_graph.h</text>
</g>
<!-- Node0&#45;&gt;Node15 -->
<g id="edge15" class="edge"><title>Node0&#45;&gt;Node15</title>
<path fill="none" stroke="midnightblue" d="M2433.23,-101.788C2240.79,-97.1875 1750.77,-82.8325 1590,-53 1585.2,-52.1101 1580.3,-51.0098 1575.39,-49.7704"/>
<polygon fill="midnightblue" stroke="midnightblue" points="1575.92,-46.2883 1565.35,-47.0535 1574.09,-53.0451 1575.92,-46.2883"/>
</g>
<!-- Node16 -->
<g id="node17" class="node"><title>Node16</title>
<polygon fill="white" stroke="#bfbfbf" points="1599.5,-17 1599.5,-36 1634.5,-36 1634.5,-17 1599.5,-17"/>
<text text-anchor="middle" x="1617" y="-24" font-family="Helvetica,sans-Serif" font-size="10.00">map</text>
</g>
<!-- Node0&#45;&gt;Node16 -->
<g id="edge16" class="edge"><title>Node0&#45;&gt;Node16</title>
<path fill="none" stroke="midnightblue" d="M2433.28,-102.072C2232.86,-97.9931 1714.12,-84.4934 1643,-53 1638.13,-50.8416 1633.64,-47.339 1629.82,-43.6117"/>
<polygon fill="midnightblue" stroke="midnightblue" points="1632.28,-41.1082 1622.99,-36.0039 1627.07,-45.7839 1632.28,-41.1082"/>
</g>
<!-- Node17 -->
<g id="node18" class="node"><title>Node17</title>
<polygon fill="white" stroke="#bfbfbf" points="1652.5,-17 1652.5,-36 1693.5,-36 1693.5,-17 1652.5,-17"/>
<text text-anchor="middle" x="1673" y="-24" font-family="Helvetica,sans-Serif" font-size="10.00">bitset</text>
</g>
<!-- Node0&#45;&gt;Node17 -->
<g id="edge17" class="edge"><title>Node0&#45;&gt;Node17</title>
<path fill="none" stroke="midnightblue" d="M2433.31,-101.409C2243.18,-95.9554 1769.52,-79.832 1703,-53 1697.37,-50.7305 1692.04,-46.9698 1687.48,-43.0247"/>
<polygon fill="midnightblue" stroke="midnightblue" points="1689.82,-40.4235 1680.19,-36.0063 1684.97,-45.4649 1689.82,-40.4235"/>
</g>
<!-- Node18 -->
<g id="node19" class="node"><title>Node18</title>
<polygon fill="white" stroke="#bfbfbf" points="1712,-17 1712,-36 1756,-36 1756,-17 1712,-17"/>
<text text-anchor="middle" x="1734" y="-24" font-family="Helvetica,sans-Serif" font-size="10.00">vector</text>
</g>
<!-- Node0&#45;&gt;Node18 -->
<g id="edge18" class="edge"><title>Node0&#45;&gt;Node18</title>
<path fill="none" stroke="midnightblue" d="M2433.39,-104.208C2267.02,-104.736 1884.75,-100.544 1765,-53 1759.33,-50.75 1753.92,-47.059 1749.25,-43.175"/>
<polygon fill="midnightblue" stroke="midnightblue" points="1751.46,-40.4583 1741.74,-36.2448 1746.71,-45.6007 1751.46,-40.4583"/>
</g>
<!-- Node19 -->
<g id="node20" class="node"><title>Node19</title>
<polygon fill="white" stroke="#bfbfbf" points="1774.5,-17 1774.5,-36 1823.5,-36 1823.5,-17 1774.5,-17"/>
<text text-anchor="middle" x="1799" y="-24" font-family="Helvetica,sans-Serif" font-size="10.00">cstddef</text>
</g>
<!-- Node0&#45;&gt;Node19 -->
<g id="edge19" class="edge"><title>Node0&#45;&gt;Node19</title>
<path fill="none" stroke="midnightblue" d="M2433.23,-103.303C2278.34,-101.997 1939.85,-94.3347 1832,-53 1825.94,-50.676 1820.07,-46.8505 1815.01,-42.8609"/>
<polygon fill="midnightblue" stroke="midnightblue" points="1817.21,-40.1325 1807.36,-36.2277 1812.62,-45.4222 1817.21,-40.1325"/>
</g>
<!-- Node20 -->
<g id="node21" class="node"><title>Node20</title>
<polygon fill="white" stroke="#bfbfbf" points="1841,-17 1841,-36 1939,-36 1939,-17 1841,-17"/>
<text text-anchor="middle" x="1890" y="-24" font-family="Helvetica,sans-Serif" font-size="10.00">tr1/unordered_map</text>
</g>
<!-- Node0&#45;&gt;Node20 -->
<g id="edge20" class="edge"><title>Node0&#45;&gt;Node20</title>
<path fill="none" stroke="midnightblue" d="M2433.1,-104.429C2322.78,-103.936 2117,-96.4687 1948,-53 1936.7,-50.0929 1924.8,-45.2157 1914.75,-40.5007"/>
<polygon fill="midnightblue" stroke="midnightblue" points="1916.27,-37.3491 1905.75,-36.0993 1913.19,-43.6372 1916.27,-37.3491"/>
</g>
<!-- Node21 -->
<g id="node22" class="node"><title>Node21</title>
<polygon fill="white" stroke="#bfbfbf" points="1957.5,-6 1957.5,-47 2090.5,-47 2090.5,-6 1957.5,-6"/>
<text text-anchor="start" x="1965.5" y="-35" font-family="Helvetica,sans-Serif" font-size="10.00">/home/alejandro/Desarrollo</text>
<text text-anchor="start" x="1965.5" y="-24" font-family="Helvetica,sans-Serif" font-size="10.00"> eclipse/os1/Thirdparty</text>
<text text-anchor="middle" x="2024" y="-13" font-family="Helvetica,sans-Serif" font-size="10.00">/g2o/g2o/core/parameter.h</text>
</g>
<!-- Node0&#45;&gt;Node21 -->
<g id="edge21" class="edge"><title>Node0&#45;&gt;Node21</title>
<path fill="none" stroke="midnightblue" d="M2433.15,-98.7069C2349.41,-92.4942 2213.61,-79.1953 2099,-53 2095.11,-52.1118 2091.15,-51.0978 2087.17,-49.998"/>
<polygon fill="midnightblue" stroke="midnightblue" points="2087.86,-46.5554 2077.28,-47.1099 2085.9,-53.2744 2087.86,-46.5554"/>
</g>
<!-- Node22 -->
<g id="node23" class="node"><title>Node22</title>
<polygon fill="white" stroke="#bfbfbf" points="2108.5,-17 2108.5,-36 2153.5,-36 2153.5,-17 2108.5,-17"/>
<text text-anchor="middle" x="2131" y="-24" font-family="Helvetica,sans-Serif" font-size="10.00">iosfwd</text>
</g>
<!-- Node0&#45;&gt;Node22 -->
<g id="edge22" class="edge"><title>Node0&#45;&gt;Node22</title>
<path fill="none" stroke="midnightblue" d="M2433.27,-103.737C2360.37,-101.308 2250.37,-90.7959 2163,-53 2157.3,-50.5322 2151.75,-46.7724 2146.93,-42.892"/>
<polygon fill="midnightblue" stroke="midnightblue" points="2148.95,-40.0127 2139.13,-36.0302 2144.33,-45.2659 2148.95,-40.0127"/>
</g>
<!-- Node23 -->
<g id="node24" class="node"><title>Node23</title>
<polygon fill="white" stroke="#bfbfbf" points="2172,-6 2172,-47 2348,-47 2348,-6 2172,-6"/>
<text text-anchor="start" x="2180" y="-35" font-family="Helvetica,sans-Serif" font-size="10.00">/home/alejandro/Desarrollo</text>
<text text-anchor="start" x="2180" y="-24" font-family="Helvetica,sans-Serif" font-size="10.00"> eclipse/os1/Thirdparty</text>
<text text-anchor="middle" x="2260" y="-13" font-family="Helvetica,sans-Serif" font-size="10.00">/g2o/g2o/core/parameter_container.h</text>
</g>
<!-- Node0&#45;&gt;Node23 -->
<g id="edge23" class="edge"><title>Node0&#45;&gt;Node23</title>
<path fill="none" stroke="midnightblue" d="M2465.49,-89.4719C2428.81,-78.4101 2376.94,-62.7676 2334.49,-49.9661"/>
<polygon fill="midnightblue" stroke="midnightblue" points="2335.34,-46.5664 2324.76,-47.0298 2333.32,-53.2683 2335.34,-46.5664"/>
</g>
<!-- Node24 -->
<g id="node25" class="node"><title>Node24</title>
<polygon fill="white" stroke="#bfbfbf" points="2365.5,-17 2365.5,-36 2406.5,-36 2406.5,-17 2365.5,-17"/>
<text text-anchor="middle" x="2386" y="-24" font-family="Helvetica,sans-Serif" font-size="10.00">string</text>
</g>
<!-- Node0&#45;&gt;Node24 -->
<g id="edge24" class="edge"><title>Node0&#45;&gt;Node24</title>
<path fill="none" stroke="midnightblue" d="M2480.32,-89.4025C2460.82,-80.1476 2435.67,-67.1638 2415,-53 2410.67,-50.0303 2406.27,-46.4889 2402.25,-43.0042"/>
<polygon fill="midnightblue" stroke="midnightblue" points="2404.44,-40.2639 2394.68,-36.1322 2399.73,-45.446 2404.44,-40.2639"/>
</g>
<!-- Node25 -->
<g id="node26" class="node"><title>Node25</title>
<polygon fill="white" stroke="#bfbfbf" points="2424,-6 2424,-47 2600,-47 2600,-6 2424,-6"/>
<text text-anchor="start" x="2432" y="-35" font-family="Helvetica,sans-Serif" font-size="10.00">/home/alejandro/Desarrollo</text>
<text text-anchor="start" x="2432" y="-24" font-family="Helvetica,sans-Serif" font-size="10.00"> eclipse/os1/Thirdparty</text>
<text text-anchor="middle" x="2512" y="-13" font-family="Helvetica,sans-Serif" font-size="10.00">/g2o/g2o/core/jacobian_workspace.h</text>
</g>
<!-- Node0&#45;&gt;Node25 -->
<g id="edge25" class="edge"><title>Node0&#45;&gt;Node25</title>
<path fill="none" stroke="midnightblue" d="M2512,-89.205C2512,-80.2115 2512,-68.2686 2512,-57.2868"/>
<polygon fill="midnightblue" stroke="midnightblue" points="2515.5,-57.18 2512,-47.18 2508.5,-57.18 2515.5,-57.18"/>
</g>
<!-- Node26 -->
<g id="node27" class="node"><title>Node26</title>
<polygon fill="white" stroke="#bfbfbf" points="2617.5,-17 2617.5,-36 2714.5,-36 2714.5,-17 2617.5,-17"/>
<text text-anchor="middle" x="2666" y="-24" font-family="Helvetica,sans-Serif" font-size="10.00">eigen3/Eigen/Core</text>
</g>
<!-- Node0&#45;&gt;Node26 -->
<g id="edge26" class="edge"><title>Node0&#45;&gt;Node26</title>
<path fill="none" stroke="midnightblue" d="M2540.61,-89.3831C2568.93,-75.4057 2611.94,-54.1783 2639.51,-40.5753"/>
<polygon fill="midnightblue" stroke="midnightblue" points="2641.14,-43.6703 2648.56,-36.1061 2638.04,-37.3931 2641.14,-43.6703"/>
</g>
<!-- Node27 -->
<g id="node28" class="node"><title>Node27</title>
<polygon fill="white" stroke="#bfbfbf" points="2732.5,-17 2732.5,-36 2851.5,-36 2851.5,-17 2732.5,-17"/>
<text text-anchor="middle" x="2792" y="-24" font-family="Helvetica,sans-Serif" font-size="10.00">eigen3/Eigen/StdVector</text>
</g>
<!-- Node0&#45;&gt;Node27 -->
<g id="edge27" class="edge"><title>Node0&#45;&gt;Node27</title>
<path fill="none" stroke="midnightblue" d="M2580.37,-89.489C2622.19,-80.357 2676.6,-67.4724 2724,-53 2736.53,-49.1746 2750.09,-44.2537 2761.78,-39.7567"/>
<polygon fill="midnightblue" stroke="midnightblue" points="2763.06,-43.0147 2771.1,-36.1123 2760.51,-36.4957 2763.06,-43.0147"/>
</g>
<!-- Node28 -->
<g id="node29" class="node"><title>Node28</title>
<polygon fill="white" stroke="#bfbfbf" points="2869.5,-6 2869.5,-47 3002.5,-47 3002.5,-6 2869.5,-6"/>
<text text-anchor="start" x="2877.5" y="-35" font-family="Helvetica,sans-Serif" font-size="10.00">/home/alejandro/Desarrollo</text>
<text text-anchor="start" x="2877.5" y="-24" font-family="Helvetica,sans-Serif" font-size="10.00"> eclipse/os1/Thirdparty</text>
<text text-anchor="middle" x="2936" y="-13" font-family="Helvetica,sans-Serif" font-size="10.00">/g2o/g2o/stuff/macros.h</text>
</g>
<!-- Node0&#45;&gt;Node28 -->
<g id="edge28" class="edge"><title>Node0&#45;&gt;Node28</title>
<path fill="none" stroke="midnightblue" d="M2590.75,-96.2875C2662,-88.7761 2769.48,-74.9829 2861,-53 2864.8,-52.0866 2868.69,-51.0615 2872.59,-49.9607"/>
<polygon fill="midnightblue" stroke="midnightblue" points="2873.68,-53.2868 2882.27,-47.0893 2871.69,-46.5754 2873.68,-53.2868"/>
</g>
<!-- Node29 -->
<g id="node30" class="node"><title>Node29</title>
<polygon fill="white" stroke="#bfbfbf" points="3020.5,-17 3020.5,-36 3067.5,-36 3067.5,-17 3020.5,-17"/>
<text text-anchor="middle" x="3044" y="-24" font-family="Helvetica,sans-Serif" font-size="10.00">math.h</text>
</g>
<!-- Node0&#45;&gt;Node29 -->
<g id="edge29" class="edge"><title>Node0&#45;&gt;Node29</title>
<path fill="none" stroke="midnightblue" d="M2590.76,-100.947C2711.88,-96.1181 2937.66,-83.275 3012,-53 3017.76,-50.6556 3023.32,-46.9347 3028.14,-43.0523"/>
<polygon fill="midnightblue" stroke="midnightblue" points="3030.76,-45.4073 3035.92,-36.1517 3026.11,-40.1718 3030.76,-45.4073"/>
</g>
<!-- Node30 -->
<g id="node31" class="node"><title>Node30</title>
<polygon fill="white" stroke="#bfbfbf" points="3085.5,-6 3085.5,-47 3218.5,-47 3218.5,-6 3085.5,-6"/>
<text text-anchor="start" x="3093.5" y="-35" font-family="Helvetica,sans-Serif" font-size="10.00">/home/alejandro/Desarrollo</text>
<text text-anchor="start" x="3093.5" y="-24" font-family="Helvetica,sans-Serif" font-size="10.00"> eclipse/os1/Thirdparty</text>
<text text-anchor="middle" x="3152" y="-13" font-family="Helvetica,sans-Serif" font-size="10.00">/g2o/g2o/core/creators.h</text>
</g>
<!-- Node0&#45;&gt;Node30 -->
<g id="edge30" class="edge"><title>Node0&#45;&gt;Node30</title>
<path fill="none" stroke="midnightblue" d="M2590.55,-102.371C2700.49,-99.462 2905.98,-89.1731 3077,-53 3081.16,-52.1195 3085.41,-51.0795 3089.67,-49.9312"/>
<polygon fill="midnightblue" stroke="midnightblue" points="3090.94,-53.2083 3099.58,-47.0798 3089.01,-46.4812 3090.94,-53.2083"/>
</g>
<!-- Node31 -->
<g id="node32" class="node"><title>Node31</title>
<polygon fill="white" stroke="#bfbfbf" points="3236.5,-17 3236.5,-36 3353.5,-36 3353.5,-17 3236.5,-17"/>
<text text-anchor="middle" x="3295" y="-24" font-family="Helvetica,sans-Serif" font-size="10.00">eigen3/Eigen/Cholesky</text>
</g>
<!-- Node0&#45;&gt;Node31 -->
<g id="edge31" class="edge"><title>Node0&#45;&gt;Node31</title>
<path fill="none" stroke="midnightblue" d="M2590.68,-100.857C2750.57,-95.009 3108.44,-79.365 3228,-53 3241.39,-50.0477 3255.66,-44.9146 3267.58,-40.0242"/>
<polygon fill="midnightblue" stroke="midnightblue" points="3269.13,-43.1658 3276.96,-36.0265 3266.39,-36.7257 3269.13,-43.1658"/>
</g>
<!-- Node32 -->
<g id="node33" class="node"><title>Node32</title>
<polygon fill="white" stroke="#bfbfbf" points="3371.5,-17 3371.5,-36 3412.5,-36 3412.5,-17 3371.5,-17"/>
<text text-anchor="middle" x="3392" y="-24" font-family="Helvetica,sans-Serif" font-size="10.00">stack</text>
</g>
<!-- Node0&#45;&gt;Node32 -->
<g id="edge32" class="edge"><title>Node0&#45;&gt;Node32</title>
<path fill="none" stroke="midnightblue" d="M2590.79,-101.739C2788.12,-96.9174 3292.77,-81.8919 3363,-53 3368.37,-50.793 3373.42,-47.1645 3377.75,-43.3277"/>
<polygon fill="midnightblue" stroke="midnightblue" points="3380.49,-45.546 3385.11,-36.0119 3375.55,-40.5834 3380.49,-45.546"/>
</g>
<!-- Node33 -->
<g id="node34" class="node"><title>Node33</title>
<polygon fill="white" stroke="#bfbfbf" points="3430.5,-6 3430.5,-47 3581.5,-47 3581.5,-6 3430.5,-6"/>
<text text-anchor="start" x="3438.5" y="-35" font-family="Helvetica,sans-Serif" font-size="10.00">/home/alejandro/Desarrollo</text>
<text text-anchor="start" x="3438.5" y="-24" font-family="Helvetica,sans-Serif" font-size="10.00"> eclipse/os1/Thirdparty</text>
<text text-anchor="middle" x="3506" y="-13" font-family="Helvetica,sans-Serif" font-size="10.00">/g2o/g2o/core/base_vertex.hpp</text>
</g>
<!-- Node0&#45;&gt;Node33 -->
<g id="edge33" class="edge"><title>Node0&#45;&gt;Node33</title>
<path fill="none" stroke="midnightblue" d="M2590.76,-101.547C2781.35,-96.4324 3263.37,-81.0616 3422,-53 3427.35,-52.0542 3432.83,-50.8779 3438.31,-49.5534"/>
<polygon fill="midnightblue" stroke="midnightblue" points="3439.33,-52.9056 3448.15,-47.0273 3437.59,-46.1258 3439.33,-52.9056"/>
</g>
<!-- Node34 -->
<g id="node35" class="node"><title>Node34</title>
<polygon fill="white" stroke="#bfbfbf" points="3600,-6 3600,-47 3766,-47 3766,-6 3600,-6"/>
<text text-anchor="start" x="3608" y="-35" font-family="Helvetica,sans-Serif" font-size="10.00">/home/alejandro/Desarrollo</text>
<text text-anchor="start" x="3608" y="-24" font-family="Helvetica,sans-Serif" font-size="10.00"> eclipse/os1/Thirdparty</text>
<text text-anchor="middle" x="3683" y="-13" font-family="Helvetica,sans-Serif" font-size="10.00">/g2o/g2o/core/base_binary_edge.h</text>
</g>
<!-- Node0&#45;&gt;Node34 -->
<g id="edge34" class="edge"><title>Node0&#45;&gt;Node34</title>
<path fill="none" stroke="midnightblue" d="M2590.88,-102.095C2805.76,-97.9042 3398.3,-83.8168 3591,-53 3597.12,-52.021 3603.42,-50.7836 3609.71,-49.3843"/>
<polygon fill="midnightblue" stroke="midnightblue" points="3610.63,-52.7633 3619.56,-47.066 3609.03,-45.9494 3610.63,-52.7633"/>
</g>
<!-- Node35 -->
<g id="node36" class="node"><title>Node35</title>
<polygon fill="white" stroke="#bfbfbf" points="3784,-6 3784,-47 3918,-47 3918,-6 3784,-6"/>
<text text-anchor="start" x="3792" y="-35" font-family="Helvetica,sans-Serif" font-size="10.00">/home/alejandro/Desarrollo</text>
<text text-anchor="start" x="3792" y="-24" font-family="Helvetica,sans-Serif" font-size="10.00"> eclipse/os1/Thirdparty</text>
<text text-anchor="middle" x="3851" y="-13" font-family="Helvetica,sans-Serif" font-size="10.00">/g2o/g2o/core/base_edge.h</text>
</g>
<!-- Node0&#45;&gt;Node35 -->
<g id="edge35" class="edge"><title>Node0&#45;&gt;Node35</title>
<path fill="none" stroke="midnightblue" d="M2590.83,-103.265C2830.2,-102.093 3546.22,-95.0663 3775,-53 3779.71,-52.1333 3784.53,-51.0383 3789.35,-49.7921"/>
<polygon fill="midnightblue" stroke="midnightblue" points="3790.49,-53.1066 3799.18,-47.0466 3788.61,-46.3644 3790.49,-53.1066"/>
</g>
<!-- Node36 -->
<g id="node37" class="node"><title>Node36</title>
<polygon fill="white" stroke="#bfbfbf" points="3936,-6 3936,-47 4082,-47 4082,-6 3936,-6"/>
<text text-anchor="start" x="3944" y="-35" font-family="Helvetica,sans-Serif" font-size="10.00">/home/alejandro/Desarrollo</text>
<text text-anchor="start" x="3944" y="-24" font-family="Helvetica,sans-Serif" font-size="10.00"> eclipse/os1/Thirdparty</text>
<text text-anchor="middle" x="4009" y="-13" font-family="Helvetica,sans-Serif" font-size="10.00">/g2o/g2o/core/robust_kernel.h</text>
</g>
<!-- Node0&#45;&gt;Node36 -->
<g id="edge36" class="edge"><title>Node0&#45;&gt;Node36</title>
<path fill="none" stroke="midnightblue" d="M2590.56,-103.437C2848.37,-102.802 3666.95,-97.2608 3927,-53 3932.33,-52.0932 3937.79,-50.9319 3943.24,-49.6064"/>
<polygon fill="midnightblue" stroke="midnightblue" points="3944.22,-52.9686 3953.02,-47.0626 3942.46,-46.1942 3944.22,-52.9686"/>
</g>
<!-- Node37 -->
<g id="node38" class="node"><title>Node37</title>
<polygon fill="white" stroke="#bfbfbf" points="4100,-17 4100,-36 4166,-36 4166,-17 4100,-17"/>
<text text-anchor="middle" x="4133" y="-24" font-family="Helvetica,sans-Serif" font-size="10.00">tr1/memory</text>
</g>
<!-- Node0&#45;&gt;Node37 -->
<g id="edge37" class="edge"><title>Node0&#45;&gt;Node37</title>
<path fill="none" stroke="midnightblue" d="M2590.6,-103.326C2889.62,-102.346 3946.77,-95.8544 4091,-53 4098.98,-50.6281 4106.99,-46.3569 4113.83,-41.9799"/>
<polygon fill="midnightblue" stroke="midnightblue" points="4116.09,-44.6717 4122.34,-36.1141 4112.12,-38.9086 4116.09,-44.6717"/>
</g>
<!-- Node38 -->
<g id="node39" class="node"><title>Node38</title>
<polygon fill="white" stroke="#bfbfbf" points="4184.5,-0.5 4184.5,-52.5 4317.5,-52.5 4317.5,-0.5 4184.5,-0.5"/>
<text text-anchor="start" x="4192.5" y="-40.5" font-family="Helvetica,sans-Serif" font-size="10.00">/home/alejandro/Desarrollo</text>
<text text-anchor="start" x="4192.5" y="-29.5" font-family="Helvetica,sans-Serif" font-size="10.00"> eclipse/os1/Thirdparty</text>
<text text-anchor="start" x="4192.5" y="-18.5" font-family="Helvetica,sans-Serif" font-size="10.00">/g2o/g2o/core/base_binary</text>
<text text-anchor="middle" x="4251" y="-7.5" font-family="Helvetica,sans-Serif" font-size="10.00">_edge.hpp</text>
</g>
<!-- Node0&#45;&gt;Node38 -->
<g id="edge38" class="edge"><title>Node0&#45;&gt;Node38</title>
<path fill="none" stroke="midnightblue" d="M2590.55,-102.467C2893.47,-98.2999 3978.17,-81.6439 4174.23,-52.7245"/>
<polygon fill="midnightblue" stroke="midnightblue" points="4174.83,-56.1731 4184.14,-51.1158 4173.71,-49.2636 4174.83,-56.1731"/>
</g>
<!-- Node39 -->
<g id="node40" class="node"><title>Node39</title>
<polygon fill="white" stroke="#bfbfbf" points="4336,-6 4336,-47 4500,-47 4500,-6 4336,-6"/>
<text text-anchor="start" x="4344" y="-35" font-family="Helvetica,sans-Serif" font-size="10.00">/home/alejandro/Desarrollo</text>
<text text-anchor="start" x="4344" y="-24" font-family="Helvetica,sans-Serif" font-size="10.00"> eclipse/os1/Thirdparty</text>
<text text-anchor="middle" x="4418" y="-13" font-family="Helvetica,sans-Serif" font-size="10.00">/g2o/g2o/core/base_unary_edge.h</text>
</g>
<!-- Node0&#45;&gt;Node39 -->
<g id="edge39" class="edge"><title>Node0&#45;&gt;Node39</title>
<path fill="none" stroke="midnightblue" d="M2590.53,-103.874C2893.26,-104.919 3984.66,-104.92 4327,-53 4333.17,-52.0636 4339.52,-50.8419 4345.86,-49.4405"/>
<polygon fill="midnightblue" stroke="midnightblue" points="4346.85,-52.8037 4355.78,-47.1055 4345.25,-45.9899 4346.85,-52.8037"/>
</g>
<!-- Node40 -->
<g id="node41" class="node"><title>Node40</title>
<polygon fill="white" stroke="#bfbfbf" points="4518.5,-0.5 4518.5,-52.5 4651.5,-52.5 4651.5,-0.5 4518.5,-0.5"/>
<text text-anchor="start" x="4526.5" y="-40.5" font-family="Helvetica,sans-Serif" font-size="10.00">/home/alejandro/Desarrollo</text>
<text text-anchor="start" x="4526.5" y="-29.5" font-family="Helvetica,sans-Serif" font-size="10.00"> eclipse/os1/Thirdparty</text>
<text text-anchor="start" x="4526.5" y="-18.5" font-family="Helvetica,sans-Serif" font-size="10.00">/g2o/g2o/core/base_unary</text>
<text text-anchor="middle" x="4585" y="-7.5" font-family="Helvetica,sans-Serif" font-size="10.00">_edge.hpp</text>
</g>
<!-- Node0&#45;&gt;Node40 -->
<g id="edge40" class="edge"><title>Node0&#45;&gt;Node40</title>
<path fill="none" stroke="midnightblue" d="M2590.58,-102.896C2931.62,-100.092 4276.48,-87.0657 4508.26,-52.7331"/>
<polygon fill="midnightblue" stroke="midnightblue" points="4508.83,-56.1854 4518.15,-51.135 4507.72,-49.275 4508.83,-56.1854"/>
</g>
<!-- Node41 -->
<g id="node42" class="node"><title>Node41</title>
<polygon fill="white" stroke="#bfbfbf" points="4669.5,-6 4669.5,-47 4802.5,-47 4802.5,-6 4669.5,-6"/>
<text text-anchor="start" x="4677.5" y="-35" font-family="Helvetica,sans-Serif" font-size="10.00">/home/alejandro/Desarrollo</text>
<text text-anchor="start" x="4677.5" y="-24" font-family="Helvetica,sans-Serif" font-size="10.00"> eclipse/os1/Thirdparty</text>
<text text-anchor="middle" x="4736" y="-13" font-family="Helvetica,sans-Serif" font-size="10.00">/g2o/g2o/types/se3_ops.h</text>
</g>
<!-- Node0&#45;&gt;Node41 -->
<g id="edge41" class="edge"><title>Node0&#45;&gt;Node41</title>
<path fill="none" stroke="midnightblue" d="M2590.72,-103.066C2953.4,-100.874 4454.48,-89.6459 4661,-53 4665.74,-52.1583 4670.59,-51.0694 4675.43,-49.8168"/>
<polygon fill="midnightblue" stroke="midnightblue" points="4676.63,-53.1164 4685.31,-47.0424 4674.73,-46.3773 4676.63,-53.1164"/>
</g>
<!-- Node42 -->
<g id="node43" class="node"><title>Node42</title>
<polygon fill="white" stroke="#bfbfbf" points="4820.5,-17 4820.5,-36 4939.5,-36 4939.5,-17 4820.5,-17"/>
<text text-anchor="middle" x="4880" y="-24" font-family="Helvetica,sans-Serif" font-size="10.00">eigen3/Eigen/Geometry</text>
</g>
<!-- Node0&#45;&gt;Node42 -->
<g id="edge42" class="edge"><title>Node0&#45;&gt;Node42</title>
<path fill="none" stroke="midnightblue" d="M2590.54,-103.34C2968.44,-102.361 4590.48,-95.6867 4812,-53 4825.97,-50.3081 4840.84,-45.0352 4853.09,-39.9795"/>
<polygon fill="midnightblue" stroke="midnightblue" points="4854.49,-43.1882 4862.3,-36.025 4851.73,-36.7567 4854.49,-43.1882"/>
</g>
<!-- Node43 -->
<g id="node44" class="node"><title>Node43</title>
<polygon fill="white" stroke="#bfbfbf" points="4958,-6 4958,-47 5098,-47 5098,-6 4958,-6"/>
<text text-anchor="start" x="4966" y="-35" font-family="Helvetica,sans-Serif" font-size="10.00">/home/alejandro/Desarrollo</text>
<text text-anchor="start" x="4966" y="-24" font-family="Helvetica,sans-Serif" font-size="10.00"> eclipse/os1/Thirdparty</text>
<text text-anchor="middle" x="5028" y="-13" font-family="Helvetica,sans-Serif" font-size="10.00">/g2o/g2o/types/se3_ops.hpp</text>
</g>
<!-- Node0&#45;&gt;Node43 -->
<g id="edge43" class="edge"><title>Node0&#45;&gt;Node43</title>
<path fill="none" stroke="midnightblue" d="M2590.58,-103.231C2982.06,-101.708 4712.36,-92.7621 4949,-53 4954.11,-52.1414 4959.34,-51.021 4964.56,-49.7293"/>
<polygon fill="midnightblue" stroke="midnightblue" points="4965.8,-53.0228 4974.55,-47.0578 4963.99,-46.2605 4965.8,-53.0228"/>
</g>
<!-- Node44 -->
<g id="node45" class="node"><title>Node44</title>
<polygon fill="white" stroke="#bfbfbf" points="5116.5,-6 5116.5,-47 5249.5,-47 5249.5,-6 5116.5,-6"/>
<text text-anchor="start" x="5124.5" y="-35" font-family="Helvetica,sans-Serif" font-size="10.00">/home/alejandro/Desarrollo</text>
<text text-anchor="start" x="5124.5" y="-24" font-family="Helvetica,sans-Serif" font-size="10.00"> eclipse/os1/Thirdparty</text>
<text text-anchor="middle" x="5183" y="-13" font-family="Helvetica,sans-Serif" font-size="10.00">/g2o/g2o/types/se3quat.h</text>
</g>
<!-- Node0&#45;&gt;Node44 -->
<g id="edge44" class="edge"><title>Node0&#45;&gt;Node44</title>
<path fill="none" stroke="midnightblue" d="M2590.59,-103.391C2997.33,-102.638 4854.2,-96.8082 5107,-53 5111.8,-52.1675 5116.72,-51.0854 5121.62,-49.8375"/>
<polygon fill="midnightblue" stroke="midnightblue" points="5122.92,-53.1092 5131.62,-47.0701 5121.05,-46.3625 5122.92,-53.1092"/>
</g>
<!-- Node45 -->
<g id="node46" class="node"><title>Node45</title>
<polygon fill="white" stroke="#bfbfbf" points="5267.5,-6 5267.5,-47 5404.5,-47 5404.5,-6 5267.5,-6"/>
<text text-anchor="start" x="5275.5" y="-35" font-family="Helvetica,sans-Serif" font-size="10.00">/home/alejandro/Desarrollo</text>
<text text-anchor="start" x="5275.5" y="-24" font-family="Helvetica,sans-Serif" font-size="10.00"> eclipse/os1/Thirdparty</text>
<text text-anchor="middle" x="5336" y="-13" font-family="Helvetica,sans-Serif" font-size="10.00">/g2o/g2o/types/types_sba.h</text>
</g>
<!-- Node0&#45;&gt;Node45 -->
<g id="edge45" class="edge"><title>Node0&#45;&gt;Node45</title>
<path fill="none" stroke="midnightblue" d="M2590.64,-103.465C3011.69,-103.087 4990.33,-98.8675 5259,-53 5263.99,-52.148 5269.1,-51.0323 5274.19,-49.7439"/>
<polygon fill="midnightblue" stroke="midnightblue" points="5275.21,-53.0931 5283.93,-47.077 5273.36,-46.3415 5275.21,-53.0931"/>
</g>
<!-- Node46 -->
<g id="node47" class="node"><title>Node46</title>
<polygon fill="white" stroke="#bfbfbf" points="5422.5,-17 5422.5,-36 5509.5,-36 5509.5,-17 5422.5,-17"/>
<text text-anchor="middle" x="5466" y="-24" font-family="Helvetica,sans-Serif" font-size="10.00">Eigen/Geometry</text>
</g>
<!-- Node0&#45;&gt;Node46 -->
<g id="edge46" class="edge"><title>Node0&#45;&gt;Node46</title>
<path fill="none" stroke="midnightblue" d="M2590.63,-103.098C3040.5,-100.677 5273.09,-86.9847 5414,-53 5424.19,-50.5416 5434.71,-45.8548 5443.6,-41.1629"/>
<polygon fill="midnightblue" stroke="midnightblue" points="5445.49,-44.114 5452.51,-36.175 5442.07,-38.0061 5445.49,-44.114"/>
</g>
<!-- Node47 -->
<g id="node48" class="node"><title>Node47</title>
<polygon fill="white" stroke="#bfbfbf" points="5527.5,-6 5527.5,-47 5648.5,-47 5648.5,-6 5527.5,-6"/>
<text text-anchor="start" x="5535.5" y="-35" font-family="Helvetica,sans-Serif" font-size="10.00">../Thirdparty/g2o/g2o</text>
<text text-anchor="start" x="5535.5" y="-24" font-family="Helvetica,sans-Serif" font-size="10.00">/types/types_seven_dof</text>
<text text-anchor="middle" x="5588" y="-13" font-family="Helvetica,sans-Serif" font-size="10.00">_expmap.h</text>
</g>
<!-- Node0&#45;&gt;Node47 -->
<g id="edge47" class="edge"><title>Node0&#45;&gt;Node47</title>
<path fill="none" stroke="midnightblue" d="M2590.7,-103.759C3035.42,-105.01 5224.16,-108.296 5519,-53 5523.17,-52.2187 5527.41,-51.2114 5531.65,-50.0499"/>
<polygon fill="midnightblue" stroke="midnightblue" points="5532.9,-53.3285 5541.46,-47.0934 5530.88,-46.6258 5532.9,-53.3285"/>
</g>
<!-- Node48 -->
<g id="node49" class="node"><title>Node48</title>
<polygon fill="white" stroke="#bfbfbf" points="5666.5,-0.5 5666.5,-52.5 5799.5,-52.5 5799.5,-0.5 5666.5,-0.5"/>
<text text-anchor="start" x="5674.5" y="-40.5" font-family="Helvetica,sans-Serif" font-size="10.00">/home/alejandro/Desarrollo</text>
<text text-anchor="start" x="5674.5" y="-29.5" font-family="Helvetica,sans-Serif" font-size="10.00"> eclipse/os1/Thirdparty</text>
<text text-anchor="start" x="5674.5" y="-18.5" font-family="Helvetica,sans-Serif" font-size="10.00">/g2o/g2o/types/types_six</text>
<text text-anchor="middle" x="5733" y="-7.5" font-family="Helvetica,sans-Serif" font-size="10.00">_dof_expmap.h</text>
</g>
<!-- Node0&#45;&gt;Node48 -->
<g id="edge48" class="edge"><title>Node0&#45;&gt;Node48</title>
<path fill="none" stroke="midnightblue" d="M2590.56,-103.7C3042.53,-104.659 5303.18,-106.786 5656.32,-52.9665"/>
<polygon fill="midnightblue" stroke="midnightblue" points="5656.9,-56.4183 5666.21,-51.3579 5655.78,-49.5092 5656.9,-56.4183"/>
</g>
<!-- Node49 -->
<g id="node50" class="node"><title>Node49</title>
<polygon fill="white" stroke="#bfbfbf" points="5817.5,-6 5817.5,-47 5950.5,-47 5950.5,-6 5817.5,-6"/>
<text text-anchor="start" x="5825.5" y="-35" font-family="Helvetica,sans-Serif" font-size="10.00">/home/alejandro/Desarrollo</text>
<text text-anchor="start" x="5825.5" y="-24" font-family="Helvetica,sans-Serif" font-size="10.00"> eclipse/os1/Thirdparty</text>
<text text-anchor="middle" x="5884" y="-13" font-family="Helvetica,sans-Serif" font-size="10.00">/g2o/g2o/types/sim3.h</text>
</g>
<!-- Node0&#45;&gt;Node49 -->
<g id="edge49" class="edge"><title>Node0&#45;&gt;Node49</title>
<path fill="none" stroke="midnightblue" d="M2590.87,-103.764C3060.88,-105.14 5483.25,-109.429 5809,-53 5813.75,-52.1777 5818.6,-51.1029 5823.44,-49.8602"/>
<polygon fill="midnightblue" stroke="midnightblue" points="5824.63,-53.1619 5833.32,-47.1005 5822.75,-46.42 5824.63,-53.1619"/>
</g>
</g>
</svg>
