<?xml version="1.0" encoding="UTF-8" standalone="no"?>
<!DOCTYPE svg PUBLIC "-//W3C//DTD SVG 1.1//EN"
 "http://www.w3.org/Graphics/SVG/1.1/DTD/svg11.dtd">
<!-- Generated by graphviz version 2.38.0 (20140413.2041)
 -->
<!-- Title: /home/alejandro/Desarrollo eclipse/os1/Thirdparty/DBoW2/DBoW2/FORB.h Pages: 1 -->
<svg width="246pt" height="162pt"
 viewBox="0.00 0.00 245.50 162.00" xmlns="http://www.w3.org/2000/svg" xmlns:xlink="http://www.w3.org/1999/xlink">
<g id="graph0" class="graph" transform="scale(1 1) rotate(0) translate(4 158)">
<title>/home/alejandro/Desarrollo eclipse/os1/Thirdparty/DBoW2/DBoW2/FORB.h</title>
<polygon fill="white" stroke="none" points="-4,4 -4,-158 241.5,-158 241.5,4 -4,4"/>
<!-- Node0 -->
<g id="node1" class="node"><title>Node0</title>
<polygon fill="#bfbfbf" stroke="black" points="78.5,-112.5 78.5,-153.5 211.5,-153.5 211.5,-112.5 78.5,-112.5"/>
<text text-anchor="start" x="86.5" y="-141.5" font-family="Helvetica,sans-Serif" font-size="10.00">/home/alejandro/Desarrollo</text>
<text text-anchor="start" x="86.5" y="-130.5" font-family="Helvetica,sans-Serif" font-size="10.00"> eclipse/os1/Thirdparty</text>
<text text-anchor="middle" x="145" y="-119.5" font-family="Helvetica,sans-Serif" font-size="10.00">/DBoW2/DBoW2/FORB.h</text>
</g>
<!-- Node1 -->
<g id="node2" class="node"><title>Node1</title>
<polygon fill="white" stroke="#bfbfbf" points="0,-0.5 0,-19.5 116,-19.5 116,-0.5 0,-0.5"/>
<text text-anchor="middle" x="58" y="-7.5" font-family="Helvetica,sans-Serif" font-size="10.00">opencv2/core/core.hpp</text>
</g>
<!-- Node0&#45;&gt;Node1 -->
<g id="edge1" class="edge"><title>Node0&#45;&gt;Node1</title>
<path fill="none" stroke="midnightblue" d="M115.948,-112.422C103.417,-102.727 89.4896,-90.0814 80,-76 70.5333,-61.9525 64.7958,-43.4576 61.5653,-29.7892"/>
<polygon fill="midnightblue" stroke="midnightblue" points="64.9129,-28.7029 59.4145,-19.6465 58.0651,-30.155 64.9129,-28.7029"/>
</g>
<!-- Node2 -->
<g id="node3" class="node"><title>Node2</title>
<polygon fill="white" stroke="#bfbfbf" points="134,-0.5 134,-19.5 178,-19.5 178,-0.5 134,-0.5"/>
<text text-anchor="middle" x="156" y="-7.5" font-family="Helvetica,sans-Serif" font-size="10.00">vector</text>
</g>
<!-- Node0&#45;&gt;Node2 -->
<g id="edge2" class="edge"><title>Node0&#45;&gt;Node2</title>
<path fill="none" stroke="midnightblue" d="M148.787,-112.383C150.693,-101.674 152.841,-88.1551 154,-76 155.475,-60.5269 155.942,-42.8976 156.059,-29.9061"/>
<polygon fill="midnightblue" stroke="midnightblue" points="159.559,-29.864 156.087,-19.854 152.559,-29.8439 159.559,-29.864"/>
</g>
<!-- Node3 -->
<g id="node4" class="node"><title>Node3</title>
<polygon fill="white" stroke="#bfbfbf" points="196.5,-0.5 196.5,-19.5 237.5,-19.5 237.5,-0.5 196.5,-0.5"/>
<text text-anchor="middle" x="217" y="-7.5" font-family="Helvetica,sans-Serif" font-size="10.00">string</text>
</g>
<!-- Node0&#45;&gt;Node3 -->
<g id="edge3" class="edge"><title>Node0&#45;&gt;Node3</title>
<path fill="none" stroke="midnightblue" d="M156.728,-112.29C170.613,-88.9564 193.513,-50.4706 206.728,-28.2627"/>
<polygon fill="midnightblue" stroke="midnightblue" points="209.792,-29.9583 211.898,-19.5748 203.776,-26.3787 209.792,-29.9583"/>
</g>
<!-- Node4 -->
<g id="node5" class="node"><title>Node4</title>
<g id="a_node5"><a xlink:href="_f_class_8h.html" target="_top" xlink:title="FClass.h">
<polygon fill="white" stroke="black" points="89,-56.5 89,-75.5 145,-75.5 145,-56.5 89,-56.5"/>
<text text-anchor="middle" x="117" y="-63.5" font-family="Helvetica,sans-Serif" font-size="10.00">FClass.h</text>
</a>
</g>
</g>
<!-- Node0&#45;&gt;Node4 -->
<g id="edge4" class="edge"><title>Node0&#45;&gt;Node4</title>
<path fill="none" stroke="midnightblue" d="M136.599,-112.498C132.843,-103.778 128.443,-93.5632 124.764,-85.0241"/>
<polygon fill="midnightblue" stroke="midnightblue" points="127.898,-83.4519 120.727,-75.6525 121.469,-86.2213 127.898,-83.4519"/>
</g>
<!-- Node4&#45;&gt;Node1 -->
<g id="edge5" class="edge"><title>Node4&#45;&gt;Node1</title>
<path fill="none" stroke="midnightblue" d="M107.521,-56.324C98.7989,-48.3414 85.6565,-36.3128 75.1022,-26.6529"/>
<polygon fill="midnightblue" stroke="midnightblue" points="77.3917,-24.0036 67.6519,-19.8339 72.6655,-29.1674 77.3917,-24.0036"/>
</g>
<!-- Node4&#45;&gt;Node2 -->
<g id="edge6" class="edge"><title>Node4&#45;&gt;Node2</title>
<path fill="none" stroke="midnightblue" d="M123.44,-56.083C128.949,-48.4554 137.031,-37.2645 143.765,-27.9408"/>
<polygon fill="midnightblue" stroke="midnightblue" points="146.662,-29.9071 149.68,-19.7511 140.987,-25.8087 146.662,-29.9071"/>
</g>
<!-- Node4&#45;&gt;Node3 -->
<g id="edge7" class="edge"><title>Node4&#45;&gt;Node3</title>
<path fill="none" stroke="midnightblue" d="M133.067,-56.324C148.958,-47.7428 173.507,-34.486 191.958,-24.5224"/>
<polygon fill="midnightblue" stroke="midnightblue" points="193.837,-27.4857 200.973,-19.6545 190.511,-21.3264 193.837,-27.4857"/>
</g>
</g>
</svg>
