<?xml version="1.0" encoding="UTF-8" standalone="no"?>
<!DOCTYPE svg PUBLIC "-//W3C//DTD SVG 1.1//EN"
 "http://www.w3.org/Graphics/SVG/1.1/DTD/svg11.dtd">
<!-- Generated by graphviz version 2.40.1 (20161225.0304)
 -->
<!-- Title: /home/alejandro/Desarrollo eclipse/os1/include/FrameDrawer.h Pages: 1 -->
<svg width="1290pt" height="307pt"
 viewBox="0.00 0.00 1290.13 307.00" xmlns="http://www.w3.org/2000/svg" xmlns:xlink="http://www.w3.org/1999/xlink">
<g id="graph0" class="graph" transform="scale(1 1) rotate(0) translate(4 303)">
<title>/home/alejandro/Desarrollo eclipse/os1/include/FrameDrawer.h</title>
<polygon fill="#ffffff" stroke="transparent" points="-4,4 -4,-303 1286.1262,-303 1286.1262,4 -4,4"/>
<!-- Node3 -->
<g id="node1" class="node">
<title>Node3</title>
<polygon fill="#bfbfbf" stroke="#000000" points="1027.5,-268.5 1027.5,-298.5 1200.5,-298.5 1200.5,-268.5 1027.5,-268.5"/>
<text text-anchor="start" x="1035.5" y="-286.5" font-family="Helvetica,sans-Serif" font-size="10.00" fill="#000000">/home/alejandro/Desarrollo</text>
<text text-anchor="middle" x="1114" y="-275.5" font-family="Helvetica,sans-Serif" font-size="10.00" fill="#000000"> eclipse/os1/include/FrameDrawer.h</text>
</g>
<!-- Node4 -->
<g id="node2" class="node">
<title>Node4</title>
<g id="a_node2"><a xlink:href="_tracking_8h.html" target="_top" xlink:title="/home/alejandro/Desarrollo\l eclipse/os1/include/Tracking.h">
<polygon fill="#ffffff" stroke="#000000" points="687,-201.5 687,-231.5 839,-231.5 839,-201.5 687,-201.5"/>
<text text-anchor="start" x="695" y="-219.5" font-family="Helvetica,sans-Serif" font-size="10.00" fill="#000000">/home/alejandro/Desarrollo</text>
<text text-anchor="middle" x="763" y="-208.5" font-family="Helvetica,sans-Serif" font-size="10.00" fill="#000000"> eclipse/os1/include/Tracking.h</text>
</a>
</g>
</g>
<!-- Node3&#45;&gt;Node4 -->
<g id="edge1" class="edge">
<title>Node3&#45;&gt;Node4</title>
<path fill="none" stroke="#191970" d="M1025.0749,-266.5257C967.671,-255.5683 893.7797,-241.4636 839.0976,-231.0257"/>
<polygon fill="#191970" stroke="#191970" points="1024.7498,-270.0268 1035.2287,-268.4639 1026.0624,-263.1509 1024.7498,-270.0268"/>
</g>
<!-- Node8 -->
<g id="node6" class="node">
<title>Node8</title>
<g id="a_node6"><a xlink:href="_system_8cc.html" target="_top" xlink:title="/home/alejandro/Desarrollo\l eclipse/os1/src/System.cc">
<polygon fill="#ffffff" stroke="#000000" points="911,-.5 911,-30.5 1047,-30.5 1047,-.5 911,-.5"/>
<text text-anchor="start" x="919" y="-18.5" font-family="Helvetica,sans-Serif" font-size="10.00" fill="#000000">/home/alejandro/Desarrollo</text>
<text text-anchor="middle" x="979" y="-7.5" font-family="Helvetica,sans-Serif" font-size="10.00" fill="#000000"> eclipse/os1/src/System.cc</text>
</a>
</g>
</g>
<!-- Node3&#45;&gt;Node8 -->
<g id="edge29" class="edge">
<title>Node3&#45;&gt;Node8</title>
<path fill="none" stroke="#191970" d="M1186.7732,-264.8782C1206.179,-257.1874 1225.9181,-246.5522 1241,-232 1273.7796,-200.3715 1296.4425,-171.7829 1271,-134 1221.2662,-60.1438 1116.7511,-32.3007 1047.209,-21.8161"/>
<polygon fill="#191970" stroke="#191970" points="1185.4366,-261.6412 1177.2954,-268.4214 1187.8879,-268.198 1185.4366,-261.6412"/>
</g>
<!-- Node13 -->
<g id="node11" class="node">
<title>Node13</title>
<g id="a_node11"><a xlink:href="_tracking_8cc.html" target="_top" xlink:title="/home/alejandro/Desarrollo\l eclipse/os1/src/Tracking.cc">
<polygon fill="#ffffff" stroke="#000000" points="0,-.5 0,-30.5 140,-30.5 140,-.5 0,-.5"/>
<text text-anchor="start" x="8" y="-18.5" font-family="Helvetica,sans-Serif" font-size="10.00" fill="#000000">/home/alejandro/Desarrollo</text>
<text text-anchor="middle" x="70" y="-7.5" font-family="Helvetica,sans-Serif" font-size="10.00" fill="#000000"> eclipse/os1/src/Tracking.cc</text>
</a>
</g>
</g>
<!-- Node3&#45;&gt;Node13 -->
<g id="edge30" class="edge">
<title>Node3&#45;&gt;Node13</title>
<path fill="none" stroke="#191970" d="M1016.9583,-277.7676C869.0548,-266.989 579.6521,-237.8312 345,-165 272.5438,-142.5111 254.3315,-134.821 188,-98 151.0649,-77.4971 111.4706,-48.1104 88.8245,-30.5046"/>
<polygon fill="#191970" stroke="#191970" points="1017.1357,-281.2891 1027.3601,-278.5122 1017.6356,-274.307 1017.1357,-281.2891"/>
</g>
<!-- Node15 -->
<g id="node13" class="node">
<title>Node15</title>
<g id="a_node13"><a xlink:href="main_8cc.html" target="_top" xlink:title="/home/alejandro/Desarrollo\l eclipse/os1/src/main.cc">
<polygon fill="#ffffff" stroke="#000000" points="909.5,-67.5 909.5,-97.5 1042.5,-97.5 1042.5,-67.5 909.5,-67.5"/>
<text text-anchor="start" x="917.5" y="-85.5" font-family="Helvetica,sans-Serif" font-size="10.00" fill="#000000">/home/alejandro/Desarrollo</text>
<text text-anchor="middle" x="976" y="-74.5" font-family="Helvetica,sans-Serif" font-size="10.00" fill="#000000"> eclipse/os1/src/main.cc</text>
</a>
</g>
</g>
<!-- Node3&#45;&gt;Node15 -->
<g id="edge28" class="edge">
<title>Node3&#45;&gt;Node15</title>
<path fill="none" stroke="#191970" d="M1155.6415,-263.8811C1209.5865,-235.8639 1292.2176,-182.4162 1252,-134 1225.9153,-102.5979 1115.8081,-90.241 1042.7966,-85.4503"/>
<polygon fill="#191970" stroke="#191970" points="1153.9225,-260.8286 1146.5964,-268.4823 1157.0964,-267.0677 1153.9225,-260.8286"/>
</g>
<!-- Node17 -->
<g id="node15" class="node">
<title>Node17</title>
<g id="a_node15"><a xlink:href="_frame_drawer_8cc.html" target="_top" xlink:title="/home/alejandro/Desarrollo\l eclipse/os1/src/FrameDrawer.cc">
<polygon fill="#ffffff" stroke="#000000" points="930.5,-134.5 930.5,-164.5 1091.5,-164.5 1091.5,-134.5 930.5,-134.5"/>
<text text-anchor="start" x="938.5" y="-152.5" font-family="Helvetica,sans-Serif" font-size="10.00" fill="#000000">/home/alejandro/Desarrollo</text>
<text text-anchor="middle" x="1011" y="-141.5" font-family="Helvetica,sans-Serif" font-size="10.00" fill="#000000"> eclipse/os1/src/FrameDrawer.cc</text>
</a>
</g>
</g>
<!-- Node3&#45;&gt;Node17 -->
<g id="edge27" class="edge">
<title>Node3&#45;&gt;Node17</title>
<path fill="none" stroke="#191970" d="M1096.0481,-260.1452C1074.9803,-232.7365 1040.6517,-188.076 1022.7308,-164.7614"/>
<polygon fill="#191970" stroke="#191970" points="1093.5156,-262.5935 1102.3848,-268.389 1099.0655,-258.3275 1093.5156,-262.5935"/>
</g>
<!-- Node18 -->
<g id="node16" class="node">
<title>Node18</title>
<g id="a_node16"><a xlink:href="_viewer_8cc.html" target="_top" xlink:title="/home/alejandro/Desarrollo\l eclipse/os1/src/Viewer.cc">
<polygon fill="#ffffff" stroke="#000000" points="1109.5,-134.5 1109.5,-164.5 1242.5,-164.5 1242.5,-134.5 1109.5,-134.5"/>
<text text-anchor="start" x="1117.5" y="-152.5" font-family="Helvetica,sans-Serif" font-size="10.00" fill="#000000">/home/alejandro/Desarrollo</text>
<text text-anchor="middle" x="1176" y="-141.5" font-family="Helvetica,sans-Serif" font-size="10.00" fill="#000000"> eclipse/os1/src/Viewer.cc</text>
</a>
</g>
</g>
<!-- Node3&#45;&gt;Node18 -->
<g id="edge31" class="edge">
<title>Node3&#45;&gt;Node18</title>
<path fill="none" stroke="#191970" d="M1125.3041,-259.0686C1138.0227,-231.58 1158.2915,-187.7732 1168.9388,-164.7614"/>
<polygon fill="#191970" stroke="#191970" points="1122.0144,-257.8436 1120.9917,-268.389 1128.3674,-260.7831 1122.0144,-257.8436"/>
</g>
<!-- Node5 -->
<g id="node3" class="node">
<title>Node5</title>
<g id="a_node3"><a xlink:href="_loop_closing_8h.html" target="_top" xlink:title="/home/alejandro/Desarrollo\l eclipse/os1/include/LoopClosing.h">
<polygon fill="#ffffff" stroke="#000000" points="448,-134.5 448,-164.5 616,-164.5 616,-134.5 448,-134.5"/>
<text text-anchor="start" x="456" y="-152.5" font-family="Helvetica,sans-Serif" font-size="10.00" fill="#000000">/home/alejandro/Desarrollo</text>
<text text-anchor="middle" x="532" y="-141.5" font-family="Helvetica,sans-Serif" font-size="10.00" fill="#000000"> eclipse/os1/include/LoopClosing.h</text>
</a>
</g>
</g>
<!-- Node4&#45;&gt;Node5 -->
<g id="edge2" class="edge">
<title>Node4&#45;&gt;Node5</title>
<path fill="none" stroke="#191970" d="M695.5315,-198.6842C657.8593,-188.0568 611.9397,-174.7095 578.3185,-164.6017"/>
<polygon fill="#191970" stroke="#191970" points="694.8445,-202.1267 705.4186,-201.4639 696.7391,-195.388 694.8445,-202.1267"/>
</g>
<!-- Node6 -->
<g id="node4" class="node">
<title>Node6</title>
<g id="a_node4"><a xlink:href="_local_mapping_8h.html" target="_top" xlink:title="/home/alejandro/Desarrollo\l eclipse/os1/include/LocalMapping.h">
<polygon fill="#ffffff" stroke="#000000" points="560,-67.5 560,-97.5 734,-97.5 734,-67.5 560,-67.5"/>
<text text-anchor="start" x="568" y="-85.5" font-family="Helvetica,sans-Serif" font-size="10.00" fill="#000000">/home/alejandro/Desarrollo</text>
<text text-anchor="middle" x="647" y="-74.5" font-family="Helvetica,sans-Serif" font-size="10.00" fill="#000000"> eclipse/os1/include/LocalMapping.h</text>
</a>
</g>
</g>
<!-- Node4&#45;&gt;Node6 -->
<g id="edge18" class="edge">
<title>Node4&#45;&gt;Node6</title>
<path fill="none" stroke="#191970" d="M712.0944,-196.5991C697.5325,-188.3891 682.7681,-177.7724 672,-165 655.1247,-144.9836 645.7127,-115.4411 643.8537,-97.6732"/>
<polygon fill="#191970" stroke="#191970" points="710.6265,-199.7828 721.0976,-201.3977 713.919,-193.6054 710.6265,-199.7828"/>
</g>
<!-- Node4&#45;&gt;Node8 -->
<g id="edge24" class="edge">
<title>Node4&#45;&gt;Node8</title>
<path fill="none" stroke="#191970" d="M813.6517,-197.6265C835.0334,-188.8443 859.8279,-177.5596 881,-165 900.3441,-153.5248 900.8937,-144.0804 921,-134 974.5938,-107.1304 1014.7024,-145.7153 1051,-98 1069.7033,-73.4135 1035.6514,-46.7988 1008.2826,-30.6374"/>
<polygon fill="#191970" stroke="#191970" points="812.0585,-194.495 804.0931,-201.481 814.6765,-200.987 812.0585,-194.495"/>
</g>
<!-- Node4&#45;&gt;Node13 -->
<g id="edge25" class="edge">
<title>Node4&#45;&gt;Node13</title>
<path fill="none" stroke="#191970" d="M676.4442,-207.7031C610.5894,-199.8211 518.1193,-186.1861 439,-165 358.5511,-143.4578 341.2222,-129.1902 264,-98 207.836,-75.3153 143.2095,-47.481 104.5356,-30.6362"/>
<polygon fill="#191970" stroke="#191970" points="676.4383,-211.2264 686.7788,-208.9189 677.2563,-204.2744 676.4383,-211.2264"/>
</g>
<!-- Node14 -->
<g id="node12" class="node">
<title>Node14</title>
<g id="a_node12"><a xlink:href="_osmap_8h.html" target="_top" xlink:title="/home/alejandro/Desarrollo\l eclipse/os1/include/Osmap.h">
<polygon fill="#ffffff" stroke="#000000" points="690,-134.5 690,-164.5 836,-164.5 836,-134.5 690,-134.5"/>
<text text-anchor="start" x="698" y="-152.5" font-family="Helvetica,sans-Serif" font-size="10.00" fill="#000000">/home/alejandro/Desarrollo</text>
<text text-anchor="middle" x="763" y="-141.5" font-family="Helvetica,sans-Serif" font-size="10.00" fill="#000000"> eclipse/os1/include/Osmap.h</text>
</a>
</g>
</g>
<!-- Node4&#45;&gt;Node14 -->
<g id="edge19" class="edge">
<title>Node4&#45;&gt;Node14</title>
<path fill="none" stroke="#191970" d="M763,-191.0249C763,-182.128 763,-172.4287 763,-164.6432"/>
<polygon fill="#191970" stroke="#191970" points="759.5001,-191.2966 763,-201.2967 766.5001,-191.2967 759.5001,-191.2966"/>
</g>
<!-- Node4&#45;&gt;Node15 -->
<g id="edge23" class="edge">
<title>Node4&#45;&gt;Node15</title>
<path fill="none" stroke="#191970" d="M796.905,-195.8803C811.7999,-186.6493 829.4116,-175.4986 845,-165 864.5411,-151.8392 868.2553,-146.8533 888,-134 907.8793,-121.0591 931.0583,-107.5553 948.6359,-97.6237"/>
<polygon fill="#191970" stroke="#191970" points="794.6988,-193.1288 788.0242,-201.3569 798.373,-199.087 794.6988,-193.1288"/>
</g>
<!-- Node4&#45;&gt;Node17 -->
<g id="edge22" class="edge">
<title>Node4&#45;&gt;Node17</title>
<path fill="none" stroke="#191970" d="M828.4433,-198.8198C867.8617,-188.1704 917.5279,-174.7525 955.1012,-164.6017"/>
<polygon fill="#191970" stroke="#191970" points="827.3971,-195.4768 818.656,-201.4639 829.2228,-202.2346 827.3971,-195.4768"/>
</g>
<!-- Node4&#45;&gt;Node18 -->
<g id="edge26" class="edge">
<title>Node4&#45;&gt;Node18</title>
<path fill="none" stroke="#191970" d="M849.3321,-204.6225C917.7515,-194.9018 1015.6964,-180.3025 1101,-165 1103.7483,-164.507 1106.5504,-163.9906 1109.3789,-163.4579"/>
<polygon fill="#191970" stroke="#191970" points="848.445,-201.2131 839.0344,-206.0804 849.4263,-208.144 848.445,-201.2131"/>
</g>
<!-- Node5&#45;&gt;Node4 -->
<g id="edge8" class="edge">
<title>Node5&#45;&gt;Node4</title>
<path fill="none" stroke="#191970" d="M599.7132,-167.3848C637.421,-178.024 683.3318,-191.3701 716.8996,-201.4639"/>
<polygon fill="#191970" stroke="#191970" points="600.3896,-163.9393 589.8155,-164.6017 598.4948,-170.678 600.3896,-163.9393"/>
</g>
<!-- Node5&#45;&gt;Node6 -->
<g id="edge3" class="edge">
<title>Node5&#45;&gt;Node6</title>
<path fill="none" stroke="#191970" d="M560.7855,-129.0761C577.3406,-118.9774 598.071,-106.9983 615.1175,-97.7177"/>
<polygon fill="#191970" stroke="#191970" points="558.7342,-126.2293 552.0677,-134.4639 562.4143,-132.1839 558.7342,-126.2293"/>
</g>
<!-- Node7 -->
<g id="node5" class="node">
<title>Node7</title>
<g id="a_node5"><a xlink:href="_local_mapping_8cc.html" target="_top" xlink:title="/home/alejandro/Desarrollo\l eclipse/os1/src/LocalMapping.cc">
<polygon fill="#ffffff" stroke="#000000" points="654,-.5 654,-30.5 816,-30.5 816,-.5 654,-.5"/>
<text text-anchor="start" x="662" y="-18.5" font-family="Helvetica,sans-Serif" font-size="10.00" fill="#000000">/home/alejandro/Desarrollo</text>
<text text-anchor="middle" x="735" y="-7.5" font-family="Helvetica,sans-Serif" font-size="10.00" fill="#000000"> eclipse/os1/src/LocalMapping.cc</text>
</a>
</g>
</g>
<!-- Node5&#45;&gt;Node7 -->
<g id="edge15" class="edge">
<title>Node5&#45;&gt;Node7</title>
<path fill="none" stroke="#191970" d="M518.7654,-125.158C511.0316,-107.2761 505.0779,-83.3477 518,-67 526.749,-55.9316 595.8749,-40.7731 653.7922,-29.7695"/>
<polygon fill="#191970" stroke="#191970" points="515.6919,-126.8454 523.1366,-134.3838 522.0178,-123.8482 515.6919,-126.8454"/>
</g>
<!-- Node5&#45;&gt;Node8 -->
<g id="edge17" class="edge">
<title>Node5&#45;&gt;Node8</title>
<path fill="none" stroke="#191970" d="M530.6822,-124.3064C531.1796,-105.6912 535.1906,-81.2079 551,-67 557.6276,-61.0437 791.3945,-35.4342 910.5835,-22.7192"/>
<polygon fill="#191970" stroke="#191970" points="527.1829,-124.4841 530.7326,-134.4666 534.1828,-124.4493 527.1829,-124.4841"/>
</g>
<!-- Node9 -->
<g id="node7" class="node">
<title>Node9</title>
<g id="a_node7"><a xlink:href="_optimizer_8h.html" target="_top" xlink:title="/home/alejandro/Desarrollo\l eclipse/os1/include/Optimizer.h">
<polygon fill="#ffffff" stroke="#000000" points="310,-67.5 310,-97.5 466,-97.5 466,-67.5 310,-67.5"/>
<text text-anchor="start" x="318" y="-85.5" font-family="Helvetica,sans-Serif" font-size="10.00" fill="#000000">/home/alejandro/Desarrollo</text>
<text text-anchor="middle" x="388" y="-74.5" font-family="Helvetica,sans-Serif" font-size="10.00" fill="#000000"> eclipse/os1/include/Optimizer.h</text>
</a>
</g>
</g>
<!-- Node5&#45;&gt;Node9 -->
<g id="edge9" class="edge">
<title>Node5&#45;&gt;Node9</title>
<path fill="none" stroke="#191970" d="M490.4983,-130.1902C468.3144,-119.8685 441.3919,-107.3421 420.7068,-97.7177"/>
<polygon fill="#191970" stroke="#191970" points="489.1404,-133.4187 499.6836,-134.4639 492.0934,-127.072 489.1404,-133.4187"/>
</g>
<!-- Node11 -->
<g id="node9" class="node">
<title>Node11</title>
<g id="a_node9"><a xlink:href="_loop_closing_8cc.html" target="_top" xlink:title="/home/alejandro/Desarrollo\l eclipse/os1/src/LoopClosing.cc">
<polygon fill="#ffffff" stroke="#000000" points="158,-.5 158,-30.5 314,-30.5 314,-.5 158,-.5"/>
<text text-anchor="start" x="166" y="-18.5" font-family="Helvetica,sans-Serif" font-size="10.00" fill="#000000">/home/alejandro/Desarrollo</text>
<text text-anchor="middle" x="236" y="-7.5" font-family="Helvetica,sans-Serif" font-size="10.00" fill="#000000"> eclipse/os1/src/LoopClosing.cc</text>
</a>
</g>
</g>
<!-- Node5&#45;&gt;Node11 -->
<g id="edge16" class="edge">
<title>Node5&#45;&gt;Node11</title>
<path fill="none" stroke="#191970" d="M438.109,-135.1256C384.6839,-125.6852 323.9614,-112.4412 301,-98 274.2969,-81.2055 254.0005,-49.4337 243.6465,-30.5971"/>
<polygon fill="#191970" stroke="#191970" points="437.5373,-138.5786 447.989,-136.8435 438.7365,-131.6821 437.5373,-138.5786"/>
</g>
<!-- Node6&#45;&gt;Node4 -->
<g id="edge5" class="edge">
<title>Node6&#45;&gt;Node4</title>
<path fill="none" stroke="#191970" d="M660.3531,-107.2751C667.0019,-124.8783 675.8933,-148.2676 690,-165 703.003,-180.4233 721.8332,-192.7032 737.2436,-201.3977"/>
<polygon fill="#191970" stroke="#191970" points="663.5206,-105.7595 656.6751,-97.6732 656.9838,-108.2635 663.5206,-105.7595"/>
</g>
<!-- Node6&#45;&gt;Node5 -->
<g id="edge4" class="edge">
<title>Node6&#45;&gt;Node5</title>
<path fill="none" stroke="#191970" d="M617.8894,-103.1222C601.2801,-113.2452 580.5467,-125.2188 563.5488,-134.4639"/>
<polygon fill="#191970" stroke="#191970" points="619.9725,-105.9494 626.6426,-97.7177 616.295,-99.9932 619.9725,-105.9494"/>
</g>
<!-- Node6&#45;&gt;Node7 -->
<g id="edge6" class="edge">
<title>Node6&#45;&gt;Node7</title>
<path fill="none" stroke="#191970" d="M675.1543,-61.0643C688.166,-51.1577 703.3114,-39.6265 715.1105,-30.6432"/>
<polygon fill="#191970" stroke="#191970" points="672.8048,-58.4542 666.9686,-67.2967 677.0452,-64.0237 672.8048,-58.4542"/>
</g>
<!-- Node6&#45;&gt;Node8 -->
<g id="edge7" class="edge">
<title>Node6&#45;&gt;Node8</title>
<path fill="none" stroke="#191970" d="M731.3476,-65.478C787.001,-54.2468 858.96,-39.7249 910.9557,-29.2318"/>
<polygon fill="#191970" stroke="#191970" points="730.6173,-62.0548 721.5073,-67.4639 732.0021,-68.9165 730.6173,-62.0548"/>
</g>
<!-- Node9&#45;&gt;Node7 -->
<g id="edge11" class="edge">
<title>Node9&#45;&gt;Node7</title>
<path fill="none" stroke="#191970" d="M475.7531,-65.5563C531.5923,-54.7747 603.261,-40.9366 657.0867,-30.5438"/>
<polygon fill="#191970" stroke="#191970" points="475.0287,-62.1315 465.8736,-67.4639 476.3558,-69.0045 475.0287,-62.1315"/>
</g>
<!-- Node10 -->
<g id="node8" class="node">
<title>Node10</title>
<g id="a_node8"><a xlink:href="_initializer_8cc.html" target="_top" xlink:title="/home/alejandro/Desarrollo\l eclipse/os1/src/Initializer.cc">
<polygon fill="#ffffff" stroke="#000000" points="494.5,-.5 494.5,-30.5 635.5,-30.5 635.5,-.5 494.5,-.5"/>
<text text-anchor="start" x="502.5" y="-18.5" font-family="Helvetica,sans-Serif" font-size="10.00" fill="#000000">/home/alejandro/Desarrollo</text>
<text text-anchor="middle" x="565" y="-7.5" font-family="Helvetica,sans-Serif" font-size="10.00" fill="#000000"> eclipse/os1/src/Initializer.cc</text>
</a>
</g>
</g>
<!-- Node9&#45;&gt;Node10 -->
<g id="edge10" class="edge">
<title>Node9&#45;&gt;Node10</title>
<path fill="none" stroke="#191970" d="M437.2298,-63.865C464.936,-53.3773 499.0835,-40.4515 525.1045,-30.6017"/>
<polygon fill="#191970" stroke="#191970" points="435.8356,-60.6503 427.7223,-67.4639 438.3137,-67.197 435.8356,-60.6503"/>
</g>
<!-- Node9&#45;&gt;Node11 -->
<g id="edge12" class="edge">
<title>Node9&#45;&gt;Node11</title>
<path fill="none" stroke="#191970" d="M344.4718,-63.3132C320.9083,-52.9267 292.216,-40.2794 270.2605,-30.6017"/>
<polygon fill="#191970" stroke="#191970" points="343.326,-66.6331 353.8882,-67.4639 346.1495,-60.2277 343.326,-66.6331"/>
</g>
<!-- Node12 -->
<g id="node10" class="node">
<title>Node12</title>
<g id="a_node10"><a xlink:href="_optimizer_8cc.html" target="_top" xlink:title="/home/alejandro/Desarrollo\l eclipse/os1/src/Optimizer.cc">
<polygon fill="#ffffff" stroke="#000000" points="332,-.5 332,-30.5 476,-30.5 476,-.5 332,-.5"/>
<text text-anchor="start" x="340" y="-18.5" font-family="Helvetica,sans-Serif" font-size="10.00" fill="#000000">/home/alejandro/Desarrollo</text>
<text text-anchor="middle" x="404" y="-7.5" font-family="Helvetica,sans-Serif" font-size="10.00" fill="#000000"> eclipse/os1/src/Optimizer.cc</text>
</a>
</g>
</g>
<!-- Node9&#45;&gt;Node12 -->
<g id="edge13" class="edge">
<title>Node9&#45;&gt;Node12</title>
<path fill="none" stroke="#191970" d="M394.0136,-57.3179C396.1573,-48.3414 398.5041,-38.5143 400.3837,-30.6432"/>
<polygon fill="#191970" stroke="#191970" points="390.5492,-56.7572 391.6306,-67.2967 397.3577,-58.3831 390.5492,-56.7572"/>
</g>
<!-- Node9&#45;&gt;Node13 -->
<g id="edge14" class="edge">
<title>Node9&#45;&gt;Node13</title>
<path fill="none" stroke="#191970" d="M306.5362,-65.3362C255.0401,-54.4864 189.1756,-40.6093 140.0324,-30.2553"/>
<polygon fill="#191970" stroke="#191970" points="306.1278,-68.827 316.6346,-67.4639 307.571,-61.9773 306.1278,-68.827"/>
</g>
<!-- Node14&#45;&gt;Node15 -->
<g id="edge20" class="edge">
<title>Node14&#45;&gt;Node15</title>
<path fill="none" stroke="#191970" d="M820.5027,-131.4123C854.1455,-120.8298 896.1298,-107.6235 927.9902,-97.6017"/>
<polygon fill="#191970" stroke="#191970" points="819.2903,-128.1245 810.8014,-134.4639 821.3908,-134.802 819.2903,-128.1245"/>
</g>
<!-- Node16 -->
<g id="node14" class="node">
<title>Node16</title>
<g id="a_node14"><a xlink:href="_osmap_8cpp.html" target="_top" xlink:title="/home/alejandro/Desarrollo\l eclipse/os1/src/Osmap.cpp">
<polygon fill="#ffffff" stroke="#000000" points="752.5,-67.5 752.5,-97.5 891.5,-97.5 891.5,-67.5 752.5,-67.5"/>
<text text-anchor="start" x="760.5" y="-85.5" font-family="Helvetica,sans-Serif" font-size="10.00" fill="#000000">/home/alejandro/Desarrollo</text>
<text text-anchor="middle" x="822" y="-74.5" font-family="Helvetica,sans-Serif" font-size="10.00" fill="#000000"> eclipse/os1/src/Osmap.cpp</text>
</a>
</g>
</g>
<!-- Node14&#45;&gt;Node16 -->
<g id="edge21" class="edge">
<title>Node14&#45;&gt;Node16</title>
<path fill="none" stroke="#191970" d="M783.1318,-126.6385C791.5619,-117.0653 801.131,-106.1987 808.665,-97.6432"/>
<polygon fill="#191970" stroke="#191970" points="780.3701,-124.4786 776.388,-134.2967 785.6236,-129.1048 780.3701,-124.4786"/>
</g>
</g>
</svg>
