<?xml version="1.0" encoding="UTF-8" standalone="no"?>
<!DOCTYPE svg PUBLIC "-//W3C//DTD SVG 1.1//EN"
 "http://www.w3.org/Graphics/SVG/1.1/DTD/svg11.dtd">
<!-- Generated by graphviz version 2.38.0 (20140413.2041)
 -->
<!-- Title: /home/alejandro/Desarrollo eclipse/os1/include/Frame.h Pages: 1 -->
<svg width="917pt" height="441pt"
 viewBox="0.00 0.00 917.11 441.00" xmlns="http://www.w3.org/2000/svg" xmlns:xlink="http://www.w3.org/1999/xlink">
<g id="graph0" class="graph" transform="scale(1 1) rotate(0) translate(4 437)">
<title>/home/alejandro/Desarrollo eclipse/os1/include/Frame.h</title>
<polygon fill="white" stroke="none" points="-4,4 -4,-437 913.108,-437 913.108,4 -4,4"/>
<!-- Node33 -->
<g id="node1" class="node"><title>Node33</title>
<polygon fill="#bfbfbf" stroke="black" points="382,-402.5 382,-432.5 524,-432.5 524,-402.5 382,-402.5"/>
<text text-anchor="start" x="390" y="-420.5" font-family="Helvetica,sans-Serif" font-size="10.00">/home/alejandro/Desarrollo</text>
<text text-anchor="middle" x="453" y="-409.5" font-family="Helvetica,sans-Serif" font-size="10.00"> eclipse/os1/include/Frame.h</text>
</g>
<!-- Node34 -->
<g id="node2" class="node"><title>Node34</title>
<g id="a_node2"><a xlink:href="_key_frame_8h.html" target="_top" xlink:title="/home/alejandro/Desarrollo\l eclipse/os1/include/KeyFrame.h">
<polygon fill="white" stroke="black" points="373.5,-335.5 373.5,-365.5 532.5,-365.5 532.5,-335.5 373.5,-335.5"/>
<text text-anchor="start" x="381.5" y="-353.5" font-family="Helvetica,sans-Serif" font-size="10.00">/home/alejandro/Desarrollo</text>
<text text-anchor="middle" x="453" y="-342.5" font-family="Helvetica,sans-Serif" font-size="10.00"> eclipse/os1/include/KeyFrame.h</text>
</a>
</g>
</g>
<!-- Node33&#45;&gt;Node34 -->
<g id="edge1" class="edge"><title>Node33&#45;&gt;Node34</title>
<path fill="none" stroke="midnightblue" d="M453,-392.108C453,-383.154 453,-373.323 453,-365.577"/>
<polygon fill="midnightblue" stroke="midnightblue" points="449.5,-392.396 453,-402.396 456.5,-392.396 449.5,-392.396"/>
</g>
<!-- Node35 -->
<g id="node3" class="node"><title>Node35</title>
<g id="a_node3"><a xlink:href="_map_point_8h.html" target="_top" xlink:title="/home/alejandro/Desarrollo\l eclipse/os1/include/MapPoint.h">
<polygon fill="white" stroke="black" points="104.5,-268.5 104.5,-298.5 259.5,-298.5 259.5,-268.5 104.5,-268.5"/>
<text text-anchor="start" x="112.5" y="-286.5" font-family="Helvetica,sans-Serif" font-size="10.00">/home/alejandro/Desarrollo</text>
<text text-anchor="middle" x="182" y="-275.5" font-family="Helvetica,sans-Serif" font-size="10.00"> eclipse/os1/include/MapPoint.h</text>
</a>
</g>
</g>
<!-- Node33&#45;&gt;Node35 -->
<g id="edge29" class="edge"><title>Node33&#45;&gt;Node35</title>
<path fill="none" stroke="midnightblue" d="M410.729,-398.265C353.318,-371.618 252.849,-322.604 206.497,-298.556"/>
<polygon fill="midnightblue" stroke="midnightblue" points="409.354,-401.485 419.9,-402.499 412.288,-395.129 409.354,-401.485"/>
</g>
<!-- Node37 -->
<g id="node5" class="node"><title>Node37</title>
<g id="a_node5"><a xlink:href="_tracking_8h.html" target="_top" xlink:title="/home/alejandro/Desarrollo\l eclipse/os1/include/Tracking.h">
<polygon fill="white" stroke="black" points="663,-134.5 663,-164.5 815,-164.5 815,-134.5 663,-134.5"/>
<text text-anchor="start" x="671" y="-152.5" font-family="Helvetica,sans-Serif" font-size="10.00">/home/alejandro/Desarrollo</text>
<text text-anchor="middle" x="739" y="-141.5" font-family="Helvetica,sans-Serif" font-size="10.00"> eclipse/os1/include/Tracking.h</text>
</a>
</g>
</g>
<!-- Node33&#45;&gt;Node37 -->
<g id="edge32" class="edge"><title>Node33&#45;&gt;Node37</title>
<path fill="none" stroke="midnightblue" d="M534.512,-412.748C653.474,-406.425 863.08,-391.748 886,-366 936.618,-309.135 894.922,-253.72 840,-201 823.17,-184.845 800.162,-172.797 780.357,-164.528"/>
<polygon fill="midnightblue" stroke="midnightblue" points="534.152,-409.262 524.348,-413.28 534.518,-416.252 534.152,-409.262"/>
</g>
<!-- Node40 -->
<g id="node8" class="node"><title>Node40</title>
<g id="a_node8"><a xlink:href="_optimizer_8h.html" target="_top" xlink:title="/home/alejandro/Desarrollo\l eclipse/os1/include/Optimizer.h">
<polygon fill="white" stroke="black" points="185,-0.5 185,-30.5 341,-30.5 341,-0.5 185,-0.5"/>
<text text-anchor="start" x="193" y="-18.5" font-family="Helvetica,sans-Serif" font-size="10.00">/home/alejandro/Desarrollo</text>
<text text-anchor="middle" x="263" y="-7.5" font-family="Helvetica,sans-Serif" font-size="10.00"> eclipse/os1/include/Optimizer.h</text>
</a>
</g>
</g>
<!-- Node33&#45;&gt;Node40 -->
<g id="edge33" class="edge"><title>Node33&#45;&gt;Node40</title>
<path fill="none" stroke="midnightblue" d="M371.765,-409.568C241.407,-396.176 0,-361.043 0,-284.5 0,-284.5 0,-284.5 0,-148.5 0,-64.9711 107.278,-34.2943 184.803,-23.0309"/>
<polygon fill="midnightblue" stroke="midnightblue" points="371.42,-413.051 381.72,-410.571 372.122,-406.086 371.42,-413.051"/>
</g>
<!-- Node41 -->
<g id="node9" class="node"><title>Node41</title>
<g id="a_node9"><a xlink:href="_o_r_bmatcher_8h.html" target="_top" xlink:title="/home/alejandro/Desarrollo\l eclipse/os1/include/ORBmatcher.h">
<polygon fill="white" stroke="black" points="28.5,-201.5 28.5,-231.5 199.5,-231.5 199.5,-201.5 28.5,-201.5"/>
<text text-anchor="start" x="36.5" y="-219.5" font-family="Helvetica,sans-Serif" font-size="10.00">/home/alejandro/Desarrollo</text>
<text text-anchor="middle" x="114" y="-208.5" font-family="Helvetica,sans-Serif" font-size="10.00"> eclipse/os1/include/ORBmatcher.h</text>
</a>
</g>
</g>
<!-- Node33&#45;&gt;Node41 -->
<g id="edge34" class="edge"><title>Node33&#45;&gt;Node41</title>
<path fill="none" stroke="midnightblue" d="M371.839,-402.152C273.905,-382.988 118.092,-345.938 84,-299 68.8485,-278.139 87.3239,-248.783 101.263,-231.589"/>
<polygon fill="midnightblue" stroke="midnightblue" points="371.234,-405.6 381.717,-404.063 372.563,-398.727 371.234,-405.6"/>
</g>
<!-- Node42 -->
<g id="node10" class="node"><title>Node42</title>
<g id="a_node10"><a xlink:href="_pn_psolver_8h.html" target="_top" xlink:title="/home/alejandro/Desarrollo\l eclipse/os1/include/PnPsolver.h">
<polygon fill="white" stroke="black" points="318.5,-201.5 318.5,-231.5 477.5,-231.5 477.5,-201.5 318.5,-201.5"/>
<text text-anchor="start" x="326.5" y="-219.5" font-family="Helvetica,sans-Serif" font-size="10.00">/home/alejandro/Desarrollo</text>
<text text-anchor="middle" x="398" y="-208.5" font-family="Helvetica,sans-Serif" font-size="10.00"> eclipse/os1/include/PnPsolver.h</text>
</a>
</g>
</g>
<!-- Node33&#45;&gt;Node42 -->
<g id="edge35" class="edge"><title>Node33&#45;&gt;Node42</title>
<path fill="none" stroke="midnightblue" d="M505.889,-397.701C519.751,-390.087 533.035,-379.755 541,-366 547.905,-354.077 545.465,-348.034 541,-335 523.507,-283.931 467.389,-249.287 430.874,-231.504"/>
<polygon fill="midnightblue" stroke="midnightblue" points="504.093,-394.687 496.745,-402.32 507.249,-400.935 504.093,-394.687"/>
</g>
<!-- Node43 -->
<g id="node11" class="node"><title>Node43</title>
<g id="a_node11"><a xlink:href="_key_frame_database_8h.html" target="_top" xlink:title="/home/alejandro/Desarrollo\l eclipse/os1/include/KeyFrameDatabase.h">
<polygon fill="white" stroke="black" points="650.5,-268.5 650.5,-298.5 851.5,-298.5 851.5,-268.5 650.5,-268.5"/>
<text text-anchor="start" x="658.5" y="-286.5" font-family="Helvetica,sans-Serif" font-size="10.00">/home/alejandro/Desarrollo</text>
<text text-anchor="middle" x="751" y="-275.5" font-family="Helvetica,sans-Serif" font-size="10.00"> eclipse/os1/include/KeyFrameDatabase.h</text>
</a>
</g>
</g>
<!-- Node33&#45;&gt;Node43 -->
<g id="edge28" class="edge"><title>Node33&#45;&gt;Node43</title>
<path fill="none" stroke="midnightblue" d="M534.078,-400.539C566.668,-392.498 604.021,-381.168 636,-366 674.471,-347.752 713.772,-316.659 735.003,-298.612"/>
<polygon fill="midnightblue" stroke="midnightblue" points="533.034,-397.19 524.128,-402.93 534.669,-403.997 533.034,-397.19"/>
</g>
<!-- Node45 -->
<g id="node13" class="node"><title>Node45</title>
<g id="a_node13"><a xlink:href="_initializer_8h.html" target="_top" xlink:title="/home/alejandro/Desarrollo\l eclipse/os1/include/Initializer.h">
<polygon fill="white" stroke="black" points="724.5,-335.5 724.5,-365.5 877.5,-365.5 877.5,-335.5 724.5,-335.5"/>
<text text-anchor="start" x="732.5" y="-353.5" font-family="Helvetica,sans-Serif" font-size="10.00">/home/alejandro/Desarrollo</text>
<text text-anchor="middle" x="801" y="-342.5" font-family="Helvetica,sans-Serif" font-size="10.00"> eclipse/os1/include/Initializer.h</text>
</a>
</g>
</g>
<!-- Node33&#45;&gt;Node45 -->
<g id="edge30" class="edge"><title>Node33&#45;&gt;Node45</title>
<path fill="none" stroke="midnightblue" d="M534.114,-401.349C592.044,-390.529 669.407,-376.079 725.922,-365.523"/>
<polygon fill="midnightblue" stroke="midnightblue" points="533.45,-397.913 524.263,-403.189 534.735,-404.794 533.45,-397.913"/>
</g>
<!-- Node34&#45;&gt;Node35 -->
<g id="edge2" class="edge"><title>Node34&#45;&gt;Node35</title>
<path fill="none" stroke="midnightblue" d="M379.039,-333.186C333.498,-322.54 276.233,-308.784 235.152,-298.611"/>
<polygon fill="midnightblue" stroke="midnightblue" points="378.329,-336.614 388.863,-335.476 379.919,-329.797 378.329,-336.614"/>
</g>
<!-- Node36 -->
<g id="node4" class="node"><title>Node36</title>
<g id="a_node4"><a xlink:href="_map_drawer_8h.html" target="_top" xlink:title="/home/alejandro/Desarrollo\l eclipse/os1/include/MapDrawer.h">
<polygon fill="white" stroke="black" points="574,-201.5 574,-231.5 738,-231.5 738,-201.5 574,-201.5"/>
<text text-anchor="start" x="582" y="-219.5" font-family="Helvetica,sans-Serif" font-size="10.00">/home/alejandro/Desarrollo</text>
<text text-anchor="middle" x="656" y="-208.5" font-family="Helvetica,sans-Serif" font-size="10.00"> eclipse/os1/include/MapDrawer.h</text>
</a>
</g>
</g>
<!-- Node34&#45;&gt;Node36 -->
<g id="edge24" class="edge"><title>Node34&#45;&gt;Node36</title>
<path fill="none" stroke="midnightblue" d="M498.27,-331.304C517.878,-322.629 540.71,-311.431 560,-299 591.426,-278.749 623.702,-249.188 641.671,-231.791"/>
<polygon fill="midnightblue" stroke="midnightblue" points="496.714,-328.164 488.933,-335.354 499.5,-334.586 496.714,-328.164"/>
</g>
<!-- Node38 -->
<g id="node6" class="node"><title>Node38</title>
<g id="a_node6"><a xlink:href="_loop_closing_8h.html" target="_top" xlink:title="/home/alejandro/Desarrollo\l eclipse/os1/include/LoopClosing.h">
<polygon fill="white" stroke="black" points="536,-67.5 536,-97.5 704,-97.5 704,-67.5 536,-67.5"/>
<text text-anchor="start" x="544" y="-85.5" font-family="Helvetica,sans-Serif" font-size="10.00">/home/alejandro/Desarrollo</text>
<text text-anchor="middle" x="620" y="-74.5" font-family="Helvetica,sans-Serif" font-size="10.00"> eclipse/os1/include/LoopClosing.h</text>
</a>
</g>
</g>
<!-- Node34&#45;&gt;Node38 -->
<g id="edge23" class="edge"><title>Node34&#45;&gt;Node38</title>
<path fill="none" stroke="midnightblue" d="M487.224,-329.725C499.392,-321.429 512.431,-310.925 522,-299 551.768,-261.903 545.361,-244.32 565,-201 582.019,-163.46 602.811,-119.548 613.285,-97.5565"/>
<polygon fill="midnightblue" stroke="midnightblue" points="485.044,-326.969 478.581,-335.365 488.868,-332.832 485.044,-326.969"/>
</g>
<!-- Node39 -->
<g id="node7" class="node"><title>Node39</title>
<g id="a_node7"><a xlink:href="_local_mapping_8h.html" target="_top" xlink:title="/home/alejandro/Desarrollo\l eclipse/os1/include/LocalMapping.h">
<polygon fill="white" stroke="black" points="593,-0.5 593,-30.5 767,-30.5 767,-0.5 593,-0.5"/>
<text text-anchor="start" x="601" y="-18.5" font-family="Helvetica,sans-Serif" font-size="10.00">/home/alejandro/Desarrollo</text>
<text text-anchor="middle" x="680" y="-7.5" font-family="Helvetica,sans-Serif" font-size="10.00"> eclipse/os1/include/LocalMapping.h</text>
</a>
</g>
</g>
<!-- Node34&#45;&gt;Node39 -->
<g id="edge22" class="edge"><title>Node34&#45;&gt;Node39</title>
<path fill="none" stroke="midnightblue" d="M471.502,-327.529C477.847,-319.059 484.48,-309.009 489,-299 504.308,-265.103 508,-254.694 508,-217.5 508,-217.5 508,-217.5 508,-148.5 508,-111.306 501.907,-94.4534 527,-67 544.173,-48.2115 568.47,-36.3993 592.656,-28.9779"/>
<polygon fill="midnightblue" stroke="midnightblue" points="468.742,-325.377 465.342,-335.411 474.257,-329.687 468.742,-325.377"/>
</g>
<!-- Node34&#45;&gt;Node40 -->
<g id="edge25" class="edge"><title>Node34&#45;&gt;Node40</title>
<path fill="none" stroke="midnightblue" d="M363.696,-334.208C342.612,-326.727 321.947,-315.587 307,-299 282.102,-271.369 288,-254.694 288,-217.5 288,-217.5 288,-217.5 288,-148.5 288,-104.884 274.66,-54.5551 267.469,-30.5932"/>
<polygon fill="midnightblue" stroke="midnightblue" points="362.801,-337.598 373.394,-337.394 364.986,-330.948 362.801,-337.598"/>
</g>
<!-- Node34&#45;&gt;Node41 -->
<g id="edge26" class="edge"><title>Node34&#45;&gt;Node41</title>
<path fill="none" stroke="midnightblue" d="M363.133,-349.728C268.66,-347.824 129.06,-338.202 95,-299 78.515,-280.026 92.9874,-249.477 104.105,-231.663"/>
<polygon fill="midnightblue" stroke="midnightblue" points="363.213,-353.23 373.274,-349.906 363.337,-346.231 363.213,-353.23"/>
</g>
<!-- Node34&#45;&gt;Node43 -->
<g id="edge17" class="edge"><title>Node34&#45;&gt;Node43</title>
<path fill="none" stroke="midnightblue" d="M521.57,-333.249C569.337,-322.575 632.792,-308.754 680.892,-298.555"/>
<polygon fill="midnightblue" stroke="midnightblue" points="520.62,-329.875 511.627,-335.476 522.15,-336.705 520.62,-329.875"/>
</g>
<!-- Node44 -->
<g id="node12" class="node"><title>Node44</title>
<g id="a_node12"><a xlink:href="_sim3_solver_8h.html" target="_top" xlink:title="/home/alejandro/Desarrollo\l eclipse/os1/include/Sim3Solver.h">
<polygon fill="white" stroke="black" points="316,-268.5 316,-298.5 480,-298.5 480,-268.5 316,-268.5"/>
<text text-anchor="start" x="324" y="-286.5" font-family="Helvetica,sans-Serif" font-size="10.00">/home/alejandro/Desarrollo</text>
<text text-anchor="middle" x="398" y="-275.5" font-family="Helvetica,sans-Serif" font-size="10.00"> eclipse/os1/include/Sim3Solver.h</text>
</a>
</g>
</g>
<!-- Node34&#45;&gt;Node44 -->
<g id="edge27" class="edge"><title>Node34&#45;&gt;Node44</title>
<path fill="none" stroke="midnightblue" d="M434.584,-327.736C426.447,-318.119 417.114,-307.089 409.911,-298.577"/>
<polygon fill="midnightblue" stroke="midnightblue" points="431.935,-330.023 441.066,-335.396 437.278,-325.501 431.935,-330.023"/>
</g>
<!-- Node35&#45;&gt;Node33 -->
<g id="edge3" class="edge"><title>Node35&#45;&gt;Node33</title>
<path fill="none" stroke="midnightblue" d="M224.315,-302.756C281.678,-329.381 381.969,-378.307 428.369,-402.374"/>
<polygon fill="midnightblue" stroke="midnightblue" points="225.697,-299.539 215.151,-298.525 222.763,-305.894 225.697,-299.539"/>
</g>
<!-- Node35&#45;&gt;Node34 -->
<g id="edge4" class="edge"><title>Node35&#45;&gt;Node34</title>
<path fill="none" stroke="midnightblue" d="M256.351,-300.906C301.958,-311.568 359.21,-325.323 400.199,-335.476"/>
<polygon fill="midnightblue" stroke="midnightblue" points="257.045,-297.473 246.511,-298.611 255.455,-304.29 257.045,-297.473"/>
</g>
<!-- Node35&#45;&gt;Node36 -->
<g id="edge5" class="edge"><title>Node35&#45;&gt;Node36</title>
<path fill="none" stroke="midnightblue" d="M269.852,-270.453C356.816,-258.527 488.913,-240.413 573.839,-228.767"/>
<polygon fill="midnightblue" stroke="midnightblue" points="269.172,-267.013 259.741,-271.839 270.124,-273.948 269.172,-267.013"/>
</g>
<!-- Node35&#45;&gt;Node40 -->
<g id="edge14" class="edge"><title>Node35&#45;&gt;Node40</title>
<path fill="none" stroke="midnightblue" d="M195.265,-259.435C199.744,-250.994 204.492,-241.244 208,-232 235.877,-158.535 254.188,-65.6932 260.527,-30.7033"/>
<polygon fill="midnightblue" stroke="midnightblue" points="192.136,-257.861 190.402,-268.313 198.276,-261.223 192.136,-257.861"/>
</g>
<!-- Node35&#45;&gt;Node41 -->
<g id="edge15" class="edge"><title>Node35&#45;&gt;Node41</title>
<path fill="none" stroke="midnightblue" d="M159.834,-261.311C149.633,-251.561 137.809,-240.259 128.726,-231.577"/>
<polygon fill="midnightblue" stroke="midnightblue" points="157.598,-264.016 167.245,-268.396 162.435,-258.956 157.598,-264.016"/>
</g>
<!-- Node35&#45;&gt;Node42 -->
<g id="edge16" class="edge"><title>Node35&#45;&gt;Node42</title>
<path fill="none" stroke="midnightblue" d="M238.227,-265.58C273.31,-255.022 317.94,-241.592 351.108,-231.611"/>
<polygon fill="midnightblue" stroke="midnightblue" points="237.17,-262.243 228.603,-268.476 239.187,-268.946 237.17,-262.243"/>
</g>
<!-- Node36&#45;&gt;Node37 -->
<g id="edge6" class="edge"><title>Node36&#45;&gt;Node37</title>
<path fill="none" stroke="midnightblue" d="M681.963,-195.168C694.655,-185.228 709.612,-173.514 721.025,-164.577"/>
<polygon fill="midnightblue" stroke="midnightblue" points="679.725,-192.475 674.01,-201.396 684.041,-197.986 679.725,-192.475"/>
</g>
<!-- Node37&#45;&gt;Node38 -->
<g id="edge7" class="edge"><title>Node37&#45;&gt;Node38</title>
<path fill="none" stroke="midnightblue" d="M698.423,-129.714C678.759,-119.463 656.08,-106.983 640.096,-97.5765"/>
<polygon fill="midnightblue" stroke="midnightblue" points="697.008,-132.923 707.5,-134.396 700.217,-126.701 697.008,-132.923"/>
</g>
<!-- Node37&#45;&gt;Node39 -->
<g id="edge13" class="edge"><title>Node37&#45;&gt;Node39</title>
<path fill="none" stroke="midnightblue" d="M725.683,-124.718C719.78,-108.11 712.872,-85.6609 704,-67 697.884,-54.1362 688.953,-40.6878 683.273,-30.9063"/>
<polygon fill="midnightblue" stroke="midnightblue" points="722.455,-126.078 729.237,-134.218 729.011,-123.625 722.455,-126.078"/>
</g>
<!-- Node38&#45;&gt;Node37 -->
<g id="edge11" class="edge"><title>Node38&#45;&gt;Node37</title>
<path fill="none" stroke="midnightblue" d="M660.519,-102.256C680.178,-112.503 702.86,-124.984 718.857,-134.396"/>
<polygon fill="midnightblue" stroke="midnightblue" points="661.938,-99.0491 651.446,-97.5765 658.729,-105.271 661.938,-99.0491"/>
</g>
<!-- Node38&#45;&gt;Node39 -->
<g id="edge8" class="edge"><title>Node38&#45;&gt;Node39</title>
<path fill="none" stroke="midnightblue" d="M633.926,-59.4472C642.136,-49.8986 652.445,-39.0037 661.331,-30.5765"/>
<polygon fill="midnightblue" stroke="midnightblue" points="631.026,-57.4626 627.341,-67.396 636.416,-61.9286 631.026,-57.4626"/>
</g>
<!-- Node38&#45;&gt;Node40 -->
<g id="edge12" class="edge"><title>Node38&#45;&gt;Node40</title>
<path fill="none" stroke="midnightblue" d="M532.942,-65.649C474.029,-54.9227 396.911,-40.8816 340.194,-30.5549"/>
<polygon fill="midnightblue" stroke="midnightblue" points="532.511,-69.128 542.976,-67.476 533.765,-62.2412 532.511,-69.128"/>
</g>
<!-- Node39&#45;&gt;Node37 -->
<g id="edge10" class="edge"><title>Node39&#45;&gt;Node37</title>
<path fill="none" stroke="midnightblue" d="M704.909,-38.8635C711.242,-47.3754 717.413,-57.3522 722,-67 732.714,-89.5339 740.563,-117.591 742.15,-134.218"/>
<polygon fill="midnightblue" stroke="midnightblue" points="707.541,-36.5498 698.574,-30.9063 702.064,-40.9098 707.541,-36.5498"/>
</g>
<!-- Node39&#45;&gt;Node38 -->
<g id="edge9" class="edge"><title>Node39&#45;&gt;Node38</title>
<path fill="none" stroke="midnightblue" d="M666.1,-38.5216C657.895,-48.0673 647.587,-58.9634 638.698,-67.396"/>
<polygon fill="midnightblue" stroke="midnightblue" points="668.998,-40.5105 672.681,-30.5765 663.607,-36.0452 668.998,-40.5105"/>
</g>
<!-- Node43&#45;&gt;Node34 -->
<g id="edge18" class="edge"><title>Node43&#45;&gt;Node34</title>
<path fill="none" stroke="midnightblue" d="M682.04,-300.839C634.27,-311.511 570.95,-325.302 522.963,-335.476"/>
<polygon fill="midnightblue" stroke="midnightblue" points="682.993,-304.212 691.986,-298.611 681.463,-297.381 682.993,-304.212"/>
</g>
<!-- Node43&#45;&gt;Node37 -->
<g id="edge19" class="edge"><title>Node43&#45;&gt;Node37</title>
<path fill="none" stroke="midnightblue" d="M767.605,-259.986C777.577,-243.624 787.077,-220.944 780,-201 775.015,-186.951 764.27,-173.964 755.031,-164.679"/>
<polygon fill="midnightblue" stroke="midnightblue" points="764.667,-258.084 762.119,-268.368 770.524,-261.918 764.667,-258.084"/>
</g>
<!-- Node43&#45;&gt;Node38 -->
<g id="edge20" class="edge"><title>Node43&#45;&gt;Node38</title>
<path fill="none" stroke="midnightblue" d="M756.309,-258.274C758.716,-240.746 758.81,-217.361 747,-201 721.058,-165.063 685.744,-195.932 654,-165 635.004,-146.49 626.155,-115.778 622.414,-97.8088"/>
<polygon fill="midnightblue" stroke="midnightblue" points="752.828,-257.869 754.597,-268.315 759.728,-259.046 752.828,-257.869"/>
</g>
<!-- Node43&#45;&gt;Node39 -->
<g id="edge21" class="edge"><title>Node43&#45;&gt;Node39</title>
<path fill="none" stroke="midnightblue" d="M774.566,-261.133C803.274,-232.38 845.448,-179.575 824,-134 800.643,-84.3681 744.806,-48.8386 709.927,-30.5683"/>
<polygon fill="midnightblue" stroke="midnightblue" points="771.981,-258.764 767.247,-268.243 776.859,-263.785 771.981,-258.764"/>
</g>
<!-- Node45&#45;&gt;Node37 -->
<g id="edge31" class="edge"><title>Node45&#45;&gt;Node37</title>
<path fill="none" stroke="midnightblue" d="M834.17,-329.407C844.405,-321.348 854.439,-311.08 860,-299 865.762,-286.485 865.126,-280.789 860,-268 841.097,-220.844 792.238,-183.636 762.71,-164.551"/>
<polygon fill="midnightblue" stroke="midnightblue" points="832.001,-326.657 826,-335.389 836.137,-332.305 832.001,-326.657"/>
</g>
</g>
</svg>
