<?xml version="1.0" encoding="UTF-8" standalone="no"?>
<!DOCTYPE svg PUBLIC "-//W3C//DTD SVG 1.1//EN"
 "http://www.w3.org/Graphics/SVG/1.1/DTD/svg11.dtd">
<!-- Generated by graphviz version 2.38.0 (20140413.2041)
 -->
<!-- Title: /home/alejandro/Desarrollo eclipse/os1/include/FrameDrawer.h Pages: 1 -->
<svg width="1059pt" height="441pt"
 viewBox="0.00 0.00 1058.50 441.00" xmlns="http://www.w3.org/2000/svg" xmlns:xlink="http://www.w3.org/1999/xlink">
<g id="graph0" class="graph" transform="scale(1 1) rotate(0) translate(4 437)">
<title>/home/alejandro/Desarrollo eclipse/os1/include/FrameDrawer.h</title>
<polygon fill="white" stroke="none" points="-4,4 -4,-437 1054.5,-437 1054.5,4 -4,4"/>
<!-- Node79 -->
<g id="node1" class="node"><title>Node79</title>
<polygon fill="#bfbfbf" stroke="black" points="321,-402.5 321,-432.5 494,-432.5 494,-402.5 321,-402.5"/>
<text text-anchor="start" x="329" y="-420.5" font-family="Helvetica,sans-Serif" font-size="10.00">/home/alejandro/Desarrollo</text>
<text text-anchor="middle" x="407.5" y="-409.5" font-family="Helvetica,sans-Serif" font-size="10.00"> eclipse/os1/include/FrameDrawer.h</text>
</g>
<!-- Node80 -->
<g id="node2" class="node"><title>Node80</title>
<g id="a_node2"><a xlink:href="_viewer_8h.html" target="_top" xlink:title="/home/alejandro/Desarrollo\l eclipse/os1/include/Viewer.h">
<polygon fill="white" stroke="black" points="200.5,-335.5 200.5,-365.5 344.5,-365.5 344.5,-335.5 200.5,-335.5"/>
<text text-anchor="start" x="208.5" y="-353.5" font-family="Helvetica,sans-Serif" font-size="10.00">/home/alejandro/Desarrollo</text>
<text text-anchor="middle" x="272.5" y="-342.5" font-family="Helvetica,sans-Serif" font-size="10.00"> eclipse/os1/include/Viewer.h</text>
</a>
</g>
</g>
<!-- Node79&#45;&gt;Node80 -->
<g id="edge1" class="edge"><title>Node79&#45;&gt;Node80</title>
<path fill="none" stroke="midnightblue" d="M369.06,-397.992C347.662,-387.689 321.448,-375.068 301.736,-365.577"/>
<polygon fill="midnightblue" stroke="midnightblue" points="367.679,-401.211 378.207,-402.396 370.715,-394.904 367.679,-401.211"/>
</g>
<!-- Node81 -->
<g id="node3" class="node"><title>Node81</title>
<g id="a_node3"><a xlink:href="_tracking_8h.html" target="_top" xlink:title="/home/alejandro/Desarrollo\l eclipse/os1/include/Tracking.h">
<polygon fill="white" stroke="black" points="331.5,-268.5 331.5,-298.5 483.5,-298.5 483.5,-268.5 331.5,-268.5"/>
<text text-anchor="start" x="339.5" y="-286.5" font-family="Helvetica,sans-Serif" font-size="10.00">/home/alejandro/Desarrollo</text>
<text text-anchor="middle" x="407.5" y="-275.5" font-family="Helvetica,sans-Serif" font-size="10.00"> eclipse/os1/include/Tracking.h</text>
</a>
</g>
</g>
<!-- Node79&#45;&gt;Node81 -->
<g id="edge32" class="edge"><title>Node79&#45;&gt;Node81</title>
<path fill="none" stroke="midnightblue" d="M402.144,-392.39C399.997,-364.901 400.33,-320.888 403.142,-298.525"/>
<polygon fill="midnightblue" stroke="midnightblue" points="398.664,-392.766 403.13,-402.374 405.63,-392.078 398.664,-392.766"/>
</g>
<!-- Node82 -->
<g id="node4" class="node"><title>Node82</title>
<g id="a_node4"><a xlink:href="_system_8h.html" target="_top" xlink:title="/home/alejandro/Desarrollo\l eclipse/os1/include/System.h">
<polygon fill="white" stroke="black" points="68.5,-67.5 68.5,-97.5 216.5,-97.5 216.5,-67.5 68.5,-67.5"/>
<text text-anchor="start" x="76.5" y="-85.5" font-family="Helvetica,sans-Serif" font-size="10.00">/home/alejandro/Desarrollo</text>
<text text-anchor="middle" x="142.5" y="-74.5" font-family="Helvetica,sans-Serif" font-size="10.00"> eclipse/os1/include/System.h</text>
</a>
</g>
</g>
<!-- Node79&#45;&gt;Node82 -->
<g id="edge31" class="edge"><title>Node79&#45;&gt;Node82</title>
<path fill="none" stroke="midnightblue" d="M310.433,-414.573C218.851,-406.977 95.5,-379.172 95.5,-284.5 95.5,-284.5 95.5,-284.5 95.5,-215.5 95.5,-170.254 120.311,-121.074 133.879,-97.5619"/>
<polygon fill="midnightblue" stroke="midnightblue" points="310.354,-418.077 320.591,-415.345 310.884,-411.098 310.354,-418.077"/>
</g>
<!-- Node92 -->
<g id="node14" class="node"><title>Node92</title>
<g id="a_node14"><a xlink:href="_tracking_8cc.html" target="_top" xlink:title="/home/alejandro/Desarrollo\l eclipse/os1/src/Tracking.cc">
<polygon fill="white" stroke="black" points="910.5,-67.5 910.5,-97.5 1050.5,-97.5 1050.5,-67.5 910.5,-67.5"/>
<text text-anchor="start" x="918.5" y="-85.5" font-family="Helvetica,sans-Serif" font-size="10.00">/home/alejandro/Desarrollo</text>
<text text-anchor="middle" x="980.5" y="-74.5" font-family="Helvetica,sans-Serif" font-size="10.00"> eclipse/os1/src/Tracking.cc</text>
</a>
</g>
</g>
<!-- Node79&#45;&gt;Node92 -->
<g id="edge34" class="edge"><title>Node79&#45;&gt;Node92</title>
<path fill="none" stroke="midnightblue" d="M504.316,-413.164C663.121,-405.026 961.5,-377.379 961.5,-284.5 961.5,-284.5 961.5,-284.5 961.5,-215.5 961.5,-172.204 971.638,-121.728 977.103,-97.663"/>
<polygon fill="midnightblue" stroke="midnightblue" points="503.877,-409.681 494.062,-413.672 504.224,-416.673 503.877,-409.681"/>
</g>
<!-- Node93 -->
<g id="node15" class="node"><title>Node93</title>
<g id="a_node15"><a xlink:href="_frame_drawer_8cc.html" target="_top" xlink:title="/home/alejandro/Desarrollo\l eclipse/os1/src/FrameDrawer.cc">
<polygon fill="white" stroke="black" points="754,-201.5 754,-231.5 915,-231.5 915,-201.5 754,-201.5"/>
<text text-anchor="start" x="762" y="-219.5" font-family="Helvetica,sans-Serif" font-size="10.00">/home/alejandro/Desarrollo</text>
<text text-anchor="middle" x="834.5" y="-208.5" font-family="Helvetica,sans-Serif" font-size="10.00"> eclipse/os1/src/FrameDrawer.cc</text>
</a>
</g>
</g>
<!-- Node79&#45;&gt;Node93 -->
<g id="edge33" class="edge"><title>Node79&#45;&gt;Node93</title>
<path fill="none" stroke="midnightblue" d="M447.143,-398.025C531.822,-358.561 728.777,-266.772 804.288,-231.58"/>
<polygon fill="midnightblue" stroke="midnightblue" points="445.452,-394.951 437.866,-402.348 448.409,-401.296 445.452,-394.951"/>
</g>
<!-- Node80&#45;&gt;Node81 -->
<g id="edge2" class="edge"><title>Node80&#45;&gt;Node81</title>
<path fill="none" stroke="midnightblue" d="M305.055,-330.853C325.49,-320.576 351.723,-308.025 372.589,-298.577"/>
<polygon fill="midnightblue" stroke="midnightblue" points="303.444,-327.746 296.115,-335.396 306.615,-333.987 303.444,-327.746"/>
</g>
<!-- Node80&#45;&gt;Node82 -->
<g id="edge29" class="edge"><title>Node80&#45;&gt;Node82</title>
<path fill="none" stroke="midnightblue" d="M203.354,-331.345C187.172,-323.782 171.723,-313.316 161.5,-299 116.334,-235.753 125.726,-134.753 135.808,-97.7127"/>
<polygon fill="midnightblue" stroke="midnightblue" points="202.363,-334.729 212.932,-335.47 205.131,-328.3 202.363,-334.729"/>
</g>
<!-- Node94 -->
<g id="node16" class="node"><title>Node94</title>
<g id="a_node16"><a xlink:href="_viewer_8cc.html" target="_top" xlink:title="/home/alejandro/Desarrollo\l eclipse/os1/src/Viewer.cc">
<polygon fill="white" stroke="black" points="180,-268.5 180,-298.5 313,-298.5 313,-268.5 180,-268.5"/>
<text text-anchor="start" x="188" y="-286.5" font-family="Helvetica,sans-Serif" font-size="10.00">/home/alejandro/Desarrollo</text>
<text text-anchor="middle" x="246.5" y="-275.5" font-family="Helvetica,sans-Serif" font-size="10.00"> eclipse/os1/src/Viewer.cc</text>
</a>
</g>
</g>
<!-- Node80&#45;&gt;Node94 -->
<g id="edge30" class="edge"><title>Node80&#45;&gt;Node94</title>
<path fill="none" stroke="midnightblue" d="M263.096,-325.991C259.422,-316.804 255.331,-306.578 252.131,-298.577"/>
<polygon fill="midnightblue" stroke="midnightblue" points="259.895,-327.411 266.858,-335.396 266.394,-324.811 259.895,-327.411"/>
</g>
<!-- Node81&#45;&gt;Node79 -->
<g id="edge3" class="edge"><title>Node81&#45;&gt;Node79</title>
<path fill="none" stroke="midnightblue" d="M412.846,-308.486C415.001,-335.924 414.675,-379.945 411.87,-402.374"/>
<polygon fill="midnightblue" stroke="midnightblue" points="416.328,-308.13 411.858,-298.525 409.363,-308.822 416.328,-308.13"/>
</g>
<!-- Node81&#45;&gt;Node80 -->
<g id="edge4" class="edge"><title>Node81&#45;&gt;Node80</title>
<path fill="none" stroke="midnightblue" d="M375.004,-303.117C354.581,-313.39 328.348,-325.941 307.471,-335.396"/>
<polygon fill="midnightblue" stroke="midnightblue" points="376.61,-306.227 383.939,-298.577 373.438,-299.987 376.61,-306.227"/>
</g>
<!-- Node81&#45;&gt;Node82 -->
<g id="edge5" class="edge"><title>Node81&#45;&gt;Node82</title>
<path fill="none" stroke="midnightblue" d="M367.648,-263.544C327.845,-241.693 266.148,-203.783 217.5,-165 190.49,-143.467 162.31,-114.593 149.061,-97.6229"/>
<polygon fill="midnightblue" stroke="midnightblue" points="366.073,-266.671 376.534,-268.35 369.404,-260.514 366.073,-266.671"/>
</g>
<!-- Node85 -->
<g id="node7" class="node"><title>Node85</title>
<g id="a_node7"><a xlink:href="_loop_closing_8h.html" target="_top" xlink:title="/home/alejandro/Desarrollo\l eclipse/os1/include/LoopClosing.h">
<polygon fill="white" stroke="black" points="359.5,-201.5 359.5,-231.5 527.5,-231.5 527.5,-201.5 359.5,-201.5"/>
<text text-anchor="start" x="367.5" y="-219.5" font-family="Helvetica,sans-Serif" font-size="10.00">/home/alejandro/Desarrollo</text>
<text text-anchor="middle" x="443.5" y="-208.5" font-family="Helvetica,sans-Serif" font-size="10.00"> eclipse/os1/include/LoopClosing.h</text>
</a>
</g>
</g>
<!-- Node81&#45;&gt;Node85 -->
<g id="edge10" class="edge"><title>Node81&#45;&gt;Node85</title>
<path fill="none" stroke="midnightblue" d="M413.859,-259.283C418.475,-250.022 424.487,-239.663 430.029,-231.577"/>
<polygon fill="midnightblue" stroke="midnightblue" points="410.665,-257.852 409.633,-268.396 417.016,-260.797 410.665,-257.852"/>
</g>
<!-- Node86 -->
<g id="node8" class="node"><title>Node86</title>
<g id="a_node8"><a xlink:href="_local_mapping_8h.html" target="_top" xlink:title="/home/alejandro/Desarrollo\l eclipse/os1/include/LocalMapping.h">
<polygon fill="white" stroke="black" points="235.5,-134.5 235.5,-164.5 409.5,-164.5 409.5,-134.5 235.5,-134.5"/>
<text text-anchor="start" x="243.5" y="-152.5" font-family="Helvetica,sans-Serif" font-size="10.00">/home/alejandro/Desarrollo</text>
<text text-anchor="middle" x="322.5" y="-141.5" font-family="Helvetica,sans-Serif" font-size="10.00"> eclipse/os1/include/LocalMapping.h</text>
</a>
</g>
</g>
<!-- Node81&#45;&gt;Node86 -->
<g id="edge26" class="edge"><title>Node81&#45;&gt;Node86</title>
<path fill="none" stroke="midnightblue" d="M370.874,-262.423C360.051,-253.996 349.16,-243.481 341.5,-232 327.384,-210.843 319.669,-181.845 318.713,-164.75"/>
<polygon fill="midnightblue" stroke="midnightblue" points="368.949,-265.352 379.083,-268.442 373.088,-259.707 368.949,-265.352"/>
</g>
<!-- Node81&#45;&gt;Node92 -->
<g id="edge28" class="edge"><title>Node81&#45;&gt;Node92</title>
<path fill="none" stroke="midnightblue" d="M457.962,-264.975C570.031,-226.054 837.806,-133.057 939.958,-97.5799"/>
<polygon fill="midnightblue" stroke="midnightblue" points="456.548,-261.761 448.249,-268.348 458.844,-268.373 456.548,-261.761"/>
</g>
<!-- Node81&#45;&gt;Node93 -->
<g id="edge27" class="edge"><title>Node81&#45;&gt;Node93</title>
<path fill="none" stroke="midnightblue" d="M493.743,-269.394C560.758,-259.207 656.033,-244.718 739.5,-232 744.201,-231.284 749.032,-230.547 753.907,-229.804"/>
<polygon fill="midnightblue" stroke="midnightblue" points="493.012,-265.965 483.652,-270.928 494.064,-272.885 493.012,-265.965"/>
</g>
<!-- Node82&#45;&gt;Node80 -->
<g id="edge6" class="edge"><title>Node82&#45;&gt;Node80</title>
<path fill="none" stroke="midnightblue" d="M144.125,-107.789C142.572,-150.687 137.95,-240.817 179.5,-299 191.73,-316.126 211.437,-327.742 229.636,-335.47"/>
<polygon fill="midnightblue" stroke="midnightblue" points="147.626,-107.814 144.429,-97.7127 140.629,-107.603 147.626,-107.814"/>
</g>
<!-- Node82&#45;&gt;Node81 -->
<g id="edge7" class="edge"><title>Node82&#45;&gt;Node81</title>
<path fill="none" stroke="midnightblue" d="M169.167,-104.507C187.337,-121.697 211.866,-146.159 235.5,-165 287.937,-206.804 355.536,-247.594 388.381,-268.35"/>
<polygon fill="midnightblue" stroke="midnightblue" points="171.489,-101.887 161.79,-97.6229 166.713,-107.005 171.489,-101.887"/>
</g>
<!-- Node83 -->
<g id="node5" class="node"><title>Node83</title>
<g id="a_node5"><a xlink:href="main_8cc.html" target="_top" xlink:title="/home/alejandro/Desarrollo\l eclipse/os1/src/main.cc">
<polygon fill="white" stroke="black" points="0,-0.5 0,-30.5 133,-30.5 133,-0.5 0,-0.5"/>
<text text-anchor="start" x="8" y="-18.5" font-family="Helvetica,sans-Serif" font-size="10.00">/home/alejandro/Desarrollo</text>
<text text-anchor="middle" x="66.5" y="-7.5" font-family="Helvetica,sans-Serif" font-size="10.00"> eclipse/os1/src/main.cc</text>
</a>
</g>
</g>
<!-- Node82&#45;&gt;Node83 -->
<g id="edge8" class="edge"><title>Node82&#45;&gt;Node83</title>
<path fill="none" stroke="midnightblue" d="M118.394,-60.8832C106.845,-51.0054 93.3096,-39.4293 82.9587,-30.5765"/>
<polygon fill="midnightblue" stroke="midnightblue" points="116.135,-63.5561 126.009,-67.396 120.684,-58.2364 116.135,-63.5561"/>
</g>
<!-- Node84 -->
<g id="node6" class="node"><title>Node84</title>
<g id="a_node6"><a xlink:href="_system_8cc.html" target="_top" xlink:title="/home/alejandro/Desarrollo\l eclipse/os1/src/System.cc">
<polygon fill="white" stroke="black" points="151.5,-0.5 151.5,-30.5 287.5,-30.5 287.5,-0.5 151.5,-0.5"/>
<text text-anchor="start" x="159.5" y="-18.5" font-family="Helvetica,sans-Serif" font-size="10.00">/home/alejandro/Desarrollo</text>
<text text-anchor="middle" x="219.5" y="-7.5" font-family="Helvetica,sans-Serif" font-size="10.00"> eclipse/os1/src/System.cc</text>
</a>
</g>
</g>
<!-- Node82&#45;&gt;Node84 -->
<g id="edge9" class="edge"><title>Node82&#45;&gt;Node84</title>
<path fill="none" stroke="midnightblue" d="M166.923,-60.8832C178.624,-51.0054 192.338,-39.4293 202.825,-30.5765"/>
<polygon fill="midnightblue" stroke="midnightblue" points="164.592,-58.2709 159.208,-67.396 169.107,-63.6199 164.592,-58.2709"/>
</g>
<!-- Node85&#45;&gt;Node81 -->
<g id="edge17" class="edge"><title>Node85&#45;&gt;Node81</title>
<path fill="none" stroke="midnightblue" d="M437.156,-240.685C432.544,-249.944 426.533,-260.304 420.99,-268.396"/>
<polygon fill="midnightblue" stroke="midnightblue" points="440.348,-242.121 441.379,-231.577 433.997,-239.177 440.348,-242.121"/>
</g>
<!-- Node85&#45;&gt;Node82 -->
<g id="edge16" class="edge"><title>Node85&#45;&gt;Node82</title>
<path fill="none" stroke="midnightblue" d="M442.574,-191.353C440.528,-172.948 434.676,-148.391 418.5,-134 416.584,-132.295 297.618,-110.956 216.518,-96.5685"/>
<polygon fill="midnightblue" stroke="midnightblue" points="439.088,-191.673 443.387,-201.356 446.065,-191.105 439.088,-191.673"/>
</g>
<!-- Node85&#45;&gt;Node86 -->
<g id="edge11" class="edge"><title>Node85&#45;&gt;Node86</title>
<path fill="none" stroke="midnightblue" d="M402.616,-196.853C382.574,-186.576 359.376,-174.025 343.029,-164.577"/>
<polygon fill="midnightblue" stroke="midnightblue" points="401.065,-199.991 411.566,-201.396 404.233,-193.749 401.065,-199.991"/>
</g>
<!-- Node87 -->
<g id="node9" class="node"><title>Node87</title>
<g id="a_node9"><a xlink:href="_local_mapping_8cc.html" target="_top" xlink:title="/home/alejandro/Desarrollo\l eclipse/os1/src/LocalMapping.cc">
<polygon fill="white" stroke="black" points="234.5,-67.5 234.5,-97.5 396.5,-97.5 396.5,-67.5 234.5,-67.5"/>
<text text-anchor="start" x="242.5" y="-85.5" font-family="Helvetica,sans-Serif" font-size="10.00">/home/alejandro/Desarrollo</text>
<text text-anchor="middle" x="315.5" y="-74.5" font-family="Helvetica,sans-Serif" font-size="10.00"> eclipse/os1/src/LocalMapping.cc</text>
</a>
</g>
</g>
<!-- Node85&#45;&gt;Node87 -->
<g id="edge24" class="edge"><title>Node85&#45;&gt;Node87</title>
<path fill="none" stroke="midnightblue" d="M453.492,-191.923C459.208,-174.422 463.171,-150.783 451.5,-134 438.559,-115.39 417.907,-103.623 396.567,-96.1885"/>
<polygon fill="midnightblue" stroke="midnightblue" points="450.167,-190.825 450.028,-201.419 456.743,-193.224 450.167,-190.825"/>
</g>
<!-- Node88 -->
<g id="node10" class="node"><title>Node88</title>
<g id="a_node10"><a xlink:href="_optimizer_8h.html" target="_top" xlink:title="/home/alejandro/Desarrollo\l eclipse/os1/include/Optimizer.h">
<polygon fill="white" stroke="black" points="503.5,-134.5 503.5,-164.5 659.5,-164.5 659.5,-134.5 503.5,-134.5"/>
<text text-anchor="start" x="511.5" y="-152.5" font-family="Helvetica,sans-Serif" font-size="10.00">/home/alejandro/Desarrollo</text>
<text text-anchor="middle" x="581.5" y="-141.5" font-family="Helvetica,sans-Serif" font-size="10.00"> eclipse/os1/include/Optimizer.h</text>
</a>
</g>
</g>
<!-- Node85&#45;&gt;Node88 -->
<g id="edge18" class="edge"><title>Node85&#45;&gt;Node88</title>
<path fill="none" stroke="midnightblue" d="M482.5,-197.131C504.427,-186.802 531.374,-174.11 551.614,-164.577"/>
<polygon fill="midnightblue" stroke="midnightblue" points="480.999,-193.968 473.444,-201.396 483.982,-200.301 480.999,-193.968"/>
</g>
<!-- Node90 -->
<g id="node12" class="node"><title>Node90</title>
<g id="a_node12"><a xlink:href="_loop_closing_8cc.html" target="_top" xlink:title="/home/alejandro/Desarrollo\l eclipse/os1/src/LoopClosing.cc">
<polygon fill="white" stroke="black" points="736.5,-67.5 736.5,-97.5 892.5,-97.5 892.5,-67.5 736.5,-67.5"/>
<text text-anchor="start" x="744.5" y="-85.5" font-family="Helvetica,sans-Serif" font-size="10.00">/home/alejandro/Desarrollo</text>
<text text-anchor="middle" x="814.5" y="-74.5" font-family="Helvetica,sans-Serif" font-size="10.00"> eclipse/os1/src/LoopClosing.cc</text>
</a>
</g>
</g>
<!-- Node85&#45;&gt;Node90 -->
<g id="edge25" class="edge"><title>Node85&#45;&gt;Node90</title>
<path fill="none" stroke="midnightblue" d="M537.643,-203.098C579.021,-195.461 627.434,-183.472 668.5,-165 689.986,-155.335 691.296,-146.118 711.5,-134 734.386,-120.274 761.534,-107.081 782.212,-97.6237"/>
<polygon fill="midnightblue" stroke="midnightblue" points="536.788,-199.695 527.559,-204.899 538.019,-206.586 536.788,-199.695"/>
</g>
<!-- Node86&#45;&gt;Node81 -->
<g id="edge14" class="edge"><title>Node86&#45;&gt;Node81</title>
<path fill="none" stroke="midnightblue" d="M334.81,-174.519C340.51,-191.582 347.81,-214.479 359.5,-232 369.039,-246.297 383.589,-259.097 394.422,-268.232"/>
<polygon fill="midnightblue" stroke="midnightblue" points="338.01,-173.064 331.442,-164.75 331.392,-175.345 338.01,-173.064"/>
</g>
<!-- Node86&#45;&gt;Node82 -->
<g id="edge12" class="edge"><title>Node86&#45;&gt;Node82</title>
<path fill="none" stroke="midnightblue" d="M273.915,-130.955C244.919,-120.485 208.589,-107.366 181.481,-97.5765"/>
<polygon fill="midnightblue" stroke="midnightblue" points="272.848,-134.291 283.443,-134.396 275.226,-127.708 272.848,-134.291"/>
</g>
<!-- Node86&#45;&gt;Node85 -->
<g id="edge13" class="edge"><title>Node86&#45;&gt;Node85</title>
<path fill="none" stroke="midnightblue" d="M363.326,-169.117C383.361,-179.39 406.563,-191.941 422.923,-201.396"/>
<polygon fill="midnightblue" stroke="midnightblue" points="364.88,-165.981 354.379,-164.577 361.712,-172.223 364.88,-165.981"/>
</g>
<!-- Node86&#45;&gt;Node87 -->
<g id="edge15" class="edge"><title>Node86&#45;&gt;Node87</title>
<path fill="none" stroke="midnightblue" d="M319.905,-124.403C318.932,-115.37 317.859,-105.408 317.016,-97.5765"/>
<polygon fill="midnightblue" stroke="midnightblue" points="316.43,-124.828 320.981,-134.396 323.39,-124.079 316.43,-124.828"/>
</g>
<!-- Node88&#45;&gt;Node87 -->
<g id="edge20" class="edge"><title>Node88&#45;&gt;Node87</title>
<path fill="none" stroke="midnightblue" d="M514.188,-132.052C470.701,-121.425 414.703,-107.741 373.246,-97.6109"/>
<polygon fill="midnightblue" stroke="midnightblue" points="513.564,-135.502 524.109,-134.476 515.226,-128.702 513.564,-135.502"/>
</g>
<!-- Node89 -->
<g id="node11" class="node"><title>Node89</title>
<g id="a_node11"><a xlink:href="_initializer_8cc.html" target="_top" xlink:title="/home/alejandro/Desarrollo\l eclipse/os1/src/Initializer.cc">
<polygon fill="white" stroke="black" points="577,-67.5 577,-97.5 718,-97.5 718,-67.5 577,-67.5"/>
<text text-anchor="start" x="585" y="-85.5" font-family="Helvetica,sans-Serif" font-size="10.00">/home/alejandro/Desarrollo</text>
<text text-anchor="middle" x="647.5" y="-74.5" font-family="Helvetica,sans-Serif" font-size="10.00"> eclipse/os1/src/Initializer.cc</text>
</a>
</g>
</g>
<!-- Node88&#45;&gt;Node89 -->
<g id="edge19" class="edge"><title>Node88&#45;&gt;Node89</title>
<path fill="none" stroke="midnightblue" d="M603.015,-127.311C612.915,-117.561 624.391,-106.259 633.207,-97.5765"/>
<polygon fill="midnightblue" stroke="midnightblue" points="600.49,-124.885 595.821,-134.396 605.402,-129.873 600.49,-124.885"/>
</g>
<!-- Node88&#45;&gt;Node90 -->
<g id="edge21" class="edge"><title>Node88&#45;&gt;Node90</title>
<path fill="none" stroke="midnightblue" d="M641.668,-131.715C679.585,-121.137 727.986,-107.635 763.918,-97.6109"/>
<polygon fill="midnightblue" stroke="midnightblue" points="640.462,-128.418 631.771,-134.476 642.343,-135.16 640.462,-128.418"/>
</g>
<!-- Node91 -->
<g id="node13" class="node"><title>Node91</title>
<g id="a_node13"><a xlink:href="_optimizer_8cc.html" target="_top" xlink:title="/home/alejandro/Desarrollo\l eclipse/os1/src/Optimizer.cc">
<polygon fill="white" stroke="black" points="414.5,-67.5 414.5,-97.5 558.5,-97.5 558.5,-67.5 414.5,-67.5"/>
<text text-anchor="start" x="422.5" y="-85.5" font-family="Helvetica,sans-Serif" font-size="10.00">/home/alejandro/Desarrollo</text>
<text text-anchor="middle" x="486.5" y="-74.5" font-family="Helvetica,sans-Serif" font-size="10.00"> eclipse/os1/src/Optimizer.cc</text>
</a>
</g>
</g>
<!-- Node88&#45;&gt;Node91 -->
<g id="edge22" class="edge"><title>Node88&#45;&gt;Node91</title>
<path fill="none" stroke="midnightblue" d="M552.611,-128.734C537.91,-118.676 520.385,-106.685 507.073,-97.5765"/>
<polygon fill="midnightblue" stroke="midnightblue" points="550.657,-131.638 560.886,-134.396 554.61,-125.861 550.657,-131.638"/>
</g>
<!-- Node88&#45;&gt;Node92 -->
<g id="edge23" class="edge"><title>Node88&#45;&gt;Node92</title>
<path fill="none" stroke="midnightblue" d="M669.615,-135.201C733.943,-125.344 823.218,-111.359 901.5,-98 904.387,-97.5074 907.331,-96.998 910.305,-96.478"/>
<polygon fill="midnightblue" stroke="midnightblue" points="668.866,-131.774 659.511,-136.746 669.925,-138.694 668.866,-131.774"/>
</g>
</g>
</svg>
