<?xml version="1.0" encoding="UTF-8" standalone="no"?>
<!DOCTYPE svg PUBLIC "-//W3C//DTD SVG 1.1//EN"
 "http://www.w3.org/Graphics/SVG/1.1/DTD/svg11.dtd">
<!-- Generated by graphviz version 2.38.0 (20140413.2041)
 -->
<!-- Title: /home/alejandro/Desarrollo eclipse/os1/include/Frame.h Pages: 1 -->
<svg width="2077pt" height="441pt"
 viewBox="0.00 0.00 2076.50 441.00" xmlns="http://www.w3.org/2000/svg" xmlns:xlink="http://www.w3.org/1999/xlink">
<g id="graph0" class="graph" transform="scale(1 1) rotate(0) translate(4 437)">
<title>/home/alejandro/Desarrollo eclipse/os1/include/Frame.h</title>
<polygon fill="white" stroke="none" points="-4,4 -4,-437 2072.5,-437 2072.5,4 -4,4"/>
<!-- Node31 -->
<g id="node1" class="node"><title>Node31</title>
<polygon fill="#bfbfbf" stroke="black" points="1073,-402.5 1073,-432.5 1215,-432.5 1215,-402.5 1073,-402.5"/>
<text text-anchor="start" x="1081" y="-420.5" font-family="Helvetica,sans-Serif" font-size="10.00">/home/alejandro/Desarrollo</text>
<text text-anchor="middle" x="1144" y="-409.5" font-family="Helvetica,sans-Serif" font-size="10.00"> eclipse/os1/include/Frame.h</text>
</g>
<!-- Node32 -->
<g id="node2" class="node"><title>Node32</title>
<g id="a_node2"><a xlink:href="_map_point_8h.html" target="_top" xlink:title="/home/alejandro/Desarrollo\l eclipse/os1/include/MapPoint.h">
<polygon fill="white" stroke="black" points="745.5,-335.5 745.5,-365.5 900.5,-365.5 900.5,-335.5 745.5,-335.5"/>
<text text-anchor="start" x="753.5" y="-353.5" font-family="Helvetica,sans-Serif" font-size="10.00">/home/alejandro/Desarrollo</text>
<text text-anchor="middle" x="823" y="-342.5" font-family="Helvetica,sans-Serif" font-size="10.00"> eclipse/os1/include/MapPoint.h</text>
</a>
</g>
</g>
<!-- Node31&#45;&gt;Node32 -->
<g id="edge1" class="edge"><title>Node31&#45;&gt;Node32</title>
<path fill="none" stroke="midnightblue" d="M1062.69,-401.215C1008.05,-390.41 937.111,-376.035 886.585,-365.523"/>
<polygon fill="midnightblue" stroke="midnightblue" points="1062.21,-404.687 1072.7,-403.189 1063.56,-397.82 1062.21,-404.687"/>
</g>
<!-- Node34 -->
<g id="node4" class="node"><title>Node34</title>
<g id="a_node4"><a xlink:href="_tracking_8h.html" target="_top" xlink:title="/home/alejandro/Desarrollo\l eclipse/os1/include/Tracking.h">
<polygon fill="white" stroke="black" points="400,-201.5 400,-231.5 552,-231.5 552,-201.5 400,-201.5"/>
<text text-anchor="start" x="408" y="-219.5" font-family="Helvetica,sans-Serif" font-size="10.00">/home/alejandro/Desarrollo</text>
<text text-anchor="middle" x="476" y="-208.5" font-family="Helvetica,sans-Serif" font-size="10.00"> eclipse/os1/include/Tracking.h</text>
</a>
</g>
</g>
<!-- Node31&#45;&gt;Node34 -->
<g id="edge55" class="edge"><title>Node31&#45;&gt;Node34</title>
<path fill="none" stroke="midnightblue" d="M1062.6,-413.349C979.275,-408.523 846.669,-396.385 736,-366 664.415,-346.346 646.98,-336.646 583,-299 548.585,-278.75 512.405,-249.189 492.173,-231.791"/>
<polygon fill="midnightblue" stroke="midnightblue" points="1062.59,-416.853 1072.77,-413.915 1062.98,-409.864 1062.59,-416.853"/>
</g>
<!-- Node39 -->
<g id="node9" class="node"><title>Node39</title>
<g id="a_node9"><a xlink:href="_optimizer_8h.html" target="_top" xlink:title="/home/alejandro/Desarrollo\l eclipse/os1/include/Optimizer.h">
<polygon fill="white" stroke="black" points="1184,-67.5 1184,-97.5 1340,-97.5 1340,-67.5 1184,-67.5"/>
<text text-anchor="start" x="1192" y="-85.5" font-family="Helvetica,sans-Serif" font-size="10.00">/home/alejandro/Desarrollo</text>
<text text-anchor="middle" x="1262" y="-74.5" font-family="Helvetica,sans-Serif" font-size="10.00"> eclipse/os1/include/Optimizer.h</text>
</a>
</g>
</g>
<!-- Node31&#45;&gt;Node39 -->
<g id="edge56" class="edge"><title>Node31&#45;&gt;Node39</title>
<path fill="none" stroke="midnightblue" d="M1225.4,-407.854C1395.54,-387.916 1779.42,-332.549 1856,-232 1920.89,-146.8 1515.62,-103.721 1340.12,-89.241"/>
<polygon fill="midnightblue" stroke="midnightblue" points="1224.78,-404.403 1215.24,-409.031 1225.58,-411.356 1224.78,-404.403"/>
</g>
<!-- Node49 -->
<g id="node19" class="node"><title>Node49</title>
<g id="a_node19"><a xlink:href="_o_r_bmatcher_8h.html" target="_top" xlink:title="/home/alejandro/Desarrollo\l eclipse/os1/include/ORBmatcher.h">
<polygon fill="white" stroke="black" points="1176.5,-268.5 1176.5,-298.5 1347.5,-298.5 1347.5,-268.5 1176.5,-268.5"/>
<text text-anchor="start" x="1184.5" y="-286.5" font-family="Helvetica,sans-Serif" font-size="10.00">/home/alejandro/Desarrollo</text>
<text text-anchor="middle" x="1262" y="-275.5" font-family="Helvetica,sans-Serif" font-size="10.00"> eclipse/os1/include/ORBmatcher.h</text>
</a>
</g>
</g>
<!-- Node31&#45;&gt;Node49 -->
<g id="edge57" class="edge"><title>Node31&#45;&gt;Node49</title>
<path fill="none" stroke="midnightblue" d="M1163.31,-394.895C1187.67,-367.648 1228.85,-321.581 1249.46,-298.525"/>
<polygon fill="midnightblue" stroke="midnightblue" points="1160.68,-392.586 1156.63,-402.374 1165.9,-397.251 1160.68,-392.586"/>
</g>
<!-- Node50 -->
<g id="node20" class="node"><title>Node50</title>
<g id="a_node20"><a xlink:href="_frame_8cc.html" target="_top" xlink:title="/home/alejandro/Desarrollo\l eclipse/os1/src/Frame.cc">
<polygon fill="white" stroke="black" points="1713.5,-201.5 1713.5,-231.5 1846.5,-231.5 1846.5,-201.5 1713.5,-201.5"/>
<text text-anchor="start" x="1721.5" y="-219.5" font-family="Helvetica,sans-Serif" font-size="10.00">/home/alejandro/Desarrollo</text>
<text text-anchor="middle" x="1780" y="-208.5" font-family="Helvetica,sans-Serif" font-size="10.00"> eclipse/os1/src/Frame.cc</text>
</a>
</g>
</g>
<!-- Node31&#45;&gt;Node50 -->
<g id="edge59" class="edge"><title>Node31&#45;&gt;Node50</title>
<path fill="none" stroke="midnightblue" d="M1198.62,-399.41C1322.15,-360.757 1621.11,-267.217 1734.95,-231.595"/>
<polygon fill="midnightblue" stroke="midnightblue" points="1197.47,-396.101 1188.98,-402.427 1199.56,-402.781 1197.47,-396.101"/>
</g>
<!-- Node51 -->
<g id="node21" class="node"><title>Node51</title>
<g id="a_node21"><a xlink:href="_key_frame_8cc.html" target="_top" xlink:title="/home/alejandro/Desarrollo\l eclipse/os1/src/KeyFrame.cc">
<polygon fill="white" stroke="black" points="684.5,-201.5 684.5,-231.5 831.5,-231.5 831.5,-201.5 684.5,-201.5"/>
<text text-anchor="start" x="692.5" y="-219.5" font-family="Helvetica,sans-Serif" font-size="10.00">/home/alejandro/Desarrollo</text>
<text text-anchor="middle" x="758" y="-208.5" font-family="Helvetica,sans-Serif" font-size="10.00"> eclipse/os1/src/KeyFrame.cc</text>
</a>
</g>
</g>
<!-- Node31&#45;&gt;Node51 -->
<g id="edge60" class="edge"><title>Node31&#45;&gt;Node51</title>
<path fill="none" stroke="midnightblue" d="M1107.23,-397.542C1030.17,-357.817 853.295,-266.629 785.311,-231.58"/>
<polygon fill="midnightblue" stroke="midnightblue" points="1106.06,-400.876 1116.55,-402.348 1109.26,-394.655 1106.06,-400.876"/>
</g>
<!-- Node55 -->
<g id="node25" class="node"><title>Node55</title>
<g id="a_node25"><a xlink:href="_pn_psolver_8h.html" target="_top" xlink:title="/home/alejandro/Desarrollo\l eclipse/os1/include/PnPsolver.h">
<polygon fill="white" stroke="black" points="985.5,-268.5 985.5,-298.5 1144.5,-298.5 1144.5,-268.5 985.5,-268.5"/>
<text text-anchor="start" x="993.5" y="-286.5" font-family="Helvetica,sans-Serif" font-size="10.00">/home/alejandro/Desarrollo</text>
<text text-anchor="middle" x="1065" y="-275.5" font-family="Helvetica,sans-Serif" font-size="10.00"> eclipse/os1/include/PnPsolver.h</text>
</a>
</g>
</g>
<!-- Node31&#45;&gt;Node55 -->
<g id="edge58" class="edge"><title>Node31&#45;&gt;Node55</title>
<path fill="none" stroke="midnightblue" d="M1130.22,-393.476C1113.82,-366.073 1086.96,-321.185 1073.39,-298.525"/>
<polygon fill="midnightblue" stroke="midnightblue" points="1127.41,-395.59 1135.55,-402.374 1133.41,-391.996 1127.41,-395.59"/>
</g>
<!-- Node58 -->
<g id="node28" class="node"><title>Node58</title>
<g id="a_node28"><a xlink:href="_initializer_8h.html" target="_top" xlink:title="/home/alejandro/Desarrollo\l eclipse/os1/include/Initializer.h">
<polygon fill="white" stroke="black" points="1841.5,-268.5 1841.5,-298.5 1994.5,-298.5 1994.5,-268.5 1841.5,-268.5"/>
<text text-anchor="start" x="1849.5" y="-286.5" font-family="Helvetica,sans-Serif" font-size="10.00">/home/alejandro/Desarrollo</text>
<text text-anchor="middle" x="1918" y="-275.5" font-family="Helvetica,sans-Serif" font-size="10.00"> eclipse/os1/include/Initializer.h</text>
</a>
</g>
</g>
<!-- Node31&#45;&gt;Node58 -->
<g id="edge51" class="edge"><title>Node31&#45;&gt;Node58</title>
<path fill="none" stroke="midnightblue" d="M1225.24,-416.991C1382.11,-416.884 1720.67,-411.218 1827,-366 1844.86,-358.406 1883.69,-320.022 1904.38,-298.749"/>
<polygon fill="midnightblue" stroke="midnightblue" points="1225.17,-413.491 1215.17,-416.991 1225.17,-420.491 1225.17,-413.491"/>
</g>
<!-- Node59 -->
<g id="node29" class="node"><title>Node59</title>
<g id="a_node29"><a xlink:href="_key_frame_database_8cc.html" target="_top" xlink:title="/home/alejandro/Desarrollo\l eclipse/os1/src/KeyFrameDatabase.cc">
<polygon fill="white" stroke="black" points="1879.5,-335.5 1879.5,-365.5 2068.5,-365.5 2068.5,-335.5 1879.5,-335.5"/>
<text text-anchor="start" x="1887.5" y="-353.5" font-family="Helvetica,sans-Serif" font-size="10.00">/home/alejandro/Desarrollo</text>
<text text-anchor="middle" x="1974" y="-342.5" font-family="Helvetica,sans-Serif" font-size="10.00"> eclipse/os1/src/KeyFrameDatabase.cc</text>
</a>
</g>
</g>
<!-- Node31&#45;&gt;Node59 -->
<g id="edge61" class="edge"><title>Node31&#45;&gt;Node59</title>
<path fill="none" stroke="midnightblue" d="M1225.41,-412.455C1359.12,-405.439 1633.52,-389.48 1865,-366 1869.65,-365.528 1874.41,-365.014 1879.22,-364.469"/>
<polygon fill="midnightblue" stroke="midnightblue" points="1225.05,-408.969 1215.25,-412.985 1225.42,-415.959 1225.05,-408.969"/>
</g>
<!-- Node32&#45;&gt;Node31 -->
<g id="edge2" class="edge"><title>Node32&#45;&gt;Node31</title>
<path fill="none" stroke="midnightblue" d="M908.006,-367.516C962.12,-378.232 1031.02,-392.199 1080.41,-402.476"/>
<polygon fill="midnightblue" stroke="midnightblue" points="908.57,-364.06 898.081,-365.555 907.213,-370.927 908.57,-364.06"/>
</g>
<!-- Node33 -->
<g id="node3" class="node"><title>Node33</title>
<g id="a_node3"><a xlink:href="_map_drawer_8h.html" target="_top" xlink:title="/home/alejandro/Desarrollo\l eclipse/os1/include/MapDrawer.h">
<polygon fill="white" stroke="black" points="193,-268.5 193,-298.5 357,-298.5 357,-268.5 193,-268.5"/>
<text text-anchor="start" x="201" y="-286.5" font-family="Helvetica,sans-Serif" font-size="10.00">/home/alejandro/Desarrollo</text>
<text text-anchor="middle" x="275" y="-275.5" font-family="Helvetica,sans-Serif" font-size="10.00"> eclipse/os1/include/MapDrawer.h</text>
</a>
</g>
</g>
<!-- Node32&#45;&gt;Node33 -->
<g id="edge3" class="edge"><title>Node32&#45;&gt;Node33</title>
<path fill="none" stroke="midnightblue" d="M735.187,-339.084C631.059,-326.733 458.855,-306.308 357.233,-294.254"/>
<polygon fill="midnightblue" stroke="midnightblue" points="735.015,-342.588 745.357,-340.291 735.839,-335.637 735.015,-342.588"/>
</g>
<!-- Node32&#45;&gt;Node39 -->
<g id="edge31" class="edge"><title>Node32&#45;&gt;Node39</title>
<path fill="none" stroke="midnightblue" d="M818.337,-325.452C813.626,-307.308 804.589,-283.05 788,-268 748.962,-232.584 706.104,-274.554 675,-232 666.87,-220.877 665.62,-211.092 675,-201 749.635,-120.704 1065.65,-206.785 1167,-165 1202.56,-150.339 1234.36,-116.991 1250.6,-97.8052"/>
<polygon fill="midnightblue" stroke="midnightblue" points="814.957,-326.368 820.636,-335.313 821.774,-324.779 814.957,-326.368"/>
</g>
<!-- Node44 -->
<g id="node14" class="node"><title>Node44</title>
<g id="a_node14"><a xlink:href="_frame_drawer_8cc.html" target="_top" xlink:title="/home/alejandro/Desarrollo\l eclipse/os1/src/FrameDrawer.cc">
<polygon fill="white" stroke="black" points="830.5,-134.5 830.5,-164.5 991.5,-164.5 991.5,-134.5 830.5,-134.5"/>
<text text-anchor="start" x="838.5" y="-152.5" font-family="Helvetica,sans-Serif" font-size="10.00">/home/alejandro/Desarrollo</text>
<text text-anchor="middle" x="911" y="-141.5" font-family="Helvetica,sans-Serif" font-size="10.00"> eclipse/os1/src/FrameDrawer.cc</text>
</a>
</g>
</g>
<!-- Node32&#45;&gt;Node44 -->
<g id="edge45" class="edge"><title>Node32&#45;&gt;Node44</title>
<path fill="none" stroke="midnightblue" d="M735.178,-340.376C681.702,-332.804 620.575,-319.832 604,-299 576.882,-264.917 575.812,-234.204 604,-201 605.852,-198.819 739.837,-177.387 830.17,-163.153"/>
<polygon fill="midnightblue" stroke="midnightblue" points="735.026,-343.888 745.407,-341.774 735.973,-336.952 735.026,-343.888"/>
</g>
<!-- Node46 -->
<g id="node16" class="node"><title>Node46</title>
<g id="a_node16"><a xlink:href="_serializer_8cpp.html" target="_top" xlink:title="/home/alejandro/Desarrollo\l eclipse/os1/src/Serializer.cpp">
<polygon fill="white" stroke="black" points="1010,-134.5 1010,-164.5 1158,-164.5 1158,-134.5 1010,-134.5"/>
<text text-anchor="start" x="1018" y="-152.5" font-family="Helvetica,sans-Serif" font-size="10.00">/home/alejandro/Desarrollo</text>
<text text-anchor="middle" x="1084" y="-141.5" font-family="Helvetica,sans-Serif" font-size="10.00"> eclipse/os1/src/Serializer.cpp</text>
</a>
</g>
</g>
<!-- Node32&#45;&gt;Node46 -->
<g id="edge50" class="edge"><title>Node32&#45;&gt;Node46</title>
<path fill="none" stroke="midnightblue" d="M735.278,-336.128C693.345,-327.761 649.56,-315.425 637,-299 625.312,-283.715 624.36,-219.099 642,-201 697.806,-143.739 920.777,-175.807 1000,-165 1003.23,-164.56 1006.52,-164.088 1009.84,-163.594"/>
<polygon fill="midnightblue" stroke="midnightblue" points="734.828,-339.606 745.31,-338.064 736.155,-332.733 734.828,-339.606"/>
</g>
<!-- Node48 -->
<g id="node18" class="node"><title>Node48</title>
<g id="a_node18"><a xlink:href="_map_drawer_8cc.html" target="_top" xlink:title="/home/alejandro/Desarrollo\l eclipse/os1/src/MapDrawer.cc">
<polygon fill="white" stroke="black" points="0,-201.5 0,-231.5 152,-231.5 152,-201.5 0,-201.5"/>
<text text-anchor="start" x="8" y="-219.5" font-family="Helvetica,sans-Serif" font-size="10.00">/home/alejandro/Desarrollo</text>
<text text-anchor="middle" x="76" y="-208.5" font-family="Helvetica,sans-Serif" font-size="10.00"> eclipse/os1/src/MapDrawer.cc</text>
</a>
</g>
</g>
<!-- Node32&#45;&gt;Node48 -->
<g id="edge48" class="edge"><title>Node32&#45;&gt;Node48</title>
<path fill="none" stroke="midnightblue" d="M735.175,-348.606C584.249,-346.07 282.403,-336.338 184,-299 145.128,-284.25 108.38,-250.936 89.4014,-231.78"/>
<polygon fill="midnightblue" stroke="midnightblue" points="735.28,-352.108 745.335,-348.77 735.393,-345.109 735.28,-352.108"/>
</g>
<!-- Node32&#45;&gt;Node49 -->
<g id="edge32" class="edge"><title>Node32&#45;&gt;Node49</title>
<path fill="none" stroke="midnightblue" d="M910.915,-336.483C988.155,-325.046 1099.85,-308.508 1176.39,-297.175"/>
<polygon fill="midnightblue" stroke="midnightblue" points="910.106,-333.065 900.726,-337.992 911.131,-339.989 910.106,-333.065"/>
</g>
<!-- Node32&#45;&gt;Node51 -->
<g id="edge46" class="edge"><title>Node32&#45;&gt;Node51</title>
<path fill="none" stroke="midnightblue" d="M827.987,-325.213C830.233,-308.304 830.717,-285.704 822,-268 814.31,-252.382 799.235,-240.114 785.647,-231.582"/>
<polygon fill="midnightblue" stroke="midnightblue" points="824.482,-324.962 826.335,-335.394 831.391,-326.083 824.482,-324.962"/>
</g>
<!-- Node52 -->
<g id="node22" class="node"><title>Node52</title>
<g id="a_node22"><a xlink:href="_map_point_8cc.html" target="_top" xlink:title="/home/alejandro/Desarrollo\l eclipse/os1/src/MapPoint.cc">
<polygon fill="white" stroke="black" points="1014.5,-201.5 1014.5,-231.5 1157.5,-231.5 1157.5,-201.5 1014.5,-201.5"/>
<text text-anchor="start" x="1022.5" y="-219.5" font-family="Helvetica,sans-Serif" font-size="10.00">/home/alejandro/Desarrollo</text>
<text text-anchor="middle" x="1086" y="-208.5" font-family="Helvetica,sans-Serif" font-size="10.00"> eclipse/os1/src/MapPoint.cc</text>
</a>
</g>
</g>
<!-- Node32&#45;&gt;Node52 -->
<g id="edge49" class="edge"><title>Node32&#45;&gt;Node52</title>
<path fill="none" stroke="midnightblue" d="M857.24,-330.514C888.051,-313.61 934.696,-288.46 976,-268 1001.99,-255.128 1031.92,-241.459 1054,-231.593"/>
<polygon fill="midnightblue" stroke="midnightblue" points="855.285,-327.595 848.21,-335.482 858.658,-333.729 855.285,-327.595"/>
</g>
<!-- Node32&#45;&gt;Node55 -->
<g id="edge42" class="edge"><title>Node32&#45;&gt;Node55</title>
<path fill="none" stroke="midnightblue" d="M884.99,-332.85C924.445,-322.252 974.985,-308.677 1012.46,-298.611"/>
<polygon fill="midnightblue" stroke="midnightblue" points="883.962,-329.502 875.212,-335.476 885.778,-336.262 883.962,-329.502"/>
</g>
<!-- Node57 -->
<g id="node27" class="node"><title>Node57</title>
<g id="a_node27"><a xlink:href="_map_8cc.html" target="_top" xlink:title="/home/alejandro/Desarrollo\l eclipse/os1/src/Map.cc">
<polygon fill="white" stroke="black" points="646.5,-268.5 646.5,-298.5 779.5,-298.5 779.5,-268.5 646.5,-268.5"/>
<text text-anchor="start" x="654.5" y="-286.5" font-family="Helvetica,sans-Serif" font-size="10.00">/home/alejandro/Desarrollo</text>
<text text-anchor="middle" x="713" y="-275.5" font-family="Helvetica,sans-Serif" font-size="10.00"> eclipse/os1/src/Map.cc</text>
</a>
</g>
</g>
<!-- Node32&#45;&gt;Node57 -->
<g id="edge47" class="edge"><title>Node32&#45;&gt;Node57</title>
<path fill="none" stroke="midnightblue" d="M790.5,-330.296C773.288,-320.125 752.524,-307.855 736.822,-298.577"/>
<polygon fill="midnightblue" stroke="midnightblue" points="788.742,-333.322 799.132,-335.396 792.303,-327.295 788.742,-333.322"/>
</g>
<!-- Node33&#45;&gt;Node34 -->
<g id="edge4" class="edge"><title>Node33&#45;&gt;Node34</title>
<path fill="none" stroke="midnightblue" d="M328.411,-265.228C360.926,-254.713 401.937,-241.451 432.471,-231.577"/>
<polygon fill="midnightblue" stroke="midnightblue" points="327.052,-261.989 318.614,-268.396 329.206,-268.649 327.052,-261.989"/>
</g>
<!-- Node38 -->
<g id="node8" class="node"><title>Node38</title>
<g id="a_node8"><a xlink:href="_system_8cc.html" target="_top" xlink:title="/home/alejandro/Desarrollo\l eclipse/os1/src/System.cc">
<polygon fill="white" stroke="black" points="371,-0.5 371,-30.5 507,-30.5 507,-0.5 371,-0.5"/>
<text text-anchor="start" x="379" y="-18.5" font-family="Helvetica,sans-Serif" font-size="10.00">/home/alejandro/Desarrollo</text>
<text text-anchor="middle" x="439" y="-7.5" font-family="Helvetica,sans-Serif" font-size="10.00"> eclipse/os1/src/System.cc</text>
</a>
</g>
</g>
<!-- Node33&#45;&gt;Node38 -->
<g id="edge29" class="edge"><title>Node33&#45;&gt;Node38</title>
<path fill="none" stroke="midnightblue" d="M250.003,-261.229C218.586,-231.833 171.868,-177.493 199,-134 236.323,-74.1709 313.935,-43.9655 370.834,-29.2978"/>
<polygon fill="midnightblue" stroke="midnightblue" points="247.853,-264.004 257.607,-268.143 252.563,-258.826 247.853,-264.004"/>
</g>
<!-- Node47 -->
<g id="node17" class="node"><title>Node47</title>
<g id="a_node17"><a xlink:href="_viewer_8cc.html" target="_top" xlink:title="/home/alejandro/Desarrollo\l eclipse/os1/src/Viewer.cc">
<polygon fill="white" stroke="black" points="208.5,-134.5 208.5,-164.5 341.5,-164.5 341.5,-134.5 208.5,-134.5"/>
<text text-anchor="start" x="216.5" y="-152.5" font-family="Helvetica,sans-Serif" font-size="10.00">/home/alejandro/Desarrollo</text>
<text text-anchor="middle" x="275" y="-141.5" font-family="Helvetica,sans-Serif" font-size="10.00"> eclipse/os1/src/Viewer.cc</text>
</a>
</g>
</g>
<!-- Node33&#45;&gt;Node47 -->
<g id="edge30" class="edge"><title>Node33&#45;&gt;Node47</title>
<path fill="none" stroke="midnightblue" d="M275,-258.024C275,-230.512 275,-186.789 275,-164.525"/>
<polygon fill="midnightblue" stroke="midnightblue" points="271.5,-258.374 275,-268.374 278.5,-258.374 271.5,-258.374"/>
</g>
<!-- Node33&#45;&gt;Node48 -->
<g id="edge28" class="edge"><title>Node33&#45;&gt;Node48</title>
<path fill="none" stroke="midnightblue" d="M222.12,-265.228C189.929,-254.713 149.326,-241.451 119.096,-231.577"/>
<polygon fill="midnightblue" stroke="midnightblue" points="221.227,-268.618 231.82,-268.396 223.401,-261.964 221.227,-268.618"/>
</g>
<!-- Node35 -->
<g id="node5" class="node"><title>Node35</title>
<g id="a_node5"><a xlink:href="_loop_closing_8h.html" target="_top" xlink:title="/home/alejandro/Desarrollo\l eclipse/os1/include/LoopClosing.h">
<polygon fill="white" stroke="black" points="606,-134.5 606,-164.5 774,-164.5 774,-134.5 606,-134.5"/>
<text text-anchor="start" x="614" y="-152.5" font-family="Helvetica,sans-Serif" font-size="10.00">/home/alejandro/Desarrollo</text>
<text text-anchor="middle" x="690" y="-141.5" font-family="Helvetica,sans-Serif" font-size="10.00"> eclipse/os1/include/LoopClosing.h</text>
</a>
</g>
</g>
<!-- Node34&#45;&gt;Node35 -->
<g id="edge5" class="edge"><title>Node34&#45;&gt;Node35</title>
<path fill="none" stroke="midnightblue" d="M526.132,-198.444C559.746,-187.908 603.84,-174.549 637.863,-164.611"/>
<polygon fill="midnightblue" stroke="midnightblue" points="524.991,-195.134 516.503,-201.476 527.093,-201.811 524.991,-195.134"/>
</g>
<!-- Node36 -->
<g id="node6" class="node"><title>Node36</title>
<g id="a_node6"><a xlink:href="_local_mapping_8h.html" target="_top" xlink:title="/home/alejandro/Desarrollo\l eclipse/os1/include/LocalMapping.h">
<polygon fill="white" stroke="black" points="421,-67.5 421,-97.5 595,-97.5 595,-67.5 421,-67.5"/>
<text text-anchor="start" x="429" y="-85.5" font-family="Helvetica,sans-Serif" font-size="10.00">/home/alejandro/Desarrollo</text>
<text text-anchor="middle" x="508" y="-74.5" font-family="Helvetica,sans-Serif" font-size="10.00"> eclipse/os1/include/LocalMapping.h</text>
</a>
</g>
</g>
<!-- Node34&#45;&gt;Node36 -->
<g id="edge21" class="edge"><title>Node34&#45;&gt;Node36</title>
<path fill="none" stroke="midnightblue" d="M450.322,-193.309C437.412,-176.679 426.628,-153.524 436,-134 443.461,-118.456 458.296,-106.191 472.695,-97.6424"/>
<polygon fill="midnightblue" stroke="midnightblue" points="448.025,-196.01 457.171,-201.357 453.355,-191.474 448.025,-196.01"/>
</g>
<!-- Node34&#45;&gt;Node38 -->
<g id="edge25" class="edge"><title>Node34&#45;&gt;Node38</title>
<path fill="none" stroke="midnightblue" d="M457.197,-193.28C450.578,-184.784 443.44,-174.78 438,-165 422.473,-137.086 417.878,-129.396 412,-98 409.464,-84.4575 408.652,-80.3647 412,-67 415.286,-53.8845 422.701,-40.4518 428.93,-30.7405"/>
<polygon fill="midnightblue" stroke="midnightblue" points="454.572,-195.602 463.56,-201.21 460.031,-191.22 454.572,-195.602"/>
</g>
<!-- Node43 -->
<g id="node13" class="node"><title>Node43</title>
<g id="a_node13"><a xlink:href="_tracking_8cc.html" target="_top" xlink:title="/home/alejandro/Desarrollo\l eclipse/os1/src/Tracking.cc">
<polygon fill="white" stroke="black" points="1376,-0.5 1376,-30.5 1516,-30.5 1516,-0.5 1376,-0.5"/>
<text text-anchor="start" x="1384" y="-18.5" font-family="Helvetica,sans-Serif" font-size="10.00">/home/alejandro/Desarrollo</text>
<text text-anchor="middle" x="1446" y="-7.5" font-family="Helvetica,sans-Serif" font-size="10.00"> eclipse/os1/src/Tracking.cc</text>
</a>
</g>
</g>
<!-- Node34&#45;&gt;Node43 -->
<g id="edge26" class="edge"><title>Node34&#45;&gt;Node43</title>
<path fill="none" stroke="midnightblue" d="M562.212,-203.641C645.884,-191.756 763.098,-173.975 783,-165 802.869,-156.04 800.728,-142.007 821,-134 1039.76,-47.5891 1130.87,-185.993 1349,-98 1367.66,-90.4709 1409.21,-52.0594 1431.39,-30.7651"/>
<polygon fill="midnightblue" stroke="midnightblue" points="561.594,-200.193 552.183,-205.06 562.575,-207.124 561.594,-200.193"/>
</g>
<!-- Node34&#45;&gt;Node44 -->
<g id="edge22" class="edge"><title>Node34&#45;&gt;Node44</title>
<path fill="none" stroke="midnightblue" d="M562.144,-201.591C563.438,-201.392 564.724,-201.195 566,-201 676.973,-184.072 704.957,-181.469 816,-165 820.704,-164.302 825.537,-163.58 830.414,-162.848"/>
<polygon fill="midnightblue" stroke="midnightblue" points="561.44,-198.158 552.094,-203.149 562.513,-205.075 561.44,-198.158"/>
</g>
<!-- Node45 -->
<g id="node15" class="node"><title>Node45</title>
<g id="a_node15"><a xlink:href="main_8cc.html" target="_top" xlink:title="/home/alejandro/Desarrollo\l eclipse/os1/src/main.cc">
<polygon fill="white" stroke="black" points="454.5,-134.5 454.5,-164.5 587.5,-164.5 587.5,-134.5 454.5,-134.5"/>
<text text-anchor="start" x="462.5" y="-152.5" font-family="Helvetica,sans-Serif" font-size="10.00">/home/alejandro/Desarrollo</text>
<text text-anchor="middle" x="521" y="-141.5" font-family="Helvetica,sans-Serif" font-size="10.00"> eclipse/os1/src/main.cc</text>
</a>
</g>
</g>
<!-- Node34&#45;&gt;Node45 -->
<g id="edge23" class="edge"><title>Node34&#45;&gt;Node45</title>
<path fill="none" stroke="midnightblue" d="M491.468,-193.157C498.03,-183.679 505.479,-172.919 511.255,-164.577"/>
<polygon fill="midnightblue" stroke="midnightblue" points="488.579,-191.182 485.764,-201.396 494.334,-195.166 488.579,-191.182"/>
</g>
<!-- Node34&#45;&gt;Node46 -->
<g id="edge24" class="edge"><title>Node34&#45;&gt;Node46</title>
<path fill="none" stroke="midnightblue" d="M562.207,-205.47C576.173,-203.921 590.483,-202.38 604,-201 779.812,-183.053 824.784,-188.049 1000,-165 1003.23,-164.575 1006.52,-164.117 1009.85,-163.633"/>
<polygon fill="midnightblue" stroke="midnightblue" points="561.665,-202.009 552.115,-206.597 562.441,-208.966 561.665,-202.009"/>
</g>
<!-- Node34&#45;&gt;Node47 -->
<g id="edge27" class="edge"><title>Node34&#45;&gt;Node47</title>
<path fill="none" stroke="midnightblue" d="M422.589,-198.228C390.074,-187.713 349.063,-174.451 318.529,-164.577"/>
<polygon fill="midnightblue" stroke="midnightblue" points="421.794,-201.649 432.386,-201.396 423.948,-194.989 421.794,-201.649"/>
</g>
<!-- Node35&#45;&gt;Node34 -->
<g id="edge11" class="edge"><title>Node35&#45;&gt;Node34</title>
<path fill="none" stroke="midnightblue" d="M639.574,-167.648C605.898,-178.201 561.804,-191.557 527.839,-201.476"/>
<polygon fill="midnightblue" stroke="midnightblue" points="640.734,-170.952 649.222,-164.611 638.632,-164.275 640.734,-170.952"/>
</g>
<!-- Node35&#45;&gt;Node36 -->
<g id="edge6" class="edge"><title>Node35&#45;&gt;Node36</title>
<path fill="none" stroke="midnightblue" d="M635.2,-131.092C604.782,-120.599 567.976,-107.408 541.739,-97.5765"/>
<polygon fill="midnightblue" stroke="midnightblue" points="634.236,-134.461 644.83,-134.396 636.508,-127.84 634.236,-134.461"/>
</g>
<!-- Node37 -->
<g id="node7" class="node"><title>Node37</title>
<g id="a_node7"><a xlink:href="_local_mapping_8cc.html" target="_top" xlink:title="/home/alejandro/Desarrollo\l eclipse/os1/src/LocalMapping.cc">
<polygon fill="white" stroke="black" points="795,-0.5 795,-30.5 957,-30.5 957,-0.5 795,-0.5"/>
<text text-anchor="start" x="803" y="-18.5" font-family="Helvetica,sans-Serif" font-size="10.00">/home/alejandro/Desarrollo</text>
<text text-anchor="middle" x="876" y="-7.5" font-family="Helvetica,sans-Serif" font-size="10.00"> eclipse/os1/src/LocalMapping.cc</text>
</a>
</g>
</g>
<!-- Node35&#45;&gt;Node37 -->
<g id="edge18" class="edge"><title>Node35&#45;&gt;Node37</title>
<path fill="none" stroke="midnightblue" d="M718.489,-128.282C756.598,-101.237 823.192,-53.9769 856.238,-30.5247"/>
<polygon fill="midnightblue" stroke="midnightblue" points="716.035,-125.732 709.905,-134.374 720.086,-131.44 716.035,-125.732"/>
</g>
<!-- Node35&#45;&gt;Node38 -->
<g id="edge20" class="edge"><title>Node35&#45;&gt;Node38</title>
<path fill="none" stroke="midnightblue" d="M671.973,-126.47C655.897,-108.15 630.815,-82.6312 604,-67 574.366,-49.7255 538.233,-37.8012 507.342,-29.8969"/>
<polygon fill="midnightblue" stroke="midnightblue" points="669.535,-129.003 678.699,-134.319 674.85,-124.448 669.535,-129.003"/>
</g>
<!-- Node35&#45;&gt;Node39 -->
<g id="edge12" class="edge"><title>Node35&#45;&gt;Node39</title>
<path fill="none" stroke="midnightblue" d="M784.159,-134.49C785.447,-134.324 786.728,-134.161 788,-134 940.513,-114.746 979.166,-114.52 1132,-98 1148.82,-96.1818 1166.86,-94.1939 1183.99,-92.2889"/>
<polygon fill="midnightblue" stroke="midnightblue" points="783.62,-131.031 774.165,-135.81 784.537,-137.971 783.62,-131.031"/>
</g>
<!-- Node41 -->
<g id="node11" class="node"><title>Node41</title>
<g id="a_node11"><a xlink:href="_loop_closing_8cc.html" target="_top" xlink:title="/home/alejandro/Desarrollo\l eclipse/os1/src/LoopClosing.cc">
<polygon fill="white" stroke="black" points="1040,-0.5 1040,-30.5 1196,-30.5 1196,-0.5 1040,-0.5"/>
<text text-anchor="start" x="1048" y="-18.5" font-family="Helvetica,sans-Serif" font-size="10.00">/home/alejandro/Desarrollo</text>
<text text-anchor="middle" x="1118" y="-7.5" font-family="Helvetica,sans-Serif" font-size="10.00"> eclipse/os1/src/LoopClosing.cc</text>
</a>
</g>
</g>
<!-- Node35&#45;&gt;Node41 -->
<g id="edge19" class="edge"><title>Node35&#45;&gt;Node41</title>
<path fill="none" stroke="midnightblue" d="M745.172,-131.484C830.592,-105.14 993.244,-54.9761 1072.42,-30.5565"/>
<polygon fill="midnightblue" stroke="midnightblue" points="743.923,-128.207 735.398,-134.499 745.986,-134.896 743.923,-128.207"/>
</g>
<!-- Node36&#45;&gt;Node34 -->
<g id="edge8" class="edge"><title>Node36&#45;&gt;Node34</title>
<path fill="none" stroke="midnightblue" d="M480.618,-103.544C470.366,-111.511 459.888,-121.735 454,-134 442.994,-156.928 459.784,-184.862 470.084,-201.357"/>
<polygon fill="midnightblue" stroke="midnightblue" points="482.687,-106.367 488.699,-97.6424 478.559,-100.714 482.687,-106.367"/>
</g>
<!-- Node36&#45;&gt;Node35 -->
<g id="edge7" class="edge"><title>Node36&#45;&gt;Node35</title>
<path fill="none" stroke="midnightblue" d="M562.715,-100.879C593.121,-111.367 629.931,-124.558 656.187,-134.396"/>
<polygon fill="midnightblue" stroke="midnightblue" points="563.684,-97.5112 553.089,-97.5765 561.412,-104.132 563.684,-97.5112"/>
</g>
<!-- Node36&#45;&gt;Node37 -->
<g id="edge9" class="edge"><title>Node36&#45;&gt;Node37</title>
<path fill="none" stroke="midnightblue" d="M597.365,-65.7155C658.14,-54.9807 737.842,-40.9029 796.428,-30.5549"/>
<polygon fill="midnightblue" stroke="midnightblue" points="596.636,-62.2899 587.397,-67.476 597.854,-69.1832 596.636,-62.2899"/>
</g>
<!-- Node36&#45;&gt;Node38 -->
<g id="edge10" class="edge"><title>Node36&#45;&gt;Node38</title>
<path fill="none" stroke="midnightblue" d="M485.508,-60.3115C475.157,-50.5612 463.16,-39.259 453.943,-30.5765"/>
<polygon fill="midnightblue" stroke="midnightblue" points="483.349,-63.0866 493.028,-67.396 488.149,-57.9914 483.349,-63.0866"/>
</g>
<!-- Node39&#45;&gt;Node37 -->
<g id="edge14" class="edge"><title>Node39&#45;&gt;Node37</title>
<path fill="none" stroke="midnightblue" d="M1173.64,-66.6212C1108.55,-55.6598 1020.69,-40.8652 957.323,-30.1942"/>
<polygon fill="midnightblue" stroke="midnightblue" points="1173.44,-70.137 1183.89,-68.3463 1174.61,-63.2342 1173.44,-70.137"/>
</g>
<!-- Node40 -->
<g id="node10" class="node"><title>Node40</title>
<g id="a_node10"><a xlink:href="_initializer_8cc.html" target="_top" xlink:title="/home/alejandro/Desarrollo\l eclipse/os1/src/Initializer.cc">
<polygon fill="white" stroke="black" points="1652.5,-0.5 1652.5,-30.5 1793.5,-30.5 1793.5,-0.5 1652.5,-0.5"/>
<text text-anchor="start" x="1660.5" y="-18.5" font-family="Helvetica,sans-Serif" font-size="10.00">/home/alejandro/Desarrollo</text>
<text text-anchor="middle" x="1723" y="-7.5" font-family="Helvetica,sans-Serif" font-size="10.00"> eclipse/os1/src/Initializer.cc</text>
</a>
</g>
</g>
<!-- Node39&#45;&gt;Node40 -->
<g id="edge13" class="edge"><title>Node39&#45;&gt;Node40</title>
<path fill="none" stroke="midnightblue" d="M1350.15,-69.0706C1438.02,-56.682 1571.23,-37.8993 1652.37,-26.4592"/>
<polygon fill="midnightblue" stroke="midnightblue" points="1349.62,-65.6117 1340.2,-70.4736 1350.59,-72.5431 1349.62,-65.6117"/>
</g>
<!-- Node39&#45;&gt;Node41 -->
<g id="edge15" class="edge"><title>Node39&#45;&gt;Node41</title>
<path fill="none" stroke="midnightblue" d="M1221.61,-63.2687C1198.68,-52.9159 1170.4,-40.1528 1149.18,-30.5765"/>
<polygon fill="midnightblue" stroke="midnightblue" points="1220.2,-66.4718 1230.75,-67.396 1223.08,-60.0917 1220.2,-66.4718"/>
</g>
<!-- Node42 -->
<g id="node12" class="node"><title>Node42</title>
<g id="a_node12"><a xlink:href="_optimizer_8cc.html" target="_top" xlink:title="/home/alejandro/Desarrollo\l eclipse/os1/src/Optimizer.cc">
<polygon fill="white" stroke="black" points="1214,-0.5 1214,-30.5 1358,-30.5 1358,-0.5 1214,-0.5"/>
<text text-anchor="start" x="1222" y="-18.5" font-family="Helvetica,sans-Serif" font-size="10.00">/home/alejandro/Desarrollo</text>
<text text-anchor="middle" x="1286" y="-7.5" font-family="Helvetica,sans-Serif" font-size="10.00"> eclipse/os1/src/Optimizer.cc</text>
</a>
</g>
</g>
<!-- Node39&#45;&gt;Node42 -->
<g id="edge16" class="edge"><title>Node39&#45;&gt;Node42</title>
<path fill="none" stroke="midnightblue" d="M1270.68,-57.9907C1274.07,-48.8044 1277.85,-38.5781 1280.8,-30.5765"/>
<polygon fill="midnightblue" stroke="midnightblue" points="1267.39,-56.8027 1267.21,-67.396 1273.95,-59.2273 1267.39,-56.8027"/>
</g>
<!-- Node39&#45;&gt;Node43 -->
<g id="edge17" class="edge"><title>Node39&#45;&gt;Node43</title>
<path fill="none" stroke="midnightblue" d="M1311.67,-63.9553C1341.3,-53.4847 1378.44,-40.3656 1406.15,-30.5765"/>
<polygon fill="midnightblue" stroke="midnightblue" points="1310.19,-60.7649 1301.93,-67.396 1312.52,-67.3652 1310.19,-60.7649"/>
</g>
<!-- Node49&#45;&gt;Node37 -->
<g id="edge36" class="edge"><title>Node49&#45;&gt;Node37</title>
<path fill="none" stroke="midnightblue" d="M1247.13,-259.898C1241.43,-251.196 1234.89,-241.153 1229,-232 1201.12,-188.648 1206.58,-167.015 1167,-134 1100.58,-78.5954 1004.64,-46.7214 941.323,-30.5001"/>
<polygon fill="midnightblue" stroke="midnightblue" points="1244.29,-261.946 1252.7,-268.387 1250.14,-258.106 1244.29,-261.946"/>
</g>
<!-- Node49&#45;&gt;Node40 -->
<g id="edge34" class="edge"><title>Node49&#45;&gt;Node40</title>
<path fill="none" stroke="midnightblue" d="M1357.94,-275.249C1465.18,-266.326 1626.82,-250.114 1649,-232 1712.88,-179.826 1721.79,-69.69 1722.9,-30.6156"/>
<polygon fill="midnightblue" stroke="midnightblue" points="1357.41,-271.78 1347.74,-276.089 1357.99,-278.756 1357.41,-271.78"/>
</g>
<!-- Node49&#45;&gt;Node41 -->
<g id="edge37" class="edge"><title>Node49&#45;&gt;Node41</title>
<path fill="none" stroke="midnightblue" d="M1253.78,-258.5C1243.11,-228.521 1223.11,-176.054 1200,-134 1199.25,-132.637 1149.62,-61.6876 1127.95,-30.7122"/>
<polygon fill="midnightblue" stroke="midnightblue" points="1250.54,-259.835 1257.16,-268.112 1257.15,-257.517 1250.54,-259.835"/>
</g>
<!-- Node49&#45;&gt;Node43 -->
<g id="edge41" class="edge"><title>Node49&#45;&gt;Node43</title>
<path fill="none" stroke="midnightblue" d="M1357.68,-275.745C1460.12,-267.517 1610.41,-252.182 1628,-232 1693.31,-157.056 1540.6,-65.4622 1474.57,-30.7489"/>
<polygon fill="midnightblue" stroke="midnightblue" points="1357.3,-272.263 1347.61,-276.543 1357.86,-279.241 1357.3,-272.263"/>
</g>
<!-- Node49&#45;&gt;Node50 -->
<g id="edge33" class="edge"><title>Node49&#45;&gt;Node50</title>
<path fill="none" stroke="midnightblue" d="M1357.66,-273.172C1446.34,-264.116 1581.86,-249.236 1699,-232 1703.66,-231.314 1708.47,-230.563 1713.31,-229.777"/>
<polygon fill="midnightblue" stroke="midnightblue" points="1357.21,-269.7 1347.62,-274.193 1357.92,-276.664 1357.21,-269.7"/>
</g>
<!-- Node49&#45;&gt;Node51 -->
<g id="edge35" class="edge"><title>Node49&#45;&gt;Node51</title>
<path fill="none" stroke="midnightblue" d="M1166.38,-269.682C1161.86,-269.107 1157.38,-268.543 1153,-268 1014.04,-250.767 978.563,-252.201 840,-232 837.282,-231.604 834.516,-231.186 831.723,-230.753"/>
<polygon fill="midnightblue" stroke="midnightblue" points="1165.97,-273.158 1176.34,-270.958 1166.86,-266.215 1165.97,-273.158"/>
</g>
<!-- Node49&#45;&gt;Node52 -->
<g id="edge38" class="edge"><title>Node49&#45;&gt;Node52</title>
<path fill="none" stroke="midnightblue" d="M1214.12,-264.819C1185.83,-254.371 1150.51,-241.323 1124.11,-231.577"/>
<polygon fill="midnightblue" stroke="midnightblue" points="1213.22,-268.215 1223.81,-268.396 1215.64,-261.648 1213.22,-268.215"/>
</g>
<!-- Node53 -->
<g id="node23" class="node"><title>Node53</title>
<g id="a_node23"><a xlink:href="_o_r_bmatcher_8cc.html" target="_top" xlink:title="/home/alejandro/Desarrollo\l eclipse/os1/src/ORBmatcher.cc">
<polygon fill="white" stroke="black" points="1289.5,-201.5 1289.5,-231.5 1448.5,-231.5 1448.5,-201.5 1289.5,-201.5"/>
<text text-anchor="start" x="1297.5" y="-219.5" font-family="Helvetica,sans-Serif" font-size="10.00">/home/alejandro/Desarrollo</text>
<text text-anchor="middle" x="1369" y="-208.5" font-family="Helvetica,sans-Serif" font-size="10.00"> eclipse/os1/src/ORBmatcher.cc</text>
</a>
</g>
</g>
<!-- Node49&#45;&gt;Node53 -->
<g id="edge39" class="edge"><title>Node49&#45;&gt;Node53</title>
<path fill="none" stroke="midnightblue" d="M1294.08,-263.015C1310.73,-252.9 1330.69,-240.77 1345.83,-231.577"/>
<polygon fill="midnightblue" stroke="midnightblue" points="1291.95,-260.213 1285.22,-268.396 1295.58,-266.195 1291.95,-260.213"/>
</g>
<!-- Node54 -->
<g id="node24" class="node"><title>Node54</title>
<g id="a_node24"><a xlink:href="_sim3_solver_8cc.html" target="_top" xlink:title="/home/alejandro/Desarrollo\l eclipse/os1/src/Sim3Solver.cc">
<polygon fill="white" stroke="black" points="1467,-201.5 1467,-231.5 1619,-231.5 1619,-201.5 1467,-201.5"/>
<text text-anchor="start" x="1475" y="-219.5" font-family="Helvetica,sans-Serif" font-size="10.00">/home/alejandro/Desarrollo</text>
<text text-anchor="middle" x="1543" y="-208.5" font-family="Helvetica,sans-Serif" font-size="10.00"> eclipse/os1/src/Sim3Solver.cc</text>
</a>
</g>
</g>
<!-- Node49&#45;&gt;Node54 -->
<g id="edge40" class="edge"><title>Node49&#45;&gt;Node54</title>
<path fill="none" stroke="midnightblue" d="M1332.53,-266.186C1378.55,-255.54 1438.02,-241.784 1482,-231.611"/>
<polygon fill="midnightblue" stroke="midnightblue" points="1331.58,-262.812 1322.63,-268.476 1333.16,-269.632 1331.58,-262.812"/>
</g>
<!-- Node55&#45;&gt;Node43 -->
<g id="edge44" class="edge"><title>Node55&#45;&gt;Node43</title>
<path fill="none" stroke="midnightblue" d="M1108.93,-264.374C1174.2,-235.937 1298.27,-175.94 1384,-98 1406.49,-77.5492 1426.6,-48.0556 1437.47,-30.7245"/>
<polygon fill="midnightblue" stroke="midnightblue" points="1107.54,-261.164 1099.74,-268.339 1110.31,-267.592 1107.54,-261.164"/>
</g>
<!-- Node56 -->
<g id="node26" class="node"><title>Node56</title>
<g id="a_node26"><a xlink:href="_pn_psolver_8cc.html" target="_top" xlink:title="/home/alejandro/Desarrollo\l eclipse/os1/src/PnPsolver.cc">
<polygon fill="white" stroke="black" points="849.5,-201.5 849.5,-231.5 996.5,-231.5 996.5,-201.5 849.5,-201.5"/>
<text text-anchor="start" x="857.5" y="-219.5" font-family="Helvetica,sans-Serif" font-size="10.00">/home/alejandro/Desarrollo</text>
<text text-anchor="middle" x="923" y="-208.5" font-family="Helvetica,sans-Serif" font-size="10.00"> eclipse/os1/src/PnPsolver.cc</text>
</a>
</g>
</g>
<!-- Node55&#45;&gt;Node56 -->
<g id="edge43" class="edge"><title>Node55&#45;&gt;Node56</title>
<path fill="none" stroke="midnightblue" d="M1024.87,-264.131C1002.31,-253.802 974.579,-241.11 953.752,-231.577"/>
<polygon fill="midnightblue" stroke="midnightblue" points="1023.64,-267.416 1034.19,-268.396 1026.55,-261.051 1023.64,-267.416"/>
</g>
<!-- Node58&#45;&gt;Node34 -->
<g id="edge52" class="edge"><title>Node58&#45;&gt;Node34</title>
<path fill="none" stroke="midnightblue" d="M1830.93,-279.925C1628.17,-273.719 1108.69,-256.604 675,-232 634.363,-229.695 589.107,-226.451 552.033,-223.616"/>
<polygon fill="midnightblue" stroke="midnightblue" points="1831.12,-283.433 1841.22,-280.239 1831.33,-276.436 1831.12,-283.433"/>
</g>
<!-- Node58&#45;&gt;Node40 -->
<g id="edge53" class="edge"><title>Node58&#45;&gt;Node40</title>
<path fill="none" stroke="midnightblue" d="M1927.05,-258.687C1937.21,-227.716 1949.53,-172.975 1927,-134 1894.79,-78.2684 1824.99,-46.6374 1776.05,-30.5472"/>
<polygon fill="midnightblue" stroke="midnightblue" points="1923.71,-257.627 1923.74,-268.222 1930.33,-259.922 1923.71,-257.627"/>
</g>
<!-- Node58&#45;&gt;Node43 -->
<g id="edge54" class="edge"><title>Node58&#45;&gt;Node43</title>
<path fill="none" stroke="midnightblue" d="M1920.5,-258.498C1922.47,-225.938 1920.77,-167.949 1889,-134 1838.51,-80.039 1628.06,-42.5239 1516.36,-25.998"/>
<polygon fill="midnightblue" stroke="midnightblue" points="1917,-258.254 1919.72,-268.494 1923.98,-258.793 1917,-258.254"/>
</g>
</g>
</svg>
