<?xml version="1.0" encoding="UTF-8" standalone="no"?>
<!DOCTYPE svg PUBLIC "-//W3C//DTD SVG 1.1//EN"
 "http://www.w3.org/Graphics/SVG/1.1/DTD/svg11.dtd">
<!-- Generated by graphviz version 2.38.0 (20140413.2041)
 -->
<!-- Title: /home/alejandro/Desarrollo eclipse/os1/include/FrameDrawer.h Pages: 1 -->
<svg width="978pt" height="307pt"
 viewBox="0.00 0.00 978.00 307.00" xmlns="http://www.w3.org/2000/svg" xmlns:xlink="http://www.w3.org/1999/xlink">
<g id="graph0" class="graph" transform="scale(1 1) rotate(0) translate(4 303)">
<title>/home/alejandro/Desarrollo eclipse/os1/include/FrameDrawer.h</title>
<polygon fill="white" stroke="none" points="-4,4 -4,-303 974,-303 974,4 -4,4"/>
<!-- Node3 -->
<g id="node1" class="node"><title>Node3</title>
<polygon fill="#bfbfbf" stroke="black" points="540.5,-268.5 540.5,-298.5 713.5,-298.5 713.5,-268.5 540.5,-268.5"/>
<text text-anchor="start" x="548.5" y="-286.5" font-family="Helvetica,sans-Serif" font-size="10.00">/home/alejandro/Desarrollo</text>
<text text-anchor="middle" x="627" y="-275.5" font-family="Helvetica,sans-Serif" font-size="10.00"> eclipse/os1/include/FrameDrawer.h</text>
</g>
<!-- Node4 -->
<g id="node2" class="node"><title>Node4</title>
<g id="a_node2"><a xlink:href="_tracking_8h.html" target="_top" xlink:title="/home/alejandro/Desarrollo\l eclipse/os1/include/Tracking.h">
<polygon fill="white" stroke="black" points="308,-201.5 308,-231.5 460,-231.5 460,-201.5 308,-201.5"/>
<text text-anchor="start" x="316" y="-219.5" font-family="Helvetica,sans-Serif" font-size="10.00">/home/alejandro/Desarrollo</text>
<text text-anchor="middle" x="384" y="-208.5" font-family="Helvetica,sans-Serif" font-size="10.00"> eclipse/os1/include/Tracking.h</text>
</a>
</g>
</g>
<!-- Node3&#45;&gt;Node4 -->
<g id="edge1" class="edge"><title>Node3&#45;&gt;Node4</title>
<path fill="none" stroke="midnightblue" d="M564.754,-265.85C525.136,-255.252 474.386,-241.677 436.753,-231.611"/>
<polygon fill="midnightblue" stroke="midnightblue" points="564.007,-269.273 574.572,-268.476 565.816,-262.511 564.007,-269.273"/>
</g>
<!-- Node8 -->
<g id="node6" class="node"><title>Node8</title>
<g id="a_node6"><a xlink:href="_system_8cc.html" target="_top" xlink:title="/home/alejandro/Desarrollo\l eclipse/os1/src/System.cc">
<polygon fill="white" stroke="black" points="0,-0.5 0,-30.5 136,-30.5 136,-0.5 0,-0.5"/>
<text text-anchor="start" x="8" y="-18.5" font-family="Helvetica,sans-Serif" font-size="10.00">/home/alejandro/Desarrollo</text>
<text text-anchor="middle" x="68" y="-7.5" font-family="Helvetica,sans-Serif" font-size="10.00"> eclipse/os1/src/System.cc</text>
</a>
</g>
</g>
<!-- Node3&#45;&gt;Node8 -->
<g id="edge24" class="edge"><title>Node3&#45;&gt;Node8</title>
<path fill="none" stroke="midnightblue" d="M530.183,-277.131C463.616,-271.158 374.039,-258.557 299,-232 198.83,-196.549 164.303,-183.344 101,-98 85.4489,-77.0344 75.9491,-47.7137 71.355,-30.5542"/>
<polygon fill="midnightblue" stroke="midnightblue" points="529.983,-280.627 540.247,-278 530.585,-273.653 529.983,-280.627"/>
</g>
<!-- Node13 -->
<g id="node11" class="node"><title>Node13</title>
<g id="a_node11"><a xlink:href="_tracking_8cc.html" target="_top" xlink:title="/home/alejandro/Desarrollo\l eclipse/os1/src/Tracking.cc">
<polygon fill="white" stroke="black" points="830,-0.5 830,-30.5 970,-30.5 970,-0.5 830,-0.5"/>
<text text-anchor="start" x="838" y="-18.5" font-family="Helvetica,sans-Serif" font-size="10.00">/home/alejandro/Desarrollo</text>
<text text-anchor="middle" x="900" y="-7.5" font-family="Helvetica,sans-Serif" font-size="10.00"> eclipse/os1/src/Tracking.cc</text>
</a>
</g>
</g>
<!-- Node3&#45;&gt;Node13 -->
<g id="edge25" class="edge"><title>Node3&#45;&gt;Node13</title>
<path fill="none" stroke="midnightblue" d="M698.734,-265.507C753.006,-248.913 825.117,-218.183 867,-165 898.863,-124.541 901.332,-59.5565 900.699,-30.8848"/>
<polygon fill="midnightblue" stroke="midnightblue" points="697.414,-262.248 688.819,-268.443 699.401,-268.96 697.414,-262.248"/>
</g>
<!-- Node14 -->
<g id="node12" class="node"><title>Node14</title>
<g id="a_node12"><a xlink:href="_frame_drawer_8cc.html" target="_top" xlink:title="/home/alejandro/Desarrollo\l eclipse/os1/src/FrameDrawer.cc">
<polygon fill="white" stroke="black" points="546.5,-134.5 546.5,-164.5 707.5,-164.5 707.5,-134.5 546.5,-134.5"/>
<text text-anchor="start" x="554.5" y="-152.5" font-family="Helvetica,sans-Serif" font-size="10.00">/home/alejandro/Desarrollo</text>
<text text-anchor="middle" x="627" y="-141.5" font-family="Helvetica,sans-Serif" font-size="10.00"> eclipse/os1/src/FrameDrawer.cc</text>
</a>
</g>
</g>
<!-- Node3&#45;&gt;Node14 -->
<g id="edge23" class="edge"><title>Node3&#45;&gt;Node14</title>
<path fill="none" stroke="midnightblue" d="M627,-258.024C627,-230.512 627,-186.789 627,-164.525"/>
<polygon fill="midnightblue" stroke="midnightblue" points="623.5,-258.374 627,-268.374 630.5,-258.374 623.5,-258.374"/>
</g>
<!-- Node15 -->
<g id="node13" class="node"><title>Node15</title>
<g id="a_node13"><a xlink:href="_viewer_8cc.html" target="_top" xlink:title="/home/alejandro/Desarrollo\l eclipse/os1/src/Viewer.cc">
<polygon fill="white" stroke="black" points="725.5,-134.5 725.5,-164.5 858.5,-164.5 858.5,-134.5 725.5,-134.5"/>
<text text-anchor="start" x="733.5" y="-152.5" font-family="Helvetica,sans-Serif" font-size="10.00">/home/alejandro/Desarrollo</text>
<text text-anchor="middle" x="792" y="-141.5" font-family="Helvetica,sans-Serif" font-size="10.00"> eclipse/os1/src/Viewer.cc</text>
</a>
</g>
</g>
<!-- Node3&#45;&gt;Node15 -->
<g id="edge26" class="edge"><title>Node3&#45;&gt;Node15</title>
<path fill="none" stroke="midnightblue" d="M652.702,-261.938C686.577,-234.838 745.278,-187.878 774.469,-164.525"/>
<polygon fill="midnightblue" stroke="midnightblue" points="650.28,-259.394 644.658,-268.374 654.653,-264.86 650.28,-259.394"/>
</g>
<!-- Node5 -->
<g id="node3" class="node"><title>Node5</title>
<g id="a_node3"><a xlink:href="_loop_closing_8h.html" target="_top" xlink:title="/home/alejandro/Desarrollo\l eclipse/os1/include/LoopClosing.h">
<polygon fill="white" stroke="black" points="300,-134.5 300,-164.5 468,-164.5 468,-134.5 300,-134.5"/>
<text text-anchor="start" x="308" y="-152.5" font-family="Helvetica,sans-Serif" font-size="10.00">/home/alejandro/Desarrollo</text>
<text text-anchor="middle" x="384" y="-141.5" font-family="Helvetica,sans-Serif" font-size="10.00"> eclipse/os1/include/LoopClosing.h</text>
</a>
</g>
</g>
<!-- Node4&#45;&gt;Node5 -->
<g id="edge2" class="edge"><title>Node4&#45;&gt;Node5</title>
<path fill="none" stroke="midnightblue" d="M377.455,-191.403C377.005,-182.37 377.296,-172.408 378.325,-164.577"/>
<polygon fill="midnightblue" stroke="midnightblue" points="373.97,-191.736 378.322,-201.396 380.944,-191.131 373.97,-191.736"/>
</g>
<!-- Node6 -->
<g id="node4" class="node"><title>Node6</title>
<g id="a_node4"><a xlink:href="_local_mapping_8h.html" target="_top" xlink:title="/home/alejandro/Desarrollo\l eclipse/os1/include/LocalMapping.h">
<polygon fill="white" stroke="black" points="144,-67.5 144,-97.5 318,-97.5 318,-67.5 144,-67.5"/>
<text text-anchor="start" x="152" y="-85.5" font-family="Helvetica,sans-Serif" font-size="10.00">/home/alejandro/Desarrollo</text>
<text text-anchor="middle" x="231" y="-74.5" font-family="Helvetica,sans-Serif" font-size="10.00"> eclipse/os1/include/LocalMapping.h</text>
</a>
</g>
</g>
<!-- Node4&#45;&gt;Node6 -->
<g id="edge18" class="edge"><title>Node4&#45;&gt;Node6</title>
<path fill="none" stroke="midnightblue" d="M332.543,-197.056C315.259,-188.716 296.725,-177.833 282,-165 259.217,-145.145 239.964,-115.18 232.511,-97.6528"/>
<polygon fill="midnightblue" stroke="midnightblue" points="331.439,-200.402 341.985,-201.424 334.379,-194.049 331.439,-200.402"/>
</g>
<!-- Node4&#45;&gt;Node8 -->
<g id="edge20" class="edge"><title>Node4&#45;&gt;Node8</title>
<path fill="none" stroke="midnightblue" d="M328.29,-198.15C274.702,-179.515 193.432,-145.969 135,-98 110.65,-78.0097 88.7752,-48.0909 77.0418,-30.609"/>
<polygon fill="midnightblue" stroke="midnightblue" points="327.368,-201.533 337.962,-201.456 329.632,-194.909 327.368,-201.533"/>
</g>
<!-- Node4&#45;&gt;Node13 -->
<g id="edge21" class="edge"><title>Node4&#45;&gt;Node13</title>
<path fill="none" stroke="midnightblue" d="M418.766,-196.564C460.121,-174.104 525.087,-139.054 537,-134 644.018,-88.5959 774.905,-50.2231 846.639,-30.5798"/>
<polygon fill="midnightblue" stroke="midnightblue" points="416.936,-193.575 409.821,-201.425 420.279,-199.725 416.936,-193.575"/>
</g>
<!-- Node4&#45;&gt;Node14 -->
<g id="edge19" class="edge"><title>Node4&#45;&gt;Node14</title>
<path fill="none" stroke="midnightblue" d="M446.246,-198.85C485.864,-188.252 536.614,-174.677 574.247,-164.611"/>
<polygon fill="midnightblue" stroke="midnightblue" points="445.184,-195.511 436.428,-201.476 446.993,-202.273 445.184,-195.511"/>
</g>
<!-- Node4&#45;&gt;Node15 -->
<g id="edge22" class="edge"><title>Node4&#45;&gt;Node15</title>
<path fill="none" stroke="midnightblue" d="M470.385,-203.268C537.475,-193.549 632.783,-179.262 716,-165 719.045,-164.478 722.156,-163.933 725.298,-163.373"/>
<polygon fill="midnightblue" stroke="midnightblue" points="469.678,-199.834 460.281,-204.728 470.679,-206.762 469.678,-199.834"/>
</g>
<!-- Node5&#45;&gt;Node4 -->
<g id="edge8" class="edge"><title>Node5&#45;&gt;Node4</title>
<path fill="none" stroke="midnightblue" d="M390.544,-174.565C390.995,-183.596 390.706,-193.56 389.678,-201.396"/>
<polygon fill="midnightblue" stroke="midnightblue" points="394.028,-174.236 389.675,-164.577 387.055,-174.842 394.028,-174.236"/>
</g>
<!-- Node5&#45;&gt;Node6 -->
<g id="edge3" class="edge"><title>Node5&#45;&gt;Node6</title>
<path fill="none" stroke="midnightblue" d="M335.626,-130.544C310.162,-120.143 279.931,-107.238 258.459,-97.5765"/>
<polygon fill="midnightblue" stroke="midnightblue" points="334.541,-133.881 345.123,-134.396 337.171,-127.394 334.541,-133.881"/>
</g>
<!-- Node7 -->
<g id="node5" class="node"><title>Node7</title>
<g id="a_node5"><a xlink:href="_local_mapping_8cc.html" target="_top" xlink:title="/home/alejandro/Desarrollo\l eclipse/os1/src/LocalMapping.cc">
<polygon fill="white" stroke="black" points="154,-0.5 154,-30.5 316,-30.5 316,-0.5 154,-0.5"/>
<text text-anchor="start" x="162" y="-18.5" font-family="Helvetica,sans-Serif" font-size="10.00">/home/alejandro/Desarrollo</text>
<text text-anchor="middle" x="235" y="-7.5" font-family="Helvetica,sans-Serif" font-size="10.00"> eclipse/os1/src/LocalMapping.cc</text>
</a>
</g>
</g>
<!-- Node5&#45;&gt;Node7 -->
<g id="edge15" class="edge"><title>Node5&#45;&gt;Node7</title>
<path fill="none" stroke="midnightblue" d="M382.429,-124.364C380.074,-106.535 374.263,-82.7271 360,-67 344.277,-49.6625 321.764,-38.1642 300.165,-30.5887"/>
<polygon fill="midnightblue" stroke="midnightblue" points="378.948,-124.735 383.473,-134.315 385.91,-124.004 378.948,-124.735"/>
</g>
<!-- Node5&#45;&gt;Node8 -->
<g id="edge17" class="edge"><title>Node5&#45;&gt;Node8</title>
<path fill="none" stroke="midnightblue" d="M373.92,-125.367C364.524,-106.63 348.695,-81.1065 327,-67 324.966,-65.6772 212.083,-43.9675 136.03,-29.4474"/>
<polygon fill="midnightblue" stroke="midnightblue" points="370.785,-126.926 378.244,-134.451 377.106,-123.917 370.785,-126.926"/>
</g>
<!-- Node9 -->
<g id="node7" class="node"><title>Node9</title>
<g id="a_node7"><a xlink:href="_optimizer_8h.html" target="_top" xlink:title="/home/alejandro/Desarrollo\l eclipse/os1/include/Optimizer.h">
<polygon fill="white" stroke="black" points="412,-67.5 412,-97.5 568,-97.5 568,-67.5 412,-67.5"/>
<text text-anchor="start" x="420" y="-85.5" font-family="Helvetica,sans-Serif" font-size="10.00">/home/alejandro/Desarrollo</text>
<text text-anchor="middle" x="490" y="-74.5" font-family="Helvetica,sans-Serif" font-size="10.00"> eclipse/os1/include/Optimizer.h</text>
</a>
</g>
</g>
<!-- Node5&#45;&gt;Node9 -->
<g id="edge9" class="edge"><title>Node5&#45;&gt;Node9</title>
<path fill="none" stroke="midnightblue" d="M415.775,-129.015C432.271,-118.9 452.052,-106.77 467.044,-97.5765"/>
<polygon fill="midnightblue" stroke="midnightblue" points="413.696,-126.185 407,-134.396 417.355,-132.152 413.696,-126.185"/>
</g>
<!-- Node11 -->
<g id="node9" class="node"><title>Node11</title>
<g id="a_node9"><a xlink:href="_loop_closing_8cc.html" target="_top" xlink:title="/home/alejandro/Desarrollo\l eclipse/os1/src/LoopClosing.cc">
<polygon fill="white" stroke="black" points="656,-0.5 656,-30.5 812,-30.5 812,-0.5 656,-0.5"/>
<text text-anchor="start" x="664" y="-18.5" font-family="Helvetica,sans-Serif" font-size="10.00">/home/alejandro/Desarrollo</text>
<text text-anchor="middle" x="734" y="-7.5" font-family="Helvetica,sans-Serif" font-size="10.00"> eclipse/os1/src/LoopClosing.cc</text>
</a>
</g>
</g>
<!-- Node5&#45;&gt;Node11 -->
<g id="edge16" class="edge"><title>Node5&#45;&gt;Node11</title>
<path fill="none" stroke="midnightblue" d="M474.407,-132.102C507.615,-124.22 544.914,-113.116 577,-98 598.313,-87.959 599.564,-78.7231 620,-67 644.785,-52.7821 674.32,-39.8 697.116,-30.5594"/>
<polygon fill="midnightblue" stroke="midnightblue" points="473.201,-128.788 464.243,-134.446 474.774,-135.609 473.201,-128.788"/>
</g>
<!-- Node6&#45;&gt;Node4 -->
<g id="edge5" class="edge"><title>Node6&#45;&gt;Node4</title>
<path fill="none" stroke="midnightblue" d="M251.212,-106.206C263.757,-123.853 280.599,-148.092 300,-165 317.452,-180.209 340.254,-192.68 357.839,-201.424"/>
<polygon fill="midnightblue" stroke="midnightblue" points="253.736,-103.722 245.052,-97.6528 248.056,-107.813 253.736,-103.722"/>
</g>
<!-- Node6&#45;&gt;Node5 -->
<g id="edge4" class="edge"><title>Node6&#45;&gt;Node5</title>
<path fill="none" stroke="midnightblue" d="M279.302,-101.426C304.756,-111.823 334.992,-124.728 356.48,-134.396"/>
<polygon fill="midnightblue" stroke="midnightblue" points="280.391,-98.0911 269.809,-97.5765 277.76,-104.578 280.391,-98.0911"/>
</g>
<!-- Node6&#45;&gt;Node7 -->
<g id="edge6" class="edge"><title>Node6&#45;&gt;Node7</title>
<path fill="none" stroke="midnightblue" d="M232.483,-57.4029C233.039,-48.3703 233.652,-38.4078 234.134,-30.5765"/>
<polygon fill="midnightblue" stroke="midnightblue" points="228.989,-57.1998 231.868,-67.396 235.976,-57.6299 228.989,-57.1998"/>
</g>
<!-- Node6&#45;&gt;Node8 -->
<g id="edge7" class="edge"><title>Node6&#45;&gt;Node8</title>
<path fill="none" stroke="midnightblue" d="M186.317,-63.6815C160.175,-53.2568 127.634,-40.2805 103.3,-30.5765"/>
<polygon fill="midnightblue" stroke="midnightblue" points="185.046,-66.9429 195.631,-67.396 187.639,-60.4408 185.046,-66.9429"/>
</g>
<!-- Node9&#45;&gt;Node7 -->
<g id="edge11" class="edge"><title>Node9&#45;&gt;Node7</title>
<path fill="none" stroke="midnightblue" d="M425.208,-64.9844C383.557,-54.3674 330.017,-40.7201 290.358,-30.6109"/>
<polygon fill="midnightblue" stroke="midnightblue" points="424.428,-68.3974 434.983,-67.476 426.157,-61.6143 424.428,-68.3974"/>
</g>
<!-- Node10 -->
<g id="node8" class="node"><title>Node10</title>
<g id="a_node8"><a xlink:href="_initializer_8cc.html" target="_top" xlink:title="/home/alejandro/Desarrollo\l eclipse/os1/src/Initializer.cc">
<polygon fill="white" stroke="black" points="496.5,-0.5 496.5,-30.5 637.5,-30.5 637.5,-0.5 496.5,-0.5"/>
<text text-anchor="start" x="504.5" y="-18.5" font-family="Helvetica,sans-Serif" font-size="10.00">/home/alejandro/Desarrollo</text>
<text text-anchor="middle" x="567" y="-7.5" font-family="Helvetica,sans-Serif" font-size="10.00"> eclipse/os1/src/Initializer.cc</text>
</a>
</g>
</g>
<!-- Node9&#45;&gt;Node10 -->
<g id="edge10" class="edge"><title>Node9&#45;&gt;Node10</title>
<path fill="none" stroke="midnightblue" d="M514.423,-60.8832C526.124,-51.0054 539.838,-39.4293 550.325,-30.5765"/>
<polygon fill="midnightblue" stroke="midnightblue" points="512.092,-58.2709 506.708,-67.396 516.607,-63.6199 512.092,-58.2709"/>
</g>
<!-- Node9&#45;&gt;Node11 -->
<g id="edge12" class="edge"><title>Node9&#45;&gt;Node11</title>
<path fill="none" stroke="midnightblue" d="M552.502,-64.8498C592.284,-54.2523 643.242,-40.6775 681.03,-30.6109"/>
<polygon fill="midnightblue" stroke="midnightblue" points="551.406,-61.5197 542.644,-67.476 553.208,-68.2838 551.406,-61.5197"/>
</g>
<!-- Node12 -->
<g id="node10" class="node"><title>Node12</title>
<g id="a_node10"><a xlink:href="_optimizer_8cc.html" target="_top" xlink:title="/home/alejandro/Desarrollo\l eclipse/os1/src/Optimizer.cc">
<polygon fill="white" stroke="black" points="334,-0.5 334,-30.5 478,-30.5 478,-0.5 334,-0.5"/>
<text text-anchor="start" x="342" y="-18.5" font-family="Helvetica,sans-Serif" font-size="10.00">/home/alejandro/Desarrollo</text>
<text text-anchor="middle" x="406" y="-7.5" font-family="Helvetica,sans-Serif" font-size="10.00"> eclipse/os1/src/Optimizer.cc</text>
</a>
</g>
</g>
<!-- Node9&#45;&gt;Node12 -->
<g id="edge13" class="edge"><title>Node9&#45;&gt;Node12</title>
<path fill="none" stroke="midnightblue" d="M463.724,-61.1677C450.88,-51.2283 435.742,-39.5144 424.191,-30.5765"/>
<polygon fill="midnightblue" stroke="midnightblue" points="461.723,-64.0442 471.773,-67.396 466.006,-58.508 461.723,-64.0442"/>
</g>
<!-- Node9&#45;&gt;Node13 -->
<g id="edge14" class="edge"><title>Node9&#45;&gt;Node13</title>
<path fill="none" stroke="midnightblue" d="M578.08,-68.799C644.839,-58.9938 738.8,-44.811 821,-31 823.888,-30.5148 826.834,-30.0116 829.808,-29.4967"/>
<polygon fill="midnightblue" stroke="midnightblue" points="577.406,-65.3603 568.019,-70.2738 578.421,-72.2863 577.406,-65.3603"/>
</g>
</g>
</svg>
