<?xml version="1.0" encoding="UTF-8" standalone="no"?>
<!DOCTYPE svg PUBLIC "-//W3C//DTD SVG 1.1//EN"
 "http://www.w3.org/Graphics/SVG/1.1/DTD/svg11.dtd">
<!-- Generated by graphviz version 2.40.1 (20161225.0304)
 -->
<!-- Title: /home/alejandro/Desarrollo eclipse/os1/include/Frame.h Pages: 1 -->
<svg width="2023pt" height="441pt"
 viewBox="0.00 0.00 2022.50 441.00" xmlns="http://www.w3.org/2000/svg" xmlns:xlink="http://www.w3.org/1999/xlink">
<g id="graph0" class="graph" transform="scale(1 1) rotate(0) translate(4 437)">
<title>/home/alejandro/Desarrollo eclipse/os1/include/Frame.h</title>
<polygon fill="#ffffff" stroke="transparent" points="-4,4 -4,-437 2018.5,-437 2018.5,4 -4,4"/>
<!-- Node29 -->
<g id="node1" class="node">
<title>Node29</title>
<polygon fill="#bfbfbf" stroke="#000000" points="1128,-402.5 1128,-432.5 1270,-432.5 1270,-402.5 1128,-402.5"/>
<text text-anchor="start" x="1136" y="-420.5" font-family="Helvetica,sans-Serif" font-size="10.00" fill="#000000">/home/alejandro/Desarrollo</text>
<text text-anchor="middle" x="1199" y="-409.5" font-family="Helvetica,sans-Serif" font-size="10.00" fill="#000000"> eclipse/os1/include/Frame.h</text>
</g>
<!-- Node30 -->
<g id="node2" class="node">
<title>Node30</title>
<g id="a_node2"><a xlink:href="_map_point_8h.html" target="_top" xlink:title="/home/alejandro/Desarrollo\l eclipse/os1/include/MapPoint.h">
<polygon fill="#ffffff" stroke="#000000" points="642.5,-335.5 642.5,-365.5 797.5,-365.5 797.5,-335.5 642.5,-335.5"/>
<text text-anchor="start" x="650.5" y="-353.5" font-family="Helvetica,sans-Serif" font-size="10.00" fill="#000000">/home/alejandro/Desarrollo</text>
<text text-anchor="middle" x="720" y="-342.5" font-family="Helvetica,sans-Serif" font-size="10.00" fill="#000000"> eclipse/os1/include/MapPoint.h</text>
</a>
</g>
</g>
<!-- Node29&#45;&gt;Node30 -->
<g id="edge1" class="edge">
<title>Node29&#45;&gt;Node30</title>
<path fill="none" stroke="#191970" d="M1117.715,-406.8431C1028.2937,-394.6361 885.7294,-374.7024 797.7431,-362.1096"/>
<polygon fill="#191970" stroke="#191970" points="1117.4297,-410.3365 1127.8108,-408.2191 1118.3751,-403.4006 1117.4297,-410.3365"/>
</g>
<!-- Node32 -->
<g id="node4" class="node">
<title>Node32</title>
<g id="a_node4"><a xlink:href="_tracking_8h.html" target="_top" xlink:title="/home/alejandro/Desarrollo\l eclipse/os1/include/Tracking.h">
<polygon fill="#ffffff" stroke="#000000" points="430,-201.5 430,-231.5 582,-231.5 582,-201.5 430,-201.5"/>
<text text-anchor="start" x="438" y="-219.5" font-family="Helvetica,sans-Serif" font-size="10.00" fill="#000000">/home/alejandro/Desarrollo</text>
<text text-anchor="middle" x="506" y="-208.5" font-family="Helvetica,sans-Serif" font-size="10.00" fill="#000000"> eclipse/os1/include/Tracking.h</text>
</a>
</g>
</g>
<!-- Node29&#45;&gt;Node32 -->
<g id="edge57" class="edge">
<title>Node29&#45;&gt;Node32</title>
<path fill="none" stroke="#191970" d="M1117.6192,-412.511C984.0204,-403.9126 724.0398,-385.353 634,-366 544.8174,-346.8312 492.9371,-373.2876 440,-299 422.6494,-274.6516 454.1508,-247.863 479.3284,-231.6127"/>
<polygon fill="#191970" stroke="#191970" points="1117.595,-416.0166 1127.7982,-413.1626 1118.0422,-409.0308 1117.595,-416.0166"/>
</g>
<!-- Node37 -->
<g id="node9" class="node">
<title>Node37</title>
<g id="a_node9"><a xlink:href="_optimizer_8h.html" target="_top" xlink:title="/home/alejandro/Desarrollo\l eclipse/os1/include/Optimizer.h">
<polygon fill="#ffffff" stroke="#000000" points="1155,-67.5 1155,-97.5 1311,-97.5 1311,-67.5 1155,-67.5"/>
<text text-anchor="start" x="1163" y="-85.5" font-family="Helvetica,sans-Serif" font-size="10.00" fill="#000000">/home/alejandro/Desarrollo</text>
<text text-anchor="middle" x="1233" y="-74.5" font-family="Helvetica,sans-Serif" font-size="10.00" fill="#000000"> eclipse/os1/include/Optimizer.h</text>
</a>
</g>
</g>
<!-- Node29&#45;&gt;Node37 -->
<g id="edge58" class="edge">
<title>Node29&#45;&gt;Node37</title>
<path fill="none" stroke="#191970" d="M1261.4995,-399.7208C1394.0934,-361.3856 1693.7288,-271.2501 1721,-232 1728.8615,-220.6853 1729.5157,-211.831 1721,-201 1670.8521,-137.2174 1435.6661,-103.5418 1311.0146,-89.9101"/>
<polygon fill="#191970" stroke="#191970" points="1260.5038,-396.3653 1251.8657,-402.4999 1262.444,-403.091 1260.5038,-396.3653"/>
</g>
<!-- Node42 -->
<g id="node14" class="node">
<title>Node42</title>
<g id="a_node14"><a xlink:href="_osmap_8h.html" target="_top" xlink:title="/home/alejandro/Desarrollo\l eclipse/os1/include/Osmap.h">
<polygon fill="#ffffff" stroke="#000000" points="896,-134.5 896,-164.5 1042,-164.5 1042,-134.5 896,-134.5"/>
<text text-anchor="start" x="904" y="-152.5" font-family="Helvetica,sans-Serif" font-size="10.00" fill="#000000">/home/alejandro/Desarrollo</text>
<text text-anchor="middle" x="969" y="-141.5" font-family="Helvetica,sans-Serif" font-size="10.00" fill="#000000"> eclipse/os1/include/Osmap.h</text>
</a>
</g>
</g>
<!-- Node29&#45;&gt;Node42 -->
<g id="edge60" class="edge">
<title>Node29&#45;&gt;Node42</title>
<path fill="none" stroke="#191970" d="M1180.1732,-394.1975C1161.0432,-370.4195 1130.6581,-332.3746 1105,-299 1071.8976,-255.9423 1069.5289,-240.2596 1032,-201 1019.1147,-187.5204 1002.7676,-174.2494 989.9545,-164.5557"/>
<polygon fill="#191970" stroke="#191970" points="1177.6831,-396.6856 1186.6823,-402.2773 1183.1343,-392.2941 1177.6831,-396.6856"/>
</g>
<!-- Node48 -->
<g id="node20" class="node">
<title>Node48</title>
<g id="a_node20"><a xlink:href="_o_r_bmatcher_8h.html" target="_top" xlink:title="/home/alejandro/Desarrollo\l eclipse/os1/include/ORBmatcher.h">
<polygon fill="#ffffff" stroke="#000000" points="1113.5,-268.5 1113.5,-298.5 1284.5,-298.5 1284.5,-268.5 1113.5,-268.5"/>
<text text-anchor="start" x="1121.5" y="-286.5" font-family="Helvetica,sans-Serif" font-size="10.00" fill="#000000">/home/alejandro/Desarrollo</text>
<text text-anchor="middle" x="1199" y="-275.5" font-family="Helvetica,sans-Serif" font-size="10.00" fill="#000000"> eclipse/os1/include/ORBmatcher.h</text>
</a>
</g>
</g>
<!-- Node29&#45;&gt;Node48 -->
<g id="edge59" class="edge">
<title>Node29&#45;&gt;Node48</title>
<path fill="none" stroke="#191970" d="M1199,-392.3415C1199,-364.8131 1199,-321.5714 1199,-298.7614"/>
<polygon fill="#191970" stroke="#191970" points="1195.5001,-392.3889 1199,-402.389 1202.5001,-392.389 1195.5001,-392.3889"/>
</g>
<!-- Node49 -->
<g id="node21" class="node">
<title>Node49</title>
<g id="a_node21"><a xlink:href="_frame_8cc.html" target="_top" xlink:title="/home/alejandro/Desarrollo\l eclipse/os1/src/Frame.cc">
<polygon fill="#ffffff" stroke="#000000" points="1578.5,-201.5 1578.5,-231.5 1711.5,-231.5 1711.5,-201.5 1578.5,-201.5"/>
<text text-anchor="start" x="1586.5" y="-219.5" font-family="Helvetica,sans-Serif" font-size="10.00" fill="#000000">/home/alejandro/Desarrollo</text>
<text text-anchor="middle" x="1645" y="-208.5" font-family="Helvetica,sans-Serif" font-size="10.00" fill="#000000"> eclipse/os1/src/Frame.cc</text>
</a>
</g>
</g>
<!-- Node29&#45;&gt;Node49 -->
<g id="edge62" class="edge">
<title>Node29&#45;&gt;Node49</title>
<path fill="none" stroke="#191970" d="M1241.735,-398.2405C1330.2422,-358.3527 1531.9768,-267.4365 1611.6969,-231.5088"/>
<polygon fill="#191970" stroke="#191970" points="1240.2013,-395.0926 1232.5225,-402.3923 1243.0775,-401.4745 1240.2013,-395.0926"/>
</g>
<!-- Node50 -->
<g id="node22" class="node">
<title>Node50</title>
<g id="a_node22"><a xlink:href="_key_frame_8cc.html" target="_top" xlink:title="/home/alejandro/Desarrollo\l eclipse/os1/src/KeyFrame.cc">
<polygon fill="#ffffff" stroke="#000000" points="875.5,-201.5 875.5,-231.5 1022.5,-231.5 1022.5,-201.5 875.5,-201.5"/>
<text text-anchor="start" x="883.5" y="-219.5" font-family="Helvetica,sans-Serif" font-size="10.00" fill="#000000">/home/alejandro/Desarrollo</text>
<text text-anchor="middle" x="949" y="-208.5" font-family="Helvetica,sans-Serif" font-size="10.00" fill="#000000"> eclipse/os1/src/KeyFrame.cc</text>
</a>
</g>
</g>
<!-- Node29&#45;&gt;Node50 -->
<g id="edge63" class="edge">
<title>Node29&#45;&gt;Node50</title>
<path fill="none" stroke="#191970" d="M1118.0755,-404.0814C1090.2161,-396.4369 1060.2182,-384.5193 1037,-366 991.087,-329.3788 964.0606,-261.8055 953.7877,-231.6819"/>
<polygon fill="#191970" stroke="#191970" points="1117.2673,-407.4875 1127.8259,-406.6109 1119.0252,-400.7118 1117.2673,-407.4875"/>
</g>
<!-- Node54 -->
<g id="node26" class="node">
<title>Node54</title>
<g id="a_node26"><a xlink:href="_pn_psolver_8h.html" target="_top" xlink:title="/home/alejandro/Desarrollo\l eclipse/os1/include/PnPsolver.h">
<polygon fill="#ffffff" stroke="#000000" points="1855.5,-268.5 1855.5,-298.5 2014.5,-298.5 2014.5,-268.5 1855.5,-268.5"/>
<text text-anchor="start" x="1863.5" y="-286.5" font-family="Helvetica,sans-Serif" font-size="10.00" fill="#000000">/home/alejandro/Desarrollo</text>
<text text-anchor="middle" x="1935" y="-275.5" font-family="Helvetica,sans-Serif" font-size="10.00" fill="#000000"> eclipse/os1/include/PnPsolver.h</text>
</a>
</g>
</g>
<!-- Node29&#45;&gt;Node54 -->
<g id="edge61" class="edge">
<title>Node29&#45;&gt;Node54</title>
<path fill="none" stroke="#191970" d="M1280.3902,-414.0534C1403.2533,-408.0389 1629.8321,-393.5548 1706,-366 1729.1832,-357.6131 1729.6285,-345.3594 1752,-335 1786.592,-318.9817 1827.2208,-306.9343 1861.3979,-298.5353"/>
<polygon fill="#191970" stroke="#191970" points="1280.0997,-410.5632 1270.2798,-414.5407 1280.4367,-417.5551 1280.0997,-410.5632"/>
</g>
<!-- Node57 -->
<g id="node29" class="node">
<title>Node57</title>
<g id="a_node29"><a xlink:href="_initializer_8h.html" target="_top" xlink:title="/home/alejandro/Desarrollo\l eclipse/os1/include/Initializer.h">
<polygon fill="#ffffff" stroke="#000000" points="1684.5,-268.5 1684.5,-298.5 1837.5,-298.5 1837.5,-268.5 1684.5,-268.5"/>
<text text-anchor="start" x="1692.5" y="-286.5" font-family="Helvetica,sans-Serif" font-size="10.00" fill="#000000">/home/alejandro/Desarrollo</text>
<text text-anchor="middle" x="1761" y="-275.5" font-family="Helvetica,sans-Serif" font-size="10.00" fill="#000000"> eclipse/os1/include/Initializer.h</text>
</a>
</g>
</g>
<!-- Node29&#45;&gt;Node57 -->
<g id="edge53" class="edge">
<title>Node29&#45;&gt;Node57</title>
<path fill="none" stroke="#191970" d="M1280.4402,-414.6339C1396.3529,-409.5369 1602.3674,-396.4203 1670,-366 1703.8395,-350.7794 1733.7182,-318.1364 1749.3872,-298.786"/>
<polygon fill="#191970" stroke="#191970" points="1280.0382,-411.1478 1270.1976,-415.0737 1280.3386,-418.1414 1280.0382,-411.1478"/>
</g>
<!-- Node58 -->
<g id="node30" class="node">
<title>Node58</title>
<g id="a_node30"><a xlink:href="_key_frame_database_8cc.html" target="_top" xlink:title="/home/alejandro/Desarrollo\l eclipse/os1/src/KeyFrameDatabase.cc">
<polygon fill="#ffffff" stroke="#000000" points="1760.5,-335.5 1760.5,-365.5 1949.5,-365.5 1949.5,-335.5 1760.5,-335.5"/>
<text text-anchor="start" x="1768.5" y="-353.5" font-family="Helvetica,sans-Serif" font-size="10.00" fill="#000000">/home/alejandro/Desarrollo</text>
<text text-anchor="middle" x="1855" y="-342.5" font-family="Helvetica,sans-Serif" font-size="10.00" fill="#000000"> eclipse/os1/src/KeyFrameDatabase.cc</text>
</a>
</g>
</g>
<!-- Node29&#45;&gt;Node58 -->
<g id="edge64" class="edge">
<title>Node29&#45;&gt;Node58</title>
<path fill="none" stroke="#191970" d="M1280.4354,-411.0454C1387.4134,-402.2885 1581.0495,-385.4821 1746,-366 1750.6506,-365.4507 1755.4094,-364.8646 1760.2131,-364.2538"/>
<polygon fill="#191970" stroke="#191970" points="1280.0394,-407.5659 1270.3571,-411.8675 1280.6086,-414.5428 1280.0394,-407.5659"/>
</g>
<!-- Node30&#45;&gt;Node29 -->
<g id="edge2" class="edge">
<title>Node30&#45;&gt;Node29</title>
<path fill="none" stroke="#191970" d="M807.855,-362.0546C899.9231,-374.6456 1042.69,-394.6222 1127.9317,-406.8466"/>
<polygon fill="#191970" stroke="#191970" points="808.1019,-358.5559 797.7203,-360.6706 807.1547,-365.4916 808.1019,-358.5559"/>
</g>
<!-- Node31 -->
<g id="node3" class="node">
<title>Node31</title>
<g id="a_node3"><a xlink:href="_map_drawer_8h.html" target="_top" xlink:title="/home/alejandro/Desarrollo\l eclipse/os1/include/MapDrawer.h">
<polygon fill="#ffffff" stroke="#000000" points="193,-268.5 193,-298.5 357,-298.5 357,-268.5 193,-268.5"/>
<text text-anchor="start" x="201" y="-286.5" font-family="Helvetica,sans-Serif" font-size="10.00" fill="#000000">/home/alejandro/Desarrollo</text>
<text text-anchor="middle" x="275" y="-275.5" font-family="Helvetica,sans-Serif" font-size="10.00" fill="#000000"> eclipse/os1/include/MapDrawer.h</text>
</a>
</g>
</g>
<!-- Node30&#45;&gt;Node31 -->
<g id="edge3" class="edge">
<title>Node30&#45;&gt;Node31</title>
<path fill="none" stroke="#191970" d="M632.4501,-337.3183C552.5862,-325.2939 435.4442,-307.6568 357.2764,-295.8877"/>
<polygon fill="#191970" stroke="#191970" points="632.0772,-340.8016 642.4869,-338.8295 633.1195,-333.8796 632.0772,-340.8016"/>
</g>
<!-- Node30&#45;&gt;Node37 -->
<g id="edge33" class="edge">
<title>Node30&#45;&gt;Node37</title>
<path fill="none" stroke="#191970" d="M707.7092,-325.7065C693.3831,-292.8415 675.32,-235.048 706,-201 757.6,-143.7355 976.6034,-185.1725 1051,-165 1109.2603,-149.2028 1172.4024,-116.767 1206.8754,-97.6086"/>
<polygon fill="#191970" stroke="#191970" points="704.6392,-327.4095 711.9772,-335.0518 711.0066,-324.5015 704.6392,-327.4095"/>
</g>
<!-- Node30&#45;&gt;Node42 -->
<g id="edge44" class="edge">
<title>Node30&#45;&gt;Node42</title>
<path fill="none" stroke="#191970" d="M692.344,-328.2089C684.2002,-319.9865 676.3199,-309.9709 672,-299 656.042,-258.4731 643.8593,-234.2444 672,-201 703.2983,-164.0253 839.3085,-173.4992 887,-165 889.8527,-164.4916 892.7601,-163.9681 895.6964,-163.4348"/>
<polygon fill="#191970" stroke="#191970" points="690.1227,-330.9248 699.8026,-335.232 694.9215,-325.8285 690.1227,-330.9248"/>
</g>
<!-- Node45 -->
<g id="node17" class="node">
<title>Node45</title>
<g id="a_node17"><a xlink:href="_frame_drawer_8cc.html" target="_top" xlink:title="/home/alejandro/Desarrollo\l eclipse/os1/src/FrameDrawer.cc">
<polygon fill="#ffffff" stroke="#000000" points="716.5,-134.5 716.5,-164.5 877.5,-164.5 877.5,-134.5 716.5,-134.5"/>
<text text-anchor="start" x="724.5" y="-152.5" font-family="Helvetica,sans-Serif" font-size="10.00" fill="#000000">/home/alejandro/Desarrollo</text>
<text text-anchor="middle" x="797" y="-141.5" font-family="Helvetica,sans-Serif" font-size="10.00" fill="#000000"> eclipse/os1/src/FrameDrawer.cc</text>
</a>
</g>
</g>
<!-- Node30&#45;&gt;Node45 -->
<g id="edge48" class="edge">
<title>Node30&#45;&gt;Node45</title>
<path fill="none" stroke="#191970" d="M667.8919,-330.6564C654.4767,-322.9012 641.6725,-312.5376 634,-299 612.524,-261.1071 608.2556,-236.1328 634,-201 644.9196,-186.0983 683.7701,-173.5103 720.8017,-164.5101"/>
<polygon fill="#191970" stroke="#191970" points="666.278,-333.7623 676.7481,-335.3832 669.574,-327.5868 666.278,-333.7623"/>
</g>
<!-- Node47 -->
<g id="node19" class="node">
<title>Node47</title>
<g id="a_node19"><a xlink:href="_map_drawer_8cc.html" target="_top" xlink:title="/home/alejandro/Desarrollo\l eclipse/os1/src/MapDrawer.cc">
<polygon fill="#ffffff" stroke="#000000" points="0,-201.5 0,-231.5 152,-231.5 152,-201.5 0,-201.5"/>
<text text-anchor="start" x="8" y="-219.5" font-family="Helvetica,sans-Serif" font-size="10.00" fill="#000000">/home/alejandro/Desarrollo</text>
<text text-anchor="middle" x="76" y="-208.5" font-family="Helvetica,sans-Serif" font-size="10.00" fill="#000000"> eclipse/os1/src/MapDrawer.cc</text>
</a>
</g>
</g>
<!-- Node30&#45;&gt;Node47 -->
<g id="edge51" class="edge">
<title>Node30&#45;&gt;Node47</title>
<path fill="none" stroke="#191970" d="M632.0554,-347.8952C501.5089,-343.0448 263.3241,-330.1379 184,-299 145.5645,-283.9125 109.2091,-250.9002 90.0508,-231.52"/>
<polygon fill="#191970" stroke="#191970" points="632.2988,-351.4063 642.4193,-348.2718 632.553,-344.4109 632.2988,-351.4063"/>
</g>
<!-- Node30&#45;&gt;Node48 -->
<g id="edge34" class="edge">
<title>Node30&#45;&gt;Node48</title>
<path fill="none" stroke="#191970" d="M807.8666,-338.2097C894.8035,-326.0494 1027.0194,-307.5557 1113.2222,-295.4982"/>
<polygon fill="#191970" stroke="#191970" points="807.1774,-334.7719 797.7587,-339.6235 808.1471,-341.7044 807.1774,-334.7719"/>
</g>
<!-- Node30&#45;&gt;Node50 -->
<g id="edge49" class="edge">
<title>Node30&#45;&gt;Node50</title>
<path fill="none" stroke="#191970" d="M754.6003,-330.2536C800.9097,-303.1555 881.9888,-255.7118 923.2703,-231.5558"/>
<polygon fill="#191970" stroke="#191970" points="752.6874,-327.3177 745.8241,-335.389 756.2227,-333.3593 752.6874,-327.3177"/>
</g>
<!-- Node51 -->
<g id="node23" class="node">
<title>Node51</title>
<g id="a_node23"><a xlink:href="_map_point_8cc.html" target="_top" xlink:title="/home/alejandro/Desarrollo\l eclipse/os1/src/MapPoint.cc">
<polygon fill="#ffffff" stroke="#000000" points="714.5,-201.5 714.5,-231.5 857.5,-231.5 857.5,-201.5 714.5,-201.5"/>
<text text-anchor="start" x="722.5" y="-219.5" font-family="Helvetica,sans-Serif" font-size="10.00" fill="#000000">/home/alejandro/Desarrollo</text>
<text text-anchor="middle" x="786" y="-208.5" font-family="Helvetica,sans-Serif" font-size="10.00" fill="#000000"> eclipse/os1/src/MapPoint.cc</text>
</a>
</g>
</g>
<!-- Node30&#45;&gt;Node51 -->
<g id="edge52" class="edge">
<title>Node30&#45;&gt;Node51</title>
<path fill="none" stroke="#191970" d="M732.0334,-326.0686C745.5725,-298.58 767.149,-254.7732 778.4832,-231.7614"/>
<polygon fill="#191970" stroke="#191970" points="728.7215,-324.8716 727.4427,-335.389 735.0011,-327.9646 728.7215,-324.8716"/>
</g>
<!-- Node30&#45;&gt;Node54 -->
<g id="edge45" class="edge">
<title>Node30&#45;&gt;Node54</title>
<path fill="none" stroke="#191970" d="M808.1365,-347.9413C1036.9736,-341.0623 1646.1595,-321.1833 1847,-299 1849.7755,-298.6934 1852.5957,-298.3534 1855.4406,-297.986"/>
<polygon fill="#191970" stroke="#191970" points="807.7483,-344.4513 797.8576,-348.2493 807.958,-351.4481 807.7483,-344.4513"/>
</g>
<!-- Node56 -->
<g id="node28" class="node">
<title>Node56</title>
<g id="a_node28"><a xlink:href="_map_8cc.html" target="_top" xlink:title="/home/alejandro/Desarrollo\l eclipse/os1/src/Map.cc">
<polygon fill="#ffffff" stroke="#000000" points="448.5,-268.5 448.5,-298.5 581.5,-298.5 581.5,-268.5 448.5,-268.5"/>
<text text-anchor="start" x="456.5" y="-286.5" font-family="Helvetica,sans-Serif" font-size="10.00" fill="#000000">/home/alejandro/Desarrollo</text>
<text text-anchor="middle" x="515" y="-275.5" font-family="Helvetica,sans-Serif" font-size="10.00" fill="#000000"> eclipse/os1/src/Map.cc</text>
</a>
</g>
</g>
<!-- Node30&#45;&gt;Node56 -->
<g id="edge50" class="edge">
<title>Node30&#45;&gt;Node56</title>
<path fill="none" stroke="#191970" d="M664.2397,-332.2759C631.9311,-321.7165 591.7388,-308.5805 561.2067,-298.6017"/>
<polygon fill="#191970" stroke="#191970" points="663.4014,-335.6841 673.994,-335.4639 665.5761,-329.0304 663.4014,-335.6841"/>
</g>
<!-- Node31&#45;&gt;Node32 -->
<g id="edge4" class="edge">
<title>Node31&#45;&gt;Node32</title>
<path fill="none" stroke="#191970" d="M336.8928,-265.5484C373.4569,-254.9432 419.2319,-241.6665 453.933,-231.6017"/>
<polygon fill="#191970" stroke="#191970" points="335.4701,-262.3167 326.8409,-268.4639 337.4201,-269.0397 335.4701,-262.3167"/>
</g>
<!-- Node36 -->
<g id="node8" class="node">
<title>Node36</title>
<g id="a_node8"><a xlink:href="_system_8cc.html" target="_top" xlink:title="/home/alejandro/Desarrollo\l eclipse/os1/src/System.cc">
<polygon fill="#ffffff" stroke="#000000" points="360,-.5 360,-30.5 496,-30.5 496,-.5 360,-.5"/>
<text text-anchor="start" x="368" y="-18.5" font-family="Helvetica,sans-Serif" font-size="10.00" fill="#000000">/home/alejandro/Desarrollo</text>
<text text-anchor="middle" x="428" y="-7.5" font-family="Helvetica,sans-Serif" font-size="10.00" fill="#000000"> eclipse/os1/src/System.cc</text>
</a>
</g>
</g>
<!-- Node31&#45;&gt;Node36 -->
<g id="edge31" class="edge">
<title>Node31&#45;&gt;Node36</title>
<path fill="none" stroke="#191970" d="M249.3871,-261.1954C218.4362,-231.4438 173.6001,-177.4736 200,-134 234.5011,-77.1857 306.0782,-46.3637 359.8848,-30.5238"/>
<polygon fill="#191970" stroke="#191970" points="247.2076,-263.949 256.905,-268.2165 251.9854,-258.833 247.2076,-263.949"/>
</g>
<!-- Node46 -->
<g id="node18" class="node">
<title>Node46</title>
<g id="a_node18"><a xlink:href="_viewer_8cc.html" target="_top" xlink:title="/home/alejandro/Desarrollo\l eclipse/os1/src/Viewer.cc">
<polygon fill="#ffffff" stroke="#000000" points="208.5,-134.5 208.5,-164.5 341.5,-164.5 341.5,-134.5 208.5,-134.5"/>
<text text-anchor="start" x="216.5" y="-152.5" font-family="Helvetica,sans-Serif" font-size="10.00" fill="#000000">/home/alejandro/Desarrollo</text>
<text text-anchor="middle" x="275" y="-141.5" font-family="Helvetica,sans-Serif" font-size="10.00" fill="#000000"> eclipse/os1/src/Viewer.cc</text>
</a>
</g>
</g>
<!-- Node31&#45;&gt;Node46 -->
<g id="edge32" class="edge">
<title>Node31&#45;&gt;Node46</title>
<path fill="none" stroke="#191970" d="M275,-258.3415C275,-230.8131 275,-187.5714 275,-164.7614"/>
<polygon fill="#191970" stroke="#191970" points="271.5001,-258.3889 275,-268.389 278.5001,-258.389 271.5001,-258.3889"/>
</g>
<!-- Node31&#45;&gt;Node47 -->
<g id="edge30" class="edge">
<title>Node31&#45;&gt;Node47</title>
<path fill="none" stroke="#191970" d="M220.4658,-265.1392C189.1726,-254.6033 150.365,-241.5375 120.8543,-231.6017"/>
<polygon fill="#191970" stroke="#191970" points="219.7464,-268.59 230.3405,-268.4639 221.9801,-261.9559 219.7464,-268.59"/>
</g>
<!-- Node33 -->
<g id="node5" class="node">
<title>Node33</title>
<g id="a_node5"><a xlink:href="_loop_closing_8h.html" target="_top" xlink:title="/home/alejandro/Desarrollo\l eclipse/os1/include/LoopClosing.h">
<polygon fill="#ffffff" stroke="#000000" points="454,-134.5 454,-164.5 622,-164.5 622,-134.5 454,-134.5"/>
<text text-anchor="start" x="462" y="-152.5" font-family="Helvetica,sans-Serif" font-size="10.00" fill="#000000">/home/alejandro/Desarrollo</text>
<text text-anchor="middle" x="538" y="-141.5" font-family="Helvetica,sans-Serif" font-size="10.00" fill="#000000"> eclipse/os1/include/LoopClosing.h</text>
</a>
</g>
</g>
<!-- Node32&#45;&gt;Node33 -->
<g id="edge5" class="edge">
<title>Node32&#45;&gt;Node33</title>
<path fill="none" stroke="#191970" d="M511.2147,-191.9021C515.1226,-182.7696 520.1989,-172.6854 525.0139,-164.6432"/>
<polygon fill="#191970" stroke="#191970" points="507.9224,-190.7102 507.5005,-201.2967 514.4321,-193.2839 507.9224,-190.7102"/>
</g>
<!-- Node34 -->
<g id="node6" class="node">
<title>Node34</title>
<g id="a_node6"><a xlink:href="_local_mapping_8h.html" target="_top" xlink:title="/home/alejandro/Desarrollo\l eclipse/os1/include/LocalMapping.h">
<polygon fill="#ffffff" stroke="#000000" points="398,-67.5 398,-97.5 572,-97.5 572,-67.5 398,-67.5"/>
<text text-anchor="start" x="406" y="-85.5" font-family="Helvetica,sans-Serif" font-size="10.00" fill="#000000">/home/alejandro/Desarrollo</text>
<text text-anchor="middle" x="485" y="-74.5" font-family="Helvetica,sans-Serif" font-size="10.00" fill="#000000"> eclipse/os1/include/LocalMapping.h</text>
</a>
</g>
</g>
<!-- Node32&#45;&gt;Node34 -->
<g id="edge21" class="edge">
<title>Node32&#45;&gt;Node34</title>
<path fill="none" stroke="#191970" d="M462.4855,-195.5431C451.672,-187.4165 441.6295,-177.1203 436,-165 425.0033,-141.3243 444.5122,-114.125 462.3206,-97.6333"/>
<polygon fill="#191970" stroke="#191970" points="460.6302,-198.5155 470.8446,-201.329 464.6141,-192.7597 460.6302,-198.5155"/>
</g>
<!-- Node32&#45;&gt;Node36 -->
<g id="edge27" class="edge">
<title>Node32&#45;&gt;Node36</title>
<path fill="none" stroke="#191970" d="M472.2387,-195.714C442.7997,-175.1869 402.7218,-140.7146 389,-98 384.7861,-84.8825 384.6127,-80.0606 389,-67 393.6427,-53.1789 403.6272,-40.1144 412.3311,-30.6021"/>
<polygon fill="#191970" stroke="#191970" points="470.3668,-198.6733 480.6101,-201.3797 474.2902,-192.8762 470.3668,-198.6733"/>
</g>
<!-- Node41 -->
<g id="node13" class="node">
<title>Node41</title>
<g id="a_node13"><a xlink:href="_tracking_8cc.html" target="_top" xlink:title="/home/alejandro/Desarrollo\l eclipse/os1/src/Tracking.cc">
<polygon fill="#ffffff" stroke="#000000" points="1670,-.5 1670,-30.5 1810,-30.5 1810,-.5 1670,-.5"/>
<text text-anchor="start" x="1678" y="-18.5" font-family="Helvetica,sans-Serif" font-size="10.00" fill="#000000">/home/alejandro/Desarrollo</text>
<text text-anchor="middle" x="1740" y="-7.5" font-family="Helvetica,sans-Serif" font-size="10.00" fill="#000000"> eclipse/os1/src/Tracking.cc</text>
</a>
</g>
</g>
<!-- Node32&#45;&gt;Node41 -->
<g id="edge28" class="edge">
<title>Node32&#45;&gt;Node41</title>
<path fill="none" stroke="#191970" d="M578.4259,-198.6027C606.5801,-190.2683 638.5884,-179.0492 666,-165 686.6468,-154.4179 686.1845,-141.8965 708,-134 836.1013,-87.6314 1184.851,-115.1686 1320,-98 1448.0844,-81.7289 1595.7766,-49.541 1677.4587,-30.5374"/>
<polygon fill="#191970" stroke="#191970" points="577.2771,-195.2914 568.642,-201.4302 579.2206,-202.0162 577.2771,-195.2914"/>
</g>
<!-- Node32&#45;&gt;Node42 -->
<g id="edge22" class="edge">
<title>Node32&#45;&gt;Node42</title>
<path fill="none" stroke="#191970" d="M592.2523,-206.1518C669.5991,-196.5604 786.1081,-181.3428 887,-165 889.8604,-164.5367 892.7743,-164.0511 895.7159,-163.5497"/>
<polygon fill="#191970" stroke="#191970" points="591.5713,-202.7092 582.076,-207.4092 592.4298,-209.6564 591.5713,-202.7092"/>
</g>
<!-- Node43 -->
<g id="node15" class="node">
<title>Node43</title>
<g id="a_node15"><a xlink:href="main_8cc.html" target="_top" xlink:title="/home/alejandro/Desarrollo\l eclipse/os1/src/main.cc">
<polygon fill="#ffffff" stroke="#000000" points="743.5,-67.5 743.5,-97.5 876.5,-97.5 876.5,-67.5 743.5,-67.5"/>
<text text-anchor="start" x="751.5" y="-85.5" font-family="Helvetica,sans-Serif" font-size="10.00" fill="#000000">/home/alejandro/Desarrollo</text>
<text text-anchor="middle" x="810" y="-74.5" font-family="Helvetica,sans-Serif" font-size="10.00" fill="#000000"> eclipse/os1/src/main.cc</text>
</a>
</g>
</g>
<!-- Node32&#45;&gt;Node43 -->
<g id="edge26" class="edge">
<title>Node32&#45;&gt;Node43</title>
<path fill="none" stroke="#191970" d="M558.8896,-197.871C581.6497,-189.0567 608.2079,-177.6809 631,-165 651.5878,-153.5455 653.2493,-145.1566 674,-134 701.6851,-119.1151 734.6082,-106.5275 761.1265,-97.5233"/>
<polygon fill="#191970" stroke="#191970" points="557.49,-194.6587 549.3899,-201.4881 559.9808,-201.2006 557.49,-194.6587"/>
</g>
<!-- Node32&#45;&gt;Node45 -->
<g id="edge25" class="edge">
<title>Node32&#45;&gt;Node45</title>
<path fill="none" stroke="#191970" d="M581.3424,-199.1531C627.9098,-188.4314 687.0822,-174.8075 731.6606,-164.5438"/>
<polygon fill="#191970" stroke="#191970" points="580.2658,-195.8093 571.3061,-201.4639 581.8364,-202.6309 580.2658,-195.8093"/>
</g>
<!-- Node32&#45;&gt;Node46 -->
<g id="edge29" class="edge">
<title>Node32&#45;&gt;Node46</title>
<path fill="none" stroke="#191970" d="M444.1072,-198.5484C407.5431,-187.9432 361.7681,-174.6665 327.067,-164.6017"/>
<polygon fill="#191970" stroke="#191970" points="443.5799,-202.0397 454.1591,-201.4639 445.5299,-195.3167 443.5799,-202.0397"/>
</g>
<!-- Node33&#45;&gt;Node32 -->
<g id="edge11" class="edge">
<title>Node33&#45;&gt;Node32</title>
<path fill="none" stroke="#191970" d="M532.8145,-174.0296C528.9124,-183.1574 523.8384,-193.2443 519.0221,-201.2967"/>
<polygon fill="#191970" stroke="#191970" points="536.1035,-175.2298 536.521,-164.6432 529.5928,-172.6588 536.1035,-175.2298"/>
</g>
<!-- Node33&#45;&gt;Node34 -->
<g id="edge6" class="edge">
<title>Node33&#45;&gt;Node34</title>
<path fill="none" stroke="#191970" d="M513.4776,-126.6385C505.3249,-117.0653 496.9571,-106.1987 491.2254,-97.6432"/>
<polygon fill="#191970" stroke="#191970" points="510.9804,-129.0989 520.2127,-134.2967 516.2369,-124.4761 510.9804,-129.0989"/>
</g>
<!-- Node35 -->
<g id="node7" class="node">
<title>Node35</title>
<g id="a_node7"><a xlink:href="_local_mapping_8cc.html" target="_top" xlink:title="/home/alejandro/Desarrollo\l eclipse/os1/src/LocalMapping.cc">
<polygon fill="#ffffff" stroke="#000000" points="685,-.5 685,-30.5 847,-30.5 847,-.5 685,-.5"/>
<text text-anchor="start" x="693" y="-18.5" font-family="Helvetica,sans-Serif" font-size="10.00" fill="#000000">/home/alejandro/Desarrollo</text>
<text text-anchor="middle" x="766" y="-7.5" font-family="Helvetica,sans-Serif" font-size="10.00" fill="#000000"> eclipse/os1/src/LocalMapping.cc</text>
</a>
</g>
</g>
<!-- Node33&#45;&gt;Node35 -->
<g id="edge18" class="edge">
<title>Node33&#45;&gt;Node35</title>
<path fill="none" stroke="#191970" d="M572.4492,-129.2536C618.5564,-102.1555 699.2814,-54.7118 740.3827,-30.5558"/>
<polygon fill="#191970" stroke="#191970" points="570.5592,-126.3046 563.7113,-134.389 574.106,-132.3395 570.5592,-126.3046"/>
</g>
<!-- Node33&#45;&gt;Node36 -->
<g id="edge20" class="edge">
<title>Node33&#45;&gt;Node36</title>
<path fill="none" stroke="#191970" d="M563.0096,-127.0826C579.0945,-109.9013 594.649,-85.9958 581,-67 570.4924,-52.3763 531.9841,-39.4576 496.2325,-30.2168"/>
<polygon fill="#191970" stroke="#191970" points="560.2457,-124.8988 555.6849,-134.4618 565.2138,-129.8302 560.2457,-124.8988"/>
</g>
<!-- Node33&#45;&gt;Node37 -->
<g id="edge12" class="edge">
<title>Node33&#45;&gt;Node37</title>
<path fill="none" stroke="#191970" d="M632.2522,-138.4907C646.2434,-136.934 660.4945,-135.3916 674,-134 845.3526,-116.3442 1046.5629,-98.5189 1154.7189,-89.1745"/>
<polygon fill="#191970" stroke="#191970" points="631.6731,-135.0336 622.1247,-139.6248 632.4521,-141.9901 631.6731,-135.0336"/>
</g>
<!-- Node39 -->
<g id="node11" class="node">
<title>Node39</title>
<g id="a_node11"><a xlink:href="_loop_closing_8cc.html" target="_top" xlink:title="/home/alejandro/Desarrollo\l eclipse/os1/src/LoopClosing.cc">
<polygon fill="#ffffff" stroke="#000000" points="1018,-.5 1018,-30.5 1174,-30.5 1174,-.5 1018,-.5"/>
<text text-anchor="start" x="1026" y="-18.5" font-family="Helvetica,sans-Serif" font-size="10.00" fill="#000000">/home/alejandro/Desarrollo</text>
<text text-anchor="middle" x="1096" y="-7.5" font-family="Helvetica,sans-Serif" font-size="10.00" fill="#000000"> eclipse/os1/src/LoopClosing.cc</text>
</a>
</g>
</g>
<!-- Node33&#45;&gt;Node39 -->
<g id="edge19" class="edge">
<title>Node33&#45;&gt;Node39</title>
<path fill="none" stroke="#191970" d="M586.1488,-130.6517C610.2242,-121.0943 639.7519,-109.1715 666,-98 696.9343,-84.834 702.7082,-76.3548 735,-67 830.1644,-39.4312 943.8891,-26.3229 1017.9162,-20.2979"/>
<polygon fill="#191970" stroke="#191970" points="584.5405,-127.524 576.5309,-134.4592 587.1172,-134.0325 584.5405,-127.524"/>
</g>
<!-- Node34&#45;&gt;Node32 -->
<g id="edge8" class="edge">
<title>Node34&#45;&gt;Node32</title>
<path fill="none" stroke="#191970" d="M469.4608,-105.6385C457.3926,-122.1222 444.6357,-144.8386 454,-165 461.0645,-180.2098 475.0785,-192.5469 486.9439,-201.329"/>
<polygon fill="#191970" stroke="#191970" points="472.2894,-107.7015 475.5881,-97.6333 466.7307,-103.4469 472.2894,-107.7015"/>
</g>
<!-- Node34&#45;&gt;Node33 -->
<g id="edge7" class="edge">
<title>Node34&#45;&gt;Node33</title>
<path fill="none" stroke="#191970" d="M509.4651,-105.2943C517.6168,-114.8614 525.9902,-125.7303 531.7343,-134.2967"/>
<polygon fill="#191970" stroke="#191970" points="511.9662,-102.8383 502.7325,-97.6432 506.711,-107.4626 511.9662,-102.8383"/>
</g>
<!-- Node34&#45;&gt;Node35 -->
<g id="edge9" class="edge">
<title>Node34&#45;&gt;Node35</title>
<path fill="none" stroke="#191970" d="M558.0185,-65.0899C602.8603,-54.3981 659.7293,-40.8386 702.6631,-30.6017"/>
<polygon fill="#191970" stroke="#191970" points="556.9774,-61.7399 548.0619,-67.4639 558.601,-68.5491 556.9774,-61.7399"/>
</g>
<!-- Node34&#45;&gt;Node36 -->
<g id="edge10" class="edge">
<title>Node34&#45;&gt;Node36</title>
<path fill="none" stroke="#191970" d="M465.5506,-59.6385C457.4063,-50.0653 448.1616,-39.1987 440.883,-30.6432"/>
<polygon fill="#191970" stroke="#191970" points="462.9202,-61.948 472.0658,-67.2967 468.2518,-57.4121 462.9202,-61.948"/>
</g>
<!-- Node37&#45;&gt;Node35 -->
<g id="edge14" class="edge">
<title>Node37&#45;&gt;Node35</title>
<path fill="none" stroke="#191970" d="M1144.8742,-69.8567C1059.2573,-57.5733 930.3365,-39.0772 847.167,-27.1449"/>
<polygon fill="#191970" stroke="#191970" points="1144.439,-73.33 1154.8347,-71.2857 1145.4331,-66.4009 1144.439,-73.33"/>
</g>
<!-- Node38 -->
<g id="node10" class="node">
<title>Node38</title>
<g id="a_node10"><a xlink:href="_initializer_8cc.html" target="_top" xlink:title="/home/alejandro/Desarrollo\l eclipse/os1/src/Initializer.cc">
<polygon fill="#ffffff" stroke="#000000" points="1441.5,-.5 1441.5,-30.5 1582.5,-30.5 1582.5,-.5 1441.5,-.5"/>
<text text-anchor="start" x="1449.5" y="-18.5" font-family="Helvetica,sans-Serif" font-size="10.00" fill="#000000">/home/alejandro/Desarrollo</text>
<text text-anchor="middle" x="1512" y="-7.5" font-family="Helvetica,sans-Serif" font-size="10.00" fill="#000000"> eclipse/os1/src/Initializer.cc</text>
</a>
</g>
</g>
<!-- Node37&#45;&gt;Node38 -->
<g id="edge13" class="edge">
<title>Node37&#45;&gt;Node38</title>
<path fill="none" stroke="#191970" d="M1305.4988,-65.0899C1350.0214,-54.3981 1406.4857,-40.8386 1449.1139,-30.6017"/>
<polygon fill="#191970" stroke="#191970" points="1304.5193,-61.7255 1295.613,-67.4639 1306.1539,-68.532 1304.5193,-61.7255"/>
</g>
<!-- Node37&#45;&gt;Node39 -->
<g id="edge15" class="edge">
<title>Node37&#45;&gt;Node39</title>
<path fill="none" stroke="#191970" d="M1193.2328,-63.0518C1172.1816,-52.7567 1146.7086,-40.2991 1127.1169,-30.7177"/>
<polygon fill="#191970" stroke="#191970" points="1191.7336,-66.2147 1202.2545,-67.4639 1194.8089,-59.9264 1191.7336,-66.2147"/>
</g>
<!-- Node40 -->
<g id="node12" class="node">
<title>Node40</title>
<g id="a_node12"><a xlink:href="_optimizer_8cc.html" target="_top" xlink:title="/home/alejandro/Desarrollo\l eclipse/os1/src/Optimizer.cc">
<polygon fill="#ffffff" stroke="#000000" points="1192,-.5 1192,-30.5 1336,-30.5 1336,-.5 1192,-.5"/>
<text text-anchor="start" x="1200" y="-18.5" font-family="Helvetica,sans-Serif" font-size="10.00" fill="#000000">/home/alejandro/Desarrollo</text>
<text text-anchor="middle" x="1264" y="-7.5" font-family="Helvetica,sans-Serif" font-size="10.00" fill="#000000"> eclipse/os1/src/Optimizer.cc</text>
</a>
</g>
</g>
<!-- Node37&#45;&gt;Node40 -->
<g id="edge16" class="edge">
<title>Node37&#45;&gt;Node40</title>
<path fill="none" stroke="#191970" d="M1244.2464,-58.1932C1248.5072,-48.9844 1253.2328,-38.771 1256.9935,-30.6432"/>
<polygon fill="#191970" stroke="#191970" points="1241.0571,-56.7513 1240.0344,-67.2967 1247.4101,-59.6908 1241.0571,-56.7513"/>
</g>
<!-- Node37&#45;&gt;Node41 -->
<g id="edge17" class="edge">
<title>Node37&#45;&gt;Node41</title>
<path fill="none" stroke="#191970" d="M1321.1872,-67.5632C1322.4664,-67.3724 1323.7379,-67.1845 1325,-67 1445.8664,-49.3273 1587.1175,-32.6393 1669.7507,-23.2753"/>
<polygon fill="#191970" stroke="#191970" points="1320.6183,-64.1094 1311.2603,-69.0771 1321.6737,-71.0294 1320.6183,-64.1094"/>
</g>
<!-- Node42&#45;&gt;Node43 -->
<g id="edge23" class="edge">
<title>Node42&#45;&gt;Node43</title>
<path fill="none" stroke="#191970" d="M923.7955,-130.4516C899.0855,-120.0392 868.9069,-107.3224 845.8383,-97.6017"/>
<polygon fill="#191970" stroke="#191970" points="922.7429,-133.806 933.3173,-134.4639 925.4612,-127.3553 922.7429,-133.806"/>
</g>
<!-- Node44 -->
<g id="node16" class="node">
<title>Node44</title>
<g id="a_node16"><a xlink:href="_osmap_8cpp.html" target="_top" xlink:title="/home/alejandro/Desarrollo\l eclipse/os1/src/Osmap.cpp">
<polygon fill="#ffffff" stroke="#000000" points="899.5,-67.5 899.5,-97.5 1038.5,-97.5 1038.5,-67.5 899.5,-67.5"/>
<text text-anchor="start" x="907.5" y="-85.5" font-family="Helvetica,sans-Serif" font-size="10.00" fill="#000000">/home/alejandro/Desarrollo</text>
<text text-anchor="middle" x="969" y="-74.5" font-family="Helvetica,sans-Serif" font-size="10.00" fill="#000000"> eclipse/os1/src/Osmap.cpp</text>
</a>
</g>
</g>
<!-- Node42&#45;&gt;Node44 -->
<g id="edge24" class="edge">
<title>Node42&#45;&gt;Node44</title>
<path fill="none" stroke="#191970" d="M969,-124.0249C969,-115.128 969,-105.4287 969,-97.6432"/>
<polygon fill="#191970" stroke="#191970" points="965.5001,-124.2966 969,-134.2967 972.5001,-124.2967 965.5001,-124.2966"/>
</g>
<!-- Node48&#45;&gt;Node35 -->
<g id="edge38" class="edge">
<title>Node48&#45;&gt;Node35</title>
<path fill="none" stroke="#191970" d="M1162.9605,-262.9395C1150.4388,-254.5313 1137.034,-243.9561 1127,-232 1074.7329,-169.7207 1112.6053,-116.3632 1048,-67 1017.1049,-43.3939 918.8704,-29.4186 847.0072,-22.1117"/>
<polygon fill="#191970" stroke="#191970" points="1161.135,-265.9269 1171.436,-268.4047 1164.9285,-260.0439 1161.135,-265.9269"/>
</g>
<!-- Node48&#45;&gt;Node38 -->
<g id="edge36" class="edge">
<title>Node48&#45;&gt;Node38</title>
<path fill="none" stroke="#191970" d="M1294.5774,-279.0804C1369.9765,-273.4379 1466.6794,-260.6838 1493,-232 1545.4235,-174.8696 1525.926,-69.9515 1516.1936,-30.7811"/>
<polygon fill="#191970" stroke="#191970" points="1294.283,-275.5924 1284.5587,-279.7982 1294.7833,-282.5745 1294.283,-275.5924"/>
</g>
<!-- Node48&#45;&gt;Node39 -->
<g id="edge39" class="edge">
<title>Node48&#45;&gt;Node39</title>
<path fill="none" stroke="#191970" d="M1170.9626,-261.8859C1161.7663,-253.4792 1152.3008,-243.1761 1146,-232 1107.5417,-163.7845 1098.6359,-67.6195 1096.5967,-30.7249"/>
<polygon fill="#191970" stroke="#191970" points="1168.7051,-264.561 1178.5488,-268.4791 1173.2969,-259.2775 1168.7051,-264.561"/>
</g>
<!-- Node48&#45;&gt;Node41 -->
<g id="edge43" class="edge">
<title>Node48&#45;&gt;Node41</title>
<path fill="none" stroke="#191970" d="M1294.6903,-274.3099C1373.4682,-265.5857 1478.1193,-250.9908 1516,-232 1616.0818,-181.8257 1700.7691,-71.2398 1729.5218,-30.7443"/>
<polygon fill="#191970" stroke="#191970" points="1294.2927,-270.8324 1284.7316,-275.397 1295.0523,-277.7911 1294.2927,-270.8324"/>
</g>
<!-- Node48&#45;&gt;Node49 -->
<g id="edge35" class="edge">
<title>Node48&#45;&gt;Node49</title>
<path fill="none" stroke="#191970" d="M1294.9257,-271.2687C1368.6537,-261.5526 1472.9552,-247.1248 1564,-232 1568.6609,-231.2257 1573.4662,-230.3935 1578.3011,-229.5311"/>
<polygon fill="#191970" stroke="#191970" points="1294.1888,-267.8354 1284.7299,-272.608 1295.1005,-274.7757 1294.1888,-267.8354"/>
</g>
<!-- Node48&#45;&gt;Node50 -->
<g id="edge37" class="edge">
<title>Node48&#45;&gt;Node50</title>
<path fill="none" stroke="#191970" d="M1133.0289,-265.8198C1093.2926,-255.1704 1043.2259,-241.7525 1005.3496,-231.6017"/>
<polygon fill="#191970" stroke="#191970" points="1132.3299,-269.2559 1142.8951,-268.4639 1134.142,-262.4945 1132.3299,-269.2559"/>
</g>
<!-- Node48&#45;&gt;Node51 -->
<g id="edge40" class="edge">
<title>Node48&#45;&gt;Node51</title>
<path fill="none" stroke="#191970" d="M1103.1939,-269.5503C1036.7978,-259.6596 946.403,-245.7513 867,-232 863.8963,-231.4625 860.7279,-230.9029 857.5287,-230.329"/>
<polygon fill="#191970" stroke="#191970" points="1102.8188,-273.0329 1113.2248,-271.0412 1103.848,-266.109 1102.8188,-273.0329"/>
</g>
<!-- Node52 -->
<g id="node24" class="node">
<title>Node52</title>
<g id="a_node24"><a xlink:href="_o_r_bmatcher_8cc.html" target="_top" xlink:title="/home/alejandro/Desarrollo\l eclipse/os1/src/ORBmatcher.cc">
<polygon fill="#ffffff" stroke="#000000" points="1154.5,-201.5 1154.5,-231.5 1313.5,-231.5 1313.5,-201.5 1154.5,-201.5"/>
<text text-anchor="start" x="1162.5" y="-219.5" font-family="Helvetica,sans-Serif" font-size="10.00" fill="#000000">/home/alejandro/Desarrollo</text>
<text text-anchor="middle" x="1234" y="-208.5" font-family="Helvetica,sans-Serif" font-size="10.00" fill="#000000"> eclipse/os1/src/ORBmatcher.cc</text>
</a>
</g>
</g>
<!-- Node48&#45;&gt;Node52 -->
<g id="edge41" class="edge">
<title>Node48&#45;&gt;Node52</title>
<path fill="none" stroke="#191970" d="M1211.6976,-259.1932C1216.5082,-249.9844 1221.8435,-239.771 1226.0894,-231.6432"/>
<polygon fill="#191970" stroke="#191970" points="1208.47,-257.8126 1206.942,-268.2967 1214.6745,-261.0537 1208.47,-257.8126"/>
</g>
<!-- Node53 -->
<g id="node25" class="node">
<title>Node53</title>
<g id="a_node25"><a xlink:href="_sim3_solver_8cc.html" target="_top" xlink:title="/home/alejandro/Desarrollo\l eclipse/os1/src/Sim3Solver.cc">
<polygon fill="#ffffff" stroke="#000000" points="1332,-201.5 1332,-231.5 1484,-231.5 1484,-201.5 1332,-201.5"/>
<text text-anchor="start" x="1340" y="-219.5" font-family="Helvetica,sans-Serif" font-size="10.00" fill="#000000">/home/alejandro/Desarrollo</text>
<text text-anchor="middle" x="1408" y="-208.5" font-family="Helvetica,sans-Serif" font-size="10.00" fill="#000000"> eclipse/os1/src/Sim3Solver.cc</text>
</a>
</g>
</g>
<!-- Node48&#45;&gt;Node53 -->
<g id="edge42" class="edge">
<title>Node48&#45;&gt;Node53</title>
<path fill="none" stroke="#191970" d="M1255.8483,-265.2759C1288.7873,-254.7165 1329.7639,-241.5805 1360.8917,-231.6017"/>
<polygon fill="#191970" stroke="#191970" points="1254.3579,-262.0782 1245.9037,-268.4639 1256.4948,-268.744 1254.3579,-262.0782"/>
</g>
<!-- Node54&#45;&gt;Node41 -->
<g id="edge47" class="edge">
<title>Node54&#45;&gt;Node41</title>
<path fill="none" stroke="#191970" d="M1973.3523,-262.6919C1984.3317,-254.6618 1994.9545,-244.3855 2001,-232 2007.0436,-219.6185 2007.3189,-213.2433 2001,-201 1954.5977,-111.0924 1842.2559,-55.2645 1781.1855,-30.5014"/>
<polygon fill="#191970" stroke="#191970" points="1971.2636,-259.8795 1964.9566,-268.3925 1975.1958,-265.6707 1971.2636,-259.8795"/>
</g>
<!-- Node55 -->
<g id="node27" class="node">
<title>Node55</title>
<g id="a_node27"><a xlink:href="_pn_psolver_8cc.html" target="_top" xlink:title="/home/alejandro/Desarrollo\l eclipse/os1/src/PnPsolver.cc">
<polygon fill="#ffffff" stroke="#000000" points="1844.5,-201.5 1844.5,-231.5 1991.5,-231.5 1991.5,-201.5 1844.5,-201.5"/>
<text text-anchor="start" x="1852.5" y="-219.5" font-family="Helvetica,sans-Serif" font-size="10.00" fill="#000000">/home/alejandro/Desarrollo</text>
<text text-anchor="middle" x="1918" y="-208.5" font-family="Helvetica,sans-Serif" font-size="10.00" fill="#000000"> eclipse/os1/src/PnPsolver.cc</text>
</a>
</g>
</g>
<!-- Node54&#45;&gt;Node55 -->
<g id="edge46" class="edge">
<title>Node54&#45;&gt;Node55</title>
<path fill="none" stroke="#191970" d="M1928.6105,-258.3179C1926.3329,-249.3414 1923.8394,-239.5143 1921.8423,-231.6432"/>
<polygon fill="#191970" stroke="#191970" points="1925.2905,-259.4646 1931.1424,-268.2967 1932.0755,-257.743 1925.2905,-259.4646"/>
</g>
<!-- Node57&#45;&gt;Node32 -->
<g id="edge54" class="edge">
<title>Node57&#45;&gt;Node32</title>
<path fill="none" stroke="#191970" d="M1673.9489,-280.0931C1493.4008,-272.8412 1065.0564,-254.6725 706,-232 665.1604,-229.4212 619.6769,-225.9443 582.4161,-222.937"/>
<polygon fill="#191970" stroke="#191970" points="1674.049,-283.5998 1684.1811,-280.503 1674.3293,-276.6054 1674.049,-283.5998"/>
</g>
<!-- Node57&#45;&gt;Node38 -->
<g id="edge55" class="edge">
<title>Node57&#45;&gt;Node38</title>
<path fill="none" stroke="#191970" d="M1761.6358,-258.1837C1761.3812,-241.5801 1759.7549,-219.5853 1754,-201 1743.8739,-168.2981 1740.0817,-158.3315 1716,-134 1667.5957,-85.0936 1594.8665,-49.3432 1550.5849,-30.5437"/>
<polygon fill="#191970" stroke="#191970" points="1758.1359,-258.2256 1761.6347,-268.226 1765.1359,-258.2265 1758.1359,-258.2256"/>
</g>
<!-- Node57&#45;&gt;Node41 -->
<g id="edge56" class="edge">
<title>Node57&#45;&gt;Node41</title>
<path fill="none" stroke="#191970" d="M1778.8959,-259.8497C1784.1908,-251.497 1789.2927,-241.7472 1792,-232 1803.6564,-190.0332 1800.9414,-176.6279 1792,-134 1783.7443,-94.6414 1761.6105,-52.3879 1749.0426,-30.5305"/>
<polygon fill="#191970" stroke="#191970" points="1775.8842,-258.0552 1773.1789,-268.2988 1781.6818,-261.9781 1775.8842,-258.0552"/>
</g>
</g>
</svg>
