<?xml version="1.0" encoding="UTF-8" standalone="no"?>
<!DOCTYPE svg PUBLIC "-//W3C//DTD SVG 1.1//EN"
 "http://www.w3.org/Graphics/SVG/1.1/DTD/svg11.dtd">
<!-- Generated by graphviz version 2.38.0 (20140413.2041)
 -->
<!-- Title: /home/alejandro/Desarrollo eclipse/os1/include/Frame.h Pages: 1 -->
<svg width="1697pt" height="531pt"
 viewBox="0.00 0.00 1696.50 531.00" xmlns="http://www.w3.org/2000/svg" xmlns:xlink="http://www.w3.org/1999/xlink">
<g id="graph0" class="graph" transform="scale(1 1) rotate(0) translate(4 527)">
<title>/home/alejandro/Desarrollo eclipse/os1/include/Frame.h</title>
<polygon fill="white" stroke="none" points="-4,4 -4,-527 1692.5,-527 1692.5,4 -4,4"/>
<!-- Node0 -->
<g id="node1" class="node"><title>Node0</title>
<polygon fill="#bfbfbf" stroke="black" points="969,-492.5 969,-522.5 1111,-522.5 1111,-492.5 969,-492.5"/>
<text text-anchor="start" x="977" y="-510.5" font-family="Helvetica,sans-Serif" font-size="10.00">/home/alejandro/Desarrollo</text>
<text text-anchor="middle" x="1040" y="-499.5" font-family="Helvetica,sans-Serif" font-size="10.00"> eclipse/os1/include/Frame.h</text>
</g>
<!-- Node1 -->
<g id="node2" class="node"><title>Node1</title>
<polygon fill="white" stroke="#bfbfbf" points="398,-0.5 398,-19.5 442,-19.5 442,-0.5 398,-0.5"/>
<text text-anchor="middle" x="420" y="-7.5" font-family="Helvetica,sans-Serif" font-size="10.00">vector</text>
</g>
<!-- Node0&#45;&gt;Node1 -->
<g id="edge1" class="edge"><title>Node0&#45;&gt;Node1</title>
<path fill="none" stroke="midnightblue" d="M968.926,-506.079C734.404,-503.761 0,-488.702 0,-391 0,-391 0,-391 0,-137.5 0,-98.0789 3.39838,-79.5661 35,-56 90.5009,-14.6116 305.503,-10.6845 387.751,-10.7371"/>
<polygon fill="midnightblue" stroke="midnightblue" points="387.99,-14.2377 398,-10.7652 388.01,-7.23768 387.99,-14.2377"/>
</g>
<!-- Node2 -->
<g id="node3" class="node"><title>Node2</title>
<g id="a_node3"><a xlink:href="_map_point_8h.html" target="_top" xlink:title="MapPoint.h">
<polygon fill="white" stroke="black" points="1175,-436.5 1175,-455.5 1241,-455.5 1241,-436.5 1175,-436.5"/>
<text text-anchor="middle" x="1208" y="-443.5" font-family="Helvetica,sans-Serif" font-size="10.00">MapPoint.h</text>
</a>
</g>
</g>
<!-- Node0&#45;&gt;Node2 -->
<g id="edge2" class="edge"><title>Node0&#45;&gt;Node2</title>
<path fill="none" stroke="midnightblue" d="M1073.97,-492.399C1101.56,-482.163 1140.33,-468.47 1169.15,-458.808"/>
<polygon fill="midnightblue" stroke="midnightblue" points="1170.5,-462.046 1178.89,-455.571 1168.3,-455.403 1170.5,-462.046"/>
</g>
<!-- Node4 -->
<g id="node5" class="node"><title>Node4</title>
<g id="a_node5"><a xlink:href="_bow_vector_8h.html" target="_top" xlink:title="../Thirdparty/DBoW2\l/DBoW2/BowVector.h">
<polygon fill="white" stroke="black" points="1041.5,-56.5 1041.5,-86.5 1154.5,-86.5 1154.5,-56.5 1041.5,-56.5"/>
<text text-anchor="start" x="1049.5" y="-74.5" font-family="Helvetica,sans-Serif" font-size="10.00">../Thirdparty/DBoW2</text>
<text text-anchor="middle" x="1098" y="-63.5" font-family="Helvetica,sans-Serif" font-size="10.00">/DBoW2/BowVector.h</text>
</a>
</g>
</g>
<!-- Node0&#45;&gt;Node4 -->
<g id="edge58" class="edge"><title>Node0&#45;&gt;Node4</title>
<path fill="none" stroke="midnightblue" d="M968.971,-503.557C838.52,-496.203 574,-471.381 574,-391 574,-391 574,-391 574,-204.5 574,-162.686 585.946,-145.795 621,-123 687.073,-80.033 916.22,-72.9966 1031.16,-72.2473"/>
<polygon fill="midnightblue" stroke="midnightblue" points="1031.27,-75.7469 1041.25,-72.1958 1031.23,-68.747 1031.27,-75.7469"/>
</g>
<!-- Node7 -->
<g id="node8" class="node"><title>Node7</title>
<g id="a_node8"><a xlink:href="_feature_vector_8h.html" target="_top" xlink:title="../Thirdparty/DBoW2\l/DBoW2/FeatureVector.h">
<polygon fill="white" stroke="black" points="1157.5,-123.5 1157.5,-153.5 1284.5,-153.5 1284.5,-123.5 1157.5,-123.5"/>
<text text-anchor="start" x="1165.5" y="-141.5" font-family="Helvetica,sans-Serif" font-size="10.00">../Thirdparty/DBoW2</text>
<text text-anchor="middle" x="1221" y="-130.5" font-family="Helvetica,sans-Serif" font-size="10.00">/DBoW2/FeatureVector.h</text>
</a>
</g>
</g>
<!-- Node0&#45;&gt;Node7 -->
<g id="edge59" class="edge"><title>Node0&#45;&gt;Node7</title>
<path fill="none" stroke="midnightblue" d="M1111.06,-505.192C1251.91,-500.667 1553,-480.523 1553,-391 1553,-391 1553,-391 1553,-266 1553,-211.063 1392.25,-171.331 1294.46,-152.243"/>
<polygon fill="midnightblue" stroke="midnightblue" points="1295.1,-148.802 1284.62,-150.35 1293.78,-155.676 1295.1,-148.802"/>
</g>
<!-- Node8 -->
<g id="node9" class="node"><title>Node8</title>
<g id="a_node9"><a xlink:href="_o_r_b_vocabulary_8h.html" target="_top" xlink:title="ORBVocabulary.h">
<polygon fill="white" stroke="black" points="854.5,-257.5 854.5,-276.5 949.5,-276.5 949.5,-257.5 854.5,-257.5"/>
<text text-anchor="middle" x="902" y="-264.5" font-family="Helvetica,sans-Serif" font-size="10.00">ORBVocabulary.h</text>
</a>
</g>
</g>
<!-- Node0&#45;&gt;Node8 -->
<g id="edge60" class="edge"><title>Node0&#45;&gt;Node8</title>
<path fill="none" stroke="midnightblue" d="M1025.39,-492.377C998.966,-465.927 943.452,-405.973 916,-344 907.867,-325.64 904.459,-302.77 903.03,-286.94"/>
<polygon fill="midnightblue" stroke="midnightblue" points="906.511,-286.544 902.301,-276.822 899.529,-287.048 906.511,-286.544"/>
</g>
<!-- Node29 -->
<g id="node30" class="node"><title>Node29</title>
<g id="a_node30"><a xlink:href="_o_r_bextractor_8h.html" target="_top" xlink:title="ORBextractor.h">
<polygon fill="white" stroke="black" points="247.5,-319 247.5,-338 332.5,-338 332.5,-319 247.5,-319"/>
<text text-anchor="middle" x="290" y="-326" font-family="Helvetica,sans-Serif" font-size="10.00">ORBextractor.h</text>
</a>
</g>
</g>
<!-- Node0&#45;&gt;Node29 -->
<g id="edge61" class="edge"><title>Node0&#45;&gt;Node29</title>
<path fill="none" stroke="midnightblue" d="M968.675,-506.342C873.7,-504.483 701.267,-495.323 560,-456 463.161,-429.044 357.88,-370.196 312.685,-343.349"/>
<polygon fill="midnightblue" stroke="midnightblue" points="314.354,-340.269 303.977,-338.129 310.754,-346.273 314.354,-340.269"/>
</g>
<!-- Node30 -->
<g id="node31" class="node"><title>Node30</title>
<polygon fill="white" stroke="#bfbfbf" points="1581.5,-436.5 1581.5,-455.5 1688.5,-455.5 1688.5,-436.5 1581.5,-436.5"/>
<text text-anchor="middle" x="1635" y="-443.5" font-family="Helvetica,sans-Serif" font-size="10.00">opencv2/opencv.hpp</text>
</g>
<!-- Node0&#45;&gt;Node30 -->
<g id="edge65" class="edge"><title>Node0&#45;&gt;Node30</title>
<path fill="none" stroke="midnightblue" d="M1111.26,-500.492C1212.63,-491.76 1404.22,-474.565 1567,-456 1568.3,-455.852 1569.61,-455.7 1570.93,-455.545"/>
<polygon fill="midnightblue" stroke="midnightblue" points="1571.69,-458.978 1581.2,-454.303 1570.85,-452.029 1571.69,-458.978"/>
</g>
<!-- Node2&#45;&gt;Node0 -->
<g id="edge47" class="edge"><title>Node2&#45;&gt;Node0</title>
<path fill="none" stroke="midnightblue" d="M1188.48,-455.658C1165.72,-464.385 1127.42,-478.099 1095.37,-489.086"/>
<polygon fill="midnightblue" stroke="midnightblue" points="1093.99,-485.86 1085.65,-492.399 1096.25,-492.486 1093.99,-485.86"/>
</g>
<!-- Node3 -->
<g id="node4" class="node"><title>Node3</title>
<g id="a_node4"><a xlink:href="_key_frame_8h.html" target="_top" xlink:title="KeyFrame.h">
<polygon fill="white" stroke="black" points="1141,-380.5 1141,-399.5 1211,-399.5 1211,-380.5 1141,-380.5"/>
<text text-anchor="middle" x="1176" y="-387.5" font-family="Helvetica,sans-Serif" font-size="10.00">KeyFrame.h</text>
</a>
</g>
</g>
<!-- Node2&#45;&gt;Node3 -->
<g id="edge3" class="edge"><title>Node2&#45;&gt;Node3</title>
<path fill="none" stroke="midnightblue" d="M1202.72,-436.083C1198.29,-428.613 1191.84,-417.724 1186.38,-408.52"/>
<polygon fill="midnightblue" stroke="midnightblue" points="1189.29,-406.57 1181.19,-399.751 1183.27,-410.138 1189.29,-406.57"/>
</g>
<!-- Node10 -->
<g id="node11" class="node"><title>Node10</title>
<polygon fill="white" stroke="#bfbfbf" points="66,-62 66,-81 182,-81 182,-62 66,-62"/>
<text text-anchor="middle" x="124" y="-69" font-family="Helvetica,sans-Serif" font-size="10.00">opencv2/core/core.hpp</text>
</g>
<!-- Node2&#45;&gt;Node10 -->
<g id="edge55" class="edge"><title>Node2&#45;&gt;Node10</title>
<path fill="none" stroke="midnightblue" d="M1174.84,-443.513C1045.29,-436.5 563.585,-399.128 221,-221 181.636,-200.533 170.38,-191.707 147,-154 134.925,-134.525 129.028,-108.555 126.262,-91.2163"/>
<polygon fill="midnightblue" stroke="midnightblue" points="129.716,-90.6423 124.863,-81.2242 122.783,-91.6129 129.716,-90.6423"/>
</g>
<!-- Node25 -->
<g id="node26" class="node"><title>Node25</title>
<polygon fill="white" stroke="#bfbfbf" points="1325,-257.5 1325,-276.5 1369,-276.5 1369,-257.5 1325,-257.5"/>
<text text-anchor="middle" x="1347" y="-264.5" font-family="Helvetica,sans-Serif" font-size="10.00">mutex</text>
</g>
<!-- Node2&#45;&gt;Node25 -->
<g id="edge56" class="edge"><title>Node2&#45;&gt;Node25</title>
<path fill="none" stroke="midnightblue" d="M1241.06,-444.244C1300.53,-440.846 1423.98,-423.997 1474,-344 1481.3,-332.318 1481.95,-324.252 1474,-313 1452.75,-282.923 1409.6,-272.821 1379.53,-269.5"/>
<polygon fill="midnightblue" stroke="midnightblue" points="1379.77,-266.008 1369.5,-268.587 1379.14,-272.979 1379.77,-266.008"/>
</g>
<!-- Node26 -->
<g id="node27" class="node"><title>Node26</title>
<g id="a_node27"><a xlink:href="_serializer_8h.html" target="_top" xlink:title="Serializer.h">
<polygon fill="white" stroke="black" points="1383.5,-319 1383.5,-338 1448.5,-338 1448.5,-319 1383.5,-319"/>
<text text-anchor="middle" x="1416" y="-326" font-family="Helvetica,sans-Serif" font-size="10.00">Serializer.h</text>
</a>
</g>
</g>
<!-- Node2&#45;&gt;Node26 -->
<g id="edge54" class="edge"><title>Node2&#45;&gt;Node26</title>
<path fill="none" stroke="midnightblue" d="M1240.97,-436.468C1266.78,-428.993 1303.04,-416.706 1332,-400 1358.12,-384.933 1384.08,-361.522 1400.07,-345.861"/>
<polygon fill="midnightblue" stroke="midnightblue" points="1402.87,-348.006 1407.47,-338.462 1397.93,-343.055 1402.87,-348.006"/>
</g>
<!-- Node27 -->
<g id="node28" class="node"><title>Node27</title>
<polygon fill="white" stroke="#bfbfbf" points="1231.5,-313.5 1231.5,-343.5 1326.5,-343.5 1326.5,-313.5 1231.5,-313.5"/>
<text text-anchor="start" x="1239.5" y="-331.5" font-family="Helvetica,sans-Serif" font-size="10.00">boost/serialization</text>
<text text-anchor="middle" x="1279" y="-320.5" font-family="Helvetica,sans-Serif" font-size="10.00">/access.hpp</text>
</g>
<!-- Node2&#45;&gt;Node27 -->
<g id="edge57" class="edge"><title>Node2&#45;&gt;Node27</title>
<path fill="none" stroke="midnightblue" d="M1213.34,-436.319C1224.19,-418.657 1249.16,-378.039 1264.99,-352.289"/>
<polygon fill="midnightblue" stroke="midnightblue" points="1268.11,-353.897 1270.37,-343.545 1262.15,-350.232 1268.11,-353.897"/>
</g>
<!-- Node28 -->
<g id="node29" class="node"><title>Node28</title>
<g id="a_node29"><a xlink:href="_map_8h.html" target="_top" xlink:title="Map.h">
<polygon fill="white" stroke="black" points="1279,-380.5 1279,-399.5 1323,-399.5 1323,-380.5 1279,-380.5"/>
<text text-anchor="middle" x="1301" y="-387.5" font-family="Helvetica,sans-Serif" font-size="10.00">Map.h</text>
</a>
</g>
</g>
<!-- Node2&#45;&gt;Node28 -->
<g id="edge48" class="edge"><title>Node2&#45;&gt;Node28</title>
<path fill="none" stroke="midnightblue" d="M1222.94,-436.324C1237.59,-427.822 1260.13,-414.729 1277.24,-404.797"/>
<polygon fill="midnightblue" stroke="midnightblue" points="1279.2,-407.703 1286.1,-399.655 1275.69,-401.649 1279.2,-407.703"/>
</g>
<!-- Node3&#45;&gt;Node4 -->
<g id="edge4" class="edge"><title>Node3&#45;&gt;Node4</title>
<path fill="none" stroke="midnightblue" d="M1173.83,-380.205C1163.6,-338.687 1119.96,-161.625 1103.94,-96.5867"/>
<polygon fill="midnightblue" stroke="midnightblue" points="1107.32,-95.6809 1101.53,-86.8089 1100.52,-97.3559 1107.32,-95.6809"/>
</g>
<!-- Node3&#45;&gt;Node7 -->
<g id="edge8" class="edge"><title>Node3&#45;&gt;Node7</title>
<path fill="none" stroke="midnightblue" d="M1177.55,-380.412C1183.75,-346.021 1206.93,-217.512 1216.66,-163.573"/>
<polygon fill="midnightblue" stroke="midnightblue" points="1220.14,-164.005 1218.47,-153.542 1213.25,-162.762 1220.14,-164.005"/>
</g>
<!-- Node3&#45;&gt;Node8 -->
<g id="edge13" class="edge"><title>Node3&#45;&gt;Node8</title>
<path fill="none" stroke="midnightblue" d="M1140.55,-385.727C1083.81,-379.899 975.834,-366.206 945,-344 925.44,-329.913 913.59,-304.007 907.418,-286.398"/>
<polygon fill="midnightblue" stroke="midnightblue" points="910.687,-285.131 904.29,-276.686 904.024,-287.277 910.687,-285.131"/>
</g>
<!-- Node22 -->
<g id="node23" class="node"><title>Node22</title>
<g id="a_node23"><a xlink:href="_key_frame_database_8h.html" target="_top" xlink:title="KeyFrameDatabase.h">
<polygon fill="white" stroke="black" points="987,-319 987,-338 1099,-338 1099,-319 987,-319"/>
<text text-anchor="middle" x="1043" y="-326" font-family="Helvetica,sans-Serif" font-size="10.00">KeyFrameDatabase.h</text>
</a>
</g>
</g>
<!-- Node3&#45;&gt;Node22 -->
<g id="edge38" class="edge"><title>Node3&#45;&gt;Node22</title>
<path fill="none" stroke="midnightblue" d="M1156.94,-380.475C1134.53,-370.445 1097.09,-353.7 1071.29,-342.155"/>
<polygon fill="midnightblue" stroke="midnightblue" points="1072.58,-338.898 1062.02,-338.009 1069.72,-345.288 1072.58,-338.898"/>
</g>
<!-- Node3&#45;&gt;Node25 -->
<g id="edge45" class="edge"><title>Node3&#45;&gt;Node25</title>
<path fill="none" stroke="midnightblue" d="M1178.98,-380.398C1184.82,-364.782 1199.21,-331.661 1222,-313 1248.94,-290.943 1287.58,-279.252 1314.74,-273.371"/>
<polygon fill="midnightblue" stroke="midnightblue" points="1315.79,-276.73 1324.9,-271.325 1314.41,-269.868 1315.79,-276.73"/>
</g>
<!-- Node3&#45;&gt;Node26 -->
<g id="edge44" class="edge"><title>Node3&#45;&gt;Node26</title>
<path fill="none" stroke="midnightblue" d="M1210.39,-380.475C1253.37,-369.818 1326.95,-351.577 1373.44,-340.05"/>
<polygon fill="midnightblue" stroke="midnightblue" points="1374.35,-343.431 1383.22,-337.627 1372.67,-336.636 1374.35,-343.431"/>
</g>
<!-- Node3&#45;&gt;Node27 -->
<g id="edge46" class="edge"><title>Node3&#45;&gt;Node27</title>
<path fill="none" stroke="midnightblue" d="M1190.76,-380.475C1205.1,-372.191 1227.37,-359.325 1245.95,-348.591"/>
<polygon fill="midnightblue" stroke="midnightblue" points="1247.82,-351.556 1254.72,-343.523 1244.32,-345.494 1247.82,-351.556"/>
</g>
<!-- Node4&#45;&gt;Node1 -->
<g id="edge7" class="edge"><title>Node4&#45;&gt;Node1</title>
<path fill="none" stroke="midnightblue" d="M1041.14,-58.2242C1036.37,-57.3963 1031.61,-56.6391 1027,-56 808.737,-25.7477 543.31,-14.9224 452.367,-11.9476"/>
<polygon fill="midnightblue" stroke="midnightblue" points="452.262,-8.44263 442.156,-11.623 452.04,-15.4391 452.262,-8.44263"/>
</g>
<!-- Node5 -->
<g id="node6" class="node"><title>Node5</title>
<polygon fill="white" stroke="#bfbfbf" points="1095,-0.5 1095,-19.5 1149,-19.5 1149,-0.5 1095,-0.5"/>
<text text-anchor="middle" x="1122" y="-7.5" font-family="Helvetica,sans-Serif" font-size="10.00">iostream</text>
</g>
<!-- Node4&#45;&gt;Node5 -->
<g id="edge5" class="edge"><title>Node4&#45;&gt;Node5</title>
<path fill="none" stroke="midnightblue" d="M1103.69,-56.3993C1107,-48.1989 1111.2,-37.7809 1114.74,-28.9936"/>
<polygon fill="midnightblue" stroke="midnightblue" points="1118.01,-30.2411 1118.51,-19.6578 1111.52,-27.6225 1118.01,-30.2411"/>
</g>
<!-- Node6 -->
<g id="node7" class="node"><title>Node6</title>
<polygon fill="white" stroke="#bfbfbf" points="1216.5,-0.5 1216.5,-19.5 1251.5,-19.5 1251.5,-0.5 1216.5,-0.5"/>
<text text-anchor="middle" x="1234" y="-7.5" font-family="Helvetica,sans-Serif" font-size="10.00">map</text>
</g>
<!-- Node4&#45;&gt;Node6 -->
<g id="edge6" class="edge"><title>Node4&#45;&gt;Node6</title>
<path fill="none" stroke="midnightblue" d="M1130.23,-56.3993C1153.53,-46.2074 1184.65,-32.5898 1206.72,-22.935"/>
<polygon fill="midnightblue" stroke="midnightblue" points="1208.4,-26.0192 1216.16,-18.8044 1205.6,-19.6061 1208.4,-26.0192"/>
</g>
<!-- Node7&#45;&gt;Node1 -->
<g id="edge11" class="edge"><title>Node7&#45;&gt;Node1</title>
<path fill="none" stroke="midnightblue" d="M1215.52,-123.266C1207.32,-104.162 1189.88,-70.909 1163,-56 1100.21,-21.1766 586.523,-12.9018 452.096,-11.3246"/>
<polygon fill="midnightblue" stroke="midnightblue" points="452.064,-7.82416 442.025,-11.2109 451.985,-14.8237 452.064,-7.82416"/>
</g>
<!-- Node7&#45;&gt;Node4 -->
<g id="edge9" class="edge"><title>Node7&#45;&gt;Node4</title>
<path fill="none" stroke="midnightblue" d="M1194.31,-123.396C1176.5,-113.984 1152.88,-101.503 1133.49,-91.2557"/>
<polygon fill="midnightblue" stroke="midnightblue" points="1135.11,-88.1543 1124.64,-86.5765 1131.84,-94.3433 1135.11,-88.1543"/>
</g>
<!-- Node7&#45;&gt;Node5 -->
<g id="edge12" class="edge"><title>Node7&#45;&gt;Node5</title>
<path fill="none" stroke="midnightblue" d="M1219.96,-123.416C1218.02,-105.96 1212.52,-76.0673 1197,-56 1186.1,-41.9106 1169.44,-31.2849 1154.59,-23.9068"/>
<polygon fill="midnightblue" stroke="midnightblue" points="1155.72,-20.5692 1145.17,-19.5236 1152.76,-26.9158 1155.72,-20.5692"/>
</g>
<!-- Node7&#45;&gt;Node6 -->
<g id="edge10" class="edge"><title>Node7&#45;&gt;Node6</title>
<path fill="none" stroke="midnightblue" d="M1226.1,-123.133C1229.37,-113.143 1233.31,-99.4407 1235,-87 1236.86,-73.348 1235.15,-69.7769 1235,-56 1234.9,-47.3961 1234.71,-37.8686 1234.51,-29.8037"/>
<polygon fill="midnightblue" stroke="midnightblue" points="1238.01,-29.5323 1234.25,-19.6259 1231.01,-29.7128 1238.01,-29.5323"/>
</g>
<!-- Node9 -->
<g id="node10" class="node"><title>Node9</title>
<g id="a_node10"><a xlink:href="_f_o_r_b_8h.html" target="_top" xlink:title="../Thirdparty/DBoW2\l/DBoW2/FORB.h">
<polygon fill="white" stroke="black" points="230.5,-190.5 230.5,-220.5 337.5,-220.5 337.5,-190.5 230.5,-190.5"/>
<text text-anchor="start" x="238.5" y="-208.5" font-family="Helvetica,sans-Serif" font-size="10.00">../Thirdparty/DBoW2</text>
<text text-anchor="middle" x="284" y="-197.5" font-family="Helvetica,sans-Serif" font-size="10.00">/DBoW2/FORB.h</text>
</a>
</g>
</g>
<!-- Node8&#45;&gt;Node9 -->
<g id="edge14" class="edge"><title>Node8&#45;&gt;Node9</title>
<path fill="none" stroke="midnightblue" d="M854.277,-261.405C744.126,-250.8 472.085,-224.609 347.795,-212.642"/>
<polygon fill="midnightblue" stroke="midnightblue" points="347.959,-209.142 337.67,-211.667 347.288,-216.11 347.959,-209.142"/>
</g>
<!-- Node13 -->
<g id="node14" class="node"><title>Node13</title>
<g id="a_node14"><a xlink:href="_templated_vocabulary_8h.html" target="_top" xlink:title="../Thirdparty/DBoW2\l/DBoW2/TemplatedVocabulary.h">
<polygon fill="white" stroke="black" points="653,-190.5 653,-220.5 813,-220.5 813,-190.5 653,-190.5"/>
<text text-anchor="start" x="661" y="-208.5" font-family="Helvetica,sans-Serif" font-size="10.00">../Thirdparty/DBoW2</text>
<text text-anchor="middle" x="733" y="-197.5" font-family="Helvetica,sans-Serif" font-size="10.00">/DBoW2/TemplatedVocabulary.h</text>
</a>
</g>
</g>
<!-- Node8&#45;&gt;Node13 -->
<g id="edge22" class="edge"><title>Node8&#45;&gt;Node13</title>
<path fill="none" stroke="midnightblue" d="M877.786,-257.475C852.973,-248.739 813.686,-234.907 782.294,-223.855"/>
<polygon fill="midnightblue" stroke="midnightblue" points="783.425,-220.543 772.83,-220.523 781.1,-227.145 783.425,-220.543"/>
</g>
<!-- Node9&#45;&gt;Node1 -->
<g id="edge16" class="edge"><title>Node9&#45;&gt;Node1</title>
<path fill="none" stroke="midnightblue" d="M269.885,-190.455C261.454,-181.03 251.528,-167.842 247,-154 232.211,-108.794 252.622,-85.4144 290,-56 318.625,-33.4736 359.284,-21.8159 387.478,-16.0721"/>
<polygon fill="midnightblue" stroke="midnightblue" points="388.449,-19.4505 397.623,-14.1499 387.146,-12.5729 388.449,-19.4505"/>
</g>
<!-- Node9&#45;&gt;Node10 -->
<g id="edge15" class="edge"><title>Node9&#45;&gt;Node10</title>
<path fill="none" stroke="midnightblue" d="M239.957,-190.444C218.947,-182.197 194.438,-170.176 176,-154 155.655,-136.152 140.309,-108.453 131.736,-90.394"/>
<polygon fill="midnightblue" stroke="midnightblue" points="134.905,-88.9071 127.583,-81.2496 128.532,-91.8019 134.905,-88.9071"/>
</g>
<!-- Node11 -->
<g id="node12" class="node"><title>Node11</title>
<polygon fill="white" stroke="#bfbfbf" points="319.5,-62 319.5,-81 360.5,-81 360.5,-62 319.5,-62"/>
<text text-anchor="middle" x="340" y="-69" font-family="Helvetica,sans-Serif" font-size="10.00">string</text>
</g>
<!-- Node9&#45;&gt;Node11 -->
<g id="edge17" class="edge"><title>Node9&#45;&gt;Node11</title>
<path fill="none" stroke="midnightblue" d="M296.7,-190.468C304.772,-180.845 314.829,-167.432 321,-154 330.265,-133.834 335.238,-108.717 337.742,-91.7371"/>
<polygon fill="midnightblue" stroke="midnightblue" points="341.263,-91.8153 339.104,-81.4426 334.323,-90.8973 341.263,-91.8153"/>
</g>
<!-- Node12 -->
<g id="node13" class="node"><title>Node12</title>
<g id="a_node13"><a xlink:href="_f_class_8h.html" target="_top" xlink:title="FClass.h">
<polygon fill="white" stroke="black" points="256,-129 256,-148 312,-148 312,-129 256,-129"/>
<text text-anchor="middle" x="284" y="-136" font-family="Helvetica,sans-Serif" font-size="10.00">FClass.h</text>
</a>
</g>
</g>
<!-- Node9&#45;&gt;Node12 -->
<g id="edge18" class="edge"><title>Node9&#45;&gt;Node12</title>
<path fill="none" stroke="midnightblue" d="M284,-190.396C284,-181.064 284,-168.714 284,-158.517"/>
<polygon fill="midnightblue" stroke="midnightblue" points="287.5,-158.195 284,-148.195 280.5,-158.195 287.5,-158.195"/>
</g>
<!-- Node12&#45;&gt;Node1 -->
<g id="edge20" class="edge"><title>Node12&#45;&gt;Node1</title>
<path fill="none" stroke="midnightblue" d="M284.435,-128.694C285.702,-112.318 290.654,-76.949 310,-56 330.456,-33.8498 363.399,-22.3247 387.909,-16.5119"/>
<polygon fill="midnightblue" stroke="midnightblue" points="388.806,-19.8987 397.836,-14.3561 387.321,-13.0581 388.806,-19.8987"/>
</g>
<!-- Node12&#45;&gt;Node10 -->
<g id="edge19" class="edge"><title>Node12&#45;&gt;Node10</title>
<path fill="none" stroke="midnightblue" d="M262.753,-128.869C235.063,-117.619 186.442,-97.8673 154.733,-84.9853"/>
<polygon fill="midnightblue" stroke="midnightblue" points="155.662,-81.5849 145.08,-81.0637 153.027,-88.0701 155.662,-81.5849"/>
</g>
<!-- Node12&#45;&gt;Node11 -->
<g id="edge21" class="edge"><title>Node12&#45;&gt;Node11</title>
<path fill="none" stroke="midnightblue" d="M291.552,-128.734C300.285,-118.598 314.852,-101.69 325.737,-89.0556"/>
<polygon fill="midnightblue" stroke="midnightblue" points="328.692,-90.9879 332.567,-81.1273 323.388,-86.4189 328.692,-90.9879"/>
</g>
<!-- Node13&#45;&gt;Node1 -->
<g id="edge24" class="edge"><title>Node13&#45;&gt;Node1</title>
<path fill="none" stroke="midnightblue" d="M695.426,-190.482C673.062,-181.435 644.548,-168.641 621,-154 562.815,-117.823 558.725,-94.4269 502,-56 484.355,-44.0469 463.25,-32.5226 446.871,-24.1289"/>
<polygon fill="midnightblue" stroke="midnightblue" points="448.339,-20.9495 437.835,-19.569 445.186,-27.1989 448.339,-20.9495"/>
</g>
<!-- Node13&#45;&gt;Node4 -->
<g id="edge32" class="edge"><title>Node13&#45;&gt;Node4</title>
<path fill="none" stroke="midnightblue" d="M691.214,-190.379C653.25,-175.39 606.622,-150.157 631,-123 657.228,-93.7825 908.287,-79.9451 1031.06,-74.8826"/>
<polygon fill="midnightblue" stroke="midnightblue" points="1031.25,-78.3778 1041.1,-74.4763 1030.97,-71.3835 1031.25,-78.3778"/>
</g>
<!-- Node13&#45;&gt;Node7 -->
<g id="edge31" class="edge"><title>Node13&#45;&gt;Node7</title>
<path fill="none" stroke="midnightblue" d="M813.037,-193.839C905.727,-181.493 1057.17,-161.322 1147.15,-149.337"/>
<polygon fill="midnightblue" stroke="midnightblue" points="1147.82,-152.779 1157.27,-147.989 1146.89,-145.84 1147.82,-152.779"/>
</g>
<!-- Node13&#45;&gt;Node10 -->
<g id="edge29" class="edge"><title>Node13&#45;&gt;Node10</title>
<path fill="none" stroke="midnightblue" d="M652.865,-200.813C534.648,-194.591 319.663,-180.061 247,-154 205.093,-138.97 163.397,-106.784 140.94,-87.6642"/>
<polygon fill="midnightblue" stroke="midnightblue" points="143.159,-84.9557 133.314,-81.0389 138.567,-90.2398 143.159,-84.9557"/>
</g>
<!-- Node13&#45;&gt;Node11 -->
<g id="edge27" class="edge"><title>Node13&#45;&gt;Node11</title>
<path fill="none" stroke="midnightblue" d="M652.659,-199.699C567.151,-193.328 438.553,-179.754 397,-154 372.853,-139.034 356.2,-109.641 347.382,-90.5468"/>
<polygon fill="midnightblue" stroke="midnightblue" points="350.494,-88.9262 343.292,-81.1557 344.076,-91.7215 350.494,-88.9262"/>
</g>
<!-- Node14 -->
<g id="node15" class="node"><title>Node14</title>
<polygon fill="white" stroke="#bfbfbf" points="640.5,-129 640.5,-148 689.5,-148 689.5,-129 640.5,-129"/>
<text text-anchor="middle" x="665" y="-136" font-family="Helvetica,sans-Serif" font-size="10.00">cassert</text>
</g>
<!-- Node13&#45;&gt;Node14 -->
<g id="edge23" class="edge"><title>Node13&#45;&gt;Node14</title>
<path fill="none" stroke="midnightblue" d="M718.245,-190.396C707.432,-180.06 692.748,-166.024 681.539,-155.309"/>
<polygon fill="midnightblue" stroke="midnightblue" points="683.743,-152.574 674.096,-148.195 678.906,-157.634 683.743,-152.574"/>
</g>
<!-- Node15 -->
<g id="node16" class="node"><title>Node15</title>
<polygon fill="white" stroke="#bfbfbf" points="707.5,-129 707.5,-148 758.5,-148 758.5,-129 707.5,-129"/>
<text text-anchor="middle" x="733" y="-136" font-family="Helvetica,sans-Serif" font-size="10.00">numeric</text>
</g>
<!-- Node13&#45;&gt;Node15 -->
<g id="edge25" class="edge"><title>Node13&#45;&gt;Node15</title>
<path fill="none" stroke="midnightblue" d="M733,-190.396C733,-181.064 733,-168.714 733,-158.517"/>
<polygon fill="midnightblue" stroke="midnightblue" points="736.5,-158.195 733,-148.195 729.5,-158.195 736.5,-158.195"/>
</g>
<!-- Node16 -->
<g id="node17" class="node"><title>Node16</title>
<polygon fill="white" stroke="#bfbfbf" points="777,-129 777,-148 827,-148 827,-129 777,-129"/>
<text text-anchor="middle" x="802" y="-136" font-family="Helvetica,sans-Serif" font-size="10.00">fstream</text>
</g>
<!-- Node13&#45;&gt;Node16 -->
<g id="edge26" class="edge"><title>Node13&#45;&gt;Node16</title>
<path fill="none" stroke="midnightblue" d="M747.972,-190.396C758.944,-180.06 773.844,-166.024 785.218,-155.309"/>
<polygon fill="midnightblue" stroke="midnightblue" points="787.891,-157.599 792.77,-148.195 783.092,-152.504 787.891,-157.599"/>
</g>
<!-- Node17 -->
<g id="node18" class="node"><title>Node17</title>
<polygon fill="white" stroke="#bfbfbf" points="845,-129 845,-148 901,-148 901,-129 845,-129"/>
<text text-anchor="middle" x="873" y="-136" font-family="Helvetica,sans-Serif" font-size="10.00">algorithm</text>
</g>
<!-- Node13&#45;&gt;Node17 -->
<g id="edge28" class="edge"><title>Node13&#45;&gt;Node17</title>
<path fill="none" stroke="midnightblue" d="M763.378,-190.396C787.834,-179.041 821.911,-163.22 845.552,-152.244"/>
<polygon fill="midnightblue" stroke="midnightblue" points="847.081,-155.393 854.677,-148.007 844.133,-149.044 847.081,-155.393"/>
</g>
<!-- Node18 -->
<g id="node19" class="node"><title>Node18</title>
<polygon fill="white" stroke="#bfbfbf" points="919,-129 919,-148 959,-148 959,-129 919,-129"/>
<text text-anchor="middle" x="939" y="-136" font-family="Helvetica,sans-Serif" font-size="10.00">limits</text>
</g>
<!-- Node13&#45;&gt;Node18 -->
<g id="edge30" class="edge"><title>Node13&#45;&gt;Node18</title>
<path fill="none" stroke="midnightblue" d="M792.501,-190.47C827.281,-181.545 871.728,-168.879 910,-154 911.377,-153.465 912.777,-152.887 914.18,-152.28"/>
<polygon fill="midnightblue" stroke="midnightblue" points="915.711,-155.428 923.286,-148.021 912.745,-149.087 915.711,-155.428"/>
</g>
<!-- Node19 -->
<g id="node20" class="node"><title>Node19</title>
<g id="a_node20"><a xlink:href="_scoring_object_8h.html" target="_top" xlink:title="ScoringObject.h">
<polygon fill="white" stroke="black" points="977,-129 977,-148 1063,-148 1063,-129 977,-129"/>
<text text-anchor="middle" x="1020" y="-136" font-family="Helvetica,sans-Serif" font-size="10.00">ScoringObject.h</text>
</a>
</g>
</g>
<!-- Node13&#45;&gt;Node19 -->
<g id="edge33" class="edge"><title>Node13&#45;&gt;Node19</title>
<path fill="none" stroke="midnightblue" d="M803.694,-190.466C850.481,-180.894 913.101,-167.54 968,-154 972.146,-152.977 976.463,-151.86 980.76,-150.713"/>
<polygon fill="midnightblue" stroke="midnightblue" points="981.929,-154.022 990.656,-148.015 980.088,-147.268 981.929,-154.022"/>
</g>
<!-- Node20 -->
<g id="node21" class="node"><title>Node20</title>
<g id="a_node21"><a xlink:href="_random_8h.html" target="_top" xlink:title="../DUtils/Random.h">
<polygon fill="white" stroke="black" points="406.5,-129 406.5,-148 507.5,-148 507.5,-129 406.5,-129"/>
<text text-anchor="middle" x="457" y="-136" font-family="Helvetica,sans-Serif" font-size="10.00">../DUtils/Random.h</text>
</a>
</g>
</g>
<!-- Node13&#45;&gt;Node20 -->
<g id="edge35" class="edge"><title>Node13&#45;&gt;Node20</title>
<path fill="none" stroke="midnightblue" d="M673.452,-190.476C622.37,-178.446 549.812,-161.358 503.068,-150.349"/>
<polygon fill="midnightblue" stroke="midnightblue" points="503.75,-146.914 493.214,-148.029 502.145,-153.728 503.75,-146.914"/>
</g>
<!-- Node19&#45;&gt;Node4 -->
<g id="edge34" class="edge"><title>Node19&#45;&gt;Node4</title>
<path fill="none" stroke="midnightblue" d="M1030.52,-128.734C1041.36,-119.696 1058.67,-105.274 1073.04,-93.2982"/>
<polygon fill="midnightblue" stroke="midnightblue" points="1075.65,-95.6797 1081.09,-86.589 1071.17,-90.3021 1075.65,-95.6797"/>
</g>
<!-- Node20&#45;&gt;Node1 -->
<g id="edge37" class="edge"><title>Node20&#45;&gt;Node1</title>
<path fill="none" stroke="midnightblue" d="M453.549,-128.647C449.713,-118.632 443.473,-101.789 439,-87 433.107,-67.5154 427.61,-44.8359 424.061,-29.3576"/>
<polygon fill="midnightblue" stroke="midnightblue" points="427.454,-28.4949 421.842,-19.5083 420.625,-30.033 427.454,-28.4949"/>
</g>
<!-- Node21 -->
<g id="node22" class="node"><title>Node21</title>
<polygon fill="white" stroke="#bfbfbf" points="448.5,-62 448.5,-81 493.5,-81 493.5,-62 448.5,-62"/>
<text text-anchor="middle" x="471" y="-69" font-family="Helvetica,sans-Serif" font-size="10.00">cstdlib</text>
</g>
<!-- Node20&#45;&gt;Node21 -->
<g id="edge36" class="edge"><title>Node20&#45;&gt;Node21</title>
<path fill="none" stroke="midnightblue" d="M458.888,-128.734C460.966,-119.085 464.366,-103.3 467.036,-90.9063"/>
<polygon fill="midnightblue" stroke="midnightblue" points="470.458,-91.6401 469.142,-81.1273 463.615,-90.1661 470.458,-91.6401"/>
</g>
<!-- Node22&#45;&gt;Node1 -->
<g id="edge39" class="edge"><title>Node22&#45;&gt;Node1</title>
<path fill="none" stroke="midnightblue" d="M1044.96,-318.944C1053.32,-282.116 1084.88,-138.286 1072,-123 990.988,-26.8851 571.828,-13.2519 452.018,-11.3191"/>
<polygon fill="midnightblue" stroke="midnightblue" points="452.055,-7.81935 442.005,-11.1741 451.954,-14.8186 452.055,-7.81935"/>
</g>
<!-- Node22&#45;&gt;Node8 -->
<g id="edge42" class="edge"><title>Node22&#45;&gt;Node8</title>
<path fill="none" stroke="midnightblue" d="M1022.8,-318.975C998.926,-308.901 958.998,-292.053 931.627,-280.502"/>
<polygon fill="midnightblue" stroke="midnightblue" points="932.738,-277.172 922.164,-276.509 930.017,-283.622 932.738,-277.172"/>
</g>
<!-- Node23 -->
<g id="node24" class="node"><title>Node23</title>
<polygon fill="white" stroke="#bfbfbf" points="724.5,-257.5 724.5,-276.5 753.5,-276.5 753.5,-257.5 724.5,-257.5"/>
<text text-anchor="middle" x="739" y="-264.5" font-family="Helvetica,sans-Serif" font-size="10.00">list</text>
</g>
<!-- Node22&#45;&gt;Node23 -->
<g id="edge40" class="edge"><title>Node22&#45;&gt;Node23</title>
<path fill="none" stroke="midnightblue" d="M999.444,-318.975C934.609,-306.285 814.847,-282.845 763.461,-272.788"/>
<polygon fill="midnightblue" stroke="midnightblue" points="764.064,-269.339 753.578,-270.853 762.719,-276.209 764.064,-269.339"/>
</g>
<!-- Node24 -->
<g id="node25" class="node"><title>Node24</title>
<polygon fill="white" stroke="#bfbfbf" points="1071,-257.5 1071,-276.5 1101,-276.5 1101,-257.5 1071,-257.5"/>
<text text-anchor="middle" x="1086" y="-264.5" font-family="Helvetica,sans-Serif" font-size="10.00">set</text>
</g>
<!-- Node22&#45;&gt;Node24 -->
<g id="edge41" class="edge"><title>Node22&#45;&gt;Node24</title>
<path fill="none" stroke="midnightblue" d="M1049.16,-318.975C1055.61,-310.05 1065.9,-295.807 1073.97,-284.643"/>
<polygon fill="midnightblue" stroke="midnightblue" points="1076.83,-286.664 1079.85,-276.509 1071.16,-282.564 1076.83,-286.664"/>
</g>
<!-- Node22&#45;&gt;Node25 -->
<g id="edge43" class="edge"><title>Node22&#45;&gt;Node25</title>
<path fill="none" stroke="midnightblue" d="M1086.56,-318.975C1148.4,-306.87 1260.24,-284.982 1315.02,-274.26"/>
<polygon fill="midnightblue" stroke="midnightblue" points="1315.73,-277.688 1324.87,-272.332 1314.38,-270.818 1315.73,-277.688"/>
</g>
<!-- Node28&#45;&gt;Node8 -->
<g id="edge49" class="edge"><title>Node28&#45;&gt;Node8</title>
<path fill="none" stroke="midnightblue" d="M1278.87,-386.309C1208.16,-377.66 991.558,-350.75 978,-344 974.262,-342.139 938.588,-305.717 917.471,-283.98"/>
<polygon fill="midnightblue" stroke="midnightblue" points="919.91,-281.468 910.435,-276.727 914.886,-286.342 919.91,-281.468"/>
</g>
<!-- Node28&#45;&gt;Node24 -->
<g id="edge50" class="edge"><title>Node28&#45;&gt;Node24</title>
<path fill="none" stroke="midnightblue" d="M1310.8,-380.197C1326.43,-365.118 1353.52,-333.952 1336,-313 1307.5,-278.911 1168.96,-270.606 1111.28,-268.615"/>
<polygon fill="midnightblue" stroke="midnightblue" points="1111.29,-265.114 1101.19,-268.304 1111.07,-272.11 1111.29,-265.114"/>
</g>
<!-- Node28&#45;&gt;Node25 -->
<g id="edge51" class="edge"><title>Node28&#45;&gt;Node25</title>
<path fill="none" stroke="midnightblue" d="M1323.07,-385.952C1362.33,-380.031 1441.7,-365.625 1458,-344 1466.29,-332.997 1465.7,-324.427 1458,-313 1440.54,-287.08 1405.32,-276.085 1379.22,-271.423"/>
<polygon fill="midnightblue" stroke="midnightblue" points="1379.43,-267.915 1369.01,-269.835 1378.36,-274.832 1379.43,-267.915"/>
</g>
<!-- Node28&#45;&gt;Node26 -->
<g id="edge53" class="edge"><title>Node28&#45;&gt;Node26</title>
<path fill="none" stroke="midnightblue" d="M1317.48,-380.475C1336.61,-370.578 1368.37,-354.142 1390.65,-342.615"/>
<polygon fill="midnightblue" stroke="midnightblue" points="1392.28,-345.713 1399.55,-338.009 1389.06,-339.496 1392.28,-345.713"/>
</g>
<!-- Node28&#45;&gt;Node27 -->
<g id="edge52" class="edge"><title>Node28&#45;&gt;Node27</title>
<path fill="none" stroke="midnightblue" d="M1297.85,-380.475C1295.2,-373.32 1291.29,-362.748 1287.72,-353.084"/>
<polygon fill="midnightblue" stroke="midnightblue" points="1290.94,-351.689 1284.18,-343.523 1284.37,-354.116 1290.94,-351.689"/>
</g>
<!-- Node29&#45;&gt;Node1 -->
<g id="edge62" class="edge"><title>Node29&#45;&gt;Node1</title>
<path fill="none" stroke="midnightblue" d="M247.252,-325.823C175.355,-320.465 38,-298.225 38,-206.5 38,-206.5 38,-206.5 38,-137.5 38,-100.306 29.3476,-80.8738 57,-56 105.248,-12.5997 307.838,-9.81587 387.567,-10.4575"/>
<polygon fill="midnightblue" stroke="midnightblue" points="387.937,-13.9615 397.973,-10.5669 388.011,-6.96187 387.937,-13.9615"/>
</g>
<!-- Node29&#45;&gt;Node10 -->
<g id="edge64" class="edge"><title>Node29&#45;&gt;Node10</title>
<path fill="none" stroke="midnightblue" d="M271.339,-318.983C228.692,-298.209 125.785,-240.237 100,-154 93.4215,-131.998 103.721,-106.615 112.803,-90.0998"/>
<polygon fill="midnightblue" stroke="midnightblue" points="116.063,-91.4622 118.138,-81.0726 110.037,-87.9005 116.063,-91.4622"/>
</g>
<!-- Node29&#45;&gt;Node23 -->
<g id="edge63" class="edge"><title>Node29&#45;&gt;Node23</title>
<path fill="none" stroke="midnightblue" d="M332.646,-321.849C424.884,-309.626 640.527,-281.049 713.98,-271.316"/>
<polygon fill="midnightblue" stroke="midnightblue" points="714.679,-274.754 724.132,-269.97 713.759,-267.814 714.679,-274.754"/>
</g>
</g>
</svg>
