<?xml version="1.0" encoding="UTF-8" standalone="no"?>
<!DOCTYPE svg PUBLIC "-//W3C//DTD SVG 1.1//EN"
 "http://www.w3.org/Graphics/SVG/1.1/DTD/svg11.dtd">
<!-- Generated by graphviz version 2.38.0 (20140413.2041)
 -->
<!-- Title: /home/alejandro/Desarrollo eclipse/os1/include/FrameDrawer.h Pages: 1 -->
<svg width="1311pt" height="307pt"
 viewBox="0.00 0.00 1310.73 307.00" xmlns="http://www.w3.org/2000/svg" xmlns:xlink="http://www.w3.org/1999/xlink">
<g id="graph0" class="graph" transform="scale(1 1) rotate(0) translate(4 303)">
<title>/home/alejandro/Desarrollo eclipse/os1/include/FrameDrawer.h</title>
<polygon fill="white" stroke="none" points="-4,4 -4,-303 1306.73,-303 1306.73,4 -4,4"/>
<!-- Node3 -->
<g id="node1" class="node"><title>Node3</title>
<polygon fill="#bfbfbf" stroke="black" points="890.5,-268.5 890.5,-298.5 1063.5,-298.5 1063.5,-268.5 890.5,-268.5"/>
<text text-anchor="start" x="898.5" y="-286.5" font-family="Helvetica,sans-Serif" font-size="10.00">/home/alejandro/Desarrollo</text>
<text text-anchor="middle" x="977" y="-275.5" font-family="Helvetica,sans-Serif" font-size="10.00"> eclipse/os1/include/FrameDrawer.h</text>
</g>
<!-- Node4 -->
<g id="node2" class="node"><title>Node4</title>
<g id="a_node2"><a xlink:href="_tracking_8h.html" target="_top" xlink:title="/home/alejandro/Desarrollo\l eclipse/os1/include/Tracking.h">
<polygon fill="white" stroke="black" points="666,-201.5 666,-231.5 818,-231.5 818,-201.5 666,-201.5"/>
<text text-anchor="start" x="674" y="-219.5" font-family="Helvetica,sans-Serif" font-size="10.00">/home/alejandro/Desarrollo</text>
<text text-anchor="middle" x="742" y="-208.5" font-family="Helvetica,sans-Serif" font-size="10.00"> eclipse/os1/include/Tracking.h</text>
</a>
</g>
</g>
<!-- Node3&#45;&gt;Node4 -->
<g id="edge1" class="edge"><title>Node3&#45;&gt;Node4</title>
<path fill="none" stroke="midnightblue" d="M916.316,-265.715C878.073,-255.137 829.257,-241.635 793.016,-231.611"/>
<polygon fill="midnightblue" stroke="midnightblue" points="915.727,-269.183 926.298,-268.476 917.593,-262.437 915.727,-269.183"/>
</g>
<!-- Node8 -->
<g id="node6" class="node"><title>Node8</title>
<g id="a_node6"><a xlink:href="_system_8cc.html" target="_top" xlink:title="/home/alejandro/Desarrollo\l eclipse/os1/src/System.cc">
<polygon fill="white" stroke="black" points="834,-0.5 834,-30.5 970,-30.5 970,-0.5 834,-0.5"/>
<text text-anchor="start" x="842" y="-18.5" font-family="Helvetica,sans-Serif" font-size="10.00">/home/alejandro/Desarrollo</text>
<text text-anchor="middle" x="902" y="-7.5" font-family="Helvetica,sans-Serif" font-size="10.00"> eclipse/os1/src/System.cc</text>
</a>
</g>
</g>
<!-- Node3&#45;&gt;Node8 -->
<g id="edge27" class="edge"><title>Node3&#45;&gt;Node8</title>
<path fill="none" stroke="midnightblue" d="M1074.04,-272.021C1187,-255.779 1350.74,-217.262 1289,-134 1250.89,-82.6026 1070.9,-44.8347 970.361,-27.3396"/>
<polygon fill="midnightblue" stroke="midnightblue" points="1073.37,-268.58 1063.96,-273.432 1074.34,-275.512 1073.37,-268.58"/>
</g>
<!-- Node13 -->
<g id="node11" class="node"><title>Node13</title>
<g id="a_node11"><a xlink:href="_tracking_8cc.html" target="_top" xlink:title="/home/alejandro/Desarrollo\l eclipse/os1/src/Tracking.cc">
<polygon fill="white" stroke="black" points="0,-0.5 0,-30.5 140,-30.5 140,-0.5 0,-0.5"/>
<text text-anchor="start" x="8" y="-18.5" font-family="Helvetica,sans-Serif" font-size="10.00">/home/alejandro/Desarrollo</text>
<text text-anchor="middle" x="70" y="-7.5" font-family="Helvetica,sans-Serif" font-size="10.00"> eclipse/os1/src/Tracking.cc</text>
</a>
</g>
</g>
<!-- Node3&#45;&gt;Node13 -->
<g id="edge28" class="edge"><title>Node3&#45;&gt;Node13</title>
<path fill="none" stroke="midnightblue" d="M880.465,-275.917C743.882,-264.444 487.824,-234.945 281,-165 219.426,-144.177 203.438,-136.409 151,-98 123.319,-77.7249 96.2697,-47.9041 81.4988,-30.5171"/>
<polygon fill="midnightblue" stroke="midnightblue" points="880.238,-279.41 890.492,-276.745 880.814,-272.434 880.238,-279.41"/>
</g>
<!-- Node14 -->
<g id="node12" class="node"><title>Node14</title>
<g id="a_node12"><a xlink:href="_frame_drawer_8cc.html" target="_top" xlink:title="/home/alejandro/Desarrollo\l eclipse/os1/src/FrameDrawer.cc">
<polygon fill="white" stroke="black" points="817.5,-134.5 817.5,-164.5 978.5,-164.5 978.5,-134.5 817.5,-134.5"/>
<text text-anchor="start" x="825.5" y="-152.5" font-family="Helvetica,sans-Serif" font-size="10.00">/home/alejandro/Desarrollo</text>
<text text-anchor="middle" x="898" y="-141.5" font-family="Helvetica,sans-Serif" font-size="10.00"> eclipse/os1/src/FrameDrawer.cc</text>
</a>
</g>
</g>
<!-- Node3&#45;&gt;Node14 -->
<g id="edge25" class="edge"><title>Node3&#45;&gt;Node14</title>
<path fill="none" stroke="midnightblue" d="M963.22,-259.476C946.82,-232.073 919.956,-187.185 906.394,-164.525"/>
<polygon fill="midnightblue" stroke="midnightblue" points="960.407,-261.59 968.546,-268.374 966.413,-257.996 960.407,-261.59"/>
</g>
<!-- Node15 -->
<g id="node13" class="node"><title>Node15</title>
<g id="a_node13"><a xlink:href="main_8cc.html" target="_top" xlink:title="/home/alejandro/Desarrollo\l eclipse/os1/src/main.cc">
<polygon fill="white" stroke="black" points="996.5,-134.5 996.5,-164.5 1129.5,-164.5 1129.5,-134.5 996.5,-134.5"/>
<text text-anchor="start" x="1004.5" y="-152.5" font-family="Helvetica,sans-Serif" font-size="10.00">/home/alejandro/Desarrollo</text>
<text text-anchor="middle" x="1063" y="-141.5" font-family="Helvetica,sans-Serif" font-size="10.00"> eclipse/os1/src/main.cc</text>
</a>
</g>
</g>
<!-- Node3&#45;&gt;Node15 -->
<g id="edge26" class="edge"><title>Node3&#45;&gt;Node15</title>
<path fill="none" stroke="midnightblue" d="M991.768,-259.834C1009.6,-232.466 1039.03,-187.284 1053.86,-164.525"/>
<polygon fill="midnightblue" stroke="midnightblue" points="988.73,-258.084 986.204,-268.374 994.595,-261.906 988.73,-258.084"/>
</g>
<!-- Node17 -->
<g id="node15" class="node"><title>Node17</title>
<g id="a_node15"><a xlink:href="_viewer_8cc.html" target="_top" xlink:title="/home/alejandro/Desarrollo\l eclipse/os1/src/Viewer.cc">
<polygon fill="white" stroke="black" points="1147.5,-134.5 1147.5,-164.5 1280.5,-164.5 1280.5,-134.5 1147.5,-134.5"/>
<text text-anchor="start" x="1155.5" y="-152.5" font-family="Helvetica,sans-Serif" font-size="10.00">/home/alejandro/Desarrollo</text>
<text text-anchor="middle" x="1214" y="-141.5" font-family="Helvetica,sans-Serif" font-size="10.00"> eclipse/os1/src/Viewer.cc</text>
</a>
</g>
</g>
<!-- Node3&#45;&gt;Node17 -->
<g id="edge29" class="edge"><title>Node3&#45;&gt;Node17</title>
<path fill="none" stroke="midnightblue" d="M1011.17,-263.467C1059.34,-236.638 1146.09,-188.323 1188.82,-164.525"/>
<polygon fill="midnightblue" stroke="midnightblue" points="1009.4,-260.45 1002.36,-268.374 1012.8,-266.566 1009.4,-260.45"/>
</g>
<!-- Node5 -->
<g id="node3" class="node"><title>Node5</title>
<g id="a_node3"><a xlink:href="_loop_closing_8h.html" target="_top" xlink:title="/home/alejandro/Desarrollo\l eclipse/os1/include/LoopClosing.h">
<polygon fill="white" stroke="black" points="537,-134.5 537,-164.5 705,-164.5 705,-134.5 537,-134.5"/>
<text text-anchor="start" x="545" y="-152.5" font-family="Helvetica,sans-Serif" font-size="10.00">/home/alejandro/Desarrollo</text>
<text text-anchor="middle" x="621" y="-141.5" font-family="Helvetica,sans-Serif" font-size="10.00"> eclipse/os1/include/LoopClosing.h</text>
</a>
</g>
</g>
<!-- Node4&#45;&gt;Node5 -->
<g id="edge2" class="edge"><title>Node4&#45;&gt;Node5</title>
<path fill="none" stroke="midnightblue" d="M701.116,-196.853C681.074,-186.576 657.876,-174.025 641.529,-164.577"/>
<polygon fill="midnightblue" stroke="midnightblue" points="699.565,-199.991 710.066,-201.396 702.733,-193.749 699.565,-199.991"/>
</g>
<!-- Node6 -->
<g id="node4" class="node"><title>Node6</title>
<g id="a_node4"><a xlink:href="_local_mapping_8h.html" target="_top" xlink:title="/home/alejandro/Desarrollo\l eclipse/os1/include/LocalMapping.h">
<polygon fill="white" stroke="black" points="655,-67.5 655,-97.5 829,-97.5 829,-67.5 655,-67.5"/>
<text text-anchor="start" x="663" y="-85.5" font-family="Helvetica,sans-Serif" font-size="10.00">/home/alejandro/Desarrollo</text>
<text text-anchor="middle" x="742" y="-74.5" font-family="Helvetica,sans-Serif" font-size="10.00"> eclipse/os1/include/LocalMapping.h</text>
</a>
</g>
</g>
<!-- Node4&#45;&gt;Node6 -->
<g id="edge18" class="edge"><title>Node4&#45;&gt;Node6</title>
<path fill="none" stroke="midnightblue" d="M736.644,-191.39C734.497,-163.901 734.83,-119.888 737.642,-97.5247"/>
<polygon fill="midnightblue" stroke="midnightblue" points="733.164,-191.766 737.63,-201.374 740.13,-191.078 733.164,-191.766"/>
</g>
<!-- Node4&#45;&gt;Node8 -->
<g id="edge22" class="edge"><title>Node4&#45;&gt;Node8</title>
<path fill="none" stroke="midnightblue" d="M759.785,-193.367C773.022,-176.936 791.564,-154.007 808,-134 821.221,-117.907 824.9,-114.192 838,-98 856.897,-74.6426 878.374,-47.0768 891.024,-30.733"/>
<polygon fill="midnightblue" stroke="midnightblue" points="756.93,-191.332 753.386,-201.317 762.383,-195.721 756.93,-191.332"/>
</g>
<!-- Node4&#45;&gt;Node13 -->
<g id="edge23" class="edge"><title>Node4&#45;&gt;Node13</title>
<path fill="none" stroke="midnightblue" d="M655.468,-212.308C577.266,-207.487 459.774,-195.384 362,-165 254.192,-131.498 138.011,-60.6674 91.2595,-30.5393"/>
<polygon fill="midnightblue" stroke="midnightblue" points="655.57,-215.82 665.758,-212.914 655.981,-208.832 655.57,-215.82"/>
</g>
<!-- Node4&#45;&gt;Node14 -->
<g id="edge19" class="edge"><title>Node4&#45;&gt;Node14</title>
<path fill="none" stroke="midnightblue" d="M785.094,-197.544C810.057,-187.143 841.029,-174.238 864.216,-164.577"/>
<polygon fill="midnightblue" stroke="midnightblue" points="783.734,-194.319 775.85,-201.396 786.427,-200.781 783.734,-194.319"/>
</g>
<!-- Node4&#45;&gt;Node15 -->
<g id="edge20" class="edge"><title>Node4&#45;&gt;Node15</title>
<path fill="none" stroke="midnightblue" d="M821.106,-199.482C874.932,-188.582 945.367,-174.32 996.339,-163.998"/>
<polygon fill="midnightblue" stroke="midnightblue" points="820.363,-196.061 811.257,-201.476 821.753,-202.922 820.363,-196.061"/>
</g>
<!-- Node16 -->
<g id="node14" class="node"><title>Node16</title>
<g id="a_node14"><a xlink:href="_serializer_8cpp.html" target="_top" xlink:title="/home/alejandro/Desarrollo\l eclipse/os1/src/Serializer.cpp">
<polygon fill="white" stroke="black" points="371,-134.5 371,-164.5 519,-164.5 519,-134.5 371,-134.5"/>
<text text-anchor="start" x="379" y="-152.5" font-family="Helvetica,sans-Serif" font-size="10.00">/home/alejandro/Desarrollo</text>
<text text-anchor="middle" x="445" y="-141.5" font-family="Helvetica,sans-Serif" font-size="10.00"> eclipse/os1/src/Serializer.cpp</text>
</a>
</g>
</g>
<!-- Node4&#45;&gt;Node16 -->
<g id="edge21" class="edge"><title>Node4&#45;&gt;Node16</title>
<path fill="none" stroke="midnightblue" d="M668.05,-199.316C619.238,-188.633 555.918,-174.775 509.22,-164.555"/>
<polygon fill="midnightblue" stroke="midnightblue" points="667.404,-202.757 677.921,-201.476 668.901,-195.919 667.404,-202.757"/>
</g>
<!-- Node4&#45;&gt;Node17 -->
<g id="edge24" class="edge"><title>Node4&#45;&gt;Node17</title>
<path fill="none" stroke="midnightblue" d="M828.187,-206.061C908.552,-196.892 1031.66,-181.908 1138,-165 1141.05,-164.515 1144.17,-164 1147.31,-163.464"/>
<polygon fill="midnightblue" stroke="midnightblue" points="827.655,-202.599 818.114,-207.205 828.446,-209.554 827.655,-202.599"/>
</g>
<!-- Node5&#45;&gt;Node4 -->
<g id="edge8" class="edge"><title>Node5&#45;&gt;Node4</title>
<path fill="none" stroke="midnightblue" d="M661.826,-169.117C681.861,-179.39 705.063,-191.941 721.423,-201.396"/>
<polygon fill="midnightblue" stroke="midnightblue" points="663.38,-165.981 652.879,-164.577 660.212,-172.223 663.38,-165.981"/>
</g>
<!-- Node5&#45;&gt;Node6 -->
<g id="edge3" class="edge"><title>Node5&#45;&gt;Node6</title>
<path fill="none" stroke="midnightblue" d="M650.529,-129.296C668.607,-119.125 691.629,-106.855 710.121,-97.5765"/>
<polygon fill="midnightblue" stroke="midnightblue" points="648.533,-126.405 641.577,-134.396 651.998,-132.487 648.533,-126.405"/>
</g>
<!-- Node7 -->
<g id="node5" class="node"><title>Node7</title>
<g id="a_node5"><a xlink:href="_local_mapping_8cc.html" target="_top" xlink:title="/home/alejandro/Desarrollo\l eclipse/os1/src/LocalMapping.cc">
<polygon fill="white" stroke="black" points="654,-0.5 654,-30.5 816,-30.5 816,-0.5 654,-0.5"/>
<text text-anchor="start" x="662" y="-18.5" font-family="Helvetica,sans-Serif" font-size="10.00">/home/alejandro/Desarrollo</text>
<text text-anchor="middle" x="735" y="-7.5" font-family="Helvetica,sans-Serif" font-size="10.00"> eclipse/os1/src/LocalMapping.cc</text>
</a>
</g>
</g>
<!-- Node5&#45;&gt;Node7 -->
<g id="edge15" class="edge"><title>Node5&#45;&gt;Node7</title>
<path fill="none" stroke="midnightblue" d="M611.09,-124.74C605.52,-107.334 601.707,-83.8966 613,-67 624.719,-49.4661 643.771,-38.0126 663.372,-30.5337"/>
<polygon fill="midnightblue" stroke="midnightblue" points="607.809,-125.959 614.472,-134.197 614.4,-123.602 607.809,-125.959"/>
</g>
<!-- Node5&#45;&gt;Node8 -->
<g id="edge17" class="edge"><title>Node5&#45;&gt;Node8</title>
<path fill="none" stroke="midnightblue" d="M621.981,-124.415C624.057,-106.043 629.924,-81.5021 646,-67 647.774,-65.3999 758.446,-43.9661 833.678,-29.5419"/>
<polygon fill="midnightblue" stroke="midnightblue" points="618.492,-124.14 621.149,-134.396 625.468,-124.722 618.492,-124.14"/>
</g>
<!-- Node9 -->
<g id="node7" class="node"><title>Node9</title>
<g id="a_node7"><a xlink:href="_optimizer_8h.html" target="_top" xlink:title="/home/alejandro/Desarrollo\l eclipse/os1/include/Optimizer.h">
<polygon fill="white" stroke="black" points="340,-67.5 340,-97.5 496,-97.5 496,-67.5 340,-67.5"/>
<text text-anchor="start" x="348" y="-85.5" font-family="Helvetica,sans-Serif" font-size="10.00">/home/alejandro/Desarrollo</text>
<text text-anchor="middle" x="418" y="-74.5" font-family="Helvetica,sans-Serif" font-size="10.00"> eclipse/os1/include/Optimizer.h</text>
</a>
</g>
</g>
<!-- Node5&#45;&gt;Node9 -->
<g id="edge9" class="edge"><title>Node5&#45;&gt;Node9</title>
<path fill="none" stroke="midnightblue" d="M567.058,-131.228C534.219,-120.713 492.8,-107.451 461.962,-97.5765"/>
<polygon fill="midnightblue" stroke="midnightblue" points="566.361,-134.68 576.952,-134.396 568.496,-128.013 566.361,-134.68"/>
</g>
<!-- Node11 -->
<g id="node9" class="node"><title>Node11</title>
<g id="a_node9"><a xlink:href="_loop_closing_8cc.html" target="_top" xlink:title="/home/alejandro/Desarrollo\l eclipse/os1/src/LoopClosing.cc">
<polygon fill="white" stroke="black" points="480,-0.5 480,-30.5 636,-30.5 636,-0.5 480,-0.5"/>
<text text-anchor="start" x="488" y="-18.5" font-family="Helvetica,sans-Serif" font-size="10.00">/home/alejandro/Desarrollo</text>
<text text-anchor="middle" x="558" y="-7.5" font-family="Helvetica,sans-Serif" font-size="10.00"> eclipse/os1/src/LoopClosing.cc</text>
</a>
</g>
</g>
<!-- Node5&#45;&gt;Node11 -->
<g id="edge16" class="edge"><title>Node5&#45;&gt;Node11</title>
<path fill="none" stroke="midnightblue" d="M596.838,-127.126C588.768,-118.79 580.452,-108.674 575,-98 563.823,-76.1176 559.994,-47.3579 558.683,-30.5046"/>
<polygon fill="midnightblue" stroke="midnightblue" points="594.502,-129.738 604.09,-134.246 599.406,-124.743 594.502,-129.738"/>
</g>
<!-- Node6&#45;&gt;Node4 -->
<g id="edge5" class="edge"><title>Node6&#45;&gt;Node4</title>
<path fill="none" stroke="midnightblue" d="M747.346,-107.486C749.501,-134.924 749.175,-178.945 746.37,-201.374"/>
<polygon fill="midnightblue" stroke="midnightblue" points="750.828,-107.13 746.358,-97.5247 743.863,-107.822 750.828,-107.13"/>
</g>
<!-- Node6&#45;&gt;Node5 -->
<g id="edge4" class="edge"><title>Node6&#45;&gt;Node5</title>
<path fill="none" stroke="midnightblue" d="M712.524,-102.674C694.457,-112.841 671.434,-125.112 652.934,-134.396"/>
<polygon fill="midnightblue" stroke="midnightblue" points="714.515,-105.568 721.471,-97.5765 711.05,-99.4864 714.515,-105.568"/>
</g>
<!-- Node6&#45;&gt;Node7 -->
<g id="edge6" class="edge"><title>Node6&#45;&gt;Node7</title>
<path fill="none" stroke="midnightblue" d="M739.405,-57.4029C738.432,-48.3703 737.359,-38.4078 736.516,-30.5765"/>
<polygon fill="midnightblue" stroke="midnightblue" points="735.93,-57.8282 740.481,-67.396 742.89,-57.0787 735.93,-57.8282"/>
</g>
<!-- Node6&#45;&gt;Node8 -->
<g id="edge7" class="edge"><title>Node6&#45;&gt;Node8</title>
<path fill="none" stroke="midnightblue" d="M786.199,-63.5442C811.802,-53.143 843.568,-40.238 867.35,-30.5765"/>
<polygon fill="midnightblue" stroke="midnightblue" points="784.665,-60.3895 776.718,-67.396 787.3,-66.8748 784.665,-60.3895"/>
</g>
<!-- Node9&#45;&gt;Node7 -->
<g id="edge11" class="edge"><title>Node9&#45;&gt;Node7</title>
<path fill="none" stroke="midnightblue" d="M496.279,-65.4492C548.464,-54.7487 616.405,-40.8176 666.456,-30.5549"/>
<polygon fill="midnightblue" stroke="midnightblue" points="495.487,-62.0386 486.394,-67.476 496.893,-68.8959 495.487,-62.0386"/>
</g>
<!-- Node10 -->
<g id="node8" class="node"><title>Node10</title>
<g id="a_node8"><a xlink:href="_initializer_8cc.html" target="_top" xlink:title="/home/alejandro/Desarrollo\l eclipse/os1/src/Initializer.cc">
<polygon fill="white" stroke="black" points="320.5,-0.5 320.5,-30.5 461.5,-30.5 461.5,-0.5 320.5,-0.5"/>
<text text-anchor="start" x="328.5" y="-18.5" font-family="Helvetica,sans-Serif" font-size="10.00">/home/alejandro/Desarrollo</text>
<text text-anchor="middle" x="391" y="-7.5" font-family="Helvetica,sans-Serif" font-size="10.00"> eclipse/os1/src/Initializer.cc</text>
</a>
</g>
</g>
<!-- Node9&#45;&gt;Node10 -->
<g id="edge10" class="edge"><title>Node9&#45;&gt;Node10</title>
<path fill="none" stroke="midnightblue" d="M408.235,-57.9907C404.419,-48.8044 400.171,-38.5781 396.847,-30.5765"/>
<polygon fill="midnightblue" stroke="midnightblue" points="405.073,-59.5036 412.141,-67.396 411.538,-56.8184 405.073,-59.5036"/>
</g>
<!-- Node9&#45;&gt;Node11 -->
<g id="edge12" class="edge"><title>Node9&#45;&gt;Node11</title>
<path fill="none" stroke="midnightblue" d="M457.565,-63.1305C479.81,-52.8025 507.147,-40.1103 527.681,-30.5765"/>
<polygon fill="midnightblue" stroke="midnightblue" points="455.974,-60.0103 448.378,-67.396 458.922,-66.3593 455.974,-60.0103"/>
</g>
<!-- Node12 -->
<g id="node10" class="node"><title>Node12</title>
<g id="a_node10"><a xlink:href="_optimizer_8cc.html" target="_top" xlink:title="/home/alejandro/Desarrollo\l eclipse/os1/src/Optimizer.cc">
<polygon fill="white" stroke="black" points="158,-0.5 158,-30.5 302,-30.5 302,-0.5 158,-0.5"/>
<text text-anchor="start" x="166" y="-18.5" font-family="Helvetica,sans-Serif" font-size="10.00">/home/alejandro/Desarrollo</text>
<text text-anchor="middle" x="230" y="-7.5" font-family="Helvetica,sans-Serif" font-size="10.00"> eclipse/os1/src/Optimizer.cc</text>
</a>
</g>
</g>
<!-- Node9&#45;&gt;Node12 -->
<g id="edge13" class="edge"><title>Node9&#45;&gt;Node12</title>
<path fill="none" stroke="midnightblue" d="M367.65,-64.0917C337.301,-53.5988 299.15,-40.4082 270.714,-30.5765"/>
<polygon fill="midnightblue" stroke="midnightblue" points="366.612,-67.4361 377.207,-67.396 368.899,-60.8204 366.612,-67.4361"/>
</g>
<!-- Node9&#45;&gt;Node13 -->
<g id="edge14" class="edge"><title>Node9&#45;&gt;Node13</title>
<path fill="none" stroke="midnightblue" d="M332.847,-65.5949C273.689,-54.5454 195.806,-39.9982 140.206,-29.6132"/>
<polygon fill="midnightblue" stroke="midnightblue" points="332.445,-69.0804 342.918,-67.476 333.73,-62.1994 332.445,-69.0804"/>
</g>
</g>
</svg>
