<?xml version="1.0" encoding="UTF-8" standalone="no"?>
<!DOCTYPE svg PUBLIC "-//W3C//DTD SVG 1.1//EN"
 "http://www.w3.org/Graphics/SVG/1.1/DTD/svg11.dtd">
<!-- Generated by graphviz version 2.38.0 (20140413.2041)
 -->
<!-- Title: /home/alejandro/Desarrollo eclipse/os1/include/Frame.h Pages: 1 -->
<svg width="1292pt" height="576pt"
 viewBox="0.00 0.00 1291.50 576.00" xmlns="http://www.w3.org/2000/svg" xmlns:xlink="http://www.w3.org/1999/xlink">
<g id="graph0" class="graph" transform="scale(1 1) rotate(0) translate(4 572)">
<title>/home/alejandro/Desarrollo eclipse/os1/include/Frame.h</title>
<polygon fill="white" stroke="none" points="-4,4 -4,-572 1287.5,-572 1287.5,4 -4,4"/>
<!-- Node0 -->
<g id="node1" class="node"><title>Node0</title>
<polygon fill="#bfbfbf" stroke="black" points="799.5,-537.5 799.5,-567.5 941.5,-567.5 941.5,-537.5 799.5,-537.5"/>
<text text-anchor="start" x="807.5" y="-555.5" font-family="Helvetica,sans-Serif" font-size="10.00">/home/alejandro/Desarrollo</text>
<text text-anchor="middle" x="870.5" y="-544.5" font-family="Helvetica,sans-Serif" font-size="10.00"> eclipse/os1/include/Frame.h</text>
</g>
<!-- Node1 -->
<g id="node2" class="node"><title>Node1</title>
<polygon fill="white" stroke="#bfbfbf" points="645.5,-0.5 645.5,-19.5 689.5,-19.5 689.5,-0.5 645.5,-0.5"/>
<text text-anchor="middle" x="667.5" y="-7.5" font-family="Helvetica,sans-Serif" font-size="10.00">vector</text>
</g>
<!-- Node0&#45;&gt;Node1 -->
<g id="edge1" class="edge"><title>Node0&#45;&gt;Node1</title>
<path fill="none" stroke="midnightblue" d="M941.968,-546.238C1060.17,-535.548 1283.5,-506.078 1283.5,-436 1283.5,-436 1283.5,-436 1283.5,-137.5 1283.5,-87.6682 1251.4,-77.6095 1206.5,-56 1116.2,-12.5418 801.777,-10.2692 699.743,-10.7144"/>
<polygon fill="midnightblue" stroke="midnightblue" points="699.707,-7.21448 689.727,-10.7702 699.746,-14.2144 699.707,-7.21448"/>
</g>
<!-- Node2 -->
<g id="node3" class="node"><title>Node2</title>
<g id="a_node3"><a xlink:href="_map_point_8h.html" target="_top" xlink:title="MapPoint.h">
<polygon fill="white" stroke="black" points="837.5,-481.5 837.5,-500.5 903.5,-500.5 903.5,-481.5 837.5,-481.5"/>
<text text-anchor="middle" x="870.5" y="-488.5" font-family="Helvetica,sans-Serif" font-size="10.00">MapPoint.h</text>
</a>
</g>
</g>
<!-- Node0&#45;&gt;Node2 -->
<g id="edge2" class="edge"><title>Node0&#45;&gt;Node2</title>
<path fill="none" stroke="midnightblue" d="M864.66,-537.399C863.63,-529.377 863.474,-519.233 864.193,-510.569"/>
<polygon fill="midnightblue" stroke="midnightblue" points="867.66,-511.044 865.571,-500.658 860.727,-510.081 867.66,-511.044"/>
</g>
<!-- Node3 -->
<g id="node4" class="node"><title>Node3</title>
<g id="a_node4"><a xlink:href="_key_frame_8h.html" target="_top" xlink:title="KeyFrame.h">
<polygon fill="white" stroke="black" points="720.5,-369.5 720.5,-388.5 790.5,-388.5 790.5,-369.5 720.5,-369.5"/>
<text text-anchor="middle" x="755.5" y="-376.5" font-family="Helvetica,sans-Serif" font-size="10.00">KeyFrame.h</text>
</a>
</g>
</g>
<!-- Node0&#45;&gt;Node3 -->
<g id="edge64" class="edge"><title>Node0&#45;&gt;Node3</title>
<path fill="none" stroke="midnightblue" d="M850.18,-537.376C840.114,-527.496 828.622,-513.823 819.5,-501 794.6,-465.996 769.613,-422.272 759.184,-398.131"/>
<polygon fill="midnightblue" stroke="midnightblue" points="762.44,-396.847 755.559,-388.791 755.915,-399.38 762.44,-396.847"/>
</g>
<!-- Node4 -->
<g id="node5" class="node"><title>Node4</title>
<g id="a_node5"><a xlink:href="_bow_vector_8h.html" target="_top" xlink:title="../Thirdparty/DBoW2\l/DBoW2/BowVector.h">
<polygon fill="white" stroke="black" points="153,-56.5 153,-86.5 266,-86.5 266,-56.5 153,-56.5"/>
<text text-anchor="start" x="161" y="-74.5" font-family="Helvetica,sans-Serif" font-size="10.00">../Thirdparty/DBoW2</text>
<text text-anchor="middle" x="209.5" y="-63.5" font-family="Helvetica,sans-Serif" font-size="10.00">/DBoW2/BowVector.h</text>
</a>
</g>
</g>
<!-- Node0&#45;&gt;Node4 -->
<g id="edge61" class="edge"><title>Node0&#45;&gt;Node4</title>
<path fill="none" stroke="midnightblue" d="M799.32,-548.003C611.615,-537.838 117.5,-504.568 117.5,-436 117.5,-436 117.5,-436 117.5,-322 117.5,-233.612 168.955,-137.884 194.903,-95.2292"/>
<polygon fill="midnightblue" stroke="midnightblue" points="197.883,-97.0653 200.172,-86.7208 191.931,-93.3796 197.883,-97.0653"/>
</g>
<!-- Node7 -->
<g id="node8" class="node"><title>Node7</title>
<g id="a_node8"><a xlink:href="_feature_vector_8h.html" target="_top" xlink:title="../Thirdparty/DBoW2\l/DBoW2/FeatureVector.h">
<polygon fill="white" stroke="black" points="0,-123.5 0,-153.5 127,-153.5 127,-123.5 0,-123.5"/>
<text text-anchor="start" x="8" y="-141.5" font-family="Helvetica,sans-Serif" font-size="10.00">../Thirdparty/DBoW2</text>
<text text-anchor="middle" x="63.5" y="-130.5" font-family="Helvetica,sans-Serif" font-size="10.00">/DBoW2/FeatureVector.h</text>
</a>
</g>
</g>
<!-- Node0&#45;&gt;Node7 -->
<g id="edge62" class="edge"><title>Node0&#45;&gt;Node7</title>
<path fill="none" stroke="midnightblue" d="M799.388,-550.83C620.224,-548.58 160.486,-539.117 103.5,-501 76.7354,-483.098 71.5,-468.2 71.5,-436 71.5,-436 71.5,-436 71.5,-266 71.5,-230.346 68.2955,-189.151 65.9427,-163.711"/>
<polygon fill="midnightblue" stroke="midnightblue" points="69.4043,-163.142 64.9673,-153.521 62.4362,-163.809 69.4043,-163.142"/>
</g>
<!-- Node8 -->
<g id="node9" class="node"><title>Node8</title>
<g id="a_node9"><a xlink:href="_o_r_b_vocabulary_8h.html" target="_top" xlink:title="ORBVocabulary.h">
<polygon fill="white" stroke="black" points="852,-257.5 852,-276.5 947,-276.5 947,-257.5 852,-257.5"/>
<text text-anchor="middle" x="899.5" y="-264.5" font-family="Helvetica,sans-Serif" font-size="10.00">ORBVocabulary.h</text>
</a>
</g>
</g>
<!-- Node0&#45;&gt;Node8 -->
<g id="edge63" class="edge"><title>Node0&#45;&gt;Node8</title>
<path fill="none" stroke="midnightblue" d="M893.97,-537.318C906.126,-528.541 919.796,-516.072 926.5,-501 959.617,-426.541 924.46,-326.114 907.532,-285.817"/>
<polygon fill="midnightblue" stroke="midnightblue" points="910.687,-284.294 903.493,-276.516 904.266,-287.082 910.687,-284.294"/>
</g>
<!-- Node22 -->
<g id="node23" class="node"><title>Node22</title>
<g id="a_node23"><a xlink:href="_o_r_bextractor_8h.html" target="_top" xlink:title="ORBextractor.h">
<polygon fill="white" stroke="black" points="604,-313.5 604,-332.5 689,-332.5 689,-313.5 604,-313.5"/>
<text text-anchor="middle" x="646.5" y="-320.5" font-family="Helvetica,sans-Serif" font-size="10.00">ORBextractor.h</text>
</a>
</g>
</g>
<!-- Node0&#45;&gt;Node22 -->
<g id="edge65" class="edge"><title>Node0&#45;&gt;Node22</title>
<path fill="none" stroke="midnightblue" d="M853.012,-537.409C841.028,-527.544 824.933,-513.875 811.5,-501 753.006,-444.935 688.996,-372.883 660.983,-340.755"/>
<polygon fill="midnightblue" stroke="midnightblue" points="663.271,-338.053 654.071,-332.799 657.987,-342.643 663.271,-338.053"/>
</g>
<!-- Node28 -->
<g id="node29" class="node"><title>Node28</title>
<polygon fill="white" stroke="#bfbfbf" points="1066,-481.5 1066,-500.5 1173,-500.5 1173,-481.5 1066,-481.5"/>
<text text-anchor="middle" x="1119.5" y="-488.5" font-family="Helvetica,sans-Serif" font-size="10.00">opencv2/opencv.hpp</text>
</g>
<!-- Node0&#45;&gt;Node28 -->
<g id="edge66" class="edge"><title>Node0&#45;&gt;Node28</title>
<path fill="none" stroke="midnightblue" d="M929.194,-537.475C973.465,-526.896 1033.31,-512.595 1073.99,-502.874"/>
<polygon fill="midnightblue" stroke="midnightblue" points="1074.99,-506.235 1083.9,-500.506 1073.36,-499.426 1074.99,-506.235"/>
</g>
<!-- Node2&#45;&gt;Node0 -->
<g id="edge53" class="edge"><title>Node2&#45;&gt;Node0</title>
<path fill="none" stroke="midnightblue" d="M875.429,-500.658C876.935,-507.655 877.507,-517.857 877.145,-527.289"/>
<polygon fill="midnightblue" stroke="midnightblue" points="873.645,-527.153 876.34,-537.399 880.623,-527.709 873.645,-527.153"/>
</g>
<!-- Node2&#45;&gt;Node3 -->
<g id="edge3" class="edge"><title>Node2&#45;&gt;Node3</title>
<path fill="none" stroke="midnightblue" d="M857.633,-481.368C834.933,-462.974 789.298,-419.671 767.347,-396.052"/>
<polygon fill="midnightblue" stroke="midnightblue" points="769.932,-393.693 760.646,-388.591 764.724,-398.37 769.932,-393.693"/>
</g>
<!-- Node10 -->
<g id="node11" class="node"><title>Node10</title>
<polygon fill="white" stroke="#bfbfbf" points="923.5,-62 923.5,-81 1039.5,-81 1039.5,-62 923.5,-62"/>
<text text-anchor="middle" x="981.5" y="-69" font-family="Helvetica,sans-Serif" font-size="10.00">opencv2/core/core.hpp</text>
</g>
<!-- Node2&#45;&gt;Node10 -->
<g id="edge59" class="edge"><title>Node2&#45;&gt;Node10</title>
<path fill="none" stroke="midnightblue" d="M882.915,-481.488C919.026,-455.83 1023.54,-374.946 1056.5,-277 1059.33,-268.575 1060.26,-265.054 1056.5,-257 1045.95,-234.417 1026.38,-242.339 1013.5,-221 988.477,-179.538 982.887,-121.153 981.727,-91.4548"/>
<polygon fill="midnightblue" stroke="midnightblue" points="985.22,-91.1574 981.464,-81.251 978.223,-91.3379 985.22,-91.1574"/>
</g>
<!-- Node26 -->
<g id="node27" class="node"><title>Node26</title>
<polygon fill="white" stroke="#bfbfbf" points="1003.5,-257.5 1003.5,-276.5 1047.5,-276.5 1047.5,-257.5 1003.5,-257.5"/>
<text text-anchor="middle" x="1025.5" y="-264.5" font-family="Helvetica,sans-Serif" font-size="10.00">mutex</text>
</g>
<!-- Node2&#45;&gt;Node26 -->
<g id="edge60" class="edge"><title>Node2&#45;&gt;Node26</title>
<path fill="none" stroke="midnightblue" d="M877.664,-481.467C896.906,-458.362 950.868,-392.329 989.5,-333 999.597,-317.494 1009.68,-298.958 1016.6,-285.656"/>
<polygon fill="midnightblue" stroke="midnightblue" points="1019.77,-287.136 1021.22,-276.64 1013.54,-283.944 1019.77,-287.136"/>
</g>
<!-- Node27 -->
<g id="node28" class="node"><title>Node27</title>
<g id="a_node28"><a xlink:href="_map_8h.html" target="_top" xlink:title="Map.h">
<polygon fill="white" stroke="black" points="848.5,-425.5 848.5,-444.5 892.5,-444.5 892.5,-425.5 848.5,-425.5"/>
<text text-anchor="middle" x="870.5" y="-432.5" font-family="Helvetica,sans-Serif" font-size="10.00">Map.h</text>
</a>
</g>
</g>
<!-- Node2&#45;&gt;Node27 -->
<g id="edge54" class="edge"><title>Node2&#45;&gt;Node27</title>
<path fill="none" stroke="midnightblue" d="M865.334,-481.083C863.824,-473.927 863.394,-463.635 864.042,-454.691"/>
<polygon fill="midnightblue" stroke="midnightblue" points="867.515,-455.126 865.369,-444.751 860.577,-454.2 867.515,-455.126"/>
</g>
<!-- Node3&#45;&gt;Node0 -->
<g id="edge43" class="edge"><title>Node3&#45;&gt;Node0</title>
<path fill="none" stroke="midnightblue" d="M764.846,-388.791C780.215,-409.141 808.915,-460.817 837.5,-501 844.341,-510.617 852.516,-520.713 859.233,-529.328"/>
<polygon fill="midnightblue" stroke="midnightblue" points="856.518,-531.54 865.36,-537.376 862.088,-527.3 856.518,-531.54"/>
</g>
<!-- Node3&#45;&gt;Node2 -->
<g id="edge4" class="edge"><title>Node3&#45;&gt;Node2</title>
<path fill="none" stroke="midnightblue" d="M768.317,-388.591C790.984,-406.949 836.62,-450.249 858.605,-473.897"/>
<polygon fill="midnightblue" stroke="midnightblue" points="856.032,-476.269 865.319,-481.368 861.239,-471.591 856.032,-476.269"/>
</g>
<!-- Node3&#45;&gt;Node4 -->
<g id="edge5" class="edge"><title>Node3&#45;&gt;Node4</title>
<path fill="none" stroke="midnightblue" d="M720.344,-378.63C597.309,-379.904 193.5,-375.872 193.5,-268 193.5,-268 193.5,-268 193.5,-204.5 193.5,-166.56 200.095,-122.928 204.817,-96.5507"/>
<polygon fill="midnightblue" stroke="midnightblue" points="208.263,-97.1606 206.64,-86.6909 201.38,-95.888 208.263,-97.1606"/>
</g>
<!-- Node3&#45;&gt;Node7 -->
<g id="edge9" class="edge"><title>Node3&#45;&gt;Node7</title>
<path fill="none" stroke="midnightblue" d="M720.262,-377.113C602.204,-373.889 225.446,-361.446 179.5,-333 146.777,-312.741 95.9352,-209.555 74.0765,-162.701"/>
<polygon fill="midnightblue" stroke="midnightblue" points="77.2448,-161.214 69.8689,-153.608 70.892,-164.154 77.2448,-161.214"/>
</g>
<!-- Node3&#45;&gt;Node8 -->
<g id="edge14" class="edge"><title>Node3&#45;&gt;Node8</title>
<path fill="none" stroke="midnightblue" d="M755.646,-369.207C756.347,-355.443 759.678,-328.757 774.5,-313 785.908,-300.872 824.205,-288.111 855.435,-279.288"/>
<polygon fill="midnightblue" stroke="midnightblue" points="856.576,-282.604 865.283,-276.568 854.712,-275.857 856.576,-282.604"/>
</g>
<!-- Node3&#45;&gt;Node22 -->
<g id="edge39" class="edge"><title>Node3&#45;&gt;Node22</title>
<path fill="none" stroke="midnightblue" d="M737.987,-369.324C720.428,-360.625 693.169,-347.12 672.969,-337.113"/>
<polygon fill="midnightblue" stroke="midnightblue" points="674.484,-333.958 663.969,-332.655 671.376,-340.23 674.484,-333.958"/>
</g>
<!-- Node24 -->
<g id="node25" class="node"><title>Node24</title>
<g id="a_node25"><a xlink:href="_key_frame_database_8h.html" target="_top" xlink:title="KeyFrameDatabase.h">
<polygon fill="white" stroke="black" points="783.5,-313.5 783.5,-332.5 895.5,-332.5 895.5,-313.5 783.5,-313.5"/>
<text text-anchor="middle" x="839.5" y="-320.5" font-family="Helvetica,sans-Serif" font-size="10.00">KeyFrameDatabase.h</text>
</a>
</g>
</g>
<!-- Node3&#45;&gt;Node24 -->
<g id="edge44" class="edge"><title>Node3&#45;&gt;Node24</title>
<path fill="none" stroke="midnightblue" d="M763.881,-369.324C775.266,-360.822 795.346,-347.729 812.063,-337.797"/>
<polygon fill="midnightblue" stroke="midnightblue" points="814.034,-340.7 820.927,-332.655 810.521,-334.646 814.034,-340.7"/>
</g>
<!-- Node3&#45;&gt;Node26 -->
<g id="edge52" class="edge"><title>Node3&#45;&gt;Node26</title>
<path fill="none" stroke="midnightblue" d="M790.508,-369.544C821.145,-361.649 866.56,-348.734 904.5,-333 940.28,-318.161 979.37,-295.983 1003.16,-281.754"/>
<polygon fill="midnightblue" stroke="midnightblue" points="1005.04,-284.711 1011.79,-276.544 1001.42,-278.72 1005.04,-284.711"/>
</g>
<!-- Node4&#45;&gt;Node1 -->
<g id="edge8" class="edge"><title>Node4&#45;&gt;Node1</title>
<path fill="none" stroke="midnightblue" d="M266.119,-63.1445C363.266,-50.5238 558.653,-25.1406 635.454,-15.1632"/>
<polygon fill="midnightblue" stroke="midnightblue" points="636.016,-18.6197 645.481,-13.8605 635.114,-11.678 636.016,-18.6197"/>
</g>
<!-- Node5 -->
<g id="node6" class="node"><title>Node5</title>
<polygon fill="white" stroke="#bfbfbf" points="158.5,-0.5 158.5,-19.5 212.5,-19.5 212.5,-0.5 158.5,-0.5"/>
<text text-anchor="middle" x="185.5" y="-7.5" font-family="Helvetica,sans-Serif" font-size="10.00">iostream</text>
</g>
<!-- Node4&#45;&gt;Node5 -->
<g id="edge6" class="edge"><title>Node4&#45;&gt;Node5</title>
<path fill="none" stroke="midnightblue" d="M203.812,-56.3993C200.505,-48.1989 196.302,-37.7809 192.758,-28.9936"/>
<polygon fill="midnightblue" stroke="midnightblue" points="195.979,-27.6225 188.992,-19.6578 189.487,-30.2411 195.979,-27.6225"/>
</g>
<!-- Node6 -->
<g id="node7" class="node"><title>Node6</title>
<polygon fill="white" stroke="#bfbfbf" points="56,-0.5 56,-19.5 91,-19.5 91,-0.5 56,-0.5"/>
<text text-anchor="middle" x="73.5" y="-7.5" font-family="Helvetica,sans-Serif" font-size="10.00">map</text>
</g>
<!-- Node4&#45;&gt;Node6 -->
<g id="edge7" class="edge"><title>Node4&#45;&gt;Node6</title>
<path fill="none" stroke="midnightblue" d="M177.27,-56.3993C153.974,-46.2074 122.848,-32.5898 100.78,-22.935"/>
<polygon fill="midnightblue" stroke="midnightblue" points="101.903,-19.6061 91.3386,-18.8044 99.0973,-26.0192 101.903,-19.6061"/>
</g>
<!-- Node7&#45;&gt;Node1 -->
<g id="edge12" class="edge"><title>Node7&#45;&gt;Node1</title>
<path fill="none" stroke="midnightblue" d="M76.8886,-123.36C98.5531,-100.552 139.307,-57.9748 143.5,-56 231.369,-14.6142 535.086,-10.9367 635.206,-10.8755"/>
<polygon fill="midnightblue" stroke="midnightblue" points="635.317,-14.3754 645.319,-10.8815 635.321,-7.37543 635.317,-14.3754"/>
</g>
<!-- Node7&#45;&gt;Node4 -->
<g id="edge10" class="edge"><title>Node7&#45;&gt;Node4</title>
<path fill="none" stroke="midnightblue" d="M95.1798,-123.396C116.703,-113.814 145.373,-101.05 168.616,-90.7016"/>
<polygon fill="midnightblue" stroke="midnightblue" points="170.17,-93.8412 177.882,-86.5765 167.323,-87.4463 170.17,-93.8412"/>
</g>
<!-- Node7&#45;&gt;Node5 -->
<g id="edge13" class="edge"><title>Node7&#45;&gt;Node5</title>
<path fill="none" stroke="midnightblue" d="M68.9995,-123.406C76.3603,-105.939 90.8075,-76.0365 110.5,-56 123.51,-42.7631 141.193,-31.908 156.122,-24.1778"/>
<polygon fill="midnightblue" stroke="midnightblue" points="158.049,-27.1293 165.458,-19.5556 154.943,-20.8561 158.049,-27.1293"/>
</g>
<!-- Node7&#45;&gt;Node6 -->
<g id="edge11" class="edge"><title>Node7&#45;&gt;Node6</title>
<path fill="none" stroke="midnightblue" d="M64.6084,-123.479C66.4076,-100.719 69.9662,-55.7023 71.9934,-30.0582"/>
<polygon fill="midnightblue" stroke="midnightblue" points="75.5062,-30.0333 72.8053,-19.7885 68.528,-29.4816 75.5062,-30.0333"/>
</g>
<!-- Node9 -->
<g id="node10" class="node"><title>Node9</title>
<g id="a_node10"><a xlink:href="_f_o_r_b_8h.html" target="_top" xlink:title="../Thirdparty/DBoW2\l/DBoW2/FORB.h">
<polygon fill="white" stroke="black" points="1022,-190.5 1022,-220.5 1129,-220.5 1129,-190.5 1022,-190.5"/>
<text text-anchor="start" x="1030" y="-208.5" font-family="Helvetica,sans-Serif" font-size="10.00">../Thirdparty/DBoW2</text>
<text text-anchor="middle" x="1075.5" y="-197.5" font-family="Helvetica,sans-Serif" font-size="10.00">/DBoW2/FORB.h</text>
</a>
</g>
</g>
<!-- Node8&#45;&gt;Node9 -->
<g id="edge15" class="edge"><title>Node8&#45;&gt;Node9</title>
<path fill="none" stroke="midnightblue" d="M924.717,-257.475C950.558,-248.739 991.472,-234.907 1024.16,-223.855"/>
<polygon fill="midnightblue" stroke="midnightblue" points="1025.67,-227.041 1034.02,-220.523 1023.43,-220.41 1025.67,-227.041"/>
</g>
<!-- Node13 -->
<g id="node14" class="node"><title>Node13</title>
<g id="a_node14"><a xlink:href="_templated_vocabulary_8h.html" target="_top" xlink:title="../Thirdparty/DBoW2\l/DBoW2/TemplatedVocabulary.h">
<polygon fill="white" stroke="black" points="587.5,-190.5 587.5,-220.5 747.5,-220.5 747.5,-190.5 587.5,-190.5"/>
<text text-anchor="start" x="595.5" y="-208.5" font-family="Helvetica,sans-Serif" font-size="10.00">../Thirdparty/DBoW2</text>
<text text-anchor="middle" x="667.5" y="-197.5" font-family="Helvetica,sans-Serif" font-size="10.00">/DBoW2/TemplatedVocabulary.h</text>
</a>
</g>
</g>
<!-- Node8&#45;&gt;Node13 -->
<g id="edge23" class="edge"><title>Node8&#45;&gt;Node13</title>
<path fill="none" stroke="midnightblue" d="M866.26,-257.475C831.388,-248.532 775.696,-234.249 732.124,-223.074"/>
<polygon fill="midnightblue" stroke="midnightblue" points="732.734,-219.617 722.178,-220.523 730.995,-226.398 732.734,-219.617"/>
</g>
<!-- Node9&#45;&gt;Node1 -->
<g id="edge17" class="edge"><title>Node9&#45;&gt;Node1</title>
<path fill="none" stroke="midnightblue" d="M1117.83,-190.302C1134.52,-182.389 1151.95,-170.679 1161.5,-154 1183.14,-116.2 1190.87,-88.1651 1161.5,-56 1130.37,-21.9098 804.853,-13.3571 699.911,-11.4779"/>
<polygon fill="midnightblue" stroke="midnightblue" points="699.679,-7.97355 689.621,-11.3026 699.56,-14.9725 699.679,-7.97355"/>
</g>
<!-- Node9&#45;&gt;Node10 -->
<g id="edge16" class="edge"><title>Node9&#45;&gt;Node10</title>
<path fill="none" stroke="midnightblue" d="M1065.05,-190.411C1057.59,-180.316 1047.36,-166.373 1038.5,-154 1022.7,-131.936 1004.82,-106.247 993.366,-89.6996"/>
<polygon fill="midnightblue" stroke="midnightblue" points="995.994,-87.3457 987.429,-81.1093 990.236,-91.3257 995.994,-87.3457"/>
</g>
<!-- Node11 -->
<g id="node12" class="node"><title>Node11</title>
<polygon fill="white" stroke="#bfbfbf" points="1111,-62 1111,-81 1152,-81 1152,-62 1111,-62"/>
<text text-anchor="middle" x="1131.5" y="-69" font-family="Helvetica,sans-Serif" font-size="10.00">string</text>
</g>
<!-- Node9&#45;&gt;Node11 -->
<g id="edge18" class="edge"><title>Node9&#45;&gt;Node11</title>
<path fill="none" stroke="midnightblue" d="M1106.84,-190.44C1121.42,-182.105 1137.31,-170.009 1145.5,-154 1155.79,-133.89 1148.14,-107.713 1140.72,-90.5229"/>
<polygon fill="midnightblue" stroke="midnightblue" points="1143.72,-88.6717 1136.29,-81.1159 1137.38,-91.6541 1143.72,-88.6717"/>
</g>
<!-- Node12 -->
<g id="node13" class="node"><title>Node12</title>
<g id="a_node13"><a xlink:href="_f_class_8h.html" target="_top" xlink:title="FClass.h">
<polygon fill="white" stroke="black" points="1047.5,-129 1047.5,-148 1103.5,-148 1103.5,-129 1047.5,-129"/>
<text text-anchor="middle" x="1075.5" y="-136" font-family="Helvetica,sans-Serif" font-size="10.00">FClass.h</text>
</a>
</g>
</g>
<!-- Node9&#45;&gt;Node12 -->
<g id="edge19" class="edge"><title>Node9&#45;&gt;Node12</title>
<path fill="none" stroke="midnightblue" d="M1075.5,-190.396C1075.5,-181.064 1075.5,-168.714 1075.5,-158.517"/>
<polygon fill="midnightblue" stroke="midnightblue" points="1079,-158.195 1075.5,-148.195 1072,-158.195 1079,-158.195"/>
</g>
<!-- Node12&#45;&gt;Node1 -->
<g id="edge21" class="edge"><title>Node12&#45;&gt;Node1</title>
<path fill="none" stroke="midnightblue" d="M1075.47,-128.952C1074.9,-112.043 1071.02,-74.3717 1048.5,-56 995.462,-12.7379 782.021,-9.93578 699.911,-10.5128"/>
<polygon fill="midnightblue" stroke="midnightblue" points="699.639,-7.01502 689.672,-10.6075 699.704,-14.0147 699.639,-7.01502"/>
</g>
<!-- Node12&#45;&gt;Node10 -->
<g id="edge20" class="edge"><title>Node12&#45;&gt;Node10</title>
<path fill="none" stroke="midnightblue" d="M1062.82,-128.734C1047.32,-118.013 1020.86,-99.7165 1002.34,-86.9137"/>
<polygon fill="midnightblue" stroke="midnightblue" points="1004.19,-83.9361 993.976,-81.1273 1000.21,-89.6937 1004.19,-83.9361"/>
</g>
<!-- Node12&#45;&gt;Node11 -->
<g id="edge22" class="edge"><title>Node12&#45;&gt;Node11</title>
<path fill="none" stroke="midnightblue" d="M1083.05,-128.734C1091.78,-118.598 1106.35,-101.69 1117.24,-89.0556"/>
<polygon fill="midnightblue" stroke="midnightblue" points="1120.19,-90.9879 1124.07,-81.1273 1114.89,-86.4189 1120.19,-90.9879"/>
</g>
<!-- Node13&#45;&gt;Node1 -->
<g id="edge25" class="edge"><title>Node13&#45;&gt;Node1</title>
<path fill="none" stroke="midnightblue" d="M667.5,-190.271C667.5,-155.944 667.5,-68.5659 667.5,-29.9001"/>
<polygon fill="midnightblue" stroke="midnightblue" points="671,-29.5769 667.5,-19.5769 664,-29.5769 671,-29.5769"/>
</g>
<!-- Node13&#45;&gt;Node4 -->
<g id="edge33" class="edge"><title>Node13&#45;&gt;Node4</title>
<path fill="none" stroke="midnightblue" d="M587.065,-203.62C481.422,-200.988 303.153,-191.005 250.5,-154 231.256,-140.476 220.542,-115.218 214.937,-96.3897"/>
<polygon fill="midnightblue" stroke="midnightblue" points="218.309,-95.4511 212.328,-86.7066 211.551,-97.2729 218.309,-95.4511"/>
</g>
<!-- Node13&#45;&gt;Node7 -->
<g id="edge32" class="edge"><title>Node13&#45;&gt;Node7</title>
<path fill="none" stroke="midnightblue" d="M587.293,-195.869C469.548,-183.197 251.552,-159.737 137.469,-147.46"/>
<polygon fill="midnightblue" stroke="midnightblue" points="137.746,-143.97 127.429,-146.38 136.997,-150.93 137.746,-143.97"/>
</g>
<!-- Node13&#45;&gt;Node10 -->
<g id="edge30" class="edge"><title>Node13&#45;&gt;Node10</title>
<path fill="none" stroke="midnightblue" d="M747.687,-195.47C790.585,-188.349 843.316,-175.819 886.5,-154 903.774,-145.272 943.003,-109.233 965.271,-88.114"/>
<polygon fill="midnightblue" stroke="midnightblue" points="967.817,-90.5224 972.635,-81.0867 962.984,-85.458 967.817,-90.5224"/>
</g>
<!-- Node13&#45;&gt;Node11 -->
<g id="edge28" class="edge"><title>Node13&#45;&gt;Node11</title>
<path fill="none" stroke="midnightblue" d="M747.946,-200.35C868.77,-193.38 1085.86,-177.717 1112.5,-154 1130.02,-138.407 1133,-110.076 1132.81,-91.2699"/>
<polygon fill="midnightblue" stroke="midnightblue" points="1136.3,-91.0775 1132.4,-81.2278 1129.31,-91.3617 1136.3,-91.0775"/>
</g>
<!-- Node14 -->
<g id="node15" class="node"><title>Node14</title>
<polygon fill="white" stroke="#bfbfbf" points="521,-129 521,-148 570,-148 570,-129 521,-129"/>
<text text-anchor="middle" x="545.5" y="-136" font-family="Helvetica,sans-Serif" font-size="10.00">cassert</text>
</g>
<!-- Node13&#45;&gt;Node14 -->
<g id="edge24" class="edge"><title>Node13&#45;&gt;Node14</title>
<path fill="none" stroke="midnightblue" d="M641.028,-190.396C620.095,-179.243 591.074,-163.781 570.526,-152.834"/>
<polygon fill="midnightblue" stroke="midnightblue" points="571.938,-149.62 561.467,-148.007 568.647,-155.798 571.938,-149.62"/>
</g>
<!-- Node15 -->
<g id="node16" class="node"><title>Node15</title>
<polygon fill="white" stroke="#bfbfbf" points="588,-129 588,-148 639,-148 639,-129 588,-129"/>
<text text-anchor="middle" x="613.5" y="-136" font-family="Helvetica,sans-Serif" font-size="10.00">numeric</text>
</g>
<!-- Node13&#45;&gt;Node15 -->
<g id="edge26" class="edge"><title>Node13&#45;&gt;Node15</title>
<path fill="none" stroke="midnightblue" d="M655.783,-190.396C647.363,-180.261 635.987,-166.567 627.155,-155.937"/>
<polygon fill="midnightblue" stroke="midnightblue" points="629.806,-153.65 620.723,-148.195 624.421,-158.123 629.806,-153.65"/>
</g>
<!-- Node16 -->
<g id="node17" class="node"><title>Node16</title>
<polygon fill="white" stroke="#bfbfbf" points="695.5,-129 695.5,-148 745.5,-148 745.5,-129 695.5,-129"/>
<text text-anchor="middle" x="720.5" y="-136" font-family="Helvetica,sans-Serif" font-size="10.00">fstream</text>
</g>
<!-- Node13&#45;&gt;Node16 -->
<g id="edge27" class="edge"><title>Node13&#45;&gt;Node16</title>
<path fill="none" stroke="midnightblue" d="M679,-190.396C687.182,-180.361 698.209,-166.838 706.839,-156.253"/>
<polygon fill="midnightblue" stroke="midnightblue" points="709.804,-158.157 713.411,-148.195 704.379,-153.733 709.804,-158.157"/>
</g>
<!-- Node17 -->
<g id="node18" class="node"><title>Node17</title>
<polygon fill="white" stroke="#bfbfbf" points="763.5,-129 763.5,-148 819.5,-148 819.5,-129 763.5,-129"/>
<text text-anchor="middle" x="791.5" y="-136" font-family="Helvetica,sans-Serif" font-size="10.00">algorithm</text>
</g>
<!-- Node13&#45;&gt;Node17 -->
<g id="edge29" class="edge"><title>Node13&#45;&gt;Node17</title>
<path fill="none" stroke="midnightblue" d="M694.406,-190.396C715.778,-179.193 745.446,-163.641 766.347,-152.685"/>
<polygon fill="midnightblue" stroke="midnightblue" points="768.039,-155.75 775.271,-148.007 764.789,-149.55 768.039,-155.75"/>
</g>
<!-- Node18 -->
<g id="node19" class="node"><title>Node18</title>
<polygon fill="white" stroke="#bfbfbf" points="837.5,-129 837.5,-148 877.5,-148 877.5,-129 837.5,-129"/>
<text text-anchor="middle" x="857.5" y="-136" font-family="Helvetica,sans-Serif" font-size="10.00">limits</text>
</g>
<!-- Node13&#45;&gt;Node18 -->
<g id="edge31" class="edge"><title>Node13&#45;&gt;Node18</title>
<path fill="none" stroke="midnightblue" d="M719.719,-190.415C751.592,-181.256 792.916,-168.369 828.5,-154 829.704,-153.514 830.926,-152.998 832.154,-152.461"/>
<polygon fill="midnightblue" stroke="midnightblue" points="833.888,-155.513 841.452,-148.095 830.912,-149.177 833.888,-155.513"/>
</g>
<!-- Node19 -->
<g id="node20" class="node"><title>Node19</title>
<g id="a_node20"><a xlink:href="_scoring_object_8h.html" target="_top" xlink:title="ScoringObject.h">
<polygon fill="white" stroke="black" points="259.5,-129 259.5,-148 345.5,-148 345.5,-129 259.5,-129"/>
<text text-anchor="middle" x="302.5" y="-136" font-family="Helvetica,sans-Serif" font-size="10.00">ScoringObject.h</text>
</a>
</g>
</g>
<!-- Node13&#45;&gt;Node19 -->
<g id="edge34" class="edge"><title>Node13&#45;&gt;Node19</title>
<path fill="none" stroke="midnightblue" d="M588.75,-190.476C518.322,-177.934 417.026,-159.895 355.725,-148.978"/>
<polygon fill="midnightblue" stroke="midnightblue" points="355.96,-145.465 345.501,-147.158 354.733,-152.357 355.96,-145.465"/>
</g>
<!-- Node20 -->
<g id="node21" class="node"><title>Node20</title>
<g id="a_node21"><a xlink:href="_random_8h.html" target="_top" xlink:title="../DUtils/Random.h">
<polygon fill="white" stroke="black" points="402,-129 402,-148 503,-148 503,-129 402,-129"/>
<text text-anchor="middle" x="452.5" y="-136" font-family="Helvetica,sans-Serif" font-size="10.00">../DUtils/Random.h</text>
</a>
</g>
</g>
<!-- Node13&#45;&gt;Node20 -->
<g id="edge36" class="edge"><title>Node13&#45;&gt;Node20</title>
<path fill="none" stroke="midnightblue" d="M621.113,-190.476C582.071,-178.673 526.926,-162.001 490.469,-150.979"/>
<polygon fill="midnightblue" stroke="midnightblue" points="491.295,-147.572 480.71,-148.029 489.269,-154.273 491.295,-147.572"/>
</g>
<!-- Node19&#45;&gt;Node4 -->
<g id="edge35" class="edge"><title>Node19&#45;&gt;Node4</title>
<path fill="none" stroke="midnightblue" d="M289.958,-128.734C276.785,-119.527 255.618,-104.733 238.3,-92.6293"/>
<polygon fill="midnightblue" stroke="midnightblue" points="239.86,-89.449 229.658,-86.589 235.85,-95.1865 239.86,-89.449"/>
</g>
<!-- Node20&#45;&gt;Node1 -->
<g id="edge38" class="edge"><title>Node20&#45;&gt;Node1</title>
<path fill="none" stroke="midnightblue" d="M467.278,-128.805C504.035,-107.178 599.815,-50.8239 644.242,-24.6843"/>
<polygon fill="midnightblue" stroke="midnightblue" points="646.059,-27.6762 652.903,-19.5884 642.509,-21.643 646.059,-27.6762"/>
</g>
<!-- Node21 -->
<g id="node22" class="node"><title>Node21</title>
<polygon fill="white" stroke="#bfbfbf" points="430,-62 430,-81 475,-81 475,-62 430,-62"/>
<text text-anchor="middle" x="452.5" y="-69" font-family="Helvetica,sans-Serif" font-size="10.00">cstdlib</text>
</g>
<!-- Node20&#45;&gt;Node21 -->
<g id="edge37" class="edge"><title>Node20&#45;&gt;Node21</title>
<path fill="none" stroke="midnightblue" d="M452.5,-128.734C452.5,-119.183 452.5,-103.618 452.5,-91.2829"/>
<polygon fill="midnightblue" stroke="midnightblue" points="456,-91.1273 452.5,-81.1273 449,-91.1273 456,-91.1273"/>
</g>
<!-- Node22&#45;&gt;Node1 -->
<g id="edge40" class="edge"><title>Node22&#45;&gt;Node1</title>
<path fill="none" stroke="midnightblue" d="M603.844,-322.48C527.062,-320.873 373.5,-305.309 373.5,-206.5 373.5,-206.5 373.5,-206.5 373.5,-137.5 373.5,-95.6862 386.322,-80.089 420.5,-56 454.627,-31.9466 576.001,-18.6928 634.929,-13.5453"/>
<polygon fill="midnightblue" stroke="midnightblue" points="635.501,-17.0094 645.17,-12.6777 634.911,-10.0344 635.501,-17.0094"/>
</g>
<!-- Node22&#45;&gt;Node10 -->
<g id="edge42" class="edge"><title>Node22&#45;&gt;Node10</title>
<path fill="none" stroke="midnightblue" d="M659.341,-313.422C678.273,-300.828 714.856,-276.694 746.5,-257 822.473,-209.718 852.743,-213.59 919.5,-154 940.874,-134.921 959.907,-107.565 971.077,-89.9144"/>
<polygon fill="midnightblue" stroke="midnightblue" points="974.168,-91.5698 976.438,-81.221 968.21,-87.8955 974.168,-91.5698"/>
</g>
<!-- Node23 -->
<g id="node24" class="node"><title>Node23</title>
<polygon fill="white" stroke="#bfbfbf" points="756,-257.5 756,-276.5 785,-276.5 785,-257.5 756,-257.5"/>
<text text-anchor="middle" x="770.5" y="-264.5" font-family="Helvetica,sans-Serif" font-size="10.00">list</text>
</g>
<!-- Node22&#45;&gt;Node23 -->
<g id="edge41" class="edge"><title>Node22&#45;&gt;Node23</title>
<path fill="none" stroke="midnightblue" d="M666.148,-313.444C688.018,-303.92 723.355,-288.531 746.756,-278.34"/>
<polygon fill="midnightblue" stroke="midnightblue" points="748.21,-281.525 755.981,-274.323 745.415,-275.107 748.21,-281.525"/>
</g>
<!-- Node24&#45;&gt;Node0 -->
<g id="edge49" class="edge"><title>Node24&#45;&gt;Node0</title>
<path fill="none" stroke="midnightblue" d="M846.292,-332.619C859.152,-349.388 887.057,-388.01 901.5,-425 910.725,-448.627 910.044,-455.755 912.5,-481 913.361,-489.847 915.522,-492.641 912.5,-501 908.622,-511.727 901.362,-521.782 893.955,-530.052"/>
<polygon fill="midnightblue" stroke="midnightblue" points="891.307,-527.756 886.914,-537.397 896.361,-532.6 891.307,-527.756"/>
</g>
<!-- Node24&#45;&gt;Node1 -->
<g id="edge45" class="edge"><title>Node24&#45;&gt;Node1</title>
<path fill="none" stroke="midnightblue" d="M864.499,-313.348C888.428,-304.841 925.383,-291.114 956.5,-277 973.881,-269.116 976.67,-263.808 994.5,-257 1056.13,-233.469 1084.71,-259.188 1138.5,-221 1200.48,-176.999 1234.86,-112.035 1183.5,-56 1150.79,-20.3104 807.959,-12.8221 699.919,-11.3439"/>
<polygon fill="midnightblue" stroke="midnightblue" points="699.685,-7.84069 689.64,-11.212 699.595,-14.8401 699.685,-7.84069"/>
</g>
<!-- Node24&#45;&gt;Node3 -->
<g id="edge48" class="edge"><title>Node24&#45;&gt;Node3</title>
<path fill="none" stroke="midnightblue" d="M830.907,-332.834C819.483,-341.342 799.541,-354.339 782.925,-364.21"/>
<polygon fill="midnightblue" stroke="midnightblue" points="781.004,-361.278 774.111,-369.324 784.517,-367.333 781.004,-361.278"/>
</g>
<!-- Node24&#45;&gt;Node8 -->
<g id="edge50" class="edge"><title>Node24&#45;&gt;Node8</title>
<path fill="none" stroke="midnightblue" d="M849.14,-313.324C858.01,-305.341 871.375,-293.313 882.108,-283.653"/>
<polygon fill="midnightblue" stroke="midnightblue" points="884.593,-286.125 889.685,-276.834 879.91,-280.922 884.593,-286.125"/>
</g>
<!-- Node24&#45;&gt;Node23 -->
<g id="edge46" class="edge"><title>Node24&#45;&gt;Node23</title>
<path fill="none" stroke="midnightblue" d="M828.414,-313.324C818.014,-305.185 802.239,-292.839 789.778,-283.087"/>
<polygon fill="midnightblue" stroke="midnightblue" points="791.82,-280.241 781.788,-276.834 787.506,-285.753 791.82,-280.241"/>
</g>
<!-- Node25 -->
<g id="node26" class="node"><title>Node25</title>
<polygon fill="white" stroke="#bfbfbf" points="803.5,-257.5 803.5,-276.5 833.5,-276.5 833.5,-257.5 803.5,-257.5"/>
<text text-anchor="middle" x="818.5" y="-264.5" font-family="Helvetica,sans-Serif" font-size="10.00">set</text>
</g>
<!-- Node24&#45;&gt;Node25 -->
<g id="edge47" class="edge"><title>Node24&#45;&gt;Node25</title>
<path fill="none" stroke="midnightblue" d="M836.032,-313.083C833.188,-305.77 829.071,-295.181 825.54,-286.103"/>
<polygon fill="midnightblue" stroke="midnightblue" points="828.79,-284.803 821.903,-276.751 822.266,-287.34 828.79,-284.803"/>
</g>
<!-- Node24&#45;&gt;Node26 -->
<g id="edge51" class="edge"><title>Node24&#45;&gt;Node26</title>
<path fill="none" stroke="midnightblue" d="M868.972,-313.444C903.002,-303.564 958.769,-287.373 993.74,-277.221"/>
<polygon fill="midnightblue" stroke="midnightblue" points="994.819,-280.552 1003.45,-274.403 992.867,-273.83 994.819,-280.552"/>
</g>
<!-- Node27&#45;&gt;Node2 -->
<g id="edge55" class="edge"><title>Node27&#45;&gt;Node2</title>
<path fill="none" stroke="midnightblue" d="M875.631,-444.751C877.157,-451.858 877.604,-462.136 876.972,-471.101"/>
<polygon fill="midnightblue" stroke="midnightblue" points="873.493,-470.713 875.666,-481.083 880.434,-471.622 873.493,-470.713"/>
</g>
<!-- Node27&#45;&gt;Node3 -->
<g id="edge56" class="edge"><title>Node27&#45;&gt;Node3</title>
<path fill="none" stroke="midnightblue" d="M852.278,-425.444C833.604,-416.675 804.344,-402.935 782.883,-392.858"/>
<polygon fill="midnightblue" stroke="midnightblue" points="784.176,-389.599 773.637,-388.516 781.201,-395.935 784.176,-389.599"/>
</g>
<!-- Node27&#45;&gt;Node25 -->
<g id="edge57" class="edge"><title>Node27&#45;&gt;Node25</title>
<path fill="none" stroke="midnightblue" d="M860.697,-425.443C838.095,-405.457 783.563,-355.691 774.5,-333 766.994,-314.207 783.002,-295.345 797.769,-282.818"/>
<polygon fill="midnightblue" stroke="midnightblue" points="800.019,-285.501 805.689,-276.55 795.675,-280.012 800.019,-285.501"/>
</g>
<!-- Node27&#45;&gt;Node26 -->
<g id="edge58" class="edge"><title>Node27&#45;&gt;Node26</title>
<path fill="none" stroke="midnightblue" d="M878.833,-425.075C903.866,-398.267 978.636,-318.19 1010.67,-283.885"/>
<polygon fill="midnightblue" stroke="midnightblue" points="1013.23,-286.266 1017.5,-276.568 1008.12,-281.489 1013.23,-286.266"/>
</g>
</g>
</svg>
