<?xml version="1.0" encoding="UTF-8" standalone="no"?>
<!DOCTYPE svg PUBLIC "-//W3C//DTD SVG 1.1//EN"
 "http://www.w3.org/Graphics/SVG/1.1/DTD/svg11.dtd">
<!-- Generated by graphviz version 2.38.0 (20140413.2041)
 -->
<!-- Title: /home/alejandro/Desarrollo eclipse/os1/include/Initializer.h Pages: 1 -->
<svg width="2065pt" height="419pt"
 viewBox="0.00 0.00 2064.50 419.00" xmlns="http://www.w3.org/2000/svg" xmlns:xlink="http://www.w3.org/1999/xlink">
<g id="graph0" class="graph" transform="scale(1 1) rotate(0) translate(4 415)">
<title>/home/alejandro/Desarrollo eclipse/os1/include/Initializer.h</title>
<polygon fill="white" stroke="none" points="-4,4 -4,-415 2060.5,-415 2060.5,4 -4,4"/>
<!-- Node0 -->
<g id="node1" class="node"><title>Node0</title>
<polygon fill="#bfbfbf" stroke="black" points="570,-380.5 570,-410.5 723,-410.5 723,-380.5 570,-380.5"/>
<text text-anchor="start" x="578" y="-398.5" font-family="Helvetica,sans-Serif" font-size="10.00">/home/alejandro/Desarrollo</text>
<text text-anchor="middle" x="646.5" y="-387.5" font-family="Helvetica,sans-Serif" font-size="10.00"> eclipse/os1/include/Initializer.h</text>
</g>
<!-- Node1 -->
<g id="node2" class="node"><title>Node1</title>
<polygon fill="white" stroke="#bfbfbf" points="0,-257.5 0,-276.5 107,-276.5 107,-257.5 0,-257.5"/>
<text text-anchor="middle" x="53.5" y="-264.5" font-family="Helvetica,sans-Serif" font-size="10.00">opencv2/opencv.hpp</text>
</g>
<!-- Node0&#45;&gt;Node1 -->
<g id="edge1" class="edge"><title>Node0&#45;&gt;Node1</title>
<path fill="none" stroke="midnightblue" d="M569.966,-381.106C467.333,-362.66 279.694,-327.232 121.5,-288 111.288,-285.467 100.312,-282.396 90.222,-279.427"/>
<polygon fill="midnightblue" stroke="midnightblue" points="91.0715,-276.028 80.4879,-276.517 89.0664,-282.735 91.0715,-276.028"/>
</g>
<!-- Node2 -->
<g id="node3" class="node"><title>Node2</title>
<g id="a_node3"><a xlink:href="_frame_8h.html" target="_top" xlink:title="Frame.h">
<polygon fill="white" stroke="black" points="836,-324.5 836,-343.5 889,-343.5 889,-324.5 836,-324.5"/>
<text text-anchor="middle" x="862.5" y="-331.5" font-family="Helvetica,sans-Serif" font-size="10.00">Frame.h</text>
</a>
</g>
</g>
<!-- Node0&#45;&gt;Node2 -->
<g id="edge2" class="edge"><title>Node0&#45;&gt;Node2</title>
<path fill="none" stroke="midnightblue" d="M697.415,-380.475C736.92,-369.593 790.725,-354.771 826.018,-345.049"/>
<polygon fill="midnightblue" stroke="midnightblue" points="827.186,-348.358 835.897,-342.328 825.327,-341.609 827.186,-348.358"/>
</g>
<!-- Node2&#45;&gt;Node1 -->
<g id="edge57" class="edge"><title>Node2&#45;&gt;Node1</title>
<path fill="none" stroke="midnightblue" d="M835.792,-332.185C720.267,-328.537 263.051,-312.787 121.5,-288 110.294,-286.038 98.3125,-282.884 87.5779,-279.656"/>
<polygon fill="midnightblue" stroke="midnightblue" points="88.3229,-276.222 77.7339,-276.574 86.2315,-282.902 88.3229,-276.222"/>
</g>
<!-- Node3 -->
<g id="node4" class="node"><title>Node3</title>
<polygon fill="white" stroke="#bfbfbf" points="474.5,-67.5 474.5,-86.5 518.5,-86.5 518.5,-67.5 474.5,-67.5"/>
<text text-anchor="middle" x="496.5" y="-74.5" font-family="Helvetica,sans-Serif" font-size="10.00">vector</text>
</g>
<!-- Node2&#45;&gt;Node3 -->
<g id="edge3" class="edge"><title>Node2&#45;&gt;Node3</title>
<path fill="none" stroke="midnightblue" d="M835.72,-332.885C739.68,-332.152 413.181,-326.797 317.5,-288 230.591,-252.76 194.561,-238.795 154.5,-154 148.614,-141.543 145.415,-133.358 154.5,-123 174.789,-99.8665 382.928,-84.8736 464.22,-79.8605"/>
<polygon fill="midnightblue" stroke="midnightblue" points="464.604,-83.3438 474.374,-79.2458 464.181,-76.3566 464.604,-83.3438"/>
</g>
<!-- Node4 -->
<g id="node5" class="node"><title>Node4</title>
<g id="a_node5"><a xlink:href="_map_point_8h.html" target="_top" xlink:title="MapPoint.h">
<polygon fill="white" stroke="black" points="463.5,-257.5 463.5,-276.5 529.5,-276.5 529.5,-257.5 463.5,-257.5"/>
<text text-anchor="middle" x="496.5" y="-264.5" font-family="Helvetica,sans-Serif" font-size="10.00">MapPoint.h</text>
</a>
</g>
</g>
<!-- Node2&#45;&gt;Node4 -->
<g id="edge4" class="edge"><title>Node2&#45;&gt;Node4</title>
<path fill="none" stroke="midnightblue" d="M835.851,-332.252C778.271,-329.957 639.658,-321.018 529.5,-288 523.843,-286.304 517.991,-283.946 512.726,-281.441"/>
<polygon fill="midnightblue" stroke="midnightblue" points="514.01,-278.16 503.533,-276.58 510.738,-284.349 514.01,-278.16"/>
</g>
<!-- Node6 -->
<g id="node7" class="node"><title>Node6</title>
<polygon fill="white" stroke="#bfbfbf" points="164,-123.5 164,-153.5 277,-153.5 277,-123.5 164,-123.5"/>
<text text-anchor="start" x="172" y="-141.5" font-family="Helvetica,sans-Serif" font-size="10.00">../Thirdparty/DBoW2</text>
<text text-anchor="middle" x="220.5" y="-130.5" font-family="Helvetica,sans-Serif" font-size="10.00">/DBoW2/BowVector.h</text>
</g>
<!-- Node2&#45;&gt;Node6 -->
<g id="edge54" class="edge"><title>Node2&#45;&gt;Node6</title>
<path fill="none" stroke="midnightblue" d="M835.828,-332.637C748.037,-331.109 469.049,-323.506 387.5,-288 322.241,-259.587 264.753,-195.636 237.411,-161.673"/>
<polygon fill="midnightblue" stroke="midnightblue" points="240.072,-159.395 231.122,-153.724 234.582,-163.738 240.072,-159.395"/>
</g>
<!-- Node7 -->
<g id="node8" class="node"><title>Node7</title>
<polygon fill="white" stroke="#bfbfbf" points="295,-123.5 295,-153.5 422,-153.5 422,-123.5 295,-123.5"/>
<text text-anchor="start" x="303" y="-141.5" font-family="Helvetica,sans-Serif" font-size="10.00">../Thirdparty/DBoW2</text>
<text text-anchor="middle" x="358.5" y="-130.5" font-family="Helvetica,sans-Serif" font-size="10.00">/DBoW2/FeatureVector.h</text>
</g>
<!-- Node2&#45;&gt;Node7 -->
<g id="edge55" class="edge"><title>Node2&#45;&gt;Node7</title>
<path fill="none" stroke="midnightblue" d="M835.963,-331.797C746.379,-327.529 458.866,-312.062 425.5,-288 384.513,-258.442 368.102,-197.811 361.928,-163.876"/>
<polygon fill="midnightblue" stroke="midnightblue" points="365.357,-163.16 360.264,-153.869 358.452,-164.308 365.357,-163.16"/>
</g>
<!-- Node8 -->
<g id="node9" class="node"><title>Node8</title>
<g id="a_node9"><a xlink:href="_o_r_b_vocabulary_8h.html" target="_top" xlink:title="ORBVocabulary.h">
<polygon fill="white" stroke="black" points="856,-67.5 856,-86.5 951,-86.5 951,-67.5 856,-67.5"/>
<text text-anchor="middle" x="903.5" y="-74.5" font-family="Helvetica,sans-Serif" font-size="10.00">ORBVocabulary.h</text>
</a>
</g>
</g>
<!-- Node2&#45;&gt;Node8 -->
<g id="edge56" class="edge"><title>Node2&#45;&gt;Node8</title>
<path fill="none" stroke="midnightblue" d="M889.161,-332.938C1053.42,-332.432 1922.23,-327.873 1960.5,-288 2104.44,-138.043 1202.22,-90.1952 961.45,-80.1737"/>
<polygon fill="midnightblue" stroke="midnightblue" points="961.291,-76.6643 951.156,-79.7516 961.004,-83.6585 961.291,-76.6643"/>
</g>
<!-- Node13 -->
<g id="node14" class="node"><title>Node13</title>
<polygon fill="white" stroke="#bfbfbf" points="1940.5,-67.5 1940.5,-86.5 2056.5,-86.5 2056.5,-67.5 1940.5,-67.5"/>
<text text-anchor="middle" x="1998.5" y="-74.5" font-family="Helvetica,sans-Serif" font-size="10.00">opencv2/core/core.hpp</text>
</g>
<!-- Node2&#45;&gt;Node13 -->
<g id="edge42" class="edge"><title>Node2&#45;&gt;Node13</title>
<path fill="none" stroke="midnightblue" d="M889.088,-332.917C1054.85,-332.28 1940.83,-327.052 1981.5,-288 2034.19,-237.41 2015.02,-137.966 2004.04,-96.6675"/>
<polygon fill="midnightblue" stroke="midnightblue" points="2007.36,-95.54 2001.29,-86.8569 2000.62,-97.4306 2007.36,-95.54"/>
</g>
<!-- Node20 -->
<g id="node21" class="node"><title>Node20</title>
<polygon fill="white" stroke="#bfbfbf" points="547.5,-257.5 547.5,-276.5 601.5,-276.5 601.5,-257.5 547.5,-257.5"/>
<text text-anchor="middle" x="574.5" y="-264.5" font-family="Helvetica,sans-Serif" font-size="10.00">iostream</text>
</g>
<!-- Node2&#45;&gt;Node20 -->
<g id="edge39" class="edge"><title>Node2&#45;&gt;Node20</title>
<path fill="none" stroke="midnightblue" d="M835.781,-331.011C789.127,-326.928 690.272,-315.552 611.5,-288 606.671,-286.311 601.714,-284.048 597.06,-281.653"/>
<polygon fill="midnightblue" stroke="midnightblue" points="598.519,-278.46 588.073,-276.69 595.135,-284.588 598.519,-278.46"/>
</g>
<!-- Node21 -->
<g id="node22" class="node"><title>Node21</title>
<polygon fill="white" stroke="#bfbfbf" points="620,-257.5 620,-276.5 655,-276.5 655,-257.5 620,-257.5"/>
<text text-anchor="middle" x="637.5" y="-264.5" font-family="Helvetica,sans-Serif" font-size="10.00">map</text>
</g>
<!-- Node2&#45;&gt;Node21 -->
<g id="edge40" class="edge"><title>Node2&#45;&gt;Node21</title>
<path fill="none" stroke="midnightblue" d="M835.756,-330.458C796.626,-325.971 722.163,-314.481 664.5,-288 661.425,-286.588 658.358,-284.789 655.452,-282.851"/>
<polygon fill="midnightblue" stroke="midnightblue" points="657.494,-280.008 647.376,-276.868 653.328,-285.633 657.494,-280.008"/>
</g>
<!-- Node22 -->
<g id="node23" class="node"><title>Node22</title>
<polygon fill="white" stroke="#bfbfbf" points="673,-246.5 673,-287.5 824,-287.5 824,-246.5 673,-246.5"/>
<text text-anchor="start" x="681" y="-275.5" font-family="Helvetica,sans-Serif" font-size="10.00">/home/alejandro/Desarrollo</text>
<text text-anchor="start" x="681" y="-264.5" font-family="Helvetica,sans-Serif" font-size="10.00"> eclipse/os1/Thirdparty</text>
<text text-anchor="middle" x="748.5" y="-253.5" font-family="Helvetica,sans-Serif" font-size="10.00">/DBoW2/DBoW2/BowVector.h</text>
</g>
<!-- Node2&#45;&gt;Node22 -->
<g id="edge41" class="edge"><title>Node2&#45;&gt;Node22</title>
<path fill="none" stroke="midnightblue" d="M847.125,-324.234C832.895,-316.12 811.055,-303.667 791.54,-292.541"/>
<polygon fill="midnightblue" stroke="midnightblue" points="793.195,-289.455 782.774,-287.542 789.727,-295.536 793.195,-289.455"/>
</g>
<!-- Node23 -->
<g id="node24" class="node"><title>Node23</title>
<polygon fill="white" stroke="#bfbfbf" points="842,-257.5 842,-276.5 883,-276.5 883,-257.5 842,-257.5"/>
<text text-anchor="middle" x="862.5" y="-264.5" font-family="Helvetica,sans-Serif" font-size="10.00">string</text>
</g>
<!-- Node2&#45;&gt;Node23 -->
<g id="edge43" class="edge"><title>Node2&#45;&gt;Node23</title>
<path fill="none" stroke="midnightblue" d="M862.5,-324.234C862.5,-314.683 862.5,-299.118 862.5,-286.783"/>
<polygon fill="midnightblue" stroke="midnightblue" points="866,-286.627 862.5,-276.627 859,-286.627 866,-286.627"/>
</g>
<!-- Node24 -->
<g id="node25" class="node"><title>Node24</title>
<polygon fill="white" stroke="#bfbfbf" points="901.5,-246.5 901.5,-287.5 1035.5,-287.5 1035.5,-246.5 901.5,-246.5"/>
<text text-anchor="start" x="909.5" y="-275.5" font-family="Helvetica,sans-Serif" font-size="10.00">/home/alejandro/Desarrollo</text>
<text text-anchor="start" x="909.5" y="-264.5" font-family="Helvetica,sans-Serif" font-size="10.00"> eclipse/os1/Thirdparty</text>
<text text-anchor="middle" x="968.5" y="-253.5" font-family="Helvetica,sans-Serif" font-size="10.00">/DBoW2/DBoW2/FClass.h</text>
</g>
<!-- Node2&#45;&gt;Node24 -->
<g id="edge44" class="edge"><title>Node2&#45;&gt;Node24</title>
<path fill="none" stroke="midnightblue" d="M876.796,-324.234C889.908,-316.193 909.97,-303.891 927.989,-292.842"/>
<polygon fill="midnightblue" stroke="midnightblue" points="929.936,-295.753 936.631,-287.542 926.277,-289.786 929.936,-295.753"/>
</g>
<!-- Node25 -->
<g id="node26" class="node"><title>Node25</title>
<polygon fill="white" stroke="#bfbfbf" points="1054,-257.5 1054,-276.5 1103,-276.5 1103,-257.5 1054,-257.5"/>
<text text-anchor="middle" x="1078.5" y="-264.5" font-family="Helvetica,sans-Serif" font-size="10.00">cassert</text>
</g>
<!-- Node2&#45;&gt;Node25 -->
<g id="edge45" class="edge"><title>Node2&#45;&gt;Node25</title>
<path fill="none" stroke="midnightblue" d="M889.171,-328.898C925.322,-322.784 991.452,-309.623 1044.5,-288 1048.83,-286.237 1053.26,-283.993 1057.44,-281.65"/>
<polygon fill="midnightblue" stroke="midnightblue" points="1059.25,-284.646 1066.04,-276.51 1055.66,-278.638 1059.25,-284.646"/>
</g>
<!-- Node26 -->
<g id="node27" class="node"><title>Node26</title>
<polygon fill="white" stroke="#bfbfbf" points="1121,-257.5 1121,-276.5 1172,-276.5 1172,-257.5 1121,-257.5"/>
<text text-anchor="middle" x="1146.5" y="-264.5" font-family="Helvetica,sans-Serif" font-size="10.00">numeric</text>
</g>
<!-- Node2&#45;&gt;Node26 -->
<g id="edge46" class="edge"><title>Node2&#45;&gt;Node26</title>
<path fill="none" stroke="midnightblue" d="M889.219,-331.289C935.85,-327.632 1034.55,-316.888 1112.5,-288 1116.95,-286.349 1121.49,-284.124 1125.74,-281.757"/>
<polygon fill="midnightblue" stroke="midnightblue" points="1127.67,-284.678 1134.43,-276.518 1124.06,-278.683 1127.67,-284.678"/>
</g>
<!-- Node27 -->
<g id="node28" class="node"><title>Node27</title>
<polygon fill="white" stroke="#bfbfbf" points="1190.5,-257.5 1190.5,-276.5 1240.5,-276.5 1240.5,-257.5 1190.5,-257.5"/>
<text text-anchor="middle" x="1215.5" y="-264.5" font-family="Helvetica,sans-Serif" font-size="10.00">fstream</text>
</g>
<!-- Node2&#45;&gt;Node27 -->
<g id="edge47" class="edge"><title>Node2&#45;&gt;Node27</title>
<path fill="none" stroke="midnightblue" d="M889.371,-332.709C945.321,-331.354 1077.74,-324.229 1181.5,-288 1185.99,-286.434 1190.54,-284.248 1194.79,-281.893"/>
<polygon fill="midnightblue" stroke="midnightblue" points="1196.73,-284.81 1203.48,-276.643 1193.11,-278.819 1196.73,-284.81"/>
</g>
<!-- Node28 -->
<g id="node29" class="node"><title>Node28</title>
<polygon fill="white" stroke="#bfbfbf" points="1258.5,-257.5 1258.5,-276.5 1314.5,-276.5 1314.5,-257.5 1258.5,-257.5"/>
<text text-anchor="middle" x="1286.5" y="-264.5" font-family="Helvetica,sans-Serif" font-size="10.00">algorithm</text>
</g>
<!-- Node2&#45;&gt;Node28 -->
<g id="edge48" class="edge"><title>Node2&#45;&gt;Node28</title>
<path fill="none" stroke="midnightblue" d="M889.027,-333.326C952.756,-333.384 1118.88,-329.217 1249.5,-288 1254.46,-286.434 1259.53,-284.191 1264.26,-281.768"/>
<polygon fill="midnightblue" stroke="midnightblue" points="1266.31,-284.629 1273.34,-276.704 1262.9,-278.515 1266.31,-284.629"/>
</g>
<!-- Node29 -->
<g id="node30" class="node"><title>Node29</title>
<polygon fill="white" stroke="#bfbfbf" points="1332.5,-257.5 1332.5,-276.5 1372.5,-276.5 1372.5,-257.5 1332.5,-257.5"/>
<text text-anchor="middle" x="1352.5" y="-264.5" font-family="Helvetica,sans-Serif" font-size="10.00">limits</text>
</g>
<!-- Node2&#45;&gt;Node29 -->
<g id="edge49" class="edge"><title>Node2&#45;&gt;Node29</title>
<path fill="none" stroke="midnightblue" d="M889.128,-332.15C974.841,-329.141 1242.69,-317.547 1323.5,-288 1327.22,-286.639 1330.92,-284.685 1334.36,-282.526"/>
<polygon fill="midnightblue" stroke="midnightblue" points="1336.6,-285.231 1342.74,-276.597 1332.56,-279.517 1336.6,-285.231"/>
</g>
<!-- Node30 -->
<g id="node31" class="node"><title>Node30</title>
<polygon fill="white" stroke="#bfbfbf" points="1390.5,-246.5 1390.5,-287.5 1554.5,-287.5 1554.5,-246.5 1390.5,-246.5"/>
<text text-anchor="start" x="1398.5" y="-275.5" font-family="Helvetica,sans-Serif" font-size="10.00">/home/alejandro/Desarrollo</text>
<text text-anchor="start" x="1398.5" y="-264.5" font-family="Helvetica,sans-Serif" font-size="10.00"> eclipse/os1/Thirdparty</text>
<text text-anchor="middle" x="1472.5" y="-253.5" font-family="Helvetica,sans-Serif" font-size="10.00">/DBoW2/DBoW2/FeatureVector.h</text>
</g>
<!-- Node2&#45;&gt;Node30 -->
<g id="edge50" class="edge"><title>Node2&#45;&gt;Node30</title>
<path fill="none" stroke="midnightblue" d="M889.11,-331.914C964.562,-328.578 1186.43,-316.986 1380.17,-288.101"/>
<polygon fill="midnightblue" stroke="midnightblue" points="1380.88,-291.533 1390.25,-286.578 1379.84,-284.611 1380.88,-291.533"/>
</g>
<!-- Node31 -->
<g id="node32" class="node"><title>Node31</title>
<polygon fill="white" stroke="#bfbfbf" points="1572.5,-246.5 1572.5,-287.5 1736.5,-287.5 1736.5,-246.5 1572.5,-246.5"/>
<text text-anchor="start" x="1580.5" y="-275.5" font-family="Helvetica,sans-Serif" font-size="10.00">/home/alejandro/Desarrollo</text>
<text text-anchor="start" x="1580.5" y="-264.5" font-family="Helvetica,sans-Serif" font-size="10.00"> eclipse/os1/Thirdparty</text>
<text text-anchor="middle" x="1654.5" y="-253.5" font-family="Helvetica,sans-Serif" font-size="10.00">/DBoW2/DBoW2/ScoringObject.h</text>
</g>
<!-- Node2&#45;&gt;Node31 -->
<g id="edge51" class="edge"><title>Node2&#45;&gt;Node31</title>
<path fill="none" stroke="midnightblue" d="M889.067,-332.748C981.062,-331.571 1294.58,-325.021 1562.36,-288.047"/>
<polygon fill="midnightblue" stroke="midnightblue" points="1562.84,-291.513 1572.26,-286.662 1561.87,-284.58 1562.84,-291.513"/>
</g>
<!-- Node32 -->
<g id="node33" class="node"><title>Node32</title>
<polygon fill="white" stroke="#bfbfbf" points="1755,-246.5 1755,-287.5 1888,-287.5 1888,-246.5 1755,-246.5"/>
<text text-anchor="start" x="1763" y="-275.5" font-family="Helvetica,sans-Serif" font-size="10.00">/home/alejandro/Desarrollo</text>
<text text-anchor="start" x="1763" y="-264.5" font-family="Helvetica,sans-Serif" font-size="10.00"> eclipse/os1/Thirdparty</text>
<text text-anchor="middle" x="1821.5" y="-253.5" font-family="Helvetica,sans-Serif" font-size="10.00">/DBoW2/DUtils/Random.h</text>
</g>
<!-- Node2&#45;&gt;Node32 -->
<g id="edge52" class="edge"><title>Node2&#45;&gt;Node32</title>
<path fill="none" stroke="midnightblue" d="M889.402,-332.378C1016.06,-329.335 1554.35,-315.124 1744.78,-287.865"/>
<polygon fill="midnightblue" stroke="midnightblue" points="1745.56,-291.288 1754.94,-286.348 1744.53,-284.365 1745.56,-291.288"/>
</g>
<!-- Node33 -->
<g id="node34" class="node"><title>Node33</title>
<polygon fill="white" stroke="#bfbfbf" points="1906,-257.5 1906,-276.5 1951,-276.5 1951,-257.5 1906,-257.5"/>
<text text-anchor="middle" x="1928.5" y="-264.5" font-family="Helvetica,sans-Serif" font-size="10.00">cstdlib</text>
</g>
<!-- Node2&#45;&gt;Node33 -->
<g id="edge53" class="edge"><title>Node2&#45;&gt;Node33</title>
<path fill="none" stroke="midnightblue" d="M889.31,-332.673C1042.04,-330.696 1798.96,-319.372 1897.5,-288 1901.76,-286.645 1906,-284.543 1909.91,-282.203"/>
<polygon fill="midnightblue" stroke="midnightblue" points="1911.97,-285.035 1918.31,-276.547 1908.06,-279.229 1911.97,-285.035"/>
</g>
<!-- Node4&#45;&gt;Node2 -->
<g id="edge28" class="edge"><title>Node4&#45;&gt;Node2</title>
<path fill="none" stroke="midnightblue" d="M519.679,-276.58C528.408,-280.649 538.217,-285.217 547.5,-288 645.517,-317.379 766.062,-327.694 825.73,-331.227"/>
<polygon fill="midnightblue" stroke="midnightblue" points="825.621,-334.727 835.801,-331.793 826.013,-327.738 825.621,-334.727"/>
</g>
<!-- Node5 -->
<g id="node6" class="node"><title>Node5</title>
<g id="a_node6"><a xlink:href="_key_frame_8h.html" target="_top" xlink:title="KeyFrame.h">
<polygon fill="white" stroke="black" points="461.5,-190.5 461.5,-209.5 531.5,-209.5 531.5,-190.5 461.5,-190.5"/>
<text text-anchor="middle" x="496.5" y="-197.5" font-family="Helvetica,sans-Serif" font-size="10.00">KeyFrame.h</text>
</a>
</g>
</g>
<!-- Node4&#45;&gt;Node5 -->
<g id="edge5" class="edge"><title>Node4&#45;&gt;Node5</title>
<path fill="none" stroke="midnightblue" d="M491.711,-257.234C489.702,-247.683 489.236,-232.118 490.316,-219.783"/>
<polygon fill="midnightblue" stroke="midnightblue" points="493.817,-220.017 491.741,-209.627 486.885,-219.044 493.817,-220.017"/>
</g>
<!-- Node4&#45;&gt;Node13 -->
<g id="edge36" class="edge"><title>Node4&#45;&gt;Node13</title>
<path fill="none" stroke="midnightblue" d="M511.156,-257.405C519.002,-253.227 528.987,-248.564 538.5,-246 726.664,-195.278 781.698,-230.475 975.5,-210 1336.14,-171.899 1766.37,-111.476 1930.41,-87.8901"/>
<polygon fill="midnightblue" stroke="midnightblue" points="1930.96,-91.3468 1940.36,-86.4575 1929.97,-84.4183 1930.96,-91.3468"/>
</g>
<!-- Node16 -->
<g id="node17" class="node"><title>Node16</title>
<polygon fill="white" stroke="#bfbfbf" points="689.5,-67.5 689.5,-86.5 733.5,-86.5 733.5,-67.5 689.5,-67.5"/>
<text text-anchor="middle" x="711.5" y="-74.5" font-family="Helvetica,sans-Serif" font-size="10.00">mutex</text>
</g>
<!-- Node4&#45;&gt;Node16 -->
<g id="edge37" class="edge"><title>Node4&#45;&gt;Node16</title>
<path fill="none" stroke="midnightblue" d="M511.161,-257.425C519.009,-253.252 528.993,-248.588 538.5,-246 627.177,-221.859 871.533,-257.018 950.5,-210 976.131,-194.739 978.915,-182.569 987.5,-154 991.465,-140.805 996.424,-133.497 987.5,-123 971.834,-104.573 813.327,-87.5674 743.845,-80.9353"/>
<polygon fill="midnightblue" stroke="midnightblue" points="744.164,-77.45 733.88,-79.9972 743.508,-84.4192 744.164,-77.45"/>
</g>
<!-- Node17 -->
<g id="node18" class="node"><title>Node17</title>
<g id="a_node18"><a xlink:href="_serializer_8h.html" target="_top" xlink:title="Serializer.h">
<polygon fill="white" stroke="black" points="751,-129 751,-148 816,-148 816,-129 751,-129"/>
<text text-anchor="middle" x="783.5" y="-136" font-family="Helvetica,sans-Serif" font-size="10.00">Serializer.h</text>
</a>
</g>
</g>
<!-- Node4&#45;&gt;Node17 -->
<g id="edge35" class="edge"><title>Node4&#45;&gt;Node17</title>
<path fill="none" stroke="midnightblue" d="M514.011,-257.496C521.523,-253.891 530.415,-249.681 538.5,-246 615.577,-210.908 707.349,-171.693 753.637,-152.09"/>
<polygon fill="midnightblue" stroke="midnightblue" points="755.221,-155.22 763.068,-148.101 752.494,-148.773 755.221,-155.22"/>
</g>
<!-- Node18 -->
<g id="node19" class="node"><title>Node18</title>
<polygon fill="white" stroke="#bfbfbf" points="834,-123.5 834,-153.5 929,-153.5 929,-123.5 834,-123.5"/>
<text text-anchor="start" x="842" y="-141.5" font-family="Helvetica,sans-Serif" font-size="10.00">boost/serialization</text>
<text text-anchor="middle" x="881.5" y="-130.5" font-family="Helvetica,sans-Serif" font-size="10.00">/access.hpp</text>
</g>
<!-- Node4&#45;&gt;Node18 -->
<g id="edge38" class="edge"><title>Node4&#45;&gt;Node18</title>
<path fill="none" stroke="midnightblue" d="M513.013,-257.451C520.654,-253.673 529.921,-249.342 538.5,-246 589.195,-226.252 603.531,-226.101 655.5,-210 714.022,-191.869 781.016,-170.95 826.775,-156.637"/>
<polygon fill="midnightblue" stroke="midnightblue" points="827.994,-159.923 836.493,-153.596 825.904,-153.242 827.994,-159.923"/>
</g>
<!-- Node19 -->
<g id="node20" class="node"><title>Node19</title>
<g id="a_node20"><a xlink:href="_map_8h.html" target="_top" xlink:title="Map.h">
<polygon fill="white" stroke="black" points="897.5,-190.5 897.5,-209.5 941.5,-209.5 941.5,-190.5 897.5,-190.5"/>
<text text-anchor="middle" x="919.5" y="-197.5" font-family="Helvetica,sans-Serif" font-size="10.00">Map.h</text>
</a>
</g>
</g>
<!-- Node4&#45;&gt;Node19 -->
<g id="edge29" class="edge"><title>Node4&#45;&gt;Node19</title>
<path fill="none" stroke="midnightblue" d="M511.582,-257.339C519.378,-253.25 529.189,-248.688 538.5,-246 603.821,-227.147 807.251,-209.746 886.979,-203.47"/>
<polygon fill="midnightblue" stroke="midnightblue" points="887.683,-206.926 897.381,-202.659 887.139,-199.947 887.683,-206.926"/>
</g>
<!-- Node5&#45;&gt;Node2 -->
<g id="edge16" class="edge"><title>Node5&#45;&gt;Node2</title>
<path fill="none" stroke="midnightblue" d="M484.286,-209.764C474.146,-217.857 460.457,-230.888 454.5,-246 447.655,-263.366 442.045,-274.096 454.5,-288 479.076,-315.436 730.071,-327.907 825.737,-331.691"/>
<polygon fill="midnightblue" stroke="midnightblue" points="825.693,-335.191 835.82,-332.08 825.963,-328.197 825.693,-335.191"/>
</g>
<!-- Node5&#45;&gt;Node4 -->
<g id="edge6" class="edge"><title>Node5&#45;&gt;Node4</title>
<path fill="none" stroke="midnightblue" d="M501.259,-209.627C503.284,-219.12 503.764,-234.67 502.7,-247.037"/>
<polygon fill="midnightblue" stroke="midnightblue" points="499.193,-246.848 501.289,-257.234 506.127,-247.808 499.193,-246.848"/>
</g>
<!-- Node5&#45;&gt;Node6 -->
<g id="edge7" class="edge"><title>Node5&#45;&gt;Node6</title>
<path fill="none" stroke="midnightblue" d="M461.384,-191.616C421.454,-183.196 354.043,-168.912 287.086,-154.336"/>
<polygon fill="midnightblue" stroke="midnightblue" points="287.729,-150.894 277.213,-152.184 286.238,-157.734 287.729,-150.894"/>
</g>
<!-- Node5&#45;&gt;Node7 -->
<g id="edge8" class="edge"><title>Node5&#45;&gt;Node7</title>
<path fill="none" stroke="midnightblue" d="M476.728,-190.475C456.902,-181.927 425.763,-168.501 400.418,-157.573"/>
<polygon fill="midnightblue" stroke="midnightblue" points="401.592,-154.268 391.024,-153.523 398.821,-160.696 401.592,-154.268"/>
</g>
<!-- Node5&#45;&gt;Node8 -->
<g id="edge9" class="edge"><title>Node5&#45;&gt;Node8</title>
<path fill="none" stroke="midnightblue" d="M531.546,-194.509C571.601,-188.575 638.581,-176.185 692.5,-154 716.68,-144.051 718.56,-133.513 742.5,-123 777.269,-107.732 818.553,-96.3163 850.611,-88.803"/>
<polygon fill="midnightblue" stroke="midnightblue" points="851.707,-92.1427 860.675,-86.5008 850.146,-85.3189 851.707,-92.1427"/>
</g>
<!-- Node11 -->
<g id="node12" class="node"><title>Node11</title>
<g id="a_node12"><a xlink:href="_o_r_bextractor_8h.html" target="_top" xlink:title="ORBextractor.h">
<polygon fill="white" stroke="black" points="571,-129 571,-148 656,-148 656,-129 571,-129"/>
<text text-anchor="middle" x="613.5" y="-136" font-family="Helvetica,sans-Serif" font-size="10.00">ORBextractor.h</text>
</a>
</g>
</g>
<!-- Node5&#45;&gt;Node11 -->
<g id="edge12" class="edge"><title>Node5&#45;&gt;Node11</title>
<path fill="none" stroke="midnightblue" d="M513.263,-190.475C532.725,-180.578 565.045,-164.142 587.711,-152.615"/>
<polygon fill="midnightblue" stroke="midnightblue" points="589.441,-155.662 596.768,-148.009 586.268,-149.422 589.441,-155.662"/>
</g>
<!-- Node14 -->
<g id="node15" class="node"><title>Node14</title>
<g id="a_node15"><a xlink:href="_key_frame_database_8h.html" target="_top" xlink:title="KeyFrameDatabase.h">
<polygon fill="white" stroke="black" points="440.5,-129 440.5,-148 552.5,-148 552.5,-129 440.5,-129"/>
<text text-anchor="middle" x="496.5" y="-136" font-family="Helvetica,sans-Serif" font-size="10.00">KeyFrameDatabase.h</text>
</a>
</g>
</g>
<!-- Node5&#45;&gt;Node14 -->
<g id="edge17" class="edge"><title>Node5&#45;&gt;Node14</title>
<path fill="none" stroke="midnightblue" d="M491.599,-190.475C489.768,-182.08 489.297,-168.981 490.185,-158.163"/>
<polygon fill="midnightblue" stroke="midnightblue" points="493.686,-158.397 491.603,-148.009 486.754,-157.429 493.686,-158.397"/>
</g>
<!-- Node5&#45;&gt;Node16 -->
<g id="edge26" class="edge"><title>Node5&#45;&gt;Node16</title>
<path fill="none" stroke="midnightblue" d="M531.529,-197.253C568.216,-193.815 625.903,-183.69 665.5,-154 685.12,-139.289 698.113,-113.534 705.143,-96.129"/>
<polygon fill="midnightblue" stroke="midnightblue" points="708.503,-97.136 708.755,-86.5442 701.953,-94.6674 708.503,-97.136"/>
</g>
<!-- Node5&#45;&gt;Node17 -->
<g id="edge25" class="edge"><title>Node5&#45;&gt;Node17</title>
<path fill="none" stroke="midnightblue" d="M531.746,-193.682C578.773,-186.293 664.48,-171.8 736.5,-154 740.308,-153.059 744.263,-151.989 748.189,-150.866"/>
<polygon fill="midnightblue" stroke="midnightblue" points="749.203,-154.216 757.79,-148.01 747.207,-147.506 749.203,-154.216"/>
</g>
<!-- Node5&#45;&gt;Node18 -->
<g id="edge27" class="edge"><title>Node5&#45;&gt;Node18</title>
<path fill="none" stroke="midnightblue" d="M531.782,-195.549C590.484,-189.511 712.052,-175.746 823.836,-154.196"/>
<polygon fill="midnightblue" stroke="midnightblue" points="824.785,-157.576 833.928,-152.223 823.443,-150.706 824.785,-157.576"/>
</g>
<!-- Node9 -->
<g id="node10" class="node"><title>Node9</title>
<polygon fill="white" stroke="#bfbfbf" points="774,-0.5 774,-30.5 881,-30.5 881,-0.5 774,-0.5"/>
<text text-anchor="start" x="782" y="-18.5" font-family="Helvetica,sans-Serif" font-size="10.00">../Thirdparty/DBoW2</text>
<text text-anchor="middle" x="827.5" y="-7.5" font-family="Helvetica,sans-Serif" font-size="10.00">/DBoW2/FORB.h</text>
</g>
<!-- Node8&#45;&gt;Node9 -->
<g id="edge10" class="edge"><title>Node8&#45;&gt;Node9</title>
<path fill="none" stroke="midnightblue" d="M892.611,-67.4751C882.414,-59.492 866.783,-47.2542 853.391,-36.7703"/>
<polygon fill="midnightblue" stroke="midnightblue" points="855.443,-33.9316 845.412,-30.523 851.128,-39.4434 855.443,-33.9316"/>
</g>
<!-- Node10 -->
<g id="node11" class="node"><title>Node10</title>
<polygon fill="white" stroke="#bfbfbf" points="899.5,-0.5 899.5,-30.5 1059.5,-30.5 1059.5,-0.5 899.5,-0.5"/>
<text text-anchor="start" x="907.5" y="-18.5" font-family="Helvetica,sans-Serif" font-size="10.00">../Thirdparty/DBoW2</text>
<text text-anchor="middle" x="979.5" y="-7.5" font-family="Helvetica,sans-Serif" font-size="10.00">/DBoW2/TemplatedVocabulary.h</text>
</g>
<!-- Node8&#45;&gt;Node10 -->
<g id="edge11" class="edge"><title>Node8&#45;&gt;Node10</title>
<path fill="none" stroke="midnightblue" d="M914.389,-67.4751C924.586,-59.492 940.217,-47.2542 953.609,-36.7703"/>
<polygon fill="midnightblue" stroke="midnightblue" points="955.872,-39.4434 961.588,-30.523 951.557,-33.9316 955.872,-39.4434"/>
</g>
<!-- Node11&#45;&gt;Node3 -->
<g id="edge13" class="edge"><title>Node11&#45;&gt;Node3</title>
<path fill="none" stroke="midnightblue" d="M596.737,-128.975C577.275,-119.078 544.955,-102.642 522.289,-91.1151"/>
<polygon fill="midnightblue" stroke="midnightblue" points="523.732,-87.9224 513.232,-86.5091 520.559,-94.1619 523.732,-87.9224"/>
</g>
<!-- Node12 -->
<g id="node13" class="node"><title>Node12</title>
<polygon fill="white" stroke="#bfbfbf" points="571,-67.5 571,-86.5 600,-86.5 600,-67.5 571,-67.5"/>
<text text-anchor="middle" x="585.5" y="-74.5" font-family="Helvetica,sans-Serif" font-size="10.00">list</text>
</g>
<!-- Node11&#45;&gt;Node12 -->
<g id="edge14" class="edge"><title>Node11&#45;&gt;Node12</title>
<path fill="none" stroke="midnightblue" d="M609.488,-128.975C605.413,-120.315 598.982,-106.649 593.804,-95.6453"/>
<polygon fill="midnightblue" stroke="midnightblue" points="596.929,-94.067 589.504,-86.5091 590.595,-97.0476 596.929,-94.067"/>
</g>
<!-- Node11&#45;&gt;Node13 -->
<g id="edge15" class="edge"><title>Node11&#45;&gt;Node13</title>
<path fill="none" stroke="midnightblue" d="M656.13,-131.883C681.229,-128.782 713.619,-125.137 742.5,-123 1194.94,-89.5157 1740.99,-80.7382 1930.12,-78.6223"/>
<polygon fill="midnightblue" stroke="midnightblue" points="1930.23,-82.1214 1940.19,-78.5122 1930.16,-75.1218 1930.23,-82.1214"/>
</g>
<!-- Node14&#45;&gt;Node2 -->
<g id="edge22" class="edge"><title>Node14&#45;&gt;Node2</title>
<path fill="none" stroke="midnightblue" d="M486.291,-148.026C475.988,-157.249 460.49,-172.941 452.5,-190 433.948,-229.609 414.27,-255.463 443.5,-288 468.83,-316.196 727.716,-328.231 825.433,-331.793"/>
<polygon fill="midnightblue" stroke="midnightblue" points="825.605,-335.301 835.723,-332.158 825.853,-328.305 825.605,-335.301"/>
</g>
<!-- Node14&#45;&gt;Node3 -->
<g id="edge18" class="edge"><title>Node14&#45;&gt;Node3</title>
<path fill="none" stroke="midnightblue" d="M496.5,-128.975C496.5,-120.58 496.5,-107.481 496.5,-96.6631"/>
<polygon fill="midnightblue" stroke="midnightblue" points="500,-96.5091 496.5,-86.5091 493,-96.5091 500,-96.5091"/>
</g>
<!-- Node14&#45;&gt;Node5 -->
<g id="edge21" class="edge"><title>Node14&#45;&gt;Node5</title>
<path fill="none" stroke="midnightblue" d="M501.397,-148.009C503.23,-156.398 503.703,-169.496 502.817,-180.317"/>
<polygon fill="midnightblue" stroke="midnightblue" points="499.315,-180.088 501.401,-190.475 506.248,-181.054 499.315,-180.088"/>
</g>
<!-- Node14&#45;&gt;Node8 -->
<g id="edge23" class="edge"><title>Node14&#45;&gt;Node8</title>
<path fill="none" stroke="midnightblue" d="M532.701,-128.966C542.351,-126.85 552.794,-124.703 562.5,-123 661.521,-105.622 777.782,-91.6384 845.782,-84.1009"/>
<polygon fill="midnightblue" stroke="midnightblue" points="846.306,-87.5644 855.863,-82.9915 845.54,-80.6064 846.306,-87.5644"/>
</g>
<!-- Node14&#45;&gt;Node12 -->
<g id="edge19" class="edge"><title>Node14&#45;&gt;Node12</title>
<path fill="none" stroke="midnightblue" d="M509.252,-128.975C523.527,-119.431 546.897,-103.807 564.008,-92.3683"/>
<polygon fill="midnightblue" stroke="midnightblue" points="566.404,-94.9766 572.772,-86.5091 562.514,-89.1572 566.404,-94.9766"/>
</g>
<!-- Node15 -->
<g id="node16" class="node"><title>Node15</title>
<polygon fill="white" stroke="#bfbfbf" points="633.5,-67.5 633.5,-86.5 663.5,-86.5 663.5,-67.5 633.5,-67.5"/>
<text text-anchor="middle" x="648.5" y="-74.5" font-family="Helvetica,sans-Serif" font-size="10.00">set</text>
</g>
<!-- Node14&#45;&gt;Node15 -->
<g id="edge20" class="edge"><title>Node14&#45;&gt;Node15</title>
<path fill="none" stroke="midnightblue" d="M518.278,-128.975C546.182,-118.052 594.433,-99.1644 623.715,-87.7021"/>
<polygon fill="midnightblue" stroke="midnightblue" points="625.18,-90.8871 633.217,-83.9827 622.629,-84.3687 625.18,-90.8871"/>
</g>
<!-- Node14&#45;&gt;Node16 -->
<g id="edge24" class="edge"><title>Node14&#45;&gt;Node16</title>
<path fill="none" stroke="midnightblue" d="M527.304,-128.975C567.766,-117.778 638.474,-98.2095 679.514,-86.8518"/>
<polygon fill="midnightblue" stroke="midnightblue" points="680.569,-90.1917 689.273,-84.1513 678.701,-83.4453 680.569,-90.1917"/>
</g>
<!-- Node19&#45;&gt;Node8 -->
<g id="edge30" class="edge"><title>Node19&#45;&gt;Node8</title>
<path fill="none" stroke="midnightblue" d="M941.777,-194.792C963.323,-189.41 994.805,-177.776 1009.5,-154 1016.74,-142.28 1017.1,-134.489 1009.5,-123 998.365,-106.177 979.539,-95.6241 960.814,-89.0127"/>
<polygon fill="midnightblue" stroke="midnightblue" points="961.664,-85.61 951.073,-85.9023 959.535,-92.2783 961.664,-85.61"/>
</g>
<!-- Node19&#45;&gt;Node15 -->
<g id="edge31" class="edge"><title>Node19&#45;&gt;Node15</title>
<path fill="none" stroke="midnightblue" d="M926.02,-190.337C936.78,-174.916 955.463,-142.494 938.5,-123 900.5,-79.3295 737.16,-98.8638 680.5,-87 678.251,-86.5291 675.928,-85.987 673.608,-85.4073"/>
<polygon fill="midnightblue" stroke="midnightblue" points="674.263,-81.9589 663.696,-82.7285 672.437,-88.7164 674.263,-81.9589"/>
</g>
<!-- Node19&#45;&gt;Node16 -->
<g id="edge32" class="edge"><title>Node19&#45;&gt;Node16</title>
<path fill="none" stroke="midnightblue" d="M935.283,-190.467C947.703,-182.769 964.105,-170.179 971.5,-154 977.228,-141.469 980.373,-133.54 971.5,-123 956.968,-105.737 810.79,-88.3906 744.218,-81.3152"/>
<polygon fill="midnightblue" stroke="midnightblue" points="744.187,-77.7928 733.876,-80.2308 743.457,-84.7546 744.187,-77.7928"/>
</g>
<!-- Node19&#45;&gt;Node17 -->
<g id="edge34" class="edge"><title>Node19&#45;&gt;Node17</title>
<path fill="none" stroke="midnightblue" d="M900.015,-190.475C877.09,-180.445 838.815,-163.7 812.425,-152.155"/>
<polygon fill="midnightblue" stroke="midnightblue" points="813.514,-148.811 802.949,-148.009 810.708,-155.224 813.514,-148.811"/>
</g>
<!-- Node19&#45;&gt;Node18 -->
<g id="edge33" class="edge"><title>Node19&#45;&gt;Node18</title>
<path fill="none" stroke="midnightblue" d="M914.056,-190.475C909.342,-183.094 902.306,-172.077 895.979,-162.171"/>
<polygon fill="midnightblue" stroke="midnightblue" points="898.788,-160.067 890.456,-153.523 892.889,-163.835 898.788,-160.067"/>
</g>
</g>
</svg>
