<?xml version="1.0" encoding="UTF-8" standalone="no"?>
<!DOCTYPE svg PUBLIC "-//W3C//DTD SVG 1.1//EN"
 "http://www.w3.org/Graphics/SVG/1.1/DTD/svg11.dtd">
<!-- Generated by graphviz version 2.38.0 (20140413.2041)
 -->
<!-- Title: /home/alejandro/Desarrollo eclipse/os1/include/Initializer.h Pages: 1 -->
<svg width="1350pt" height="587pt"
 viewBox="0.00 0.00 1349.50 587.00" xmlns="http://www.w3.org/2000/svg" xmlns:xlink="http://www.w3.org/1999/xlink">
<g id="graph0" class="graph" transform="scale(1 1) rotate(0) translate(4 583)">
<title>/home/alejandro/Desarrollo eclipse/os1/include/Initializer.h</title>
<polygon fill="white" stroke="none" points="-4,4 -4,-583 1345.5,-583 1345.5,4 -4,4"/>
<!-- Node0 -->
<g id="node1" class="node"><title>Node0</title>
<polygon fill="#bfbfbf" stroke="black" points="299,-548.5 299,-578.5 452,-578.5 452,-548.5 299,-548.5"/>
<text text-anchor="start" x="307" y="-566.5" font-family="Helvetica,sans-Serif" font-size="10.00">/home/alejandro/Desarrollo</text>
<text text-anchor="middle" x="375.5" y="-555.5" font-family="Helvetica,sans-Serif" font-size="10.00"> eclipse/os1/include/Initializer.h</text>
</g>
<!-- Node1 -->
<g id="node2" class="node"><title>Node1</title>
<polygon fill="white" stroke="#bfbfbf" points="0,-436.5 0,-455.5 107,-455.5 107,-436.5 0,-436.5"/>
<text text-anchor="middle" x="53.5" y="-443.5" font-family="Helvetica,sans-Serif" font-size="10.00">opencv2/opencv.hpp</text>
</g>
<!-- Node0&#45;&gt;Node1 -->
<g id="edge1" class="edge"><title>Node0&#45;&gt;Node1</title>
<path fill="none" stroke="midnightblue" d="M336.338,-548.453C272.488,-525.55 147.067,-480.562 87.0497,-459.034"/>
<polygon fill="midnightblue" stroke="midnightblue" points="87.9094,-455.624 77.3148,-455.542 85.5459,-462.213 87.9094,-455.624"/>
</g>
<!-- Node2 -->
<g id="node3" class="node"><title>Node2</title>
<g id="a_node3"><a xlink:href="_frame_8h.html" target="_top" xlink:title="Frame.h">
<polygon fill="white" stroke="black" points="468,-492.5 468,-511.5 521,-511.5 521,-492.5 468,-492.5"/>
<text text-anchor="middle" x="494.5" y="-499.5" font-family="Helvetica,sans-Serif" font-size="10.00">Frame.h</text>
</a>
</g>
</g>
<!-- Node0&#45;&gt;Node2 -->
<g id="edge2" class="edge"><title>Node0&#45;&gt;Node2</title>
<path fill="none" stroke="midnightblue" d="M403.701,-548.399C423.222,-538.639 449.025,-525.737 468.135,-516.183"/>
<polygon fill="midnightblue" stroke="midnightblue" points="469.805,-519.26 477.184,-511.658 466.675,-512.999 469.805,-519.26"/>
</g>
<!-- Node2&#45;&gt;Node1 -->
<g id="edge71" class="edge"><title>Node2&#45;&gt;Node1</title>
<path fill="none" stroke="midnightblue" d="M467.802,-497.886C406.558,-490.719 251.245,-472.412 121.5,-456 120.204,-455.836 118.894,-455.67 117.575,-455.501"/>
<polygon fill="midnightblue" stroke="midnightblue" points="117.679,-451.986 107.314,-454.181 116.786,-458.929 117.679,-451.986"/>
</g>
<!-- Node3 -->
<g id="node4" class="node"><title>Node3</title>
<polygon fill="white" stroke="#bfbfbf" points="1034.5,-0.5 1034.5,-19.5 1078.5,-19.5 1078.5,-0.5 1034.5,-0.5"/>
<text text-anchor="middle" x="1056.5" y="-7.5" font-family="Helvetica,sans-Serif" font-size="10.00">vector</text>
</g>
<!-- Node2&#45;&gt;Node3 -->
<g id="edge3" class="edge"><title>Node2&#45;&gt;Node3</title>
<path fill="none" stroke="midnightblue" d="M521.248,-500.409C665.221,-496.881 1341.5,-475.8 1341.5,-391 1341.5,-391 1341.5,-391 1341.5,-137.5 1341.5,-95.9064 1329.32,-80.219 1295.5,-56 1262.77,-32.5571 1146.17,-19.0688 1088.82,-13.7136"/>
<polygon fill="midnightblue" stroke="midnightblue" points="1088.79,-10.1961 1078.51,-12.779 1088.15,-17.1675 1088.79,-10.1961"/>
</g>
<!-- Node4 -->
<g id="node5" class="node"><title>Node4</title>
<g id="a_node5"><a xlink:href="_map_point_8h.html" target="_top" xlink:title="MapPoint.h">
<polygon fill="white" stroke="black" points="541.5,-436.5 541.5,-455.5 607.5,-455.5 607.5,-436.5 541.5,-436.5"/>
<text text-anchor="middle" x="574.5" y="-443.5" font-family="Helvetica,sans-Serif" font-size="10.00">MapPoint.h</text>
</a>
</g>
</g>
<!-- Node2&#45;&gt;Node4 -->
<g id="edge4" class="edge"><title>Node2&#45;&gt;Node4</title>
<path fill="none" stroke="midnightblue" d="M502.239,-492.324C512.894,-483.9 531.751,-470.971 547.64,-461.074"/>
<polygon fill="midnightblue" stroke="midnightblue" points="549.836,-463.836 556.568,-455.655 546.204,-457.852 549.836,-463.836"/>
</g>
<!-- Node6 -->
<g id="node7" class="node"><title>Node6</title>
<g id="a_node7"><a xlink:href="_bow_vector_8h.html" target="_top" xlink:title="../Thirdparty/DBoW2\l/DBoW2/BowVector.h">
<polygon fill="white" stroke="black" points="184,-56.5 184,-86.5 297,-86.5 297,-56.5 184,-56.5"/>
<text text-anchor="start" x="192" y="-74.5" font-family="Helvetica,sans-Serif" font-size="10.00">../Thirdparty/DBoW2</text>
<text text-anchor="middle" x="240.5" y="-63.5" font-family="Helvetica,sans-Serif" font-size="10.00">/DBoW2/BowVector.h</text>
</a>
</g>
</g>
<!-- Node2&#45;&gt;Node6 -->
<g id="edge68" class="edge"><title>Node2&#45;&gt;Node6</title>
<path fill="none" stroke="midnightblue" d="M477.293,-492.313C447.107,-476.566 383.544,-441.104 338.5,-400 315.119,-378.664 311.043,-370.985 294.5,-344 263.009,-292.633 251.784,-279.534 237.5,-221 230.433,-192.042 235.167,-183.8 234.5,-154 234.192,-140.226 233.686,-136.754 234.5,-123 235.008,-114.421 235.997,-105.064 237.028,-96.7618"/>
<polygon fill="midnightblue" stroke="midnightblue" points="240.529,-96.9817 238.371,-86.6092 233.59,-96.064 240.529,-96.9817"/>
</g>
<!-- Node9 -->
<g id="node10" class="node"><title>Node9</title>
<g id="a_node10"><a xlink:href="_feature_vector_8h.html" target="_top" xlink:title="../Thirdparty/DBoW2\l/DBoW2/FeatureVector.h">
<polygon fill="white" stroke="black" points="56,-123.5 56,-153.5 183,-153.5 183,-123.5 56,-123.5"/>
<text text-anchor="start" x="64" y="-141.5" font-family="Helvetica,sans-Serif" font-size="10.00">../Thirdparty/DBoW2</text>
<text text-anchor="middle" x="119.5" y="-130.5" font-family="Helvetica,sans-Serif" font-size="10.00">/DBoW2/FeatureVector.h</text>
</a>
</g>
</g>
<!-- Node2&#45;&gt;Node9 -->
<g id="edge69" class="edge"><title>Node2&#45;&gt;Node9</title>
<path fill="none" stroke="midnightblue" d="M467.845,-500.862C397.137,-499.971 206.962,-494.014 159.5,-456 135.464,-436.749 135.5,-421.795 135.5,-391 135.5,-391 135.5,-391 135.5,-266 135.5,-230.166 129.103,-189.07 124.398,-163.695"/>
<polygon fill="midnightblue" stroke="midnightblue" points="127.83,-163.005 122.509,-153.843 120.955,-164.324 127.83,-163.005"/>
</g>
<!-- Node10 -->
<g id="node11" class="node"><title>Node10</title>
<g id="a_node11"><a xlink:href="_o_r_b_vocabulary_8h.html" target="_top" xlink:title="ORBVocabulary.h">
<polygon fill="white" stroke="black" points="828,-257.5 828,-276.5 923,-276.5 923,-257.5 828,-257.5"/>
<text text-anchor="middle" x="875.5" y="-264.5" font-family="Helvetica,sans-Serif" font-size="10.00">ORBVocabulary.h</text>
</a>
</g>
</g>
<!-- Node2&#45;&gt;Node10 -->
<g id="edge70" class="edge"><title>Node2&#45;&gt;Node10</title>
<path fill="none" stroke="midnightblue" d="M521.188,-498.573C583.468,-491.873 741.454,-468.813 851.5,-400 879.79,-382.31 889.608,-375.175 901.5,-344 909.156,-323.931 898.186,-300.498 888.233,-285.015"/>
<polygon fill="midnightblue" stroke="midnightblue" points="890.911,-282.735 882.342,-276.504 885.155,-286.718 890.911,-282.735"/>
</g>
<!-- Node4&#45;&gt;Node2 -->
<g id="edge57" class="edge"><title>Node4&#45;&gt;Node2</title>
<path fill="none" stroke="midnightblue" d="M566.561,-455.834C555.868,-464.263 537.139,-477.099 521.345,-486.935"/>
<polygon fill="midnightblue" stroke="midnightblue" points="519.2,-484.143 512.468,-492.324 522.833,-490.126 519.2,-484.143"/>
</g>
<!-- Node5 -->
<g id="node6" class="node"><title>Node5</title>
<g id="a_node6"><a xlink:href="_key_frame_8h.html" target="_top" xlink:title="KeyFrame.h">
<polygon fill="white" stroke="black" points="514.5,-380.5 514.5,-399.5 584.5,-399.5 584.5,-380.5 514.5,-380.5"/>
<text text-anchor="middle" x="549.5" y="-387.5" font-family="Helvetica,sans-Serif" font-size="10.00">KeyFrame.h</text>
</a>
</g>
</g>
<!-- Node4&#45;&gt;Node5 -->
<g id="edge5" class="edge"><title>Node4&#45;&gt;Node5</title>
<path fill="none" stroke="midnightblue" d="M565.205,-436.083C560.33,-428.849 555.074,-418.409 551.581,-409.397"/>
<polygon fill="midnightblue" stroke="midnightblue" points="554.861,-408.164 548.42,-399.751 548.209,-410.344 554.861,-408.164"/>
</g>
<!-- Node12 -->
<g id="node13" class="node"><title>Node12</title>
<polygon fill="white" stroke="#bfbfbf" points="793.5,-62 793.5,-81 909.5,-81 909.5,-62 793.5,-62"/>
<text text-anchor="middle" x="851.5" y="-69" font-family="Helvetica,sans-Serif" font-size="10.00">opencv2/core/core.hpp</text>
</g>
<!-- Node4&#45;&gt;Node12 -->
<g id="edge65" class="edge"><title>Node4&#45;&gt;Node12</title>
<path fill="none" stroke="midnightblue" d="M541.428,-443.846C482.48,-439.79 360.389,-421.898 306.5,-344 283.809,-311.2 309.623,-292.134 328.5,-257 362.931,-192.916 360.033,-160.285 422.5,-123 481.781,-87.616 677.699,-77.0073 783.047,-73.8394"/>
<polygon fill="midnightblue" stroke="midnightblue" points="783.366,-77.3318 793.262,-73.547 783.166,-70.3347 783.366,-77.3318"/>
</g>
<!-- Node28 -->
<g id="node29" class="node"><title>Node28</title>
<polygon fill="white" stroke="#bfbfbf" points="548.5,-257.5 548.5,-276.5 592.5,-276.5 592.5,-257.5 548.5,-257.5"/>
<text text-anchor="middle" x="570.5" y="-264.5" font-family="Helvetica,sans-Serif" font-size="10.00">mutex</text>
</g>
<!-- Node4&#45;&gt;Node28 -->
<g id="edge66" class="edge"><title>Node4&#45;&gt;Node28</title>
<path fill="none" stroke="midnightblue" d="M607.529,-442.308C667.205,-436.925 790.093,-423.307 825.5,-400 860.597,-376.897 889.855,-344.894 862.5,-313 829.376,-274.38 672.232,-268.593 603.178,-267.944"/>
<polygon fill="midnightblue" stroke="midnightblue" points="602.906,-264.442 592.884,-267.879 602.862,-271.442 602.906,-264.442"/>
</g>
<!-- Node29 -->
<g id="node30" class="node"><title>Node29</title>
<g id="a_node30"><a xlink:href="_serializer_8h.html" target="_top" xlink:title="Serializer.h">
<polygon fill="white" stroke="black" points="626,-319 626,-338 691,-338 691,-319 626,-319"/>
<text text-anchor="middle" x="658.5" y="-326" font-family="Helvetica,sans-Serif" font-size="10.00">Serializer.h</text>
</a>
</g>
</g>
<!-- Node4&#45;&gt;Node29 -->
<g id="edge64" class="edge"><title>Node4&#45;&gt;Node29</title>
<path fill="none" stroke="midnightblue" d="M580.814,-436.319C594.678,-417.255 627.993,-371.447 646.167,-346.458"/>
<polygon fill="midnightblue" stroke="midnightblue" points="649.062,-348.428 652.113,-338.282 643.401,-344.311 649.062,-348.428"/>
</g>
<!-- Node30 -->
<g id="node31" class="node"><title>Node30</title>
<polygon fill="white" stroke="#bfbfbf" points="709,-313.5 709,-343.5 804,-343.5 804,-313.5 709,-313.5"/>
<text text-anchor="start" x="717" y="-331.5" font-family="Helvetica,sans-Serif" font-size="10.00">boost/serialization</text>
<text text-anchor="middle" x="756.5" y="-320.5" font-family="Helvetica,sans-Serif" font-size="10.00">/access.hpp</text>
</g>
<!-- Node4&#45;&gt;Node30 -->
<g id="edge67" class="edge"><title>Node4&#45;&gt;Node30</title>
<path fill="none" stroke="midnightblue" d="M588.18,-436.319C617.231,-417.882 685.699,-374.431 725.788,-348.99"/>
<polygon fill="midnightblue" stroke="midnightblue" points="727.8,-351.859 734.368,-343.545 724.049,-345.948 727.8,-351.859"/>
</g>
<!-- Node31 -->
<g id="node32" class="node"><title>Node31</title>
<g id="a_node32"><a xlink:href="_map_8h.html" target="_top" xlink:title="Map.h">
<polygon fill="white" stroke="black" points="772.5,-380.5 772.5,-399.5 816.5,-399.5 816.5,-380.5 772.5,-380.5"/>
<text text-anchor="middle" x="794.5" y="-387.5" font-family="Helvetica,sans-Serif" font-size="10.00">Map.h</text>
</a>
</g>
</g>
<!-- Node4&#45;&gt;Node31 -->
<g id="edge58" class="edge"><title>Node4&#45;&gt;Node31</title>
<path fill="none" stroke="midnightblue" d="M607.913,-436.799C649.911,-426.49 721.479,-408.923 762.702,-398.805"/>
<polygon fill="midnightblue" stroke="midnightblue" points="763.615,-402.185 772.492,-396.402 761.946,-395.387 763.615,-402.185"/>
</g>
<!-- Node5&#45;&gt;Node2 -->
<g id="edge45" class="edge"><title>Node5&#45;&gt;Node2</title>
<path fill="none" stroke="midnightblue" d="M545.204,-399.591C536.226,-417.548 515.315,-459.37 503.34,-483.32"/>
<polygon fill="midnightblue" stroke="midnightblue" points="500.157,-481.859 498.816,-492.368 506.418,-484.989 500.157,-481.859"/>
</g>
<!-- Node5&#45;&gt;Node4 -->
<g id="edge6" class="edge"><title>Node5&#45;&gt;Node4</title>
<path fill="none" stroke="midnightblue" d="M558.682,-399.751C563.552,-406.936 568.819,-417.362 572.338,-426.396"/>
<polygon fill="midnightblue" stroke="midnightblue" points="569.078,-427.685 575.538,-436.083 575.725,-425.49 569.078,-427.685"/>
</g>
<!-- Node5&#45;&gt;Node6 -->
<g id="edge7" class="edge"><title>Node5&#45;&gt;Node6</title>
<path fill="none" stroke="midnightblue" d="M514.33,-387.092C454.366,-383.113 335.952,-371.865 306.5,-344 236.266,-277.55 235.39,-149.987 238.445,-96.7599"/>
<polygon fill="midnightblue" stroke="midnightblue" points="241.951,-96.7922 239.133,-86.5789 234.966,-96.3201 241.951,-96.7922"/>
</g>
<!-- Node5&#45;&gt;Node9 -->
<g id="edge11" class="edge"><title>Node5&#45;&gt;Node9</title>
<path fill="none" stroke="midnightblue" d="M514.362,-386.528C449.401,-381.432 313.496,-368.164 273.5,-344 235.708,-321.167 163.809,-210.585 133.514,-162.222"/>
<polygon fill="midnightblue" stroke="midnightblue" points="136.455,-160.322 128.196,-153.686 130.514,-164.024 136.455,-160.322"/>
</g>
<!-- Node5&#45;&gt;Node10 -->
<g id="edge16" class="edge"><title>Node5&#45;&gt;Node10</title>
<path fill="none" stroke="midnightblue" d="M554.552,-380.219C564.39,-364 587.779,-329.499 617.5,-313 679.868,-278.376 762.692,-269.29 817.475,-267.443"/>
<polygon fill="midnightblue" stroke="midnightblue" points="817.801,-270.936 827.704,-267.172 817.615,-263.938 817.801,-270.936"/>
</g>
<!-- Node24 -->
<g id="node25" class="node"><title>Node24</title>
<g id="a_node25"><a xlink:href="_o_r_bextractor_8h.html" target="_top" xlink:title="ORBextractor.h">
<polygon fill="white" stroke="black" points="316,-319 316,-338 401,-338 401,-319 316,-319"/>
<text text-anchor="middle" x="358.5" y="-326" font-family="Helvetica,sans-Serif" font-size="10.00">ORBextractor.h</text>
</a>
</g>
</g>
<!-- Node5&#45;&gt;Node24 -->
<g id="edge41" class="edge"><title>Node5&#45;&gt;Node24</title>
<path fill="none" stroke="midnightblue" d="M522.134,-380.475C488.946,-370.136 432.849,-352.661 395.742,-341.102"/>
<polygon fill="midnightblue" stroke="midnightblue" points="396.403,-337.642 385.815,-338.009 394.321,-344.325 396.403,-337.642"/>
</g>
<!-- Node26 -->
<g id="node27" class="node"><title>Node26</title>
<g id="a_node27"><a xlink:href="_key_frame_database_8h.html" target="_top" xlink:title="KeyFrameDatabase.h">
<polygon fill="white" stroke="black" points="419.5,-319 419.5,-338 531.5,-338 531.5,-319 419.5,-319"/>
<text text-anchor="middle" x="475.5" y="-326" font-family="Helvetica,sans-Serif" font-size="10.00">KeyFrameDatabase.h</text>
</a>
</g>
</g>
<!-- Node5&#45;&gt;Node26 -->
<g id="edge46" class="edge"><title>Node5&#45;&gt;Node26</title>
<path fill="none" stroke="midnightblue" d="M533.997,-380.475C520.434,-371.197 501.383,-356.171 488.578,-344.831"/>
<polygon fill="midnightblue" stroke="midnightblue" points="490.908,-342.219 481.186,-338.009 486.161,-347.363 490.908,-342.219"/>
</g>
<!-- Node5&#45;&gt;Node28 -->
<g id="edge55" class="edge"><title>Node5&#45;&gt;Node28</title>
<path fill="none" stroke="midnightblue" d="M551.01,-380.298C554.401,-360.763 562.679,-313.065 567.281,-286.547"/>
<polygon fill="midnightblue" stroke="midnightblue" points="570.742,-287.074 569.003,-276.623 563.845,-285.877 570.742,-287.074"/>
</g>
<!-- Node5&#45;&gt;Node29 -->
<g id="edge54" class="edge"><title>Node5&#45;&gt;Node29</title>
<path fill="none" stroke="midnightblue" d="M565.117,-380.475C583.086,-370.666 612.821,-354.435 633.906,-342.925"/>
<polygon fill="midnightblue" stroke="midnightblue" points="635.811,-345.873 642.912,-338.009 632.458,-339.728 635.811,-345.873"/>
</g>
<!-- Node5&#45;&gt;Node30 -->
<g id="edge56" class="edge"><title>Node5&#45;&gt;Node30</title>
<path fill="none" stroke="midnightblue" d="M579.158,-380.475C610.385,-371.499 660.323,-357.145 699.262,-345.953"/>
<polygon fill="midnightblue" stroke="midnightblue" points="700.263,-349.307 708.907,-343.18 698.329,-342.579 700.263,-349.307"/>
</g>
<!-- Node6&#45;&gt;Node3 -->
<g id="edge10" class="edge"><title>Node6&#45;&gt;Node3</title>
<path fill="none" stroke="midnightblue" d="M297.347,-58.155C302.121,-57.3424 306.885,-56.6076 311.5,-56 585.709,-19.9017 920.57,-12.716 1024.32,-11.3245"/>
<polygon fill="midnightblue" stroke="midnightblue" points="1024.5,-14.8227 1034.45,-11.1975 1024.41,-7.82321 1024.5,-14.8227"/>
</g>
<!-- Node7 -->
<g id="node8" class="node"><title>Node7</title>
<polygon fill="white" stroke="#bfbfbf" points="189.5,-0.5 189.5,-19.5 243.5,-19.5 243.5,-0.5 189.5,-0.5"/>
<text text-anchor="middle" x="216.5" y="-7.5" font-family="Helvetica,sans-Serif" font-size="10.00">iostream</text>
</g>
<!-- Node6&#45;&gt;Node7 -->
<g id="edge8" class="edge"><title>Node6&#45;&gt;Node7</title>
<path fill="none" stroke="midnightblue" d="M234.812,-56.3993C231.505,-48.1989 227.302,-37.7809 223.758,-28.9936"/>
<polygon fill="midnightblue" stroke="midnightblue" points="226.979,-27.6225 219.992,-19.6578 220.487,-30.2411 226.979,-27.6225"/>
</g>
<!-- Node8 -->
<g id="node9" class="node"><title>Node8</title>
<polygon fill="white" stroke="#bfbfbf" points="87,-0.5 87,-19.5 122,-19.5 122,-0.5 87,-0.5"/>
<text text-anchor="middle" x="104.5" y="-7.5" font-family="Helvetica,sans-Serif" font-size="10.00">map</text>
</g>
<!-- Node6&#45;&gt;Node8 -->
<g id="edge9" class="edge"><title>Node6&#45;&gt;Node8</title>
<path fill="none" stroke="midnightblue" d="M208.27,-56.3993C184.974,-46.2074 153.848,-32.5898 131.78,-22.935"/>
<polygon fill="midnightblue" stroke="midnightblue" points="132.903,-19.6061 122.339,-18.8044 130.097,-26.0192 132.903,-19.6061"/>
</g>
<!-- Node9&#45;&gt;Node3 -->
<g id="edge14" class="edge"><title>Node9&#45;&gt;Node3</title>
<path fill="none" stroke="midnightblue" d="M124.464,-123.251C131.97,-104.13 148.191,-70.8566 174.5,-56 249.555,-13.6157 873.305,-10.9708 1023.88,-10.9542"/>
<polygon fill="midnightblue" stroke="midnightblue" points="1024.28,-14.4542 1034.28,-10.9573 1024.28,-7.45425 1024.28,-14.4542"/>
</g>
<!-- Node9&#45;&gt;Node6 -->
<g id="edge12" class="edge"><title>Node9&#45;&gt;Node6</title>
<path fill="none" stroke="midnightblue" d="M145.755,-123.396C163.197,-114.026 186.3,-101.615 205.326,-91.395"/>
<polygon fill="midnightblue" stroke="midnightblue" points="207.143,-94.3922 214.296,-86.5765 203.83,-88.2256 207.143,-94.3922"/>
</g>
<!-- Node9&#45;&gt;Node7 -->
<g id="edge15" class="edge"><title>Node9&#45;&gt;Node7</title>
<path fill="none" stroke="midnightblue" d="M120.143,-123.431C121.597,-105.99 126.304,-76.113 141.5,-56 152.162,-41.8871 168.65,-31.3006 183.453,-23.9533"/>
<polygon fill="midnightblue" stroke="midnightblue" points="185.263,-26.9723 192.86,-19.5883 182.316,-20.6226 185.263,-26.9723"/>
</g>
<!-- Node9&#45;&gt;Node8 -->
<g id="edge13" class="edge"><title>Node9&#45;&gt;Node8</title>
<path fill="none" stroke="midnightblue" d="M113.672,-123.198C109.937,-113.237 105.439,-99.5426 103.5,-87 100.543,-67.8792 101.302,-45.7299 102.489,-30.2937"/>
<polygon fill="midnightblue" stroke="midnightblue" points="106.009,-30.2348 103.427,-19.9595 99.0375,-29.6024 106.009,-30.2348"/>
</g>
<!-- Node11 -->
<g id="node12" class="node"><title>Node11</title>
<g id="a_node12"><a xlink:href="_f_o_r_b_8h.html" target="_top" xlink:title="../Thirdparty/DBoW2\l/DBoW2/FORB.h">
<polygon fill="white" stroke="black" points="1100,-190.5 1100,-220.5 1207,-220.5 1207,-190.5 1100,-190.5"/>
<text text-anchor="start" x="1108" y="-208.5" font-family="Helvetica,sans-Serif" font-size="10.00">../Thirdparty/DBoW2</text>
<text text-anchor="middle" x="1153.5" y="-197.5" font-family="Helvetica,sans-Serif" font-size="10.00">/DBoW2/FORB.h</text>
</a>
</g>
</g>
<!-- Node10&#45;&gt;Node11 -->
<g id="edge17" class="edge"><title>Node10&#45;&gt;Node11</title>
<path fill="none" stroke="midnightblue" d="M915.331,-257.475C960.888,-247.724 1036.1,-231.627 1089.82,-220.13"/>
<polygon fill="midnightblue" stroke="midnightblue" points="1090.88,-223.483 1099.92,-217.967 1089.41,-216.638 1090.88,-223.483"/>
</g>
<!-- Node15 -->
<g id="node16" class="node"><title>Node15</title>
<g id="a_node16"><a xlink:href="_templated_vocabulary_8h.html" target="_top" xlink:title="../Thirdparty/DBoW2\l/DBoW2/TemplatedVocabulary.h">
<polygon fill="white" stroke="black" points="723.5,-190.5 723.5,-220.5 883.5,-220.5 883.5,-190.5 723.5,-190.5"/>
<text text-anchor="start" x="731.5" y="-208.5" font-family="Helvetica,sans-Serif" font-size="10.00">../Thirdparty/DBoW2</text>
<text text-anchor="middle" x="803.5" y="-197.5" font-family="Helvetica,sans-Serif" font-size="10.00">/DBoW2/TemplatedVocabulary.h</text>
</a>
</g>
</g>
<!-- Node10&#45;&gt;Node15 -->
<g id="edge25" class="edge"><title>Node10&#45;&gt;Node15</title>
<path fill="none" stroke="midnightblue" d="M865.184,-257.475C855.615,-249.567 840.994,-237.485 828.388,-227.067"/>
<polygon fill="midnightblue" stroke="midnightblue" points="830.407,-224.195 820.469,-220.523 825.948,-229.591 830.407,-224.195"/>
</g>
<!-- Node11&#45;&gt;Node3 -->
<g id="edge19" class="edge"><title>Node11&#45;&gt;Node3</title>
<path fill="none" stroke="midnightblue" d="M1154.88,-190.435C1156.91,-162.338 1157.8,-98.336 1129.5,-56 1119.59,-41.1767 1102.97,-30.374 1088.1,-23.0743"/>
<polygon fill="midnightblue" stroke="midnightblue" points="1089.21,-19.7357 1078.66,-18.7762 1086.31,-26.1061 1089.21,-19.7357"/>
</g>
<!-- Node11&#45;&gt;Node12 -->
<g id="edge18" class="edge"><title>Node11&#45;&gt;Node12</title>
<path fill="none" stroke="midnightblue" d="M1099.86,-194.833C1063.9,-186.998 1016.22,-173.937 977.5,-154 957.814,-143.863 956.79,-135.48 938.5,-123 918.538,-109.379 894.737,-95.7288 877.08,-86.0602"/>
<polygon fill="midnightblue" stroke="midnightblue" points="878.426,-82.8088 867.966,-81.1239 875.092,-88.964 878.426,-82.8088"/>
</g>
<!-- Node13 -->
<g id="node14" class="node"><title>Node13</title>
<polygon fill="white" stroke="#bfbfbf" points="1245,-62 1245,-81 1286,-81 1286,-62 1245,-62"/>
<text text-anchor="middle" x="1265.5" y="-69" font-family="Helvetica,sans-Serif" font-size="10.00">string</text>
</g>
<!-- Node11&#45;&gt;Node13 -->
<g id="edge20" class="edge"><title>Node11&#45;&gt;Node13</title>
<path fill="none" stroke="midnightblue" d="M1207.04,-197.212C1233.54,-190.604 1263.26,-178.009 1279.5,-154 1292.34,-135.014 1283.72,-108.009 1275.41,-90.3719"/>
<polygon fill="midnightblue" stroke="midnightblue" points="1278.39,-88.5105 1270.72,-81.2018 1272.16,-91.6986 1278.39,-88.5105"/>
</g>
<!-- Node14 -->
<g id="node15" class="node"><title>Node14</title>
<g id="a_node15"><a xlink:href="_f_class_8h.html" target="_top" xlink:title="FClass.h">
<polygon fill="white" stroke="black" points="1181.5,-129 1181.5,-148 1237.5,-148 1237.5,-129 1181.5,-129"/>
<text text-anchor="middle" x="1209.5" y="-136" font-family="Helvetica,sans-Serif" font-size="10.00">FClass.h</text>
</a>
</g>
</g>
<!-- Node11&#45;&gt;Node14 -->
<g id="edge21" class="edge"><title>Node11&#45;&gt;Node14</title>
<path fill="none" stroke="midnightblue" d="M1165.65,-190.396C1174.38,-180.261 1186.18,-166.567 1195.34,-155.937"/>
<polygon fill="midnightblue" stroke="midnightblue" points="1198.13,-158.055 1202.01,-148.195 1192.83,-153.486 1198.13,-158.055"/>
</g>
<!-- Node14&#45;&gt;Node3 -->
<g id="edge23" class="edge"><title>Node14&#45;&gt;Node3</title>
<path fill="none" stroke="midnightblue" d="M1207.17,-128.63C1202.41,-112.148 1190.07,-76.6088 1167.5,-56 1145.2,-35.6328 1112.47,-23.8911 1088.33,-17.5436"/>
<polygon fill="midnightblue" stroke="midnightblue" points="1089.11,-14.1313 1078.56,-15.1441 1087.44,-20.9291 1089.11,-14.1313"/>
</g>
<!-- Node14&#45;&gt;Node12 -->
<g id="edge22" class="edge"><title>Node14&#45;&gt;Node12</title>
<path fill="none" stroke="midnightblue" d="M1181.41,-132.4C1122.8,-121.759 986.507,-97.0125 908.678,-82.8815"/>
<polygon fill="midnightblue" stroke="midnightblue" points="909.025,-79.3874 898.561,-81.0446 907.775,-86.2748 909.025,-79.3874"/>
</g>
<!-- Node14&#45;&gt;Node13 -->
<g id="edge24" class="edge"><title>Node14&#45;&gt;Node13</title>
<path fill="none" stroke="midnightblue" d="M1217.05,-128.734C1225.78,-118.598 1240.35,-101.69 1251.24,-89.0556"/>
<polygon fill="midnightblue" stroke="midnightblue" points="1254.19,-90.9879 1258.07,-81.1273 1248.89,-86.4189 1254.19,-90.9879"/>
</g>
<!-- Node15&#45;&gt;Node3 -->
<g id="edge27" class="edge"><title>Node15&#45;&gt;Node3</title>
<path fill="none" stroke="midnightblue" d="M883.541,-201.927C960.743,-197.56 1069.73,-185.78 1096.5,-154 1127.82,-116.817 1091.29,-56.8125 1069.88,-27.7896"/>
<polygon fill="midnightblue" stroke="midnightblue" points="1072.41,-25.3448 1063.56,-19.5235 1066.85,-29.5946 1072.41,-25.3448"/>
</g>
<!-- Node15&#45;&gt;Node6 -->
<g id="edge35" class="edge"><title>Node15&#45;&gt;Node6</title>
<path fill="none" stroke="midnightblue" d="M723.418,-197.643C652.878,-190.456 547.762,-176.94 458.5,-154 394.831,-137.637 324.039,-109.155 280.894,-90.5665"/>
<polygon fill="midnightblue" stroke="midnightblue" points="282.161,-87.3009 271.594,-86.5283 279.373,-93.7217 282.161,-87.3009"/>
</g>
<!-- Node15&#45;&gt;Node9 -->
<g id="edge34" class="edge"><title>Node15&#45;&gt;Node9</title>
<path fill="none" stroke="midnightblue" d="M723.362,-196.885C589.579,-184.171 322.692,-158.809 193.271,-146.51"/>
<polygon fill="midnightblue" stroke="midnightblue" points="193.351,-143.002 183.065,-145.54 192.689,-149.971 193.351,-143.002"/>
</g>
<!-- Node15&#45;&gt;Node12 -->
<g id="edge32" class="edge"><title>Node15&#45;&gt;Node12</title>
<path fill="none" stroke="midnightblue" d="M813.046,-190.477C819.36,-180.642 827.388,-166.982 832.5,-154 840.632,-133.351 845.824,-108.327 848.689,-91.5014"/>
<polygon fill="midnightblue" stroke="midnightblue" points="852.195,-91.7424 850.309,-81.3168 845.282,-90.643 852.195,-91.7424"/>
</g>
<!-- Node15&#45;&gt;Node13 -->
<g id="edge30" class="edge"><title>Node15&#45;&gt;Node13</title>
<path fill="none" stroke="midnightblue" d="M883.586,-200.326C1003.87,-193.324 1219.98,-177.618 1246.5,-154 1264.01,-138.402 1266.99,-110.073 1266.81,-91.2681"/>
<polygon fill="midnightblue" stroke="midnightblue" points="1270.3,-91.0768 1266.4,-81.2269 1263.31,-91.3606 1270.3,-91.0768"/>
</g>
<!-- Node16 -->
<g id="node17" class="node"><title>Node16</title>
<polygon fill="white" stroke="#bfbfbf" points="880,-129 880,-148 929,-148 929,-129 880,-129"/>
<text text-anchor="middle" x="904.5" y="-136" font-family="Helvetica,sans-Serif" font-size="10.00">cassert</text>
</g>
<!-- Node15&#45;&gt;Node16 -->
<g id="edge26" class="edge"><title>Node15&#45;&gt;Node16</title>
<path fill="none" stroke="midnightblue" d="M825.415,-190.396C842.353,-179.496 865.687,-164.479 882.616,-153.584"/>
<polygon fill="midnightblue" stroke="midnightblue" points="884.766,-156.362 891.281,-148.007 880.978,-150.476 884.766,-156.362"/>
</g>
<!-- Node17 -->
<g id="node18" class="node"><title>Node17</title>
<polygon fill="white" stroke="#bfbfbf" points="572,-129 572,-148 623,-148 623,-129 572,-129"/>
<text text-anchor="middle" x="597.5" y="-136" font-family="Helvetica,sans-Serif" font-size="10.00">numeric</text>
</g>
<!-- Node15&#45;&gt;Node17 -->
<g id="edge28" class="edge"><title>Node15&#45;&gt;Node17</title>
<path fill="none" stroke="midnightblue" d="M750.651,-190.448C716.624,-181.019 671.606,-167.831 632.5,-154 630.64,-153.342 628.735,-152.639 626.821,-151.911"/>
<polygon fill="midnightblue" stroke="midnightblue" points="627.934,-148.587 617.348,-148.149 625.351,-155.093 627.934,-148.587"/>
</g>
<!-- Node18 -->
<g id="node19" class="node"><title>Node18</title>
<polygon fill="white" stroke="#bfbfbf" points="641.5,-129 641.5,-148 691.5,-148 691.5,-129 641.5,-129"/>
<text text-anchor="middle" x="666.5" y="-136" font-family="Helvetica,sans-Serif" font-size="10.00">fstream</text>
</g>
<!-- Node15&#45;&gt;Node18 -->
<g id="edge29" class="edge"><title>Node15&#45;&gt;Node18</title>
<path fill="none" stroke="midnightblue" d="M773.773,-190.396C749.948,-179.092 716.791,-163.361 693.669,-152.39"/>
<polygon fill="midnightblue" stroke="midnightblue" points="694.965,-149.131 684.43,-148.007 691.965,-155.456 694.965,-149.131"/>
</g>
<!-- Node19 -->
<g id="node20" class="node"><title>Node19</title>
<polygon fill="white" stroke="#bfbfbf" points="709.5,-129 709.5,-148 765.5,-148 765.5,-129 709.5,-129"/>
<text text-anchor="middle" x="737.5" y="-136" font-family="Helvetica,sans-Serif" font-size="10.00">algorithm</text>
</g>
<!-- Node15&#45;&gt;Node19 -->
<g id="edge31" class="edge"><title>Node15&#45;&gt;Node19</title>
<path fill="none" stroke="midnightblue" d="M789.179,-190.396C778.684,-180.06 764.432,-166.024 753.552,-155.309"/>
<polygon fill="midnightblue" stroke="midnightblue" points="755.909,-152.718 746.328,-148.195 750.997,-157.705 755.909,-152.718"/>
</g>
<!-- Node20 -->
<g id="node21" class="node"><title>Node20</title>
<polygon fill="white" stroke="#bfbfbf" points="783.5,-129 783.5,-148 823.5,-148 823.5,-129 783.5,-129"/>
<text text-anchor="middle" x="803.5" y="-136" font-family="Helvetica,sans-Serif" font-size="10.00">limits</text>
</g>
<!-- Node15&#45;&gt;Node20 -->
<g id="edge33" class="edge"><title>Node15&#45;&gt;Node20</title>
<path fill="none" stroke="midnightblue" d="M803.5,-190.396C803.5,-181.064 803.5,-168.714 803.5,-158.517"/>
<polygon fill="midnightblue" stroke="midnightblue" points="807,-158.195 803.5,-148.195 800,-158.195 807,-158.195"/>
</g>
<!-- Node21 -->
<g id="node22" class="node"><title>Node21</title>
<g id="a_node22"><a xlink:href="_scoring_object_8h.html" target="_top" xlink:title="ScoringObject.h">
<polygon fill="white" stroke="black" points="467.5,-129 467.5,-148 553.5,-148 553.5,-129 467.5,-129"/>
<text text-anchor="middle" x="510.5" y="-136" font-family="Helvetica,sans-Serif" font-size="10.00">ScoringObject.h</text>
</a>
</g>
</g>
<!-- Node15&#45;&gt;Node21 -->
<g id="edge36" class="edge"><title>Node15&#45;&gt;Node21</title>
<path fill="none" stroke="midnightblue" d="M731.31,-190.479C683.53,-180.912 619.579,-167.558 563.5,-154 559.158,-152.95 554.631,-151.799 550.132,-150.619"/>
<polygon fill="midnightblue" stroke="midnightblue" points="550.975,-147.222 540.411,-148.018 549.166,-153.984 550.975,-147.222"/>
</g>
<!-- Node22 -->
<g id="node23" class="node"><title>Node22</title>
<g id="a_node23"><a xlink:href="_random_8h.html" target="_top" xlink:title="../DUtils/Random.h">
<polygon fill="white" stroke="black" points="986,-129 986,-148 1087,-148 1087,-129 986,-129"/>
<text text-anchor="middle" x="1036.5" y="-136" font-family="Helvetica,sans-Serif" font-size="10.00">../DUtils/Random.h</text>
</a>
</g>
</g>
<!-- Node15&#45;&gt;Node22 -->
<g id="edge38" class="edge"><title>Node15&#45;&gt;Node22</title>
<path fill="none" stroke="midnightblue" d="M853.771,-190.476C896.352,-178.597 956.61,-161.787 996.11,-150.768"/>
<polygon fill="midnightblue" stroke="midnightblue" points="997.236,-154.087 1005.93,-148.029 995.355,-147.345 997.236,-154.087"/>
</g>
<!-- Node21&#45;&gt;Node6 -->
<g id="edge37" class="edge"><title>Node21&#45;&gt;Node6</title>
<path fill="none" stroke="midnightblue" d="M477.368,-128.975C469.547,-126.989 461.235,-124.901 453.5,-123 404.47,-110.952 348.966,-97.809 306.911,-87.9517"/>
<polygon fill="midnightblue" stroke="midnightblue" points="307.601,-84.5186 297.067,-85.6465 306.005,-91.3342 307.601,-84.5186"/>
</g>
<!-- Node22&#45;&gt;Node3 -->
<g id="edge40" class="edge"><title>Node22&#45;&gt;Node3</title>
<path fill="none" stroke="midnightblue" d="M1037.87,-128.805C1041.09,-108.494 1049.14,-57.5532 1053.53,-29.7768"/>
<polygon fill="midnightblue" stroke="midnightblue" points="1057.01,-30.1796 1055.12,-19.7557 1050.1,-29.0864 1057.01,-30.1796"/>
</g>
<!-- Node23 -->
<g id="node24" class="node"><title>Node23</title>
<polygon fill="white" stroke="#bfbfbf" points="983,-62 983,-81 1028,-81 1028,-62 983,-62"/>
<text text-anchor="middle" x="1005.5" y="-69" font-family="Helvetica,sans-Serif" font-size="10.00">cstdlib</text>
</g>
<!-- Node22&#45;&gt;Node23 -->
<g id="edge39" class="edge"><title>Node22&#45;&gt;Node23</title>
<path fill="none" stroke="midnightblue" d="M1032.32,-128.734C1027.62,-118.89 1019.88,-102.66 1013.92,-90.1594"/>
<polygon fill="midnightblue" stroke="midnightblue" points="1017.08,-88.6467 1009.61,-81.1273 1010.76,-91.66 1017.08,-88.6467"/>
</g>
<!-- Node24&#45;&gt;Node3 -->
<g id="edge42" class="edge"><title>Node24&#45;&gt;Node3</title>
<path fill="none" stroke="midnightblue" d="M354.454,-318.915C345.642,-299.405 325.5,-250.048 325.5,-206.5 325.5,-206.5 325.5,-206.5 325.5,-137.5 325.5,-47.6527 423.415,-78.1063 510.5,-56 608.788,-31.05 922.143,-16.4434 1024.1,-12.2592"/>
<polygon fill="midnightblue" stroke="midnightblue" points="1024.54,-15.7447 1034.39,-11.8433 1024.25,-8.7504 1024.54,-15.7447"/>
</g>
<!-- Node24&#45;&gt;Node12 -->
<g id="edge44" class="edge"><title>Node24&#45;&gt;Node12</title>
<path fill="none" stroke="midnightblue" d="M359.827,-318.638C365.195,-286.196 388.475,-173.192 458.5,-123 509.125,-86.7134 684.783,-76.4941 783.248,-73.6205"/>
<polygon fill="midnightblue" stroke="midnightblue" points="783.503,-77.1149 793.403,-73.3422 783.311,-70.1175 783.503,-77.1149"/>
</g>
<!-- Node25 -->
<g id="node26" class="node"><title>Node25</title>
<polygon fill="white" stroke="#bfbfbf" points="406,-257.5 406,-276.5 435,-276.5 435,-257.5 406,-257.5"/>
<text text-anchor="middle" x="420.5" y="-264.5" font-family="Helvetica,sans-Serif" font-size="10.00">list</text>
</g>
<!-- Node24&#45;&gt;Node25 -->
<g id="edge43" class="edge"><title>Node24&#45;&gt;Node25</title>
<path fill="none" stroke="midnightblue" d="M367.383,-318.975C376.959,-309.785 392.411,-294.956 404.186,-283.656"/>
<polygon fill="midnightblue" stroke="midnightblue" points="406.842,-285.958 411.633,-276.509 401.995,-280.908 406.842,-285.958"/>
</g>
<!-- Node26&#45;&gt;Node2 -->
<g id="edge51" class="edge"><title>Node26&#45;&gt;Node2</title>
<path fill="none" stroke="midnightblue" d="M476.444,-338.019C479.358,-364.327 488.266,-444.734 492.379,-481.853"/>
<polygon fill="midnightblue" stroke="midnightblue" points="488.952,-482.706 493.532,-492.26 495.909,-481.935 488.952,-482.706"/>
</g>
<!-- Node26&#45;&gt;Node3 -->
<g id="edge47" class="edge"><title>Node26&#45;&gt;Node3</title>
<path fill="none" stroke="midnightblue" d="M471.035,-318.879C455.83,-288.193 409.646,-182.916 458.5,-123 530.922,-34.1805 910.242,-15.4635 1024.13,-11.822"/>
<polygon fill="midnightblue" stroke="midnightblue" points="1024.42,-15.3151 1034.31,-11.5148 1024.21,-8.31826 1024.42,-15.3151"/>
</g>
<!-- Node26&#45;&gt;Node5 -->
<g id="edge50" class="edge"><title>Node26&#45;&gt;Node5</title>
<path fill="none" stroke="midnightblue" d="M490.98,-338.009C504.537,-347.281 523.588,-362.306 536.4,-373.65"/>
<polygon fill="midnightblue" stroke="midnightblue" points="534.075,-376.267 543.798,-380.475 538.822,-371.122 534.075,-376.267"/>
</g>
<!-- Node26&#45;&gt;Node10 -->
<g id="edge52" class="edge"><title>Node26&#45;&gt;Node10</title>
<path fill="none" stroke="midnightblue" d="M531.539,-319.164C607.264,-307.9 741.56,-287.924 818.019,-276.55"/>
<polygon fill="midnightblue" stroke="midnightblue" points="818.581,-280.005 827.957,-275.072 817.551,-273.081 818.581,-280.005"/>
</g>
<!-- Node26&#45;&gt;Node25 -->
<g id="edge48" class="edge"><title>Node26&#45;&gt;Node25</title>
<path fill="none" stroke="midnightblue" d="M467.62,-318.975C459.206,-309.873 445.681,-295.241 435.274,-283.983"/>
<polygon fill="midnightblue" stroke="midnightblue" points="437.724,-281.477 428.366,-276.509 432.583,-286.228 437.724,-281.477"/>
</g>
<!-- Node27 -->
<g id="node28" class="node"><title>Node27</title>
<polygon fill="white" stroke="#bfbfbf" points="497.5,-257.5 497.5,-276.5 527.5,-276.5 527.5,-257.5 497.5,-257.5"/>
<text text-anchor="middle" x="512.5" y="-264.5" font-family="Helvetica,sans-Serif" font-size="10.00">set</text>
</g>
<!-- Node26&#45;&gt;Node27 -->
<g id="edge49" class="edge"><title>Node26&#45;&gt;Node27</title>
<path fill="none" stroke="midnightblue" d="M480.801,-318.975C486.241,-310.227 494.859,-296.369 501.736,-285.309"/>
<polygon fill="midnightblue" stroke="midnightblue" points="504.9,-286.849 507.209,-276.509 498.956,-283.153 504.9,-286.849"/>
</g>
<!-- Node26&#45;&gt;Node28 -->
<g id="edge53" class="edge"><title>Node26&#45;&gt;Node28</title>
<path fill="none" stroke="midnightblue" d="M489.111,-318.975C504.561,-309.299 529.99,-293.372 548.316,-281.894"/>
<polygon fill="midnightblue" stroke="midnightblue" points="550.297,-284.783 556.914,-276.509 546.581,-278.851 550.297,-284.783"/>
</g>
<!-- Node31&#45;&gt;Node10 -->
<g id="edge59" class="edge"><title>Node31&#45;&gt;Node10</title>
<path fill="none" stroke="midnightblue" d="M816.777,-384.792C838.323,-379.41 869.805,-367.776 884.5,-344 895.272,-326.57 889.8,-302.559 883.745,-286.222"/>
<polygon fill="midnightblue" stroke="midnightblue" points="886.887,-284.659 879.847,-276.741 880.413,-287.32 886.887,-284.659"/>
</g>
<!-- Node31&#45;&gt;Node27 -->
<g id="edge60" class="edge"><title>Node31&#45;&gt;Node27</title>
<path fill="none" stroke="midnightblue" d="M801.035,-380.324C811.821,-364.881 830.541,-332.426 813.5,-313 773.002,-266.833 599.348,-290.773 539.5,-277 538.898,-276.861 538.291,-276.715 537.68,-276.562"/>
<polygon fill="midnightblue" stroke="midnightblue" points="538.356,-273.113 527.776,-273.656 536.385,-279.83 538.356,-273.113"/>
</g>
<!-- Node31&#45;&gt;Node28 -->
<g id="edge61" class="edge"><title>Node31&#45;&gt;Node28</title>
<path fill="none" stroke="midnightblue" d="M810.283,-380.467C822.703,-372.769 839.105,-360.179 846.5,-344 852.228,-331.469 855.424,-323.497 846.5,-313 815.52,-276.56 668.735,-269.556 602.755,-268.263"/>
<polygon fill="midnightblue" stroke="midnightblue" points="602.577,-264.759 592.521,-268.096 602.463,-271.758 602.577,-264.759"/>
</g>
<!-- Node31&#45;&gt;Node29 -->
<g id="edge63" class="edge"><title>Node31&#45;&gt;Node29</title>
<path fill="none" stroke="midnightblue" d="M775.015,-380.475C752.09,-370.445 713.815,-353.7 687.425,-342.155"/>
<polygon fill="midnightblue" stroke="midnightblue" points="688.514,-338.811 677.949,-338.009 685.708,-345.224 688.514,-338.811"/>
</g>
<!-- Node31&#45;&gt;Node30 -->
<g id="edge62" class="edge"><title>Node31&#45;&gt;Node30</title>
<path fill="none" stroke="midnightblue" d="M789.056,-380.475C784.342,-373.094 777.306,-362.077 770.979,-352.171"/>
<polygon fill="midnightblue" stroke="midnightblue" points="773.788,-350.067 765.456,-343.523 767.889,-353.835 773.788,-350.067"/>
</g>
</g>
</svg>
