<?xml version="1.0" encoding="UTF-8" standalone="no"?>
<!DOCTYPE svg PUBLIC "-//W3C//DTD SVG 1.1//EN"
 "http://www.w3.org/Graphics/SVG/1.1/DTD/svg11.dtd">
<!-- Generated by graphviz version 2.38.0 (20140413.2041)
 -->
<!-- Title: /home/alejandro/Desarrollo eclipse/os1/include/Initializer.h Pages: 1 -->
<svg width="1131pt" height="307pt"
 viewBox="0.00 0.00 1131.46 307.00" xmlns="http://www.w3.org/2000/svg" xmlns:xlink="http://www.w3.org/1999/xlink">
<g id="graph0" class="graph" transform="scale(1 1) rotate(0) translate(4 303)">
<title>/home/alejandro/Desarrollo eclipse/os1/include/Initializer.h</title>
<polygon fill="white" stroke="none" points="-4,4 -4,-303 1127.46,-303 1127.46,4 -4,4"/>
<!-- Node32 -->
<g id="node1" class="node"><title>Node32</title>
<polygon fill="#bfbfbf" stroke="black" points="938.46,-268.5 938.46,-298.5 1091.46,-298.5 1091.46,-268.5 938.46,-268.5"/>
<text text-anchor="start" x="946.46" y="-286.5" font-family="Helvetica,sans-Serif" font-size="10.00">/home/alejandro/Desarrollo</text>
<text text-anchor="middle" x="1014.96" y="-275.5" font-family="Helvetica,sans-Serif" font-size="10.00"> eclipse/os1/include/Initializer.h</text>
</g>
<!-- Node33 -->
<g id="node2" class="node"><title>Node33</title>
<g id="a_node2"><a xlink:href="_tracking_8h.html" target="_top" xlink:title="/home/alejandro/Desarrollo\l eclipse/os1/include/Tracking.h">
<polygon fill="white" stroke="black" points="322.96,-201.5 322.96,-231.5 474.96,-231.5 474.96,-201.5 322.96,-201.5"/>
<text text-anchor="start" x="330.96" y="-219.5" font-family="Helvetica,sans-Serif" font-size="10.00">/home/alejandro/Desarrollo</text>
<text text-anchor="middle" x="398.96" y="-208.5" font-family="Helvetica,sans-Serif" font-size="10.00"> eclipse/os1/include/Tracking.h</text>
</a>
</g>
</g>
<!-- Node32&#45;&gt;Node33 -->
<g id="edge1" class="edge"><title>Node32&#45;&gt;Node33</title>
<path fill="none" stroke="midnightblue" d="M928.228,-273.348C807.374,-260.596 590.243,-237.684 475.245,-225.55"/>
<polygon fill="midnightblue" stroke="midnightblue" points="927.876,-276.83 938.188,-274.399 928.611,-269.869 927.876,-276.83"/>
</g>
<!-- Node39 -->
<g id="node8" class="node"><title>Node39</title>
<g id="a_node8"><a xlink:href="_initializer_8cc.html" target="_top" xlink:title="/home/alejandro/Desarrollo\l eclipse/os1/src/Initializer.cc">
<polygon fill="white" stroke="black" points="982.46,-0.5 982.46,-30.5 1123.46,-30.5 1123.46,-0.5 982.46,-0.5"/>
<text text-anchor="start" x="990.46" y="-18.5" font-family="Helvetica,sans-Serif" font-size="10.00">/home/alejandro/Desarrollo</text>
<text text-anchor="middle" x="1052.96" y="-7.5" font-family="Helvetica,sans-Serif" font-size="10.00"> eclipse/os1/src/Initializer.cc</text>
</a>
</g>
</g>
<!-- Node32&#45;&gt;Node39 -->
<g id="edge25" class="edge"><title>Node32&#45;&gt;Node39</title>
<path fill="none" stroke="midnightblue" d="M1022.41,-258.651C1024.8,-250.291 1027.26,-240.794 1028.96,-232 1043.44,-156.967 1050.05,-65.4252 1052.16,-30.7374"/>
<polygon fill="midnightblue" stroke="midnightblue" points="1018.98,-257.911 1019.49,-268.494 1025.69,-259.903 1018.98,-257.911"/>
</g>
<!-- Node42 -->
<g id="node11" class="node"><title>Node42</title>
<g id="a_node11"><a xlink:href="_tracking_8cc.html" target="_top" xlink:title="/home/alejandro/Desarrollo\l eclipse/os1/src/Tracking.cc">
<polygon fill="white" stroke="black" points="823.96,-0.5 823.96,-30.5 963.96,-30.5 963.96,-0.5 823.96,-0.5"/>
<text text-anchor="start" x="831.96" y="-18.5" font-family="Helvetica,sans-Serif" font-size="10.00">/home/alejandro/Desarrollo</text>
<text text-anchor="middle" x="893.96" y="-7.5" font-family="Helvetica,sans-Serif" font-size="10.00"> eclipse/os1/src/Tracking.cc</text>
</a>
</g>
</g>
<!-- Node32&#45;&gt;Node42 -->
<g id="edge26" class="edge"><title>Node32&#45;&gt;Node42</title>
<path fill="none" stroke="midnightblue" d="M1014.59,-258.118C1012.86,-215.749 1004.26,-127.301 963.96,-67 953.635,-51.5505 936.889,-39.2195 922.365,-30.6106"/>
<polygon fill="midnightblue" stroke="midnightblue" points="1011.1,-258.434 1014.91,-268.32 1018.1,-258.215 1011.1,-258.434"/>
</g>
<!-- Node34 -->
<g id="node3" class="node"><title>Node34</title>
<g id="a_node3"><a xlink:href="_loop_closing_8h.html" target="_top" xlink:title="/home/alejandro/Desarrollo\l eclipse/os1/include/LoopClosing.h">
<polygon fill="white" stroke="black" points="131.96,-134.5 131.96,-164.5 299.96,-164.5 299.96,-134.5 131.96,-134.5"/>
<text text-anchor="start" x="139.96" y="-152.5" font-family="Helvetica,sans-Serif" font-size="10.00">/home/alejandro/Desarrollo</text>
<text text-anchor="middle" x="215.96" y="-141.5" font-family="Helvetica,sans-Serif" font-size="10.00"> eclipse/os1/include/LoopClosing.h</text>
</a>
</g>
</g>
<!-- Node33&#45;&gt;Node34 -->
<g id="edge2" class="edge"><title>Node33&#45;&gt;Node34</title>
<path fill="none" stroke="midnightblue" d="M343.892,-198.092C313.313,-187.599 276.303,-174.408 249.916,-164.577"/>
<polygon fill="midnightblue" stroke="midnightblue" points="342.978,-201.478 353.573,-201.396 345.24,-194.853 342.978,-201.478"/>
</g>
<!-- Node35 -->
<g id="node4" class="node"><title>Node35</title>
<g id="a_node4"><a xlink:href="_local_mapping_8h.html" target="_top" xlink:title="/home/alejandro/Desarrollo\l eclipse/os1/include/LocalMapping.h">
<polygon fill="white" stroke="black" points="13.9596,-67.5 13.9596,-97.5 187.96,-97.5 187.96,-67.5 13.9596,-67.5"/>
<text text-anchor="start" x="21.9596" y="-85.5" font-family="Helvetica,sans-Serif" font-size="10.00">/home/alejandro/Desarrollo</text>
<text text-anchor="middle" x="100.96" y="-74.5" font-family="Helvetica,sans-Serif" font-size="10.00"> eclipse/os1/include/LocalMapping.h</text>
</a>
</g>
</g>
<!-- Node33&#45;&gt;Node35 -->
<g id="edge18" class="edge"><title>Node33&#45;&gt;Node35</title>
<path fill="none" stroke="midnightblue" d="M312.574,-210.288C239.367,-204.003 142.07,-190.877 113.96,-165 95.09,-147.629 91.7381,-115.923 94.381,-97.5973"/>
<polygon fill="midnightblue" stroke="midnightblue" points="312.479,-213.792 322.734,-211.13 313.058,-206.816 312.479,-213.792"/>
</g>
<!-- Node37 -->
<g id="node6" class="node"><title>Node37</title>
<g id="a_node6"><a xlink:href="_system_8cc.html" target="_top" xlink:title="/home/alejandro/Desarrollo\l eclipse/os1/src/System.cc">
<polygon fill="white" stroke="black" points="18.9596,-0.5 18.9596,-30.5 154.96,-30.5 154.96,-0.5 18.9596,-0.5"/>
<text text-anchor="start" x="26.9596" y="-18.5" font-family="Helvetica,sans-Serif" font-size="10.00">/home/alejandro/Desarrollo</text>
<text text-anchor="middle" x="86.9596" y="-7.5" font-family="Helvetica,sans-Serif" font-size="10.00"> eclipse/os1/src/System.cc</text>
</a>
</g>
</g>
<!-- Node33&#45;&gt;Node37 -->
<g id="edge22" class="edge"><title>Node33&#45;&gt;Node37</title>
<path fill="none" stroke="midnightblue" d="M312.628,-210.75C251.86,-205.055 169.623,-192.533 101.96,-165 53.4281,-145.252 29.3016,-144.398 4.95962,-98 -1.44128,-85.7994 -1.75917,-79.0285 4.95962,-67 14.2543,-50.36 31.5318,-38.5256 47.8392,-30.5167"/>
<polygon fill="midnightblue" stroke="midnightblue" points="312.68,-214.268 322.952,-211.671 313.303,-207.296 312.68,-214.268"/>
</g>
<!-- Node33&#45;&gt;Node42 -->
<g id="edge23" class="edge"><title>Node33&#45;&gt;Node42</title>
<path fill="none" stroke="midnightblue" d="M485.02,-213.975C633.912,-210.437 926.736,-199.171 957.96,-165 994.887,-124.587 938.424,-59.5784 909.419,-30.8926"/>
<polygon fill="midnightblue" stroke="midnightblue" points="484.906,-210.477 474.989,-214.207 485.068,-217.475 484.906,-210.477"/>
</g>
<!-- Node43 -->
<g id="node12" class="node"><title>Node43</title>
<g id="a_node12"><a xlink:href="_frame_drawer_8cc.html" target="_top" xlink:title="/home/alejandro/Desarrollo\l eclipse/os1/src/FrameDrawer.cc">
<polygon fill="white" stroke="black" points="318.46,-134.5 318.46,-164.5 479.46,-164.5 479.46,-134.5 318.46,-134.5"/>
<text text-anchor="start" x="326.46" y="-152.5" font-family="Helvetica,sans-Serif" font-size="10.00">/home/alejandro/Desarrollo</text>
<text text-anchor="middle" x="398.96" y="-141.5" font-family="Helvetica,sans-Serif" font-size="10.00"> eclipse/os1/src/FrameDrawer.cc</text>
</a>
</g>
</g>
<!-- Node33&#45;&gt;Node43 -->
<g id="edge19" class="edge"><title>Node33&#45;&gt;Node43</title>
<path fill="none" stroke="midnightblue" d="M398.96,-191.108C398.96,-182.154 398.96,-172.323 398.96,-164.577"/>
<polygon fill="midnightblue" stroke="midnightblue" points="395.46,-191.396 398.96,-201.396 402.46,-191.396 395.46,-191.396"/>
</g>
<!-- Node44 -->
<g id="node13" class="node"><title>Node44</title>
<g id="a_node13"><a xlink:href="main_8cc.html" target="_top" xlink:title="/home/alejandro/Desarrollo\l eclipse/os1/src/main.cc">
<polygon fill="white" stroke="black" points="497.46,-134.5 497.46,-164.5 630.46,-164.5 630.46,-134.5 497.46,-134.5"/>
<text text-anchor="start" x="505.46" y="-152.5" font-family="Helvetica,sans-Serif" font-size="10.00">/home/alejandro/Desarrollo</text>
<text text-anchor="middle" x="563.96" y="-141.5" font-family="Helvetica,sans-Serif" font-size="10.00"> eclipse/os1/src/main.cc</text>
</a>
</g>
</g>
<!-- Node33&#45;&gt;Node44 -->
<g id="edge20" class="edge"><title>Node33&#45;&gt;Node44</title>
<path fill="none" stroke="midnightblue" d="M444.191,-197.682C470.654,-187.257 503.594,-174.281 528.227,-164.577"/>
<polygon fill="midnightblue" stroke="midnightblue" points="442.783,-194.474 434.762,-201.396 445.349,-200.987 442.783,-194.474"/>
</g>
<!-- Node45 -->
<g id="node14" class="node"><title>Node45</title>
<g id="a_node14"><a xlink:href="_serializer_8cpp.html" target="_top" xlink:title="/home/alejandro/Desarrollo\l eclipse/os1/src/Serializer.cpp">
<polygon fill="white" stroke="black" points="648.96,-134.5 648.96,-164.5 796.96,-164.5 796.96,-134.5 648.96,-134.5"/>
<text text-anchor="start" x="656.96" y="-152.5" font-family="Helvetica,sans-Serif" font-size="10.00">/home/alejandro/Desarrollo</text>
<text text-anchor="middle" x="722.96" y="-141.5" font-family="Helvetica,sans-Serif" font-size="10.00"> eclipse/os1/src/Serializer.cpp</text>
</a>
</g>
</g>
<!-- Node33&#45;&gt;Node45 -->
<g id="edge21" class="edge"><title>Node33&#45;&gt;Node45</title>
<path fill="none" stroke="midnightblue" d="M478.967,-199.449C532.304,-188.749 601.746,-174.818 652.902,-164.555"/>
<polygon fill="midnightblue" stroke="midnightblue" points="477.98,-196.077 468.864,-201.476 479.357,-202.941 477.98,-196.077"/>
</g>
<!-- Node46 -->
<g id="node15" class="node"><title>Node46</title>
<g id="a_node15"><a xlink:href="_viewer_8cc.html" target="_top" xlink:title="/home/alejandro/Desarrollo\l eclipse/os1/src/Viewer.cc">
<polygon fill="white" stroke="black" points="815.46,-134.5 815.46,-164.5 948.46,-164.5 948.46,-134.5 815.46,-134.5"/>
<text text-anchor="start" x="823.46" y="-152.5" font-family="Helvetica,sans-Serif" font-size="10.00">/home/alejandro/Desarrollo</text>
<text text-anchor="middle" x="881.96" y="-141.5" font-family="Helvetica,sans-Serif" font-size="10.00"> eclipse/os1/src/Viewer.cc</text>
</a>
</g>
</g>
<!-- Node33&#45;&gt;Node46 -->
<g id="edge24" class="edge"><title>Node33&#45;&gt;Node46</title>
<path fill="none" stroke="midnightblue" d="M485.392,-206.426C567.938,-197.371 695.732,-182.335 805.96,-165 809.012,-164.52 812.129,-164.009 815.274,-163.477"/>
<polygon fill="midnightblue" stroke="midnightblue" points="484.865,-202.963 475.304,-207.528 485.625,-209.921 484.865,-202.963"/>
</g>
<!-- Node34&#45;&gt;Node33 -->
<g id="edge8" class="edge"><title>Node34&#45;&gt;Node33</title>
<path fill="none" stroke="midnightblue" d="M270.942,-167.879C301.509,-178.367 338.522,-191.558 364.93,-201.396"/>
<polygon fill="midnightblue" stroke="midnightblue" points="271.86,-164.494 261.265,-164.577 269.599,-171.119 271.86,-164.494"/>
</g>
<!-- Node34&#45;&gt;Node35 -->
<g id="edge3" class="edge"><title>Node34&#45;&gt;Node35</title>
<path fill="none" stroke="midnightblue" d="M176.28,-129.575C157.307,-119.35 135.525,-106.94 120.189,-97.5765"/>
<polygon fill="midnightblue" stroke="midnightblue" points="174.857,-132.782 185.328,-134.396 178.148,-126.605 174.857,-132.782"/>
</g>
<!-- Node36 -->
<g id="node5" class="node"><title>Node36</title>
<g id="a_node5"><a xlink:href="_local_mapping_8cc.html" target="_top" xlink:title="/home/alejandro/Desarrollo\l eclipse/os1/src/LocalMapping.cc">
<polygon fill="white" stroke="black" points="172.96,-0.5 172.96,-30.5 334.96,-30.5 334.96,-0.5 172.96,-0.5"/>
<text text-anchor="start" x="180.96" y="-18.5" font-family="Helvetica,sans-Serif" font-size="10.00">/home/alejandro/Desarrollo</text>
<text text-anchor="middle" x="253.96" y="-7.5" font-family="Helvetica,sans-Serif" font-size="10.00"> eclipse/os1/src/LocalMapping.cc</text>
</a>
</g>
</g>
<!-- Node34&#45;&gt;Node36 -->
<g id="edge15" class="edge"><title>Node34&#45;&gt;Node36</title>
<path fill="none" stroke="midnightblue" d="M222.796,-124.754C230.702,-97.291 243.456,-52.9873 249.922,-30.5247"/>
<polygon fill="midnightblue" stroke="midnightblue" points="219.429,-123.796 220.026,-134.374 226.156,-125.732 219.429,-123.796"/>
</g>
<!-- Node34&#45;&gt;Node37 -->
<g id="edge17" class="edge"><title>Node34&#45;&gt;Node37</title>
<path fill="none" stroke="midnightblue" d="M215.81,-124.385C214.505,-106.725 210.124,-83.1229 196.96,-67 182.938,-49.8278 161.792,-38.2326 141.774,-30.5342"/>
<polygon fill="midnightblue" stroke="midnightblue" points="212.319,-124.666 216.276,-134.494 219.311,-124.343 212.319,-124.666"/>
</g>
<!-- Node38 -->
<g id="node7" class="node"><title>Node38</title>
<g id="a_node7"><a xlink:href="_optimizer_8h.html" target="_top" xlink:title="/home/alejandro/Desarrollo\l eclipse/os1/include/Optimizer.h">
<polygon fill="white" stroke="black" points="455.96,-67.5 455.96,-97.5 611.96,-97.5 611.96,-67.5 455.96,-67.5"/>
<text text-anchor="start" x="463.96" y="-85.5" font-family="Helvetica,sans-Serif" font-size="10.00">/home/alejandro/Desarrollo</text>
<text text-anchor="middle" x="533.96" y="-74.5" font-family="Helvetica,sans-Serif" font-size="10.00"> eclipse/os1/include/Optimizer.h</text>
</a>
</g>
</g>
<!-- Node34&#45;&gt;Node38 -->
<g id="edge9" class="edge"><title>Node34&#45;&gt;Node38</title>
<path fill="none" stroke="midnightblue" d="M294.485,-132.449C346.835,-121.749 414.991,-107.818 465.199,-97.5549"/>
<polygon fill="midnightblue" stroke="midnightblue" points="293.666,-129.044 284.569,-134.476 295.068,-135.902 293.666,-129.044"/>
</g>
<!-- Node40 -->
<g id="node9" class="node"><title>Node40</title>
<g id="a_node9"><a xlink:href="_loop_closing_8cc.html" target="_top" xlink:title="/home/alejandro/Desarrollo\l eclipse/os1/src/LoopClosing.cc">
<polygon fill="white" stroke="black" points="352.96,-0.5 352.96,-30.5 508.96,-30.5 508.96,-0.5 352.96,-0.5"/>
<text text-anchor="start" x="360.96" y="-18.5" font-family="Helvetica,sans-Serif" font-size="10.00">/home/alejandro/Desarrollo</text>
<text text-anchor="middle" x="430.96" y="-7.5" font-family="Helvetica,sans-Serif" font-size="10.00"> eclipse/os1/src/LoopClosing.cc</text>
</a>
</g>
</g>
<!-- Node34&#45;&gt;Node40 -->
<g id="edge16" class="edge"><title>Node34&#45;&gt;Node40</title>
<path fill="none" stroke="midnightblue" d="M247.508,-129.131C291.313,-102.237 369.515,-54.2242 408.116,-30.5247"/>
<polygon fill="midnightblue" stroke="midnightblue" points="245.659,-126.159 238.968,-134.374 249.322,-132.124 245.659,-126.159"/>
</g>
<!-- Node35&#45;&gt;Node33 -->
<g id="edge5" class="edge"><title>Node35&#45;&gt;Node33</title>
<path fill="none" stroke="midnightblue" d="M108.248,-107.575C111.256,-125.941 116.186,-150.479 131.96,-165 159.6,-190.445 254.135,-203.561 322.947,-209.967"/>
<polygon fill="midnightblue" stroke="midnightblue" points="111.685,-106.909 106.631,-97.5973 104.775,-108.028 111.685,-106.909"/>
</g>
<!-- Node35&#45;&gt;Node34 -->
<g id="edge4" class="edge"><title>Node35&#45;&gt;Node34</title>
<path fill="none" stroke="midnightblue" d="M140.583,-102.395C159.551,-112.615 181.337,-125.026 196.685,-134.396"/>
<polygon fill="midnightblue" stroke="midnightblue" points="142.01,-99.1895 131.539,-97.5765 138.719,-105.367 142.01,-99.1895"/>
</g>
<!-- Node35&#45;&gt;Node36 -->
<g id="edge6" class="edge"><title>Node35&#45;&gt;Node36</title>
<path fill="none" stroke="midnightblue" d="M143.549,-63.4066C167.975,-53.0294 198.184,-40.1954 220.826,-30.5765"/>
<polygon fill="midnightblue" stroke="midnightblue" points="141.994,-60.2644 134.158,-67.396 144.731,-66.7071 141.994,-60.2644"/>
</g>
<!-- Node35&#45;&gt;Node37 -->
<g id="edge7" class="edge"><title>Node35&#45;&gt;Node37</title>
<path fill="none" stroke="midnightblue" d="M95.7695,-57.4029C93.824,-48.3703 91.6782,-38.4078 89.9915,-30.5765"/>
<polygon fill="midnightblue" stroke="midnightblue" points="92.3947,-58.3571 97.9218,-67.396 99.2377,-56.8832 92.3947,-58.3571"/>
</g>
<!-- Node38&#45;&gt;Node36 -->
<g id="edge11" class="edge"><title>Node38&#45;&gt;Node36</title>
<path fill="none" stroke="midnightblue" d="M463.682,-65.1856C417.826,-54.5403 358.568,-40.7841 314.745,-30.6109"/>
<polygon fill="midnightblue" stroke="midnightblue" points="463.016,-68.624 473.549,-67.476 464.599,-61.8053 463.016,-68.624"/>
</g>
<!-- Node38&#45;&gt;Node39 -->
<g id="edge10" class="edge"><title>Node38&#45;&gt;Node39</title>
<path fill="none" stroke="midnightblue" d="M622.303,-73.0352C711.113,-64.127 851.838,-48.924 972.96,-31 976.032,-30.5454 979.166,-30.0619 982.33,-29.5577"/>
<polygon fill="midnightblue" stroke="midnightblue" points="621.874,-69.5606 612.271,-74.0369 622.569,-76.526 621.874,-69.5606"/>
</g>
<!-- Node38&#45;&gt;Node40 -->
<g id="edge12" class="edge"><title>Node38&#45;&gt;Node40</title>
<path fill="none" stroke="midnightblue" d="M503.084,-62.0151C487.055,-51.8999 467.833,-39.7698 453.265,-30.5765"/>
<polygon fill="midnightblue" stroke="midnightblue" points="501.285,-65.019 511.61,-67.396 505.021,-59.0992 501.285,-65.019"/>
</g>
<!-- Node41 -->
<g id="node10" class="node"><title>Node41</title>
<g id="a_node10"><a xlink:href="_optimizer_8cc.html" target="_top" xlink:title="/home/alejandro/Desarrollo\l eclipse/os1/src/Optimizer.cc">
<polygon fill="white" stroke="black" points="526.96,-0.5 526.96,-30.5 670.96,-30.5 670.96,-0.5 526.96,-0.5"/>
<text text-anchor="start" x="534.96" y="-18.5" font-family="Helvetica,sans-Serif" font-size="10.00">/home/alejandro/Desarrollo</text>
<text text-anchor="middle" x="598.96" y="-7.5" font-family="Helvetica,sans-Serif" font-size="10.00"> eclipse/os1/src/Optimizer.cc</text>
</a>
</g>
</g>
<!-- Node38&#45;&gt;Node41 -->
<g id="edge13" class="edge"><title>Node38&#45;&gt;Node41</title>
<path fill="none" stroke="midnightblue" d="M555.148,-60.3115C564.898,-50.5612 576.201,-39.259 584.883,-30.5765"/>
<polygon fill="midnightblue" stroke="midnightblue" points="552.66,-57.85 548.064,-67.396 557.61,-62.7998 552.66,-57.85"/>
</g>
<!-- Node38&#45;&gt;Node42 -->
<g id="edge14" class="edge"><title>Node38&#45;&gt;Node42</title>
<path fill="none" stroke="midnightblue" d="M621.806,-65.6388C683.893,-54.4287 766.009,-39.6021 823.744,-29.1777"/>
<polygon fill="midnightblue" stroke="midnightblue" points="620.85,-62.2548 611.631,-67.476 622.094,-69.1434 620.85,-62.2548"/>
</g>
</g>
</svg>
