<?xml version="1.0" encoding="UTF-8" standalone="no"?>
<!DOCTYPE svg PUBLIC "-//W3C//DTD SVG 1.1//EN"
 "http://www.w3.org/Graphics/SVG/1.1/DTD/svg11.dtd">
<!-- Generated by graphviz version 2.38.0 (20140413.2041)
 -->
<!-- Title: /home/alejandro/Desarrollo eclipse/os1/include/Initializer.h Pages: 1 -->
<svg width="1384pt" height="587pt"
 viewBox="0.00 0.00 1384.00 587.00" xmlns="http://www.w3.org/2000/svg" xmlns:xlink="http://www.w3.org/1999/xlink">
<g id="graph0" class="graph" transform="scale(1 1) rotate(0) translate(4 583)">
<title>/home/alejandro/Desarrollo eclipse/os1/include/Initializer.h</title>
<polygon fill="white" stroke="none" points="-4,4 -4,-583 1380,-583 1380,4 -4,4"/>
<!-- Node0 -->
<g id="node1" class="node"><title>Node0</title>
<polygon fill="#bfbfbf" stroke="black" points="94,-548.5 94,-578.5 247,-578.5 247,-548.5 94,-548.5"/>
<text text-anchor="start" x="102" y="-566.5" font-family="Helvetica,sans-Serif" font-size="10.00">/home/alejandro/Desarrollo</text>
<text text-anchor="middle" x="170.5" y="-555.5" font-family="Helvetica,sans-Serif" font-size="10.00"> eclipse/os1/include/Initializer.h</text>
</g>
<!-- Node1 -->
<g id="node2" class="node"><title>Node1</title>
<polygon fill="white" stroke="#bfbfbf" points="0,-436.5 0,-455.5 107,-455.5 107,-436.5 0,-436.5"/>
<text text-anchor="middle" x="53.5" y="-443.5" font-family="Helvetica,sans-Serif" font-size="10.00">opencv2/opencv.hpp</text>
</g>
<!-- Node0&#45;&gt;Node1 -->
<g id="edge1" class="edge"><title>Node0&#45;&gt;Node1</title>
<path fill="none" stroke="midnightblue" d="M156.154,-548.337C134.211,-526.676 92.4527,-485.453 69.538,-462.832"/>
<polygon fill="midnightblue" stroke="midnightblue" points="71.8575,-460.204 62.282,-455.669 66.9397,-465.186 71.8575,-460.204"/>
</g>
<!-- Node2 -->
<g id="node3" class="node"><title>Node2</title>
<g id="a_node3"><a xlink:href="_frame_8h.html" target="_top" xlink:title="Frame.h">
<polygon fill="white" stroke="black" points="201,-492.5 201,-511.5 254,-511.5 254,-492.5 201,-492.5"/>
<text text-anchor="middle" x="227.5" y="-499.5" font-family="Helvetica,sans-Serif" font-size="10.00">Frame.h</text>
</a>
</g>
</g>
<!-- Node0&#45;&gt;Node2 -->
<g id="edge2" class="edge"><title>Node0&#45;&gt;Node2</title>
<path fill="none" stroke="midnightblue" d="M184.008,-548.399C192.462,-539.575 203.375,-528.183 212.155,-519.018"/>
<polygon fill="midnightblue" stroke="midnightblue" points="214.816,-521.3 219.206,-511.658 209.761,-516.458 214.816,-521.3"/>
</g>
<!-- Node2&#45;&gt;Node1 -->
<g id="edge67" class="edge"><title>Node2&#45;&gt;Node1</title>
<path fill="none" stroke="midnightblue" d="M200.694,-492.681C171.234,-483.538 123.713,-468.79 90.6664,-458.534"/>
<polygon fill="midnightblue" stroke="midnightblue" points="91.4992,-455.128 80.9111,-455.507 89.4243,-461.814 91.4992,-455.128"/>
</g>
<!-- Node3 -->
<g id="node4" class="node"><title>Node3</title>
<polygon fill="white" stroke="#bfbfbf" points="593.5,-0.5 593.5,-19.5 637.5,-19.5 637.5,-0.5 593.5,-0.5"/>
<text text-anchor="middle" x="615.5" y="-7.5" font-family="Helvetica,sans-Serif" font-size="10.00">vector</text>
</g>
<!-- Node2&#45;&gt;Node3 -->
<g id="edge3" class="edge"><title>Node2&#45;&gt;Node3</title>
<path fill="none" stroke="midnightblue" d="M218.151,-492.248C188.343,-463.345 97.5,-367.128 97.5,-268 97.5,-268 97.5,-268 97.5,-137.5 97.5,-37.0579 469.694,-16.0036 583.097,-11.9198"/>
<polygon fill="midnightblue" stroke="midnightblue" points="583.367,-15.4127 593.242,-11.5754 583.129,-8.41675 583.367,-15.4127"/>
</g>
<!-- Node4 -->
<g id="node5" class="node"><title>Node4</title>
<g id="a_node5"><a xlink:href="_map_point_8h.html" target="_top" xlink:title="MapPoint.h">
<polygon fill="white" stroke="black" points="556.5,-436.5 556.5,-455.5 622.5,-455.5 622.5,-436.5 556.5,-436.5"/>
<text text-anchor="middle" x="589.5" y="-443.5" font-family="Helvetica,sans-Serif" font-size="10.00">MapPoint.h</text>
</a>
</g>
</g>
<!-- Node2&#45;&gt;Node4 -->
<g id="edge4" class="edge"><title>Node2&#45;&gt;Node4</title>
<path fill="none" stroke="midnightblue" d="M254.089,-496.443C316.126,-486.656 470.264,-463.642 546.11,-452.819"/>
<polygon fill="midnightblue" stroke="midnightblue" points="546.866,-456.247 556.275,-451.375 545.882,-449.316 546.866,-456.247"/>
</g>
<!-- Node6 -->
<g id="node7" class="node"><title>Node6</title>
<g id="a_node7"><a xlink:href="_bow_vector_8h.html" target="_top" xlink:title="../Thirdparty/DBoW2\l/DBoW2/BowVector.h">
<polygon fill="white" stroke="black" points="298,-56.5 298,-86.5 411,-86.5 411,-56.5 298,-56.5"/>
<text text-anchor="start" x="306" y="-74.5" font-family="Helvetica,sans-Serif" font-size="10.00">../Thirdparty/DBoW2</text>
<text text-anchor="middle" x="354.5" y="-63.5" font-family="Helvetica,sans-Serif" font-size="10.00">/DBoW2/BowVector.h</text>
</a>
</g>
</g>
<!-- Node2&#45;&gt;Node6 -->
<g id="edge60" class="edge"><title>Node2&#45;&gt;Node6</title>
<path fill="none" stroke="midnightblue" d="M212.308,-492.268C186.177,-475.983 135.5,-438.303 135.5,-391 135.5,-391 135.5,-391 135.5,-204.5 135.5,-167.306 128.442,-149.539 154.5,-123 173.082,-104.074 237.119,-90.143 287.789,-81.7625"/>
<polygon fill="midnightblue" stroke="midnightblue" points="288.411,-85.2074 297.727,-80.1606 287.297,-78.2966 288.411,-85.2074"/>
</g>
<!-- Node9 -->
<g id="node10" class="node"><title>Node9</title>
<g id="a_node10"><a xlink:href="_feature_vector_8h.html" target="_top" xlink:title="../Thirdparty/DBoW2\l/DBoW2/FeatureVector.h">
<polygon fill="white" stroke="black" points="164,-123.5 164,-153.5 291,-153.5 291,-123.5 164,-123.5"/>
<text text-anchor="start" x="172" y="-141.5" font-family="Helvetica,sans-Serif" font-size="10.00">../Thirdparty/DBoW2</text>
<text text-anchor="middle" x="227.5" y="-130.5" font-family="Helvetica,sans-Serif" font-size="10.00">/DBoW2/FeatureVector.h</text>
</a>
</g>
</g>
<!-- Node2&#45;&gt;Node9 -->
<g id="edge61" class="edge"><title>Node2&#45;&gt;Node9</title>
<path fill="none" stroke="midnightblue" d="M227.5,-492.442C227.5,-473.936 227.5,-428.812 227.5,-391 227.5,-391 227.5,-391 227.5,-266 227.5,-230.417 227.5,-189.203 227.5,-163.74"/>
<polygon fill="midnightblue" stroke="midnightblue" points="231,-163.539 227.5,-153.539 224,-163.539 231,-163.539"/>
</g>
<!-- Node10 -->
<g id="node11" class="node"><title>Node10</title>
<g id="a_node11"><a xlink:href="_o_r_b_vocabulary_8h.html" target="_top" xlink:title="ORBVocabulary.h">
<polygon fill="white" stroke="black" points="813,-257.5 813,-276.5 908,-276.5 908,-257.5 813,-257.5"/>
<text text-anchor="middle" x="860.5" y="-264.5" font-family="Helvetica,sans-Serif" font-size="10.00">ORBVocabulary.h</text>
</a>
</g>
</g>
<!-- Node2&#45;&gt;Node10 -->
<g id="edge62" class="edge"><title>Node2&#45;&gt;Node10</title>
<path fill="none" stroke="midnightblue" d="M254.2,-499.551C319.25,-495.69 490.905,-483.518 631.5,-456 721.249,-438.434 747.493,-440.477 829.5,-400 866.804,-381.588 885.856,-381.188 904.5,-344 910.675,-331.683 909.701,-325.758 904.5,-313 899.7,-301.225 890.171,-290.856 881.205,-283.049"/>
<polygon fill="midnightblue" stroke="midnightblue" points="883.255,-280.205 873.281,-276.631 878.85,-285.645 883.255,-280.205"/>
</g>
<!-- Node31 -->
<g id="node32" class="node"><title>Node31</title>
<g id="a_node32"><a xlink:href="_o_r_bextractor_8h.html" target="_top" xlink:title="ORBextractor.h">
<polygon fill="white" stroke="black" points="1291,-319 1291,-338 1376,-338 1376,-319 1291,-319"/>
<text text-anchor="middle" x="1333.5" y="-326" font-family="Helvetica,sans-Serif" font-size="10.00">ORBextractor.h</text>
</a>
</g>
</g>
<!-- Node2&#45;&gt;Node31 -->
<g id="edge63" class="edge"><title>Node2&#45;&gt;Node31</title>
<path fill="none" stroke="midnightblue" d="M254.053,-500.644C412.979,-498.418 1232.89,-485.525 1276.5,-456 1313.13,-431.202 1326.54,-376.894 1331.19,-348.169"/>
<polygon fill="midnightblue" stroke="midnightblue" points="1334.66,-348.606 1332.62,-338.211 1327.73,-347.615 1334.66,-348.606"/>
</g>
<!-- Node4&#45;&gt;Node2 -->
<g id="edge49" class="edge"><title>Node4&#45;&gt;Node2</title>
<path fill="none" stroke="midnightblue" d="M556.49,-452.566C488.828,-463.157 335.322,-486.044 264.456,-496.097"/>
<polygon fill="midnightblue" stroke="midnightblue" points="263.632,-492.678 254.219,-497.54 264.609,-499.61 263.632,-492.678"/>
</g>
<!-- Node5 -->
<g id="node6" class="node"><title>Node5</title>
<g id="a_node6"><a xlink:href="_key_frame_8h.html" target="_top" xlink:title="KeyFrame.h">
<polygon fill="white" stroke="black" points="502.5,-380.5 502.5,-399.5 572.5,-399.5 572.5,-380.5 502.5,-380.5"/>
<text text-anchor="middle" x="537.5" y="-387.5" font-family="Helvetica,sans-Serif" font-size="10.00">KeyFrame.h</text>
</a>
</g>
</g>
<!-- Node4&#45;&gt;Node5 -->
<g id="edge5" class="edge"><title>Node4&#45;&gt;Node5</title>
<path fill="none" stroke="midnightblue" d="M580.913,-436.083C573.341,-428.22 562.122,-416.569 552.986,-407.081"/>
<polygon fill="midnightblue" stroke="midnightblue" points="555.385,-404.527 545.927,-399.751 550.342,-409.382 555.385,-404.527"/>
</g>
<!-- Node12 -->
<g id="node13" class="node"><title>Node12</title>
<polygon fill="white" stroke="#bfbfbf" points="1151.5,-62 1151.5,-81 1267.5,-81 1267.5,-62 1151.5,-62"/>
<text text-anchor="middle" x="1209.5" y="-69" font-family="Helvetica,sans-Serif" font-size="10.00">opencv2/core/core.hpp</text>
</g>
<!-- Node4&#45;&gt;Node12 -->
<g id="edge57" class="edge"><title>Node4&#45;&gt;Node12</title>
<path fill="none" stroke="midnightblue" d="M622.635,-437.036C624.278,-436.678 625.907,-436.33 627.5,-436 716.793,-417.484 742.395,-426.995 829.5,-400 956.228,-360.725 984.959,-340.41 1101.5,-277 1141.89,-255.022 1159.42,-256.625 1188.5,-221 1216.99,-186.089 1216.72,-168.008 1214.5,-123 1213.98,-112.375 1212.83,-100.537 1211.77,-90.9956"/>
<polygon fill="midnightblue" stroke="midnightblue" points="1215.25,-90.5831 1210.61,-81.0588 1208.3,-91.3985 1215.25,-90.5831"/>
</g>
<!-- Node27 -->
<g id="node28" class="node"><title>Node27</title>
<polygon fill="white" stroke="#bfbfbf" points="425.5,-257.5 425.5,-276.5 469.5,-276.5 469.5,-257.5 425.5,-257.5"/>
<text text-anchor="middle" x="447.5" y="-264.5" font-family="Helvetica,sans-Serif" font-size="10.00">mutex</text>
</g>
<!-- Node4&#45;&gt;Node27 -->
<g id="edge58" class="edge"><title>Node4&#45;&gt;Node27</title>
<path fill="none" stroke="midnightblue" d="M559.99,-436.408C522.283,-423.526 459.392,-395.087 438.5,-344 430.9,-325.415 435.409,-302.287 440.38,-286.457"/>
<polygon fill="midnightblue" stroke="midnightblue" points="443.756,-287.404 443.751,-276.809 437.148,-285.094 443.756,-287.404"/>
</g>
<!-- Node28 -->
<g id="node29" class="node"><title>Node28</title>
<g id="a_node29"><a xlink:href="_serializer_8h.html" target="_top" xlink:title="Serializer.h">
<polygon fill="white" stroke="black" points="630,-319 630,-338 695,-338 695,-319 630,-319"/>
<text text-anchor="middle" x="662.5" y="-326" font-family="Helvetica,sans-Serif" font-size="10.00">Serializer.h</text>
</a>
</g>
</g>
<!-- Node4&#45;&gt;Node28 -->
<g id="edge56" class="edge"><title>Node4&#45;&gt;Node28</title>
<path fill="none" stroke="midnightblue" d="M594.987,-436.319C606.983,-417.339 635.735,-371.848 651.573,-346.788"/>
<polygon fill="midnightblue" stroke="midnightblue" points="654.565,-348.605 656.949,-338.282 648.648,-344.865 654.565,-348.605"/>
</g>
<!-- Node29 -->
<g id="node30" class="node"><title>Node29</title>
<polygon fill="white" stroke="#bfbfbf" points="713,-313.5 713,-343.5 808,-343.5 808,-313.5 713,-313.5"/>
<text text-anchor="start" x="721" y="-331.5" font-family="Helvetica,sans-Serif" font-size="10.00">boost/serialization</text>
<text text-anchor="middle" x="760.5" y="-320.5" font-family="Helvetica,sans-Serif" font-size="10.00">/access.hpp</text>
</g>
<!-- Node4&#45;&gt;Node29 -->
<g id="edge59" class="edge"><title>Node4&#45;&gt;Node29</title>
<path fill="none" stroke="midnightblue" d="M602.353,-436.319C629.534,-417.96 693.438,-374.796 731.168,-349.312"/>
<polygon fill="midnightblue" stroke="midnightblue" points="733.378,-352.043 739.706,-343.545 729.46,-346.242 733.378,-352.043"/>
</g>
<!-- Node30 -->
<g id="node31" class="node"><title>Node30</title>
<g id="a_node31"><a xlink:href="_map_8h.html" target="_top" xlink:title="Map.h">
<polygon fill="white" stroke="black" points="776.5,-380.5 776.5,-399.5 820.5,-399.5 820.5,-380.5 776.5,-380.5"/>
<text text-anchor="middle" x="798.5" y="-387.5" font-family="Helvetica,sans-Serif" font-size="10.00">Map.h</text>
</a>
</g>
</g>
<!-- Node4&#45;&gt;Node30 -->
<g id="edge50" class="edge"><title>Node4&#45;&gt;Node30</title>
<path fill="none" stroke="midnightblue" d="M622.617,-436.444C662.134,-426.233 727.738,-409.283 766.675,-399.223"/>
<polygon fill="midnightblue" stroke="midnightblue" points="767.631,-402.591 776.438,-396.7 765.88,-395.813 767.631,-402.591"/>
</g>
<!-- Node5&#45;&gt;Node6 -->
<g id="edge6" class="edge"><title>Node5&#45;&gt;Node6</title>
<path fill="none" stroke="midnightblue" d="M502.475,-385.549C440.851,-377.34 319.5,-350.677 319.5,-268 319.5,-268 319.5,-268 319.5,-204.5 319.5,-165.57 333.9,-122.274 344.226,-96.2288"/>
<polygon fill="midnightblue" stroke="midnightblue" points="347.529,-97.4 348.08,-86.8195 341.051,-94.7467 347.529,-97.4"/>
</g>
<!-- Node5&#45;&gt;Node9 -->
<g id="edge10" class="edge"><title>Node5&#45;&gt;Node9</title>
<path fill="none" stroke="midnightblue" d="M512.673,-380.446C491.869,-372.657 461.902,-359.948 438.5,-344 357.82,-289.018 279.843,-201.948 245.62,-161.498"/>
<polygon fill="midnightblue" stroke="midnightblue" points="248.105,-159.014 238.997,-153.603 242.742,-163.513 248.105,-159.014"/>
</g>
<!-- Node5&#45;&gt;Node10 -->
<g id="edge15" class="edge"><title>Node5&#45;&gt;Node10</title>
<path fill="none" stroke="midnightblue" d="M545.796,-380.397C563.349,-362.386 604.061,-321.657 621.5,-313 678.994,-284.459 752.488,-273.947 802.703,-270.115"/>
<polygon fill="midnightblue" stroke="midnightblue" points="803.005,-273.603 812.737,-269.415 802.518,-266.62 803.005,-273.603"/>
</g>
<!-- Node24 -->
<g id="node25" class="node"><title>Node24</title>
<g id="a_node25"><a xlink:href="_key_frame_database_8h.html" target="_top" xlink:title="KeyFrameDatabase.h">
<polygon fill="white" stroke="black" points="461.5,-319 461.5,-338 573.5,-338 573.5,-319 461.5,-319"/>
<text text-anchor="middle" x="517.5" y="-326" font-family="Helvetica,sans-Serif" font-size="10.00">KeyFrameDatabase.h</text>
</a>
</g>
</g>
<!-- Node5&#45;&gt;Node24 -->
<g id="edge40" class="edge"><title>Node5&#45;&gt;Node24</title>
<path fill="none" stroke="midnightblue" d="M534.634,-380.475C531.783,-371.992 527.317,-358.704 523.659,-347.822"/>
<polygon fill="midnightblue" stroke="midnightblue" points="526.864,-346.373 520.36,-338.009 520.229,-348.603 526.864,-346.373"/>
</g>
<!-- Node5&#45;&gt;Node27 -->
<g id="edge47" class="edge"><title>Node5&#45;&gt;Node27</title>
<path fill="none" stroke="midnightblue" d="M505,-380.422C486.371,-373.712 464.392,-362.359 452.5,-344 441.519,-327.048 441.862,-303.268 443.925,-286.843"/>
<polygon fill="midnightblue" stroke="midnightblue" points="447.405,-287.246 445.51,-276.822 440.491,-286.152 447.405,-287.246"/>
</g>
<!-- Node5&#45;&gt;Node28 -->
<g id="edge46" class="edge"><title>Node5&#45;&gt;Node28</title>
<path fill="none" stroke="midnightblue" d="M555.409,-380.475C576.387,-370.49 611.35,-353.848 635.593,-342.307"/>
<polygon fill="midnightblue" stroke="midnightblue" points="637.099,-345.467 644.624,-338.009 634.09,-339.147 637.099,-345.467"/>
</g>
<!-- Node5&#45;&gt;Node29 -->
<g id="edge48" class="edge"><title>Node5&#45;&gt;Node29</title>
<path fill="none" stroke="midnightblue" d="M569.45,-380.475C604.125,-371.223 660.217,-356.257 702.673,-344.929"/>
<polygon fill="midnightblue" stroke="midnightblue" points="703.843,-348.239 712.603,-342.28 702.039,-341.476 703.843,-348.239"/>
</g>
<!-- Node6&#45;&gt;Node3 -->
<g id="edge9" class="edge"><title>Node6&#45;&gt;Node3</title>
<path fill="none" stroke="midnightblue" d="M411.133,-57.5894C463.904,-45.5593 540.703,-28.0515 583.554,-18.2828"/>
<polygon fill="midnightblue" stroke="midnightblue" points="584.456,-21.6669 593.428,-16.0317 582.901,-14.8419 584.456,-21.6669"/>
</g>
<!-- Node7 -->
<g id="node8" class="node"><title>Node7</title>
<polygon fill="white" stroke="#bfbfbf" points="303.5,-0.5 303.5,-19.5 357.5,-19.5 357.5,-0.5 303.5,-0.5"/>
<text text-anchor="middle" x="330.5" y="-7.5" font-family="Helvetica,sans-Serif" font-size="10.00">iostream</text>
</g>
<!-- Node6&#45;&gt;Node7 -->
<g id="edge7" class="edge"><title>Node6&#45;&gt;Node7</title>
<path fill="none" stroke="midnightblue" d="M348.812,-56.3993C345.505,-48.1989 341.302,-37.7809 337.758,-28.9936"/>
<polygon fill="midnightblue" stroke="midnightblue" points="340.979,-27.6225 333.992,-19.6578 334.487,-30.2411 340.979,-27.6225"/>
</g>
<!-- Node8 -->
<g id="node9" class="node"><title>Node8</title>
<polygon fill="white" stroke="#bfbfbf" points="201,-0.5 201,-19.5 236,-19.5 236,-0.5 201,-0.5"/>
<text text-anchor="middle" x="218.5" y="-7.5" font-family="Helvetica,sans-Serif" font-size="10.00">map</text>
</g>
<!-- Node6&#45;&gt;Node8 -->
<g id="edge8" class="edge"><title>Node6&#45;&gt;Node8</title>
<path fill="none" stroke="midnightblue" d="M322.27,-56.3993C298.974,-46.2074 267.848,-32.5898 245.78,-22.935"/>
<polygon fill="midnightblue" stroke="midnightblue" points="246.903,-19.6061 236.339,-18.8044 244.097,-26.0192 246.903,-19.6061"/>
</g>
<!-- Node9&#45;&gt;Node3 -->
<g id="edge13" class="edge"><title>Node9&#45;&gt;Node3</title>
<path fill="none" stroke="midnightblue" d="M233.797,-123.224C242.919,-104.392 261.702,-71.7924 288.5,-56 337.926,-26.8734 510.066,-15.7808 582.733,-12.3298"/>
<polygon fill="midnightblue" stroke="midnightblue" points="583.277,-15.8087 593.107,-11.8573 582.958,-8.81595 583.277,-15.8087"/>
</g>
<!-- Node9&#45;&gt;Node6 -->
<g id="edge11" class="edge"><title>Node9&#45;&gt;Node6</title>
<path fill="none" stroke="midnightblue" d="M255.057,-123.396C273.447,-113.984 297.833,-101.503 317.854,-91.2557"/>
<polygon fill="midnightblue" stroke="midnightblue" points="319.689,-94.2483 326.997,-86.5765 316.5,-88.017 319.689,-94.2483"/>
</g>
<!-- Node9&#45;&gt;Node7 -->
<g id="edge14" class="edge"><title>Node9&#45;&gt;Node7</title>
<path fill="none" stroke="midnightblue" d="M229.335,-123.394C232.233,-105.915 239.306,-75.9988 255.5,-56 266.788,-42.06 283.627,-31.4034 298.491,-23.9682"/>
<polygon fill="midnightblue" stroke="midnightblue" points="300.336,-26.9683 307.896,-19.5452 297.357,-20.6339 300.336,-26.9683"/>
</g>
<!-- Node9&#45;&gt;Node8 -->
<g id="edge12" class="edge"><title>Node9&#45;&gt;Node8</title>
<path fill="none" stroke="midnightblue" d="M223.953,-123.461C221.597,-113.389 218.721,-99.4529 217.5,-87 216.155,-73.288 217.347,-69.7769 217.5,-56 217.596,-47.3961 217.794,-37.8686 217.989,-29.8037"/>
<polygon fill="midnightblue" stroke="midnightblue" points="221.492,-29.7128 218.251,-19.6259 214.495,-29.5323 221.492,-29.7128"/>
</g>
<!-- Node11 -->
<g id="node12" class="node"><title>Node11</title>
<g id="a_node12"><a xlink:href="_f_o_r_b_8h.html" target="_top" xlink:title="../Thirdparty/DBoW2\l/DBoW2/FORB.h">
<polygon fill="white" stroke="black" points="1072,-190.5 1072,-220.5 1179,-220.5 1179,-190.5 1072,-190.5"/>
<text text-anchor="start" x="1080" y="-208.5" font-family="Helvetica,sans-Serif" font-size="10.00">../Thirdparty/DBoW2</text>
<text text-anchor="middle" x="1125.5" y="-197.5" font-family="Helvetica,sans-Serif" font-size="10.00">/DBoW2/FORB.h</text>
</a>
</g>
</g>
<!-- Node10&#45;&gt;Node11 -->
<g id="edge16" class="edge"><title>Node10&#45;&gt;Node11</title>
<path fill="none" stroke="midnightblue" d="M898.468,-257.475C941,-247.925 1010.65,-232.288 1061.6,-220.847"/>
<polygon fill="midnightblue" stroke="midnightblue" points="1062.54,-224.223 1071.53,-218.617 1061.01,-217.393 1062.54,-224.223"/>
</g>
<!-- Node15 -->
<g id="node16" class="node"><title>Node15</title>
<g id="a_node16"><a xlink:href="_templated_vocabulary_8h.html" target="_top" xlink:title="../Thirdparty/DBoW2\l/DBoW2/TemplatedVocabulary.h">
<polygon fill="white" stroke="black" points="728.5,-190.5 728.5,-220.5 888.5,-220.5 888.5,-190.5 728.5,-190.5"/>
<text text-anchor="start" x="736.5" y="-208.5" font-family="Helvetica,sans-Serif" font-size="10.00">../Thirdparty/DBoW2</text>
<text text-anchor="middle" x="808.5" y="-197.5" font-family="Helvetica,sans-Serif" font-size="10.00">/DBoW2/TemplatedVocabulary.h</text>
</a>
</g>
</g>
<!-- Node10&#45;&gt;Node15 -->
<g id="edge24" class="edge"><title>Node10&#45;&gt;Node15</title>
<path fill="none" stroke="midnightblue" d="M853.05,-257.475C846.402,-249.869 836.378,-238.399 827.521,-228.265"/>
<polygon fill="midnightblue" stroke="midnightblue" points="829.971,-225.749 820.755,-220.523 824.701,-230.356 829.971,-225.749"/>
</g>
<!-- Node11&#45;&gt;Node3 -->
<g id="edge18" class="edge"><title>Node11&#45;&gt;Node3</title>
<path fill="none" stroke="midnightblue" d="M1159.49,-190.362C1217.35,-164.422 1324.32,-107.183 1276.5,-56 1233.25,-9.7035 774.823,-9.76495 647.906,-10.681"/>
<polygon fill="midnightblue" stroke="midnightblue" points="647.644,-7.18285 637.673,-10.7621 647.7,-14.1826 647.644,-7.18285"/>
</g>
<!-- Node11&#45;&gt;Node12 -->
<g id="edge17" class="edge"><title>Node11&#45;&gt;Node12</title>
<path fill="none" stroke="midnightblue" d="M1154.65,-190.433C1169.2,-181.905 1185.74,-169.636 1195.5,-154 1207.41,-134.918 1209.99,-108.665 1210.19,-91.1668"/>
<polygon fill="midnightblue" stroke="midnightblue" points="1213.69,-91.0484 1210.06,-81.0954 1206.69,-91.1406 1213.69,-91.0484"/>
</g>
<!-- Node13 -->
<g id="node14" class="node"><title>Node13</title>
<polygon fill="white" stroke="#bfbfbf" points="1049,-62 1049,-81 1090,-81 1090,-62 1049,-62"/>
<text text-anchor="middle" x="1069.5" y="-69" font-family="Helvetica,sans-Serif" font-size="10.00">string</text>
</g>
<!-- Node11&#45;&gt;Node13 -->
<g id="edge19" class="edge"><title>Node11&#45;&gt;Node13</title>
<path fill="none" stroke="midnightblue" d="M1112.8,-190.468C1104.73,-180.845 1094.67,-167.432 1088.5,-154 1079.23,-133.834 1074.26,-108.717 1071.76,-91.7371"/>
<polygon fill="midnightblue" stroke="midnightblue" points="1075.18,-90.8973 1070.4,-81.4426 1068.24,-91.8153 1075.18,-90.8973"/>
</g>
<!-- Node14 -->
<g id="node15" class="node"><title>Node14</title>
<g id="a_node15"><a xlink:href="_f_class_8h.html" target="_top" xlink:title="FClass.h">
<polygon fill="white" stroke="black" points="1097.5,-129 1097.5,-148 1153.5,-148 1153.5,-129 1097.5,-129"/>
<text text-anchor="middle" x="1125.5" y="-136" font-family="Helvetica,sans-Serif" font-size="10.00">FClass.h</text>
</a>
</g>
</g>
<!-- Node11&#45;&gt;Node14 -->
<g id="edge20" class="edge"><title>Node11&#45;&gt;Node14</title>
<path fill="none" stroke="midnightblue" d="M1125.5,-190.396C1125.5,-181.064 1125.5,-168.714 1125.5,-158.517"/>
<polygon fill="midnightblue" stroke="midnightblue" points="1129,-158.195 1125.5,-148.195 1122,-158.195 1129,-158.195"/>
</g>
<!-- Node14&#45;&gt;Node3 -->
<g id="edge22" class="edge"><title>Node14&#45;&gt;Node3</title>
<path fill="none" stroke="midnightblue" d="M1125.62,-128.915C1125.34,-111.938 1122.07,-74.1507 1099.5,-56 1064.33,-27.7134 749.949,-15.278 647.569,-11.9547"/>
<polygon fill="midnightblue" stroke="midnightblue" points="647.624,-8.45477 637.518,-11.6358 647.402,-15.4513 647.624,-8.45477"/>
</g>
<!-- Node14&#45;&gt;Node12 -->
<g id="edge21" class="edge"><title>Node14&#45;&gt;Node12</title>
<path fill="none" stroke="midnightblue" d="M1136.83,-128.734C1150.56,-118.111 1173.9,-100.049 1190.42,-87.2642"/>
<polygon fill="midnightblue" stroke="midnightblue" points="1192.58,-90.0152 1198.35,-81.1273 1188.3,-84.4791 1192.58,-90.0152"/>
</g>
<!-- Node14&#45;&gt;Node13 -->
<g id="edge23" class="edge"><title>Node14&#45;&gt;Node13</title>
<path fill="none" stroke="midnightblue" d="M1117.95,-128.734C1109.22,-118.598 1094.65,-101.69 1083.76,-89.0556"/>
<polygon fill="midnightblue" stroke="midnightblue" points="1086.11,-86.4189 1076.93,-81.1273 1080.81,-90.9879 1086.11,-86.4189"/>
</g>
<!-- Node15&#45;&gt;Node3 -->
<g id="edge26" class="edge"><title>Node15&#45;&gt;Node3</title>
<path fill="none" stroke="midnightblue" d="M888.646,-193.376C943.779,-182.175 1002.42,-160.953 974.5,-123 934.885,-69.1429 728.885,-29.7759 648.077,-16.1844"/>
<polygon fill="midnightblue" stroke="midnightblue" points="648.414,-12.6925 637.976,-14.5106 647.269,-19.5984 648.414,-12.6925"/>
</g>
<!-- Node15&#45;&gt;Node6 -->
<g id="edge34" class="edge"><title>Node15&#45;&gt;Node6</title>
<path fill="none" stroke="midnightblue" d="M728.084,-199.936C610.457,-192.542 402.552,-176.472 376.5,-154 360.265,-139.996 355.401,-115.384 354.213,-96.8598"/>
<polygon fill="midnightblue" stroke="midnightblue" points="357.709,-96.6621 353.881,-86.7831 350.713,-96.8931 357.709,-96.6621"/>
</g>
<!-- Node15&#45;&gt;Node9 -->
<g id="edge33" class="edge"><title>Node15&#45;&gt;Node9</title>
<path fill="none" stroke="midnightblue" d="M728.227,-196.181C635.507,-186.479 478.397,-169.755 343.5,-154 329.874,-152.409 315.357,-150.647 301.368,-148.915"/>
<polygon fill="midnightblue" stroke="midnightblue" points="301.652,-145.424 291.297,-147.663 300.788,-152.37 301.652,-145.424"/>
</g>
<!-- Node15&#45;&gt;Node12 -->
<g id="edge31" class="edge"><title>Node15&#45;&gt;Node12</title>
<path fill="none" stroke="midnightblue" d="M888.712,-201.127C979.106,-195.947 1119.11,-183.347 1162.5,-154 1184.66,-139.013 1197.7,-109.848 1204.22,-90.7776"/>
<polygon fill="midnightblue" stroke="midnightblue" points="1207.59,-91.7271 1207.26,-81.1375 1200.92,-89.6231 1207.59,-91.7271"/>
</g>
<!-- Node15&#45;&gt;Node13 -->
<g id="edge29" class="edge"><title>Node15&#45;&gt;Node13</title>
<path fill="none" stroke="midnightblue" d="M888.57,-196.614C927.02,-189.856 972.274,-177.306 1007.5,-154 1031.88,-137.869 1050.52,-108.832 1060.74,-90.1265"/>
<polygon fill="midnightblue" stroke="midnightblue" points="1063.88,-91.661 1065.41,-81.1769 1057.68,-88.4197 1063.88,-91.661"/>
</g>
<!-- Node16 -->
<g id="node17" class="node"><title>Node16</title>
<polygon fill="white" stroke="#bfbfbf" points="647,-129 647,-148 696,-148 696,-129 647,-129"/>
<text text-anchor="middle" x="671.5" y="-136" font-family="Helvetica,sans-Serif" font-size="10.00">cassert</text>
</g>
<!-- Node15&#45;&gt;Node16 -->
<g id="edge25" class="edge"><title>Node15&#45;&gt;Node16</title>
<path fill="none" stroke="midnightblue" d="M778.773,-190.396C754.948,-179.092 721.791,-163.361 698.669,-152.39"/>
<polygon fill="midnightblue" stroke="midnightblue" points="699.965,-149.131 689.43,-148.007 696.965,-155.456 699.965,-149.131"/>
</g>
<!-- Node17 -->
<g id="node18" class="node"><title>Node17</title>
<polygon fill="white" stroke="#bfbfbf" points="714,-129 714,-148 765,-148 765,-129 714,-129"/>
<text text-anchor="middle" x="739.5" y="-136" font-family="Helvetica,sans-Serif" font-size="10.00">numeric</text>
</g>
<!-- Node15&#45;&gt;Node17 -->
<g id="edge27" class="edge"><title>Node15&#45;&gt;Node17</title>
<path fill="none" stroke="midnightblue" d="M793.528,-190.396C782.556,-180.06 767.656,-166.024 756.282,-155.309"/>
<polygon fill="midnightblue" stroke="midnightblue" points="758.408,-152.504 748.73,-148.195 753.609,-157.599 758.408,-152.504"/>
</g>
<!-- Node18 -->
<g id="node19" class="node"><title>Node18</title>
<polygon fill="white" stroke="#bfbfbf" points="783.5,-129 783.5,-148 833.5,-148 833.5,-129 783.5,-129"/>
<text text-anchor="middle" x="808.5" y="-136" font-family="Helvetica,sans-Serif" font-size="10.00">fstream</text>
</g>
<!-- Node15&#45;&gt;Node18 -->
<g id="edge28" class="edge"><title>Node15&#45;&gt;Node18</title>
<path fill="none" stroke="midnightblue" d="M808.5,-190.396C808.5,-181.064 808.5,-168.714 808.5,-158.517"/>
<polygon fill="midnightblue" stroke="midnightblue" points="812,-158.195 808.5,-148.195 805,-158.195 812,-158.195"/>
</g>
<!-- Node19 -->
<g id="node20" class="node"><title>Node19</title>
<polygon fill="white" stroke="#bfbfbf" points="851.5,-129 851.5,-148 907.5,-148 907.5,-129 851.5,-129"/>
<text text-anchor="middle" x="879.5" y="-136" font-family="Helvetica,sans-Serif" font-size="10.00">algorithm</text>
</g>
<!-- Node15&#45;&gt;Node19 -->
<g id="edge30" class="edge"><title>Node15&#45;&gt;Node19</title>
<path fill="none" stroke="midnightblue" d="M823.906,-190.396C835.305,-179.96 850.826,-165.751 862.572,-154.998"/>
<polygon fill="midnightblue" stroke="midnightblue" points="864.99,-157.529 870.003,-148.195 860.264,-152.366 864.99,-157.529"/>
</g>
<!-- Node20 -->
<g id="node21" class="node"><title>Node20</title>
<polygon fill="white" stroke="#bfbfbf" points="925.5,-129 925.5,-148 965.5,-148 965.5,-129 925.5,-129"/>
<text text-anchor="middle" x="945.5" y="-136" font-family="Helvetica,sans-Serif" font-size="10.00">limits</text>
</g>
<!-- Node15&#45;&gt;Node20 -->
<g id="edge32" class="edge"><title>Node15&#45;&gt;Node20</title>
<path fill="none" stroke="midnightblue" d="M839.326,-190.347C860.986,-180.339 890.6,-166.528 916.5,-154 917.488,-153.522 918.494,-153.033 919.509,-152.537"/>
<polygon fill="midnightblue" stroke="midnightblue" points="921.255,-155.578 928.669,-148.009 918.153,-149.303 921.255,-155.578"/>
</g>
<!-- Node21 -->
<g id="node22" class="node"><title>Node21</title>
<g id="a_node22"><a xlink:href="_scoring_object_8h.html" target="_top" xlink:title="ScoringObject.h">
<polygon fill="white" stroke="black" points="385.5,-129 385.5,-148 471.5,-148 471.5,-129 385.5,-129"/>
<text text-anchor="middle" x="428.5" y="-136" font-family="Helvetica,sans-Serif" font-size="10.00">ScoringObject.h</text>
</a>
</g>
</g>
<!-- Node15&#45;&gt;Node21 -->
<g id="edge35" class="edge"><title>Node15&#45;&gt;Node21</title>
<path fill="none" stroke="midnightblue" d="M728.376,-190.795C654.07,-178.084 545.604,-159.531 481.521,-148.569"/>
<polygon fill="midnightblue" stroke="midnightblue" points="482.076,-145.114 471.629,-146.877 480.896,-152.013 482.076,-145.114"/>
</g>
<!-- Node22 -->
<g id="node23" class="node"><title>Node22</title>
<g id="a_node23"><a xlink:href="_random_8h.html" target="_top" xlink:title="../DUtils/Random.h">
<polygon fill="white" stroke="black" points="528,-129 528,-148 629,-148 629,-129 528,-129"/>
<text text-anchor="middle" x="578.5" y="-136" font-family="Helvetica,sans-Serif" font-size="10.00">../DUtils/Random.h</text>
</a>
</g>
</g>
<!-- Node15&#45;&gt;Node22 -->
<g id="edge37" class="edge"><title>Node15&#45;&gt;Node22</title>
<path fill="none" stroke="midnightblue" d="M758.877,-190.476C716.933,-178.622 657.614,-161.858 618.619,-150.838"/>
<polygon fill="midnightblue" stroke="midnightblue" points="619.253,-147.38 608.678,-148.029 617.35,-154.116 619.253,-147.38"/>
</g>
<!-- Node21&#45;&gt;Node6 -->
<g id="edge36" class="edge"><title>Node21&#45;&gt;Node6</title>
<path fill="none" stroke="midnightblue" d="M418.52,-128.734C408.231,-119.696 391.812,-105.274 378.178,-93.2982"/>
<polygon fill="midnightblue" stroke="midnightblue" points="380.363,-90.5588 370.54,-86.589 375.743,-95.8181 380.363,-90.5588"/>
</g>
<!-- Node22&#45;&gt;Node3 -->
<g id="edge39" class="edge"><title>Node22&#45;&gt;Node3</title>
<path fill="none" stroke="midnightblue" d="M581.951,-128.647C585.787,-118.632 592.027,-101.789 596.5,-87 602.393,-67.5154 607.89,-44.8359 611.439,-29.3576"/>
<polygon fill="midnightblue" stroke="midnightblue" points="614.875,-30.033 613.658,-19.5083 608.046,-28.4949 614.875,-30.033"/>
</g>
<!-- Node23 -->
<g id="node24" class="node"><title>Node23</title>
<polygon fill="white" stroke="#bfbfbf" points="542,-62 542,-81 587,-81 587,-62 542,-62"/>
<text text-anchor="middle" x="564.5" y="-69" font-family="Helvetica,sans-Serif" font-size="10.00">cstdlib</text>
</g>
<!-- Node22&#45;&gt;Node23 -->
<g id="edge38" class="edge"><title>Node22&#45;&gt;Node23</title>
<path fill="none" stroke="midnightblue" d="M576.612,-128.734C574.534,-119.085 571.134,-103.3 568.464,-90.9063"/>
<polygon fill="midnightblue" stroke="midnightblue" points="571.885,-90.1661 566.358,-81.1273 565.042,-91.6401 571.885,-90.1661"/>
</g>
<!-- Node24&#45;&gt;Node3 -->
<g id="edge41" class="edge"><title>Node24&#45;&gt;Node3</title>
<path fill="none" stroke="midnightblue" d="M515.293,-318.761C510.486,-298.936 499.5,-248.976 499.5,-206.5 499.5,-206.5 499.5,-206.5 499.5,-137.5 499.5,-98.2521 507.267,-85.1926 533.5,-56 547.11,-40.8547 567.06,-29.7499 583.874,-22.3611"/>
<polygon fill="midnightblue" stroke="midnightblue" points="585.443,-25.4999 593.34,-18.4376 582.762,-19.0334 585.443,-25.4999"/>
</g>
<!-- Node24&#45;&gt;Node10 -->
<g id="edge44" class="edge"><title>Node24&#45;&gt;Node10</title>
<path fill="none" stroke="midnightblue" d="M557.423,-318.936C567.242,-316.911 577.739,-314.815 587.5,-313 661.524,-299.238 747.246,-285.459 802.59,-276.842"/>
<polygon fill="midnightblue" stroke="midnightblue" points="803.216,-280.287 812.56,-275.295 802.142,-273.37 803.216,-280.287"/>
</g>
<!-- Node25 -->
<g id="node26" class="node"><title>Node25</title>
<polygon fill="white" stroke="#bfbfbf" points="1063,-257.5 1063,-276.5 1092,-276.5 1092,-257.5 1063,-257.5"/>
<text text-anchor="middle" x="1077.5" y="-264.5" font-family="Helvetica,sans-Serif" font-size="10.00">list</text>
</g>
<!-- Node24&#45;&gt;Node25 -->
<g id="edge42" class="edge"><title>Node24&#45;&gt;Node25</title>
<path fill="none" stroke="midnightblue" d="M573.58,-319.261C589.087,-317.097 605.932,-314.853 621.5,-313 785.748,-293.454 984.003,-275.973 1052.67,-270.097"/>
<polygon fill="midnightblue" stroke="midnightblue" points="1053.24,-273.561 1062.91,-269.225 1052.65,-266.587 1053.24,-273.561"/>
</g>
<!-- Node26 -->
<g id="node27" class="node"><title>Node26</title>
<polygon fill="white" stroke="#bfbfbf" points="646.5,-257.5 646.5,-276.5 676.5,-276.5 676.5,-257.5 646.5,-257.5"/>
<text text-anchor="middle" x="661.5" y="-264.5" font-family="Helvetica,sans-Serif" font-size="10.00">set</text>
</g>
<!-- Node24&#45;&gt;Node26 -->
<g id="edge43" class="edge"><title>Node24&#45;&gt;Node26</title>
<path fill="none" stroke="midnightblue" d="M538.132,-318.975C564.174,-308.214 608.926,-289.723 636.772,-278.218"/>
<polygon fill="midnightblue" stroke="midnightblue" points="638.295,-281.375 646.2,-274.322 635.622,-274.906 638.295,-281.375"/>
</g>
<!-- Node24&#45;&gt;Node27 -->
<g id="edge45" class="edge"><title>Node24&#45;&gt;Node27</title>
<path fill="none" stroke="midnightblue" d="M507.471,-318.975C496.451,-309.608 478.54,-294.384 465.157,-283.008"/>
<polygon fill="midnightblue" stroke="midnightblue" points="467.397,-280.319 457.511,-276.509 462.863,-285.652 467.397,-280.319"/>
</g>
<!-- Node30&#45;&gt;Node10 -->
<g id="edge51" class="edge"><title>Node30&#45;&gt;Node10</title>
<path fill="none" stroke="midnightblue" d="M820.777,-384.792C842.323,-379.41 873.805,-367.776 888.5,-344 900.102,-325.228 886.956,-300.91 875.045,-284.901"/>
<polygon fill="midnightblue" stroke="midnightblue" points="877.684,-282.596 868.72,-276.949 872.206,-286.954 877.684,-282.596"/>
</g>
<!-- Node30&#45;&gt;Node26 -->
<g id="edge52" class="edge"><title>Node30&#45;&gt;Node26</title>
<path fill="none" stroke="midnightblue" d="M814.283,-380.467C826.703,-372.769 843.105,-360.179 850.5,-344 856.228,-331.469 859.04,-323.812 850.5,-313 830.371,-287.515 733.587,-274.909 686.857,-270.226"/>
<polygon fill="midnightblue" stroke="midnightblue" points="686.936,-266.717 676.649,-269.25 686.27,-273.686 686.936,-266.717"/>
</g>
<!-- Node30&#45;&gt;Node27 -->
<g id="edge53" class="edge"><title>Node30&#45;&gt;Node27</title>
<path fill="none" stroke="midnightblue" d="M805.054,-380.307C815.869,-364.838 834.634,-332.344 817.5,-313 795.23,-287.857 565.716,-273.898 479.763,-269.52"/>
<polygon fill="midnightblue" stroke="midnightblue" points="479.711,-266.013 469.549,-269.011 479.363,-273.005 479.711,-266.013"/>
</g>
<!-- Node30&#45;&gt;Node28 -->
<g id="edge55" class="edge"><title>Node30&#45;&gt;Node28</title>
<path fill="none" stroke="midnightblue" d="M779.015,-380.475C756.09,-370.445 717.815,-353.7 691.425,-342.155"/>
<polygon fill="midnightblue" stroke="midnightblue" points="692.514,-338.811 681.949,-338.009 689.708,-345.224 692.514,-338.811"/>
</g>
<!-- Node30&#45;&gt;Node29 -->
<g id="edge54" class="edge"><title>Node30&#45;&gt;Node29</title>
<path fill="none" stroke="midnightblue" d="M793.056,-380.475C788.342,-373.094 781.306,-362.077 774.979,-352.171"/>
<polygon fill="midnightblue" stroke="midnightblue" points="777.788,-350.067 769.456,-343.523 771.889,-353.835 777.788,-350.067"/>
</g>
<!-- Node31&#45;&gt;Node3 -->
<g id="edge64" class="edge"><title>Node31&#45;&gt;Node3</title>
<path fill="none" stroke="midnightblue" d="M1338.16,-318.985C1348.31,-299.619 1371.5,-250.537 1371.5,-206.5 1371.5,-206.5 1371.5,-206.5 1371.5,-137.5 1371.5,-87.9724 1340.24,-77.2387 1295.5,-56 1236.63,-28.0536 775.395,-14.8788 648,-11.7499"/>
<polygon fill="midnightblue" stroke="midnightblue" points="647.812,-8.24438 637.73,-11.5017 647.643,-15.2423 647.812,-8.24438"/>
</g>
<!-- Node31&#45;&gt;Node12 -->
<g id="edge66" class="edge"><title>Node31&#45;&gt;Node12</title>
<path fill="none" stroke="midnightblue" d="M1332.7,-318.956C1329.59,-289.383 1316.14,-189.55 1271.5,-123 1261.57,-108.199 1246.01,-95.5435 1232.96,-86.6034"/>
<polygon fill="midnightblue" stroke="midnightblue" points="1234.72,-83.5681 1224.43,-81.027 1230.89,-89.4277 1234.72,-83.5681"/>
</g>
<!-- Node31&#45;&gt;Node25 -->
<g id="edge65" class="edge"><title>Node31&#45;&gt;Node25</title>
<path fill="none" stroke="midnightblue" d="M1300.68,-318.992C1292.77,-316.986 1284.34,-314.884 1276.5,-313 1213.81,-297.94 1139.65,-281.545 1102.04,-273.328"/>
<polygon fill="midnightblue" stroke="midnightblue" points="1102.53,-269.853 1092.01,-271.143 1101.04,-276.692 1102.53,-269.853"/>
</g>
</g>
</svg>
