<?xml version="1.0" encoding="UTF-8" standalone="no"?>
<!DOCTYPE svg PUBLIC "-//W3C//DTD SVG 1.1//EN"
 "http://www.w3.org/Graphics/SVG/1.1/DTD/svg11.dtd">
<!-- Generated by graphviz version 2.40.1 (20161225.0304)
 -->
<!-- Title: /home/alejandro/Desarrollo eclipse/os1/include/Initializer.h Pages: 1 -->
<svg width="1153pt" height="307pt"
 viewBox="0.00 0.00 1152.74 307.00" xmlns="http://www.w3.org/2000/svg" xmlns:xlink="http://www.w3.org/1999/xlink">
<g id="graph0" class="graph" transform="scale(1 1) rotate(0) translate(4 303)">
<title>/home/alejandro/Desarrollo eclipse/os1/include/Initializer.h</title>
<polygon fill="#ffffff" stroke="transparent" points="-4,4 -4,-303 1148.7356,-303 1148.7356,4 -4,4"/>
<!-- Node30 -->
<g id="node1" class="node">
<title>Node30</title>
<polygon fill="#bfbfbf" stroke="#000000" points="838.7356,-268.5 838.7356,-298.5 991.7356,-298.5 991.7356,-268.5 838.7356,-268.5"/>
<text text-anchor="start" x="846.7356" y="-286.5" font-family="Helvetica,sans-Serif" font-size="10.00" fill="#000000">/home/alejandro/Desarrollo</text>
<text text-anchor="middle" x="915.2356" y="-275.5" font-family="Helvetica,sans-Serif" font-size="10.00" fill="#000000"> eclipse/os1/include/Initializer.h</text>
</g>
<!-- Node31 -->
<g id="node2" class="node">
<title>Node31</title>
<g id="a_node2"><a xlink:href="_tracking_8h.html" target="_top" xlink:title="/home/alejandro/Desarrollo\l eclipse/os1/include/Tracking.h">
<polygon fill="#ffffff" stroke="#000000" points="306.2356,-201.5 306.2356,-231.5 458.2356,-231.5 458.2356,-201.5 306.2356,-201.5"/>
<text text-anchor="start" x="314.2356" y="-219.5" font-family="Helvetica,sans-Serif" font-size="10.00" fill="#000000">/home/alejandro/Desarrollo</text>
<text text-anchor="middle" x="382.2356" y="-208.5" font-family="Helvetica,sans-Serif" font-size="10.00" fill="#000000"> eclipse/os1/include/Tracking.h</text>
</a>
</g>
</g>
<!-- Node30&#45;&gt;Node31 -->
<g id="edge1" class="edge">
<title>Node30&#45;&gt;Node31</title>
<path fill="none" stroke="#191970" d="M828.5501,-272.6033C725.8133,-259.6889 556.2542,-238.3748 458.3713,-226.0705"/>
<polygon fill="#191970" stroke="#191970" points="828.2276,-276.0902 838.5861,-273.8649 829.1007,-269.1449 828.2276,-276.0902"/>
</g>
<!-- Node37 -->
<g id="node8" class="node">
<title>Node37</title>
<g id="a_node8"><a xlink:href="_initializer_8cc.html" target="_top" xlink:title="/home/alejandro/Desarrollo\l eclipse/os1/src/Initializer.cc">
<polygon fill="#ffffff" stroke="#000000" points="1003.7356,-.5 1003.7356,-30.5 1144.7356,-30.5 1144.7356,-.5 1003.7356,-.5"/>
<text text-anchor="start" x="1011.7356" y="-18.5" font-family="Helvetica,sans-Serif" font-size="10.00" fill="#000000">/home/alejandro/Desarrollo</text>
<text text-anchor="middle" x="1074.2356" y="-7.5" font-family="Helvetica,sans-Serif" font-size="10.00" fill="#000000"> eclipse/os1/src/Initializer.cc</text>
</a>
</g>
</g>
<!-- Node30&#45;&gt;Node37 -->
<g id="edge27" class="edge">
<title>Node30&#45;&gt;Node37</title>
<path fill="none" stroke="#191970" d="M929.5254,-259.414C961.699,-205.1844 1039.0572,-74.7944 1065.3302,-30.5103"/>
<polygon fill="#191970" stroke="#191970" points="926.332,-257.9371 924.2397,-268.3233 932.3523,-261.5088 926.332,-257.9371"/>
</g>
<!-- Node40 -->
<g id="node11" class="node">
<title>Node40</title>
<g id="a_node11"><a xlink:href="_tracking_8cc.html" target="_top" xlink:title="/home/alejandro/Desarrollo\l eclipse/os1/src/Tracking.cc">
<polygon fill="#ffffff" stroke="#000000" points="845.2356,-.5 845.2356,-30.5 985.2356,-30.5 985.2356,-.5 845.2356,-.5"/>
<text text-anchor="start" x="853.2356" y="-18.5" font-family="Helvetica,sans-Serif" font-size="10.00" fill="#000000">/home/alejandro/Desarrollo</text>
<text text-anchor="middle" x="915.2356" y="-7.5" font-family="Helvetica,sans-Serif" font-size="10.00" fill="#000000"> eclipse/os1/src/Tracking.cc</text>
</a>
</g>
</g>
<!-- Node30&#45;&gt;Node40 -->
<g id="edge28" class="edge">
<title>Node30&#45;&gt;Node40</title>
<path fill="none" stroke="#191970" d="M915.2356,-258.0511C915.2356,-203.0306 915.2356,-74.4277 915.2356,-30.5103"/>
<polygon fill="#191970" stroke="#191970" points="911.7357,-258.3232 915.2356,-268.3233 918.7357,-258.3233 911.7357,-258.3232"/>
</g>
<!-- Node32 -->
<g id="node3" class="node">
<title>Node32</title>
<g id="a_node3"><a xlink:href="_loop_closing_8h.html" target="_top" xlink:title="/home/alejandro/Desarrollo\l eclipse/os1/include/LoopClosing.h">
<polygon fill="#ffffff" stroke="#000000" points="632.2356,-134.5 632.2356,-164.5 800.2356,-164.5 800.2356,-134.5 632.2356,-134.5"/>
<text text-anchor="start" x="640.2356" y="-152.5" font-family="Helvetica,sans-Serif" font-size="10.00" fill="#000000">/home/alejandro/Desarrollo</text>
<text text-anchor="middle" x="716.2356" y="-141.5" font-family="Helvetica,sans-Serif" font-size="10.00" fill="#000000"> eclipse/os1/include/LoopClosing.h</text>
</a>
</g>
</g>
<!-- Node31&#45;&gt;Node32 -->
<g id="edge2" class="edge">
<title>Node31&#45;&gt;Node32</title>
<path fill="none" stroke="#191970" d="M461.3994,-199.4222C513.9381,-188.6601 582.6415,-174.8936 635.4998,-164.5438"/>
<polygon fill="#191970" stroke="#191970" points="460.5433,-196.0249 451.4512,-201.4639 461.9507,-202.882 460.5433,-196.0249"/>
</g>
<!-- Node33 -->
<g id="node4" class="node">
<title>Node33</title>
<g id="a_node4"><a xlink:href="_local_mapping_8h.html" target="_top" xlink:title="/home/alejandro/Desarrollo\l eclipse/os1/include/LocalMapping.h">
<polygon fill="#ffffff" stroke="#000000" points="323.2356,-67.5 323.2356,-97.5 497.2356,-97.5 497.2356,-67.5 323.2356,-67.5"/>
<text text-anchor="start" x="331.2356" y="-85.5" font-family="Helvetica,sans-Serif" font-size="10.00" fill="#000000">/home/alejandro/Desarrollo</text>
<text text-anchor="middle" x="410.2356" y="-74.5" font-family="Helvetica,sans-Serif" font-size="10.00" fill="#000000"> eclipse/os1/include/LocalMapping.h</text>
</a>
</g>
</g>
<!-- Node31&#45;&gt;Node33 -->
<g id="edge18" class="edge">
<title>Node31&#45;&gt;Node33</title>
<path fill="none" stroke="#191970" d="M318.9524,-196.5954C304.9861,-188.8936 292.0635,-178.5737 284.2356,-165 277.3525,-153.0647 276.7072,-145.5391 284.2356,-134 295.5133,-116.7139 314.038,-105.1906 333.4873,-97.5244"/>
<polygon fill="#191970" stroke="#191970" points="317.7339,-199.9011 328.2378,-201.2863 320.8904,-193.6531 317.7339,-199.9011"/>
</g>
<!-- Node35 -->
<g id="node6" class="node">
<title>Node35</title>
<g id="a_node6"><a xlink:href="_system_8cc.html" target="_top" xlink:title="/home/alejandro/Desarrollo\l eclipse/os1/src/System.cc">
<polygon fill="#ffffff" stroke="#000000" points="175.2356,-.5 175.2356,-30.5 311.2356,-30.5 311.2356,-.5 175.2356,-.5"/>
<text text-anchor="start" x="183.2356" y="-18.5" font-family="Helvetica,sans-Serif" font-size="10.00" fill="#000000">/home/alejandro/Desarrollo</text>
<text text-anchor="middle" x="243.2356" y="-7.5" font-family="Helvetica,sans-Serif" font-size="10.00" fill="#000000"> eclipse/os1/src/System.cc</text>
</a>
</g>
</g>
<!-- Node31&#45;&gt;Node35 -->
<g id="edge24" class="edge">
<title>Node31&#45;&gt;Node35</title>
<path fill="none" stroke="#191970" d="M295.687,-209.5987C214.3076,-201.8786 99.3182,-187.4301 60.2356,-165 26.8216,-145.8232 18.2169,-134.273 5.2356,-98 .5931,-85.0279 -3.4154,-77.7232 5.2356,-67 26.2723,-40.9243 112.4934,-27.3959 175.1182,-20.8734"/>
<polygon fill="#191970" stroke="#191970" points="295.6545,-213.1107 305.9358,-210.5525 296.3031,-206.1408 295.6545,-213.1107"/>
</g>
<!-- Node31&#45;&gt;Node40 -->
<g id="edge25" class="edge">
<title>Node31&#45;&gt;Node40</title>
<path fill="none" stroke="#191970" d="M468.6231,-214.2548C576.4369,-210.0673 753.4532,-198.213 809.2356,-165 863.0916,-132.934 896.8307,-61.6889 909.5218,-30.5526"/>
<polygon fill="#191970" stroke="#191970" points="468.2741,-210.7653 458.4119,-214.6366 468.5357,-217.7604 468.2741,-210.7653"/>
</g>
<!-- Node41 -->
<g id="node12" class="node">
<title>Node41</title>
<g id="a_node12"><a xlink:href="_osmap_8h.html" target="_top" xlink:title="/home/alejandro/Desarrollo\l eclipse/os1/include/Osmap.h">
<polygon fill="#ffffff" stroke="#000000" points="81.2356,-134.5 81.2356,-164.5 227.2356,-164.5 227.2356,-134.5 81.2356,-134.5"/>
<text text-anchor="start" x="89.2356" y="-152.5" font-family="Helvetica,sans-Serif" font-size="10.00" fill="#000000">/home/alejandro/Desarrollo</text>
<text text-anchor="middle" x="154.2356" y="-141.5" font-family="Helvetica,sans-Serif" font-size="10.00" fill="#000000"> eclipse/os1/include/Osmap.h</text>
</a>
</g>
</g>
<!-- Node31&#45;&gt;Node41 -->
<g id="edge19" class="edge">
<title>Node31&#45;&gt;Node41</title>
<path fill="none" stroke="#191970" d="M321.1466,-198.5484C285.0574,-187.9432 239.8768,-174.6665 205.6264,-164.6017"/>
<polygon fill="#191970" stroke="#191970" points="320.4868,-202.0025 331.0679,-201.4639 322.4604,-195.2864 320.4868,-202.0025"/>
</g>
<!-- Node42 -->
<g id="node13" class="node">
<title>Node42</title>
<g id="a_node13"><a xlink:href="main_8cc.html" target="_top" xlink:title="/home/alejandro/Desarrollo\l eclipse/os1/src/main.cc">
<polygon fill="#ffffff" stroke="#000000" points="14.7356,-67.5 14.7356,-97.5 147.7356,-97.5 147.7356,-67.5 14.7356,-67.5"/>
<text text-anchor="start" x="22.7356" y="-85.5" font-family="Helvetica,sans-Serif" font-size="10.00" fill="#000000">/home/alejandro/Desarrollo</text>
<text text-anchor="middle" x="81.2356" y="-74.5" font-family="Helvetica,sans-Serif" font-size="10.00" fill="#000000"> eclipse/os1/src/main.cc</text>
</a>
</g>
</g>
<!-- Node31&#45;&gt;Node42 -->
<g id="edge23" class="edge">
<title>Node31&#45;&gt;Node42</title>
<path fill="none" stroke="#191970" d="M295.7525,-207.8552C209.143,-198.3056 86.6566,-182.0144 72.2356,-165 56.3056,-146.2053 65.6727,-115.7091 73.6493,-97.5297"/>
<polygon fill="#191970" stroke="#191970" points="295.542,-211.3529 305.8624,-208.9575 296.3007,-204.3942 295.542,-211.3529"/>
</g>
<!-- Node44 -->
<g id="node15" class="node">
<title>Node44</title>
<g id="a_node15"><a xlink:href="_frame_drawer_8cc.html" target="_top" xlink:title="/home/alejandro/Desarrollo\l eclipse/os1/src/FrameDrawer.cc">
<polygon fill="#ffffff" stroke="#000000" points="301.7356,-134.5 301.7356,-164.5 462.7356,-164.5 462.7356,-134.5 301.7356,-134.5"/>
<text text-anchor="start" x="309.7356" y="-152.5" font-family="Helvetica,sans-Serif" font-size="10.00" fill="#000000">/home/alejandro/Desarrollo</text>
<text text-anchor="middle" x="382.2356" y="-141.5" font-family="Helvetica,sans-Serif" font-size="10.00" fill="#000000"> eclipse/os1/src/FrameDrawer.cc</text>
</a>
</g>
</g>
<!-- Node31&#45;&gt;Node44 -->
<g id="edge22" class="edge">
<title>Node31&#45;&gt;Node44</title>
<path fill="none" stroke="#191970" d="M382.2356,-191.0249C382.2356,-182.128 382.2356,-172.4287 382.2356,-164.6432"/>
<polygon fill="#191970" stroke="#191970" points="378.7357,-191.2966 382.2356,-201.2967 385.7357,-191.2967 378.7357,-191.2966"/>
</g>
<!-- Node45 -->
<g id="node16" class="node">
<title>Node45</title>
<g id="a_node16"><a xlink:href="_viewer_8cc.html" target="_top" xlink:title="/home/alejandro/Desarrollo\l eclipse/os1/src/Viewer.cc">
<polygon fill="#ffffff" stroke="#000000" points="480.7356,-134.5 480.7356,-164.5 613.7356,-164.5 613.7356,-134.5 480.7356,-134.5"/>
<text text-anchor="start" x="488.7356" y="-152.5" font-family="Helvetica,sans-Serif" font-size="10.00" fill="#000000">/home/alejandro/Desarrollo</text>
<text text-anchor="middle" x="547.2356" y="-141.5" font-family="Helvetica,sans-Serif" font-size="10.00" fill="#000000"> eclipse/os1/src/Viewer.cc</text>
</a>
</g>
</g>
<!-- Node31&#45;&gt;Node45 -->
<g id="edge26" class="edge">
<title>Node31&#45;&gt;Node45</title>
<path fill="none" stroke="#191970" d="M428.8058,-197.5897C454.5111,-187.1518 485.9998,-174.3654 510.0449,-164.6017"/>
<polygon fill="#191970" stroke="#191970" points="427.2133,-194.4587 419.2648,-201.4639 429.8469,-200.9444 427.2133,-194.4587"/>
</g>
<!-- Node32&#45;&gt;Node31 -->
<g id="edge8" class="edge">
<title>Node32&#45;&gt;Node31</title>
<path fill="none" stroke="#191970" d="M637.1124,-166.5695C583.0019,-177.6537 511.7309,-191.9275 458.2855,-202.3729"/>
<polygon fill="#191970" stroke="#191970" points="637.9159,-169.9776 647.0081,-164.5386 636.5086,-163.1205 637.9159,-169.9776"/>
</g>
<!-- Node32&#45;&gt;Node33 -->
<g id="edge3" class="edge">
<title>Node32&#45;&gt;Node33</title>
<path fill="none" stroke="#191970" d="M631.9548,-132.3551C581.7441,-121.6029 519.1116,-107.8721 473.2015,-97.5438"/>
<polygon fill="#191970" stroke="#191970" points="631.312,-135.7967 641.8227,-134.4639 632.775,-128.9512 631.312,-135.7967"/>
</g>
<!-- Node34 -->
<g id="node5" class="node">
<title>Node34</title>
<g id="a_node5"><a xlink:href="_local_mapping_8cc.html" target="_top" xlink:title="/home/alejandro/Desarrollo\l eclipse/os1/src/LocalMapping.cc">
<polygon fill="#ffffff" stroke="#000000" points="329.2356,-.5 329.2356,-30.5 491.2356,-30.5 491.2356,-.5 329.2356,-.5"/>
<text text-anchor="start" x="337.2356" y="-18.5" font-family="Helvetica,sans-Serif" font-size="10.00" fill="#000000">/home/alejandro/Desarrollo</text>
<text text-anchor="middle" x="410.2356" y="-7.5" font-family="Helvetica,sans-Serif" font-size="10.00" fill="#000000"> eclipse/os1/src/LocalMapping.cc</text>
</a>
</g>
</g>
<!-- Node32&#45;&gt;Node34 -->
<g id="edge15" class="edge">
<title>Node32&#45;&gt;Node34</title>
<path fill="none" stroke="#191970" d="M676.651,-129.7489C641.6195,-112.5064 588.9523,-87.1584 542.2356,-67 511.9702,-53.9404 477.2227,-40.4423 450.9775,-30.5428"/>
<polygon fill="#191970" stroke="#191970" points="675.5282,-133.0979 686.0445,-134.3862 678.627,-126.8211 675.5282,-133.0979"/>
</g>
<!-- Node32&#45;&gt;Node35 -->
<g id="edge17" class="edge">
<title>Node32&#45;&gt;Node35</title>
<path fill="none" stroke="#191970" d="M630.5192,-131.8494C601.4374,-123.8807 569.4444,-112.8408 542.2356,-98 523.699,-87.8894 525.2386,-76.204 506.2356,-67 430.4556,-30.2962 402.842,-47.3082 320.2356,-31 317.2924,-30.419 314.2865,-29.8233 311.2502,-29.2199"/>
<polygon fill="#191970" stroke="#191970" points="629.6958,-135.2519 640.2591,-134.4351 631.492,-128.4863 629.6958,-135.2519"/>
</g>
<!-- Node36 -->
<g id="node7" class="node">
<title>Node36</title>
<g id="a_node7"><a xlink:href="_optimizer_8h.html" target="_top" xlink:title="/home/alejandro/Desarrollo\l eclipse/os1/include/Optimizer.h">
<polygon fill="#ffffff" stroke="#000000" points="674.2356,-67.5 674.2356,-97.5 830.2356,-97.5 830.2356,-67.5 674.2356,-67.5"/>
<text text-anchor="start" x="682.2356" y="-85.5" font-family="Helvetica,sans-Serif" font-size="10.00" fill="#000000">/home/alejandro/Desarrollo</text>
<text text-anchor="middle" x="752.2356" y="-74.5" font-family="Helvetica,sans-Serif" font-size="10.00" fill="#000000"> eclipse/os1/include/Optimizer.h</text>
</a>
</g>
</g>
<!-- Node32&#45;&gt;Node36 -->
<g id="edge9" class="edge">
<title>Node32&#45;&gt;Node36</title>
<path fill="none" stroke="#191970" d="M729.1399,-125.4837C734.1283,-116.1996 739.6858,-105.8565 744.099,-97.6432"/>
<polygon fill="#191970" stroke="#191970" points="726.0546,-123.8311 724.4045,-134.2967 732.2209,-127.1443 726.0546,-123.8311"/>
</g>
<!-- Node38 -->
<g id="node9" class="node">
<title>Node38</title>
<g id="a_node9"><a xlink:href="_loop_closing_8cc.html" target="_top" xlink:title="/home/alejandro/Desarrollo\l eclipse/os1/src/LoopClosing.cc">
<polygon fill="#ffffff" stroke="#000000" points="509.2356,-.5 509.2356,-30.5 665.2356,-30.5 665.2356,-.5 509.2356,-.5"/>
<text text-anchor="start" x="517.2356" y="-18.5" font-family="Helvetica,sans-Serif" font-size="10.00" fill="#000000">/home/alejandro/Desarrollo</text>
<text text-anchor="middle" x="587.2356" y="-7.5" font-family="Helvetica,sans-Serif" font-size="10.00" fill="#000000"> eclipse/os1/src/LoopClosing.cc</text>
</a>
</g>
</g>
<!-- Node32&#45;&gt;Node38 -->
<g id="edge16" class="edge">
<title>Node32&#45;&gt;Node38</title>
<path fill="none" stroke="#191970" d="M693.8423,-127.113C684.8974,-118.1119 674.5325,-107.608 665.2356,-98 642.6198,-74.6274 616.7543,-47.1114 601.2233,-30.5025"/>
<polygon fill="#191970" stroke="#191970" points="691.431,-129.6517 700.9674,-134.2677 696.391,-124.7122 691.431,-129.6517"/>
</g>
<!-- Node33&#45;&gt;Node31 -->
<g id="edge5" class="edge">
<title>Node33&#45;&gt;Node31</title>
<path fill="none" stroke="#191970" d="M341.0827,-101.8288C325.8842,-109.322 311.575,-119.685 302.2356,-134 294.7072,-145.5391 295.3525,-153.0647 302.2356,-165 311.7782,-181.547 328.8919,-193.2586 344.9235,-201.2863"/>
<polygon fill="#191970" stroke="#191970" points="342.9482,-104.827 350.6243,-97.5244 340.0697,-98.4462 342.9482,-104.827"/>
</g>
<!-- Node33&#45;&gt;Node32 -->
<g id="edge4" class="edge">
<title>Node33&#45;&gt;Node32</title>
<path fill="none" stroke="#191970" d="M494.5536,-99.6529C544.7705,-110.4065 607.4019,-124.1373 653.3037,-134.4639"/>
<polygon fill="#191970" stroke="#191970" points="495.1951,-96.211 484.6844,-97.5438 493.7321,-103.0565 495.1951,-96.211"/>
</g>
<!-- Node33&#45;&gt;Node34 -->
<g id="edge6" class="edge">
<title>Node33&#45;&gt;Node34</title>
<path fill="none" stroke="#191970" d="M410.2356,-57.0249C410.2356,-48.128 410.2356,-38.4287 410.2356,-30.6432"/>
<polygon fill="#191970" stroke="#191970" points="406.7357,-57.2966 410.2356,-67.2967 413.7357,-57.2967 406.7357,-57.2966"/>
</g>
<!-- Node33&#45;&gt;Node35 -->
<g id="edge7" class="edge">
<title>Node33&#45;&gt;Node35</title>
<path fill="none" stroke="#191970" d="M363.4443,-63.7275C337.365,-53.2645 305.3208,-40.4084 280.8771,-30.6017"/>
<polygon fill="#191970" stroke="#191970" points="362.1733,-66.9887 372.7575,-67.4639 364.7798,-60.492 362.1733,-66.9887"/>
</g>
<!-- Node36&#45;&gt;Node34 -->
<g id="edge11" class="edge">
<title>Node36&#45;&gt;Node34</title>
<path fill="none" stroke="#191970" d="M665.4049,-65.4893C610.4199,-54.7174 539.9665,-40.9151 487.0262,-30.5438"/>
<polygon fill="#191970" stroke="#191970" points="664.9977,-68.976 675.4841,-67.4639 666.3436,-62.1066 664.9977,-68.976"/>
</g>
<!-- Node36&#45;&gt;Node37 -->
<g id="edge10" class="edge">
<title>Node36&#45;&gt;Node37</title>
<path fill="none" stroke="#191970" d="M834.4159,-65.4004C886.7014,-54.5211 953.71,-40.5783 1003.5985,-30.1978"/>
<polygon fill="#191970" stroke="#191970" points="833.576,-62.0001 824.4987,-67.4639 835.002,-68.8533 833.576,-62.0001"/>
</g>
<!-- Node36&#45;&gt;Node38 -->
<g id="edge12" class="edge">
<title>Node36&#45;&gt;Node38</title>
<path fill="none" stroke="#191970" d="M705.6653,-63.5897C679.9601,-53.1518 648.4713,-40.3654 624.4263,-30.6017"/>
<polygon fill="#191970" stroke="#191970" points="704.6243,-66.9444 715.2064,-67.4639 707.2579,-60.4587 704.6243,-66.9444"/>
</g>
<!-- Node39 -->
<g id="node10" class="node">
<title>Node39</title>
<g id="a_node10"><a xlink:href="_optimizer_8cc.html" target="_top" xlink:title="/home/alejandro/Desarrollo\l eclipse/os1/src/Optimizer.cc">
<polygon fill="#ffffff" stroke="#000000" points="683.2356,-.5 683.2356,-30.5 827.2356,-30.5 827.2356,-.5 683.2356,-.5"/>
<text text-anchor="start" x="691.2356" y="-18.5" font-family="Helvetica,sans-Serif" font-size="10.00" fill="#000000">/home/alejandro/Desarrollo</text>
<text text-anchor="middle" x="755.2356" y="-7.5" font-family="Helvetica,sans-Serif" font-size="10.00" fill="#000000"> eclipse/os1/src/Optimizer.cc</text>
</a>
</g>
</g>
<!-- Node36&#45;&gt;Node39 -->
<g id="edge13" class="edge">
<title>Node36&#45;&gt;Node39</title>
<path fill="none" stroke="#191970" d="M753.3763,-57.0249C753.7746,-48.128 754.2089,-38.4287 754.5575,-30.6432"/>
<polygon fill="#191970" stroke="#191970" points="749.8672,-57.1501 752.9163,-67.2967 756.8602,-57.4633 749.8672,-57.1501"/>
</g>
<!-- Node36&#45;&gt;Node40 -->
<g id="edge14" class="edge">
<title>Node36&#45;&gt;Node40</title>
<path fill="none" stroke="#191970" d="M798.2413,-63.5897C823.635,-53.1518 854.7421,-40.3654 878.4957,-30.6017"/>
<polygon fill="#191970" stroke="#191970" points="796.7345,-60.4248 788.816,-67.4639 799.3957,-66.8992 796.7345,-60.4248"/>
</g>
<!-- Node41&#45;&gt;Node42 -->
<g id="edge20" class="edge">
<title>Node41&#45;&gt;Node42</title>
<path fill="none" stroke="#191970" d="M130.2616,-127.4965C119.6089,-117.7193 107.3362,-106.4554 97.7349,-97.6432"/>
<polygon fill="#191970" stroke="#191970" points="127.9367,-130.1134 137.6708,-134.2967 132.67,-124.9562 127.9367,-130.1134"/>
</g>
<!-- Node43 -->
<g id="node14" class="node">
<title>Node43</title>
<g id="a_node14"><a xlink:href="_osmap_8cpp.html" target="_top" xlink:title="/home/alejandro/Desarrollo\l eclipse/os1/src/Osmap.cpp">
<polygon fill="#ffffff" stroke="#000000" points="165.7356,-67.5 165.7356,-97.5 304.7356,-97.5 304.7356,-67.5 165.7356,-67.5"/>
<text text-anchor="start" x="173.7356" y="-85.5" font-family="Helvetica,sans-Serif" font-size="10.00" fill="#000000">/home/alejandro/Desarrollo</text>
<text text-anchor="middle" x="235.2356" y="-74.5" font-family="Helvetica,sans-Serif" font-size="10.00" fill="#000000"> eclipse/os1/src/Osmap.cpp</text>
</a>
</g>
</g>
<!-- Node41&#45;&gt;Node43 -->
<g id="edge21" class="edge">
<title>Node41&#45;&gt;Node43</title>
<path fill="none" stroke="#191970" d="M180.4931,-127.7808C192.3923,-117.9383 206.1711,-106.541 216.9282,-97.6432"/>
<polygon fill="#191970" stroke="#191970" points="178.0905,-125.2259 172.6157,-134.2967 182.5521,-130.6198 178.0905,-125.2259"/>
</g>
</g>
</svg>
