<?xml version="1.0" encoding="UTF-8" standalone="no"?>
<!DOCTYPE svg PUBLIC "-//W3C//DTD SVG 1.1//EN"
 "http://www.w3.org/Graphics/SVG/1.1/DTD/svg11.dtd">
<!-- Generated by graphviz version 2.38.0 (20140413.2041)
 -->
<!-- Title: /home/alejandro/Desarrollo eclipse/os1/src/KeyFrameDatabase.cc Pages: 1 -->
<svg width="1279pt" height="565pt"
 viewBox="0.00 0.00 1279.00 565.00" xmlns="http://www.w3.org/2000/svg" xmlns:xlink="http://www.w3.org/1999/xlink">
<g id="graph0" class="graph" transform="scale(1 1) rotate(0) translate(4 561)">
<title>/home/alejandro/Desarrollo eclipse/os1/src/KeyFrameDatabase.cc</title>
<polygon fill="white" stroke="none" points="-4,4 -4,-561 1275,-561 1275,4 -4,4"/>
<!-- Node0 -->
<g id="node1" class="node"><title>Node0</title>
<polygon fill="#bfbfbf" stroke="black" points="408.5,-526.5 408.5,-556.5 597.5,-556.5 597.5,-526.5 408.5,-526.5"/>
<text text-anchor="start" x="416.5" y="-544.5" font-family="Helvetica,sans-Serif" font-size="10.00">/home/alejandro/Desarrollo</text>
<text text-anchor="middle" x="503" y="-533.5" font-family="Helvetica,sans-Serif" font-size="10.00"> eclipse/os1/src/KeyFrameDatabase.cc</text>
</g>
<!-- Node1 -->
<g id="node2" class="node"><title>Node1</title>
<g id="a_node2"><a xlink:href="_key_frame_database_8h.html" target="_top" xlink:title="KeyFrameDatabase.h">
<polygon fill="white" stroke="black" points="908,-297 908,-316 1020,-316 1020,-297 908,-297"/>
<text text-anchor="middle" x="964" y="-304" font-family="Helvetica,sans-Serif" font-size="10.00">KeyFrameDatabase.h</text>
</a>
</g>
</g>
<!-- Node0&#45;&gt;Node1 -->
<g id="edge1" class="edge"><title>Node0&#45;&gt;Node1</title>
<path fill="none" stroke="midnightblue" d="M597.741,-528.155C638.252,-520.57 685.266,-508.605 725,-490 819.506,-445.75 912.136,-359.341 948.205,-323.585"/>
<polygon fill="midnightblue" stroke="midnightblue" points="950.808,-325.932 955.395,-316.381 945.853,-320.987 950.808,-325.932"/>
</g>
<!-- Node17 -->
<g id="node18" class="node"><title>Node17</title>
<g id="a_node18"><a xlink:href="_bow_vector_8h.html" target="_top" xlink:title="BowVector.h">
<polygon fill="white" stroke="black" points="148.5,-56.5 148.5,-75.5 221.5,-75.5 221.5,-56.5 148.5,-56.5"/>
<text text-anchor="middle" x="185" y="-63.5" font-family="Helvetica,sans-Serif" font-size="10.00">BowVector.h</text>
</a>
</g>
</g>
<!-- Node0&#45;&gt;Node17 -->
<g id="edge69" class="edge"><title>Node0&#45;&gt;Node17</title>
<path fill="none" stroke="midnightblue" d="M408.39,-537.9C262.683,-531.29 0,-507.879 0,-425 0,-425 0,-425 0,-182.5 0,-117.27 83.7815,-87.527 138.582,-75.0497"/>
<polygon fill="midnightblue" stroke="midnightblue" points="139.415,-78.4504 148.45,-72.9162 137.936,-71.6085 139.415,-78.4504"/>
</g>
<!-- Node23 -->
<g id="node24" class="node"><title>Node23</title>
<polygon fill="white" stroke="#bfbfbf" points="483,-235.5 483,-254.5 527,-254.5 527,-235.5 483,-235.5"/>
<text text-anchor="middle" x="505" y="-242.5" font-family="Helvetica,sans-Serif" font-size="10.00">mutex</text>
</g>
<!-- Node0&#45;&gt;Node23 -->
<g id="edge70" class="edge"><title>Node0&#45;&gt;Node23</title>
<path fill="none" stroke="midnightblue" d="M497.049,-526.296C481.689,-487.533 443.821,-377.077 472,-291 475.49,-280.34 482.573,-270.117 489.286,-262.117"/>
<polygon fill="midnightblue" stroke="midnightblue" points="491.904,-264.439 495.98,-254.66 486.695,-259.763 491.904,-264.439"/>
</g>
<!-- Node24 -->
<g id="node25" class="node"><title>Node24</title>
<g id="a_node25"><a xlink:href="_frame_8h.html" target="_top" xlink:title="Frame.h">
<polygon fill="white" stroke="black" points="663.5,-470.5 663.5,-489.5 716.5,-489.5 716.5,-470.5 663.5,-470.5"/>
<text text-anchor="middle" x="690" y="-477.5" font-family="Helvetica,sans-Serif" font-size="10.00">Frame.h</text>
</a>
</g>
</g>
<!-- Node0&#45;&gt;Node24 -->
<g id="edge38" class="edge"><title>Node0&#45;&gt;Node24</title>
<path fill="none" stroke="midnightblue" d="M547.316,-526.399C579.726,-516.087 623.158,-502.268 653.559,-492.595"/>
<polygon fill="midnightblue" stroke="midnightblue" points="654.867,-495.852 663.335,-489.484 652.744,-489.181 654.867,-495.852"/>
</g>
<!-- Node26 -->
<g id="node27" class="node"><title>Node26</title>
<g id="a_node27"><a xlink:href="_key_frame_8h.html" target="_top" xlink:title="KeyFrame.h">
<polygon fill="white" stroke="black" points="496,-358.5 496,-377.5 566,-377.5 566,-358.5 496,-358.5"/>
<text text-anchor="middle" x="531" y="-365.5" font-family="Helvetica,sans-Serif" font-size="10.00">KeyFrame.h</text>
</a>
</g>
</g>
<!-- Node0&#45;&gt;Node26 -->
<g id="edge68" class="edge"><title>Node0&#45;&gt;Node26</title>
<path fill="none" stroke="midnightblue" d="M504.888,-526.425C508.076,-503.03 514.88,-454.689 522,-414 523.53,-405.259 525.432,-395.607 527.093,-387.49"/>
<polygon fill="midnightblue" stroke="midnightblue" points="530.539,-388.107 529.151,-377.604 523.686,-386.68 530.539,-388.107"/>
</g>
<!-- Node2 -->
<g id="node3" class="node"><title>Node2</title>
<polygon fill="white" stroke="#bfbfbf" points="927,-0.5 927,-19.5 971,-19.5 971,-0.5 927,-0.5"/>
<text text-anchor="middle" x="949" y="-7.5" font-family="Helvetica,sans-Serif" font-size="10.00">vector</text>
</g>
<!-- Node1&#45;&gt;Node2 -->
<g id="edge2" class="edge"><title>Node1&#45;&gt;Node2</title>
<path fill="none" stroke="midnightblue" d="M969.88,-296.61C978.955,-283.033 997.094,-256.448 1014,-235 1072.54,-160.737 1187.19,-130.532 1129,-56 1111.02,-32.9753 1028.17,-19.9881 981.388,-14.3729"/>
<polygon fill="midnightblue" stroke="midnightblue" points="981.496,-10.8622 971.161,-13.1936 980.694,-17.8161 981.496,-10.8622"/>
</g>
<!-- Node3 -->
<g id="node4" class="node"><title>Node3</title>
<polygon fill="white" stroke="#bfbfbf" points="1023.5,-235.5 1023.5,-254.5 1052.5,-254.5 1052.5,-235.5 1023.5,-235.5"/>
<text text-anchor="middle" x="1038" y="-242.5" font-family="Helvetica,sans-Serif" font-size="10.00">list</text>
</g>
<!-- Node1&#45;&gt;Node3 -->
<g id="edge3" class="edge"><title>Node1&#45;&gt;Node3</title>
<path fill="none" stroke="midnightblue" d="M974.602,-296.975C986.252,-287.608 1005.19,-272.384 1019.33,-261.008"/>
<polygon fill="midnightblue" stroke="midnightblue" points="1021.82,-263.503 1027.42,-254.509 1017.43,-258.048 1021.82,-263.503"/>
</g>
<!-- Node4 -->
<g id="node5" class="node"><title>Node4</title>
<polygon fill="white" stroke="#bfbfbf" points="920,-235.5 920,-254.5 950,-254.5 950,-235.5 920,-235.5"/>
<text text-anchor="middle" x="935" y="-242.5" font-family="Helvetica,sans-Serif" font-size="10.00">set</text>
</g>
<!-- Node1&#45;&gt;Node4 -->
<g id="edge4" class="edge"><title>Node1&#45;&gt;Node4</title>
<path fill="none" stroke="midnightblue" d="M959.845,-296.975C955.624,-288.315 948.963,-274.649 943.6,-263.645"/>
<polygon fill="midnightblue" stroke="midnightblue" points="946.675,-261.965 939.147,-254.509 940.382,-265.032 946.675,-261.965"/>
</g>
<!-- Node5 -->
<g id="node6" class="node"><title>Node5</title>
<g id="a_node6"><a xlink:href="_o_r_b_vocabulary_8h.html" target="_top" xlink:title="ORBVocabulary.h">
<polygon fill="white" stroke="black" points="773.5,-235.5 773.5,-254.5 868.5,-254.5 868.5,-235.5 773.5,-235.5"/>
<text text-anchor="middle" x="821" y="-242.5" font-family="Helvetica,sans-Serif" font-size="10.00">ORBVocabulary.h</text>
</a>
</g>
</g>
<!-- Node1&#45;&gt;Node5 -->
<g id="edge5" class="edge"><title>Node1&#45;&gt;Node5</title>
<path fill="none" stroke="midnightblue" d="M943.512,-296.975C919.194,-286.857 878.451,-269.905 850.683,-258.351"/>
<polygon fill="midnightblue" stroke="midnightblue" points="852.028,-255.119 841.45,-254.509 849.339,-261.582 852.028,-255.119"/>
</g>
<!-- Node1&#45;&gt;Node23 -->
<g id="edge37" class="edge"><title>Node1&#45;&gt;Node23</title>
<path fill="none" stroke="midnightblue" d="M907.718,-298.204C810.548,-285.608 614.335,-260.173 537.191,-250.173"/>
<polygon fill="midnightblue" stroke="midnightblue" points="537.486,-246.682 527.119,-248.867 536.586,-253.624 537.486,-246.682"/>
</g>
<!-- Node6 -->
<g id="node7" class="node"><title>Node6</title>
<g id="a_node7"><a xlink:href="_f_o_r_b_8h.html" target="_top" xlink:title="../Thirdparty/DBoW2\l/DBoW2/FORB.h">
<polygon fill="white" stroke="black" points="895.5,-168.5 895.5,-198.5 1002.5,-198.5 1002.5,-168.5 895.5,-168.5"/>
<text text-anchor="start" x="903.5" y="-186.5" font-family="Helvetica,sans-Serif" font-size="10.00">../Thirdparty/DBoW2</text>
<text text-anchor="middle" x="949" y="-175.5" font-family="Helvetica,sans-Serif" font-size="10.00">/DBoW2/FORB.h</text>
</a>
</g>
</g>
<!-- Node5&#45;&gt;Node6 -->
<g id="edge6" class="edge"><title>Node5&#45;&gt;Node6</title>
<path fill="none" stroke="midnightblue" d="M839.339,-235.475C857.566,-227.002 886.103,-213.737 909.497,-202.863"/>
<polygon fill="midnightblue" stroke="midnightblue" points="911.24,-205.912 918.833,-198.523 908.289,-199.564 911.24,-205.912"/>
</g>
<!-- Node10 -->
<g id="node11" class="node"><title>Node10</title>
<g id="a_node11"><a xlink:href="_templated_vocabulary_8h.html" target="_top" xlink:title="../Thirdparty/DBoW2\l/DBoW2/TemplatedVocabulary.h">
<polygon fill="white" stroke="black" points="503,-168.5 503,-198.5 663,-198.5 663,-168.5 503,-168.5"/>
<text text-anchor="start" x="511" y="-186.5" font-family="Helvetica,sans-Serif" font-size="10.00">../Thirdparty/DBoW2</text>
<text text-anchor="middle" x="583" y="-175.5" font-family="Helvetica,sans-Serif" font-size="10.00">/DBoW2/TemplatedVocabulary.h</text>
</a>
</g>
</g>
<!-- Node5&#45;&gt;Node10 -->
<g id="edge14" class="edge"><title>Node5&#45;&gt;Node10</title>
<path fill="none" stroke="midnightblue" d="M786.9,-235.475C751.052,-226.513 693.754,-212.188 649.013,-201.003"/>
<polygon fill="midnightblue" stroke="midnightblue" points="649.642,-197.553 639.092,-198.523 647.944,-204.344 649.642,-197.553"/>
</g>
<!-- Node6&#45;&gt;Node2 -->
<g id="edge8" class="edge"><title>Node6&#45;&gt;Node2</title>
<path fill="none" stroke="midnightblue" d="M995.383,-168.463C1055.47,-147.873 1148.25,-106.405 1110,-56 1094.51,-35.5922 1023.82,-21.9311 981.429,-15.4165"/>
<polygon fill="midnightblue" stroke="midnightblue" points="981.717,-11.9211 971.312,-13.9145 980.689,-18.8452 981.717,-11.9211"/>
</g>
<!-- Node7 -->
<g id="node8" class="node"><title>Node7</title>
<polygon fill="white" stroke="#bfbfbf" points="985,-56.5 985,-75.5 1101,-75.5 1101,-56.5 985,-56.5"/>
<text text-anchor="middle" x="1043" y="-63.5" font-family="Helvetica,sans-Serif" font-size="10.00">opencv2/core/core.hpp</text>
</g>
<!-- Node6&#45;&gt;Node7 -->
<g id="edge7" class="edge"><title>Node6&#45;&gt;Node7</title>
<path fill="none" stroke="midnightblue" d="M975.639,-168.497C990.168,-159.7 1007.49,-147.153 1019,-132 1029.45,-118.245 1035.73,-99.4674 1039.23,-85.6309"/>
<polygon fill="midnightblue" stroke="midnightblue" points="1042.66,-86.3108 1041.46,-75.784 1035.84,-84.7607 1042.66,-86.3108"/>
</g>
<!-- Node8 -->
<g id="node9" class="node"><title>Node8</title>
<polygon fill="white" stroke="#bfbfbf" points="872.5,-56.5 872.5,-75.5 913.5,-75.5 913.5,-56.5 872.5,-56.5"/>
<text text-anchor="middle" x="893" y="-63.5" font-family="Helvetica,sans-Serif" font-size="10.00">string</text>
</g>
<!-- Node6&#45;&gt;Node8 -->
<g id="edge9" class="edge"><title>Node6&#45;&gt;Node8</title>
<path fill="none" stroke="midnightblue" d="M936.543,-168.352C928.574,-158.68 918.54,-145.256 912,-132 904.685,-117.173 899.673,-99.022 896.641,-85.6726"/>
<polygon fill="midnightblue" stroke="midnightblue" points="900.041,-84.8301 894.554,-75.7669 893.191,-86.2738 900.041,-84.8301"/>
</g>
<!-- Node9 -->
<g id="node10" class="node"><title>Node9</title>
<g id="a_node10"><a xlink:href="_f_class_8h.html" target="_top" xlink:title="FClass.h">
<polygon fill="white" stroke="black" points="921,-112.5 921,-131.5 977,-131.5 977,-112.5 921,-112.5"/>
<text text-anchor="middle" x="949" y="-119.5" font-family="Helvetica,sans-Serif" font-size="10.00">FClass.h</text>
</a>
</g>
</g>
<!-- Node6&#45;&gt;Node9 -->
<g id="edge10" class="edge"><title>Node6&#45;&gt;Node9</title>
<path fill="none" stroke="midnightblue" d="M949,-168.399C949,-160.466 949,-150.458 949,-141.858"/>
<polygon fill="midnightblue" stroke="midnightblue" points="952.5,-141.658 949,-131.658 945.5,-141.658 952.5,-141.658"/>
</g>
<!-- Node9&#45;&gt;Node2 -->
<g id="edge12" class="edge"><title>Node9&#45;&gt;Node2</title>
<path fill="none" stroke="midnightblue" d="M949,-112.368C949,-94.617 949,-53.6664 949,-29.5974"/>
<polygon fill="midnightblue" stroke="midnightblue" points="952.5,-29.5914 949,-19.5914 945.5,-29.5915 952.5,-29.5914"/>
</g>
<!-- Node9&#45;&gt;Node7 -->
<g id="edge11" class="edge"><title>Node9&#45;&gt;Node7</title>
<path fill="none" stroke="midnightblue" d="M964.103,-112.324C978.903,-103.822 1001.69,-90.7288 1018.98,-80.7975"/>
<polygon fill="midnightblue" stroke="midnightblue" points="1021.01,-83.6707 1027.93,-75.6545 1017.52,-77.6009 1021.01,-83.6707"/>
</g>
<!-- Node9&#45;&gt;Node8 -->
<g id="edge13" class="edge"><title>Node9&#45;&gt;Node8</title>
<path fill="none" stroke="midnightblue" d="M940.003,-112.324C931.806,-104.42 919.494,-92.5482 909.528,-82.9377"/>
<polygon fill="midnightblue" stroke="midnightblue" points="911.789,-80.2558 902.161,-75.8339 906.93,-85.2947 911.789,-80.2558"/>
</g>
<!-- Node10&#45;&gt;Node2 -->
<g id="edge16" class="edge"><title>Node10&#45;&gt;Node2</title>
<path fill="none" stroke="midnightblue" d="M663.216,-175.519C705.432,-168.999 756.655,-156.389 797,-132 835.285,-108.856 827.904,-83.7421 863,-56 879.687,-42.8098 900.826,-31.6867 917.971,-23.7989"/>
<polygon fill="midnightblue" stroke="midnightblue" points="919.828,-26.8031 927.54,-19.5375 916.981,-20.4085 919.828,-26.8031"/>
</g>
<!-- Node10&#45;&gt;Node7 -->
<g id="edge21" class="edge"><title>Node10&#45;&gt;Node7</title>
<path fill="none" stroke="midnightblue" d="M663.004,-179.171C764.148,-173.822 931.653,-160.833 986,-132 1006.64,-121.049 1023.26,-99.3773 1033.11,-84.075"/>
<polygon fill="midnightblue" stroke="midnightblue" points="1036.11,-85.879 1038.35,-75.523 1030.14,-82.2238 1036.11,-85.879"/>
</g>
<!-- Node10&#45;&gt;Node8 -->
<g id="edge19" class="edge"><title>Node10&#45;&gt;Node8</title>
<path fill="none" stroke="midnightblue" d="M663.178,-178.431C713.936,-172.984 779.47,-160.483 831,-132 852.023,-120.379 870.193,-99.2111 881.333,-84.1914"/>
<polygon fill="midnightblue" stroke="midnightblue" points="884.376,-85.9513 887.323,-75.7745 878.673,-81.8926 884.376,-85.9513"/>
</g>
<!-- Node11 -->
<g id="node12" class="node"><title>Node11</title>
<polygon fill="white" stroke="#bfbfbf" points="350.5,-112.5 350.5,-131.5 399.5,-131.5 399.5,-112.5 350.5,-112.5"/>
<text text-anchor="middle" x="375" y="-119.5" font-family="Helvetica,sans-Serif" font-size="10.00">cassert</text>
</g>
<!-- Node10&#45;&gt;Node11 -->
<g id="edge15" class="edge"><title>Node10&#45;&gt;Node11</title>
<path fill="none" stroke="midnightblue" d="M533.97,-168.475C495.766,-157.546 443.672,-142.644 409.694,-132.924"/>
<polygon fill="midnightblue" stroke="midnightblue" points="410.343,-129.47 399.766,-130.084 408.418,-136.2 410.343,-129.47"/>
</g>
<!-- Node12 -->
<g id="node13" class="node"><title>Node12</title>
<polygon fill="white" stroke="#bfbfbf" points="417.5,-112.5 417.5,-131.5 468.5,-131.5 468.5,-112.5 417.5,-112.5"/>
<text text-anchor="middle" x="443" y="-119.5" font-family="Helvetica,sans-Serif" font-size="10.00">numeric</text>
</g>
<!-- Node10&#45;&gt;Node12 -->
<g id="edge17" class="edge"><title>Node10&#45;&gt;Node12</title>
<path fill="none" stroke="midnightblue" d="M549.822,-168.399C526.437,-158.461 495.388,-145.265 472.794,-135.662"/>
<polygon fill="midnightblue" stroke="midnightblue" points="473.944,-132.348 463.371,-131.658 471.206,-138.79 473.944,-132.348"/>
</g>
<!-- Node13 -->
<g id="node14" class="node"><title>Node13</title>
<polygon fill="white" stroke="#bfbfbf" points="487,-112.5 487,-131.5 537,-131.5 537,-112.5 487,-112.5"/>
<text text-anchor="middle" x="512" y="-119.5" font-family="Helvetica,sans-Serif" font-size="10.00">fstream</text>
</g>
<!-- Node10&#45;&gt;Node13 -->
<g id="edge18" class="edge"><title>Node10&#45;&gt;Node13</title>
<path fill="none" stroke="midnightblue" d="M566.174,-168.399C555.325,-159.308 541.223,-147.49 530.127,-138.191"/>
<polygon fill="midnightblue" stroke="midnightblue" points="532.244,-135.398 522.331,-131.658 527.748,-140.763 532.244,-135.398"/>
</g>
<!-- Node14 -->
<g id="node15" class="node"><title>Node14</title>
<polygon fill="white" stroke="#bfbfbf" points="555,-112.5 555,-131.5 611,-131.5 611,-112.5 555,-112.5"/>
<text text-anchor="middle" x="583" y="-119.5" font-family="Helvetica,sans-Serif" font-size="10.00">algorithm</text>
</g>
<!-- Node10&#45;&gt;Node14 -->
<g id="edge20" class="edge"><title>Node10&#45;&gt;Node14</title>
<path fill="none" stroke="midnightblue" d="M583,-168.399C583,-160.466 583,-150.458 583,-141.858"/>
<polygon fill="midnightblue" stroke="midnightblue" points="586.5,-141.658 583,-131.658 579.5,-141.658 586.5,-141.658"/>
</g>
<!-- Node15 -->
<g id="node16" class="node"><title>Node15</title>
<polygon fill="white" stroke="#bfbfbf" points="629,-112.5 629,-131.5 669,-131.5 669,-112.5 629,-112.5"/>
<text text-anchor="middle" x="649" y="-119.5" font-family="Helvetica,sans-Serif" font-size="10.00">limits</text>
</g>
<!-- Node10&#45;&gt;Node15 -->
<g id="edge22" class="edge"><title>Node10&#45;&gt;Node15</title>
<path fill="none" stroke="midnightblue" d="M598.641,-168.399C608.627,-159.397 621.578,-147.721 631.845,-138.465"/>
<polygon fill="midnightblue" stroke="midnightblue" points="634.313,-140.953 639.396,-131.658 629.625,-135.754 634.313,-140.953"/>
</g>
<!-- Node16 -->
<g id="node17" class="node"><title>Node16</title>
<g id="a_node17"><a xlink:href="_feature_vector_8h.html" target="_top" xlink:title="FeatureVector.h">
<polygon fill="white" stroke="black" points="246,-112.5 246,-131.5 332,-131.5 332,-112.5 246,-112.5"/>
<text text-anchor="middle" x="289" y="-119.5" font-family="Helvetica,sans-Serif" font-size="10.00">FeatureVector.h</text>
</a>
</g>
</g>
<!-- Node10&#45;&gt;Node16 -->
<g id="edge23" class="edge"><title>Node10&#45;&gt;Node16</title>
<path fill="none" stroke="midnightblue" d="M513.698,-168.475C460.762,-157.761 388.962,-143.23 340.91,-133.506"/>
<polygon fill="midnightblue" stroke="midnightblue" points="341.527,-130.06 331.031,-131.506 340.138,-136.92 341.527,-130.06"/>
</g>
<!-- Node10&#45;&gt;Node17 -->
<g id="edge31" class="edge"><title>Node10&#45;&gt;Node17</title>
<path fill="none" stroke="midnightblue" d="M502.955,-179.209C380.236,-173.331 157.169,-159.033 133,-132 117.897,-115.107 140.802,-94.5237 160.822,-81.1074"/>
<polygon fill="midnightblue" stroke="midnightblue" points="162.83,-83.9786 169.388,-75.6574 159.072,-78.0726 162.83,-83.9786"/>
</g>
<!-- Node20 -->
<g id="node21" class="node"><title>Node20</title>
<g id="a_node21"><a xlink:href="_scoring_object_8h.html" target="_top" xlink:title="ScoringObject.h">
<polygon fill="white" stroke="black" points="142,-112.5 142,-131.5 228,-131.5 228,-112.5 142,-112.5"/>
<text text-anchor="middle" x="185" y="-119.5" font-family="Helvetica,sans-Serif" font-size="10.00">ScoringObject.h</text>
</a>
</g>
</g>
<!-- Node10&#45;&gt;Node20 -->
<g id="edge32" class="edge"><title>Node10&#45;&gt;Node20</title>
<path fill="none" stroke="midnightblue" d="M502.855,-171.415C435,-161.889 334.886,-147.503 238.077,-132.139"/>
<polygon fill="midnightblue" stroke="midnightblue" points="238.542,-128.669 228.116,-130.553 237.441,-135.582 238.542,-128.669"/>
</g>
<!-- Node21 -->
<g id="node22" class="node"><title>Node21</title>
<g id="a_node22"><a xlink:href="_random_8h.html" target="_top" xlink:title="../DUtils/Random.h">
<polygon fill="white" stroke="black" points="687.5,-112.5 687.5,-131.5 788.5,-131.5 788.5,-112.5 687.5,-112.5"/>
<text text-anchor="middle" x="738" y="-119.5" font-family="Helvetica,sans-Serif" font-size="10.00">../DUtils/Random.h</text>
</a>
</g>
</g>
<!-- Node10&#45;&gt;Node21 -->
<g id="edge34" class="edge"><title>Node10&#45;&gt;Node21</title>
<path fill="none" stroke="midnightblue" d="M619.733,-168.399C645.971,-158.327 680.925,-144.909 706.018,-135.277"/>
<polygon fill="midnightblue" stroke="midnightblue" points="707.365,-138.509 715.446,-131.658 704.856,-131.974 707.365,-138.509"/>
</g>
<!-- Node16&#45;&gt;Node2 -->
<g id="edge29" class="edge"><title>Node16&#45;&gt;Node2</title>
<path fill="none" stroke="midnightblue" d="M332.126,-113.513C335.129,-112.999 338.109,-112.49 341,-112 561.207,-74.6539 826.53,-31.0617 916.996,-16.2381"/>
<polygon fill="midnightblue" stroke="midnightblue" points="917.603,-19.6854 926.906,-14.6148 916.472,-12.7775 917.603,-19.6854"/>
</g>
<!-- Node16&#45;&gt;Node17 -->
<g id="edge24" class="edge"><title>Node16&#45;&gt;Node17</title>
<path fill="none" stroke="midnightblue" d="M272.291,-112.324C255.688,-103.703 229.998,-90.3643 210.78,-80.3855"/>
<polygon fill="midnightblue" stroke="midnightblue" points="212.156,-77.1565 201.668,-75.6545 208.93,-83.3689 212.156,-77.1565"/>
</g>
<!-- Node18 -->
<g id="node19" class="node"><title>Node18</title>
<polygon fill="white" stroke="#bfbfbf" points="251,-0.5 251,-19.5 305,-19.5 305,-0.5 251,-0.5"/>
<text text-anchor="middle" x="278" y="-7.5" font-family="Helvetica,sans-Serif" font-size="10.00">iostream</text>
</g>
<!-- Node16&#45;&gt;Node18 -->
<g id="edge30" class="edge"><title>Node16&#45;&gt;Node18</title>
<path fill="none" stroke="midnightblue" d="M288.137,-112.368C286.362,-94.617 282.267,-53.6664 279.86,-29.5974"/>
<polygon fill="midnightblue" stroke="midnightblue" points="283.337,-29.1935 278.859,-19.5914 276.372,-29.8901 283.337,-29.1935"/>
</g>
<!-- Node19 -->
<g id="node20" class="node"><title>Node19</title>
<polygon fill="white" stroke="#bfbfbf" points="177.5,-0.5 177.5,-19.5 212.5,-19.5 212.5,-0.5 177.5,-0.5"/>
<text text-anchor="middle" x="195" y="-7.5" font-family="Helvetica,sans-Serif" font-size="10.00">map</text>
</g>
<!-- Node16&#45;&gt;Node19 -->
<g id="edge28" class="edge"><title>Node16&#45;&gt;Node19</title>
<path fill="none" stroke="midnightblue" d="M281.624,-112.368C265.974,-94.0547 229.224,-51.0489 208.982,-27.3624"/>
<polygon fill="midnightblue" stroke="midnightblue" points="211.499,-24.92 202.342,-19.5914 206.177,-29.4676 211.499,-24.92"/>
</g>
<!-- Node17&#45;&gt;Node2 -->
<g id="edge27" class="edge"><title>Node17&#45;&gt;Node2</title>
<path fill="none" stroke="midnightblue" d="M221.592,-62.4137C352.038,-53.1936 793.093,-22.0196 916.611,-13.2893"/>
<polygon fill="midnightblue" stroke="midnightblue" points="917.181,-16.7578 926.909,-12.5614 916.688,-9.77522 917.181,-16.7578"/>
</g>
<!-- Node17&#45;&gt;Node18 -->
<g id="edge25" class="edge"><title>Node17&#45;&gt;Node18</title>
<path fill="none" stroke="midnightblue" d="M199.942,-56.324C214.585,-47.8215 237.134,-34.7288 254.238,-24.7975"/>
<polygon fill="midnightblue" stroke="midnightblue" points="256.205,-27.7027 263.095,-19.6545 252.69,-21.6491 256.205,-27.7027"/>
</g>
<!-- Node17&#45;&gt;Node19 -->
<g id="edge26" class="edge"><title>Node17&#45;&gt;Node19</title>
<path fill="none" stroke="midnightblue" d="M186.651,-56.083C187.976,-48.9272 189.882,-38.6353 191.539,-29.6911"/>
<polygon fill="midnightblue" stroke="midnightblue" points="195,-30.2212 193.379,-19.7511 188.117,-28.9466 195,-30.2212"/>
</g>
<!-- Node20&#45;&gt;Node17 -->
<g id="edge33" class="edge"><title>Node20&#45;&gt;Node17</title>
<path fill="none" stroke="midnightblue" d="M185,-112.083C185,-105.006 185,-94.8611 185,-85.9865"/>
<polygon fill="midnightblue" stroke="midnightblue" points="188.5,-85.751 185,-75.7511 181.5,-85.7511 188.5,-85.751"/>
</g>
<!-- Node21&#45;&gt;Node2 -->
<g id="edge36" class="edge"><title>Node21&#45;&gt;Node2</title>
<path fill="none" stroke="midnightblue" d="M744.564,-112.063C755.272,-98.1024 777.847,-71.1525 803,-56 838.77,-34.4521 885.762,-22.3881 916.646,-16.2927"/>
<polygon fill="midnightblue" stroke="midnightblue" points="917.668,-19.662 926.853,-14.3798 916.379,-12.7818 917.668,-19.662"/>
</g>
<!-- Node22 -->
<g id="node23" class="node"><title>Node22</title>
<polygon fill="white" stroke="#bfbfbf" points="705.5,-56.5 705.5,-75.5 750.5,-75.5 750.5,-56.5 705.5,-56.5"/>
<text text-anchor="middle" x="728" y="-63.5" font-family="Helvetica,sans-Serif" font-size="10.00">cstdlib</text>
</g>
<!-- Node21&#45;&gt;Node22 -->
<g id="edge35" class="edge"><title>Node21&#45;&gt;Node22</title>
<path fill="none" stroke="midnightblue" d="M736.349,-112.083C735.024,-104.927 733.118,-94.6353 731.461,-85.6911"/>
<polygon fill="midnightblue" stroke="midnightblue" points="734.883,-84.9466 729.621,-75.7511 728,-86.2212 734.883,-84.9466"/>
</g>
<!-- Node24&#45;&gt;Node2 -->
<g id="edge39" class="edge"><title>Node24&#45;&gt;Node2</title>
<path fill="none" stroke="midnightblue" d="M716.858,-476.808C831.123,-467.132 1271,-426.169 1271,-369 1271,-369 1271,-369 1271,-121 1271,-74.8419 1231.95,-75.2596 1190,-56 1120.05,-23.8861 1028.68,-14.6877 981.046,-12.0546"/>
<polygon fill="midnightblue" stroke="midnightblue" points="981.177,-8.55688 971.017,-11.5628 980.834,-15.5485 981.177,-8.55688"/>
</g>
<!-- Node24&#45;&gt;Node5 -->
<g id="edge62" class="edge"><title>Node24&#45;&gt;Node5</title>
<path fill="none" stroke="midnightblue" d="M700.57,-470.372C719.774,-454.177 760.566,-417.295 784,-378 805.769,-341.498 815.171,-291.691 818.867,-264.903"/>
<polygon fill="midnightblue" stroke="midnightblue" points="822.383,-264.998 820.155,-254.64 815.437,-264.126 822.383,-264.998"/>
</g>
<!-- Node24&#45;&gt;Node16 -->
<g id="edge61" class="edge"><title>Node24&#45;&gt;Node16</title>
<path fill="none" stroke="midnightblue" d="M663.379,-477.473C573.817,-471.617 289,-446.875 289,-369 289,-369 289,-369 289,-244 289,-207.714 289,-165.307 289,-141.559"/>
<polygon fill="midnightblue" stroke="midnightblue" points="292.5,-141.509 289,-131.509 285.5,-141.509 292.5,-141.509"/>
</g>
<!-- Node24&#45;&gt;Node17 -->
<g id="edge60" class="edge"><title>Node24&#45;&gt;Node17</title>
<path fill="none" stroke="midnightblue" d="M663.36,-478.892C602.394,-477.963 448.605,-471.73 327,-434 180.652,-388.594 38,-399.23 38,-246 38,-246 38,-246 38,-182.5 38,-127.583 102.218,-94.8042 145.764,-78.8897"/>
<polygon fill="midnightblue" stroke="midnightblue" points="146.972,-82.1751 155.252,-75.566 144.658,-75.5687 146.972,-82.1751"/>
</g>
<!-- Node25 -->
<g id="node26" class="node"><title>Node25</title>
<g id="a_node26"><a xlink:href="_map_point_8h.html" target="_top" xlink:title="MapPoint.h">
<polygon fill="white" stroke="black" points="657,-414.5 657,-433.5 723,-433.5 723,-414.5 657,-414.5"/>
<text text-anchor="middle" x="690" y="-421.5" font-family="Helvetica,sans-Serif" font-size="10.00">MapPoint.h</text>
</a>
</g>
</g>
<!-- Node24&#45;&gt;Node25 -->
<g id="edge40" class="edge"><title>Node24&#45;&gt;Node25</title>
<path fill="none" stroke="midnightblue" d="M684.834,-470.083C683.324,-462.927 682.894,-452.635 683.542,-443.691"/>
<polygon fill="midnightblue" stroke="midnightblue" points="687.015,-444.126 684.869,-433.751 680.077,-443.2 687.015,-444.126"/>
</g>
<!-- Node30 -->
<g id="node31" class="node"><title>Node30</title>
<g id="a_node31"><a xlink:href="_o_r_bextractor_8h.html" target="_top" xlink:title="ORBextractor.h">
<polygon fill="white" stroke="black" points="1076.5,-297 1076.5,-316 1161.5,-316 1161.5,-297 1076.5,-297"/>
<text text-anchor="middle" x="1119" y="-304" font-family="Helvetica,sans-Serif" font-size="10.00">ORBextractor.h</text>
</a>
</g>
</g>
<!-- Node24&#45;&gt;Node30 -->
<g id="edge63" class="edge"><title>Node24&#45;&gt;Node30</title>
<path fill="none" stroke="midnightblue" d="M716.806,-475.658C756.51,-470.141 832.84,-457.346 894,-434 973.844,-403.522 1059.59,-348.25 1098.14,-322.04"/>
<polygon fill="midnightblue" stroke="midnightblue" points="1100.21,-324.867 1106.47,-316.324 1096.25,-319.094 1100.21,-324.867"/>
</g>
<!-- Node31 -->
<g id="node32" class="node"><title>Node31</title>
<polygon fill="white" stroke="#bfbfbf" points="531.5,-414.5 531.5,-433.5 638.5,-433.5 638.5,-414.5 531.5,-414.5"/>
<text text-anchor="middle" x="585" y="-421.5" font-family="Helvetica,sans-Serif" font-size="10.00">opencv2/opencv.hpp</text>
</g>
<!-- Node24&#45;&gt;Node31 -->
<g id="edge67" class="edge"><title>Node24&#45;&gt;Node31</title>
<path fill="none" stroke="midnightblue" d="M673.13,-470.324C656.291,-461.664 630.193,-448.242 610.762,-438.249"/>
<polygon fill="midnightblue" stroke="midnightblue" points="612.322,-435.116 601.828,-433.655 609.12,-441.341 612.322,-435.116"/>
</g>
<!-- Node25&#45;&gt;Node7 -->
<g id="edge57" class="edge"><title>Node25&#45;&gt;Node7</title>
<path fill="none" stroke="midnightblue" d="M723.067,-421.785C788.931,-417.688 937.982,-399.82 1029,-322 1098.41,-262.658 1065.2,-133.75 1049.56,-85.6202"/>
<polygon fill="midnightblue" stroke="midnightblue" points="1052.8,-84.2692 1046.28,-75.9143 1046.17,-86.5085 1052.8,-84.2692"/>
</g>
<!-- Node25&#45;&gt;Node23 -->
<g id="edge58" class="edge"><title>Node25&#45;&gt;Node23</title>
<path fill="none" stroke="midnightblue" d="M656.746,-415.902C599.513,-403.65 488.342,-379.672 487,-378 460.31,-344.746 481.397,-290.93 495.289,-263.414"/>
<polygon fill="midnightblue" stroke="midnightblue" points="498.395,-265.028 499.98,-254.553 492.208,-261.753 498.395,-265.028"/>
</g>
<!-- Node25&#45;&gt;Node24 -->
<g id="edge49" class="edge"><title>Node25&#45;&gt;Node24</title>
<path fill="none" stroke="midnightblue" d="M695.131,-433.751C696.657,-440.858 697.104,-451.136 696.472,-460.101"/>
<polygon fill="midnightblue" stroke="midnightblue" points="692.993,-459.713 695.166,-470.083 699.934,-460.622 692.993,-459.713"/>
</g>
<!-- Node25&#45;&gt;Node26 -->
<g id="edge41" class="edge"><title>Node25&#45;&gt;Node26</title>
<path fill="none" stroke="midnightblue" d="M664.806,-414.444C638.057,-405.359 595.597,-390.939 565.695,-380.783"/>
<polygon fill="midnightblue" stroke="midnightblue" points="566.671,-377.418 556.076,-377.516 564.419,-384.046 566.671,-377.418"/>
</g>
<!-- Node27 -->
<g id="node28" class="node"><title>Node27</title>
<g id="a_node28"><a xlink:href="_serializer_8h.html" target="_top" xlink:title="Serializer.h">
<polygon fill="white" stroke="black" points="559.5,-297 559.5,-316 624.5,-316 624.5,-297 559.5,-297"/>
<text text-anchor="middle" x="592" y="-304" font-family="Helvetica,sans-Serif" font-size="10.00">Serializer.h</text>
</a>
</g>
</g>
<!-- Node25&#45;&gt;Node27 -->
<g id="edge56" class="edge"><title>Node25&#45;&gt;Node27</title>
<path fill="none" stroke="midnightblue" d="M682.634,-414.319C666.388,-395.172 627.25,-349.044 606.111,-324.131"/>
<polygon fill="midnightblue" stroke="midnightblue" points="608.59,-321.643 599.451,-316.282 603.252,-326.172 608.59,-321.643"/>
</g>
<!-- Node28 -->
<g id="node29" class="node"><title>Node28</title>
<polygon fill="white" stroke="#bfbfbf" points="642.5,-291.5 642.5,-321.5 737.5,-321.5 737.5,-291.5 642.5,-291.5"/>
<text text-anchor="start" x="650.5" y="-309.5" font-family="Helvetica,sans-Serif" font-size="10.00">boost/serialization</text>
<text text-anchor="middle" x="690" y="-298.5" font-family="Helvetica,sans-Serif" font-size="10.00">/access.hpp</text>
</g>
<!-- Node25&#45;&gt;Node28 -->
<g id="edge59" class="edge"><title>Node25&#45;&gt;Node28</title>
<path fill="none" stroke="midnightblue" d="M690,-414.319C690,-396.967 690,-357.457 690,-331.658"/>
<polygon fill="midnightblue" stroke="midnightblue" points="693.5,-331.545 690,-321.545 686.5,-331.545 693.5,-331.545"/>
</g>
<!-- Node29 -->
<g id="node30" class="node"><title>Node29</title>
<g id="a_node30"><a xlink:href="_map_8h.html" target="_top" xlink:title="Map.h">
<polygon fill="white" stroke="black" points="731,-358.5 731,-377.5 775,-377.5 775,-358.5 731,-358.5"/>
<text text-anchor="middle" x="753" y="-365.5" font-family="Helvetica,sans-Serif" font-size="10.00">Map.h</text>
</a>
</g>
</g>
<!-- Node25&#45;&gt;Node29 -->
<g id="edge50" class="edge"><title>Node25&#45;&gt;Node29</title>
<path fill="none" stroke="midnightblue" d="M700.122,-414.324C709.526,-406.263 723.744,-394.077 735.069,-384.369"/>
<polygon fill="midnightblue" stroke="midnightblue" points="737.379,-386.999 742.694,-377.834 732.823,-381.684 737.379,-386.999"/>
</g>
<!-- Node26&#45;&gt;Node1 -->
<g id="edge45" class="edge"><title>Node26&#45;&gt;Node1</title>
<path fill="none" stroke="midnightblue" d="M566.067,-362.181C638.257,-352.261 804.496,-329.418 897.653,-316.617"/>
<polygon fill="midnightblue" stroke="midnightblue" points="898.382,-320.05 907.812,-315.221 897.429,-313.115 898.382,-320.05"/>
</g>
<!-- Node26&#45;&gt;Node5 -->
<g id="edge44" class="edge"><title>Node26&#45;&gt;Node5</title>
<path fill="none" stroke="midnightblue" d="M530.37,-358.445C529.716,-342.604 530.808,-308.707 550,-291 580.277,-263.065 693.1,-252.34 763.273,-248.319"/>
<polygon fill="midnightblue" stroke="midnightblue" points="763.507,-251.811 773.302,-247.773 763.127,-244.822 763.507,-251.811"/>
</g>
<!-- Node26&#45;&gt;Node16 -->
<g id="edge43" class="edge"><title>Node26&#45;&gt;Node16</title>
<path fill="none" stroke="midnightblue" d="M522.387,-358.316C486.809,-322.443 350.991,-185.503 304.622,-138.751"/>
<polygon fill="midnightblue" stroke="midnightblue" points="307.037,-136.215 297.51,-131.58 302.067,-141.145 307.037,-136.215"/>
</g>
<!-- Node26&#45;&gt;Node17 -->
<g id="edge42" class="edge"><title>Node26&#45;&gt;Node17</title>
<path fill="none" stroke="midnightblue" d="M495.676,-365.207C388.771,-358.826 76,-332.745 76,-246 76,-246 76,-246 76,-182.5 76,-134.821 125.738,-98.853 158.017,-80.5309"/>
<polygon fill="midnightblue" stroke="midnightblue" points="159.901,-83.4902 167.001,-75.6266 156.546,-77.3461 159.901,-83.4902"/>
</g>
<!-- Node26&#45;&gt;Node23 -->
<g id="edge47" class="edge"><title>Node26&#45;&gt;Node23</title>
<path fill="none" stroke="midnightblue" d="M527.941,-358.475C524.817,-349.5 520.01,-334.908 517,-322 512.503,-302.718 509.191,-280.288 507.199,-264.818"/>
<polygon fill="midnightblue" stroke="midnightblue" points="510.627,-264.012 505.935,-254.512 503.679,-264.864 510.627,-264.012"/>
</g>
<!-- Node26&#45;&gt;Node27 -->
<g id="edge46" class="edge"><title>Node26&#45;&gt;Node27</title>
<path fill="none" stroke="midnightblue" d="M539.74,-358.475C549.162,-349.285 564.364,-334.456 575.949,-323.156"/>
<polygon fill="midnightblue" stroke="midnightblue" points="578.562,-325.497 583.276,-316.009 573.674,-320.486 578.562,-325.497"/>
</g>
<!-- Node26&#45;&gt;Node28 -->
<g id="edge48" class="edge"><title>Node26&#45;&gt;Node28</title>
<path fill="none" stroke="midnightblue" d="M553.781,-358.475C576.925,-349.814 613.452,-336.145 642.857,-325.141"/>
<polygon fill="midnightblue" stroke="midnightblue" points="644.388,-328.306 652.527,-321.523 641.934,-321.75 644.388,-328.306"/>
</g>
<!-- Node29&#45;&gt;Node4 -->
<g id="edge52" class="edge"><title>Node29&#45;&gt;Node4</title>
<path fill="none" stroke="midnightblue" d="M765.798,-358.492C796.66,-337.974 875.442,-285.596 913.619,-260.215"/>
<polygon fill="midnightblue" stroke="midnightblue" points="915.583,-263.112 921.973,-254.661 911.707,-257.283 915.583,-263.112"/>
</g>
<!-- Node29&#45;&gt;Node5 -->
<g id="edge51" class="edge"><title>Node29&#45;&gt;Node5</title>
<path fill="none" stroke="midnightblue" d="M758.294,-358.442C763.825,-349.44 772.697,-334.826 780,-322 791.318,-302.122 803.709,-278.941 811.873,-263.457"/>
<polygon fill="midnightblue" stroke="midnightblue" points="815.024,-264.985 816.575,-254.504 808.827,-261.73 815.024,-264.985"/>
</g>
<!-- Node29&#45;&gt;Node23 -->
<g id="edge53" class="edge"><title>Node29&#45;&gt;Node23</title>
<path fill="none" stroke="midnightblue" d="M755.172,-358.407C758.553,-342.805 763.047,-309.706 746,-291 718.471,-260.791 596.617,-250.582 537.452,-247.366"/>
<polygon fill="midnightblue" stroke="midnightblue" points="537.336,-243.856 527.172,-246.844 536.981,-250.847 537.336,-243.856"/>
</g>
<!-- Node29&#45;&gt;Node27 -->
<g id="edge55" class="edge"><title>Node29&#45;&gt;Node27</title>
<path fill="none" stroke="midnightblue" d="M730.951,-358.852C703.519,-348.714 656.44,-331.315 624.777,-319.613"/>
<polygon fill="midnightblue" stroke="midnightblue" points="625.676,-316.214 615.083,-316.031 623.249,-322.78 625.676,-316.214"/>
</g>
<!-- Node29&#45;&gt;Node28 -->
<g id="edge54" class="edge"><title>Node29&#45;&gt;Node28</title>
<path fill="none" stroke="midnightblue" d="M743.974,-358.475C735.76,-350.718 723.293,-338.943 712.409,-328.665"/>
<polygon fill="midnightblue" stroke="midnightblue" points="714.521,-325.845 704.848,-321.523 709.715,-330.934 714.521,-325.845"/>
</g>
<!-- Node30&#45;&gt;Node2 -->
<g id="edge64" class="edge"><title>Node30&#45;&gt;Node2</title>
<path fill="none" stroke="midnightblue" d="M1136.81,-296.984C1168.88,-280.27 1233,-239.915 1233,-184.5 1233,-184.5 1233,-184.5 1233,-121 1233,-73.7946 1191.71,-76.1041 1149,-56 1093.43,-29.8417 1021.89,-18.5012 981.169,-13.888"/>
<polygon fill="midnightblue" stroke="midnightblue" points="981.338,-10.3863 971.023,-12.8067 980.596,-17.3469 981.338,-10.3863"/>
</g>
<!-- Node30&#45;&gt;Node3 -->
<g id="edge65" class="edge"><title>Node30&#45;&gt;Node3</title>
<path fill="none" stroke="midnightblue" d="M1107.39,-296.975C1094.52,-287.52 1073.53,-272.096 1057.99,-260.687"/>
<polygon fill="midnightblue" stroke="midnightblue" points="1059.72,-257.608 1049.58,-254.509 1055.57,-263.25 1059.72,-257.608"/>
</g>
<!-- Node30&#45;&gt;Node7 -->
<g id="edge66" class="edge"><title>Node30&#45;&gt;Node7</title>
<path fill="none" stroke="midnightblue" d="M1120.03,-296.744C1122.97,-268.184 1129.12,-175.903 1095,-112 1088.41,-99.6582 1076.96,-89.186 1066.47,-81.4579"/>
<polygon fill="midnightblue" stroke="midnightblue" points="1068.24,-78.4268 1058.02,-75.631 1064.27,-84.1894 1068.24,-78.4268"/>
</g>
</g>
</svg>
