<?xml version="1.0" encoding="UTF-8" standalone="no"?>
<!DOCTYPE svg PUBLIC "-//W3C//DTD SVG 1.1//EN"
 "http://www.w3.org/Graphics/SVG/1.1/DTD/svg11.dtd">
<!-- Generated by graphviz version 2.38.0 (20140413.2041)
 -->
<!-- Title: /home/alejandro/Desarrollo eclipse/os1/include/KeyFrame.h Pages: 1 -->
<svg width="2431pt" height="296pt"
 viewBox="0.00 0.00 2430.50 296.00" xmlns="http://www.w3.org/2000/svg" xmlns:xlink="http://www.w3.org/1999/xlink">
<g id="graph0" class="graph" transform="scale(1 1) rotate(0) translate(4 292)">
<title>/home/alejandro/Desarrollo eclipse/os1/include/KeyFrame.h</title>
<polygon fill="white" stroke="none" points="-4,4 -4,-292 2426.5,-292 2426.5,4 -4,4"/>
<!-- Node0 -->
<g id="node1" class="node"><title>Node0</title>
<polygon fill="#bfbfbf" stroke="black" points="1853.5,-257.5 1853.5,-287.5 2012.5,-287.5 2012.5,-257.5 1853.5,-257.5"/>
<text text-anchor="start" x="1861.5" y="-275.5" font-family="Helvetica,sans-Serif" font-size="10.00">/home/alejandro/Desarrollo</text>
<text text-anchor="middle" x="1933" y="-264.5" font-family="Helvetica,sans-Serif" font-size="10.00"> eclipse/os1/include/KeyFrame.h</text>
</g>
<!-- Node1 -->
<g id="node2" class="node"><title>Node1</title>
<g id="a_node2"><a xlink:href="_map_point_8h.html" target="_top" xlink:title="MapPoint.h">
<polygon fill="white" stroke="black" points="1980,-201.5 1980,-220.5 2046,-220.5 2046,-201.5 1980,-201.5"/>
<text text-anchor="middle" x="2013" y="-208.5" font-family="Helvetica,sans-Serif" font-size="10.00">MapPoint.h</text>
</a>
</g>
</g>
<!-- Node0&#45;&gt;Node1 -->
<g id="edge1" class="edge"><title>Node0&#45;&gt;Node1</title>
<path fill="none" stroke="midnightblue" d="M1946.12,-257.399C1957.5,-248.04 1973.96,-235.792 1987.79,-226.377"/>
<polygon fill="midnightblue" stroke="midnightblue" points="1990.03,-229.098 1996.43,-220.658 1986.16,-223.262 1990.03,-229.098"/>
</g>
<!-- Node2 -->
<g id="node3" class="node"><title>Node2</title>
<g id="a_node3"><a xlink:href="_frame_8h.html" target="_top" xlink:title="Frame.h">
<polygon fill="white" stroke="black" points="1281.5,-145.5 1281.5,-164.5 1334.5,-164.5 1334.5,-145.5 1281.5,-145.5"/>
<text text-anchor="middle" x="1308" y="-152.5" font-family="Helvetica,sans-Serif" font-size="10.00">Frame.h</text>
</a>
</g>
</g>
<!-- Node0&#45;&gt;Node2 -->
<g id="edge44" class="edge"><title>Node0&#45;&gt;Node2</title>
<path fill="none" stroke="midnightblue" d="M1856.99,-257.453C1721.72,-232.456 1444.11,-181.152 1344.54,-162.753"/>
<polygon fill="midnightblue" stroke="midnightblue" points="1345.13,-159.302 1334.66,-160.926 1343.85,-166.185 1345.13,-159.302"/>
</g>
<!-- Node19 -->
<g id="node20" class="node"><title>Node19</title>
<polygon fill="white" stroke="#bfbfbf" points="1857.5,-73 1857.5,-103 1970.5,-103 1970.5,-73 1857.5,-73"/>
<text text-anchor="start" x="1865.5" y="-91" font-family="Helvetica,sans-Serif" font-size="10.00">../Thirdparty/DBoW2</text>
<text text-anchor="middle" x="1914" y="-80" font-family="Helvetica,sans-Serif" font-size="10.00">/DBoW2/BowVector.h</text>
</g>
<!-- Node0&#45;&gt;Node19 -->
<g id="edge37" class="edge"><title>Node0&#45;&gt;Node19</title>
<path fill="none" stroke="midnightblue" d="M1931.54,-257.483C1928.32,-226.564 1920.58,-152.191 1916.54,-113.428"/>
<polygon fill="midnightblue" stroke="midnightblue" points="1919.98,-112.649 1915.46,-103.065 1913.02,-113.374 1919.98,-112.649"/>
</g>
<!-- Node20 -->
<g id="node21" class="node"><title>Node20</title>
<polygon fill="white" stroke="#bfbfbf" points="1988.5,-73 1988.5,-103 2115.5,-103 2115.5,-73 1988.5,-73"/>
<text text-anchor="start" x="1996.5" y="-91" font-family="Helvetica,sans-Serif" font-size="10.00">../Thirdparty/DBoW2</text>
<text text-anchor="middle" x="2052" y="-80" font-family="Helvetica,sans-Serif" font-size="10.00">/DBoW2/FeatureVector.h</text>
</g>
<!-- Node0&#45;&gt;Node20 -->
<g id="edge38" class="edge"><title>Node0&#45;&gt;Node20</title>
<path fill="none" stroke="midnightblue" d="M1939.9,-257.414C1947.14,-242.959 1959.1,-219.964 1971,-201 1991.26,-168.697 2017.58,-133.343 2034.63,-111.172"/>
<polygon fill="midnightblue" stroke="midnightblue" points="2037.54,-113.128 2040.89,-103.078 2032,-108.845 2037.54,-113.128"/>
</g>
<!-- Node21 -->
<g id="node22" class="node"><title>Node21</title>
<g id="a_node22"><a xlink:href="_o_r_b_vocabulary_8h.html" target="_top" xlink:title="ORBVocabulary.h">
<polygon fill="white" stroke="black" points="196.5,-78.5 196.5,-97.5 291.5,-97.5 291.5,-78.5 196.5,-78.5"/>
<text text-anchor="middle" x="244" y="-85.5" font-family="Helvetica,sans-Serif" font-size="10.00">ORBVocabulary.h</text>
</a>
</g>
</g>
<!-- Node0&#45;&gt;Node21 -->
<g id="edge39" class="edge"><title>Node0&#45;&gt;Node21</title>
<path fill="none" stroke="midnightblue" d="M1853.25,-270.863C1683.33,-268.762 1273.25,-259.739 932,-221 648.99,-188.873 576.505,-181.277 301,-109 292.562,-106.786 283.59,-103.9 275.321,-101.011"/>
<polygon fill="midnightblue" stroke="midnightblue" points="276.262,-97.63 265.668,-97.5321 273.889,-104.215 276.262,-97.63"/>
</g>
<!-- Node27 -->
<g id="node28" class="node"><title>Node27</title>
<polygon fill="white" stroke="#bfbfbf" points="2182,-78.5 2182,-97.5 2226,-97.5 2226,-78.5 2182,-78.5"/>
<text text-anchor="middle" x="2204" y="-85.5" font-family="Helvetica,sans-Serif" font-size="10.00">mutex</text>
</g>
<!-- Node0&#45;&gt;Node27 -->
<g id="edge54" class="edge"><title>Node0&#45;&gt;Node27</title>
<path fill="none" stroke="midnightblue" d="M2006.07,-257.46C2061.19,-243.2 2134.8,-215.734 2180,-165 2194.21,-149.051 2200.01,-124.7 2202.37,-107.881"/>
<polygon fill="midnightblue" stroke="midnightblue" points="2205.89,-107.964 2203.52,-97.6356 2198.93,-107.183 2205.89,-107.964"/>
</g>
<!-- Node28 -->
<g id="node29" class="node"><title>Node28</title>
<polygon fill="white" stroke="#bfbfbf" points="2327.5,-73 2327.5,-103 2422.5,-103 2422.5,-73 2327.5,-73"/>
<text text-anchor="start" x="2335.5" y="-91" font-family="Helvetica,sans-Serif" font-size="10.00">boost/serialization</text>
<text text-anchor="middle" x="2375" y="-80" font-family="Helvetica,sans-Serif" font-size="10.00">/access.hpp</text>
</g>
<!-- Node0&#45;&gt;Node28 -->
<g id="edge55" class="edge"><title>Node0&#45;&gt;Node28</title>
<path fill="none" stroke="midnightblue" d="M2012.63,-261.168C2058.38,-253.525 2116.25,-240.911 2165,-221 2236.72,-191.709 2311.34,-138.402 2349.37,-109.296"/>
<polygon fill="midnightblue" stroke="midnightblue" points="2351.58,-112.011 2357.35,-103.128 2347.3,-106.472 2351.58,-112.011"/>
</g>
<!-- Node29 -->
<g id="node30" class="node"><title>Node29</title>
<g id="a_node30"><a xlink:href="_serializer_8h.html" target="_top" xlink:title="Serializer.h">
<polygon fill="white" stroke="black" points="2244.5,-78.5 2244.5,-97.5 2309.5,-97.5 2309.5,-78.5 2244.5,-78.5"/>
<text text-anchor="middle" x="2277" y="-85.5" font-family="Helvetica,sans-Serif" font-size="10.00">Serializer.h</text>
</a>
</g>
</g>
<!-- Node0&#45;&gt;Node29 -->
<g id="edge53" class="edge"><title>Node0&#45;&gt;Node29</title>
<path fill="none" stroke="midnightblue" d="M2012.76,-259.252C2050.99,-251.48 2096.69,-239.337 2135,-221 2192.26,-193.596 2242.22,-134.932 2264.56,-105.937"/>
<polygon fill="midnightblue" stroke="midnightblue" points="2267.59,-107.734 2270.81,-97.6431 2262,-103.518 2267.59,-107.734"/>
</g>
<!-- Node30 -->
<g id="node31" class="node"><title>Node30</title>
<g id="a_node31"><a xlink:href="_o_r_bextractor_8h.html" target="_top" xlink:title="ORBextractor.h">
<polygon fill="white" stroke="black" points="941.5,-201.5 941.5,-220.5 1026.5,-220.5 1026.5,-201.5 941.5,-201.5"/>
<text text-anchor="middle" x="984" y="-208.5" font-family="Helvetica,sans-Serif" font-size="10.00">ORBextractor.h</text>
</a>
</g>
</g>
<!-- Node0&#45;&gt;Node30 -->
<g id="edge40" class="edge"><title>Node0&#45;&gt;Node30</title>
<path fill="none" stroke="midnightblue" d="M1853.31,-266.504C1664.79,-254.684 1195.36,-225.252 1037.08,-215.328"/>
<polygon fill="midnightblue" stroke="midnightblue" points="1036.87,-211.808 1026.67,-214.675 1036.43,-218.794 1036.87,-211.808"/>
</g>
<!-- Node32 -->
<g id="node33" class="node"><title>Node32</title>
<g id="a_node33"><a xlink:href="_key_frame_database_8h.html" target="_top" xlink:title="KeyFrameDatabase.h">
<polygon fill="white" stroke="black" points="1359,-201.5 1359,-220.5 1471,-220.5 1471,-201.5 1359,-201.5"/>
<text text-anchor="middle" x="1415" y="-208.5" font-family="Helvetica,sans-Serif" font-size="10.00">KeyFrameDatabase.h</text>
</a>
</g>
</g>
<!-- Node0&#45;&gt;Node32 -->
<g id="edge45" class="edge"><title>Node0&#45;&gt;Node32</title>
<path fill="none" stroke="midnightblue" d="M1853.32,-262.912C1751.22,-251.469 1576.25,-231.368 1481.15,-220.151"/>
<polygon fill="midnightblue" stroke="midnightblue" points="1481.42,-216.659 1471.08,-218.961 1480.6,-223.611 1481.42,-216.659"/>
</g>
<!-- Node1&#45;&gt;Node0 -->
<g id="edge2" class="edge"><title>Node1&#45;&gt;Node0</title>
<path fill="none" stroke="midnightblue" d="M2006.29,-220.658C1997.2,-228.708 1981.16,-241.001 1966.33,-251.483"/>
<polygon fill="midnightblue" stroke="midnightblue" points="1964.02,-248.825 1957.8,-257.399 1968.01,-254.578 1964.02,-248.825"/>
</g>
<!-- Node1&#45;&gt;Node2 -->
<g id="edge3" class="edge"><title>Node1&#45;&gt;Node2</title>
<path fill="none" stroke="midnightblue" d="M1979.75,-207.68C1862.27,-199.059 1467.95,-168.865 1344.91,-159.084"/>
<polygon fill="midnightblue" stroke="midnightblue" points="1345.1,-155.588 1334.86,-158.282 1344.55,-162.566 1345.1,-155.588"/>
</g>
<!-- Node7 -->
<g id="node8" class="node"><title>Node7</title>
<polygon fill="white" stroke="#bfbfbf" points="62,-78.5 62,-97.5 178,-97.5 178,-78.5 62,-78.5"/>
<text text-anchor="middle" x="120" y="-85.5" font-family="Helvetica,sans-Serif" font-size="10.00">opencv2/core/core.hpp</text>
</g>
<!-- Node1&#45;&gt;Node7 -->
<g id="edge34" class="edge"><title>Node1&#45;&gt;Node7</title>
<path fill="none" stroke="midnightblue" d="M1979.68,-209.016C1875.14,-205.706 1544.38,-193.543 1272,-165 1212.11,-158.725 1197.96,-150.592 1138,-145 716.858,-105.721 604.297,-178.041 187,-109 175.746,-107.138 163.727,-103.948 153.02,-100.656"/>
<polygon fill="midnightblue" stroke="midnightblue" points="153.816,-97.236 143.225,-97.5089 151.675,-103.9 153.816,-97.236"/>
</g>
<!-- Node25 -->
<g id="node26" class="node"><title>Node25</title>
<g id="a_node26"><a xlink:href="_map_8h.html" target="_top" xlink:title="Map.h">
<polygon fill="white" stroke="black" points="2127,-145.5 2127,-164.5 2171,-164.5 2171,-145.5 2127,-145.5"/>
<text text-anchor="middle" x="2149" y="-152.5" font-family="Helvetica,sans-Serif" font-size="10.00">Map.h</text>
</a>
</g>
</g>
<!-- Node1&#45;&gt;Node25 -->
<g id="edge27" class="edge"><title>Node1&#45;&gt;Node25</title>
<path fill="none" stroke="midnightblue" d="M2034.55,-201.444C2057.03,-192.517 2092.49,-178.439 2117.98,-168.317"/>
<polygon fill="midnightblue" stroke="midnightblue" points="2119.55,-171.46 2127.55,-164.516 2116.97,-164.954 2119.55,-171.46"/>
</g>
<!-- Node1&#45;&gt;Node27 -->
<g id="edge35" class="edge"><title>Node1&#45;&gt;Node27</title>
<path fill="none" stroke="midnightblue" d="M2026.73,-201.399C2054.43,-184.024 2119,-143.46 2173,-109 2176.01,-107.081 2179.17,-105.051 2182.28,-103.048"/>
<polygon fill="midnightblue" stroke="midnightblue" points="2184.24,-105.955 2190.74,-97.5935 2180.44,-100.072 2184.24,-105.955"/>
</g>
<!-- Node1&#45;&gt;Node28 -->
<g id="edge36" class="edge"><title>Node1&#45;&gt;Node28</title>
<path fill="none" stroke="midnightblue" d="M2046.17,-204.517C2085.61,-197.512 2153.13,-183.981 2209,-165 2255.44,-149.223 2306.38,-124.755 2339.42,-107.864"/>
<polygon fill="midnightblue" stroke="midnightblue" points="2341.38,-110.794 2348.66,-103.1 2338.17,-104.572 2341.38,-110.794"/>
</g>
<!-- Node1&#45;&gt;Node29 -->
<g id="edge33" class="edge"><title>Node1&#45;&gt;Node29</title>
<path fill="none" stroke="midnightblue" d="M2046.1,-205.114C2080.84,-199.08 2136.36,-186.833 2180,-165 2211.69,-149.145 2242.98,-121.992 2261.12,-104.798"/>
<polygon fill="midnightblue" stroke="midnightblue" points="2263.73,-107.143 2268.48,-97.6746 2258.86,-102.111 2263.73,-107.143"/>
</g>
<!-- Node2&#45;&gt;Node1 -->
<g id="edge5" class="edge"><title>Node2&#45;&gt;Node1</title>
<path fill="none" stroke="midnightblue" d="M1334.86,-157.853C1441.86,-165.657 1837.3,-195.922 1969.63,-206.403"/>
<polygon fill="midnightblue" stroke="midnightblue" points="1969.54,-209.907 1979.79,-207.21 1970.1,-202.929 1969.54,-209.907"/>
</g>
<!-- Node3 -->
<g id="node4" class="node"><title>Node3</title>
<polygon fill="white" stroke="#bfbfbf" points="0,-78.5 0,-97.5 44,-97.5 44,-78.5 0,-78.5"/>
<text text-anchor="middle" x="22" y="-85.5" font-family="Helvetica,sans-Serif" font-size="10.00">vector</text>
</g>
<!-- Node2&#45;&gt;Node3 -->
<g id="edge4" class="edge"><title>Node2&#45;&gt;Node3</title>
<path fill="none" stroke="midnightblue" d="M1281.23,-152.253C1250.17,-150.272 1197.39,-147.053 1152,-145 1029.95,-139.481 169.616,-145.439 53,-109 48.736,-107.668 44.4942,-105.577 40.5791,-103.239"/>
<polygon fill="midnightblue" stroke="midnightblue" points="42.4288,-100.265 32.18,-97.5793 38.517,-106.07 42.4288,-100.265"/>
</g>
<!-- Node4 -->
<g id="node5" class="node"><title>Node4</title>
<polygon fill="white" stroke="#bfbfbf" points="832,-78.5 832,-97.5 886,-97.5 886,-78.5 832,-78.5"/>
<text text-anchor="middle" x="859" y="-85.5" font-family="Helvetica,sans-Serif" font-size="10.00">iostream</text>
</g>
<!-- Node2&#45;&gt;Node4 -->
<g id="edge6" class="edge"><title>Node2&#45;&gt;Node4</title>
<path fill="none" stroke="midnightblue" d="M1281.23,-148.436C1274.63,-147.187 1267.58,-145.951 1261,-145 1099.23,-121.605 1051.03,-157.705 895,-109 890.056,-107.457 885.028,-105.186 880.359,-102.722"/>
<polygon fill="midnightblue" stroke="midnightblue" points="881.832,-99.5312 871.421,-97.5662 878.334,-105.595 881.832,-99.5312"/>
</g>
<!-- Node5 -->
<g id="node6" class="node"><title>Node5</title>
<polygon fill="white" stroke="#bfbfbf" points="904.5,-78.5 904.5,-97.5 939.5,-97.5 939.5,-78.5 904.5,-78.5"/>
<text text-anchor="middle" x="922" y="-85.5" font-family="Helvetica,sans-Serif" font-size="10.00">map</text>
</g>
<!-- Node2&#45;&gt;Node5 -->
<g id="edge7" class="edge"><title>Node2&#45;&gt;Node5</title>
<path fill="none" stroke="midnightblue" d="M1281.22,-148.513C1274.62,-147.261 1267.57,-146.005 1261,-145 1122.58,-123.818 1077.77,-161.602 948,-109 944.833,-107.716 941.723,-105.936 938.816,-103.962"/>
<polygon fill="midnightblue" stroke="midnightblue" points="940.895,-101.145 930.855,-97.7627 936.595,-106.668 940.895,-101.145"/>
</g>
<!-- Node6 -->
<g id="node7" class="node"><title>Node6</title>
<polygon fill="white" stroke="#bfbfbf" points="957.5,-67.5 957.5,-108.5 1108.5,-108.5 1108.5,-67.5 957.5,-67.5"/>
<text text-anchor="start" x="965.5" y="-96.5" font-family="Helvetica,sans-Serif" font-size="10.00">/home/alejandro/Desarrollo</text>
<text text-anchor="start" x="965.5" y="-85.5" font-family="Helvetica,sans-Serif" font-size="10.00"> eclipse/os1/Thirdparty</text>
<text text-anchor="middle" x="1033" y="-74.5" font-family="Helvetica,sans-Serif" font-size="10.00">/DBoW2/DBoW2/BowVector.h</text>
</g>
<!-- Node2&#45;&gt;Node6 -->
<g id="edge8" class="edge"><title>Node2&#45;&gt;Node6</title>
<path fill="none" stroke="midnightblue" d="M1281.42,-147.759C1246.32,-139.513 1182.32,-124.461 1118.39,-109.328"/>
<polygon fill="midnightblue" stroke="midnightblue" points="1119.09,-105.896 1108.55,-106.998 1117.48,-112.708 1119.09,-105.896"/>
</g>
<!-- Node2&#45;&gt;Node7 -->
<g id="edge9" class="edge"><title>Node2&#45;&gt;Node7</title>
<path fill="none" stroke="midnightblue" d="M1281.14,-151.058C1261.91,-149.056 1235.39,-146.506 1212,-145 984.553,-130.357 411.912,-145.896 187,-109 175.743,-107.153 163.723,-103.968 153.017,-100.675"/>
<polygon fill="midnightblue" stroke="midnightblue" points="153.814,-97.2546 143.222,-97.525 151.671,-103.918 153.814,-97.2546"/>
</g>
<!-- Node8 -->
<g id="node9" class="node"><title>Node8</title>
<polygon fill="white" stroke="#bfbfbf" points="1126.5,-78.5 1126.5,-97.5 1167.5,-97.5 1167.5,-78.5 1126.5,-78.5"/>
<text text-anchor="middle" x="1147" y="-85.5" font-family="Helvetica,sans-Serif" font-size="10.00">string</text>
</g>
<!-- Node2&#45;&gt;Node8 -->
<g id="edge10" class="edge"><title>Node2&#45;&gt;Node8</title>
<path fill="none" stroke="midnightblue" d="M1281.35,-147.031C1254.3,-139.458 1211.59,-126.115 1177,-109 1173.54,-107.289 1170.01,-105.243 1166.64,-103.123"/>
<polygon fill="midnightblue" stroke="midnightblue" points="1168.52,-100.168 1158.26,-97.5131 1164.63,-105.985 1168.52,-100.168"/>
</g>
<!-- Node9 -->
<g id="node10" class="node"><title>Node9</title>
<polygon fill="white" stroke="#bfbfbf" points="1186,-67.5 1186,-108.5 1320,-108.5 1320,-67.5 1186,-67.5"/>
<text text-anchor="start" x="1194" y="-96.5" font-family="Helvetica,sans-Serif" font-size="10.00">/home/alejandro/Desarrollo</text>
<text text-anchor="start" x="1194" y="-85.5" font-family="Helvetica,sans-Serif" font-size="10.00"> eclipse/os1/Thirdparty</text>
<text text-anchor="middle" x="1253" y="-74.5" font-family="Helvetica,sans-Serif" font-size="10.00">/DBoW2/DBoW2/FClass.h</text>
</g>
<!-- Node2&#45;&gt;Node9 -->
<g id="edge11" class="edge"><title>Node2&#45;&gt;Node9</title>
<path fill="none" stroke="midnightblue" d="M1300.58,-145.234C1294.27,-137.778 1284.86,-126.658 1276.07,-116.27"/>
<polygon fill="midnightblue" stroke="midnightblue" points="1278.67,-113.915 1269.54,-108.542 1273.32,-118.437 1278.67,-113.915"/>
</g>
<!-- Node10 -->
<g id="node11" class="node"><title>Node10</title>
<polygon fill="white" stroke="#bfbfbf" points="1338.5,-78.5 1338.5,-97.5 1387.5,-97.5 1387.5,-78.5 1338.5,-78.5"/>
<text text-anchor="middle" x="1363" y="-85.5" font-family="Helvetica,sans-Serif" font-size="10.00">cassert</text>
</g>
<!-- Node2&#45;&gt;Node10 -->
<g id="edge12" class="edge"><title>Node2&#45;&gt;Node10</title>
<path fill="none" stroke="midnightblue" d="M1315.42,-145.234C1323.99,-135.098 1338.3,-118.19 1348.99,-105.556"/>
<polygon fill="midnightblue" stroke="midnightblue" points="1351.91,-107.522 1355.7,-97.6273 1346.57,-103 1351.91,-107.522"/>
</g>
<!-- Node11 -->
<g id="node12" class="node"><title>Node11</title>
<polygon fill="white" stroke="#bfbfbf" points="1405.5,-78.5 1405.5,-97.5 1456.5,-97.5 1456.5,-78.5 1405.5,-78.5"/>
<text text-anchor="middle" x="1431" y="-85.5" font-family="Helvetica,sans-Serif" font-size="10.00">numeric</text>
</g>
<!-- Node2&#45;&gt;Node11 -->
<g id="edge13" class="edge"><title>Node2&#45;&gt;Node11</title>
<path fill="none" stroke="midnightblue" d="M1325.32,-145.439C1343.16,-136.555 1371.7,-122.146 1396,-109 1399.81,-106.939 1403.82,-104.707 1407.72,-102.505"/>
<polygon fill="midnightblue" stroke="midnightblue" points="1409.49,-105.521 1416.44,-97.521 1406.02,-99.4426 1409.49,-105.521"/>
</g>
<!-- Node12 -->
<g id="node13" class="node"><title>Node12</title>
<polygon fill="white" stroke="#bfbfbf" points="1475,-78.5 1475,-97.5 1525,-97.5 1525,-78.5 1475,-78.5"/>
<text text-anchor="middle" x="1500" y="-85.5" font-family="Helvetica,sans-Serif" font-size="10.00">fstream</text>
</g>
<!-- Node2&#45;&gt;Node12 -->
<g id="edge14" class="edge"><title>Node2&#45;&gt;Node12</title>
<path fill="none" stroke="midnightblue" d="M1334.78,-148.393C1366.57,-141.269 1420.85,-127.623 1465,-109 1469.32,-107.176 1473.79,-104.935 1478.01,-102.621"/>
<polygon fill="midnightblue" stroke="midnightblue" points="1479.85,-105.603 1486.76,-97.5714 1476.35,-99.5416 1479.85,-105.603"/>
</g>
<!-- Node13 -->
<g id="node14" class="node"><title>Node13</title>
<polygon fill="white" stroke="#bfbfbf" points="1543,-78.5 1543,-97.5 1599,-97.5 1599,-78.5 1543,-78.5"/>
<text text-anchor="middle" x="1571" y="-85.5" font-family="Helvetica,sans-Serif" font-size="10.00">algorithm</text>
</g>
<!-- Node2&#45;&gt;Node13 -->
<g id="edge15" class="edge"><title>Node2&#45;&gt;Node13</title>
<path fill="none" stroke="midnightblue" d="M1334.79,-151.289C1377.83,-146.358 1464.56,-134.036 1534,-109 1538.81,-107.265 1543.76,-104.981 1548.41,-102.58"/>
<polygon fill="midnightblue" stroke="midnightblue" points="1550.34,-105.516 1557.4,-97.6217 1546.96,-99.3867 1550.34,-105.516"/>
</g>
<!-- Node14 -->
<g id="node15" class="node"><title>Node14</title>
<polygon fill="white" stroke="#bfbfbf" points="1617,-78.5 1617,-97.5 1657,-97.5 1657,-78.5 1617,-78.5"/>
<text text-anchor="middle" x="1637" y="-85.5" font-family="Helvetica,sans-Serif" font-size="10.00">limits</text>
</g>
<!-- Node2&#45;&gt;Node14 -->
<g id="edge16" class="edge"><title>Node2&#45;&gt;Node14</title>
<path fill="none" stroke="midnightblue" d="M1334.71,-153.981C1388.42,-153.096 1512.49,-146.742 1608,-109 1611.63,-107.567 1615.24,-105.608 1618.63,-103.473"/>
<polygon fill="midnightblue" stroke="midnightblue" points="1620.75,-106.264 1626.92,-97.6527 1616.73,-100.536 1620.75,-106.264"/>
</g>
<!-- Node15 -->
<g id="node16" class="node"><title>Node15</title>
<polygon fill="white" stroke="#bfbfbf" points="1675,-67.5 1675,-108.5 1839,-108.5 1839,-67.5 1675,-67.5"/>
<text text-anchor="start" x="1683" y="-96.5" font-family="Helvetica,sans-Serif" font-size="10.00">/home/alejandro/Desarrollo</text>
<text text-anchor="start" x="1683" y="-85.5" font-family="Helvetica,sans-Serif" font-size="10.00"> eclipse/os1/Thirdparty</text>
<text text-anchor="middle" x="1757" y="-74.5" font-family="Helvetica,sans-Serif" font-size="10.00">/DBoW2/DBoW2/FeatureVector.h</text>
</g>
<!-- Node2&#45;&gt;Node15 -->
<g id="edge17" class="edge"><title>Node2&#45;&gt;Node15</title>
<path fill="none" stroke="midnightblue" d="M1334.62,-151.494C1392.71,-145.846 1535.36,-131.007 1664.65,-109.157"/>
<polygon fill="midnightblue" stroke="midnightblue" points="1665.46,-112.569 1674.73,-107.435 1664.28,-105.669 1665.46,-112.569"/>
</g>
<!-- Node16 -->
<g id="node17" class="node"><title>Node16</title>
<polygon fill="white" stroke="#bfbfbf" points="310,-67.5 310,-108.5 474,-108.5 474,-67.5 310,-67.5"/>
<text text-anchor="start" x="318" y="-96.5" font-family="Helvetica,sans-Serif" font-size="10.00">/home/alejandro/Desarrollo</text>
<text text-anchor="start" x="318" y="-85.5" font-family="Helvetica,sans-Serif" font-size="10.00"> eclipse/os1/Thirdparty</text>
<text text-anchor="middle" x="392" y="-74.5" font-family="Helvetica,sans-Serif" font-size="10.00">/DBoW2/DBoW2/ScoringObject.h</text>
</g>
<!-- Node2&#45;&gt;Node16 -->
<g id="edge18" class="edge"><title>Node2&#45;&gt;Node16</title>
<path fill="none" stroke="midnightblue" d="M1281.26,-148.194C1274.67,-146.952 1267.6,-145.781 1261,-145 920.521,-104.733 827.926,-153.372 484.211,-109.034"/>
<polygon fill="midnightblue" stroke="midnightblue" points="484.598,-105.554 474.229,-107.729 483.691,-112.495 484.598,-105.554"/>
</g>
<!-- Node17 -->
<g id="node18" class="node"><title>Node17</title>
<polygon fill="white" stroke="#bfbfbf" points="492.5,-67.5 492.5,-108.5 625.5,-108.5 625.5,-67.5 492.5,-67.5"/>
<text text-anchor="start" x="500.5" y="-96.5" font-family="Helvetica,sans-Serif" font-size="10.00">/home/alejandro/Desarrollo</text>
<text text-anchor="start" x="500.5" y="-85.5" font-family="Helvetica,sans-Serif" font-size="10.00"> eclipse/os1/Thirdparty</text>
<text text-anchor="middle" x="559" y="-74.5" font-family="Helvetica,sans-Serif" font-size="10.00">/DBoW2/DUtils/Random.h</text>
</g>
<!-- Node2&#45;&gt;Node17 -->
<g id="edge19" class="edge"><title>Node2&#45;&gt;Node17</title>
<path fill="none" stroke="midnightblue" d="M1281.25,-148.246C1274.66,-147.003 1267.6,-145.817 1261,-145 987.239,-111.08 911.377,-152.202 635.407,-109.056"/>
<polygon fill="midnightblue" stroke="midnightblue" points="635.93,-105.596 625.505,-107.486 634.833,-112.509 635.93,-105.596"/>
</g>
<!-- Node18 -->
<g id="node19" class="node"><title>Node18</title>
<polygon fill="white" stroke="#bfbfbf" points="643.5,-78.5 643.5,-97.5 688.5,-97.5 688.5,-78.5 643.5,-78.5"/>
<text text-anchor="middle" x="666" y="-85.5" font-family="Helvetica,sans-Serif" font-size="10.00">cstdlib</text>
</g>
<!-- Node2&#45;&gt;Node18 -->
<g id="edge20" class="edge"><title>Node2&#45;&gt;Node18</title>
<path fill="none" stroke="midnightblue" d="M1281.25,-148.276C1274.66,-147.032 1267.59,-145.838 1261,-145 1136.41,-129.159 816.278,-148.31 697,-109 692.942,-107.662 688.893,-105.664 685.125,-103.439"/>
<polygon fill="midnightblue" stroke="midnightblue" points="686.753,-100.319 676.489,-97.6923 682.875,-106.146 686.753,-100.319"/>
</g>
<!-- Node2&#45;&gt;Node19 -->
<g id="edge21" class="edge"><title>Node2&#45;&gt;Node19</title>
<path fill="none" stroke="midnightblue" d="M1334.68,-153.761C1413.75,-152.629 1653.49,-146.144 1848,-109 1852.75,-108.093 1857.64,-106.975 1862.51,-105.735"/>
<polygon fill="midnightblue" stroke="midnightblue" points="1863.7,-109.04 1872.43,-103.046 1861.87,-102.283 1863.7,-109.04"/>
</g>
<!-- Node2&#45;&gt;Node20 -->
<g id="edge22" class="edge"><title>Node2&#45;&gt;Node20</title>
<path fill="none" stroke="midnightblue" d="M1334.8,-154.158C1425.92,-154.284 1731.89,-151.31 1980,-109 1985.52,-108.06 1991.22,-106.868 1996.88,-105.538"/>
<polygon fill="midnightblue" stroke="midnightblue" points="1998.14,-108.831 2007,-103.016 1996.45,-102.039 1998.14,-108.831"/>
</g>
<!-- Node2&#45;&gt;Node21 -->
<g id="edge23" class="edge"><title>Node2&#45;&gt;Node21</title>
<path fill="none" stroke="midnightblue" d="M1281.26,-148.153C1274.67,-146.912 1267.6,-145.752 1261,-145 836.773,-96.7108 720.486,-188.575 301,-109 291.717,-107.239 281.908,-104.241 273.094,-101.094"/>
<polygon fill="midnightblue" stroke="midnightblue" points="274.237,-97.7841 263.645,-97.5355 271.77,-104.335 274.237,-97.7841"/>
</g>
<!-- Node24 -->
<g id="node25" class="node"><title>Node24</title>
<polygon fill="white" stroke="#bfbfbf" points="706.5,-78.5 706.5,-97.5 813.5,-97.5 813.5,-78.5 706.5,-78.5"/>
<text text-anchor="middle" x="760" y="-85.5" font-family="Helvetica,sans-Serif" font-size="10.00">opencv2/opencv.hpp</text>
</g>
<!-- Node2&#45;&gt;Node24 -->
<g id="edge26" class="edge"><title>Node2&#45;&gt;Node24</title>
<path fill="none" stroke="midnightblue" d="M1281.24,-148.361C1274.64,-147.114 1267.59,-145.899 1261,-145 1067.47,-118.595 1014.63,-146.79 823,-109 812.889,-107.006 802.119,-103.95 792.397,-100.822"/>
<polygon fill="midnightblue" stroke="midnightblue" points="793.31,-97.4369 782.716,-97.5783 791.086,-104.074 793.31,-97.4369"/>
</g>
<!-- Node22 -->
<g id="node23" class="node"><title>Node22</title>
<polygon fill="white" stroke="#bfbfbf" points="114.5,-0.5 114.5,-30.5 221.5,-30.5 221.5,-0.5 114.5,-0.5"/>
<text text-anchor="start" x="122.5" y="-18.5" font-family="Helvetica,sans-Serif" font-size="10.00">../Thirdparty/DBoW2</text>
<text text-anchor="middle" x="168" y="-7.5" font-family="Helvetica,sans-Serif" font-size="10.00">/DBoW2/FORB.h</text>
</g>
<!-- Node21&#45;&gt;Node22 -->
<g id="edge24" class="edge"><title>Node21&#45;&gt;Node22</title>
<path fill="none" stroke="midnightblue" d="M234.681,-78.3553C223.845,-68.3037 205.571,-51.3518 190.89,-37.7337"/>
<polygon fill="midnightblue" stroke="midnightblue" points="192.886,-34.811 183.174,-30.5762 188.125,-39.943 192.886,-34.811"/>
</g>
<!-- Node23 -->
<g id="node24" class="node"><title>Node23</title>
<polygon fill="white" stroke="#bfbfbf" points="240,-0.5 240,-30.5 400,-30.5 400,-0.5 240,-0.5"/>
<text text-anchor="start" x="248" y="-18.5" font-family="Helvetica,sans-Serif" font-size="10.00">../Thirdparty/DBoW2</text>
<text text-anchor="middle" x="320" y="-7.5" font-family="Helvetica,sans-Serif" font-size="10.00">/DBoW2/TemplatedVocabulary.h</text>
</g>
<!-- Node21&#45;&gt;Node23 -->
<g id="edge25" class="edge"><title>Node21&#45;&gt;Node23</title>
<path fill="none" stroke="midnightblue" d="M253.319,-78.3553C264.155,-68.3037 282.429,-51.3518 297.11,-37.7337"/>
<polygon fill="midnightblue" stroke="midnightblue" points="299.875,-39.943 304.826,-30.5762 295.114,-34.811 299.875,-39.943"/>
</g>
<!-- Node25&#45;&gt;Node21 -->
<g id="edge28" class="edge"><title>Node25&#45;&gt;Node21</title>
<path fill="none" stroke="midnightblue" d="M2126.88,-153.659C1924.24,-150.513 395.313,-126.25 301,-109 291.706,-107.3 281.894,-104.32 273.079,-101.17"/>
<polygon fill="midnightblue" stroke="midnightblue" points="274.224,-97.8615 263.632,-97.6025 271.751,-104.41 274.224,-97.8615"/>
</g>
<!-- Node26 -->
<g id="node27" class="node"><title>Node26</title>
<polygon fill="white" stroke="#bfbfbf" points="2134,-78.5 2134,-97.5 2164,-97.5 2164,-78.5 2134,-78.5"/>
<text text-anchor="middle" x="2149" y="-85.5" font-family="Helvetica,sans-Serif" font-size="10.00">set</text>
</g>
<!-- Node25&#45;&gt;Node26 -->
<g id="edge29" class="edge"><title>Node25&#45;&gt;Node26</title>
<path fill="none" stroke="midnightblue" d="M2149,-145.234C2149,-135.683 2149,-120.118 2149,-107.783"/>
<polygon fill="midnightblue" stroke="midnightblue" points="2152.5,-107.627 2149,-97.6273 2145.5,-107.627 2152.5,-107.627"/>
</g>
<!-- Node25&#45;&gt;Node27 -->
<g id="edge30" class="edge"><title>Node25&#45;&gt;Node27</title>
<path fill="none" stroke="midnightblue" d="M2156.42,-145.234C2164.99,-135.098 2179.3,-118.19 2189.99,-105.556"/>
<polygon fill="midnightblue" stroke="midnightblue" points="2192.91,-107.522 2196.7,-97.6273 2187.57,-103 2192.91,-107.522"/>
</g>
<!-- Node25&#45;&gt;Node28 -->
<g id="edge31" class="edge"><title>Node25&#45;&gt;Node28</title>
<path fill="none" stroke="midnightblue" d="M2171.18,-148.763C2203.79,-140.918 2266.51,-125.287 2319,-109 2321.73,-108.154 2324.52,-107.257 2327.33,-106.33"/>
<polygon fill="midnightblue" stroke="midnightblue" points="2328.54,-109.617 2336.89,-103.096 2326.29,-102.986 2328.54,-109.617"/>
</g>
<!-- Node25&#45;&gt;Node29 -->
<g id="edge32" class="edge"><title>Node25&#45;&gt;Node29</title>
<path fill="none" stroke="midnightblue" d="M2166,-145.369C2187.71,-134.345 2225.49,-115.155 2250.87,-102.268"/>
<polygon fill="midnightblue" stroke="midnightblue" points="2252.6,-105.316 2259.93,-97.6672 2249.43,-99.0743 2252.6,-105.316"/>
</g>
<!-- Node30&#45;&gt;Node3 -->
<g id="edge41" class="edge"><title>Node30&#45;&gt;Node3</title>
<path fill="none" stroke="midnightblue" d="M941.248,-207.979C781.554,-200.029 220.612,-168.388 53,-109 48.9721,-107.573 44.9382,-105.531 41.1748,-103.292"/>
<polygon fill="midnightblue" stroke="midnightblue" points="42.8024,-100.172 32.5351,-97.5576 38.9313,-106.004 42.8024,-100.172"/>
</g>
<!-- Node30&#45;&gt;Node7 -->
<g id="edge43" class="edge"><title>Node30&#45;&gt;Node7</title>
<path fill="none" stroke="midnightblue" d="M955.652,-201.47C906.952,-187.196 804.039,-158.692 715,-145 482.521,-109.25 418.45,-150.897 187,-109 175.956,-107.001 164.151,-103.837 153.574,-100.611"/>
<polygon fill="midnightblue" stroke="midnightblue" points="154.466,-97.2217 143.875,-97.5343 152.349,-103.894 154.466,-97.2217"/>
</g>
<!-- Node31 -->
<g id="node32" class="node"><title>Node31</title>
<polygon fill="white" stroke="#bfbfbf" points="1035.5,-145.5 1035.5,-164.5 1064.5,-164.5 1064.5,-145.5 1035.5,-145.5"/>
<text text-anchor="middle" x="1050" y="-152.5" font-family="Helvetica,sans-Serif" font-size="10.00">list</text>
</g>
<!-- Node30&#45;&gt;Node31 -->
<g id="edge42" class="edge"><title>Node30&#45;&gt;Node31</title>
<path fill="none" stroke="midnightblue" d="M994.604,-201.324C1004.46,-193.263 1019.35,-181.077 1031.22,-171.369"/>
<polygon fill="midnightblue" stroke="midnightblue" points="1033.68,-173.875 1039.2,-164.834 1029.25,-168.457 1033.68,-173.875"/>
</g>
<!-- Node32&#45;&gt;Node0 -->
<g id="edge49" class="edge"><title>Node32&#45;&gt;Node0</title>
<path fill="none" stroke="midnightblue" d="M1471.19,-217.966C1560.72,-227.916 1736.32,-248.044 1843.34,-260.585"/>
<polygon fill="midnightblue" stroke="midnightblue" points="1843.14,-264.085 1853.48,-261.775 1843.96,-257.133 1843.14,-264.085"/>
</g>
<!-- Node32&#45;&gt;Node2 -->
<g id="edge50" class="edge"><title>Node32&#45;&gt;Node2</title>
<path fill="none" stroke="midnightblue" d="M1397.81,-201.324C1380.65,-192.664 1354.05,-179.242 1334.25,-169.249"/>
<polygon fill="midnightblue" stroke="midnightblue" points="1335.65,-166.035 1325.15,-164.655 1332.5,-172.285 1335.65,-166.035"/>
</g>
<!-- Node32&#45;&gt;Node3 -->
<g id="edge46" class="edge"><title>Node32&#45;&gt;Node3</title>
<path fill="none" stroke="midnightblue" d="M1371.23,-201.498C1282.34,-184.255 1087.79,-146.657 1073,-145 847.602,-119.752 269.4,-176.919 53,-109 48.7376,-107.662 44.4967,-105.569 40.5818,-103.231"/>
<polygon fill="midnightblue" stroke="midnightblue" points="42.4315,-100.257 32.1824,-97.5717 38.5202,-106.062 42.4315,-100.257"/>
</g>
<!-- Node32&#45;&gt;Node21 -->
<g id="edge51" class="edge"><title>Node32&#45;&gt;Node21</title>
<path fill="none" stroke="midnightblue" d="M1388.09,-201.448C1340.87,-186.872 1239.76,-157.572 1152,-145 777.265,-91.3179 672.758,-180.445 301,-109 291.721,-107.217 281.914,-104.212 273.099,-101.065"/>
<polygon fill="midnightblue" stroke="midnightblue" points="274.242,-97.7559 263.65,-97.511 271.777,-104.308 274.242,-97.7559"/>
</g>
<!-- Node32&#45;&gt;Node26 -->
<g id="edge48" class="edge"><title>Node32&#45;&gt;Node26</title>
<path fill="none" stroke="midnightblue" d="M1471.19,-205.985C1617.59,-194.899 2007.52,-161.186 2125,-109 2127.79,-107.761 2130.51,-106.102 2133.06,-104.265"/>
<polygon fill="midnightblue" stroke="midnightblue" points="2135.49,-106.799 2140.91,-97.6992 2131,-101.429 2135.49,-106.799"/>
</g>
<!-- Node32&#45;&gt;Node27 -->
<g id="edge52" class="edge"><title>Node32&#45;&gt;Node27</title>
<path fill="none" stroke="midnightblue" d="M1471.06,-207.902C1567.16,-203.698 1769.3,-192.204 1938,-165 2044,-147.907 2074.25,-151.152 2173,-109 2176.8,-107.377 2180.66,-105.302 2184.3,-103.105"/>
<polygon fill="midnightblue" stroke="midnightblue" points="2186.29,-105.983 2192.75,-97.5829 2182.46,-100.123 2186.29,-105.983"/>
</g>
<!-- Node32&#45;&gt;Node31 -->
<g id="edge47" class="edge"><title>Node32&#45;&gt;Node31</title>
<path fill="none" stroke="midnightblue" d="M1358.77,-201.681C1277.99,-189.73 1132.47,-168.2 1074.65,-159.647"/>
<polygon fill="midnightblue" stroke="midnightblue" points="1075.01,-156.162 1064.61,-158.161 1073.99,-163.087 1075.01,-156.162"/>
</g>
</g>
</svg>
