<?xml version="1.0" encoding="UTF-8" standalone="no"?>
<!DOCTYPE svg PUBLIC "-//W3C//DTD SVG 1.1//EN"
 "http://www.w3.org/Graphics/SVG/1.1/DTD/svg11.dtd">
<!-- Generated by graphviz version 2.38.0 (20140413.2041)
 -->
<!-- Title: /home/alejandro/Desarrollo eclipse/os1/src/KeyFrameTriangulacion.cc Pages: 1 -->
<svg width="1434pt" height="587pt"
 viewBox="0.00 0.00 1434.00 587.00" xmlns="http://www.w3.org/2000/svg" xmlns:xlink="http://www.w3.org/1999/xlink">
<g id="graph0" class="graph" transform="scale(1 1) rotate(0) translate(4 583)">
<title>/home/alejandro/Desarrollo eclipse/os1/src/KeyFrameTriangulacion.cc</title>
<polygon fill="white" stroke="none" points="-4,4 -4,-583 1430,-583 1430,4 -4,4"/>
<!-- Node0 -->
<g id="node1" class="node"><title>Node0</title>
<polygon fill="#bfbfbf" stroke="black" points="216.5,-548.5 216.5,-578.5 421.5,-578.5 421.5,-548.5 216.5,-548.5"/>
<text text-anchor="start" x="224.5" y="-566.5" font-family="Helvetica,sans-Serif" font-size="10.00">/home/alejandro/Desarrollo</text>
<text text-anchor="middle" x="319" y="-555.5" font-family="Helvetica,sans-Serif" font-size="10.00"> eclipse/os1/src/KeyFrameTriangulacion.cc</text>
</g>
<!-- Node1 -->
<g id="node2" class="node"><title>Node1</title>
<g id="a_node2"><a xlink:href="_key_frame_8h.html" target="_top" xlink:title="KeyFrame.h">
<polygon fill="white" stroke="black" points="284,-436.5 284,-455.5 354,-455.5 354,-436.5 284,-436.5"/>
<text text-anchor="middle" x="319" y="-443.5" font-family="Helvetica,sans-Serif" font-size="10.00">KeyFrame.h</text>
</a>
</g>
</g>
<!-- Node0&#45;&gt;Node1 -->
<g id="edge1" class="edge"><title>Node0&#45;&gt;Node1</title>
<path fill="none" stroke="midnightblue" d="M307.912,-548.455C298.2,-534.415 286.437,-512.083 292,-492 294.792,-481.921 300.509,-471.832 305.967,-463.769"/>
<polygon fill="midnightblue" stroke="midnightblue" points="308.825,-465.79 311.849,-455.636 303.153,-461.688 308.825,-465.79"/>
</g>
<!-- Node32 -->
<g id="node33" class="node"><title>Node32</title>
<g id="a_node33"><a xlink:href="_key_frame_triangulacion_8h.html" target="_top" xlink:title="KeyFrameTriangulacion.h">
<polygon fill="white" stroke="black" points="301,-492.5 301,-511.5 429,-511.5 429,-492.5 301,-492.5"/>
<text text-anchor="middle" x="365" y="-499.5" font-family="Helvetica,sans-Serif" font-size="10.00">KeyFrameTriangulacion.h</text>
</a>
</g>
</g>
<!-- Node0&#45;&gt;Node32 -->
<g id="edge71" class="edge"><title>Node0&#45;&gt;Node32</title>
<path fill="none" stroke="midnightblue" d="M329.901,-548.399C336.586,-539.753 345.176,-528.642 352.185,-519.576"/>
<polygon fill="midnightblue" stroke="midnightblue" points="354.959,-521.71 358.307,-511.658 349.421,-517.428 354.959,-521.71"/>
</g>
<!-- Node2 -->
<g id="node3" class="node"><title>Node2</title>
<g id="a_node3"><a xlink:href="_map_point_8h.html" target="_top" xlink:title="MapPoint.h">
<polygon fill="white" stroke="black" points="256,-380.5 256,-399.5 322,-399.5 322,-380.5 256,-380.5"/>
<text text-anchor="middle" x="289" y="-387.5" font-family="Helvetica,sans-Serif" font-size="10.00">MapPoint.h</text>
</a>
</g>
</g>
<!-- Node1&#45;&gt;Node2 -->
<g id="edge2" class="edge"><title>Node1&#45;&gt;Node2</title>
<path fill="none" stroke="midnightblue" d="M308.88,-436.083C303.274,-428.77 296.976,-418.181 292.644,-409.103"/>
<polygon fill="midnightblue" stroke="midnightblue" points="295.82,-407.625 288.731,-399.751 289.362,-410.327 295.82,-407.625"/>
</g>
<!-- Node3 -->
<g id="node4" class="node"><title>Node3</title>
<g id="a_node4"><a xlink:href="_frame_8h.html" target="_top" xlink:title="Frame.h">
<polygon fill="white" stroke="black" points="454.5,-324.5 454.5,-343.5 507.5,-343.5 507.5,-324.5 454.5,-324.5"/>
<text text-anchor="middle" x="481" y="-331.5" font-family="Helvetica,sans-Serif" font-size="10.00">Frame.h</text>
</a>
</g>
</g>
<!-- Node1&#45;&gt;Node3 -->
<g id="edge59" class="edge"><title>Node1&#45;&gt;Node3</title>
<path fill="none" stroke="midnightblue" d="M330.953,-436.462C348.575,-423.917 382.615,-399.843 412,-380 427.6,-369.465 445.4,-357.867 459.012,-349.084"/>
<polygon fill="midnightblue" stroke="midnightblue" points="461.173,-351.856 467.689,-343.501 457.386,-345.969 461.173,-351.856"/>
</g>
<!-- Node5 -->
<g id="node6" class="node"><title>Node5</title>
<g id="a_node6"><a xlink:href="_bow_vector_8h.html" target="_top" xlink:title="../Thirdparty/DBoW2\l/DBoW2/BowVector.h">
<polygon fill="white" stroke="black" points="294.5,-56.5 294.5,-86.5 407.5,-86.5 407.5,-56.5 294.5,-56.5"/>
<text text-anchor="start" x="302.5" y="-74.5" font-family="Helvetica,sans-Serif" font-size="10.00">../Thirdparty/DBoW2</text>
<text text-anchor="middle" x="351" y="-63.5" font-family="Helvetica,sans-Serif" font-size="10.00">/DBoW2/BowVector.h</text>
</a>
</g>
</g>
<!-- Node1&#45;&gt;Node5 -->
<g id="edge52" class="edge"><title>Node1&#45;&gt;Node5</title>
<path fill="none" stroke="midnightblue" d="M322.088,-436.173C325.052,-427.198 329.319,-412.827 331,-400 335.389,-366.509 337.624,-357.122 331,-324 327.601,-307.003 319.399,-304.997 316,-288 313.298,-274.49 314.71,-270.717 316,-257 321.476,-198.756 336.471,-131.517 344.95,-96.5077"/>
<polygon fill="midnightblue" stroke="midnightblue" points="348.367,-97.2695 347.355,-86.7232 341.569,-95.5989 348.367,-97.2695"/>
</g>
<!-- Node8 -->
<g id="node9" class="node"><title>Node8</title>
<g id="a_node9"><a xlink:href="_feature_vector_8h.html" target="_top" xlink:title="../Thirdparty/DBoW2\l/DBoW2/FeatureVector.h">
<polygon fill="white" stroke="black" points="141.5,-123.5 141.5,-153.5 268.5,-153.5 268.5,-123.5 141.5,-123.5"/>
<text text-anchor="start" x="149.5" y="-141.5" font-family="Helvetica,sans-Serif" font-size="10.00">../Thirdparty/DBoW2</text>
<text text-anchor="middle" x="205" y="-130.5" font-family="Helvetica,sans-Serif" font-size="10.00">/DBoW2/FeatureVector.h</text>
</a>
</g>
</g>
<!-- Node1&#45;&gt;Node8 -->
<g id="edge53" class="edge"><title>Node1&#45;&gt;Node8</title>
<path fill="none" stroke="midnightblue" d="M283.949,-440.497C201.081,-428.873 0,-394.534 0,-335 0,-335 0,-335 0,-271.5 0,-206.942 72.7561,-172.456 131.581,-155.124"/>
<polygon fill="midnightblue" stroke="midnightblue" points="132.59,-158.476 141.26,-152.386 130.685,-151.74 132.59,-158.476"/>
</g>
<!-- Node9 -->
<g id="node10" class="node"><title>Node9</title>
<g id="a_node10"><a xlink:href="_o_r_b_vocabulary_8h.html" target="_top" xlink:title="ORBVocabulary.h">
<polygon fill="white" stroke="black" points="662.5,-263 662.5,-282 757.5,-282 757.5,-263 662.5,-263"/>
<text text-anchor="middle" x="710" y="-270" font-family="Helvetica,sans-Serif" font-size="10.00">ORBVocabulary.h</text>
</a>
</g>
</g>
<!-- Node1&#45;&gt;Node9 -->
<g id="edge54" class="edge"><title>Node1&#45;&gt;Node9</title>
<path fill="none" stroke="midnightblue" d="M354.077,-442.742C399.284,-438.77 479.494,-428.083 542,-400 604.745,-371.81 666.128,-316.598 694.17,-289.406"/>
<polygon fill="midnightblue" stroke="midnightblue" points="696.794,-291.733 701.468,-282.225 691.885,-286.743 696.794,-291.733"/>
</g>
<!-- Node26 -->
<g id="node27" class="node"><title>Node26</title>
<polygon fill="white" stroke="#bfbfbf" points="225,-263 225,-282 269,-282 269,-263 225,-263"/>
<text text-anchor="middle" x="247" y="-270" font-family="Helvetica,sans-Serif" font-size="10.00">mutex</text>
</g>
<!-- Node1&#45;&gt;Node26 -->
<g id="edge69" class="edge"><title>Node1&#45;&gt;Node26</title>
<path fill="none" stroke="midnightblue" d="M293.496,-436.472C277.013,-429.478 256.861,-417.792 247,-400 228.081,-365.865 235.427,-318.166 241.691,-292.182"/>
<polygon fill="midnightblue" stroke="midnightblue" points="245.161,-292.748 244.312,-282.187 238.39,-290.972 245.161,-292.748"/>
</g>
<!-- Node27 -->
<g id="node28" class="node"><title>Node27</title>
<polygon fill="white" stroke="#bfbfbf" points="28.5,-257.5 28.5,-287.5 123.5,-287.5 123.5,-257.5 28.5,-257.5"/>
<text text-anchor="start" x="36.5" y="-275.5" font-family="Helvetica,sans-Serif" font-size="10.00">boost/serialization</text>
<text text-anchor="middle" x="76" y="-264.5" font-family="Helvetica,sans-Serif" font-size="10.00">/access.hpp</text>
</g>
<!-- Node1&#45;&gt;Node27 -->
<g id="edge70" class="edge"><title>Node1&#45;&gt;Node27</title>
<path fill="none" stroke="midnightblue" d="M293.564,-436.344C272.217,-428.492 241.39,-415.749 217,-400 169.224,-369.149 121.654,-322.255 95.8129,-295.07"/>
<polygon fill="midnightblue" stroke="midnightblue" points="98.2166,-292.517 88.8162,-287.63 93.1172,-297.313 98.2166,-292.517"/>
</g>
<!-- Node28 -->
<g id="node29" class="node"><title>Node28</title>
<g id="a_node29"><a xlink:href="_serializer_8h.html" target="_top" xlink:title="Serializer.h">
<polygon fill="white" stroke="black" points="141.5,-263 141.5,-282 206.5,-282 206.5,-263 141.5,-263"/>
<text text-anchor="middle" x="174" y="-270" font-family="Helvetica,sans-Serif" font-size="10.00">Serializer.h</text>
</a>
</g>
</g>
<!-- Node1&#45;&gt;Node28 -->
<g id="edge68" class="edge"><title>Node1&#45;&gt;Node28</title>
<path fill="none" stroke="midnightblue" d="M294.626,-436.476C276.562,-429.139 252.344,-417.03 236,-400 205.622,-368.348 187.376,-318.946 179.174,-292.208"/>
<polygon fill="midnightblue" stroke="midnightblue" points="182.43,-290.873 176.268,-282.254 175.711,-292.834 182.43,-290.873"/>
</g>
<!-- Node29 -->
<g id="node30" class="node"><title>Node29</title>
<g id="a_node30"><a xlink:href="_o_r_bextractor_8h.html" target="_top" xlink:title="ORBextractor.h">
<polygon fill="white" stroke="black" points="1299.5,-380.5 1299.5,-399.5 1384.5,-399.5 1384.5,-380.5 1299.5,-380.5"/>
<text text-anchor="middle" x="1342" y="-387.5" font-family="Helvetica,sans-Serif" font-size="10.00">ORBextractor.h</text>
</a>
</g>
</g>
<!-- Node1&#45;&gt;Node29 -->
<g id="edge55" class="edge"><title>Node1&#45;&gt;Node29</title>
<path fill="none" stroke="midnightblue" d="M354.351,-444.524C480.227,-442.58 918.3,-433.657 1278,-400 1281.68,-399.656 1285.47,-399.251 1289.29,-398.807"/>
<polygon fill="midnightblue" stroke="midnightblue" points="1289.88,-402.26 1299.38,-397.555 1289.02,-395.313 1289.88,-402.26"/>
</g>
<!-- Node31 -->
<g id="node32" class="node"><title>Node31</title>
<g id="a_node32"><a xlink:href="_key_frame_database_8h.html" target="_top" xlink:title="KeyFrameDatabase.h">
<polygon fill="white" stroke="black" points="421,-380.5 421,-399.5 533,-399.5 533,-380.5 421,-380.5"/>
<text text-anchor="middle" x="477" y="-387.5" font-family="Helvetica,sans-Serif" font-size="10.00">KeyFrameDatabase.h</text>
</a>
</g>
</g>
<!-- Node1&#45;&gt;Node31 -->
<g id="edge60" class="edge"><title>Node1&#45;&gt;Node31</title>
<path fill="none" stroke="midnightblue" d="M338.947,-436.444C363.641,-427.32 405.893,-412.813 437.242,-402.651"/>
<polygon fill="midnightblue" stroke="midnightblue" points="438.551,-405.907 447.002,-399.516 436.41,-399.242 438.551,-405.907"/>
</g>
<!-- Node2&#45;&gt;Node1 -->
<g id="edge3" class="edge"><title>Node2&#45;&gt;Node1</title>
<path fill="none" stroke="midnightblue" d="M298.993,-399.751C304.588,-407.014 310.895,-417.589 315.257,-426.69"/>
<polygon fill="midnightblue" stroke="midnightblue" points="312.106,-428.225 319.212,-436.083 318.557,-425.508 312.106,-428.225"/>
</g>
<!-- Node2&#45;&gt;Node3 -->
<g id="edge4" class="edge"><title>Node2&#45;&gt;Node3</title>
<path fill="none" stroke="midnightblue" d="M314.334,-380.444C347.76,-370.425 406.442,-353.915 444.59,-343.795"/>
<polygon fill="midnightblue" stroke="midnightblue" points="445.511,-347.172 454.292,-341.244 443.731,-340.402 445.511,-347.172"/>
</g>
<!-- Node11 -->
<g id="node12" class="node"><title>Node11</title>
<polygon fill="white" stroke="#bfbfbf" points="1168,-62 1168,-81 1284,-81 1284,-62 1168,-62"/>
<text text-anchor="middle" x="1226" y="-69" font-family="Helvetica,sans-Serif" font-size="10.00">opencv2/core/core.hpp</text>
</g>
<!-- Node2&#45;&gt;Node11 -->
<g id="edge49" class="edge"><title>Node2&#45;&gt;Node11</title>
<path fill="none" stroke="midnightblue" d="M322.177,-384.855C478.255,-365.1 1134.8,-279.057 1205,-221 1243.05,-189.531 1236.25,-123.194 1230.17,-90.9179"/>
<polygon fill="midnightblue" stroke="midnightblue" points="1233.58,-90.1172 1228.12,-81.0348 1226.72,-91.5368 1233.58,-90.1172"/>
</g>
<!-- Node24 -->
<g id="node25" class="node"><title>Node24</title>
<g id="a_node25"><a xlink:href="_map_8h.html" target="_top" xlink:title="Map.h">
<polygon fill="white" stroke="black" points="278,-324.5 278,-343.5 322,-343.5 322,-324.5 278,-324.5"/>
<text text-anchor="middle" x="300" y="-331.5" font-family="Helvetica,sans-Serif" font-size="10.00">Map.h</text>
</a>
</g>
</g>
<!-- Node2&#45;&gt;Node24 -->
<g id="edge42" class="edge"><title>Node2&#45;&gt;Node24</title>
<path fill="none" stroke="midnightblue" d="M290.816,-380.083C292.274,-372.927 294.371,-362.635 296.193,-353.691"/>
<polygon fill="midnightblue" stroke="midnightblue" points="299.651,-354.248 298.217,-343.751 292.792,-352.851 299.651,-354.248"/>
</g>
<!-- Node2&#45;&gt;Node26 -->
<g id="edge50" class="edge"><title>Node2&#45;&gt;Node26</title>
<path fill="none" stroke="midnightblue" d="M284.866,-380.496C280.595,-371.538 273.884,-356.96 269,-344 262.443,-326.599 256.255,-306.287 252.121,-291.947"/>
<polygon fill="midnightblue" stroke="midnightblue" points="255.48,-290.962 249.389,-282.293 248.745,-292.868 255.48,-290.962"/>
</g>
<!-- Node2&#45;&gt;Node27 -->
<g id="edge51" class="edge"><title>Node2&#45;&gt;Node27</title>
<path fill="none" stroke="midnightblue" d="M272.99,-380.319C238.705,-361.727 157.511,-317.699 110.767,-292.353"/>
<polygon fill="midnightblue" stroke="midnightblue" points="112.361,-289.235 101.902,-287.545 109.024,-295.389 112.361,-289.235"/>
</g>
<!-- Node2&#45;&gt;Node28 -->
<g id="edge48" class="edge"><title>Node2&#45;&gt;Node28</title>
<path fill="none" stroke="midnightblue" d="M280.356,-380.319C261.125,-361.004 214.56,-314.237 189.914,-289.483"/>
<polygon fill="midnightblue" stroke="midnightblue" points="192.28,-286.899 182.744,-282.282 187.319,-291.838 192.28,-286.899"/>
</g>
<!-- Node3&#45;&gt;Node2 -->
<g id="edge6" class="edge"><title>Node3&#45;&gt;Node2</title>
<path fill="none" stroke="midnightblue" d="M455.734,-343.536C424.211,-352.986 370.151,-368.228 332.081,-378.427"/>
<polygon fill="midnightblue" stroke="midnightblue" points="331.05,-375.079 322.286,-381.032 332.849,-381.844 331.05,-375.079"/>
</g>
<!-- Node4 -->
<g id="node5" class="node"><title>Node4</title>
<polygon fill="white" stroke="#bfbfbf" points="851,-0.5 851,-19.5 895,-19.5 895,-0.5 851,-0.5"/>
<text text-anchor="middle" x="873" y="-7.5" font-family="Helvetica,sans-Serif" font-size="10.00">vector</text>
</g>
<!-- Node3&#45;&gt;Node4 -->
<g id="edge5" class="edge"><title>Node3&#45;&gt;Node4</title>
<path fill="none" stroke="midnightblue" d="M507.732,-326.564C527.365,-320.285 552.677,-308.582 565,-288 603.331,-223.981 519.328,-196.16 534,-123 540.346,-91.3566 536.491,-75.7701 562,-56 605.066,-22.6229 770.265,-13.9352 840.787,-11.7287"/>
<polygon fill="midnightblue" stroke="midnightblue" points="840.975,-15.2249 850.87,-11.4377 840.773,-8.22777 840.975,-15.2249"/>
</g>
<!-- Node3&#45;&gt;Node5 -->
<g id="edge7" class="edge"><title>Node3&#45;&gt;Node5</title>
<path fill="none" stroke="midnightblue" d="M471.779,-324.457C446.728,-300.529 377.701,-229.629 354,-154 348.22,-135.558 347.751,-113.611 348.573,-97.1411"/>
<polygon fill="midnightblue" stroke="midnightblue" points="352.095,-96.9428 349.298,-86.7238 345.112,-96.4565 352.095,-96.9428"/>
</g>
<!-- Node3&#45;&gt;Node8 -->
<g id="edge11" class="edge"><title>Node3&#45;&gt;Node8</title>
<path fill="none" stroke="midnightblue" d="M466.019,-324.41C450.898,-315.619 426.989,-301.388 407,-288 398.179,-282.092 285.438,-198.908 232.328,-159.688"/>
<polygon fill="midnightblue" stroke="midnightblue" points="234.165,-156.693 224.041,-153.568 230.006,-162.324 234.165,-156.693"/>
</g>
<!-- Node3&#45;&gt;Node9 -->
<g id="edge16" class="edge"><title>Node3&#45;&gt;Node9</title>
<path fill="none" stroke="midnightblue" d="M507.717,-326.058C546.958,-315.862 620.577,-296.734 667.351,-284.581"/>
<polygon fill="midnightblue" stroke="midnightblue" points="668.39,-287.927 677.189,-282.025 666.63,-281.152 668.39,-287.927"/>
</g>
<!-- Node23 -->
<g id="node24" class="node"><title>Node23</title>
<polygon fill="white" stroke="#bfbfbf" points="449.5,-263 449.5,-282 556.5,-282 556.5,-263 449.5,-263"/>
<text text-anchor="middle" x="503" y="-270" font-family="Helvetica,sans-Serif" font-size="10.00">opencv2/opencv.hpp</text>
</g>
<!-- Node3&#45;&gt;Node23 -->
<g id="edge41" class="edge"><title>Node3&#45;&gt;Node23</title>
<path fill="none" stroke="midnightblue" d="M484.152,-324.475C487.321,-315.904 492.304,-302.427 496.351,-291.483"/>
<polygon fill="midnightblue" stroke="midnightblue" points="499.668,-292.602 499.854,-282.009 493.103,-290.175 499.668,-292.602"/>
</g>
<!-- Node5&#45;&gt;Node4 -->
<g id="edge10" class="edge"><title>Node5&#45;&gt;Node4</title>
<path fill="none" stroke="midnightblue" d="M407.663,-62.9467C425.375,-60.6441 444.992,-58.1537 463,-56 603.381,-39.2107 771.1,-21.552 840.488,-14.3515"/>
<polygon fill="midnightblue" stroke="midnightblue" points="841.175,-17.7991 850.761,-13.2873 840.454,-10.8364 841.175,-17.7991"/>
</g>
<!-- Node6 -->
<g id="node7" class="node"><title>Node6</title>
<polygon fill="white" stroke="#bfbfbf" points="188,-0.5 188,-19.5 242,-19.5 242,-0.5 188,-0.5"/>
<text text-anchor="middle" x="215" y="-7.5" font-family="Helvetica,sans-Serif" font-size="10.00">iostream</text>
</g>
<!-- Node5&#45;&gt;Node6 -->
<g id="edge8" class="edge"><title>Node5&#45;&gt;Node6</title>
<path fill="none" stroke="midnightblue" d="M318.77,-56.3993C296.155,-46.5054 266.162,-33.3832 244.239,-23.7919"/>
<polygon fill="midnightblue" stroke="midnightblue" points="245.354,-20.4595 234.789,-19.6578 242.548,-26.8726 245.354,-20.4595"/>
</g>
<!-- Node7 -->
<g id="node8" class="node"><title>Node7</title>
<polygon fill="white" stroke="#bfbfbf" points="309.5,-0.5 309.5,-19.5 344.5,-19.5 344.5,-0.5 309.5,-0.5"/>
<text text-anchor="middle" x="327" y="-7.5" font-family="Helvetica,sans-Serif" font-size="10.00">map</text>
</g>
<!-- Node5&#45;&gt;Node7 -->
<g id="edge9" class="edge"><title>Node5&#45;&gt;Node7</title>
<path fill="none" stroke="midnightblue" d="M345.312,-56.3993C342.005,-48.1989 337.802,-37.7809 334.258,-28.9936"/>
<polygon fill="midnightblue" stroke="midnightblue" points="337.479,-27.6225 330.492,-19.6578 330.987,-30.2411 337.479,-27.6225"/>
</g>
<!-- Node8&#45;&gt;Node4 -->
<g id="edge14" class="edge"><title>Node8&#45;&gt;Node4</title>
<path fill="none" stroke="midnightblue" d="M218.387,-123.356C240.048,-100.541 280.798,-57.9553 285,-56 384.838,-9.54184 732.064,-9.38628 840.433,-10.5217"/>
<polygon fill="midnightblue" stroke="midnightblue" points="840.693,-14.0249 850.733,-10.6414 840.775,-7.02536 840.693,-14.0249"/>
</g>
<!-- Node8&#45;&gt;Node5 -->
<g id="edge12" class="edge"><title>Node8&#45;&gt;Node5</title>
<path fill="none" stroke="midnightblue" d="M236.68,-123.396C258.203,-113.814 286.873,-101.05 310.116,-90.7016"/>
<polygon fill="midnightblue" stroke="midnightblue" points="311.67,-93.8412 319.382,-86.5765 308.823,-87.4463 311.67,-93.8412"/>
</g>
<!-- Node8&#45;&gt;Node6 -->
<g id="edge15" class="edge"><title>Node8&#45;&gt;Node6</title>
<path fill="none" stroke="midnightblue" d="M206.108,-123.479C207.908,-100.719 211.466,-55.7023 213.493,-30.0582"/>
<polygon fill="midnightblue" stroke="midnightblue" points="217.006,-30.0333 214.305,-19.7885 210.028,-29.4816 217.006,-30.0333"/>
</g>
<!-- Node8&#45;&gt;Node7 -->
<g id="edge13" class="edge"><title>Node8&#45;&gt;Node7</title>
<path fill="none" stroke="midnightblue" d="M210.499,-123.406C217.86,-105.939 232.308,-76.0365 252,-56 265.751,-42.0092 284.723,-30.6793 300.144,-22.8876"/>
<polygon fill="midnightblue" stroke="midnightblue" points="301.732,-26.0075 309.209,-18.5012 298.683,-19.7064 301.732,-26.0075"/>
</g>
<!-- Node10 -->
<g id="node11" class="node"><title>Node10</title>
<g id="a_node11"><a xlink:href="_f_o_r_b_8h.html" target="_top" xlink:title="../Thirdparty/DBoW2\l/DBoW2/FORB.h">
<polygon fill="white" stroke="black" points="1088.5,-190.5 1088.5,-220.5 1195.5,-220.5 1195.5,-190.5 1088.5,-190.5"/>
<text text-anchor="start" x="1096.5" y="-208.5" font-family="Helvetica,sans-Serif" font-size="10.00">../Thirdparty/DBoW2</text>
<text text-anchor="middle" x="1142" y="-197.5" font-family="Helvetica,sans-Serif" font-size="10.00">/DBoW2/FORB.h</text>
</a>
</g>
</g>
<!-- Node9&#45;&gt;Node10 -->
<g id="edge17" class="edge"><title>Node9&#45;&gt;Node10</title>
<path fill="none" stroke="midnightblue" d="M757.882,-264.296C835.963,-252.547 990.745,-229.258 1078.11,-216.113"/>
<polygon fill="midnightblue" stroke="midnightblue" points="1078.79,-219.55 1088.16,-214.601 1077.75,-212.628 1078.79,-219.55"/>
</g>
<!-- Node14 -->
<g id="node15" class="node"><title>Node14</title>
<g id="a_node15"><a xlink:href="_templated_vocabulary_8h.html" target="_top" xlink:title="../Thirdparty/DBoW2\l/DBoW2/TemplatedVocabulary.h">
<polygon fill="white" stroke="black" points="679,-190.5 679,-220.5 839,-220.5 839,-190.5 679,-190.5"/>
<text text-anchor="start" x="687" y="-208.5" font-family="Helvetica,sans-Serif" font-size="10.00">../Thirdparty/DBoW2</text>
<text text-anchor="middle" x="759" y="-197.5" font-family="Helvetica,sans-Serif" font-size="10.00">/DBoW2/TemplatedVocabulary.h</text>
</a>
</g>
</g>
<!-- Node9&#45;&gt;Node14 -->
<g id="edge25" class="edge"><title>Node9&#45;&gt;Node14</title>
<path fill="none" stroke="midnightblue" d="M716.608,-262.734C723.167,-254.034 733.486,-240.345 742.301,-228.651"/>
<polygon fill="midnightblue" stroke="midnightblue" points="745.154,-230.681 748.379,-220.589 739.565,-226.467 745.154,-230.681"/>
</g>
<!-- Node10&#45;&gt;Node4 -->
<g id="edge19" class="edge"><title>Node10&#45;&gt;Node4</title>
<path fill="none" stroke="midnightblue" d="M1176.25,-190.34C1233.9,-164.594 1339.69,-107.963 1293,-56 1267.16,-27.2437 998.912,-15.3285 905.143,-12.0213"/>
<polygon fill="midnightblue" stroke="midnightblue" points="905.217,-8.52184 895.103,-11.6768 904.977,-15.5177 905.217,-8.52184"/>
</g>
<!-- Node10&#45;&gt;Node11 -->
<g id="edge18" class="edge"><title>Node10&#45;&gt;Node11</title>
<path fill="none" stroke="midnightblue" d="M1171.15,-190.433C1185.7,-181.905 1202.24,-169.636 1212,-154 1223.91,-134.918 1226.49,-108.665 1226.69,-91.1668"/>
<polygon fill="midnightblue" stroke="midnightblue" points="1230.19,-91.0484 1226.56,-81.0954 1223.19,-91.1406 1230.19,-91.0484"/>
</g>
<!-- Node12 -->
<g id="node13" class="node"><title>Node12</title>
<polygon fill="white" stroke="#bfbfbf" points="1065.5,-62 1065.5,-81 1106.5,-81 1106.5,-62 1065.5,-62"/>
<text text-anchor="middle" x="1086" y="-69" font-family="Helvetica,sans-Serif" font-size="10.00">string</text>
</g>
<!-- Node10&#45;&gt;Node12 -->
<g id="edge20" class="edge"><title>Node10&#45;&gt;Node12</title>
<path fill="none" stroke="midnightblue" d="M1129.3,-190.468C1121.23,-180.845 1111.17,-167.432 1105,-154 1095.73,-133.834 1090.76,-108.717 1088.26,-91.7371"/>
<polygon fill="midnightblue" stroke="midnightblue" points="1091.68,-90.8973 1086.9,-81.4426 1084.74,-91.8153 1091.68,-90.8973"/>
</g>
<!-- Node13 -->
<g id="node14" class="node"><title>Node13</title>
<g id="a_node14"><a xlink:href="_f_class_8h.html" target="_top" xlink:title="FClass.h">
<polygon fill="white" stroke="black" points="1114,-129 1114,-148 1170,-148 1170,-129 1114,-129"/>
<text text-anchor="middle" x="1142" y="-136" font-family="Helvetica,sans-Serif" font-size="10.00">FClass.h</text>
</a>
</g>
</g>
<!-- Node10&#45;&gt;Node13 -->
<g id="edge21" class="edge"><title>Node10&#45;&gt;Node13</title>
<path fill="none" stroke="midnightblue" d="M1142,-190.396C1142,-181.064 1142,-168.714 1142,-158.517"/>
<polygon fill="midnightblue" stroke="midnightblue" points="1145.5,-158.195 1142,-148.195 1138.5,-158.195 1145.5,-158.195"/>
</g>
<!-- Node13&#45;&gt;Node4 -->
<g id="edge23" class="edge"><title>Node13&#45;&gt;Node4</title>
<path fill="none" stroke="midnightblue" d="M1141.97,-128.827C1141.4,-112.033 1137.61,-75.0537 1116,-56 1085.17,-28.8222 964.399,-17.1202 905.565,-12.9517"/>
<polygon fill="midnightblue" stroke="midnightblue" points="905.55,-9.44272 895.336,-12.259 905.077,-16.4267 905.55,-9.44272"/>
</g>
<!-- Node13&#45;&gt;Node11 -->
<g id="edge22" class="edge"><title>Node13&#45;&gt;Node11</title>
<path fill="none" stroke="midnightblue" d="M1153.33,-128.734C1167.06,-118.111 1190.4,-100.049 1206.92,-87.2642"/>
<polygon fill="midnightblue" stroke="midnightblue" points="1209.08,-90.0152 1214.85,-81.1273 1204.8,-84.4791 1209.08,-90.0152"/>
</g>
<!-- Node13&#45;&gt;Node12 -->
<g id="edge24" class="edge"><title>Node13&#45;&gt;Node12</title>
<path fill="none" stroke="midnightblue" d="M1134.45,-128.734C1125.72,-118.598 1111.15,-101.69 1100.26,-89.0556"/>
<polygon fill="midnightblue" stroke="midnightblue" points="1102.61,-86.4189 1093.43,-81.1273 1097.31,-90.9879 1102.61,-86.4189"/>
</g>
<!-- Node14&#45;&gt;Node4 -->
<g id="edge27" class="edge"><title>Node14&#45;&gt;Node4</title>
<path fill="none" stroke="midnightblue" d="M805.015,-190.424C823.089,-182.571 842.278,-170.874 854,-154 880.238,-116.231 878.611,-59.0711 875.594,-29.7699"/>
<polygon fill="midnightblue" stroke="midnightblue" points="879.05,-29.195 874.381,-19.6846 872.1,-30.031 879.05,-29.195"/>
</g>
<!-- Node14&#45;&gt;Node5 -->
<g id="edge35" class="edge"><title>Node14&#45;&gt;Node5</title>
<path fill="none" stroke="midnightblue" d="M678.815,-190.518C635.386,-181.947 581.124,-169.61 534,-154 506.029,-144.734 434.911,-112.028 390.019,-90.9716"/>
<polygon fill="midnightblue" stroke="midnightblue" points="391.401,-87.7541 380.862,-86.6678 388.423,-94.0892 391.401,-87.7541"/>
</g>
<!-- Node14&#45;&gt;Node8 -->
<g id="edge34" class="edge"><title>Node14&#45;&gt;Node8</title>
<path fill="none" stroke="midnightblue" d="M678.74,-195.083C571.362,-182.485 382.464,-160.322 278.591,-148.134"/>
<polygon fill="midnightblue" stroke="midnightblue" points="278.843,-144.64 268.503,-146.951 278.027,-151.592 278.843,-144.64"/>
</g>
<!-- Node14&#45;&gt;Node11 -->
<g id="edge32" class="edge"><title>Node14&#45;&gt;Node11</title>
<path fill="none" stroke="midnightblue" d="M839.259,-203.261C945.257,-200.219 1124.84,-189.769 1179,-154 1201.32,-139.259 1214.32,-110.024 1220.79,-90.873"/>
<polygon fill="midnightblue" stroke="midnightblue" points="1224.17,-91.7753 1223.79,-81.1871 1217.49,-89.6996 1224.17,-91.7753"/>
</g>
<!-- Node14&#45;&gt;Node12 -->
<g id="edge30" class="edge"><title>Node14&#45;&gt;Node12</title>
<path fill="none" stroke="midnightblue" d="M839.063,-196.145C906.682,-187.889 997.275,-173.647 1028,-154 1052.07,-138.607 1069.16,-109.335 1078.3,-90.383"/>
<polygon fill="midnightblue" stroke="midnightblue" points="1081.58,-91.6198 1082.55,-81.0694 1075.21,-88.7124 1081.58,-91.6198"/>
</g>
<!-- Node15 -->
<g id="node16" class="node"><title>Node15</title>
<polygon fill="white" stroke="#bfbfbf" points="901.5,-129 901.5,-148 950.5,-148 950.5,-129 901.5,-129"/>
<text text-anchor="middle" x="926" y="-136" font-family="Helvetica,sans-Serif" font-size="10.00">cassert</text>
</g>
<!-- Node14&#45;&gt;Node15 -->
<g id="edge26" class="edge"><title>Node14&#45;&gt;Node15</title>
<path fill="none" stroke="midnightblue" d="M795.237,-190.396C824.928,-178.84 866.506,-162.656 894.751,-151.663"/>
<polygon fill="midnightblue" stroke="midnightblue" points="896.094,-154.896 904.144,-148.007 893.555,-148.373 896.094,-154.896"/>
</g>
<!-- Node16 -->
<g id="node17" class="node"><title>Node16</title>
<polygon fill="white" stroke="#bfbfbf" points="968.5,-129 968.5,-148 1019.5,-148 1019.5,-129 968.5,-129"/>
<text text-anchor="middle" x="994" y="-136" font-family="Helvetica,sans-Serif" font-size="10.00">numeric</text>
</g>
<!-- Node14&#45;&gt;Node16 -->
<g id="edge28" class="edge"><title>Node14&#45;&gt;Node16</title>
<path fill="none" stroke="midnightblue" d="M824.54,-190.486C863.924,-181.441 914.808,-168.647 959,-154 960.92,-153.364 962.883,-152.671 964.853,-151.945"/>
<polygon fill="midnightblue" stroke="midnightblue" points="966.534,-155.045 974.568,-148.138 963.98,-148.528 966.534,-155.045"/>
</g>
<!-- Node17 -->
<g id="node18" class="node"><title>Node17</title>
<polygon fill="white" stroke="#bfbfbf" points="663,-129 663,-148 713,-148 713,-129 663,-129"/>
<text text-anchor="middle" x="688" y="-136" font-family="Helvetica,sans-Serif" font-size="10.00">fstream</text>
</g>
<!-- Node14&#45;&gt;Node17 -->
<g id="edge29" class="edge"><title>Node14&#45;&gt;Node17</title>
<path fill="none" stroke="midnightblue" d="M743.594,-190.396C732.195,-179.96 716.674,-165.751 704.928,-154.998"/>
<polygon fill="midnightblue" stroke="midnightblue" points="707.236,-152.366 697.497,-148.195 702.51,-157.529 707.236,-152.366"/>
</g>
<!-- Node18 -->
<g id="node19" class="node"><title>Node18</title>
<polygon fill="white" stroke="#bfbfbf" points="731,-129 731,-148 787,-148 787,-129 731,-129"/>
<text text-anchor="middle" x="759" y="-136" font-family="Helvetica,sans-Serif" font-size="10.00">algorithm</text>
</g>
<!-- Node14&#45;&gt;Node18 -->
<g id="edge31" class="edge"><title>Node14&#45;&gt;Node18</title>
<path fill="none" stroke="midnightblue" d="M759,-190.396C759,-181.064 759,-168.714 759,-158.517"/>
<polygon fill="midnightblue" stroke="midnightblue" points="762.5,-158.195 759,-148.195 755.5,-158.195 762.5,-158.195"/>
</g>
<!-- Node19 -->
<g id="node20" class="node"><title>Node19</title>
<polygon fill="white" stroke="#bfbfbf" points="805,-129 805,-148 845,-148 845,-129 805,-129"/>
<text text-anchor="middle" x="825" y="-136" font-family="Helvetica,sans-Serif" font-size="10.00">limits</text>
</g>
<!-- Node14&#45;&gt;Node19 -->
<g id="edge33" class="edge"><title>Node14&#45;&gt;Node19</title>
<path fill="none" stroke="midnightblue" d="M773.321,-190.396C783.816,-180.06 798.068,-166.024 808.948,-155.309"/>
<polygon fill="midnightblue" stroke="midnightblue" points="811.503,-157.705 816.172,-148.195 806.591,-152.718 811.503,-157.705"/>
</g>
<!-- Node20 -->
<g id="node21" class="node"><title>Node20</title>
<g id="a_node21"><a xlink:href="_scoring_object_8h.html" target="_top" xlink:title="ScoringObject.h">
<polygon fill="white" stroke="black" points="363,-129 363,-148 449,-148 449,-129 363,-129"/>
<text text-anchor="middle" x="406" y="-136" font-family="Helvetica,sans-Serif" font-size="10.00">ScoringObject.h</text>
</a>
</g>
</g>
<!-- Node14&#45;&gt;Node20 -->
<g id="edge36" class="edge"><title>Node14&#45;&gt;Node20</title>
<path fill="none" stroke="midnightblue" d="M682.839,-190.476C615.397,-178.058 518.687,-160.25 459.238,-149.303"/>
<polygon fill="midnightblue" stroke="midnightblue" points="459.775,-145.843 449.307,-147.474 458.508,-152.727 459.775,-145.843"/>
</g>
<!-- Node21 -->
<g id="node22" class="node"><title>Node21</title>
<g id="a_node22"><a xlink:href="_random_8h.html" target="_top" xlink:title="../DUtils/Random.h">
<polygon fill="white" stroke="black" points="543.5,-129 543.5,-148 644.5,-148 644.5,-129 543.5,-129"/>
<text text-anchor="middle" x="594" y="-136" font-family="Helvetica,sans-Serif" font-size="10.00">../DUtils/Random.h</text>
</a>
</g>
</g>
<!-- Node14&#45;&gt;Node21 -->
<g id="edge38" class="edge"><title>Node14&#45;&gt;Node21</title>
<path fill="none" stroke="midnightblue" d="M723.197,-190.396C693.99,-178.89 653.14,-162.797 625.241,-151.807"/>
<polygon fill="midnightblue" stroke="midnightblue" points="626.182,-148.416 615.595,-148.007 623.616,-154.929 626.182,-148.416"/>
</g>
<!-- Node20&#45;&gt;Node5 -->
<g id="edge37" class="edge"><title>Node20&#45;&gt;Node5</title>
<path fill="none" stroke="midnightblue" d="M398.582,-128.734C391.149,-119.949 379.412,-106.078 369.456,-94.3111"/>
<polygon fill="midnightblue" stroke="midnightblue" points="372.053,-91.9621 362.921,-86.589 366.709,-96.4837 372.053,-91.9621"/>
</g>
<!-- Node21&#45;&gt;Node4 -->
<g id="edge40" class="edge"><title>Node21&#45;&gt;Node4</title>
<path fill="none" stroke="midnightblue" d="M613.177,-128.805C661.375,-106.952 787.776,-49.6411 844.606,-23.8741"/>
<polygon fill="midnightblue" stroke="midnightblue" points="846.396,-26.9056 854.058,-19.5884 843.505,-20.5303 846.396,-26.9056"/>
</g>
<!-- Node22 -->
<g id="node23" class="node"><title>Node22</title>
<polygon fill="white" stroke="#bfbfbf" points="571.5,-62 571.5,-81 616.5,-81 616.5,-62 571.5,-62"/>
<text text-anchor="middle" x="594" y="-69" font-family="Helvetica,sans-Serif" font-size="10.00">cstdlib</text>
</g>
<!-- Node21&#45;&gt;Node22 -->
<g id="edge39" class="edge"><title>Node21&#45;&gt;Node22</title>
<path fill="none" stroke="midnightblue" d="M594,-128.734C594,-119.183 594,-103.618 594,-91.2829"/>
<polygon fill="midnightblue" stroke="midnightblue" points="597.5,-91.1273 594,-81.1273 590.5,-91.1273 597.5,-91.1273"/>
</g>
<!-- Node24&#45;&gt;Node9 -->
<g id="edge43" class="edge"><title>Node24&#45;&gt;Node9</title>
<path fill="none" stroke="midnightblue" d="M322.043,-329.801C383.847,-320.832 560.273,-295.229 652.403,-281.859"/>
<polygon fill="midnightblue" stroke="midnightblue" points="653.004,-285.308 662.398,-280.408 651.999,-278.381 653.004,-285.308"/>
</g>
<!-- Node25 -->
<g id="node26" class="node"><title>Node25</title>
<polygon fill="white" stroke="#bfbfbf" points="325,-263 325,-282 355,-282 355,-263 325,-263"/>
<text text-anchor="middle" x="340" y="-270" font-family="Helvetica,sans-Serif" font-size="10.00">set</text>
</g>
<!-- Node24&#45;&gt;Node25 -->
<g id="edge44" class="edge"><title>Node24&#45;&gt;Node25</title>
<path fill="none" stroke="midnightblue" d="M305.731,-324.475C311.672,-315.638 321.117,-301.589 328.588,-290.475"/>
<polygon fill="midnightblue" stroke="midnightblue" points="331.605,-292.261 334.28,-282.009 325.796,-288.355 331.605,-292.261"/>
</g>
<!-- Node24&#45;&gt;Node26 -->
<g id="edge45" class="edge"><title>Node24&#45;&gt;Node26</title>
<path fill="none" stroke="midnightblue" d="M292.406,-324.475C284.299,-315.373 271.265,-300.741 261.237,-289.483"/>
<polygon fill="midnightblue" stroke="midnightblue" points="263.844,-287.148 254.58,-282.009 258.617,-291.804 263.844,-287.148"/>
</g>
<!-- Node24&#45;&gt;Node27 -->
<g id="edge46" class="edge"><title>Node24&#45;&gt;Node27</title>
<path fill="none" stroke="midnightblue" d="M277.703,-327.077C244.333,-318.214 180.304,-301.206 133.305,-288.722"/>
<polygon fill="midnightblue" stroke="midnightblue" points="134.115,-285.316 123.552,-286.131 132.318,-292.081 134.115,-285.316"/>
</g>
<!-- Node24&#45;&gt;Node28 -->
<g id="edge47" class="edge"><title>Node24&#45;&gt;Node28</title>
<path fill="none" stroke="midnightblue" d="M281.947,-324.475C260.802,-314.49 225.56,-297.848 201.122,-286.307"/>
<polygon fill="midnightblue" stroke="midnightblue" points="202.556,-283.114 192.019,-282.009 199.567,-289.444 202.556,-283.114"/>
</g>
<!-- Node29&#45;&gt;Node4 -->
<g id="edge56" class="edge"><title>Node29&#45;&gt;Node4</title>
<path fill="none" stroke="midnightblue" d="M1354.39,-380.422C1377.76,-363.128 1426,-321.601 1426,-273.5 1426,-273.5 1426,-273.5 1426,-137.5 1426,-88.8719 1396.42,-77.8893 1353,-56 1274.2,-16.2759 999.528,-11.4617 905.141,-10.9988"/>
<polygon fill="midnightblue" stroke="midnightblue" points="905.066,-7.49865 895.053,-10.963 905.041,-14.4986 905.066,-7.49865"/>
</g>
<!-- Node29&#45;&gt;Node11 -->
<g id="edge58" class="edge"><title>Node29&#45;&gt;Node11</title>
<path fill="none" stroke="midnightblue" d="M1343.01,-380.321C1345.17,-361.105 1350,-313.499 1350,-273.5 1350,-273.5 1350,-273.5 1350,-204.5 1350,-148.361 1289.68,-106.322 1253.18,-86.0215"/>
<polygon fill="midnightblue" stroke="midnightblue" points="1254.5,-82.7533 1244.03,-81.1056 1251.18,-88.9203 1254.5,-82.7533"/>
</g>
<!-- Node30 -->
<g id="node31" class="node"><title>Node30</title>
<polygon fill="white" stroke="#bfbfbf" points="1292.5,-324.5 1292.5,-343.5 1321.5,-343.5 1321.5,-324.5 1292.5,-324.5"/>
<text text-anchor="middle" x="1307" y="-331.5" font-family="Helvetica,sans-Serif" font-size="10.00">list</text>
</g>
<!-- Node29&#45;&gt;Node30 -->
<g id="edge57" class="edge"><title>Node29&#45;&gt;Node30</title>
<path fill="none" stroke="midnightblue" d="M1336.22,-380.083C1331.33,-372.534 1324.17,-361.495 1318.17,-352.23"/>
<polygon fill="midnightblue" stroke="midnightblue" points="1321.05,-350.239 1312.67,-343.751 1315.17,-354.046 1321.05,-350.239"/>
</g>
<!-- Node31&#45;&gt;Node1 -->
<g id="edge64" class="edge"><title>Node31&#45;&gt;Node1</title>
<path fill="none" stroke="midnightblue" d="M457.162,-399.516C432.518,-408.625 390.277,-423.129 358.895,-433.304"/>
<polygon fill="midnightblue" stroke="midnightblue" points="357.575,-430.053 349.124,-436.444 359.716,-436.717 357.575,-430.053"/>
</g>
<!-- Node31&#45;&gt;Node3 -->
<g id="edge65" class="edge"><title>Node31&#45;&gt;Node3</title>
<path fill="none" stroke="midnightblue" d="M477.661,-380.083C478.185,-373.006 478.936,-362.861 479.594,-353.986"/>
<polygon fill="midnightblue" stroke="midnightblue" points="483.103,-353.982 480.352,-343.751 476.123,-353.465 483.103,-353.982"/>
</g>
<!-- Node31&#45;&gt;Node4 -->
<g id="edge61" class="edge"><title>Node31&#45;&gt;Node4</title>
<path fill="none" stroke="midnightblue" d="M533.3,-389.765C731.918,-390.976 1388,-381.714 1388,-206.5 1388,-206.5 1388,-206.5 1388,-137.5 1388,-87.9724 1356.35,-78.0421 1312,-56 1240.38,-20.4088 993.631,-12.9401 905.009,-11.3956"/>
<polygon fill="midnightblue" stroke="midnightblue" points="905.062,-7.89612 895.007,-11.2351 904.95,-14.8952 905.062,-7.89612"/>
</g>
<!-- Node31&#45;&gt;Node9 -->
<g id="edge66" class="edge"><title>Node31&#45;&gt;Node9</title>
<path fill="none" stroke="midnightblue" d="M494.513,-380.319C535.009,-360.245 635.33,-310.515 683.439,-286.667"/>
<polygon fill="midnightblue" stroke="midnightblue" points="685.197,-289.702 692.602,-282.124 682.088,-283.43 685.197,-289.702"/>
</g>
<!-- Node31&#45;&gt;Node25 -->
<g id="edge63" class="edge"><title>Node31&#45;&gt;Node25</title>
<path fill="none" stroke="midnightblue" d="M467.373,-380.491C453.178,-367.982 425.745,-343.952 402,-324 387.665,-311.955 371.225,-298.584 358.877,-288.628"/>
<polygon fill="midnightblue" stroke="midnightblue" points="361.045,-285.88 351.059,-282.339 356.657,-291.334 361.045,-285.88"/>
</g>
<!-- Node31&#45;&gt;Node26 -->
<g id="edge67" class="edge"><title>Node31&#45;&gt;Node26</title>
<path fill="none" stroke="midnightblue" d="M459.713,-380.319C419.738,-360.245 320.709,-310.515 273.219,-286.667"/>
<polygon fill="midnightblue" stroke="midnightblue" points="274.681,-283.484 264.174,-282.124 271.54,-289.74 274.681,-283.484"/>
</g>
<!-- Node31&#45;&gt;Node30 -->
<g id="edge62" class="edge"><title>Node31&#45;&gt;Node30</title>
<path fill="none" stroke="midnightblue" d="M533.111,-387.125C659.523,-382.588 976.167,-369.464 1240,-344 1254,-342.648 1269.59,-340.589 1282.2,-338.781"/>
<polygon fill="midnightblue" stroke="midnightblue" points="1283.01,-342.199 1292.4,-337.281 1282,-335.273 1283.01,-342.199"/>
</g>
<!-- Node32&#45;&gt;Node1 -->
<g id="edge72" class="edge"><title>Node32&#45;&gt;Node1</title>
<path fill="none" stroke="midnightblue" d="M357.404,-492.083C350.773,-484.298 340.979,-472.801 332.942,-463.367"/>
<polygon fill="midnightblue" stroke="midnightblue" points="335.604,-461.094 326.455,-455.751 330.275,-465.633 335.604,-461.094"/>
</g>
</g>
</svg>
