<?xml version="1.0" encoding="UTF-8" standalone="no"?>
<!DOCTYPE svg PUBLIC "-//W3C//DTD SVG 1.1//EN"
 "http://www.w3.org/Graphics/SVG/1.1/DTD/svg11.dtd">
<!-- Generated by graphviz version 2.38.0 (20140413.2041)
 -->
<!-- Title: /home/alejandro/Desarrollo eclipse/os1/include/KeyFrame.h Pages: 1 -->
<svg width="1293pt" height="475pt"
 viewBox="0.00 0.00 1292.50 475.00" xmlns="http://www.w3.org/2000/svg" xmlns:xlink="http://www.w3.org/1999/xlink">
<g id="graph0" class="graph" transform="scale(1 1) rotate(0) translate(4 471)">
<title>/home/alejandro/Desarrollo eclipse/os1/include/KeyFrame.h</title>
<polygon fill="white" stroke="none" points="-4,4 -4,-471 1288.5,-471 1288.5,4 -4,4"/>
<!-- Node0 -->
<g id="node1" class="node"><title>Node0</title>
<polygon fill="#bfbfbf" stroke="black" points="271,-436.5 271,-466.5 430,-466.5 430,-436.5 271,-436.5"/>
<text text-anchor="start" x="279" y="-454.5" font-family="Helvetica,sans-Serif" font-size="10.00">/home/alejandro/Desarrollo</text>
<text text-anchor="middle" x="350.5" y="-443.5" font-family="Helvetica,sans-Serif" font-size="10.00"> eclipse/os1/include/KeyFrame.h</text>
</g>
<!-- Node1 -->
<g id="node2" class="node"><title>Node1</title>
<g id="a_node2"><a xlink:href="_map_point_8h.html" target="_top" xlink:title="MapPoint.h">
<polygon fill="white" stroke="black" points="317.5,-380.5 317.5,-399.5 383.5,-399.5 383.5,-380.5 317.5,-380.5"/>
<text text-anchor="middle" x="350.5" y="-387.5" font-family="Helvetica,sans-Serif" font-size="10.00">MapPoint.h</text>
</a>
</g>
</g>
<!-- Node0&#45;&gt;Node1 -->
<g id="edge1" class="edge"><title>Node0&#45;&gt;Node1</title>
<path fill="none" stroke="midnightblue" d="M344.66,-436.399C343.63,-428.377 343.474,-418.233 344.193,-409.569"/>
<polygon fill="midnightblue" stroke="midnightblue" points="347.66,-410.044 345.571,-399.658 340.727,-409.081 347.66,-410.044"/>
</g>
<!-- Node2 -->
<g id="node3" class="node"><title>Node2</title>
<g id="a_node3"><a xlink:href="_frame_8h.html" target="_top" xlink:title="Frame.h">
<polygon fill="white" stroke="black" points="414,-324.5 414,-343.5 467,-343.5 467,-324.5 414,-324.5"/>
<text text-anchor="middle" x="440.5" y="-331.5" font-family="Helvetica,sans-Serif" font-size="10.00">Frame.h</text>
</a>
</g>
</g>
<!-- Node0&#45;&gt;Node2 -->
<g id="edge56" class="edge"><title>Node0&#45;&gt;Node2</title>
<path fill="none" stroke="midnightblue" d="M362.855,-436.096C371.344,-426.091 382.791,-412.384 392.5,-400 405.158,-383.854 419.019,-364.942 428.578,-351.694"/>
<polygon fill="midnightblue" stroke="midnightblue" points="431.45,-353.695 434.44,-343.531 425.764,-349.612 431.45,-353.695"/>
</g>
<!-- Node4 -->
<g id="node5" class="node"><title>Node4</title>
<g id="a_node5"><a xlink:href="_bow_vector_8h.html" target="_top" xlink:title="../Thirdparty/DBoW2\l/DBoW2/BowVector.h">
<polygon fill="white" stroke="black" points="153,-56.5 153,-86.5 266,-86.5 266,-56.5 153,-56.5"/>
<text text-anchor="start" x="161" y="-74.5" font-family="Helvetica,sans-Serif" font-size="10.00">../Thirdparty/DBoW2</text>
<text text-anchor="middle" x="209.5" y="-63.5" font-family="Helvetica,sans-Serif" font-size="10.00">/DBoW2/BowVector.h</text>
</a>
</g>
</g>
<!-- Node0&#45;&gt;Node4 -->
<g id="edge49" class="edge"><title>Node0&#45;&gt;Node4</title>
<path fill="none" stroke="midnightblue" d="M299.082,-436.495C234.821,-415.902 127.677,-370.637 81.5,-288 60.4242,-250.283 149.062,-141.414 189.887,-94.4708"/>
<polygon fill="midnightblue" stroke="midnightblue" points="192.728,-96.5401 196.69,-86.7138 187.465,-91.9247 192.728,-96.5401"/>
</g>
<!-- Node7 -->
<g id="node8" class="node"><title>Node7</title>
<g id="a_node8"><a xlink:href="_feature_vector_8h.html" target="_top" xlink:title="../Thirdparty/DBoW2\l/DBoW2/FeatureVector.h">
<polygon fill="white" stroke="black" points="0,-123.5 0,-153.5 127,-153.5 127,-123.5 0,-123.5"/>
<text text-anchor="start" x="8" y="-141.5" font-family="Helvetica,sans-Serif" font-size="10.00">../Thirdparty/DBoW2</text>
<text text-anchor="middle" x="63.5" y="-130.5" font-family="Helvetica,sans-Serif" font-size="10.00">/DBoW2/FeatureVector.h</text>
</a>
</g>
</g>
<!-- Node0&#45;&gt;Node7 -->
<g id="edge50" class="edge"><title>Node0&#45;&gt;Node7</title>
<path fill="none" stroke="midnightblue" d="M270.944,-446.125C193.105,-440.305 81.5681,-427.37 48.5,-400 24.7766,-380.365 24.5,-365.795 24.5,-335 24.5,-335 24.5,-335 24.5,-271.5 24.5,-232.262 40.5453,-189.053 52.0524,-163.11"/>
<polygon fill="midnightblue" stroke="midnightblue" points="55.3616,-164.29 56.3468,-153.741 48.9982,-161.373 55.3616,-164.29"/>
</g>
<!-- Node8 -->
<g id="node9" class="node"><title>Node8</title>
<g id="a_node9"><a xlink:href="_o_r_b_vocabulary_8h.html" target="_top" xlink:title="ORBVocabulary.h">
<polygon fill="white" stroke="black" points="555,-263 555,-282 650,-282 650,-263 555,-263"/>
<text text-anchor="middle" x="602.5" y="-270" font-family="Helvetica,sans-Serif" font-size="10.00">ORBVocabulary.h</text>
</a>
</g>
</g>
<!-- Node0&#45;&gt;Node8 -->
<g id="edge51" class="edge"><title>Node0&#45;&gt;Node8</title>
<path fill="none" stroke="midnightblue" d="M430.029,-445.232C616.394,-432.079 1069,-395.144 1113.5,-344 1119.33,-337.294 1119.47,-330.587 1113.5,-324 1083.55,-290.948 788.151,-278.711 660.625,-274.943"/>
<polygon fill="midnightblue" stroke="midnightblue" points="660.374,-271.435 650.277,-274.645 660.173,-278.432 660.374,-271.435"/>
</g>
<!-- Node25 -->
<g id="node26" class="node"><title>Node25</title>
<polygon fill="white" stroke="#bfbfbf" points="204.5,-263 204.5,-282 248.5,-282 248.5,-263 204.5,-263"/>
<text text-anchor="middle" x="226.5" y="-270" font-family="Helvetica,sans-Serif" font-size="10.00">mutex</text>
</g>
<!-- Node0&#45;&gt;Node25 -->
<g id="edge65" class="edge"><title>Node0&#45;&gt;Node25</title>
<path fill="none" stroke="midnightblue" d="M337.901,-436.281C329.304,-426.359 317.828,-412.674 308.5,-400 280.699,-362.224 251.637,-315.345 236.703,-290.621"/>
<polygon fill="midnightblue" stroke="midnightblue" points="239.687,-288.791 231.539,-282.019 233.686,-292.394 239.687,-288.791"/>
</g>
<!-- Node26 -->
<g id="node27" class="node"><title>Node26</title>
<polygon fill="white" stroke="#bfbfbf" points="91,-257.5 91,-287.5 186,-287.5 186,-257.5 91,-257.5"/>
<text text-anchor="start" x="99" y="-275.5" font-family="Helvetica,sans-Serif" font-size="10.00">boost/serialization</text>
<text text-anchor="middle" x="138.5" y="-264.5" font-family="Helvetica,sans-Serif" font-size="10.00">/access.hpp</text>
</g>
<!-- Node0&#45;&gt;Node26 -->
<g id="edge66" class="edge"><title>Node0&#45;&gt;Node26</title>
<path fill="none" stroke="midnightblue" d="M333.51,-436.315C296.125,-405.102 206.613,-330.368 163.092,-294.032"/>
<polygon fill="midnightblue" stroke="midnightblue" points="165.197,-291.23 155.277,-287.507 160.71,-296.603 165.197,-291.23"/>
</g>
<!-- Node27 -->
<g id="node28" class="node"><title>Node27</title>
<g id="a_node28"><a xlink:href="_o_r_bextractor_8h.html" target="_top" xlink:title="ORBextractor.h">
<polygon fill="white" stroke="black" points="1161,-380.5 1161,-399.5 1246,-399.5 1246,-380.5 1161,-380.5"/>
<text text-anchor="middle" x="1203.5" y="-387.5" font-family="Helvetica,sans-Serif" font-size="10.00">ORBextractor.h</text>
</a>
</g>
</g>
<!-- Node0&#45;&gt;Node27 -->
<g id="edge52" class="edge"><title>Node0&#45;&gt;Node27</title>
<path fill="none" stroke="midnightblue" d="M430.081,-447.909C573.6,-442.689 885.164,-428.858 1146.5,-400 1147.96,-399.838 1149.44,-399.666 1150.94,-399.484"/>
<polygon fill="midnightblue" stroke="midnightblue" points="1151.46,-402.946 1160.92,-398.168 1150.54,-396.006 1151.46,-402.946"/>
</g>
<!-- Node29 -->
<g id="node30" class="node"><title>Node29</title>
<g id="a_node30"><a xlink:href="_key_frame_database_8h.html" target="_top" xlink:title="KeyFrameDatabase.h">
<polygon fill="white" stroke="black" points="439.5,-380.5 439.5,-399.5 551.5,-399.5 551.5,-380.5 439.5,-380.5"/>
<text text-anchor="middle" x="495.5" y="-387.5" font-family="Helvetica,sans-Serif" font-size="10.00">KeyFrameDatabase.h</text>
</a>
</g>
</g>
<!-- Node0&#45;&gt;Node29 -->
<g id="edge57" class="edge"><title>Node0&#45;&gt;Node29</title>
<path fill="none" stroke="midnightblue" d="M379.023,-436.399C402.276,-426.327 435.059,-412.909 459.997,-403.277"/>
<polygon fill="midnightblue" stroke="midnightblue" points="461.379,-406.496 469.472,-399.658 458.881,-399.956 461.379,-406.496"/>
</g>
<!-- Node1&#45;&gt;Node0 -->
<g id="edge2" class="edge"><title>Node1&#45;&gt;Node0</title>
<path fill="none" stroke="midnightblue" d="M355.429,-399.658C356.935,-406.655 357.507,-416.857 357.145,-426.289"/>
<polygon fill="midnightblue" stroke="midnightblue" points="353.645,-426.153 356.34,-436.399 360.623,-426.709 353.645,-426.153"/>
</g>
<!-- Node1&#45;&gt;Node2 -->
<g id="edge3" class="edge"><title>Node1&#45;&gt;Node2</title>
<path fill="none" stroke="midnightblue" d="M359.845,-380.324C372.289,-371.743 394.109,-358.486 412.024,-348.522"/>
<polygon fill="midnightblue" stroke="midnightblue" points="413.856,-351.51 420.966,-343.655 410.509,-345.362 413.856,-351.51"/>
</g>
<!-- Node10 -->
<g id="node11" class="node"><title>Node10</title>
<polygon fill="white" stroke="#bfbfbf" points="1036.5,-62 1036.5,-81 1152.5,-81 1152.5,-62 1036.5,-62"/>
<text text-anchor="middle" x="1094.5" y="-69" font-family="Helvetica,sans-Serif" font-size="10.00">opencv2/core/core.hpp</text>
</g>
<!-- Node1&#45;&gt;Node10 -->
<g id="edge46" class="edge"><title>Node1&#45;&gt;Node10</title>
<path fill="none" stroke="midnightblue" d="M383.787,-385.181C509.983,-370.111 957.155,-311.152 1063.5,-221 1101.25,-188.996 1100.28,-123.958 1097.1,-91.6299"/>
<polygon fill="midnightblue" stroke="midnightblue" points="1100.53,-90.8468 1095.89,-81.3213 1093.58,-91.6604 1100.53,-90.8468"/>
</g>
<!-- Node23 -->
<g id="node24" class="node"><title>Node23</title>
<g id="a_node24"><a xlink:href="_map_8h.html" target="_top" xlink:title="Map.h">
<polygon fill="white" stroke="black" points="313.5,-324.5 313.5,-343.5 357.5,-343.5 357.5,-324.5 313.5,-324.5"/>
<text text-anchor="middle" x="335.5" y="-331.5" font-family="Helvetica,sans-Serif" font-size="10.00">Map.h</text>
</a>
</g>
</g>
<!-- Node1&#45;&gt;Node23 -->
<g id="edge41" class="edge"><title>Node1&#45;&gt;Node23</title>
<path fill="none" stroke="midnightblue" d="M348.023,-380.083C346.014,-372.849 343.114,-362.409 340.61,-353.397"/>
<polygon fill="midnightblue" stroke="midnightblue" points="343.98,-352.449 337.931,-343.751 337.235,-354.323 343.98,-352.449"/>
</g>
<!-- Node1&#45;&gt;Node25 -->
<g id="edge47" class="edge"><title>Node1&#45;&gt;Node25</title>
<path fill="none" stroke="midnightblue" d="M341.18,-380.319C320.354,-360.921 269.799,-313.831 243.315,-289.162"/>
<polygon fill="midnightblue" stroke="midnightblue" points="245.631,-286.537 235.928,-282.282 240.86,-291.659 245.631,-286.537"/>
</g>
<!-- Node1&#45;&gt;Node26 -->
<g id="edge48" class="edge"><title>Node1&#45;&gt;Node26</title>
<path fill="none" stroke="midnightblue" d="M334.566,-380.319C300.441,-361.727 219.628,-317.699 173.104,-292.353"/>
<polygon fill="midnightblue" stroke="midnightblue" points="174.736,-289.256 164.28,-287.545 171.387,-295.403 174.736,-289.256"/>
</g>
<!-- Node2&#45;&gt;Node1 -->
<g id="edge5" class="edge"><title>Node2&#45;&gt;Node1</title>
<path fill="none" stroke="midnightblue" d="M431.186,-343.655C418.758,-352.228 396.942,-365.483 379.021,-375.453"/>
<polygon fill="midnightblue" stroke="midnightblue" points="377.184,-372.468 370.075,-380.324 380.531,-378.616 377.184,-372.468"/>
</g>
<!-- Node3 -->
<g id="node4" class="node"><title>Node3</title>
<polygon fill="white" stroke="#bfbfbf" points="709.5,-0.5 709.5,-19.5 753.5,-19.5 753.5,-0.5 709.5,-0.5"/>
<text text-anchor="middle" x="731.5" y="-7.5" font-family="Helvetica,sans-Serif" font-size="10.00">vector</text>
</g>
<!-- Node2&#45;&gt;Node3 -->
<g id="edge4" class="edge"><title>Node2&#45;&gt;Node3</title>
<path fill="none" stroke="midnightblue" d="M463.288,-324.471C478.826,-317.316 498.207,-305.435 507.5,-288 513.98,-275.841 513.12,-269.579 507.5,-257 475.485,-185.346 346.527,-186.606 392.5,-123 464.532,-23.3403 628.507,-10.8818 698.664,-10.3218"/>
<polygon fill="midnightblue" stroke="midnightblue" points="699.089,-13.8217 709.09,-10.3225 699.09,-6.82171 699.089,-13.8217"/>
</g>
<!-- Node2&#45;&gt;Node4 -->
<g id="edge6" class="edge"><title>Node2&#45;&gt;Node4</title>
<path fill="none" stroke="midnightblue" d="M440.464,-324.456C439.965,-309.222 436.884,-277.089 420.5,-257 355.302,-177.058 268.505,-240.631 212.5,-154 201.614,-137.162 201.854,-114.014 204.241,-96.6896"/>
<polygon fill="midnightblue" stroke="midnightblue" points="207.703,-97.2081 205.925,-86.7635 200.802,-96.0373 207.703,-97.2081"/>
</g>
<!-- Node2&#45;&gt;Node7 -->
<g id="edge10" class="edge"><title>Node2&#45;&gt;Node7</title>
<path fill="none" stroke="midnightblue" d="M413.773,-326.022C377.849,-316.418 316.111,-299.063 295.5,-288 276.296,-277.692 275.309,-269.565 257.5,-257 203.884,-219.172 137.868,-180.804 98.3126,-158.628"/>
<polygon fill="midnightblue" stroke="midnightblue" points="99.7676,-155.432 89.3297,-153.615 96.3566,-161.544 99.7676,-155.432"/>
</g>
<!-- Node2&#45;&gt;Node8 -->
<g id="edge15" class="edge"><title>Node2&#45;&gt;Node8</title>
<path fill="none" stroke="midnightblue" d="M463.711,-324.475C491.499,-314.269 538.223,-297.108 569.694,-285.549"/>
<polygon fill="midnightblue" stroke="midnightblue" points="571.152,-288.742 579.332,-282.009 568.739,-282.171 571.152,-288.742"/>
</g>
<!-- Node22 -->
<g id="node23" class="node"><title>Node22</title>
<polygon fill="white" stroke="#bfbfbf" points="305,-263 305,-282 412,-282 412,-263 305,-263"/>
<text text-anchor="middle" x="358.5" y="-270" font-family="Helvetica,sans-Serif" font-size="10.00">opencv2/opencv.hpp</text>
</g>
<!-- Node2&#45;&gt;Node22 -->
<g id="edge40" class="edge"><title>Node2&#45;&gt;Node22</title>
<path fill="none" stroke="midnightblue" d="M428.751,-324.475C415.721,-315.02 394.464,-299.596 378.741,-288.187"/>
<polygon fill="midnightblue" stroke="midnightblue" points="380.376,-285.049 370.227,-282.009 376.265,-290.715 380.376,-285.049"/>
</g>
<!-- Node4&#45;&gt;Node3 -->
<g id="edge9" class="edge"><title>Node4&#45;&gt;Node3</title>
<path fill="none" stroke="midnightblue" d="M266.357,-64.0192C375.938,-51.5286 613.161,-24.4889 699.363,-14.6631"/>
<polygon fill="midnightblue" stroke="midnightblue" points="699.802,-18.1358 709.341,-13.5257 699.009,-11.1809 699.802,-18.1358"/>
</g>
<!-- Node5 -->
<g id="node6" class="node"><title>Node5</title>
<polygon fill="white" stroke="#bfbfbf" points="46.5,-0.5 46.5,-19.5 100.5,-19.5 100.5,-0.5 46.5,-0.5"/>
<text text-anchor="middle" x="73.5" y="-7.5" font-family="Helvetica,sans-Serif" font-size="10.00">iostream</text>
</g>
<!-- Node4&#45;&gt;Node5 -->
<g id="edge7" class="edge"><title>Node4&#45;&gt;Node5</title>
<path fill="none" stroke="midnightblue" d="M177.27,-56.3993C154.655,-46.5054 124.662,-33.3832 102.739,-23.7919"/>
<polygon fill="midnightblue" stroke="midnightblue" points="103.854,-20.4595 93.2892,-19.6578 101.048,-26.8726 103.854,-20.4595"/>
</g>
<!-- Node6 -->
<g id="node7" class="node"><title>Node6</title>
<polygon fill="white" stroke="#bfbfbf" points="168,-0.5 168,-19.5 203,-19.5 203,-0.5 168,-0.5"/>
<text text-anchor="middle" x="185.5" y="-7.5" font-family="Helvetica,sans-Serif" font-size="10.00">map</text>
</g>
<!-- Node4&#45;&gt;Node6 -->
<g id="edge8" class="edge"><title>Node4&#45;&gt;Node6</title>
<path fill="none" stroke="midnightblue" d="M203.812,-56.3993C200.505,-48.1989 196.302,-37.7809 192.758,-28.9936"/>
<polygon fill="midnightblue" stroke="midnightblue" points="195.979,-27.6225 188.992,-19.6578 189.487,-30.2411 195.979,-27.6225"/>
</g>
<!-- Node7&#45;&gt;Node3 -->
<g id="edge13" class="edge"><title>Node7&#45;&gt;Node3</title>
<path fill="none" stroke="midnightblue" d="M76.8866,-123.356C98.5482,-100.541 139.298,-57.9553 143.5,-56 243.338,-9.54184 590.564,-9.38628 698.933,-10.5217"/>
<polygon fill="midnightblue" stroke="midnightblue" points="699.193,-14.0249 709.233,-10.6414 699.275,-7.02536 699.193,-14.0249"/>
</g>
<!-- Node7&#45;&gt;Node4 -->
<g id="edge11" class="edge"><title>Node7&#45;&gt;Node4</title>
<path fill="none" stroke="midnightblue" d="M95.1798,-123.396C116.703,-113.814 145.373,-101.05 168.616,-90.7016"/>
<polygon fill="midnightblue" stroke="midnightblue" points="170.17,-93.8412 177.882,-86.5765 167.323,-87.4463 170.17,-93.8412"/>
</g>
<!-- Node7&#45;&gt;Node5 -->
<g id="edge14" class="edge"><title>Node7&#45;&gt;Node5</title>
<path fill="none" stroke="midnightblue" d="M64.6084,-123.479C66.4076,-100.719 69.9662,-55.7023 71.9934,-30.0582"/>
<polygon fill="midnightblue" stroke="midnightblue" points="75.5062,-30.0333 72.8053,-19.7885 68.528,-29.4816 75.5062,-30.0333"/>
</g>
<!-- Node7&#45;&gt;Node6 -->
<g id="edge12" class="edge"><title>Node7&#45;&gt;Node6</title>
<path fill="none" stroke="midnightblue" d="M68.9995,-123.406C76.3603,-105.939 90.8075,-76.0365 110.5,-56 124.251,-42.0092 143.223,-30.6793 158.644,-22.8876"/>
<polygon fill="midnightblue" stroke="midnightblue" points="160.232,-26.0075 167.709,-18.5012 157.183,-19.7064 160.232,-26.0075"/>
</g>
<!-- Node9 -->
<g id="node10" class="node"><title>Node9</title>
<g id="a_node10"><a xlink:href="_f_o_r_b_8h.html" target="_top" xlink:title="../Thirdparty/DBoW2\l/DBoW2/FORB.h">
<polygon fill="white" stroke="black" points="947,-190.5 947,-220.5 1054,-220.5 1054,-190.5 947,-190.5"/>
<text text-anchor="start" x="955" y="-208.5" font-family="Helvetica,sans-Serif" font-size="10.00">../Thirdparty/DBoW2</text>
<text text-anchor="middle" x="1000.5" y="-197.5" font-family="Helvetica,sans-Serif" font-size="10.00">/DBoW2/FORB.h</text>
</a>
</g>
</g>
<!-- Node8&#45;&gt;Node9 -->
<g id="edge16" class="edge"><title>Node8&#45;&gt;Node9</title>
<path fill="none" stroke="midnightblue" d="M650.113,-263.724C721.642,-252.042 856.945,-229.945 936.867,-216.892"/>
<polygon fill="midnightblue" stroke="midnightblue" points="937.503,-220.335 946.808,-215.269 936.375,-213.426 937.503,-220.335"/>
</g>
<!-- Node13 -->
<g id="node14" class="node"><title>Node13</title>
<g id="a_node14"><a xlink:href="_templated_vocabulary_8h.html" target="_top" xlink:title="../Thirdparty/DBoW2\l/DBoW2/TemplatedVocabulary.h">
<polygon fill="white" stroke="black" points="522.5,-190.5 522.5,-220.5 682.5,-220.5 682.5,-190.5 522.5,-190.5"/>
<text text-anchor="start" x="530.5" y="-208.5" font-family="Helvetica,sans-Serif" font-size="10.00">../Thirdparty/DBoW2</text>
<text text-anchor="middle" x="602.5" y="-197.5" font-family="Helvetica,sans-Serif" font-size="10.00">/DBoW2/TemplatedVocabulary.h</text>
</a>
</g>
</g>
<!-- Node8&#45;&gt;Node13 -->
<g id="edge24" class="edge"><title>Node8&#45;&gt;Node13</title>
<path fill="none" stroke="midnightblue" d="M602.5,-262.734C602.5,-254.541 602.5,-241.923 602.5,-230.714"/>
<polygon fill="midnightblue" stroke="midnightblue" points="606,-230.589 602.5,-220.589 599,-230.589 606,-230.589"/>
</g>
<!-- Node9&#45;&gt;Node3 -->
<g id="edge18" class="edge"><title>Node9&#45;&gt;Node3</title>
<path fill="none" stroke="midnightblue" d="M1037.21,-190.483C1098.34,-165.185 1209.73,-109.539 1161.5,-56 1134.96,-26.5321 859.144,-15.0489 763.751,-11.9398"/>
<polygon fill="midnightblue" stroke="midnightblue" points="763.656,-8.43516 753.55,-11.6171 763.434,-15.4317 763.656,-8.43516"/>
</g>
<!-- Node9&#45;&gt;Node10 -->
<g id="edge17" class="edge"><title>Node9&#45;&gt;Node10</title>
<path fill="none" stroke="midnightblue" d="M1028.23,-190.372C1042.73,-181.686 1059.68,-169.287 1070.5,-154 1083.85,-135.139 1089.85,-108.837 1092.5,-91.2666"/>
<polygon fill="midnightblue" stroke="midnightblue" points="1095.99,-91.5113 1093.79,-81.1475 1089.05,-90.6216 1095.99,-91.5113"/>
</g>
<!-- Node11 -->
<g id="node12" class="node"><title>Node11</title>
<polygon fill="white" stroke="#bfbfbf" points="924,-62 924,-81 965,-81 965,-62 924,-62"/>
<text text-anchor="middle" x="944.5" y="-69" font-family="Helvetica,sans-Serif" font-size="10.00">string</text>
</g>
<!-- Node9&#45;&gt;Node11 -->
<g id="edge19" class="edge"><title>Node9&#45;&gt;Node11</title>
<path fill="none" stroke="midnightblue" d="M987.8,-190.468C979.728,-180.845 969.671,-167.432 963.5,-154 954.235,-133.834 949.262,-108.717 946.758,-91.7371"/>
<polygon fill="midnightblue" stroke="midnightblue" points="950.177,-90.8973 945.396,-81.4426 943.237,-91.8153 950.177,-90.8973"/>
</g>
<!-- Node12 -->
<g id="node13" class="node"><title>Node12</title>
<g id="a_node13"><a xlink:href="_f_class_8h.html" target="_top" xlink:title="FClass.h">
<polygon fill="white" stroke="black" points="972.5,-129 972.5,-148 1028.5,-148 1028.5,-129 972.5,-129"/>
<text text-anchor="middle" x="1000.5" y="-136" font-family="Helvetica,sans-Serif" font-size="10.00">FClass.h</text>
</a>
</g>
</g>
<!-- Node9&#45;&gt;Node12 -->
<g id="edge20" class="edge"><title>Node9&#45;&gt;Node12</title>
<path fill="none" stroke="midnightblue" d="M1000.5,-190.396C1000.5,-181.064 1000.5,-168.714 1000.5,-158.517"/>
<polygon fill="midnightblue" stroke="midnightblue" points="1004,-158.195 1000.5,-148.195 997,-158.195 1004,-158.195"/>
</g>
<!-- Node12&#45;&gt;Node3 -->
<g id="edge22" class="edge"><title>Node12&#45;&gt;Node3</title>
<path fill="none" stroke="midnightblue" d="M1000.47,-128.827C999.9,-112.033 996.113,-75.0537 974.5,-56 943.672,-28.8222 822.899,-17.1202 764.065,-12.9517"/>
<polygon fill="midnightblue" stroke="midnightblue" points="764.05,-9.44272 753.836,-12.259 763.577,-16.4267 764.05,-9.44272"/>
</g>
<!-- Node12&#45;&gt;Node10 -->
<g id="edge21" class="edge"><title>Node12&#45;&gt;Node10</title>
<path fill="none" stroke="midnightblue" d="M1013.18,-128.734C1028.68,-118.013 1055.14,-99.7165 1073.66,-86.9137"/>
<polygon fill="midnightblue" stroke="midnightblue" points="1075.79,-89.6937 1082.02,-81.1273 1071.81,-83.9361 1075.79,-89.6937"/>
</g>
<!-- Node12&#45;&gt;Node11 -->
<g id="edge23" class="edge"><title>Node12&#45;&gt;Node11</title>
<path fill="none" stroke="midnightblue" d="M992.948,-128.734C984.215,-118.598 969.648,-101.69 958.763,-89.0556"/>
<polygon fill="midnightblue" stroke="midnightblue" points="961.112,-86.4189 951.933,-81.1273 955.808,-90.9879 961.112,-86.4189"/>
</g>
<!-- Node13&#45;&gt;Node3 -->
<g id="edge26" class="edge"><title>Node13&#45;&gt;Node3</title>
<path fill="none" stroke="midnightblue" d="M659.055,-190.438C678.563,-182.802 698.707,-171.257 711.5,-154 738.914,-117.022 737.291,-59.5185 734.182,-29.9597"/>
<polygon fill="midnightblue" stroke="midnightblue" points="737.624,-29.277 732.929,-19.7791 730.676,-30.1316 737.624,-29.277"/>
</g>
<!-- Node13&#45;&gt;Node4 -->
<g id="edge34" class="edge"><title>Node13&#45;&gt;Node4</title>
<path fill="none" stroke="midnightblue" d="M529.648,-190.416C488.807,-181.669 437.236,-169.198 392.5,-154 364.6,-144.522 293.459,-111.884 248.543,-90.8987"/>
<polygon fill="midnightblue" stroke="midnightblue" points="249.922,-87.6799 239.382,-86.61 246.954,-94.0196 249.922,-87.6799"/>
</g>
<!-- Node13&#45;&gt;Node7 -->
<g id="edge33" class="edge"><title>Node13&#45;&gt;Node7</title>
<path fill="none" stroke="midnightblue" d="M522.388,-194.839C418.336,-182.291 238.121,-160.558 137.275,-148.397"/>
<polygon fill="midnightblue" stroke="midnightblue" points="137.519,-144.901 127.171,-147.178 136.68,-151.851 137.519,-144.901"/>
</g>
<!-- Node13&#45;&gt;Node10 -->
<g id="edge31" class="edge"><title>Node13&#45;&gt;Node10</title>
<path fill="none" stroke="midnightblue" d="M682.858,-202.949C791.787,-199.544 979.395,-188.674 1037.5,-154 1062.01,-139.375 1078.63,-109.659 1087.33,-90.4366"/>
<polygon fill="midnightblue" stroke="midnightblue" points="1090.55,-91.8094 1091.26,-81.2381 1084.11,-89.0624 1090.55,-91.8094"/>
</g>
<!-- Node13&#45;&gt;Node11 -->
<g id="edge29" class="edge"><title>Node13&#45;&gt;Node11</title>
<path fill="none" stroke="midnightblue" d="M682.507,-197.077C754.306,-189.206 853.332,-174.986 886.5,-154 910.646,-138.722 927.712,-109.418 936.825,-90.4273"/>
<polygon fill="midnightblue" stroke="midnightblue" points="940.116,-91.6451 941.065,-81.0927 933.743,-88.7507 940.116,-91.6451"/>
</g>
<!-- Node14 -->
<g id="node15" class="node"><title>Node14</title>
<polygon fill="white" stroke="#bfbfbf" points="760,-129 760,-148 809,-148 809,-129 760,-129"/>
<text text-anchor="middle" x="784.5" y="-136" font-family="Helvetica,sans-Serif" font-size="10.00">cassert</text>
</g>
<!-- Node13&#45;&gt;Node14 -->
<g id="edge25" class="edge"><title>Node13&#45;&gt;Node14</title>
<path fill="none" stroke="midnightblue" d="M642.937,-190.419C671.609,-180.386 710.969,-166.515 745.5,-154 747.597,-153.24 749.755,-152.452 751.93,-151.655"/>
<polygon fill="midnightblue" stroke="midnightblue" points="753.256,-154.896 761.426,-148.15 750.833,-148.329 753.256,-154.896"/>
</g>
<!-- Node15 -->
<g id="node16" class="node"><title>Node15</title>
<polygon fill="white" stroke="#bfbfbf" points="827,-129 827,-148 878,-148 878,-129 827,-129"/>
<text text-anchor="middle" x="852.5" y="-136" font-family="Helvetica,sans-Serif" font-size="10.00">numeric</text>
</g>
<!-- Node13&#45;&gt;Node15 -->
<g id="edge27" class="edge"><title>Node13&#45;&gt;Node15</title>
<path fill="none" stroke="midnightblue" d="M675.459,-190.435C717.457,-181.579 770.97,-168.994 817.5,-154 819.636,-153.312 821.825,-152.549 824.014,-151.744"/>
<polygon fill="midnightblue" stroke="midnightblue" points="825.419,-154.953 833.453,-148.046 822.866,-148.435 825.419,-154.953"/>
</g>
<!-- Node16 -->
<g id="node17" class="node"><title>Node16</title>
<polygon fill="white" stroke="#bfbfbf" points="401.5,-129 401.5,-148 451.5,-148 451.5,-129 401.5,-129"/>
<text text-anchor="middle" x="426.5" y="-136" font-family="Helvetica,sans-Serif" font-size="10.00">fstream</text>
</g>
<!-- Node13&#45;&gt;Node16 -->
<g id="edge28" class="edge"><title>Node13&#45;&gt;Node16</title>
<path fill="none" stroke="midnightblue" d="M560.931,-190.47C532.489,-180.687 494.011,-167.09 460.5,-154 458.897,-153.374 457.257,-152.72 455.606,-152.051"/>
<polygon fill="midnightblue" stroke="midnightblue" points="456.77,-148.745 446.192,-148.141 454.084,-155.209 456.77,-148.745"/>
</g>
<!-- Node17 -->
<g id="node18" class="node"><title>Node17</title>
<polygon fill="white" stroke="#bfbfbf" points="469.5,-129 469.5,-148 525.5,-148 525.5,-129 469.5,-129"/>
<text text-anchor="middle" x="497.5" y="-136" font-family="Helvetica,sans-Serif" font-size="10.00">algorithm</text>
</g>
<!-- Node13&#45;&gt;Node17 -->
<g id="edge30" class="edge"><title>Node13&#45;&gt;Node17</title>
<path fill="none" stroke="midnightblue" d="M579.717,-190.396C561.945,-179.395 537.4,-164.2 519.763,-153.282"/>
<polygon fill="midnightblue" stroke="midnightblue" points="521.587,-150.295 511.242,-148.007 517.902,-156.247 521.587,-150.295"/>
</g>
<!-- Node18 -->
<g id="node19" class="node"><title>Node18</title>
<polygon fill="white" stroke="#bfbfbf" points="543.5,-129 543.5,-148 583.5,-148 583.5,-129 543.5,-129"/>
<text text-anchor="middle" x="563.5" y="-136" font-family="Helvetica,sans-Serif" font-size="10.00">limits</text>
</g>
<!-- Node13&#45;&gt;Node18 -->
<g id="edge32" class="edge"><title>Node13&#45;&gt;Node18</title>
<path fill="none" stroke="midnightblue" d="M594.038,-190.396C588.137,-180.562 580.227,-167.378 573.935,-156.892"/>
<polygon fill="midnightblue" stroke="midnightblue" points="576.863,-154.969 568.717,-148.195 570.86,-158.57 576.863,-154.969"/>
</g>
<!-- Node19 -->
<g id="node20" class="node"><title>Node19</title>
<g id="a_node20"><a xlink:href="_scoring_object_8h.html" target="_top" xlink:title="ScoringObject.h">
<polygon fill="white" stroke="black" points="221.5,-129 221.5,-148 307.5,-148 307.5,-129 221.5,-129"/>
<text text-anchor="middle" x="264.5" y="-136" font-family="Helvetica,sans-Serif" font-size="10.00">ScoringObject.h</text>
</a>
</g>
</g>
<!-- Node13&#45;&gt;Node19 -->
<g id="edge35" class="edge"><title>Node13&#45;&gt;Node19</title>
<path fill="none" stroke="midnightblue" d="M522.26,-191.643C465.89,-182.229 388.833,-168.595 321.5,-154 316.513,-152.919 311.302,-151.708 306.143,-150.458"/>
<polygon fill="midnightblue" stroke="midnightblue" points="306.909,-147.042 296.361,-148.032 305.224,-153.836 306.909,-147.042"/>
</g>
<!-- Node20 -->
<g id="node21" class="node"><title>Node20</title>
<g id="a_node21"><a xlink:href="_random_8h.html" target="_top" xlink:title="../DUtils/Random.h">
<polygon fill="white" stroke="black" points="602,-129 602,-148 703,-148 703,-129 602,-129"/>
<text text-anchor="middle" x="652.5" y="-136" font-family="Helvetica,sans-Serif" font-size="10.00">../DUtils/Random.h</text>
</a>
</g>
</g>
<!-- Node13&#45;&gt;Node20 -->
<g id="edge37" class="edge"><title>Node13&#45;&gt;Node20</title>
<path fill="none" stroke="midnightblue" d="M613.349,-190.396C621.068,-180.361 631.471,-166.838 639.613,-156.253"/>
<polygon fill="midnightblue" stroke="midnightblue" points="642.489,-158.255 645.812,-148.195 636.941,-153.987 642.489,-158.255"/>
</g>
<!-- Node19&#45;&gt;Node4 -->
<g id="edge36" class="edge"><title>Node19&#45;&gt;Node4</title>
<path fill="none" stroke="midnightblue" d="M257.082,-128.734C249.649,-119.949 237.912,-106.078 227.956,-94.3111"/>
<polygon fill="midnightblue" stroke="midnightblue" points="230.553,-91.9621 221.421,-86.589 225.209,-96.4837 230.553,-91.9621"/>
</g>
<!-- Node20&#45;&gt;Node3 -->
<g id="edge39" class="edge"><title>Node20&#45;&gt;Node3</title>
<path fill="none" stroke="midnightblue" d="M657.93,-128.805C670.84,-108.133 703.564,-55.7323 720.685,-28.3176"/>
<polygon fill="midnightblue" stroke="midnightblue" points="723.704,-30.0915 726.032,-19.7557 717.766,-26.3836 723.704,-30.0915"/>
</g>
<!-- Node21 -->
<g id="node22" class="node"><title>Node21</title>
<polygon fill="white" stroke="#bfbfbf" points="620,-62 620,-81 665,-81 665,-62 620,-62"/>
<text text-anchor="middle" x="642.5" y="-69" font-family="Helvetica,sans-Serif" font-size="10.00">cstdlib</text>
</g>
<!-- Node20&#45;&gt;Node21 -->
<g id="edge38" class="edge"><title>Node20&#45;&gt;Node21</title>
<path fill="none" stroke="midnightblue" d="M651.151,-128.734C649.682,-119.183 647.287,-103.618 645.39,-91.2829"/>
<polygon fill="midnightblue" stroke="midnightblue" points="648.807,-90.4788 643.827,-81.1273 641.889,-91.5432 648.807,-90.4788"/>
</g>
<!-- Node23&#45;&gt;Node8 -->
<g id="edge42" class="edge"><title>Node23&#45;&gt;Node8</title>
<path fill="none" stroke="midnightblue" d="M357.805,-328.029C400.724,-318.465 495.692,-297.302 553.886,-284.334"/>
<polygon fill="midnightblue" stroke="midnightblue" points="554.952,-287.682 563.951,-282.09 553.429,-280.849 554.952,-287.682"/>
</g>
<!-- Node24 -->
<g id="node25" class="node"><title>Node24</title>
<polygon fill="white" stroke="#bfbfbf" points="468.5,-263 468.5,-282 498.5,-282 498.5,-263 468.5,-263"/>
<text text-anchor="middle" x="483.5" y="-270" font-family="Helvetica,sans-Serif" font-size="10.00">set</text>
</g>
<!-- Node23&#45;&gt;Node24 -->
<g id="edge43" class="edge"><title>Node23&#45;&gt;Node24</title>
<path fill="none" stroke="midnightblue" d="M356.705,-324.475C383.731,-313.61 430.362,-294.863 458.915,-283.384"/>
<polygon fill="midnightblue" stroke="midnightblue" points="460.227,-286.629 468.199,-279.651 457.616,-280.134 460.227,-286.629"/>
</g>
<!-- Node23&#45;&gt;Node25 -->
<g id="edge44" class="edge"><title>Node23&#45;&gt;Node25</title>
<path fill="none" stroke="midnightblue" d="M319.883,-324.475C301.914,-314.666 272.179,-298.435 251.094,-286.925"/>
<polygon fill="midnightblue" stroke="midnightblue" points="252.542,-283.728 242.088,-282.009 249.189,-289.873 252.542,-283.728"/>
</g>
<!-- Node23&#45;&gt;Node26 -->
<g id="edge45" class="edge"><title>Node23&#45;&gt;Node26</title>
<path fill="none" stroke="midnightblue" d="M313.285,-326.29C284.713,-317.661 234.077,-302.367 194.636,-290.455"/>
<polygon fill="midnightblue" stroke="midnightblue" points="195.455,-287.046 184.871,-287.505 193.432,-293.747 195.455,-287.046"/>
</g>
<!-- Node27&#45;&gt;Node3 -->
<g id="edge53" class="edge"><title>Node27&#45;&gt;Node3</title>
<path fill="none" stroke="midnightblue" d="M1215.45,-380.318C1237.98,-362.844 1284.5,-321.014 1284.5,-273.5 1284.5,-273.5 1284.5,-273.5 1284.5,-137.5 1284.5,-84.1921 1245.14,-77.823 1196.5,-56 1118.82,-21.1471 855.829,-13.1947 763.701,-11.4613"/>
<polygon fill="midnightblue" stroke="midnightblue" points="763.644,-7.95981 753.584,-11.2833 763.521,-14.9587 763.644,-7.95981"/>
</g>
<!-- Node27&#45;&gt;Node10 -->
<g id="edge55" class="edge"><title>Node27&#45;&gt;Node10</title>
<path fill="none" stroke="midnightblue" d="M1199.19,-380.259C1190.24,-361.303 1170.5,-314.792 1170.5,-273.5 1170.5,-273.5 1170.5,-273.5 1170.5,-204.5 1170.5,-166.74 1166.02,-155.325 1146.5,-123 1138.21,-109.264 1125.28,-96.6843 1114.38,-87.5157"/>
<polygon fill="midnightblue" stroke="midnightblue" points="1116.54,-84.7611 1106.56,-81.2068 1112.15,-90.2095 1116.54,-84.7611"/>
</g>
<!-- Node28 -->
<g id="node29" class="node"><title>Node28</title>
<polygon fill="white" stroke="#bfbfbf" points="1075,-324.5 1075,-343.5 1104,-343.5 1104,-324.5 1075,-324.5"/>
<text text-anchor="middle" x="1089.5" y="-331.5" font-family="Helvetica,sans-Serif" font-size="10.00">list</text>
</g>
<!-- Node27&#45;&gt;Node28 -->
<g id="edge54" class="edge"><title>Node27&#45;&gt;Node28</title>
<path fill="none" stroke="midnightblue" d="M1185.44,-380.444C1165.95,-371.211 1134.82,-356.467 1113.33,-346.289"/>
<polygon fill="midnightblue" stroke="midnightblue" points="1114.75,-343.089 1104.22,-341.971 1111.76,-349.415 1114.75,-343.089"/>
</g>
<!-- Node29&#45;&gt;Node0 -->
<g id="edge61" class="edge"><title>Node29&#45;&gt;Node0</title>
<path fill="none" stroke="midnightblue" d="M479.331,-399.658C460.19,-408.272 427.795,-421.746 400.224,-432.658"/>
<polygon fill="midnightblue" stroke="midnightblue" points="398.73,-429.485 390.703,-436.399 401.29,-436 398.73,-429.485"/>
</g>
<!-- Node29&#45;&gt;Node2 -->
<g id="edge62" class="edge"><title>Node29&#45;&gt;Node2</title>
<path fill="none" stroke="midnightblue" d="M486.418,-380.083C478.329,-372.141 466.305,-360.335 456.59,-350.797"/>
<polygon fill="midnightblue" stroke="midnightblue" points="459.001,-348.26 449.413,-343.751 454.097,-353.254 459.001,-348.26"/>
</g>
<!-- Node29&#45;&gt;Node3 -->
<g id="edge58" class="edge"><title>Node29&#45;&gt;Node3</title>
<path fill="none" stroke="midnightblue" d="M551.645,-388.827C703.632,-384.862 1116.02,-349.699 1180.5,-87 1183.78,-73.6194 1189.74,-66.2166 1180.5,-56 1152.6,-25.1686 862.206,-14.5264 763.857,-11.7911"/>
<polygon fill="midnightblue" stroke="midnightblue" points="763.72,-8.28629 753.63,-11.5162 763.532,-15.2838 763.72,-8.28629"/>
</g>
<!-- Node29&#45;&gt;Node8 -->
<g id="edge63" class="edge"><title>Node29&#45;&gt;Node8</title>
<path fill="none" stroke="midnightblue" d="M503.542,-380.319C521.358,-361.088 564.387,-314.641 587.395,-289.805"/>
<polygon fill="midnightblue" stroke="midnightblue" points="590.136,-291.996 594.364,-282.282 585.001,-287.239 590.136,-291.996"/>
</g>
<!-- Node29&#45;&gt;Node24 -->
<g id="edge60" class="edge"><title>Node29&#45;&gt;Node24</title>
<path fill="none" stroke="midnightblue" d="M494.598,-380.319C492.67,-361.757 488.107,-317.839 485.471,-292.473"/>
<polygon fill="midnightblue" stroke="midnightblue" points="488.927,-291.867 484.412,-282.282 481.965,-292.59 488.927,-291.867"/>
</g>
<!-- Node29&#45;&gt;Node25 -->
<g id="edge64" class="edge"><title>Node29&#45;&gt;Node25</title>
<path fill="none" stroke="midnightblue" d="M477.648,-380.337C459.251,-371.371 429.775,-356.898 404.5,-344 387.5,-335.325 384.012,-331.588 366.5,-324 321.619,-304.554 308.311,-305.143 262.5,-288 260.654,-287.309 258.76,-286.587 256.853,-285.85"/>
<polygon fill="midnightblue" stroke="midnightblue" points="257.958,-282.523 247.371,-282.111 255.39,-289.035 257.958,-282.523"/>
</g>
<!-- Node29&#45;&gt;Node28 -->
<g id="edge59" class="edge"><title>Node29&#45;&gt;Node28</title>
<path fill="none" stroke="midnightblue" d="M551.786,-388.624C654.025,-387.033 876.668,-379.392 1060.5,-344 1061.99,-343.713 1063.51,-343.378 1065.03,-343.008"/>
<polygon fill="midnightblue" stroke="midnightblue" points="1066.23,-346.305 1074.91,-340.22 1064.33,-339.569 1066.23,-346.305"/>
</g>
</g>
</svg>
