<?xml version="1.0" encoding="UTF-8" standalone="no"?>
<!DOCTYPE svg PUBLIC "-//W3C//DTD SVG 1.1//EN"
 "http://www.w3.org/Graphics/SVG/1.1/DTD/svg11.dtd">
<!-- Generated by graphviz version 2.40.1 (20161225.0304)
 -->
<!-- Title: /home/alejandro/Desarrollo eclipse/os1/src/KeyFrameDatabase.cc Pages: 1 -->
<svg width="1317pt" height="554pt"
 viewBox="0.00 0.00 1317.00 554.00" xmlns="http://www.w3.org/2000/svg" xmlns:xlink="http://www.w3.org/1999/xlink">
<g id="graph0" class="graph" transform="scale(1 1) rotate(0) translate(4 550)">
<title>/home/alejandro/Desarrollo eclipse/os1/src/KeyFrameDatabase.cc</title>
<polygon fill="#ffffff" stroke="transparent" points="-4,4 -4,-550 1313,-550 1313,4 -4,4"/>
<!-- Node0 -->
<g id="node1" class="node">
<title>Node0</title>
<polygon fill="#bfbfbf" stroke="#000000" points="195.5,-515.5 195.5,-545.5 384.5,-545.5 384.5,-515.5 195.5,-515.5"/>
<text text-anchor="start" x="203.5" y="-533.5" font-family="Helvetica,sans-Serif" font-size="10.00" fill="#000000">/home/alejandro/Desarrollo</text>
<text text-anchor="middle" x="290" y="-522.5" font-family="Helvetica,sans-Serif" font-size="10.00" fill="#000000"> eclipse/os1/src/KeyFrameDatabase.cc</text>
</g>
<!-- Node1 -->
<g id="node2" class="node">
<title>Node1</title>
<polygon fill="#ffffff" stroke="#bfbfbf" points="28,-.5 28,-19.5 82,-19.5 82,-.5 28,-.5"/>
<text text-anchor="middle" x="55" y="-7.5" font-family="Helvetica,sans-Serif" font-size="10.00" fill="#000000">iostream</text>
</g>
<!-- Node0&#45;&gt;Node1 -->
<g id="edge1" class="edge">
<title>Node0&#45;&gt;Node1</title>
<path fill="none" stroke="#191970" d="M214.563,-515.4321C128.6373,-496.0541 0,-459.3102 0,-413 0,-413 0,-413 0,-122 0,-85.6071 23.6865,-48.7455 39.971,-27.7035"/>
<polygon fill="#191970" stroke="#191970" points="42.8667,-29.6876 46.4063,-19.7015 37.4118,-25.3008 42.8667,-29.6876"/>
</g>
<!-- Node2 -->
<g id="node3" class="node">
<title>Node2</title>
<g id="a_node3"><a xlink:href="_key_frame_database_8h.html" target="_top" xlink:title="KeyFrameDatabase.h">
<polygon fill="#ffffff" stroke="#000000" points="643,-291.5 643,-310.5 755,-310.5 755,-291.5 643,-291.5"/>
<text text-anchor="middle" x="699" y="-298.5" font-family="Helvetica,sans-Serif" font-size="10.00" fill="#000000">KeyFrameDatabase.h</text>
</a>
</g>
</g>
<!-- Node0&#45;&gt;Node2 -->
<g id="edge2" class="edge">
<title>Node0&#45;&gt;Node2</title>
<path fill="none" stroke="#191970" d="M384.6772,-519.904C425.6241,-512.5101 472.9923,-500.0246 512,-479 589.4745,-437.2423 658.117,-354.82 685.8954,-318.6824"/>
<polygon fill="#191970" stroke="#191970" points="688.8108,-320.6301 692.0578,-310.545 683.2304,-316.404 688.8108,-320.6301"/>
</g>
<!-- Node19 -->
<g id="node20" class="node">
<title>Node19</title>
<g id="a_node20"><a xlink:href="_bow_vector_8h.html" target="_top" xlink:title="BowVector.h">
<polygon fill="#ffffff" stroke="#000000" points="159.5,-56.5 159.5,-75.5 232.5,-75.5 232.5,-56.5 159.5,-56.5"/>
<text text-anchor="middle" x="196" y="-63.5" font-family="Helvetica,sans-Serif" font-size="10.00" fill="#000000">BowVector.h</text>
</a>
</g>
</g>
<!-- Node0&#45;&gt;Node19 -->
<g id="edge64" class="edge">
<title>Node0&#45;&gt;Node19</title>
<path fill="none" stroke="#191970" d="M243.1719,-515.4674C199.8125,-498.2675 142,-465.4921 142,-413 142,-413 142,-413 142,-183.5 142,-145.2202 165.9553,-105.8076 181.9553,-83.7528"/>
<polygon fill="#191970" stroke="#191970" points="184.8181,-85.7692 188.0321,-75.6736 179.2239,-81.5615 184.8181,-85.7692"/>
</g>
<!-- Node24 -->
<g id="node25" class="node">
<title>Node24</title>
<g id="a_node25"><a xlink:href="_frame_8h.html" target="_top" xlink:title="Frame.h">
<polygon fill="#ffffff" stroke="#000000" points="450.5,-459.5 450.5,-478.5 503.5,-478.5 503.5,-459.5 450.5,-459.5"/>
<text text-anchor="middle" x="477" y="-466.5" font-family="Helvetica,sans-Serif" font-size="10.00" fill="#000000">Frame.h</text>
</a>
</g>
</g>
<!-- Node0&#45;&gt;Node24 -->
<g id="edge39" class="edge">
<title>Node0&#45;&gt;Node24</title>
<path fill="none" stroke="#191970" d="M335.7453,-515.4554C368.0948,-504.8164 410.8695,-490.7488 440.8401,-480.8922"/>
<polygon fill="#191970" stroke="#191970" points="442.0736,-484.171 450.4796,-477.7219 439.8867,-477.5214 442.0736,-484.171"/>
</g>
<!-- Node26 -->
<g id="node27" class="node">
<title>Node26</title>
<g id="a_node27"><a xlink:href="_key_frame_8h.html" target="_top" xlink:title="KeyFrame.h">
<polygon fill="#ffffff" stroke="#000000" points="379,-347.5 379,-366.5 449,-366.5 449,-347.5 379,-347.5"/>
<text text-anchor="middle" x="414" y="-354.5" font-family="Helvetica,sans-Serif" font-size="10.00" fill="#000000">KeyFrame.h</text>
</a>
</g>
</g>
<!-- Node0&#45;&gt;Node26 -->
<g id="edge63" class="edge">
<title>Node0&#45;&gt;Node26</title>
<path fill="none" stroke="#191970" d="M287.8993,-515.3653C285.1744,-489.5161 283.44,-436.4203 309,-403 323.5736,-383.9447 347.7021,-372.6356 369.1565,-366.0026"/>
<polygon fill="#191970" stroke="#191970" points="370.1161,-369.3686 378.7818,-363.2731 368.2063,-362.6341 370.1161,-369.3686"/>
</g>
<!-- Node3 -->
<g id="node4" class="node">
<title>Node3</title>
<polygon fill="#ffffff" stroke="#bfbfbf" points="1041,-.5 1041,-19.5 1085,-19.5 1085,-.5 1041,-.5"/>
<text text-anchor="middle" x="1063" y="-7.5" font-family="Helvetica,sans-Serif" font-size="10.00" fill="#000000">vector</text>
</g>
<!-- Node2&#45;&gt;Node3 -->
<g id="edge3" class="edge">
<title>Node2&#45;&gt;Node3</title>
<path fill="none" stroke="#191970" d="M724.4031,-291.3892C762.6426,-277.2418 837.4995,-250.7847 903,-235 1000.6002,-211.4796 1042.9327,-255.3811 1126,-199 1180.7053,-161.8693 1203.0771,-111.4058 1167,-56 1151.1638,-31.6794 1119.2228,-20.122 1094.8941,-14.6893"/>
<polygon fill="#191970" stroke="#191970" points="1095.4941,-11.2401 1085.0027,-12.7166 1094.125,-18.1049 1095.4941,-11.2401"/>
</g>
<!-- Node4 -->
<g id="node5" class="node">
<title>Node4</title>
<polygon fill="#ffffff" stroke="#bfbfbf" points="911.5,-235.5 911.5,-254.5 940.5,-254.5 940.5,-235.5 911.5,-235.5"/>
<text text-anchor="middle" x="926" y="-242.5" font-family="Helvetica,sans-Serif" font-size="10.00" fill="#000000">list</text>
</g>
<!-- Node2&#45;&gt;Node4 -->
<g id="edge4" class="edge">
<title>Node2&#45;&gt;Node4</title>
<path fill="none" stroke="#191970" d="M746.1597,-291.4847C786.4989,-283.0031 845.9587,-269.6864 897,-255 898.4714,-254.5766 899.9781,-254.1222 901.4936,-253.6491"/>
<polygon fill="#191970" stroke="#191970" points="902.9499,-256.8537 911.3413,-250.3857 900.7479,-250.2091 902.9499,-256.8537"/>
</g>
<!-- Node5 -->
<g id="node6" class="node">
<title>Node5</title>
<polygon fill="#ffffff" stroke="#bfbfbf" points="682,-235.5 682,-254.5 712,-254.5 712,-235.5 682,-235.5"/>
<text text-anchor="middle" x="697" y="-242.5" font-family="Helvetica,sans-Serif" font-size="10.00" fill="#000000">set</text>
</g>
<!-- Node2&#45;&gt;Node5 -->
<g id="edge5" class="edge">
<title>Node2&#45;&gt;Node5</title>
<path fill="none" stroke="#191970" d="M698.6516,-291.2455C698.3907,-283.9382 698.0248,-273.6944 697.7037,-264.7046"/>
<polygon fill="#191970" stroke="#191970" points="701.1992,-264.5113 697.3444,-254.6427 694.2036,-264.7613 701.1992,-264.5113"/>
</g>
<!-- Node6 -->
<g id="node7" class="node">
<title>Node6</title>
<polygon fill="#ffffff" stroke="#bfbfbf" points="480,-235.5 480,-254.5 524,-254.5 524,-235.5 480,-235.5"/>
<text text-anchor="middle" x="502" y="-242.5" font-family="Helvetica,sans-Serif" font-size="10.00" fill="#000000">mutex</text>
</g>
<!-- Node2&#45;&gt;Node6 -->
<g id="edge6" class="edge">
<title>Node2&#45;&gt;Node6</title>
<path fill="none" stroke="#191970" d="M665.1345,-291.3733C628.3881,-280.9276 570.1545,-264.3739 534.1102,-254.1278"/>
<polygon fill="#191970" stroke="#191970" points="534.7028,-250.6576 524.1268,-251.2899 532.7887,-257.3909 534.7028,-250.6576"/>
</g>
<!-- Node7 -->
<g id="node8" class="node">
<title>Node7</title>
<g id="a_node8"><a xlink:href="_o_r_b_vocabulary_8h.html" target="_top" xlink:title="ORBVocabulary.h">
<polygon fill="#ffffff" stroke="#000000" points="567.5,-235.5 567.5,-254.5 662.5,-254.5 662.5,-235.5 567.5,-235.5"/>
<text text-anchor="middle" x="615" y="-242.5" font-family="Helvetica,sans-Serif" font-size="10.00" fill="#000000">ORBVocabulary.h</text>
</a>
</g>
</g>
<!-- Node2&#45;&gt;Node7 -->
<g id="edge7" class="edge">
<title>Node2&#45;&gt;Node7</title>
<path fill="none" stroke="#191970" d="M684.3683,-291.2455C671.6006,-282.7337 652.8562,-270.2375 638.0701,-260.3801"/>
<polygon fill="#191970" stroke="#191970" points="639.726,-257.2775 629.464,-254.6427 635.8431,-263.1019 639.726,-257.2775"/>
</g>
<!-- Node8 -->
<g id="node9" class="node">
<title>Node8</title>
<g id="a_node9"><a xlink:href="_f_o_r_b_8h.html" target="_top" xlink:title="../Thirdparty/DBoW2\l/DBoW2/FORB.h">
<polygon fill="#ffffff" stroke="#000000" points="1009.5,-168.5 1009.5,-198.5 1116.5,-198.5 1116.5,-168.5 1009.5,-168.5"/>
<text text-anchor="start" x="1017.5" y="-186.5" font-family="Helvetica,sans-Serif" font-size="10.00" fill="#000000">../Thirdparty/DBoW2</text>
<text text-anchor="middle" x="1063" y="-175.5" font-family="Helvetica,sans-Serif" font-size="10.00" fill="#000000">/DBoW2/FORB.h</text>
</a>
</g>
</g>
<!-- Node7&#45;&gt;Node8 -->
<g id="edge8" class="edge">
<title>Node7&#45;&gt;Node8</title>
<path fill="none" stroke="#191970" d="M662.7686,-236.6104C666.2285,-236.0499 669.6664,-235.5073 673,-235 787.6963,-217.5464 921.9004,-200.5796 999.2197,-191.1386"/>
<polygon fill="#191970" stroke="#191970" points="999.7796,-194.5964 1009.2832,-189.9132 998.9334,-187.6477 999.7796,-194.5964"/>
</g>
<!-- Node12 -->
<g id="node13" class="node">
<title>Node12</title>
<g id="a_node13"><a xlink:href="_templated_vocabulary_8h.html" target="_top" xlink:title="../Thirdparty/DBoW2\l/DBoW2/TemplatedVocabulary.h">
<polygon fill="#ffffff" stroke="#000000" points="535,-168.5 535,-198.5 695,-198.5 695,-168.5 535,-168.5"/>
<text text-anchor="start" x="543" y="-186.5" font-family="Helvetica,sans-Serif" font-size="10.00" fill="#000000">../Thirdparty/DBoW2</text>
<text text-anchor="middle" x="615" y="-175.5" font-family="Helvetica,sans-Serif" font-size="10.00" fill="#000000">/DBoW2/TemplatedVocabulary.h</text>
</a>
</g>
</g>
<!-- Node7&#45;&gt;Node12 -->
<g id="edge16" class="edge">
<title>Node7&#45;&gt;Node12</title>
<path fill="none" stroke="#191970" d="M615,-235.3906C615,-228.2234 615,-218.0862 615,-208.671"/>
<polygon fill="#191970" stroke="#191970" points="618.5001,-208.5446 615,-198.5446 611.5001,-208.5446 618.5001,-208.5446"/>
</g>
<!-- Node8&#45;&gt;Node3 -->
<g id="edge10" class="edge">
<title>Node8&#45;&gt;Node3</title>
<path fill="none" stroke="#191970" d="M1105.1722,-168.4079C1121.5128,-160.2745 1138.5371,-148.4524 1148,-132 1164.8424,-102.7174 1166.3626,-84.9772 1149,-56 1137.2907,-36.4577 1114.134,-24.7508 1094.7972,-18.0412"/>
<polygon fill="#191970" stroke="#191970" points="1095.7046,-14.6573 1085.1144,-14.973 1093.5901,-21.3303 1095.7046,-14.6573"/>
</g>
<!-- Node9 -->
<g id="node10" class="node">
<title>Node9</title>
<polygon fill="#ffffff" stroke="#bfbfbf" points="911,-56.5 911,-75.5 1027,-75.5 1027,-56.5 911,-56.5"/>
<text text-anchor="middle" x="969" y="-63.5" font-family="Helvetica,sans-Serif" font-size="10.00" fill="#000000">opencv2/core/core.hpp</text>
</g>
<!-- Node8&#45;&gt;Node9 -->
<g id="edge9" class="edge">
<title>Node8&#45;&gt;Node9</title>
<path fill="none" stroke="#191970" d="M1050.7111,-168.1389C1033.2365,-146.2957 1001.2979,-106.3724 982.954,-83.4424"/>
<polygon fill="#191970" stroke="#191970" points="985.6276,-81.1817 976.6476,-75.5595 980.1615,-85.5546 985.6276,-81.1817"/>
</g>
<!-- Node10 -->
<g id="node11" class="node">
<title>Node10</title>
<polygon fill="#ffffff" stroke="#bfbfbf" points="1098.5,-56.5 1098.5,-75.5 1139.5,-75.5 1139.5,-56.5 1098.5,-56.5"/>
<text text-anchor="middle" x="1119" y="-63.5" font-family="Helvetica,sans-Serif" font-size="10.00" fill="#000000">string</text>
</g>
<!-- Node8&#45;&gt;Node10 -->
<g id="edge11" class="edge">
<title>Node8&#45;&gt;Node10</title>
<path fill="none" stroke="#191970" d="M1095.4543,-168.3708C1109.727,-159.8631 1125.0331,-147.7522 1133,-132 1140.4143,-117.3404 1135.5028,-98.9341 1129.5455,-85.2862"/>
<polygon fill="#191970" stroke="#191970" points="1132.5047,-83.3695 1124.9729,-75.9181 1126.214,-86.44 1132.5047,-83.3695"/>
</g>
<!-- Node11 -->
<g id="node12" class="node">
<title>Node11</title>
<g id="a_node12"><a xlink:href="_f_class_8h.html" target="_top" xlink:title="FClass.h">
<polygon fill="#ffffff" stroke="#000000" points="1035,-112.5 1035,-131.5 1091,-131.5 1091,-112.5 1035,-112.5"/>
<text text-anchor="middle" x="1063" y="-119.5" font-family="Helvetica,sans-Serif" font-size="10.00" fill="#000000">FClass.h</text>
</a>
</g>
</g>
<!-- Node8&#45;&gt;Node11 -->
<g id="edge12" class="edge">
<title>Node8&#45;&gt;Node11</title>
<path fill="none" stroke="#191970" d="M1063,-168.2977C1063,-160.3834 1063,-150.6043 1063,-142.0759"/>
<polygon fill="#191970" stroke="#191970" points="1066.5001,-141.8469 1063,-131.8469 1059.5001,-141.847 1066.5001,-141.8469"/>
</g>
<!-- Node11&#45;&gt;Node3 -->
<g id="edge14" class="edge">
<title>Node11&#45;&gt;Node3</title>
<path fill="none" stroke="#191970" d="M1063,-112.4509C1063,-94.184 1063,-53.9553 1063,-29.6976"/>
<polygon fill="#191970" stroke="#191970" points="1066.5001,-29.5249 1063,-19.5249 1059.5001,-29.5249 1066.5001,-29.5249"/>
</g>
<!-- Node11&#45;&gt;Node9 -->
<g id="edge13" class="edge">
<title>Node11&#45;&gt;Node9</title>
<path fill="none" stroke="#191970" d="M1046.6264,-112.2455C1032.0692,-103.5731 1010.569,-90.7645 993.8848,-80.825"/>
<polygon fill="#191970" stroke="#191970" points="995.5683,-77.7539 985.1859,-75.6427 991.9856,-83.7676 995.5683,-77.7539"/>
</g>
<!-- Node11&#45;&gt;Node10 -->
<g id="edge15" class="edge">
<title>Node11&#45;&gt;Node10</title>
<path fill="none" stroke="#191970" d="M1072.7545,-112.2455C1080.8648,-104.1352 1092.5925,-92.4075 1102.2081,-82.7919"/>
<polygon fill="#191970" stroke="#191970" points="1104.7611,-85.1887 1109.3573,-75.6427 1099.8113,-80.2389 1104.7611,-85.1887"/>
</g>
<!-- Node12&#45;&gt;Node3 -->
<g id="edge18" class="edge">
<title>Node12&#45;&gt;Node3</title>
<path fill="none" stroke="#191970" d="M622.5269,-168.2214C631.3909,-151.834 647.6529,-126.2509 669,-112 786.1035,-33.8241 959.6276,-15.55 1030.7828,-11.2898"/>
<polygon fill="#191970" stroke="#191970" points="1031.1154,-14.777 1040.9102,-10.7383 1030.7347,-7.7874 1031.1154,-14.777"/>
</g>
<!-- Node12&#45;&gt;Node9 -->
<g id="edge23" class="edge">
<title>Node12&#45;&gt;Node9</title>
<path fill="none" stroke="#191970" d="M695.1279,-176.1558C747.6149,-169.2948 816.825,-156.2901 874,-132 903.0687,-119.6505 932.2743,-97.5665 950.4785,-82.3687"/>
<polygon fill="#191970" stroke="#191970" points="953.1506,-84.6894 958.4825,-75.534 948.605,-79.3661 953.1506,-84.6894"/>
</g>
<!-- Node12&#45;&gt;Node10 -->
<g id="edge21" class="edge">
<title>Node12&#45;&gt;Node10</title>
<path fill="none" stroke="#191970" d="M695.0994,-179.8384C824.865,-173.1963 1069.6761,-157.4454 1100,-132 1113.2471,-120.8841 1117.5826,-101.1801 1118.8522,-86.1866"/>
<polygon fill="#191970" stroke="#191970" points="1122.3638,-86.0082 1119.3222,-75.8594 1115.3711,-85.6899 1122.3638,-86.0082"/>
</g>
<!-- Node13 -->
<g id="node14" class="node">
<title>Node13</title>
<polygon fill="#ffffff" stroke="#bfbfbf" points="678.5,-112.5 678.5,-131.5 727.5,-131.5 727.5,-112.5 678.5,-112.5"/>
<text text-anchor="middle" x="703" y="-119.5" font-family="Helvetica,sans-Serif" font-size="10.00" fill="#000000">cassert</text>
</g>
<!-- Node12&#45;&gt;Node13 -->
<g id="edge17" class="edge">
<title>Node12&#45;&gt;Node13</title>
<path fill="none" stroke="#191970" d="M636.7528,-168.2977C650.1968,-158.9022 667.4011,-146.8787 680.9078,-137.4395"/>
<polygon fill="#191970" stroke="#191970" points="682.9811,-140.2605 689.1729,-131.6633 678.9712,-134.5228 682.9811,-140.2605"/>
</g>
<!-- Node14 -->
<g id="node15" class="node">
<title>Node14</title>
<polygon fill="#ffffff" stroke="#bfbfbf" points="745.5,-112.5 745.5,-131.5 796.5,-131.5 796.5,-112.5 745.5,-112.5"/>
<text text-anchor="middle" x="771" y="-119.5" font-family="Helvetica,sans-Serif" font-size="10.00" fill="#000000">numeric</text>
</g>
<!-- Node12&#45;&gt;Node14 -->
<g id="edge19" class="edge">
<title>Node12&#45;&gt;Node14</title>
<path fill="none" stroke="#191970" d="M653.1619,-168.4554C678.9626,-158.284 712.7126,-144.9787 737.4778,-135.2155"/>
<polygon fill="#191970" stroke="#191970" points="738.806,-138.4541 746.8255,-131.5303 736.2387,-131.9419 738.806,-138.4541"/>
</g>
<!-- Node15 -->
<g id="node16" class="node">
<title>Node15</title>
<polygon fill="#ffffff" stroke="#bfbfbf" points="815,-112.5 815,-131.5 865,-131.5 865,-112.5 815,-112.5"/>
<text text-anchor="middle" x="840" y="-119.5" font-family="Helvetica,sans-Serif" font-size="10.00" fill="#000000">fstream</text>
</g>
<!-- Node12&#45;&gt;Node15 -->
<g id="edge20" class="edge">
<title>Node12&#45;&gt;Node15</title>
<path fill="none" stroke="#191970" d="M671.1725,-168.4892C709.0244,-158.3214 760.058,-144.5105 805,-132 805.0989,-131.9725 805.198,-131.9449 805.2972,-131.9172"/>
<polygon fill="#191970" stroke="#191970" points="806.0978,-135.328 814.7765,-129.251 804.2024,-128.5894 806.0978,-135.328"/>
</g>
<!-- Node16 -->
<g id="node17" class="node">
<title>Node16</title>
<polygon fill="#ffffff" stroke="#bfbfbf" points="284,-112.5 284,-131.5 340,-131.5 340,-112.5 284,-112.5"/>
<text text-anchor="middle" x="312" y="-119.5" font-family="Helvetica,sans-Serif" font-size="10.00" fill="#000000">algorithm</text>
</g>
<!-- Node12&#45;&gt;Node16 -->
<g id="edge22" class="edge">
<title>Node12&#45;&gt;Node16</title>
<path fill="none" stroke="#191970" d="M534.9482,-169.5699C484.459,-160.4172 417.6988,-147.6466 350.192,-132.1606"/>
<polygon fill="#191970" stroke="#191970" points="350.76,-128.6996 340.2284,-129.8561 349.1826,-135.5196 350.76,-128.6996"/>
</g>
<!-- Node17 -->
<g id="node18" class="node">
<title>Node17</title>
<polygon fill="#ffffff" stroke="#bfbfbf" points="358,-112.5 358,-131.5 398,-131.5 398,-112.5 358,-112.5"/>
<text text-anchor="middle" x="378" y="-119.5" font-family="Helvetica,sans-Serif" font-size="10.00" fill="#000000">limits</text>
</g>
<!-- Node12&#45;&gt;Node17 -->
<g id="edge24" class="edge">
<title>Node12&#45;&gt;Node17</title>
<path fill="none" stroke="#191970" d="M547.6135,-168.4257C509.096,-159.4345 459.7425,-147.2854 407.9118,-132.0972"/>
<polygon fill="#191970" stroke="#191970" points="408.7892,-128.7069 398.2071,-129.2259 406.8032,-135.4193 408.7892,-128.7069"/>
</g>
<!-- Node18 -->
<g id="node19" class="node">
<title>Node18</title>
<g id="a_node19"><a xlink:href="_feature_vector_8h.html" target="_top" xlink:title="FeatureVector.h">
<polygon fill="#ffffff" stroke="#000000" points="28,-112.5 28,-131.5 114,-131.5 114,-112.5 28,-112.5"/>
<text text-anchor="middle" x="71" y="-119.5" font-family="Helvetica,sans-Serif" font-size="10.00" fill="#000000">FeatureVector.h</text>
</a>
</g>
</g>
<!-- Node12&#45;&gt;Node18 -->
<g id="edge25" class="edge">
<title>Node12&#45;&gt;Node18</title>
<path fill="none" stroke="#191970" d="M534.7309,-174.4255C422.0921,-161.6915 220.1998,-138.8673 124.3382,-128.03"/>
<polygon fill="#191970" stroke="#191970" points="124.621,-124.5397 114.2911,-126.8941 123.8346,-131.4954 124.621,-124.5397"/>
</g>
<!-- Node12&#45;&gt;Node19 -->
<g id="edge33" class="edge">
<title>Node12&#45;&gt;Node19</title>
<path fill="none" stroke="#191970" d="M534.8452,-176.3864C449.3383,-167.9144 320.1133,-152.3173 275,-132 249.467,-120.5009 225.5946,-98.3533 210.9152,-82.9"/>
<polygon fill="#191970" stroke="#191970" points="213.4667,-80.5039 204.1167,-75.521 208.3186,-85.247 213.4667,-80.5039"/>
</g>
<!-- Node21 -->
<g id="node22" class="node">
<title>Node21</title>
<g id="a_node22"><a xlink:href="_scoring_object_8h.html" target="_top" xlink:title="ScoringObject.h">
<polygon fill="#ffffff" stroke="#000000" points="416,-112.5 416,-131.5 502,-131.5 502,-112.5 416,-112.5"/>
<text text-anchor="middle" x="459" y="-119.5" font-family="Helvetica,sans-Serif" font-size="10.00" fill="#000000">ScoringObject.h</text>
</a>
</g>
</g>
<!-- Node12&#45;&gt;Node21 -->
<g id="edge34" class="edge">
<title>Node12&#45;&gt;Node21</title>
<path fill="none" stroke="#191970" d="M576.8381,-168.4554C551.0374,-158.284 517.2874,-144.9787 492.5222,-135.2155"/>
<polygon fill="#191970" stroke="#191970" points="493.7613,-131.9419 483.1745,-131.5303 491.194,-138.4541 493.7613,-131.9419"/>
</g>
<!-- Node22 -->
<g id="node23" class="node">
<title>Node22</title>
<g id="a_node23"><a xlink:href="_random_8h.html" target="_top" xlink:title="../DUtils/Random.h">
<polygon fill="#ffffff" stroke="#000000" points="520.5,-112.5 520.5,-131.5 621.5,-131.5 621.5,-112.5 520.5,-112.5"/>
<text text-anchor="middle" x="571" y="-119.5" font-family="Helvetica,sans-Serif" font-size="10.00" fill="#000000">../DUtils/Random.h</text>
</a>
</g>
</g>
<!-- Node12&#45;&gt;Node22 -->
<g id="edge36" class="edge">
<title>Node12&#45;&gt;Node22</title>
<path fill="none" stroke="#191970" d="M604.1236,-168.2977C598.0159,-159.7609 590.3561,-149.0545 583.9412,-140.0883"/>
<polygon fill="#191970" stroke="#191970" points="586.7101,-137.9433 578.045,-131.8469 581.0171,-142.0163 586.7101,-137.9433"/>
</g>
<!-- Node18&#45;&gt;Node1 -->
<g id="edge32" class="edge">
<title>Node18&#45;&gt;Node1</title>
<path fill="none" stroke="#191970" d="M69.6358,-112.4509C67.0263,-94.184 61.2793,-53.9553 57.8139,-29.6976"/>
<polygon fill="#191970" stroke="#191970" points="61.2398,-28.9294 56.3607,-19.5249 54.3102,-29.9194 61.2398,-28.9294"/>
</g>
<!-- Node18&#45;&gt;Node3 -->
<g id="edge31" class="edge">
<title>Node18&#45;&gt;Node3</title>
<path fill="none" stroke="#191970" d="M80.8927,-112.3357C98.3315,-95.5471 134.1902,-62.1896 150,-56 233.2557,-23.405 877.3563,-12.551 1030.4354,-10.4188"/>
<polygon fill="#191970" stroke="#191970" points="1030.6428,-13.9163 1040.5941,-10.2801 1030.5472,-6.917 1030.6428,-13.9163"/>
</g>
<!-- Node18&#45;&gt;Node19 -->
<g id="edge26" class="edge">
<title>Node18&#45;&gt;Node19</title>
<path fill="none" stroke="#191970" d="M92.4883,-112.3733C112.644,-103.3435 142.988,-89.7494 165.618,-79.6111"/>
<polygon fill="#191970" stroke="#191970" points="167.0971,-82.7838 174.7921,-75.5011 164.2351,-76.3955 167.0971,-82.7838"/>
</g>
<!-- Node20 -->
<g id="node21" class="node">
<title>Node20</title>
<polygon fill="#ffffff" stroke="#bfbfbf" points="139.5,-.5 139.5,-19.5 174.5,-19.5 174.5,-.5 139.5,-.5"/>
<text text-anchor="middle" x="157" y="-7.5" font-family="Helvetica,sans-Serif" font-size="10.00" fill="#000000">map</text>
</g>
<!-- Node18&#45;&gt;Node20 -->
<g id="edge30" class="edge">
<title>Node18&#45;&gt;Node20</title>
<path fill="none" stroke="#191970" d="M77.2409,-112.3718C85.8113,-99.3114 101.8856,-75.3858 117,-56 124.6928,-46.1332 133.8107,-35.5696 141.397,-27.0569"/>
<polygon fill="#191970" stroke="#191970" points="144.0104,-29.3852 148.1047,-19.6134 138.8103,-24.6991 144.0104,-29.3852"/>
</g>
<!-- Node19&#45;&gt;Node1 -->
<g id="edge27" class="edge">
<title>Node19&#45;&gt;Node1</title>
<path fill="none" stroke="#191970" d="M171.7612,-56.3733C148.7211,-47.2226 113.8786,-33.3844 88.2499,-23.2057"/>
<polygon fill="#191970" stroke="#191970" points="89.5082,-19.9395 78.9225,-19.5011 86.9244,-26.4452 89.5082,-19.9395"/>
</g>
<!-- Node19&#45;&gt;Node3 -->
<g id="edge29" class="edge">
<title>Node19&#45;&gt;Node3</title>
<path fill="none" stroke="#191970" d="M232.7001,-63.6295C375.7963,-54.3869 895.0545,-20.8477 1030.5042,-12.0989"/>
<polygon fill="#191970" stroke="#191970" points="1030.8955,-15.581 1040.649,-11.4437 1030.4442,-8.5956 1030.8955,-15.581"/>
</g>
<!-- Node19&#45;&gt;Node20 -->
<g id="edge28" class="edge">
<title>Node19&#45;&gt;Node20</title>
<path fill="none" stroke="#191970" d="M189.2067,-56.2455C183.7822,-48.4564 176.0339,-37.3308 169.4967,-27.9439"/>
<polygon fill="#191970" stroke="#191970" points="172.3025,-25.8485 163.7154,-19.6427 166.5583,-29.849 172.3025,-25.8485"/>
</g>
<!-- Node21&#45;&gt;Node19 -->
<g id="edge35" class="edge">
<title>Node21&#45;&gt;Node19</title>
<path fill="none" stroke="#191970" d="M415.8654,-112.8154C368.2479,-102.6764 291.8586,-86.4109 242.8162,-75.9685"/>
<polygon fill="#191970" stroke="#191970" points="243.2961,-72.4923 232.7864,-73.8328 241.8382,-79.3388 243.2961,-72.4923"/>
</g>
<!-- Node22&#45;&gt;Node3 -->
<g id="edge38" class="edge">
<title>Node22&#45;&gt;Node3</title>
<path fill="none" stroke="#191970" d="M577.2101,-112.33C587.4341,-97.3383 609.3568,-68.8758 636,-56 705.7613,-22.2866 943.6826,-12.9951 1030.7464,-10.6921"/>
<polygon fill="#191970" stroke="#191970" points="1030.921,-14.1889 1040.83,-10.4392 1030.7453,-7.1911 1030.921,-14.1889"/>
</g>
<!-- Node23 -->
<g id="node24" class="node">
<title>Node23</title>
<polygon fill="#ffffff" stroke="#bfbfbf" points="538.5,-56.5 538.5,-75.5 583.5,-75.5 583.5,-56.5 538.5,-56.5"/>
<text text-anchor="middle" x="561" y="-63.5" font-family="Helvetica,sans-Serif" font-size="10.00" fill="#000000">cstdlib</text>
</g>
<!-- Node22&#45;&gt;Node23 -->
<g id="edge37" class="edge">
<title>Node22&#45;&gt;Node23</title>
<path fill="none" stroke="#191970" d="M569.2581,-112.2455C567.9533,-104.9382 566.124,-94.6944 564.5187,-85.7046"/>
<polygon fill="#191970" stroke="#191970" points="567.9254,-84.8717 562.7219,-75.6427 561.0344,-86.1022 567.9254,-84.8717"/>
</g>
<!-- Node24&#45;&gt;Node3 -->
<g id="edge40" class="edge">
<title>Node24&#45;&gt;Node3</title>
<path fill="none" stroke="#191970" d="M503.7398,-468.2827C646.1492,-464.1174 1309,-440.2582 1309,-357 1309,-357 1309,-357 1309,-122 1309,-87.6999 1296.8599,-76.008 1269,-56 1241.4207,-36.1934 1145.8203,-20.9574 1095.1322,-14.0539"/>
<polygon fill="#191970" stroke="#191970" points="1095.413,-10.5605 1085.0382,-12.7086 1094.4881,-17.4991 1095.413,-10.5605"/>
</g>
<!-- Node24&#45;&gt;Node7 -->
<g id="edge57" class="edge">
<title>Node24&#45;&gt;Node7</title>
<path fill="none" stroke="#191970" d="M486.696,-459.2478C509.4092,-435.8348 566.3725,-373.7221 596,-311 603.0025,-296.1756 607.964,-278.2357 611.0569,-264.8037"/>
<polygon fill="#191970" stroke="#191970" points="614.5385,-265.2608 613.2192,-254.7485 607.695,-263.7891 614.5385,-265.2608"/>
</g>
<!-- Node24&#45;&gt;Node18 -->
<g id="edge56" class="edge">
<title>Node24&#45;&gt;Node18</title>
<path fill="none" stroke="#191970" d="M450.1937,-467.1291C362.0816,-460.2546 87,-432.7284 87,-357 87,-357 87,-357 87,-245 87,-208.1919 79.867,-165.7016 75.1262,-141.5267"/>
<polygon fill="#191970" stroke="#191970" points="78.513,-140.617 73.0917,-131.5143 71.6532,-142.011 78.513,-140.617"/>
</g>
<!-- Node24&#45;&gt;Node19 -->
<g id="edge55" class="edge">
<title>Node24&#45;&gt;Node19</title>
<path fill="none" stroke="#191970" d="M450.258,-463.4146C384.0839,-448.8273 218,-407.2141 218,-357 218,-357 218,-357 218,-245 218,-186.7434 206.3785,-118.613 200.0287,-85.7354"/>
<polygon fill="#191970" stroke="#191970" points="203.4074,-84.7793 198.0303,-75.6504 196.5409,-86.14 203.4074,-84.7793"/>
</g>
<!-- Node25 -->
<g id="node26" class="node">
<title>Node25</title>
<g id="a_node26"><a xlink:href="_map_point_8h.html" target="_top" xlink:title="MapPoint.h">
<polygon fill="#ffffff" stroke="#000000" points="444,-403.5 444,-422.5 510,-422.5 510,-403.5 444,-403.5"/>
<text text-anchor="middle" x="477" y="-410.5" font-family="Helvetica,sans-Serif" font-size="10.00" fill="#000000">MapPoint.h</text>
</a>
</g>
</g>
<!-- Node24&#45;&gt;Node25 -->
<g id="edge41" class="edge">
<title>Node24&#45;&gt;Node25</title>
<path fill="none" stroke="#191970" d="M471.7332,-459.2455C470.3221,-451.9382 469.9179,-441.6944 470.5205,-432.7046"/>
<polygon fill="#191970" stroke="#191970" points="474.0111,-432.9945 471.7549,-422.6427 467.0632,-432.1421 474.0111,-432.9945"/>
</g>
<!-- Node28 -->
<g id="node29" class="node">
<title>Node28</title>
<g id="a_node29"><a xlink:href="_o_r_bextractor_8h.html" target="_top" xlink:title="ORBextractor.h">
<polygon fill="#ffffff" stroke="#000000" points="905.5,-291.5 905.5,-310.5 990.5,-310.5 990.5,-291.5 905.5,-291.5"/>
<text text-anchor="middle" x="948" y="-298.5" font-family="Helvetica,sans-Serif" font-size="10.00" fill="#000000">ORBextractor.h</text>
</a>
</g>
</g>
<!-- Node24&#45;&gt;Node28 -->
<g id="edge58" class="edge">
<title>Node24&#45;&gt;Node28</title>
<path fill="none" stroke="#191970" d="M503.544,-461.5896C534.0246,-452.9366 585.4348,-437.9015 629,-423 734.8041,-386.8096 857.8409,-337.7317 915.301,-314.3946"/>
<polygon fill="#191970" stroke="#191970" points="916.6562,-317.6219 924.599,-310.6103 914.0173,-311.1383 916.6562,-317.6219"/>
</g>
<!-- Node29 -->
<g id="node30" class="node">
<title>Node29</title>
<polygon fill="#ffffff" stroke="#bfbfbf" points="318.5,-403.5 318.5,-422.5 425.5,-422.5 425.5,-403.5 318.5,-403.5"/>
<text text-anchor="middle" x="372" y="-410.5" font-family="Helvetica,sans-Serif" font-size="10.00" fill="#000000">opencv2/opencv.hpp</text>
</g>
<!-- Node24&#45;&gt;Node29 -->
<g id="edge62" class="edge">
<title>Node24&#45;&gt;Node29</title>
<path fill="none" stroke="#191970" d="M458.7104,-459.2455C442.2238,-450.4527 417.7648,-437.4079 399.0235,-427.4125"/>
<polygon fill="#191970" stroke="#191970" points="400.5506,-424.2604 390.08,-422.6427 397.2565,-430.4368 400.5506,-424.2604"/>
</g>
<!-- Node25&#45;&gt;Node6 -->
<g id="edge54" class="edge">
<title>Node25&#45;&gt;Node6</title>
<path fill="none" stroke="#191970" d="M478.4157,-403.4862C482.3677,-376.9293 493.5826,-301.5651 498.9992,-265.1655"/>
<polygon fill="#191970" stroke="#191970" points="502.5274,-265.2342 500.5375,-254.8279 495.6037,-264.2038 502.5274,-265.2342"/>
</g>
<!-- Node25&#45;&gt;Node9 -->
<g id="edge53" class="edge">
<title>Node25&#45;&gt;Node9</title>
<path fill="none" stroke="#191970" d="M444.7457,-403.4561C416.5104,-394.3721 378.6748,-380.1719 370,-367 329.6357,-305.7108 307.2435,-323.431 471,-235 563.1997,-185.2108 602.1213,-223.5046 704,-199 796.3748,-176.7814 826.8946,-183.0872 907,-132 926.7582,-119.3992 944.5278,-99.0957 955.9256,-84.332"/>
<polygon fill="#191970" stroke="#191970" points="958.9865,-86.0822 962.1598,-75.9737 953.3754,-81.897 958.9865,-86.0822"/>
</g>
<!-- Node25&#45;&gt;Node24 -->
<g id="edge48" class="edge">
<title>Node25&#45;&gt;Node24</title>
<path fill="none" stroke="#191970" d="M482.2451,-422.6427C483.6665,-429.9199 484.081,-440.155 483.4887,-449.1575"/>
<polygon fill="#191970" stroke="#191970" points="479.9947,-448.8972 482.2668,-459.2455 486.9439,-449.739 479.9947,-448.8972"/>
</g>
<!-- Node25&#45;&gt;Node26 -->
<g id="edge42" class="edge">
<title>Node25&#45;&gt;Node26</title>
<path fill="none" stroke="#191970" d="M466.0262,-403.2455C456.8118,-395.0549 443.4468,-383.1749 432.5703,-373.5069"/>
<polygon fill="#191970" stroke="#191970" points="434.6474,-370.6704 424.848,-366.6427 429.9968,-375.9023 434.6474,-370.6704"/>
</g>
<!-- Node27 -->
<g id="node28" class="node">
<title>Node27</title>
<g id="a_node28"><a xlink:href="_map_8h.html" target="_top" xlink:title="Map.h">
<polygon fill="#ffffff" stroke="#000000" points="543,-291.5 543,-310.5 587,-310.5 587,-291.5 543,-291.5"/>
<text text-anchor="middle" x="565" y="-298.5" font-family="Helvetica,sans-Serif" font-size="10.00" fill="#000000">Map.h</text>
</a>
</g>
</g>
<!-- Node25&#45;&gt;Node27 -->
<g id="edge49" class="edge">
<title>Node25&#45;&gt;Node27</title>
<path fill="none" stroke="#191970" d="M484.5028,-403.4509C499.3101,-384.6054 532.4833,-342.3849 551.2957,-318.4419"/>
<polygon fill="#191970" stroke="#191970" points="554.09,-320.5505 557.5162,-310.5249 548.5858,-316.2257 554.09,-320.5505"/>
</g>
<!-- Node26&#45;&gt;Node2 -->
<g id="edge46" class="edge">
<title>Node26&#45;&gt;Node2</title>
<path fill="none" stroke="#191970" d="M449.2324,-350.0771C497.0005,-340.6911 582.9385,-323.8051 640.4774,-312.4992"/>
<polygon fill="#191970" stroke="#191970" points="641.3824,-315.8884 650.52,-310.5259 640.0327,-309.0197 641.3824,-315.8884"/>
</g>
<!-- Node26&#45;&gt;Node6 -->
<g id="edge47" class="edge">
<title>Node26&#45;&gt;Node6</title>
<path fill="none" stroke="#191970" d="M420.7899,-347.4559C430.0801,-334.4907 447.3844,-310.6727 463,-291 470.616,-281.4053 479.4167,-270.9724 486.7285,-262.4716"/>
<polygon fill="#191970" stroke="#191970" points="489.5433,-264.5677 493.4448,-254.7174 484.2521,-259.9847 489.5433,-264.5677"/>
</g>
<!-- Node26&#45;&gt;Node7 -->
<g id="edge45" class="edge">
<title>Node26&#45;&gt;Node7</title>
<path fill="none" stroke="#191970" d="M431.1371,-347.4509C466.4416,-327.7788 547.4562,-282.6363 589.1563,-259.4005"/>
<polygon fill="#191970" stroke="#191970" points="590.8744,-262.4498 597.9062,-254.5249 587.4672,-256.335 590.8744,-262.4498"/>
</g>
<!-- Node26&#45;&gt;Node18 -->
<g id="edge44" class="edge">
<title>Node26&#45;&gt;Node18</title>
<path fill="none" stroke="#191970" d="M400.1292,-347.4967C347.3408,-311.3297 158.6722,-182.067 93.4067,-137.3515"/>
<polygon fill="#191970" stroke="#191970" points="95.2712,-134.3863 85.0434,-131.6216 91.3148,-140.161 95.2712,-134.3863"/>
</g>
<!-- Node26&#45;&gt;Node19 -->
<g id="edge43" class="edge">
<title>Node26&#45;&gt;Node19</title>
<path fill="none" stroke="#191970" d="M406.1171,-347.3177C381.0764,-316.4552 301.3815,-217.4119 240,-132 228.6181,-116.1622 216.3632,-97.6484 207.6847,-84.2667"/>
<polygon fill="#191970" stroke="#191970" points="210.4206,-82.0508 202.0612,-75.5414 204.5367,-85.843 210.4206,-82.0508"/>
</g>
<!-- Node27&#45;&gt;Node5 -->
<g id="edge51" class="edge">
<title>Node27&#45;&gt;Node5</title>
<path fill="none" stroke="#191970" d="M587.0938,-291.6269C610.7028,-281.6109 648.0297,-265.7753 672.5177,-255.3864"/>
<polygon fill="#191970" stroke="#191970" points="673.9999,-258.5596 681.8388,-251.432 671.266,-252.1155 673.9999,-258.5596"/>
</g>
<!-- Node27&#45;&gt;Node6 -->
<g id="edge52" class="edge">
<title>Node27&#45;&gt;Node6</title>
<path fill="none" stroke="#191970" d="M554.0262,-291.2455C544.8118,-283.0549 531.4468,-271.1749 520.5703,-261.5069"/>
<polygon fill="#191970" stroke="#191970" points="522.6474,-258.6704 512.848,-254.6427 517.9968,-263.9023 522.6474,-258.6704"/>
</g>
<!-- Node27&#45;&gt;Node7 -->
<g id="edge50" class="edge">
<title>Node27&#45;&gt;Node7</title>
<path fill="none" stroke="#191970" d="M573.7093,-291.2455C580.8073,-283.2958 591.0084,-271.8706 599.495,-262.3656"/>
<polygon fill="#191970" stroke="#191970" points="602.3411,-264.4331 606.3905,-254.6427 597.1195,-259.771 602.3411,-264.4331"/>
</g>
<!-- Node28&#45;&gt;Node3 -->
<g id="edge59" class="edge">
<title>Node28&#45;&gt;Node3</title>
<path fill="none" stroke="#191970" d="M990.5588,-294.6821C1078.2672,-280.4615 1271,-242.5002 1271,-183.5 1271,-183.5 1271,-183.5 1271,-122 1271,-90.7875 1270.1857,-76.896 1247,-56 1224.8286,-36.0181 1141.7846,-21.2684 1095.202,-14.3612"/>
<polygon fill="#191970" stroke="#191970" points="1095.6985,-10.8966 1085.3005,-12.9297 1094.6968,-17.8246 1095.6985,-10.8966"/>
</g>
<!-- Node28&#45;&gt;Node4 -->
<g id="edge60" class="edge">
<title>Node28&#45;&gt;Node4</title>
<path fill="none" stroke="#191970" d="M944.1679,-291.2455C941.2341,-283.7776 937.0953,-273.2427 933.509,-264.1137"/>
<polygon fill="#191970" stroke="#191970" points="936.7024,-262.6704 929.7882,-254.6427 930.1871,-265.23 936.7024,-262.6704"/>
</g>
<!-- Node28&#45;&gt;Node9 -->
<g id="edge61" class="edge">
<title>Node28&#45;&gt;Node9</title>
<path fill="none" stroke="#191970" d="M948.8492,-291.4967C951.982,-256.4391 962.9315,-133.9096 967.2396,-85.7"/>
<polygon fill="#191970" stroke="#191970" points="970.7361,-85.8935 968.1402,-75.6216 963.7639,-85.2703 970.7361,-85.8935"/>
</g>
</g>
</svg>
