<?xml version="1.0" encoding="UTF-8" standalone="no"?>
<!DOCTYPE svg PUBLIC "-//W3C//DTD SVG 1.1//EN"
 "http://www.w3.org/Graphics/SVG/1.1/DTD/svg11.dtd">
<!-- Generated by graphviz version 2.38.0 (20140413.2041)
 -->
<!-- Title: /home/alejandro/Desarrollo eclipse/os1/include/KeyFrameDatabase.h Pages: 1 -->
<svg width="1342pt" height="520pt"
 viewBox="0.00 0.00 1341.50 520.00" xmlns="http://www.w3.org/2000/svg" xmlns:xlink="http://www.w3.org/1999/xlink">
<g id="graph0" class="graph" transform="scale(1 1) rotate(0) translate(4 516)">
<title>/home/alejandro/Desarrollo eclipse/os1/include/KeyFrameDatabase.h</title>
<polygon fill="white" stroke="none" points="-4,4 -4,-516 1337.5,-516 1337.5,4 -4,4"/>
<!-- Node0 -->
<g id="node1" class="node"><title>Node0</title>
<polygon fill="#bfbfbf" stroke="black" points="117.5,-481.5 117.5,-511.5 318.5,-511.5 318.5,-481.5 117.5,-481.5"/>
<text text-anchor="start" x="125.5" y="-499.5" font-family="Helvetica,sans-Serif" font-size="10.00">/home/alejandro/Desarrollo</text>
<text text-anchor="middle" x="218" y="-488.5" font-family="Helvetica,sans-Serif" font-size="10.00"> eclipse/os1/include/KeyFrameDatabase.h</text>
</g>
<!-- Node1 -->
<g id="node2" class="node"><title>Node1</title>
<polygon fill="white" stroke="#bfbfbf" points="381,-0.5 381,-19.5 425,-19.5 425,-0.5 381,-0.5"/>
<text text-anchor="middle" x="403" y="-7.5" font-family="Helvetica,sans-Serif" font-size="10.00">vector</text>
</g>
<!-- Node0&#45;&gt;Node1 -->
<g id="edge1" class="edge"><title>Node0&#45;&gt;Node1</title>
<path fill="none" stroke="midnightblue" d="M118.887,-481.475C61.2994,-467.1 0,-438.143 0,-380 0,-380 0,-380 0,-137.5 0,-83.2063 41.8042,-78.9691 91,-56 140.306,-32.9793 301.278,-18.5697 370.678,-13.2841"/>
<polygon fill="midnightblue" stroke="midnightblue" points="371.287,-16.7485 380.999,-12.5142 370.767,-9.7679 371.287,-16.7485"/>
</g>
<!-- Node2 -->
<g id="node3" class="node"><title>Node2</title>
<polygon fill="white" stroke="#bfbfbf" points="29.5,-196 29.5,-215 58.5,-215 58.5,-196 29.5,-196"/>
<text text-anchor="middle" x="44" y="-203" font-family="Helvetica,sans-Serif" font-size="10.00">list</text>
</g>
<!-- Node0&#45;&gt;Node2 -->
<g id="edge2" class="edge"><title>Node0&#45;&gt;Node2</title>
<path fill="none" stroke="midnightblue" d="M151.997,-481.444C100.625,-466.176 38,-436.067 38,-380 38,-380 38,-380 38,-322 38,-287.818 40.6533,-248.021 42.431,-225.194"/>
<polygon fill="midnightblue" stroke="midnightblue" points="45.9229,-225.435 43.2401,-215.185 38.9456,-224.871 45.9229,-225.435"/>
</g>
<!-- Node3 -->
<g id="node4" class="node"><title>Node3</title>
<polygon fill="white" stroke="#bfbfbf" points="66,-257.5 66,-276.5 96,-276.5 96,-257.5 66,-257.5"/>
<text text-anchor="middle" x="81" y="-264.5" font-family="Helvetica,sans-Serif" font-size="10.00">set</text>
</g>
<!-- Node0&#45;&gt;Node3 -->
<g id="edge3" class="edge"><title>Node0&#45;&gt;Node3</title>
<path fill="none" stroke="midnightblue" d="M209.43,-481.269C185.467,-441.477 117.815,-329.134 91.5806,-285.57"/>
<polygon fill="midnightblue" stroke="midnightblue" points="94.533,-283.688 86.3758,-276.927 88.5364,-287.299 94.533,-283.688"/>
</g>
<!-- Node4 -->
<g id="node5" class="node"><title>Node4</title>
<g id="a_node5"><a xlink:href="_key_frame_8h.html" target="_top" xlink:title="KeyFrame.h">
<polygon fill="white" stroke="black" points="274,-425.5 274,-444.5 344,-444.5 344,-425.5 274,-425.5"/>
<text text-anchor="middle" x="309" y="-432.5" font-family="Helvetica,sans-Serif" font-size="10.00">KeyFrame.h</text>
</a>
</g>
</g>
<!-- Node0&#45;&gt;Node4 -->
<g id="edge4" class="edge"><title>Node0&#45;&gt;Node4</title>
<path fill="none" stroke="midnightblue" d="M233.726,-481.399C247.088,-471.862 266.274,-459.325 282.023,-449.842"/>
<polygon fill="midnightblue" stroke="midnightblue" points="283.988,-452.747 290.829,-444.658 280.436,-446.715 283.988,-452.747"/>
</g>
<!-- Node6 -->
<g id="node7" class="node"><title>Node6</title>
<g id="a_node7"><a xlink:href="_frame_8h.html" target="_top" xlink:title="Frame.h">
<polygon fill="white" stroke="black" points="361.5,-313.5 361.5,-332.5 414.5,-332.5 414.5,-313.5 361.5,-313.5"/>
<text text-anchor="middle" x="388" y="-320.5" font-family="Helvetica,sans-Serif" font-size="10.00">Frame.h</text>
</a>
</g>
</g>
<!-- Node0&#45;&gt;Node6 -->
<g id="edge64" class="edge"><title>Node0&#45;&gt;Node6</title>
<path fill="none" stroke="midnightblue" d="M284.49,-481.418C308.241,-473.779 333.838,-462.237 353,-445 382.175,-418.757 387.646,-369.852 388.309,-342.95"/>
<polygon fill="midnightblue" stroke="midnightblue" points="391.81,-342.61 388.349,-332.597 384.81,-342.583 391.81,-342.61"/>
</g>
<!-- Node11 -->
<g id="node12" class="node"><title>Node11</title>
<g id="a_node12"><a xlink:href="_o_r_b_vocabulary_8h.html" target="_top" xlink:title="ORBVocabulary.h">
<polygon fill="white" stroke="black" points="740.5,-257.5 740.5,-276.5 835.5,-276.5 835.5,-257.5 740.5,-257.5"/>
<text text-anchor="middle" x="788" y="-264.5" font-family="Helvetica,sans-Serif" font-size="10.00">ORBVocabulary.h</text>
</a>
</g>
</g>
<!-- Node0&#45;&gt;Node11 -->
<g id="edge65" class="edge"><title>Node0&#45;&gt;Node11</title>
<path fill="none" stroke="midnightblue" d="M265.04,-481.422C296.401,-471.779 338.424,-458.362 375,-445 498.184,-399.998 527.827,-385.516 648,-333 687.538,-315.722 732.724,-294.465 760.811,-281.069"/>
<polygon fill="midnightblue" stroke="midnightblue" points="762.484,-284.149 769.996,-276.678 759.464,-277.833 762.484,-284.149"/>
</g>
<!-- Node28 -->
<g id="node29" class="node"><title>Node28</title>
<polygon fill="white" stroke="#bfbfbf" points="114,-257.5 114,-276.5 158,-276.5 158,-257.5 114,-257.5"/>
<text text-anchor="middle" x="136" y="-264.5" font-family="Helvetica,sans-Serif" font-size="10.00">mutex</text>
</g>
<!-- Node0&#45;&gt;Node28 -->
<g id="edge66" class="edge"><title>Node0&#45;&gt;Node28</title>
<path fill="none" stroke="midnightblue" d="M212.871,-481.269C198.618,-441.728 158.545,-330.548 142.633,-286.402"/>
<polygon fill="midnightblue" stroke="midnightblue" points="145.901,-285.148 139.218,-276.927 139.316,-287.521 145.901,-285.148"/>
</g>
<!-- Node4&#45;&gt;Node0 -->
<g id="edge62" class="edge"><title>Node4&#45;&gt;Node0</title>
<path fill="none" stroke="midnightblue" d="M300.688,-444.658C289.91,-452.859 271.116,-465.462 254.094,-476.069"/>
<polygon fill="midnightblue" stroke="midnightblue" points="252.099,-473.186 245.406,-481.399 255.76,-479.153 252.099,-473.186"/>
</g>
<!-- Node5 -->
<g id="node6" class="node"><title>Node5</title>
<g id="a_node6"><a xlink:href="_map_point_8h.html" target="_top" xlink:title="MapPoint.h">
<polygon fill="white" stroke="black" points="276,-369.5 276,-388.5 342,-388.5 342,-369.5 276,-369.5"/>
<text text-anchor="middle" x="309" y="-376.5" font-family="Helvetica,sans-Serif" font-size="10.00">MapPoint.h</text>
</a>
</g>
</g>
<!-- Node4&#45;&gt;Node5 -->
<g id="edge5" class="edge"><title>Node4&#45;&gt;Node5</title>
<path fill="none" stroke="midnightblue" d="M303.834,-425.083C302.324,-417.927 301.894,-407.635 302.542,-398.691"/>
<polygon fill="midnightblue" stroke="midnightblue" points="306.015,-399.126 303.869,-388.751 299.077,-398.2 306.015,-399.126"/>
</g>
<!-- Node4&#45;&gt;Node6 -->
<g id="edge61" class="edge"><title>Node4&#45;&gt;Node6</title>
<path fill="none" stroke="midnightblue" d="M311.47,-425.245C318.341,-416.555 331.995,-402.601 342,-389 353.253,-373.702 363.724,-354.669 372.312,-341.162"/>
<polygon fill="midnightblue" stroke="midnightblue" points="375.257,-343.055 377.944,-332.807 369.452,-339.143 375.257,-343.055"/>
</g>
<!-- Node7 -->
<g id="node8" class="node"><title>Node7</title>
<g id="a_node8"><a xlink:href="_bow_vector_8h.html" target="_top" xlink:title="../Thirdparty/DBoW2\l/DBoW2/BowVector.h">
<polygon fill="white" stroke="black" points="765.5,-56.5 765.5,-86.5 878.5,-86.5 878.5,-56.5 765.5,-56.5"/>
<text text-anchor="start" x="773.5" y="-74.5" font-family="Helvetica,sans-Serif" font-size="10.00">../Thirdparty/DBoW2</text>
<text text-anchor="middle" x="822" y="-63.5" font-family="Helvetica,sans-Serif" font-size="10.00">/DBoW2/BowVector.h</text>
</a>
</g>
</g>
<!-- Node4&#45;&gt;Node7 -->
<g id="edge57" class="edge"><title>Node4&#45;&gt;Node7</title>
<path fill="none" stroke="midnightblue" d="M344.348,-428.117C492.67,-402.63 1061.62,-296.57 1159,-154 1259.9,-6.28531 1411.11,-182.036 888.873,-88.0357"/>
<polygon fill="midnightblue" stroke="midnightblue" points="889.247,-84.5463 878.782,-86.201 887.994,-91.4334 889.247,-84.5463"/>
</g>
<!-- Node10 -->
<g id="node11" class="node"><title>Node10</title>
<g id="a_node11"><a xlink:href="_feature_vector_8h.html" target="_top" xlink:title="../Thirdparty/DBoW2\l/DBoW2/FeatureVector.h">
<polygon fill="white" stroke="black" points="1206.5,-123.5 1206.5,-153.5 1333.5,-153.5 1333.5,-123.5 1206.5,-123.5"/>
<text text-anchor="start" x="1214.5" y="-141.5" font-family="Helvetica,sans-Serif" font-size="10.00">../Thirdparty/DBoW2</text>
<text text-anchor="middle" x="1270" y="-130.5" font-family="Helvetica,sans-Serif" font-size="10.00">/DBoW2/FeatureVector.h</text>
</a>
</g>
</g>
<!-- Node4&#45;&gt;Node10 -->
<g id="edge58" class="edge"><title>Node4&#45;&gt;Node10</title>
<path fill="none" stroke="midnightblue" d="M344.042,-433.271C417.979,-431.096 594.979,-422.514 739,-389 942.945,-341.542 1161.76,-209.411 1240.05,-159.202"/>
<polygon fill="midnightblue" stroke="midnightblue" points="1241.96,-162.134 1248.47,-153.771 1238.17,-156.252 1241.96,-162.134"/>
</g>
<!-- Node4&#45;&gt;Node11 -->
<g id="edge59" class="edge"><title>Node4&#45;&gt;Node11</title>
<path fill="none" stroke="midnightblue" d="M333.744,-425.425C413.237,-397.876 662.242,-311.582 753.789,-279.856"/>
<polygon fill="midnightblue" stroke="midnightblue" points="755.101,-283.106 763.403,-276.524 752.809,-276.492 755.101,-283.106"/>
</g>
<!-- Node25 -->
<g id="node26" class="node"><title>Node25</title>
<g id="a_node26"><a xlink:href="_o_r_bextractor_8h.html" target="_top" xlink:title="ORBextractor.h">
<polygon fill="white" stroke="black" points="176.5,-257.5 176.5,-276.5 261.5,-276.5 261.5,-257.5 176.5,-257.5"/>
<text text-anchor="middle" x="219" y="-264.5" font-family="Helvetica,sans-Serif" font-size="10.00">ORBextractor.h</text>
</a>
</g>
</g>
<!-- Node4&#45;&gt;Node25 -->
<g id="edge60" class="edge"><title>Node4&#45;&gt;Node25</title>
<path fill="none" stroke="midnightblue" d="M295.01,-425.286C272.096,-410.001 227.738,-375.868 214,-333 209.143,-317.843 211.131,-299.725 213.909,-286.472"/>
<polygon fill="midnightblue" stroke="midnightblue" points="217.334,-287.199 216.296,-276.655 210.532,-285.545 217.334,-287.199"/>
</g>
<!-- Node4&#45;&gt;Node28 -->
<g id="edge63" class="edge"><title>Node4&#45;&gt;Node28</title>
<path fill="none" stroke="midnightblue" d="M289.73,-425.461C273.087,-417.511 248.955,-404.566 231,-389 194.656,-357.493 162.432,-310.433 146.518,-285.295"/>
<polygon fill="midnightblue" stroke="midnightblue" points="149.322,-283.177 141.071,-276.532 143.377,-286.872 149.322,-283.177"/>
</g>
<!-- Node5&#45;&gt;Node4 -->
<g id="edge6" class="edge"><title>Node5&#45;&gt;Node4</title>
<path fill="none" stroke="midnightblue" d="M314.131,-388.751C315.657,-395.858 316.104,-406.136 315.472,-415.101"/>
<polygon fill="midnightblue" stroke="midnightblue" points="311.993,-414.713 314.166,-425.083 318.934,-415.622 311.993,-414.713"/>
</g>
<!-- Node5&#45;&gt;Node6 -->
<g id="edge7" class="edge"><title>Node5&#45;&gt;Node6</title>
<path fill="none" stroke="midnightblue" d="M316.578,-369.324C327.078,-360.9 345.695,-347.971 361.401,-338.074"/>
<polygon fill="midnightblue" stroke="midnightblue" points="363.538,-340.869 370.229,-332.655 359.875,-334.904 363.538,-340.869"/>
</g>
<!-- Node13 -->
<g id="node14" class="node"><title>Node13</title>
<polygon fill="white" stroke="#bfbfbf" points="259,-62 259,-81 375,-81 375,-62 259,-62"/>
<text text-anchor="middle" x="317" y="-69" font-family="Helvetica,sans-Serif" font-size="10.00">opencv2/core/core.hpp</text>
</g>
<!-- Node5&#45;&gt;Node13 -->
<g id="edge55" class="edge"><title>Node5&#45;&gt;Node13</title>
<path fill="none" stroke="midnightblue" d="M307.8,-369.315C302.517,-330.35 282.07,-171.464 293,-123 295.631,-111.334 301.289,-99.1999 306.45,-89.7508"/>
<polygon fill="midnightblue" stroke="midnightblue" points="309.529,-91.4175 311.501,-81.0078 303.468,-87.9155 309.529,-91.4175"/>
</g>
<!-- Node27 -->
<g id="node28" class="node"><title>Node27</title>
<g id="a_node28"><a xlink:href="_map_8h.html" target="_top" xlink:title="Map.h">
<polygon fill="white" stroke="black" points="223,-313.5 223,-332.5 267,-332.5 267,-313.5 223,-313.5"/>
<text text-anchor="middle" x="245" y="-320.5" font-family="Helvetica,sans-Serif" font-size="10.00">Map.h</text>
</a>
</g>
</g>
<!-- Node5&#45;&gt;Node27 -->
<g id="edge50" class="edge"><title>Node5&#45;&gt;Node27</title>
<path fill="none" stroke="midnightblue" d="M293.602,-369.324C282.523,-361.42 268.085,-349.548 257.67,-339.938"/>
<polygon fill="midnightblue" stroke="midnightblue" points="259.944,-337.267 250.321,-332.834 255.079,-342.3 259.944,-337.267"/>
</g>
<!-- Node5&#45;&gt;Node28 -->
<g id="edge56" class="edge"><title>Node5&#45;&gt;Node28</title>
<path fill="none" stroke="midnightblue" d="M306.842,-369.053C303.015,-355.078 293.72,-328.108 276,-313 271.746,-309.373 207.775,-289.643 167.795,-277.544"/>
<polygon fill="midnightblue" stroke="midnightblue" points="168.783,-274.186 158.198,-274.646 166.76,-280.887 168.783,-274.186"/>
</g>
<!-- Node6&#45;&gt;Node1 -->
<g id="edge8" class="edge"><title>Node6&#45;&gt;Node1</title>
<path fill="none" stroke="midnightblue" d="M375.99,-313.438C329.293,-279.134 165.855,-148.999 237,-56 253.174,-34.8575 327.342,-21.3369 370.875,-15.077"/>
<polygon fill="midnightblue" stroke="midnightblue" points="371.545,-18.5177 380.969,-13.6765 370.583,-11.5842 371.545,-18.5177"/>
</g>
<!-- Node6&#45;&gt;Node4 -->
<g id="edge44" class="edge"><title>Node6&#45;&gt;Node4</title>
<path fill="none" stroke="midnightblue" d="M389.687,-332.807C386.515,-345.686 373.849,-370.172 360,-389 352.262,-399.52 342.341,-410.25 333.105,-418.593"/>
<polygon fill="midnightblue" stroke="midnightblue" points="330.615,-416.116 325.238,-425.245 335.134,-421.461 330.615,-416.116"/>
</g>
<!-- Node6&#45;&gt;Node5 -->
<g id="edge9" class="edge"><title>Node6&#45;&gt;Node5</title>
<path fill="none" stroke="midnightblue" d="M380.225,-332.834C369.687,-341.263 351.196,-354.099 335.585,-363.935"/>
<polygon fill="midnightblue" stroke="midnightblue" points="333.498,-361.109 326.808,-369.324 337.161,-367.074 333.498,-361.109"/>
</g>
<!-- Node6&#45;&gt;Node7 -->
<g id="edge10" class="edge"><title>Node6&#45;&gt;Node7</title>
<path fill="none" stroke="midnightblue" d="M405.771,-313.374C423.051,-304.78 449.86,-290.896 472,-277 550.685,-227.616 567.066,-210.249 641,-154 658.622,-140.593 660.639,-133.744 680,-123 704.953,-109.152 734.418,-97.9376 760.022,-89.626"/>
<polygon fill="midnightblue" stroke="midnightblue" points="761.152,-92.9395 769.628,-86.5831 759.038,-86.2662 761.152,-92.9395"/>
</g>
<!-- Node6&#45;&gt;Node10 -->
<g id="edge14" class="edge"><title>Node6&#45;&gt;Node10</title>
<path fill="none" stroke="midnightblue" d="M414.848,-319.488C466.045,-314.327 580.913,-300.952 675,-277 700.612,-270.48 705.828,-265.053 731,-257 786.879,-239.124 802.326,-239.503 858,-221 894.579,-208.843 901.734,-199.852 939,-190 963.351,-183.562 1106.45,-162.694 1196.34,-149.886"/>
<polygon fill="midnightblue" stroke="midnightblue" points="1197.08,-153.316 1206.49,-148.442 1196.1,-146.386 1197.08,-153.316"/>
</g>
<!-- Node6&#45;&gt;Node11 -->
<g id="edge19" class="edge"><title>Node6&#45;&gt;Node11</title>
<path fill="none" stroke="midnightblue" d="M414.743,-318.549C471.902,-311.148 610.199,-293.113 726,-277 727.303,-276.819 728.621,-276.634 729.95,-276.448"/>
<polygon fill="midnightblue" stroke="midnightblue" points="730.87,-279.853 740.281,-274.985 729.889,-272.922 730.87,-279.853"/>
</g>
<!-- Node6&#45;&gt;Node25 -->
<g id="edge45" class="edge"><title>Node6&#45;&gt;Node25</title>
<path fill="none" stroke="midnightblue" d="M361.221,-313.444C332.667,-304.32 287.267,-289.813 255.463,-279.651"/>
<polygon fill="midnightblue" stroke="midnightblue" points="256.244,-276.226 245.653,-276.516 254.114,-282.894 256.244,-276.226"/>
</g>
<!-- Node26 -->
<g id="node27" class="node"><title>Node26</title>
<polygon fill="white" stroke="#bfbfbf" points="356.5,-257.5 356.5,-276.5 463.5,-276.5 463.5,-257.5 356.5,-257.5"/>
<text text-anchor="middle" x="410" y="-264.5" font-family="Helvetica,sans-Serif" font-size="10.00">opencv2/opencv.hpp</text>
</g>
<!-- Node6&#45;&gt;Node26 -->
<g id="edge49" class="edge"><title>Node6&#45;&gt;Node26</title>
<path fill="none" stroke="midnightblue" d="M391.633,-313.083C394.612,-305.77 398.926,-295.181 402.625,-286.103"/>
<polygon fill="midnightblue" stroke="midnightblue" points="405.903,-287.333 406.435,-276.751 399.42,-284.691 405.903,-287.333"/>
</g>
<!-- Node7&#45;&gt;Node1 -->
<g id="edge13" class="edge"><title>Node7&#45;&gt;Node1</title>
<path fill="none" stroke="midnightblue" d="M765.492,-62.4756C676.467,-49.8336 506.4,-25.6832 435.398,-15.6006"/>
<polygon fill="midnightblue" stroke="midnightblue" points="435.663,-12.1033 425.271,-14.1625 434.679,-19.0338 435.663,-12.1033"/>
</g>
<!-- Node8 -->
<g id="node9" class="node"><title>Node8</title>
<polygon fill="white" stroke="#bfbfbf" points="886,-0.5 886,-19.5 940,-19.5 940,-0.5 886,-0.5"/>
<text text-anchor="middle" x="913" y="-7.5" font-family="Helvetica,sans-Serif" font-size="10.00">iostream</text>
</g>
<!-- Node7&#45;&gt;Node8 -->
<g id="edge11" class="edge"><title>Node7&#45;&gt;Node8</title>
<path fill="none" stroke="midnightblue" d="M843.566,-56.3993C857.88,-47.0402 876.612,-34.7924 891.011,-25.3771"/>
<polygon fill="midnightblue" stroke="midnightblue" points="893.304,-28.0597 899.759,-19.6578 889.474,-22.2009 893.304,-28.0597"/>
</g>
<!-- Node9 -->
<g id="node10" class="node"><title>Node9</title>
<polygon fill="white" stroke="#bfbfbf" points="1140.5,-0.5 1140.5,-19.5 1175.5,-19.5 1175.5,-0.5 1140.5,-0.5"/>
<text text-anchor="middle" x="1158" y="-7.5" font-family="Helvetica,sans-Serif" font-size="10.00">map</text>
</g>
<!-- Node7&#45;&gt;Node9 -->
<g id="edge12" class="edge"><title>Node7&#45;&gt;Node9</title>
<path fill="none" stroke="midnightblue" d="M878.618,-60.4739C951.558,-47.5574 1075.48,-25.6129 1130.4,-15.8883"/>
<polygon fill="midnightblue" stroke="midnightblue" points="1131.19,-19.3028 1140.42,-14.1126 1129.97,-12.41 1131.19,-19.3028"/>
</g>
<!-- Node10&#45;&gt;Node1 -->
<g id="edge17" class="edge"><title>Node10&#45;&gt;Node1</title>
<path fill="none" stroke="midnightblue" d="M1214.24,-123.489C1140.01,-105.334 1004.44,-73.8925 887,-56 718.079,-30.2648 513.594,-17.0886 435.472,-12.7038"/>
<polygon fill="midnightblue" stroke="midnightblue" points="435.482,-9.19913 425.304,-12.1431 435.096,-16.1885 435.482,-9.19913"/>
</g>
<!-- Node10&#45;&gt;Node7 -->
<g id="edge15" class="edge"><title>Node10&#45;&gt;Node7</title>
<path fill="none" stroke="midnightblue" d="M1206.19,-125.38C1201.39,-124.548 1196.62,-123.745 1192,-123 1086.24,-105.963 962.871,-89.8813 888.677,-80.6189"/>
<polygon fill="midnightblue" stroke="midnightblue" points="888.897,-77.1193 878.541,-79.3578 888.033,-84.0658 888.897,-77.1193"/>
</g>
<!-- Node10&#45;&gt;Node8 -->
<g id="edge18" class="edge"><title>Node10&#45;&gt;Node8</title>
<path fill="none" stroke="midnightblue" d="M1239.55,-123.482C1201.39,-106.227 1133.72,-76.6777 1074,-56 1032.18,-41.52 983.051,-28.3231 950.163,-20.0188"/>
<polygon fill="midnightblue" stroke="midnightblue" points="950.636,-16.5294 940.086,-17.4991 948.938,-23.3204 950.636,-16.5294"/>
</g>
<!-- Node10&#45;&gt;Node9 -->
<g id="edge16" class="edge"><title>Node10&#45;&gt;Node9</title>
<path fill="none" stroke="midnightblue" d="M1257.59,-123.479C1236.71,-99.8988 1194.68,-52.429 1172.49,-27.3633"/>
<polygon fill="midnightblue" stroke="midnightblue" points="1175.03,-24.9556 1165.78,-19.7885 1169.79,-29.5958 1175.03,-24.9556"/>
</g>
<!-- Node12 -->
<g id="node13" class="node"><title>Node12</title>
<g id="a_node13"><a xlink:href="_f_o_r_b_8h.html" target="_top" xlink:title="../Thirdparty/DBoW2\l/DBoW2/FORB.h">
<polygon fill="white" stroke="black" points="317.5,-190.5 317.5,-220.5 424.5,-220.5 424.5,-190.5 317.5,-190.5"/>
<text text-anchor="start" x="325.5" y="-208.5" font-family="Helvetica,sans-Serif" font-size="10.00">../Thirdparty/DBoW2</text>
<text text-anchor="middle" x="371" y="-197.5" font-family="Helvetica,sans-Serif" font-size="10.00">/DBoW2/FORB.h</text>
</a>
</g>
</g>
<!-- Node11&#45;&gt;Node12 -->
<g id="edge20" class="edge"><title>Node11&#45;&gt;Node12</title>
<path fill="none" stroke="midnightblue" d="M740.165,-259.175C664.925,-248.439 518.859,-227.597 434.773,-215.599"/>
<polygon fill="midnightblue" stroke="midnightblue" points="435.229,-212.129 424.835,-214.181 434.24,-219.059 435.229,-212.129"/>
</g>
<!-- Node16 -->
<g id="node17" class="node"><title>Node16</title>
<g id="a_node17"><a xlink:href="_templated_vocabulary_8h.html" target="_top" xlink:title="../Thirdparty/DBoW2\l/DBoW2/TemplatedVocabulary.h">
<polygon fill="white" stroke="black" points="689,-190.5 689,-220.5 849,-220.5 849,-190.5 689,-190.5"/>
<text text-anchor="start" x="697" y="-208.5" font-family="Helvetica,sans-Serif" font-size="10.00">../Thirdparty/DBoW2</text>
<text text-anchor="middle" x="769" y="-197.5" font-family="Helvetica,sans-Serif" font-size="10.00">/DBoW2/TemplatedVocabulary.h</text>
</a>
</g>
</g>
<!-- Node11&#45;&gt;Node16 -->
<g id="edge28" class="edge"><title>Node11&#45;&gt;Node16</title>
<path fill="none" stroke="midnightblue" d="M785.278,-257.475C782.993,-250.32 779.617,-239.748 776.531,-230.084"/>
<polygon fill="midnightblue" stroke="midnightblue" points="779.854,-228.984 773.478,-220.523 773.186,-231.114 779.854,-228.984"/>
</g>
<!-- Node12&#45;&gt;Node1 -->
<g id="edge22" class="edge"><title>Node12&#45;&gt;Node1</title>
<path fill="none" stroke="midnightblue" d="M344.199,-190.477C298.031,-164.49 211.946,-106.858 250,-56 264.496,-36.6261 330.519,-22.7305 370.951,-15.8638"/>
<polygon fill="midnightblue" stroke="midnightblue" points="371.578,-19.3078 380.877,-14.2314 370.442,-12.4006 371.578,-19.3078"/>
</g>
<!-- Node12&#45;&gt;Node13 -->
<g id="edge21" class="edge"><title>Node12&#45;&gt;Node13</title>
<path fill="none" stroke="midnightblue" d="M339.658,-190.44C325.083,-182.105 309.191,-170.009 301,-154 290.666,-133.802 299.079,-107.645 307.099,-90.4837"/>
<polygon fill="midnightblue" stroke="midnightblue" points="310.46,-91.5953 311.87,-81.0947 304.219,-88.4241 310.46,-91.5953"/>
</g>
<!-- Node14 -->
<g id="node15" class="node"><title>Node14</title>
<polygon fill="white" stroke="#bfbfbf" points="431.5,-62 431.5,-81 472.5,-81 472.5,-62 431.5,-62"/>
<text text-anchor="middle" x="452" y="-69" font-family="Helvetica,sans-Serif" font-size="10.00">string</text>
</g>
<!-- Node12&#45;&gt;Node14 -->
<g id="edge23" class="edge"><title>Node12&#45;&gt;Node14</title>
<path fill="none" stroke="midnightblue" d="M382.228,-190.284C389.86,-180.363 399.986,-166.678 408,-154 421.376,-132.839 434.756,-107.273 443.188,-90.4869"/>
<polygon fill="midnightblue" stroke="midnightblue" points="446.443,-91.8008 447.755,-81.2874 440.173,-88.6884 446.443,-91.8008"/>
</g>
<!-- Node15 -->
<g id="node16" class="node"><title>Node15</title>
<g id="a_node16"><a xlink:href="_f_class_8h.html" target="_top" xlink:title="FClass.h">
<polygon fill="white" stroke="black" points="343,-129 343,-148 399,-148 399,-129 343,-129"/>
<text text-anchor="middle" x="371" y="-136" font-family="Helvetica,sans-Serif" font-size="10.00">FClass.h</text>
</a>
</g>
</g>
<!-- Node12&#45;&gt;Node15 -->
<g id="edge24" class="edge"><title>Node12&#45;&gt;Node15</title>
<path fill="none" stroke="midnightblue" d="M371,-190.396C371,-181.064 371,-168.714 371,-158.517"/>
<polygon fill="midnightblue" stroke="midnightblue" points="374.5,-158.195 371,-148.195 367.5,-158.195 374.5,-158.195"/>
</g>
<!-- Node15&#45;&gt;Node1 -->
<g id="edge26" class="edge"><title>Node15&#45;&gt;Node1</title>
<path fill="none" stroke="midnightblue" d="M373.226,-128.927C375.83,-118.884 380.26,-101.742 384,-87 388.952,-67.4811 394.532,-45.1177 398.356,-29.7293"/>
<polygon fill="midnightblue" stroke="midnightblue" points="401.785,-30.4461 400.797,-19.8974 394.991,-28.7595 401.785,-30.4461"/>
</g>
<!-- Node15&#45;&gt;Node13 -->
<g id="edge25" class="edge"><title>Node15&#45;&gt;Node13</title>
<path fill="none" stroke="midnightblue" d="M363.717,-128.734C355.297,-118.598 341.25,-101.69 330.754,-89.0556"/>
<polygon fill="midnightblue" stroke="midnightblue" points="333.25,-86.5826 324.167,-81.1273 327.865,-91.0558 333.25,-86.5826"/>
</g>
<!-- Node15&#45;&gt;Node14 -->
<g id="edge27" class="edge"><title>Node15&#45;&gt;Node14</title>
<path fill="none" stroke="midnightblue" d="M381.924,-128.734C395.041,-118.208 417.258,-100.379 433.161,-87.6174"/>
<polygon fill="midnightblue" stroke="midnightblue" points="435.64,-90.1158 441.249,-81.1273 431.259,-84.6563 435.64,-90.1158"/>
</g>
<!-- Node16&#45;&gt;Node1 -->
<g id="edge30" class="edge"><title>Node16&#45;&gt;Node1</title>
<path fill="none" stroke="midnightblue" d="M688.821,-196.261C626.729,-188.419 547.188,-174.709 522,-154 485.53,-124.015 512.199,-91.437 481,-56 468.424,-41.7156 450.171,-30.8408 434.483,-23.3629"/>
<polygon fill="midnightblue" stroke="midnightblue" points="435.676,-20.0616 425.121,-19.1458 432.801,-26.444 435.676,-20.0616"/>
</g>
<!-- Node16&#45;&gt;Node7 -->
<g id="edge38" class="edge"><title>Node16&#45;&gt;Node7</title>
<path fill="none" stroke="midnightblue" d="M774.672,-190.374C783.717,-167.845 801.509,-123.534 812.515,-96.1225"/>
<polygon fill="midnightblue" stroke="midnightblue" points="815.891,-97.1088 816.369,-86.5247 809.395,-94.5005 815.891,-97.1088"/>
</g>
<!-- Node16&#45;&gt;Node10 -->
<g id="edge37" class="edge"><title>Node16&#45;&gt;Node10</title>
<path fill="none" stroke="midnightblue" d="M849.298,-194.129C928.15,-183.939 1051.86,-167.935 1159,-154 1170.97,-152.443 1183.67,-150.788 1196.03,-149.175"/>
<polygon fill="midnightblue" stroke="midnightblue" points="1196.85,-152.597 1206.31,-147.832 1195.95,-145.656 1196.85,-152.597"/>
</g>
<!-- Node16&#45;&gt;Node13 -->
<g id="edge35" class="edge"><title>Node16&#45;&gt;Node13</title>
<path fill="none" stroke="midnightblue" d="M688.836,-200.217C570.353,-193.144 359.642,-177.431 334,-154 316.777,-138.262 314.514,-109.969 315.194,-91.2107"/>
<polygon fill="midnightblue" stroke="midnightblue" points="318.688,-91.4093 315.866,-81.1973 311.704,-90.9403 318.688,-91.4093"/>
</g>
<!-- Node16&#45;&gt;Node14 -->
<g id="edge33" class="edge"><title>Node16&#45;&gt;Node14</title>
<path fill="none" stroke="midnightblue" d="M688.807,-198.305C617.35,-191.331 519.498,-177.745 489,-154 469.107,-138.512 459.567,-109.92 455.248,-91.0544"/>
<polygon fill="midnightblue" stroke="midnightblue" points="458.631,-90.1204 453.229,-81.0062 451.768,-91.4999 458.631,-90.1204"/>
</g>
<!-- Node17 -->
<g id="node18" class="node"><title>Node17</title>
<polygon fill="white" stroke="#bfbfbf" points="831.5,-129 831.5,-148 880.5,-148 880.5,-129 831.5,-129"/>
<text text-anchor="middle" x="856" y="-136" font-family="Helvetica,sans-Serif" font-size="10.00">cassert</text>
</g>
<!-- Node16&#45;&gt;Node17 -->
<g id="edge29" class="edge"><title>Node16&#45;&gt;Node17</title>
<path fill="none" stroke="midnightblue" d="M787.878,-190.396C802.114,-179.759 821.598,-165.203 836.082,-154.381"/>
<polygon fill="midnightblue" stroke="midnightblue" points="838.446,-156.984 844.363,-148.195 834.257,-151.376 838.446,-156.984"/>
</g>
<!-- Node18 -->
<g id="node19" class="node"><title>Node18</title>
<polygon fill="white" stroke="#bfbfbf" points="898.5,-129 898.5,-148 949.5,-148 949.5,-129 898.5,-129"/>
<text text-anchor="middle" x="924" y="-136" font-family="Helvetica,sans-Serif" font-size="10.00">numeric</text>
</g>
<!-- Node16&#45;&gt;Node18 -->
<g id="edge31" class="edge"><title>Node16&#45;&gt;Node18</title>
<path fill="none" stroke="midnightblue" d="M802.633,-190.396C829.95,-178.941 868.108,-162.938 894.306,-151.952"/>
<polygon fill="midnightblue" stroke="midnightblue" points="895.846,-155.102 903.714,-148.007 893.139,-148.647 895.846,-155.102"/>
</g>
<!-- Node19 -->
<g id="node20" class="node"><title>Node19</title>
<polygon fill="white" stroke="#bfbfbf" points="968,-129 968,-148 1018,-148 1018,-129 968,-129"/>
<text text-anchor="middle" x="993" y="-136" font-family="Helvetica,sans-Serif" font-size="10.00">fstream</text>
</g>
<!-- Node16&#45;&gt;Node19 -->
<g id="edge32" class="edge"><title>Node16&#45;&gt;Node19</title>
<path fill="none" stroke="midnightblue" d="M829.614,-190.462C866.991,-181.275 915.703,-168.343 958,-154 959.915,-153.351 961.876,-152.648 963.842,-151.914"/>
<polygon fill="midnightblue" stroke="midnightblue" points="965.53,-155.011 973.551,-148.09 962.964,-148.498 965.53,-155.011"/>
</g>
<!-- Node20 -->
<g id="node21" class="node"><title>Node20</title>
<polygon fill="white" stroke="#bfbfbf" points="1036,-129 1036,-148 1092,-148 1092,-129 1036,-129"/>
<text text-anchor="middle" x="1064" y="-136" font-family="Helvetica,sans-Serif" font-size="10.00">algorithm</text>
</g>
<!-- Node16&#45;&gt;Node20 -->
<g id="edge34" class="edge"><title>Node16&#45;&gt;Node20</title>
<path fill="none" stroke="midnightblue" d="M849.112,-190.448C912.034,-179.108 994.299,-163.524 1027,-154 1029.43,-153.291 1031.93,-152.487 1034.43,-151.629"/>
<polygon fill="midnightblue" stroke="midnightblue" points="1035.7,-154.89 1043.87,-148.146 1033.28,-148.322 1035.7,-154.89"/>
</g>
<!-- Node21 -->
<g id="node22" class="node"><title>Node21</title>
<polygon fill="white" stroke="#bfbfbf" points="1110,-129 1110,-148 1150,-148 1150,-129 1110,-129"/>
<text text-anchor="middle" x="1130" y="-136" font-family="Helvetica,sans-Serif" font-size="10.00">limits</text>
</g>
<!-- Node16&#45;&gt;Node21 -->
<g id="edge36" class="edge"><title>Node16&#45;&gt;Node21</title>
<path fill="none" stroke="midnightblue" d="M849.25,-192.105C853.902,-191.391 858.511,-190.686 863,-190 968.754,-173.845 999.017,-186.318 1101,-154 1102.62,-153.486 1104.27,-152.89 1105.91,-152.24"/>
<polygon fill="midnightblue" stroke="midnightblue" points="1107.36,-155.422 1115.03,-148.104 1104.47,-149.047 1107.36,-155.422"/>
</g>
<!-- Node22 -->
<g id="node23" class="node"><title>Node22</title>
<g id="a_node23"><a xlink:href="_scoring_object_8h.html" target="_top" xlink:title="ScoringObject.h">
<polygon fill="white" stroke="black" points="689,-129 689,-148 775,-148 775,-129 689,-129"/>
<text text-anchor="middle" x="732" y="-136" font-family="Helvetica,sans-Serif" font-size="10.00">ScoringObject.h</text>
</a>
</g>
</g>
<!-- Node16&#45;&gt;Node22 -->
<g id="edge39" class="edge"><title>Node16&#45;&gt;Node22</title>
<path fill="none" stroke="midnightblue" d="M760.972,-190.396C755.374,-180.562 747.869,-167.378 741.9,-156.892"/>
<polygon fill="midnightblue" stroke="midnightblue" points="744.938,-155.154 736.949,-148.195 738.854,-158.617 744.938,-155.154"/>
</g>
<!-- Node23 -->
<g id="node24" class="node"><title>Node23</title>
<g id="a_node24"><a xlink:href="_random_8h.html" target="_top" xlink:title="../DUtils/Random.h">
<polygon fill="white" stroke="black" points="531.5,-129 531.5,-148 632.5,-148 632.5,-129 531.5,-129"/>
<text text-anchor="middle" x="582" y="-136" font-family="Helvetica,sans-Serif" font-size="10.00">../DUtils/Random.h</text>
</a>
</g>
</g>
<!-- Node16&#45;&gt;Node23 -->
<g id="edge41" class="edge"><title>Node16&#45;&gt;Node23</title>
<path fill="none" stroke="midnightblue" d="M728.424,-190.396C694.887,-178.739 647.804,-162.373 616.167,-151.376"/>
<polygon fill="midnightblue" stroke="midnightblue" points="617.069,-147.984 606.474,-148.007 614.77,-154.596 617.069,-147.984"/>
</g>
<!-- Node22&#45;&gt;Node7 -->
<g id="edge40" class="edge"><title>Node22&#45;&gt;Node7</title>
<path fill="none" stroke="midnightblue" d="M744.138,-128.734C756.886,-119.527 777.37,-104.733 794.129,-92.6293"/>
<polygon fill="midnightblue" stroke="midnightblue" points="796.435,-95.2813 802.492,-86.589 792.336,-89.6066 796.435,-95.2813"/>
</g>
<!-- Node23&#45;&gt;Node1 -->
<g id="edge43" class="edge"><title>Node23&#45;&gt;Node1</title>
<path fill="none" stroke="midnightblue" d="M577.082,-128.64C567.532,-112.174 544.939,-76.6613 517,-56 492.3,-37.7343 459.202,-25.7584 435.034,-18.7875"/>
<polygon fill="midnightblue" stroke="midnightblue" points="435.843,-15.3803 425.273,-16.1026 433.987,-22.1296 435.843,-15.3803"/>
</g>
<!-- Node24 -->
<g id="node25" class="node"><title>Node24</title>
<polygon fill="white" stroke="#bfbfbf" points="569.5,-62 569.5,-81 614.5,-81 614.5,-62 569.5,-62"/>
<text text-anchor="middle" x="592" y="-69" font-family="Helvetica,sans-Serif" font-size="10.00">cstdlib</text>
</g>
<!-- Node23&#45;&gt;Node24 -->
<g id="edge42" class="edge"><title>Node23&#45;&gt;Node24</title>
<path fill="none" stroke="midnightblue" d="M583.349,-128.734C584.818,-119.183 587.213,-103.618 589.11,-91.2829"/>
<polygon fill="midnightblue" stroke="midnightblue" points="592.611,-91.5432 590.673,-81.1273 585.693,-90.4788 592.611,-91.5432"/>
</g>
<!-- Node25&#45;&gt;Node1 -->
<g id="edge46" class="edge"><title>Node25&#45;&gt;Node1</title>
<path fill="none" stroke="midnightblue" d="M205.383,-257.258C180.925,-240.641 130.31,-201.843 111,-154 94.6985,-113.61 82.6439,-89.0608 111,-56 144.124,-17.3802 301.268,-11.5926 370.322,-10.9436"/>
<polygon fill="midnightblue" stroke="midnightblue" points="370.638,-14.4418 380.616,-10.8793 370.594,-7.44191 370.638,-14.4418"/>
</g>
<!-- Node25&#45;&gt;Node2 -->
<g id="edge47" class="edge"><title>Node25&#45;&gt;Node2</title>
<path fill="none" stroke="midnightblue" d="M185.7,-257.422C155.753,-249.312 110.79,-236.151 73,-221 71.3477,-220.338 69.661,-219.617 67.9738,-218.864"/>
<polygon fill="midnightblue" stroke="midnightblue" points="69.0697,-215.509 58.5379,-214.355 66.0516,-221.825 69.0697,-215.509"/>
</g>
<!-- Node25&#45;&gt;Node13 -->
<g id="edge48" class="edge"><title>Node25&#45;&gt;Node13</title>
<path fill="none" stroke="midnightblue" d="M212.895,-257.409C196.918,-233.778 157.115,-166.669 187,-123 201.242,-102.189 225.412,-89.9529 249.076,-82.759"/>
<polygon fill="midnightblue" stroke="midnightblue" points="250.099,-86.1075 258.801,-80.0634 248.229,-79.3618 250.099,-86.1075"/>
</g>
<!-- Node27&#45;&gt;Node3 -->
<g id="edge53" class="edge"><title>Node27&#45;&gt;Node3</title>
<path fill="none" stroke="midnightblue" d="M222.583,-315.157C196.634,-307.157 152.412,-293.287 105.848,-277.182"/>
<polygon fill="midnightblue" stroke="midnightblue" points="106.79,-273.805 96.1957,-273.823 104.49,-280.416 106.79,-273.805"/>
</g>
<!-- Node27&#45;&gt;Node4 -->
<g id="edge52" class="edge"><title>Node27&#45;&gt;Node4</title>
<path fill="none" stroke="midnightblue" d="M246.757,-332.918C249.592,-345.935 256,-370.592 267,-389 273.481,-399.845 282.932,-410.27 291.229,-418.35"/>
<polygon fill="midnightblue" stroke="midnightblue" points="288.996,-421.053 298.695,-425.316 293.771,-415.935 288.996,-421.053"/>
</g>
<!-- Node27&#45;&gt;Node5 -->
<g id="edge51" class="edge"><title>Node27&#45;&gt;Node5</title>
<path fill="none" stroke="midnightblue" d="M260.503,-332.751C271.545,-340.639 285.888,-352.433 296.265,-362.002"/>
<polygon fill="midnightblue" stroke="midnightblue" points="293.973,-364.655 303.598,-369.083 298.835,-359.619 293.973,-364.655"/>
</g>
<!-- Node27&#45;&gt;Node28 -->
<g id="edge54" class="edge"><title>Node27&#45;&gt;Node28</title>
<path fill="none" stroke="midnightblue" d="M227.487,-313.324C209.928,-304.625 182.669,-291.12 162.469,-281.113"/>
<polygon fill="midnightblue" stroke="midnightblue" points="163.984,-277.958 153.469,-276.655 160.876,-284.23 163.984,-277.958"/>
</g>
</g>
</svg>
