<?xml version="1.0" encoding="UTF-8" standalone="no"?>
<!DOCTYPE svg PUBLIC "-//W3C//DTD SVG 1.1//EN"
 "http://www.w3.org/Graphics/SVG/1.1/DTD/svg11.dtd">
<!-- Generated by graphviz version 2.40.1 (20161225.0304)
 -->
<!-- Title: /home/alejandro/Desarrollo eclipse/os1/src/LocalMapping.cc Pages: 1 -->
<svg width="2030pt" height="777pt"
 viewBox="0.00 0.00 2029.50 777.00" xmlns="http://www.w3.org/2000/svg" xmlns:xlink="http://www.w3.org/1999/xlink">
<g id="graph0" class="graph" transform="scale(1 1) rotate(0) translate(4 773)">
<title>/home/alejandro/Desarrollo eclipse/os1/src/LocalMapping.cc</title>
<polygon fill="#ffffff" stroke="transparent" points="-4,4 -4,-773 2025.5,-773 2025.5,4 -4,4"/>
<!-- Node0 -->
<g id="node1" class="node">
<title>Node0</title>
<polygon fill="#bfbfbf" stroke="#000000" points="1028.5,-738.5 1028.5,-768.5 1190.5,-768.5 1190.5,-738.5 1028.5,-738.5"/>
<text text-anchor="start" x="1036.5" y="-756.5" font-family="Helvetica,sans-Serif" font-size="10.00" fill="#000000">/home/alejandro/Desarrollo</text>
<text text-anchor="middle" x="1109.5" y="-745.5" font-family="Helvetica,sans-Serif" font-size="10.00" fill="#000000"> eclipse/os1/src/LocalMapping.cc</text>
</g>
<!-- Node1 -->
<g id="node2" class="node">
<title>Node1</title>
<g id="a_node2"><a xlink:href="_local_mapping_8h.html" target="_top" xlink:title="LocalMapping.h">
<polygon fill="#ffffff" stroke="#000000" points="865,-682.5 865,-701.5 950,-701.5 950,-682.5 865,-682.5"/>
<text text-anchor="middle" x="907.5" y="-689.5" font-family="Helvetica,sans-Serif" font-size="10.00" fill="#000000">LocalMapping.h</text>
</a>
</g>
</g>
<!-- Node0&#45;&gt;Node1 -->
<g id="edge1" class="edge">
<title>Node0&#45;&gt;Node1</title>
<path fill="none" stroke="#191970" d="M1060.0852,-738.4554C1025.7897,-728.0139 980.647,-714.27 948.3778,-704.4455"/>
<polygon fill="#191970" stroke="#191970" points="949.3887,-701.0947 938.8028,-701.5303 947.3499,-707.7912 949.3887,-701.0947"/>
</g>
<!-- Node25 -->
<g id="node25" class="node">
<title>Node25</title>
<polygon fill="#ffffff" stroke="#bfbfbf" points="326.5,-257.5 326.5,-276.5 370.5,-276.5 370.5,-257.5 326.5,-257.5"/>
<text text-anchor="middle" x="348.5" y="-264.5" font-family="Helvetica,sans-Serif" font-size="10.00" fill="#000000">mutex</text>
</g>
<!-- Node0&#45;&gt;Node25 -->
<g id="edge131" class="edge">
<title>Node0&#45;&gt;Node25</title>
<path fill="none" stroke="#191970" d="M1028.1339,-752.6889C785.4631,-749.2016 83.5,-730.9113 83.5,-636 83.5,-636 83.5,-636 83.5,-379 83.5,-339.9495 107.8911,-332.8842 141.5,-313 170.7844,-295.6743 265.7063,-279.3854 316.2064,-271.6696"/>
<polygon fill="#191970" stroke="#191970" points="316.9006,-275.1046 326.2687,-270.1559 315.8593,-268.1825 316.9006,-275.1046"/>
</g>
<!-- Node27 -->
<g id="node27" class="node">
<title>Node27</title>
<g id="a_node27"><a xlink:href="_loop_closing_8h.html" target="_top" xlink:title="LoopClosing.h">
<polygon fill="#ffffff" stroke="#000000" points="936,-626.5 936,-645.5 1015,-645.5 1015,-626.5 936,-626.5"/>
<text text-anchor="middle" x="975.5" y="-633.5" font-family="Helvetica,sans-Serif" font-size="10.00" fill="#000000">LoopClosing.h</text>
</a>
</g>
</g>
<!-- Node0&#45;&gt;Node27 -->
<g id="edge114" class="edge">
<title>Node0&#45;&gt;Node27</title>
<path fill="none" stroke="#191970" d="M1092.2562,-738.3795C1066.998,-716.2315 1020.1267,-675.1316 994.1127,-652.3209"/>
<polygon fill="#191970" stroke="#191970" points="996.2797,-649.566 986.4533,-645.6046 991.6646,-654.8292 996.2797,-649.566"/>
</g>
<!-- Node81 -->
<g id="node47" class="node">
<title>Node81</title>
<g id="a_node47"><a xlink:href="_o_r_bmatcher_8h.html" target="_top" xlink:title="ORBmatcher.h">
<polygon fill="#ffffff" stroke="#000000" points="1447.5,-492.5 1447.5,-511.5 1529.5,-511.5 1529.5,-492.5 1447.5,-492.5"/>
<text text-anchor="middle" x="1488.5" y="-499.5" font-family="Helvetica,sans-Serif" font-size="10.00" fill="#000000">ORBmatcher.h</text>
</a>
</g>
</g>
<!-- Node0&#45;&gt;Node81 -->
<g id="edge115" class="edge">
<title>Node0&#45;&gt;Node81</title>
<path fill="none" stroke="#191970" d="M1190.6416,-745.6456C1231.6637,-738.7958 1280.8127,-725.9784 1319.5,-702 1396.0834,-654.5335 1455.3846,-560.6804 1478.2578,-520.7215"/>
<polygon fill="#191970" stroke="#191970" points="1481.4316,-522.2177 1483.2765,-511.7847 1475.3282,-518.7901 1481.4316,-522.2177"/>
</g>
<!-- Node83 -->
<g id="node49" class="node">
<title>Node83</title>
<g id="a_node49"><a xlink:href="_optimizer_8h.html" target="_top" xlink:title="Optimizer.h">
<polygon fill="#ffffff" stroke="#000000" points="1244,-682.5 1244,-701.5 1311,-701.5 1311,-682.5 1244,-682.5"/>
<text text-anchor="middle" x="1277.5" y="-689.5" font-family="Helvetica,sans-Serif" font-size="10.00" fill="#000000">Optimizer.h</text>
</a>
</g>
</g>
<!-- Node0&#45;&gt;Node83 -->
<g id="edge122" class="edge">
<title>Node0&#45;&gt;Node83</title>
<path fill="none" stroke="#191970" d="M1150.5974,-738.4554C1178.5057,-728.239 1215.0508,-714.8609 1241.7527,-705.0861"/>
<polygon fill="#191970" stroke="#191970" points="1243.2786,-708.2547 1251.466,-701.5303 1240.8722,-701.6813 1243.2786,-708.2547"/>
</g>
<!-- Node84 -->
<g id="node50" class="node">
<title>Node84</title>
<g id="a_node50"><a xlink:href="_key_frame_triangulacion_8h.html" target="_top" xlink:title="KeyFrameTriangulacion.h">
<polygon fill="#ffffff" stroke="#000000" points="1121.5,-626.5 1121.5,-645.5 1249.5,-645.5 1249.5,-626.5 1121.5,-626.5"/>
<text text-anchor="middle" x="1185.5" y="-633.5" font-family="Helvetica,sans-Serif" font-size="10.00" fill="#000000">KeyFrameTriangulacion.h</text>
</a>
</g>
</g>
<!-- Node0&#45;&gt;Node84 -->
<g id="edge129" class="edge">
<title>Node0&#45;&gt;Node84</title>
<path fill="none" stroke="#191970" d="M1119.4357,-738.1389C1133.4396,-716.4881 1158.9327,-677.0745 1173.8235,-654.0525"/>
<polygon fill="#191970" stroke="#191970" points="1176.8246,-655.857 1179.3168,-645.5595 1170.9469,-652.0553 1176.8246,-655.857"/>
</g>
<!-- Node2 -->
<g id="node3" class="node">
<title>Node2</title>
<g id="a_node3"><a xlink:href="_key_frame_8h.html" target="_top" xlink:title="KeyFrame.h">
<polygon fill="#ffffff" stroke="#000000" points="1157.5,-369.5 1157.5,-388.5 1227.5,-388.5 1227.5,-369.5 1157.5,-369.5"/>
<text text-anchor="middle" x="1192.5" y="-376.5" font-family="Helvetica,sans-Serif" font-size="10.00" fill="#000000">KeyFrame.h</text>
</a>
</g>
</g>
<!-- Node1&#45;&gt;Node2 -->
<g id="edge2" class="edge">
<title>Node1&#45;&gt;Node2</title>
<path fill="none" stroke="#191970" d="M946.9247,-682.475C970.8339,-675.2929 1000.9707,-663.6133 1023.5,-646 1112.0976,-576.7349 1167.1705,-447.1927 1185.5985,-398.3237"/>
<polygon fill="#191970" stroke="#191970" points="1188.9781,-399.2745 1189.1495,-388.6811 1182.4094,-396.8555 1188.9781,-399.2745"/>
</g>
<!-- Node22 -->
<g id="node22" class="node">
<title>Node22</title>
<g id="a_node22"><a xlink:href="_key_frame_database_8h.html" target="_top" xlink:title="KeyFrameDatabase.h">
<polygon fill="#ffffff" stroke="#000000" points="641.5,-313.5 641.5,-332.5 753.5,-332.5 753.5,-313.5 641.5,-313.5"/>
<text text-anchor="middle" x="697.5" y="-320.5" font-family="Helvetica,sans-Serif" font-size="10.00" fill="#000000">KeyFrameDatabase.h</text>
</a>
</g>
</g>
<!-- Node1&#45;&gt;Node22 -->
<g id="edge112" class="edge">
<title>Node1&#45;&gt;Node22</title>
<path fill="none" stroke="#191970" d="M864.9492,-689.1624C711.7724,-678.388 197.5,-637.1404 197.5,-569 197.5,-569 197.5,-569 197.5,-440.5 197.5,-352.5075 494.6675,-330.353 630.8111,-324.8203"/>
<polygon fill="#191970" stroke="#191970" points="631.2587,-328.3057 641.1156,-324.4209 630.9875,-321.311 631.2587,-328.3057"/>
</g>
<!-- Node1&#45;&gt;Node25 -->
<g id="edge113" class="edge">
<title>Node1&#45;&gt;Node25</title>
<path fill="none" stroke="#191970" d="M864.9419,-690.132C749.4089,-684.8191 431.7362,-668.5384 329.5,-646 233.2359,-624.7782 121.5,-667.5755 121.5,-569 121.5,-569 121.5,-569 121.5,-379 121.5,-341.0995 143.6423,-333.5312 175.5,-313 219.1295,-284.8823 279.4641,-273.8738 316.1374,-269.618"/>
<polygon fill="#191970" stroke="#191970" points="316.6915,-273.079 326.2672,-268.5452 315.9542,-266.1179 316.6915,-273.079"/>
</g>
<!-- Node26 -->
<g id="node26" class="node">
<title>Node26</title>
<g id="a_node26"><a xlink:href="_map_8h.html" target="_top" xlink:title="Map.h">
<polygon fill="#ffffff" stroke="#000000" points="744.5,-369.5 744.5,-388.5 788.5,-388.5 788.5,-369.5 744.5,-369.5"/>
<text text-anchor="middle" x="766.5" y="-376.5" font-family="Helvetica,sans-Serif" font-size="10.00" fill="#000000">Map.h</text>
</a>
</g>
</g>
<!-- Node1&#45;&gt;Node26 -->
<g id="edge43" class="edge">
<title>Node1&#45;&gt;Node26</title>
<path fill="none" stroke="#191970" d="M910.1696,-682.2519C919.8539,-644.6107 949.4687,-506.7788 888.5,-425 882.8355,-417.4021 832.3729,-400.0594 798.1479,-388.9731"/>
<polygon fill="#191970" stroke="#191970" points="799.1372,-385.6148 788.5459,-385.8883 796.9961,-392.2793 799.1372,-385.6148"/>
</g>
<!-- Node1&#45;&gt;Node27 -->
<g id="edge47" class="edge">
<title>Node1&#45;&gt;Node27</title>
<path fill="none" stroke="#191970" d="M914.0779,-682.2455C922.688,-673.814 937.386,-661.4729 950.3547,-651.6598"/>
<polygon fill="#191970" stroke="#191970" points="952.5587,-654.3836 958.5459,-645.6427 948.4145,-648.7421 952.5587,-654.3836"/>
</g>
<!-- Node28 -->
<g id="node28" class="node">
<title>Node28</title>
<g id="a_node28"><a xlink:href="_tracking_8h.html" target="_top" xlink:title="Tracking.h">
<polygon fill="#ffffff" stroke="#000000" points="627.5,-559.5 627.5,-578.5 689.5,-578.5 689.5,-559.5 627.5,-559.5"/>
<text text-anchor="middle" x="658.5" y="-566.5" font-family="Helvetica,sans-Serif" font-size="10.00" fill="#000000">Tracking.h</text>
</a>
</g>
</g>
<!-- Node1&#45;&gt;Node28 -->
<g id="edge111" class="edge">
<title>Node1&#45;&gt;Node28</title>
<path fill="none" stroke="#191970" d="M884.1184,-682.3484C836.9431,-660.8374 731.4905,-608.8608 683.2339,-583.4596"/>
<polygon fill="#191970" stroke="#191970" points="684.5847,-580.2138 674.1124,-578.6068 681.2968,-586.3936 684.5847,-580.2138"/>
</g>
<!-- Node3 -->
<g id="node4" class="node">
<title>Node3</title>
<g id="a_node4"><a xlink:href="_bow_vector_8h.html" target="_top" xlink:title="../Thirdparty/DBoW2\l/DBoW2/BowVector.h">
<polygon fill="#ffffff" stroke="#000000" points="1635,-56.5 1635,-86.5 1748,-86.5 1748,-56.5 1635,-56.5"/>
<text text-anchor="start" x="1643" y="-74.5" font-family="Helvetica,sans-Serif" font-size="10.00" fill="#000000">../Thirdparty/DBoW2</text>
<text text-anchor="middle" x="1691.5" y="-63.5" font-family="Helvetica,sans-Serif" font-size="10.00" fill="#000000">/DBoW2/BowVector.h</text>
</a>
</g>
</g>
<!-- Node2&#45;&gt;Node3 -->
<g id="edge3" class="edge">
<title>Node2&#45;&gt;Node3</title>
<path fill="none" stroke="#191970" d="M1227.7161,-373.3824C1317.2158,-357.1611 1554.6322,-301.6164 1672.5,-154 1685.411,-137.8304 1689.8678,-114.4954 1691.2642,-96.7659"/>
<polygon fill="#191970" stroke="#191970" points="1694.7704,-96.7312 1691.7864,-86.5653 1687.7796,-96.3732 1694.7704,-96.7312"/>
</g>
<!-- Node7 -->
<g id="node8" class="node">
<title>Node7</title>
<g id="a_node8"><a xlink:href="_feature_vector_8h.html" target="_top" xlink:title="../Thirdparty/DBoW2\l/DBoW2/FeatureVector.h">
<polygon fill="#ffffff" stroke="#000000" points="1758,-123.5 1758,-153.5 1885,-153.5 1885,-123.5 1758,-123.5"/>
<text text-anchor="start" x="1766" y="-141.5" font-family="Helvetica,sans-Serif" font-size="10.00" fill="#000000">../Thirdparty/DBoW2</text>
<text text-anchor="middle" x="1821.5" y="-130.5" font-family="Helvetica,sans-Serif" font-size="10.00" fill="#000000">/DBoW2/FeatureVector.h</text>
</a>
</g>
</g>
<!-- Node2&#45;&gt;Node7 -->
<g id="edge7" class="edge">
<title>Node2&#45;&gt;Node7</title>
<path fill="none" stroke="#191970" d="M1227.604,-376.5316C1304.6568,-370.7704 1486.2809,-355.2194 1543.5,-333 1649.4288,-291.8656 1753.5778,-202.2737 1798.474,-160.6173"/>
<polygon fill="#191970" stroke="#191970" points="1801.0026,-163.0444 1805.9076,-153.6533 1796.2169,-157.9359 1801.0026,-163.0444"/>
</g>
<!-- Node8 -->
<g id="node9" class="node">
<title>Node8</title>
<g id="a_node9"><a xlink:href="_o_r_b_vocabulary_8h.html" target="_top" xlink:title="ORBVocabulary.h">
<polygon fill="#ffffff" stroke="#000000" points="936,-257.5 936,-276.5 1031,-276.5 1031,-257.5 936,-257.5"/>
<text text-anchor="middle" x="983.5" y="-264.5" font-family="Helvetica,sans-Serif" font-size="10.00" fill="#000000">ORBVocabulary.h</text>
</a>
</g>
</g>
<!-- Node2&#45;&gt;Node8 -->
<g id="edge12" class="edge">
<title>Node2&#45;&gt;Node8</title>
<path fill="none" stroke="#191970" d="M1182.8381,-369.2504C1168.4235,-355.1672 1139.9266,-329.0636 1111.5,-313 1085.819,-298.4879 1054.7231,-287.1856 1029.6116,-279.416"/>
<polygon fill="#191970" stroke="#191970" points="1030.5389,-276.0401 1019.9545,-276.5094 1028.5214,-282.7431 1030.5389,-276.0401"/>
</g>
<!-- Node2&#45;&gt;Node22 -->
<g id="edge36" class="edge">
<title>Node2&#45;&gt;Node22</title>
<path fill="none" stroke="#191970" d="M1157.2976,-375.0175C1075.2397,-365.7342 870.1746,-342.5349 763.8195,-330.5028"/>
<polygon fill="#191970" stroke="#191970" points="764.1728,-327.0205 753.8427,-329.3741 763.3858,-333.9762 764.1728,-327.0205"/>
</g>
<!-- Node2&#45;&gt;Node25 -->
<g id="edge42" class="edge">
<title>Node2&#45;&gt;Node25</title>
<path fill="none" stroke="#191970" d="M1157.4168,-377.7344C1050.9052,-373.6381 732.4629,-359.4485 632.5,-333 612.124,-327.6088 609.5597,-319.4695 589.5,-313 516.7249,-289.5293 427.5073,-276.3559 380.6933,-270.5795"/>
<polygon fill="#191970" stroke="#191970" points="380.899,-267.0791 370.5533,-269.3629 380.0651,-274.0293 380.899,-267.0791"/>
</g>
<!-- Node4 -->
<g id="node5" class="node">
<title>Node4</title>
<polygon fill="#ffffff" stroke="#bfbfbf" points="1825.5,-.5 1825.5,-19.5 1879.5,-19.5 1879.5,-.5 1825.5,-.5"/>
<text text-anchor="middle" x="1852.5" y="-7.5" font-family="Helvetica,sans-Serif" font-size="10.00" fill="#000000">iostream</text>
</g>
<!-- Node3&#45;&gt;Node4 -->
<g id="edge4" class="edge">
<title>Node3&#45;&gt;Node4</title>
<path fill="none" stroke="#191970" d="M1730.885,-56.4554C1757.5127,-46.284 1792.3444,-32.9787 1817.9034,-23.2155"/>
<polygon fill="#191970" stroke="#191970" points="1819.458,-26.3684 1827.5507,-19.5303 1816.9601,-19.8292 1819.458,-26.3684"/>
</g>
<!-- Node5 -->
<g id="node6" class="node">
<title>Node5</title>
<polygon fill="#ffffff" stroke="#bfbfbf" points="1723,-.5 1723,-19.5 1758,-19.5 1758,-.5 1723,-.5"/>
<text text-anchor="middle" x="1740.5" y="-7.5" font-family="Helvetica,sans-Serif" font-size="10.00" fill="#000000">map</text>
</g>
<!-- Node3&#45;&gt;Node5 -->
<g id="edge5" class="edge">
<title>Node3&#45;&gt;Node5</title>
<path fill="none" stroke="#191970" d="M1703.6124,-56.2977C1710.4849,-47.672 1719.1223,-36.8312 1726.311,-27.8087"/>
<polygon fill="#191970" stroke="#191970" points="1729.1604,-29.849 1732.6545,-19.8469 1723.6856,-25.487 1729.1604,-29.849"/>
</g>
<!-- Node6 -->
<g id="node7" class="node">
<title>Node6</title>
<polygon fill="#ffffff" stroke="#bfbfbf" points="1412.5,-.5 1412.5,-19.5 1456.5,-19.5 1456.5,-.5 1412.5,-.5"/>
<text text-anchor="middle" x="1434.5" y="-7.5" font-family="Helvetica,sans-Serif" font-size="10.00" fill="#000000">vector</text>
</g>
<!-- Node3&#45;&gt;Node6 -->
<g id="edge6" class="edge">
<title>Node3&#45;&gt;Node6</title>
<path fill="none" stroke="#191970" d="M1634.7821,-57.9274C1583.1352,-45.5684 1508.7101,-27.7584 1466.6453,-17.6923"/>
<polygon fill="#191970" stroke="#191970" points="1467.2216,-14.2315 1456.6816,-15.308 1465.5924,-21.0393 1467.2216,-14.2315"/>
</g>
<!-- Node7&#45;&gt;Node3 -->
<g id="edge8" class="edge">
<title>Node7&#45;&gt;Node3</title>
<path fill="none" stroke="#191970" d="M1792.3255,-123.4639C1773.9719,-114.0047 1750.0765,-101.6894 1730.155,-91.4222"/>
<polygon fill="#191970" stroke="#191970" points="1731.5193,-88.1879 1721.027,-86.7177 1728.3124,-94.4101 1731.5193,-88.1879"/>
</g>
<!-- Node7&#45;&gt;Node4 -->
<g id="edge11" class="edge">
<title>Node7&#45;&gt;Node4</title>
<path fill="none" stroke="#191970" d="M1825.1778,-123.2548C1830.8193,-99.87 1841.6049,-55.1619 1847.8038,-29.4665"/>
<polygon fill="#191970" stroke="#191970" points="1851.2084,-30.2778 1850.1513,-19.7358 1844.4036,-28.6361 1851.2084,-30.2778"/>
</g>
<!-- Node7&#45;&gt;Node5 -->
<g id="edge9" class="edge">
<title>Node7&#45;&gt;Node5</title>
<path fill="none" stroke="#191970" d="M1818.0444,-123.2011C1813.6246,-105.8391 1804.7849,-77.1862 1790.5,-56 1782.8497,-44.6538 1771.8646,-34.1441 1762.1384,-26.043"/>
<polygon fill="#191970" stroke="#191970" points="1764.0328,-23.0773 1754.0307,-19.5833 1759.6709,-28.5521 1764.0328,-23.0773"/>
</g>
<!-- Node7&#45;&gt;Node6 -->
<g id="edge10" class="edge">
<title>Node7&#45;&gt;Node6</title>
<path fill="none" stroke="#191970" d="M1811.6573,-123.1706C1797.5169,-101.6523 1771.6073,-64.1946 1757.5,-56 1708.4671,-27.518 1538.5522,-15.45 1466.8365,-11.5433"/>
<polygon fill="#191970" stroke="#191970" points="1466.7679,-8.0349 1456.5979,-11.0051 1466.4004,-15.0253 1466.7679,-8.0349"/>
</g>
<!-- Node9 -->
<g id="node10" class="node">
<title>Node9</title>
<g id="a_node10"><a xlink:href="_f_o_r_b_8h.html" target="_top" xlink:title="../Thirdparty/DBoW2\l/DBoW2/FORB.h">
<polygon fill="#ffffff" stroke="#000000" points="799,-190.5 799,-220.5 906,-220.5 906,-190.5 799,-190.5"/>
<text text-anchor="start" x="807" y="-208.5" font-family="Helvetica,sans-Serif" font-size="10.00" fill="#000000">../Thirdparty/DBoW2</text>
<text text-anchor="middle" x="852.5" y="-197.5" font-family="Helvetica,sans-Serif" font-size="10.00" fill="#000000">/DBoW2/FORB.h</text>
</a>
</g>
</g>
<!-- Node8&#45;&gt;Node9 -->
<g id="edge13" class="edge">
<title>Node8&#45;&gt;Node9</title>
<path fill="none" stroke="#191970" d="M963.0313,-257.3906C944.5633,-248.7205 916.8382,-235.7046 893.7764,-224.8779"/>
<polygon fill="#191970" stroke="#191970" points="895.0857,-221.6261 884.5462,-220.5446 892.1109,-227.9625 895.0857,-221.6261"/>
</g>
<!-- Node13 -->
<g id="node14" class="node">
<title>Node13</title>
<g id="a_node14"><a xlink:href="_templated_vocabulary_8h.html" target="_top" xlink:title="../Thirdparty/DBoW2\l/DBoW2/TemplatedVocabulary.h">
<polygon fill="#ffffff" stroke="#000000" points="1057.5,-190.5 1057.5,-220.5 1217.5,-220.5 1217.5,-190.5 1057.5,-190.5"/>
<text text-anchor="start" x="1065.5" y="-208.5" font-family="Helvetica,sans-Serif" font-size="10.00" fill="#000000">../Thirdparty/DBoW2</text>
<text text-anchor="middle" x="1137.5" y="-197.5" font-family="Helvetica,sans-Serif" font-size="10.00" fill="#000000">/DBoW2/TemplatedVocabulary.h</text>
</a>
</g>
</g>
<!-- Node8&#45;&gt;Node13 -->
<g id="edge21" class="edge">
<title>Node8&#45;&gt;Node13</title>
<path fill="none" stroke="#191970" d="M1007.5625,-257.3906C1029.6589,-248.5664 1063.0281,-235.2404 1090.4172,-224.3026"/>
<polygon fill="#191970" stroke="#191970" points="1091.8386,-227.5038 1099.8274,-220.5446 1089.2424,-221.003 1091.8386,-227.5038"/>
</g>
<!-- Node9&#45;&gt;Node6 -->
<g id="edge15" class="edge">
<title>Node9&#45;&gt;Node6</title>
<path fill="none" stroke="#191970" d="M857.3078,-190.4799C863.6586,-172.5891 876.3308,-142.6589 895.5,-123 938.4154,-78.9883 957.9146,-74.6149 1016.5,-56 1088.4805,-33.129 1317.1475,-17.1799 1402.2133,-11.9033"/>
<polygon fill="#191970" stroke="#191970" points="1402.549,-15.3894 1412.3166,-11.2851 1402.1214,-8.4025 1402.549,-15.3894"/>
</g>
<!-- Node10 -->
<g id="node11" class="node">
<title>Node10</title>
<polygon fill="#ffffff" stroke="#bfbfbf" points="1025.5,-62 1025.5,-81 1141.5,-81 1141.5,-62 1025.5,-62"/>
<text text-anchor="middle" x="1083.5" y="-69" font-family="Helvetica,sans-Serif" font-size="10.00" fill="#000000">opencv2/core/core.hpp</text>
</g>
<!-- Node9&#45;&gt;Node10 -->
<g id="edge14" class="edge">
<title>Node9&#45;&gt;Node10</title>
<path fill="none" stroke="#191970" d="M864.5035,-190.3808C879.7248,-172.1113 907.6087,-141.5243 937.5,-123 966.5204,-105.0155 1002.687,-92.199 1031.7633,-83.8497"/>
<polygon fill="#191970" stroke="#191970" points="1033.0304,-87.1303 1041.7289,-81.0816 1031.1569,-80.3857 1033.0304,-87.1303"/>
</g>
<!-- Node11 -->
<g id="node12" class="node">
<title>Node11</title>
<polygon fill="#ffffff" stroke="#bfbfbf" points="682,-62 682,-81 723,-81 723,-62 682,-62"/>
<text text-anchor="middle" x="702.5" y="-69" font-family="Helvetica,sans-Serif" font-size="10.00" fill="#000000">string</text>
</g>
<!-- Node9&#45;&gt;Node11 -->
<g id="edge16" class="edge">
<title>Node9&#45;&gt;Node11</title>
<path fill="none" stroke="#191970" d="M798.7145,-194.9009C773.6243,-187.392 745.236,-174.8125 726.5,-154 710.8795,-136.6483 705.3883,-109.6757 703.4794,-91.3324"/>
<polygon fill="#191970" stroke="#191970" points="706.9557,-90.8898 702.6952,-81.1894 699.9766,-91.4294 706.9557,-90.8898"/>
</g>
<!-- Node12 -->
<g id="node13" class="node">
<title>Node12</title>
<g id="a_node13"><a xlink:href="_f_class_8h.html" target="_top" xlink:title="FClass.h">
<polygon fill="#ffffff" stroke="#000000" points="768.5,-129 768.5,-148 824.5,-148 824.5,-129 768.5,-129"/>
<text text-anchor="middle" x="796.5" y="-136" font-family="Helvetica,sans-Serif" font-size="10.00" fill="#000000">FClass.h</text>
</a>
</g>
</g>
<!-- Node9&#45;&gt;Node12 -->
<g id="edge17" class="edge">
<title>Node9&#45;&gt;Node12</title>
<path fill="none" stroke="#191970" d="M839.7927,-190.2967C831.2371,-180.0605 819.9335,-166.5366 811.0221,-155.8746"/>
<polygon fill="#191970" stroke="#191970" points="813.5849,-153.4832 804.4862,-148.055 808.2139,-157.9724 813.5849,-153.4832"/>
</g>
<!-- Node12&#45;&gt;Node6 -->
<g id="edge19" class="edge">
<title>Node12&#45;&gt;Node6</title>
<path fill="none" stroke="#191970" d="M798.2498,-128.8211C802.041,-110.9708 812.8321,-73.1291 838.5,-56 885.5347,-24.6121 1284.4639,-13.3277 1402.0249,-10.6664"/>
<polygon fill="#191970" stroke="#191970" points="1402.2729,-14.1619 1412.1932,-10.4421 1402.1184,-7.1636 1402.2729,-14.1619"/>
</g>
<!-- Node12&#45;&gt;Node10 -->
<g id="edge18" class="edge">
<title>Node12&#45;&gt;Node10</title>
<path fill="none" stroke="#191970" d="M824.5413,-131.9538C872.7746,-120.6937 972.0959,-97.5072 1032.7461,-83.3485"/>
<polygon fill="#191970" stroke="#191970" points="1033.5578,-86.7532 1042.5003,-81.0714 1031.9664,-79.9365 1033.5578,-86.7532"/>
</g>
<!-- Node12&#45;&gt;Node11 -->
<g id="edge20" class="edge">
<title>Node12&#45;&gt;Node11</title>
<path fill="none" stroke="#191970" d="M783.0321,-128.9005C767.6756,-117.9549 742.3537,-99.9064 724.2024,-86.9688"/>
<polygon fill="#191970" stroke="#191970" points="726.1176,-84.0358 715.9429,-81.0817 722.0546,-89.736 726.1176,-84.0358"/>
</g>
<!-- Node13&#45;&gt;Node3 -->
<g id="edge31" class="edge">
<title>Node13&#45;&gt;Node3</title>
<path fill="none" stroke="#191970" d="M1205.6409,-190.4893C1250.7742,-180.4366 1311.2493,-166.756 1364.5,-154 1454.945,-132.3342 1559.0473,-105.792 1625.0364,-88.7665"/>
<polygon fill="#191970" stroke="#191970" points="1626.0835,-92.111 1634.8906,-86.2217 1624.3331,-85.3334 1626.0835,-92.111"/>
</g>
<!-- Node13&#45;&gt;Node6 -->
<g id="edge23" class="edge">
<title>Node13&#45;&gt;Node6</title>
<path fill="none" stroke="#191970" d="M1167.3364,-190.2999C1185.1,-180.7529 1207.7579,-167.6862 1226.5,-154 1278.8449,-115.7757 1280.4271,-91.738 1334.5,-56 1356.0099,-41.7836 1382.6237,-29.775 1402.9866,-21.5959"/>
<polygon fill="#191970" stroke="#191970" points="1404.3972,-24.8023 1412.4311,-17.8954 1401.8434,-18.2848 1404.3972,-24.8023"/>
</g>
<!-- Node13&#45;&gt;Node7 -->
<g id="edge30" class="edge">
<title>Node13&#45;&gt;Node7</title>
<path fill="none" stroke="#191970" d="M1217.7336,-197.9705C1322.3914,-188.1044 1511.1785,-170.1552 1672.5,-154 1696.9549,-151.551 1723.6587,-148.798 1747.6187,-146.2991"/>
<polygon fill="#191970" stroke="#191970" points="1748.1225,-149.7655 1757.7047,-145.2453 1747.3951,-142.8034 1748.1225,-149.7655"/>
</g>
<!-- Node13&#45;&gt;Node10 -->
<g id="edge28" class="edge">
<title>Node13&#45;&gt;Node10</title>
<path fill="none" stroke="#191970" d="M1057.3702,-193.711C1011.8627,-185.1965 961.2834,-172.0168 947.5,-154 921.2055,-119.6295 978.0609,-96.4246 1026.1224,-83.5943"/>
<polygon fill="#191970" stroke="#191970" points="1027.0816,-86.9617 1035.9005,-81.09 1025.3448,-80.1806 1027.0816,-86.9617"/>
</g>
<!-- Node13&#45;&gt;Node11 -->
<g id="edge26" class="edge">
<title>Node13&#45;&gt;Node11</title>
<path fill="none" stroke="#191970" d="M1057.104,-198.0238C953.6839,-187.8743 784.3318,-169.252 759.5,-154 735.3572,-139.1712 718.874,-109.8531 710.0691,-90.462"/>
<polygon fill="#191970" stroke="#191970" points="713.2189,-88.9262 706.0659,-81.1105 706.7838,-91.681 713.2189,-88.9262"/>
</g>
<!-- Node14 -->
<g id="node15" class="node">
<title>Node14</title>
<polygon fill="#ffffff" stroke="#bfbfbf" points="957,-129 957,-148 1006,-148 1006,-129 957,-129"/>
<text text-anchor="middle" x="981.5" y="-136" font-family="Helvetica,sans-Serif" font-size="10.00" fill="#000000">cassert</text>
</g>
<!-- Node13&#45;&gt;Node14 -->
<g id="edge22" class="edge">
<title>Node13&#45;&gt;Node14</title>
<path fill="none" stroke="#191970" d="M1100.4558,-190.471C1075.9495,-180.4106 1043.1704,-166.7284 1014.5,-154 1013.3285,-153.4799 1012.1359,-152.9451 1010.9327,-152.4012"/>
<polygon fill="#191970" stroke="#191970" points="1012.2294,-149.1451 1001.6818,-148.1455 1009.3039,-155.5045 1012.2294,-149.1451"/>
</g>
<!-- Node15 -->
<g id="node16" class="node">
<title>Node15</title>
<polygon fill="#ffffff" stroke="#bfbfbf" points="1024,-129 1024,-148 1075,-148 1075,-129 1024,-129"/>
<text text-anchor="middle" x="1049.5" y="-136" font-family="Helvetica,sans-Serif" font-size="10.00" fill="#000000">numeric</text>
</g>
<!-- Node13&#45;&gt;Node15 -->
<g id="edge24" class="edge">
<title>Node13&#45;&gt;Node15</title>
<path fill="none" stroke="#191970" d="M1117.5314,-190.2967C1103.4213,-179.5537 1084.5549,-165.1895 1070.2692,-154.3129"/>
<polygon fill="#191970" stroke="#191970" points="1072.1264,-151.328 1062.0498,-148.055 1067.886,-156.8975 1072.1264,-151.328"/>
</g>
<!-- Node16 -->
<g id="node17" class="node">
<title>Node16</title>
<polygon fill="#ffffff" stroke="#bfbfbf" points="1093.5,-129 1093.5,-148 1143.5,-148 1143.5,-129 1093.5,-129"/>
<text text-anchor="middle" x="1118.5" y="-136" font-family="Helvetica,sans-Serif" font-size="10.00" fill="#000000">fstream</text>
</g>
<!-- Node13&#45;&gt;Node16 -->
<g id="edge25" class="edge">
<title>Node13&#45;&gt;Node16</title>
<path fill="none" stroke="#191970" d="M1133.1886,-190.2967C1130.4582,-180.6685 1126.903,-168.1318 1123.9742,-157.8038"/>
<polygon fill="#191970" stroke="#191970" points="1127.3052,-156.7207 1121.2096,-148.055 1120.5707,-158.6305 1127.3052,-156.7207"/>
</g>
<!-- Node17 -->
<g id="node18" class="node">
<title>Node17</title>
<polygon fill="#ffffff" stroke="#bfbfbf" points="1161.5,-129 1161.5,-148 1217.5,-148 1217.5,-129 1161.5,-129"/>
<text text-anchor="middle" x="1189.5" y="-136" font-family="Helvetica,sans-Serif" font-size="10.00" fill="#000000">algorithm</text>
</g>
<!-- Node13&#45;&gt;Node17 -->
<g id="edge27" class="edge">
<title>Node13&#45;&gt;Node17</title>
<path fill="none" stroke="#191970" d="M1149.2996,-190.2967C1157.1655,-180.1618 1167.5327,-166.804 1175.7688,-156.1921"/>
<polygon fill="#191970" stroke="#191970" points="1178.7179,-158.1008 1182.0842,-148.055 1173.188,-153.8089 1178.7179,-158.1008"/>
</g>
<!-- Node18 -->
<g id="node19" class="node">
<title>Node18</title>
<polygon fill="#ffffff" stroke="#bfbfbf" points="1903.5,-129 1903.5,-148 1943.5,-148 1943.5,-129 1903.5,-129"/>
<text text-anchor="middle" x="1923.5" y="-136" font-family="Helvetica,sans-Serif" font-size="10.00" fill="#000000">limits</text>
</g>
<!-- Node13&#45;&gt;Node18 -->
<g id="edge29" class="edge">
<title>Node13&#45;&gt;Node18</title>
<path fill="none" stroke="#191970" d="M1217.7974,-204.2931C1385.8277,-201.0752 1769.3049,-189.9176 1894.5,-154 1895.9747,-153.5769 1897.4594,-153.0718 1898.9358,-152.5066"/>
<polygon fill="#191970" stroke="#191970" points="1900.7621,-155.5178 1908.3625,-148.1364 1897.8179,-149.1671 1900.7621,-155.5178"/>
</g>
<!-- Node19 -->
<g id="node20" class="node">
<title>Node19</title>
<g id="a_node20"><a xlink:href="_scoring_object_8h.html" target="_top" xlink:title="ScoringObject.h">
<polygon fill="#ffffff" stroke="#000000" points="1577.5,-129 1577.5,-148 1663.5,-148 1663.5,-129 1577.5,-129"/>
<text text-anchor="middle" x="1620.5" y="-136" font-family="Helvetica,sans-Serif" font-size="10.00" fill="#000000">ScoringObject.h</text>
</a>
</g>
</g>
<!-- Node13&#45;&gt;Node19 -->
<g id="edge32" class="edge">
<title>Node13&#45;&gt;Node19</title>
<path fill="none" stroke="#191970" d="M1217.5286,-194.3987C1316.6124,-180.6542 1482.6225,-157.6259 1567.3093,-145.8784"/>
<polygon fill="#191970" stroke="#191970" points="1568.0465,-149.3098 1577.4707,-144.4689 1567.0846,-142.3762 1568.0465,-149.3098"/>
</g>
<!-- Node20 -->
<g id="node21" class="node">
<title>Node20</title>
<g id="a_node21"><a xlink:href="_random_8h.html" target="_top" xlink:title="../DUtils/Random.h">
<polygon fill="#ffffff" stroke="#ff0000" points="1344,-62 1344,-81 1445,-81 1445,-62 1344,-62"/>
<text text-anchor="middle" x="1394.5" y="-69" font-family="Helvetica,sans-Serif" font-size="10.00" fill="#000000">../DUtils/Random.h</text>
</a>
</g>
</g>
<!-- Node13&#45;&gt;Node20 -->
<g id="edge34" class="edge">
<title>Node13&#45;&gt;Node20</title>
<path fill="none" stroke="#191970" d="M1217.482,-190.4693C1263.5508,-180.7076 1316.0718,-167.3549 1335.5,-154 1358.9936,-137.8505 1376.3692,-109.1305 1385.9685,-90.1992"/>
<polygon fill="#191970" stroke="#191970" points="1389.1803,-91.5969 1390.381,-81.0703 1382.8779,-88.5506 1389.1803,-91.5969"/>
</g>
<!-- Node19&#45;&gt;Node3 -->
<g id="edge33" class="edge">
<title>Node19&#45;&gt;Node3</title>
<path fill="none" stroke="#191970" d="M1630.6726,-128.9005C1640.3892,-119.7313 1655.3879,-105.5776 1668.06,-93.6195"/>
<polygon fill="#191970" stroke="#191970" points="1670.7106,-95.9306 1675.5814,-86.5218 1665.9063,-90.8395 1670.7106,-95.9306"/>
</g>
<!-- Node20&#45;&gt;Node6 -->
<g id="edge35" class="edge">
<title>Node20&#45;&gt;Node6</title>
<path fill="none" stroke="#191970" d="M1400.75,-61.8906C1406.5865,-52.917 1415.4509,-39.2879 1422.6306,-28.2491"/>
<polygon fill="#191970" stroke="#191970" points="1425.6436,-30.0361 1428.1619,-19.7449 1419.7755,-26.2194 1425.6436,-30.0361"/>
</g>
<!-- Node22&#45;&gt;Node6 -->
<g id="edge37" class="edge">
<title>Node22&#45;&gt;Node6</title>
<path fill="none" stroke="#191970" d="M659.9871,-313.3934C612.6959,-298.7605 537.5,-265.9835 537.5,-205.5 537.5,-205.5 537.5,-205.5 537.5,-138.5 537.5,-68.1833 605.4164,-77.0769 672.5,-56 742.7467,-33.9293 1265.2636,-15.5125 1401.8891,-11.0379"/>
<polygon fill="#191970" stroke="#191970" points="1402.2424,-14.5284 1412.1234,-10.7053 1402.015,-7.5321 1402.2424,-14.5284"/>
</g>
<!-- Node22&#45;&gt;Node8 -->
<g id="edge40" class="edge">
<title>Node22&#45;&gt;Node8</title>
<path fill="none" stroke="#191970" d="M746.3402,-313.4369C796.1008,-303.6936 873.2445,-288.5885 925.943,-278.2699"/>
<polygon fill="#191970" stroke="#191970" points="926.6726,-281.6936 935.8137,-276.3372 925.3275,-274.824 926.6726,-281.6936"/>
</g>
<!-- Node23 -->
<g id="node23" class="node">
<title>Node23</title>
<polygon fill="#ffffff" stroke="#bfbfbf" points="1116,-257.5 1116,-276.5 1145,-276.5 1145,-257.5 1116,-257.5"/>
<text text-anchor="middle" x="1130.5" y="-264.5" font-family="Helvetica,sans-Serif" font-size="10.00" fill="#000000">list</text>
</g>
<!-- Node22&#45;&gt;Node23 -->
<g id="edge38" class="edge">
<title>Node22&#45;&gt;Node23</title>
<path fill="none" stroke="#191970" d="M753.6633,-315.7364C848.8207,-303.4297 1037.9945,-278.9638 1105.6899,-270.2087"/>
<polygon fill="#191970" stroke="#191970" points="1106.3607,-273.6512 1115.8291,-268.8974 1105.4628,-266.709 1106.3607,-273.6512"/>
</g>
<!-- Node24 -->
<g id="node24" class="node">
<title>Node24</title>
<polygon fill="#ffffff" stroke="#bfbfbf" points="724.5,-257.5 724.5,-276.5 754.5,-276.5 754.5,-257.5 724.5,-257.5"/>
<text text-anchor="middle" x="739.5" y="-264.5" font-family="Helvetica,sans-Serif" font-size="10.00" fill="#000000">set</text>
</g>
<!-- Node22&#45;&gt;Node24 -->
<g id="edge39" class="edge">
<title>Node22&#45;&gt;Node24</title>
<path fill="none" stroke="#191970" d="M704.8158,-313.2455C710.7179,-305.3761 719.1742,-294.101 726.2594,-284.6542"/>
<polygon fill="#191970" stroke="#191970" points="729.068,-286.7427 732.268,-276.6427 723.4679,-282.5427 729.068,-286.7427"/>
</g>
<!-- Node22&#45;&gt;Node25 -->
<g id="edge41" class="edge">
<title>Node22&#45;&gt;Node25</title>
<path fill="none" stroke="#191970" d="M641.4271,-314.0026C567.4466,-302.1318 439.6954,-281.6331 380.421,-272.122"/>
<polygon fill="#191970" stroke="#191970" points="380.9396,-268.6605 370.5113,-270.5319 379.8305,-275.5721 380.9396,-268.6605"/>
</g>
<!-- Node26&#45;&gt;Node8 -->
<g id="edge44" class="edge">
<title>Node26&#45;&gt;Node8</title>
<path fill="none" stroke="#191970" d="M785.0013,-369.4509C823.1961,-349.7375 910.9473,-304.4465 955.8822,-281.2543"/>
<polygon fill="#191970" stroke="#191970" points="957.7646,-284.2215 965.0455,-276.5249 954.554,-278.0012 957.7646,-284.2215"/>
</g>
<!-- Node26&#45;&gt;Node24 -->
<g id="edge45" class="edge">
<title>Node26&#45;&gt;Node24</title>
<path fill="none" stroke="#191970" d="M767.1059,-369.4093C767.6624,-356.3914 767.7348,-332.5137 762.5,-313 759.9672,-303.5583 755.394,-293.7789 750.9889,-285.6776"/>
<polygon fill="#191970" stroke="#191970" points="753.8757,-283.6773 745.8475,-276.7635 747.812,-287.1747 753.8757,-283.6773"/>
</g>
<!-- Node26&#45;&gt;Node25 -->
<g id="edge46" class="edge">
<title>Node26&#45;&gt;Node25</title>
<path fill="none" stroke="#191970" d="M744.2137,-374.6065C706.4121,-367.0189 627.4056,-350.5751 561.5,-333 496.5325,-315.6751 421.6789,-291.4797 380.2563,-277.7104"/>
<polygon fill="#191970" stroke="#191970" points="381.31,-274.3723 370.7162,-274.5268 379.0941,-281.0124 381.31,-274.3723"/>
</g>
<!-- Node27&#45;&gt;Node1 -->
<g id="edge49" class="edge">
<title>Node27&#45;&gt;Node1</title>
<path fill="none" stroke="#191970" d="M969.0362,-645.6427C960.4801,-654.0394 945.8016,-666.3743 932.8177,-676.2097"/>
<polygon fill="#191970" stroke="#191970" points="930.5934,-673.5009 924.6115,-682.2455 934.741,-679.1399 930.5934,-673.5009"/>
</g>
<!-- Node27&#45;&gt;Node2 -->
<g id="edge48" class="edge">
<title>Node27&#45;&gt;Node2</title>
<path fill="none" stroke="#191970" d="M989.1431,-626.2074C1000.9694,-617.3995 1018.2219,-603.7633 1031.5,-590 1064.2737,-556.0288 1147.7131,-441.2822 1179.727,-396.8139"/>
<polygon fill="#191970" stroke="#191970" points="1182.5837,-398.8362 1185.578,-388.6733 1176.8996,-394.7507 1182.5837,-398.8362"/>
</g>
<!-- Node27&#45;&gt;Node8 -->
<g id="edge51" class="edge">
<title>Node27&#45;&gt;Node8</title>
<path fill="none" stroke="#191970" d="M983.6655,-626.1553C990.4402,-617.3141 999.5754,-603.6582 1003.5,-590 1035.5189,-478.569 1002.9222,-336.9063 989.0764,-286.156"/>
<polygon fill="#191970" stroke="#191970" points="992.4383,-285.1817 986.3644,-276.5008 985.6991,-287.0747 992.4383,-285.1817"/>
</g>
<!-- Node27&#45;&gt;Node22 -->
<g id="edge99" class="edge">
<title>Node27&#45;&gt;Node22</title>
<path fill="none" stroke="#191970" d="M951.6078,-626.3795C911.319,-609.0713 829.4817,-569.0908 780.5,-512 735.667,-459.7447 711.379,-379.4724 702.0498,-342.6679"/>
<polygon fill="#191970" stroke="#191970" points="705.3943,-341.609 699.6286,-332.7204 698.5929,-343.2645 705.3943,-341.609"/>
</g>
<!-- Node27&#45;&gt;Node25 -->
<g id="edge101" class="edge">
<title>Node27&#45;&gt;Node25</title>
<path fill="none" stroke="#191970" d="M935.8669,-633.7366C772.4527,-623.8868 159.5,-581.6332 159.5,-502 159.5,-502 159.5,-502 159.5,-379 159.5,-306.949 262.414,-280.247 316.3584,-271.1996"/>
<polygon fill="#191970" stroke="#191970" points="317.1123,-274.6243 326.4494,-269.6173 316.0279,-267.7088 317.1123,-274.6243"/>
</g>
<!-- Node27&#45;&gt;Node26 -->
<g id="edge50" class="edge">
<title>Node27&#45;&gt;Node26</title>
<path fill="none" stroke="#191970" d="M978.3645,-626.1042C987.287,-593.0037 1011.0172,-484.8713 959.5,-425 912.8068,-370.735 871.8954,-406.5847 802.5,-389 801.2267,-388.6773 799.9296,-388.3432 798.6204,-388.0013"/>
<polygon fill="#191970" stroke="#191970" points="799.1081,-384.5083 788.5424,-385.2939 797.2919,-391.2686 799.1081,-384.5083"/>
</g>
<!-- Node27&#45;&gt;Node28 -->
<g id="edge52" class="edge">
<title>Node27&#45;&gt;Node28</title>
<path fill="none" stroke="#191970" d="M935.5511,-633.1916C880.0879,-628.2419 777.718,-615.9321 694.5,-590 688.6354,-588.1725 682.5495,-585.7356 677.0138,-583.17"/>
<polygon fill="#191970" stroke="#191970" points="678.3138,-579.9054 667.8104,-578.5168 675.1554,-586.1524 678.3138,-579.9054"/>
</g>
<!-- Node41 -->
<g id="node41" class="node">
<title>Node41</title>
<polygon fill="#ffffff" stroke="#bfbfbf" points="527.5,-431 527.5,-450 571.5,-450 571.5,-431 527.5,-431"/>
<text text-anchor="middle" x="549.5" y="-438" font-family="Helvetica,sans-Serif" font-size="10.00" fill="#000000">thread</text>
</g>
<!-- Node27&#45;&gt;Node41 -->
<g id="edge100" class="edge">
<title>Node27&#45;&gt;Node41</title>
<path fill="none" stroke="#191970" d="M954.6648,-626.4383C885.159,-594.5407 661.0409,-491.6884 579.511,-454.2726"/>
<polygon fill="#191970" stroke="#191970" points="580.8436,-451.0333 570.2951,-450.0433 577.9239,-457.3953 580.8436,-451.0333"/>
</g>
<!-- Node42 -->
<g id="node42" class="node">
<title>Node42</title>
<g id="a_node42"><a xlink:href="types__seven__dof__expmap_8h.html" target="_top" xlink:title="../Thirdparty/g2o/g2o\l/types/types_seven_dof\l_expmap.h">
<polygon fill="#ffffff" stroke="#000000" points="1667,-548.5 1667,-589.5 1788,-589.5 1788,-548.5 1667,-548.5"/>
<text text-anchor="start" x="1675" y="-577.5" font-family="Helvetica,sans-Serif" font-size="10.00" fill="#000000">../Thirdparty/g2o/g2o</text>
<text text-anchor="start" x="1675" y="-566.5" font-family="Helvetica,sans-Serif" font-size="10.00" fill="#000000">/types/types_seven_dof</text>
<text text-anchor="middle" x="1727.5" y="-555.5" font-family="Helvetica,sans-Serif" font-size="10.00" fill="#000000">_expmap.h</text>
</a>
</g>
</g>
<!-- Node27&#45;&gt;Node42 -->
<g id="edge102" class="edge">
<title>Node27&#45;&gt;Node42</title>
<path fill="none" stroke="#191970" d="M1015.1355,-632.4686C1136.0276,-621.6977 1501.2558,-589.1574 1656.475,-575.328"/>
<polygon fill="#191970" stroke="#191970" points="1657.1864,-578.7786 1666.8363,-574.4049 1656.5651,-571.8062 1657.1864,-578.7786"/>
</g>
<!-- Node28&#45;&gt;Node1 -->
<g id="edge62" class="edge">
<title>Node28&#45;&gt;Node1</title>
<path fill="none" stroke="#191970" d="M681.7833,-578.6068C728.9757,-600.1202 834.7698,-652.2664 882.9673,-677.6463"/>
<polygon fill="#191970" stroke="#191970" points="881.3322,-680.7409 891.8044,-682.3484 884.6204,-674.5612 881.3322,-680.7409"/>
</g>
<!-- Node28&#45;&gt;Node8 -->
<g id="edge64" class="edge">
<title>Node28&#45;&gt;Node8</title>
<path fill="none" stroke="#191970" d="M689.6734,-564.1146C742.3012,-555.3269 845.7566,-535.557 873.5,-512 945.4065,-450.944 972.3609,-333.3708 980.5034,-286.7468"/>
<polygon fill="#191970" stroke="#191970" points="983.9811,-287.1676 982.1485,-276.7325 977.0737,-286.0329 983.9811,-287.1676"/>
</g>
<!-- Node28&#45;&gt;Node22 -->
<g id="edge65" class="edge">
<title>Node28&#45;&gt;Node22</title>
<path fill="none" stroke="#191970" d="M627.4692,-566.1779C594.1493,-561.3035 542.7386,-548.0392 518.5,-512 496.9208,-479.915 499.072,-458.4315 518.5,-425 546.4267,-376.9439 606.405,-349.6457 649.2333,-335.6118"/>
<polygon fill="#191970" stroke="#191970" points="650.4166,-338.9088 658.9062,-332.5702 648.3168,-332.2311 650.4166,-338.9088"/>
</g>
<!-- Node28&#45;&gt;Node25 -->
<g id="edge98" class="edge">
<title>Node28&#45;&gt;Node25</title>
<path fill="none" stroke="#191970" d="M627.2967,-568.4947C543.961,-566.5398 318.6997,-557.1076 262.5,-512 236.0095,-490.7379 235.5,-474.468 235.5,-440.5 235.5,-440.5 235.5,-440.5 235.5,-379 235.5,-332.5439 284.2737,-298.7874 317.7342,-281.0953"/>
<polygon fill="#191970" stroke="#191970" points="319.3823,-284.1838 326.7125,-276.534 316.2117,-277.943 319.3823,-284.1838"/>
</g>
<!-- Node28&#45;&gt;Node26 -->
<g id="edge61" class="edge">
<title>Node28&#45;&gt;Node26</title>
<path fill="none" stroke="#191970" d="M664.0042,-559.3167C681.0437,-529.3398 733.1376,-437.6931 755.7915,-397.8391"/>
<polygon fill="#191970" stroke="#191970" points="758.9784,-399.315 760.8774,-388.8917 752.8929,-395.8558 758.9784,-399.315"/>
</g>
<!-- Node28&#45;&gt;Node27 -->
<g id="edge63" class="edge">
<title>Node28&#45;&gt;Node27</title>
<path fill="none" stroke="#191970" d="M684.2208,-578.5168C693.1668,-582.5918 703.1167,-587.076 712.5,-590 784.9442,-612.5748 871.9024,-624.8262 925.5273,-630.8855"/>
<polygon fill="#191970" stroke="#191970" points="925.4706,-634.4004 935.7936,-632.016 926.2368,-627.4424 925.4706,-634.4004"/>
</g>
<!-- Node29 -->
<g id="node29" class="node">
<title>Node29</title>
<polygon fill="#ffffff" stroke="#bfbfbf" points="301.5,-431 301.5,-450 395.5,-450 395.5,-431 301.5,-431"/>
<text text-anchor="middle" x="348.5" y="-438" font-family="Helvetica,sans-Serif" font-size="10.00" fill="#000000">opencv2/core.hpp</text>
</g>
<!-- Node28&#45;&gt;Node29 -->
<g id="edge53" class="edge">
<title>Node28&#45;&gt;Node29</title>
<path fill="none" stroke="#191970" d="M627.263,-564.7933C567.5092,-556.3057 439.6479,-535.8901 402.5,-512 382.3472,-499.0396 366.8963,-475.7906 357.7851,-459.326"/>
<polygon fill="#191970" stroke="#191970" points="360.6917,-457.3325 352.9459,-450.1038 354.4932,-460.585 360.6917,-457.3325"/>
</g>
<!-- Node30 -->
<g id="node30" class="node">
<title>Node30</title>
<polygon fill="#ffffff" stroke="#bfbfbf" points="528,-492.5 528,-511.5 649,-511.5 649,-492.5 528,-492.5"/>
<text text-anchor="middle" x="588.5" y="-499.5" font-family="Helvetica,sans-Serif" font-size="10.00" fill="#000000">opencv2/features2d.hpp</text>
</g>
<!-- Node28&#45;&gt;Node30 -->
<g id="edge54" class="edge">
<title>Node28&#45;&gt;Node30</title>
<path fill="none" stroke="#191970" d="M648.4707,-559.4005C637.3469,-548.7535 619.2013,-531.3856 605.779,-518.5385"/>
<polygon fill="#191970" stroke="#191970" points="608.155,-515.9678 598.5107,-511.5817 603.3148,-521.0247 608.155,-515.9678"/>
</g>
<!-- Node31 -->
<g id="node31" class="node">
<title>Node31</title>
<g id="a_node31"><a xlink:href="_viewer_8h.html" target="_top" xlink:title="Viewer.h">
<polygon fill="#ffffff" stroke="#000000" points="0,-313.5 0,-332.5 55,-332.5 55,-313.5 0,-313.5"/>
<text text-anchor="middle" x="27.5" y="-320.5" font-family="Helvetica,sans-Serif" font-size="10.00" fill="#000000">Viewer.h</text>
</a>
</g>
</g>
<!-- Node28&#45;&gt;Node31 -->
<g id="edge55" class="edge">
<title>Node28&#45;&gt;Node31</title>
<path fill="none" stroke="#191970" d="M627.4629,-567.1473C540.3375,-561.6028 295.073,-543.5422 221.5,-512 141.6275,-477.7571 127.3623,-453.8394 69.5,-389 56.5473,-374.4855 44.9408,-355.5516 37.2289,-341.6875"/>
<polygon fill="#191970" stroke="#191970" points="40.1672,-339.7625 32.3382,-332.624 34.0069,-343.0867 40.1672,-339.7625"/>
</g>
<!-- Node32 -->
<g id="node32" class="node">
<title>Node32</title>
<g id="a_node32"><a xlink:href="_frame_drawer_8h.html" target="_top" xlink:title="FrameDrawer.h">
<polygon fill="#ffffff" stroke="#000000" points="271.5,-492.5 271.5,-511.5 355.5,-511.5 355.5,-492.5 271.5,-492.5"/>
<text text-anchor="middle" x="313.5" y="-499.5" font-family="Helvetica,sans-Serif" font-size="10.00" fill="#000000">FrameDrawer.h</text>
</a>
</g>
</g>
<!-- Node28&#45;&gt;Node32 -->
<g id="edge58" class="edge">
<title>Node28&#45;&gt;Node32</title>
<path fill="none" stroke="#191970" d="M627.2751,-562.936C567.8684,-551.3991 438.035,-526.1851 365.3741,-512.0741"/>
<polygon fill="#191970" stroke="#191970" points="365.9979,-508.6299 355.514,-510.1592 364.6634,-515.5015 365.9979,-508.6299"/>
</g>
<!-- Node33 -->
<g id="node33" class="node">
<title>Node33</title>
<g id="a_node33"><a xlink:href="_o_r_bextractor_8h.html" target="_top" xlink:title="ORBextractor.h">
<polygon fill="#ffffff" stroke="#000000" points="1208,-313.5 1208,-332.5 1293,-332.5 1293,-313.5 1208,-313.5"/>
<text text-anchor="middle" x="1250.5" y="-320.5" font-family="Helvetica,sans-Serif" font-size="10.00" fill="#000000">ORBextractor.h</text>
</a>
</g>
</g>
<!-- Node28&#45;&gt;Node33 -->
<g id="edge66" class="edge">
<title>Node28&#45;&gt;Node33</title>
<path fill="none" stroke="#191970" d="M689.6506,-566.281C818.9442,-554.6873 1308.6112,-507.6129 1352.5,-456 1387.725,-414.5756 1317.1767,-362.7607 1276.5047,-337.7964"/>
<polygon fill="#191970" stroke="#191970" points="1278.2248,-334.7469 1267.8479,-332.6091 1274.6268,-340.7515 1278.2248,-334.7469"/>
</g>
<!-- Node34 -->
<g id="node34" class="node">
<title>Node34</title>
<g id="a_node34"><a xlink:href="_initializer_8h.html" target="_top" xlink:title="Initializer.h">
<polygon fill="#ffffff" stroke="#000000" points="1709.5,-431 1709.5,-450 1773.5,-450 1773.5,-431 1709.5,-431"/>
<text text-anchor="middle" x="1741.5" y="-438" font-family="Helvetica,sans-Serif" font-size="10.00" fill="#000000">Initializer.h</text>
</a>
</g>
</g>
<!-- Node28&#45;&gt;Node34 -->
<g id="edge70" class="edge">
<title>Node28&#45;&gt;Node34</title>
<path fill="none" stroke="#191970" d="M689.7377,-568.0849C845.7275,-563.3916 1536.4581,-541.1096 1627.5,-512 1646.7928,-505.8314 1692.2517,-475.216 1719.5789,-456.1014"/>
<polygon fill="#191970" stroke="#191970" points="1721.9249,-458.7302 1728.0873,-450.1119 1717.8955,-453.0062 1721.9249,-458.7302"/>
</g>
<!-- Node36 -->
<g id="node36" class="node">
<title>Node36</title>
<g id="a_node36"><a xlink:href="_frame_8h.html" target="_top" xlink:title="Frame.h">
<polygon fill="#ffffff" stroke="#000000" points="1644,-369.5 1644,-388.5 1697,-388.5 1697,-369.5 1644,-369.5"/>
<text text-anchor="middle" x="1670.5" y="-376.5" font-family="Helvetica,sans-Serif" font-size="10.00" fill="#000000">Frame.h</text>
</a>
</g>
</g>
<!-- Node28&#45;&gt;Node36 -->
<g id="edge97" class="edge">
<title>Node28&#45;&gt;Node36</title>
<path fill="none" stroke="#191970" d="M689.9381,-568.6904C827.1308,-567.0757 1373.8652,-557.8331 1538.5,-512 1590.5882,-497.499 1611.7798,-497.4483 1646.5,-456 1660.0885,-439.7783 1665.9973,-415.8751 1668.5582,-399.0128"/>
<polygon fill="#191970" stroke="#191970" points="1672.0866,-399.0006 1669.8494,-388.6447 1665.1403,-398.1355 1672.0866,-399.0006"/>
</g>
<!-- Node38 -->
<g id="node38" class="node">
<title>Node38</title>
<g id="a_node38"><a xlink:href="_map_drawer_8h.html" target="_top" xlink:title="MapDrawer.h">
<polygon fill="#ffffff" stroke="#000000" points="790,-492.5 790,-511.5 865,-511.5 865,-492.5 790,-492.5"/>
<text text-anchor="middle" x="827.5" y="-499.5" font-family="Helvetica,sans-Serif" font-size="10.00" fill="#000000">MapDrawer.h</text>
</a>
</g>
</g>
<!-- Node28&#45;&gt;Node38 -->
<g id="edge85" class="edge">
<title>Node28&#45;&gt;Node38</title>
<path fill="none" stroke="#191970" d="M682.7136,-559.4005C711.8286,-547.8579 760.8678,-528.4163 793.7018,-515.3993"/>
<polygon fill="#191970" stroke="#191970" points="795.3252,-518.5208 803.3313,-511.5817 792.7453,-512.0135 795.3252,-518.5208"/>
</g>
<!-- Node40 -->
<g id="node40" class="node">
<title>Node40</title>
<g id="a_node40"><a xlink:href="_system_8h.html" target="_top" xlink:title="System.h">
<polygon fill="#ffffff" stroke="#000000" points="412,-492.5 412,-511.5 471,-511.5 471,-492.5 412,-492.5"/>
<text text-anchor="middle" x="441.5" y="-499.5" font-family="Helvetica,sans-Serif" font-size="10.00" fill="#000000">System.h</text>
</a>
</g>
</g>
<!-- Node28&#45;&gt;Node40 -->
<g id="edge91" class="edge">
<title>Node28&#45;&gt;Node40</title>
<path fill="none" stroke="#191970" d="M627.4092,-559.4005C588.7852,-547.4751 522.8531,-527.1182 480.774,-514.1261"/>
<polygon fill="#191970" stroke="#191970" points="481.7275,-510.7575 471.14,-511.1515 479.6623,-517.446 481.7275,-510.7575"/>
</g>
<!-- Node31&#45;&gt;Node11 -->
<g id="edge56" class="edge">
<title>Node31&#45;&gt;Node11</title>
<path fill="none" stroke="#191970" d="M52.7666,-313.4533C129.3003,-284.5538 365.3558,-195.5504 561.5,-123 599.7629,-108.8472 643.9544,-92.7459 672.5162,-82.3712"/>
<polygon fill="#191970" stroke="#191970" points="673.7264,-85.6555 681.9317,-78.953 671.3376,-79.0756 673.7264,-85.6555"/>
</g>
<!-- Node31&#45;&gt;Node25 -->
<g id="edge57" class="edge">
<title>Node31&#45;&gt;Node25</title>
<path fill="none" stroke="#191970" d="M55.0014,-316.1594C59.8207,-315.0445 64.7972,-313.9463 69.5,-313 158.424,-295.1062 264.326,-279.0793 316.374,-271.546"/>
<polygon fill="#191970" stroke="#191970" points="316.9417,-275.0005 326.3414,-270.1121 315.9449,-268.0718 316.9417,-275.0005"/>
</g>
<!-- Node32&#45;&gt;Node25 -->
<g id="edge60" class="edge">
<title>Node32&#45;&gt;Node25</title>
<path fill="none" stroke="#191970" d="M307.5235,-492.2032C302.3888,-483.1737 295.3729,-469.2108 292.5,-456 289.5722,-442.5369 290.1649,-438.5784 292.5,-425 301.4617,-372.8893 325.9099,-315.162 339.3486,-286.0386"/>
<polygon fill="#191970" stroke="#191970" points="342.6674,-287.2055 343.7525,-276.6664 336.3319,-284.2285 342.6674,-287.2055"/>
</g>
<!-- Node32&#45;&gt;Node29 -->
<g id="edge59" class="edge">
<title>Node32&#45;&gt;Node29</title>
<path fill="none" stroke="#191970" d="M318.9688,-492.3906C324.0246,-483.5068 331.6772,-470.0601 337.9254,-459.0811"/>
<polygon fill="#191970" stroke="#191970" points="341.0498,-460.6672 342.9541,-450.2449 334.966,-457.2048 341.0498,-460.6672"/>
</g>
<!-- Node33&#45;&gt;Node6 -->
<g id="edge67" class="edge">
<title>Node33&#45;&gt;Node6</title>
<path fill="none" stroke="#191970" d="M1263.7726,-313.4096C1302.4324,-284.5421 1414.7244,-193.8381 1454.5,-87 1461.763,-67.4914 1453.5415,-44.2642 1445.5508,-28.4591"/>
<polygon fill="#191970" stroke="#191970" points="1448.6162,-26.7697 1440.7458,-19.6769 1442.4752,-30.1296 1448.6162,-26.7697"/>
</g>
<!-- Node33&#45;&gt;Node10 -->
<g id="edge69" class="edge">
<title>Node33&#45;&gt;Node10</title>
<path fill="none" stroke="#191970" d="M1252.5375,-313.3447C1258.5639,-281.9715 1273.107,-181.5544 1226.5,-123 1214.5584,-107.9972 1170.0862,-93.4305 1133.8687,-83.6401"/>
<polygon fill="#191970" stroke="#191970" points="1134.4685,-80.1786 1123.9063,-81.009 1132.681,-86.9466 1134.4685,-80.1786"/>
</g>
<!-- Node33&#45;&gt;Node23 -->
<g id="edge68" class="edge">
<title>Node33&#45;&gt;Node23</title>
<path fill="none" stroke="#191970" d="M1229.8713,-313.3733C1208.9512,-303.6106 1176.5981,-288.5124 1154.5321,-278.215"/>
<polygon fill="#191970" stroke="#191970" points="1155.7375,-274.9152 1145.1956,-273.8579 1152.7773,-281.2585 1155.7375,-274.9152"/>
</g>
<!-- Node35 -->
<g id="node35" class="node">
<title>Node35</title>
<polygon fill="#ffffff" stroke="#bfbfbf" points="1786,-313.5 1786,-332.5 1893,-332.5 1893,-313.5 1786,-313.5"/>
<text text-anchor="middle" x="1839.5" y="-320.5" font-family="Helvetica,sans-Serif" font-size="10.00" fill="#000000">opencv2/opencv.hpp</text>
</g>
<!-- Node34&#45;&gt;Node35 -->
<g id="edge71" class="edge">
<title>Node34&#45;&gt;Node35</title>
<path fill="none" stroke="#191970" d="M1749.5198,-430.8845C1765.9584,-411.1749 1803.6922,-365.9328 1824.699,-340.7461"/>
<polygon fill="#191970" stroke="#191970" points="1827.6522,-342.6697 1831.3694,-332.7484 1822.2765,-338.1862 1827.6522,-342.6697"/>
</g>
<!-- Node34&#45;&gt;Node36 -->
<g id="edge72" class="edge">
<title>Node34&#45;&gt;Node36</title>
<path fill="none" stroke="#191970" d="M1730.4063,-430.8906C1719.5285,-421.4683 1702.7252,-406.9134 1689.68,-395.6137"/>
<polygon fill="#191970" stroke="#191970" points="1691.6004,-392.6466 1681.7502,-388.7449 1687.0173,-397.9377 1691.6004,-392.6466"/>
</g>
<!-- Node36&#45;&gt;Node3 -->
<g id="edge80" class="edge">
<title>Node36&#45;&gt;Node3</title>
<path fill="none" stroke="#191970" d="M1672.5813,-369.1943C1679.0899,-337.9651 1699.0093,-237.9532 1705.5,-154 1706.562,-140.2632 1707.3232,-136.6566 1705.5,-123 1704.3146,-114.1202 1702.0275,-104.6017 1699.6401,-96.1936"/>
<polygon fill="#191970" stroke="#191970" points="1702.9864,-95.1674 1696.7455,-86.6058 1696.2851,-97.1906 1702.9864,-95.1674"/>
</g>
<!-- Node36&#45;&gt;Node6 -->
<g id="edge73" class="edge">
<title>Node36&#45;&gt;Node6</title>
<path fill="none" stroke="#191970" d="M1665.9831,-369.15C1651.6134,-337.7896 1605.7129,-237.4306 1568.5,-154 1549.1248,-110.5613 1558.2029,-90.5375 1525.5,-56 1509.331,-38.924 1485.4385,-27.1834 1466.1922,-19.839"/>
<polygon fill="#191970" stroke="#191970" points="1467.2111,-16.486 1456.6167,-16.3942 1464.8415,-23.0728 1467.2111,-16.486"/>
</g>
<!-- Node36&#45;&gt;Node7 -->
<g id="edge81" class="edge">
<title>Node36&#45;&gt;Node7</title>
<path fill="none" stroke="#191970" d="M1676.6064,-369.2742C1698.6236,-334.2072 1774.3339,-213.6222 1806.6691,-162.1214"/>
<polygon fill="#191970" stroke="#191970" points="1809.6501,-163.9557 1812.0033,-153.6255 1803.7217,-160.2335 1809.6501,-163.9557"/>
</g>
<!-- Node36&#45;&gt;Node8 -->
<g id="edge82" class="edge">
<title>Node36&#45;&gt;Node8</title>
<path fill="none" stroke="#191970" d="M1643.8074,-378.5843C1571.3477,-376.9885 1365.2202,-369.3386 1198.5,-333 1171.8582,-327.1931 1166.4797,-321.2802 1140.5,-313 1102.5287,-300.8979 1059.0163,-288.243 1027.4442,-279.277"/>
<polygon fill="#191970" stroke="#191970" points="1028.2104,-275.8564 1017.6352,-276.5009 1026.3042,-282.5919 1028.2104,-275.8564"/>
</g>
<!-- Node36&#45;&gt;Node33 -->
<g id="edge83" class="edge">
<title>Node36&#45;&gt;Node33</title>
<path fill="none" stroke="#191970" d="M1643.9085,-375.4545C1575.7588,-366.3678 1393.8623,-342.115 1303.2769,-330.0369"/>
<polygon fill="#191970" stroke="#191970" points="1303.597,-326.5487 1293.2222,-328.6963 1302.6718,-333.4873 1303.597,-326.5487"/>
</g>
<!-- Node36&#45;&gt;Node35 -->
<g id="edge84" class="edge">
<title>Node36&#45;&gt;Node35</title>
<path fill="none" stroke="#191970" d="M1697.2786,-370.1266C1725.1612,-360.8874 1769.1055,-346.326 1800.7697,-335.8337"/>
<polygon fill="#191970" stroke="#191970" points="1802.1914,-339.0498 1810.5829,-332.582 1799.9896,-332.4051 1802.1914,-339.0498"/>
</g>
<!-- Node37 -->
<g id="node37" class="node">
<title>Node37</title>
<g id="a_node37"><a xlink:href="_map_point_8h.html" target="_top" xlink:title="MapPoint.h">
<polygon fill="#ffffff" stroke="#000000" points="1277.5,-431 1277.5,-450 1343.5,-450 1343.5,-431 1277.5,-431"/>
<text text-anchor="middle" x="1310.5" y="-438" font-family="Helvetica,sans-Serif" font-size="10.00" fill="#000000">MapPoint.h</text>
</a>
</g>
</g>
<!-- Node36&#45;&gt;Node37 -->
<g id="edge74" class="edge">
<title>Node36&#45;&gt;Node37</title>
<path fill="none" stroke="#191970" d="M1643.5378,-384.2884C1581.4996,-395.4915 1428.8407,-421.5927 1353.631,-433.8801"/>
<polygon fill="#191970" stroke="#191970" points="1352.8587,-430.4597 1343.5501,-435.5193 1353.9822,-437.3689 1352.8587,-430.4597"/>
</g>
<!-- Node37&#45;&gt;Node2 -->
<g id="edge75" class="edge">
<title>Node37&#45;&gt;Node2</title>
<path fill="none" stroke="#191970" d="M1292.0625,-430.8906C1272.6653,-420.7811 1241.931,-404.7628 1219.7383,-393.1962"/>
<polygon fill="#191970" stroke="#191970" points="1221.2936,-390.06 1210.808,-388.5419 1218.0582,-396.2675 1221.2936,-390.06"/>
</g>
<!-- Node37&#45;&gt;Node10 -->
<g id="edge78" class="edge">
<title>Node37&#45;&gt;Node10</title>
<path fill="none" stroke="#191970" d="M1312.0295,-430.7799C1315.052,-410.7002 1321.5,-363.1575 1321.5,-323 1321.5,-323 1321.5,-323 1321.5,-267 1321.5,-195.4458 1304.0434,-169.3143 1249.5,-123 1222.0892,-99.7248 1184.2258,-86.9592 1151.5815,-79.9623"/>
<polygon fill="#191970" stroke="#191970" points="1152.1279,-76.5024 1141.6354,-77.9708 1150.7536,-83.3661 1152.1279,-76.5024"/>
</g>
<!-- Node37&#45;&gt;Node25 -->
<g id="edge79" class="edge">
<title>Node37&#45;&gt;Node25</title>
<path fill="none" stroke="#191970" d="M1277.0732,-436.041C1144.1037,-418.232 656.6417,-352.2391 589.5,-333 568.0692,-326.8591 564.6552,-320.0316 543.5,-313 487.5324,-294.3973 420.1589,-280.2574 381.0411,-272.8293"/>
<polygon fill="#191970" stroke="#191970" points="381.2628,-269.3102 370.7901,-270.914 379.9772,-276.1912 381.2628,-269.3102"/>
</g>
<!-- Node37&#45;&gt;Node26 -->
<g id="edge77" class="edge">
<title>Node37&#45;&gt;Node26</title>
<path fill="none" stroke="#191970" d="M1277.2359,-439.0851C1195.6882,-435.1935 979.5667,-422.3177 802.5,-389 801.245,-388.7638 799.9701,-388.5049 798.6857,-388.228"/>
<polygon fill="#191970" stroke="#191970" points="799.3735,-384.7934 788.8301,-385.8361 797.7225,-391.5959 799.3735,-384.7934"/>
</g>
<!-- Node37&#45;&gt;Node36 -->
<g id="edge76" class="edge">
<title>Node37&#45;&gt;Node36</title>
<path fill="none" stroke="#191970" d="M1343.6844,-434.0925C1411.1174,-422.0069 1563.2258,-396.035 1633.6294,-384.5999"/>
<polygon fill="#191970" stroke="#191970" points="1634.489,-388.0066 1643.8034,-382.9577 1633.3734,-381.096 1634.489,-388.0066"/>
</g>
<!-- Node38&#45;&gt;Node2 -->
<g id="edge88" class="edge">
<title>Node38&#45;&gt;Node2</title>
<path fill="none" stroke="#191970" d="M855.8372,-492.4507C920.866,-470.5369 1080.8519,-416.6239 1154.396,-391.8405"/>
<polygon fill="#191970" stroke="#191970" points="1155.8221,-395.0534 1164.1808,-388.5432 1153.5867,-388.4199 1155.8221,-395.0534"/>
</g>
<!-- Node38&#45;&gt;Node25 -->
<g id="edge90" class="edge">
<title>Node38&#45;&gt;Node25</title>
<path fill="none" stroke="#191970" d="M808.1294,-492.4967C733.7319,-455.9969 466.0691,-324.68 377.3188,-281.1387"/>
<polygon fill="#191970" stroke="#191970" points="378.631,-277.884 368.1117,-276.6216 375.5478,-284.1684 378.631,-277.884"/>
</g>
<!-- Node38&#45;&gt;Node26 -->
<g id="edge86" class="edge">
<title>Node38&#45;&gt;Node26</title>
<path fill="none" stroke="#191970" d="M808.8181,-492.4921C795.5823,-484.6525 778.7654,-472.1974 770.5,-456 761.4038,-438.1745 761.5675,-414.9087 763.278,-398.6359"/>
<polygon fill="#191970" stroke="#191970" points="766.7583,-399.0158 764.6145,-388.6401 759.8201,-398.0881 766.7583,-399.0158"/>
</g>
<!-- Node38&#45;&gt;Node37 -->
<g id="edge87" class="edge">
<title>Node38&#45;&gt;Node37</title>
<path fill="none" stroke="#191970" d="M865.4002,-497.1742C953.9278,-485.902 1173.8577,-457.8985 1267.3461,-445.9948"/>
<polygon fill="#191970" stroke="#191970" points="1267.8356,-449.4608 1277.3133,-444.7256 1266.9513,-442.5168 1267.8356,-449.4608"/>
</g>
<!-- Node39 -->
<g id="node39" class="node">
<title>Node39</title>
<polygon fill="#ffffff" stroke="#bfbfbf" points="779.5,-431 779.5,-450 879.5,-450 879.5,-431 779.5,-431"/>
<text text-anchor="middle" x="829.5" y="-438" font-family="Helvetica,sans-Serif" font-size="10.00" fill="#000000">pangolin/pangolin.h</text>
</g>
<!-- Node38&#45;&gt;Node39 -->
<g id="edge89" class="edge">
<title>Node38&#45;&gt;Node39</title>
<path fill="none" stroke="#191970" d="M827.8125,-492.3906C828.0897,-483.8657 828.5036,-471.1392 828.8521,-460.4235"/>
<polygon fill="#191970" stroke="#191970" points="832.3561,-460.3534 829.1831,-450.2449 825.3598,-460.1258 832.3561,-460.3534"/>
</g>
<!-- Node40&#45;&gt;Node8 -->
<g id="edge96" class="edge">
<title>Node40&#45;&gt;Node8</title>
<path fill="none" stroke="#191970" d="M471.1312,-493.9881C499.7002,-485.8481 543.8719,-472.1611 580.5,-456 652.7761,-424.1102 665.0442,-404.732 735.5,-369 789.0703,-341.8316 802.943,-335.8324 858.5,-313 887.5782,-301.0497 921.0255,-288.8187 946.0003,-279.9756"/>
<polygon fill="#191970" stroke="#191970" points="947.1983,-283.2644 955.4681,-276.6416 944.8733,-276.6618 947.1983,-283.2644"/>
</g>
<!-- Node40&#45;&gt;Node11 -->
<g id="edge92" class="edge">
<title>Node40&#45;&gt;Node11</title>
<path fill="none" stroke="#191970" d="M447.4417,-492.1995C480.9914,-436.8619 646.807,-163.3614 691.4266,-89.7647"/>
<polygon fill="#191970" stroke="#191970" points="694.4893,-91.4641 696.6808,-81.0984 688.5035,-87.835 694.4893,-91.4641"/>
</g>
<!-- Node40&#45;&gt;Node25 -->
<g id="edge95" class="edge">
<title>Node40&#45;&gt;Node25</title>
<path fill="none" stroke="#191970" d="M437.7391,-492.4967C423.8067,-457.2912 374.965,-333.874 356.0562,-286.0937"/>
<polygon fill="#191970" stroke="#191970" points="359.242,-284.632 352.3077,-276.6216 352.7331,-287.2079 359.242,-284.632"/>
</g>
<!-- Node40&#45;&gt;Node29 -->
<g id="edge94" class="edge">
<title>Node40&#45;&gt;Node29</title>
<path fill="none" stroke="#191970" d="M426.9688,-492.3906C412.0906,-482.5519 388.7496,-467.1167 371.3872,-455.6351"/>
<polygon fill="#191970" stroke="#191970" points="373.201,-452.6385 362.9292,-450.0419 369.3398,-458.4773 373.201,-452.6385"/>
</g>
<!-- Node40&#45;&gt;Node41 -->
<g id="edge93" class="edge">
<title>Node40&#45;&gt;Node41</title>
<path fill="none" stroke="#191970" d="M458.375,-492.3906C475.9698,-482.3713 503.7566,-466.5483 524.0241,-455.0071"/>
<polygon fill="#191970" stroke="#191970" points="525.7856,-458.0318 532.7435,-450.0419 522.3217,-451.9489 525.7856,-458.0318"/>
</g>
<!-- Node43 -->
<g id="node43" class="node">
<title>Node43</title>
<g id="a_node43"><a xlink:href="base__vertex_8h.html" target="_top" xlink:title="../core/base_vertex.h">
<polygon fill="#ffffff" stroke="#ff0000" points="1792,-431 1792,-450 1901,-450 1901,-431 1792,-431"/>
<text text-anchor="middle" x="1846.5" y="-438" font-family="Helvetica,sans-Serif" font-size="10.00" fill="#000000">../core/base_vertex.h</text>
</a>
</g>
</g>
<!-- Node42&#45;&gt;Node43 -->
<g id="edge103" class="edge">
<title>Node42&#45;&gt;Node43</title>
<path fill="none" stroke="#191970" d="M1736.7884,-548.475C1744.907,-531.9972 1757.8337,-508.9027 1773.5,-492 1786.946,-477.4928 1805.1119,-464.6588 1819.958,-455.4312"/>
<polygon fill="#191970" stroke="#191970" points="1821.938,-458.3246 1828.701,-450.1691 1818.3283,-452.3271 1821.938,-458.3246"/>
</g>
<!-- Node66 -->
<g id="node44" class="node">
<title>Node66</title>
<g id="a_node44"><a xlink:href="base__binary__edge_8h.html" target="_top" xlink:title="../core/base_binary\l_edge.h">
<polygon fill="#ffffff" stroke="#ff0000" points="1921.5,-190.5 1921.5,-220.5 2021.5,-220.5 2021.5,-190.5 1921.5,-190.5"/>
<text text-anchor="start" x="1929.5" y="-208.5" font-family="Helvetica,sans-Serif" font-size="10.00" fill="#000000">../core/base_binary</text>
<text text-anchor="middle" x="1971.5" y="-197.5" font-family="Helvetica,sans-Serif" font-size="10.00" fill="#000000">_edge.h</text>
</a>
</g>
</g>
<!-- Node42&#45;&gt;Node66 -->
<g id="edge104" class="edge">
<title>Node42&#45;&gt;Node66</title>
<path fill="none" stroke="#191970" d="M1788.3426,-554.278C1871.2429,-532.4131 2009.5,-488.7197 2009.5,-440.5 2009.5,-440.5 2009.5,-440.5 2009.5,-323 2009.5,-289.4203 1995.2759,-252.9473 1984.2327,-229.6909"/>
<polygon fill="#191970" stroke="#191970" points="1987.3037,-228.0045 1979.7454,-220.58 1981.024,-231.0974 1987.3037,-228.0045"/>
</g>
<!-- Node71 -->
<g id="node45" class="node">
<title>Node71</title>
<g id="a_node45"><a xlink:href="types__six__dof__expmap_8h.html" target="_top" xlink:title="types_six_dof_expmap.h">
<polygon fill="#ffffff" stroke="#ff0000" points="1782,-492.5 1782,-511.5 1907,-511.5 1907,-492.5 1782,-492.5"/>
<text text-anchor="middle" x="1844.5" y="-499.5" font-family="Helvetica,sans-Serif" font-size="10.00" fill="#000000">types_six_dof_expmap.h</text>
</a>
</g>
</g>
<!-- Node42&#45;&gt;Node71 -->
<g id="edge107" class="edge">
<title>Node42&#45;&gt;Node71</title>
<path fill="none" stroke="#191970" d="M1763.5585,-548.3511C1781.4071,-538.1301 1802.5408,-526.0279 1818.737,-516.7532"/>
<polygon fill="#191970" stroke="#191970" points="1820.7018,-519.6613 1827.6404,-511.6546 1817.2232,-513.5868 1820.7018,-519.6613"/>
</g>
<!-- Node80 -->
<g id="node46" class="node">
<title>Node80</title>
<g id="a_node46"><a xlink:href="sim3_8h.html" target="_top" xlink:title="sim3.h">
<polygon fill="#ffffff" stroke="#ff0000" points="1679.5,-492.5 1679.5,-511.5 1725.5,-511.5 1725.5,-492.5 1679.5,-492.5"/>
<text text-anchor="middle" x="1702.5" y="-499.5" font-family="Helvetica,sans-Serif" font-size="10.00" fill="#000000">sim3.h</text>
</a>
</g>
</g>
<!-- Node42&#45;&gt;Node80 -->
<g id="edge110" class="edge">
<title>Node42&#45;&gt;Node80</title>
<path fill="none" stroke="#191970" d="M1719.7269,-548.168C1716.5421,-539.6329 1712.8773,-529.8112 1709.7488,-521.4268"/>
<polygon fill="#191970" stroke="#191970" points="1712.9246,-519.9259 1706.1494,-511.7805 1706.3662,-522.3731 1712.9246,-519.9259"/>
</g>
<!-- Node66&#45;&gt;Node4 -->
<g id="edge105" class="edge">
<title>Node66&#45;&gt;Node4</title>
<path fill="none" stroke="#191970" d="M1970.2809,-190.4323C1968.3968,-173.2823 1963.7343,-144.8236 1952.5,-123 1932.1037,-83.3783 1894.659,-46.5182 1871.8288,-26.2445"/>
<polygon fill="#191970" stroke="#191970" points="1873.9787,-23.4757 1864.1375,-19.5513 1869.3834,-28.7562 1873.9787,-23.4757"/>
</g>
<!-- Node66&#45;&gt;Node18 -->
<g id="edge106" class="edge">
<title>Node66&#45;&gt;Node18</title>
<path fill="none" stroke="#191970" d="M1960.6081,-190.2967C1953.3473,-180.1618 1943.7775,-166.804 1936.175,-156.1921"/>
<polygon fill="#191970" stroke="#191970" points="1939.0144,-154.1458 1930.3454,-148.055 1933.324,-158.2225 1939.0144,-154.1458"/>
</g>
<!-- Node71&#45;&gt;Node43 -->
<g id="edge108" class="edge">
<title>Node71&#45;&gt;Node43</title>
<path fill="none" stroke="#191970" d="M1844.8125,-492.3906C1845.0897,-483.8657 1845.5036,-471.1392 1845.8521,-460.4235"/>
<polygon fill="#191970" stroke="#191970" points="1849.3561,-460.3534 1846.1831,-450.2449 1842.3598,-460.1258 1849.3561,-460.3534"/>
</g>
<!-- Node71&#45;&gt;Node66 -->
<g id="edge109" class="edge">
<title>Node71&#45;&gt;Node66</title>
<path fill="none" stroke="#191970" d="M1867.4987,-492.3831C1904.0967,-475.3626 1971.5,-436.2449 1971.5,-379 1971.5,-379 1971.5,-379 1971.5,-323 1971.5,-291.3014 1971.5,-254.7926 1971.5,-230.9922"/>
<polygon fill="#191970" stroke="#191970" points="1975.0001,-230.7101 1971.5,-220.7101 1968.0001,-230.7102 1975.0001,-230.7101"/>
</g>
<!-- Node81&#45;&gt;Node2 -->
<g id="edge120" class="edge">
<title>Node81&#45;&gt;Node2</title>
<path fill="none" stroke="#191970" d="M1473.9926,-492.2598C1449.7401,-476.3334 1399.031,-444.5395 1352.5,-425 1314.9877,-409.2477 1270.3525,-396.9105 1237.7696,-388.9954"/>
<polygon fill="#191970" stroke="#191970" points="1238.1774,-385.4947 1227.6385,-386.5823 1236.5554,-392.3042 1238.1774,-385.4947"/>
</g>
<!-- Node81&#45;&gt;Node6 -->
<g id="edge116" class="edge">
<title>Node81&#45;&gt;Node6</title>
<path fill="none" stroke="#191970" d="M1518.0685,-492.3976C1534.9108,-485.2338 1554.5794,-473.6009 1564.5,-456 1571.2651,-443.9975 1566.2313,-438.6686 1564.5,-425 1543.2202,-256.9944 1543.3436,-208.4003 1469.5,-56 1464.5637,-45.8122 1457.1812,-35.6705 1450.4671,-27.5127"/>
<polygon fill="#191970" stroke="#191970" points="1453.0171,-25.11 1443.8427,-19.8107 1447.71,-29.6746 1453.0171,-25.11"/>
</g>
<!-- Node81&#45;&gt;Node10 -->
<g id="edge117" class="edge">
<title>Node81&#45;&gt;Node10</title>
<path fill="none" stroke="#191970" d="M1509.2852,-492.3756C1523.187,-484.6917 1540.3691,-472.4793 1548.5,-456 1554.5963,-443.6444 1553.403,-437.8759 1548.5,-425 1484.535,-257.019 1432.7356,-216.9574 1279.5,-123 1240.8716,-99.3148 1191.5038,-86.4265 1151.9786,-79.4663"/>
<polygon fill="#191970" stroke="#191970" points="1152.3344,-75.9773 1141.8941,-77.7802 1151.18,-82.8814 1152.3344,-75.9773"/>
</g>
<!-- Node81&#45;&gt;Node36 -->
<g id="edge121" class="edge">
<title>Node81&#45;&gt;Node36</title>
<path fill="none" stroke="#191970" d="M1529.613,-494.7185C1557.2404,-488.2108 1593.2572,-476.4406 1619.5,-456 1639.2743,-440.5977 1653.9153,-415.2949 1662.3189,-397.9256"/>
<polygon fill="#191970" stroke="#191970" points="1665.54,-399.2982 1666.5377,-388.7504 1659.1801,-396.3739 1665.54,-399.2982"/>
</g>
<!-- Node81&#45;&gt;Node37 -->
<g id="edge119" class="edge">
<title>Node81&#45;&gt;Node37</title>
<path fill="none" stroke="#191970" d="M1460.6875,-492.3906C1430.2517,-481.8749 1381.3123,-464.966 1347.6174,-453.3243"/>
<polygon fill="#191970" stroke="#191970" points="1348.712,-449.9995 1338.1172,-450.0419 1346.426,-456.6157 1348.712,-449.9995"/>
</g>
<!-- Node82 -->
<g id="node48" class="node">
<title>Node82</title>
<polygon fill="#ffffff" stroke="#bfbfbf" points="1437.5,-425.5 1437.5,-455.5 1539.5,-455.5 1539.5,-425.5 1437.5,-425.5"/>
<text text-anchor="start" x="1445.5" y="-443.5" font-family="Helvetica,sans-Serif" font-size="10.00" fill="#000000">opencv2/features2d</text>
<text text-anchor="middle" x="1488.5" y="-432.5" font-family="Helvetica,sans-Serif" font-size="10.00" fill="#000000">/features2d.hpp</text>
</g>
<!-- Node81&#45;&gt;Node82 -->
<g id="edge118" class="edge">
<title>Node81&#45;&gt;Node82</title>
<path fill="none" stroke="#191970" d="M1488.5,-492.3906C1488.5,-485.2234 1488.5,-475.0862 1488.5,-465.671"/>
<polygon fill="#191970" stroke="#191970" points="1492.0001,-465.5446 1488.5,-455.5446 1485.0001,-465.5446 1492.0001,-465.5446"/>
</g>
<!-- Node83&#45;&gt;Node2 -->
<g id="edge125" class="edge">
<title>Node83&#45;&gt;Node2</title>
<path fill="none" stroke="#191970" d="M1274.9268,-682.29C1265.6823,-647.443 1233.2295,-525.4236 1205.5,-425 1203.0733,-416.2118 1200.3354,-406.4949 1198.0001,-398.2649"/>
<polygon fill="#191970" stroke="#191970" points="1201.3262,-397.1653 1195.2223,-388.5054 1194.5936,-399.0816 1201.3262,-397.1653"/>
</g>
<!-- Node83&#45;&gt;Node26 -->
<g id="edge123" class="edge">
<title>Node83&#45;&gt;Node26</title>
<path fill="none" stroke="#191970" d="M1243.8712,-685.7187C1201.8654,-677.3536 1133.0104,-661.7701 1112.5,-646 1022.161,-576.5397 1075.3628,-491.0483 982.5,-425 916.0167,-377.714 881.8576,-407.9306 802.5,-389 801.2223,-388.6952 799.9215,-388.3761 798.6092,-388.0467"/>
<polygon fill="#191970" stroke="#191970" points="799.0796,-384.5515 788.5182,-385.3924 797.2988,-391.3212 799.0796,-384.5515"/>
</g>
<!-- Node83&#45;&gt;Node27 -->
<g id="edge126" class="edge">
<title>Node83&#45;&gt;Node27</title>
<path fill="none" stroke="#191970" d="M1243.7358,-685.7391C1190.5185,-675.871 1086.8537,-656.6484 1025.1439,-645.2055"/>
<polygon fill="#191970" stroke="#191970" points="1025.7143,-641.7517 1015.2438,-643.3697 1024.438,-648.6344 1025.7143,-641.7517"/>
</g>
<!-- Node83&#45;&gt;Node36 -->
<g id="edge127" class="edge">
<title>Node83&#45;&gt;Node36</title>
<path fill="none" stroke="#191970" d="M1311.1871,-688.6309C1434.4303,-675.4635 1856.7217,-622.6577 1916.5,-512 1926.7352,-493.0533 1936.1322,-453.3343 1910.5,-425 1883.8521,-395.5429 1767.7763,-384.5675 1707.3586,-380.7972"/>
<polygon fill="#191970" stroke="#191970" points="1707.2977,-377.2877 1697.1092,-380.1936 1706.8861,-384.2755 1707.2977,-377.2877"/>
</g>
<!-- Node83&#45;&gt;Node37 -->
<g id="edge124" class="edge">
<title>Node83&#45;&gt;Node37</title>
<path fill="none" stroke="#191970" d="M1281.0916,-682.2761C1284.3417,-673.0649 1288.9918,-658.7787 1291.5,-646 1304.7013,-578.7431 1308.7825,-497.2534 1310.0023,-460.3574"/>
<polygon fill="#191970" stroke="#191970" points="1313.5107,-460.1181 1310.3057,-450.0197 1306.5137,-459.9126 1313.5107,-460.1181"/>
</g>
<!-- Node83&#45;&gt;Node42 -->
<g id="edge128" class="edge">
<title>Node83&#45;&gt;Node42</title>
<path fill="none" stroke="#191970" d="M1311.3231,-682.755C1384.44,-662.7697 1558.5366,-615.1833 1656.8212,-588.3189"/>
<polygon fill="#191970" stroke="#191970" points="1657.9488,-591.6391 1666.6721,-585.6263 1656.1031,-584.8868 1657.9488,-591.6391"/>
</g>
<!-- Node84&#45;&gt;Node2 -->
<g id="edge130" class="edge">
<title>Node84&#45;&gt;Node2</title>
<path fill="none" stroke="#191970" d="M1185.9685,-626.4873C1186.4136,-617.1867 1187.0761,-602.6229 1187.5,-590 1189.863,-519.6408 1191.4953,-436.047 1192.1628,-398.712"/>
<polygon fill="#191970" stroke="#191970" points="1195.6628,-398.7362 1192.3387,-388.6763 1188.6639,-398.6134 1195.6628,-398.7362"/>
</g>
</g>
</svg>
