<?xml version="1.0" encoding="UTF-8" standalone="no"?>
<!DOCTYPE svg PUBLIC "-//W3C//DTD SVG 1.1//EN"
 "http://www.w3.org/Graphics/SVG/1.1/DTD/svg11.dtd">
<!-- Generated by graphviz version 2.38.0 (20140413.2041)
 -->
<!-- Title: /home/alejandro/Desarrollo eclipse/os1/include/LocalMapping.h Pages: 1 -->
<svg width="1621pt" height="240pt"
 viewBox="0.00 0.00 1620.50 240.00" xmlns="http://www.w3.org/2000/svg" xmlns:xlink="http://www.w3.org/1999/xlink">
<g id="graph0" class="graph" transform="scale(1 1) rotate(0) translate(4 236)">
<title>/home/alejandro/Desarrollo eclipse/os1/include/LocalMapping.h</title>
<polygon fill="white" stroke="none" points="-4,4 -4,-236 1616.5,-236 1616.5,4 -4,4"/>
<!-- Node82 -->
<g id="node1" class="node"><title>Node82</title>
<polygon fill="#bfbfbf" stroke="black" points="727.5,-201.5 727.5,-231.5 901.5,-231.5 901.5,-201.5 727.5,-201.5"/>
<text text-anchor="start" x="735.5" y="-219.5" font-family="Helvetica,sans-Serif" font-size="10.00">/home/alejandro/Desarrollo</text>
<text text-anchor="middle" x="814.5" y="-208.5" font-family="Helvetica,sans-Serif" font-size="10.00"> eclipse/os1/include/LocalMapping.h</text>
</g>
<!-- Node83 -->
<g id="node2" class="node"><title>Node83</title>
<g id="a_node2"><a xlink:href="_loop_closing_8h.html" target="_top" xlink:title="/home/alejandro/Desarrollo\l eclipse/os1/include/LoopClosing.h">
<polygon fill="white" stroke="black" points="786.5,-134.5 786.5,-164.5 954.5,-164.5 954.5,-134.5 786.5,-134.5"/>
<text text-anchor="start" x="794.5" y="-152.5" font-family="Helvetica,sans-Serif" font-size="10.00">/home/alejandro/Desarrollo</text>
<text text-anchor="middle" x="870.5" y="-141.5" font-family="Helvetica,sans-Serif" font-size="10.00"> eclipse/os1/include/LoopClosing.h</text>
</a>
</g>
</g>
<!-- Node82&#45;&gt;Node83 -->
<g id="edge1" class="edge"><title>Node82&#45;&gt;Node83</title>
<path fill="none" stroke="midnightblue" d="M827.069,-193.447C834.691,-183.899 844.33,-173.004 852.698,-164.577"/>
<polygon fill="midnightblue" stroke="midnightblue" points="824.282,-191.331 820.973,-201.396 829.836,-195.591 824.282,-191.331"/>
</g>
<!-- Node84 -->
<g id="node3" class="node"><title>Node84</title>
<g id="a_node3"><a xlink:href="_tracking_8h.html" target="_top" xlink:title="/home/alejandro/Desarrollo\l eclipse/os1/include/Tracking.h">
<polygon fill="white" stroke="black" points="578.5,-67.5 578.5,-97.5 730.5,-97.5 730.5,-67.5 578.5,-67.5"/>
<text text-anchor="start" x="586.5" y="-85.5" font-family="Helvetica,sans-Serif" font-size="10.00">/home/alejandro/Desarrollo</text>
<text text-anchor="middle" x="654.5" y="-74.5" font-family="Helvetica,sans-Serif" font-size="10.00"> eclipse/os1/include/Tracking.h</text>
</a>
</g>
</g>
<!-- Node82&#45;&gt;Node84 -->
<g id="edge21" class="edge"><title>Node82&#45;&gt;Node84</title>
<path fill="none" stroke="midnightblue" d="M777.544,-195.853C763.898,-186.781 748.686,-175.672 735.5,-165 707.809,-142.588 677.456,-114.249 662.613,-97.5752"/>
<polygon fill="midnightblue" stroke="midnightblue" points="775.954,-198.993 786.249,-201.495 779.761,-193.119 775.954,-198.993"/>
</g>
<!-- Node88 -->
<g id="node7" class="node"><title>Node88</title>
<g id="a_node7"><a xlink:href="_system_8cc.html" target="_top" xlink:title="/home/alejandro/Desarrollo\l eclipse/os1/src/System.cc">
<polygon fill="white" stroke="black" points="642.5,-0.5 642.5,-30.5 778.5,-30.5 778.5,-0.5 642.5,-0.5"/>
<text text-anchor="start" x="650.5" y="-18.5" font-family="Helvetica,sans-Serif" font-size="10.00">/home/alejandro/Desarrollo</text>
<text text-anchor="middle" x="710.5" y="-7.5" font-family="Helvetica,sans-Serif" font-size="10.00"> eclipse/os1/src/System.cc</text>
</a>
</g>
</g>
<!-- Node82&#45;&gt;Node88 -->
<g id="edge23" class="edge"><title>Node82&#45;&gt;Node88</title>
<path fill="none" stroke="midnightblue" d="M796.223,-193.218C789.781,-184.715 782.826,-174.723 777.5,-165 755.058,-124.028 759.634,-109.154 739.5,-67 733.487,-54.4103 725.53,-40.7192 719.471,-30.7725"/>
<polygon fill="midnightblue" stroke="midnightblue" points="793.505,-195.424 802.413,-201.16 799.026,-191.121 793.505,-195.424"/>
</g>
<!-- Node93 -->
<g id="node12" class="node"><title>Node93</title>
<g id="a_node12"><a xlink:href="_local_mapping_8cc.html" target="_top" xlink:title="/home/alejandro/Desarrollo\l eclipse/os1/src/LocalMapping.cc">
<polygon fill="white" stroke="black" points="1450.5,-0.5 1450.5,-30.5 1612.5,-30.5 1612.5,-0.5 1450.5,-0.5"/>
<text text-anchor="start" x="1458.5" y="-18.5" font-family="Helvetica,sans-Serif" font-size="10.00">/home/alejandro/Desarrollo</text>
<text text-anchor="middle" x="1531.5" y="-7.5" font-family="Helvetica,sans-Serif" font-size="10.00"> eclipse/os1/src/LocalMapping.cc</text>
</a>
</g>
</g>
<!-- Node82&#45;&gt;Node93 -->
<g id="edge22" class="edge"><title>Node82&#45;&gt;Node93</title>
<path fill="none" stroke="midnightblue" d="M876.89,-198.874C961.108,-176.361 1115.8,-134.765 1247.5,-98 1330.5,-74.8295 1426.87,-46.9712 1483.32,-30.5565"/>
<polygon fill="midnightblue" stroke="midnightblue" points="875.981,-195.494 867.224,-201.456 877.789,-202.256 875.981,-195.494"/>
</g>
<!-- Node83&#45;&gt;Node82 -->
<g id="edge2" class="edge"><title>Node83&#45;&gt;Node82</title>
<path fill="none" stroke="midnightblue" d="M857.956,-172.522C850.338,-182.067 840.701,-192.963 832.33,-201.396"/>
<polygon fill="midnightblue" stroke="midnightblue" points="860.74,-174.642 864.047,-164.577 855.185,-170.383 860.74,-174.642"/>
</g>
<!-- Node83&#45;&gt;Node84 -->
<g id="edge3" class="edge"><title>Node83&#45;&gt;Node84</title>
<path fill="none" stroke="midnightblue" d="M808.266,-131.58C772.093,-121.022 727.572,-107.592 695.712,-97.6109"/>
<polygon fill="midnightblue" stroke="midnightblue" points="807.65,-135.046 818.229,-134.476 809.604,-128.324 807.65,-135.046"/>
</g>
<!-- Node83&#45;&gt;Node88 -->
<g id="edge20" class="edge"><title>Node83&#45;&gt;Node88</title>
<path fill="none" stroke="midnightblue" d="M845.636,-127.703C825.861,-111.193 797.467,-87.5486 772.5,-67 757.493,-54.649 740.358,-40.7037 727.91,-30.6018"/>
<polygon fill="midnightblue" stroke="midnightblue" points="843.629,-130.588 853.548,-134.313 848.117,-125.216 843.629,-130.588"/>
</g>
<!-- Node91 -->
<g id="node10" class="node"><title>Node91</title>
<g id="a_node10"><a xlink:href="_optimizer_8h.html" target="_top" xlink:title="/home/alejandro/Desarrollo\l eclipse/os1/include/Optimizer.h">
<polygon fill="white" stroke="black" points="998.5,-67.5 998.5,-97.5 1154.5,-97.5 1154.5,-67.5 998.5,-67.5"/>
<text text-anchor="start" x="1006.5" y="-85.5" font-family="Helvetica,sans-Serif" font-size="10.00">/home/alejandro/Desarrollo</text>
<text text-anchor="middle" x="1076.5" y="-74.5" font-family="Helvetica,sans-Serif" font-size="10.00"> eclipse/os1/include/Optimizer.h</text>
</a>
</g>
</g>
<!-- Node83&#45;&gt;Node91 -->
<g id="edge12" class="edge"><title>Node83&#45;&gt;Node91</title>
<path fill="none" stroke="midnightblue" d="M924.554,-131.444C957.946,-120.908 1000.28,-107.549 1031.78,-97.6109"/>
<polygon fill="midnightblue" stroke="midnightblue" points="923.429,-128.129 914.945,-134.476 925.535,-134.805 923.429,-128.129"/>
</g>
<!-- Node83&#45;&gt;Node93 -->
<g id="edge18" class="edge"><title>Node83&#45;&gt;Node93</title>
<path fill="none" stroke="midnightblue" d="M964.85,-133.401C1022.38,-123.907 1097.33,-111.023 1163.5,-98 1272.81,-76.4882 1399.49,-47.5432 1472.09,-30.5659"/>
<polygon fill="midnightblue" stroke="midnightblue" points="963.981,-129.997 954.682,-135.074 965.118,-136.904 963.981,-129.997"/>
</g>
<!-- Node94 -->
<g id="node13" class="node"><title>Node94</title>
<g id="a_node13"><a xlink:href="_loop_closing_8cc.html" target="_top" xlink:title="/home/alejandro/Desarrollo\l eclipse/os1/src/LoopClosing.cc">
<polygon fill="white" stroke="black" points="954.5,-0.5 954.5,-30.5 1110.5,-30.5 1110.5,-0.5 954.5,-0.5"/>
<text text-anchor="start" x="962.5" y="-18.5" font-family="Helvetica,sans-Serif" font-size="10.00">/home/alejandro/Desarrollo</text>
<text text-anchor="middle" x="1032.5" y="-7.5" font-family="Helvetica,sans-Serif" font-size="10.00"> eclipse/os1/src/LoopClosing.cc</text>
</a>
</g>
</g>
<!-- Node83&#45;&gt;Node94 -->
<g id="edge19" class="edge"><title>Node83&#45;&gt;Node94</title>
<path fill="none" stroke="midnightblue" d="M895.735,-127.938C928.994,-100.838 986.627,-53.8779 1015.29,-30.5247"/>
<polygon fill="midnightblue" stroke="midnightblue" points="893.378,-125.344 887.837,-134.374 897.8,-130.77 893.378,-125.344"/>
</g>
<!-- Node84&#45;&gt;Node82 -->
<g id="edge5" class="edge"><title>Node84&#45;&gt;Node82</title>
<path fill="none" stroke="midnightblue" d="M683.139,-104.114C702.768,-121.025 729.162,-145.302 753.5,-165 769.574,-178.01 788.66,-191.668 801.429,-201.495"/>
<polygon fill="midnightblue" stroke="midnightblue" points="685.324,-101.377 675.435,-97.5752 680.794,-106.714 685.324,-101.377"/>
</g>
<!-- Node84&#45;&gt;Node83 -->
<g id="edge4" class="edge"><title>Node84&#45;&gt;Node83</title>
<path fill="none" stroke="midnightblue" d="M717.05,-100.512C753.271,-111.086 797.779,-124.515 829.565,-134.476"/>
<polygon fill="midnightblue" stroke="midnightblue" points="717.651,-97.0421 707.071,-97.6109 715.696,-103.764 717.651,-97.0421"/>
</g>
<!-- Node85 -->
<g id="node4" class="node"><title>Node85</title>
<g id="a_node4"><a xlink:href="_frame_drawer_8cc.html" target="_top" xlink:title="/home/alejandro/Desarrollo\l eclipse/os1/src/FrameDrawer.cc">
<polygon fill="white" stroke="black" points="0,-0.5 0,-30.5 161,-30.5 161,-0.5 0,-0.5"/>
<text text-anchor="start" x="8" y="-18.5" font-family="Helvetica,sans-Serif" font-size="10.00">/home/alejandro/Desarrollo</text>
<text text-anchor="middle" x="80.5" y="-7.5" font-family="Helvetica,sans-Serif" font-size="10.00"> eclipse/os1/src/FrameDrawer.cc</text>
</a>
</g>
</g>
<!-- Node84&#45;&gt;Node85 -->
<g id="edge6" class="edge"><title>Node84&#45;&gt;Node85</title>
<path fill="none" stroke="midnightblue" d="M568.254,-74.0352C471.135,-65.2774 308.695,-49.5699 169.5,-31 166.862,-30.6481 164.182,-30.2789 161.477,-29.8964"/>
<polygon fill="midnightblue" stroke="midnightblue" points="568.042,-77.5303 578.315,-74.9388 568.668,-70.5583 568.042,-77.5303"/>
</g>
<!-- Node86 -->
<g id="node5" class="node"><title>Node86</title>
<g id="a_node5"><a xlink:href="main_8cc.html" target="_top" xlink:title="/home/alejandro/Desarrollo\l eclipse/os1/src/main.cc">
<polygon fill="white" stroke="black" points="179,-0.5 179,-30.5 312,-30.5 312,-0.5 179,-0.5"/>
<text text-anchor="start" x="187" y="-18.5" font-family="Helvetica,sans-Serif" font-size="10.00">/home/alejandro/Desarrollo</text>
<text text-anchor="middle" x="245.5" y="-7.5" font-family="Helvetica,sans-Serif" font-size="10.00"> eclipse/os1/src/main.cc</text>
</a>
</g>
</g>
<!-- Node84&#45;&gt;Node86 -->
<g id="edge7" class="edge"><title>Node84&#45;&gt;Node86</title>
<path fill="none" stroke="midnightblue" d="M568.246,-69.4477C500.711,-59.7722 404.471,-45.459 320.5,-31 317.755,-30.5274 314.956,-30.0348 312.13,-29.5286"/>
<polygon fill="midnightblue" stroke="midnightblue" points="568.02,-72.9508 578.414,-70.9005 569.01,-66.0212 568.02,-72.9508"/>
</g>
<!-- Node87 -->
<g id="node6" class="node"><title>Node87</title>
<g id="a_node6"><a xlink:href="serialize_8cpp.html" target="_top" xlink:title="/home/alejandro/Desarrollo\l eclipse/os1/src/serialize.cpp">
<polygon fill="white" stroke="black" points="330,-0.5 330,-30.5 473,-30.5 473,-0.5 330,-0.5"/>
<text text-anchor="start" x="338" y="-18.5" font-family="Helvetica,sans-Serif" font-size="10.00">/home/alejandro/Desarrollo</text>
<text text-anchor="middle" x="401.5" y="-7.5" font-family="Helvetica,sans-Serif" font-size="10.00"> eclipse/os1/src/serialize.cpp</text>
</a>
</g>
</g>
<!-- Node84&#45;&gt;Node87 -->
<g id="edge8" class="edge"><title>Node84&#45;&gt;Node87</title>
<path fill="none" stroke="midnightblue" d="M590.216,-64.9844C548.892,-54.3674 495.772,-40.7201 456.424,-30.6109"/>
<polygon fill="midnightblue" stroke="midnightblue" points="589.358,-68.3775 599.914,-67.476 591.1,-61.5976 589.358,-68.3775"/>
</g>
<!-- Node84&#45;&gt;Node88 -->
<g id="edge9" class="edge"><title>Node84&#45;&gt;Node88</title>
<path fill="none" stroke="midnightblue" d="M673.25,-59.7362C681.536,-50.119 691.039,-39.0888 698.373,-30.5765"/>
<polygon fill="midnightblue" stroke="midnightblue" points="670.527,-57.5354 666.651,-67.396 675.83,-62.1044 670.527,-57.5354"/>
</g>
<!-- Node89 -->
<g id="node8" class="node"><title>Node89</title>
<g id="a_node8"><a xlink:href="_tracking_8cc.html" target="_top" xlink:title="/home/alejandro/Desarrollo\l eclipse/os1/src/Tracking.cc">
<polygon fill="white" stroke="black" points="796.5,-0.5 796.5,-30.5 936.5,-30.5 936.5,-0.5 796.5,-0.5"/>
<text text-anchor="start" x="804.5" y="-18.5" font-family="Helvetica,sans-Serif" font-size="10.00">/home/alejandro/Desarrollo</text>
<text text-anchor="middle" x="866.5" y="-7.5" font-family="Helvetica,sans-Serif" font-size="10.00"> eclipse/os1/src/Tracking.cc</text>
</a>
</g>
</g>
<!-- Node84&#45;&gt;Node89 -->
<g id="edge10" class="edge"><title>Node84&#45;&gt;Node89</title>
<path fill="none" stroke="midnightblue" d="M710.128,-64.4442C744.493,-53.9078 788.062,-40.5495 820.477,-30.6109"/>
<polygon fill="midnightblue" stroke="midnightblue" points="708.775,-61.1983 700.24,-67.476 710.827,-67.8908 708.775,-61.1983"/>
</g>
<!-- Node90 -->
<g id="node9" class="node"><title>Node90</title>
<g id="a_node9"><a xlink:href="_viewer_8cc.html" target="_top" xlink:title="/home/alejandro/Desarrollo\l eclipse/os1/src/Viewer.cc">
<polygon fill="white" stroke="black" points="491,-0.5 491,-30.5 624,-30.5 624,-0.5 491,-0.5"/>
<text text-anchor="start" x="499" y="-18.5" font-family="Helvetica,sans-Serif" font-size="10.00">/home/alejandro/Desarrollo</text>
<text text-anchor="middle" x="557.5" y="-7.5" font-family="Helvetica,sans-Serif" font-size="10.00"> eclipse/os1/src/Viewer.cc</text>
</a>
</g>
</g>
<!-- Node84&#45;&gt;Node90 -->
<g id="edge11" class="edge"><title>Node84&#45;&gt;Node90</title>
<path fill="none" stroke="midnightblue" d="M625.003,-61.7337C609.993,-51.6755 592.099,-39.6847 578.506,-30.5765"/>
<polygon fill="midnightblue" stroke="midnightblue" points="623.197,-64.7367 633.452,-67.396 627.094,-58.9216 623.197,-64.7367"/>
</g>
<!-- Node91&#45;&gt;Node89 -->
<g id="edge17" class="edge"><title>Node91&#45;&gt;Node89</title>
<path fill="none" stroke="midnightblue" d="M1021.4,-64.4442C987.356,-53.9078 944.198,-40.5495 912.089,-30.6109"/>
<polygon fill="midnightblue" stroke="midnightblue" points="1020.6,-67.8626 1031.19,-67.476 1022.67,-61.1756 1020.6,-67.8626"/>
</g>
<!-- Node92 -->
<g id="node11" class="node"><title>Node92</title>
<g id="a_node11"><a xlink:href="_initializer_8cc.html" target="_top" xlink:title="/home/alejandro/Desarrollo\l eclipse/os1/src/Initializer.cc">
<polygon fill="white" stroke="black" points="1129,-0.5 1129,-30.5 1270,-30.5 1270,-0.5 1129,-0.5"/>
<text text-anchor="start" x="1137" y="-18.5" font-family="Helvetica,sans-Serif" font-size="10.00">/home/alejandro/Desarrollo</text>
<text text-anchor="middle" x="1199.5" y="-7.5" font-family="Helvetica,sans-Serif" font-size="10.00"> eclipse/os1/src/Initializer.cc</text>
</a>
</g>
</g>
<!-- Node91&#45;&gt;Node92 -->
<g id="edge13" class="edge"><title>Node91&#45;&gt;Node92</title>
<path fill="none" stroke="midnightblue" d="M1112.05,-62.7143C1131.45,-52.4631 1155.06,-39.9826 1172.86,-30.5765"/>
<polygon fill="midnightblue" stroke="midnightblue" points="1110.4,-59.6292 1103.19,-67.396 1113.67,-65.8181 1110.4,-59.6292"/>
</g>
<!-- Node91&#45;&gt;Node93 -->
<g id="edge14" class="edge"><title>Node91&#45;&gt;Node93</title>
<path fill="none" stroke="midnightblue" d="M1164.74,-69.8507C1238.72,-59.951 1347.09,-45.1351 1441.5,-31 1444.32,-30.5782 1447.18,-30.144 1450.08,-29.7013"/>
<polygon fill="midnightblue" stroke="midnightblue" points="1163.99,-66.4206 1154.54,-71.2144 1164.91,-73.3589 1163.99,-66.4206"/>
</g>
<!-- Node91&#45;&gt;Node94 -->
<g id="edge15" class="edge"><title>Node91&#45;&gt;Node94</title>
<path fill="none" stroke="midnightblue" d="M1061.18,-58.8669C1054.81,-49.4594 1047.62,-38.8334 1042.03,-30.5765"/>
<polygon fill="midnightblue" stroke="midnightblue" points="1058.45,-61.0769 1066.95,-67.396 1064.25,-57.1529 1058.45,-61.0769"/>
</g>
<!-- Node95 -->
<g id="node14" class="node"><title>Node95</title>
<g id="a_node14"><a xlink:href="_optimizer_8cc.html" target="_top" xlink:title="/home/alejandro/Desarrollo\l eclipse/os1/src/Optimizer.cc">
<polygon fill="white" stroke="black" points="1288.5,-0.5 1288.5,-30.5 1432.5,-30.5 1432.5,-0.5 1288.5,-0.5"/>
<text text-anchor="start" x="1296.5" y="-18.5" font-family="Helvetica,sans-Serif" font-size="10.00">/home/alejandro/Desarrollo</text>
<text text-anchor="middle" x="1360.5" y="-7.5" font-family="Helvetica,sans-Serif" font-size="10.00"> eclipse/os1/src/Optimizer.cc</text>
</a>
</g>
</g>
<!-- Node91&#45;&gt;Node95 -->
<g id="edge16" class="edge"><title>Node91&#45;&gt;Node95</title>
<path fill="none" stroke="midnightblue" d="M1147.78,-65.1856C1194.29,-54.5403 1254.4,-40.7841 1298.85,-30.6109"/>
<polygon fill="midnightblue" stroke="midnightblue" points="1146.74,-61.8331 1137.77,-67.476 1148.3,-68.6567 1146.74,-61.8331"/>
</g>
</g>
</svg>
