<?xml version="1.0" encoding="UTF-8" standalone="no"?>
<!DOCTYPE svg PUBLIC "-//W3C//DTD SVG 1.1//EN"
 "http://www.w3.org/Graphics/SVG/1.1/DTD/svg11.dtd">
<!-- Generated by graphviz version 2.38.0 (20140413.2041)
 -->
<!-- Title: /home/alejandro/Desarrollo eclipse/os1/include/LocalMapping.h Pages: 1 -->
<svg width="937pt" height="441pt"
 viewBox="0.00 0.00 936.72 441.00" xmlns="http://www.w3.org/2000/svg" xmlns:xlink="http://www.w3.org/1999/xlink">
<g id="graph0" class="graph" transform="scale(1 1) rotate(0) translate(4 437)">
<title>/home/alejandro/Desarrollo eclipse/os1/include/LocalMapping.h</title>
<polygon fill="white" stroke="none" points="-4,4 -4,-437 932.719,-437 932.719,4 -4,4"/>
<!-- Node79 -->
<g id="node1" class="node"><title>Node79</title>
<polygon fill="#bfbfbf" stroke="black" points="550.719,-402.5 550.719,-432.5 724.719,-432.5 724.719,-402.5 550.719,-402.5"/>
<text text-anchor="start" x="558.719" y="-420.5" font-family="Helvetica,sans-Serif" font-size="10.00">/home/alejandro/Desarrollo</text>
<text text-anchor="middle" x="637.719" y="-409.5" font-family="Helvetica,sans-Serif" font-size="10.00"> eclipse/os1/include/LocalMapping.h</text>
</g>
<!-- Node80 -->
<g id="node2" class="node"><title>Node80</title>
<g id="a_node2"><a xlink:href="_system_8h.html" target="_top" xlink:title="/home/alejandro/Desarrollo\l eclipse/os1/include/System.h">
<polygon fill="white" stroke="black" points="135.719,-335.5 135.719,-365.5 283.719,-365.5 283.719,-335.5 135.719,-335.5"/>
<text text-anchor="start" x="143.719" y="-353.5" font-family="Helvetica,sans-Serif" font-size="10.00">/home/alejandro/Desarrollo</text>
<text text-anchor="middle" x="209.719" y="-342.5" font-family="Helvetica,sans-Serif" font-size="10.00"> eclipse/os1/include/System.h</text>
</a>
</g>
</g>
<!-- Node79&#45;&gt;Node80 -->
<g id="edge1" class="edge"><title>Node79&#45;&gt;Node80</title>
<path fill="none" stroke="midnightblue" d="M540.286,-401.703C462.405,-389.875 354.88,-373.545 283.883,-362.763"/>
<polygon fill="midnightblue" stroke="midnightblue" points="540.179,-405.227 550.591,-403.268 541.23,-398.306 540.179,-405.227"/>
</g>
<!-- Node82 -->
<g id="node4" class="node"><title>Node82</title>
<g id="a_node4"><a xlink:href="_tracking_8h.html" target="_top" xlink:title="/home/alejandro/Desarrollo\l eclipse/os1/include/Tracking.h">
<polygon fill="white" stroke="black" points="221.719,-201.5 221.719,-231.5 373.719,-231.5 373.719,-201.5 221.719,-201.5"/>
<text text-anchor="start" x="229.719" y="-219.5" font-family="Helvetica,sans-Serif" font-size="10.00">/home/alejandro/Desarrollo</text>
<text text-anchor="middle" x="297.719" y="-208.5" font-family="Helvetica,sans-Serif" font-size="10.00"> eclipse/os1/include/Tracking.h</text>
</a>
</g>
</g>
<!-- Node79&#45;&gt;Node82 -->
<g id="edge33" class="edge"><title>Node79&#45;&gt;Node82</title>
<path fill="none" stroke="midnightblue" d="M623.712,-392.947C607.847,-359.57 579.768,-299.116 534.719,-268 508.666,-250.005 432.984,-236.173 374.021,-227.573"/>
<polygon fill="midnightblue" stroke="midnightblue" points="620.759,-394.881 628.249,-402.374 627.066,-391.845 620.759,-394.881"/>
</g>
<!-- Node86 -->
<g id="node8" class="node"><title>Node86</title>
<g id="a_node8"><a xlink:href="_loop_closing_8h.html" target="_top" xlink:title="/home/alejandro/Desarrollo\l eclipse/os1/include/LoopClosing.h">
<polygon fill="white" stroke="black" points="468.719,-134.5 468.719,-164.5 636.719,-164.5 636.719,-134.5 468.719,-134.5"/>
<text text-anchor="start" x="476.719" y="-152.5" font-family="Helvetica,sans-Serif" font-size="10.00">/home/alejandro/Desarrollo</text>
<text text-anchor="middle" x="552.719" y="-141.5" font-family="Helvetica,sans-Serif" font-size="10.00"> eclipse/os1/include/LoopClosing.h</text>
</a>
</g>
</g>
<!-- Node79&#45;&gt;Node86 -->
<g id="edge32" class="edge"><title>Node79&#45;&gt;Node86</title>
<path fill="none" stroke="midnightblue" d="M630.62,-392.141C629.122,-375.792 627.983,-353.874 623.719,-335 608.564,-267.912 569.359,-194.82 556.195,-164.692"/>
<polygon fill="midnightblue" stroke="midnightblue" points="627.183,-392.908 631.757,-402.465 634.141,-392.141 627.183,-392.908"/>
</g>
<!-- Node89 -->
<g id="node11" class="node"><title>Node89</title>
<g id="a_node11"><a xlink:href="_local_mapping_8cc.html" target="_top" xlink:title="/home/alejandro/Desarrollo\l eclipse/os1/src/LocalMapping.cc">
<polygon fill="white" stroke="black" points="766.719,-0.5 766.719,-30.5 928.719,-30.5 928.719,-0.5 766.719,-0.5"/>
<text text-anchor="start" x="774.719" y="-18.5" font-family="Helvetica,sans-Serif" font-size="10.00">/home/alejandro/Desarrollo</text>
<text text-anchor="middle" x="847.719" y="-7.5" font-family="Helvetica,sans-Serif" font-size="10.00"> eclipse/os1/src/LocalMapping.cc</text>
</a>
</g>
</g>
<!-- Node79&#45;&gt;Node89 -->
<g id="edge34" class="edge"><title>Node79&#45;&gt;Node89</title>
<path fill="none" stroke="midnightblue" d="M683.348,-398.074C726.182,-377.403 783.719,-339.415 783.719,-284.5 783.719,-284.5 783.719,-284.5 783.719,-148.5 783.719,-101.638 816.782,-53.949 835.379,-30.8305"/>
<polygon fill="midnightblue" stroke="midnightblue" points="681.77,-394.948 674.185,-402.344 684.727,-401.292 681.77,-394.948"/>
</g>
<!-- Node81 -->
<g id="node3" class="node"><title>Node81</title>
<g id="a_node3"><a xlink:href="_viewer_8h.html" target="_top" xlink:title="/home/alejandro/Desarrollo\l eclipse/os1/include/Viewer.h">
<polygon fill="white" stroke="black" points="28.7193,-268.5 28.7193,-298.5 172.719,-298.5 172.719,-268.5 28.7193,-268.5"/>
<text text-anchor="start" x="36.7193" y="-286.5" font-family="Helvetica,sans-Serif" font-size="10.00">/home/alejandro/Desarrollo</text>
<text text-anchor="middle" x="100.719" y="-275.5" font-family="Helvetica,sans-Serif" font-size="10.00"> eclipse/os1/include/Viewer.h</text>
</a>
</g>
</g>
<!-- Node80&#45;&gt;Node81 -->
<g id="edge2" class="edge"><title>Node80&#45;&gt;Node81</title>
<path fill="none" stroke="midnightblue" d="M171.294,-330.296C153.383,-320.125 132.989,-307.855 118.65,-298.577"/>
<polygon fill="midnightblue" stroke="midnightblue" points="169.955,-333.557 180.389,-335.396 173.379,-327.452 169.955,-333.557"/>
</g>
<!-- Node80&#45;&gt;Node82 -->
<g id="edge29" class="edge"><title>Node80&#45;&gt;Node82</title>
<path fill="none" stroke="midnightblue" d="M206.917,-325.204C209.583,-308.119 216.851,-285.308 228.719,-268 238.729,-253.402 254.045,-240.608 267.875,-231.549"/>
<polygon fill="midnightblue" stroke="midnightblue" points="203.4,-325.177 205.827,-335.49 210.361,-325.914 203.4,-325.177"/>
</g>
<!-- Node93 -->
<g id="node15" class="node"><title>Node93</title>
<g id="a_node15"><a xlink:href="main_8cc.html" target="_top" xlink:title="/home/alejandro/Desarrollo\l eclipse/os1/src/main.cc">
<polygon fill="white" stroke="black" points="247.219,-268.5 247.219,-298.5 380.219,-298.5 380.219,-268.5 247.219,-268.5"/>
<text text-anchor="start" x="255.219" y="-286.5" font-family="Helvetica,sans-Serif" font-size="10.00">/home/alejandro/Desarrollo</text>
<text text-anchor="middle" x="313.719" y="-275.5" font-family="Helvetica,sans-Serif" font-size="10.00"> eclipse/os1/src/main.cc</text>
</a>
</g>
</g>
<!-- Node80&#45;&gt;Node93 -->
<g id="edge30" class="edge"><title>Node80&#45;&gt;Node93</title>
<path fill="none" stroke="midnightblue" d="M240.895,-330.015C257.079,-319.9 276.488,-307.77 291.197,-298.577"/>
<polygon fill="midnightblue" stroke="midnightblue" points="238.911,-327.128 232.286,-335.396 242.621,-333.064 238.911,-327.128"/>
</g>
<!-- Node94 -->
<g id="node16" class="node"><title>Node94</title>
<g id="a_node16"><a xlink:href="_system_8cc.html" target="_top" xlink:title="/home/alejandro/Desarrollo\l eclipse/os1/src/System.cc">
<polygon fill="white" stroke="black" points="398.719,-268.5 398.719,-298.5 534.719,-298.5 534.719,-268.5 398.719,-268.5"/>
<text text-anchor="start" x="406.719" y="-286.5" font-family="Helvetica,sans-Serif" font-size="10.00">/home/alejandro/Desarrollo</text>
<text text-anchor="middle" x="466.719" y="-275.5" font-family="Helvetica,sans-Serif" font-size="10.00"> eclipse/os1/src/System.cc</text>
</a>
</g>
</g>
<!-- Node80&#45;&gt;Node94 -->
<g id="edge31" class="edge"><title>Node80&#45;&gt;Node94</title>
<path fill="none" stroke="midnightblue" d="M275.02,-332.984C316.997,-322.367 370.957,-308.72 410.927,-298.611"/>
<polygon fill="midnightblue" stroke="midnightblue" points="274.005,-329.631 265.168,-335.476 275.721,-336.417 274.005,-329.631"/>
</g>
<!-- Node81&#45;&gt;Node80 -->
<g id="edge27" class="edge"><title>Node81&#45;&gt;Node80</title>
<path fill="none" stroke="midnightblue" d="M139.091,-303.674C156.998,-313.841 177.395,-326.112 191.746,-335.396"/>
<polygon fill="midnightblue" stroke="midnightblue" points="140.434,-300.414 129.999,-298.577 137.01,-306.52 140.434,-300.414"/>
</g>
<!-- Node81&#45;&gt;Node82 -->
<g id="edge3" class="edge"><title>Node81&#45;&gt;Node82</title>
<path fill="none" stroke="midnightblue" d="M147.423,-265.092C178.187,-254.599 218.292,-241.408 249.382,-231.577"/>
<polygon fill="midnightblue" stroke="midnightblue" points="146.111,-261.842 137.787,-268.396 148.382,-268.463 146.111,-261.842"/>
</g>
<!-- Node92 -->
<g id="node14" class="node"><title>Node92</title>
<g id="a_node14"><a xlink:href="_viewer_8cc.html" target="_top" xlink:title="/home/alejandro/Desarrollo\l eclipse/os1/src/Viewer.cc">
<polygon fill="white" stroke="black" points="29.2193,-201.5 29.2193,-231.5 162.219,-231.5 162.219,-201.5 29.2193,-201.5"/>
<text text-anchor="start" x="37.2193" y="-219.5" font-family="Helvetica,sans-Serif" font-size="10.00">/home/alejandro/Desarrollo</text>
<text text-anchor="middle" x="95.7193" y="-208.5" font-family="Helvetica,sans-Serif" font-size="10.00"> eclipse/os1/src/Viewer.cc</text>
</a>
</g>
</g>
<!-- Node81&#45;&gt;Node92 -->
<g id="edge28" class="edge"><title>Node81&#45;&gt;Node92</title>
<path fill="none" stroke="midnightblue" d="M98.8657,-258.403C98.1709,-249.37 97.4045,-239.408 96.8021,-231.577"/>
<polygon fill="midnightblue" stroke="midnightblue" points="95.3776,-258.694 99.6344,-268.396 102.357,-258.157 95.3776,-258.694"/>
</g>
<!-- Node82&#45;&gt;Node79 -->
<g id="edge24" class="edge"><title>Node82&#45;&gt;Node79</title>
<path fill="none" stroke="midnightblue" d="M383.905,-226.912C447.014,-235.456 525.989,-249.537 552.719,-268 602.428,-302.335 631.475,-372.392 637.921,-402.374"/>
<polygon fill="midnightblue" stroke="midnightblue" points="384.297,-223.434 373.923,-225.589 383.377,-230.373 384.297,-223.434"/>
</g>
<!-- Node82&#45;&gt;Node80 -->
<g id="edge11" class="edge"><title>Node82&#45;&gt;Node80</title>
<path fill="none" stroke="midnightblue" d="M275.533,-238.01C265.598,-246.292 254.539,-256.595 246.719,-268 232.252,-289.1 224.619,-318.375 218.463,-335.49"/>
<polygon fill="midnightblue" stroke="midnightblue" points="277.945,-240.56 283.518,-231.549 273.542,-235.118 277.945,-240.56"/>
</g>
<!-- Node82&#45;&gt;Node81 -->
<g id="edge10" class="edge"><title>Node82&#45;&gt;Node81</title>
<path fill="none" stroke="midnightblue" d="M250.98,-234.92C220.166,-245.43 179.992,-258.643 148.891,-268.476"/>
<polygon fill="midnightblue" stroke="midnightblue" points="252.308,-238.165 260.632,-231.611 250.037,-231.544 252.308,-238.165"/>
</g>
<!-- Node83 -->
<g id="node5" class="node"><title>Node83</title>
<g id="a_node5"><a xlink:href="_frame_drawer_8h.html" target="_top" xlink:title="/home/alejandro/Desarrollo\l eclipse/os1/include/FrameDrawer.h">
<polygon fill="white" stroke="black" points="99.2193,-134.5 99.2193,-164.5 272.219,-164.5 272.219,-134.5 99.2193,-134.5"/>
<text text-anchor="start" x="107.219" y="-152.5" font-family="Helvetica,sans-Serif" font-size="10.00">/home/alejandro/Desarrollo</text>
<text text-anchor="middle" x="185.719" y="-141.5" font-family="Helvetica,sans-Serif" font-size="10.00"> eclipse/os1/include/FrameDrawer.h</text>
</a>
</g>
</g>
<!-- Node82&#45;&gt;Node83 -->
<g id="edge4" class="edge"><title>Node82&#45;&gt;Node83</title>
<path fill="none" stroke="midnightblue" d="M258.913,-196.575C240.412,-186.35 219.203,-173.94 204.299,-164.577"/>
<polygon fill="midnightblue" stroke="midnightblue" points="257.285,-199.673 267.739,-201.396 260.641,-193.53 257.285,-199.673"/>
</g>
<!-- Node84 -->
<g id="node6" class="node"><title>Node84</title>
<g id="a_node6"><a xlink:href="_frame_drawer_8cc.html" target="_top" xlink:title="/home/alejandro/Desarrollo\l eclipse/os1/src/FrameDrawer.cc">
<polygon fill="white" stroke="black" points="182.219,-67.5 182.219,-97.5 343.219,-97.5 343.219,-67.5 182.219,-67.5"/>
<text text-anchor="start" x="190.219" y="-85.5" font-family="Helvetica,sans-Serif" font-size="10.00">/home/alejandro/Desarrollo</text>
<text text-anchor="middle" x="262.719" y="-74.5" font-family="Helvetica,sans-Serif" font-size="10.00"> eclipse/os1/src/FrameDrawer.cc</text>
</a>
</g>
</g>
<!-- Node82&#45;&gt;Node84 -->
<g id="edge25" class="edge"><title>Node82&#45;&gt;Node84</title>
<path fill="none" stroke="midnightblue" d="M293.501,-190.927C290.483,-174.642 286.026,-152.88 280.719,-134 277.244,-121.635 272.284,-107.926 268.451,-97.9155"/>
<polygon fill="midnightblue" stroke="midnightblue" points="290.138,-192.001 295.352,-201.223 297.027,-190.762 290.138,-192.001"/>
</g>
<!-- Node85 -->
<g id="node7" class="node"><title>Node85</title>
<g id="a_node7"><a xlink:href="_tracking_8cc.html" target="_top" xlink:title="/home/alejandro/Desarrollo\l eclipse/os1/src/Tracking.cc">
<polygon fill="white" stroke="black" points="112.719,-0.5 112.719,-30.5 252.719,-30.5 252.719,-0.5 112.719,-0.5"/>
<text text-anchor="start" x="120.719" y="-18.5" font-family="Helvetica,sans-Serif" font-size="10.00">/home/alejandro/Desarrollo</text>
<text text-anchor="middle" x="182.719" y="-7.5" font-family="Helvetica,sans-Serif" font-size="10.00"> eclipse/os1/src/Tracking.cc</text>
</a>
</g>
</g>
<!-- Node82&#45;&gt;Node85 -->
<g id="edge26" class="edge"><title>Node82&#45;&gt;Node85</title>
<path fill="none" stroke="midnightblue" d="M317.79,-193.494C343.352,-162.712 380.903,-106.179 351.719,-67 344.86,-57.7907 288.017,-42.0358 242.12,-30.5676"/>
<polygon fill="midnightblue" stroke="midnightblue" points="315.125,-191.226 311.281,-201.099 320.443,-195.777 315.125,-191.226"/>
</g>
<!-- Node82&#45;&gt;Node86 -->
<g id="edge12" class="edge"><title>Node82&#45;&gt;Node86</title>
<path fill="none" stroke="midnightblue" d="M356.803,-198.917C397.289,-188.31 450.784,-174.699 491.682,-164.611"/>
<polygon fill="midnightblue" stroke="midnightblue" points="355.85,-195.549 347.069,-201.476 357.63,-202.319 355.85,-195.549"/>
</g>
<!-- Node83&#45;&gt;Node80 -->
<g id="edge6" class="edge"><title>Node83&#45;&gt;Node80</title>
<path fill="none" stroke="midnightblue" d="M89.098,-158.665C62.401,-165.899 36.2517,-178.69 19.7193,-201 -6.21278,-235.994 -6.83047,-264.472 19.7193,-299 34.1269,-317.737 88.5576,-330.981 135.488,-339.192"/>
<polygon fill="midnightblue" stroke="midnightblue" points="90.0672,-162.031 98.9418,-156.243 88.3952,-155.233 90.0672,-162.031"/>
</g>
<!-- Node83&#45;&gt;Node81 -->
<g id="edge5" class="edge"><title>Node83&#45;&gt;Node81</title>
<path fill="none" stroke="midnightblue" d="M185.908,-174.95C184.976,-192.109 181.506,-214.944 170.719,-232 160.867,-247.578 144.323,-259.844 129.792,-268.385"/>
<polygon fill="midnightblue" stroke="midnightblue" points="189.416,-174.708 186.205,-164.611 182.419,-174.507 189.416,-174.708"/>
</g>
<!-- Node83&#45;&gt;Node82 -->
<g id="edge7" class="edge"><title>Node83&#45;&gt;Node82</title>
<path fill="none" stroke="midnightblue" d="M224.471,-169.395C242.967,-179.615 264.18,-192.026 279.095,-201.396"/>
<polygon fill="midnightblue" stroke="midnightblue" points="226.103,-166.298 215.649,-164.577 222.748,-172.442 226.103,-166.298"/>
</g>
<!-- Node83&#45;&gt;Node84 -->
<g id="edge8" class="edge"><title>Node83&#45;&gt;Node84</title>
<path fill="none" stroke="midnightblue" d="M210.142,-127.883C221.844,-118.005 235.557,-106.429 246.044,-97.5765"/>
<polygon fill="midnightblue" stroke="midnightblue" points="207.811,-125.271 202.427,-134.396 212.326,-130.62 207.811,-125.271"/>
</g>
<!-- Node83&#45;&gt;Node85 -->
<g id="edge9" class="edge"><title>Node83&#45;&gt;Node85</title>
<path fill="none" stroke="midnightblue" d="M178.183,-124.347C175.958,-116.078 173.823,-106.715 172.719,-98 169.728,-74.3821 174.895,-46.8957 178.849,-30.6386"/>
<polygon fill="midnightblue" stroke="midnightblue" points="174.86,-125.455 180.98,-134.103 181.589,-123.526 174.86,-125.455"/>
</g>
<!-- Node86&#45;&gt;Node79 -->
<g id="edge13" class="edge"><title>Node86&#45;&gt;Node79</title>
<path fill="none" stroke="midnightblue" d="M571.87,-173.38C593.92,-207.338 627.866,-273.678 641.719,-335 646.967,-358.23 647.48,-386.07 644.67,-402.465"/>
<polygon fill="midnightblue" stroke="midnightblue" points="574.494,-171.014 565.992,-164.692 568.696,-174.936 574.494,-171.014"/>
</g>
<!-- Node86&#45;&gt;Node80 -->
<g id="edge14" class="edge"><title>Node86&#45;&gt;Node80</title>
<path fill="none" stroke="midnightblue" d="M559.491,-174.562C567.061,-207.191 574.565,-265.261 543.719,-299 509.787,-336.115 371.421,-346.166 283.775,-348.757"/>
<polygon fill="midnightblue" stroke="midnightblue" points="562.806,-173.39 556.976,-164.543 556.016,-175.095 562.806,-173.39"/>
</g>
<!-- Node86&#45;&gt;Node82 -->
<g id="edge15" class="edge"><title>Node86&#45;&gt;Node82</title>
<path fill="none" stroke="midnightblue" d="M493.286,-167.174C452.725,-177.799 399.23,-191.408 358.404,-201.476"/>
<polygon fill="midnightblue" stroke="midnightblue" points="494.258,-170.538 503.04,-164.611 492.479,-163.768 494.258,-170.538"/>
</g>
<!-- Node87 -->
<g id="node9" class="node"><title>Node87</title>
<g id="a_node9"><a xlink:href="_optimizer_8h.html" target="_top" xlink:title="/home/alejandro/Desarrollo\l eclipse/os1/include/Optimizer.h">
<polygon fill="white" stroke="black" points="467.719,-67.5 467.719,-97.5 623.719,-97.5 623.719,-67.5 467.719,-67.5"/>
<text text-anchor="start" x="475.719" y="-85.5" font-family="Helvetica,sans-Serif" font-size="10.00">/home/alejandro/Desarrollo</text>
<text text-anchor="middle" x="545.719" y="-74.5" font-family="Helvetica,sans-Serif" font-size="10.00"> eclipse/os1/include/Optimizer.h</text>
</a>
</g>
</g>
<!-- Node86&#45;&gt;Node87 -->
<g id="edge16" class="edge"><title>Node86&#45;&gt;Node87</title>
<path fill="none" stroke="midnightblue" d="M550.124,-124.403C549.151,-115.37 548.079,-105.408 547.235,-97.5765"/>
<polygon fill="midnightblue" stroke="midnightblue" points="546.65,-124.828 551.2,-134.396 553.609,-124.079 546.65,-124.828"/>
</g>
<!-- Node86&#45;&gt;Node89 -->
<g id="edge22" class="edge"><title>Node86&#45;&gt;Node89</title>
<path fill="none" stroke="midnightblue" d="M593.473,-130.265C653.024,-103.618 762.562,-54.6042 816.305,-30.5565"/>
<polygon fill="midnightblue" stroke="midnightblue" points="591.709,-127.219 584.01,-134.499 594.568,-133.609 591.709,-127.219"/>
</g>
<!-- Node90 -->
<g id="node12" class="node"><title>Node90</title>
<g id="a_node12"><a xlink:href="_loop_closing_8cc.html" target="_top" xlink:title="/home/alejandro/Desarrollo\l eclipse/os1/src/LoopClosing.cc">
<polygon fill="white" stroke="black" points="270.719,-0.5 270.719,-30.5 426.719,-30.5 426.719,-0.5 270.719,-0.5"/>
<text text-anchor="start" x="278.719" y="-18.5" font-family="Helvetica,sans-Serif" font-size="10.00">/home/alejandro/Desarrollo</text>
<text text-anchor="middle" x="348.719" y="-7.5" font-family="Helvetica,sans-Serif" font-size="10.00"> eclipse/os1/src/LoopClosing.cc</text>
</a>
</g>
</g>
<!-- Node86&#45;&gt;Node90 -->
<g id="edge23" class="edge"><title>Node86&#45;&gt;Node90</title>
<path fill="none" stroke="midnightblue" d="M514.457,-129.544C497.11,-120.546 476.538,-109.304 458.719,-98 424.601,-76.3554 387.288,-47.5177 366.069,-30.5851"/>
<polygon fill="midnightblue" stroke="midnightblue" points="513.229,-132.848 523.725,-134.298 516.424,-126.62 513.229,-132.848"/>
</g>
<!-- Node87&#45;&gt;Node85 -->
<g id="edge21" class="edge"><title>Node87&#45;&gt;Node85</title>
<path fill="none" stroke="midnightblue" d="M457.743,-65.986C401.636,-56.0598 327.386,-42.8646 261.719,-31 258.838,-30.4793 255.897,-29.9465 252.927,-29.4071"/>
<polygon fill="midnightblue" stroke="midnightblue" points="457.191,-69.4425 467.647,-67.7376 458.41,-62.5495 457.191,-69.4425"/>
</g>
<!-- Node88 -->
<g id="node10" class="node"><title>Node88</title>
<g id="a_node10"><a xlink:href="_initializer_8cc.html" target="_top" xlink:title="/home/alejandro/Desarrollo\l eclipse/os1/src/Initializer.cc">
<polygon fill="white" stroke="black" points="445.219,-0.5 445.219,-30.5 586.219,-30.5 586.219,-0.5 445.219,-0.5"/>
<text text-anchor="start" x="453.219" y="-18.5" font-family="Helvetica,sans-Serif" font-size="10.00">/home/alejandro/Desarrollo</text>
<text text-anchor="middle" x="515.719" y="-7.5" font-family="Helvetica,sans-Serif" font-size="10.00"> eclipse/os1/src/Initializer.cc</text>
</a>
</g>
</g>
<!-- Node87&#45;&gt;Node88 -->
<g id="edge17" class="edge"><title>Node87&#45;&gt;Node88</title>
<path fill="none" stroke="midnightblue" d="M535.004,-58.2835C530.73,-49.0223 525.948,-38.6632 522.216,-30.5765"/>
<polygon fill="midnightblue" stroke="midnightblue" points="531.841,-59.7831 539.21,-67.396 538.197,-56.8496 531.841,-59.7831"/>
</g>
<!-- Node87&#45;&gt;Node89 -->
<g id="edge18" class="edge"><title>Node87&#45;&gt;Node89</title>
<path fill="none" stroke="midnightblue" d="M620.915,-65.3156C670.548,-54.633 734.934,-40.7749 782.418,-30.5549"/>
<polygon fill="midnightblue" stroke="midnightblue" points="619.917,-61.9501 610.877,-67.476 621.39,-68.7934 619.917,-61.9501"/>
</g>
<!-- Node87&#45;&gt;Node90 -->
<g id="edge19" class="edge"><title>Node87&#45;&gt;Node90</title>
<path fill="none" stroke="midnightblue" d="M493.371,-64.2278C461.504,-53.7131 421.309,-40.4508 391.382,-30.5765"/>
<polygon fill="midnightblue" stroke="midnightblue" points="492.38,-67.5863 502.973,-67.396 494.573,-60.9388 492.38,-67.5863"/>
</g>
<!-- Node91 -->
<g id="node13" class="node"><title>Node91</title>
<g id="a_node13"><a xlink:href="_optimizer_8cc.html" target="_top" xlink:title="/home/alejandro/Desarrollo\l eclipse/os1/src/Optimizer.cc">
<polygon fill="white" stroke="black" points="604.719,-0.5 604.719,-30.5 748.719,-30.5 748.719,-0.5 604.719,-0.5"/>
<text text-anchor="start" x="612.719" y="-18.5" font-family="Helvetica,sans-Serif" font-size="10.00">/home/alejandro/Desarrollo</text>
<text text-anchor="middle" x="676.719" y="-7.5" font-family="Helvetica,sans-Serif" font-size="10.00"> eclipse/os1/src/Optimizer.cc</text>
</a>
</g>
</g>
<!-- Node87&#45;&gt;Node91 -->
<g id="edge20" class="edge"><title>Node87&#45;&gt;Node91</title>
<path fill="none" stroke="midnightblue" d="M583.3,-62.8533C604.012,-52.5761 629.307,-40.0252 648.35,-30.5765"/>
<polygon fill="midnightblue" stroke="midnightblue" points="581.547,-59.8159 574.144,-67.396 584.658,-66.0864 581.547,-59.8159"/>
</g>
</g>
</svg>
