<?xml version="1.0" encoding="UTF-8" standalone="no"?>
<!DOCTYPE svg PUBLIC "-//W3C//DTD SVG 1.1//EN"
 "http://www.w3.org/Graphics/SVG/1.1/DTD/svg11.dtd">
<!-- Generated by graphviz version 2.40.1 (20161225.0304)
 -->
<!-- Title: /home/alejandro/Desarrollo eclipse/os1/src/LoopClosing.cc Pages: 1 -->
<svg width="2304pt" height="833pt"
 viewBox="0.00 0.00 2304.00 833.00" xmlns="http://www.w3.org/2000/svg" xmlns:xlink="http://www.w3.org/1999/xlink">
<g id="graph0" class="graph" transform="scale(1 1) rotate(0) translate(4 829)">
<title>/home/alejandro/Desarrollo eclipse/os1/src/LoopClosing.cc</title>
<polygon fill="#ffffff" stroke="transparent" points="-4,4 -4,-829 2300,-829 2300,4 -4,4"/>
<!-- Node0 -->
<g id="node1" class="node">
<title>Node0</title>
<polygon fill="#bfbfbf" stroke="#000000" points="1274,-794.5 1274,-824.5 1430,-824.5 1430,-794.5 1274,-794.5"/>
<text text-anchor="start" x="1282" y="-812.5" font-family="Helvetica,sans-Serif" font-size="10.00" fill="#000000">/home/alejandro/Desarrollo</text>
<text text-anchor="middle" x="1352" y="-801.5" font-family="Helvetica,sans-Serif" font-size="10.00" fill="#000000"> eclipse/os1/src/LoopClosing.cc</text>
</g>
<!-- Node1 -->
<g id="node2" class="node">
<title>Node1</title>
<g id="a_node2"><a xlink:href="_loop_closing_8h.html" target="_top" xlink:title="LoopClosing.h">
<polygon fill="#ffffff" stroke="#000000" points="793.5,-682.5 793.5,-701.5 872.5,-701.5 872.5,-682.5 793.5,-682.5"/>
<text text-anchor="middle" x="833" y="-689.5" font-family="Helvetica,sans-Serif" font-size="10.00" fill="#000000">LoopClosing.h</text>
</a>
</g>
</g>
<!-- Node0&#45;&gt;Node1 -->
<g id="edge1" class="edge">
<title>Node0&#45;&gt;Node1</title>
<path fill="none" stroke="#191970" d="M1285.7411,-794.4992C1180.2747,-770.6219 976.5629,-724.5022 882.6423,-703.2389"/>
<polygon fill="#191970" stroke="#191970" points="883.3491,-699.8104 872.8231,-701.0158 881.8034,-706.6376 883.3491,-699.8104"/>
</g>
<!-- Node25 -->
<g id="node19" class="node">
<title>Node25</title>
<polygon fill="#ffffff" stroke="#bfbfbf" points="301,-257.5 301,-276.5 345,-276.5 345,-257.5 301,-257.5"/>
<text text-anchor="middle" x="323" y="-264.5" font-family="Helvetica,sans-Serif" font-size="10.00" fill="#000000">mutex</text>
</g>
<!-- Node0&#45;&gt;Node25 -->
<g id="edge139" class="edge">
<title>Node0&#45;&gt;Node25</title>
<path fill="none" stroke="#191970" d="M1273.9879,-808.364C1053.2814,-804.7643 427.3663,-791.7868 225,-758 122.2094,-740.8382 0,-796.2135 0,-692 0,-692 0,-692 0,-401 0,-338.044 54.0942,-339.9293 111,-313 170.6278,-284.7826 247.9051,-273.6439 290.7663,-269.4228"/>
<polygon fill="#191970" stroke="#191970" points="291.2523,-272.893 300.89,-268.4925 290.6117,-265.9224 291.2523,-272.893"/>
</g>
<!-- Node41 -->
<g id="node34" class="node">
<title>Node41</title>
<polygon fill="#ffffff" stroke="#bfbfbf" points="80,-453 80,-472 124,-472 124,-453 80,-453"/>
<text text-anchor="middle" x="102" y="-460" font-family="Helvetica,sans-Serif" font-size="10.00" fill="#000000">thread</text>
</g>
<!-- Node0&#45;&gt;Node41 -->
<g id="edge140" class="edge">
<title>Node0&#45;&gt;Node41</title>
<path fill="none" stroke="#191970" d="M1273.7384,-806.6272C990.8585,-795.7347 38,-754.4121 38,-692 38,-692 38,-692 38,-580 38,-540.4217 66.3499,-501.478 85.3127,-479.8561"/>
<polygon fill="#191970" stroke="#191970" points="88.1378,-481.952 92.2798,-472.2003 82.9606,-477.2406 88.1378,-481.952"/>
</g>
<!-- Node81 -->
<g id="node46" class="node">
<title>Node81</title>
<g id="a_node46"><a xlink:href="_sim3_solver_8h.html" target="_top" xlink:title="Sim3Solver.h">
<polygon fill="#ffffff" stroke="#000000" points="1250.5,-453 1250.5,-472 1325.5,-472 1325.5,-453 1250.5,-453"/>
<text text-anchor="middle" x="1288" y="-460" font-family="Helvetica,sans-Serif" font-size="10.00" fill="#000000">Sim3Solver.h</text>
</a>
</g>
</g>
<!-- Node0&#45;&gt;Node81 -->
<g id="edge116" class="edge">
<title>Node0&#45;&gt;Node81</title>
<path fill="none" stroke="#191970" d="M1369.6884,-794.2622C1379.1678,-784.8913 1389.9178,-772.0163 1395,-758 1404.6779,-731.3089 1452.5768,-966.3436 1385,-570 1380.6494,-544.4834 1384.487,-534.7407 1369,-514 1356.8316,-497.7037 1337.8555,-485.2405 1321.3284,-476.6596"/>
<polygon fill="#191970" stroke="#191970" points="1322.4696,-473.3208 1311.9505,-472.0562 1319.3851,-479.6046 1322.4696,-473.3208"/>
</g>
<!-- Node82 -->
<g id="node47" class="node">
<title>Node82</title>
<g id="a_node47"><a xlink:href="_converter_8h.html" target="_top" xlink:title="Converter.h">
<polygon fill="#ffffff" stroke="#000000" points="1812,-391.5 1812,-410.5 1880,-410.5 1880,-391.5 1812,-391.5"/>
<text text-anchor="middle" x="1846" y="-398.5" font-family="Helvetica,sans-Serif" font-size="10.00" fill="#000000">Converter.h</text>
</a>
</g>
</g>
<!-- Node0&#45;&gt;Node82 -->
<g id="edge120" class="edge">
<title>Node0&#45;&gt;Node82</title>
<path fill="none" stroke="#191970" d="M1430.2457,-806.4867C1566.7444,-799.0792 1834,-774.0937 1834,-692 1834,-692 1834,-692 1834,-524 1834,-487.3261 1839.3498,-444.7908 1842.9053,-420.5711"/>
<polygon fill="#191970" stroke="#191970" points="1846.3877,-420.9508 1844.4312,-410.5382 1839.4673,-419.8983 1846.3877,-420.9508"/>
</g>
<!-- Node83 -->
<g id="node48" class="node">
<title>Node83</title>
<g id="a_node48"><a xlink:href="_optimizer_8h.html" target="_top" xlink:title="Optimizer.h">
<polygon fill="#ffffff" stroke="#000000" points="1318.5,-738.5 1318.5,-757.5 1385.5,-757.5 1385.5,-738.5 1318.5,-738.5"/>
<text text-anchor="middle" x="1352" y="-745.5" font-family="Helvetica,sans-Serif" font-size="10.00" fill="#000000">Optimizer.h</text>
</a>
</g>
</g>
<!-- Node0&#45;&gt;Node83 -->
<g id="edge125" class="edge">
<title>Node0&#45;&gt;Node83</title>
<path fill="none" stroke="#191970" d="M1352,-794.2977C1352,-786.3834 1352,-776.6043 1352,-768.0759"/>
<polygon fill="#191970" stroke="#191970" points="1355.5001,-767.8469 1352,-757.8469 1348.5001,-767.847 1355.5001,-767.8469"/>
</g>
<!-- Node84 -->
<g id="node49" class="node">
<title>Node84</title>
<g id="a_node49"><a xlink:href="_o_r_bmatcher_8h.html" target="_top" xlink:title="ORBmatcher.h">
<polygon fill="#ffffff" stroke="#000000" points="1506,-514.5 1506,-533.5 1588,-533.5 1588,-514.5 1506,-514.5"/>
<text text-anchor="middle" x="1547" y="-521.5" font-family="Helvetica,sans-Serif" font-size="10.00" fill="#000000">ORBmatcher.h</text>
</a>
</g>
</g>
<!-- Node0&#45;&gt;Node84 -->
<g id="edge132" class="edge">
<title>Node0&#45;&gt;Node84</title>
<path fill="none" stroke="#191970" d="M1424.8528,-794.4146C1464.4871,-784.9082 1508.3546,-771.844 1523,-758 1545.6824,-736.5587 1547,-723.2125 1547,-692 1547,-692 1547,-692 1547,-636 1547,-603.7116 1547,-566.1872 1547,-543.8048"/>
<polygon fill="#191970" stroke="#191970" points="1550.5001,-543.5883 1547,-533.5884 1543.5001,-543.5884 1550.5001,-543.5883"/>
</g>
<!-- Node2 -->
<g id="node3" class="node">
<title>Node2</title>
<g id="a_node3"><a xlink:href="_key_frame_8h.html" target="_top" xlink:title="KeyFrame.h">
<polygon fill="#ffffff" stroke="#000000" points="1030,-391.5 1030,-410.5 1100,-410.5 1100,-391.5 1030,-391.5"/>
<text text-anchor="middle" x="1065" y="-398.5" font-family="Helvetica,sans-Serif" font-size="10.00" fill="#000000">KeyFrame.h</text>
</a>
</g>
</g>
<!-- Node1&#45;&gt;Node2 -->
<g id="edge2" class="edge">
<title>Node1&#45;&gt;Node2</title>
<path fill="none" stroke="#191970" d="M872.5184,-689.2567C954.8279,-683.1408 1138.5646,-667.2376 1157,-646 1195.4577,-601.6967 1187.7026,-563.9913 1157,-514 1138.4842,-483.8517 1108.3537,-505.4238 1086,-478 1072.7696,-461.7687 1067.8415,-437.8673 1066.0242,-421.008"/>
<polygon fill="#191970" stroke="#191970" points="1069.4816,-420.3329 1065.1993,-410.6421 1062.5037,-420.8883 1069.4816,-420.3329"/>
</g>
<!-- Node8 -->
<g id="node9" class="node">
<title>Node8</title>
<g id="a_node9"><a xlink:href="_o_r_b_vocabulary_8h.html" target="_top" xlink:title="ORBVocabulary.h">
<polygon fill="#ffffff" stroke="#000000" points="946.5,-257.5 946.5,-276.5 1041.5,-276.5 1041.5,-257.5 946.5,-257.5"/>
<text text-anchor="middle" x="994" y="-264.5" font-family="Helvetica,sans-Serif" font-size="10.00" fill="#000000">ORBVocabulary.h</text>
</a>
</g>
</g>
<!-- Node1&#45;&gt;Node8 -->
<g id="edge91" class="edge">
<title>Node1&#45;&gt;Node8</title>
<path fill="none" stroke="#191970" d="M869.9565,-682.4705C929.384,-664.8283 1043.6981,-620.7131 1085,-534 1105.3036,-491.3727 1054.0804,-496.1216 1021,-411 1004.5612,-368.7002 997.9215,-315.4162 995.4069,-287.0051"/>
<polygon fill="#191970" stroke="#191970" points="998.8746,-286.4609 994.5876,-276.7722 991.897,-287.0196 998.8746,-286.4609"/>
</g>
<!-- Node22 -->
<g id="node16" class="node">
<title>Node22</title>
<g id="a_node16"><a xlink:href="_key_frame_database_8h.html" target="_top" xlink:title="KeyFrameDatabase.h">
<polygon fill="#ffffff" stroke="#000000" points="596,-324.5 596,-343.5 708,-343.5 708,-324.5 596,-324.5"/>
<text text-anchor="middle" x="652" y="-331.5" font-family="Helvetica,sans-Serif" font-size="10.00" fill="#000000">KeyFrameDatabase.h</text>
</a>
</g>
</g>
<!-- Node1&#45;&gt;Node22 -->
<g id="edge93" class="edge">
<title>Node1&#45;&gt;Node22</title>
<path fill="none" stroke="#191970" d="M793.2627,-689.3086C653.0742,-679.2911 190,-641.543 190,-580 190,-580 190,-580 190,-524 190,-412.394 299.8429,-433.5972 403,-391 462.5638,-366.404 534.7354,-351.3653 586.0103,-342.9588"/>
<polygon fill="#191970" stroke="#191970" points="586.6549,-346.4002 595.9768,-341.365 585.5495,-339.4881 586.6549,-346.4002"/>
</g>
<!-- Node1&#45;&gt;Node25 -->
<g id="edge95" class="edge">
<title>Node1&#45;&gt;Node25</title>
<path fill="none" stroke="#191970" d="M793.1548,-691.5403C655.4294,-689.6488 204.9662,-680.8322 151,-646 70.9101,-594.3064 42.7546,-538.0429 71,-447 92.4057,-378.0032 104.396,-355.2414 163,-313 201.4603,-285.278 256.323,-274.196 290.7784,-269.8113"/>
<polygon fill="#191970" stroke="#191970" points="291.2442,-273.2809 300.7756,-268.6546 290.4395,-266.3273 291.2442,-273.2809"/>
</g>
<!-- Node26 -->
<g id="node20" class="node">
<title>Node26</title>
<g id="a_node20"><a xlink:href="_local_mapping_8h.html" target="_top" xlink:title="LocalMapping.h">
<polygon fill="#ffffff" stroke="#000000" points="710.5,-626.5 710.5,-645.5 795.5,-645.5 795.5,-626.5 710.5,-626.5"/>
<text text-anchor="middle" x="753" y="-633.5" font-family="Helvetica,sans-Serif" font-size="10.00" fill="#000000">LocalMapping.h</text>
</a>
</g>
</g>
<!-- Node1&#45;&gt;Node26 -->
<g id="edge35" class="edge">
<title>Node1&#45;&gt;Node26</title>
<path fill="none" stroke="#191970" d="M813.7982,-682.2455C800.2553,-673.8943 782.5481,-661.7076 769.613,-651.9408"/>
<polygon fill="#191970" stroke="#191970" points="771.5695,-649.0282 761.5301,-645.6427 767.267,-654.5499 771.5695,-649.0282"/>
</g>
<!-- Node27 -->
<g id="node21" class="node">
<title>Node27</title>
<g id="a_node21"><a xlink:href="_map_8h.html" target="_top" xlink:title="Map.h">
<polygon fill="#ffffff" stroke="#000000" points="724,-391.5 724,-410.5 768,-410.5 768,-391.5 724,-391.5"/>
<text text-anchor="middle" x="746" y="-398.5" font-family="Helvetica,sans-Serif" font-size="10.00" fill="#000000">Map.h</text>
</a>
</g>
</g>
<!-- Node1&#45;&gt;Node27 -->
<g id="edge90" class="edge">
<title>Node1&#45;&gt;Node27</title>
<path fill="none" stroke="#191970" d="M793.4093,-687.9173C764.054,-682.8421 725.1051,-671.4694 701,-646 680.0178,-623.8302 682,-610.5246 682,-580 682,-580 682,-580 682,-524 682,-482.3772 711.1972,-440.8677 730.1502,-418.3069"/>
<polygon fill="#191970" stroke="#191970" points="732.908,-420.4695 736.8304,-410.6274 727.6265,-415.8753 732.908,-420.4695"/>
</g>
<!-- Node28 -->
<g id="node22" class="node">
<title>Node28</title>
<g id="a_node22"><a xlink:href="_tracking_8h.html" target="_top" xlink:title="Tracking.h">
<polygon fill="#ffffff" stroke="#000000" points="748,-570.5 748,-589.5 810,-589.5 810,-570.5 748,-570.5"/>
<text text-anchor="middle" x="779" y="-577.5" font-family="Helvetica,sans-Serif" font-size="10.00" fill="#000000">Tracking.h</text>
</a>
</g>
</g>
<!-- Node1&#45;&gt;Node28 -->
<g id="edge92" class="edge">
<title>Node1&#45;&gt;Node28</title>
<path fill="none" stroke="#191970" d="M823.0398,-682.4866C814.7685,-669.5564 804.6983,-645.7777 795,-626 790.6105,-617.0485 785.3929,-607.3229 781.5706,-599.13"/>
<polygon fill="#191970" stroke="#191970" points="784.7324,-597.6188 777.6426,-589.7457 778.2752,-600.3216 784.7324,-597.6188"/>
</g>
<!-- Node1&#45;&gt;Node41 -->
<g id="edge94" class="edge">
<title>Node1&#45;&gt;Node41</title>
<path fill="none" stroke="#191970" d="M793.0828,-691.6359C658.3308,-690.0772 225.8812,-682.2689 176,-646 121.8866,-606.6538 107.2796,-520.9572 103.3879,-482.2163"/>
<polygon fill="#191970" stroke="#191970" points="106.8708,-481.8667 102.5209,-472.2061 99.8969,-482.4708 106.8708,-481.8667"/>
</g>
<!-- Node42 -->
<g id="node35" class="node">
<title>Node42</title>
<g id="a_node35"><a xlink:href="types__seven__dof__expmap_8h.html" target="_top" xlink:title="../Thirdparty/g2o/g2o\l/types/types_seven_dof\l_expmap.h">
<polygon fill="#ffffff" stroke="#000000" points="1776.5,-313.5 1776.5,-354.5 1897.5,-354.5 1897.5,-313.5 1776.5,-313.5"/>
<text text-anchor="start" x="1784.5" y="-342.5" font-family="Helvetica,sans-Serif" font-size="10.00" fill="#000000">../Thirdparty/g2o/g2o</text>
<text text-anchor="start" x="1784.5" y="-331.5" font-family="Helvetica,sans-Serif" font-size="10.00" fill="#000000">/types/types_seven_dof</text>
<text text-anchor="middle" x="1837" y="-320.5" font-family="Helvetica,sans-Serif" font-size="10.00" fill="#000000">_expmap.h</text>
</a>
</g>
</g>
<!-- Node1&#45;&gt;Node42 -->
<g id="edge96" class="edge">
<title>Node1&#45;&gt;Node42</title>
<path fill="none" stroke="#191970" d="M872.7383,-688.3511C937.0684,-682.0719 1067.8291,-667.7629 1177,-646 1366.4619,-608.2314 1414.4656,-597.273 1597,-534 1656.4407,-513.3957 1681.3678,-521.3063 1727,-478 1758.2856,-448.309 1743.4717,-425.0087 1770,-391 1778.4581,-380.1569 1789.2556,-369.8895 1799.7002,-361.1343"/>
<polygon fill="#191970" stroke="#191970" points="1802.0112,-363.7666 1807.5739,-354.7495 1797.6022,-358.3295 1802.0112,-363.7666"/>
</g>
<!-- Node3 -->
<g id="node4" class="node">
<title>Node3</title>
<g id="a_node4"><a xlink:href="_bow_vector_8h.html" target="_top" xlink:title="../Thirdparty/DBoW2\l/DBoW2/BowVector.h">
<polygon fill="#ffffff" stroke="#000000" points="1374.5,-56.5 1374.5,-86.5 1487.5,-86.5 1487.5,-56.5 1374.5,-56.5"/>
<text text-anchor="start" x="1382.5" y="-74.5" font-family="Helvetica,sans-Serif" font-size="10.00" fill="#000000">../Thirdparty/DBoW2</text>
<text text-anchor="middle" x="1431" y="-63.5" font-family="Helvetica,sans-Serif" font-size="10.00" fill="#000000">/DBoW2/BowVector.h</text>
</a>
</g>
</g>
<!-- Node2&#45;&gt;Node3 -->
<g id="edge3" class="edge">
<title>Node2&#45;&gt;Node3</title>
<path fill="none" stroke="#191970" d="M1067.5022,-391.3377C1072.4938,-373.7392 1085.2161,-336.1454 1108,-313 1171.305,-248.6907 1216.6562,-274.9406 1289,-221 1339.6269,-183.2518 1387.9114,-126.5345 1413.04,-94.918"/>
<polygon fill="#191970" stroke="#191970" points="1416.0691,-96.7279 1419.4963,-86.7027 1410.5653,-92.4026 1416.0691,-96.7279"/>
</g>
<!-- Node7 -->
<g id="node8" class="node">
<title>Node7</title>
<g id="a_node8"><a xlink:href="_feature_vector_8h.html" target="_top" xlink:title="../Thirdparty/DBoW2\l/DBoW2/FeatureVector.h">
<polygon fill="#ffffff" stroke="#000000" points="1450.5,-123.5 1450.5,-153.5 1577.5,-153.5 1577.5,-123.5 1450.5,-123.5"/>
<text text-anchor="start" x="1458.5" y="-141.5" font-family="Helvetica,sans-Serif" font-size="10.00" fill="#000000">../Thirdparty/DBoW2</text>
<text text-anchor="middle" x="1514" y="-130.5" font-family="Helvetica,sans-Serif" font-size="10.00" fill="#000000">/DBoW2/FeatureVector.h</text>
</a>
</g>
</g>
<!-- Node2&#45;&gt;Node7 -->
<g id="edge7" class="edge">
<title>Node2&#45;&gt;Node7</title>
<path fill="none" stroke="#191970" d="M1074.0734,-391.2632C1090.656,-373.8723 1127.5188,-337.045 1164,-313 1244.3476,-260.0423 1274.0018,-264.1806 1360,-221 1400.7774,-200.5252 1446.81,-175.6247 1477.8398,-158.5705"/>
<polygon fill="#191970" stroke="#191970" points="1479.8955,-161.4341 1486.9656,-153.5433 1476.5179,-155.3028 1479.8955,-161.4341"/>
</g>
<!-- Node2&#45;&gt;Node8 -->
<g id="edge12" class="edge">
<title>Node2&#45;&gt;Node8</title>
<path fill="none" stroke="#191970" d="M1059.8939,-391.3631C1048.1755,-369.2466 1019.1852,-314.5326 1003.86,-285.609"/>
<polygon fill="#191970" stroke="#191970" points="1006.8345,-283.7472 999.0599,-276.5496 1000.6491,-287.0246 1006.8345,-283.7472"/>
</g>
<!-- Node2&#45;&gt;Node22 -->
<g id="edge28" class="edge">
<title>Node2&#45;&gt;Node22</title>
<path fill="none" stroke="#191970" d="M1029.567,-396.374C971.8795,-388.7007 854.1324,-372.4477 755,-355 739.0765,-352.1974 721.8386,-348.8196 706.1031,-345.6003"/>
<polygon fill="#191970" stroke="#191970" points="706.5098,-342.1104 696.0085,-343.5152 705.0938,-348.9657 706.5098,-342.1104"/>
</g>
<!-- Node2&#45;&gt;Node25 -->
<g id="edge34" class="edge">
<title>Node2&#45;&gt;Node25</title>
<path fill="none" stroke="#191970" d="M1029.9756,-399.453C934.2734,-394.9373 669.9916,-380.4581 587,-355 549.7319,-343.5678 546.3402,-327.1065 510,-313 457.4381,-292.5966 392.975,-279.1126 355.1016,-272.2859"/>
<polygon fill="#191970" stroke="#191970" points="355.6115,-268.822 345.1564,-270.5368 354.399,-275.7162 355.6115,-268.822"/>
</g>
<!-- Node4 -->
<g id="node5" class="node">
<title>Node4</title>
<polygon fill="#ffffff" stroke="#bfbfbf" points="1652,-.5 1652,-19.5 1706,-19.5 1706,-.5 1652,-.5"/>
<text text-anchor="middle" x="1679" y="-7.5" font-family="Helvetica,sans-Serif" font-size="10.00" fill="#000000">iostream</text>
</g>
<!-- Node3&#45;&gt;Node4 -->
<g id="edge4" class="edge">
<title>Node3&#45;&gt;Node4</title>
<path fill="none" stroke="#191970" d="M1487.5854,-57.4677C1534.8979,-45.735 1601.023,-29.337 1641.8718,-19.2072"/>
<polygon fill="#191970" stroke="#191970" points="1642.8221,-22.5776 1651.6857,-16.7735 1641.1372,-15.7834 1642.8221,-22.5776"/>
</g>
<!-- Node5 -->
<g id="node6" class="node">
<title>Node5</title>
<polygon fill="#ffffff" stroke="#bfbfbf" points="1475.5,-.5 1475.5,-19.5 1510.5,-19.5 1510.5,-.5 1475.5,-.5"/>
<text text-anchor="middle" x="1493" y="-7.5" font-family="Helvetica,sans-Serif" font-size="10.00" fill="#000000">map</text>
</g>
<!-- Node3&#45;&gt;Node5 -->
<g id="edge5" class="edge">
<title>Node3&#45;&gt;Node5</title>
<path fill="none" stroke="#191970" d="M1446.3258,-56.2977C1455.2907,-47.4052 1466.6288,-36.1586 1475.8851,-26.9769"/>
<polygon fill="#191970" stroke="#191970" points="1478.4382,-29.3742 1483.073,-19.8469 1473.5085,-24.4045 1478.4382,-29.3742"/>
</g>
<!-- Node6 -->
<g id="node7" class="node">
<title>Node6</title>
<polygon fill="#ffffff" stroke="#bfbfbf" points="1240,-.5 1240,-19.5 1284,-19.5 1284,-.5 1240,-.5"/>
<text text-anchor="middle" x="1262" y="-7.5" font-family="Helvetica,sans-Serif" font-size="10.00" fill="#000000">vector</text>
</g>
<!-- Node3&#45;&gt;Node6 -->
<g id="edge6" class="edge">
<title>Node3&#45;&gt;Node6</title>
<path fill="none" stroke="#191970" d="M1389.6579,-56.4554C1360.0674,-45.6872 1320.8248,-31.4067 1293.6978,-21.535"/>
<polygon fill="#191970" stroke="#191970" points="1294.8861,-18.2429 1284.2921,-18.1122 1292.4923,-24.8209 1294.8861,-18.2429"/>
</g>
<!-- Node7&#45;&gt;Node3 -->
<g id="edge8" class="edge">
<title>Node7&#45;&gt;Node3</title>
<path fill="none" stroke="#191970" d="M1495.166,-123.2967C1484.1295,-114.3876 1470.0078,-102.9882 1457.8235,-93.1527"/>
<polygon fill="#191970" stroke="#191970" points="1459.7391,-90.201 1449.7595,-86.6432 1455.3422,-95.6478 1459.7391,-90.201"/>
</g>
<!-- Node7&#45;&gt;Node4 -->
<g id="edge11" class="edge">
<title>Node7&#45;&gt;Node4</title>
<path fill="none" stroke="#191970" d="M1533.5756,-123.2548C1564.9432,-98.8261 1626.1902,-51.1276 1658.2724,-26.1424"/>
<polygon fill="#191970" stroke="#191970" points="1660.7597,-28.6416 1666.4988,-19.7358 1656.4586,-23.1188 1660.7597,-28.6416"/>
</g>
<!-- Node7&#45;&gt;Node5 -->
<g id="edge9" class="edge">
<title>Node7&#45;&gt;Node5</title>
<path fill="none" stroke="#191970" d="M1521.6599,-123.2447C1529.0396,-106.4144 1537.9984,-78.7056 1530,-56 1526.1691,-45.125 1518.5598,-34.9246 1511.2328,-26.9061"/>
<polygon fill="#191970" stroke="#191970" points="1513.6466,-24.3686 1504.1502,-19.6707 1508.6443,-29.2652 1513.6466,-24.3686"/>
</g>
<!-- Node7&#45;&gt;Node6 -->
<g id="edge10" class="edge">
<title>Node7&#45;&gt;Node6</title>
<path fill="none" stroke="#191970" d="M1515.4834,-123.398C1516.4038,-104.8558 1514.8738,-73.6975 1497,-56 1468.772,-28.0505 1351.7301,-16.1955 1294.2051,-11.9811"/>
<polygon fill="#191970" stroke="#191970" points="1294.4112,-8.4871 1284.1914,-11.281 1293.9228,-15.47 1294.4112,-8.4871"/>
</g>
<!-- Node9 -->
<g id="node10" class="node">
<title>Node9</title>
<g id="a_node10"><a xlink:href="_f_o_r_b_8h.html" target="_top" xlink:title="../Thirdparty/DBoW2\l/DBoW2/FORB.h">
<polygon fill="#ffffff" stroke="#000000" points="732.5,-190.5 732.5,-220.5 839.5,-220.5 839.5,-190.5 732.5,-190.5"/>
<text text-anchor="start" x="740.5" y="-208.5" font-family="Helvetica,sans-Serif" font-size="10.00" fill="#000000">../Thirdparty/DBoW2</text>
<text text-anchor="middle" x="786" y="-197.5" font-family="Helvetica,sans-Serif" font-size="10.00" fill="#000000">/DBoW2/FORB.h</text>
</a>
</g>
</g>
<!-- Node8&#45;&gt;Node9 -->
<g id="edge13" class="edge">
<title>Node8&#45;&gt;Node9</title>
<path fill="none" stroke="#191970" d="M961.5,-257.3906C930.8736,-248.3352 884.2133,-234.539 846.7017,-223.4479"/>
<polygon fill="#191970" stroke="#191970" points="847.4645,-220.0237 836.8825,-220.5446 845.4797,-226.7364 847.4645,-220.0237"/>
</g>
<!-- Node13 -->
<g id="node14" class="node">
<title>Node13</title>
<g id="a_node14"><a xlink:href="_templated_vocabulary_8h.html" target="_top" xlink:title="../Thirdparty/DBoW2\l/DBoW2/TemplatedVocabulary.h">
<polygon fill="#ffffff" stroke="#ff0000" points="1120,-190.5 1120,-220.5 1280,-220.5 1280,-190.5 1120,-190.5"/>
<text text-anchor="start" x="1128" y="-208.5" font-family="Helvetica,sans-Serif" font-size="10.00" fill="#000000">../Thirdparty/DBoW2</text>
<text text-anchor="middle" x="1200" y="-197.5" font-family="Helvetica,sans-Serif" font-size="10.00" fill="#000000">/DBoW2/TemplatedVocabulary.h</text>
</a>
</g>
</g>
<!-- Node8&#45;&gt;Node13 -->
<g id="edge21" class="edge">
<title>Node8&#45;&gt;Node13</title>
<path fill="none" stroke="#191970" d="M1026.1875,-257.3906C1056.5195,-248.3352 1102.7311,-234.539 1139.882,-223.4479"/>
<polygon fill="#191970" stroke="#191970" points="1141.0259,-226.7591 1149.6067,-220.5446 1139.0234,-220.0516 1141.0259,-226.7591"/>
</g>
<!-- Node9&#45;&gt;Node6 -->
<g id="edge15" class="edge">
<title>Node9&#45;&gt;Node6</title>
<path fill="none" stroke="#191970" d="M750.3641,-190.2861C733.0018,-181.5632 712.7443,-169.2916 698,-154 665.7924,-120.597 630.4683,-90.0417 662,-56 681.4466,-35.0055 1107.2431,-16.2477 1229.4685,-11.2808"/>
<polygon fill="#191970" stroke="#191970" points="1229.8352,-14.769 1239.6861,-10.8691 1229.5533,-7.7747 1229.8352,-14.769"/>
</g>
<!-- Node10 -->
<g id="node11" class="node">
<title>Node10</title>
<polygon fill="#ffffff" stroke="#bfbfbf" points="958,-62 958,-81 1074,-81 1074,-62 958,-62"/>
<text text-anchor="middle" x="1016" y="-69" font-family="Helvetica,sans-Serif" font-size="10.00" fill="#000000">opencv2/core/core.hpp</text>
</g>
<!-- Node9&#45;&gt;Node10 -->
<g id="edge14" class="edge">
<title>Node9&#45;&gt;Node10</title>
<path fill="none" stroke="#191970" d="M805.3294,-190.3608C828.1351,-172.8896 867.5686,-143.887 904,-123 929.392,-108.4422 959.6183,-94.7407 982.267,-85.1354"/>
<polygon fill="#191970" stroke="#191970" points="983.9113,-88.2414 991.7837,-81.1508 981.2078,-81.7845 983.9113,-88.2414"/>
</g>
<!-- Node11 -->
<g id="node12" class="node">
<title>Node11</title>
<polygon fill="#ffffff" stroke="#bfbfbf" points="671.5,-62 671.5,-81 712.5,-81 712.5,-62 671.5,-62"/>
<text text-anchor="middle" x="692" y="-69" font-family="Helvetica,sans-Serif" font-size="10.00" fill="#000000">string</text>
</g>
<!-- Node9&#45;&gt;Node11 -->
<g id="edge16" class="edge">
<title>Node9&#45;&gt;Node11</title>
<path fill="none" stroke="#191970" d="M757.2056,-190.3434C742.9335,-181.4927 726.5415,-169.0891 716,-154 702.7626,-135.0521 696.7572,-108.8164 694.0786,-91.0573"/>
<polygon fill="#191970" stroke="#191970" points="697.5325,-90.474 692.781,-81.0043 690.5901,-91.3702 697.5325,-90.474"/>
</g>
<!-- Node12 -->
<g id="node13" class="node">
<title>Node12</title>
<g id="a_node13"><a xlink:href="_f_class_8h.html" target="_top" xlink:title="FClass.h">
<polygon fill="#ffffff" stroke="#000000" points="758,-129 758,-148 814,-148 814,-129 758,-129"/>
<text text-anchor="middle" x="786" y="-136" font-family="Helvetica,sans-Serif" font-size="10.00" fill="#000000">FClass.h</text>
</a>
</g>
</g>
<!-- Node9&#45;&gt;Node12 -->
<g id="edge17" class="edge">
<title>Node9&#45;&gt;Node12</title>
<path fill="none" stroke="#191970" d="M786,-190.2967C786,-180.7699 786,-168.3954 786,-158.1306"/>
<polygon fill="#191970" stroke="#191970" points="789.5001,-158.0549 786,-148.055 782.5001,-158.055 789.5001,-158.0549"/>
</g>
<!-- Node12&#45;&gt;Node6 -->
<g id="edge19" class="edge">
<title>Node12&#45;&gt;Node6</title>
<path fill="none" stroke="#191970" d="M792.0585,-128.7865C803.8227,-110.8785 831.6453,-72.9446 866,-56 929.9261,-24.4701 1147.3335,-13.8988 1229.865,-10.9712"/>
<polygon fill="#191970" stroke="#191970" points="1230.0409,-14.4674 1239.916,-10.6292 1229.8028,-7.4714 1230.0409,-14.4674"/>
</g>
<!-- Node12&#45;&gt;Node10 -->
<g id="edge18" class="edge">
<title>Node12&#45;&gt;Node10</title>
<path fill="none" stroke="#191970" d="M810.7507,-128.9636C816.3887,-126.9038 822.3754,-124.8046 828,-123 874.8846,-107.9578 929.2038,-93.3784 967.3618,-83.5947"/>
<polygon fill="#191970" stroke="#191970" points="968.3619,-86.9518 977.1874,-81.0899 966.6326,-80.1687 968.3619,-86.9518"/>
</g>
<!-- Node12&#45;&gt;Node11 -->
<g id="edge20" class="edge">
<title>Node12&#45;&gt;Node11</title>
<path fill="none" stroke="#191970" d="M772.5321,-128.9005C757.1756,-117.9549 731.8537,-99.9064 713.7024,-86.9688"/>
<polygon fill="#191970" stroke="#191970" points="715.6176,-84.0358 705.4429,-81.0817 711.5546,-89.736 715.6176,-84.0358"/>
</g>
<!-- Node13&#45;&gt;Node3 -->
<g id="edge27" class="edge">
<title>Node13&#45;&gt;Node3</title>
<path fill="none" stroke="#191970" d="M1223.0306,-190.332C1249.1111,-173.3382 1293.05,-145.2568 1332,-123 1351.2828,-111.9814 1373.1471,-100.5044 1391.4146,-91.1889"/>
<polygon fill="#191970" stroke="#191970" points="1392.9998,-94.3094 1400.3357,-86.6651 1389.8339,-88.0662 1392.9998,-94.3094"/>
</g>
<!-- Node13&#45;&gt;Node6 -->
<g id="edge23" class="edge">
<title>Node13&#45;&gt;Node6</title>
<path fill="none" stroke="#191970" d="M1204.7621,-190.4841C1215.8553,-155.5046 1243.4141,-68.6055 1255.7991,-29.553"/>
<polygon fill="#191970" stroke="#191970" points="1259.1768,-30.48 1258.8636,-19.8898 1252.5043,-28.3639 1259.1768,-30.48"/>
</g>
<!-- Node13&#45;&gt;Node7 -->
<g id="edge26" class="edge">
<title>Node13&#45;&gt;Node7</title>
<path fill="none" stroke="#191970" d="M1270.4677,-190.4639C1321.0679,-179.667 1389.1075,-165.149 1440.4066,-154.2031"/>
<polygon fill="#191970" stroke="#191970" points="1441.3836,-157.5735 1450.433,-152.0636 1439.9228,-150.7276 1441.3836,-157.5735"/>
</g>
<!-- Node13&#45;&gt;Node10 -->
<g id="edge25" class="edge">
<title>Node13&#45;&gt;Node10</title>
<path fill="none" stroke="#191970" d="M1184.8383,-190.4705C1166.8931,-173.1023 1135.6882,-144.1964 1106,-123 1086.2872,-108.9257 1062.435,-95.4198 1044.2397,-85.7726"/>
<polygon fill="#191970" stroke="#191970" points="1045.7761,-82.6264 1035.2922,-81.0969 1042.534,-88.8304 1045.7761,-82.6264"/>
</g>
<!-- Node13&#45;&gt;Node11 -->
<g id="edge24" class="edge">
<title>Node13&#45;&gt;Node11</title>
<path fill="none" stroke="#191970" d="M1119.9279,-199.9565C998.882,-191.0379 780.0519,-172.6112 749,-154 724.6976,-139.4342 708.2578,-110.0447 699.5056,-90.5667"/>
<polygon fill="#191970" stroke="#191970" points="702.6497,-89.0153 695.5306,-81.1687 696.2027,-91.7422 702.6497,-89.0153"/>
</g>
<!-- Node14 -->
<g id="node15" class="node">
<title>Node14</title>
<polygon fill="#ffffff" stroke="#bfbfbf" points="1707.5,-129 1707.5,-148 1756.5,-148 1756.5,-129 1707.5,-129"/>
<text text-anchor="middle" x="1732" y="-136" font-family="Helvetica,sans-Serif" font-size="10.00" fill="#000000">cassert</text>
</g>
<!-- Node13&#45;&gt;Node14 -->
<g id="edge22" class="edge">
<title>Node13&#45;&gt;Node14</title>
<path fill="none" stroke="#191970" d="M1280.2218,-195.3969C1398.2489,-180.5326 1613.7427,-153.3933 1697.4568,-142.8504"/>
<polygon fill="#191970" stroke="#191970" points="1697.9728,-146.3131 1707.457,-141.5909 1697.098,-139.368 1697.9728,-146.3131"/>
</g>
<!-- Node22&#45;&gt;Node6 -->
<g id="edge29" class="edge">
<title>Node22&#45;&gt;Node6</title>
<path fill="none" stroke="#191970" d="M647.7392,-324.4842C630.8859,-285.2439 573.2592,-134.3752 646,-56 666.0479,-34.3992 1105.9437,-15.9747 1229.8057,-11.201"/>
<polygon fill="#191970" stroke="#191970" points="1229.9532,-14.698 1239.8122,-10.8186 1229.6859,-7.7031 1229.9532,-14.698"/>
</g>
<!-- Node22&#45;&gt;Node8 -->
<g id="edge32" class="edge">
<title>Node22&#45;&gt;Node8</title>
<path fill="none" stroke="#191970" d="M698.1242,-324.4835C715.8924,-320.8471 736.3822,-316.6895 755,-313 816.9138,-300.7306 887.9465,-287.1179 936.3767,-277.907"/>
<polygon fill="#191970" stroke="#191970" points="937.186,-281.3159 946.3567,-276.0103 935.879,-274.439 937.186,-281.3159"/>
</g>
<!-- Node23 -->
<g id="node17" class="node">
<title>Node23</title>
<polygon fill="#ffffff" stroke="#bfbfbf" points="765.5,-257.5 765.5,-276.5 794.5,-276.5 794.5,-257.5 765.5,-257.5"/>
<text text-anchor="middle" x="780" y="-264.5" font-family="Helvetica,sans-Serif" font-size="10.00" fill="#000000">list</text>
</g>
<!-- Node22&#45;&gt;Node23 -->
<g id="edge30" class="edge">
<title>Node22&#45;&gt;Node23</title>
<path fill="none" stroke="#191970" d="M670.3393,-324.4005C692.919,-312.5814 731.3209,-292.4805 756.1668,-279.4752"/>
<polygon fill="#191970" stroke="#191970" points="758.0392,-282.4456 765.2758,-274.7072 754.793,-276.2439 758.0392,-282.4456"/>
</g>
<!-- Node24 -->
<g id="node18" class="node">
<title>Node24</title>
<polygon fill="#ffffff" stroke="#bfbfbf" points="664,-257.5 664,-276.5 694,-276.5 694,-257.5 664,-257.5"/>
<text text-anchor="middle" x="679" y="-264.5" font-family="Helvetica,sans-Serif" font-size="10.00" fill="#000000">set</text>
</g>
<!-- Node22&#45;&gt;Node24 -->
<g id="edge31" class="edge">
<title>Node22&#45;&gt;Node24</title>
<path fill="none" stroke="#191970" d="M655.8684,-324.4005C659.8784,-314.45 666.2539,-298.6292 671.297,-286.1147"/>
<polygon fill="#191970" stroke="#191970" points="674.6472,-287.1651 675.1387,-276.5817 668.1546,-284.5486 674.6472,-287.1651"/>
</g>
<!-- Node22&#45;&gt;Node25 -->
<g id="edge33" class="edge">
<title>Node22&#45;&gt;Node25</title>
<path fill="none" stroke="#191970" d="M622.9144,-324.4524C610.4111,-320.5625 595.5775,-316.2309 582,-313 501.08,-293.7443 404.2017,-278.6036 355.0333,-271.4696"/>
<polygon fill="#191970" stroke="#191970" points="355.4017,-267.9867 345.0058,-270.03 354.4069,-274.9156 355.4017,-267.9867"/>
</g>
<!-- Node26&#45;&gt;Node1 -->
<g id="edge41" class="edge">
<title>Node26&#45;&gt;Node1</title>
<path fill="none" stroke="#191970" d="M772.0204,-645.6427C785.5259,-653.9595 803.2356,-666.1397 816.2132,-675.928"/>
<polygon fill="#191970" stroke="#191970" points="814.2903,-678.8665 824.3319,-682.2455 818.5892,-673.342 814.2903,-678.8665"/>
</g>
<!-- Node26&#45;&gt;Node2 -->
<g id="edge36" class="edge">
<title>Node26&#45;&gt;Node2</title>
<path fill="none" stroke="#191970" d="M795.5564,-629.2805C877.0576,-615.4502 1050.1969,-581.1011 1085,-534 1102.7276,-510.0082 1059.6042,-505.4812 1048,-478 1040.0493,-459.1711 1047.154,-436.1153 1054.458,-420.1667"/>
<polygon fill="#191970" stroke="#191970" points="1057.7858,-421.3376 1059.1302,-410.8284 1051.5256,-418.2054 1057.7858,-421.3376"/>
</g>
<!-- Node26&#45;&gt;Node22 -->
<g id="edge88" class="edge">
<title>Node26&#45;&gt;Node22</title>
<path fill="none" stroke="#191970" d="M710.2408,-631.8144C615.1359,-621.5309 390.9251,-591.5733 346,-534 269.692,-436.2083 488.2577,-371.1627 595.9271,-345.8623"/>
<polygon fill="#191970" stroke="#191970" points="597.0315,-349.1994 605.9869,-343.5382 595.4557,-342.3791 597.0315,-349.1994"/>
</g>
<!-- Node26&#45;&gt;Node25 -->
<g id="edge89" class="edge">
<title>Node26&#45;&gt;Node25</title>
<path fill="none" stroke="#191970" d="M710.2594,-632.9442C572.9555,-621.9703 152,-578.8389 152,-462.5 152,-462.5 152,-462.5 152,-401 152,-330.9576 241.9846,-292.0205 291.4016,-275.9183"/>
<polygon fill="#191970" stroke="#191970" points="292.4986,-279.2424 300.9948,-272.9127 290.4058,-272.5626 292.4986,-279.2424"/>
</g>
<!-- Node26&#45;&gt;Node27 -->
<g id="edge37" class="edge">
<title>Node26&#45;&gt;Node27</title>
<path fill="none" stroke="#191970" d="M749.1376,-626.3228C745.6962,-617.1446 740.9167,-602.8807 739,-590 729.8819,-528.7243 738.0061,-455.1101 742.9101,-420.6274"/>
<polygon fill="#191970" stroke="#191970" points="746.4058,-420.9148 744.4201,-410.5077 739.4825,-419.8816 746.4058,-420.9148"/>
</g>
<!-- Node26&#45;&gt;Node28 -->
<g id="edge42" class="edge">
<title>Node26&#45;&gt;Node28</title>
<path fill="none" stroke="#191970" d="M752.262,-626.2455C754.3308,-618.617 758.9827,-607.7881 764.0041,-598.5267"/>
<polygon fill="#191970" stroke="#191970" points="767.1829,-600.0283 769.2779,-589.6427 761.1636,-596.4551 767.1829,-600.0283"/>
</g>
<!-- Node27&#45;&gt;Node8 -->
<g id="edge38" class="edge">
<title>Node27&#45;&gt;Node8</title>
<path fill="none" stroke="#191970" d="M768.1694,-396.9936C797.8132,-390.99 851.3413,-377.8511 892,-355 916.7116,-341.1115 918.5434,-331.5248 940,-313 951.4746,-303.0933 964.3993,-292.0783 974.7267,-283.3112"/>
<polygon fill="#191970" stroke="#191970" points="977.0111,-285.9631 982.3749,-276.8263 972.4841,-280.624 977.0111,-285.9631"/>
</g>
<!-- Node27&#45;&gt;Node24 -->
<g id="edge39" class="edge">
<title>Node27&#45;&gt;Node24</title>
<path fill="none" stroke="#191970" d="M744.0422,-391.2757C740.4041,-374.5242 731.615,-339.4756 717,-313 711.2931,-302.6617 703.1334,-292.409 695.8371,-284.2158"/>
<polygon fill="#191970" stroke="#191970" points="698.3147,-281.7401 688.9514,-276.7822 693.1792,-286.4969 698.3147,-281.7401"/>
</g>
<!-- Node27&#45;&gt;Node25 -->
<g id="edge40" class="edge">
<title>Node27&#45;&gt;Node25</title>
<path fill="none" stroke="#191970" d="M723.6842,-399.9666C656.9696,-396.5735 460.1879,-384.2697 404,-355 387.7522,-346.5361 355.4189,-307.9302 336.8946,-284.7565"/>
<polygon fill="#191970" stroke="#191970" points="339.4862,-282.3914 330.5335,-276.7256 333.9989,-286.7377 339.4862,-282.3914"/>
</g>
<!-- Node28&#45;&gt;Node1 -->
<g id="edge53" class="edge">
<title>Node28&#45;&gt;Node1</title>
<path fill="none" stroke="#191970" d="M791.5695,-589.7457C798.8393,-598.9723 806.7571,-613.2689 813,-626 820.5768,-641.4513 828.3806,-659.3446 832.5871,-672.5992"/>
<polygon fill="#191970" stroke="#191970" points="829.2596,-673.7075 835.1907,-682.4866 836.0288,-671.925 829.2596,-673.7075"/>
</g>
<!-- Node28&#45;&gt;Node8 -->
<g id="edge54" class="edge">
<title>Node28&#45;&gt;Node8</title>
<path fill="none" stroke="#191970" d="M785.6703,-570.2893C816.0178,-526.1089 941.2993,-343.7224 981.5133,-285.1783"/>
<polygon fill="#191970" stroke="#191970" points="984.6305,-286.8219 987.4075,-276.5974 978.8606,-282.8585 984.6305,-286.8219"/>
</g>
<!-- Node28&#45;&gt;Node22 -->
<g id="edge55" class="edge">
<title>Node28&#45;&gt;Node22</title>
<path fill="none" stroke="#191970" d="M774.0214,-570.3565C755.0545,-533.6173 687.1102,-402.0086 661.6901,-352.7698"/>
<polygon fill="#191970" stroke="#191970" points="664.6415,-350.857 656.9441,-343.5768 658.4215,-354.0682 664.6415,-350.857"/>
</g>
<!-- Node28&#45;&gt;Node25 -->
<g id="edge87" class="edge">
<title>Node28&#45;&gt;Node25</title>
<path fill="none" stroke="#191970" d="M747.834,-578.4545C661.5118,-573.8954 420.7657,-559.2175 346,-534 287.8952,-514.402 228,-523.8209 228,-462.5 228,-462.5 228,-462.5 228,-401 228,-350.6048 273.2698,-305.9317 301.3093,-283.0952"/>
<polygon fill="#191970" stroke="#191970" points="303.7017,-285.666 309.3888,-276.7269 299.3685,-280.1684 303.7017,-285.666"/>
</g>
<!-- Node28&#45;&gt;Node26 -->
<g id="edge52" class="edge">
<title>Node28&#45;&gt;Node26</title>
<path fill="none" stroke="#191970" d="M779.7682,-589.6427C777.7033,-597.3197 772.9894,-608.2887 767.911,-617.6296"/>
<polygon fill="#191970" stroke="#191970" points="764.8913,-615.86 762.7957,-626.2455 770.9104,-619.4336 764.8913,-615.86"/>
</g>
<!-- Node28&#45;&gt;Node27 -->
<g id="edge51" class="edge">
<title>Node28&#45;&gt;Node27</title>
<path fill="none" stroke="#191970" d="M777.2258,-570.3762C772.0107,-542.0883 756.6556,-458.7987 749.6091,-420.5767"/>
<polygon fill="#191970" stroke="#191970" points="753.0381,-419.8711 747.783,-410.6714 746.1541,-421.1403 753.0381,-419.8711"/>
</g>
<!-- Node29 -->
<g id="node23" class="node">
<title>Node29</title>
<polygon fill="#ffffff" stroke="#bfbfbf" points="370,-453 370,-472 464,-472 464,-453 370,-453"/>
<text text-anchor="middle" x="417" y="-460" font-family="Helvetica,sans-Serif" font-size="10.00" fill="#000000">opencv2/core.hpp</text>
</g>
<!-- Node28&#45;&gt;Node29 -->
<g id="edge43" class="edge">
<title>Node28&#45;&gt;Node29</title>
<path fill="none" stroke="#191970" d="M747.9934,-576.9799C685.0564,-570.5089 544.5963,-554.2365 501,-534 473.2338,-521.1115 447.393,-496.4427 431.8982,-479.7294"/>
<polygon fill="#191970" stroke="#191970" points="434.4536,-477.3368 425.1597,-472.2502 429.2531,-482.0223 434.4536,-477.3368"/>
</g>
<!-- Node30 -->
<g id="node24" class="node">
<title>Node30</title>
<polygon fill="#ffffff" stroke="#bfbfbf" points="862.5,-514.5 862.5,-533.5 983.5,-533.5 983.5,-514.5 862.5,-514.5"/>
<text text-anchor="middle" x="923" y="-521.5" font-family="Helvetica,sans-Serif" font-size="10.00" fill="#000000">opencv2/features2d.hpp</text>
</g>
<!-- Node28&#45;&gt;Node30 -->
<g id="edge44" class="edge">
<title>Node28&#45;&gt;Node30</title>
<path fill="none" stroke="#191970" d="M803.7545,-570.3733C827.2849,-561.2226 862.8687,-547.3844 889.0426,-537.2057"/>
<polygon fill="#191970" stroke="#191970" points="890.5171,-540.3877 898.5685,-533.5011 887.9799,-533.8636 890.5171,-540.3877"/>
</g>
<!-- Node31 -->
<g id="node25" class="node">
<title>Node31</title>
<g id="a_node25"><a xlink:href="_viewer_8h.html" target="_top" xlink:title="Viewer.h">
<polygon fill="#ffffff" stroke="#000000" points="446.5,-324.5 446.5,-343.5 501.5,-343.5 501.5,-324.5 446.5,-324.5"/>
<text text-anchor="middle" x="474" y="-331.5" font-family="Helvetica,sans-Serif" font-size="10.00" fill="#000000">Viewer.h</text>
</a>
</g>
</g>
<!-- Node28&#45;&gt;Node31 -->
<g id="edge45" class="edge">
<title>Node28&#45;&gt;Node31</title>
<path fill="none" stroke="#191970" d="M747.835,-578.9196C655.2657,-575.393 386.7601,-562.7505 361,-534 307.7461,-474.5642 406.7856,-385.8482 452.5742,-349.9403"/>
<polygon fill="#191970" stroke="#191970" points="454.9201,-352.5513 460.7087,-343.6776 450.6498,-347.0047 454.9201,-352.5513"/>
</g>
<!-- Node32 -->
<g id="node26" class="node">
<title>Node32</title>
<g id="a_node26"><a xlink:href="_frame_drawer_8h.html" target="_top" xlink:title="FrameDrawer.h">
<polygon fill="#ffffff" stroke="#000000" points="370,-514.5 370,-533.5 454,-533.5 454,-514.5 370,-514.5"/>
<text text-anchor="middle" x="412" y="-521.5" font-family="Helvetica,sans-Serif" font-size="10.00" fill="#000000">FrameDrawer.h</text>
</a>
</g>
</g>
<!-- Node28&#45;&gt;Node32 -->
<g id="edge48" class="edge">
<title>Node28&#45;&gt;Node32</title>
<path fill="none" stroke="#191970" d="M747.61,-575.6731C691.445,-567.8608 570.0795,-550.6597 468,-534 466.739,-533.7942 465.4624,-533.5837 464.175,-533.3694"/>
<polygon fill="#191970" stroke="#191970" points="464.6192,-529.8948 454.1742,-531.6702 463.4466,-536.7959 464.6192,-529.8948"/>
</g>
<!-- Node33 -->
<g id="node27" class="node">
<title>Node33</title>
<g id="a_node27"><a xlink:href="_o_r_bextractor_8h.html" target="_top" xlink:title="ORBextractor.h">
<polygon fill="#ffffff" stroke="#000000" points="764.5,-324.5 764.5,-343.5 849.5,-343.5 849.5,-324.5 764.5,-324.5"/>
<text text-anchor="middle" x="807" y="-331.5" font-family="Helvetica,sans-Serif" font-size="10.00" fill="#000000">ORBextractor.h</text>
</a>
</g>
</g>
<!-- Node28&#45;&gt;Node33 -->
<g id="edge56" class="edge">
<title>Node28&#45;&gt;Node33</title>
<path fill="none" stroke="#191970" d="M780.0976,-570.3565C784.2531,-533.8479 799.0716,-403.6569 804.757,-353.7066"/>
<polygon fill="#191970" stroke="#191970" points="808.2565,-353.9085 805.91,-343.5768 801.3014,-353.1168 808.2565,-353.9085"/>
</g>
<!-- Node34 -->
<g id="node28" class="node">
<title>Node34</title>
<g id="a_node28"><a xlink:href="_initializer_8h.html" target="_top" xlink:title="Initializer.h">
<polygon fill="#ffffff" stroke="#000000" points="1344,-453 1344,-472 1408,-472 1408,-453 1344,-453"/>
<text text-anchor="middle" x="1376" y="-460" font-family="Helvetica,sans-Serif" font-size="10.00" fill="#000000">Initializer.h</text>
</a>
</g>
</g>
<!-- Node28&#45;&gt;Node34 -->
<g id="edge60" class="edge">
<title>Node28&#45;&gt;Node34</title>
<path fill="none" stroke="#191970" d="M810.3012,-576.6932C895.7979,-567.1432 1139.918,-536.4066 1335,-478 1337.5766,-477.2286 1340.2232,-476.3747 1342.8714,-475.4759"/>
<polygon fill="#191970" stroke="#191970" points="1344.1068,-478.7513 1352.3464,-472.0909 1341.7518,-472.1593 1344.1068,-478.7513"/>
</g>
<!-- Node36 -->
<g id="node30" class="node">
<title>Node36</title>
<g id="a_node30"><a xlink:href="_frame_8h.html" target="_top" xlink:title="Frame.h">
<polygon fill="#ffffff" stroke="#000000" points="1409.5,-391.5 1409.5,-410.5 1462.5,-410.5 1462.5,-391.5 1409.5,-391.5"/>
<text text-anchor="middle" x="1436" y="-398.5" font-family="Helvetica,sans-Serif" font-size="10.00" fill="#000000">Frame.h</text>
</a>
</g>
</g>
<!-- Node28&#45;&gt;Node36 -->
<g id="edge86" class="edge">
<title>Node28&#45;&gt;Node36</title>
<path fill="none" stroke="#191970" d="M810.0079,-579.5841C925.5704,-577.3744 1329.0683,-563.5569 1417,-478 1432.2191,-463.1919 1435.9969,-438.2813 1436.5952,-420.814"/>
<polygon fill="#191970" stroke="#191970" points="1440.0956,-420.599 1436.6175,-410.5914 1433.0956,-420.5837 1440.0956,-420.599"/>
</g>
<!-- Node38 -->
<g id="node32" class="node">
<title>Node38</title>
<g id="a_node32"><a xlink:href="_map_drawer_8h.html" target="_top" xlink:title="MapDrawer.h">
<polygon fill="#ffffff" stroke="#ff0000" points="1001.5,-514.5 1001.5,-533.5 1076.5,-533.5 1076.5,-514.5 1001.5,-514.5"/>
<text text-anchor="middle" x="1039" y="-521.5" font-family="Helvetica,sans-Serif" font-size="10.00" fill="#000000">MapDrawer.h</text>
</a>
</g>
</g>
<!-- Node28&#45;&gt;Node38 -->
<g id="edge75" class="edge">
<title>Node28&#45;&gt;Node38</title>
<path fill="none" stroke="#191970" d="M810.1038,-573.3007C855.057,-563.6185 938.5664,-545.6319 991.3293,-534.2675"/>
<polygon fill="#191970" stroke="#191970" points="992.0903,-537.684 1001.1291,-532.1568 990.6163,-530.8409 992.0903,-537.684"/>
</g>
<!-- Node40 -->
<g id="node33" class="node">
<title>Node40</title>
<g id="a_node33"><a xlink:href="_system_8h.html" target="_top" xlink:title="System.h">
<polygon fill="#ffffff" stroke="#000000" points="510.5,-514.5 510.5,-533.5 569.5,-533.5 569.5,-514.5 510.5,-514.5"/>
<text text-anchor="middle" x="540" y="-521.5" font-family="Helvetica,sans-Serif" font-size="10.00" fill="#000000">System.h</text>
</a>
</g>
</g>
<!-- Node28&#45;&gt;Node40 -->
<g id="edge80" class="edge">
<title>Node28&#45;&gt;Node40</title>
<path fill="none" stroke="#191970" d="M747.7549,-572.679C704.6104,-562.5698 626.7877,-544.3352 579.6123,-533.2816"/>
<polygon fill="#191970" stroke="#191970" points="580.2834,-529.8441 569.7487,-530.9704 578.6865,-536.6595 580.2834,-529.8441"/>
</g>
<!-- Node31&#45;&gt;Node11 -->
<g id="edge46" class="edge">
<title>Node31&#45;&gt;Node11</title>
<path fill="none" stroke="#191970" d="M480.8832,-324.4113C502.8806,-293.9581 573.9116,-197.0848 640,-123 650.919,-110.7598 664.0488,-97.7685 674.3831,-87.8961"/>
<polygon fill="#191970" stroke="#191970" points="676.7956,-90.4318 681.658,-81.0186 671.9868,-85.345 676.7956,-90.4318"/>
</g>
<!-- Node31&#45;&gt;Node25 -->
<g id="edge47" class="edge">
<title>Node31&#45;&gt;Node25</title>
<path fill="none" stroke="#191970" d="M455.308,-324.3317C448.0769,-320.6766 439.7013,-316.5459 432,-313 406.2751,-301.1554 376.6409,-288.7256 354.7713,-279.7769"/>
<polygon fill="#191970" stroke="#191970" points="355.8929,-276.4547 345.3114,-275.925 353.2531,-282.9378 355.8929,-276.4547"/>
</g>
<!-- Node32&#45;&gt;Node25 -->
<g id="edge50" class="edge">
<title>Node32&#45;&gt;Node25</title>
<path fill="none" stroke="#191970" d="M399.2317,-514.3693C388.2413,-505.6652 372.3991,-492.0904 361,-478 321.3002,-428.9274 306.3342,-415.9704 290,-355 285.1695,-336.9692 284.2851,-330.7703 290,-313 293.3946,-302.4445 300.2058,-292.2592 306.7631,-284.1676"/>
<polygon fill="#191970" stroke="#191970" points="309.447,-286.4149 313.3508,-276.5654 304.1569,-281.8307 309.447,-286.4149"/>
</g>
<!-- Node32&#45;&gt;Node29 -->
<g id="edge49" class="edge">
<title>Node32&#45;&gt;Node29</title>
<path fill="none" stroke="#191970" d="M412.7813,-514.3906C413.4743,-505.8657 414.509,-493.1392 415.3802,-482.4235"/>
<polygon fill="#191970" stroke="#191970" points="418.8858,-482.4956 416.2077,-472.2449 411.9088,-481.9283 418.8858,-482.4956"/>
</g>
<!-- Node33&#45;&gt;Node6 -->
<g id="edge57" class="edge">
<title>Node33&#45;&gt;Node6</title>
<path fill="none" stroke="#191970" d="M817.1503,-324.42C837.2087,-304.3973 880,-255.7889 880,-205.5 880,-205.5 880,-205.5 880,-138.5 880,-90.6995 907.2846,-79.3391 949,-56 996.7572,-29.2806 1159.8149,-16.2862 1229.7368,-11.8393"/>
<polygon fill="#191970" stroke="#191970" points="1229.9754,-15.3313 1239.7405,-11.2213 1229.5437,-8.3446 1229.9754,-15.3313"/>
</g>
<!-- Node33&#45;&gt;Node10 -->
<g id="edge59" class="edge">
<title>Node33&#45;&gt;Node10</title>
<path fill="none" stroke="#191970" d="M826.8162,-324.3993C845.7596,-314.4961 874.2772,-297.6154 894,-277 950.1048,-218.3561 991.6998,-129.351 1008.2021,-90.6218"/>
<polygon fill="#191970" stroke="#191970" points="1011.5554,-91.6746 1012.1824,-81.0984 1005.0968,-88.9752 1011.5554,-91.6746"/>
</g>
<!-- Node33&#45;&gt;Node23 -->
<g id="edge58" class="edge">
<title>Node33&#45;&gt;Node23</title>
<path fill="none" stroke="#191970" d="M803.1316,-324.4005C799.1216,-314.45 792.7461,-298.6292 787.703,-286.1147"/>
<polygon fill="#191970" stroke="#191970" points="790.8454,-284.5486 783.8613,-276.5817 784.3528,-287.1651 790.8454,-284.5486"/>
</g>
<!-- Node35 -->
<g id="node29" class="node">
<title>Node35</title>
<polygon fill="#ffffff" stroke="#bfbfbf" points="1172.5,-324.5 1172.5,-343.5 1279.5,-343.5 1279.5,-324.5 1172.5,-324.5"/>
<text text-anchor="middle" x="1226" y="-331.5" font-family="Helvetica,sans-Serif" font-size="10.00" fill="#000000">opencv2/opencv.hpp</text>
</g>
<!-- Node34&#45;&gt;Node35 -->
<g id="edge61" class="edge">
<title>Node34&#45;&gt;Node35</title>
<path fill="none" stroke="#191970" d="M1364.7256,-452.8416C1339.2076,-430.9812 1276.7905,-377.5105 1245.1128,-350.3733"/>
<polygon fill="#191970" stroke="#191970" points="1247.2766,-347.6183 1237.4052,-343.7705 1242.7225,-352.9344 1247.2766,-347.6183"/>
</g>
<!-- Node34&#45;&gt;Node36 -->
<g id="edge62" class="edge">
<title>Node34&#45;&gt;Node36</title>
<path fill="none" stroke="#191970" d="M1385.375,-452.8906C1394.4799,-443.5581 1408.4974,-429.1902 1419.4757,-417.9374"/>
<polygon fill="#191970" stroke="#191970" points="1422.0148,-420.3468 1426.4928,-410.7449 1417.0043,-415.4586 1422.0148,-420.3468"/>
</g>
<!-- Node36&#45;&gt;Node3 -->
<g id="edge70" class="edge">
<title>Node36&#45;&gt;Node3</title>
<path fill="none" stroke="#191970" d="M1436.0644,-391.4935C1436.1594,-375.3553 1436.2957,-341.5679 1436,-313 1435.1837,-234.1382 1432.8684,-140.814 1431.697,-96.8351"/>
<polygon fill="#191970" stroke="#191970" points="1435.1936,-96.6581 1431.4255,-86.756 1428.1962,-96.8467 1435.1936,-96.6581"/>
</g>
<!-- Node36&#45;&gt;Node6 -->
<g id="edge63" class="edge">
<title>Node36&#45;&gt;Node6</title>
<path fill="none" stroke="#191970" d="M1434.9038,-391.2869C1429.6311,-348.1404 1403.6798,-170.9152 1322,-56 1313.1528,-43.5529 1299.9547,-32.9185 1288.1877,-25.0201"/>
<polygon fill="#191970" stroke="#191970" points="1289.879,-21.9478 1279.5641,-19.5287 1286.1191,-27.8523 1289.879,-21.9478"/>
</g>
<!-- Node36&#45;&gt;Node7 -->
<g id="edge71" class="edge">
<title>Node36&#45;&gt;Node7</title>
<path fill="none" stroke="#191970" d="M1446.4226,-391.4574C1455.1942,-382.8098 1467.3424,-369.2683 1474,-355 1504.0433,-290.6121 1511.5465,-205.5798 1513.4029,-163.8333"/>
<polygon fill="#191970" stroke="#191970" points="1516.9047,-163.847 1513.7774,-153.7242 1509.9095,-163.5878 1516.9047,-163.847"/>
</g>
<!-- Node36&#45;&gt;Node8 -->
<g id="edge72" class="edge">
<title>Node36&#45;&gt;Node8</title>
<path fill="none" stroke="#191970" d="M1409.4495,-392.2513C1387.5953,-384.367 1356.3609,-371.4893 1332,-355 1309.8767,-340.0253 1312.8883,-324.9595 1289,-313 1248.4396,-292.6938 1125.4565,-278.6526 1051.7074,-271.8011"/>
<polygon fill="#191970" stroke="#191970" points="1051.9184,-268.3059 1041.6416,-270.8822 1051.2819,-275.2769 1051.9184,-268.3059"/>
</g>
<!-- Node36&#45;&gt;Node33 -->
<g id="edge73" class="edge">
<title>Node36&#45;&gt;Node33</title>
<path fill="none" stroke="#191970" d="M1409.3744,-398.1639C1313.9831,-388.003 988.18,-353.299 859.701,-339.6136"/>
<polygon fill="#191970" stroke="#191970" points="860.02,-336.1279 849.7055,-338.5489 859.2785,-343.0885 860.02,-336.1279"/>
</g>
<!-- Node36&#45;&gt;Node35 -->
<g id="edge74" class="edge">
<title>Node36&#45;&gt;Node35</title>
<path fill="none" stroke="#191970" d="M1409.4034,-392.5144C1373.1309,-380.9418 1307.8564,-360.1161 1265.7582,-346.6848"/>
<polygon fill="#191970" stroke="#191970" points="1266.6978,-343.3108 1256.1071,-343.6056 1264.5701,-349.9796 1266.6978,-343.3108"/>
</g>
<!-- Node37 -->
<g id="node31" class="node">
<title>Node37</title>
<g id="a_node31"><a xlink:href="_map_point_8h.html" target="_top" xlink:title="MapPoint.h">
<polygon fill="#ffffff" stroke="#000000" points="1128,-453 1128,-472 1194,-472 1194,-453 1128,-453"/>
<text text-anchor="middle" x="1161" y="-460" font-family="Helvetica,sans-Serif" font-size="10.00" fill="#000000">MapPoint.h</text>
</a>
</g>
</g>
<!-- Node36&#45;&gt;Node37 -->
<g id="edge64" class="edge">
<title>Node36&#45;&gt;Node37</title>
<path fill="none" stroke="#191970" d="M1409.4304,-407.9404C1361.7448,-419.2562 1261.7447,-441.6484 1204.145,-453.9354"/>
<polygon fill="#191970" stroke="#191970" points="1203.305,-450.5356 1194.249,-456.0347 1204.7577,-457.3832 1203.305,-450.5356"/>
</g>
<!-- Node37&#45;&gt;Node2 -->
<g id="edge65" class="edge">
<title>Node37&#45;&gt;Node2</title>
<path fill="none" stroke="#191970" d="M1146,-452.8906C1130.6419,-443.0519 1106.5479,-427.6167 1088.6255,-416.1351"/>
<polygon fill="#191970" stroke="#191970" points="1090.203,-412.9891 1079.8947,-410.5419 1086.427,-418.8833 1090.203,-412.9891"/>
</g>
<!-- Node37&#45;&gt;Node10 -->
<g id="edge68" class="edge">
<title>Node37&#45;&gt;Node10</title>
<path fill="none" stroke="#191970" d="M1154.7842,-452.8448C1134.6564,-421.0994 1070.789,-316.5163 1040,-221 1025.4757,-175.9415 1019.5093,-120.292 1017.248,-91.2523"/>
<polygon fill="#191970" stroke="#191970" points="1020.7324,-90.908 1016.532,-81.1815 1013.75,-91.4045 1020.7324,-90.908"/>
</g>
<!-- Node37&#45;&gt;Node25 -->
<g id="edge69" class="edge">
<title>Node37&#45;&gt;Node25</title>
<path fill="none" stroke="#191970" d="M1127.7602,-455.3982C1061.3701,-441.4164 907.5152,-410.0304 777,-391 626.6342,-369.0752 573.3194,-422.1385 437,-355 413.8748,-343.6106 416.9958,-329.2684 397,-313 382.4653,-301.1747 364.6714,-290.0235 350.175,-281.6626"/>
<polygon fill="#191970" stroke="#191970" points="351.6214,-278.4599 341.1925,-276.5922 348.1804,-284.5558 351.6214,-278.4599"/>
</g>
<!-- Node37&#45;&gt;Node27 -->
<g id="edge67" class="edge">
<title>Node37&#45;&gt;Node27</title>
<path fill="none" stroke="#191970" d="M1127.7403,-457.5712C1049.6681,-446.0014 855.456,-417.2206 778.3225,-405.79"/>
<polygon fill="#191970" stroke="#191970" points="778.645,-402.2996 768.2399,-404.2958 777.6188,-409.224 778.645,-402.2996"/>
</g>
<!-- Node37&#45;&gt;Node36 -->
<g id="edge66" class="edge">
<title>Node37&#45;&gt;Node36</title>
<path fill="none" stroke="#191970" d="M1194.1179,-454.0133C1245.9966,-441.8165 1345.6765,-419.5479 1399.5358,-408.1446"/>
<polygon fill="#191970" stroke="#191970" points="1400.2873,-411.5632 1409.3534,-406.0808 1398.8472,-404.713 1400.2873,-411.5632"/>
</g>
<!-- Node38&#45;&gt;Node2 -->
<g id="edge78" class="edge">
<title>Node38&#45;&gt;Node2</title>
<path fill="none" stroke="#191970" d="M1014.5288,-514.3462C999.2893,-506.9011 980.9388,-494.9799 972,-478 965.5819,-465.8084 964.7314,-458.7044 972,-447 982.7135,-429.7485 1002.0271,-418.7704 1020.2884,-411.886"/>
<polygon fill="#191970" stroke="#191970" points="1021.6558,-415.1171 1029.9763,-408.5582 1019.3817,-408.4968 1021.6558,-415.1171"/>
</g>
<!-- Node38&#45;&gt;Node25 -->
<g id="edge79" class="edge">
<title>Node38&#45;&gt;Node25</title>
<path fill="none" stroke="#191970" d="M1001.4725,-515.7078C862.2486,-484.8153 382.0213,-377.0565 357,-355 336.9925,-337.3632 328.6813,-306.5565 325.2819,-286.4712"/>
<polygon fill="#191970" stroke="#191970" points="328.7454,-285.9665 323.8556,-276.5675 321.8169,-286.9644 328.7454,-285.9665"/>
</g>
<!-- Node38&#45;&gt;Node27 -->
<g id="edge76" class="edge">
<title>Node38&#45;&gt;Node27</title>
<path fill="none" stroke="#191970" d="M1016.0088,-514.3484C963.8696,-492.4606 836.5936,-439.0308 777.3243,-414.1498"/>
<polygon fill="#191970" stroke="#191970" points="778.6579,-410.9138 768.0826,-410.2702 775.9484,-417.3681 778.6579,-410.9138"/>
</g>
<!-- Node38&#45;&gt;Node37 -->
<g id="edge77" class="edge">
<title>Node38&#45;&gt;Node37</title>
<path fill="none" stroke="#191970" d="M1058.0625,-514.3906C1078.1172,-504.2811 1109.8934,-488.2628 1132.8384,-476.6962"/>
<polygon fill="#191970" stroke="#191970" points="1134.7173,-479.6687 1142.0714,-472.0419 1131.5663,-473.418 1134.7173,-479.6687"/>
</g>
<!-- Node40&#45;&gt;Node8 -->
<g id="edge85" class="edge">
<title>Node40&#45;&gt;Node8</title>
<path fill="none" stroke="#191970" d="M549.6748,-514.3043C574.691,-489.7947 644.4994,-424.9034 715,-391 774.0639,-362.5965 802.7682,-390.2811 858,-355 878.2396,-342.0713 872.9827,-327.6674 892,-313 910.5068,-298.7264 934.1473,-287.709 954.0084,-280.0398"/>
<polygon fill="#191970" stroke="#191970" points="955.2611,-283.3083 963.4158,-276.5443 952.8229,-276.7466 955.2611,-283.3083"/>
</g>
<!-- Node40&#45;&gt;Node11 -->
<g id="edge81" class="edge">
<title>Node40&#45;&gt;Node11</title>
<path fill="none" stroke="#191970" d="M541.5058,-514.1481C546.3035,-483.709 562.3766,-388.6569 587,-313 614.8544,-227.4157 661.9613,-130.6469 682.2386,-90.5062"/>
<polygon fill="#191970" stroke="#191970" points="685.479,-91.8556 686.8937,-81.3556 679.2399,-88.6816 685.479,-91.8556"/>
</g>
<!-- Node40&#45;&gt;Node25 -->
<g id="edge84" class="edge">
<title>Node40&#45;&gt;Node25</title>
<path fill="none" stroke="#191970" d="M532.9492,-514.1975C521.5203,-498.7341 497.7253,-468.2547 473,-447 415.1236,-397.2475 366.6543,-420.809 328,-355 315.7481,-334.1411 316.7212,-305.4864 319.2579,-286.6184"/>
<polygon fill="#191970" stroke="#191970" points="322.7475,-286.963 320.8894,-276.5324 315.8374,-285.8452 322.7475,-286.963"/>
</g>
<!-- Node40&#45;&gt;Node29 -->
<g id="edge83" class="edge">
<title>Node40&#45;&gt;Node29</title>
<path fill="none" stroke="#191970" d="M520.7813,-514.3906C500.4719,-504.2359 468.2393,-488.1196 445.0832,-476.5416"/>
<polygon fill="#191970" stroke="#191970" points="446.5933,-473.3836 436.0838,-472.0419 443.4628,-479.6446 446.5933,-473.3836"/>
</g>
<!-- Node40&#45;&gt;Node41 -->
<g id="edge82" class="edge">
<title>Node40&#45;&gt;Node41</title>
<path fill="none" stroke="#191970" d="M510.2388,-519.8212C431.1064,-508.7101 215.9709,-478.5028 134.1611,-467.0158"/>
<polygon fill="#191970" stroke="#191970" points="134.584,-463.5409 124.1944,-465.6163 133.6106,-470.4729 134.584,-463.5409"/>
</g>
<!-- Node43 -->
<g id="node36" class="node">
<title>Node43</title>
<g id="a_node36"><a xlink:href="base__vertex_8h.html" target="_top" xlink:title="../core/base_vertex.h">
<polygon fill="#ffffff" stroke="#ff0000" points="2148.5,-129 2148.5,-148 2257.5,-148 2257.5,-129 2148.5,-129"/>
<text text-anchor="middle" x="2203" y="-136" font-family="Helvetica,sans-Serif" font-size="10.00" fill="#000000">../core/base_vertex.h</text>
</a>
</g>
</g>
<!-- Node42&#45;&gt;Node43 -->
<g id="edge97" class="edge">
<title>Node42&#45;&gt;Node43</title>
<path fill="none" stroke="#191970" d="M1897.6158,-324.4526C1993.1432,-308.0309 2171.7166,-271.2909 2209,-221 2222.5123,-202.7736 2217.0609,-175.6214 2210.9063,-157.5029"/>
<polygon fill="#191970" stroke="#191970" points="2214.1345,-156.1434 2207.3394,-148.0146 2207.5822,-158.6066 2214.1345,-156.1434"/>
</g>
<!-- Node66 -->
<g id="node38" class="node">
<title>Node66</title>
<g id="a_node38"><a xlink:href="base__binary__edge_8h.html" target="_top" xlink:title="../core/base_binary\l_edge.h">
<polygon fill="#ffffff" stroke="#ff0000" points="1616,-190.5 1616,-220.5 1716,-220.5 1716,-190.5 1616,-190.5"/>
<text text-anchor="start" x="1624" y="-208.5" font-family="Helvetica,sans-Serif" font-size="10.00" fill="#000000">../core/base_binary</text>
<text text-anchor="middle" x="1666" y="-197.5" font-family="Helvetica,sans-Serif" font-size="10.00" fill="#000000">_edge.h</text>
</a>
</g>
</g>
<!-- Node42&#45;&gt;Node66 -->
<g id="edge99" class="edge">
<title>Node42&#45;&gt;Node66</title>
<path fill="none" stroke="#191970" d="M1809.5259,-313.3543C1777.8931,-289.5834 1726.1965,-250.7354 1694.2429,-226.7234"/>
<polygon fill="#191970" stroke="#191970" points="1696.275,-223.8725 1686.178,-220.663 1692.0697,-229.4685 1696.275,-223.8725"/>
</g>
<!-- Node71 -->
<g id="node39" class="node">
<title>Node71</title>
<g id="a_node39"><a xlink:href="types__six__dof__expmap_8h.html" target="_top" xlink:title="types_six_dof_expmap.h">
<polygon fill="#ffffff" stroke="#000000" points="1878.5,-257.5 1878.5,-276.5 2003.5,-276.5 2003.5,-257.5 1878.5,-257.5"/>
<text text-anchor="middle" x="1941" y="-264.5" font-family="Helvetica,sans-Serif" font-size="10.00" fill="#000000">types_six_dof_expmap.h</text>
</a>
</g>
</g>
<!-- Node42&#45;&gt;Node71 -->
<g id="edge101" class="edge">
<title>Node42&#45;&gt;Node71</title>
<path fill="none" stroke="#191970" d="M1869.052,-313.3511C1884.6209,-303.3212 1903.0017,-291.4797 1917.2877,-282.2762"/>
<polygon fill="#191970" stroke="#191970" points="1919.5027,-285.0127 1926.0137,-276.6546 1915.7116,-279.1281 1919.5027,-285.0127"/>
</g>
<!-- Node80 -->
<g id="node45" class="node">
<title>Node80</title>
<g id="a_node45"><a xlink:href="sim3_8h.html" target="_top" xlink:title="sim3.h">
<polygon fill="#ffffff" stroke="#ff0000" points="1814,-257.5 1814,-276.5 1860,-276.5 1860,-257.5 1814,-257.5"/>
<text text-anchor="middle" x="1837" y="-264.5" font-family="Helvetica,sans-Serif" font-size="10.00" fill="#000000">sim3.h</text>
</a>
</g>
</g>
<!-- Node42&#45;&gt;Node80 -->
<g id="edge114" class="edge">
<title>Node42&#45;&gt;Node80</title>
<path fill="none" stroke="#191970" d="M1837,-313.168C1837,-304.8226 1837,-295.2471 1837,-286.9879"/>
<polygon fill="#191970" stroke="#191970" points="1840.5001,-286.7804 1837,-276.7805 1833.5001,-286.7805 1840.5001,-286.7804"/>
</g>
<!-- Node62 -->
<g id="node37" class="node">
<title>Node62</title>
<polygon fill="#ffffff" stroke="#bfbfbf" points="2192,-62 2192,-81 2296,-81 2296,-62 2192,-62"/>
<text text-anchor="middle" x="2244" y="-69" font-family="Helvetica,sans-Serif" font-size="10.00" fill="#000000">eigen3/Eigen/Dense</text>
</g>
<!-- Node43&#45;&gt;Node62 -->
<g id="edge98" class="edge">
<title>Node43&#45;&gt;Node62</title>
<path fill="none" stroke="#191970" d="M2208.8743,-128.9005C2215.0852,-118.751 2225.0335,-102.4941 2232.7599,-89.8679"/>
<polygon fill="#191970" stroke="#191970" points="2235.9023,-91.4382 2238.1366,-81.0817 2229.9315,-87.7844 2235.9023,-91.4382"/>
</g>
<!-- Node66&#45;&gt;Node4 -->
<g id="edge100" class="edge">
<title>Node66&#45;&gt;Node4</title>
<path fill="none" stroke="#191970" d="M1666.9985,-190.4841C1669.3146,-155.654 1675.0536,-69.3473 1677.6663,-30.0563"/>
<polygon fill="#191970" stroke="#191970" points="1681.1711,-30.1001 1678.3424,-19.8898 1674.1865,-29.6355 1681.1711,-30.1001"/>
</g>
<!-- Node71&#45;&gt;Node43 -->
<g id="edge102" class="edge">
<title>Node71&#45;&gt;Node43</title>
<path fill="none" stroke="#191970" d="M2003.6991,-263.2911C2068.204,-258.1314 2162.724,-246.3842 2188,-221 2204.2384,-204.6921 2206.1416,-177.0651 2205.222,-158.3174"/>
<polygon fill="#191970" stroke="#191970" points="2208.7003,-157.9043 2204.4147,-148.2149 2201.7225,-158.462 2208.7003,-157.9043"/>
</g>
<!-- Node71&#45;&gt;Node66 -->
<g id="edge103" class="edge">
<title>Node71&#45;&gt;Node66</title>
<path fill="none" stroke="#191970" d="M1892.8121,-257.4145C1851.1694,-248.9786 1789.1398,-236.0506 1726.2667,-221.2444"/>
<polygon fill="#191970" stroke="#191970" points="1726.7093,-217.7525 1716.1717,-218.8524 1725.0953,-224.5639 1726.7093,-217.7525"/>
</g>
<!-- Node72 -->
<g id="node40" class="node">
<title>Node72</title>
<g id="a_node40"><a xlink:href="base__unary__edge_8h.html" target="_top" xlink:title="../core/base_unary\l_edge.h">
<polygon fill="#ffffff" stroke="#ff0000" points="1734,-190.5 1734,-220.5 1832,-220.5 1832,-190.5 1734,-190.5"/>
<text text-anchor="start" x="1742" y="-208.5" font-family="Helvetica,sans-Serif" font-size="10.00" fill="#000000">../core/base_unary</text>
<text text-anchor="middle" x="1783" y="-197.5" font-family="Helvetica,sans-Serif" font-size="10.00" fill="#000000">_edge.h</text>
</a>
</g>
</g>
<!-- Node71&#45;&gt;Node72 -->
<g id="edge104" class="edge">
<title>Node71&#45;&gt;Node72</title>
<path fill="none" stroke="#191970" d="M1916.3125,-257.3906C1893.6422,-248.5664 1859.4063,-235.2404 1831.3058,-224.3026"/>
<polygon fill="#191970" stroke="#191970" points="1832.2397,-220.9103 1821.6511,-220.5446 1829.7005,-227.4336 1832.2397,-220.9103"/>
</g>
<!-- Node74 -->
<g id="node41" class="node">
<title>Node74</title>
<g id="a_node41"><a xlink:href="se3__ops_8h.html" target="_top" xlink:title="se3_ops.h">
<polygon fill="#ffffff" stroke="#ff0000" points="1992,-129 1992,-148 2054,-148 2054,-129 1992,-129"/>
<text text-anchor="middle" x="2023" y="-136" font-family="Helvetica,sans-Serif" font-size="10.00" fill="#000000">se3_ops.h</text>
</a>
</g>
</g>
<!-- Node71&#45;&gt;Node74 -->
<g id="edge107" class="edge">
<title>Node71&#45;&gt;Node74</title>
<path fill="none" stroke="#191970" d="M1979.5713,-257.4404C2011.195,-248.7303 2052.2711,-235.1067 2062,-221 2076.5078,-199.9639 2057.2515,-172.6849 2041.019,-155.3809"/>
<polygon fill="#191970" stroke="#191970" points="2043.4268,-152.8382 2033.9057,-148.1906 2038.4505,-157.7612 2043.4268,-152.8382"/>
</g>
<!-- Node77 -->
<g id="node42" class="node">
<title>Node77</title>
<g id="a_node42"><a xlink:href="se3quat_8h.html" target="_top" xlink:title="se3quat.h">
<polygon fill="#ffffff" stroke="#ff0000" points="1993.5,-196 1993.5,-215 2052.5,-215 2052.5,-196 1993.5,-196"/>
<text text-anchor="middle" x="2023" y="-203" font-family="Helvetica,sans-Serif" font-size="10.00" fill="#000000">se3quat.h</text>
</a>
</g>
</g>
<!-- Node71&#45;&gt;Node77 -->
<g id="edge108" class="edge">
<title>Node71&#45;&gt;Node77</title>
<path fill="none" stroke="#191970" d="M1953.8125,-257.3906C1966.6901,-247.7324 1986.7584,-232.6812 2001.972,-221.271"/>
<polygon fill="#191970" stroke="#191970" points="2004.3775,-223.8419 2010.2775,-215.0419 2000.1774,-218.2419 2004.3775,-223.8419"/>
</g>
<!-- Node78 -->
<g id="node43" class="node">
<title>Node78</title>
<g id="a_node43"><a xlink:href="types__sba_8h.html" target="_top" xlink:title="types_sba.h">
<polygon fill="#ffffff" stroke="#ff0000" points="2109,-196 2109,-215 2179,-215 2179,-196 2109,-196"/>
<text text-anchor="middle" x="2144" y="-203" font-family="Helvetica,sans-Serif" font-size="10.00" fill="#000000">types_sba.h</text>
</a>
</g>
</g>
<!-- Node71&#45;&gt;Node78 -->
<g id="edge110" class="edge">
<title>Node71&#45;&gt;Node78</title>
<path fill="none" stroke="#191970" d="M1973.4931,-257.4594C2004.692,-248.2598 2053.1266,-233.8757 2095,-221 2098.1128,-220.0428 2101.3341,-219.0435 2104.5697,-218.0335"/>
<polygon fill="#191970" stroke="#191970" points="2105.7319,-221.3371 2114.2248,-215.003 2103.6356,-214.6584 2105.7319,-221.3371"/>
</g>
<!-- Node79 -->
<g id="node44" class="node">
<title>Node79</title>
<polygon fill="#ffffff" stroke="#bfbfbf" points="1888.5,-196 1888.5,-215 1975.5,-215 1975.5,-196 1888.5,-196"/>
<text text-anchor="middle" x="1932" y="-203" font-family="Helvetica,sans-Serif" font-size="10.00" fill="#000000">Eigen/Geometry</text>
</g>
<!-- Node71&#45;&gt;Node79 -->
<g id="edge113" class="edge">
<title>Node71&#45;&gt;Node79</title>
<path fill="none" stroke="#191970" d="M1939.5938,-257.3906C1938.3462,-248.8657 1936.4838,-236.1392 1934.9156,-225.4235"/>
<polygon fill="#191970" stroke="#191970" points="1938.3373,-224.6326 1933.4261,-215.2449 1931.411,-225.6463 1938.3373,-224.6326"/>
</g>
<!-- Node72&#45;&gt;Node4 -->
<g id="edge105" class="edge">
<title>Node72&#45;&gt;Node4</title>
<path fill="none" stroke="#191970" d="M1781.9235,-190.2624C1780.2584,-173.2061 1776.1125,-145.069 1766,-123 1748.518,-84.8482 1716.0462,-47.6798 1696.0982,-26.9179"/>
<polygon fill="#191970" stroke="#191970" points="1698.3799,-24.2455 1688.8808,-19.5532 1693.3804,-29.1451 1698.3799,-24.2455"/>
</g>
<!-- Node72&#45;&gt;Node14 -->
<g id="edge106" class="edge">
<title>Node72&#45;&gt;Node14</title>
<path fill="none" stroke="#191970" d="M1771.4273,-190.2967C1763.7127,-180.1618 1753.5449,-166.804 1745.4671,-156.1921"/>
<polygon fill="#191970" stroke="#191970" points="1748.1151,-153.8921 1739.2732,-148.055 1742.5451,-158.1319 1748.1151,-153.8921"/>
</g>
<!-- Node77&#45;&gt;Node74 -->
<g id="edge109" class="edge">
<title>Node77&#45;&gt;Node74</title>
<path fill="none" stroke="#191970" d="M2023,-195.9005C2023,-186.149 2023,-170.7597 2023,-158.3695"/>
<polygon fill="#191970" stroke="#191970" points="2026.5001,-158.0816 2023,-148.0817 2019.5001,-158.0817 2026.5001,-158.0816"/>
</g>
<!-- Node78&#45;&gt;Node4 -->
<g id="edge112" class="edge">
<title>Node78&#45;&gt;Node4</title>
<path fill="none" stroke="#191970" d="M2137.1456,-195.7891C2124.4809,-178.5612 2095.7034,-142.6204 2063,-123 1947.9364,-53.9677 1787.9915,-24.7857 1716.3274,-14.6118"/>
<polygon fill="#191970" stroke="#191970" points="1716.3905,-11.0876 1706.0068,-13.1925 1715.4367,-18.0224 1716.3905,-11.0876"/>
</g>
<!-- Node78&#45;&gt;Node43 -->
<g id="edge111" class="edge">
<title>Node78&#45;&gt;Node43</title>
<path fill="none" stroke="#191970" d="M2152.4533,-195.9005C2161.6538,-185.4525 2176.5535,-168.5325 2187.7978,-155.7635"/>
<polygon fill="#191970" stroke="#191970" points="2190.5803,-157.8997 2194.5624,-148.0817 2185.3269,-153.2735 2190.5803,-157.8997"/>
</g>
<!-- Node80&#45;&gt;Node74 -->
<g id="edge115" class="edge">
<title>Node80&#45;&gt;Node74</title>
<path fill="none" stroke="#191970" d="M1839.9293,-257.271C1845.2867,-241.0715 1858.1673,-208.5237 1880,-190 1909.1047,-165.3064 1950.9737,-152.0762 1981.8904,-145.2387"/>
<polygon fill="#191970" stroke="#191970" points="1982.8406,-148.6162 1991.9211,-143.1577 1981.4186,-141.7621 1982.8406,-148.6162"/>
</g>
<!-- Node81&#45;&gt;Node2 -->
<g id="edge119" class="edge">
<title>Node81&#45;&gt;Node2</title>
<path fill="none" stroke="#191970" d="M1256.4161,-452.9376C1249.6873,-450.9419 1242.6161,-448.8756 1236,-447 1193.3317,-434.9041 1144.451,-421.8334 1109.9087,-412.7276"/>
<polygon fill="#191970" stroke="#191970" points="1110.6798,-409.3114 1100.1184,-410.1516 1108.8986,-416.081 1110.6798,-409.3114"/>
</g>
<!-- Node81&#45;&gt;Node6 -->
<g id="edge118" class="edge">
<title>Node81&#45;&gt;Node6</title>
<path fill="none" stroke="#191970" d="M1288.1214,-452.7176C1288.3492,-433.8294 1288.8325,-391.0211 1289,-355 1289.3411,-281.6675 1294.4543,-263.1302 1289,-190 1284.627,-131.3678 1272.348,-62.8795 1265.9652,-29.8344"/>
<polygon fill="#191970" stroke="#191970" points="1269.3364,-28.8372 1263.9761,-19.6984 1262.4674,-30.1852 1269.3364,-28.8372"/>
</g>
<!-- Node81&#45;&gt;Node35 -->
<g id="edge117" class="edge">
<title>Node81&#45;&gt;Node35</title>
<path fill="none" stroke="#191970" d="M1283.3399,-452.8416C1273.1067,-431.6323 1248.5168,-380.6679 1235.1031,-352.8669"/>
<polygon fill="#191970" stroke="#191970" points="1238.212,-351.256 1230.7142,-343.7705 1231.9075,-354.2979 1238.212,-351.256"/>
</g>
<!-- Node82&#45;&gt;Node10 -->
<g id="edge121" class="edge">
<title>Node82&#45;&gt;Node10</title>
<path fill="none" stroke="#191970" d="M1811.7854,-392.0886C1722.9251,-369.0156 1477.4325,-305.7276 1272,-257 1200.6569,-240.0778 1167.6127,-267.5961 1111,-221 1074.2757,-190.7734 1094.9293,-162.2063 1068,-123 1058.9426,-109.8134 1046.2163,-97.1404 1035.6208,-87.6656"/>
<polygon fill="#191970" stroke="#191970" points="1037.8793,-84.9915 1028.0298,-81.088 1033.2953,-90.2817 1037.8793,-84.9915"/>
</g>
<!-- Node82&#45;&gt;Node42 -->
<g id="edge124" class="edge">
<title>Node82&#45;&gt;Node42</title>
<path fill="none" stroke="#191970" d="M1844.7105,-391.4005C1843.7682,-384.3854 1842.4339,-374.4526 1841.1397,-364.8177"/>
<polygon fill="#191970" stroke="#191970" points="1844.5717,-364.0768 1839.7714,-354.6318 1837.634,-365.0087 1844.5717,-364.0768"/>
</g>
<!-- Node82&#45;&gt;Node62 -->
<g id="edge122" class="edge">
<title>Node82&#45;&gt;Node62</title>
<path fill="none" stroke="#191970" d="M1880.1599,-398.0219C1983.5399,-388.078 2286,-351.7438 2286,-267 2286,-267 2286,-267 2286,-205.5 2286,-162.8591 2266.3953,-115.9354 2253.9742,-90.4849"/>
<polygon fill="#191970" stroke="#191970" points="2256.9477,-88.6081 2249.3193,-81.2555 2250.6976,-91.7604 2256.9477,-88.6081"/>
</g>
<!-- Node82&#45;&gt;Node71 -->
<g id="edge123" class="edge">
<title>Node82&#45;&gt;Node71</title>
<path fill="none" stroke="#191970" d="M1863.6457,-391.3801C1877.1317,-383.2436 1895.3315,-370.4552 1907,-355 1922.6744,-334.239 1931.9867,-305.3659 1936.7978,-286.4379"/>
<polygon fill="#191970" stroke="#191970" points="1940.2339,-287.1157 1939.1245,-276.5791 1933.4211,-285.5078 1940.2339,-287.1157"/>
</g>
<!-- Node83&#45;&gt;Node1 -->
<g id="edge129" class="edge">
<title>Node83&#45;&gt;Node1</title>
<path fill="none" stroke="#191970" d="M1318.3469,-744.3688C1229.3275,-734.7637 987.3334,-708.6525 882.512,-697.3423"/>
<polygon fill="#191970" stroke="#191970" points="882.8253,-693.8559 872.5075,-696.2629 882.0743,-700.8155 882.8253,-693.8559"/>
</g>
<!-- Node83&#45;&gt;Node2 -->
<g id="edge128" class="edge">
<title>Node83&#45;&gt;Node2</title>
<path fill="none" stroke="#191970" d="M1349.1965,-738.2066C1343.9113,-718.8521 1333,-674.2612 1333,-636 1333,-636 1333,-636 1333,-580 1333,-474.6376 1199.4503,-546.0366 1119,-478 1099.6155,-461.6066 1083.8578,-436.7223 1074.4721,-419.7085"/>
<polygon fill="#191970" stroke="#191970" points="1077.4832,-417.9159 1069.703,-410.7242 1071.3003,-421.198 1077.4832,-417.9159"/>
</g>
<!-- Node83&#45;&gt;Node27 -->
<g id="edge126" class="edge">
<title>Node83&#45;&gt;Node27</title>
<path fill="none" stroke="#191970" d="M1343.2863,-738.1487C1311.8029,-703.0798 1199.733,-582.7452 1085,-514 1012.49,-470.5537 987.4688,-472.8856 907,-447 851.391,-429.1114 833.6163,-429.6157 777.7433,-412.3995"/>
<polygon fill="#191970" stroke="#191970" points="778.6339,-409.0107 768.0446,-409.3532 776.5362,-415.689 778.6339,-409.0107"/>
</g>
<!-- Node83&#45;&gt;Node36 -->
<g id="edge130" class="edge">
<title>Node83&#45;&gt;Node36</title>
<path fill="none" stroke="#191970" d="M1358.822,-738.1769C1364.8433,-729.1298 1373.496,-715.1557 1379,-702 1418.7786,-606.9206 1425.5517,-580.184 1439,-478 1441.5565,-458.5747 1440.2061,-436.1747 1438.5823,-420.5611"/>
<polygon fill="#191970" stroke="#191970" points="1442.0469,-420.0539 1437.4035,-410.5309 1435.0947,-420.8711 1442.0469,-420.0539"/>
</g>
<!-- Node83&#45;&gt;Node37 -->
<g id="edge127" class="edge">
<title>Node83&#45;&gt;Node37</title>
<path fill="none" stroke="#191970" d="M1354.8035,-738.2066C1360.0887,-718.8521 1371,-674.2612 1371,-636 1371,-636 1371,-636 1371,-580 1371,-548.7875 1370.2522,-534.8221 1347,-514 1296.5692,-468.8397 1263.4077,-498.8414 1199,-478 1196.8519,-477.3049 1194.6535,-476.5444 1192.4499,-475.7454"/>
<polygon fill="#191970" stroke="#191970" points="1193.4878,-472.3948 1182.8977,-472.0785 1190.9791,-478.9299 1193.4878,-472.3948"/>
</g>
<!-- Node83&#45;&gt;Node42 -->
<g id="edge131" class="edge">
<title>Node83&#45;&gt;Node42</title>
<path fill="none" stroke="#191970" d="M1371.9915,-738.4115C1434.2646,-707.782 1627.8803,-606.718 1750,-478 1752.2709,-475.6064 1794.7003,-404.816 1819.4517,-363.3994"/>
<polygon fill="#191970" stroke="#191970" points="1822.4677,-365.1754 1824.5918,-354.7956 1816.4584,-361.5853 1822.4677,-365.1754"/>
</g>
<!-- Node84&#45;&gt;Node2 -->
<g id="edge137" class="edge">
<title>Node84&#45;&gt;Node2</title>
<path fill="none" stroke="#191970" d="M1505.9362,-520.4536C1434.0573,-513.8104 1288.6433,-498.3086 1242,-478 1221.6988,-469.1608 1222.4667,-457.5509 1203,-447 1173.635,-431.0843 1137.7784,-419.3359 1109.9755,-411.6969"/>
<polygon fill="#191970" stroke="#191970" points="1110.688,-408.2647 1100.1237,-409.0684 1108.8834,-415.0281 1110.688,-408.2647"/>
</g>
<!-- Node84&#45;&gt;Node6 -->
<g id="edge133" class="edge">
<title>Node84&#45;&gt;Node6</title>
<path fill="none" stroke="#191970" d="M1552.5294,-514.4777C1563.7207,-494.2774 1588,-445.3433 1588,-401 1588,-401 1588,-401 1588,-267 1588,-202.9985 1612.1309,-181.8611 1587,-123 1570.2156,-83.6879 1556.0279,-75.5202 1518,-56 1479.3447,-36.1577 1354.1381,-20.1527 1294.3528,-13.4289"/>
<polygon fill="#191970" stroke="#191970" points="1294.6488,-9.9403 1284.3245,-12.3193 1293.8789,-16.8979 1294.6488,-9.9403"/>
</g>
<!-- Node84&#45;&gt;Node10 -->
<g id="edge134" class="edge">
<title>Node84&#45;&gt;Node10</title>
<path fill="none" stroke="#191970" d="M1544.1791,-514.4663C1536.5679,-490.3368 1513.3468,-426.264 1472,-391 1415.4274,-342.7503 1391.6794,-343.7896 1324,-313 1220.7744,-266.0393 1168.91,-298.3743 1086,-221 1075.7538,-211.4379 1040.2965,-129.2034 1024.1379,-90.9371"/>
<polygon fill="#191970" stroke="#191970" points="1027.2327,-89.2675 1020.1291,-81.4069 1020.7803,-91.9817 1027.2327,-89.2675"/>
</g>
<!-- Node84&#45;&gt;Node36 -->
<g id="edge138" class="edge">
<title>Node84&#45;&gt;Node36</title>
<path fill="none" stroke="#191970" d="M1540.4691,-514.2873C1530.1323,-499.2056 1509.0117,-469.5464 1488,-447 1478.1134,-436.3912 1466.0342,-425.5939 1456.0071,-417.1285"/>
<polygon fill="#191970" stroke="#191970" points="1458.0919,-414.3105 1448.1601,-410.6213 1453.6236,-419.6989 1458.0919,-414.3105"/>
</g>
<!-- Node84&#45;&gt;Node37 -->
<g id="edge136" class="edge">
<title>Node84&#45;&gt;Node37</title>
<path fill="none" stroke="#191970" d="M1505.8601,-520.8716C1441.6307,-515.4393 1313.9088,-502.4309 1208,-478 1204.3529,-477.1587 1200.5861,-476.1549 1196.8458,-475.0682"/>
<polygon fill="#191970" stroke="#191970" points="1197.6958,-471.6675 1187.108,-472.0531 1195.6253,-478.3543 1197.6958,-471.6675"/>
</g>
<!-- Node85 -->
<g id="node50" class="node">
<title>Node85</title>
<polygon fill="#ffffff" stroke="#bfbfbf" points="1616,-447.5 1616,-477.5 1718,-477.5 1718,-447.5 1616,-447.5"/>
<text text-anchor="start" x="1624" y="-465.5" font-family="Helvetica,sans-Serif" font-size="10.00" fill="#000000">opencv2/features2d</text>
<text text-anchor="middle" x="1667" y="-454.5" font-family="Helvetica,sans-Serif" font-size="10.00" fill="#000000">/features2d.hpp</text>
</g>
<!-- Node84&#45;&gt;Node85 -->
<g id="edge135" class="edge">
<title>Node84&#45;&gt;Node85</title>
<path fill="none" stroke="#191970" d="M1565.75,-514.3906C1582.5169,-505.7976 1607.6134,-492.9356 1628.6252,-482.1671"/>
<polygon fill="#191970" stroke="#191970" points="1630.3417,-485.2203 1637.6447,-477.5446 1627.149,-478.9908 1630.3417,-485.2203"/>
</g>
</g>
</svg>
