<?xml version="1.0" encoding="UTF-8" standalone="no"?>
<!DOCTYPE svg PUBLIC "-//W3C//DTD SVG 1.1//EN"
 "http://www.w3.org/Graphics/SVG/1.1/DTD/svg11.dtd">
<!-- Generated by graphviz version 2.38.0 (20140413.2041)
 -->
<!-- Title: /home/alejandro/Desarrollo eclipse/os1/include/LoopClosing.h Pages: 1 -->
<svg width="412pt" height="173pt"
 viewBox="0.00 0.00 412.00 173.00" xmlns="http://www.w3.org/2000/svg" xmlns:xlink="http://www.w3.org/1999/xlink">
<g id="graph0" class="graph" transform="scale(1 1) rotate(0) translate(4 169)">
<title>/home/alejandro/Desarrollo eclipse/os1/include/LoopClosing.h</title>
<polygon fill="white" stroke="none" points="-4,4 -4,-169 408,-169 408,4 -4,4"/>
<!-- Node47 -->
<g id="node1" class="node"><title>Node47</title>
<polygon fill="#bfbfbf" stroke="black" points="127,-134.5 127,-164.5 295,-164.5 295,-134.5 127,-134.5"/>
<text text-anchor="start" x="135" y="-152.5" font-family="Helvetica,sans-Serif" font-size="10.00">/home/alejandro/Desarrollo</text>
<text text-anchor="middle" x="211" y="-141.5" font-family="Helvetica,sans-Serif" font-size="10.00"> eclipse/os1/include/LoopClosing.h</text>
</g>
<!-- Node48 -->
<g id="node2" class="node"><title>Node48</title>
<g id="a_node2"><a xlink:href="_local_mapping_8h.html" target="_top" xlink:title="/home/alejandro/Desarrollo\l eclipse/os1/include/LocalMapping.h">
<polygon fill="white" stroke="black" points="0,-67.5 0,-97.5 174,-97.5 174,-67.5 0,-67.5"/>
<text text-anchor="start" x="8" y="-85.5" font-family="Helvetica,sans-Serif" font-size="10.00">/home/alejandro/Desarrollo</text>
<text text-anchor="middle" x="87" y="-74.5" font-family="Helvetica,sans-Serif" font-size="10.00"> eclipse/os1/include/LocalMapping.h</text>
</a>
</g>
</g>
<!-- Node47&#45;&gt;Node48 -->
<g id="edge1" class="edge"><title>Node47&#45;&gt;Node48</title>
<path fill="none" stroke="midnightblue" d="M169.255,-129.853C148.739,-119.576 124.962,-107.025 108.179,-97.5765"/>
<polygon fill="midnightblue" stroke="midnightblue" points="167.902,-133.089 178.415,-134.396 171.012,-126.817 167.902,-133.089"/>
</g>
<!-- Node49 -->
<g id="node3" class="node"><title>Node49</title>
<g id="a_node3"><a xlink:href="_tracking_8h.html" target="_top" xlink:title="/home/alejandro/Desarrollo\l eclipse/os1/include/Tracking.h">
<polygon fill="white" stroke="black" points="73,-0.5 73,-30.5 225,-30.5 225,-0.5 73,-0.5"/>
<text text-anchor="start" x="81" y="-18.5" font-family="Helvetica,sans-Serif" font-size="10.00">/home/alejandro/Desarrollo</text>
<text text-anchor="middle" x="149" y="-7.5" font-family="Helvetica,sans-Serif" font-size="10.00"> eclipse/os1/include/Tracking.h</text>
</a>
</g>
</g>
<!-- Node47&#45;&gt;Node49 -->
<g id="edge6" class="edge"><title>Node47&#45;&gt;Node49</title>
<path fill="none" stroke="midnightblue" d="M197.064,-124.701C190.737,-108.086 183.273,-85.6348 174,-67 167.596,-54.1311 158.401,-40.683 152.536,-30.903"/>
<polygon fill="midnightblue" stroke="midnightblue" points="193.901,-126.219 200.862,-134.207 200.401,-123.622 193.901,-126.219"/>
</g>
<!-- Node50 -->
<g id="node4" class="node"><title>Node50</title>
<g id="a_node4"><a xlink:href="_optimizer_8h.html" target="_top" xlink:title="/home/alejandro/Desarrollo\l eclipse/os1/include/Optimizer.h">
<polygon fill="white" stroke="black" points="248,-67.5 248,-97.5 404,-97.5 404,-67.5 248,-67.5"/>
<text text-anchor="start" x="256" y="-85.5" font-family="Helvetica,sans-Serif" font-size="10.00">/home/alejandro/Desarrollo</text>
<text text-anchor="middle" x="326" y="-74.5" font-family="Helvetica,sans-Serif" font-size="10.00"> eclipse/os1/include/Optimizer.h</text>
</a>
</g>
</g>
<!-- Node47&#45;&gt;Node50 -->
<g id="edge7" class="edge"><title>Node47&#45;&gt;Node50</title>
<path fill="none" stroke="midnightblue" d="M244.977,-129.296C262.971,-119.125 284.68,-106.855 301.095,-97.5765"/>
<polygon fill="midnightblue" stroke="midnightblue" points="242.937,-126.428 235.953,-134.396 246.381,-132.522 242.937,-126.428"/>
</g>
<!-- Node48&#45;&gt;Node47 -->
<g id="edge2" class="edge"><title>Node48&#45;&gt;Node47</title>
<path fill="none" stroke="midnightblue" d="M128.685,-102.117C149.195,-112.39 172.976,-124.941 189.772,-134.396"/>
<polygon fill="midnightblue" stroke="midnightblue" points="130.042,-98.8833 119.528,-97.5765 126.933,-105.155 130.042,-98.8833"/>
</g>
<!-- Node48&#45;&gt;Node49 -->
<g id="edge3" class="edge"><title>Node48&#45;&gt;Node49</title>
<path fill="none" stroke="midnightblue" d="M101.348,-59.7362C109.893,-50.119 120.66,-39.0888 129.898,-30.5765"/>
<polygon fill="midnightblue" stroke="midnightblue" points="98.631,-57.5278 94.7747,-67.396 103.943,-62.0865 98.631,-57.5278"/>
</g>
<!-- Node49&#45;&gt;Node47 -->
<g id="edge4" class="edge"><title>Node49&#45;&gt;Node47</title>
<path fill="none" stroke="midnightblue" d="M174.325,-38.8594C180.824,-47.3708 187.197,-57.3483 192,-67 203.198,-89.5024 211.757,-117.57 213.775,-134.207"/>
<polygon fill="midnightblue" stroke="midnightblue" points="176.87,-36.4415 167.838,-30.903 171.444,-40.865 176.87,-36.4415"/>
</g>
<!-- Node49&#45;&gt;Node48 -->
<g id="edge5" class="edge"><title>Node49&#45;&gt;Node48</title>
<path fill="none" stroke="midnightblue" d="M134.68,-38.2328C126.139,-47.8469 115.373,-58.8783 106.131,-67.396"/>
<polygon fill="midnightblue" stroke="midnightblue" points="137.393,-40.4452 141.248,-30.5765 132.08,-35.8873 137.393,-40.4452"/>
</g>
</g>
</svg>
