<?xml version="1.0" encoding="UTF-8" standalone="no"?>
<!DOCTYPE svg PUBLIC "-//W3C//DTD SVG 1.1//EN"
 "http://www.w3.org/Graphics/SVG/1.1/DTD/svg11.dtd">
<!-- Generated by graphviz version 2.38.0 (20140413.2041)
 -->
<!-- Title: /home/alejandro/Desarrollo eclipse/os1/include/LoopClosing.h Pages: 1 -->
<svg width="1448pt" height="240pt"
 viewBox="0.00 0.00 1448.00 240.00" xmlns="http://www.w3.org/2000/svg" xmlns:xlink="http://www.w3.org/1999/xlink">
<g id="graph0" class="graph" transform="scale(1 1) rotate(0) translate(4 236)">
<title>/home/alejandro/Desarrollo eclipse/os1/include/LoopClosing.h</title>
<polygon fill="white" stroke="none" points="-4,4 -4,-236 1444,-236 1444,4 -4,4"/>
<!-- Node82 -->
<g id="node1" class="node"><title>Node82</title>
<polygon fill="#bfbfbf" stroke="black" points="645,-201.5 645,-231.5 813,-231.5 813,-201.5 645,-201.5"/>
<text text-anchor="start" x="653" y="-219.5" font-family="Helvetica,sans-Serif" font-size="10.00">/home/alejandro/Desarrollo</text>
<text text-anchor="middle" x="729" y="-208.5" font-family="Helvetica,sans-Serif" font-size="10.00"> eclipse/os1/include/LoopClosing.h</text>
</g>
<!-- Node83 -->
<g id="node2" class="node"><title>Node83</title>
<g id="a_node2"><a xlink:href="_local_mapping_8h.html" target="_top" xlink:title="/home/alejandro/Desarrollo\l eclipse/os1/include/LocalMapping.h">
<polygon fill="white" stroke="black" points="585,-134.5 585,-164.5 759,-164.5 759,-134.5 585,-134.5"/>
<text text-anchor="start" x="593" y="-152.5" font-family="Helvetica,sans-Serif" font-size="10.00">/home/alejandro/Desarrollo</text>
<text text-anchor="middle" x="672" y="-141.5" font-family="Helvetica,sans-Serif" font-size="10.00"> eclipse/os1/include/LocalMapping.h</text>
</a>
</g>
</g>
<!-- Node82&#45;&gt;Node83 -->
<g id="edge1" class="edge"><title>Node82&#45;&gt;Node83</title>
<path fill="none" stroke="midnightblue" d="M703.775,-194.024C694.631,-184.34 685.078,-173.174 678.669,-164.577"/>
<polygon fill="midnightblue" stroke="midnightblue" points="701.469,-196.673 710.953,-201.396 706.485,-191.79 701.469,-196.673"/>
</g>
<!-- Node84 -->
<g id="node3" class="node"><title>Node84</title>
<g id="a_node3"><a xlink:href="_tracking_8h.html" target="_top" xlink:title="/home/alejandro/Desarrollo\l eclipse/os1/include/Tracking.h">
<polygon fill="white" stroke="black" points="479,-67.5 479,-97.5 631,-97.5 631,-67.5 479,-67.5"/>
<text text-anchor="start" x="487" y="-85.5" font-family="Helvetica,sans-Serif" font-size="10.00">/home/alejandro/Desarrollo</text>
<text text-anchor="middle" x="555" y="-74.5" font-family="Helvetica,sans-Serif" font-size="10.00"> eclipse/os1/include/Tracking.h</text>
</a>
</g>
</g>
<!-- Node82&#45;&gt;Node84 -->
<g id="edge14" class="edge"><title>Node82&#45;&gt;Node84</title>
<path fill="none" stroke="midnightblue" d="M634.704,-203.184C609.659,-195.778 584.714,-183.935 567,-165 549.631,-146.434 546.172,-115.455 548.563,-97.5142"/>
<polygon fill="midnightblue" stroke="midnightblue" points="634.098,-206.646 644.666,-205.904 635.942,-199.893 634.098,-206.646"/>
</g>
<!-- Node88 -->
<g id="node7" class="node"><title>Node88</title>
<g id="a_node7"><a xlink:href="_system_8cc.html" target="_top" xlink:title="/home/alejandro/Desarrollo\l eclipse/os1/src/System.cc">
<polygon fill="white" stroke="black" points="648,-0.5 648,-30.5 784,-30.5 784,-0.5 648,-0.5"/>
<text text-anchor="start" x="656" y="-18.5" font-family="Helvetica,sans-Serif" font-size="10.00">/home/alejandro/Desarrollo</text>
<text text-anchor="middle" x="716" y="-7.5" font-family="Helvetica,sans-Serif" font-size="10.00"> eclipse/os1/src/System.cc</text>
</a>
</g>
</g>
<!-- Node82&#45;&gt;Node88 -->
<g id="edge23" class="edge"><title>Node82&#45;&gt;Node88</title>
<path fill="none" stroke="midnightblue" d="M751.018,-193.527C757.824,-185.283 764.459,-175.379 768,-165 772.449,-151.96 772.995,-146.841 768,-134 760.131,-113.771 745.129,-117.197 735,-98 723.474,-76.1552 718.878,-47.3833 717.09,-30.5174"/>
<polygon fill="midnightblue" stroke="midnightblue" points="748.26,-191.362 744.263,-201.174 753.506,-195.996 748.26,-191.362"/>
</g>
<!-- Node91 -->
<g id="node10" class="node"><title>Node91</title>
<g id="a_node10"><a xlink:href="_local_mapping_8cc.html" target="_top" xlink:title="/home/alejandro/Desarrollo\l eclipse/os1/src/LocalMapping.cc">
<polygon fill="white" stroke="black" points="744,-67.5 744,-97.5 906,-97.5 906,-67.5 744,-67.5"/>
<text text-anchor="start" x="752" y="-85.5" font-family="Helvetica,sans-Serif" font-size="10.00">/home/alejandro/Desarrollo</text>
<text text-anchor="middle" x="825" y="-74.5" font-family="Helvetica,sans-Serif" font-size="10.00"> eclipse/os1/src/LocalMapping.cc</text>
</a>
</g>
</g>
<!-- Node82&#45;&gt;Node91 -->
<g id="edge21" class="edge"><title>Node82&#45;&gt;Node91</title>
<path fill="none" stroke="midnightblue" d="M766.423,-196.095C778.966,-187.977 792.028,-177.495 801,-165 815.712,-144.512 821.478,-115.031 823.685,-97.7123"/>
<polygon fill="midnightblue" stroke="midnightblue" points="764.575,-193.122 757.879,-201.333 768.234,-199.09 764.575,-193.122"/>
</g>
<!-- Node92 -->
<g id="node11" class="node"><title>Node92</title>
<g id="a_node11"><a xlink:href="_optimizer_8h.html" target="_top" xlink:title="/home/alejandro/Desarrollo\l eclipse/os1/include/Optimizer.h">
<polygon fill="white" stroke="black" points="905,-134.5 905,-164.5 1061,-164.5 1061,-134.5 905,-134.5"/>
<text text-anchor="start" x="913" y="-152.5" font-family="Helvetica,sans-Serif" font-size="10.00">/home/alejandro/Desarrollo</text>
<text text-anchor="middle" x="983" y="-141.5" font-family="Helvetica,sans-Serif" font-size="10.00"> eclipse/os1/include/Optimizer.h</text>
</a>
</g>
</g>
<!-- Node82&#45;&gt;Node92 -->
<g id="edge15" class="edge"><title>Node82&#45;&gt;Node92</title>
<path fill="none" stroke="midnightblue" d="M793.538,-198.984C835.026,-188.367 888.355,-174.72 927.859,-164.611"/>
<polygon fill="midnightblue" stroke="midnightblue" points="792.622,-195.606 783.802,-201.476 794.357,-202.387 792.622,-195.606"/>
</g>
<!-- Node94 -->
<g id="node13" class="node"><title>Node94</title>
<g id="a_node13"><a xlink:href="_loop_closing_8cc.html" target="_top" xlink:title="/home/alejandro/Desarrollo\l eclipse/os1/src/LoopClosing.cc">
<polygon fill="white" stroke="black" points="1284,-67.5 1284,-97.5 1440,-97.5 1440,-67.5 1284,-67.5"/>
<text text-anchor="start" x="1292" y="-85.5" font-family="Helvetica,sans-Serif" font-size="10.00">/home/alejandro/Desarrollo</text>
<text text-anchor="middle" x="1362" y="-74.5" font-family="Helvetica,sans-Serif" font-size="10.00"> eclipse/os1/src/LoopClosing.cc</text>
</a>
</g>
</g>
<!-- Node82&#45;&gt;Node94 -->
<g id="edge22" class="edge"><title>Node82&#45;&gt;Node94</title>
<path fill="none" stroke="midnightblue" d="M823.208,-204.768C891.994,-196.152 987.286,-182.596 1070,-165 1159.32,-146 1261.69,-115.319 1318.4,-97.5173"/>
<polygon fill="midnightblue" stroke="midnightblue" points="822.748,-201.298 813.256,-206.003 823.611,-208.245 822.748,-201.298"/>
</g>
<!-- Node83&#45;&gt;Node82 -->
<g id="edge2" class="edge"><title>Node83&#45;&gt;Node82</title>
<path fill="none" stroke="midnightblue" d="M697.196,-171.945C706.339,-181.626 715.895,-192.793 722.31,-201.396"/>
<polygon fill="midnightblue" stroke="midnightblue" points="699.503,-169.298 690.019,-164.577 694.489,-174.182 699.503,-169.298"/>
</g>
<!-- Node83&#45;&gt;Node84 -->
<g id="edge3" class="edge"><title>Node83&#45;&gt;Node84</title>
<path fill="none" stroke="midnightblue" d="M632.001,-129.714C612.652,-119.463 590.357,-106.983 574.663,-97.5765"/>
<polygon fill="midnightblue" stroke="midnightblue" points="630.452,-132.854 640.934,-134.396 633.702,-126.654 630.452,-132.854"/>
</g>
<!-- Node83&#45;&gt;Node88 -->
<g id="edge13" class="edge"><title>Node83&#45;&gt;Node88</title>
<path fill="none" stroke="midnightblue" d="M679.915,-124.754C689.07,-97.291 703.838,-52.9873 711.325,-30.5247"/>
<polygon fill="midnightblue" stroke="midnightblue" points="676.551,-123.78 676.709,-134.374 683.192,-125.994 676.551,-123.78"/>
</g>
<!-- Node83&#45;&gt;Node91 -->
<g id="edge12" class="edge"><title>Node83&#45;&gt;Node91</title>
<path fill="none" stroke="midnightblue" d="M714.589,-130.407C739.015,-120.029 769.225,-107.195 791.866,-97.5765"/>
<polygon fill="midnightblue" stroke="midnightblue" points="713.034,-127.264 705.199,-134.396 715.771,-133.707 713.034,-127.264"/>
</g>
<!-- Node84&#45;&gt;Node82 -->
<g id="edge4" class="edge"><title>Node84&#45;&gt;Node82</title>
<path fill="none" stroke="midnightblue" d="M562.636,-107.538C565.726,-125.512 570.549,-149.552 585,-165 601.339,-182.465 623.83,-193.897 646.207,-201.378"/>
<polygon fill="midnightblue" stroke="midnightblue" points="566.057,-106.776 560.911,-97.5142 559.158,-107.963 566.057,-106.776"/>
</g>
<!-- Node84&#45;&gt;Node83 -->
<g id="edge5" class="edge"><title>Node84&#45;&gt;Node83</title>
<path fill="none" stroke="midnightblue" d="M594.942,-102.256C614.285,-112.503 636.584,-124.984 652.291,-134.396"/>
<polygon fill="midnightblue" stroke="midnightblue" points="596.495,-99.1178 586.013,-97.5765 593.246,-105.318 596.495,-99.1178"/>
</g>
<!-- Node85 -->
<g id="node4" class="node"><title>Node85</title>
<g id="a_node4"><a xlink:href="_frame_drawer_8cc.html" target="_top" xlink:title="/home/alejandro/Desarrollo\l eclipse/os1/src/FrameDrawer.cc">
<polygon fill="white" stroke="black" points="317.5,-0.5 317.5,-30.5 478.5,-30.5 478.5,-0.5 317.5,-0.5"/>
<text text-anchor="start" x="325.5" y="-18.5" font-family="Helvetica,sans-Serif" font-size="10.00">/home/alejandro/Desarrollo</text>
<text text-anchor="middle" x="398" y="-7.5" font-family="Helvetica,sans-Serif" font-size="10.00"> eclipse/os1/src/FrameDrawer.cc</text>
</a>
</g>
</g>
<!-- Node84&#45;&gt;Node85 -->
<g id="edge6" class="edge"><title>Node84&#45;&gt;Node85</title>
<path fill="none" stroke="midnightblue" d="M511.63,-63.5442C486.507,-53.143 455.336,-40.238 432,-30.5765"/>
<polygon fill="midnightblue" stroke="midnightblue" points="510.355,-66.8045 520.933,-67.396 513.033,-60.3368 510.355,-66.8045"/>
</g>
<!-- Node86 -->
<g id="node5" class="node"><title>Node86</title>
<g id="a_node5"><a xlink:href="main_8cc.html" target="_top" xlink:title="/home/alejandro/Desarrollo\l eclipse/os1/src/main.cc">
<polygon fill="white" stroke="black" points="496.5,-0.5 496.5,-30.5 629.5,-30.5 629.5,-0.5 496.5,-0.5"/>
<text text-anchor="start" x="504.5" y="-18.5" font-family="Helvetica,sans-Serif" font-size="10.00">/home/alejandro/Desarrollo</text>
<text text-anchor="middle" x="563" y="-7.5" font-family="Helvetica,sans-Serif" font-size="10.00"> eclipse/os1/src/main.cc</text>
</a>
</g>
</g>
<!-- Node84&#45;&gt;Node86 -->
<g id="edge7" class="edge"><title>Node84&#45;&gt;Node86</title>
<path fill="none" stroke="midnightblue" d="M557.966,-57.4029C559.078,-48.3703 560.304,-38.4078 561.268,-30.5765"/>
<polygon fill="midnightblue" stroke="midnightblue" points="554.484,-57.0433 556.736,-67.396 561.431,-57.8984 554.484,-57.0433"/>
</g>
<!-- Node87 -->
<g id="node6" class="node"><title>Node87</title>
<g id="a_node6"><a xlink:href="_serializer_8cpp.html" target="_top" xlink:title="/home/alejandro/Desarrollo\l eclipse/os1/src/Serializer.cpp">
<polygon fill="white" stroke="black" points="0,-0.5 0,-30.5 148,-30.5 148,-0.5 0,-0.5"/>
<text text-anchor="start" x="8" y="-18.5" font-family="Helvetica,sans-Serif" font-size="10.00">/home/alejandro/Desarrollo</text>
<text text-anchor="middle" x="74" y="-7.5" font-family="Helvetica,sans-Serif" font-size="10.00"> eclipse/os1/src/Serializer.cpp</text>
</a>
</g>
</g>
<!-- Node84&#45;&gt;Node87 -->
<g id="edge8" class="edge"><title>Node84&#45;&gt;Node87</title>
<path fill="none" stroke="midnightblue" d="M468.81,-71.7419C388.087,-62.3239 264.164,-47.1504 157,-31 154.107,-30.564 151.16,-30.1077 148.184,-29.6368"/>
<polygon fill="midnightblue" stroke="midnightblue" points="468.588,-75.2396 478.925,-72.9184 469.397,-68.2865 468.588,-75.2396"/>
</g>
<!-- Node84&#45;&gt;Node88 -->
<g id="edge9" class="edge"><title>Node84&#45;&gt;Node88</title>
<path fill="none" stroke="midnightblue" d="M599.475,-63.5442C625.238,-53.143 657.203,-40.238 681.134,-30.5765"/>
<polygon fill="midnightblue" stroke="midnightblue" points="597.897,-60.4067 589.935,-67.396 600.518,-66.8977 597.897,-60.4067"/>
</g>
<!-- Node89 -->
<g id="node8" class="node"><title>Node89</title>
<g id="a_node8"><a xlink:href="_tracking_8cc.html" target="_top" xlink:title="/home/alejandro/Desarrollo\l eclipse/os1/src/Tracking.cc">
<polygon fill="white" stroke="black" points="833,-0.5 833,-30.5 973,-30.5 973,-0.5 833,-0.5"/>
<text text-anchor="start" x="841" y="-18.5" font-family="Helvetica,sans-Serif" font-size="10.00">/home/alejandro/Desarrollo</text>
<text text-anchor="middle" x="903" y="-7.5" font-family="Helvetica,sans-Serif" font-size="10.00"> eclipse/os1/src/Tracking.cc</text>
</a>
</g>
</g>
<!-- Node84&#45;&gt;Node89 -->
<g id="edge10" class="edge"><title>Node84&#45;&gt;Node89</title>
<path fill="none" stroke="midnightblue" d="M640.153,-65.5949C699.311,-54.5454 777.194,-39.9982 832.794,-29.6132"/>
<polygon fill="midnightblue" stroke="midnightblue" points="639.27,-62.1994 630.082,-67.476 640.555,-69.0804 639.27,-62.1994"/>
</g>
<!-- Node90 -->
<g id="node9" class="node"><title>Node90</title>
<g id="a_node9"><a xlink:href="_viewer_8cc.html" target="_top" xlink:title="/home/alejandro/Desarrollo\l eclipse/os1/src/Viewer.cc">
<polygon fill="white" stroke="black" points="166.5,-0.5 166.5,-30.5 299.5,-30.5 299.5,-0.5 166.5,-0.5"/>
<text text-anchor="start" x="174.5" y="-18.5" font-family="Helvetica,sans-Serif" font-size="10.00">/home/alejandro/Desarrollo</text>
<text text-anchor="middle" x="233" y="-7.5" font-family="Helvetica,sans-Serif" font-size="10.00"> eclipse/os1/src/Viewer.cc</text>
</a>
</g>
</g>
<!-- Node84&#45;&gt;Node90 -->
<g id="edge11" class="edge"><title>Node84&#45;&gt;Node90</title>
<path fill="none" stroke="midnightblue" d="M475.631,-65.4783C421.543,-54.5599 350.742,-40.2678 299.595,-29.9431"/>
<polygon fill="midnightblue" stroke="midnightblue" points="475.032,-68.928 485.527,-67.476 476.418,-62.0664 475.032,-68.928"/>
</g>
<!-- Node92&#45;&gt;Node89 -->
<g id="edge20" class="edge"><title>Node92&#45;&gt;Node89</title>
<path fill="none" stroke="midnightblue" d="M969.046,-125.476C952.438,-98.0734 925.233,-53.1852 911.5,-30.5247"/>
<polygon fill="midnightblue" stroke="midnightblue" points="966.262,-127.636 974.439,-134.374 972.249,-124.008 966.262,-127.636"/>
</g>
<!-- Node92&#45;&gt;Node91 -->
<g id="edge17" class="edge"><title>Node92&#45;&gt;Node91</title>
<path fill="none" stroke="midnightblue" d="M939.354,-130.544C914.071,-120.143 882.702,-107.238 859.217,-97.5765"/>
<polygon fill="midnightblue" stroke="midnightblue" points="938.137,-133.828 948.716,-134.396 940.8,-127.355 938.137,-133.828"/>
</g>
<!-- Node93 -->
<g id="node12" class="node"><title>Node93</title>
<g id="a_node12"><a xlink:href="_initializer_8cc.html" target="_top" xlink:title="/home/alejandro/Desarrollo\l eclipse/os1/src/Initializer.cc">
<polygon fill="white" stroke="black" points="962.5,-67.5 962.5,-97.5 1103.5,-97.5 1103.5,-67.5 962.5,-67.5"/>
<text text-anchor="start" x="970.5" y="-85.5" font-family="Helvetica,sans-Serif" font-size="10.00">/home/alejandro/Desarrollo</text>
<text text-anchor="middle" x="1033" y="-74.5" font-family="Helvetica,sans-Serif" font-size="10.00"> eclipse/os1/src/Initializer.cc</text>
</a>
</g>
</g>
<!-- Node92&#45;&gt;Node93 -->
<g id="edge16" class="edge"><title>Node92&#45;&gt;Node93</title>
<path fill="none" stroke="midnightblue" d="M999.964,-126.447C1007.31,-116.899 1015.69,-106.004 1022.17,-97.5765"/>
<polygon fill="midnightblue" stroke="midnightblue" points="997.172,-124.336 993.849,-134.396 1002.72,-128.604 997.172,-124.336"/>
</g>
<!-- Node92&#45;&gt;Node94 -->
<g id="edge18" class="edge"><title>Node92&#45;&gt;Node94</title>
<path fill="none" stroke="midnightblue" d="M1071.19,-133.375C1135.49,-122.347 1221.84,-107.538 1283.71,-96.9276"/>
<polygon fill="midnightblue" stroke="midnightblue" points="1070.33,-129.971 1061.07,-135.111 1071.52,-136.87 1070.33,-129.971"/>
</g>
<!-- Node95 -->
<g id="node14" class="node"><title>Node95</title>
<g id="a_node14"><a xlink:href="_optimizer_8cc.html" target="_top" xlink:title="/home/alejandro/Desarrollo\l eclipse/os1/src/Optimizer.cc">
<polygon fill="white" stroke="black" points="1122,-67.5 1122,-97.5 1266,-97.5 1266,-67.5 1122,-67.5"/>
<text text-anchor="start" x="1130" y="-85.5" font-family="Helvetica,sans-Serif" font-size="10.00">/home/alejandro/Desarrollo</text>
<text text-anchor="middle" x="1194" y="-74.5" font-family="Helvetica,sans-Serif" font-size="10.00"> eclipse/os1/src/Optimizer.cc</text>
</a>
</g>
</g>
<!-- Node92&#45;&gt;Node95 -->
<g id="edge19" class="edge"><title>Node92&#45;&gt;Node95</title>
<path fill="none" stroke="midnightblue" d="M1038.37,-131.444C1072.57,-120.908 1115.93,-107.549 1148.19,-97.6109"/>
<polygon fill="midnightblue" stroke="midnightblue" points="1037.05,-128.187 1028.52,-134.476 1039.11,-134.877 1037.05,-128.187"/>
</g>
</g>
</svg>
