<?xml version="1.0" encoding="UTF-8" standalone="no"?>
<!DOCTYPE svg PUBLIC "-//W3C//DTD SVG 1.1//EN"
 "http://www.w3.org/Graphics/SVG/1.1/DTD/svg11.dtd">
<!-- Generated by graphviz version 2.38.0 (20140413.2041)
 -->
<!-- Title: /home/alejandro/Desarrollo eclipse/os1/include/LoopClosing.h Pages: 1 -->
<svg width="1117pt" height="441pt"
 viewBox="0.00 0.00 1117.24 441.00" xmlns="http://www.w3.org/2000/svg" xmlns:xlink="http://www.w3.org/1999/xlink">
<g id="graph0" class="graph" transform="scale(1 1) rotate(0) translate(4 437)">
<title>/home/alejandro/Desarrollo eclipse/os1/include/LoopClosing.h</title>
<polygon fill="white" stroke="none" points="-4,4 -4,-437 1113.24,-437 1113.24,4 -4,4"/>
<!-- Node79 -->
<g id="node1" class="node"><title>Node79</title>
<polygon fill="#bfbfbf" stroke="black" points="174.244,-402.5 174.244,-432.5 342.244,-432.5 342.244,-402.5 174.244,-402.5"/>
<text text-anchor="start" x="182.244" y="-420.5" font-family="Helvetica,sans-Serif" font-size="10.00">/home/alejandro/Desarrollo</text>
<text text-anchor="middle" x="258.244" y="-409.5" font-family="Helvetica,sans-Serif" font-size="10.00"> eclipse/os1/include/LoopClosing.h</text>
</g>
<!-- Node80 -->
<g id="node2" class="node"><title>Node80</title>
<g id="a_node2"><a xlink:href="_local_mapping_8h.html" target="_top" xlink:title="/home/alejandro/Desarrollo\l eclipse/os1/include/LocalMapping.h">
<polygon fill="white" stroke="black" points="114.244,-335.5 114.244,-365.5 288.244,-365.5 288.244,-335.5 114.244,-335.5"/>
<text text-anchor="start" x="122.244" y="-353.5" font-family="Helvetica,sans-Serif" font-size="10.00">/home/alejandro/Desarrollo</text>
<text text-anchor="middle" x="201.244" y="-342.5" font-family="Helvetica,sans-Serif" font-size="10.00"> eclipse/os1/include/LocalMapping.h</text>
</a>
</g>
</g>
<!-- Node79&#45;&gt;Node80 -->
<g id="edge1" class="edge"><title>Node79&#45;&gt;Node80</title>
<path fill="none" stroke="midnightblue" d="M233.019,-395.024C223.875,-385.34 214.322,-374.174 207.913,-365.577"/>
<polygon fill="midnightblue" stroke="midnightblue" points="230.713,-397.673 240.197,-402.396 235.729,-392.79 230.713,-397.673"/>
</g>
<!-- Node81 -->
<g id="node3" class="node"><title>Node81</title>
<g id="a_node3"><a xlink:href="_system_8h.html" target="_top" xlink:title="/home/alejandro/Desarrollo\l eclipse/os1/include/System.h">
<polygon fill="white" stroke="black" points="184.244,-268.5 184.244,-298.5 332.244,-298.5 332.244,-268.5 184.244,-268.5"/>
<text text-anchor="start" x="192.244" y="-286.5" font-family="Helvetica,sans-Serif" font-size="10.00">/home/alejandro/Desarrollo</text>
<text text-anchor="middle" x="258.244" y="-275.5" font-family="Helvetica,sans-Serif" font-size="10.00"> eclipse/os1/include/System.h</text>
</a>
</g>
</g>
<!-- Node79&#45;&gt;Node81 -->
<g id="edge25" class="edge"><title>Node79&#45;&gt;Node81</title>
<path fill="none" stroke="midnightblue" d="M280.262,-394.527C287.068,-386.283 293.703,-376.379 297.244,-366 301.693,-352.96 301.693,-348.04 297.244,-335 292.522,-321.161 282.301,-308.167 273.507,-298.826"/>
<polygon fill="midnightblue" stroke="midnightblue" points="277.504,-392.362 273.507,-402.174 282.751,-396.996 277.504,-392.362"/>
</g>
<!-- Node83 -->
<g id="node5" class="node"><title>Node83</title>
<g id="a_node5"><a xlink:href="_tracking_8h.html" target="_top" xlink:title="/home/alejandro/Desarrollo\l eclipse/os1/include/Tracking.h">
<polygon fill="white" stroke="black" points="43.244,-134.5 43.244,-164.5 195.244,-164.5 195.244,-134.5 43.244,-134.5"/>
<text text-anchor="start" x="51.244" y="-152.5" font-family="Helvetica,sans-Serif" font-size="10.00">/home/alejandro/Desarrollo</text>
<text text-anchor="middle" x="119.244" y="-141.5" font-family="Helvetica,sans-Serif" font-size="10.00"> eclipse/os1/include/Tracking.h</text>
</a>
</g>
</g>
<!-- Node79&#45;&gt;Node83 -->
<g id="edge26" class="edge"><title>Node79&#45;&gt;Node83</title>
<path fill="none" stroke="midnightblue" d="M171.404,-399.598C145.726,-391.889 118.571,-381.025 96.244,-366 36.3102,-325.668 21.4649,-302.158 4.24404,-232 0.959674,-218.619 -3.11065,-212.651 4.24404,-201 15.1799,-183.677 33.8658,-172.172 53.076,-164.587"/>
<polygon fill="midnightblue" stroke="midnightblue" points="170.582,-403.003 181.16,-402.4 172.514,-396.275 170.582,-403.003"/>
</g>
<!-- Node90 -->
<g id="node12" class="node"><title>Node90</title>
<g id="a_node12"><a xlink:href="_local_mapping_8cc.html" target="_top" xlink:title="/home/alejandro/Desarrollo\l eclipse/os1/src/LocalMapping.cc">
<polygon fill="white" stroke="black" points="350.244,-268.5 350.244,-298.5 512.244,-298.5 512.244,-268.5 350.244,-268.5"/>
<text text-anchor="start" x="358.244" y="-286.5" font-family="Helvetica,sans-Serif" font-size="10.00">/home/alejandro/Desarrollo</text>
<text text-anchor="middle" x="431.244" y="-275.5" font-family="Helvetica,sans-Serif" font-size="10.00"> eclipse/os1/src/LocalMapping.cc</text>
</a>
</g>
</g>
<!-- Node79&#45;&gt;Node90 -->
<g id="edge33" class="edge"><title>Node79&#45;&gt;Node90</title>
<path fill="none" stroke="midnightblue" d="M284.742,-396.282C320.187,-369.237 382.127,-321.977 412.863,-298.525"/>
<polygon fill="midnightblue" stroke="midnightblue" points="282.585,-393.525 276.758,-402.374 286.831,-399.09 282.585,-393.525"/>
</g>
<!-- Node91 -->
<g id="node13" class="node"><title>Node91</title>
<g id="a_node13"><a xlink:href="_optimizer_8h.html" target="_top" xlink:title="/home/alejandro/Desarrollo\l eclipse/os1/include/Optimizer.h">
<polygon fill="white" stroke="black" points="574.244,-335.5 574.244,-365.5 730.244,-365.5 730.244,-335.5 574.244,-335.5"/>
<text text-anchor="start" x="582.244" y="-353.5" font-family="Helvetica,sans-Serif" font-size="10.00">/home/alejandro/Desarrollo</text>
<text text-anchor="middle" x="652.244" y="-342.5" font-family="Helvetica,sans-Serif" font-size="10.00"> eclipse/os1/include/Optimizer.h</text>
</a>
</g>
</g>
<!-- Node79&#45;&gt;Node91 -->
<g id="edge27" class="edge"><title>Node79&#45;&gt;Node91</title>
<path fill="none" stroke="midnightblue" d="M352.522,-400.947C420.199,-389.782 510.332,-374.912 574.027,-364.404"/>
<polygon fill="midnightblue" stroke="midnightblue" points="351.581,-397.554 342.284,-402.636 352.72,-404.461 351.581,-397.554"/>
</g>
<!-- Node93 -->
<g id="node15" class="node"><title>Node93</title>
<g id="a_node15"><a xlink:href="_loop_closing_8cc.html" target="_top" xlink:title="/home/alejandro/Desarrollo\l eclipse/os1/src/LoopClosing.cc">
<polygon fill="white" stroke="black" points="953.244,-268.5 953.244,-298.5 1109.24,-298.5 1109.24,-268.5 953.244,-268.5"/>
<text text-anchor="start" x="961.244" y="-286.5" font-family="Helvetica,sans-Serif" font-size="10.00">/home/alejandro/Desarrollo</text>
<text text-anchor="middle" x="1031.24" y="-275.5" font-family="Helvetica,sans-Serif" font-size="10.00"> eclipse/os1/src/LoopClosing.cc</text>
</a>
</g>
</g>
<!-- Node79&#45;&gt;Node93 -->
<g id="edge34" class="edge"><title>Node79&#45;&gt;Node93</title>
<path fill="none" stroke="midnightblue" d="M352.408,-411.293C449.874,-404.813 606.21,-391.364 739.244,-366 829.72,-348.75 932.95,-316.999 989.218,-298.634"/>
<polygon fill="midnightblue" stroke="midnightblue" points="352.035,-407.81 342.285,-411.955 352.492,-414.795 352.035,-407.81"/>
</g>
<!-- Node80&#45;&gt;Node79 -->
<g id="edge22" class="edge"><title>Node80&#45;&gt;Node79</title>
<path fill="none" stroke="midnightblue" d="M226.44,-372.945C235.583,-382.626 245.139,-393.793 251.554,-402.396"/>
<polygon fill="midnightblue" stroke="midnightblue" points="228.748,-370.298 219.263,-365.577 223.733,-375.182 228.748,-370.298"/>
</g>
<!-- Node80&#45;&gt;Node81 -->
<g id="edge2" class="edge"><title>Node80&#45;&gt;Node81</title>
<path fill="none" stroke="midnightblue" d="M220.329,-327.736C228.763,-318.119 238.435,-307.089 245.9,-298.577"/>
<polygon fill="midnightblue" stroke="midnightblue" points="217.574,-325.57 213.612,-335.396 222.837,-330.185 217.574,-325.57"/>
</g>
<!-- Node80&#45;&gt;Node83 -->
<g id="edge23" class="edge"><title>Node80&#45;&gt;Node83</title>
<path fill="none" stroke="midnightblue" d="M142.668,-331.648C98.0463,-313.763 40.0579,-281.676 13.244,-232 6.69965,-219.876 6.09673,-212.779 13.244,-201 23.6347,-183.876 41.9351,-172.289 60.4911,-164.584"/>
<polygon fill="midnightblue" stroke="midnightblue" points="141.667,-335.014 152.256,-335.357 144.192,-328.485 141.667,-335.014"/>
</g>
<!-- Node80&#45;&gt;Node90 -->
<g id="edge24" class="edge"><title>Node80&#45;&gt;Node90</title>
<path fill="none" stroke="midnightblue" d="M260.637,-332.715C298.066,-322.137 345.844,-308.635 381.313,-298.611"/>
<polygon fill="midnightblue" stroke="midnightblue" points="259.539,-329.388 250.867,-335.476 261.442,-336.124 259.539,-329.388"/>
</g>
<!-- Node82 -->
<g id="node4" class="node"><title>Node82</title>
<g id="a_node4"><a xlink:href="_viewer_8h.html" target="_top" xlink:title="/home/alejandro/Desarrollo\l eclipse/os1/include/Viewer.h">
<polygon fill="white" stroke="black" points="241.244,-201.5 241.244,-231.5 385.244,-231.5 385.244,-201.5 241.244,-201.5"/>
<text text-anchor="start" x="249.244" y="-219.5" font-family="Helvetica,sans-Serif" font-size="10.00">/home/alejandro/Desarrollo</text>
<text text-anchor="middle" x="313.244" y="-208.5" font-family="Helvetica,sans-Serif" font-size="10.00"> eclipse/os1/include/Viewer.h</text>
</a>
</g>
</g>
<!-- Node81&#45;&gt;Node82 -->
<g id="edge3" class="edge"><title>Node81&#45;&gt;Node82</title>
<path fill="none" stroke="midnightblue" d="M270.701,-260.157C278.14,-250.679 287.503,-239.919 295.658,-231.577"/>
<polygon fill="midnightblue" stroke="midnightblue" points="267.718,-258.302 264.5,-268.396 273.31,-262.511 267.718,-258.302"/>
</g>
<!-- Node81&#45;&gt;Node83 -->
<g id="edge19" class="edge"><title>Node81&#45;&gt;Node83</title>
<path fill="none" stroke="midnightblue" d="M230.225,-261.29C212.177,-244.641 188.567,-221.011 167.244,-201 153.94,-188.515 138.416,-174.815 128.341,-164.839"/>
<polygon fill="midnightblue" stroke="midnightblue" points="228.333,-264.298 238.097,-268.41 233.028,-259.106 228.333,-264.298"/>
</g>
<!-- Node88 -->
<g id="node10" class="node"><title>Node88</title>
<g id="a_node10"><a xlink:href="main_8cc.html" target="_top" xlink:title="/home/alejandro/Desarrollo\l eclipse/os1/src/main.cc">
<polygon fill="white" stroke="black" points="441.744,-201.5 441.744,-231.5 574.744,-231.5 574.744,-201.5 441.744,-201.5"/>
<text text-anchor="start" x="449.744" y="-219.5" font-family="Helvetica,sans-Serif" font-size="10.00">/home/alejandro/Desarrollo</text>
<text text-anchor="middle" x="508.244" y="-208.5" font-family="Helvetica,sans-Serif" font-size="10.00"> eclipse/os1/src/main.cc</text>
</a>
</g>
</g>
<!-- Node81&#45;&gt;Node88 -->
<g id="edge20" class="edge"><title>Node81&#45;&gt;Node88</title>
<path fill="none" stroke="midnightblue" d="M322.024,-265.917C362.822,-255.31 415.172,-241.699 453.971,-231.611"/>
<polygon fill="midnightblue" stroke="midnightblue" points="320.98,-262.572 312.183,-268.476 322.741,-269.347 320.98,-262.572"/>
</g>
<!-- Node89 -->
<g id="node11" class="node"><title>Node89</title>
<g id="a_node11"><a xlink:href="_system_8cc.html" target="_top" xlink:title="/home/alejandro/Desarrollo\l eclipse/os1/src/System.cc">
<polygon fill="white" stroke="black" points="31.244,-201.5 31.244,-231.5 167.244,-231.5 167.244,-201.5 31.244,-201.5"/>
<text text-anchor="start" x="39.244" y="-219.5" font-family="Helvetica,sans-Serif" font-size="10.00">/home/alejandro/Desarrollo</text>
<text text-anchor="middle" x="99.244" y="-208.5" font-family="Helvetica,sans-Serif" font-size="10.00"> eclipse/os1/src/System.cc</text>
</a>
</g>
</g>
<!-- Node81&#45;&gt;Node89 -->
<g id="edge21" class="edge"><title>Node81&#45;&gt;Node89</title>
<path fill="none" stroke="midnightblue" d="M214.321,-264.544C188.879,-254.143 157.311,-241.238 133.677,-231.577"/>
<polygon fill="midnightblue" stroke="midnightblue" points="213.163,-267.852 223.743,-268.396 215.811,-261.372 213.163,-267.852"/>
</g>
<!-- Node82&#45;&gt;Node81 -->
<g id="edge17" class="edge"><title>Node82&#45;&gt;Node81</title>
<path fill="none" stroke="midnightblue" d="M300.811,-239.811C293.376,-249.287 284.015,-260.049 275.857,-268.396"/>
<polygon fill="midnightblue" stroke="midnightblue" points="303.792,-241.671 307.008,-231.577 298.199,-237.462 303.792,-241.671"/>
</g>
<!-- Node82&#45;&gt;Node83 -->
<g id="edge4" class="edge"><title>Node82&#45;&gt;Node83</title>
<path fill="none" stroke="midnightblue" d="M255.65,-198.228C223.215,-187.713 183.755,-174.451 155.582,-164.577"/>
<polygon fill="midnightblue" stroke="midnightblue" points="254.879,-201.657 265.471,-201.396 257.028,-194.995 254.879,-201.657"/>
</g>
<!-- Node87 -->
<g id="node9" class="node"><title>Node87</title>
<g id="a_node9"><a xlink:href="_viewer_8cc.html" target="_top" xlink:title="/home/alejandro/Desarrollo\l eclipse/os1/src/Viewer.cc">
<polygon fill="white" stroke="black" points="213.744,-134.5 213.744,-164.5 346.744,-164.5 346.744,-134.5 213.744,-134.5"/>
<text text-anchor="start" x="221.744" y="-152.5" font-family="Helvetica,sans-Serif" font-size="10.00">/home/alejandro/Desarrollo</text>
<text text-anchor="middle" x="280.244" y="-141.5" font-family="Helvetica,sans-Serif" font-size="10.00"> eclipse/os1/src/Viewer.cc</text>
</a>
</g>
</g>
<!-- Node82&#45;&gt;Node87 -->
<g id="edge18" class="edge"><title>Node82&#45;&gt;Node87</title>
<path fill="none" stroke="midnightblue" d="M301.457,-192.283C296.755,-183.022 291.496,-172.663 287.391,-164.577"/>
<polygon fill="midnightblue" stroke="midnightblue" points="298.436,-194.064 306.084,-201.396 304.677,-190.895 298.436,-194.064"/>
</g>
<!-- Node83&#45;&gt;Node79 -->
<g id="edge13" class="edge"><title>Node83&#45;&gt;Node79</title>
<path fill="none" stroke="midnightblue" d="M60.6354,-168.855C45.6715,-176.298 31.3003,-186.654 22.244,-201 14.8894,-212.651 18.9597,-218.619 22.244,-232 39.4649,-302.158 54.3102,-325.668 114.244,-366 139.423,-382.944 170.743,-394.597 197.789,-402.4"/>
<polygon fill="midnightblue" stroke="midnightblue" points="62.3428,-171.923 69.9869,-164.587 59.4364,-165.555 62.3428,-171.923"/>
</g>
<!-- Node83&#45;&gt;Node80 -->
<g id="edge14" class="edge"><title>Node83&#45;&gt;Node80</title>
<path fill="none" stroke="midnightblue" d="M67.6595,-169.23C53.4827,-176.73 39.7273,-187.019 31.244,-201 24.0967,-212.779 24.6997,-219.876 31.244,-232 60.0254,-285.321 124.724,-318.377 165.61,-335.357"/>
<polygon fill="midnightblue" stroke="midnightblue" points="69.5237,-172.215 76.9853,-164.694 66.4618,-165.921 69.5237,-172.215"/>
</g>
<!-- Node83&#45;&gt;Node81 -->
<g id="edge12" class="edge"><title>Node83&#45;&gt;Node81</title>
<path fill="none" stroke="midnightblue" d="M151.102,-170.877C162.219,-179.963 174.461,-190.88 185.244,-201 209.832,-224.076 237.463,-251.964 251.01,-268.41"/>
<polygon fill="midnightblue" stroke="midnightblue" points="153.246,-168.111 143.242,-164.623 148.887,-173.588 153.246,-168.111"/>
</g>
<!-- Node83&#45;&gt;Node82 -->
<g id="edge11" class="edge"><title>Node83&#45;&gt;Node82</title>
<path fill="none" stroke="midnightblue" d="M176.747,-167.743C209.169,-178.252 248.634,-191.515 276.827,-201.396"/>
<polygon fill="midnightblue" stroke="midnightblue" points="177.523,-164.316 166.932,-164.577 175.374,-170.978 177.523,-164.316"/>
</g>
<!-- Node84 -->
<g id="node6" class="node"><title>Node84</title>
<g id="a_node6"><a xlink:href="_frame_drawer_8h.html" target="_top" xlink:title="/home/alejandro/Desarrollo\l eclipse/os1/include/FrameDrawer.h">
<polygon fill="white" stroke="black" points="193.744,-67.5 193.744,-97.5 366.744,-97.5 366.744,-67.5 193.744,-67.5"/>
<text text-anchor="start" x="201.744" y="-85.5" font-family="Helvetica,sans-Serif" font-size="10.00">/home/alejandro/Desarrollo</text>
<text text-anchor="middle" x="280.244" y="-74.5" font-family="Helvetica,sans-Serif" font-size="10.00"> eclipse/os1/include/FrameDrawer.h</text>
</a>
</g>
</g>
<!-- Node83&#45;&gt;Node84 -->
<g id="edge5" class="edge"><title>Node83&#45;&gt;Node84</title>
<path fill="none" stroke="midnightblue" d="M157.938,-130.407C182.675,-120.029 214.613,-107.195 239.703,-97.5765"/>
<polygon fill="midnightblue" stroke="midnightblue" points="156.348,-127.279 148.5,-134.396 159.074,-133.726 156.348,-127.279"/>
</g>
<!-- Node85 -->
<g id="node7" class="node"><title>Node85</title>
<g id="a_node7"><a xlink:href="_frame_drawer_8cc.html" target="_top" xlink:title="/home/alejandro/Desarrollo\l eclipse/os1/src/FrameDrawer.cc">
<polygon fill="white" stroke="black" points="38.744,-0.5 38.744,-30.5 199.744,-30.5 199.744,-0.5 38.744,-0.5"/>
<text text-anchor="start" x="46.744" y="-18.5" font-family="Helvetica,sans-Serif" font-size="10.00">/home/alejandro/Desarrollo</text>
<text text-anchor="middle" x="119.244" y="-7.5" font-family="Helvetica,sans-Serif" font-size="10.00"> eclipse/os1/src/FrameDrawer.cc</text>
</a>
</g>
</g>
<!-- Node83&#45;&gt;Node85 -->
<g id="edge15" class="edge"><title>Node83&#45;&gt;Node85</title>
<path fill="none" stroke="midnightblue" d="M119.244,-124.024C119.244,-96.5121 119.244,-52.7894 119.244,-30.5247"/>
<polygon fill="midnightblue" stroke="midnightblue" points="115.744,-124.374 119.244,-134.374 122.744,-124.374 115.744,-124.374"/>
</g>
<!-- Node86 -->
<g id="node8" class="node"><title>Node86</title>
<g id="a_node8"><a xlink:href="_tracking_8cc.html" target="_top" xlink:title="/home/alejandro/Desarrollo\l eclipse/os1/src/Tracking.cc">
<polygon fill="white" stroke="black" points="218.244,-0.5 218.244,-30.5 358.244,-30.5 358.244,-0.5 218.244,-0.5"/>
<text text-anchor="start" x="226.244" y="-18.5" font-family="Helvetica,sans-Serif" font-size="10.00">/home/alejandro/Desarrollo</text>
<text text-anchor="middle" x="288.244" y="-7.5" font-family="Helvetica,sans-Serif" font-size="10.00"> eclipse/os1/src/Tracking.cc</text>
</a>
</g>
</g>
<!-- Node83&#45;&gt;Node86 -->
<g id="edge16" class="edge"><title>Node83&#45;&gt;Node86</title>
<path fill="none" stroke="midnightblue" d="M133.392,-125.603C145.254,-107.85 163.545,-83.5608 184.244,-67 203.678,-51.451 228.686,-39.1168 249.308,-30.5312"/>
<polygon fill="midnightblue" stroke="midnightblue" points="130.309,-123.923 127.795,-134.216 136.179,-127.737 130.309,-123.923"/>
</g>
<!-- Node84&#45;&gt;Node81 -->
<g id="edge7" class="edge"><title>Node84&#45;&gt;Node81</title>
<path fill="none" stroke="midnightblue" d="M328.975,-102.223C344.233,-110.086 360.001,-120.581 371.244,-134 376.373,-140.121 411.866,-206.658 394.244,-232 384.61,-245.854 347.799,-259.041 314.902,-268.464"/>
<polygon fill="midnightblue" stroke="midnightblue" points="330.111,-98.8843 319.587,-97.6656 327.054,-105.181 330.111,-98.8843"/>
</g>
<!-- Node84&#45;&gt;Node82 -->
<g id="edge6" class="edge"><title>Node84&#45;&gt;Node82</title>
<path fill="none" stroke="midnightblue" d="M323.947,-102.889C336.32,-110.673 348.301,-120.954 355.244,-134 367.733,-157.466 346.055,-184.999 329.472,-201.306"/>
<polygon fill="midnightblue" stroke="midnightblue" points="325.34,-99.6505 314.934,-97.6576 321.826,-105.705 325.34,-99.6505"/>
</g>
<!-- Node84&#45;&gt;Node83 -->
<g id="edge8" class="edge"><title>Node84&#45;&gt;Node83</title>
<path fill="none" stroke="midnightblue" d="M241.621,-101.564C216.897,-111.936 184.96,-124.771 159.857,-134.396"/>
<polygon fill="midnightblue" stroke="midnightblue" points="243.205,-104.694 251.052,-97.5765 240.479,-98.2467 243.205,-104.694"/>
</g>
<!-- Node84&#45;&gt;Node85 -->
<g id="edge9" class="edge"><title>Node84&#45;&gt;Node85</title>
<path fill="none" stroke="midnightblue" d="M235.769,-63.5442C210.006,-53.143 178.041,-40.238 154.11,-30.5765"/>
<polygon fill="midnightblue" stroke="midnightblue" points="234.726,-66.8977 245.309,-67.396 237.347,-60.4067 234.726,-66.8977"/>
</g>
<!-- Node84&#45;&gt;Node86 -->
<g id="edge10" class="edge"><title>Node84&#45;&gt;Node86</title>
<path fill="none" stroke="midnightblue" d="M283.21,-57.4029C284.322,-48.3703 285.548,-38.4078 286.512,-30.5765"/>
<polygon fill="midnightblue" stroke="midnightblue" points="279.728,-57.0433 281.98,-67.396 286.675,-57.8984 279.728,-57.0433"/>
</g>
<!-- Node91&#45;&gt;Node86 -->
<g id="edge32" class="edge"><title>Node91&#45;&gt;Node86</title>
<path fill="none" stroke="midnightblue" d="M637.451,-326.891C632.392,-318.406 627.054,-308.511 623.244,-299 609.377,-264.377 603.244,-254.797 603.244,-217.5 603.244,-217.5 603.244,-217.5 603.244,-148.5 603.244,-43.1031 451.382,-20.4304 358.544,-16.4172"/>
<polygon fill="midnightblue" stroke="midnightblue" points="634.512,-328.792 642.746,-335.458 640.466,-325.112 634.512,-328.792"/>
</g>
<!-- Node91&#45;&gt;Node90 -->
<g id="edge29" class="edge"><title>Node91&#45;&gt;Node90</title>
<path fill="none" stroke="midnightblue" d="M594.715,-332.58C558.82,-322.022 513.157,-308.592 479.221,-298.611"/>
<polygon fill="midnightblue" stroke="midnightblue" points="593.981,-336.012 604.562,-335.476 595.956,-329.296 593.981,-336.012"/>
</g>
<!-- Node92 -->
<g id="node14" class="node"><title>Node92</title>
<g id="a_node14"><a xlink:href="_initializer_8cc.html" target="_top" xlink:title="/home/alejandro/Desarrollo\l eclipse/os1/src/Initializer.cc">
<polygon fill="white" stroke="black" points="631.744,-268.5 631.744,-298.5 772.744,-298.5 772.744,-268.5 631.744,-268.5"/>
<text text-anchor="start" x="639.744" y="-286.5" font-family="Helvetica,sans-Serif" font-size="10.00">/home/alejandro/Desarrollo</text>
<text text-anchor="middle" x="702.244" y="-275.5" font-family="Helvetica,sans-Serif" font-size="10.00"> eclipse/os1/src/Initializer.cc</text>
</a>
</g>
</g>
<!-- Node91&#45;&gt;Node92 -->
<g id="edge28" class="edge"><title>Node91&#45;&gt;Node92</title>
<path fill="none" stroke="midnightblue" d="M669.208,-327.447C676.553,-317.899 684.934,-307.004 691.416,-298.577"/>
<polygon fill="midnightblue" stroke="midnightblue" points="666.416,-325.336 663.093,-335.396 671.965,-329.604 666.416,-325.336"/>
</g>
<!-- Node91&#45;&gt;Node93 -->
<g id="edge30" class="edge"><title>Node91&#45;&gt;Node93</title>
<path fill="none" stroke="midnightblue" d="M740.437,-334.375C804.738,-323.347 891.082,-308.538 952.951,-297.928"/>
<polygon fill="midnightblue" stroke="midnightblue" points="739.578,-330.971 730.314,-336.111 740.761,-337.87 739.578,-330.971"/>
</g>
<!-- Node94 -->
<g id="node16" class="node"><title>Node94</title>
<g id="a_node16"><a xlink:href="_optimizer_8cc.html" target="_top" xlink:title="/home/alejandro/Desarrollo\l eclipse/os1/src/Optimizer.cc">
<polygon fill="white" stroke="black" points="791.244,-268.5 791.244,-298.5 935.244,-298.5 935.244,-268.5 791.244,-268.5"/>
<text text-anchor="start" x="799.244" y="-286.5" font-family="Helvetica,sans-Serif" font-size="10.00">/home/alejandro/Desarrollo</text>
<text text-anchor="middle" x="863.244" y="-275.5" font-family="Helvetica,sans-Serif" font-size="10.00"> eclipse/os1/src/Optimizer.cc</text>
</a>
</g>
</g>
<!-- Node91&#45;&gt;Node94 -->
<g id="edge31" class="edge"><title>Node91&#45;&gt;Node94</title>
<path fill="none" stroke="midnightblue" d="M707.61,-332.444C741.813,-321.908 785.176,-308.549 817.438,-298.611"/>
<polygon fill="midnightblue" stroke="midnightblue" points="706.294,-329.187 697.768,-335.476 708.355,-335.877 706.294,-329.187"/>
</g>
</g>
</svg>
