<?xml version="1.0" encoding="UTF-8" standalone="no"?>
<!DOCTYPE svg PUBLIC "-//W3C//DTD SVG 1.1//EN"
 "http://www.w3.org/Graphics/SVG/1.1/DTD/svg11.dtd">
<!-- Generated by graphviz version 2.38.0 (20140413.2041)
 -->
<!-- Title: /home/alejandro/Desarrollo eclipse/os1/include/MapPoint.h Pages: 1 -->
<svg width="2232pt" height="363pt"
 viewBox="0.00 0.00 2232.00 363.00" xmlns="http://www.w3.org/2000/svg" xmlns:xlink="http://www.w3.org/1999/xlink">
<g id="graph0" class="graph" transform="scale(1 1) rotate(0) translate(4 359)">
<title>/home/alejandro/Desarrollo eclipse/os1/include/MapPoint.h</title>
<polygon fill="white" stroke="none" points="-4,4 -4,-359 2228,-359 2228,4 -4,4"/>
<!-- Node0 -->
<g id="node1" class="node"><title>Node0</title>
<polygon fill="#bfbfbf" stroke="black" points="1326.5,-324.5 1326.5,-354.5 1481.5,-354.5 1481.5,-324.5 1326.5,-324.5"/>
<text text-anchor="start" x="1334.5" y="-342.5" font-family="Helvetica,sans-Serif" font-size="10.00">/home/alejandro/Desarrollo</text>
<text text-anchor="middle" x="1404" y="-331.5" font-family="Helvetica,sans-Serif" font-size="10.00"> eclipse/os1/include/MapPoint.h</text>
</g>
<!-- Node1 -->
<g id="node2" class="node"><title>Node1</title>
<g id="a_node2"><a xlink:href="_key_frame_8h.html" target="_top" xlink:title="KeyFrame.h">
<polygon fill="white" stroke="black" points="1369,-268.5 1369,-287.5 1439,-287.5 1439,-268.5 1369,-268.5"/>
<text text-anchor="middle" x="1404" y="-275.5" font-family="Helvetica,sans-Serif" font-size="10.00">KeyFrame.h</text>
</a>
</g>
</g>
<!-- Node0&#45;&gt;Node1 -->
<g id="edge1" class="edge"><title>Node0&#45;&gt;Node1</title>
<path fill="none" stroke="midnightblue" d="M1398.16,-324.399C1397.13,-316.377 1396.97,-306.233 1397.69,-297.569"/>
<polygon fill="midnightblue" stroke="midnightblue" points="1401.16,-298.044 1399.07,-287.658 1394.23,-297.081 1401.16,-298.044"/>
</g>
<!-- Node10 -->
<g id="node11" class="node"><title>Node10</title>
<polygon fill="white" stroke="#bfbfbf" points="0,-78.5 0,-97.5 116,-97.5 116,-78.5 0,-78.5"/>
<text text-anchor="middle" x="58" y="-85.5" font-family="Helvetica,sans-Serif" font-size="10.00">opencv2/core/core.hpp</text>
</g>
<!-- Node0&#45;&gt;Node10 -->
<g id="edge53" class="edge"><title>Node0&#45;&gt;Node10</title>
<path fill="none" stroke="midnightblue" d="M1326.26,-324.693C1161.54,-295.417 765.216,-224.882 433,-165 296.073,-140.319 260.31,-141.392 125,-109 114.818,-106.562 103.891,-103.497 93.878,-100.504"/>
<polygon fill="midnightblue" stroke="midnightblue" points="94.8165,-97.1309 84.2304,-97.5604 92.7737,-103.826 94.8165,-97.1309"/>
</g>
<!-- Node11 -->
<g id="node12" class="node"><title>Node11</title>
<g id="a_node12"><a xlink:href="_frame_8h.html" target="_top" xlink:title="Frame.h">
<polygon fill="white" stroke="black" points="1191.5,-145.5 1191.5,-164.5 1244.5,-164.5 1244.5,-145.5 1191.5,-145.5"/>
<text text-anchor="middle" x="1218" y="-152.5" font-family="Helvetica,sans-Serif" font-size="10.00">Frame.h</text>
</a>
</g>
</g>
<!-- Node0&#45;&gt;Node11 -->
<g id="edge45" class="edge"><title>Node0&#45;&gt;Node11</title>
<path fill="none" stroke="midnightblue" d="M1343.5,-324.36C1297.11,-309.437 1236.54,-281.097 1208,-232 1197.77,-214.406 1200.23,-190.429 1205.77,-174.145"/>
<polygon fill="midnightblue" stroke="midnightblue" points="1209.09,-175.273 1209.75,-164.698 1202.64,-172.554 1209.09,-175.273"/>
</g>
<!-- Node29 -->
<g id="node30" class="node"><title>Node29</title>
<polygon fill="white" stroke="#bfbfbf" points="1671,-145.5 1671,-164.5 1715,-164.5 1715,-145.5 1671,-145.5"/>
<text text-anchor="middle" x="1693" y="-152.5" font-family="Helvetica,sans-Serif" font-size="10.00">mutex</text>
</g>
<!-- Node0&#45;&gt;Node29 -->
<g id="edge54" class="edge"><title>Node0&#45;&gt;Node29</title>
<path fill="none" stroke="midnightblue" d="M1481.85,-333.132C1567.63,-326.136 1699.26,-311.888 1743,-288 1781.95,-266.727 1816.03,-238.312 1792,-201 1777.37,-178.287 1748.17,-166.906 1725.25,-161.285"/>
<polygon fill="midnightblue" stroke="midnightblue" points="1725.76,-157.813 1715.24,-159.087 1724.26,-164.65 1725.76,-157.813"/>
</g>
<!-- Node30 -->
<g id="node31" class="node"><title>Node30</title>
<g id="a_node31"><a xlink:href="_serializer_8h.html" target="_top" xlink:title="Serializer.h">
<polygon fill="white" stroke="black" points="1554.5,-207 1554.5,-226 1619.5,-226 1619.5,-207 1554.5,-207"/>
<text text-anchor="middle" x="1587" y="-214" font-family="Helvetica,sans-Serif" font-size="10.00">Serializer.h</text>
</a>
</g>
</g>
<!-- Node0&#45;&gt;Node30 -->
<g id="edge52" class="edge"><title>Node0&#45;&gt;Node30</title>
<path fill="none" stroke="midnightblue" d="M1425.35,-324.383C1460.49,-301.149 1530.12,-255.106 1565.42,-231.771"/>
<polygon fill="midnightblue" stroke="midnightblue" points="1567.59,-234.527 1574.01,-226.092 1563.73,-228.688 1567.59,-234.527"/>
</g>
<!-- Node31 -->
<g id="node32" class="node"><title>Node31</title>
<polygon fill="white" stroke="#bfbfbf" points="1637.5,-201.5 1637.5,-231.5 1732.5,-231.5 1732.5,-201.5 1637.5,-201.5"/>
<text text-anchor="start" x="1645.5" y="-219.5" font-family="Helvetica,sans-Serif" font-size="10.00">boost/serialization</text>
<text text-anchor="middle" x="1685" y="-208.5" font-family="Helvetica,sans-Serif" font-size="10.00">/access.hpp</text>
</g>
<!-- Node0&#45;&gt;Node31 -->
<g id="edge55" class="edge"><title>Node0&#45;&gt;Node31</title>
<path fill="none" stroke="midnightblue" d="M1436.78,-324.383C1487.97,-302.343 1586.82,-259.777 1643.1,-235.542"/>
<polygon fill="midnightblue" stroke="midnightblue" points="1644.62,-238.697 1652.42,-231.527 1641.86,-232.268 1644.62,-238.697"/>
</g>
<!-- Node32 -->
<g id="node33" class="node"><title>Node32</title>
<g id="a_node33"><a xlink:href="_map_8h.html" target="_top" xlink:title="Map.h">
<polygon fill="white" stroke="black" points="1690,-268.5 1690,-287.5 1734,-287.5 1734,-268.5 1690,-268.5"/>
<text text-anchor="middle" x="1712" y="-275.5" font-family="Helvetica,sans-Serif" font-size="10.00">Map.h</text>
</a>
</g>
</g>
<!-- Node0&#45;&gt;Node32 -->
<g id="edge46" class="edge"><title>Node0&#45;&gt;Node32</title>
<path fill="none" stroke="midnightblue" d="M1481.52,-324.455C1534.87,-314.637 1607.33,-301.007 1671,-288 1673.88,-287.412 1676.87,-286.786 1679.86,-286.149"/>
<polygon fill="midnightblue" stroke="midnightblue" points="1680.86,-289.513 1689.9,-283.976 1679.38,-282.671 1680.86,-289.513"/>
</g>
<!-- Node1&#45;&gt;Node0 -->
<g id="edge2" class="edge"><title>Node1&#45;&gt;Node0</title>
<path fill="none" stroke="midnightblue" d="M1408.93,-287.658C1410.43,-294.655 1411.01,-304.857 1410.64,-314.289"/>
<polygon fill="midnightblue" stroke="midnightblue" points="1407.14,-314.153 1409.84,-324.399 1414.12,-314.709 1407.14,-314.153"/>
</g>
<!-- Node2 -->
<g id="node3" class="node"><title>Node2</title>
<polygon fill="white" stroke="#bfbfbf" points="134.5,-73 134.5,-103 247.5,-103 247.5,-73 134.5,-73"/>
<text text-anchor="start" x="142.5" y="-91" font-family="Helvetica,sans-Serif" font-size="10.00">../Thirdparty/DBoW2</text>
<text text-anchor="middle" x="191" y="-80" font-family="Helvetica,sans-Serif" font-size="10.00">/DBoW2/BowVector.h</text>
</g>
<!-- Node1&#45;&gt;Node2 -->
<g id="edge3" class="edge"><title>Node1&#45;&gt;Node2</title>
<path fill="none" stroke="midnightblue" d="M1368.78,-271.882C1311.42,-263.544 1194.24,-246.5 1095,-232 722.085,-177.511 623.623,-191.993 256,-109 251.854,-108.064 247.588,-106.996 243.319,-105.851"/>
<polygon fill="midnightblue" stroke="midnightblue" points="243.979,-102.401 233.405,-103.067 242.087,-109.14 243.979,-102.401"/>
</g>
<!-- Node3 -->
<g id="node4" class="node"><title>Node3</title>
<polygon fill="white" stroke="#bfbfbf" points="265.5,-73 265.5,-103 392.5,-103 392.5,-73 265.5,-73"/>
<text text-anchor="start" x="273.5" y="-91" font-family="Helvetica,sans-Serif" font-size="10.00">../Thirdparty/DBoW2</text>
<text text-anchor="middle" x="329" y="-80" font-family="Helvetica,sans-Serif" font-size="10.00">/DBoW2/FeatureVector.h</text>
</g>
<!-- Node1&#45;&gt;Node3 -->
<g id="edge4" class="edge"><title>Node1&#45;&gt;Node3</title>
<path fill="none" stroke="midnightblue" d="M1368.68,-268.492C1248.8,-239.624 864.161,-147.084 851,-145 652.831,-113.615 598.561,-144.01 401,-109 395.571,-108.038 389.96,-106.844 384.377,-105.522"/>
<polygon fill="midnightblue" stroke="midnightblue" points="384.955,-102.059 374.404,-103.026 383.255,-108.849 384.955,-102.059"/>
</g>
<!-- Node4 -->
<g id="node5" class="node"><title>Node4</title>
<g id="a_node5"><a xlink:href="_o_r_b_vocabulary_8h.html" target="_top" xlink:title="ORBVocabulary.h">
<polygon fill="white" stroke="black" points="2020.5,-78.5 2020.5,-97.5 2115.5,-97.5 2115.5,-78.5 2020.5,-78.5"/>
<text text-anchor="middle" x="2068" y="-85.5" font-family="Helvetica,sans-Serif" font-size="10.00">ORBVocabulary.h</text>
</a>
</g>
</g>
<!-- Node1&#45;&gt;Node4 -->
<g id="edge5" class="edge"><title>Node1&#45;&gt;Node4</title>
<path fill="none" stroke="midnightblue" d="M1417.62,-268.435C1431.08,-259.777 1452.05,-245.748 1469,-232 1512.71,-196.548 1509.58,-167.878 1561,-145 1652.66,-104.217 1912.86,-129.779 2011,-109 2020,-107.095 2029.52,-104.149 2038.15,-101.098"/>
<polygon fill="midnightblue" stroke="midnightblue" points="2039.63,-104.283 2047.79,-97.5243 2037.19,-97.7192 2039.63,-104.283"/>
</g>
<!-- Node7 -->
<g id="node8" class="node"><title>Node7</title>
<g id="a_node8"><a xlink:href="_o_r_bextractor_8h.html" target="_top" xlink:title="ORBextractor.h">
<polygon fill="white" stroke="black" points="1244.5,-207 1244.5,-226 1329.5,-226 1329.5,-207 1244.5,-207"/>
<text text-anchor="middle" x="1287" y="-214" font-family="Helvetica,sans-Serif" font-size="10.00">ORBextractor.h</text>
</a>
</g>
</g>
<!-- Node1&#45;&gt;Node7 -->
<g id="edge8" class="edge"><title>Node1&#45;&gt;Node7</title>
<path fill="none" stroke="midnightblue" d="M1387.24,-268.475C1367.78,-258.578 1335.45,-242.142 1312.79,-230.615"/>
<polygon fill="midnightblue" stroke="midnightblue" points="1314.23,-227.422 1303.73,-226.009 1311.06,-233.662 1314.23,-227.422"/>
</g>
<!-- Node1&#45;&gt;Node11 -->
<g id="edge12" class="edge"><title>Node1&#45;&gt;Node11</title>
<path fill="none" stroke="midnightblue" d="M1368.97,-277.703C1330.61,-276.478 1269.92,-268.348 1235,-232 1220.46,-216.868 1217.3,-192.154 1217.07,-175.035"/>
<polygon fill="midnightblue" stroke="midnightblue" points="1220.58,-174.675 1217.27,-164.609 1213.58,-174.539 1220.58,-174.675"/>
</g>
<!-- Node27 -->
<g id="node28" class="node"><title>Node27</title>
<g id="a_node28"><a xlink:href="_key_frame_database_8h.html" target="_top" xlink:title="KeyFrameDatabase.h">
<polygon fill="white" stroke="black" points="1348,-207 1348,-226 1460,-226 1460,-207 1348,-207"/>
<text text-anchor="middle" x="1404" y="-214" font-family="Helvetica,sans-Serif" font-size="10.00">KeyFrameDatabase.h</text>
</a>
</g>
</g>
<!-- Node1&#45;&gt;Node27 -->
<g id="edge34" class="edge"><title>Node1&#45;&gt;Node27</title>
<path fill="none" stroke="midnightblue" d="M1399.1,-268.475C1397.27,-260.08 1396.8,-246.981 1397.69,-236.163"/>
<polygon fill="midnightblue" stroke="midnightblue" points="1401.19,-236.397 1399.1,-226.009 1394.25,-235.429 1401.19,-236.397"/>
</g>
<!-- Node1&#45;&gt;Node29 -->
<g id="edge43" class="edge"><title>Node1&#45;&gt;Node29</title>
<path fill="none" stroke="midnightblue" d="M1425.63,-268.495C1445.89,-260.197 1476.76,-246.703 1502,-232 1522.36,-220.14 1523.89,-211.457 1545,-201 1582.78,-182.286 1629.88,-169.602 1660.66,-162.589"/>
<polygon fill="midnightblue" stroke="midnightblue" points="1661.82,-165.918 1670.83,-160.345 1660.31,-159.083 1661.82,-165.918"/>
</g>
<!-- Node1&#45;&gt;Node30 -->
<g id="edge42" class="edge"><title>Node1&#45;&gt;Node30</title>
<path fill="none" stroke="midnightblue" d="M1430.22,-268.475C1462.02,-258.136 1515.77,-240.661 1551.32,-229.102"/>
<polygon fill="midnightblue" stroke="midnightblue" points="1552.4,-232.43 1560.83,-226.009 1550.24,-225.773 1552.4,-232.43"/>
</g>
<!-- Node1&#45;&gt;Node31 -->
<g id="edge44" class="edge"><title>Node1&#45;&gt;Node31</title>
<path fill="none" stroke="midnightblue" d="M1439.04,-270.533C1481.33,-262.601 1554.81,-248.42 1627.65,-232.01"/>
<polygon fill="midnightblue" stroke="midnightblue" points="1628.48,-235.411 1637.46,-229.786 1626.93,-228.585 1628.48,-235.411"/>
</g>
<!-- Node5 -->
<g id="node6" class="node"><title>Node5</title>
<polygon fill="white" stroke="#bfbfbf" points="1938.5,-0.5 1938.5,-30.5 2045.5,-30.5 2045.5,-0.5 1938.5,-0.5"/>
<text text-anchor="start" x="1946.5" y="-18.5" font-family="Helvetica,sans-Serif" font-size="10.00">../Thirdparty/DBoW2</text>
<text text-anchor="middle" x="1992" y="-7.5" font-family="Helvetica,sans-Serif" font-size="10.00">/DBoW2/FORB.h</text>
</g>
<!-- Node4&#45;&gt;Node5 -->
<g id="edge6" class="edge"><title>Node4&#45;&gt;Node5</title>
<path fill="none" stroke="midnightblue" d="M2058.68,-78.3553C2047.85,-68.3037 2029.57,-51.3518 2014.89,-37.7337"/>
<polygon fill="midnightblue" stroke="midnightblue" points="2016.89,-34.811 2007.17,-30.5762 2012.13,-39.943 2016.89,-34.811"/>
</g>
<!-- Node6 -->
<g id="node7" class="node"><title>Node6</title>
<polygon fill="white" stroke="#bfbfbf" points="2064,-0.5 2064,-30.5 2224,-30.5 2224,-0.5 2064,-0.5"/>
<text text-anchor="start" x="2072" y="-18.5" font-family="Helvetica,sans-Serif" font-size="10.00">../Thirdparty/DBoW2</text>
<text text-anchor="middle" x="2144" y="-7.5" font-family="Helvetica,sans-Serif" font-size="10.00">/DBoW2/TemplatedVocabulary.h</text>
</g>
<!-- Node4&#45;&gt;Node6 -->
<g id="edge7" class="edge"><title>Node4&#45;&gt;Node6</title>
<path fill="none" stroke="midnightblue" d="M2077.32,-78.3553C2088.15,-68.3037 2106.43,-51.3518 2121.11,-37.7337"/>
<polygon fill="midnightblue" stroke="midnightblue" points="2123.87,-39.943 2128.83,-30.5762 2119.11,-34.811 2123.87,-39.943"/>
</g>
<!-- Node8 -->
<g id="node9" class="node"><title>Node8</title>
<polygon fill="white" stroke="#bfbfbf" points="1958,-78.5 1958,-97.5 2002,-97.5 2002,-78.5 1958,-78.5"/>
<text text-anchor="middle" x="1980" y="-85.5" font-family="Helvetica,sans-Serif" font-size="10.00">vector</text>
</g>
<!-- Node7&#45;&gt;Node8 -->
<g id="edge9" class="edge"><title>Node7&#45;&gt;Node8</title>
<path fill="none" stroke="midnightblue" d="M1289.81,-206.636C1295.28,-191.018 1308.98,-158.931 1333,-145 1451.42,-76.3156 1817.56,-150.572 1948,-109 1952.35,-107.612 1956.71,-105.496 1960.75,-103.152"/>
<polygon fill="midnightblue" stroke="midnightblue" points="1962.95,-105.891 1969.42,-97.501 1959.13,-100.024 1962.95,-105.891"/>
</g>
<!-- Node9 -->
<g id="node10" class="node"><title>Node9</title>
<polygon fill="white" stroke="#bfbfbf" points="1342.5,-145.5 1342.5,-164.5 1371.5,-164.5 1371.5,-145.5 1342.5,-145.5"/>
<text text-anchor="middle" x="1357" y="-152.5" font-family="Helvetica,sans-Serif" font-size="10.00">list</text>
</g>
<!-- Node7&#45;&gt;Node9 -->
<g id="edge10" class="edge"><title>Node7&#45;&gt;Node9</title>
<path fill="none" stroke="midnightblue" d="M1297.03,-206.975C1308.05,-197.608 1325.96,-182.384 1339.34,-171.008"/>
<polygon fill="midnightblue" stroke="midnightblue" points="1341.64,-173.652 1346.99,-164.509 1337.1,-168.319 1341.64,-173.652"/>
</g>
<!-- Node7&#45;&gt;Node10 -->
<g id="edge11" class="edge"><title>Node7&#45;&gt;Node10</title>
<path fill="none" stroke="midnightblue" d="M1244.36,-214.641C1091.43,-210.916 556.629,-192.343 125,-109 114.161,-106.907 102.568,-103.777 92.1251,-100.612"/>
<polygon fill="midnightblue" stroke="midnightblue" points="93.1159,-97.2544 82.5267,-97.598 91.019,-103.933 93.1159,-97.2544"/>
</g>
<!-- Node11&#45;&gt;Node0 -->
<g id="edge14" class="edge"><title>Node11&#45;&gt;Node0</title>
<path fill="none" stroke="midnightblue" d="M1220.62,-164.698C1219.92,-179.619 1213.53,-210.553 1226,-232 1252.48,-277.549 1306.53,-305.232 1348.23,-320.911"/>
<polygon fill="midnightblue" stroke="midnightblue" points="1347.14,-324.239 1357.74,-324.36 1349.53,-317.659 1347.14,-324.239"/>
</g>
<!-- Node11&#45;&gt;Node2 -->
<g id="edge30" class="edge"><title>Node11&#45;&gt;Node2</title>
<path fill="none" stroke="midnightblue" d="M1191.21,-147.408C1186.5,-146.453 1181.63,-145.593 1177,-145 770.683,-92.8805 659.825,-177.814 256,-109 250.964,-108.142 245.774,-107.003 240.626,-105.702"/>
<polygon fill="midnightblue" stroke="midnightblue" points="241.396,-102.284 230.827,-103.032 239.555,-109.038 241.396,-102.284"/>
</g>
<!-- Node11&#45;&gt;Node3 -->
<g id="edge31" class="edge"><title>Node11&#45;&gt;Node3</title>
<path fill="none" stroke="midnightblue" d="M1191.21,-147.436C1186.5,-146.478 1181.62,-145.61 1177,-145 834.708,-99.8243 741.924,-163.547 401,-109 395.255,-108.081 389.314,-106.87 383.421,-105.498"/>
<polygon fill="midnightblue" stroke="midnightblue" points="384.141,-102.071 373.593,-103.06 382.456,-108.865 384.141,-102.071"/>
</g>
<!-- Node11&#45;&gt;Node4 -->
<g id="edge32" class="edge"><title>Node11&#45;&gt;Node4</title>
<path fill="none" stroke="midnightblue" d="M1244.94,-151.7C1268.24,-149.757 1302.83,-146.982 1333,-145 1634.11,-125.227 1714.98,-167.545 2011,-109 2020.19,-107.182 2029.92,-104.196 2038.68,-101.079"/>
<polygon fill="midnightblue" stroke="midnightblue" points="2039.94,-104.343 2048.08,-97.5591 2037.49,-97.787 2039.94,-104.343"/>
</g>
<!-- Node11&#45;&gt;Node8 -->
<g id="edge13" class="edge"><title>Node11&#45;&gt;Node8</title>
<path fill="none" stroke="midnightblue" d="M1244.75,-149.974C1257.26,-148.216 1272.36,-146.271 1286,-145 1432.69,-131.324 1807.54,-153.447 1948,-109 1952.36,-107.621 1956.71,-105.509 1960.75,-103.166"/>
<polygon fill="midnightblue" stroke="midnightblue" points="1962.96,-105.904 1969.43,-97.5138 1959.14,-100.039 1962.96,-105.904"/>
</g>
<!-- Node11&#45;&gt;Node10 -->
<g id="edge18" class="edge"><title>Node11&#45;&gt;Node10</title>
<path fill="none" stroke="midnightblue" d="M1191.22,-147.389C1186.5,-146.436 1181.63,-145.582 1177,-145 712.829,-86.6057 586.693,-184.525 125,-109 113.743,-107.158 101.722,-103.974 91.0158,-100.681"/>
<polygon fill="midnightblue" stroke="midnightblue" points="91.8127,-97.2607 81.2213,-97.5304 89.6692,-103.924 91.8127,-97.2607"/>
</g>
<!-- Node12 -->
<g id="node13" class="node"><title>Node12</title>
<polygon fill="white" stroke="#bfbfbf" points="1384,-78.5 1384,-97.5 1438,-97.5 1438,-78.5 1384,-78.5"/>
<text text-anchor="middle" x="1411" y="-85.5" font-family="Helvetica,sans-Serif" font-size="10.00">iostream</text>
</g>
<!-- Node11&#45;&gt;Node12 -->
<g id="edge15" class="edge"><title>Node11&#45;&gt;Node12</title>
<path fill="none" stroke="midnightblue" d="M1244.53,-148.188C1276.05,-140.867 1329.91,-127.031 1374,-109 1378.66,-107.096 1383.48,-104.769 1388.06,-102.385"/>
<polygon fill="midnightblue" stroke="midnightblue" points="1389.85,-105.394 1396.94,-97.5255 1386.49,-99.2528 1389.85,-105.394"/>
</g>
<!-- Node13 -->
<g id="node14" class="node"><title>Node13</title>
<polygon fill="white" stroke="#bfbfbf" points="1456.5,-78.5 1456.5,-97.5 1491.5,-97.5 1491.5,-78.5 1456.5,-78.5"/>
<text text-anchor="middle" x="1474" y="-85.5" font-family="Helvetica,sans-Serif" font-size="10.00">map</text>
</g>
<!-- Node11&#45;&gt;Node13 -->
<g id="edge16" class="edge"><title>Node11&#45;&gt;Node13</title>
<path fill="none" stroke="midnightblue" d="M1244.65,-150.271C1296.91,-142.714 1410.86,-124.956 1447,-109 1450.2,-107.586 1453.39,-105.737 1456.38,-103.733"/>
<polygon fill="midnightblue" stroke="midnightblue" points="1458.75,-106.336 1464.66,-97.5423 1454.55,-100.731 1458.75,-106.336"/>
</g>
<!-- Node14 -->
<g id="node15" class="node"><title>Node14</title>
<polygon fill="white" stroke="#bfbfbf" points="1509.5,-67.5 1509.5,-108.5 1660.5,-108.5 1660.5,-67.5 1509.5,-67.5"/>
<text text-anchor="start" x="1517.5" y="-96.5" font-family="Helvetica,sans-Serif" font-size="10.00">/home/alejandro/Desarrollo</text>
<text text-anchor="start" x="1517.5" y="-85.5" font-family="Helvetica,sans-Serif" font-size="10.00"> eclipse/os1/Thirdparty</text>
<text text-anchor="middle" x="1585" y="-74.5" font-family="Helvetica,sans-Serif" font-size="10.00">/DBoW2/DBoW2/BowVector.h</text>
</g>
<!-- Node11&#45;&gt;Node14 -->
<g id="edge17" class="edge"><title>Node11&#45;&gt;Node14</title>
<path fill="none" stroke="midnightblue" d="M1244.55,-150.421C1293.06,-143.742 1399.46,-128.442 1499.13,-109.103"/>
<polygon fill="midnightblue" stroke="midnightblue" points="1499.92,-112.514 1509.06,-107.158 1498.57,-105.645 1499.92,-112.514"/>
</g>
<!-- Node15 -->
<g id="node16" class="node"><title>Node15</title>
<polygon fill="white" stroke="#bfbfbf" points="1678.5,-78.5 1678.5,-97.5 1719.5,-97.5 1719.5,-78.5 1678.5,-78.5"/>
<text text-anchor="middle" x="1699" y="-85.5" font-family="Helvetica,sans-Serif" font-size="10.00">string</text>
</g>
<!-- Node11&#45;&gt;Node15 -->
<g id="edge19" class="edge"><title>Node11&#45;&gt;Node15</title>
<path fill="none" stroke="midnightblue" d="M1244.78,-150.218C1257.29,-148.512 1272.39,-146.54 1286,-145 1455.89,-125.78 1507.86,-166.156 1669,-109 1672.94,-107.604 1676.86,-105.577 1680.51,-103.343"/>
<polygon fill="midnightblue" stroke="midnightblue" points="1682.6,-106.151 1688.86,-97.6042 1678.64,-100.381 1682.6,-106.151"/>
</g>
<!-- Node16 -->
<g id="node17" class="node"><title>Node16</title>
<polygon fill="white" stroke="#bfbfbf" points="1738,-67.5 1738,-108.5 1872,-108.5 1872,-67.5 1738,-67.5"/>
<text text-anchor="start" x="1746" y="-96.5" font-family="Helvetica,sans-Serif" font-size="10.00">/home/alejandro/Desarrollo</text>
<text text-anchor="start" x="1746" y="-85.5" font-family="Helvetica,sans-Serif" font-size="10.00"> eclipse/os1/Thirdparty</text>
<text text-anchor="middle" x="1805" y="-74.5" font-family="Helvetica,sans-Serif" font-size="10.00">/DBoW2/DBoW2/FClass.h</text>
</g>
<!-- Node11&#45;&gt;Node16 -->
<g id="edge20" class="edge"><title>Node11&#45;&gt;Node16</title>
<path fill="none" stroke="midnightblue" d="M1244.77,-150.141C1257.28,-148.419 1272.38,-146.455 1286,-145 1481.98,-124.063 1533.67,-141.897 1728,-109 1728.1,-108.983 1728.2,-108.965 1728.31,-108.948"/>
<polygon fill="midnightblue" stroke="midnightblue" points="1728.77,-112.422 1737.96,-107.142 1727.48,-105.541 1728.77,-112.422"/>
</g>
<!-- Node17 -->
<g id="node18" class="node"><title>Node17</title>
<polygon fill="white" stroke="#bfbfbf" points="1890.5,-78.5 1890.5,-97.5 1939.5,-97.5 1939.5,-78.5 1890.5,-78.5"/>
<text text-anchor="middle" x="1915" y="-85.5" font-family="Helvetica,sans-Serif" font-size="10.00">cassert</text>
</g>
<!-- Node11&#45;&gt;Node17 -->
<g id="edge21" class="edge"><title>Node11&#45;&gt;Node17</title>
<path fill="none" stroke="midnightblue" d="M1244.76,-150.012C1257.26,-148.262 1272.37,-146.313 1286,-145 1417.85,-132.302 1754.3,-147.649 1881,-109 1885.62,-107.591 1890.28,-105.44 1894.6,-103.063"/>
<polygon fill="midnightblue" stroke="midnightblue" points="1896.67,-105.899 1903.37,-97.6989 1893.02,-99.9263 1896.67,-105.899"/>
</g>
<!-- Node18 -->
<g id="node19" class="node"><title>Node18</title>
<polygon fill="white" stroke="#bfbfbf" points="410.5,-78.5 410.5,-97.5 461.5,-97.5 461.5,-78.5 410.5,-78.5"/>
<text text-anchor="middle" x="436" y="-85.5" font-family="Helvetica,sans-Serif" font-size="10.00">numeric</text>
</g>
<!-- Node11&#45;&gt;Node18 -->
<g id="edge22" class="edge"><title>Node11&#45;&gt;Node18</title>
<path fill="none" stroke="midnightblue" d="M1191.21,-147.454C1186.5,-146.494 1181.62,-145.621 1177,-145 1021.31,-124.088 621.754,-153.175 471,-109 466.055,-107.551 461.06,-105.281 456.452,-102.783"/>
<polygon fill="midnightblue" stroke="midnightblue" points="458.054,-99.6625 447.678,-97.5222 454.455,-105.666 458.054,-99.6625"/>
</g>
<!-- Node19 -->
<g id="node20" class="node"><title>Node19</title>
<polygon fill="white" stroke="#bfbfbf" points="480,-78.5 480,-97.5 530,-97.5 530,-78.5 480,-78.5"/>
<text text-anchor="middle" x="505" y="-85.5" font-family="Helvetica,sans-Serif" font-size="10.00">fstream</text>
</g>
<!-- Node11&#45;&gt;Node19 -->
<g id="edge23" class="edge"><title>Node11&#45;&gt;Node19</title>
<path fill="none" stroke="midnightblue" d="M1191.2,-147.475C1186.49,-146.513 1181.62,-145.633 1177,-145 1036.31,-125.715 674.908,-150.156 539,-109 534.174,-107.539 529.312,-105.264 524.834,-102.764"/>
<polygon fill="midnightblue" stroke="midnightblue" points="526.662,-99.7794 516.314,-97.5055 522.986,-105.736 526.662,-99.7794"/>
</g>
<!-- Node20 -->
<g id="node21" class="node"><title>Node20</title>
<polygon fill="white" stroke="#bfbfbf" points="548,-78.5 548,-97.5 604,-97.5 604,-78.5 548,-78.5"/>
<text text-anchor="middle" x="576" y="-85.5" font-family="Helvetica,sans-Serif" font-size="10.00">algorithm</text>
</g>
<!-- Node11&#45;&gt;Node20 -->
<g id="edge24" class="edge"><title>Node11&#45;&gt;Node20</title>
<path fill="none" stroke="midnightblue" d="M1191.2,-147.504C1186.49,-146.538 1181.62,-145.65 1177,-145 928.278,-109.971 854.419,-178.329 613,-109 607.782,-107.502 602.475,-105.187 597.569,-102.656"/>
<polygon fill="midnightblue" stroke="midnightblue" points="599.19,-99.552 588.762,-97.6815 595.748,-105.647 599.19,-99.552"/>
</g>
<!-- Node21 -->
<g id="node22" class="node"><title>Node21</title>
<polygon fill="white" stroke="#bfbfbf" points="622,-78.5 622,-97.5 662,-97.5 662,-78.5 622,-78.5"/>
<text text-anchor="middle" x="642" y="-85.5" font-family="Helvetica,sans-Serif" font-size="10.00">limits</text>
</g>
<!-- Node11&#45;&gt;Node21 -->
<g id="edge25" class="edge"><title>Node11&#45;&gt;Node21</title>
<path fill="none" stroke="midnightblue" d="M1191.2,-147.532C1186.49,-146.563 1181.62,-145.667 1177,-145 953.862,-112.745 883.747,-183.632 671,-109 667.26,-107.688 663.554,-105.758 660.106,-103.608"/>
<polygon fill="midnightblue" stroke="midnightblue" points="661.914,-100.599 651.732,-97.6724 657.866,-106.31 661.914,-100.599"/>
</g>
<!-- Node22 -->
<g id="node23" class="node"><title>Node22</title>
<polygon fill="white" stroke="#bfbfbf" points="680,-67.5 680,-108.5 844,-108.5 844,-67.5 680,-67.5"/>
<text text-anchor="start" x="688" y="-96.5" font-family="Helvetica,sans-Serif" font-size="10.00">/home/alejandro/Desarrollo</text>
<text text-anchor="start" x="688" y="-85.5" font-family="Helvetica,sans-Serif" font-size="10.00"> eclipse/os1/Thirdparty</text>
<text text-anchor="middle" x="762" y="-74.5" font-family="Helvetica,sans-Serif" font-size="10.00">/DBoW2/DBoW2/FeatureVector.h</text>
</g>
<!-- Node11&#45;&gt;Node22 -->
<g id="edge26" class="edge"><title>Node11&#45;&gt;Node22</title>
<path fill="none" stroke="midnightblue" d="M1191.17,-147.686C1186.47,-146.7 1181.6,-145.759 1177,-145 1037.25,-121.964 997.718,-132.1 854.316,-109.125"/>
<polygon fill="midnightblue" stroke="midnightblue" points="854.697,-105.641 844.265,-107.488 853.572,-112.55 854.697,-105.641"/>
</g>
<!-- Node23 -->
<g id="node24" class="node"><title>Node23</title>
<polygon fill="white" stroke="#bfbfbf" points="862,-67.5 862,-108.5 1026,-108.5 1026,-67.5 862,-67.5"/>
<text text-anchor="start" x="870" y="-96.5" font-family="Helvetica,sans-Serif" font-size="10.00">/home/alejandro/Desarrollo</text>
<text text-anchor="start" x="870" y="-85.5" font-family="Helvetica,sans-Serif" font-size="10.00"> eclipse/os1/Thirdparty</text>
<text text-anchor="middle" x="944" y="-74.5" font-family="Helvetica,sans-Serif" font-size="10.00">/DBoW2/DBoW2/ScoringObject.h</text>
</g>
<!-- Node11&#45;&gt;Node23 -->
<g id="edge27" class="edge"><title>Node11&#45;&gt;Node23</title>
<path fill="none" stroke="midnightblue" d="M1191.23,-147.649C1155.54,-139.184 1090.57,-123.769 1036.18,-110.868"/>
<polygon fill="midnightblue" stroke="midnightblue" points="1036.7,-107.393 1026.16,-108.49 1035.08,-114.204 1036.7,-107.393"/>
</g>
<!-- Node24 -->
<g id="node25" class="node"><title>Node24</title>
<polygon fill="white" stroke="#bfbfbf" points="1044.5,-67.5 1044.5,-108.5 1177.5,-108.5 1177.5,-67.5 1044.5,-67.5"/>
<text text-anchor="start" x="1052.5" y="-96.5" font-family="Helvetica,sans-Serif" font-size="10.00">/home/alejandro/Desarrollo</text>
<text text-anchor="start" x="1052.5" y="-85.5" font-family="Helvetica,sans-Serif" font-size="10.00"> eclipse/os1/Thirdparty</text>
<text text-anchor="middle" x="1111" y="-74.5" font-family="Helvetica,sans-Serif" font-size="10.00">/DBoW2/DUtils/Random.h</text>
</g>
<!-- Node11&#45;&gt;Node24 -->
<g id="edge28" class="edge"><title>Node11&#45;&gt;Node24</title>
<path fill="none" stroke="midnightblue" d="M1203.57,-145.234C1190.33,-137.193 1170.08,-124.891 1151.89,-113.842"/>
<polygon fill="midnightblue" stroke="midnightblue" points="1153.53,-110.743 1143.17,-108.542 1149.9,-116.725 1153.53,-110.743"/>
</g>
<!-- Node25 -->
<g id="node26" class="node"><title>Node25</title>
<polygon fill="white" stroke="#bfbfbf" points="1195.5,-78.5 1195.5,-97.5 1240.5,-97.5 1240.5,-78.5 1195.5,-78.5"/>
<text text-anchor="middle" x="1218" y="-85.5" font-family="Helvetica,sans-Serif" font-size="10.00">cstdlib</text>
</g>
<!-- Node11&#45;&gt;Node25 -->
<g id="edge29" class="edge"><title>Node11&#45;&gt;Node25</title>
<path fill="none" stroke="midnightblue" d="M1218,-145.234C1218,-135.683 1218,-120.118 1218,-107.783"/>
<polygon fill="midnightblue" stroke="midnightblue" points="1221.5,-107.627 1218,-97.6273 1214.5,-107.627 1221.5,-107.627"/>
</g>
<!-- Node26 -->
<g id="node27" class="node"><title>Node26</title>
<polygon fill="white" stroke="#bfbfbf" points="1258.5,-78.5 1258.5,-97.5 1365.5,-97.5 1365.5,-78.5 1258.5,-78.5"/>
<text text-anchor="middle" x="1312" y="-85.5" font-family="Helvetica,sans-Serif" font-size="10.00">opencv2/opencv.hpp</text>
</g>
<!-- Node11&#45;&gt;Node26 -->
<g id="edge33" class="edge"><title>Node11&#45;&gt;Node26</title>
<path fill="none" stroke="midnightblue" d="M1230.68,-145.234C1246.18,-134.513 1272.64,-116.216 1291.16,-103.414"/>
<polygon fill="midnightblue" stroke="midnightblue" points="1293.29,-106.194 1299.52,-97.6273 1289.31,-100.436 1293.29,-106.194"/>
</g>
<!-- Node27&#45;&gt;Node1 -->
<g id="edge38" class="edge"><title>Node27&#45;&gt;Node1</title>
<path fill="none" stroke="midnightblue" d="M1408.9,-226.009C1410.73,-234.398 1411.2,-247.496 1410.32,-258.317"/>
<polygon fill="midnightblue" stroke="midnightblue" points="1406.81,-258.088 1408.9,-268.475 1413.75,-259.054 1406.81,-258.088"/>
</g>
<!-- Node27&#45;&gt;Node4 -->
<g id="edge40" class="edge"><title>Node27&#45;&gt;Node4</title>
<path fill="none" stroke="midnightblue" d="M1409.45,-206.817C1419.81,-191.187 1444.03,-158.672 1474,-145 1582.82,-95.365 1893.84,-133.019 2011,-109 2020.01,-107.153 2029.53,-104.225 2038.16,-101.173"/>
<polygon fill="midnightblue" stroke="midnightblue" points="2039.65,-104.356 2047.8,-97.5906 2037.21,-97.7948 2039.65,-104.356"/>
</g>
<!-- Node27&#45;&gt;Node8 -->
<g id="edge35" class="edge"><title>Node27&#45;&gt;Node8</title>
<path fill="none" stroke="midnightblue" d="M1404.85,-206.783C1406.86,-191.398 1413.42,-159.668 1434,-145 1527.24,-78.5449 1839.11,-144.394 1948,-109 1952.28,-107.61 1956.56,-105.528 1960.54,-103.225"/>
<polygon fill="midnightblue" stroke="midnightblue" points="1962.63,-106.042 1969.12,-97.6718 1958.83,-100.164 1962.63,-106.042"/>
</g>
<!-- Node27&#45;&gt;Node9 -->
<g id="edge36" class="edge"><title>Node27&#45;&gt;Node9</title>
<path fill="none" stroke="midnightblue" d="M1397.27,-206.975C1390.22,-198.05 1378.97,-183.807 1370.15,-172.643"/>
<polygon fill="midnightblue" stroke="midnightblue" points="1372.67,-170.187 1363.72,-164.509 1367.17,-174.526 1372.67,-170.187"/>
</g>
<!-- Node27&#45;&gt;Node11 -->
<g id="edge39" class="edge"><title>Node27&#45;&gt;Node11</title>
<path fill="none" stroke="midnightblue" d="M1377.35,-206.975C1345.03,-196.636 1290.4,-179.161 1254.27,-167.602"/>
<polygon fill="midnightblue" stroke="midnightblue" points="1255.19,-164.222 1244.6,-164.509 1253.06,-170.89 1255.19,-164.222"/>
</g>
<!-- Node28 -->
<g id="node29" class="node"><title>Node28</title>
<polygon fill="white" stroke="#bfbfbf" points="1570,-145.5 1570,-164.5 1600,-164.5 1600,-145.5 1570,-145.5"/>
<text text-anchor="middle" x="1585" y="-152.5" font-family="Helvetica,sans-Serif" font-size="10.00">set</text>
</g>
<!-- Node27&#45;&gt;Node28 -->
<g id="edge37" class="edge"><title>Node27&#45;&gt;Node28</title>
<path fill="none" stroke="midnightblue" d="M1429.93,-206.975C1464.66,-195.56 1525.85,-175.445 1560.06,-164.198"/>
<polygon fill="midnightblue" stroke="midnightblue" points="1561.35,-167.46 1569.75,-161.012 1559.16,-160.81 1561.35,-167.46"/>
</g>
<!-- Node27&#45;&gt;Node29 -->
<g id="edge41" class="edge"><title>Node27&#45;&gt;Node29</title>
<path fill="none" stroke="midnightblue" d="M1445.41,-206.975C1503.52,-195.01 1608.06,-173.488 1660.76,-162.638"/>
<polygon fill="midnightblue" stroke="midnightblue" points="1661.79,-165.999 1670.88,-160.554 1660.38,-159.142 1661.79,-165.999"/>
</g>
<!-- Node32&#45;&gt;Node4 -->
<g id="edge47" class="edge"><title>Node32&#45;&gt;Node4</title>
<path fill="none" stroke="midnightblue" d="M1728.22,-268.434C1784.86,-238.521 1974.12,-138.575 2042.82,-102.299"/>
<polygon fill="midnightblue" stroke="midnightblue" points="2044.47,-105.382 2051.68,-97.6168 2041.21,-99.1917 2044.47,-105.382"/>
</g>
<!-- Node32&#45;&gt;Node28 -->
<g id="edge48" class="edge"><title>Node32&#45;&gt;Node28</title>
<path fill="none" stroke="midnightblue" d="M1720.43,-268.253C1733.84,-253.259 1756.96,-222.216 1741,-201 1725.24,-180.057 1650.07,-165.796 1610.11,-159.56"/>
<polygon fill="midnightblue" stroke="midnightblue" points="1610.49,-156.078 1600.08,-158.048 1609.45,-162.999 1610.49,-156.078"/>
</g>
<!-- Node32&#45;&gt;Node29 -->
<g id="edge49" class="edge"><title>Node32&#45;&gt;Node29</title>
<path fill="none" stroke="midnightblue" d="M1732.85,-268.427C1747.58,-261.129 1766.2,-249.091 1775,-232 1781.3,-219.749 1782.02,-212.856 1775,-201 1764.18,-182.724 1743.02,-171.377 1724.9,-164.649"/>
<polygon fill="midnightblue" stroke="midnightblue" points="1725.83,-161.268 1715.23,-161.372 1723.58,-167.897 1725.83,-161.268"/>
</g>
<!-- Node32&#45;&gt;Node30 -->
<g id="edge51" class="edge"><title>Node32&#45;&gt;Node30</title>
<path fill="none" stroke="midnightblue" d="M1694.09,-268.475C1673.11,-258.49 1638.15,-241.848 1613.91,-230.307"/>
<polygon fill="midnightblue" stroke="midnightblue" points="1615.41,-227.147 1604.88,-226.009 1612.4,-233.467 1615.41,-227.147"/>
</g>
<!-- Node32&#45;&gt;Node31 -->
<g id="edge50" class="edge"><title>Node32&#45;&gt;Node31</title>
<path fill="none" stroke="midnightblue" d="M1708.13,-268.475C1704.85,-261.245 1699.99,-250.525 1695.56,-240.779"/>
<polygon fill="midnightblue" stroke="midnightblue" points="1698.68,-239.183 1691.36,-231.523 1692.31,-242.076 1698.68,-239.183"/>
</g>
</g>
</svg>
