<?xml version="1.0" encoding="UTF-8" standalone="no"?>
<!DOCTYPE svg PUBLIC "-//W3C//DTD SVG 1.1//EN"
 "http://www.w3.org/Graphics/SVG/1.1/DTD/svg11.dtd">
<!-- Generated by graphviz version 2.40.1 (20161225.0304)
 -->
<!-- Title: /home/alejandro/Desarrollo eclipse/os1/include/Map.h Pages: 1 -->
<svg width="2344pt" height="508pt"
 viewBox="0.00 0.00 2344.00 508.00" xmlns="http://www.w3.org/2000/svg" xmlns:xlink="http://www.w3.org/1999/xlink">
<g id="graph0" class="graph" transform="scale(1 1) rotate(0) translate(4 504)">
<title>/home/alejandro/Desarrollo eclipse/os1/include/Map.h</title>
<polygon fill="#ffffff" stroke="transparent" points="-4,4 -4,-504 2340,-504 2340,4 -4,4"/>
<!-- Node22 -->
<g id="node1" class="node">
<title>Node22</title>
<polygon fill="#bfbfbf" stroke="#000000" points="1582.5,-469.5 1582.5,-499.5 1715.5,-499.5 1715.5,-469.5 1582.5,-469.5"/>
<text text-anchor="start" x="1590.5" y="-487.5" font-family="Helvetica,sans-Serif" font-size="10.00" fill="#000000">/home/alejandro/Desarrollo</text>
<text text-anchor="middle" x="1649" y="-476.5" font-family="Helvetica,sans-Serif" font-size="10.00" fill="#000000"> eclipse/os1/include/Map.h</text>
</g>
<!-- Node23 -->
<g id="node2" class="node">
<title>Node23</title>
<g id="a_node2"><a xlink:href="_map_point_8h.html" target="_top" xlink:title="/home/alejandro/Desarrollo\l eclipse/os1/include/MapPoint.h">
<polygon fill="#ffffff" stroke="#000000" points="1229.5,-402.5 1229.5,-432.5 1384.5,-432.5 1384.5,-402.5 1229.5,-402.5"/>
<text text-anchor="start" x="1237.5" y="-420.5" font-family="Helvetica,sans-Serif" font-size="10.00" fill="#000000">/home/alejandro/Desarrollo</text>
<text text-anchor="middle" x="1307" y="-409.5" font-family="Helvetica,sans-Serif" font-size="10.00" fill="#000000"> eclipse/os1/include/MapPoint.h</text>
</a>
</g>
</g>
<!-- Node22&#45;&gt;Node23 -->
<g id="edge1" class="edge">
<title>Node22&#45;&gt;Node23</title>
<path fill="none" stroke="#191970" d="M1572.3373,-469.4813C1516.0832,-458.4608 1440.0038,-443.5563 1383.7332,-432.5325"/>
<polygon fill="#191970" stroke="#191970" points="1571.7607,-472.9348 1582.2471,-471.4227 1573.1065,-466.0654 1571.7607,-472.9348"/>
</g>
<!-- Node26 -->
<g id="node5" class="node">
<title>Node26</title>
<g id="a_node5"><a xlink:href="_tracking_8h.html" target="_top" xlink:title="/home/alejandro/Desarrollo\l eclipse/os1/include/Tracking.h">
<polygon fill="#ffffff" stroke="#000000" points="1696,-201.5 1696,-231.5 1848,-231.5 1848,-201.5 1696,-201.5"/>
<text text-anchor="start" x="1704" y="-219.5" font-family="Helvetica,sans-Serif" font-size="10.00" fill="#000000">/home/alejandro/Desarrollo</text>
<text text-anchor="middle" x="1772" y="-208.5" font-family="Helvetica,sans-Serif" font-size="10.00" fill="#000000"> eclipse/os1/include/Tracking.h</text>
</a>
</g>
</g>
<!-- Node22&#45;&gt;Node26 -->
<g id="edge68" class="edge">
<title>Node22&#45;&gt;Node26</title>
<path fill="none" stroke="#191970" d="M1719.0424,-466.2719C1768.8259,-449.2515 1832.122,-418.3943 1863,-366 1873.0611,-348.9282 1864.5993,-283.0707 1855,-268 1844.7052,-251.8374 1827.3271,-239.9091 1811.1248,-231.6261"/>
<polygon fill="#191970" stroke="#191970" points="1717.6789,-463.0361 1709.2795,-469.4937 1719.8726,-469.6835 1717.6789,-463.0361"/>
</g>
<!-- Node27 -->
<g id="node6" class="node">
<title>Node27</title>
<g id="a_node6"><a xlink:href="_loop_closing_8h.html" target="_top" xlink:title="/home/alejandro/Desarrollo\l eclipse/os1/include/LoopClosing.h">
<polygon fill="#ffffff" stroke="#000000" points="1639,-134.5 1639,-164.5 1807,-164.5 1807,-134.5 1639,-134.5"/>
<text text-anchor="start" x="1647" y="-152.5" font-family="Helvetica,sans-Serif" font-size="10.00" fill="#000000">/home/alejandro/Desarrollo</text>
<text text-anchor="middle" x="1723" y="-141.5" font-family="Helvetica,sans-Serif" font-size="10.00" fill="#000000"> eclipse/os1/include/LoopClosing.h</text>
</a>
</g>
</g>
<!-- Node22&#45;&gt;Node27 -->
<g id="edge67" class="edge">
<title>Node22&#45;&gt;Node27</title>
<path fill="none" stroke="#191970" d="M1649,-459.1092C1649,-432.1594 1649,-388.3265 1649,-350.5 1649,-350.5 1649,-350.5 1649,-283.5 1649,-235.3983 1685.9921,-188.3297 1707.6672,-164.8791"/>
<polygon fill="#191970" stroke="#191970" points="1645.5001,-459.227 1649,-469.2271 1652.5001,-459.2271 1645.5001,-459.227"/>
</g>
<!-- Node28 -->
<g id="node7" class="node">
<title>Node28</title>
<g id="a_node7"><a xlink:href="_local_mapping_8h.html" target="_top" xlink:title="/home/alejandro/Desarrollo\l eclipse/os1/include/LocalMapping.h">
<polygon fill="#ffffff" stroke="#000000" points="1757,-67.5 1757,-97.5 1931,-97.5 1931,-67.5 1757,-67.5"/>
<text text-anchor="start" x="1765" y="-85.5" font-family="Helvetica,sans-Serif" font-size="10.00" fill="#000000">/home/alejandro/Desarrollo</text>
<text text-anchor="middle" x="1844" y="-74.5" font-family="Helvetica,sans-Serif" font-size="10.00" fill="#000000"> eclipse/os1/include/LocalMapping.h</text>
</a>
</g>
</g>
<!-- Node22&#45;&gt;Node28 -->
<g id="edge66" class="edge">
<title>Node22&#45;&gt;Node28</title>
<path fill="none" stroke="#191970" d="M1725.9681,-481.2805C1850.2275,-475.3471 2089.1761,-460.6855 2169,-433 2233.298,-410.6994 2298,-418.5555 2298,-350.5 2298,-350.5 2298,-350.5 2298,-216.5 2298,-171.6788 2278.3584,-157.1856 2240,-134 2189.6416,-103.5611 2031.9527,-90.8457 1931.4136,-85.7329"/>
<polygon fill="#191970" stroke="#191970" points="1725.5909,-477.7943 1715.7664,-481.7603 1725.9199,-484.7866 1725.5909,-477.7943"/>
</g>
<!-- Node30 -->
<g id="node9" class="node">
<title>Node30</title>
<g id="a_node9"><a xlink:href="_system_8cc.html" target="_top" xlink:title="/home/alejandro/Desarrollo\l eclipse/os1/src/System.cc">
<polygon fill="#ffffff" stroke="#000000" points="1891,-.5 1891,-30.5 2027,-30.5 2027,-.5 1891,-.5"/>
<text text-anchor="start" x="1899" y="-18.5" font-family="Helvetica,sans-Serif" font-size="10.00" fill="#000000">/home/alejandro/Desarrollo</text>
<text text-anchor="middle" x="1959" y="-7.5" font-family="Helvetica,sans-Serif" font-size="10.00" fill="#000000"> eclipse/os1/src/System.cc</text>
</a>
</g>
</g>
<!-- Node22&#45;&gt;Node30 -->
<g id="edge74" class="edge">
<title>Node22&#45;&gt;Node30</title>
<path fill="none" stroke="#191970" d="M1725.7404,-483.3311C1863.0067,-480.3245 2144.6681,-469.7402 2235,-433 2288.6899,-411.163 2336,-408.4608 2336,-350.5 2336,-350.5 2336,-350.5 2336,-149.5 2336,-89.0976 2283.1343,-91.6708 2228,-67 2163.4388,-38.111 2083.0838,-25.4065 2027.0865,-19.832"/>
<polygon fill="#191970" stroke="#191970" points="1725.6355,-479.8324 1715.7116,-483.5429 1725.7833,-486.8309 1725.6355,-479.8324"/>
</g>
<!-- Node31 -->
<g id="node10" class="node">
<title>Node31</title>
<g id="a_node10"><a xlink:href="_optimizer_8h.html" target="_top" xlink:title="/home/alejandro/Desarrollo\l eclipse/os1/include/Optimizer.h">
<polygon fill="#ffffff" stroke="#000000" points="1469,-67.5 1469,-97.5 1625,-97.5 1625,-67.5 1469,-67.5"/>
<text text-anchor="start" x="1477" y="-85.5" font-family="Helvetica,sans-Serif" font-size="10.00" fill="#000000">/home/alejandro/Desarrollo</text>
<text text-anchor="middle" x="1547" y="-74.5" font-family="Helvetica,sans-Serif" font-size="10.00" fill="#000000"> eclipse/os1/include/Optimizer.h</text>
</a>
</g>
</g>
<!-- Node22&#45;&gt;Node31 -->
<g id="edge70" class="edge">
<title>Node22&#45;&gt;Node31</title>
<path fill="none" stroke="#191970" d="M1637.6309,-459.9769C1626.4352,-433.5463 1611,-389.9532 1611,-350.5 1611,-350.5 1611,-350.5 1611,-216.5 1611,-169.5784 1578.6523,-121.6455 1559.9514,-97.855"/>
<polygon fill="#191970" stroke="#191970" points="1634.4601,-461.4617 1641.6732,-469.222 1640.8738,-458.6573 1634.4601,-461.4617"/>
</g>
<!-- Node35 -->
<g id="node14" class="node">
<title>Node35</title>
<g id="a_node14"><a xlink:href="_tracking_8cc.html" target="_top" xlink:title="/home/alejandro/Desarrollo\l eclipse/os1/src/Tracking.cc">
<polygon fill="#ffffff" stroke="#000000" points="662,-.5 662,-30.5 802,-30.5 802,-.5 662,-.5"/>
<text text-anchor="start" x="670" y="-18.5" font-family="Helvetica,sans-Serif" font-size="10.00" fill="#000000">/home/alejandro/Desarrollo</text>
<text text-anchor="middle" x="732" y="-7.5" font-family="Helvetica,sans-Serif" font-size="10.00" fill="#000000"> eclipse/os1/src/Tracking.cc</text>
</a>
</g>
</g>
<!-- Node22&#45;&gt;Node35 -->
<g id="edge75" class="edge">
<title>Node22&#45;&gt;Node35</title>
<path fill="none" stroke="#191970" d="M1572.0415,-482.3314C1246.5932,-472.6633 0,-430.4152 0,-350.5 0,-350.5 0,-350.5 0,-149.5 0,-82.6415 478.5991,-36.2933 661.8128,-21.0001"/>
<polygon fill="#191970" stroke="#191970" points="1572.2159,-485.838 1582.3149,-482.6348 1572.4226,-478.841 1572.2159,-485.838"/>
</g>
<!-- Node36 -->
<g id="node15" class="node">
<title>Node36</title>
<g id="a_node15"><a xlink:href="_osmap_8h.html" target="_top" xlink:title="/home/alejandro/Desarrollo\l eclipse/os1/include/Osmap.h">
<polygon fill="#ffffff" stroke="#000000" points="1323,-134.5 1323,-164.5 1469,-164.5 1469,-134.5 1323,-134.5"/>
<text text-anchor="start" x="1331" y="-152.5" font-family="Helvetica,sans-Serif" font-size="10.00" fill="#000000">/home/alejandro/Desarrollo</text>
<text text-anchor="middle" x="1396" y="-141.5" font-family="Helvetica,sans-Serif" font-size="10.00" fill="#000000"> eclipse/os1/include/Osmap.h</text>
</a>
</g>
</g>
<!-- Node22&#45;&gt;Node36 -->
<g id="edge71" class="edge">
<title>Node22&#45;&gt;Node36</title>
<path fill="none" stroke="#191970" d="M1622.8146,-462.2078C1613.8605,-453.6961 1604.2779,-443.4997 1597,-433 1569.8011,-393.7607 1578.4496,-375.3958 1553,-335 1509.3701,-265.7469 1441.7048,-194.9266 1411.4886,-164.6851"/>
<polygon fill="#191970" stroke="#191970" points="1620.7155,-465.0322 1630.4479,-469.2193 1625.4509,-459.8769 1620.7155,-465.0322"/>
</g>
<!-- Node39 -->
<g id="node18" class="node">
<title>Node39</title>
<g id="a_node18"><a xlink:href="_frame_drawer_8cc.html" target="_top" xlink:title="/home/alejandro/Desarrollo\l eclipse/os1/src/FrameDrawer.cc">
<polygon fill="#ffffff" stroke="#000000" points="2070.5,-134.5 2070.5,-164.5 2231.5,-164.5 2231.5,-134.5 2070.5,-134.5"/>
<text text-anchor="start" x="2078.5" y="-152.5" font-family="Helvetica,sans-Serif" font-size="10.00" fill="#000000">/home/alejandro/Desarrollo</text>
<text text-anchor="middle" x="2151" y="-141.5" font-family="Helvetica,sans-Serif" font-size="10.00" fill="#000000"> eclipse/os1/src/FrameDrawer.cc</text>
</a>
</g>
</g>
<!-- Node22&#45;&gt;Node39 -->
<g id="edge72" class="edge">
<title>Node22&#45;&gt;Node39</title>
<path fill="none" stroke="#191970" d="M1725.5802,-482.4911C1881.671,-476.3109 2222,-451.2805 2222,-350.5 2222,-350.5 2222,-350.5 2222,-283.5 2222,-235.5836 2186.1143,-188.0704 2165.3679,-164.6056"/>
<polygon fill="#191970" stroke="#191970" points="1725.4306,-478.9942 1715.5707,-482.8715 1725.6965,-485.9891 1725.4306,-478.9942"/>
</g>
<!-- Node50 -->
<g id="node29" class="node">
<title>Node50</title>
<g id="a_node29"><a xlink:href="_map_drawer_8h.html" target="_top" xlink:title="/home/alejandro/Desarrollo\l eclipse/os1/include/MapDrawer.h">
<polygon fill="#ffffff" stroke="#000000" points="1690,-335.5 1690,-365.5 1854,-365.5 1854,-335.5 1690,-335.5"/>
<text text-anchor="start" x="1698" y="-353.5" font-family="Helvetica,sans-Serif" font-size="10.00" fill="#000000">/home/alejandro/Desarrollo</text>
<text text-anchor="middle" x="1772" y="-342.5" font-family="Helvetica,sans-Serif" font-size="10.00" fill="#000000"> eclipse/os1/include/MapDrawer.h</text>
</a>
</g>
</g>
<!-- Node22&#45;&gt;Node50 -->
<g id="edge69" class="edge">
<title>Node22&#45;&gt;Node50</title>
<path fill="none" stroke="#191970" d="M1669.7878,-461.8532C1694.8851,-434.5114 1736.4054,-389.2779 1757.9914,-365.7614"/>
<polygon fill="#191970" stroke="#191970" points="1667.0544,-459.6552 1662.8706,-469.389 1672.2113,-464.3888 1667.0544,-459.6552"/>
</g>
<!-- Node52 -->
<g id="node31" class="node">
<title>Node52</title>
<g id="a_node31"><a xlink:href="_map_8cc.html" target="_top" xlink:title="/home/alejandro/Desarrollo\l eclipse/os1/src/Map.cc">
<polygon fill="#ffffff" stroke="#000000" points="1411.5,-335.5 1411.5,-365.5 1544.5,-365.5 1544.5,-335.5 1411.5,-335.5"/>
<text text-anchor="start" x="1419.5" y="-353.5" font-family="Helvetica,sans-Serif" font-size="10.00" fill="#000000">/home/alejandro/Desarrollo</text>
<text text-anchor="middle" x="1478" y="-342.5" font-family="Helvetica,sans-Serif" font-size="10.00" fill="#000000"> eclipse/os1/src/Map.cc</text>
</a>
</g>
</g>
<!-- Node22&#45;&gt;Node52 -->
<g id="edge73" class="edge">
<title>Node22&#45;&gt;Node52</title>
<path fill="none" stroke="#191970" d="M1608.5241,-464.4283C1592.4755,-455.6943 1574.2507,-444.7668 1559,-433 1532.3016,-412.4005 1505.761,-383.3081 1490.6692,-365.7411"/>
<polygon fill="#191970" stroke="#191970" points="1607.2114,-467.6947 1617.6828,-469.3072 1610.5025,-461.5166 1607.2114,-467.6947"/>
</g>
<!-- Node24 -->
<g id="node3" class="node">
<title>Node24</title>
<g id="a_node3"><a xlink:href="_frame_8h.html" target="_top" xlink:title="/home/alejandro/Desarrollo\l eclipse/os1/include/Frame.h">
<polygon fill="#ffffff" stroke="#000000" points="1101,-335.5 1101,-365.5 1243,-365.5 1243,-335.5 1101,-335.5"/>
<text text-anchor="start" x="1109" y="-353.5" font-family="Helvetica,sans-Serif" font-size="10.00" fill="#000000">/home/alejandro/Desarrollo</text>
<text text-anchor="middle" x="1172" y="-342.5" font-family="Helvetica,sans-Serif" font-size="10.00" fill="#000000"> eclipse/os1/include/Frame.h</text>
</a>
</g>
</g>
<!-- Node23&#45;&gt;Node24 -->
<g id="edge2" class="edge">
<title>Node23&#45;&gt;Node24</title>
<path fill="none" stroke="#191970" d="M1261.9121,-398.1902C1240.2346,-387.8685 1215.134,-375.3421 1196.9,-365.7177"/>
<polygon fill="#191970" stroke="#191970" points="1260.4258,-401.3589 1270.9628,-402.4639 1263.4147,-395.0291 1260.4258,-401.3589"/>
</g>
<!-- Node23&#45;&gt;Node31 -->
<g id="edge57" class="edge">
<title>Node23&#45;&gt;Node31</title>
<path fill="none" stroke="#191970" d="M1321.2672,-393.794C1331.4574,-377.1328 1345.6676,-354.4376 1359,-335 1422.3733,-242.6066 1504.8054,-136.2712 1535.1343,-97.5701"/>
<polygon fill="#191970" stroke="#191970" points="1318.2571,-392.0078 1316.0507,-402.3704 1324.2377,-395.6455 1318.2571,-392.0078"/>
</g>
<!-- Node23&#45;&gt;Node36 -->
<g id="edge59" class="edge">
<title>Node23&#45;&gt;Node36</title>
<path fill="none" stroke="#191970" d="M1313.036,-392.3164C1317.3152,-375.7679 1323.5992,-353.7846 1331,-335 1349.7976,-287.2886 1367.2632,-280.8066 1383,-232 1390.3418,-209.2299 1393.62,-181.5397 1395.0229,-164.7309"/>
<polygon fill="#191970" stroke="#191970" points="1309.5654,-391.7666 1310.5218,-402.3181 1316.3542,-393.4731 1309.5654,-391.7666"/>
</g>
<!-- Node23&#45;&gt;Node39 -->
<g id="edge61" class="edge">
<title>Node23&#45;&gt;Node39</title>
<path fill="none" stroke="#191970" d="M1394.8195,-415.1816C1529.4179,-410.6529 1779.8753,-398.0964 1863,-366 1984.3747,-319.1344 2098.6405,-205.5016 2137.2231,-164.5369"/>
<polygon fill="#191970" stroke="#191970" points="1394.4203,-411.6927 1384.5407,-415.5194 1394.6503,-418.6889 1394.4203,-411.6927"/>
</g>
<!-- Node41 -->
<g id="node20" class="node">
<title>Node41</title>
<g id="a_node20"><a xlink:href="_o_r_bmatcher_8h.html" target="_top" xlink:title="/home/alejandro/Desarrollo\l eclipse/os1/include/ORBmatcher.h">
<polygon fill="#ffffff" stroke="#000000" points="678.5,-268.5 678.5,-298.5 849.5,-298.5 849.5,-268.5 678.5,-268.5"/>
<text text-anchor="start" x="686.5" y="-286.5" font-family="Helvetica,sans-Serif" font-size="10.00" fill="#000000">/home/alejandro/Desarrollo</text>
<text text-anchor="middle" x="764" y="-275.5" font-family="Helvetica,sans-Serif" font-size="10.00" fill="#000000"> eclipse/os1/include/ORBmatcher.h</text>
</a>
</g>
</g>
<!-- Node23&#45;&gt;Node41 -->
<g id="edge58" class="edge">
<title>Node23&#45;&gt;Node41</title>
<path fill="none" stroke="#191970" d="M1233.6799,-400.1542C1192.0936,-390.2615 1139.1044,-377.5651 1092,-366 997.767,-342.8638 888.5191,-315.2207 822.9058,-298.5295"/>
<polygon fill="#191970" stroke="#191970" points="1232.9145,-403.5697 1243.4529,-402.4774 1234.5334,-396.7595 1232.9145,-403.5697"/>
</g>
<!-- Node43 -->
<g id="node22" class="node">
<title>Node43</title>
<g id="a_node22"><a xlink:href="_key_frame_8cc.html" target="_top" xlink:title="/home/alejandro/Desarrollo\l eclipse/os1/src/KeyFrame.cc">
<polygon fill="#ffffff" stroke="#000000" points="392.5,-201.5 392.5,-231.5 539.5,-231.5 539.5,-201.5 392.5,-201.5"/>
<text text-anchor="start" x="400.5" y="-219.5" font-family="Helvetica,sans-Serif" font-size="10.00" fill="#000000">/home/alejandro/Desarrollo</text>
<text text-anchor="middle" x="466" y="-208.5" font-family="Helvetica,sans-Serif" font-size="10.00" fill="#000000"> eclipse/os1/src/KeyFrame.cc</text>
</a>
</g>
</g>
<!-- Node23&#45;&gt;Node43 -->
<g id="edge62" class="edge">
<title>Node23&#45;&gt;Node43</title>
<path fill="none" stroke="#191970" d="M1219.1189,-408.7905C1050.6351,-391.1973 688.7118,-348.8247 574,-299 536.5604,-282.7382 500.4013,-250.7791 480.8899,-231.7651"/>
<polygon fill="#191970" stroke="#191970" points="1218.8904,-412.2855 1229.1986,-409.8375 1219.6138,-405.323 1218.8904,-412.2855"/>
</g>
<!-- Node44 -->
<g id="node23" class="node">
<title>Node44</title>
<g id="a_node23"><a xlink:href="_map_point_8cc.html" target="_top" xlink:title="/home/alejandro/Desarrollo\l eclipse/os1/src/MapPoint.cc">
<polygon fill="#ffffff" stroke="#000000" points="231.5,-201.5 231.5,-231.5 374.5,-231.5 374.5,-201.5 231.5,-201.5"/>
<text text-anchor="start" x="239.5" y="-219.5" font-family="Helvetica,sans-Serif" font-size="10.00" fill="#000000">/home/alejandro/Desarrollo</text>
<text text-anchor="middle" x="303" y="-208.5" font-family="Helvetica,sans-Serif" font-size="10.00" fill="#000000"> eclipse/os1/src/MapPoint.cc</text>
</a>
</g>
</g>
<!-- Node23&#45;&gt;Node44 -->
<g id="edge65" class="edge">
<title>Node23&#45;&gt;Node44</title>
<path fill="none" stroke="#191970" d="M1219.4357,-412.8549C1076.7949,-404.8094 800.5899,-387.1023 705,-366 620.0156,-347.239 602.5889,-329.2914 521,-299 458.4047,-275.7603 385.937,-248.2059 342.3264,-231.5529"/>
<polygon fill="#191970" stroke="#191970" points="1219.2905,-416.3522 1229.4707,-413.4174 1219.6823,-409.3631 1219.2905,-416.3522"/>
</g>
<!-- Node47 -->
<g id="node26" class="node">
<title>Node47</title>
<g id="a_node26"><a xlink:href="_pn_psolver_8h.html" target="_top" xlink:title="/home/alejandro/Desarrollo\l eclipse/os1/include/PnPsolver.h">
<polygon fill="#ffffff" stroke="#000000" points="88.5,-268.5 88.5,-298.5 247.5,-298.5 247.5,-268.5 88.5,-268.5"/>
<text text-anchor="start" x="96.5" y="-286.5" font-family="Helvetica,sans-Serif" font-size="10.00" fill="#000000">/home/alejandro/Desarrollo</text>
<text text-anchor="middle" x="168" y="-275.5" font-family="Helvetica,sans-Serif" font-size="10.00" fill="#000000"> eclipse/os1/include/PnPsolver.h</text>
</a>
</g>
</g>
<!-- Node23&#45;&gt;Node47 -->
<g id="edge60" class="edge">
<title>Node23&#45;&gt;Node47</title>
<path fill="none" stroke="#191970" d="M1219.076,-416.3848C1018.0813,-413.2342 530.0369,-402.0099 370,-366 305.1395,-351.4058 234.274,-318.0487 196.1197,-298.5133"/>
<polygon fill="#191970" stroke="#191970" points="1219.2439,-419.8877 1229.2965,-416.5419 1219.3515,-412.8885 1219.2439,-419.8877"/>
</g>
<!-- Node23&#45;&gt;Node50 -->
<g id="edge52" class="edge">
<title>Node23&#45;&gt;Node50</title>
<path fill="none" stroke="#191970" d="M1394.6941,-404.8645C1479.5066,-392.6442 1607.0329,-374.2695 1689.9017,-362.3292"/>
<polygon fill="#191970" stroke="#191970" points="1393.9674,-401.433 1384.5688,-406.3234 1394.9657,-408.3614 1393.9674,-401.433"/>
</g>
<!-- Node51 -->
<g id="node30" class="node">
<title>Node51</title>
<g id="a_node30"><a xlink:href="_map_drawer_8cc.html" target="_top" xlink:title="/home/alejandro/Desarrollo\l eclipse/os1/src/MapDrawer.cc">
<polygon fill="#ffffff" stroke="#000000" points="1677,-268.5 1677,-298.5 1829,-298.5 1829,-268.5 1677,-268.5"/>
<text text-anchor="start" x="1685" y="-286.5" font-family="Helvetica,sans-Serif" font-size="10.00" fill="#000000">/home/alejandro/Desarrollo</text>
<text text-anchor="middle" x="1753" y="-275.5" font-family="Helvetica,sans-Serif" font-size="10.00" fill="#000000"> eclipse/os1/src/MapDrawer.cc</text>
</a>
</g>
</g>
<!-- Node23&#45;&gt;Node51 -->
<g id="edge64" class="edge">
<title>Node23&#45;&gt;Node51</title>
<path fill="none" stroke="#191970" d="M1329.6332,-395.1712C1352.2654,-373.3508 1385.9478,-342.3694 1402,-335 1449.5772,-313.1578 1588.7496,-297.6143 1676.8867,-289.6361"/>
<polygon fill="#191970" stroke="#191970" points="1327.1589,-392.6952 1322.423,-402.1726 1332.0355,-397.7172 1327.1589,-392.6952"/>
</g>
<!-- Node23&#45;&gt;Node52 -->
<g id="edge63" class="edge">
<title>Node23&#45;&gt;Node52</title>
<path fill="none" stroke="#191970" d="M1354.912,-398.7275C1381.616,-388.2645 1414.4277,-375.4084 1439.4569,-365.6017"/>
<polygon fill="#191970" stroke="#191970" points="1353.4097,-395.5569 1345.3757,-402.4639 1355.9634,-402.0745 1353.4097,-395.5569"/>
</g>
<!-- Node24&#45;&gt;Node23 -->
<g id="edge3" class="edge">
<title>Node24&#45;&gt;Node23</title>
<path fill="none" stroke="#191970" d="M1217.4982,-370.0052C1239.2184,-380.3545 1264.297,-392.8763 1282.4439,-402.4639"/>
<polygon fill="#191970" stroke="#191970" points="1218.9619,-366.8258 1208.4252,-365.7177 1215.9711,-373.1548 1218.9619,-366.8258"/>
</g>
<!-- Node25 -->
<g id="node4" class="node">
<title>Node25</title>
<g id="a_node4"><a xlink:href="_initializer_8h.html" target="_top" xlink:title="/home/alejandro/Desarrollo\l eclipse/os1/include/Initializer.h">
<polygon fill="#ffffff" stroke="#000000" points="906.5,-268.5 906.5,-298.5 1059.5,-298.5 1059.5,-268.5 906.5,-268.5"/>
<text text-anchor="start" x="914.5" y="-286.5" font-family="Helvetica,sans-Serif" font-size="10.00" fill="#000000">/home/alejandro/Desarrollo</text>
<text text-anchor="middle" x="983" y="-275.5" font-family="Helvetica,sans-Serif" font-size="10.00" fill="#000000"> eclipse/os1/include/Initializer.h</text>
</a>
</g>
</g>
<!-- Node24&#45;&gt;Node25 -->
<g id="edge4" class="edge">
<title>Node24&#45;&gt;Node25</title>
<path fill="none" stroke="#191970" d="M1119.8198,-332.0023C1090.1666,-321.4903 1053.5068,-308.4945 1025.6003,-298.6017"/>
<polygon fill="#191970" stroke="#191970" points="1118.99,-335.4214 1129.5847,-335.4639 1121.3289,-328.8237 1118.99,-335.4214"/>
</g>
<!-- Node24&#45;&gt;Node26 -->
<g id="edge33" class="edge">
<title>Node24&#45;&gt;Node26</title>
<path fill="none" stroke="#191970" d="M1249.4571,-333.2012C1367.9562,-306.7365 1592.2848,-256.6364 1704.5094,-231.5729"/>
<polygon fill="#191970" stroke="#191970" points="1248.3676,-329.8583 1239.371,-335.4538 1249.8934,-336.69 1248.3676,-329.8583"/>
</g>
<!-- Node24&#45;&gt;Node31 -->
<g id="edge34" class="edge">
<title>Node24&#45;&gt;Node31</title>
<path fill="none" stroke="#191970" d="M1232.1943,-331.1634C1248.1319,-323.4327 1263.9523,-312.9553 1275,-299 1321.7717,-239.9184 1260.3299,-186.8937 1314,-134 1325.2309,-122.9316 1405.5152,-106.813 1468.7447,-95.5661"/>
<polygon fill="#191970" stroke="#191970" points="1230.4977,-328.0895 1222.8322,-335.4033 1233.3855,-334.4661 1230.4977,-328.0895"/>
</g>
<!-- Node24&#45;&gt;Node36 -->
<g id="edge45" class="edge">
<title>Node24&#45;&gt;Node36</title>
<path fill="none" stroke="#191970" d="M1248.559,-332.0649C1269.7494,-324.3466 1291.6655,-313.6501 1309,-299 1353.4955,-261.3951 1380.5148,-194.9303 1390.9925,-164.9421"/>
<polygon fill="#191970" stroke="#191970" points="1247.2015,-328.8308 1238.893,-335.405 1249.4878,-335.4469 1247.2015,-328.8308"/>
</g>
<!-- Node24&#45;&gt;Node41 -->
<g id="edge35" class="edge">
<title>Node24&#45;&gt;Node41</title>
<path fill="none" stroke="#191970" d="M1090.8716,-337.1774C1021.1361,-325.7258 920.8696,-309.2605 849.8099,-297.5913"/>
<polygon fill="#191970" stroke="#191970" points="1090.4968,-340.6627 1100.9318,-338.8295 1091.6312,-333.7552 1090.4968,-340.6627"/>
</g>
<!-- Node42 -->
<g id="node21" class="node">
<title>Node42</title>
<g id="a_node21"><a xlink:href="_frame_8cc.html" target="_top" xlink:title="/home/alejandro/Desarrollo\l eclipse/os1/src/Frame.cc">
<polygon fill="#ffffff" stroke="#000000" points="1019.5,-201.5 1019.5,-231.5 1152.5,-231.5 1152.5,-201.5 1019.5,-201.5"/>
<text text-anchor="start" x="1027.5" y="-219.5" font-family="Helvetica,sans-Serif" font-size="10.00" fill="#000000">/home/alejandro/Desarrollo</text>
<text text-anchor="middle" x="1086" y="-208.5" font-family="Helvetica,sans-Serif" font-size="10.00" fill="#000000"> eclipse/os1/src/Frame.cc</text>
</a>
</g>
</g>
<!-- Node24&#45;&gt;Node42 -->
<g id="edge49" class="edge">
<title>Node24&#45;&gt;Node42</title>
<path fill="none" stroke="#191970" d="M1090.8494,-346.4757C1018.8103,-341.0018 921.2973,-328.27 897,-299 888.1999,-288.3988 888.6358,-278.9484 897,-268 904.7294,-257.8826 968.0879,-241.9795 1019.349,-230.5216"/>
<polygon fill="#191970" stroke="#191970" points="1090.6079,-349.9673 1100.8351,-347.2009 1091.1149,-342.9857 1090.6079,-349.9673"/>
</g>
<!-- Node24&#45;&gt;Node43 -->
<g id="edge50" class="edge">
<title>Node24&#45;&gt;Node43</title>
<path fill="none" stroke="#191970" d="M1090.8731,-345.0046C969.548,-336.3088 746.7783,-318.3656 669,-299 604.7674,-283.0071 534.07,-250.6416 495.3698,-231.5483"/>
<polygon fill="#191970" stroke="#191970" points="1090.6359,-348.4964 1100.8593,-345.7158 1091.1333,-341.5141 1090.6359,-348.4964"/>
</g>
<!-- Node24&#45;&gt;Node47 -->
<g id="edge46" class="edge">
<title>Node24&#45;&gt;Node47</title>
<path fill="none" stroke="#191970" d="M1090.4469,-345.0577C901.3413,-332.4381 434.8341,-301.3067 247.6276,-288.8138"/>
<polygon fill="#191970" stroke="#191970" points="1090.3888,-348.5615 1100.5997,-345.7352 1090.8549,-341.5771 1090.3888,-348.5615"/>
</g>
<!-- Node49 -->
<g id="node28" class="node">
<title>Node49</title>
<g id="a_node28"><a xlink:href="_key_frame_database_8cc.html" target="_top" xlink:title="/home/alejandro/Desarrollo\l eclipse/os1/src/KeyFrameDatabase.cc">
<polygon fill="#ffffff" stroke="#000000" points="1077.5,-268.5 1077.5,-298.5 1266.5,-298.5 1266.5,-268.5 1077.5,-268.5"/>
<text text-anchor="start" x="1085.5" y="-286.5" font-family="Helvetica,sans-Serif" font-size="10.00" fill="#000000">/home/alejandro/Desarrollo</text>
<text text-anchor="middle" x="1172" y="-275.5" font-family="Helvetica,sans-Serif" font-size="10.00" fill="#000000"> eclipse/os1/src/KeyFrameDatabase.cc</text>
</a>
</g>
</g>
<!-- Node24&#45;&gt;Node49 -->
<g id="edge51" class="edge">
<title>Node24&#45;&gt;Node49</title>
<path fill="none" stroke="#191970" d="M1172,-325.0249C1172,-316.128 1172,-306.4287 1172,-298.6432"/>
<polygon fill="#191970" stroke="#191970" points="1168.5001,-325.2966 1172,-335.2967 1175.5001,-325.2967 1168.5001,-325.2966"/>
</g>
<!-- Node25&#45;&gt;Node26 -->
<g id="edge5" class="edge">
<title>Node25&#45;&gt;Node26</title>
<path fill="none" stroke="#191970" d="M1069.8838,-267.8355C1303.1297,-238.625 1568.3827,-224.8138 1695.9429,-219.3852"/>
<polygon fill="#191970" stroke="#191970" points="1069.3353,-264.3769 1059.8534,-269.1038 1070.2135,-271.3216 1069.3353,-264.3769"/>
</g>
<!-- Node32 -->
<g id="node11" class="node">
<title>Node32</title>
<g id="a_node11"><a xlink:href="_initializer_8cc.html" target="_top" xlink:title="/home/alejandro/Desarrollo\l eclipse/os1/src/Initializer.cc">
<polygon fill="#ffffff" stroke="#000000" points="985.5,-.5 985.5,-30.5 1126.5,-30.5 1126.5,-.5 985.5,-.5"/>
<text text-anchor="start" x="993.5" y="-18.5" font-family="Helvetica,sans-Serif" font-size="10.00" fill="#000000">/home/alejandro/Desarrollo</text>
<text text-anchor="middle" x="1056" y="-7.5" font-family="Helvetica,sans-Serif" font-size="10.00" fill="#000000"> eclipse/os1/src/Initializer.cc</text>
</a>
</g>
</g>
<!-- Node25&#45;&gt;Node32 -->
<g id="edge31" class="edge">
<title>Node25&#45;&gt;Node32</title>
<path fill="none" stroke="#191970" d="M1069.8843,-267.6222C1124.7716,-256.7085 1186.8462,-242.3716 1195,-232 1242.2355,-171.916 1145.511,-214.5912 1075,-98 1062.2218,-76.8711 1058.0324,-47.9441 1056.6621,-30.5534"/>
<polygon fill="#191970" stroke="#191970" points="1068.8705,-264.2545 1059.7339,-269.6185 1070.2214,-271.1229 1068.8705,-264.2545"/>
</g>
<!-- Node25&#45;&gt;Node35 -->
<g id="edge32" class="edge">
<title>Node25&#45;&gt;Node35</title>
<path fill="none" stroke="#191970" d="M1058.8504,-266.044C1104.2461,-254.8313 1154.4044,-240.7744 1161,-232 1169.2786,-220.9867 1168.566,-212.5145 1161,-201 1149.4006,-183.3471 872.7847,-71.6611 769.9975,-30.6112"/>
<polygon fill="#191970" stroke="#191970" points="1057.8366,-262.6887 1048.9537,-268.463 1059.4988,-269.4885 1057.8366,-262.6887"/>
</g>
<!-- Node26&#45;&gt;Node27 -->
<g id="edge6" class="edge">
<title>Node26&#45;&gt;Node27</title>
<path fill="none" stroke="#191970" d="M1748.615,-193.3509C1741.1072,-183.8482 1733.4901,-173.1132 1728.3213,-164.6432"/>
<polygon fill="#191970" stroke="#191970" points="1746.0773,-195.7763 1755.1203,-201.2967 1751.4936,-191.3419 1746.0773,-195.7763"/>
</g>
<!-- Node26&#45;&gt;Node28 -->
<g id="edge22" class="edge">
<title>Node26&#45;&gt;Node28</title>
<path fill="none" stroke="#191970" d="M1786.3749,-193.5676C1793.3602,-185.1147 1801.2444,-175.12 1807,-165 1819.4875,-143.0433 1827.5982,-114.6251 1834.2268,-97.5195"/>
<polygon fill="#191970" stroke="#191970" points="1783.5156,-191.5316 1779.8014,-201.454 1788.8927,-196.0135 1783.5156,-191.5316"/>
</g>
<!-- Node26&#45;&gt;Node30 -->
<g id="edge28" class="edge">
<title>Node26&#45;&gt;Node30</title>
<path fill="none" stroke="#191970" d="M1816.2519,-196.8042C1854.9066,-177.2836 1909.476,-143.6916 1940,-98 1953.7164,-77.4677 1957.6127,-48.3543 1958.6705,-30.765"/>
<polygon fill="#191970" stroke="#191970" points="1814.2167,-193.905 1806.7916,-201.4627 1817.3091,-200.1849 1814.2167,-193.905"/>
</g>
<!-- Node26&#45;&gt;Node35 -->
<g id="edge29" class="edge">
<title>Node26&#45;&gt;Node35</title>
<path fill="none" stroke="#191970" d="M1720.0248,-198.0367C1693.0936,-188.3721 1659.7089,-176.2393 1630,-165 1554.0421,-136.264 1535.4461,-128.0541 1460,-98 1425.7276,-84.3475 1418.913,-75.4408 1383,-67 1327.6098,-53.9814 958.7668,-29.7114 802.1392,-19.8418"/>
<polygon fill="#191970" stroke="#191970" points="1719.0415,-201.4023 1729.6361,-201.4795 1721.4021,-194.8123 1719.0415,-201.4023"/>
</g>
<!-- Node26&#45;&gt;Node36 -->
<g id="edge23" class="edge">
<title>Node26&#45;&gt;Node36</title>
<path fill="none" stroke="#191970" d="M1686.0122,-201.1777C1620.475,-189.4995 1531.2147,-173.5941 1469.0994,-162.5257"/>
<polygon fill="#191970" stroke="#191970" points="1685.4518,-204.6329 1695.9108,-202.9416 1686.6799,-197.7415 1685.4518,-204.6329"/>
</g>
<!-- Node37 -->
<g id="node16" class="node">
<title>Node37</title>
<g id="a_node16"><a xlink:href="main_8cc.html" target="_top" xlink:title="/home/alejandro/Desarrollo\l eclipse/os1/src/main.cc">
<polygon fill="#ffffff" stroke="#000000" points="1241.5,-67.5 1241.5,-97.5 1374.5,-97.5 1374.5,-67.5 1241.5,-67.5"/>
<text text-anchor="start" x="1249.5" y="-85.5" font-family="Helvetica,sans-Serif" font-size="10.00" fill="#000000">/home/alejandro/Desarrollo</text>
<text text-anchor="middle" x="1308" y="-74.5" font-family="Helvetica,sans-Serif" font-size="10.00" fill="#000000"> eclipse/os1/src/main.cc</text>
</a>
</g>
</g>
<!-- Node26&#45;&gt;Node37 -->
<g id="edge27" class="edge">
<title>Node26&#45;&gt;Node37</title>
<path fill="none" stroke="#191970" d="M1689.9485,-199.2493C1650.0937,-190.215 1601.7019,-178.2736 1559,-165 1522.1909,-153.5581 1514.4686,-146.4847 1478,-134 1439.1957,-120.7157 1394.8264,-107.3341 1361.1482,-97.5419"/>
<polygon fill="#191970" stroke="#191970" points="1689.3644,-202.7052 1699.8885,-201.4825 1690.899,-195.8755 1689.3644,-202.7052"/>
</g>
<!-- Node26&#45;&gt;Node39 -->
<g id="edge26" class="edge">
<title>Node26&#45;&gt;Node39</title>
<path fill="none" stroke="#191970" d="M1858.26,-201.2509C1921.9315,-189.995 2007.9847,-174.7824 2070.2995,-163.7663"/>
<polygon fill="#191970" stroke="#191970" points="1857.4784,-197.8347 1848.2404,-203.0221 1858.697,-204.7278 1857.4784,-197.8347"/>
</g>
<!-- Node40 -->
<g id="node19" class="node">
<title>Node40</title>
<g id="a_node19"><a xlink:href="_viewer_8cc.html" target="_top" xlink:title="/home/alejandro/Desarrollo\l eclipse/os1/src/Viewer.cc">
<polygon fill="#ffffff" stroke="#000000" points="1919.5,-134.5 1919.5,-164.5 2052.5,-164.5 2052.5,-134.5 1919.5,-134.5"/>
<text text-anchor="start" x="1927.5" y="-152.5" font-family="Helvetica,sans-Serif" font-size="10.00" fill="#000000">/home/alejandro/Desarrollo</text>
<text text-anchor="middle" x="1986" y="-141.5" font-family="Helvetica,sans-Serif" font-size="10.00" fill="#000000"> eclipse/os1/src/Viewer.cc</text>
</a>
</g>
</g>
<!-- Node26&#45;&gt;Node40 -->
<g id="edge30" class="edge">
<title>Node26&#45;&gt;Node40</title>
<path fill="none" stroke="#191970" d="M1829.7726,-198.4123C1863.5734,-187.8298 1905.7548,-174.6235 1937.7648,-164.6017"/>
<polygon fill="#191970" stroke="#191970" points="1828.5232,-195.1359 1820.0258,-201.4639 1830.6148,-201.8161 1828.5232,-195.1359"/>
</g>
<!-- Node27&#45;&gt;Node26 -->
<g id="edge12" class="edge">
<title>Node27&#45;&gt;Node26</title>
<path fill="none" stroke="#191970" d="M1746.3317,-172.5817C1753.839,-182.0785 1761.4616,-192.816 1766.642,-201.2967"/>
<polygon fill="#191970" stroke="#191970" points="1748.8731,-170.1609 1739.8284,-164.6432 1743.4581,-174.5969 1748.8731,-170.1609"/>
</g>
<!-- Node27&#45;&gt;Node28 -->
<g id="edge7" class="edge">
<title>Node27&#45;&gt;Node28</title>
<path fill="none" stroke="#191970" d="M1753.1306,-129.3561C1770.6698,-119.1995 1792.7116,-107.0843 1810.7547,-97.7177"/>
<polygon fill="#191970" stroke="#191970" points="1751.2725,-126.3883 1744.4142,-134.4639 1754.8116,-132.4277 1751.2725,-126.3883"/>
</g>
<!-- Node29 -->
<g id="node8" class="node">
<title>Node29</title>
<g id="a_node8"><a xlink:href="_local_mapping_8cc.html" target="_top" xlink:title="/home/alejandro/Desarrollo\l eclipse/os1/src/LocalMapping.cc">
<polygon fill="#ffffff" stroke="#000000" points="1623,-.5 1623,-30.5 1785,-30.5 1785,-.5 1623,-.5"/>
<text text-anchor="start" x="1631" y="-18.5" font-family="Helvetica,sans-Serif" font-size="10.00" fill="#000000">/home/alejandro/Desarrollo</text>
<text text-anchor="middle" x="1704" y="-7.5" font-family="Helvetica,sans-Serif" font-size="10.00" fill="#000000"> eclipse/os1/src/LocalMapping.cc</text>
</a>
</g>
</g>
<!-- Node27&#45;&gt;Node29 -->
<g id="edge19" class="edge">
<title>Node27&#45;&gt;Node29</title>
<path fill="none" stroke="#191970" d="M1718.9699,-124.2715C1717.6647,-115.9153 1716.2359,-106.5636 1715,-98 1711.6151,-74.5455 1708.0527,-47.2841 1705.9294,-30.719"/>
<polygon fill="#191970" stroke="#191970" points="1715.5188,-124.8563 1720.5332,-134.1893 1722.4334,-123.7663 1715.5188,-124.8563"/>
</g>
<!-- Node27&#45;&gt;Node30 -->
<g id="edge21" class="edge">
<title>Node27&#45;&gt;Node30</title>
<path fill="none" stroke="#191970" d="M1724.1914,-124.3676C1726.4133,-105.9934 1732.3727,-81.793 1748,-67 1768.538,-47.5585 1837.4492,-33.2188 1890.995,-24.6771"/>
<polygon fill="#191970" stroke="#191970" points="1720.6996,-124.1194 1723.2703,-134.3976 1727.6703,-124.7596 1720.6996,-124.1194"/>
</g>
<!-- Node27&#45;&gt;Node31 -->
<g id="edge13" class="edge">
<title>Node27&#45;&gt;Node31</title>
<path fill="none" stroke="#191970" d="M1674.0484,-130.865C1646.4986,-120.3773 1612.5441,-107.4515 1586.6701,-97.6017"/>
<polygon fill="#191970" stroke="#191970" points="1672.9112,-134.1771 1683.5022,-134.4639 1675.4017,-127.6351 1672.9112,-134.1771"/>
</g>
<!-- Node33 -->
<g id="node12" class="node">
<title>Node33</title>
<g id="a_node12"><a xlink:href="_loop_closing_8cc.html" target="_top" xlink:title="/home/alejandro/Desarrollo\l eclipse/os1/src/LoopClosing.cc">
<polygon fill="#ffffff" stroke="#000000" points="1287,-.5 1287,-30.5 1443,-30.5 1443,-.5 1287,-.5"/>
<text text-anchor="start" x="1295" y="-18.5" font-family="Helvetica,sans-Serif" font-size="10.00" fill="#000000">/home/alejandro/Desarrollo</text>
<text text-anchor="middle" x="1365" y="-7.5" font-family="Helvetica,sans-Serif" font-size="10.00" fill="#000000"> eclipse/os1/src/LoopClosing.cc</text>
</a>
</g>
</g>
<!-- Node27&#45;&gt;Node33 -->
<g id="edge20" class="edge">
<title>Node27&#45;&gt;Node33</title>
<path fill="none" stroke="#191970" d="M1704.8144,-126.6377C1688.38,-107.6133 1662.4586,-81.3965 1634,-67 1629.6642,-64.8066 1521.1412,-44.408 1443.2824,-29.9532"/>
<polygon fill="#191970" stroke="#191970" points="1702.1406,-128.8963 1711.2566,-134.2953 1707.4971,-124.3899 1702.1406,-128.8963"/>
</g>
<!-- Node28&#45;&gt;Node26 -->
<g id="edge9" class="edge">
<title>Node28&#45;&gt;Node26</title>
<path fill="none" stroke="#191970" d="M1845.7349,-107.7331C1842.5421,-124.6293 1835.2436,-146.9886 1825,-165 1817.3259,-178.4934 1805.8675,-191.764 1795.3338,-201.454"/>
<polygon fill="#191970" stroke="#191970" points="1849.2446,-107.921 1847.2299,-97.5195 1842.3184,-106.9071 1849.2446,-107.921"/>
</g>
<!-- Node28&#45;&gt;Node27 -->
<g id="edge8" class="edge">
<title>Node28&#45;&gt;Node27</title>
<path fill="none" stroke="#191970" d="M1813.528,-102.8415C1795.9309,-113.0232 1773.8862,-125.1332 1755.8953,-134.4639"/>
<polygon fill="#191970" stroke="#191970" points="1815.4183,-105.7906 1822.2798,-97.7177 1811.8816,-99.7497 1815.4183,-105.7906"/>
</g>
<!-- Node28&#45;&gt;Node29 -->
<g id="edge10" class="edge">
<title>Node28&#45;&gt;Node29</title>
<path fill="none" stroke="#191970" d="M1803.362,-63.0518C1781.8498,-52.7567 1755.819,-40.2991 1735.7983,-30.7177"/>
<polygon fill="#191970" stroke="#191970" points="1802.0501,-66.3041 1812.5813,-67.4639 1805.0719,-59.9899 1802.0501,-66.3041"/>
</g>
<!-- Node28&#45;&gt;Node30 -->
<g id="edge11" class="edge">
<title>Node28&#45;&gt;Node30</title>
<path fill="none" stroke="#191970" d="M1878.5753,-62.3561C1896.0083,-52.1995 1916.8031,-40.0843 1932.88,-30.7177"/>
<polygon fill="#191970" stroke="#191970" points="1876.6868,-59.4056 1869.8082,-67.4639 1880.2107,-65.454 1876.6868,-59.4056"/>
</g>
<!-- Node31&#45;&gt;Node29 -->
<g id="edge15" class="edge">
<title>Node31&#45;&gt;Node29</title>
<path fill="none" stroke="#191970" d="M1591.6359,-63.4516C1616.035,-53.0392 1645.834,-40.3224 1668.6125,-30.6017"/>
<polygon fill="#191970" stroke="#191970" points="1590.0576,-60.3197 1582.2339,-67.4639 1592.8052,-66.7579 1590.0576,-60.3197"/>
</g>
<!-- Node31&#45;&gt;Node32 -->
<g id="edge14" class="edge">
<title>Node31&#45;&gt;Node32</title>
<path fill="none" stroke="#191970" d="M1458.7552,-70.4585C1363.6581,-57.4819 1214.2002,-37.0874 1126.5843,-25.1317"/>
<polygon fill="#191970" stroke="#191970" points="1458.5469,-73.9624 1468.9283,-71.8466 1459.4934,-67.0267 1458.5469,-73.9624"/>
</g>
<!-- Node31&#45;&gt;Node33 -->
<g id="edge16" class="edge">
<title>Node31&#45;&gt;Node33</title>
<path fill="none" stroke="#191970" d="M1496.7524,-64.0023C1468.1975,-53.4903 1432.8954,-40.4945 1406.0225,-30.6017"/>
<polygon fill="#191970" stroke="#191970" points="1495.5622,-67.2937 1506.1556,-67.4639 1497.9805,-60.7247 1495.5622,-67.2937"/>
</g>
<!-- Node34 -->
<g id="node13" class="node">
<title>Node34</title>
<g id="a_node13"><a xlink:href="_optimizer_8cc.html" target="_top" xlink:title="/home/alejandro/Desarrollo\l eclipse/os1/src/Optimizer.cc">
<polygon fill="#ffffff" stroke="#000000" points="1461,-.5 1461,-30.5 1605,-30.5 1605,-.5 1461,-.5"/>
<text text-anchor="start" x="1469" y="-18.5" font-family="Helvetica,sans-Serif" font-size="10.00" fill="#000000">/home/alejandro/Desarrollo</text>
<text text-anchor="middle" x="1533" y="-7.5" font-family="Helvetica,sans-Serif" font-size="10.00" fill="#000000"> eclipse/os1/src/Optimizer.cc</text>
</a>
</g>
</g>
<!-- Node31&#45;&gt;Node34 -->
<g id="edge17" class="edge">
<title>Node31&#45;&gt;Node34</title>
<path fill="none" stroke="#191970" d="M1541.7381,-57.3179C1539.8624,-48.3414 1537.809,-38.5143 1536.1642,-30.6432"/>
<polygon fill="#191970" stroke="#191970" points="1538.3517,-58.224 1543.8232,-67.2967 1545.2037,-56.7922 1538.3517,-58.224"/>
</g>
<!-- Node31&#45;&gt;Node35 -->
<g id="edge18" class="edge">
<title>Node31&#45;&gt;Node35</title>
<path fill="none" stroke="#191970" d="M1458.6281,-71.4381C1444.7091,-69.8474 1430.4712,-68.3089 1417,-67 1192.6565,-45.2028 926.2046,-27.52 802.1005,-19.7572"/>
<polygon fill="#191970" stroke="#191970" points="1458.3554,-74.9298 1468.6915,-72.603 1459.1603,-67.9762 1458.3554,-74.9298"/>
</g>
<!-- Node36&#45;&gt;Node37 -->
<g id="edge24" class="edge">
<title>Node36&#45;&gt;Node37</title>
<path fill="none" stroke="#191970" d="M1367.8457,-128.0643C1354.834,-118.1577 1339.6886,-106.6265 1327.8895,-97.6432"/>
<polygon fill="#191970" stroke="#191970" points="1365.9548,-131.0237 1376.0314,-134.2967 1370.1952,-125.4542 1365.9548,-131.0237"/>
</g>
<!-- Node38 -->
<g id="node17" class="node">
<title>Node38</title>
<g id="a_node17"><a xlink:href="_osmap_8cpp.html" target="_top" xlink:title="/home/alejandro/Desarrollo\l eclipse/os1/src/Osmap.cpp">
<polygon fill="#ffffff" stroke="#000000" points="1084.5,-67.5 1084.5,-97.5 1223.5,-97.5 1223.5,-67.5 1084.5,-67.5"/>
<text text-anchor="start" x="1092.5" y="-85.5" font-family="Helvetica,sans-Serif" font-size="10.00" fill="#000000">/home/alejandro/Desarrollo</text>
<text text-anchor="middle" x="1154" y="-74.5" font-family="Helvetica,sans-Serif" font-size="10.00" fill="#000000"> eclipse/os1/src/Osmap.cpp</text>
</a>
</g>
</g>
<!-- Node36&#45;&gt;Node38 -->
<g id="edge25" class="edge">
<title>Node36&#45;&gt;Node38</title>
<path fill="none" stroke="#191970" d="M1331.6505,-131.6842C1293.2648,-121.0568 1245.0553,-107.7095 1208.5464,-97.6017"/>
<polygon fill="#191970" stroke="#191970" points="1331.1191,-135.1687 1341.6905,-134.4639 1332.9869,-128.4225 1331.1191,-135.1687"/>
</g>
<!-- Node41&#45;&gt;Node29 -->
<g id="edge39" class="edge">
<title>Node41&#45;&gt;Node29</title>
<path fill="none" stroke="#191970" d="M859.5986,-272.3414C972.5928,-258.9674 1147.1605,-237.6481 1161,-232 1227.9916,-204.6599 1227.8333,-169.2892 1291,-134 1329.3316,-112.5854 1342.1896,-114.1993 1383,-98 1417.289,-84.3893 1424.7061,-77.7392 1460,-67 1490.4433,-57.7367 1566.3778,-42.1308 1625.5217,-30.5207"/>
<polygon fill="#191970" stroke="#191970" points="859.0622,-268.8804 849.5421,-273.53 859.8839,-275.832 859.0622,-268.8804"/>
</g>
<!-- Node41&#45;&gt;Node32 -->
<g id="edge37" class="edge">
<title>Node41&#45;&gt;Node32</title>
<path fill="none" stroke="#191970" d="M848.871,-265.9404C884.9123,-256.879 921.496,-245.0042 934,-232 986.5254,-177.3732 932.7205,-128.5007 977,-67 988.2881,-51.3217 1005.9546,-39.1549 1021.7211,-30.5936"/>
<polygon fill="#191970" stroke="#191970" points="847.6214,-262.6428 838.7403,-268.4201 849.2857,-269.4421 847.6214,-262.6428"/>
</g>
<!-- Node41&#45;&gt;Node33 -->
<g id="edge40" class="edge">
<title>Node41&#45;&gt;Node33</title>
<path fill="none" stroke="#191970" d="M859.4106,-271.8C892.7707,-264.3242 929.0786,-252.0736 958,-232 1031.8529,-180.7407 999.0665,-115.1237 1075,-67 1109.3912,-45.2042 1213.2166,-30.5964 1286.7819,-22.6681"/>
<polygon fill="#191970" stroke="#191970" points="858.6825,-268.3764 849.6275,-273.8772 860.1364,-275.2238 858.6825,-268.3764"/>
</g>
<!-- Node41&#45;&gt;Node35 -->
<g id="edge44" class="edge">
<title>Node41&#45;&gt;Node35</title>
<path fill="none" stroke="#191970" d="M668.6668,-266.6145C632.2432,-258.0564 596.824,-246.3996 586,-232 530.9751,-158.7982 653.6888,-66.3208 707.907,-30.564"/>
<polygon fill="#191970" stroke="#191970" points="667.9118,-270.0321 678.4387,-268.8343 669.4625,-263.206 667.9118,-270.0321"/>
</g>
<!-- Node41&#45;&gt;Node42 -->
<g id="edge36" class="edge">
<title>Node41&#45;&gt;Node42</title>
<path fill="none" stroke="#191970" d="M846.1086,-266.4153C899.851,-255.2329 969.1718,-240.809 1019.4645,-230.3443"/>
<polygon fill="#191970" stroke="#191970" points="845.3404,-263.0001 836.2631,-268.4639 846.7664,-269.8533 845.3404,-263.0001"/>
</g>
<!-- Node41&#45;&gt;Node43 -->
<g id="edge38" class="edge">
<title>Node41&#45;&gt;Node43</title>
<path fill="none" stroke="#191970" d="M687.145,-266.2205C639.4118,-255.4886 578.6576,-241.8291 532.9111,-231.5438"/>
<polygon fill="#191970" stroke="#191970" points="686.5988,-269.685 697.123,-268.4639 688.1343,-262.8555 686.5988,-269.685"/>
</g>
<!-- Node41&#45;&gt;Node44 -->
<g id="edge41" class="edge">
<title>Node41&#45;&gt;Node44</title>
<path fill="none" stroke="#191970" d="M668.1112,-272.0754C590.9296,-262.5101 479.7571,-247.8994 383,-232 380.3476,-231.5642 377.6483,-231.1076 374.9235,-230.6359"/>
<polygon fill="#191970" stroke="#191970" points="667.9436,-275.5812 678.2971,-273.333 668.8014,-268.634 667.9436,-275.5812"/>
</g>
<!-- Node45 -->
<g id="node24" class="node">
<title>Node45</title>
<g id="a_node24"><a xlink:href="_o_r_bmatcher_8cc.html" target="_top" xlink:title="/home/alejandro/Desarrollo\l eclipse/os1/src/ORBmatcher.cc">
<polygon fill="#ffffff" stroke="#000000" points="595.5,-201.5 595.5,-231.5 754.5,-231.5 754.5,-201.5 595.5,-201.5"/>
<text text-anchor="start" x="603.5" y="-219.5" font-family="Helvetica,sans-Serif" font-size="10.00" fill="#000000">/home/alejandro/Desarrollo</text>
<text text-anchor="middle" x="675" y="-208.5" font-family="Helvetica,sans-Serif" font-size="10.00" fill="#000000"> eclipse/os1/src/ORBmatcher.cc</text>
</a>
</g>
</g>
<!-- Node41&#45;&gt;Node45 -->
<g id="edge42" class="edge">
<title>Node41&#45;&gt;Node45</title>
<path fill="none" stroke="#191970" d="M735.5257,-262.0643C722.3662,-252.1577 707.0487,-240.6265 695.1156,-231.6432"/>
<polygon fill="#191970" stroke="#191970" points="733.7103,-265.0785 743.8045,-268.2967 737.9203,-259.486 733.7103,-265.0785"/>
</g>
<!-- Node46 -->
<g id="node25" class="node">
<title>Node46</title>
<g id="a_node25"><a xlink:href="_sim3_solver_8cc.html" target="_top" xlink:title="/home/alejandro/Desarrollo\l eclipse/os1/src/Sim3Solver.cc">
<polygon fill="#ffffff" stroke="#000000" points="773,-201.5 773,-231.5 925,-231.5 925,-201.5 773,-201.5"/>
<text text-anchor="start" x="781" y="-219.5" font-family="Helvetica,sans-Serif" font-size="10.00" fill="#000000">/home/alejandro/Desarrollo</text>
<text text-anchor="middle" x="849" y="-208.5" font-family="Helvetica,sans-Serif" font-size="10.00" fill="#000000"> eclipse/os1/src/Sim3Solver.cc</text>
</a>
</g>
</g>
<!-- Node41&#45;&gt;Node46 -->
<g id="edge43" class="edge">
<title>Node41&#45;&gt;Node46</title>
<path fill="none" stroke="#191970" d="M791.1945,-262.0643C803.7626,-252.1577 818.3917,-240.6265 829.7885,-231.6432"/>
<polygon fill="#191970" stroke="#191970" points="788.9747,-259.3574 783.2878,-268.2967 793.3081,-264.8549 788.9747,-259.3574"/>
</g>
<!-- Node47&#45;&gt;Node35 -->
<g id="edge48" class="edge">
<title>Node47&#45;&gt;Node35</title>
<path fill="none" stroke="#191970" d="M108.0762,-264.6412C71.9553,-250.0432 36.5565,-227.8196 57,-201 130.9978,-103.9231 504.4683,-44.9794 661.8775,-24.0957"/>
<polygon fill="#191970" stroke="#191970" points="107.1481,-268.0346 117.7376,-268.3699 109.6685,-261.5041 107.1481,-268.0346"/>
</g>
<!-- Node48 -->
<g id="node27" class="node">
<title>Node48</title>
<g id="a_node27"><a xlink:href="_pn_psolver_8cc.html" target="_top" xlink:title="/home/alejandro/Desarrollo\l eclipse/os1/src/PnPsolver.cc">
<polygon fill="#ffffff" stroke="#000000" points="66.5,-201.5 66.5,-231.5 213.5,-231.5 213.5,-201.5 66.5,-201.5"/>
<text text-anchor="start" x="74.5" y="-219.5" font-family="Helvetica,sans-Serif" font-size="10.00" fill="#000000">/home/alejandro/Desarrollo</text>
<text text-anchor="middle" x="140" y="-208.5" font-family="Helvetica,sans-Serif" font-size="10.00" fill="#000000"> eclipse/os1/src/PnPsolver.cc</text>
</a>
</g>
</g>
<!-- Node47&#45;&gt;Node48 -->
<g id="edge47" class="edge">
<title>Node47&#45;&gt;Node48</title>
<path fill="none" stroke="#191970" d="M157.7203,-258.9021C153.9037,-249.7696 149.6894,-239.6854 146.3285,-231.6432"/>
<polygon fill="#191970" stroke="#191970" points="154.561,-260.4196 161.6464,-268.2967 161.0197,-257.7204 154.561,-260.4196"/>
</g>
<!-- Node50&#45;&gt;Node26 -->
<g id="edge53" class="edge">
<title>Node50&#45;&gt;Node26</title>
<path fill="none" stroke="#191970" d="M1810.3523,-329.6919C1821.3317,-321.6618 1831.9545,-311.3855 1838,-299 1844.0436,-286.6185 1844.0436,-280.3815 1838,-268 1830.4135,-252.4574 1815.6188,-240.2364 1801.9566,-231.6075"/>
<polygon fill="#191970" stroke="#191970" points="1808.2636,-326.8795 1801.9566,-335.3925 1812.1958,-332.6707 1808.2636,-326.8795"/>
</g>
<!-- Node50&#45;&gt;Node30 -->
<g id="edge55" class="edge">
<title>Node50&#45;&gt;Node30</title>
<path fill="none" stroke="#191970" d="M1864.4418,-343.6543C1975.0863,-329.9378 2155.9411,-288.7394 2240,-165 2297.0575,-81.0081 2127.4355,-40.5683 2027.147,-24.432"/>
<polygon fill="#191970" stroke="#191970" points="1863.807,-340.205 1854.2897,-344.8602 1864.6327,-347.1561 1863.807,-340.205"/>
</g>
<!-- Node50&#45;&gt;Node40 -->
<g id="edge56" class="edge">
<title>Node50&#45;&gt;Node40</title>
<path fill="none" stroke="#191970" d="M1809.6278,-330.3541C1824.4437,-321.6224 1841.1826,-310.7164 1855,-299 1905.5359,-256.1483 1953.9554,-193.4804 1975.0067,-164.8247"/>
<polygon fill="#191970" stroke="#191970" points="1807.6143,-327.4747 1800.6946,-335.4977 1811.1072,-333.541 1807.6143,-327.4747"/>
</g>
<!-- Node50&#45;&gt;Node51 -->
<g id="edge54" class="edge">
<title>Node50&#45;&gt;Node51</title>
<path fill="none" stroke="#191970" d="M1764.9417,-325.6103C1762.3739,-316.5553 1759.5507,-306.5998 1757.2943,-298.6432"/>
<polygon fill="#191970" stroke="#191970" points="1761.5931,-326.6309 1767.6886,-335.2967 1768.3275,-324.7211 1761.5931,-326.6309"/>
</g>
</g>
</svg>
