<?xml version="1.0" encoding="UTF-8" standalone="no"?>
<!DOCTYPE svg PUBLIC "-//W3C//DTD SVG 1.1//EN"
 "http://www.w3.org/Graphics/SVG/1.1/DTD/svg11.dtd">
<!-- Generated by graphviz version 2.38.0 (20140413.2041)
 -->
<!-- Title: /home/alejandro/Desarrollo eclipse/os1/include/MapPoint.h Pages: 1 -->
<svg width="1195pt" height="508pt"
 viewBox="0.00 0.00 1195.00 508.00" xmlns="http://www.w3.org/2000/svg" xmlns:xlink="http://www.w3.org/1999/xlink">
<g id="graph0" class="graph" transform="scale(1 1) rotate(0) translate(4 504)">
<title>/home/alejandro/Desarrollo eclipse/os1/include/MapPoint.h</title>
<polygon fill="white" stroke="none" points="-4,4 -4,-504 1191,-504 1191,4 -4,4"/>
<!-- Node33 -->
<g id="node1" class="node"><title>Node33</title>
<polygon fill="#bfbfbf" stroke="black" points="754.5,-469.5 754.5,-499.5 909.5,-499.5 909.5,-469.5 754.5,-469.5"/>
<text text-anchor="start" x="762.5" y="-487.5" font-family="Helvetica,sans-Serif" font-size="10.00">/home/alejandro/Desarrollo</text>
<text text-anchor="middle" x="832" y="-476.5" font-family="Helvetica,sans-Serif" font-size="10.00"> eclipse/os1/include/MapPoint.h</text>
</g>
<!-- Node34 -->
<g id="node2" class="node"><title>Node34</title>
<g id="a_node2"><a xlink:href="_frame_8h.html" target="_top" xlink:title="/home/alejandro/Desarrollo\l eclipse/os1/include/Frame.h">
<polygon fill="white" stroke="black" points="811,-402.5 811,-432.5 953,-432.5 953,-402.5 811,-402.5"/>
<text text-anchor="start" x="819" y="-420.5" font-family="Helvetica,sans-Serif" font-size="10.00">/home/alejandro/Desarrollo</text>
<text text-anchor="middle" x="882" y="-409.5" font-family="Helvetica,sans-Serif" font-size="10.00"> eclipse/os1/include/Frame.h</text>
</a>
</g>
</g>
<!-- Node33&#45;&gt;Node34 -->
<g id="edge1" class="edge"><title>Node33&#45;&gt;Node34</title>
<path fill="none" stroke="midnightblue" d="M842.945,-460.867C849.623,-451.459 858.06,-440.833 865.497,-432.577"/>
<polygon fill="midnightblue" stroke="midnightblue" points="839.878,-459.153 837.171,-469.396 845.675,-463.077 839.878,-459.153"/>
</g>
<!-- Node35 -->
<g id="node3" class="node"><title>Node35</title>
<g id="a_node3"><a xlink:href="_key_frame_8h.html" target="_top" xlink:title="/home/alejandro/Desarrollo\l eclipse/os1/include/KeyFrame.h">
<polygon fill="white" stroke="black" points="499.5,-335.5 499.5,-365.5 658.5,-365.5 658.5,-335.5 499.5,-335.5"/>
<text text-anchor="start" x="507.5" y="-353.5" font-family="Helvetica,sans-Serif" font-size="10.00">/home/alejandro/Desarrollo</text>
<text text-anchor="middle" x="579" y="-342.5" font-family="Helvetica,sans-Serif" font-size="10.00"> eclipse/os1/include/KeyFrame.h</text>
</a>
</g>
</g>
<!-- Node33&#45;&gt;Node35 -->
<g id="edge31" class="edge"><title>Node33&#45;&gt;Node35</title>
<path fill="none" stroke="midnightblue" d="M791.548,-464.934C737.666,-438.214 644.475,-389.505 601.58,-365.556"/>
<polygon fill="midnightblue" stroke="midnightblue" points="790.292,-468.217 800.809,-469.499 793.387,-461.938 790.292,-468.217"/>
</g>
<!-- Node40 -->
<g id="node8" class="node"><title>Node40</title>
<g id="a_node8"><a xlink:href="_optimizer_8h.html" target="_top" xlink:title="/home/alejandro/Desarrollo\l eclipse/os1/include/Optimizer.h">
<polygon fill="white" stroke="black" points="728,-0.5 728,-30.5 884,-30.5 884,-0.5 728,-0.5"/>
<text text-anchor="start" x="736" y="-18.5" font-family="Helvetica,sans-Serif" font-size="10.00">/home/alejandro/Desarrollo</text>
<text text-anchor="middle" x="806" y="-7.5" font-family="Helvetica,sans-Serif" font-size="10.00"> eclipse/os1/include/Optimizer.h</text>
</a>
</g>
</g>
<!-- Node33&#45;&gt;Node40 -->
<g id="edge33" class="edge"><title>Node33&#45;&gt;Node40</title>
<path fill="none" stroke="midnightblue" d="M919.895,-468.78C1025.02,-448.627 1187,-408.352 1187,-351.5 1187,-351.5 1187,-351.5 1187,-148.5 1187,-84.9721 995.487,-45.1738 884.02,-27.3901"/>
<polygon fill="midnightblue" stroke="midnightblue" points="919.083,-465.372 909.906,-470.667 920.382,-472.25 919.083,-465.372"/>
</g>
<!-- Node41 -->
<g id="node9" class="node"><title>Node41</title>
<g id="a_node9"><a xlink:href="_map_drawer_8h.html" target="_top" xlink:title="/home/alejandro/Desarrollo\l eclipse/os1/include/MapDrawer.h">
<polygon fill="white" stroke="black" points="0,-268.5 0,-298.5 164,-298.5 164,-268.5 0,-268.5"/>
<text text-anchor="start" x="8" y="-286.5" font-family="Helvetica,sans-Serif" font-size="10.00">/home/alejandro/Desarrollo</text>
<text text-anchor="middle" x="82" y="-275.5" font-family="Helvetica,sans-Serif" font-size="10.00"> eclipse/os1/include/MapDrawer.h</text>
</a>
</g>
</g>
<!-- Node33&#45;&gt;Node41 -->
<g id="edge32" class="edge"><title>Node33&#45;&gt;Node41</title>
<path fill="none" stroke="midnightblue" d="M768.894,-466.756C623.938,-428.294 269.338,-334.207 134.873,-298.529"/>
<polygon fill="midnightblue" stroke="midnightblue" points="768.399,-470.246 778.963,-469.427 770.195,-463.48 768.399,-470.246"/>
</g>
<!-- Node42 -->
<g id="node10" class="node"><title>Node42</title>
<g id="a_node10"><a xlink:href="_o_r_bmatcher_8h.html" target="_top" xlink:title="/home/alejandro/Desarrollo\l eclipse/os1/include/ORBmatcher.h">
<polygon fill="white" stroke="black" points="697.5,-268.5 697.5,-298.5 868.5,-298.5 868.5,-268.5 697.5,-268.5"/>
<text text-anchor="start" x="705.5" y="-286.5" font-family="Helvetica,sans-Serif" font-size="10.00">/home/alejandro/Desarrollo</text>
<text text-anchor="middle" x="783" y="-275.5" font-family="Helvetica,sans-Serif" font-size="10.00"> eclipse/os1/include/ORBmatcher.h</text>
</a>
</g>
</g>
<!-- Node33&#45;&gt;Node42 -->
<g id="edge34" class="edge"><title>Node33&#45;&gt;Node42</title>
<path fill="none" stroke="midnightblue" d="M815.836,-460.807C810.611,-452.432 805.316,-442.63 802,-433 785.751,-385.816 783.188,-325.877 782.922,-298.856"/>
<polygon fill="midnightblue" stroke="midnightblue" points="812.969,-462.817 821.381,-469.258 818.821,-458.977 812.969,-462.817"/>
</g>
<!-- Node45 -->
<g id="node13" class="node"><title>Node45</title>
<g id="a_node13"><a xlink:href="_pn_psolver_8h.html" target="_top" xlink:title="/home/alejandro/Desarrollo\l eclipse/os1/include/PnPsolver.h">
<polygon fill="white" stroke="black" points="1000.5,-335.5 1000.5,-365.5 1159.5,-365.5 1159.5,-335.5 1000.5,-335.5"/>
<text text-anchor="start" x="1008.5" y="-353.5" font-family="Helvetica,sans-Serif" font-size="10.00">/home/alejandro/Desarrollo</text>
<text text-anchor="middle" x="1080" y="-342.5" font-family="Helvetica,sans-Serif" font-size="10.00"> eclipse/os1/include/PnPsolver.h</text>
</a>
</g>
</g>
<!-- Node33&#45;&gt;Node45 -->
<g id="edge35" class="edge"><title>Node33&#45;&gt;Node45</title>
<path fill="none" stroke="midnightblue" d="M885.226,-466.016C909.257,-457.321 937.652,-445.908 962,-433 999.835,-412.941 1040.1,-383.046 1062.44,-365.587"/>
<polygon fill="midnightblue" stroke="midnightblue" points="883.814,-462.804 875.564,-469.452 886.159,-469.399 883.814,-462.804"/>
</g>
<!-- Node34&#45;&gt;Node33 -->
<g id="edge24" class="edge"><title>Node34&#45;&gt;Node33</title>
<path fill="none" stroke="midnightblue" d="M871.078,-441.102C864.403,-450.507 855.967,-461.134 848.528,-469.396"/>
<polygon fill="midnightblue" stroke="midnightblue" points="874.141,-442.82 876.847,-432.577 868.344,-438.897 874.141,-442.82"/>
</g>
<!-- Node34&#45;&gt;Node35 -->
<g id="edge2" class="edge"><title>Node34&#45;&gt;Node35</title>
<path fill="none" stroke="midnightblue" d="M806.556,-400.316C756.758,-389.633 692.158,-375.775 644.517,-365.555"/>
<polygon fill="midnightblue" stroke="midnightblue" points="806.115,-403.801 816.627,-402.476 807.583,-396.956 806.115,-403.801"/>
</g>
<!-- Node36 -->
<g id="node4" class="node"><title>Node36</title>
<g id="a_node4"><a xlink:href="_key_frame_database_8h.html" target="_top" xlink:title="/home/alejandro/Desarrollo\l eclipse/os1/include/KeyFrameDatabase.h">
<polygon fill="white" stroke="black" points="478.5,-268.5 478.5,-298.5 679.5,-298.5 679.5,-268.5 478.5,-268.5"/>
<text text-anchor="start" x="486.5" y="-286.5" font-family="Helvetica,sans-Serif" font-size="10.00">/home/alejandro/Desarrollo</text>
<text text-anchor="middle" x="579" y="-275.5" font-family="Helvetica,sans-Serif" font-size="10.00"> eclipse/os1/include/KeyFrameDatabase.h</text>
</a>
</g>
</g>
<!-- Node34&#45;&gt;Node36 -->
<g id="edge23" class="edge"><title>Node34&#45;&gt;Node36</title>
<path fill="none" stroke="midnightblue" d="M840.519,-398.429C779.439,-371.82 666.58,-322.654 611.266,-298.556"/>
<polygon fill="midnightblue" stroke="midnightblue" points="839.295,-401.713 849.861,-402.499 842.091,-395.296 839.295,-401.713"/>
</g>
<!-- Node37 -->
<g id="node5" class="node"><title>Node37</title>
<g id="a_node5"><a xlink:href="_tracking_8h.html" target="_top" xlink:title="/home/alejandro/Desarrollo\l eclipse/os1/include/Tracking.h">
<polygon fill="white" stroke="black" points="564,-134.5 564,-164.5 716,-164.5 716,-134.5 564,-134.5"/>
<text text-anchor="start" x="572" y="-152.5" font-family="Helvetica,sans-Serif" font-size="10.00">/home/alejandro/Desarrollo</text>
<text text-anchor="middle" x="640" y="-141.5" font-family="Helvetica,sans-Serif" font-size="10.00"> eclipse/os1/include/Tracking.h</text>
</a>
</g>
</g>
<!-- Node34&#45;&gt;Node37 -->
<g id="edge27" class="edge"><title>Node34&#45;&gt;Node37</title>
<path fill="none" stroke="midnightblue" d="M897.337,-393.541C902.045,-385.226 906.612,-375.529 909,-366 919.652,-323.485 917.861,-307.071 898,-268 879.058,-230.739 868.169,-221.952 832,-201 796.658,-180.527 752.896,-168.187 716.081,-160.837"/>
<polygon fill="midnightblue" stroke="midnightblue" points="894.245,-391.89 892.07,-402.26 900.237,-395.51 894.245,-391.89"/>
</g>
<!-- Node34&#45;&gt;Node40 -->
<g id="edge28" class="edge"><title>Node34&#45;&gt;Node40</title>
<path fill="none" stroke="midnightblue" d="M908.352,-395.703C935.225,-371.955 973,-330.41 973,-284.5 973,-284.5 973,-284.5 973,-148.5 973,-86.4134 901.079,-48.9678 851.633,-30.5603"/>
<polygon fill="midnightblue" stroke="midnightblue" points="905.743,-393.329 900.415,-402.487 910.291,-398.65 905.743,-393.329"/>
</g>
<!-- Node34&#45;&gt;Node42 -->
<g id="edge29" class="edge"><title>Node34&#45;&gt;Node42</title>
<path fill="none" stroke="midnightblue" d="M865.267,-394.189C844.769,-366.859 810.662,-321.383 793.519,-298.525"/>
<polygon fill="midnightblue" stroke="midnightblue" points="862.605,-396.474 871.405,-402.374 868.205,-392.274 862.605,-396.474"/>
</g>
<!-- Node44 -->
<g id="node12" class="node"><title>Node44</title>
<g id="a_node12"><a xlink:href="_initializer_8h.html" target="_top" xlink:title="/home/alejandro/Desarrollo\l eclipse/os1/include/Initializer.h">
<polygon fill="white" stroke="black" points="670.5,-201.5 670.5,-231.5 823.5,-231.5 823.5,-201.5 670.5,-201.5"/>
<text text-anchor="start" x="678.5" y="-219.5" font-family="Helvetica,sans-Serif" font-size="10.00">/home/alejandro/Desarrollo</text>
<text text-anchor="middle" x="747" y="-208.5" font-family="Helvetica,sans-Serif" font-size="10.00"> eclipse/os1/include/Initializer.h</text>
</a>
</g>
</g>
<!-- Node34&#45;&gt;Node44 -->
<g id="edge25" class="edge"><title>Node34&#45;&gt;Node44</title>
<path fill="none" stroke="midnightblue" d="M888.635,-392.472C895.848,-360.819 903.147,-304.861 877,-268 864.252,-250.029 844.141,-238.453 823.512,-230.996"/>
<polygon fill="midnightblue" stroke="midnightblue" points="885.229,-391.666 886.241,-402.212 892.027,-393.337 885.229,-391.666"/>
</g>
<!-- Node34&#45;&gt;Node45 -->
<g id="edge30" class="edge"><title>Node34&#45;&gt;Node45</title>
<path fill="none" stroke="midnightblue" d="M934.614,-399.228C966.643,-388.713 1007.04,-375.451 1037.12,-365.577"/>
<polygon fill="midnightblue" stroke="midnightblue" points="933.372,-395.951 924.963,-402.396 935.556,-402.602 933.372,-395.951"/>
</g>
<!-- Node35&#45;&gt;Node33 -->
<g id="edge3" class="edge"><title>Node35&#45;&gt;Node33</title>
<path fill="none" stroke="midnightblue" d="M619.492,-370.087C673.329,-396.785 766.355,-445.406 809.295,-469.374"/>
<polygon fill="midnightblue" stroke="midnightblue" points="620.755,-366.807 610.238,-365.525 617.66,-373.086 620.755,-366.807"/>
</g>
<!-- Node35&#45;&gt;Node36 -->
<g id="edge4" class="edge"><title>Node35&#45;&gt;Node36</title>
<path fill="none" stroke="midnightblue" d="M572.455,-325.403C572.005,-316.37 572.296,-306.408 573.325,-298.577"/>
<polygon fill="midnightblue" stroke="midnightblue" points="568.97,-325.736 573.322,-335.396 575.944,-325.131 568.97,-325.736"/>
</g>
<!-- Node38 -->
<g id="node6" class="node"><title>Node38</title>
<g id="a_node6"><a xlink:href="_loop_closing_8h.html" target="_top" xlink:title="/home/alejandro/Desarrollo\l eclipse/os1/include/LoopClosing.h">
<polygon fill="white" stroke="black" points="556,-67.5 556,-97.5 724,-97.5 724,-67.5 556,-67.5"/>
<text text-anchor="start" x="564" y="-85.5" font-family="Helvetica,sans-Serif" font-size="10.00">/home/alejandro/Desarrollo</text>
<text text-anchor="middle" x="640" y="-74.5" font-family="Helvetica,sans-Serif" font-size="10.00"> eclipse/os1/include/LoopClosing.h</text>
</a>
</g>
</g>
<!-- Node35&#45;&gt;Node38 -->
<g id="edge17" class="edge"><title>Node35&#45;&gt;Node38</title>
<path fill="none" stroke="midnightblue" d="M514.262,-331.78C495.311,-324.128 475.746,-313.503 461,-299 428.524,-267.059 409.192,-240.991 431,-201 461.79,-144.538 531.54,-113.43 582.009,-97.6384"/>
<polygon fill="midnightblue" stroke="midnightblue" points="513.198,-335.12 523.789,-335.409 515.69,-328.579 513.198,-335.12"/>
</g>
<!-- Node39 -->
<g id="node7" class="node"><title>Node39</title>
<g id="a_node7"><a xlink:href="_local_mapping_8h.html" target="_top" xlink:title="/home/alejandro/Desarrollo\l eclipse/os1/include/LocalMapping.h">
<polygon fill="white" stroke="black" points="440,-201.5 440,-231.5 614,-231.5 614,-201.5 440,-201.5"/>
<text text-anchor="start" x="448" y="-219.5" font-family="Helvetica,sans-Serif" font-size="10.00">/home/alejandro/Desarrollo</text>
<text text-anchor="middle" x="527" y="-208.5" font-family="Helvetica,sans-Serif" font-size="10.00"> eclipse/os1/include/LocalMapping.h</text>
</a>
</g>
</g>
<!-- Node35&#45;&gt;Node39 -->
<g id="edge16" class="edge"><title>Node35&#45;&gt;Node39</title>
<path fill="none" stroke="midnightblue" d="M508.713,-331.42C493.051,-323.985 478.34,-313.565 469,-299 461.563,-287.402 463.291,-280.54 469,-268 475.915,-252.811 489.905,-240.415 502.413,-231.705"/>
<polygon fill="midnightblue" stroke="midnightblue" points="507.444,-334.684 518.01,-335.461 510.234,-328.265 507.444,-334.684"/>
</g>
<!-- Node35&#45;&gt;Node40 -->
<g id="edge20" class="edge"><title>Node35&#45;&gt;Node40</title>
<path fill="none" stroke="midnightblue" d="M489.326,-342.495C387.048,-333.69 231.267,-317.471 211,-299 183.51,-273.946 192,-254.694 192,-217.5 192,-217.5 192,-217.5 192,-148.5 192,-40.0806 562.552,-20.451 727.925,-17.0891"/>
<polygon fill="midnightblue" stroke="midnightblue" points="489.097,-345.989 499.358,-343.35 489.692,-339.014 489.097,-345.989"/>
</g>
<!-- Node35&#45;&gt;Node41 -->
<g id="edge18" class="edge"><title>Node35&#45;&gt;Node41</title>
<path fill="none" stroke="midnightblue" d="M489.215,-338.834C407.891,-329.021 284.813,-313.79 178,-299 173.492,-298.376 168.867,-297.722 164.2,-297.052"/>
<polygon fill="midnightblue" stroke="midnightblue" points="489.069,-342.342 499.416,-340.063 489.907,-335.392 489.069,-342.342"/>
</g>
<!-- Node35&#45;&gt;Node42 -->
<g id="edge21" class="edge"><title>Node35&#45;&gt;Node42</title>
<path fill="none" stroke="midnightblue" d="M632.955,-332.308C665.957,-321.793 707.655,-308.507 738.713,-298.611"/>
<polygon fill="midnightblue" stroke="midnightblue" points="631.479,-329.105 623.014,-335.476 633.604,-335.775 631.479,-329.105"/>
</g>
<!-- Node43 -->
<g id="node11" class="node"><title>Node43</title>
<g id="a_node11"><a xlink:href="_sim3_solver_8h.html" target="_top" xlink:title="/home/alejandro/Desarrollo\l eclipse/os1/include/Sim3Solver.h">
<polygon fill="white" stroke="black" points="220,-268.5 220,-298.5 384,-298.5 384,-268.5 220,-268.5"/>
<text text-anchor="start" x="228" y="-286.5" font-family="Helvetica,sans-Serif" font-size="10.00">/home/alejandro/Desarrollo</text>
<text text-anchor="middle" x="302" y="-275.5" font-family="Helvetica,sans-Serif" font-size="10.00"> eclipse/os1/include/Sim3Solver.h</text>
</a>
</g>
</g>
<!-- Node35&#45;&gt;Node43 -->
<g id="edge22" class="edge"><title>Node35&#45;&gt;Node43</title>
<path fill="none" stroke="midnightblue" d="M509.475,-333.186C464.11,-322.54 405.488,-308.784 362.134,-298.611"/>
<polygon fill="midnightblue" stroke="midnightblue" points="508.701,-336.599 519.236,-335.476 510.3,-329.784 508.701,-336.599"/>
</g>
<!-- Node36&#45;&gt;Node35 -->
<g id="edge5" class="edge"><title>Node36&#45;&gt;Node35</title>
<path fill="none" stroke="midnightblue" d="M585.544,-308.565C585.995,-317.596 585.706,-327.56 584.678,-335.396"/>
<polygon fill="midnightblue" stroke="midnightblue" points="589.028,-308.236 584.675,-298.577 582.055,-308.842 589.028,-308.236"/>
</g>
<!-- Node36&#45;&gt;Node37 -->
<g id="edge6" class="edge"><title>Node36&#45;&gt;Node37</title>
<path fill="none" stroke="midnightblue" d="M602.332,-260.706C609.975,-252.403 617.824,-242.417 623,-232 633.87,-210.125 637.797,-181.614 639.211,-164.761"/>
<polygon fill="midnightblue" stroke="midnightblue" points="599.605,-258.49 595.161,-268.108 604.633,-263.361 599.605,-258.49"/>
</g>
<!-- Node36&#45;&gt;Node38 -->
<g id="edge14" class="edge"><title>Node36&#45;&gt;Node38</title>
<path fill="none" stroke="midnightblue" d="M689.682,-266.999C753.289,-256.957 822.463,-243.629 832,-232 881.437,-171.72 759.153,-121.012 687.522,-97.5217"/>
<polygon fill="midnightblue" stroke="midnightblue" points="688.873,-263.583 679.532,-268.582 689.951,-270.5 688.873,-263.583"/>
</g>
<!-- Node36&#45;&gt;Node39 -->
<g id="edge15" class="edge"><title>Node36&#45;&gt;Node39</title>
<path fill="none" stroke="midnightblue" d="M561.358,-260.447C553.719,-250.899 545.003,-240.004 538.261,-231.577"/>
<polygon fill="midnightblue" stroke="midnightblue" points="558.737,-262.774 567.717,-268.396 564.203,-258.401 558.737,-262.774"/>
</g>
<!-- Node37&#45;&gt;Node38 -->
<g id="edge7" class="edge"><title>Node37&#45;&gt;Node38</title>
<path fill="none" stroke="midnightblue" d="M633.455,-124.403C633.005,-115.37 633.296,-105.408 634.325,-97.5765"/>
<polygon fill="midnightblue" stroke="midnightblue" points="629.97,-124.736 634.322,-134.396 636.944,-124.131 629.97,-124.736"/>
</g>
<!-- Node37&#45;&gt;Node39 -->
<g id="edge13" class="edge"><title>Node37&#45;&gt;Node39</title>
<path fill="none" stroke="midnightblue" d="M612.42,-169.955C595.674,-180.066 574.397,-192.197 557.198,-201.396"/>
<polygon fill="midnightblue" stroke="midnightblue" points="614.503,-172.783 621.203,-164.577 610.847,-166.814 614.503,-172.783"/>
</g>
<!-- Node38&#45;&gt;Node37 -->
<g id="edge11" class="edge"><title>Node38&#45;&gt;Node37</title>
<path fill="none" stroke="midnightblue" d="M646.544,-107.565C646.995,-116.596 646.706,-126.56 645.678,-134.396"/>
<polygon fill="midnightblue" stroke="midnightblue" points="650.028,-107.236 645.675,-97.5765 643.055,-107.842 650.028,-107.236"/>
</g>
<!-- Node38&#45;&gt;Node39 -->
<g id="edge8" class="edge"><title>Node38&#45;&gt;Node39</title>
<path fill="none" stroke="midnightblue" d="M603.643,-102.445C589.692,-110.397 574.662,-120.892 564,-134 547.763,-153.964 540.705,-183.892 535.091,-201.382"/>
<polygon fill="midnightblue" stroke="midnightblue" points="605.479,-105.431 612.598,-97.5843 602.14,-99.2786 605.479,-105.431"/>
</g>
<!-- Node38&#45;&gt;Node40 -->
<g id="edge12" class="edge"><title>Node38&#45;&gt;Node40</title>
<path fill="none" stroke="midnightblue" d="M685.506,-63.6815C712.129,-53.2568 745.268,-40.2805 770.051,-30.5765"/>
<polygon fill="midnightblue" stroke="midnightblue" points="684.055,-60.4907 676.02,-67.396 686.607,-67.0089 684.055,-60.4907"/>
</g>
<!-- Node39&#45;&gt;Node37 -->
<g id="edge10" class="edge"><title>Node39&#45;&gt;Node37</title>
<path fill="none" stroke="midnightblue" d="M554.63,-196.015C571.386,-185.9 592.663,-173.77 609.854,-164.577"/>
<polygon fill="midnightblue" stroke="midnightblue" points="552.542,-193.189 545.841,-201.396 556.197,-199.159 552.542,-193.189"/>
</g>
<!-- Node39&#45;&gt;Node38 -->
<g id="edge9" class="edge"><title>Node39&#45;&gt;Node38</title>
<path fill="none" stroke="midnightblue" d="M523.254,-191.375C525.402,-173.898 532.554,-150.532 546,-134 558.997,-118.02 578.486,-105.925 596.452,-97.5843"/>
<polygon fill="midnightblue" stroke="midnightblue" points="519.76,-191.162 522.551,-201.382 526.743,-191.652 519.76,-191.162"/>
</g>
<!-- Node41&#45;&gt;Node37 -->
<g id="edge19" class="edge"><title>Node41&#45;&gt;Node37</title>
<path fill="none" stroke="midnightblue" d="M151.236,-266.122C261.844,-239.956 476.513,-189.174 580.58,-164.556"/>
<polygon fill="midnightblue" stroke="midnightblue" points="150.113,-262.791 141.188,-268.499 151.725,-269.603 150.113,-262.791"/>
</g>
<!-- Node44&#45;&gt;Node37 -->
<g id="edge26" class="edge"><title>Node44&#45;&gt;Node37</title>
<path fill="none" stroke="midnightblue" d="M714.925,-196.015C698.274,-185.9 678.306,-173.77 663.172,-164.577"/>
<polygon fill="midnightblue" stroke="midnightblue" points="713.419,-199.195 723.783,-201.396 717.053,-193.213 713.419,-199.195"/>
</g>
</g>
</svg>
