<?xml version="1.0" encoding="UTF-8" standalone="no"?>
<!DOCTYPE svg PUBLIC "-//W3C//DTD SVG 1.1//EN"
 "http://www.w3.org/Graphics/SVG/1.1/DTD/svg11.dtd">
<!-- Generated by graphviz version 2.38.0 (20140413.2041)
 -->
<!-- Title: /home/alejandro/Desarrollo eclipse/os1/include/Map.h Pages: 1 -->
<svg width="1350pt" height="576pt"
 viewBox="0.00 0.00 1349.50 576.00" xmlns="http://www.w3.org/2000/svg" xmlns:xlink="http://www.w3.org/1999/xlink">
<g id="graph0" class="graph" transform="scale(1 1) rotate(0) translate(4 572)">
<title>/home/alejandro/Desarrollo eclipse/os1/include/Map.h</title>
<polygon fill="white" stroke="none" points="-4,4 -4,-572 1345.5,-572 1345.5,4 -4,4"/>
<!-- Node0 -->
<g id="node1" class="node"><title>Node0</title>
<polygon fill="#bfbfbf" stroke="black" points="354,-537.5 354,-567.5 487,-567.5 487,-537.5 354,-537.5"/>
<text text-anchor="start" x="362" y="-555.5" font-family="Helvetica,sans-Serif" font-size="10.00">/home/alejandro/Desarrollo</text>
<text text-anchor="middle" x="420.5" y="-544.5" font-family="Helvetica,sans-Serif" font-size="10.00"> eclipse/os1/include/Map.h</text>
</g>
<!-- Node1 -->
<g id="node2" class="node"><title>Node1</title>
<g id="a_node2"><a xlink:href="_map_point_8h.html" target="_top" xlink:title="MapPoint.h">
<polygon fill="white" stroke="black" points="387.5,-481.5 387.5,-500.5 453.5,-500.5 453.5,-481.5 387.5,-481.5"/>
<text text-anchor="middle" x="420.5" y="-488.5" font-family="Helvetica,sans-Serif" font-size="10.00">MapPoint.h</text>
</a>
</g>
</g>
<!-- Node0&#45;&gt;Node1 -->
<g id="edge1" class="edge"><title>Node0&#45;&gt;Node1</title>
<path fill="none" stroke="midnightblue" d="M414.66,-537.399C413.63,-529.377 413.474,-519.233 414.193,-510.569"/>
<polygon fill="midnightblue" stroke="midnightblue" points="417.66,-511.044 415.571,-500.658 410.727,-510.081 417.66,-511.044"/>
</g>
<!-- Node2 -->
<g id="node3" class="node"><title>Node2</title>
<g id="a_node3"><a xlink:href="_key_frame_8h.html" target="_top" xlink:title="KeyFrame.h">
<polygon fill="white" stroke="black" points="457.5,-425.5 457.5,-444.5 527.5,-444.5 527.5,-425.5 457.5,-425.5"/>
<text text-anchor="middle" x="492.5" y="-432.5" font-family="Helvetica,sans-Serif" font-size="10.00">KeyFrame.h</text>
</a>
</g>
</g>
<!-- Node0&#45;&gt;Node2 -->
<g id="edge64" class="edge"><title>Node0&#45;&gt;Node2</title>
<path fill="none" stroke="midnightblue" d="M434.077,-537.259C442.885,-527.547 454.222,-514.114 462.5,-501 471.923,-486.073 480.124,-467.701 485.559,-454.302"/>
<polygon fill="midnightblue" stroke="midnightblue" points="488.9,-455.37 489.295,-444.783 482.384,-452.813 488.9,-455.37"/>
</g>
<!-- Node27 -->
<g id="node28" class="node"><title>Node27</title>
<polygon fill="white" stroke="#bfbfbf" points="1311.5,-313.5 1311.5,-332.5 1341.5,-332.5 1341.5,-313.5 1311.5,-313.5"/>
<text text-anchor="middle" x="1326.5" y="-320.5" font-family="Helvetica,sans-Serif" font-size="10.00">set</text>
</g>
<!-- Node0&#45;&gt;Node27 -->
<g id="edge65" class="edge"><title>Node0&#45;&gt;Node27</title>
<path fill="none" stroke="midnightblue" d="M481.95,-537.457C625.424,-504.393 993.372,-418.004 1297.5,-333 1298.93,-332.601 1300.39,-332.181 1301.87,-331.749"/>
<polygon fill="midnightblue" stroke="midnightblue" points="1302.94,-335.082 1311.5,-328.834 1300.91,-328.382 1302.94,-335.082"/>
</g>
<!-- Node28 -->
<g id="node29" class="node"><title>Node28</title>
<polygon fill="white" stroke="#bfbfbf" points="244.5,-313.5 244.5,-332.5 288.5,-332.5 288.5,-313.5 244.5,-313.5"/>
<text text-anchor="middle" x="266.5" y="-320.5" font-family="Helvetica,sans-Serif" font-size="10.00">mutex</text>
</g>
<!-- Node0&#45;&gt;Node28 -->
<g id="edge66" class="edge"><title>Node0&#45;&gt;Node28</title>
<path fill="none" stroke="midnightblue" d="M403.517,-537.371C373.483,-511.363 311.269,-452.711 280.5,-389 273.441,-374.382 269.912,-356.21 268.166,-342.8"/>
<polygon fill="midnightblue" stroke="midnightblue" points="271.643,-342.399 267.08,-332.838 264.684,-343.158 271.643,-342.399"/>
</g>
<!-- Node1&#45;&gt;Node0 -->
<g id="edge61" class="edge"><title>Node1&#45;&gt;Node0</title>
<path fill="none" stroke="midnightblue" d="M425.429,-500.658C426.935,-507.655 427.507,-517.857 427.145,-527.289"/>
<polygon fill="midnightblue" stroke="midnightblue" points="423.645,-527.153 426.34,-537.399 430.623,-527.709 423.645,-527.153"/>
</g>
<!-- Node1&#45;&gt;Node2 -->
<g id="edge2" class="edge"><title>Node1&#45;&gt;Node2</title>
<path fill="none" stroke="midnightblue" d="M426.953,-481.324C436.273,-472.979 452.986,-460.212 467.32,-450.352"/>
<polygon fill="midnightblue" stroke="midnightblue" points="469.479,-453.119 475.851,-444.655 465.591,-447.299 469.479,-453.119"/>
</g>
<!-- Node10 -->
<g id="node11" class="node"><title>Node10</title>
<polygon fill="white" stroke="#bfbfbf" points="923.5,-62 923.5,-81 1039.5,-81 1039.5,-62 923.5,-62"/>
<text text-anchor="middle" x="981.5" y="-69" font-family="Helvetica,sans-Serif" font-size="10.00">opencv2/core/core.hpp</text>
</g>
<!-- Node1&#45;&gt;Node10 -->
<g id="edge62" class="edge"><title>Node1&#45;&gt;Node10</title>
<path fill="none" stroke="midnightblue" d="M396.995,-481.336C336.373,-457.663 183.035,-388.589 235.5,-313 299.085,-221.389 659.363,-230.027 702.5,-221 801.297,-200.327 836.765,-211.821 919.5,-154 943.463,-137.253 962.223,-108.392 972.577,-89.8902"/>
<polygon fill="midnightblue" stroke="midnightblue" points="975.677,-91.5148 977.326,-81.0491 969.511,-88.2023 975.677,-91.5148"/>
</g>
<!-- Node24 -->
<g id="node25" class="node"><title>Node24</title>
<g id="a_node25"><a xlink:href="_frame_8h.html" target="_top" xlink:title="Frame.h">
<polygon fill="white" stroke="black" points="422,-313.5 422,-332.5 475,-332.5 475,-313.5 422,-313.5"/>
<text text-anchor="middle" x="448.5" y="-320.5" font-family="Helvetica,sans-Serif" font-size="10.00">Frame.h</text>
</a>
</g>
</g>
<!-- Node1&#45;&gt;Node24 -->
<g id="edge60" class="edge"><title>Node1&#45;&gt;Node24</title>
<path fill="none" stroke="midnightblue" d="M418.742,-481.075C418.937,-454.945 431.485,-378.211 440.917,-342.577"/>
<polygon fill="midnightblue" stroke="midnightblue" points="444.396,-343.149 443.85,-332.568 437.679,-341.18 444.396,-343.149"/>
</g>
<!-- Node1&#45;&gt;Node28 -->
<g id="edge63" class="edge"><title>Node1&#45;&gt;Node28</title>
<path fill="none" stroke="midnightblue" d="M405.9,-481.457C380.455,-465.933 327.639,-430.805 295.5,-389 284.684,-374.931 276.877,-356.192 272.107,-342.45"/>
<polygon fill="midnightblue" stroke="midnightblue" points="275.352,-341.113 268.933,-332.684 268.695,-343.277 275.352,-341.113"/>
</g>
<!-- Node2&#45;&gt;Node1 -->
<g id="edge3" class="edge"><title>Node2&#45;&gt;Node1</title>
<path fill="none" stroke="midnightblue" d="M485.87,-444.834C476.513,-453.184 459.912,-465.859 445.664,-475.658"/>
<polygon fill="midnightblue" stroke="midnightblue" points="443.554,-472.859 437.183,-481.324 447.442,-478.68 443.554,-472.859"/>
</g>
<!-- Node3 -->
<g id="node4" class="node"><title>Node3</title>
<g id="a_node4"><a xlink:href="_bow_vector_8h.html" target="_top" xlink:title="../Thirdparty/DBoW2\l/DBoW2/BowVector.h">
<polygon fill="white" stroke="black" points="153,-56.5 153,-86.5 266,-86.5 266,-56.5 153,-56.5"/>
<text text-anchor="start" x="161" y="-74.5" font-family="Helvetica,sans-Serif" font-size="10.00">../Thirdparty/DBoW2</text>
<text text-anchor="middle" x="209.5" y="-63.5" font-family="Helvetica,sans-Serif" font-size="10.00">/DBoW2/BowVector.h</text>
</a>
</g>
</g>
<!-- Node2&#45;&gt;Node3 -->
<g id="edge4" class="edge"><title>Node2&#45;&gt;Node3</title>
<path fill="none" stroke="midnightblue" d="M475.97,-425.493C421.963,-396.564 251.273,-295.841 200.5,-154 193.888,-135.53 197.003,-113.327 201.289,-96.7631"/>
<polygon fill="midnightblue" stroke="midnightblue" points="204.758,-97.3677 204.184,-86.7884 198.035,-95.4167 204.758,-97.3677"/>
</g>
<!-- Node7 -->
<g id="node8" class="node"><title>Node7</title>
<g id="a_node8"><a xlink:href="_feature_vector_8h.html" target="_top" xlink:title="../Thirdparty/DBoW2\l/DBoW2/FeatureVector.h">
<polygon fill="white" stroke="black" points="0,-123.5 0,-153.5 127,-153.5 127,-123.5 0,-123.5"/>
<text text-anchor="start" x="8" y="-141.5" font-family="Helvetica,sans-Serif" font-size="10.00">../Thirdparty/DBoW2</text>
<text text-anchor="middle" x="63.5" y="-130.5" font-family="Helvetica,sans-Serif" font-size="10.00">/DBoW2/FeatureVector.h</text>
</a>
</g>
</g>
<!-- Node2&#45;&gt;Node7 -->
<g id="edge8" class="edge"><title>Node2&#45;&gt;Node7</title>
<path fill="none" stroke="midnightblue" d="M478.565,-425.457C423.373,-391.563 220.164,-266.218 159.5,-221 133.579,-201.679 105.572,-177.485 86.538,-160.495"/>
<polygon fill="midnightblue" stroke="midnightblue" points="88.7403,-157.769 78.9621,-153.69 84.0625,-162.976 88.7403,-157.769"/>
</g>
<!-- Node8 -->
<g id="node9" class="node"><title>Node8</title>
<g id="a_node9"><a xlink:href="_o_r_b_vocabulary_8h.html" target="_top" xlink:title="ORBVocabulary.h">
<polygon fill="white" stroke="black" points="560,-257.5 560,-276.5 655,-276.5 655,-257.5 560,-257.5"/>
<text text-anchor="middle" x="607.5" y="-264.5" font-family="Helvetica,sans-Serif" font-size="10.00">ORBVocabulary.h</text>
</a>
</g>
</g>
<!-- Node2&#45;&gt;Node8 -->
<g id="edge13" class="edge"><title>Node2&#45;&gt;Node8</title>
<path fill="none" stroke="midnightblue" d="M498.683,-425.075C517.02,-398.606 571.331,-320.209 595.578,-285.21"/>
<polygon fill="midnightblue" stroke="midnightblue" points="598.747,-286.781 601.564,-276.568 592.992,-282.795 598.747,-286.781"/>
</g>
<!-- Node22 -->
<g id="node23" class="node"><title>Node22</title>
<g id="a_node23"><a xlink:href="_o_r_bextractor_8h.html" target="_top" xlink:title="ORBextractor.h">
<polygon fill="white" stroke="black" points="939,-257.5 939,-276.5 1024,-276.5 1024,-257.5 939,-257.5"/>
<text text-anchor="middle" x="981.5" y="-264.5" font-family="Helvetica,sans-Serif" font-size="10.00">ORBextractor.h</text>
</a>
</g>
</g>
<!-- Node2&#45;&gt;Node22 -->
<g id="edge38" class="edge"><title>Node2&#45;&gt;Node22</title>
<path fill="none" stroke="midnightblue" d="M527.716,-426.601C564.276,-418.593 622.944,-404.825 672.5,-389 777.899,-355.342 899.058,-304.088 953.016,-280.58"/>
<polygon fill="midnightblue" stroke="midnightblue" points="954.53,-283.737 962.29,-276.524 951.725,-277.324 954.53,-283.737"/>
</g>
<!-- Node2&#45;&gt;Node24 -->
<g id="edge42" class="edge"><title>Node2&#45;&gt;Node24</title>
<path fill="none" stroke="midnightblue" d="M485.204,-425.368C474.708,-407.537 457.767,-366.295 450.631,-342.272"/>
<polygon fill="midnightblue" stroke="midnightblue" points="454.016,-341.381 448.101,-332.591 447.244,-343.152 454.016,-341.381"/>
</g>
<!-- Node26 -->
<g id="node27" class="node"><title>Node26</title>
<g id="a_node27"><a xlink:href="_key_frame_database_8h.html" target="_top" xlink:title="KeyFrameDatabase.h">
<polygon fill="white" stroke="black" points="551.5,-369.5 551.5,-388.5 663.5,-388.5 663.5,-369.5 551.5,-369.5"/>
<text text-anchor="middle" x="607.5" y="-376.5" font-family="Helvetica,sans-Serif" font-size="10.00">KeyFrameDatabase.h</text>
</a>
</g>
</g>
<!-- Node2&#45;&gt;Node26 -->
<g id="edge51" class="edge"><title>Node2&#45;&gt;Node26</title>
<path fill="none" stroke="midnightblue" d="M505.862,-425.324C522.731,-416.507 551.784,-402.753 574.611,-392.707"/>
<polygon fill="midnightblue" stroke="midnightblue" points="576.176,-395.844 583.959,-388.655 573.392,-389.421 576.176,-395.844"/>
</g>
<!-- Node2&#45;&gt;Node28 -->
<g id="edge59" class="edge"><title>Node2&#45;&gt;Node28</title>
<path fill="none" stroke="midnightblue" d="M457.277,-430.989C420.863,-426.511 363.557,-415.54 321.5,-389 302.426,-376.963 286.551,-356.185 276.837,-341.361"/>
<polygon fill="midnightblue" stroke="midnightblue" points="279.645,-339.25 271.372,-332.631 273.712,-342.964 279.645,-339.25"/>
</g>
<!-- Node4 -->
<g id="node5" class="node"><title>Node4</title>
<polygon fill="white" stroke="#bfbfbf" points="46.5,-0.5 46.5,-19.5 100.5,-19.5 100.5,-0.5 46.5,-0.5"/>
<text text-anchor="middle" x="73.5" y="-7.5" font-family="Helvetica,sans-Serif" font-size="10.00">iostream</text>
</g>
<!-- Node3&#45;&gt;Node4 -->
<g id="edge5" class="edge"><title>Node3&#45;&gt;Node4</title>
<path fill="none" stroke="midnightblue" d="M177.27,-56.3993C154.655,-46.5054 124.662,-33.3832 102.739,-23.7919"/>
<polygon fill="midnightblue" stroke="midnightblue" points="103.854,-20.4595 93.2892,-19.6578 101.048,-26.8726 103.854,-20.4595"/>
</g>
<!-- Node5 -->
<g id="node6" class="node"><title>Node5</title>
<polygon fill="white" stroke="#bfbfbf" points="168,-0.5 168,-19.5 203,-19.5 203,-0.5 168,-0.5"/>
<text text-anchor="middle" x="185.5" y="-7.5" font-family="Helvetica,sans-Serif" font-size="10.00">map</text>
</g>
<!-- Node3&#45;&gt;Node5 -->
<g id="edge6" class="edge"><title>Node3&#45;&gt;Node5</title>
<path fill="none" stroke="midnightblue" d="M203.812,-56.3993C200.505,-48.1989 196.302,-37.7809 192.758,-28.9936"/>
<polygon fill="midnightblue" stroke="midnightblue" points="195.979,-27.6225 188.992,-19.6578 189.487,-30.2411 195.979,-27.6225"/>
</g>
<!-- Node6 -->
<g id="node7" class="node"><title>Node6</title>
<polygon fill="white" stroke="#bfbfbf" points="845.5,-0.5 845.5,-19.5 889.5,-19.5 889.5,-0.5 845.5,-0.5"/>
<text text-anchor="middle" x="867.5" y="-7.5" font-family="Helvetica,sans-Serif" font-size="10.00">vector</text>
</g>
<!-- Node3&#45;&gt;Node6 -->
<g id="edge7" class="edge"><title>Node3&#45;&gt;Node6</title>
<path fill="none" stroke="midnightblue" d="M266.13,-62.6481C283.84,-60.3324 303.465,-57.9096 321.5,-56 516.289,-35.3752 751.025,-18.812 835.378,-13.1231"/>
<polygon fill="midnightblue" stroke="midnightblue" points="835.618,-16.615 845.361,-12.4534 835.149,-9.63069 835.618,-16.615"/>
</g>
<!-- Node7&#45;&gt;Node3 -->
<g id="edge9" class="edge"><title>Node7&#45;&gt;Node3</title>
<path fill="none" stroke="midnightblue" d="M95.1798,-123.396C116.703,-113.814 145.373,-101.05 168.616,-90.7016"/>
<polygon fill="midnightblue" stroke="midnightblue" points="170.17,-93.8412 177.882,-86.5765 167.323,-87.4463 170.17,-93.8412"/>
</g>
<!-- Node7&#45;&gt;Node4 -->
<g id="edge12" class="edge"><title>Node7&#45;&gt;Node4</title>
<path fill="none" stroke="midnightblue" d="M64.6084,-123.479C66.4076,-100.719 69.9662,-55.7023 71.9934,-30.0582"/>
<polygon fill="midnightblue" stroke="midnightblue" points="75.5062,-30.0333 72.8053,-19.7885 68.528,-29.4816 75.5062,-30.0333"/>
</g>
<!-- Node7&#45;&gt;Node5 -->
<g id="edge10" class="edge"><title>Node7&#45;&gt;Node5</title>
<path fill="none" stroke="midnightblue" d="M68.9995,-123.406C76.3603,-105.939 90.8075,-76.0365 110.5,-56 124.251,-42.0092 143.223,-30.6793 158.644,-22.8876"/>
<polygon fill="midnightblue" stroke="midnightblue" points="160.232,-26.0075 167.709,-18.5012 157.183,-19.7064 160.232,-26.0075"/>
</g>
<!-- Node7&#45;&gt;Node6 -->
<g id="edge11" class="edge"><title>Node7&#45;&gt;Node6</title>
<path fill="none" stroke="midnightblue" d="M76.8836,-123.349C98.5407,-100.525 139.284,-57.9252 143.5,-56 206.943,-27.0282 702.707,-14.5011 835.093,-11.6523"/>
<polygon fill="midnightblue" stroke="midnightblue" points="835.455,-15.1455 845.379,-11.4349 835.307,-8.1471 835.455,-15.1455"/>
</g>
<!-- Node9 -->
<g id="node10" class="node"><title>Node9</title>
<g id="a_node10"><a xlink:href="_f_o_r_b_8h.html" target="_top" xlink:title="../Thirdparty/DBoW2\l/DBoW2/FORB.h">
<polygon fill="white" stroke="black" points="1022,-190.5 1022,-220.5 1129,-220.5 1129,-190.5 1022,-190.5"/>
<text text-anchor="start" x="1030" y="-208.5" font-family="Helvetica,sans-Serif" font-size="10.00">../Thirdparty/DBoW2</text>
<text text-anchor="middle" x="1075.5" y="-197.5" font-family="Helvetica,sans-Serif" font-size="10.00">/DBoW2/FORB.h</text>
</a>
</g>
</g>
<!-- Node8&#45;&gt;Node9 -->
<g id="edge14" class="edge"><title>Node8&#45;&gt;Node9</title>
<path fill="none" stroke="midnightblue" d="M655.385,-259.912C740.237,-249.124 916.971,-226.655 1011.92,-214.583"/>
<polygon fill="midnightblue" stroke="midnightblue" points="1012.48,-218.04 1021.96,-213.306 1011.6,-211.096 1012.48,-218.04"/>
</g>
<!-- Node13 -->
<g id="node14" class="node"><title>Node13</title>
<g id="a_node14"><a xlink:href="_templated_vocabulary_8h.html" target="_top" xlink:title="../Thirdparty/DBoW2\l/DBoW2/TemplatedVocabulary.h">
<polygon fill="white" stroke="black" points="533.5,-190.5 533.5,-220.5 693.5,-220.5 693.5,-190.5 533.5,-190.5"/>
<text text-anchor="start" x="541.5" y="-208.5" font-family="Helvetica,sans-Serif" font-size="10.00">../Thirdparty/DBoW2</text>
<text text-anchor="middle" x="613.5" y="-197.5" font-family="Helvetica,sans-Serif" font-size="10.00">/DBoW2/TemplatedVocabulary.h</text>
</a>
</g>
</g>
<!-- Node8&#45;&gt;Node13 -->
<g id="edge22" class="edge"><title>Node8&#45;&gt;Node13</title>
<path fill="none" stroke="midnightblue" d="M608.36,-257.475C609.066,-250.471 610.102,-240.192 611.06,-230.696"/>
<polygon fill="midnightblue" stroke="midnightblue" points="614.565,-230.824 612.086,-220.523 607.6,-230.121 614.565,-230.824"/>
</g>
<!-- Node9&#45;&gt;Node6 -->
<g id="edge16" class="edge"><title>Node9&#45;&gt;Node6</title>
<path fill="none" stroke="midnightblue" d="M1117.83,-190.302C1134.52,-182.389 1151.95,-170.679 1161.5,-154 1183.14,-116.2 1189.87,-89.0463 1161.5,-56 1128.05,-17.0459 969.164,-11.4571 899.902,-10.9029"/>
<polygon fill="midnightblue" stroke="midnightblue" points="899.606,-7.40147 889.589,-10.8528 899.572,-14.4014 899.606,-7.40147"/>
</g>
<!-- Node9&#45;&gt;Node10 -->
<g id="edge15" class="edge"><title>Node9&#45;&gt;Node10</title>
<path fill="none" stroke="midnightblue" d="M1065.05,-190.411C1057.59,-180.316 1047.36,-166.373 1038.5,-154 1022.7,-131.936 1004.82,-106.247 993.366,-89.6996"/>
<polygon fill="midnightblue" stroke="midnightblue" points="995.994,-87.3457 987.429,-81.1093 990.236,-91.3257 995.994,-87.3457"/>
</g>
<!-- Node11 -->
<g id="node12" class="node"><title>Node11</title>
<polygon fill="white" stroke="#bfbfbf" points="1111,-62 1111,-81 1152,-81 1152,-62 1111,-62"/>
<text text-anchor="middle" x="1131.5" y="-69" font-family="Helvetica,sans-Serif" font-size="10.00">string</text>
</g>
<!-- Node9&#45;&gt;Node11 -->
<g id="edge17" class="edge"><title>Node9&#45;&gt;Node11</title>
<path fill="none" stroke="midnightblue" d="M1106.84,-190.44C1121.42,-182.105 1137.31,-170.009 1145.5,-154 1155.79,-133.89 1148.14,-107.713 1140.72,-90.5229"/>
<polygon fill="midnightblue" stroke="midnightblue" points="1143.72,-88.6717 1136.29,-81.1159 1137.38,-91.6541 1143.72,-88.6717"/>
</g>
<!-- Node12 -->
<g id="node13" class="node"><title>Node12</title>
<g id="a_node13"><a xlink:href="_f_class_8h.html" target="_top" xlink:title="FClass.h">
<polygon fill="white" stroke="black" points="1047.5,-129 1047.5,-148 1103.5,-148 1103.5,-129 1047.5,-129"/>
<text text-anchor="middle" x="1075.5" y="-136" font-family="Helvetica,sans-Serif" font-size="10.00">FClass.h</text>
</a>
</g>
</g>
<!-- Node9&#45;&gt;Node12 -->
<g id="edge18" class="edge"><title>Node9&#45;&gt;Node12</title>
<path fill="none" stroke="midnightblue" d="M1075.5,-190.396C1075.5,-181.064 1075.5,-168.714 1075.5,-158.517"/>
<polygon fill="midnightblue" stroke="midnightblue" points="1079,-158.195 1075.5,-148.195 1072,-158.195 1079,-158.195"/>
</g>
<!-- Node12&#45;&gt;Node6 -->
<g id="edge20" class="edge"><title>Node12&#45;&gt;Node6</title>
<path fill="none" stroke="midnightblue" d="M1075.25,-128.933C1074.28,-112.323 1069.71,-75.6532 1048.5,-56 1007.51,-18.0205 939.528,-10.797 899.576,-10.1222"/>
<polygon fill="midnightblue" stroke="midnightblue" points="899.59,-6.62231 889.576,-10.0809 899.561,-13.6222 899.59,-6.62231"/>
</g>
<!-- Node12&#45;&gt;Node10 -->
<g id="edge19" class="edge"><title>Node12&#45;&gt;Node10</title>
<path fill="none" stroke="midnightblue" d="M1062.82,-128.734C1047.32,-118.013 1020.86,-99.7165 1002.34,-86.9137"/>
<polygon fill="midnightblue" stroke="midnightblue" points="1004.19,-83.9361 993.976,-81.1273 1000.21,-89.6937 1004.19,-83.9361"/>
</g>
<!-- Node12&#45;&gt;Node11 -->
<g id="edge21" class="edge"><title>Node12&#45;&gt;Node11</title>
<path fill="none" stroke="midnightblue" d="M1083.05,-128.734C1091.78,-118.598 1106.35,-101.69 1117.24,-89.0556"/>
<polygon fill="midnightblue" stroke="midnightblue" points="1120.19,-90.9879 1124.07,-81.1273 1114.89,-86.4189 1120.19,-90.9879"/>
</g>
<!-- Node13&#45;&gt;Node3 -->
<g id="edge32" class="edge"><title>Node13&#45;&gt;Node3</title>
<path fill="none" stroke="midnightblue" d="M535.265,-190.483C492.525,-181.866 438.984,-169.498 392.5,-154 364.547,-144.68 293.423,-111.992 248.525,-90.953"/>
<polygon fill="midnightblue" stroke="midnightblue" points="249.907,-87.7352 239.367,-86.6531 246.931,-94.0715 249.907,-87.7352"/>
</g>
<!-- Node13&#45;&gt;Node6 -->
<g id="edge24" class="edge"><title>Node13&#45;&gt;Node6</title>
<path fill="none" stroke="midnightblue" d="M693.713,-197.086C753.295,-189.84 827.692,-176.534 848.5,-154 879.988,-119.901 875.843,-60.2309 871.155,-29.8828"/>
<polygon fill="midnightblue" stroke="midnightblue" points="874.564,-29.0555 869.405,-19.8017 867.667,-30.2531 874.564,-29.0555"/>
</g>
<!-- Node13&#45;&gt;Node7 -->
<g id="edge31" class="edge"><title>Node13&#45;&gt;Node7</title>
<path fill="none" stroke="midnightblue" d="M533.231,-195.014C426.758,-182.43 240.298,-160.394 137.225,-148.213"/>
<polygon fill="midnightblue" stroke="midnightblue" points="137.554,-144.728 127.212,-147.03 136.732,-151.679 137.554,-144.728"/>
</g>
<!-- Node13&#45;&gt;Node10 -->
<g id="edge29" class="edge"><title>Node13&#45;&gt;Node10</title>
<path fill="none" stroke="midnightblue" d="M693.764,-199.785C748.734,-194.105 822.14,-181.586 881.5,-154 916,-137.967 948.744,-107.329 966.872,-88.5259"/>
<polygon fill="midnightblue" stroke="midnightblue" points="969.612,-90.7219 973.919,-81.0418 964.515,-85.9234 969.612,-90.7219"/>
</g>
<!-- Node13&#45;&gt;Node11 -->
<g id="edge27" class="edge"><title>Node13&#45;&gt;Node11</title>
<path fill="none" stroke="midnightblue" d="M693.649,-201.436C826.721,-195.612 1081.75,-181.044 1112.5,-154 1130.11,-138.513 1133.07,-110.155 1132.85,-91.3136"/>
<polygon fill="midnightblue" stroke="midnightblue" points="1136.34,-91.0931 1132.42,-81.2504 1129.35,-91.3897 1136.34,-91.0931"/>
</g>
<!-- Node14 -->
<g id="node15" class="node"><title>Node14</title>
<polygon fill="white" stroke="#bfbfbf" points="521,-129 521,-148 570,-148 570,-129 521,-129"/>
<text text-anchor="middle" x="545.5" y="-136" font-family="Helvetica,sans-Serif" font-size="10.00">cassert</text>
</g>
<!-- Node13&#45;&gt;Node14 -->
<g id="edge23" class="edge"><title>Node13&#45;&gt;Node14</title>
<path fill="none" stroke="midnightblue" d="M598.745,-190.396C587.932,-180.06 573.248,-166.024 562.039,-155.309"/>
<polygon fill="midnightblue" stroke="midnightblue" points="564.243,-152.574 554.596,-148.195 559.406,-157.634 564.243,-152.574"/>
</g>
<!-- Node15 -->
<g id="node16" class="node"><title>Node15</title>
<polygon fill="white" stroke="#bfbfbf" points="588,-129 588,-148 639,-148 639,-129 588,-129"/>
<text text-anchor="middle" x="613.5" y="-136" font-family="Helvetica,sans-Serif" font-size="10.00">numeric</text>
</g>
<!-- Node13&#45;&gt;Node15 -->
<g id="edge25" class="edge"><title>Node13&#45;&gt;Node15</title>
<path fill="none" stroke="midnightblue" d="M613.5,-190.396C613.5,-181.064 613.5,-168.714 613.5,-158.517"/>
<polygon fill="midnightblue" stroke="midnightblue" points="617,-158.195 613.5,-148.195 610,-158.195 617,-158.195"/>
</g>
<!-- Node16 -->
<g id="node17" class="node"><title>Node16</title>
<polygon fill="white" stroke="#bfbfbf" points="657.5,-129 657.5,-148 707.5,-148 707.5,-129 657.5,-129"/>
<text text-anchor="middle" x="682.5" y="-136" font-family="Helvetica,sans-Serif" font-size="10.00">fstream</text>
</g>
<!-- Node13&#45;&gt;Node16 -->
<g id="edge26" class="edge"><title>Node13&#45;&gt;Node16</title>
<path fill="none" stroke="midnightblue" d="M628.472,-190.396C639.444,-180.06 654.344,-166.024 665.718,-155.309"/>
<polygon fill="midnightblue" stroke="midnightblue" points="668.391,-157.599 673.27,-148.195 663.592,-152.504 668.391,-157.599"/>
</g>
<!-- Node17 -->
<g id="node18" class="node"><title>Node17</title>
<polygon fill="white" stroke="#bfbfbf" points="725.5,-129 725.5,-148 781.5,-148 781.5,-129 725.5,-129"/>
<text text-anchor="middle" x="753.5" y="-136" font-family="Helvetica,sans-Serif" font-size="10.00">algorithm</text>
</g>
<!-- Node13&#45;&gt;Node17 -->
<g id="edge28" class="edge"><title>Node13&#45;&gt;Node17</title>
<path fill="none" stroke="midnightblue" d="M643.878,-190.396C668.334,-179.041 702.411,-163.22 726.052,-152.244"/>
<polygon fill="midnightblue" stroke="midnightblue" points="727.581,-155.393 735.177,-148.007 724.633,-149.044 727.581,-155.393"/>
</g>
<!-- Node18 -->
<g id="node19" class="node"><title>Node18</title>
<polygon fill="white" stroke="#bfbfbf" points="799.5,-129 799.5,-148 839.5,-148 839.5,-129 799.5,-129"/>
<text text-anchor="middle" x="819.5" y="-136" font-family="Helvetica,sans-Serif" font-size="10.00">limits</text>
</g>
<!-- Node13&#45;&gt;Node18 -->
<g id="edge30" class="edge"><title>Node13&#45;&gt;Node18</title>
<path fill="none" stroke="midnightblue" d="M673.001,-190.47C707.781,-181.545 752.228,-168.879 790.5,-154 791.877,-153.465 793.277,-152.887 794.68,-152.28"/>
<polygon fill="midnightblue" stroke="midnightblue" points="796.211,-155.428 803.786,-148.021 793.245,-149.087 796.211,-155.428"/>
</g>
<!-- Node19 -->
<g id="node20" class="node"><title>Node19</title>
<g id="a_node20"><a xlink:href="_scoring_object_8h.html" target="_top" xlink:title="ScoringObject.h">
<polygon fill="white" stroke="black" points="221.5,-129 221.5,-148 307.5,-148 307.5,-129 221.5,-129"/>
<text text-anchor="middle" x="264.5" y="-136" font-family="Helvetica,sans-Serif" font-size="10.00">ScoringObject.h</text>
</a>
</g>
</g>
<!-- Node13&#45;&gt;Node19 -->
<g id="edge33" class="edge"><title>Node13&#45;&gt;Node19</title>
<path fill="none" stroke="midnightblue" d="M538.202,-190.476C471.851,-178.118 376.847,-160.424 318.001,-149.464"/>
<polygon fill="midnightblue" stroke="midnightblue" points="318.279,-145.956 307.807,-147.566 316.997,-152.838 318.279,-145.956"/>
</g>
<!-- Node20 -->
<g id="node21" class="node"><title>Node20</title>
<g id="a_node21"><a xlink:href="_random_8h.html" target="_top" xlink:title="../DUtils/Random.h">
<polygon fill="white" stroke="black" points="402,-129 402,-148 503,-148 503,-129 402,-129"/>
<text text-anchor="middle" x="452.5" y="-136" font-family="Helvetica,sans-Serif" font-size="10.00">../DUtils/Random.h</text>
</a>
</g>
</g>
<!-- Node13&#45;&gt;Node20 -->
<g id="edge35" class="edge"><title>Node13&#45;&gt;Node20</title>
<path fill="none" stroke="midnightblue" d="M578.565,-190.396C550.066,-178.89 510.206,-162.797 482.984,-151.807"/>
<polygon fill="midnightblue" stroke="midnightblue" points="484.154,-148.505 473.571,-148.007 481.534,-154.996 484.154,-148.505"/>
</g>
<!-- Node19&#45;&gt;Node3 -->
<g id="edge34" class="edge"><title>Node19&#45;&gt;Node3</title>
<path fill="none" stroke="midnightblue" d="M257.082,-128.734C249.649,-119.949 237.912,-106.078 227.956,-94.3111"/>
<polygon fill="midnightblue" stroke="midnightblue" points="230.553,-91.9621 221.421,-86.589 225.209,-96.4837 230.553,-91.9621"/>
</g>
<!-- Node20&#45;&gt;Node6 -->
<g id="edge37" class="edge"><title>Node20&#45;&gt;Node6</title>
<path fill="none" stroke="midnightblue" d="M480.698,-128.905C555.25,-106.18 757.204,-44.6204 835.695,-20.6946"/>
<polygon fill="midnightblue" stroke="midnightblue" points="836.954,-23.9702 845.498,-17.7065 834.912,-17.2744 836.954,-23.9702"/>
</g>
<!-- Node21 -->
<g id="node22" class="node"><title>Node21</title>
<polygon fill="white" stroke="#bfbfbf" points="430,-62 430,-81 475,-81 475,-62 430,-62"/>
<text text-anchor="middle" x="452.5" y="-69" font-family="Helvetica,sans-Serif" font-size="10.00">cstdlib</text>
</g>
<!-- Node20&#45;&gt;Node21 -->
<g id="edge36" class="edge"><title>Node20&#45;&gt;Node21</title>
<path fill="none" stroke="midnightblue" d="M452.5,-128.734C452.5,-119.183 452.5,-103.618 452.5,-91.2829"/>
<polygon fill="midnightblue" stroke="midnightblue" points="456,-91.1273 452.5,-81.1273 449,-91.1273 456,-91.1273"/>
</g>
<!-- Node22&#45;&gt;Node6 -->
<g id="edge39" class="edge"><title>Node22&#45;&gt;Node6</title>
<path fill="none" stroke="midnightblue" d="M1023.47,-257.434C1063.47,-248.662 1120.23,-234.445 1138.5,-221 1199.72,-175.947 1233.32,-113.412 1183.5,-56 1146.98,-13.9127 972.823,-10.1802 899.817,-10.5145"/>
<polygon fill="midnightblue" stroke="midnightblue" points="899.782,-7.01461 889.808,-10.5893 899.834,-14.0144 899.782,-7.01461"/>
</g>
<!-- Node22&#45;&gt;Node10 -->
<g id="edge41" class="edge"><title>Node22&#45;&gt;Node10</title>
<path fill="none" stroke="midnightblue" d="M981.5,-257.436C981.5,-228.287 981.5,-132.468 981.5,-91.4284"/>
<polygon fill="midnightblue" stroke="midnightblue" points="985,-91.4068 981.5,-81.4068 978,-91.4069 985,-91.4068"/>
</g>
<!-- Node23 -->
<g id="node24" class="node"><title>Node23</title>
<polygon fill="white" stroke="#bfbfbf" points="1226,-196 1226,-215 1255,-215 1255,-196 1226,-196"/>
<text text-anchor="middle" x="1240.5" y="-203" font-family="Helvetica,sans-Serif" font-size="10.00">list</text>
</g>
<!-- Node22&#45;&gt;Node23 -->
<g id="edge40" class="edge"><title>Node22&#45;&gt;Node23</title>
<path fill="none" stroke="midnightblue" d="M1024.43,-259.027C1081.06,-249.584 1177.51,-232.582 1211.5,-221 1213.15,-220.438 1214.82,-219.801 1216.49,-219.113"/>
<polygon fill="midnightblue" stroke="midnightblue" points="1218.17,-222.193 1225.78,-214.822 1215.24,-215.838 1218.17,-222.193"/>
</g>
<!-- Node24&#45;&gt;Node1 -->
<g id="edge44" class="edge"><title>Node24&#45;&gt;Node1</title>
<path fill="none" stroke="midnightblue" d="M450.259,-332.568C450.178,-358.342 437.565,-435.585 428.091,-471.395"/>
<polygon fill="midnightblue" stroke="midnightblue" points="424.707,-470.495 425.268,-481.075 431.427,-472.454 424.707,-470.495"/>
</g>
<!-- Node24&#45;&gt;Node2 -->
<g id="edge48" class="edge"><title>Node24&#45;&gt;Node2</title>
<path fill="none" stroke="midnightblue" d="M455.772,-332.591C466.258,-350.388 483.202,-391.625 490.353,-415.674"/>
<polygon fill="midnightblue" stroke="midnightblue" points="486.972,-416.581 492.89,-425.368 493.744,-414.808 486.972,-416.581"/>
</g>
<!-- Node24&#45;&gt;Node3 -->
<g id="edge45" class="edge"><title>Node24&#45;&gt;Node3</title>
<path fill="none" stroke="midnightblue" d="M421.907,-318.265C394.111,-313.166 350.574,-301.667 321.5,-277 287.826,-248.43 304.271,-221.676 273.5,-190 251.565,-167.42 228.61,-181.046 212.5,-154 202.336,-136.937 202.41,-114.103 204.554,-96.9459"/>
<polygon fill="midnightblue" stroke="midnightblue" points="208.083,-97.0301 206.175,-86.6086 201.168,-95.9457 208.083,-97.0301"/>
</g>
<!-- Node24&#45;&gt;Node6 -->
<g id="edge43" class="edge"><title>Node24&#45;&gt;Node6</title>
<path fill="none" stroke="midnightblue" d="M429.586,-313.429C397.418,-297.406 335.5,-259.66 335.5,-206.5 335.5,-206.5 335.5,-206.5 335.5,-137.5 335.5,-85.1625 372.979,-77.93 420.5,-56 494.508,-21.8473 745.618,-13.4661 835.32,-11.5399"/>
<polygon fill="midnightblue" stroke="midnightblue" points="835.509,-15.0369 845.437,-11.3357 835.368,-8.0383 835.509,-15.0369"/>
</g>
<!-- Node24&#45;&gt;Node7 -->
<g id="edge46" class="edge"><title>Node24&#45;&gt;Node7</title>
<path fill="none" stroke="midnightblue" d="M421.795,-317.656C388.32,-311.56 329.727,-298.708 283.5,-277 222.562,-248.384 216.963,-225.076 159.5,-190 140.884,-178.637 119.464,-167.22 101.588,-158.123"/>
<polygon fill="midnightblue" stroke="midnightblue" points="103.101,-154.966 92.5957,-153.59 99.9497,-161.217 103.101,-154.966"/>
</g>
<!-- Node24&#45;&gt;Node8 -->
<g id="edge47" class="edge"><title>Node24&#45;&gt;Node8</title>
<path fill="none" stroke="midnightblue" d="M473.694,-313.444C500.443,-304.359 542.903,-289.939 572.805,-279.783"/>
<polygon fill="midnightblue" stroke="midnightblue" points="574.081,-283.046 582.424,-276.516 571.829,-276.418 574.081,-283.046"/>
</g>
<!-- Node24&#45;&gt;Node22 -->
<g id="edge49" class="edge"><title>Node24&#45;&gt;Node22</title>
<path fill="none" stroke="midnightblue" d="M475.297,-319.285C559.023,-310.803 816.793,-284.687 928.72,-273.347"/>
<polygon fill="midnightblue" stroke="midnightblue" points="929.17,-276.82 938.767,-272.329 928.465,-269.855 929.17,-276.82"/>
</g>
<!-- Node25 -->
<g id="node26" class="node"><title>Node25</title>
<polygon fill="white" stroke="#bfbfbf" points="395,-257.5 395,-276.5 502,-276.5 502,-257.5 395,-257.5"/>
<text text-anchor="middle" x="448.5" y="-264.5" font-family="Helvetica,sans-Serif" font-size="10.00">opencv2/opencv.hpp</text>
</g>
<!-- Node24&#45;&gt;Node25 -->
<g id="edge50" class="edge"><title>Node24&#45;&gt;Node25</title>
<path fill="none" stroke="midnightblue" d="M448.5,-313.083C448.5,-306.006 448.5,-295.861 448.5,-286.986"/>
<polygon fill="midnightblue" stroke="midnightblue" points="452,-286.751 448.5,-276.751 445,-286.751 452,-286.751"/>
</g>
<!-- Node26&#45;&gt;Node2 -->
<g id="edge55" class="edge"><title>Node26&#45;&gt;Node2</title>
<path fill="none" stroke="midnightblue" d="M594.443,-388.516C577.58,-397.349 548.209,-411.255 525.218,-421.368"/>
<polygon fill="midnightblue" stroke="midnightblue" points="523.595,-418.257 515.811,-425.444 526.378,-424.68 523.595,-418.257"/>
</g>
<!-- Node26&#45;&gt;Node6 -->
<g id="edge52" class="edge"><title>Node26&#45;&gt;Node6</title>
<path fill="none" stroke="midnightblue" d="M663.684,-374.759C825.899,-364.657 1283.5,-330.611 1283.5,-268 1283.5,-268 1283.5,-268 1283.5,-137.5 1283.5,-87.6682 1250.86,-78.6959 1206.5,-56 1153.23,-28.7454 973.649,-16.5106 899.716,-12.5409"/>
<polygon fill="midnightblue" stroke="midnightblue" points="899.77,-9.03909 889.602,-12.0144 899.406,-16.0296 899.77,-9.03909"/>
</g>
<!-- Node26&#45;&gt;Node8 -->
<g id="edge57" class="edge"><title>Node26&#45;&gt;Node8</title>
<path fill="none" stroke="midnightblue" d="M607.5,-369.368C607.5,-351.617 607.5,-310.666 607.5,-286.597"/>
<polygon fill="midnightblue" stroke="midnightblue" points="611,-286.591 607.5,-276.591 604,-286.591 611,-286.591"/>
</g>
<!-- Node26&#45;&gt;Node23 -->
<g id="edge53" class="edge"><title>Node26&#45;&gt;Node23</title>
<path fill="none" stroke="midnightblue" d="M647.682,-369.486C723.527,-353.191 892.804,-315.757 1033.5,-277 1113.46,-254.975 1134.61,-252.087 1211.5,-221 1213.15,-220.333 1214.84,-219.609 1216.52,-218.853"/>
<polygon fill="midnightblue" stroke="midnightblue" points="1218.45,-221.812 1225.96,-214.338 1215.42,-215.498 1218.45,-221.812"/>
</g>
<!-- Node26&#45;&gt;Node24 -->
<g id="edge56" class="edge"><title>Node26&#45;&gt;Node24</title>
<path fill="none" stroke="midnightblue" d="M582.306,-369.444C555.557,-360.359 513.097,-345.939 483.195,-335.783"/>
<polygon fill="midnightblue" stroke="midnightblue" points="484.171,-332.418 473.576,-332.516 481.919,-339.046 484.171,-332.418"/>
</g>
<!-- Node26&#45;&gt;Node27 -->
<g id="edge54" class="edge"><title>Node26&#45;&gt;Node27</title>
<path fill="none" stroke="midnightblue" d="M663.502,-378.79C781.71,-379.488 1064.96,-376.042 1297.5,-333 1298.78,-332.763 1300.09,-332.487 1301.4,-332.183"/>
<polygon fill="midnightblue" stroke="midnightblue" points="1302.61,-335.481 1311.32,-329.45 1300.75,-328.732 1302.61,-335.481"/>
</g>
<!-- Node26&#45;&gt;Node28 -->
<g id="edge58" class="edge"><title>Node26&#45;&gt;Node28</title>
<path fill="none" stroke="midnightblue" d="M553.468,-369.444C481.689,-358.077 357.158,-338.356 298.635,-329.089"/>
<polygon fill="midnightblue" stroke="midnightblue" points="298.927,-325.592 288.503,-327.484 297.832,-332.505 298.927,-325.592"/>
</g>
</g>
</svg>
