<?xml version="1.0" encoding="UTF-8" standalone="no"?>
<!DOCTYPE svg PUBLIC "-//W3C//DTD SVG 1.1//EN"
 "http://www.w3.org/Graphics/SVG/1.1/DTD/svg11.dtd">
<!-- Generated by graphviz version 2.40.1 (20161225.0304)
 -->
<!-- Title: /home/alejandro/Desarrollo eclipse/os1/src/MapDrawer.cc Pages: 1 -->
<svg width="1394pt" height="554pt"
 viewBox="0.00 0.00 1393.85 554.00" xmlns="http://www.w3.org/2000/svg" xmlns:xlink="http://www.w3.org/1999/xlink">
<g id="graph0" class="graph" transform="scale(1 1) rotate(0) translate(4 550)">
<title>/home/alejandro/Desarrollo eclipse/os1/src/MapDrawer.cc</title>
<polygon fill="#ffffff" stroke="transparent" points="-4,4 -4,-550 1389.8539,-550 1389.8539,4 -4,4"/>
<!-- Node0 -->
<g id="node1" class="node">
<title>Node0</title>
<polygon fill="#bfbfbf" stroke="#000000" points="1155.8539,-515.5 1155.8539,-545.5 1307.8539,-545.5 1307.8539,-515.5 1155.8539,-515.5"/>
<text text-anchor="start" x="1163.8539" y="-533.5" font-family="Helvetica,sans-Serif" font-size="10.00" fill="#000000">/home/alejandro/Desarrollo</text>
<text text-anchor="middle" x="1231.8539" y="-522.5" font-family="Helvetica,sans-Serif" font-size="10.00" fill="#000000"> eclipse/os1/src/MapDrawer.cc</text>
</g>
<!-- Node1 -->
<g id="node2" class="node">
<title>Node1</title>
<g id="a_node2"><a xlink:href="_map_drawer_8h.html" target="_top" xlink:title="MapDrawer.h">
<polygon fill="#ffffff" stroke="#000000" points="1098.3539,-459.5 1098.3539,-478.5 1173.3539,-478.5 1173.3539,-459.5 1098.3539,-459.5"/>
<text text-anchor="middle" x="1135.8539" y="-466.5" font-family="Helvetica,sans-Serif" font-size="10.00" fill="#000000">MapDrawer.h</text>
</a>
</g>
</g>
<!-- Node0&#45;&gt;Node1 -->
<g id="edge1" class="edge">
<title>Node0&#45;&gt;Node1</title>
<path fill="none" stroke="#191970" d="M1208.1235,-515.2977C1193.3177,-505.8127 1174.3311,-493.6495 1159.5346,-484.1705"/>
<polygon fill="#191970" stroke="#191970" points="1161.2464,-481.1105 1150.938,-478.6633 1157.4703,-487.0047 1161.2464,-481.1105"/>
</g>
<!-- Node23 -->
<g id="node24" class="node">
<title>Node23</title>
<polygon fill="#ffffff" stroke="#bfbfbf" points="1144.8539,-235.5 1144.8539,-254.5 1188.8539,-254.5 1188.8539,-235.5 1144.8539,-235.5"/>
<text text-anchor="middle" x="1166.8539" y="-242.5" font-family="Helvetica,sans-Serif" font-size="10.00" fill="#000000">mutex</text>
</g>
<!-- Node0&#45;&gt;Node23 -->
<g id="edge69" class="edge">
<title>Node0&#45;&gt;Node23</title>
<path fill="none" stroke="#191970" d="M1263.5514,-515.4642C1297.8968,-496.7116 1347.8539,-461.1579 1347.8539,-413 1347.8539,-413 1347.8539,-413 1347.8539,-357 1347.8539,-287.8573 1251.1621,-259.9555 1199.1217,-249.9456"/>
<polygon fill="#191970" stroke="#191970" points="1199.5113,-246.4593 1189.048,-248.1238 1198.2656,-253.3476 1199.5113,-246.4593"/>
</g>
<!-- Node24 -->
<g id="node25" class="node">
<title>Node24</title>
<g id="a_node25"><a xlink:href="_map_point_8h.html" target="_top" xlink:title="MapPoint.h">
<polygon fill="#ffffff" stroke="#000000" points="975.8539,-403.5 975.8539,-422.5 1041.8539,-422.5 1041.8539,-403.5 975.8539,-403.5"/>
<text text-anchor="middle" x="1008.8539" y="-410.5" font-family="Helvetica,sans-Serif" font-size="10.00" fill="#000000">MapPoint.h</text>
</a>
</g>
</g>
<!-- Node0&#45;&gt;Node24 -->
<g id="edge66" class="edge">
<title>Node0&#45;&gt;Node24</title>
<path fill="none" stroke="#191970" d="M1177.3837,-515.4811C1150.1404,-506.8079 1117.2283,-494.5218 1089.8539,-479 1065.6668,-465.2855 1041.4049,-444.3327 1025.829,-429.7264"/>
<polygon fill="#191970" stroke="#191970" points="1028.1682,-427.1205 1018.522,-422.7386 1023.3302,-432.1796 1028.1682,-427.1205"/>
</g>
<!-- Node25 -->
<g id="node26" class="node">
<title>Node25</title>
<g id="a_node26"><a xlink:href="_key_frame_8h.html" target="_top" xlink:title="KeyFrame.h">
<polygon fill="#ffffff" stroke="#000000" points="1105.8539,-347.5 1105.8539,-366.5 1175.8539,-366.5 1175.8539,-347.5 1105.8539,-347.5"/>
<text text-anchor="middle" x="1140.8539" y="-354.5" font-family="Helvetica,sans-Serif" font-size="10.00" fill="#000000">KeyFrame.h</text>
</a>
</g>
</g>
<!-- Node0&#45;&gt;Node25 -->
<g id="edge67" class="edge">
<title>Node0&#45;&gt;Node25</title>
<path fill="none" stroke="#191970" d="M1248.7247,-515.2971C1274.457,-490.2561 1317.8232,-439.4796 1290.8539,-403 1278.2294,-385.9237 1225.3354,-372.5839 1185.9108,-364.7639"/>
<polygon fill="#191970" stroke="#191970" points="1186.4381,-361.3013 1175.9569,-362.8485 1185.1153,-368.1752 1186.4381,-361.3013"/>
</g>
<!-- Node31 -->
<g id="node32" class="node">
<title>Node31</title>
<polygon fill="#ffffff" stroke="#bfbfbf" points="1181.8539,-403.5 1181.8539,-422.5 1281.8539,-422.5 1281.8539,-403.5 1181.8539,-403.5"/>
<text text-anchor="middle" x="1231.8539" y="-410.5" font-family="Helvetica,sans-Serif" font-size="10.00" fill="#000000">pangolin/pangolin.h</text>
</g>
<!-- Node0&#45;&gt;Node31 -->
<g id="edge68" class="edge">
<title>Node0&#45;&gt;Node31</title>
<path fill="none" stroke="#191970" d="M1231.8539,-515.1389C1231.8539,-493.9692 1231.8539,-455.8174 1231.8539,-432.6112"/>
<polygon fill="#191970" stroke="#191970" points="1235.354,-432.5594 1231.8539,-422.5595 1228.354,-432.5595 1235.354,-432.5594"/>
</g>
<!-- Node2 -->
<g id="node3" class="node">
<title>Node2</title>
<g id="a_node3"><a xlink:href="_map_8h.html" target="_top" xlink:title="Map.h">
<polygon fill="#ffffff" stroke="#000000" points="1055.8539,-291.5 1055.8539,-310.5 1099.8539,-310.5 1099.8539,-291.5 1055.8539,-291.5"/>
<text text-anchor="middle" x="1077.8539" y="-298.5" font-family="Helvetica,sans-Serif" font-size="10.00" fill="#000000">Map.h</text>
</a>
</g>
</g>
<!-- Node1&#45;&gt;Node2 -->
<g id="edge2" class="edge">
<title>Node1&#45;&gt;Node2</title>
<path fill="none" stroke="#191970" d="M1131.8092,-459.2537C1124.3958,-441.2178 1108.3391,-401.3413 1096.8539,-367 1091.7128,-351.6282 1086.6743,-333.9716 1083.0789,-320.791"/>
<polygon fill="#191970" stroke="#191970" points="1086.4021,-319.6703 1080.4278,-310.9205 1079.6417,-321.4861 1086.4021,-319.6703"/>
</g>
<!-- Node1&#45;&gt;Node23 -->
<g id="edge65" class="edge">
<title>Node1&#45;&gt;Node23</title>
<path fill="none" stroke="#191970" d="M1142.2925,-459.414C1153.5888,-441.9521 1176.5654,-403.3949 1184.8539,-367 1193.0168,-331.1564 1182.1323,-288.5117 1174.079,-264.3137"/>
<polygon fill="#191970" stroke="#191970" points="1177.2766,-262.8564 1170.6566,-254.5844 1170.6733,-265.1792 1177.2766,-262.8564"/>
</g>
<!-- Node1&#45;&gt;Node24 -->
<g id="edge37" class="edge">
<title>Node1&#45;&gt;Node24</title>
<path fill="none" stroke="#191970" d="M1114.0218,-459.3733C1093.5436,-450.3435 1062.714,-436.7494 1039.7219,-426.6111"/>
<polygon fill="#191970" stroke="#191970" points="1040.9632,-423.3333 1030.4011,-422.5011 1038.1389,-429.7383 1040.9632,-423.3333"/>
</g>
<!-- Node1&#45;&gt;Node25 -->
<g id="edge63" class="edge">
<title>Node1&#45;&gt;Node25</title>
<path fill="none" stroke="#191970" d="M1136.2802,-459.4509C1137.0957,-441.184 1138.8916,-400.9553 1139.9745,-376.6976"/>
<polygon fill="#191970" stroke="#191970" points="1143.4791,-376.6711 1140.4287,-366.5249 1136.4861,-376.3588 1143.4791,-376.6711"/>
</g>
<!-- Node1&#45;&gt;Node31 -->
<g id="edge64" class="edge">
<title>Node1&#45;&gt;Node31</title>
<path fill="none" stroke="#191970" d="M1152.5758,-459.2455C1167.4428,-450.5731 1189.4004,-437.7645 1206.4396,-427.825"/>
<polygon fill="#191970" stroke="#191970" points="1208.4493,-430.7047 1215.3236,-422.6427 1204.9222,-424.6582 1208.4493,-430.7047"/>
</g>
<!-- Node3 -->
<g id="node4" class="node">
<title>Node3</title>
<g id="a_node4"><a xlink:href="_o_r_b_vocabulary_8h.html" target="_top" xlink:title="ORBVocabulary.h">
<polygon fill="#ffffff" stroke="#000000" points="945.3539,-235.5 945.3539,-254.5 1040.3539,-254.5 1040.3539,-235.5 945.3539,-235.5"/>
<text text-anchor="middle" x="992.8539" y="-242.5" font-family="Helvetica,sans-Serif" font-size="10.00" fill="#000000">ORBVocabulary.h</text>
</a>
</g>
</g>
<!-- Node2&#45;&gt;Node3 -->
<g id="edge3" class="edge">
<title>Node2&#45;&gt;Node3</title>
<path fill="none" stroke="#191970" d="M1063.048,-291.2455C1050.1283,-282.7337 1031.1608,-270.2375 1016.1986,-260.3801"/>
<polygon fill="#191970" stroke="#191970" points="1017.7663,-257.2216 1007.4901,-254.6427 1013.9151,-263.067 1017.7663,-257.2216"/>
</g>
<!-- Node22 -->
<g id="node23" class="node">
<title>Node22</title>
<polygon fill="#ffffff" stroke="#bfbfbf" points="1096.8539,-235.5 1096.8539,-254.5 1126.8539,-254.5 1126.8539,-235.5 1096.8539,-235.5"/>
<text text-anchor="middle" x="1111.8539" y="-242.5" font-family="Helvetica,sans-Serif" font-size="10.00" fill="#000000">set</text>
</g>
<!-- Node2&#45;&gt;Node22 -->
<g id="edge35" class="edge">
<title>Node2&#45;&gt;Node22</title>
<path fill="none" stroke="#191970" d="M1083.7762,-291.2455C1088.4566,-283.5367 1095.1211,-272.5598 1100.7827,-263.2348"/>
<polygon fill="#191970" stroke="#191970" points="1103.8013,-265.007 1105.9994,-254.6427 1097.8178,-261.3741 1103.8013,-265.007"/>
</g>
<!-- Node2&#45;&gt;Node23 -->
<g id="edge36" class="edge">
<title>Node2&#45;&gt;Node23</title>
<path fill="none" stroke="#191970" d="M1093.3565,-291.2455C1107.0118,-282.6534 1127.1196,-270.0014 1142.8528,-260.1018"/>
<polygon fill="#191970" stroke="#191970" points="1144.929,-262.9307 1151.5289,-254.6427 1141.201,-257.006 1144.929,-262.9307"/>
</g>
<!-- Node4 -->
<g id="node5" class="node">
<title>Node4</title>
<g id="a_node5"><a xlink:href="_f_o_r_b_8h.html" target="_top" xlink:title="../Thirdparty/DBoW2\l/DBoW2/FORB.h">
<polygon fill="#ffffff" stroke="#000000" points="334.3539,-168.5 334.3539,-198.5 441.3539,-198.5 441.3539,-168.5 334.3539,-168.5"/>
<text text-anchor="start" x="342.3539" y="-186.5" font-family="Helvetica,sans-Serif" font-size="10.00" fill="#000000">../Thirdparty/DBoW2</text>
<text text-anchor="middle" x="387.8539" y="-175.5" font-family="Helvetica,sans-Serif" font-size="10.00" fill="#000000">/DBoW2/FORB.h</text>
</a>
</g>
</g>
<!-- Node3&#45;&gt;Node4 -->
<g id="edge4" class="edge">
<title>Node3&#45;&gt;Node4</title>
<path fill="none" stroke="#191970" d="M945.172,-236.9872C940.3417,-236.2721 935.5043,-235.5949 930.8539,-235 758.0884,-212.8985 553.2723,-195.9707 451.6476,-188.1915"/>
<polygon fill="#191970" stroke="#191970" points="451.7847,-184.6919 441.5478,-187.4225 451.2532,-191.6717 451.7847,-184.6919"/>
</g>
<!-- Node9 -->
<g id="node10" class="node">
<title>Node9</title>
<g id="a_node10"><a xlink:href="_templated_vocabulary_8h.html" target="_top" xlink:title="../Thirdparty/DBoW2\l/DBoW2/TemplatedVocabulary.h">
<polygon fill="#ffffff" stroke="#000000" points="693.8539,-168.5 693.8539,-198.5 853.8539,-198.5 853.8539,-168.5 693.8539,-168.5"/>
<text text-anchor="start" x="701.8539" y="-186.5" font-family="Helvetica,sans-Serif" font-size="10.00" fill="#000000">../Thirdparty/DBoW2</text>
<text text-anchor="middle" x="773.8539" y="-175.5" font-family="Helvetica,sans-Serif" font-size="10.00" fill="#000000">/DBoW2/TemplatedVocabulary.h</text>
</a>
</g>
</g>
<!-- Node3&#45;&gt;Node9 -->
<g id="edge12" class="edge">
<title>Node3&#45;&gt;Node9</title>
<path fill="none" stroke="#191970" d="M958.6351,-235.3906C926.2518,-226.2967 876.8427,-212.4215 837.2621,-201.3064"/>
<polygon fill="#191970" stroke="#191970" points="838.0012,-197.8786 827.4273,-198.5446 836.1086,-204.618 838.0012,-197.8786"/>
</g>
<!-- Node5 -->
<g id="node6" class="node">
<title>Node5</title>
<polygon fill="#ffffff" stroke="#bfbfbf" points="189.8539,-56.5 189.8539,-75.5 305.8539,-75.5 305.8539,-56.5 189.8539,-56.5"/>
<text text-anchor="middle" x="247.8539" y="-63.5" font-family="Helvetica,sans-Serif" font-size="10.00" fill="#000000">opencv2/core/core.hpp</text>
</g>
<!-- Node4&#45;&gt;Node5 -->
<g id="edge5" class="edge">
<title>Node4&#45;&gt;Node5</title>
<path fill="none" stroke="#191970" d="M337.8791,-168.4028C307.3295,-158.198 272.1936,-144.3783 261.8539,-132 251.1885,-119.2319 248.0483,-100.3158 247.366,-86.0039"/>
<polygon fill="#191970" stroke="#191970" points="250.8627,-85.678 247.2491,-75.7185 243.8631,-85.7577 250.8627,-85.678"/>
</g>
<!-- Node6 -->
<g id="node7" class="node">
<title>Node6</title>
<polygon fill="#ffffff" stroke="#bfbfbf" points="441.8539,-.5 441.8539,-19.5 485.8539,-19.5 485.8539,-.5 441.8539,-.5"/>
<text text-anchor="middle" x="463.8539" y="-7.5" font-family="Helvetica,sans-Serif" font-size="10.00" fill="#000000">vector</text>
</g>
<!-- Node4&#45;&gt;Node6 -->
<g id="edge6" class="edge">
<title>Node4&#45;&gt;Node6</title>
<path fill="none" stroke="#191970" d="M334.0775,-168.5125C307.1992,-159.8473 274.7561,-147.5589 247.8539,-132 208.8741,-109.456 151.6791,-90.2999 180.8539,-56 196.9971,-37.021 361.0012,-19.5911 431.7026,-12.8967"/>
<polygon fill="#191970" stroke="#191970" points="432.1894,-16.3666 441.8206,-11.9519 431.5385,-9.3969 432.1894,-16.3666"/>
</g>
<!-- Node7 -->
<g id="node8" class="node">
<title>Node7</title>
<polygon fill="#ffffff" stroke="#bfbfbf" points="367.3539,-56.5 367.3539,-75.5 408.3539,-75.5 408.3539,-56.5 367.3539,-56.5"/>
<text text-anchor="middle" x="387.8539" y="-63.5" font-family="Helvetica,sans-Serif" font-size="10.00" fill="#000000">string</text>
</g>
<!-- Node4&#45;&gt;Node7 -->
<g id="edge7" class="edge">
<title>Node4&#45;&gt;Node7</title>
<path fill="none" stroke="#191970" d="M387.8539,-168.1389C387.8539,-146.9692 387.8539,-108.8174 387.8539,-85.6112"/>
<polygon fill="#191970" stroke="#191970" points="391.354,-85.5594 387.8539,-75.5595 384.354,-85.5595 391.354,-85.5594"/>
</g>
<!-- Node8 -->
<g id="node9" class="node">
<title>Node8</title>
<g id="a_node9"><a xlink:href="_f_class_8h.html" target="_top" xlink:title="FClass.h">
<polygon fill="#ffffff" stroke="#000000" points="303.8539,-112.5 303.8539,-131.5 359.8539,-131.5 359.8539,-112.5 303.8539,-112.5"/>
<text text-anchor="middle" x="331.8539" y="-119.5" font-family="Helvetica,sans-Serif" font-size="10.00" fill="#000000">FClass.h</text>
</a>
</g>
</g>
<!-- Node4&#45;&gt;Node8 -->
<g id="edge8" class="edge">
<title>Node4&#45;&gt;Node8</title>
<path fill="none" stroke="#191970" d="M374.0112,-168.2977C365.9949,-159.4941 355.8776,-148.3833 347.5639,-139.2529"/>
<polygon fill="#191970" stroke="#191970" points="350.1408,-136.8845 340.8202,-131.8469 344.965,-141.5974 350.1408,-136.8845"/>
</g>
<!-- Node8&#45;&gt;Node5 -->
<g id="edge9" class="edge">
<title>Node8&#45;&gt;Node5</title>
<path fill="none" stroke="#191970" d="M317.2222,-112.2455C304.4545,-103.7337 285.7101,-91.2375 270.924,-81.3801"/>
<polygon fill="#191970" stroke="#191970" points="272.5799,-78.2775 262.3179,-75.6427 268.6969,-84.1019 272.5799,-78.2775"/>
</g>
<!-- Node8&#45;&gt;Node6 -->
<g id="edge10" class="edge">
<title>Node8&#45;&gt;Node6</title>
<path fill="none" stroke="#191970" d="M333.2947,-112.2178C335.8532,-98.094 342.449,-71.9404 357.8539,-56 377.7696,-35.3919 408.4675,-23.4592 431.7116,-16.9371"/>
<polygon fill="#191970" stroke="#191970" points="432.6903,-20.299 441.482,-14.3865 430.9221,-13.526 432.6903,-20.299"/>
</g>
<!-- Node8&#45;&gt;Node7 -->
<g id="edge11" class="edge">
<title>Node8&#45;&gt;Node7</title>
<path fill="none" stroke="#191970" d="M341.6083,-112.2455C349.7187,-104.1352 361.4464,-92.4075 371.062,-82.7919"/>
<polygon fill="#191970" stroke="#191970" points="373.615,-85.1887 378.2112,-75.6427 368.6652,-80.2389 373.615,-85.1887"/>
</g>
<!-- Node9&#45;&gt;Node5 -->
<g id="edge19" class="edge">
<title>Node9&#45;&gt;Node5</title>
<path fill="none" stroke="#191970" d="M693.7836,-178.478C566.3902,-169.9549 328.4418,-151.6591 294.8539,-132 276.5298,-121.2749 263.475,-100.2534 255.8458,-84.8053"/>
<polygon fill="#191970" stroke="#191970" points="258.9786,-83.2405 251.6151,-75.6228 252.6209,-86.1698 258.9786,-83.2405"/>
</g>
<!-- Node9&#45;&gt;Node6 -->
<g id="edge14" class="edge">
<title>Node9&#45;&gt;Node6</title>
<path fill="none" stroke="#191970" d="M693.5409,-179.5493C617.7343,-174.0682 511.5306,-161.2755 482.8539,-132 456.2101,-104.7998 457.3927,-56.6114 460.6141,-29.6549"/>
<polygon fill="#191970" stroke="#191970" points="464.1118,-29.9162 462.0444,-19.5251 457.1806,-28.9375 464.1118,-29.9162"/>
</g>
<!-- Node9&#45;&gt;Node7 -->
<g id="edge17" class="edge">
<title>Node9&#45;&gt;Node7</title>
<path fill="none" stroke="#191970" d="M693.636,-176.7244C611.7481,-168.7575 490.9994,-153.7953 449.8539,-132 428.6853,-120.7867 410.751,-99.5395 399.7004,-84.1757"/>
<polygon fill="#191970" stroke="#191970" points="402.2926,-81.7683 393.7421,-75.5122 396.525,-85.735 402.2926,-81.7683"/>
</g>
<!-- Node10 -->
<g id="node11" class="node">
<title>Node10</title>
<polygon fill="#ffffff" stroke="#bfbfbf" points="812.3539,-112.5 812.3539,-131.5 861.3539,-131.5 861.3539,-112.5 812.3539,-112.5"/>
<text text-anchor="middle" x="836.8539" y="-119.5" font-family="Helvetica,sans-Serif" font-size="10.00" fill="#000000">cassert</text>
</g>
<!-- Node9&#45;&gt;Node10 -->
<g id="edge13" class="edge">
<title>Node9&#45;&gt;Node10</title>
<path fill="none" stroke="#191970" d="M789.4269,-168.2977C798.5363,-159.4052 810.0573,-148.1586 819.4629,-138.9769"/>
<polygon fill="#191970" stroke="#191970" points="822.0559,-141.3368 826.7668,-131.8469 817.1661,-136.3278 822.0559,-141.3368"/>
</g>
<!-- Node11 -->
<g id="node12" class="node">
<title>Node11</title>
<polygon fill="#ffffff" stroke="#bfbfbf" points="879.3539,-112.5 879.3539,-131.5 930.3539,-131.5 930.3539,-112.5 879.3539,-112.5"/>
<text text-anchor="middle" x="904.8539" y="-119.5" font-family="Helvetica,sans-Serif" font-size="10.00" fill="#000000">numeric</text>
</g>
<!-- Node9&#45;&gt;Node11 -->
<g id="edge15" class="edge">
<title>Node9&#45;&gt;Node11</title>
<path fill="none" stroke="#191970" d="M805.9001,-168.4554C827.0867,-158.509 854.6566,-145.5659 875.3126,-135.8686"/>
<polygon fill="#191970" stroke="#191970" points="876.9888,-138.9483 884.5535,-131.5303 874.014,-132.6118 876.9888,-138.9483"/>
</g>
<!-- Node12 -->
<g id="node13" class="node">
<title>Node12</title>
<polygon fill="#ffffff" stroke="#bfbfbf" points="611.8539,-112.5 611.8539,-131.5 661.8539,-131.5 661.8539,-112.5 611.8539,-112.5"/>
<text text-anchor="middle" x="636.8539" y="-119.5" font-family="Helvetica,sans-Serif" font-size="10.00" fill="#000000">fstream</text>
</g>
<!-- Node9&#45;&gt;Node12 -->
<g id="edge16" class="edge">
<title>Node9&#45;&gt;Node12</title>
<path fill="none" stroke="#191970" d="M740.3399,-168.4554C718.0826,-158.464 689.0892,-145.4487 667.4553,-135.7372"/>
<polygon fill="#191970" stroke="#191970" points="668.6404,-132.4327 658.084,-131.5303 665.7736,-138.8187 668.6404,-132.4327"/>
</g>
<!-- Node13 -->
<g id="node14" class="node">
<title>Node13</title>
<polygon fill="#ffffff" stroke="#bfbfbf" points="679.8539,-112.5 679.8539,-131.5 735.8539,-131.5 735.8539,-112.5 679.8539,-112.5"/>
<text text-anchor="middle" x="707.8539" y="-119.5" font-family="Helvetica,sans-Serif" font-size="10.00" fill="#000000">algorithm</text>
</g>
<!-- Node9&#45;&gt;Node13 -->
<g id="edge18" class="edge">
<title>Node9&#45;&gt;Node13</title>
<path fill="none" stroke="#191970" d="M757.5393,-168.2977C747.9006,-159.3163 735.6848,-147.9334 725.778,-138.702"/>
<polygon fill="#191970" stroke="#191970" points="728.1235,-136.1036 718.4213,-131.8469 723.3514,-141.2249 728.1235,-136.1036"/>
</g>
<!-- Node14 -->
<g id="node15" class="node">
<title>Node14</title>
<polygon fill="#ffffff" stroke="#bfbfbf" points="753.8539,-112.5 753.8539,-131.5 793.8539,-131.5 793.8539,-112.5 753.8539,-112.5"/>
<text text-anchor="middle" x="773.8539" y="-119.5" font-family="Helvetica,sans-Serif" font-size="10.00" fill="#000000">limits</text>
</g>
<!-- Node9&#45;&gt;Node14 -->
<g id="edge20" class="edge">
<title>Node9&#45;&gt;Node14</title>
<path fill="none" stroke="#191970" d="M773.8539,-168.2977C773.8539,-160.3834 773.8539,-150.6043 773.8539,-142.0759"/>
<polygon fill="#191970" stroke="#191970" points="777.354,-141.8469 773.8539,-131.8469 770.354,-141.847 777.354,-141.8469"/>
</g>
<!-- Node15 -->
<g id="node16" class="node">
<title>Node15</title>
<g id="a_node16"><a xlink:href="_feature_vector_8h.html" target="_top" xlink:title="FeatureVector.h">
<polygon fill="#ffffff" stroke="#000000" points="1166.8539,-112.5 1166.8539,-131.5 1252.8539,-131.5 1252.8539,-112.5 1166.8539,-112.5"/>
<text text-anchor="middle" x="1209.8539" y="-119.5" font-family="Helvetica,sans-Serif" font-size="10.00" fill="#000000">FeatureVector.h</text>
</a>
</g>
</g>
<!-- Node9&#45;&gt;Node15 -->
<g id="edge21" class="edge">
<title>Node9&#45;&gt;Node15</title>
<path fill="none" stroke="#191970" d="M854.0769,-172.1841C942.0464,-159.7756 1080.735,-140.2129 1156.3479,-129.5473"/>
<polygon fill="#191970" stroke="#191970" points="1157.1737,-132.9655 1166.5868,-128.103 1156.1959,-126.0342 1157.1737,-132.9655"/>
</g>
<!-- Node16 -->
<g id="node17" class="node">
<title>Node16</title>
<g id="a_node17"><a xlink:href="_bow_vector_8h.html" target="_top" xlink:title="BowVector.h">
<polygon fill="#ffffff" stroke="#000000" points="1102.3539,-56.5 1102.3539,-75.5 1175.3539,-75.5 1175.3539,-56.5 1102.3539,-56.5"/>
<text text-anchor="middle" x="1138.8539" y="-63.5" font-family="Helvetica,sans-Serif" font-size="10.00" fill="#000000">BowVector.h</text>
</a>
</g>
</g>
<!-- Node9&#45;&gt;Node16 -->
<g id="edge29" class="edge">
<title>Node9&#45;&gt;Node16</title>
<path fill="none" stroke="#191970" d="M854.0703,-177.0587C909.1601,-170.5321 983.0331,-157.5592 1043.8539,-132 1072.9705,-119.7641 1102.1652,-97.6541 1120.3537,-82.4194"/>
<polygon fill="#191970" stroke="#191970" points="1123.0347,-84.7313 1128.35,-75.5662 1118.4794,-79.4162 1123.0347,-84.7313"/>
</g>
<!-- Node19 -->
<g id="node20" class="node">
<title>Node19</title>
<g id="a_node20"><a xlink:href="_scoring_object_8h.html" target="_top" xlink:title="ScoringObject.h">
<polygon fill="#ffffff" stroke="#000000" points="948.8539,-112.5 948.8539,-131.5 1034.8539,-131.5 1034.8539,-112.5 948.8539,-112.5"/>
<text text-anchor="middle" x="991.8539" y="-119.5" font-family="Helvetica,sans-Serif" font-size="10.00" fill="#000000">ScoringObject.h</text>
</a>
</g>
</g>
<!-- Node9&#45;&gt;Node19 -->
<g id="edge30" class="edge">
<title>Node9&#45;&gt;Node19</title>
<path fill="none" stroke="#191970" d="M827.1827,-168.4554C864.3542,-157.9689 913.3333,-144.1515 948.1877,-134.3187"/>
<polygon fill="#191970" stroke="#191970" points="949.3976,-137.614 958.0716,-131.5303 947.4969,-130.877 949.3976,-137.614"/>
</g>
<!-- Node20 -->
<g id="node21" class="node">
<title>Node20</title>
<g id="a_node21"><a xlink:href="_random_8h.html" target="_top" xlink:title="../DUtils/Random.h">
<polygon fill="#ffffff" stroke="#000000" points="492.3539,-112.5 492.3539,-131.5 593.3539,-131.5 593.3539,-112.5 492.3539,-112.5"/>
<text text-anchor="middle" x="542.8539" y="-119.5" font-family="Helvetica,sans-Serif" font-size="10.00" fill="#000000">../DUtils/Random.h</text>
</a>
</g>
</g>
<!-- Node9&#45;&gt;Node20 -->
<g id="edge32" class="edge">
<title>Node9&#45;&gt;Node20</title>
<path fill="none" stroke="#191970" d="M717.3449,-168.4554C677.7877,-157.9239 625.6112,-144.0328 588.6492,-134.1923"/>
<polygon fill="#191970" stroke="#191970" points="589.2145,-130.7209 578.6507,-131.5303 587.4136,-137.4853 589.2145,-130.7209"/>
</g>
<!-- Node15&#45;&gt;Node6 -->
<g id="edge27" class="edge">
<title>Node15&#45;&gt;Node6</title>
<path fill="none" stroke="#191970" d="M1209.337,-112.4533C1207.9694,-97.6305 1202.9881,-69.3953 1184.8539,-56 1156.7974,-35.2755 632.9801,-15.8311 496.2666,-11.0938"/>
<polygon fill="#191970" stroke="#191970" points="496.1431,-7.5876 486.0287,-10.7415 495.9024,-14.5834 496.1431,-7.5876"/>
</g>
<!-- Node15&#45;&gt;Node16 -->
<g id="edge22" class="edge">
<title>Node15&#45;&gt;Node16</title>
<path fill="none" stroke="#191970" d="M1197.4866,-112.2455C1186.8985,-103.8943 1171.4475,-91.7076 1159.0646,-81.9408"/>
<polygon fill="#191970" stroke="#191970" points="1161.0986,-79.0875 1151.0794,-75.6427 1156.7636,-84.5837 1161.0986,-79.0875"/>
</g>
<!-- Node17 -->
<g id="node18" class="node">
<title>Node17</title>
<polygon fill="#ffffff" stroke="#bfbfbf" points="1130.8539,-.5 1130.8539,-19.5 1184.8539,-19.5 1184.8539,-.5 1130.8539,-.5"/>
<text text-anchor="middle" x="1157.8539" y="-7.5" font-family="Helvetica,sans-Serif" font-size="10.00" fill="#000000">iostream</text>
</g>
<!-- Node15&#45;&gt;Node17 -->
<g id="edge28" class="edge">
<title>Node15&#45;&gt;Node17</title>
<path fill="none" stroke="#191970" d="M1214.1611,-112.4837C1219.5258,-99.1357 1226.9446,-74.4245 1217.8539,-56 1211.3745,-42.8681 1199.1476,-32.4457 1187.4132,-24.8651"/>
<polygon fill="#191970" stroke="#191970" points="1189.019,-21.7475 1178.6391,-19.6244 1185.4295,-27.7572 1189.019,-21.7475"/>
</g>
<!-- Node18 -->
<g id="node19" class="node">
<title>Node18</title>
<polygon fill="#ffffff" stroke="#bfbfbf" points="1242.3539,-.5 1242.3539,-19.5 1277.3539,-19.5 1277.3539,-.5 1242.3539,-.5"/>
<text text-anchor="middle" x="1259.8539" y="-7.5" font-family="Helvetica,sans-Serif" font-size="10.00" fill="#000000">map</text>
</g>
<!-- Node15&#45;&gt;Node18 -->
<g id="edge26" class="edge">
<title>Node15&#45;&gt;Node18</title>
<path fill="none" stroke="#191970" d="M1223.8438,-112.4851C1234.6904,-104.2351 1248.9928,-91.2422 1255.8539,-76 1262.3327,-61.6068 1263.0058,-43.635 1262.2407,-30.081"/>
<polygon fill="#191970" stroke="#191970" points="1265.7095,-29.5691 1261.3557,-19.9102 1258.7359,-30.176 1265.7095,-29.5691"/>
</g>
<!-- Node16&#45;&gt;Node6 -->
<g id="edge25" class="edge">
<title>Node16&#45;&gt;Node6</title>
<path fill="none" stroke="#191970" d="M1102.1702,-58.2608C1097.3691,-57.4087 1092.5039,-56.625 1087.8539,-56 862.6132,-25.7267 588.7596,-14.2118 496.1892,-11.0142"/>
<polygon fill="#191970" stroke="#191970" points="496.1726,-7.5117 486.0604,-10.6728 495.9368,-14.5078 496.1726,-7.5117"/>
</g>
<!-- Node16&#45;&gt;Node17 -->
<g id="edge23" class="edge">
<title>Node16&#45;&gt;Node17</title>
<path fill="none" stroke="#191970" d="M1142.1634,-56.2455C1144.6972,-48.7776 1148.2715,-38.2427 1151.3689,-29.1137"/>
<polygon fill="#191970" stroke="#191970" points="1154.6836,-30.237 1154.5823,-19.6427 1148.0548,-27.9879 1154.6836,-30.237"/>
</g>
<!-- Node16&#45;&gt;Node18 -->
<g id="edge24" class="edge">
<title>Node16&#45;&gt;Node18</title>
<path fill="none" stroke="#191970" d="M1159.6545,-56.3733C1179.9022,-47.0024 1210.7712,-32.7159 1232.8934,-22.4776"/>
<polygon fill="#191970" stroke="#191970" points="1234.4719,-25.6037 1242.0771,-18.2273 1231.5318,-19.2511 1234.4719,-25.6037"/>
</g>
<!-- Node19&#45;&gt;Node16 -->
<g id="edge31" class="edge">
<title>Node19&#45;&gt;Node16</title>
<path fill="none" stroke="#191970" d="M1017.1241,-112.3733C1041.2505,-103.1822 1077.7901,-89.2624 1104.5416,-79.0713"/>
<polygon fill="#191970" stroke="#191970" points="1105.8146,-82.3318 1113.9134,-75.5011 1103.3225,-75.7904 1105.8146,-82.3318"/>
</g>
<!-- Node20&#45;&gt;Node6 -->
<g id="edge34" class="edge">
<title>Node20&#45;&gt;Node6</title>
<path fill="none" stroke="#191970" d="M536.1184,-112.4509C522.8838,-93.688 493.3059,-51.7548 476.3796,-27.758"/>
<polygon fill="#191970" stroke="#191970" points="479.1964,-25.6792 470.5723,-19.5249 473.4762,-29.714 479.1964,-25.6792"/>
</g>
<!-- Node21 -->
<g id="node22" class="node">
<title>Node21</title>
<polygon fill="#ffffff" stroke="#bfbfbf" points="530.3539,-56.5 530.3539,-75.5 575.3539,-75.5 575.3539,-56.5 530.3539,-56.5"/>
<text text-anchor="middle" x="552.8539" y="-63.5" font-family="Helvetica,sans-Serif" font-size="10.00" fill="#000000">cstdlib</text>
</g>
<!-- Node20&#45;&gt;Node21 -->
<g id="edge33" class="edge">
<title>Node20&#45;&gt;Node21</title>
<path fill="none" stroke="#191970" d="M544.5957,-112.2455C545.9006,-104.9382 547.7299,-94.6944 549.3352,-85.7046"/>
<polygon fill="#191970" stroke="#191970" points="552.8195,-86.1022 551.132,-75.6427 545.9285,-84.8717 552.8195,-86.1022"/>
</g>
<!-- Node24&#45;&gt;Node2 -->
<g id="edge60" class="edge">
<title>Node24&#45;&gt;Node2</title>
<path fill="none" stroke="#191970" d="M1009.5642,-403.3552C1010.9341,-389.8545 1014.8575,-364.963 1025.8539,-347 1033.1302,-335.1139 1044.4415,-324.5809 1054.6586,-316.6034"/>
<polygon fill="#191970" stroke="#191970" points="1056.912,-319.2901 1062.871,-310.5298 1052.7497,-313.662 1056.912,-319.2901"/>
</g>
<!-- Node24&#45;&gt;Node5 -->
<g id="edge61" class="edge">
<title>Node24&#45;&gt;Node5</title>
<path fill="none" stroke="#191970" d="M975.7317,-412.5359C810.7822,-409.7975 85.8539,-392.5545 85.8539,-301 85.8539,-301 85.8539,-301 85.8539,-245 85.8539,-166.1834 173.2633,-106.5743 219.6689,-80.4816"/>
<polygon fill="#191970" stroke="#191970" points="221.5453,-83.4445 228.6342,-75.5707 218.1823,-77.3053 221.5453,-83.4445"/>
</g>
<!-- Node24&#45;&gt;Node23 -->
<g id="edge62" class="edge">
<title>Node24&#45;&gt;Node23</title>
<path fill="none" stroke="#191970" d="M1018.688,-403.3259C1036.8238,-385.4072 1076.6285,-345.7143 1108.8539,-311 1123.8372,-294.8595 1140.3676,-275.9326 1151.9346,-262.4958"/>
<polygon fill="#191970" stroke="#191970" points="1154.9011,-264.413 1158.7529,-254.5431 1149.5869,-259.8568 1154.9011,-264.413"/>
</g>
<!-- Node24&#45;&gt;Node25 -->
<g id="edge38" class="edge">
<title>Node24&#45;&gt;Node25</title>
<path fill="none" stroke="#191970" d="M1031.5455,-403.3733C1052.925,-394.3032 1085.1596,-380.6279 1109.0901,-370.4755"/>
<polygon fill="#191970" stroke="#191970" points="1110.6195,-373.6287 1118.4584,-366.5011 1107.8856,-367.1846 1110.6195,-373.6287"/>
</g>
<!-- Node28 -->
<g id="node29" class="node">
<title>Node28</title>
<g id="a_node29"><a xlink:href="_frame_8h.html" target="_top" xlink:title="Frame.h">
<polygon fill="#ffffff" stroke="#000000" points="815.3539,-291.5 815.3539,-310.5 868.3539,-310.5 868.3539,-291.5 815.3539,-291.5"/>
<text text-anchor="middle" x="841.8539" y="-298.5" font-family="Helvetica,sans-Serif" font-size="10.00" fill="#000000">Frame.h</text>
</a>
</g>
</g>
<!-- Node24&#45;&gt;Node28 -->
<g id="edge49" class="edge">
<title>Node24&#45;&gt;Node28</title>
<path fill="none" stroke="#191970" d="M990.6358,-403.4509C958.4187,-384.1094 892.5778,-340.1465 860.2532,-316.5904"/>
<polygon fill="#191970" stroke="#191970" points="862.1966,-313.6741 852.0806,-310.5249 858.0248,-319.2951 862.1966,-313.6741"/>
</g>
<!-- Node25&#45;&gt;Node3 -->
<g id="edge41" class="edge">
<title>Node25&#45;&gt;Node3</title>
<path fill="none" stroke="#191970" d="M1105.4625,-355.0134C1048.4423,-350.9915 940.2508,-339.6899 916.8539,-311 900.0587,-290.4053 930.0348,-270.989 957.142,-258.6183"/>
<polygon fill="#191970" stroke="#191970" points="958.7481,-261.7368 966.5291,-254.5461 955.9622,-255.315 958.7481,-261.7368"/>
</g>
<!-- Node25&#45;&gt;Node15 -->
<g id="edge40" class="edge">
<title>Node25&#45;&gt;Node15</title>
<path fill="none" stroke="#191970" d="M1146.7592,-347.1936C1152.3056,-337.9241 1160.7855,-323.5984 1167.8539,-311 1181.6695,-286.3756 1189.7557,-282.0491 1197.8539,-255 1209.4964,-216.1125 1210.8266,-168.204 1210.5044,-141.805"/>
<polygon fill="#191970" stroke="#191970" points="1213.9991,-141.5183 1210.2809,-131.5974 1207.0008,-141.6716 1213.9991,-141.5183"/>
</g>
<!-- Node25&#45;&gt;Node16 -->
<g id="edge39" class="edge">
<title>Node25&#45;&gt;Node16</title>
<path fill="none" stroke="#191970" d="M1175.9564,-348.7202C1243.7011,-331.715 1385.8539,-290.5993 1385.8539,-245 1385.8539,-245 1385.8539,-245 1385.8539,-183.5 1385.8539,-139.5637 1256.7979,-97.752 1185.2589,-77.9498"/>
<polygon fill="#191970" stroke="#191970" points="1186.1343,-74.5608 1175.5656,-75.3038 1184.2909,-81.3137 1186.1343,-74.5608"/>
</g>
<!-- Node25&#45;&gt;Node23 -->
<g id="edge48" class="edge">
<title>Node25&#45;&gt;Node23</title>
<path fill="none" stroke="#191970" d="M1143.0706,-347.4509C1147.3304,-329.1013 1156.7346,-288.5908 1162.3574,-264.3693"/>
<polygon fill="#191970" stroke="#191970" points="1165.7907,-265.0573 1164.6427,-254.5249 1158.972,-263.4744 1165.7907,-265.0573"/>
</g>
<!-- Node26 -->
<g id="node27" class="node">
<title>Node26</title>
<g id="a_node27"><a xlink:href="_key_frame_database_8h.html" target="_top" xlink:title="KeyFrameDatabase.h">
<polygon fill="#ffffff" stroke="#000000" points="925.8539,-291.5 925.8539,-310.5 1037.8539,-310.5 1037.8539,-291.5 925.8539,-291.5"/>
<text text-anchor="middle" x="981.8539" y="-298.5" font-family="Helvetica,sans-Serif" font-size="10.00" fill="#000000">KeyFrameDatabase.h</text>
</a>
</g>
</g>
<!-- Node25&#45;&gt;Node26 -->
<g id="edge42" class="edge">
<title>Node25&#45;&gt;Node26</title>
<path fill="none" stroke="#191970" d="M1113.5208,-347.3733C1087.3104,-338.1419 1047.5555,-324.1402 1018.587,-313.9375"/>
<polygon fill="#191970" stroke="#191970" points="1019.4251,-310.5219 1008.8303,-310.5011 1017.0997,-317.1244 1019.4251,-310.5219"/>
</g>
<!-- Node26&#45;&gt;Node3 -->
<g id="edge46" class="edge">
<title>Node26&#45;&gt;Node3</title>
<path fill="none" stroke="#191970" d="M983.7699,-291.2455C985.2053,-283.9382 987.2175,-273.6944 988.9833,-264.7046"/>
<polygon fill="#191970" stroke="#191970" points="992.4666,-265.1298 990.9598,-254.6427 985.5979,-263.7805 992.4666,-265.1298"/>
</g>
<!-- Node26&#45;&gt;Node6 -->
<g id="edge43" class="edge">
<title>Node26&#45;&gt;Node6</title>
<path fill="none" stroke="#191970" d="M1006.3251,-291.3462C1021.5646,-283.9011 1039.9151,-271.9799 1048.8539,-255 1066.7967,-220.9164 1147.2654,-230.2225 1043.8539,-112 971.0557,-28.7754 607.2257,-13.3703 496.1251,-10.5938"/>
<polygon fill="#191970" stroke="#191970" points="495.9655,-7.0893 485.887,-10.3564 495.8032,-14.0874 495.9655,-7.0893"/>
</g>
<!-- Node26&#45;&gt;Node22 -->
<g id="edge45" class="edge">
<title>Node26&#45;&gt;Node22</title>
<path fill="none" stroke="#191970" d="M1004.2017,-291.3733C1027.3234,-281.4131 1063.3367,-265.8997 1087.2553,-255.5963"/>
<polygon fill="#191970" stroke="#191970" points="1088.8934,-258.7017 1096.6928,-251.5309 1086.1239,-252.2728 1088.8934,-258.7017"/>
</g>
<!-- Node26&#45;&gt;Node23 -->
<g id="edge47" class="edge">
<title>Node26&#45;&gt;Node23</title>
<path fill="none" stroke="#191970" d="M1014.6622,-291.425C1043.8705,-282.8509 1087.9992,-269.776 1134.8118,-255.2828"/>
<polygon fill="#191970" stroke="#191970" points="1136.0089,-258.576 1144.5213,-252.2682 1133.9331,-251.8909 1136.0089,-258.576"/>
</g>
<!-- Node27 -->
<g id="node28" class="node">
<title>Node27</title>
<polygon fill="#ffffff" stroke="#bfbfbf" points="287.3539,-174 287.3539,-193 316.3539,-193 316.3539,-174 287.3539,-174"/>
<text text-anchor="middle" x="301.8539" y="-181" font-family="Helvetica,sans-Serif" font-size="10.00" fill="#000000">list</text>
</g>
<!-- Node26&#45;&gt;Node27 -->
<g id="edge44" class="edge">
<title>Node26&#45;&gt;Node27</title>
<path fill="none" stroke="#191970" d="M925.6203,-295.4539C787.4517,-281.3201 434.6079,-242.0136 324.8539,-199 324.1478,-198.7233 323.4415,-198.4219 322.7377,-198.1"/>
<polygon fill="#191970" stroke="#191970" points="324.3709,-195.0023 313.9501,-193.09 320.9039,-201.0834 324.3709,-195.0023"/>
</g>
<!-- Node28&#45;&gt;Node3 -->
<g id="edge54" class="edge">
<title>Node28&#45;&gt;Node3</title>
<path fill="none" stroke="#191970" d="M867.8117,-291.3733C892.5946,-282.1822 930.1285,-268.2624 957.6079,-258.0713"/>
<polygon fill="#191970" stroke="#191970" points="959.0758,-261.26 967.2348,-254.5011 956.6417,-254.6968 959.0758,-261.26"/>
</g>
<!-- Node28&#45;&gt;Node6 -->
<g id="edge50" class="edge">
<title>Node28&#45;&gt;Node6</title>
<path fill="none" stroke="#191970" d="M815.034,-300.2503C689.6379,-296.6177 166.2586,-279.9956 142.8539,-255 105.3069,-214.9009 -165.3509,-403.1969 154.8539,-56 173.4724,-35.812 356.0478,-18.7746 431.491,-12.5392"/>
<polygon fill="#191970" stroke="#191970" points="432.1295,-15.9988 441.8123,-11.6985 431.5611,-9.0219 432.1295,-15.9988"/>
</g>
<!-- Node28&#45;&gt;Node15 -->
<g id="edge53" class="edge">
<title>Node28&#45;&gt;Node15</title>
<path fill="none" stroke="#191970" d="M852.2338,-291.4448C868.669,-276.872 902.2745,-249.2832 935.8539,-235 1012.9351,-202.213 1045.5275,-235.6392 1120.8539,-199 1150.6963,-184.4845 1178.4971,-157.3924 1194.8342,-139.5255"/>
<polygon fill="#191970" stroke="#191970" points="1197.8608,-141.3891 1201.892,-131.5911 1192.6306,-136.7367 1197.8608,-141.3891"/>
</g>
<!-- Node28&#45;&gt;Node16 -->
<g id="edge52" class="edge">
<title>Node28&#45;&gt;Node16</title>
<path fill="none" stroke="#191970" d="M848.3948,-291.104C857.8677,-277.3048 876.5119,-252.061 896.8539,-235 967.4751,-175.7695 1004.5044,-189.1065 1076.8539,-132 1095.0441,-117.6422 1112.8425,-97.9365 1124.6693,-83.8021"/>
<polygon fill="#191970" stroke="#191970" points="1127.5801,-85.772 1131.2116,-75.8189 1122.1659,-81.335 1127.5801,-85.772"/>
</g>
<!-- Node28&#45;&gt;Node24 -->
<g id="edge51" class="edge">
<title>Node28&#45;&gt;Node24</title>
<path fill="none" stroke="#191970" d="M860.0317,-310.5249C892.2207,-329.8459 958.0616,-373.807 990.4141,-397.3802"/>
<polygon fill="#191970" stroke="#191970" points="988.4791,-400.3026 998.5953,-403.4509 992.6504,-394.6812 988.4791,-400.3026"/>
</g>
<!-- Node29 -->
<g id="node30" class="node">
<title>Node29</title>
<g id="a_node30"><a xlink:href="_o_r_bextractor_8h.html" target="_top" xlink:title="ORBextractor.h">
<polygon fill="#ffffff" stroke="#000000" points="277.3539,-235.5 277.3539,-254.5 362.3539,-254.5 362.3539,-235.5 277.3539,-235.5"/>
<text text-anchor="middle" x="319.8539" y="-242.5" font-family="Helvetica,sans-Serif" font-size="10.00" fill="#000000">ORBextractor.h</text>
</a>
</g>
</g>
<!-- Node28&#45;&gt;Node29 -->
<g id="edge55" class="edge">
<title>Node28&#45;&gt;Node29</title>
<path fill="none" stroke="#191970" d="M815.2502,-298.146C733.1328,-289.3364 482.5728,-262.4564 372.5736,-250.6558"/>
<polygon fill="#191970" stroke="#191970" points="372.694,-247.1487 362.3776,-249.5619 371.9472,-254.1087 372.694,-247.1487"/>
</g>
<!-- Node30 -->
<g id="node31" class="node">
<title>Node30</title>
<polygon fill="#ffffff" stroke="#bfbfbf" points="152.3539,-235.5 152.3539,-254.5 259.3539,-254.5 259.3539,-235.5 152.3539,-235.5"/>
<text text-anchor="middle" x="205.8539" y="-242.5" font-family="Helvetica,sans-Serif" font-size="10.00" fill="#000000">opencv2/opencv.hpp</text>
</g>
<!-- Node28&#45;&gt;Node30 -->
<g id="edge59" class="edge">
<title>Node28&#45;&gt;Node30</title>
<path fill="none" stroke="#191970" d="M815.1715,-299.6224C734.467,-295.2951 485.7105,-280.7782 269.5291,-255.1265"/>
<polygon fill="#191970" stroke="#191970" points="269.9305,-251.6496 259.5852,-253.9359 269.0982,-258.6 269.9305,-251.6496"/>
</g>
<!-- Node29&#45;&gt;Node5 -->
<g id="edge58" class="edge">
<title>Node29&#45;&gt;Node5</title>
<path fill="none" stroke="#191970" d="M309.1543,-235.1984C299.985,-226.3846 286.8687,-212.745 277.8539,-199 259.9606,-171.7177 254.671,-163.9064 247.8539,-132 244.5948,-116.7466 244.8017,-99.0536 245.7101,-85.8283"/>
<polygon fill="#191970" stroke="#191970" points="249.2262,-85.7989 246.6194,-75.5298 242.2533,-85.1832 249.2262,-85.7989"/>
</g>
<!-- Node29&#45;&gt;Node6 -->
<g id="edge56" class="edge">
<title>Node29&#45;&gt;Node6</title>
<path fill="none" stroke="#191970" d="M301.5249,-235.3602C250.2363,-207.201 112.659,-122.8396 169.8539,-56 186.7415,-36.2646 358.5354,-19.1483 431.4299,-12.7156"/>
<polygon fill="#191970" stroke="#191970" points="431.7781,-16.1986 441.437,-11.845 431.1713,-9.225 431.7781,-16.1986"/>
</g>
<!-- Node29&#45;&gt;Node27 -->
<g id="edge57" class="edge">
<title>Node29&#45;&gt;Node27</title>
<path fill="none" stroke="#191970" d="M317.0414,-235.3906C314.52,-226.776 310.7429,-213.8708 307.5863,-203.0858"/>
<polygon fill="#191970" stroke="#191970" points="310.8742,-201.8591 304.706,-193.2449 304.156,-203.8254 310.8742,-201.8591"/>
</g>
</g>
</svg>
