<?xml version="1.0" encoding="UTF-8" standalone="no"?>
<!DOCTYPE svg PUBLIC "-//W3C//DTD SVG 1.1//EN"
 "http://www.w3.org/Graphics/SVG/1.1/DTD/svg11.dtd">
<!-- Generated by graphviz version 2.38.0 (20140413.2041)
 -->
<!-- Title: /home/alejandro/Desarrollo eclipse/os1/src/Map.cc Pages: 1 -->
<svg width="1470pt" height="509pt"
 viewBox="0.00 0.00 1470.00 509.00" xmlns="http://www.w3.org/2000/svg" xmlns:xlink="http://www.w3.org/1999/xlink">
<g id="graph0" class="graph" transform="scale(1 1) rotate(0) translate(4 505)">
<title>/home/alejandro/Desarrollo eclipse/os1/src/Map.cc</title>
<polygon fill="white" stroke="none" points="-4,4 -4,-505 1466,-505 1466,4 -4,4"/>
<!-- Node0 -->
<g id="node1" class="node"><title>Node0</title>
<polygon fill="#bfbfbf" stroke="black" points="1207.5,-470.5 1207.5,-500.5 1340.5,-500.5 1340.5,-470.5 1207.5,-470.5"/>
<text text-anchor="start" x="1215.5" y="-488.5" font-family="Helvetica,sans-Serif" font-size="10.00">/home/alejandro/Desarrollo</text>
<text text-anchor="middle" x="1274" y="-477.5" font-family="Helvetica,sans-Serif" font-size="10.00"> eclipse/os1/src/Map.cc</text>
</g>
<!-- Node1 -->
<g id="node2" class="node"><title>Node1</title>
<g id="a_node2"><a xlink:href="_map_8h.html" target="_top" xlink:title="Map.h">
<polygon fill="white" stroke="black" points="1303,-358.5 1303,-377.5 1347,-377.5 1347,-358.5 1303,-358.5"/>
<text text-anchor="middle" x="1325" y="-365.5" font-family="Helvetica,sans-Serif" font-size="10.00">Map.h</text>
</a>
</g>
</g>
<!-- Node0&#45;&gt;Node1 -->
<g id="edge1" class="edge"><title>Node0&#45;&gt;Node1</title>
<path fill="none" stroke="midnightblue" d="M1280.25,-470.337C1289.53,-449.338 1306.92,-409.955 1317.07,-386.958"/>
<polygon fill="midnightblue" stroke="midnightblue" points="1320.33,-388.231 1321.17,-377.669 1313.93,-385.404 1320.33,-388.231"/>
</g>
<!-- Node22 -->
<g id="node23" class="node"><title>Node22</title>
<polygon fill="white" stroke="#bfbfbf" points="1418,-235.5 1418,-254.5 1462,-254.5 1462,-235.5 1418,-235.5"/>
<text text-anchor="middle" x="1440" y="-242.5" font-family="Helvetica,sans-Serif" font-size="10.00">mutex</text>
</g>
<!-- Node0&#45;&gt;Node22 -->
<g id="edge69" class="edge"><title>Node0&#45;&gt;Node22</title>
<path fill="none" stroke="midnightblue" d="M1303.49,-470.478C1348.31,-447.148 1431.11,-395.544 1457,-322 1463.85,-302.541 1456.5,-279.28 1449.44,-263.662"/>
<polygon fill="midnightblue" stroke="midnightblue" points="1452.54,-262.05 1444.99,-254.619 1446.26,-265.137 1452.54,-262.05"/>
</g>
<!-- Node25 -->
<g id="node26" class="node"><title>Node25</title>
<g id="a_node26"><a xlink:href="_map_point_8h.html" target="_top" xlink:title="MapPoint.h">
<polygon fill="white" stroke="black" points="1204,-414.5 1204,-433.5 1270,-433.5 1270,-414.5 1204,-414.5"/>
<text text-anchor="middle" x="1237" y="-421.5" font-family="Helvetica,sans-Serif" font-size="10.00">MapPoint.h</text>
</a>
</g>
</g>
<!-- Node0&#45;&gt;Node25 -->
<g id="edge38" class="edge"><title>Node0&#45;&gt;Node25</title>
<path fill="none" stroke="midnightblue" d="M1265.23,-470.399C1260.02,-462.021 1253.37,-451.327 1247.83,-442.423"/>
<polygon fill="midnightblue" stroke="midnightblue" points="1250.64,-440.302 1242.38,-433.658 1244.69,-443.998 1250.64,-440.302"/>
</g>
<!-- Node26 -->
<g id="node27" class="node"><title>Node26</title>
<g id="a_node27"><a xlink:href="_key_frame_8h.html" target="_top" xlink:title="KeyFrame.h">
<polygon fill="white" stroke="black" points="1132,-358.5 1132,-377.5 1202,-377.5 1202,-358.5 1132,-358.5"/>
<text text-anchor="middle" x="1167" y="-365.5" font-family="Helvetica,sans-Serif" font-size="10.00">KeyFrame.h</text>
</a>
</g>
</g>
<!-- Node0&#45;&gt;Node26 -->
<g id="edge68" class="edge"><title>Node0&#45;&gt;Node26</title>
<path fill="none" stroke="midnightblue" d="M1243.07,-470.335C1227.01,-461.71 1208.07,-449.381 1195,-434 1183.57,-420.554 1176.16,-401.739 1171.84,-387.81"/>
<polygon fill="midnightblue" stroke="midnightblue" points="1175.13,-386.552 1169.04,-377.882 1168.39,-388.457 1175.13,-386.552"/>
</g>
<!-- Node2 -->
<g id="node3" class="node"><title>Node2</title>
<g id="a_node3"><a xlink:href="_o_r_b_vocabulary_8h.html" target="_top" xlink:title="ORBVocabulary.h">
<polygon fill="white" stroke="black" points="879.5,-235.5 879.5,-254.5 974.5,-254.5 974.5,-235.5 879.5,-235.5"/>
<text text-anchor="middle" x="927" y="-242.5" font-family="Helvetica,sans-Serif" font-size="10.00">ORBVocabulary.h</text>
</a>
</g>
</g>
<!-- Node1&#45;&gt;Node2 -->
<g id="edge2" class="edge"><title>Node1&#45;&gt;Node2</title>
<path fill="none" stroke="midnightblue" d="M1302.8,-365.115C1223.1,-358.255 955.378,-334.374 942,-322 926.45,-307.617 924.356,-282.165 925.047,-264.708"/>
<polygon fill="midnightblue" stroke="midnightblue" points="928.548,-264.817 925.789,-254.587 921.567,-264.304 928.548,-264.817"/>
</g>
<!-- Node21 -->
<g id="node22" class="node"><title>Node21</title>
<polygon fill="white" stroke="#bfbfbf" points="1119,-235.5 1119,-254.5 1149,-254.5 1149,-235.5 1119,-235.5"/>
<text text-anchor="middle" x="1134" y="-242.5" font-family="Helvetica,sans-Serif" font-size="10.00">set</text>
</g>
<!-- Node1&#45;&gt;Node21 -->
<g id="edge34" class="edge"><title>Node1&#45;&gt;Node21</title>
<path fill="none" stroke="midnightblue" d="M1343.08,-358.39C1356.56,-350.872 1373.97,-338.565 1382,-322 1388.01,-309.601 1390.83,-301.576 1382,-291 1353.74,-257.155 1216.31,-248.71 1159.08,-246.648"/>
<polygon fill="midnightblue" stroke="midnightblue" points="1159.18,-243.15 1149.07,-246.324 1158.95,-250.146 1159.18,-243.15"/>
</g>
<!-- Node1&#45;&gt;Node22 -->
<g id="edge35" class="edge"><title>Node1&#45;&gt;Node22</title>
<path fill="none" stroke="midnightblue" d="M1347.22,-361.441C1367.84,-355.173 1397.99,-343.008 1416,-322 1429.9,-305.783 1435.77,-281.488 1438.23,-264.754"/>
<polygon fill="midnightblue" stroke="midnightblue" points="1441.73,-264.915 1439.45,-254.57 1434.78,-264.083 1441.73,-264.915"/>
</g>
<!-- Node23 -->
<g id="node24" class="node"><title>Node23</title>
<polygon fill="white" stroke="#bfbfbf" points="1195.5,-291.5 1195.5,-321.5 1290.5,-321.5 1290.5,-291.5 1195.5,-291.5"/>
<text text-anchor="start" x="1203.5" y="-309.5" font-family="Helvetica,sans-Serif" font-size="10.00">boost/serialization</text>
<text text-anchor="middle" x="1243" y="-298.5" font-family="Helvetica,sans-Serif" font-size="10.00">/access.hpp</text>
</g>
<!-- Node1&#45;&gt;Node23 -->
<g id="edge36" class="edge"><title>Node1&#45;&gt;Node23</title>
<path fill="none" stroke="midnightblue" d="M1313.25,-358.475C1302.15,-350.417 1285.07,-338.023 1270.53,-327.474"/>
<polygon fill="midnightblue" stroke="midnightblue" points="1272.48,-324.563 1262.33,-321.523 1268.36,-330.229 1272.48,-324.563"/>
</g>
<!-- Node24 -->
<g id="node25" class="node"><title>Node24</title>
<g id="a_node25"><a xlink:href="_serializer_8h.html" target="_top" xlink:title="Serializer.h">
<polygon fill="white" stroke="black" points="1308.5,-297 1308.5,-316 1373.5,-316 1373.5,-297 1308.5,-297"/>
<text text-anchor="middle" x="1341" y="-304" font-family="Helvetica,sans-Serif" font-size="10.00">Serializer.h</text>
</a>
</g>
</g>
<!-- Node1&#45;&gt;Node24 -->
<g id="edge37" class="edge"><title>Node1&#45;&gt;Node24</title>
<path fill="none" stroke="midnightblue" d="M1327.29,-358.475C1329.57,-349.992 1333.15,-336.704 1336.07,-325.822"/>
<polygon fill="midnightblue" stroke="midnightblue" points="1339.49,-326.575 1338.71,-316.009 1332.74,-324.757 1339.49,-326.575"/>
</g>
<!-- Node3 -->
<g id="node4" class="node"><title>Node3</title>
<g id="a_node4"><a xlink:href="_f_o_r_b_8h.html" target="_top" xlink:title="../Thirdparty/DBoW2\l/DBoW2/FORB.h">
<polygon fill="white" stroke="black" points="192.5,-168.5 192.5,-198.5 299.5,-198.5 299.5,-168.5 192.5,-168.5"/>
<text text-anchor="start" x="200.5" y="-186.5" font-family="Helvetica,sans-Serif" font-size="10.00">../Thirdparty/DBoW2</text>
<text text-anchor="middle" x="246" y="-175.5" font-family="Helvetica,sans-Serif" font-size="10.00">/DBoW2/FORB.h</text>
</a>
</g>
</g>
<!-- Node2&#45;&gt;Node3 -->
<g id="edge3" class="edge"><title>Node2&#45;&gt;Node3</title>
<path fill="none" stroke="midnightblue" d="M879.384,-239.84C759.661,-229.379 445.982,-201.973 310.192,-190.109"/>
<polygon fill="midnightblue" stroke="midnightblue" points="310.215,-186.597 299.948,-189.214 309.605,-193.571 310.215,-186.597"/>
</g>
<!-- Node8 -->
<g id="node9" class="node"><title>Node8</title>
<g id="a_node9"><a xlink:href="_templated_vocabulary_8h.html" target="_top" xlink:title="../Thirdparty/DBoW2\l/DBoW2/TemplatedVocabulary.h">
<polygon fill="white" stroke="black" points="587,-168.5 587,-198.5 747,-198.5 747,-168.5 587,-168.5"/>
<text text-anchor="start" x="595" y="-186.5" font-family="Helvetica,sans-Serif" font-size="10.00">../Thirdparty/DBoW2</text>
<text text-anchor="middle" x="667" y="-175.5" font-family="Helvetica,sans-Serif" font-size="10.00">/DBoW2/TemplatedVocabulary.h</text>
</a>
</g>
</g>
<!-- Node2&#45;&gt;Node8 -->
<g id="edge11" class="edge"><title>Node2&#45;&gt;Node8</title>
<path fill="none" stroke="midnightblue" d="M889.748,-235.475C850.339,-226.456 787.202,-212.008 738.193,-200.792"/>
<polygon fill="midnightblue" stroke="midnightblue" points="738.806,-197.342 728.277,-198.523 737.244,-204.166 738.806,-197.342"/>
</g>
<!-- Node4 -->
<g id="node5" class="node"><title>Node4</title>
<polygon fill="white" stroke="#bfbfbf" points="104,-56.5 104,-75.5 220,-75.5 220,-56.5 104,-56.5"/>
<text text-anchor="middle" x="162" y="-63.5" font-family="Helvetica,sans-Serif" font-size="10.00">opencv2/core/core.hpp</text>
</g>
<!-- Node3&#45;&gt;Node4 -->
<g id="edge4" class="edge"><title>Node3&#45;&gt;Node4</title>
<path fill="none" stroke="midnightblue" d="M217.47,-168.472C202.909,-159.887 186.167,-147.553 176,-132 167.019,-118.262 163.696,-99.7325 162.516,-85.9725"/>
<polygon fill="midnightblue" stroke="midnightblue" points="165.997,-85.5377 161.951,-75.7457 159.008,-85.9233 165.997,-85.5377"/>
</g>
<!-- Node5 -->
<g id="node6" class="node"><title>Node5</title>
<polygon fill="white" stroke="#bfbfbf" points="754,-0.5 754,-19.5 798,-19.5 798,-0.5 754,-0.5"/>
<text text-anchor="middle" x="776" y="-7.5" font-family="Helvetica,sans-Serif" font-size="10.00">vector</text>
</g>
<!-- Node3&#45;&gt;Node5 -->
<g id="edge5" class="edge"><title>Node3&#45;&gt;Node5</title>
<path fill="none" stroke="midnightblue" d="M205.258,-168.473C147.248,-146.453 52.3472,-101.564 95,-56 139.745,-8.20038 614.907,-9.39586 743.865,-10.614"/>
<polygon fill="midnightblue" stroke="midnightblue" points="743.868,-14.1142 753.903,-10.7157 743.939,-7.11451 743.868,-14.1142"/>
</g>
<!-- Node6 -->
<g id="node7" class="node"><title>Node6</title>
<polygon fill="white" stroke="#bfbfbf" points="281.5,-56.5 281.5,-75.5 322.5,-75.5 322.5,-56.5 281.5,-56.5"/>
<text text-anchor="middle" x="302" y="-63.5" font-family="Helvetica,sans-Serif" font-size="10.00">string</text>
</g>
<!-- Node3&#45;&gt;Node6 -->
<g id="edge6" class="edge"><title>Node3&#45;&gt;Node6</title>
<path fill="none" stroke="midnightblue" d="M258.457,-168.352C266.426,-158.68 276.46,-145.256 283,-132 290.315,-117.173 295.327,-99.022 298.359,-85.6726"/>
<polygon fill="midnightblue" stroke="midnightblue" points="301.809,-86.2738 300.446,-75.7669 294.959,-84.8301 301.809,-86.2738"/>
</g>
<!-- Node7 -->
<g id="node8" class="node"><title>Node7</title>
<g id="a_node8"><a xlink:href="_f_class_8h.html" target="_top" xlink:title="FClass.h">
<polygon fill="white" stroke="black" points="218,-112.5 218,-131.5 274,-131.5 274,-112.5 218,-112.5"/>
<text text-anchor="middle" x="246" y="-119.5" font-family="Helvetica,sans-Serif" font-size="10.00">FClass.h</text>
</a>
</g>
</g>
<!-- Node3&#45;&gt;Node7 -->
<g id="edge7" class="edge"><title>Node3&#45;&gt;Node7</title>
<path fill="none" stroke="midnightblue" d="M246,-168.399C246,-160.466 246,-150.458 246,-141.858"/>
<polygon fill="midnightblue" stroke="midnightblue" points="249.5,-141.658 246,-131.658 242.5,-141.658 249.5,-141.658"/>
</g>
<!-- Node7&#45;&gt;Node4 -->
<g id="edge8" class="edge"><title>Node7&#45;&gt;Node4</title>
<path fill="none" stroke="midnightblue" d="M232.504,-112.324C219.4,-103.9 199.288,-90.9709 183.893,-81.0741"/>
<polygon fill="midnightblue" stroke="midnightblue" points="185.767,-78.118 175.463,-75.6545 181.982,-84.0063 185.767,-78.118"/>
</g>
<!-- Node7&#45;&gt;Node5 -->
<g id="edge9" class="edge"><title>Node7&#45;&gt;Node5</title>
<path fill="none" stroke="midnightblue" d="M246.701,-112.105C248.356,-97.6929 253.863,-69.4945 272,-56 309.818,-27.8626 638.487,-15.2749 743.729,-11.9413"/>
<polygon fill="midnightblue" stroke="midnightblue" points="743.874,-15.4386 753.761,-11.6303 743.657,-8.44197 743.874,-15.4386"/>
</g>
<!-- Node7&#45;&gt;Node6 -->
<g id="edge10" class="edge"><title>Node7&#45;&gt;Node6</title>
<path fill="none" stroke="midnightblue" d="M254.997,-112.324C263.194,-104.42 275.506,-92.5482 285.472,-82.9377"/>
<polygon fill="midnightblue" stroke="midnightblue" points="288.07,-85.2947 292.839,-75.8339 283.211,-80.2558 288.07,-85.2947"/>
</g>
<!-- Node8&#45;&gt;Node4 -->
<g id="edge18" class="edge"><title>Node8&#45;&gt;Node4</title>
<path fill="none" stroke="midnightblue" d="M586.739,-177.192C464.097,-168.553 240.843,-150.542 209,-132 190.618,-121.296 177.439,-100.224 169.798,-84.9678"/>
<polygon fill="midnightblue" stroke="midnightblue" points="172.797,-83.1167 165.398,-75.5337 166.453,-86.0758 172.797,-83.1167"/>
</g>
<!-- Node8&#45;&gt;Node5 -->
<g id="edge13" class="edge"><title>Node8&#45;&gt;Node5</title>
<path fill="none" stroke="midnightblue" d="M747.297,-173.695C773.165,-166.616 799.204,-154.08 815,-132 838.218,-99.5459 809.189,-52.581 790.13,-27.7887"/>
<polygon fill="midnightblue" stroke="midnightblue" points="792.657,-25.3447 783.675,-19.7258 787.192,-29.7196 792.657,-25.3447"/>
</g>
<!-- Node8&#45;&gt;Node6 -->
<g id="edge16" class="edge"><title>Node8&#45;&gt;Node6</title>
<path fill="none" stroke="midnightblue" d="M586.992,-175.544C509.128,-167.685 397.139,-153.168 359,-132 338.786,-120.781 322.262,-99.5308 312.305,-84.3824"/>
<polygon fill="midnightblue" stroke="midnightblue" points="315.255,-82.499 306.98,-75.8832 309.323,-86.2156 315.255,-82.499"/>
</g>
<!-- Node9 -->
<g id="node10" class="node"><title>Node9</title>
<polygon fill="white" stroke="#bfbfbf" points="368.5,-112.5 368.5,-131.5 417.5,-131.5 417.5,-112.5 368.5,-112.5"/>
<text text-anchor="middle" x="393" y="-119.5" font-family="Helvetica,sans-Serif" font-size="10.00">cassert</text>
</g>
<!-- Node8&#45;&gt;Node9 -->
<g id="edge12" class="edge"><title>Node8&#45;&gt;Node9</title>
<path fill="none" stroke="midnightblue" d="M594.51,-168.484C548.968,-159.405 488.794,-146.913 427.646,-132.304"/>
<polygon fill="midnightblue" stroke="midnightblue" points="428.367,-128.877 417.825,-129.941 426.729,-135.683 428.367,-128.877"/>
</g>
<!-- Node10 -->
<g id="node11" class="node"><title>Node10</title>
<polygon fill="white" stroke="#bfbfbf" points="435.5,-112.5 435.5,-131.5 486.5,-131.5 486.5,-112.5 435.5,-112.5"/>
<text text-anchor="middle" x="461" y="-119.5" font-family="Helvetica,sans-Serif" font-size="10.00">numeric</text>
</g>
<!-- Node8&#45;&gt;Node10 -->
<g id="edge14" class="edge"><title>Node8&#45;&gt;Node10</title>
<path fill="none" stroke="midnightblue" d="M618.442,-168.475C581.036,-157.67 530.186,-142.983 496.518,-133.259"/>
<polygon fill="midnightblue" stroke="midnightblue" points="497.233,-129.822 486.654,-130.41 495.291,-136.547 497.233,-129.822"/>
</g>
<!-- Node11 -->
<g id="node12" class="node"><title>Node11</title>
<polygon fill="white" stroke="#bfbfbf" points="505,-112.5 505,-131.5 555,-131.5 555,-112.5 505,-112.5"/>
<text text-anchor="middle" x="530" y="-119.5" font-family="Helvetica,sans-Serif" font-size="10.00">fstream</text>
</g>
<!-- Node8&#45;&gt;Node11 -->
<g id="edge15" class="edge"><title>Node8&#45;&gt;Node11</title>
<path fill="none" stroke="midnightblue" d="M634.533,-168.399C611.649,-158.461 581.266,-145.265 559.156,-135.662"/>
<polygon fill="midnightblue" stroke="midnightblue" points="560.501,-132.431 549.935,-131.658 557.713,-138.852 560.501,-132.431"/>
</g>
<!-- Node12 -->
<g id="node13" class="node"><title>Node12</title>
<polygon fill="white" stroke="#bfbfbf" points="573,-112.5 573,-131.5 629,-131.5 629,-112.5 573,-112.5"/>
<text text-anchor="middle" x="601" y="-119.5" font-family="Helvetica,sans-Serif" font-size="10.00">algorithm</text>
</g>
<!-- Node8&#45;&gt;Node12 -->
<g id="edge17" class="edge"><title>Node8&#45;&gt;Node12</title>
<path fill="none" stroke="midnightblue" d="M651.359,-168.399C641.373,-159.397 628.422,-147.721 618.155,-138.465"/>
<polygon fill="midnightblue" stroke="midnightblue" points="620.375,-135.754 610.604,-131.658 615.687,-140.953 620.375,-135.754"/>
</g>
<!-- Node13 -->
<g id="node14" class="node"><title>Node13</title>
<polygon fill="white" stroke="#bfbfbf" points="647,-112.5 647,-131.5 687,-131.5 687,-112.5 647,-112.5"/>
<text text-anchor="middle" x="667" y="-119.5" font-family="Helvetica,sans-Serif" font-size="10.00">limits</text>
</g>
<!-- Node8&#45;&gt;Node13 -->
<g id="edge19" class="edge"><title>Node8&#45;&gt;Node13</title>
<path fill="none" stroke="midnightblue" d="M667,-168.399C667,-160.466 667,-150.458 667,-141.858"/>
<polygon fill="midnightblue" stroke="midnightblue" points="670.5,-141.658 667,-131.658 663.5,-141.658 670.5,-141.658"/>
</g>
<!-- Node14 -->
<g id="node15" class="node"><title>Node14</title>
<g id="a_node15"><a xlink:href="_feature_vector_8h.html" target="_top" xlink:title="FeatureVector.h">
<polygon fill="white" stroke="black" points="1119,-112.5 1119,-131.5 1205,-131.5 1205,-112.5 1119,-112.5"/>
<text text-anchor="middle" x="1162" y="-119.5" font-family="Helvetica,sans-Serif" font-size="10.00">FeatureVector.h</text>
</a>
</g>
</g>
<!-- Node8&#45;&gt;Node14 -->
<g id="edge20" class="edge"><title>Node8&#45;&gt;Node14</title>
<path fill="none" stroke="midnightblue" d="M747.08,-172.874C848.837,-160.643 1021.67,-139.868 1108.65,-129.413"/>
<polygon fill="midnightblue" stroke="midnightblue" points="1109.31,-132.859 1118.82,-128.191 1108.47,-125.909 1109.31,-132.859"/>
</g>
<!-- Node15 -->
<g id="node16" class="node"><title>Node15</title>
<g id="a_node16"><a xlink:href="_bow_vector_8h.html" target="_top" xlink:title="BowVector.h">
<polygon fill="white" stroke="black" points="1022.5,-56.5 1022.5,-75.5 1095.5,-75.5 1095.5,-56.5 1022.5,-56.5"/>
<text text-anchor="middle" x="1059" y="-63.5" font-family="Helvetica,sans-Serif" font-size="10.00">BowVector.h</text>
</a>
</g>
</g>
<!-- Node8&#45;&gt;Node15 -->
<g id="edge28" class="edge"><title>Node8&#45;&gt;Node15</title>
<path fill="none" stroke="midnightblue" d="M727.212,-168.448C763.048,-159.431 809.154,-146.681 849,-132 868.777,-124.713 872.195,-119.213 892,-112 931.76,-97.5189 978.351,-85.3447 1012.2,-77.3258"/>
<polygon fill="midnightblue" stroke="midnightblue" points="1013.34,-80.6553 1022.28,-74.9726 1011.75,-73.8387 1013.34,-80.6553"/>
</g>
<!-- Node18 -->
<g id="node19" class="node"><title>Node18</title>
<g id="a_node19"><a xlink:href="_scoring_object_8h.html" target="_top" xlink:title="ScoringObject.h">
<polygon fill="white" stroke="black" points="901,-112.5 901,-131.5 987,-131.5 987,-112.5 901,-112.5"/>
<text text-anchor="middle" x="944" y="-119.5" font-family="Helvetica,sans-Serif" font-size="10.00">ScoringObject.h</text>
</a>
</g>
</g>
<!-- Node8&#45;&gt;Node18 -->
<g id="edge29" class="edge"><title>Node8&#45;&gt;Node18</title>
<path fill="none" stroke="midnightblue" d="M732.294,-168.475C781.961,-157.806 849.252,-143.352 894.523,-133.628"/>
<polygon fill="midnightblue" stroke="midnightblue" points="895.357,-137.029 904.399,-131.506 893.887,-130.185 895.357,-137.029"/>
</g>
<!-- Node19 -->
<g id="node20" class="node"><title>Node19</title>
<g id="a_node20"><a xlink:href="_random_8h.html" target="_top" xlink:title="../DUtils/Random.h">
<polygon fill="white" stroke="black" points="705.5,-112.5 705.5,-131.5 806.5,-131.5 806.5,-112.5 705.5,-112.5"/>
<text text-anchor="middle" x="756" y="-119.5" font-family="Helvetica,sans-Serif" font-size="10.00">../DUtils/Random.h</text>
</a>
</g>
</g>
<!-- Node8&#45;&gt;Node19 -->
<g id="edge31" class="edge"><title>Node8&#45;&gt;Node19</title>
<path fill="none" stroke="midnightblue" d="M688.092,-168.399C702.091,-159.04 720.411,-146.792 734.495,-137.377"/>
<polygon fill="midnightblue" stroke="midnightblue" points="736.682,-140.125 743.05,-131.658 732.791,-134.306 736.682,-140.125"/>
</g>
<!-- Node14&#45;&gt;Node5 -->
<g id="edge26" class="edge"><title>Node14&#45;&gt;Node5</title>
<path fill="none" stroke="midnightblue" d="M1156.93,-112.044C1148.2,-97.5436 1128.83,-69.2216 1104,-56 1053.21,-28.9552 881.228,-16.688 808.695,-12.6263"/>
<polygon fill="midnightblue" stroke="midnightblue" points="808.515,-9.11147 798.341,-12.0647 808.136,-16.1012 808.515,-9.11147"/>
</g>
<!-- Node14&#45;&gt;Node15 -->
<g id="edge21" class="edge"><title>Node14&#45;&gt;Node15</title>
<path fill="none" stroke="midnightblue" d="M1145.45,-112.324C1129.01,-103.703 1103.57,-90.3643 1084.53,-80.3855"/>
<polygon fill="midnightblue" stroke="midnightblue" points="1085.99,-77.198 1075.51,-75.6545 1082.74,-83.3977 1085.99,-77.198"/>
</g>
<!-- Node16 -->
<g id="node17" class="node"><title>Node16</title>
<polygon fill="white" stroke="#bfbfbf" points="1051,-0.5 1051,-19.5 1105,-19.5 1105,-0.5 1051,-0.5"/>
<text text-anchor="middle" x="1078" y="-7.5" font-family="Helvetica,sans-Serif" font-size="10.00">iostream</text>
</g>
<!-- Node14&#45;&gt;Node16 -->
<g id="edge27" class="edge"><title>Node14&#45;&gt;Node16</title>
<path fill="none" stroke="midnightblue" d="M1160.42,-112.247C1157.69,-99.0016 1151.08,-73.5541 1138,-56 1128.64,-43.4377 1114.82,-32.7429 1102.8,-24.9354"/>
<polygon fill="midnightblue" stroke="midnightblue" points="1104.42,-21.8189 1094.07,-19.5447 1100.74,-27.7756 1104.42,-21.8189"/>
</g>
<!-- Node17 -->
<g id="node18" class="node"><title>Node17</title>
<polygon fill="white" stroke="#bfbfbf" points="1162.5,-0.5 1162.5,-19.5 1197.5,-19.5 1197.5,-0.5 1162.5,-0.5"/>
<text text-anchor="middle" x="1180" y="-7.5" font-family="Helvetica,sans-Serif" font-size="10.00">map</text>
</g>
<!-- Node14&#45;&gt;Node17 -->
<g id="edge25" class="edge"><title>Node14&#45;&gt;Node17</title>
<path fill="none" stroke="midnightblue" d="M1165.43,-112.194C1168.76,-103.235 1173.64,-88.8758 1176,-76 1178.81,-60.6905 1179.75,-43.0488 1180.03,-30.0109"/>
<polygon fill="midnightblue" stroke="midnightblue" points="1183.53,-29.946 1180.12,-19.9129 1176.53,-29.8789 1183.53,-29.946"/>
</g>
<!-- Node15&#45;&gt;Node5 -->
<g id="edge24" class="edge"><title>Node15&#45;&gt;Node5</title>
<path fill="none" stroke="midnightblue" d="M1022.29,-57.9958C966.49,-47.3478 861.217,-27.2605 808.214,-17.1468"/>
<polygon fill="midnightblue" stroke="midnightblue" points="808.819,-13.6992 798.34,-15.2628 807.507,-20.5752 808.819,-13.6992"/>
</g>
<!-- Node15&#45;&gt;Node16 -->
<g id="edge22" class="edge"><title>Node15&#45;&gt;Node16</title>
<path fill="none" stroke="midnightblue" d="M1062.14,-56.083C1064.68,-48.8486 1068.36,-38.4087 1071.53,-29.3968"/>
<polygon fill="midnightblue" stroke="midnightblue" points="1074.9,-30.3459 1074.92,-19.7511 1068.3,-28.0225 1074.9,-30.3459"/>
</g>
<!-- Node15&#45;&gt;Node17 -->
<g id="edge23" class="edge"><title>Node15&#45;&gt;Node17</title>
<path fill="none" stroke="midnightblue" d="M1078.17,-56.4435C1098.37,-47.4283 1130.35,-33.1583 1153.08,-23.0161"/>
<polygon fill="midnightblue" stroke="midnightblue" points="1154.78,-26.0867 1162.49,-18.8151 1151.93,-19.6944 1154.78,-26.0867"/>
</g>
<!-- Node18&#45;&gt;Node15 -->
<g id="edge30" class="edge"><title>Node18&#45;&gt;Node15</title>
<path fill="none" stroke="midnightblue" d="M962.222,-112.444C980.896,-103.675 1010.16,-89.9355 1031.62,-79.8579"/>
<polygon fill="midnightblue" stroke="midnightblue" points="1033.3,-82.935 1040.86,-75.5164 1030.32,-76.5988 1033.3,-82.935"/>
</g>
<!-- Node19&#45;&gt;Node5 -->
<g id="edge33" class="edge"><title>Node19&#45;&gt;Node5</title>
<path fill="none" stroke="midnightblue" d="M757.569,-112.368C760.797,-94.617 768.242,-53.6664 772.619,-29.5974"/>
<polygon fill="midnightblue" stroke="midnightblue" points="776.093,-30.0562 774.438,-19.5914 769.205,-28.804 776.093,-30.0562"/>
</g>
<!-- Node20 -->
<g id="node21" class="node"><title>Node20</title>
<polygon fill="white" stroke="#bfbfbf" points="702.5,-56.5 702.5,-75.5 747.5,-75.5 747.5,-56.5 702.5,-56.5"/>
<text text-anchor="middle" x="725" y="-63.5" font-family="Helvetica,sans-Serif" font-size="10.00">cstdlib</text>
</g>
<!-- Node19&#45;&gt;Node20 -->
<g id="edge32" class="edge"><title>Node19&#45;&gt;Node20</title>
<path fill="none" stroke="midnightblue" d="M750.881,-112.083C746.592,-104.613 740.342,-93.7244 735.058,-84.5199"/>
<polygon fill="midnightblue" stroke="midnightblue" points="738.038,-82.6811 730.024,-75.7511 731.967,-86.1662 738.038,-82.6811"/>
</g>
<!-- Node25&#45;&gt;Node1 -->
<g id="edge63" class="edge"><title>Node25&#45;&gt;Node1</title>
<path fill="none" stroke="midnightblue" d="M1251.14,-414.324C1264.87,-405.9 1285.94,-392.971 1302.06,-383.074"/>
<polygon fill="midnightblue" stroke="midnightblue" points="1304.2,-385.868 1310.9,-377.655 1300.54,-379.902 1304.2,-385.868"/>
</g>
<!-- Node25&#45;&gt;Node4 -->
<g id="edge65" class="edge"><title>Node25&#45;&gt;Node4</title>
<path fill="none" stroke="midnightblue" d="M1203.91,-421.693C1007.2,-413.707 0,-369.781 0,-307.5 0,-307.5 0,-307.5 0,-244 0,-164.692 89.5973,-105.451 135.527,-80.2931"/>
<polygon fill="midnightblue" stroke="midnightblue" points="137.18,-83.3786 144.355,-75.5833 133.884,-77.2027 137.18,-83.3786"/>
</g>
<!-- Node25&#45;&gt;Node22 -->
<g id="edge66" class="edge"><title>Node25&#45;&gt;Node22</title>
<path fill="none" stroke="midnightblue" d="M1270.17,-418.151C1318.26,-409.077 1405.28,-384.443 1439,-322 1448.58,-304.265 1447.08,-280.636 1444.32,-264.461"/>
<polygon fill="midnightblue" stroke="midnightblue" points="1447.74,-263.723 1442.32,-254.618 1440.88,-265.114 1447.74,-263.723"/>
</g>
<!-- Node25&#45;&gt;Node23 -->
<g id="edge67" class="edge"><title>Node25&#45;&gt;Node23</title>
<path fill="none" stroke="midnightblue" d="M1237.45,-414.319C1238.35,-396.967 1240.4,-357.457 1241.75,-331.658"/>
<polygon fill="midnightblue" stroke="midnightblue" points="1245.25,-331.713 1242.27,-321.545 1238.26,-331.35 1245.25,-331.713"/>
</g>
<!-- Node25&#45;&gt;Node24 -->
<g id="edge64" class="edge"><title>Node25&#45;&gt;Node24</title>
<path fill="none" stroke="midnightblue" d="M1244.66,-414.095C1255.53,-401.505 1276.09,-377.824 1294,-358 1304.54,-346.336 1316.62,-333.358 1325.9,-323.479"/>
<polygon fill="midnightblue" stroke="midnightblue" points="1328.63,-325.686 1332.94,-316.007 1323.54,-320.887 1328.63,-325.686"/>
</g>
<!-- Node25&#45;&gt;Node26 -->
<g id="edge39" class="edge"><title>Node25&#45;&gt;Node26</title>
<path fill="none" stroke="midnightblue" d="M1225.75,-414.324C1215.2,-406.185 1199.2,-393.839 1186.56,-384.087"/>
<polygon fill="midnightblue" stroke="midnightblue" points="1188.51,-381.171 1178.45,-377.834 1184.23,-386.713 1188.51,-381.171"/>
</g>
<!-- Node29 -->
<g id="node30" class="node"><title>Node29</title>
<g id="a_node30"><a xlink:href="_frame_8h.html" target="_top" xlink:title="Frame.h">
<polygon fill="white" stroke="black" points="794.5,-297 794.5,-316 847.5,-316 847.5,-297 794.5,-297"/>
<text text-anchor="middle" x="821" y="-304" font-family="Helvetica,sans-Serif" font-size="10.00">Frame.h</text>
</a>
</g>
</g>
<!-- Node25&#45;&gt;Node29 -->
<g id="edge52" class="edge"><title>Node25&#45;&gt;Node29</title>
<path fill="none" stroke="midnightblue" d="M1203.73,-414.786C1126.66,-394.473 936.977,-341.856 857.17,-318.708"/>
<polygon fill="midnightblue" stroke="midnightblue" points="858.13,-315.343 847.55,-315.905 856.171,-322.063 858.13,-315.343"/>
</g>
<!-- Node26&#45;&gt;Node2 -->
<g id="edge42" class="edge"><title>Node26&#45;&gt;Node2</title>
<path fill="none" stroke="midnightblue" d="M1131.95,-366.233C1068.17,-364.018 937.088,-355.411 909,-322 895.142,-305.515 905.408,-280.231 915.198,-263.412"/>
<polygon fill="midnightblue" stroke="midnightblue" points="918.367,-264.947 920.722,-254.618 912.439,-261.224 918.367,-264.947"/>
</g>
<!-- Node26&#45;&gt;Node14 -->
<g id="edge41" class="edge"><title>Node26&#45;&gt;Node14</title>
<path fill="none" stroke="midnightblue" d="M1166.8,-358.373C1166.6,-349.315 1166.27,-334.657 1166,-322 1164.6,-255.887 1163.06,-177.416 1162.37,-142.006"/>
<polygon fill="midnightblue" stroke="midnightblue" points="1165.86,-141.659 1162.17,-131.729 1158.86,-141.795 1165.86,-141.659"/>
</g>
<!-- Node26&#45;&gt;Node15 -->
<g id="edge40" class="edge"><title>Node26&#45;&gt;Node15</title>
<path fill="none" stroke="midnightblue" d="M1156.75,-358.469C1136.01,-340.179 1091,-294.87 1091,-246 1091,-246 1091,-246 1091,-182.5 1091,-146.934 1076.73,-107.371 1067.25,-85.0039"/>
<polygon fill="midnightblue" stroke="midnightblue" points="1070.41,-83.4991 1063.18,-75.7553 1064.01,-86.3181 1070.41,-83.4991"/>
</g>
<!-- Node26&#45;&gt;Node22 -->
<g id="edge50" class="edge"><title>Node26&#45;&gt;Node22</title>
<path fill="none" stroke="midnightblue" d="M1166.39,-358.465C1165.76,-342.655 1166.9,-308.811 1186,-291 1217.67,-261.464 1346.44,-250.873 1407.53,-247.458"/>
<polygon fill="midnightblue" stroke="midnightblue" points="1407.97,-250.94 1417.77,-246.918 1407.6,-243.95 1407.97,-250.94"/>
</g>
<!-- Node26&#45;&gt;Node23 -->
<g id="edge51" class="edge"><title>Node26&#45;&gt;Node23</title>
<path fill="none" stroke="midnightblue" d="M1177.89,-358.475C1188.09,-350.492 1203.72,-338.254 1217.11,-327.77"/>
<polygon fill="midnightblue" stroke="midnightblue" points="1219.37,-330.443 1225.09,-321.523 1215.06,-324.932 1219.37,-330.443"/>
</g>
<!-- Node26&#45;&gt;Node24 -->
<g id="edge49" class="edge"><title>Node26&#45;&gt;Node24</title>
<path fill="none" stroke="midnightblue" d="M1192.32,-358.402C1218.89,-349.368 1261.9,-334.728 1299,-322 1301.43,-321.168 1303.93,-320.307 1306.45,-319.439"/>
<polygon fill="midnightblue" stroke="midnightblue" points="1307.82,-322.671 1316.13,-316.103 1305.54,-316.053 1307.82,-322.671"/>
</g>
<!-- Node27 -->
<g id="node28" class="node"><title>Node27</title>
<g id="a_node28"><a xlink:href="_key_frame_database_8h.html" target="_top" xlink:title="KeyFrameDatabase.h">
<polygon fill="white" stroke="black" points="951,-297 951,-316 1063,-316 1063,-297 951,-297"/>
<text text-anchor="middle" x="1007" y="-304" font-family="Helvetica,sans-Serif" font-size="10.00">KeyFrameDatabase.h</text>
</a>
</g>
</g>
<!-- Node26&#45;&gt;Node27 -->
<g id="edge43" class="edge"><title>Node26&#45;&gt;Node27</title>
<path fill="none" stroke="midnightblue" d="M1144.08,-358.475C1116.63,-348.269 1070.48,-331.108 1039.4,-319.549"/>
<polygon fill="midnightblue" stroke="midnightblue" points="1040.47,-316.214 1029.88,-316.009 1038.03,-322.775 1040.47,-316.214"/>
</g>
<!-- Node27&#45;&gt;Node2 -->
<g id="edge47" class="edge"><title>Node27&#45;&gt;Node2</title>
<path fill="none" stroke="midnightblue" d="M995.538,-296.975C982.825,-287.52 962.087,-272.096 946.747,-260.687"/>
<polygon fill="midnightblue" stroke="midnightblue" points="948.554,-257.669 938.441,-254.509 944.376,-263.285 948.554,-257.669"/>
</g>
<!-- Node27&#45;&gt;Node5 -->
<g id="edge44" class="edge"><title>Node27&#45;&gt;Node5</title>
<path fill="none" stroke="midnightblue" d="M1009.42,-296.773C1016.97,-267.519 1037.25,-171.431 996,-112 951.928,-48.5002 857.63,-24.1104 808.021,-15.4099"/>
<polygon fill="midnightblue" stroke="midnightblue" points="808.584,-11.9555 798.148,-13.783 807.446,-18.8624 808.584,-11.9555"/>
</g>
<!-- Node27&#45;&gt;Node21 -->
<g id="edge46" class="edge"><title>Node27&#45;&gt;Node21</title>
<path fill="none" stroke="midnightblue" d="M1025.2,-296.975C1047.36,-286.593 1084.88,-269.013 1109.55,-257.456"/>
<polygon fill="midnightblue" stroke="midnightblue" points="1111.06,-260.614 1118.63,-253.202 1108.09,-254.275 1111.06,-260.614"/>
</g>
<!-- Node27&#45;&gt;Node22 -->
<g id="edge48" class="edge"><title>Node27&#45;&gt;Node22</title>
<path fill="none" stroke="midnightblue" d="M1063.16,-297.782C1154.98,-285.165 1334.34,-260.519 1407.63,-250.448"/>
<polygon fill="midnightblue" stroke="midnightblue" points="1408.22,-253.9 1417.65,-249.071 1407.27,-246.965 1408.22,-253.9"/>
</g>
<!-- Node28 -->
<g id="node29" class="node"><title>Node28</title>
<polygon fill="white" stroke="#bfbfbf" points="428.5,-174 428.5,-193 457.5,-193 457.5,-174 428.5,-174"/>
<text text-anchor="middle" x="443" y="-181" font-family="Helvetica,sans-Serif" font-size="10.00">list</text>
</g>
<!-- Node27&#45;&gt;Node28 -->
<g id="edge45" class="edge"><title>Node27&#45;&gt;Node28</title>
<path fill="none" stroke="midnightblue" d="M1006.89,-296.884C1006.18,-281.657 1002.32,-250.171 983,-235 911.935,-179.198 667.923,-207.825 578,-199 539.443,-195.216 494.75,-190.314 467.692,-187.289"/>
<polygon fill="midnightblue" stroke="midnightblue" points="467.902,-183.791 457.574,-186.154 467.122,-190.748 467.902,-183.791"/>
</g>
<!-- Node29&#45;&gt;Node2 -->
<g id="edge57" class="edge"><title>Node29&#45;&gt;Node2</title>
<path fill="none" stroke="midnightblue" d="M836.187,-296.975C853.662,-287.166 882.579,-270.935 903.083,-259.425"/>
<polygon fill="midnightblue" stroke="midnightblue" points="904.834,-262.456 911.841,-254.509 901.408,-256.352 904.834,-262.456"/>
</g>
<!-- Node29&#45;&gt;Node5 -->
<g id="edge53" class="edge"><title>Node29&#45;&gt;Node5</title>
<path fill="none" stroke="midnightblue" d="M794.493,-305.494C637.636,-304.666 -154.784,-289.048 64,-56 87.575,-30.888 607.903,-15.4372 743.779,-11.8211"/>
<polygon fill="midnightblue" stroke="midnightblue" points="744.051,-15.3153 753.955,-11.5534 743.867,-8.31768 744.051,-15.3153"/>
</g>
<!-- Node29&#45;&gt;Node14 -->
<g id="edge56" class="edge"><title>Node29&#45;&gt;Node14</title>
<path fill="none" stroke="midnightblue" d="M824.867,-296.879C831.858,-282.205 847.946,-252.288 870,-235 942.254,-178.362 1046.45,-147.682 1108.87,-133.378"/>
<polygon fill="midnightblue" stroke="midnightblue" points="1109.89,-136.735 1118.89,-131.14 1108.37,-129.903 1109.89,-136.735"/>
</g>
<!-- Node29&#45;&gt;Node15 -->
<g id="edge55" class="edge"><title>Node29&#45;&gt;Node15</title>
<path fill="none" stroke="midnightblue" d="M822.957,-296.618C826.351,-282.588 834.309,-254.853 848,-235 873.375,-198.204 885.95,-193.003 923,-168 952.986,-147.764 966.761,-153.3 996,-132 1015.14,-118.053 1033.58,-97.9984 1045.51,-83.8618"/>
<polygon fill="midnightblue" stroke="midnightblue" points="1048.39,-85.8755 1052.05,-75.9321 1042.99,-81.4241 1048.39,-85.8755"/>
</g>
<!-- Node29&#45;&gt;Node25 -->
<g id="edge54" class="edge"><title>Node29&#45;&gt;Node25</title>
<path fill="none" stroke="midnightblue" d="M847.718,-313.994C919.785,-332.826 1117.5,-387.638 1200.11,-411.583"/>
<polygon fill="midnightblue" stroke="midnightblue" points="1199.25,-414.977 1209.83,-414.413 1201.21,-408.256 1199.25,-414.977"/>
</g>
<!-- Node30 -->
<g id="node31" class="node"><title>Node30</title>
<g id="a_node31"><a xlink:href="_o_r_bextractor_8h.html" target="_top" xlink:title="ORBextractor.h">
<polygon fill="white" stroke="black" points="236.5,-235.5 236.5,-254.5 321.5,-254.5 321.5,-235.5 236.5,-235.5"/>
<text text-anchor="middle" x="279" y="-242.5" font-family="Helvetica,sans-Serif" font-size="10.00">ORBextractor.h</text>
</a>
</g>
</g>
<!-- Node29&#45;&gt;Node30 -->
<g id="edge58" class="edge"><title>Node29&#45;&gt;Node30</title>
<path fill="none" stroke="midnightblue" d="M794.491,-302.59C709.991,-293.314 445.878,-264.32 332.06,-251.825"/>
<polygon fill="midnightblue" stroke="midnightblue" points="332.172,-248.316 321.85,-250.704 331.408,-255.274 332.172,-248.316"/>
</g>
<!-- Node31 -->
<g id="node32" class="node"><title>Node31</title>
<polygon fill="white" stroke="#bfbfbf" points="677.5,-235.5 677.5,-254.5 784.5,-254.5 784.5,-235.5 677.5,-235.5"/>
<text text-anchor="middle" x="731" y="-242.5" font-family="Helvetica,sans-Serif" font-size="10.00">opencv2/opencv.hpp</text>
</g>
<!-- Node29&#45;&gt;Node31 -->
<g id="edge62" class="edge"><title>Node29&#45;&gt;Node31</title>
<path fill="none" stroke="midnightblue" d="M808.105,-296.975C793.536,-287.343 769.598,-271.517 752.255,-260.052"/>
<polygon fill="midnightblue" stroke="midnightblue" points="754.143,-257.104 743.871,-254.509 750.283,-262.944 754.143,-257.104"/>
</g>
<!-- Node30&#45;&gt;Node4 -->
<g id="edge61" class="edge"><title>Node30&#45;&gt;Node4</title>
<path fill="none" stroke="midnightblue" d="M243.856,-235.433C223.387,-228.727 198.615,-217.374 183,-199 155.661,-166.83 156.574,-113.717 159.391,-85.6759"/>
<polygon fill="midnightblue" stroke="midnightblue" points="162.88,-85.9793 160.595,-75.6338 155.929,-85.1461 162.88,-85.9793"/>
</g>
<!-- Node30&#45;&gt;Node5 -->
<g id="edge59" class="edge"><title>Node30&#45;&gt;Node5</title>
<path fill="none" stroke="midnightblue" d="M245.865,-235.453C221.575,-228.199 188.524,-216.205 163,-199 102.25,-158.05 30.8966,-109.452 81,-56 126.744,-7.19858 612.67,-9.14108 743.639,-10.5657"/>
<polygon fill="midnightblue" stroke="midnightblue" points="743.785,-14.0675 753.825,-10.6835 743.866,-7.06798 743.785,-14.0675"/>
</g>
<!-- Node30&#45;&gt;Node28 -->
<g id="edge60" class="edge"><title>Node30&#45;&gt;Node28</title>
<path fill="none" stroke="midnightblue" d="M302.497,-235.475C333.372,-224.274 387.335,-204.695 418.635,-193.34"/>
<polygon fill="midnightblue" stroke="midnightblue" points="420.109,-196.528 428.315,-189.828 417.721,-189.948 420.109,-196.528"/>
</g>
</g>
</svg>
