<?xml version="1.0" encoding="UTF-8" standalone="no"?>
<!DOCTYPE svg PUBLIC "-//W3C//DTD SVG 1.1//EN"
 "http://www.w3.org/Graphics/SVG/1.1/DTD/svg11.dtd">
<!-- Generated by graphviz version 2.38.0 (20140413.2041)
 -->
<!-- Title: /home/alejandro/Desarrollo eclipse/os1/include/Map.h Pages: 1 -->
<svg width="1197pt" height="575pt"
 viewBox="0.00 0.00 1197.00 575.00" xmlns="http://www.w3.org/2000/svg" xmlns:xlink="http://www.w3.org/1999/xlink">
<g id="graph0" class="graph" transform="scale(1 1) rotate(0) translate(4 571)">
<title>/home/alejandro/Desarrollo eclipse/os1/include/Map.h</title>
<polygon fill="white" stroke="none" points="-4,4 -4,-571 1193,-571 1193,4 -4,4"/>
<!-- Node8 -->
<g id="node1" class="node"><title>Node8</title>
<polygon fill="#bfbfbf" stroke="black" points="844.5,-536.5 844.5,-566.5 977.5,-566.5 977.5,-536.5 844.5,-536.5"/>
<text text-anchor="start" x="852.5" y="-554.5" font-family="Helvetica,sans-Serif" font-size="10.00">/home/alejandro/Desarrollo</text>
<text text-anchor="middle" x="911" y="-543.5" font-family="Helvetica,sans-Serif" font-size="10.00"> eclipse/os1/include/Map.h</text>
</g>
<!-- Node9 -->
<g id="node2" class="node"><title>Node9</title>
<g id="a_node2"><a xlink:href="_map_point_8h.html" target="_top" xlink:title="/home/alejandro/Desarrollo\l eclipse/os1/include/MapPoint.h">
<polygon fill="white" stroke="black" points="688.5,-469.5 688.5,-499.5 843.5,-499.5 843.5,-469.5 688.5,-469.5"/>
<text text-anchor="start" x="696.5" y="-487.5" font-family="Helvetica,sans-Serif" font-size="10.00">/home/alejandro/Desarrollo</text>
<text text-anchor="middle" x="766" y="-476.5" font-family="Helvetica,sans-Serif" font-size="10.00"> eclipse/os1/include/MapPoint.h</text>
</a>
</g>
</g>
<!-- Node8&#45;&gt;Node9 -->
<g id="edge1" class="edge"><title>Node8&#45;&gt;Node9</title>
<path fill="none" stroke="midnightblue" d="M870.33,-532.269C847.235,-521.916 818.764,-509.153 797.401,-499.577"/>
<polygon fill="midnightblue" stroke="midnightblue" points="868.98,-535.499 879.537,-536.396 871.844,-529.112 868.98,-535.499"/>
</g>
<!-- Node13 -->
<g id="node6" class="node"><title>Node13</title>
<g id="a_node6"><a xlink:href="_tracking_8h.html" target="_top" xlink:title="/home/alejandro/Desarrollo\l eclipse/os1/include/Tracking.h">
<polygon fill="white" stroke="black" points="643,-134.5 643,-164.5 795,-164.5 795,-134.5 643,-134.5"/>
<text text-anchor="start" x="651" y="-152.5" font-family="Helvetica,sans-Serif" font-size="10.00">/home/alejandro/Desarrollo</text>
<text text-anchor="middle" x="719" y="-141.5" font-family="Helvetica,sans-Serif" font-size="10.00"> eclipse/os1/include/Tracking.h</text>
</a>
</g>
</g>
<!-- Node8&#45;&gt;Node13 -->
<g id="edge39" class="edge"><title>Node8&#45;&gt;Node13</title>
<path fill="none" stroke="midnightblue" d="M944.903,-530.949C957.993,-522.444 972.542,-511.737 984,-500 1008.89,-474.508 1012.1,-464.882 1028,-433 1060.75,-367.313 1070.5,-322.194 1021,-268 962.094,-203.511 863.566,-174.027 795.138,-160.807"/>
<polygon fill="midnightblue" stroke="midnightblue" points="942.73,-528.181 936.131,-536.47 946.458,-534.106 942.73,-528.181"/>
</g>
<!-- Node14 -->
<g id="node7" class="node"><title>Node14</title>
<g id="a_node7"><a xlink:href="_loop_closing_8h.html" target="_top" xlink:title="/home/alejandro/Desarrollo\l eclipse/os1/include/LoopClosing.h">
<polygon fill="white" stroke="black" points="491,-67.5 491,-97.5 659,-97.5 659,-67.5 491,-67.5"/>
<text text-anchor="start" x="499" y="-85.5" font-family="Helvetica,sans-Serif" font-size="10.00">/home/alejandro/Desarrollo</text>
<text text-anchor="middle" x="575" y="-74.5" font-family="Helvetica,sans-Serif" font-size="10.00"> eclipse/os1/include/LoopClosing.h</text>
</a>
</g>
</g>
<!-- Node8&#45;&gt;Node14 -->
<g id="edge38" class="edge"><title>Node8&#45;&gt;Node14</title>
<path fill="none" stroke="midnightblue" d="M834.291,-550.505C663.157,-549.723 255.02,-543.227 125,-500 62.0661,-479.077 0,-484.821 0,-418.5 0,-418.5 0,-418.5 0,-349.5 0,-153.019 199.03,-194.391 386,-134 429.147,-120.064 478.69,-106.929 516.226,-97.5503"/>
<polygon fill="midnightblue" stroke="midnightblue" points="834.464,-554.006 844.478,-550.547 834.492,-547.006 834.464,-554.006"/>
</g>
<!-- Node15 -->
<g id="node8" class="node"><title>Node15</title>
<g id="a_node8"><a xlink:href="_local_mapping_8h.html" target="_top" xlink:title="/home/alejandro/Desarrollo\l eclipse/os1/include/LocalMapping.h">
<polygon fill="white" stroke="black" points="413,-201.5 413,-231.5 587,-231.5 587,-201.5 413,-201.5"/>
<text text-anchor="start" x="421" y="-219.5" font-family="Helvetica,sans-Serif" font-size="10.00">/home/alejandro/Desarrollo</text>
<text text-anchor="middle" x="500" y="-208.5" font-family="Helvetica,sans-Serif" font-size="10.00"> eclipse/os1/include/LocalMapping.h</text>
</a>
</g>
</g>
<!-- Node8&#45;&gt;Node15 -->
<g id="edge37" class="edge"><title>Node8&#45;&gt;Node15</title>
<path fill="none" stroke="midnightblue" d="M834.136,-546.916C620.979,-535.96 38,-498.668 38,-418.5 38,-418.5 38,-418.5 38,-349.5 38,-312.306 29.2257,-292.738 57,-268 70.1234,-256.311 287.61,-235.789 412.874,-224.851"/>
<polygon fill="midnightblue" stroke="midnightblue" points="834.142,-550.421 844.307,-547.433 834.498,-543.43 834.142,-550.421"/>
</g>
<!-- Node16 -->
<g id="node9" class="node"><title>Node16</title>
<g id="a_node9"><a xlink:href="_optimizer_8h.html" target="_top" xlink:title="/home/alejandro/Desarrollo\l eclipse/os1/include/Optimizer.h">
<polygon fill="white" stroke="black" points="962,-0.5 962,-30.5 1118,-30.5 1118,-0.5 962,-0.5"/>
<text text-anchor="start" x="970" y="-18.5" font-family="Helvetica,sans-Serif" font-size="10.00">/home/alejandro/Desarrollo</text>
<text text-anchor="middle" x="1040" y="-7.5" font-family="Helvetica,sans-Serif" font-size="10.00"> eclipse/os1/include/Optimizer.h</text>
</a>
</g>
</g>
<!-- Node8&#45;&gt;Node16 -->
<g id="edge41" class="edge"><title>Node8&#45;&gt;Node16</title>
<path fill="none" stroke="midnightblue" d="M987.681,-546.169C1069.97,-536.89 1189,-507.999 1189,-418.5 1189,-418.5 1189,-418.5 1189,-148.5 1189,-89.0584 1121.74,-49.9045 1077.6,-30.6096"/>
<polygon fill="midnightblue" stroke="midnightblue" points="987.167,-542.704 977.588,-547.231 987.899,-549.665 987.167,-542.704"/>
</g>
<!-- Node17 -->
<g id="node10" class="node"><title>Node17</title>
<g id="a_node10"><a xlink:href="_map_drawer_8h.html" target="_top" xlink:title="/home/alejandro/Desarrollo\l eclipse/os1/include/MapDrawer.h">
<polygon fill="white" stroke="black" points="848,-268.5 848,-298.5 1012,-298.5 1012,-268.5 848,-268.5"/>
<text text-anchor="start" x="856" y="-286.5" font-family="Helvetica,sans-Serif" font-size="10.00">/home/alejandro/Desarrollo</text>
<text text-anchor="middle" x="930" y="-275.5" font-family="Helvetica,sans-Serif" font-size="10.00"> eclipse/os1/include/MapDrawer.h</text>
</a>
</g>
</g>
<!-- Node8&#45;&gt;Node17 -->
<g id="edge40" class="edge"><title>Node8&#45;&gt;Node17</title>
<path fill="none" stroke="midnightblue" d="M932.058,-528.816C961.808,-496.501 1014.77,-432.363 1035,-366 1039.02,-352.821 1042.33,-346.664 1035,-335 1024.13,-317.704 1005.49,-306.195 986.906,-298.599"/>
<polygon fill="midnightblue" stroke="midnightblue" points="929.306,-526.634 925.029,-536.327 934.417,-531.417 929.306,-526.634"/>
</g>
<!-- Node10 -->
<g id="node3" class="node"><title>Node10</title>
<g id="a_node3"><a xlink:href="_frame_8h.html" target="_top" xlink:title="/home/alejandro/Desarrollo\l eclipse/os1/include/Frame.h">
<polygon fill="white" stroke="black" points="695,-402.5 695,-432.5 837,-432.5 837,-402.5 695,-402.5"/>
<text text-anchor="start" x="703" y="-420.5" font-family="Helvetica,sans-Serif" font-size="10.00">/home/alejandro/Desarrollo</text>
<text text-anchor="middle" x="766" y="-409.5" font-family="Helvetica,sans-Serif" font-size="10.00"> eclipse/os1/include/Frame.h</text>
</a>
</g>
</g>
<!-- Node9&#45;&gt;Node10 -->
<g id="edge2" class="edge"><title>Node9&#45;&gt;Node10</title>
<path fill="none" stroke="midnightblue" d="M759.455,-459.403C759.005,-450.37 759.296,-440.408 760.325,-432.577"/>
<polygon fill="midnightblue" stroke="midnightblue" points="755.97,-459.736 760.322,-469.396 762.944,-459.131 755.97,-459.736"/>
</g>
<!-- Node11 -->
<g id="node4" class="node"><title>Node11</title>
<g id="a_node4"><a xlink:href="_key_frame_8h.html" target="_top" xlink:title="/home/alejandro/Desarrollo\l eclipse/os1/include/KeyFrame.h">
<polygon fill="white" stroke="black" points="522.5,-335.5 522.5,-365.5 681.5,-365.5 681.5,-335.5 522.5,-335.5"/>
<text text-anchor="start" x="530.5" y="-353.5" font-family="Helvetica,sans-Serif" font-size="10.00">/home/alejandro/Desarrollo</text>
<text text-anchor="middle" x="602" y="-342.5" font-family="Helvetica,sans-Serif" font-size="10.00"> eclipse/os1/include/KeyFrame.h</text>
</a>
</g>
</g>
<!-- Node9&#45;&gt;Node11 -->
<g id="edge32" class="edge"><title>Node9&#45;&gt;Node11</title>
<path fill="none" stroke="midnightblue" d="M724.022,-464.342C708.581,-455.467 691.459,-444.377 677,-433 649.854,-411.639 621.719,-382.708 608.515,-365.681"/>
<polygon fill="midnightblue" stroke="midnightblue" points="722.449,-467.473 732.886,-469.297 725.865,-461.362 722.449,-467.473"/>
</g>
<!-- Node9&#45;&gt;Node16 -->
<g id="edge34" class="edge"><title>Node9&#45;&gt;Node16</title>
<path fill="none" stroke="midnightblue" d="M854.002,-476.309C967.643,-461.66 1151,-417.427 1151,-284.5 1151,-284.5 1151,-284.5 1151,-148.5 1151,-94.9034 1096.73,-51.7226 1064.09,-30.5955"/>
<polygon fill="midnightblue" stroke="midnightblue" points="853.406,-472.856 843.91,-477.556 854.264,-479.803 853.406,-472.856"/>
</g>
<!-- Node9&#45;&gt;Node17 -->
<g id="edge33" class="edge"><title>Node9&#45;&gt;Node17</title>
<path fill="none" stroke="midnightblue" d="M853.384,-467.835C910.981,-452.47 982.164,-422.705 1018,-366 1025.36,-354.353 1024.9,-346.923 1018,-335 1008.29,-318.232 990.677,-306.551 973.745,-298.68"/>
<polygon fill="midnightblue" stroke="midnightblue" points="852.352,-464.486 843.534,-470.359 854.09,-471.267 852.352,-464.486"/>
</g>
<!-- Node18 -->
<g id="node11" class="node"><title>Node18</title>
<g id="a_node11"><a xlink:href="_o_r_bmatcher_8h.html" target="_top" xlink:title="/home/alejandro/Desarrollo\l eclipse/os1/include/ORBmatcher.h">
<polygon fill="white" stroke="black" points="66.5,-268.5 66.5,-298.5 237.5,-298.5 237.5,-268.5 66.5,-268.5"/>
<text text-anchor="start" x="74.5" y="-286.5" font-family="Helvetica,sans-Serif" font-size="10.00">/home/alejandro/Desarrollo</text>
<text text-anchor="middle" x="152" y="-275.5" font-family="Helvetica,sans-Serif" font-size="10.00"> eclipse/os1/include/ORBmatcher.h</text>
</a>
</g>
</g>
<!-- Node9&#45;&gt;Node18 -->
<g id="edge35" class="edge"><title>Node9&#45;&gt;Node18</title>
<path fill="none" stroke="midnightblue" d="M704.692,-466.733C626.512,-445.027 487.383,-405.304 370,-366 304.865,-344.19 230.104,-315.407 187.225,-298.529"/>
<polygon fill="midnightblue" stroke="midnightblue" points="703.811,-470.121 714.383,-469.418 705.68,-463.375 703.811,-470.121"/>
</g>
<!-- Node21 -->
<g id="node14" class="node"><title>Node21</title>
<g id="a_node14"><a xlink:href="_pn_psolver_8h.html" target="_top" xlink:title="/home/alejandro/Desarrollo\l eclipse/os1/include/PnPsolver.h">
<polygon fill="white" stroke="black" points="850.5,-335.5 850.5,-365.5 1009.5,-365.5 1009.5,-335.5 850.5,-335.5"/>
<text text-anchor="start" x="858.5" y="-353.5" font-family="Helvetica,sans-Serif" font-size="10.00">/home/alejandro/Desarrollo</text>
<text text-anchor="middle" x="930" y="-342.5" font-family="Helvetica,sans-Serif" font-size="10.00"> eclipse/os1/include/PnPsolver.h</text>
</a>
</g>
</g>
<!-- Node9&#45;&gt;Node21 -->
<g id="edge36" class="edge"><title>Node9&#45;&gt;Node21</title>
<path fill="none" stroke="midnightblue" d="M800.145,-464.092C814.739,-455.259 831.677,-444.271 846,-433 873.146,-411.639 901.281,-382.708 917.121,-365.681"/>
<polygon fill="midnightblue" stroke="midnightblue" points="798.206,-461.173 791.405,-469.297 801.788,-467.188 798.206,-461.173"/>
</g>
<!-- Node10&#45;&gt;Node9 -->
<g id="edge25" class="edge"><title>Node10&#45;&gt;Node9</title>
<path fill="none" stroke="midnightblue" d="M772.544,-442.565C772.995,-451.596 772.706,-461.56 771.678,-469.396"/>
<polygon fill="midnightblue" stroke="midnightblue" points="776.028,-442.236 771.675,-432.577 769.055,-442.842 776.028,-442.236"/>
</g>
<!-- Node10&#45;&gt;Node11 -->
<g id="edge3" class="edge"><title>Node10&#45;&gt;Node11</title>
<path fill="none" stroke="midnightblue" d="M721.043,-398.682C694.74,-388.257 662,-375.281 637.516,-365.577"/>
<polygon fill="midnightblue" stroke="midnightblue" points="719.828,-401.965 730.414,-402.396 722.408,-395.458 719.828,-401.965"/>
</g>
<!-- Node12 -->
<g id="node5" class="node"><title>Node12</title>
<g id="a_node5"><a xlink:href="_key_frame_database_8h.html" target="_top" xlink:title="/home/alejandro/Desarrollo\l eclipse/os1/include/KeyFrameDatabase.h">
<polygon fill="white" stroke="black" points="552.5,-268.5 552.5,-298.5 753.5,-298.5 753.5,-268.5 552.5,-268.5"/>
<text text-anchor="start" x="560.5" y="-286.5" font-family="Helvetica,sans-Serif" font-size="10.00">/home/alejandro/Desarrollo</text>
<text text-anchor="middle" x="653" y="-275.5" font-family="Helvetica,sans-Serif" font-size="10.00"> eclipse/os1/include/KeyFrameDatabase.h</text>
</a>
</g>
</g>
<!-- Node10&#45;&gt;Node12 -->
<g id="edge24" class="edge"><title>Node10&#45;&gt;Node12</title>
<path fill="none" stroke="midnightblue" d="M747.204,-394.543C723.842,-367.253 684.659,-321.482 665.006,-298.525"/>
<polygon fill="midnightblue" stroke="midnightblue" points="744.745,-397.053 753.907,-402.374 750.063,-392.501 744.745,-397.053"/>
</g>
<!-- Node10&#45;&gt;Node13 -->
<g id="edge28" class="edge"><title>Node10&#45;&gt;Node13</title>
<path fill="none" stroke="midnightblue" d="M779.302,-393.172C797.904,-359.071 830.777,-293.021 843,-232 845.706,-218.491 850.689,-212.433 843,-201 831.196,-183.447 812.115,-171.992 792.423,-164.518"/>
<polygon fill="midnightblue" stroke="midnightblue" points="776.029,-391.857 774.245,-402.301 782.152,-395.25 776.029,-391.857"/>
</g>
<!-- Node10&#45;&gt;Node16 -->
<g id="edge29" class="edge"><title>Node10&#45;&gt;Node16</title>
<path fill="none" stroke="midnightblue" d="M784.896,-394.602C804.755,-371.814 834.065,-338.899 841,-335 912.116,-295.019 962.406,-355.769 1021,-299 1047.71,-273.12 1040,-254.694 1040,-217.5 1040,-217.5 1040,-217.5 1040,-148.5 1040,-105.646 1040,-54.9658 1040,-30.7593"/>
<polygon fill="midnightblue" stroke="midnightblue" points="782.233,-392.331 778.318,-402.176 787.518,-396.921 782.233,-392.331"/>
</g>
<!-- Node10&#45;&gt;Node18 -->
<g id="edge30" class="edge"><title>Node10&#45;&gt;Node18</title>
<path fill="none" stroke="midnightblue" d="M684.703,-400.809C635.041,-391.091 570.279,-378.18 513,-366 406.791,-343.415 283.485,-315.131 211.942,-298.515"/>
<polygon fill="midnightblue" stroke="midnightblue" points="684.259,-404.289 694.745,-402.771 685.602,-397.419 684.259,-404.289"/>
</g>
<!-- Node20 -->
<g id="node13" class="node"><title>Node20</title>
<g id="a_node13"><a xlink:href="_initializer_8h.html" target="_top" xlink:title="/home/alejandro/Desarrollo\l eclipse/os1/include/Initializer.h">
<polygon fill="white" stroke="black" points="681.5,-201.5 681.5,-231.5 834.5,-231.5 834.5,-201.5 681.5,-201.5"/>
<text text-anchor="start" x="689.5" y="-219.5" font-family="Helvetica,sans-Serif" font-size="10.00">/home/alejandro/Desarrollo</text>
<text text-anchor="middle" x="758" y="-208.5" font-family="Helvetica,sans-Serif" font-size="10.00"> eclipse/os1/include/Initializer.h</text>
</a>
</g>
</g>
<!-- Node10&#45;&gt;Node20 -->
<g id="edge26" class="edge"><title>Node10&#45;&gt;Node20</title>
<path fill="none" stroke="midnightblue" d="M765.731,-391.975C765.317,-362.519 764.313,-311.619 762,-268 761.348,-255.705 760.213,-241.754 759.318,-231.636"/>
<polygon fill="midnightblue" stroke="midnightblue" points="762.233,-392.201 765.862,-402.155 769.232,-392.11 762.233,-392.201"/>
</g>
<!-- Node10&#45;&gt;Node21 -->
<g id="edge31" class="edge"><title>Node10&#45;&gt;Node21</title>
<path fill="none" stroke="midnightblue" d="M810.957,-398.682C837.26,-388.257 870,-375.281 894.484,-365.577"/>
<polygon fill="midnightblue" stroke="midnightblue" points="809.592,-395.458 801.586,-402.396 812.172,-401.965 809.592,-395.458"/>
</g>
<!-- Node11&#45;&gt;Node9 -->
<g id="edge4" class="edge"><title>Node11&#45;&gt;Node9</title>
<path fill="none" stroke="midnightblue" d="M628.604,-372.586C646.737,-389.823 671.247,-414.309 695,-433 712.296,-446.61 733.404,-459.808 748.304,-469.297"/>
<polygon fill="midnightblue" stroke="midnightblue" points="630.931,-369.971 621.244,-365.681 626.142,-375.076 630.931,-369.971"/>
</g>
<!-- Node11&#45;&gt;Node12 -->
<g id="edge5" class="edge"><title>Node11&#45;&gt;Node12</title>
<path fill="none" stroke="midnightblue" d="M613.082,-327.157C619.938,-317.679 628.639,-306.919 636.281,-298.577"/>
<polygon fill="midnightblue" stroke="midnightblue" points="610.195,-325.18 607.388,-335.396 615.953,-329.16 610.195,-325.18"/>
</g>
<!-- Node11&#45;&gt;Node14 -->
<g id="edge18" class="edge"><title>Node11&#45;&gt;Node14</title>
<path fill="none" stroke="midnightblue" d="M512.107,-339.01C435.286,-329.12 335.25,-313.666 323,-299 249.472,-210.968 443.058,-129.424 532.499,-97.5969"/>
<polygon fill="midnightblue" stroke="midnightblue" points="511.942,-342.517 522.304,-340.308 512.826,-335.573 511.942,-342.517"/>
</g>
<!-- Node11&#45;&gt;Node15 -->
<g id="edge17" class="edge"><title>Node11&#45;&gt;Node15</title>
<path fill="none" stroke="midnightblue" d="M573.842,-329.048C563.339,-320.532 551.833,-310.054 543,-299 526.022,-277.754 512.631,-248.785 505.55,-231.72"/>
<polygon fill="midnightblue" stroke="midnightblue" points="571.952,-332.013 581.98,-335.431 576.272,-326.505 571.952,-332.013"/>
</g>
<!-- Node11&#45;&gt;Node16 -->
<g id="edge21" class="edge"><title>Node11&#45;&gt;Node16</title>
<path fill="none" stroke="midnightblue" d="M512.298,-340.156C429.544,-330.61 317.484,-314.961 304,-299 293.313,-286.349 298.541,-225.353 311,-201 354.977,-115.041 391.292,-100.09 482,-67 568.069,-35.6027 829.607,-23.0684 961.777,-18.6372"/>
<polygon fill="midnightblue" stroke="midnightblue" points="511.904,-343.633 522.236,-341.289 512.697,-336.679 511.904,-343.633"/>
</g>
<!-- Node11&#45;&gt;Node17 -->
<g id="edge19" class="edge"><title>Node11&#45;&gt;Node17</title>
<path fill="none" stroke="midnightblue" d="M682.658,-333.516C736.699,-322.807 807.182,-308.839 859.077,-298.555"/>
<polygon fill="midnightblue" stroke="midnightblue" points="681.896,-330.099 672.767,-335.476 683.257,-336.965 681.896,-330.099"/>
</g>
<!-- Node11&#45;&gt;Node18 -->
<g id="edge22" class="edge"><title>Node11&#45;&gt;Node18</title>
<path fill="none" stroke="midnightblue" d="M512.21,-336.562C441.506,-326.37 340.462,-311.795 252,-299 247.312,-298.322 242.501,-297.626 237.644,-296.922"/>
<polygon fill="midnightblue" stroke="midnightblue" points="512.02,-340.071 522.417,-338.033 513.018,-333.142 512.02,-340.071"/>
</g>
<!-- Node19 -->
<g id="node12" class="node"><title>Node19</title>
<g id="a_node12"><a xlink:href="_sim3_solver_8h.html" target="_top" xlink:title="/home/alejandro/Desarrollo\l eclipse/os1/include/Sim3Solver.h">
<polygon fill="white" stroke="black" points="332,-268.5 332,-298.5 496,-298.5 496,-268.5 332,-268.5"/>
<text text-anchor="start" x="340" y="-286.5" font-family="Helvetica,sans-Serif" font-size="10.00">/home/alejandro/Desarrollo</text>
<text text-anchor="middle" x="414" y="-275.5" font-family="Helvetica,sans-Serif" font-size="10.00"> eclipse/os1/include/Sim3Solver.h</text>
</a>
</g>
</g>
<!-- Node11&#45;&gt;Node19 -->
<g id="edge23" class="edge"><title>Node11&#45;&gt;Node19</title>
<path fill="none" stroke="midnightblue" d="M551.65,-332.092C521.301,-321.599 483.15,-308.408 454.714,-298.577"/>
<polygon fill="midnightblue" stroke="midnightblue" points="550.612,-335.436 561.207,-335.396 552.899,-328.82 550.612,-335.436"/>
</g>
<!-- Node12&#45;&gt;Node11 -->
<g id="edge6" class="edge"><title>Node12&#45;&gt;Node11</title>
<path fill="none" stroke="midnightblue" d="M641.94,-306.811C635.088,-316.287 626.389,-327.049 618.745,-335.396"/>
<polygon fill="midnightblue" stroke="midnightblue" points="644.825,-308.793 647.63,-298.577 639.066,-304.814 644.825,-308.793"/>
</g>
<!-- Node12&#45;&gt;Node13 -->
<g id="edge7" class="edge"><title>Node12&#45;&gt;Node13</title>
<path fill="none" stroke="midnightblue" d="M655.307,-258.325C657.692,-241.468 662.478,-218.884 672,-201 679.43,-187.045 691.694,-174.055 701.831,-164.745"/>
<polygon fill="midnightblue" stroke="midnightblue" points="651.807,-258.116 654.062,-268.468 658.755,-258.969 651.807,-258.116"/>
</g>
<!-- Node12&#45;&gt;Node14 -->
<g id="edge15" class="edge"><title>Node12&#45;&gt;Node14</title>
<path fill="none" stroke="midnightblue" d="M643.71,-258.798C627.332,-217.013 593.802,-131.47 580.559,-97.6819"/>
<polygon fill="midnightblue" stroke="midnightblue" points="640.482,-260.155 647.39,-268.188 647,-257.601 640.482,-260.155"/>
</g>
<!-- Node12&#45;&gt;Node15 -->
<g id="edge16" class="edge"><title>Node12&#45;&gt;Node15</title>
<path fill="none" stroke="midnightblue" d="M610.411,-264.407C585.985,-254.029 555.775,-241.195 533.134,-231.577"/>
<polygon fill="midnightblue" stroke="midnightblue" points="609.229,-267.707 619.801,-268.396 611.966,-261.264 609.229,-267.707"/>
</g>
<!-- Node13&#45;&gt;Node14 -->
<g id="edge8" class="edge"><title>Node13&#45;&gt;Node14</title>
<path fill="none" stroke="midnightblue" d="M672.794,-130.407C648.838,-120.029 620.555,-107.195 600.51,-97.5765"/>
<polygon fill="midnightblue" stroke="midnightblue" points="671.506,-133.663 682.076,-134.396 674.27,-127.232 671.506,-133.663"/>
</g>
<!-- Node13&#45;&gt;Node15 -->
<g id="edge14" class="edge"><title>Node13&#45;&gt;Node15</title>
<path fill="none" stroke="midnightblue" d="M667.255,-167.648C632.768,-178.201 587.646,-191.557 552.918,-201.476"/>
<polygon fill="midnightblue" stroke="midnightblue" points="668.606,-170.894 677.136,-164.611 666.549,-164.203 668.606,-170.894"/>
</g>
<!-- Node14&#45;&gt;Node13 -->
<g id="edge12" class="edge"><title>Node14&#45;&gt;Node13</title>
<path fill="none" stroke="midnightblue" d="M621.138,-101.564C645.085,-111.936 673.372,-124.771 693.433,-134.396"/>
<polygon fill="midnightblue" stroke="midnightblue" points="622.429,-98.3093 611.86,-97.5765 619.665,-104.741 622.429,-98.3093"/>
</g>
<!-- Node14&#45;&gt;Node15 -->
<g id="edge9" class="edge"><title>Node14&#45;&gt;Node15</title>
<path fill="none" stroke="midnightblue" d="M567.072,-106.761C553.731,-134.143 528.083,-178.746 512.397,-201.374"/>
<polygon fill="midnightblue" stroke="midnightblue" points="570.326,-108.066 571.389,-97.5247 563.984,-105.102 570.326,-108.066"/>
</g>
<!-- Node14&#45;&gt;Node16 -->
<g id="edge13" class="edge"><title>Node14&#45;&gt;Node16</title>
<path fill="none" stroke="midnightblue" d="M669.244,-68.3262C755.349,-56.2899 881.185,-38.7 961.836,-27.4262"/>
<polygon fill="midnightblue" stroke="midnightblue" points="668.627,-64.8782 659.208,-69.729 669.596,-71.8108 668.627,-64.8782"/>
</g>
<!-- Node15&#45;&gt;Node13 -->
<g id="edge11" class="edge"><title>Node15&#45;&gt;Node13</title>
<path fill="none" stroke="midnightblue" d="M551.444,-198.444C585.869,-187.908 630.99,-174.549 665.778,-164.611"/>
<polygon fill="midnightblue" stroke="midnightblue" points="550.112,-195.192 541.582,-201.476 552.169,-201.883 550.112,-195.192"/>
</g>
<!-- Node15&#45;&gt;Node14 -->
<g id="edge10" class="edge"><title>Node15&#45;&gt;Node14</title>
<path fill="none" stroke="midnightblue" d="M507.988,-192.116C521.366,-164.682 547.018,-120.086 562.674,-97.5247"/>
<polygon fill="midnightblue" stroke="midnightblue" points="504.724,-190.833 503.656,-201.374 511.064,-193.8 504.724,-190.833"/>
</g>
<!-- Node17&#45;&gt;Node13 -->
<g id="edge20" class="edge"><title>Node17&#45;&gt;Node13</title>
<path fill="none" stroke="midnightblue" d="M920.173,-259.125C911.37,-240.854 896.791,-216.101 877,-201 853.304,-182.92 822.943,-171.205 795.179,-163.663"/>
<polygon fill="midnightblue" stroke="midnightblue" points="917.009,-260.622 924.357,-268.254 923.372,-257.705 917.009,-260.622"/>
</g>
<!-- Node20&#45;&gt;Node13 -->
<g id="edge27" class="edge"><title>Node20&#45;&gt;Node13</title>
<path fill="none" stroke="midnightblue" d="M744.245,-192.576C738.644,-183.241 732.349,-172.748 727.446,-164.577"/>
<polygon fill="midnightblue" stroke="midnightblue" points="741.391,-194.622 749.538,-201.396 747.394,-191.02 741.391,-194.622"/>
</g>
</g>
</svg>
