<?xml version="1.0" encoding="UTF-8" standalone="no"?>
<!DOCTYPE svg PUBLIC "-//W3C//DTD SVG 1.1//EN"
 "http://www.w3.org/Graphics/SVG/1.1/DTD/svg11.dtd">
<!-- Generated by graphviz version 2.38.0 (20140413.2041)
 -->
<!-- Title: /home/alejandro/Desarrollo eclipse/os1/include/Map.h Pages: 1 -->
<svg width="2240pt" height="508pt"
 viewBox="0.00 0.00 2240.00 508.00" xmlns="http://www.w3.org/2000/svg" xmlns:xlink="http://www.w3.org/1999/xlink">
<g id="graph0" class="graph" transform="scale(1 1) rotate(0) translate(4 504)">
<title>/home/alejandro/Desarrollo eclipse/os1/include/Map.h</title>
<polygon fill="white" stroke="none" points="-4,4 -4,-504 2236,-504 2236,4 -4,4"/>
<!-- Node24 -->
<g id="node1" class="node"><title>Node24</title>
<polygon fill="#bfbfbf" stroke="black" points="1625.5,-469.5 1625.5,-499.5 1758.5,-499.5 1758.5,-469.5 1625.5,-469.5"/>
<text text-anchor="start" x="1633.5" y="-487.5" font-family="Helvetica,sans-Serif" font-size="10.00">/home/alejandro/Desarrollo</text>
<text text-anchor="middle" x="1692" y="-476.5" font-family="Helvetica,sans-Serif" font-size="10.00"> eclipse/os1/include/Map.h</text>
</g>
<!-- Node25 -->
<g id="node2" class="node"><title>Node25</title>
<g id="a_node2"><a xlink:href="_map_point_8h.html" target="_top" xlink:title="/home/alejandro/Desarrollo\l eclipse/os1/include/MapPoint.h">
<polygon fill="white" stroke="black" points="862.5,-402.5 862.5,-432.5 1017.5,-432.5 1017.5,-402.5 862.5,-402.5"/>
<text text-anchor="start" x="870.5" y="-420.5" font-family="Helvetica,sans-Serif" font-size="10.00">/home/alejandro/Desarrollo</text>
<text text-anchor="middle" x="940" y="-409.5" font-family="Helvetica,sans-Serif" font-size="10.00"> eclipse/os1/include/MapPoint.h</text>
</a>
</g>
</g>
<!-- Node24&#45;&gt;Node25 -->
<g id="edge1" class="edge"><title>Node24&#45;&gt;Node25</title>
<path fill="none" stroke="midnightblue" d="M1615.19,-476.861C1471.23,-464.418 1162.36,-437.72 1017.72,-425.217"/>
<polygon fill="midnightblue" stroke="midnightblue" points="1615,-480.357 1625.27,-477.732 1615.6,-473.383 1615,-480.357"/>
</g>
<!-- Node28 -->
<g id="node5" class="node"><title>Node28</title>
<g id="a_node5"><a xlink:href="_tracking_8h.html" target="_top" xlink:title="/home/alejandro/Desarrollo\l eclipse/os1/include/Tracking.h">
<polygon fill="white" stroke="black" points="1722,-201.5 1722,-231.5 1874,-231.5 1874,-201.5 1722,-201.5"/>
<text text-anchor="start" x="1730" y="-219.5" font-family="Helvetica,sans-Serif" font-size="10.00">/home/alejandro/Desarrollo</text>
<text text-anchor="middle" x="1798" y="-208.5" font-family="Helvetica,sans-Serif" font-size="10.00"> eclipse/os1/include/Tracking.h</text>
</a>
</g>
</g>
<!-- Node24&#45;&gt;Node28 -->
<g id="edge65" class="edge"><title>Node24&#45;&gt;Node28</title>
<path fill="none" stroke="midnightblue" d="M1724.31,-464.027C1769.37,-434.748 1849.12,-374.668 1881,-299 1886.35,-286.303 1887.75,-280.01 1881,-268 1871.66,-251.385 1854.39,-239.599 1838.02,-231.615"/>
<polygon fill="midnightblue" stroke="midnightblue" points="1722.34,-461.137 1715.79,-469.467 1726.1,-467.037 1722.34,-461.137"/>
</g>
<!-- Node29 -->
<g id="node6" class="node"><title>Node29</title>
<g id="a_node6"><a xlink:href="_loop_closing_8h.html" target="_top" xlink:title="/home/alejandro/Desarrollo\l eclipse/os1/include/LoopClosing.h">
<polygon fill="white" stroke="black" points="1714,-134.5 1714,-164.5 1882,-164.5 1882,-134.5 1714,-134.5"/>
<text text-anchor="start" x="1722" y="-152.5" font-family="Helvetica,sans-Serif" font-size="10.00">/home/alejandro/Desarrollo</text>
<text text-anchor="middle" x="1798" y="-141.5" font-family="Helvetica,sans-Serif" font-size="10.00"> eclipse/os1/include/LoopClosing.h</text>
</a>
</g>
</g>
<!-- Node24&#45;&gt;Node29 -->
<g id="edge64" class="edge"><title>Node24&#45;&gt;Node29</title>
<path fill="none" stroke="midnightblue" d="M1768.65,-475.62C1891.3,-460.859 2118,-423.798 2118,-351.5 2118,-351.5 2118,-351.5 2118,-282.5 2118,-228.714 1961.55,-185.608 1867.44,-164.544"/>
<polygon fill="midnightblue" stroke="midnightblue" points="1768.08,-472.163 1758.56,-476.812 1768.9,-479.114 1768.08,-472.163"/>
</g>
<!-- Node30 -->
<g id="node7" class="node"><title>Node30</title>
<g id="a_node7"><a xlink:href="_local_mapping_8h.html" target="_top" xlink:title="/home/alejandro/Desarrollo\l eclipse/os1/include/LocalMapping.h">
<polygon fill="white" stroke="black" points="1764,-67.5 1764,-97.5 1938,-97.5 1938,-67.5 1764,-67.5"/>
<text text-anchor="start" x="1772" y="-85.5" font-family="Helvetica,sans-Serif" font-size="10.00">/home/alejandro/Desarrollo</text>
<text text-anchor="middle" x="1851" y="-74.5" font-family="Helvetica,sans-Serif" font-size="10.00"> eclipse/os1/include/LocalMapping.h</text>
</a>
</g>
</g>
<!-- Node24&#45;&gt;Node30 -->
<g id="edge63" class="edge"><title>Node24&#45;&gt;Node30</title>
<path fill="none" stroke="midnightblue" d="M1769.03,-477.487C1859.45,-469.604 2003.35,-454.238 2053,-433 2106.67,-410.043 2156,-409.875 2156,-351.5 2156,-351.5 2156,-351.5 2156,-215.5 2156,-178.203 2163.22,-159.498 2136,-134 2107.9,-107.676 2011.31,-94.7719 1938.3,-88.6536"/>
<polygon fill="midnightblue" stroke="midnightblue" points="1768.49,-474.021 1758.83,-478.365 1769.09,-480.995 1768.49,-474.021"/>
</g>
<!-- Node32 -->
<g id="node9" class="node"><title>Node32</title>
<g id="a_node9"><a xlink:href="_system_8cc.html" target="_top" xlink:title="/home/alejandro/Desarrollo\l eclipse/os1/src/System.cc">
<polygon fill="white" stroke="black" points="1898,-0.5 1898,-30.5 2034,-30.5 2034,-0.5 1898,-0.5"/>
<text text-anchor="start" x="1906" y="-18.5" font-family="Helvetica,sans-Serif" font-size="10.00">/home/alejandro/Desarrollo</text>
<text text-anchor="middle" x="1966" y="-7.5" font-family="Helvetica,sans-Serif" font-size="10.00"> eclipse/os1/src/System.cc</text>
</a>
</g>
</g>
<!-- Node24&#45;&gt;Node32 -->
<g id="edge71" class="edge"><title>Node24&#45;&gt;Node32</title>
<path fill="none" stroke="midnightblue" d="M1768.76,-480.647C1917.84,-473.006 2232,-445.725 2232,-351.5 2232,-351.5 2232,-351.5 2232,-148.5 2232,-60.2137 2112.97,-30.9764 2034.16,-21.2941"/>
<polygon fill="midnightblue" stroke="midnightblue" points="1768.57,-477.152 1758.76,-481.143 1768.92,-484.143 1768.57,-477.152"/>
</g>
<!-- Node33 -->
<g id="node10" class="node"><title>Node33</title>
<g id="a_node10"><a xlink:href="_optimizer_8h.html" target="_top" xlink:title="/home/alejandro/Desarrollo\l eclipse/os1/include/Optimizer.h">
<polygon fill="white" stroke="black" points="688,-67.5 688,-97.5 844,-97.5 844,-67.5 688,-67.5"/>
<text text-anchor="start" x="696" y="-85.5" font-family="Helvetica,sans-Serif" font-size="10.00">/home/alejandro/Desarrollo</text>
<text text-anchor="middle" x="766" y="-74.5" font-family="Helvetica,sans-Serif" font-size="10.00"> eclipse/os1/include/Optimizer.h</text>
</a>
</g>
</g>
<!-- Node24&#45;&gt;Node33 -->
<g id="edge67" class="edge"><title>Node24&#45;&gt;Node33</title>
<path fill="none" stroke="midnightblue" d="M1615.08,-481.444C1289.07,-472.235 38,-431.67 38,-351.5 38,-351.5 38,-351.5 38,-282.5 38,-238.298 59.7395,-227.656 95,-201 167.432,-146.244 199.383,-153.788 288,-134 426.655,-103.038 592.297,-90.9231 687.706,-86.2807"/>
<polygon fill="midnightblue" stroke="midnightblue" points="1615.28,-484.951 1625.37,-481.733 1615.47,-477.954 1615.28,-484.951"/>
</g>
<!-- Node37 -->
<g id="node14" class="node"><title>Node37</title>
<g id="a_node14"><a xlink:href="_tracking_8cc.html" target="_top" xlink:title="/home/alejandro/Desarrollo\l eclipse/os1/src/Tracking.cc">
<polygon fill="white" stroke="black" points="308,-0.5 308,-30.5 448,-30.5 448,-0.5 308,-0.5"/>
<text text-anchor="start" x="316" y="-18.5" font-family="Helvetica,sans-Serif" font-size="10.00">/home/alejandro/Desarrollo</text>
<text text-anchor="middle" x="378" y="-7.5" font-family="Helvetica,sans-Serif" font-size="10.00"> eclipse/os1/src/Tracking.cc</text>
</a>
</g>
</g>
<!-- Node24&#45;&gt;Node37 -->
<g id="edge72" class="edge"><title>Node24&#45;&gt;Node37</title>
<path fill="none" stroke="midnightblue" d="M1614.95,-483.67C1354.3,-483.798 506.951,-480.463 239,-433 128.492,-413.425 0,-463.728 0,-351.5 0,-351.5 0,-351.5 0,-148.5 0,-84.0283 198.472,-43.6824 307.787,-26.3502"/>
<polygon fill="midnightblue" stroke="midnightblue" points="1615.08,-487.17 1625.08,-483.663 1615.08,-480.17 1615.08,-487.17"/>
</g>
<!-- Node38 -->
<g id="node15" class="node"><title>Node38</title>
<g id="a_node15"><a xlink:href="_frame_drawer_8cc.html" target="_top" xlink:title="/home/alejandro/Desarrollo\l eclipse/os1/src/FrameDrawer.cc">
<polygon fill="white" stroke="black" points="1344.5,-134.5 1344.5,-164.5 1505.5,-164.5 1505.5,-134.5 1344.5,-134.5"/>
<text text-anchor="start" x="1352.5" y="-152.5" font-family="Helvetica,sans-Serif" font-size="10.00">/home/alejandro/Desarrollo</text>
<text text-anchor="middle" x="1425" y="-141.5" font-family="Helvetica,sans-Serif" font-size="10.00"> eclipse/os1/src/FrameDrawer.cc</text>
</a>
</g>
</g>
<!-- Node24&#45;&gt;Node38 -->
<g id="edge68" class="edge"><title>Node24&#45;&gt;Node38</title>
<path fill="none" stroke="midnightblue" d="M1692,-458.989C1692,-432.487 1692,-388.997 1692,-351.5 1692,-351.5 1692,-351.5 1692,-282.5 1692,-244.74 1695.77,-226.591 1668,-201 1661.74,-195.233 1570.65,-177.348 1501.82,-164.5"/>
<polygon fill="midnightblue" stroke="midnightblue" points="1688.5,-459.241 1692,-469.241 1695.5,-459.241 1688.5,-459.241"/>
</g>
<!-- Node40 -->
<g id="node17" class="node"><title>Node40</title>
<g id="a_node17"><a xlink:href="_serializer_8cpp.html" target="_top" xlink:title="/home/alejandro/Desarrollo\l eclipse/os1/src/Serializer.cpp">
<polygon fill="white" stroke="black" points="1178,-134.5 1178,-164.5 1326,-164.5 1326,-134.5 1178,-134.5"/>
<text text-anchor="start" x="1186" y="-152.5" font-family="Helvetica,sans-Serif" font-size="10.00">/home/alejandro/Desarrollo</text>
<text text-anchor="middle" x="1252" y="-141.5" font-family="Helvetica,sans-Serif" font-size="10.00"> eclipse/os1/src/Serializer.cpp</text>
</a>
</g>
</g>
<!-- Node24&#45;&gt;Node40 -->
<g id="edge70" class="edge"><title>Node24&#45;&gt;Node40</title>
<path fill="none" stroke="midnightblue" d="M1680.85,-459.859C1669.63,-433.89 1654,-390.658 1654,-351.5 1654,-351.5 1654,-351.5 1654,-282.5 1654,-247.24 1427.88,-190.62 1314.81,-164.514"/>
<polygon fill="midnightblue" stroke="midnightblue" points="1677.76,-461.532 1685.03,-469.238 1684.15,-458.68 1677.76,-461.532"/>
</g>
<!-- Node51 -->
<g id="node28" class="node"><title>Node51</title>
<g id="a_node28"><a xlink:href="_map_drawer_8h.html" target="_top" xlink:title="/home/alejandro/Desarrollo\l eclipse/os1/include/MapDrawer.h">
<polygon fill="white" stroke="black" points="1926,-335.5 1926,-365.5 2090,-365.5 2090,-335.5 1926,-335.5"/>
<text text-anchor="start" x="1934" y="-353.5" font-family="Helvetica,sans-Serif" font-size="10.00">/home/alejandro/Desarrollo</text>
<text text-anchor="middle" x="2008" y="-342.5" font-family="Helvetica,sans-Serif" font-size="10.00"> eclipse/os1/include/MapDrawer.h</text>
</a>
</g>
</g>
<!-- Node24&#45;&gt;Node51 -->
<g id="edge66" class="edge"><title>Node24&#45;&gt;Node51</title>
<path fill="none" stroke="midnightblue" d="M1768.82,-475.04C1812.54,-468.021 1867.31,-455.406 1912,-433 1946.2,-415.852 1978.5,-384.063 1995.52,-365.664"/>
<polygon fill="midnightblue" stroke="midnightblue" points="1768.16,-471.599 1758.81,-476.58 1769.23,-478.518 1768.16,-471.599"/>
</g>
<!-- Node53 -->
<g id="node30" class="node"><title>Node53</title>
<g id="a_node30"><a xlink:href="_map_8cc.html" target="_top" xlink:title="/home/alejandro/Desarrollo\l eclipse/os1/src/Map.cc">
<polygon fill="white" stroke="black" points="1492.5,-335.5 1492.5,-365.5 1625.5,-365.5 1625.5,-335.5 1492.5,-335.5"/>
<text text-anchor="start" x="1500.5" y="-353.5" font-family="Helvetica,sans-Serif" font-size="10.00">/home/alejandro/Desarrollo</text>
<text text-anchor="middle" x="1559" y="-342.5" font-family="Helvetica,sans-Serif" font-size="10.00"> eclipse/os1/src/Map.cc</text>
</a>
</g>
</g>
<!-- Node24&#45;&gt;Node53 -->
<g id="edge69" class="edge"><title>Node24&#45;&gt;Node53</title>
<path fill="none" stroke="midnightblue" d="M1670,-462.301C1660.71,-453.303 1649.79,-442.676 1640,-433 1616.31,-409.58 1589.06,-382.033 1572.97,-365.71"/>
<polygon fill="midnightblue" stroke="midnightblue" points="1667.74,-464.986 1677.36,-469.42 1672.61,-459.953 1667.74,-464.986"/>
</g>
<!-- Node26 -->
<g id="node3" class="node"><title>Node26</title>
<g id="a_node3"><a xlink:href="_frame_8h.html" target="_top" xlink:title="/home/alejandro/Desarrollo\l eclipse/os1/include/Frame.h">
<polygon fill="white" stroke="black" points="720,-335.5 720,-365.5 862,-365.5 862,-335.5 720,-335.5"/>
<text text-anchor="start" x="728" y="-353.5" font-family="Helvetica,sans-Serif" font-size="10.00">/home/alejandro/Desarrollo</text>
<text text-anchor="middle" x="791" y="-342.5" font-family="Helvetica,sans-Serif" font-size="10.00"> eclipse/os1/include/Frame.h</text>
</a>
</g>
</g>
<!-- Node25&#45;&gt;Node26 -->
<g id="edge2" class="edge"><title>Node25&#45;&gt;Node26</title>
<path fill="none" stroke="midnightblue" d="M892.73,-398.544C867.907,-388.143 838.47,-375.238 817.593,-365.577"/>
<polygon fill="midnightblue" stroke="midnightblue" points="891.413,-401.787 901.991,-402.396 894.102,-395.324 891.413,-401.787"/>
</g>
<!-- Node25&#45;&gt;Node33 -->
<g id="edge54" class="edge"><title>Node25&#45;&gt;Node33</title>
<path fill="none" stroke="midnightblue" d="M852.132,-417.047C672.496,-415.789 280,-399.844 280,-284.5 280,-284.5 280,-284.5 280,-215.5 280,-174.123 290.622,-157.026 325,-134 382.625,-95.4034 577.239,-86.1169 687.712,-84.0047"/>
<polygon fill="midnightblue" stroke="midnightblue" points="852.329,-420.548 862.349,-417.104 852.369,-413.548 852.329,-420.548"/>
</g>
<!-- Node25&#45;&gt;Node38 -->
<g id="edge57" class="edge"><title>Node25&#45;&gt;Node38</title>
<path fill="none" stroke="midnightblue" d="M1027.89,-414.287C1101.92,-410.05 1209.58,-398.254 1298,-366 1350.71,-346.771 1374.6,-346.159 1405,-299 1432.49,-256.364 1429.7,-192.519 1426.82,-164.514"/>
<polygon fill="midnightblue" stroke="midnightblue" points="1027.47,-410.804 1017.67,-414.836 1027.85,-417.794 1027.47,-410.804"/>
</g>
<!-- Node25&#45;&gt;Node40 -->
<g id="edge62" class="edge"><title>Node25&#45;&gt;Node40</title>
<path fill="none" stroke="midnightblue" d="M1027.53,-405.499C1143.31,-388.987 1337.91,-353.762 1382,-299 1409.33,-265.058 1409.75,-236.867 1385,-201 1375.57,-187.328 1339.33,-174.083 1307.06,-164.59"/>
<polygon fill="midnightblue" stroke="midnightblue" points="1027.03,-402.036 1017.62,-406.896 1028.01,-408.967 1027.03,-402.036"/>
</g>
<!-- Node42 -->
<g id="node19" class="node"><title>Node42</title>
<g id="a_node19"><a xlink:href="_o_r_bmatcher_8h.html" target="_top" xlink:title="/home/alejandro/Desarrollo\l eclipse/os1/include/ORBmatcher.h">
<polygon fill="white" stroke="black" points="854.5,-268.5 854.5,-298.5 1025.5,-298.5 1025.5,-268.5 854.5,-268.5"/>
<text text-anchor="start" x="862.5" y="-286.5" font-family="Helvetica,sans-Serif" font-size="10.00">/home/alejandro/Desarrollo</text>
<text text-anchor="middle" x="940" y="-275.5" font-family="Helvetica,sans-Serif" font-size="10.00"> eclipse/os1/include/ORBmatcher.h</text>
</a>
</g>
</g>
<!-- Node25&#45;&gt;Node42 -->
<g id="edge55" class="edge"><title>Node25&#45;&gt;Node42</title>
<path fill="none" stroke="midnightblue" d="M940,-392.024C940,-364.512 940,-320.789 940,-298.525"/>
<polygon fill="midnightblue" stroke="midnightblue" points="936.5,-392.374 940,-402.374 943.5,-392.374 936.5,-392.374"/>
</g>
<!-- Node44 -->
<g id="node21" class="node"><title>Node44</title>
<g id="a_node21"><a xlink:href="_key_frame_8cc.html" target="_top" xlink:title="/home/alejandro/Desarrollo\l eclipse/os1/src/KeyFrame.cc">
<polygon fill="white" stroke="black" points="507.5,-201.5 507.5,-231.5 654.5,-231.5 654.5,-201.5 507.5,-201.5"/>
<text text-anchor="start" x="515.5" y="-219.5" font-family="Helvetica,sans-Serif" font-size="10.00">/home/alejandro/Desarrollo</text>
<text text-anchor="middle" x="581" y="-208.5" font-family="Helvetica,sans-Serif" font-size="10.00"> eclipse/os1/src/KeyFrame.cc</text>
</a>
</g>
</g>
<!-- Node25&#45;&gt;Node44 -->
<g id="edge58" class="edge"><title>Node25&#45;&gt;Node44</title>
<path fill="none" stroke="midnightblue" d="M852.302,-404.153C808.787,-396.289 756.035,-384.095 711,-366 657.884,-344.657 634.826,-345.181 601,-299 586.193,-278.784 582.254,-248.943 581.264,-231.536"/>
<polygon fill="midnightblue" stroke="midnightblue" points="851.839,-407.625 862.294,-405.913 853.053,-400.731 851.839,-407.625"/>
</g>
<!-- Node45 -->
<g id="node22" class="node"><title>Node45</title>
<g id="a_node22"><a xlink:href="_map_point_8cc.html" target="_top" xlink:title="/home/alejandro/Desarrollo\l eclipse/os1/src/MapPoint.cc">
<polygon fill="white" stroke="black" points="346.5,-201.5 346.5,-231.5 489.5,-231.5 489.5,-201.5 346.5,-201.5"/>
<text text-anchor="start" x="354.5" y="-219.5" font-family="Helvetica,sans-Serif" font-size="10.00">/home/alejandro/Desarrollo</text>
<text text-anchor="middle" x="418" y="-208.5" font-family="Helvetica,sans-Serif" font-size="10.00"> eclipse/os1/src/MapPoint.cc</text>
</a>
</g>
</g>
<!-- Node25&#45;&gt;Node45 -->
<g id="edge61" class="edge"><title>Node25&#45;&gt;Node45</title>
<path fill="none" stroke="midnightblue" d="M852.101,-412.19C789.407,-406.704 704.137,-394.252 634,-366 550.21,-332.249 466.494,-261.556 433.115,-231.502"/>
<polygon fill="midnightblue" stroke="midnightblue" points="852.1,-415.702 862.356,-413.043 852.68,-408.726 852.1,-415.702"/>
</g>
<!-- Node48 -->
<g id="node25" class="node"><title>Node48</title>
<g id="a_node25"><a xlink:href="_pn_psolver_8h.html" target="_top" xlink:title="/home/alejandro/Desarrollo\l eclipse/os1/include/PnPsolver.h">
<polygon fill="white" stroke="black" points="93.5,-268.5 93.5,-298.5 252.5,-298.5 252.5,-268.5 93.5,-268.5"/>
<text text-anchor="start" x="101.5" y="-286.5" font-family="Helvetica,sans-Serif" font-size="10.00">/home/alejandro/Desarrollo</text>
<text text-anchor="middle" x="173" y="-275.5" font-family="Helvetica,sans-Serif" font-size="10.00"> eclipse/os1/include/PnPsolver.h</text>
</a>
</g>
</g>
<!-- Node25&#45;&gt;Node48 -->
<g id="edge56" class="edge"><title>Node25&#45;&gt;Node48</title>
<path fill="none" stroke="midnightblue" d="M852.136,-416.772C694.265,-416.137 369.434,-409.389 266,-366 230.959,-351.301 199.915,-317.967 184.092,-298.794"/>
<polygon fill="midnightblue" stroke="midnightblue" points="852.278,-420.272 862.29,-416.805 852.301,-413.272 852.278,-420.272"/>
</g>
<!-- Node25&#45;&gt;Node51 -->
<g id="edge49" class="edge"><title>Node25&#45;&gt;Node51</title>
<path fill="none" stroke="midnightblue" d="M1027.67,-411.164C1230.31,-398.831 1728.8,-368.493 1925.89,-356.497"/>
<polygon fill="midnightblue" stroke="midnightblue" points="1027.44,-407.672 1017.67,-411.773 1027.86,-414.659 1027.44,-407.672"/>
</g>
<!-- Node52 -->
<g id="node29" class="node"><title>Node52</title>
<g id="a_node29"><a xlink:href="_map_drawer_8cc.html" target="_top" xlink:title="/home/alejandro/Desarrollo\l eclipse/os1/src/MapDrawer.cc">
<polygon fill="white" stroke="black" points="1720,-268.5 1720,-298.5 1872,-298.5 1872,-268.5 1720,-268.5"/>
<text text-anchor="start" x="1728" y="-286.5" font-family="Helvetica,sans-Serif" font-size="10.00">/home/alejandro/Desarrollo</text>
<text text-anchor="middle" x="1796" y="-275.5" font-family="Helvetica,sans-Serif" font-size="10.00"> eclipse/os1/src/MapDrawer.cc</text>
</a>
</g>
</g>
<!-- Node25&#45;&gt;Node52 -->
<g id="edge60" class="edge"><title>Node25&#45;&gt;Node52</title>
<path fill="none" stroke="midnightblue" d="M1027.74,-413.104C1150.53,-407.423 1366.81,-393.772 1440,-366 1462.03,-357.642 1461.23,-344.007 1483,-335 1559.8,-303.224 1654.9,-291.364 1719.99,-286.981"/>
<polygon fill="midnightblue" stroke="midnightblue" points="1027.44,-409.614 1017.61,-413.564 1027.76,-416.607 1027.44,-409.614"/>
</g>
<!-- Node25&#45;&gt;Node53 -->
<g id="edge59" class="edge"><title>Node25&#45;&gt;Node53</title>
<path fill="none" stroke="midnightblue" d="M1027.82,-410.521C1134.55,-402.733 1319.96,-387.524 1478,-366 1482.67,-365.364 1487.48,-364.651 1492.32,-363.891"/>
<polygon fill="midnightblue" stroke="midnightblue" points="1027.46,-407.037 1017.74,-411.251 1027.97,-414.019 1027.46,-407.037"/>
</g>
<!-- Node26&#45;&gt;Node25 -->
<g id="edge3" class="edge"><title>Node26&#45;&gt;Node25</title>
<path fill="none" stroke="midnightblue" d="M838.199,-369.426C863.013,-379.823 892.454,-392.728 913.348,-402.396"/>
<polygon fill="midnightblue" stroke="midnightblue" points="839.52,-366.185 828.942,-365.577 836.832,-372.648 839.52,-366.185"/>
</g>
<!-- Node27 -->
<g id="node4" class="node"><title>Node27</title>
<g id="a_node4"><a xlink:href="_initializer_8h.html" target="_top" xlink:title="/home/alejandro/Desarrollo\l eclipse/os1/include/Initializer.h">
<polygon fill="white" stroke="black" points="1220.5,-268.5 1220.5,-298.5 1373.5,-298.5 1373.5,-268.5 1220.5,-268.5"/>
<text text-anchor="start" x="1228.5" y="-286.5" font-family="Helvetica,sans-Serif" font-size="10.00">/home/alejandro/Desarrollo</text>
<text text-anchor="middle" x="1297" y="-275.5" font-family="Helvetica,sans-Serif" font-size="10.00"> eclipse/os1/include/Initializer.h</text>
</a>
</g>
</g>
<!-- Node26&#45;&gt;Node27 -->
<g id="edge4" class="edge"><title>Node26&#45;&gt;Node27</title>
<path fill="none" stroke="midnightblue" d="M872.103,-339.082C968.049,-326.757 1126.57,-306.393 1220.47,-294.33"/>
<polygon fill="midnightblue" stroke="midnightblue" points="871.629,-335.614 862.157,-340.359 872.521,-342.557 871.629,-335.614"/>
</g>
<!-- Node26&#45;&gt;Node28 -->
<g id="edge31" class="edge"><title>Node26&#45;&gt;Node28</title>
<path fill="none" stroke="midnightblue" d="M872.303,-345.344C986.531,-338.871 1200.84,-324.409 1382,-299 1509.36,-281.136 1656.69,-249.684 1737.37,-231.519"/>
<polygon fill="midnightblue" stroke="midnightblue" points="872.026,-341.854 862.237,-345.908 872.418,-348.843 872.026,-341.854"/>
</g>
<!-- Node26&#45;&gt;Node33 -->
<g id="edge32" class="edge"><title>Node26&#45;&gt;Node33</title>
<path fill="none" stroke="midnightblue" d="M709.92,-340.334C592.003,-325.145 382.28,-290.49 337,-232 243.04,-110.627 540.313,-87.9798 687.942,-84.0908"/>
<polygon fill="midnightblue" stroke="midnightblue" points="709.629,-343.825 719.99,-341.612 710.51,-336.881 709.629,-343.825"/>
</g>
<!-- Node26&#45;&gt;Node42 -->
<g id="edge33" class="edge"><title>Node26&#45;&gt;Node42</title>
<path fill="none" stroke="midnightblue" d="M832.792,-331.269C856.524,-320.916 885.78,-308.153 907.732,-298.577"/>
<polygon fill="midnightblue" stroke="midnightblue" points="831.097,-328.189 823.331,-335.396 833.896,-334.605 831.097,-328.189"/>
</g>
<!-- Node43 -->
<g id="node20" class="node"><title>Node43</title>
<g id="a_node20"><a xlink:href="_frame_8cc.html" target="_top" xlink:title="/home/alejandro/Desarrollo\l eclipse/os1/src/Frame.cc">
<polygon fill="white" stroke="black" points="672.5,-201.5 672.5,-231.5 805.5,-231.5 805.5,-201.5 672.5,-201.5"/>
<text text-anchor="start" x="680.5" y="-219.5" font-family="Helvetica,sans-Serif" font-size="10.00">/home/alejandro/Desarrollo</text>
<text text-anchor="middle" x="739" y="-208.5" font-family="Helvetica,sans-Serif" font-size="10.00"> eclipse/os1/src/Frame.cc</text>
</a>
</g>
</g>
<!-- Node26&#45;&gt;Node43 -->
<g id="edge46" class="edge"><title>Node26&#45;&gt;Node43</title>
<path fill="none" stroke="midnightblue" d="M709.641,-341.759C682.389,-334.829 654.713,-322.116 638,-299 629.928,-287.835 630.757,-279.72 638,-268 648.667,-250.74 667.218,-239.182 685.534,-231.536"/>
<polygon fill="midnightblue" stroke="midnightblue" points="709.111,-345.228 719.642,-344.059 710.681,-338.406 709.111,-345.228"/>
</g>
<!-- Node26&#45;&gt;Node44 -->
<g id="edge47" class="edge"><title>Node26&#45;&gt;Node44</title>
<path fill="none" stroke="midnightblue" d="M710.09,-336.628C682.232,-329.16 652.231,-317.419 629,-299 606.611,-281.249 592.482,-249.977 585.728,-231.765"/>
<polygon fill="midnightblue" stroke="midnightblue" points="709.287,-340.035 719.84,-339.095 711.004,-333.249 709.287,-340.035"/>
</g>
<!-- Node26&#45;&gt;Node48 -->
<g id="edge43" class="edge"><title>Node26&#45;&gt;Node48</title>
<path fill="none" stroke="midnightblue" d="M709.669,-340.946C590.729,-328.436 370.698,-305.293 252.694,-292.882"/>
<polygon fill="midnightblue" stroke="midnightblue" points="709.495,-344.447 719.806,-342.012 710.227,-337.485 709.495,-344.447"/>
</g>
<!-- Node50 -->
<g id="node27" class="node"><title>Node50</title>
<g id="a_node27"><a xlink:href="_key_frame_database_8cc.html" target="_top" xlink:title="/home/alejandro/Desarrollo\l eclipse/os1/src/KeyFrameDatabase.cc">
<polygon fill="white" stroke="black" points="647.5,-268.5 647.5,-298.5 836.5,-298.5 836.5,-268.5 647.5,-268.5"/>
<text text-anchor="start" x="655.5" y="-286.5" font-family="Helvetica,sans-Serif" font-size="10.00">/home/alejandro/Desarrollo</text>
<text text-anchor="middle" x="742" y="-275.5" font-family="Helvetica,sans-Serif" font-size="10.00"> eclipse/os1/src/KeyFrameDatabase.cc</text>
</a>
</g>
</g>
<!-- Node26&#45;&gt;Node50 -->
<g id="edge48" class="edge"><title>Node26&#45;&gt;Node50</title>
<path fill="none" stroke="midnightblue" d="M774.157,-327.157C767.012,-317.679 758.9,-306.919 752.612,-298.577"/>
<polygon fill="midnightblue" stroke="midnightblue" points="771.553,-329.518 780.368,-335.396 777.143,-325.304 771.553,-329.518"/>
</g>
<!-- Node27&#45;&gt;Node28 -->
<g id="edge5" class="edge"><title>Node27&#45;&gt;Node28</title>
<path fill="none" stroke="midnightblue" d="M1383.83,-271.234C1479.2,-258.861 1630.86,-239.185 1721.78,-227.388"/>
<polygon fill="midnightblue" stroke="midnightblue" points="1383.1,-267.8 1373.64,-272.557 1384,-274.741 1383.1,-267.8"/>
</g>
<!-- Node34 -->
<g id="node11" class="node"><title>Node34</title>
<g id="a_node11"><a xlink:href="_initializer_8cc.html" target="_top" xlink:title="/home/alejandro/Desarrollo\l eclipse/os1/src/Initializer.cc">
<polygon fill="white" stroke="black" points="801.5,-0.5 801.5,-30.5 942.5,-30.5 942.5,-0.5 801.5,-0.5"/>
<text text-anchor="start" x="809.5" y="-18.5" font-family="Helvetica,sans-Serif" font-size="10.00">/home/alejandro/Desarrollo</text>
<text text-anchor="middle" x="872" y="-7.5" font-family="Helvetica,sans-Serif" font-size="10.00"> eclipse/os1/src/Initializer.cc</text>
</a>
</g>
</g>
<!-- Node27&#45;&gt;Node34 -->
<g id="edge29" class="edge"><title>Node27&#45;&gt;Node34</title>
<path fill="none" stroke="midnightblue" d="M1309.16,-258.616C1316.26,-240.956 1321.6,-217.251 1309,-201 1269.63,-150.228 1229.18,-187.492 1169,-165 1063.16,-125.443 945.291,-59.4095 895.855,-30.6294"/>
<polygon fill="midnightblue" stroke="midnightblue" points="1305.76,-257.653 1304.9,-268.213 1312.15,-260.495 1305.76,-257.653"/>
</g>
<!-- Node27&#45;&gt;Node37 -->
<g id="edge30" class="edge"><title>Node27&#45;&gt;Node37</title>
<path fill="none" stroke="midnightblue" d="M1297.44,-258.358C1296.4,-239.955 1291.8,-215.399 1276,-201 1262.69,-188.87 653.277,-103.073 636,-98 602.963,-88.2986 597.487,-78.4086 565,-67 523.594,-52.4595 475.809,-39.6205 438.908,-30.5268"/>
<polygon fill="midnightblue" stroke="midnightblue" points="1293.94,-258.453 1297.7,-268.359 1300.94,-258.271 1293.94,-258.453"/>
</g>
<!-- Node28&#45;&gt;Node29 -->
<g id="edge6" class="edge"><title>Node28&#45;&gt;Node29</title>
<path fill="none" stroke="midnightblue" d="M1791.45,-191.403C1791.01,-182.37 1791.3,-172.408 1792.33,-164.577"/>
<polygon fill="midnightblue" stroke="midnightblue" points="1787.97,-191.736 1792.32,-201.396 1794.94,-191.131 1787.97,-191.736"/>
</g>
<!-- Node28&#45;&gt;Node30 -->
<g id="edge22" class="edge"><title>Node28&#45;&gt;Node30</title>
<path fill="none" stroke="midnightblue" d="M1845.99,-196.904C1859.98,-189.343 1873.68,-178.989 1882,-165 1895.54,-142.243 1874.08,-114.255 1860.27,-97.7031"/>
<polygon fill="midnightblue" stroke="midnightblue" points="1844.2,-193.885 1836.81,-201.479 1847.32,-200.15 1844.2,-193.885"/>
</g>
<!-- Node28&#45;&gt;Node32 -->
<g id="edge26" class="edge"><title>Node28&#45;&gt;Node32</title>
<path fill="none" stroke="midnightblue" d="M1863.55,-197.774C1882.58,-190.134 1902.19,-179.517 1917,-165 1955.19,-127.556 1963.62,-59.802 1965.48,-30.5607"/>
<polygon fill="midnightblue" stroke="midnightblue" points="1862.09,-194.582 1853.98,-201.396 1864.57,-201.129 1862.09,-194.582"/>
</g>
<!-- Node28&#45;&gt;Node37 -->
<g id="edge27" class="edge"><title>Node28&#45;&gt;Node37</title>
<path fill="none" stroke="midnightblue" d="M1711.54,-199.715C1647,-187.588 1567.54,-171.8 1553,-165 1532.94,-155.62 1534.74,-141.745 1514,-134 1340,-69.0343 854.473,-158.862 679,-98 656.741,-90.2796 657.617,-76.3687 636,-67 575.591,-40.8189 501.344,-28.1086 448.033,-22.0008"/>
<polygon fill="midnightblue" stroke="midnightblue" points="1711.29,-203.228 1721.76,-201.628 1712.57,-196.348 1711.29,-203.228"/>
</g>
<!-- Node28&#45;&gt;Node38 -->
<g id="edge23" class="edge"><title>Node28&#45;&gt;Node38</title>
<path fill="none" stroke="midnightblue" d="M1711.44,-200.416C1649.31,-189.589 1566.17,-175.101 1505.47,-164.523"/>
<polygon fill="midnightblue" stroke="midnightblue" points="1711.17,-203.921 1721.62,-202.189 1712.37,-197.025 1711.17,-203.921"/>
</g>
<!-- Node39 -->
<g id="node16" class="node"><title>Node39</title>
<g id="a_node16"><a xlink:href="main_8cc.html" target="_top" xlink:title="/home/alejandro/Desarrollo\l eclipse/os1/src/main.cc">
<polygon fill="white" stroke="black" points="1562.5,-134.5 1562.5,-164.5 1695.5,-164.5 1695.5,-134.5 1562.5,-134.5"/>
<text text-anchor="start" x="1570.5" y="-152.5" font-family="Helvetica,sans-Serif" font-size="10.00">/home/alejandro/Desarrollo</text>
<text text-anchor="middle" x="1629" y="-141.5" font-family="Helvetica,sans-Serif" font-size="10.00"> eclipse/os1/src/main.cc</text>
</a>
</g>
</g>
<!-- Node28&#45;&gt;Node39 -->
<g id="edge24" class="edge"><title>Node28&#45;&gt;Node39</title>
<path fill="none" stroke="midnightblue" d="M1751.67,-197.682C1724.57,-187.257 1690.83,-174.281 1665.6,-164.577"/>
<polygon fill="midnightblue" stroke="midnightblue" points="1750.74,-201.073 1761.33,-201.396 1753.25,-194.539 1750.74,-201.073"/>
</g>
<!-- Node28&#45;&gt;Node40 -->
<g id="edge25" class="edge"><title>Node28&#45;&gt;Node40</title>
<path fill="none" stroke="midnightblue" d="M1711.69,-205.831C1697.11,-204.21 1682.12,-202.551 1668,-201 1520.03,-184.749 1482.4,-185.82 1335,-165 1332.1,-164.591 1329.15,-164.157 1326.17,-163.705"/>
<polygon fill="midnightblue" stroke="midnightblue" points="1711.38,-209.318 1721.7,-206.946 1712.15,-202.361 1711.38,-209.318"/>
</g>
<!-- Node41 -->
<g id="node18" class="node"><title>Node41</title>
<g id="a_node18"><a xlink:href="_viewer_8cc.html" target="_top" xlink:title="/home/alejandro/Desarrollo\l eclipse/os1/src/Viewer.cc">
<polygon fill="white" stroke="black" points="1994.5,-134.5 1994.5,-164.5 2127.5,-164.5 2127.5,-134.5 1994.5,-134.5"/>
<text text-anchor="start" x="2002.5" y="-152.5" font-family="Helvetica,sans-Serif" font-size="10.00">/home/alejandro/Desarrollo</text>
<text text-anchor="middle" x="2061" y="-141.5" font-family="Helvetica,sans-Serif" font-size="10.00"> eclipse/os1/src/Viewer.cc</text>
</a>
</g>
</g>
<!-- Node28&#45;&gt;Node41 -->
<g id="edge28" class="edge"><title>Node28&#45;&gt;Node41</title>
<path fill="none" stroke="midnightblue" d="M1864.55,-199.052C1907.55,-188.425 1962.92,-174.741 2003.91,-164.611"/>
<polygon fill="midnightblue" stroke="midnightblue" points="1863.61,-195.679 1854.74,-201.476 1865.29,-202.474 1863.61,-195.679"/>
</g>
<!-- Node29&#45;&gt;Node28 -->
<g id="edge12" class="edge"><title>Node29&#45;&gt;Node28</title>
<path fill="none" stroke="midnightblue" d="M1804.54,-174.565C1804.99,-183.596 1804.71,-193.56 1803.68,-201.396"/>
<polygon fill="midnightblue" stroke="midnightblue" points="1808.03,-174.236 1803.67,-164.577 1801.05,-174.842 1808.03,-174.236"/>
</g>
<!-- Node29&#45;&gt;Node30 -->
<g id="edge7" class="edge"><title>Node29&#45;&gt;Node30</title>
<path fill="none" stroke="midnightblue" d="M1809.77,-126.157C1816.92,-116.679 1825.95,-105.919 1833.85,-97.5765"/>
<polygon fill="midnightblue" stroke="midnightblue" points="1806.84,-124.239 1803.82,-134.396 1812.51,-128.337 1806.84,-124.239"/>
</g>
<!-- Node31 -->
<g id="node8" class="node"><title>Node31</title>
<g id="a_node8"><a xlink:href="_local_mapping_8cc.html" target="_top" xlink:title="/home/alejandro/Desarrollo\l eclipse/os1/src/LocalMapping.cc">
<polygon fill="white" stroke="black" points="1152,-0.5 1152,-30.5 1314,-30.5 1314,-0.5 1152,-0.5"/>
<text text-anchor="start" x="1160" y="-18.5" font-family="Helvetica,sans-Serif" font-size="10.00">/home/alejandro/Desarrollo</text>
<text text-anchor="middle" x="1233" y="-7.5" font-family="Helvetica,sans-Serif" font-size="10.00"> eclipse/os1/src/LocalMapping.cc</text>
</a>
</g>
</g>
<!-- Node29&#45;&gt;Node31 -->
<g id="edge19" class="edge"><title>Node29&#45;&gt;Node31</title>
<path fill="none" stroke="midnightblue" d="M1728.23,-132.201C1616.34,-106.059 1398.64,-55.1992 1293.17,-30.5565"/>
<polygon fill="midnightblue" stroke="midnightblue" points="1727.54,-135.632 1738.07,-134.499 1729.13,-128.815 1727.54,-135.632"/>
</g>
<!-- Node29&#45;&gt;Node32 -->
<g id="edge21" class="edge"><title>Node29&#45;&gt;Node32</title>
<path fill="none" stroke="midnightblue" d="M1773.47,-126.946C1756.87,-109.734 1740.39,-85.5161 1755,-67 1772.64,-44.6362 1843.09,-31.0704 1897.79,-23.713"/>
<polygon fill="midnightblue" stroke="midnightblue" points="1771.41,-129.82 1781,-134.316 1776.3,-124.819 1771.41,-129.82"/>
</g>
<!-- Node29&#45;&gt;Node33 -->
<g id="edge13" class="edge"><title>Node29&#45;&gt;Node33</title>
<path fill="none" stroke="midnightblue" d="M1703.64,-134.067C1519.59,-115.965 1034.49,-94.6711 844.116,-86.704"/>
<polygon fill="midnightblue" stroke="midnightblue" points="1703.45,-137.566 1713.75,-135.091 1704.16,-130.602 1703.45,-137.566"/>
</g>
<!-- Node35 -->
<g id="node12" class="node"><title>Node35</title>
<g id="a_node12"><a xlink:href="_loop_closing_8cc.html" target="_top" xlink:title="/home/alejandro/Desarrollo\l eclipse/os1/src/LoopClosing.cc">
<polygon fill="white" stroke="black" points="961,-0.5 961,-30.5 1117,-30.5 1117,-0.5 961,-0.5"/>
<text text-anchor="start" x="969" y="-18.5" font-family="Helvetica,sans-Serif" font-size="10.00">/home/alejandro/Desarrollo</text>
<text text-anchor="middle" x="1039" y="-7.5" font-family="Helvetica,sans-Serif" font-size="10.00"> eclipse/os1/src/LoopClosing.cc</text>
</a>
</g>
</g>
<!-- Node29&#45;&gt;Node35 -->
<g id="edge20" class="edge"><title>Node29&#45;&gt;Node35</title>
<path fill="none" stroke="midnightblue" d="M1704.31,-134.046C1704.2,-134.031 1704.1,-134.015 1704,-134 1596.05,-117.678 1568.62,-116.356 1461,-98 1335.59,-76.6104 1190.04,-47.5609 1106.81,-30.5427"/>
<polygon fill="midnightblue" stroke="midnightblue" points="1703.54,-137.471 1713.96,-135.51 1704.59,-130.55 1703.54,-137.471"/>
</g>
<!-- Node30&#45;&gt;Node28 -->
<g id="edge9" class="edge"><title>Node30&#45;&gt;Node28</title>
<path fill="none" stroke="midnightblue" d="M1880.76,-104.864C1897.16,-121.597 1911.74,-145.265 1900,-165 1889.86,-182.053 1871.72,-193.705 1853.46,-201.479"/>
<polygon fill="midnightblue" stroke="midnightblue" points="1882.86,-102.029 1873.19,-97.7031 1878.05,-107.116 1882.86,-102.029"/>
</g>
<!-- Node30&#45;&gt;Node29 -->
<g id="edge8" class="edge"><title>Node30&#45;&gt;Node29</title>
<path fill="none" stroke="midnightblue" d="M1839.25,-105.811C1832.11,-115.287 1823.08,-126.049 1815.18,-134.396"/>
<polygon fill="midnightblue" stroke="midnightblue" points="1842.18,-107.734 1845.2,-97.5765 1836.51,-103.637 1842.18,-107.734"/>
</g>
<!-- Node30&#45;&gt;Node31 -->
<g id="edge10" class="edge"><title>Node30&#45;&gt;Node31</title>
<path fill="none" stroke="midnightblue" d="M1753.75,-71.2713C1632.56,-58.525 1427.65,-36.9733 1314.38,-25.0591"/>
<polygon fill="midnightblue" stroke="midnightblue" points="1753.46,-74.7597 1763.77,-72.3249 1754.19,-67.798 1753.46,-74.7597"/>
</g>
<!-- Node30&#45;&gt;Node32 -->
<g id="edge11" class="edge"><title>Node30&#45;&gt;Node32</title>
<path fill="none" stroke="midnightblue" d="M1884.98,-62.2956C1902.97,-52.1248 1924.68,-39.8549 1941.1,-30.5765"/>
<polygon fill="midnightblue" stroke="midnightblue" points="1882.94,-59.4284 1875.95,-67.396 1886.38,-65.5223 1882.94,-59.4284"/>
</g>
<!-- Node33&#45;&gt;Node31 -->
<g id="edge15" class="edge"><title>Node33&#45;&gt;Node31</title>
<path fill="none" stroke="midnightblue" d="M854.126,-69.2341C939.743,-57.3174 1068.66,-39.3734 1151.83,-27.7973"/>
<polygon fill="midnightblue" stroke="midnightblue" points="853.587,-65.7752 844.165,-70.6205 854.552,-72.7084 853.587,-65.7752"/>
</g>
<!-- Node33&#45;&gt;Node34 -->
<g id="edge14" class="edge"><title>Node33&#45;&gt;Node34</title>
<path fill="none" stroke="midnightblue" d="M797.775,-62.0151C814.271,-51.8999 834.052,-39.7698 849.044,-30.5765"/>
<polygon fill="midnightblue" stroke="midnightblue" points="795.696,-59.1847 789,-67.396 799.355,-65.1521 795.696,-59.1847"/>
</g>
<!-- Node33&#45;&gt;Node35 -->
<g id="edge16" class="edge"><title>Node33&#45;&gt;Node35</title>
<path fill="none" stroke="midnightblue" d="M834.802,-65.1186C879.473,-54.4827 937.096,-40.7628 979.734,-30.6109"/>
<polygon fill="midnightblue" stroke="midnightblue" points="833.818,-61.7549 824.901,-67.476 835.44,-68.5645 833.818,-61.7549"/>
</g>
<!-- Node36 -->
<g id="node13" class="node"><title>Node36</title>
<g id="a_node13"><a xlink:href="_optimizer_8cc.html" target="_top" xlink:title="/home/alejandro/Desarrollo\l eclipse/os1/src/Optimizer.cc">
<polygon fill="white" stroke="black" points="639,-0.5 639,-30.5 783,-30.5 783,-0.5 639,-0.5"/>
<text text-anchor="start" x="647" y="-18.5" font-family="Helvetica,sans-Serif" font-size="10.00">/home/alejandro/Desarrollo</text>
<text text-anchor="middle" x="711" y="-7.5" font-family="Helvetica,sans-Serif" font-size="10.00"> eclipse/os1/src/Optimizer.cc</text>
</a>
</g>
</g>
<!-- Node33&#45;&gt;Node36 -->
<g id="edge17" class="edge"><title>Node33&#45;&gt;Node36</title>
<path fill="none" stroke="midnightblue" d="M747.584,-59.7362C739.447,-50.119 730.114,-39.0888 722.911,-30.5765"/>
<polygon fill="midnightblue" stroke="midnightblue" points="744.935,-62.0229 754.066,-67.396 750.278,-57.5013 744.935,-62.0229"/>
</g>
<!-- Node33&#45;&gt;Node37 -->
<g id="edge18" class="edge"><title>Node33&#45;&gt;Node37</title>
<path fill="none" stroke="midnightblue" d="M677.881,-66.7377C608.303,-55.0817 512.532,-39.0375 448.105,-28.2444"/>
<polygon fill="midnightblue" stroke="midnightblue" points="677.508,-70.2241 687.949,-68.4245 678.665,-63.3203 677.508,-70.2241"/>
</g>
<!-- Node42&#45;&gt;Node31 -->
<g id="edge37" class="edge"><title>Node42&#45;&gt;Node31</title>
<path fill="none" stroke="midnightblue" d="M1035.59,-281.529C1123.76,-278.363 1245.47,-267.458 1276,-232 1329.51,-169.842 1208.16,-219.491 1169,-165 1137.22,-120.773 1190.36,-58.2969 1217.96,-30.6293"/>
<polygon fill="midnightblue" stroke="midnightblue" points="1035.43,-278.032 1025.55,-281.862 1035.66,-285.028 1035.43,-278.032"/>
</g>
<!-- Node42&#45;&gt;Node34 -->
<g id="edge35" class="edge"><title>Node42&#45;&gt;Node34</title>
<path fill="none" stroke="midnightblue" d="M916.113,-260.965C908.417,-252.688 900.677,-242.65 896,-232 865.045,-161.515 868.23,-66.1245 870.765,-30.5974"/>
<polygon fill="midnightblue" stroke="midnightblue" points="913.86,-263.666 923.375,-268.325 918.842,-258.749 913.86,-263.666"/>
</g>
<!-- Node42&#45;&gt;Node35 -->
<g id="edge38" class="edge"><title>Node42&#45;&gt;Node35</title>
<path fill="none" stroke="midnightblue" d="M931.317,-258.57C926.609,-242.154 922.727,-219.991 928,-201 947.6,-130.403 1002.25,-59.757 1026.8,-30.5199"/>
<polygon fill="midnightblue" stroke="midnightblue" points="928.086,-259.96 934.442,-268.437 934.759,-257.847 928.086,-259.96"/>
</g>
<!-- Node42&#45;&gt;Node37 -->
<g id="edge42" class="edge"><title>Node42&#45;&gt;Node37</title>
<path fill="none" stroke="midnightblue" d="M912.31,-262.587C887.331,-245.116 849.213,-219.657 814,-201 673.101,-126.347 495.366,-58.8854 417.54,-30.5874"/>
<polygon fill="midnightblue" stroke="midnightblue" points="910.381,-265.51 920.571,-268.41 914.414,-259.788 910.381,-265.51"/>
</g>
<!-- Node42&#45;&gt;Node43 -->
<g id="edge34" class="edge"><title>Node42&#45;&gt;Node43</title>
<path fill="none" stroke="midnightblue" d="M886.589,-265.228C854.074,-254.713 813.063,-241.451 782.529,-231.577"/>
<polygon fill="midnightblue" stroke="midnightblue" points="885.794,-268.649 896.386,-268.396 887.948,-261.989 885.794,-268.649"/>
</g>
<!-- Node42&#45;&gt;Node44 -->
<g id="edge36" class="edge"><title>Node42&#45;&gt;Node44</title>
<path fill="none" stroke="midnightblue" d="M852.601,-266.676C791.948,-255.694 712.052,-241.228 654.638,-230.833"/>
<polygon fill="midnightblue" stroke="midnightblue" points="852.081,-270.138 862.544,-268.476 853.328,-263.25 852.081,-270.138"/>
</g>
<!-- Node42&#45;&gt;Node45 -->
<g id="edge39" class="edge"><title>Node42&#45;&gt;Node45</title>
<path fill="none" stroke="midnightblue" d="M843.977,-267.916C689.448,-248.523 648.206,-253.373 498,-232 495.345,-231.622 492.643,-231.221 489.916,-230.801"/>
<polygon fill="midnightblue" stroke="midnightblue" points="843.961,-271.442 854.322,-269.229 844.842,-264.498 843.961,-271.442"/>
</g>
<!-- Node46 -->
<g id="node23" class="node"><title>Node46</title>
<g id="a_node23"><a xlink:href="_o_r_bmatcher_8cc.html" target="_top" xlink:title="/home/alejandro/Desarrollo\l eclipse/os1/src/ORBmatcher.cc">
<polygon fill="white" stroke="black" points="937.5,-201.5 937.5,-231.5 1096.5,-231.5 1096.5,-201.5 937.5,-201.5"/>
<text text-anchor="start" x="945.5" y="-219.5" font-family="Helvetica,sans-Serif" font-size="10.00">/home/alejandro/Desarrollo</text>
<text text-anchor="middle" x="1017" y="-208.5" font-family="Helvetica,sans-Serif" font-size="10.00"> eclipse/os1/src/ORBmatcher.cc</text>
</a>
</g>
</g>
<!-- Node42&#45;&gt;Node46 -->
<g id="edge40" class="edge"><title>Node42&#45;&gt;Node46</title>
<path fill="none" stroke="midnightblue" d="M964.423,-261.883C976.124,-252.005 989.838,-240.429 1000.32,-231.577"/>
<polygon fill="midnightblue" stroke="midnightblue" points="962.092,-259.271 956.708,-268.396 966.607,-264.62 962.092,-259.271"/>
</g>
<!-- Node47 -->
<g id="node24" class="node"><title>Node47</title>
<g id="a_node24"><a xlink:href="_sim3_solver_8cc.html" target="_top" xlink:title="/home/alejandro/Desarrollo\l eclipse/os1/src/Sim3Solver.cc">
<polygon fill="white" stroke="black" points="1115,-201.5 1115,-231.5 1267,-231.5 1267,-201.5 1115,-201.5"/>
<text text-anchor="start" x="1123" y="-219.5" font-family="Helvetica,sans-Serif" font-size="10.00">/home/alejandro/Desarrollo</text>
<text text-anchor="middle" x="1191" y="-208.5" font-family="Helvetica,sans-Serif" font-size="10.00"> eclipse/os1/src/Sim3Solver.cc</text>
</a>
</g>
</g>
<!-- Node42&#45;&gt;Node47 -->
<g id="edge41" class="edge"><title>Node42&#45;&gt;Node47</title>
<path fill="none" stroke="midnightblue" d="M1004.04,-265.917C1045,-255.31 1097.56,-241.699 1136.51,-231.611"/>
<polygon fill="midnightblue" stroke="midnightblue" points="1002.96,-262.581 994.154,-268.476 1004.71,-269.357 1002.96,-262.581"/>
</g>
<!-- Node48&#45;&gt;Node37 -->
<g id="edge45" class="edge"><title>Node48&#45;&gt;Node37</title>
<path fill="none" stroke="midnightblue" d="M127.633,-263.492C114.752,-255.724 102.264,-245.357 95,-232 88.4174,-219.896 90.8186,-214.128 95,-201 117.156,-131.439 130.09,-108.717 190,-67 224.668,-42.8598 270.303,-30.2538 307.93,-23.6737"/>
<polygon fill="midnightblue" stroke="midnightblue" points="126.114,-266.652 136.553,-268.459 129.519,-260.536 126.114,-266.652"/>
</g>
<!-- Node49 -->
<g id="node26" class="node"><title>Node49</title>
<g id="a_node26"><a xlink:href="_pn_psolver_8cc.html" target="_top" xlink:title="/home/alejandro/Desarrollo\l eclipse/os1/src/PnPsolver.cc">
<polygon fill="white" stroke="black" points="104.5,-201.5 104.5,-231.5 251.5,-231.5 251.5,-201.5 104.5,-201.5"/>
<text text-anchor="start" x="112.5" y="-219.5" font-family="Helvetica,sans-Serif" font-size="10.00">/home/alejandro/Desarrollo</text>
<text text-anchor="middle" x="178" y="-208.5" font-family="Helvetica,sans-Serif" font-size="10.00"> eclipse/os1/src/PnPsolver.cc</text>
</a>
</g>
</g>
<!-- Node48&#45;&gt;Node49 -->
<g id="edge44" class="edge"><title>Node48&#45;&gt;Node49</title>
<path fill="none" stroke="midnightblue" d="M174.854,-258.403C175.548,-249.37 176.315,-239.408 176.917,-231.577"/>
<polygon fill="midnightblue" stroke="midnightblue" points="171.362,-258.157 174.085,-268.396 178.342,-258.694 171.362,-258.157"/>
</g>
<!-- Node51&#45;&gt;Node28 -->
<g id="edge50" class="edge"><title>Node51&#45;&gt;Node28</title>
<path fill="none" stroke="midnightblue" d="M1987.28,-328.216C1969.15,-310.455 1941.5,-285.335 1914,-268 1890.22,-253.008 1861.22,-240.383 1838.16,-231.506"/>
<polygon fill="midnightblue" stroke="midnightblue" points="1984.87,-330.762 1994.43,-335.333 1989.81,-325.799 1984.87,-330.762"/>
</g>
<!-- Node51&#45;&gt;Node32 -->
<g id="edge52" class="edge"><title>Node51&#45;&gt;Node32</title>
<path fill="none" stroke="midnightblue" d="M2036.01,-329.13C2084.32,-291.364 2174.61,-207.618 2136,-134 2108.51,-81.5741 2045.83,-47.9166 2004.75,-30.6126"/>
<polygon fill="midnightblue" stroke="midnightblue" points="2033.6,-326.562 2027.8,-335.423 2037.86,-332.118 2033.6,-326.562"/>
</g>
<!-- Node51&#45;&gt;Node41 -->
<g id="edge53" class="edge"><title>Node51&#45;&gt;Node41</title>
<path fill="none" stroke="midnightblue" d="M2014.45,-325.266C2025.63,-283.291 2048.26,-198.327 2057.22,-164.682"/>
<polygon fill="midnightblue" stroke="midnightblue" points="2011,-324.624 2011.81,-335.188 2017.77,-326.426 2011,-324.624"/>
</g>
<!-- Node51&#45;&gt;Node52 -->
<g id="edge51" class="edge"><title>Node51&#45;&gt;Node52</title>
<path fill="none" stroke="midnightblue" d="M1952.37,-332.444C1918.01,-321.908 1874.44,-308.549 1842.02,-298.611"/>
<polygon fill="midnightblue" stroke="midnightblue" points="1951.67,-335.891 1962.26,-335.476 1953.73,-329.198 1951.67,-335.891"/>
</g>
</g>
</svg>
