<?xml version="1.0" encoding="UTF-8" standalone="no"?>
<!DOCTYPE svg PUBLIC "-//W3C//DTD SVG 1.1//EN"
 "http://www.w3.org/Graphics/SVG/1.1/DTD/svg11.dtd">
<!-- Generated by graphviz version 2.40.1 (20161225.0304)
 -->
<!-- Title: /home/alejandro/Desarrollo eclipse/os1/include/MapDrawer.h Pages: 1 -->
<svg width="1341pt" height="498pt"
 viewBox="0.00 0.00 1340.87 498.00" xmlns="http://www.w3.org/2000/svg" xmlns:xlink="http://www.w3.org/1999/xlink">
<g id="graph0" class="graph" transform="scale(1 1) rotate(0) translate(4 494)">
<title>/home/alejandro/Desarrollo eclipse/os1/include/MapDrawer.h</title>
<polygon fill="#ffffff" stroke="transparent" points="-4,4 -4,-494 1336.8686,-494 1336.8686,4 -4,4"/>
<!-- Node0 -->
<g id="node1" class="node">
<title>Node0</title>
<polygon fill="#bfbfbf" stroke="#000000" points="1059.8686,-459.5 1059.8686,-489.5 1223.8686,-489.5 1223.8686,-459.5 1059.8686,-459.5"/>
<text text-anchor="start" x="1067.8686" y="-477.5" font-family="Helvetica,sans-Serif" font-size="10.00" fill="#000000">/home/alejandro/Desarrollo</text>
<text text-anchor="middle" x="1141.8686" y="-466.5" font-family="Helvetica,sans-Serif" font-size="10.00" fill="#000000"> eclipse/os1/include/MapDrawer.h</text>
</g>
<!-- Node1 -->
<g id="node2" class="node">
<title>Node1</title>
<g id="a_node2"><a xlink:href="_map_8h.html" target="_top" xlink:title="Map.h">
<polygon fill="#ffffff" stroke="#000000" points="1056.8686,-291.5 1056.8686,-310.5 1100.8686,-310.5 1100.8686,-291.5 1056.8686,-291.5"/>
<text text-anchor="middle" x="1078.8686" y="-298.5" font-family="Helvetica,sans-Serif" font-size="10.00" fill="#000000">Map.h</text>
</a>
</g>
</g>
<!-- Node0&#45;&gt;Node1 -->
<g id="edge1" class="edge">
<title>Node0&#45;&gt;Node1</title>
<path fill="none" stroke="#191970" d="M1135.0762,-459.3893C1125.9459,-438.7644 1109.5172,-400.5262 1097.8686,-367 1092.4877,-351.5131 1087.4059,-333.6224 1083.8541,-320.3779"/>
<polygon fill="#191970" stroke="#191970" points="1087.1849,-319.2816 1081.2575,-310.5 1080.4149,-321.0613 1087.1849,-319.2816"/>
</g>
<!-- Node22 -->
<g id="node23" class="node">
<title>Node22</title>
<polygon fill="#ffffff" stroke="#bfbfbf" points="1153.8686,-235.5 1153.8686,-254.5 1197.8686,-254.5 1197.8686,-235.5 1153.8686,-235.5"/>
<text text-anchor="middle" x="1175.8686" y="-242.5" font-family="Helvetica,sans-Serif" font-size="10.00" fill="#000000">mutex</text>
</g>
<!-- Node0&#45;&gt;Node22 -->
<g id="edge64" class="edge">
<title>Node0&#45;&gt;Node22</title>
<path fill="none" stroke="#191970" d="M1150.2501,-459.4238C1160.9966,-439.1471 1179.0565,-401.6268 1185.8686,-367 1192.8805,-331.3579 1186.0707,-288.9224 1180.7705,-264.6551"/>
<polygon fill="#191970" stroke="#191970" points="1184.1038,-263.537 1178.4267,-254.5915 1177.2863,-265.1248 1184.1038,-263.537"/>
</g>
<!-- Node23 -->
<g id="node24" class="node">
<title>Node23</title>
<g id="a_node24"><a xlink:href="_map_point_8h.html" target="_top" xlink:title="MapPoint.h">
<polygon fill="#ffffff" stroke="#000000" points="969.8686,-403.5 969.8686,-422.5 1035.8686,-422.5 1035.8686,-403.5 969.8686,-403.5"/>
<text text-anchor="middle" x="1002.8686" y="-410.5" font-family="Helvetica,sans-Serif" font-size="10.00" fill="#000000">MapPoint.h</text>
</a>
</g>
</g>
<!-- Node0&#45;&gt;Node23 -->
<g id="edge36" class="edge">
<title>Node0&#45;&gt;Node23</title>
<path fill="none" stroke="#191970" d="M1107.8654,-459.4554C1085.1815,-449.419 1055.6013,-436.3314 1033.6207,-426.6061"/>
<polygon fill="#191970" stroke="#191970" points="1034.9698,-423.3758 1024.4087,-422.5303 1032.1374,-429.7772 1034.9698,-423.3758"/>
</g>
<!-- Node24 -->
<g id="node25" class="node">
<title>Node24</title>
<g id="a_node25"><a xlink:href="_key_frame_8h.html" target="_top" xlink:title="KeyFrame.h">
<polygon fill="#ffffff" stroke="#000000" points="1106.8686,-347.5 1106.8686,-366.5 1176.8686,-366.5 1176.8686,-347.5 1106.8686,-347.5"/>
<text text-anchor="middle" x="1141.8686" y="-354.5" font-family="Helvetica,sans-Serif" font-size="10.00" fill="#000000">KeyFrame.h</text>
</a>
</g>
</g>
<!-- Node0&#45;&gt;Node24 -->
<g id="edge62" class="edge">
<title>Node0&#45;&gt;Node24</title>
<path fill="none" stroke="#191970" d="M1141.8686,-459.1389C1141.8686,-437.9692 1141.8686,-399.8174 1141.8686,-376.6112"/>
<polygon fill="#191970" stroke="#191970" points="1145.3687,-376.5594 1141.8686,-366.5595 1138.3687,-376.5595 1145.3687,-376.5594"/>
</g>
<!-- Node30 -->
<g id="node31" class="node">
<title>Node30</title>
<polygon fill="#ffffff" stroke="#bfbfbf" points="1232.8686,-403.5 1232.8686,-422.5 1332.8686,-422.5 1332.8686,-403.5 1232.8686,-403.5"/>
<text text-anchor="middle" x="1282.8686" y="-410.5" font-family="Helvetica,sans-Serif" font-size="10.00" fill="#000000">pangolin/pangolin.h</text>
</g>
<!-- Node0&#45;&gt;Node30 -->
<g id="edge63" class="edge">
<title>Node0&#45;&gt;Node30</title>
<path fill="none" stroke="#191970" d="M1176.3611,-459.4554C1199.3714,-449.419 1229.3772,-436.3314 1251.6741,-426.6061"/>
<polygon fill="#191970" stroke="#191970" points="1253.2519,-429.7364 1261.0186,-422.5303 1250.4533,-423.3202 1253.2519,-429.7364"/>
</g>
<!-- Node2 -->
<g id="node3" class="node">
<title>Node2</title>
<g id="a_node3"><a xlink:href="_o_r_b_vocabulary_8h.html" target="_top" xlink:title="ORBVocabulary.h">
<polygon fill="#ffffff" stroke="#000000" points="954.3686,-235.5 954.3686,-254.5 1049.3686,-254.5 1049.3686,-235.5 954.3686,-235.5"/>
<text text-anchor="middle" x="1001.8686" y="-242.5" font-family="Helvetica,sans-Serif" font-size="10.00" fill="#000000">ORBVocabulary.h</text>
</a>
</g>
</g>
<!-- Node1&#45;&gt;Node2 -->
<g id="edge2" class="edge">
<title>Node1&#45;&gt;Node2</title>
<path fill="none" stroke="#191970" d="M1065.4563,-291.2455C1053.8629,-282.814 1036.8939,-270.4729 1023.4008,-260.6598"/>
<polygon fill="#191970" stroke="#191970" points="1025.2733,-257.6938 1015.1273,-254.6427 1021.1561,-263.355 1025.2733,-257.6938"/>
</g>
<!-- Node21 -->
<g id="node22" class="node">
<title>Node21</title>
<polygon fill="#ffffff" stroke="#bfbfbf" points="1105.8686,-235.5 1105.8686,-254.5 1135.8686,-254.5 1135.8686,-235.5 1105.8686,-235.5"/>
<text text-anchor="middle" x="1120.8686" y="-242.5" font-family="Helvetica,sans-Serif" font-size="10.00" fill="#000000">set</text>
</g>
<!-- Node1&#45;&gt;Node21 -->
<g id="edge34" class="edge">
<title>Node1&#45;&gt;Node21</title>
<path fill="none" stroke="#191970" d="M1086.1845,-291.2455C1092.0865,-283.3761 1100.5429,-272.101 1107.628,-262.6542"/>
<polygon fill="#191970" stroke="#191970" points="1110.4366,-264.7427 1113.6366,-254.6427 1104.8366,-260.5427 1110.4366,-264.7427"/>
</g>
<!-- Node1&#45;&gt;Node22 -->
<g id="edge35" class="edge">
<title>Node1&#45;&gt;Node22</title>
<path fill="none" stroke="#191970" d="M1095.7647,-291.2455C1110.7866,-282.5731 1132.973,-269.7645 1150.1897,-259.825"/>
<polygon fill="#191970" stroke="#191970" points="1152.2557,-262.6737 1159.1661,-254.6427 1148.7558,-256.6114 1152.2557,-262.6737"/>
</g>
<!-- Node3 -->
<g id="node4" class="node">
<title>Node3</title>
<g id="a_node4"><a xlink:href="_f_o_r_b_8h.html" target="_top" xlink:title="../Thirdparty/DBoW2\l/DBoW2/FORB.h">
<polygon fill="#ffffff" stroke="#000000" points="334.3686,-168.5 334.3686,-198.5 441.3686,-198.5 441.3686,-168.5 334.3686,-168.5"/>
<text text-anchor="start" x="342.3686" y="-186.5" font-family="Helvetica,sans-Serif" font-size="10.00" fill="#000000">../Thirdparty/DBoW2</text>
<text text-anchor="middle" x="387.8686" y="-175.5" font-family="Helvetica,sans-Serif" font-size="10.00" fill="#000000">/DBoW2/FORB.h</text>
</a>
</g>
</g>
<!-- Node2&#45;&gt;Node3 -->
<g id="edge3" class="edge">
<title>Node2&#45;&gt;Node3</title>
<path fill="none" stroke="#191970" d="M954.1877,-236.9798C949.3572,-236.2662 944.5195,-235.5914 939.8686,-235 763.7863,-212.6113 554.9388,-195.7536 451.9093,-188.0766"/>
<polygon fill="#191970" stroke="#191970" points="451.9055,-184.5668 441.6742,-187.3183 451.3882,-191.5477 451.9055,-184.5668"/>
</g>
<!-- Node8 -->
<g id="node9" class="node">
<title>Node8</title>
<g id="a_node9"><a xlink:href="_templated_vocabulary_8h.html" target="_top" xlink:title="../Thirdparty/DBoW2\l/DBoW2/TemplatedVocabulary.h">
<polygon fill="#ffffff" stroke="#000000" points="693.8686,-168.5 693.8686,-198.5 853.8686,-198.5 853.8686,-168.5 693.8686,-168.5"/>
<text text-anchor="start" x="701.8686" y="-186.5" font-family="Helvetica,sans-Serif" font-size="10.00" fill="#000000">../Thirdparty/DBoW2</text>
<text text-anchor="middle" x="773.8686" y="-175.5" font-family="Helvetica,sans-Serif" font-size="10.00" fill="#000000">/DBoW2/TemplatedVocabulary.h</text>
</a>
</g>
</g>
<!-- Node2&#45;&gt;Node8 -->
<g id="edge11" class="edge">
<title>Node2&#45;&gt;Node8</title>
<path fill="none" stroke="#191970" d="M966.2436,-235.3906C932.3866,-226.2581 880.6536,-212.3038 839.3594,-201.1653"/>
<polygon fill="#191970" stroke="#191970" points="840.2102,-197.7697 829.6437,-198.5446 838.3871,-204.5282 840.2102,-197.7697"/>
</g>
<!-- Node4 -->
<g id="node5" class="node">
<title>Node4</title>
<polygon fill="#ffffff" stroke="#bfbfbf" points="189.8686,-56.5 189.8686,-75.5 305.8686,-75.5 305.8686,-56.5 189.8686,-56.5"/>
<text text-anchor="middle" x="247.8686" y="-63.5" font-family="Helvetica,sans-Serif" font-size="10.00" fill="#000000">opencv2/core/core.hpp</text>
</g>
<!-- Node3&#45;&gt;Node4 -->
<g id="edge4" class="edge">
<title>Node3&#45;&gt;Node4</title>
<path fill="none" stroke="#191970" d="M337.8939,-168.4028C307.3443,-158.198 272.2084,-144.3783 261.8686,-132 251.2033,-119.2319 248.063,-100.3158 247.3808,-86.0039"/>
<polygon fill="#191970" stroke="#191970" points="250.8774,-85.678 247.2639,-75.7185 243.8779,-85.7577 250.8774,-85.678"/>
</g>
<!-- Node5 -->
<g id="node6" class="node">
<title>Node5</title>
<polygon fill="#ffffff" stroke="#bfbfbf" points="441.8686,-.5 441.8686,-19.5 485.8686,-19.5 485.8686,-.5 441.8686,-.5"/>
<text text-anchor="middle" x="463.8686" y="-7.5" font-family="Helvetica,sans-Serif" font-size="10.00" fill="#000000">vector</text>
</g>
<!-- Node3&#45;&gt;Node5 -->
<g id="edge5" class="edge">
<title>Node3&#45;&gt;Node5</title>
<path fill="none" stroke="#191970" d="M334.0922,-168.5125C307.214,-159.8473 274.7709,-147.5589 247.8686,-132 208.8889,-109.456 151.6938,-90.2999 180.8686,-56 197.0118,-37.021 361.0159,-19.5911 431.7173,-12.8967"/>
<polygon fill="#191970" stroke="#191970" points="432.2041,-16.3666 441.8354,-11.9519 431.5532,-9.3969 432.2041,-16.3666"/>
</g>
<!-- Node6 -->
<g id="node7" class="node">
<title>Node6</title>
<polygon fill="#ffffff" stroke="#bfbfbf" points="367.3686,-56.5 367.3686,-75.5 408.3686,-75.5 408.3686,-56.5 367.3686,-56.5"/>
<text text-anchor="middle" x="387.8686" y="-63.5" font-family="Helvetica,sans-Serif" font-size="10.00" fill="#000000">string</text>
</g>
<!-- Node3&#45;&gt;Node6 -->
<g id="edge6" class="edge">
<title>Node3&#45;&gt;Node6</title>
<path fill="none" stroke="#191970" d="M387.8686,-168.1389C387.8686,-146.9692 387.8686,-108.8174 387.8686,-85.6112"/>
<polygon fill="#191970" stroke="#191970" points="391.3687,-85.5594 387.8686,-75.5595 384.3687,-85.5595 391.3687,-85.5594"/>
</g>
<!-- Node7 -->
<g id="node8" class="node">
<title>Node7</title>
<g id="a_node8"><a xlink:href="_f_class_8h.html" target="_top" xlink:title="FClass.h">
<polygon fill="#ffffff" stroke="#000000" points="303.8686,-112.5 303.8686,-131.5 359.8686,-131.5 359.8686,-112.5 303.8686,-112.5"/>
<text text-anchor="middle" x="331.8686" y="-119.5" font-family="Helvetica,sans-Serif" font-size="10.00" fill="#000000">FClass.h</text>
</a>
</g>
</g>
<!-- Node3&#45;&gt;Node7 -->
<g id="edge7" class="edge">
<title>Node3&#45;&gt;Node7</title>
<path fill="none" stroke="#191970" d="M374.0259,-168.2977C366.0096,-159.4941 355.8924,-148.3833 347.5786,-139.2529"/>
<polygon fill="#191970" stroke="#191970" points="350.1556,-136.8845 340.8349,-131.8469 344.9798,-141.5974 350.1556,-136.8845"/>
</g>
<!-- Node7&#45;&gt;Node4 -->
<g id="edge8" class="edge">
<title>Node7&#45;&gt;Node4</title>
<path fill="none" stroke="#191970" d="M317.237,-112.2455C304.4692,-103.7337 285.7249,-91.2375 270.9388,-81.3801"/>
<polygon fill="#191970" stroke="#191970" points="272.5946,-78.2775 262.3326,-75.6427 268.7117,-84.1019 272.5946,-78.2775"/>
</g>
<!-- Node7&#45;&gt;Node5 -->
<g id="edge9" class="edge">
<title>Node7&#45;&gt;Node5</title>
<path fill="none" stroke="#191970" d="M333.3095,-112.2178C335.868,-98.094 342.4638,-71.9404 357.8686,-56 377.7844,-35.3919 408.4822,-23.4592 431.7264,-16.9371"/>
<polygon fill="#191970" stroke="#191970" points="432.7051,-20.299 441.4967,-14.3865 430.9369,-13.526 432.7051,-20.299"/>
</g>
<!-- Node7&#45;&gt;Node6 -->
<g id="edge10" class="edge">
<title>Node7&#45;&gt;Node6</title>
<path fill="none" stroke="#191970" d="M341.6231,-112.2455C349.7334,-104.1352 361.4611,-92.4075 371.0767,-82.7919"/>
<polygon fill="#191970" stroke="#191970" points="373.6297,-85.1887 378.226,-75.6427 368.68,-80.2389 373.6297,-85.1887"/>
</g>
<!-- Node8&#45;&gt;Node4 -->
<g id="edge18" class="edge">
<title>Node8&#45;&gt;Node4</title>
<path fill="none" stroke="#191970" d="M693.7983,-178.478C566.405,-169.9549 328.4566,-151.6591 294.8686,-132 276.5446,-121.2749 263.4897,-100.2534 255.8606,-84.8053"/>
<polygon fill="#191970" stroke="#191970" points="258.9933,-83.2405 251.6298,-75.6228 252.6357,-86.1698 258.9933,-83.2405"/>
</g>
<!-- Node8&#45;&gt;Node5 -->
<g id="edge13" class="edge">
<title>Node8&#45;&gt;Node5</title>
<path fill="none" stroke="#191970" d="M693.5557,-179.5493C617.7491,-174.0682 511.5453,-161.2755 482.8686,-132 456.2248,-104.7998 457.4074,-56.6114 460.6289,-29.6549"/>
<polygon fill="#191970" stroke="#191970" points="464.1266,-29.9162 462.0591,-19.5251 457.1953,-28.9375 464.1266,-29.9162"/>
</g>
<!-- Node8&#45;&gt;Node6 -->
<g id="edge16" class="edge">
<title>Node8&#45;&gt;Node6</title>
<path fill="none" stroke="#191970" d="M693.6508,-176.7244C611.7629,-168.7575 491.0141,-153.7953 449.8686,-132 428.7,-120.7867 410.7658,-99.5395 399.7152,-84.1757"/>
<polygon fill="#191970" stroke="#191970" points="402.3074,-81.7683 393.7569,-75.5122 396.5398,-85.735 402.3074,-81.7683"/>
</g>
<!-- Node9 -->
<g id="node10" class="node">
<title>Node9</title>
<polygon fill="#ffffff" stroke="#bfbfbf" points="812.3686,-112.5 812.3686,-131.5 861.3686,-131.5 861.3686,-112.5 812.3686,-112.5"/>
<text text-anchor="middle" x="836.8686" y="-119.5" font-family="Helvetica,sans-Serif" font-size="10.00" fill="#000000">cassert</text>
</g>
<!-- Node8&#45;&gt;Node9 -->
<g id="edge12" class="edge">
<title>Node8&#45;&gt;Node9</title>
<path fill="none" stroke="#191970" d="M789.4417,-168.2977C798.5511,-159.4052 810.0721,-148.1586 819.4777,-138.9769"/>
<polygon fill="#191970" stroke="#191970" points="822.0707,-141.3368 826.7815,-131.8469 817.1809,-136.3278 822.0707,-141.3368"/>
</g>
<!-- Node10 -->
<g id="node11" class="node">
<title>Node10</title>
<polygon fill="#ffffff" stroke="#bfbfbf" points="879.3686,-112.5 879.3686,-131.5 930.3686,-131.5 930.3686,-112.5 879.3686,-112.5"/>
<text text-anchor="middle" x="904.8686" y="-119.5" font-family="Helvetica,sans-Serif" font-size="10.00" fill="#000000">numeric</text>
</g>
<!-- Node8&#45;&gt;Node10 -->
<g id="edge14" class="edge">
<title>Node8&#45;&gt;Node10</title>
<path fill="none" stroke="#191970" d="M805.9148,-168.4554C827.1015,-158.509 854.6714,-145.5659 875.3274,-135.8686"/>
<polygon fill="#191970" stroke="#191970" points="877.0036,-138.9483 884.5683,-131.5303 874.0288,-132.6118 877.0036,-138.9483"/>
</g>
<!-- Node11 -->
<g id="node12" class="node">
<title>Node11</title>
<polygon fill="#ffffff" stroke="#bfbfbf" points="611.8686,-112.5 611.8686,-131.5 661.8686,-131.5 661.8686,-112.5 611.8686,-112.5"/>
<text text-anchor="middle" x="636.8686" y="-119.5" font-family="Helvetica,sans-Serif" font-size="10.00" fill="#000000">fstream</text>
</g>
<!-- Node8&#45;&gt;Node11 -->
<g id="edge15" class="edge">
<title>Node8&#45;&gt;Node11</title>
<path fill="none" stroke="#191970" d="M740.3547,-168.4554C718.0974,-158.464 689.1039,-145.4487 667.4701,-135.7372"/>
<polygon fill="#191970" stroke="#191970" points="668.6551,-132.4327 658.0988,-131.5303 665.7883,-138.8187 668.6551,-132.4327"/>
</g>
<!-- Node12 -->
<g id="node13" class="node">
<title>Node12</title>
<polygon fill="#ffffff" stroke="#bfbfbf" points="679.8686,-112.5 679.8686,-131.5 735.8686,-131.5 735.8686,-112.5 679.8686,-112.5"/>
<text text-anchor="middle" x="707.8686" y="-119.5" font-family="Helvetica,sans-Serif" font-size="10.00" fill="#000000">algorithm</text>
</g>
<!-- Node8&#45;&gt;Node12 -->
<g id="edge17" class="edge">
<title>Node8&#45;&gt;Node12</title>
<path fill="none" stroke="#191970" d="M757.554,-168.2977C747.9154,-159.3163 735.6996,-147.9334 725.7928,-138.702"/>
<polygon fill="#191970" stroke="#191970" points="728.1382,-136.1036 718.4361,-131.8469 723.3661,-141.2249 728.1382,-136.1036"/>
</g>
<!-- Node13 -->
<g id="node14" class="node">
<title>Node13</title>
<polygon fill="#ffffff" stroke="#bfbfbf" points="753.8686,-112.5 753.8686,-131.5 793.8686,-131.5 793.8686,-112.5 753.8686,-112.5"/>
<text text-anchor="middle" x="773.8686" y="-119.5" font-family="Helvetica,sans-Serif" font-size="10.00" fill="#000000">limits</text>
</g>
<!-- Node8&#45;&gt;Node13 -->
<g id="edge19" class="edge">
<title>Node8&#45;&gt;Node13</title>
<path fill="none" stroke="#191970" d="M773.8686,-168.2977C773.8686,-160.3834 773.8686,-150.6043 773.8686,-142.0759"/>
<polygon fill="#191970" stroke="#191970" points="777.3687,-141.8469 773.8686,-131.8469 770.3687,-141.847 777.3687,-141.8469"/>
</g>
<!-- Node14 -->
<g id="node15" class="node">
<title>Node14</title>
<g id="a_node15"><a xlink:href="_feature_vector_8h.html" target="_top" xlink:title="FeatureVector.h">
<polygon fill="#ffffff" stroke="#000000" points="1204.8686,-112.5 1204.8686,-131.5 1290.8686,-131.5 1290.8686,-112.5 1204.8686,-112.5"/>
<text text-anchor="middle" x="1247.8686" y="-119.5" font-family="Helvetica,sans-Serif" font-size="10.00" fill="#000000">FeatureVector.h</text>
</a>
</g>
</g>
<!-- Node8&#45;&gt;Node14 -->
<g id="edge20" class="edge">
<title>Node8&#45;&gt;Node14</title>
<path fill="none" stroke="#191970" d="M854.0081,-173.1022C951.0664,-160.5092 1111.8291,-139.6507 1194.7553,-128.8913"/>
<polygon fill="#191970" stroke="#191970" points="1195.2486,-132.3567 1204.7151,-127.599 1194.3478,-125.4149 1195.2486,-132.3567"/>
</g>
<!-- Node15 -->
<g id="node16" class="node">
<title>Node15</title>
<g id="a_node16"><a xlink:href="_bow_vector_8h.html" target="_top" xlink:title="BowVector.h">
<polygon fill="#ffffff" stroke="#000000" points="1108.3686,-56.5 1108.3686,-75.5 1181.3686,-75.5 1181.3686,-56.5 1108.3686,-56.5"/>
<text text-anchor="middle" x="1144.8686" y="-63.5" font-family="Helvetica,sans-Serif" font-size="10.00" fill="#000000">BowVector.h</text>
</a>
</g>
</g>
<!-- Node8&#45;&gt;Node15 -->
<g id="edge28" class="edge">
<title>Node8&#45;&gt;Node15</title>
<path fill="none" stroke="#191970" d="M854.1572,-176.4725C909.114,-169.6887 982.802,-156.6491 1043.8686,-132 1074.6935,-119.5578 1106.1138,-97.179 1125.5459,-81.9644"/>
<polygon fill="#191970" stroke="#191970" points="1127.9586,-84.5166 1133.5854,-75.5394 1123.5885,-79.0483 1127.9586,-84.5166"/>
</g>
<!-- Node18 -->
<g id="node19" class="node">
<title>Node18</title>
<g id="a_node19"><a xlink:href="_scoring_object_8h.html" target="_top" xlink:title="ScoringObject.h">
<polygon fill="#ffffff" stroke="#000000" points="948.8686,-112.5 948.8686,-131.5 1034.8686,-131.5 1034.8686,-112.5 948.8686,-112.5"/>
<text text-anchor="middle" x="991.8686" y="-119.5" font-family="Helvetica,sans-Serif" font-size="10.00" fill="#000000">ScoringObject.h</text>
</a>
</g>
</g>
<!-- Node8&#45;&gt;Node18 -->
<g id="edge29" class="edge">
<title>Node8&#45;&gt;Node18</title>
<path fill="none" stroke="#191970" d="M827.1974,-168.4554C864.369,-157.9689 913.348,-144.1515 948.2025,-134.3187"/>
<polygon fill="#191970" stroke="#191970" points="949.4123,-137.614 958.0864,-131.5303 947.5117,-130.877 949.4123,-137.614"/>
</g>
<!-- Node19 -->
<g id="node20" class="node">
<title>Node19</title>
<g id="a_node20"><a xlink:href="_random_8h.html" target="_top" xlink:title="../DUtils/Random.h">
<polygon fill="#ffffff" stroke="#000000" points="492.3686,-112.5 492.3686,-131.5 593.3686,-131.5 593.3686,-112.5 492.3686,-112.5"/>
<text text-anchor="middle" x="542.8686" y="-119.5" font-family="Helvetica,sans-Serif" font-size="10.00" fill="#000000">../DUtils/Random.h</text>
</a>
</g>
</g>
<!-- Node8&#45;&gt;Node19 -->
<g id="edge31" class="edge">
<title>Node8&#45;&gt;Node19</title>
<path fill="none" stroke="#191970" d="M717.3597,-168.4554C677.8024,-157.9239 625.6259,-144.0328 588.664,-134.1923"/>
<polygon fill="#191970" stroke="#191970" points="589.2293,-130.7209 578.6654,-131.5303 587.4284,-137.4853 589.2293,-130.7209"/>
</g>
<!-- Node14&#45;&gt;Node5 -->
<g id="edge26" class="edge">
<title>Node14&#45;&gt;Node5</title>
<path fill="none" stroke="#191970" d="M1242.7997,-112.2142C1234.3504,-97.0638 1215.8205,-68.3877 1190.8686,-56 1128.1357,-24.8554 629.6064,-13.167 496.4625,-10.5836"/>
<polygon fill="#191970" stroke="#191970" points="496.1823,-7.0778 486.1176,-10.3871 496.0493,-14.0765 496.1823,-7.0778"/>
</g>
<!-- Node14&#45;&gt;Node15 -->
<g id="edge21" class="edge">
<title>Node14&#45;&gt;Node15</title>
<path fill="none" stroke="#191970" d="M1229.9274,-112.2455C1213.8286,-103.4928 1189.9807,-90.527 1171.6295,-80.5496"/>
<polygon fill="#191970" stroke="#191970" points="1173.0616,-77.3444 1162.6043,-75.6427 1169.7179,-83.4942 1173.0616,-77.3444"/>
</g>
<!-- Node16 -->
<g id="node17" class="node">
<title>Node16</title>
<polygon fill="#ffffff" stroke="#bfbfbf" points="1136.8686,-.5 1136.8686,-19.5 1190.8686,-19.5 1190.8686,-.5 1136.8686,-.5"/>
<text text-anchor="middle" x="1163.8686" y="-7.5" font-family="Helvetica,sans-Serif" font-size="10.00" fill="#000000">iostream</text>
</g>
<!-- Node14&#45;&gt;Node16 -->
<g id="edge27" class="edge">
<title>Node14&#45;&gt;Node16</title>
<path fill="none" stroke="#191970" d="M1246.1166,-112.2266C1243.2923,-98.573 1236.7026,-73.5011 1223.8686,-56 1214.838,-43.6854 1201.6232,-33.063 1189.8925,-25.1383"/>
<polygon fill="#191970" stroke="#191970" points="1191.6102,-22.0818 1181.3052,-19.6207 1187.8263,-27.971 1191.6102,-22.0818"/>
</g>
<!-- Node17 -->
<g id="node18" class="node">
<title>Node17</title>
<polygon fill="#ffffff" stroke="#bfbfbf" points="1248.3686,-.5 1248.3686,-19.5 1283.3686,-19.5 1283.3686,-.5 1248.3686,-.5"/>
<text text-anchor="middle" x="1265.8686" y="-7.5" font-family="Helvetica,sans-Serif" font-size="10.00" fill="#000000">map</text>
</g>
<!-- Node14&#45;&gt;Node17 -->
<g id="edge25" class="edge">
<title>Node14&#45;&gt;Node17</title>
<path fill="none" stroke="#191970" d="M1251.553,-112.2936C1254.8686,-103.0947 1259.563,-88.8168 1261.8686,-76 1264.6038,-60.7954 1265.5687,-43.3372 1265.8686,-30.1968"/>
<polygon fill="#191970" stroke="#191970" points="1269.3715,-29.9662 1265.9888,-19.9259 1262.3719,-29.8842 1269.3715,-29.9662"/>
</g>
<!-- Node15&#45;&gt;Node5 -->
<g id="edge24" class="edge">
<title>Node15&#45;&gt;Node5</title>
<path fill="none" stroke="#191970" d="M1108.1854,-58.2577C1103.3842,-57.4061 1098.5189,-56.6234 1093.8686,-56 866.2018,-25.4816 589.3401,-14.1089 496.1934,-10.9823"/>
<polygon fill="#191970" stroke="#191970" points="496.1169,-7.478 486.0078,-10.6491 495.888,-14.4743 496.1169,-7.478"/>
</g>
<!-- Node15&#45;&gt;Node16 -->
<g id="edge22" class="edge">
<title>Node15&#45;&gt;Node16</title>
<path fill="none" stroke="#191970" d="M1148.1782,-56.2455C1150.7119,-48.7776 1154.2863,-38.2427 1157.3836,-29.1137"/>
<polygon fill="#191970" stroke="#191970" points="1160.6984,-30.237 1160.597,-19.6427 1154.0696,-27.9879 1160.6984,-30.237"/>
</g>
<!-- Node15&#45;&gt;Node17 -->
<g id="edge23" class="edge">
<title>Node15&#45;&gt;Node17</title>
<path fill="none" stroke="#191970" d="M1165.6693,-56.3733C1185.917,-47.0024 1216.786,-32.7159 1238.9082,-22.4776"/>
<polygon fill="#191970" stroke="#191970" points="1240.4867,-25.6037 1248.0919,-18.2273 1237.5466,-19.2511 1240.4867,-25.6037"/>
</g>
<!-- Node18&#45;&gt;Node15 -->
<g id="edge30" class="edge">
<title>Node18&#45;&gt;Node15</title>
<path fill="none" stroke="#191970" d="M1018.1703,-112.3733C1043.2814,-103.1822 1081.3125,-89.2624 1109.1559,-79.0713"/>
<polygon fill="#191970" stroke="#191970" points="1110.7225,-82.2251 1118.9102,-75.5011 1108.3164,-75.6516 1110.7225,-82.2251"/>
</g>
<!-- Node19&#45;&gt;Node5 -->
<g id="edge33" class="edge">
<title>Node19&#45;&gt;Node5</title>
<path fill="none" stroke="#191970" d="M536.1331,-112.4509C522.8986,-93.688 493.3207,-51.7548 476.3943,-27.758"/>
<polygon fill="#191970" stroke="#191970" points="479.2112,-25.6792 470.5871,-19.5249 473.491,-29.714 479.2112,-25.6792"/>
</g>
<!-- Node20 -->
<g id="node21" class="node">
<title>Node20</title>
<polygon fill="#ffffff" stroke="#bfbfbf" points="530.3686,-56.5 530.3686,-75.5 575.3686,-75.5 575.3686,-56.5 530.3686,-56.5"/>
<text text-anchor="middle" x="552.8686" y="-63.5" font-family="Helvetica,sans-Serif" font-size="10.00" fill="#000000">cstdlib</text>
</g>
<!-- Node19&#45;&gt;Node20 -->
<g id="edge32" class="edge">
<title>Node19&#45;&gt;Node20</title>
<path fill="none" stroke="#191970" d="M544.6105,-112.2455C545.9154,-104.9382 547.7446,-94.6944 549.35,-85.7046"/>
<polygon fill="#191970" stroke="#191970" points="552.8342,-86.1022 551.1467,-75.6427 545.9432,-84.8717 552.8342,-86.1022"/>
</g>
<!-- Node23&#45;&gt;Node1 -->
<g id="edge59" class="edge">
<title>Node23&#45;&gt;Node1</title>
<path fill="none" stroke="#191970" d="M1004.7939,-403.3489C1007.8238,-389.8408 1014.6565,-364.9405 1026.8686,-347 1034.7108,-335.4793 1046.0768,-324.9817 1056.1837,-316.9331"/>
<polygon fill="#191970" stroke="#191970" points="1058.4328,-319.6198 1064.2724,-310.7796 1054.1945,-314.0487 1058.4328,-319.6198"/>
</g>
<!-- Node23&#45;&gt;Node4 -->
<g id="edge60" class="edge">
<title>Node23&#45;&gt;Node4</title>
<path fill="none" stroke="#191970" d="M969.6904,-412.5085C805.2911,-409.6446 85.8686,-391.9179 85.8686,-301 85.8686,-301 85.8686,-301 85.8686,-245 85.8686,-166.1834 173.2781,-106.5743 219.6837,-80.4816"/>
<polygon fill="#191970" stroke="#191970" points="221.56,-83.4445 228.6489,-75.5707 218.1971,-77.3053 221.56,-83.4445"/>
</g>
<!-- Node23&#45;&gt;Node22 -->
<g id="edge61" class="edge">
<title>Node23&#45;&gt;Node22</title>
<path fill="none" stroke="#191970" d="M1013.2766,-403.2351C1032.4955,-385.1688 1074.7948,-345.2448 1109.8686,-311 1126.7333,-294.534 1145.7401,-275.4728 1159.0106,-262.0811"/>
<polygon fill="#191970" stroke="#191970" points="1161.5565,-264.4842 1166.1016,-254.9138 1156.5803,-259.561 1161.5565,-264.4842"/>
</g>
<!-- Node23&#45;&gt;Node24 -->
<g id="edge37" class="edge">
<title>Node23&#45;&gt;Node24</title>
<path fill="none" stroke="#191970" d="M1026.7636,-403.3733C1049.3769,-394.2629 1083.5228,-380.5062 1108.7559,-370.3404"/>
<polygon fill="#191970" stroke="#191970" points="1110.3179,-373.4845 1118.2855,-366.5011 1107.702,-366.9917 1110.3179,-373.4845"/>
</g>
<!-- Node27 -->
<g id="node28" class="node">
<title>Node27</title>
<g id="a_node28"><a xlink:href="_frame_8h.html" target="_top" xlink:title="Frame.h">
<polygon fill="#ffffff" stroke="#000000" points="817.3686,-291.5 817.3686,-310.5 870.3686,-310.5 870.3686,-291.5 817.3686,-291.5"/>
<text text-anchor="middle" x="843.8686" y="-298.5" font-family="Helvetica,sans-Serif" font-size="10.00" fill="#000000">Frame.h</text>
</a>
</g>
</g>
<!-- Node23&#45;&gt;Node27 -->
<g id="edge48" class="edge">
<title>Node23&#45;&gt;Node27</title>
<path fill="none" stroke="#191970" d="M985.3326,-403.4509C954.6289,-384.1921 892.3317,-340.5218 861.549,-316.8935"/>
<polygon fill="#191970" stroke="#191970" points="863.4464,-313.9339 853.415,-310.5249 859.131,-319.4455 863.4464,-313.9339"/>
</g>
<!-- Node24&#45;&gt;Node2 -->
<g id="edge40" class="edge">
<title>Node24&#45;&gt;Node2</title>
<path fill="none" stroke="#191970" d="M1106.4773,-355.0134C1049.4571,-350.9915 941.2656,-339.6899 917.8686,-311 900.1529,-289.2765 932.636,-270.1983 962.2184,-258.2141"/>
<polygon fill="#191970" stroke="#191970" points="963.5813,-261.4398 971.6538,-254.578 961.0641,-254.908 963.5813,-261.4398"/>
</g>
<!-- Node24&#45;&gt;Node14 -->
<g id="edge39" class="edge">
<title>Node24&#45;&gt;Node14</title>
<path fill="none" stroke="#191970" d="M1177.0218,-353.3193C1203.8592,-348.4571 1239.1473,-337.175 1256.8686,-311 1292.4038,-258.5134 1269.2587,-177.7769 1255.7032,-141.1933"/>
<polygon fill="#191970" stroke="#191970" points="1258.9098,-139.7813 1252.035,-131.7198 1252.3821,-142.309 1258.9098,-139.7813"/>
</g>
<!-- Node24&#45;&gt;Node15 -->
<g id="edge38" class="edge">
<title>Node24&#45;&gt;Node15</title>
<path fill="none" stroke="#191970" d="M1150.9392,-347.28C1166.1627,-330.2057 1196.2314,-293.0167 1206.8686,-255 1224.645,-191.4688 1181.3635,-117.5064 1158.2532,-84.0608"/>
<polygon fill="#191970" stroke="#191970" points="1160.9858,-81.8642 1152.3373,-75.7442 1155.2817,-85.9217 1160.9858,-81.8642"/>
</g>
<!-- Node24&#45;&gt;Node22 -->
<g id="edge47" class="edge">
<title>Node24&#45;&gt;Node22</title>
<path fill="none" stroke="#191970" d="M1144.7675,-347.4509C1150.3379,-329.1013 1162.6357,-288.5908 1169.9887,-264.3693"/>
<polygon fill="#191970" stroke="#191970" points="1173.4214,-265.1104 1172.9772,-254.5249 1166.7232,-263.077 1173.4214,-265.1104"/>
</g>
<!-- Node25 -->
<g id="node26" class="node">
<title>Node25</title>
<g id="a_node26"><a xlink:href="_key_frame_database_8h.html" target="_top" xlink:title="KeyFrameDatabase.h">
<polygon fill="#ffffff" stroke="#000000" points="926.8686,-291.5 926.8686,-310.5 1038.8686,-310.5 1038.8686,-291.5 926.8686,-291.5"/>
<text text-anchor="middle" x="982.8686" y="-298.5" font-family="Helvetica,sans-Serif" font-size="10.00" fill="#000000">KeyFrameDatabase.h</text>
</a>
</g>
</g>
<!-- Node24&#45;&gt;Node25 -->
<g id="edge41" class="edge">
<title>Node24&#45;&gt;Node25</title>
<path fill="none" stroke="#191970" d="M1114.5356,-347.3733C1088.3252,-338.1419 1048.5703,-324.1402 1019.6018,-313.9375"/>
<polygon fill="#191970" stroke="#191970" points="1020.4399,-310.5219 1009.845,-310.5011 1018.1144,-317.1244 1020.4399,-310.5219"/>
</g>
<!-- Node25&#45;&gt;Node2 -->
<g id="edge46" class="edge">
<title>Node25&#45;&gt;Node2</title>
<path fill="none" stroke="#191970" d="M986.1782,-291.2455C988.7119,-283.7776 992.2863,-273.2427 995.3836,-264.1137"/>
<polygon fill="#191970" stroke="#191970" points="998.6984,-265.237 998.597,-254.6427 992.0696,-262.9879 998.6984,-265.237"/>
</g>
<!-- Node25&#45;&gt;Node5 -->
<g id="edge42" class="edge">
<title>Node25&#45;&gt;Node5</title>
<path fill="none" stroke="#191970" d="M1012.4371,-291.3976C1029.2794,-284.2338 1048.948,-272.6009 1058.8686,-255 1079.1737,-218.9753 1148.594,-222.3984 1043.8686,-112 967.8566,-31.8704 607.0257,-14.3417 496.2729,-10.8224"/>
<polygon fill="#191970" stroke="#191970" points="496.1611,-7.3176 486.0605,-10.5157 495.9509,-14.3144 496.1611,-7.3176"/>
</g>
<!-- Node25&#45;&gt;Node21 -->
<g id="edge44" class="edge">
<title>Node25&#45;&gt;Node21</title>
<path fill="none" stroke="#191970" d="M1006.5917,-291.3733C1031.6275,-281.2138 1070.9017,-265.2764 1096.2653,-254.984"/>
<polygon fill="#191970" stroke="#191970" points="1097.6146,-258.2137 1105.5647,-251.2103 1094.9824,-251.7274 1097.6146,-258.2137"/>
</g>
<!-- Node25&#45;&gt;Node22 -->
<g id="edge45" class="edge">
<title>Node25&#45;&gt;Node22</title>
<path fill="none" stroke="#191970" d="M1017.7341,-291.4838C1048.5572,-282.9859 1094.964,-269.9857 1143.76,-255.2698"/>
<polygon fill="#191970" stroke="#191970" points="1144.9917,-258.5538 1153.5472,-252.3046 1142.9619,-251.8546 1144.9917,-258.5538"/>
</g>
<!-- Node26 -->
<g id="node27" class="node">
<title>Node26</title>
<polygon fill="#ffffff" stroke="#bfbfbf" points="287.3686,-174 287.3686,-193 316.3686,-193 316.3686,-174 287.3686,-174"/>
<text text-anchor="middle" x="301.8686" y="-181" font-family="Helvetica,sans-Serif" font-size="10.00" fill="#000000">list</text>
</g>
<!-- Node25&#45;&gt;Node26 -->
<g id="edge43" class="edge">
<title>Node25&#45;&gt;Node26</title>
<path fill="none" stroke="#191970" d="M926.8034,-295.4861C788.6036,-281.3889 434.858,-242.0912 324.8686,-199 324.1625,-198.7234 323.4562,-198.4221 322.7524,-198.1003"/>
<polygon fill="#191970" stroke="#191970" points="324.3855,-195.0025 313.9646,-193.0906 320.9188,-201.0838 324.3855,-195.0025"/>
</g>
<!-- Node27&#45;&gt;Node2 -->
<g id="edge53" class="edge">
<title>Node27&#45;&gt;Node2</title>
<path fill="none" stroke="#191970" d="M870.6712,-291.5004C896.6611,-282.2887 936.2937,-268.2417 965.1981,-257.9971"/>
<polygon fill="#191970" stroke="#191970" points="966.6784,-261.1859 974.9346,-254.5462 964.3399,-254.5881 966.6784,-261.1859"/>
</g>
<!-- Node27&#45;&gt;Node5 -->
<g id="edge49" class="edge">
<title>Node27&#45;&gt;Node5</title>
<path fill="none" stroke="#191970" d="M816.9721,-300.2533C691.2177,-296.6343 166.3424,-280.0646 142.8686,-255 105.3182,-214.9047 -165.3675,-403.2308 154.8686,-56 173.4872,-35.812 356.0626,-18.7746 431.5057,-12.5392"/>
<polygon fill="#191970" stroke="#191970" points="432.1442,-15.9988 441.8271,-11.6985 431.5759,-9.0219 432.1442,-15.9988"/>
</g>
<!-- Node27&#45;&gt;Node14 -->
<g id="edge52" class="edge">
<title>Node27&#45;&gt;Node14</title>
<path fill="none" stroke="#191970" d="M855.253,-291.3939C873.2489,-276.7531 909.9276,-249.0747 945.8686,-235 1032.8201,-200.9494 1067.859,-237.644 1152.8686,-199 1184.5454,-184.6003 1214.6012,-157.0771 1232.1276,-139.1368"/>
<polygon fill="#191970" stroke="#191970" points="1234.8963,-141.3046 1239.2594,-131.6498 1229.8278,-136.4765 1234.8963,-141.3046"/>
</g>
<!-- Node27&#45;&gt;Node15 -->
<g id="edge51" class="edge">
<title>Node27&#45;&gt;Node15</title>
<path fill="none" stroke="#191970" d="M851.0763,-291.19C861.4651,-277.493 881.7331,-252.3698 902.8686,-235 972.2974,-177.9413 1005.4621,-186.5633 1076.8686,-132 1096.3199,-117.1369 1116.1325,-97.2545 1129.315,-83.2089"/>
<polygon fill="#191970" stroke="#191970" points="1132.0415,-85.4155 1136.2577,-75.6957 1126.9004,-80.6648 1132.0415,-85.4155"/>
</g>
<!-- Node27&#45;&gt;Node23 -->
<g id="edge50" class="edge">
<title>Node27&#45;&gt;Node23</title>
<path fill="none" stroke="#191970" d="M861.3661,-310.5249C892.0434,-329.7633 954.3405,-373.4317 985.1496,-397.0768"/>
<polygon fill="#191970" stroke="#191970" points="983.2605,-400.0428 993.2922,-403.4509 987.5753,-394.5308 983.2605,-400.0428"/>
</g>
<!-- Node28 -->
<g id="node29" class="node">
<title>Node28</title>
<g id="a_node29"><a xlink:href="_o_r_bextractor_8h.html" target="_top" xlink:title="ORBextractor.h">
<polygon fill="#ffffff" stroke="#000000" points="277.3686,-235.5 277.3686,-254.5 362.3686,-254.5 362.3686,-235.5 277.3686,-235.5"/>
<text text-anchor="middle" x="319.8686" y="-242.5" font-family="Helvetica,sans-Serif" font-size="10.00" fill="#000000">ORBextractor.h</text>
</a>
</g>
</g>
<!-- Node27&#45;&gt;Node28 -->
<g id="edge54" class="edge">
<title>Node27&#45;&gt;Node28</title>
<path fill="none" stroke="#191970" d="M817.163,-298.146C734.731,-289.3364 483.211,-262.4564 372.7903,-250.6558"/>
<polygon fill="#191970" stroke="#191970" points="372.8707,-247.1445 362.5553,-249.5619 372.1267,-254.1049 372.8707,-247.1445"/>
</g>
<!-- Node29 -->
<g id="node30" class="node">
<title>Node29</title>
<polygon fill="#ffffff" stroke="#bfbfbf" points="152.3686,-235.5 152.3686,-254.5 259.3686,-254.5 259.3686,-235.5 152.3686,-235.5"/>
<text text-anchor="middle" x="205.8686" y="-242.5" font-family="Helvetica,sans-Serif" font-size="10.00" fill="#000000">opencv2/opencv.hpp</text>
</g>
<!-- Node27&#45;&gt;Node29 -->
<g id="edge58" class="edge">
<title>Node27&#45;&gt;Node29</title>
<path fill="none" stroke="#191970" d="M817.0932,-299.6276C736.1072,-295.3151 486.4832,-280.8356 269.5771,-255.13"/>
<polygon fill="#191970" stroke="#191970" points="269.9448,-251.6491 259.5999,-253.9368 269.1135,-258.5996 269.9448,-251.6491"/>
</g>
<!-- Node28&#45;&gt;Node4 -->
<g id="edge57" class="edge">
<title>Node28&#45;&gt;Node4</title>
<path fill="none" stroke="#191970" d="M309.1691,-235.1984C299.9998,-226.3846 286.8834,-212.745 277.8686,-199 259.9753,-171.7177 254.6858,-163.9064 247.8686,-132 244.6096,-116.7466 244.8165,-99.0536 245.7248,-85.8283"/>
<polygon fill="#191970" stroke="#191970" points="249.2409,-85.7989 246.6342,-75.5298 242.2681,-85.1832 249.2409,-85.7989"/>
</g>
<!-- Node28&#45;&gt;Node5 -->
<g id="edge55" class="edge">
<title>Node28&#45;&gt;Node5</title>
<path fill="none" stroke="#191970" d="M301.5397,-235.3602C250.2511,-207.201 112.6737,-122.8396 169.8686,-56 186.7563,-36.2646 358.5502,-19.1483 431.4447,-12.7156"/>
<polygon fill="#191970" stroke="#191970" points="431.7928,-16.1986 441.4518,-11.845 431.1861,-9.225 431.7928,-16.1986"/>
</g>
<!-- Node28&#45;&gt;Node26 -->
<g id="edge56" class="edge">
<title>Node28&#45;&gt;Node26</title>
<path fill="none" stroke="#191970" d="M317.0561,-235.3906C314.5348,-226.776 310.7577,-213.8708 307.6011,-203.0858"/>
<polygon fill="#191970" stroke="#191970" points="310.8889,-201.8591 304.7208,-193.2449 304.1708,-203.8254 310.8889,-201.8591"/>
</g>
</g>
</svg>
