<?xml version="1.0" encoding="UTF-8" standalone="no"?>
<!DOCTYPE svg PUBLIC "-//W3C//DTD SVG 1.1//EN"
 "http://www.w3.org/Graphics/SVG/1.1/DTD/svg11.dtd">
<!-- Generated by graphviz version 2.38.0 (20140413.2041)
 -->
<!-- Title: /home/alejandro/Desarrollo eclipse/os1/include/MapPoint.h Pages: 1 -->
<svg width="1497pt" height="475pt"
 viewBox="0.00 0.00 1496.50 475.00" xmlns="http://www.w3.org/2000/svg" xmlns:xlink="http://www.w3.org/1999/xlink">
<g id="graph0" class="graph" transform="scale(1 1) rotate(0) translate(4 471)">
<title>/home/alejandro/Desarrollo eclipse/os1/include/MapPoint.h</title>
<polygon fill="white" stroke="none" points="-4,4 -4,-471 1492.5,-471 1492.5,4 -4,4"/>
<!-- Node0 -->
<g id="node1" class="node"><title>Node0</title>
<polygon fill="#bfbfbf" stroke="black" points="1092.5,-436.5 1092.5,-466.5 1247.5,-466.5 1247.5,-436.5 1092.5,-436.5"/>
<text text-anchor="start" x="1100.5" y="-454.5" font-family="Helvetica,sans-Serif" font-size="10.00">/home/alejandro/Desarrollo</text>
<text text-anchor="middle" x="1170" y="-443.5" font-family="Helvetica,sans-Serif" font-size="10.00"> eclipse/os1/include/MapPoint.h</text>
</g>
<!-- Node1 -->
<g id="node2" class="node"><title>Node1</title>
<g id="a_node2"><a xlink:href="_key_frame_8h.html" target="_top" xlink:title="KeyFrame.h">
<polygon fill="white" stroke="black" points="1100,-380.5 1100,-399.5 1170,-399.5 1170,-380.5 1100,-380.5"/>
<text text-anchor="middle" x="1135" y="-387.5" font-family="Helvetica,sans-Serif" font-size="10.00">KeyFrame.h</text>
</a>
</g>
</g>
<!-- Node0&#45;&gt;Node1 -->
<g id="edge1" class="edge"><title>Node0&#45;&gt;Node1</title>
<path fill="none" stroke="midnightblue" d="M1161.71,-436.399C1156.78,-428.021 1150.49,-417.327 1145.25,-408.423"/>
<polygon fill="midnightblue" stroke="midnightblue" points="1148.18,-406.503 1140.09,-399.658 1142.15,-410.052 1148.18,-406.503"/>
</g>
<!-- Node9 -->
<g id="node10" class="node"><title>Node9</title>
<polygon fill="white" stroke="#bfbfbf" points="104,-62 104,-81 220,-81 220,-62 104,-62"/>
<text text-anchor="middle" x="162" y="-69" font-family="Helvetica,sans-Serif" font-size="10.00">opencv2/core/core.hpp</text>
</g>
<!-- Node0&#45;&gt;Node9 -->
<g id="edge63" class="edge"><title>Node0&#45;&gt;Node9</title>
<path fill="none" stroke="midnightblue" d="M1092.33,-450.636C831.012,-450.078 0,-439.645 0,-329.5 0,-329.5 0,-329.5 0,-204.5 0,-140.691 76.4684,-102.253 124.331,-84.4443"/>
<polygon fill="midnightblue" stroke="midnightblue" points="125.55,-87.7255 133.782,-81.0557 123.187,-81.1363 125.55,-87.7255"/>
</g>
<!-- Node24 -->
<g id="node25" class="node"><title>Node24</title>
<polygon fill="white" stroke="#bfbfbf" points="1170,-257.5 1170,-276.5 1214,-276.5 1214,-257.5 1170,-257.5"/>
<text text-anchor="middle" x="1192" y="-264.5" font-family="Helvetica,sans-Serif" font-size="10.00">mutex</text>
</g>
<!-- Node0&#45;&gt;Node24 -->
<g id="edge64" class="edge"><title>Node0&#45;&gt;Node24</title>
<path fill="none" stroke="midnightblue" d="M1172.82,-436.398C1174.76,-426.296 1177.29,-412.35 1179,-400 1184.55,-359.844 1188.61,-312.496 1190.61,-286.836"/>
<polygon fill="midnightblue" stroke="midnightblue" points="1194.12,-286.912 1191.38,-276.676 1187.14,-286.383 1194.12,-286.912"/>
</g>
<!-- Node25 -->
<g id="node26" class="node"><title>Node25</title>
<g id="a_node26"><a xlink:href="_serializer_8h.html" target="_top" xlink:title="Serializer.h">
<polygon fill="white" stroke="black" points="1233.5,-319 1233.5,-338 1298.5,-338 1298.5,-319 1233.5,-319"/>
<text text-anchor="middle" x="1266" y="-326" font-family="Helvetica,sans-Serif" font-size="10.00">Serializer.h</text>
</a>
</g>
</g>
<!-- Node0&#45;&gt;Node25 -->
<g id="edge62" class="edge"><title>Node0&#45;&gt;Node25</title>
<path fill="none" stroke="midnightblue" d="M1185.33,-436.136C1195.39,-426.372 1208.56,-412.927 1219,-400 1232.81,-382.888 1246.52,-361.719 1255.54,-347.068"/>
<polygon fill="midnightblue" stroke="midnightblue" points="1258.78,-348.462 1260.97,-338.095 1252.8,-344.835 1258.78,-348.462"/>
</g>
<!-- Node26 -->
<g id="node27" class="node"><title>Node26</title>
<polygon fill="white" stroke="#bfbfbf" points="1393.5,-313.5 1393.5,-343.5 1488.5,-343.5 1488.5,-313.5 1393.5,-313.5"/>
<text text-anchor="start" x="1401.5" y="-331.5" font-family="Helvetica,sans-Serif" font-size="10.00">boost/serialization</text>
<text text-anchor="middle" x="1441" y="-320.5" font-family="Helvetica,sans-Serif" font-size="10.00">/access.hpp</text>
</g>
<!-- Node0&#45;&gt;Node26 -->
<g id="edge65" class="edge"><title>Node0&#45;&gt;Node26</title>
<path fill="none" stroke="midnightblue" d="M1240.25,-436.471C1273.37,-428.338 1312.8,-416.405 1346,-400 1372.67,-386.824 1399.56,-365.994 1417.9,-350.386"/>
<polygon fill="midnightblue" stroke="midnightblue" points="1420.43,-352.826 1425.69,-343.629 1415.84,-347.538 1420.43,-352.826"/>
</g>
<!-- Node27 -->
<g id="node28" class="node"><title>Node27</title>
<g id="a_node28"><a xlink:href="_frame_8h.html" target="_top" xlink:title="Frame.h">
<polygon fill="white" stroke="black" points="796.5,-319 796.5,-338 849.5,-338 849.5,-319 796.5,-319"/>
<text text-anchor="middle" x="823" y="-326" font-family="Helvetica,sans-Serif" font-size="10.00">Frame.h</text>
</a>
</g>
</g>
<!-- Node0&#45;&gt;Node27 -->
<g id="edge45" class="edge"><title>Node0&#45;&gt;Node27</title>
<path fill="none" stroke="midnightblue" d="M1124.99,-436.383C1053.18,-412.407 914.861,-364.144 853.47,-341.608"/>
<polygon fill="midnightblue" stroke="midnightblue" points="854.551,-338.276 843.958,-338.092 852.124,-344.842 854.551,-338.276"/>
</g>
<!-- Node30 -->
<g id="node31" class="node"><title>Node30</title>
<g id="a_node31"><a xlink:href="_map_8h.html" target="_top" xlink:title="Map.h">
<polygon fill="white" stroke="black" points="1293,-380.5 1293,-399.5 1337,-399.5 1337,-380.5 1293,-380.5"/>
<text text-anchor="middle" x="1315" y="-387.5" font-family="Helvetica,sans-Serif" font-size="10.00">Map.h</text>
</a>
</g>
</g>
<!-- Node0&#45;&gt;Node30 -->
<g id="edge56" class="edge"><title>Node0&#45;&gt;Node30</title>
<path fill="none" stroke="midnightblue" d="M1204.36,-436.399C1228.69,-426.416 1261.03,-413.147 1284.46,-403.534"/>
<polygon fill="midnightblue" stroke="midnightblue" points="1285.98,-406.692 1293.9,-399.658 1283.32,-400.216 1285.98,-406.692"/>
</g>
<!-- Node2 -->
<g id="node3" class="node"><title>Node2</title>
<g id="a_node3"><a xlink:href="_bow_vector_8h.html" target="_top" xlink:title="../Thirdparty/DBoW2\l/DBoW2/BowVector.h">
<polygon fill="white" stroke="black" points="1003.5,-56.5 1003.5,-86.5 1116.5,-86.5 1116.5,-56.5 1003.5,-56.5"/>
<text text-anchor="start" x="1011.5" y="-74.5" font-family="Helvetica,sans-Serif" font-size="10.00">../Thirdparty/DBoW2</text>
<text text-anchor="middle" x="1060" y="-63.5" font-family="Helvetica,sans-Serif" font-size="10.00">/DBoW2/BowVector.h</text>
</a>
</g>
</g>
<!-- Node1&#45;&gt;Node2 -->
<g id="edge2" class="edge"><title>Node1&#45;&gt;Node2</title>
<path fill="none" stroke="midnightblue" d="M1129.43,-380.291C1117.59,-360.924 1091,-312.482 1091,-268 1091,-268 1091,-268 1091,-204.5 1091,-165.639 1078.11,-122.005 1068.95,-95.9154"/>
<polygon fill="midnightblue" stroke="midnightblue" points="1072.24,-94.7145 1065.54,-86.5052 1065.66,-97.0994 1072.24,-94.7145"/>
</g>
<!-- Node6 -->
<g id="node7" class="node"><title>Node6</title>
<g id="a_node7"><a xlink:href="_feature_vector_8h.html" target="_top" xlink:title="../Thirdparty/DBoW2\l/DBoW2/FeatureVector.h">
<polygon fill="white" stroke="black" points="1119.5,-123.5 1119.5,-153.5 1246.5,-153.5 1246.5,-123.5 1119.5,-123.5"/>
<text text-anchor="start" x="1127.5" y="-141.5" font-family="Helvetica,sans-Serif" font-size="10.00">../Thirdparty/DBoW2</text>
<text text-anchor="middle" x="1183" y="-130.5" font-family="Helvetica,sans-Serif" font-size="10.00">/DBoW2/FeatureVector.h</text>
</a>
</g>
</g>
<!-- Node1&#45;&gt;Node6 -->
<g id="edge6" class="edge"><title>Node1&#45;&gt;Node6</title>
<path fill="none" stroke="midnightblue" d="M1136.65,-380.412C1143.27,-346.021 1167.99,-217.512 1178.37,-163.573"/>
<polygon fill="midnightblue" stroke="midnightblue" points="1181.85,-164.024 1180.3,-153.542 1174.97,-162.701 1181.85,-164.024"/>
</g>
<!-- Node7 -->
<g id="node8" class="node"><title>Node7</title>
<g id="a_node8"><a xlink:href="_o_r_b_vocabulary_8h.html" target="_top" xlink:title="ORBVocabulary.h">
<polygon fill="white" stroke="black" points="879.5,-257.5 879.5,-276.5 974.5,-276.5 974.5,-257.5 879.5,-257.5"/>
<text text-anchor="middle" x="927" y="-264.5" font-family="Helvetica,sans-Serif" font-size="10.00">ORBVocabulary.h</text>
</a>
</g>
</g>
<!-- Node1&#45;&gt;Node7 -->
<g id="edge11" class="edge"><title>Node1&#45;&gt;Node7</title>
<path fill="none" stroke="midnightblue" d="M1099.77,-387.257C1042.38,-383.6 932.727,-372.917 909,-344 895.339,-327.351 905.558,-302.107 915.284,-285.341"/>
<polygon fill="midnightblue" stroke="midnightblue" points="918.43,-286.912 920.769,-276.578 912.496,-283.198 918.43,-286.912"/>
</g>
<!-- Node21 -->
<g id="node22" class="node"><title>Node21</title>
<g id="a_node22"><a xlink:href="_key_frame_database_8h.html" target="_top" xlink:title="KeyFrameDatabase.h">
<polygon fill="white" stroke="black" points="951,-319 951,-338 1063,-338 1063,-319 951,-319"/>
<text text-anchor="middle" x="1007" y="-326" font-family="Helvetica,sans-Serif" font-size="10.00">KeyFrameDatabase.h</text>
</a>
</g>
</g>
<!-- Node1&#45;&gt;Node21 -->
<g id="edge36" class="edge"><title>Node1&#45;&gt;Node21</title>
<path fill="none" stroke="midnightblue" d="M1116.66,-380.475C1095.18,-370.49 1059.38,-353.848 1034.55,-342.307"/>
<polygon fill="midnightblue" stroke="midnightblue" points="1035.85,-339.051 1025.31,-338.009 1032.9,-345.398 1035.85,-339.051"/>
</g>
<!-- Node1&#45;&gt;Node24 -->
<g id="edge43" class="edge"><title>Node1&#45;&gt;Node24</title>
<path fill="none" stroke="midnightblue" d="M1139.1,-380.298C1148.38,-360.589 1171.17,-312.211 1183.6,-285.842"/>
<polygon fill="midnightblue" stroke="midnightblue" points="1186.84,-287.161 1187.94,-276.623 1180.51,-284.178 1186.84,-287.161"/>
</g>
<!-- Node1&#45;&gt;Node25 -->
<g id="edge42" class="edge"><title>Node1&#45;&gt;Node25</title>
<path fill="none" stroke="midnightblue" d="M1153.77,-380.475C1175.85,-370.445 1212.72,-353.7 1238.14,-342.155"/>
<polygon fill="midnightblue" stroke="midnightblue" points="1239.61,-345.331 1247.27,-338.009 1236.71,-338.958 1239.61,-345.331"/>
</g>
<!-- Node1&#45;&gt;Node26 -->
<g id="edge44" class="edge"><title>Node1&#45;&gt;Node26</title>
<path fill="none" stroke="midnightblue" d="M1170.1,-382.175C1222.15,-372.054 1320.38,-352.953 1383.16,-340.746"/>
<polygon fill="midnightblue" stroke="midnightblue" points="1384.15,-344.119 1393.3,-338.774 1382.82,-337.248 1384.15,-344.119"/>
</g>
<!-- Node3 -->
<g id="node4" class="node"><title>Node3</title>
<polygon fill="white" stroke="#bfbfbf" points="1057,-0.5 1057,-19.5 1111,-19.5 1111,-0.5 1057,-0.5"/>
<text text-anchor="middle" x="1084" y="-7.5" font-family="Helvetica,sans-Serif" font-size="10.00">iostream</text>
</g>
<!-- Node2&#45;&gt;Node3 -->
<g id="edge3" class="edge"><title>Node2&#45;&gt;Node3</title>
<path fill="none" stroke="midnightblue" d="M1065.69,-56.3993C1069,-48.1989 1073.2,-37.7809 1076.74,-28.9936"/>
<polygon fill="midnightblue" stroke="midnightblue" points="1080.01,-30.2411 1080.51,-19.6578 1073.52,-27.6225 1080.01,-30.2411"/>
</g>
<!-- Node4 -->
<g id="node5" class="node"><title>Node4</title>
<polygon fill="white" stroke="#bfbfbf" points="1178.5,-0.5 1178.5,-19.5 1213.5,-19.5 1213.5,-0.5 1178.5,-0.5"/>
<text text-anchor="middle" x="1196" y="-7.5" font-family="Helvetica,sans-Serif" font-size="10.00">map</text>
</g>
<!-- Node2&#45;&gt;Node4 -->
<g id="edge4" class="edge"><title>Node2&#45;&gt;Node4</title>
<path fill="none" stroke="midnightblue" d="M1092.23,-56.3993C1115.53,-46.2074 1146.65,-32.5898 1168.72,-22.935"/>
<polygon fill="midnightblue" stroke="midnightblue" points="1170.4,-26.0192 1178.16,-18.8044 1167.6,-19.6061 1170.4,-26.0192"/>
</g>
<!-- Node5 -->
<g id="node6" class="node"><title>Node5</title>
<polygon fill="white" stroke="#bfbfbf" points="356,-0.5 356,-19.5 400,-19.5 400,-0.5 356,-0.5"/>
<text text-anchor="middle" x="378" y="-7.5" font-family="Helvetica,sans-Serif" font-size="10.00">vector</text>
</g>
<!-- Node2&#45;&gt;Node5 -->
<g id="edge5" class="edge"><title>Node2&#45;&gt;Node5</title>
<path fill="none" stroke="midnightblue" d="M1003.14,-58.2218C998.372,-57.3944 993.611,-56.638 989,-56 769.047,-25.5675 501.507,-14.8438 410.264,-11.9225"/>
<polygon fill="midnightblue" stroke="midnightblue" points="410.13,-8.41675 400.026,-11.6041 409.913,-15.4134 410.13,-8.41675"/>
</g>
<!-- Node6&#45;&gt;Node2 -->
<g id="edge7" class="edge"><title>Node6&#45;&gt;Node2</title>
<path fill="none" stroke="midnightblue" d="M1156.31,-123.396C1138.5,-113.984 1114.88,-101.503 1095.49,-91.2557"/>
<polygon fill="midnightblue" stroke="midnightblue" points="1097.11,-88.1543 1086.64,-86.5765 1093.84,-94.3433 1097.11,-88.1543"/>
</g>
<!-- Node6&#45;&gt;Node3 -->
<g id="edge10" class="edge"><title>Node6&#45;&gt;Node3</title>
<path fill="none" stroke="midnightblue" d="M1181.96,-123.416C1180.02,-105.96 1174.52,-76.0673 1159,-56 1148.1,-41.9106 1131.44,-31.2849 1116.59,-23.9068"/>
<polygon fill="midnightblue" stroke="midnightblue" points="1117.72,-20.5692 1107.17,-19.5236 1114.76,-26.9158 1117.72,-20.5692"/>
</g>
<!-- Node6&#45;&gt;Node4 -->
<g id="edge8" class="edge"><title>Node6&#45;&gt;Node4</title>
<path fill="none" stroke="midnightblue" d="M1188.1,-123.133C1191.37,-113.143 1195.31,-99.4407 1197,-87 1198.86,-73.348 1197.15,-69.7769 1197,-56 1196.9,-47.3961 1196.71,-37.8686 1196.51,-29.8037"/>
<polygon fill="midnightblue" stroke="midnightblue" points="1200.01,-29.5323 1196.25,-19.6259 1193.01,-29.7128 1200.01,-29.5323"/>
</g>
<!-- Node6&#45;&gt;Node5 -->
<g id="edge9" class="edge"><title>Node6&#45;&gt;Node5</title>
<path fill="none" stroke="midnightblue" d="M1177.52,-123.265C1169.32,-104.159 1151.88,-70.9047 1125,-56 1061.87,-21 545.418,-12.8552 410.268,-11.3154"/>
<polygon fill="midnightblue" stroke="midnightblue" points="410.182,-7.81436 400.144,-11.2045 410.105,-14.8139 410.182,-7.81436"/>
</g>
<!-- Node8 -->
<g id="node9" class="node"><title>Node8</title>
<g id="a_node9"><a xlink:href="_f_o_r_b_8h.html" target="_top" xlink:title="../Thirdparty/DBoW2\l/DBoW2/FORB.h">
<polygon fill="white" stroke="black" points="192.5,-190.5 192.5,-220.5 299.5,-220.5 299.5,-190.5 192.5,-190.5"/>
<text text-anchor="start" x="200.5" y="-208.5" font-family="Helvetica,sans-Serif" font-size="10.00">../Thirdparty/DBoW2</text>
<text text-anchor="middle" x="246" y="-197.5" font-family="Helvetica,sans-Serif" font-size="10.00">/DBoW2/FORB.h</text>
</a>
</g>
</g>
<!-- Node7&#45;&gt;Node8 -->
<g id="edge12" class="edge"><title>Node7&#45;&gt;Node8</title>
<path fill="none" stroke="midnightblue" d="M879.384,-261.84C759.661,-251.379 445.982,-223.973 310.192,-212.109"/>
<polygon fill="midnightblue" stroke="midnightblue" points="310.215,-208.597 299.948,-211.214 309.605,-215.571 310.215,-208.597"/>
</g>
<!-- Node12 -->
<g id="node13" class="node"><title>Node12</title>
<g id="a_node13"><a xlink:href="_templated_vocabulary_8h.html" target="_top" xlink:title="../Thirdparty/DBoW2\l/DBoW2/TemplatedVocabulary.h">
<polygon fill="white" stroke="black" points="588,-190.5 588,-220.5 748,-220.5 748,-190.5 588,-190.5"/>
<text text-anchor="start" x="596" y="-208.5" font-family="Helvetica,sans-Serif" font-size="10.00">../Thirdparty/DBoW2</text>
<text text-anchor="middle" x="668" y="-197.5" font-family="Helvetica,sans-Serif" font-size="10.00">/DBoW2/TemplatedVocabulary.h</text>
</a>
</g>
</g>
<!-- Node7&#45;&gt;Node12 -->
<g id="edge20" class="edge"><title>Node7&#45;&gt;Node12</title>
<path fill="none" stroke="midnightblue" d="M889.892,-257.475C850.634,-248.456 787.739,-234.008 738.919,-222.792"/>
<polygon fill="midnightblue" stroke="midnightblue" points="739.571,-219.351 729.041,-220.523 738.004,-226.173 739.571,-219.351"/>
</g>
<!-- Node8&#45;&gt;Node5 -->
<g id="edge14" class="edge"><title>Node8&#45;&gt;Node5</title>
<path fill="none" stroke="midnightblue" d="M211.569,-190.373C154.239,-164.903 49.7652,-108.996 95,-56 126.961,-18.5556 278.646,-12.1119 345.837,-11.1156"/>
<polygon fill="midnightblue" stroke="midnightblue" points="345.906,-14.6151 355.864,-10.9986 345.824,-7.61561 345.906,-14.6151"/>
</g>
<!-- Node8&#45;&gt;Node9 -->
<g id="edge13" class="edge"><title>Node8&#45;&gt;Node9</title>
<path fill="none" stroke="midnightblue" d="M216.853,-190.433C202.3,-181.905 185.759,-169.636 176,-154 164.09,-134.918 161.515,-108.665 161.309,-91.1668"/>
<polygon fill="midnightblue" stroke="midnightblue" points="164.809,-91.1406 161.441,-81.0954 157.81,-91.0484 164.809,-91.1406"/>
</g>
<!-- Node10 -->
<g id="node11" class="node"><title>Node10</title>
<polygon fill="white" stroke="#bfbfbf" points="281.5,-62 281.5,-81 322.5,-81 322.5,-62 281.5,-62"/>
<text text-anchor="middle" x="302" y="-69" font-family="Helvetica,sans-Serif" font-size="10.00">string</text>
</g>
<!-- Node8&#45;&gt;Node10 -->
<g id="edge15" class="edge"><title>Node8&#45;&gt;Node10</title>
<path fill="none" stroke="midnightblue" d="M258.7,-190.468C266.772,-180.845 276.829,-167.432 283,-154 292.265,-133.834 297.238,-108.717 299.742,-91.7371"/>
<polygon fill="midnightblue" stroke="midnightblue" points="303.263,-91.8153 301.104,-81.4426 296.323,-90.8973 303.263,-91.8153"/>
</g>
<!-- Node11 -->
<g id="node12" class="node"><title>Node11</title>
<g id="a_node12"><a xlink:href="_f_class_8h.html" target="_top" xlink:title="FClass.h">
<polygon fill="white" stroke="black" points="218,-129 218,-148 274,-148 274,-129 218,-129"/>
<text text-anchor="middle" x="246" y="-136" font-family="Helvetica,sans-Serif" font-size="10.00">FClass.h</text>
</a>
</g>
</g>
<!-- Node8&#45;&gt;Node11 -->
<g id="edge16" class="edge"><title>Node8&#45;&gt;Node11</title>
<path fill="none" stroke="midnightblue" d="M246,-190.396C246,-181.064 246,-168.714 246,-158.517"/>
<polygon fill="midnightblue" stroke="midnightblue" points="249.5,-158.195 246,-148.195 242.5,-158.195 249.5,-158.195"/>
</g>
<!-- Node11&#45;&gt;Node5 -->
<g id="edge18" class="edge"><title>Node11&#45;&gt;Node5</title>
<path fill="none" stroke="midnightblue" d="M246.461,-128.717C247.771,-112.382 252.792,-77.0758 272,-56 291.356,-34.7619 322.391,-23.1869 345.889,-17.1191"/>
<polygon fill="midnightblue" stroke="midnightblue" points="346.843,-20.49 355.764,-14.7737 345.225,-13.6794 346.843,-20.49"/>
</g>
<!-- Node11&#45;&gt;Node9 -->
<g id="edge17" class="edge"><title>Node11&#45;&gt;Node9</title>
<path fill="none" stroke="midnightblue" d="M234.671,-128.734C220.943,-118.111 197.601,-100.049 181.08,-87.2642"/>
<polygon fill="midnightblue" stroke="midnightblue" points="183.2,-84.4791 173.149,-81.1273 178.916,-90.0152 183.2,-84.4791"/>
</g>
<!-- Node11&#45;&gt;Node10 -->
<g id="edge19" class="edge"><title>Node11&#45;&gt;Node10</title>
<path fill="none" stroke="midnightblue" d="M253.552,-128.734C262.285,-118.598 276.852,-101.69 287.737,-89.0556"/>
<polygon fill="midnightblue" stroke="midnightblue" points="290.692,-90.9879 294.567,-81.1273 285.388,-86.4189 290.692,-90.9879"/>
</g>
<!-- Node12&#45;&gt;Node2 -->
<g id="edge30" class="edge"><title>Node12&#45;&gt;Node2</title>
<path fill="none" stroke="midnightblue" d="M666.854,-190.324C666.22,-171.912 668.193,-140.109 687,-123 730.607,-83.3293 898.026,-74.4928 993.073,-72.7328"/>
<polygon fill="midnightblue" stroke="midnightblue" points="993.224,-76.2309 1003.17,-72.5675 993.109,-69.2319 993.224,-76.2309"/>
</g>
<!-- Node12&#45;&gt;Node5 -->
<g id="edge22" class="edge"><title>Node12&#45;&gt;Node5</title>
<path fill="none" stroke="midnightblue" d="M587.678,-199.769C517.406,-193.864 422.658,-181.032 397,-154 365.047,-120.336 369.4,-60.4712 374.239,-29.9823"/>
<polygon fill="midnightblue" stroke="midnightblue" points="377.735,-30.31 376.042,-19.8513 370.844,-29.083 377.735,-30.31"/>
</g>
<!-- Node12&#45;&gt;Node6 -->
<g id="edge29" class="edge"><title>Node12&#45;&gt;Node6</title>
<path fill="none" stroke="midnightblue" d="M748.186,-194.379C846.93,-181.917 1013.3,-160.919 1109.08,-148.83"/>
<polygon fill="midnightblue" stroke="midnightblue" points="1109.78,-152.27 1119.26,-147.545 1108.9,-145.325 1109.78,-152.27"/>
</g>
<!-- Node12&#45;&gt;Node9 -->
<g id="edge27" class="edge"><title>Node12&#45;&gt;Node9</title>
<path fill="none" stroke="midnightblue" d="M587.584,-204.238C472.914,-202.444 269.574,-193.568 209,-154 186.605,-139.371 173.629,-110.106 167.185,-90.9169"/>
<polygon fill="midnightblue" stroke="midnightblue" points="170.484,-89.7345 164.192,-81.21 163.794,-91.7974 170.484,-89.7345"/>
</g>
<!-- Node12&#45;&gt;Node10 -->
<g id="edge25" class="edge"><title>Node12&#45;&gt;Node10</title>
<path fill="none" stroke="midnightblue" d="M587.997,-197.915C510.927,-190.389 400.769,-176.168 364,-154 338.834,-138.828 320.318,-109.271 310.357,-90.2306"/>
<polygon fill="midnightblue" stroke="midnightblue" points="313.416,-88.5207 305.826,-81.1281 307.149,-91.6401 313.416,-88.5207"/>
</g>
<!-- Node13 -->
<g id="node14" class="node"><title>Node13</title>
<polygon fill="white" stroke="#bfbfbf" points="696.5,-129 696.5,-148 745.5,-148 745.5,-129 696.5,-129"/>
<text text-anchor="middle" x="721" y="-136" font-family="Helvetica,sans-Serif" font-size="10.00">cassert</text>
</g>
<!-- Node12&#45;&gt;Node13 -->
<g id="edge21" class="edge"><title>Node12&#45;&gt;Node13</title>
<path fill="none" stroke="midnightblue" d="M679.5,-190.396C687.682,-180.361 698.709,-166.838 707.339,-156.253"/>
<polygon fill="midnightblue" stroke="midnightblue" points="710.304,-158.157 713.911,-148.195 704.879,-153.733 710.304,-158.157"/>
</g>
<!-- Node14 -->
<g id="node15" class="node"><title>Node14</title>
<polygon fill="white" stroke="#bfbfbf" points="763.5,-129 763.5,-148 814.5,-148 814.5,-129 763.5,-129"/>
<text text-anchor="middle" x="789" y="-136" font-family="Helvetica,sans-Serif" font-size="10.00">numeric</text>
</g>
<!-- Node12&#45;&gt;Node14 -->
<g id="edge23" class="edge"><title>Node12&#45;&gt;Node14</title>
<path fill="none" stroke="midnightblue" d="M694.255,-190.396C715.016,-179.243 743.8,-163.781 764.179,-152.834"/>
<polygon fill="midnightblue" stroke="midnightblue" points="766.011,-155.823 773.164,-148.007 762.698,-149.656 766.011,-155.823"/>
</g>
<!-- Node15 -->
<g id="node16" class="node"><title>Node15</title>
<polygon fill="white" stroke="#bfbfbf" points="833,-129 833,-148 883,-148 883,-129 833,-129"/>
<text text-anchor="middle" x="858" y="-136" font-family="Helvetica,sans-Serif" font-size="10.00">fstream</text>
</g>
<!-- Node12&#45;&gt;Node15 -->
<g id="edge24" class="edge"><title>Node12&#45;&gt;Node15</title>
<path fill="none" stroke="midnightblue" d="M714.444,-190.406C745.406,-180.757 786.894,-167.338 823,-154 824.851,-153.316 826.749,-152.594 828.657,-151.851"/>
<polygon fill="midnightblue" stroke="midnightblue" points="830.141,-155.026 838.116,-148.052 827.532,-148.531 830.141,-155.026"/>
</g>
<!-- Node16 -->
<g id="node17" class="node"><title>Node16</title>
<polygon fill="white" stroke="#bfbfbf" points="526,-129 526,-148 582,-148 582,-129 526,-129"/>
<text text-anchor="middle" x="554" y="-136" font-family="Helvetica,sans-Serif" font-size="10.00">algorithm</text>
</g>
<!-- Node12&#45;&gt;Node16 -->
<g id="edge26" class="edge"><title>Node12&#45;&gt;Node16</title>
<path fill="none" stroke="midnightblue" d="M643.264,-190.396C623.792,-179.294 596.831,-163.921 577.646,-152.983"/>
<polygon fill="midnightblue" stroke="midnightblue" points="579.341,-149.92 568.92,-148.007 575.873,-156.001 579.341,-149.92"/>
</g>
<!-- Node17 -->
<g id="node18" class="node"><title>Node17</title>
<polygon fill="white" stroke="#bfbfbf" points="600,-129 600,-148 640,-148 640,-129 600,-129"/>
<text text-anchor="middle" x="620" y="-136" font-family="Helvetica,sans-Serif" font-size="10.00">limits</text>
</g>
<!-- Node12&#45;&gt;Node17 -->
<g id="edge28" class="edge"><title>Node12&#45;&gt;Node17</title>
<path fill="none" stroke="midnightblue" d="M657.585,-190.396C650.175,-180.361 640.188,-166.838 632.372,-156.253"/>
<polygon fill="midnightblue" stroke="midnightblue" points="635.177,-154.16 626.421,-148.195 629.546,-158.318 635.177,-154.16"/>
</g>
<!-- Node18 -->
<g id="node19" class="node"><title>Node18</title>
<g id="a_node19"><a xlink:href="_scoring_object_8h.html" target="_top" xlink:title="ScoringObject.h">
<polygon fill="white" stroke="black" points="901,-129 901,-148 987,-148 987,-129 901,-129"/>
<text text-anchor="middle" x="944" y="-136" font-family="Helvetica,sans-Serif" font-size="10.00">ScoringObject.h</text>
</a>
</g>
</g>
<!-- Node12&#45;&gt;Node18 -->
<g id="edge31" class="edge"><title>Node12&#45;&gt;Node18</title>
<path fill="none" stroke="midnightblue" d="M734.367,-190.453C779.053,-180.77 839.234,-167.296 892,-154 896.09,-152.97 900.348,-151.853 904.59,-150.713"/>
<polygon fill="midnightblue" stroke="midnightblue" points="905.647,-154.053 914.37,-148.039 903.801,-147.301 905.647,-154.053"/>
</g>
<!-- Node19 -->
<g id="node20" class="node"><title>Node19</title>
<g id="a_node20"><a xlink:href="_random_8h.html" target="_top" xlink:title="../DUtils/Random.h">
<polygon fill="white" stroke="black" points="406.5,-129 406.5,-148 507.5,-148 507.5,-129 406.5,-129"/>
<text text-anchor="middle" x="457" y="-136" font-family="Helvetica,sans-Serif" font-size="10.00">../DUtils/Random.h</text>
</a>
</g>
</g>
<!-- Node12&#45;&gt;Node19 -->
<g id="edge33" class="edge"><title>Node12&#45;&gt;Node19</title>
<path fill="none" stroke="midnightblue" d="M622.476,-190.476C584.161,-178.673 530.041,-162.001 494.262,-150.979"/>
<polygon fill="midnightblue" stroke="midnightblue" points="495.273,-147.628 484.685,-148.029 493.212,-154.318 495.273,-147.628"/>
</g>
<!-- Node18&#45;&gt;Node2 -->
<g id="edge32" class="edge"><title>Node18&#45;&gt;Node2</title>
<path fill="none" stroke="midnightblue" d="M959.644,-128.734C976.527,-119.274 1003.94,-103.914 1025.85,-91.6362"/>
<polygon fill="midnightblue" stroke="midnightblue" points="1027.84,-94.5307 1034.86,-86.589 1024.42,-88.4241 1027.84,-94.5307"/>
</g>
<!-- Node19&#45;&gt;Node5 -->
<g id="edge35" class="edge"><title>Node19&#45;&gt;Node5</title>
<path fill="none" stroke="midnightblue" d="M451.57,-128.805C438.66,-108.133 405.936,-55.7323 388.815,-28.3176"/>
<polygon fill="midnightblue" stroke="midnightblue" points="391.734,-26.3836 383.468,-19.7557 385.796,-30.0915 391.734,-26.3836"/>
</g>
<!-- Node20 -->
<g id="node21" class="node"><title>Node20</title>
<polygon fill="white" stroke="#bfbfbf" points="444.5,-62 444.5,-81 489.5,-81 489.5,-62 444.5,-62"/>
<text text-anchor="middle" x="467" y="-69" font-family="Helvetica,sans-Serif" font-size="10.00">cstdlib</text>
</g>
<!-- Node19&#45;&gt;Node20 -->
<g id="edge34" class="edge"><title>Node19&#45;&gt;Node20</title>
<path fill="none" stroke="midnightblue" d="M458.349,-128.734C459.818,-119.183 462.213,-103.618 464.11,-91.2829"/>
<polygon fill="midnightblue" stroke="midnightblue" points="467.611,-91.5432 465.673,-81.1273 460.693,-90.4788 467.611,-91.5432"/>
</g>
<!-- Node21&#45;&gt;Node5 -->
<g id="edge37" class="edge"><title>Node21&#45;&gt;Node5</title>
<path fill="none" stroke="midnightblue" d="M1009.88,-318.726C1019.5,-287.524 1047.2,-180.72 996,-123 917.32,-34.294 526.294,-15.4741 410.414,-11.819"/>
<polygon fill="midnightblue" stroke="midnightblue" points="410.179,-8.31049 400.079,-11.5108 409.97,-15.3074 410.179,-8.31049"/>
</g>
<!-- Node21&#45;&gt;Node7 -->
<g id="edge40" class="edge"><title>Node21&#45;&gt;Node7</title>
<path fill="none" stroke="midnightblue" d="M995.538,-318.975C982.825,-309.52 962.087,-294.096 946.747,-282.687"/>
<polygon fill="midnightblue" stroke="midnightblue" points="948.554,-279.669 938.441,-276.509 944.376,-285.285 948.554,-279.669"/>
</g>
<!-- Node22 -->
<g id="node23" class="node"><title>Node22</title>
<polygon fill="white" stroke="#bfbfbf" points="805.5,-196 805.5,-215 834.5,-215 834.5,-196 805.5,-196"/>
<text text-anchor="middle" x="820" y="-203" font-family="Helvetica,sans-Serif" font-size="10.00">list</text>
</g>
<!-- Node21&#45;&gt;Node22 -->
<g id="edge38" class="edge"><title>Node21&#45;&gt;Node22</title>
<path fill="none" stroke="midnightblue" d="M1006.51,-318.807C1005.2,-304.025 1000.42,-273.948 983,-257 945.058,-220.094 880.683,-210.105 845.251,-207.437"/>
<polygon fill="midnightblue" stroke="midnightblue" points="845.028,-203.917 834.834,-206.804 844.603,-210.905 845.028,-203.917"/>
</g>
<!-- Node23 -->
<g id="node24" class="node"><title>Node23</title>
<polygon fill="white" stroke="#bfbfbf" points="1291,-257.5 1291,-276.5 1321,-276.5 1321,-257.5 1291,-257.5"/>
<text text-anchor="middle" x="1306" y="-264.5" font-family="Helvetica,sans-Serif" font-size="10.00">set</text>
</g>
<!-- Node21&#45;&gt;Node23 -->
<g id="edge39" class="edge"><title>Node21&#45;&gt;Node23</title>
<path fill="none" stroke="midnightblue" d="M1049.84,-318.975C1113.16,-306.375 1229.73,-283.177 1280.86,-273.004"/>
<polygon fill="midnightblue" stroke="midnightblue" points="1281.6,-276.423 1290.73,-271.039 1280.24,-269.558 1281.6,-276.423"/>
</g>
<!-- Node21&#45;&gt;Node24 -->
<g id="edge41" class="edge"><title>Node21&#45;&gt;Node24</title>
<path fill="none" stroke="midnightblue" d="M1033.51,-318.975C1066.88,-308.242 1124.17,-289.817 1159.96,-278.305"/>
<polygon fill="midnightblue" stroke="midnightblue" points="1161.44,-281.506 1169.89,-275.112 1159.3,-274.842 1161.44,-281.506"/>
</g>
<!-- Node27&#45;&gt;Node0 -->
<g id="edge47" class="edge"><title>Node27&#45;&gt;Node0</title>
<path fill="none" stroke="midnightblue" d="M849.944,-337.641C909.3,-357.048 1051.26,-406.394 1124.59,-432.949"/>
<polygon fill="midnightblue" stroke="midnightblue" points="1123.45,-436.257 1134.04,-436.383 1125.84,-429.678 1123.45,-436.257"/>
</g>
<!-- Node27&#45;&gt;Node2 -->
<g id="edge48" class="edge"><title>Node27&#45;&gt;Node2</title>
<path fill="none" stroke="midnightblue" d="M824.299,-318.877C826.79,-304.718 833.348,-276.203 848,-257 896.613,-193.289 937.722,-209.009 996,-154 1015.05,-136.018 1033.14,-112.123 1045.19,-94.8605"/>
<polygon fill="midnightblue" stroke="midnightblue" points="1048.15,-96.7316 1050.92,-86.5042 1042.38,-92.7743 1048.15,-96.7316"/>
</g>
<!-- Node27&#45;&gt;Node5 -->
<g id="edge46" class="edge"><title>Node27&#45;&gt;Node5</title>
<path fill="none" stroke="midnightblue" d="M796.219,-326.493C681.58,-321.733 232.868,-298.383 119,-221 55.0662,-177.551 13.3658,-114.408 64,-56 100.199,-14.2434 272.629,-10.3013 345.438,-10.5468"/>
<polygon fill="midnightblue" stroke="midnightblue" points="345.81,-14.0491 355.832,-10.6131 345.854,-7.04925 345.81,-14.0491"/>
</g>
<!-- Node27&#45;&gt;Node6 -->
<g id="edge49" class="edge"><title>Node27&#45;&gt;Node6</title>
<path fill="none" stroke="midnightblue" d="M826.602,-318.859C833.146,-304.156 848.34,-274.194 870,-257 880.82,-248.411 1048.71,-187.594 1134.02,-156.995"/>
<polygon fill="midnightblue" stroke="midnightblue" points="1135.27,-160.265 1143.5,-153.596 1132.91,-153.675 1135.27,-160.265"/>
</g>
<!-- Node27&#45;&gt;Node7 -->
<g id="edge50" class="edge"><title>Node27&#45;&gt;Node7</title>
<path fill="none" stroke="midnightblue" d="M837.901,-318.975C854.968,-309.211 883.161,-293.081 903.262,-281.581"/>
<polygon fill="midnightblue" stroke="midnightblue" points="905.185,-284.513 912.127,-276.509 901.709,-278.437 905.185,-284.513"/>
</g>
<!-- Node28 -->
<g id="node29" class="node"><title>Node28</title>
<g id="a_node29"><a xlink:href="_o_r_bextractor_8h.html" target="_top" xlink:title="ORBextractor.h">
<polygon fill="white" stroke="black" points="699.5,-257.5 699.5,-276.5 784.5,-276.5 784.5,-257.5 699.5,-257.5"/>
<text text-anchor="middle" x="742" y="-264.5" font-family="Helvetica,sans-Serif" font-size="10.00">ORBextractor.h</text>
</a>
</g>
</g>
<!-- Node27&#45;&gt;Node28 -->
<g id="edge51" class="edge"><title>Node27&#45;&gt;Node28</title>
<path fill="none" stroke="midnightblue" d="M811.395,-318.975C798.523,-309.52 777.526,-294.096 761.994,-282.687"/>
<polygon fill="midnightblue" stroke="midnightblue" points="763.715,-279.608 753.584,-276.509 759.571,-285.25 763.715,-279.608"/>
</g>
<!-- Node29 -->
<g id="node30" class="node"><title>Node29</title>
<polygon fill="white" stroke="#bfbfbf" points="574.5,-257.5 574.5,-276.5 681.5,-276.5 681.5,-257.5 574.5,-257.5"/>
<text text-anchor="middle" x="628" y="-264.5" font-family="Helvetica,sans-Serif" font-size="10.00">opencv2/opencv.hpp</text>
</g>
<!-- Node27&#45;&gt;Node29 -->
<g id="edge55" class="edge"><title>Node27&#45;&gt;Node29</title>
<path fill="none" stroke="midnightblue" d="M796.295,-319.352C762.495,-309.038 704.067,-291.21 665.724,-279.511"/>
<polygon fill="midnightblue" stroke="midnightblue" points="666.544,-276.101 655.957,-276.531 664.501,-282.797 666.544,-276.101"/>
</g>
<!-- Node28&#45;&gt;Node5 -->
<g id="edge52" class="edge"><title>Node28&#45;&gt;Node5</title>
<path fill="none" stroke="midnightblue" d="M699.486,-258.272C696.281,-257.803 693.093,-257.371 690,-257 572.352,-242.877 263.347,-275.244 158,-221 123.748,-203.363 121.774,-187.642 103,-154 81.1979,-114.933 50.822,-89.9149 80,-56 113.999,-16.4809 275.629,-11.2193 345.593,-10.8281"/>
<polygon fill="midnightblue" stroke="midnightblue" points="345.623,-14.3281 355.614,-10.8023 345.605,-7.32812 345.623,-14.3281"/>
</g>
<!-- Node28&#45;&gt;Node9 -->
<g id="edge54" class="edge"><title>Node28&#45;&gt;Node9</title>
<path fill="none" stroke="midnightblue" d="M699.484,-258.283C696.28,-257.812 693.092,-257.376 690,-257 633.939,-250.176 227.538,-255.724 183,-221 144.059,-190.639 151.288,-123.769 157.652,-91.1414"/>
<polygon fill="midnightblue" stroke="midnightblue" points="161.121,-91.6555 159.79,-81.1447 154.276,-90.1915 161.121,-91.6555"/>
</g>
<!-- Node28&#45;&gt;Node22 -->
<g id="edge53" class="edge"><title>Node28&#45;&gt;Node22</title>
<path fill="none" stroke="midnightblue" d="M753.175,-257.475C765.571,-248.02 785.79,-232.596 800.746,-221.187"/>
<polygon fill="midnightblue" stroke="midnightblue" points="803.017,-223.857 808.845,-215.009 798.772,-218.291 803.017,-223.857"/>
</g>
<!-- Node30&#45;&gt;Node7 -->
<g id="edge57" class="edge"><title>Node30&#45;&gt;Node7</title>
<path fill="none" stroke="midnightblue" d="M1292.84,-387.047C1214.56,-380.055 954.985,-356.048 942,-344 926.472,-329.592 924.373,-304.146 925.057,-286.697"/>
<polygon fill="midnightblue" stroke="midnightblue" points="928.558,-286.81 925.795,-276.582 921.576,-286.301 928.558,-286.81"/>
</g>
<!-- Node30&#45;&gt;Node23 -->
<g id="edge58" class="edge"><title>Node30&#45;&gt;Node23</title>
<path fill="none" stroke="midnightblue" d="M1321.89,-380.319C1328.27,-371.684 1337.31,-357.77 1341,-344 1344.57,-330.692 1345.47,-326.032 1341,-313 1337.28,-302.161 1329.77,-291.922 1322.65,-283.957"/>
<polygon fill="midnightblue" stroke="midnightblue" points="1325,-281.35 1315.56,-276.55 1319.95,-286.192 1325,-281.35"/>
</g>
<!-- Node30&#45;&gt;Node24 -->
<g id="edge59" class="edge"><title>Node30&#45;&gt;Node24</title>
<path fill="none" stroke="midnightblue" d="M1316.73,-380.448C1319.29,-365.201 1322.28,-333.047 1307,-313 1287.38,-287.261 1250.91,-276.23 1224.28,-271.511"/>
<polygon fill="midnightblue" stroke="midnightblue" points="1224.68,-268.031 1214.26,-269.946 1223.6,-274.947 1224.68,-268.031"/>
</g>
<!-- Node30&#45;&gt;Node25 -->
<g id="edge61" class="edge"><title>Node30&#45;&gt;Node25</title>
<path fill="none" stroke="midnightblue" d="M1307.98,-380.475C1300.56,-371.462 1288.67,-357.025 1279.43,-345.812"/>
<polygon fill="midnightblue" stroke="midnightblue" points="1282.07,-343.503 1273.01,-338.009 1276.66,-347.953 1282.07,-343.503"/>
</g>
<!-- Node30&#45;&gt;Node26 -->
<g id="edge60" class="edge"><title>Node30&#45;&gt;Node26</title>
<path fill="none" stroke="midnightblue" d="M1333.05,-380.475C1350.99,-372.002 1379.09,-358.737 1402.11,-347.863"/>
<polygon fill="midnightblue" stroke="midnightblue" points="1403.76,-350.958 1411.3,-343.523 1400.77,-344.628 1403.76,-350.958"/>
</g>
</g>
</svg>
