<?xml version="1.0" encoding="UTF-8" standalone="no"?>
<!DOCTYPE svg PUBLIC "-//W3C//DTD SVG 1.1//EN"
 "http://www.w3.org/Graphics/SVG/1.1/DTD/svg11.dtd">
<!-- Generated by graphviz version 2.38.0 (20140413.2041)
 -->
<!-- Title: /home/alejandro/Desarrollo eclipse/os1/include/MapPoint.h Pages: 1 -->
<svg width="1255pt" height="576pt"
 viewBox="0.00 0.00 1254.50 576.00" xmlns="http://www.w3.org/2000/svg" xmlns:xlink="http://www.w3.org/1999/xlink">
<g id="graph0" class="graph" transform="scale(1 1) rotate(0) translate(4 572)">
<title>/home/alejandro/Desarrollo eclipse/os1/include/MapPoint.h</title>
<polygon fill="white" stroke="none" points="-4,4 -4,-572 1250.5,-572 1250.5,4 -4,4"/>
<!-- Node0 -->
<g id="node1" class="node"><title>Node0</title>
<polygon fill="#bfbfbf" stroke="black" points="878,-537.5 878,-567.5 1033,-567.5 1033,-537.5 878,-537.5"/>
<text text-anchor="start" x="886" y="-555.5" font-family="Helvetica,sans-Serif" font-size="10.00">/home/alejandro/Desarrollo</text>
<text text-anchor="middle" x="955.5" y="-544.5" font-family="Helvetica,sans-Serif" font-size="10.00"> eclipse/os1/include/MapPoint.h</text>
</g>
<!-- Node1 -->
<g id="node2" class="node"><title>Node1</title>
<g id="a_node2"><a xlink:href="_key_frame_8h.html" target="_top" xlink:title="KeyFrame.h">
<polygon fill="white" stroke="black" points="891.5,-425.5 891.5,-444.5 961.5,-444.5 961.5,-425.5 891.5,-425.5"/>
<text text-anchor="middle" x="926.5" y="-432.5" font-family="Helvetica,sans-Serif" font-size="10.00">KeyFrame.h</text>
</a>
</g>
</g>
<!-- Node0&#45;&gt;Node1 -->
<g id="edge1" class="edge"><title>Node0&#45;&gt;Node1</title>
<path fill="none" stroke="midnightblue" d="M947.33,-537.337C939.472,-516.622 929.6,-478.016 926.096,-454.899"/>
<polygon fill="midnightblue" stroke="midnightblue" points="929.538,-454.198 924.906,-444.669 922.585,-455.007 929.538,-454.198"/>
</g>
<!-- Node9 -->
<g id="node10" class="node"><title>Node9</title>
<polygon fill="white" stroke="#bfbfbf" points="1026.5,-62 1026.5,-81 1142.5,-81 1142.5,-62 1026.5,-62"/>
<text text-anchor="middle" x="1084.5" y="-69" font-family="Helvetica,sans-Serif" font-size="10.00">opencv2/core/core.hpp</text>
</g>
<!-- Node0&#45;&gt;Node9 -->
<g id="edge65" class="edge"><title>Node0&#45;&gt;Node9</title>
<path fill="none" stroke="midnightblue" d="M1005.86,-537.497C1089.14,-510.915 1246.5,-444.72 1246.5,-324 1246.5,-324 1246.5,-324 1246.5,-266 1246.5,-231.183 1246.11,-219.425 1227.5,-190 1197.48,-142.545 1141.81,-105.126 1109.5,-86.1541"/>
<polygon fill="midnightblue" stroke="midnightblue" points="1111.08,-83.0233 1100.66,-81.0832 1107.59,-89.0952 1111.08,-83.0233"/>
</g>
<!-- Node23 -->
<g id="node24" class="node"><title>Node23</title>
<g id="a_node24"><a xlink:href="_frame_8h.html" target="_top" xlink:title="Frame.h">
<polygon fill="white" stroke="black" points="756,-313.5 756,-332.5 809,-332.5 809,-313.5 756,-313.5"/>
<text text-anchor="middle" x="782.5" y="-320.5" font-family="Helvetica,sans-Serif" font-size="10.00">Frame.h</text>
</a>
</g>
</g>
<!-- Node0&#45;&gt;Node23 -->
<g id="edge59" class="edge"><title>Node0&#45;&gt;Node23</title>
<path fill="none" stroke="midnightblue" d="M941.191,-537.269C906.694,-497.477 821.154,-385.134 792.044,-341.57"/>
<polygon fill="midnightblue" stroke="midnightblue" points="794.823,-339.423 786.454,-332.927 788.946,-343.225 794.823,-339.423"/>
</g>
<!-- Node27 -->
<g id="node28" class="node"><title>Node27</title>
<polygon fill="white" stroke="#bfbfbf" points="1174.5,-313.5 1174.5,-332.5 1218.5,-332.5 1218.5,-313.5 1174.5,-313.5"/>
<text text-anchor="middle" x="1196.5" y="-320.5" font-family="Helvetica,sans-Serif" font-size="10.00">mutex</text>
</g>
<!-- Node0&#45;&gt;Node27 -->
<g id="edge66" class="edge"><title>Node0&#45;&gt;Node27</title>
<path fill="none" stroke="midnightblue" d="M974.573,-537.495C1010.34,-510.768 1089.05,-449.724 1146.5,-389 1160.81,-373.874 1175.09,-354.817 1184.7,-341.256"/>
<polygon fill="midnightblue" stroke="midnightblue" points="1187.7,-343.067 1190.55,-332.863 1181.96,-339.064 1187.7,-343.067"/>
</g>
<!-- Node28 -->
<g id="node29" class="node"><title>Node28</title>
<g id="a_node29"><a xlink:href="_map_8h.html" target="_top" xlink:title="Map.h">
<polygon fill="white" stroke="black" points="963.5,-481.5 963.5,-500.5 1007.5,-500.5 1007.5,-481.5 963.5,-481.5"/>
<text text-anchor="middle" x="985.5" y="-488.5" font-family="Helvetica,sans-Serif" font-size="10.00">Map.h</text>
</a>
</g>
</g>
<!-- Node0&#45;&gt;Node28 -->
<g id="edge60" class="edge"><title>Node0&#45;&gt;Node28</title>
<path fill="none" stroke="midnightblue" d="M956.77,-537.399C959.952,-528.932 965.301,-518.099 970.679,-509.139"/>
<polygon fill="midnightblue" stroke="midnightblue" points="973.679,-510.947 976.205,-500.658 967.814,-507.126 973.679,-510.947"/>
</g>
<!-- Node1&#45;&gt;Node0 -->
<g id="edge2" class="edge"><title>Node1&#45;&gt;Node0</title>
<path fill="none" stroke="midnightblue" d="M932.448,-444.669C940.005,-461.987 950.519,-501.408 955.022,-527.215"/>
<polygon fill="midnightblue" stroke="midnightblue" points="951.598,-527.976 956.558,-537.337 958.519,-526.926 951.598,-527.976"/>
</g>
<!-- Node2 -->
<g id="node3" class="node"><title>Node2</title>
<g id="a_node3"><a xlink:href="_bow_vector_8h.html" target="_top" xlink:title="../Thirdparty/DBoW2\l/DBoW2/BowVector.h">
<polygon fill="white" stroke="black" points="153,-56.5 153,-86.5 266,-86.5 266,-56.5 153,-56.5"/>
<text text-anchor="start" x="161" y="-74.5" font-family="Helvetica,sans-Serif" font-size="10.00">../Thirdparty/DBoW2</text>
<text text-anchor="middle" x="209.5" y="-63.5" font-family="Helvetica,sans-Serif" font-size="10.00">/DBoW2/BowVector.h</text>
</a>
</g>
</g>
<!-- Node1&#45;&gt;Node2 -->
<g id="edge3" class="edge"><title>Node1&#45;&gt;Node2</title>
<path fill="none" stroke="midnightblue" d="M891.184,-430.751C761.647,-418.173 314.738,-368.759 210.5,-277 158.694,-231.396 178.148,-190.905 190.5,-123 192.145,-113.958 195.319,-104.43 198.61,-96.1154"/>
<polygon fill="midnightblue" stroke="midnightblue" points="201.924,-97.2647 202.586,-86.6905 195.474,-94.5439 201.924,-97.2647"/>
</g>
<!-- Node6 -->
<g id="node7" class="node"><title>Node6</title>
<g id="a_node7"><a xlink:href="_feature_vector_8h.html" target="_top" xlink:title="../Thirdparty/DBoW2\l/DBoW2/FeatureVector.h">
<polygon fill="white" stroke="black" points="0,-123.5 0,-153.5 127,-153.5 127,-123.5 0,-123.5"/>
<text text-anchor="start" x="8" y="-141.5" font-family="Helvetica,sans-Serif" font-size="10.00">../Thirdparty/DBoW2</text>
<text text-anchor="middle" x="63.5" y="-130.5" font-family="Helvetica,sans-Serif" font-size="10.00">/DBoW2/FeatureVector.h</text>
</a>
</g>
</g>
<!-- Node1&#45;&gt;Node6 -->
<g id="edge7" class="edge"><title>Node1&#45;&gt;Node6</title>
<path fill="none" stroke="midnightblue" d="M891.32,-434.144C742.578,-434.479 169.906,-432.885 103.5,-389 76.6362,-371.247 71.5,-356.2 71.5,-324 71.5,-324 71.5,-324 71.5,-266 71.5,-230.346 68.2955,-189.151 65.9427,-163.711"/>
<polygon fill="midnightblue" stroke="midnightblue" points="69.4043,-163.142 64.9673,-153.521 62.4362,-163.809 69.4043,-163.142"/>
</g>
<!-- Node7 -->
<g id="node8" class="node"><title>Node7</title>
<g id="a_node8"><a xlink:href="_o_r_b_vocabulary_8h.html" target="_top" xlink:title="ORBVocabulary.h">
<polygon fill="white" stroke="black" points="834,-257.5 834,-276.5 929,-276.5 929,-257.5 834,-257.5"/>
<text text-anchor="middle" x="881.5" y="-264.5" font-family="Helvetica,sans-Serif" font-size="10.00">ORBVocabulary.h</text>
</a>
</g>
</g>
<!-- Node1&#45;&gt;Node7 -->
<g id="edge12" class="edge"><title>Node1&#45;&gt;Node7</title>
<path fill="none" stroke="midnightblue" d="M923.686,-425.412C920.761,-416.385 916.115,-401.752 912.5,-389 902.238,-352.798 891.645,-310.081 885.885,-286.314"/>
<polygon fill="midnightblue" stroke="midnightblue" points="889.277,-285.45 883.532,-276.548 882.472,-287.09 889.277,-285.45"/>
</g>
<!-- Node21 -->
<g id="node22" class="node"><title>Node21</title>
<g id="a_node22"><a xlink:href="_o_r_bextractor_8h.html" target="_top" xlink:title="ORBextractor.h">
<polygon fill="white" stroke="black" points="947,-257.5 947,-276.5 1032,-276.5 1032,-257.5 947,-257.5"/>
<text text-anchor="middle" x="989.5" y="-264.5" font-family="Helvetica,sans-Serif" font-size="10.00">ORBextractor.h</text>
</a>
</g>
</g>
<!-- Node1&#45;&gt;Node21 -->
<g id="edge37" class="edge"><title>Node1&#45;&gt;Node21</title>
<path fill="none" stroke="midnightblue" d="M928.623,-425.476C931.826,-412.949 938.291,-388.897 945.5,-369 956.264,-339.293 971.459,-305.866 980.883,-285.892"/>
<polygon fill="midnightblue" stroke="midnightblue" points="984.091,-287.297 985.232,-276.764 977.771,-284.287 984.091,-287.297"/>
</g>
<!-- Node1&#45;&gt;Node23 -->
<g id="edge41" class="edge"><title>Node1&#45;&gt;Node23</title>
<path fill="none" stroke="midnightblue" d="M911.358,-425.368C883.448,-406.733 825.257,-362.532 797.486,-339.134"/>
<polygon fill="midnightblue" stroke="midnightblue" points="799.767,-336.479 789.912,-332.591 795.192,-341.777 799.767,-336.479"/>
</g>
<!-- Node25 -->
<g id="node26" class="node"><title>Node25</title>
<g id="a_node26"><a xlink:href="_key_frame_database_8h.html" target="_top" xlink:title="KeyFrameDatabase.h">
<polygon fill="white" stroke="black" points="954.5,-369.5 954.5,-388.5 1066.5,-388.5 1066.5,-369.5 954.5,-369.5"/>
<text text-anchor="middle" x="1010.5" y="-376.5" font-family="Helvetica,sans-Serif" font-size="10.00">KeyFrameDatabase.h</text>
</a>
</g>
</g>
<!-- Node1&#45;&gt;Node25 -->
<g id="edge50" class="edge"><title>Node1&#45;&gt;Node25</title>
<path fill="none" stroke="midnightblue" d="M934.881,-425.324C946.266,-416.822 966.346,-403.729 983.063,-393.797"/>
<polygon fill="midnightblue" stroke="midnightblue" points="985.034,-396.7 991.927,-388.655 981.521,-390.646 985.034,-396.7"/>
</g>
<!-- Node1&#45;&gt;Node27 -->
<g id="edge58" class="edge"><title>Node1&#45;&gt;Node27</title>
<path fill="none" stroke="midnightblue" d="M961.508,-425.544C992.145,-417.649 1037.56,-404.734 1075.5,-389 1111.28,-374.161 1150.37,-351.983 1174.16,-337.754"/>
<polygon fill="midnightblue" stroke="midnightblue" points="1176.04,-340.711 1182.79,-332.544 1172.42,-334.72 1176.04,-340.711"/>
</g>
<!-- Node3 -->
<g id="node4" class="node"><title>Node3</title>
<polygon fill="white" stroke="#bfbfbf" points="46.5,-0.5 46.5,-19.5 100.5,-19.5 100.5,-0.5 46.5,-0.5"/>
<text text-anchor="middle" x="73.5" y="-7.5" font-family="Helvetica,sans-Serif" font-size="10.00">iostream</text>
</g>
<!-- Node2&#45;&gt;Node3 -->
<g id="edge4" class="edge"><title>Node2&#45;&gt;Node3</title>
<path fill="none" stroke="midnightblue" d="M177.27,-56.3993C154.655,-46.5054 124.662,-33.3832 102.739,-23.7919"/>
<polygon fill="midnightblue" stroke="midnightblue" points="103.854,-20.4595 93.2892,-19.6578 101.048,-26.8726 103.854,-20.4595"/>
</g>
<!-- Node4 -->
<g id="node5" class="node"><title>Node4</title>
<polygon fill="white" stroke="#bfbfbf" points="168,-0.5 168,-19.5 203,-19.5 203,-0.5 168,-0.5"/>
<text text-anchor="middle" x="185.5" y="-7.5" font-family="Helvetica,sans-Serif" font-size="10.00">map</text>
</g>
<!-- Node2&#45;&gt;Node4 -->
<g id="edge5" class="edge"><title>Node2&#45;&gt;Node4</title>
<path fill="none" stroke="midnightblue" d="M203.812,-56.3993C200.505,-48.1989 196.302,-37.7809 192.758,-28.9936"/>
<polygon fill="midnightblue" stroke="midnightblue" points="195.979,-27.6225 188.992,-19.6578 189.487,-30.2411 195.979,-27.6225"/>
</g>
<!-- Node5 -->
<g id="node6" class="node"><title>Node5</title>
<polygon fill="white" stroke="#bfbfbf" points="709.5,-0.5 709.5,-19.5 753.5,-19.5 753.5,-0.5 709.5,-0.5"/>
<text text-anchor="middle" x="731.5" y="-7.5" font-family="Helvetica,sans-Serif" font-size="10.00">vector</text>
</g>
<!-- Node2&#45;&gt;Node5 -->
<g id="edge6" class="edge"><title>Node2&#45;&gt;Node5</title>
<path fill="none" stroke="midnightblue" d="M266.357,-64.0192C375.938,-51.5286 613.161,-24.4889 699.363,-14.6631"/>
<polygon fill="midnightblue" stroke="midnightblue" points="699.802,-18.1358 709.341,-13.5257 699.009,-11.1809 699.802,-18.1358"/>
</g>
<!-- Node6&#45;&gt;Node2 -->
<g id="edge8" class="edge"><title>Node6&#45;&gt;Node2</title>
<path fill="none" stroke="midnightblue" d="M95.1798,-123.396C116.703,-113.814 145.373,-101.05 168.616,-90.7016"/>
<polygon fill="midnightblue" stroke="midnightblue" points="170.17,-93.8412 177.882,-86.5765 167.323,-87.4463 170.17,-93.8412"/>
</g>
<!-- Node6&#45;&gt;Node3 -->
<g id="edge11" class="edge"><title>Node6&#45;&gt;Node3</title>
<path fill="none" stroke="midnightblue" d="M64.6084,-123.479C66.4076,-100.719 69.9662,-55.7023 71.9934,-30.0582"/>
<polygon fill="midnightblue" stroke="midnightblue" points="75.5062,-30.0333 72.8053,-19.7885 68.528,-29.4816 75.5062,-30.0333"/>
</g>
<!-- Node6&#45;&gt;Node4 -->
<g id="edge9" class="edge"><title>Node6&#45;&gt;Node4</title>
<path fill="none" stroke="midnightblue" d="M68.9995,-123.406C76.3603,-105.939 90.8075,-76.0365 110.5,-56 124.251,-42.0092 143.223,-30.6793 158.644,-22.8876"/>
<polygon fill="midnightblue" stroke="midnightblue" points="160.232,-26.0075 167.709,-18.5012 157.183,-19.7064 160.232,-26.0075"/>
</g>
<!-- Node6&#45;&gt;Node5 -->
<g id="edge10" class="edge"><title>Node6&#45;&gt;Node5</title>
<path fill="none" stroke="midnightblue" d="M76.8866,-123.356C98.5482,-100.541 139.298,-57.9553 143.5,-56 243.338,-9.54184 590.564,-9.38628 698.933,-10.5217"/>
<polygon fill="midnightblue" stroke="midnightblue" points="699.193,-14.0249 709.233,-10.6414 699.275,-7.02536 699.193,-14.0249"/>
</g>
<!-- Node8 -->
<g id="node9" class="node"><title>Node8</title>
<g id="a_node9"><a xlink:href="_f_o_r_b_8h.html" target="_top" xlink:title="../Thirdparty/DBoW2\l/DBoW2/FORB.h">
<polygon fill="white" stroke="black" points="947,-190.5 947,-220.5 1054,-220.5 1054,-190.5 947,-190.5"/>
<text text-anchor="start" x="955" y="-208.5" font-family="Helvetica,sans-Serif" font-size="10.00">../Thirdparty/DBoW2</text>
<text text-anchor="middle" x="1000.5" y="-197.5" font-family="Helvetica,sans-Serif" font-size="10.00">/DBoW2/FORB.h</text>
</a>
</g>
</g>
<!-- Node7&#45;&gt;Node8 -->
<g id="edge13" class="edge"><title>Node7&#45;&gt;Node8</title>
<path fill="none" stroke="midnightblue" d="M898.55,-257.475C915.42,-249.04 941.79,-235.855 963.484,-225.008"/>
<polygon fill="midnightblue" stroke="midnightblue" points="965.075,-228.126 972.454,-220.523 961.945,-221.865 965.075,-228.126"/>
</g>
<!-- Node12 -->
<g id="node13" class="node"><title>Node12</title>
<g id="a_node13"><a xlink:href="_templated_vocabulary_8h.html" target="_top" xlink:title="../Thirdparty/DBoW2\l/DBoW2/TemplatedVocabulary.h">
<polygon fill="white" stroke="black" points="603.5,-190.5 603.5,-220.5 763.5,-220.5 763.5,-190.5 603.5,-190.5"/>
<text text-anchor="start" x="611.5" y="-208.5" font-family="Helvetica,sans-Serif" font-size="10.00">../Thirdparty/DBoW2</text>
<text text-anchor="middle" x="683.5" y="-197.5" font-family="Helvetica,sans-Serif" font-size="10.00">/DBoW2/TemplatedVocabulary.h</text>
</a>
</g>
</g>
<!-- Node7&#45;&gt;Node12 -->
<g id="edge21" class="edge"><title>Node7&#45;&gt;Node12</title>
<path fill="none" stroke="midnightblue" d="M853.131,-257.475C823.684,-248.626 776.839,-234.549 739.831,-223.428"/>
<polygon fill="midnightblue" stroke="midnightblue" points="740.749,-220.049 730.165,-220.523 738.734,-226.753 740.749,-220.049"/>
</g>
<!-- Node8&#45;&gt;Node5 -->
<g id="edge15" class="edge"><title>Node8&#45;&gt;Node5</title>
<path fill="none" stroke="midnightblue" d="M1034.75,-190.34C1092.4,-164.594 1198.19,-107.963 1151.5,-56 1125.66,-27.2437 857.412,-15.3285 763.643,-12.0213"/>
<polygon fill="midnightblue" stroke="midnightblue" points="763.717,-8.52184 753.603,-11.6768 763.477,-15.5177 763.717,-8.52184"/>
</g>
<!-- Node8&#45;&gt;Node9 -->
<g id="edge14" class="edge"><title>Node8&#45;&gt;Node9</title>
<path fill="none" stroke="midnightblue" d="M1029.65,-190.433C1044.2,-181.905 1060.74,-169.636 1070.5,-154 1082.41,-134.918 1084.99,-108.665 1085.19,-91.1668"/>
<polygon fill="midnightblue" stroke="midnightblue" points="1088.69,-91.0484 1085.06,-81.0954 1081.69,-91.1406 1088.69,-91.0484"/>
</g>
<!-- Node10 -->
<g id="node11" class="node"><title>Node10</title>
<polygon fill="white" stroke="#bfbfbf" points="924,-62 924,-81 965,-81 965,-62 924,-62"/>
<text text-anchor="middle" x="944.5" y="-69" font-family="Helvetica,sans-Serif" font-size="10.00">string</text>
</g>
<!-- Node8&#45;&gt;Node10 -->
<g id="edge16" class="edge"><title>Node8&#45;&gt;Node10</title>
<path fill="none" stroke="midnightblue" d="M987.8,-190.468C979.728,-180.845 969.671,-167.432 963.5,-154 954.235,-133.834 949.262,-108.717 946.758,-91.7371"/>
<polygon fill="midnightblue" stroke="midnightblue" points="950.177,-90.8973 945.396,-81.4426 943.237,-91.8153 950.177,-90.8973"/>
</g>
<!-- Node11 -->
<g id="node12" class="node"><title>Node11</title>
<g id="a_node12"><a xlink:href="_f_class_8h.html" target="_top" xlink:title="FClass.h">
<polygon fill="white" stroke="black" points="972.5,-129 972.5,-148 1028.5,-148 1028.5,-129 972.5,-129"/>
<text text-anchor="middle" x="1000.5" y="-136" font-family="Helvetica,sans-Serif" font-size="10.00">FClass.h</text>
</a>
</g>
</g>
<!-- Node8&#45;&gt;Node11 -->
<g id="edge17" class="edge"><title>Node8&#45;&gt;Node11</title>
<path fill="none" stroke="midnightblue" d="M1000.5,-190.396C1000.5,-181.064 1000.5,-168.714 1000.5,-158.517"/>
<polygon fill="midnightblue" stroke="midnightblue" points="1004,-158.195 1000.5,-148.195 997,-158.195 1004,-158.195"/>
</g>
<!-- Node11&#45;&gt;Node5 -->
<g id="edge19" class="edge"><title>Node11&#45;&gt;Node5</title>
<path fill="none" stroke="midnightblue" d="M1000.47,-128.827C999.9,-112.033 996.113,-75.0537 974.5,-56 943.672,-28.8222 822.899,-17.1202 764.065,-12.9517"/>
<polygon fill="midnightblue" stroke="midnightblue" points="764.05,-9.44272 753.836,-12.259 763.577,-16.4267 764.05,-9.44272"/>
</g>
<!-- Node11&#45;&gt;Node9 -->
<g id="edge18" class="edge"><title>Node11&#45;&gt;Node9</title>
<path fill="none" stroke="midnightblue" d="M1011.83,-128.734C1025.56,-118.111 1048.9,-100.049 1065.42,-87.2642"/>
<polygon fill="midnightblue" stroke="midnightblue" points="1067.58,-90.0152 1073.35,-81.1273 1063.3,-84.4791 1067.58,-90.0152"/>
</g>
<!-- Node11&#45;&gt;Node10 -->
<g id="edge20" class="edge"><title>Node11&#45;&gt;Node10</title>
<path fill="none" stroke="midnightblue" d="M992.948,-128.734C984.215,-118.598 969.648,-101.69 958.763,-89.0556"/>
<polygon fill="midnightblue" stroke="midnightblue" points="961.112,-86.4189 951.933,-81.1273 955.808,-90.9879 961.112,-86.4189"/>
</g>
<!-- Node12&#45;&gt;Node2 -->
<g id="edge31" class="edge"><title>Node12&#45;&gt;Node2</title>
<path fill="none" stroke="midnightblue" d="M603.235,-204.054C494,-201.968 305.772,-192.664 250.5,-154 231.227,-140.518 220.517,-115.253 214.922,-96.4121"/>
<polygon fill="midnightblue" stroke="midnightblue" points="218.293,-95.4702 212.317,-86.7213 211.533,-97.2871 218.293,-95.4702"/>
</g>
<!-- Node12&#45;&gt;Node5 -->
<g id="edge23" class="edge"><title>Node12&#45;&gt;Node5</title>
<path fill="none" stroke="midnightblue" d="M693.734,-190.198C700.179,-180.461 708.088,-167.023 712.5,-154 726.987,-111.245 730.493,-57.804 731.299,-29.9215"/>
<polygon fill="midnightblue" stroke="midnightblue" points="734.804,-29.7099 731.503,-19.6422 727.805,-29.5706 734.804,-29.7099"/>
</g>
<!-- Node12&#45;&gt;Node6 -->
<g id="edge30" class="edge"><title>Node12&#45;&gt;Node6</title>
<path fill="none" stroke="midnightblue" d="M603.399,-196.102C482.368,-183.414 254.602,-159.535 137.363,-147.244"/>
<polygon fill="midnightblue" stroke="midnightblue" points="137.71,-143.761 127.399,-146.199 136.98,-150.723 137.71,-143.761"/>
</g>
<!-- Node12&#45;&gt;Node9 -->
<g id="edge28" class="edge"><title>Node12&#45;&gt;Node9</title>
<path fill="none" stroke="midnightblue" d="M763.712,-201.127C854.106,-195.947 994.112,-183.347 1037.5,-154 1059.66,-139.013 1072.7,-109.848 1079.22,-90.7776"/>
<polygon fill="midnightblue" stroke="midnightblue" points="1082.59,-91.7271 1082.26,-81.1375 1075.92,-89.6231 1082.59,-91.7271"/>
</g>
<!-- Node12&#45;&gt;Node10 -->
<g id="edge26" class="edge"><title>Node12&#45;&gt;Node10</title>
<path fill="none" stroke="midnightblue" d="M763.99,-197.946C803.931,-191.529 851.253,-178.882 887.5,-154 910.801,-138.005 927.608,-109.144 936.7,-90.4099"/>
<polygon fill="midnightblue" stroke="midnightblue" points="939.942,-91.7367 940.949,-81.1898 933.585,-88.8068 939.942,-91.7367"/>
</g>
<!-- Node13 -->
<g id="node14" class="node"><title>Node13</title>
<polygon fill="white" stroke="#bfbfbf" points="760,-129 760,-148 809,-148 809,-129 760,-129"/>
<text text-anchor="middle" x="784.5" y="-136" font-family="Helvetica,sans-Serif" font-size="10.00">cassert</text>
</g>
<!-- Node12&#45;&gt;Node13 -->
<g id="edge22" class="edge"><title>Node12&#45;&gt;Node13</title>
<path fill="none" stroke="midnightblue" d="M705.415,-190.396C722.353,-179.496 745.687,-164.479 762.616,-153.584"/>
<polygon fill="midnightblue" stroke="midnightblue" points="764.766,-156.362 771.281,-148.007 760.978,-150.476 764.766,-156.362"/>
</g>
<!-- Node14 -->
<g id="node15" class="node"><title>Node14</title>
<polygon fill="white" stroke="#bfbfbf" points="827,-129 827,-148 878,-148 878,-129 827,-129"/>
<text text-anchor="middle" x="852.5" y="-136" font-family="Helvetica,sans-Serif" font-size="10.00">numeric</text>
</g>
<!-- Node12&#45;&gt;Node14 -->
<g id="edge24" class="edge"><title>Node12&#45;&gt;Node14</title>
<path fill="none" stroke="midnightblue" d="M721.747,-190.46C748.621,-180.504 785.365,-166.708 817.5,-154 819.14,-153.351 820.82,-152.68 822.515,-151.997"/>
<polygon fill="midnightblue" stroke="midnightblue" points="824.253,-155.067 832.187,-148.046 821.606,-148.587 824.253,-155.067"/>
</g>
<!-- Node15 -->
<g id="node16" class="node"><title>Node15</title>
<polygon fill="white" stroke="#bfbfbf" points="521.5,-129 521.5,-148 571.5,-148 571.5,-129 521.5,-129"/>
<text text-anchor="middle" x="546.5" y="-136" font-family="Helvetica,sans-Serif" font-size="10.00">fstream</text>
</g>
<!-- Node12&#45;&gt;Node15 -->
<g id="edge25" class="edge"><title>Node12&#45;&gt;Node15</title>
<path fill="none" stroke="midnightblue" d="M653.773,-190.396C629.948,-179.092 596.791,-163.361 573.669,-152.39"/>
<polygon fill="midnightblue" stroke="midnightblue" points="574.965,-149.131 564.43,-148.007 571.965,-155.456 574.965,-149.131"/>
</g>
<!-- Node16 -->
<g id="node17" class="node"><title>Node16</title>
<polygon fill="white" stroke="#bfbfbf" points="589.5,-129 589.5,-148 645.5,-148 645.5,-129 589.5,-129"/>
<text text-anchor="middle" x="617.5" y="-136" font-family="Helvetica,sans-Serif" font-size="10.00">algorithm</text>
</g>
<!-- Node12&#45;&gt;Node16 -->
<g id="edge27" class="edge"><title>Node12&#45;&gt;Node16</title>
<path fill="none" stroke="midnightblue" d="M669.179,-190.396C658.684,-180.06 644.432,-166.024 633.552,-155.309"/>
<polygon fill="midnightblue" stroke="midnightblue" points="635.909,-152.718 626.328,-148.195 630.997,-157.705 635.909,-152.718"/>
</g>
<!-- Node17 -->
<g id="node18" class="node"><title>Node17</title>
<polygon fill="white" stroke="#bfbfbf" points="663.5,-129 663.5,-148 703.5,-148 703.5,-129 663.5,-129"/>
<text text-anchor="middle" x="683.5" y="-136" font-family="Helvetica,sans-Serif" font-size="10.00">limits</text>
</g>
<!-- Node12&#45;&gt;Node17 -->
<g id="edge29" class="edge"><title>Node12&#45;&gt;Node17</title>
<path fill="none" stroke="midnightblue" d="M683.5,-190.396C683.5,-181.064 683.5,-168.714 683.5,-158.517"/>
<polygon fill="midnightblue" stroke="midnightblue" points="687,-158.195 683.5,-148.195 680,-158.195 687,-158.195"/>
</g>
<!-- Node18 -->
<g id="node19" class="node"><title>Node18</title>
<g id="a_node19"><a xlink:href="_scoring_object_8h.html" target="_top" xlink:title="ScoringObject.h">
<polygon fill="white" stroke="black" points="259.5,-129 259.5,-148 345.5,-148 345.5,-129 259.5,-129"/>
<text text-anchor="middle" x="302.5" y="-136" font-family="Helvetica,sans-Serif" font-size="10.00">ScoringObject.h</text>
</a>
</g>
</g>
<!-- Node12&#45;&gt;Node18 -->
<g id="edge32" class="edge"><title>Node12&#45;&gt;Node18</title>
<path fill="none" stroke="midnightblue" d="M603.165,-190.795C528.664,-178.084 419.913,-159.531 355.66,-148.569"/>
<polygon fill="midnightblue" stroke="midnightblue" points="356.189,-145.109 345.742,-146.877 355.011,-152.009 356.189,-145.109"/>
</g>
<!-- Node19 -->
<g id="node20" class="node"><title>Node19</title>
<g id="a_node20"><a xlink:href="_random_8h.html" target="_top" xlink:title="../DUtils/Random.h">
<polygon fill="white" stroke="black" points="402,-129 402,-148 503,-148 503,-129 402,-129"/>
<text text-anchor="middle" x="452.5" y="-136" font-family="Helvetica,sans-Serif" font-size="10.00">../DUtils/Random.h</text>
</a>
</g>
</g>
<!-- Node12&#45;&gt;Node19 -->
<g id="edge34" class="edge"><title>Node12&#45;&gt;Node19</title>
<path fill="none" stroke="midnightblue" d="M633.661,-190.476C591.445,-178.597 531.704,-161.787 492.543,-150.768"/>
<polygon fill="midnightblue" stroke="midnightblue" points="493.384,-147.368 482.81,-148.029 491.488,-154.107 493.384,-147.368"/>
</g>
<!-- Node18&#45;&gt;Node2 -->
<g id="edge33" class="edge"><title>Node18&#45;&gt;Node2</title>
<path fill="none" stroke="midnightblue" d="M289.958,-128.734C276.785,-119.527 255.618,-104.733 238.3,-92.6293"/>
<polygon fill="midnightblue" stroke="midnightblue" points="239.86,-89.449 229.658,-86.589 235.85,-95.1865 239.86,-89.449"/>
</g>
<!-- Node19&#45;&gt;Node5 -->
<g id="edge36" class="edge"><title>Node19&#45;&gt;Node5</title>
<path fill="none" stroke="midnightblue" d="M471.677,-128.805C519.875,-106.952 646.276,-49.6411 703.106,-23.8741"/>
<polygon fill="midnightblue" stroke="midnightblue" points="704.896,-26.9056 712.558,-19.5884 702.005,-20.5303 704.896,-26.9056"/>
</g>
<!-- Node20 -->
<g id="node21" class="node"><title>Node20</title>
<polygon fill="white" stroke="#bfbfbf" points="430,-62 430,-81 475,-81 475,-62 430,-62"/>
<text text-anchor="middle" x="452.5" y="-69" font-family="Helvetica,sans-Serif" font-size="10.00">cstdlib</text>
</g>
<!-- Node19&#45;&gt;Node20 -->
<g id="edge35" class="edge"><title>Node19&#45;&gt;Node20</title>
<path fill="none" stroke="midnightblue" d="M452.5,-128.734C452.5,-119.183 452.5,-103.618 452.5,-91.2829"/>
<polygon fill="midnightblue" stroke="midnightblue" points="456,-91.1273 452.5,-81.1273 449,-91.1273 456,-91.1273"/>
</g>
<!-- Node21&#45;&gt;Node5 -->
<g id="edge38" class="edge"><title>Node21&#45;&gt;Node5</title>
<path fill="none" stroke="midnightblue" d="M1016.56,-257.47C1037.19,-250.065 1065.52,-237.869 1086.5,-221 1150.63,-169.432 1225.64,-117.082 1170.5,-56 1143.32,-25.886 860.592,-14.7983 763.797,-11.8678"/>
<polygon fill="midnightblue" stroke="midnightblue" points="763.816,-8.36693 753.718,-11.572 763.611,-15.3639 763.816,-8.36693"/>
</g>
<!-- Node21&#45;&gt;Node9 -->
<g id="edge40" class="edge"><title>Node21&#45;&gt;Node9</title>
<path fill="none" stroke="midnightblue" d="M1011.28,-257.383C1027.62,-249.93 1049.5,-237.713 1063.5,-221 1092.44,-186.456 1091.72,-168.008 1089.5,-123 1088.98,-112.375 1087.83,-100.537 1086.77,-90.9956"/>
<polygon fill="midnightblue" stroke="midnightblue" points="1090.25,-90.5831 1085.61,-81.0588 1083.3,-91.3985 1090.25,-90.5831"/>
</g>
<!-- Node22 -->
<g id="node23" class="node"><title>Node22</title>
<polygon fill="white" stroke="#bfbfbf" points="1189,-196 1189,-215 1218,-215 1218,-196 1189,-196"/>
<text text-anchor="middle" x="1203.5" y="-203" font-family="Helvetica,sans-Serif" font-size="10.00">list</text>
</g>
<!-- Node21&#45;&gt;Node22 -->
<g id="edge39" class="edge"><title>Node21&#45;&gt;Node22</title>
<path fill="none" stroke="midnightblue" d="M1032.18,-258.456C1070.21,-251.071 1127.01,-238.395 1174.5,-221 1176.14,-220.401 1177.8,-219.735 1179.46,-219.027"/>
<polygon fill="midnightblue" stroke="midnightblue" points="1181.16,-222.095 1188.73,-214.686 1178.19,-215.756 1181.16,-222.095"/>
</g>
<!-- Node23&#45;&gt;Node0 -->
<g id="edge43" class="edge"><title>Node23&#45;&gt;Node0</title>
<path fill="none" stroke="midnightblue" d="M792.123,-332.927C821.736,-365.687 909.079,-479.931 942.565,-528.916"/>
<polygon fill="midnightblue" stroke="midnightblue" points="939.689,-530.912 948.165,-537.269 945.503,-527.014 939.689,-530.912"/>
</g>
<!-- Node23&#45;&gt;Node1 -->
<g id="edge47" class="edge"><title>Node23&#45;&gt;Node1</title>
<path fill="none" stroke="midnightblue" d="M797.582,-332.591C825.449,-351.19 883.639,-395.387 911.454,-418.816"/>
<polygon fill="midnightblue" stroke="midnightblue" points="909.187,-421.483 919.044,-425.368 913.762,-416.184 909.187,-421.483"/>
</g>
<!-- Node23&#45;&gt;Node2 -->
<g id="edge44" class="edge"><title>Node23&#45;&gt;Node2</title>
<path fill="none" stroke="midnightblue" d="M755.677,-321.801C649.997,-320.756 266.331,-314.395 228.5,-277 180.226,-229.282 193.24,-139.449 203.087,-96.5234"/>
<polygon fill="midnightblue" stroke="midnightblue" points="206.52,-97.2188 205.483,-86.6749 199.718,-95.5641 206.52,-97.2188"/>
</g>
<!-- Node23&#45;&gt;Node5 -->
<g id="edge42" class="edge"><title>Node23&#45;&gt;Node5</title>
<path fill="none" stroke="midnightblue" d="M755.98,-320.281C665.347,-313.692 373.5,-286.279 373.5,-206.5 373.5,-206.5 373.5,-206.5 373.5,-137.5 373.5,-95.6862 385.888,-79.4611 420.5,-56 465.494,-25.5015 628.878,-15.2172 699.081,-12.157"/>
<polygon fill="midnightblue" stroke="midnightblue" points="699.28,-15.6518 709.127,-11.741 698.991,-8.65779 699.28,-15.6518"/>
</g>
<!-- Node23&#45;&gt;Node6 -->
<g id="edge45" class="edge"><title>Node23&#45;&gt;Node6</title>
<path fill="none" stroke="midnightblue" d="M755.791,-321.221C645.812,-317.848 231.328,-303.473 179.5,-277 129.844,-251.636 93.0307,-194.776 75.2972,-162.686"/>
<polygon fill="midnightblue" stroke="midnightblue" points="78.2257,-160.741 70.4132,-153.584 72.0576,-164.051 78.2257,-160.741"/>
</g>
<!-- Node23&#45;&gt;Node7 -->
<g id="edge46" class="edge"><title>Node23&#45;&gt;Node7</title>
<path fill="none" stroke="midnightblue" d="M798.406,-313.324C814.138,-304.743 838.442,-291.486 856.709,-281.522"/>
<polygon fill="midnightblue" stroke="midnightblue" points="858.53,-284.516 865.633,-276.655 855.178,-278.37 858.53,-284.516"/>
</g>
<!-- Node23&#45;&gt;Node21 -->
<g id="edge48" class="edge"><title>Node23&#45;&gt;Node21</title>
<path fill="none" stroke="midnightblue" d="M809.138,-315.051C844.041,-305.946 905.661,-289.871 947.036,-279.078"/>
<polygon fill="midnightblue" stroke="midnightblue" points="948.038,-282.433 956.831,-276.522 946.271,-275.66 948.038,-282.433"/>
</g>
<!-- Node24 -->
<g id="node25" class="node"><title>Node24</title>
<polygon fill="white" stroke="#bfbfbf" points="238,-257.5 238,-276.5 345,-276.5 345,-257.5 238,-257.5"/>
<text text-anchor="middle" x="291.5" y="-264.5" font-family="Helvetica,sans-Serif" font-size="10.00">opencv2/opencv.hpp</text>
</g>
<!-- Node23&#45;&gt;Node24 -->
<g id="edge49" class="edge"><title>Node23&#45;&gt;Node24</title>
<path fill="none" stroke="midnightblue" d="M755.749,-319.394C688.883,-312.829 509.096,-294.854 359.5,-277 358.203,-276.845 356.892,-276.687 355.571,-276.526"/>
<polygon fill="midnightblue" stroke="midnightblue" points="355.661,-273.011 345.306,-275.251 354.798,-279.957 355.661,-273.011"/>
</g>
<!-- Node25&#45;&gt;Node1 -->
<g id="edge54" class="edge"><title>Node25&#45;&gt;Node1</title>
<path fill="none" stroke="midnightblue" d="M1001.91,-388.834C990.483,-397.342 970.541,-410.339 953.925,-420.21"/>
<polygon fill="midnightblue" stroke="midnightblue" points="952.004,-417.278 945.111,-425.324 955.517,-423.333 952.004,-417.278"/>
</g>
<!-- Node25&#45;&gt;Node5 -->
<g id="edge51" class="edge"><title>Node25&#45;&gt;Node5</title>
<path fill="none" stroke="midnightblue" d="M1024.17,-369.48C1038.23,-360.628 1060.66,-346.244 1079.5,-333 1146.98,-285.551 1190.77,-294.86 1227.5,-221 1251.76,-172.212 1250.75,-105.693 1192.5,-56 1159.96,-28.2408 863.12,-15.5412 763.745,-12.0424"/>
<polygon fill="midnightblue" stroke="midnightblue" points="763.805,-8.54247 753.691,-11.6963 763.564,-15.5383 763.805,-8.54247"/>
</g>
<!-- Node25&#45;&gt;Node7 -->
<g id="edge56" class="edge"><title>Node25&#45;&gt;Node7</title>
<path fill="none" stroke="midnightblue" d="M1000.38,-369.368C978.524,-350.733 926.688,-306.532 899.248,-283.134"/>
<polygon fill="midnightblue" stroke="midnightblue" points="901.456,-280.417 891.575,-276.591 896.914,-285.743 901.456,-280.417"/>
</g>
<!-- Node25&#45;&gt;Node22 -->
<g id="edge52" class="edge"><title>Node25&#45;&gt;Node22</title>
<path fill="none" stroke="midnightblue" d="M1019.33,-369.22C1039.88,-348.894 1092.72,-297.265 1139.5,-257 1153.97,-244.546 1170.96,-231.198 1183.79,-221.354"/>
<polygon fill="midnightblue" stroke="midnightblue" points="1186.1,-223.996 1191.93,-215.153 1181.86,-218.428 1186.1,-223.996"/>
</g>
<!-- Node25&#45;&gt;Node23 -->
<g id="edge55" class="edge"><title>Node25&#45;&gt;Node23</title>
<path fill="none" stroke="midnightblue" d="M974.373,-369.444C931.916,-359.388 861.856,-342.795 819.167,-332.684"/>
<polygon fill="midnightblue" stroke="midnightblue" points="819.734,-329.222 809.197,-330.323 818.121,-336.033 819.734,-329.222"/>
</g>
<!-- Node26 -->
<g id="node27" class="node"><title>Node26</title>
<polygon fill="white" stroke="#bfbfbf" points="1126.5,-313.5 1126.5,-332.5 1156.5,-332.5 1156.5,-313.5 1126.5,-313.5"/>
<text text-anchor="middle" x="1141.5" y="-320.5" font-family="Helvetica,sans-Serif" font-size="10.00">set</text>
</g>
<!-- Node25&#45;&gt;Node26 -->
<g id="edge53" class="edge"><title>Node25&#45;&gt;Node26</title>
<path fill="none" stroke="midnightblue" d="M1031.26,-369.444C1054.47,-359.877 1092.03,-344.393 1116.75,-334.204"/>
<polygon fill="midnightblue" stroke="midnightblue" points="1118.25,-337.37 1126.16,-330.323 1115.58,-330.898 1118.25,-337.37"/>
</g>
<!-- Node25&#45;&gt;Node27 -->
<g id="edge57" class="edge"><title>Node25&#45;&gt;Node27</title>
<path fill="none" stroke="midnightblue" d="M1039.97,-369.444C1074,-359.564 1129.77,-343.373 1164.74,-333.221"/>
<polygon fill="midnightblue" stroke="midnightblue" points="1165.82,-336.552 1174.45,-330.403 1163.87,-329.83 1165.82,-336.552"/>
</g>
<!-- Node28&#45;&gt;Node0 -->
<g id="edge61" class="edge"><title>Node28&#45;&gt;Node0</title>
<path fill="none" stroke="midnightblue" d="M986.064,-500.658C983.955,-507.956 979.071,-518.741 973.689,-528.502"/>
<polygon fill="midnightblue" stroke="midnightblue" points="970.508,-527.006 968.45,-537.399 976.54,-530.558 970.508,-527.006"/>
</g>
<!-- Node28&#45;&gt;Node1 -->
<g id="edge62" class="edge"><title>Node28&#45;&gt;Node1</title>
<path fill="none" stroke="midnightblue" d="M976.021,-481.324C967.299,-473.341 954.157,-461.313 943.602,-451.653"/>
<polygon fill="midnightblue" stroke="midnightblue" points="945.892,-449.004 936.152,-444.834 941.166,-454.167 945.892,-449.004"/>
</g>
<!-- Node28&#45;&gt;Node26 -->
<g id="edge63" class="edge"><title>Node28&#45;&gt;Node26</title>
<path fill="none" stroke="midnightblue" d="M993.887,-481.075C1019.08,-454.267 1094.33,-374.19 1126.57,-339.885"/>
<polygon fill="midnightblue" stroke="midnightblue" points="1129.15,-342.252 1133.45,-332.568 1124.05,-337.458 1129.15,-342.252"/>
</g>
<!-- Node28&#45;&gt;Node27 -->
<g id="edge64" class="edge"><title>Node28&#45;&gt;Node27</title>
<path fill="none" stroke="midnightblue" d="M998.455,-481.316C1011.53,-472.452 1032.21,-458.165 1049.5,-445 1097.2,-408.682 1151.1,-363.09 1178.47,-339.594"/>
<polygon fill="midnightblue" stroke="midnightblue" points="1181.08,-341.959 1186.38,-332.782 1176.52,-336.654 1181.08,-341.959"/>
</g>
</g>
</svg>
