<?xml version="1.0" encoding="UTF-8" standalone="no"?>
<!DOCTYPE svg PUBLIC "-//W3C//DTD SVG 1.1//EN"
 "http://www.w3.org/Graphics/SVG/1.1/DTD/svg11.dtd">
<!-- Generated by graphviz version 2.40.1 (20161225.0304)
 -->
<!-- Title: /home/alejandro/Desarrollo eclipse/os1/include/Map.h Pages: 1 -->
<svg width="1041pt" height="330pt"
 viewBox="0.00 0.00 1041.00 330.00" xmlns="http://www.w3.org/2000/svg" xmlns:xlink="http://www.w3.org/1999/xlink">
<g id="graph0" class="graph" transform="scale(1 1) rotate(0) translate(4 326)">
<title>/home/alejandro/Desarrollo eclipse/os1/include/Map.h</title>
<polygon fill="#ffffff" stroke="transparent" points="-4,4 -4,-326 1037,-326 1037,4 -4,4"/>
<!-- Node0 -->
<g id="node1" class="node">
<title>Node0</title>
<polygon fill="#bfbfbf" stroke="#000000" points="353.5,-291.5 353.5,-321.5 486.5,-321.5 486.5,-291.5 353.5,-291.5"/>
<text text-anchor="start" x="361.5" y="-309.5" font-family="Helvetica,sans-Serif" font-size="10.00" fill="#000000">/home/alejandro/Desarrollo</text>
<text text-anchor="middle" x="420" y="-298.5" font-family="Helvetica,sans-Serif" font-size="10.00" fill="#000000"> eclipse/os1/include/Map.h</text>
</g>
<!-- Node1 -->
<g id="node2" class="node">
<title>Node1</title>
<g id="a_node2"><a xlink:href="_o_r_b_vocabulary_8h.html" target="_top" xlink:title="ORBVocabulary.h">
<polygon fill="#ffffff" stroke="#000000" points="291.5,-235.5 291.5,-254.5 386.5,-254.5 386.5,-235.5 291.5,-235.5"/>
<text text-anchor="middle" x="339" y="-242.5" font-family="Helvetica,sans-Serif" font-size="10.00" fill="#000000">ORBVocabulary.h</text>
</a>
</g>
</g>
<!-- Node0&#45;&gt;Node1 -->
<g id="edge1" class="edge">
<title>Node0&#45;&gt;Node1</title>
<path fill="none" stroke="#191970" d="M399.9775,-291.2977C387.914,-282.1384 372.5612,-270.4816 360.2789,-261.1562"/>
<polygon fill="#191970" stroke="#191970" points="362.0501,-258.1065 351.9691,-254.8469 357.8171,-263.6816 362.0501,-258.1065"/>
</g>
<!-- Node20 -->
<g id="node21" class="node">
<title>Node20</title>
<polygon fill="#ffffff" stroke="#bfbfbf" points="405,-235.5 405,-254.5 435,-254.5 435,-235.5 405,-235.5"/>
<text text-anchor="middle" x="420" y="-242.5" font-family="Helvetica,sans-Serif" font-size="10.00" fill="#000000">set</text>
</g>
<!-- Node0&#45;&gt;Node20 -->
<g id="edge33" class="edge">
<title>Node0&#45;&gt;Node20</title>
<path fill="none" stroke="#191970" d="M420,-291.2977C420,-283.3834 420,-273.6043 420,-265.0759"/>
<polygon fill="#191970" stroke="#191970" points="423.5001,-264.8469 420,-254.8469 416.5001,-264.847 423.5001,-264.8469"/>
</g>
<!-- Node21 -->
<g id="node22" class="node">
<title>Node21</title>
<polygon fill="#ffffff" stroke="#bfbfbf" points="453,-235.5 453,-254.5 497,-254.5 497,-235.5 453,-235.5"/>
<text text-anchor="middle" x="475" y="-242.5" font-family="Helvetica,sans-Serif" font-size="10.00" fill="#000000">mutex</text>
</g>
<!-- Node0&#45;&gt;Node21 -->
<g id="edge34" class="edge">
<title>Node0&#45;&gt;Node21</title>
<path fill="none" stroke="#191970" d="M433.5955,-291.2977C441.3891,-282.5831 451.2047,-271.6075 459.3226,-262.5302"/>
<polygon fill="#191970" stroke="#191970" points="462.1365,-264.6341 466.1938,-254.8469 456.9187,-259.9678 462.1365,-264.6341"/>
</g>
<!-- Node2 -->
<g id="node3" class="node">
<title>Node2</title>
<g id="a_node3"><a xlink:href="_f_o_r_b_8h.html" target="_top" xlink:title="../Thirdparty/DBoW2\l/DBoW2/FORB.h">
<polygon fill="#ffffff" stroke="#000000" points="114.5,-168.5 114.5,-198.5 221.5,-198.5 221.5,-168.5 114.5,-168.5"/>
<text text-anchor="start" x="122.5" y="-186.5" font-family="Helvetica,sans-Serif" font-size="10.00" fill="#000000">../Thirdparty/DBoW2</text>
<text text-anchor="middle" x="168" y="-175.5" font-family="Helvetica,sans-Serif" font-size="10.00" fill="#000000">/DBoW2/FORB.h</text>
</a>
</g>
</g>
<!-- Node1&#45;&gt;Node2 -->
<g id="edge2" class="edge">
<title>Node1&#45;&gt;Node2</title>
<path fill="none" stroke="#191970" d="M312.2813,-235.3906C287.5313,-226.4893 250.0447,-213.0073 219.485,-202.0165"/>
<polygon fill="#191970" stroke="#191970" points="220.4258,-198.6355 209.8313,-198.5446 218.0567,-205.2224 220.4258,-198.6355"/>
</g>
<!-- Node7 -->
<g id="node8" class="node">
<title>Node7</title>
<g id="a_node8"><a xlink:href="_templated_vocabulary_8h.html" target="_top" xlink:title="../Thirdparty/DBoW2\l/DBoW2/TemplatedVocabulary.h">
<polygon fill="#ffffff" stroke="#000000" points="430,-168.5 430,-198.5 590,-198.5 590,-168.5 430,-168.5"/>
<text text-anchor="start" x="438" y="-186.5" font-family="Helvetica,sans-Serif" font-size="10.00" fill="#000000">../Thirdparty/DBoW2</text>
<text text-anchor="middle" x="510" y="-175.5" font-family="Helvetica,sans-Serif" font-size="10.00" fill="#000000">/DBoW2/TemplatedVocabulary.h</text>
</a>
</g>
</g>
<!-- Node1&#45;&gt;Node7 -->
<g id="edge10" class="edge">
<title>Node1&#45;&gt;Node7</title>
<path fill="none" stroke="#191970" d="M365.7188,-235.3906C390.4687,-226.4893 427.9553,-213.0073 458.515,-202.0165"/>
<polygon fill="#191970" stroke="#191970" points="459.9433,-205.2224 468.1687,-198.5446 457.5742,-198.6355 459.9433,-205.2224"/>
</g>
<!-- Node3 -->
<g id="node4" class="node">
<title>Node3</title>
<polygon fill="#ffffff" stroke="#bfbfbf" points="0,-56.5 0,-75.5 116,-75.5 116,-56.5 0,-56.5"/>
<text text-anchor="middle" x="58" y="-63.5" font-family="Helvetica,sans-Serif" font-size="10.00" fill="#000000">opencv2/core/core.hpp</text>
</g>
<!-- Node2&#45;&gt;Node3 -->
<g id="edge3" class="edge">
<title>Node2&#45;&gt;Node3</title>
<path fill="none" stroke="#191970" d="M124.8347,-168.4646C107.0326,-160.2487 87.6505,-148.3478 75,-132 64.715,-118.7091 60.6096,-99.8503 58.9927,-85.693"/>
<polygon fill="#191970" stroke="#191970" points="62.466,-85.2231 58.1589,-75.5433 55.4895,-85.7963 62.466,-85.2231"/>
</g>
<!-- Node4 -->
<g id="node5" class="node">
<title>Node4</title>
<polygon fill="#ffffff" stroke="#bfbfbf" points="387,-.5 387,-19.5 431,-19.5 431,-.5 387,-.5"/>
<text text-anchor="middle" x="409" y="-7.5" font-family="Helvetica,sans-Serif" font-size="10.00" fill="#000000">vector</text>
</g>
<!-- Node2&#45;&gt;Node4 -->
<g id="edge4" class="edge">
<title>Node2&#45;&gt;Node4</title>
<path fill="none" stroke="#191970" d="M187.4705,-168.3912C218.9213,-144.1208 283.0398,-95.1979 339,-56 354.0967,-45.4253 371.404,-34.0456 385.0321,-25.2503"/>
<polygon fill="#191970" stroke="#191970" points="387.2833,-27.9642 393.8067,-19.6157 383.501,-22.074 387.2833,-27.9642"/>
</g>
<!-- Node5 -->
<g id="node6" class="node">
<title>Node5</title>
<polygon fill="#ffffff" stroke="#bfbfbf" points="172.5,-56.5 172.5,-75.5 213.5,-75.5 213.5,-56.5 172.5,-56.5"/>
<text text-anchor="middle" x="193" y="-63.5" font-family="Helvetica,sans-Serif" font-size="10.00" fill="#000000">string</text>
</g>
<!-- Node2&#45;&gt;Node5 -->
<g id="edge5" class="edge">
<title>Node2&#45;&gt;Node5</title>
<path fill="none" stroke="#191970" d="M171.2683,-168.1389C175.7725,-146.9692 183.8899,-108.8174 188.8274,-85.6112"/>
<polygon fill="#191970" stroke="#191970" points="192.3083,-86.0689 190.9661,-75.5595 185.4615,-84.6121 192.3083,-86.0689"/>
</g>
<!-- Node6 -->
<g id="node7" class="node">
<title>Node6</title>
<g id="a_node7"><a xlink:href="_f_class_8h.html" target="_top" xlink:title="FClass.h">
<polygon fill="#ffffff" stroke="#000000" points="84,-112.5 84,-131.5 140,-131.5 140,-112.5 84,-112.5"/>
<text text-anchor="middle" x="112" y="-119.5" font-family="Helvetica,sans-Serif" font-size="10.00" fill="#000000">FClass.h</text>
</a>
</g>
</g>
<!-- Node2&#45;&gt;Node6 -->
<g id="edge6" class="edge">
<title>Node2&#45;&gt;Node6</title>
<path fill="none" stroke="#191970" d="M154.1573,-168.2977C146.141,-159.4941 136.0238,-148.3833 127.71,-139.2529"/>
<polygon fill="#191970" stroke="#191970" points="130.2869,-136.8845 120.9663,-131.8469 125.1112,-141.5974 130.2869,-136.8845"/>
</g>
<!-- Node6&#45;&gt;Node3 -->
<g id="edge7" class="edge">
<title>Node6&#45;&gt;Node3</title>
<path fill="none" stroke="#191970" d="M102.5939,-112.2455C94.8507,-104.2155 83.688,-92.6394 74.4682,-83.0781"/>
<polygon fill="#191970" stroke="#191970" points="76.7591,-80.4117 67.2983,-75.6427 71.7202,-85.2706 76.7591,-80.4117"/>
</g>
<!-- Node6&#45;&gt;Node4 -->
<g id="edge8" class="edge">
<title>Node6&#45;&gt;Node4</title>
<path fill="none" stroke="#191970" d="M116.6846,-112.0907C124.2247,-97.3079 140.5165,-69.7502 163,-56 198.5051,-34.2862 318.6349,-19.3103 376.849,-13.1479"/>
<polygon fill="#191970" stroke="#191970" points="377.3778,-16.612 386.9639,-12.1002 376.6565,-9.6492 377.3778,-16.612"/>
</g>
<!-- Node6&#45;&gt;Node5 -->
<g id="edge9" class="edge">
<title>Node6&#45;&gt;Node5</title>
<path fill="none" stroke="#191970" d="M126.1091,-112.2455C138.4209,-103.7337 156.4958,-91.2375 170.7538,-81.3801"/>
<polygon fill="#191970" stroke="#191970" points="172.8174,-84.2085 179.0526,-75.6427 168.8366,-78.4506 172.8174,-84.2085"/>
</g>
<!-- Node7&#45;&gt;Node3 -->
<g id="edge17" class="edge">
<title>Node7&#45;&gt;Node3</title>
<path fill="none" stroke="#191970" d="M429.7402,-168.8802C381.4239,-159.5389 318.8439,-146.4847 264,-132 203.7888,-116.0977 135.1459,-93.1039 94.2592,-78.8783"/>
<polygon fill="#191970" stroke="#191970" points="95.3268,-75.5439 84.7319,-75.5473 93.0164,-82.1517 95.3268,-75.5439"/>
</g>
<!-- Node7&#45;&gt;Node4 -->
<g id="edge12" class="edge">
<title>Node7&#45;&gt;Node4</title>
<path fill="none" stroke="#191970" d="M429.6392,-168.8493C390.9447,-159.9936 350.4665,-147.4285 339,-132 312.6176,-96.5015 358.6059,-50.1651 387.7657,-26.0957"/>
<polygon fill="#191970" stroke="#191970" points="390.2004,-28.6302 395.8233,-19.6506 385.8279,-23.1638 390.2004,-28.6302"/>
</g>
<!-- Node7&#45;&gt;Node5 -->
<g id="edge15" class="edge">
<title>Node7&#45;&gt;Node5</title>
<path fill="none" stroke="#191970" d="M429.8739,-168.738C391.5723,-160.314 345.5615,-148.1674 306,-132 272.5438,-118.3276 237.0323,-96.1614 214.9392,-81.3374"/>
<polygon fill="#191970" stroke="#191970" points="216.8483,-78.4029 206.612,-75.6697 212.9096,-84.1897 216.8483,-78.4029"/>
</g>
<!-- Node8 -->
<g id="node9" class="node">
<title>Node8</title>
<polygon fill="#ffffff" stroke="#bfbfbf" points="348.5,-112.5 348.5,-131.5 397.5,-131.5 397.5,-112.5 348.5,-112.5"/>
<text text-anchor="middle" x="373" y="-119.5" font-family="Helvetica,sans-Serif" font-size="10.00" fill="#000000">cassert</text>
</g>
<!-- Node7&#45;&gt;Node8 -->
<g id="edge11" class="edge">
<title>Node7&#45;&gt;Node8</title>
<path fill="none" stroke="#191970" d="M476.486,-168.4554C454.2288,-158.464 425.2353,-145.4487 403.6015,-135.7372"/>
<polygon fill="#191970" stroke="#191970" points="404.7865,-132.4327 394.2301,-131.5303 401.9197,-138.8187 404.7865,-132.4327"/>
</g>
<!-- Node9 -->
<g id="node10" class="node">
<title>Node9</title>
<polygon fill="#ffffff" stroke="#bfbfbf" points="415.5,-112.5 415.5,-131.5 466.5,-131.5 466.5,-112.5 415.5,-112.5"/>
<text text-anchor="middle" x="441" y="-119.5" font-family="Helvetica,sans-Serif" font-size="10.00" fill="#000000">numeric</text>
</g>
<!-- Node7&#45;&gt;Node9 -->
<g id="edge13" class="edge">
<title>Node7&#45;&gt;Node9</title>
<path fill="none" stroke="#191970" d="M492.9438,-168.2977C482.8671,-159.3163 470.096,-147.9334 459.7389,-138.702"/>
<polygon fill="#191970" stroke="#191970" points="461.8417,-135.8879 452.0478,-131.8469 457.1841,-141.1135 461.8417,-135.8879"/>
</g>
<!-- Node10 -->
<g id="node11" class="node">
<title>Node10</title>
<polygon fill="#ffffff" stroke="#bfbfbf" points="485,-112.5 485,-131.5 535,-131.5 535,-112.5 485,-112.5"/>
<text text-anchor="middle" x="510" y="-119.5" font-family="Helvetica,sans-Serif" font-size="10.00" fill="#000000">fstream</text>
</g>
<!-- Node7&#45;&gt;Node10 -->
<g id="edge14" class="edge">
<title>Node7&#45;&gt;Node10</title>
<path fill="none" stroke="#191970" d="M510,-168.2977C510,-160.3834 510,-150.6043 510,-142.0759"/>
<polygon fill="#191970" stroke="#191970" points="513.5001,-141.8469 510,-131.8469 506.5001,-141.847 513.5001,-141.8469"/>
</g>
<!-- Node11 -->
<g id="node12" class="node">
<title>Node11</title>
<polygon fill="#ffffff" stroke="#bfbfbf" points="553,-112.5 553,-131.5 609,-131.5 609,-112.5 553,-112.5"/>
<text text-anchor="middle" x="581" y="-119.5" font-family="Helvetica,sans-Serif" font-size="10.00" fill="#000000">algorithm</text>
</g>
<!-- Node7&#45;&gt;Node11 -->
<g id="edge16" class="edge">
<title>Node7&#45;&gt;Node11</title>
<path fill="none" stroke="#191970" d="M527.5506,-168.2977C538.0221,-159.2274 551.3211,-147.7077 562.0338,-138.4285"/>
<polygon fill="#191970" stroke="#191970" points="564.3649,-141.0398 569.632,-131.8469 559.7818,-135.7487 564.3649,-141.0398"/>
</g>
<!-- Node12 -->
<g id="node13" class="node">
<title>Node12</title>
<polygon fill="#ffffff" stroke="#bfbfbf" points="627,-112.5 627,-131.5 667,-131.5 667,-112.5 627,-112.5"/>
<text text-anchor="middle" x="647" y="-119.5" font-family="Helvetica,sans-Serif" font-size="10.00" fill="#000000">limits</text>
</g>
<!-- Node7&#45;&gt;Node12 -->
<g id="edge18" class="edge">
<title>Node7&#45;&gt;Node12</title>
<path fill="none" stroke="#191970" d="M543.514,-168.4554C566.1834,-158.279 595.8409,-144.9656 617.5927,-135.2011"/>
<polygon fill="#191970" stroke="#191970" points="619.2875,-138.2768 626.9771,-130.9884 616.4207,-131.8908 619.2875,-138.2768"/>
</g>
<!-- Node13 -->
<g id="node14" class="node">
<title>Node13</title>
<g id="a_node14"><a xlink:href="_feature_vector_8h.html" target="_top" xlink:title="FeatureVector.h">
<polygon fill="#ffffff" stroke="#000000" points="805,-112.5 805,-131.5 891,-131.5 891,-112.5 805,-112.5"/>
<text text-anchor="middle" x="848" y="-119.5" font-family="Helvetica,sans-Serif" font-size="10.00" fill="#000000">FeatureVector.h</text>
</a>
</g>
</g>
<!-- Node7&#45;&gt;Node13 -->
<g id="edge19" class="edge">
<title>Node7&#45;&gt;Node13</title>
<path fill="none" stroke="#191970" d="M590.1776,-169.3238C645.0719,-159.5569 719.8102,-146.1403 794.7797,-132.2124"/>
<polygon fill="#191970" stroke="#191970" points="795.6862,-135.6038 804.8772,-130.3335 794.4057,-128.7219 795.6862,-135.6038"/>
</g>
<!-- Node14 -->
<g id="node15" class="node">
<title>Node14</title>
<g id="a_node15"><a xlink:href="_bow_vector_8h.html" target="_top" xlink:title="BowVector.h">
<polygon fill="#ffffff" stroke="#000000" points="882.5,-56.5 882.5,-75.5 955.5,-75.5 955.5,-56.5 882.5,-56.5"/>
<text text-anchor="middle" x="919" y="-63.5" font-family="Helvetica,sans-Serif" font-size="10.00" fill="#000000">BowVector.h</text>
</a>
</g>
</g>
<!-- Node7&#45;&gt;Node14 -->
<g id="edge27" class="edge">
<title>Node7&#45;&gt;Node14</title>
<path fill="none" stroke="#191970" d="M590.1396,-177.5935C697.4168,-168.9827 876.9698,-151.831 900,-132 913.1043,-120.7161 917.4588,-101.0345 918.7717,-86.0919"/>
<polygon fill="#191970" stroke="#191970" points="922.282,-85.9663 919.2773,-75.8065 915.2904,-85.6226 922.282,-85.9663"/>
</g>
<!-- Node17 -->
<g id="node18" class="node">
<title>Node17</title>
<g id="a_node18"><a xlink:href="_scoring_object_8h.html" target="_top" xlink:title="ScoringObject.h">
<polygon fill="#ffffff" stroke="#000000" points="947,-112.5 947,-131.5 1033,-131.5 1033,-112.5 947,-112.5"/>
<text text-anchor="middle" x="990" y="-119.5" font-family="Helvetica,sans-Serif" font-size="10.00" fill="#000000">ScoringObject.h</text>
</a>
</g>
</g>
<!-- Node7&#45;&gt;Node17 -->
<g id="edge28" class="edge">
<title>Node7&#45;&gt;Node17</title>
<path fill="none" stroke="#191970" d="M590.0812,-175.0178C675.2734,-165.6981 813.9037,-149.6845 933,-132 934.2578,-131.8132 935.5305,-131.6205 936.8136,-131.4228"/>
<polygon fill="#191970" stroke="#191970" points="937.4574,-134.8644 946.7787,-129.8283 936.3513,-127.9524 937.4574,-134.8644"/>
</g>
<!-- Node18 -->
<g id="node19" class="node">
<title>Node18</title>
<g id="a_node19"><a xlink:href="_random_8h.html" target="_top" xlink:title="../DUtils/Random.h">
<polygon fill="#ffffff" stroke="#000000" points="685.5,-112.5 685.5,-131.5 786.5,-131.5 786.5,-112.5 685.5,-112.5"/>
<text text-anchor="middle" x="736" y="-119.5" font-family="Helvetica,sans-Serif" font-size="10.00" fill="#000000">../DUtils/Random.h</text>
</a>
</g>
</g>
<!-- Node7&#45;&gt;Node18 -->
<g id="edge30" class="edge">
<title>Node7&#45;&gt;Node18</title>
<path fill="none" stroke="#191970" d="M565.2858,-168.4554C603.9868,-157.9239 655.034,-144.0328 691.1959,-134.1923"/>
<polygon fill="#191970" stroke="#191970" points="692.2479,-137.5333 700.978,-131.5303 690.4099,-130.779 692.2479,-137.5333"/>
</g>
<!-- Node13&#45;&gt;Node4 -->
<g id="edge25" class="edge">
<title>Node13&#45;&gt;Node4</title>
<path fill="none" stroke="#191970" d="M838.6264,-112.4242C823.4344,-97.5616 791.8122,-69.2727 759,-56 701.5997,-32.7814 516.7605,-17.5578 441.4199,-12.1734"/>
<polygon fill="#191970" stroke="#191970" points="441.3474,-8.6598 431.1267,-11.4506 440.857,-15.6426 441.3474,-8.6598"/>
</g>
<!-- Node13&#45;&gt;Node14 -->
<g id="edge20" class="edge">
<title>Node13&#45;&gt;Node14</title>
<path fill="none" stroke="#191970" d="M860.3673,-112.2455C870.9554,-103.8943 886.4064,-91.7076 898.7893,-81.9408"/>
<polygon fill="#191970" stroke="#191970" points="901.0903,-84.5837 906.7745,-75.6427 896.7553,-79.0875 901.0903,-84.5837"/>
</g>
<!-- Node15 -->
<g id="node16" class="node">
<title>Node15</title>
<polygon fill="#ffffff" stroke="#bfbfbf" points="882,-.5 882,-19.5 936,-19.5 936,-.5 882,-.5"/>
<text text-anchor="middle" x="909" y="-7.5" font-family="Helvetica,sans-Serif" font-size="10.00" fill="#000000">iostream</text>
</g>
<!-- Node13&#45;&gt;Node15 -->
<g id="edge26" class="edge">
<title>Node13&#45;&gt;Node15</title>
<path fill="none" stroke="#191970" d="M850.9145,-112.2256C855.064,-98.9994 863.3649,-74.8866 874,-56 879.6277,-46.0059 887.207,-35.7665 893.8734,-27.4929"/>
<polygon fill="#191970" stroke="#191970" points="896.6704,-29.6034 900.37,-19.6754 891.2867,-25.1294 896.6704,-29.6034"/>
</g>
<!-- Node16 -->
<g id="node17" class="node">
<title>Node16</title>
<polygon fill="#ffffff" stroke="#bfbfbf" points="808.5,-.5 808.5,-19.5 843.5,-19.5 843.5,-.5 808.5,-.5"/>
<text text-anchor="middle" x="826" y="-7.5" font-family="Helvetica,sans-Serif" font-size="10.00" fill="#000000">map</text>
</g>
<!-- Node13&#45;&gt;Node16 -->
<g id="edge24" class="edge">
<title>Node13&#45;&gt;Node16</title>
<path fill="none" stroke="#191970" d="M846.1243,-112.4509C842.5199,-94.1013 834.5625,-53.5908 829.8047,-29.3693"/>
<polygon fill="#191970" stroke="#191970" points="833.2329,-28.6627 827.871,-19.5249 826.3641,-30.012 833.2329,-28.6627"/>
</g>
<!-- Node14&#45;&gt;Node4 -->
<g id="edge23" class="edge">
<title>Node14&#45;&gt;Node4</title>
<path fill="none" stroke="#191970" d="M882.3221,-61.9726C786.851,-51.4895 531.7792,-23.4816 441.3453,-13.5516"/>
<polygon fill="#191970" stroke="#191970" points="441.477,-10.0451 431.1547,-12.4327 440.7129,-17.0033 441.477,-10.0451"/>
</g>
<!-- Node14&#45;&gt;Node15 -->
<g id="edge21" class="edge">
<title>Node14&#45;&gt;Node15</title>
<path fill="none" stroke="#191970" d="M917.2581,-56.2455C915.9533,-48.9382 914.124,-38.6944 912.5187,-29.7046"/>
<polygon fill="#191970" stroke="#191970" points="915.9254,-28.8717 910.7219,-19.6427 909.0344,-30.1022 915.9254,-28.8717"/>
</g>
<!-- Node14&#45;&gt;Node16 -->
<g id="edge22" class="edge">
<title>Node14&#45;&gt;Node16</title>
<path fill="none" stroke="#191970" d="M902.8006,-56.2455C888.3982,-47.5731 867.1268,-34.7645 850.6201,-24.825"/>
<polygon fill="#191970" stroke="#191970" points="852.386,-21.8028 842.0137,-19.6427 848.775,-27.7996 852.386,-21.8028"/>
</g>
<!-- Node17&#45;&gt;Node14 -->
<g id="edge29" class="edge">
<title>Node17&#45;&gt;Node14</title>
<path fill="none" stroke="#191970" d="M977.6327,-112.2455C967.0446,-103.8943 951.5936,-91.7076 939.2107,-81.9408"/>
<polygon fill="#191970" stroke="#191970" points="941.2447,-79.0875 931.2255,-75.6427 936.9097,-84.5837 941.2447,-79.0875"/>
</g>
<!-- Node18&#45;&gt;Node4 -->
<g id="edge32" class="edge">
<title>Node18&#45;&gt;Node4</title>
<path fill="none" stroke="#191970" d="M708.1202,-112.4509C647.572,-91.7127 504.3815,-42.6689 440.6007,-20.8235"/>
<polygon fill="#191970" stroke="#191970" points="441.6655,-17.4886 431.0709,-17.5595 439.3973,-24.111 441.6655,-17.4886"/>
</g>
<!-- Node19 -->
<g id="node20" class="node">
<title>Node19</title>
<polygon fill="#ffffff" stroke="#bfbfbf" points="704.5,-56.5 704.5,-75.5 749.5,-75.5 749.5,-56.5 704.5,-56.5"/>
<text text-anchor="middle" x="727" y="-63.5" font-family="Helvetica,sans-Serif" font-size="10.00" fill="#000000">cstdlib</text>
</g>
<!-- Node18&#45;&gt;Node19 -->
<g id="edge31" class="edge">
<title>Node18&#45;&gt;Node19</title>
<path fill="none" stroke="#191970" d="M734.4323,-112.2455C733.2579,-104.9382 731.6116,-94.6944 730.1668,-85.7046"/>
<polygon fill="#191970" stroke="#191970" points="733.5922,-84.9606 728.5497,-75.6427 726.6809,-86.0714 733.5922,-84.9606"/>
</g>
</g>
</svg>
