<?xml version="1.0" encoding="UTF-8" standalone="no"?>
<!DOCTYPE svg PUBLIC "-//W3C//DTD SVG 1.1//EN"
 "http://www.w3.org/Graphics/SVG/1.1/DTD/svg11.dtd">
<!-- Generated by graphviz version 2.40.1 (20161225.0304)
 -->
<!-- Title: /home/alejandro/Desarrollo eclipse/os1/include/MapPoint.h Pages: 1 -->
<svg width="1292pt" height="464pt"
 viewBox="0.00 0.00 1291.50 464.00" xmlns="http://www.w3.org/2000/svg" xmlns:xlink="http://www.w3.org/1999/xlink">
<g id="graph0" class="graph" transform="scale(1 1) rotate(0) translate(4 460)">
<title>/home/alejandro/Desarrollo eclipse/os1/include/MapPoint.h</title>
<polygon fill="#ffffff" stroke="transparent" points="-4,4 -4,-460 1287.5,-460 1287.5,4 -4,4"/>
<!-- Node0 -->
<g id="node1" class="node">
<title>Node0</title>
<polygon fill="#bfbfbf" stroke="#000000" points="758.5,-425.5 758.5,-455.5 913.5,-455.5 913.5,-425.5 758.5,-425.5"/>
<text text-anchor="start" x="766.5" y="-443.5" font-family="Helvetica,sans-Serif" font-size="10.00" fill="#000000">/home/alejandro/Desarrollo</text>
<text text-anchor="middle" x="836" y="-432.5" font-family="Helvetica,sans-Serif" font-size="10.00" fill="#000000"> eclipse/os1/include/MapPoint.h</text>
</g>
<!-- Node1 -->
<g id="node2" class="node">
<title>Node1</title>
<g id="a_node2"><a xlink:href="_key_frame_8h.html" target="_top" xlink:title="KeyFrame.h">
<polygon fill="#ffffff" stroke="#000000" points="993,-369.5 993,-388.5 1063,-388.5 1063,-369.5 993,-369.5"/>
<text text-anchor="middle" x="1028" y="-376.5" font-family="Helvetica,sans-Serif" font-size="10.00" fill="#000000">KeyFrame.h</text>
</a>
</g>
</g>
<!-- Node0&#45;&gt;Node1 -->
<g id="edge1" class="edge">
<title>Node0&#45;&gt;Node1</title>
<path fill="none" stroke="#191970" d="M882.9685,-425.4554C915.2852,-415.104 957.7351,-401.5067 988.3499,-391.7004"/>
<polygon fill="#191970" stroke="#191970" points="989.7911,-394.914 998.2468,-388.5303 987.6557,-388.2477 989.7911,-394.914"/>
</g>
<!-- Node9 -->
<g id="node10" class="node">
<title>Node9</title>
<polygon fill="#ffffff" stroke="#bfbfbf" points="244,-62 244,-81 360,-81 360,-62 244,-62"/>
<text text-anchor="middle" x="302" y="-69" font-family="Helvetica,sans-Serif" font-size="10.00" fill="#000000">opencv2/core/core.hpp</text>
</g>
<!-- Node0&#45;&gt;Node9 -->
<g id="edge58" class="edge">
<title>Node0&#45;&gt;Node9</title>
<path fill="none" stroke="#191970" d="M827.1225,-425.4552C812.1127,-400.6416 780.0157,-350.1845 746,-313 720.0343,-284.6154 713.646,-275.6506 680,-257 548.2147,-183.949 477.3393,-244.6767 357,-154 334.9602,-137.3928 318.9556,-109.2326 310.0704,-90.5014"/>
<polygon fill="#191970" stroke="#191970" points="313.1762,-88.8745 305.8735,-81.1985 306.7955,-91.7531 313.1762,-88.8745"/>
</g>
<!-- Node24 -->
<g id="node25" class="node">
<title>Node24</title>
<polygon fill="#ffffff" stroke="#bfbfbf" points="1042,-257.5 1042,-276.5 1086,-276.5 1086,-257.5 1042,-257.5"/>
<text text-anchor="middle" x="1064" y="-264.5" font-family="Helvetica,sans-Serif" font-size="10.00" fill="#000000">mutex</text>
</g>
<!-- Node0&#45;&gt;Node24 -->
<g id="edge59" class="edge">
<title>Node0&#45;&gt;Node24</title>
<path fill="none" stroke="#191970" d="M913.7311,-433.9229C974.6391,-426.9673 1052.2726,-413.4965 1072,-389 1095.6363,-359.6496 1082.6408,-312.3319 1072.4546,-286.0843"/>
<polygon fill="#191970" stroke="#191970" points="1075.5628,-284.4414 1068.5075,-276.5374 1069.0938,-287.116 1075.5628,-284.4414"/>
</g>
<!-- Node25 -->
<g id="node26" class="node">
<title>Node25</title>
<g id="a_node26"><a xlink:href="_frame_8h.html" target="_top" xlink:title="Frame.h">
<polygon fill="#ffffff" stroke="#000000" points="684.5,-313.5 684.5,-332.5 737.5,-332.5 737.5,-313.5 684.5,-313.5"/>
<text text-anchor="middle" x="711" y="-320.5" font-family="Helvetica,sans-Serif" font-size="10.00" fill="#000000">Frame.h</text>
</a>
</g>
</g>
<!-- Node0&#45;&gt;Node25 -->
<g id="edge43" class="edge">
<title>Node0&#45;&gt;Node25</title>
<path fill="none" stroke="#191970" d="M802.3862,-425.327C786.305,-415.8851 767.6291,-402.9169 753,-389 737.9725,-374.7041 723.7954,-355.7442 715.7979,-341.8148"/>
<polygon fill="#191970" stroke="#191970" points="718.8082,-340.0137 711.1429,-332.6997 712.5741,-343.1974 718.8082,-340.0137"/>
</g>
<!-- Node28 -->
<g id="node29" class="node">
<title>Node28</title>
<g id="a_node29"><a xlink:href="_map_8h.html" target="_top" xlink:title="Map.h">
<polygon fill="#ffffff" stroke="#000000" points="868,-313.5 868,-332.5 912,-332.5 912,-313.5 868,-313.5"/>
<text text-anchor="middle" x="890" y="-320.5" font-family="Helvetica,sans-Serif" font-size="10.00" fill="#000000">Map.h</text>
</a>
</g>
</g>
<!-- Node0&#45;&gt;Node28 -->
<g id="edge54" class="edge">
<title>Node0&#45;&gt;Node28</title>
<path fill="none" stroke="#191970" d="M843.0596,-425.1389C852.9213,-403.6806 870.8018,-364.7738 881.4196,-341.6702"/>
<polygon fill="#191970" stroke="#191970" points="884.611,-343.1074 885.6067,-332.5595 878.2506,-340.1843 884.611,-343.1074"/>
</g>
<!-- Node2 -->
<g id="node3" class="node">
<title>Node2</title>
<g id="a_node3"><a xlink:href="_bow_vector_8h.html" target="_top" xlink:title="../Thirdparty/DBoW2\l/DBoW2/BowVector.h">
<polygon fill="#ffffff" stroke="#000000" points="1040.5,-56.5 1040.5,-86.5 1153.5,-86.5 1153.5,-56.5 1040.5,-56.5"/>
<text text-anchor="start" x="1048.5" y="-74.5" font-family="Helvetica,sans-Serif" font-size="10.00" fill="#000000">../Thirdparty/DBoW2</text>
<text text-anchor="middle" x="1097" y="-63.5" font-family="Helvetica,sans-Serif" font-size="10.00" fill="#000000">/DBoW2/BowVector.h</text>
</a>
</g>
</g>
<!-- Node1&#45;&gt;Node2 -->
<g id="edge2" class="edge">
<title>Node1&#45;&gt;Node2</title>
<path fill="none" stroke="#191970" d="M1037.7525,-369.443C1054.0527,-352.6149 1085.9389,-315.7871 1095,-277 1109.8379,-213.4849 1104.5039,-135.8877 1100.2413,-96.7107"/>
<polygon fill="#191970" stroke="#191970" points="1103.7119,-96.2543 1099.0851,-86.7232 1096.7584,-97.0594 1103.7119,-96.2543"/>
</g>
<!-- Node6 -->
<g id="node7" class="node">
<title>Node6</title>
<g id="a_node7"><a xlink:href="_feature_vector_8h.html" target="_top" xlink:title="../Thirdparty/DBoW2\l/DBoW2/FeatureVector.h">
<polygon fill="#ffffff" stroke="#000000" points="1156.5,-123.5 1156.5,-153.5 1283.5,-153.5 1283.5,-123.5 1156.5,-123.5"/>
<text text-anchor="start" x="1164.5" y="-141.5" font-family="Helvetica,sans-Serif" font-size="10.00" fill="#000000">../Thirdparty/DBoW2</text>
<text text-anchor="middle" x="1220" y="-130.5" font-family="Helvetica,sans-Serif" font-size="10.00" fill="#000000">/DBoW2/FeatureVector.h</text>
</a>
</g>
</g>
<!-- Node1&#45;&gt;Node6 -->
<g id="edge6" class="edge">
<title>Node1&#45;&gt;Node6</title>
<path fill="none" stroke="#191970" d="M1063.0356,-369.5651C1084.0417,-362.4168 1110.0682,-350.7412 1128,-333 1177.2394,-284.2838 1203.416,-204.0948 1214.1062,-163.5861"/>
<polygon fill="#191970" stroke="#191970" points="1217.5406,-164.2813 1216.6064,-153.7277 1210.7554,-162.5604 1217.5406,-164.2813"/>
</g>
<!-- Node7 -->
<g id="node8" class="node">
<title>Node7</title>
<g id="a_node8"><a xlink:href="_o_r_b_vocabulary_8h.html" target="_top" xlink:title="ORBVocabulary.h">
<polygon fill="#ffffff" stroke="#000000" points="804.5,-257.5 804.5,-276.5 899.5,-276.5 899.5,-257.5 804.5,-257.5"/>
<text text-anchor="middle" x="852" y="-264.5" font-family="Helvetica,sans-Serif" font-size="10.00" fill="#000000">ORBVocabulary.h</text>
</a>
</g>
</g>
<!-- Node1&#45;&gt;Node7 -->
<g id="edge11" class="edge">
<title>Node1&#45;&gt;Node7</title>
<path fill="none" stroke="#191970" d="M992.7501,-374.1238C948.4747,-367.2349 876.2,-353.2 859,-333 848.285,-320.4161 847.3797,-301.2138 848.6552,-286.7603"/>
<polygon fill="#191970" stroke="#191970" points="852.1292,-287.1854 849.9293,-276.8215 845.1861,-286.2953 852.1292,-287.1854"/>
</g>
<!-- Node21 -->
<g id="node22" class="node">
<title>Node21</title>
<g id="a_node22"><a xlink:href="_key_frame_database_8h.html" target="_top" xlink:title="KeyFrameDatabase.h">
<polygon fill="#ffffff" stroke="#000000" points="930,-313.5 930,-332.5 1042,-332.5 1042,-313.5 930,-313.5"/>
<text text-anchor="middle" x="986" y="-320.5" font-family="Helvetica,sans-Serif" font-size="10.00" fill="#000000">KeyFrameDatabase.h</text>
</a>
</g>
</g>
<!-- Node1&#45;&gt;Node21 -->
<g id="edge36" class="edge">
<title>Node1&#45;&gt;Node21</title>
<path fill="none" stroke="#191970" d="M1020.6842,-369.2455C1014.7821,-361.3761 1006.3258,-350.101 999.2406,-340.6542"/>
<polygon fill="#191970" stroke="#191970" points="1002.0321,-338.5427 993.232,-332.6427 996.432,-342.7427 1002.0321,-338.5427"/>
</g>
<!-- Node1&#45;&gt;Node24 -->
<g id="edge42" class="edge">
<title>Node1&#45;&gt;Node24</title>
<path fill="none" stroke="#191970" d="M1033.7263,-369.4605C1038.9427,-360.3796 1046.4988,-346.1815 1051,-333 1056.1892,-317.8037 1059.5544,-299.8914 1061.558,-286.5647"/>
<polygon fill="#191970" stroke="#191970" points="1065.0319,-286.9934 1062.9308,-276.609 1058.0975,-286.0371 1065.0319,-286.9934"/>
</g>
<!-- Node3 -->
<g id="node4" class="node">
<title>Node3</title>
<polygon fill="#ffffff" stroke="#bfbfbf" points="1094,-.5 1094,-19.5 1148,-19.5 1148,-.5 1094,-.5"/>
<text text-anchor="middle" x="1121" y="-7.5" font-family="Helvetica,sans-Serif" font-size="10.00" fill="#000000">iostream</text>
</g>
<!-- Node2&#45;&gt;Node3 -->
<g id="edge3" class="edge">
<title>Node2&#45;&gt;Node3</title>
<path fill="none" stroke="#191970" d="M1102.9326,-56.2977C1106.1252,-48.1166 1110.0954,-37.943 1113.5004,-29.2179"/>
<polygon fill="#191970" stroke="#191970" points="1116.7823,-30.4351 1117.1573,-19.8469 1110.2613,-27.8903 1116.7823,-30.4351"/>
</g>
<!-- Node4 -->
<g id="node5" class="node">
<title>Node4</title>
<polygon fill="#ffffff" stroke="#bfbfbf" points="1215.5,-.5 1215.5,-19.5 1250.5,-19.5 1250.5,-.5 1215.5,-.5"/>
<text text-anchor="middle" x="1233" y="-7.5" font-family="Helvetica,sans-Serif" font-size="10.00" fill="#000000">map</text>
</g>
<!-- Node2&#45;&gt;Node4 -->
<g id="edge4" class="edge">
<title>Node2&#45;&gt;Node4</title>
<path fill="none" stroke="#191970" d="M1130.2693,-56.4554C1153.5916,-45.9089 1184.3646,-31.9932 1206.1312,-22.1502"/>
<polygon fill="#191970" stroke="#191970" points="1207.7696,-25.2506 1215.4391,-17.9411 1204.8853,-18.8725 1207.7696,-25.2506"/>
</g>
<!-- Node5 -->
<g id="node6" class="node">
<title>Node5</title>
<polygon fill="#ffffff" stroke="#bfbfbf" points="394,-.5 394,-19.5 438,-19.5 438,-.5 394,-.5"/>
<text text-anchor="middle" x="416" y="-7.5" font-family="Helvetica,sans-Serif" font-size="10.00" fill="#000000">vector</text>
</g>
<!-- Node2&#45;&gt;Node5 -->
<g id="edge5" class="edge">
<title>Node2&#45;&gt;Node5</title>
<path fill="none" stroke="#191970" d="M1040.1619,-58.3597C1035.3862,-57.4786 1030.6191,-56.675 1026,-56 806.6157,-23.9415 539.3821,-13.5787 448.2331,-10.846"/>
<polygon fill="#191970" stroke="#191970" points="448.1025,-7.3409 438.0053,-10.5496 447.8997,-14.3379 448.1025,-7.3409"/>
</g>
<!-- Node6&#45;&gt;Node2 -->
<g id="edge7" class="edge">
<title>Node6&#45;&gt;Node2</title>
<path fill="none" stroke="#191970" d="M1192.3964,-123.4639C1175.1097,-114.0475 1152.6268,-101.8008 1133.8297,-91.5617"/>
<polygon fill="#191970" stroke="#191970" points="1135.393,-88.4277 1124.937,-86.7177 1132.0445,-94.5749 1135.393,-88.4277"/>
</g>
<!-- Node6&#45;&gt;Node3 -->
<g id="edge10" class="edge">
<title>Node6&#45;&gt;Node3</title>
<path fill="none" stroke="#191970" d="M1218.8674,-123.3351C1216.8542,-105.5751 1211.2936,-76.0402 1196,-56 1185.5097,-42.254 1169.6315,-31.6701 1155.1817,-24.1396"/>
<polygon fill="#191970" stroke="#191970" points="1156.4841,-20.8804 1145.9634,-19.6294 1153.4077,-27.1682 1156.4841,-20.8804"/>
</g>
<!-- Node6&#45;&gt;Node4 -->
<g id="edge8" class="edge">
<title>Node6&#45;&gt;Node4</title>
<path fill="none" stroke="#191970" d="M1225.2455,-123.3942C1228.4856,-113.2442 1232.3326,-99.4902 1234,-87 1235.8232,-73.3434 1234.1497,-69.777 1234,-56 1233.9057,-47.3235 1233.7114,-37.7282 1233.5189,-29.5559"/>
<polygon fill="#191970" stroke="#191970" points="1237.0168,-29.4229 1233.2671,-19.5138 1230.019,-29.5984 1237.0168,-29.4229"/>
</g>
<!-- Node6&#45;&gt;Node5 -->
<g id="edge9" class="edge">
<title>Node6&#45;&gt;Node5</title>
<path fill="none" stroke="#191970" d="M1214.2868,-123.4395C1206.0269,-104.0144 1188.7433,-70.9525 1162,-56 1099.0756,-20.8182 583.2254,-12.0536 448.2313,-10.3535"/>
<polygon fill="#191970" stroke="#191970" points="448.1603,-6.8525 438.1184,-10.2306 448.0751,-13.852 448.1603,-6.8525"/>
</g>
<!-- Node8 -->
<g id="node9" class="node">
<title>Node8</title>
<g id="a_node9"><a xlink:href="_f_o_r_b_8h.html" target="_top" xlink:title="../Thirdparty/DBoW2\l/DBoW2/FORB.h">
<polygon fill="#ffffff" stroke="#000000" points="154.5,-190.5 154.5,-220.5 261.5,-220.5 261.5,-190.5 154.5,-190.5"/>
<text text-anchor="start" x="162.5" y="-208.5" font-family="Helvetica,sans-Serif" font-size="10.00" fill="#000000">../Thirdparty/DBoW2</text>
<text text-anchor="middle" x="208" y="-197.5" font-family="Helvetica,sans-Serif" font-size="10.00" fill="#000000">/DBoW2/FORB.h</text>
</a>
</g>
</g>
<!-- Node7&#45;&gt;Node8 -->
<g id="edge12" class="edge">
<title>Node7&#45;&gt;Node8</title>
<path fill="none" stroke="#191970" d="M804.3836,-262.4528C690.2069,-251.5493 400.7735,-223.9093 271.7574,-211.5886"/>
<polygon fill="#191970" stroke="#191970" points="271.9227,-208.0886 261.6352,-210.622 271.2572,-215.0569 271.9227,-208.0886"/>
</g>
<!-- Node12 -->
<g id="node13" class="node">
<title>Node12</title>
<g id="a_node13"><a xlink:href="_templated_vocabulary_8h.html" target="_top" xlink:title="../Thirdparty/DBoW2\l/DBoW2/TemplatedVocabulary.h">
<polygon fill="#ffffff" stroke="#000000" points="645,-190.5 645,-220.5 805,-220.5 805,-190.5 645,-190.5"/>
<text text-anchor="start" x="653" y="-208.5" font-family="Helvetica,sans-Serif" font-size="10.00" fill="#000000">../Thirdparty/DBoW2</text>
<text text-anchor="middle" x="725" y="-197.5" font-family="Helvetica,sans-Serif" font-size="10.00" fill="#000000">/DBoW2/TemplatedVocabulary.h</text>
</a>
</g>
</g>
<!-- Node7&#45;&gt;Node12 -->
<g id="edge20" class="edge">
<title>Node7&#45;&gt;Node12</title>
<path fill="none" stroke="#191970" d="M832.1563,-257.3906C814.3318,-248.7591 787.6124,-235.8202 765.3145,-225.0224"/>
<polygon fill="#191970" stroke="#191970" points="766.5934,-221.7529 756.0677,-220.5446 763.5425,-228.0531 766.5934,-221.7529"/>
</g>
<!-- Node8&#45;&gt;Node5 -->
<g id="edge14" class="edge">
<title>Node8&#45;&gt;Node5</title>
<path fill="none" stroke="#191970" d="M171.4388,-190.4613C155.7578,-182.0894 138.8186,-170.0652 129,-154 106.2284,-116.7412 93.6097,-89.1777 122,-56 138.8877,-36.2646 310.6816,-19.1483 383.5761,-12.7156"/>
<polygon fill="#191970" stroke="#191970" points="383.9242,-16.1986 393.5832,-11.845 383.3174,-9.225 383.9242,-16.1986"/>
</g>
<!-- Node8&#45;&gt;Node9 -->
<g id="edge13" class="edge">
<title>Node8&#45;&gt;Node9</title>
<path fill="none" stroke="#191970" d="M219.0832,-190.229C226.4727,-180.0093 236.3761,-166.2396 245,-154 260.5672,-131.906 278.2163,-106.2681 289.697,-89.5103"/>
<polygon fill="#191970" stroke="#191970" points="292.6296,-91.4223 295.3881,-81.1929 286.8525,-87.4694 292.6296,-91.4223"/>
</g>
<!-- Node10 -->
<g id="node11" class="node">
<title>Node10</title>
<polygon fill="#ffffff" stroke="#bfbfbf" points="131.5,-62 131.5,-81 172.5,-81 172.5,-62 131.5,-62"/>
<text text-anchor="middle" x="152" y="-69" font-family="Helvetica,sans-Serif" font-size="10.00" fill="#000000">string</text>
</g>
<!-- Node8&#45;&gt;Node10 -->
<g id="edge15" class="edge">
<title>Node8&#45;&gt;Node10</title>
<path fill="none" stroke="#191970" d="M175.5457,-190.3708C161.273,-181.8631 145.9669,-169.7522 138,-154 127.8053,-133.8431 135.1588,-107.7381 142.5049,-90.3458"/>
<polygon fill="#191970" stroke="#191970" points="145.7017,-91.7712 146.6967,-81.2232 139.3411,-88.8485 145.7017,-91.7712"/>
</g>
<!-- Node11 -->
<g id="node12" class="node">
<title>Node11</title>
<g id="a_node12"><a xlink:href="_f_class_8h.html" target="_top" xlink:title="FClass.h">
<polygon fill="#ffffff" stroke="#000000" points="180,-129 180,-148 236,-148 236,-129 180,-129"/>
<text text-anchor="middle" x="208" y="-136" font-family="Helvetica,sans-Serif" font-size="10.00" fill="#000000">FClass.h</text>
</a>
</g>
</g>
<!-- Node8&#45;&gt;Node11 -->
<g id="edge16" class="edge">
<title>Node8&#45;&gt;Node11</title>
<path fill="none" stroke="#191970" d="M208,-190.2967C208,-180.7699 208,-168.3954 208,-158.1306"/>
<polygon fill="#191970" stroke="#191970" points="211.5001,-158.0549 208,-148.055 204.5001,-158.055 211.5001,-158.0549"/>
</g>
<!-- Node11&#45;&gt;Node5 -->
<g id="edge18" class="edge">
<title>Node11&#45;&gt;Node5</title>
<path fill="none" stroke="#191970" d="M208.2874,-128.7758C209.3414,-111.5267 214.082,-75.5534 235,-56 256.3698,-36.0243 337.5401,-21.3546 383.5918,-14.4355"/>
<polygon fill="#191970" stroke="#191970" points="384.2813,-17.872 393.6692,-12.9608 383.2677,-10.9457 384.2813,-17.872"/>
</g>
<!-- Node11&#45;&gt;Node9 -->
<g id="edge17" class="edge">
<title>Node11&#45;&gt;Node9</title>
<path fill="none" stroke="#191970" d="M221.4679,-128.9005C236.8244,-117.9549 262.1463,-99.9064 280.2976,-86.9688"/>
<polygon fill="#191970" stroke="#191970" points="282.4454,-89.736 288.5571,-81.0817 278.3824,-84.0358 282.4454,-89.736"/>
</g>
<!-- Node11&#45;&gt;Node10 -->
<g id="edge19" class="edge">
<title>Node11&#45;&gt;Node10</title>
<path fill="none" stroke="#191970" d="M199.9766,-128.9005C191.2439,-118.4525 177.1018,-101.5325 166.4292,-88.7635"/>
<polygon fill="#191970" stroke="#191970" points="169.1072,-86.5099 160.0086,-81.0817 163.7362,-90.9991 169.1072,-86.5099"/>
</g>
<!-- Node12&#45;&gt;Node2 -->
<g id="edge30" class="edge">
<title>Node12&#45;&gt;Node2</title>
<path fill="none" stroke="#191970" d="M805.2333,-200.5186C860.6653,-194.6481 934.9348,-181.8595 995,-154 1026.5555,-139.3639 1056.7633,-112.8281 1076.0003,-93.8002"/>
<polygon fill="#191970" stroke="#191970" points="1078.5141,-96.2358 1083.0586,-86.665 1073.5376,-91.3129 1078.5141,-96.2358"/>
</g>
<!-- Node12&#45;&gt;Node5 -->
<g id="edge22" class="edge">
<title>Node12&#45;&gt;Node5</title>
<path fill="none" stroke="#191970" d="M644.8155,-201.6519C569.1555,-196.2501 463.2304,-183.5175 435,-154 402.8677,-120.4028 407.162,-60.5144 412.0819,-29.6265"/>
<polygon fill="#191970" stroke="#191970" points="415.549,-30.12 413.8565,-19.6612 408.6574,-28.8927 415.549,-30.12"/>
</g>
<!-- Node12&#45;&gt;Node6 -->
<g id="edge29" class="edge">
<title>Node12&#45;&gt;Node6</title>
<path fill="none" stroke="#191970" d="M805.0805,-194.6608C899.3667,-181.8989 1054.6774,-160.877 1146.1656,-148.4937"/>
<polygon fill="#191970" stroke="#191970" points="1146.7387,-151.9482 1156.1789,-147.1384 1145.7998,-145.0114 1146.7387,-151.9482"/>
</g>
<!-- Node12&#45;&gt;Node9 -->
<g id="edge27" class="edge">
<title>Node12&#45;&gt;Node9</title>
<path fill="none" stroke="#191970" d="M644.7902,-197.5858C563.5958,-188.7109 444.1823,-173.038 402,-154 383.9247,-145.8421 343.3491,-109.8227 319.8153,-88.1654"/>
<polygon fill="#191970" stroke="#191970" points="321.9813,-85.401 312.2666,-81.1731 317.2244,-90.5364 321.9813,-85.401"/>
</g>
<!-- Node12&#45;&gt;Node10 -->
<g id="edge25" class="edge">
<title>Node12&#45;&gt;Node10</title>
<path fill="none" stroke="#191970" d="M644.9816,-203.1762C500.0759,-198.2302 205.9018,-184.5229 171,-154 153.3351,-138.5514 150.3142,-110.2816 150.5422,-91.1928"/>
<polygon fill="#191970" stroke="#191970" points="154.0398,-91.3198 150.9657,-81.1808 147.0461,-91.0239 154.0398,-91.3198"/>
</g>
<!-- Node13 -->
<g id="node14" class="node">
<title>Node13</title>
<polygon fill="#ffffff" stroke="#bfbfbf" points="563.5,-129 563.5,-148 612.5,-148 612.5,-129 563.5,-129"/>
<text text-anchor="middle" x="588" y="-136" font-family="Helvetica,sans-Serif" font-size="10.00" fill="#000000">cassert</text>
</g>
<!-- Node12&#45;&gt;Node13 -->
<g id="edge21" class="edge">
<title>Node12&#45;&gt;Node13</title>
<path fill="none" stroke="#191970" d="M694.2545,-190.4639C671.0606,-179.1209 639.4684,-163.6707 616.7706,-152.5703"/>
<polygon fill="#191970" stroke="#191970" points="618.1588,-149.3531 607.6379,-148.1039 615.0835,-155.6414 618.1588,-149.3531"/>
</g>
<!-- Node14 -->
<g id="node15" class="node">
<title>Node14</title>
<polygon fill="#ffffff" stroke="#bfbfbf" points="630.5,-129 630.5,-148 681.5,-148 681.5,-129 630.5,-129"/>
<text text-anchor="middle" x="656" y="-136" font-family="Helvetica,sans-Serif" font-size="10.00" fill="#000000">numeric</text>
</g>
<!-- Node12&#45;&gt;Node14 -->
<g id="edge23" class="edge">
<title>Node12&#45;&gt;Node14</title>
<path fill="none" stroke="#191970" d="M709.3428,-190.2967C698.5923,-179.8578 684.3206,-165.9997 673.2445,-155.2446"/>
<polygon fill="#191970" stroke="#191970" points="675.4527,-152.5103 665.8402,-148.055 670.5763,-157.5323 675.4527,-152.5103"/>
</g>
<!-- Node15 -->
<g id="node16" class="node">
<title>Node15</title>
<polygon fill="#ffffff" stroke="#bfbfbf" points="700,-129 700,-148 750,-148 750,-129 700,-129"/>
<text text-anchor="middle" x="725" y="-136" font-family="Helvetica,sans-Serif" font-size="10.00" fill="#000000">fstream</text>
</g>
<!-- Node12&#45;&gt;Node15 -->
<g id="edge24" class="edge">
<title>Node12&#45;&gt;Node15</title>
<path fill="none" stroke="#191970" d="M725,-190.2967C725,-180.7699 725,-168.3954 725,-158.1306"/>
<polygon fill="#191970" stroke="#191970" points="728.5001,-158.0549 725,-148.055 721.5001,-158.055 728.5001,-158.0549"/>
</g>
<!-- Node16 -->
<g id="node17" class="node">
<title>Node16</title>
<polygon fill="#ffffff" stroke="#bfbfbf" points="768,-129 768,-148 824,-148 824,-129 768,-129"/>
<text text-anchor="middle" x="796" y="-136" font-family="Helvetica,sans-Serif" font-size="10.00" fill="#000000">algorithm</text>
</g>
<!-- Node12&#45;&gt;Node16 -->
<g id="edge26" class="edge">
<title>Node12&#45;&gt;Node16</title>
<path fill="none" stroke="#191970" d="M741.111,-190.2967C752.2805,-179.7564 767.144,-165.7303 778.5867,-154.9323"/>
<polygon fill="#191970" stroke="#191970" points="781.0037,-157.4638 785.8746,-148.055 776.1994,-152.3727 781.0037,-157.4638"/>
</g>
<!-- Node17 -->
<g id="node18" class="node">
<title>Node17</title>
<polygon fill="#ffffff" stroke="#bfbfbf" points="842,-129 842,-148 882,-148 882,-129 842,-129"/>
<text text-anchor="middle" x="862" y="-136" font-family="Helvetica,sans-Serif" font-size="10.00" fill="#000000">limits</text>
</g>
<!-- Node12&#45;&gt;Node17 -->
<g id="edge28" class="edge">
<title>Node12&#45;&gt;Node17</title>
<path fill="none" stroke="#191970" d="M757.8001,-190.337C779.306,-180.2779 807.9711,-166.6479 833,-154 833.6878,-153.6524 834.3838,-153.2984 835.0851,-152.9395"/>
<polygon fill="#191970" stroke="#191970" points="837.0336,-155.8705 844.277,-148.1384 833.7928,-149.6659 837.0336,-155.8705"/>
</g>
<!-- Node18 -->
<g id="node19" class="node">
<title>Node18</title>
<g id="a_node19"><a xlink:href="_scoring_object_8h.html" target="_top" xlink:title="ScoringObject.h">
<polygon fill="#ffffff" stroke="#000000" points="900,-129 900,-148 986,-148 986,-129 900,-129"/>
<text text-anchor="middle" x="943" y="-136" font-family="Helvetica,sans-Serif" font-size="10.00" fill="#000000">ScoringObject.h</text>
</a>
</g>
</g>
<!-- Node12&#45;&gt;Node18 -->
<g id="edge31" class="edge">
<title>Node12&#45;&gt;Node18</title>
<path fill="none" stroke="#191970" d="M773.9235,-190.4639C812.593,-178.5792 865.9328,-162.1858 902.2934,-151.0108"/>
<polygon fill="#191970" stroke="#191970" points="903.5419,-154.2887 912.0724,-148.0053 901.4854,-147.5976 903.5419,-154.2887"/>
</g>
<!-- Node19 -->
<g id="node20" class="node">
<title>Node19</title>
<g id="a_node20"><a xlink:href="_random_8h.html" target="_top" xlink:title="../DUtils/Random.h">
<polygon fill="#ffffff" stroke="#000000" points="444.5,-129 444.5,-148 545.5,-148 545.5,-129 444.5,-129"/>
<text text-anchor="middle" x="495" y="-136" font-family="Helvetica,sans-Serif" font-size="10.00" fill="#000000">../DUtils/Random.h</text>
</a>
</g>
</g>
<!-- Node12&#45;&gt;Node19 -->
<g id="edge33" class="edge">
<title>Node12&#45;&gt;Node19</title>
<path fill="none" stroke="#191970" d="M673.3835,-190.4639C632.411,-178.5284 575.8281,-162.0456 537.4565,-150.8678"/>
<polygon fill="#191970" stroke="#191970" points="538.2099,-147.4418 527.6301,-148.0053 536.2521,-154.1625 538.2099,-147.4418"/>
</g>
<!-- Node18&#45;&gt;Node2 -->
<g id="edge32" class="edge">
<title>Node18&#45;&gt;Node2</title>
<path fill="none" stroke="#191970" d="M965.0644,-128.9005C987.9293,-118.9528 1024.2793,-103.1382 1053.0401,-90.6254"/>
<polygon fill="#191970" stroke="#191970" points="1054.6989,-93.7207 1062.4724,-86.5218 1051.9063,-87.3018 1054.6989,-93.7207"/>
</g>
<!-- Node19&#45;&gt;Node5 -->
<g id="edge35" class="edge">
<title>Node19&#45;&gt;Node5</title>
<path fill="none" stroke="#191970" d="M498.4881,-128.7911C503.7003,-112.4879 511.5441,-79.1275 498,-56 487.2121,-37.5788 466.0459,-25.9739 447.9208,-19.0285"/>
<polygon fill="#191970" stroke="#191970" points="448.8441,-15.6433 438.2493,-15.6356 446.5268,-22.2486 448.8441,-15.6433"/>
</g>
<!-- Node20 -->
<g id="node21" class="node">
<title>Node20</title>
<polygon fill="#ffffff" stroke="#bfbfbf" points="444.5,-62 444.5,-81 489.5,-81 489.5,-62 444.5,-62"/>
<text text-anchor="middle" x="467" y="-69" font-family="Helvetica,sans-Serif" font-size="10.00" fill="#000000">cstdlib</text>
</g>
<!-- Node19&#45;&gt;Node20 -->
<g id="edge34" class="edge">
<title>Node19&#45;&gt;Node20</title>
<path fill="none" stroke="#191970" d="M490.9883,-128.9005C486.8298,-118.95 480.2182,-103.1292 474.9883,-90.6147"/>
<polygon fill="#191970" stroke="#191970" points="478.0896,-88.9588 471.0043,-81.0817 471.6309,-91.658 478.0896,-88.9588"/>
</g>
<!-- Node21&#45;&gt;Node5 -->
<g id="edge37" class="edge">
<title>Node21&#45;&gt;Node5</title>
<path fill="none" stroke="#191970" d="M990.4659,-313.2525C1004.228,-281.5966 1042.2903,-180.4119 995,-123 924.5784,-37.506 559.8229,-15.8138 448.378,-11.1417"/>
<polygon fill="#191970" stroke="#191970" points="448.2399,-7.6335 438.1076,-10.7299 447.9593,-14.6278 448.2399,-7.6335"/>
</g>
<!-- Node21&#45;&gt;Node7 -->
<g id="edge40" class="edge">
<title>Node21&#45;&gt;Node7</title>
<path fill="none" stroke="#191970" d="M962.9646,-313.3733C941.2612,-304.3032 908.5382,-290.6279 884.245,-280.4755"/>
<polygon fill="#191970" stroke="#191970" points="885.3111,-277.1278 874.7348,-276.5011 882.6119,-283.5865 885.3111,-277.1278"/>
</g>
<!-- Node22 -->
<g id="node23" class="node">
<title>Node22</title>
<polygon fill="#ffffff" stroke="#bfbfbf" points="890.5,-196 890.5,-215 919.5,-215 919.5,-196 890.5,-196"/>
<text text-anchor="middle" x="905" y="-203" font-family="Helvetica,sans-Serif" font-size="10.00" fill="#000000">list</text>
</g>
<!-- Node21&#45;&gt;Node22 -->
<g id="edge38" class="edge">
<title>Node21&#45;&gt;Node22</title>
<path fill="none" stroke="#191970" d="M983.0781,-313.4658C978.7093,-300.0965 969.6179,-275.3601 957,-257 947.9392,-243.8157 935.2128,-231.1428 924.6181,-221.6674"/>
<polygon fill="#191970" stroke="#191970" points="926.8771,-218.9936 917.0279,-215.0893 922.2926,-224.2835 926.8771,-218.9936"/>
</g>
<!-- Node23 -->
<g id="node24" class="node">
<title>Node23</title>
<polygon fill="#ffffff" stroke="#bfbfbf" points="918,-257.5 918,-276.5 948,-276.5 948,-257.5 918,-257.5"/>
<text text-anchor="middle" x="933" y="-264.5" font-family="Helvetica,sans-Serif" font-size="10.00" fill="#000000">set</text>
</g>
<!-- Node21&#45;&gt;Node23 -->
<g id="edge39" class="edge">
<title>Node21&#45;&gt;Node23</title>
<path fill="none" stroke="#191970" d="M976.7681,-313.2455C969.1683,-305.2155 958.2123,-293.6394 949.1632,-284.0781"/>
<polygon fill="#191970" stroke="#191970" points="951.542,-281.4998 942.1261,-276.6427 946.4579,-286.3115 951.542,-281.4998"/>
</g>
<!-- Node21&#45;&gt;Node24 -->
<g id="edge41" class="edge">
<title>Node21&#45;&gt;Node24</title>
<path fill="none" stroke="#191970" d="M999.5866,-313.2455C1011.3305,-304.814 1028.5199,-292.4729 1042.1882,-282.6598"/>
<polygon fill="#191970" stroke="#191970" points="1044.4871,-285.3179 1050.5691,-276.6427 1040.4046,-279.6316 1044.4871,-285.3179"/>
</g>
<!-- Node25&#45;&gt;Node0 -->
<g id="edge45" class="edge">
<title>Node25&#45;&gt;Node0</title>
<path fill="none" stroke="#191970" d="M723.0921,-332.6997C734.9635,-346.2656 752.325,-371.2342 771,-389 782.7719,-400.1988 797.1641,-410.7832 809.5161,-419.4103"/>
<polygon fill="#191970" stroke="#191970" points="807.8657,-422.524 818.0831,-425.327 811.8437,-416.7642 807.8657,-422.524"/>
</g>
<!-- Node25&#45;&gt;Node2 -->
<g id="edge46" class="edge">
<title>Node25&#45;&gt;Node2</title>
<path fill="none" stroke="#191970" d="M714.9957,-313.1615C721.4965,-298.471 735.8046,-271.0325 757,-257 821.7595,-214.1258 856.0364,-250.2102 928,-221 979.6411,-200.0388 992.8861,-191.6273 1034,-154 1053.0192,-136.5936 1070.456,-112.8772 1082.1393,-95.3393"/>
<polygon fill="#191970" stroke="#191970" points="1085.1778,-97.0872 1087.7024,-86.7975 1079.3121,-93.267 1085.1778,-97.0872"/>
</g>
<!-- Node25&#45;&gt;Node5 -->
<g id="edge44" class="edge">
<title>Node25&#45;&gt;Node5</title>
<path fill="none" stroke="#191970" d="M684.4256,-321.4754C555.3501,-313.7249 0,-276.2663 0,-205.5 0,-205.5 0,-205.5 0,-138.5 0,-87.4251 34.4268,-79.0591 80,-56 132.8267,-29.2707 310.0134,-16.1491 383.5682,-11.751"/>
<polygon fill="#191970" stroke="#191970" points="383.8617,-15.2399 393.6414,-11.1648 383.455,-8.2517 383.8617,-15.2399"/>
</g>
<!-- Node25&#45;&gt;Node6 -->
<g id="edge47" class="edge">
<title>Node25&#45;&gt;Node6</title>
<path fill="none" stroke="#191970" d="M719.7254,-313.4001C733.8974,-298.5044 763.5189,-270.171 795,-257 911.967,-208.0635 957.9039,-261.6568 1078,-221 1120.4014,-206.6456 1164.2058,-178.8662 1191.7428,-159.5286"/>
<polygon fill="#191970" stroke="#191970" points="1193.9811,-162.2312 1200.0894,-153.5745 1189.9159,-156.5326 1193.9811,-162.2312"/>
</g>
<!-- Node25&#45;&gt;Node7 -->
<g id="edge48" class="edge">
<title>Node25&#45;&gt;Node7</title>
<path fill="none" stroke="#191970" d="M735.2388,-313.3733C758.2789,-304.2226 793.1214,-290.3844 818.7501,-280.2057"/>
<polygon fill="#191970" stroke="#191970" points="820.0756,-283.4452 828.0775,-276.5011 817.4918,-276.9395 820.0756,-283.4452"/>
</g>
<!-- Node26 -->
<g id="node27" class="node">
<title>Node26</title>
<g id="a_node27"><a xlink:href="_o_r_bextractor_8h.html" target="_top" xlink:title="ORBextractor.h">
<polygon fill="#ffffff" stroke="#000000" points="360.5,-257.5 360.5,-276.5 445.5,-276.5 445.5,-257.5 360.5,-257.5"/>
<text text-anchor="middle" x="403" y="-264.5" font-family="Helvetica,sans-Serif" font-size="10.00" fill="#000000">ORBextractor.h</text>
</a>
</g>
</g>
<!-- Node25&#45;&gt;Node26 -->
<g id="edge49" class="edge">
<title>Node25&#45;&gt;Node26</title>
<path fill="none" stroke="#191970" d="M684.4735,-318.177C633.6755,-308.941 521.8265,-288.6048 455.4333,-276.5333"/>
<polygon fill="#191970" stroke="#191970" points="456.047,-273.0876 445.5822,-274.7422 454.7948,-279.9747 456.047,-273.0876"/>
</g>
<!-- Node27 -->
<g id="node28" class="node">
<title>Node27</title>
<polygon fill="#ffffff" stroke="#bfbfbf" points="564.5,-257.5 564.5,-276.5 671.5,-276.5 671.5,-257.5 564.5,-257.5"/>
<text text-anchor="middle" x="618" y="-264.5" font-family="Helvetica,sans-Serif" font-size="10.00" fill="#000000">opencv2/opencv.hpp</text>
</g>
<!-- Node25&#45;&gt;Node27 -->
<g id="edge53" class="edge">
<title>Node25&#45;&gt;Node27</title>
<path fill="none" stroke="#191970" d="M694.8006,-313.2455C680.3982,-304.5731 659.1268,-291.7645 642.6201,-281.825"/>
<polygon fill="#191970" stroke="#191970" points="644.386,-278.8028 634.0137,-276.6427 640.775,-284.7996 644.386,-278.8028"/>
</g>
<!-- Node26&#45;&gt;Node5 -->
<g id="edge50" class="edge">
<title>Node26&#45;&gt;Node5</title>
<path fill="none" stroke="#191970" d="M360.2508,-263.8711C296.0636,-258.438 178.7099,-245.4286 145,-221 83.7258,-176.5963 53.5348,-113.2662 103,-56 121.2165,-34.9106 307.2745,-18.3484 383.5988,-12.3902"/>
<polygon fill="#191970" stroke="#191970" points="383.909,-15.8768 393.6113,-11.6205 383.3724,-8.8974 383.909,-15.8768"/>
</g>
<!-- Node26&#45;&gt;Node9 -->
<g id="edge52" class="edge">
<title>Node26&#45;&gt;Node9</title>
<path fill="none" stroke="#191970" d="M394.8557,-257.3671C379.3828,-238.6233 345.5412,-195.4414 326,-154 316.293,-133.4143 309.6315,-108.0609 305.8334,-90.9356"/>
<polygon fill="#191970" stroke="#191970" points="309.2281,-90.0702 303.7477,-81.0029 302.3775,-91.5087 309.2281,-90.0702"/>
</g>
<!-- Node26&#45;&gt;Node22 -->
<g id="edge51" class="edge">
<title>Node26&#45;&gt;Node22</title>
<path fill="none" stroke="#191970" d="M445.7018,-263.0337C520.4916,-255.9057 679.9834,-239.8974 814,-221 836.5516,-217.82 862.1076,-213.3942 880.3831,-210.0856"/>
<polygon fill="#191970" stroke="#191970" points="881.0179,-213.5277 890.2244,-208.2845 879.7577,-206.642 881.0179,-213.5277"/>
</g>
<!-- Node28&#45;&gt;Node7 -->
<g id="edge55" class="edge">
<title>Node28&#45;&gt;Node7</title>
<path fill="none" stroke="#191970" d="M883.3809,-313.2455C878.0954,-305.4564 870.5459,-294.3308 864.1762,-284.9439"/>
<polygon fill="#191970" stroke="#191970" points="867.0545,-282.9522 858.5432,-276.6427 861.2621,-286.8827 867.0545,-282.9522"/>
</g>
<!-- Node28&#45;&gt;Node23 -->
<g id="edge56" class="edge">
<title>Node28&#45;&gt;Node23</title>
<path fill="none" stroke="#191970" d="M897.49,-313.2455C903.5326,-305.3761 912.1903,-294.101 919.4441,-284.6542"/>
<polygon fill="#191970" stroke="#191970" points="922.2815,-286.7058 925.5958,-276.6427 916.7295,-282.4426 922.2815,-286.7058"/>
</g>
<!-- Node28&#45;&gt;Node24 -->
<g id="edge57" class="edge">
<title>Node28&#45;&gt;Node24</title>
<path fill="none" stroke="#191970" d="M912.0147,-315.896C915.0336,-314.9226 918.0934,-313.9363 921,-313 959.1927,-300.697 1003.1308,-286.5666 1032.1123,-277.2494"/>
<polygon fill="#191970" stroke="#191970" points="1033.2567,-280.5579 1041.7057,-274.1654 1031.1144,-273.8938 1033.2567,-280.5579"/>
</g>
</g>
</svg>
