<?xml version="1.0" encoding="UTF-8" standalone="no"?>
<!DOCTYPE svg PUBLIC "-//W3C//DTD SVG 1.1//EN"
 "http://www.w3.org/Graphics/SVG/1.1/DTD/svg11.dtd">
<!-- Generated by graphviz version 2.38.0 (20140413.2041)
 -->
<!-- Title: /home/alejandro/Desarrollo eclipse/os1/include/ORBextractor.h Pages: 1 -->
<svg width="2047pt" height="508pt"
 viewBox="0.00 0.00 2046.64 508.00" xmlns="http://www.w3.org/2000/svg" xmlns:xlink="http://www.w3.org/1999/xlink">
<g id="graph0" class="graph" transform="scale(1 1) rotate(0) translate(4 504)">
<title>/home/alejandro/Desarrollo eclipse/os1/include/ORBextractor.h</title>
<polygon fill="white" stroke="none" points="-4,4 -4,-504 2042.64,-504 2042.64,4 -4,4"/>
<!-- Node4 -->
<g id="node1" class="node"><title>Node4</title>
<polygon fill="#bfbfbf" stroke="black" points="1298.14,-469.5 1298.14,-499.5 1472.14,-499.5 1472.14,-469.5 1298.14,-469.5"/>
<text text-anchor="start" x="1306.14" y="-487.5" font-family="Helvetica,sans-Serif" font-size="10.00">/home/alejandro/Desarrollo</text>
<text text-anchor="middle" x="1385.14" y="-476.5" font-family="Helvetica,sans-Serif" font-size="10.00"> eclipse/os1/include/ORBextractor.h</text>
</g>
<!-- Node5 -->
<g id="node2" class="node"><title>Node5</title>
<g id="a_node2"><a xlink:href="_frame_8h.html" target="_top" xlink:title="/home/alejandro/Desarrollo\l eclipse/os1/include/Frame.h">
<polygon fill="white" stroke="black" points="952.136,-402.5 952.136,-432.5 1094.14,-432.5 1094.14,-402.5 952.136,-402.5"/>
<text text-anchor="start" x="960.136" y="-420.5" font-family="Helvetica,sans-Serif" font-size="10.00">/home/alejandro/Desarrollo</text>
<text text-anchor="middle" x="1023.14" y="-409.5" font-family="Helvetica,sans-Serif" font-size="10.00"> eclipse/os1/include/Frame.h</text>
</a>
</g>
</g>
<!-- Node4&#45;&gt;Node5 -->
<g id="edge1" class="edge"><title>Node4&#45;&gt;Node5</title>
<path fill="none" stroke="midnightblue" d="M1296.84,-467.645C1234.62,-456.473 1152.38,-441.707 1094.34,-431.286"/>
<polygon fill="midnightblue" stroke="midnightblue" points="1296.57,-471.154 1307.03,-469.476 1297.81,-464.264 1296.57,-471.154"/>
</g>
<!-- Node8 -->
<g id="node5" class="node"><title>Node8</title>
<g id="a_node5"><a xlink:href="_tracking_8h.html" target="_top" xlink:title="/home/alejandro/Desarrollo\l eclipse/os1/include/Tracking.h">
<polygon fill="white" stroke="black" points="1634.14,-201.5 1634.14,-231.5 1786.14,-231.5 1786.14,-201.5 1634.14,-201.5"/>
<text text-anchor="start" x="1642.14" y="-219.5" font-family="Helvetica,sans-Serif" font-size="10.00">/home/alejandro/Desarrollo</text>
<text text-anchor="middle" x="1710.14" y="-208.5" font-family="Helvetica,sans-Serif" font-size="10.00"> eclipse/os1/include/Tracking.h</text>
</a>
</g>
</g>
<!-- Node4&#45;&gt;Node8 -->
<g id="edge63" class="edge"><title>Node4&#45;&gt;Node8</title>
<path fill="none" stroke="midnightblue" d="M1455.37,-466.599C1534.04,-443.492 1657.78,-393.648 1713.14,-299 1725.36,-278.1 1719.91,-248.757 1714.95,-231.576"/>
<polygon fill="midnightblue" stroke="midnightblue" points="1454.18,-463.299 1445.53,-469.418 1456.11,-470.028 1454.18,-463.299"/>
</g>
<!-- Node25 -->
<g id="node22" class="node"><title>Node25</title>
<g id="a_node22"><a xlink:href="_key_frame_8cc.html" target="_top" xlink:title="/home/alejandro/Desarrollo\l eclipse/os1/src/KeyFrame.cc">
<polygon fill="white" stroke="black" points="851.636,-201.5 851.636,-231.5 998.636,-231.5 998.636,-201.5 851.636,-201.5"/>
<text text-anchor="start" x="859.636" y="-219.5" font-family="Helvetica,sans-Serif" font-size="10.00">/home/alejandro/Desarrollo</text>
<text text-anchor="middle" x="925.136" y="-208.5" font-family="Helvetica,sans-Serif" font-size="10.00"> eclipse/os1/src/KeyFrame.cc</text>
</a>
</g>
</g>
<!-- Node4&#45;&gt;Node25 -->
<g id="edge64" class="edge"><title>Node4&#45;&gt;Node25</title>
<path fill="none" stroke="midnightblue" d="M1287.75,-476.695C1081.11,-461.249 613.846,-420.601 568.136,-366 559.292,-355.436 560.059,-346.162 568.136,-335 572.887,-328.434 785.441,-261.24 880.272,-231.516"/>
<polygon fill="midnightblue" stroke="midnightblue" points="1287.76,-480.205 1297.99,-477.456 1288.28,-473.224 1287.76,-480.205"/>
</g>
<!-- Node34 -->
<g id="node31" class="node"><title>Node34</title>
<g id="a_node31"><a xlink:href="_o_r_bextractor_8cc.html" target="_top" xlink:title="/home/alejandro/Desarrollo\l eclipse/os1/src/ORBextractor.cc">
<polygon fill="white" stroke="black" points="1775.14,-402.5 1775.14,-432.5 1937.14,-432.5 1937.14,-402.5 1775.14,-402.5"/>
<text text-anchor="start" x="1783.14" y="-420.5" font-family="Helvetica,sans-Serif" font-size="10.00">/home/alejandro/Desarrollo</text>
<text text-anchor="middle" x="1856.14" y="-409.5" font-family="Helvetica,sans-Serif" font-size="10.00"> eclipse/os1/src/ORBextractor.cc</text>
</a>
</g>
</g>
<!-- Node4&#45;&gt;Node34 -->
<g id="edge65" class="edge"><title>Node4&#45;&gt;Node34</title>
<path fill="none" stroke="midnightblue" d="M1482.22,-470.947C1558.19,-461.007 1666.45,-446.583 1761.14,-433 1765.68,-432.348 1770.34,-431.67 1775.04,-430.977"/>
<polygon fill="midnightblue" stroke="midnightblue" points="1481.65,-467.492 1472.19,-472.258 1482.56,-474.432 1481.65,-467.492"/>
</g>
<!-- Node6 -->
<g id="node3" class="node"><title>Node6</title>
<g id="a_node3"><a xlink:href="_map_point_8h.html" target="_top" xlink:title="/home/alejandro/Desarrollo\l eclipse/os1/include/MapPoint.h">
<polygon fill="white" stroke="black" points="945.636,-335.5 945.636,-365.5 1100.64,-365.5 1100.64,-335.5 945.636,-335.5"/>
<text text-anchor="start" x="953.636" y="-353.5" font-family="Helvetica,sans-Serif" font-size="10.00">/home/alejandro/Desarrollo</text>
<text text-anchor="middle" x="1023.14" y="-342.5" font-family="Helvetica,sans-Serif" font-size="10.00"> eclipse/os1/include/MapPoint.h</text>
</a>
</g>
</g>
<!-- Node5&#45;&gt;Node6 -->
<g id="edge2" class="edge"><title>Node5&#45;&gt;Node6</title>
<path fill="none" stroke="midnightblue" d="M1016.59,-392.403C1016.14,-383.37 1016.43,-373.408 1017.46,-365.577"/>
<polygon fill="midnightblue" stroke="midnightblue" points="1013.11,-392.736 1017.46,-402.396 1020.08,-392.131 1013.11,-392.736"/>
</g>
<!-- Node5&#45;&gt;Node8 -->
<g id="edge56" class="edge"><title>Node5&#45;&gt;Node8</title>
<path fill="none" stroke="midnightblue" d="M1104.52,-413.004C1263.35,-404.498 1606.44,-377.322 1690.14,-299 1708.75,-281.579 1711.26,-249.891 1710.99,-231.582"/>
<polygon fill="midnightblue" stroke="midnightblue" points="1104.13,-409.519 1094.33,-413.538 1104.5,-416.51 1104.13,-409.519"/>
</g>
<!-- Node13 -->
<g id="node10" class="node"><title>Node13</title>
<g id="a_node10"><a xlink:href="_optimizer_8h.html" target="_top" xlink:title="/home/alejandro/Desarrollo\l eclipse/os1/include/Optimizer.h">
<polygon fill="white" stroke="black" points="402.136,-67.5 402.136,-97.5 558.136,-97.5 558.136,-67.5 402.136,-67.5"/>
<text text-anchor="start" x="410.136" y="-85.5" font-family="Helvetica,sans-Serif" font-size="10.00">/home/alejandro/Desarrollo</text>
<text text-anchor="middle" x="480.136" y="-74.5" font-family="Helvetica,sans-Serif" font-size="10.00"> eclipse/os1/include/Optimizer.h</text>
</a>
</g>
</g>
<!-- Node5&#45;&gt;Node13 -->
<g id="edge57" class="edge"><title>Node5&#45;&gt;Node13</title>
<path fill="none" stroke="midnightblue" d="M941.819,-414.938C721.715,-408.783 123.123,-378.62 8.13571,-232 -4.51433,-215.87 -1.5885,-150.793 15.1357,-134 41.8709,-107.156 276.749,-92.6124 402.087,-86.7016"/>
<polygon fill="midnightblue" stroke="midnightblue" points="941.92,-418.442 952.011,-415.214 942.109,-411.445 941.92,-418.442"/>
</g>
<!-- Node23 -->
<g id="node20" class="node"><title>Node23</title>
<g id="a_node20"><a xlink:href="_o_r_bmatcher_8h.html" target="_top" xlink:title="/home/alejandro/Desarrollo\l eclipse/os1/include/ORBmatcher.h">
<polygon fill="white" stroke="black" points="482.636,-268.5 482.636,-298.5 653.636,-298.5 653.636,-268.5 482.636,-268.5"/>
<text text-anchor="start" x="490.636" y="-286.5" font-family="Helvetica,sans-Serif" font-size="10.00">/home/alejandro/Desarrollo</text>
<text text-anchor="middle" x="568.136" y="-275.5" font-family="Helvetica,sans-Serif" font-size="10.00"> eclipse/os1/include/ORBmatcher.h</text>
</a>
</g>
</g>
<!-- Node5&#45;&gt;Node23 -->
<g id="edge58" class="edge"><title>Node5&#45;&gt;Node23</title>
<path fill="none" stroke="midnightblue" d="M941.838,-413.257C817.683,-407.46 592.562,-393.287 568.136,-366 551.715,-347.656 557.616,-316.597 563.081,-298.583"/>
<polygon fill="midnightblue" stroke="midnightblue" points="941.913,-416.764 952.063,-413.727 942.234,-409.772 941.913,-416.764"/>
</g>
<!-- Node24 -->
<g id="node21" class="node"><title>Node24</title>
<g id="a_node21"><a xlink:href="_frame_8cc.html" target="_top" xlink:title="/home/alejandro/Desarrollo\l eclipse/os1/src/Frame.cc">
<polygon fill="white" stroke="black" points="39.6357,-201.5 39.6357,-231.5 172.636,-231.5 172.636,-201.5 39.6357,-201.5"/>
<text text-anchor="start" x="47.6357" y="-219.5" font-family="Helvetica,sans-Serif" font-size="10.00">/home/alejandro/Desarrollo</text>
<text text-anchor="middle" x="106.136" y="-208.5" font-family="Helvetica,sans-Serif" font-size="10.00"> eclipse/os1/src/Frame.cc</text>
</a>
</g>
</g>
<!-- Node5&#45;&gt;Node24 -->
<g id="edge60" class="edge"><title>Node5&#45;&gt;Node24</title>
<path fill="none" stroke="midnightblue" d="M972.503,-399.262C905.828,-376.656 794.72,-339.34 775.136,-335 643.165,-305.755 606.392,-321.68 473.136,-299 361.502,-280 232.612,-249.319 161.133,-231.517"/>
<polygon fill="midnightblue" stroke="midnightblue" points="971.407,-402.587 982.002,-402.485 973.656,-395.958 971.407,-402.587"/>
</g>
<!-- Node5&#45;&gt;Node25 -->
<g id="edge61" class="edge"><title>Node5&#45;&gt;Node25</title>
<path fill="none" stroke="midnightblue" d="M972.903,-398.392C931.488,-380.371 875.84,-348.228 852.136,-299 846.158,-286.586 845.739,-280.203 852.136,-268 860.578,-251.894 876.748,-239.906 891.727,-231.662"/>
<polygon fill="midnightblue" stroke="midnightblue" points="971.726,-401.694 982.301,-402.347 974.442,-395.242 971.726,-401.694"/>
</g>
<!-- Node29 -->
<g id="node26" class="node"><title>Node29</title>
<g id="a_node26"><a xlink:href="_pn_psolver_8h.html" target="_top" xlink:title="/home/alejandro/Desarrollo\l eclipse/os1/include/PnPsolver.h">
<polygon fill="white" stroke="black" points="1050.64,-268.5 1050.64,-298.5 1209.64,-298.5 1209.64,-268.5 1050.64,-268.5"/>
<text text-anchor="start" x="1058.64" y="-286.5" font-family="Helvetica,sans-Serif" font-size="10.00">/home/alejandro/Desarrollo</text>
<text text-anchor="middle" x="1130.14" y="-275.5" font-family="Helvetica,sans-Serif" font-size="10.00"> eclipse/os1/include/PnPsolver.h</text>
</a>
</g>
</g>
<!-- Node5&#45;&gt;Node29 -->
<g id="edge59" class="edge"><title>Node5&#45;&gt;Node29</title>
<path fill="none" stroke="midnightblue" d="M1069.8,-397.75C1084.26,-389.885 1099.04,-379.396 1109.14,-366 1124.27,-345.933 1128.54,-316.04 1129.72,-298.584"/>
<polygon fill="midnightblue" stroke="midnightblue" points="1068.19,-394.642 1060.88,-402.31 1071.38,-400.874 1068.19,-394.642"/>
</g>
<!-- Node32 -->
<g id="node29" class="node"><title>Node32</title>
<g id="a_node29"><a xlink:href="_initializer_8h.html" target="_top" xlink:title="/home/alejandro/Desarrollo\l eclipse/os1/include/Initializer.h">
<polygon fill="white" stroke="black" points="1345.64,-268.5 1345.64,-298.5 1498.64,-298.5 1498.64,-268.5 1345.64,-268.5"/>
<text text-anchor="start" x="1353.64" y="-286.5" font-family="Helvetica,sans-Serif" font-size="10.00">/home/alejandro/Desarrollo</text>
<text text-anchor="middle" x="1422.14" y="-275.5" font-family="Helvetica,sans-Serif" font-size="10.00"> eclipse/os1/include/Initializer.h</text>
</a>
</g>
</g>
<!-- Node5&#45;&gt;Node32 -->
<g id="edge52" class="edge"><title>Node5&#45;&gt;Node32</title>
<path fill="none" stroke="midnightblue" d="M1075.3,-399.243C1155.12,-372.834 1306.06,-322.902 1379.65,-298.556"/>
<polygon fill="midnightblue" stroke="midnightblue" points="1073.85,-396.035 1065.46,-402.499 1076.05,-402.681 1073.85,-396.035"/>
</g>
<!-- Node33 -->
<g id="node30" class="node"><title>Node33</title>
<g id="a_node30"><a xlink:href="_key_frame_database_8cc.html" target="_top" xlink:title="/home/alejandro/Desarrollo\l eclipse/os1/src/KeyFrameDatabase.cc">
<polygon fill="white" stroke="black" points="577.636,-335.5 577.636,-365.5 766.636,-365.5 766.636,-335.5 577.636,-335.5"/>
<text text-anchor="start" x="585.636" y="-353.5" font-family="Helvetica,sans-Serif" font-size="10.00">/home/alejandro/Desarrollo</text>
<text text-anchor="middle" x="672.136" y="-342.5" font-family="Helvetica,sans-Serif" font-size="10.00"> eclipse/os1/src/KeyFrameDatabase.cc</text>
</a>
</g>
</g>
<!-- Node5&#45;&gt;Node33 -->
<g id="edge62" class="edge"><title>Node5&#45;&gt;Node33</title>
<path fill="none" stroke="midnightblue" d="M942.161,-401.505C883.661,-390.671 805.189,-376.139 747.919,-365.534"/>
<polygon fill="midnightblue" stroke="midnightblue" points="941.635,-404.967 952.106,-403.346 942.91,-398.084 941.635,-404.967"/>
</g>
<!-- Node6&#45;&gt;Node5 -->
<g id="edge3" class="edge"><title>Node6&#45;&gt;Node5</title>
<path fill="none" stroke="midnightblue" d="M1029.68,-375.565C1030.13,-384.596 1029.84,-394.56 1028.81,-402.396"/>
<polygon fill="midnightblue" stroke="midnightblue" points="1033.16,-375.236 1028.81,-365.577 1026.19,-375.842 1033.16,-375.236"/>
</g>
<!-- Node7 -->
<g id="node4" class="node"><title>Node7</title>
<g id="a_node4"><a xlink:href="_map_drawer_8h.html" target="_top" xlink:title="/home/alejandro/Desarrollo\l eclipse/os1/include/MapDrawer.h">
<polygon fill="white" stroke="black" points="1517.14,-268.5 1517.14,-298.5 1681.14,-298.5 1681.14,-268.5 1517.14,-268.5"/>
<text text-anchor="start" x="1525.14" y="-286.5" font-family="Helvetica,sans-Serif" font-size="10.00">/home/alejandro/Desarrollo</text>
<text text-anchor="middle" x="1599.14" y="-275.5" font-family="Helvetica,sans-Serif" font-size="10.00"> eclipse/os1/include/MapDrawer.h</text>
</a>
</g>
</g>
<!-- Node6&#45;&gt;Node7 -->
<g id="edge4" class="edge"><title>Node6&#45;&gt;Node7</title>
<path fill="none" stroke="midnightblue" d="M1110.89,-341.737C1207.97,-332.824 1368.99,-317.081 1507.14,-299 1510.34,-298.58 1513.61,-298.138 1516.91,-297.678"/>
<polygon fill="midnightblue" stroke="midnightblue" points="1110.46,-338.261 1100.82,-342.657 1111.1,-345.232 1110.46,-338.261"/>
</g>
<!-- Node6&#45;&gt;Node13 -->
<g id="edge32" class="edge"><title>Node6&#45;&gt;Node13</title>
<path fill="none" stroke="midnightblue" d="M935.486,-342.339C698.294,-322.54 59.6051,-266.262 30.1357,-232 -75.4154,-109.285 247.081,-87.4809 402.016,-83.9615"/>
<polygon fill="midnightblue" stroke="midnightblue" points="935.2,-345.828 945.456,-343.17 935.781,-338.852 935.2,-345.828"/>
</g>
<!-- Node18 -->
<g id="node15" class="node"><title>Node18</title>
<g id="a_node15"><a xlink:href="_frame_drawer_8cc.html" target="_top" xlink:title="/home/alejandro/Desarrollo\l eclipse/os1/src/FrameDrawer.cc">
<polygon fill="white" stroke="black" points="1092.64,-134.5 1092.64,-164.5 1253.64,-164.5 1253.64,-134.5 1092.64,-134.5"/>
<text text-anchor="start" x="1100.64" y="-152.5" font-family="Helvetica,sans-Serif" font-size="10.00">/home/alejandro/Desarrollo</text>
<text text-anchor="middle" x="1173.14" y="-141.5" font-family="Helvetica,sans-Serif" font-size="10.00"> eclipse/os1/src/FrameDrawer.cc</text>
</a>
</g>
</g>
<!-- Node6&#45;&gt;Node18 -->
<g id="edge46" class="edge"><title>Node6&#45;&gt;Node18</title>
<path fill="none" stroke="midnightblue" d="M1110.75,-337.454C1155.96,-329.252 1204.48,-316.649 1218.14,-299 1227.64,-286.719 1221.03,-226.157 1211.14,-201 1205.76,-187.317 1195.6,-174.122 1187.14,-164.653"/>
<polygon fill="midnightblue" stroke="midnightblue" points="1110.11,-334.013 1100.86,-339.189 1111.32,-340.907 1110.11,-334.013"/>
</g>
<!-- Node20 -->
<g id="node17" class="node"><title>Node20</title>
<g id="a_node17"><a xlink:href="_serializer_8cpp.html" target="_top" xlink:title="/home/alejandro/Desarrollo\l eclipse/os1/src/Serializer.cpp">
<polygon fill="white" stroke="black" points="1272.14,-134.5 1272.14,-164.5 1420.14,-164.5 1420.14,-134.5 1272.14,-134.5"/>
<text text-anchor="start" x="1280.14" y="-152.5" font-family="Helvetica,sans-Serif" font-size="10.00">/home/alejandro/Desarrollo</text>
<text text-anchor="middle" x="1346.14" y="-141.5" font-family="Helvetica,sans-Serif" font-size="10.00"> eclipse/os1/src/Serializer.cpp</text>
</a>
</g>
</g>
<!-- Node6&#45;&gt;Node20 -->
<g id="edge51" class="edge"><title>Node6&#45;&gt;Node20</title>
<path fill="none" stroke="midnightblue" d="M1110.93,-342.362C1151.36,-335.765 1198.41,-323.135 1235.14,-299 1288.4,-264 1325.67,-194.307 1339.83,-164.524"/>
<polygon fill="midnightblue" stroke="midnightblue" points="1110.15,-338.939 1100.8,-343.912 1111.21,-345.859 1110.15,-338.939"/>
</g>
<!-- Node22 -->
<g id="node19" class="node"><title>Node22</title>
<g id="a_node19"><a xlink:href="_map_drawer_8cc.html" target="_top" xlink:title="/home/alejandro/Desarrollo\l eclipse/os1/src/MapDrawer.cc">
<polygon fill="white" stroke="black" points="1395.14,-201.5 1395.14,-231.5 1547.14,-231.5 1547.14,-201.5 1395.14,-201.5"/>
<text text-anchor="start" x="1403.14" y="-219.5" font-family="Helvetica,sans-Serif" font-size="10.00">/home/alejandro/Desarrollo</text>
<text text-anchor="middle" x="1471.14" y="-208.5" font-family="Helvetica,sans-Serif" font-size="10.00"> eclipse/os1/src/MapDrawer.cc</text>
</a>
</g>
</g>
<!-- Node6&#45;&gt;Node22 -->
<g id="edge49" class="edge"><title>Node6&#45;&gt;Node22</title>
<path fill="none" stroke="midnightblue" d="M1110.75,-342.92C1165.01,-336.492 1235.16,-323.84 1293.14,-299 1314.79,-289.722 1315.36,-279.115 1336.14,-268 1364.27,-252.948 1397.86,-240.363 1424.5,-231.521"/>
<polygon fill="midnightblue" stroke="midnightblue" points="1110.35,-339.443 1100.81,-344.05 1111.14,-346.398 1110.35,-339.443"/>
</g>
<!-- Node6&#45;&gt;Node23 -->
<g id="edge33" class="edge"><title>Node6&#45;&gt;Node23</title>
<path fill="none" stroke="midnightblue" d="M935.646,-337.121C863.787,-326.938 759.356,-312.102 668.136,-299 663.447,-298.327 658.635,-297.634 653.778,-296.934"/>
<polygon fill="midnightblue" stroke="midnightblue" points="935.173,-340.589 945.565,-338.527 936.155,-333.658 935.173,-340.589"/>
</g>
<!-- Node6&#45;&gt;Node25 -->
<g id="edge47" class="edge"><title>Node6&#45;&gt;Node25</title>
<path fill="none" stroke="midnightblue" d="M1021.83,-324.802C1019.85,-307.525 1014.98,-284.651 1003.14,-268 991.819,-252.096 973.775,-239.944 957.89,-231.551"/>
<polygon fill="midnightblue" stroke="midnightblue" points="1018.39,-325.575 1022.76,-335.225 1025.36,-324.954 1018.39,-325.575"/>
</g>
<!-- Node26 -->
<g id="node23" class="node"><title>Node26</title>
<g id="a_node23"><a xlink:href="_map_point_8cc.html" target="_top" xlink:title="/home/alejandro/Desarrollo\l eclipse/os1/src/MapPoint.cc">
<polygon fill="white" stroke="black" points="690.636,-201.5 690.636,-231.5 833.636,-231.5 833.636,-201.5 690.636,-201.5"/>
<text text-anchor="start" x="698.636" y="-219.5" font-family="Helvetica,sans-Serif" font-size="10.00">/home/alejandro/Desarrollo</text>
<text text-anchor="middle" x="762.136" y="-208.5" font-family="Helvetica,sans-Serif" font-size="10.00"> eclipse/os1/src/MapPoint.cc</text>
</a>
</g>
</g>
<!-- Node6&#45;&gt;Node26 -->
<g id="edge50" class="edge"><title>Node6&#45;&gt;Node26</title>
<path fill="none" stroke="midnightblue" d="M939.861,-332.913C910.951,-325.113 879.055,-314.111 852.136,-299 820.152,-281.046 790.068,-249.847 774.078,-231.703"/>
<polygon fill="midnightblue" stroke="midnightblue" points="938.98,-336.3 949.54,-335.437 940.746,-329.527 938.98,-336.3"/>
</g>
<!-- Node6&#45;&gt;Node29 -->
<g id="edge43" class="edge"><title>Node6&#45;&gt;Node29</title>
<path fill="none" stroke="midnightblue" d="M1055.21,-330.015C1071.86,-319.9 1091.83,-307.77 1106.96,-298.577"/>
<polygon fill="midnightblue" stroke="midnightblue" points="1053.08,-327.213 1046.35,-335.396 1056.72,-333.195 1053.08,-327.213"/>
</g>
<!-- Node31 -->
<g id="node28" class="node"><title>Node31</title>
<g id="a_node28"><a xlink:href="_map_8cc.html" target="_top" xlink:title="/home/alejandro/Desarrollo\l eclipse/os1/src/Map.cc">
<polygon fill="white" stroke="black" points="861.636,-268.5 861.636,-298.5 994.636,-298.5 994.636,-268.5 861.636,-268.5"/>
<text text-anchor="start" x="869.636" y="-286.5" font-family="Helvetica,sans-Serif" font-size="10.00">/home/alejandro/Desarrollo</text>
<text text-anchor="middle" x="928.136" y="-275.5" font-family="Helvetica,sans-Serif" font-size="10.00"> eclipse/os1/src/Map.cc</text>
</a>
</g>
</g>
<!-- Node6&#45;&gt;Node31 -->
<g id="edge48" class="edge"><title>Node6&#45;&gt;Node31</title>
<path fill="none" stroke="midnightblue" d="M994.246,-329.734C979.546,-319.676 962.021,-307.685 948.709,-298.577"/>
<polygon fill="midnightblue" stroke="midnightblue" points="992.293,-332.638 1002.52,-335.396 996.245,-326.861 992.293,-332.638"/>
</g>
<!-- Node7&#45;&gt;Node8 -->
<g id="edge5" class="edge"><title>Node7&#45;&gt;Node8</title>
<path fill="none" stroke="midnightblue" d="M1631.93,-263.296C1649.3,-253.125 1670.25,-240.855 1686.1,-231.577"/>
<polygon fill="midnightblue" stroke="midnightblue" points="1630.08,-260.322 1623.22,-268.396 1633.62,-266.363 1630.08,-260.322"/>
</g>
<!-- Node12 -->
<g id="node9" class="node"><title>Node12</title>
<g id="a_node9"><a xlink:href="_system_8cc.html" target="_top" xlink:title="/home/alejandro/Desarrollo\l eclipse/os1/src/System.cc">
<polygon fill="white" stroke="black" points="1766.14,-0.5 1766.14,-30.5 1902.14,-30.5 1902.14,-0.5 1766.14,-0.5"/>
<text text-anchor="start" x="1774.14" y="-18.5" font-family="Helvetica,sans-Serif" font-size="10.00">/home/alejandro/Desarrollo</text>
<text text-anchor="middle" x="1834.14" y="-7.5" font-family="Helvetica,sans-Serif" font-size="10.00"> eclipse/os1/src/System.cc</text>
</a>
</g>
</g>
<!-- Node7&#45;&gt;Node12 -->
<g id="edge30" class="edge"><title>Node7&#45;&gt;Node12</title>
<path fill="none" stroke="midnightblue" d="M1691.37,-270.691C1805.91,-253.904 1991.25,-219.044 2032.14,-165 2056.83,-132.361 2000.1,-71.0583 1995.14,-67 1968.82,-45.4986 1933.3,-33.1141 1902.31,-25.999"/>
<polygon fill="midnightblue" stroke="midnightblue" points="1690.6,-267.267 1681.2,-272.162 1691.6,-274.194 1690.6,-267.267"/>
</g>
<!-- Node21 -->
<g id="node18" class="node"><title>Node21</title>
<g id="a_node18"><a xlink:href="_viewer_8cc.html" target="_top" xlink:title="/home/alejandro/Desarrollo\l eclipse/os1/src/Viewer.cc">
<polygon fill="white" stroke="black" points="1438.64,-134.5 1438.64,-164.5 1571.64,-164.5 1571.64,-134.5 1438.64,-134.5"/>
<text text-anchor="start" x="1446.64" y="-152.5" font-family="Helvetica,sans-Serif" font-size="10.00">/home/alejandro/Desarrollo</text>
<text text-anchor="middle" x="1505.14" y="-141.5" font-family="Helvetica,sans-Serif" font-size="10.00"> eclipse/os1/src/Viewer.cc</text>
</a>
</g>
</g>
<!-- Node7&#45;&gt;Node21 -->
<g id="edge31" class="edge"><title>Node7&#45;&gt;Node21</title>
<path fill="none" stroke="midnightblue" d="M1589.22,-259.305C1581.43,-242.365 1569.67,-219.264 1556.14,-201 1546.19,-187.587 1532.69,-174.379 1522.07,-164.837"/>
<polygon fill="midnightblue" stroke="midnightblue" points="1586.04,-260.785 1593.32,-268.484 1592.43,-257.926 1586.04,-260.785"/>
</g>
<!-- Node7&#45;&gt;Node22 -->
<g id="edge29" class="edge"><title>Node7&#45;&gt;Node22</title>
<path fill="none" stroke="midnightblue" d="M1562.42,-263.853C1542.18,-253.576 1517.46,-241.025 1498.86,-231.577"/>
<polygon fill="midnightblue" stroke="midnightblue" points="1560.86,-266.989 1571.36,-268.396 1564.03,-260.747 1560.86,-266.989"/>
</g>
<!-- Node9 -->
<g id="node6" class="node"><title>Node9</title>
<g id="a_node6"><a xlink:href="_loop_closing_8h.html" target="_top" xlink:title="/home/alejandro/Desarrollo\l eclipse/os1/include/LoopClosing.h">
<polygon fill="white" stroke="black" points="1628.14,-134.5 1628.14,-164.5 1796.14,-164.5 1796.14,-134.5 1628.14,-134.5"/>
<text text-anchor="start" x="1636.14" y="-152.5" font-family="Helvetica,sans-Serif" font-size="10.00">/home/alejandro/Desarrollo</text>
<text text-anchor="middle" x="1712.14" y="-141.5" font-family="Helvetica,sans-Serif" font-size="10.00"> eclipse/os1/include/LoopClosing.h</text>
</a>
</g>
</g>
<!-- Node8&#45;&gt;Node9 -->
<g id="edge6" class="edge"><title>Node8&#45;&gt;Node9</title>
<path fill="none" stroke="midnightblue" d="M1704.33,-191.403C1704.16,-182.37 1704.76,-172.408 1706.03,-164.577"/>
<polygon fill="midnightblue" stroke="midnightblue" points="1700.84,-191.607 1704.89,-201.396 1707.83,-191.216 1700.84,-191.607"/>
</g>
<!-- Node10 -->
<g id="node7" class="node"><title>Node10</title>
<g id="a_node7"><a xlink:href="_local_mapping_8h.html" target="_top" xlink:title="/home/alejandro/Desarrollo\l eclipse/os1/include/LocalMapping.h">
<polygon fill="white" stroke="black" points="1743.14,-67.5 1743.14,-97.5 1917.14,-97.5 1917.14,-67.5 1743.14,-67.5"/>
<text text-anchor="start" x="1751.14" y="-85.5" font-family="Helvetica,sans-Serif" font-size="10.00">/home/alejandro/Desarrollo</text>
<text text-anchor="middle" x="1830.14" y="-74.5" font-family="Helvetica,sans-Serif" font-size="10.00"> eclipse/os1/include/LocalMapping.h</text>
</a>
</g>
</g>
<!-- Node8&#45;&gt;Node10 -->
<g id="edge22" class="edge"><title>Node8&#45;&gt;Node10</title>
<path fill="none" stroke="midnightblue" d="M1753.54,-196.999C1768.77,-189.221 1784.81,-178.72 1796.14,-165 1812.34,-145.366 1818.05,-115.325 1822.79,-97.7241"/>
<polygon fill="midnightblue" stroke="midnightblue" points="1751.71,-193.999 1744.22,-201.494 1754.75,-200.304 1751.71,-193.999"/>
</g>
<!-- Node8&#45;&gt;Node12 -->
<g id="edge26" class="edge"><title>Node8&#45;&gt;Node12</title>
<path fill="none" stroke="midnightblue" d="M1796.3,-213.154C1875.88,-208.954 1985.78,-197.291 2013.14,-165 2061.88,-107.463 1944.25,-54.8461 1877.04,-30.5897"/>
<polygon fill="midnightblue" stroke="midnightblue" points="1796.08,-209.661 1786.27,-213.653 1796.43,-216.652 1796.08,-209.661"/>
</g>
<!-- Node17 -->
<g id="node14" class="node"><title>Node17</title>
<g id="a_node14"><a xlink:href="_tracking_8cc.html" target="_top" xlink:title="/home/alejandro/Desarrollo\l eclipse/os1/src/Tracking.cc">
<polygon fill="white" stroke="black" points="956.136,-0.5 956.136,-30.5 1096.14,-30.5 1096.14,-0.5 956.136,-0.5"/>
<text text-anchor="start" x="964.136" y="-18.5" font-family="Helvetica,sans-Serif" font-size="10.00">/home/alejandro/Desarrollo</text>
<text text-anchor="middle" x="1026.14" y="-7.5" font-family="Helvetica,sans-Serif" font-size="10.00"> eclipse/os1/src/Tracking.cc</text>
</a>
</g>
</g>
<!-- Node8&#45;&gt;Node17 -->
<g id="edge27" class="edge"><title>Node8&#45;&gt;Node17</title>
<path fill="none" stroke="midnightblue" d="M1672.97,-196.666C1656.15,-187.692 1636.25,-176.435 1619.14,-165 1600.73,-152.697 1600.17,-143.437 1580.14,-134 1417.59,-57.4182 1204.8,-30.2961 1096.33,-21.045"/>
<polygon fill="midnightblue" stroke="midnightblue" points="1671.48,-199.837 1681.96,-201.403 1674.74,-193.644 1671.48,-199.837"/>
</g>
<!-- Node8&#45;&gt;Node18 -->
<g id="edge23" class="edge"><title>Node8&#45;&gt;Node18</title>
<path fill="none" stroke="midnightblue" d="M1623.9,-206.978C1533.77,-197.786 1388.3,-182.144 1263.14,-165 1260.16,-164.592 1257.12,-164.165 1254.06,-163.723"/>
<polygon fill="midnightblue" stroke="midnightblue" points="1623.77,-210.483 1634.07,-208.012 1624.48,-203.519 1623.77,-210.483"/>
</g>
<!-- Node19 -->
<g id="node16" class="node"><title>Node19</title>
<g id="a_node16"><a xlink:href="main_8cc.html" target="_top" xlink:title="/home/alejandro/Desarrollo\l eclipse/os1/src/main.cc">
<polygon fill="white" stroke="black" points="1870.64,-134.5 1870.64,-164.5 2003.64,-164.5 2003.64,-134.5 1870.64,-134.5"/>
<text text-anchor="start" x="1878.64" y="-152.5" font-family="Helvetica,sans-Serif" font-size="10.00">/home/alejandro/Desarrollo</text>
<text text-anchor="middle" x="1937.14" y="-141.5" font-family="Helvetica,sans-Serif" font-size="10.00"> eclipse/os1/src/main.cc</text>
</a>
</g>
</g>
<!-- Node8&#45;&gt;Node19 -->
<g id="edge24" class="edge"><title>Node8&#45;&gt;Node19</title>
<path fill="none" stroke="midnightblue" d="M1768.75,-198.715C1805.69,-188.137 1852.85,-174.635 1887.86,-164.611"/>
<polygon fill="midnightblue" stroke="midnightblue" points="1767.76,-195.358 1759.11,-201.476 1769.69,-202.088 1767.76,-195.358"/>
</g>
<!-- Node8&#45;&gt;Node20 -->
<g id="edge25" class="edge"><title>Node8&#45;&gt;Node20</title>
<path fill="none" stroke="midnightblue" d="M1623.68,-200.061C1561.71,-188.995 1479.1,-174.244 1420.16,-163.719"/>
<polygon fill="midnightblue" stroke="midnightblue" points="1623.37,-203.561 1633.83,-201.874 1624.6,-196.67 1623.37,-203.561"/>
</g>
<!-- Node8&#45;&gt;Node21 -->
<g id="edge28" class="edge"><title>Node8&#45;&gt;Node21</title>
<path fill="none" stroke="midnightblue" d="M1656.34,-198.444C1623.11,-187.908 1580.98,-174.549 1549.64,-164.611"/>
<polygon fill="midnightblue" stroke="midnightblue" points="1655.32,-201.79 1665.91,-201.476 1657.43,-195.117 1655.32,-201.79"/>
</g>
<!-- Node9&#45;&gt;Node8 -->
<g id="edge12" class="edge"><title>Node9&#45;&gt;Node8</title>
<path fill="none" stroke="midnightblue" d="M1717.94,-174.565C1718.11,-183.596 1717.52,-193.56 1716.25,-201.396"/>
<polygon fill="midnightblue" stroke="midnightblue" points="1721.43,-174.364 1717.38,-164.577 1714.44,-174.757 1721.43,-174.364"/>
</g>
<!-- Node9&#45;&gt;Node10 -->
<g id="edge7" class="edge"><title>Node9&#45;&gt;Node10</title>
<path fill="none" stroke="midnightblue" d="M1740.78,-129.296C1758.39,-119.125 1780.84,-106.855 1798.91,-97.5765"/>
<polygon fill="midnightblue" stroke="midnightblue" points="1738.93,-126.325 1732.06,-134.396 1742.46,-132.367 1738.93,-126.325"/>
</g>
<!-- Node11 -->
<g id="node8" class="node"><title>Node11</title>
<g id="a_node8"><a xlink:href="_local_mapping_8cc.html" target="_top" xlink:title="/home/alejandro/Desarrollo\l eclipse/os1/src/LocalMapping.cc">
<polygon fill="white" stroke="black" points="1350.14,-0.5 1350.14,-30.5 1512.14,-30.5 1512.14,-0.5 1350.14,-0.5"/>
<text text-anchor="start" x="1358.14" y="-18.5" font-family="Helvetica,sans-Serif" font-size="10.00">/home/alejandro/Desarrollo</text>
<text text-anchor="middle" x="1431.14" y="-7.5" font-family="Helvetica,sans-Serif" font-size="10.00"> eclipse/os1/src/LocalMapping.cc</text>
</a>
</g>
</g>
<!-- Node9&#45;&gt;Node11 -->
<g id="edge19" class="edge"><title>Node9&#45;&gt;Node11</title>
<path fill="none" stroke="midnightblue" d="M1691.61,-126.88C1673,-108.473 1644,-82.6024 1614.14,-67 1581.86,-50.1342 1543.35,-38.4195 1510,-30.5514"/>
<polygon fill="midnightblue" stroke="midnightblue" points="1689.39,-129.618 1698.92,-134.26 1694.37,-124.692 1689.39,-129.618"/>
</g>
<!-- Node9&#45;&gt;Node12 -->
<g id="edge21" class="edge"><title>Node9&#45;&gt;Node12</title>
<path fill="none" stroke="midnightblue" d="M1713.5,-124.171C1715.63,-106.592 1720.95,-83.1873 1734.14,-67 1747.83,-50.1841 1768.56,-38.4366 1787.61,-30.5323"/>
<polygon fill="midnightblue" stroke="midnightblue" points="1710.01,-123.962 1712.55,-134.248 1716.97,-124.623 1710.01,-123.962"/>
</g>
<!-- Node9&#45;&gt;Node13 -->
<g id="edge13" class="edge"><title>Node9&#45;&gt;Node13</title>
<path fill="none" stroke="midnightblue" d="M1617.93,-137.414C1605.24,-136.136 1592.38,-134.952 1580.14,-134 1197.51,-104.232 738.548,-90.0965 558.263,-85.3817"/>
<polygon fill="midnightblue" stroke="midnightblue" points="1617.76,-140.914 1628.06,-138.456 1618.47,-133.951 1617.76,-140.914"/>
</g>
<!-- Node15 -->
<g id="node12" class="node"><title>Node15</title>
<g id="a_node12"><a xlink:href="_loop_closing_8cc.html" target="_top" xlink:title="/home/alejandro/Desarrollo\l eclipse/os1/src/LoopClosing.cc">
<polygon fill="white" stroke="black" points="570.136,-0.5 570.136,-30.5 726.136,-30.5 726.136,-0.5 570.136,-0.5"/>
<text text-anchor="start" x="578.136" y="-18.5" font-family="Helvetica,sans-Serif" font-size="10.00">/home/alejandro/Desarrollo</text>
<text text-anchor="middle" x="648.136" y="-7.5" font-family="Helvetica,sans-Serif" font-size="10.00"> eclipse/os1/src/LoopClosing.cc</text>
</a>
</g>
</g>
<!-- Node9&#45;&gt;Node15 -->
<g id="edge20" class="edge"><title>Node9&#45;&gt;Node15</title>
<path fill="none" stroke="midnightblue" d="M1617.8,-136.796C1410.39,-111.066 917.995,-49.9787 726.356,-26.204"/>
<polygon fill="midnightblue" stroke="midnightblue" points="1617.4,-140.274 1627.76,-138.032 1618.26,-133.327 1617.4,-140.274"/>
</g>
<!-- Node10&#45;&gt;Node8 -->
<g id="edge9" class="edge"><title>Node10&#45;&gt;Node8</title>
<path fill="none" stroke="midnightblue" d="M1835.11,-107.786C1833.78,-125.344 1827.55,-148.74 1814.14,-165 1800.46,-181.568 1779.9,-193.441 1760.59,-201.494"/>
<polygon fill="midnightblue" stroke="midnightblue" points="1838.61,-107.798 1835.33,-97.7241 1831.61,-107.646 1838.61,-107.798"/>
</g>
<!-- Node10&#45;&gt;Node9 -->
<g id="edge8" class="edge"><title>Node10&#45;&gt;Node9</title>
<path fill="none" stroke="midnightblue" d="M1801.55,-102.674C1783.95,-112.841 1761.49,-125.112 1743.42,-134.396"/>
<polygon fill="midnightblue" stroke="midnightblue" points="1803.39,-105.648 1810.26,-97.5765 1799.86,-99.6065 1803.39,-105.648"/>
</g>
<!-- Node10&#45;&gt;Node11 -->
<g id="edge10" class="edge"><title>Node10&#45;&gt;Node11</title>
<path fill="none" stroke="midnightblue" d="M1733.8,-65.8056C1666.05,-54.7696 1576.41,-40.1668 1512.3,-29.7229"/>
<polygon fill="midnightblue" stroke="midnightblue" points="1733.62,-69.3225 1744.05,-67.476 1734.74,-62.4136 1733.62,-69.3225"/>
</g>
<!-- Node10&#45;&gt;Node12 -->
<g id="edge11" class="edge"><title>Node10&#45;&gt;Node12</title>
<path fill="none" stroke="midnightblue" d="M1831.62,-57.4029C1832.17,-48.3703 1832.79,-38.4078 1833.27,-30.5765"/>
<polygon fill="midnightblue" stroke="midnightblue" points="1828.12,-57.1998 1831,-67.396 1835.11,-57.6299 1828.12,-57.1998"/>
</g>
<!-- Node13&#45;&gt;Node11 -->
<g id="edge15" class="edge"><title>Node13&#45;&gt;Node11</title>
<path fill="none" stroke="midnightblue" d="M568.41,-73.5189C594.109,-71.2935 622.236,-68.9527 648.136,-67 904.184,-47.6956 1207.69,-29.4399 1349.94,-21.155"/>
<polygon fill="midnightblue" stroke="midnightblue" points="567.974,-70.0436 558.316,-74.3979 568.581,-77.0172 567.974,-70.0436"/>
</g>
<!-- Node14 -->
<g id="node11" class="node"><title>Node14</title>
<g id="a_node11"><a xlink:href="_initializer_8cc.html" target="_top" xlink:title="/home/alejandro/Desarrollo\l eclipse/os1/src/Initializer.cc">
<polygon fill="white" stroke="black" points="248.636,-0.5 248.636,-30.5 389.636,-30.5 389.636,-0.5 248.636,-0.5"/>
<text text-anchor="start" x="256.636" y="-18.5" font-family="Helvetica,sans-Serif" font-size="10.00">/home/alejandro/Desarrollo</text>
<text text-anchor="middle" x="319.136" y="-7.5" font-family="Helvetica,sans-Serif" font-size="10.00"> eclipse/os1/src/Initializer.cc</text>
</a>
</g>
</g>
<!-- Node13&#45;&gt;Node14 -->
<g id="edge14" class="edge"><title>Node13&#45;&gt;Node14</title>
<path fill="none" stroke="midnightblue" d="M435.661,-63.5442C409.898,-53.143 377.933,-40.238 354.002,-30.5765"/>
<polygon fill="midnightblue" stroke="midnightblue" points="434.618,-66.8977 445.201,-67.396 437.239,-60.4067 434.618,-66.8977"/>
</g>
<!-- Node13&#45;&gt;Node15 -->
<g id="edge16" class="edge"><title>Node13&#45;&gt;Node15</title>
<path fill="none" stroke="midnightblue" d="M526.19,-63.6815C553.134,-53.2568 586.672,-40.2805 611.753,-30.5765"/>
<polygon fill="midnightblue" stroke="midnightblue" points="524.653,-60.5233 516.589,-67.396 527.178,-67.0517 524.653,-60.5233"/>
</g>
<!-- Node16 -->
<g id="node13" class="node"><title>Node16</title>
<g id="a_node13"><a xlink:href="_optimizer_8cc.html" target="_top" xlink:title="/home/alejandro/Desarrollo\l eclipse/os1/src/Optimizer.cc">
<polygon fill="white" stroke="black" points="408.136,-0.5 408.136,-30.5 552.136,-30.5 552.136,-0.5 408.136,-0.5"/>
<text text-anchor="start" x="416.136" y="-18.5" font-family="Helvetica,sans-Serif" font-size="10.00">/home/alejandro/Desarrollo</text>
<text text-anchor="middle" x="480.136" y="-7.5" font-family="Helvetica,sans-Serif" font-size="10.00"> eclipse/os1/src/Optimizer.cc</text>
</a>
</g>
</g>
<!-- Node13&#45;&gt;Node16 -->
<g id="edge17" class="edge"><title>Node13&#45;&gt;Node16</title>
<path fill="none" stroke="midnightblue" d="M480.136,-57.1081C480.136,-48.1539 480.136,-38.3227 480.136,-30.5765"/>
<polygon fill="midnightblue" stroke="midnightblue" points="476.636,-57.3959 480.136,-67.396 483.636,-57.396 476.636,-57.3959"/>
</g>
<!-- Node13&#45;&gt;Node17 -->
<g id="edge18" class="edge"><title>Node13&#45;&gt;Node17</title>
<path fill="none" stroke="midnightblue" d="M568.58,-70.9709C676.533,-58.1193 856.89,-36.6483 955.852,-24.8671"/>
<polygon fill="midnightblue" stroke="midnightblue" points="567.88,-67.5294 558.364,-72.1871 568.708,-74.4803 567.88,-67.5294"/>
</g>
<!-- Node23&#45;&gt;Node11 -->
<g id="edge37" class="edge"><title>Node23&#45;&gt;Node11</title>
<path fill="none" stroke="midnightblue" d="M591.432,-261.544C613.172,-243.048 647.26,-216.66 681.136,-201 910.566,-94.9372 1208.76,-45.0364 1350.06,-26.0953"/>
<polygon fill="midnightblue" stroke="midnightblue" points="589.003,-259.017 583.731,-268.207 593.583,-264.311 589.003,-259.017"/>
</g>
<!-- Node23&#45;&gt;Node14 -->
<g id="edge35" class="edge"><title>Node23&#45;&gt;Node14</title>
<path fill="none" stroke="midnightblue" d="M472.065,-282.167C380.283,-279.561 251.289,-269.141 219.136,-232 163.525,-167.763 262.165,-67.3663 302.818,-30.5995"/>
<polygon fill="midnightblue" stroke="midnightblue" points="472.136,-285.67 482.223,-282.428 472.316,-278.672 472.136,-285.67"/>
</g>
<!-- Node23&#45;&gt;Node15 -->
<g id="edge38" class="edge"><title>Node23&#45;&gt;Node15</title>
<path fill="none" stroke="midnightblue" d="M569.313,-258.379C572.069,-217.387 581.1,-132.233 610.136,-67 616.115,-53.5678 626.246,-40.3611 634.544,-30.824"/>
<polygon fill="midnightblue" stroke="midnightblue" points="565.812,-258.298 568.703,-268.491 572.799,-258.72 565.812,-258.298"/>
</g>
<!-- Node23&#45;&gt;Node17 -->
<g id="edge42" class="edge"><title>Node23&#45;&gt;Node17</title>
<path fill="none" stroke="midnightblue" d="M577.572,-259.076C580.957,-250.57 584.767,-240.871 588.136,-232 615.838,-159.052 587.334,-115.909 648.136,-67 694.179,-29.9629 859.789,-20.0232 955.841,-17.3993"/>
<polygon fill="midnightblue" stroke="midnightblue" points="574.31,-257.808 573.847,-268.393 580.81,-260.407 574.31,-257.808"/>
</g>
<!-- Node23&#45;&gt;Node24 -->
<g id="edge34" class="edge"><title>Node23&#45;&gt;Node24</title>
<path fill="none" stroke="midnightblue" d="M472.3,-271.019C395.148,-261.482 283.99,-247.08 187.136,-232 182.477,-231.275 177.674,-230.495 172.841,-229.688"/>
<polygon fill="midnightblue" stroke="midnightblue" points="472.128,-274.524 482.482,-272.274 472.985,-267.577 472.128,-274.524"/>
</g>
<!-- Node23&#45;&gt;Node25 -->
<g id="edge36" class="edge"><title>Node23&#45;&gt;Node25</title>
<path fill="none" stroke="midnightblue" d="M655.031,-266.679C715.242,-255.716 794.528,-241.28 851.605,-230.888"/>
<polygon fill="midnightblue" stroke="midnightblue" points="654.371,-263.241 645.16,-268.476 655.625,-270.128 654.371,-263.241"/>
</g>
<!-- Node23&#45;&gt;Node26 -->
<g id="edge39" class="edge"><title>Node23&#45;&gt;Node26</title>
<path fill="none" stroke="midnightblue" d="M620.093,-265.092C651.41,-254.599 690.779,-241.408 720.123,-231.577"/>
<polygon fill="midnightblue" stroke="midnightblue" points="618.601,-261.9 610.231,-268.396 620.825,-268.538 618.601,-261.9"/>
</g>
<!-- Node27 -->
<g id="node24" class="node"><title>Node27</title>
<g id="a_node24"><a xlink:href="_o_r_bmatcher_8cc.html" target="_top" xlink:title="/home/alejandro/Desarrollo\l eclipse/os1/src/ORBmatcher.cc">
<polygon fill="white" stroke="black" points="228.636,-201.5 228.636,-231.5 387.636,-231.5 387.636,-201.5 228.636,-201.5"/>
<text text-anchor="start" x="236.636" y="-219.5" font-family="Helvetica,sans-Serif" font-size="10.00">/home/alejandro/Desarrollo</text>
<text text-anchor="middle" x="308.136" y="-208.5" font-family="Helvetica,sans-Serif" font-size="10.00"> eclipse/os1/src/ORBmatcher.cc</text>
</a>
</g>
</g>
<!-- Node23&#45;&gt;Node27 -->
<g id="edge40" class="edge"><title>Node23&#45;&gt;Node27</title>
<path fill="none" stroke="midnightblue" d="M502.073,-265.984C459.605,-255.367 405.016,-241.72 364.579,-231.611"/>
<polygon fill="midnightblue" stroke="midnightblue" points="501.489,-269.446 512.04,-268.476 503.187,-262.655 501.489,-269.446"/>
</g>
<!-- Node28 -->
<g id="node25" class="node"><title>Node28</title>
<g id="a_node25"><a xlink:href="_sim3_solver_8cc.html" target="_top" xlink:title="/home/alejandro/Desarrollo\l eclipse/os1/src/Sim3Solver.cc">
<polygon fill="white" stroke="black" points="406.136,-201.5 406.136,-231.5 558.136,-231.5 558.136,-201.5 406.136,-201.5"/>
<text text-anchor="start" x="414.136" y="-219.5" font-family="Helvetica,sans-Serif" font-size="10.00">/home/alejandro/Desarrollo</text>
<text text-anchor="middle" x="482.136" y="-208.5" font-family="Helvetica,sans-Serif" font-size="10.00"> eclipse/os1/src/Sim3Solver.cc</text>
</a>
</g>
</g>
<!-- Node23&#45;&gt;Node28 -->
<g id="edge41" class="edge"><title>Node23&#45;&gt;Node28</title>
<path fill="none" stroke="midnightblue" d="M541.234,-262.168C528.084,-252.228 512.586,-240.514 500.76,-231.577"/>
<polygon fill="midnightblue" stroke="midnightblue" points="539.387,-265.158 549.475,-268.396 543.608,-259.574 539.387,-265.158"/>
</g>
<!-- Node29&#45;&gt;Node17 -->
<g id="edge45" class="edge"><title>Node29&#45;&gt;Node17</title>
<path fill="none" stroke="midnightblue" d="M1082.17,-263.779C1068.33,-256.024 1054.68,-245.591 1046.14,-232 1005.05,-166.622 1017.04,-67.3417 1023.37,-30.7169"/>
<polygon fill="midnightblue" stroke="midnightblue" points="1080.75,-266.986 1091.23,-268.495 1083.98,-260.776 1080.75,-266.986"/>
</g>
<!-- Node30 -->
<g id="node27" class="node"><title>Node30</title>
<g id="a_node27"><a xlink:href="_pn_psolver_8cc.html" target="_top" xlink:title="/home/alejandro/Desarrollo\l eclipse/os1/src/PnPsolver.cc">
<polygon fill="white" stroke="black" points="1055.64,-201.5 1055.64,-231.5 1202.64,-231.5 1202.64,-201.5 1055.64,-201.5"/>
<text text-anchor="start" x="1063.64" y="-219.5" font-family="Helvetica,sans-Serif" font-size="10.00">/home/alejandro/Desarrollo</text>
<text text-anchor="middle" x="1129.14" y="-208.5" font-family="Helvetica,sans-Serif" font-size="10.00"> eclipse/os1/src/PnPsolver.cc</text>
</a>
</g>
</g>
<!-- Node29&#45;&gt;Node30 -->
<g id="edge44" class="edge"><title>Node29&#45;&gt;Node30</title>
<path fill="none" stroke="midnightblue" d="M1129.76,-258.108C1129.62,-249.154 1129.47,-239.323 1129.35,-231.577"/>
<polygon fill="midnightblue" stroke="midnightblue" points="1126.27,-258.451 1129.92,-268.396 1133.26,-258.343 1126.27,-258.451"/>
</g>
<!-- Node32&#45;&gt;Node8 -->
<g id="edge53" class="edge"><title>Node32&#45;&gt;Node8</title>
<path fill="none" stroke="midnightblue" d="M1494.12,-266.252C1541.33,-255.598 1602.44,-241.805 1647.61,-231.611"/>
<polygon fill="midnightblue" stroke="midnightblue" points="1493.26,-262.86 1484.27,-268.476 1494.8,-269.688 1493.26,-262.86"/>
</g>
<!-- Node32&#45;&gt;Node14 -->
<g id="edge54" class="edge"><title>Node32&#45;&gt;Node14</title>
<path fill="none" stroke="midnightblue" d="M1335.5,-266.263C1305.68,-258.51 1272.84,-247.448 1245.14,-232 1227.27,-222.042 1229.7,-209.567 1211.14,-201 1044.77,-124.246 555.693,-182.511 393.136,-98 363.122,-82.3964 339.236,-49.4092 327.353,-30.5358"/>
<polygon fill="midnightblue" stroke="midnightblue" points="1334.94,-269.73 1345.49,-268.767 1336.64,-262.94 1334.94,-269.73"/>
</g>
<!-- Node32&#45;&gt;Node17 -->
<g id="edge55" class="edge"><title>Node32&#45;&gt;Node17</title>
<path fill="none" stroke="midnightblue" d="M1387.29,-263.756C1352.23,-245.55 1296.19,-218.209 1245.14,-201 1175.24,-177.443 1139,-213.16 1083.14,-165 1041.93,-129.478 1030.39,-60.688 1027.26,-30.867"/>
<polygon fill="midnightblue" stroke="midnightblue" points="1385.68,-266.866 1396.17,-268.404 1388.93,-260.665 1385.68,-266.866"/>
</g>
</g>
</svg>
