<?xml version="1.0" encoding="UTF-8" standalone="no"?>
<!DOCTYPE svg PUBLIC "-//W3C//DTD SVG 1.1//EN"
 "http://www.w3.org/Graphics/SVG/1.1/DTD/svg11.dtd">
<!-- Generated by graphviz version 2.38.0 (20140413.2041)
 -->
<!-- Title: /home/alejandro/Desarrollo eclipse/os1/include/ORBmatcher.h Pages: 1 -->
<svg width="1487pt" height="106pt"
 viewBox="0.00 0.00 1486.50 106.00" xmlns="http://www.w3.org/2000/svg" xmlns:xlink="http://www.w3.org/1999/xlink">
<g id="graph0" class="graph" transform="scale(1 1) rotate(0) translate(4 102)">
<title>/home/alejandro/Desarrollo eclipse/os1/include/ORBmatcher.h</title>
<polygon fill="white" stroke="none" points="-4,4 -4,-102 1482.5,-102 1482.5,4 -4,4"/>
<!-- Node33 -->
<g id="node1" class="node"><title>Node33</title>
<polygon fill="#bfbfbf" stroke="black" points="648,-67.5 648,-97.5 819,-97.5 819,-67.5 648,-67.5"/>
<text text-anchor="start" x="656" y="-85.5" font-family="Helvetica,sans-Serif" font-size="10.00">/home/alejandro/Desarrollo</text>
<text text-anchor="middle" x="733.5" y="-74.5" font-family="Helvetica,sans-Serif" font-size="10.00"> eclipse/os1/include/ORBmatcher.h</text>
</g>
<!-- Node34 -->
<g id="node2" class="node"><title>Node34</title>
<g id="a_node2"><a xlink:href="_frame_8cc.html" target="_top" xlink:title="/home/alejandro/Desarrollo\l eclipse/os1/src/Frame.cc">
<polygon fill="white" stroke="black" points="0,-0.5 0,-30.5 133,-30.5 133,-0.5 0,-0.5"/>
<text text-anchor="start" x="8" y="-18.5" font-family="Helvetica,sans-Serif" font-size="10.00">/home/alejandro/Desarrollo</text>
<text text-anchor="middle" x="66.5" y="-7.5" font-family="Helvetica,sans-Serif" font-size="10.00"> eclipse/os1/src/Frame.cc</text>
</a>
</g>
</g>
<!-- Node33&#45;&gt;Node34 -->
<g id="edge1" class="edge"><title>Node33&#45;&gt;Node34</title>
<path fill="none" stroke="midnightblue" d="M637.859,-76.4654C520.529,-69.5705 315.73,-55.2042 141.5,-31 138.741,-30.6168 135.931,-30.1989 133.095,-29.7545"/>
<polygon fill="midnightblue" stroke="midnightblue" points="637.706,-79.9623 647.893,-77.0493 638.113,-72.9741 637.706,-79.9623"/>
</g>
<!-- Node35 -->
<g id="node3" class="node"><title>Node35</title>
<g id="a_node3"><a xlink:href="_initializer_8cc.html" target="_top" xlink:title="/home/alejandro/Desarrollo\l eclipse/os1/src/Initializer.cc">
<polygon fill="white" stroke="black" points="151,-0.5 151,-30.5 292,-30.5 292,-0.5 151,-0.5"/>
<text text-anchor="start" x="159" y="-18.5" font-family="Helvetica,sans-Serif" font-size="10.00">/home/alejandro/Desarrollo</text>
<text text-anchor="middle" x="221.5" y="-7.5" font-family="Helvetica,sans-Serif" font-size="10.00"> eclipse/os1/src/Initializer.cc</text>
</a>
</g>
</g>
<!-- Node33&#45;&gt;Node35 -->
<g id="edge2" class="edge"><title>Node33&#45;&gt;Node35</title>
<path fill="none" stroke="midnightblue" d="M637.883,-72.163C549.986,-63.1496 416.171,-48.3416 300.5,-31 297.742,-30.5865 294.933,-30.1491 292.097,-29.6941"/>
<polygon fill="midnightblue" stroke="midnightblue" points="637.533,-75.6454 647.837,-73.1791 638.244,-68.6816 637.533,-75.6454"/>
</g>
<!-- Node36 -->
<g id="node4" class="node"><title>Node36</title>
<g id="a_node4"><a xlink:href="_key_frame_8cc.html" target="_top" xlink:title="/home/alejandro/Desarrollo\l eclipse/os1/src/KeyFrame.cc">
<polygon fill="white" stroke="black" points="310,-0.5 310,-30.5 457,-30.5 457,-0.5 310,-0.5"/>
<text text-anchor="start" x="318" y="-18.5" font-family="Helvetica,sans-Serif" font-size="10.00">/home/alejandro/Desarrollo</text>
<text text-anchor="middle" x="383.5" y="-7.5" font-family="Helvetica,sans-Serif" font-size="10.00"> eclipse/os1/src/KeyFrame.cc</text>
</a>
</g>
</g>
<!-- Node33&#45;&gt;Node36 -->
<g id="edge3" class="edge"><title>Node33&#45;&gt;Node36</title>
<path fill="none" stroke="midnightblue" d="M648.029,-65.6268C589.555,-54.7674 512.83,-40.5185 457.078,-30.1645"/>
<polygon fill="midnightblue" stroke="midnightblue" points="647.515,-69.0912 657.986,-67.476 648.793,-62.2088 647.515,-69.0912"/>
</g>
<!-- Node37 -->
<g id="node5" class="node"><title>Node37</title>
<g id="a_node5"><a xlink:href="_local_mapping_8cc.html" target="_top" xlink:title="/home/alejandro/Desarrollo\l eclipse/os1/src/LocalMapping.cc">
<polygon fill="white" stroke="black" points="475.5,-0.5 475.5,-30.5 637.5,-30.5 637.5,-0.5 475.5,-0.5"/>
<text text-anchor="start" x="483.5" y="-18.5" font-family="Helvetica,sans-Serif" font-size="10.00">/home/alejandro/Desarrollo</text>
<text text-anchor="middle" x="556.5" y="-7.5" font-family="Helvetica,sans-Serif" font-size="10.00"> eclipse/os1/src/LocalMapping.cc</text>
</a>
</g>
</g>
<!-- Node33&#45;&gt;Node37 -->
<g id="edge4" class="edge"><title>Node33&#45;&gt;Node37</title>
<path fill="none" stroke="midnightblue" d="M685.352,-63.8185C656.902,-53.3707 621.372,-40.3231 594.831,-30.5765"/>
<polygon fill="midnightblue" stroke="midnightblue" points="684.5,-67.2342 695.094,-67.396 686.913,-60.6632 684.5,-67.2342"/>
</g>
<!-- Node38 -->
<g id="node6" class="node"><title>Node38</title>
<g id="a_node6"><a xlink:href="_loop_closing_8cc.html" target="_top" xlink:title="/home/alejandro/Desarrollo\l eclipse/os1/src/LoopClosing.cc">
<polygon fill="white" stroke="black" points="655.5,-0.5 655.5,-30.5 811.5,-30.5 811.5,-0.5 655.5,-0.5"/>
<text text-anchor="start" x="663.5" y="-18.5" font-family="Helvetica,sans-Serif" font-size="10.00">/home/alejandro/Desarrollo</text>
<text text-anchor="middle" x="733.5" y="-7.5" font-family="Helvetica,sans-Serif" font-size="10.00"> eclipse/os1/src/LoopClosing.cc</text>
</a>
</g>
</g>
<!-- Node33&#45;&gt;Node38 -->
<g id="edge5" class="edge"><title>Node33&#45;&gt;Node38</title>
<path fill="none" stroke="midnightblue" d="M733.5,-57.1081C733.5,-48.1539 733.5,-38.3227 733.5,-30.5765"/>
<polygon fill="midnightblue" stroke="midnightblue" points="730,-57.3959 733.5,-67.396 737,-57.396 730,-57.3959"/>
</g>
<!-- Node39 -->
<g id="node7" class="node"><title>Node39</title>
<g id="a_node7"><a xlink:href="_map_point_8cc.html" target="_top" xlink:title="/home/alejandro/Desarrollo\l eclipse/os1/src/MapPoint.cc">
<polygon fill="white" stroke="black" points="830,-0.5 830,-30.5 973,-30.5 973,-0.5 830,-0.5"/>
<text text-anchor="start" x="838" y="-18.5" font-family="Helvetica,sans-Serif" font-size="10.00">/home/alejandro/Desarrollo</text>
<text text-anchor="middle" x="901.5" y="-7.5" font-family="Helvetica,sans-Serif" font-size="10.00"> eclipse/os1/src/MapPoint.cc</text>
</a>
</g>
</g>
<!-- Node33&#45;&gt;Node39 -->
<g id="edge6" class="edge"><title>Node33&#45;&gt;Node39</title>
<path fill="none" stroke="midnightblue" d="M779.554,-63.6815C806.498,-53.2568 840.036,-40.2805 865.118,-30.5765"/>
<polygon fill="midnightblue" stroke="midnightblue" points="778.017,-60.5233 769.953,-67.396 780.543,-67.0517 778.017,-60.5233"/>
</g>
<!-- Node40 -->
<g id="node8" class="node"><title>Node40</title>
<g id="a_node8"><a xlink:href="_o_r_bmatcher_8cc.html" target="_top" xlink:title="/home/alejandro/Desarrollo\l eclipse/os1/src/ORBmatcher.cc">
<polygon fill="white" stroke="black" points="991,-0.5 991,-30.5 1150,-30.5 1150,-0.5 991,-0.5"/>
<text text-anchor="start" x="999" y="-18.5" font-family="Helvetica,sans-Serif" font-size="10.00">/home/alejandro/Desarrollo</text>
<text text-anchor="middle" x="1070.5" y="-7.5" font-family="Helvetica,sans-Serif" font-size="10.00"> eclipse/os1/src/ORBmatcher.cc</text>
</a>
</g>
</g>
<!-- Node33&#45;&gt;Node40 -->
<g id="edge7" class="edge"><title>Node33&#45;&gt;Node40</title>
<path fill="none" stroke="midnightblue" d="M816.371,-65.5159C871.895,-54.8067 944.312,-40.8389 997.631,-30.5549"/>
<polygon fill="midnightblue" stroke="midnightblue" points="815.365,-62.1454 806.209,-67.476 816.691,-69.0187 815.365,-62.1454"/>
</g>
<!-- Node41 -->
<g id="node9" class="node"><title>Node41</title>
<g id="a_node9"><a xlink:href="_sim3_solver_8cc.html" target="_top" xlink:title="/home/alejandro/Desarrollo\l eclipse/os1/src/Sim3Solver.cc">
<polygon fill="white" stroke="black" points="1168.5,-0.5 1168.5,-30.5 1320.5,-30.5 1320.5,-0.5 1168.5,-0.5"/>
<text text-anchor="start" x="1176.5" y="-18.5" font-family="Helvetica,sans-Serif" font-size="10.00">/home/alejandro/Desarrollo</text>
<text text-anchor="middle" x="1244.5" y="-7.5" font-family="Helvetica,sans-Serif" font-size="10.00"> eclipse/os1/src/Sim3Solver.cc</text>
</a>
</g>
</g>
<!-- Node33&#45;&gt;Node41 -->
<g id="edge8" class="edge"><title>Node33&#45;&gt;Node41</title>
<path fill="none" stroke="midnightblue" d="M829.402,-71.5435C915.861,-62.2316 1046.41,-47.3384 1159.5,-31 1162.32,-30.5933 1165.18,-30.1671 1168.07,-29.7265"/>
<polygon fill="midnightblue" stroke="midnightblue" points="828.912,-68.0759 819.343,-72.6231 829.659,-75.0359 828.912,-68.0759"/>
</g>
<!-- Node42 -->
<g id="node10" class="node"><title>Node42</title>
<g id="a_node10"><a xlink:href="_tracking_8cc.html" target="_top" xlink:title="/home/alejandro/Desarrollo\l eclipse/os1/src/Tracking.cc">
<polygon fill="white" stroke="black" points="1338.5,-0.5 1338.5,-30.5 1478.5,-30.5 1478.5,-0.5 1338.5,-0.5"/>
<text text-anchor="start" x="1346.5" y="-18.5" font-family="Helvetica,sans-Serif" font-size="10.00">/home/alejandro/Desarrollo</text>
<text text-anchor="middle" x="1408.5" y="-7.5" font-family="Helvetica,sans-Serif" font-size="10.00"> eclipse/os1/src/Tracking.cc</text>
</a>
</g>
</g>
<!-- Node33&#45;&gt;Node42 -->
<g id="edge9" class="edge"><title>Node33&#45;&gt;Node42</title>
<path fill="none" stroke="midnightblue" d="M829.245,-76.2561C947.248,-69.1334 1153.73,-54.5209 1329.5,-31 1332.4,-30.6116 1335.36,-30.1894 1338.34,-29.7414"/>
<polygon fill="midnightblue" stroke="midnightblue" points="828.929,-72.7687 819.156,-76.8598 829.347,-79.7562 828.929,-72.7687"/>
</g>
</g>
</svg>
