<?xml version="1.0" encoding="UTF-8" standalone="no"?>
<!DOCTYPE svg PUBLIC "-//W3C//DTD SVG 1.1//EN"
 "http://www.w3.org/Graphics/SVG/1.1/DTD/svg11.dtd">
<!-- Generated by graphviz version 2.38.0 (20140413.2041)
 -->
<!-- Title: /home/alejandro/Desarrollo eclipse/os1/src/ORBextractor.cc Pages: 1 -->
<svg width="597pt" height="162pt"
 viewBox="0.00 0.00 596.60 162.00" xmlns="http://www.w3.org/2000/svg" xmlns:xlink="http://www.w3.org/1999/xlink">
<g id="graph0" class="graph" transform="scale(1 1) rotate(0) translate(4 158)">
<title>/home/alejandro/Desarrollo eclipse/os1/src/ORBextractor.cc</title>
<polygon fill="white" stroke="none" points="-4,4 -4,-158 592.596,-158 592.596,4 -4,4"/>
<!-- Node0 -->
<g id="node1" class="node"><title>Node0</title>
<polygon fill="#bfbfbf" stroke="black" points="217.596,-123.5 217.596,-153.5 379.596,-153.5 379.596,-123.5 217.596,-123.5"/>
<text text-anchor="start" x="225.596" y="-141.5" font-family="Helvetica,sans-Serif" font-size="10.00">/home/alejandro/Desarrollo</text>
<text text-anchor="middle" x="298.596" y="-130.5" font-family="Helvetica,sans-Serif" font-size="10.00"> eclipse/os1/src/ORBextractor.cc</text>
</g>
<!-- Node1 -->
<g id="node2" class="node"><title>Node1</title>
<polygon fill="white" stroke="#bfbfbf" points="144.596,-0.5 144.596,-19.5 260.596,-19.5 260.596,-0.5 144.596,-0.5"/>
<text text-anchor="middle" x="202.596" y="-7.5" font-family="Helvetica,sans-Serif" font-size="10.00">opencv2/core/core.hpp</text>
</g>
<!-- Node0&#45;&gt;Node1 -->
<g id="edge1" class="edge"><title>Node0&#45;&gt;Node1</title>
<path fill="none" stroke="midnightblue" d="M217.5,-134.638C141.484,-130.047 35.7297,-118.096 9.59585,-87 -28.9938,-41.0825 64.3289,-22.7434 134.25,-15.5338"/>
<polygon fill="midnightblue" stroke="midnightblue" points="134.763,-19.0004 144.378,-14.5488 134.086,-12.0333 134.763,-19.0004"/>
</g>
<!-- Node2 -->
<g id="node3" class="node"><title>Node2</title>
<polygon fill="white" stroke="#bfbfbf" points="18.5959,-62 18.5959,-81 158.596,-81 158.596,-62 18.5959,-62"/>
<text text-anchor="middle" x="88.5959" y="-69" font-family="Helvetica,sans-Serif" font-size="10.00">opencv2/highgui/highgui.hpp</text>
</g>
<!-- Node0&#45;&gt;Node2 -->
<g id="edge2" class="edge"><title>Node0&#45;&gt;Node2</title>
<path fill="none" stroke="midnightblue" d="M253.288,-123.476C215.317,-111.723 161.751,-95.1433 126.139,-84.1205"/>
<polygon fill="midnightblue" stroke="midnightblue" points="126.738,-80.6421 116.15,-81.0287 124.668,-87.3291 126.738,-80.6421"/>
</g>
<!-- Node3 -->
<g id="node4" class="node"><title>Node3</title>
<polygon fill="white" stroke="#bfbfbf" points="176.596,-56.5 176.596,-86.5 278.596,-86.5 278.596,-56.5 176.596,-56.5"/>
<text text-anchor="start" x="184.596" y="-74.5" font-family="Helvetica,sans-Serif" font-size="10.00">opencv2/features2d</text>
<text text-anchor="middle" x="227.596" y="-63.5" font-family="Helvetica,sans-Serif" font-size="10.00">/features2d.hpp</text>
</g>
<!-- Node0&#45;&gt;Node3 -->
<g id="edge3" class="edge"><title>Node0&#45;&gt;Node3</title>
<path fill="none" stroke="midnightblue" d="M283.19,-123.396C273.607,-114.623 261.111,-103.183 250.394,-93.3714"/>
<polygon fill="midnightblue" stroke="midnightblue" points="252.711,-90.7475 242.972,-86.5765 247.984,-95.9106 252.711,-90.7475"/>
</g>
<!-- Node4 -->
<g id="node5" class="node"><title>Node4</title>
<polygon fill="white" stroke="#bfbfbf" points="297.096,-62 297.096,-81 444.096,-81 444.096,-62 297.096,-62"/>
<text text-anchor="middle" x="370.596" y="-69" font-family="Helvetica,sans-Serif" font-size="10.00">opencv2/imgproc/imgproc.hpp</text>
</g>
<!-- Node0&#45;&gt;Node4 -->
<g id="edge4" class="edge"><title>Node0&#45;&gt;Node4</title>
<path fill="none" stroke="midnightblue" d="M314.219,-123.396C325.779,-112.96 341.518,-98.7507 353.429,-87.9978"/>
<polygon fill="midnightblue" stroke="midnightblue" points="355.888,-90.4935 360.965,-81.1945 351.197,-85.2977 355.888,-90.4935"/>
</g>
<!-- Node5 -->
<g id="node6" class="node"><title>Node5</title>
<polygon fill="white" stroke="#bfbfbf" points="544.596,-0.5 544.596,-19.5 588.596,-19.5 588.596,-0.5 544.596,-0.5"/>
<text text-anchor="middle" x="566.596" y="-7.5" font-family="Helvetica,sans-Serif" font-size="10.00">vector</text>
</g>
<!-- Node0&#45;&gt;Node5 -->
<g id="edge5" class="edge"><title>Node0&#45;&gt;Node5</title>
<path fill="none" stroke="midnightblue" d="M379.914,-131.635C445.927,-125.107 531.821,-112.002 555.596,-87 569.99,-71.863 570.885,-46.7864 569.413,-29.607"/>
<polygon fill="midnightblue" stroke="midnightblue" points="572.884,-29.1558 568.222,-19.6419 565.934,-29.9866 572.884,-29.1558"/>
</g>
<!-- Node6 -->
<g id="node7" class="node"><title>Node6</title>
<g id="a_node7"><a xlink:href="_o_r_bextractor_8h.html" target="_top" xlink:title="ORBextractor.h">
<polygon fill="white" stroke="black" points="462.096,-62 462.096,-81 547.096,-81 547.096,-62 462.096,-62"/>
<text text-anchor="middle" x="504.596" y="-69" font-family="Helvetica,sans-Serif" font-size="10.00">ORBextractor.h</text>
</a>
</g>
</g>
<!-- Node0&#45;&gt;Node6 -->
<g id="edge6" class="edge"><title>Node0&#45;&gt;Node6</title>
<path fill="none" stroke="midnightblue" d="M343.041,-123.476C380.289,-111.723 432.834,-95.1433 467.768,-84.1205"/>
<polygon fill="midnightblue" stroke="midnightblue" points="469.083,-87.3756 477.567,-81.0287 466.977,-80.7 469.083,-87.3756"/>
</g>
<!-- Node6&#45;&gt;Node1 -->
<g id="edge9" class="edge"><title>Node6&#45;&gt;Node1</title>
<path fill="none" stroke="midnightblue" d="M475.839,-61.9622C468.311,-59.87 460.179,-57.7356 452.596,-56 390.66,-41.8235 319.255,-29.3508 268.656,-21.1543"/>
<polygon fill="midnightblue" stroke="midnightblue" points="268.933,-17.654 258.504,-19.522 267.822,-24.5652 268.933,-17.654"/>
</g>
<!-- Node6&#45;&gt;Node5 -->
<g id="edge7" class="edge"><title>Node6&#45;&gt;Node5</title>
<path fill="none" stroke="midnightblue" d="M513.479,-61.9751C523.055,-52.785 538.507,-37.9563 550.282,-26.656"/>
<polygon fill="midnightblue" stroke="midnightblue" points="552.938,-28.9585 557.729,-19.5091 548.091,-23.908 552.938,-28.9585"/>
</g>
<!-- Node7 -->
<g id="node8" class="node"><title>Node7</title>
<polygon fill="white" stroke="#bfbfbf" points="490.096,-0.5 490.096,-19.5 519.096,-19.5 519.096,-0.5 490.096,-0.5"/>
<text text-anchor="middle" x="504.596" y="-7.5" font-family="Helvetica,sans-Serif" font-size="10.00">list</text>
</g>
<!-- Node6&#45;&gt;Node7 -->
<g id="edge8" class="edge"><title>Node6&#45;&gt;Node7</title>
<path fill="none" stroke="midnightblue" d="M504.596,-61.9751C504.596,-53.5803 504.596,-40.4806 504.596,-29.6631"/>
<polygon fill="midnightblue" stroke="midnightblue" points="508.096,-29.5091 504.596,-19.5091 501.096,-29.5091 508.096,-29.5091"/>
</g>
</g>
</svg>
