<?xml version="1.0" encoding="UTF-8" standalone="no"?>
<!DOCTYPE svg PUBLIC "-//W3C//DTD SVG 1.1//EN"
 "http://www.w3.org/Graphics/SVG/1.1/DTD/svg11.dtd">
<!-- Generated by graphviz version 2.38.0 (20140413.2041)
 -->
<!-- Title: /home/alejandro/Desarrollo eclipse/os1/include/ORBVocabulary.h Pages: 1 -->
<svg width="1259pt" height="508pt"
 viewBox="0.00 0.00 1259.00 508.00" xmlns="http://www.w3.org/2000/svg" xmlns:xlink="http://www.w3.org/1999/xlink">
<g id="graph0" class="graph" transform="scale(1 1) rotate(0) translate(4 504)">
<title>/home/alejandro/Desarrollo eclipse/os1/include/ORBVocabulary.h</title>
<polygon fill="white" stroke="none" points="-4,4 -4,-504 1255,-504 1255,4 -4,4"/>
<!-- Node3 -->
<g id="node1" class="node"><title>Node3</title>
<polygon fill="#bfbfbf" stroke="black" points="802.5,-469.5 802.5,-499.5 987.5,-499.5 987.5,-469.5 802.5,-469.5"/>
<text text-anchor="start" x="810.5" y="-487.5" font-family="Helvetica,sans-Serif" font-size="10.00">/home/alejandro/Desarrollo</text>
<text text-anchor="middle" x="895" y="-476.5" font-family="Helvetica,sans-Serif" font-size="10.00"> eclipse/os1/include/ORBVocabulary.h</text>
</g>
<!-- Node4 -->
<g id="node2" class="node"><title>Node4</title>
<g id="a_node2"><a xlink:href="_key_frame_8h.html" target="_top" xlink:title="/home/alejandro/Desarrollo\l eclipse/os1/include/KeyFrame.h">
<polygon fill="white" stroke="black" points="351.5,-402.5 351.5,-432.5 510.5,-432.5 510.5,-402.5 351.5,-402.5"/>
<text text-anchor="start" x="359.5" y="-420.5" font-family="Helvetica,sans-Serif" font-size="10.00">/home/alejandro/Desarrollo</text>
<text text-anchor="middle" x="431" y="-409.5" font-family="Helvetica,sans-Serif" font-size="10.00"> eclipse/os1/include/KeyFrame.h</text>
</a>
</g>
</g>
<!-- Node3&#45;&gt;Node4 -->
<g id="edge1" class="edge"><title>Node3&#45;&gt;Node4</title>
<path fill="none" stroke="midnightblue" d="M792.569,-469.151C707.607,-457.249 588.516,-440.566 510.584,-429.649"/>
<polygon fill="midnightblue" stroke="midnightblue" points="792.107,-472.62 802.496,-470.541 793.078,-465.688 792.107,-472.62"/>
</g>
<!-- Node6 -->
<g id="node4" class="node"><title>Node6</title>
<g id="a_node4"><a xlink:href="_frame_8h.html" target="_top" xlink:title="/home/alejandro/Desarrollo\l eclipse/os1/include/Frame.h">
<polygon fill="white" stroke="black" points="557,-268.5 557,-298.5 699,-298.5 699,-268.5 557,-268.5"/>
<text text-anchor="start" x="565" y="-286.5" font-family="Helvetica,sans-Serif" font-size="10.00">/home/alejandro/Desarrollo</text>
<text text-anchor="middle" x="628" y="-275.5" font-family="Helvetica,sans-Serif" font-size="10.00"> eclipse/os1/include/Frame.h</text>
</a>
</g>
</g>
<!-- Node3&#45;&gt;Node6 -->
<g id="edge45" class="edge"><title>Node3&#45;&gt;Node6</title>
<path fill="none" stroke="midnightblue" d="M867.686,-463.143C813.497,-422.754 693.608,-333.399 647.028,-298.682"/>
<polygon fill="midnightblue" stroke="midnightblue" points="865.688,-466.019 875.798,-469.188 869.872,-460.406 865.688,-466.019"/>
</g>
<!-- Node7 -->
<g id="node5" class="node"><title>Node7</title>
<g id="a_node5"><a xlink:href="_key_frame_database_8h.html" target="_top" xlink:title="/home/alejandro/Desarrollo\l eclipse/os1/include/KeyFrameDatabase.h">
<polygon fill="white" stroke="black" points="831.5,-201.5 831.5,-231.5 1032.5,-231.5 1032.5,-201.5 831.5,-201.5"/>
<text text-anchor="start" x="839.5" y="-219.5" font-family="Helvetica,sans-Serif" font-size="10.00">/home/alejandro/Desarrollo</text>
<text text-anchor="middle" x="932" y="-208.5" font-family="Helvetica,sans-Serif" font-size="10.00"> eclipse/os1/include/KeyFrameDatabase.h</text>
</a>
</g>
</g>
<!-- Node3&#45;&gt;Node7 -->
<g id="edge37" class="edge"><title>Node3&#45;&gt;Node7</title>
<path fill="none" stroke="midnightblue" d="M898.399,-459.065C905.979,-404.572 924.069,-274.521 930.046,-231.549"/>
<polygon fill="midnightblue" stroke="midnightblue" points="894.9,-458.812 896.989,-469.199 901.834,-459.776 894.9,-458.812"/>
</g>
<!-- Node8 -->
<g id="node6" class="node"><title>Node8</title>
<g id="a_node6"><a xlink:href="_tracking_8h.html" target="_top" xlink:title="/home/alejandro/Desarrollo\l eclipse/os1/include/Tracking.h">
<polygon fill="white" stroke="black" points="856,-134.5 856,-164.5 1008,-164.5 1008,-134.5 856,-134.5"/>
<text text-anchor="start" x="864" y="-152.5" font-family="Helvetica,sans-Serif" font-size="10.00">/home/alejandro/Desarrollo</text>
<text text-anchor="middle" x="932" y="-141.5" font-family="Helvetica,sans-Serif" font-size="10.00"> eclipse/os1/include/Tracking.h</text>
</a>
</g>
</g>
<!-- Node3&#45;&gt;Node8 -->
<g id="edge47" class="edge"><title>Node3&#45;&gt;Node8</title>
<path fill="none" stroke="midnightblue" d="M906.921,-459.916C910.976,-451.516 915.391,-441.926 919,-433 936.227,-390.392 929.105,-374.85 952,-335 982.284,-282.289 1020.64,-288.914 1042,-232 1046.84,-219.101 1049.44,-212.598 1042,-201 1030.83,-183.576 1011.97,-172.084 992.99,-164.539"/>
<polygon fill="midnightblue" stroke="midnightblue" points="903.668,-458.6 902.396,-469.119 909.949,-461.689 903.668,-458.6"/>
</g>
<!-- Node9 -->
<g id="node7" class="node"><title>Node9</title>
<g id="a_node7"><a xlink:href="_loop_closing_8h.html" target="_top" xlink:title="/home/alejandro/Desarrollo\l eclipse/os1/include/LoopClosing.h">
<polygon fill="white" stroke="black" points="735,-67.5 735,-97.5 903,-97.5 903,-67.5 735,-67.5"/>
<text text-anchor="start" x="743" y="-85.5" font-family="Helvetica,sans-Serif" font-size="10.00">/home/alejandro/Desarrollo</text>
<text text-anchor="middle" x="819" y="-74.5" font-family="Helvetica,sans-Serif" font-size="10.00"> eclipse/os1/include/LoopClosing.h</text>
</a>
</g>
</g>
<!-- Node3&#45;&gt;Node9 -->
<g id="edge46" class="edge"><title>Node3&#45;&gt;Node9</title>
<path fill="none" stroke="midnightblue" d="M791.891,-478.923C556.549,-467.102 0,-430.767 0,-351.5 0,-351.5 0,-351.5 0,-215.5 0,-141.644 525.825,-101.397 734.82,-88.3169"/>
<polygon fill="midnightblue" stroke="midnightblue" points="792.01,-482.433 802.172,-479.434 792.358,-475.442 792.01,-482.433"/>
</g>
<!-- Node17 -->
<g id="node15" class="node"><title>Node17</title>
<g id="a_node15"><a xlink:href="_map_8h.html" target="_top" xlink:title="/home/alejandro/Desarrollo\l eclipse/os1/include/Map.h">
<polygon fill="white" stroke="black" points="1070.5,-402.5 1070.5,-432.5 1203.5,-432.5 1203.5,-402.5 1070.5,-402.5"/>
<text text-anchor="start" x="1078.5" y="-420.5" font-family="Helvetica,sans-Serif" font-size="10.00">/home/alejandro/Desarrollo</text>
<text text-anchor="middle" x="1137" y="-409.5" font-family="Helvetica,sans-Serif" font-size="10.00"> eclipse/os1/include/Map.h</text>
</a>
</g>
</g>
<!-- Node3&#45;&gt;Node17 -->
<g id="edge38" class="edge"><title>Node3&#45;&gt;Node17</title>
<path fill="none" stroke="midnightblue" d="M956.99,-466.85C996.445,-456.252 1046.99,-442.677 1084.46,-432.611"/>
<polygon fill="midnightblue" stroke="midnightblue" points="955.962,-463.502 947.212,-469.476 957.778,-470.262 955.962,-463.502"/>
</g>
<!-- Node18 -->
<g id="node16" class="node"><title>Node18</title>
<g id="a_node16"><a xlink:href="_system_8h.html" target="_top" xlink:title="/home/alejandro/Desarrollo\l eclipse/os1/include/System.h">
<polygon fill="white" stroke="black" points="961,-335.5 961,-365.5 1109,-365.5 1109,-335.5 961,-335.5"/>
<text text-anchor="start" x="969" y="-353.5" font-family="Helvetica,sans-Serif" font-size="10.00">/home/alejandro/Desarrollo</text>
<text text-anchor="middle" x="1035" y="-342.5" font-family="Helvetica,sans-Serif" font-size="10.00"> eclipse/os1/include/System.h</text>
</a>
</g>
</g>
<!-- Node3&#45;&gt;Node18 -->
<g id="edge48" class="edge"><title>Node3&#45;&gt;Node18</title>
<path fill="none" stroke="midnightblue" d="M917.543,-462.245C946.393,-435.044 995.567,-388.68 1020.13,-365.525"/>
<polygon fill="midnightblue" stroke="midnightblue" points="914.857,-459.967 909.982,-469.374 919.659,-465.06 914.857,-459.967"/>
</g>
<!-- Node5 -->
<g id="node3" class="node"><title>Node5</title>
<g id="a_node3"><a xlink:href="_map_point_8h.html" target="_top" xlink:title="/home/alejandro/Desarrollo\l eclipse/os1/include/MapPoint.h">
<polygon fill="white" stroke="black" points="406.5,-335.5 406.5,-365.5 561.5,-365.5 561.5,-335.5 406.5,-335.5"/>
<text text-anchor="start" x="414.5" y="-353.5" font-family="Helvetica,sans-Serif" font-size="10.00">/home/alejandro/Desarrollo</text>
<text text-anchor="middle" x="484" y="-342.5" font-family="Helvetica,sans-Serif" font-size="10.00"> eclipse/os1/include/MapPoint.h</text>
</a>
</g>
</g>
<!-- Node4&#45;&gt;Node5 -->
<g id="edge2" class="edge"><title>Node4&#45;&gt;Node5</title>
<path fill="none" stroke="midnightblue" d="M442.77,-394.157C449.917,-384.679 458.949,-373.919 466.847,-365.577"/>
<polygon fill="midnightblue" stroke="midnightblue" points="439.838,-392.239 436.822,-402.396 445.513,-396.337 439.838,-392.239"/>
</g>
<!-- Node4&#45;&gt;Node7 -->
<g id="edge30" class="edge"><title>Node4&#45;&gt;Node7</title>
<path fill="none" stroke="midnightblue" d="M485.776,-399.666C516.678,-390.623 555.738,-378.73 590,-366 705.411,-323.119 837.674,-259.677 898.508,-231.669"/>
<polygon fill="midnightblue" stroke="midnightblue" points="484.669,-396.343 476.046,-402.499 486.626,-403.064 484.669,-396.343"/>
</g>
<!-- Node4&#45;&gt;Node9 -->
<g id="edge32" class="edge"><title>Node4&#45;&gt;Node9</title>
<path fill="none" stroke="midnightblue" d="M341.377,-415.733C252.831,-412.847 126.222,-402.265 95,-366 48.5698,-312.07 48.3995,-287.994 171,-201 260.574,-137.441 580.674,-103.103 734.835,-89.924"/>
<polygon fill="midnightblue" stroke="midnightblue" points="341.338,-419.234 351.438,-416.034 341.547,-412.237 341.338,-419.234"/>
</g>
<!-- Node10 -->
<g id="node8" class="node"><title>Node10</title>
<g id="a_node8"><a xlink:href="_local_mapping_8h.html" target="_top" xlink:title="/home/alejandro/Desarrollo\l eclipse/os1/include/LocalMapping.h">
<polygon fill="white" stroke="black" points="853,-0.5 853,-30.5 1027,-30.5 1027,-0.5 853,-0.5"/>
<text text-anchor="start" x="861" y="-18.5" font-family="Helvetica,sans-Serif" font-size="10.00">/home/alejandro/Desarrollo</text>
<text text-anchor="middle" x="940" y="-7.5" font-family="Helvetica,sans-Serif" font-size="10.00"> eclipse/os1/include/LocalMapping.h</text>
</a>
</g>
</g>
<!-- Node4&#45;&gt;Node10 -->
<g id="edge31" class="edge"><title>Node4&#45;&gt;Node10</title>
<path fill="none" stroke="midnightblue" d="M388.008,-398.249C367.894,-389.244 343.836,-377.797 323,-366 301.546,-353.853 298.541,-346.991 277,-335 242.933,-316.037 227.29,-323.55 197,-299 159.169,-268.338 117.723,-239.14 148,-201 235.339,-90.976 665.47,-40.5184 852.682,-23.5035"/>
<polygon fill="midnightblue" stroke="midnightblue" points="386.678,-401.488 397.239,-402.335 389.511,-395.087 386.678,-401.488"/>
</g>
<!-- Node11 -->
<g id="node9" class="node"><title>Node11</title>
<g id="a_node9"><a xlink:href="_optimizer_8h.html" target="_top" xlink:title="/home/alejandro/Desarrollo\l eclipse/os1/include/Optimizer.h">
<polygon fill="white" stroke="black" points="516,-0.5 516,-30.5 672,-30.5 672,-0.5 516,-0.5"/>
<text text-anchor="start" x="524" y="-18.5" font-family="Helvetica,sans-Serif" font-size="10.00">/home/alejandro/Desarrollo</text>
<text text-anchor="middle" x="594" y="-7.5" font-family="Helvetica,sans-Serif" font-size="10.00"> eclipse/os1/include/Optimizer.h</text>
</a>
</g>
</g>
<!-- Node4&#45;&gt;Node11 -->
<g id="edge34" class="edge"><title>Node4&#45;&gt;Node11</title>
<path fill="none" stroke="midnightblue" d="M341.383,-414.244C248.061,-410.142 109.874,-398.581 69,-366 38.6953,-341.844 38,-323.254 38,-284.5 38,-284.5 38,-284.5 38,-148.5 38,-110.74 32.8663,-91.0219 62,-67 96.2472,-38.7618 376.596,-24.5214 515.956,-19.1312"/>
<polygon fill="midnightblue" stroke="midnightblue" points="341.261,-417.742 351.399,-414.663 341.554,-410.748 341.261,-417.742"/>
</g>
<!-- Node13 -->
<g id="node11" class="node"><title>Node13</title>
<g id="a_node11"><a xlink:href="_o_r_bmatcher_8h.html" target="_top" xlink:title="/home/alejandro/Desarrollo\l eclipse/os1/include/ORBmatcher.h">
<polygon fill="white" stroke="black" points="180.5,-201.5 180.5,-231.5 351.5,-231.5 351.5,-201.5 180.5,-201.5"/>
<text text-anchor="start" x="188.5" y="-219.5" font-family="Helvetica,sans-Serif" font-size="10.00">/home/alejandro/Desarrollo</text>
<text text-anchor="middle" x="266" y="-208.5" font-family="Helvetica,sans-Serif" font-size="10.00"> eclipse/os1/include/ORBmatcher.h</text>
</a>
</g>
</g>
<!-- Node4&#45;&gt;Node13 -->
<g id="edge35" class="edge"><title>Node4&#45;&gt;Node13</title>
<path fill="none" stroke="midnightblue" d="M399.708,-396.6C369.115,-375.682 323.145,-340.134 295,-299 280.583,-277.929 272.525,-248.903 268.738,-231.779"/>
<polygon fill="midnightblue" stroke="midnightblue" points="398.033,-399.691 408.287,-402.358 401.935,-393.879 398.033,-399.691"/>
</g>
<!-- Node15 -->
<g id="node13" class="node"><title>Node15</title>
<g id="a_node13"><a xlink:href="_map_drawer_8h.html" target="_top" xlink:title="/home/alejandro/Desarrollo\l eclipse/os1/include/MapDrawer.h">
<polygon fill="white" stroke="black" points="337,-268.5 337,-298.5 501,-298.5 501,-268.5 337,-268.5"/>
<text text-anchor="start" x="345" y="-286.5" font-family="Helvetica,sans-Serif" font-size="10.00">/home/alejandro/Desarrollo</text>
<text text-anchor="middle" x="419" y="-275.5" font-family="Helvetica,sans-Serif" font-size="10.00"> eclipse/os1/include/MapDrawer.h</text>
</a>
</g>
</g>
<!-- Node4&#45;&gt;Node15 -->
<g id="edge33" class="edge"><title>Node4&#45;&gt;Node15</title>
<path fill="none" stroke="midnightblue" d="M411.85,-394.221C405.885,-385.917 400.069,-376.053 397,-366 389.854,-342.591 401.394,-315.041 410.281,-298.714"/>
<polygon fill="midnightblue" stroke="midnightblue" points="409.148,-396.449 418.012,-402.253 414.702,-392.189 409.148,-396.449"/>
</g>
<!-- Node16 -->
<g id="node14" class="node"><title>Node16</title>
<g id="a_node14"><a xlink:href="_sim3_solver_8h.html" target="_top" xlink:title="/home/alejandro/Desarrollo\l eclipse/os1/include/Sim3Solver.h">
<polygon fill="white" stroke="black" points="104,-335.5 104,-365.5 268,-365.5 268,-335.5 104,-335.5"/>
<text text-anchor="start" x="112" y="-353.5" font-family="Helvetica,sans-Serif" font-size="10.00">/home/alejandro/Desarrollo</text>
<text text-anchor="middle" x="186" y="-342.5" font-family="Helvetica,sans-Serif" font-size="10.00"> eclipse/os1/include/Sim3Solver.h</text>
</a>
</g>
</g>
<!-- Node4&#45;&gt;Node16 -->
<g id="edge36" class="edge"><title>Node4&#45;&gt;Node16</title>
<path fill="none" stroke="midnightblue" d="M368.242,-399.85C328.297,-389.252 277.13,-375.677 239.187,-365.611"/>
<polygon fill="midnightblue" stroke="midnightblue" points="367.577,-403.295 378.14,-402.476 369.372,-396.529 367.577,-403.295"/>
</g>
<!-- Node5&#45;&gt;Node4 -->
<g id="edge24" class="edge"><title>Node5&#45;&gt;Node4</title>
<path fill="none" stroke="midnightblue" d="M472.254,-373.811C465.11,-383.287 456.08,-394.049 448.179,-402.396"/>
<polygon fill="midnightblue" stroke="midnightblue" points="475.183,-375.734 478.197,-365.577 469.507,-371.637 475.183,-375.734"/>
</g>
<!-- Node5&#45;&gt;Node6 -->
<g id="edge3" class="edge"><title>Node5&#45;&gt;Node6</title>
<path fill="none" stroke="midnightblue" d="M518.842,-330.992C540.743,-320.689 568.866,-308.068 591.14,-298.577"/>
<polygon fill="midnightblue" stroke="midnightblue" points="517.1,-327.945 509.567,-335.396 520.102,-334.268 517.1,-327.945"/>
</g>
<!-- Node5&#45;&gt;Node11 -->
<g id="edge27" class="edge"><title>Node5&#45;&gt;Node11</title>
<path fill="none" stroke="midnightblue" d="M399.962,-333.364C301.606,-312.021 152,-270.797 152,-217.5 152,-217.5 152,-217.5 152,-148.5 152,-73.4203 389.107,-37.5103 515.997,-23.6684"/>
<polygon fill="midnightblue" stroke="midnightblue" points="399.395,-336.822 409.906,-335.493 400.86,-329.977 399.395,-336.822"/>
</g>
<!-- Node5&#45;&gt;Node13 -->
<g id="edge28" class="edge"><title>Node5&#45;&gt;Node13</title>
<path fill="none" stroke="midnightblue" d="M400.47,-332.592C375.665,-324.99 349.423,-314.19 328,-299 302.765,-281.108 283.192,-249.887 273.241,-231.722"/>
<polygon fill="midnightblue" stroke="midnightblue" points="399.677,-336.006 410.258,-335.453 401.641,-329.288 399.677,-336.006"/>
</g>
<!-- Node14 -->
<g id="node12" class="node"><title>Node14</title>
<g id="a_node12"><a xlink:href="_pn_psolver_8h.html" target="_top" xlink:title="/home/alejandro/Desarrollo\l eclipse/os1/include/PnPsolver.h">
<polygon fill="white" stroke="black" points="407.5,-201.5 407.5,-231.5 566.5,-231.5 566.5,-201.5 407.5,-201.5"/>
<text text-anchor="start" x="415.5" y="-219.5" font-family="Helvetica,sans-Serif" font-size="10.00">/home/alejandro/Desarrollo</text>
<text text-anchor="middle" x="487" y="-208.5" font-family="Helvetica,sans-Serif" font-size="10.00"> eclipse/os1/include/PnPsolver.h</text>
</a>
</g>
</g>
<!-- Node5&#45;&gt;Node14 -->
<g id="edge29" class="edge"><title>Node5&#45;&gt;Node14</title>
<path fill="none" stroke="midnightblue" d="M498.774,-326.474C503.308,-318.153 507.705,-308.47 510,-299 513.245,-285.61 512.922,-281.464 510,-268 507.181,-255.008 500.717,-241.348 495.358,-231.516"/>
<polygon fill="midnightblue" stroke="midnightblue" points="495.698,-324.801 493.701,-335.206 501.751,-328.318 495.698,-324.801"/>
</g>
<!-- Node5&#45;&gt;Node15 -->
<g id="edge25" class="edge"><title>Node5&#45;&gt;Node15</title>
<path fill="none" stroke="midnightblue" d="M462.811,-328.311C453.061,-318.561 441.759,-307.259 433.077,-298.577"/>
<polygon fill="midnightblue" stroke="midnightblue" points="460.35,-330.8 469.896,-335.396 465.3,-325.85 460.35,-330.8"/>
</g>
<!-- Node6&#45;&gt;Node4 -->
<g id="edge4" class="edge"><title>Node6&#45;&gt;Node4</title>
<path fill="none" stroke="midnightblue" d="M616.421,-307.906C606.384,-326.027 590.291,-350.562 570,-366 547.727,-382.945 519.222,-394.616 493.829,-402.431"/>
<polygon fill="midnightblue" stroke="midnightblue" points="619.765,-309.071 621.362,-298.597 613.582,-305.789 619.765,-309.071"/>
</g>
<!-- Node6&#45;&gt;Node5 -->
<g id="edge17" class="edge"><title>Node6&#45;&gt;Node5</title>
<path fill="none" stroke="midnightblue" d="M593.221,-302.978C571.333,-313.276 543.21,-325.899 520.924,-335.396"/>
<polygon fill="midnightblue" stroke="midnightblue" points="594.958,-306.028 602.49,-298.577 591.955,-299.705 594.958,-306.028"/>
</g>
<!-- Node6&#45;&gt;Node7 -->
<g id="edge5" class="edge"><title>Node6&#45;&gt;Node7</title>
<path fill="none" stroke="midnightblue" d="M703.381,-266.382C753.384,-255.691 818.368,-241.796 866.267,-231.555"/>
<polygon fill="midnightblue" stroke="midnightblue" points="702.636,-262.962 693.589,-268.476 704.1,-269.808 702.636,-262.962"/>
</g>
<!-- Node6&#45;&gt;Node8 -->
<g id="edge20" class="edge"><title>Node6&#45;&gt;Node8</title>
<path fill="none" stroke="midnightblue" d="M628.275,-258.387C629.836,-240 635.071,-215.451 651,-201 680.414,-174.315 783.112,-161.25 855.82,-155.21"/>
<polygon fill="midnightblue" stroke="midnightblue" points="624.78,-258.201 627.728,-268.378 631.77,-258.584 624.78,-258.201"/>
</g>
<!-- Node6&#45;&gt;Node11 -->
<g id="edge21" class="edge"><title>Node6&#45;&gt;Node11</title>
<path fill="none" stroke="midnightblue" d="M624.877,-258.065C617.911,-203.572 601.288,-73.521 595.796,-30.5492"/>
<polygon fill="midnightblue" stroke="midnightblue" points="621.432,-258.723 626.172,-268.199 628.376,-257.836 621.432,-258.723"/>
</g>
<!-- Node12 -->
<g id="node10" class="node"><title>Node12</title>
<g id="a_node10"><a xlink:href="_initializer_8h.html" target="_top" xlink:title="/home/alejandro/Desarrollo\l eclipse/os1/include/Initializer.h">
<polygon fill="white" stroke="black" points="660.5,-201.5 660.5,-231.5 813.5,-231.5 813.5,-201.5 660.5,-201.5"/>
<text text-anchor="start" x="668.5" y="-219.5" font-family="Helvetica,sans-Serif" font-size="10.00">/home/alejandro/Desarrollo</text>
<text text-anchor="middle" x="737" y="-208.5" font-family="Helvetica,sans-Serif" font-size="10.00"> eclipse/os1/include/Initializer.h</text>
</a>
</g>
</g>
<!-- Node6&#45;&gt;Node12 -->
<g id="edge18" class="edge"><title>Node6&#45;&gt;Node12</title>
<path fill="none" stroke="midnightblue" d="M660.675,-263.015C677.637,-252.9 697.978,-240.77 713.395,-231.577"/>
<polygon fill="midnightblue" stroke="midnightblue" points="658.448,-260.268 651.651,-268.396 662.033,-266.28 658.448,-260.268"/>
</g>
<!-- Node6&#45;&gt;Node13 -->
<g id="edge22" class="edge"><title>Node6&#45;&gt;Node13</title>
<path fill="none" stroke="midnightblue" d="M547.003,-267.956C486.413,-257.077 404.032,-242.285 344.142,-231.531"/>
<polygon fill="midnightblue" stroke="midnightblue" points="546.451,-271.413 556.912,-269.736 547.688,-264.523 546.451,-271.413"/>
</g>
<!-- Node6&#45;&gt;Node14 -->
<g id="edge23" class="edge"><title>Node6&#45;&gt;Node14</title>
<path fill="none" stroke="midnightblue" d="M588.152,-264.131C565.748,-253.802 538.216,-241.11 517.535,-231.577"/>
<polygon fill="midnightblue" stroke="midnightblue" points="586.858,-267.388 597.405,-268.396 589.789,-261.031 586.858,-267.388"/>
</g>
<!-- Node7&#45;&gt;Node4 -->
<g id="edge6" class="edge"><title>Node7&#45;&gt;Node4</title>
<path fill="none" stroke="midnightblue" d="M899.591,-236.387C841.771,-266.311 717.325,-325.381 608,-366 570.03,-380.108 526.168,-393.187 491.522,-402.499"/>
<polygon fill="midnightblue" stroke="midnightblue" points="901.374,-239.404 908.614,-231.669 898.13,-233.201 901.374,-239.404"/>
</g>
<!-- Node7&#45;&gt;Node8 -->
<g id="edge7" class="edge"><title>Node7&#45;&gt;Node8</title>
<path fill="none" stroke="midnightblue" d="M932,-191.108C932,-182.154 932,-172.323 932,-164.577"/>
<polygon fill="midnightblue" stroke="midnightblue" points="928.5,-191.396 932,-201.396 935.5,-191.396 928.5,-191.396"/>
</g>
<!-- Node7&#45;&gt;Node9 -->
<g id="edge15" class="edge"><title>Node7&#45;&gt;Node9</title>
<path fill="none" stroke="midnightblue" d="M887.568,-196.781C872.978,-188.802 857.763,-178.233 847,-165 830.763,-145.036 823.705,-115.108 820.821,-97.6177"/>
<polygon fill="midnightblue" stroke="midnightblue" points="886.035,-199.929 896.525,-201.416 889.251,-193.712 886.035,-199.929"/>
</g>
<!-- Node7&#45;&gt;Node10 -->
<g id="edge16" class="edge"><title>Node7&#45;&gt;Node10</title>
<path fill="none" stroke="midnightblue" d="M982.397,-196.746C996.051,-189.079 1009.2,-178.706 1017,-165 1044.58,-116.539 987.476,-57.238 957.202,-30.6166"/>
<polygon fill="midnightblue" stroke="midnightblue" points="980.674,-193.696 973.402,-201.401 983.892,-199.913 980.674,-193.696"/>
</g>
<!-- Node8&#45;&gt;Node9 -->
<g id="edge8" class="edge"><title>Node8&#45;&gt;Node9</title>
<path fill="none" stroke="midnightblue" d="M892.903,-129.575C874.244,-119.35 852.844,-106.94 837.797,-97.5765"/>
<polygon fill="midnightblue" stroke="midnightblue" points="891.342,-132.71 901.802,-134.396 894.677,-126.555 891.342,-132.71"/>
</g>
<!-- Node8&#45;&gt;Node10 -->
<g id="edge14" class="edge"><title>Node8&#45;&gt;Node10</title>
<path fill="none" stroke="midnightblue" d="M928.099,-124.024C927.651,-96.5121 930.643,-52.7894 934.792,-30.5247"/>
<polygon fill="midnightblue" stroke="midnightblue" points="924.615,-124.511 928.486,-134.374 931.61,-124.25 924.615,-124.511"/>
</g>
<!-- Node9&#45;&gt;Node8 -->
<g id="edge12" class="edge"><title>Node9&#45;&gt;Node8</title>
<path fill="none" stroke="midnightblue" d="M858.042,-102.395C876.695,-112.615 898.099,-125.026 913.159,-134.396"/>
<polygon fill="midnightblue" stroke="midnightblue" points="859.606,-99.2616 849.146,-97.5765 856.272,-105.417 859.606,-99.2616"/>
</g>
<!-- Node9&#45;&gt;Node10 -->
<g id="edge9" class="edge"><title>Node9&#45;&gt;Node10</title>
<path fill="none" stroke="midnightblue" d="M848.529,-62.2956C866.607,-52.1248 889.629,-39.8549 908.121,-30.5765"/>
<polygon fill="midnightblue" stroke="midnightblue" points="846.533,-59.4046 839.577,-67.396 849.998,-65.4868 846.533,-59.4046"/>
</g>
<!-- Node9&#45;&gt;Node11 -->
<g id="edge13" class="edge"><title>Node9&#45;&gt;Node11</title>
<path fill="none" stroke="midnightblue" d="M760.43,-64.5797C723.886,-54.0225 677.396,-40.5921 642.845,-30.6109"/>
<polygon fill="midnightblue" stroke="midnightblue" points="759.877,-68.063 770.455,-67.476 761.82,-61.338 759.877,-68.063"/>
</g>
<!-- Node10&#45;&gt;Node8 -->
<g id="edge11" class="edge"><title>Node10&#45;&gt;Node8</title>
<path fill="none" stroke="midnightblue" d="M943.899,-40.8509C944.357,-68.3134 941.372,-112.044 937.227,-134.374"/>
<polygon fill="midnightblue" stroke="midnightblue" points="947.384,-40.3849 943.508,-30.5247 940.389,-40.6502 947.384,-40.3849"/>
</g>
<!-- Node10&#45;&gt;Node9 -->
<g id="edge10" class="edge"><title>Node10&#45;&gt;Node9</title>
<path fill="none" stroke="midnightblue" d="M910.524,-35.6742C892.457,-45.8409 869.434,-58.1117 850.934,-67.396"/>
<polygon fill="midnightblue" stroke="midnightblue" points="912.515,-38.5683 919.471,-30.5765 909.05,-32.4864 912.515,-38.5683"/>
</g>
<!-- Node12&#45;&gt;Node8 -->
<g id="edge19" class="edge"><title>Node12&#45;&gt;Node8</title>
<path fill="none" stroke="midnightblue" d="M788.817,-198.228C820.361,-187.713 860.148,-174.451 889.77,-164.577"/>
<polygon fill="midnightblue" stroke="midnightblue" points="787.692,-194.913 779.312,-201.396 789.906,-201.554 787.692,-194.913"/>
</g>
<!-- Node15&#45;&gt;Node8 -->
<g id="edge26" class="edge"><title>Node15&#45;&gt;Node8</title>
<path fill="none" stroke="midnightblue" d="M403.027,-259.514C392.654,-241.508 383.513,-216.921 398,-201 413.198,-184.297 712.027,-163.908 855.881,-155.012"/>
<polygon fill="midnightblue" stroke="midnightblue" points="400.199,-261.596 408.444,-268.25 406.148,-257.907 400.199,-261.596"/>
</g>
<!-- Node17&#45;&gt;Node5 -->
<g id="edge39" class="edge"><title>Node17&#45;&gt;Node5</title>
<path fill="none" stroke="midnightblue" d="M1060.18,-411.212C951.953,-403.391 748.522,-387.337 576,-366 571.346,-365.424 566.566,-364.793 561.749,-364.126"/>
<polygon fill="midnightblue" stroke="midnightblue" points="1060.13,-414.717 1070.35,-411.943 1060.63,-407.735 1060.13,-414.717"/>
</g>
<!-- Node17&#45;&gt;Node8 -->
<g id="edge42" class="edge"><title>Node17&#45;&gt;Node8</title>
<path fill="none" stroke="midnightblue" d="M1139.53,-392.233C1142.69,-348.297 1142.7,-255.115 1094,-201 1072.22,-176.803 1039.06,-164.086 1008.4,-157.446"/>
<polygon fill="midnightblue" stroke="midnightblue" points="1136.03,-392.031 1138.68,-402.289 1143.01,-392.617 1136.03,-392.031"/>
</g>
<!-- Node17&#45;&gt;Node9 -->
<g id="edge41" class="edge"><title>Node17&#45;&gt;Node9</title>
<path fill="none" stroke="midnightblue" d="M1148.15,-392.859C1159.37,-366.89 1175,-323.658 1175,-284.5 1175,-284.5 1175,-284.5 1175,-215.5 1175,-157.822 1008.64,-117.317 903.367,-97.4593"/>
<polygon fill="midnightblue" stroke="midnightblue" points="1144.85,-391.68 1143.97,-402.238 1151.24,-394.532 1144.85,-391.68"/>
</g>
<!-- Node17&#45;&gt;Node10 -->
<g id="edge40" class="edge"><title>Node17&#45;&gt;Node10</title>
<path fill="none" stroke="midnightblue" d="M1185.93,-397.756C1200.92,-389.928 1216.27,-379.459 1227,-366 1250.53,-336.471 1251,-322.26 1251,-284.5 1251,-284.5 1251,-284.5 1251,-148.5 1251,-50.6926 1119.05,-24.2974 1027.04,-17.7809"/>
<polygon fill="midnightblue" stroke="midnightblue" points="1184.12,-394.745 1176.69,-402.292 1187.21,-401.029 1184.12,-394.745"/>
</g>
<!-- Node17&#45;&gt;Node11 -->
<g id="edge44" class="edge"><title>Node17&#45;&gt;Node11</title>
<path fill="none" stroke="midnightblue" d="M1158.93,-394.917C1181.38,-370.421 1213,-328.166 1213,-284.5 1213,-284.5 1213,-284.5 1213,-215.5 1213,-103.112 838.491,-45.1623 672.083,-24.9607"/>
<polygon fill="midnightblue" stroke="midnightblue" points="1156.35,-392.556 1152.02,-402.226 1161.43,-397.367 1156.35,-392.556"/>
</g>
<!-- Node17&#45;&gt;Node15 -->
<g id="edge43" class="edge"><title>Node17&#45;&gt;Node15</title>
<path fill="none" stroke="midnightblue" d="M1060.33,-402.406C922.18,-377.007 633.018,-323.846 495.202,-298.509"/>
<polygon fill="midnightblue" stroke="midnightblue" points="1059.95,-405.893 1070.42,-404.259 1061.22,-399.009 1059.95,-405.893"/>
</g>
<!-- Node18&#45;&gt;Node8 -->
<g id="edge49" class="edge"><title>Node18&#45;&gt;Node8</title>
<path fill="none" stroke="midnightblue" d="M1051.7,-327.078C1072.56,-296.107 1102.37,-239.687 1075,-201 1059.49,-179.075 1033.64,-166.605 1008.15,-159.535"/>
<polygon fill="midnightblue" stroke="midnightblue" points="1048.7,-325.26 1045.85,-335.464 1054.45,-329.266 1048.7,-325.26"/>
</g>
</g>
</svg>
