<?xml version="1.0" encoding="UTF-8" standalone="no"?>
<!DOCTYPE svg PUBLIC "-//W3C//DTD SVG 1.1//EN"
 "http://www.w3.org/Graphics/SVG/1.1/DTD/svg11.dtd">
<!-- Generated by graphviz version 2.40.1 (20161225.0304)
 -->
<!-- Title: /home/alejandro/Desarrollo eclipse/os1/src/ORBmatcher.cc Pages: 1 -->
<svg width="1629pt" height="587pt"
 viewBox="0.00 0.00 1628.50 587.00" xmlns="http://www.w3.org/2000/svg" xmlns:xlink="http://www.w3.org/1999/xlink">
<g id="graph0" class="graph" transform="scale(1 1) rotate(0) translate(4 583)">
<title>/home/alejandro/Desarrollo eclipse/os1/src/ORBmatcher.cc</title>
<polygon fill="#ffffff" stroke="transparent" points="-4,4 -4,-583 1624.5,-583 1624.5,4 -4,4"/>
<!-- Node0 -->
<g id="node1" class="node">
<title>Node0</title>
<polygon fill="#bfbfbf" stroke="#000000" points="1340,-548.5 1340,-578.5 1499,-578.5 1499,-548.5 1340,-548.5"/>
<text text-anchor="start" x="1348" y="-566.5" font-family="Helvetica,sans-Serif" font-size="10.00" fill="#000000">/home/alejandro/Desarrollo</text>
<text text-anchor="middle" x="1419.5" y="-555.5" font-family="Helvetica,sans-Serif" font-size="10.00" fill="#000000"> eclipse/os1/src/ORBmatcher.cc</text>
</g>
<!-- Node1 -->
<g id="node2" class="node">
<title>Node1</title>
<g id="a_node2"><a xlink:href="_o_r_bmatcher_8h.html" target="_top" xlink:title="ORBmatcher.h">
<polygon fill="#ffffff" stroke="#000000" points="1221.5,-492.5 1221.5,-511.5 1303.5,-511.5 1303.5,-492.5 1221.5,-492.5"/>
<text text-anchor="middle" x="1262.5" y="-499.5" font-family="Helvetica,sans-Serif" font-size="10.00" fill="#000000">ORBmatcher.h</text>
</a>
</g>
</g>
<!-- Node0&#45;&gt;Node1 -->
<g id="edge1" class="edge">
<title>Node0&#45;&gt;Node1</title>
<path fill="none" stroke="#191970" d="M1381.0935,-548.4554C1355.1274,-538.284 1321.161,-524.9787 1296.237,-515.2155"/>
<polygon fill="#191970" stroke="#191970" points="1297.4171,-511.9188 1286.8294,-511.5303 1294.864,-518.4366 1297.4171,-511.9188"/>
</g>
<!-- Node3 -->
<g id="node4" class="node">
<title>Node3</title>
<polygon fill="#ffffff" stroke="#bfbfbf" points="1188.5,-62 1188.5,-81 1304.5,-81 1304.5,-62 1188.5,-62"/>
<text text-anchor="middle" x="1246.5" y="-69" font-family="Helvetica,sans-Serif" font-size="10.00" fill="#000000">opencv2/core/core.hpp</text>
</g>
<!-- Node0&#45;&gt;Node3 -->
<g id="edge68" class="edge">
<title>Node0&#45;&gt;Node3</title>
<path fill="none" stroke="#191970" d="M1424.9922,-548.4529C1433.5689,-522.9283 1448.2942,-469.5715 1439.5,-425 1411.4132,-282.6484 1404.4164,-237.6591 1315.5,-123 1304.0031,-108.1746 1287.1945,-95.5074 1273.0458,-86.4457"/>
<polygon fill="#191970" stroke="#191970" points="1274.5682,-83.2735 1264.2147,-81.0251 1270.9063,-89.2393 1274.5682,-83.2735"/>
</g>
<!-- Node4 -->
<g id="node5" class="node">
<title>Node4</title>
<polygon fill="#ffffff" stroke="#bfbfbf" points="1328.5,-425.5 1328.5,-455.5 1430.5,-455.5 1430.5,-425.5 1328.5,-425.5"/>
<text text-anchor="start" x="1336.5" y="-443.5" font-family="Helvetica,sans-Serif" font-size="10.00" fill="#000000">opencv2/features2d</text>
<text text-anchor="middle" x="1379.5" y="-432.5" font-family="Helvetica,sans-Serif" font-size="10.00" fill="#000000">/features2d.hpp</text>
</g>
<!-- Node0&#45;&gt;Node4 -->
<g id="edge69" class="edge">
<title>Node0&#45;&gt;Node4</title>
<path fill="none" stroke="#191970" d="M1414.5952,-548.4178C1407.8778,-527.7616 1395.7286,-490.4031 1387.6368,-465.5206"/>
<polygon fill="#191970" stroke="#191970" points="1390.866,-464.1329 1384.4449,-455.7056 1384.2092,-466.2978 1390.866,-464.1329"/>
</g>
<!-- Node10 -->
<g id="node11" class="node">
<title>Node10</title>
<g id="a_node11"><a xlink:href="_feature_vector_8h.html" target="_top" xlink:title="../Thirdparty/DBoW2\l/DBoW2/FeatureVector.h">
<polygon fill="#ffffff" stroke="#000000" points="0,-123.5 0,-153.5 127,-153.5 127,-123.5 0,-123.5"/>
<text text-anchor="start" x="8" y="-141.5" font-family="Helvetica,sans-Serif" font-size="10.00" fill="#000000">../Thirdparty/DBoW2</text>
<text text-anchor="middle" x="63.5" y="-130.5" font-family="Helvetica,sans-Serif" font-size="10.00" fill="#000000">/DBoW2/FeatureVector.h</text>
</a>
</g>
</g>
<!-- Node0&#45;&gt;Node10 -->
<g id="edge70" class="edge">
<title>Node0&#45;&gt;Node10</title>
<path fill="none" stroke="#191970" d="M1339.809,-560.3759C1051.7623,-548.5658 81.5,-504.0664 81.5,-440.5 81.5,-440.5 81.5,-440.5 81.5,-267 81.5,-230.9289 74.4578,-189.7081 69.183,-163.8921"/>
<polygon fill="#191970" stroke="#191970" points="72.5488,-162.8911 67.0562,-153.8312 65.7001,-164.3388 72.5488,-162.8911"/>
</g>
<!-- Node32 -->
<g id="node33" class="node">
<title>Node32</title>
<polygon fill="#ffffff" stroke="#bfbfbf" points="1486.5,-492.5 1486.5,-511.5 1534.5,-511.5 1534.5,-492.5 1486.5,-492.5"/>
<text text-anchor="middle" x="1510.5" y="-499.5" font-family="Helvetica,sans-Serif" font-size="10.00" fill="#000000">limits.h</text>
</g>
<!-- Node0&#45;&gt;Node32 -->
<g id="edge67" class="edge">
<title>Node0&#45;&gt;Node32</title>
<path fill="none" stroke="#191970" d="M1441.9944,-548.2977C1455.8967,-538.9022 1473.6876,-526.8787 1487.6546,-517.4395"/>
<polygon fill="#191970" stroke="#191970" points="1489.876,-520.1626 1496.2015,-511.6633 1485.9564,-514.3629 1489.876,-520.1626"/>
</g>
<!-- Node33 -->
<g id="node34" class="node">
<title>Node33</title>
<polygon fill="#ffffff" stroke="#bfbfbf" points="1552.5,-492.5 1552.5,-511.5 1620.5,-511.5 1620.5,-492.5 1552.5,-492.5"/>
<text text-anchor="middle" x="1586.5" y="-499.5" font-family="Helvetica,sans-Serif" font-size="10.00" fill="#000000">stdint&#45;gcc.h</text>
</g>
<!-- Node0&#45;&gt;Node33 -->
<g id="edge71" class="edge">
<title>Node0&#45;&gt;Node33</title>
<path fill="none" stroke="#191970" d="M1460.3528,-548.4554C1488.095,-538.239 1524.4225,-524.8609 1550.9655,-515.0861"/>
<polygon fill="#191970" stroke="#191970" points="1552.4465,-518.2705 1560.6209,-511.5303 1550.0275,-511.7018 1552.4465,-518.2705"/>
</g>
<!-- Node2 -->
<g id="node3" class="node">
<title>Node2</title>
<polygon fill="#ffffff" stroke="#bfbfbf" points="910.5,-.5 910.5,-19.5 954.5,-19.5 954.5,-.5 910.5,-.5"/>
<text text-anchor="middle" x="932.5" y="-7.5" font-family="Helvetica,sans-Serif" font-size="10.00" fill="#000000">vector</text>
</g>
<!-- Node1&#45;&gt;Node2 -->
<g id="edge2" class="edge">
<title>Node1&#45;&gt;Node2</title>
<path fill="none" stroke="#191970" d="M1268.3438,-492.233C1294.375,-448.3649 1398.5,-268.9283 1398.5,-205.5 1398.5,-205.5 1398.5,-205.5 1398.5,-138.5 1398.5,-85.854 1361.0118,-78.6768 1313.5,-56 1251.927,-26.6119 1045.0219,-14.8045 964.7299,-11.2573"/>
<polygon fill="#191970" stroke="#191970" points="964.8458,-7.7591 954.7054,-10.8286 964.5467,-14.7527 964.8458,-7.7591"/>
</g>
<!-- Node1&#45;&gt;Node3 -->
<g id="edge3" class="edge">
<title>Node1&#45;&gt;Node3</title>
<path fill="none" stroke="#191970" d="M1265.3429,-492.4803C1269.725,-477.9001 1278.4661,-449.1848 1286.5,-425 1301.6553,-379.3773 1322.5,-371.074 1322.5,-323 1322.5,-323 1322.5,-323 1322.5,-205.5 1322.5,-158.1632 1286.172,-112.2294 1263.7485,-88.3856"/>
<polygon fill="#191970" stroke="#191970" points="1266.2265,-85.9133 1256.7497,-81.1761 1261.2039,-90.7892 1266.2265,-85.9133"/>
</g>
<!-- Node1&#45;&gt;Node4 -->
<g id="edge4" class="edge">
<title>Node1&#45;&gt;Node4</title>
<path fill="none" stroke="#191970" d="M1280.7813,-492.3906C1297.0556,-483.8361 1321.3788,-471.0509 1341.8087,-460.3121"/>
<polygon fill="#191970" stroke="#191970" points="1343.6554,-463.2955 1350.8786,-455.5446 1340.3984,-457.0994 1343.6554,-463.2955"/>
</g>
<!-- Node5 -->
<g id="node6" class="node">
<title>Node5</title>
<g id="a_node6"><a xlink:href="_map_point_8h.html" target="_top" xlink:title="MapPoint.h">
<polygon fill="#ffffff" stroke="#000000" points="908.5,-431 908.5,-450 974.5,-450 974.5,-431 908.5,-431"/>
<text text-anchor="middle" x="941.5" y="-438" font-family="Helvetica,sans-Serif" font-size="10.00" fill="#000000">MapPoint.h</text>
</a>
</g>
</g>
<!-- Node1&#45;&gt;Node5 -->
<g id="edge5" class="edge">
<title>Node1&#45;&gt;Node5</title>
<path fill="none" stroke="#191970" d="M1221.192,-494.0859C1160.2398,-482.4081 1046.7469,-460.6641 984.7179,-448.7801"/>
<polygon fill="#191970" stroke="#191970" points="985.3348,-445.3347 974.8549,-446.8904 984.0176,-452.2096 985.3348,-445.3347"/>
</g>
<!-- Node6 -->
<g id="node7" class="node">
<title>Node6</title>
<g id="a_node7"><a xlink:href="_key_frame_8h.html" target="_top" xlink:title="KeyFrame.h">
<polygon fill="#ffffff" stroke="#000000" points="492.5,-369.5 492.5,-388.5 562.5,-388.5 562.5,-369.5 492.5,-369.5"/>
<text text-anchor="middle" x="527.5" y="-376.5" font-family="Helvetica,sans-Serif" font-size="10.00" fill="#000000">KeyFrame.h</text>
</a>
</g>
</g>
<!-- Node1&#45;&gt;Node6 -->
<g id="edge65" class="edge">
<title>Node1&#45;&gt;Node6</title>
<path fill="none" stroke="#191970" d="M1221.2465,-497.8328C1153.7443,-490.7766 1015.5799,-475.3383 899.5,-456 780.758,-436.2182 642.234,-405.5021 572.4982,-389.4996"/>
<polygon fill="#191970" stroke="#191970" points="573.2493,-386.081 562.719,-387.2483 571.6789,-392.9026 573.2493,-386.081"/>
</g>
<!-- Node28 -->
<g id="node29" class="node">
<title>Node28</title>
<g id="a_node29"><a xlink:href="_frame_8h.html" target="_top" xlink:title="Frame.h">
<polygon fill="#ffffff" stroke="#000000" points="915,-313.5 915,-332.5 968,-332.5 968,-313.5 915,-313.5"/>
<text text-anchor="middle" x="941.5" y="-320.5" font-family="Helvetica,sans-Serif" font-size="10.00" fill="#000000">Frame.h</text>
</a>
</g>
</g>
<!-- Node1&#45;&gt;Node28 -->
<g id="edge66" class="edge">
<title>Node1&#45;&gt;Node28</title>
<path fill="none" stroke="#191970" d="M1245.2416,-492.3762C1192.227,-462.8135 1031.488,-373.1802 967.849,-337.6931"/>
<polygon fill="#191970" stroke="#191970" points="969.2822,-334.4849 958.8437,-332.6714 965.8729,-340.5986 969.2822,-334.4849"/>
</g>
<!-- Node5&#45;&gt;Node3 -->
<g id="edge63" class="edge">
<title>Node5&#45;&gt;Node3</title>
<path fill="none" stroke="#191970" d="M974.6999,-436.3518C1060.7798,-424.6756 1284.5,-388.0702 1284.5,-323 1284.5,-323 1284.5,-323 1284.5,-205.5 1284.5,-163.2065 1266.7624,-116.1555 1255.5243,-90.5895"/>
<polygon fill="#191970" stroke="#191970" points="1258.6341,-88.9726 1251.3127,-81.3143 1252.2604,-91.8667 1258.6341,-88.9726"/>
</g>
<!-- Node5&#45;&gt;Node6 -->
<g id="edge6" class="edge">
<title>Node5&#45;&gt;Node6</title>
<path fill="none" stroke="#191970" d="M908.1784,-436.4912C843.8637,-428.6006 698.2157,-409.9865 576.5,-389 575.2246,-388.7801 573.9316,-388.5519 572.6274,-388.3171"/>
<polygon fill="#191970" stroke="#191970" points="572.9891,-384.8239 562.5147,-386.4167 571.6962,-391.7035 572.9891,-384.8239"/>
</g>
<!-- Node27 -->
<g id="node28" class="node">
<title>Node27</title>
<polygon fill="#ffffff" stroke="#bfbfbf" points="552.5,-257.5 552.5,-276.5 596.5,-276.5 596.5,-257.5 552.5,-257.5"/>
<text text-anchor="middle" x="574.5" y="-264.5" font-family="Helvetica,sans-Serif" font-size="10.00" fill="#000000">mutex</text>
</g>
<!-- Node5&#45;&gt;Node27 -->
<g id="edge64" class="edge">
<title>Node5&#45;&gt;Node27</title>
<path fill="none" stroke="#191970" d="M908.4011,-434.1623C831.3643,-418.797 643.2152,-377.5311 598.5,-333 586.1083,-320.6593 580.0683,-301.4277 577.1524,-286.9014"/>
<polygon fill="#191970" stroke="#191970" points="580.5816,-286.1869 575.4782,-276.9022 573.6777,-287.343 580.5816,-286.1869"/>
</g>
<!-- Node5&#45;&gt;Node28 -->
<g id="edge48" class="edge">
<title>Node5&#45;&gt;Node28</title>
<path fill="none" stroke="#191970" d="M937.5882,-430.8845C934.2983,-411.6913 933.8685,-368.286 936.2987,-342.7663"/>
<polygon fill="#191970" stroke="#191970" points="939.7833,-343.1085 937.5655,-332.7484 932.8386,-342.2303 939.7833,-343.1085"/>
</g>
<!-- Node31 -->
<g id="node32" class="node">
<title>Node31</title>
<g id="a_node32"><a xlink:href="_map_8h.html" target="_top" xlink:title="Map.h">
<polygon fill="#ffffff" stroke="#000000" points="607.5,-313.5 607.5,-332.5 651.5,-332.5 651.5,-313.5 607.5,-313.5"/>
<text text-anchor="middle" x="629.5" y="-320.5" font-family="Helvetica,sans-Serif" font-size="10.00" fill="#000000">Map.h</text>
</a>
</g>
</g>
<!-- Node5&#45;&gt;Node31 -->
<g id="edge59" class="edge">
<title>Node5&#45;&gt;Node31</title>
<path fill="none" stroke="#191970" d="M916.232,-430.984C859.752,-409.7135 723.3751,-358.3536 661.2664,-334.9633"/>
<polygon fill="#191970" stroke="#191970" points="662.2026,-331.576 651.6107,-331.327 659.7355,-338.1268 662.2026,-331.576"/>
</g>
<!-- Node7 -->
<g id="node8" class="node">
<title>Node7</title>
<g id="a_node8"><a xlink:href="_bow_vector_8h.html" target="_top" xlink:title="../Thirdparty/DBoW2\l/DBoW2/BowVector.h">
<polygon fill="#ffffff" stroke="#000000" points="153,-56.5 153,-86.5 266,-86.5 266,-56.5 153,-56.5"/>
<text text-anchor="start" x="161" y="-74.5" font-family="Helvetica,sans-Serif" font-size="10.00" fill="#000000">../Thirdparty/DBoW2</text>
<text text-anchor="middle" x="209.5" y="-63.5" font-family="Helvetica,sans-Serif" font-size="10.00" fill="#000000">/DBoW2/BowVector.h</text>
</a>
</g>
</g>
<!-- Node6&#45;&gt;Node7 -->
<g id="edge7" class="edge">
<title>Node6&#45;&gt;Node7</title>
<path fill="none" stroke="#191970" d="M497.709,-369.429C429.6194,-345.7348 263.4839,-277.1692 198.5,-154 189.175,-136.3256 193.1354,-113.6706 198.7485,-96.5744"/>
<polygon fill="#191970" stroke="#191970" points="202.1971,-97.3358 202.3529,-86.7421 195.6248,-94.9264 202.1971,-97.3358"/>
</g>
<!-- Node6&#45;&gt;Node10 -->
<g id="edge11" class="edge">
<title>Node6&#45;&gt;Node10</title>
<path fill="none" stroke="#191970" d="M492.2362,-374.6979C433.8174,-367.1836 319.7989,-350.7654 283.5,-333 196.1074,-290.2285 116.7456,-203.1291 82.0125,-161.568"/>
<polygon fill="#191970" stroke="#191970" points="84.5465,-159.1398 75.4812,-153.6559 79.1481,-163.596 84.5465,-159.1398"/>
</g>
<!-- Node11 -->
<g id="node12" class="node">
<title>Node11</title>
<g id="a_node12"><a xlink:href="_o_r_b_vocabulary_8h.html" target="_top" xlink:title="ORBVocabulary.h">
<polygon fill="#ffffff" stroke="#000000" points="701,-257.5 701,-276.5 796,-276.5 796,-257.5 701,-257.5"/>
<text text-anchor="middle" x="748.5" y="-264.5" font-family="Helvetica,sans-Serif" font-size="10.00" fill="#000000">ORBVocabulary.h</text>
</a>
</g>
</g>
<!-- Node6&#45;&gt;Node11 -->
<g id="edge16" class="edge">
<title>Node6&#45;&gt;Node11</title>
<path fill="none" stroke="#191970" d="M562.7196,-378.2181C627.5525,-375.955 761.7987,-367.157 790.5,-333 803.6694,-317.3272 786.7716,-297.2306 770.647,-283.3525"/>
<polygon fill="#191970" stroke="#191970" points="772.424,-280.2881 762.4487,-276.7184 768.0206,-285.7297 772.424,-280.2881"/>
</g>
<!-- Node24 -->
<g id="node25" class="node">
<title>Node24</title>
<g id="a_node25"><a xlink:href="_key_frame_database_8h.html" target="_top" xlink:title="KeyFrameDatabase.h">
<polygon fill="#ffffff" stroke="#000000" points="669.5,-313.5 669.5,-332.5 781.5,-332.5 781.5,-313.5 669.5,-313.5"/>
<text text-anchor="middle" x="725.5" y="-320.5" font-family="Helvetica,sans-Serif" font-size="10.00" fill="#000000">KeyFrameDatabase.h</text>
</a>
</g>
</g>
<!-- Node6&#45;&gt;Node24 -->
<g id="edge41" class="edge">
<title>Node6&#45;&gt;Node24</title>
<path fill="none" stroke="#191970" d="M561.5374,-369.3733C594.8894,-359.9404 645.8527,-345.5265 682.1002,-335.2747"/>
<polygon fill="#191970" stroke="#191970" points="683.2368,-338.5906 691.9067,-332.5011 681.3316,-331.8548 683.2368,-338.5906"/>
</g>
<!-- Node6&#45;&gt;Node27 -->
<g id="edge47" class="edge">
<title>Node6&#45;&gt;Node27</title>
<path fill="none" stroke="#191970" d="M531.5072,-369.4509C539.2422,-351.0186 556.3608,-310.2254 566.5087,-286.043"/>
<polygon fill="#191970" stroke="#191970" points="569.8607,-287.1002 570.5029,-276.5249 563.406,-284.3915 569.8607,-287.1002"/>
</g>
<!-- Node7&#45;&gt;Node2 -->
<g id="edge10" class="edge">
<title>Node7&#45;&gt;Node2</title>
<path fill="none" stroke="#191970" d="M266.2326,-66.6742C410.3851,-54.4123 787.292,-22.3517 900.1279,-12.7536"/>
<polygon fill="#191970" stroke="#191970" points="900.5391,-16.2314 910.2064,-11.8963 899.9457,-9.2566 900.5391,-16.2314"/>
</g>
<!-- Node8 -->
<g id="node9" class="node">
<title>Node8</title>
<polygon fill="#ffffff" stroke="#bfbfbf" points="46.5,-.5 46.5,-19.5 100.5,-19.5 100.5,-.5 46.5,-.5"/>
<text text-anchor="middle" x="73.5" y="-7.5" font-family="Helvetica,sans-Serif" font-size="10.00" fill="#000000">iostream</text>
</g>
<!-- Node7&#45;&gt;Node8 -->
<g id="edge8" class="edge">
<title>Node7&#45;&gt;Node8</title>
<path fill="none" stroke="#191970" d="M176.2307,-56.4554C154.1359,-46.464 125.354,-33.4487 103.8781,-23.7372"/>
<polygon fill="#191970" stroke="#191970" points="105.129,-20.4616 94.5752,-19.5303 102.2447,-26.8398 105.129,-20.4616"/>
</g>
<!-- Node9 -->
<g id="node10" class="node">
<title>Node9</title>
<polygon fill="#ffffff" stroke="#bfbfbf" points="168,-.5 168,-19.5 203,-19.5 203,-.5 168,-.5"/>
<text text-anchor="middle" x="185.5" y="-7.5" font-family="Helvetica,sans-Serif" font-size="10.00" fill="#000000">map</text>
</g>
<!-- Node7&#45;&gt;Node9 -->
<g id="edge9" class="edge">
<title>Node7&#45;&gt;Node9</title>
<path fill="none" stroke="#191970" d="M203.5674,-56.2977C200.3748,-48.1166 196.4046,-37.943 192.9996,-29.2179"/>
<polygon fill="#191970" stroke="#191970" points="196.2387,-27.8903 189.3427,-19.8469 189.7177,-30.4351 196.2387,-27.8903"/>
</g>
<!-- Node10&#45;&gt;Node2 -->
<g id="edge14" class="edge">
<title>Node10&#45;&gt;Node2</title>
<path fill="none" stroke="#191970" d="M77.2811,-123.1279C97.8871,-100.3254 135.2014,-59.801 143.5,-56 213.1054,-24.1189 761.0375,-12.8638 900.3634,-10.5022"/>
<polygon fill="#191970" stroke="#191970" points="900.4644,-14.0011 910.4049,-10.3355 900.3482,-7.002 900.4644,-14.0011"/>
</g>
<!-- Node10&#45;&gt;Node7 -->
<g id="edge12" class="edge">
<title>Node10&#45;&gt;Node7</title>
<path fill="none" stroke="#191970" d="M96.2652,-123.4639C117.2311,-113.8426 144.6361,-101.2663 167.2341,-90.896"/>
<polygon fill="#191970" stroke="#191970" points="168.963,-93.9536 176.5918,-86.6017 166.0433,-87.5915 168.963,-93.9536"/>
</g>
<!-- Node10&#45;&gt;Node8 -->
<g id="edge15" class="edge">
<title>Node10&#45;&gt;Node8</title>
<path fill="none" stroke="#191970" d="M64.6864,-123.2548C66.4981,-99.9744 69.9544,-55.5607 71.9582,-29.8117"/>
<polygon fill="#191970" stroke="#191970" points="75.4558,-29.9772 72.7424,-19.7358 68.4769,-29.4341 75.4558,-29.9772"/>
</g>
<!-- Node10&#45;&gt;Node9 -->
<g id="edge13" class="edge">
<title>Node10&#45;&gt;Node9</title>
<path fill="none" stroke="#191970" d="M69.3811,-123.3262C76.8463,-105.5576 91.1222,-76.0145 110.5,-56 124.2261,-41.8229 143.1983,-30.24 158.6263,-22.2435"/>
<polygon fill="#191970" stroke="#191970" points="160.298,-25.3211 167.6958,-17.7368 157.183,-19.0524 160.298,-25.3211"/>
</g>
<!-- Node12 -->
<g id="node13" class="node">
<title>Node12</title>
<g id="a_node13"><a xlink:href="_f_o_r_b_8h.html" target="_top" xlink:title="../Thirdparty/DBoW2\l/DBoW2/FORB.h">
<polygon fill="#ffffff" stroke="#000000" points="929,-190.5 929,-220.5 1036,-220.5 1036,-190.5 929,-190.5"/>
<text text-anchor="start" x="937" y="-208.5" font-family="Helvetica,sans-Serif" font-size="10.00" fill="#000000">../Thirdparty/DBoW2</text>
<text text-anchor="middle" x="982.5" y="-197.5" font-family="Helvetica,sans-Serif" font-size="10.00" fill="#000000">/DBoW2/FORB.h</text>
</a>
</g>
</g>
<!-- Node11&#45;&gt;Node12 -->
<g id="edge17" class="edge">
<title>Node11&#45;&gt;Node12</title>
<path fill="none" stroke="#191970" d="M784.8058,-257.4581C820.5342,-248.0679 875.8367,-233.5333 918.875,-222.222"/>
<polygon fill="#191970" stroke="#191970" points="919.9122,-225.5683 928.6941,-219.6413 918.1328,-218.7982 919.9122,-225.5683"/>
</g>
<!-- Node15 -->
<g id="node16" class="node">
<title>Node15</title>
<g id="a_node16"><a xlink:href="_templated_vocabulary_8h.html" target="_top" xlink:title="../Thirdparty/DBoW2\l/DBoW2/TemplatedVocabulary.h">
<polygon fill="#ffffff" stroke="#000000" points="516.5,-190.5 516.5,-220.5 676.5,-220.5 676.5,-190.5 516.5,-190.5"/>
<text text-anchor="start" x="524.5" y="-208.5" font-family="Helvetica,sans-Serif" font-size="10.00" fill="#000000">../Thirdparty/DBoW2</text>
<text text-anchor="middle" x="596.5" y="-197.5" font-family="Helvetica,sans-Serif" font-size="10.00" fill="#000000">/DBoW2/TemplatedVocabulary.h</text>
</a>
</g>
</g>
<!-- Node11&#45;&gt;Node15 -->
<g id="edge25" class="edge">
<title>Node11&#45;&gt;Node15</title>
<path fill="none" stroke="#191970" d="M724.75,-257.3906C702.9406,-248.5664 670.0048,-235.2404 642.9714,-224.3026"/>
<polygon fill="#191970" stroke="#191970" points="644.2661,-221.0508 633.6834,-220.5446 641.6406,-227.5398 644.2661,-221.0508"/>
</g>
<!-- Node12&#45;&gt;Node2 -->
<g id="edge19" class="edge">
<title>Node12&#45;&gt;Node2</title>
<path fill="none" stroke="#191970" d="M1006.1419,-190.4133C1017.9416,-181.4299 1031.0473,-168.8819 1037.5,-154 1042.9809,-141.3593 1041.3776,-136.2209 1037.5,-123 1027.5419,-89.0473 1018.6579,-81.8524 994.5,-56 983.4545,-44.1798 969.0417,-33.2797 956.8924,-25.0599"/>
<polygon fill="#191970" stroke="#191970" points="958.808,-22.1307 948.5264,-19.5734 954.9692,-27.9842 958.808,-22.1307"/>
</g>
<!-- Node12&#45;&gt;Node3 -->
<g id="edge18" class="edge">
<title>Node12&#45;&gt;Node3</title>
<path fill="none" stroke="#191970" d="M1036.2508,-195.9803C1087.5257,-186.1619 1160.4093,-170.0597 1184.5,-154 1208.6361,-137.9101 1227.0414,-109.1743 1237.3109,-90.2233"/>
<polygon fill="#191970" stroke="#191970" points="1240.5534,-91.5731 1242.0456,-81.0839 1234.3379,-88.3532 1240.5534,-91.5731"/>
</g>
<!-- Node13 -->
<g id="node14" class="node">
<title>Node13</title>
<polygon fill="#ffffff" stroke="#bfbfbf" points="924,-62 924,-81 965,-81 965,-62 924,-62"/>
<text text-anchor="middle" x="944.5" y="-69" font-family="Helvetica,sans-Serif" font-size="10.00" fill="#000000">string</text>
</g>
<!-- Node12&#45;&gt;Node13 -->
<g id="edge20" class="edge">
<title>Node12&#45;&gt;Node13</title>
<path fill="none" stroke="#191970" d="M976.3317,-190.348C972.3357,-180.1785 967.2049,-166.42 963.5,-154 957.2188,-132.9436 951.7942,-108.3448 948.3677,-91.522"/>
<polygon fill="#191970" stroke="#191970" points="951.71,-90.3835 946.3289,-81.2569 944.8442,-91.7472 951.71,-90.3835"/>
</g>
<!-- Node14 -->
<g id="node15" class="node">
<title>Node14</title>
<g id="a_node15"><a xlink:href="_f_class_8h.html" target="_top" xlink:title="FClass.h">
<polygon fill="#ffffff" stroke="#000000" points="972.5,-129 972.5,-148 1028.5,-148 1028.5,-129 972.5,-129"/>
<text text-anchor="middle" x="1000.5" y="-136" font-family="Helvetica,sans-Serif" font-size="10.00" fill="#000000">FClass.h</text>
</a>
</g>
</g>
<!-- Node12&#45;&gt;Node14 -->
<g id="edge21" class="edge">
<title>Node12&#45;&gt;Node14</title>
<path fill="none" stroke="#191970" d="M986.5845,-190.2967C989.1711,-180.6685 992.5392,-168.1318 995.3139,-157.8038"/>
<polygon fill="#191970" stroke="#191970" points="998.7185,-158.6206 997.933,-148.055 991.9582,-156.8044 998.7185,-158.6206"/>
</g>
<!-- Node14&#45;&gt;Node2 -->
<g id="edge23" class="edge">
<title>Node14&#45;&gt;Node2</title>
<path fill="none" stroke="#191970" d="M998.6836,-128.8179C995.3985,-112.8381 987.48,-80.296 973.5,-56 967.3543,-45.3193 958.4384,-34.9372 950.4895,-26.7474"/>
<polygon fill="#191970" stroke="#191970" points="952.8595,-24.1688 943.2866,-19.6288 947.939,-29.1476 952.8595,-24.1688"/>
</g>
<!-- Node14&#45;&gt;Node3 -->
<g id="edge22" class="edge">
<title>Node14&#45;&gt;Node3</title>
<path fill="none" stroke="#191970" d="M1028.7193,-130.8142C1071.0764,-119.278 1151.4829,-97.3786 1201.8538,-83.6597"/>
<polygon fill="#191970" stroke="#191970" points="1202.7785,-87.0355 1211.5073,-81.0305 1200.939,-80.2815 1202.7785,-87.0355"/>
</g>
<!-- Node14&#45;&gt;Node13 -->
<g id="edge24" class="edge">
<title>Node14&#45;&gt;Node13</title>
<path fill="none" stroke="#191970" d="M992.4766,-128.9005C983.7439,-118.4525 969.6018,-101.5325 958.9292,-88.7635"/>
<polygon fill="#191970" stroke="#191970" points="961.6072,-86.5099 952.5086,-81.0817 956.2362,-90.9991 961.6072,-86.5099"/>
</g>
<!-- Node15&#45;&gt;Node2 -->
<g id="edge27" class="edge">
<title>Node15&#45;&gt;Node2</title>
<path fill="none" stroke="#191970" d="M676.6532,-196.3196C739.7176,-187.7967 821.33,-173.4855 848.5,-154 871.1908,-137.7269 907.3967,-64.1784 923.8538,-28.9389"/>
<polygon fill="#191970" stroke="#191970" points="927.0987,-30.2606 928.1181,-19.7149 920.7448,-27.3231 927.0987,-30.2606"/>
</g>
<!-- Node15&#45;&gt;Node3 -->
<g id="edge32" class="edge">
<title>Node15&#45;&gt;Node3</title>
<path fill="none" stroke="#191970" d="M676.8895,-202.3726C766.1552,-197.4613 913.9589,-185.0335 1037.5,-154 1104.2916,-137.222 1178.3547,-104.351 1217.8972,-85.5616"/>
<polygon fill="#191970" stroke="#191970" points="1219.6798,-88.5883 1227.1812,-81.1064 1216.6512,-82.2774 1219.6798,-88.5883"/>
</g>
<!-- Node15&#45;&gt;Node7 -->
<g id="edge35" class="edge">
<title>Node15&#45;&gt;Node7</title>
<path fill="none" stroke="#191970" d="M516.214,-192.6006C457.2561,-182.3479 382.7278,-167.5309 354.5,-154 334.8455,-144.5787 334.8918,-134.6963 316.5,-123 297.3642,-110.8305 274.9176,-99.6106 255.5386,-90.7712"/>
<polygon fill="#191970" stroke="#191970" points="256.8564,-87.5264 246.2996,-86.6293 253.9929,-93.9139 256.8564,-87.5264"/>
</g>
<!-- Node15&#45;&gt;Node10 -->
<g id="edge34" class="edge">
<title>Node15&#45;&gt;Node10</title>
<path fill="none" stroke="#191970" d="M516.4162,-195.4332C413.5833,-182.5067 236.5609,-160.2544 137.0112,-147.7406"/>
<polygon fill="#191970" stroke="#191970" points="137.3933,-144.2612 127.0349,-146.4866 136.5202,-151.2065 137.3933,-144.2612"/>
</g>
<!-- Node15&#45;&gt;Node13 -->
<g id="edge30" class="edge">
<title>Node15&#45;&gt;Node13</title>
<path fill="none" stroke="#191970" d="M676.6065,-197.6726C748.8533,-189.4391 848.7829,-174.7764 882.5,-154 907.4392,-138.6325 925.8124,-109.2427 935.8339,-90.0103"/>
<polygon fill="#191970" stroke="#191970" points="938.9918,-91.5203 940.3037,-81.007 932.722,-88.4075 938.9918,-91.5203"/>
</g>
<!-- Node16 -->
<g id="node17" class="node">
<title>Node16</title>
<polygon fill="#ffffff" stroke="#bfbfbf" points="364,-129 364,-148 413,-148 413,-129 364,-129"/>
<text text-anchor="middle" x="388.5" y="-136" font-family="Helvetica,sans-Serif" font-size="10.00" fill="#000000">cassert</text>
</g>
<!-- Node15&#45;&gt;Node16 -->
<g id="edge26" class="edge">
<title>Node15&#45;&gt;Node16</title>
<path fill="none" stroke="#191970" d="M537.0238,-190.4271C502.8095,-181.1557 459.2531,-168.3251 421.5,-154 419.9132,-153.3979 418.2969,-152.7519 416.6745,-152.0778"/>
<polygon fill="#191970" stroke="#191970" points="418.043,-148.8561 407.4813,-148.0197 415.2162,-155.26 418.043,-148.8561"/>
</g>
<!-- Node17 -->
<g id="node18" class="node">
<title>Node17</title>
<polygon fill="#ffffff" stroke="#bfbfbf" points="431,-129 431,-148 482,-148 482,-129 431,-129"/>
<text text-anchor="middle" x="456.5" y="-136" font-family="Helvetica,sans-Serif" font-size="10.00" fill="#000000">numeric</text>
</g>
<!-- Node15&#45;&gt;Node17 -->
<g id="edge28" class="edge">
<title>Node15&#45;&gt;Node17</title>
<path fill="none" stroke="#191970" d="M565.0813,-190.4639C541.2736,-179.0702 508.8071,-163.5327 485.5905,-152.4219"/>
<polygon fill="#191970" stroke="#191970" points="487.0991,-149.2637 476.5679,-148.1039 484.0772,-155.5779 487.0991,-149.2637"/>
</g>
<!-- Node18 -->
<g id="node19" class="node">
<title>Node18</title>
<polygon fill="#ffffff" stroke="#bfbfbf" points="500.5,-129 500.5,-148 550.5,-148 550.5,-129 500.5,-129"/>
<text text-anchor="middle" x="525.5" y="-136" font-family="Helvetica,sans-Serif" font-size="10.00" fill="#000000">fstream</text>
</g>
<!-- Node15&#45;&gt;Node18 -->
<g id="edge29" class="edge">
<title>Node15&#45;&gt;Node18</title>
<path fill="none" stroke="#191970" d="M580.389,-190.2967C569.2195,-179.7564 554.356,-165.7303 542.9133,-154.9323"/>
<polygon fill="#191970" stroke="#191970" points="545.3006,-152.3727 535.6254,-148.055 540.4963,-157.4638 545.3006,-152.3727"/>
</g>
<!-- Node19 -->
<g id="node20" class="node">
<title>Node19</title>
<polygon fill="#ffffff" stroke="#bfbfbf" points="568.5,-129 568.5,-148 624.5,-148 624.5,-129 568.5,-129"/>
<text text-anchor="middle" x="596.5" y="-136" font-family="Helvetica,sans-Serif" font-size="10.00" fill="#000000">algorithm</text>
</g>
<!-- Node15&#45;&gt;Node19 -->
<g id="edge31" class="edge">
<title>Node15&#45;&gt;Node19</title>
<path fill="none" stroke="#191970" d="M596.5,-190.2967C596.5,-180.7699 596.5,-168.3954 596.5,-158.1306"/>
<polygon fill="#191970" stroke="#191970" points="600.0001,-158.0549 596.5,-148.055 593.0001,-158.055 600.0001,-158.0549"/>
</g>
<!-- Node20 -->
<g id="node21" class="node">
<title>Node20</title>
<polygon fill="#ffffff" stroke="#bfbfbf" points="642.5,-129 642.5,-148 682.5,-148 682.5,-129 642.5,-129"/>
<text text-anchor="middle" x="662.5" y="-136" font-family="Helvetica,sans-Serif" font-size="10.00" fill="#000000">limits</text>
</g>
<!-- Node15&#45;&gt;Node20 -->
<g id="edge33" class="edge">
<title>Node15&#45;&gt;Node20</title>
<path fill="none" stroke="#191970" d="M611.4764,-190.2967C621.7595,-179.8578 635.4108,-165.9997 646.0053,-155.2446"/>
<polygon fill="#191970" stroke="#191970" points="648.5633,-157.6352 653.0876,-148.055 643.5765,-152.7228 648.5633,-157.6352"/>
</g>
<!-- Node21 -->
<g id="node22" class="node">
<title>Node21</title>
<g id="a_node22"><a xlink:href="_scoring_object_8h.html" target="_top" xlink:title="ScoringObject.h">
<polygon fill="#ffffff" stroke="#000000" points="221.5,-129 221.5,-148 307.5,-148 307.5,-129 221.5,-129"/>
<text text-anchor="middle" x="264.5" y="-136" font-family="Helvetica,sans-Serif" font-size="10.00" fill="#000000">ScoringObject.h</text>
</a>
</g>
</g>
<!-- Node15&#45;&gt;Node21 -->
<g id="edge36" class="edge">
<title>Node15&#45;&gt;Node21</title>
<path fill="none" stroke="#191970" d="M516.4258,-192.255C461.3728,-182.7212 386.7181,-168.9487 321.5,-154 317.0502,-152.9801 312.4245,-151.8462 307.8185,-150.6688"/>
<polygon fill="#191970" stroke="#191970" points="308.4037,-147.2038 297.8427,-148.0491 306.6258,-153.9743 308.4037,-147.2038"/>
</g>
<!-- Node22 -->
<g id="node23" class="node">
<title>Node22</title>
<g id="a_node23"><a xlink:href="_random_8h.html" target="_top" xlink:title="../DUtils/Random.h">
<polygon fill="#ffffff" stroke="#000000" points="739,-129 739,-148 840,-148 840,-129 739,-129"/>
<text text-anchor="middle" x="789.5" y="-136" font-family="Helvetica,sans-Serif" font-size="10.00" fill="#000000">../DUtils/Random.h</text>
</a>
</g>
</g>
<!-- Node15&#45;&gt;Node22 -->
<g id="edge38" class="edge">
<title>Node15&#45;&gt;Node22</title>
<path fill="none" stroke="#191970" d="M639.813,-190.4639C673.7553,-178.6808 720.4645,-162.4657 752.6329,-151.2984"/>
<polygon fill="#191970" stroke="#191970" points="753.82,-154.5913 762.1191,-148.0053 751.5243,-147.9784 753.82,-154.5913"/>
</g>
<!-- Node21&#45;&gt;Node7 -->
<g id="edge37" class="edge">
<title>Node21&#45;&gt;Node7</title>
<path fill="none" stroke="#191970" d="M256.6198,-128.9005C249.2349,-119.9043 237.9111,-106.1099 228.2153,-94.2986"/>
<polygon fill="#191970" stroke="#191970" points="230.8815,-92.0303 221.8313,-86.5218 225.471,-96.4718 230.8815,-92.0303"/>
</g>
<!-- Node22&#45;&gt;Node2 -->
<g id="edge40" class="edge">
<title>Node22&#45;&gt;Node2</title>
<path fill="none" stroke="#191970" d="M795.3582,-128.9042C805.7315,-112.4761 828.6863,-78.5568 854.5,-56 868.9112,-43.4071 887.2543,-32.3889 902.5311,-24.2955"/>
<polygon fill="#191970" stroke="#191970" points="904.2877,-27.328 911.5843,-19.6461 901.0899,-21.1011 904.2877,-27.328"/>
</g>
<!-- Node23 -->
<g id="node24" class="node">
<title>Node23</title>
<polygon fill="#ffffff" stroke="#bfbfbf" points="757,-62 757,-81 802,-81 802,-62 757,-62"/>
<text text-anchor="middle" x="779.5" y="-69" font-family="Helvetica,sans-Serif" font-size="10.00" fill="#000000">cstdlib</text>
</g>
<!-- Node22&#45;&gt;Node23 -->
<g id="edge39" class="edge">
<title>Node22&#45;&gt;Node23</title>
<path fill="none" stroke="#191970" d="M788.0672,-128.9005C786.5969,-119.0495 784.2679,-103.4451 782.4091,-90.9912"/>
<polygon fill="#191970" stroke="#191970" points="785.868,-90.4554 780.9301,-81.0817 778.9447,-91.4888 785.868,-90.4554"/>
</g>
<!-- Node24&#45;&gt;Node2 -->
<g id="edge42" class="edge">
<title>Node24&#45;&gt;Node2</title>
<path fill="none" stroke="#191970" d="M715.5638,-313.4913C707.324,-304.8654 696.2233,-291.3368 691.5,-277 688.7186,-268.5575 690.2961,-265.807 691.5,-257 704.0602,-165.1189 681.0141,-120.6492 747.5,-56 769.0632,-35.0325 853.2599,-20.6508 900.2843,-14.0724"/>
<polygon fill="#191970" stroke="#191970" points="900.8354,-17.5298 910.2726,-12.7142 899.8922,-10.5936 900.8354,-17.5298"/>
</g>
<!-- Node24&#45;&gt;Node11 -->
<g id="edge45" class="edge">
<title>Node24&#45;&gt;Node11</title>
<path fill="none" stroke="#191970" d="M729.5063,-313.2455C732.5735,-305.7776 736.9003,-295.2427 740.6497,-286.1137"/>
<polygon fill="#191970" stroke="#191970" points="743.9779,-287.2226 744.5396,-276.6427 737.5028,-284.5631 743.9779,-287.2226"/>
</g>
<!-- Node25 -->
<g id="node26" class="node">
<title>Node25</title>
<polygon fill="#ffffff" stroke="#bfbfbf" points="1093,-196 1093,-215 1122,-215 1122,-196 1093,-196"/>
<text text-anchor="middle" x="1107.5" y="-203" font-family="Helvetica,sans-Serif" font-size="10.00" fill="#000000">list</text>
</g>
<!-- Node24&#45;&gt;Node25 -->
<g id="edge43" class="edge">
<title>Node24&#45;&gt;Node25</title>
<path fill="none" stroke="#191970" d="M752.0075,-313.4124C789.2105,-300.0871 859.1288,-275.5197 919.5,-257 977.554,-239.1912 1046.589,-221.0458 1082.6893,-211.7852"/>
<polygon fill="#191970" stroke="#191970" points="1083.9638,-215.0721 1092.7869,-209.2066 1082.2318,-208.2897 1083.9638,-215.0721"/>
</g>
<!-- Node26 -->
<g id="node27" class="node">
<title>Node26</title>
<polygon fill="#ffffff" stroke="#bfbfbf" points="614.5,-257.5 614.5,-276.5 644.5,-276.5 644.5,-257.5 614.5,-257.5"/>
<text text-anchor="middle" x="629.5" y="-264.5" font-family="Helvetica,sans-Serif" font-size="10.00" fill="#000000">set</text>
</g>
<!-- Node24&#45;&gt;Node26 -->
<g id="edge44" class="edge">
<title>Node24&#45;&gt;Node26</title>
<path fill="none" stroke="#191970" d="M708.7781,-313.2455C693.5485,-304.3616 670.8781,-291.1372 653.6764,-281.1029"/>
<polygon fill="#191970" stroke="#191970" points="655.1659,-277.9198 644.7645,-275.9043 651.6388,-283.9663 655.1659,-277.9198"/>
</g>
<!-- Node24&#45;&gt;Node27 -->
<g id="edge46" class="edge">
<title>Node24&#45;&gt;Node27</title>
<path fill="none" stroke="#191970" d="M699.5422,-313.3733C673.7079,-303.7923 634.0177,-289.0728 606.3046,-278.7951"/>
<polygon fill="#191970" stroke="#191970" points="607.2773,-275.4229 596.6842,-275.2273 604.8432,-281.9861 607.2773,-275.4229"/>
</g>
<!-- Node28&#45;&gt;Node2 -->
<g id="edge49" class="edge">
<title>Node28&#45;&gt;Node2</title>
<path fill="none" stroke="#191970" d="M968.3375,-318.8742C992.5416,-313.619 1026.9504,-302.008 1044.5,-277 1083.8835,-220.8789 1068.2397,-189.9581 1053.5,-123 1046.4462,-90.9565 1045.2422,-79.6503 1022.5,-56 1006.446,-39.305 983.0213,-27.5972 964.0943,-20.1719"/>
<polygon fill="#191970" stroke="#191970" points="965.2625,-16.8723 954.6695,-16.6757 962.8278,-23.4353 965.2625,-16.8723"/>
</g>
<!-- Node28&#45;&gt;Node5 -->
<g id="edge50" class="edge">
<title>Node28&#45;&gt;Node5</title>
<path fill="none" stroke="#191970" d="M945.4345,-332.7484C948.7112,-352.0527 949.1278,-395.4723 946.6844,-420.9095"/>
<polygon fill="#191970" stroke="#191970" points="943.2056,-420.5219 945.4118,-430.8845 950.1493,-421.4079 943.2056,-420.5219"/>
</g>
<!-- Node28&#45;&gt;Node7 -->
<g id="edge51" class="edge">
<title>Node28&#45;&gt;Node7</title>
<path fill="none" stroke="#191970" d="M931.2733,-313.3376C914.7277,-298.3562 880.4048,-269.9076 845.5,-257 703.8059,-204.6025 656.527,-245.7721 507.5,-221 474.3424,-215.4884 233.945,-179.8827 212.5,-154 199.4289,-138.224 200.0197,-114.3435 203.0908,-96.328"/>
<polygon fill="#191970" stroke="#191970" points="206.5251,-97.0028 205.101,-86.5041 199.6672,-95.5994 206.5251,-97.0028"/>
</g>
<!-- Node28&#45;&gt;Node10 -->
<g id="edge52" class="edge">
<title>Node28&#45;&gt;Node10</title>
<path fill="none" stroke="#191970" d="M926.1759,-313.4177C901.564,-298.5462 851.237,-270.2453 804.5,-257 655.3249,-214.7236 610.6937,-244.9202 457.5,-221 344.1026,-203.2938 214.052,-174.3535 135.3813,-155.8793"/>
<polygon fill="#191970" stroke="#191970" points="136.1107,-152.4554 125.5744,-153.568 134.5048,-159.2687 136.1107,-152.4554"/>
</g>
<!-- Node28&#45;&gt;Node11 -->
<g id="edge53" class="edge">
<title>Node28&#45;&gt;Node11</title>
<path fill="none" stroke="#191970" d="M914.6642,-315.2134C882.7173,-305.9439 828.9591,-290.3456 791.2623,-279.4077"/>
<polygon fill="#191970" stroke="#191970" points="792.1474,-276.0202 781.5682,-276.5949 790.1967,-282.743 792.1474,-276.0202"/>
</g>
<!-- Node29 -->
<g id="node30" class="node">
<title>Node29</title>
<g id="a_node30"><a xlink:href="_o_r_bextractor_8h.html" target="_top" xlink:title="ORBextractor.h">
<polygon fill="#ffffff" stroke="#000000" points="1101,-257.5 1101,-276.5 1186,-276.5 1186,-257.5 1101,-257.5"/>
<text text-anchor="middle" x="1143.5" y="-264.5" font-family="Helvetica,sans-Serif" font-size="10.00" fill="#000000">ORBextractor.h</text>
</a>
</g>
</g>
<!-- Node28&#45;&gt;Node29 -->
<g id="edge54" class="edge">
<title>Node28&#45;&gt;Node29</title>
<path fill="none" stroke="#191970" d="M968.324,-315.5636C1001.7644,-306.2931 1059.3825,-290.3197 1099.3648,-279.2355"/>
<polygon fill="#191970" stroke="#191970" points="1100.4229,-282.5743 1109.1244,-276.5299 1098.5528,-275.8287 1100.4229,-282.5743"/>
</g>
<!-- Node30 -->
<g id="node31" class="node">
<title>Node30</title>
<polygon fill="#ffffff" stroke="#bfbfbf" points="929,-257.5 929,-276.5 1036,-276.5 1036,-257.5 929,-257.5"/>
<text text-anchor="middle" x="982.5" y="-264.5" font-family="Helvetica,sans-Serif" font-size="10.00" fill="#000000">opencv2/opencv.hpp</text>
</g>
<!-- Node28&#45;&gt;Node30 -->
<g id="edge58" class="edge">
<title>Node28&#45;&gt;Node30</title>
<path fill="none" stroke="#191970" d="M948.6417,-313.2455C954.3444,-305.4564 962.49,-294.3308 969.3625,-284.9439"/>
<polygon fill="#191970" stroke="#191970" points="972.3568,-286.7789 975.4402,-276.6427 966.7087,-282.6437 972.3568,-286.7789"/>
</g>
<!-- Node29&#45;&gt;Node2 -->
<g id="edge55" class="edge">
<title>Node29&#45;&gt;Node2</title>
<path fill="none" stroke="#191970" d="M1145.1636,-257.4947C1150.3133,-224.7271 1162.5682,-115.2424 1108.5,-56 1089.2918,-34.9536 1009.72,-20.7227 964.4236,-14.1557"/>
<polygon fill="#191970" stroke="#191970" points="964.8972,-10.688 954.5072,-12.761 963.9223,-17.6197 964.8972,-10.688"/>
</g>
<!-- Node29&#45;&gt;Node3 -->
<g id="edge57" class="edge">
<title>Node29&#45;&gt;Node3</title>
<path fill="none" stroke="#191970" d="M1150.4261,-257.3942C1163.9535,-238.3488 1194.3243,-194.1655 1214.5,-154 1224.9083,-133.2793 1234.1672,-108.3131 1240.0139,-91.3109"/>
<polygon fill="#191970" stroke="#191970" points="1243.4724,-92.0066 1243.3411,-81.4126 1236.8372,-89.7763 1243.4724,-92.0066"/>
</g>
<!-- Node29&#45;&gt;Node25 -->
<g id="edge56" class="edge">
<title>Node29&#45;&gt;Node25</title>
<path fill="none" stroke="#191970" d="M1137.875,-257.3906C1132.6747,-248.5068 1124.8034,-235.0601 1118.3767,-224.0811"/>
<polygon fill="#191970" stroke="#191970" points="1121.2767,-222.1069 1113.2043,-215.2449 1115.2356,-225.6432 1121.2767,-222.1069"/>
</g>
<!-- Node31&#45;&gt;Node11 -->
<g id="edge60" class="edge">
<title>Node31&#45;&gt;Node11</title>
<path fill="none" stroke="#191970" d="M649.9568,-313.3733C668.9738,-304.4241 697.5175,-290.9917 718.9976,-280.8835"/>
<polygon fill="#191970" stroke="#191970" points="720.7522,-283.926 728.3101,-276.5011 717.7716,-277.5923 720.7522,-283.926"/>
</g>
<!-- Node31&#45;&gt;Node26 -->
<g id="edge61" class="edge">
<title>Node31&#45;&gt;Node26</title>
<path fill="none" stroke="#191970" d="M629.5,-313.2455C629.5,-305.9382 629.5,-295.6944 629.5,-286.7046"/>
<polygon fill="#191970" stroke="#191970" points="633.0001,-286.6426 629.5,-276.6427 626.0001,-286.6427 633.0001,-286.6426"/>
</g>
<!-- Node31&#45;&gt;Node27 -->
<g id="edge62" class="edge">
<title>Node31&#45;&gt;Node27</title>
<path fill="none" stroke="#191970" d="M619.9197,-313.2455C611.9542,-305.1352 600.4359,-293.4075 590.9921,-283.7919"/>
<polygon fill="#191970" stroke="#191970" points="593.4747,-281.3247 583.9705,-276.6427 588.4805,-286.2297 593.4747,-281.3247"/>
</g>
</g>
</svg>
