<?xml version="1.0" encoding="UTF-8" standalone="no"?>
<!DOCTYPE svg PUBLIC "-//W3C//DTD SVG 1.1//EN"
 "http://www.w3.org/Graphics/SVG/1.1/DTD/svg11.dtd">
<!-- Generated by graphviz version 2.38.0 (20140413.2041)
 -->
<!-- Title: /home/alejandro/Desarrollo eclipse/os1/include/PnPsolver.h Pages: 1 -->
<svg width="1331pt" height="587pt"
 viewBox="0.00 0.00 1330.50 587.00" xmlns="http://www.w3.org/2000/svg" xmlns:xlink="http://www.w3.org/1999/xlink">
<g id="graph0" class="graph" transform="scale(1 1) rotate(0) translate(4 583)">
<title>/home/alejandro/Desarrollo eclipse/os1/include/PnPsolver.h</title>
<polygon fill="white" stroke="none" points="-4,4 -4,-583 1326.5,-583 1326.5,4 -4,4"/>
<!-- Node0 -->
<g id="node1" class="node"><title>Node0</title>
<polygon fill="#bfbfbf" stroke="black" points="609.5,-548.5 609.5,-578.5 768.5,-578.5 768.5,-548.5 609.5,-548.5"/>
<text text-anchor="start" x="617.5" y="-566.5" font-family="Helvetica,sans-Serif" font-size="10.00">/home/alejandro/Desarrollo</text>
<text text-anchor="middle" x="689" y="-555.5" font-family="Helvetica,sans-Serif" font-size="10.00"> eclipse/os1/include/PnPsolver.h</text>
</g>
<!-- Node1 -->
<g id="node2" class="node"><title>Node1</title>
<polygon fill="white" stroke="#bfbfbf" points="37,-62 37,-81 153,-81 153,-62 37,-62"/>
<text text-anchor="middle" x="95" y="-69" font-family="Helvetica,sans-Serif" font-size="10.00">opencv2/core/core.hpp</text>
</g>
<!-- Node0&#45;&gt;Node1 -->
<g id="edge1" class="edge"><title>Node0&#45;&gt;Node1</title>
<path fill="none" stroke="midnightblue" d="M609.29,-557.379C427.924,-544.662 0,-508.174 0,-447 0,-447 0,-447 0,-204.5 0,-153.836 46.6735,-109.344 74.591,-87.2632"/>
<polygon fill="midnightblue" stroke="midnightblue" points="76.7669,-90.0053 82.5804,-81.1479 72.5122,-84.4467 76.7669,-90.0053"/>
</g>
<!-- Node2 -->
<g id="node3" class="node"><title>Node2</title>
<g id="a_node3"><a xlink:href="_map_point_8h.html" target="_top" xlink:title="MapPoint.h">
<polygon fill="white" stroke="black" points="656,-492.5 656,-511.5 722,-511.5 722,-492.5 656,-492.5"/>
<text text-anchor="middle" x="689" y="-499.5" font-family="Helvetica,sans-Serif" font-size="10.00">MapPoint.h</text>
</a>
</g>
</g>
<!-- Node0&#45;&gt;Node2 -->
<g id="edge2" class="edge"><title>Node0&#45;&gt;Node2</title>
<path fill="none" stroke="midnightblue" d="M689,-548.399C689,-540.466 689,-530.458 689,-521.858"/>
<polygon fill="midnightblue" stroke="midnightblue" points="692.5,-521.658 689,-511.658 685.5,-521.658 692.5,-521.658"/>
</g>
<!-- Node24 -->
<g id="node25" class="node"><title>Node24</title>
<g id="a_node25"><a xlink:href="_frame_8h.html" target="_top" xlink:title="Frame.h">
<polygon fill="white" stroke="black" points="1048.5,-313.5 1048.5,-332.5 1101.5,-332.5 1101.5,-313.5 1048.5,-313.5"/>
<text text-anchor="middle" x="1075" y="-320.5" font-family="Helvetica,sans-Serif" font-size="10.00">Frame.h</text>
</a>
</g>
</g>
<!-- Node0&#45;&gt;Node24 -->
<g id="edge69" class="edge"><title>Node0&#45;&gt;Node24</title>
<path fill="none" stroke="midnightblue" d="M755.36,-548.465C834.352,-528.489 965.425,-484.515 1044,-400 1058.98,-383.889 1067.17,-359.572 1071.3,-342.804"/>
<polygon fill="midnightblue" stroke="midnightblue" points="1074.82,-343.115 1073.56,-332.596 1067.98,-341.607 1074.82,-343.115"/>
</g>
<!-- Node2&#45;&gt;Node1 -->
<g id="edge66" class="edge"><title>Node2&#45;&gt;Node1</title>
<path fill="none" stroke="midnightblue" d="M655.822,-498.67C523.161,-488.918 38,-448.919 38,-385.5 38,-385.5 38,-385.5 38,-204.5 38,-160.206 65.3857,-113.897 82.1926,-89.6473"/>
<polygon fill="midnightblue" stroke="midnightblue" points="85.257,-91.3797 88.2375,-81.2128 79.5673,-87.302 85.257,-91.3797"/>
</g>
<!-- Node3 -->
<g id="node4" class="node"><title>Node3</title>
<g id="a_node4"><a xlink:href="_key_frame_8h.html" target="_top" xlink:title="KeyFrame.h">
<polygon fill="white" stroke="black" points="716,-436.5 716,-455.5 786,-455.5 786,-436.5 716,-436.5"/>
<text text-anchor="middle" x="751" y="-443.5" font-family="Helvetica,sans-Serif" font-size="10.00">KeyFrame.h</text>
</a>
</g>
</g>
<!-- Node2&#45;&gt;Node3 -->
<g id="edge3" class="edge"><title>Node2&#45;&gt;Node3</title>
<path fill="none" stroke="midnightblue" d="M694.072,-492.083C701.736,-483.905 715.513,-471.631 727.718,-461.954"/>
<polygon fill="midnightblue" stroke="midnightblue" points="730.008,-464.608 735.821,-455.751 725.753,-459.05 730.008,-464.608"/>
</g>
<!-- Node2&#45;&gt;Node24 -->
<g id="edge60" class="edge"><title>Node2&#45;&gt;Node24</title>
<path fill="none" stroke="midnightblue" d="M722.245,-494.936C780.959,-483.9 904.587,-456.284 994,-400 1019.25,-384.107 1041.72,-357.351 1056.97,-340.195"/>
<polygon fill="midnightblue" stroke="midnightblue" points="1059.71,-342.384 1063.85,-332.634 1054.53,-337.671 1059.71,-342.384"/>
</g>
<!-- Node28 -->
<g id="node29" class="node"><title>Node28</title>
<polygon fill="white" stroke="#bfbfbf" points="509,-313.5 509,-332.5 553,-332.5 553,-313.5 509,-313.5"/>
<text text-anchor="middle" x="531" y="-320.5" font-family="Helvetica,sans-Serif" font-size="10.00">mutex</text>
</g>
<!-- Node2&#45;&gt;Node28 -->
<g id="edge67" class="edge"><title>Node2&#45;&gt;Node28</title>
<path fill="none" stroke="midnightblue" d="M655.919,-499.519C598.362,-496.175 483.568,-485.841 459,-456 447.121,-441.572 441.033,-413.781 468,-369 476.091,-355.565 489.893,-345.029 502.521,-337.54"/>
<polygon fill="midnightblue" stroke="midnightblue" points="504.35,-340.528 511.409,-332.627 500.964,-334.401 504.35,-340.528"/>
</g>
<!-- Node29 -->
<g id="node30" class="node"><title>Node29</title>
<polygon fill="white" stroke="#bfbfbf" points="518.5,-369.5 518.5,-399.5 613.5,-399.5 613.5,-369.5 518.5,-369.5"/>
<text text-anchor="start" x="526.5" y="-387.5" font-family="Helvetica,sans-Serif" font-size="10.00">boost/serialization</text>
<text text-anchor="middle" x="566" y="-376.5" font-family="Helvetica,sans-Serif" font-size="10.00">/access.hpp</text>
</g>
<!-- Node2&#45;&gt;Node29 -->
<g id="edge68" class="edge"><title>Node2&#45;&gt;Node29</title>
<path fill="none" stroke="midnightblue" d="M679.755,-492.319C660.534,-474.27 615.782,-432.246 588.488,-406.617"/>
<polygon fill="midnightblue" stroke="midnightblue" points="590.643,-403.839 580.957,-399.545 585.851,-408.942 590.643,-403.839"/>
</g>
<!-- Node30 -->
<g id="node31" class="node"><title>Node30</title>
<g id="a_node31"><a xlink:href="_map_8h.html" target="_top" xlink:title="Map.h">
<polygon fill="white" stroke="black" points="468,-436.5 468,-455.5 512,-455.5 512,-436.5 468,-436.5"/>
<text text-anchor="middle" x="490" y="-443.5" font-family="Helvetica,sans-Serif" font-size="10.00">Map.h</text>
</a>
</g>
</g>
<!-- Node2&#45;&gt;Node30 -->
<g id="edge61" class="edge"><title>Node2&#45;&gt;Node30</title>
<path fill="none" stroke="midnightblue" d="M657.468,-492.444C620.403,-482.386 559.233,-465.787 521.976,-455.677"/>
<polygon fill="midnightblue" stroke="midnightblue" points="522.71,-452.25 512.142,-453.008 520.876,-459.005 522.71,-452.25"/>
</g>
<!-- Node3&#45;&gt;Node2 -->
<g id="edge4" class="edge"><title>Node3&#45;&gt;Node2</title>
<path fill="none" stroke="midnightblue" d="M746.006,-455.834C738.343,-464.027 724.477,-476.382 712.214,-486.101"/>
<polygon fill="midnightblue" stroke="midnightblue" points="709.893,-483.469 704.076,-492.324 714.146,-489.029 709.893,-483.469"/>
</g>
<!-- Node4 -->
<g id="node5" class="node"><title>Node4</title>
<g id="a_node5"><a xlink:href="_bow_vector_8h.html" target="_top" xlink:title="../Thirdparty/DBoW2\l/DBoW2/BowVector.h">
<polygon fill="white" stroke="black" points="1056.5,-56.5 1056.5,-86.5 1169.5,-86.5 1169.5,-56.5 1056.5,-56.5"/>
<text text-anchor="start" x="1064.5" y="-74.5" font-family="Helvetica,sans-Serif" font-size="10.00">../Thirdparty/DBoW2</text>
<text text-anchor="middle" x="1113" y="-63.5" font-family="Helvetica,sans-Serif" font-size="10.00">/DBoW2/BowVector.h</text>
</a>
</g>
</g>
<!-- Node3&#45;&gt;Node4 -->
<g id="edge5" class="edge"><title>Node3&#45;&gt;Node4</title>
<path fill="none" stroke="midnightblue" d="M786.075,-440.656C832.961,-434.144 912.547,-420.4 933,-400 957.651,-375.412 952,-358.817 952,-324 952,-324 952,-324 952,-266 952,-183.864 1056.43,-224.24 1099,-154 1109.44,-136.778 1112.64,-113.96 1113.4,-96.8488"/>
<polygon fill="midnightblue" stroke="midnightblue" points="1116.91,-96.6109 1113.6,-86.5448 1109.91,-96.475 1116.91,-96.6109"/>
</g>
<!-- Node8 -->
<g id="node9" class="node"><title>Node8</title>
<g id="a_node9"><a xlink:href="_feature_vector_8h.html" target="_top" xlink:title="../Thirdparty/DBoW2\l/DBoW2/FeatureVector.h">
<polygon fill="white" stroke="black" points="1195.5,-123.5 1195.5,-153.5 1322.5,-153.5 1322.5,-123.5 1195.5,-123.5"/>
<text text-anchor="start" x="1203.5" y="-141.5" font-family="Helvetica,sans-Serif" font-size="10.00">../Thirdparty/DBoW2</text>
<text text-anchor="middle" x="1259" y="-130.5" font-family="Helvetica,sans-Serif" font-size="10.00">/DBoW2/FeatureVector.h</text>
</a>
</g>
</g>
<!-- Node3&#45;&gt;Node8 -->
<g id="edge9" class="edge"><title>Node3&#45;&gt;Node8</title>
<path fill="none" stroke="midnightblue" d="M786.371,-442.94C836.191,-439.101 929.192,-428.464 1003,-400 1098.96,-362.995 1131.04,-354.188 1199,-277 1228.58,-243.399 1245.49,-192.93 1253.41,-163.393"/>
<polygon fill="midnightblue" stroke="midnightblue" points="1256.84,-164.084 1255.92,-153.529 1250.06,-162.353 1256.84,-164.084"/>
</g>
<!-- Node9 -->
<g id="node10" class="node"><title>Node9</title>
<g id="a_node10"><a xlink:href="_o_r_b_vocabulary_8h.html" target="_top" xlink:title="ORBVocabulary.h">
<polygon fill="white" stroke="black" points="615.5,-257.5 615.5,-276.5 710.5,-276.5 710.5,-257.5 615.5,-257.5"/>
<text text-anchor="middle" x="663" y="-264.5" font-family="Helvetica,sans-Serif" font-size="10.00">ORBVocabulary.h</text>
</a>
</g>
</g>
<!-- Node3&#45;&gt;Node9 -->
<g id="edge14" class="edge"><title>Node3&#45;&gt;Node9</title>
<path fill="none" stroke="midnightblue" d="M737.014,-436.358C725.187,-428.342 708.668,-415.357 699,-400 676.301,-363.942 667.737,-313.608 664.644,-286.707"/>
<polygon fill="midnightblue" stroke="midnightblue" points="668.123,-286.317 663.628,-276.723 661.158,-287.026 668.123,-286.317"/>
</g>
<!-- Node22 -->
<g id="node23" class="node"><title>Node22</title>
<g id="a_node23"><a xlink:href="_o_r_bextractor_8h.html" target="_top" xlink:title="ORBextractor.h">
<polygon fill="white" stroke="black" points="708.5,-375 708.5,-394 793.5,-394 793.5,-375 708.5,-375"/>
<text text-anchor="middle" x="751" y="-382" font-family="Helvetica,sans-Serif" font-size="10.00">ORBextractor.h</text>
</a>
</g>
</g>
<!-- Node3&#45;&gt;Node22 -->
<g id="edge39" class="edge"><title>Node3&#45;&gt;Node22</title>
<path fill="none" stroke="midnightblue" d="M751,-436.475C751,-428.08 751,-414.981 751,-404.163"/>
<polygon fill="midnightblue" stroke="midnightblue" points="754.5,-404.009 751,-394.009 747.5,-404.009 754.5,-404.009"/>
</g>
<!-- Node3&#45;&gt;Node24 -->
<g id="edge43" class="edge"><title>Node3&#45;&gt;Node24</title>
<path fill="none" stroke="midnightblue" d="M786.184,-442.002C829.871,-437.311 905.956,-425.926 966,-400 975.597,-395.856 1026.24,-359.483 1055,-338.595"/>
<polygon fill="midnightblue" stroke="midnightblue" points="1057.13,-341.377 1063.15,-332.663 1053.01,-335.717 1057.13,-341.377"/>
</g>
<!-- Node26 -->
<g id="node27" class="node"><title>Node26</title>
<g id="a_node27"><a xlink:href="_key_frame_database_8h.html" target="_top" xlink:title="KeyFrameDatabase.h">
<polygon fill="white" stroke="black" points="812,-375 812,-394 924,-394 924,-375 812,-375"/>
<text text-anchor="middle" x="868" y="-382" font-family="Helvetica,sans-Serif" font-size="10.00">KeyFrameDatabase.h</text>
</a>
</g>
</g>
<!-- Node3&#45;&gt;Node26 -->
<g id="edge50" class="edge"><title>Node3&#45;&gt;Node26</title>
<path fill="none" stroke="midnightblue" d="M762.863,-436.475C780.32,-426.49 812.79,-409.848 837.152,-398.307"/>
<polygon fill="midnightblue" stroke="midnightblue" points="838.787,-401.407 846.371,-394.009 835.828,-395.063 838.787,-401.407"/>
</g>
<!-- Node3&#45;&gt;Node28 -->
<g id="edge58" class="edge"><title>Node3&#45;&gt;Node28</title>
<path fill="none" stroke="midnightblue" d="M733.384,-436.494C715.938,-427.881 688.629,-413.884 666,-400 645.61,-387.49 642.561,-381.227 622,-369 601.84,-357.011 578.048,-345.326 559.849,-336.869"/>
<polygon fill="midnightblue" stroke="midnightblue" points="561.18,-333.629 550.631,-332.639 558.26,-339.991 561.18,-333.629"/>
</g>
<!-- Node3&#45;&gt;Node29 -->
<g id="edge59" class="edge"><title>Node3&#45;&gt;Node29</title>
<path fill="none" stroke="midnightblue" d="M724.494,-436.475C697.214,-427.701 653.954,-413.788 619.517,-402.712"/>
<polygon fill="midnightblue" stroke="midnightblue" points="620.192,-399.253 609.601,-399.523 618.049,-405.917 620.192,-399.253"/>
</g>
<!-- Node5 -->
<g id="node6" class="node"><title>Node5</title>
<polygon fill="white" stroke="#bfbfbf" points="1110,-0.5 1110,-19.5 1164,-19.5 1164,-0.5 1110,-0.5"/>
<text text-anchor="middle" x="1137" y="-7.5" font-family="Helvetica,sans-Serif" font-size="10.00">iostream</text>
</g>
<!-- Node4&#45;&gt;Node5 -->
<g id="edge6" class="edge"><title>Node4&#45;&gt;Node5</title>
<path fill="none" stroke="midnightblue" d="M1118.69,-56.3993C1122,-48.1989 1126.2,-37.7809 1129.74,-28.9936"/>
<polygon fill="midnightblue" stroke="midnightblue" points="1133.01,-30.2411 1133.51,-19.6578 1126.52,-27.6225 1133.01,-30.2411"/>
</g>
<!-- Node6 -->
<g id="node7" class="node"><title>Node6</title>
<polygon fill="white" stroke="#bfbfbf" points="1231.5,-0.5 1231.5,-19.5 1266.5,-19.5 1266.5,-0.5 1231.5,-0.5"/>
<text text-anchor="middle" x="1249" y="-7.5" font-family="Helvetica,sans-Serif" font-size="10.00">map</text>
</g>
<!-- Node4&#45;&gt;Node6 -->
<g id="edge7" class="edge"><title>Node4&#45;&gt;Node6</title>
<path fill="none" stroke="midnightblue" d="M1145.23,-56.3993C1168.53,-46.2074 1199.65,-32.5898 1221.72,-22.935"/>
<polygon fill="midnightblue" stroke="midnightblue" points="1223.4,-26.0192 1231.16,-18.8044 1220.6,-19.6061 1223.4,-26.0192"/>
</g>
<!-- Node7 -->
<g id="node8" class="node"><title>Node7</title>
<polygon fill="white" stroke="#bfbfbf" points="851,-0.5 851,-19.5 895,-19.5 895,-0.5 851,-0.5"/>
<text text-anchor="middle" x="873" y="-7.5" font-family="Helvetica,sans-Serif" font-size="10.00">vector</text>
</g>
<!-- Node4&#45;&gt;Node7 -->
<g id="edge8" class="edge"><title>Node4&#45;&gt;Node7</title>
<path fill="none" stroke="midnightblue" d="M1056.43,-56.4747C1009.3,-44.7922 943.87,-28.5699 905.23,-18.9904"/>
<polygon fill="midnightblue" stroke="midnightblue" points="905.628,-15.4832 895.08,-16.474 903.944,-22.2775 905.628,-15.4832"/>
</g>
<!-- Node8&#45;&gt;Node4 -->
<g id="edge10" class="edge"><title>Node8&#45;&gt;Node4</title>
<path fill="none" stroke="midnightblue" d="M1227.32,-123.396C1205.8,-113.814 1177.13,-101.05 1153.88,-90.7016"/>
<polygon fill="midnightblue" stroke="midnightblue" points="1155.18,-87.4463 1144.62,-86.5765 1152.33,-93.8412 1155.18,-87.4463"/>
</g>
<!-- Node8&#45;&gt;Node5 -->
<g id="edge13" class="edge"><title>Node8&#45;&gt;Node5</title>
<path fill="none" stroke="midnightblue" d="M1253.5,-123.406C1246.14,-105.939 1231.69,-76.0365 1212,-56 1198.99,-42.7631 1181.31,-31.908 1166.38,-24.1778"/>
<polygon fill="midnightblue" stroke="midnightblue" points="1167.56,-20.8561 1157.04,-19.5556 1164.45,-27.1293 1167.56,-20.8561"/>
</g>
<!-- Node8&#45;&gt;Node6 -->
<g id="edge11" class="edge"><title>Node8&#45;&gt;Node6</title>
<path fill="none" stroke="midnightblue" d="M1257.89,-123.479C1256.09,-100.719 1252.53,-55.7023 1250.51,-30.0582"/>
<polygon fill="midnightblue" stroke="midnightblue" points="1253.97,-29.4816 1249.69,-19.7885 1246.99,-30.0333 1253.97,-29.4816"/>
</g>
<!-- Node8&#45;&gt;Node7 -->
<g id="edge12" class="edge"><title>Node8&#45;&gt;Node7</title>
<path fill="none" stroke="midnightblue" d="M1246.17,-123.489C1225.73,-101.308 1187.22,-60.1782 1179,-56 1131.52,-31.8612 973.863,-18.1105 905.305,-13.1439"/>
<polygon fill="midnightblue" stroke="midnightblue" points="905.32,-9.63627 895.097,-12.422 904.826,-16.6188 905.32,-9.63627"/>
</g>
<!-- Node10 -->
<g id="node11" class="node"><title>Node10</title>
<g id="a_node11"><a xlink:href="_f_o_r_b_8h.html" target="_top" xlink:title="../Thirdparty/DBoW2\l/DBoW2/FORB.h">
<polygon fill="white" stroke="black" points="210.5,-190.5 210.5,-220.5 317.5,-220.5 317.5,-190.5 210.5,-190.5"/>
<text text-anchor="start" x="218.5" y="-208.5" font-family="Helvetica,sans-Serif" font-size="10.00">../Thirdparty/DBoW2</text>
<text text-anchor="middle" x="264" y="-197.5" font-family="Helvetica,sans-Serif" font-size="10.00">/DBoW2/FORB.h</text>
</a>
</g>
</g>
<!-- Node9&#45;&gt;Node10 -->
<g id="edge15" class="edge"><title>Node9&#45;&gt;Node10</title>
<path fill="none" stroke="midnightblue" d="M615.268,-258.882C543.459,-248.174 407.54,-227.905 327.461,-215.963"/>
<polygon fill="midnightblue" stroke="midnightblue" points="327.909,-212.492 317.502,-214.478 326.876,-219.415 327.909,-212.492"/>
</g>
<!-- Node13 -->
<g id="node14" class="node"><title>Node13</title>
<g id="a_node14"><a xlink:href="_templated_vocabulary_8h.html" target="_top" xlink:title="../Thirdparty/DBoW2\l/DBoW2/TemplatedVocabulary.h">
<polygon fill="white" stroke="black" points="583,-190.5 583,-220.5 743,-220.5 743,-190.5 583,-190.5"/>
<text text-anchor="start" x="591" y="-208.5" font-family="Helvetica,sans-Serif" font-size="10.00">../Thirdparty/DBoW2</text>
<text text-anchor="middle" x="663" y="-197.5" font-family="Helvetica,sans-Serif" font-size="10.00">/DBoW2/TemplatedVocabulary.h</text>
</a>
</g>
</g>
<!-- Node9&#45;&gt;Node13 -->
<g id="edge23" class="edge"><title>Node9&#45;&gt;Node13</title>
<path fill="none" stroke="midnightblue" d="M663,-257.475C663,-250.471 663,-240.192 663,-230.696"/>
<polygon fill="midnightblue" stroke="midnightblue" points="666.5,-230.523 663,-220.523 659.5,-230.523 666.5,-230.523"/>
</g>
<!-- Node10&#45;&gt;Node1 -->
<g id="edge16" class="edge"><title>Node10&#45;&gt;Node1</title>
<path fill="none" stroke="midnightblue" d="M210.391,-192.125C186.086,-184.38 158.312,-172.296 138,-154 119.011,-136.895 106.977,-109.402 100.612,-91.1454"/>
<polygon fill="midnightblue" stroke="midnightblue" points="103.858,-89.8092 97.4396,-81.3798 97.2004,-91.9719 103.858,-89.8092"/>
</g>
<!-- Node10&#45;&gt;Node7 -->
<g id="edge17" class="edge"><title>Node10&#45;&gt;Node7</title>
<path fill="none" stroke="midnightblue" d="M276.289,-190.275C293.062,-171.807 324.955,-139.944 359,-123 527.213,-39.281 757.022,-17.7881 840.786,-12.5754"/>
<polygon fill="midnightblue" stroke="midnightblue" points="841.163,-16.0593 850.941,-11.9799 840.754,-9.07134 841.163,-16.0593"/>
</g>
<!-- Node11 -->
<g id="node12" class="node"><title>Node11</title>
<polygon fill="white" stroke="#bfbfbf" points="234.5,-62 234.5,-81 275.5,-81 275.5,-62 234.5,-62"/>
<text text-anchor="middle" x="255" y="-69" font-family="Helvetica,sans-Serif" font-size="10.00">string</text>
</g>
<!-- Node10&#45;&gt;Node11 -->
<g id="edge18" class="edge"><title>Node10&#45;&gt;Node11</title>
<path fill="none" stroke="midnightblue" d="M263.037,-190.374C261.409,-166.504 258.115,-118.181 256.29,-91.4149"/>
<polygon fill="midnightblue" stroke="midnightblue" points="259.758,-90.836 255.586,-81.0973 252.775,-91.3122 259.758,-90.836"/>
</g>
<!-- Node12 -->
<g id="node13" class="node"><title>Node12</title>
<g id="a_node13"><a xlink:href="_f_class_8h.html" target="_top" xlink:title="FClass.h">
<polygon fill="white" stroke="black" points="180,-129 180,-148 236,-148 236,-129 180,-129"/>
<text text-anchor="middle" x="208" y="-136" font-family="Helvetica,sans-Serif" font-size="10.00">FClass.h</text>
</a>
</g>
</g>
<!-- Node10&#45;&gt;Node12 -->
<g id="edge19" class="edge"><title>Node10&#45;&gt;Node12</title>
<path fill="none" stroke="midnightblue" d="M251.849,-190.396C243.117,-180.261 231.32,-166.567 222.161,-155.937"/>
<polygon fill="midnightblue" stroke="midnightblue" points="224.669,-153.486 215.491,-148.195 219.366,-158.055 224.669,-153.486"/>
</g>
<!-- Node12&#45;&gt;Node1 -->
<g id="edge20" class="edge"><title>Node12&#45;&gt;Node1</title>
<path fill="none" stroke="midnightblue" d="M192.76,-128.734C173.784,-117.818 141.154,-99.0487 118.853,-86.2209"/>
<polygon fill="midnightblue" stroke="midnightblue" points="120.412,-83.0796 109.998,-81.1273 116.921,-89.1474 120.412,-83.0796"/>
</g>
<!-- Node12&#45;&gt;Node7 -->
<g id="edge21" class="edge"><title>Node12&#45;&gt;Node7</title>
<path fill="none" stroke="midnightblue" d="M206.818,-128.979C205.014,-112.116 203.759,-74.5263 225,-56 271.709,-15.2601 716.074,-11.3057 840.667,-11.0014"/>
<polygon fill="midnightblue" stroke="midnightblue" points="840.734,-14.5014 850.728,-10.9832 840.722,-7.50137 840.734,-14.5014"/>
</g>
<!-- Node12&#45;&gt;Node11 -->
<g id="edge22" class="edge"><title>Node12&#45;&gt;Node11</title>
<path fill="none" stroke="midnightblue" d="M214.339,-128.734C221.597,-118.695 233.659,-102.014 242.765,-89.4213"/>
<polygon fill="midnightblue" stroke="midnightblue" points="245.739,-91.2816 248.762,-81.1273 240.066,-87.18 245.739,-91.2816"/>
</g>
<!-- Node13&#45;&gt;Node1 -->
<g id="edge30" class="edge"><title>Node13&#45;&gt;Node1</title>
<path fill="none" stroke="midnightblue" d="M582.959,-203.054C462.537,-199.75 241.355,-188.971 171,-154 163.242,-150.144 129.135,-111.786 109.348,-89.0938"/>
<polygon fill="midnightblue" stroke="midnightblue" points="111.751,-86.5227 102.55,-81.2686 106.466,-91.1133 111.751,-86.5227"/>
</g>
<!-- Node13&#45;&gt;Node4 -->
<g id="edge33" class="edge"><title>Node13&#45;&gt;Node4</title>
<path fill="none" stroke="midnightblue" d="M743.224,-203.399C847.01,-200.504 1020.6,-190.211 1072,-154 1091.23,-140.453 1101.94,-115.199 1107.55,-96.3778"/>
<polygon fill="midnightblue" stroke="midnightblue" points="1110.94,-97.2654 1110.17,-86.6988 1104.18,-95.441 1110.94,-97.2654"/>
</g>
<!-- Node13&#45;&gt;Node7 -->
<g id="edge25" class="edge"><title>Node13&#45;&gt;Node7</title>
<path fill="none" stroke="midnightblue" d="M672.474,-190.495C679.197,-180.439 688.349,-166.508 696,-154 722.177,-111.206 713.756,-88.4648 752,-56 777.492,-34.3599 814.368,-22.6591 840.701,-16.6624"/>
<polygon fill="midnightblue" stroke="midnightblue" points="841.524,-20.0659 850.579,-14.566 840.07,-13.2184 841.524,-20.0659"/>
</g>
<!-- Node13&#45;&gt;Node8 -->
<g id="edge32" class="edge"><title>Node13&#45;&gt;Node8</title>
<path fill="none" stroke="midnightblue" d="M743.07,-195.768C859.132,-183.11 1072.5,-159.84 1185.03,-147.567"/>
<polygon fill="midnightblue" stroke="midnightblue" points="1185.71,-151.014 1195.27,-146.45 1184.95,-144.055 1185.71,-151.014"/>
</g>
<!-- Node13&#45;&gt;Node11 -->
<g id="edge28" class="edge"><title>Node13&#45;&gt;Node11</title>
<path fill="none" stroke="midnightblue" d="M582.774,-201.995C519.621,-197.51 430.614,-185.523 359,-154 323.177,-138.232 288.907,-107.278 270.033,-88.386"/>
<polygon fill="midnightblue" stroke="midnightblue" points="272.417,-85.818 262.927,-81.1074 267.408,-90.7079 272.417,-85.818"/>
</g>
<!-- Node14 -->
<g id="node15" class="node"><title>Node14</title>
<polygon fill="white" stroke="#bfbfbf" points="368.5,-129 368.5,-148 417.5,-148 417.5,-129 368.5,-129"/>
<text text-anchor="middle" x="393" y="-136" font-family="Helvetica,sans-Serif" font-size="10.00">cassert</text>
</g>
<!-- Node13&#45;&gt;Node14 -->
<g id="edge24" class="edge"><title>Node13&#45;&gt;Node14</title>
<path fill="none" stroke="midnightblue" d="M582.937,-191.646C536.5,-183.153 477.25,-170.528 426,-154 424.079,-153.381 422.119,-152.687 420.159,-151.948"/>
<polygon fill="midnightblue" stroke="midnightblue" points="421.134,-148.565 410.554,-148.005 418.475,-155.04 421.134,-148.565"/>
</g>
<!-- Node15 -->
<g id="node16" class="node"><title>Node15</title>
<polygon fill="white" stroke="#bfbfbf" points="435.5,-129 435.5,-148 486.5,-148 486.5,-129 435.5,-129"/>
<text text-anchor="middle" x="461" y="-136" font-family="Helvetica,sans-Serif" font-size="10.00">numeric</text>
</g>
<!-- Node13&#45;&gt;Node15 -->
<g id="edge26" class="edge"><title>Node13&#45;&gt;Node15</title>
<path fill="none" stroke="midnightblue" d="M611.78,-190.436C578.513,-180.953 534.364,-167.709 496,-154 494.142,-153.336 492.239,-152.629 490.326,-151.897"/>
<polygon fill="midnightblue" stroke="midnightblue" points="491.442,-148.574 480.856,-148.126 488.852,-155.077 491.442,-148.574"/>
</g>
<!-- Node16 -->
<g id="node17" class="node"><title>Node16</title>
<polygon fill="white" stroke="#bfbfbf" points="505,-129 505,-148 555,-148 555,-129 505,-129"/>
<text text-anchor="middle" x="530" y="-136" font-family="Helvetica,sans-Serif" font-size="10.00">fstream</text>
</g>
<!-- Node13&#45;&gt;Node16 -->
<g id="edge27" class="edge"><title>Node13&#45;&gt;Node16</title>
<path fill="none" stroke="midnightblue" d="M634.141,-190.396C611.114,-179.142 579.11,-163.501 556.677,-152.538"/>
<polygon fill="midnightblue" stroke="midnightblue" points="557.928,-149.253 547.407,-148.007 554.854,-155.543 557.928,-149.253"/>
</g>
<!-- Node17 -->
<g id="node18" class="node"><title>Node17</title>
<polygon fill="white" stroke="#bfbfbf" points="573,-129 573,-148 629,-148 629,-129 573,-129"/>
<text text-anchor="middle" x="601" y="-136" font-family="Helvetica,sans-Serif" font-size="10.00">algorithm</text>
</g>
<!-- Node13&#45;&gt;Node17 -->
<g id="edge29" class="edge"><title>Node13&#45;&gt;Node17</title>
<path fill="none" stroke="midnightblue" d="M649.547,-190.396C639.784,-180.161 626.559,-166.296 616.378,-155.622"/>
<polygon fill="midnightblue" stroke="midnightblue" points="618.728,-153.015 609.293,-148.195 613.663,-157.846 618.728,-153.015"/>
</g>
<!-- Node18 -->
<g id="node19" class="node"><title>Node18</title>
<polygon fill="white" stroke="#bfbfbf" points="647,-129 647,-148 687,-148 687,-129 647,-129"/>
<text text-anchor="middle" x="667" y="-136" font-family="Helvetica,sans-Serif" font-size="10.00">limits</text>
</g>
<!-- Node13&#45;&gt;Node18 -->
<g id="edge31" class="edge"><title>Node13&#45;&gt;Node18</title>
<path fill="none" stroke="midnightblue" d="M663.868,-190.396C664.448,-180.963 665.219,-168.448 665.85,-158.189"/>
<polygon fill="midnightblue" stroke="midnightblue" points="669.344,-158.391 666.465,-148.195 662.357,-157.961 669.344,-158.391"/>
</g>
<!-- Node19 -->
<g id="node20" class="node"><title>Node19</title>
<g id="a_node20"><a xlink:href="_scoring_object_8h.html" target="_top" xlink:title="ScoringObject.h">
<polygon fill="white" stroke="black" points="977,-129 977,-148 1063,-148 1063,-129 977,-129"/>
<text text-anchor="middle" x="1020" y="-136" font-family="Helvetica,sans-Serif" font-size="10.00">ScoringObject.h</text>
</a>
</g>
</g>
<!-- Node13&#45;&gt;Node19 -->
<g id="edge34" class="edge"><title>Node13&#45;&gt;Node19</title>
<path fill="none" stroke="midnightblue" d="M740.024,-190.476C808.424,-178.022 906.592,-160.149 966.671,-149.21"/>
<polygon fill="midnightblue" stroke="midnightblue" points="967.491,-152.618 976.702,-147.383 966.237,-145.731 967.491,-152.618"/>
</g>
<!-- Node20 -->
<g id="node21" class="node"><title>Node20</title>
<g id="a_node21"><a xlink:href="_random_8h.html" target="_top" xlink:title="../DUtils/Random.h">
<polygon fill="white" stroke="black" points="743.5,-129 743.5,-148 844.5,-148 844.5,-129 743.5,-129"/>
<text text-anchor="middle" x="794" y="-136" font-family="Helvetica,sans-Serif" font-size="10.00">../DUtils/Random.h</text>
</a>
</g>
</g>
<!-- Node13&#45;&gt;Node20 -->
<g id="edge36" class="edge"><title>Node13&#45;&gt;Node20</title>
<path fill="none" stroke="midnightblue" d="M691.425,-190.396C714.105,-179.142 745.629,-163.501 767.724,-152.538"/>
<polygon fill="midnightblue" stroke="midnightblue" points="769.453,-155.587 776.855,-148.007 766.342,-149.317 769.453,-155.587"/>
</g>
<!-- Node19&#45;&gt;Node4 -->
<g id="edge35" class="edge"><title>Node19&#45;&gt;Node4</title>
<path fill="none" stroke="midnightblue" d="M1032.54,-128.734C1045.72,-119.527 1066.88,-104.733 1084.2,-92.6293"/>
<polygon fill="midnightblue" stroke="midnightblue" points="1086.65,-95.1865 1092.84,-86.589 1082.64,-89.449 1086.65,-95.1865"/>
</g>
<!-- Node20&#45;&gt;Node7 -->
<g id="edge38" class="edge"><title>Node20&#45;&gt;Node7</title>
<path fill="none" stroke="midnightblue" d="M799.43,-128.805C812.34,-108.133 845.064,-55.7323 862.185,-28.3176"/>
<polygon fill="midnightblue" stroke="midnightblue" points="865.204,-30.0915 867.532,-19.7557 859.266,-26.3836 865.204,-30.0915"/>
</g>
<!-- Node21 -->
<g id="node22" class="node"><title>Node21</title>
<polygon fill="white" stroke="#bfbfbf" points="761.5,-62 761.5,-81 806.5,-81 806.5,-62 761.5,-62"/>
<text text-anchor="middle" x="784" y="-69" font-family="Helvetica,sans-Serif" font-size="10.00">cstdlib</text>
</g>
<!-- Node20&#45;&gt;Node21 -->
<g id="edge37" class="edge"><title>Node20&#45;&gt;Node21</title>
<path fill="none" stroke="midnightblue" d="M792.651,-128.734C791.182,-119.183 788.787,-103.618 786.89,-91.2829"/>
<polygon fill="midnightblue" stroke="midnightblue" points="790.307,-90.4788 785.327,-81.1273 783.389,-91.5432 790.307,-90.4788"/>
</g>
<!-- Node22&#45;&gt;Node1 -->
<g id="edge42" class="edge"><title>Node22&#45;&gt;Node1</title>
<path fill="none" stroke="midnightblue" d="M730.279,-374.933C695.769,-360.855 624.166,-332.454 562,-313 403.984,-263.551 350.275,-292.633 201,-221 156.362,-199.58 138.533,-195.801 112,-154 99.8639,-134.88 96.2153,-108.636 95.2109,-91.1497"/>
<polygon fill="midnightblue" stroke="midnightblue" points="98.7066,-90.9623 94.87,-81.0865 91.7106,-91.1993 98.7066,-90.9623"/>
</g>
<!-- Node22&#45;&gt;Node7 -->
<g id="edge40" class="edge"><title>Node22&#45;&gt;Node7</title>
<path fill="none" stroke="midnightblue" d="M750.658,-374.562C750.406,-360.923 750.984,-334.258 758,-313 783.799,-234.828 825.644,-231.641 853,-154 868.016,-111.383 871.802,-57.8858 872.727,-29.9578"/>
<polygon fill="midnightblue" stroke="midnightblue" points="876.233,-29.7411 872.973,-19.6603 869.235,-29.5738 876.233,-29.7411"/>
</g>
<!-- Node23 -->
<g id="node24" class="node"><title>Node23</title>
<polygon fill="white" stroke="#bfbfbf" points="815.5,-313.5 815.5,-332.5 844.5,-332.5 844.5,-313.5 815.5,-313.5"/>
<text text-anchor="middle" x="830" y="-320.5" font-family="Helvetica,sans-Serif" font-size="10.00">list</text>
</g>
<!-- Node22&#45;&gt;Node23 -->
<g id="edge41" class="edge"><title>Node22&#45;&gt;Node23</title>
<path fill="none" stroke="midnightblue" d="M762.319,-374.975C774.873,-365.52 795.351,-350.096 810.499,-338.687"/>
<polygon fill="midnightblue" stroke="midnightblue" points="812.82,-341.321 818.702,-332.509 808.609,-335.73 812.82,-341.321"/>
</g>
<!-- Node24&#45;&gt;Node2 -->
<g id="edge45" class="edge"><title>Node24&#45;&gt;Node2</title>
<path fill="none" stroke="midnightblue" d="M1074.38,-332.634C1067,-348.303 1041.38,-381.507 1012,-400 922.067,-456.611 797.52,-484.22 732.371,-495.127"/>
<polygon fill="midnightblue" stroke="midnightblue" points="731.751,-491.682 722.44,-496.736 732.871,-498.592 731.751,-491.682"/>
</g>
<!-- Node24&#45;&gt;Node4 -->
<g id="edge46" class="edge"><title>Node24&#45;&gt;Node4</title>
<path fill="none" stroke="midnightblue" d="M1094.99,-313.37C1109.41,-305.978 1127.89,-293.846 1137,-277 1169.59,-216.753 1161.14,-189.051 1143,-123 1140.3,-113.179 1135.14,-103.334 1129.85,-94.9796"/>
<polygon fill="midnightblue" stroke="midnightblue" points="1132.67,-92.8979 1124.17,-86.5702 1126.87,-96.816 1132.67,-92.8979"/>
</g>
<!-- Node24&#45;&gt;Node7 -->
<g id="edge44" class="edge"><title>Node24&#45;&gt;Node7</title>
<path fill="none" stroke="midnightblue" d="M1057.92,-313.418C1043.9,-305.611 1024.41,-292.893 1012,-277 947.048,-193.79 986.01,-142.143 925,-56 916.698,-44.2782 904.714,-33.6349 894.343,-25.6455"/>
<polygon fill="midnightblue" stroke="midnightblue" points="896.253,-22.7059 886.126,-19.5931 892.102,-28.3419 896.253,-22.7059"/>
</g>
<!-- Node24&#45;&gt;Node8 -->
<g id="edge47" class="edge"><title>Node24&#45;&gt;Node8</title>
<path fill="none" stroke="midnightblue" d="M1101.52,-315.456C1123.83,-308.841 1155.44,-296.73 1177,-277 1209.58,-247.188 1201.98,-227.686 1225,-190 1230.64,-180.762 1237.21,-170.832 1243.06,-162.244"/>
<polygon fill="midnightblue" stroke="midnightblue" points="1246.05,-164.085 1248.83,-153.863 1240.28,-160.115 1246.05,-164.085"/>
</g>
<!-- Node24&#45;&gt;Node9 -->
<g id="edge48" class="edge"><title>Node24&#45;&gt;Node9</title>
<path fill="none" stroke="midnightblue" d="M1048.28,-318.499C982.439,-309.868 811.159,-287.419 720.781,-275.573"/>
<polygon fill="midnightblue" stroke="midnightblue" points="721.072,-272.082 710.702,-274.252 720.163,-279.022 721.072,-272.082"/>
</g>
<!-- Node25 -->
<g id="node26" class="node"><title>Node25</title>
<polygon fill="white" stroke="#bfbfbf" points="1021.5,-257.5 1021.5,-276.5 1128.5,-276.5 1128.5,-257.5 1021.5,-257.5"/>
<text text-anchor="middle" x="1075" y="-264.5" font-family="Helvetica,sans-Serif" font-size="10.00">opencv2/opencv.hpp</text>
</g>
<!-- Node24&#45;&gt;Node25 -->
<g id="edge49" class="edge"><title>Node24&#45;&gt;Node25</title>
<path fill="none" stroke="midnightblue" d="M1075,-313.083C1075,-306.006 1075,-295.861 1075,-286.986"/>
<polygon fill="midnightblue" stroke="midnightblue" points="1078.5,-286.751 1075,-276.751 1071.5,-286.751 1078.5,-286.751"/>
</g>
<!-- Node26&#45;&gt;Node3 -->
<g id="edge54" class="edge"><title>Node26&#45;&gt;Node3</title>
<path fill="none" stroke="midnightblue" d="M856.165,-394.009C838.724,-403.987 806.257,-420.629 781.887,-432.174"/>
<polygon fill="midnightblue" stroke="midnightblue" points="780.248,-429.077 772.664,-436.475 783.206,-435.421 780.248,-429.077"/>
</g>
<!-- Node26&#45;&gt;Node7 -->
<g id="edge51" class="edge"><title>Node26&#45;&gt;Node7</title>
<path fill="none" stroke="midnightblue" d="M873.621,-374.924C885.277,-356.29 911,-310.365 911,-268 911,-268 911,-268 911,-137.5 911,-97.3496 893.224,-52.9463 881.988,-28.8892"/>
<polygon fill="midnightblue" stroke="midnightblue" points="885.013,-27.1043 877.508,-19.6255 878.711,-30.1518 885.013,-27.1043"/>
</g>
<!-- Node26&#45;&gt;Node9 -->
<g id="edge56" class="edge"><title>Node26&#45;&gt;Node9</title>
<path fill="none" stroke="midnightblue" d="M868.868,-374.781C869.825,-359.959 869.443,-329.825 853,-313 834.751,-294.328 769.669,-281.833 720.723,-274.843"/>
<polygon fill="midnightblue" stroke="midnightblue" points="720.931,-271.338 710.546,-273.434 719.972,-278.272 720.931,-271.338"/>
</g>
<!-- Node26&#45;&gt;Node23 -->
<g id="edge52" class="edge"><title>Node26&#45;&gt;Node23</title>
<path fill="none" stroke="midnightblue" d="M862.556,-374.975C856.912,-366.138 847.939,-352.089 840.841,-340.975"/>
<polygon fill="midnightblue" stroke="midnightblue" points="843.767,-339.053 835.434,-332.509 837.867,-342.821 843.767,-339.053"/>
</g>
<!-- Node26&#45;&gt;Node24 -->
<g id="edge55" class="edge"><title>Node26&#45;&gt;Node24</title>
<path fill="none" stroke="midnightblue" d="M897.658,-374.975C934.862,-364.281 998.627,-345.953 1038.71,-334.433"/>
<polygon fill="midnightblue" stroke="midnightblue" points="1039.71,-337.786 1048.35,-331.659 1037.78,-331.058 1039.71,-337.786"/>
</g>
<!-- Node27 -->
<g id="node28" class="node"><title>Node27</title>
<polygon fill="white" stroke="#bfbfbf" points="767,-313.5 767,-332.5 797,-332.5 797,-313.5 767,-313.5"/>
<text text-anchor="middle" x="782" y="-320.5" font-family="Helvetica,sans-Serif" font-size="10.00">set</text>
</g>
<!-- Node26&#45;&gt;Node27 -->
<g id="edge53" class="edge"><title>Node26&#45;&gt;Node27</title>
<path fill="none" stroke="midnightblue" d="M855.678,-374.975C841.884,-365.431 819.301,-349.807 802.768,-338.368"/>
<polygon fill="midnightblue" stroke="midnightblue" points="804.514,-335.32 794.299,-332.509 800.531,-341.077 804.514,-335.32"/>
</g>
<!-- Node26&#45;&gt;Node28 -->
<g id="edge57" class="edge"><title>Node26&#45;&gt;Node28</title>
<path fill="none" stroke="midnightblue" d="M830.722,-374.958C821.364,-372.91 811.331,-370.798 802,-369 716.088,-352.441 614.141,-336.506 563.259,-328.804"/>
<polygon fill="midnightblue" stroke="midnightblue" points="563.61,-325.318 553.2,-327.288 562.567,-332.239 563.61,-325.318"/>
</g>
<!-- Node30&#45;&gt;Node9 -->
<g id="edge62" class="edge"><title>Node30&#45;&gt;Node9</title>
<path fill="none" stroke="midnightblue" d="M484.362,-436.481C478.946,-427.745 471.136,-413.556 468,-400 458.713,-359.861 467.466,-338.276 500,-313 530.044,-289.659 571.441,-278.417 604.997,-273.007"/>
<polygon fill="midnightblue" stroke="midnightblue" points="605.757,-276.433 615.138,-271.508 604.734,-269.508 605.757,-276.433"/>
</g>
<!-- Node30&#45;&gt;Node27 -->
<g id="edge63" class="edge"><title>Node30&#45;&gt;Node27</title>
<path fill="none" stroke="midnightblue" d="M489.368,-436.443C488.711,-420.598 489.797,-386.696 509,-369 544.914,-335.904 696.018,-326.993 756.66,-324.728"/>
<polygon fill="midnightblue" stroke="midnightblue" points="757.008,-328.218 766.882,-324.378 756.768,-321.222 757.008,-328.218"/>
</g>
<!-- Node30&#45;&gt;Node28 -->
<g id="edge64" class="edge"><title>Node30&#45;&gt;Node28</title>
<path fill="none" stroke="midnightblue" d="M485.035,-436.119C477.546,-421.452 465.314,-391.551 476,-369 482.128,-356.068 493.994,-345.617 505.141,-338.053"/>
<polygon fill="midnightblue" stroke="midnightblue" points="507.195,-340.896 513.802,-332.614 503.472,-334.968 507.195,-340.896"/>
</g>
<!-- Node30&#45;&gt;Node29 -->
<g id="edge65" class="edge"><title>Node30&#45;&gt;Node29</title>
<path fill="none" stroke="midnightblue" d="M500.889,-436.475C511.086,-428.492 526.717,-416.254 540.109,-405.77"/>
<polygon fill="midnightblue" stroke="midnightblue" points="542.372,-408.443 548.088,-399.523 538.057,-402.932 542.372,-408.443"/>
</g>
</g>
</svg>
