<?xml version="1.0" encoding="UTF-8" standalone="no"?>
<!DOCTYPE svg PUBLIC "-//W3C//DTD SVG 1.1//EN"
 "http://www.w3.org/Graphics/SVG/1.1/DTD/svg11.dtd">
<!-- Generated by graphviz version 2.40.1 (20161225.0304)
 -->
<!-- Title: /home/alejandro/Desarrollo eclipse/os1/src/PnPsolver.cc Pages: 1 -->
<svg width="1540pt" height="576pt"
 viewBox="0.00 0.00 1540.00 576.00" xmlns="http://www.w3.org/2000/svg" xmlns:xlink="http://www.w3.org/1999/xlink">
<g id="graph0" class="graph" transform="scale(1 1) rotate(0) translate(4 572)">
<title>/home/alejandro/Desarrollo eclipse/os1/src/PnPsolver.cc</title>
<polygon fill="#ffffff" stroke="transparent" points="-4,4 -4,-572 1536,-572 1536,4 -4,4"/>
<!-- Node0 -->
<g id="node1" class="node">
<title>Node0</title>
<polygon fill="#bfbfbf" stroke="#000000" points="1078.5,-537.5 1078.5,-567.5 1225.5,-567.5 1225.5,-537.5 1078.5,-537.5"/>
<text text-anchor="start" x="1086.5" y="-555.5" font-family="Helvetica,sans-Serif" font-size="10.00" fill="#000000">/home/alejandro/Desarrollo</text>
<text text-anchor="middle" x="1152" y="-544.5" font-family="Helvetica,sans-Serif" font-size="10.00" fill="#000000"> eclipse/os1/src/PnPsolver.cc</text>
</g>
<!-- Node1 -->
<g id="node2" class="node">
<title>Node1</title>
<polygon fill="#ffffff" stroke="#bfbfbf" points="19,-.5 19,-19.5 73,-19.5 73,-.5 19,-.5"/>
<text text-anchor="middle" x="46" y="-7.5" font-family="Helvetica,sans-Serif" font-size="10.00" fill="#000000">iostream</text>
</g>
<!-- Node0&#45;&gt;Node1 -->
<g id="edge1" class="edge">
<title>Node0&#45;&gt;Node1</title>
<path fill="none" stroke="#191970" d="M1078.1848,-548.8569C823.9263,-535.8269 0,-489.4058 0,-435 0,-435 0,-435 0,-138.5 0,-97.2645 21.2566,-52.7113 34.8702,-28.4059"/>
<polygon fill="#191970" stroke="#191970" points="38.0021,-29.9817 39.9863,-19.5743 31.9451,-26.4728 38.0021,-29.9817"/>
</g>
<!-- Node2 -->
<g id="node3" class="node">
<title>Node2</title>
<g id="a_node3"><a xlink:href="_pn_psolver_8h.html" target="_top" xlink:title="PnPsolver.h">
<polygon fill="#ffffff" stroke="#000000" points="480,-481.5 480,-500.5 550,-500.5 550,-481.5 480,-481.5"/>
<text text-anchor="middle" x="515" y="-488.5" font-family="Helvetica,sans-Serif" font-size="10.00" fill="#000000">PnPsolver.h</text>
</a>
</g>
</g>
<!-- Node0&#45;&gt;Node2 -->
<g id="edge2" class="edge">
<title>Node0&#45;&gt;Node2</title>
<path fill="none" stroke="#191970" d="M1078.3057,-545.3851C945.2143,-532.5356 668.5124,-505.8211 560.0253,-495.347"/>
<polygon fill="#191970" stroke="#191970" points="560.3523,-491.8624 550.0622,-494.3851 559.6795,-498.83 560.3523,-491.8624"/>
</g>
<!-- Node3 -->
<g id="node4" class="node">
<title>Node3</title>
<polygon fill="#ffffff" stroke="#bfbfbf" points="604,-62 604,-81 720,-81 720,-62 604,-62"/>
<text text-anchor="middle" x="662" y="-69" font-family="Helvetica,sans-Serif" font-size="10.00" fill="#000000">opencv2/core/core.hpp</text>
</g>
<!-- Node0&#45;&gt;Node3 -->
<g id="edge67" class="edge">
<title>Node0&#45;&gt;Node3</title>
<path fill="none" stroke="#191970" d="M1143.7546,-537.42C1132.5785,-515.5326 1114,-473.3768 1114,-435 1114,-435 1114,-435 1114,-205.5 1114,-167.8735 1123.0029,-148.1315 1095,-123 1068.4068,-99.1336 845.5231,-82.4588 730.3446,-75.3492"/>
<polygon fill="#191970" stroke="#191970" points="730.4132,-71.847 720.2187,-74.7317 729.987,-78.834 730.4132,-71.847"/>
</g>
<!-- Node8 -->
<g id="node9" class="node">
<title>Node8</title>
<polygon fill="#ffffff" stroke="#bfbfbf" points="644,-.5 644,-19.5 688,-19.5 688,-.5 644,-.5"/>
<text text-anchor="middle" x="666" y="-7.5" font-family="Helvetica,sans-Serif" font-size="10.00" fill="#000000">vector</text>
</g>
<!-- Node0&#45;&gt;Node8 -->
<g id="edge65" class="edge">
<title>Node0&#45;&gt;Node8</title>
<path fill="none" stroke="#191970" d="M1225.7737,-539.5387C1316.8927,-521.3885 1460,-484.9342 1460,-435 1460,-435 1460,-435 1460,-138.5 1460,-98.3146 1456.0538,-78.8542 1423,-56 1392.7534,-35.0868 838.6754,-15.6389 698.1746,-11.0288"/>
<polygon fill="#191970" stroke="#191970" points="698.161,-7.5266 688.0523,-10.6989 697.9329,-14.5229 698.161,-7.5266"/>
</g>
<!-- Node18 -->
<g id="node19" class="node">
<title>Node18</title>
<polygon fill="#ffffff" stroke="#bfbfbf" points="1030,-129 1030,-148 1086,-148 1086,-129 1030,-129"/>
<text text-anchor="middle" x="1058" y="-136" font-family="Helvetica,sans-Serif" font-size="10.00" fill="#000000">algorithm</text>
</g>
<!-- Node0&#45;&gt;Node18 -->
<g id="edge69" class="edge">
<title>Node0&#45;&gt;Node18</title>
<path fill="none" stroke="#191970" d="M1148.543,-537.2745C1134.1117,-473.7154 1078.6762,-229.5632 1062.4725,-158.198"/>
<polygon fill="#191970" stroke="#191970" points="1065.8484,-157.2588 1060.221,-148.282 1059.0222,-158.8088 1065.8484,-157.2588"/>
</g>
<!-- Node21 -->
<g id="node22" class="node">
<title>Node21</title>
<g id="a_node22"><a xlink:href="_random_8h.html" target="_top" xlink:title="../DUtils/Random.h">
<polygon fill="#ffffff" stroke="#000000" points="1330.5,-129 1330.5,-148 1431.5,-148 1431.5,-129 1330.5,-129"/>
<text text-anchor="middle" x="1381" y="-136" font-family="Helvetica,sans-Serif" font-size="10.00" fill="#000000">../DUtils/Random.h</text>
</a>
</g>
</g>
<!-- Node0&#45;&gt;Node21 -->
<g id="edge68" class="edge">
<title>Node0&#45;&gt;Node21</title>
<path fill="none" stroke="#191970" d="M1221.4454,-537.4826C1273.2147,-521.7286 1335,-491.1621 1335,-435 1335,-435 1335,-435 1335,-267 1335,-225.7645 1356.2566,-181.2113 1369.8702,-156.9059"/>
<polygon fill="#191970" stroke="#191970" points="1373.0021,-158.4817 1374.9863,-148.0743 1366.9451,-154.9728 1373.0021,-158.4817"/>
</g>
<!-- Node31 -->
<g id="node32" class="node">
<title>Node31</title>
<polygon fill="#ffffff" stroke="#bfbfbf" points="1488,-481.5 1488,-500.5 1532,-500.5 1532,-481.5 1488,-481.5"/>
<text text-anchor="middle" x="1510" y="-488.5" font-family="Helvetica,sans-Serif" font-size="10.00" fill="#000000">cmath</text>
</g>
<!-- Node0&#45;&gt;Node31 -->
<g id="edge66" class="edge">
<title>Node0&#45;&gt;Node31</title>
<path fill="none" stroke="#191970" d="M1225.6544,-543.1194C1291.2064,-534.2019 1389.51,-519.4302 1474,-501 1475.2477,-500.7278 1476.5164,-500.4384 1477.7956,-500.1359"/>
<polygon fill="#191970" stroke="#191970" points="1478.8009,-503.4917 1487.6287,-497.6333 1477.0743,-496.708 1478.8009,-503.4917"/>
</g>
<!-- Node2&#45;&gt;Node3 -->
<g id="edge3" class="edge">
<title>Node2&#45;&gt;Node3</title>
<path fill="none" stroke="#191970" d="M512.3284,-481.4629C501.9979,-442.62 467.7229,-293.4913 519,-190 530.5258,-166.7378 544.8858,-170.4132 565,-154 592.6031,-131.4759 623.8922,-104.6173 643.2883,-87.807"/>
<polygon fill="#191970" stroke="#191970" points="645.8123,-90.2506 651.0673,-81.0508 641.2222,-84.9656 645.8123,-90.2506"/>
</g>
<!-- Node4 -->
<g id="node5" class="node">
<title>Node4</title>
<g id="a_node5"><a xlink:href="_map_point_8h.html" target="_top" xlink:title="MapPoint.h">
<polygon fill="#ffffff" stroke="#000000" points="529,-425.5 529,-444.5 595,-444.5 595,-425.5 529,-425.5"/>
<text text-anchor="middle" x="562" y="-432.5" font-family="Helvetica,sans-Serif" font-size="10.00" fill="#000000">MapPoint.h</text>
</a>
</g>
</g>
<!-- Node2&#45;&gt;Node4 -->
<g id="edge4" class="edge">
<title>Node2&#45;&gt;Node4</title>
<path fill="none" stroke="#191970" d="M523.1868,-481.2455C529.8589,-473.2958 539.4479,-461.8706 547.4253,-452.3656"/>
<polygon fill="#191970" stroke="#191970" points="550.1592,-454.5525 553.907,-444.6427 544.7974,-450.0524 550.1592,-454.5525"/>
</g>
<!-- Node27 -->
<g id="node28" class="node">
<title>Node27</title>
<g id="a_node28"><a xlink:href="_frame_8h.html" target="_top" xlink:title="Frame.h">
<polygon fill="#ffffff" stroke="#000000" points="386.5,-313.5 386.5,-332.5 439.5,-332.5 439.5,-313.5 386.5,-313.5"/>
<text text-anchor="middle" x="413" y="-320.5" font-family="Helvetica,sans-Serif" font-size="10.00" fill="#000000">Frame.h</text>
</a>
</g>
</g>
<!-- Node2&#45;&gt;Node27 -->
<g id="edge64" class="edge">
<title>Node2&#45;&gt;Node27</title>
<path fill="none" stroke="#191970" d="M496.8824,-481.3555C483.3207,-473.2885 465.2443,-460.6033 454,-445 431.2406,-413.4177 420.47,-368.3188 415.9112,-342.7275"/>
<polygon fill="#191970" stroke="#191970" points="419.3481,-342.0571 414.2767,-332.7549 412.4403,-343.1893 419.3481,-342.0571"/>
</g>
<!-- Node4&#45;&gt;Node3 -->
<g id="edge62" class="edge">
<title>Node4&#45;&gt;Node3</title>
<path fill="none" stroke="#191970" d="M564.6748,-425.2773C578.093,-376.5019 638.1573,-158.1683 656.598,-91.1363"/>
<polygon fill="#191970" stroke="#191970" points="660.0855,-91.6541 659.3634,-81.0839 653.3362,-89.7973 660.0855,-91.6541"/>
</g>
<!-- Node5 -->
<g id="node6" class="node">
<title>Node5</title>
<g id="a_node6"><a xlink:href="_key_frame_8h.html" target="_top" xlink:title="KeyFrame.h">
<polygon fill="#ffffff" stroke="#000000" points="590,-369.5 590,-388.5 660,-388.5 660,-369.5 590,-369.5"/>
<text text-anchor="middle" x="625" y="-376.5" font-family="Helvetica,sans-Serif" font-size="10.00" fill="#000000">KeyFrame.h</text>
</a>
</g>
</g>
<!-- Node4&#45;&gt;Node5 -->
<g id="edge5" class="edge">
<title>Node4&#45;&gt;Node5</title>
<path fill="none" stroke="#191970" d="M572.9738,-425.2455C582.1882,-417.0549 595.5532,-405.1749 606.4297,-395.5069"/>
<polygon fill="#191970" stroke="#191970" points="609.0032,-397.9023 614.152,-388.6427 604.3526,-392.6704 609.0032,-397.9023"/>
</g>
<!-- Node26 -->
<g id="node27" class="node">
<title>Node26</title>
<polygon fill="#ffffff" stroke="#bfbfbf" points="807,-257.5 807,-276.5 851,-276.5 851,-257.5 807,-257.5"/>
<text text-anchor="middle" x="829" y="-264.5" font-family="Helvetica,sans-Serif" font-size="10.00" fill="#000000">mutex</text>
</g>
<!-- Node4&#45;&gt;Node26 -->
<g id="edge63" class="edge">
<title>Node4&#45;&gt;Node26</title>
<path fill="none" stroke="#191970" d="M595.2211,-427.4957C661.0701,-411.8597 804.1273,-373.8359 831,-333 839.9386,-319.4169 838.3579,-300.6238 835.1706,-286.5643"/>
<polygon fill="#191970" stroke="#191970" points="838.5481,-285.646 832.5679,-276.9003 831.789,-287.4665 838.5481,-285.646"/>
</g>
<!-- Node4&#45;&gt;Node27 -->
<g id="edge47" class="edge">
<title>Node4&#45;&gt;Node27</title>
<path fill="none" stroke="#191970" d="M545.3165,-425.4509C516.4567,-406.2747 458.4351,-362.8962 429.6321,-339.1988"/>
<polygon fill="#191970" stroke="#191970" points="431.6021,-336.2824 421.6959,-332.5249 427.0967,-341.6398 431.6021,-336.2824"/>
</g>
<!-- Node30 -->
<g id="node31" class="node">
<title>Node30</title>
<g id="a_node31"><a xlink:href="_map_8h.html" target="_top" xlink:title="Map.h">
<polygon fill="#ffffff" stroke="#000000" points="758,-313.5 758,-332.5 802,-332.5 802,-313.5 758,-313.5"/>
<text text-anchor="middle" x="780" y="-320.5" font-family="Helvetica,sans-Serif" font-size="10.00" fill="#000000">Map.h</text>
</a>
</g>
</g>
<!-- Node4&#45;&gt;Node30 -->
<g id="edge58" class="edge">
<title>Node4&#45;&gt;Node30</title>
<path fill="none" stroke="#191970" d="M586.6386,-425.4733C608.5989,-416.7326 641.4347,-403.0448 669,-389 700.1134,-373.1474 734.4546,-352.1544 756.5795,-338.1436"/>
<polygon fill="#191970" stroke="#191970" points="758.7195,-340.9301 765.2686,-332.6018 754.9553,-335.0282 758.7195,-340.9301"/>
</g>
<!-- Node6 -->
<g id="node7" class="node">
<title>Node6</title>
<g id="a_node7"><a xlink:href="_bow_vector_8h.html" target="_top" xlink:title="../Thirdparty/DBoW2\l/DBoW2/BowVector.h">
<polygon fill="#ffffff" stroke="#000000" points="150.5,-56.5 150.5,-86.5 263.5,-86.5 263.5,-56.5 150.5,-56.5"/>
<text text-anchor="start" x="158.5" y="-74.5" font-family="Helvetica,sans-Serif" font-size="10.00" fill="#000000">../Thirdparty/DBoW2</text>
<text text-anchor="middle" x="207" y="-63.5" font-family="Helvetica,sans-Serif" font-size="10.00" fill="#000000">/DBoW2/BowVector.h</text>
</a>
</g>
</g>
<!-- Node5&#45;&gt;Node6 -->
<g id="edge6" class="edge">
<title>Node5&#45;&gt;Node6</title>
<path fill="none" stroke="#191970" d="M598.9368,-369.3735C534.2894,-345.4364 371.0372,-284.6017 361,-277 293.7362,-226.0576 241.7588,-138.122 219.2285,-95.7329"/>
<polygon fill="#191970" stroke="#191970" points="222.2395,-93.9375 214.5063,-86.6953 216.0353,-97.1792 222.2395,-93.9375"/>
</g>
<!-- Node9 -->
<g id="node10" class="node">
<title>Node9</title>
<g id="a_node10"><a xlink:href="_feature_vector_8h.html" target="_top" xlink:title="../Thirdparty/DBoW2\l/DBoW2/FeatureVector.h">
<polygon fill="#ffffff" stroke="#000000" points="28.5,-123.5 28.5,-153.5 155.5,-153.5 155.5,-123.5 28.5,-123.5"/>
<text text-anchor="start" x="36.5" y="-141.5" font-family="Helvetica,sans-Serif" font-size="10.00" fill="#000000">../Thirdparty/DBoW2</text>
<text text-anchor="middle" x="92" y="-130.5" font-family="Helvetica,sans-Serif" font-size="10.00" fill="#000000">/DBoW2/FeatureVector.h</text>
</a>
</g>
</g>
<!-- Node5&#45;&gt;Node9 -->
<g id="edge10" class="edge">
<title>Node5&#45;&gt;Node9</title>
<path fill="none" stroke="#191970" d="M589.8602,-377.718C480.3957,-372.9523 148.6946,-352.4313 79,-277 50.6054,-246.2682 66.5974,-193.6992 79.9027,-162.9252"/>
<polygon fill="#191970" stroke="#191970" points="83.1192,-164.307 84.0686,-153.7548 76.7459,-161.4118 83.1192,-164.307"/>
</g>
<!-- Node10 -->
<g id="node11" class="node">
<title>Node10</title>
<g id="a_node11"><a xlink:href="_o_r_b_vocabulary_8h.html" target="_top" xlink:title="ORBVocabulary.h">
<polygon fill="#ffffff" stroke="#000000" points="638.5,-257.5 638.5,-276.5 733.5,-276.5 733.5,-257.5 638.5,-257.5"/>
<text text-anchor="middle" x="686" y="-264.5" font-family="Helvetica,sans-Serif" font-size="10.00" fill="#000000">ORBVocabulary.h</text>
</a>
</g>
</g>
<!-- Node5&#45;&gt;Node10 -->
<g id="edge15" class="edge">
<title>Node5&#45;&gt;Node10</title>
<path fill="none" stroke="#191970" d="M621.0114,-369.3996C616.0872,-355.9515 609.4598,-331.1222 619,-313 626.1929,-299.3365 639.4802,-288.9486 652.3367,-281.5328"/>
<polygon fill="#191970" stroke="#191970" points="654.3368,-284.4336 661.5288,-276.6538 651.055,-278.2506 654.3368,-284.4336"/>
</g>
<!-- Node23 -->
<g id="node24" class="node">
<title>Node23</title>
<g id="a_node24"><a xlink:href="_key_frame_database_8h.html" target="_top" xlink:title="KeyFrameDatabase.h">
<polygon fill="#ffffff" stroke="#000000" points="628,-313.5 628,-332.5 740,-332.5 740,-313.5 628,-313.5"/>
<text text-anchor="middle" x="684" y="-320.5" font-family="Helvetica,sans-Serif" font-size="10.00" fill="#000000">KeyFrameDatabase.h</text>
</a>
</g>
</g>
<!-- Node5&#45;&gt;Node23 -->
<g id="edge40" class="edge">
<title>Node5&#45;&gt;Node23</title>
<path fill="none" stroke="#191970" d="M635.277,-369.2455C643.8218,-361.1352 656.1778,-349.4075 666.3085,-339.7919"/>
<polygon fill="#191970" stroke="#191970" points="668.9972,-342.0655 673.8408,-332.6427 664.1782,-336.9884 668.9972,-342.0655"/>
</g>
<!-- Node5&#45;&gt;Node26 -->
<g id="edge46" class="edge">
<title>Node5&#45;&gt;Node26</title>
<path fill="none" stroke="#191970" d="M660.3802,-374.5516C708.1688,-367.8432 789.8181,-353.6836 811,-333 823.3241,-320.9658 827.4615,-301.3841 828.7327,-286.669"/>
<polygon fill="#191970" stroke="#191970" points="832.2338,-286.7319 829.2342,-276.5705 825.2424,-286.3846 832.2338,-286.7319"/>
</g>
<!-- Node6&#45;&gt;Node1 -->
<g id="edge7" class="edge">
<title>Node6&#45;&gt;Node1</title>
<path fill="none" stroke="#191970" d="M167.615,-56.4554C140.9873,-46.284 106.1556,-32.9787 80.5966,-23.2155"/>
<polygon fill="#191970" stroke="#191970" points="81.5399,-19.8292 70.9493,-19.5303 79.042,-26.3684 81.5399,-19.8292"/>
</g>
<!-- Node7 -->
<g id="node8" class="node">
<title>Node7</title>
<polygon fill="#ffffff" stroke="#bfbfbf" points="140.5,-.5 140.5,-19.5 175.5,-19.5 175.5,-.5 140.5,-.5"/>
<text text-anchor="middle" x="158" y="-7.5" font-family="Helvetica,sans-Serif" font-size="10.00" fill="#000000">map</text>
</g>
<!-- Node6&#45;&gt;Node7 -->
<g id="edge8" class="edge">
<title>Node6&#45;&gt;Node7</title>
<path fill="none" stroke="#191970" d="M194.8876,-56.2977C188.0151,-47.672 179.3777,-36.8312 172.189,-27.8087"/>
<polygon fill="#191970" stroke="#191970" points="174.8144,-25.487 165.8455,-19.8469 169.3396,-29.849 174.8144,-25.487"/>
</g>
<!-- Node6&#45;&gt;Node8 -->
<g id="edge9" class="edge">
<title>Node6&#45;&gt;Node8</title>
<path fill="none" stroke="#191970" d="M263.8721,-58.576C268.6403,-57.6473 273.3964,-56.7735 278,-56 408.8538,-34.0131 566.2711,-18.7694 633.258,-12.8011"/>
<polygon fill="#191970" stroke="#191970" points="633.9305,-16.2555 643.5846,-11.891 633.3159,-9.2825 633.9305,-16.2555"/>
</g>
<!-- Node9&#45;&gt;Node1 -->
<g id="edge14" class="edge">
<title>Node9&#45;&gt;Node1</title>
<path fill="none" stroke="#191970" d="M85.0427,-123.3399C80.4938,-113.1669 74.5705,-99.4077 70,-87 62.843,-67.5703 55.9463,-44.895 51.3973,-29.2068"/>
<polygon fill="#191970" stroke="#191970" points="54.7615,-28.2412 48.6487,-19.5877 48.0309,-30.1645 54.7615,-28.2412"/>
</g>
<!-- Node9&#45;&gt;Node6 -->
<g id="edge11" class="edge">
<title>Node9&#45;&gt;Node6</title>
<path fill="none" stroke="#191970" d="M117.8082,-123.4639C133.8237,-114.1332 154.6094,-102.0232 172.0856,-91.8415"/>
<polygon fill="#191970" stroke="#191970" points="174.0014,-94.776 180.88,-86.7177 170.4775,-88.7276 174.0014,-94.776"/>
</g>
<!-- Node9&#45;&gt;Node7 -->
<g id="edge12" class="edge">
<title>Node9&#45;&gt;Node7</title>
<path fill="none" stroke="#191970" d="M92.1494,-123.2325C92.9312,-105.8992 96.1205,-77.2727 108,-56 114.6496,-44.0925 125.4923,-33.5575 135.384,-25.5842"/>
<polygon fill="#191970" stroke="#191970" points="137.5195,-28.3573 143.3563,-19.5152 133.2794,-22.7875 137.5195,-28.3573"/>
</g>
<!-- Node9&#45;&gt;Node8 -->
<g id="edge13" class="edge">
<title>Node9&#45;&gt;Node8</title>
<path fill="none" stroke="#191970" d="M96.3077,-123.2767C102.6413,-103.9943 116.4585,-71.4246 141,-56 182.7061,-29.7873 525.7663,-15.1238 633.6526,-11.1282"/>
<polygon fill="#191970" stroke="#191970" points="634.0484,-14.6162 643.9143,-10.7543 633.7934,-7.6209 634.0484,-14.6162"/>
</g>
<!-- Node11 -->
<g id="node12" class="node">
<title>Node11</title>
<g id="a_node12"><a xlink:href="_f_o_r_b_8h.html" target="_top" xlink:title="../Thirdparty/DBoW2\l/DBoW2/FORB.h">
<polygon fill="#ffffff" stroke="#000000" points="1154.5,-190.5 1154.5,-220.5 1261.5,-220.5 1261.5,-190.5 1154.5,-190.5"/>
<text text-anchor="start" x="1162.5" y="-208.5" font-family="Helvetica,sans-Serif" font-size="10.00" fill="#000000">../Thirdparty/DBoW2</text>
<text text-anchor="middle" x="1208" y="-197.5" font-family="Helvetica,sans-Serif" font-size="10.00" fill="#000000">/DBoW2/FORB.h</text>
</a>
</g>
</g>
<!-- Node10&#45;&gt;Node11 -->
<g id="edge16" class="edge">
<title>Node10&#45;&gt;Node11</title>
<path fill="none" stroke="#191970" d="M733.6927,-259.0689C738.5209,-258.3376 743.3548,-257.6343 748,-257 889.1149,-237.7319 1055.3159,-220.459 1144.2317,-211.6539"/>
<polygon fill="#191970" stroke="#191970" points="1144.8155,-215.1134 1154.4234,-210.6483 1144.128,-208.1473 1144.8155,-215.1134"/>
</g>
<!-- Node14 -->
<g id="node15" class="node">
<title>Node14</title>
<g id="a_node15"><a xlink:href="_templated_vocabulary_8h.html" target="_top" xlink:title="../Thirdparty/DBoW2\l/DBoW2/TemplatedVocabulary.h">
<polygon fill="#ffffff" stroke="#000000" points="705,-190.5 705,-220.5 865,-220.5 865,-190.5 705,-190.5"/>
<text text-anchor="start" x="713" y="-208.5" font-family="Helvetica,sans-Serif" font-size="10.00" fill="#000000">../Thirdparty/DBoW2</text>
<text text-anchor="middle" x="785" y="-197.5" font-family="Helvetica,sans-Serif" font-size="10.00" fill="#000000">/DBoW2/TemplatedVocabulary.h</text>
</a>
</g>
</g>
<!-- Node10&#45;&gt;Node14 -->
<g id="edge24" class="edge">
<title>Node10&#45;&gt;Node14</title>
<path fill="none" stroke="#191970" d="M701.4688,-257.3906C714.9913,-248.9903 735.0811,-236.5103 752.1698,-225.8945"/>
<polygon fill="#191970" stroke="#191970" points="754.1344,-228.7945 760.7819,-220.5446 750.4405,-222.8484 754.1344,-228.7945"/>
</g>
<!-- Node11&#45;&gt;Node3 -->
<g id="edge17" class="edge">
<title>Node11&#45;&gt;Node3</title>
<path fill="none" stroke="#191970" d="M1198.2304,-190.2289C1184.9305,-170.8948 1159.1766,-138.2692 1128,-123 1059.6835,-89.5411 842.7038,-77.4867 730.569,-73.4173"/>
<polygon fill="#191970" stroke="#191970" points="730.498,-69.9128 720.3812,-73.0591 730.252,-76.9084 730.498,-69.9128"/>
</g>
<!-- Node11&#45;&gt;Node8 -->
<g id="edge18" class="edge">
<title>Node11&#45;&gt;Node8</title>
<path fill="none" stroke="#191970" d="M1230.1114,-190.3604C1241.3456,-181.2809 1253.8866,-168.6588 1260,-154 1277.1824,-112.7998 1273.0755,-83.6115 1238,-56 1195.485,-22.5321 813.2147,-12.7403 698.4395,-10.5425"/>
<polygon fill="#191970" stroke="#191970" points="698.2506,-7.0385 688.1876,-10.353 698.1212,-14.0373 698.2506,-7.0385"/>
</g>
<!-- Node12 -->
<g id="node13" class="node">
<title>Node12</title>
<polygon fill="#ffffff" stroke="#bfbfbf" points="1187.5,-62 1187.5,-81 1228.5,-81 1228.5,-62 1187.5,-62"/>
<text text-anchor="middle" x="1208" y="-69" font-family="Helvetica,sans-Serif" font-size="10.00" fill="#000000">string</text>
</g>
<!-- Node11&#45;&gt;Node12 -->
<g id="edge19" class="edge">
<title>Node11&#45;&gt;Node12</title>
<path fill="none" stroke="#191970" d="M1222.8786,-190.2541C1231.1408,-180.6909 1240.6136,-167.6233 1245,-154 1249.2227,-140.8853 1249.2227,-136.1147 1245,-123 1240.9183,-110.3232 1232.4324,-98.1274 1224.616,-88.7887"/>
<polygon fill="#191970" stroke="#191970" points="1227.0294,-86.2355 1217.7714,-81.0837 1221.7961,-90.8844 1227.0294,-86.2355"/>
</g>
<!-- Node13 -->
<g id="node14" class="node">
<title>Node13</title>
<g id="a_node14"><a xlink:href="_f_class_8h.html" target="_top" xlink:title="FClass.h">
<polygon fill="#ffffff" stroke="#000000" points="1180,-129 1180,-148 1236,-148 1236,-129 1180,-129"/>
<text text-anchor="middle" x="1208" y="-136" font-family="Helvetica,sans-Serif" font-size="10.00" fill="#000000">FClass.h</text>
</a>
</g>
</g>
<!-- Node11&#45;&gt;Node13 -->
<g id="edge20" class="edge">
<title>Node11&#45;&gt;Node13</title>
<path fill="none" stroke="#191970" d="M1208,-190.2967C1208,-180.7699 1208,-168.3954 1208,-158.1306"/>
<polygon fill="#191970" stroke="#191970" points="1211.5001,-158.0549 1208,-148.055 1204.5001,-158.055 1211.5001,-158.0549"/>
</g>
<!-- Node13&#45;&gt;Node3 -->
<g id="edge21" class="edge">
<title>Node13&#45;&gt;Node3</title>
<path fill="none" stroke="#191970" d="M1185.2118,-128.9071C1179.0686,-126.6491 1172.3603,-124.4737 1166,-123 1012.8997,-87.5262 827.9941,-76.4828 730.2622,-73.048"/>
<polygon fill="#191970" stroke="#191970" points="730.3308,-69.5484 720.2191,-72.7112 730.0961,-76.5445 730.3308,-69.5484"/>
</g>
<!-- Node13&#45;&gt;Node8 -->
<g id="edge22" class="edge">
<title>Node13&#45;&gt;Node8</title>
<path fill="none" stroke="#191970" d="M1182.2512,-128.9457C1176.8846,-126.969 1171.2608,-124.9081 1166,-123 1082.6124,-92.7551 1064.0679,-77.4609 978,-56 877.6829,-30.9861 755.6043,-17.8459 698.448,-12.6725"/>
<polygon fill="#191970" stroke="#191970" points="698.4982,-9.1634 688.2292,-11.7704 697.8826,-16.1363 698.4982,-9.1634"/>
</g>
<!-- Node13&#45;&gt;Node12 -->
<g id="edge23" class="edge">
<title>Node13&#45;&gt;Node12</title>
<path fill="none" stroke="#191970" d="M1208,-128.9005C1208,-119.149 1208,-103.7597 1208,-91.3695"/>
<polygon fill="#191970" stroke="#191970" points="1211.5001,-91.0816 1208,-81.0817 1204.5001,-91.0817 1211.5001,-91.0816"/>
</g>
<!-- Node14&#45;&gt;Node3 -->
<g id="edge31" class="edge">
<title>Node14&#45;&gt;Node3</title>
<path fill="none" stroke="#191970" d="M733.3628,-190.4364C714.3465,-182.4673 694.2402,-170.7575 681,-154 666.7384,-135.9498 662.8134,-109.1327 661.9166,-91.0159"/>
<polygon fill="#191970" stroke="#191970" points="665.4157,-90.932 661.6842,-81.016 658.4176,-91.0947 665.4157,-90.932"/>
</g>
<!-- Node14&#45;&gt;Node6 -->
<g id="edge34" class="edge">
<title>Node14&#45;&gt;Node6</title>
<path fill="none" stroke="#191970" d="M736.7198,-190.4407C678.7631,-172.7153 578.4334,-143.1478 491,-123 417.1821,-105.9897 331.5112,-91.1104 273.7276,-81.7771"/>
<polygon fill="#191970" stroke="#191970" points="274.0578,-78.2854 263.6295,-80.1567 272.9486,-85.197 274.0578,-78.2854"/>
</g>
<!-- Node14&#45;&gt;Node8 -->
<g id="edge26" class="edge">
<title>Node14&#45;&gt;Node8</title>
<path fill="none" stroke="#191970" d="M865.1025,-193.0333C916.3073,-181.3132 968.8292,-159.8945 944,-123 887.8848,-39.6167 758.4721,-17.7346 698.1003,-12.0135"/>
<polygon fill="#191970" stroke="#191970" points="698.2658,-8.515 688.0034,-11.148 697.6679,-15.4894 698.2658,-8.515"/>
</g>
<!-- Node14&#45;&gt;Node9 -->
<g id="edge33" class="edge">
<title>Node14&#45;&gt;Node9</title>
<path fill="none" stroke="#191970" d="M704.8271,-197.7488C569.3654,-184.6522 297.1545,-158.3346 165.9882,-145.6533"/>
<polygon fill="#191970" stroke="#191970" points="165.9381,-142.1322 155.6476,-144.6535 165.2644,-149.0997 165.9381,-142.1322"/>
</g>
<!-- Node14&#45;&gt;Node12 -->
<g id="edge29" class="edge">
<title>Node14&#45;&gt;Node12</title>
<path fill="none" stroke="#191970" d="M865.2387,-190.9585C900.8365,-182.7887 942.5901,-170.7872 978,-154 999.2886,-143.9075 999.7519,-133.1773 1021,-123 1073.0501,-98.0693 1139.2212,-83.4373 1177.2768,-76.4885"/>
<polygon fill="#191970" stroke="#191970" points="1177.9912,-79.9166 1187.2298,-74.7302 1176.7733,-73.0233 1177.9912,-79.9166"/>
</g>
<!-- Node15 -->
<g id="node16" class="node">
<title>Node15</title>
<polygon fill="#ffffff" stroke="#bfbfbf" points="886.5,-129 886.5,-148 935.5,-148 935.5,-129 886.5,-129"/>
<text text-anchor="middle" x="911" y="-136" font-family="Helvetica,sans-Serif" font-size="10.00" fill="#000000">cassert</text>
</g>
<!-- Node14&#45;&gt;Node15 -->
<g id="edge25" class="edge">
<title>Node14&#45;&gt;Node15</title>
<path fill="none" stroke="#191970" d="M813.2769,-190.4639C834.418,-179.2222 863.1458,-163.9463 883.9784,-152.8686"/>
<polygon fill="#191970" stroke="#191970" points="885.7528,-155.8892 892.9389,-148.1039 882.4663,-149.7087 885.7528,-155.8892"/>
</g>
<!-- Node16 -->
<g id="node17" class="node">
<title>Node16</title>
<polygon fill="#ffffff" stroke="#bfbfbf" points="690.5,-129 690.5,-148 741.5,-148 741.5,-129 690.5,-129"/>
<text text-anchor="middle" x="716" y="-136" font-family="Helvetica,sans-Serif" font-size="10.00" fill="#000000">numeric</text>
</g>
<!-- Node14&#45;&gt;Node16 -->
<g id="edge27" class="edge">
<title>Node14&#45;&gt;Node16</title>
<path fill="none" stroke="#191970" d="M769.3428,-190.2967C758.5923,-179.8578 744.3206,-165.9997 733.2445,-155.2446"/>
<polygon fill="#191970" stroke="#191970" points="735.4527,-152.5103 725.8402,-148.055 730.5763,-157.5323 735.4527,-152.5103"/>
</g>
<!-- Node17 -->
<g id="node18" class="node">
<title>Node17</title>
<polygon fill="#ffffff" stroke="#bfbfbf" points="760,-129 760,-148 810,-148 810,-129 760,-129"/>
<text text-anchor="middle" x="785" y="-136" font-family="Helvetica,sans-Serif" font-size="10.00" fill="#000000">fstream</text>
</g>
<!-- Node14&#45;&gt;Node17 -->
<g id="edge28" class="edge">
<title>Node14&#45;&gt;Node17</title>
<path fill="none" stroke="#191970" d="M785,-190.2967C785,-180.7699 785,-168.3954 785,-158.1306"/>
<polygon fill="#191970" stroke="#191970" points="788.5001,-158.0549 785,-148.055 781.5001,-158.055 788.5001,-158.0549"/>
</g>
<!-- Node14&#45;&gt;Node18 -->
<g id="edge30" class="edge">
<title>Node14&#45;&gt;Node18</title>
<path fill="none" stroke="#191970" d="M864.787,-190.4631C909.6023,-181.3324 966.3377,-168.628 1016,-154 1018.6351,-153.2238 1021.3432,-152.3665 1024.0538,-151.4653"/>
<polygon fill="#191970" stroke="#191970" points="1025.4697,-154.6781 1033.7557,-148.0756 1023.1609,-148.0699 1025.4697,-154.6781"/>
</g>
<!-- Node19 -->
<g id="node20" class="node">
<title>Node19</title>
<polygon fill="#ffffff" stroke="#bfbfbf" points="828,-129 828,-148 868,-148 868,-129 828,-129"/>
<text text-anchor="middle" x="848" y="-136" font-family="Helvetica,sans-Serif" font-size="10.00" fill="#000000">limits</text>
</g>
<!-- Node14&#45;&gt;Node19 -->
<g id="edge32" class="edge">
<title>Node14&#45;&gt;Node19</title>
<path fill="none" stroke="#191970" d="M799.2957,-190.2967C809.0161,-179.9591 821.8894,-166.2684 831.9597,-155.5588"/>
<polygon fill="#191970" stroke="#191970" points="834.715,-157.7378 839.0155,-148.055 829.6154,-152.9426 834.715,-157.7378"/>
</g>
<!-- Node20 -->
<g id="node21" class="node">
<title>Node20</title>
<g id="a_node21"><a xlink:href="_scoring_object_8h.html" target="_top" xlink:title="ScoringObject.h">
<polygon fill="#ffffff" stroke="#000000" points="396,-129 396,-148 482,-148 482,-129 396,-129"/>
<text text-anchor="middle" x="439" y="-136" font-family="Helvetica,sans-Serif" font-size="10.00" fill="#000000">ScoringObject.h</text>
</a>
</g>
</g>
<!-- Node14&#45;&gt;Node20 -->
<g id="edge35" class="edge">
<title>Node14&#45;&gt;Node20</title>
<path fill="none" stroke="#191970" d="M704.8837,-193.1925C646.6629,-183.7707 566.1127,-169.747 496,-154 491.366,-152.9592 486.5432,-151.7877 481.7515,-150.5669"/>
<polygon fill="#191970" stroke="#191970" points="482.591,-147.1688 472.0302,-148.0177 480.8154,-153.9398 482.591,-147.1688"/>
</g>
<!-- Node14&#45;&gt;Node21 -->
<g id="edge37" class="edge">
<title>Node14&#45;&gt;Node21</title>
<path fill="none" stroke="#191970" d="M865.195,-196.5705C956.9882,-186.3383 1111.8465,-169.0415 1245,-154 1269.5809,-151.2233 1296.6581,-148.1419 1320.1372,-145.4627"/>
<polygon fill="#191970" stroke="#191970" points="1320.7661,-148.9138 1330.3045,-144.302 1319.972,-141.9589 1320.7661,-148.9138"/>
</g>
<!-- Node20&#45;&gt;Node6 -->
<g id="edge36" class="edge">
<title>Node20&#45;&gt;Node6</title>
<path fill="none" stroke="#191970" d="M405.7601,-128.9005C370.1161,-118.6068 312.7192,-102.031 268.747,-89.3321"/>
<polygon fill="#191970" stroke="#191970" points="269.5942,-85.9338 259.0157,-86.5218 267.6519,-92.659 269.5942,-85.9338"/>
</g>
<!-- Node21&#45;&gt;Node8 -->
<g id="edge39" class="edge">
<title>Node21&#45;&gt;Node8</title>
<path fill="none" stroke="#191970" d="M1376.7783,-128.9626C1368.2512,-110.9979 1347.0997,-72.4714 1316,-56 1261.1092,-26.9281 822.0082,-13.8822 698.3213,-10.7615"/>
<polygon fill="#191970" stroke="#191970" points="698.0871,-7.2547 688.0034,-10.5059 697.9137,-14.2526 698.0871,-7.2547"/>
</g>
<!-- Node22 -->
<g id="node23" class="node">
<title>Node22</title>
<polygon fill="#ffffff" stroke="#bfbfbf" points="1368.5,-62 1368.5,-81 1413.5,-81 1413.5,-62 1368.5,-62"/>
<text text-anchor="middle" x="1391" y="-69" font-family="Helvetica,sans-Serif" font-size="10.00" fill="#000000">cstdlib</text>
</g>
<!-- Node21&#45;&gt;Node22 -->
<g id="edge38" class="edge">
<title>Node21&#45;&gt;Node22</title>
<path fill="none" stroke="#191970" d="M1382.4328,-128.9005C1383.9031,-119.0495 1386.2321,-103.4451 1388.0909,-90.9912"/>
<polygon fill="#191970" stroke="#191970" points="1391.5553,-91.4888 1389.5699,-81.0817 1384.632,-90.4554 1391.5553,-91.4888"/>
</g>
<!-- Node23&#45;&gt;Node8 -->
<g id="edge41" class="edge">
<title>Node23&#45;&gt;Node8</title>
<path fill="none" stroke="#191970" d="M670.5329,-313.2443C658.8744,-304.46 641.9043,-290.8378 629,-277 596.4408,-242.0857 606.1599,-215.8127 566,-190 497.7363,-146.1235 438.4136,-216.7832 387,-154 314.82,-65.8581 546.4644,-25.6557 633.9468,-13.8656"/>
<polygon fill="#191970" stroke="#191970" points="634.4092,-17.3351 643.8706,-12.5674 633.5011,-10.3942 634.4092,-17.3351"/>
</g>
<!-- Node23&#45;&gt;Node10 -->
<g id="edge45" class="edge">
<title>Node23&#45;&gt;Node10</title>
<path fill="none" stroke="#191970" d="M684.3484,-313.2455C684.6093,-305.9382 684.9752,-295.6944 685.2963,-286.7046"/>
<polygon fill="#191970" stroke="#191970" points="688.7964,-286.7613 685.6556,-276.6427 681.8008,-286.5113 688.7964,-286.7613"/>
</g>
<!-- Node24 -->
<g id="node25" class="node">
<title>Node24</title>
<polygon fill="#ffffff" stroke="#bfbfbf" points="528.5,-196 528.5,-215 557.5,-215 557.5,-196 528.5,-196"/>
<text text-anchor="middle" x="543" y="-203" font-family="Helvetica,sans-Serif" font-size="10.00" fill="#000000">list</text>
</g>
<!-- Node23&#45;&gt;Node24 -->
<g id="edge42" class="edge">
<title>Node23&#45;&gt;Node24</title>
<path fill="none" stroke="#191970" d="M652.0973,-313.4412C631.4495,-306.0362 604.9774,-294.124 586,-277 569.7679,-262.3532 557.7287,-240.1225 550.5808,-224.3425"/>
<polygon fill="#191970" stroke="#191970" points="553.7533,-222.8598 546.5951,-215.0488 547.32,-225.6188 553.7533,-222.8598"/>
</g>
<!-- Node25 -->
<g id="node26" class="node">
<title>Node25</title>
<polygon fill="#ffffff" stroke="#bfbfbf" points="757,-257.5 757,-276.5 787,-276.5 787,-257.5 757,-257.5"/>
<text text-anchor="middle" x="772" y="-264.5" font-family="Helvetica,sans-Serif" font-size="10.00" fill="#000000">set</text>
</g>
<!-- Node23&#45;&gt;Node25 -->
<g id="edge43" class="edge">
<title>Node23&#45;&gt;Node25</title>
<path fill="none" stroke="#191970" d="M699.3284,-313.2455C712.8303,-304.6534 732.7122,-292.0014 748.2686,-282.1018"/>
<polygon fill="#191970" stroke="#191970" points="750.2897,-284.9643 756.8472,-276.6427 746.5315,-279.0587 750.2897,-284.9643"/>
</g>
<!-- Node23&#45;&gt;Node26 -->
<g id="edge44" class="edge">
<title>Node23&#45;&gt;Node26</title>
<path fill="none" stroke="#191970" d="M708.9264,-313.3733C733.3382,-303.9453 770.6338,-289.5414 797.1761,-279.2906"/>
<polygon fill="#191970" stroke="#191970" points="798.7053,-282.452 806.7728,-275.5843 796.1834,-275.9221 798.7053,-282.452"/>
</g>
<!-- Node27&#45;&gt;Node4 -->
<g id="edge49" class="edge">
<title>Node27&#45;&gt;Node4</title>
<path fill="none" stroke="#191970" d="M429.6471,-332.5249C458.4823,-351.6807 516.504,-395.0573 545.3316,-418.7713"/>
<polygon fill="#191970" stroke="#191970" points="543.3696,-421.6944 553.2761,-425.4509 547.8744,-416.3365 543.3696,-421.6944"/>
</g>
<!-- Node27&#45;&gt;Node6 -->
<g id="edge50" class="edge">
<title>Node27&#45;&gt;Node6</title>
<path fill="none" stroke="#191970" d="M386.1901,-317.5536C348.4179,-309.4181 282.113,-293.2971 264,-277 211.9853,-230.2001 205.704,-140.5063 205.9798,-96.7534"/>
<polygon fill="#191970" stroke="#191970" points="209.4806,-96.7371 206.1674,-86.6737 202.4818,-96.6068 209.4806,-96.7371"/>
</g>
<!-- Node27&#45;&gt;Node8 -->
<g id="edge48" class="edge">
<title>Node27&#45;&gt;Node8</title>
<path fill="none" stroke="#191970" d="M386.1632,-316.7839C365.7229,-310.4874 338.9605,-298.5133 326,-277 309.6977,-249.9397 177.197,-229.2656 335,-56 354.9614,-34.0826 554.0349,-17.841 633.4957,-12.1828"/>
<polygon fill="#191970" stroke="#191970" points="634.152,-15.6455 643.883,-11.4551 633.6628,-8.6626 634.152,-15.6455"/>
</g>
<!-- Node27&#45;&gt;Node9 -->
<g id="edge51" class="edge">
<title>Node27&#45;&gt;Node9</title>
<path fill="none" stroke="#191970" d="M386.4714,-321.1054C313.5678,-315.6345 114.2919,-298.8017 95,-277 67.6263,-246.0651 75.6323,-194.299 83.8666,-163.577"/>
<polygon fill="#191970" stroke="#191970" points="87.3195,-164.2349 86.731,-153.6565 80.5942,-162.293 87.3195,-164.2349"/>
</g>
<!-- Node27&#45;&gt;Node10 -->
<g id="edge52" class="edge">
<title>Node27&#45;&gt;Node10</title>
<path fill="none" stroke="#191970" d="M439.6735,-317.5285C483.3396,-308.5714 571.0241,-290.5848 629.1214,-278.6674"/>
<polygon fill="#191970" stroke="#191970" points="630.1576,-282.0278 639.2503,-276.5897 628.7509,-275.1706 630.1576,-282.0278"/>
</g>
<!-- Node28 -->
<g id="node29" class="node">
<title>Node28</title>
<g id="a_node29"><a xlink:href="_o_r_bextractor_8h.html" target="_top" xlink:title="ORBextractor.h">
<polygon fill="#ffffff" stroke="#000000" points="370.5,-257.5 370.5,-276.5 455.5,-276.5 455.5,-257.5 370.5,-257.5"/>
<text text-anchor="middle" x="413" y="-264.5" font-family="Helvetica,sans-Serif" font-size="10.00" fill="#000000">ORBextractor.h</text>
</a>
</g>
</g>
<!-- Node27&#45;&gt;Node28 -->
<g id="edge53" class="edge">
<title>Node27&#45;&gt;Node28</title>
<path fill="none" stroke="#191970" d="M413,-313.2455C413,-305.9382 413,-295.6944 413,-286.7046"/>
<polygon fill="#191970" stroke="#191970" points="416.5001,-286.6426 413,-276.6427 409.5001,-286.6427 416.5001,-286.6426"/>
</g>
<!-- Node29 -->
<g id="node30" class="node">
<title>Node29</title>
<polygon fill="#ffffff" stroke="#bfbfbf" points="104.5,-257.5 104.5,-276.5 211.5,-276.5 211.5,-257.5 104.5,-257.5"/>
<text text-anchor="middle" x="158" y="-264.5" font-family="Helvetica,sans-Serif" font-size="10.00" fill="#000000">opencv2/opencv.hpp</text>
</g>
<!-- Node27&#45;&gt;Node29 -->
<g id="edge57" class="edge">
<title>Node27&#45;&gt;Node29</title>
<path fill="none" stroke="#191970" d="M386.1925,-317.1129C344.868,-308.0377 264.7976,-290.4536 211.3577,-278.7178"/>
<polygon fill="#191970" stroke="#191970" points="211.8926,-275.2519 201.3746,-276.5254 210.3911,-282.089 211.8926,-275.2519"/>
</g>
<!-- Node28&#45;&gt;Node3 -->
<g id="edge56" class="edge">
<title>Node28&#45;&gt;Node3</title>
<path fill="none" stroke="#191970" d="M421.3329,-257.3136C434.4602,-242.2672 461.0371,-212.6543 486,-190 521.8801,-157.4382 531.7602,-149.9892 572,-123 592.3705,-109.3373 616.5514,-95.6298 634.7165,-85.7953"/>
<polygon fill="#191970" stroke="#191970" points="636.4545,-88.8348 643.6153,-81.0262 633.1479,-82.665 636.4545,-88.8348"/>
</g>
<!-- Node28&#45;&gt;Node8 -->
<g id="edge54" class="edge">
<title>Node28&#45;&gt;Node8</title>
<path fill="none" stroke="#191970" d="M404.8322,-257.2604C378.4963,-224.6538 300.5564,-117.9008 354,-56 372.1547,-34.9724 557.6204,-18.374 633.7018,-12.3981"/>
<polygon fill="#191970" stroke="#191970" points="633.9822,-15.887 643.6825,-11.6261 633.4423,-8.9079 633.9822,-15.887"/>
</g>
<!-- Node28&#45;&gt;Node24 -->
<g id="edge55" class="edge">
<title>Node28&#45;&gt;Node24</title>
<path fill="none" stroke="#191970" d="M433.3125,-257.3906C456.5351,-246.4046 494.5074,-228.4407 519.1247,-216.7949"/>
<polygon fill="#191970" stroke="#191970" points="520.923,-219.8161 528.4658,-212.3758 517.9295,-213.4884 520.923,-219.8161"/>
</g>
<!-- Node30&#45;&gt;Node10 -->
<g id="edge59" class="edge">
<title>Node30&#45;&gt;Node10</title>
<path fill="none" stroke="#191970" d="M763.6264,-313.2455C749.0692,-304.5731 727.569,-291.7645 710.8848,-281.825"/>
<polygon fill="#191970" stroke="#191970" points="712.5683,-278.7539 702.1859,-276.6427 708.9856,-284.7676 712.5683,-278.7539"/>
</g>
<!-- Node30&#45;&gt;Node25 -->
<g id="edge60" class="edge">
<title>Node30&#45;&gt;Node25</title>
<path fill="none" stroke="#191970" d="M778.6065,-313.2455C777.5626,-305.9382 776.0992,-295.6944 774.8149,-286.7046"/>
<polygon fill="#191970" stroke="#191970" points="778.2566,-286.0472 773.3775,-276.6427 771.327,-287.0372 778.2566,-286.0472"/>
</g>
<!-- Node30&#45;&gt;Node26 -->
<g id="edge61" class="edge">
<title>Node30&#45;&gt;Node26</title>
<path fill="none" stroke="#191970" d="M788.5351,-313.2455C795.4912,-305.2958 805.4883,-293.8706 813.8051,-284.3656"/>
<polygon fill="#191970" stroke="#191970" points="816.6116,-286.4732 820.5627,-276.6427 811.3436,-281.8637 816.6116,-286.4732"/>
</g>
</g>
</svg>
