<?xml version="1.0" encoding="UTF-8" standalone="no"?>
<!DOCTYPE svg PUBLIC "-//W3C//DTD SVG 1.1//EN"
 "http://www.w3.org/Graphics/SVG/1.1/DTD/svg11.dtd">
<!-- Generated by graphviz version 2.38.0 (20140413.2041)
 -->
<!-- Title: /home/alejandro/Desarrollo eclipse/os1/include/PnPsolver.h Pages: 1 -->
<svg width="1331pt" height="587pt"
 viewBox="0.00 0.00 1330.50 587.00" xmlns="http://www.w3.org/2000/svg" xmlns:xlink="http://www.w3.org/1999/xlink">
<g id="graph0" class="graph" transform="scale(1 1) rotate(0) translate(4 583)">
<title>/home/alejandro/Desarrollo eclipse/os1/include/PnPsolver.h</title>
<polygon fill="white" stroke="none" points="-4,4 -4,-583 1326.5,-583 1326.5,4 -4,4"/>
<!-- Node0 -->
<g id="node1" class="node"><title>Node0</title>
<polygon fill="#bfbfbf" stroke="black" points="371.5,-548.5 371.5,-578.5 530.5,-578.5 530.5,-548.5 371.5,-548.5"/>
<text text-anchor="start" x="379.5" y="-566.5" font-family="Helvetica,sans-Serif" font-size="10.00">/home/alejandro/Desarrollo</text>
<text text-anchor="middle" x="451" y="-555.5" font-family="Helvetica,sans-Serif" font-size="10.00"> eclipse/os1/include/PnPsolver.h</text>
</g>
<!-- Node1 -->
<g id="node2" class="node"><title>Node1</title>
<polygon fill="white" stroke="#bfbfbf" points="172,-62 172,-81 288,-81 288,-62 172,-62"/>
<text text-anchor="middle" x="230" y="-69" font-family="Helvetica,sans-Serif" font-size="10.00">opencv2/core/core.hpp</text>
</g>
<!-- Node0&#45;&gt;Node1 -->
<g id="edge1" class="edge"><title>Node0&#45;&gt;Node1</title>
<path fill="none" stroke="midnightblue" d="M371.408,-558.393C241.935,-549.51 0,-522.774 0,-447 0,-447 0,-447 0,-266 0,-189.698 35.1292,-170.302 95,-123 119.114,-103.948 151.16,-91.5539 177.979,-83.8139"/>
<polygon fill="midnightblue" stroke="midnightblue" points="179.257,-87.0928 187.974,-81.0712 177.404,-80.3423 179.257,-87.0928"/>
</g>
<!-- Node2 -->
<g id="node3" class="node"><title>Node2</title>
<g id="a_node3"><a xlink:href="_map_point_8h.html" target="_top" xlink:title="MapPoint.h">
<polygon fill="white" stroke="black" points="418,-492.5 418,-511.5 484,-511.5 484,-492.5 418,-492.5"/>
<text text-anchor="middle" x="451" y="-499.5" font-family="Helvetica,sans-Serif" font-size="10.00">MapPoint.h</text>
</a>
</g>
</g>
<!-- Node0&#45;&gt;Node2 -->
<g id="edge2" class="edge"><title>Node0&#45;&gt;Node2</title>
<path fill="none" stroke="midnightblue" d="M451,-548.399C451,-540.466 451,-530.458 451,-521.858"/>
<polygon fill="midnightblue" stroke="midnightblue" points="454.5,-521.658 451,-511.658 447.5,-521.658 454.5,-521.658"/>
</g>
<!-- Node24 -->
<g id="node25" class="node"><title>Node24</title>
<g id="a_node25"><a xlink:href="_frame_8h.html" target="_top" xlink:title="Frame.h">
<polygon fill="white" stroke="black" points="843.5,-313.5 843.5,-332.5 896.5,-332.5 896.5,-313.5 843.5,-313.5"/>
<text text-anchor="middle" x="870" y="-320.5" font-family="Helvetica,sans-Serif" font-size="10.00">Frame.h</text>
</a>
</g>
</g>
<!-- Node0&#45;&gt;Node24 -->
<g id="edge72" class="edge"><title>Node0&#45;&gt;Node24</title>
<path fill="none" stroke="midnightblue" d="M530.597,-553.947C623.232,-539.441 773.273,-500.924 850,-400 862.613,-383.409 867.295,-359.559 869.019,-343.02"/>
<polygon fill="midnightblue" stroke="midnightblue" points="872.519,-343.157 869.802,-332.916 865.54,-342.616 872.519,-343.157"/>
</g>
<!-- Node2&#45;&gt;Node1 -->
<g id="edge69" class="edge"><title>Node2&#45;&gt;Node1</title>
<path fill="none" stroke="midnightblue" d="M417.901,-498.88C319.897,-491.708 38,-464.234 38,-385.5 38,-385.5 38,-385.5 38,-322 38,-225.113 59.7104,-192.708 127,-123 144.314,-105.064 169.322,-92.5941 190.361,-84.5333"/>
<polygon fill="midnightblue" stroke="midnightblue" points="191.805,-87.7325 200.011,-81.031 189.417,-81.1524 191.805,-87.7325"/>
</g>
<!-- Node3 -->
<g id="node4" class="node"><title>Node3</title>
<g id="a_node4"><a xlink:href="_key_frame_8h.html" target="_top" xlink:title="KeyFrame.h">
<polygon fill="white" stroke="black" points="600,-436.5 600,-455.5 670,-455.5 670,-436.5 600,-436.5"/>
<text text-anchor="middle" x="635" y="-443.5" font-family="Helvetica,sans-Serif" font-size="10.00">KeyFrame.h</text>
</a>
</g>
</g>
<!-- Node2&#45;&gt;Node3 -->
<g id="edge3" class="edge"><title>Node2&#45;&gt;Node3</title>
<path fill="none" stroke="midnightblue" d="M475.067,-492.444C504.532,-483.201 554.672,-468.436 591.038,-458.257"/>
<polygon fill="midnightblue" stroke="midnightblue" points="592.203,-461.566 600.901,-455.516 590.329,-454.822 592.203,-461.566"/>
</g>
<!-- Node2&#45;&gt;Node24 -->
<g id="edge61" class="edge"><title>Node2&#45;&gt;Node24</title>
<path fill="none" stroke="midnightblue" d="M484.2,-499.524C551.332,-494.958 704.447,-476.286 803,-400 824.041,-383.713 841.474,-358.021 853.777,-341.09"/>
<polygon fill="midnightblue" stroke="midnightblue" points="856.87,-342.799 860.075,-332.701 851.272,-338.597 856.87,-342.799"/>
</g>
<!-- Node28 -->
<g id="node29" class="node"><title>Node28</title>
<polygon fill="white" stroke="#bfbfbf" points="429,-313.5 429,-332.5 473,-332.5 473,-313.5 429,-313.5"/>
<text text-anchor="middle" x="451" y="-320.5" font-family="Helvetica,sans-Serif" font-size="10.00">mutex</text>
</g>
<!-- Node2&#45;&gt;Node28 -->
<g id="edge70" class="edge"><title>Node2&#45;&gt;Node28</title>
<path fill="none" stroke="midnightblue" d="M451,-492.463C451,-465.428 451,-381.239 451,-343.109"/>
<polygon fill="midnightblue" stroke="midnightblue" points="454.5,-342.868 451,-332.868 447.5,-342.868 454.5,-342.868"/>
</g>
<!-- Node29 -->
<g id="node30" class="node"><title>Node29</title>
<g id="a_node30"><a xlink:href="_serializer_8h.html" target="_top" xlink:title="Serializer.h">
<polygon fill="white" stroke="black" points="244.5,-375 244.5,-394 309.5,-394 309.5,-375 244.5,-375"/>
<text text-anchor="middle" x="277" y="-382" font-family="Helvetica,sans-Serif" font-size="10.00">Serializer.h</text>
</a>
</g>
</g>
<!-- Node2&#45;&gt;Node29 -->
<g id="edge68" class="edge"><title>Node2&#45;&gt;Node29</title>
<path fill="none" stroke="midnightblue" d="M437.922,-492.319C408.195,-472.586 335.3,-424.199 298.704,-399.907"/>
<polygon fill="midnightblue" stroke="midnightblue" points="300.497,-396.896 290.23,-394.282 296.626,-402.729 300.497,-396.896"/>
</g>
<!-- Node30 -->
<g id="node31" class="node"><title>Node30</title>
<polygon fill="white" stroke="#bfbfbf" points="327.5,-369.5 327.5,-399.5 422.5,-399.5 422.5,-369.5 327.5,-369.5"/>
<text text-anchor="start" x="335.5" y="-387.5" font-family="Helvetica,sans-Serif" font-size="10.00">boost/serialization</text>
<text text-anchor="middle" x="375" y="-376.5" font-family="Helvetica,sans-Serif" font-size="10.00">/access.hpp</text>
</g>
<!-- Node2&#45;&gt;Node30 -->
<g id="edge71" class="edge"><title>Node2&#45;&gt;Node30</title>
<path fill="none" stroke="midnightblue" d="M445.288,-492.319C433.615,-474.579 406.704,-433.682 389.773,-407.951"/>
<polygon fill="midnightblue" stroke="midnightblue" points="392.663,-405.975 384.242,-399.545 386.815,-409.823 392.663,-405.975"/>
</g>
<!-- Node31 -->
<g id="node32" class="node"><title>Node31</title>
<g id="a_node32"><a xlink:href="_map_8h.html" target="_top" xlink:title="Map.h">
<polygon fill="white" stroke="black" points="225,-436.5 225,-455.5 269,-455.5 269,-436.5 225,-436.5"/>
<text text-anchor="middle" x="247" y="-443.5" font-family="Helvetica,sans-Serif" font-size="10.00">Map.h</text>
</a>
</g>
</g>
<!-- Node2&#45;&gt;Node31 -->
<g id="edge62" class="edge"><title>Node2&#45;&gt;Node31</title>
<path fill="none" stroke="midnightblue" d="M418.676,-492.444C380.474,-482.331 317.294,-465.607 279.163,-455.514"/>
<polygon fill="midnightblue" stroke="midnightblue" points="279.676,-452.029 269.113,-452.854 277.885,-458.796 279.676,-452.029"/>
</g>
<!-- Node3&#45;&gt;Node2 -->
<g id="edge4" class="edge"><title>Node3&#45;&gt;Node2</title>
<path fill="none" stroke="midnightblue" d="M611.091,-455.507C581.46,-464.805 530.751,-479.735 494.267,-489.937"/>
<polygon fill="midnightblue" stroke="midnightblue" points="493.082,-486.634 484.383,-492.681 494.955,-493.379 493.082,-486.634"/>
</g>
<!-- Node4 -->
<g id="node5" class="node"><title>Node4</title>
<g id="a_node5"><a xlink:href="_bow_vector_8h.html" target="_top" xlink:title="../Thirdparty/DBoW2\l/DBoW2/BowVector.h">
<polygon fill="white" stroke="black" points="1079.5,-56.5 1079.5,-86.5 1192.5,-86.5 1192.5,-56.5 1079.5,-56.5"/>
<text text-anchor="start" x="1087.5" y="-74.5" font-family="Helvetica,sans-Serif" font-size="10.00">../Thirdparty/DBoW2</text>
<text text-anchor="middle" x="1136" y="-63.5" font-family="Helvetica,sans-Serif" font-size="10.00">/DBoW2/BowVector.h</text>
</a>
</g>
</g>
<!-- Node3&#45;&gt;Node4 -->
<g id="edge5" class="edge"><title>Node3&#45;&gt;Node4</title>
<path fill="none" stroke="midnightblue" d="M670.339,-444.734C791.108,-442.885 1180,-428.797 1180,-324 1180,-324 1180,-324 1180,-266 1180,-203.601 1157.98,-132.639 1145.09,-96.4643"/>
<polygon fill="midnightblue" stroke="midnightblue" points="1148.29,-95.0074 1141.57,-86.8104 1141.71,-97.4044 1148.29,-95.0074"/>
</g>
<!-- Node8 -->
<g id="node9" class="node"><title>Node8</title>
<g id="a_node9"><a xlink:href="_feature_vector_8h.html" target="_top" xlink:title="../Thirdparty/DBoW2\l/DBoW2/FeatureVector.h">
<polygon fill="white" stroke="black" points="1195.5,-123.5 1195.5,-153.5 1322.5,-153.5 1322.5,-123.5 1195.5,-123.5"/>
<text text-anchor="start" x="1203.5" y="-141.5" font-family="Helvetica,sans-Serif" font-size="10.00">../Thirdparty/DBoW2</text>
<text text-anchor="middle" x="1259" y="-130.5" font-family="Helvetica,sans-Serif" font-size="10.00">/DBoW2/FeatureVector.h</text>
</a>
</g>
</g>
<!-- Node3&#45;&gt;Node8 -->
<g id="edge9" class="edge"><title>Node3&#45;&gt;Node8</title>
<path fill="none" stroke="midnightblue" d="M670.351,-443.93C786.099,-440.183 1148.9,-426.427 1194,-400 1229.1,-379.434 1245,-364.678 1245,-324 1245,-324 1245,-324 1245,-266 1245,-230.392 1250.55,-189.486 1254.66,-164.063"/>
<polygon fill="midnightblue" stroke="midnightblue" points="1258.17,-164.302 1256.37,-153.861 1251.26,-163.146 1258.17,-164.302"/>
</g>
<!-- Node9 -->
<g id="node10" class="node"><title>Node9</title>
<g id="a_node10"><a xlink:href="_o_r_b_vocabulary_8h.html" target="_top" xlink:title="ORBVocabulary.h">
<polygon fill="white" stroke="black" points="629.5,-257.5 629.5,-276.5 724.5,-276.5 724.5,-257.5 629.5,-257.5"/>
<text text-anchor="middle" x="677" y="-264.5" font-family="Helvetica,sans-Serif" font-size="10.00">ORBVocabulary.h</text>
</a>
</g>
</g>
<!-- Node3&#45;&gt;Node9 -->
<g id="edge14" class="edge"><title>Node3&#45;&gt;Node9</title>
<path fill="none" stroke="midnightblue" d="M670.078,-440.413C694.756,-435.154 726.11,-423.92 742,-400 768.243,-360.493 722.227,-308.857 694.963,-283.468"/>
<polygon fill="midnightblue" stroke="midnightblue" points="697.293,-280.856 687.525,-276.753 692.603,-286.052 697.293,-280.856"/>
</g>
<!-- Node22 -->
<g id="node23" class="node"><title>Node22</title>
<g id="a_node23"><a xlink:href="_o_r_bextractor_8h.html" target="_top" xlink:title="ORBextractor.h">
<polygon fill="white" stroke="black" points="479.5,-375 479.5,-394 564.5,-394 564.5,-375 479.5,-375"/>
<text text-anchor="middle" x="522" y="-382" font-family="Helvetica,sans-Serif" font-size="10.00">ORBextractor.h</text>
</a>
</g>
</g>
<!-- Node3&#45;&gt;Node22 -->
<g id="edge39" class="edge"><title>Node3&#45;&gt;Node22</title>
<path fill="none" stroke="midnightblue" d="M618.81,-436.475C600.098,-426.622 569.077,-410.288 547.201,-398.77"/>
<polygon fill="midnightblue" stroke="midnightblue" points="548.639,-395.571 538.16,-394.009 545.378,-401.765 548.639,-395.571"/>
</g>
<!-- Node3&#45;&gt;Node24 -->
<g id="edge43" class="edge"><title>Node3&#45;&gt;Node24</title>
<path fill="none" stroke="midnightblue" d="M670.071,-437.492C699.278,-430.373 741.375,-418.059 775,-400 805.82,-383.447 836.527,-356.499 854.366,-339.537"/>
<polygon fill="midnightblue" stroke="midnightblue" points="856.863,-341.991 861.61,-332.519 851.992,-336.963 856.863,-341.991"/>
</g>
<!-- Node26 -->
<g id="node27" class="node"><title>Node26</title>
<g id="a_node27"><a xlink:href="_key_frame_database_8h.html" target="_top" xlink:title="KeyFrameDatabase.h">
<polygon fill="white" stroke="black" points="621,-375 621,-394 733,-394 733,-375 621,-375"/>
<text text-anchor="middle" x="677" y="-382" font-family="Helvetica,sans-Serif" font-size="10.00">KeyFrameDatabase.h</text>
</a>
</g>
</g>
<!-- Node3&#45;&gt;Node26 -->
<g id="edge50" class="edge"><title>Node3&#45;&gt;Node26</title>
<path fill="none" stroke="midnightblue" d="M636.117,-436.475C640.513,-427.462 650.306,-413.025 659.389,-401.812"/>
<polygon fill="midnightblue" stroke="midnightblue" points="662.232,-403.874 666.096,-394.009 656.924,-399.311 662.232,-403.874"/>
</g>
<!-- Node3&#45;&gt;Node28 -->
<g id="edge59" class="edge"><title>Node3&#45;&gt;Node28</title>
<path fill="none" stroke="midnightblue" d="M630.013,-436.198C620.73,-420.556 599.333,-387.797 573,-369 558.225,-358.453 513.867,-343.399 482.926,-333.662"/>
<polygon fill="midnightblue" stroke="midnightblue" points="483.597,-330.206 473.009,-330.578 481.518,-336.89 483.597,-330.206"/>
</g>
<!-- Node3&#45;&gt;Node29 -->
<g id="edge58" class="edge"><title>Node3&#45;&gt;Node29</title>
<path fill="none" stroke="midnightblue" d="M599.856,-442.31C540.912,-437.289 418.686,-424.69 318,-400 314.945,-399.251 311.799,-398.362 308.672,-397.398"/>
<polygon fill="midnightblue" stroke="midnightblue" points="309.478,-393.978 298.885,-394.145 307.27,-400.62 309.478,-393.978"/>
</g>
<!-- Node3&#45;&gt;Node30 -->
<g id="edge60" class="edge"><title>Node3&#45;&gt;Node30</title>
<path fill="none" stroke="midnightblue" d="M599.935,-436.976C557.052,-427.162 483.866,-410.414 432.655,-398.694"/>
<polygon fill="midnightblue" stroke="midnightblue" points="433.25,-395.24 422.721,-396.421 431.688,-402.063 433.25,-395.24"/>
</g>
<!-- Node5 -->
<g id="node6" class="node"><title>Node5</title>
<polygon fill="white" stroke="#bfbfbf" points="1133,-0.5 1133,-19.5 1187,-19.5 1187,-0.5 1133,-0.5"/>
<text text-anchor="middle" x="1160" y="-7.5" font-family="Helvetica,sans-Serif" font-size="10.00">iostream</text>
</g>
<!-- Node4&#45;&gt;Node5 -->
<g id="edge6" class="edge"><title>Node4&#45;&gt;Node5</title>
<path fill="none" stroke="midnightblue" d="M1141.69,-56.3993C1145,-48.1989 1149.2,-37.7809 1152.74,-28.9936"/>
<polygon fill="midnightblue" stroke="midnightblue" points="1156.01,-30.2411 1156.51,-19.6578 1149.52,-27.6225 1156.01,-30.2411"/>
</g>
<!-- Node6 -->
<g id="node7" class="node"><title>Node6</title>
<polygon fill="white" stroke="#bfbfbf" points="1254.5,-0.5 1254.5,-19.5 1289.5,-19.5 1289.5,-0.5 1254.5,-0.5"/>
<text text-anchor="middle" x="1272" y="-7.5" font-family="Helvetica,sans-Serif" font-size="10.00">map</text>
</g>
<!-- Node4&#45;&gt;Node6 -->
<g id="edge7" class="edge"><title>Node4&#45;&gt;Node6</title>
<path fill="none" stroke="midnightblue" d="M1168.23,-56.3993C1191.53,-46.2074 1222.65,-32.5898 1244.72,-22.935"/>
<polygon fill="midnightblue" stroke="midnightblue" points="1246.4,-26.0192 1254.16,-18.8044 1243.6,-19.6061 1246.4,-26.0192"/>
</g>
<!-- Node7 -->
<g id="node8" class="node"><title>Node7</title>
<polygon fill="white" stroke="#bfbfbf" points="432,-0.5 432,-19.5 476,-19.5 476,-0.5 432,-0.5"/>
<text text-anchor="middle" x="454" y="-7.5" font-family="Helvetica,sans-Serif" font-size="10.00">vector</text>
</g>
<!-- Node4&#45;&gt;Node7 -->
<g id="edge8" class="edge"><title>Node4&#45;&gt;Node7</title>
<path fill="none" stroke="midnightblue" d="M1079.14,-58.2218C1074.37,-57.3944 1069.61,-56.638 1065,-56 845.047,-25.5675 577.507,-14.8438 486.264,-11.9225"/>
<polygon fill="midnightblue" stroke="midnightblue" points="486.13,-8.41675 476.026,-11.6041 485.913,-15.4134 486.13,-8.41675"/>
</g>
<!-- Node8&#45;&gt;Node4 -->
<g id="edge10" class="edge"><title>Node8&#45;&gt;Node4</title>
<path fill="none" stroke="midnightblue" d="M1232.31,-123.396C1214.5,-113.984 1190.88,-101.503 1171.49,-91.2557"/>
<polygon fill="midnightblue" stroke="midnightblue" points="1173.11,-88.1543 1162.64,-86.5765 1169.84,-94.3433 1173.11,-88.1543"/>
</g>
<!-- Node8&#45;&gt;Node5 -->
<g id="edge13" class="edge"><title>Node8&#45;&gt;Node5</title>
<path fill="none" stroke="midnightblue" d="M1257.96,-123.416C1256.02,-105.96 1250.52,-76.0673 1235,-56 1224.1,-41.9106 1207.44,-31.2849 1192.59,-23.9068"/>
<polygon fill="midnightblue" stroke="midnightblue" points="1193.72,-20.5692 1183.17,-19.5236 1190.76,-26.9158 1193.72,-20.5692"/>
</g>
<!-- Node8&#45;&gt;Node6 -->
<g id="edge11" class="edge"><title>Node8&#45;&gt;Node6</title>
<path fill="none" stroke="midnightblue" d="M1264.1,-123.133C1267.37,-113.143 1271.31,-99.4407 1273,-87 1274.86,-73.348 1273.15,-69.7769 1273,-56 1272.9,-47.3961 1272.71,-37.8686 1272.51,-29.8037"/>
<polygon fill="midnightblue" stroke="midnightblue" points="1276.01,-29.5323 1272.25,-19.6259 1269.01,-29.7128 1276.01,-29.5323"/>
</g>
<!-- Node8&#45;&gt;Node7 -->
<g id="edge12" class="edge"><title>Node8&#45;&gt;Node7</title>
<path fill="none" stroke="midnightblue" d="M1253.52,-123.265C1245.32,-104.159 1227.88,-70.9047 1201,-56 1137.87,-21 621.418,-12.8552 486.268,-11.3154"/>
<polygon fill="midnightblue" stroke="midnightblue" points="486.182,-7.81436 476.144,-11.2045 486.105,-14.8139 486.182,-7.81436"/>
</g>
<!-- Node10 -->
<g id="node11" class="node"><title>Node10</title>
<g id="a_node11"><a xlink:href="_f_o_r_b_8h.html" target="_top" xlink:title="../Thirdparty/DBoW2\l/DBoW2/FORB.h">
<polygon fill="white" stroke="black" points="286.5,-190.5 286.5,-220.5 393.5,-220.5 393.5,-190.5 286.5,-190.5"/>
<text text-anchor="start" x="294.5" y="-208.5" font-family="Helvetica,sans-Serif" font-size="10.00">../Thirdparty/DBoW2</text>
<text text-anchor="middle" x="340" y="-197.5" font-family="Helvetica,sans-Serif" font-size="10.00">/DBoW2/FORB.h</text>
</a>
</g>
</g>
<!-- Node9&#45;&gt;Node10 -->
<g id="edge15" class="edge"><title>Node9&#45;&gt;Node10</title>
<path fill="none" stroke="midnightblue" d="M629.431,-257.601C570.445,-247.187 469.672,-229.395 403.962,-217.793"/>
<polygon fill="midnightblue" stroke="midnightblue" points="404.185,-214.278 393.728,-215.986 402.967,-221.172 404.185,-214.278"/>
</g>
<!-- Node13 -->
<g id="node14" class="node"><title>Node13</title>
<g id="a_node14"><a xlink:href="_templated_vocabulary_8h.html" target="_top" xlink:title="../Thirdparty/DBoW2\l/DBoW2/TemplatedVocabulary.h">
<polygon fill="white" stroke="black" points="597,-190.5 597,-220.5 757,-220.5 757,-190.5 597,-190.5"/>
<text text-anchor="start" x="605" y="-208.5" font-family="Helvetica,sans-Serif" font-size="10.00">../Thirdparty/DBoW2</text>
<text text-anchor="middle" x="677" y="-197.5" font-family="Helvetica,sans-Serif" font-size="10.00">/DBoW2/TemplatedVocabulary.h</text>
</a>
</g>
</g>
<!-- Node9&#45;&gt;Node13 -->
<g id="edge23" class="edge"><title>Node9&#45;&gt;Node13</title>
<path fill="none" stroke="midnightblue" d="M677,-257.475C677,-250.471 677,-240.192 677,-230.696"/>
<polygon fill="midnightblue" stroke="midnightblue" points="680.5,-230.523 677,-220.523 673.5,-230.523 680.5,-230.523"/>
</g>
<!-- Node10&#45;&gt;Node1 -->
<g id="edge16" class="edge"><title>Node10&#45;&gt;Node1</title>
<path fill="none" stroke="midnightblue" d="M286.463,-197.212C259.964,-190.604 230.243,-178.009 214,-154 201.099,-134.931 210.514,-107.946 219.427,-90.3366"/>
<polygon fill="midnightblue" stroke="midnightblue" points="222.707,-91.6341 224.445,-81.1826 216.569,-88.2696 222.707,-91.6341"/>
</g>
<!-- Node10&#45;&gt;Node7 -->
<g id="edge17" class="edge"><title>Node10&#45;&gt;Node7</title>
<path fill="none" stroke="midnightblue" d="M348.383,-190.271C368.868,-155.5 421.422,-66.2972 443.734,-28.4248"/>
<polygon fill="midnightblue" stroke="midnightblue" points="446.886,-29.9694 448.947,-19.5769 440.855,-26.4162 446.886,-29.9694"/>
</g>
<!-- Node11 -->
<g id="node12" class="node"><title>Node11</title>
<polygon fill="white" stroke="#bfbfbf" points="344.5,-62 344.5,-81 385.5,-81 385.5,-62 344.5,-62"/>
<text text-anchor="middle" x="365" y="-69" font-family="Helvetica,sans-Serif" font-size="10.00">string</text>
</g>
<!-- Node10&#45;&gt;Node11 -->
<g id="edge18" class="edge"><title>Node10&#45;&gt;Node11</title>
<path fill="none" stroke="midnightblue" d="M342.675,-190.374C347.216,-166.397 356.43,-117.748 361.486,-91.0561"/>
<polygon fill="midnightblue" stroke="midnightblue" points="364.95,-91.5739 363.372,-81.0973 358.072,-90.2713 364.95,-91.5739"/>
</g>
<!-- Node12 -->
<g id="node13" class="node"><title>Node12</title>
<g id="a_node13"><a xlink:href="_f_class_8h.html" target="_top" xlink:title="FClass.h">
<polygon fill="white" stroke="black" points="256,-129 256,-148 312,-148 312,-129 256,-129"/>
<text text-anchor="middle" x="284" y="-136" font-family="Helvetica,sans-Serif" font-size="10.00">FClass.h</text>
</a>
</g>
</g>
<!-- Node10&#45;&gt;Node12 -->
<g id="edge19" class="edge"><title>Node10&#45;&gt;Node12</title>
<path fill="none" stroke="midnightblue" d="M327.849,-190.396C319.117,-180.261 307.32,-166.567 298.161,-155.937"/>
<polygon fill="midnightblue" stroke="midnightblue" points="300.669,-153.486 291.491,-148.195 295.366,-158.055 300.669,-153.486"/>
</g>
<!-- Node12&#45;&gt;Node1 -->
<g id="edge20" class="edge"><title>Node12&#45;&gt;Node1</title>
<path fill="none" stroke="midnightblue" d="M276.717,-128.734C268.297,-118.598 254.25,-101.69 243.754,-89.0556"/>
<polygon fill="midnightblue" stroke="midnightblue" points="246.25,-86.5826 237.167,-81.1273 240.865,-91.0558 246.25,-86.5826"/>
</g>
<!-- Node12&#45;&gt;Node7 -->
<g id="edge21" class="edge"><title>Node12&#45;&gt;Node7</title>
<path fill="none" stroke="midnightblue" d="M287.321,-128.575C293.92,-112.001 310.214,-76.3148 335,-56 360.224,-35.3262 395.939,-23.5304 421.652,-17.2491"/>
<polygon fill="midnightblue" stroke="midnightblue" points="422.69,-20.602 431.656,-14.958 421.127,-13.7786 422.69,-20.602"/>
</g>
<!-- Node12&#45;&gt;Node11 -->
<g id="edge22" class="edge"><title>Node12&#45;&gt;Node11</title>
<path fill="none" stroke="midnightblue" d="M294.924,-128.734C308.041,-118.208 330.258,-100.379 346.161,-87.6174"/>
<polygon fill="midnightblue" stroke="midnightblue" points="348.64,-90.1158 354.249,-81.1273 344.259,-84.6563 348.64,-90.1158"/>
</g>
<!-- Node13&#45;&gt;Node1 -->
<g id="edge30" class="edge"><title>Node13&#45;&gt;Node1</title>
<path fill="none" stroke="midnightblue" d="M596.791,-200.097C479.491,-192.915 272.267,-177.119 247,-154 229.787,-138.251 227.522,-109.961 228.198,-91.206"/>
<polygon fill="midnightblue" stroke="midnightblue" points="231.692,-91.4063 228.868,-81.1948 224.708,-90.9387 231.692,-91.4063"/>
</g>
<!-- Node13&#45;&gt;Node4 -->
<g id="edge33" class="edge"><title>Node13&#45;&gt;Node4</title>
<path fill="none" stroke="midnightblue" d="M658.988,-190.325C639.144,-173.043 612.357,-143.6 631,-123 659.854,-91.1168 938.353,-78.4938 1068.98,-74.2968"/>
<polygon fill="midnightblue" stroke="midnightblue" points="1069.38,-77.7862 1079.26,-73.9741 1069.16,-70.7896 1069.38,-77.7862"/>
</g>
<!-- Node13&#45;&gt;Node7 -->
<g id="edge25" class="edge"><title>Node13&#45;&gt;Node7</title>
<path fill="none" stroke="midnightblue" d="M596.817,-194.025C547.13,-185.824 489.699,-172.656 473,-154 442.044,-119.417 445.95,-59.9637 450.467,-29.7721"/>
<polygon fill="midnightblue" stroke="midnightblue" points="453.946,-30.1891 452.156,-19.7465 447.043,-29.0259 453.946,-30.1891"/>
</g>
<!-- Node13&#45;&gt;Node8 -->
<g id="edge32" class="edge"><title>Node13&#45;&gt;Node8</title>
<path fill="none" stroke="midnightblue" d="M757.009,-195.564C870.161,-182.927 1075.35,-160.011 1185.09,-147.755"/>
<polygon fill="midnightblue" stroke="midnightblue" points="1185.53,-151.227 1195.08,-146.639 1184.75,-144.271 1185.53,-151.227"/>
</g>
<!-- Node13&#45;&gt;Node11 -->
<g id="edge28" class="edge"><title>Node13&#45;&gt;Node11</title>
<path fill="none" stroke="midnightblue" d="M596.904,-199.67C548.808,-193.892 487.87,-181.308 440,-154 412.138,-138.106 388.741,-108.319 375.821,-89.4948"/>
<polygon fill="midnightblue" stroke="midnightblue" points="378.64,-87.4137 370.198,-81.0122 372.806,-91.2812 378.64,-87.4137"/>
</g>
<!-- Node14 -->
<g id="node15" class="node"><title>Node14</title>
<polygon fill="white" stroke="#bfbfbf" points="640.5,-129 640.5,-148 689.5,-148 689.5,-129 640.5,-129"/>
<text text-anchor="middle" x="665" y="-136" font-family="Helvetica,sans-Serif" font-size="10.00">cassert</text>
</g>
<!-- Node13&#45;&gt;Node14 -->
<g id="edge24" class="edge"><title>Node13&#45;&gt;Node14</title>
<path fill="none" stroke="midnightblue" d="M674.396,-190.396C672.655,-180.963 670.344,-168.448 668.45,-158.189"/>
<polygon fill="midnightblue" stroke="midnightblue" points="671.863,-157.393 666.605,-148.195 664.979,-158.664 671.863,-157.393"/>
</g>
<!-- Node15 -->
<g id="node16" class="node"><title>Node15</title>
<polygon fill="white" stroke="#bfbfbf" points="707.5,-129 707.5,-148 758.5,-148 758.5,-129 707.5,-129"/>
<text text-anchor="middle" x="733" y="-136" font-family="Helvetica,sans-Serif" font-size="10.00">numeric</text>
</g>
<!-- Node13&#45;&gt;Node15 -->
<g id="edge26" class="edge"><title>Node13&#45;&gt;Node15</title>
<path fill="none" stroke="midnightblue" d="M689.151,-190.396C697.883,-180.261 709.68,-166.567 718.839,-155.937"/>
<polygon fill="midnightblue" stroke="midnightblue" points="721.634,-158.055 725.509,-148.195 716.331,-153.486 721.634,-158.055"/>
</g>
<!-- Node16 -->
<g id="node17" class="node"><title>Node16</title>
<polygon fill="white" stroke="#bfbfbf" points="777,-129 777,-148 827,-148 827,-129 777,-129"/>
<text text-anchor="middle" x="802" y="-136" font-family="Helvetica,sans-Serif" font-size="10.00">fstream</text>
</g>
<!-- Node13&#45;&gt;Node16 -->
<g id="edge27" class="edge"><title>Node13&#45;&gt;Node16</title>
<path fill="none" stroke="midnightblue" d="M704.123,-190.396C725.668,-179.193 755.575,-163.641 776.644,-152.685"/>
<polygon fill="midnightblue" stroke="midnightblue" points="778.383,-155.726 785.64,-148.007 775.153,-149.515 778.383,-155.726"/>
</g>
<!-- Node17 -->
<g id="node18" class="node"><title>Node17</title>
<polygon fill="white" stroke="#bfbfbf" points="845,-129 845,-148 901,-148 901,-129 845,-129"/>
<text text-anchor="middle" x="873" y="-136" font-family="Helvetica,sans-Serif" font-size="10.00">algorithm</text>
</g>
<!-- Node13&#45;&gt;Node17 -->
<g id="edge29" class="edge"><title>Node13&#45;&gt;Node17</title>
<path fill="none" stroke="midnightblue" d="M723.884,-190.499C755.692,-180.783 798.599,-167.252 836,-154 838.114,-153.251 840.287,-152.459 842.47,-151.646"/>
<polygon fill="midnightblue" stroke="midnightblue" points="843.865,-154.86 851.959,-148.023 841.368,-148.32 843.865,-154.86"/>
</g>
<!-- Node18 -->
<g id="node19" class="node"><title>Node18</title>
<polygon fill="white" stroke="#bfbfbf" points="919,-129 919,-148 959,-148 959,-129 919,-129"/>
<text text-anchor="middle" x="939" y="-136" font-family="Helvetica,sans-Serif" font-size="10.00">limits</text>
</g>
<!-- Node13&#45;&gt;Node18 -->
<g id="edge31" class="edge"><title>Node13&#45;&gt;Node18</title>
<path fill="none" stroke="midnightblue" d="M757.095,-192.253C802.687,-184.023 860.418,-171.458 910,-154 911.427,-153.498 912.874,-152.941 914.321,-152.347"/>
<polygon fill="midnightblue" stroke="midnightblue" points="916.03,-155.414 923.66,-148.063 913.111,-149.051 916.03,-155.414"/>
</g>
<!-- Node19 -->
<g id="node20" class="node"><title>Node19</title>
<g id="a_node20"><a xlink:href="_scoring_object_8h.html" target="_top" xlink:title="ScoringObject.h">
<polygon fill="white" stroke="black" points="977,-129 977,-148 1063,-148 1063,-129 977,-129"/>
<text text-anchor="middle" x="1020" y="-136" font-family="Helvetica,sans-Serif" font-size="10.00">ScoringObject.h</text>
</a>
</g>
</g>
<!-- Node13&#45;&gt;Node19 -->
<g id="edge34" class="edge"><title>Node13&#45;&gt;Node19</title>
<path fill="none" stroke="midnightblue" d="M757.091,-192.812C815.783,-183.712 897.223,-169.967 968,-154 972.387,-153.01 976.956,-151.882 981.485,-150.702"/>
<polygon fill="midnightblue" stroke="midnightblue" points="982.506,-154.052 991.25,-148.07 980.684,-147.294 982.506,-154.052"/>
</g>
<!-- Node20 -->
<g id="node21" class="node"><title>Node20</title>
<g id="a_node21"><a xlink:href="_random_8h.html" target="_top" xlink:title="../DUtils/Random.h">
<polygon fill="white" stroke="black" points="482.5,-129 482.5,-148 583.5,-148 583.5,-129 482.5,-129"/>
<text text-anchor="middle" x="533" y="-136" font-family="Helvetica,sans-Serif" font-size="10.00">../DUtils/Random.h</text>
</a>
</g>
</g>
<!-- Node13&#45;&gt;Node20 -->
<g id="edge36" class="edge"><title>Node13&#45;&gt;Node20</title>
<path fill="none" stroke="midnightblue" d="M645.754,-190.396C620.6,-179.041 585.549,-163.22 561.232,-152.244"/>
<polygon fill="midnightblue" stroke="midnightblue" points="562.401,-148.931 551.846,-148.007 559.521,-155.311 562.401,-148.931"/>
</g>
<!-- Node19&#45;&gt;Node4 -->
<g id="edge35" class="edge"><title>Node19&#45;&gt;Node4</title>
<path fill="none" stroke="midnightblue" d="M1035.64,-128.734C1052.53,-119.274 1079.94,-103.914 1101.85,-91.6362"/>
<polygon fill="midnightblue" stroke="midnightblue" points="1103.84,-94.5307 1110.86,-86.589 1100.42,-88.4241 1103.84,-94.5307"/>
</g>
<!-- Node20&#45;&gt;Node7 -->
<g id="edge38" class="edge"><title>Node20&#45;&gt;Node7</title>
<path fill="none" stroke="midnightblue" d="M536.146,-128.907C541.325,-113.185 549.775,-79.2723 536,-56 525.182,-37.7241 504.017,-26.377 485.899,-19.649"/>
<polygon fill="midnightblue" stroke="midnightblue" points="486.827,-16.2679 476.233,-16.3718 484.58,-22.8973 486.827,-16.2679"/>
</g>
<!-- Node21 -->
<g id="node22" class="node"><title>Node21</title>
<polygon fill="white" stroke="#bfbfbf" points="482.5,-62 482.5,-81 527.5,-81 527.5,-62 482.5,-62"/>
<text text-anchor="middle" x="505" y="-69" font-family="Helvetica,sans-Serif" font-size="10.00">cstdlib</text>
</g>
<!-- Node20&#45;&gt;Node21 -->
<g id="edge37" class="edge"><title>Node20&#45;&gt;Node21</title>
<path fill="none" stroke="midnightblue" d="M529.224,-128.734C525.025,-118.988 518.13,-102.981 512.768,-90.5318"/>
<polygon fill="midnightblue" stroke="midnightblue" points="515.887,-88.9267 508.716,-81.1273 509.458,-91.6961 515.887,-88.9267"/>
</g>
<!-- Node22&#45;&gt;Node1 -->
<g id="edge42" class="edge"><title>Node22&#45;&gt;Node1</title>
<path fill="none" stroke="midnightblue" d="M479.387,-376.26C417.126,-365.488 304.419,-345.205 265,-333 195.204,-311.39 114,-341.065 114,-268 114,-268 114,-268 114,-204.5 114,-150.122 170.234,-107.476 204.395,-86.5858"/>
<polygon fill="midnightblue" stroke="midnightblue" points="206.55,-89.3783 213.38,-81.2791 202.99,-83.351 206.55,-89.3783"/>
</g>
<!-- Node22&#45;&gt;Node7 -->
<g id="edge40" class="edge"><title>Node22&#45;&gt;Node7</title>
<path fill="none" stroke="midnightblue" d="M479.456,-376.398C464.192,-373.936 446.841,-371.235 431,-369 366.042,-359.837 191.592,-370.833 138,-333 95.0574,-302.685 104.638,-273.36 100,-221 93.423,-146.755 75.1733,-106.493 130,-56 172.005,-17.3148 347.967,-11.6392 421.494,-10.9838"/>
<polygon fill="midnightblue" stroke="midnightblue" points="421.593,-14.4833 431.571,-10.9202 421.549,-7.48345 421.593,-14.4833"/>
</g>
<!-- Node23 -->
<g id="node24" class="node"><title>Node23</title>
<polygon fill="white" stroke="#bfbfbf" points="490.5,-313.5 490.5,-332.5 519.5,-332.5 519.5,-313.5 490.5,-313.5"/>
<text text-anchor="middle" x="505" y="-320.5" font-family="Helvetica,sans-Serif" font-size="10.00">list</text>
</g>
<!-- Node22&#45;&gt;Node23 -->
<g id="edge41" class="edge"><title>Node22&#45;&gt;Node23</title>
<path fill="none" stroke="midnightblue" d="M519.564,-374.975C517.141,-366.492 513.344,-353.204 510.235,-342.322"/>
<polygon fill="midnightblue" stroke="midnightblue" points="513.544,-341.163 507.431,-332.509 506.813,-343.086 513.544,-341.163"/>
</g>
<!-- Node24&#45;&gt;Node2 -->
<g id="edge45" class="edge"><title>Node24&#45;&gt;Node2</title>
<path fill="none" stroke="midnightblue" d="M870.716,-332.701C865.807,-348.183 845.938,-380.697 821,-400 722.407,-476.318 569.207,-494.973 494.574,-499.53"/>
<polygon fill="midnightblue" stroke="midnightblue" points="493.941,-496.059 484.149,-500.105 494.326,-503.049 493.941,-496.059"/>
</g>
<!-- Node24&#45;&gt;Node4 -->
<g id="edge46" class="edge"><title>Node24&#45;&gt;Node4</title>
<path fill="none" stroke="midnightblue" d="M896.504,-319.881C947.667,-315.255 1057.35,-302.557 1084,-277 1134.22,-228.83 1138.54,-139.544 1137.43,-96.6865"/>
<polygon fill="midnightblue" stroke="midnightblue" points="1140.92,-96.4656 1137.04,-86.6074 1133.93,-96.7346 1140.92,-96.4656"/>
</g>
<!-- Node24&#45;&gt;Node7 -->
<g id="edge44" class="edge"><title>Node24&#45;&gt;Node7</title>
<path fill="none" stroke="midnightblue" d="M881.333,-313.482C922.384,-282.508 1061.44,-176.507 1072,-154 1077.85,-141.526 1080.83,-133.575 1072,-123 995.923,-31.8962 602.308,-14.7455 486.245,-11.653"/>
<polygon fill="midnightblue" stroke="midnightblue" points="486.289,-8.15309 476.204,-11.4026 486.114,-15.1509 486.289,-8.15309"/>
</g>
<!-- Node24&#45;&gt;Node8 -->
<g id="edge47" class="edge"><title>Node24&#45;&gt;Node8</title>
<path fill="none" stroke="midnightblue" d="M896.591,-322.162C943.821,-321.405 1044.3,-315.01 1118,-277 1172.44,-248.921 1219.74,-192.801 1243.23,-161.64"/>
<polygon fill="midnightblue" stroke="midnightblue" points="1246.08,-163.677 1249.21,-153.557 1240.45,-159.514 1246.08,-163.677"/>
</g>
<!-- Node24&#45;&gt;Node9 -->
<g id="edge48" class="edge"><title>Node24&#45;&gt;Node9</title>
<path fill="none" stroke="midnightblue" d="M843.164,-314.492C810.457,-305.34 754.887,-289.792 717.098,-279.219"/>
<polygon fill="midnightblue" stroke="midnightblue" points="717.995,-275.836 707.422,-276.512 716.109,-282.577 717.995,-275.836"/>
</g>
<!-- Node25 -->
<g id="node26" class="node"><title>Node25</title>
<polygon fill="white" stroke="#bfbfbf" points="968.5,-257.5 968.5,-276.5 1075.5,-276.5 1075.5,-257.5 968.5,-257.5"/>
<text text-anchor="middle" x="1022" y="-264.5" font-family="Helvetica,sans-Serif" font-size="10.00">opencv2/opencv.hpp</text>
</g>
<!-- Node24&#45;&gt;Node25 -->
<g id="edge49" class="edge"><title>Node24&#45;&gt;Node25</title>
<path fill="none" stroke="midnightblue" d="M894.085,-313.444C919.545,-304.399 959.894,-290.064 988.459,-279.916"/>
<polygon fill="midnightblue" stroke="midnightblue" points="989.777,-283.162 998.028,-276.516 987.433,-276.566 989.777,-283.162"/>
</g>
<!-- Node26&#45;&gt;Node3 -->
<g id="edge54" class="edge"><title>Node26&#45;&gt;Node3</title>
<path fill="none" stroke="midnightblue" d="M675.891,-394.009C671.501,-403.016 661.711,-417.452 652.627,-428.669"/>
<polygon fill="midnightblue" stroke="midnightblue" points="649.781,-426.61 645.918,-436.475 655.09,-431.172 649.781,-426.61"/>
</g>
<!-- Node26&#45;&gt;Node7 -->
<g id="edge51" class="edge"><title>Node26&#45;&gt;Node7</title>
<path fill="none" stroke="midnightblue" d="M660.243,-374.959C632.899,-361.162 576.832,-333.453 528,-313 352.011,-239.29 214.734,-270.654 163,-87 159.264,-73.7383 154.033,-66.4603 163,-56 196.003,-17.5009 352.613,-11.6469 421.433,-10.9619"/>
<polygon fill="midnightblue" stroke="midnightblue" points="421.716,-14.4602 431.692,-10.8921 421.668,-7.46032 421.716,-14.4602"/>
</g>
<!-- Node26&#45;&gt;Node9 -->
<g id="edge56" class="edge"><title>Node26&#45;&gt;Node9</title>
<path fill="none" stroke="midnightblue" d="M677,-374.819C677,-356.257 677,-312.339 677,-286.973"/>
<polygon fill="midnightblue" stroke="midnightblue" points="680.5,-286.782 677,-276.782 673.5,-286.782 680.5,-286.782"/>
</g>
<!-- Node26&#45;&gt;Node23 -->
<g id="edge52" class="edge"><title>Node26&#45;&gt;Node23</title>
<path fill="none" stroke="midnightblue" d="M652.357,-374.975C619.667,-363.667 562.3,-343.822 529.622,-332.517"/>
<polygon fill="midnightblue" stroke="midnightblue" points="530.537,-329.13 519.942,-329.169 528.248,-335.746 530.537,-329.13"/>
</g>
<!-- Node26&#45;&gt;Node24 -->
<g id="edge55" class="edge"><title>Node26&#45;&gt;Node24</title>
<path fill="none" stroke="midnightblue" d="M704.652,-374.975C738.474,-364.548 795.84,-346.863 833.322,-335.307"/>
<polygon fill="midnightblue" stroke="midnightblue" points="834.805,-338.513 843.33,-332.222 832.743,-331.823 834.805,-338.513"/>
</g>
<!-- Node27 -->
<g id="node28" class="node"><title>Node27</title>
<polygon fill="white" stroke="#bfbfbf" points="274,-313.5 274,-332.5 304,-332.5 304,-313.5 274,-313.5"/>
<text text-anchor="middle" x="289" y="-320.5" font-family="Helvetica,sans-Serif" font-size="10.00">set</text>
</g>
<!-- Node26&#45;&gt;Node27 -->
<g id="edge53" class="edge"><title>Node26&#45;&gt;Node27</title>
<path fill="none" stroke="midnightblue" d="M621.409,-374.975C536.014,-361.88 375.963,-337.336 314.204,-327.865"/>
<polygon fill="midnightblue" stroke="midnightblue" points="314.595,-324.384 304.18,-326.328 313.534,-331.303 314.595,-324.384"/>
</g>
<!-- Node26&#45;&gt;Node28 -->
<g id="edge57" class="edge"><title>Node26&#45;&gt;Node28</title>
<path fill="none" stroke="midnightblue" d="M642.193,-374.971C604.915,-365.739 543.797,-350.327 483.003,-333.495"/>
<polygon fill="midnightblue" stroke="midnightblue" points="483.824,-330.09 473.252,-330.782 481.948,-336.834 483.824,-330.09"/>
</g>
<!-- Node31&#45;&gt;Node9 -->
<g id="edge63" class="edge"><title>Node31&#45;&gt;Node9</title>
<path fill="none" stroke="midnightblue" d="M230.666,-436.387C218.045,-428.72 201.503,-416.213 194,-400 188.214,-387.496 187.989,-381.397 194,-369 211.535,-332.837 227.802,-328.217 265,-313 327.792,-287.313 521.635,-275.051 619.385,-270.375"/>
<polygon fill="midnightblue" stroke="midnightblue" points="619.566,-273.87 629.392,-269.906 619.239,-266.878 619.566,-273.87"/>
</g>
<!-- Node31&#45;&gt;Node27 -->
<g id="edge64" class="edge"><title>Node31&#45;&gt;Node27</title>
<path fill="none" stroke="midnightblue" d="M233.936,-436.436C223.086,-428.471 208.427,-415.515 202,-400 196.727,-387.271 194.837,-380.769 202,-369 215.387,-347.005 243.374,-335.286 264.007,-329.382"/>
<polygon fill="midnightblue" stroke="midnightblue" points="264.925,-332.76 273.729,-326.866 263.171,-325.983 264.925,-332.76"/>
</g>
<!-- Node31&#45;&gt;Node28 -->
<g id="edge65" class="edge"><title>Node31&#45;&gt;Node28</title>
<path fill="none" stroke="midnightblue" d="M241.826,-436.377C233.354,-421.018 218.988,-388.692 235,-369 257.769,-340.998 364.051,-329.838 418.565,-325.897"/>
<polygon fill="midnightblue" stroke="midnightblue" points="418.999,-329.376 428.737,-325.203 418.522,-322.392 418.999,-329.376"/>
</g>
<!-- Node31&#45;&gt;Node29 -->
<g id="edge67" class="edge"><title>Node31&#45;&gt;Node29</title>
<path fill="none" stroke="midnightblue" d="M251.298,-436.475C255.665,-427.815 262.555,-414.149 268.103,-403.145"/>
<polygon fill="midnightblue" stroke="midnightblue" points="271.333,-404.514 272.71,-394.009 265.082,-401.363 271.333,-404.514"/>
</g>
<!-- Node31&#45;&gt;Node30 -->
<g id="edge66" class="edge"><title>Node31&#45;&gt;Node30</title>
<path fill="none" stroke="midnightblue" d="M265.339,-436.475C283.566,-428.002 312.103,-414.737 335.497,-403.863"/>
<polygon fill="midnightblue" stroke="midnightblue" points="337.24,-406.912 344.833,-399.523 334.289,-400.564 337.24,-406.912"/>
</g>
</g>
</svg>
