<?xml version="1.0" encoding="UTF-8" standalone="no"?>
<!DOCTYPE svg PUBLIC "-//W3C//DTD SVG 1.1//EN"
 "http://www.w3.org/Graphics/SVG/1.1/DTD/svg11.dtd">
<!-- Generated by graphviz version 2.40.1 (20161225.0304)
 -->
<!-- Title: /home/alejandro/Desarrollo eclipse/os1/include/PnPsolver.h Pages: 1 -->
<svg width="1330pt" height="520pt"
 viewBox="0.00 0.00 1329.50 520.00" xmlns="http://www.w3.org/2000/svg" xmlns:xlink="http://www.w3.org/1999/xlink">
<g id="graph0" class="graph" transform="scale(1 1) rotate(0) translate(4 516)">
<title>/home/alejandro/Desarrollo eclipse/os1/include/PnPsolver.h</title>
<polygon fill="#ffffff" stroke="transparent" points="-4,4 -4,-516 1325.5,-516 1325.5,4 -4,4"/>
<!-- Node0 -->
<g id="node1" class="node">
<title>Node0</title>
<polygon fill="#bfbfbf" stroke="#000000" points="737.5,-481.5 737.5,-511.5 896.5,-511.5 896.5,-481.5 737.5,-481.5"/>
<text text-anchor="start" x="745.5" y="-499.5" font-family="Helvetica,sans-Serif" font-size="10.00" fill="#000000">/home/alejandro/Desarrollo</text>
<text text-anchor="middle" x="817" y="-488.5" font-family="Helvetica,sans-Serif" font-size="10.00" fill="#000000"> eclipse/os1/include/PnPsolver.h</text>
</g>
<!-- Node1 -->
<g id="node2" class="node">
<title>Node1</title>
<polygon fill="#ffffff" stroke="#bfbfbf" points="113,-62 113,-81 229,-81 229,-62 113,-62"/>
<text text-anchor="middle" x="171" y="-69" font-family="Helvetica,sans-Serif" font-size="10.00" fill="#000000">opencv2/core/core.hpp</text>
</g>
<!-- Node0&#45;&gt;Node1 -->
<g id="edge1" class="edge">
<title>Node0&#45;&gt;Node1</title>
<path fill="none" stroke="#191970" d="M737.2942,-492.752C538.7533,-482.3567 38,-449.1816 38,-379 38,-379 38,-379 38,-205.5 38,-147.693 101.1217,-105.9376 140.3945,-85.5526"/>
<polygon fill="#191970" stroke="#191970" points="141.9682,-88.6789 149.3352,-81.0647 138.8278,-82.4229 141.9682,-88.6789"/>
</g>
<!-- Node2 -->
<g id="node3" class="node">
<title>Node2</title>
<g id="a_node3"><a xlink:href="_map_point_8h.html" target="_top" xlink:title="MapPoint.h">
<polygon fill="#ffffff" stroke="#000000" points="845,-425.5 845,-444.5 911,-444.5 911,-425.5 845,-425.5"/>
<text text-anchor="middle" x="878" y="-432.5" font-family="Helvetica,sans-Serif" font-size="10.00" fill="#000000">MapPoint.h</text>
</a>
</g>
</g>
<!-- Node0&#45;&gt;Node2 -->
<g id="edge2" class="edge">
<title>Node0&#45;&gt;Node2</title>
<path fill="none" stroke="#191970" d="M832.0787,-481.2977C840.8989,-472.4052 852.0541,-461.1586 861.1612,-451.9769"/>
<polygon fill="#191970" stroke="#191970" points="863.6759,-454.4116 868.2331,-444.8469 858.706,-449.4821 863.6759,-454.4116"/>
</g>
<!-- Node26 -->
<g id="node27" class="node">
<title>Node26</title>
<g id="a_node27"><a xlink:href="_frame_8h.html" target="_top" xlink:title="Frame.h">
<polygon fill="#ffffff" stroke="#000000" points="817.5,-313.5 817.5,-332.5 870.5,-332.5 870.5,-313.5 817.5,-313.5"/>
<text text-anchor="middle" x="844" y="-320.5" font-family="Helvetica,sans-Serif" font-size="10.00" fill="#000000">Frame.h</text>
</a>
</g>
</g>
<!-- Node0&#45;&gt;Node26 -->
<g id="edge62" class="edge">
<title>Node0&#45;&gt;Node26</title>
<path fill="none" stroke="#191970" d="M819.3488,-481.4065C824.2343,-450.0126 835.4882,-377.6961 840.9355,-342.6925"/>
<polygon fill="#191970" stroke="#191970" points="844.4052,-343.1573 842.4846,-332.738 837.4884,-342.0808 844.4052,-343.1573"/>
</g>
<!-- Node2&#45;&gt;Node1 -->
<g id="edge60" class="edge">
<title>Node2&#45;&gt;Node1</title>
<path fill="none" stroke="#191970" d="M844.6806,-433.6857C697.6326,-427.4521 114,-397.9879 114,-323 114,-323 114,-323 114,-205.5 114,-161.1138 140.81,-114.5826 157.6563,-89.7256"/>
<polygon fill="#191970" stroke="#191970" points="160.6801,-91.5091 163.5482,-81.3099 154.9458,-87.4944 160.6801,-91.5091"/>
</g>
<!-- Node3 -->
<g id="node4" class="node">
<title>Node3</title>
<g id="a_node4"><a xlink:href="_key_frame_8h.html" target="_top" xlink:title="KeyFrame.h">
<polygon fill="#ffffff" stroke="#000000" points="1023,-369.5 1023,-388.5 1093,-388.5 1093,-369.5 1023,-369.5"/>
<text text-anchor="middle" x="1058" y="-376.5" font-family="Helvetica,sans-Serif" font-size="10.00" fill="#000000">KeyFrame.h</text>
</a>
</g>
</g>
<!-- Node2&#45;&gt;Node3 -->
<g id="edge3" class="edge">
<title>Node2&#45;&gt;Node3</title>
<path fill="none" stroke="#191970" d="M908.9431,-425.3733C939.0039,-416.021 984.8026,-401.7725 1017.6978,-391.5385"/>
<polygon fill="#191970" stroke="#191970" points="1018.9519,-394.8139 1027.4607,-388.5011 1016.8723,-388.1299 1018.9519,-394.8139"/>
</g>
<!-- Node25 -->
<g id="node26" class="node">
<title>Node25</title>
<polygon fill="#ffffff" stroke="#bfbfbf" points="1148,-257.5 1148,-276.5 1192,-276.5 1192,-257.5 1148,-257.5"/>
<text text-anchor="middle" x="1170" y="-264.5" font-family="Helvetica,sans-Serif" font-size="10.00" fill="#000000">mutex</text>
</g>
<!-- Node2&#45;&gt;Node25 -->
<g id="edge61" class="edge">
<title>Node2&#45;&gt;Node25</title>
<path fill="none" stroke="#191970" d="M911.1423,-430.9923C965.3994,-423.9733 1070.3197,-408.3455 1102,-389 1139.4532,-366.1293 1157.936,-314.6239 1165.5525,-286.3997"/>
<polygon fill="#191970" stroke="#191970" points="1168.9945,-287.0629 1168.0302,-276.5121 1162.2044,-285.3614 1168.9945,-287.0629"/>
</g>
<!-- Node2&#45;&gt;Node26 -->
<g id="edge45" class="edge">
<title>Node2&#45;&gt;Node26</title>
<path fill="none" stroke="#191970" d="M871.1214,-425.4509C862.3862,-407.184 849.7389,-366.9553 844.6947,-342.6976"/>
<polygon fill="#191970" stroke="#191970" points="848.0861,-341.7726 842.9159,-332.5249 841.1907,-342.9783 848.0861,-341.7726"/>
</g>
<!-- Node29 -->
<g id="node30" class="node">
<title>Node29</title>
<g id="a_node30"><a xlink:href="_map_8h.html" target="_top" xlink:title="Map.h">
<polygon fill="#ffffff" stroke="#000000" points="1072,-313.5 1072,-332.5 1116,-332.5 1116,-313.5 1072,-313.5"/>
<text text-anchor="middle" x="1094" y="-320.5" font-family="Helvetica,sans-Serif" font-size="10.00" fill="#000000">Map.h</text>
</a>
</g>
</g>
<!-- Node2&#45;&gt;Node29 -->
<g id="edge56" class="edge">
<title>Node2&#45;&gt;Node29</title>
<path fill="none" stroke="#191970" d="M896.416,-425.4509C934.4349,-405.7375 1021.7817,-360.4465 1066.5095,-337.2543"/>
<polygon fill="#191970" stroke="#191970" points="1068.3641,-340.2353 1075.6306,-332.5249 1065.1419,-334.021 1068.3641,-340.2353"/>
</g>
<!-- Node4 -->
<g id="node5" class="node">
<title>Node4</title>
<g id="a_node5"><a xlink:href="_bow_vector_8h.html" target="_top" xlink:title="../Thirdparty/DBoW2\l/DBoW2/BowVector.h">
<polygon fill="#ffffff" stroke="#000000" points="1078.5,-56.5 1078.5,-86.5 1191.5,-86.5 1191.5,-56.5 1078.5,-56.5"/>
<text text-anchor="start" x="1086.5" y="-74.5" font-family="Helvetica,sans-Serif" font-size="10.00" fill="#000000">../Thirdparty/DBoW2</text>
<text text-anchor="middle" x="1135" y="-63.5" font-family="Helvetica,sans-Serif" font-size="10.00" fill="#000000">/DBoW2/BowVector.h</text>
</a>
</g>
</g>
<!-- Node3&#45;&gt;Node4 -->
<g id="edge4" class="edge">
<title>Node3&#45;&gt;Node4</title>
<path fill="none" stroke="#191970" d="M1086.5037,-369.4538C1122.2153,-355.6431 1181.1409,-326.2045 1201,-277 1214.617,-243.2614 1169.6,-142.4646 1147.067,-95.7557"/>
<polygon fill="#191970" stroke="#191970" points="1150.1575,-94.108 1142.6291,-86.6531 1143.8655,-97.1756 1150.1575,-94.108"/>
</g>
<!-- Node8 -->
<g id="node9" class="node">
<title>Node8</title>
<g id="a_node9"><a xlink:href="_feature_vector_8h.html" target="_top" xlink:title="../Thirdparty/DBoW2\l/DBoW2/FeatureVector.h">
<polygon fill="#ffffff" stroke="#000000" points="1194.5,-123.5 1194.5,-153.5 1321.5,-153.5 1321.5,-123.5 1194.5,-123.5"/>
<text text-anchor="start" x="1202.5" y="-141.5" font-family="Helvetica,sans-Serif" font-size="10.00" fill="#000000">../Thirdparty/DBoW2</text>
<text text-anchor="middle" x="1258" y="-130.5" font-family="Helvetica,sans-Serif" font-size="10.00" fill="#000000">/DBoW2/FeatureVector.h</text>
</a>
</g>
</g>
<!-- Node3&#45;&gt;Node8 -->
<g id="edge8" class="edge">
<title>Node3&#45;&gt;Node8</title>
<path fill="none" stroke="#191970" d="M1093.0672,-374.5145C1138.9384,-367.8919 1215.644,-353.9727 1234,-333 1275.6539,-285.4082 1269.47,-204.3795 1262.9585,-163.5662"/>
<polygon fill="#191970" stroke="#191970" points="1266.3947,-162.8964 1261.2389,-153.6407 1259.4974,-164.0914 1266.3947,-162.8964"/>
</g>
<!-- Node9 -->
<g id="node10" class="node">
<title>Node9</title>
<g id="a_node10"><a xlink:href="_o_r_b_vocabulary_8h.html" target="_top" xlink:title="ORBVocabulary.h">
<polygon fill="#ffffff" stroke="#000000" points="948.5,-257.5 948.5,-276.5 1043.5,-276.5 1043.5,-257.5 948.5,-257.5"/>
<text text-anchor="middle" x="996" y="-264.5" font-family="Helvetica,sans-Serif" font-size="10.00" fill="#000000">ORBVocabulary.h</text>
</a>
</g>
</g>
<!-- Node3&#45;&gt;Node9 -->
<g id="edge13" class="edge">
<title>Node3&#45;&gt;Node9</title>
<path fill="none" stroke="#191970" d="M1022.9143,-370.8463C989.766,-362.3482 943.5839,-348.1726 933,-333 919.3794,-313.4741 943.4655,-294.1269 965.6791,-281.4785"/>
<polygon fill="#191970" stroke="#191970" points="967.5043,-284.4709 974.6505,-276.649 964.1862,-278.3072 967.5043,-284.4709"/>
</g>
<!-- Node22 -->
<g id="node23" class="node">
<title>Node22</title>
<g id="a_node23"><a xlink:href="_key_frame_database_8h.html" target="_top" xlink:title="KeyFrameDatabase.h">
<polygon fill="#ffffff" stroke="#000000" points="942,-313.5 942,-332.5 1054,-332.5 1054,-313.5 942,-313.5"/>
<text text-anchor="middle" x="998" y="-320.5" font-family="Helvetica,sans-Serif" font-size="10.00" fill="#000000">KeyFrameDatabase.h</text>
</a>
</g>
</g>
<!-- Node3&#45;&gt;Node22 -->
<g id="edge38" class="edge">
<title>Node3&#45;&gt;Node22</title>
<path fill="none" stroke="#191970" d="M1047.5488,-369.2455C1038.7731,-361.0549 1026.0446,-349.1749 1015.686,-339.5069"/>
<polygon fill="#191970" stroke="#191970" points="1018.0301,-336.9072 1008.3314,-332.6427 1013.2539,-342.0246 1018.0301,-336.9072"/>
</g>
<!-- Node3&#45;&gt;Node25 -->
<g id="edge44" class="edge">
<title>Node3&#45;&gt;Node25</title>
<path fill="none" stroke="#191970" d="M1075.5514,-369.413C1089.8964,-361.0299 1110.1584,-347.8897 1125,-333 1139.1595,-318.7947 1151.6825,-299.5752 1159.899,-285.5408"/>
<polygon fill="#191970" stroke="#191970" points="1162.9795,-287.2038 1164.8665,-276.7783 1156.89,-283.7515 1162.9795,-287.2038"/>
</g>
<!-- Node5 -->
<g id="node6" class="node">
<title>Node5</title>
<polygon fill="#ffffff" stroke="#bfbfbf" points="1244,-.5 1244,-19.5 1298,-19.5 1298,-.5 1244,-.5"/>
<text text-anchor="middle" x="1271" y="-7.5" font-family="Helvetica,sans-Serif" font-size="10.00" fill="#000000">iostream</text>
</g>
<!-- Node4&#45;&gt;Node5 -->
<g id="edge5" class="edge">
<title>Node4&#45;&gt;Node5</title>
<path fill="none" stroke="#191970" d="M1168.2693,-56.4554C1190.3641,-46.464 1219.146,-33.4487 1240.6219,-23.7372"/>
<polygon fill="#191970" stroke="#191970" points="1242.2553,-26.8398 1249.9248,-19.5303 1239.371,-20.4616 1242.2553,-26.8398"/>
</g>
<!-- Node6 -->
<g id="node7" class="node">
<title>Node6</title>
<polygon fill="#ffffff" stroke="#bfbfbf" points="1141.5,-.5 1141.5,-19.5 1176.5,-19.5 1176.5,-.5 1141.5,-.5"/>
<text text-anchor="middle" x="1159" y="-7.5" font-family="Helvetica,sans-Serif" font-size="10.00" fill="#000000">map</text>
</g>
<!-- Node4&#45;&gt;Node6 -->
<g id="edge6" class="edge">
<title>Node4&#45;&gt;Node6</title>
<path fill="none" stroke="#191970" d="M1140.9326,-56.2977C1144.1252,-48.1166 1148.0954,-37.943 1151.5004,-29.2179"/>
<polygon fill="#191970" stroke="#191970" points="1154.7823,-30.4351 1155.1573,-19.8469 1148.2613,-27.8903 1154.7823,-30.4351"/>
</g>
<!-- Node7 -->
<g id="node8" class="node">
<title>Node7</title>
<polygon fill="#ffffff" stroke="#bfbfbf" points="432,-.5 432,-19.5 476,-19.5 476,-.5 432,-.5"/>
<text text-anchor="middle" x="454" y="-7.5" font-family="Helvetica,sans-Serif" font-size="10.00" fill="#000000">vector</text>
</g>
<!-- Node4&#45;&gt;Node7 -->
<g id="edge7" class="edge">
<title>Node4&#45;&gt;Node7</title>
<path fill="none" stroke="#191970" d="M1078.1619,-58.3597C1073.3862,-57.4786 1068.6191,-56.675 1064,-56 844.6157,-23.9415 577.3821,-13.5787 486.2331,-10.846"/>
<polygon fill="#191970" stroke="#191970" points="486.1025,-7.3409 476.0053,-10.5496 485.8997,-14.3379 486.1025,-7.3409"/>
</g>
<!-- Node8&#45;&gt;Node4 -->
<g id="edge9" class="edge">
<title>Node8&#45;&gt;Node4</title>
<path fill="none" stroke="#191970" d="M1230.3964,-123.4639C1213.1097,-114.0475 1190.6268,-101.8008 1171.8297,-91.5617"/>
<polygon fill="#191970" stroke="#191970" points="1173.393,-88.4277 1162.937,-86.7177 1170.0445,-94.5749 1173.393,-88.4277"/>
</g>
<!-- Node8&#45;&gt;Node5 -->
<g id="edge12" class="edge">
<title>Node8&#45;&gt;Node5</title>
<path fill="none" stroke="#191970" d="M1263.2455,-123.3942C1266.4856,-113.2442 1270.3326,-99.4902 1272,-87 1273.8232,-73.3434 1272.1497,-69.777 1272,-56 1271.9057,-47.3235 1271.7114,-37.7282 1271.5189,-29.5559"/>
<polygon fill="#191970" stroke="#191970" points="1275.0168,-29.4229 1271.2671,-19.5138 1268.019,-29.5984 1275.0168,-29.4229"/>
</g>
<!-- Node8&#45;&gt;Node6 -->
<g id="edge10" class="edge">
<title>Node8&#45;&gt;Node6</title>
<path fill="none" stroke="#191970" d="M1256.8674,-123.3351C1254.8542,-105.5751 1249.2936,-76.0402 1234,-56 1221.7983,-40.0114 1202.3071,-28.3008 1186.2531,-20.6972"/>
<polygon fill="#191970" stroke="#191970" points="1187.3566,-17.3575 1176.7972,-16.4922 1184.5122,-23.7536 1187.3566,-17.3575"/>
</g>
<!-- Node8&#45;&gt;Node7 -->
<g id="edge11" class="edge">
<title>Node8&#45;&gt;Node7</title>
<path fill="none" stroke="#191970" d="M1252.2868,-123.4395C1244.0269,-104.0144 1226.7433,-70.9525 1200,-56 1137.0756,-20.8182 621.2254,-12.0536 486.2313,-10.3535"/>
<polygon fill="#191970" stroke="#191970" points="486.1603,-6.8525 476.1184,-10.2306 486.0751,-13.852 486.1603,-6.8525"/>
</g>
<!-- Node10 -->
<g id="node11" class="node">
<title>Node10</title>
<g id="a_node11"><a xlink:href="_f_o_r_b_8h.html" target="_top" xlink:title="../Thirdparty/DBoW2\l/DBoW2/FORB.h">
<polygon fill="#ffffff" stroke="#000000" points="324.5,-190.5 324.5,-220.5 431.5,-220.5 431.5,-190.5 324.5,-190.5"/>
<text text-anchor="start" x="332.5" y="-208.5" font-family="Helvetica,sans-Serif" font-size="10.00" fill="#000000">../Thirdparty/DBoW2</text>
<text text-anchor="middle" x="378" y="-197.5" font-family="Helvetica,sans-Serif" font-size="10.00" fill="#000000">/DBoW2/FORB.h</text>
</a>
</g>
</g>
<!-- Node9&#45;&gt;Node10 -->
<g id="edge14" class="edge">
<title>Node9&#45;&gt;Node10</title>
<path fill="none" stroke="#191970" d="M948.3195,-258.9765C943.4889,-258.2636 938.651,-257.5898 934,-257 756.2334,-234.4572 545.3056,-217.6186 441.7843,-209.9996"/>
<polygon fill="#191970" stroke="#191970" points="442.034,-206.5086 431.8052,-209.2693 441.523,-213.49 442.034,-206.5086"/>
</g>
<!-- Node13 -->
<g id="node14" class="node">
<title>Node13</title>
<g id="a_node14"><a xlink:href="_templated_vocabulary_8h.html" target="_top" xlink:title="../Thirdparty/DBoW2\l/DBoW2/TemplatedVocabulary.h">
<polygon fill="#ffffff" stroke="#000000" points="683,-190.5 683,-220.5 843,-220.5 843,-190.5 683,-190.5"/>
<text text-anchor="start" x="691" y="-208.5" font-family="Helvetica,sans-Serif" font-size="10.00" fill="#000000">../Thirdparty/DBoW2</text>
<text text-anchor="middle" x="763" y="-197.5" font-family="Helvetica,sans-Serif" font-size="10.00" fill="#000000">/DBoW2/TemplatedVocabulary.h</text>
</a>
</g>
</g>
<!-- Node9&#45;&gt;Node13 -->
<g id="edge22" class="edge">
<title>Node9&#45;&gt;Node13</title>
<path fill="none" stroke="#191970" d="M959.8494,-257.4581C925.2224,-248.3183 872.1305,-234.3048 829.8069,-223.1336"/>
<polygon fill="#191970" stroke="#191970" points="830.6885,-219.7465 820.1264,-220.5784 828.902,-226.5147 830.6885,-219.7465"/>
</g>
<!-- Node10&#45;&gt;Node1 -->
<g id="edge15" class="edge">
<title>Node10&#45;&gt;Node1</title>
<path fill="none" stroke="#191970" d="M324.4019,-190.8799C279.9933,-178.4049 222.7791,-161.3541 214,-154 194.3346,-137.5267 182.5192,-109.738 176.3828,-91.0155"/>
<polygon fill="#191970" stroke="#191970" points="179.6569,-89.7507 173.4097,-81.1937 172.9571,-91.7789 179.6569,-89.7507"/>
</g>
<!-- Node10&#45;&gt;Node7 -->
<g id="edge16" class="edge">
<title>Node10&#45;&gt;Node7</title>
<path fill="none" stroke="#191970" d="M329.3712,-190.31C312.2522,-182.3591 294.839,-170.6954 285,-154 278.0048,-142.1301 281.1224,-136.2209 285,-123 294.9581,-89.0473 300.3792,-78.1143 328,-56 355.564,-33.9312 394.679,-21.8674 421.9916,-15.6989"/>
<polygon fill="#191970" stroke="#191970" points="422.775,-19.1107 431.8329,-13.6148 421.3247,-12.2626 422.775,-19.1107"/>
</g>
<!-- Node11 -->
<g id="node12" class="node">
<title>Node11</title>
<polygon fill="#ffffff" stroke="#bfbfbf" points="357.5,-62 357.5,-81 398.5,-81 398.5,-62 357.5,-62"/>
<text text-anchor="middle" x="378" y="-69" font-family="Helvetica,sans-Serif" font-size="10.00" fill="#000000">string</text>
</g>
<!-- Node10&#45;&gt;Node11 -->
<g id="edge17" class="edge">
<title>Node10&#45;&gt;Node11</title>
<path fill="none" stroke="#191970" d="M378,-190.389C378,-166.0735 378,-118.2644 378,-91.2698"/>
<polygon fill="#191970" stroke="#191970" points="381.5001,-91.1041 378,-81.1042 374.5001,-91.1042 381.5001,-91.1041"/>
</g>
<!-- Node12 -->
<g id="node13" class="node">
<title>Node12</title>
<g id="a_node13"><a xlink:href="_f_class_8h.html" target="_top" xlink:title="FClass.h">
<polygon fill="#ffffff" stroke="#000000" points="294,-129 294,-148 350,-148 350,-129 294,-129"/>
<text text-anchor="middle" x="322" y="-136" font-family="Helvetica,sans-Serif" font-size="10.00" fill="#000000">FClass.h</text>
</a>
</g>
</g>
<!-- Node10&#45;&gt;Node12 -->
<g id="edge18" class="edge">
<title>Node10&#45;&gt;Node12</title>
<path fill="none" stroke="#191970" d="M365.2927,-190.2967C356.7371,-180.0605 345.4335,-166.5366 336.5221,-155.8746"/>
<polygon fill="#191970" stroke="#191970" points="339.0849,-153.4832 329.9862,-148.055 333.7139,-157.9724 339.0849,-153.4832"/>
</g>
<!-- Node12&#45;&gt;Node1 -->
<g id="edge19" class="edge">
<title>Node12&#45;&gt;Node1</title>
<path fill="none" stroke="#191970" d="M300.3654,-128.9005C274.5757,-117.4574 231.2894,-98.2509 201.9603,-85.2374"/>
<polygon fill="#191970" stroke="#191970" points="203.1546,-81.9383 192.5945,-81.0817 200.3156,-88.3367 203.1546,-81.9383"/>
</g>
<!-- Node12&#45;&gt;Node7 -->
<g id="edge20" class="edge">
<title>Node12&#45;&gt;Node7</title>
<path fill="none" stroke="#191970" d="M322.5067,-128.8382C323.8842,-112.0051 329.0021,-77.087 348,-56 367.2997,-34.578 398.3415,-22.7104 421.8566,-16.4213"/>
<polygon fill="#191970" stroke="#191970" points="422.8687,-19.7766 431.7391,-13.9829 421.1918,-12.9805 422.8687,-19.7766"/>
</g>
<!-- Node12&#45;&gt;Node11 -->
<g id="edge21" class="edge">
<title>Node12&#45;&gt;Node11</title>
<path fill="none" stroke="#191970" d="M330.0234,-128.9005C338.7561,-118.4525 352.8982,-101.5325 363.5708,-88.7635"/>
<polygon fill="#191970" stroke="#191970" points="366.2638,-90.9991 369.9914,-81.0817 360.8928,-86.5099 366.2638,-90.9991"/>
</g>
<!-- Node13&#45;&gt;Node1 -->
<g id="edge29" class="edge">
<title>Node13&#45;&gt;Node1</title>
<path fill="none" stroke="#191970" d="M682.5975,-201.8317C565.8431,-195.6611 355.6074,-181.1334 285,-154 246.3459,-139.1458 208.902,-107.7948 188.0112,-88.3042"/>
<polygon fill="#191970" stroke="#191970" points="190.254,-85.6066 180.6028,-81.2358 185.4219,-90.6712 190.254,-85.6066"/>
</g>
<!-- Node13&#45;&gt;Node4 -->
<g id="edge32" class="edge">
<title>Node13&#45;&gt;Node4</title>
<path fill="none" stroke="#191970" d="M831.9924,-190.4475C862.7745,-182.1532 898.8232,-170.1953 929,-154 948.2049,-143.6931 947.7777,-133.2745 967,-123 998.5599,-106.1309 1036.4713,-93.9081 1068.287,-85.6154"/>
<polygon fill="#191970" stroke="#191970" points="1069.5507,-88.9061 1078.3868,-83.0602 1067.8338,-82.1199 1069.5507,-88.9061"/>
</g>
<!-- Node13&#45;&gt;Node7 -->
<g id="edge24" class="edge">
<title>Node13&#45;&gt;Node7</title>
<path fill="none" stroke="#191970" d="M682.8155,-201.6519C607.1555,-196.2501 501.2304,-183.5175 473,-154 440.8677,-120.4028 445.162,-60.5144 450.0819,-29.6265"/>
<polygon fill="#191970" stroke="#191970" points="453.549,-30.12 451.8565,-19.6612 446.6574,-28.8927 453.549,-30.12"/>
</g>
<!-- Node13&#45;&gt;Node8 -->
<g id="edge31" class="edge">
<title>Node13&#45;&gt;Node8</title>
<path fill="none" stroke="#191970" d="M843.0805,-194.6608C937.3667,-181.8989 1092.6774,-160.877 1184.1656,-148.4937"/>
<polygon fill="#191970" stroke="#191970" points="1184.7387,-151.9482 1194.1789,-147.1384 1183.7998,-145.0114 1184.7387,-151.9482"/>
</g>
<!-- Node13&#45;&gt;Node11 -->
<g id="edge27" class="edge">
<title>Node13&#45;&gt;Node11</title>
<path fill="none" stroke="#191970" d="M682.9141,-199.6036C600.8567,-192.3623 479.8239,-177.9919 440,-154 414.908,-138.8833 396.5772,-109.4239 386.6063,-90.1085"/>
<polygon fill="#191970" stroke="#191970" points="389.7131,-88.4947 382.1626,-81.0622 383.4301,-91.5809 389.7131,-88.4947"/>
</g>
<!-- Node14 -->
<g id="node15" class="node">
<title>Node14</title>
<polygon fill="#ffffff" stroke="#bfbfbf" points="601.5,-129 601.5,-148 650.5,-148 650.5,-129 601.5,-129"/>
<text text-anchor="middle" x="626" y="-136" font-family="Helvetica,sans-Serif" font-size="10.00" fill="#000000">cassert</text>
</g>
<!-- Node13&#45;&gt;Node14 -->
<g id="edge23" class="edge">
<title>Node13&#45;&gt;Node14</title>
<path fill="none" stroke="#191970" d="M732.2545,-190.4639C709.0606,-179.1209 677.4684,-163.6707 654.7706,-152.5703"/>
<polygon fill="#191970" stroke="#191970" points="656.1588,-149.3531 645.6379,-148.1039 653.0835,-155.6414 656.1588,-149.3531"/>
</g>
<!-- Node15 -->
<g id="node16" class="node">
<title>Node15</title>
<polygon fill="#ffffff" stroke="#bfbfbf" points="668.5,-129 668.5,-148 719.5,-148 719.5,-129 668.5,-129"/>
<text text-anchor="middle" x="694" y="-136" font-family="Helvetica,sans-Serif" font-size="10.00" fill="#000000">numeric</text>
</g>
<!-- Node13&#45;&gt;Node15 -->
<g id="edge25" class="edge">
<title>Node13&#45;&gt;Node15</title>
<path fill="none" stroke="#191970" d="M747.3428,-190.2967C736.5923,-179.8578 722.3206,-165.9997 711.2445,-155.2446"/>
<polygon fill="#191970" stroke="#191970" points="713.4527,-152.5103 703.8402,-148.055 708.5763,-157.5323 713.4527,-152.5103"/>
</g>
<!-- Node16 -->
<g id="node17" class="node">
<title>Node16</title>
<polygon fill="#ffffff" stroke="#bfbfbf" points="738,-129 738,-148 788,-148 788,-129 738,-129"/>
<text text-anchor="middle" x="763" y="-136" font-family="Helvetica,sans-Serif" font-size="10.00" fill="#000000">fstream</text>
</g>
<!-- Node13&#45;&gt;Node16 -->
<g id="edge26" class="edge">
<title>Node13&#45;&gt;Node16</title>
<path fill="none" stroke="#191970" d="M763,-190.2967C763,-180.7699 763,-168.3954 763,-158.1306"/>
<polygon fill="#191970" stroke="#191970" points="766.5001,-158.0549 763,-148.055 759.5001,-158.055 766.5001,-158.0549"/>
</g>
<!-- Node17 -->
<g id="node18" class="node">
<title>Node17</title>
<polygon fill="#ffffff" stroke="#bfbfbf" points="806,-129 806,-148 862,-148 862,-129 806,-129"/>
<text text-anchor="middle" x="834" y="-136" font-family="Helvetica,sans-Serif" font-size="10.00" fill="#000000">algorithm</text>
</g>
<!-- Node13&#45;&gt;Node17 -->
<g id="edge28" class="edge">
<title>Node13&#45;&gt;Node17</title>
<path fill="none" stroke="#191970" d="M779.111,-190.2967C790.2805,-179.7564 805.144,-165.7303 816.5867,-154.9323"/>
<polygon fill="#191970" stroke="#191970" points="819.0037,-157.4638 823.8746,-148.055 814.1994,-152.3727 819.0037,-157.4638"/>
</g>
<!-- Node18 -->
<g id="node19" class="node">
<title>Node18</title>
<polygon fill="#ffffff" stroke="#bfbfbf" points="880,-129 880,-148 920,-148 920,-129 880,-129"/>
<text text-anchor="middle" x="900" y="-136" font-family="Helvetica,sans-Serif" font-size="10.00" fill="#000000">limits</text>
</g>
<!-- Node13&#45;&gt;Node18 -->
<g id="edge30" class="edge">
<title>Node13&#45;&gt;Node18</title>
<path fill="none" stroke="#191970" d="M795.8001,-190.337C817.306,-180.2779 845.9711,-166.6479 871,-154 871.6878,-153.6524 872.3838,-153.2984 873.0851,-152.9395"/>
<polygon fill="#191970" stroke="#191970" points="875.0336,-155.8705 882.277,-148.1384 871.7928,-149.6659 875.0336,-155.8705"/>
</g>
<!-- Node19 -->
<g id="node20" class="node">
<title>Node19</title>
<g id="a_node20"><a xlink:href="_scoring_object_8h.html" target="_top" xlink:title="ScoringObject.h">
<polygon fill="#ffffff" stroke="#000000" points="976,-129 976,-148 1062,-148 1062,-129 976,-129"/>
<text text-anchor="middle" x="1019" y="-136" font-family="Helvetica,sans-Serif" font-size="10.00" fill="#000000">ScoringObject.h</text>
</a>
</g>
</g>
<!-- Node13&#45;&gt;Node19 -->
<g id="edge33" class="edge">
<title>Node13&#45;&gt;Node19</title>
<path fill="none" stroke="#191970" d="M821.8253,-190.4782C861.4667,-180.3056 914.9169,-166.4936 962,-154 966.0144,-152.9348 970.1853,-151.8186 974.3626,-150.6944"/>
<polygon fill="#191970" stroke="#191970" points="975.31,-154.064 984.0507,-148.0765 973.4839,-147.3063 975.31,-154.064"/>
</g>
<!-- Node20 -->
<g id="node21" class="node">
<title>Node20</title>
<g id="a_node21"><a xlink:href="_random_8h.html" target="_top" xlink:title="../DUtils/Random.h">
<polygon fill="#ffffff" stroke="#000000" points="482.5,-129 482.5,-148 583.5,-148 583.5,-129 482.5,-129"/>
<text text-anchor="middle" x="533" y="-136" font-family="Helvetica,sans-Serif" font-size="10.00" fill="#000000">../DUtils/Random.h</text>
</a>
</g>
</g>
<!-- Node13&#45;&gt;Node20 -->
<g id="edge35" class="edge">
<title>Node13&#45;&gt;Node20</title>
<path fill="none" stroke="#191970" d="M711.3835,-190.4639C670.411,-178.5284 613.8281,-162.0456 575.4565,-150.8678"/>
<polygon fill="#191970" stroke="#191970" points="576.2099,-147.4418 565.6301,-148.0053 574.2521,-154.1625 576.2099,-147.4418"/>
</g>
<!-- Node19&#45;&gt;Node4 -->
<g id="edge34" class="edge">
<title>Node19&#45;&gt;Node4</title>
<path fill="none" stroke="#191970" d="M1035.62,-128.9005C1052.3936,-119.2123 1078.8017,-103.9593 1100.1805,-91.6113"/>
<polygon fill="#191970" stroke="#191970" points="1102.0833,-94.5541 1108.9922,-86.5218 1098.5822,-88.4926 1102.0833,-94.5541"/>
</g>
<!-- Node20&#45;&gt;Node7 -->
<g id="edge37" class="edge">
<title>Node20&#45;&gt;Node7</title>
<path fill="none" stroke="#191970" d="M536.4881,-128.7911C541.7003,-112.4879 549.5441,-79.1275 536,-56 525.2121,-37.5788 504.0459,-25.9739 485.9208,-19.0285"/>
<polygon fill="#191970" stroke="#191970" points="486.8441,-15.6433 476.2493,-15.6356 484.5268,-22.2486 486.8441,-15.6433"/>
</g>
<!-- Node21 -->
<g id="node22" class="node">
<title>Node21</title>
<polygon fill="#ffffff" stroke="#bfbfbf" points="482.5,-62 482.5,-81 527.5,-81 527.5,-62 482.5,-62"/>
<text text-anchor="middle" x="505" y="-69" font-family="Helvetica,sans-Serif" font-size="10.00" fill="#000000">cstdlib</text>
</g>
<!-- Node20&#45;&gt;Node21 -->
<g id="edge36" class="edge">
<title>Node20&#45;&gt;Node21</title>
<path fill="none" stroke="#191970" d="M528.9883,-128.9005C524.8298,-118.95 518.2182,-103.1292 512.9883,-90.6147"/>
<polygon fill="#191970" stroke="#191970" points="516.0896,-88.9588 509.0043,-81.0817 509.6309,-91.658 516.0896,-88.9588"/>
</g>
<!-- Node22&#45;&gt;Node7 -->
<g id="edge39" class="edge">
<title>Node22&#45;&gt;Node7</title>
<path fill="none" stroke="#191970" d="M1014.7426,-313.3488C1027.1264,-305.2782 1043.2943,-292.5914 1052,-277 1085.6209,-216.7871 1115.1541,-175.9751 1071,-123 995.1047,-31.9425 602.0857,-14.0362 486.1966,-10.7165"/>
<polygon fill="#191970" stroke="#191970" points="486.2619,-7.2171 476.1713,-10.4465 486.0734,-14.2146 486.2619,-7.2171"/>
</g>
<!-- Node22&#45;&gt;Node9 -->
<g id="edge42" class="edge">
<title>Node22&#45;&gt;Node9</title>
<path fill="none" stroke="#191970" d="M997.6516,-313.2455C997.3907,-305.9382 997.0248,-295.6944 996.7037,-286.7046"/>
<polygon fill="#191970" stroke="#191970" points="1000.1992,-286.5113 996.3444,-276.6427 993.2036,-286.7613 1000.1992,-286.5113"/>
</g>
<!-- Node23 -->
<g id="node24" class="node">
<title>Node23</title>
<polygon fill="#ffffff" stroke="#bfbfbf" points="277.5,-196 277.5,-215 306.5,-215 306.5,-196 277.5,-196"/>
<text text-anchor="middle" x="292" y="-203" font-family="Helvetica,sans-Serif" font-size="10.00" fill="#000000">list</text>
</g>
<!-- Node22&#45;&gt;Node23 -->
<g id="edge40" class="edge">
<title>Node22&#45;&gt;Node23</title>
<path fill="none" stroke="#191970" d="M941.8974,-317.8425C799.9642,-304.2833 429.7542,-265.5914 315,-221 314.2931,-220.7253 313.5861,-220.4258 312.8818,-220.1054"/>
<polygon fill="#191970" stroke="#191970" points="314.5132,-217.0068 304.0905,-215.1047 311.0521,-223.0914 314.5132,-217.0068"/>
</g>
<!-- Node24 -->
<g id="node25" class="node">
<title>Node24</title>
<polygon fill="#ffffff" stroke="#bfbfbf" points="1100,-257.5 1100,-276.5 1130,-276.5 1130,-257.5 1100,-257.5"/>
<text text-anchor="middle" x="1115" y="-264.5" font-family="Helvetica,sans-Serif" font-size="10.00" fill="#000000">set</text>
</g>
<!-- Node22&#45;&gt;Node24 -->
<g id="edge41" class="edge">
<title>Node22&#45;&gt;Node24</title>
<path fill="none" stroke="#191970" d="M1018.113,-313.3733C1038.2835,-303.719 1069.3548,-288.8473 1090.8479,-278.56"/>
<polygon fill="#191970" stroke="#191970" points="1092.4665,-281.6656 1099.9755,-274.1912 1089.4444,-275.3515 1092.4665,-281.6656"/>
</g>
<!-- Node22&#45;&gt;Node25 -->
<g id="edge43" class="edge">
<title>Node22&#45;&gt;Node25</title>
<path fill="none" stroke="#191970" d="M1027.5679,-313.3733C1058.4223,-303.3276 1106.6275,-287.6329 1138.2657,-277.3321"/>
<polygon fill="#191970" stroke="#191970" points="1139.4876,-280.6152 1147.9127,-274.1912 1137.3204,-273.9591 1139.4876,-280.6152"/>
</g>
<!-- Node26&#45;&gt;Node2 -->
<g id="edge47" class="edge">
<title>Node26&#45;&gt;Node2</title>
<path fill="none" stroke="#191970" d="M850.8671,-332.5249C859.6383,-350.8551 872.3623,-391.363 877.3668,-415.5987"/>
<polygon fill="#191970" stroke="#191970" points="873.9185,-416.199 879.081,-425.4509 880.8149,-414.999 873.9185,-416.199"/>
</g>
<!-- Node26&#45;&gt;Node4 -->
<g id="edge48" class="edge">
<title>Node26&#45;&gt;Node4</title>
<path fill="none" stroke="#191970" d="M850.753,-313.1781C860.5086,-299.4669 879.6223,-274.3269 900,-257 967.5913,-199.5281 1004.6844,-212.9393 1071,-154 1090.4995,-136.6695 1108.301,-112.7518 1120.1512,-95.13"/>
<polygon fill="#191970" stroke="#191970" points="1123.2177,-96.8367 1125.7831,-86.5571 1117.3672,-92.9932 1123.2177,-96.8367"/>
</g>
<!-- Node26&#45;&gt;Node7 -->
<g id="edge46" class="edge">
<title>Node26&#45;&gt;Node7</title>
<path fill="none" stroke="#191970" d="M817.4568,-322.7895C704.7167,-321.665 265.2924,-314.8892 133,-277 68.4825,-258.5219 0,-272.6115 0,-205.5 0,-205.5 0,-205.5 0,-138.5 0,-86.172 36.8823,-78.7627 84,-56 143.4246,-27.2917 342.9279,-15.1324 421.6572,-11.3728"/>
<polygon fill="#191970" stroke="#191970" points="422.11,-14.8556 431.9376,-10.8971 421.7865,-7.8631 422.11,-14.8556"/>
</g>
<!-- Node26&#45;&gt;Node8 -->
<g id="edge49" class="edge">
<title>Node26&#45;&gt;Node8</title>
<path fill="none" stroke="#191970" d="M854.4875,-313.3945C871.0936,-298.7544 905.0515,-271.0769 939,-257 1022.0253,-222.573 1054.8906,-255.2236 1138,-221 1174.0195,-206.1676 1210.1504,-179.3043 1233.2107,-160.2651"/>
<polygon fill="#191970" stroke="#191970" points="1235.688,-162.7551 1241.0909,-153.6414 1231.1838,-157.3966 1235.688,-162.7551"/>
</g>
<!-- Node26&#45;&gt;Node9 -->
<g id="edge50" class="edge">
<title>Node26&#45;&gt;Node9</title>
<path fill="none" stroke="#191970" d="M870.1297,-313.3733C895.0768,-304.1822 932.8592,-290.2624 960.5206,-280.0713"/>
<polygon fill="#191970" stroke="#191970" points="962.0378,-283.2424 970.2112,-276.5011 959.6178,-276.674 962.0378,-283.2424"/>
</g>
<!-- Node27 -->
<g id="node28" class="node">
<title>Node27</title>
<g id="a_node28"><a xlink:href="_o_r_bextractor_8h.html" target="_top" xlink:title="ORBextractor.h">
<polygon fill="#ffffff" stroke="#000000" points="267.5,-257.5 267.5,-276.5 352.5,-276.5 352.5,-257.5 267.5,-257.5"/>
<text text-anchor="middle" x="310" y="-264.5" font-family="Helvetica,sans-Serif" font-size="10.00" fill="#000000">ORBextractor.h</text>
</a>
</g>
</g>
<!-- Node26&#45;&gt;Node27 -->
<g id="edge51" class="edge">
<title>Node26&#45;&gt;Node27</title>
<path fill="none" stroke="#191970" d="M817.1529,-320.1846C733.2696,-311.3878 475.0162,-284.3051 362.8788,-272.5453"/>
<polygon fill="#191970" stroke="#191970" points="363.124,-269.0519 352.8135,-271.4898 362.3939,-276.0138 363.124,-269.0519"/>
</g>
<!-- Node28 -->
<g id="node29" class="node">
<title>Node28</title>
<polygon fill="#ffffff" stroke="#bfbfbf" points="142.5,-257.5 142.5,-276.5 249.5,-276.5 249.5,-257.5 142.5,-257.5"/>
<text text-anchor="middle" x="196" y="-264.5" font-family="Helvetica,sans-Serif" font-size="10.00" fill="#000000">opencv2/opencv.hpp</text>
</g>
<!-- Node26&#45;&gt;Node28 -->
<g id="edge55" class="edge">
<title>Node26&#45;&gt;Node28</title>
<path fill="none" stroke="#191970" d="M817.3488,-321.6842C735.5868,-317.4837 480.9327,-303.1834 259.8976,-277.1499"/>
<polygon fill="#191970" stroke="#191970" points="260.074,-273.6463 249.7307,-275.9412 259.2476,-280.5974 260.074,-273.6463"/>
</g>
<!-- Node27&#45;&gt;Node1 -->
<g id="edge54" class="edge">
<title>Node27&#45;&gt;Node1</title>
<path fill="none" stroke="#191970" d="M294.2048,-257.3898C267.4643,-240.2225 213.5969,-201.5875 187,-154 176.0811,-134.4637 172.5028,-108.7181 171.3884,-91.2192"/>
<polygon fill="#191970" stroke="#191970" points="174.8783,-90.9024 170.9595,-81.0589 167.8845,-91.1977 174.8783,-90.9024"/>
</g>
<!-- Node27&#45;&gt;Node7 -->
<g id="edge52" class="edge">
<title>Node27&#45;&gt;Node7</title>
<path fill="none" stroke="#191970" d="M279.965,-257.411C258.9665,-249.7438 231.0309,-237.5368 210,-221 141.4828,-167.124 46.5228,-121.5256 104,-56 124.8346,-32.248 339.2017,-16.914 421.7971,-11.8478"/>
<polygon fill="#191970" stroke="#191970" points="422.1,-15.336 431.8714,-11.241 421.679,-8.3487 422.1,-15.336"/>
</g>
<!-- Node27&#45;&gt;Node23 -->
<g id="edge53" class="edge">
<title>Node27&#45;&gt;Node23</title>
<path fill="none" stroke="#191970" d="M307.1875,-257.3906C304.6661,-248.776 300.889,-235.8708 297.7324,-225.0858"/>
<polygon fill="#191970" stroke="#191970" points="301.0203,-223.8591 294.8522,-215.2449 294.3021,-225.8254 301.0203,-223.8591"/>
</g>
<!-- Node29&#45;&gt;Node9 -->
<g id="edge57" class="edge">
<title>Node29&#45;&gt;Node9</title>
<path fill="none" stroke="#191970" d="M1076.9297,-313.2455C1061.753,-304.5731 1039.3379,-291.7645 1021.9437,-281.825"/>
<polygon fill="#191970" stroke="#191970" points="1023.2936,-278.5653 1012.8747,-276.6427 1019.8206,-284.643 1023.2936,-278.5653"/>
</g>
<!-- Node29&#45;&gt;Node24 -->
<g id="edge58" class="edge">
<title>Node29&#45;&gt;Node24</title>
<path fill="none" stroke="#191970" d="M1097.6579,-313.2455C1100.4584,-305.7776 1104.409,-295.2427 1107.8324,-286.1137"/>
<polygon fill="#191970" stroke="#191970" points="1111.1499,-287.2349 1111.384,-276.6427 1104.5955,-284.777 1111.1499,-287.2349"/>
</g>
<!-- Node29&#45;&gt;Node25 -->
<g id="edge59" class="edge">
<title>Node29&#45;&gt;Node25</title>
<path fill="none" stroke="#191970" d="M1107.2382,-313.2455C1118.681,-304.814 1135.4296,-292.4729 1148.7475,-282.6598"/>
<polygon fill="#191970" stroke="#191970" points="1150.9391,-285.3924 1156.9135,-276.6427 1146.7867,-279.757 1150.9391,-285.3924"/>
</g>
</g>
</svg>
