<?xml version="1.0" encoding="UTF-8" standalone="no"?>
<!DOCTYPE svg PUBLIC "-//W3C//DTD SVG 1.1//EN"
 "http://www.w3.org/Graphics/SVG/1.1/DTD/svg11.dtd">
<!-- Generated by graphviz version 2.38.0 (20140413.2041)
 -->
<!-- Title: /home/alejandro/Desarrollo eclipse/os1/Thirdparty/DBoW2/DUtils/Random.cpp Pages: 1 -->
<svg width="213pt" height="162pt"
 viewBox="0.00 0.00 212.50 162.00" xmlns="http://www.w3.org/2000/svg" xmlns:xlink="http://www.w3.org/1999/xlink">
<g id="graph0" class="graph" transform="scale(1 1) rotate(0) translate(4 158)">
<title>/home/alejandro/Desarrollo eclipse/os1/Thirdparty/DBoW2/DUtils/Random.cpp</title>
<polygon fill="white" stroke="none" points="-4,4 -4,-158 208.5,-158 208.5,4 -4,4"/>
<!-- Node0 -->
<g id="node1" class="node"><title>Node0</title>
<polygon fill="#bfbfbf" stroke="black" points="10,-112.5 10,-153.5 153,-153.5 153,-112.5 10,-112.5"/>
<text text-anchor="start" x="18" y="-141.5" font-family="Helvetica,sans-Serif" font-size="10.00">/home/alejandro/Desarrollo</text>
<text text-anchor="start" x="18" y="-130.5" font-family="Helvetica,sans-Serif" font-size="10.00"> eclipse/os1/Thirdparty</text>
<text text-anchor="middle" x="81.5" y="-119.5" font-family="Helvetica,sans-Serif" font-size="10.00">/DBoW2/DUtils/Random.cpp</text>
</g>
<!-- Node1 -->
<g id="node2" class="node"><title>Node1</title>
<g id="a_node2"><a xlink:href="_random_8h.html" target="_top" xlink:title="Random.h">
<polygon fill="white" stroke="black" points="50.5,-56.5 50.5,-75.5 112.5,-75.5 112.5,-56.5 50.5,-56.5"/>
<text text-anchor="middle" x="81.5" y="-63.5" font-family="Helvetica,sans-Serif" font-size="10.00">Random.h</text>
</a>
</g>
</g>
<!-- Node0&#45;&gt;Node1 -->
<g id="edge1" class="edge"><title>Node0&#45;&gt;Node1</title>
<path fill="none" stroke="midnightblue" d="M81.5,-112.498C81.5,-104.065 81.5,-94.2351 81.5,-85.874"/>
<polygon fill="midnightblue" stroke="midnightblue" points="85.0001,-85.6525 81.5,-75.6525 78.0001,-85.6525 85.0001,-85.6525"/>
</g>
<!-- Node2 -->
<g id="node3" class="node"><title>Node2</title>
<polygon fill="white" stroke="#bfbfbf" points="0,-0.5 0,-19.5 45,-19.5 45,-0.5 0,-0.5"/>
<text text-anchor="middle" x="22.5" y="-7.5" font-family="Helvetica,sans-Serif" font-size="10.00">cstdlib</text>
</g>
<!-- Node0&#45;&gt;Node2 -->
<g id="edge6" class="edge"><title>Node0&#45;&gt;Node2</title>
<path fill="none" stroke="midnightblue" d="M64.9328,-112.297C56.9468,-102.006 47.7661,-88.8954 41.5,-76 34.2741,-61.1294 29.2536,-42.9825 26.196,-29.6459"/>
<polygon fill="midnightblue" stroke="midnightblue" points="29.5946,-28.801 24.0839,-19.7521 22.7488,-30.2624 29.5946,-28.801"/>
</g>
<!-- Node4 -->
<g id="node5" class="node"><title>Node4</title>
<g id="a_node5"><a xlink:href="_timestamp_8h.html" target="_top" xlink:title="Timestamp.h">
<polygon fill="white" stroke="black" points="130.5,-56.5 130.5,-75.5 204.5,-75.5 204.5,-56.5 130.5,-56.5"/>
<text text-anchor="middle" x="167.5" y="-63.5" font-family="Helvetica,sans-Serif" font-size="10.00">Timestamp.h</text>
</a>
</g>
</g>
<!-- Node0&#45;&gt;Node4 -->
<g id="edge4" class="edge"><title>Node0&#45;&gt;Node4</title>
<path fill="none" stroke="midnightblue" d="M107.303,-112.498C120.361,-102.628 135.954,-90.8432 147.997,-81.7407"/>
<polygon fill="midnightblue" stroke="midnightblue" points="150.185,-84.4744 156.052,-75.6525 145.964,-78.89 150.185,-84.4744"/>
</g>
<!-- Node1&#45;&gt;Node2 -->
<g id="edge2" class="edge"><title>Node1&#45;&gt;Node2</title>
<path fill="none" stroke="midnightblue" d="M72.0206,-56.324C63.2989,-48.3414 50.1565,-36.3128 39.6022,-26.6529"/>
<polygon fill="midnightblue" stroke="midnightblue" points="41.8917,-24.0036 32.1519,-19.8339 37.1655,-29.1674 41.8917,-24.0036"/>
</g>
<!-- Node3 -->
<g id="node4" class="node"><title>Node3</title>
<polygon fill="white" stroke="#bfbfbf" points="63.5,-0.5 63.5,-19.5 107.5,-19.5 107.5,-0.5 63.5,-0.5"/>
<text text-anchor="middle" x="85.5" y="-7.5" font-family="Helvetica,sans-Serif" font-size="10.00">vector</text>
</g>
<!-- Node1&#45;&gt;Node3 -->
<g id="edge3" class="edge"><title>Node1&#45;&gt;Node3</title>
<path fill="none" stroke="midnightblue" d="M82.1605,-56.083C82.6848,-49.0059 83.4362,-38.8611 84.0936,-29.9865"/>
<polygon fill="midnightblue" stroke="midnightblue" points="87.6034,-29.9823 84.8518,-19.7511 80.6225,-29.4652 87.6034,-29.9823"/>
</g>
<!-- Node5 -->
<g id="node6" class="node"><title>Node5</title>
<polygon fill="white" stroke="#bfbfbf" points="140.5,-0.5 140.5,-19.5 194.5,-19.5 194.5,-0.5 140.5,-0.5"/>
<text text-anchor="middle" x="167.5" y="-7.5" font-family="Helvetica,sans-Serif" font-size="10.00">iostream</text>
</g>
<!-- Node4&#45;&gt;Node5 -->
<g id="edge5" class="edge"><title>Node4&#45;&gt;Node5</title>
<path fill="none" stroke="midnightblue" d="M167.5,-56.083C167.5,-49.0059 167.5,-38.8611 167.5,-29.9865"/>
<polygon fill="midnightblue" stroke="midnightblue" points="171,-29.751 167.5,-19.7511 164,-29.7511 171,-29.751"/>
</g>
</g>
</svg>
