<?xml version="1.0" encoding="UTF-8" standalone="no"?>
<!DOCTYPE svg PUBLIC "-//W3C//DTD SVG 1.1//EN"
 "http://www.w3.org/Graphics/SVG/1.1/DTD/svg11.dtd">
<!-- Generated by graphviz version 2.38.0 (20140413.2041)
 -->
<!-- Title: /home/alejandro/Desarrollo eclipse/os1/Thirdparty/DBoW2/DUtils/Random.h Pages: 1 -->
<svg width="141pt" height="106pt"
 viewBox="0.00 0.00 141.00 106.00" xmlns="http://www.w3.org/2000/svg" xmlns:xlink="http://www.w3.org/1999/xlink">
<g id="graph0" class="graph" transform="scale(1 1) rotate(0) translate(4 102)">
<title>/home/alejandro/Desarrollo eclipse/os1/Thirdparty/DBoW2/DUtils/Random.h</title>
<polygon fill="white" stroke="none" points="-4,4 -4,-102 137,-102 137,4 -4,4"/>
<!-- Node0 -->
<g id="node1" class="node"><title>Node0</title>
<polygon fill="#bfbfbf" stroke="black" points="0,-56.5 0,-97.5 133,-97.5 133,-56.5 0,-56.5"/>
<text text-anchor="start" x="8" y="-85.5" font-family="Helvetica,sans-Serif" font-size="10.00">/home/alejandro/Desarrollo</text>
<text text-anchor="start" x="8" y="-74.5" font-family="Helvetica,sans-Serif" font-size="10.00"> eclipse/os1/Thirdparty</text>
<text text-anchor="middle" x="66.5" y="-63.5" font-family="Helvetica,sans-Serif" font-size="10.00">/DBoW2/DUtils/Random.h</text>
</g>
<!-- Node1 -->
<g id="node2" class="node"><title>Node1</title>
<polygon fill="white" stroke="#bfbfbf" points="13,-0.5 13,-19.5 58,-19.5 58,-0.5 13,-0.5"/>
<text text-anchor="middle" x="35.5" y="-7.5" font-family="Helvetica,sans-Serif" font-size="10.00">cstdlib</text>
</g>
<!-- Node0&#45;&gt;Node1 -->
<g id="edge1" class="edge"><title>Node0&#45;&gt;Node1</title>
<path fill="none" stroke="midnightblue" d="M57.199,-56.4979C52.9945,-47.682 48.0614,-37.3385 43.9622,-28.7432"/>
<polygon fill="midnightblue" stroke="midnightblue" points="47.0905,-27.1719 39.6266,-19.6525 40.7722,-30.1852 47.0905,-27.1719"/>
</g>
<!-- Node2 -->
<g id="node3" class="node"><title>Node2</title>
<polygon fill="white" stroke="#bfbfbf" points="76.5,-0.5 76.5,-19.5 120.5,-19.5 120.5,-0.5 76.5,-0.5"/>
<text text-anchor="middle" x="98.5" y="-7.5" font-family="Helvetica,sans-Serif" font-size="10.00">vector</text>
</g>
<!-- Node0&#45;&gt;Node2 -->
<g id="edge2" class="edge"><title>Node0&#45;&gt;Node2</title>
<path fill="none" stroke="midnightblue" d="M76.1011,-56.4979C80.4412,-47.682 85.5333,-37.3385 89.7649,-28.7432"/>
<polygon fill="midnightblue" stroke="midnightblue" points="92.9635,-30.1701 94.2403,-19.6525 86.6833,-27.0783 92.9635,-30.1701"/>
</g>
</g>
</svg>
