<?xml version="1.0" encoding="UTF-8" standalone="no"?>
<!DOCTYPE svg PUBLIC "-//W3C//DTD SVG 1.1//EN"
 "http://www.w3.org/Graphics/SVG/1.1/DTD/svg11.dtd">
<!-- Generated by graphviz version 2.38.0 (20140413.2041)
 -->
<!-- Title: /home/alejandro/Desarrollo eclipse/os1/src/Sim3Solver.cc Pages: 1 -->
<svg width="1547pt" height="587pt"
 viewBox="0.00 0.00 1546.50 587.00" xmlns="http://www.w3.org/2000/svg" xmlns:xlink="http://www.w3.org/1999/xlink">
<g id="graph0" class="graph" transform="scale(1 1) rotate(0) translate(4 583)">
<title>/home/alejandro/Desarrollo eclipse/os1/src/Sim3Solver.cc</title>
<polygon fill="white" stroke="none" points="-4,4 -4,-583 1542.5,-583 1542.5,4 -4,4"/>
<!-- Node0 -->
<g id="node1" class="node"><title>Node0</title>
<polygon fill="#bfbfbf" stroke="black" points="515,-548.5 515,-578.5 667,-578.5 667,-548.5 515,-548.5"/>
<text text-anchor="start" x="523" y="-566.5" font-family="Helvetica,sans-Serif" font-size="10.00">/home/alejandro/Desarrollo</text>
<text text-anchor="middle" x="591" y="-555.5" font-family="Helvetica,sans-Serif" font-size="10.00"> eclipse/os1/src/Sim3Solver.cc</text>
</g>
<!-- Node1 -->
<g id="node2" class="node"><title>Node1</title>
<g id="a_node2"><a xlink:href="_sim3_solver_8h.html" target="_top" xlink:title="Sim3Solver.h">
<polygon fill="white" stroke="black" points="553.5,-492.5 553.5,-511.5 628.5,-511.5 628.5,-492.5 553.5,-492.5"/>
<text text-anchor="middle" x="591" y="-499.5" font-family="Helvetica,sans-Serif" font-size="10.00">Sim3Solver.h</text>
</a>
</g>
</g>
<!-- Node0&#45;&gt;Node1 -->
<g id="edge1" class="edge"><title>Node0&#45;&gt;Node1</title>
<path fill="none" stroke="midnightblue" d="M591,-548.399C591,-540.466 591,-530.458 591,-521.858"/>
<polygon fill="midnightblue" stroke="midnightblue" points="594.5,-521.658 591,-511.658 587.5,-521.658 594.5,-521.658"/>
</g>
<!-- Node3 -->
<g id="node4" class="node"><title>Node3</title>
<polygon fill="white" stroke="#bfbfbf" points="511,-0.5 511,-19.5 555,-19.5 555,-0.5 511,-0.5"/>
<text text-anchor="middle" x="533" y="-7.5" font-family="Helvetica,sans-Serif" font-size="10.00">vector</text>
</g>
<!-- Node0&#45;&gt;Node3 -->
<g id="edge71" class="edge"><title>Node0&#45;&gt;Node3</title>
<path fill="none" stroke="midnightblue" d="M667.119,-558.024C843.649,-545.565 1266,-502.913 1266,-380 1266,-380 1266,-380 1266,-322 1266,-235.558 1341.44,-237.446 1364,-154 1370.49,-129.986 1355.32,-56.2989 1355,-56 1325.53,-28.7638 714.895,-14.6779 565.679,-11.6347"/>
<polygon fill="midnightblue" stroke="midnightblue" points="565.428,-8.129 555.36,-11.4269 565.287,-15.1276 565.428,-8.129"/>
</g>
<!-- Node4 -->
<g id="node5" class="node"><title>Node4</title>
<g id="a_node5"><a xlink:href="_key_frame_8h.html" target="_top" xlink:title="KeyFrame.h">
<polygon fill="white" stroke="black" points="490,-431 490,-450 560,-450 560,-431 490,-431"/>
<text text-anchor="middle" x="525" y="-438" font-family="Helvetica,sans-Serif" font-size="10.00">KeyFrame.h</text>
</a>
</g>
</g>
<!-- Node0&#45;&gt;Node4 -->
<g id="edge74" class="edge"><title>Node0&#45;&gt;Node4</title>
<path fill="none" stroke="midnightblue" d="M573.998,-548.164C563.924,-538.82 551.668,-525.826 544,-512 534.985,-495.746 530.064,-474.984 527.504,-460.21"/>
<polygon fill="midnightblue" stroke="midnightblue" points="530.953,-459.607 525.979,-450.253 524.034,-460.668 530.953,-459.607"/>
</g>
<!-- Node13 -->
<g id="node14" class="node"><title>Node13</title>
<polygon fill="white" stroke="#bfbfbf" points="320,-62 320,-81 436,-81 436,-62 320,-62"/>
<text text-anchor="middle" x="378" y="-69" font-family="Helvetica,sans-Serif" font-size="10.00">opencv2/core/core.hpp</text>
</g>
<!-- Node0&#45;&gt;Node13 -->
<g id="edge73" class="edge"><title>Node0&#45;&gt;Node13</title>
<path fill="none" stroke="midnightblue" d="M514.947,-562.661C355.327,-560.944 0,-545.447 0,-441.5 0,-441.5 0,-441.5 0,-322 0,-170.985 212.746,-106.133 319.028,-83.1574"/>
<polygon fill="midnightblue" stroke="midnightblue" points="319.907,-86.5492 328.971,-81.0632 318.464,-79.6995 319.907,-86.5492"/>
</g>
<!-- Node23 -->
<g id="node24" class="node"><title>Node23</title>
<g id="a_node24"><a xlink:href="_random_8h.html" target="_top" xlink:title="../DUtils/Random.h">
<polygon fill="white" stroke="black" points="1253.5,-129 1253.5,-148 1354.5,-148 1354.5,-129 1253.5,-129"/>
<text text-anchor="middle" x="1304" y="-136" font-family="Helvetica,sans-Serif" font-size="10.00">../DUtils/Random.h</text>
</a>
</g>
</g>
<!-- Node0&#45;&gt;Node23 -->
<g id="edge82" class="edge"><title>Node0&#45;&gt;Node23</title>
<path fill="none" stroke="midnightblue" d="M667.171,-561.856C837.553,-559.726 1238.21,-550.621 1285,-512 1310.03,-491.341 1304,-473.951 1304,-441.5 1304,-441.5 1304,-441.5 1304,-266 1304,-227.702 1304,-182.883 1304,-158.197"/>
<polygon fill="midnightblue" stroke="midnightblue" points="1307.5,-158.089 1304,-148.089 1300.5,-158.089 1307.5,-158.089"/>
</g>
<!-- Node31 -->
<g id="node32" class="node"><title>Node31</title>
<polygon fill="white" stroke="#bfbfbf" points="1232,-492.5 1232,-511.5 1276,-511.5 1276,-492.5 1232,-492.5"/>
<text text-anchor="middle" x="1254" y="-499.5" font-family="Helvetica,sans-Serif" font-size="10.00">cmath</text>
</g>
<!-- Node0&#45;&gt;Node31 -->
<g id="edge72" class="edge"><title>Node0&#45;&gt;Node31</title>
<path fill="none" stroke="midnightblue" d="M667.253,-560.401C785.775,-556.232 1021.06,-544.323 1218,-512 1219.25,-511.795 1220.52,-511.568 1221.81,-511.323"/>
<polygon fill="midnightblue" stroke="midnightblue" points="1222.62,-514.729 1231.65,-509.193 1221.14,-507.887 1222.62,-514.729"/>
</g>
<!-- Node32 -->
<g id="node33" class="node"><title>Node32</title>
<g id="a_node33"><a xlink:href="_o_r_bmatcher_8h.html" target="_top" xlink:title="ORBmatcher.h">
<polygon fill="white" stroke="black" points="193,-492.5 193,-511.5 275,-511.5 275,-492.5 193,-492.5"/>
<text text-anchor="middle" x="234" y="-499.5" font-family="Helvetica,sans-Serif" font-size="10.00">ORBmatcher.h</text>
</a>
</g>
</g>
<!-- Node0&#45;&gt;Node32 -->
<g id="edge75" class="edge"><title>Node0&#45;&gt;Node32</title>
<path fill="none" stroke="midnightblue" d="M514.852,-549.809C445.551,-538.258 345.16,-521.527 285.056,-511.509"/>
<polygon fill="midnightblue" stroke="midnightblue" points="285.483,-508.032 275.044,-509.841 284.332,-514.937 285.483,-508.032"/>
</g>
<!-- Node2 -->
<g id="node3" class="node"><title>Node2</title>
<polygon fill="white" stroke="#bfbfbf" points="1089.5,-257.5 1089.5,-276.5 1196.5,-276.5 1196.5,-257.5 1089.5,-257.5"/>
<text text-anchor="middle" x="1143" y="-264.5" font-family="Helvetica,sans-Serif" font-size="10.00">opencv2/opencv.hpp</text>
</g>
<!-- Node1&#45;&gt;Node2 -->
<g id="edge2" class="edge"><title>Node1&#45;&gt;Node2</title>
<path fill="none" stroke="midnightblue" d="M611.301,-492.431C695.077,-457.069 1014.17,-322.381 1113.38,-280.502"/>
<polygon fill="midnightblue" stroke="midnightblue" points="1114.95,-283.637 1122.81,-276.524 1112.23,-277.188 1114.95,-283.637"/>
</g>
<!-- Node1&#45;&gt;Node3 -->
<g id="edge3" class="edge"><title>Node1&#45;&gt;Node3</title>
<path fill="none" stroke="midnightblue" d="M553.308,-497.458C487.614,-489.419 351.219,-464.219 268,-389 208.724,-335.422 212.418,-300.457 204,-221 195.954,-145.052 190.288,-100.995 252,-56 291.14,-27.4626 435.179,-16.2411 500.459,-12.5515"/>
<polygon fill="midnightblue" stroke="midnightblue" points="500.801,-16.0382 510.598,-12.0037 500.424,-9.04844 500.801,-16.0382"/>
</g>
<!-- Node1&#45;&gt;Node4 -->
<g id="edge4" class="edge"><title>Node1&#45;&gt;Node4</title>
<path fill="none" stroke="midnightblue" d="M581.544,-492.475C571.252,-483.197 554.584,-468.171 542.006,-456.831"/>
<polygon fill="midnightblue" stroke="midnightblue" points="544.21,-454.105 534.439,-450.009 539.522,-459.305 544.21,-454.105"/>
</g>
<!-- Node5 -->
<g id="node6" class="node"><title>Node5</title>
<g id="a_node6"><a xlink:href="_map_point_8h.html" target="_top" xlink:title="MapPoint.h">
<polygon fill="white" stroke="black" points="462,-369.5 462,-388.5 528,-388.5 528,-369.5 462,-369.5"/>
<text text-anchor="middle" x="495" y="-376.5" font-family="Helvetica,sans-Serif" font-size="10.00">MapPoint.h</text>
</a>
</g>
</g>
<!-- Node4&#45;&gt;Node5 -->
<g id="edge5" class="edge"><title>Node4&#45;&gt;Node5</title>
<path fill="none" stroke="midnightblue" d="M515.801,-430.975C509.61,-422.404 502.363,-408.927 497.81,-397.983"/>
<polygon fill="midnightblue" stroke="midnightblue" points="501.078,-396.728 494.393,-388.509 494.494,-399.103 501.078,-396.728"/>
</g>
<!-- Node6 -->
<g id="node7" class="node"><title>Node6</title>
<g id="a_node7"><a xlink:href="_frame_8h.html" target="_top" xlink:title="Frame.h">
<polygon fill="white" stroke="black" points="622.5,-313.5 622.5,-332.5 675.5,-332.5 675.5,-313.5 622.5,-313.5"/>
<text text-anchor="middle" x="649" y="-320.5" font-family="Helvetica,sans-Serif" font-size="10.00">Frame.h</text>
</a>
</g>
</g>
<!-- Node4&#45;&gt;Node6 -->
<g id="edge61" class="edge"><title>Node4&#45;&gt;Node6</title>
<path fill="none" stroke="midnightblue" d="M537.551,-430.851C553.526,-422.171 580.244,-407.455 599,-389 613.063,-375.162 624.56,-355.623 633.497,-341.586"/>
<polygon fill="midnightblue" stroke="midnightblue" points="636.659,-343.151 639.276,-332.884 630.828,-339.278 636.659,-343.151"/>
</g>
<!-- Node7 -->
<g id="node8" class="node"><title>Node7</title>
<g id="a_node8"><a xlink:href="_bow_vector_8h.html" target="_top" xlink:title="../Thirdparty/DBoW2\l/DBoW2/BowVector.h">
<polygon fill="white" stroke="black" points="1130.5,-56.5 1130.5,-86.5 1243.5,-86.5 1243.5,-56.5 1130.5,-56.5"/>
<text text-anchor="start" x="1138.5" y="-74.5" font-family="Helvetica,sans-Serif" font-size="10.00">../Thirdparty/DBoW2</text>
<text text-anchor="middle" x="1187" y="-63.5" font-family="Helvetica,sans-Serif" font-size="10.00">/DBoW2/BowVector.h</text>
</a>
</g>
</g>
<!-- Node4&#45;&gt;Node7 -->
<g id="edge57" class="edge"><title>Node4&#45;&gt;Node7</title>
<path fill="none" stroke="midnightblue" d="M560.083,-436.687C687.559,-425.671 1123.04,-380.857 1205,-277 1246.92,-223.885 1216.76,-137.084 1198.38,-95.7693"/>
<polygon fill="midnightblue" stroke="midnightblue" points="1201.49,-94.1401 1194.12,-86.522 1195.13,-97.069 1201.49,-94.1401"/>
</g>
<!-- Node10 -->
<g id="node11" class="node"><title>Node10</title>
<g id="a_node11"><a xlink:href="_feature_vector_8h.html" target="_top" xlink:title="../Thirdparty/DBoW2\l/DBoW2/FeatureVector.h">
<polygon fill="white" stroke="black" points="1411.5,-123.5 1411.5,-153.5 1538.5,-153.5 1538.5,-123.5 1411.5,-123.5"/>
<text text-anchor="start" x="1419.5" y="-141.5" font-family="Helvetica,sans-Serif" font-size="10.00">../Thirdparty/DBoW2</text>
<text text-anchor="middle" x="1475" y="-130.5" font-family="Helvetica,sans-Serif" font-size="10.00">/DBoW2/FeatureVector.h</text>
</a>
</g>
</g>
<!-- Node4&#45;&gt;Node10 -->
<g id="edge58" class="edge"><title>Node4&#45;&gt;Node10</title>
<path fill="none" stroke="midnightblue" d="M560.414,-436.55C689.478,-425.796 1127.16,-389.31 1128,-389 1269.03,-336.964 1404.17,-211.024 1454.41,-160.747"/>
<polygon fill="midnightblue" stroke="midnightblue" points="1456.92,-163.191 1461.47,-153.623 1451.95,-158.265 1456.92,-163.191"/>
</g>
<!-- Node11 -->
<g id="node12" class="node"><title>Node11</title>
<g id="a_node12"><a xlink:href="_o_r_b_vocabulary_8h.html" target="_top" xlink:title="ORBVocabulary.h">
<polygon fill="white" stroke="black" points="563.5,-257.5 563.5,-276.5 658.5,-276.5 658.5,-257.5 563.5,-257.5"/>
<text text-anchor="middle" x="611" y="-264.5" font-family="Helvetica,sans-Serif" font-size="10.00">ORBVocabulary.h</text>
</a>
</g>
</g>
<!-- Node4&#45;&gt;Node11 -->
<g id="edge59" class="edge"><title>Node4&#45;&gt;Node11</title>
<path fill="none" stroke="midnightblue" d="M530.828,-430.755C537.329,-420.836 547.984,-404.079 556,-389 574.964,-353.325 593.715,-309.848 603.674,-285.929"/>
<polygon fill="midnightblue" stroke="midnightblue" points="606.91,-287.263 607.489,-276.684 600.439,-284.593 606.91,-287.263"/>
</g>
<!-- Node25 -->
<g id="node26" class="node"><title>Node25</title>
<g id="a_node26"><a xlink:href="_o_r_bextractor_8h.html" target="_top" xlink:title="ORBextractor.h">
<polygon fill="white" stroke="black" points="421.5,-257.5 421.5,-276.5 506.5,-276.5 506.5,-257.5 421.5,-257.5"/>
<text text-anchor="middle" x="464" y="-264.5" font-family="Helvetica,sans-Serif" font-size="10.00">ORBextractor.h</text>
</a>
</g>
</g>
<!-- Node4&#45;&gt;Node25 -->
<g id="edge60" class="edge"><title>Node4&#45;&gt;Node25</title>
<path fill="none" stroke="midnightblue" d="M528.593,-430.733C536.89,-408.986 554.978,-351.541 532,-313 523.636,-298.971 508.999,-288.447 495.442,-281.118"/>
<polygon fill="midnightblue" stroke="midnightblue" points="496.829,-277.898 486.32,-276.551 493.695,-284.158 496.829,-277.898"/>
</g>
<!-- Node29 -->
<g id="node30" class="node"><title>Node29</title>
<polygon fill="white" stroke="#bfbfbf" points="273,-257.5 273,-276.5 317,-276.5 317,-257.5 273,-257.5"/>
<text text-anchor="middle" x="295" y="-264.5" font-family="Helvetica,sans-Serif" font-size="10.00">mutex</text>
</g>
<!-- Node4&#45;&gt;Node29 -->
<g id="edge70" class="edge"><title>Node4&#45;&gt;Node29</title>
<path fill="none" stroke="midnightblue" d="M489.882,-437.516C428.785,-433.25 306.948,-420.868 281,-389 256.953,-359.467 273.669,-311.604 285.695,-285.816"/>
<polygon fill="midnightblue" stroke="midnightblue" points="288.853,-287.326 290.13,-276.808 282.573,-284.234 288.853,-287.326"/>
</g>
<!-- Node30 -->
<g id="node31" class="node"><title>Node30</title>
<g id="a_node31"><a xlink:href="_key_frame_database_8h.html" target="_top" xlink:title="KeyFrameDatabase.h">
<polygon fill="white" stroke="black" points="290,-369.5 290,-388.5 402,-388.5 402,-369.5 290,-369.5"/>
<text text-anchor="middle" x="346" y="-376.5" font-family="Helvetica,sans-Serif" font-size="10.00">KeyFrameDatabase.h</text>
</a>
</g>
</g>
<!-- Node4&#45;&gt;Node30 -->
<g id="edge62" class="edge"><title>Node4&#45;&gt;Node30</title>
<path fill="none" stroke="midnightblue" d="M494.453,-430.975C461.38,-420.725 409.23,-403.459 376.272,-391.899"/>
<polygon fill="midnightblue" stroke="midnightblue" points="377.296,-388.549 366.702,-388.509 374.959,-395.148 377.296,-388.549"/>
</g>
<!-- Node5&#45;&gt;Node4 -->
<g id="edge6" class="edge"><title>Node5&#45;&gt;Node4</title>
<path fill="none" stroke="midnightblue" d="M504.187,-388.509C510.377,-397.075 517.626,-410.55 522.182,-421.497"/>
<polygon fill="midnightblue" stroke="midnightblue" points="518.915,-422.757 525.602,-430.975 525.5,-420.381 518.915,-422.757"/>
</g>
<!-- Node5&#45;&gt;Node6 -->
<g id="edge7" class="edge"><title>Node5&#45;&gt;Node6</title>
<path fill="none" stroke="midnightblue" d="M514.313,-369.444C539.038,-360.051 581.946,-344.955 612.777,-334.766"/>
<polygon fill="midnightblue" stroke="midnightblue" points="613.908,-338.078 622.324,-331.643 611.732,-331.425 613.908,-338.078"/>
</g>
<!-- Node5&#45;&gt;Node13 -->
<g id="edge55" class="edge"><title>Node5&#45;&gt;Node13</title>
<path fill="none" stroke="midnightblue" d="M498.676,-369.135C503.589,-355.743 510.435,-330.107 499,-313 475.745,-278.21 444.762,-303.033 412,-277 363.591,-238.534 357.982,-214.847 347,-154 344.553,-140.441 343.255,-136.259 347,-123 350.475,-110.696 357.882,-98.4364 364.585,-89.0781"/>
<polygon fill="midnightblue" stroke="midnightblue" points="367.39,-91.1708 370.643,-81.0878 361.812,-86.9414 367.39,-91.1708"/>
</g>
<!-- Node27 -->
<g id="node28" class="node"><title>Node27</title>
<g id="a_node28"><a xlink:href="_map_8h.html" target="_top" xlink:title="Map.h">
<polygon fill="white" stroke="black" points="446,-313.5 446,-332.5 490,-332.5 490,-313.5 446,-313.5"/>
<text text-anchor="middle" x="468" y="-320.5" font-family="Helvetica,sans-Serif" font-size="10.00">Map.h</text>
</a>
</g>
</g>
<!-- Node5&#45;&gt;Node27 -->
<g id="edge50" class="edge"><title>Node5&#45;&gt;Node27</title>
<path fill="none" stroke="midnightblue" d="M485.375,-369.083C480.232,-361.849 474.589,-351.409 470.763,-342.397"/>
<polygon fill="midnightblue" stroke="midnightblue" points="473.959,-340.946 467.245,-332.751 467.383,-343.345 473.959,-340.946"/>
</g>
<!-- Node5&#45;&gt;Node29 -->
<g id="edge56" class="edge"><title>Node5&#45;&gt;Node29</title>
<path fill="none" stroke="midnightblue" d="M479.306,-369.368C444.621,-350.292 361.222,-304.422 319.555,-281.505"/>
<polygon fill="midnightblue" stroke="midnightblue" points="321.07,-278.344 310.621,-276.591 317.696,-284.477 321.07,-278.344"/>
</g>
<!-- Node6&#45;&gt;Node2 -->
<g id="edge49" class="edge"><title>Node6&#45;&gt;Node2</title>
<path fill="none" stroke="midnightblue" d="M675.942,-319.403C743.283,-312.857 924.348,-294.923 1075,-277 1076.3,-276.846 1077.61,-276.688 1078.93,-276.528"/>
<polygon fill="midnightblue" stroke="midnightblue" points="1079.7,-279.959 1089.19,-275.254 1078.84,-273.012 1079.7,-279.959"/>
</g>
<!-- Node6&#45;&gt;Node3 -->
<g id="edge8" class="edge"><title>Node6&#45;&gt;Node3</title>
<path fill="none" stroke="midnightblue" d="M626.096,-313.424C606.188,-305.451 577.011,-292.492 554,-277 497.591,-239.024 477.209,-220.5 463,-154 452.421,-104.485 492.82,-52.6156 516.661,-27.1116"/>
<polygon fill="midnightblue" stroke="midnightblue" points="519.3,-29.4167 523.734,-19.794 514.267,-24.5517 519.3,-29.4167"/>
</g>
<!-- Node6&#45;&gt;Node4 -->
<g id="edge44" class="edge"><title>Node6&#45;&gt;Node4</title>
<path fill="none" stroke="midnightblue" d="M650.808,-332.884C647.729,-346.301 634.308,-371.969 617,-389 601.028,-404.716 579.283,-417.72 560.799,-426.594"/>
<polygon fill="midnightblue" stroke="midnightblue" points="559.12,-423.513 551.478,-430.851 562.028,-429.88 559.12,-423.513"/>
</g>
<!-- Node6&#45;&gt;Node5 -->
<g id="edge9" class="edge"><title>Node6&#45;&gt;Node5</title>
<path fill="none" stroke="midnightblue" d="M629.792,-332.516C605.824,-341.625 564.657,-356.129 534.029,-366.304"/>
<polygon fill="midnightblue" stroke="midnightblue" points="532.895,-362.993 524.491,-369.444 535.084,-369.642 532.895,-362.993"/>
</g>
<!-- Node6&#45;&gt;Node7 -->
<g id="edge10" class="edge"><title>Node6&#45;&gt;Node7</title>
<path fill="none" stroke="midnightblue" d="M675.658,-321.43C759.611,-318.16 1021.18,-296.459 1160,-154 1175.06,-138.545 1181.72,-114.506 1184.67,-96.5336"/>
<polygon fill="midnightblue" stroke="midnightblue" points="1188.15,-96.8931 1186.04,-86.5116 1181.22,-95.9463 1188.15,-96.8931"/>
</g>
<!-- Node6&#45;&gt;Node10 -->
<g id="edge14" class="edge"><title>Node6&#45;&gt;Node10</title>
<path fill="none" stroke="midnightblue" d="M675.913,-321.81C739.812,-320.733 905.181,-314.251 1037,-277 1057.28,-271.268 1060.29,-264.469 1080,-257 1193.24,-214.086 1329.41,-176.554 1408.69,-156.047"/>
<polygon fill="midnightblue" stroke="midnightblue" points="1409.73,-159.393 1418.54,-153.51 1407.99,-152.614 1409.73,-159.393"/>
</g>
<!-- Node6&#45;&gt;Node11 -->
<g id="edge19" class="edge"><title>Node6&#45;&gt;Node11</title>
<path fill="none" stroke="midnightblue" d="M642.725,-313.083C637.358,-305.455 629.482,-294.264 622.921,-284.941"/>
<polygon fill="midnightblue" stroke="midnightblue" points="625.775,-282.915 617.158,-276.751 620.051,-286.943 625.775,-282.915"/>
</g>
<!-- Node6&#45;&gt;Node25 -->
<g id="edge45" class="edge"><title>Node6&#45;&gt;Node25</title>
<path fill="none" stroke="midnightblue" d="M622.494,-314.263C591.17,-305.12 538.777,-289.827 502.865,-279.344"/>
<polygon fill="midnightblue" stroke="midnightblue" points="503.784,-275.967 493.204,-276.524 501.822,-282.686 503.784,-275.967"/>
</g>
<!-- Node7&#45;&gt;Node3 -->
<g id="edge13" class="edge"><title>Node7&#45;&gt;Node3</title>
<path fill="none" stroke="midnightblue" d="M1130.39,-65.3497C997.624,-53.2708 669.578,-23.4257 565.342,-13.9424"/>
<polygon fill="midnightblue" stroke="midnightblue" points="565.411,-10.4343 555.135,-13.0138 564.777,-17.4055 565.411,-10.4343"/>
</g>
<!-- Node8 -->
<g id="node9" class="node"><title>Node8</title>
<polygon fill="white" stroke="#bfbfbf" points="1222,-0.5 1222,-19.5 1276,-19.5 1276,-0.5 1222,-0.5"/>
<text text-anchor="middle" x="1249" y="-7.5" font-family="Helvetica,sans-Serif" font-size="10.00">iostream</text>
</g>
<!-- Node7&#45;&gt;Node8 -->
<g id="edge11" class="edge"><title>Node7&#45;&gt;Node8</title>
<path fill="none" stroke="midnightblue" d="M1201.69,-56.3993C1210.98,-47.4859 1223,-35.9523 1232.6,-26.7408"/>
<polygon fill="midnightblue" stroke="midnightblue" points="1235.19,-29.1072 1239.98,-19.6578 1230.34,-24.0566 1235.19,-29.1072"/>
</g>
<!-- Node9 -->
<g id="node10" class="node"><title>Node9</title>
<polygon fill="white" stroke="#bfbfbf" points="1417.5,-0.5 1417.5,-19.5 1452.5,-19.5 1452.5,-0.5 1417.5,-0.5"/>
<text text-anchor="middle" x="1435" y="-7.5" font-family="Helvetica,sans-Serif" font-size="10.00">map</text>
</g>
<!-- Node7&#45;&gt;Node9 -->
<g id="edge12" class="edge"><title>Node7&#45;&gt;Node9</title>
<path fill="none" stroke="midnightblue" d="M1243.59,-56.9241C1294.79,-44.6397 1368.02,-27.0691 1407.41,-17.6194"/>
<polygon fill="midnightblue" stroke="midnightblue" points="1408.44,-20.9719 1417.35,-15.2354 1406.81,-14.165 1408.44,-20.9719"/>
</g>
<!-- Node10&#45;&gt;Node3 -->
<g id="edge17" class="edge"><title>Node10&#45;&gt;Node3</title>
<path fill="none" stroke="midnightblue" d="M1463.56,-123.219C1446.15,-101.904 1413.29,-63.4654 1397,-56 1320.32,-20.861 712.988,-12.741 565.29,-11.2786"/>
<polygon fill="midnightblue" stroke="midnightblue" points="565.113,-7.77688 555.08,-11.181 565.046,-14.7766 565.113,-7.77688"/>
</g>
<!-- Node10&#45;&gt;Node7 -->
<g id="edge15" class="edge"><title>Node10&#45;&gt;Node7</title>
<path fill="none" stroke="midnightblue" d="M1412.86,-123.476C1365.93,-112.884 1301.63,-98.3712 1253.63,-87.539"/>
<polygon fill="midnightblue" stroke="midnightblue" points="1254.18,-84.0737 1243.65,-85.2861 1252.64,-90.9019 1254.18,-84.0737"/>
</g>
<!-- Node10&#45;&gt;Node8 -->
<g id="edge18" class="edge"><title>Node10&#45;&gt;Node8</title>
<path fill="none" stroke="midnightblue" d="M1471.98,-123.369C1467.31,-105.005 1456.52,-73.257 1435,-56 1392.08,-21.5814 1326.87,-12.8612 1286.15,-10.9948"/>
<polygon fill="midnightblue" stroke="midnightblue" points="1286.22,-7.49521 1276.11,-10.6507 1285.99,-14.4911 1286.22,-7.49521"/>
</g>
<!-- Node10&#45;&gt;Node9 -->
<g id="edge16" class="edge"><title>Node10&#45;&gt;Node9</title>
<path fill="none" stroke="midnightblue" d="M1477.41,-123.407C1479.64,-106.717 1481.49,-78.3617 1473,-56 1468.81,-44.9589 1460.66,-34.7206 1452.99,-26.8082"/>
<polygon fill="midnightblue" stroke="midnightblue" points="1455.26,-24.1399 1445.63,-19.7276 1450.41,-29.1837 1455.26,-24.1399"/>
</g>
<!-- Node12 -->
<g id="node13" class="node"><title>Node12</title>
<g id="a_node13"><a xlink:href="_f_o_r_b_8h.html" target="_top" xlink:title="../Thirdparty/DBoW2\l/DBoW2/FORB.h">
<polygon fill="white" stroke="black" points="502.5,-190.5 502.5,-220.5 609.5,-220.5 609.5,-190.5 502.5,-190.5"/>
<text text-anchor="start" x="510.5" y="-208.5" font-family="Helvetica,sans-Serif" font-size="10.00">../Thirdparty/DBoW2</text>
<text text-anchor="middle" x="556" y="-197.5" font-family="Helvetica,sans-Serif" font-size="10.00">/DBoW2/FORB.h</text>
</a>
</g>
</g>
<!-- Node11&#45;&gt;Node12 -->
<g id="edge20" class="edge"><title>Node11&#45;&gt;Node12</title>
<path fill="none" stroke="midnightblue" d="M603.12,-257.475C596.019,-249.793 585.276,-238.172 575.841,-227.964"/>
<polygon fill="midnightblue" stroke="midnightblue" points="578.321,-225.491 568.962,-220.523 573.18,-230.242 578.321,-225.491"/>
</g>
<!-- Node16 -->
<g id="node17" class="node"><title>Node16</title>
<g id="a_node17"><a xlink:href="_templated_vocabulary_8h.html" target="_top" xlink:title="../Thirdparty/DBoW2\l/DBoW2/TemplatedVocabulary.h">
<polygon fill="white" stroke="black" points="805,-190.5 805,-220.5 965,-220.5 965,-190.5 805,-190.5"/>
<text text-anchor="start" x="813" y="-208.5" font-family="Helvetica,sans-Serif" font-size="10.00">../Thirdparty/DBoW2</text>
<text text-anchor="middle" x="885" y="-197.5" font-family="Helvetica,sans-Serif" font-size="10.00">/DBoW2/TemplatedVocabulary.h</text>
</a>
</g>
</g>
<!-- Node11&#45;&gt;Node16 -->
<g id="edge28" class="edge"><title>Node11&#45;&gt;Node16</title>
<path fill="none" stroke="midnightblue" d="M650.258,-257.475C691.962,-248.419 758.882,-233.887 810.62,-222.652"/>
<polygon fill="midnightblue" stroke="midnightblue" points="811.394,-226.065 820.424,-220.523 809.909,-219.225 811.394,-226.065"/>
</g>
<!-- Node12&#45;&gt;Node3 -->
<g id="edge22" class="edge"><title>Node12&#45;&gt;Node3</title>
<path fill="none" stroke="midnightblue" d="M554.309,-190.271C550.228,-155.944 539.842,-68.5659 535.247,-29.9001"/>
<polygon fill="midnightblue" stroke="midnightblue" points="538.675,-29.0939 534.019,-19.5769 531.724,-29.9201 538.675,-29.0939"/>
</g>
<!-- Node12&#45;&gt;Node13 -->
<g id="edge21" class="edge"><title>Node12&#45;&gt;Node13</title>
<path fill="none" stroke="midnightblue" d="M502.426,-191.155C478.413,-183.241 450.867,-171.294 430,-154 409.162,-136.73 393.944,-108.881 385.533,-90.6318"/>
<polygon fill="midnightblue" stroke="midnightblue" points="388.696,-89.1293 381.473,-81.3788 382.286,-91.9423 388.696,-89.1293"/>
</g>
<!-- Node14 -->
<g id="node15" class="node"><title>Node14</title>
<polygon fill="white" stroke="#bfbfbf" points="584.5,-62 584.5,-81 625.5,-81 625.5,-62 584.5,-62"/>
<text text-anchor="middle" x="605" y="-69" font-family="Helvetica,sans-Serif" font-size="10.00">string</text>
</g>
<!-- Node12&#45;&gt;Node14 -->
<g id="edge23" class="edge"><title>Node12&#45;&gt;Node14</title>
<path fill="none" stroke="midnightblue" d="M561.244,-190.374C570.184,-166.29 588.365,-117.313 598.244,-90.7"/>
<polygon fill="midnightblue" stroke="midnightblue" points="601.61,-91.6902 601.809,-81.0973 595.047,-89.2541 601.61,-91.6902"/>
</g>
<!-- Node15 -->
<g id="node16" class="node"><title>Node15</title>
<g id="a_node16"><a xlink:href="_f_class_8h.html" target="_top" xlink:title="FClass.h">
<polygon fill="white" stroke="black" points="472,-129 472,-148 528,-148 528,-129 472,-129"/>
<text text-anchor="middle" x="500" y="-136" font-family="Helvetica,sans-Serif" font-size="10.00">FClass.h</text>
</a>
</g>
</g>
<!-- Node12&#45;&gt;Node15 -->
<g id="edge24" class="edge"><title>Node12&#45;&gt;Node15</title>
<path fill="none" stroke="midnightblue" d="M543.849,-190.396C535.117,-180.261 523.32,-166.567 514.161,-155.937"/>
<polygon fill="midnightblue" stroke="midnightblue" points="516.669,-153.486 507.491,-148.195 511.366,-158.055 516.669,-153.486"/>
</g>
<!-- Node15&#45;&gt;Node3 -->
<g id="edge26" class="edge"><title>Node15&#45;&gt;Node3</title>
<path fill="none" stroke="midnightblue" d="M502.268,-128.805C507.567,-108.494 520.856,-57.5532 528.102,-29.7768"/>
<polygon fill="midnightblue" stroke="midnightblue" points="531.578,-30.3154 530.716,-19.7557 524.805,-28.5484 531.578,-30.3154"/>
</g>
<!-- Node15&#45;&gt;Node13 -->
<g id="edge25" class="edge"><title>Node15&#45;&gt;Node13</title>
<path fill="none" stroke="midnightblue" d="M483.799,-128.869C463.2,-117.893 427.409,-98.8243 403.223,-85.9385"/>
<polygon fill="midnightblue" stroke="midnightblue" points="404.739,-82.7804 394.268,-81.1672 401.447,-88.9583 404.739,-82.7804"/>
</g>
<!-- Node15&#45;&gt;Node14 -->
<g id="edge27" class="edge"><title>Node15&#45;&gt;Node14</title>
<path fill="none" stroke="midnightblue" d="M514.161,-128.734C531.715,-117.867 561.843,-99.2161 582.557,-86.3931"/>
<polygon fill="midnightblue" stroke="midnightblue" points="584.403,-89.3668 591.064,-81.1273 580.719,-83.415 584.403,-89.3668"/>
</g>
<!-- Node16&#45;&gt;Node3 -->
<g id="edge30" class="edge"><title>Node16&#45;&gt;Node3</title>
<path fill="none" stroke="midnightblue" d="M807.56,-190.494C778.222,-182.813 745.529,-171.223 719,-154 670.641,-122.605 680.324,-90.327 634,-56 613.058,-40.4815 585.918,-28.7655 565.046,-21.184"/>
<polygon fill="midnightblue" stroke="midnightblue" points="565.953,-17.7933 555.358,-17.7958 563.642,-24.4009 565.953,-17.7933"/>
</g>
<!-- Node16&#45;&gt;Node7 -->
<g id="edge38" class="edge"><title>Node16&#45;&gt;Node7</title>
<path fill="none" stroke="midnightblue" d="M965.2,-202.866C1016.05,-198.412 1081.2,-186.103 1130,-154 1151.62,-139.778 1167.46,-114.274 1176.88,-95.573"/>
<polygon fill="midnightblue" stroke="midnightblue" points="1180.06,-97.0408 1181.22,-86.5095 1173.74,-94.0194 1180.06,-97.0408"/>
</g>
<!-- Node16&#45;&gt;Node10 -->
<g id="edge37" class="edge"><title>Node16&#45;&gt;Node10</title>
<path fill="none" stroke="midnightblue" d="M965.159,-196.663C1060.34,-187.216 1223.86,-170.538 1364,-154 1375.99,-152.585 1388.69,-151.004 1401.06,-149.419"/>
<polygon fill="midnightblue" stroke="midnightblue" points="1401.88,-152.843 1411.35,-148.091 1400.98,-145.9 1401.88,-152.843"/>
</g>
<!-- Node16&#45;&gt;Node13 -->
<g id="edge35" class="edge"><title>Node16&#45;&gt;Node13</title>
<path fill="none" stroke="midnightblue" d="M804.769,-200.944C699.652,-195.257 521.783,-181.799 463,-154 460.883,-152.999 418.228,-111.656 394.167,-88.25"/>
<polygon fill="midnightblue" stroke="midnightblue" points="396.412,-85.5511 386.805,-81.084 391.529,-90.5671 396.412,-85.5511"/>
</g>
<!-- Node16&#45;&gt;Node14 -->
<g id="edge33" class="edge"><title>Node16&#45;&gt;Node14</title>
<path fill="none" stroke="midnightblue" d="M926.652,-190.498C964.51,-175.604 1011.05,-150.444 987,-123 963.878,-96.6199 722.201,-79.5667 635.634,-74.2661"/>
<polygon fill="midnightblue" stroke="midnightblue" points="635.831,-70.7717 625.639,-73.6644 635.41,-77.7591 635.831,-70.7717"/>
</g>
<!-- Node17 -->
<g id="node18" class="node"><title>Node17</title>
<polygon fill="white" stroke="#bfbfbf" points="860.5,-129 860.5,-148 909.5,-148 909.5,-129 860.5,-129"/>
<text text-anchor="middle" x="885" y="-136" font-family="Helvetica,sans-Serif" font-size="10.00">cassert</text>
</g>
<!-- Node16&#45;&gt;Node17 -->
<g id="edge29" class="edge"><title>Node16&#45;&gt;Node17</title>
<path fill="none" stroke="midnightblue" d="M885,-190.396C885,-181.064 885,-168.714 885,-158.517"/>
<polygon fill="midnightblue" stroke="midnightblue" points="888.5,-158.195 885,-148.195 881.5,-158.195 888.5,-158.195"/>
</g>
<!-- Node18 -->
<g id="node19" class="node"><title>Node18</title>
<polygon fill="white" stroke="#bfbfbf" points="927.5,-129 927.5,-148 978.5,-148 978.5,-129 927.5,-129"/>
<text text-anchor="middle" x="953" y="-136" font-family="Helvetica,sans-Serif" font-size="10.00">numeric</text>
</g>
<!-- Node16&#45;&gt;Node18 -->
<g id="edge31" class="edge"><title>Node16&#45;&gt;Node18</title>
<path fill="none" stroke="midnightblue" d="M899.755,-190.396C910.568,-180.06 925.252,-166.024 936.461,-155.309"/>
<polygon fill="midnightblue" stroke="midnightblue" points="939.094,-157.634 943.904,-148.195 934.257,-152.574 939.094,-157.634"/>
</g>
<!-- Node19 -->
<g id="node20" class="node"><title>Node19</title>
<polygon fill="white" stroke="#bfbfbf" points="622,-129 622,-148 672,-148 672,-129 622,-129"/>
<text text-anchor="middle" x="647" y="-136" font-family="Helvetica,sans-Serif" font-size="10.00">fstream</text>
</g>
<!-- Node16&#45;&gt;Node19 -->
<g id="edge32" class="edge"><title>Node16&#45;&gt;Node19</title>
<path fill="none" stroke="midnightblue" d="M822.224,-190.396C782.812,-181.092 731.087,-168.058 686,-154 683.438,-153.201 680.797,-152.329 678.156,-151.421"/>
<polygon fill="midnightblue" stroke="midnightblue" points="679.317,-148.119 668.722,-148.046 676.959,-154.71 679.317,-148.119"/>
</g>
<!-- Node20 -->
<g id="node21" class="node"><title>Node20</title>
<polygon fill="white" stroke="#bfbfbf" points="728,-129 728,-148 784,-148 784,-129 728,-129"/>
<text text-anchor="middle" x="756" y="-136" font-family="Helvetica,sans-Serif" font-size="10.00">algorithm</text>
</g>
<!-- Node16&#45;&gt;Node20 -->
<g id="edge34" class="edge"><title>Node16&#45;&gt;Node20</title>
<path fill="none" stroke="midnightblue" d="M857.009,-190.396C834.675,-179.142 803.633,-163.501 781.874,-152.538"/>
<polygon fill="midnightblue" stroke="midnightblue" points="783.388,-149.381 772.883,-148.007 780.239,-155.633 783.388,-149.381"/>
</g>
<!-- Node21 -->
<g id="node22" class="node"><title>Node21</title>
<polygon fill="white" stroke="#bfbfbf" points="802,-129 802,-148 842,-148 842,-129 802,-129"/>
<text text-anchor="middle" x="822" y="-136" font-family="Helvetica,sans-Serif" font-size="10.00">limits</text>
</g>
<!-- Node16&#45;&gt;Node21 -->
<g id="edge36" class="edge"><title>Node16&#45;&gt;Node21</title>
<path fill="none" stroke="midnightblue" d="M871.33,-190.396C861.41,-180.161 847.971,-166.296 837.626,-155.622"/>
<polygon fill="midnightblue" stroke="midnightblue" points="839.9,-152.939 830.427,-148.195 834.874,-157.811 839.9,-152.939"/>
</g>
<!-- Node22 -->
<g id="node23" class="node"><title>Node22</title>
<g id="a_node23"><a xlink:href="_scoring_object_8h.html" target="_top" xlink:title="ScoringObject.h">
<polygon fill="white" stroke="black" points="1035,-129 1035,-148 1121,-148 1121,-129 1035,-129"/>
<text text-anchor="middle" x="1078" y="-136" font-family="Helvetica,sans-Serif" font-size="10.00">ScoringObject.h</text>
</a>
</g>
</g>
<!-- Node16&#45;&gt;Node22 -->
<g id="edge39" class="edge"><title>Node16&#45;&gt;Node22</title>
<path fill="none" stroke="midnightblue" d="M926.878,-190.396C961.641,-178.688 1010.51,-162.231 1043.16,-151.234"/>
<polygon fill="midnightblue" stroke="midnightblue" points="1044.38,-154.516 1052.74,-148.007 1042.15,-147.882 1044.38,-154.516"/>
</g>
<!-- Node16&#45;&gt;Node23 -->
<g id="edge41" class="edge"><title>Node16&#45;&gt;Node23</title>
<path fill="none" stroke="midnightblue" d="M965.292,-192.044C1046.43,-179.458 1169.98,-160.291 1243.29,-148.918"/>
<polygon fill="midnightblue" stroke="midnightblue" points="1243.95,-152.358 1253.29,-147.366 1242.88,-145.441 1243.95,-152.358"/>
</g>
<!-- Node22&#45;&gt;Node7 -->
<g id="edge40" class="edge"><title>Node22&#45;&gt;Node7</title>
<path fill="none" stroke="midnightblue" d="M1092.7,-128.734C1108.49,-119.316 1134.09,-104.051 1154.63,-91.8008"/>
<polygon fill="midnightblue" stroke="midnightblue" points="1156.58,-94.7169 1163.37,-86.589 1152.99,-88.7047 1156.58,-94.7169"/>
</g>
<!-- Node23&#45;&gt;Node3 -->
<g id="edge43" class="edge"><title>Node23&#45;&gt;Node3</title>
<path fill="none" stroke="midnightblue" d="M1301.44,-128.921C1295.77,-111.605 1280.34,-72.7067 1252,-56 1192.33,-20.8236 697.554,-12.8298 565.364,-11.3147"/>
<polygon fill="midnightblue" stroke="midnightblue" points="565.131,-7.81201 555.093,-11.2018 565.054,-14.8116 565.131,-7.81201"/>
</g>
<!-- Node24 -->
<g id="node25" class="node"><title>Node24</title>
<polygon fill="white" stroke="#bfbfbf" points="1300.5,-62 1300.5,-81 1345.5,-81 1345.5,-62 1300.5,-62"/>
<text text-anchor="middle" x="1323" y="-69" font-family="Helvetica,sans-Serif" font-size="10.00">cstdlib</text>
</g>
<!-- Node23&#45;&gt;Node24 -->
<g id="edge42" class="edge"><title>Node23&#45;&gt;Node24</title>
<path fill="none" stroke="midnightblue" d="M1306.56,-128.734C1309.38,-119.085 1314,-103.3 1317.62,-90.9063"/>
<polygon fill="midnightblue" stroke="midnightblue" points="1321.03,-91.7077 1320.48,-81.1273 1314.31,-89.7436 1321.03,-91.7077"/>
</g>
<!-- Node25&#45;&gt;Node3 -->
<g id="edge46" class="edge"><title>Node25&#45;&gt;Node3</title>
<path fill="none" stroke="midnightblue" d="M434.713,-257.495C414.874,-250.461 389.232,-238.717 372,-221 317.487,-164.954 261.511,-116.528 311,-56 334.619,-27.1129 445.212,-16.3253 500.854,-12.677"/>
<polygon fill="midnightblue" stroke="midnightblue" points="501.124,-16.167 510.89,-12.0576 500.693,-9.18033 501.124,-16.167"/>
</g>
<!-- Node25&#45;&gt;Node13 -->
<g id="edge48" class="edge"><title>Node25&#45;&gt;Node13</title>
<path fill="none" stroke="midnightblue" d="M450.137,-257.324C425.238,-240.813 373.704,-202.182 354,-154 345.226,-132.544 356.269,-106.717 366.105,-89.9717"/>
<polygon fill="midnightblue" stroke="midnightblue" points="369.223,-91.5886 371.598,-81.2633 363.302,-87.8542 369.223,-91.5886"/>
</g>
<!-- Node26 -->
<g id="node27" class="node"><title>Node26</title>
<polygon fill="white" stroke="#bfbfbf" points="220.5,-196 220.5,-215 249.5,-215 249.5,-196 220.5,-196"/>
<text text-anchor="middle" x="235" y="-203" font-family="Helvetica,sans-Serif" font-size="10.00">list</text>
</g>
<!-- Node25&#45;&gt;Node26 -->
<g id="edge47" class="edge"><title>Node25&#45;&gt;Node26</title>
<path fill="none" stroke="midnightblue" d="M431.19,-257.475C384.772,-245.415 300.98,-223.643 259.553,-212.879"/>
<polygon fill="midnightblue" stroke="midnightblue" points="260.309,-209.46 249.75,-210.332 258.548,-216.235 260.309,-209.46"/>
</g>
<!-- Node27&#45;&gt;Node4 -->
<g id="edge52" class="edge"><title>Node27&#45;&gt;Node4</title>
<path fill="none" stroke="midnightblue" d="M462.276,-332.895C454.705,-345.884 443.382,-370.505 453,-389 461.692,-405.714 478.732,-418.048 494.054,-426.341"/>
<polygon fill="midnightblue" stroke="midnightblue" points="492.775,-429.616 503.281,-430.986 495.922,-423.364 492.775,-429.616"/>
</g>
<!-- Node27&#45;&gt;Node5 -->
<g id="edge51" class="edge"><title>Node27&#45;&gt;Node5</title>
<path fill="none" stroke="midnightblue" d="M477.507,-332.751C482.698,-340.014 488.418,-350.589 492.274,-359.69"/>
<polygon fill="midnightblue" stroke="midnightblue" points="488.987,-360.893 495.708,-369.083 495.562,-358.489 488.987,-360.893"/>
</g>
<!-- Node28 -->
<g id="node29" class="node"><title>Node28</title>
<polygon fill="white" stroke="#bfbfbf" points="335,-257.5 335,-276.5 365,-276.5 365,-257.5 335,-257.5"/>
<text text-anchor="middle" x="350" y="-264.5" font-family="Helvetica,sans-Serif" font-size="10.00">set</text>
</g>
<!-- Node27&#45;&gt;Node28 -->
<g id="edge53" class="edge"><title>Node27&#45;&gt;Node28</title>
<path fill="none" stroke="midnightblue" d="M449.303,-313.444C429.037,-304.169 396.618,-289.334 374.37,-279.152"/>
<polygon fill="midnightblue" stroke="midnightblue" points="375.782,-275.95 365.233,-274.971 372.87,-282.315 375.782,-275.95"/>
</g>
<!-- Node27&#45;&gt;Node29 -->
<g id="edge54" class="edge"><title>Node27&#45;&gt;Node29</title>
<path fill="none" stroke="midnightblue" d="M445.737,-315.051C415.504,-305.614 361.284,-288.69 326.777,-277.919"/>
<polygon fill="midnightblue" stroke="midnightblue" points="327.766,-274.561 317.177,-274.922 325.68,-281.243 327.766,-274.561"/>
</g>
<!-- Node30&#45;&gt;Node3 -->
<g id="edge63" class="edge"><title>Node30&#45;&gt;Node3</title>
<path fill="none" stroke="midnightblue" d="M331.481,-369.326C292.284,-344.678 188.725,-270.765 211,-190 229.442,-123.135 234.077,-95.6334 291,-56 324.511,-32.6676 442.849,-19.0936 500.692,-13.711"/>
<polygon fill="midnightblue" stroke="midnightblue" points="501.11,-17.1875 510.754,-12.8008 500.48,-10.216 501.11,-17.1875"/>
</g>
<!-- Node30&#45;&gt;Node4 -->
<g id="edge66" class="edge"><title>Node30&#45;&gt;Node4</title>
<path fill="none" stroke="midnightblue" d="M376.496,-388.509C409.55,-398.752 461.699,-416.017 494.678,-427.583"/>
<polygon fill="midnightblue" stroke="midnightblue" points="493.659,-430.935 504.254,-430.975 495.997,-424.337 493.659,-430.935"/>
</g>
<!-- Node30&#45;&gt;Node6 -->
<g id="edge67" class="edge"><title>Node30&#45;&gt;Node6</title>
<path fill="none" stroke="midnightblue" d="M394.011,-369.444C454.68,-358.631 557.762,-340.26 612.431,-330.517"/>
<polygon fill="midnightblue" stroke="midnightblue" points="613.142,-333.946 622.373,-328.745 611.914,-327.054 613.142,-333.946"/>
</g>
<!-- Node30&#45;&gt;Node11 -->
<g id="edge68" class="edge"><title>Node30&#45;&gt;Node11</title>
<path fill="none" stroke="midnightblue" d="M355.606,-369.279C371.423,-355.371 404.453,-328.19 437,-313 473.929,-295.765 518.467,-284.403 553.238,-277.408"/>
<polygon fill="midnightblue" stroke="midnightblue" points="554.085,-280.808 563.232,-275.462 552.748,-273.937 554.085,-280.808"/>
</g>
<!-- Node30&#45;&gt;Node26 -->
<g id="edge64" class="edge"><title>Node30&#45;&gt;Node26</title>
<path fill="none" stroke="midnightblue" d="M337.591,-369.469C321.566,-352.851 286.266,-314.476 264,-277 254.088,-260.317 246.017,-239.617 240.93,-224.975"/>
<polygon fill="midnightblue" stroke="midnightblue" points="244.128,-223.501 237.64,-215.125 237.488,-225.719 244.128,-223.501"/>
</g>
<!-- Node30&#45;&gt;Node28 -->
<g id="edge65" class="edge"><title>Node30&#45;&gt;Node28</title>
<path fill="none" stroke="midnightblue" d="M346.314,-369.368C346.959,-351.617 348.448,-310.666 349.324,-286.597"/>
<polygon fill="midnightblue" stroke="midnightblue" points="352.822,-286.712 349.688,-276.591 345.826,-286.458 352.822,-286.712"/>
</g>
<!-- Node30&#45;&gt;Node29 -->
<g id="edge69" class="edge"><title>Node30&#45;&gt;Node29</title>
<path fill="none" stroke="midnightblue" d="M341.998,-369.368C333.693,-351.456 314.437,-309.923 303.321,-285.948"/>
<polygon fill="midnightblue" stroke="midnightblue" points="306.365,-284.192 298.983,-276.591 300.014,-287.136 306.365,-284.192"/>
</g>
<!-- Node32&#45;&gt;Node3 -->
<g id="edge76" class="edge"><title>Node32&#45;&gt;Node3</title>
<path fill="none" stroke="midnightblue" d="M192.708,-495.456C146.569,-488.433 75.8512,-474.926 57,-456 32.4295,-431.331 38,-414.817 38,-380 38,-380 38,-380 38,-137.5 38,-41.6801 390.578,-17.4944 500.606,-12.2797"/>
<polygon fill="midnightblue" stroke="midnightblue" points="500.938,-15.7684 510.769,-11.82 500.621,-8.77558 500.938,-15.7684"/>
</g>
<!-- Node32&#45;&gt;Node4 -->
<g id="edge80" class="edge"><title>Node32&#45;&gt;Node4</title>
<path fill="none" stroke="midnightblue" d="M275.076,-492.601C329.057,-481.564 423.568,-462.24 479.612,-450.78"/>
<polygon fill="midnightblue" stroke="midnightblue" points="480.515,-454.168 489.611,-448.736 479.112,-447.31 480.515,-454.168"/>
</g>
<!-- Node32&#45;&gt;Node5 -->
<g id="edge79" class="edge"><title>Node32&#45;&gt;Node5</title>
<path fill="none" stroke="midnightblue" d="M252.353,-492.492C297.358,-471.627 413.423,-417.819 467.06,-392.953"/>
<polygon fill="midnightblue" stroke="midnightblue" points="468.718,-396.042 476.318,-388.661 465.773,-389.692 468.718,-396.042"/>
</g>
<!-- Node32&#45;&gt;Node6 -->
<g id="edge81" class="edge"><title>Node32&#45;&gt;Node6</title>
<path fill="none" stroke="midnightblue" d="M275.291,-498.614C353.011,-493.608 517.82,-480.406 569,-456 608.162,-437.325 620.119,-427.565 640,-389 647.422,-374.602 649.376,-356.146 649.646,-342.581"/>
<polygon fill="midnightblue" stroke="midnightblue" points="653.146,-342.504 649.56,-332.534 646.146,-342.564 653.146,-342.504"/>
</g>
<!-- Node32&#45;&gt;Node13 -->
<g id="edge77" class="edge"><title>Node32&#45;&gt;Node13</title>
<path fill="none" stroke="midnightblue" d="M230.286,-492.428C214.375,-454.316 155.248,-297.395 211,-190 238.991,-136.081 304.342,-101.697 344.491,-84.8555"/>
<polygon fill="midnightblue" stroke="midnightblue" points="345.925,-88.0511 353.874,-81.0464 343.291,-81.5653 345.925,-88.0511"/>
</g>
<!-- Node33 -->
<g id="node34" class="node"><title>Node33</title>
<polygon fill="white" stroke="#bfbfbf" points="66,-425.5 66,-455.5 168,-455.5 168,-425.5 66,-425.5"/>
<text text-anchor="start" x="74" y="-443.5" font-family="Helvetica,sans-Serif" font-size="10.00">opencv2/features2d</text>
<text text-anchor="middle" x="117" y="-432.5" font-family="Helvetica,sans-Serif" font-size="10.00">/features2d.hpp</text>
</g>
<!-- Node32&#45;&gt;Node33 -->
<g id="edge78" class="edge"><title>Node32&#45;&gt;Node33</title>
<path fill="none" stroke="midnightblue" d="M217.237,-492.475C200.724,-484.078 174.955,-470.973 153.68,-460.153"/>
<polygon fill="midnightblue" stroke="midnightblue" points="155.075,-456.936 144.575,-455.523 151.902,-463.176 155.075,-456.936"/>
</g>
</g>
</svg>
