<?xml version="1.0" encoding="UTF-8" standalone="no"?>
<!DOCTYPE svg PUBLIC "-//W3C//DTD SVG 1.1//EN"
 "http://www.w3.org/Graphics/SVG/1.1/DTD/svg11.dtd">
<!-- Generated by graphviz version 2.38.0 (20140413.2041)
 -->
<!-- Title: /home/alejandro/Desarrollo eclipse/os1/include/Sim3Solver.h Pages: 1 -->
<svg width="1334pt" height="475pt"
 viewBox="0.00 0.00 1334.00 475.00" xmlns="http://www.w3.org/2000/svg" xmlns:xlink="http://www.w3.org/1999/xlink">
<g id="graph0" class="graph" transform="scale(1 1) rotate(0) translate(4 471)">
<title>/home/alejandro/Desarrollo eclipse/os1/include/Sim3Solver.h</title>
<polygon fill="white" stroke="none" points="-4,4 -4,-471 1330,-471 1330,4 -4,4"/>
<!-- Node0 -->
<g id="node1" class="node"><title>Node0</title>
<polygon fill="#bfbfbf" stroke="black" points="53.5,-436.5 53.5,-466.5 217.5,-466.5 217.5,-436.5 53.5,-436.5"/>
<text text-anchor="start" x="61.5" y="-454.5" font-family="Helvetica,sans-Serif" font-size="10.00">/home/alejandro/Desarrollo</text>
<text text-anchor="middle" x="135.5" y="-443.5" font-family="Helvetica,sans-Serif" font-size="10.00"> eclipse/os1/include/Sim3Solver.h</text>
</g>
<!-- Node1 -->
<g id="node2" class="node"><title>Node1</title>
<polygon fill="white" stroke="#bfbfbf" points="0,-380.5 0,-399.5 107,-399.5 107,-380.5 0,-380.5"/>
<text text-anchor="middle" x="53.5" y="-387.5" font-family="Helvetica,sans-Serif" font-size="10.00">opencv2/opencv.hpp</text>
</g>
<!-- Node0&#45;&gt;Node1 -->
<g id="edge1" class="edge"><title>Node0&#45;&gt;Node1</title>
<path fill="none" stroke="midnightblue" d="M116.067,-436.399C103.292,-427.129 86.6107,-415.025 73.6856,-405.647"/>
<polygon fill="midnightblue" stroke="midnightblue" points="75.581,-402.698 65.4317,-399.658 71.47,-408.364 75.581,-402.698"/>
</g>
<!-- Node2 -->
<g id="node3" class="node"><title>Node2</title>
<polygon fill="white" stroke="#bfbfbf" points="519.5,-0.5 519.5,-19.5 563.5,-19.5 563.5,-0.5 519.5,-0.5"/>
<text text-anchor="middle" x="541.5" y="-7.5" font-family="Helvetica,sans-Serif" font-size="10.00">vector</text>
</g>
<!-- Node0&#45;&gt;Node2 -->
<g id="edge2" class="edge"><title>Node0&#45;&gt;Node2</title>
<path fill="none" stroke="midnightblue" d="M135.5,-436.342C135.5,-413.751 135.5,-368.153 135.5,-329.5 135.5,-329.5 135.5,-329.5 135.5,-137.5 135.5,-85.8005 172.114,-78.8292 218.5,-56 269.235,-31.0306 437.44,-17.6302 508.914,-12.9467"/>
<polygon fill="midnightblue" stroke="midnightblue" points="509.371,-16.4247 519.128,-12.2939 508.925,-9.43894 509.371,-16.4247"/>
</g>
<!-- Node3 -->
<g id="node4" class="node"><title>Node3</title>
<g id="a_node4"><a xlink:href="_key_frame_8h.html" target="_top" xlink:title="KeyFrame.h">
<polygon fill="white" stroke="black" points="415.5,-380.5 415.5,-399.5 485.5,-399.5 485.5,-380.5 415.5,-380.5"/>
<text text-anchor="middle" x="450.5" y="-387.5" font-family="Helvetica,sans-Serif" font-size="10.00">KeyFrame.h</text>
</a>
</g>
</g>
<!-- Node0&#45;&gt;Node3 -->
<g id="edge3" class="edge"><title>Node0&#45;&gt;Node3</title>
<path fill="none" stroke="midnightblue" d="M209.752,-436.475C270.331,-425.032 353.969,-409.234 405.032,-399.588"/>
<polygon fill="midnightblue" stroke="midnightblue" points="405.927,-402.981 415.104,-397.686 404.628,-396.103 405.927,-402.981"/>
</g>
<!-- Node4 -->
<g id="node5" class="node"><title>Node4</title>
<g id="a_node5"><a xlink:href="_bow_vector_8h.html" target="_top" xlink:title="../Thirdparty/DBoW2\l/DBoW2/BowVector.h">
<polygon fill="white" stroke="black" points="1076,-56.5 1076,-86.5 1189,-86.5 1189,-56.5 1076,-56.5"/>
<text text-anchor="start" x="1084" y="-74.5" font-family="Helvetica,sans-Serif" font-size="10.00">../Thirdparty/DBoW2</text>
<text text-anchor="middle" x="1132.5" y="-63.5" font-family="Helvetica,sans-Serif" font-size="10.00">/DBoW2/BowVector.h</text>
</a>
</g>
</g>
<!-- Node3&#45;&gt;Node4 -->
<g id="edge4" class="edge"><title>Node3&#45;&gt;Node4</title>
<path fill="none" stroke="midnightblue" d="M485.714,-386.855C630.269,-377.591 1170.5,-338.269 1170.5,-268 1170.5,-268 1170.5,-268 1170.5,-204.5 1170.5,-165.342 1154.87,-122.11 1143.65,-96.1409"/>
<polygon fill="midnightblue" stroke="midnightblue" points="1146.74,-94.468 1139.47,-86.7616 1140.35,-97.32 1146.74,-94.468"/>
</g>
<!-- Node7 -->
<g id="node8" class="node"><title>Node7</title>
<g id="a_node8"><a xlink:href="_feature_vector_8h.html" target="_top" xlink:title="../Thirdparty/DBoW2\l/DBoW2/FeatureVector.h">
<polygon fill="white" stroke="black" points="1199,-123.5 1199,-153.5 1326,-153.5 1326,-123.5 1199,-123.5"/>
<text text-anchor="start" x="1207" y="-141.5" font-family="Helvetica,sans-Serif" font-size="10.00">../Thirdparty/DBoW2</text>
<text text-anchor="middle" x="1262.5" y="-130.5" font-family="Helvetica,sans-Serif" font-size="10.00">/DBoW2/FeatureVector.h</text>
</a>
</g>
</g>
<!-- Node3&#45;&gt;Node7 -->
<g id="edge8" class="edge"><title>Node3&#45;&gt;Node7</title>
<path fill="none" stroke="midnightblue" d="M485.658,-389.048C624.228,-388.945 1127.79,-385.68 1184.5,-344 1243.07,-300.953 1257.66,-208.056 1261.29,-163.843"/>
<polygon fill="midnightblue" stroke="midnightblue" points="1264.8,-163.931 1262,-153.711 1257.81,-163.442 1264.8,-163.931"/>
</g>
<!-- Node8 -->
<g id="node9" class="node"><title>Node8</title>
<g id="a_node9"><a xlink:href="_o_r_b_vocabulary_8h.html" target="_top" xlink:title="ORBVocabulary.h">
<polygon fill="white" stroke="black" points="450,-257.5 450,-276.5 545,-276.5 545,-257.5 450,-257.5"/>
<text text-anchor="middle" x="497.5" y="-264.5" font-family="Helvetica,sans-Serif" font-size="10.00">ORBVocabulary.h</text>
</a>
</g>
</g>
<!-- Node3&#45;&gt;Node8 -->
<g id="edge13" class="edge"><title>Node3&#45;&gt;Node8</title>
<path fill="none" stroke="midnightblue" d="M485.518,-384.26C509.931,-378.93 540.831,-367.674 556.5,-344 564.104,-332.511 562.612,-325.348 556.5,-313 549.897,-299.659 537.235,-289.194 525.329,-281.726"/>
<polygon fill="midnightblue" stroke="midnightblue" points="526.891,-278.587 516.484,-276.602 523.382,-284.643 526.891,-278.587"/>
</g>
<!-- Node22 -->
<g id="node23" class="node"><title>Node22</title>
<g id="a_node23"><a xlink:href="_key_frame_database_8h.html" target="_top" xlink:title="KeyFrameDatabase.h">
<polygon fill="white" stroke="black" points="200.5,-319 200.5,-338 312.5,-338 312.5,-319 200.5,-319"/>
<text text-anchor="middle" x="256.5" y="-326" font-family="Helvetica,sans-Serif" font-size="10.00">KeyFrameDatabase.h</text>
</a>
</g>
</g>
<!-- Node3&#45;&gt;Node22 -->
<g id="edge38" class="edge"><title>Node3&#45;&gt;Node22</title>
<path fill="none" stroke="midnightblue" d="M422.705,-380.475C388.85,-370.092 331.529,-352.512 293.845,-340.954"/>
<polygon fill="midnightblue" stroke="midnightblue" points="294.831,-337.595 284.244,-338.009 292.778,-344.288 294.831,-337.595"/>
</g>
<!-- Node25 -->
<g id="node26" class="node"><title>Node25</title>
<polygon fill="white" stroke="#bfbfbf" points="303.5,-257.5 303.5,-276.5 347.5,-276.5 347.5,-257.5 303.5,-257.5"/>
<text text-anchor="middle" x="325.5" y="-264.5" font-family="Helvetica,sans-Serif" font-size="10.00">mutex</text>
</g>
<!-- Node3&#45;&gt;Node25 -->
<g id="edge45" class="edge"><title>Node3&#45;&gt;Node25</title>
<path fill="none" stroke="midnightblue" d="M421.495,-380.456C401.854,-373.403 376.486,-361.654 359.5,-344 343.88,-327.765 334.677,-303.128 329.867,-286.337"/>
<polygon fill="midnightblue" stroke="midnightblue" points="333.237,-285.39 327.317,-276.604 326.466,-287.164 333.237,-285.39"/>
</g>
<!-- Node26 -->
<g id="node27" class="node"><title>Node26</title>
<g id="a_node27"><a xlink:href="_serializer_8h.html" target="_top" xlink:title="Serializer.h">
<polygon fill="white" stroke="black" points="369,-319 369,-338 434,-338 434,-319 369,-319"/>
<text text-anchor="middle" x="401.5" y="-326" font-family="Helvetica,sans-Serif" font-size="10.00">Serializer.h</text>
</a>
</g>
</g>
<!-- Node3&#45;&gt;Node26 -->
<g id="edge44" class="edge"><title>Node3&#45;&gt;Node26</title>
<path fill="none" stroke="midnightblue" d="M443.479,-380.475C436.057,-371.462 424.167,-357.025 414.933,-345.812"/>
<polygon fill="midnightblue" stroke="midnightblue" points="417.566,-343.503 408.507,-338.009 412.163,-347.953 417.566,-343.503"/>
</g>
<!-- Node27 -->
<g id="node28" class="node"><title>Node27</title>
<polygon fill="white" stroke="#bfbfbf" points="452,-313.5 452,-343.5 547,-343.5 547,-313.5 452,-313.5"/>
<text text-anchor="start" x="460" y="-331.5" font-family="Helvetica,sans-Serif" font-size="10.00">boost/serialization</text>
<text text-anchor="middle" x="499.5" y="-320.5" font-family="Helvetica,sans-Serif" font-size="10.00">/access.hpp</text>
</g>
<!-- Node3&#45;&gt;Node27 -->
<g id="edge46" class="edge"><title>Node3&#45;&gt;Node27</title>
<path fill="none" stroke="midnightblue" d="M457.521,-380.475C463.785,-372.869 473.23,-361.399 481.576,-351.265"/>
<polygon fill="midnightblue" stroke="midnightblue" points="484.296,-353.467 487.952,-343.523 478.893,-349.017 484.296,-353.467"/>
</g>
<!-- Node4&#45;&gt;Node2 -->
<g id="edge7" class="edge"><title>Node4&#45;&gt;Node2</title>
<path fill="none" stroke="midnightblue" d="M1075.83,-64.7949C953.846,-52.5137 669.672,-23.9039 573.77,-14.2488"/>
<polygon fill="midnightblue" stroke="midnightblue" points="573.841,-10.7384 563.541,-13.219 573.14,-17.7032 573.841,-10.7384"/>
</g>
<!-- Node5 -->
<g id="node6" class="node"><title>Node5</title>
<polygon fill="white" stroke="#bfbfbf" points="1129.5,-0.5 1129.5,-19.5 1183.5,-19.5 1183.5,-0.5 1129.5,-0.5"/>
<text text-anchor="middle" x="1156.5" y="-7.5" font-family="Helvetica,sans-Serif" font-size="10.00">iostream</text>
</g>
<!-- Node4&#45;&gt;Node5 -->
<g id="edge5" class="edge"><title>Node4&#45;&gt;Node5</title>
<path fill="none" stroke="midnightblue" d="M1138.19,-56.3993C1141.5,-48.1989 1145.7,-37.7809 1149.24,-28.9936"/>
<polygon fill="midnightblue" stroke="midnightblue" points="1152.51,-30.2411 1153.01,-19.6578 1146.02,-27.6225 1152.51,-30.2411"/>
</g>
<!-- Node6 -->
<g id="node7" class="node"><title>Node6</title>
<polygon fill="white" stroke="#bfbfbf" points="1251,-0.5 1251,-19.5 1286,-19.5 1286,-0.5 1251,-0.5"/>
<text text-anchor="middle" x="1268.5" y="-7.5" font-family="Helvetica,sans-Serif" font-size="10.00">map</text>
</g>
<!-- Node4&#45;&gt;Node6 -->
<g id="edge6" class="edge"><title>Node4&#45;&gt;Node6</title>
<path fill="none" stroke="midnightblue" d="M1164.73,-56.3993C1188.03,-46.2074 1219.15,-32.5898 1241.22,-22.935"/>
<polygon fill="midnightblue" stroke="midnightblue" points="1242.9,-26.0192 1250.66,-18.8044 1240.1,-19.6061 1242.9,-26.0192"/>
</g>
<!-- Node7&#45;&gt;Node2 -->
<g id="edge11" class="edge"><title>Node7&#45;&gt;Node2</title>
<path fill="none" stroke="midnightblue" d="M1253.4,-123.277C1239.5,-102.038 1213.05,-63.6998 1198.5,-56 1142.96,-26.6084 698.295,-14.5114 573.793,-11.6805"/>
<polygon fill="midnightblue" stroke="midnightblue" points="573.816,-8.18026 563.74,-11.4564 573.66,-15.1785 573.816,-8.18026"/>
</g>
<!-- Node7&#45;&gt;Node4 -->
<g id="edge9" class="edge"><title>Node7&#45;&gt;Node4</title>
<path fill="none" stroke="midnightblue" d="M1234.29,-123.396C1215.38,-113.941 1190.28,-101.39 1169.73,-91.1168"/>
<polygon fill="midnightblue" stroke="midnightblue" points="1171.16,-87.9182 1160.65,-86.5765 1168.03,-94.1792 1171.16,-87.9182"/>
</g>
<!-- Node7&#45;&gt;Node5 -->
<g id="edge12" class="edge"><title>Node7&#45;&gt;Node5</title>
<path fill="none" stroke="midnightblue" d="M1260.08,-123.383C1256.46,-105.893 1248.21,-75.9664 1231.5,-56 1219.91,-42.15 1202.9,-31.4556 1188,-23.9744"/>
<polygon fill="midnightblue" stroke="midnightblue" points="1189.14,-20.6388 1178.6,-19.5213 1186.14,-26.9651 1189.14,-20.6388"/>
</g>
<!-- Node7&#45;&gt;Node6 -->
<g id="edge10" class="edge"><title>Node7&#45;&gt;Node6</title>
<path fill="none" stroke="midnightblue" d="M1264.98,-123.405C1266.63,-113.306 1268.65,-99.3623 1269.5,-87 1270.45,-73.2549 1269.65,-69.7769 1269.5,-56 1269.4,-47.3961 1269.21,-37.8686 1269.01,-29.8037"/>
<polygon fill="midnightblue" stroke="midnightblue" points="1272.51,-29.5323 1268.75,-19.6259 1265.51,-29.7128 1272.51,-29.5323"/>
</g>
<!-- Node9 -->
<g id="node10" class="node"><title>Node9</title>
<g id="a_node10"><a xlink:href="_f_o_r_b_8h.html" target="_top" xlink:title="../Thirdparty/DBoW2\l/DBoW2/FORB.h">
<polygon fill="white" stroke="black" points="366,-190.5 366,-220.5 473,-220.5 473,-190.5 366,-190.5"/>
<text text-anchor="start" x="374" y="-208.5" font-family="Helvetica,sans-Serif" font-size="10.00">../Thirdparty/DBoW2</text>
<text text-anchor="middle" x="419.5" y="-197.5" font-family="Helvetica,sans-Serif" font-size="10.00">/DBoW2/FORB.h</text>
</a>
</g>
</g>
<!-- Node8&#45;&gt;Node9 -->
<g id="edge14" class="edge"><title>Node8&#45;&gt;Node9</title>
<path fill="none" stroke="midnightblue" d="M486.325,-257.475C475.859,-249.492 459.816,-237.254 446.073,-226.77"/>
<polygon fill="midnightblue" stroke="midnightblue" points="447.957,-223.805 437.883,-220.523 443.711,-229.371 447.957,-223.805"/>
</g>
<!-- Node13 -->
<g id="node14" class="node"><title>Node13</title>
<g id="a_node14"><a xlink:href="_templated_vocabulary_8h.html" target="_top" xlink:title="../Thirdparty/DBoW2\l/DBoW2/TemplatedVocabulary.h">
<polygon fill="white" stroke="black" points="702.5,-190.5 702.5,-220.5 862.5,-220.5 862.5,-190.5 702.5,-190.5"/>
<text text-anchor="start" x="710.5" y="-208.5" font-family="Helvetica,sans-Serif" font-size="10.00">../Thirdparty/DBoW2</text>
<text text-anchor="middle" x="782.5" y="-197.5" font-family="Helvetica,sans-Serif" font-size="10.00">/DBoW2/TemplatedVocabulary.h</text>
</a>
</g>
</g>
<!-- Node8&#45;&gt;Node13 -->
<g id="edge22" class="edge"><title>Node8&#45;&gt;Node13</title>
<path fill="none" stroke="midnightblue" d="M538.334,-257.475C581.803,-248.4 651.608,-233.826 705.47,-222.582"/>
<polygon fill="midnightblue" stroke="midnightblue" points="706.257,-225.993 715.331,-220.523 704.827,-219.141 706.257,-225.993"/>
</g>
<!-- Node9&#45;&gt;Node2 -->
<g id="edge16" class="edge"><title>Node9&#45;&gt;Node2</title>
<path fill="none" stroke="midnightblue" d="M428.471,-190.271C450.394,-155.5 506.636,-66.2972 530.514,-28.4248"/>
<polygon fill="midnightblue" stroke="midnightblue" points="533.72,-29.9026 536.092,-19.5769 527.798,-26.1693 533.72,-29.9026"/>
</g>
<!-- Node10 -->
<g id="node11" class="node"><title>Node10</title>
<polygon fill="white" stroke="#bfbfbf" points="249.5,-62 249.5,-81 365.5,-81 365.5,-62 249.5,-62"/>
<text text-anchor="middle" x="307.5" y="-69" font-family="Helvetica,sans-Serif" font-size="10.00">opencv2/core/core.hpp</text>
</g>
<!-- Node9&#45;&gt;Node10 -->
<g id="edge15" class="edge"><title>Node9&#45;&gt;Node10</title>
<path fill="none" stroke="midnightblue" d="M365.963,-197.212C339.464,-190.604 309.743,-178.009 293.5,-154 280.656,-135.014 289.279,-108.009 297.588,-90.3719"/>
<polygon fill="midnightblue" stroke="midnightblue" points="300.84,-91.6986 302.279,-81.2018 294.609,-88.5105 300.84,-91.6986"/>
</g>
<!-- Node11 -->
<g id="node12" class="node"><title>Node11</title>
<polygon fill="white" stroke="#bfbfbf" points="422,-62 422,-81 463,-81 463,-62 422,-62"/>
<text text-anchor="middle" x="442.5" y="-69" font-family="Helvetica,sans-Serif" font-size="10.00">string</text>
</g>
<!-- Node9&#45;&gt;Node11 -->
<g id="edge17" class="edge"><title>Node9&#45;&gt;Node11</title>
<path fill="none" stroke="midnightblue" d="M421.961,-190.374C426.139,-166.397 434.616,-117.748 439.267,-91.0561"/>
<polygon fill="midnightblue" stroke="midnightblue" points="442.733,-91.5497 441.002,-81.0973 435.837,-90.348 442.733,-91.5497"/>
</g>
<!-- Node12 -->
<g id="node13" class="node"><title>Node12</title>
<g id="a_node13"><a xlink:href="_f_class_8h.html" target="_top" xlink:title="FClass.h">
<polygon fill="white" stroke="black" points="335.5,-129 335.5,-148 391.5,-148 391.5,-129 335.5,-129"/>
<text text-anchor="middle" x="363.5" y="-136" font-family="Helvetica,sans-Serif" font-size="10.00">FClass.h</text>
</a>
</g>
</g>
<!-- Node9&#45;&gt;Node12 -->
<g id="edge18" class="edge"><title>Node9&#45;&gt;Node12</title>
<path fill="none" stroke="midnightblue" d="M407.349,-190.396C398.617,-180.261 386.82,-166.567 377.661,-155.937"/>
<polygon fill="midnightblue" stroke="midnightblue" points="380.169,-153.486 370.991,-148.195 374.866,-158.055 380.169,-153.486"/>
</g>
<!-- Node12&#45;&gt;Node2 -->
<g id="edge20" class="edge"><title>Node12&#45;&gt;Node2</title>
<path fill="none" stroke="midnightblue" d="M366.45,-128.774C372.48,-112.215 387.775,-76.099 412.5,-56 440.571,-33.1811 480.981,-21.5795 509.065,-15.9287"/>
<polygon fill="midnightblue" stroke="midnightblue" points="509.984,-19.3176 519.173,-14.0433 508.701,-12.4363 509.984,-19.3176"/>
</g>
<!-- Node12&#45;&gt;Node10 -->
<g id="edge19" class="edge"><title>Node12&#45;&gt;Node10</title>
<path fill="none" stroke="midnightblue" d="M355.948,-128.734C347.215,-118.598 332.648,-101.69 321.763,-89.0556"/>
<polygon fill="midnightblue" stroke="midnightblue" points="324.112,-86.4189 314.933,-81.1273 318.808,-90.9879 324.112,-86.4189"/>
</g>
<!-- Node12&#45;&gt;Node11 -->
<g id="edge21" class="edge"><title>Node12&#45;&gt;Node11</title>
<path fill="none" stroke="midnightblue" d="M374.154,-128.734C386.947,-118.208 408.616,-100.379 424.127,-87.6174"/>
<polygon fill="midnightblue" stroke="midnightblue" points="426.516,-90.1837 432.015,-81.1273 422.069,-84.7782 426.516,-90.1837"/>
</g>
<!-- Node13&#45;&gt;Node2 -->
<g id="edge24" class="edge"><title>Node13&#45;&gt;Node2</title>
<path fill="none" stroke="midnightblue" d="M702.298,-194.912C671.147,-187.816 636.922,-175.472 611.5,-154 572.178,-120.788 553.024,-60.2317 545.503,-29.6832"/>
<polygon fill="midnightblue" stroke="midnightblue" points="548.828,-28.5234 543.173,-19.5641 542.007,-30.0945 548.828,-28.5234"/>
</g>
<!-- Node13&#45;&gt;Node4 -->
<g id="edge32" class="edge"><title>Node13&#45;&gt;Node4</title>
<path fill="none" stroke="midnightblue" d="M862.558,-202.35C948.647,-198.342 1077.98,-186.866 1113.5,-154 1129.03,-139.633 1133.04,-115.244 1133.61,-96.8809"/>
<polygon fill="midnightblue" stroke="midnightblue" points="1137.11,-96.6257 1133.6,-86.6284 1130.11,-96.6311 1137.11,-96.6257"/>
</g>
<!-- Node13&#45;&gt;Node7 -->
<g id="edge31" class="edge"><title>Node13&#45;&gt;Node7</title>
<path fill="none" stroke="midnightblue" d="M862.571,-193.657C953.491,-181.345 1100.61,-161.423 1188.8,-149.48"/>
<polygon fill="midnightblue" stroke="midnightblue" points="1189.29,-152.946 1198.73,-148.136 1188.35,-146.01 1189.29,-152.946"/>
</g>
<!-- Node13&#45;&gt;Node10 -->
<g id="edge29" class="edge"><title>Node13&#45;&gt;Node10</title>
<path fill="none" stroke="midnightblue" d="M702.337,-200.604C579.004,-193.876 353.993,-178.408 326.5,-154 308.963,-138.431 305.987,-110.094 306.182,-91.2796"/>
<polygon fill="midnightblue" stroke="midnightblue" points="309.682,-91.368 306.595,-81.2329 302.687,-91.0809 309.682,-91.368"/>
</g>
<!-- Node13&#45;&gt;Node11 -->
<g id="edge27" class="edge"><title>Node13&#45;&gt;Node11</title>
<path fill="none" stroke="midnightblue" d="M702.488,-202.939C646.613,-198.738 572.028,-186.689 514.5,-154 487.117,-138.44 464.849,-108.553 452.656,-89.6167"/>
<polygon fill="midnightblue" stroke="midnightblue" points="455.607,-87.734 447.364,-81.0788 449.658,-91.4223 455.607,-87.734"/>
</g>
<!-- Node14 -->
<g id="node15" class="node"><title>Node14</title>
<polygon fill="white" stroke="#bfbfbf" points="844,-129 844,-148 893,-148 893,-129 844,-129"/>
<text text-anchor="middle" x="868.5" y="-136" font-family="Helvetica,sans-Serif" font-size="10.00">cassert</text>
</g>
<!-- Node13&#45;&gt;Node14 -->
<g id="edge23" class="edge"><title>Node13&#45;&gt;Node14</title>
<path fill="none" stroke="midnightblue" d="M801.161,-190.396C815.234,-179.759 834.493,-165.203 848.811,-154.381"/>
<polygon fill="midnightblue" stroke="midnightblue" points="851.129,-157.016 856.996,-148.195 846.908,-151.432 851.129,-157.016"/>
</g>
<!-- Node15 -->
<g id="node16" class="node"><title>Node15</title>
<polygon fill="white" stroke="#bfbfbf" points="911,-129 911,-148 962,-148 962,-129 911,-129"/>
<text text-anchor="middle" x="936.5" y="-136" font-family="Helvetica,sans-Serif" font-size="10.00">numeric</text>
</g>
<!-- Node13&#45;&gt;Node15 -->
<g id="edge25" class="edge"><title>Node13&#45;&gt;Node15</title>
<path fill="none" stroke="midnightblue" d="M816.14,-190.394C840.206,-180.29 873.363,-166.344 902.5,-154 903.903,-153.405 905.339,-152.796 906.789,-152.181"/>
<polygon fill="midnightblue" stroke="midnightblue" points="908.54,-155.239 916.371,-148.103 905.799,-148.798 908.54,-155.239"/>
</g>
<!-- Node16 -->
<g id="node17" class="node"><title>Node16</title>
<polygon fill="white" stroke="#bfbfbf" points="980.5,-129 980.5,-148 1030.5,-148 1030.5,-129 980.5,-129"/>
<text text-anchor="middle" x="1005.5" y="-136" font-family="Helvetica,sans-Serif" font-size="10.00">fstream</text>
</g>
<!-- Node13&#45;&gt;Node16 -->
<g id="edge26" class="edge"><title>Node13&#45;&gt;Node16</title>
<path fill="none" stroke="midnightblue" d="M844.022,-190.408C881.304,-181.291 929.599,-168.451 971.5,-154 973.365,-153.357 975.273,-152.659 977.186,-151.928"/>
<polygon fill="midnightblue" stroke="midnightblue" points="978.666,-155.106 986.625,-148.112 976.042,-148.616 978.666,-155.106"/>
</g>
<!-- Node17 -->
<g id="node18" class="node"><title>Node17</title>
<polygon fill="white" stroke="#bfbfbf" points="1048.5,-129 1048.5,-148 1104.5,-148 1104.5,-129 1048.5,-129"/>
<text text-anchor="middle" x="1076.5" y="-136" font-family="Helvetica,sans-Serif" font-size="10.00">algorithm</text>
</g>
<!-- Node13&#45;&gt;Node17 -->
<g id="edge28" class="edge"><title>Node13&#45;&gt;Node17</title>
<path fill="none" stroke="midnightblue" d="M862.691,-192.551C913.837,-183.998 981.223,-170.995 1039.5,-154 1041.93,-153.29 1044.43,-152.485 1046.92,-151.627"/>
<polygon fill="midnightblue" stroke="midnightblue" points="1048.2,-154.888 1056.37,-148.144 1045.78,-148.32 1048.2,-154.888"/>
</g>
<!-- Node18 -->
<g id="node19" class="node"><title>Node18</title>
<polygon fill="white" stroke="#bfbfbf" points="523.5,-129 523.5,-148 563.5,-148 563.5,-129 523.5,-129"/>
<text text-anchor="middle" x="543.5" y="-136" font-family="Helvetica,sans-Serif" font-size="10.00">limits</text>
</g>
<!-- Node13&#45;&gt;Node18 -->
<g id="edge30" class="edge"><title>Node13&#45;&gt;Node18</title>
<path fill="none" stroke="midnightblue" d="M713.376,-190.397C673.251,-181.487 622.001,-168.862 577.5,-154 575.583,-153.36 573.622,-152.657 571.659,-151.918"/>
<polygon fill="midnightblue" stroke="midnightblue" points="572.58,-148.516 561.996,-148.029 569.966,-155.01 572.58,-148.516"/>
</g>
<!-- Node19 -->
<g id="node20" class="node"><title>Node19</title>
<g id="a_node20"><a xlink:href="_scoring_object_8h.html" target="_top" xlink:title="ScoringObject.h">
<polygon fill="white" stroke="black" points="739.5,-129 739.5,-148 825.5,-148 825.5,-129 739.5,-129"/>
<text text-anchor="middle" x="782.5" y="-136" font-family="Helvetica,sans-Serif" font-size="10.00">ScoringObject.h</text>
</a>
</g>
</g>
<!-- Node13&#45;&gt;Node19 -->
<g id="edge33" class="edge"><title>Node13&#45;&gt;Node19</title>
<path fill="none" stroke="midnightblue" d="M782.5,-190.396C782.5,-181.064 782.5,-168.714 782.5,-158.517"/>
<polygon fill="midnightblue" stroke="midnightblue" points="786,-158.195 782.5,-148.195 779,-158.195 786,-158.195"/>
</g>
<!-- Node20 -->
<g id="node21" class="node"><title>Node20</title>
<g id="a_node21"><a xlink:href="_random_8h.html" target="_top" xlink:title="../DUtils/Random.h">
<polygon fill="white" stroke="black" points="620,-129 620,-148 721,-148 721,-129 620,-129"/>
<text text-anchor="middle" x="670.5" y="-136" font-family="Helvetica,sans-Serif" font-size="10.00">../DUtils/Random.h</text>
</a>
</g>
</g>
<!-- Node13&#45;&gt;Node20 -->
<g id="edge35" class="edge"><title>Node13&#45;&gt;Node20</title>
<path fill="none" stroke="midnightblue" d="M758.198,-190.396C739.155,-179.344 712.82,-164.061 693.989,-153.132"/>
<polygon fill="midnightblue" stroke="midnightblue" points="695.564,-149.999 685.158,-148.007 692.05,-156.054 695.564,-149.999"/>
</g>
<!-- Node19&#45;&gt;Node4 -->
<g id="edge34" class="edge"><title>Node19&#45;&gt;Node4</title>
<path fill="none" stroke="midnightblue" d="M811.807,-128.928C819.48,-126.836 827.769,-124.71 835.5,-123 913.947,-105.644 1005.19,-90.934 1065.62,-81.9436"/>
<polygon fill="midnightblue" stroke="midnightblue" points="1066.41,-85.365 1075.79,-80.4413 1065.39,-78.4401 1066.41,-85.365"/>
</g>
<!-- Node20&#45;&gt;Node2 -->
<g id="edge37" class="edge"><title>Node20&#45;&gt;Node2</title>
<path fill="none" stroke="midnightblue" d="M674.098,-128.91C680.177,-112.894 690.354,-78.101 674.5,-56 651.714,-24.2353 605.282,-14.6088 573.772,-11.8493"/>
<polygon fill="midnightblue" stroke="midnightblue" points="573.932,-8.35204 563.714,-11.1546 573.449,-15.3354 573.932,-8.35204"/>
</g>
<!-- Node21 -->
<g id="node22" class="node"><title>Node21</title>
<polygon fill="white" stroke="#bfbfbf" points="620,-62 620,-81 665,-81 665,-62 620,-62"/>
<text text-anchor="middle" x="642.5" y="-69" font-family="Helvetica,sans-Serif" font-size="10.00">cstdlib</text>
</g>
<!-- Node20&#45;&gt;Node21 -->
<g id="edge36" class="edge"><title>Node20&#45;&gt;Node21</title>
<path fill="none" stroke="midnightblue" d="M666.724,-128.734C662.525,-118.988 655.63,-102.981 650.268,-90.5318"/>
<polygon fill="midnightblue" stroke="midnightblue" points="653.387,-88.9267 646.216,-81.1273 646.958,-91.6961 653.387,-88.9267"/>
</g>
<!-- Node22&#45;&gt;Node2 -->
<g id="edge39" class="edge"><title>Node22&#45;&gt;Node2</title>
<path fill="none" stroke="midnightblue" d="M252.208,-318.942C242.862,-299.487 221.5,-250.236 221.5,-206.5 221.5,-206.5 221.5,-206.5 221.5,-137.5 221.5,-100.306 213.162,-81.2184 240.5,-56 279.116,-20.3784 439.368,-12.9447 508.98,-11.4009"/>
<polygon fill="midnightblue" stroke="midnightblue" points="509.411,-14.8933 519.342,-11.2003 509.276,-7.89461 509.411,-14.8933"/>
</g>
<!-- Node22&#45;&gt;Node8 -->
<g id="edge42" class="edge"><title>Node22&#45;&gt;Node8</title>
<path fill="none" stroke="midnightblue" d="M291.029,-318.975C333.712,-308.437 406.421,-290.486 453.182,-278.941"/>
<polygon fill="midnightblue" stroke="midnightblue" points="454.165,-282.304 463.035,-276.509 452.487,-275.508 454.165,-282.304"/>
</g>
<!-- Node23 -->
<g id="node24" class="node"><title>Node23</title>
<polygon fill="white" stroke="#bfbfbf" points="250,-257.5 250,-276.5 279,-276.5 279,-257.5 250,-257.5"/>
<text text-anchor="middle" x="264.5" y="-264.5" font-family="Helvetica,sans-Serif" font-size="10.00">list</text>
</g>
<!-- Node22&#45;&gt;Node23 -->
<g id="edge40" class="edge"><title>Node22&#45;&gt;Node23</title>
<path fill="none" stroke="midnightblue" d="M257.646,-318.975C258.775,-310.58 260.536,-297.481 261.991,-286.663"/>
<polygon fill="midnightblue" stroke="midnightblue" points="265.492,-286.886 263.356,-276.509 258.555,-285.953 265.492,-286.886"/>
</g>
<!-- Node24 -->
<g id="node25" class="node"><title>Node24</title>
<polygon fill="white" stroke="#bfbfbf" points="163.5,-257.5 163.5,-276.5 193.5,-276.5 193.5,-257.5 163.5,-257.5"/>
<text text-anchor="middle" x="178.5" y="-264.5" font-family="Helvetica,sans-Serif" font-size="10.00">set</text>
</g>
<!-- Node22&#45;&gt;Node24 -->
<g id="edge41" class="edge"><title>Node22&#45;&gt;Node24</title>
<path fill="none" stroke="midnightblue" d="M245.325,-318.975C232.929,-309.52 212.71,-294.096 197.754,-282.687"/>
<polygon fill="midnightblue" stroke="midnightblue" points="199.728,-279.791 189.655,-276.509 195.483,-285.357 199.728,-279.791"/>
</g>
<!-- Node22&#45;&gt;Node25 -->
<g id="edge43" class="edge"><title>Node22&#45;&gt;Node25</title>
<path fill="none" stroke="midnightblue" d="M266.386,-318.975C277.146,-309.697 294.571,-294.671 307.721,-283.331"/>
<polygon fill="midnightblue" stroke="midnightblue" points="310.345,-285.69 315.632,-276.509 305.773,-280.389 310.345,-285.69"/>
</g>
</g>
</svg>
