<?xml version="1.0" encoding="UTF-8" standalone="no"?>
<!DOCTYPE svg PUBLIC "-//W3C//DTD SVG 1.1//EN"
 "http://www.w3.org/Graphics/SVG/1.1/DTD/svg11.dtd">
<!-- Generated by graphviz version 2.38.0 (20140413.2041)
 -->
<!-- Title: /home/alejandro/Desarrollo eclipse/os1/include/System.h Pages: 1 -->
<svg width="1034pt" height="307pt"
 viewBox="0.00 0.00 1033.65 307.00" xmlns="http://www.w3.org/2000/svg" xmlns:xlink="http://www.w3.org/1999/xlink">
<g id="graph0" class="graph" transform="scale(1 1) rotate(0) translate(4 303)">
<title>/home/alejandro/Desarrollo eclipse/os1/include/System.h</title>
<polygon fill="white" stroke="none" points="-4,4 -4,-303 1029.65,-303 1029.65,4 -4,4"/>
<!-- Node23 -->
<g id="node1" class="node"><title>Node23</title>
<polygon fill="#bfbfbf" stroke="black" points="563.655,-268.5 563.655,-298.5 711.655,-298.5 711.655,-268.5 563.655,-268.5"/>
<text text-anchor="start" x="571.655" y="-286.5" font-family="Helvetica,sans-Serif" font-size="10.00">/home/alejandro/Desarrollo</text>
<text text-anchor="middle" x="637.655" y="-275.5" font-family="Helvetica,sans-Serif" font-size="10.00"> eclipse/os1/include/System.h</text>
</g>
<!-- Node24 -->
<g id="node2" class="node"><title>Node24</title>
<g id="a_node2"><a xlink:href="_tracking_8h.html" target="_top" xlink:title="/home/alejandro/Desarrollo\l eclipse/os1/include/Tracking.h">
<polygon fill="white" stroke="black" points="335.655,-201.5 335.655,-231.5 487.655,-231.5 487.655,-201.5 335.655,-201.5"/>
<text text-anchor="start" x="343.655" y="-219.5" font-family="Helvetica,sans-Serif" font-size="10.00">/home/alejandro/Desarrollo</text>
<text text-anchor="middle" x="411.655" y="-208.5" font-family="Helvetica,sans-Serif" font-size="10.00"> eclipse/os1/include/Tracking.h</text>
</a>
</g>
</g>
<!-- Node23&#45;&gt;Node24 -->
<g id="edge1" class="edge"><title>Node23&#45;&gt;Node24</title>
<path fill="none" stroke="midnightblue" d="M578.824,-265.58C542.117,-255.022 495.421,-241.592 460.717,-231.611"/>
<polygon fill="midnightblue" stroke="midnightblue" points="578.316,-269.076 588.894,-268.476 580.251,-262.348 578.316,-269.076"/>
</g>
<!-- Node28 -->
<g id="node6" class="node"><title>Node28</title>
<g id="a_node6"><a xlink:href="_system_8cc.html" target="_top" xlink:title="/home/alejandro/Desarrollo\l eclipse/os1/src/System.cc">
<polygon fill="white" stroke="black" points="55.6545,-0.5 55.6545,-30.5 191.655,-30.5 191.655,-0.5 55.6545,-0.5"/>
<text text-anchor="start" x="63.6545" y="-18.5" font-family="Helvetica,sans-Serif" font-size="10.00">/home/alejandro/Desarrollo</text>
<text text-anchor="middle" x="123.655" y="-7.5" font-family="Helvetica,sans-Serif" font-size="10.00"> eclipse/os1/src/System.cc</text>
</a>
</g>
</g>
<!-- Node23&#45;&gt;Node28 -->
<g id="edge28" class="edge"><title>Node23&#45;&gt;Node28</title>
<path fill="none" stroke="midnightblue" d="M553.037,-279.667C397.908,-272.483 77.6996,-247.751 10.6545,-165 -28.5025,-116.67 54.6385,-57.3039 98.6563,-30.6413"/>
<polygon fill="midnightblue" stroke="midnightblue" points="553.317,-283.183 563.464,-280.135 553.631,-276.19 553.317,-283.183"/>
</g>
<!-- Node35 -->
<g id="node13" class="node"><title>Node35</title>
<g id="a_node13"><a xlink:href="main_8cc.html" target="_top" xlink:title="/home/alejandro/Desarrollo\l eclipse/os1/src/main.cc">
<polygon fill="white" stroke="black" points="552.155,-134.5 552.155,-164.5 685.155,-164.5 685.155,-134.5 552.155,-134.5"/>
<text text-anchor="start" x="560.155" y="-152.5" font-family="Helvetica,sans-Serif" font-size="10.00">/home/alejandro/Desarrollo</text>
<text text-anchor="middle" x="618.655" y="-141.5" font-family="Helvetica,sans-Serif" font-size="10.00"> eclipse/os1/src/main.cc</text>
</a>
</g>
</g>
<!-- Node23&#45;&gt;Node35 -->
<g id="edge26" class="edge"><title>Node23&#45;&gt;Node35</title>
<path fill="none" stroke="midnightblue" d="M634.184,-258.39C630.227,-230.901 623.892,-186.888 620.673,-164.525"/>
<polygon fill="midnightblue" stroke="midnightblue" points="630.732,-258.974 635.621,-268.374 637.661,-257.977 630.732,-258.974"/>
</g>
<!-- Node36 -->
<g id="node14" class="node"><title>Node36</title>
<g id="a_node14"><a xlink:href="_serializer_8cpp.html" target="_top" xlink:title="/home/alejandro/Desarrollo\l eclipse/os1/src/Serializer.cpp">
<polygon fill="white" stroke="black" points="703.655,-134.5 703.655,-164.5 851.655,-164.5 851.655,-134.5 703.655,-134.5"/>
<text text-anchor="start" x="711.655" y="-152.5" font-family="Helvetica,sans-Serif" font-size="10.00">/home/alejandro/Desarrollo</text>
<text text-anchor="middle" x="777.655" y="-141.5" font-family="Helvetica,sans-Serif" font-size="10.00"> eclipse/os1/src/Serializer.cpp</text>
</a>
</g>
</g>
<!-- Node23&#45;&gt;Node36 -->
<g id="edge27" class="edge"><title>Node23&#45;&gt;Node36</title>
<path fill="none" stroke="midnightblue" d="M645.797,-258.598C652.792,-240.929 664.345,-217.22 680.655,-201 696.809,-184.934 719.132,-172.834 738.291,-164.512"/>
<polygon fill="midnightblue" stroke="midnightblue" points="642.43,-257.609 642.203,-268.201 648.986,-260.062 642.43,-257.609"/>
</g>
<!-- Node37 -->
<g id="node15" class="node"><title>Node37</title>
<g id="a_node15"><a xlink:href="_viewer_8cc.html" target="_top" xlink:title="/home/alejandro/Desarrollo\l eclipse/os1/src/Viewer.cc">
<polygon fill="white" stroke="black" points="870.155,-134.5 870.155,-164.5 1003.15,-164.5 1003.15,-134.5 870.155,-134.5"/>
<text text-anchor="start" x="878.155" y="-152.5" font-family="Helvetica,sans-Serif" font-size="10.00">/home/alejandro/Desarrollo</text>
<text text-anchor="middle" x="936.655" y="-141.5" font-family="Helvetica,sans-Serif" font-size="10.00"> eclipse/os1/src/Viewer.cc</text>
</a>
</g>
</g>
<!-- Node23&#45;&gt;Node37 -->
<g id="edge29" class="edge"><title>Node23&#45;&gt;Node37</title>
<path fill="none" stroke="midnightblue" d="M656.835,-260.636C676.988,-237.877 706.714,-204.988 713.655,-201 727.271,-193.176 809.268,-175.728 869.901,-163.544"/>
<polygon fill="midnightblue" stroke="midnightblue" points="654.153,-258.386 650.159,-268.199 659.401,-263.018 654.153,-258.386"/>
</g>
<!-- Node38 -->
<g id="node16" class="node"><title>Node38</title>
<g id="a_node16"><a xlink:href="_key_frame_8cc.html" target="_top" xlink:title="/home/alejandro/Desarrollo\l eclipse/os1/src/KeyFrame.cc">
<polygon fill="white" stroke="black" points="723.155,-201.5 723.155,-231.5 870.155,-231.5 870.155,-201.5 723.155,-201.5"/>
<text text-anchor="start" x="731.155" y="-219.5" font-family="Helvetica,sans-Serif" font-size="10.00">/home/alejandro/Desarrollo</text>
<text text-anchor="middle" x="796.655" y="-208.5" font-family="Helvetica,sans-Serif" font-size="10.00"> eclipse/os1/src/KeyFrame.cc</text>
</a>
</g>
</g>
<!-- Node23&#45;&gt;Node38 -->
<g id="edge25" class="edge"><title>Node23&#45;&gt;Node38</title>
<path fill="none" stroke="midnightblue" d="M681.577,-264.544C707.02,-254.143 738.588,-241.238 762.221,-231.577"/>
<polygon fill="midnightblue" stroke="midnightblue" points="680.087,-261.372 672.155,-268.396 682.736,-267.852 680.087,-261.372"/>
</g>
<!-- Node25 -->
<g id="node3" class="node"><title>Node25</title>
<g id="a_node3"><a xlink:href="_loop_closing_8h.html" target="_top" xlink:title="/home/alejandro/Desarrollo\l eclipse/os1/include/LoopClosing.h">
<polygon fill="white" stroke="black" points="327.655,-134.5 327.655,-164.5 495.655,-164.5 495.655,-134.5 327.655,-134.5"/>
<text text-anchor="start" x="335.655" y="-152.5" font-family="Helvetica,sans-Serif" font-size="10.00">/home/alejandro/Desarrollo</text>
<text text-anchor="middle" x="411.655" y="-141.5" font-family="Helvetica,sans-Serif" font-size="10.00"> eclipse/os1/include/LoopClosing.h</text>
</a>
</g>
</g>
<!-- Node24&#45;&gt;Node25 -->
<g id="edge2" class="edge"><title>Node24&#45;&gt;Node25</title>
<path fill="none" stroke="midnightblue" d="M405.109,-191.403C404.66,-182.37 404.95,-172.408 405.98,-164.577"/>
<polygon fill="midnightblue" stroke="midnightblue" points="401.625,-191.736 405.976,-201.396 408.599,-191.131 401.625,-191.736"/>
</g>
<!-- Node26 -->
<g id="node4" class="node"><title>Node26</title>
<g id="a_node4"><a xlink:href="_local_mapping_8h.html" target="_top" xlink:title="/home/alejandro/Desarrollo\l eclipse/os1/include/LocalMapping.h">
<polygon fill="white" stroke="black" points="203.655,-67.5 203.655,-97.5 377.655,-97.5 377.655,-67.5 203.655,-67.5"/>
<text text-anchor="start" x="211.655" y="-85.5" font-family="Helvetica,sans-Serif" font-size="10.00">/home/alejandro/Desarrollo</text>
<text text-anchor="middle" x="290.655" y="-74.5" font-family="Helvetica,sans-Serif" font-size="10.00"> eclipse/os1/include/LocalMapping.h</text>
</a>
</g>
</g>
<!-- Node24&#45;&gt;Node26 -->
<g id="edge18" class="edge"><title>Node24&#45;&gt;Node26</title>
<path fill="none" stroke="midnightblue" d="M353.386,-196.995C337.294,-189.145 321.161,-178.602 309.655,-165 293.035,-145.354 286.108,-115.317 286.082,-97.7202"/>
<polygon fill="midnightblue" stroke="midnightblue" points="352.272,-200.334 362.822,-201.308 355.182,-193.967 352.272,-200.334"/>
</g>
<!-- Node24&#45;&gt;Node28 -->
<g id="edge22" class="edge"><title>Node24&#45;&gt;Node28</title>
<path fill="none" stroke="midnightblue" d="M365.66,-197.579C319.121,-177.931 246.79,-143.105 194.655,-98 170.387,-77.005 146.86,-47.6941 133.913,-30.5445"/>
<polygon fill="midnightblue" stroke="midnightblue" points="364.319,-200.812 374.896,-201.422 367.008,-194.349 364.319,-200.812"/>
</g>
<!-- Node33 -->
<g id="node11" class="node"><title>Node33</title>
<g id="a_node11"><a xlink:href="_tracking_8cc.html" target="_top" xlink:title="/home/alejandro/Desarrollo\l eclipse/os1/src/Tracking.cc">
<polygon fill="white" stroke="black" points="885.655,-0.5 885.655,-30.5 1025.65,-30.5 1025.65,-0.5 885.655,-0.5"/>
<text text-anchor="start" x="893.655" y="-18.5" font-family="Helvetica,sans-Serif" font-size="10.00">/home/alejandro/Desarrollo</text>
<text text-anchor="middle" x="955.655" y="-7.5" font-family="Helvetica,sans-Serif" font-size="10.00"> eclipse/os1/src/Tracking.cc</text>
</a>
</g>
</g>
<!-- Node24&#45;&gt;Node33 -->
<g id="edge23" class="edge"><title>Node24&#45;&gt;Node33</title>
<path fill="none" stroke="midnightblue" d="M450.123,-196.673C467.251,-187.773 487.404,-176.572 504.655,-165 522.755,-152.858 523.294,-144.011 542.655,-134 595.908,-106.463 614.959,-114.296 672.655,-98 755.194,-74.6871 851.077,-46.9321 907.375,-30.5668"/>
<polygon fill="midnightblue" stroke="midnightblue" points="448.262,-193.694 440.957,-201.369 451.453,-199.924 448.262,-193.694"/>
</g>
<!-- Node34 -->
<g id="node12" class="node"><title>Node34</title>
<g id="a_node12"><a xlink:href="_frame_drawer_8cc.html" target="_top" xlink:title="/home/alejandro/Desarrollo\l eclipse/os1/src/FrameDrawer.cc">
<polygon fill="white" stroke="black" points="20.1545,-134.5 20.1545,-164.5 181.155,-164.5 181.155,-134.5 20.1545,-134.5"/>
<text text-anchor="start" x="28.1545" y="-152.5" font-family="Helvetica,sans-Serif" font-size="10.00">/home/alejandro/Desarrollo</text>
<text text-anchor="middle" x="100.655" y="-141.5" font-family="Helvetica,sans-Serif" font-size="10.00"> eclipse/os1/src/FrameDrawer.cc</text>
</a>
</g>
</g>
<!-- Node24&#45;&gt;Node34 -->
<g id="edge19" class="edge"><title>Node24&#45;&gt;Node34</title>
<path fill="none" stroke="midnightblue" d="M334.538,-199.382C283.383,-188.691 216.903,-174.796 167.902,-164.555"/>
<polygon fill="midnightblue" stroke="midnightblue" points="334.05,-202.856 344.555,-201.476 335.483,-196.004 334.05,-202.856"/>
</g>
<!-- Node24&#45;&gt;Node35 -->
<g id="edge20" class="edge"><title>Node24&#45;&gt;Node35</title>
<path fill="none" stroke="midnightblue" d="M465.971,-198.444C499.525,-187.908 542.066,-174.549 573.717,-164.611"/>
<polygon fill="midnightblue" stroke="midnightblue" points="464.808,-195.141 456.316,-201.476 466.905,-201.819 464.808,-195.141"/>
</g>
<!-- Node24&#45;&gt;Node36 -->
<g id="edge21" class="edge"><title>Node24&#45;&gt;Node36</title>
<path fill="none" stroke="midnightblue" d="M498.154,-200.138C560.561,-189.055 643.94,-174.247 703.35,-163.696"/>
<polygon fill="midnightblue" stroke="midnightblue" points="497.168,-196.758 487.935,-201.953 498.393,-203.65 497.168,-196.758"/>
</g>
<!-- Node24&#45;&gt;Node37 -->
<g id="edge24" class="edge"><title>Node24&#45;&gt;Node37</title>
<path fill="none" stroke="midnightblue" d="M497.977,-207.769C588.569,-199.194 735.004,-184.024 860.655,-165 863.709,-164.538 866.828,-164.041 869.976,-163.521"/>
<polygon fill="midnightblue" stroke="midnightblue" points="497.384,-204.31 487.756,-208.731 498.04,-211.279 497.384,-204.31"/>
</g>
<!-- Node25&#45;&gt;Node24 -->
<g id="edge8" class="edge"><title>Node25&#45;&gt;Node24</title>
<path fill="none" stroke="midnightblue" d="M418.198,-174.565C418.649,-183.596 418.361,-193.56 417.333,-201.396"/>
<polygon fill="midnightblue" stroke="midnightblue" points="421.683,-174.236 417.329,-164.577 414.709,-174.842 421.683,-174.236"/>
</g>
<!-- Node25&#45;&gt;Node26 -->
<g id="edge3" class="edge"><title>Node25&#45;&gt;Node26</title>
<path fill="none" stroke="midnightblue" d="M370.771,-129.853C350.729,-119.576 327.531,-107.025 311.184,-97.5765"/>
<polygon fill="midnightblue" stroke="midnightblue" points="369.22,-132.991 379.721,-134.396 372.388,-126.749 369.22,-132.991"/>
</g>
<!-- Node27 -->
<g id="node5" class="node"><title>Node27</title>
<g id="a_node5"><a xlink:href="_local_mapping_8cc.html" target="_top" xlink:title="/home/alejandro/Desarrollo\l eclipse/os1/src/LocalMapping.cc">
<polygon fill="white" stroke="black" points="209.655,-0.5 209.655,-30.5 371.655,-30.5 371.655,-0.5 209.655,-0.5"/>
<text text-anchor="start" x="217.655" y="-18.5" font-family="Helvetica,sans-Serif" font-size="10.00">/home/alejandro/Desarrollo</text>
<text text-anchor="middle" x="290.655" y="-7.5" font-family="Helvetica,sans-Serif" font-size="10.00"> eclipse/os1/src/LocalMapping.cc</text>
</a>
</g>
</g>
<!-- Node25&#45;&gt;Node27 -->
<g id="edge15" class="edge"><title>Node25&#45;&gt;Node27</title>
<path fill="none" stroke="midnightblue" d="M421.561,-124.981C427.233,-107.512 431.177,-83.8848 419.655,-67 407.724,-49.5181 388.753,-38.0877 368.991,-30.6141"/>
<polygon fill="midnightblue" stroke="midnightblue" points="418.243,-123.864 418.125,-134.458 424.824,-126.25 418.243,-123.864"/>
</g>
<!-- Node25&#45;&gt;Node28 -->
<g id="edge17" class="edge"><title>Node25&#45;&gt;Node28</title>
<path fill="none" stroke="midnightblue" d="M410.693,-124.392C408.629,-106.009 402.767,-81.4614 386.655,-67 385.733,-66.1727 269.378,-44.0467 191.76,-29.3596"/>
<polygon fill="midnightblue" stroke="midnightblue" points="407.207,-124.704 411.519,-134.381 414.183,-124.127 407.207,-124.704"/>
</g>
<!-- Node29 -->
<g id="node7" class="node"><title>Node29</title>
<g id="a_node7"><a xlink:href="_optimizer_8h.html" target="_top" xlink:title="/home/alejandro/Desarrollo\l eclipse/os1/include/Optimizer.h">
<polygon fill="white" stroke="black" points="471.655,-67.5 471.655,-97.5 627.655,-97.5 627.655,-67.5 471.655,-67.5"/>
<text text-anchor="start" x="479.655" y="-85.5" font-family="Helvetica,sans-Serif" font-size="10.00">/home/alejandro/Desarrollo</text>
<text text-anchor="middle" x="549.655" y="-74.5" font-family="Helvetica,sans-Serif" font-size="10.00"> eclipse/os1/include/Optimizer.h</text>
</a>
</g>
</g>
<!-- Node25&#45;&gt;Node29 -->
<g id="edge9" class="edge"><title>Node25&#45;&gt;Node29</title>
<path fill="none" stroke="midnightblue" d="M450.654,-130.131C472.582,-119.802 499.528,-107.11 519.769,-97.5765"/>
<polygon fill="midnightblue" stroke="midnightblue" points="449.154,-126.968 441.598,-134.396 452.137,-133.301 449.154,-126.968"/>
</g>
<!-- Node31 -->
<g id="node9" class="node"><title>Node31</title>
<g id="a_node9"><a xlink:href="_loop_closing_8cc.html" target="_top" xlink:title="/home/alejandro/Desarrollo\l eclipse/os1/src/LoopClosing.cc">
<polygon fill="white" stroke="black" points="711.655,-0.5 711.655,-30.5 867.655,-30.5 867.655,-0.5 711.655,-0.5"/>
<text text-anchor="start" x="719.655" y="-18.5" font-family="Helvetica,sans-Serif" font-size="10.00">/home/alejandro/Desarrollo</text>
<text text-anchor="middle" x="789.655" y="-7.5" font-family="Helvetica,sans-Serif" font-size="10.00"> eclipse/os1/src/LoopClosing.cc</text>
</a>
</g>
</g>
<!-- Node25&#45;&gt;Node31 -->
<g id="edge16" class="edge"><title>Node25&#45;&gt;Node31</title>
<path fill="none" stroke="midnightblue" d="M499.459,-132.546C551.596,-122.345 612.173,-109.012 636.655,-98 658.141,-88.335 659.297,-78.8596 679.655,-67 703.803,-52.9314 732.55,-39.8503 754.6,-30.528"/>
<polygon fill="midnightblue" stroke="midnightblue" points="498.646,-129.138 489.495,-134.477 499.979,-136.01 498.646,-129.138"/>
</g>
<!-- Node26&#45;&gt;Node24 -->
<g id="edge5" class="edge"><title>Node26&#45;&gt;Node24</title>
<path fill="none" stroke="midnightblue" d="M301.621,-107.78C306.776,-125.335 313.891,-148.73 327.655,-165 341.419,-181.271 361.804,-193.165 379.147,-201.308"/>
<polygon fill="midnightblue" stroke="midnightblue" points="304.833,-106.304 298.622,-97.7202 298.125,-108.303 304.833,-106.304"/>
</g>
<!-- Node26&#45;&gt;Node25 -->
<g id="edge4" class="edge"><title>Node26&#45;&gt;Node25</title>
<path fill="none" stroke="midnightblue" d="M331.48,-102.117C351.516,-112.39 374.718,-124.941 391.078,-134.396"/>
<polygon fill="midnightblue" stroke="midnightblue" points="333.035,-98.9808 322.533,-97.5765 329.867,-105.223 333.035,-98.9808"/>
</g>
<!-- Node26&#45;&gt;Node27 -->
<g id="edge6" class="edge"><title>Node26&#45;&gt;Node27</title>
<path fill="none" stroke="midnightblue" d="M290.655,-57.1081C290.655,-48.1539 290.655,-38.3227 290.655,-30.5765"/>
<polygon fill="midnightblue" stroke="midnightblue" points="287.155,-57.3959 290.655,-67.396 294.155,-57.396 287.155,-57.3959"/>
</g>
<!-- Node26&#45;&gt;Node28 -->
<g id="edge7" class="edge"><title>Node26&#45;&gt;Node28</title>
<path fill="none" stroke="midnightblue" d="M244.875,-63.6815C218.091,-53.2568 184.752,-40.2805 159.82,-30.5765"/>
<polygon fill="midnightblue" stroke="midnightblue" points="243.829,-67.0304 254.418,-67.396 246.369,-60.5071 243.829,-67.0304"/>
</g>
<!-- Node29&#45;&gt;Node27 -->
<g id="edge11" class="edge"><title>Node29&#45;&gt;Node27</title>
<path fill="none" stroke="midnightblue" d="M483.846,-64.9844C441.542,-54.3674 387.162,-40.7201 346.881,-30.6109"/>
<polygon fill="midnightblue" stroke="midnightblue" points="483.223,-68.4365 493.774,-67.476 484.927,-61.647 483.223,-68.4365"/>
</g>
<!-- Node30 -->
<g id="node8" class="node"><title>Node30</title>
<g id="a_node8"><a xlink:href="_initializer_8cc.html" target="_top" xlink:title="/home/alejandro/Desarrollo\l eclipse/os1/src/Initializer.cc">
<polygon fill="white" stroke="black" points="552.155,-0.5 552.155,-30.5 693.155,-30.5 693.155,-0.5 552.155,-0.5"/>
<text text-anchor="start" x="560.155" y="-18.5" font-family="Helvetica,sans-Serif" font-size="10.00">/home/alejandro/Desarrollo</text>
<text text-anchor="middle" x="622.655" y="-7.5" font-family="Helvetica,sans-Serif" font-size="10.00"> eclipse/os1/src/Initializer.cc</text>
</a>
</g>
</g>
<!-- Node29&#45;&gt;Node30 -->
<g id="edge10" class="edge"><title>Node29&#45;&gt;Node30</title>
<path fill="none" stroke="midnightblue" d="M573.129,-60.5978C584.152,-50.7831 596.999,-39.3442 606.846,-30.5765"/>
<polygon fill="midnightblue" stroke="midnightblue" points="570.635,-58.132 565.494,-67.396 575.29,-63.3599 570.635,-58.132"/>
</g>
<!-- Node29&#45;&gt;Node31 -->
<g id="edge12" class="edge"><title>Node29&#45;&gt;Node31</title>
<path fill="none" stroke="midnightblue" d="M611.132,-64.8498C650.261,-54.2523 700.384,-40.6775 737.553,-30.6109"/>
<polygon fill="midnightblue" stroke="midnightblue" points="610.173,-61.4835 601.435,-67.476 612.003,-68.2401 610.173,-61.4835"/>
</g>
<!-- Node32 -->
<g id="node10" class="node"><title>Node32</title>
<g id="a_node10"><a xlink:href="_optimizer_8cc.html" target="_top" xlink:title="/home/alejandro/Desarrollo\l eclipse/os1/src/Optimizer.cc">
<polygon fill="white" stroke="black" points="389.655,-0.5 389.655,-30.5 533.655,-30.5 533.655,-0.5 389.655,-0.5"/>
<text text-anchor="start" x="397.655" y="-18.5" font-family="Helvetica,sans-Serif" font-size="10.00">/home/alejandro/Desarrollo</text>
<text text-anchor="middle" x="461.655" y="-7.5" font-family="Helvetica,sans-Serif" font-size="10.00"> eclipse/os1/src/Optimizer.cc</text>
</a>
</g>
</g>
<!-- Node29&#45;&gt;Node32 -->
<g id="edge13" class="edge"><title>Node29&#45;&gt;Node32</title>
<path fill="none" stroke="midnightblue" d="M522.511,-61.4511C508.974,-51.4517 492.928,-39.5995 480.712,-30.5765"/>
<polygon fill="midnightblue" stroke="midnightblue" points="520.437,-64.2699 530.56,-67.396 524.596,-58.6393 520.437,-64.2699"/>
</g>
<!-- Node29&#45;&gt;Node33 -->
<g id="edge14" class="edge"><title>Node29&#45;&gt;Node33</title>
<path fill="none" stroke="midnightblue" d="M637.65,-68.6002C703.536,-58.7743 795.841,-44.6537 876.655,-31 879.542,-30.5122 882.487,-30.0068 885.461,-29.49"/>
<polygon fill="midnightblue" stroke="midnightblue" points="637.093,-65.1445 627.718,-70.0789 638.124,-72.0682 637.093,-65.1445"/>
</g>
</g>
</svg>
