<?xml version="1.0" encoding="UTF-8" standalone="no"?>
<!DOCTYPE svg PUBLIC "-//W3C//DTD SVG 1.1//EN"
 "http://www.w3.org/Graphics/SVG/1.1/DTD/svg11.dtd">
<!-- Generated by graphviz version 2.40.1 (20161225.0304)
 -->
<!-- Title: /home/alejandro/Desarrollo eclipse/os1/include/System.h Pages: 1 -->
<svg width="1045pt" height="307pt"
 viewBox="0.00 0.00 1044.50 307.00" xmlns="http://www.w3.org/2000/svg" xmlns:xlink="http://www.w3.org/1999/xlink">
<g id="graph0" class="graph" transform="scale(1 1) rotate(0) translate(4 303)">
<title>/home/alejandro/Desarrollo eclipse/os1/include/System.h</title>
<polygon fill="#ffffff" stroke="transparent" points="-4,4 -4,-303 1040.5,-303 1040.5,4 -4,4"/>
<!-- Node23 -->
<g id="node1" class="node">
<title>Node23</title>
<polygon fill="#bfbfbf" stroke="#000000" points="725,-268.5 725,-298.5 873,-298.5 873,-268.5 725,-268.5"/>
<text text-anchor="start" x="733" y="-286.5" font-family="Helvetica,sans-Serif" font-size="10.00" fill="#000000">/home/alejandro/Desarrollo</text>
<text text-anchor="middle" x="799" y="-275.5" font-family="Helvetica,sans-Serif" font-size="10.00" fill="#000000"> eclipse/os1/include/System.h</text>
</g>
<!-- Node24 -->
<g id="node2" class="node">
<title>Node24</title>
<g id="a_node2"><a xlink:href="_tracking_8h.html" target="_top" xlink:title="/home/alejandro/Desarrollo\l eclipse/os1/include/Tracking.h">
<polygon fill="#ffffff" stroke="#000000" points="407,-201.5 407,-231.5 559,-231.5 559,-201.5 407,-201.5"/>
<text text-anchor="start" x="415" y="-219.5" font-family="Helvetica,sans-Serif" font-size="10.00" fill="#000000">/home/alejandro/Desarrollo</text>
<text text-anchor="middle" x="483" y="-208.5" font-family="Helvetica,sans-Serif" font-size="10.00" fill="#000000"> eclipse/os1/include/Tracking.h</text>
</a>
</g>
</g>
<!-- Node23&#45;&gt;Node24 -->
<g id="edge1" class="edge">
<title>Node23&#45;&gt;Node24</title>
<path fill="none" stroke="#191970" d="M718.1373,-266.3551C667.4257,-255.6029 602.6654,-241.8721 553.9527,-231.5438"/>
<polygon fill="#191970" stroke="#191970" points="717.5749,-269.8136 728.0834,-268.4639 719.0269,-262.9658 717.5749,-269.8136"/>
</g>
<!-- Node28 -->
<g id="node6" class="node">
<title>Node28</title>
<g id="a_node6"><a xlink:href="_system_8cc.html" target="_top" xlink:title="/home/alejandro/Desarrollo\l eclipse/os1/src/System.cc">
<polygon fill="#ffffff" stroke="#000000" points="0,-.5 0,-30.5 136,-30.5 136,-.5 0,-.5"/>
<text text-anchor="start" x="8" y="-18.5" font-family="Helvetica,sans-Serif" font-size="10.00" fill="#000000">/home/alejandro/Desarrollo</text>
<text text-anchor="middle" x="68" y="-7.5" font-family="Helvetica,sans-Serif" font-size="10.00" fill="#000000"> eclipse/os1/src/System.cc</text>
</a>
</g>
</g>
<!-- Node23&#45;&gt;Node28 -->
<g id="edge30" class="edge">
<title>Node23&#45;&gt;Node28</title>
<path fill="none" stroke="#191970" d="M714.4604,-275.9473C560.9251,-260.9568 243.5709,-223.7328 151,-165 117.9879,-144.055 112.9188,-132.2136 94,-98 81.8641,-76.0529 74.4974,-47.6318 70.842,-30.5229"/>
<polygon fill="#191970" stroke="#191970" points="714.489,-279.4663 724.7796,-276.9454 715.163,-272.4988 714.489,-279.4663"/>
</g>
<!-- Node34 -->
<g id="node12" class="node">
<title>Node34</title>
<g id="a_node12"><a xlink:href="_osmap_8h.html" target="_top" xlink:title="/home/alejandro/Desarrollo\l eclipse/os1/include/Osmap.h">
<polygon fill="#ffffff" stroke="#000000" points="851,-134.5 851,-164.5 997,-164.5 997,-134.5 851,-134.5"/>
<text text-anchor="start" x="859" y="-152.5" font-family="Helvetica,sans-Serif" font-size="10.00" fill="#000000">/home/alejandro/Desarrollo</text>
<text text-anchor="middle" x="924" y="-141.5" font-family="Helvetica,sans-Serif" font-size="10.00" fill="#000000"> eclipse/os1/include/Osmap.h</text>
</a>
</g>
</g>
<!-- Node23&#45;&gt;Node34 -->
<g id="edge27" class="edge">
<title>Node23&#45;&gt;Node34</title>
<path fill="none" stroke="#191970" d="M820.1258,-260.8532C845.6312,-233.5114 887.8266,-188.2779 909.7636,-164.7614"/>
<polygon fill="#191970" stroke="#191970" points="817.358,-258.6891 813.0961,-268.389 822.4767,-263.464 817.358,-258.6891"/>
</g>
<!-- Node35 -->
<g id="node13" class="node">
<title>Node35</title>
<g id="a_node13"><a xlink:href="main_8cc.html" target="_top" xlink:title="/home/alejandro/Desarrollo\l eclipse/os1/src/main.cc">
<polygon fill="#ffffff" stroke="#000000" points="729.5,-67.5 729.5,-97.5 862.5,-97.5 862.5,-67.5 729.5,-67.5"/>
<text text-anchor="start" x="737.5" y="-85.5" font-family="Helvetica,sans-Serif" font-size="10.00" fill="#000000">/home/alejandro/Desarrollo</text>
<text text-anchor="middle" x="796" y="-74.5" font-family="Helvetica,sans-Serif" font-size="10.00" fill="#000000"> eclipse/os1/src/main.cc</text>
</a>
</g>
</g>
<!-- Node23&#45;&gt;Node35 -->
<g id="edge29" class="edge">
<title>Node23&#45;&gt;Node35</title>
<path fill="none" stroke="#191970" d="M801.5759,-257.8501C804.1712,-228.0419 807.3502,-177.3929 804,-134 803.0527,-121.731 800.8541,-107.9631 799.0011,-97.7516"/>
<polygon fill="#191970" stroke="#191970" points="798.055,-257.9168 800.6246,-268.1953 805.0256,-258.5579 798.055,-257.9168"/>
</g>
<!-- Node38 -->
<g id="node16" class="node">
<title>Node38</title>
<g id="a_node16"><a xlink:href="_viewer_8cc.html" target="_top" xlink:title="/home/alejandro/Desarrollo\l eclipse/os1/src/Viewer.cc">
<polygon fill="#ffffff" stroke="#000000" points="661.5,-134.5 661.5,-164.5 794.5,-164.5 794.5,-134.5 661.5,-134.5"/>
<text text-anchor="start" x="669.5" y="-152.5" font-family="Helvetica,sans-Serif" font-size="10.00" fill="#000000">/home/alejandro/Desarrollo</text>
<text text-anchor="middle" x="728" y="-141.5" font-family="Helvetica,sans-Serif" font-size="10.00" fill="#000000"> eclipse/os1/src/Viewer.cc</text>
</a>
</g>
</g>
<!-- Node23&#45;&gt;Node38 -->
<g id="edge31" class="edge">
<title>Node23&#45;&gt;Node38</title>
<path fill="none" stroke="#191970" d="M786.2462,-259.4294C771.694,-231.9647 748.3326,-187.8742 736.0863,-164.7614"/>
<polygon fill="#191970" stroke="#191970" points="783.2188,-261.1914 790.9934,-268.389 789.4042,-257.914 783.2188,-261.1914"/>
</g>
<!-- Node39 -->
<g id="node17" class="node">
<title>Node39</title>
<g id="a_node17"><a xlink:href="_key_frame_8cc.html" target="_top" xlink:title="/home/alejandro/Desarrollo\l eclipse/os1/src/KeyFrame.cc">
<polygon fill="#ffffff" stroke="#000000" points="889.5,-201.5 889.5,-231.5 1036.5,-231.5 1036.5,-201.5 889.5,-201.5"/>
<text text-anchor="start" x="897.5" y="-219.5" font-family="Helvetica,sans-Serif" font-size="10.00" fill="#000000">/home/alejandro/Desarrollo</text>
<text text-anchor="middle" x="963" y="-208.5" font-family="Helvetica,sans-Serif" font-size="10.00" fill="#000000"> eclipse/os1/src/KeyFrame.cc</text>
</a>
</g>
</g>
<!-- Node23&#45;&gt;Node39 -->
<g id="edge28" class="edge">
<title>Node23&#45;&gt;Node39</title>
<path fill="none" stroke="#191970" d="M845.288,-264.5897C870.8374,-254.1518 902.1354,-241.3654 926.0347,-231.6017"/>
<polygon fill="#191970" stroke="#191970" points="843.7384,-261.4419 835.8048,-268.4639 846.3858,-267.9219 843.7384,-261.4419"/>
</g>
<!-- Node25 -->
<g id="node3" class="node">
<title>Node25</title>
<g id="a_node3"><a xlink:href="_loop_closing_8h.html" target="_top" xlink:title="/home/alejandro/Desarrollo\l eclipse/os1/include/LoopClosing.h">
<polygon fill="#ffffff" stroke="#000000" points="399,-134.5 399,-164.5 567,-164.5 567,-134.5 399,-134.5"/>
<text text-anchor="start" x="407" y="-152.5" font-family="Helvetica,sans-Serif" font-size="10.00" fill="#000000">/home/alejandro/Desarrollo</text>
<text text-anchor="middle" x="483" y="-141.5" font-family="Helvetica,sans-Serif" font-size="10.00" fill="#000000"> eclipse/os1/include/LoopClosing.h</text>
</a>
</g>
</g>
<!-- Node24&#45;&gt;Node25 -->
<g id="edge2" class="edge">
<title>Node24&#45;&gt;Node25</title>
<path fill="none" stroke="#191970" d="M476.4384,-191.3179C476.0239,-182.3414 476.2933,-172.5143 477.2464,-164.6432"/>
<polygon fill="#191970" stroke="#191970" points="472.9504,-191.6087 477.2392,-201.2967 479.928,-191.0487 472.9504,-191.6087"/>
</g>
<!-- Node26 -->
<g id="node4" class="node">
<title>Node26</title>
<g id="a_node4"><a xlink:href="_local_mapping_8h.html" target="_top" xlink:title="/home/alejandro/Desarrollo\l eclipse/os1/include/LocalMapping.h">
<polygon fill="#ffffff" stroke="#000000" points="134,-67.5 134,-97.5 308,-97.5 308,-67.5 134,-67.5"/>
<text text-anchor="start" x="142" y="-85.5" font-family="Helvetica,sans-Serif" font-size="10.00" fill="#000000">/home/alejandro/Desarrollo</text>
<text text-anchor="middle" x="221" y="-74.5" font-family="Helvetica,sans-Serif" font-size="10.00" fill="#000000"> eclipse/os1/include/LocalMapping.h</text>
</a>
</g>
</g>
<!-- Node24&#45;&gt;Node26 -->
<g id="edge18" class="edge">
<title>Node24&#45;&gt;Node26</title>
<path fill="none" stroke="#191970" d="M396.5031,-212.4655C322.801,-206.9711 225.2176,-194.2133 201,-165 185.3227,-146.0888 195.3176,-115.9132 206.4377,-97.7733"/>
<polygon fill="#191970" stroke="#191970" points="396.5109,-215.9748 406.7342,-213.1936 397.0078,-208.9925 396.5109,-215.9748"/>
</g>
<!-- Node24&#45;&gt;Node28 -->
<g id="edge24" class="edge">
<title>Node24&#45;&gt;Node28</title>
<path fill="none" stroke="#191970" d="M396.4226,-206.2343C325.725,-196.8689 232.1276,-181.937 198,-165 137.3048,-134.878 93.0401,-62.585 75.8608,-30.8624"/>
<polygon fill="#191970" stroke="#191970" points="396.308,-209.749 406.6774,-207.5753 397.2157,-202.8081 396.308,-209.749"/>
</g>
<!-- Node33 -->
<g id="node11" class="node">
<title>Node33</title>
<g id="a_node11"><a xlink:href="_tracking_8cc.html" target="_top" xlink:title="/home/alejandro/Desarrollo\l eclipse/os1/src/Tracking.cc">
<polygon fill="#ffffff" stroke="#000000" points="830,-.5 830,-30.5 970,-30.5 970,-.5 830,-.5"/>
<text text-anchor="start" x="838" y="-18.5" font-family="Helvetica,sans-Serif" font-size="10.00" fill="#000000">/home/alejandro/Desarrollo</text>
<text text-anchor="middle" x="900" y="-7.5" font-family="Helvetica,sans-Serif" font-size="10.00" fill="#000000"> eclipse/os1/src/Tracking.cc</text>
</a>
</g>
</g>
<!-- Node24&#45;&gt;Node33 -->
<g id="edge25" class="edge">
<title>Node24&#45;&gt;Node33</title>
<path fill="none" stroke="#191970" d="M523.7696,-196.7435C540.5264,-187.9148 559.7674,-176.834 576,-165 592.2607,-153.1455 592.9635,-146.156 609,-134 654.9217,-99.1906 667.172,-90.0151 720,-67 755.6095,-51.4863 797.1961,-39.2343 831.4203,-30.5793"/>
<polygon fill="#191970" stroke="#191970" points="522.0257,-193.7049 514.7507,-201.4072 525.241,-199.9228 522.0257,-193.7049"/>
</g>
<!-- Node24&#45;&gt;Node34 -->
<g id="edge19" class="edge">
<title>Node24&#45;&gt;Node34</title>
<path fill="none" stroke="#191970" d="M569.1092,-203.4177C651.1301,-190.9564 773.257,-172.402 850.7312,-160.6315"/>
<polygon fill="#191970" stroke="#191970" points="568.4224,-199.9817 559.0616,-204.9442 569.4739,-206.9023 568.4224,-199.9817"/>
</g>
<!-- Node24&#45;&gt;Node35 -->
<g id="edge23" class="edge">
<title>Node24&#45;&gt;Node35</title>
<path fill="none" stroke="#191970" d="M536.5921,-197.8194C559.4753,-189.0289 586.1245,-177.6854 609,-165 629.6038,-153.5744 631.1469,-144.9639 652,-134 680.7881,-118.8641 714.9978,-106.4214 742.8487,-97.5602"/>
<polygon fill="#191970" stroke="#191970" points="535.1566,-194.6201 527.0376,-201.4269 537.6293,-201.1689 535.1566,-194.6201"/>
</g>
<!-- Node37 -->
<g id="node15" class="node">
<title>Node37</title>
<g id="a_node15"><a xlink:href="_frame_drawer_8cc.html" target="_top" xlink:title="/home/alejandro/Desarrollo\l eclipse/os1/src/FrameDrawer.cc">
<polygon fill="#ffffff" stroke="#000000" points="219.5,-134.5 219.5,-164.5 380.5,-164.5 380.5,-134.5 219.5,-134.5"/>
<text text-anchor="start" x="227.5" y="-152.5" font-family="Helvetica,sans-Serif" font-size="10.00" fill="#000000">/home/alejandro/Desarrollo</text>
<text text-anchor="middle" x="300" y="-141.5" font-family="Helvetica,sans-Serif" font-size="10.00" fill="#000000"> eclipse/os1/src/FrameDrawer.cc</text>
</a>
</g>
</g>
<!-- Node24&#45;&gt;Node37 -->
<g id="edge22" class="edge">
<title>Node24&#45;&gt;Node37</title>
<path fill="none" stroke="#191970" d="M432.4763,-198.0023C403.7645,-187.4903 368.2685,-174.4945 341.2479,-164.6017"/>
<polygon fill="#191970" stroke="#191970" points="431.3375,-201.3125 441.9312,-201.4639 433.7441,-194.7392 431.3375,-201.3125"/>
</g>
<!-- Node24&#45;&gt;Node38 -->
<g id="edge26" class="edge">
<title>Node24&#45;&gt;Node38</title>
<path fill="none" stroke="#191970" d="M547.6516,-198.8198C586.5932,-188.1704 635.6586,-174.7525 672.7774,-164.6017"/>
<polygon fill="#191970" stroke="#191970" points="546.7053,-195.4499 537.9828,-201.4639 548.5519,-202.202 546.7053,-195.4499"/>
</g>
<!-- Node25&#45;&gt;Node24 -->
<g id="edge8" class="edge">
<title>Node25&#45;&gt;Node24</title>
<path fill="none" stroke="#191970" d="M489.5584,-174.6135C489.9764,-183.5857 489.7105,-193.4156 488.7608,-201.2967"/>
<polygon fill="#191970" stroke="#191970" points="493.0469,-174.3291 488.7536,-164.6432 486.0696,-174.8924 493.0469,-174.3291"/>
</g>
<!-- Node25&#45;&gt;Node26 -->
<g id="edge3" class="edge">
<title>Node25&#45;&gt;Node26</title>
<path fill="none" stroke="#191970" d="M408.6443,-132.0225C365.809,-121.3411 313.0112,-107.8171 274.3058,-97.6017"/>
<polygon fill="#191970" stroke="#191970" points="407.9124,-135.447 418.4616,-134.4639 409.6018,-128.6539 407.9124,-135.447"/>
</g>
<!-- Node27 -->
<g id="node5" class="node">
<title>Node27</title>
<g id="a_node5"><a xlink:href="_local_mapping_8cc.html" target="_top" xlink:title="/home/alejandro/Desarrollo\l eclipse/os1/src/LocalMapping.cc">
<polygon fill="#ffffff" stroke="#000000" points="154,-.5 154,-30.5 316,-30.5 316,-.5 154,-.5"/>
<text text-anchor="start" x="162" y="-18.5" font-family="Helvetica,sans-Serif" font-size="10.00" fill="#000000">/home/alejandro/Desarrollo</text>
<text text-anchor="middle" x="235" y="-7.5" font-family="Helvetica,sans-Serif" font-size="10.00" fill="#000000"> eclipse/os1/src/LocalMapping.cc</text>
</a>
</g>
</g>
<!-- Node25&#45;&gt;Node27 -->
<g id="edge15" class="edge">
<title>Node25&#45;&gt;Node27</title>
<path fill="none" stroke="#191970" d="M452.0116,-128.625C425.4931,-111.1662 386.0071,-86.1193 350,-67 324.4963,-53.4578 294.7183,-40.1888 271.8546,-30.5116"/>
<polygon fill="#191970" stroke="#191970" points="450.2138,-131.6323 460.4839,-134.2354 454.0787,-125.796 450.2138,-131.6323"/>
</g>
<!-- Node25&#45;&gt;Node28 -->
<g id="edge17" class="edge">
<title>Node25&#45;&gt;Node28</title>
<path fill="none" stroke="#191970" d="M420.8555,-131.026C397.6733,-122.723 371.7278,-111.6768 350,-98 332.9699,-87.2802 334.8578,-76.2755 317,-67 314.9525,-65.9365 209.3003,-44.281 136.2915,-29.3938"/>
<polygon fill="#191970" stroke="#191970" points="420.0064,-134.4363 430.6012,-134.4162 422.3063,-127.8249 420.0064,-134.4363"/>
</g>
<!-- Node29 -->
<g id="node7" class="node">
<title>Node29</title>
<g id="a_node7"><a xlink:href="_optimizer_8h.html" target="_top" xlink:title="/home/alejandro/Desarrollo\l eclipse/os1/include/Optimizer.h">
<polygon fill="#ffffff" stroke="#000000" points="440,-67.5 440,-97.5 596,-97.5 596,-67.5 440,-67.5"/>
<text text-anchor="start" x="448" y="-85.5" font-family="Helvetica,sans-Serif" font-size="10.00" fill="#000000">/home/alejandro/Desarrollo</text>
<text text-anchor="middle" x="518" y="-74.5" font-family="Helvetica,sans-Serif" font-size="10.00" fill="#000000"> eclipse/os1/include/Optimizer.h</text>
</a>
</g>
</g>
<!-- Node25&#45;&gt;Node29 -->
<g id="edge9" class="edge">
<title>Node25&#45;&gt;Node29</title>
<path fill="none" stroke="#191970" d="M495.6976,-125.1932C500.5082,-115.9844 505.8435,-105.771 510.0894,-97.6432"/>
<polygon fill="#191970" stroke="#191970" points="492.47,-123.8126 490.942,-134.2967 498.6745,-127.0537 492.47,-123.8126"/>
</g>
<!-- Node31 -->
<g id="node9" class="node">
<title>Node31</title>
<g id="a_node9"><a xlink:href="_loop_closing_8cc.html" target="_top" xlink:title="/home/alejandro/Desarrollo\l eclipse/os1/src/LoopClosing.cc">
<polygon fill="#ffffff" stroke="#000000" points="334,-.5 334,-30.5 490,-30.5 490,-.5 334,-.5"/>
<text text-anchor="start" x="342" y="-18.5" font-family="Helvetica,sans-Serif" font-size="10.00" fill="#000000">/home/alejandro/Desarrollo</text>
<text text-anchor="middle" x="412" y="-7.5" font-family="Helvetica,sans-Serif" font-size="10.00" fill="#000000"> eclipse/os1/src/LoopClosing.cc</text>
</a>
</g>
</g>
<!-- Node25&#45;&gt;Node31 -->
<g id="edge16" class="edge">
<title>Node25&#45;&gt;Node31</title>
<path fill="none" stroke="#191970" d="M455.2229,-127.5477C446.2857,-119.1802 437.122,-108.9886 431,-98 419.0541,-76.5577 414.6084,-47.9828 412.961,-30.706"/>
<polygon fill="#191970" stroke="#191970" points="453.1375,-130.3769 462.9365,-134.4057 457.7886,-125.1455 453.1375,-130.3769"/>
</g>
<!-- Node26&#45;&gt;Node24 -->
<g id="edge5" class="edge">
<title>Node26&#45;&gt;Node24</title>
<path fill="none" stroke="#191970" d="M216.1598,-107.3194C210.7746,-125.2899 205.8335,-149.1175 219,-165 242.8176,-193.7308 337.5972,-206.5451 406.8557,-212.1873"/>
<polygon fill="#191970" stroke="#191970" points="219.5006,-108.3629 219.1666,-97.7733 212.824,-106.2598 219.5006,-108.3629"/>
</g>
<!-- Node26&#45;&gt;Node25 -->
<g id="edge4" class="edge">
<title>Node26&#45;&gt;Node25</title>
<path fill="none" stroke="#191970" d="M295.631,-100.0462C338.5089,-110.7397 391.2977,-124.2627 429.9426,-134.4639"/>
<polygon fill="#191970" stroke="#191970" points="296.352,-96.6189 285.8029,-97.6017 294.6624,-103.412 296.352,-96.6189"/>
</g>
<!-- Node26&#45;&gt;Node27 -->
<g id="edge6" class="edge">
<title>Node26&#45;&gt;Node27</title>
<path fill="none" stroke="#191970" d="M226.2619,-57.3179C228.1376,-48.3414 230.191,-38.5143 231.8358,-30.6432"/>
<polygon fill="#191970" stroke="#191970" points="222.7963,-56.7922 224.1768,-67.2967 229.6483,-58.224 222.7963,-56.7922"/>
</g>
<!-- Node26&#45;&gt;Node28 -->
<g id="edge7" class="edge">
<title>Node26&#45;&gt;Node28</title>
<path fill="none" stroke="#191970" d="M177.5014,-63.4516C153.7238,-53.0392 124.684,-40.3224 102.4859,-30.6017"/>
<polygon fill="#191970" stroke="#191970" points="176.0996,-66.6586 186.6638,-67.4639 178.9076,-60.2464 176.0996,-66.6586"/>
</g>
<!-- Node29&#45;&gt;Node27 -->
<g id="edge11" class="edge">
<title>Node29&#45;&gt;Node27</title>
<path fill="none" stroke="#191970" d="M444.7463,-65.1573C399.5416,-54.4551 342.1179,-40.8601 298.7877,-30.6017"/>
<polygon fill="#191970" stroke="#191970" points="443.9519,-68.5659 454.4893,-67.4639 445.5646,-61.7542 443.9519,-68.5659"/>
</g>
<!-- Node30 -->
<g id="node8" class="node">
<title>Node30</title>
<g id="a_node8"><a xlink:href="_initializer_8cc.html" target="_top" xlink:title="/home/alejandro/Desarrollo\l eclipse/os1/src/Initializer.cc">
<polygon fill="#ffffff" stroke="#000000" points="670.5,-.5 670.5,-30.5 811.5,-30.5 811.5,-.5 670.5,-.5"/>
<text text-anchor="start" x="678.5" y="-18.5" font-family="Helvetica,sans-Serif" font-size="10.00" fill="#000000">/home/alejandro/Desarrollo</text>
<text text-anchor="middle" x="741" y="-7.5" font-family="Helvetica,sans-Serif" font-size="10.00" fill="#000000"> eclipse/os1/src/Initializer.cc</text>
</a>
</g>
</g>
<!-- Node29&#45;&gt;Node30 -->
<g id="edge10" class="edge">
<title>Node29&#45;&gt;Node30</title>
<path fill="none" stroke="#191970" d="M577.7493,-64.5484C613.0471,-53.9432 657.2368,-40.6665 690.7362,-30.6017"/>
<polygon fill="#191970" stroke="#191970" points="576.6155,-61.2344 568.0456,-67.4639 578.6298,-67.9384 576.6155,-61.2344"/>
</g>
<!-- Node29&#45;&gt;Node31 -->
<g id="edge12" class="edge">
<title>Node29&#45;&gt;Node31</title>
<path fill="none" stroke="#191970" d="M485.6875,-62.0761C469.7106,-51.9774 450.7586,-39.9983 436.0758,-30.7177"/>
<polygon fill="#191970" stroke="#191970" points="483.8885,-65.0795 494.2115,-67.4639 487.6286,-59.1624 483.8885,-65.0795"/>
</g>
<!-- Node32 -->
<g id="node10" class="node">
<title>Node32</title>
<g id="a_node10"><a xlink:href="_optimizer_8cc.html" target="_top" xlink:title="/home/alejandro/Desarrollo\l eclipse/os1/src/Optimizer.cc">
<polygon fill="#ffffff" stroke="#000000" points="508,-.5 508,-30.5 652,-30.5 652,-.5 508,-.5"/>
<text text-anchor="start" x="516" y="-18.5" font-family="Helvetica,sans-Serif" font-size="10.00" fill="#000000">/home/alejandro/Desarrollo</text>
<text text-anchor="middle" x="580" y="-7.5" font-family="Helvetica,sans-Serif" font-size="10.00" fill="#000000"> eclipse/os1/src/Optimizer.cc</text>
</a>
</g>
</g>
<!-- Node29&#45;&gt;Node32 -->
<g id="edge13" class="edge">
<title>Node29&#45;&gt;Node32</title>
<path fill="none" stroke="#191970" d="M538.89,-59.9253C547.8129,-50.2828 557.9907,-39.2843 565.9869,-30.6432"/>
<polygon fill="#191970" stroke="#191970" points="536.2918,-57.5798 532.0688,-67.2967 541.4296,-62.3342 536.2918,-57.5798"/>
</g>
<!-- Node29&#45;&gt;Node33 -->
<g id="edge14" class="edge">
<title>Node29&#45;&gt;Node33</title>
<path fill="none" stroke="#191970" d="M606.6275,-67.5539C688.373,-53.7492 800.143,-34.818 821,-31 823.8871,-30.4715 826.8322,-29.9254 829.8063,-29.3681"/>
<polygon fill="#191970" stroke="#191970" points="605.5907,-64.1794 596.313,-69.2955 606.7561,-71.0817 605.5907,-64.1794"/>
</g>
<!-- Node34&#45;&gt;Node35 -->
<g id="edge20" class="edge">
<title>Node34&#45;&gt;Node35</title>
<path fill="none" stroke="#191970" d="M886.3151,-129.7743C866.7505,-119.5335 843.2132,-107.2132 825.0727,-97.7177"/>
<polygon fill="#191970" stroke="#191970" points="884.7915,-132.9272 895.2743,-134.4639 888.0378,-126.7255 884.7915,-132.9272"/>
</g>
<!-- Node36 -->
<g id="node14" class="node">
<title>Node36</title>
<g id="a_node14"><a xlink:href="_osmap_8cpp.html" target="_top" xlink:title="/home/alejandro/Desarrollo\l eclipse/os1/src/Osmap.cpp">
<polygon fill="#ffffff" stroke="#000000" points="880.5,-67.5 880.5,-97.5 1019.5,-97.5 1019.5,-67.5 880.5,-67.5"/>
<text text-anchor="start" x="888.5" y="-85.5" font-family="Helvetica,sans-Serif" font-size="10.00" fill="#000000">/home/alejandro/Desarrollo</text>
<text text-anchor="middle" x="950" y="-74.5" font-family="Helvetica,sans-Serif" font-size="10.00" fill="#000000"> eclipse/os1/src/Osmap.cpp</text>
</a>
</g>
</g>
<!-- Node34&#45;&gt;Node36 -->
<g id="edge21" class="edge">
<title>Node34&#45;&gt;Node36</title>
<path fill="none" stroke="#191970" d="M933.5454,-124.9021C937.0894,-115.7696 941.0027,-105.6854 944.1235,-97.6432"/>
<polygon fill="#191970" stroke="#191970" points="930.2547,-123.7078 929.8998,-134.2967 936.7805,-126.2402 930.2547,-123.7078"/>
</g>
</g>
</svg>
