<?xml version="1.0" encoding="UTF-8" standalone="no"?>
<!DOCTYPE svg PUBLIC "-//W3C//DTD SVG 1.1//EN"
 "http://www.w3.org/Graphics/SVG/1.1/DTD/svg11.dtd">
<!-- Generated by graphviz version 2.38.0 (20140413.2041)
 -->
<!-- Title: /home/alejandro/Desarrollo eclipse/os1/include/System.h Pages: 1 -->
<svg width="632pt" height="162pt"
 viewBox="0.00 0.00 631.50 162.00" xmlns="http://www.w3.org/2000/svg" xmlns:xlink="http://www.w3.org/1999/xlink">
<g id="graph0" class="graph" transform="scale(1 1) rotate(0) translate(4 158)">
<title>/home/alejandro/Desarrollo eclipse/os1/include/System.h</title>
<polygon fill="white" stroke="none" points="-4,4 -4,-158 627.5,-158 627.5,4 -4,4"/>
<!-- Node0 -->
<g id="node1" class="node"><title>Node0</title>
<polygon fill="#bfbfbf" stroke="black" points="153.5,-123.5 153.5,-153.5 301.5,-153.5 301.5,-123.5 153.5,-123.5"/>
<text text-anchor="start" x="161.5" y="-141.5" font-family="Helvetica,sans-Serif" font-size="10.00">/home/alejandro/Desarrollo</text>
<text text-anchor="middle" x="227.5" y="-130.5" font-family="Helvetica,sans-Serif" font-size="10.00"> eclipse/os1/include/System.h</text>
</g>
<!-- Node1 -->
<g id="node2" class="node"><title>Node1</title>
<polygon fill="white" stroke="#bfbfbf" points="0,-67.5 0,-86.5 41,-86.5 41,-67.5 0,-67.5"/>
<text text-anchor="middle" x="20.5" y="-74.5" font-family="Helvetica,sans-Serif" font-size="10.00">string</text>
</g>
<!-- Node0&#45;&gt;Node1 -->
<g id="edge1" class="edge"><title>Node0&#45;&gt;Node1</title>
<path fill="none" stroke="midnightblue" d="M177.476,-123.422C144.215,-114.018 99.3211,-101.239 50.8792,-87.0828"/>
<polygon fill="midnightblue" stroke="midnightblue" points="51.7265,-83.684 41.1459,-84.2337 49.76,-90.4021 51.7265,-83.684"/>
</g>
<!-- Node2 -->
<g id="node3" class="node"><title>Node2</title>
<polygon fill="white" stroke="#bfbfbf" points="59.5,-67.5 59.5,-86.5 103.5,-86.5 103.5,-67.5 59.5,-67.5"/>
<text text-anchor="middle" x="81.5" y="-74.5" font-family="Helvetica,sans-Serif" font-size="10.00">thread</text>
</g>
<!-- Node0&#45;&gt;Node2 -->
<g id="edge2" class="edge"><title>Node0&#45;&gt;Node2</title>
<path fill="none" stroke="midnightblue" d="M192.9,-123.399C168.404,-113.416 135.843,-100.147 112.255,-90.5335"/>
<polygon fill="midnightblue" stroke="midnightblue" points="113.326,-87.1906 102.744,-86.6578 110.684,-93.673 113.326,-87.1906"/>
</g>
<!-- Node3 -->
<g id="node4" class="node"><title>Node3</title>
<polygon fill="white" stroke="#bfbfbf" points="121.5,-67.5 121.5,-86.5 215.5,-86.5 215.5,-67.5 121.5,-67.5"/>
<text text-anchor="middle" x="168.5" y="-74.5" font-family="Helvetica,sans-Serif" font-size="10.00">opencv2/core.hpp</text>
</g>
<!-- Node0&#45;&gt;Node3 -->
<g id="edge3" class="edge"><title>Node0&#45;&gt;Node3</title>
<path fill="none" stroke="midnightblue" d="M213.518,-123.399C204.768,-114.575 193.471,-103.183 184.383,-94.0178"/>
<polygon fill="midnightblue" stroke="midnightblue" points="186.612,-91.2942 177.085,-86.6578 181.641,-96.2231 186.612,-91.2942"/>
</g>
<!-- Node4 -->
<g id="node5" class="node"><title>Node4</title>
<polygon fill="white" stroke="#bfbfbf" points="233.5,-67.5 233.5,-86.5 339.5,-86.5 339.5,-67.5 233.5,-67.5"/>
<text text-anchor="middle" x="286.5" y="-74.5" font-family="Helvetica,sans-Serif" font-size="10.00">opencv2/videoio.hpp</text>
</g>
<!-- Node0&#45;&gt;Node4 -->
<g id="edge4" class="edge"><title>Node0&#45;&gt;Node4</title>
<path fill="none" stroke="midnightblue" d="M241.482,-123.399C250.232,-114.575 261.529,-103.183 270.617,-94.0178"/>
<polygon fill="midnightblue" stroke="midnightblue" points="273.359,-96.2231 277.915,-86.6578 268.388,-91.2942 273.359,-96.2231"/>
</g>
<!-- Node5 -->
<g id="node6" class="node"><title>Node5</title>
<polygon fill="white" stroke="#bfbfbf" points="357.5,-67.5 357.5,-86.5 401.5,-86.5 401.5,-67.5 357.5,-67.5"/>
<text text-anchor="middle" x="379.5" y="-74.5" font-family="Helvetica,sans-Serif" font-size="10.00">mutex</text>
</g>
<!-- Node0&#45;&gt;Node5 -->
<g id="edge5" class="edge"><title>Node0&#45;&gt;Node5</title>
<path fill="none" stroke="midnightblue" d="M263.522,-123.399C289.139,-113.372 323.227,-100.028 347.81,-90.405"/>
<polygon fill="midnightblue" stroke="midnightblue" points="349.346,-93.5622 357.383,-86.6578 346.795,-87.0438 349.346,-93.5622"/>
</g>
<!-- Node6 -->
<g id="node7" class="node"><title>Node6</title>
<g id="a_node7"><a xlink:href="_o_r_b_vocabulary_8h.html" target="_top" xlink:title="ORBVocabulary.h">
<polygon fill="white" stroke="black" points="420,-67.5 420,-86.5 515,-86.5 515,-67.5 420,-67.5"/>
<text text-anchor="middle" x="467.5" y="-74.5" font-family="Helvetica,sans-Serif" font-size="10.00">ORBVocabulary.h</text>
</a>
</g>
</g>
<!-- Node0&#45;&gt;Node6 -->
<g id="edge6" class="edge"><title>Node0&#45;&gt;Node6</title>
<path fill="none" stroke="midnightblue" d="M284.073,-123.475C326.653,-112.918 384.185,-98.6552 423.389,-88.9358"/>
<polygon fill="midnightblue" stroke="midnightblue" points="424.325,-92.3099 433.189,-86.5064 422.64,-85.5156 424.325,-92.3099"/>
</g>
<!-- Node7 -->
<g id="node8" class="node"><title>Node7</title>
<polygon fill="white" stroke="#bfbfbf" points="338,-0.5 338,-30.5 445,-30.5 445,-0.5 338,-0.5"/>
<text text-anchor="start" x="346" y="-18.5" font-family="Helvetica,sans-Serif" font-size="10.00">../Thirdparty/DBoW2</text>
<text text-anchor="middle" x="391.5" y="-7.5" font-family="Helvetica,sans-Serif" font-size="10.00">/DBoW2/FORB.h</text>
</g>
<!-- Node6&#45;&gt;Node7 -->
<g id="edge7" class="edge"><title>Node6&#45;&gt;Node7</title>
<path fill="none" stroke="midnightblue" d="M456.611,-67.4751C446.414,-59.492 430.783,-47.2542 417.391,-36.7703"/>
<polygon fill="midnightblue" stroke="midnightblue" points="419.443,-33.9316 409.412,-30.523 415.128,-39.4434 419.443,-33.9316"/>
</g>
<!-- Node8 -->
<g id="node9" class="node"><title>Node8</title>
<polygon fill="white" stroke="#bfbfbf" points="463.5,-0.5 463.5,-30.5 623.5,-30.5 623.5,-0.5 463.5,-0.5"/>
<text text-anchor="start" x="471.5" y="-18.5" font-family="Helvetica,sans-Serif" font-size="10.00">../Thirdparty/DBoW2</text>
<text text-anchor="middle" x="543.5" y="-7.5" font-family="Helvetica,sans-Serif" font-size="10.00">/DBoW2/TemplatedVocabulary.h</text>
</g>
<!-- Node6&#45;&gt;Node8 -->
<g id="edge8" class="edge"><title>Node6&#45;&gt;Node8</title>
<path fill="none" stroke="midnightblue" d="M478.389,-67.4751C488.586,-59.492 504.217,-47.2542 517.609,-36.7703"/>
<polygon fill="midnightblue" stroke="midnightblue" points="519.872,-39.4434 525.588,-30.523 515.557,-33.9316 519.872,-39.4434"/>
</g>
</g>
</svg>
