<?xml version="1.0" encoding="UTF-8" standalone="no"?>
<!DOCTYPE svg PUBLIC "-//W3C//DTD SVG 1.1//EN"
 "http://www.w3.org/Graphics/SVG/1.1/DTD/svg11.dtd">
<!-- Generated by graphviz version 2.40.1 (20161225.0304)
 -->
<!-- Title: /home/alejandro/Desarrollo eclipse/os1/src/System.cc Pages: 1 -->
<svg width="2150pt" height="710pt"
 viewBox="0.00 0.00 2149.50 710.00" xmlns="http://www.w3.org/2000/svg" xmlns:xlink="http://www.w3.org/1999/xlink">
<g id="graph0" class="graph" transform="scale(1 1) rotate(0) translate(4 706)">
<title>/home/alejandro/Desarrollo eclipse/os1/src/System.cc</title>
<polygon fill="#ffffff" stroke="transparent" points="-4,4 -4,-706 2145.5,-706 2145.5,4 -4,4"/>
<!-- Node0 -->
<g id="node1" class="node">
<title>Node0</title>
<polygon fill="#bfbfbf" stroke="#000000" points="436.5,-671.5 436.5,-701.5 572.5,-701.5 572.5,-671.5 436.5,-671.5"/>
<text text-anchor="start" x="444.5" y="-689.5" font-family="Helvetica,sans-Serif" font-size="10.00" fill="#000000">/home/alejandro/Desarrollo</text>
<text text-anchor="middle" x="504.5" y="-678.5" font-family="Helvetica,sans-Serif" font-size="10.00" fill="#000000"> eclipse/os1/src/System.cc</text>
</g>
<!-- Node1 -->
<g id="node2" class="node">
<title>Node1</title>
<g id="a_node2"><a xlink:href="_system_8h.html" target="_top" xlink:title="System.h">
<polygon fill="#ffffff" stroke="#000000" points="163,-559.5 163,-578.5 222,-578.5 222,-559.5 163,-559.5"/>
<text text-anchor="middle" x="192.5" y="-566.5" font-family="Helvetica,sans-Serif" font-size="10.00" fill="#000000">System.h</text>
</a>
</g>
</g>
<!-- Node0&#45;&gt;Node1 -->
<g id="edge1" class="edge">
<title>Node0&#45;&gt;Node1</title>
<path fill="none" stroke="#191970" d="M451.1626,-671.4451C418.8287,-661.9013 376.9229,-648.7877 340.5,-635 298.4222,-619.0716 251.1599,-597.2879 221.6112,-583.1804"/>
<polygon fill="#191970" stroke="#191970" points="222.832,-579.8841 212.3024,-578.71 219.8016,-586.1942 222.832,-579.8841"/>
</g>
<!-- Node3 -->
<g id="node4" class="node">
<title>Node3</title>
<polygon fill="#ffffff" stroke="#bfbfbf" points="125.5,-391.5 125.5,-410.5 169.5,-410.5 169.5,-391.5 125.5,-391.5"/>
<text text-anchor="middle" x="147.5" y="-398.5" font-family="Helvetica,sans-Serif" font-size="10.00" fill="#000000">thread</text>
</g>
<!-- Node0&#45;&gt;Node3 -->
<g id="edge129" class="edge">
<title>Node0&#45;&gt;Node3</title>
<path fill="none" stroke="#191970" d="M436.4242,-675.7316C343.8639,-659.5022 186.0615,-625.6381 153.5,-579 119.7991,-530.7299 132.9081,-455.802 141.8403,-420.5683"/>
<polygon fill="#191970" stroke="#191970" points="145.3019,-421.1743 144.5289,-410.6077 138.5438,-419.3501 145.3019,-421.1743"/>
</g>
<!-- Node24 -->
<g id="node20" class="node">
<title>Node24</title>
<g id="a_node20"><a xlink:href="_converter_8h.html" target="_top" xlink:title="Converter.h">
<polygon fill="#ffffff" stroke="#000000" points="1663.5,-391.5 1663.5,-410.5 1731.5,-410.5 1731.5,-391.5 1663.5,-391.5"/>
<text text-anchor="middle" x="1697.5" y="-398.5" font-family="Helvetica,sans-Serif" font-size="10.00" fill="#000000">Converter.h</text>
</a>
</g>
</g>
<!-- Node0&#45;&gt;Node24 -->
<g id="edge29" class="edge">
<title>Node0&#45;&gt;Node24</title>
<path fill="none" stroke="#191970" d="M572.6918,-685.6534C745.2855,-682.9747 1195.962,-672.4946 1340.5,-635 1406.3087,-617.9286 1478.5,-636.9869 1478.5,-569 1478.5,-569 1478.5,-569 1478.5,-513 1478.5,-435.3313 1589.0376,-411.4913 1653.0502,-404.1972"/>
<polygon fill="#191970" stroke="#191970" points="1653.6999,-407.6484 1663.2813,-403.1264 1652.9712,-400.6864 1653.6999,-407.6484"/>
</g>
<!-- Node66 -->
<g id="node32" class="node">
<title>Node66</title>
<g id="a_node32"><a xlink:href="_tracking_8h.html" target="_top" xlink:title="Tracking.h">
<polygon fill="#ffffff" stroke="#000000" points="582.5,-615.5 582.5,-634.5 644.5,-634.5 644.5,-615.5 582.5,-615.5"/>
<text text-anchor="middle" x="613.5" y="-622.5" font-family="Helvetica,sans-Serif" font-size="10.00" fill="#000000">Tracking.h</text>
</a>
</g>
</g>
<!-- Node0&#45;&gt;Node66 -->
<g id="edge52" class="edge">
<title>Node0&#45;&gt;Node66</title>
<path fill="none" stroke="#191970" d="M531.1644,-671.4554C548.3941,-661.734 570.6975,-649.15 587.7446,-639.5317"/>
<polygon fill="#191970" stroke="#191970" points="589.6194,-642.4926 596.6089,-634.5303 586.1796,-636.3961 589.6194,-642.4926"/>
</g>
<!-- Node68 -->
<g id="node34" class="node">
<title>Node68</title>
<g id="a_node34"><a xlink:href="_viewer_8h.html" target="_top" xlink:title="Viewer.h">
<polygon fill="#ffffff" stroke="#000000" points="0,-324.5 0,-343.5 55,-343.5 55,-324.5 0,-324.5"/>
<text text-anchor="middle" x="27.5" y="-331.5" font-family="Helvetica,sans-Serif" font-size="10.00" fill="#000000">Viewer.h</text>
</a>
</g>
</g>
<!-- Node0&#45;&gt;Node68 -->
<g id="edge128" class="edge">
<title>Node0&#45;&gt;Node68</title>
<path fill="none" stroke="#191970" d="M436.4364,-684.5258C300.3206,-678.7215 7.5,-656.1117 7.5,-569 7.5,-569 7.5,-569 7.5,-457 7.5,-420.0403 16.4065,-377.6339 22.3324,-353.5094"/>
<polygon fill="#191970" stroke="#191970" points="25.7297,-354.3511 24.8027,-343.7969 18.9457,-352.6256 25.7297,-354.3511"/>
</g>
<!-- Node69 -->
<g id="node35" class="node">
<title>Node69</title>
<g id="a_node35"><a xlink:href="_frame_drawer_8h.html" target="_top" xlink:title="FrameDrawer.h">
<polygon fill="#ffffff" stroke="#000000" points="240.5,-559.5 240.5,-578.5 324.5,-578.5 324.5,-559.5 240.5,-559.5"/>
<text text-anchor="middle" x="282.5" y="-566.5" font-family="Helvetica,sans-Serif" font-size="10.00" fill="#000000">FrameDrawer.h</text>
</a>
</g>
</g>
<!-- Node0&#45;&gt;Node69 -->
<g id="edge122" class="edge">
<title>Node0&#45;&gt;Node69</title>
<path fill="none" stroke="#191970" d="M459.8186,-671.3952C434.6968,-662.2007 403.1303,-649.4563 376.5,-635 349.4196,-620.2993 320.782,-599.2982 302.3342,-584.9592"/>
<polygon fill="#191970" stroke="#191970" points="304.4051,-582.135 294.3827,-578.6993 300.075,-587.6351 304.4051,-582.135"/>
</g>
<!-- Node70 -->
<g id="node36" class="node">
<title>Node70</title>
<g id="a_node36"><a xlink:href="_map_8h.html" target="_top" xlink:title="Map.h">
<polygon fill="#ffffff" stroke="#000000" points="492.5,-391.5 492.5,-410.5 536.5,-410.5 536.5,-391.5 492.5,-391.5"/>
<text text-anchor="middle" x="514.5" y="-398.5" font-family="Helvetica,sans-Serif" font-size="10.00" fill="#000000">Map.h</text>
</a>
</g>
</g>
<!-- Node0&#45;&gt;Node70 -->
<g id="edge124" class="edge">
<title>Node0&#45;&gt;Node70</title>
<path fill="none" stroke="#191970" d="M493.8752,-671.064C487.7651,-661.2271 480.6862,-647.9392 477.5,-635 475.3747,-626.3689 477.4206,-623.8885 477.5,-615 477.7222,-590.1081 475.4968,-583.711 478.5,-559 484.6397,-508.4807 500.0772,-450.468 508.6072,-420.7754"/>
<polygon fill="#191970" stroke="#191970" points="512.0602,-421.4369 511.5044,-410.8567 505.3409,-419.4742 512.0602,-421.4369"/>
</g>
<!-- Node71 -->
<g id="node38" class="node">
<title>Node71</title>
<g id="a_node38"><a xlink:href="_local_mapping_8h.html" target="_top" xlink:title="LocalMapping.h">
<polygon fill="#ffffff" stroke="#000000" points="544,-503.5 544,-522.5 629,-522.5 629,-503.5 544,-503.5"/>
<text text-anchor="middle" x="586.5" y="-510.5" font-family="Helvetica,sans-Serif" font-size="10.00" fill="#000000">LocalMapping.h</text>
</a>
</g>
</g>
<!-- Node0&#45;&gt;Node71 -->
<g id="edge125" class="edge">
<title>Node0&#45;&gt;Node71</title>
<path fill="none" stroke="#191970" d="M497.1611,-671.3853C486.0087,-646.0273 468.3106,-594.2376 490.5,-559 500.2964,-543.443 516.9749,-533.0305 533.7078,-526.1135"/>
<polygon fill="#191970" stroke="#191970" points="535.3824,-529.2234 543.5145,-522.4323 532.9224,-522.6699 535.3824,-529.2234"/>
</g>
<!-- Node73 -->
<g id="node40" class="node">
<title>Node73</title>
<g id="a_node40"><a xlink:href="_key_frame_database_8h.html" target="_top" xlink:title="KeyFrameDatabase.h">
<polygon fill="#ffffff" stroke="#000000" points="776.5,-324.5 776.5,-343.5 888.5,-343.5 888.5,-324.5 776.5,-324.5"/>
<text text-anchor="middle" x="832.5" y="-331.5" font-family="Helvetica,sans-Serif" font-size="10.00" fill="#000000">KeyFrameDatabase.h</text>
</a>
</g>
</g>
<!-- Node0&#45;&gt;Node73 -->
<g id="edge127" class="edge">
<title>Node0&#45;&gt;Node73</title>
<path fill="none" stroke="#191970" d="M572.8179,-683.8887C770.0685,-675.4476 1326.5,-644.9087 1326.5,-569 1326.5,-569 1326.5,-569 1326.5,-513 1326.5,-423.0954 1033.623,-365.5168 898.8876,-343.785"/>
<polygon fill="#191970" stroke="#191970" points="899.1133,-340.2769 888.6871,-342.1596 898.0117,-347.1897 899.1133,-340.2769"/>
</g>
<!-- Node74 -->
<g id="node42" class="node">
<title>Node74</title>
<g id="a_node42"><a xlink:href="_loop_closing_8h.html" target="_top" xlink:title="LoopClosing.h">
<polygon fill="#ffffff" stroke="#000000" points="625,-447.5 625,-466.5 704,-466.5 704,-447.5 625,-447.5"/>
<text text-anchor="middle" x="664.5" y="-454.5" font-family="Helvetica,sans-Serif" font-size="10.00" fill="#000000">LoopClosing.h</text>
</a>
</g>
</g>
<!-- Node0&#45;&gt;Node74 -->
<g id="edge126" class="edge">
<title>Node0&#45;&gt;Node74</title>
<path fill="none" stroke="#191970" d="M572.7444,-673.0786C657.0475,-654.952 792.984,-620.1347 822.5,-579 838.5944,-556.5701 812.027,-515.5586 798.5,-503 775.3822,-481.5372 741.7964,-470.0341 714.033,-463.8983"/>
<polygon fill="#191970" stroke="#191970" points="714.5958,-460.4411 704.098,-461.8721 713.1969,-467.2999 714.5958,-460.4411"/>
</g>
<!-- Node80 -->
<g id="node48" class="node">
<title>Node80</title>
<g id="a_node48"><a xlink:href="_map_drawer_8h.html" target="_top" xlink:title="MapDrawer.h">
<polygon fill="#ffffff" stroke="#000000" points="647,-503.5 647,-522.5 722,-522.5 722,-503.5 647,-503.5"/>
<text text-anchor="middle" x="684.5" y="-510.5" font-family="Helvetica,sans-Serif" font-size="10.00" fill="#000000">MapDrawer.h</text>
</a>
</g>
</g>
<!-- Node0&#45;&gt;Node80 -->
<g id="edge123" class="edge">
<title>Node0&#45;&gt;Node80</title>
<path fill="none" stroke="#191970" d="M518.5172,-671.4572C532.2814,-656.8103 553.9929,-634.0361 573.5,-615 605.2231,-584.0428 643.5545,-549.4031 665.8657,-529.5028"/>
<polygon fill="#191970" stroke="#191970" points="668.4398,-531.8974 673.5852,-522.6359 663.7873,-526.6673 668.4398,-531.8974"/>
</g>
<!-- Node81 -->
<g id="node49" class="node">
<title>Node81</title>
<polygon fill="#ffffff" stroke="#bfbfbf" points="798.5,-447.5 798.5,-466.5 898.5,-466.5 898.5,-447.5 798.5,-447.5"/>
<text text-anchor="middle" x="848.5" y="-454.5" font-family="Helvetica,sans-Serif" font-size="10.00" fill="#000000">pangolin/pangolin.h</text>
</g>
<!-- Node0&#45;&gt;Node81 -->
<g id="edge130" class="edge">
<title>Node0&#45;&gt;Node81</title>
<path fill="none" stroke="#191970" d="M572.5546,-684.9761C716.3079,-680.1711 1043.2971,-660.3429 1111.5,-579 1142.537,-541.9834 979.175,-491.8891 895.4837,-469.1387"/>
<polygon fill="#191970" stroke="#191970" points="896.2569,-465.7223 885.6909,-466.5026 894.4373,-472.4817 896.2569,-465.7223"/>
</g>
<!-- Node82 -->
<g id="node50" class="node">
<title>Node82</title>
<polygon fill="#ffffff" stroke="#bfbfbf" points="1506.5,-615.5 1506.5,-634.5 1556.5,-634.5 1556.5,-615.5 1506.5,-615.5"/>
<text text-anchor="middle" x="1531.5" y="-622.5" font-family="Helvetica,sans-Serif" font-size="10.00" fill="#000000">iomanip</text>
</g>
<!-- Node0&#45;&gt;Node82 -->
<g id="edge131" class="edge">
<title>Node0&#45;&gt;Node82</title>
<path fill="none" stroke="#191970" d="M572.5001,-684.7177C765.5577,-679.3777 1314.5365,-662.177 1492.5,-635 1493.7826,-634.8041 1495.0843,-634.5841 1496.3955,-634.3444"/>
<polygon fill="#191970" stroke="#191970" points="1497.4246,-637.7038 1506.4763,-632.1978 1495.9666,-630.8573 1497.4246,-637.7038"/>
</g>
<!-- Node2 -->
<g id="node3" class="node">
<title>Node2</title>
<polygon fill="#ffffff" stroke="#bfbfbf" points="460,-56.5 460,-75.5 501,-75.5 501,-56.5 460,-56.5"/>
<text text-anchor="middle" x="480.5" y="-63.5" font-family="Helvetica,sans-Serif" font-size="10.00" fill="#000000">string</text>
</g>
<!-- Node1&#45;&gt;Node2 -->
<g id="edge2" class="edge">
<title>Node1&#45;&gt;Node2</title>
<path fill="none" stroke="#191970" d="M180.4186,-559.4546C152.0391,-535.8622 83.5,-471.5786 83.5,-401 83.5,-401 83.5,-401 83.5,-183.5 83.5,-107.1851 356.6395,-76.6299 449.8003,-68.4278"/>
<polygon fill="#191970" stroke="#191970" points="450.3258,-71.8958 459.9915,-67.5572 449.7299,-64.9212 450.3258,-71.8958"/>
</g>
<!-- Node1&#45;&gt;Node3 -->
<g id="edge3" class="edge">
<title>Node1&#45;&gt;Node3</title>
<path fill="none" stroke="#191970" d="M189.9517,-559.4862C182.8074,-532.8144 162.4764,-456.9117 152.7755,-420.695"/>
<polygon fill="#191970" stroke="#191970" points="156.1007,-419.5818 150.1325,-410.8279 149.3391,-421.393 156.1007,-419.5818"/>
</g>
<!-- Node4 -->
<g id="node5" class="node">
<title>Node4</title>
<polygon fill="#ffffff" stroke="#bfbfbf" points="301.5,-503.5 301.5,-522.5 395.5,-522.5 395.5,-503.5 301.5,-503.5"/>
<text text-anchor="middle" x="348.5" y="-510.5" font-family="Helvetica,sans-Serif" font-size="10.00" fill="#000000">opencv2/core.hpp</text>
</g>
<!-- Node1&#45;&gt;Node4 -->
<g id="edge4" class="edge">
<title>Node1&#45;&gt;Node4</title>
<path fill="none" stroke="#191970" d="M219.3174,-559.3733C245.0332,-550.1419 284.038,-536.1402 312.4599,-525.9375"/>
<polygon fill="#191970" stroke="#191970" points="313.8032,-529.174 322.0326,-522.5011 311.4381,-522.5857 313.8032,-529.174"/>
</g>
<!-- Node5 -->
<g id="node6" class="node">
<title>Node5</title>
<polygon fill="#ffffff" stroke="#bfbfbf" points="422.5,-246.5 422.5,-265.5 466.5,-265.5 466.5,-246.5 422.5,-246.5"/>
<text text-anchor="middle" x="444.5" y="-253.5" font-family="Helvetica,sans-Serif" font-size="10.00" fill="#000000">mutex</text>
</g>
<!-- Node1&#45;&gt;Node5 -->
<g id="edge5" class="edge">
<title>Node1&#45;&gt;Node5</title>
<path fill="none" stroke="#191970" d="M193.2164,-559.4181C194.5989,-540.0718 197.5,-494.9544 197.5,-457 197.5,-457 197.5,-457 197.5,-401 197.5,-302.5883 345.1256,-269.6768 412.1199,-259.808"/>
<polygon fill="#191970" stroke="#191970" points="412.7214,-263.2582 422.1448,-258.4155 411.7583,-256.3247 412.7214,-263.2582"/>
</g>
<!-- Node6 -->
<g id="node7" class="node">
<title>Node6</title>
<g id="a_node7"><a xlink:href="_o_r_b_vocabulary_8h.html" target="_top" xlink:title="ORBVocabulary.h">
<polygon fill="#ffffff" stroke="#000000" points="785,-246.5 785,-265.5 880,-265.5 880,-246.5 785,-246.5"/>
<text text-anchor="middle" x="832.5" y="-253.5" font-family="Helvetica,sans-Serif" font-size="10.00" fill="#000000">ORBVocabulary.h</text>
</a>
</g>
</g>
<!-- Node1&#45;&gt;Node6 -->
<g id="edge6" class="edge">
<title>Node1&#45;&gt;Node6</title>
<path fill="none" stroke="#191970" d="M204.616,-559.4924C252.6744,-522.2395 435.6331,-384.7405 607.5,-313 662.2387,-290.151 728.4181,-274.7328 774.7836,-265.7544"/>
<polygon fill="#191970" stroke="#191970" points="775.4849,-269.1839 784.6575,-263.8816 774.1804,-262.3065 775.4849,-269.1839"/>
</g>
<!-- Node7 -->
<g id="node8" class="node">
<title>Node7</title>
<g id="a_node8"><a xlink:href="_f_o_r_b_8h.html" target="_top" xlink:title="../Thirdparty/DBoW2\l/DBoW2/FORB.h">
<polygon fill="#ffffff" stroke="#000000" points="577,-168.5 577,-198.5 684,-198.5 684,-168.5 577,-168.5"/>
<text text-anchor="start" x="585" y="-186.5" font-family="Helvetica,sans-Serif" font-size="10.00" fill="#000000">../Thirdparty/DBoW2</text>
<text text-anchor="middle" x="630.5" y="-175.5" font-family="Helvetica,sans-Serif" font-size="10.00" fill="#000000">/DBoW2/FORB.h</text>
</a>
</g>
</g>
<!-- Node6&#45;&gt;Node7 -->
<g id="edge7" class="edge">
<title>Node6&#45;&gt;Node7</title>
<path fill="none" stroke="#191970" d="M805.676,-246.3726C774.3133,-235.1162 721.6838,-216.2269 682.2817,-202.085"/>
<polygon fill="#191970" stroke="#191970" points="683.1647,-198.6834 672.5702,-198.5995 680.8,-205.2719 683.1647,-198.6834"/>
</g>
<!-- Node11 -->
<g id="node12" class="node">
<title>Node11</title>
<g id="a_node12"><a xlink:href="_templated_vocabulary_8h.html" target="_top" xlink:title="../Thirdparty/DBoW2\l/DBoW2/TemplatedVocabulary.h">
<polygon fill="#ffffff" stroke="#ff0000" points="872.5,-168.5 872.5,-198.5 1032.5,-198.5 1032.5,-168.5 872.5,-168.5"/>
<text text-anchor="start" x="880.5" y="-186.5" font-family="Helvetica,sans-Serif" font-size="10.00" fill="#000000">../Thirdparty/DBoW2</text>
<text text-anchor="middle" x="952.5" y="-175.5" font-family="Helvetica,sans-Serif" font-size="10.00" fill="#000000">/DBoW2/TemplatedVocabulary.h</text>
</a>
</g>
</g>
<!-- Node6&#45;&gt;Node11 -->
<g id="edge15" class="edge">
<title>Node6&#45;&gt;Node11</title>
<path fill="none" stroke="#191970" d="M848.6837,-246.2223C866.5306,-235.4399 895.7496,-217.7867 918.6501,-203.951"/>
<polygon fill="#191970" stroke="#191970" points="920.6451,-206.8349 927.3943,-198.668 917.0252,-200.8435 920.6451,-206.8349"/>
</g>
<!-- Node7&#45;&gt;Node2 -->
<g id="edge10" class="edge">
<title>Node7&#45;&gt;Node2</title>
<path fill="none" stroke="#191970" d="M576.9811,-172.2619C552.1077,-164.6132 523.8273,-152.101 504.5,-132 492.3788,-119.3936 486.3061,-100.194 483.3093,-85.7472"/>
<polygon fill="#191970" stroke="#191970" points="486.7422,-85.0595 481.5679,-75.8141 479.8473,-86.2682 486.7422,-85.0595"/>
</g>
<!-- Node8 -->
<g id="node9" class="node">
<title>Node8</title>
<polygon fill="#ffffff" stroke="#bfbfbf" points="1150.5,-56.5 1150.5,-75.5 1266.5,-75.5 1266.5,-56.5 1150.5,-56.5"/>
<text text-anchor="middle" x="1208.5" y="-63.5" font-family="Helvetica,sans-Serif" font-size="10.00" fill="#000000">opencv2/core/core.hpp</text>
</g>
<!-- Node7&#45;&gt;Node8 -->
<g id="edge8" class="edge">
<title>Node7&#45;&gt;Node8</title>
<path fill="none" stroke="#191970" d="M637.7467,-168.436C646.7993,-151.4688 664.0049,-124.6201 687.5,-112 726.4814,-91.0617 1008.1509,-75.3403 1140.337,-69.0303"/>
<polygon fill="#191970" stroke="#191970" points="1140.5335,-72.525 1150.3569,-68.5564 1140.2027,-65.5329 1140.5335,-72.525"/>
</g>
<!-- Node9 -->
<g id="node10" class="node">
<title>Node9</title>
<polygon fill="#ffffff" stroke="#bfbfbf" points="820.5,-.5 820.5,-19.5 864.5,-19.5 864.5,-.5 820.5,-.5"/>
<text text-anchor="middle" x="842.5" y="-7.5" font-family="Helvetica,sans-Serif" font-size="10.00" fill="#000000">vector</text>
</g>
<!-- Node7&#45;&gt;Node9 -->
<g id="edge9" class="edge">
<title>Node7&#45;&gt;Node9</title>
<path fill="none" stroke="#191970" d="M633.7907,-168.2403C637.8229,-152.581 645.9795,-128.2706 660.5,-112 702.2987,-65.1635 770.9182,-34.994 810.8853,-20.3909"/>
<polygon fill="#191970" stroke="#191970" points="812.1436,-23.6583 820.3953,-17.013 809.8006,-17.062 812.1436,-23.6583"/>
</g>
<!-- Node10 -->
<g id="node11" class="node">
<title>Node10</title>
<g id="a_node11"><a xlink:href="_f_class_8h.html" target="_top" xlink:title="FClass.h">
<polygon fill="#ffffff" stroke="#000000" points="546.5,-112.5 546.5,-131.5 602.5,-131.5 602.5,-112.5 546.5,-112.5"/>
<text text-anchor="middle" x="574.5" y="-119.5" font-family="Helvetica,sans-Serif" font-size="10.00" fill="#000000">FClass.h</text>
</a>
</g>
</g>
<!-- Node7&#45;&gt;Node10 -->
<g id="edge11" class="edge">
<title>Node7&#45;&gt;Node10</title>
<path fill="none" stroke="#191970" d="M616.6573,-168.2977C608.641,-159.4941 598.5238,-148.3833 590.21,-139.2529"/>
<polygon fill="#191970" stroke="#191970" points="592.7869,-136.8845 583.4663,-131.8469 587.6112,-141.5974 592.7869,-136.8845"/>
</g>
<!-- Node10&#45;&gt;Node2 -->
<g id="edge14" class="edge">
<title>Node10&#45;&gt;Node2</title>
<path fill="none" stroke="#191970" d="M558.1264,-112.2455C543.5692,-103.5731 522.069,-90.7645 505.3848,-80.825"/>
<polygon fill="#191970" stroke="#191970" points="507.0683,-77.7539 496.6859,-75.6427 503.4856,-83.7676 507.0683,-77.7539"/>
</g>
<!-- Node10&#45;&gt;Node8 -->
<g id="edge12" class="edge">
<title>Node10&#45;&gt;Node8</title>
<path fill="none" stroke="#191970" d="M602.6051,-118.1973C617.9278,-116.1972 637.2368,-113.7949 654.5,-112 829.153,-93.8412 1035.3803,-78.2587 1140.0833,-70.7627"/>
<polygon fill="#191970" stroke="#191970" points="1140.4748,-74.2437 1150.2004,-70.0409 1139.9767,-67.2615 1140.4748,-74.2437"/>
</g>
<!-- Node10&#45;&gt;Node9 -->
<g id="edge13" class="edge">
<title>Node10&#45;&gt;Node9</title>
<path fill="none" stroke="#191970" d="M577.8939,-112.155C583.4971,-97.4562 596.1328,-70.0068 616.5,-56 647.5845,-34.6228 755.3586,-19.7927 810.0802,-13.4539"/>
<polygon fill="#191970" stroke="#191970" points="810.7356,-16.9021 820.2787,-12.2999 809.9485,-9.9465 810.7356,-16.9021"/>
</g>
<!-- Node11&#45;&gt;Node2 -->
<g id="edge20" class="edge">
<title>Node11&#45;&gt;Node2</title>
<path fill="none" stroke="#191970" d="M872.3111,-180.3578C768.3696,-175.1306 593.7628,-162.0787 537.5,-132 517.1552,-121.1235 500.8355,-99.8121 490.957,-84.3413"/>
<polygon fill="#191970" stroke="#191970" points="493.8389,-82.3437 485.6602,-75.6087 487.8538,-85.974 493.8389,-82.3437"/>
</g>
<!-- Node11&#45;&gt;Node8 -->
<g id="edge22" class="edge">
<title>Node11&#45;&gt;Node8</title>
<path fill="none" stroke="#191970" d="M991.7333,-168.4211C1016.7768,-158.5614 1049.8092,-145.1199 1078.5,-132 1114.7872,-115.4064 1155.6789,-94.2224 1181.7446,-80.3935"/>
<polygon fill="#191970" stroke="#191970" points="1183.4613,-83.4448 1190.641,-75.6536 1180.1697,-77.2669 1183.4613,-83.4448"/>
</g>
<!-- Node11&#45;&gt;Node9 -->
<g id="edge17" class="edge">
<title>Node11&#45;&gt;Node9</title>
<path fill="none" stroke="#191970" d="M914.3537,-168.4742C896.1013,-159.8654 874.9216,-147.6377 859.5,-132 834.0014,-106.144 824.5149,-91.9703 829.5,-56 830.7357,-47.0835 833.2581,-37.4647 835.755,-29.3395"/>
<polygon fill="#191970" stroke="#191970" points="839.1247,-30.296 838.9124,-19.7033 832.4726,-28.1164 839.1247,-30.296"/>
</g>
<!-- Node12 -->
<g id="node13" class="node">
<title>Node12</title>
<polygon fill="#ffffff" stroke="#bfbfbf" points="1203,-112.5 1203,-131.5 1252,-131.5 1252,-112.5 1203,-112.5"/>
<text text-anchor="middle" x="1227.5" y="-119.5" font-family="Helvetica,sans-Serif" font-size="10.00" fill="#000000">cassert</text>
</g>
<!-- Node11&#45;&gt;Node12 -->
<g id="edge16" class="edge">
<title>Node11&#45;&gt;Node12</title>
<path fill="none" stroke="#191970" d="M1019.7726,-168.4554C1074.5657,-156.2017 1149.697,-139.3996 1192.9712,-129.7219"/>
<polygon fill="#191970" stroke="#191970" points="1194.0014,-133.078 1202.9964,-127.4799 1192.4736,-126.2468 1194.0014,-133.078"/>
</g>
<!-- Node13 -->
<g id="node14" class="node">
<title>Node13</title>
<polygon fill="#ffffff" stroke="#bfbfbf" points="1019,-112.5 1019,-131.5 1070,-131.5 1070,-112.5 1019,-112.5"/>
<text text-anchor="middle" x="1044.5" y="-119.5" font-family="Helvetica,sans-Serif" font-size="10.00" fill="#000000">numeric</text>
</g>
<!-- Node11&#45;&gt;Node13 -->
<g id="edge18" class="edge">
<title>Node11&#45;&gt;Node13</title>
<path fill="none" stroke="#191970" d="M975.2416,-168.2977C989.2967,-158.9022 1007.283,-146.8787 1021.4036,-137.4395"/>
<polygon fill="#191970" stroke="#191970" points="1023.6759,-140.1305 1030.0444,-131.6633 1019.7857,-134.311 1023.6759,-140.1305"/>
</g>
<!-- Node14 -->
<g id="node15" class="node">
<title>Node14</title>
<polygon fill="#ffffff" stroke="#bfbfbf" points="876.5,-112.5 876.5,-131.5 926.5,-131.5 926.5,-112.5 876.5,-112.5"/>
<text text-anchor="middle" x="901.5" y="-119.5" font-family="Helvetica,sans-Serif" font-size="10.00" fill="#000000">fstream</text>
</g>
<!-- Node11&#45;&gt;Node14 -->
<g id="edge19" class="edge">
<title>Node11&#45;&gt;Node14</title>
<path fill="none" stroke="#191970" d="M939.8933,-168.2977C932.7402,-159.672 923.7503,-148.8312 916.2682,-139.8087"/>
<polygon fill="#191970" stroke="#191970" points="918.7433,-137.3103 909.6657,-131.8469 913.355,-141.7787 918.7433,-137.3103"/>
</g>
<!-- Node15 -->
<g id="node16" class="node">
<title>Node15</title>
<polygon fill="#ffffff" stroke="#bfbfbf" points="944.5,-112.5 944.5,-131.5 1000.5,-131.5 1000.5,-112.5 944.5,-112.5"/>
<text text-anchor="middle" x="972.5" y="-119.5" font-family="Helvetica,sans-Serif" font-size="10.00" fill="#000000">algorithm</text>
</g>
<!-- Node11&#45;&gt;Node15 -->
<g id="edge21" class="edge">
<title>Node11&#45;&gt;Node15</title>
<path fill="none" stroke="#191970" d="M957.4438,-168.2977C960.0754,-160.2055 963.341,-150.1639 966.1576,-141.5029"/>
<polygon fill="#191970" stroke="#191970" points="969.5335,-142.4391 969.2977,-131.8469 962.8766,-140.2743 969.5335,-142.4391"/>
</g>
<!-- Node16 -->
<g id="node17" class="node">
<title>Node16</title>
<polygon fill="#ffffff" stroke="#bfbfbf" points="1422.5,-112.5 1422.5,-131.5 1462.5,-131.5 1462.5,-112.5 1422.5,-112.5"/>
<text text-anchor="middle" x="1442.5" y="-119.5" font-family="Helvetica,sans-Serif" font-size="10.00" fill="#000000">limits</text>
</g>
<!-- Node11&#45;&gt;Node16 -->
<g id="edge23" class="edge">
<title>Node11&#45;&gt;Node16</title>
<path fill="none" stroke="#191970" d="M1032.591,-173.4478C1143.2837,-159.5547 1337.8034,-135.1405 1412.3019,-125.7902"/>
<polygon fill="#191970" stroke="#191970" points="1412.9121,-129.2411 1422.3983,-124.523 1412.0403,-122.2956 1412.9121,-129.2411"/>
</g>
<!-- Node17 -->
<g id="node18" class="node">
<title>Node17</title>
<g id="a_node18"><a xlink:href="_feature_vector_8h.html" target="_top" xlink:title="FeatureVector.h">
<polygon fill="#ffffff" stroke="#ff0000" points="696.5,-112.5 696.5,-131.5 782.5,-131.5 782.5,-112.5 696.5,-112.5"/>
<text text-anchor="middle" x="739.5" y="-119.5" font-family="Helvetica,sans-Serif" font-size="10.00" fill="#000000">FeatureVector.h</text>
</a>
</g>
</g>
<!-- Node11&#45;&gt;Node17 -->
<g id="edge24" class="edge">
<title>Node11&#45;&gt;Node17</title>
<path fill="none" stroke="#191970" d="M900.3943,-168.4554C864.0754,-157.9689 816.2197,-144.1515 782.1646,-134.3187"/>
<polygon fill="#191970" stroke="#191970" points="783.0859,-130.9418 772.5074,-131.5303 781.1441,-137.667 783.0859,-130.9418"/>
</g>
<!-- Node18 -->
<g id="node19" class="node">
<title>Node18</title>
<g id="a_node19"><a xlink:href="_bow_vector_8h.html" target="_top" xlink:title="BowVector.h">
<polygon fill="#ffffff" stroke="#ff0000" points="839,-56.5 839,-75.5 912,-75.5 912,-56.5 839,-56.5"/>
<text text-anchor="middle" x="875.5" y="-63.5" font-family="Helvetica,sans-Serif" font-size="10.00" fill="#000000">BowVector.h</text>
</a>
</g>
</g>
<!-- Node11&#45;&gt;Node18 -->
<g id="edge28" class="edge">
<title>Node11&#45;&gt;Node18</title>
<path fill="none" stroke="#191970" d="M910.1841,-168.4897C893.8193,-160.3701 876.8156,-148.5362 867.5,-132 859.4643,-117.7358 862.7894,-99.0165 867.3528,-85.1581"/>
<polygon fill="#191970" stroke="#191970" points="870.6796,-86.2545 870.9161,-75.6623 864.1259,-83.7951 870.6796,-86.2545"/>
</g>
<!-- Node17&#45;&gt;Node9 -->
<g id="edge27" class="edge">
<title>Node17&#45;&gt;Node9</title>
<path fill="none" stroke="#191970" d="M747.4054,-112.4103C758.2202,-99.3936 778.3586,-75.5173 796.5,-56 805.6838,-46.1197 816.311,-35.4459 825.0358,-26.8696"/>
<polygon fill="#191970" stroke="#191970" points="827.705,-29.1552 832.4174,-19.6661 822.816,-24.1454 827.705,-29.1552"/>
</g>
<!-- Node17&#45;&gt;Node18 -->
<g id="edge25" class="edge">
<title>Node17&#45;&gt;Node18</title>
<path fill="none" stroke="#191970" d="M762.8792,-112.3733C785.0045,-103.2629 818.4134,-89.5062 843.1019,-79.3404"/>
<polygon fill="#191970" stroke="#191970" points="844.5117,-82.5451 852.4258,-75.5011 841.8464,-76.0723 844.5117,-82.5451"/>
</g>
<!-- Node18&#45;&gt;Node9 -->
<g id="edge26" class="edge">
<title>Node18&#45;&gt;Node9</title>
<path fill="none" stroke="#191970" d="M869.7518,-56.2455C865.2565,-48.617 858.8752,-37.7881 853.4175,-28.5267"/>
<polygon fill="#191970" stroke="#191970" points="856.2747,-26.4811 848.1823,-19.6427 850.2439,-30.035 856.2747,-26.4811"/>
</g>
<!-- Node24&#45;&gt;Node8 -->
<g id="edge30" class="edge">
<title>Node24&#45;&gt;Node8</title>
<path fill="none" stroke="#191970" d="M1676.3307,-391.4239C1621.7807,-366.017 1473.8181,-292.4065 1375.5,-199 1341.2632,-166.4736 1351.0902,-141.8544 1314.5,-112 1296.467,-97.2867 1273.0086,-86.4617 1252.7458,-79.0226"/>
<polygon fill="#191970" stroke="#191970" points="1253.6879,-75.6442 1243.0931,-75.6405 1251.3732,-82.2504 1253.6879,-75.6442"/>
</g>
<!-- Node25 -->
<g id="node21" class="node">
<title>Node25</title>
<polygon fill="#ffffff" stroke="#bfbfbf" points="2037.5,-56.5 2037.5,-75.5 2141.5,-75.5 2141.5,-56.5 2037.5,-56.5"/>
<text text-anchor="middle" x="2089.5" y="-63.5" font-family="Helvetica,sans-Serif" font-size="10.00" fill="#000000">eigen3/Eigen/Dense</text>
</g>
<!-- Node24&#45;&gt;Node25 -->
<g id="edge31" class="edge">
<title>Node24&#45;&gt;Node25</title>
<path fill="none" stroke="#191970" d="M1731.5553,-397.0848C1833.8667,-384.3861 2131.5,-340.2077 2131.5,-256 2131.5,-256 2131.5,-256 2131.5,-183.5 2131.5,-146.7019 2113.0087,-107.0053 2100.565,-84.4577"/>
<polygon fill="#191970" stroke="#191970" points="2103.5229,-82.5796 2095.5176,-75.6394 2097.4477,-86.0569 2103.5229,-82.5796"/>
</g>
<!-- Node26 -->
<g id="node22" class="node">
<title>Node26</title>
<g id="a_node22"><a xlink:href="types__six__dof__expmap_8h.html" target="_top" xlink:title="../Thirdparty/g2o/g2o\l/types/types_six_dof\l_expmap.h">
<polygon fill="#ffffff" stroke="#000000" points="1739,-235.5 1739,-276.5 1846,-276.5 1846,-235.5 1739,-235.5"/>
<text text-anchor="start" x="1747" y="-264.5" font-family="Helvetica,sans-Serif" font-size="10.00" fill="#000000">../Thirdparty/g2o/g2o</text>
<text text-anchor="start" x="1747" y="-253.5" font-family="Helvetica,sans-Serif" font-size="10.00" fill="#000000">/types/types_six_dof</text>
<text text-anchor="middle" x="1792.5" y="-242.5" font-family="Helvetica,sans-Serif" font-size="10.00" fill="#000000">_expmap.h</text>
</a>
</g>
</g>
<!-- Node24&#45;&gt;Node26 -->
<g id="edge32" class="edge">
<title>Node24&#45;&gt;Node26</title>
<path fill="none" stroke="#191970" d="M1720.3227,-391.4429C1735.8691,-383.7907 1755.6976,-371.5886 1767.5,-355 1781.7421,-334.9823 1787.8908,-307.6247 1790.535,-286.7406"/>
<polygon fill="#191970" stroke="#191970" points="1794.0174,-287.0912 1791.5972,-276.7765 1787.0568,-286.3491 1794.0174,-287.0912"/>
</g>
<!-- Node64 -->
<g id="node30" class="node">
<title>Node64</title>
<g id="a_node30"><a xlink:href="types__seven__dof__expmap_8h.html" target="_top" xlink:title="../Thirdparty/g2o/g2o\l/types/types_seven_dof\l_expmap.h">
<polygon fill="#ffffff" stroke="#000000" points="1637,-313.5 1637,-354.5 1758,-354.5 1758,-313.5 1637,-313.5"/>
<text text-anchor="start" x="1645" y="-342.5" font-family="Helvetica,sans-Serif" font-size="10.00" fill="#000000">../Thirdparty/g2o/g2o</text>
<text text-anchor="start" x="1645" y="-331.5" font-family="Helvetica,sans-Serif" font-size="10.00" fill="#000000">/types/types_seven_dof</text>
<text text-anchor="middle" x="1697.5" y="-320.5" font-family="Helvetica,sans-Serif" font-size="10.00" fill="#000000">_expmap.h</text>
</a>
</g>
</g>
<!-- Node24&#45;&gt;Node64 -->
<g id="edge46" class="edge">
<title>Node24&#45;&gt;Node64</title>
<path fill="none" stroke="#191970" d="M1697.5,-391.4005C1697.5,-384.3854 1697.5,-374.4526 1697.5,-364.8177"/>
<polygon fill="#191970" stroke="#191970" points="1701.0001,-364.6317 1697.5,-354.6318 1694.0001,-364.6318 1701.0001,-364.6317"/>
</g>
<!-- Node27 -->
<g id="node23" class="node">
<title>Node27</title>
<g id="a_node23"><a xlink:href="base__vertex_8h.html" target="_top" xlink:title="../core/base_vertex.h">
<polygon fill="#ffffff" stroke="#ff0000" points="1994,-112.5 1994,-131.5 2103,-131.5 2103,-112.5 1994,-112.5"/>
<text text-anchor="middle" x="2048.5" y="-119.5" font-family="Helvetica,sans-Serif" font-size="10.00" fill="#000000">../core/base_vertex.h</text>
</a>
</g>
</g>
<!-- Node26&#45;&gt;Node27 -->
<g id="edge33" class="edge">
<title>Node26&#45;&gt;Node27</title>
<path fill="none" stroke="#191970" d="M1846.1395,-250.0876C1909.0561,-242.0342 2008.0295,-225.5063 2033.5,-199 2048.0529,-183.8553 2050.5156,-159.0136 2050.1734,-141.6544"/>
<polygon fill="#191970" stroke="#191970" points="2053.6601,-141.3079 2049.6424,-131.5045 2046.6697,-141.6737 2053.6601,-141.3079"/>
</g>
<!-- Node51 -->
<g id="node24" class="node">
<title>Node51</title>
<g id="a_node24"><a xlink:href="base__binary__edge_8h.html" target="_top" xlink:title="../core/base_binary\l_edge.h">
<polygon fill="#ffffff" stroke="#ff0000" points="1576.5,-168.5 1576.5,-198.5 1676.5,-198.5 1676.5,-168.5 1576.5,-168.5"/>
<text text-anchor="start" x="1584.5" y="-186.5" font-family="Helvetica,sans-Serif" font-size="10.00" fill="#000000">../core/base_binary</text>
<text text-anchor="middle" x="1626.5" y="-175.5" font-family="Helvetica,sans-Serif" font-size="10.00" fill="#000000">_edge.h</text>
</a>
</g>
</g>
<!-- Node26&#45;&gt;Node51 -->
<g id="edge35" class="edge">
<title>Node26&#45;&gt;Node51</title>
<path fill="none" stroke="#191970" d="M1745.3751,-235.4183C1721.7862,-225.116 1693.4101,-212.7228 1670.2985,-202.6289"/>
<polygon fill="#191970" stroke="#191970" points="1671.6367,-199.3941 1661.0717,-198.5991 1668.835,-205.809 1671.6367,-199.3941"/>
</g>
<!-- Node56 -->
<g id="node25" class="node">
<title>Node56</title>
<g id="a_node25"><a xlink:href="base__unary__edge_8h.html" target="_top" xlink:title="../core/base_unary\l_edge.h">
<polygon fill="#ffffff" stroke="#ff0000" points="1384.5,-168.5 1384.5,-198.5 1482.5,-198.5 1482.5,-168.5 1384.5,-168.5"/>
<text text-anchor="start" x="1392.5" y="-186.5" font-family="Helvetica,sans-Serif" font-size="10.00" fill="#000000">../core/base_unary</text>
<text text-anchor="middle" x="1433.5" y="-175.5" font-family="Helvetica,sans-Serif" font-size="10.00" fill="#000000">_edge.h</text>
</a>
</g>
</g>
<!-- Node26&#45;&gt;Node56 -->
<g id="edge37" class="edge">
<title>Node26&#45;&gt;Node56</title>
<path fill="none" stroke="#191970" d="M1738.7004,-237.4786C1735.6009,-236.5953 1732.5184,-235.7611 1729.5,-235 1648.459,-214.5651 1552.9069,-199.5354 1492.7565,-191.1501"/>
<polygon fill="#191970" stroke="#191970" points="1493.0665,-187.6598 1482.6823,-189.7618 1492.1108,-194.5943 1493.0665,-187.6598"/>
</g>
<!-- Node58 -->
<g id="node26" class="node">
<title>Node58</title>
<g id="a_node26"><a xlink:href="se3__ops_8h.html" target="_top" xlink:title="se3_ops.h">
<polygon fill="#ffffff" stroke="#ff0000" points="1731.5,-112.5 1731.5,-131.5 1793.5,-131.5 1793.5,-112.5 1731.5,-112.5"/>
<text text-anchor="middle" x="1762.5" y="-119.5" font-family="Helvetica,sans-Serif" font-size="10.00" fill="#000000">se3_ops.h</text>
</a>
</g>
</g>
<!-- Node26&#45;&gt;Node58 -->
<g id="edge40" class="edge">
<title>Node26&#45;&gt;Node58</title>
<path fill="none" stroke="#191970" d="M1799.6285,-235.4396C1804.7973,-217.1839 1809.5927,-190.0593 1801.5,-168 1797.4432,-156.9418 1789.4203,-146.7193 1781.7006,-138.7335"/>
<polygon fill="#191970" stroke="#191970" points="1783.8698,-135.9632 1774.24,-131.5451 1779.0128,-141.0041 1783.8698,-135.9632"/>
</g>
<!-- Node61 -->
<g id="node27" class="node">
<title>Node61</title>
<g id="a_node27"><a xlink:href="se3quat_8h.html" target="_top" xlink:title="se3quat.h">
<polygon fill="#ffffff" stroke="#ff0000" points="1733,-174 1733,-193 1792,-193 1792,-174 1733,-174"/>
<text text-anchor="middle" x="1762.5" y="-181" font-family="Helvetica,sans-Serif" font-size="10.00" fill="#000000">se3quat.h</text>
</a>
</g>
</g>
<!-- Node26&#45;&gt;Node61 -->
<g id="edge41" class="edge">
<title>Node26&#45;&gt;Node61</title>
<path fill="none" stroke="#191970" d="M1783.9834,-235.4183C1779.715,-225.1029 1774.5792,-212.6913 1770.3995,-202.5904"/>
<polygon fill="#191970" stroke="#191970" points="1773.524,-200.9873 1766.4664,-193.0853 1767.0559,-203.6638 1773.524,-200.9873"/>
</g>
<!-- Node62 -->
<g id="node28" class="node">
<title>Node62</title>
<g id="a_node28"><a xlink:href="types__sba_8h.html" target="_top" xlink:title="types_sba.h">
<polygon fill="#ffffff" stroke="#ff0000" points="1954.5,-174 1954.5,-193 2024.5,-193 2024.5,-174 1954.5,-174"/>
<text text-anchor="middle" x="1989.5" y="-181" font-family="Helvetica,sans-Serif" font-size="10.00" fill="#000000">types_sba.h</text>
</a>
</g>
</g>
<!-- Node26&#45;&gt;Node62 -->
<g id="edge43" class="edge">
<title>Node26&#45;&gt;Node62</title>
<path fill="none" stroke="#191970" d="M1846.0709,-236.2848C1880.3632,-223.6646 1923.902,-207.6414 1953.9661,-196.5772"/>
<polygon fill="#191970" stroke="#191970" points="1955.4366,-199.7656 1963.6124,-193.0272 1953.0189,-193.1963 1955.4366,-199.7656"/>
</g>
<!-- Node63 -->
<g id="node29" class="node">
<title>Node63</title>
<polygon fill="#ffffff" stroke="#bfbfbf" points="1849,-174 1849,-193 1936,-193 1936,-174 1849,-174"/>
<text text-anchor="middle" x="1892.5" y="-181" font-family="Helvetica,sans-Serif" font-size="10.00" fill="#000000">Eigen/Geometry</text>
</g>
<!-- Node26&#45;&gt;Node63 -->
<g id="edge45" class="edge">
<title>Node26&#45;&gt;Node63</title>
<path fill="none" stroke="#191970" d="M1820.8885,-235.4183C1836.7642,-223.9085 1856.2394,-209.789 1870.8704,-199.1815"/>
<polygon fill="#191970" stroke="#191970" points="1873.2371,-201.7887 1879.2788,-193.0853 1869.1283,-196.1214 1873.2371,-201.7887"/>
</g>
<!-- Node27&#45;&gt;Node25 -->
<g id="edge34" class="edge">
<title>Node27&#45;&gt;Node25</title>
<path fill="none" stroke="#191970" d="M2055.6417,-112.2455C2061.3444,-104.4564 2069.49,-93.3308 2076.3625,-83.9439"/>
<polygon fill="#191970" stroke="#191970" points="2079.3568,-85.7789 2082.4402,-75.6427 2073.7087,-81.6437 2079.3568,-85.7789"/>
</g>
<!-- Node51&#45;&gt;Node16 -->
<g id="edge36" class="edge">
<title>Node51&#45;&gt;Node16</title>
<path fill="none" stroke="#191970" d="M1581.4885,-168.4554C1547.6075,-157.131 1502.1043,-141.9221 1472.5435,-132.0417"/>
<polygon fill="#191970" stroke="#191970" points="1473.3913,-128.6348 1462.7975,-128.7842 1471.1723,-135.2738 1473.3913,-128.6348"/>
</g>
<!-- Node56&#45;&gt;Node12 -->
<g id="edge38" class="edge">
<title>Node56&#45;&gt;Node12</title>
<path fill="none" stroke="#191970" d="M1384.4196,-168.8474C1346.6727,-157.5783 1295.4708,-142.2922 1261.9716,-132.2913"/>
<polygon fill="#191970" stroke="#191970" points="1262.7615,-128.8745 1252.1781,-129.3675 1260.759,-135.582 1262.7615,-128.8745"/>
</g>
<!-- Node56&#45;&gt;Node16 -->
<g id="edge39" class="edge">
<title>Node56&#45;&gt;Node16</title>
<path fill="none" stroke="#191970" d="M1435.7247,-168.2977C1436.8959,-160.2945 1438.3462,-150.3843 1439.6041,-141.7889"/>
<polygon fill="#191970" stroke="#191970" points="1443.074,-142.2484 1441.059,-131.8469 1436.1478,-141.2347 1443.074,-142.2484"/>
</g>
<!-- Node61&#45;&gt;Node58 -->
<g id="edge42" class="edge">
<title>Node61&#45;&gt;Node58</title>
<path fill="none" stroke="#191970" d="M1762.5,-173.8906C1762.5,-165.3657 1762.5,-152.6392 1762.5,-141.9235"/>
<polygon fill="#191970" stroke="#191970" points="1766.0001,-141.7448 1762.5,-131.7449 1759.0001,-141.7449 1766.0001,-141.7448"/>
</g>
<!-- Node62&#45;&gt;Node27 -->
<g id="edge44" class="edge">
<title>Node62&#45;&gt;Node27</title>
<path fill="none" stroke="#191970" d="M1998.7188,-173.8906C2007.5858,-164.6478 2021.1912,-150.466 2031.9389,-139.2628"/>
<polygon fill="#191970" stroke="#191970" points="2034.7541,-141.3841 2039.1513,-131.7449 2029.7027,-136.5381 2034.7541,-141.3841"/>
</g>
<!-- Node64&#45;&gt;Node26 -->
<g id="edge49" class="edge">
<title>Node64&#45;&gt;Node26</title>
<path fill="none" stroke="#191970" d="M1722.9583,-313.0974C1734.1223,-303.9312 1747.3735,-293.0512 1759.2988,-283.26"/>
<polygon fill="#191970" stroke="#191970" points="1761.7932,-285.7405 1767.3009,-276.6898 1757.3512,-280.3304 1761.7932,-285.7405"/>
</g>
<!-- Node64&#45;&gt;Node27 -->
<g id="edge47" class="edge">
<title>Node64&#45;&gt;Node27</title>
<path fill="none" stroke="#191970" d="M1758.1813,-319.9216C1850.7502,-297.0694 2020.1479,-249.3612 2054.5,-199 2066.0285,-182.0989 2061.6834,-157.9918 2056.2912,-141.2721"/>
<polygon fill="#191970" stroke="#191970" points="2059.4488,-139.7122 2052.7528,-131.5016 2052.8671,-142.0958 2059.4488,-139.7122"/>
</g>
<!-- Node64&#45;&gt;Node51 -->
<g id="edge48" class="edge">
<title>Node64&#45;&gt;Node51</title>
<path fill="none" stroke="#191970" d="M1685.2065,-313.4633C1678.9923,-302.7538 1671.5144,-289.3447 1665.5,-277 1654.3339,-254.0815 1643.3094,-227.141 1635.8459,-208.0805"/>
<polygon fill="#191970" stroke="#191970" points="1639.0632,-206.6964 1632.1867,-198.6364 1632.536,-209.2254 1639.0632,-206.6964"/>
</g>
<!-- Node65 -->
<g id="node31" class="node">
<title>Node65</title>
<g id="a_node31"><a xlink:href="sim3_8h.html" target="_top" xlink:title="sim3.h">
<polygon fill="#ffffff" stroke="#ff0000" points="1674.5,-246.5 1674.5,-265.5 1720.5,-265.5 1720.5,-246.5 1674.5,-246.5"/>
<text text-anchor="middle" x="1697.5" y="-253.5" font-family="Helvetica,sans-Serif" font-size="10.00" fill="#000000">sim3.h</text>
</a>
</g>
</g>
<!-- Node64&#45;&gt;Node65 -->
<g id="edge50" class="edge">
<title>Node64&#45;&gt;Node65</title>
<path fill="none" stroke="#191970" d="M1697.5,-313.0974C1697.5,-301.5903 1697.5,-287.3823 1697.5,-276.0181"/>
<polygon fill="#191970" stroke="#191970" points="1701.0001,-275.8071 1697.5,-265.8072 1694.0001,-275.8072 1701.0001,-275.8071"/>
</g>
<!-- Node65&#45;&gt;Node58 -->
<g id="edge51" class="edge">
<title>Node65&#45;&gt;Node58</title>
<path fill="none" stroke="#191970" d="M1699.1873,-246.2704C1702.3699,-229.511 1710.2528,-194.4508 1724.5,-168 1730.0999,-157.6034 1738.248,-147.3443 1745.5642,-139.162"/>
<polygon fill="#191970" stroke="#191970" points="1748.2204,-141.4454 1752.478,-131.7437 1743.0996,-136.6729 1748.2204,-141.4454"/>
</g>
<!-- Node66&#45;&gt;Node1 -->
<g id="edge119" class="edge">
<title>Node66&#45;&gt;Node1</title>
<path fill="none" stroke="#191970" d="M582.0927,-622.6221C518.135,-617.4796 368.0737,-603.8849 232.3794,-578.9427"/>
<polygon fill="#191970" stroke="#191970" points="232.6928,-575.4409 222.2207,-577.0488 231.4098,-582.3223 232.6928,-575.4409"/>
</g>
<!-- Node66&#45;&gt;Node4 -->
<g id="edge53" class="edge">
<title>Node66&#45;&gt;Node4</title>
<path fill="none" stroke="#191970" d="M582.3099,-618.8806C549.1798,-611.7465 495.7291,-598.4031 452.5,-579 421.7399,-565.1935 389.4201,-543.3584 369.1298,-528.6213"/>
<polygon fill="#191970" stroke="#191970" points="371.082,-525.7121 360.9563,-522.5941 366.9275,-531.346 371.082,-525.7121"/>
</g>
<!-- Node66&#45;&gt;Node5 -->
<g id="edge121" class="edge">
<title>Node66&#45;&gt;Node5</title>
<path fill="none" stroke="#191970" d="M593.6742,-615.3519C553.0855,-594.481 460.639,-540.9843 416.5,-467 381.3854,-408.1421 388.1884,-378.4578 408.5,-313 412.9442,-298.6776 421.9575,-284.4137 429.853,-273.7374"/>
<polygon fill="#191970" stroke="#191970" points="432.7319,-275.7366 436.0976,-265.6906 427.2017,-271.445 432.7319,-275.7366"/>
</g>
<!-- Node66&#45;&gt;Node6 -->
<g id="edge92" class="edge">
<title>Node66&#45;&gt;Node6</title>
<path fill="none" stroke="#191970" d="M644.8383,-624.751C743.4611,-623.5785 1046.2083,-616.9031 1135.5,-579 1205.3911,-549.3322 1232.9924,-536.0812 1264.5,-467 1334.6308,-313.2363 1023.5877,-270.7102 890.4552,-259.6492"/>
<polygon fill="#191970" stroke="#191970" points="890.6692,-256.1552 880.4221,-258.8473 890.1115,-263.133 890.6692,-256.1552"/>
</g>
<!-- Node67 -->
<g id="node33" class="node">
<title>Node67</title>
<polygon fill="#ffffff" stroke="#bfbfbf" points="665,-559.5 665,-578.5 786,-578.5 786,-559.5 665,-559.5"/>
<text text-anchor="middle" x="725.5" y="-566.5" font-family="Helvetica,sans-Serif" font-size="10.00" fill="#000000">opencv2/features2d.hpp</text>
</g>
<!-- Node66&#45;&gt;Node67 -->
<g id="edge54" class="edge">
<title>Node66&#45;&gt;Node67</title>
<path fill="none" stroke="#191970" d="M632.7535,-615.3733C650.5712,-606.4644 677.2747,-593.1127 697.4594,-583.0203"/>
<polygon fill="#191970" stroke="#191970" points="699.1187,-586.1038 706.4978,-578.5011 695.9882,-579.8428 699.1187,-586.1038"/>
</g>
<!-- Node66&#45;&gt;Node68 -->
<g id="edge55" class="edge">
<title>Node66&#45;&gt;Node68</title>
<path fill="none" stroke="#191970" d="M582.4571,-623.2692C485.2946,-617.6626 191.2254,-599.19 153.5,-579 67.038,-532.7269 38.2494,-403.4224 30.2131,-353.7665"/>
<polygon fill="#191970" stroke="#191970" points="33.6458,-353.0567 28.6955,-343.6895 26.7238,-354.0992 33.6458,-353.0567"/>
</g>
<!-- Node66&#45;&gt;Node69 -->
<g id="edge58" class="edge">
<title>Node66&#45;&gt;Node69</title>
<path fill="none" stroke="#191970" d="M582.1373,-619.8688C531.0607,-611.4864 426.7423,-594.2586 338.5,-579 337.241,-578.7823 335.9662,-578.5611 334.6804,-578.3372"/>
<polygon fill="#191970" stroke="#191970" points="335.1428,-574.8649 324.6885,-576.5848 333.9335,-581.7597 335.1428,-574.8649"/>
</g>
<!-- Node66&#45;&gt;Node70 -->
<g id="edge61" class="edge">
<title>Node66&#45;&gt;Node70</title>
<path fill="none" stroke="#191970" d="M603.2983,-615.4048C586.0376,-598.5191 551.314,-561.6067 534.5,-523 519.7771,-489.1945 515.8077,-445.8202 514.7893,-420.9434"/>
<polygon fill="#191970" stroke="#191970" points="518.2789,-420.524 514.4965,-410.6273 511.2817,-420.7226 518.2789,-420.524"/>
</g>
<!-- Node66&#45;&gt;Node71 -->
<g id="edge65" class="edge">
<title>Node66&#45;&gt;Node71</title>
<path fill="none" stroke="#191970" d="M607.2182,-615.4509C599.6247,-597.184 589.4917,-556.9553 585.9636,-532.6976"/>
<polygon fill="#191970" stroke="#191970" points="589.4153,-532.0715 584.8206,-522.5249 582.4591,-532.8532 589.4153,-532.0715"/>
</g>
<!-- Node66&#45;&gt;Node73 -->
<g id="edge93" class="edge">
<title>Node66&#45;&gt;Node73</title>
<path fill="none" stroke="#191970" d="M644.6519,-622.939C738.241,-615.9029 1010.5,-588.9107 1010.5,-513 1010.5,-513 1010.5,-513 1010.5,-457 1010.5,-395.4212 937.507,-362.2698 885.006,-346.3895"/>
<polygon fill="#191970" stroke="#191970" points="885.7144,-342.9509 875.1354,-343.5313 883.7673,-349.6747 885.7144,-342.9509"/>
</g>
<!-- Node66&#45;&gt;Node74 -->
<g id="edge91" class="edge">
<title>Node66&#45;&gt;Node74</title>
<path fill="none" stroke="#191970" d="M644.6552,-620.8774C689.4506,-614.7435 768.0348,-601.4591 785.5,-579 820.0016,-534.6332 740.1523,-491.8251 694.0263,-470.6865"/>
<polygon fill="#191970" stroke="#191970" points="695.3042,-467.4236 684.7487,-466.5119 692.4318,-473.8071 695.3042,-467.4236"/>
</g>
<!-- Node75 -->
<g id="node43" class="node">
<title>Node75</title>
<g id="a_node43"><a xlink:href="_o_r_bextractor_8h.html" target="_top" xlink:title="ORBextractor.h">
<polygon fill="#ffffff" stroke="#000000" points="1317,-324.5 1317,-343.5 1402,-343.5 1402,-324.5 1317,-324.5"/>
<text text-anchor="middle" x="1359.5" y="-331.5" font-family="Helvetica,sans-Serif" font-size="10.00" fill="#000000">ORBextractor.h</text>
</a>
</g>
</g>
<!-- Node66&#45;&gt;Node75 -->
<g id="edge94" class="edge">
<title>Node66&#45;&gt;Node75</title>
<path fill="none" stroke="#191970" d="M644.9095,-624.1188C795.971,-619.4743 1440.5,-594.8612 1440.5,-513 1440.5,-513 1440.5,-513 1440.5,-457 1440.5,-412.6644 1403.3383,-371.9584 1379.357,-350.3057"/>
<polygon fill="#191970" stroke="#191970" points="1381.6387,-347.6515 1371.8022,-343.7153 1377.037,-352.9265 1381.6387,-347.6515"/>
</g>
<!-- Node76 -->
<g id="node44" class="node">
<title>Node76</title>
<g id="a_node44"><a xlink:href="_initializer_8h.html" target="_top" xlink:title="Initializer.h">
<polygon fill="#ffffff" stroke="#000000" points="1038.5,-559.5 1038.5,-578.5 1102.5,-578.5 1102.5,-559.5 1038.5,-559.5"/>
<text text-anchor="middle" x="1070.5" y="-566.5" font-family="Helvetica,sans-Serif" font-size="10.00" fill="#000000">Initializer.h</text>
</a>
</g>
</g>
<!-- Node66&#45;&gt;Node76 -->
<g id="edge98" class="edge">
<title>Node66&#45;&gt;Node76</title>
<path fill="none" stroke="#191970" d="M644.5839,-622.6175C713.3618,-617.1063 883.507,-602.1528 1024.5,-579 1025.7702,-578.7914 1027.0582,-578.5707 1028.357,-578.34"/>
<polygon fill="#191970" stroke="#191970" points="1029.2462,-581.7334 1038.4099,-576.4159 1027.9302,-574.8582 1029.2462,-581.7334"/>
</g>
<!-- Node78 -->
<g id="node46" class="node">
<title>Node78</title>
<g id="a_node46"><a xlink:href="_frame_8h.html" target="_top" xlink:title="Frame.h">
<polygon fill="#ffffff" stroke="#000000" points="1126,-503.5 1126,-522.5 1179,-522.5 1179,-503.5 1126,-503.5"/>
<text text-anchor="middle" x="1152.5" y="-510.5" font-family="Helvetica,sans-Serif" font-size="10.00" fill="#000000">Frame.h</text>
</a>
</g>
</g>
<!-- Node66&#45;&gt;Node78 -->
<g id="edge120" class="edge">
<title>Node66&#45;&gt;Node78</title>
<path fill="none" stroke="#191970" d="M644.6746,-623.7261C747.5253,-619.3038 1071.7994,-603.5332 1111.5,-579 1128.6552,-568.3989 1139.7562,-547.671 1146.0236,-532.2596"/>
<polygon fill="#191970" stroke="#191970" points="1149.3998,-533.2221 1149.6053,-522.6292 1142.8388,-530.7819 1149.3998,-533.2221"/>
</g>
<!-- Node66&#45;&gt;Node80 -->
<g id="edge113" class="edge">
<title>Node66&#45;&gt;Node80</title>
<path fill="none" stroke="#191970" d="M619.5534,-615.4509C631.3954,-596.7707 657.7965,-555.1238 673.041,-531.0761"/>
<polygon fill="#191970" stroke="#191970" points="676.0638,-532.8448 678.4619,-522.5249 670.1517,-529.0969 676.0638,-532.8448"/>
</g>
<!-- Node68&#45;&gt;Node2 -->
<g id="edge56" class="edge">
<title>Node68&#45;&gt;Node2</title>
<path fill="none" stroke="#191970" d="M25.7814,-324.1424C20.3043,-289.1449 7.0825,-169.8731 69.5,-112 97.295,-86.2287 358.8825,-71.6745 449.655,-67.3671"/>
<polygon fill="#191970" stroke="#191970" points="450.0245,-70.8538 459.8509,-66.8926 449.699,-63.8614 450.0245,-70.8538"/>
</g>
<!-- Node68&#45;&gt;Node5 -->
<g id="edge57" class="edge">
<title>Node68&#45;&gt;Node5</title>
<path fill="none" stroke="#191970" d="M55.1835,-328.8218C129.5192,-314.9173 333.2039,-276.818 412.4031,-262.0037"/>
<polygon fill="#191970" stroke="#191970" points="413.1089,-265.4325 422.2949,-260.1535 411.8219,-258.5518 413.1089,-265.4325"/>
</g>
<!-- Node69&#45;&gt;Node4 -->
<g id="edge59" class="edge">
<title>Node69&#45;&gt;Node4</title>
<path fill="none" stroke="#191970" d="M293.9963,-559.2455C303.7442,-550.9746 317.9259,-538.9416 329.3798,-529.2232"/>
<polygon fill="#191970" stroke="#191970" points="331.7747,-531.7813 337.1354,-522.6427 327.2459,-526.4437 331.7747,-531.7813"/>
</g>
<!-- Node69&#45;&gt;Node5 -->
<g id="edge60" class="edge">
<title>Node69&#45;&gt;Node5</title>
<path fill="none" stroke="#191970" d="M280.7411,-559.4312C274.6238,-523.0801 257.7096,-391.6421 316.5,-313 339.4312,-282.3256 382.5687,-267.822 412.3863,-261.2009"/>
<polygon fill="#191970" stroke="#191970" points="413.224,-264.6021 422.3227,-259.174 411.8249,-257.7434 413.224,-264.6021"/>
</g>
<!-- Node70&#45;&gt;Node5 -->
<g id="edge64" class="edge">
<title>Node70&#45;&gt;Node5</title>
<path fill="none" stroke="#191970" d="M509.9071,-391.4861C498.539,-367.938 468.9143,-306.5725 453.7447,-275.1497"/>
<polygon fill="#191970" stroke="#191970" points="456.7011,-273.2229 449.2016,-265.739 450.3972,-276.2662 456.7011,-273.2229"/>
</g>
<!-- Node70&#45;&gt;Node6 -->
<g id="edge62" class="edge">
<title>Node70&#45;&gt;Node6</title>
<path fill="none" stroke="#191970" d="M533.4701,-391.4127C566.3917,-374.8682 636.3503,-340.1232 696.5,-313 731.2116,-297.3475 771.4961,-280.6425 799.1608,-269.3915"/>
<polygon fill="#191970" stroke="#191970" points="800.7956,-272.5055 808.7483,-265.5052 798.1659,-266.0182 800.7956,-272.5055"/>
</g>
<!-- Node29 -->
<g id="node37" class="node">
<title>Node29</title>
<polygon fill="#ffffff" stroke="#bfbfbf" points="620.5,-246.5 620.5,-265.5 650.5,-265.5 650.5,-246.5 620.5,-246.5"/>
<text text-anchor="middle" x="635.5" y="-253.5" font-family="Helvetica,sans-Serif" font-size="10.00" fill="#000000">set</text>
</g>
<!-- Node70&#45;&gt;Node29 -->
<g id="edge63" class="edge">
<title>Node70&#45;&gt;Node29</title>
<path fill="none" stroke="#191970" d="M521.567,-391.2681C533.6263,-374.7979 559.1448,-340.5339 582.5,-313 594.176,-299.235 608.0971,-284.3158 618.7415,-273.1946"/>
<polygon fill="#191970" stroke="#191970" points="621.4126,-275.4668 625.8342,-265.8387 616.3735,-270.6081 621.4126,-275.4668"/>
</g>
<!-- Node71&#45;&gt;Node5 -->
<g id="edge90" class="edge">
<title>Node71&#45;&gt;Node5</title>
<path fill="none" stroke="#191970" d="M543.619,-506.2182C502.3037,-498.705 444.1113,-485.2042 430.5,-467 387.1114,-408.9703 418.9448,-315.0058 435.804,-275.0051"/>
<polygon fill="#191970" stroke="#191970" points="439.1001,-276.203 439.9006,-265.6385 432.6867,-273.398 439.1001,-276.203"/>
</g>
<!-- Node71&#45;&gt;Node66 -->
<g id="edge88" class="edge">
<title>Node71&#45;&gt;Node66</title>
<path fill="none" stroke="#191970" d="M592.7718,-522.5249C600.363,-540.7725 610.4978,-580.9985 614.0318,-605.2702"/>
<polygon fill="#191970" stroke="#191970" points="610.5811,-605.9053 615.1778,-615.4509 617.5371,-605.1222 610.5811,-605.9053"/>
</g>
<!-- Node71&#45;&gt;Node70 -->
<g id="edge77" class="edge">
<title>Node71&#45;&gt;Node70</title>
<path fill="none" stroke="#191970" d="M575.8196,-503.1857C566.6626,-494.364 553.5535,-480.7196 544.5,-467 534.8726,-452.4107 526.862,-434.2274 521.5472,-420.6429"/>
<polygon fill="#191970" stroke="#191970" points="524.6768,-419.0211 517.8835,-410.8908 518.124,-421.4829 524.6768,-419.0211"/>
</g>
<!-- Node72 -->
<g id="node39" class="node">
<title>Node72</title>
<g id="a_node39"><a xlink:href="_key_frame_8h.html" target="_top" xlink:title="KeyFrame.h">
<polygon fill="#ffffff" stroke="#000000" points="797.5,-391.5 797.5,-410.5 867.5,-410.5 867.5,-391.5 797.5,-391.5"/>
<text text-anchor="middle" x="832.5" y="-398.5" font-family="Helvetica,sans-Serif" font-size="10.00" fill="#000000">KeyFrame.h</text>
</a>
</g>
</g>
<!-- Node71&#45;&gt;Node72 -->
<g id="edge66" class="edge">
<title>Node71&#45;&gt;Node72</title>
<path fill="none" stroke="#191970" d="M617.4289,-503.4541C643.3326,-495.0489 681.0148,-481.8567 712.5,-467 728.3552,-459.5186 731.2117,-455.5806 746.5,-447 765.7552,-436.1929 787.7092,-424.4596 804.6159,-415.5481"/>
<polygon fill="#191970" stroke="#191970" points="806.7038,-418.4049 813.9286,-410.6555 803.4481,-412.208 806.7038,-418.4049"/>
</g>
<!-- Node71&#45;&gt;Node73 -->
<g id="edge89" class="edge">
<title>Node71&#45;&gt;Node73</title>
<path fill="none" stroke="#191970" d="M588.5797,-503.3519C592.0222,-489.3951 600.1052,-463.4475 615.5,-447 663.8706,-395.3216 741.2206,-363.0406 789.3238,-346.8019"/>
<polygon fill="#191970" stroke="#191970" points="790.7176,-350.028 799.1236,-343.579 788.5307,-343.3783 790.7176,-350.028"/>
</g>
<!-- Node71&#45;&gt;Node74 -->
<g id="edge78" class="edge">
<title>Node71&#45;&gt;Node74</title>
<path fill="none" stroke="#191970" d="M594.8197,-503.2455C605.1282,-494.6534 622.4836,-482.0014 637.3971,-472.1018"/>
<polygon fill="#191970" stroke="#191970" points="639.3342,-475.0172 645.824,-466.6427 635.5282,-469.1423 639.3342,-475.0172"/>
</g>
<!-- Node72&#45;&gt;Node5 -->
<g id="edge76" class="edge">
<title>Node72&#45;&gt;Node5</title>
<path fill="none" stroke="#191970" d="M819.5544,-391.2699C794.9368,-373.2196 739.1236,-334.4393 686.5,-313 614.4041,-283.6276 523.7762,-267.35 476.5145,-260.2952"/>
<polygon fill="#191970" stroke="#191970" points="476.9611,-256.8235 466.5622,-258.8511 475.9559,-263.7509 476.9611,-256.8235"/>
</g>
<!-- Node72&#45;&gt;Node6 -->
<g id="edge69" class="edge">
<title>Node72&#45;&gt;Node6</title>
<path fill="none" stroke="#191970" d="M855.6112,-391.4901C870.5298,-383.9878 888.7331,-371.9445 897.5,-355 906.0778,-338.4209 905.2041,-330.0027 897.5,-313 889.4974,-295.3386 873.0187,-280.9868 858.6566,-271.102"/>
<polygon fill="#191970" stroke="#191970" points="860.3756,-268.0451 850.0824,-265.5349 856.5636,-273.9161 860.3756,-268.0451"/>
</g>
<!-- Node72&#45;&gt;Node17 -->
<g id="edge68" class="edge">
<title>Node72&#45;&gt;Node17</title>
<path fill="none" stroke="#191970" d="M866.3965,-391.4632C884.3701,-384.4893 904.8802,-373.0275 915.5,-355 924.9746,-338.9166 918.5959,-331.4081 915.5,-313 909.4157,-276.8232 911.4034,-263.6568 888.5,-235 869.5581,-211.2999 855.0354,-216.8469 830.5,-199 803.7953,-179.5752 775.0275,-154.4511 757.1429,-138.2788"/>
<polygon fill="#191970" stroke="#191970" points="759.4868,-135.6795 749.738,-131.5308 754.7719,-140.8534 759.4868,-135.6795"/>
</g>
<!-- Node72&#45;&gt;Node18 -->
<g id="edge67" class="edge">
<title>Node72&#45;&gt;Node18</title>
<path fill="none" stroke="#191970" d="M867.5484,-398.0496C939.7789,-389.8531 1098.5,-360.0089 1098.5,-256 1098.5,-256 1098.5,-256 1098.5,-183.5 1098.5,-150.5024 1102.4078,-134.7433 1078.5,-112 1056.4089,-90.9849 975.2347,-77.6874 922.4691,-71.0644"/>
<polygon fill="#191970" stroke="#191970" points="922.6705,-67.5632 912.3207,-69.8285 921.8242,-74.5118 922.6705,-67.5632"/>
</g>
<!-- Node72&#45;&gt;Node73 -->
<g id="edge70" class="edge">
<title>Node72&#45;&gt;Node73</title>
<path fill="none" stroke="#191970" d="M832.5,-391.4005C832.5,-381.649 832.5,-366.2597 832.5,-353.8695"/>
<polygon fill="#191970" stroke="#191970" points="836.0001,-353.5816 832.5,-343.5817 829.0001,-353.5817 836.0001,-353.5816"/>
</g>
<!-- Node73&#45;&gt;Node5 -->
<g id="edge75" class="edge">
<title>Node73&#45;&gt;Node5</title>
<path fill="none" stroke="#191970" d="M803.4119,-324.4629C790.9081,-320.5748 776.075,-316.2417 762.5,-313 659.0141,-288.2877 534.2893,-268.9017 476.6217,-260.5173"/>
<polygon fill="#191970" stroke="#191970" points="477.0515,-257.0432 466.6545,-259.081 476.0531,-263.9716 477.0515,-257.0432"/>
</g>
<!-- Node73&#45;&gt;Node6 -->
<g id="edge74" class="edge">
<title>Node73&#45;&gt;Node6</title>
<path fill="none" stroke="#191970" d="M832.5,-324.4357C832.5,-312.3893 832.5,-291.3849 832.5,-275.8143"/>
<polygon fill="#191970" stroke="#191970" points="836.0001,-275.6425 832.5,-265.6426 829.0001,-275.6426 836.0001,-275.6425"/>
</g>
<!-- Node73&#45;&gt;Node9 -->
<g id="edge71" class="edge">
<title>Node73&#45;&gt;Node9</title>
<path fill="none" stroke="#191970" d="M880.6286,-324.4546C1019.5949,-294.935 1403.6167,-198.4482 1275.5,-56 1248.7887,-26.3007 971.0413,-14.2865 874.9774,-10.9993"/>
<polygon fill="#191970" stroke="#191970" points="874.8158,-7.4921 864.7049,-10.6577 874.583,-14.4883 874.8158,-7.4921"/>
</g>
<!-- Node73&#45;&gt;Node29 -->
<g id="edge73" class="edge">
<title>Node73&#45;&gt;Node29</title>
<path fill="none" stroke="#191970" d="M808.3439,-324.4357C770.6844,-309.5248 698.3617,-280.8894 660.307,-265.8221"/>
<polygon fill="#191970" stroke="#191970" points="661.1259,-262.382 650.5397,-261.9548 658.5489,-268.8904 661.1259,-262.382"/>
</g>
<!-- Node30 -->
<g id="node41" class="node">
<title>Node30</title>
<polygon fill="#ffffff" stroke="#bfbfbf" points="1279,-246.5 1279,-265.5 1308,-265.5 1308,-246.5 1279,-246.5"/>
<text text-anchor="middle" x="1293.5" y="-253.5" font-family="Helvetica,sans-Serif" font-size="10.00" fill="#000000">list</text>
</g>
<!-- Node73&#45;&gt;Node30 -->
<g id="edge72" class="edge">
<title>Node73&#45;&gt;Node30</title>
<path fill="none" stroke="#191970" d="M888.5668,-324.5136C989.2413,-307.4798 1196.829,-272.3565 1268.5098,-260.2283"/>
<polygon fill="#191970" stroke="#191970" points="1269.5341,-263.6048 1278.81,-258.4855 1268.3663,-256.7029 1269.5341,-263.6048"/>
</g>
<!-- Node74&#45;&gt;Node3 -->
<g id="edge85" class="edge">
<title>Node74&#45;&gt;Node3</title>
<path fill="none" stroke="#191970" d="M624.7903,-452.6988C525.9527,-441.9929 270.3664,-414.3085 179.857,-404.5048"/>
<polygon fill="#191970" stroke="#191970" points="179.978,-400.9975 169.6592,-403.4002 179.2241,-407.9568 179.978,-400.9975"/>
</g>
<!-- Node74&#45;&gt;Node5 -->
<g id="edge86" class="edge">
<title>Node74&#45;&gt;Node5</title>
<path fill="none" stroke="#191970" d="M653.8889,-447.3054C618.8207,-415.2657 506.3846,-312.54 462.389,-272.344"/>
<polygon fill="#191970" stroke="#191970" points="464.7481,-269.7585 455.0046,-265.5974 460.0265,-274.9264 464.7481,-269.7585"/>
</g>
<!-- Node74&#45;&gt;Node6 -->
<g id="edge82" class="edge">
<title>Node74&#45;&gt;Node6</title>
<path fill="none" stroke="#191970" d="M670.313,-447.3425C684.9951,-423.323 725.4104,-359.4779 767.5,-313 781.0538,-298.0331 798.3128,-283.0555 811.6398,-272.2117"/>
<polygon fill="#191970" stroke="#191970" points="814.1277,-274.7037 819.7512,-265.7244 809.7555,-269.237 814.1277,-274.7037"/>
</g>
<!-- Node74&#45;&gt;Node64 -->
<g id="edge87" class="edge">
<title>Node74&#45;&gt;Node64</title>
<path fill="none" stroke="#191970" d="M704.0471,-452.2911C859.0132,-433.8392 1426.2138,-366.3022 1626.7096,-342.4291"/>
<polygon fill="#191970" stroke="#191970" points="1627.3149,-345.8818 1636.8309,-341.2239 1626.4872,-338.9309 1627.3149,-345.8818"/>
</g>
<!-- Node74&#45;&gt;Node66 -->
<g id="edge83" class="edge">
<title>Node74&#45;&gt;Node66</title>
<path fill="none" stroke="#191970" d="M694.8544,-466.5119C746.2144,-485.7431 840.4557,-531.4774 803.5,-579 785.7639,-601.8074 704.9985,-615.1533 654.5225,-621.1576"/>
<polygon fill="#191970" stroke="#191970" points="654.0908,-617.684 644.5518,-622.2947 654.8841,-624.639 654.0908,-617.684"/>
</g>
<!-- Node74&#45;&gt;Node70 -->
<g id="edge81" class="edge">
<title>Node74&#45;&gt;Node70</title>
<path fill="none" stroke="#191970" d="M638.7141,-447.3733C613.0509,-437.7923 573.6236,-423.0728 546.094,-412.7951"/>
<polygon fill="#191970" stroke="#191970" points="547.1299,-409.4459 536.5373,-409.2273 544.6816,-416.0038 547.1299,-409.4459"/>
</g>
<!-- Node74&#45;&gt;Node71 -->
<g id="edge80" class="edge">
<title>Node74&#45;&gt;Node71</title>
<path fill="none" stroke="#191970" d="M656.3143,-466.6427C646.0672,-475.1994 628.732,-487.8456 613.7975,-497.769"/>
<polygon fill="#191970" stroke="#191970" points="611.8388,-494.8676 605.3534,-503.2455 615.6479,-500.7405 611.8388,-494.8676"/>
</g>
<!-- Node74&#45;&gt;Node72 -->
<g id="edge79" class="edge">
<title>Node74&#45;&gt;Node72</title>
<path fill="none" stroke="#191970" d="M693.3802,-447.3733C721.3161,-438.0613 763.8142,-423.8953 794.4869,-413.671"/>
<polygon fill="#191970" stroke="#191970" points="795.6166,-416.9839 803.9966,-410.5011 793.403,-410.3431 795.6166,-416.9839"/>
</g>
<!-- Node74&#45;&gt;Node73 -->
<g id="edge84" class="edge">
<title>Node74&#45;&gt;Node73</title>
<path fill="none" stroke="#191970" d="M677.6827,-447.3484C706.6342,-426.1517 775.99,-375.3734 811.2062,-349.5901"/>
<polygon fill="#191970" stroke="#191970" points="813.3775,-352.3382 819.3786,-343.6068 809.2423,-346.6902 813.3775,-352.3382"/>
</g>
<!-- Node75&#45;&gt;Node8 -->
<g id="edge97" class="edge">
<title>Node75&#45;&gt;Node8</title>
<path fill="none" stroke="#191970" d="M1359.2412,-324.3653C1357.8666,-291.0851 1349.1951,-179.3287 1294.5,-112 1282.6302,-97.3885 1264.8497,-86.7923 1248.5313,-79.4795"/>
<polygon fill="#191970" stroke="#191970" points="1249.7237,-76.1844 1239.148,-75.5478 1247.0184,-82.6405 1249.7237,-76.1844"/>
</g>
<!-- Node75&#45;&gt;Node9 -->
<g id="edge95" class="edge">
<title>Node75&#45;&gt;Node9</title>
<path fill="none" stroke="#191970" d="M1381.7806,-324.4283C1423.7838,-304.7095 1510.5,-255.3046 1510.5,-183.5 1510.5,-183.5 1510.5,-183.5 1510.5,-122 1510.5,-56.7404 1008.2076,-20.4428 874.7402,-11.9498"/>
<polygon fill="#191970" stroke="#191970" points="874.9253,-8.4546 864.7256,-11.3209 874.4865,-15.4408 874.9253,-8.4546"/>
</g>
<!-- Node75&#45;&gt;Node30 -->
<g id="edge96" class="edge">
<title>Node75&#45;&gt;Node30</title>
<path fill="none" stroke="#191970" d="M1351.4071,-324.4357C1340.7192,-311.8045 1321.6977,-289.3245 1308.3811,-273.5868"/>
<polygon fill="#191970" stroke="#191970" points="1310.7904,-271.0156 1301.6591,-265.6426 1305.4467,-275.5373 1310.7904,-271.0156"/>
</g>
<!-- Node77 -->
<g id="node45" class="node">
<title>Node77</title>
<polygon fill="#ffffff" stroke="#bfbfbf" points="1039,-447.5 1039,-466.5 1146,-466.5 1146,-447.5 1039,-447.5"/>
<text text-anchor="middle" x="1092.5" y="-454.5" font-family="Helvetica,sans-Serif" font-size="10.00" fill="#000000">opencv2/opencv.hpp</text>
</g>
<!-- Node76&#45;&gt;Node77 -->
<g id="edge99" class="edge">
<title>Node76&#45;&gt;Node77</title>
<path fill="none" stroke="#191970" d="M1072.3757,-559.4509C1075.9801,-541.1013 1083.9375,-500.5908 1088.6953,-476.3693"/>
<polygon fill="#191970" stroke="#191970" points="1092.1359,-477.012 1090.629,-466.5249 1085.2671,-475.6627 1092.1359,-477.012"/>
</g>
<!-- Node76&#45;&gt;Node78 -->
<g id="edge100" class="edge">
<title>Node76&#45;&gt;Node78</title>
<path fill="none" stroke="#191970" d="M1084.7833,-559.2455C1097.247,-550.7337 1115.5451,-538.2375 1129.9792,-528.3801"/>
<polygon fill="#191970" stroke="#191970" points="1132.0962,-531.1726 1138.3804,-522.6427 1128.1485,-525.392 1132.0962,-531.1726"/>
</g>
<!-- Node78&#45;&gt;Node6 -->
<g id="edge110" class="edge">
<title>Node78&#45;&gt;Node6</title>
<path fill="none" stroke="#191970" d="M1155.7563,-503.2907C1159.6867,-489.7133 1164.5983,-464.7312 1154.5,-447 1121.8685,-389.7036 938.7053,-303.2555 864.1123,-269.8526"/>
<polygon fill="#191970" stroke="#191970" points="865.3041,-266.5521 854.7451,-265.6817 862.4567,-272.9468 865.3041,-266.5521"/>
</g>
<!-- Node78&#45;&gt;Node9 -->
<g id="edge101" class="edge">
<title>Node78&#45;&gt;Node9</title>
<path fill="none" stroke="#191970" d="M1179.1837,-507.4251C1207.6512,-500.7122 1253.3877,-487.6858 1288.5,-467 1435.803,-380.2191 1548.5,-354.4652 1548.5,-183.5 1548.5,-183.5 1548.5,-183.5 1548.5,-122 1548.5,-110.9126 1728.2382,-137.6064 1385.5,-56 1287.487,-32.663 976.6976,-16.3168 875.0323,-11.4829"/>
<polygon fill="#191970" stroke="#191970" points="874.9259,-7.9741 864.7725,-11.0005 874.5971,-14.9663 874.9259,-7.9741"/>
</g>
<!-- Node78&#45;&gt;Node17 -->
<g id="edge109" class="edge">
<title>Node78&#45;&gt;Node17</title>
<path fill="none" stroke="#191970" d="M1159.0692,-503.4477C1167.1328,-490.4733 1178.8812,-466.6448 1171.5,-447 1159.8678,-416.0416 1146.775,-413.4601 1122.5,-391 1037.4195,-312.2805 1006.9809,-303.533 913.5,-235 891.416,-218.8097 885.23,-215.6623 863.5,-199 846.2036,-185.7374 843.6386,-180.0852 825.5,-168 807.5956,-156.0708 786.2783,-144.6513 769.3467,-136.1742"/>
<polygon fill="#191970" stroke="#191970" points="770.4606,-132.8214 759.9434,-131.5415 767.367,-139.1007 770.4606,-132.8214"/>
</g>
<!-- Node78&#45;&gt;Node18 -->
<g id="edge108" class="edge">
<title>Node78&#45;&gt;Node18</title>
<path fill="none" stroke="#191970" d="M1170.4747,-503.2369C1198.7665,-486.4053 1250.5,-449.0571 1250.5,-401 1250.5,-401 1250.5,-401 1250.5,-334 1250.5,-214.9221 1199.5047,-178.1636 1100.5,-112 1071.8675,-92.8652 979.4233,-78.6085 922.3251,-71.3595"/>
<polygon fill="#191970" stroke="#191970" points="922.4538,-67.8486 912.0983,-70.0879 921.59,-74.7951 922.4538,-67.8486"/>
</g>
<!-- Node78&#45;&gt;Node75 -->
<g id="edge111" class="edge">
<title>Node78&#45;&gt;Node75</title>
<path fill="none" stroke="#191970" d="M1179.1197,-506.619C1203.2923,-499.8308 1238.9642,-487.2362 1264.5,-467 1304.906,-434.9798 1335.8096,-381.4183 1350.3465,-353.0205"/>
<polygon fill="#191970" stroke="#191970" points="1353.622,-354.2946 1354.949,-343.7832 1347.3567,-351.1728 1353.622,-354.2946"/>
</g>
<!-- Node78&#45;&gt;Node77 -->
<g id="edge112" class="edge">
<title>Node78&#45;&gt;Node77</title>
<path fill="none" stroke="#191970" d="M1142.0488,-503.2455C1133.2731,-495.0549 1120.5446,-483.1749 1110.186,-473.5069"/>
<polygon fill="#191970" stroke="#191970" points="1112.5301,-470.9072 1102.8314,-466.6427 1107.7539,-476.0246 1112.5301,-470.9072"/>
</g>
<!-- Node79 -->
<g id="node47" class="node">
<title>Node79</title>
<g id="a_node47"><a xlink:href="_map_point_8h.html" target="_top" xlink:title="MapPoint.h">
<polygon fill="#ffffff" stroke="#000000" points="916.5,-447.5 916.5,-466.5 982.5,-466.5 982.5,-447.5 916.5,-447.5"/>
<text text-anchor="middle" x="949.5" y="-454.5" font-family="Helvetica,sans-Serif" font-size="10.00" fill="#000000">MapPoint.h</text>
</a>
</g>
</g>
<!-- Node78&#45;&gt;Node79 -->
<g id="edge102" class="edge">
<title>Node78&#45;&gt;Node79</title>
<path fill="none" stroke="#191970" d="M1125.9874,-506.9004C1090.8882,-497.9368 1029.0996,-481.0122 988.6599,-469.3786"/>
<polygon fill="#191970" stroke="#191970" points="989.4468,-465.9628 978.8678,-466.543 987.4996,-472.6865 989.4468,-465.9628"/>
</g>
<!-- Node79&#45;&gt;Node5 -->
<g id="edge107" class="edge">
<title>Node79&#45;&gt;Node5</title>
<path fill="none" stroke="#191970" d="M916.3677,-449.0338C883.5005,-440.7824 831.9059,-426.8847 788.5,-411 667.8369,-366.8426 530.1227,-299.3543 472.3277,-270.2128"/>
<polygon fill="#191970" stroke="#191970" points="473.6213,-266.9448 463.1183,-265.5522 470.4604,-273.1906 473.6213,-266.9448"/>
</g>
<!-- Node79&#45;&gt;Node8 -->
<g id="edge106" class="edge">
<title>Node79&#45;&gt;Node8</title>
<path fill="none" stroke="#191970" d="M966.0004,-447.3953C1022.4408,-413.3753 1207.2855,-292.0103 1261.5,-132 1264.3524,-123.5812 1265.1893,-120.0871 1261.5,-112 1255.8111,-99.5296 1244.8869,-89.1361 1234.4274,-81.4023"/>
<polygon fill="#191970" stroke="#191970" points="1236.1037,-78.3082 1225.8758,-75.5442 1232.1477,-84.0832 1236.1037,-78.3082"/>
</g>
<!-- Node79&#45;&gt;Node70 -->
<g id="edge105" class="edge">
<title>Node79&#45;&gt;Node70</title>
<path fill="none" stroke="#191970" d="M916.1031,-448.6752C913.2022,-448.0656 910.3047,-447.4963 907.5,-447 774.5871,-423.4819 614.1855,-408.9668 546.7919,-403.4891"/>
<polygon fill="#191970" stroke="#191970" points="547.0404,-399.9979 536.7926,-402.6875 546.481,-406.9755 547.0404,-399.9979"/>
</g>
<!-- Node79&#45;&gt;Node72 -->
<g id="edge103" class="edge">
<title>Node79&#45;&gt;Node72</title>
<path fill="none" stroke="#191970" d="M929.387,-447.3733C910.6897,-438.4241 882.6256,-424.9917 861.5066,-414.8835"/>
<polygon fill="#191970" stroke="#191970" points="862.8817,-411.6614 852.3506,-410.5011 859.8595,-417.9755 862.8817,-411.6614"/>
</g>
<!-- Node79&#45;&gt;Node78 -->
<g id="edge104" class="edge">
<title>Node79&#45;&gt;Node78</title>
<path fill="none" stroke="#191970" d="M982.5713,-464.7866C1019.3182,-474.2993 1078.2099,-490.4773 1116.1928,-501.4435"/>
<polygon fill="#191970" stroke="#191970" points="1115.2642,-504.8184 1125.8438,-504.25 1117.2189,-498.0968 1115.2642,-504.8184"/>
</g>
<!-- Node80&#45;&gt;Node5 -->
<g id="edge118" class="edge">
<title>Node80&#45;&gt;Node5</title>
<path fill="none" stroke="#191970" d="M646.6666,-504.3583C600.7873,-491.8419 524.5197,-464.1159 483.5,-411 452.2319,-370.5113 445.7732,-307.9525 444.6071,-276.1096"/>
<polygon fill="#191970" stroke="#191970" points="448.1009,-275.7857 444.3808,-265.8655 441.1026,-275.9404 448.1009,-275.7857"/>
</g>
<!-- Node80&#45;&gt;Node70 -->
<g id="edge114" class="edge">
<title>Node80&#45;&gt;Node70</title>
<path fill="none" stroke="#191970" d="M670.0059,-503.4509C640.5228,-484.0268 573.3478,-439.7703 537.7073,-416.2895"/>
<polygon fill="#191970" stroke="#191970" points="539.2336,-413.1038 528.9574,-410.5249 535.3825,-418.9492 539.2336,-413.1038"/>
</g>
<!-- Node80&#45;&gt;Node72 -->
<g id="edge116" class="edge">
<title>Node80&#45;&gt;Node72</title>
<path fill="none" stroke="#191970" d="M697.8503,-503.1917C710.4381,-493.9209 729.8101,-479.5944 746.5,-467 768.888,-450.1058 794.3535,-430.5153 811.7269,-417.0927"/>
<polygon fill="#191970" stroke="#191970" points="814.2461,-419.569 820.0153,-410.6826 809.9637,-414.0317 814.2461,-419.569"/>
</g>
<!-- Node80&#45;&gt;Node79 -->
<g id="edge115" class="edge">
<title>Node80&#45;&gt;Node79</title>
<path fill="none" stroke="#191970" d="M722.0578,-505.614C764.4459,-497.1983 835.7087,-482.8106 906.1234,-467.2619"/>
<polygon fill="#191970" stroke="#191970" points="907.0453,-470.6426 916.0505,-465.0607 905.5299,-463.8086 907.0453,-470.6426"/>
</g>
<!-- Node80&#45;&gt;Node81 -->
<g id="edge117" class="edge">
<title>Node80&#45;&gt;Node81</title>
<path fill="none" stroke="#191970" d="M712.6926,-503.3733C739.8453,-494.1016 781.0907,-480.0178 811.0025,-469.804"/>
<polygon fill="#191970" stroke="#191970" points="812.3428,-473.0449 820.6753,-466.5011 810.0808,-466.4204 812.3428,-473.0449"/>
</g>
</g>
</svg>
