<?xml version="1.0" encoding="UTF-8" standalone="no"?>
<!DOCTYPE svg PUBLIC "-//W3C//DTD SVG 1.1//EN"
 "http://www.w3.org/Graphics/SVG/1.1/DTD/svg11.dtd">
<!-- Generated by graphviz version 2.40.1 (20161225.0304)
 -->
<!-- Title: /home/alejandro/Desarrollo eclipse/os1/src/Tracking.cc Pages: 1 -->
<svg width="2557pt" height="755pt"
 viewBox="0.00 0.00 2557.00 755.00" xmlns="http://www.w3.org/2000/svg" xmlns:xlink="http://www.w3.org/1999/xlink">
<g id="graph0" class="graph" transform="scale(1 1) rotate(0) translate(4 751)">
<title>/home/alejandro/Desarrollo eclipse/os1/src/Tracking.cc</title>
<polygon fill="#ffffff" stroke="transparent" points="-4,4 -4,-751 2553,-751 2553,4 -4,4"/>
<!-- Node0 -->
<g id="node1" class="node">
<title>Node0</title>
<polygon fill="#bfbfbf" stroke="#000000" points="1511,-716.5 1511,-746.5 1651,-746.5 1651,-716.5 1511,-716.5"/>
<text text-anchor="start" x="1519" y="-734.5" font-family="Helvetica,sans-Serif" font-size="10.00" fill="#000000">/home/alejandro/Desarrollo</text>
<text text-anchor="middle" x="1581" y="-723.5" font-family="Helvetica,sans-Serif" font-size="10.00" fill="#000000"> eclipse/os1/src/Tracking.cc</text>
</g>
<!-- Node1 -->
<g id="node2" class="node">
<title>Node1</title>
<g id="a_node2"><a xlink:href="_tracking_8h.html" target="_top" xlink:title="Tracking.h">
<polygon fill="#ffffff" stroke="#000000" points="870,-660.5 870,-679.5 932,-679.5 932,-660.5 870,-660.5"/>
<text text-anchor="middle" x="901" y="-667.5" font-family="Helvetica,sans-Serif" font-size="10.00" fill="#000000">Tracking.h</text>
</a>
</g>
</g>
<!-- Node0&#45;&gt;Node1 -->
<g id="edge1" class="edge">
<title>Node0&#45;&gt;Node1</title>
<path fill="none" stroke="#191970" d="M1510.7893,-725.1501C1369.5999,-712.3807 1055.1789,-683.9441 942.3226,-673.7373"/>
<polygon fill="#191970" stroke="#191970" points="942.3175,-670.2226 932.0429,-672.8076 941.6869,-677.1942 942.3175,-670.2226"/>
</g>
<!-- Node6 -->
<g id="node7" class="node">
<title>Node6</title>
<polygon fill="#ffffff" stroke="#bfbfbf" points="701,-313.5 701,-332.5 745,-332.5 745,-313.5 701,-313.5"/>
<text text-anchor="middle" x="723" y="-320.5" font-family="Helvetica,sans-Serif" font-size="10.00" fill="#000000">mutex</text>
</g>
<!-- Node0&#45;&gt;Node6 -->
<g id="edge141" class="edge">
<title>Node0&#45;&gt;Node6</title>
<path fill="none" stroke="#191970" d="M1510.7542,-730.2564C1278.8821,-725.8831 546.8338,-709.8403 445,-680 388.8171,-663.5368 331,-672.5453 331,-614 331,-614 331,-614 331,-491 331,-418.878 372.9738,-400.1957 438,-369 482.3037,-347.7457 625.9432,-332.0635 690.7532,-325.8871"/>
<polygon fill="#191970" stroke="#191970" points="691.1835,-329.3622 700.8135,-324.9446 690.5306,-322.3927 691.1835,-329.3622"/>
</g>
<!-- Node7 -->
<g id="node8" class="node">
<title>Node7</title>
<g id="a_node8"><a xlink:href="_frame_drawer_8h.html" target="_top" xlink:title="FrameDrawer.h">
<polygon fill="#ffffff" stroke="#000000" points="368,-543 368,-562 452,-562 452,-543 368,-543"/>
<text text-anchor="middle" x="410" y="-550" font-family="Helvetica,sans-Serif" font-size="10.00" fill="#000000">FrameDrawer.h</text>
</a>
</g>
</g>
<!-- Node0&#45;&gt;Node7 -->
<g id="edge116" class="edge">
<title>Node0&#45;&gt;Node7</title>
<path fill="none" stroke="#191970" d="M1510.7984,-730.2453C1273.2999,-725.7415 512.2807,-709.0942 469,-680 432.3665,-655.3743 418.0423,-601.8465 412.7928,-572.5877"/>
<polygon fill="#191970" stroke="#191970" points="416.1895,-571.6634 411.1511,-562.3433 409.2776,-572.7711 416.1895,-571.6634"/>
</g>
<!-- Node8 -->
<g id="node9" class="node">
<title>Node8</title>
<g id="a_node9"><a xlink:href="_map_8h.html" target="_top" xlink:title="Map.h">
<polygon fill="#ffffff" stroke="#000000" points="999,-425.5 999,-444.5 1043,-444.5 1043,-425.5 999,-425.5"/>
<text text-anchor="middle" x="1021" y="-432.5" font-family="Helvetica,sans-Serif" font-size="10.00" fill="#000000">Map.h</text>
</a>
</g>
</g>
<!-- Node0&#45;&gt;Node8 -->
<g id="edge122" class="edge">
<title>Node0&#45;&gt;Node8</title>
<path fill="none" stroke="#191970" d="M1510.9647,-729.6414C1341.2382,-724.6916 917.6921,-709.5104 861,-680 778.4689,-637.0394 723.0072,-538.6978 796,-481 825.4704,-457.7049 933.4648,-443.7804 988.4151,-438.0531"/>
<polygon fill="#191970" stroke="#191970" points="989.0621,-441.5056 998.6589,-437.0166 988.3573,-434.5412 989.0621,-441.5056"/>
</g>
<!-- Node11 -->
<g id="node12" class="node">
<title>Node11</title>
<polygon fill="#ffffff" stroke="#bfbfbf" points="1610,-179.5 1610,-198.5 1726,-198.5 1726,-179.5 1610,-179.5"/>
<text text-anchor="middle" x="1668" y="-186.5" font-family="Helvetica,sans-Serif" font-size="10.00" fill="#000000">opencv2/core/core.hpp</text>
</g>
<!-- Node0&#45;&gt;Node11 -->
<g id="edge107" class="edge">
<title>Node0&#45;&gt;Node11</title>
<path fill="none" stroke="#191970" d="M1651.0817,-724.971C1763.8348,-712.5056 1973,-680.429 1973,-614 1973,-614 1973,-614 1973,-552.5 1973,-404.7906 1757.5872,-261.2934 1729,-235 1717.0196,-223.9809 1702.5077,-212.9556 1690.6445,-204.4623"/>
<polygon fill="#191970" stroke="#191970" points="1692.3672,-201.3948 1682.1747,-198.5029 1688.3391,-207.1198 1692.3672,-201.3948"/>
</g>
<!-- Node22 -->
<g id="node17" class="node">
<title>Node22</title>
<polygon fill="#ffffff" stroke="#bfbfbf" points="1903,-56.5 1903,-75.5 1957,-75.5 1957,-56.5 1903,-56.5"/>
<text text-anchor="middle" x="1930" y="-63.5" font-family="Helvetica,sans-Serif" font-size="10.00" fill="#000000">iostream</text>
</g>
<!-- Node0&#45;&gt;Node22 -->
<g id="edge140" class="edge">
<title>Node0&#45;&gt;Node22</title>
<path fill="none" stroke="#191970" d="M1651.0439,-726.8369C1772.8895,-716.7858 2011,-687.7137 2011,-614 2011,-614 2011,-614 2011,-552.5 2011,-365.046 1932.6095,-329.0855 1910,-143 1908.3382,-129.3228 1907.1944,-125.4891 1910,-112 1911.9414,-102.6655 1915.8804,-92.9017 1919.7531,-84.783"/>
<polygon fill="#191970" stroke="#191970" points="1922.8903,-86.3353 1924.3055,-75.8354 1916.6514,-83.161 1922.8903,-86.3353"/>
</g>
<!-- Node74 -->
<g id="node36" class="node">
<title>Node74</title>
<g id="a_node36"><a xlink:href="_initializer_8h.html" target="_top" xlink:title="Initializer.h">
<polygon fill="#ffffff" stroke="#000000" points="1734,-604.5 1734,-623.5 1798,-623.5 1798,-604.5 1734,-604.5"/>
<text text-anchor="middle" x="1766" y="-611.5" font-family="Helvetica,sans-Serif" font-size="10.00" fill="#000000">Initializer.h</text>
</a>
</g>
</g>
<!-- Node0&#45;&gt;Node74 -->
<g id="edge123" class="edge">
<title>Node0&#45;&gt;Node74</title>
<path fill="none" stroke="#191970" d="M1604.8068,-716.3795C1640.2819,-693.848 1706.6385,-651.7026 1742.1428,-629.1525"/>
<polygon fill="#191970" stroke="#191970" points="1744.313,-631.9205 1750.8778,-623.6046 1740.56,-626.0116 1744.313,-631.9205"/>
</g>
<!-- Node81 -->
<g id="node43" class="node">
<title>Node81</title>
<polygon fill="#ffffff" stroke="#bfbfbf" points="1799,-537.5 1799,-567.5 1901,-567.5 1901,-537.5 1799,-537.5"/>
<text text-anchor="start" x="1807" y="-555.5" font-family="Helvetica,sans-Serif" font-size="10.00" fill="#000000">opencv2/features2d</text>
<text text-anchor="middle" x="1850" y="-544.5" font-family="Helvetica,sans-Serif" font-size="10.00" fill="#000000">/features2d.hpp</text>
</g>
<!-- Node0&#45;&gt;Node81 -->
<g id="edge108" class="edge">
<title>Node0&#45;&gt;Node81</title>
<path fill="none" stroke="#191970" d="M1633.1396,-716.4484C1682.4928,-700.1158 1756.3676,-670.0353 1807,-624 1821.3304,-610.9707 1832.4217,-592.0464 1839.7481,-576.9396"/>
<polygon fill="#191970" stroke="#191970" points="1843.0156,-578.2114 1844.0151,-567.6638 1836.6562,-575.2859 1843.0156,-578.2114"/>
</g>
<!-- Node82 -->
<g id="node44" class="node">
<title>Node82</title>
<g id="a_node44"><a xlink:href="_o_r_bmatcher_8h.html" target="_top" xlink:title="ORBmatcher.h">
<polygon fill="#ffffff" stroke="#000000" points="1634,-604.5 1634,-623.5 1716,-623.5 1716,-604.5 1634,-604.5"/>
<text text-anchor="middle" x="1675" y="-611.5" font-family="Helvetica,sans-Serif" font-size="10.00" fill="#000000">ORBmatcher.h</text>
</a>
</g>
</g>
<!-- Node0&#45;&gt;Node82 -->
<g id="edge109" class="edge">
<title>Node0&#45;&gt;Node82</title>
<path fill="none" stroke="#191970" d="M1593.2889,-716.1389C1610.7635,-694.2957 1642.7021,-654.3724 1661.046,-631.4424"/>
<polygon fill="#191970" stroke="#191970" points="1663.8385,-633.5546 1667.3524,-623.5595 1658.3724,-629.1817 1663.8385,-633.5546"/>
</g>
<!-- Node83 -->
<g id="node45" class="node">
<title>Node83</title>
<g id="a_node45"><a xlink:href="_converter_8h.html" target="_top" xlink:title="Converter.h">
<polygon fill="#ffffff" stroke="#000000" points="2015,-313.5 2015,-332.5 2083,-332.5 2083,-313.5 2015,-313.5"/>
<text text-anchor="middle" x="2049" y="-320.5" font-family="Helvetica,sans-Serif" font-size="10.00" fill="#000000">Converter.h</text>
</a>
</g>
</g>
<!-- Node0&#45;&gt;Node83 -->
<g id="edge117" class="edge">
<title>Node0&#45;&gt;Node83</title>
<path fill="none" stroke="#191970" d="M1651.3421,-727.3757C1769.1419,-719.8787 1996.308,-702.673 2025,-680 2049.4893,-660.648 2049,-645.2125 2049,-614 2049,-614 2049,-614 2049,-435 2049,-402.7116 2049,-365.1872 2049,-342.8048"/>
<polygon fill="#191970" stroke="#191970" points="2052.5001,-342.5883 2049,-332.5884 2045.5001,-342.5884 2052.5001,-342.5883"/>
</g>
<!-- Node84 -->
<g id="node46" class="node">
<title>Node84</title>
<g id="a_node46"><a xlink:href="_optimizer_8h.html" target="_top" xlink:title="Optimizer.h">
<polygon fill="#ffffff" stroke="#000000" points="1278.5,-604.5 1278.5,-623.5 1345.5,-623.5 1345.5,-604.5 1278.5,-604.5"/>
<text text-anchor="middle" x="1312" y="-611.5" font-family="Helvetica,sans-Serif" font-size="10.00" fill="#000000">Optimizer.h</text>
</a>
</g>
</g>
<!-- Node0&#45;&gt;Node84 -->
<g id="edge124" class="edge">
<title>Node0&#45;&gt;Node84</title>
<path fill="none" stroke="#191970" d="M1546.6577,-716.4992C1493.9648,-693.4828 1393.9563,-649.7988 1343.2117,-627.6334"/>
<polygon fill="#191970" stroke="#191970" points="1344.6051,-624.4227 1334.0402,-623.6272 1341.8031,-630.8375 1344.6051,-624.4227"/>
</g>
<!-- Node85 -->
<g id="node47" class="node">
<title>Node85</title>
<g id="a_node47"><a xlink:href="_pn_psolver_8h.html" target="_top" xlink:title="PnPsolver.h">
<polygon fill="#ffffff" stroke="#000000" points="1546,-604.5 1546,-623.5 1616,-623.5 1616,-604.5 1546,-604.5"/>
<text text-anchor="middle" x="1581" y="-611.5" font-family="Helvetica,sans-Serif" font-size="10.00" fill="#000000">PnPsolver.h</text>
</a>
</g>
</g>
<!-- Node0&#45;&gt;Node85 -->
<g id="edge131" class="edge">
<title>Node0&#45;&gt;Node85</title>
<path fill="none" stroke="#191970" d="M1581,-716.1389C1581,-694.9692 1581,-656.8174 1581,-633.6112"/>
<polygon fill="#191970" stroke="#191970" points="1584.5001,-633.5594 1581,-623.5595 1577.5001,-633.5595 1584.5001,-633.5594"/>
</g>
<!-- Node86 -->
<g id="node48" class="node">
<title>Node86</title>
<g id="a_node48"><a xlink:href="_video_8h.html" target="_top" xlink:title="Video.h">
<polygon fill="#ffffff" stroke="#000000" points="215,-481.5 215,-500.5 265,-500.5 265,-481.5 215,-481.5"/>
<text text-anchor="middle" x="240" y="-488.5" font-family="Helvetica,sans-Serif" font-size="10.00" fill="#000000">Video.h</text>
</a>
</g>
</g>
<!-- Node0&#45;&gt;Node86 -->
<g id="edge135" class="edge">
<title>Node0&#45;&gt;Node86</title>
<path fill="none" stroke="#191970" d="M1510.953,-730.3857C1253.1675,-726.0604 369.4204,-709.1609 317,-680 255.868,-645.9929 243.2304,-552.0217 240.6476,-510.8077"/>
<polygon fill="#191970" stroke="#191970" points="244.1365,-510.4936 240.1538,-500.6759 237.1448,-510.8344 244.1365,-510.4936"/>
</g>
<!-- Node2 -->
<g id="node3" class="node">
<title>Node2</title>
<polygon fill="#ffffff" stroke="#bfbfbf" points="397,-425.5 397,-444.5 491,-444.5 491,-425.5 397,-425.5"/>
<text text-anchor="middle" x="444" y="-432.5" font-family="Helvetica,sans-Serif" font-size="10.00" fill="#000000">opencv2/core.hpp</text>
</g>
<!-- Node1&#45;&gt;Node2 -->
<g id="edge2" class="edge">
<title>Node1&#45;&gt;Node2</title>
<path fill="none" stroke="#191970" d="M869.9411,-669.5596C793.2711,-667.9201 597.438,-660.2035 545,-624 485.1124,-582.6532 457.7763,-494.1453 448.2118,-454.6881"/>
<polygon fill="#191970" stroke="#191970" points="451.6226,-453.9027 445.9731,-444.9398 444.8002,-455.4695 451.6226,-453.9027"/>
</g>
<!-- Node3 -->
<g id="node4" class="node">
<title>Node3</title>
<polygon fill="#ffffff" stroke="#bfbfbf" points="1065.5,-604.5 1065.5,-623.5 1186.5,-623.5 1186.5,-604.5 1065.5,-604.5"/>
<text text-anchor="middle" x="1126" y="-611.5" font-family="Helvetica,sans-Serif" font-size="10.00" fill="#000000">opencv2/features2d.hpp</text>
</g>
<!-- Node1&#45;&gt;Node3 -->
<g id="edge3" class="edge">
<title>Node1&#45;&gt;Node3</title>
<path fill="none" stroke="#191970" d="M932.2853,-662.2134C969.9252,-652.8453 1033.5368,-637.0131 1077.5437,-626.0602"/>
<polygon fill="#191970" stroke="#191970" points="1078.5904,-629.4066 1087.449,-623.5949 1076.8997,-622.6138 1078.5904,-629.4066"/>
</g>
<!-- Node4 -->
<g id="node5" class="node">
<title>Node4</title>
<g id="a_node5"><a xlink:href="_viewer_8h.html" target="_top" xlink:title="Viewer.h">
<polygon fill="#ffffff" stroke="#000000" points="276.5,-369.5 276.5,-388.5 331.5,-388.5 331.5,-369.5 276.5,-369.5"/>
<text text-anchor="middle" x="304" y="-376.5" font-family="Helvetica,sans-Serif" font-size="10.00" fill="#000000">Viewer.h</text>
</a>
</g>
</g>
<!-- Node1&#45;&gt;Node4 -->
<g id="edge4" class="edge">
<title>Node1&#45;&gt;Node4</title>
<path fill="none" stroke="#191970" d="M869.7034,-667.8257C783.5827,-661.6597 544.4204,-643.2576 468,-624 386.5279,-603.4694 293,-636.5191 293,-552.5 293,-552.5 293,-552.5 293,-491 293,-458.5562 297.6282,-421.078 300.8805,-398.7472"/>
<polygon fill="#191970" stroke="#191970" points="304.3868,-398.9687 302.424,-388.5573 297.4657,-397.9203 304.3868,-398.9687"/>
</g>
<!-- Node1&#45;&gt;Node6 -->
<g id="edge106" class="edge">
<title>Node1&#45;&gt;Node6</title>
<path fill="none" stroke="#191970" d="M869.732,-662.0286C866.4558,-661.2968 863.1665,-660.6046 860,-660 745.8446,-638.2029 695.5191,-691.6218 601,-624 551.2111,-588.3795 553.1619,-560.5583 539,-501 519.1723,-417.614 633.6285,-358.8497 691.3089,-334.9301"/>
<polygon fill="#191970" stroke="#191970" points="692.752,-338.122 700.7125,-331.1305 690.1296,-331.6317 692.752,-338.122"/>
</g>
<!-- Node1&#45;&gt;Node7 -->
<g id="edge7" class="edge">
<title>Node1&#45;&gt;Node7</title>
<path fill="none" stroke="#191970" d="M869.9234,-668.4321C788.9434,-664.0208 573.1457,-650.0912 507,-624 475.4404,-611.5513 444.9413,-586.1836 426.8229,-569.2593"/>
<polygon fill="#191970" stroke="#191970" points="429.0513,-566.5471 419.4101,-562.1542 424.2075,-571.6006 429.0513,-566.5471"/>
</g>
<!-- Node1&#45;&gt;Node8 -->
<g id="edge10" class="edge">
<title>Node1&#45;&gt;Node8</title>
<path fill="none" stroke="#191970" d="M905.8528,-660.4967C923.8678,-625.2172 987.1165,-501.3551 1011.4033,-453.7936"/>
<polygon fill="#191970" stroke="#191970" points="1014.6561,-455.1194 1016.0868,-444.6216 1008.4219,-451.9359 1014.6561,-455.1194"/>
</g>
<!-- Node9 -->
<g id="node10" class="node">
<title>Node9</title>
<g id="a_node10"><a xlink:href="_o_r_b_vocabulary_8h.html" target="_top" xlink:title="ORBVocabulary.h">
<polygon fill="#ffffff" stroke="#000000" points="1092.5,-313.5 1092.5,-332.5 1187.5,-332.5 1187.5,-313.5 1092.5,-313.5"/>
<text text-anchor="middle" x="1140" y="-320.5" font-family="Helvetica,sans-Serif" font-size="10.00" fill="#000000">ORBVocabulary.h</text>
</a>
</g>
</g>
<!-- Node1&#45;&gt;Node9 -->
<g id="edge72" class="edge">
<title>Node1&#45;&gt;Node9</title>
<path fill="none" stroke="#191970" d="M932.2094,-669.0328C1029.8143,-665.711 1324.5968,-653.3173 1355,-624 1401.0724,-579.5733 1401.7225,-537.6831 1372,-481 1349.698,-438.4684 1224.2156,-367.7711 1167.6524,-337.4896"/>
<polygon fill="#191970" stroke="#191970" points="1169.0333,-334.2598 1158.561,-332.6532 1165.7457,-340.4398 1169.0333,-334.2598"/>
</g>
<!-- Node28 -->
<g id="node19" class="node">
<title>Node28</title>
<g id="a_node19"><a xlink:href="_local_mapping_8h.html" target="_top" xlink:title="LocalMapping.h">
<polygon fill="#ffffff" stroke="#000000" points="778.5,-543 778.5,-562 863.5,-562 863.5,-543 778.5,-543"/>
<text text-anchor="middle" x="821" y="-550" font-family="Helvetica,sans-Serif" font-size="10.00" fill="#000000">LocalMapping.h</text>
</a>
</g>
</g>
<!-- Node1&#45;&gt;Node28 -->
<g id="edge29" class="edge">
<title>Node1&#45;&gt;Node28</title>
<path fill="none" stroke="#191970" d="M890.5414,-660.3845C873.9639,-640.9331 843.3924,-596.6138 828.6617,-571.2462"/>
<polygon fill="#191970" stroke="#191970" points="831.5949,-569.3169 823.7027,-562.2484 825.4643,-572.6958 831.5949,-569.3169"/>
</g>
<!-- Node30 -->
<g id="node21" class="node">
<title>Node30</title>
<g id="a_node21"><a xlink:href="_key_frame_database_8h.html" target="_top" xlink:title="KeyFrameDatabase.h">
<polygon fill="#ffffff" stroke="#000000" points="960,-369.5 960,-388.5 1072,-388.5 1072,-369.5 960,-369.5"/>
<text text-anchor="middle" x="1016" y="-376.5" font-family="Helvetica,sans-Serif" font-size="10.00" fill="#000000">KeyFrameDatabase.h</text>
</a>
</g>
</g>
<!-- Node1&#45;&gt;Node30 -->
<g id="edge73" class="edge">
<title>Node1&#45;&gt;Node30</title>
<path fill="none" stroke="#191970" d="M880.871,-660.4011C814.4161,-627.5064 610.6616,-516.3193 690,-425 706.762,-405.7067 859.2311,-390.9185 949.5991,-383.7579"/>
<polygon fill="#191970" stroke="#191970" points="950.0623,-387.2325 959.7593,-382.9642 949.517,-380.2538 950.0623,-387.2325"/>
</g>
<!-- Node32 -->
<g id="node23" class="node">
<title>Node32</title>
<g id="a_node23"><a xlink:href="_loop_closing_8h.html" target="_top" xlink:title="LoopClosing.h">
<polygon fill="#ffffff" stroke="#000000" points="815.5,-481.5 815.5,-500.5 894.5,-500.5 894.5,-481.5 815.5,-481.5"/>
<text text-anchor="middle" x="855" y="-488.5" font-family="Helvetica,sans-Serif" font-size="10.00" fill="#000000">LoopClosing.h</text>
</a>
</g>
</g>
<!-- Node1&#45;&gt;Node32 -->
<g id="edge71" class="edge">
<title>Node1&#45;&gt;Node32</title>
<path fill="none" stroke="#191970" d="M894.797,-660.183C886.9987,-637.9601 877.5058,-582.219 864,-537 861.3379,-528.087 857.7002,-518.4688 855.0762,-510.3431"/>
<polygon fill="#191970" stroke="#191970" points="858.4445,-509.3916 852.3779,-500.7056 851.7037,-511.279 858.4445,-509.3916"/>
</g>
<!-- Node73 -->
<g id="node35" class="node">
<title>Node73</title>
<g id="a_node35"><a xlink:href="_o_r_bextractor_8h.html" target="_top" xlink:title="ORBextractor.h">
<polygon fill="#ffffff" stroke="#000000" points="1394.5,-369.5 1394.5,-388.5 1479.5,-388.5 1479.5,-369.5 1394.5,-369.5"/>
<text text-anchor="middle" x="1437" y="-376.5" font-family="Helvetica,sans-Serif" font-size="10.00" fill="#000000">ORBextractor.h</text>
</a>
</g>
</g>
<!-- Node1&#45;&gt;Node73 -->
<g id="edge74" class="edge">
<title>Node1&#45;&gt;Node73</title>
<path fill="none" stroke="#191970" d="M932.2208,-669.1802C1034.387,-666.2101 1354.1399,-654.5338 1388,-624 1453.323,-565.0941 1445.9044,-445.7856 1439.9968,-398.7254"/>
<polygon fill="#191970" stroke="#191970" points="1443.4386,-398.0621 1438.608,-388.6326 1436.504,-399.0164 1443.4386,-398.0621"/>
</g>
<!-- Node1&#45;&gt;Node74 -->
<g id="edge78" class="edge">
<title>Node1&#45;&gt;Node74</title>
<path fill="none" stroke="#191970" d="M932.4187,-669.0182C1060.9931,-664.8835 1548.1376,-648.0489 1723.762,-623.8772"/>
<polygon fill="#191970" stroke="#191970" points="1724.4805,-627.31 1733.8814,-622.424 1723.4853,-620.3811 1724.4805,-627.31"/>
</g>
<!-- Node76 -->
<g id="node38" class="node">
<title>Node76</title>
<g id="a_node38"><a xlink:href="_frame_8h.html" target="_top" xlink:title="Frame.h">
<polygon fill="#ffffff" stroke="#000000" points="1554.5,-543 1554.5,-562 1607.5,-562 1607.5,-543 1554.5,-543"/>
<text text-anchor="middle" x="1581" y="-550" font-family="Helvetica,sans-Serif" font-size="10.00" fill="#000000">Frame.h</text>
</a>
</g>
</g>
<!-- Node1&#45;&gt;Node76 -->
<g id="edge105" class="edge">
<title>Node1&#45;&gt;Node76</title>
<path fill="none" stroke="#191970" d="M932.0769,-668.6838C1046.6761,-663.6809 1441.6736,-645.0618 1494,-624 1523.3018,-612.2058 1550.27,-586.8205 1566.1795,-569.6964"/>
<polygon fill="#191970" stroke="#191970" points="1568.974,-571.8234 1573.063,-562.0494 1563.7713,-567.1401 1568.974,-571.8234"/>
</g>
<!-- Node78 -->
<g id="node40" class="node">
<title>Node78</title>
<g id="a_node40"><a xlink:href="_map_drawer_8h.html" target="_top" xlink:title="MapDrawer.h">
<polygon fill="#ffffff" stroke="#000000" points="1074.5,-543 1074.5,-562 1149.5,-562 1149.5,-543 1074.5,-543"/>
<text text-anchor="middle" x="1112" y="-550" font-family="Helvetica,sans-Serif" font-size="10.00" fill="#000000">MapDrawer.h</text>
</a>
</g>
</g>
<!-- Node1&#45;&gt;Node78 -->
<g id="edge93" class="edge">
<title>Node1&#45;&gt;Node78</title>
<path fill="none" stroke="#191970" d="M929.4652,-660.421C952.6266,-652.1338 985.8121,-639.1221 1013,-624 1042.4034,-607.6456 1073.396,-584.0915 1092.7084,-568.5485"/>
<polygon fill="#191970" stroke="#191970" points="1095.1715,-571.0563 1100.712,-562.0256 1090.7492,-565.6301 1095.1715,-571.0563"/>
</g>
<!-- Node80 -->
<g id="node42" class="node">
<title>Node80</title>
<g id="a_node42"><a xlink:href="_system_8h.html" target="_top" xlink:title="System.h">
<polygon fill="#ffffff" stroke="#000000" points="547.5,-481.5 547.5,-500.5 606.5,-500.5 606.5,-481.5 547.5,-481.5"/>
<text text-anchor="middle" x="577" y="-488.5" font-family="Helvetica,sans-Serif" font-size="10.00" fill="#000000">System.h</text>
</a>
</g>
</g>
<!-- Node1&#45;&gt;Node80 -->
<g id="edge99" class="edge">
<title>Node1&#45;&gt;Node80</title>
<path fill="none" stroke="#191970" d="M869.6121,-668.8422C804.5559,-665.8215 657.9848,-655.6014 621,-624 587.3732,-595.2678 579.3179,-540.239 577.4725,-510.7749"/>
<polygon fill="#191970" stroke="#191970" points="580.9573,-510.3505 577.0206,-500.5142 573.9641,-510.6585 580.9573,-510.3505"/>
</g>
<!-- Node5 -->
<g id="node6" class="node">
<title>Node5</title>
<polygon fill="#ffffff" stroke="#bfbfbf" points="422.5,-179.5 422.5,-198.5 463.5,-198.5 463.5,-179.5 422.5,-179.5"/>
<text text-anchor="middle" x="443" y="-186.5" font-family="Helvetica,sans-Serif" font-size="10.00" fill="#000000">string</text>
</g>
<!-- Node4&#45;&gt;Node5 -->
<g id="edge5" class="edge">
<title>Node4&#45;&gt;Node5</title>
<path fill="none" stroke="#191970" d="M311.0841,-369.3167C333.1075,-339.2127 400.6304,-246.9153 429.5863,-207.3353"/>
<polygon fill="#191970" stroke="#191970" points="432.6838,-209.0291 435.7635,-198.8917 427.0342,-204.8959 432.6838,-209.0291"/>
</g>
<!-- Node4&#45;&gt;Node6 -->
<g id="edge6" class="edge">
<title>Node4&#45;&gt;Node6</title>
<path fill="none" stroke="#191970" d="M331.9223,-371.8898C336.6038,-370.8308 341.4259,-369.8209 346,-369 472.6435,-346.2713 625.2663,-331.4653 690.6793,-325.7098"/>
<polygon fill="#191970" stroke="#191970" points="691.114,-329.1853 700.7736,-324.8329 690.5081,-322.2116 691.114,-329.1853"/>
</g>
<!-- Node7&#45;&gt;Node2 -->
<g id="edge8" class="edge">
<title>Node7&#45;&gt;Node2</title>
<path fill="none" stroke="#191970" d="M412.7824,-542.8845C418.361,-523.6053 431.0087,-479.8963 438.3794,-454.4241"/>
<polygon fill="#191970" stroke="#191970" points="441.7616,-455.3272 441.1792,-444.7484 435.0375,-453.3814 441.7616,-455.3272"/>
</g>
<!-- Node7&#45;&gt;Node6 -->
<g id="edge9" class="edge">
<title>Node7&#45;&gt;Node6</title>
<path fill="none" stroke="#191970" d="M404.2478,-542.9987C391.494,-520.58 363.8135,-463.3906 388,-425 420.9629,-372.6788 613.0821,-339.1016 690.5937,-327.518"/>
<polygon fill="#191970" stroke="#191970" points="691.3555,-330.9438 700.7418,-326.0298 690.3397,-324.0179 691.3555,-330.9438"/>
</g>
<!-- Node8&#45;&gt;Node6 -->
<g id="edge28" class="edge">
<title>Node8&#45;&gt;Node6</title>
<path fill="none" stroke="#191970" d="M998.8245,-428.3867C970.8848,-419.9126 921.5011,-404.4628 880,-389 873.7696,-386.6786 798.7681,-355.0286 754.7248,-336.4155"/>
<polygon fill="#191970" stroke="#191970" points="755.8798,-333.1039 745.3062,-332.4344 753.1544,-339.5516 755.8798,-333.1039"/>
</g>
<!-- Node8&#45;&gt;Node9 -->
<g id="edge11" class="edge">
<title>Node8&#45;&gt;Node9</title>
<path fill="none" stroke="#191970" d="M1041.7438,-425.3873C1057.8,-417.2548 1079.9352,-404.4682 1096,-389 1110.3471,-375.1858 1122.5266,-355.9155 1130.4087,-341.7628"/>
<polygon fill="#191970" stroke="#191970" points="1133.5132,-343.3796 1135.1528,-332.9124 1127.3436,-340.0725 1133.5132,-343.3796"/>
</g>
<!-- Node27 -->
<g id="node18" class="node">
<title>Node27</title>
<polygon fill="#ffffff" stroke="#bfbfbf" points="1044,-313.5 1044,-332.5 1074,-332.5 1074,-313.5 1044,-313.5"/>
<text text-anchor="middle" x="1059" y="-320.5" font-family="Helvetica,sans-Serif" font-size="10.00" fill="#000000">set</text>
</g>
<!-- Node8&#45;&gt;Node27 -->
<g id="edge27" class="edge">
<title>Node8&#45;&gt;Node27</title>
<path fill="none" stroke="#191970" d="M1041.7852,-425.3756C1055.687,-417.6917 1072.8691,-405.4793 1081,-389 1088.6423,-373.511 1080.8821,-354.7324 1072.5423,-341.1722"/>
<polygon fill="#191970" stroke="#191970" points="1075.344,-339.0663 1066.8582,-332.7227 1069.5359,-342.9735 1075.344,-339.0663"/>
</g>
<!-- Node10 -->
<g id="node11" class="node">
<title>Node10</title>
<g id="a_node11"><a xlink:href="_f_o_r_b_8h.html" target="_top" xlink:title="../Thirdparty/DBoW2\l/DBoW2/FORB.h">
<polygon fill="#ffffff" stroke="#ff0000" points="1086.5,-241 1086.5,-271 1193.5,-271 1193.5,-241 1086.5,-241"/>
<text text-anchor="start" x="1094.5" y="-259" font-family="Helvetica,sans-Serif" font-size="10.00" fill="#000000">../Thirdparty/DBoW2</text>
<text text-anchor="middle" x="1140" y="-248" font-family="Helvetica,sans-Serif" font-size="10.00" fill="#000000">/DBoW2/FORB.h</text>
</a>
</g>
</g>
<!-- Node9&#45;&gt;Node10 -->
<g id="edge12" class="edge">
<title>Node9&#45;&gt;Node10</title>
<path fill="none" stroke="#191970" d="M1140,-313.4005C1140,-305.0099 1140,-292.4451 1140,-281.2085"/>
<polygon fill="#191970" stroke="#191970" points="1143.5001,-281.0217 1140,-271.0218 1136.5001,-281.0218 1143.5001,-281.0217"/>
</g>
<!-- Node14 -->
<g id="node14" class="node">
<title>Node14</title>
<g id="a_node14"><a xlink:href="_templated_vocabulary_8h.html" target="_top" xlink:title="../Thirdparty/DBoW2\l/DBoW2/TemplatedVocabulary.h">
<polygon fill="#ffffff" stroke="#ff0000" points="1288,-241 1288,-271 1448,-271 1448,-241 1288,-241"/>
<text text-anchor="start" x="1296" y="-259" font-family="Helvetica,sans-Serif" font-size="10.00" fill="#000000">../Thirdparty/DBoW2</text>
<text text-anchor="middle" x="1368" y="-248" font-family="Helvetica,sans-Serif" font-size="10.00" fill="#000000">/DBoW2/TemplatedVocabulary.h</text>
</a>
</g>
</g>
<!-- Node9&#45;&gt;Node14 -->
<g id="edge16" class="edge">
<title>Node9&#45;&gt;Node14</title>
<path fill="none" stroke="#191970" d="M1172.6668,-313.4005C1207.6226,-303.1284 1263.8666,-286.6006 1307.0451,-273.9122"/>
<polygon fill="#191970" stroke="#191970" points="1308.2736,-277.1992 1316.8812,-271.0218 1306.3,-270.4832 1308.2736,-277.1992"/>
</g>
<!-- Node10&#45;&gt;Node5 -->
<g id="edge15" class="edge">
<title>Node10&#45;&gt;Node5</title>
<path fill="none" stroke="#191970" d="M1086.4649,-250.8539C948.2427,-237.5671 582.6298,-202.4221 473.913,-191.9716"/>
<polygon fill="#191970" stroke="#191970" points="473.9296,-188.4571 463.6405,-190.9841 473.2597,-195.425 473.9296,-188.4571"/>
</g>
<!-- Node10&#45;&gt;Node11 -->
<g id="edge13" class="edge">
<title>Node10&#45;&gt;Node11</title>
<path fill="none" stroke="#191970" d="M1193.739,-247.4682C1219.5035,-243.4835 1250.8215,-238.7937 1279,-235 1391.2322,-219.8902 1522.0507,-204.9739 1599.787,-196.3927"/>
<polygon fill="#191970" stroke="#191970" points="1600.3733,-199.8494 1609.93,-195.2757 1599.607,-192.8914 1600.3733,-199.8494"/>
</g>
<!-- Node12 -->
<g id="node13" class="node">
<title>Node12</title>
<polygon fill="#ffffff" stroke="#bfbfbf" points="1283,-56.5 1283,-75.5 1327,-75.5 1327,-56.5 1283,-56.5"/>
<text text-anchor="middle" x="1305" y="-63.5" font-family="Helvetica,sans-Serif" font-size="10.00" fill="#000000">vector</text>
</g>
<!-- Node10&#45;&gt;Node12 -->
<g id="edge14" class="edge">
<title>Node10&#45;&gt;Node12</title>
<path fill="none" stroke="#191970" d="M1143.4782,-240.9903C1150.7952,-212.4317 1170.3002,-149.7615 1208,-112 1225.9931,-93.9774 1252.413,-82.089 1273.1379,-74.921"/>
<polygon fill="#191970" stroke="#191970" points="1274.369,-78.201 1282.7926,-71.7751 1272.2003,-71.5454 1274.369,-78.201"/>
</g>
<!-- Node14&#45;&gt;Node5 -->
<g id="edge18" class="edge">
<title>Node14&#45;&gt;Node5</title>
<path fill="none" stroke="#191970" d="M1287.9708,-244.7328C1261.0176,-241.2267 1230.7444,-237.6023 1203,-235 920.1804,-208.4727 576.6442,-194.0674 473.6151,-190.1253"/>
<polygon fill="#191970" stroke="#191970" points="473.7189,-186.6268 463.5937,-189.746 473.4541,-193.6218 473.7189,-186.6268"/>
</g>
<!-- Node14&#45;&gt;Node11 -->
<g id="edge19" class="edge">
<title>Node14&#45;&gt;Node11</title>
<path fill="none" stroke="#191970" d="M1435.3259,-240.9639C1489.7916,-228.7999 1565.406,-211.9127 1615.4707,-200.7315"/>
<polygon fill="#191970" stroke="#191970" points="1616.4423,-204.1008 1625.439,-198.5053 1614.9165,-197.2692 1616.4423,-204.1008"/>
</g>
<!-- Node14&#45;&gt;Node12 -->
<g id="edge17" class="edge">
<title>Node14&#45;&gt;Node12</title>
<path fill="none" stroke="#191970" d="M1362.9509,-240.7727C1351.5767,-206.4695 1323.9643,-123.1941 1311.407,-85.3228"/>
<polygon fill="#191970" stroke="#191970" points="1314.6281,-83.9161 1308.1586,-75.5258 1307.9838,-86.1192 1314.6281,-83.9161"/>
</g>
<!-- Node20 -->
<g id="node15" class="node">
<title>Node20</title>
<g id="a_node15"><a xlink:href="_feature_vector_8h.html" target="_top" xlink:title="FeatureVector.h">
<polygon fill="#ffffff" stroke="#ff0000" points="1434,-179.5 1434,-198.5 1520,-198.5 1520,-179.5 1434,-179.5"/>
<text text-anchor="middle" x="1477" y="-186.5" font-family="Helvetica,sans-Serif" font-size="10.00" fill="#000000">FeatureVector.h</text>
</a>
</g>
</g>
<!-- Node14&#45;&gt;Node20 -->
<g id="edge20" class="edge">
<title>Node14&#45;&gt;Node20</title>
<path fill="none" stroke="#191970" d="M1392.4617,-240.9639C1410.421,-229.9247 1434.7089,-214.9954 1452.6434,-203.9715"/>
<polygon fill="#191970" stroke="#191970" points="1454.6893,-206.8223 1461.3757,-198.6039 1451.0236,-200.8588 1454.6893,-206.8223"/>
</g>
<!-- Node21 -->
<g id="node16" class="node">
<title>Node21</title>
<g id="a_node16"><a xlink:href="_bow_vector_8h.html" target="_top" xlink:title="BowVector.h">
<polygon fill="#ffffff" stroke="#ff0000" points="1510.5,-118 1510.5,-137 1583.5,-137 1583.5,-118 1510.5,-118"/>
<text text-anchor="middle" x="1547" y="-125" font-family="Helvetica,sans-Serif" font-size="10.00" fill="#000000">BowVector.h</text>
</a>
</g>
</g>
<!-- Node14&#45;&gt;Node21 -->
<g id="edge26" class="edge">
<title>Node14&#45;&gt;Node21</title>
<path fill="none" stroke="#191970" d="M1375.9617,-240.7777C1385.5637,-223.7075 1403.1684,-196.1721 1425,-179 1447.5525,-161.2609 1477.1117,-148.5778 1501.4857,-140.2371"/>
<polygon fill="#191970" stroke="#191970" points="1502.825,-143.4813 1511.2331,-137.0351 1500.6403,-136.8309 1502.825,-143.4813"/>
</g>
<!-- Node20&#45;&gt;Node12 -->
<g id="edge24" class="edge">
<title>Node20&#45;&gt;Node12</title>
<path fill="none" stroke="#191970" d="M1463.5034,-179.3484C1433.8626,-158.1517 1362.8555,-107.3734 1326.8008,-81.5901"/>
<polygon fill="#191970" stroke="#191970" points="1328.6039,-78.5767 1318.4339,-75.6068 1324.5321,-84.2706 1328.6039,-78.5767"/>
</g>
<!-- Node20&#45;&gt;Node21 -->
<g id="edge21" class="edge">
<title>Node20&#45;&gt;Node21</title>
<path fill="none" stroke="#191970" d="M1487.9375,-179.3906C1498.662,-169.9683 1515.2287,-155.4134 1528.0901,-144.1137"/>
<polygon fill="#191970" stroke="#191970" points="1530.7059,-146.4745 1535.9083,-137.2449 1526.0857,-141.2158 1530.7059,-146.4745"/>
</g>
<!-- Node20&#45;&gt;Node22 -->
<g id="edge25" class="edge">
<title>Node20&#45;&gt;Node22</title>
<path fill="none" stroke="#191970" d="M1477.0032,-179.3787C1477.5789,-162.7338 1481.3774,-128.7437 1502,-112 1532.0886,-87.5708 1794.4458,-72.5281 1892.8922,-67.7004"/>
<polygon fill="#191970" stroke="#191970" points="1893.1619,-71.1916 1902.9815,-67.2134 1892.8244,-64.1997 1893.1619,-71.1916"/>
</g>
<!-- Node21&#45;&gt;Node12 -->
<g id="edge23" class="edge">
<title>Node21&#45;&gt;Node12</title>
<path fill="none" stroke="#191970" d="M1510.2454,-118.1595C1463.0179,-106.1574 1381.798,-85.5168 1336.9966,-74.1314"/>
<polygon fill="#191970" stroke="#191970" points="1337.7774,-70.7186 1327.2234,-71.6477 1336.0533,-77.503 1337.7774,-70.7186"/>
</g>
<!-- Node21&#45;&gt;Node22 -->
<g id="edge22" class="edge">
<title>Node21&#45;&gt;Node22</title>
<path fill="none" stroke="#191970" d="M1583.7237,-121.6031C1656.7112,-109.8832 1819.2936,-83.7766 1892.7277,-71.985"/>
<polygon fill="#191970" stroke="#191970" points="1893.5755,-75.3938 1902.8941,-70.3525 1892.4656,-68.4823 1893.5755,-75.3938"/>
</g>
<!-- Node28&#45;&gt;Node1 -->
<g id="edge68" class="edge">
<title>Node28&#45;&gt;Node1</title>
<path fill="none" stroke="#191970" d="M831.5717,-562.2484C848.2126,-581.8124 878.7797,-626.1449 893.4383,-651.4263"/>
<polygon fill="#191970" stroke="#191970" points="890.4792,-653.3089 898.3651,-660.3845 896.6128,-649.9355 890.4792,-653.3089"/>
</g>
<!-- Node28&#45;&gt;Node6 -->
<g id="edge70" class="edge">
<title>Node28&#45;&gt;Node6</title>
<path fill="none" stroke="#191970" d="M813.4808,-542.6711C806.0387,-532.6124 794.6766,-516.327 787,-501 759.3852,-445.8649 737.8483,-375.8466 728.3301,-342.4415"/>
<polygon fill="#191970" stroke="#191970" points="731.6386,-341.2765 725.5715,-332.5908 724.8979,-343.1642 731.6386,-341.2765"/>
</g>
<!-- Node28&#45;&gt;Node8 -->
<g id="edge41" class="edge">
<title>Node28&#45;&gt;Node8</title>
<path fill="none" stroke="#191970" d="M814.6855,-542.7662C805.8579,-527.8055 792.4534,-499.0057 807,-481 829.5006,-453.1489 934.8259,-441.3756 988.8528,-437.1011"/>
<polygon fill="#191970" stroke="#191970" points="989.2248,-440.5832 998.9345,-436.3437 988.7003,-433.6028 989.2248,-440.5832"/>
</g>
<!-- Node29 -->
<g id="node20" class="node">
<title>Node29</title>
<g id="a_node20"><a xlink:href="_key_frame_8h.html" target="_top" xlink:title="KeyFrame.h">
<polygon fill="#ffffff" stroke="#000000" points="1196,-425.5 1196,-444.5 1266,-444.5 1266,-425.5 1196,-425.5"/>
<text text-anchor="middle" x="1231" y="-432.5" font-family="Helvetica,sans-Serif" font-size="10.00" fill="#000000">KeyFrame.h</text>
</a>
</g>
</g>
<!-- Node28&#45;&gt;Node29 -->
<g id="edge30" class="edge">
<title>Node28&#45;&gt;Node29</title>
<path fill="none" stroke="#191970" d="M850.9395,-542.9886C895.4911,-528.9266 981.9428,-501.9911 1056,-481 1099.8753,-468.5638 1150.2643,-455.4399 1185.6707,-446.4073"/>
<polygon fill="#191970" stroke="#191970" points="1186.8688,-449.714 1195.6972,-443.8566 1185.1429,-442.9301 1186.8688,-449.714"/>
</g>
<!-- Node28&#45;&gt;Node30 -->
<g id="edge69" class="edge">
<title>Node28&#45;&gt;Node30</title>
<path fill="none" stroke="#191970" d="M812.3297,-542.6114C800.7953,-528.1934 783.2601,-500.9493 796,-481 829.6339,-428.3331 898.2264,-402.4493 949.9309,-389.9961"/>
<polygon fill="#191970" stroke="#191970" points="950.7404,-393.4013 959.7034,-387.752 949.1738,-386.5789 950.7404,-393.4013"/>
</g>
<!-- Node28&#45;&gt;Node32 -->
<g id="edge42" class="edge">
<title>Node28&#45;&gt;Node32</title>
<path fill="none" stroke="#191970" d="M821.25,-542.8906C824.4601,-533.917 831.6065,-520.2879 838.6835,-509.2491"/>
<polygon fill="#191970" stroke="#191970" points="841.7478,-510.9696 844.5238,-500.7449 835.9775,-507.0067 841.7478,-510.9696"/>
</g>
<!-- Node29&#45;&gt;Node6 -->
<g id="edge40" class="edge">
<title>Node29&#45;&gt;Node6</title>
<path fill="none" stroke="#191970" d="M1195.9757,-430.4587C1131.4478,-421.8916 996.2515,-402.9529 951,-389 930.8586,-382.7896 927.8739,-376.0196 908,-369 855.7387,-350.5409 792.6837,-336.5473 755.3218,-329.0762"/>
<polygon fill="#191970" stroke="#191970" points="755.531,-325.5505 745.0438,-327.0564 754.1812,-332.4191 755.531,-325.5505"/>
</g>
<!-- Node29&#45;&gt;Node9 -->
<g id="edge33" class="edge">
<title>Node29&#45;&gt;Node9</title>
<path fill="none" stroke="#191970" d="M1225.9259,-425.0503C1218.8406,-411.6254 1205.1387,-387.2882 1190,-369 1181.1576,-358.3181 1169.8921,-347.7461 1160.2937,-339.4357"/>
<polygon fill="#191970" stroke="#191970" points="1162.2911,-336.5417 1152.3907,-332.769 1157.7775,-341.8922 1162.2911,-336.5417"/>
</g>
<!-- Node29&#45;&gt;Node20 -->
<g id="edge32" class="edge">
<title>Node29&#45;&gt;Node20</title>
<path fill="none" stroke="#191970" d="M1244.4027,-425.4281C1273.398,-404.7468 1344.1656,-354.4141 1404,-313 1427.4143,-296.7939 1440.9495,-300.5212 1457,-277 1470.9606,-256.5415 1475.3059,-227.7927 1476.5876,-208.7941"/>
<polygon fill="#191970" stroke="#191970" points="1480.0919,-208.7751 1477.0432,-198.6284 1473.0989,-208.4616 1480.0919,-208.7751"/>
</g>
<!-- Node29&#45;&gt;Node21 -->
<g id="edge31" class="edge">
<title>Node29&#45;&gt;Node21</title>
<path fill="none" stroke="#191970" d="M1253.5257,-425.4201C1300.5501,-404.4913 1410.4665,-350.6045 1479,-277 1507.0604,-246.8633 1512.6492,-236.7923 1529,-199 1536.2907,-182.1488 1541.0623,-161.7345 1543.8489,-147.0402"/>
<polygon fill="#191970" stroke="#191970" points="1547.3169,-147.5271 1545.6017,-137.0721 1540.4226,-146.3148 1547.3169,-147.5271"/>
</g>
<!-- Node29&#45;&gt;Node30 -->
<g id="edge34" class="edge">
<title>Node29&#45;&gt;Node30</title>
<path fill="none" stroke="#191970" d="M1195.978,-425.878C1159.6694,-416.4209 1102.7127,-401.5856 1062.616,-391.1418"/>
<polygon fill="#191970" stroke="#191970" points="1063.3674,-387.7208 1052.808,-388.5872 1061.6029,-394.4948 1063.3674,-387.7208"/>
</g>
<!-- Node30&#45;&gt;Node6 -->
<g id="edge39" class="edge">
<title>Node30&#45;&gt;Node6</title>
<path fill="none" stroke="#191970" d="M965.9644,-369.4369C905.6906,-357.917 806.2003,-338.9018 755.253,-329.1644"/>
<polygon fill="#191970" stroke="#191970" points="755.6291,-325.673 745.1498,-327.2334 754.3149,-332.5485 755.6291,-325.673"/>
</g>
<!-- Node30&#45;&gt;Node9 -->
<g id="edge38" class="edge">
<title>Node30&#45;&gt;Node9</title>
<path fill="none" stroke="#191970" d="M1037.3164,-369.3733C1057.2216,-360.3838 1087.1436,-346.8706 1109.56,-336.7471"/>
<polygon fill="#191970" stroke="#191970" points="1111.2887,-339.8068 1118.9618,-332.5011 1108.4075,-333.4272 1111.2887,-339.8068"/>
</g>
<!-- Node30&#45;&gt;Node12 -->
<g id="edge35" class="edge">
<title>Node30&#45;&gt;Node12</title>
<path fill="none" stroke="#191970" d="M1016,-369.4309C1016,-348.738 1016,-298.2813 1016,-256 1016,-256 1016,-256 1016,-189 1016,-133.6658 1197.6409,-88.761 1272.9167,-72.5273"/>
<polygon fill="#191970" stroke="#191970" points="1273.7472,-75.9291 1282.8025,-70.4289 1272.2937,-69.0816 1273.7472,-75.9291"/>
</g>
<!-- Node30&#45;&gt;Node27 -->
<g id="edge37" class="edge">
<title>Node30&#45;&gt;Node27</title>
<path fill="none" stroke="#191970" d="M1023.49,-369.2455C1029.5326,-361.3761 1038.1903,-350.101 1045.4441,-340.6542"/>
<polygon fill="#191970" stroke="#191970" points="1048.2815,-342.7058 1051.5958,-332.6427 1042.7295,-338.4426 1048.2815,-342.7058"/>
</g>
<!-- Node31 -->
<g id="node22" class="node">
<title>Node31</title>
<polygon fill="#ffffff" stroke="#bfbfbf" points="1205.5,-313.5 1205.5,-332.5 1234.5,-332.5 1234.5,-313.5 1205.5,-313.5"/>
<text text-anchor="middle" x="1220" y="-320.5" font-family="Helvetica,sans-Serif" font-size="10.00" fill="#000000">list</text>
</g>
<!-- Node30&#45;&gt;Node31 -->
<g id="edge36" class="edge">
<title>Node30&#45;&gt;Node31</title>
<path fill="none" stroke="#191970" d="M1061.9707,-369.4709C1096.6794,-361.7948 1145.5453,-349.964 1195.396,-333.2156"/>
<polygon fill="#191970" stroke="#191970" points="1196.7141,-336.4639 1205.0433,-329.9159 1194.4487,-329.8406 1196.7141,-336.4639"/>
</g>
<!-- Node32&#45;&gt;Node1 -->
<g id="edge47" class="edge">
<title>Node32&#45;&gt;Node1</title>
<path fill="none" stroke="#191970" d="M866.3048,-500.7056C872.3248,-509.9039 878.1714,-524.1814 882,-537 893.7649,-576.39 902.4846,-623.7642 904.0185,-650.0124"/>
<polygon fill="#191970" stroke="#191970" points="900.5223,-650.2521 904.2139,-660.183 907.5211,-650.1175 900.5223,-650.2521"/>
</g>
<!-- Node32&#45;&gt;Node6 -->
<g id="edge50" class="edge">
<title>Node32&#45;&gt;Node6</title>
<path fill="none" stroke="#191970" d="M847.5249,-481.4862C826.2071,-454.3545 764.8627,-376.2798 737.031,-340.8576"/>
<polygon fill="#191970" stroke="#191970" points="739.6523,-338.5287 730.7219,-332.8279 734.148,-342.8535 739.6523,-338.5287"/>
</g>
<!-- Node32&#45;&gt;Node8 -->
<g id="edge45" class="edge">
<title>Node32&#45;&gt;Node8</title>
<path fill="none" stroke="#191970" d="M883.5364,-481.3733C912.9357,-471.4554 958.6574,-456.0313 989.1999,-445.7278"/>
<polygon fill="#191970" stroke="#191970" points="990.5738,-448.9581 998.9304,-442.4452 988.3362,-442.3254 990.5738,-448.9581"/>
</g>
<!-- Node32&#45;&gt;Node9 -->
<g id="edge46" class="edge">
<title>Node32&#45;&gt;Node9</title>
<path fill="none" stroke="#191970" d="M894.6224,-487.2992C935.7922,-482.2136 1001.1829,-470.5902 1052,-445 1086.3589,-427.6977 1096.4545,-420.8699 1118,-389 1127.501,-374.9461 1133.1989,-356.4467 1136.4069,-342.6101"/>
<polygon fill="#191970" stroke="#191970" points="1139.8611,-343.1904 1138.4709,-332.6872 1133.0077,-341.7648 1139.8611,-343.1904"/>
</g>
<!-- Node32&#45;&gt;Node28 -->
<g id="edge44" class="edge">
<title>Node32&#45;&gt;Node28</title>
<path fill="none" stroke="#191970" d="M854.7014,-500.7449C851.4519,-509.765 844.2862,-523.4043 837.21,-534.4169"/>
<polygon fill="#191970" stroke="#191970" points="834.1638,-532.6694 831.375,-542.8906 839.9291,-536.6394 834.1638,-532.6694"/>
</g>
<!-- Node32&#45;&gt;Node29 -->
<g id="edge43" class="edge">
<title>Node32&#45;&gt;Node29</title>
<path fill="none" stroke="#191970" d="M894.5279,-485.1129C964.9384,-474.6262 1111.6336,-452.778 1185.8779,-441.7203"/>
<polygon fill="#191970" stroke="#191970" points="1186.4825,-445.169 1195.8578,-440.2339 1185.4513,-438.2453 1186.4825,-445.169"/>
</g>
<!-- Node32&#45;&gt;Node30 -->
<g id="edge48" class="edge">
<title>Node32&#45;&gt;Node30</title>
<path fill="none" stroke="#191970" d="M868.7268,-481.4509C896.649,-462.0268 960.2676,-417.7703 994.0214,-394.2895"/>
<polygon fill="#191970" stroke="#191970" points="996.0976,-397.1087 1002.308,-388.5249 992.1002,-391.3624 996.0976,-397.1087"/>
</g>
<!-- Node33 -->
<g id="node24" class="node">
<title>Node33</title>
<polygon fill="#ffffff" stroke="#bfbfbf" points="699,-425.5 699,-444.5 743,-444.5 743,-425.5 699,-425.5"/>
<text text-anchor="middle" x="721" y="-432.5" font-family="Helvetica,sans-Serif" font-size="10.00" fill="#000000">thread</text>
</g>
<!-- Node32&#45;&gt;Node33 -->
<g id="edge49" class="edge">
<title>Node32&#45;&gt;Node33</title>
<path fill="none" stroke="#191970" d="M831.9646,-481.3733C810.1296,-472.2482 777.1411,-458.462 752.8043,-448.2913"/>
<polygon fill="#191970" stroke="#191970" points="753.8659,-444.9417 743.2896,-444.315 751.1667,-451.4004 753.8659,-444.9417"/>
</g>
<!-- Node34 -->
<g id="node25" class="node">
<title>Node34</title>
<g id="a_node25"><a xlink:href="types__seven__dof__expmap_8h.html" target="_top" xlink:title="../Thirdparty/g2o/g2o\l/types/types_seven_dof\l_expmap.h">
<polygon fill="#ffffff" stroke="#ff0000" points="1983.5,-235.5 1983.5,-276.5 2104.5,-276.5 2104.5,-235.5 1983.5,-235.5"/>
<text text-anchor="start" x="1991.5" y="-264.5" font-family="Helvetica,sans-Serif" font-size="10.00" fill="#000000">../Thirdparty/g2o/g2o</text>
<text text-anchor="start" x="1991.5" y="-253.5" font-family="Helvetica,sans-Serif" font-size="10.00" fill="#000000">/types/types_seven_dof</text>
<text text-anchor="middle" x="2044" y="-242.5" font-family="Helvetica,sans-Serif" font-size="10.00" fill="#000000">_expmap.h</text>
</a>
</g>
</g>
<!-- Node32&#45;&gt;Node34 -->
<g id="edge51" class="edge">
<title>Node32&#45;&gt;Node34</title>
<path fill="none" stroke="#191970" d="M894.6216,-488.4113C969.4075,-483.1384 1136.3149,-469.5269 1275,-445 1535.5161,-398.9269 1838.8958,-315.3258 1973.4942,-276.6495"/>
<polygon fill="#191970" stroke="#191970" points="1974.638,-279.9624 1983.2788,-273.8316 1972.7007,-273.2358 1974.638,-279.9624"/>
</g>
<!-- Node35 -->
<g id="node26" class="node">
<title>Node35</title>
<g id="a_node26"><a xlink:href="base__vertex_8h.html" target="_top" xlink:title="../core/base_vertex.h">
<polygon fill="#ffffff" stroke="#ff0000" points="2290.5,-56.5 2290.5,-75.5 2399.5,-75.5 2399.5,-56.5 2290.5,-56.5"/>
<text text-anchor="middle" x="2345" y="-63.5" font-family="Helvetica,sans-Serif" font-size="10.00" fill="#000000">../core/base_vertex.h</text>
</a>
</g>
</g>
<!-- Node34&#45;&gt;Node35 -->
<g id="edge52" class="edge">
<title>Node34&#45;&gt;Node35</title>
<path fill="none" stroke="#191970" d="M2040.3762,-235.3238C2036.1899,-204.0332 2033.557,-144.8281 2066,-112 2095.1673,-82.4865 2207.4737,-71.8927 2280.3993,-68.101"/>
<polygon fill="#191970" stroke="#191970" points="2280.5988,-71.5955 2290.4153,-67.6098 2280.2559,-64.6039 2280.5988,-71.5955"/>
</g>
<!-- Node58 -->
<g id="node28" class="node">
<title>Node58</title>
<g id="a_node28"><a xlink:href="base__binary__edge_8h.html" target="_top" xlink:title="../core/base_binary\l_edge.h">
<polygon fill="#ffffff" stroke="#ff0000" points="1919,-112.5 1919,-142.5 2019,-142.5 2019,-112.5 1919,-112.5"/>
<text text-anchor="start" x="1927" y="-130.5" font-family="Helvetica,sans-Serif" font-size="10.00" fill="#000000">../core/base_binary</text>
<text text-anchor="middle" x="1969" y="-119.5" font-family="Helvetica,sans-Serif" font-size="10.00" fill="#000000">_edge.h</text>
</a>
</g>
</g>
<!-- Node34&#45;&gt;Node58 -->
<g id="edge54" class="edge">
<title>Node34&#45;&gt;Node58</title>
<path fill="none" stroke="#191970" d="M2031.95,-235.3543C2018.6438,-212.5564 1997.2434,-175.8904 1983.1505,-151.7446"/>
<polygon fill="#191970" stroke="#191970" points="1986.0243,-149.7248 1977.9606,-142.8526 1979.9787,-153.2534 1986.0243,-149.7248"/>
</g>
<!-- Node63 -->
<g id="node29" class="node">
<title>Node63</title>
<g id="a_node29"><a xlink:href="types__six__dof__expmap_8h.html" target="_top" xlink:title="types_six_dof_expmap.h">
<polygon fill="#ffffff" stroke="#000000" points="2172.5,-179.5 2172.5,-198.5 2297.5,-198.5 2297.5,-179.5 2172.5,-179.5"/>
<text text-anchor="middle" x="2235" y="-186.5" font-family="Helvetica,sans-Serif" font-size="10.00" fill="#000000">types_six_dof_expmap.h</text>
</a>
</g>
</g>
<!-- Node34&#45;&gt;Node63 -->
<g id="edge56" class="edge">
<title>Node34&#45;&gt;Node63</title>
<path fill="none" stroke="#191970" d="M2102.6043,-235.4425C2133.8571,-224.4795 2171.3394,-211.3312 2198.4323,-201.8274"/>
<polygon fill="#191970" stroke="#191970" points="2199.6354,-205.1146 2207.9131,-198.5017 2197.3183,-198.5092 2199.6354,-205.1146"/>
</g>
<!-- Node54 -->
<g id="node27" class="node">
<title>Node54</title>
<polygon fill="#ffffff" stroke="#bfbfbf" points="2401,-.5 2401,-19.5 2505,-19.5 2505,-.5 2401,-.5"/>
<text text-anchor="middle" x="2453" y="-7.5" font-family="Helvetica,sans-Serif" font-size="10.00" fill="#000000">eigen3/Eigen/Dense</text>
</g>
<!-- Node35&#45;&gt;Node54 -->
<g id="edge53" class="edge">
<title>Node35&#45;&gt;Node54</title>
<path fill="none" stroke="#191970" d="M2363.8122,-56.2455C2380.8473,-47.4125 2406.1575,-34.2887 2425.4681,-24.2758"/>
<polygon fill="#191970" stroke="#191970" points="2427.137,-27.353 2434.4034,-19.6427 2423.9147,-21.1388 2427.137,-27.353"/>
</g>
<!-- Node58&#45;&gt;Node22 -->
<g id="edge55" class="edge">
<title>Node58&#45;&gt;Node22</title>
<path fill="none" stroke="#191970" d="M1959.3595,-112.2977C1954.0023,-103.8498 1947.2978,-93.2773 1941.6487,-84.369"/>
<polygon fill="#191970" stroke="#191970" points="1944.5556,-82.4176 1936.2444,-75.8469 1938.6441,-86.1664 1944.5556,-82.4176"/>
</g>
<!-- Node63&#45;&gt;Node35 -->
<g id="edge57" class="edge">
<title>Node63&#45;&gt;Node35</title>
<path fill="none" stroke="#191970" d="M2283.5042,-179.4978C2319.7379,-171.2991 2364.8472,-158.3698 2376,-143 2389.2612,-124.7246 2374.6759,-99.9749 2361.3637,-83.5225"/>
<polygon fill="#191970" stroke="#191970" points="2363.8505,-81.0466 2354.6726,-75.7536 2358.5465,-85.6148 2363.8505,-81.0466"/>
</g>
<!-- Node63&#45;&gt;Node58 -->
<g id="edge58" class="edge">
<title>Node63&#45;&gt;Node58</title>
<path fill="none" stroke="#191970" d="M2193.7294,-179.4581C2149.6777,-169.2732 2079.4496,-153.0363 2029.2258,-141.4244"/>
<polygon fill="#191970" stroke="#191970" points="2029.9929,-138.0095 2019.4615,-139.1669 2028.4161,-144.8296 2029.9929,-138.0095"/>
</g>
<!-- Node64 -->
<g id="node30" class="node">
<title>Node64</title>
<g id="a_node30"><a xlink:href="base__unary__edge_8h.html" target="_top" xlink:title="../core/base_unary\l_edge.h">
<polygon fill="#ffffff" stroke="#ff0000" points="2075,-112.5 2075,-142.5 2173,-142.5 2173,-112.5 2075,-112.5"/>
<text text-anchor="start" x="2083" y="-130.5" font-family="Helvetica,sans-Serif" font-size="10.00" fill="#000000">../core/base_unary</text>
<text text-anchor="middle" x="2124" y="-119.5" font-family="Helvetica,sans-Serif" font-size="10.00" fill="#000000">_edge.h</text>
</a>
</g>
</g>
<!-- Node63&#45;&gt;Node64 -->
<g id="edge59" class="edge">
<title>Node63&#45;&gt;Node64</title>
<path fill="none" stroke="#191970" d="M2217.6563,-179.3906C2202.286,-170.8747 2179.3484,-158.166 2160.0205,-147.4573"/>
<polygon fill="#191970" stroke="#191970" points="2161.5971,-144.3295 2151.1537,-142.5446 2158.2046,-150.4525 2161.5971,-144.3295"/>
</g>
<!-- Node66 -->
<g id="node31" class="node">
<title>Node66</title>
<g id="a_node31"><a xlink:href="se3__ops_8h.html" target="_top" xlink:title="se3_ops.h">
<polygon fill="#ffffff" stroke="#ff0000" points="2432,-56.5 2432,-75.5 2494,-75.5 2494,-56.5 2432,-56.5"/>
<text text-anchor="middle" x="2463" y="-63.5" font-family="Helvetica,sans-Serif" font-size="10.00" fill="#000000">se3_ops.h</text>
</a>
</g>
</g>
<!-- Node63&#45;&gt;Node66 -->
<g id="edge61" class="edge">
<title>Node63&#45;&gt;Node66</title>
<path fill="none" stroke="#191970" d="M2294.4383,-179.4874C2325.2179,-172.6693 2362.4376,-161.348 2392,-143 2416.7342,-127.6487 2438.2994,-101.3844 2450.9861,-83.8599"/>
<polygon fill="#191970" stroke="#191970" points="2453.9049,-85.7936 2456.7808,-75.5966 2448.1736,-81.7745 2453.9049,-85.7936"/>
</g>
<!-- Node69 -->
<g id="node32" class="node">
<title>Node69</title>
<g id="a_node32"><a xlink:href="se3quat_8h.html" target="_top" xlink:title="se3quat.h">
<polygon fill="#ffffff" stroke="#ff0000" points="2461.5,-118 2461.5,-137 2520.5,-137 2520.5,-118 2461.5,-118"/>
<text text-anchor="middle" x="2491" y="-125" font-family="Helvetica,sans-Serif" font-size="10.00" fill="#000000">se3quat.h</text>
</a>
</g>
</g>
<!-- Node63&#45;&gt;Node69 -->
<g id="edge62" class="edge">
<title>Node63&#45;&gt;Node69</title>
<path fill="none" stroke="#191970" d="M2287.7248,-179.4623C2330.8954,-171.199 2393.3726,-158.1994 2447,-143 2449.9439,-142.1656 2452.9773,-141.2399 2456.0095,-140.268"/>
<polygon fill="#191970" stroke="#191970" points="2457.21,-143.5571 2465.5802,-137.0616 2454.9863,-136.9197 2457.21,-143.5571"/>
</g>
<!-- Node70 -->
<g id="node33" class="node">
<title>Node70</title>
<g id="a_node33"><a xlink:href="types__sba_8h.html" target="_top" xlink:title="types_sba.h">
<polygon fill="#ffffff" stroke="#ff0000" points="2297,-118 2297,-137 2367,-137 2367,-118 2297,-118"/>
<text text-anchor="middle" x="2332" y="-125" font-family="Helvetica,sans-Serif" font-size="10.00" fill="#000000">types_sba.h</text>
</a>
</g>
</g>
<!-- Node63&#45;&gt;Node70 -->
<g id="edge64" class="edge">
<title>Node63&#45;&gt;Node70</title>
<path fill="none" stroke="#191970" d="M2250.1563,-179.3906C2265.6743,-169.5519 2290.0193,-154.1167 2308.1284,-142.6351"/>
<polygon fill="#191970" stroke="#191970" points="2310.3787,-145.3526 2316.9502,-137.0419 2306.6304,-139.4407 2310.3787,-145.3526"/>
</g>
<!-- Node71 -->
<g id="node34" class="node">
<title>Node71</title>
<polygon fill="#ffffff" stroke="#bfbfbf" points="2191.5,-118 2191.5,-137 2278.5,-137 2278.5,-118 2191.5,-118"/>
<text text-anchor="middle" x="2235" y="-125" font-family="Helvetica,sans-Serif" font-size="10.00" fill="#000000">Eigen/Geometry</text>
</g>
<!-- Node63&#45;&gt;Node71 -->
<g id="edge67" class="edge">
<title>Node63&#45;&gt;Node71</title>
<path fill="none" stroke="#191970" d="M2235,-179.3906C2235,-170.8657 2235,-158.1392 2235,-147.4235"/>
<polygon fill="#191970" stroke="#191970" points="2238.5001,-147.2448 2235,-137.2449 2231.5001,-147.2449 2238.5001,-147.2448"/>
</g>
<!-- Node64&#45;&gt;Node22 -->
<g id="edge60" class="edge">
<title>Node64&#45;&gt;Node22</title>
<path fill="none" stroke="#191970" d="M2076.5423,-112.4554C2042.7347,-101.7381 1997.9519,-87.5414 1966.8288,-77.6751"/>
<polygon fill="#191970" stroke="#191970" points="1967.8253,-74.3194 1957.2351,-74.6338 1965.7099,-80.9921 1967.8253,-74.3194"/>
</g>
<!-- Node69&#45;&gt;Node66 -->
<g id="edge63" class="edge">
<title>Node69&#45;&gt;Node66</title>
<path fill="none" stroke="#191970" d="M2486.625,-117.8906C2482.6212,-109.0965 2476.5817,-95.8312 2471.6115,-84.9145"/>
<polygon fill="#191970" stroke="#191970" points="2474.7657,-83.3957 2467.4367,-75.7449 2468.3949,-86.2963 2474.7657,-83.3957"/>
</g>
<!-- Node70&#45;&gt;Node22 -->
<g id="edge66" class="edge">
<title>Node70&#45;&gt;Node22</title>
<path fill="none" stroke="#191970" d="M2307.6061,-117.8795C2301.2978,-115.677 2294.4614,-113.535 2288,-112 2173.0738,-84.6971 2033.2875,-72.6615 1967.567,-68.2129"/>
<polygon fill="#191970" stroke="#191970" points="1967.5044,-64.7014 1957.2967,-67.5392 1967.0461,-71.6864 1967.5044,-64.7014"/>
</g>
<!-- Node70&#45;&gt;Node35 -->
<g id="edge65" class="edge">
<title>Node70&#45;&gt;Node35</title>
<path fill="none" stroke="#191970" d="M2334.0313,-117.8906C2335.8522,-109.276 2338.5802,-96.3708 2340.8599,-85.5858"/>
<polygon fill="#191970" stroke="#191970" points="2344.2962,-86.2525 2342.9401,-75.7449 2337.4476,-84.8048 2344.2962,-86.2525"/>
</g>
<!-- Node73&#45;&gt;Node11 -->
<g id="edge77" class="edge">
<title>Node73&#45;&gt;Node11</title>
<path fill="none" stroke="#191970" d="M1449.6184,-369.3574C1472.9034,-351.49 1524.0791,-311.8772 1566,-277 1587.7914,-258.8701 1592.5434,-253.5248 1614,-235 1625.4746,-225.0933 1638.3993,-214.0783 1648.7267,-205.3112"/>
<polygon fill="#191970" stroke="#191970" points="1651.0111,-207.9631 1656.3749,-198.8263 1646.4841,-202.624 1651.0111,-207.9631"/>
</g>
<!-- Node73&#45;&gt;Node12 -->
<g id="edge75" class="edge">
<title>Node73&#45;&gt;Node12</title>
<path fill="none" stroke="#191970" d="M1394.2625,-369.7756C1348.4482,-357.3554 1277.9947,-330.3573 1246,-277 1208.2874,-214.1069 1213.8195,-177.8953 1246,-112 1252.4041,-98.8865 1264.5521,-88.4229 1276.1685,-80.8092"/>
<polygon fill="#191970" stroke="#191970" points="1278.1098,-83.7252 1284.8439,-75.5457 1274.4789,-77.7405 1278.1098,-83.7252"/>
</g>
<!-- Node73&#45;&gt;Node31 -->
<g id="edge76" class="edge">
<title>Node73&#45;&gt;Node31</title>
<path fill="none" stroke="#191970" d="M1394.1418,-369.6966C1355.8412,-361.1024 1298.3221,-347.5044 1249,-333 1247.5311,-332.568 1246.0263,-332.107 1244.5123,-331.6288"/>
<polygon fill="#191970" stroke="#191970" points="1245.2622,-328.1896 1234.6686,-328.3518 1243.0512,-334.8313 1245.2622,-328.1896"/>
</g>
<!-- Node75 -->
<g id="node37" class="node">
<title>Node75</title>
<polygon fill="#ffffff" stroke="#bfbfbf" points="1761.5,-481.5 1761.5,-500.5 1868.5,-500.5 1868.5,-481.5 1761.5,-481.5"/>
<text text-anchor="middle" x="1815" y="-488.5" font-family="Helvetica,sans-Serif" font-size="10.00" fill="#000000">opencv2/opencv.hpp</text>
</g>
<!-- Node74&#45;&gt;Node75 -->
<g id="edge79" class="edge">
<title>Node74&#45;&gt;Node75</title>
<path fill="none" stroke="#191970" d="M1798.0376,-608.2795C1836.2603,-600.7265 1896.6882,-586.2268 1910,-568 1918.126,-556.8737 1917.3177,-548.6738 1910,-537 1900.3181,-521.5548 1883.8162,-511.1672 1867.2563,-504.2389"/>
<polygon fill="#191970" stroke="#191970" points="1868.1415,-500.831 1857.5505,-500.5472 1865.6529,-507.3737 1868.1415,-500.831"/>
</g>
<!-- Node74&#45;&gt;Node76 -->
<g id="edge80" class="edge">
<title>Node74&#45;&gt;Node76</title>
<path fill="none" stroke="#191970" d="M1737.0938,-604.3906C1704.8136,-593.6597 1652.5068,-576.2712 1617.447,-564.6161"/>
<polygon fill="#191970" stroke="#191970" points="1618.198,-561.1775 1607.6044,-561.3442 1615.9897,-567.8201 1618.198,-561.1775"/>
</g>
<!-- Node76&#45;&gt;Node9 -->
<g id="edge90" class="edge">
<title>Node76&#45;&gt;Node9</title>
<path fill="none" stroke="#191970" d="M1566.7394,-542.9484C1523.1351,-514.0195 1387.1791,-425.8658 1266,-369 1238.1767,-355.9433 1205.5523,-344.123 1180.4724,-335.7346"/>
<polygon fill="#191970" stroke="#191970" points="1181.5057,-332.3899 1170.9126,-332.5806 1179.3125,-339.0375 1181.5057,-332.3899"/>
</g>
<!-- Node76&#45;&gt;Node12 -->
<g id="edge81" class="edge">
<title>Node76&#45;&gt;Node12</title>
<path fill="none" stroke="#191970" d="M1578.6365,-542.7113C1570.9265,-512.7247 1543.789,-421.0206 1489,-369 1415.1052,-298.839 1334.7519,-362.2921 1279,-277 1239.2447,-216.1803 1276.0081,-124.1247 1295.1144,-84.84"/>
<polygon fill="#191970" stroke="#191970" points="1298.2764,-86.3426 1299.6405,-75.8359 1292.0221,-83.1987 1298.2764,-86.3426"/>
</g>
<!-- Node76&#45;&gt;Node20 -->
<g id="edge89" class="edge">
<title>Node76&#45;&gt;Node20</title>
<path fill="none" stroke="#191970" d="M1584.3124,-542.7627C1587.6432,-532.5064 1592.6164,-515.8196 1595,-501 1600.3681,-467.6249 1603.504,-458.353 1598,-425 1589.4413,-373.1366 1583.2644,-360.1363 1560,-313 1540.0736,-272.627 1508.9486,-229.9207 1491.0143,-206.6571"/>
<polygon fill="#191970" stroke="#191970" points="1493.7477,-204.4707 1484.8375,-198.7384 1488.2283,-208.776 1493.7477,-204.4707"/>
</g>
<!-- Node76&#45;&gt;Node21 -->
<g id="edge88" class="edge">
<title>Node76&#45;&gt;Node21</title>
<path fill="none" stroke="#191970" d="M1587.6321,-542.7016C1622.7514,-490.2537 1783.6051,-242.7106 1735,-179 1717.909,-156.5975 1643.5017,-141.5485 1593.5783,-133.7656"/>
<polygon fill="#191970" stroke="#191970" points="1594.0467,-130.2967 1583.6355,-132.2605 1592.9989,-137.2179 1594.0467,-130.2967"/>
</g>
<!-- Node76&#45;&gt;Node73 -->
<g id="edge91" class="edge">
<title>Node76&#45;&gt;Node73</title>
<path fill="none" stroke="#191970" d="M1573.0528,-542.9248C1549.7996,-514.9079 1481.6452,-432.7912 1451.5592,-396.5418"/>
<polygon fill="#191970" stroke="#191970" points="1454.18,-394.2192 1445.1001,-388.7595 1448.7935,-398.6898 1454.18,-394.2192"/>
</g>
<!-- Node76&#45;&gt;Node75 -->
<g id="edge92" class="edge">
<title>Node76&#45;&gt;Node75</title>
<path fill="none" stroke="#191970" d="M1607.8428,-545.4452C1647.0692,-535.1357 1720.6018,-515.8098 1768.6754,-503.1751"/>
<polygon fill="#191970" stroke="#191970" points="1769.744,-506.5132 1778.5258,-500.5862 1767.9646,-499.7431 1769.744,-506.5132"/>
</g>
<!-- Node77 -->
<g id="node39" class="node">
<title>Node77</title>
<g id="a_node39"><a xlink:href="_map_point_8h.html" target="_top" xlink:title="MapPoint.h">
<polygon fill="#ffffff" stroke="#000000" points="1297,-481.5 1297,-500.5 1363,-500.5 1363,-481.5 1297,-481.5"/>
<text text-anchor="middle" x="1330" y="-488.5" font-family="Helvetica,sans-Serif" font-size="10.00" fill="#000000">MapPoint.h</text>
</a>
</g>
</g>
<!-- Node76&#45;&gt;Node77 -->
<g id="edge82" class="edge">
<title>Node76&#45;&gt;Node77</title>
<path fill="none" stroke="#191970" d="M1554.2025,-546.9338C1510.8004,-537.0378 1425.2058,-516.1787 1373.1734,-502.918"/>
<polygon fill="#191970" stroke="#191970" points="1373.7927,-499.4637 1363.2369,-500.3727 1372.0556,-506.2447 1373.7927,-499.4637"/>
</g>
<!-- Node77&#45;&gt;Node6 -->
<g id="edge87" class="edge">
<title>Node77&#45;&gt;Node6</title>
<path fill="none" stroke="#191970" d="M1296.677,-483.0614C1198.6149,-459.6849 917.3109,-392.5133 908,-389 890.1437,-382.2622 887.6239,-376.3243 870,-369 831.4544,-352.9808 785.2614,-339.3944 755.078,-331.2299"/>
<polygon fill="#191970" stroke="#191970" points="755.6723,-327.7662 745.1082,-328.5731 753.8697,-334.5302 755.6723,-327.7662"/>
</g>
<!-- Node77&#45;&gt;Node8 -->
<g id="edge85" class="edge">
<title>Node77&#45;&gt;Node8</title>
<path fill="none" stroke="#191970" d="M1296.9316,-485.007C1237.1546,-474.1737 1111.8619,-451.4669 1052.9289,-440.7865"/>
<polygon fill="#191970" stroke="#191970" points="1053.5237,-437.3373 1043.0598,-438.9979 1052.2754,-444.2251 1053.5237,-437.3373"/>
</g>
<!-- Node77&#45;&gt;Node11 -->
<g id="edge86" class="edge">
<title>Node77&#45;&gt;Node11</title>
<path fill="none" stroke="#191970" d="M1347.4766,-481.3504C1377.6023,-464.3826 1440.7215,-427.3497 1489,-389 1544.8652,-344.6238 1557.2945,-330.933 1604,-277 1623.7984,-254.1379 1643.8636,-225.4549 1656.1191,-207.1723"/>
<polygon fill="#191970" stroke="#191970" points="1659.1637,-208.9141 1661.7733,-198.6457 1653.3298,-205.0455 1659.1637,-208.9141"/>
</g>
<!-- Node77&#45;&gt;Node29 -->
<g id="edge83" class="edge">
<title>Node77&#45;&gt;Node29</title>
<path fill="none" stroke="#191970" d="M1312.7555,-481.2455C1297.4239,-472.5731 1274.7801,-459.7645 1257.2084,-449.825"/>
<polygon fill="#191970" stroke="#191970" points="1258.4741,-446.5198 1248.0469,-444.6427 1255.0276,-452.6126 1258.4741,-446.5198"/>
</g>
<!-- Node77&#45;&gt;Node76 -->
<g id="edge84" class="edge">
<title>Node77&#45;&gt;Node76</title>
<path fill="none" stroke="#191970" d="M1363.0495,-498.0001C1410.0903,-508.8464 1495.7003,-529.7658 1544.5281,-542.2956"/>
<polygon fill="#191970" stroke="#191970" points="1543.8045,-545.7235 1554.362,-544.8353 1545.5549,-538.9459 1543.8045,-545.7235"/>
</g>
<!-- Node78&#45;&gt;Node6 -->
<g id="edge98" class="edge">
<title>Node78&#45;&gt;Node6</title>
<path fill="none" stroke="#191970" d="M1095.2185,-542.8255C1051.6545,-517.6837 931.4278,-448.1263 832,-389 802.8843,-371.6859 769.6017,-351.4712 747.554,-338.0204"/>
<polygon fill="#191970" stroke="#191970" points="749.1964,-334.9224 738.8377,-332.6981 745.5484,-340.8967 749.1964,-334.9224"/>
</g>
<!-- Node78&#45;&gt;Node8 -->
<g id="edge94" class="edge">
<title>Node78&#45;&gt;Node8</title>
<path fill="none" stroke="#191970" d="M1099.27,-542.8996C1087.0953,-533.2652 1068.7527,-517.5196 1056,-501 1044.7582,-486.4375 1035.229,-467.7504 1028.9658,-453.9801"/>
<polygon fill="#191970" stroke="#191970" points="1032.0569,-452.3135 1024.8387,-444.558 1025.6451,-455.1221 1032.0569,-452.3135"/>
</g>
<!-- Node78&#45;&gt;Node29 -->
<g id="edge96" class="edge">
<title>Node78&#45;&gt;Node29</title>
<path fill="none" stroke="#191970" d="M1124.8746,-542.8194C1137.7944,-532.876 1158.0175,-516.6784 1174,-501 1189.604,-485.6929 1205.737,-466.6594 1216.8394,-452.9712"/>
<polygon fill="#191970" stroke="#191970" points="1219.832,-454.8336 1223.3526,-444.8408 1214.3688,-450.457 1219.832,-454.8336"/>
</g>
<!-- Node78&#45;&gt;Node77 -->
<g id="edge95" class="edge">
<title>Node78&#45;&gt;Node77</title>
<path fill="none" stroke="#191970" d="M1146.0625,-542.8906C1184.119,-532.1545 1245.797,-514.7545 1287.1111,-503.0994"/>
<polygon fill="#191970" stroke="#191970" points="1288.2165,-506.4242 1296.8905,-500.3405 1286.3158,-499.6872 1288.2165,-506.4242"/>
</g>
<!-- Node79 -->
<g id="node41" class="node">
<title>Node79</title>
<polygon fill="#ffffff" stroke="#bfbfbf" points="1065,-481.5 1065,-500.5 1165,-500.5 1165,-481.5 1065,-481.5"/>
<text text-anchor="middle" x="1115" y="-488.5" font-family="Helvetica,sans-Serif" font-size="10.00" fill="#000000">pangolin/pangolin.h</text>
</g>
<!-- Node78&#45;&gt;Node79 -->
<g id="edge97" class="edge">
<title>Node78&#45;&gt;Node79</title>
<path fill="none" stroke="#191970" d="M1112.4688,-542.8906C1112.8846,-534.3657 1113.5054,-521.6392 1114.0281,-510.9235"/>
<polygon fill="#191970" stroke="#191970" points="1117.5332,-510.9035 1114.5246,-500.7449 1110.5415,-510.5624 1117.5332,-510.9035"/>
</g>
<!-- Node80&#45;&gt;Node2 -->
<g id="edge102" class="edge">
<title>Node80&#45;&gt;Node2</title>
<path fill="none" stroke="#191970" d="M554.1365,-481.3733C532.595,-472.3032 500.1162,-458.6279 476.0044,-448.4755"/>
<polygon fill="#191970" stroke="#191970" points="477.1397,-445.156 466.5652,-444.5011 474.4233,-451.6075 477.1397,-445.156"/>
</g>
<!-- Node80&#45;&gt;Node5 -->
<g id="edge100" class="edge">
<title>Node80&#45;&gt;Node5</title>
<path fill="none" stroke="#191970" d="M572.6933,-481.294C553.6736,-438.4287 477.0144,-265.6593 451.3893,-207.9071"/>
<polygon fill="#191970" stroke="#191970" points="454.4788,-206.2404 447.2238,-198.5193 448.0804,-209.0795 454.4788,-206.2404"/>
</g>
<!-- Node80&#45;&gt;Node6 -->
<g id="edge103" class="edge">
<title>Node80&#45;&gt;Node6</title>
<path fill="none" stroke="#191970" d="M582.3327,-481.1337C589.7437,-467.8035 603.9524,-443.5731 619,-425 645.6808,-392.0681 681.9991,-358.5403 703.9023,-339.3102"/>
<polygon fill="#191970" stroke="#191970" points="706.2892,-341.8729 711.5409,-332.6712 701.6972,-336.5895 706.2892,-341.8729"/>
</g>
<!-- Node80&#45;&gt;Node9 -->
<g id="edge104" class="edge">
<title>Node80&#45;&gt;Node9</title>
<path fill="none" stroke="#191970" d="M585.7888,-481.2092C599.4979,-466.5812 627.4777,-439.2231 657,-425 695.1683,-406.6115 962.5392,-355.775 1082.2643,-333.5877"/>
<polygon fill="#191970" stroke="#191970" points="1083.1508,-336.9832 1092.3472,-331.7222 1081.8773,-330.1 1083.1508,-336.9832"/>
</g>
<!-- Node80&#45;&gt;Node33 -->
<g id="edge101" class="edge">
<title>Node80&#45;&gt;Node33</title>
<path fill="none" stroke="#191970" d="M601.7545,-481.3733C625.9979,-471.9453 663.0363,-457.5414 689.3955,-447.2906"/>
<polygon fill="#191970" stroke="#191970" points="690.8747,-450.4708 698.9261,-443.5843 688.3375,-443.9468 690.8747,-450.4708"/>
</g>
<!-- Node82&#45;&gt;Node11 -->
<g id="edge111" class="edge">
<title>Node82&#45;&gt;Node11</title>
<path fill="none" stroke="#191970" d="M1684.8498,-604.4623C1693.0343,-595.8178 1704.1023,-582.2781 1709,-568 1723.2136,-526.5638 1725.5484,-268.765 1712,-235 1707.3367,-223.3782 1698.1812,-213.0324 1689.4238,-205.1099"/>
<polygon fill="#191970" stroke="#191970" points="1691.5368,-202.3136 1681.6336,-198.5484 1687.0273,-207.6675 1691.5368,-202.3136"/>
</g>
<!-- Node82&#45;&gt;Node12 -->
<g id="edge110" class="edge">
<title>Node82&#45;&gt;Node12</title>
<path fill="none" stroke="#191970" d="M1687.5761,-604.3367C1708.1786,-588.7975 1750.7621,-557.8868 1790,-537 1827.3016,-517.1438 1854.4462,-536.0842 1878,-501 1882.9546,-493.62 1878.6967,-489.8615 1878,-481 1872.4273,-410.1229 1853,-394.0958 1853,-323 1853,-323 1853,-323 1853,-189 1853,-135.8133 1454.9256,-83.9397 1337.3334,-69.7764"/>
<polygon fill="#191970" stroke="#191970" points="1337.5055,-66.2722 1327.161,-68.5613 1336.6752,-73.2228 1337.5055,-66.2722"/>
</g>
<!-- Node82&#45;&gt;Node29 -->
<g id="edge114" class="edge">
<title>Node82&#45;&gt;Node29</title>
<path fill="none" stroke="#191970" d="M1644.2671,-604.4663C1617.813,-595.9245 1578.8313,-582.5315 1546,-568 1519.2723,-556.17 1514.0554,-550.2453 1488,-537 1436.9667,-511.0572 1425.1105,-502.3706 1372,-481 1339.8749,-468.0735 1302.5904,-456.0336 1274.4328,-447.5163"/>
<polygon fill="#191970" stroke="#191970" points="1275.0821,-444.0572 1264.4984,-444.5425 1273.0747,-450.7632 1275.0821,-444.0572"/>
</g>
<!-- Node82&#45;&gt;Node76 -->
<g id="edge115" class="edge">
<title>Node82&#45;&gt;Node76</title>
<path fill="none" stroke="#191970" d="M1660.3125,-604.3906C1645.2744,-594.5519 1621.6824,-579.1167 1604.1333,-567.6351"/>
<polygon fill="#191970" stroke="#191970" points="1605.8687,-564.588 1595.5844,-562.0419 1602.0363,-570.4457 1605.8687,-564.588"/>
</g>
<!-- Node82&#45;&gt;Node77 -->
<g id="edge113" class="edge">
<title>Node82&#45;&gt;Node77</title>
<path fill="none" stroke="#191970" d="M1636.0418,-604.4711C1602.7499,-595.981 1553.7542,-582.6596 1512,-568 1457.1113,-548.729 1395.0904,-521.2065 1359.4644,-504.8172"/>
<polygon fill="#191970" stroke="#191970" points="1360.6893,-501.5275 1350.1439,-500.5059 1357.7506,-507.8808 1360.6893,-501.5275"/>
</g>
<!-- Node82&#45;&gt;Node81 -->
<g id="edge112" class="edge">
<title>Node82&#45;&gt;Node81</title>
<path fill="none" stroke="#191970" d="M1702.3438,-604.3906C1727.7822,-595.4508 1766.3685,-581.8905 1797.7165,-570.8739"/>
<polygon fill="#191970" stroke="#191970" points="1798.9163,-574.1622 1807.1902,-567.5446 1796.5954,-567.5581 1798.9163,-574.1622"/>
</g>
<!-- Node83&#45;&gt;Node11 -->
<g id="edge118" class="edge">
<title>Node83&#45;&gt;Node11</title>
<path fill="none" stroke="#191970" d="M2021.9049,-313.4705C1954.8722,-289.8947 1781.194,-228.811 1704.8832,-201.972"/>
<polygon fill="#191970" stroke="#191970" points="1705.8067,-198.5867 1695.2119,-198.5706 1703.4842,-205.1902 1705.8067,-198.5867"/>
</g>
<!-- Node83&#45;&gt;Node34 -->
<g id="edge121" class="edge">
<title>Node83&#45;&gt;Node34</title>
<path fill="none" stroke="#191970" d="M2048.2836,-313.4005C2047.7601,-306.3854 2047.0189,-296.4526 2046.2998,-286.8177"/>
<polygon fill="#191970" stroke="#191970" points="2049.7743,-286.3435 2045.5397,-276.6318 2042.7937,-286.8645 2049.7743,-286.3435"/>
</g>
<!-- Node83&#45;&gt;Node54 -->
<g id="edge119" class="edge">
<title>Node83&#45;&gt;Node54</title>
<path fill="none" stroke="#191970" d="M2083.367,-321.2237C2196.3312,-314.4603 2549,-285.609 2549,-189 2549,-189 2549,-189 2549,-127.5 2549,-82.5753 2506.3952,-45.3602 2477.9508,-25.5203"/>
<polygon fill="#191970" stroke="#191970" points="2479.5383,-22.3705 2469.2851,-19.7016 2475.636,-28.1819 2479.5383,-22.3705"/>
</g>
<!-- Node83&#45;&gt;Node63 -->
<g id="edge120" class="edge">
<title>Node83&#45;&gt;Node63</title>
<path fill="none" stroke="#191970" d="M2062.7318,-313.3592C2075.9126,-304.0871 2096.3644,-289.6524 2114,-277 2149.1501,-251.782 2189.7775,-222.1307 2213.8783,-204.4879"/>
<polygon fill="#191970" stroke="#191970" points="2215.9699,-207.2944 2221.9691,-198.5616 2211.8335,-201.6472 2215.9699,-207.2944"/>
</g>
<!-- Node84&#45;&gt;Node8 -->
<g id="edge125" class="edge">
<title>Node84&#45;&gt;Node8</title>
<path fill="none" stroke="#191970" d="M1303.1549,-604.3699C1277.6983,-576.8393 1204.1533,-498.6472 1174,-481 1135.7168,-458.5948 1085.557,-446.2312 1053.2988,-440.1068"/>
<polygon fill="#191970" stroke="#191970" points="1053.5511,-436.5959 1043.0884,-438.2636 1052.3075,-443.4845 1053.5511,-436.5959"/>
</g>
<!-- Node84&#45;&gt;Node29 -->
<g id="edge127" class="edge">
<title>Node84&#45;&gt;Node29</title>
<path fill="none" stroke="#191970" d="M1307.6451,-604.3762C1294.7895,-575.9669 1256.8307,-492.0828 1239.6372,-454.0871"/>
<polygon fill="#191970" stroke="#191970" points="1242.6879,-452.3391 1235.3764,-444.6714 1236.3105,-455.225 1242.6879,-452.3391"/>
</g>
<!-- Node84&#45;&gt;Node32 -->
<g id="edge128" class="edge">
<title>Node84&#45;&gt;Node32</title>
<path fill="none" stroke="#191970" d="M1278.1783,-609.4819C1230.3845,-602.6909 1140.5903,-588.4336 1066,-568 1001.0278,-550.2012 927.6579,-521.3595 886.8121,-504.4844"/>
<polygon fill="#191970" stroke="#191970" points="887.9722,-501.1762 877.3949,-500.5671 885.2838,-507.6394 887.9722,-501.1762"/>
</g>
<!-- Node84&#45;&gt;Node34 -->
<g id="edge130" class="edge">
<title>Node84&#45;&gt;Node34</title>
<path fill="none" stroke="#191970" d="M1345.5929,-610.0674C1401.9851,-603.2128 1519.1292,-587.8888 1617,-568 1675.6811,-556.0751 1829.0321,-535.4648 1878,-501 1880.6334,-499.1466 1981.0335,-349.813 2024.3908,-285.2273"/>
<polygon fill="#191970" stroke="#191970" points="2027.4469,-286.9543 2030.114,-276.7006 2021.6348,-283.0531 2027.4469,-286.9543"/>
</g>
<!-- Node84&#45;&gt;Node76 -->
<g id="edge129" class="edge">
<title>Node84&#45;&gt;Node76</title>
<path fill="none" stroke="#191970" d="M1345.5251,-606.3353C1396.2276,-594.7435 1492.0449,-572.8373 1544.4678,-560.8522"/>
<polygon fill="#191970" stroke="#191970" points="1545.3792,-564.2342 1554.3475,-558.5934 1543.819,-557.4103 1545.3792,-564.2342"/>
</g>
<!-- Node84&#45;&gt;Node77 -->
<g id="edge126" class="edge">
<title>Node84&#45;&gt;Node77</title>
<path fill="none" stroke="#191970" d="M1313.4124,-604.3484C1316.3567,-584.2295 1323.2009,-537.4608 1327.1156,-510.7098"/>
<polygon fill="#191970" stroke="#191970" points="1330.6092,-511.0082 1328.5941,-500.6068 1323.6829,-509.9946 1330.6092,-511.0082"/>
</g>
<!-- Node85&#45;&gt;Node11 -->
<g id="edge132" class="edge">
<title>Node85&#45;&gt;Node11</title>
<path fill="none" stroke="#191970" d="M1590.1808,-604.1227C1617.7625,-573.374 1698,-475.62 1698,-379 1698,-379 1698,-379 1698,-323 1698,-281.2804 1683.981,-233.981 1675.1096,-208.2261"/>
<polygon fill="#191970" stroke="#191970" points="1678.3292,-206.8338 1671.6786,-198.5864 1671.7345,-209.1811 1678.3292,-206.8338"/>
</g>
<!-- Node85&#45;&gt;Node76 -->
<g id="edge134" class="edge">
<title>Node85&#45;&gt;Node76</title>
<path fill="none" stroke="#191970" d="M1581,-604.3906C1581,-595.8657 1581,-583.1392 1581,-572.4235"/>
<polygon fill="#191970" stroke="#191970" points="1584.5001,-572.2448 1581,-562.2449 1577.5001,-572.2449 1584.5001,-572.2448"/>
</g>
<!-- Node85&#45;&gt;Node77 -->
<g id="edge133" class="edge">
<title>Node85&#45;&gt;Node77</title>
<path fill="none" stroke="#191970" d="M1545.7955,-606.2065C1515.6477,-598.7529 1471.5961,-585.9795 1436,-568 1402.7795,-551.2204 1368.7217,-524.434 1348.4684,-507.2876"/>
<polygon fill="#191970" stroke="#191970" points="1350.5404,-504.4533 1340.6763,-500.5867 1345.9762,-509.7607 1350.5404,-504.4533"/>
</g>
<!-- Node86&#45;&gt;Node2 -->
<g id="edge137" class="edge">
<title>Node86&#45;&gt;Node2</title>
<path fill="none" stroke="#191970" d="M265.0144,-484.1333C298.433,-474.9596 358.2109,-458.55 399.4289,-447.2352"/>
<polygon fill="#191970" stroke="#191970" points="400.5041,-450.5696 409.2208,-444.5472 398.651,-443.8193 400.5041,-450.5696"/>
</g>
<!-- Node86&#45;&gt;Node5 -->
<g id="edge136" class="edge">
<title>Node86&#45;&gt;Node5</title>
<path fill="none" stroke="#191970" d="M241.1462,-481.4281C243.3583,-462.0998 248,-417.0133 248,-379 248,-379 248,-379 248,-323 248,-244.2767 357.2862,-208.3229 412.2294,-195.2217"/>
<polygon fill="#191970" stroke="#191970" points="413.1577,-198.6 422.1316,-192.968 411.6042,-191.7745 413.1577,-198.6"/>
</g>
<!-- Node87 -->
<g id="node49" class="node">
<title>Node87</title>
<polygon fill="#ffffff" stroke="#bfbfbf" points="0,-425.5 0,-444.5 106,-444.5 106,-425.5 0,-425.5"/>
<text text-anchor="middle" x="53" y="-432.5" font-family="Helvetica,sans-Serif" font-size="10.00" fill="#000000">opencv2/videoio.hpp</text>
</g>
<!-- Node86&#45;&gt;Node87 -->
<g id="edge138" class="edge">
<title>Node86&#45;&gt;Node87</title>
<path fill="none" stroke="#191970" d="M214.7803,-483.4476C184.0709,-474.2512 131.7539,-458.5841 94.9452,-447.5611"/>
<polygon fill="#191970" stroke="#191970" points="95.5891,-444.1004 85.0053,-444.5845 93.5809,-450.8062 95.5891,-444.1004"/>
</g>
<!-- Node88 -->
<g id="node50" class="node">
<title>Node88</title>
<polygon fill="#ffffff" stroke="#bfbfbf" points="124.5,-425.5 124.5,-444.5 219.5,-444.5 219.5,-425.5 124.5,-425.5"/>
<text text-anchor="middle" x="172" y="-432.5" font-family="Helvetica,sans-Serif" font-size="10.00" fill="#000000">condition_variable</text>
</g>
<!-- Node86&#45;&gt;Node88 -->
<g id="edge139" class="edge">
<title>Node86&#45;&gt;Node88</title>
<path fill="none" stroke="#191970" d="M228.1553,-481.2455C218.112,-472.9746 203.5005,-460.9416 191.6996,-451.2232"/>
<polygon fill="#191970" stroke="#191970" points="193.6533,-448.298 183.709,-444.6427 189.2033,-453.7015 193.6533,-448.298"/>
</g>
</g>
</svg>
