<?xml version="1.0" encoding="UTF-8" standalone="no"?>
<!DOCTYPE svg PUBLIC "-//W3C//DTD SVG 1.1//EN"
 "http://www.w3.org/Graphics/SVG/1.1/DTD/svg11.dtd">
<!-- Generated by graphviz version 2.40.1 (20161225.0304)
 -->
<!-- Title: /home/alejandro/Desarrollo eclipse/os1/include/Tracking.h Pages: 1 -->
<svg width="1154pt" height="240pt"
 viewBox="0.00 0.00 1153.50 240.00" xmlns="http://www.w3.org/2000/svg" xmlns:xlink="http://www.w3.org/1999/xlink">
<g id="graph0" class="graph" transform="scale(1 1) rotate(0) translate(4 236)">
<title>/home/alejandro/Desarrollo eclipse/os1/include/Tracking.h</title>
<polygon fill="#ffffff" stroke="transparent" points="-4,4 -4,-236 1149.5,-236 1149.5,4 -4,4"/>
<!-- Node80 -->
<g id="node1" class="node">
<title>Node80</title>
<polygon fill="#bfbfbf" stroke="#000000" points="449,-201.5 449,-231.5 601,-231.5 601,-201.5 449,-201.5"/>
<text text-anchor="start" x="457" y="-219.5" font-family="Helvetica,sans-Serif" font-size="10.00" fill="#000000">/home/alejandro/Desarrollo</text>
<text text-anchor="middle" x="525" y="-208.5" font-family="Helvetica,sans-Serif" font-size="10.00" fill="#000000"> eclipse/os1/include/Tracking.h</text>
</g>
<!-- Node81 -->
<g id="node2" class="node">
<title>Node81</title>
<g id="a_node2"><a xlink:href="_loop_closing_8h.html" target="_top" xlink:title="/home/alejandro/Desarrollo\l eclipse/os1/include/LoopClosing.h">
<polygon fill="#ffffff" stroke="#000000" points="338,-134.5 338,-164.5 506,-164.5 506,-134.5 338,-134.5"/>
<text text-anchor="start" x="346" y="-152.5" font-family="Helvetica,sans-Serif" font-size="10.00" fill="#000000">/home/alejandro/Desarrollo</text>
<text text-anchor="middle" x="422" y="-141.5" font-family="Helvetica,sans-Serif" font-size="10.00" fill="#000000"> eclipse/os1/include/LoopClosing.h</text>
</a>
</g>
</g>
<!-- Node80&#45;&gt;Node81 -->
<g id="edge1" class="edge">
<title>Node80&#45;&gt;Node81</title>
<path fill="none" stroke="#191970" d="M487.3316,-196.0761C471.0284,-185.9774 452.782,-173.9983 439.6319,-164.7177"/>
<polygon fill="#191970" stroke="#191970" points="485.7868,-199.2339 496.1443,-201.4639 489.4381,-193.2616 485.7868,-199.2339"/>
</g>
<!-- Node82 -->
<g id="node3" class="node">
<title>Node82</title>
<g id="a_node3"><a xlink:href="_local_mapping_8h.html" target="_top" xlink:title="/home/alejandro/Desarrollo\l eclipse/os1/include/LocalMapping.h">
<polygon fill="#ffffff" stroke="#000000" points="135,-67.5 135,-97.5 309,-97.5 309,-67.5 135,-67.5"/>
<text text-anchor="start" x="143" y="-85.5" font-family="Helvetica,sans-Serif" font-size="10.00" fill="#000000">/home/alejandro/Desarrollo</text>
<text text-anchor="middle" x="222" y="-74.5" font-family="Helvetica,sans-Serif" font-size="10.00" fill="#000000"> eclipse/os1/include/LocalMapping.h</text>
</a>
</g>
</g>
<!-- Node80&#45;&gt;Node82 -->
<g id="edge17" class="edge">
<title>Node80&#45;&gt;Node82</title>
<path fill="none" stroke="#191970" d="M438.9702,-203.5085C401.0874,-195.4861 356.9547,-183.166 320,-165 283.7923,-147.2012 247.9372,-116.0777 231.0353,-97.5693"/>
<polygon fill="#191970" stroke="#191970" points="438.4676,-206.9782 448.9668,-205.5573 439.8732,-200.1207 438.4676,-206.9782"/>
</g>
<!-- Node84 -->
<g id="node5" class="node">
<title>Node84</title>
<g id="a_node5"><a xlink:href="_system_8cc.html" target="_top" xlink:title="/home/alejandro/Desarrollo\l eclipse/os1/src/System.cc">
<polygon fill="#ffffff" stroke="#000000" points="0,-.5 0,-30.5 136,-30.5 136,-.5 0,-.5"/>
<text text-anchor="start" x="8" y="-18.5" font-family="Helvetica,sans-Serif" font-size="10.00" fill="#000000">/home/alejandro/Desarrollo</text>
<text text-anchor="middle" x="68" y="-7.5" font-family="Helvetica,sans-Serif" font-size="10.00" fill="#000000"> eclipse/os1/src/System.cc</text>
</a>
</g>
</g>
<!-- Node80&#45;&gt;Node84 -->
<g id="edge23" class="edge">
<title>Node80&#45;&gt;Node84</title>
<path fill="none" stroke="#191970" d="M438.7386,-210.1497C351.2644,-199.65 216.2692,-171.8065 126,-98 102.9576,-79.1599 84.9416,-48.9611 75.4375,-30.7974"/>
<polygon fill="#191970" stroke="#191970" points="438.5656,-213.6528 448.8998,-211.3171 439.3646,-206.6985 438.5656,-213.6528"/>
</g>
<!-- Node89 -->
<g id="node10" class="node">
<title>Node89</title>
<g id="a_node10"><a xlink:href="_tracking_8cc.html" target="_top" xlink:title="/home/alejandro/Desarrollo\l eclipse/os1/src/Tracking.cc">
<polygon fill="#ffffff" stroke="#000000" points="830,-.5 830,-30.5 970,-30.5 970,-.5 830,-.5"/>
<text text-anchor="start" x="838" y="-18.5" font-family="Helvetica,sans-Serif" font-size="10.00" fill="#000000">/home/alejandro/Desarrollo</text>
<text text-anchor="middle" x="900" y="-7.5" font-family="Helvetica,sans-Serif" font-size="10.00" fill="#000000"> eclipse/os1/src/Tracking.cc</text>
</a>
</g>
</g>
<!-- Node80&#45;&gt;Node89 -->
<g id="edge24" class="edge">
<title>Node80&#45;&gt;Node89</title>
<path fill="none" stroke="#191970" d="M537.2564,-192.1185C555.5981,-158.304 593.5031,-97.8568 644,-67 646.0219,-65.7645 754.6697,-44.1618 829.7587,-29.3318"/>
<polygon fill="#191970" stroke="#191970" points="533.9823,-190.8231 532.4034,-201.2997 540.1709,-194.0944 533.9823,-190.8231"/>
</g>
<!-- Node90 -->
<g id="node11" class="node">
<title>Node90</title>
<g id="a_node11"><a xlink:href="_osmap_8h.html" target="_top" xlink:title="/home/alejandro/Desarrollo\l eclipse/os1/include/Osmap.h">
<polygon fill="#ffffff" stroke="#000000" points="669,-134.5 669,-164.5 815,-164.5 815,-134.5 669,-134.5"/>
<text text-anchor="start" x="677" y="-152.5" font-family="Helvetica,sans-Serif" font-size="10.00" fill="#000000">/home/alejandro/Desarrollo</text>
<text text-anchor="middle" x="742" y="-141.5" font-family="Helvetica,sans-Serif" font-size="10.00" fill="#000000"> eclipse/os1/include/Osmap.h</text>
</a>
</g>
</g>
<!-- Node80&#45;&gt;Node90 -->
<g id="edge18" class="edge">
<title>Node80&#45;&gt;Node90</title>
<path fill="none" stroke="#191970" d="M583.5825,-198.4123C617.8571,-187.8298 660.6299,-174.6235 693.0886,-164.6017"/>
<polygon fill="#191970" stroke="#191970" points="582.2214,-195.1695 573.699,-201.4639 584.2865,-201.8579 582.2214,-195.1695"/>
</g>
<!-- Node91 -->
<g id="node12" class="node">
<title>Node91</title>
<g id="a_node12"><a xlink:href="main_8cc.html" target="_top" xlink:title="/home/alejandro/Desarrollo\l eclipse/os1/src/main.cc">
<polygon fill="#ffffff" stroke="#000000" points="653.5,-67.5 653.5,-97.5 786.5,-97.5 786.5,-67.5 653.5,-67.5"/>
<text text-anchor="start" x="661.5" y="-85.5" font-family="Helvetica,sans-Serif" font-size="10.00" fill="#000000">/home/alejandro/Desarrollo</text>
<text text-anchor="middle" x="720" y="-74.5" font-family="Helvetica,sans-Serif" font-size="10.00" fill="#000000"> eclipse/os1/src/main.cc</text>
</a>
</g>
</g>
<!-- Node80&#45;&gt;Node91 -->
<g id="edge22" class="edge">
<title>Node80&#45;&gt;Node91</title>
<path fill="none" stroke="#191970" d="M563.7226,-196.6673C580.4827,-187.6173 600.0921,-176.3902 617,-165 648.7325,-143.6231 682.8959,-115.0283 702.8148,-97.7297"/>
<polygon fill="#191970" stroke="#191970" points="561.9162,-193.664 554.7399,-201.4583 565.2104,-199.8404 561.9162,-193.664"/>
</g>
<!-- Node93 -->
<g id="node14" class="node">
<title>Node93</title>
<g id="a_node14"><a xlink:href="_frame_drawer_8cc.html" target="_top" xlink:title="/home/alejandro/Desarrollo\l eclipse/os1/src/FrameDrawer.cc">
<polygon fill="#ffffff" stroke="#000000" points="833.5,-134.5 833.5,-164.5 994.5,-164.5 994.5,-134.5 833.5,-134.5"/>
<text text-anchor="start" x="841.5" y="-152.5" font-family="Helvetica,sans-Serif" font-size="10.00" fill="#000000">/home/alejandro/Desarrollo</text>
<text text-anchor="middle" x="914" y="-141.5" font-family="Helvetica,sans-Serif" font-size="10.00" fill="#000000"> eclipse/os1/src/FrameDrawer.cc</text>
</a>
</g>
</g>
<!-- Node80&#45;&gt;Node93 -->
<g id="edge21" class="edge">
<title>Node80&#45;&gt;Node93</title>
<path fill="none" stroke="#191970" d="M611.4022,-201.6184C677.7226,-190.1956 768.6143,-174.5407 833.4326,-163.3766"/>
<polygon fill="#191970" stroke="#191970" points="610.6505,-198.1962 601.3897,-203.3429 611.8387,-205.0947 610.6505,-198.1962"/>
</g>
<!-- Node94 -->
<g id="node15" class="node">
<title>Node94</title>
<g id="a_node15"><a xlink:href="_viewer_8cc.html" target="_top" xlink:title="/home/alejandro/Desarrollo\l eclipse/os1/src/Viewer.cc">
<polygon fill="#ffffff" stroke="#000000" points="1012.5,-134.5 1012.5,-164.5 1145.5,-164.5 1145.5,-134.5 1012.5,-134.5"/>
<text text-anchor="start" x="1020.5" y="-152.5" font-family="Helvetica,sans-Serif" font-size="10.00" fill="#000000">/home/alejandro/Desarrollo</text>
<text text-anchor="middle" x="1079" y="-141.5" font-family="Helvetica,sans-Serif" font-size="10.00" fill="#000000"> eclipse/os1/src/Viewer.cc</text>
</a>
</g>
</g>
<!-- Node80&#45;&gt;Node94 -->
<g id="edge25" class="edge">
<title>Node80&#45;&gt;Node94</title>
<path fill="none" stroke="#191970" d="M611.4625,-209.7374C707.6402,-201.6268 867.4701,-186.3963 1004,-165 1006.7585,-164.5677 1009.5691,-164.102 1012.4047,-163.6114"/>
<polygon fill="#191970" stroke="#191970" points="610.8801,-206.2738 601.2068,-210.5956 611.4639,-213.2495 610.8801,-206.2738"/>
</g>
<!-- Node81&#45;&gt;Node80 -->
<g id="edge7" class="edge">
<title>Node81&#45;&gt;Node80</title>
<path fill="none" stroke="#191970" d="M459.8316,-170.025C476.1017,-180.1076 494.2807,-192.045 507.3885,-201.2967"/>
<polygon fill="#191970" stroke="#191970" points="461.3903,-166.8756 451.0334,-164.6432 457.7376,-172.8471 461.3903,-166.8756"/>
</g>
<!-- Node81&#45;&gt;Node82 -->
<g id="edge2" class="edge">
<title>Node81&#45;&gt;Node82</title>
<path fill="none" stroke="#191970" d="M361.5168,-131.2759C329.0066,-120.7165 289.9061,-107.5805 261.3311,-97.6017"/>
<polygon fill="#191970" stroke="#191970" points="360.7838,-134.7173 371.3756,-134.4639 362.9376,-128.0568 360.7838,-134.7173"/>
</g>
<!-- Node83 -->
<g id="node4" class="node">
<title>Node83</title>
<g id="a_node4"><a xlink:href="_local_mapping_8cc.html" target="_top" xlink:title="/home/alejandro/Desarrollo\l eclipse/os1/src/LocalMapping.cc">
<polygon fill="#ffffff" stroke="#000000" points="154,-.5 154,-30.5 316,-30.5 316,-.5 154,-.5"/>
<text text-anchor="start" x="162" y="-18.5" font-family="Helvetica,sans-Serif" font-size="10.00" fill="#000000">/home/alejandro/Desarrollo</text>
<text text-anchor="middle" x="235" y="-7.5" font-family="Helvetica,sans-Serif" font-size="10.00" fill="#000000"> eclipse/os1/src/LocalMapping.cc</text>
</a>
</g>
</g>
<!-- Node81&#45;&gt;Node83 -->
<g id="edge14" class="edge">
<title>Node81&#45;&gt;Node83</title>
<path fill="none" stroke="#191970" d="M406.2304,-126.0423C393.1503,-108.0053 373.1599,-83.4646 351,-67 329.9526,-51.362 303.4075,-39.1343 281.0237,-30.5255"/>
<polygon fill="#191970" stroke="#191970" points="403.4451,-128.1655 412.0758,-134.3105 409.1609,-124.1245 403.4451,-128.1655"/>
</g>
<!-- Node81&#45;&gt;Node84 -->
<g id="edge16" class="edge">
<title>Node81&#45;&gt;Node84</title>
<path fill="none" stroke="#191970" d="M391.2638,-128.4894C378.5288,-119.4575 363.7776,-108.5641 351,-98 335.491,-85.1777 335.8615,-76.2685 318,-67 315.9411,-65.9316 209.5504,-44.2139 136.2372,-29.3259"/>
<polygon fill="#191970" stroke="#191970" points="389.5135,-131.537 399.7091,-134.4179 393.5354,-125.8077 389.5135,-131.537"/>
</g>
<!-- Node85 -->
<g id="node6" class="node">
<title>Node85</title>
<g id="a_node6"><a xlink:href="_optimizer_8h.html" target="_top" xlink:title="/home/alejandro/Desarrollo\l eclipse/os1/include/Optimizer.h">
<polygon fill="#ffffff" stroke="#000000" points="403,-67.5 403,-97.5 559,-97.5 559,-67.5 403,-67.5"/>
<text text-anchor="start" x="411" y="-85.5" font-family="Helvetica,sans-Serif" font-size="10.00" fill="#000000">/home/alejandro/Desarrollo</text>
<text text-anchor="middle" x="481" y="-74.5" font-family="Helvetica,sans-Serif" font-size="10.00" fill="#000000"> eclipse/os1/include/Optimizer.h</text>
</a>
</g>
</g>
<!-- Node81&#45;&gt;Node85 -->
<g id="edge8" class="edge">
<title>Node81&#45;&gt;Node85</title>
<path fill="none" stroke="#191970" d="M442.1318,-126.6385C450.5619,-117.0653 460.131,-106.1987 467.665,-97.6432"/>
<polygon fill="#191970" stroke="#191970" points="439.3701,-124.4786 435.388,-134.2967 444.6236,-129.1048 439.3701,-124.4786"/>
</g>
<!-- Node87 -->
<g id="node8" class="node">
<title>Node87</title>
<g id="a_node8"><a xlink:href="_loop_closing_8cc.html" target="_top" xlink:title="/home/alejandro/Desarrollo\l eclipse/os1/src/LoopClosing.cc">
<polygon fill="#ffffff" stroke="#000000" points="656,-.5 656,-30.5 812,-30.5 812,-.5 656,-.5"/>
<text text-anchor="start" x="664" y="-18.5" font-family="Helvetica,sans-Serif" font-size="10.00" fill="#000000">/home/alejandro/Desarrollo</text>
<text text-anchor="middle" x="734" y="-7.5" font-family="Helvetica,sans-Serif" font-size="10.00" fill="#000000"> eclipse/os1/src/LoopClosing.cc</text>
</a>
</g>
</g>
<!-- Node81&#45;&gt;Node87 -->
<g id="edge15" class="edge">
<title>Node81&#45;&gt;Node87</title>
<path fill="none" stroke="#191970" d="M486.0482,-131.2955C512.1735,-122.7582 542.2345,-111.4752 568,-98 588.8769,-87.0814 590.445,-78.5132 611,-67 636.6513,-52.6322 667.1231,-39.8454 691.3195,-30.6069"/>
<polygon fill="#191970" stroke="#191970" points="484.7031,-128.051 476.2453,-134.4319 486.8363,-134.7181 484.7031,-128.051"/>
</g>
<!-- Node82&#45;&gt;Node80 -->
<g id="edge4" class="edge">
<title>Node82&#45;&gt;Node80</title>
<path fill="none" stroke="#191970" d="M251.3803,-104.0611C273.7847,-122.7266 305.7525,-149.1479 338,-165 372.7316,-182.0732 413.8034,-193.9826 448.6404,-202.0137"/>
<polygon fill="#191970" stroke="#191970" points="253.5021,-101.2735 243.5759,-97.5693 249.0256,-106.6551 253.5021,-101.2735"/>
</g>
<!-- Node82&#45;&gt;Node81 -->
<g id="edge3" class="edge">
<title>Node82&#45;&gt;Node81</title>
<path fill="none" stroke="#191970" d="M282.6971,-100.7936C315.2361,-111.3642 354.3279,-124.499 382.8566,-134.4639"/>
<polygon fill="#191970" stroke="#191970" points="283.42,-97.3489 272.8282,-97.6017 281.2658,-104.0092 283.42,-97.3489"/>
</g>
<!-- Node82&#45;&gt;Node83 -->
<g id="edge5" class="edge">
<title>Node82&#45;&gt;Node83</title>
<path fill="none" stroke="#191970" d="M226.8861,-57.3179C228.6278,-48.3414 230.5345,-38.5143 232.0618,-30.6432"/>
<polygon fill="#191970" stroke="#191970" points="223.4188,-56.813 224.9499,-67.2967 230.2907,-58.1464 223.4188,-56.813"/>
</g>
<!-- Node82&#45;&gt;Node84 -->
<g id="edge6" class="edge">
<title>Node82&#45;&gt;Node84</title>
<path fill="none" stroke="#191970" d="M178.2171,-63.4516C154.2841,-53.0392 125.0545,-40.3224 102.7113,-30.6017"/>
<polygon fill="#191970" stroke="#191970" points="176.8733,-66.6838 187.4394,-67.4639 179.666,-60.265 176.8733,-66.6838"/>
</g>
<!-- Node85&#45;&gt;Node83 -->
<g id="edge10" class="edge">
<title>Node85&#45;&gt;Node83</title>
<path fill="none" stroke="#191970" d="M416.0845,-64.8198C376.984,-54.1704 327.7183,-40.7525 290.448,-30.6017"/>
<polygon fill="#191970" stroke="#191970" points="415.2245,-68.213 425.7928,-67.4639 417.064,-61.459 415.2245,-68.213"/>
</g>
<!-- Node86 -->
<g id="node7" class="node">
<title>Node86</title>
<g id="a_node7"><a xlink:href="_initializer_8cc.html" target="_top" xlink:title="/home/alejandro/Desarrollo\l eclipse/os1/src/Initializer.cc">
<polygon fill="#ffffff" stroke="#000000" points="334.5,-.5 334.5,-30.5 475.5,-30.5 475.5,-.5 334.5,-.5"/>
<text text-anchor="start" x="342.5" y="-18.5" font-family="Helvetica,sans-Serif" font-size="10.00" fill="#000000">/home/alejandro/Desarrollo</text>
<text text-anchor="middle" x="405" y="-7.5" font-family="Helvetica,sans-Serif" font-size="10.00" fill="#000000"> eclipse/os1/src/Initializer.cc</text>
</a>
</g>
</g>
<!-- Node85&#45;&gt;Node86 -->
<g id="edge9" class="edge">
<title>Node85&#45;&gt;Node86</title>
<path fill="none" stroke="#191970" d="M456.0408,-60.4965C444.9503,-50.7193 432.1733,-39.4554 422.1773,-30.6432"/>
<polygon fill="#191970" stroke="#191970" points="453.9386,-63.3091 463.7544,-67.2967 458.5677,-58.0582 453.9386,-63.3091"/>
</g>
<!-- Node85&#45;&gt;Node87 -->
<g id="edge11" class="edge">
<title>Node85&#45;&gt;Node87</title>
<path fill="none" stroke="#191970" d="M547.5073,-64.8874C587.7611,-54.2273 638.5622,-40.774 676.9742,-30.6017"/>
<polygon fill="#191970" stroke="#191970" points="546.5489,-61.5205 537.7781,-67.4639 548.3409,-68.2872 546.5489,-61.5205"/>
</g>
<!-- Node88 -->
<g id="node9" class="node">
<title>Node88</title>
<g id="a_node9"><a xlink:href="_optimizer_8cc.html" target="_top" xlink:title="/home/alejandro/Desarrollo\l eclipse/os1/src/Optimizer.cc">
<polygon fill="#ffffff" stroke="#000000" points="494,-.5 494,-30.5 638,-30.5 638,-.5 494,-.5"/>
<text text-anchor="start" x="502" y="-18.5" font-family="Helvetica,sans-Serif" font-size="10.00" fill="#000000">/home/alejandro/Desarrollo</text>
<text text-anchor="middle" x="566" y="-7.5" font-family="Helvetica,sans-Serif" font-size="10.00" fill="#000000"> eclipse/os1/src/Optimizer.cc</text>
</a>
</g>
</g>
<!-- Node85&#45;&gt;Node88 -->
<g id="edge12" class="edge">
<title>Node85&#45;&gt;Node88</title>
<path fill="none" stroke="#191970" d="M508.1945,-61.0643C520.7626,-51.1577 535.3917,-39.6265 546.7885,-30.6432"/>
<polygon fill="#191970" stroke="#191970" points="505.9747,-58.3574 500.2878,-67.2967 510.3081,-63.8549 505.9747,-58.3574"/>
</g>
<!-- Node85&#45;&gt;Node89 -->
<g id="edge13" class="edge">
<title>Node85&#45;&gt;Node89</title>
<path fill="none" stroke="#191970" d="M569.0672,-70.2309C637.8085,-60.3957 735.6446,-45.8307 821,-31 823.8918,-30.4975 826.8408,-29.9732 829.818,-29.434"/>
<polygon fill="#191970" stroke="#191970" points="568.5464,-66.7697 559.1411,-71.6471 569.5352,-73.6995 568.5464,-66.7697"/>
</g>
<!-- Node90&#45;&gt;Node91 -->
<g id="edge19" class="edge">
<title>Node90&#45;&gt;Node91</title>
<path fill="none" stroke="#191970" d="M733.8273,-124.6103C730.854,-115.5553 727.585,-105.5998 724.9724,-97.6432"/>
<polygon fill="#191970" stroke="#191970" points="730.5628,-125.8877 737.0079,-134.2967 737.2134,-123.7038 730.5628,-125.8877"/>
</g>
<!-- Node92 -->
<g id="node13" class="node">
<title>Node92</title>
<g id="a_node13"><a xlink:href="_osmap_8cpp.html" target="_top" xlink:title="/home/alejandro/Desarrollo\l eclipse/os1/src/Osmap.cpp">
<polygon fill="#ffffff" stroke="#000000" points="804.5,-67.5 804.5,-97.5 943.5,-97.5 943.5,-67.5 804.5,-67.5"/>
<text text-anchor="start" x="812.5" y="-85.5" font-family="Helvetica,sans-Serif" font-size="10.00" fill="#000000">/home/alejandro/Desarrollo</text>
<text text-anchor="middle" x="874" y="-74.5" font-family="Helvetica,sans-Serif" font-size="10.00" fill="#000000"> eclipse/os1/src/Osmap.cpp</text>
</a>
</g>
</g>
<!-- Node90&#45;&gt;Node92 -->
<g id="edge20" class="edge">
<title>Node90&#45;&gt;Node92</title>
<path fill="none" stroke="#191970" d="M780.589,-129.9132C800.8187,-119.645 825.2267,-107.2561 844.0188,-97.7177"/>
<polygon fill="#191970" stroke="#191970" points="778.9563,-126.8168 771.6234,-134.4639 782.1246,-133.0587 778.9563,-126.8168"/>
</g>
</g>
</svg>
