<?xml version="1.0" encoding="UTF-8" standalone="no"?>
<!DOCTYPE svg PUBLIC "-//W3C//DTD SVG 1.1//EN"
 "http://www.w3.org/Graphics/SVG/1.1/DTD/svg11.dtd">
<!-- Generated by graphviz version 2.40.1 (20161225.0304)
 -->
<!-- Title: /home/alejandro/Desarrollo eclipse/os1/src/Viewer.cc Pages: 1 -->
<svg width="1530pt" height="643pt"
 viewBox="0.00 0.00 1530.41 643.00" xmlns="http://www.w3.org/2000/svg" xmlns:xlink="http://www.w3.org/1999/xlink">
<g id="graph0" class="graph" transform="scale(1 1) rotate(0) translate(4 639)">
<title>/home/alejandro/Desarrollo eclipse/os1/src/Viewer.cc</title>
<polygon fill="#ffffff" stroke="transparent" points="-4,4 -4,-639 1526.4129,-639 1526.4129,4 -4,4"/>
<!-- Node0 -->
<g id="node1" class="node">
<title>Node0</title>
<polygon fill="#bfbfbf" stroke="#000000" points="844.9129,-604.5 844.9129,-634.5 977.9129,-634.5 977.9129,-604.5 844.9129,-604.5"/>
<text text-anchor="start" x="852.9129" y="-622.5" font-family="Helvetica,sans-Serif" font-size="10.00" fill="#000000">/home/alejandro/Desarrollo</text>
<text text-anchor="middle" x="911.4129" y="-611.5" font-family="Helvetica,sans-Serif" font-size="10.00" fill="#000000"> eclipse/os1/src/Viewer.cc</text>
</g>
<!-- Node1 -->
<g id="node2" class="node">
<title>Node1</title>
<g id="a_node2"><a xlink:href="_viewer_8h.html" target="_top" xlink:title="Viewer.h">
<polygon fill="#ffffff" stroke="#000000" points="557.9129,-436.5 557.9129,-455.5 612.9129,-455.5 612.9129,-436.5 557.9129,-436.5"/>
<text text-anchor="middle" x="585.4129" y="-443.5" font-family="Helvetica,sans-Serif" font-size="10.00" fill="#000000">Viewer.h</text>
</a>
</g>
</g>
<!-- Node0&#45;&gt;Node1 -->
<g id="edge1" class="edge">
<title>Node0&#45;&gt;Node1</title>
<path fill="none" stroke="#191970" d="M844.756,-605.009C762.6506,-585.8012 630.0102,-549.894 597.4129,-512 586.6257,-499.4601 584.1144,-480.519 584.0164,-466.1396"/>
<polygon fill="#191970" stroke="#191970" points="587.5256,-465.9005 584.3431,-455.7949 580.5291,-465.6794 587.5256,-465.9005"/>
</g>
<!-- Node3 -->
<g id="node4" class="node">
<title>Node3</title>
<polygon fill="#ffffff" stroke="#bfbfbf" points="769.4129,-241 769.4129,-260 813.4129,-260 813.4129,-241 769.4129,-241"/>
<text text-anchor="middle" x="791.4129" y="-248" font-family="Helvetica,sans-Serif" font-size="10.00" fill="#000000">mutex</text>
</g>
<!-- Node0&#45;&gt;Node3 -->
<g id="edge129" class="edge">
<title>Node0&#45;&gt;Node3</title>
<path fill="none" stroke="#191970" d="M978.2243,-613.5804C1094.443,-600.014 1316.7829,-557.8316 1265.4129,-436 1256.6654,-415.254 1134.0632,-310.9708 1113.4129,-302 1061.5535,-279.4715 894.587,-260.7457 823.7121,-253.6039"/>
<polygon fill="#191970" stroke="#191970" points="823.8826,-250.1037 813.5853,-252.5967 823.1898,-257.0693 823.8826,-250.1037"/>
</g>
<!-- Node4 -->
<g id="node5" class="node">
<title>Node4</title>
<g id="a_node5"><a xlink:href="_frame_drawer_8h.html" target="_top" xlink:title="FrameDrawer.h">
<polygon fill="#ffffff" stroke="#000000" points="1152.4129,-492.5 1152.4129,-511.5 1236.4129,-511.5 1236.4129,-492.5 1152.4129,-492.5"/>
<text text-anchor="middle" x="1194.4129" y="-499.5" font-family="Helvetica,sans-Serif" font-size="10.00" fill="#000000">FrameDrawer.h</text>
</a>
</g>
</g>
<!-- Node0&#45;&gt;Node4 -->
<g id="edge4" class="edge">
<title>Node0&#45;&gt;Node4</title>
<path fill="none" stroke="#191970" d="M947.5425,-604.4992C1003.093,-581.4349 1108.6289,-537.617 1161.909,-515.4954"/>
<polygon fill="#191970" stroke="#191970" points="1163.3321,-518.6943 1171.2256,-511.6272 1160.6479,-512.2294 1163.3321,-518.6943"/>
</g>
<!-- Node6 -->
<g id="node7" class="node">
<title>Node6</title>
<g id="a_node7"><a xlink:href="_map_drawer_8h.html" target="_top" xlink:title="MapDrawer.h">
<polygon fill="#ffffff" stroke="#000000" points="451.9129,-492.5 451.9129,-511.5 526.9129,-511.5 526.9129,-492.5 451.9129,-492.5"/>
<text text-anchor="middle" x="489.4129" y="-499.5" font-family="Helvetica,sans-Serif" font-size="10.00" fill="#000000">MapDrawer.h</text>
</a>
</g>
</g>
<!-- Node0&#45;&gt;Node6 -->
<g id="edge7" class="edge">
<title>Node0&#45;&gt;Node6</title>
<path fill="none" stroke="#191970" d="M844.793,-616.1654C752.5954,-610.5559 591.7601,-596.8868 541.4129,-568 522.3151,-557.0426 507.6607,-536.0627 498.8491,-520.688"/>
<polygon fill="#191970" stroke="#191970" points="501.7475,-518.6895 493.9143,-511.5556 495.5891,-522.0173 501.7475,-518.6895"/>
</g>
<!-- Node34 -->
<g id="node34" class="node">
<title>Node34</title>
<polygon fill="#ffffff" stroke="#bfbfbf" points="143.4129,-436.5 143.4129,-455.5 243.4129,-455.5 243.4129,-436.5 143.4129,-436.5"/>
<text text-anchor="middle" x="193.4129" y="-443.5" font-family="Helvetica,sans-Serif" font-size="10.00" fill="#000000">pangolin/pangolin.h</text>
</g>
<!-- Node0&#45;&gt;Node34 -->
<g id="edge127" class="edge">
<title>Node0&#45;&gt;Node34</title>
<path fill="none" stroke="#191970" d="M844.8397,-614.2734C699.301,-601.9395 357.8004,-567.7921 257.4129,-512 236.1876,-500.2037 217.5864,-479.1178 205.9869,-463.9503"/>
<polygon fill="#191970" stroke="#191970" points="208.7472,-461.7961 199.9994,-455.8187 203.1104,-465.9466 208.7472,-461.7961"/>
</g>
<!-- Node35 -->
<g id="node35" class="node">
<title>Node35</title>
<g id="a_node35"><a xlink:href="_tracking_8h.html" target="_top" xlink:title="Tracking.h">
<polygon fill="#ffffff" stroke="#000000" points="788.4129,-548.5 788.4129,-567.5 850.4129,-567.5 850.4129,-548.5 788.4129,-548.5"/>
<text text-anchor="middle" x="819.4129" y="-555.5" font-family="Helvetica,sans-Serif" font-size="10.00" fill="#000000">Tracking.h</text>
</a>
</g>
</g>
<!-- Node0&#45;&gt;Node35 -->
<g id="edge71" class="edge">
<title>Node0&#45;&gt;Node35</title>
<path fill="none" stroke="#191970" d="M888.6713,-604.2977C874.6162,-594.9022 856.6298,-582.8787 842.5093,-573.4395"/>
<polygon fill="#191970" stroke="#191970" points="844.1272,-570.311 833.8685,-567.6633 840.2369,-576.1305 844.1272,-570.311"/>
</g>
<!-- Node80 -->
<g id="node49" class="node">
<title>Node80</title>
<g id="a_node49"><a xlink:href="_system_8h.html" target="_top" xlink:title="System.h">
<polygon fill="#ffffff" stroke="#000000" points="1034.9129,-492.5 1034.9129,-511.5 1093.9129,-511.5 1093.9129,-492.5 1034.9129,-492.5"/>
<text text-anchor="middle" x="1064.4129" y="-499.5" font-family="Helvetica,sans-Serif" font-size="10.00" fill="#000000">System.h</text>
</a>
</g>
</g>
<!-- Node0&#45;&gt;Node80 -->
<g id="edge126" class="edge">
<title>Node0&#45;&gt;Node80</title>
<path fill="none" stroke="#191970" d="M931.1017,-604.3795C960.1909,-582.0397 1014.387,-540.4185 1043.9271,-517.7325"/>
<polygon fill="#191970" stroke="#191970" points="1046.1072,-520.4714 1051.9064,-511.6046 1041.8435,-514.9196 1046.1072,-520.4714"/>
</g>
<!-- Node81 -->
<g id="node50" class="node">
<title>Node81</title>
<polygon fill="#ffffff" stroke="#bfbfbf" points="1335.4129,-548.5 1335.4129,-567.5 1457.4129,-567.5 1457.4129,-548.5 1335.4129,-548.5"/>
<text text-anchor="middle" x="1396.4129" y="-555.5" font-family="Helvetica,sans-Serif" font-size="10.00" fill="#000000">opencv2/imgcodecs.hpp</text>
</g>
<!-- Node0&#45;&gt;Node81 -->
<g id="edge128" class="edge">
<title>Node0&#45;&gt;Node81</title>
<path fill="none" stroke="#191970" d="M978.187,-611.2706C1059.3493,-601.2314 1200.4645,-583.6591 1321.4129,-568 1322.5202,-567.8566 1323.6367,-567.7118 1324.7605,-567.5657"/>
<polygon fill="#191970" stroke="#191970" points="1325.5611,-570.9909 1335.0229,-566.2239 1324.6536,-564.0499 1325.5611,-570.9909"/>
</g>
<!-- Node2 -->
<g id="node3" class="node">
<title>Node2</title>
<polygon fill="#ffffff" stroke="#bfbfbf" points="1034.9129,-56.5 1034.9129,-75.5 1075.9129,-75.5 1075.9129,-56.5 1034.9129,-56.5"/>
<text text-anchor="middle" x="1055.4129" y="-63.5" font-family="Helvetica,sans-Serif" font-size="10.00" fill="#000000">string</text>
</g>
<!-- Node1&#45;&gt;Node2 -->
<g id="edge2" class="edge">
<title>Node1&#45;&gt;Node2</title>
<path fill="none" stroke="#191970" d="M592.0049,-436.2467C603.2675,-419.745 627.1595,-385.4357 649.4129,-358 695.7991,-300.8114 698.2289,-274.4383 760.4129,-235 807.0756,-205.4056 828.0418,-219.3531 879.4129,-199 941.6863,-174.3274 964.8489,-177.057 1014.4129,-132 1028.8702,-118.8573 1040.0929,-99.4585 1047.113,-85.0903"/>
<polygon fill="#191970" stroke="#191970" points="1050.445,-86.2238 1051.4682,-75.6785 1044.0922,-83.2841 1050.445,-86.2238"/>
</g>
<!-- Node1&#45;&gt;Node3 -->
<g id="edge3" class="edge">
<title>Node1&#45;&gt;Node3</title>
<path fill="none" stroke="#191970" d="M601.4552,-436.4474C615.6637,-427.6895 636.6858,-413.9913 653.4129,-400 671.976,-384.473 713.0342,-339.8162 729.4129,-322 745.9585,-304.0022 764.2162,-282.771 776.6059,-268.1455"/>
<polygon fill="#191970" stroke="#191970" points="779.3913,-270.2718 783.1655,-260.372 774.0414,-265.7574 779.3913,-270.2718"/>
</g>
<!-- Node4&#45;&gt;Node3 -->
<g id="edge6" class="edge">
<title>Node4&#45;&gt;Node3</title>
<path fill="none" stroke="#191970" d="M1212.9657,-492.4303C1233.7219,-480.3601 1262.9046,-458.4558 1250.4129,-436 1235.664,-409.4865 1216.6355,-418.2691 1192.4129,-400 1140.6651,-360.9711 1142.6218,-330.5098 1084.4129,-302 1038.828,-279.6732 890.5137,-261.2712 824.0952,-253.9292"/>
<polygon fill="#191970" stroke="#191970" points="824.1162,-250.4109 813.7959,-252.8071 823.3579,-257.3697 824.1162,-250.4109"/>
</g>
<!-- Node5 -->
<g id="node6" class="node">
<title>Node5</title>
<polygon fill="#ffffff" stroke="#bfbfbf" points="1147.4129,-436.5 1147.4129,-455.5 1241.4129,-455.5 1241.4129,-436.5 1147.4129,-436.5"/>
<text text-anchor="middle" x="1194.4129" y="-443.5" font-family="Helvetica,sans-Serif" font-size="10.00" fill="#000000">opencv2/core.hpp</text>
</g>
<!-- Node4&#45;&gt;Node5 -->
<g id="edge5" class="edge">
<title>Node4&#45;&gt;Node5</title>
<path fill="none" stroke="#191970" d="M1194.4129,-492.2455C1194.4129,-484.9382 1194.4129,-474.6944 1194.4129,-465.7046"/>
<polygon fill="#191970" stroke="#191970" points="1197.913,-465.6426 1194.4129,-455.6427 1190.913,-465.6427 1197.913,-465.6426"/>
</g>
<!-- Node6&#45;&gt;Node3 -->
<g id="edge70" class="edge">
<title>Node6&#45;&gt;Node3</title>
<path fill="none" stroke="#191970" d="M497.2805,-492.0749C508.1178,-478.678 528.5595,-454.3723 548.4129,-436 623.8513,-366.1892 724.2135,-295.8451 768.6207,-265.7244"/>
<polygon fill="#191970" stroke="#191970" points="770.6451,-268.5807 776.9756,-260.0851 766.7289,-262.7786 770.6451,-268.5807"/>
</g>
<!-- Node7 -->
<g id="node8" class="node">
<title>Node7</title>
<g id="a_node8"><a xlink:href="_map_8h.html" target="_top" xlink:title="Map.h">
<polygon fill="#ffffff" stroke="#000000" points="705.4129,-369.5 705.4129,-388.5 749.4129,-388.5 749.4129,-369.5 705.4129,-369.5"/>
<text text-anchor="middle" x="727.4129" y="-376.5" font-family="Helvetica,sans-Serif" font-size="10.00" fill="#000000">Map.h</text>
</a>
</g>
</g>
<!-- Node6&#45;&gt;Node7 -->
<g id="edge8" class="edge">
<title>Node6&#45;&gt;Node7</title>
<path fill="none" stroke="#191970" d="M525.8885,-492.4236C553.0758,-484.549 590.6594,-472.0802 621.4129,-456 654.2177,-438.8472 688.1535,-412.3829 708.5236,-395.3792"/>
<polygon fill="#191970" stroke="#191970" points="711.0109,-397.8594 716.3803,-388.7259 706.4871,-392.5175 711.0109,-397.8594"/>
</g>
<!-- Node27 -->
<g id="node27" class="node">
<title>Node27</title>
<g id="a_node27"><a xlink:href="_map_point_8h.html" target="_top" xlink:title="MapPoint.h">
<polygon fill="#ffffff" stroke="#000000" points="359.4129,-436.5 359.4129,-455.5 425.4129,-455.5 425.4129,-436.5 359.4129,-436.5"/>
<text text-anchor="middle" x="392.4129" y="-443.5" font-family="Helvetica,sans-Serif" font-size="10.00" fill="#000000">MapPoint.h</text>
</a>
</g>
</g>
<!-- Node6&#45;&gt;Node27 -->
<g id="edge42" class="edge">
<title>Node6&#45;&gt;Node27</title>
<path fill="none" stroke="#191970" d="M472.5168,-492.2455C457.4949,-483.5731 435.3085,-470.7645 418.0918,-460.825"/>
<polygon fill="#191970" stroke="#191970" points="419.5257,-457.6114 409.1154,-455.6427 416.0258,-463.6737 419.5257,-457.6114"/>
</g>
<!-- Node28 -->
<g id="node28" class="node">
<title>Node28</title>
<g id="a_node28"><a xlink:href="_key_frame_8h.html" target="_top" xlink:title="KeyFrame.h">
<polygon fill="#ffffff" stroke="#000000" points="477.4129,-369.5 477.4129,-388.5 547.4129,-388.5 547.4129,-369.5 477.4129,-369.5"/>
<text text-anchor="middle" x="512.4129" y="-376.5" font-family="Helvetica,sans-Serif" font-size="10.00" fill="#000000">KeyFrame.h</text>
</a>
</g>
</g>
<!-- Node6&#45;&gt;Node28 -->
<g id="edge68" class="edge">
<title>Node6&#45;&gt;Node28</title>
<path fill="none" stroke="#191970" d="M484.9971,-492.4713C479.6018,-479.5236 471.8402,-455.7252 477.4129,-436 481.4579,-421.6819 490.2211,-407.4181 497.9664,-396.7407"/>
<polygon fill="#191970" stroke="#191970" points="500.8235,-398.7659 504.1071,-388.6927 495.2585,-394.5196 500.8235,-398.7659"/>
</g>
<!-- Node6&#45;&gt;Node34 -->
<g id="edge69" class="edge">
<title>Node6&#45;&gt;Node34</title>
<path fill="none" stroke="#191970" d="M451.6236,-494.8507C401.6044,-485.3876 312.8386,-468.5941 253.5538,-457.378"/>
<polygon fill="#191970" stroke="#191970" points="254.0502,-453.9099 243.5739,-455.4899 252.7489,-460.7879 254.0502,-453.9099"/>
</g>
<!-- Node7&#45;&gt;Node3 -->
<g id="edge41" class="edge">
<title>Node7&#45;&gt;Node3</title>
<path fill="none" stroke="#191970" d="M735.4124,-369.46C744.2303,-358.5609 758.3622,-339.9116 767.4129,-322 775.8831,-305.237 782.3961,-284.8121 786.486,-270.0913"/>
<polygon fill="#191970" stroke="#191970" points="789.9549,-270.6643 789.1335,-260.1013 783.1885,-268.871 789.9549,-270.6643"/>
</g>
<!-- Node8 -->
<g id="node9" class="node">
<title>Node8</title>
<g id="a_node9"><a xlink:href="_o_r_b_vocabulary_8h.html" target="_top" xlink:title="ORBVocabulary.h">
<polygon fill="#ffffff" stroke="#000000" points="363.9129,-241 363.9129,-260 458.9129,-260 458.9129,-241 363.9129,-241"/>
<text text-anchor="middle" x="411.4129" y="-248" font-family="Helvetica,sans-Serif" font-size="10.00" fill="#000000">ORBVocabulary.h</text>
</a>
</g>
</g>
<!-- Node7&#45;&gt;Node8 -->
<g id="edge9" class="edge">
<title>Node7&#45;&gt;Node8</title>
<path fill="none" stroke="#191970" d="M705.1924,-369.9641C650.406,-347.6855 508.6407,-290.0373 444.1815,-263.8252"/>
<polygon fill="#191970" stroke="#191970" points="445.4698,-260.5708 434.888,-260.046 442.8329,-267.0552 445.4698,-260.5708"/>
</g>
<!-- Node26 -->
<g id="node26" class="node">
<title>Node26</title>
<polygon fill="#ffffff" stroke="#bfbfbf" points="1169.4129,-112.5 1169.4129,-131.5 1199.4129,-131.5 1199.4129,-112.5 1169.4129,-112.5"/>
<text text-anchor="middle" x="1184.4129" y="-119.5" font-family="Helvetica,sans-Serif" font-size="10.00" fill="#000000">set</text>
</g>
<!-- Node7&#45;&gt;Node26 -->
<g id="edge40" class="edge">
<title>Node7&#45;&gt;Node26</title>
<path fill="none" stroke="#191970" d="M749.5618,-377.5782C815.7326,-372.9731 1010.5723,-356.7102 1062.4129,-322 1129.2822,-277.2272 1165.6639,-182.1919 1178.7403,-141.334"/>
<polygon fill="#191970" stroke="#191970" points="1182.1573,-142.1298 1181.7548,-131.5426 1175.4672,-140.0701 1182.1573,-142.1298"/>
</g>
<!-- Node9 -->
<g id="node10" class="node">
<title>Node9</title>
<g id="a_node10"><a xlink:href="_f_o_r_b_8h.html" target="_top" xlink:title="../Thirdparty/DBoW2\l/DBoW2/FORB.h">
<polygon fill="#ffffff" stroke="#000000" points="161.9129,-168.5 161.9129,-198.5 268.9129,-198.5 268.9129,-168.5 161.9129,-168.5"/>
<text text-anchor="start" x="169.9129" y="-186.5" font-family="Helvetica,sans-Serif" font-size="10.00" fill="#000000">../Thirdparty/DBoW2</text>
<text text-anchor="middle" x="215.4129" y="-175.5" font-family="Helvetica,sans-Serif" font-size="10.00" fill="#000000">/DBoW2/FORB.h</text>
</a>
</g>
</g>
<!-- Node8&#45;&gt;Node9 -->
<g id="edge10" class="edge">
<title>Node8&#45;&gt;Node9</title>
<path fill="none" stroke="#191970" d="M383.3308,-240.9005C353.5974,-230.7366 305.9469,-214.4479 268.9885,-201.8141"/>
<polygon fill="#191970" stroke="#191970" points="269.9517,-198.4446 259.3571,-198.5218 267.6874,-205.0683 269.9517,-198.4446"/>
</g>
<!-- Node13 -->
<g id="node14" class="node">
<title>Node13</title>
<g id="a_node14"><a xlink:href="_templated_vocabulary_8h.html" target="_top" xlink:title="../Thirdparty/DBoW2\l/DBoW2/TemplatedVocabulary.h">
<polygon fill="#ffffff" stroke="#000000" points="572.4129,-168.5 572.4129,-198.5 732.4129,-198.5 732.4129,-168.5 572.4129,-168.5"/>
<text text-anchor="start" x="580.4129" y="-186.5" font-family="Helvetica,sans-Serif" font-size="10.00" fill="#000000">../Thirdparty/DBoW2</text>
<text text-anchor="middle" x="652.4129" y="-175.5" font-family="Helvetica,sans-Serif" font-size="10.00" fill="#000000">/DBoW2/TemplatedVocabulary.h</text>
</a>
</g>
</g>
<!-- Node8&#45;&gt;Node13 -->
<g id="edge18" class="edge">
<title>Node8&#45;&gt;Node13</title>
<path fill="none" stroke="#191970" d="M445.6863,-240.9717C482.7335,-230.6723 542.6158,-214.0245 588.4182,-201.291"/>
<polygon fill="#191970" stroke="#191970" points="589.5614,-204.606 598.2586,-198.5553 587.6864,-197.8618 589.5614,-204.606"/>
</g>
<!-- Node9&#45;&gt;Node2 -->
<g id="edge13" class="edge">
<title>Node9&#45;&gt;Node2</title>
<path fill="none" stroke="#191970" d="M269.0147,-173.812C374.0669,-154.8397 598.3433,-114.4146 615.4129,-112 768.401,-90.3588 952.657,-74.3238 1024.5634,-68.4481"/>
<polygon fill="#191970" stroke="#191970" points="1025.0451,-71.9206 1034.7297,-67.6242 1024.4796,-64.9435 1025.0451,-71.9206"/>
</g>
<!-- Node10 -->
<g id="node11" class="node">
<title>Node10</title>
<polygon fill="#ffffff" stroke="#bfbfbf" points="104.4129,-56.5 104.4129,-75.5 220.4129,-75.5 220.4129,-56.5 104.4129,-56.5"/>
<text text-anchor="middle" x="162.4129" y="-63.5" font-family="Helvetica,sans-Serif" font-size="10.00" fill="#000000">opencv2/core/core.hpp</text>
</g>
<!-- Node9&#45;&gt;Node10 -->
<g id="edge11" class="edge">
<title>Node9&#45;&gt;Node10</title>
<path fill="none" stroke="#191970" d="M201.1571,-168.4343C192.7419,-158.7368 182.5653,-145.4654 176.4129,-132 169.7196,-117.3509 166.1775,-99.398 164.3325,-85.9164"/>
<polygon fill="#191970" stroke="#191970" points="167.789,-85.3394 163.15,-75.8142 160.8364,-86.1534 167.789,-85.3394"/>
</g>
<!-- Node11 -->
<g id="node12" class="node">
<title>Node11</title>
<polygon fill="#ffffff" stroke="#bfbfbf" points="280.4129,-.5 280.4129,-19.5 324.4129,-19.5 324.4129,-.5 280.4129,-.5"/>
<text text-anchor="middle" x="302.4129" y="-7.5" font-family="Helvetica,sans-Serif" font-size="10.00" fill="#000000">vector</text>
</g>
<!-- Node9&#45;&gt;Node11 -->
<g id="edge12" class="edge">
<title>Node9&#45;&gt;Node11</title>
<path fill="none" stroke="#191970" d="M182.0684,-168.325C135.6389,-145.1373 60.8906,-99.036 95.4129,-56 116.9638,-29.1343 217.593,-16.9671 270.1918,-12.3641"/>
<polygon fill="#191970" stroke="#191970" points="270.6629,-15.837 280.3375,-11.5181 270.0812,-8.8612 270.6629,-15.837"/>
</g>
<!-- Node12 -->
<g id="node13" class="node">
<title>Node12</title>
<g id="a_node13"><a xlink:href="_f_class_8h.html" target="_top" xlink:title="FClass.h">
<polygon fill="#ffffff" stroke="#000000" points="218.4129,-112.5 218.4129,-131.5 274.4129,-131.5 274.4129,-112.5 218.4129,-112.5"/>
<text text-anchor="middle" x="246.4129" y="-119.5" font-family="Helvetica,sans-Serif" font-size="10.00" fill="#000000">FClass.h</text>
</a>
</g>
</g>
<!-- Node9&#45;&gt;Node12 -->
<g id="edge14" class="edge">
<title>Node9&#45;&gt;Node12</title>
<path fill="none" stroke="#191970" d="M223.0758,-168.2977C227.2444,-160.0277 232.4394,-149.7215 236.869,-140.9339"/>
<polygon fill="#191970" stroke="#191970" points="240.0736,-142.3521 241.4494,-131.8469 233.8228,-139.2012 240.0736,-142.3521"/>
</g>
<!-- Node12&#45;&gt;Node2 -->
<g id="edge17" class="edge">
<title>Node12&#45;&gt;Node2</title>
<path fill="none" stroke="#191970" d="M274.7312,-120.0398C399.0423,-111.4348 895.9237,-77.04 1024.7693,-68.1212"/>
<polygon fill="#191970" stroke="#191970" points="1025.0124,-71.6128 1034.7468,-67.4305 1024.529,-64.6295 1025.0124,-71.6128"/>
</g>
<!-- Node12&#45;&gt;Node10 -->
<g id="edge15" class="edge">
<title>Node12&#45;&gt;Node10</title>
<path fill="none" stroke="#191970" d="M231.7812,-112.2455C219.0134,-103.7337 200.2691,-91.2375 185.483,-81.3801"/>
<polygon fill="#191970" stroke="#191970" points="187.1389,-78.2775 176.8769,-75.6427 183.2559,-84.1019 187.1389,-78.2775"/>
</g>
<!-- Node12&#45;&gt;Node11 -->
<g id="edge16" class="edge">
<title>Node12&#45;&gt;Node11</title>
<path fill="none" stroke="#191970" d="M251.1874,-112.4509C260.4449,-93.936 280.9833,-52.8591 293.0535,-28.7187"/>
<polygon fill="#191970" stroke="#191970" points="296.3087,-30.0344 297.6504,-19.5249 290.0477,-26.9039 296.3087,-30.0344"/>
</g>
<!-- Node13&#45;&gt;Node2 -->
<g id="edge23" class="edge">
<title>Node13&#45;&gt;Node2</title>
<path fill="none" stroke="#191970" d="M732.6841,-178.0197C820.281,-170.9161 953.9857,-156.4497 998.4129,-132 1018.624,-120.8771 1034.9692,-99.6127 1044.8902,-84.2202"/>
<polygon fill="#191970" stroke="#191970" points="1047.9703,-85.8926 1050.2143,-75.5381 1042.0029,-82.2332 1047.9703,-85.8926"/>
</g>
<!-- Node13&#45;&gt;Node10 -->
<g id="edge25" class="edge">
<title>Node13&#45;&gt;Node10</title>
<path fill="none" stroke="#191970" d="M572.0155,-181.8811C461.3465,-178.3603 268.9846,-167.2135 209.4129,-132 191.1352,-121.1959 178.0721,-100.1886 170.4283,-84.7654"/>
<polygon fill="#191970" stroke="#191970" points="173.5632,-83.2058 166.1875,-75.6 167.2103,-86.1453 173.5632,-83.2058"/>
</g>
<!-- Node13&#45;&gt;Node11 -->
<g id="edge20" class="edge">
<title>Node13&#45;&gt;Node11</title>
<path fill="none" stroke="#191970" d="M572.1778,-174.5018C505.9741,-165.8785 418.2502,-151.324 388.4129,-132 349.2605,-106.6432 322.6484,-56.6276 310.2986,-29.167"/>
<polygon fill="#191970" stroke="#191970" points="313.4492,-27.6344 306.2673,-19.8452 307.0242,-30.413 313.4492,-27.6344"/>
</g>
<!-- Node14 -->
<g id="node15" class="node">
<title>Node14</title>
<polygon fill="#ffffff" stroke="#bfbfbf" points="802.9129,-112.5 802.9129,-131.5 851.9129,-131.5 851.9129,-112.5 802.9129,-112.5"/>
<text text-anchor="middle" x="827.4129" y="-119.5" font-family="Helvetica,sans-Serif" font-size="10.00" fill="#000000">cassert</text>
</g>
<!-- Node13&#45;&gt;Node14 -->
<g id="edge19" class="edge">
<title>Node13&#45;&gt;Node14</title>
<path fill="none" stroke="#191970" d="M695.2227,-168.4554C725.3231,-157.8773 765.0685,-143.9096 793.091,-134.0617"/>
<polygon fill="#191970" stroke="#191970" points="794.5712,-137.2514 802.8451,-130.6338 792.2503,-130.6473 794.5712,-137.2514"/>
</g>
<!-- Node15 -->
<g id="node16" class="node">
<title>Node15</title>
<polygon fill="#ffffff" stroke="#bfbfbf" points="869.9129,-112.5 869.9129,-131.5 920.9129,-131.5 920.9129,-112.5 869.9129,-112.5"/>
<text text-anchor="middle" x="895.4129" y="-119.5" font-family="Helvetica,sans-Serif" font-size="10.00" fill="#000000">numeric</text>
</g>
<!-- Node13&#45;&gt;Node15 -->
<g id="edge21" class="edge">
<title>Node13&#45;&gt;Node15</title>
<path fill="none" stroke="#191970" d="M716.6326,-168.4565C755.6443,-159.1368 806.6712,-146.628 859.8711,-132.3447"/>
<polygon fill="#191970" stroke="#191970" points="861.0851,-135.6424 869.8276,-129.6574 859.261,-128.8842 861.0851,-135.6424"/>
</g>
<!-- Node16 -->
<g id="node17" class="node">
<title>Node16</title>
<polygon fill="#ffffff" stroke="#bfbfbf" points="939.4129,-112.5 939.4129,-131.5 989.4129,-131.5 989.4129,-112.5 939.4129,-112.5"/>
<text text-anchor="middle" x="964.4129" y="-119.5" font-family="Helvetica,sans-Serif" font-size="10.00" fill="#000000">fstream</text>
</g>
<!-- Node13&#45;&gt;Node16 -->
<g id="edge22" class="edge">
<title>Node13&#45;&gt;Node16</title>
<path fill="none" stroke="#191970" d="M732.5596,-170.8993C785.8404,-161.9999 857.5099,-149.0326 929.1349,-132.1288"/>
<polygon fill="#191970" stroke="#191970" points="930.3249,-135.4431 939.2393,-129.7174 928.7,-128.6343 930.3249,-135.4431"/>
</g>
<!-- Node17 -->
<g id="node18" class="node">
<title>Node17</title>
<polygon fill="#ffffff" stroke="#bfbfbf" points="624.4129,-112.5 624.4129,-131.5 680.4129,-131.5 680.4129,-112.5 624.4129,-112.5"/>
<text text-anchor="middle" x="652.4129" y="-119.5" font-family="Helvetica,sans-Serif" font-size="10.00" fill="#000000">algorithm</text>
</g>
<!-- Node13&#45;&gt;Node17 -->
<g id="edge24" class="edge">
<title>Node13&#45;&gt;Node17</title>
<path fill="none" stroke="#191970" d="M652.4129,-168.2977C652.4129,-160.3834 652.4129,-150.6043 652.4129,-142.0759"/>
<polygon fill="#191970" stroke="#191970" points="655.913,-141.8469 652.4129,-131.8469 648.913,-141.847 655.913,-141.8469"/>
</g>
<!-- Node18 -->
<g id="node19" class="node">
<title>Node18</title>
<polygon fill="#ffffff" stroke="#bfbfbf" points="1255.4129,-112.5 1255.4129,-131.5 1295.4129,-131.5 1295.4129,-112.5 1255.4129,-112.5"/>
<text text-anchor="middle" x="1275.4129" y="-119.5" font-family="Helvetica,sans-Serif" font-size="10.00" fill="#000000">limits</text>
</g>
<!-- Node13&#45;&gt;Node18 -->
<g id="edge26" class="edge">
<title>Node13&#45;&gt;Node18</title>
<path fill="none" stroke="#191970" d="M732.6665,-177.4803C840.8831,-169.0402 1039.5103,-152.4109 1208.4129,-132 1220.4809,-130.5416 1233.7259,-128.6308 1245.2302,-126.8705"/>
<polygon fill="#191970" stroke="#191970" points="1245.8804,-130.3115 1255.2223,-125.3136 1244.8027,-123.395 1245.8804,-130.3115"/>
</g>
<!-- Node19 -->
<g id="node20" class="node">
<title>Node19</title>
<g id="a_node20"><a xlink:href="_feature_vector_8h.html" target="_top" xlink:title="FeatureVector.h">
<polygon fill="#ffffff" stroke="#000000" points="406.4129,-112.5 406.4129,-131.5 492.4129,-131.5 492.4129,-112.5 406.4129,-112.5"/>
<text text-anchor="middle" x="449.4129" y="-119.5" font-family="Helvetica,sans-Serif" font-size="10.00" fill="#000000">FeatureVector.h</text>
</a>
</g>
</g>
<!-- Node13&#45;&gt;Node19 -->
<g id="edge27" class="edge">
<title>Node13&#45;&gt;Node19</title>
<path fill="none" stroke="#191970" d="M602.7535,-168.4554C568.2882,-158.0139 522.922,-144.27 490.4931,-134.4455"/>
<polygon fill="#191970" stroke="#191970" points="491.4559,-131.0802 480.8707,-131.5303 489.4263,-137.7795 491.4559,-131.0802"/>
</g>
<!-- Node20 -->
<g id="node21" class="node">
<title>Node20</title>
<g id="a_node21"><a xlink:href="_bow_vector_8h.html" target="_top" xlink:title="BowVector.h">
<polygon fill="#ffffff" stroke="#000000" points="602.9129,-56.5 602.9129,-75.5 675.9129,-75.5 675.9129,-56.5 602.9129,-56.5"/>
<text text-anchor="middle" x="639.4129" y="-63.5" font-family="Helvetica,sans-Serif" font-size="10.00" fill="#000000">BowVector.h</text>
</a>
</g>
</g>
<!-- Node13&#45;&gt;Node20 -->
<g id="edge35" class="edge">
<title>Node13&#45;&gt;Node20</title>
<path fill="none" stroke="#191970" d="M637.5343,-168.2541C629.2721,-158.6909 619.7993,-145.6233 615.4129,-132 610.1808,-115.7503 617.8512,-97.5325 625.8757,-84.3604"/>
<polygon fill="#191970" stroke="#191970" points="628.9725,-86.0245 631.6018,-75.7611 623.146,-82.1447 628.9725,-86.0245"/>
</g>
<!-- Node23 -->
<g id="node24" class="node">
<title>Node23</title>
<g id="a_node24"><a xlink:href="_scoring_object_8h.html" target="_top" xlink:title="ScoringObject.h">
<polygon fill="#ffffff" stroke="#000000" points="698.4129,-112.5 698.4129,-131.5 784.4129,-131.5 784.4129,-112.5 698.4129,-112.5"/>
<text text-anchor="middle" x="741.4129" y="-119.5" font-family="Helvetica,sans-Serif" font-size="10.00" fill="#000000">ScoringObject.h</text>
</a>
</g>
</g>
<!-- Node13&#45;&gt;Node23 -->
<g id="edge36" class="edge">
<title>Node13&#45;&gt;Node23</title>
<path fill="none" stroke="#191970" d="M674.4129,-168.2977C688.0096,-158.9022 705.4095,-146.8787 719.0696,-137.4395"/>
<polygon fill="#191970" stroke="#191970" points="721.1914,-140.2276 727.4286,-131.6633 717.212,-134.4688 721.1914,-140.2276"/>
</g>
<!-- Node24 -->
<g id="node25" class="node">
<title>Node24</title>
<g id="a_node25"><a xlink:href="_random_8h.html" target="_top" xlink:title="../DUtils/Random.h">
<polygon fill="#ffffff" stroke="#ff0000" points="368.9129,-56.5 368.9129,-75.5 469.9129,-75.5 469.9129,-56.5 368.9129,-56.5"/>
<text text-anchor="middle" x="419.4129" y="-63.5" font-family="Helvetica,sans-Serif" font-size="10.00" fill="#000000">../DUtils/Random.h</text>
</a>
</g>
</g>
<!-- Node13&#45;&gt;Node24 -->
<g id="edge38" class="edge">
<title>Node13&#45;&gt;Node24</title>
<path fill="none" stroke="#191970" d="M572.0919,-178.1534C505.8199,-171.87 419.2569,-158.6967 397.4129,-132 386.0117,-118.066 395.3467,-97.9819 405.1351,-83.6341"/>
<polygon fill="#191970" stroke="#191970" points="407.9815,-85.6714 411.107,-75.548 402.3507,-81.5127 407.9815,-85.6714"/>
</g>
<!-- Node19&#45;&gt;Node11 -->
<g id="edge33" class="edge">
<title>Node19&#45;&gt;Node11</title>
<path fill="none" stroke="#191970" d="M459.6411,-112.2631C472.6899,-98.6531 492.0291,-73.6324 478.4129,-56 460.9526,-33.3898 380.2777,-19.7638 334.4518,-13.7155"/>
<polygon fill="#191970" stroke="#191970" points="334.7855,-10.2298 324.4236,-12.4394 333.9018,-17.1738 334.7855,-10.2298"/>
</g>
<!-- Node19&#45;&gt;Node20 -->
<g id="edge28" class="edge">
<title>Node19&#45;&gt;Node20</title>
<path fill="none" stroke="#191970" d="M482.075,-112.3733C513.9427,-102.9807 562.566,-88.6496 597.3199,-78.4064"/>
<polygon fill="#191970" stroke="#191970" points="598.5744,-81.6855 607.1769,-75.5011 596.5953,-74.9711 598.5744,-81.6855"/>
</g>
<!-- Node21 -->
<g id="node22" class="node">
<title>Node21</title>
<polygon fill="#ffffff" stroke="#bfbfbf" points="653.4129,-.5 653.4129,-19.5 707.4129,-19.5 707.4129,-.5 653.4129,-.5"/>
<text text-anchor="middle" x="680.4129" y="-7.5" font-family="Helvetica,sans-Serif" font-size="10.00" fill="#000000">iostream</text>
</g>
<!-- Node19&#45;&gt;Node21 -->
<g id="edge34" class="edge">
<title>Node19&#45;&gt;Node21</title>
<path fill="none" stroke="#191970" d="M469.1078,-112.4509C509.9373,-92.6548 603.9636,-47.0663 651.6126,-23.9638"/>
<polygon fill="#191970" stroke="#191970" points="653.2966,-27.037 660.7678,-19.5249 650.2427,-20.7383 653.2966,-27.037"/>
</g>
<!-- Node22 -->
<g id="node23" class="node">
<title>Node22</title>
<polygon fill="#ffffff" stroke="#bfbfbf" points="579.9129,-.5 579.9129,-19.5 614.9129,-19.5 614.9129,-.5 579.9129,-.5"/>
<text text-anchor="middle" x="597.4129" y="-7.5" font-family="Helvetica,sans-Serif" font-size="10.00" fill="#000000">map</text>
</g>
<!-- Node19&#45;&gt;Node22 -->
<g id="edge32" class="edge">
<title>Node19&#45;&gt;Node22</title>
<path fill="none" stroke="#191970" d="M462.0313,-112.4509C487.5897,-93.1094 545.6835,-49.1465 576.8113,-25.5904"/>
<polygon fill="#191970" stroke="#191970" points="578.9644,-28.3503 584.8264,-19.5249 574.7403,-22.7684 578.9644,-28.3503"/>
</g>
<!-- Node20&#45;&gt;Node11 -->
<g id="edge31" class="edge">
<title>Node20&#45;&gt;Node11</title>
<path fill="none" stroke="#191970" d="M602.7064,-59.9004C536.4275,-48.8867 397.82,-25.854 334.8202,-15.3852"/>
<polygon fill="#191970" stroke="#191970" points="335.1126,-11.8859 324.6741,-13.6992 333.965,-18.7912 335.1126,-11.8859"/>
</g>
<!-- Node20&#45;&gt;Node21 -->
<g id="edge29" class="edge">
<title>Node20&#45;&gt;Node21</title>
<path fill="none" stroke="#191970" d="M646.5545,-56.2455C652.2573,-48.4564 660.4028,-37.3308 667.2753,-27.9439"/>
<polygon fill="#191970" stroke="#191970" points="670.2696,-29.7789 673.353,-19.6427 664.6216,-25.6437 670.2696,-29.7789"/>
</g>
<!-- Node20&#45;&gt;Node22 -->
<g id="edge30" class="edge">
<title>Node20&#45;&gt;Node22</title>
<path fill="none" stroke="#191970" d="M632.097,-56.2455C626.195,-48.3761 617.7386,-37.101 610.6535,-27.6542"/>
<polygon fill="#191970" stroke="#191970" points="613.4449,-25.5427 604.6449,-19.6427 607.8449,-29.7427 613.4449,-25.5427"/>
</g>
<!-- Node23&#45;&gt;Node20 -->
<g id="edge37" class="edge">
<title>Node23&#45;&gt;Node20</title>
<path fill="none" stroke="#191970" d="M723.6458,-112.2455C707.7034,-103.4928 684.087,-90.527 665.914,-80.5496"/>
<polygon fill="#191970" stroke="#191970" points="667.4265,-77.3873 656.9763,-75.6427 664.0577,-83.5233 667.4265,-77.3873"/>
</g>
<!-- Node24&#45;&gt;Node11 -->
<g id="edge39" class="edge">
<title>Node24&#45;&gt;Node11</title>
<path fill="none" stroke="#191970" d="M399.2998,-56.3733C380.6025,-47.4241 352.5385,-33.9917 331.4195,-23.8835"/>
<polygon fill="#191970" stroke="#191970" points="332.7945,-20.6614 322.2634,-19.5011 329.7724,-26.9755 332.7945,-20.6614"/>
</g>
<!-- Node27&#45;&gt;Node3 -->
<g id="edge67" class="edge">
<title>Node27&#45;&gt;Node3</title>
<path fill="none" stroke="#191970" d="M398.2487,-436.2924C409.5584,-418.2796 436.2039,-379.5593 468.4129,-358 562.9297,-294.7346 697.8737,-265.8378 759.0509,-255.3892"/>
<polygon fill="#191970" stroke="#191970" points="759.9528,-258.7877 769.2479,-253.7033 758.8108,-251.8815 759.9528,-258.7877"/>
</g>
<!-- Node27&#45;&gt;Node7 -->
<g id="edge65" class="edge">
<title>Node27&#45;&gt;Node7</title>
<path fill="none" stroke="#191970" d="M425.4508,-439.3924C489.8729,-426.508 631.532,-398.1762 695.2487,-385.4328"/>
<polygon fill="#191970" stroke="#191970" points="696.0192,-388.8481 705.1386,-383.4549 694.6463,-381.9841 696.0192,-388.8481"/>
</g>
<!-- Node27&#45;&gt;Node10 -->
<g id="edge66" class="edge">
<title>Node27&#45;&gt;Node10</title>
<path fill="none" stroke="#191970" d="M359.1849,-443.0623C282.2349,-435.9964 96.6517,-417.3485 74.4129,-400 13.4644,-352.4543 3.2614,-310.5939 19.4129,-235 26.23,-203.0936 30.224,-194.3871 49.4129,-168 75.3,-132.402 115.331,-99.9511 140.1459,-81.6192"/>
<polygon fill="#191970" stroke="#191970" points="142.5072,-84.2303 148.5455,-75.5245 138.3961,-78.5646 142.5072,-84.2303"/>
</g>
<!-- Node27&#45;&gt;Node28 -->
<g id="edge43" class="edge">
<title>Node27&#45;&gt;Node28</title>
<path fill="none" stroke="#191970" d="M409.6059,-436.4005C429.6555,-425.2062 463.0117,-406.5823 486.2731,-393.5947"/>
<polygon fill="#191970" stroke="#191970" points="488.2267,-396.5126 495.2517,-388.5817 484.8142,-390.4007 488.2267,-396.5126"/>
</g>
<!-- Node31 -->
<g id="node31" class="node">
<title>Node31</title>
<g id="a_node31"><a xlink:href="_frame_8h.html" target="_top" xlink:title="Frame.h">
<polygon fill="#ffffff" stroke="#000000" points="232.9129,-302.5 232.9129,-321.5 285.9129,-321.5 285.9129,-302.5 232.9129,-302.5"/>
<text text-anchor="middle" x="259.4129" y="-309.5" font-family="Helvetica,sans-Serif" font-size="10.00" fill="#000000">Frame.h</text>
</a>
</g>
</g>
<!-- Node27&#45;&gt;Node31 -->
<g id="edge54" class="edge">
<title>Node27&#45;&gt;Node31</title>
<path fill="none" stroke="#191970" d="M379.1449,-436.3631C353.2198,-413.9569 297.4315,-358.0934 272.0402,-329.4857"/>
<polygon fill="#191970" stroke="#191970" points="274.3816,-326.8411 265.2027,-321.5496 269.0784,-331.4102 274.3816,-326.8411"/>
</g>
<!-- Node28&#45;&gt;Node3 -->
<g id="edge53" class="edge">
<title>Node28&#45;&gt;Node3</title>
<path fill="none" stroke="#191970" d="M533.3832,-369.3416C582.3803,-346.7748 704.5166,-290.5221 761.391,-264.3273"/>
<polygon fill="#191970" stroke="#191970" points="762.961,-267.4576 770.5798,-260.0952 760.0326,-261.0996 762.961,-267.4576"/>
</g>
<!-- Node28&#45;&gt;Node8 -->
<g id="edge46" class="edge">
<title>Node28&#45;&gt;Node8</title>
<path fill="none" stroke="#191970" d="M504.8214,-369.3416C487.9318,-347.8533 447.0353,-295.8216 425.3891,-268.2817"/>
<polygon fill="#191970" stroke="#191970" points="428.0237,-265.9697 419.0924,-260.2705 422.5202,-270.2955 428.0237,-265.9697"/>
</g>
<!-- Node28&#45;&gt;Node19 -->
<g id="edge45" class="edge">
<title>Node28&#45;&gt;Node19</title>
<path fill="none" stroke="#191970" d="M510.0201,-369.2391C500.723,-331.3126 466.8891,-193.2919 454.2337,-141.6658"/>
<polygon fill="#191970" stroke="#191970" points="457.5883,-140.6497 451.808,-131.7706 450.7896,-142.3164 457.5883,-140.6497"/>
</g>
<!-- Node28&#45;&gt;Node20 -->
<g id="edge44" class="edge">
<title>Node28&#45;&gt;Node20</title>
<path fill="none" stroke="#191970" d="M520.5544,-369.2978C533.6889,-353.972 560.7839,-323.6777 587.4129,-302 630.344,-267.0513 642.4779,-258.8954 692.4129,-235 724.773,-219.5147 977.4795,-161.1336 998.4129,-132 1003.5997,-124.7813 1004.2853,-118.6729 998.4129,-112 978.1022,-88.9208 779.0342,-74.2449 686.3928,-68.6123"/>
<polygon fill="#191970" stroke="#191970" points="686.3633,-65.1044 676.1723,-68.0014 685.9456,-72.0919 686.3633,-65.1044"/>
</g>
<!-- Node29 -->
<g id="node29" class="node">
<title>Node29</title>
<g id="a_node29"><a xlink:href="_key_frame_database_8h.html" target="_top" xlink:title="KeyFrameDatabase.h">
<polygon fill="#ffffff" stroke="#000000" points="941.4129,-302.5 941.4129,-321.5 1053.4129,-321.5 1053.4129,-302.5 941.4129,-302.5"/>
<text text-anchor="middle" x="997.4129" y="-309.5" font-family="Helvetica,sans-Serif" font-size="10.00" fill="#000000">KeyFrameDatabase.h</text>
</a>
</g>
</g>
<!-- Node28&#45;&gt;Node29 -->
<g id="edge47" class="edge">
<title>Node28&#45;&gt;Node29</title>
<path fill="none" stroke="#191970" d="M547.6835,-374.1276C628.2692,-362.9951 826.9502,-335.5485 931.1712,-321.1509"/>
<polygon fill="#191970" stroke="#191970" points="931.8338,-324.5927 941.2608,-319.7571 930.8758,-317.6586 931.8338,-324.5927"/>
</g>
<!-- Node29&#45;&gt;Node3 -->
<g id="edge52" class="edge">
<title>Node29&#45;&gt;Node3</title>
<path fill="none" stroke="#191970" d="M955.6889,-302.4685C920.9629,-294.1183 870.4313,-280.9956 827.4129,-266 825.5334,-265.3448 823.6135,-264.6371 821.6868,-263.8972"/>
<polygon fill="#191970" stroke="#191970" points="822.7363,-260.5458 812.1542,-260.0261 820.1025,-267.0315 822.7363,-260.5458"/>
</g>
<!-- Node29&#45;&gt;Node8 -->
<g id="edge51" class="edge">
<title>Node29&#45;&gt;Node8</title>
<path fill="none" stroke="#191970" d="M941.2247,-306.1031C829.8291,-294.4123 582.0308,-268.4061 469.2798,-256.5731"/>
<polygon fill="#191970" stroke="#191970" points="469.4338,-253.0701 459.1231,-255.5071 468.7032,-260.0319 469.4338,-253.0701"/>
</g>
<!-- Node29&#45;&gt;Node11 -->
<g id="edge48" class="edge">
<title>Node29&#45;&gt;Node11</title>
<path fill="none" stroke="#191970" d="M980.1288,-302.4548C949.3903,-285.9279 882.7678,-252.1144 822.4129,-235 620.8528,-177.8451 531.6648,-255.4783 362.4129,-132 328.2241,-107.0575 312.4937,-57.2087 306.1366,-29.5763"/>
<polygon fill="#191970" stroke="#191970" points="309.5087,-28.605 304.019,-19.5434 302.6596,-30.0507 309.5087,-28.605"/>
</g>
<!-- Node29&#45;&gt;Node26 -->
<g id="edge50" class="edge">
<title>Node29&#45;&gt;Node26</title>
<path fill="none" stroke="#191970" d="M1007.8247,-302.2442C1017.6238,-293.0105 1032.6579,-278.7091 1045.4129,-266 1090.6951,-220.8808 1142.6784,-166.2441 1168.3467,-139.0697"/>
<polygon fill="#191970" stroke="#191970" points="1171.1157,-141.2349 1175.4313,-131.5589 1166.0236,-136.4317 1171.1157,-141.2349"/>
</g>
<!-- Node30 -->
<g id="node30" class="node">
<title>Node30</title>
<polygon fill="#ffffff" stroke="#bfbfbf" points="1121.9129,-112.5 1121.9129,-131.5 1150.9129,-131.5 1150.9129,-112.5 1121.9129,-112.5"/>
<text text-anchor="middle" x="1136.4129" y="-119.5" font-family="Helvetica,sans-Serif" font-size="10.00" fill="#000000">list</text>
</g>
<!-- Node29&#45;&gt;Node30 -->
<g id="edge49" class="edge">
<title>Node29&#45;&gt;Node30</title>
<path fill="none" stroke="#191970" d="M1002.3186,-302.3413C1014.7516,-278.3193 1049.2334,-214.4688 1087.4129,-168 1096.121,-157.4012 1107.1648,-146.836 1116.5625,-138.5086"/>
<polygon fill="#191970" stroke="#191970" points="1119.021,-141.0098 1124.2973,-131.8222 1114.4432,-135.7142 1119.021,-141.0098"/>
</g>
<!-- Node31&#45;&gt;Node8 -->
<g id="edge59" class="edge">
<title>Node31&#45;&gt;Node8</title>
<path fill="none" stroke="#191970" d="M283.1629,-302.3906C308.7068,-292.0554 349.5137,-275.5447 378.2239,-263.9284"/>
<polygon fill="#191970" stroke="#191970" points="379.8724,-267.0371 387.8296,-260.0419 377.2469,-260.5481 379.8724,-267.0371"/>
</g>
<!-- Node31&#45;&gt;Node11 -->
<g id="edge55" class="edge">
<title>Node31&#45;&gt;Node11</title>
<path fill="none" stroke="#191970" d="M239.6851,-302.3721C222.8052,-293.7714 198.1751,-280.3448 178.4129,-266 161.8638,-253.9875 161.8383,-245.7017 144.4129,-235 105.9373,-211.3706 75.0671,-236.1561 49.4129,-199 41.5847,-187.6621 48.1378,-181.7187 49.4129,-168 54.0996,-117.5721 34.7878,-91.9971 70.4129,-56 97.8871,-28.2388 212.6454,-16.3349 269.7902,-12.0511"/>
<polygon fill="#191970" stroke="#191970" points="270.3572,-15.5196 280.0823,-11.3156 269.8582,-8.5374 270.3572,-15.5196"/>
</g>
<!-- Node31&#45;&gt;Node19 -->
<g id="edge58" class="edge">
<title>Node31&#45;&gt;Node19</title>
<path fill="none" stroke="#191970" d="M266.3686,-302.3264C277.3551,-287.297 299.713,-257.7066 321.4129,-235 356.9251,-197.8401 403.0544,-159.177 429.1256,-138.0954"/>
<polygon fill="#191970" stroke="#191970" points="431.5488,-140.6384 437.1539,-131.6476 427.1655,-135.1806 431.5488,-140.6384"/>
</g>
<!-- Node31&#45;&gt;Node20 -->
<g id="edge57" class="edge">
<title>Node31&#45;&gt;Node20</title>
<path fill="none" stroke="#191970" d="M273.5551,-302.2159C286.3566,-293.195 305.5762,-279.2375 321.4129,-266 336.8525,-253.0943 338.3289,-247.0932 354.4129,-235 442.4957,-168.7726 558.3514,-107.0237 611.0846,-80.1391"/>
<polygon fill="#191970" stroke="#191970" points="612.838,-83.1743 620.1756,-75.5316 609.6735,-76.9305 612.838,-83.1743"/>
</g>
<!-- Node31&#45;&gt;Node27 -->
<g id="edge56" class="edge">
<title>Node31&#45;&gt;Node27</title>
<path fill="none" stroke="#191970" d="M272.5798,-321.5496C298.5385,-343.9648 354.6974,-400.206 380.0139,-428.7718"/>
<polygon fill="#191970" stroke="#191970" points="377.3733,-431.0692 386.5508,-436.3631 382.6777,-426.5015 377.3733,-431.0692"/>
</g>
<!-- Node32 -->
<g id="node32" class="node">
<title>Node32</title>
<g id="a_node32"><a xlink:href="_o_r_bextractor_8h.html" target="_top" xlink:title="ORBextractor.h">
<polygon fill="#ffffff" stroke="#000000" points="58.9129,-174 58.9129,-193 143.9129,-193 143.9129,-174 58.9129,-174"/>
<text text-anchor="middle" x="101.4129" y="-181" font-family="Helvetica,sans-Serif" font-size="10.00" fill="#000000">ORBextractor.h</text>
</a>
</g>
</g>
<!-- Node31&#45;&gt;Node32 -->
<g id="edge60" class="edge">
<title>Node31&#45;&gt;Node32</title>
<path fill="none" stroke="#191970" d="M250.4104,-302.4464C235.9381,-287.324 206.2892,-257.3035 178.4129,-235 161.6168,-221.5617 141.353,-208.1077 125.8297,-198.3225"/>
<polygon fill="#191970" stroke="#191970" points="127.6389,-195.3261 117.2996,-193.013 123.9398,-201.2689 127.6389,-195.3261"/>
</g>
<!-- Node33 -->
<g id="node33" class="node">
<title>Node33</title>
<polygon fill="#ffffff" stroke="#bfbfbf" points="28.9129,-241 28.9129,-260 135.9129,-260 135.9129,-241 28.9129,-241"/>
<text text-anchor="middle" x="82.4129" y="-248" font-family="Helvetica,sans-Serif" font-size="10.00" fill="#000000">opencv2/opencv.hpp</text>
</g>
<!-- Node31&#45;&gt;Node33 -->
<g id="edge64" class="edge">
<title>Node31&#45;&gt;Node33</title>
<path fill="none" stroke="#191970" d="M232.5304,-302.6595C202.3393,-292.1694 153.1553,-275.08 119.3639,-263.3389"/>
<polygon fill="#191970" stroke="#191970" points="120.4349,-260.0058 109.8401,-260.0298 118.1374,-266.6181 120.4349,-260.0058"/>
</g>
<!-- Node32&#45;&gt;Node10 -->
<g id="edge63" class="edge">
<title>Node32&#45;&gt;Node10</title>
<path fill="none" stroke="#191970" d="M106.4047,-173.8845C116.5029,-154.4331 139.5112,-110.1138 152.6808,-84.7462"/>
<polygon fill="#191970" stroke="#191970" points="155.8507,-86.2363 157.352,-75.7484 149.638,-83.011 155.8507,-86.2363"/>
</g>
<!-- Node32&#45;&gt;Node11 -->
<g id="edge61" class="edge">
<title>Node32&#45;&gt;Node11</title>
<path fill="none" stroke="#191970" d="M95.7401,-173.8986C82.8886,-150.7606 54.8116,-91.2329 83.4129,-56 106.5404,-27.51 214.7852,-16.0185 269.9353,-11.952"/>
<polygon fill="#191970" stroke="#191970" points="270.4842,-15.4223 280.2164,-11.2349 269.9971,-8.4393 270.4842,-15.4223"/>
</g>
<!-- Node32&#45;&gt;Node30 -->
<g id="edge62" class="edge">
<title>Node32&#45;&gt;Node30</title>
<path fill="none" stroke="#191970" d="M128.3693,-173.922C136.0439,-171.5759 144.4762,-169.3525 152.4129,-168 523.4049,-104.7791 622.6931,-153.6023 998.4129,-132 1038.003,-129.7237 1083.9202,-126.2247 1111.5405,-124.0266"/>
<polygon fill="#191970" stroke="#191970" points="1111.8271,-127.5149 1121.5149,-123.2259 1111.2669,-120.5374 1111.8271,-127.5149"/>
</g>
<!-- Node35&#45;&gt;Node1 -->
<g id="edge74" class="edge">
<title>Node35&#45;&gt;Node1</title>
<path fill="none" stroke="#191970" d="M788.2363,-554.2316C738.367,-547.6659 643.5976,-532.8143 617.4129,-512 602.8138,-500.3952 594.4456,-480.4678 589.957,-465.5383"/>
<polygon fill="#191970" stroke="#191970" points="593.3023,-464.4994 587.3407,-455.741 586.5393,-466.3055 593.3023,-464.4994"/>
</g>
<!-- Node35&#45;&gt;Node3 -->
<g id="edge125" class="edge">
<title>Node35&#45;&gt;Node3</title>
<path fill="none" stroke="#191970" d="M788.3136,-551.3242C753.6921,-543.1876 701.0559,-528.4703 689.4129,-512 663.0028,-474.6402 703.8881,-502.6253 758.4129,-400 775.625,-367.6037 777.82,-357.8905 785.4129,-322 789.0341,-304.8829 790.4879,-285.0259 791.0625,-270.5879"/>
<polygon fill="#191970" stroke="#191970" points="794.5686,-270.4237 791.3594,-260.3266 787.5715,-270.2211 794.5686,-270.4237"/>
</g>
<!-- Node35&#45;&gt;Node4 -->
<g id="edge75" class="edge">
<title>Node35&#45;&gt;Node4</title>
<path fill="none" stroke="#191970" d="M850.605,-553.8044C907.6263,-546.0641 1032.4811,-528.7901 1137.4129,-512 1138.901,-511.7619 1140.4104,-511.5173 1141.9335,-511.2679"/>
<polygon fill="#191970" stroke="#191970" points="1142.8179,-514.6688 1152.1041,-509.5681 1141.6639,-507.7645 1142.8179,-514.6688"/>
</g>
<!-- Node35&#45;&gt;Node5 -->
<g id="edge72" class="edge">
<title>Node35&#45;&gt;Node5</title>
<path fill="none" stroke="#191970" d="M850.4754,-554.806C914.2944,-547.9465 1057.9841,-530.8882 1103.4129,-512 1131.7534,-500.2167 1159.616,-478.0032 1176.8924,-462.6213"/>
<polygon fill="#191970" stroke="#191970" points="1179.4539,-465.022 1184.4789,-455.6947 1174.7341,-459.8526 1179.4539,-465.022"/>
</g>
<!-- Node35&#45;&gt;Node6 -->
<g id="edge117" class="edge">
<title>Node35&#45;&gt;Node6</title>
<path fill="none" stroke="#191970" d="M788.3673,-552.7317C730.527,-542.9163 605.9317,-521.7729 537.2584,-510.1192"/>
<polygon fill="#191970" stroke="#191970" points="537.5858,-506.6248 527.1412,-508.4024 536.4146,-513.5262 537.5858,-506.6248"/>
</g>
<!-- Node35&#45;&gt;Node7 -->
<g id="edge76" class="edge">
<title>Node35&#45;&gt;Node7</title>
<path fill="none" stroke="#191970" d="M788.1668,-553.7428C745.2119,-547.177 671.4017,-533.0905 655.4129,-512 626.1246,-473.3665 676.5396,-421.2747 706.9214,-395.2357"/>
<polygon fill="#191970" stroke="#191970" points="709.4291,-397.7022 714.8765,-388.615 704.9512,-392.3218 709.4291,-397.7022"/>
</g>
<!-- Node35&#45;&gt;Node8 -->
<g id="edge111" class="edge">
<title>Node35&#45;&gt;Node8</title>
<path fill="none" stroke="#191970" d="M788.3758,-555.9095C710.1,-550.3674 506.3388,-534.1897 442.4129,-512 397.1916,-496.303 373.8647,-497.7297 350.4129,-456 314.6109,-392.2945 369.6195,-305.4144 397.1936,-268.391"/>
<polygon fill="#191970" stroke="#191970" points="400.2429,-270.1654 403.5408,-260.0969 394.6839,-265.9112 400.2429,-270.1654"/>
</g>
<!-- Node35&#45;&gt;Node29 -->
<g id="edge112" class="edge">
<title>Node35&#45;&gt;Node29</title>
<path fill="none" stroke="#191970" d="M850.4192,-554.6732C881.0509,-549.9294 927.6594,-538.6142 958.4129,-512 1010.9831,-466.5054 1005.8235,-372.9971 1000.5885,-332.0032"/>
<polygon fill="#191970" stroke="#191970" points="1004.0276,-331.3262 999.1578,-321.9169 997.097,-332.3093 1004.0276,-331.3262"/>
</g>
<!-- Node35&#45;&gt;Node31 -->
<g id="edge124" class="edge">
<title>Node35&#45;&gt;Node31</title>
<path fill="none" stroke="#191970" d="M788.0641,-557.1531C683.8802,-554.0644 353.7364,-541.9766 317.4129,-512 262.6149,-466.7771 257.77,-373.1233 258.4767,-332.0472"/>
<polygon fill="#191970" stroke="#191970" points="261.9784,-332.0422 258.7863,-321.9397 254.9817,-331.8278 261.9784,-332.0422"/>
</g>
<!-- Node35&#45;&gt;Node32 -->
<g id="edge113" class="edge">
<title>Node35&#45;&gt;Node32</title>
<path fill="none" stroke="#191970" d="M788.1761,-556.9642C676.0882,-553.0618 294.4792,-538.1231 175.4129,-512 94.2187,-494.186 .4129,-529.1254 .4129,-446 .4129,-446 .4129,-446 .4129,-312 .4129,-276.7513 -1.2386,-263.5655 19.4129,-235 31.4627,-218.3324 50.7235,-205.8336 67.5507,-197.3258"/>
<polygon fill="#191970" stroke="#191970" points="69.0731,-200.4775 76.5876,-193.0087 66.0556,-194.1612 69.0731,-200.4775"/>
</g>
<!-- Node36 -->
<g id="node36" class="node">
<title>Node36</title>
<polygon fill="#ffffff" stroke="#bfbfbf" points="697.9129,-492.5 697.9129,-511.5 818.9129,-511.5 818.9129,-492.5 697.9129,-492.5"/>
<text text-anchor="middle" x="758.4129" y="-499.5" font-family="Helvetica,sans-Serif" font-size="10.00" fill="#000000">opencv2/features2d.hpp</text>
</g>
<!-- Node35&#45;&gt;Node36 -->
<g id="edge73" class="edge">
<title>Node35&#45;&gt;Node36</title>
<path fill="none" stroke="#191970" d="M808.7875,-548.2455C799.8655,-540.0549 786.9248,-528.1749 776.3936,-518.5069"/>
<polygon fill="#191970" stroke="#191970" points="778.65,-515.8271 768.9165,-511.6427 773.9161,-520.9837 778.65,-515.8271"/>
</g>
<!-- Node37 -->
<g id="node37" class="node">
<title>Node37</title>
<g id="a_node37"><a xlink:href="_local_mapping_8h.html" target="_top" xlink:title="LocalMapping.h">
<polygon fill="#ffffff" stroke="#000000" points="836.9129,-492.5 836.9129,-511.5 921.9129,-511.5 921.9129,-492.5 836.9129,-492.5"/>
<text text-anchor="middle" x="879.4129" y="-499.5" font-family="Helvetica,sans-Serif" font-size="10.00" fill="#000000">LocalMapping.h</text>
</a>
</g>
</g>
<!-- Node35&#45;&gt;Node37 -->
<g id="edge77" class="edge">
<title>Node35&#45;&gt;Node37</title>
<path fill="none" stroke="#191970" d="M824.5972,-548.2455C831.8618,-539.9746 844.4471,-527.9416 855.8422,-518.2232"/>
<polygon fill="#191970" stroke="#191970" points="858.3401,-520.7004 863.8363,-511.6427 853.8912,-515.296 858.3401,-520.7004"/>
</g>
<!-- Node38 -->
<g id="node38" class="node">
<title>Node38</title>
<g id="a_node38"><a xlink:href="_loop_closing_8h.html" target="_top" xlink:title="LoopClosing.h">
<polygon fill="#ffffff" stroke="#000000" points="897.9129,-436.5 897.9129,-455.5 976.9129,-455.5 976.9129,-436.5 897.9129,-436.5"/>
<text text-anchor="middle" x="937.4129" y="-443.5" font-family="Helvetica,sans-Serif" font-size="10.00" fill="#000000">LoopClosing.h</text>
</a>
</g>
</g>
<!-- Node35&#45;&gt;Node38 -->
<g id="edge110" class="edge">
<title>Node35&#45;&gt;Node38</title>
<path fill="none" stroke="#191970" d="M850.5507,-552.5037C874.2112,-546.7987 905.2478,-535.2542 922.4129,-512 932.1178,-498.8524 932.9008,-479.9779 933.2116,-465.7782"/>
<polygon fill="#191970" stroke="#191970" points="936.7157,-465.693 933.5209,-455.5913 929.7189,-465.4804 936.7157,-465.693"/>
</g>
<!-- Node79 -->
<g id="node48" class="node">
<title>Node79</title>
<g id="a_node48"><a xlink:href="_initializer_8h.html" target="_top" xlink:title="Initializer.h">
<polygon fill="#ffffff" stroke="#000000" points="83.4129,-369.5 83.4129,-388.5 147.4129,-388.5 147.4129,-369.5 83.4129,-369.5"/>
<text text-anchor="middle" x="115.4129" y="-376.5" font-family="Helvetica,sans-Serif" font-size="10.00" fill="#000000">Initializer.h</text>
</a>
</g>
</g>
<!-- Node35&#45;&gt;Node79 -->
<g id="edge114" class="edge">
<title>Node35&#45;&gt;Node79</title>
<path fill="none" stroke="#191970" d="M788.2643,-556.8628C685.6756,-552.8971 359.1438,-538.4594 257.4129,-512 199.2811,-496.8804 172.7737,-502.2206 134.4129,-456 121.1236,-439.9879 116.9032,-416.0469 115.6755,-399.1183"/>
<polygon fill="#191970" stroke="#191970" points="119.1542,-398.5435 115.229,-388.7026 112.1606,-398.8433 119.1542,-398.5435"/>
</g>
<!-- Node35&#45;&gt;Node80 -->
<g id="edge118" class="edge">
<title>Node35&#45;&gt;Node80</title>
<path fill="none" stroke="#191970" d="M850.4423,-550.9076C894.8002,-540.7686 976.3348,-522.1321 1024.9361,-511.0233"/>
<polygon fill="#191970" stroke="#191970" points="1025.8133,-514.4131 1034.782,-508.7728 1024.2535,-507.5891 1025.8133,-514.4131"/>
</g>
<!-- Node37&#45;&gt;Node3 -->
<g id="edge109" class="edge">
<title>Node37&#45;&gt;Node3</title>
<path fill="none" stroke="#191970" d="M878.4519,-492.3378C874.8326,-457.1361 861.3126,-336.0356 843.4129,-302 836.155,-288.1995 823.9062,-275.7956 813.1193,-266.6207"/>
<polygon fill="#191970" stroke="#191970" points="815.238,-263.8328 805.2623,-260.2643 810.8353,-269.2749 815.238,-263.8328"/>
</g>
<!-- Node37&#45;&gt;Node7 -->
<g id="edge79" class="edge">
<title>Node37&#45;&gt;Node7</title>
<path fill="none" stroke="#191970" d="M865.9067,-492.3927C853.2088,-483.2638 833.7623,-469.0333 817.4129,-456 792.2638,-435.9518 764.2503,-411.6589 746.26,-395.7914"/>
<polygon fill="#191970" stroke="#191970" points="748.0971,-392.7432 738.29,-388.7342 743.4565,-397.984 748.0971,-392.7432"/>
</g>
<!-- Node37&#45;&gt;Node28 -->
<g id="edge78" class="edge">
<title>Node37&#45;&gt;Node28</title>
<path fill="none" stroke="#191970" d="M836.8737,-493.4419C834.014,-492.9336 831.1739,-492.4477 828.4129,-492 766.4872,-481.9591 599.0794,-492.9933 548.4129,-456 529.759,-442.3802 520.458,-416.632 516.0461,-398.6769"/>
<polygon fill="#191970" stroke="#191970" points="519.4203,-397.7199 513.891,-388.6824 512.5776,-399.1955 519.4203,-397.7199"/>
</g>
<!-- Node37&#45;&gt;Node29 -->
<g id="edge108" class="edge">
<title>Node37&#45;&gt;Node29</title>
<path fill="none" stroke="#191970" d="M879.2816,-492.1424C879.4584,-478.8221 881.0483,-454.6028 889.4129,-436 909.7134,-390.8516 952.0622,-349.9752 977.2774,-328.297"/>
<polygon fill="#191970" stroke="#191970" points="979.7165,-330.8189 985.1153,-321.7028 975.2099,-325.4625 979.7165,-330.8189"/>
</g>
<!-- Node37&#45;&gt;Node35 -->
<g id="edge107" class="edge">
<title>Node37&#45;&gt;Node35</title>
<path fill="none" stroke="#191970" d="M874.3266,-511.6427C867.1101,-519.8795 854.5437,-531.9058 843.1379,-541.645"/>
<polygon fill="#191970" stroke="#191970" points="840.6208,-539.184 835.1309,-548.2455 845.0734,-544.5854 840.6208,-539.184"/>
</g>
<!-- Node37&#45;&gt;Node38 -->
<g id="edge80" class="edge">
<title>Node37&#45;&gt;Node38</title>
<path fill="none" stroke="#191970" d="M884.2488,-492.2455C891.2181,-483.9746 903.3736,-471.9416 914.4217,-462.2232"/>
<polygon fill="#191970" stroke="#191970" points="916.818,-464.7801 922.1807,-455.6427 912.2903,-459.4416 916.818,-464.7801"/>
</g>
<!-- Node38&#45;&gt;Node3 -->
<g id="edge88" class="edge">
<title>Node38&#45;&gt;Node3</title>
<path fill="none" stroke="#191970" d="M936.0461,-436.3871C932.0357,-411.3568 918.1787,-343.2509 881.4129,-302 872.4645,-291.96 843.3034,-276.0964 820.5721,-264.6272"/>
<polygon fill="#191970" stroke="#191970" points="822.1238,-261.49 811.6123,-260.1635 819.0024,-267.7555 822.1238,-261.49"/>
</g>
<!-- Node38&#45;&gt;Node7 -->
<g id="edge83" class="edge">
<title>Node38&#45;&gt;Node7</title>
<path fill="none" stroke="#191970" d="M907.325,-436.4005C867.909,-423.825 799.1058,-401.8734 758.9733,-389.0693"/>
<polygon fill="#191970" stroke="#191970" points="760.014,-385.7275 749.4232,-386.0224 757.8863,-392.3964 760.014,-385.7275"/>
</g>
<!-- Node38&#45;&gt;Node8 -->
<g id="edge84" class="edge">
<title>Node38&#45;&gt;Node8</title>
<path fill="none" stroke="#191970" d="M920.0448,-436.3187C888.5356,-419.0159 819.5464,-382.3234 758.4129,-358 653.7638,-316.363 526.2584,-280.5043 458.7105,-262.624"/>
<polygon fill="#191970" stroke="#191970" points="459.3545,-259.1744 448.793,-260.0141 457.573,-265.9439 459.3545,-259.1744"/>
</g>
<!-- Node38&#45;&gt;Node28 -->
<g id="edge81" class="edge">
<title>Node38&#45;&gt;Node28</title>
<path fill="none" stroke="#191970" d="M897.8115,-439.757C818.5861,-427.2673 641.0312,-399.2763 557.4915,-386.1065"/>
<polygon fill="#191970" stroke="#191970" points="557.9661,-382.6382 547.543,-384.5382 556.876,-389.5528 557.9661,-382.6382"/>
</g>
<!-- Node38&#45;&gt;Node29 -->
<g id="edge86" class="edge">
<title>Node38&#45;&gt;Node29</title>
<path fill="none" stroke="#191970" d="M941.7279,-436.3631C951.5875,-414.3432 975.9159,-360.0098 988.9102,-330.9894"/>
<polygon fill="#191970" stroke="#191970" points="992.2446,-332.1068 993.1369,-321.5496 985.8558,-329.2461 992.2446,-332.1068"/>
</g>
<!-- Node38&#45;&gt;Node35 -->
<g id="edge85" class="edge">
<title>Node38&#45;&gt;Node35</title>
<path fill="none" stroke="#191970" d="M945.2639,-455.5913C950.6819,-469.4773 952.7122,-495.3377 940.4129,-512 922.1481,-536.7439 888.1778,-548.2298 860.7396,-553.5298"/>
<polygon fill="#191970" stroke="#191970" points="859.8532,-550.1307 850.5899,-555.273 861.0381,-557.0297 859.8532,-550.1307"/>
</g>
<!-- Node38&#45;&gt;Node37 -->
<g id="edge82" class="edge">
<title>Node38&#45;&gt;Node37</title>
<path fill="none" stroke="#191970" d="M932.6709,-455.6427C925.7487,-463.8795 913.6117,-475.9058 902.5538,-485.645"/>
<polygon fill="#191970" stroke="#191970" points="900.1386,-483.1042 894.7825,-492.2455 904.6702,-488.4395 900.1386,-483.1042"/>
</g>
<!-- Node39 -->
<g id="node39" class="node">
<title>Node39</title>
<polygon fill="#ffffff" stroke="#bfbfbf" points="1033.4129,-369.5 1033.4129,-388.5 1077.4129,-388.5 1077.4129,-369.5 1033.4129,-369.5"/>
<text text-anchor="middle" x="1055.4129" y="-376.5" font-family="Helvetica,sans-Serif" font-size="10.00" fill="#000000">thread</text>
</g>
<!-- Node38&#45;&gt;Node39 -->
<g id="edge87" class="edge">
<title>Node38&#45;&gt;Node39</title>
<path fill="none" stroke="#191970" d="M954.3194,-436.4005C974.0348,-425.2062 1006.835,-406.5823 1029.7087,-393.5947"/>
<polygon fill="#191970" stroke="#191970" points="1031.5698,-396.5629 1038.5377,-388.5817 1028.1135,-390.4757 1031.5698,-396.5629"/>
</g>
<!-- Node40 -->
<g id="node40" class="node">
<title>Node40</title>
<g id="a_node40"><a xlink:href="types__seven__dof__expmap_8h.html" target="_top" xlink:title="../Thirdparty/g2o/g2o\l/types/types_seven_dof\l_expmap.h">
<polygon fill="#ffffff" stroke="#000000" points="1241.9129,-358.5 1241.9129,-399.5 1362.9129,-399.5 1362.9129,-358.5 1241.9129,-358.5"/>
<text text-anchor="start" x="1249.9129" y="-387.5" font-family="Helvetica,sans-Serif" font-size="10.00" fill="#000000">../Thirdparty/g2o/g2o</text>
<text text-anchor="start" x="1249.9129" y="-376.5" font-family="Helvetica,sans-Serif" font-size="10.00" fill="#000000">/types/types_seven_dof</text>
<text text-anchor="middle" x="1302.4129" y="-365.5" font-family="Helvetica,sans-Serif" font-size="10.00" fill="#000000">_expmap.h</text>
</a>
</g>
</g>
<!-- Node38&#45;&gt;Node40 -->
<g id="edge89" class="edge">
<title>Node38&#45;&gt;Node40</title>
<path fill="none" stroke="#191970" d="M977.1691,-438.7023C1038.2626,-427.4879 1156.0959,-405.8582 1231.9025,-391.943"/>
<polygon fill="#191970" stroke="#191970" points="1232.6464,-395.365 1241.8501,-390.117 1231.3825,-388.48 1232.6464,-395.365"/>
</g>
<!-- Node41 -->
<g id="node41" class="node">
<title>Node41</title>
<g id="a_node41"><a xlink:href="base__vertex_8h.html" target="_top" xlink:title="../core/base_vertex.h">
<polygon fill="#ffffff" stroke="#ff0000" points="1265.9129,-241 1265.9129,-260 1374.9129,-260 1374.9129,-241 1265.9129,-241"/>
<text text-anchor="middle" x="1320.4129" y="-248" font-family="Helvetica,sans-Serif" font-size="10.00" fill="#000000">../core/base_vertex.h</text>
</a>
</g>
</g>
<!-- Node40&#45;&gt;Node41 -->
<g id="edge90" class="edge">
<title>Node40&#45;&gt;Node41</title>
<path fill="none" stroke="#191970" d="M1305.3049,-358.3543C1308.7022,-334.101 1314.2982,-294.1521 1317.6421,-270.2799"/>
<polygon fill="#191970" stroke="#191970" points="1321.1226,-270.6626 1319.0438,-260.2738 1314.1903,-269.6915 1321.1226,-270.6626"/>
</g>
<!-- Node64 -->
<g id="node45" class="node">
<title>Node64</title>
<g id="a_node45"><a xlink:href="base__binary__edge_8h.html" target="_top" xlink:title="../core/base_binary\l_edge.h">
<polygon fill="#ffffff" stroke="#ff0000" points="1394.4129,-235.5 1394.4129,-265.5 1494.4129,-265.5 1494.4129,-235.5 1394.4129,-235.5"/>
<text text-anchor="start" x="1402.4129" y="-253.5" font-family="Helvetica,sans-Serif" font-size="10.00" fill="#000000">../core/base_binary</text>
<text text-anchor="middle" x="1444.4129" y="-242.5" font-family="Helvetica,sans-Serif" font-size="10.00" fill="#000000">_edge.h</text>
</a>
</g>
</g>
<!-- Node40&#45;&gt;Node64 -->
<g id="edge100" class="edge">
<title>Node40&#45;&gt;Node64</title>
<path fill="none" stroke="#191970" d="M1363.2665,-365.4836C1404.2899,-354.9972 1453.0941,-339.3581 1465.4129,-322 1475.396,-307.9331 1469.2842,-289.1245 1461.1346,-274.329"/>
<polygon fill="#191970" stroke="#191970" points="1464.0934,-272.458 1455.9226,-265.7135 1458.1041,-276.0813 1464.0934,-272.458"/>
</g>
<!-- Node69 -->
<g id="node46" class="node">
<title>Node69</title>
<g id="a_node46"><a xlink:href="types__six__dof__expmap_8h.html" target="_top" xlink:title="types_six_dof_expmap.h">
<polygon fill="#ffffff" stroke="#ff0000" points="1330.9129,-302.5 1330.9129,-321.5 1455.9129,-321.5 1455.9129,-302.5 1330.9129,-302.5"/>
<text text-anchor="middle" x="1393.4129" y="-309.5" font-family="Helvetica,sans-Serif" font-size="10.00" fill="#000000">types_six_dof_expmap.h</text>
</a>
</g>
</g>
<!-- Node40&#45;&gt;Node69 -->
<g id="edge103" class="edge">
<title>Node40&#45;&gt;Node69</title>
<path fill="none" stroke="#191970" d="M1330.707,-358.168C1343.974,-348.4001 1359.5297,-336.9469 1371.8285,-327.8918"/>
<polygon fill="#191970" stroke="#191970" points="1374.1513,-330.528 1380.1289,-321.7805 1370.001,-324.891 1374.1513,-330.528"/>
</g>
<!-- Node78 -->
<g id="node47" class="node">
<title>Node78</title>
<g id="a_node47"><a xlink:href="sim3_8h.html" target="_top" xlink:title="sim3.h">
<polygon fill="#ffffff" stroke="#ff0000" points="1228.4129,-302.5 1228.4129,-321.5 1274.4129,-321.5 1274.4129,-302.5 1228.4129,-302.5"/>
<text text-anchor="middle" x="1251.4129" y="-309.5" font-family="Helvetica,sans-Serif" font-size="10.00" fill="#000000">sim3.h</text>
</a>
</g>
</g>
<!-- Node40&#45;&gt;Node78 -->
<g id="edge106" class="edge">
<title>Node40&#45;&gt;Node78</title>
<path fill="none" stroke="#191970" d="M1286.5557,-358.168C1279.6257,-349.0639 1271.5814,-338.4959 1264.9392,-329.7699"/>
<polygon fill="#191970" stroke="#191970" points="1267.6996,-327.6176 1258.8577,-321.7805 1262.1296,-331.8574 1267.6996,-327.6176"/>
</g>
<!-- Node42 -->
<g id="node42" class="node">
<title>Node42</title>
<g id="a_node42"><a xlink:href="optimizable__graph_8h.html" target="_top" xlink:title="optimizable_graph.h">
<polygon fill="#ffffff" stroke="#ff0000" points="1268.4129,-174 1268.4129,-193 1372.4129,-193 1372.4129,-174 1268.4129,-174"/>
<text text-anchor="middle" x="1320.4129" y="-181" font-family="Helvetica,sans-Serif" font-size="10.00" fill="#000000">optimizable_graph.h</text>
</a>
</g>
</g>
<!-- Node41&#45;&gt;Node42 -->
<g id="edge91" class="edge">
<title>Node41&#45;&gt;Node42</title>
<path fill="none" stroke="#191970" d="M1320.4129,-240.9005C1320.4129,-231.149 1320.4129,-215.7597 1320.4129,-203.3695"/>
<polygon fill="#191970" stroke="#191970" points="1323.913,-203.0816 1320.4129,-193.0817 1316.913,-203.0817 1323.913,-203.0816"/>
</g>
<!-- Node57 -->
<g id="node43" class="node">
<title>Node57</title>
<g id="a_node43"><a xlink:href="macros_8h.html" target="_top" xlink:title="../stuff/macros.h">
<polygon fill="#ffffff" stroke="#ff0000" points="1353.9129,-112.5 1353.9129,-131.5 1442.9129,-131.5 1442.9129,-112.5 1353.9129,-112.5"/>
<text text-anchor="middle" x="1398.4129" y="-119.5" font-family="Helvetica,sans-Serif" font-size="10.00" fill="#000000">../stuff/macros.h</text>
</a>
</g>
</g>
<!-- Node41&#45;&gt;Node57 -->
<g id="edge99" class="edge">
<title>Node41&#45;&gt;Node57</title>
<path fill="none" stroke="#191970" d="M1337.0415,-240.8351C1351.0567,-231.8065 1370.519,-217.0316 1381.4129,-199 1391.9963,-181.4823 1396.0162,-158.1648 1397.5293,-141.7957"/>
<polygon fill="#191970" stroke="#191970" points="1401.027,-141.9479 1398.2262,-131.73 1394.0438,-141.4644 1401.027,-141.9479"/>
</g>
<!-- Node59 -->
<g id="node44" class="node">
<title>Node59</title>
<g id="a_node44"><a xlink:href="creators_8h.html" target="_top" xlink:title="creators.h">
<polygon fill="#ffffff" stroke="#ff0000" points="1190.4129,-174 1190.4129,-193 1250.4129,-193 1250.4129,-174 1190.4129,-174"/>
<text text-anchor="middle" x="1220.4129" y="-181" font-family="Helvetica,sans-Serif" font-size="10.00" fill="#000000">creators.h</text>
</a>
</g>
</g>
<!-- Node41&#45;&gt;Node59 -->
<g id="edge97" class="edge">
<title>Node41&#45;&gt;Node59</title>
<path fill="none" stroke="#191970" d="M1306.0853,-240.9005C1289.6743,-229.9052 1262.5653,-211.7422 1243.2377,-198.7927"/>
<polygon fill="#191970" stroke="#191970" points="1244.9697,-195.7402 1234.7138,-193.0817 1241.0734,-201.5556 1244.9697,-195.7402"/>
</g>
<!-- Node42&#45;&gt;Node18 -->
<g id="edge95" class="edge">
<title>Node42&#45;&gt;Node18</title>
<path fill="none" stroke="#191970" d="M1313.3816,-173.8906C1306.7499,-164.8273 1296.6433,-151.0149 1288.5242,-139.9188"/>
<polygon fill="#191970" stroke="#191970" points="1291.273,-137.7484 1282.5432,-131.7449 1285.6238,-141.882 1291.273,-137.7484"/>
</g>
<!-- Node42&#45;&gt;Node21 -->
<g id="edge93" class="edge">
<title>Node42&#45;&gt;Node21</title>
<path fill="none" stroke="#191970" d="M1321.1955,-173.7003C1321.8462,-158.3858 1320.7111,-128.7979 1304.4129,-112 1222.422,-27.4954 839.6566,-12.9916 717.7848,-10.5101"/>
<polygon fill="#191970" stroke="#191970" points="717.5425,-7.0051 707.4785,-10.3167 717.411,-14.0038 717.5425,-7.0051"/>
</g>
<!-- Node42&#45;&gt;Node26 -->
<g id="edge92" class="edge">
<title>Node42&#45;&gt;Node26</title>
<path fill="none" stroke="#191970" d="M1299.1629,-173.8906C1274.7605,-162.8557 1234.7902,-144.7809 1209.0476,-133.14"/>
<polygon fill="#191970" stroke="#191970" points="1210.1718,-129.8071 1199.6179,-128.8758 1207.2875,-136.1853 1210.1718,-129.8071"/>
</g>
<!-- Node42&#45;&gt;Node30 -->
<g id="edge94" class="edge">
<title>Node42&#45;&gt;Node30</title>
<path fill="none" stroke="#191970" d="M1287.9648,-173.9246C1255.4479,-164.1259 1204.0855,-148.0952 1160.4129,-132 1160.3176,-131.9649 1160.2221,-131.9296 1160.1264,-131.8942"/>
<polygon fill="#191970" stroke="#191970" points="1161.6466,-128.7311 1151.0593,-128.3301 1159.0857,-135.2458 1161.6466,-128.7311"/>
</g>
<!-- Node42&#45;&gt;Node57 -->
<g id="edge96" class="edge">
<title>Node42&#45;&gt;Node57</title>
<path fill="none" stroke="#191970" d="M1332.6004,-173.8906C1344.8498,-164.2324 1363.9391,-149.1812 1378.4106,-137.771"/>
<polygon fill="#191970" stroke="#191970" points="1380.6253,-140.4819 1386.3109,-131.5419 1376.2912,-134.985 1380.6253,-140.4819"/>
</g>
<!-- Node59&#45;&gt;Node2 -->
<g id="edge98" class="edge">
<title>Node59&#45;&gt;Node2</title>
<path fill="none" stroke="#191970" d="M1221.7334,-173.8368C1223.2267,-158.7094 1223.7277,-129.3732 1208.4129,-112 1192.2492,-93.6639 1125.8202,-78.7718 1086.0004,-71.2727"/>
<polygon fill="#191970" stroke="#191970" points="1086.4849,-67.8033 1076.0176,-69.4423 1085.2224,-74.6885 1086.4849,-67.8033"/>
</g>
<!-- Node64&#45;&gt;Node18 -->
<g id="edge102" class="edge">
<title>Node64&#45;&gt;Node18</title>
<path fill="none" stroke="#191970" d="M1436.0288,-235.2166C1425.4047,-217.0666 1405.5396,-186.8812 1381.4129,-168 1358.6708,-150.2024 1327.988,-137.8754 1305.4859,-130.4941"/>
<polygon fill="#191970" stroke="#191970" points="1306.3699,-127.1033 1295.7807,-127.4489 1304.2742,-133.7822 1306.3699,-127.1033"/>
</g>
<!-- Node64&#45;&gt;Node21 -->
<g id="edge101" class="edge">
<title>Node64&#45;&gt;Node21</title>
<path fill="none" stroke="#191970" d="M1451.1916,-235.2463C1462.3834,-207.4729 1480.8167,-148.1867 1452.4129,-112 1406.4021,-53.3819 867.001,-20.0743 718.213,-11.9604"/>
<polygon fill="#191970" stroke="#191970" points="717.9644,-8.442 707.7905,-11.3985 717.5875,-15.4318 717.9644,-8.442"/>
</g>
<!-- Node69&#45;&gt;Node41 -->
<g id="edge104" class="edge">
<title>Node69&#45;&gt;Node41</title>
<path fill="none" stroke="#191970" d="M1382.0066,-302.3906C1370.7159,-292.8786 1353.2162,-278.1357 1339.751,-266.7917"/>
<polygon fill="#191970" stroke="#191970" points="1341.8828,-264.0111 1331.9799,-260.2449 1337.3727,-269.3646 1341.8828,-264.0111"/>
</g>
<!-- Node69&#45;&gt;Node64 -->
<g id="edge105" class="edge">
<title>Node69&#45;&gt;Node64</title>
<path fill="none" stroke="#191970" d="M1401.3816,-302.3906C1407.8365,-294.6068 1417.1961,-283.3202 1425.539,-273.2597"/>
<polygon fill="#191970" stroke="#191970" points="1428.2476,-275.4764 1431.9369,-265.5446 1422.8593,-271.008 1428.2476,-275.4764"/>
</g>
<!-- Node79&#45;&gt;Node31 -->
<g id="edge116" class="edge">
<title>Node79&#45;&gt;Node31</title>
<path fill="none" stroke="#191970" d="M136.0446,-369.4005C160.5318,-358.0072 201.5597,-338.9178 229.5222,-325.9075"/>
<polygon fill="#191970" stroke="#191970" points="231.2293,-328.9736 238.8194,-321.5817 228.2763,-322.6269 231.2293,-328.9736"/>
</g>
<!-- Node79&#45;&gt;Node33 -->
<g id="edge115" class="edge">
<title>Node79&#45;&gt;Node33</title>
<path fill="none" stroke="#191970" d="M112.9325,-369.3416C107.5335,-348.3184 94.6267,-298.0598 87.4473,-270.1038"/>
<polygon fill="#191970" stroke="#191970" points="90.7995,-269.0856 84.922,-260.2705 84.0195,-270.8268 90.7995,-269.0856"/>
</g>
<!-- Node80&#45;&gt;Node2 -->
<g id="edge119" class="edge">
<title>Node80&#45;&gt;Node2</title>
<path fill="none" stroke="#191970" d="M1071.8817,-492.4794C1084.0679,-477.6925 1109.7614,-449.5055 1138.4129,-436 1233.5924,-391.1351 1274.9664,-439.7012 1372.4129,-400 1459.58,-364.4867 1522.4129,-344.6239 1522.4129,-250.5 1522.4129,-250.5 1522.4129,-250.5 1522.4129,-183.5 1522.4129,-139.0283 1492.3468,-131.5706 1452.4129,-112 1419.7041,-95.9702 1173.5314,-75.2868 1086.1031,-68.37"/>
<polygon fill="#191970" stroke="#191970" points="1086.2624,-64.8718 1076.019,-67.5777 1085.7141,-71.8503 1086.2624,-64.8718"/>
</g>
<!-- Node80&#45;&gt;Node3 -->
<g id="edge122" class="edge">
<title>Node80&#45;&gt;Node3</title>
<path fill="none" stroke="#191970" d="M1068.564,-492.3182C1082.1083,-459.0634 1120.882,-348.978 1062.4129,-302 1025.9745,-272.723 887.5342,-258.1504 823.8375,-252.8803"/>
<polygon fill="#191970" stroke="#191970" points="823.8149,-249.3674 813.5674,-252.058 823.2561,-256.3451 823.8149,-249.3674"/>
</g>
<!-- Node80&#45;&gt;Node5 -->
<g id="edge121" class="edge">
<title>Node80&#45;&gt;Node5</title>
<path fill="none" stroke="#191970" d="M1086.7607,-492.3733C1107.8162,-483.3032 1139.5624,-469.6279 1163.1304,-459.4755"/>
<polygon fill="#191970" stroke="#191970" points="1164.5573,-462.6719 1172.3567,-455.5011 1161.7878,-456.243 1164.5573,-462.6719"/>
</g>
<!-- Node80&#45;&gt;Node8 -->
<g id="edge123" class="edge">
<title>Node80&#45;&gt;Node8</title>
<path fill="none" stroke="#191970" d="M1034.8972,-497.7771C917.7427,-480.9097 490.79,-418.3943 468.4129,-400 428.2953,-367.0229 416.3732,-302.478 412.8605,-270.0612"/>
<polygon fill="#191970" stroke="#191970" points="416.3398,-269.6756 411.9362,-260.0393 409.3694,-270.3185 416.3398,-269.6756"/>
</g>
<!-- Node80&#45;&gt;Node39 -->
<g id="edge120" class="edge">
<title>Node80&#45;&gt;Node39</title>
<path fill="none" stroke="#191970" d="M1063.7066,-492.3484C1062.2345,-472.2295 1058.8124,-425.4608 1056.855,-398.7098"/>
<polygon fill="#191970" stroke="#191970" points="1060.3363,-398.3247 1056.1158,-388.6068 1053.355,-398.8356 1060.3363,-398.3247"/>
</g>
</g>
</svg>
