<?xml version="1.0" encoding="UTF-8" standalone="no"?>
<!DOCTYPE svg PUBLIC "-//W3C//DTD SVG 1.1//EN"
 "http://www.w3.org/Graphics/SVG/1.1/DTD/svg11.dtd">
<!-- Generated by graphviz version 2.40.1 (20161225.0304)
 -->
<!-- Title: /home/alejandro/Desarrollo eclipse/os1/Thirdparty/g2o/g2o/core/base_vertex.h Pages: 1 -->
<svg width="1863pt" height="663pt"
 viewBox="0.00 0.00 1863.00 663.00" xmlns="http://www.w3.org/2000/svg" xmlns:xlink="http://www.w3.org/1999/xlink">
<g id="graph0" class="graph" transform="scale(1 1) rotate(0) translate(4 659)">
<title>/home/alejandro/Desarrollo eclipse/os1/Thirdparty/g2o/g2o/core/base_vertex.h</title>
<polygon fill="#ffffff" stroke="transparent" points="-4,4 -4,-659 1859,-659 1859,4 -4,4"/>
<!-- Node31 -->
<g id="node1" class="node">
<title>Node31</title>
<polygon fill="#bfbfbf" stroke="#000000" points="604.5,-613.5 604.5,-654.5 744.5,-654.5 744.5,-613.5 604.5,-613.5"/>
<text text-anchor="start" x="612.5" y="-642.5" font-family="Helvetica,sans-Serif" font-size="10.00" fill="#000000">/home/alejandro/Desarrollo</text>
<text text-anchor="start" x="612.5" y="-631.5" font-family="Helvetica,sans-Serif" font-size="10.00" fill="#000000"> eclipse/os1/Thirdparty</text>
<text text-anchor="middle" x="674.5" y="-620.5" font-family="Helvetica,sans-Serif" font-size="10.00" fill="#000000">/g2o/g2o/core/base_vertex.h</text>
</g>
<!-- Node32 -->
<g id="node2" class="node">
<title>Node32</title>
<g id="a_node2"><a xlink:href="types__six__dof__expmap_8h.html" target="_top" xlink:title="/home/alejandro/Desarrollo\l eclipse/os1/Thirdparty\l/g2o/g2o/types/types_six\l_dof_expmap.h">
<polygon fill="#ffffff" stroke="#000000" points="480,-446.5 480,-498.5 613,-498.5 613,-446.5 480,-446.5"/>
<text text-anchor="start" x="488" y="-486.5" font-family="Helvetica,sans-Serif" font-size="10.00" fill="#000000">/home/alejandro/Desarrollo</text>
<text text-anchor="start" x="488" y="-475.5" font-family="Helvetica,sans-Serif" font-size="10.00" fill="#000000"> eclipse/os1/Thirdparty</text>
<text text-anchor="start" x="488" y="-464.5" font-family="Helvetica,sans-Serif" font-size="10.00" fill="#000000">/g2o/g2o/types/types_six</text>
<text text-anchor="middle" x="546.5" y="-453.5" font-family="Helvetica,sans-Serif" font-size="10.00" fill="#000000">_dof_expmap.h</text>
</a>
</g>
</g>
<!-- Node31&#45;&gt;Node32 -->
<g id="edge1" class="edge">
<title>Node31&#45;&gt;Node32</title>
<path fill="none" stroke="#191970" d="M630.5538,-607.6483C618.4731,-598.9599 606.0763,-588.5324 596.5,-577 576.9702,-553.4811 563.0051,-521.0506 554.8816,-498.5823"/>
<polygon fill="#191970" stroke="#191970" points="628.6144,-610.5625 638.8283,-613.3777 632.5993,-604.8074 628.6144,-610.5625"/>
</g>
<!-- Node41 -->
<g id="node11" class="node">
<title>Node41</title>
<g id="a_node11"><a xlink:href="types__seven__dof__expmap_8h.html" target="_top" xlink:title="/home/alejandro/Desarrollo\l eclipse/os1/Thirdparty\l/g2o/g2o/types/types_seven\l_dof_expmap.h">
<polygon fill="#ffffff" stroke="#000000" points="737.5,-357.5 737.5,-409.5 877.5,-409.5 877.5,-357.5 737.5,-357.5"/>
<text text-anchor="start" x="745.5" y="-397.5" font-family="Helvetica,sans-Serif" font-size="10.00" fill="#000000">/home/alejandro/Desarrollo</text>
<text text-anchor="start" x="745.5" y="-386.5" font-family="Helvetica,sans-Serif" font-size="10.00" fill="#000000"> eclipse/os1/Thirdparty</text>
<text text-anchor="start" x="745.5" y="-375.5" font-family="Helvetica,sans-Serif" font-size="10.00" fill="#000000">/g2o/g2o/types/types_seven</text>
<text text-anchor="middle" x="807.5" y="-364.5" font-family="Helvetica,sans-Serif" font-size="10.00" fill="#000000">_dof_expmap.h</text>
</a>
</g>
</g>
<!-- Node31&#45;&gt;Node41 -->
<g id="edge46" class="edge">
<title>Node31&#45;&gt;Node41</title>
<path fill="none" stroke="#191970" d="M718.2415,-607.3321C730.0586,-598.693 742.1488,-588.3709 751.5,-577 792.1511,-527.5692 803.2999,-449.9302 806.3527,-409.6711"/>
<polygon fill="#191970" stroke="#191970" points="715.8966,-604.7022 709.7282,-613.3163 719.9221,-610.429 715.8966,-604.7022"/>
</g>
<!-- Node55 -->
<g id="node25" class="node">
<title>Node55</title>
<g id="a_node25"><a xlink:href="types__sba_8h.html" target="_top" xlink:title="/home/alejandro/Desarrollo\l eclipse/os1/Thirdparty\l/g2o/g2o/types/types_sba.h">
<polygon fill="#ffffff" stroke="#000000" points="606,-535.5 606,-576.5 743,-576.5 743,-535.5 606,-535.5"/>
<text text-anchor="start" x="614" y="-564.5" font-family="Helvetica,sans-Serif" font-size="10.00" fill="#000000">/home/alejandro/Desarrollo</text>
<text text-anchor="start" x="614" y="-553.5" font-family="Helvetica,sans-Serif" font-size="10.00" fill="#000000"> eclipse/os1/Thirdparty</text>
<text text-anchor="middle" x="674.5" y="-542.5" font-family="Helvetica,sans-Serif" font-size="10.00" fill="#000000">/g2o/g2o/types/types_sba.h</text>
</a>
</g>
</g>
<!-- Node31&#45;&gt;Node55 -->
<g id="edge43" class="edge">
<title>Node31&#45;&gt;Node55</title>
<path fill="none" stroke="#191970" d="M674.5,-603.0789C674.5,-594.2178 674.5,-584.7747 674.5,-576.6898"/>
<polygon fill="#191970" stroke="#191970" points="671.0001,-603.0974 674.5,-613.0974 678.0001,-603.0975 671.0001,-603.0974"/>
</g>
<!-- Node33 -->
<g id="node3" class="node">
<title>Node33</title>
<g id="a_node3"><a xlink:href="_converter_8h.html" target="_top" xlink:title="/home/alejandro/Desarrollo\l eclipse/os1/include/Converter.h">
<polygon fill="#ffffff" stroke="#000000" points="358,-201.5 358,-231.5 515,-231.5 515,-201.5 358,-201.5"/>
<text text-anchor="start" x="366" y="-219.5" font-family="Helvetica,sans-Serif" font-size="10.00" fill="#000000">/home/alejandro/Desarrollo</text>
<text text-anchor="middle" x="436.5" y="-208.5" font-family="Helvetica,sans-Serif" font-size="10.00" fill="#000000"> eclipse/os1/include/Converter.h</text>
</a>
</g>
</g>
<!-- Node32&#45;&gt;Node33 -->
<g id="edge2" class="edge">
<title>Node32&#45;&gt;Node33</title>
<path fill="none" stroke="#191970" d="M484.1163,-440.6141C472.9054,-432.1435 462.558,-421.9519 455.5,-410 421.0859,-351.7233 428.9235,-266.0373 433.9394,-231.6235"/>
<polygon fill="#191970" stroke="#191970" points="482.2138,-443.5556 492.3975,-446.4785 486.2593,-437.8429 482.2138,-443.5556"/>
</g>
<!-- Node38 -->
<g id="node8" class="node">
<title>Node38</title>
<g id="a_node8"><a xlink:href="_optimizer_8cc.html" target="_top" xlink:title="/home/alejandro/Desarrollo\l eclipse/os1/src/Optimizer.cc">
<polygon fill="#ffffff" stroke="#000000" points="556.5,-134.5 556.5,-164.5 700.5,-164.5 700.5,-134.5 556.5,-134.5"/>
<text text-anchor="start" x="564.5" y="-152.5" font-family="Helvetica,sans-Serif" font-size="10.00" fill="#000000">/home/alejandro/Desarrollo</text>
<text text-anchor="middle" x="628.5" y="-141.5" font-family="Helvetica,sans-Serif" font-size="10.00" fill="#000000"> eclipse/os1/src/Optimizer.cc</text>
</a>
</g>
</g>
<!-- Node32&#45;&gt;Node38 -->
<g id="edge41" class="edge">
<title>Node32&#45;&gt;Node38</title>
<path fill="none" stroke="#191970" d="M586.3764,-439.1559C594.3337,-430.5006 601.7072,-420.6005 606.5,-410 645.2989,-324.1861 635.6549,-206.3397 630.6081,-164.767"/>
<polygon fill="#191970" stroke="#191970" points="583.7603,-436.8254 579.2835,-446.4279 588.7714,-441.713 583.7603,-436.8254"/>
</g>
<!-- Node32&#45;&gt;Node41 -->
<g id="edge10" class="edge">
<title>Node32&#45;&gt;Node41</title>
<path fill="none" stroke="#191970" d="M622.8099,-445.9041C666.0788,-431.0707 704.9615,-417.9234 737.167,-407.0826"/>
<polygon fill="#191970" stroke="#191970" points="621.5381,-442.6402 613.2154,-449.1963 623.8101,-449.2612 621.5381,-442.6402"/>
</g>
<!-- Node54 -->
<g id="node24" class="node">
<title>Node54</title>
<g id="a_node24"><a xlink:href="types__six__dof__expmap_8cpp.html" target="_top" xlink:title="/home/alejandro/Desarrollo\l eclipse/os1/Thirdparty\l/g2o/g2o/types/types_six\l_dof_expmap.cpp">
<polygon fill="#ffffff" stroke="#000000" points="465,-357.5 465,-409.5 598,-409.5 598,-357.5 465,-357.5"/>
<text text-anchor="start" x="473" y="-397.5" font-family="Helvetica,sans-Serif" font-size="10.00" fill="#000000">/home/alejandro/Desarrollo</text>
<text text-anchor="start" x="473" y="-386.5" font-family="Helvetica,sans-Serif" font-size="10.00" fill="#000000"> eclipse/os1/Thirdparty</text>
<text text-anchor="start" x="473" y="-375.5" font-family="Helvetica,sans-Serif" font-size="10.00" fill="#000000">/g2o/g2o/types/types_six</text>
<text text-anchor="middle" x="531.5" y="-364.5" font-family="Helvetica,sans-Serif" font-size="10.00" fill="#000000">_dof_expmap.cpp</text>
</a>
</g>
</g>
<!-- Node32&#45;&gt;Node54 -->
<g id="edge42" class="edge">
<title>Node32&#45;&gt;Node54</title>
<path fill="none" stroke="#191970" d="M540.4167,-436.4059C538.9005,-427.4097 537.3041,-417.9379 535.8878,-409.5341"/>
<polygon fill="#191970" stroke="#191970" points="536.9673,-436.9992 542.0806,-446.2784 543.8699,-435.8358 536.9673,-436.9992"/>
</g>
<!-- Node34 -->
<g id="node4" class="node">
<title>Node34</title>
<g id="a_node4"><a xlink:href="_converter_8cc.html" target="_top" xlink:title="/home/alejandro/Desarrollo\l eclipse/os1/src/Converter.cc">
<polygon fill="#ffffff" stroke="#000000" points="204,-134.5 204,-164.5 349,-164.5 349,-134.5 204,-134.5"/>
<text text-anchor="start" x="212" y="-152.5" font-family="Helvetica,sans-Serif" font-size="10.00" fill="#000000">/home/alejandro/Desarrollo</text>
<text text-anchor="middle" x="276.5" y="-141.5" font-family="Helvetica,sans-Serif" font-size="10.00" fill="#000000"> eclipse/os1/src/Converter.cc</text>
</a>
</g>
</g>
<!-- Node33&#45;&gt;Node34 -->
<g id="edge3" class="edge">
<title>Node33&#45;&gt;Node34</title>
<path fill="none" stroke="#191970" d="M391.341,-197.5897C366.4147,-187.1518 335.8801,-174.3654 312.5637,-164.6017"/>
<polygon fill="#191970" stroke="#191970" points="390.017,-200.8297 400.5929,-201.4639 392.7208,-194.3729 390.017,-200.8297"/>
</g>
<!-- Node35 -->
<g id="node5" class="node">
<title>Node35</title>
<g id="a_node5"><a xlink:href="_frame_8cc.html" target="_top" xlink:title="/home/alejandro/Desarrollo\l eclipse/os1/src/Frame.cc">
<polygon fill="#ffffff" stroke="#000000" points="367,-134.5 367,-164.5 500,-164.5 500,-134.5 367,-134.5"/>
<text text-anchor="start" x="375" y="-152.5" font-family="Helvetica,sans-Serif" font-size="10.00" fill="#000000">/home/alejandro/Desarrollo</text>
<text text-anchor="middle" x="433.5" y="-141.5" font-family="Helvetica,sans-Serif" font-size="10.00" fill="#000000"> eclipse/os1/src/Frame.cc</text>
</a>
</g>
</g>
<!-- Node33&#45;&gt;Node35 -->
<g id="edge4" class="edge">
<title>Node33&#45;&gt;Node35</title>
<path fill="none" stroke="#191970" d="M435.3593,-191.0249C434.961,-182.128 434.5267,-172.4287 434.1781,-164.6432"/>
<polygon fill="#191970" stroke="#191970" points="431.8754,-191.4633 435.8193,-201.2967 438.8683,-191.1501 431.8754,-191.4633"/>
</g>
<!-- Node36 -->
<g id="node6" class="node">
<title>Node36</title>
<g id="a_node6"><a xlink:href="_key_frame_8cc.html" target="_top" xlink:title="/home/alejandro/Desarrollo\l eclipse/os1/src/KeyFrame.cc">
<polygon fill="#ffffff" stroke="#000000" points="0,-134.5 0,-164.5 147,-164.5 147,-134.5 0,-134.5"/>
<text text-anchor="start" x="8" y="-152.5" font-family="Helvetica,sans-Serif" font-size="10.00" fill="#000000">/home/alejandro/Desarrollo</text>
<text text-anchor="middle" x="73.5" y="-141.5" font-family="Helvetica,sans-Serif" font-size="10.00" fill="#000000"> eclipse/os1/src/KeyFrame.cc</text>
</a>
</g>
</g>
<!-- Node33&#45;&gt;Node36 -->
<g id="edge5" class="edge">
<title>Node33&#45;&gt;Node36</title>
<path fill="none" stroke="#191970" d="M347.6427,-200.0993C286.0922,-188.7388 205.1201,-173.7935 147.1635,-163.0963"/>
<polygon fill="#191970" stroke="#191970" points="347.2652,-203.5887 357.7344,-201.962 348.5358,-196.705 347.2652,-203.5887"/>
</g>
<!-- Node37 -->
<g id="node7" class="node">
<title>Node37</title>
<g id="a_node7"><a xlink:href="_loop_closing_8cc.html" target="_top" xlink:title="/home/alejandro/Desarrollo\l eclipse/os1/src/LoopClosing.cc">
<polygon fill="#ffffff" stroke="#000000" points="718.5,-134.5 718.5,-164.5 874.5,-164.5 874.5,-134.5 718.5,-134.5"/>
<text text-anchor="start" x="726.5" y="-152.5" font-family="Helvetica,sans-Serif" font-size="10.00" fill="#000000">/home/alejandro/Desarrollo</text>
<text text-anchor="middle" x="796.5" y="-141.5" font-family="Helvetica,sans-Serif" font-size="10.00" fill="#000000"> eclipse/os1/src/LoopClosing.cc</text>
</a>
</g>
</g>
<!-- Node33&#45;&gt;Node37 -->
<g id="edge6" class="edge">
<title>Node33&#45;&gt;Node37</title>
<path fill="none" stroke="#191970" d="M525.1479,-200.0016C584.3617,-188.9813 661.5222,-174.6209 718.4187,-164.0318"/>
<polygon fill="#191970" stroke="#191970" points="524.2494,-196.6087 515.0587,-201.8794 525.5303,-203.4905 524.2494,-196.6087"/>
</g>
<!-- Node33&#45;&gt;Node38 -->
<g id="edge7" class="edge">
<title>Node33&#45;&gt;Node38</title>
<path fill="none" stroke="#191970" d="M489.116,-198.1392C519.3083,-187.6033 556.7508,-174.5375 585.2235,-164.6017"/>
<polygon fill="#191970" stroke="#191970" points="487.877,-194.8645 479.5885,-201.4639 490.1834,-201.4737 487.877,-194.8645"/>
</g>
<!-- Node39 -->
<g id="node9" class="node">
<title>Node39</title>
<g id="a_node9"><a xlink:href="_system_8cc.html" target="_top" xlink:title="/home/alejandro/Desarrollo\l eclipse/os1/src/System.cc">
<polygon fill="#ffffff" stroke="#000000" points="1186.5,-67.5 1186.5,-97.5 1322.5,-97.5 1322.5,-67.5 1186.5,-67.5"/>
<text text-anchor="start" x="1194.5" y="-85.5" font-family="Helvetica,sans-Serif" font-size="10.00" fill="#000000">/home/alejandro/Desarrollo</text>
<text text-anchor="middle" x="1254.5" y="-74.5" font-family="Helvetica,sans-Serif" font-size="10.00" fill="#000000"> eclipse/os1/src/System.cc</text>
</a>
</g>
</g>
<!-- Node33&#45;&gt;Node39 -->
<g id="edge8" class="edge">
<title>Node33&#45;&gt;Node39</title>
<path fill="none" stroke="#191970" d="M466.3245,-195.6775C479.3804,-186.4315 494.812,-175.325 508.5,-165 526.177,-151.666 526.8737,-142.0515 547.5,-134 576.949,-122.5045 1014.697,-96.279 1186.2562,-86.3795"/>
<polygon fill="#191970" stroke="#191970" points="464.2842,-192.8335 458.1301,-201.4578 468.3191,-198.5536 464.2842,-192.8335"/>
</g>
<!-- Node40 -->
<g id="node10" class="node">
<title>Node40</title>
<g id="a_node10"><a xlink:href="_tracking_8cc.html" target="_top" xlink:title="/home/alejandro/Desarrollo\l eclipse/os1/src/Tracking.cc">
<polygon fill="#ffffff" stroke="#000000" points="832.5,-67.5 832.5,-97.5 972.5,-97.5 972.5,-67.5 832.5,-67.5"/>
<text text-anchor="start" x="840.5" y="-85.5" font-family="Helvetica,sans-Serif" font-size="10.00" fill="#000000">/home/alejandro/Desarrollo</text>
<text text-anchor="middle" x="902.5" y="-74.5" font-family="Helvetica,sans-Serif" font-size="10.00" fill="#000000"> eclipse/os1/src/Tracking.cc</text>
</a>
</g>
</g>
<!-- Node33&#45;&gt;Node40 -->
<g id="edge9" class="edge">
<title>Node33&#45;&gt;Node40</title>
<path fill="none" stroke="#191970" d="M347.7129,-209.1788C286.8666,-202.1055 213.7982,-188.8372 194.5,-165 185.8307,-154.2916 185.1177,-144.0896 194.5,-134 216.0187,-110.8592 657.6121,-91.7377 832.2784,-85.0516"/>
<polygon fill="#191970" stroke="#191970" points="347.4223,-212.668 357.7498,-210.3032 348.2017,-205.7116 347.4223,-212.668"/>
</g>
<!-- Node41&#45;&gt;Node33 -->
<g id="edge11" class="edge">
<title>Node41&#45;&gt;Node33</title>
<path fill="none" stroke="#191970" d="M727.5673,-354.3967C701.2138,-344.3421 671.9013,-332.6614 645.5,-321 579.4463,-291.8243 504.2055,-252.6995 464.4877,-231.5664"/>
<polygon fill="#191970" stroke="#191970" points="726.5404,-357.7504 737.1317,-358.0243 729.0229,-351.2054 726.5404,-357.7504"/>
</g>
<!-- Node41&#45;&gt;Node38 -->
<g id="edge39" class="edge">
<title>Node41&#45;&gt;Node38</title>
<path fill="none" stroke="#191970" d="M814.3469,-347.2992C817.0107,-323.3331 816.778,-292.0135 803.5,-268 774.7369,-215.9814 712.298,-182.3453 670.3226,-164.6573"/>
<polygon fill="#191970" stroke="#191970" points="810.8513,-347.035 813.0069,-357.4083 817.7907,-347.9549 810.8513,-347.035"/>
</g>
<!-- Node42 -->
<g id="node12" class="node">
<title>Node42</title>
<g id="a_node12"><a xlink:href="_loop_closing_8h.html" target="_top" xlink:title="/home/alejandro/Desarrollo\l eclipse/os1/include/LoopClosing.h">
<polygon fill="#ffffff" stroke="#000000" points="1123.5,-279.5 1123.5,-309.5 1291.5,-309.5 1291.5,-279.5 1123.5,-279.5"/>
<text text-anchor="start" x="1131.5" y="-297.5" font-family="Helvetica,sans-Serif" font-size="10.00" fill="#000000">/home/alejandro/Desarrollo</text>
<text text-anchor="middle" x="1207.5" y="-286.5" font-family="Helvetica,sans-Serif" font-size="10.00" fill="#000000"> eclipse/os1/include/LoopClosing.h</text>
</a>
</g>
</g>
<!-- Node41&#45;&gt;Node42 -->
<g id="edge12" class="edge">
<title>Node41&#45;&gt;Node42</title>
<path fill="none" stroke="#191970" d="M887.826,-365.6275C961.7441,-349.1807 1070.1571,-325.0588 1139.7856,-309.5665"/>
<polygon fill="#191970" stroke="#191970" points="886.6335,-362.3071 877.6324,-367.8955 888.1539,-369.14 886.6335,-362.3071"/>
</g>
<!-- Node51 -->
<g id="node21" class="node">
<title>Node51</title>
<g id="a_node21"><a xlink:href="_optimizer_8h.html" target="_top" xlink:title="/home/alejandro/Desarrollo\l eclipse/os1/include/Optimizer.h">
<polygon fill="#ffffff" stroke="#000000" points="888.5,-201.5 888.5,-231.5 1044.5,-231.5 1044.5,-201.5 888.5,-201.5"/>
<text text-anchor="start" x="896.5" y="-219.5" font-family="Helvetica,sans-Serif" font-size="10.00" fill="#000000">/home/alejandro/Desarrollo</text>
<text text-anchor="middle" x="966.5" y="-208.5" font-family="Helvetica,sans-Serif" font-size="10.00" fill="#000000"> eclipse/os1/include/Optimizer.h</text>
</a>
</g>
</g>
<!-- Node41&#45;&gt;Node51 -->
<g id="edge38" class="edge">
<title>Node41&#45;&gt;Node51</title>
<path fill="none" stroke="#191970" d="M839.3416,-350.0563C873.5394,-314.1379 926.3858,-258.6326 951.8267,-231.9116"/>
<polygon fill="#191970" stroke="#191970" points="836.7044,-347.7504 832.3438,-357.4063 841.7741,-352.5772 836.7044,-347.7504"/>
</g>
<!-- Node53 -->
<g id="node23" class="node">
<title>Node53</title>
<g id="a_node23"><a xlink:href="types__seven__dof__expmap_8cpp.html" target="_top" xlink:title="/home/alejandro/Desarrollo\l eclipse/os1/Thirdparty\l/g2o/g2o/types/types_seven\l_dof_expmap.cpp">
<polygon fill="#ffffff" stroke="#000000" points="654.5,-268.5 654.5,-320.5 794.5,-320.5 794.5,-268.5 654.5,-268.5"/>
<text text-anchor="start" x="662.5" y="-308.5" font-family="Helvetica,sans-Serif" font-size="10.00" fill="#000000">/home/alejandro/Desarrollo</text>
<text text-anchor="start" x="662.5" y="-297.5" font-family="Helvetica,sans-Serif" font-size="10.00" fill="#000000"> eclipse/os1/Thirdparty</text>
<text text-anchor="start" x="662.5" y="-286.5" font-family="Helvetica,sans-Serif" font-size="10.00" fill="#000000">/g2o/g2o/types/types_seven</text>
<text text-anchor="middle" x="724.5" y="-275.5" font-family="Helvetica,sans-Serif" font-size="10.00" fill="#000000">_dof_expmap.cpp</text>
</a>
</g>
</g>
<!-- Node41&#45;&gt;Node53 -->
<g id="edge40" class="edge">
<title>Node41&#45;&gt;Node53</title>
<path fill="none" stroke="#191970" d="M775.9935,-349.7159C766.9766,-340.0472 757.2904,-329.6608 748.779,-320.5341"/>
<polygon fill="#191970" stroke="#191970" points="773.6662,-352.3522 783.0462,-357.2784 778.7856,-347.578 773.6662,-352.3522"/>
</g>
<!-- Node42&#45;&gt;Node37 -->
<g id="edge36" class="edge">
<title>Node42&#45;&gt;Node37</title>
<path fill="none" stroke="#191970" d="M1113.2307,-282.7852C1031.1466,-271.4574 919.2465,-252.9627 879.5,-232 848.4104,-215.603 821.4358,-183.6915 807.2126,-164.7224"/>
<polygon fill="#191970" stroke="#191970" points="1112.9572,-286.2802 1123.3387,-284.1648 1113.9039,-279.3445 1112.9572,-286.2802"/>
</g>
<!-- Node42&#45;&gt;Node39 -->
<g id="edge37" class="edge">
<title>Node42&#45;&gt;Node39</title>
<path fill="none" stroke="#191970" d="M1208.7548,-269.3787C1210.6163,-249.7774 1215.2084,-222.3803 1226.5,-201 1236.9213,-181.2675 1253.1057,-185.6763 1261.5,-165 1270.4759,-142.8911 1264.8679,-114.7658 1259.8154,-97.7228"/>
<polygon fill="#191970" stroke="#191970" points="1205.2631,-269.1371 1207.9764,-279.3786 1212.242,-269.6804 1205.2631,-269.1371"/>
</g>
<!-- Node43 -->
<g id="node13" class="node">
<title>Node43</title>
<g id="a_node13"><a xlink:href="_local_mapping_8h.html" target="_top" xlink:title="/home/alejandro/Desarrollo\l eclipse/os1/include/LocalMapping.h">
<polygon fill="#ffffff" stroke="#000000" points="1235.5,-201.5 1235.5,-231.5 1409.5,-231.5 1409.5,-201.5 1235.5,-201.5"/>
<text text-anchor="start" x="1243.5" y="-219.5" font-family="Helvetica,sans-Serif" font-size="10.00" fill="#000000">/home/alejandro/Desarrollo</text>
<text text-anchor="middle" x="1322.5" y="-208.5" font-family="Helvetica,sans-Serif" font-size="10.00" fill="#000000"> eclipse/os1/include/LocalMapping.h</text>
</a>
</g>
</g>
<!-- Node42&#45;&gt;Node43 -->
<g id="edge13" class="edge">
<title>Node42&#45;&gt;Node43</title>
<path fill="none" stroke="#191970" d="M1232.6419,-273.3236C1250.9502,-260.1864 1275.5855,-243.6117 1294.5173,-231.7592"/>
<polygon fill="#191970" stroke="#191970" points="1230.238,-270.7444 1224.2151,-279.4608 1234.3591,-276.4028 1230.238,-270.7444"/>
</g>
<!-- Node44 -->
<g id="node14" class="node">
<title>Node44</title>
<g id="a_node14"><a xlink:href="_tracking_8h.html" target="_top" xlink:title="/home/alejandro/Desarrollo\l eclipse/os1/include/Tracking.h">
<polygon fill="#ffffff" stroke="#000000" points="1360.5,-134.5 1360.5,-164.5 1512.5,-164.5 1512.5,-134.5 1360.5,-134.5"/>
<text text-anchor="start" x="1368.5" y="-152.5" font-family="Helvetica,sans-Serif" font-size="10.00" fill="#000000">/home/alejandro/Desarrollo</text>
<text text-anchor="middle" x="1436.5" y="-141.5" font-family="Helvetica,sans-Serif" font-size="10.00" fill="#000000"> eclipse/os1/include/Tracking.h</text>
</a>
</g>
</g>
<!-- Node42&#45;&gt;Node44 -->
<g id="edge28" class="edge">
<title>Node42&#45;&gt;Node44</title>
<path fill="none" stroke="#191970" d="M1290.3744,-277.2127C1338.4128,-266.0332 1392.5888,-250.196 1409.5,-232 1426.5659,-213.6376 1428.8641,-182.9962 1431.1911,-164.6727"/>
<polygon fill="#191970" stroke="#191970" points="1289.5175,-273.8181 1280.5473,-279.4562 1291.0755,-280.6426 1289.5175,-273.8181"/>
</g>
<!-- Node50 -->
<g id="node20" class="node">
<title>Node50</title>
<g id="a_node20"><a xlink:href="_local_mapping_8cc.html" target="_top" xlink:title="/home/alejandro/Desarrollo\l eclipse/os1/src/LocalMapping.cc">
<polygon fill="#ffffff" stroke="#000000" points="1090.5,-134.5 1090.5,-164.5 1252.5,-164.5 1252.5,-134.5 1090.5,-134.5"/>
<text text-anchor="start" x="1098.5" y="-152.5" font-family="Helvetica,sans-Serif" font-size="10.00" fill="#000000">/home/alejandro/Desarrollo</text>
<text text-anchor="middle" x="1171.5" y="-141.5" font-family="Helvetica,sans-Serif" font-size="10.00" fill="#000000"> eclipse/os1/src/LocalMapping.cc</text>
</a>
</g>
</g>
<!-- Node42&#45;&gt;Node50 -->
<g id="edge35" class="edge">
<title>Node42&#45;&gt;Node50</title>
<path fill="none" stroke="#191970" d="M1201.2825,-269.4572C1193.7783,-239.232 1181.401,-189.3792 1175.2339,-164.5392"/>
<polygon fill="#191970" stroke="#191970" points="1197.9089,-270.3946 1203.7154,-279.2565 1204.7026,-268.7078 1197.9089,-270.3946"/>
</g>
<!-- Node42&#45;&gt;Node51 -->
<g id="edge29" class="edge">
<title>Node42&#45;&gt;Node51</title>
<path fill="none" stroke="#191970" d="M1151.5108,-276.379C1109.5456,-262.7969 1052.7779,-244.424 1013.2351,-231.6259"/>
<polygon fill="#191970" stroke="#191970" points="1150.4409,-279.7114 1161.0328,-279.4608 1152.5964,-273.0516 1150.4409,-279.7114"/>
</g>
<!-- Node43&#45;&gt;Node39 -->
<g id="edge27" class="edge">
<title>Node43&#45;&gt;Node39</title>
<path fill="none" stroke="#191970" d="M1316.3887,-191.594C1311.6998,-174.7438 1304.3549,-152.3089 1294.5,-134 1287.4172,-120.8413 1277.0038,-107.5602 1268.5775,-97.7815"/>
<polygon fill="#191970" stroke="#191970" points="1313.0113,-192.5125 1318.9637,-201.2772 1319.7762,-190.7136 1313.0113,-192.5125"/>
</g>
<!-- Node43&#45;&gt;Node42 -->
<g id="edge14" class="edge">
<title>Node43&#45;&gt;Node42</title>
<path fill="none" stroke="#191970" d="M1297.0168,-237.9212C1278.6305,-251.1007 1253.9918,-267.6672 1235.1312,-279.4608"/>
<polygon fill="#191970" stroke="#191970" points="1299.4599,-240.4721 1305.4878,-231.7592 1295.3421,-234.8114 1299.4599,-240.4721"/>
</g>
<!-- Node43&#45;&gt;Node44 -->
<g id="edge15" class="edge">
<title>Node43&#45;&gt;Node44</title>
<path fill="none" stroke="#191970" d="M1350.9807,-196.0761C1367.385,-185.9774 1387.9367,-173.9983 1404.8446,-164.7177"/>
<polygon fill="#191970" stroke="#191970" points="1348.9755,-193.2017 1342.3433,-201.4639 1352.6804,-199.1409 1348.9755,-193.2017"/>
</g>
<!-- Node43&#45;&gt;Node50 -->
<g id="edge26" class="edge">
<title>Node43&#45;&gt;Node50</title>
<path fill="none" stroke="#191970" d="M1279.2582,-197.3132C1255.8497,-186.9267 1227.3461,-174.2794 1205.5351,-164.6017"/>
<polygon fill="#191970" stroke="#191970" points="1278.0525,-200.6073 1288.6127,-201.4639 1280.8916,-194.2089 1278.0525,-200.6073"/>
</g>
<!-- Node44&#45;&gt;Node39 -->
<g id="edge23" class="edge">
<title>Node44&#45;&gt;Node39</title>
<path fill="none" stroke="#191970" d="M1386.2524,-131.0023C1357.6975,-120.4903 1322.3954,-107.4945 1295.5225,-97.6017"/>
<polygon fill="#191970" stroke="#191970" points="1385.0622,-134.2937 1395.6556,-134.4639 1387.4805,-127.7247 1385.0622,-134.2937"/>
</g>
<!-- Node44&#45;&gt;Node40 -->
<g id="edge24" class="edge">
<title>Node44&#45;&gt;Node40</title>
<path fill="none" stroke="#191970" d="M1350.3324,-138.6887C1245.2718,-125.507 1069.7388,-103.4831 972.5708,-91.2917"/>
<polygon fill="#191970" stroke="#191970" points="1349.9166,-142.1639 1360.2746,-139.9361 1350.7881,-135.2184 1349.9166,-142.1639"/>
</g>
<!-- Node44&#45;&gt;Node42 -->
<g id="edge16" class="edge">
<title>Node44&#45;&gt;Node42</title>
<path fill="none" stroke="#191970" d="M1444.8608,-174.8321C1445.6754,-192.9433 1441.6994,-216.7219 1427.5,-232 1408.9685,-251.9394 1345.6897,-269.0462 1291.6696,-280.2956"/>
<polygon fill="#191970" stroke="#191970" points="1448.3215,-174.2668 1443.8265,-164.6727 1441.3575,-174.9758 1448.3215,-174.2668"/>
</g>
<!-- Node44&#45;&gt;Node43 -->
<g id="edge17" class="edge">
<title>Node44&#45;&gt;Node43</title>
<path fill="none" stroke="#191970" d="M1407.6972,-170.1222C1391.2389,-180.2452 1370.6843,-192.2188 1353.8244,-201.4639"/>
<polygon fill="#191970" stroke="#191970" points="1409.7338,-172.977 1416.3697,-164.7177 1406.0316,-167.0361 1409.7338,-172.977"/>
</g>
<!-- Node45 -->
<g id="node15" class="node">
<title>Node45</title>
<g id="a_node15"><a xlink:href="_osmap_8h.html" target="_top" xlink:title="/home/alejandro/Desarrollo\l eclipse/os1/include/Osmap.h">
<polygon fill="#ffffff" stroke="#000000" points="1378.5,-67.5 1378.5,-97.5 1524.5,-97.5 1524.5,-67.5 1378.5,-67.5"/>
<text text-anchor="start" x="1386.5" y="-85.5" font-family="Helvetica,sans-Serif" font-size="10.00" fill="#000000">/home/alejandro/Desarrollo</text>
<text text-anchor="middle" x="1451.5" y="-74.5" font-family="Helvetica,sans-Serif" font-size="10.00" fill="#000000"> eclipse/os1/include/Osmap.h</text>
</a>
</g>
</g>
<!-- Node44&#45;&gt;Node45 -->
<g id="edge18" class="edge">
<title>Node44&#45;&gt;Node45</title>
<path fill="none" stroke="#191970" d="M1442.1378,-124.3179C1444.1474,-115.3414 1446.3475,-105.5143 1448.1097,-97.6432"/>
<polygon fill="#191970" stroke="#191970" points="1438.6731,-123.7735 1439.9037,-134.2967 1445.504,-125.3029 1438.6731,-123.7735"/>
</g>
<!-- Node46 -->
<g id="node16" class="node">
<title>Node46</title>
<g id="a_node16"><a xlink:href="main_8cc.html" target="_top" xlink:title="/home/alejandro/Desarrollo\l eclipse/os1/src/main.cc">
<polygon fill="#ffffff" stroke="#000000" points="1284,-.5 1284,-30.5 1417,-30.5 1417,-.5 1284,-.5"/>
<text text-anchor="start" x="1292" y="-18.5" font-family="Helvetica,sans-Serif" font-size="10.00" fill="#000000">/home/alejandro/Desarrollo</text>
<text text-anchor="middle" x="1350.5" y="-7.5" font-family="Helvetica,sans-Serif" font-size="10.00" fill="#000000"> eclipse/os1/src/main.cc</text>
</a>
</g>
</g>
<!-- Node44&#45;&gt;Node46 -->
<g id="edge22" class="edge">
<title>Node44&#45;&gt;Node46</title>
<path fill="none" stroke="#191970" d="M1400.0443,-128.491C1388.7239,-120.3144 1377.2077,-110.0011 1369.5,-98 1356.1563,-77.2236 1352.1436,-48.1864 1350.9616,-30.6784"/>
<polygon fill="#191970" stroke="#191970" points="1398.3621,-131.58 1408.5966,-134.3197 1402.3044,-125.7957 1398.3621,-131.58"/>
</g>
<!-- Node48 -->
<g id="node18" class="node">
<title>Node48</title>
<g id="a_node18"><a xlink:href="_frame_drawer_8cc.html" target="_top" xlink:title="/home/alejandro/Desarrollo\l eclipse/os1/src/FrameDrawer.cc">
<polygon fill="#ffffff" stroke="#000000" points="1543,-67.5 1543,-97.5 1704,-97.5 1704,-67.5 1543,-67.5"/>
<text text-anchor="start" x="1551" y="-85.5" font-family="Helvetica,sans-Serif" font-size="10.00" fill="#000000">/home/alejandro/Desarrollo</text>
<text text-anchor="middle" x="1623.5" y="-74.5" font-family="Helvetica,sans-Serif" font-size="10.00" fill="#000000"> eclipse/os1/src/FrameDrawer.cc</text>
</a>
</g>
</g>
<!-- Node44&#45;&gt;Node48 -->
<g id="edge21" class="edge">
<title>Node44&#45;&gt;Node48</title>
<path fill="none" stroke="#191970" d="M1488.128,-131.0023C1517.4674,-120.4903 1553.7393,-107.4945 1581.3505,-97.6017"/>
<polygon fill="#191970" stroke="#191970" points="1486.6999,-127.796 1478.4665,-134.4639 1489.061,-134.3858 1486.6999,-127.796"/>
</g>
<!-- Node49 -->
<g id="node19" class="node">
<title>Node49</title>
<g id="a_node19"><a xlink:href="_viewer_8cc.html" target="_top" xlink:title="/home/alejandro/Desarrollo\l eclipse/os1/src/Viewer.cc">
<polygon fill="#ffffff" stroke="#000000" points="1722,-67.5 1722,-97.5 1855,-97.5 1855,-67.5 1722,-67.5"/>
<text text-anchor="start" x="1730" y="-85.5" font-family="Helvetica,sans-Serif" font-size="10.00" fill="#000000">/home/alejandro/Desarrollo</text>
<text text-anchor="middle" x="1788.5" y="-74.5" font-family="Helvetica,sans-Serif" font-size="10.00" fill="#000000"> eclipse/os1/src/Viewer.cc</text>
</a>
</g>
</g>
<!-- Node44&#45;&gt;Node49 -->
<g id="edge25" class="edge">
<title>Node44&#45;&gt;Node49</title>
<path fill="none" stroke="#191970" d="M1522.7103,-133.9295C1577.4184,-123.9355 1649.6745,-110.5272 1713.5,-98 1716.2399,-97.4622 1719.0349,-96.9084 1721.8577,-96.3447"/>
<polygon fill="#191970" stroke="#191970" points="1521.9147,-130.5168 1512.7053,-135.7549 1523.1711,-137.4032 1521.9147,-130.5168"/>
</g>
<!-- Node45&#45;&gt;Node46 -->
<g id="edge19" class="edge">
<title>Node45&#45;&gt;Node46</title>
<path fill="none" stroke="#191970" d="M1420.2881,-61.7951C1405.1543,-51.7558 1387.3008,-39.9124 1373.4402,-30.7177"/>
<polygon fill="#191970" stroke="#191970" points="1418.5656,-64.8525 1428.8336,-67.4639 1422.4352,-59.0193 1418.5656,-64.8525"/>
</g>
<!-- Node47 -->
<g id="node17" class="node">
<title>Node47</title>
<g id="a_node17"><a xlink:href="_osmap_8cpp.html" target="_top" xlink:title="/home/alejandro/Desarrollo\l eclipse/os1/src/Osmap.cpp">
<polygon fill="#ffffff" stroke="#000000" points="1435,-.5 1435,-30.5 1574,-30.5 1574,-.5 1435,-.5"/>
<text text-anchor="start" x="1443" y="-18.5" font-family="Helvetica,sans-Serif" font-size="10.00" fill="#000000">/home/alejandro/Desarrollo</text>
<text text-anchor="middle" x="1504.5" y="-7.5" font-family="Helvetica,sans-Serif" font-size="10.00" fill="#000000"> eclipse/os1/src/Osmap.cpp</text>
</a>
</g>
</g>
<!-- Node45&#45;&gt;Node47 -->
<g id="edge20" class="edge">
<title>Node45&#45;&gt;Node47</title>
<path fill="none" stroke="#191970" d="M1469.812,-59.3509C1477.3291,-49.8482 1485.8209,-39.1132 1492.5211,-30.6432"/>
<polygon fill="#191970" stroke="#191970" points="1466.9856,-57.2824 1463.5265,-67.2967 1472.4756,-61.6252 1466.9856,-57.2824"/>
</g>
<!-- Node51&#45;&gt;Node37 -->
<g id="edge32" class="edge">
<title>Node51&#45;&gt;Node37</title>
<path fill="none" stroke="#191970" d="M918.8682,-197.7275C892.3204,-187.2645 859.7005,-174.4084 834.8177,-164.6017"/>
<polygon fill="#191970" stroke="#191970" points="917.7618,-201.0534 928.3487,-201.4639 920.3285,-194.5409 917.7618,-201.0534"/>
</g>
<!-- Node51&#45;&gt;Node38 -->
<g id="edge33" class="edge">
<title>Node51&#45;&gt;Node38</title>
<path fill="none" stroke="#191970" d="M880.7998,-199.5121C825.1275,-188.4765 753.3731,-174.2529 700.6273,-163.7974"/>
<polygon fill="#191970" stroke="#191970" points="880.1565,-202.9526 890.6462,-201.4639 881.5176,-196.0862 880.1565,-202.9526"/>
</g>
<!-- Node51&#45;&gt;Node40 -->
<g id="edge34" class="edge">
<title>Node51&#45;&gt;Node40</title>
<path fill="none" stroke="#191970" d="M942.6421,-194.0957C934.8736,-185.6497 926.8758,-175.5242 921.5,-165 910.3345,-143.1412 905.651,-114.6932 903.744,-97.5549"/>
<polygon fill="#191970" stroke="#191970" points="940.1695,-196.5737 949.6301,-201.3432 945.2087,-191.715 940.1695,-196.5737"/>
</g>
<!-- Node51&#45;&gt;Node50 -->
<g id="edge31" class="edge">
<title>Node51&#45;&gt;Node50</title>
<path fill="none" stroke="#191970" d="M1022.2603,-198.2759C1054.5689,-187.7165 1094.7612,-174.5805 1125.2933,-164.6017"/>
<polygon fill="#191970" stroke="#191970" points="1020.9239,-195.0304 1012.506,-201.4639 1023.0986,-201.6841 1020.9239,-195.0304"/>
</g>
<!-- Node52 -->
<g id="node22" class="node">
<title>Node52</title>
<g id="a_node22"><a xlink:href="_initializer_8cc.html" target="_top" xlink:title="/home/alejandro/Desarrollo\l eclipse/os1/src/Initializer.cc">
<polygon fill="#ffffff" stroke="#000000" points="931,-134.5 931,-164.5 1072,-164.5 1072,-134.5 931,-134.5"/>
<text text-anchor="start" x="939" y="-152.5" font-family="Helvetica,sans-Serif" font-size="10.00" fill="#000000">/home/alejandro/Desarrollo</text>
<text text-anchor="middle" x="1001.5" y="-141.5" font-family="Helvetica,sans-Serif" font-size="10.00" fill="#000000"> eclipse/os1/src/Initializer.cc</text>
</a>
</g>
</g>
<!-- Node51&#45;&gt;Node52 -->
<g id="edge30" class="edge">
<title>Node51&#45;&gt;Node52</title>
<path fill="none" stroke="#191970" d="M979.1976,-192.1932C984.0082,-182.9844 989.3435,-172.771 993.5894,-164.6432"/>
<polygon fill="#191970" stroke="#191970" points="975.97,-190.8126 974.442,-201.2967 982.1745,-194.0537 975.97,-190.8126"/>
</g>
<!-- Node55&#45;&gt;Node32 -->
<g id="edge44" class="edge">
<title>Node55&#45;&gt;Node32</title>
<path fill="none" stroke="#191970" d="M634.1756,-529.6946C618.9654,-519.7724 601.6784,-508.4953 586.4981,-498.5925"/>
<polygon fill="#191970" stroke="#191970" points="632.5718,-532.8272 642.8595,-535.3595 636.3964,-526.9644 632.5718,-532.8272"/>
</g>
<!-- Node56 -->
<g id="node26" class="node">
<title>Node56</title>
<g id="a_node26"><a xlink:href="types__sba_8cpp.html" target="_top" xlink:title="/home/alejandro/Desarrollo\l eclipse/os1/Thirdparty\l/g2o/g2o/types/types_sba.cpp">
<polygon fill="#ffffff" stroke="#000000" points="631.5,-452 631.5,-493 779.5,-493 779.5,-452 631.5,-452"/>
<text text-anchor="start" x="639.5" y="-481" font-family="Helvetica,sans-Serif" font-size="10.00" fill="#000000">/home/alejandro/Desarrollo</text>
<text text-anchor="start" x="639.5" y="-470" font-family="Helvetica,sans-Serif" font-size="10.00" fill="#000000"> eclipse/os1/Thirdparty</text>
<text text-anchor="middle" x="705.5" y="-459" font-family="Helvetica,sans-Serif" font-size="10.00" fill="#000000">/g2o/g2o/types/types_sba.cpp</text>
</a>
</g>
</g>
<!-- Node55&#45;&gt;Node56 -->
<g id="edge45" class="edge">
<title>Node55&#45;&gt;Node56</title>
<path fill="none" stroke="#191970" d="M685.7032,-525.8237C689.7239,-514.9936 694.1635,-503.0353 697.8178,-493.1924"/>
<polygon fill="#191970" stroke="#191970" points="682.3623,-524.7666 682.1629,-535.3595 688.9246,-527.2029 682.3623,-524.7666"/>
</g>
</g>
</svg>
