<?xml version="1.0" encoding="UTF-8" standalone="no"?>
<!DOCTYPE svg PUBLIC "-//W3C//DTD SVG 1.1//EN"
 "http://www.w3.org/Graphics/SVG/1.1/DTD/svg11.dtd">
<!-- Generated by graphviz version 2.38.0 (20140413.2041)
 -->
<!-- Title: /home/alejandro/Desarrollo eclipse/os1/Thirdparty/g2o/g2o/core/base_binary_edge.hpp Pages: 1 -->
<svg width="1685pt" height="607pt"
 viewBox="0.00 0.00 1685.00 607.00" xmlns="http://www.w3.org/2000/svg" xmlns:xlink="http://www.w3.org/1999/xlink">
<g id="graph0" class="graph" transform="scale(1 1) rotate(0) translate(4 603)">
<title>/home/alejandro/Desarrollo eclipse/os1/Thirdparty/g2o/g2o/core/base_binary_edge.hpp</title>
<polygon fill="white" stroke="none" points="-4,4 -4,-603 1681,-603 1681,4 -4,4"/>
<!-- Node1 -->
<g id="node1" class="node"><title>Node1</title>
<polygon fill="#bfbfbf" stroke="black" points="934,-546.5 934,-598.5 1067,-598.5 1067,-546.5 934,-546.5"/>
<text text-anchor="start" x="942" y="-586.5" font-family="Helvetica,sans-Serif" font-size="10.00">/home/alejandro/Desarrollo</text>
<text text-anchor="start" x="942" y="-575.5" font-family="Helvetica,sans-Serif" font-size="10.00"> eclipse/os1/Thirdparty</text>
<text text-anchor="start" x="942" y="-564.5" font-family="Helvetica,sans-Serif" font-size="10.00">/g2o/g2o/core/base_binary</text>
<text text-anchor="middle" x="1000.5" y="-553.5" font-family="Helvetica,sans-Serif" font-size="10.00">_edge.hpp</text>
</g>
<!-- Node2 -->
<g id="node2" class="node"><title>Node2</title>
<g id="a_node2"><a xlink:href="base__binary__edge_8h.html" target="_top" xlink:title="/home/alejandro/Desarrollo\l eclipse/os1/Thirdparty\l/g2o/g2o/core/base_binary_edge.h">
<polygon fill="white" stroke="black" points="917.5,-468.5 917.5,-509.5 1083.5,-509.5 1083.5,-468.5 917.5,-468.5"/>
<text text-anchor="start" x="925.5" y="-497.5" font-family="Helvetica,sans-Serif" font-size="10.00">/home/alejandro/Desarrollo</text>
<text text-anchor="start" x="925.5" y="-486.5" font-family="Helvetica,sans-Serif" font-size="10.00"> eclipse/os1/Thirdparty</text>
<text text-anchor="middle" x="1000.5" y="-475.5" font-family="Helvetica,sans-Serif" font-size="10.00">/g2o/g2o/core/base_binary_edge.h</text>
</a>
</g>
</g>
<!-- Node1&#45;&gt;Node2 -->
<g id="edge1" class="edge"><title>Node1&#45;&gt;Node2</title>
<path fill="none" stroke="midnightblue" d="M1000.5,-536.147C1000.5,-527.055 1000.5,-517.597 1000.5,-509.628"/>
<polygon fill="midnightblue" stroke="midnightblue" points="997,-536.16 1000.5,-546.16 1004,-536.16 997,-536.16"/>
</g>
<!-- Node3 -->
<g id="node3" class="node"><title>Node3</title>
<g id="a_node3"><a xlink:href="types__six__dof__expmap_8h.html" target="_top" xlink:title="/home/alejandro/Desarrollo\l eclipse/os1/Thirdparty\l/g2o/g2o/types/types_six\l_dof_expmap.h">
<polygon fill="white" stroke="black" points="982,-379.5 982,-431.5 1115,-431.5 1115,-379.5 982,-379.5"/>
<text text-anchor="start" x="990" y="-419.5" font-family="Helvetica,sans-Serif" font-size="10.00">/home/alejandro/Desarrollo</text>
<text text-anchor="start" x="990" y="-408.5" font-family="Helvetica,sans-Serif" font-size="10.00"> eclipse/os1/Thirdparty</text>
<text text-anchor="start" x="990" y="-397.5" font-family="Helvetica,sans-Serif" font-size="10.00">/g2o/g2o/types/types_six</text>
<text text-anchor="middle" x="1048.5" y="-386.5" font-family="Helvetica,sans-Serif" font-size="10.00">_dof_expmap.h</text>
</a>
</g>
</g>
<!-- Node2&#45;&gt;Node3 -->
<g id="edge2" class="edge"><title>Node2&#45;&gt;Node3</title>
<path fill="none" stroke="midnightblue" d="M1017.26,-459.55C1022.61,-450.451 1028.5,-440.45 1033.71,-431.607"/>
<polygon fill="midnightblue" stroke="midnightblue" points="1014.18,-457.878 1012.12,-468.271 1020.21,-461.431 1014.18,-457.878"/>
</g>
<!-- Node12 -->
<g id="node12" class="node"><title>Node12</title>
<g id="a_node12"><a xlink:href="types__seven__dof__expmap_8h.html" target="_top" xlink:title="/home/alejandro/Desarrollo\l eclipse/os1/Thirdparty\l/g2o/g2o/types/types_seven\l_dof_expmap.h">
<polygon fill="white" stroke="black" points="880.5,-290.5 880.5,-342.5 1020.5,-342.5 1020.5,-290.5 880.5,-290.5"/>
<text text-anchor="start" x="888.5" y="-330.5" font-family="Helvetica,sans-Serif" font-size="10.00">/home/alejandro/Desarrollo</text>
<text text-anchor="start" x="888.5" y="-319.5" font-family="Helvetica,sans-Serif" font-size="10.00"> eclipse/os1/Thirdparty</text>
<text text-anchor="start" x="888.5" y="-308.5" font-family="Helvetica,sans-Serif" font-size="10.00">/g2o/g2o/types/types_seven</text>
<text text-anchor="middle" x="950.5" y="-297.5" font-family="Helvetica,sans-Serif" font-size="10.00">_dof_expmap.h</text>
</a>
</g>
</g>
<!-- Node2&#45;&gt;Node12 -->
<g id="edge40" class="edge"><title>Node2&#45;&gt;Node12</title>
<path fill="none" stroke="midnightblue" d="M984.872,-459.122C980.716,-450.573 976.544,-441.07 973.5,-432 963.438,-402.013 957.098,-366.055 953.681,-342.538"/>
<polygon fill="midnightblue" stroke="midnightblue" points="981.868,-460.939 989.495,-468.294 988.119,-457.789 981.868,-460.939"/>
</g>
<!-- Node4 -->
<g id="node4" class="node"><title>Node4</title>
<g id="a_node4"><a xlink:href="_converter_8h.html" target="_top" xlink:title="/home/alejandro/Desarrollo\l eclipse/os1/include/Converter.h">
<polygon fill="white" stroke="black" points="1077,-134.5 1077,-164.5 1234,-164.5 1234,-134.5 1077,-134.5"/>
<text text-anchor="start" x="1085" y="-152.5" font-family="Helvetica,sans-Serif" font-size="10.00">/home/alejandro/Desarrollo</text>
<text text-anchor="middle" x="1155.5" y="-141.5" font-family="Helvetica,sans-Serif" font-size="10.00"> eclipse/os1/include/Converter.h</text>
</a>
</g>
</g>
<!-- Node3&#45;&gt;Node4 -->
<g id="edge3" class="edge"><title>Node3&#45;&gt;Node4</title>
<path fill="none" stroke="midnightblue" d="M1063.05,-369.966C1086.86,-313.437 1133.15,-203.545 1149.56,-164.6"/>
<polygon fill="midnightblue" stroke="midnightblue" points="1059.81,-368.642 1059.15,-379.217 1066.26,-371.36 1059.81,-368.642"/>
</g>
<!-- Node9 -->
<g id="node9" class="node"><title>Node9</title>
<g id="a_node9"><a xlink:href="_optimizer_8cc.html" target="_top" xlink:title="/home/alejandro/Desarrollo\l eclipse/os1/src/Optimizer.cc">
<polygon fill="white" stroke="black" points="976.5,-67.5 976.5,-97.5 1120.5,-97.5 1120.5,-67.5 976.5,-67.5"/>
<text text-anchor="start" x="984.5" y="-85.5" font-family="Helvetica,sans-Serif" font-size="10.00">/home/alejandro/Desarrollo</text>
<text text-anchor="middle" x="1048.5" y="-74.5" font-family="Helvetica,sans-Serif" font-size="10.00"> eclipse/os1/src/Optimizer.cc</text>
</a>
</g>
</g>
<!-- Node3&#45;&gt;Node9 -->
<g id="edge38" class="edge"><title>Node3&#45;&gt;Node9</title>
<path fill="none" stroke="midnightblue" d="M1048.5,-369.199C1048.5,-299.048 1048.5,-144.795 1048.5,-97.5382"/>
<polygon fill="midnightblue" stroke="midnightblue" points="1045,-369.312 1048.5,-379.312 1052,-369.312 1045,-369.312"/>
</g>
<!-- Node3&#45;&gt;Node12 -->
<g id="edge11" class="edge"><title>Node3&#45;&gt;Node12</title>
<path fill="none" stroke="midnightblue" d="M1012.62,-372.649C1001.47,-362.749 989.34,-351.98 978.782,-342.607"/>
<polygon fill="midnightblue" stroke="midnightblue" points="1010.35,-375.314 1020.15,-379.336 1015,-370.08 1010.35,-375.314"/>
</g>
<!-- Node22 -->
<g id="node22" class="node"><title>Node22</title>
<g id="a_node22"><a xlink:href="types__six__dof__expmap_8cpp.html" target="_top" xlink:title="/home/alejandro/Desarrollo\l eclipse/os1/Thirdparty\l/g2o/g2o/types/types_six\l_dof_expmap.cpp">
<polygon fill="white" stroke="black" points="1153,-290.5 1153,-342.5 1286,-342.5 1286,-290.5 1153,-290.5"/>
<text text-anchor="start" x="1161" y="-330.5" font-family="Helvetica,sans-Serif" font-size="10.00">/home/alejandro/Desarrollo</text>
<text text-anchor="start" x="1161" y="-319.5" font-family="Helvetica,sans-Serif" font-size="10.00"> eclipse/os1/Thirdparty</text>
<text text-anchor="start" x="1161" y="-308.5" font-family="Helvetica,sans-Serif" font-size="10.00">/g2o/g2o/types/types_six</text>
<text text-anchor="middle" x="1219.5" y="-297.5" font-family="Helvetica,sans-Serif" font-size="10.00">_dof_expmap.cpp</text>
</a>
</g>
</g>
<!-- Node3&#45;&gt;Node22 -->
<g id="edge39" class="edge"><title>Node3&#45;&gt;Node22</title>
<path fill="none" stroke="midnightblue" d="M1106.92,-374.776C1127.5,-364.309 1150.4,-352.656 1170.15,-342.607"/>
<polygon fill="midnightblue" stroke="midnightblue" points="1105.29,-371.682 1097.96,-379.336 1108.46,-377.921 1105.29,-371.682"/>
</g>
<!-- Node5 -->
<g id="node5" class="node"><title>Node5</title>
<g id="a_node5"><a xlink:href="_converter_8cc.html" target="_top" xlink:title="/home/alejandro/Desarrollo\l eclipse/os1/src/Converter.cc">
<polygon fill="white" stroke="black" points="1532,-67.5 1532,-97.5 1677,-97.5 1677,-67.5 1532,-67.5"/>
<text text-anchor="start" x="1540" y="-85.5" font-family="Helvetica,sans-Serif" font-size="10.00">/home/alejandro/Desarrollo</text>
<text text-anchor="middle" x="1604.5" y="-74.5" font-family="Helvetica,sans-Serif" font-size="10.00"> eclipse/os1/src/Converter.cc</text>
</a>
</g>
</g>
<!-- Node4&#45;&gt;Node5 -->
<g id="edge4" class="edge"><title>Node4&#45;&gt;Node5</title>
<path fill="none" stroke="midnightblue" d="M1244.45,-136.761C1317.78,-126.922 1424.49,-112.235 1517.5,-98 1522.19,-97.2818 1527.02,-96.525 1531.89,-95.7493"/>
<polygon fill="midnightblue" stroke="midnightblue" points="1243.77,-133.32 1234.32,-138.117 1244.7,-140.258 1243.77,-133.32"/>
</g>
<!-- Node6 -->
<g id="node6" class="node"><title>Node6</title>
<g id="a_node6"><a xlink:href="_frame_8cc.html" target="_top" xlink:title="/home/alejandro/Desarrollo\l eclipse/os1/src/Frame.cc">
<polygon fill="white" stroke="black" points="1177,-67.5 1177,-97.5 1310,-97.5 1310,-67.5 1177,-67.5"/>
<text text-anchor="start" x="1185" y="-85.5" font-family="Helvetica,sans-Serif" font-size="10.00">/home/alejandro/Desarrollo</text>
<text text-anchor="middle" x="1243.5" y="-74.5" font-family="Helvetica,sans-Serif" font-size="10.00"> eclipse/os1/src/Frame.cc</text>
</a>
</g>
</g>
<!-- Node4&#45;&gt;Node6 -->
<g id="edge5" class="edge"><title>Node4&#45;&gt;Node6</title>
<path fill="none" stroke="midnightblue" d="M1182.64,-128.451C1196.18,-118.452 1212.23,-106.6 1224.44,-97.5765"/>
<polygon fill="midnightblue" stroke="midnightblue" points="1180.56,-125.639 1174.59,-134.396 1184.72,-131.27 1180.56,-125.639"/>
</g>
<!-- Node7 -->
<g id="node7" class="node"><title>Node7</title>
<g id="a_node7"><a xlink:href="_key_frame_8cc.html" target="_top" xlink:title="/home/alejandro/Desarrollo\l eclipse/os1/src/KeyFrame.cc">
<polygon fill="white" stroke="black" points="1328,-67.5 1328,-97.5 1475,-97.5 1475,-67.5 1328,-67.5"/>
<text text-anchor="start" x="1336" y="-85.5" font-family="Helvetica,sans-Serif" font-size="10.00">/home/alejandro/Desarrollo</text>
<text text-anchor="middle" x="1401.5" y="-74.5" font-family="Helvetica,sans-Serif" font-size="10.00"> eclipse/os1/src/KeyFrame.cc</text>
</a>
</g>
</g>
<!-- Node4&#45;&gt;Node7 -->
<g id="edge6" class="edge"><title>Node4&#45;&gt;Node7</title>
<path fill="none" stroke="midnightblue" d="M1218.26,-131.917C1258.4,-121.31 1309.92,-107.699 1348.1,-97.6109"/>
<polygon fill="midnightblue" stroke="midnightblue" points="1217.35,-128.537 1208.58,-134.476 1219.14,-135.305 1217.35,-128.537"/>
</g>
<!-- Node8 -->
<g id="node8" class="node"><title>Node8</title>
<g id="a_node8"><a xlink:href="_loop_closing_8cc.html" target="_top" xlink:title="/home/alejandro/Desarrollo\l eclipse/os1/src/LoopClosing.cc">
<polygon fill="white" stroke="black" points="802.5,-67.5 802.5,-97.5 958.5,-97.5 958.5,-67.5 802.5,-67.5"/>
<text text-anchor="start" x="810.5" y="-85.5" font-family="Helvetica,sans-Serif" font-size="10.00">/home/alejandro/Desarrollo</text>
<text text-anchor="middle" x="880.5" y="-74.5" font-family="Helvetica,sans-Serif" font-size="10.00"> eclipse/os1/src/LoopClosing.cc</text>
</a>
</g>
</g>
<!-- Node4&#45;&gt;Node8 -->
<g id="edge7" class="edge"><title>Node4&#45;&gt;Node8</title>
<path fill="none" stroke="midnightblue" d="M1086.19,-132.119C1041.2,-121.483 983.15,-107.763 940.2,-97.6109"/>
<polygon fill="midnightblue" stroke="midnightblue" points="1085.63,-135.582 1096.17,-134.476 1087.24,-128.77 1085.63,-135.582"/>
</g>
<!-- Node4&#45;&gt;Node9 -->
<g id="edge8" class="edge"><title>Node4&#45;&gt;Node9</title>
<path fill="none" stroke="midnightblue" d="M1123.42,-129.015C1106.77,-118.9 1086.81,-106.77 1071.67,-97.5765"/>
<polygon fill="midnightblue" stroke="midnightblue" points="1121.92,-132.195 1132.28,-134.396 1125.55,-126.213 1121.92,-132.195"/>
</g>
<!-- Node10 -->
<g id="node10" class="node"><title>Node10</title>
<g id="a_node10"><a xlink:href="_system_8cc.html" target="_top" xlink:title="/home/alejandro/Desarrollo\l eclipse/os1/src/System.cc">
<polygon fill="white" stroke="black" points="330.5,-0.5 330.5,-30.5 466.5,-30.5 466.5,-0.5 330.5,-0.5"/>
<text text-anchor="start" x="338.5" y="-18.5" font-family="Helvetica,sans-Serif" font-size="10.00">/home/alejandro/Desarrollo</text>
<text text-anchor="middle" x="398.5" y="-7.5" font-family="Helvetica,sans-Serif" font-size="10.00"> eclipse/os1/src/System.cc</text>
</a>
</g>
</g>
<!-- Node4&#45;&gt;Node10 -->
<g id="edge9" class="edge"><title>Node4&#45;&gt;Node10</title>
<path fill="none" stroke="midnightblue" d="M1154.72,-124.136C1152.71,-105.394 1146.69,-80.4915 1129.5,-67 1116.54,-56.8259 645.463,-30.0272 466.52,-20.1896"/>
<polygon fill="midnightblue" stroke="midnightblue" points="1151.25,-124.62 1155.49,-134.326 1158.23,-124.089 1151.25,-124.62"/>
</g>
<!-- Node11 -->
<g id="node11" class="node"><title>Node11</title>
<g id="a_node11"><a xlink:href="_tracking_8cc.html" target="_top" xlink:title="/home/alejandro/Desarrollo\l eclipse/os1/src/Tracking.cc">
<polygon fill="white" stroke="black" points="704.5,-0.5 704.5,-30.5 844.5,-30.5 844.5,-0.5 704.5,-0.5"/>
<text text-anchor="start" x="712.5" y="-18.5" font-family="Helvetica,sans-Serif" font-size="10.00">/home/alejandro/Desarrollo</text>
<text text-anchor="middle" x="774.5" y="-7.5" font-family="Helvetica,sans-Serif" font-size="10.00"> eclipse/os1/src/Tracking.cc</text>
</a>
</g>
</g>
<!-- Node4&#45;&gt;Node11 -->
<g id="edge10" class="edge"><title>Node4&#45;&gt;Node11</title>
<path fill="none" stroke="midnightblue" d="M1244.31,-147.418C1330.97,-144.255 1454.09,-133.433 1484.5,-98 1493.47,-87.5447 1493.89,-77.082 1484.5,-67 1441.49,-20.8254 1015.15,-16.1851 844.538,-16.1959"/>
<polygon fill="midnightblue" stroke="midnightblue" points="1244.07,-143.924 1234.19,-147.759 1244.31,-150.92 1244.07,-143.924"/>
</g>
<!-- Node12&#45;&gt;Node4 -->
<g id="edge12" class="edge"><title>Node12&#45;&gt;Node4</title>
<path fill="none" stroke="midnightblue" d="M989.652,-283.988C1034.31,-248.042 1105.37,-190.853 1138.03,-164.561"/>
<polygon fill="midnightblue" stroke="midnightblue" points="987.231,-281.443 981.635,-290.44 991.62,-286.896 987.231,-281.443"/>
</g>
<!-- Node12&#45;&gt;Node9 -->
<g id="edge36" class="edge"><title>Node12&#45;&gt;Node9</title>
<path fill="none" stroke="midnightblue" d="M965.166,-280.78C987.056,-228.958 1027.32,-133.629 1042.5,-97.7007"/>
<polygon fill="midnightblue" stroke="midnightblue" points="961.841,-279.656 961.174,-290.23 968.29,-282.38 961.841,-279.656"/>
</g>
<!-- Node13 -->
<g id="node13" class="node"><title>Node13</title>
<g id="a_node13"><a xlink:href="_loop_closing_8h.html" target="_top" xlink:title="/home/alejandro/Desarrollo\l eclipse/os1/include/LoopClosing.h">
<polygon fill="white" stroke="black" points="385.5,-212.5 385.5,-242.5 553.5,-242.5 553.5,-212.5 385.5,-212.5"/>
<text text-anchor="start" x="393.5" y="-230.5" font-family="Helvetica,sans-Serif" font-size="10.00">/home/alejandro/Desarrollo</text>
<text text-anchor="middle" x="469.5" y="-219.5" font-family="Helvetica,sans-Serif" font-size="10.00"> eclipse/os1/include/LoopClosing.h</text>
</a>
</g>
</g>
<!-- Node12&#45;&gt;Node13 -->
<g id="edge13" class="edge"><title>Node12&#45;&gt;Node13</title>
<path fill="none" stroke="midnightblue" d="M870.434,-301.018C780.583,-284.767 635.806,-258.58 547.012,-242.52"/>
<polygon fill="midnightblue" stroke="midnightblue" points="869.838,-304.467 880.301,-302.803 871.084,-297.579 869.838,-304.467"/>
</g>
<!-- Node19 -->
<g id="node19" class="node"><title>Node19</title>
<g id="a_node19"><a xlink:href="_optimizer_8h.html" target="_top" xlink:title="/home/alejandro/Desarrollo\l eclipse/os1/include/Optimizer.h">
<polygon fill="white" stroke="black" points="696.5,-134.5 696.5,-164.5 852.5,-164.5 852.5,-134.5 696.5,-134.5"/>
<text text-anchor="start" x="704.5" y="-152.5" font-family="Helvetica,sans-Serif" font-size="10.00">/home/alejandro/Desarrollo</text>
<text text-anchor="middle" x="774.5" y="-141.5" font-family="Helvetica,sans-Serif" font-size="10.00"> eclipse/os1/include/Optimizer.h</text>
</a>
</g>
</g>
<!-- Node12&#45;&gt;Node19 -->
<g id="edge35" class="edge"><title>Node12&#45;&gt;Node19</title>
<path fill="none" stroke="midnightblue" d="M953.681,-279.897C953.935,-255.002 950.047,-222.49 931.5,-201 911.67,-178.023 881.345,-165.416 852.615,-158.531"/>
<polygon fill="midnightblue" stroke="midnightblue" points="950.178,-279.937 953.349,-290.046 957.174,-280.165 950.178,-279.937"/>
</g>
<!-- Node21 -->
<g id="node21" class="node"><title>Node21</title>
<g id="a_node21"><a xlink:href="types__seven__dof__expmap_8cpp.html" target="_top" xlink:title="/home/alejandro/Desarrollo\l eclipse/os1/Thirdparty\l/g2o/g2o/types/types_seven\l_dof_expmap.cpp">
<polygon fill="white" stroke="black" points="782.5,-201.5 782.5,-253.5 922.5,-253.5 922.5,-201.5 782.5,-201.5"/>
<text text-anchor="start" x="790.5" y="-241.5" font-family="Helvetica,sans-Serif" font-size="10.00">/home/alejandro/Desarrollo</text>
<text text-anchor="start" x="790.5" y="-230.5" font-family="Helvetica,sans-Serif" font-size="10.00"> eclipse/os1/Thirdparty</text>
<text text-anchor="start" x="790.5" y="-219.5" font-family="Helvetica,sans-Serif" font-size="10.00">/g2o/g2o/types/types_seven</text>
<text text-anchor="middle" x="852.5" y="-208.5" font-family="Helvetica,sans-Serif" font-size="10.00">_dof_expmap.cpp</text>
</a>
</g>
</g>
<!-- Node12&#45;&gt;Node21 -->
<g id="edge37" class="edge"><title>Node12&#45;&gt;Node21</title>
<path fill="none" stroke="midnightblue" d="M914.622,-283.649C903.47,-273.749 891.34,-262.98 880.782,-253.607"/>
<polygon fill="midnightblue" stroke="midnightblue" points="912.352,-286.314 922.154,-290.336 917,-281.08 912.352,-286.314"/>
</g>
<!-- Node13&#45;&gt;Node8 -->
<g id="edge33" class="edge"><title>Node13&#45;&gt;Node8</title>
<path fill="none" stroke="midnightblue" d="M563.523,-223.56C665.492,-218.385 819.376,-204.14 861.5,-165 880.126,-147.694 882.166,-115.963 881.591,-97.6166"/>
<polygon fill="midnightblue" stroke="midnightblue" points="563.333,-220.065 553.515,-224.048 563.673,-227.057 563.333,-220.065"/>
</g>
<!-- Node13&#45;&gt;Node10 -->
<g id="edge34" class="edge"><title>Node13&#45;&gt;Node10</title>
<path fill="none" stroke="midnightblue" d="M468.232,-202.045C466.366,-182.626 461.775,-155.294 450.5,-134 440.058,-114.278 425.972,-117.706 415.5,-98 403.969,-76.3021 400.256,-47.482 399.063,-30.5671"/>
<polygon fill="midnightblue" stroke="midnightblue" points="464.757,-202.499 469.029,-212.194 471.735,-201.95 464.757,-202.499"/>
</g>
<!-- Node14 -->
<g id="node14" class="node"><title>Node14</title>
<g id="a_node14"><a xlink:href="_local_mapping_8h.html" target="_top" xlink:title="/home/alejandro/Desarrollo\l eclipse/os1/include/LocalMapping.h">
<polygon fill="white" stroke="black" points="267.5,-134.5 267.5,-164.5 441.5,-164.5 441.5,-134.5 267.5,-134.5"/>
<text text-anchor="start" x="275.5" y="-152.5" font-family="Helvetica,sans-Serif" font-size="10.00">/home/alejandro/Desarrollo</text>
<text text-anchor="middle" x="354.5" y="-141.5" font-family="Helvetica,sans-Serif" font-size="10.00"> eclipse/os1/include/LocalMapping.h</text>
</a>
</g>
</g>
<!-- Node13&#45;&gt;Node14 -->
<g id="edge14" class="edge"><title>Node13&#45;&gt;Node14</title>
<path fill="none" stroke="midnightblue" d="M433.959,-206.967C412.689,-193.699 386.811,-176.463 370.369,-164.541"/>
<polygon fill="midnightblue" stroke="midnightblue" points="432.401,-210.118 442.751,-212.383 436.072,-204.158 432.401,-210.118"/>
</g>
<!-- Node15 -->
<g id="node15" class="node"><title>Node15</title>
<g id="a_node15"><a xlink:href="_tracking_8h.html" target="_top" xlink:title="/home/alejandro/Desarrollo\l eclipse/os1/include/Tracking.h">
<polygon fill="white" stroke="black" points="170.5,-67.5 170.5,-97.5 322.5,-97.5 322.5,-67.5 170.5,-67.5"/>
<text text-anchor="start" x="178.5" y="-85.5" font-family="Helvetica,sans-Serif" font-size="10.00">/home/alejandro/Desarrollo</text>
<text text-anchor="middle" x="246.5" y="-74.5" font-family="Helvetica,sans-Serif" font-size="10.00"> eclipse/os1/include/Tracking.h</text>
</a>
</g>
</g>
<!-- Node13&#45;&gt;Node15 -->
<g id="edge25" class="edge"><title>Node13&#45;&gt;Node15</title>
<path fill="none" stroke="midnightblue" d="M375.235,-222.67C330.581,-216.071 280.434,-200.506 249.5,-165 233.247,-146.345 233.481,-115.684 238.118,-97.7631"/>
<polygon fill="midnightblue" stroke="midnightblue" points="374.885,-226.154 385.262,-224.018 375.817,-219.216 374.885,-226.154"/>
</g>
<!-- Node18 -->
<g id="node18" class="node"><title>Node18</title>
<g id="a_node18"><a xlink:href="_local_mapping_8cc.html" target="_top" xlink:title="/home/alejandro/Desarrollo\l eclipse/os1/src/LocalMapping.cc">
<polygon fill="white" stroke="black" points="424.5,-67.5 424.5,-97.5 586.5,-97.5 586.5,-67.5 424.5,-67.5"/>
<text text-anchor="start" x="432.5" y="-85.5" font-family="Helvetica,sans-Serif" font-size="10.00">/home/alejandro/Desarrollo</text>
<text text-anchor="middle" x="505.5" y="-74.5" font-family="Helvetica,sans-Serif" font-size="10.00"> eclipse/os1/src/LocalMapping.cc</text>
</a>
</g>
</g>
<!-- Node13&#45;&gt;Node18 -->
<g id="edge32" class="edge"><title>Node13&#45;&gt;Node18</title>
<path fill="none" stroke="midnightblue" d="M475.619,-202.194C483.18,-172.159 495.796,-122.048 501.931,-97.6766"/>
<polygon fill="midnightblue" stroke="midnightblue" points="472.131,-201.714 473.083,-212.266 478.919,-203.423 472.131,-201.714"/>
</g>
<!-- Node13&#45;&gt;Node19 -->
<g id="edge26" class="edge"><title>Node13&#45;&gt;Node19</title>
<path fill="none" stroke="midnightblue" d="M535.711,-210.001C590.232,-196.416 666.686,-177.365 718.273,-164.511"/>
<polygon fill="midnightblue" stroke="midnightblue" points="534.654,-206.658 525.797,-212.472 536.347,-213.45 534.654,-206.658"/>
</g>
<!-- Node14&#45;&gt;Node10 -->
<g id="edge24" class="edge"><title>Node14&#45;&gt;Node10</title>
<path fill="none" stroke="midnightblue" d="M362.415,-124.754C371.57,-97.291 386.338,-52.9873 393.825,-30.5247"/>
<polygon fill="midnightblue" stroke="midnightblue" points="359.051,-123.78 359.209,-134.374 365.692,-125.994 359.051,-123.78"/>
</g>
<!-- Node14&#45;&gt;Node13 -->
<g id="edge15" class="edge"><title>Node14&#45;&gt;Node13</title>
<path fill="none" stroke="midnightblue" d="M390.162,-170.109C411.258,-183.272 436.855,-200.316 453.281,-212.205"/>
<polygon fill="midnightblue" stroke="midnightblue" points="391.786,-166.998 381.437,-164.731 388.113,-172.957 391.786,-166.998"/>
</g>
<!-- Node14&#45;&gt;Node15 -->
<g id="edge16" class="edge"><title>Node14&#45;&gt;Node15</title>
<path fill="none" stroke="midnightblue" d="M316.371,-129.296C298.615,-119.125 278.411,-106.855 264.214,-97.5765"/>
<polygon fill="midnightblue" stroke="midnightblue" points="314.96,-132.519 325.387,-134.396 318.406,-126.426 314.96,-132.519"/>
</g>
<!-- Node14&#45;&gt;Node18 -->
<g id="edge23" class="edge"><title>Node14&#45;&gt;Node18</title>
<path fill="none" stroke="midnightblue" d="M396.532,-130.407C420.639,-120.029 450.454,-107.195 472.799,-97.5765"/>
<polygon fill="midnightblue" stroke="midnightblue" points="395.066,-127.227 387.265,-134.396 397.834,-133.657 395.066,-127.227"/>
</g>
<!-- Node15&#45;&gt;Node10 -->
<g id="edge20" class="edge"><title>Node15&#45;&gt;Node10</title>
<path fill="none" stroke="midnightblue" d="M288.811,-63.4066C313.077,-53.0294 343.089,-40.1954 365.583,-30.5765"/>
<polygon fill="midnightblue" stroke="midnightblue" points="287.3,-60.2459 279.482,-67.396 290.053,-66.6821 287.3,-60.2459"/>
</g>
<!-- Node15&#45;&gt;Node11 -->
<g id="edge21" class="edge"><title>Node15&#45;&gt;Node11</title>
<path fill="none" stroke="midnightblue" d="M332.834,-70.8718C436.478,-58.1126 608.292,-36.9612 704.217,-25.1522"/>
<polygon fill="midnightblue" stroke="midnightblue" points="332.209,-67.4222 322.712,-72.1179 333.065,-74.3697 332.209,-67.4222"/>
</g>
<!-- Node15&#45;&gt;Node13 -->
<g id="edge17" class="edge"><title>Node15&#45;&gt;Node13</title>
<path fill="none" stroke="midnightblue" d="M251.012,-107.754C251.867,-125.645 253.977,-149.478 267.5,-165 297.013,-198.876 344.017,-214.6 385.301,-221.703"/>
<polygon fill="midnightblue" stroke="midnightblue" points="254.508,-107.596 250.563,-97.7631 247.515,-107.91 254.508,-107.596"/>
</g>
<!-- Node15&#45;&gt;Node14 -->
<g id="edge18" class="edge"><title>Node15&#45;&gt;Node14</title>
<path fill="none" stroke="midnightblue" d="M284.577,-102.674C302.327,-112.841 322.536,-125.112 336.744,-134.396"/>
<polygon fill="midnightblue" stroke="midnightblue" points="285.991,-99.453 275.563,-97.5765 282.545,-105.546 285.991,-99.453"/>
</g>
<!-- Node16 -->
<g id="node16" class="node"><title>Node16</title>
<g id="a_node16"><a xlink:href="_frame_drawer_8cc.html" target="_top" xlink:title="/home/alejandro/Desarrollo\l eclipse/os1/src/FrameDrawer.cc">
<polygon fill="white" stroke="black" points="0,-0.5 0,-30.5 161,-30.5 161,-0.5 0,-0.5"/>
<text text-anchor="start" x="8" y="-18.5" font-family="Helvetica,sans-Serif" font-size="10.00">/home/alejandro/Desarrollo</text>
<text text-anchor="middle" x="80.5" y="-7.5" font-family="Helvetica,sans-Serif" font-size="10.00"> eclipse/os1/src/FrameDrawer.cc</text>
</a>
</g>
</g>
<!-- Node15&#45;&gt;Node16 -->
<g id="edge19" class="edge"><title>Node15&#45;&gt;Node16</title>
<path fill="none" stroke="midnightblue" d="M200.994,-63.6815C174.371,-53.2568 141.232,-40.2805 116.449,-30.5765"/>
<polygon fill="midnightblue" stroke="midnightblue" points="199.893,-67.0089 210.48,-67.396 202.445,-60.4907 199.893,-67.0089"/>
</g>
<!-- Node17 -->
<g id="node17" class="node"><title>Node17</title>
<g id="a_node17"><a xlink:href="_viewer_8cc.html" target="_top" xlink:title="/home/alejandro/Desarrollo\l eclipse/os1/src/Viewer.cc">
<polygon fill="white" stroke="black" points="179,-0.5 179,-30.5 312,-30.5 312,-0.5 179,-0.5"/>
<text text-anchor="start" x="187" y="-18.5" font-family="Helvetica,sans-Serif" font-size="10.00">/home/alejandro/Desarrollo</text>
<text text-anchor="middle" x="245.5" y="-7.5" font-family="Helvetica,sans-Serif" font-size="10.00"> eclipse/os1/src/Viewer.cc</text>
</a>
</g>
</g>
<!-- Node15&#45;&gt;Node17 -->
<g id="edge22" class="edge"><title>Node15&#45;&gt;Node17</title>
<path fill="none" stroke="midnightblue" d="M246.125,-57.1081C245.987,-48.1539 245.836,-38.3227 245.717,-30.5765"/>
<polygon fill="midnightblue" stroke="midnightblue" points="242.63,-57.451 246.283,-67.396 249.629,-57.3433 242.63,-57.451"/>
</g>
<!-- Node19&#45;&gt;Node8 -->
<g id="edge29" class="edge"><title>Node19&#45;&gt;Node8</title>
<path fill="none" stroke="midnightblue" d="M806.275,-129.015C822.771,-118.9 842.552,-106.77 857.544,-97.5765"/>
<polygon fill="midnightblue" stroke="midnightblue" points="804.196,-126.185 797.5,-134.396 807.855,-132.152 804.196,-126.185"/>
</g>
<!-- Node19&#45;&gt;Node9 -->
<g id="edge30" class="edge"><title>Node19&#45;&gt;Node9</title>
<path fill="none" stroke="midnightblue" d="M843.554,-132.119C888.389,-121.483 946.223,-107.763 989.017,-97.6109"/>
<polygon fill="midnightblue" stroke="midnightblue" points="842.539,-128.762 833.617,-134.476 844.154,-135.573 842.539,-128.762"/>
</g>
<!-- Node19&#45;&gt;Node11 -->
<g id="edge31" class="edge"><title>Node19&#45;&gt;Node11</title>
<path fill="none" stroke="midnightblue" d="M774.5,-124.024C774.5,-96.5121 774.5,-52.7894 774.5,-30.5247"/>
<polygon fill="midnightblue" stroke="midnightblue" points="771,-124.374 774.5,-134.374 778,-124.374 771,-124.374"/>
</g>
<!-- Node19&#45;&gt;Node18 -->
<g id="edge28" class="edge"><title>Node19&#45;&gt;Node18</title>
<path fill="none" stroke="midnightblue" d="M706.706,-132.119C662.69,-121.483 605.911,-107.763 563.897,-97.6109"/>
<polygon fill="midnightblue" stroke="midnightblue" points="705.92,-135.529 716.462,-134.476 707.564,-128.725 705.92,-135.529"/>
</g>
<!-- Node20 -->
<g id="node20" class="node"><title>Node20</title>
<g id="a_node20"><a xlink:href="_initializer_8cc.html" target="_top" xlink:title="/home/alejandro/Desarrollo\l eclipse/os1/src/Initializer.cc">
<polygon fill="white" stroke="black" points="605,-67.5 605,-97.5 746,-97.5 746,-67.5 605,-67.5"/>
<text text-anchor="start" x="613" y="-85.5" font-family="Helvetica,sans-Serif" font-size="10.00">/home/alejandro/Desarrollo</text>
<text text-anchor="middle" x="675.5" y="-74.5" font-family="Helvetica,sans-Serif" font-size="10.00"> eclipse/os1/src/Initializer.cc</text>
</a>
</g>
</g>
<!-- Node19&#45;&gt;Node20 -->
<g id="edge27" class="edge"><title>Node19&#45;&gt;Node20</title>
<path fill="none" stroke="midnightblue" d="M744.394,-128.734C729.075,-118.676 710.812,-106.685 696.94,-97.5765"/>
<polygon fill="midnightblue" stroke="midnightblue" points="742.738,-131.833 753.018,-134.396 746.58,-125.982 742.738,-131.833"/>
</g>
</g>
</svg>
