<?xml version="1.0" encoding="UTF-8" standalone="no"?>
<!DOCTYPE svg PUBLIC "-//W3C//DTD SVG 1.1//EN"
 "http://www.w3.org/Graphics/SVG/1.1/DTD/svg11.dtd">
<!-- Generated by graphviz version 2.38.0 (20140413.2041)
 -->
<!-- Title: /home/alejandro/Desarrollo eclipse/os1/Thirdparty/g2o/g2o/core/base_vertex.h Pages: 1 -->
<svg width="1908pt" height="596pt"
 viewBox="0.00 0.00 1908.00 596.00" xmlns="http://www.w3.org/2000/svg" xmlns:xlink="http://www.w3.org/1999/xlink">
<g id="graph0" class="graph" transform="scale(1 1) rotate(0) translate(4 592)">
<title>/home/alejandro/Desarrollo eclipse/os1/Thirdparty/g2o/g2o/core/base_vertex.h</title>
<polygon fill="white" stroke="none" points="-4,4 -4,-592 1904,-592 1904,4 -4,4"/>
<!-- Node31 -->
<g id="node1" class="node"><title>Node31</title>
<polygon fill="#bfbfbf" stroke="black" points="619.5,-546.5 619.5,-587.5 759.5,-587.5 759.5,-546.5 619.5,-546.5"/>
<text text-anchor="start" x="627.5" y="-575.5" font-family="Helvetica,sans-Serif" font-size="10.00">/home/alejandro/Desarrollo</text>
<text text-anchor="start" x="627.5" y="-564.5" font-family="Helvetica,sans-Serif" font-size="10.00"> eclipse/os1/Thirdparty</text>
<text text-anchor="middle" x="689.5" y="-553.5" font-family="Helvetica,sans-Serif" font-size="10.00">/g2o/g2o/core/base_vertex.h</text>
</g>
<!-- Node32 -->
<g id="node2" class="node"><title>Node32</title>
<g id="a_node2"><a xlink:href="types__six__dof__expmap_8h.html" target="_top" xlink:title="/home/alejandro/Desarrollo\l eclipse/os1/Thirdparty\l/g2o/g2o/types/types_six\l_dof_expmap.h">
<polygon fill="white" stroke="black" points="480,-379.5 480,-431.5 613,-431.5 613,-379.5 480,-379.5"/>
<text text-anchor="start" x="488" y="-419.5" font-family="Helvetica,sans-Serif" font-size="10.00">/home/alejandro/Desarrollo</text>
<text text-anchor="start" x="488" y="-408.5" font-family="Helvetica,sans-Serif" font-size="10.00"> eclipse/os1/Thirdparty</text>
<text text-anchor="start" x="488" y="-397.5" font-family="Helvetica,sans-Serif" font-size="10.00">/g2o/g2o/types/types_six</text>
<text text-anchor="middle" x="546.5" y="-386.5" font-family="Helvetica,sans-Serif" font-size="10.00">_dof_expmap.h</text>
</a>
</g>
</g>
<!-- Node31&#45;&gt;Node32 -->
<g id="edge1" class="edge"><title>Node31&#45;&gt;Node32</title>
<path fill="none" stroke="midnightblue" d="M647.993,-540.665C635.44,-531.875 622.168,-521.35 611.5,-510 589.266,-486.345 570.391,-453.996 558.802,-431.794"/>
<polygon fill="midnightblue" stroke="midnightblue" points="646.289,-543.739 656.528,-546.462 650.222,-537.948 646.289,-543.739"/>
</g>
<!-- Node41 -->
<g id="node11" class="node"><title>Node41</title>
<g id="a_node11"><a xlink:href="types__seven__dof__expmap_8h.html" target="_top" xlink:title="/home/alejandro/Desarrollo\l eclipse/os1/Thirdparty\l/g2o/g2o/types/types_seven\l_dof_expmap.h">
<polygon fill="white" stroke="black" points="737.5,-290.5 737.5,-342.5 877.5,-342.5 877.5,-290.5 737.5,-290.5"/>
<text text-anchor="start" x="745.5" y="-330.5" font-family="Helvetica,sans-Serif" font-size="10.00">/home/alejandro/Desarrollo</text>
<text text-anchor="start" x="745.5" y="-319.5" font-family="Helvetica,sans-Serif" font-size="10.00"> eclipse/os1/Thirdparty</text>
<text text-anchor="start" x="745.5" y="-308.5" font-family="Helvetica,sans-Serif" font-size="10.00">/g2o/g2o/types/types_seven</text>
<text text-anchor="middle" x="807.5" y="-297.5" font-family="Helvetica,sans-Serif" font-size="10.00">_dof_expmap.h</text>
</a>
</g>
</g>
<!-- Node31&#45;&gt;Node41 -->
<g id="edge44" class="edge"><title>Node31&#45;&gt;Node41</title>
<path fill="none" stroke="midnightblue" d="M734.833,-540.64C746.565,-532.215 758.213,-521.896 766.5,-510 802.34,-458.551 807.866,-381.953 808.121,-342.694"/>
<polygon fill="midnightblue" stroke="midnightblue" points="732.618,-537.914 726.322,-546.435 736.558,-543.7 732.618,-537.914"/>
</g>
<!-- Node54 -->
<g id="node24" class="node"><title>Node54</title>
<g id="a_node24"><a xlink:href="types__sba_8h.html" target="_top" xlink:title="/home/alejandro/Desarrollo\l eclipse/os1/Thirdparty\l/g2o/g2o/types/types_sba.h">
<polygon fill="white" stroke="black" points="621,-468.5 621,-509.5 758,-509.5 758,-468.5 621,-468.5"/>
<text text-anchor="start" x="629" y="-497.5" font-family="Helvetica,sans-Serif" font-size="10.00">/home/alejandro/Desarrollo</text>
<text text-anchor="start" x="629" y="-486.5" font-family="Helvetica,sans-Serif" font-size="10.00"> eclipse/os1/Thirdparty</text>
<text text-anchor="middle" x="689.5" y="-475.5" font-family="Helvetica,sans-Serif" font-size="10.00">/g2o/g2o/types/types_sba.h</text>
</a>
</g>
</g>
<!-- Node31&#45;&gt;Node54 -->
<g id="edge41" class="edge"><title>Node31&#45;&gt;Node54</title>
<path fill="none" stroke="midnightblue" d="M689.5,-536.297C689.5,-527.301 689.5,-517.653 689.5,-509.506"/>
<polygon fill="midnightblue" stroke="midnightblue" points="686,-536.428 689.5,-546.428 693,-536.428 686,-536.428"/>
</g>
<!-- Node33 -->
<g id="node3" class="node"><title>Node33</title>
<g id="a_node3"><a xlink:href="_converter_8h.html" target="_top" xlink:title="/home/alejandro/Desarrollo\l eclipse/os1/include/Converter.h">
<polygon fill="white" stroke="black" points="358,-134.5 358,-164.5 515,-164.5 515,-134.5 358,-134.5"/>
<text text-anchor="start" x="366" y="-152.5" font-family="Helvetica,sans-Serif" font-size="10.00">/home/alejandro/Desarrollo</text>
<text text-anchor="middle" x="436.5" y="-141.5" font-family="Helvetica,sans-Serif" font-size="10.00"> eclipse/os1/include/Converter.h</text>
</a>
</g>
</g>
<!-- Node32&#45;&gt;Node33 -->
<g id="edge2" class="edge"><title>Node32&#45;&gt;Node33</title>
<path fill="none" stroke="midnightblue" d="M484.508,-373.559C473.152,-365.159 462.648,-354.995 455.5,-343 420.772,-284.726 429.019,-198.562 434.044,-164.804"/>
<polygon fill="midnightblue" stroke="midnightblue" points="482.678,-376.549 492.892,-379.365 486.663,-370.794 482.678,-376.549"/>
</g>
<!-- Node38 -->
<g id="node8" class="node"><title>Node38</title>
<g id="a_node8"><a xlink:href="_optimizer_8cc.html" target="_top" xlink:title="/home/alejandro/Desarrollo\l eclipse/os1/src/Optimizer.cc">
<polygon fill="white" stroke="black" points="556.5,-67.5 556.5,-97.5 700.5,-97.5 700.5,-67.5 556.5,-67.5"/>
<text text-anchor="start" x="564.5" y="-85.5" font-family="Helvetica,sans-Serif" font-size="10.00">/home/alejandro/Desarrollo</text>
<text text-anchor="middle" x="628.5" y="-74.5" font-family="Helvetica,sans-Serif" font-size="10.00"> eclipse/os1/src/Optimizer.cc</text>
</a>
</g>
</g>
<!-- Node32&#45;&gt;Node38 -->
<g id="edge39" class="edge"><title>Node32&#45;&gt;Node38</title>
<path fill="none" stroke="midnightblue" d="M586.131,-372.035C594.18,-363.454 601.655,-353.597 606.5,-343 645.885,-256.854 635.542,-137.914 630.484,-97.5482"/>
<polygon fill="midnightblue" stroke="midnightblue" points="583.539,-369.678 578.962,-379.234 588.499,-374.618 583.539,-369.678"/>
</g>
<!-- Node32&#45;&gt;Node41 -->
<g id="edge10" class="edge"><title>Node32&#45;&gt;Node41</title>
<path fill="none" stroke="midnightblue" d="M622.826,-378.894C666.124,-364.439 705.009,-351.509 737.206,-340.817"/>
<polygon fill="midnightblue" stroke="midnightblue" points="621.601,-375.613 613.225,-382.1 623.818,-382.253 621.601,-375.613"/>
</g>
<!-- Node53 -->
<g id="node23" class="node"><title>Node53</title>
<g id="a_node23"><a xlink:href="types__six__dof__expmap_8cpp.html" target="_top" xlink:title="/home/alejandro/Desarrollo\l eclipse/os1/Thirdparty\l/g2o/g2o/types/types_six\l_dof_expmap.cpp">
<polygon fill="white" stroke="black" points="465,-290.5 465,-342.5 598,-342.5 598,-290.5 465,-290.5"/>
<text text-anchor="start" x="473" y="-330.5" font-family="Helvetica,sans-Serif" font-size="10.00">/home/alejandro/Desarrollo</text>
<text text-anchor="start" x="473" y="-319.5" font-family="Helvetica,sans-Serif" font-size="10.00"> eclipse/os1/Thirdparty</text>
<text text-anchor="start" x="473" y="-308.5" font-family="Helvetica,sans-Serif" font-size="10.00">/g2o/g2o/types/types_six</text>
<text text-anchor="middle" x="531.5" y="-297.5" font-family="Helvetica,sans-Serif" font-size="10.00">_dof_expmap.cpp</text>
</a>
</g>
</g>
<!-- Node32&#45;&gt;Node53 -->
<g id="edge40" class="edge"><title>Node32&#45;&gt;Node53</title>
<path fill="none" stroke="midnightblue" d="M540.462,-369.481C538.911,-360.487 537.274,-350.989 535.829,-342.607"/>
<polygon fill="midnightblue" stroke="midnightblue" points="537.013,-370.076 542.161,-379.336 543.911,-368.887 537.013,-370.076"/>
</g>
<!-- Node34 -->
<g id="node4" class="node"><title>Node34</title>
<g id="a_node4"><a xlink:href="_converter_8cc.html" target="_top" xlink:title="/home/alejandro/Desarrollo\l eclipse/os1/src/Converter.cc">
<polygon fill="white" stroke="black" points="204,-67.5 204,-97.5 349,-97.5 349,-67.5 204,-67.5"/>
<text text-anchor="start" x="212" y="-85.5" font-family="Helvetica,sans-Serif" font-size="10.00">/home/alejandro/Desarrollo</text>
<text text-anchor="middle" x="276.5" y="-74.5" font-family="Helvetica,sans-Serif" font-size="10.00"> eclipse/os1/src/Converter.cc</text>
</a>
</g>
</g>
<!-- Node33&#45;&gt;Node34 -->
<g id="edge3" class="edge"><title>Node33&#45;&gt;Node34</title>
<path fill="none" stroke="midnightblue" d="M392.301,-130.544C366.698,-120.143 334.932,-107.238 311.15,-97.5765"/>
<polygon fill="midnightblue" stroke="midnightblue" points="391.2,-133.875 401.782,-134.396 393.835,-127.39 391.2,-133.875"/>
</g>
<!-- Node35 -->
<g id="node5" class="node"><title>Node35</title>
<g id="a_node5"><a xlink:href="_frame_8cc.html" target="_top" xlink:title="/home/alejandro/Desarrollo\l eclipse/os1/src/Frame.cc">
<polygon fill="white" stroke="black" points="367,-67.5 367,-97.5 500,-97.5 500,-67.5 367,-67.5"/>
<text text-anchor="start" x="375" y="-85.5" font-family="Helvetica,sans-Serif" font-size="10.00">/home/alejandro/Desarrollo</text>
<text text-anchor="middle" x="433.5" y="-74.5" font-family="Helvetica,sans-Serif" font-size="10.00"> eclipse/os1/src/Frame.cc</text>
</a>
</g>
</g>
<!-- Node33&#45;&gt;Node35 -->
<g id="edge4" class="edge"><title>Node33&#45;&gt;Node35</title>
<path fill="none" stroke="midnightblue" d="M435.388,-124.403C434.971,-115.37 434.511,-105.408 434.15,-97.5765"/>
<polygon fill="midnightblue" stroke="midnightblue" points="431.892,-124.568 435.849,-134.396 438.884,-124.245 431.892,-124.568"/>
</g>
<!-- Node36 -->
<g id="node6" class="node"><title>Node36</title>
<g id="a_node6"><a xlink:href="_key_frame_8cc.html" target="_top" xlink:title="/home/alejandro/Desarrollo\l eclipse/os1/src/KeyFrame.cc">
<polygon fill="white" stroke="black" points="0,-67.5 0,-97.5 147,-97.5 147,-67.5 0,-67.5"/>
<text text-anchor="start" x="8" y="-85.5" font-family="Helvetica,sans-Serif" font-size="10.00">/home/alejandro/Desarrollo</text>
<text text-anchor="middle" x="73.5" y="-74.5" font-family="Helvetica,sans-Serif" font-size="10.00"> eclipse/os1/src/KeyFrame.cc</text>
</a>
</g>
</g>
<!-- Node33&#45;&gt;Node36 -->
<g id="edge5" class="edge"><title>Node33&#45;&gt;Node36</title>
<path fill="none" stroke="midnightblue" d="M348.076,-132.666C286.428,-121.628 205.139,-107.072 147.038,-96.668"/>
<polygon fill="midnightblue" stroke="midnightblue" points="347.721,-136.159 358.181,-134.476 348.955,-129.268 347.721,-136.159"/>
</g>
<!-- Node37 -->
<g id="node7" class="node"><title>Node37</title>
<g id="a_node7"><a xlink:href="_loop_closing_8cc.html" target="_top" xlink:title="/home/alejandro/Desarrollo\l eclipse/os1/src/LoopClosing.cc">
<polygon fill="white" stroke="black" points="718.5,-67.5 718.5,-97.5 874.5,-97.5 874.5,-67.5 718.5,-67.5"/>
<text text-anchor="start" x="726.5" y="-85.5" font-family="Helvetica,sans-Serif" font-size="10.00">/home/alejandro/Desarrollo</text>
<text text-anchor="middle" x="796.5" y="-74.5" font-family="Helvetica,sans-Serif" font-size="10.00"> eclipse/os1/src/LoopClosing.cc</text>
</a>
</g>
</g>
<!-- Node33&#45;&gt;Node37 -->
<g id="edge6" class="edge"><title>Node33&#45;&gt;Node37</title>
<path fill="none" stroke="midnightblue" d="M524.29,-132.649C583.698,-121.923 661.463,-107.882 718.658,-97.5549"/>
<polygon fill="midnightblue" stroke="midnightblue" points="523.39,-129.255 514.171,-134.476 524.634,-136.143 523.39,-129.255"/>
</g>
<!-- Node33&#45;&gt;Node38 -->
<g id="edge7" class="edge"><title>Node33&#45;&gt;Node38</title>
<path fill="none" stroke="midnightblue" d="M487.922,-131.092C518.916,-120.599 557.879,-107.408 586.92,-97.5765"/>
<polygon fill="midnightblue" stroke="midnightblue" points="486.511,-127.874 478.161,-134.396 488.755,-134.504 486.511,-127.874"/>
</g>
<!-- Node39 -->
<g id="node9" class="node"><title>Node39</title>
<g id="a_node9"><a xlink:href="_system_8cc.html" target="_top" xlink:title="/home/alejandro/Desarrollo\l eclipse/os1/src/System.cc">
<polygon fill="white" stroke="black" points="1115.5,-0.5 1115.5,-30.5 1251.5,-30.5 1251.5,-0.5 1115.5,-0.5"/>
<text text-anchor="start" x="1123.5" y="-18.5" font-family="Helvetica,sans-Serif" font-size="10.00">/home/alejandro/Desarrollo</text>
<text text-anchor="middle" x="1183.5" y="-7.5" font-family="Helvetica,sans-Serif" font-size="10.00"> eclipse/os1/src/System.cc</text>
</a>
</g>
</g>
<!-- Node33&#45;&gt;Node39 -->
<g id="edge8" class="edge"><title>Node33&#45;&gt;Node39</title>
<path fill="none" stroke="midnightblue" d="M465.504,-128.745C478.746,-119.576 494.553,-108.42 508.5,-98 526.238,-84.7479 526.9,-75.1187 547.5,-67 560.591,-61.8408 953.797,-33.0412 1115.28,-21.3917"/>
<polygon fill="midnightblue" stroke="midnightblue" points="463.465,-125.9 457.217,-134.456 467.437,-131.663 463.465,-125.9"/>
</g>
<!-- Node40 -->
<g id="node10" class="node"><title>Node40</title>
<g id="a_node10"><a xlink:href="_tracking_8cc.html" target="_top" xlink:title="/home/alejandro/Desarrollo\l eclipse/os1/src/Tracking.cc">
<polygon fill="white" stroke="black" points="832.5,-0.5 832.5,-30.5 972.5,-30.5 972.5,-0.5 832.5,-0.5"/>
<text text-anchor="start" x="840.5" y="-18.5" font-family="Helvetica,sans-Serif" font-size="10.00">/home/alejandro/Desarrollo</text>
<text text-anchor="middle" x="902.5" y="-7.5" font-family="Helvetica,sans-Serif" font-size="10.00"> eclipse/os1/src/Tracking.cc</text>
</a>
</g>
</g>
<!-- Node33&#45;&gt;Node40 -->
<g id="edge9" class="edge"><title>Node33&#45;&gt;Node40</title>
<path fill="none" stroke="midnightblue" d="M347.824,-145.235C259.781,-138.945 144.609,-120.576 194.5,-67 237.356,-20.9787 662.006,-16.2415 832.346,-16.2113"/>
<polygon fill="midnightblue" stroke="midnightblue" points="347.659,-148.732 357.871,-145.91 348.128,-141.748 347.659,-148.732"/>
</g>
<!-- Node41&#45;&gt;Node33 -->
<g id="edge11" class="edge"><title>Node41&#45;&gt;Node33</title>
<path fill="none" stroke="midnightblue" d="M727.566,-286.911C701.213,-277.02 671.9,-265.516 645.5,-254 578.511,-224.779 502.086,-185.311 462.833,-164.572"/>
<polygon fill="midnightblue" stroke="midnightblue" points="726.538,-290.263 737.131,-290.478 728.985,-283.704 726.538,-290.263"/>
</g>
<!-- Node41&#45;&gt;Node38 -->
<g id="edge37" class="edge"><title>Node41&#45;&gt;Node38</title>
<path fill="none" stroke="midnightblue" d="M814.254,-280.048C816.953,-256.224 816.798,-224.929 803.5,-201 774.259,-148.38 710.339,-114.868 668.381,-97.6351"/>
<polygon fill="midnightblue" stroke="midnightblue" points="810.768,-279.708 812.902,-290.085 817.706,-280.642 810.768,-279.708"/>
</g>
<!-- Node42 -->
<g id="node12" class="node"><title>Node42</title>
<g id="a_node12"><a xlink:href="_loop_closing_8h.html" target="_top" xlink:title="/home/alejandro/Desarrollo\l eclipse/os1/include/LoopClosing.h">
<polygon fill="white" stroke="black" points="1123.5,-212.5 1123.5,-242.5 1291.5,-242.5 1291.5,-212.5 1123.5,-212.5"/>
<text text-anchor="start" x="1131.5" y="-230.5" font-family="Helvetica,sans-Serif" font-size="10.00">/home/alejandro/Desarrollo</text>
<text text-anchor="middle" x="1207.5" y="-219.5" font-family="Helvetica,sans-Serif" font-size="10.00"> eclipse/os1/include/LoopClosing.h</text>
</a>
</g>
</g>
<!-- Node41&#45;&gt;Node42 -->
<g id="edge12" class="edge"><title>Node41&#45;&gt;Node42</title>
<path fill="none" stroke="midnightblue" d="M887.524,-298.095C962.622,-281.761 1073.52,-257.641 1143.07,-242.512"/>
<polygon fill="midnightblue" stroke="midnightblue" points="886.66,-294.701 877.632,-300.246 888.148,-301.541 886.66,-294.701"/>
</g>
<!-- Node50 -->
<g id="node20" class="node"><title>Node50</title>
<g id="a_node20"><a xlink:href="_optimizer_8h.html" target="_top" xlink:title="/home/alejandro/Desarrollo\l eclipse/os1/include/Optimizer.h">
<polygon fill="white" stroke="black" points="888.5,-134.5 888.5,-164.5 1044.5,-164.5 1044.5,-134.5 888.5,-134.5"/>
<text text-anchor="start" x="896.5" y="-152.5" font-family="Helvetica,sans-Serif" font-size="10.00">/home/alejandro/Desarrollo</text>
<text text-anchor="middle" x="966.5" y="-141.5" font-family="Helvetica,sans-Serif" font-size="10.00"> eclipse/os1/include/Optimizer.h</text>
</a>
</g>
</g>
<!-- Node41&#45;&gt;Node50 -->
<g id="edge36" class="edge"><title>Node41&#45;&gt;Node50</title>
<path fill="none" stroke="midnightblue" d="M838.733,-283.088C873.418,-247.095 927.825,-190.634 952.95,-164.561"/>
<polygon fill="midnightblue" stroke="midnightblue" points="836.067,-280.811 831.649,-290.44 841.108,-285.668 836.067,-280.811"/>
</g>
<!-- Node52 -->
<g id="node22" class="node"><title>Node52</title>
<g id="a_node22"><a xlink:href="types__seven__dof__expmap_8cpp.html" target="_top" xlink:title="/home/alejandro/Desarrollo\l eclipse/os1/Thirdparty\l/g2o/g2o/types/types_seven\l_dof_expmap.cpp">
<polygon fill="white" stroke="black" points="654.5,-201.5 654.5,-253.5 794.5,-253.5 794.5,-201.5 654.5,-201.5"/>
<text text-anchor="start" x="662.5" y="-241.5" font-family="Helvetica,sans-Serif" font-size="10.00">/home/alejandro/Desarrollo</text>
<text text-anchor="start" x="662.5" y="-230.5" font-family="Helvetica,sans-Serif" font-size="10.00"> eclipse/os1/Thirdparty</text>
<text text-anchor="start" x="662.5" y="-219.5" font-family="Helvetica,sans-Serif" font-size="10.00">/g2o/g2o/types/types_seven</text>
<text text-anchor="middle" x="724.5" y="-208.5" font-family="Helvetica,sans-Serif" font-size="10.00">_dof_expmap.cpp</text>
</a>
</g>
</g>
<!-- Node41&#45;&gt;Node52 -->
<g id="edge38" class="edge"><title>Node41&#45;&gt;Node52</title>
<path fill="none" stroke="midnightblue" d="M776.568,-283.077C767.274,-273.335 757.223,-262.8 748.453,-253.607"/>
<polygon fill="midnightblue" stroke="midnightblue" points="774.058,-285.517 783.493,-290.336 779.123,-280.685 774.058,-285.517"/>
</g>
<!-- Node42&#45;&gt;Node37 -->
<g id="edge34" class="edge"><title>Node42&#45;&gt;Node37</title>
<path fill="none" stroke="midnightblue" d="M1112.95,-223.35C1044.71,-217.704 952.179,-202.913 879.5,-165 847.987,-148.561 820.574,-116.204 806.518,-97.5865"/>
<polygon fill="midnightblue" stroke="midnightblue" points="1113.02,-226.866 1123.26,-224.149 1113.56,-219.887 1113.02,-226.866"/>
</g>
<!-- Node42&#45;&gt;Node39 -->
<g id="edge35" class="edge"><title>Node42&#45;&gt;Node39</title>
<path fill="none" stroke="midnightblue" d="M1208.77,-202.045C1210.63,-182.626 1215.23,-155.294 1226.5,-134 1236.94,-114.278 1253.11,-118.676 1261.5,-98 1266.68,-85.2342 1268.08,-79.1036 1261.5,-67 1252.56,-50.5607 1235.71,-38.6508 1219.95,-30.5408"/>
<polygon fill="midnightblue" stroke="midnightblue" points="1205.26,-201.95 1207.97,-212.194 1212.24,-202.499 1205.26,-201.95"/>
</g>
<!-- Node43 -->
<g id="node13" class="node"><title>Node43</title>
<g id="a_node13"><a xlink:href="_local_mapping_8h.html" target="_top" xlink:title="/home/alejandro/Desarrollo\l eclipse/os1/include/LocalMapping.h">
<polygon fill="white" stroke="black" points="1235.5,-134.5 1235.5,-164.5 1409.5,-164.5 1409.5,-134.5 1235.5,-134.5"/>
<text text-anchor="start" x="1243.5" y="-152.5" font-family="Helvetica,sans-Serif" font-size="10.00">/home/alejandro/Desarrollo</text>
<text text-anchor="middle" x="1322.5" y="-141.5" font-family="Helvetica,sans-Serif" font-size="10.00"> eclipse/os1/include/LocalMapping.h</text>
</a>
</g>
</g>
<!-- Node42&#45;&gt;Node43 -->
<g id="edge13" class="edge"><title>Node42&#45;&gt;Node43</title>
<path fill="none" stroke="midnightblue" d="M1232.04,-206.289C1250.74,-193.187 1276.29,-176.443 1295.56,-164.731"/>
<polygon fill="midnightblue" stroke="midnightblue" points="1229.84,-203.557 1223.72,-212.205 1233.9,-209.262 1229.84,-203.557"/>
</g>
<!-- Node44 -->
<g id="node14" class="node"><title>Node44</title>
<g id="a_node14"><a xlink:href="_tracking_8h.html" target="_top" xlink:title="/home/alejandro/Desarrollo\l eclipse/os1/include/Tracking.h">
<polygon fill="white" stroke="black" points="1357.5,-67.5 1357.5,-97.5 1509.5,-97.5 1509.5,-67.5 1357.5,-67.5"/>
<text text-anchor="start" x="1365.5" y="-85.5" font-family="Helvetica,sans-Serif" font-size="10.00">/home/alejandro/Desarrollo</text>
<text text-anchor="middle" x="1433.5" y="-74.5" font-family="Helvetica,sans-Serif" font-size="10.00"> eclipse/os1/include/Tracking.h</text>
</a>
</g>
</g>
<!-- Node42&#45;&gt;Node44 -->
<g id="edge26" class="edge"><title>Node42&#45;&gt;Node44</title>
<path fill="none" stroke="midnightblue" d="M1301.9,-219.183C1340.29,-211.198 1381.97,-195.477 1409.5,-165 1426.28,-146.423 1427.18,-115.448 1428.86,-97.5108"/>
<polygon fill="midnightblue" stroke="midnightblue" points="1300.86,-215.819 1291.7,-221.144 1302.18,-222.693 1300.86,-215.819"/>
</g>
<!-- Node49 -->
<g id="node19" class="node"><title>Node49</title>
<g id="a_node19"><a xlink:href="_local_mapping_8cc.html" target="_top" xlink:title="/home/alejandro/Desarrollo\l eclipse/os1/src/LocalMapping.cc">
<polygon fill="white" stroke="black" points="1090.5,-67.5 1090.5,-97.5 1252.5,-97.5 1252.5,-67.5 1090.5,-67.5"/>
<text text-anchor="start" x="1098.5" y="-85.5" font-family="Helvetica,sans-Serif" font-size="10.00">/home/alejandro/Desarrollo</text>
<text text-anchor="middle" x="1171.5" y="-74.5" font-family="Helvetica,sans-Serif" font-size="10.00"> eclipse/os1/src/LocalMapping.cc</text>
</a>
</g>
</g>
<!-- Node42&#45;&gt;Node49 -->
<g id="edge33" class="edge"><title>Node42&#45;&gt;Node49</title>
<path fill="none" stroke="midnightblue" d="M1201.38,-202.194C1193.82,-172.159 1181.2,-122.048 1175.07,-97.6766"/>
<polygon fill="midnightblue" stroke="midnightblue" points="1198.08,-203.423 1203.92,-212.266 1204.87,-201.714 1198.08,-203.423"/>
</g>
<!-- Node42&#45;&gt;Node50 -->
<g id="edge27" class="edge"><title>Node42&#45;&gt;Node50</title>
<path fill="none" stroke="midnightblue" d="M1153.31,-209.411C1110.44,-195.891 1051.3,-177.243 1011.13,-164.575"/>
<polygon fill="midnightblue" stroke="midnightblue" points="1152.43,-212.802 1163.02,-212.472 1154.53,-206.126 1152.43,-212.802"/>
</g>
<!-- Node43&#45;&gt;Node39 -->
<g id="edge25" class="edge"><title>Node43&#45;&gt;Node39</title>
<path fill="none" stroke="midnightblue" d="M1319.42,-124.487C1316.03,-106.722 1308.98,-82.9411 1294.5,-67 1279.06,-49.996 1256.76,-38.3342 1236.2,-30.5407"/>
<polygon fill="midnightblue" stroke="midnightblue" points="1315.98,-125.102 1321.07,-134.396 1322.88,-123.958 1315.98,-125.102"/>
</g>
<!-- Node43&#45;&gt;Node42 -->
<g id="edge14" class="edge"><title>Node43&#45;&gt;Node42</title>
<path fill="none" stroke="midnightblue" d="M1298.29,-170.484C1279.49,-183.661 1253.65,-200.599 1234.25,-212.383"/>
<polygon fill="midnightblue" stroke="midnightblue" points="1300.52,-173.193 1306.63,-164.541 1296.46,-167.491 1300.52,-173.193"/>
</g>
<!-- Node43&#45;&gt;Node44 -->
<g id="edge15" class="edge"><title>Node43&#45;&gt;Node44</title>
<path fill="none" stroke="midnightblue" d="M1349.53,-129.015C1365.97,-118.9 1386.88,-106.77 1403.79,-97.5765"/>
<polygon fill="midnightblue" stroke="midnightblue" points="1347.54,-126.133 1340.91,-134.396 1351.24,-132.071 1347.54,-126.133"/>
</g>
<!-- Node43&#45;&gt;Node49 -->
<g id="edge24" class="edge"><title>Node43&#45;&gt;Node49</title>
<path fill="none" stroke="midnightblue" d="M1280.47,-130.407C1256.36,-120.029 1226.55,-107.195 1204.2,-97.5765"/>
<polygon fill="midnightblue" stroke="midnightblue" points="1279.17,-133.657 1289.74,-134.396 1281.93,-127.227 1279.17,-133.657"/>
</g>
<!-- Node44&#45;&gt;Node39 -->
<g id="edge21" class="edge"><title>Node44&#45;&gt;Node39</title>
<path fill="none" stroke="midnightblue" d="M1369.72,-64.9171C1328.92,-54.3099 1276.57,-40.6988 1237.77,-30.6109"/>
<polygon fill="midnightblue" stroke="midnightblue" points="1369,-68.347 1379.56,-67.476 1370.76,-61.5722 1369,-68.347"/>
</g>
<!-- Node44&#45;&gt;Node40 -->
<g id="edge22" class="edge"><title>Node44&#45;&gt;Node40</title>
<path fill="none" stroke="midnightblue" d="M1347.23,-70.9391C1242.81,-58.1576 1069.02,-36.8838 972.512,-25.0702"/>
<polygon fill="midnightblue" stroke="midnightblue" points="1347.07,-74.446 1357.42,-72.1871 1347.92,-67.4979 1347.07,-74.446"/>
</g>
<!-- Node44&#45;&gt;Node42 -->
<g id="edge16" class="edge"><title>Node44&#45;&gt;Node42</title>
<path fill="none" stroke="midnightblue" d="M1442.74,-107.532C1444.43,-125.504 1441.46,-149.543 1427.5,-165 1393.61,-202.518 1338.28,-217.674 1291.53,-223.566"/>
<polygon fill="midnightblue" stroke="midnightblue" points="1446.18,-106.865 1441.21,-97.5108 1439.26,-107.926 1446.18,-106.865"/>
</g>
<!-- Node44&#45;&gt;Node43 -->
<g id="edge17" class="edge"><title>Node44&#45;&gt;Node43</title>
<path fill="none" stroke="midnightblue" d="M1406.52,-102.955C1390.08,-113.066 1369.18,-125.197 1352.26,-134.396"/>
<polygon fill="midnightblue" stroke="midnightblue" points="1408.51,-105.84 1415.14,-97.5765 1404.8,-99.9018 1408.51,-105.84"/>
</g>
<!-- Node45 -->
<g id="node15" class="node"><title>Node45</title>
<g id="a_node15"><a xlink:href="_frame_drawer_8cc.html" target="_top" xlink:title="/home/alejandro/Desarrollo\l eclipse/os1/src/FrameDrawer.cc">
<polygon fill="white" stroke="black" points="1270,-0.5 1270,-30.5 1431,-30.5 1431,-0.5 1270,-0.5"/>
<text text-anchor="start" x="1278" y="-18.5" font-family="Helvetica,sans-Serif" font-size="10.00">/home/alejandro/Desarrollo</text>
<text text-anchor="middle" x="1350.5" y="-7.5" font-family="Helvetica,sans-Serif" font-size="10.00"> eclipse/os1/src/FrameDrawer.cc</text>
</a>
</g>
</g>
<!-- Node44&#45;&gt;Node45 -->
<g id="edge18" class="edge"><title>Node44&#45;&gt;Node45</title>
<path fill="none" stroke="midnightblue" d="M1407.54,-61.1677C1394.85,-51.2283 1379.89,-39.5144 1368.47,-30.5765"/>
<polygon fill="midnightblue" stroke="midnightblue" points="1405.46,-63.9859 1415.49,-67.396 1409.78,-58.4747 1405.46,-63.9859"/>
</g>
<!-- Node46 -->
<g id="node16" class="node"><title>Node46</title>
<g id="a_node16"><a xlink:href="main_8cc.html" target="_top" xlink:title="/home/alejandro/Desarrollo\l eclipse/os1/src/main.cc">
<polygon fill="white" stroke="black" points="1449,-0.5 1449,-30.5 1582,-30.5 1582,-0.5 1449,-0.5"/>
<text text-anchor="start" x="1457" y="-18.5" font-family="Helvetica,sans-Serif" font-size="10.00">/home/alejandro/Desarrollo</text>
<text text-anchor="middle" x="1515.5" y="-7.5" font-family="Helvetica,sans-Serif" font-size="10.00"> eclipse/os1/src/main.cc</text>
</a>
</g>
</g>
<!-- Node44&#45;&gt;Node46 -->
<g id="edge19" class="edge"><title>Node44&#45;&gt;Node46</title>
<path fill="none" stroke="midnightblue" d="M1459.15,-61.1677C1471.69,-51.2283 1486.47,-39.5144 1497.74,-30.5765"/>
<polygon fill="midnightblue" stroke="midnightblue" points="1456.96,-58.4412 1451.29,-67.396 1461.3,-63.9268 1456.96,-58.4412"/>
</g>
<!-- Node47 -->
<g id="node17" class="node"><title>Node47</title>
<g id="a_node17"><a xlink:href="_serializer_8cpp.html" target="_top" xlink:title="/home/alejandro/Desarrollo\l eclipse/os1/src/Serializer.cpp">
<polygon fill="white" stroke="black" points="1600.5,-0.5 1600.5,-30.5 1748.5,-30.5 1748.5,-0.5 1600.5,-0.5"/>
<text text-anchor="start" x="1608.5" y="-18.5" font-family="Helvetica,sans-Serif" font-size="10.00">/home/alejandro/Desarrollo</text>
<text text-anchor="middle" x="1674.5" y="-7.5" font-family="Helvetica,sans-Serif" font-size="10.00"> eclipse/os1/src/Serializer.cpp</text>
</a>
</g>
</g>
<!-- Node44&#45;&gt;Node47 -->
<g id="edge20" class="edge"><title>Node44&#45;&gt;Node47</title>
<path fill="none" stroke="midnightblue" d="M1495.23,-64.8498C1534.53,-54.2523 1584.86,-40.6775 1622.18,-30.6109"/>
<polygon fill="midnightblue" stroke="midnightblue" points="1494.24,-61.4926 1485.5,-67.476 1496.06,-68.2511 1494.24,-61.4926"/>
</g>
<!-- Node48 -->
<g id="node18" class="node"><title>Node48</title>
<g id="a_node18"><a xlink:href="_viewer_8cc.html" target="_top" xlink:title="/home/alejandro/Desarrollo\l eclipse/os1/src/Viewer.cc">
<polygon fill="white" stroke="black" points="1767,-0.5 1767,-30.5 1900,-30.5 1900,-0.5 1767,-0.5"/>
<text text-anchor="start" x="1775" y="-18.5" font-family="Helvetica,sans-Serif" font-size="10.00">/home/alejandro/Desarrollo</text>
<text text-anchor="middle" x="1833.5" y="-7.5" font-family="Helvetica,sans-Serif" font-size="10.00"> eclipse/os1/src/Viewer.cc</text>
</a>
</g>
</g>
<!-- Node44&#45;&gt;Node48 -->
<g id="edge23" class="edge"><title>Node44&#45;&gt;Node48</title>
<path fill="none" stroke="midnightblue" d="M1519.81,-68.8603C1585.16,-59.0932 1677.1,-44.9313 1757.5,-31 1760.54,-30.4725 1763.65,-29.9228 1766.8,-29.3591"/>
<polygon fill="midnightblue" stroke="midnightblue" points="1518.93,-65.4528 1509.56,-70.3895 1519.97,-72.3762 1518.93,-65.4528"/>
</g>
<!-- Node50&#45;&gt;Node37 -->
<g id="edge30" class="edge"><title>Node50&#45;&gt;Node37</title>
<path fill="none" stroke="midnightblue" d="M920.256,-130.819C892.931,-120.371 858.807,-107.323 833.315,-97.5765"/>
<polygon fill="midnightblue" stroke="midnightblue" points="919.022,-134.094 929.613,-134.396 921.522,-127.555 919.022,-134.094"/>
</g>
<!-- Node50&#45;&gt;Node38 -->
<g id="edge31" class="edge"><title>Node50&#45;&gt;Node38</title>
<path fill="none" stroke="midnightblue" d="M883.678,-132.573C827.648,-121.798 754.365,-107.705 700.713,-97.3871"/>
<polygon fill="midnightblue" stroke="midnightblue" points="883.094,-136.024 893.575,-134.476 884.416,-129.15 883.094,-136.024"/>
</g>
<!-- Node50&#45;&gt;Node40 -->
<g id="edge32" class="edge"><title>Node50&#45;&gt;Node40</title>
<path fill="none" stroke="midnightblue" d="M943.007,-126.974C935.127,-118.623 926.964,-108.535 921.5,-98 910.195,-76.2036 905.536,-47.6671 903.675,-30.7885"/>
<polygon fill="midnightblue" stroke="midnightblue" points="940.556,-129.473 950.078,-134.119 945.531,-124.549 940.556,-129.473"/>
</g>
<!-- Node50&#45;&gt;Node49 -->
<g id="edge29" class="edge"><title>Node50&#45;&gt;Node49</title>
<path fill="none" stroke="midnightblue" d="M1020.29,-131.444C1053.52,-120.908 1095.65,-107.549 1127,-97.6109"/>
<polygon fill="midnightblue" stroke="midnightblue" points="1019.2,-128.117 1010.73,-134.476 1021.32,-134.79 1019.2,-128.117"/>
</g>
<!-- Node51 -->
<g id="node21" class="node"><title>Node51</title>
<g id="a_node21"><a xlink:href="_initializer_8cc.html" target="_top" xlink:title="/home/alejandro/Desarrollo\l eclipse/os1/src/Initializer.cc">
<polygon fill="white" stroke="black" points="931,-67.5 931,-97.5 1072,-97.5 1072,-67.5 931,-67.5"/>
<text text-anchor="start" x="939" y="-85.5" font-family="Helvetica,sans-Serif" font-size="10.00">/home/alejandro/Desarrollo</text>
<text text-anchor="middle" x="1001.5" y="-74.5" font-family="Helvetica,sans-Serif" font-size="10.00"> eclipse/os1/src/Initializer.cc</text>
</a>
</g>
</g>
<!-- Node50&#45;&gt;Node51 -->
<g id="edge28" class="edge"><title>Node50&#45;&gt;Node51</title>
<path fill="none" stroke="midnightblue" d="M978.844,-125.576C983.87,-116.241 989.52,-105.748 993.92,-97.5765"/>
<polygon fill="midnightblue" stroke="midnightblue" points="975.754,-123.932 974.094,-134.396 981.917,-127.251 975.754,-123.932"/>
</g>
<!-- Node54&#45;&gt;Node32 -->
<g id="edge42" class="edge"><title>Node54&#45;&gt;Node32</title>
<path fill="none" stroke="midnightblue" d="M646.294,-463.375C628.637,-453.312 608.236,-441.685 590.499,-431.576"/>
<polygon fill="midnightblue" stroke="midnightblue" points="644.827,-466.568 655.248,-468.479 648.293,-460.486 644.827,-466.568"/>
</g>
<!-- Node55 -->
<g id="node25" class="node"><title>Node55</title>
<g id="a_node25"><a xlink:href="types__sba_8cpp.html" target="_top" xlink:title="/home/alejandro/Desarrollo\l eclipse/os1/Thirdparty\l/g2o/g2o/types/types_sba.cpp">
<polygon fill="white" stroke="black" points="631.5,-385 631.5,-426 779.5,-426 779.5,-385 631.5,-385"/>
<text text-anchor="start" x="639.5" y="-414" font-family="Helvetica,sans-Serif" font-size="10.00">/home/alejandro/Desarrollo</text>
<text text-anchor="start" x="639.5" y="-403" font-family="Helvetica,sans-Serif" font-size="10.00"> eclipse/os1/Thirdparty</text>
<text text-anchor="middle" x="705.5" y="-392" font-family="Helvetica,sans-Serif" font-size="10.00">/g2o/g2o/types/types_sba.cpp</text>
</a>
</g>
</g>
<!-- Node54&#45;&gt;Node55 -->
<g id="edge43" class="edge"><title>Node54&#45;&gt;Node55</title>
<path fill="none" stroke="midnightblue" d="M695.311,-458.398C697.426,-447.627 699.762,-435.73 701.663,-426.047"/>
<polygon fill="midnightblue" stroke="midnightblue" points="691.865,-457.784 693.373,-468.271 698.734,-459.133 691.865,-457.784"/>
</g>
</g>
</svg>
