<?xml version="1.0" encoding="UTF-8" standalone="no"?>
<!DOCTYPE svg PUBLIC "-//W3C//DTD SVG 1.1//EN"
 "http://www.w3.org/Graphics/SVG/1.1/DTD/svg11.dtd">
<!-- Generated by graphviz version 2.38.0 (20140413.2041)
 -->
<!-- Title: /home/alejandro/Desarrollo eclipse/os1/Thirdparty/g2o/g2o/core/base_edge.h Pages: 1 -->
<svg width="1814pt" height="797pt"
 viewBox="0.00 0.00 1814.29 797.00" xmlns="http://www.w3.org/2000/svg" xmlns:xlink="http://www.w3.org/1999/xlink">
<g id="graph0" class="graph" transform="scale(1 1) rotate(0) translate(4 793)">
<title>/home/alejandro/Desarrollo eclipse/os1/Thirdparty/g2o/g2o/core/base_edge.h</title>
<polygon fill="white" stroke="none" points="-4,4 -4,-793 1810.29,-793 1810.29,4 -4,4"/>
<!-- Node26 -->
<g id="node1" class="node"><title>Node26</title>
<polygon fill="#bfbfbf" stroke="black" points="785.216,-747.5 785.216,-788.5 919.216,-788.5 919.216,-747.5 785.216,-747.5"/>
<text text-anchor="start" x="793.216" y="-776.5" font-family="Helvetica,sans-Serif" font-size="10.00">/home/alejandro/Desarrollo</text>
<text text-anchor="start" x="793.216" y="-765.5" font-family="Helvetica,sans-Serif" font-size="10.00"> eclipse/os1/Thirdparty</text>
<text text-anchor="middle" x="852.216" y="-754.5" font-family="Helvetica,sans-Serif" font-size="10.00">/g2o/g2o/core/base_edge.h</text>
</g>
<!-- Node27 -->
<g id="node2" class="node"><title>Node27</title>
<g id="a_node2"><a xlink:href="base__binary__edge_8h.html" target="_top" xlink:title="/home/alejandro/Desarrollo\l eclipse/os1/Thirdparty\l/g2o/g2o/core/base_binary_edge.h">
<polygon fill="white" stroke="black" points="769.216,-669.5 769.216,-710.5 935.216,-710.5 935.216,-669.5 769.216,-669.5"/>
<text text-anchor="start" x="777.216" y="-698.5" font-family="Helvetica,sans-Serif" font-size="10.00">/home/alejandro/Desarrollo</text>
<text text-anchor="start" x="777.216" y="-687.5" font-family="Helvetica,sans-Serif" font-size="10.00"> eclipse/os1/Thirdparty</text>
<text text-anchor="middle" x="852.216" y="-676.5" font-family="Helvetica,sans-Serif" font-size="10.00">/g2o/g2o/core/base_binary_edge.h</text>
</a>
</g>
</g>
<!-- Node26&#45;&gt;Node27 -->
<g id="edge1" class="edge"><title>Node26&#45;&gt;Node27</title>
<path fill="none" stroke="midnightblue" d="M852.216,-737.297C852.216,-728.301 852.216,-718.653 852.216,-710.506"/>
<polygon fill="midnightblue" stroke="midnightblue" points="848.716,-737.428 852.216,-747.428 855.716,-737.428 848.716,-737.428"/>
</g>
<!-- Node52 -->
<g id="node27" class="node"><title>Node52</title>
<g id="a_node27"><a xlink:href="base__unary__edge_8h.html" target="_top" xlink:title="/home/alejandro/Desarrollo\l eclipse/os1/Thirdparty\l/g2o/g2o/core/base_unary_edge.h">
<polygon fill="white" stroke="black" points="587.216,-669.5 587.216,-710.5 751.216,-710.5 751.216,-669.5 587.216,-669.5"/>
<text text-anchor="start" x="595.216" y="-698.5" font-family="Helvetica,sans-Serif" font-size="10.00">/home/alejandro/Desarrollo</text>
<text text-anchor="start" x="595.216" y="-687.5" font-family="Helvetica,sans-Serif" font-size="10.00"> eclipse/os1/Thirdparty</text>
<text text-anchor="middle" x="669.216" y="-676.5" font-family="Helvetica,sans-Serif" font-size="10.00">/g2o/g2o/core/base_unary_edge.h</text>
</a>
</g>
</g>
<!-- Node26&#45;&gt;Node52 -->
<g id="edge54" class="edge"><title>Node26&#45;&gt;Node52</title>
<path fill="none" stroke="midnightblue" d="M795.556,-743.469C770.088,-732.892 740.387,-720.557 716.184,-710.506"/>
<polygon fill="midnightblue" stroke="midnightblue" points="794.512,-746.825 805.089,-747.428 797.196,-740.36 794.512,-746.825"/>
</g>
<!-- Node53 -->
<g id="node28" class="node"><title>Node53</title>
<g id="a_node28"><a xlink:href="base__multi__edge_8h.html" target="_top" xlink:title="/home/alejandro/Desarrollo\l eclipse/os1/Thirdparty\l/g2o/g2o/core/base_multi_edge.h">
<polygon fill="white" stroke="black" points="953.716,-669.5 953.716,-710.5 1114.72,-710.5 1114.72,-669.5 953.716,-669.5"/>
<text text-anchor="start" x="961.716" y="-698.5" font-family="Helvetica,sans-Serif" font-size="10.00">/home/alejandro/Desarrollo</text>
<text text-anchor="start" x="961.716" y="-687.5" font-family="Helvetica,sans-Serif" font-size="10.00"> eclipse/os1/Thirdparty</text>
<text text-anchor="middle" x="1034.22" y="-676.5" font-family="Helvetica,sans-Serif" font-size="10.00">/g2o/g2o/core/base_multi_edge.h</text>
</a>
</g>
</g>
<!-- Node26&#45;&gt;Node53 -->
<g id="edge56" class="edge"><title>Node26&#45;&gt;Node53</title>
<path fill="none" stroke="midnightblue" d="M908.567,-743.469C933.896,-732.892 963.435,-720.557 987.506,-710.506"/>
<polygon fill="midnightblue" stroke="midnightblue" points="906.965,-740.345 899.086,-747.428 909.662,-746.804 906.965,-740.345"/>
</g>
<!-- Node28 -->
<g id="node3" class="node"><title>Node28</title>
<g id="a_node3"><a xlink:href="types__six__dof__expmap_8h.html" target="_top" xlink:title="/home/alejandro/Desarrollo\l eclipse/os1/Thirdparty\l/g2o/g2o/types/types_six\l_dof_expmap.h">
<polygon fill="white" stroke="black" points="616.716,-580.5 616.716,-632.5 749.716,-632.5 749.716,-580.5 616.716,-580.5"/>
<text text-anchor="start" x="624.716" y="-620.5" font-family="Helvetica,sans-Serif" font-size="10.00">/home/alejandro/Desarrollo</text>
<text text-anchor="start" x="624.716" y="-609.5" font-family="Helvetica,sans-Serif" font-size="10.00"> eclipse/os1/Thirdparty</text>
<text text-anchor="start" x="624.716" y="-598.5" font-family="Helvetica,sans-Serif" font-size="10.00">/g2o/g2o/types/types_six</text>
<text text-anchor="middle" x="683.216" y="-587.5" font-family="Helvetica,sans-Serif" font-size="10.00">_dof_expmap.h</text>
</a>
</g>
</g>
<!-- Node27&#45;&gt;Node28 -->
<g id="edge2" class="edge"><title>Node27&#45;&gt;Node28</title>
<path fill="none" stroke="midnightblue" d="M802.585,-665.065C781.395,-654.847 756.658,-642.917 735.215,-632.576"/>
<polygon fill="midnightblue" stroke="midnightblue" points="801.209,-668.287 811.737,-669.479 804.25,-661.982 801.209,-668.287"/>
</g>
<!-- Node37 -->
<g id="node12" class="node"><title>Node37</title>
<g id="a_node12"><a xlink:href="types__seven__dof__expmap_8h.html" target="_top" xlink:title="/home/alejandro/Desarrollo\l eclipse/os1/Thirdparty\l/g2o/g2o/types/types_seven\l_dof_expmap.h">
<polygon fill="white" stroke="black" points="782.216,-491.5 782.216,-543.5 922.216,-543.5 922.216,-491.5 782.216,-491.5"/>
<text text-anchor="start" x="790.216" y="-531.5" font-family="Helvetica,sans-Serif" font-size="10.00">/home/alejandro/Desarrollo</text>
<text text-anchor="start" x="790.216" y="-520.5" font-family="Helvetica,sans-Serif" font-size="10.00"> eclipse/os1/Thirdparty</text>
<text text-anchor="start" x="790.216" y="-509.5" font-family="Helvetica,sans-Serif" font-size="10.00">/g2o/g2o/types/types_seven</text>
<text text-anchor="middle" x="852.216" y="-498.5" font-family="Helvetica,sans-Serif" font-size="10.00">_dof_expmap.h</text>
</a>
</g>
</g>
<!-- Node27&#45;&gt;Node37 -->
<g id="edge53" class="edge"><title>Node27&#45;&gt;Node37</title>
<path fill="none" stroke="midnightblue" d="M852.216,-659.126C852.216,-626.361 852.216,-574.358 852.216,-543.615"/>
<polygon fill="midnightblue" stroke="midnightblue" points="848.716,-659.441 852.216,-669.441 855.716,-659.442 848.716,-659.441"/>
</g>
<!-- Node29 -->
<g id="node4" class="node"><title>Node29</title>
<g id="a_node4"><a xlink:href="_converter_8h.html" target="_top" xlink:title="/home/alejandro/Desarrollo\l eclipse/os1/include/Converter.h">
<polygon fill="white" stroke="black" points="416.716,-335.5 416.716,-365.5 573.716,-365.5 573.716,-335.5 416.716,-335.5"/>
<text text-anchor="start" x="424.716" y="-353.5" font-family="Helvetica,sans-Serif" font-size="10.00">/home/alejandro/Desarrollo</text>
<text text-anchor="middle" x="495.216" y="-342.5" font-family="Helvetica,sans-Serif" font-size="10.00"> eclipse/os1/include/Converter.h</text>
</a>
</g>
</g>
<!-- Node28&#45;&gt;Node29 -->
<g id="edge3" class="edge"><title>Node28&#45;&gt;Node29</title>
<path fill="none" stroke="midnightblue" d="M624.786,-574.832C611.654,-566.097 598.562,-555.721 588.216,-544 538.356,-487.512 509.093,-399.567 499.113,-365.573"/>
<polygon fill="midnightblue" stroke="midnightblue" points="623.082,-577.897 633.393,-580.333 626.852,-571.998 623.082,-577.897"/>
</g>
<!-- Node34 -->
<g id="node9" class="node"><title>Node34</title>
<g id="a_node9"><a xlink:href="_optimizer_8cc.html" target="_top" xlink:title="/home/alejandro/Desarrollo\l eclipse/os1/src/Optimizer.cc">
<polygon fill="white" stroke="black" points="548.216,-268.5 548.216,-298.5 692.216,-298.5 692.216,-268.5 548.216,-268.5"/>
<text text-anchor="start" x="556.216" y="-286.5" font-family="Helvetica,sans-Serif" font-size="10.00">/home/alejandro/Desarrollo</text>
<text text-anchor="middle" x="620.216" y="-275.5" font-family="Helvetica,sans-Serif" font-size="10.00"> eclipse/os1/src/Optimizer.cc</text>
</a>
</g>
</g>
<!-- Node28&#45;&gt;Node34 -->
<g id="edge51" class="edge"><title>Node28&#45;&gt;Node34</title>
<path fill="none" stroke="midnightblue" d="M641.394,-573.252C633.199,-564.71 625.747,-554.816 621.216,-544 584.84,-457.151 607.193,-339.148 616.627,-298.747"/>
<polygon fill="midnightblue" stroke="midnightblue" points="639.126,-575.929 648.732,-580.4 644.01,-570.915 639.126,-575.929"/>
</g>
<!-- Node28&#45;&gt;Node37 -->
<g id="edge11" class="edge"><title>Node28&#45;&gt;Node37</title>
<path fill="none" stroke="midnightblue" d="M741.229,-575.635C761.491,-565.205 784.012,-553.611 803.444,-543.607"/>
<polygon fill="midnightblue" stroke="midnightblue" points="739.387,-572.647 732.098,-580.336 742.591,-578.871 739.387,-572.647"/>
</g>
<!-- Node51 -->
<g id="node26" class="node"><title>Node51</title>
<g id="a_node26"><a xlink:href="types__six__dof__expmap_8cpp.html" target="_top" xlink:title="/home/alejandro/Desarrollo\l eclipse/os1/Thirdparty\l/g2o/g2o/types/types_six\l_dof_expmap.cpp">
<polygon fill="white" stroke="black" points="630.716,-491.5 630.716,-543.5 763.716,-543.5 763.716,-491.5 630.716,-491.5"/>
<text text-anchor="start" x="638.716" y="-531.5" font-family="Helvetica,sans-Serif" font-size="10.00">/home/alejandro/Desarrollo</text>
<text text-anchor="start" x="638.716" y="-520.5" font-family="Helvetica,sans-Serif" font-size="10.00"> eclipse/os1/Thirdparty</text>
<text text-anchor="start" x="638.716" y="-509.5" font-family="Helvetica,sans-Serif" font-size="10.00">/g2o/g2o/types/types_six</text>
<text text-anchor="middle" x="697.216" y="-498.5" font-family="Helvetica,sans-Serif" font-size="10.00">_dof_expmap.cpp</text>
</a>
</g>
</g>
<!-- Node28&#45;&gt;Node51 -->
<g id="edge52" class="edge"><title>Node28&#45;&gt;Node51</title>
<path fill="none" stroke="midnightblue" d="M688.898,-570.191C690.332,-561.282 691.842,-551.899 693.176,-543.607"/>
<polygon fill="midnightblue" stroke="midnightblue" points="685.399,-569.907 687.266,-580.336 692.31,-571.019 685.399,-569.907"/>
</g>
<!-- Node30 -->
<g id="node5" class="node"><title>Node30</title>
<g id="a_node5"><a xlink:href="_converter_8cc.html" target="_top" xlink:title="/home/alejandro/Desarrollo\l eclipse/os1/src/Converter.cc">
<polygon fill="white" stroke="black" points="30.7163,-268.5 30.7163,-298.5 175.716,-298.5 175.716,-268.5 30.7163,-268.5"/>
<text text-anchor="start" x="38.7163" y="-286.5" font-family="Helvetica,sans-Serif" font-size="10.00">/home/alejandro/Desarrollo</text>
<text text-anchor="middle" x="103.216" y="-275.5" font-family="Helvetica,sans-Serif" font-size="10.00"> eclipse/os1/src/Converter.cc</text>
</a>
</g>
</g>
<!-- Node29&#45;&gt;Node30 -->
<g id="edge4" class="edge"><title>Node29&#45;&gt;Node30</title>
<path fill="none" stroke="midnightblue" d="M406.374,-335.465C344.136,-325.537 259.044,-311.772 184.216,-299 181.541,-298.543 178.816,-298.075 176.064,-297.598"/>
<polygon fill="midnightblue" stroke="midnightblue" points="406.124,-338.969 416.551,-337.086 407.226,-332.056 406.124,-338.969"/>
</g>
<!-- Node31 -->
<g id="node6" class="node"><title>Node31</title>
<g id="a_node6"><a xlink:href="_frame_8cc.html" target="_top" xlink:title="/home/alejandro/Desarrollo\l eclipse/os1/src/Frame.cc">
<polygon fill="white" stroke="black" points="193.716,-268.5 193.716,-298.5 326.716,-298.5 326.716,-268.5 193.716,-268.5"/>
<text text-anchor="start" x="201.716" y="-286.5" font-family="Helvetica,sans-Serif" font-size="10.00">/home/alejandro/Desarrollo</text>
<text text-anchor="middle" x="260.216" y="-275.5" font-family="Helvetica,sans-Serif" font-size="10.00"> eclipse/os1/src/Frame.cc</text>
</a>
</g>
</g>
<!-- Node29&#45;&gt;Node31 -->
<g id="edge5" class="edge"><title>Node29&#45;&gt;Node31</title>
<path fill="none" stroke="midnightblue" d="M434.532,-332.715C396.29,-322.137 347.473,-308.635 311.233,-298.611"/>
<polygon fill="midnightblue" stroke="midnightblue" points="433.943,-336.183 444.514,-335.476 435.809,-329.437 433.943,-336.183"/>
</g>
<!-- Node32 -->
<g id="node7" class="node"><title>Node32</title>
<g id="a_node7"><a xlink:href="_key_frame_8cc.html" target="_top" xlink:title="/home/alejandro/Desarrollo\l eclipse/os1/src/KeyFrame.cc">
<polygon fill="white" stroke="black" points="344.716,-268.5 344.716,-298.5 491.716,-298.5 491.716,-268.5 344.716,-268.5"/>
<text text-anchor="start" x="352.716" y="-286.5" font-family="Helvetica,sans-Serif" font-size="10.00">/home/alejandro/Desarrollo</text>
<text text-anchor="middle" x="418.216" y="-275.5" font-family="Helvetica,sans-Serif" font-size="10.00"> eclipse/os1/src/KeyFrame.cc</text>
</a>
</g>
</g>
<!-- Node29&#45;&gt;Node32 -->
<g id="edge6" class="edge"><title>Node29&#45;&gt;Node32</title>
<path fill="none" stroke="midnightblue" d="M470.793,-328.883C459.092,-319.005 445.379,-307.429 434.892,-298.577"/>
<polygon fill="midnightblue" stroke="midnightblue" points="468.609,-331.62 478.508,-335.396 473.125,-326.271 468.609,-331.62"/>
</g>
<!-- Node33 -->
<g id="node8" class="node"><title>Node33</title>
<g id="a_node8"><a xlink:href="_loop_closing_8cc.html" target="_top" xlink:title="/home/alejandro/Desarrollo\l eclipse/os1/src/LoopClosing.cc">
<polygon fill="white" stroke="black" points="710.216,-268.5 710.216,-298.5 866.216,-298.5 866.216,-268.5 710.216,-268.5"/>
<text text-anchor="start" x="718.216" y="-286.5" font-family="Helvetica,sans-Serif" font-size="10.00">/home/alejandro/Desarrollo</text>
<text text-anchor="middle" x="788.216" y="-275.5" font-family="Helvetica,sans-Serif" font-size="10.00"> eclipse/os1/src/LoopClosing.cc</text>
</a>
</g>
</g>
<!-- Node29&#45;&gt;Node33 -->
<g id="edge7" class="edge"><title>Node29&#45;&gt;Node33</title>
<path fill="none" stroke="midnightblue" d="M568.473,-333.249C616.585,-322.575 678.889,-308.754 724.861,-298.555"/>
<polygon fill="midnightblue" stroke="midnightblue" points="567.437,-329.893 558.432,-335.476 568.953,-336.727 567.437,-329.893"/>
</g>
<!-- Node29&#45;&gt;Node34 -->
<g id="edge8" class="edge"><title>Node29&#45;&gt;Node34</title>
<path fill="none" stroke="midnightblue" d="M531.343,-330.714C551.057,-320.463 575.057,-307.983 593.146,-298.577"/>
<polygon fill="midnightblue" stroke="midnightblue" points="529.597,-327.677 522.339,-335.396 532.826,-333.888 529.597,-327.677"/>
</g>
<!-- Node35 -->
<g id="node10" class="node"><title>Node35</title>
<g id="a_node10"><a xlink:href="_system_8cc.html" target="_top" xlink:title="/home/alejandro/Desarrollo\l eclipse/os1/src/System.cc">
<polygon fill="white" stroke="black" points="1229.22,-201.5 1229.22,-231.5 1365.22,-231.5 1365.22,-201.5 1229.22,-201.5"/>
<text text-anchor="start" x="1237.22" y="-219.5" font-family="Helvetica,sans-Serif" font-size="10.00">/home/alejandro/Desarrollo</text>
<text text-anchor="middle" x="1297.22" y="-208.5" font-family="Helvetica,sans-Serif" font-size="10.00"> eclipse/os1/src/System.cc</text>
</a>
</g>
</g>
<!-- Node29&#45;&gt;Node35 -->
<g id="edge9" class="edge"><title>Node29&#45;&gt;Node35</title>
<path fill="none" stroke="midnightblue" d="M501.245,-325.608C507.408,-306.554 519.014,-280.982 539.216,-268 596.428,-231.237 1053.47,-220.932 1228.94,-218.315"/>
<polygon fill="midnightblue" stroke="midnightblue" points="497.828,-324.821 498.36,-335.402 504.543,-326.798 497.828,-324.821"/>
</g>
<!-- Node36 -->
<g id="node11" class="node"><title>Node36</title>
<g id="a_node11"><a xlink:href="_tracking_8cc.html" target="_top" xlink:title="/home/alejandro/Desarrollo\l eclipse/os1/src/Tracking.cc">
<polygon fill="white" stroke="black" points="935.216,-0.5 935.216,-30.5 1075.22,-30.5 1075.22,-0.5 935.216,-0.5"/>
<text text-anchor="start" x="943.216" y="-18.5" font-family="Helvetica,sans-Serif" font-size="10.00">/home/alejandro/Desarrollo</text>
<text text-anchor="middle" x="1005.22" y="-7.5" font-family="Helvetica,sans-Serif" font-size="10.00"> eclipse/os1/src/Tracking.cc</text>
</a>
</g>
</g>
<!-- Node29&#45;&gt;Node36 -->
<g id="edge10" class="edge"><title>Node29&#45;&gt;Node36</title>
<path fill="none" stroke="midnightblue" d="M406.255,-345.527C276.969,-338.934 49.4189,-323.933 21.2163,-299 -6.64893,-274.365 2.21631,-254.694 2.21631,-217.5 2.21631,-217.5 2.21631,-217.5 2.21631,-148.5 2.21631,-54.2617 707.204,-25.2581 935.086,-18.3446"/>
<polygon fill="midnightblue" stroke="midnightblue" points="406.374,-349.037 416.537,-346.044 406.725,-342.046 406.374,-349.037"/>
</g>
<!-- Node37&#45;&gt;Node29 -->
<g id="edge12" class="edge"><title>Node37&#45;&gt;Node29</title>
<path fill="none" stroke="midnightblue" d="M772.438,-490.866C723.657,-475.114 669.587,-457.481 664.216,-455 607.061,-428.591 545.26,-387.05 514.663,-365.506"/>
<polygon fill="midnightblue" stroke="midnightblue" points="771.516,-494.246 782.108,-493.986 773.666,-487.584 771.516,-494.246"/>
</g>
<!-- Node37&#45;&gt;Node34 -->
<g id="edge49" class="edge"><title>Node37&#45;&gt;Node34</title>
<path fill="none" stroke="midnightblue" d="M782.731,-486.706C766.459,-477.887 749.898,-467.254 736.216,-455 682.88,-407.226 642.081,-330.034 626.783,-298.549"/>
<polygon fill="midnightblue" stroke="midnightblue" points="781.24,-489.876 791.722,-491.417 784.489,-483.675 781.24,-489.876"/>
</g>
<!-- Node38 -->
<g id="node13" class="node"><title>Node38</title>
<g id="a_node13"><a xlink:href="_loop_closing_8h.html" target="_top" xlink:title="/home/alejandro/Desarrollo\l eclipse/os1/include/LoopClosing.h">
<polygon fill="white" stroke="black" points="1194.22,-413.5 1194.22,-443.5 1362.22,-443.5 1362.22,-413.5 1194.22,-413.5"/>
<text text-anchor="start" x="1202.22" y="-431.5" font-family="Helvetica,sans-Serif" font-size="10.00">/home/alejandro/Desarrollo</text>
<text text-anchor="middle" x="1278.22" y="-420.5" font-family="Helvetica,sans-Serif" font-size="10.00"> eclipse/os1/include/LoopClosing.h</text>
</a>
</g>
</g>
<!-- Node37&#45;&gt;Node38 -->
<g id="edge13" class="edge"><title>Node37&#45;&gt;Node38</title>
<path fill="none" stroke="midnightblue" d="M932.587,-500.086C1012.55,-483.756 1133.93,-458.966 1209.53,-443.527"/>
<polygon fill="midnightblue" stroke="midnightblue" points="931.659,-496.703 922.562,-502.134 933.06,-503.562 931.659,-496.703"/>
</g>
<!-- Node48 -->
<g id="node23" class="node"><title>Node48</title>
<g id="a_node23"><a xlink:href="_optimizer_8h.html" target="_top" xlink:title="/home/alejandro/Desarrollo\l eclipse/os1/include/Optimizer.h">
<polygon fill="white" stroke="black" points="835.216,-335.5 835.216,-365.5 991.216,-365.5 991.216,-335.5 835.216,-335.5"/>
<text text-anchor="start" x="843.216" y="-353.5" font-family="Helvetica,sans-Serif" font-size="10.00">/home/alejandro/Desarrollo</text>
<text text-anchor="middle" x="913.216" y="-342.5" font-family="Helvetica,sans-Serif" font-size="10.00"> eclipse/os1/include/Optimizer.h</text>
</a>
</g>
</g>
<!-- Node37&#45;&gt;Node48 -->
<g id="edge48" class="edge"><title>Node37&#45;&gt;Node48</title>
<path fill="none" stroke="midnightblue" d="M878.84,-482.909C884.668,-474.218 890.268,-464.595 894.216,-455 906.66,-424.759 910.991,-386.206 912.471,-365.75"/>
<polygon fill="midnightblue" stroke="midnightblue" points="875.864,-481.056 872.988,-491.252 881.595,-485.075 875.864,-481.056"/>
</g>
<!-- Node50 -->
<g id="node25" class="node"><title>Node50</title>
<g id="a_node25"><a xlink:href="types__seven__dof__expmap_8cpp.html" target="_top" xlink:title="/home/alejandro/Desarrollo\l eclipse/os1/Thirdparty\l/g2o/g2o/types/types_seven\l_dof_expmap.cpp">
<polygon fill="white" stroke="black" points="745.216,-402.5 745.216,-454.5 885.216,-454.5 885.216,-402.5 745.216,-402.5"/>
<text text-anchor="start" x="753.216" y="-442.5" font-family="Helvetica,sans-Serif" font-size="10.00">/home/alejandro/Desarrollo</text>
<text text-anchor="start" x="753.216" y="-431.5" font-family="Helvetica,sans-Serif" font-size="10.00"> eclipse/os1/Thirdparty</text>
<text text-anchor="start" x="753.216" y="-420.5" font-family="Helvetica,sans-Serif" font-size="10.00">/g2o/g2o/types/types_seven</text>
<text text-anchor="middle" x="815.216" y="-409.5" font-family="Helvetica,sans-Serif" font-size="10.00">_dof_expmap.cpp</text>
</a>
</g>
</g>
<!-- Node37&#45;&gt;Node50 -->
<g id="edge50" class="edge"><title>Node37&#45;&gt;Node50</title>
<path fill="none" stroke="midnightblue" d="M837.57,-482.061C833.672,-472.896 829.535,-463.169 825.894,-454.607"/>
<polygon fill="midnightblue" stroke="midnightblue" points="834.38,-483.503 841.514,-491.336 840.821,-480.764 834.38,-483.503"/>
</g>
<!-- Node38&#45;&gt;Node33 -->
<g id="edge47" class="edge"><title>Node38&#45;&gt;Node33</title>
<path fill="none" stroke="midnightblue" d="M1183.94,-425.112C1068.46,-420.435 881.381,-406.634 826.216,-366 804.093,-349.704 794.429,-317.294 790.548,-298.628"/>
<polygon fill="midnightblue" stroke="midnightblue" points="1184.06,-428.62 1194.19,-425.511 1184.33,-421.625 1184.06,-428.62"/>
</g>
<!-- Node39 -->
<g id="node14" class="node"><title>Node39</title>
<g id="a_node14"><a xlink:href="_local_mapping_8h.html" target="_top" xlink:title="/home/alejandro/Desarrollo\l eclipse/os1/include/LocalMapping.h">
<polygon fill="white" stroke="black" points="1191.22,-335.5 1191.22,-365.5 1365.22,-365.5 1365.22,-335.5 1191.22,-335.5"/>
<text text-anchor="start" x="1199.22" y="-353.5" font-family="Helvetica,sans-Serif" font-size="10.00">/home/alejandro/Desarrollo</text>
<text text-anchor="middle" x="1278.22" y="-342.5" font-family="Helvetica,sans-Serif" font-size="10.00"> eclipse/os1/include/LocalMapping.h</text>
</a>
</g>
</g>
<!-- Node38&#45;&gt;Node39 -->
<g id="edge14" class="edge"><title>Node38&#45;&gt;Node39</title>
<path fill="none" stroke="midnightblue" d="M1271.87,-403.09C1271.11,-390.757 1271.43,-376.224 1272.81,-365.731"/>
<polygon fill="midnightblue" stroke="midnightblue" points="1268.4,-403.571 1272.8,-413.205 1275.37,-402.924 1268.4,-403.571"/>
</g>
<!-- Node40 -->
<g id="node15" class="node"><title>Node40</title>
<g id="a_node15"><a xlink:href="_system_8h.html" target="_top" xlink:title="/home/alejandro/Desarrollo\l eclipse/os1/include/System.h">
<polygon fill="white" stroke="black" points="1439.22,-268.5 1439.22,-298.5 1587.22,-298.5 1587.22,-268.5 1439.22,-268.5"/>
<text text-anchor="start" x="1447.22" y="-286.5" font-family="Helvetica,sans-Serif" font-size="10.00">/home/alejandro/Desarrollo</text>
<text text-anchor="middle" x="1513.22" y="-275.5" font-family="Helvetica,sans-Serif" font-size="10.00"> eclipse/os1/include/System.h</text>
</a>
</g>
</g>
<!-- Node38&#45;&gt;Node40 -->
<g id="edge38" class="edge"><title>Node38&#45;&gt;Node40</title>
<path fill="none" stroke="midnightblue" d="M1332.47,-409.993C1361.24,-399.456 1396.47,-384.49 1425.22,-366 1455.34,-346.623 1484.71,-316.493 1500.74,-298.807"/>
<polygon fill="midnightblue" stroke="midnightblue" points="1331.22,-406.726 1322.99,-413.396 1333.58,-413.315 1331.22,-406.726"/>
</g>
<!-- Node42 -->
<g id="node17" class="node"><title>Node42</title>
<g id="a_node17"><a xlink:href="_tracking_8h.html" target="_top" xlink:title="/home/alejandro/Desarrollo\l eclipse/os1/include/Tracking.h">
<polygon fill="white" stroke="black" points="1326.22,-134.5 1326.22,-164.5 1478.22,-164.5 1478.22,-134.5 1326.22,-134.5"/>
<text text-anchor="start" x="1334.22" y="-152.5" font-family="Helvetica,sans-Serif" font-size="10.00">/home/alejandro/Desarrollo</text>
<text text-anchor="middle" x="1402.22" y="-141.5" font-family="Helvetica,sans-Serif" font-size="10.00"> eclipse/os1/include/Tracking.h</text>
</a>
</g>
</g>
<!-- Node38&#45;&gt;Node42 -->
<g id="edge39" class="edge"><title>Node38&#45;&gt;Node42</title>
<path fill="none" stroke="midnightblue" d="M1315.87,-408.667C1333.64,-398.721 1353.39,-384.647 1365.22,-366 1406.74,-300.524 1399.64,-201.303 1399.88,-164.705"/>
<polygon fill="midnightblue" stroke="midnightblue" points="1313.98,-405.704 1306.8,-413.493 1317.27,-411.882 1313.98,-405.704"/>
</g>
<!-- Node47 -->
<g id="node22" class="node"><title>Node47</title>
<g id="a_node22"><a xlink:href="_local_mapping_8cc.html" target="_top" xlink:title="/home/alejandro/Desarrollo\l eclipse/os1/src/LocalMapping.cc">
<polygon fill="white" stroke="black" points="1082.22,-268.5 1082.22,-298.5 1244.22,-298.5 1244.22,-268.5 1082.22,-268.5"/>
<text text-anchor="start" x="1090.22" y="-286.5" font-family="Helvetica,sans-Serif" font-size="10.00">/home/alejandro/Desarrollo</text>
<text text-anchor="middle" x="1163.22" y="-275.5" font-family="Helvetica,sans-Serif" font-size="10.00"> eclipse/os1/src/LocalMapping.cc</text>
</a>
</g>
</g>
<!-- Node38&#45;&gt;Node47 -->
<g id="edge46" class="edge"><title>Node38&#45;&gt;Node47</title>
<path fill="none" stroke="midnightblue" d="M1234.54,-408.815C1215.8,-398.715 1195.27,-384.478 1182.22,-366 1167.88,-345.709 1164.22,-316.161 1163.37,-298.777"/>
<polygon fill="midnightblue" stroke="midnightblue" points="1233.05,-411.988 1243.55,-413.441 1236.25,-405.76 1233.05,-411.988"/>
</g>
<!-- Node38&#45;&gt;Node48 -->
<g id="edge40" class="edge"><title>Node38&#45;&gt;Node48</title>
<path fill="none" stroke="midnightblue" d="M1201,-411.422C1135.63,-397.812 1042.88,-378.498 980.504,-365.511"/>
<polygon fill="midnightblue" stroke="midnightblue" points="1200.34,-414.86 1210.84,-413.472 1201.77,-408.007 1200.34,-414.86"/>
</g>
<!-- Node39&#45;&gt;Node38 -->
<g id="edge35" class="edge"><title>Node39&#45;&gt;Node38</title>
<path fill="none" stroke="midnightblue" d="M1284.56,-375.835C1285.32,-388.159 1285.01,-402.696 1283.63,-413.205"/>
<polygon fill="midnightblue" stroke="midnightblue" points="1288.03,-375.362 1283.62,-365.731 1281.06,-376.013 1288.03,-375.362"/>
</g>
<!-- Node39&#45;&gt;Node40 -->
<g id="edge15" class="edge"><title>Node39&#45;&gt;Node40</title>
<path fill="none" stroke="midnightblue" d="M1338.9,-332.715C1377.14,-322.137 1425.96,-308.635 1462.2,-298.611"/>
<polygon fill="midnightblue" stroke="midnightblue" points="1337.62,-329.437 1328.92,-335.476 1339.49,-336.183 1337.62,-329.437"/>
</g>
<!-- Node39&#45;&gt;Node42 -->
<g id="edge36" class="edge"><title>Node39&#45;&gt;Node42</title>
<path fill="none" stroke="midnightblue" d="M1266.37,-325.823C1261.09,-308.925 1254.57,-286.084 1244.22,-268 1233.44,-249.162 1219.08,-252.229 1211.22,-232 1206.22,-219.159 1202.88,-211.968 1211.22,-201 1225.21,-182.597 1279,-169.147 1326.01,-160.776"/>
<polygon fill="midnightblue" stroke="midnightblue" points="1263.09,-327.056 1269.51,-335.48 1269.74,-324.888 1263.09,-327.056"/>
</g>
<!-- Node39&#45;&gt;Node47 -->
<g id="edge37" class="edge"><title>Node39&#45;&gt;Node47</title>
<path fill="none" stroke="midnightblue" d="M1244.24,-330.296C1226.24,-320.125 1204.54,-307.855 1188.12,-298.577"/>
<polygon fill="midnightblue" stroke="midnightblue" points="1242.84,-333.522 1253.26,-335.396 1246.28,-327.428 1242.84,-333.522"/>
</g>
<!-- Node40&#45;&gt;Node35 -->
<g id="edge34" class="edge"><title>Node40&#45;&gt;Node35</title>
<path fill="none" stroke="midnightblue" d="M1456.99,-265.58C1421.91,-255.022 1377.28,-241.592 1344.11,-231.611"/>
<polygon fill="midnightblue" stroke="midnightblue" points="1456.03,-268.946 1466.61,-268.476 1458.05,-262.243 1456.03,-268.946"/>
</g>
<!-- Node41 -->
<g id="node16" class="node"><title>Node41</title>
<g id="a_node16"><a xlink:href="_viewer_8h.html" target="_top" xlink:title="/home/alejandro/Desarrollo\l eclipse/os1/include/Viewer.h">
<polygon fill="white" stroke="black" points="1495.22,-201.5 1495.22,-231.5 1639.22,-231.5 1639.22,-201.5 1495.22,-201.5"/>
<text text-anchor="start" x="1503.22" y="-219.5" font-family="Helvetica,sans-Serif" font-size="10.00">/home/alejandro/Desarrollo</text>
<text text-anchor="middle" x="1567.22" y="-208.5" font-family="Helvetica,sans-Serif" font-size="10.00"> eclipse/os1/include/Viewer.h</text>
</a>
</g>
</g>
<!-- Node40&#45;&gt;Node41 -->
<g id="edge16" class="edge"><title>Node40&#45;&gt;Node41</title>
<path fill="none" stroke="midnightblue" d="M1525.33,-260.157C1532.62,-250.679 1541.82,-239.919 1549.85,-231.577"/>
<polygon fill="midnightblue" stroke="midnightblue" points="1522.37,-258.27 1519.26,-268.396 1528.01,-262.425 1522.37,-258.27"/>
</g>
<!-- Node40&#45;&gt;Node42 -->
<g id="edge32" class="edge"><title>Node40&#45;&gt;Node42</title>
<path fill="none" stroke="midnightblue" d="M1489.9,-260.895C1464.62,-233.648 1426.14,-187.581 1409.65,-164.525"/>
<polygon fill="midnightblue" stroke="midnightblue" points="1487.55,-263.51 1496.97,-268.374 1492.64,-258.702 1487.55,-263.51"/>
</g>
<!-- Node46 -->
<g id="node21" class="node"><title>Node46</title>
<g id="a_node21"><a xlink:href="main_8cc.html" target="_top" xlink:title="/home/alejandro/Desarrollo\l eclipse/os1/src/main.cc">
<polygon fill="white" stroke="black" points="1657.72,-201.5 1657.72,-231.5 1790.72,-231.5 1790.72,-201.5 1657.72,-201.5"/>
<text text-anchor="start" x="1665.72" y="-219.5" font-family="Helvetica,sans-Serif" font-size="10.00">/home/alejandro/Desarrollo</text>
<text text-anchor="middle" x="1724.22" y="-208.5" font-family="Helvetica,sans-Serif" font-size="10.00"> eclipse/os1/src/main.cc</text>
</a>
</g>
</g>
<!-- Node40&#45;&gt;Node46 -->
<g id="edge33" class="edge"><title>Node40&#45;&gt;Node46</title>
<path fill="none" stroke="midnightblue" d="M1568.58,-265.444C1602.78,-254.908 1646.15,-241.549 1678.41,-231.611"/>
<polygon fill="midnightblue" stroke="midnightblue" points="1567.27,-262.187 1558.74,-268.476 1569.33,-268.877 1567.27,-262.187"/>
</g>
<!-- Node41&#45;&gt;Node40 -->
<g id="edge30" class="edge"><title>Node41&#45;&gt;Node40</title>
<path fill="none" stroke="midnightblue" d="M1555.13,-239.811C1547.84,-249.287 1538.64,-260.049 1530.61,-268.396"/>
<polygon fill="midnightblue" stroke="midnightblue" points="1558.08,-241.703 1561.2,-231.577 1552.45,-237.549 1558.08,-241.703"/>
</g>
<!-- Node41&#45;&gt;Node42 -->
<g id="edge17" class="edge"><title>Node41&#45;&gt;Node42</title>
<path fill="none" stroke="midnightblue" d="M1516.25,-197.819C1488.72,-187.371 1455.73,-174.323 1432.27,-164.577"/>
<polygon fill="midnightblue" stroke="midnightblue" points="1515.14,-201.142 1525.74,-201.396 1517.61,-194.592 1515.14,-201.142"/>
</g>
<!-- Node45 -->
<g id="node20" class="node"><title>Node45</title>
<g id="a_node20"><a xlink:href="_viewer_8cc.html" target="_top" xlink:title="/home/alejandro/Desarrollo\l eclipse/os1/src/Viewer.cc">
<polygon fill="white" stroke="black" points="1534.72,-134.5 1534.72,-164.5 1667.72,-164.5 1667.72,-134.5 1534.72,-134.5"/>
<text text-anchor="start" x="1542.72" y="-152.5" font-family="Helvetica,sans-Serif" font-size="10.00">/home/alejandro/Desarrollo</text>
<text text-anchor="middle" x="1601.22" y="-141.5" font-family="Helvetica,sans-Serif" font-size="10.00"> eclipse/os1/src/Viewer.cc</text>
</a>
</g>
</g>
<!-- Node41&#45;&gt;Node45 -->
<g id="edge31" class="edge"><title>Node41&#45;&gt;Node45</title>
<path fill="none" stroke="midnightblue" d="M1579.36,-192.283C1584.2,-183.022 1589.62,-172.663 1593.85,-164.577"/>
<polygon fill="midnightblue" stroke="midnightblue" points="1576.13,-190.913 1574.59,-201.396 1582.33,-194.157 1576.13,-190.913"/>
</g>
<!-- Node42&#45;&gt;Node36 -->
<g id="edge29" class="edge"><title>Node42&#45;&gt;Node36</title>
<path fill="none" stroke="midnightblue" d="M1350.31,-131.243C1270.89,-104.834 1120.71,-54.9017 1047.49,-30.5565"/>
<polygon fill="midnightblue" stroke="midnightblue" points="1349.51,-134.665 1360.11,-134.499 1351.72,-128.022 1349.51,-134.665"/>
</g>
<!-- Node42&#45;&gt;Node38 -->
<g id="edge26" class="edge"><title>Node42&#45;&gt;Node38</title>
<path fill="none" stroke="midnightblue" d="M1410.69,-174.653C1418.46,-216.978 1421.41,-305.767 1383.22,-366 1369.33,-387.898 1344.52,-403.489 1322.39,-413.493"/>
<polygon fill="midnightblue" stroke="midnightblue" points="1414.07,-173.758 1408.57,-164.705 1407.23,-175.215 1414.07,-173.758"/>
</g>
<!-- Node42&#45;&gt;Node39 -->
<g id="edge27" class="edge"><title>Node42&#45;&gt;Node39</title>
<path fill="none" stroke="midnightblue" d="M1316.17,-165.879C1278.65,-174.234 1240.65,-185.964 1229.22,-201 1220.88,-211.968 1224.22,-219.159 1229.22,-232 1237.08,-252.229 1251.44,-249.162 1262.22,-268 1274.71,-289.837 1281.64,-318.612 1282.24,-335.48"/>
<polygon fill="midnightblue" stroke="midnightblue" points="1317.16,-169.247 1326.2,-163.72 1315.69,-162.403 1317.16,-169.247"/>
</g>
<!-- Node42&#45;&gt;Node40 -->
<g id="edge25" class="edge"><title>Node42&#45;&gt;Node40</title>
<path fill="none" stroke="midnightblue" d="M1425.42,-171.985C1450.67,-199.177 1489.15,-245.25 1505.71,-268.374"/>
<polygon fill="midnightblue" stroke="midnightblue" points="1427.78,-169.386 1418.37,-164.525 1422.7,-174.195 1427.78,-169.386"/>
</g>
<!-- Node42&#45;&gt;Node41 -->
<g id="edge24" class="edge"><title>Node42&#45;&gt;Node41</title>
<path fill="none" stroke="midnightblue" d="M1453.11,-168.152C1480.63,-178.595 1513.61,-191.643 1537.09,-201.396"/>
<polygon fill="midnightblue" stroke="midnightblue" points="1454.22,-164.83 1443.62,-164.577 1451.75,-171.38 1454.22,-164.83"/>
</g>
<!-- Node43 -->
<g id="node18" class="node"><title>Node43</title>
<g id="a_node18"><a xlink:href="_frame_drawer_8h.html" target="_top" xlink:title="/home/alejandro/Desarrollo\l eclipse/os1/include/FrameDrawer.h">
<polygon fill="white" stroke="black" points="1367.72,-67.5 1367.72,-97.5 1540.72,-97.5 1540.72,-67.5 1367.72,-67.5"/>
<text text-anchor="start" x="1375.72" y="-85.5" font-family="Helvetica,sans-Serif" font-size="10.00">/home/alejandro/Desarrollo</text>
<text text-anchor="middle" x="1454.22" y="-74.5" font-family="Helvetica,sans-Serif" font-size="10.00"> eclipse/os1/include/FrameDrawer.h</text>
</a>
</g>
</g>
<!-- Node42&#45;&gt;Node43 -->
<g id="edge18" class="edge"><title>Node42&#45;&gt;Node43</title>
<path fill="none" stroke="midnightblue" d="M1413.64,-126.157C1420.64,-116.679 1429.51,-105.919 1437.28,-97.5765"/>
<polygon fill="midnightblue" stroke="midnightblue" points="1410.73,-124.209 1407.82,-134.396 1416.45,-128.249 1410.73,-124.209"/>
</g>
<!-- Node44 -->
<g id="node19" class="node"><title>Node44</title>
<g id="a_node19"><a xlink:href="_frame_drawer_8cc.html" target="_top" xlink:title="/home/alejandro/Desarrollo\l eclipse/os1/src/FrameDrawer.cc">
<polygon fill="white" stroke="black" points="1315.72,-0.5 1315.72,-30.5 1476.72,-30.5 1476.72,-0.5 1315.72,-0.5"/>
<text text-anchor="start" x="1323.72" y="-18.5" font-family="Helvetica,sans-Serif" font-size="10.00">/home/alejandro/Desarrollo</text>
<text text-anchor="middle" x="1396.22" y="-7.5" font-family="Helvetica,sans-Serif" font-size="10.00"> eclipse/os1/src/FrameDrawer.cc</text>
</a>
</g>
</g>
<!-- Node42&#45;&gt;Node44 -->
<g id="edge28" class="edge"><title>Node42&#45;&gt;Node44</title>
<path fill="none" stroke="midnightblue" d="M1377.31,-126.86C1369.68,-118.678 1362.23,-108.728 1358.22,-98 1353.38,-85.0975 1353.85,-80.0673 1358.22,-67 1362.81,-53.2635 1372.77,-40.2664 1381.34,-30.8983"/>
<polygon fill="midnightblue" stroke="midnightblue" points="1375.04,-129.536 1384.59,-134.13 1379.99,-124.585 1375.04,-129.536"/>
</g>
<!-- Node43&#45;&gt;Node36 -->
<g id="edge23" class="edge"><title>Node43&#45;&gt;Node36</title>
<path fill="none" stroke="midnightblue" d="M1357.74,-67.533C1272.83,-55.2413 1151.23,-37.6372 1075.31,-26.6473"/>
<polygon fill="midnightblue" stroke="midnightblue" points="1357.25,-70.9984 1367.64,-68.9673 1358.25,-64.0706 1357.25,-70.9984"/>
</g>
<!-- Node43&#45;&gt;Node40 -->
<g id="edge20" class="edge"><title>Node43&#45;&gt;Node40</title>
<path fill="none" stroke="midnightblue" d="M1550.81,-99.3239C1590.68,-107.4 1636.9,-118.791 1677.22,-134 1735.46,-155.972 1768.42,-147.48 1800.22,-201 1807.25,-212.845 1809.07,-221.447 1800.22,-232 1773.54,-263.775 1663.26,-275.563 1587.44,-279.933"/>
<polygon fill="midnightblue" stroke="midnightblue" points="1551.31,-95.8546 1540.82,-97.3418 1549.95,-102.721 1551.31,-95.8546"/>
</g>
<!-- Node43&#45;&gt;Node41 -->
<g id="edge19" class="edge"><title>Node43&#45;&gt;Node41</title>
<path fill="none" stroke="midnightblue" d="M1472.91,-105.336C1496.22,-132.572 1535.41,-178.349 1555.12,-201.374"/>
<polygon fill="midnightblue" stroke="midnightblue" points="1475.38,-102.845 1466.22,-97.5247 1470.07,-107.398 1475.38,-102.845"/>
</g>
<!-- Node43&#45;&gt;Node42 -->
<g id="edge21" class="edge"><title>Node43&#45;&gt;Node42</title>
<path fill="none" stroke="midnightblue" d="M1442.81,-105.811C1435.82,-115.287 1426.95,-126.049 1419.18,-134.396"/>
<polygon fill="midnightblue" stroke="midnightblue" points="1445.72,-107.764 1448.63,-97.5765 1440,-103.725 1445.72,-107.764"/>
</g>
<!-- Node43&#45;&gt;Node44 -->
<g id="edge22" class="edge"><title>Node43&#45;&gt;Node44</title>
<path fill="none" stroke="midnightblue" d="M1434.8,-59.7362C1426.21,-50.119 1416.37,-39.0888 1408.78,-30.5765"/>
<polygon fill="midnightblue" stroke="midnightblue" points="1432.36,-62.2648 1441.63,-67.396 1437.58,-57.6043 1432.36,-62.2648"/>
</g>
<!-- Node48&#45;&gt;Node33 -->
<g id="edge43" class="edge"><title>Node48&#45;&gt;Node33</title>
<path fill="none" stroke="midnightblue" d="M877.09,-330.714C857.376,-320.463 833.375,-307.983 815.287,-298.577"/>
<polygon fill="midnightblue" stroke="midnightblue" points="875.606,-333.888 886.093,-335.396 878.836,-327.677 875.606,-333.888"/>
</g>
<!-- Node48&#45;&gt;Node34 -->
<g id="edge44" class="edge"><title>Node48&#45;&gt;Node34</title>
<path fill="none" stroke="midnightblue" d="M839.96,-333.249C791.847,-322.575 729.544,-308.754 683.571,-298.555"/>
<polygon fill="midnightblue" stroke="midnightblue" points="839.48,-336.727 850,-335.476 840.996,-329.893 839.48,-336.727"/>
</g>
<!-- Node48&#45;&gt;Node36 -->
<g id="edge45" class="edge"><title>Node48&#45;&gt;Node36</title>
<path fill="none" stroke="midnightblue" d="M907.655,-325.493C902.048,-299.153 894.216,-255.553 894.216,-217.5 894.216,-217.5 894.216,-217.5 894.216,-148.5 894.216,-94.9034 948.485,-51.7226 981.131,-30.5955"/>
<polygon fill="midnightblue" stroke="midnightblue" points="904.254,-326.322 909.819,-335.337 911.09,-324.819 904.254,-326.322"/>
</g>
<!-- Node48&#45;&gt;Node47 -->
<g id="edge42" class="edge"><title>Node48&#45;&gt;Node47</title>
<path fill="none" stroke="midnightblue" d="M976.997,-332.917C1017.79,-322.31 1070.14,-308.699 1108.94,-298.611"/>
<polygon fill="midnightblue" stroke="midnightblue" points="975.952,-329.572 967.155,-335.476 977.714,-336.347 975.952,-329.572"/>
</g>
<!-- Node49 -->
<g id="node24" class="node"><title>Node49</title>
<g id="a_node24"><a xlink:href="_initializer_8cc.html" target="_top" xlink:title="/home/alejandro/Desarrollo\l eclipse/os1/src/Initializer.cc">
<polygon fill="white" stroke="black" points="922.716,-268.5 922.716,-298.5 1063.72,-298.5 1063.72,-268.5 922.716,-268.5"/>
<text text-anchor="start" x="930.716" y="-286.5" font-family="Helvetica,sans-Serif" font-size="10.00">/home/alejandro/Desarrollo</text>
<text text-anchor="middle" x="993.216" y="-275.5" font-family="Helvetica,sans-Serif" font-size="10.00"> eclipse/os1/src/Initializer.cc</text>
</a>
</g>
</g>
<!-- Node48&#45;&gt;Node49 -->
<g id="edge41" class="edge"><title>Node48&#45;&gt;Node49</title>
<path fill="none" stroke="midnightblue" d="M938.591,-328.883C950.748,-319.005 964.996,-307.429 975.891,-298.577"/>
<polygon fill="midnightblue" stroke="midnightblue" points="936.129,-326.374 930.575,-335.396 940.543,-331.806 936.129,-326.374"/>
</g>
<!-- Node52&#45;&gt;Node28 -->
<g id="edge55" class="edge"><title>Node52&#45;&gt;Node28</title>
<path fill="none" stroke="midnightblue" d="M674.3,-659.408C675.809,-650.62 677.448,-641.082 678.903,-632.607"/>
<polygon fill="midnightblue" stroke="midnightblue" points="670.849,-658.823 672.605,-669.271 677.748,-660.008 670.849,-658.823"/>
</g>
</g>
</svg>
