<?xml version="1.0" encoding="UTF-8" standalone="no"?>
<!DOCTYPE svg PUBLIC "-//W3C//DTD SVG 1.1//EN"
 "http://www.w3.org/Graphics/SVG/1.1/DTD/svg11.dtd">
<!-- Generated by graphviz version 2.38.0 (20140413.2041)
 -->
<!-- Title: /home/alejandro/Desarrollo eclipse/os1/Thirdparty/g2o/g2o/core/base_edge.h Pages: 1 -->
<svg width="995pt" height="274pt"
 viewBox="0.00 0.00 994.50 274.00" xmlns="http://www.w3.org/2000/svg" xmlns:xlink="http://www.w3.org/1999/xlink">
<g id="graph0" class="graph" transform="scale(1 1) rotate(0) translate(4 270)">
<title>/home/alejandro/Desarrollo eclipse/os1/Thirdparty/g2o/g2o/core/base_edge.h</title>
<polygon fill="white" stroke="none" points="-4,4 -4,-270 990.5,-270 990.5,4 -4,4"/>
<!-- Node0 -->
<g id="node1" class="node"><title>Node0</title>
<polygon fill="#bfbfbf" stroke="black" points="0,-224.5 0,-265.5 134,-265.5 134,-224.5 0,-224.5"/>
<text text-anchor="start" x="8" y="-253.5" font-family="Helvetica,sans-Serif" font-size="10.00">/home/alejandro/Desarrollo</text>
<text text-anchor="start" x="8" y="-242.5" font-family="Helvetica,sans-Serif" font-size="10.00"> eclipse/os1/Thirdparty</text>
<text text-anchor="middle" x="67" y="-231.5" font-family="Helvetica,sans-Serif" font-size="10.00">/g2o/g2o/core/base_edge.h</text>
</g>
<!-- Node1 -->
<g id="node2" class="node"><title>Node1</title>
<polygon fill="white" stroke="#bfbfbf" points="72,-112.5 72,-131.5 126,-131.5 126,-112.5 72,-112.5"/>
<text text-anchor="middle" x="99" y="-119.5" font-family="Helvetica,sans-Serif" font-size="10.00">iostream</text>
</g>
<!-- Node0&#45;&gt;Node1 -->
<g id="edge1" class="edge"><title>Node0&#45;&gt;Node1</title>
<path fill="none" stroke="midnightblue" d="M72.2126,-224.29C78.2728,-201.375 88.1977,-163.846 94.1145,-141.473"/>
<polygon fill="midnightblue" stroke="midnightblue" points="97.5592,-142.137 96.7323,-131.575 90.7918,-140.348 97.5592,-142.137"/>
</g>
<!-- Node2 -->
<g id="node3" class="node"><title>Node2</title>
<polygon fill="white" stroke="#bfbfbf" points="93,-0.5 93,-19.5 133,-19.5 133,-0.5 93,-0.5"/>
<text text-anchor="middle" x="113" y="-7.5" font-family="Helvetica,sans-Serif" font-size="10.00">limits</text>
</g>
<!-- Node0&#45;&gt;Node2 -->
<g id="edge2" class="edge"><title>Node0&#45;&gt;Node2</title>
<path fill="none" stroke="midnightblue" d="M57.6201,-224.278C53.1355,-213.767 48.2602,-200.464 46,-188 42.4901,-168.644 48.5904,-119.276 51,-112 61.7212,-79.6261 84.55,-46.8341 99.3137,-27.7367"/>
<polygon fill="midnightblue" stroke="midnightblue" points="102.175,-29.7616 105.641,-19.7498 96.6879,-25.4148 102.175,-29.7616"/>
</g>
<!-- Node3 -->
<g id="node4" class="node"><title>Node3</title>
<polygon fill="white" stroke="#bfbfbf" points="141.5,-56.5 141.5,-75.5 238.5,-75.5 238.5,-56.5 141.5,-56.5"/>
<text text-anchor="middle" x="190" y="-63.5" font-family="Helvetica,sans-Serif" font-size="10.00">eigen3/Eigen/Core</text>
</g>
<!-- Node0&#45;&gt;Node3 -->
<g id="edge3" class="edge"><title>Node0&#45;&gt;Node3</title>
<path fill="none" stroke="midnightblue" d="M59.7044,-224.455C50.709,-196.698 39.3173,-145.517 63,-112 78.611,-89.9065 106.036,-78.591 131.414,-72.8243"/>
<polygon fill="midnightblue" stroke="midnightblue" points="132.272,-76.2217 141.38,-70.809 130.885,-69.3606 132.272,-76.2217"/>
</g>
<!-- Node4 -->
<g id="node5" class="node"><title>Node4</title>
<g id="a_node5"><a xlink:href="optimizable__graph_8h.html" target="_top" xlink:title="optimizable_graph.h">
<polygon fill="white" stroke="black" points="429,-168.5 429,-187.5 533,-187.5 533,-168.5 429,-168.5"/>
<text text-anchor="middle" x="481" y="-175.5" font-family="Helvetica,sans-Serif" font-size="10.00">optimizable_graph.h</text>
</a>
</g>
</g>
<!-- Node0&#45;&gt;Node4 -->
<g id="edge4" class="edge"><title>Node0&#45;&gt;Node4</title>
<path fill="none" stroke="midnightblue" d="M134.438,-233.412C213.159,-221.052 342.286,-200.779 418.722,-188.778"/>
<polygon fill="midnightblue" stroke="midnightblue" points="419.353,-192.222 428.69,-187.213 418.268,-185.306 419.353,-192.222"/>
</g>
<!-- Node4&#45;&gt;Node1 -->
<g id="edge6" class="edge"><title>Node4&#45;&gt;Node1</title>
<path fill="none" stroke="midnightblue" d="M428.796,-171.505C361.708,-164.124 241.753,-149.849 140,-132 138.748,-131.78 137.477,-131.549 136.194,-131.308"/>
<polygon fill="midnightblue" stroke="midnightblue" points="136.775,-127.855 126.283,-129.327 135.403,-134.72 136.775,-127.855"/>
</g>
<!-- Node4&#45;&gt;Node2 -->
<g id="edge8" class="edge"><title>Node4&#45;&gt;Node2</title>
<path fill="none" stroke="midnightblue" d="M428.918,-174.232C352.651,-169.376 215.072,-157.331 173,-132 136.277,-109.89 121.405,-57.6533 115.903,-29.5928"/>
<polygon fill="midnightblue" stroke="midnightblue" points="119.31,-28.7556 114.13,-19.5133 112.416,-29.9685 119.31,-28.7556"/>
</g>
<!-- Node5 -->
<g id="node6" class="node"><title>Node5</title>
<polygon fill="white" stroke="#bfbfbf" points="873,-0.5 873,-19.5 903,-19.5 903,-0.5 873,-0.5"/>
<text text-anchor="middle" x="888" y="-7.5" font-family="Helvetica,sans-Serif" font-size="10.00">set</text>
</g>
<!-- Node4&#45;&gt;Node5 -->
<g id="edge5" class="edge"><title>Node4&#45;&gt;Node5</title>
<path fill="none" stroke="midnightblue" d="M533.105,-175.315C641.644,-171.273 884.009,-159.263 909,-132 935.189,-103.43 913.598,-54.4257 898.877,-28.4113"/>
<polygon fill="midnightblue" stroke="midnightblue" points="901.796,-26.4729 893.685,-19.6572 895.775,-30.0437 901.796,-26.4729"/>
</g>
<!-- Node6 -->
<g id="node7" class="node"><title>Node6</title>
<polygon fill="white" stroke="#bfbfbf" points="957.5,-112.5 957.5,-131.5 986.5,-131.5 986.5,-112.5 957.5,-112.5"/>
<text text-anchor="middle" x="972" y="-119.5" font-family="Helvetica,sans-Serif" font-size="10.00">list</text>
</g>
<!-- Node4&#45;&gt;Node6 -->
<g id="edge7" class="edge"><title>Node4&#45;&gt;Node6</title>
<path fill="none" stroke="midnightblue" d="M533.127,-175.379C619.235,-171.933 796.262,-161.594 943,-132 944.486,-131.7 946.003,-131.355 947.527,-130.977"/>
<polygon fill="midnightblue" stroke="midnightblue" points="948.737,-134.271 957.397,-128.168 946.821,-127.539 948.737,-134.271"/>
</g>
<!-- Node7 -->
<g id="node8" class="node"><title>Node7</title>
<polygon fill="white" stroke="#bfbfbf" points="182,-112.5 182,-131.5 226,-131.5 226,-112.5 182,-112.5"/>
<text text-anchor="middle" x="204" y="-119.5" font-family="Helvetica,sans-Serif" font-size="10.00">cmath</text>
</g>
<!-- Node4&#45;&gt;Node7 -->
<g id="edge9" class="edge"><title>Node4&#45;&gt;Node7</title>
<path fill="none" stroke="midnightblue" d="M428.85,-169.04C381.083,-161.393 308.249,-148.847 236.407,-132.146"/>
<polygon fill="midnightblue" stroke="midnightblue" points="236.815,-128.646 226.279,-129.762 235.211,-135.46 236.815,-128.646"/>
</g>
<!-- Node8 -->
<g id="node9" class="node"><title>Node8</title>
<polygon fill="white" stroke="#bfbfbf" points="244.5,-112.5 244.5,-131.5 295.5,-131.5 295.5,-112.5 244.5,-112.5"/>
<text text-anchor="middle" x="270" y="-119.5" font-family="Helvetica,sans-Serif" font-size="10.00">typeinfo</text>
</g>
<!-- Node4&#45;&gt;Node8 -->
<g id="edge10" class="edge"><title>Node4&#45;&gt;Node8</title>
<path fill="none" stroke="midnightblue" d="M447.584,-168.471C414.184,-159.942 361.091,-146.377 305.626,-132.158"/>
<polygon fill="midnightblue" stroke="midnightblue" points="306.169,-128.684 295.613,-129.591 304.431,-135.465 306.169,-128.684"/>
</g>
<!-- Node9 -->
<g id="node10" class="node"><title>Node9</title>
<g id="a_node10"><a xlink:href="openmp__mutex_8h.html" target="_top" xlink:title="openmp_mutex.h">
<polygon fill="white" stroke="black" points="314,-112.5 314,-131.5 406,-131.5 406,-112.5 314,-112.5"/>
<text text-anchor="middle" x="360" y="-119.5" font-family="Helvetica,sans-Serif" font-size="10.00">openmp_mutex.h</text>
</a>
</g>
</g>
<!-- Node4&#45;&gt;Node9 -->
<g id="edge11" class="edge"><title>Node4&#45;&gt;Node9</title>
<path fill="none" stroke="midnightblue" d="M461.827,-168.444C442.091,-159.636 411.115,-145.812 388.507,-135.722"/>
<polygon fill="midnightblue" stroke="midnightblue" points="389.641,-132.396 379.083,-131.516 386.789,-138.788 389.641,-132.396"/>
</g>
<!-- Node12 -->
<g id="node13" class="node"><title>Node12</title>
<g id="a_node13"><a xlink:href="hyper__graph_8h.html" target="_top" xlink:title="hyper_graph.h">
<polygon fill="white" stroke="black" points="558,-56.5 558,-75.5 636,-75.5 636,-56.5 558,-56.5"/>
<text text-anchor="middle" x="597" y="-63.5" font-family="Helvetica,sans-Serif" font-size="10.00">hyper_graph.h</text>
</a>
</g>
</g>
<!-- Node4&#45;&gt;Node12 -->
<g id="edge14" class="edge"><title>Node4&#45;&gt;Node12</title>
<path fill="none" stroke="midnightblue" d="M495.872,-168.486C509.687,-160.18 530.415,-146.681 546,-132 561.44,-117.456 576.059,-98.0265 585.654,-84.2079"/>
<polygon fill="midnightblue" stroke="midnightblue" points="588.73,-85.9084 591.443,-75.6668 582.935,-81.9812 588.73,-85.9084"/>
</g>
<!-- Node18 -->
<g id="node19" class="node"><title>Node18</title>
<g id="a_node19"><a xlink:href="parameter_8h.html" target="_top" xlink:title="parameter.h">
<polygon fill="white" stroke="black" points="594,-112.5 594,-131.5 662,-131.5 662,-112.5 594,-112.5"/>
<text text-anchor="middle" x="628" y="-119.5" font-family="Helvetica,sans-Serif" font-size="10.00">parameter.h</text>
</a>
</g>
</g>
<!-- Node4&#45;&gt;Node18 -->
<g id="edge23" class="edge"><title>Node4&#45;&gt;Node18</title>
<path fill="none" stroke="midnightblue" d="M504.293,-168.444C528.807,-159.438 567.596,-145.189 595.2,-135.049"/>
<polygon fill="midnightblue" stroke="midnightblue" points="596.637,-138.25 604.816,-131.516 594.223,-131.679 596.637,-138.25"/>
</g>
<!-- Node20 -->
<g id="node21" class="node"><title>Node20</title>
<g id="a_node21"><a xlink:href="parameter__container_8h.html" target="_top" xlink:title="parameter_container.h">
<polygon fill="white" stroke="black" points="680.5,-112.5 680.5,-131.5 793.5,-131.5 793.5,-112.5 680.5,-112.5"/>
<text text-anchor="middle" x="737" y="-119.5" font-family="Helvetica,sans-Serif" font-size="10.00">parameter_container.h</text>
</a>
</g>
</g>
<!-- Node4&#45;&gt;Node20 -->
<g id="edge26" class="edge"><title>Node4&#45;&gt;Node20</title>
<path fill="none" stroke="midnightblue" d="M521.564,-168.444C566.316,-159.004 638.383,-143.802 686.695,-133.611"/>
<polygon fill="midnightblue" stroke="midnightblue" points="687.564,-137.005 696.626,-131.516 686.119,-130.156 687.564,-137.005"/>
</g>
<!-- Node22 -->
<g id="node23" class="node"><title>Node22</title>
<g id="a_node23"><a xlink:href="jacobian__workspace_8h.html" target="_top" xlink:title="jacobian_workspace.h">
<polygon fill="white" stroke="black" points="424.5,-112.5 424.5,-131.5 537.5,-131.5 537.5,-112.5 424.5,-112.5"/>
<text text-anchor="middle" x="481" y="-119.5" font-family="Helvetica,sans-Serif" font-size="10.00">jacobian_workspace.h</text>
</a>
</g>
</g>
<!-- Node4&#45;&gt;Node22 -->
<g id="edge30" class="edge"><title>Node4&#45;&gt;Node22</title>
<path fill="none" stroke="midnightblue" d="M481,-168.083C481,-161.006 481,-150.861 481,-141.986"/>
<polygon fill="midnightblue" stroke="midnightblue" points="484.5,-141.751 481,-131.751 477.5,-141.751 484.5,-141.751"/>
</g>
<!-- Node24 -->
<g id="node25" class="node"><title>Node24</title>
<g id="a_node25"><a xlink:href="macros_8h.html" target="_top" xlink:title="../stuff/macros.h">
<polygon fill="white" stroke="black" points="811.5,-112.5 811.5,-131.5 900.5,-131.5 900.5,-112.5 811.5,-112.5"/>
<text text-anchor="middle" x="856" y="-119.5" font-family="Helvetica,sans-Serif" font-size="10.00">../stuff/macros.h</text>
</a>
</g>
</g>
<!-- Node4&#45;&gt;Node24 -->
<g id="edge36" class="edge"><title>Node4&#45;&gt;Node24</title>
<path fill="none" stroke="midnightblue" d="M533.044,-170.125C594.54,-161.908 700.214,-147.494 801.159,-132.095"/>
<polygon fill="midnightblue" stroke="midnightblue" points="801.87,-135.527 811.225,-130.554 800.811,-128.608 801.87,-135.527"/>
</g>
<!-- Node10 -->
<g id="node11" class="node"><title>Node10</title>
<g id="a_node11"><a xlink:href="config_8h.html" target="_top" xlink:title="../../config.h">
<polygon fill="white" stroke="black" points="256.5,-56.5 256.5,-75.5 325.5,-75.5 325.5,-56.5 256.5,-56.5"/>
<text text-anchor="middle" x="291" y="-63.5" font-family="Helvetica,sans-Serif" font-size="10.00">../../config.h</text>
</a>
</g>
</g>
<!-- Node9&#45;&gt;Node10 -->
<g id="edge12" class="edge"><title>Node9&#45;&gt;Node10</title>
<path fill="none" stroke="midnightblue" d="M348.914,-112.324C338.514,-104.185 322.739,-91.8395 310.278,-82.0874"/>
<polygon fill="midnightblue" stroke="midnightblue" points="312.32,-79.2407 302.288,-75.8339 308.006,-84.7533 312.32,-79.2407"/>
</g>
<!-- Node11 -->
<g id="node12" class="node"><title>Node11</title>
<polygon fill="white" stroke="#bfbfbf" points="361.5,-0.5 361.5,-19.5 410.5,-19.5 410.5,-0.5 361.5,-0.5"/>
<text text-anchor="middle" x="386" y="-7.5" font-family="Helvetica,sans-Serif" font-size="10.00">cassert</text>
</g>
<!-- Node9&#45;&gt;Node11 -->
<g id="edge13" class="edge"><title>Node9&#45;&gt;Node11</title>
<path fill="none" stroke="midnightblue" d="M362.04,-112.368C366.236,-94.617 375.915,-53.6664 381.604,-29.5974"/>
<polygon fill="midnightblue" stroke="midnightblue" points="385.075,-30.1284 383.969,-19.5914 378.263,-28.5182 385.075,-30.1284"/>
</g>
<!-- Node12&#45;&gt;Node2 -->
<g id="edge20" class="edge"><title>Node12&#45;&gt;Node2</title>
<path fill="none" stroke="midnightblue" d="M557.996,-57.5505C554.621,-56.9925 551.253,-56.4663 548,-56 396.45,-34.2775 213.751,-18.8557 143.004,-13.2865"/>
<polygon fill="midnightblue" stroke="midnightblue" points="143.255,-9.7955 133.013,-12.5071 142.711,-16.7743 143.255,-9.7955"/>
</g>
<!-- Node12&#45;&gt;Node5 -->
<g id="edge16" class="edge"><title>Node12&#45;&gt;Node5</title>
<path fill="none" stroke="midnightblue" d="M636.246,-57.7173C696.949,-46.4527 811.908,-25.1202 862.74,-15.6874"/>
<polygon fill="midnightblue" stroke="midnightblue" points="863.653,-19.0778 872.847,-13.8119 862.376,-12.1953 863.653,-19.0778"/>
</g>
<!-- Node12&#45;&gt;Node11 -->
<g id="edge18" class="edge"><title>Node12&#45;&gt;Node11</title>
<path fill="none" stroke="midnightblue" d="M562.495,-56.479C528.632,-48.0719 475.267,-34.7046 420.692,-20.4144"/>
<polygon fill="midnightblue" stroke="midnightblue" points="421.414,-16.9854 410.853,-17.8313 419.636,-23.7559 421.414,-16.9854"/>
</g>
<!-- Node13 -->
<g id="node14" class="node"><title>Node13</title>
<polygon fill="white" stroke="#bfbfbf" points="772.5,-0.5 772.5,-19.5 807.5,-19.5 807.5,-0.5 772.5,-0.5"/>
<text text-anchor="middle" x="790" y="-7.5" font-family="Helvetica,sans-Serif" font-size="10.00">map</text>
</g>
<!-- Node12&#45;&gt;Node13 -->
<g id="edge15" class="edge"><title>Node12&#45;&gt;Node13</title>
<path fill="none" stroke="midnightblue" d="M627.581,-56.4435C664.73,-46.0496 726.844,-28.6707 762.529,-18.6861"/>
<polygon fill="midnightblue" stroke="midnightblue" points="763.588,-22.0244 772.275,-15.9593 761.702,-15.2833 763.588,-22.0244"/>
</g>
<!-- Node14 -->
<g id="node15" class="node"><title>Node14</title>
<polygon fill="white" stroke="#bfbfbf" points="428.5,-0.5 428.5,-19.5 469.5,-19.5 469.5,-0.5 428.5,-0.5"/>
<text text-anchor="middle" x="449" y="-7.5" font-family="Helvetica,sans-Serif" font-size="10.00">bitset</text>
</g>
<!-- Node12&#45;&gt;Node14 -->
<g id="edge17" class="edge"><title>Node12&#45;&gt;Node14</title>
<path fill="none" stroke="midnightblue" d="M573.549,-56.4435C548.141,-47.1732 507.505,-32.3464 479.601,-22.1652"/>
<polygon fill="midnightblue" stroke="midnightblue" points="480.542,-18.783 469.948,-18.6433 478.143,-25.359 480.542,-18.783"/>
</g>
<!-- Node15 -->
<g id="node16" class="node"><title>Node15</title>
<polygon fill="white" stroke="#bfbfbf" points="670,-0.5 670,-19.5 714,-19.5 714,-0.5 670,-0.5"/>
<text text-anchor="middle" x="692" y="-7.5" font-family="Helvetica,sans-Serif" font-size="10.00">vector</text>
</g>
<!-- Node12&#45;&gt;Node15 -->
<g id="edge19" class="edge"><title>Node12&#45;&gt;Node15</title>
<path fill="none" stroke="midnightblue" d="M612.263,-56.324C627.221,-47.8215 650.255,-34.7288 667.727,-24.7975"/>
<polygon fill="midnightblue" stroke="midnightblue" points="669.81,-27.639 676.774,-19.6545 666.351,-21.5534 669.81,-27.639"/>
</g>
<!-- Node16 -->
<g id="node17" class="node"><title>Node16</title>
<polygon fill="white" stroke="#bfbfbf" points="487.5,-0.5 487.5,-19.5 536.5,-19.5 536.5,-0.5 487.5,-0.5"/>
<text text-anchor="middle" x="512" y="-7.5" font-family="Helvetica,sans-Serif" font-size="10.00">cstddef</text>
</g>
<!-- Node12&#45;&gt;Node16 -->
<g id="edge21" class="edge"><title>Node12&#45;&gt;Node16</title>
<path fill="none" stroke="midnightblue" d="M583.343,-56.324C570.084,-47.9002 549.732,-34.9709 534.154,-25.0741"/>
<polygon fill="midnightblue" stroke="midnightblue" points="535.94,-22.0626 525.623,-19.6545 532.187,-27.9711 535.94,-22.0626"/>
</g>
<!-- Node17 -->
<g id="node18" class="node"><title>Node17</title>
<polygon fill="white" stroke="#bfbfbf" points="554,-0.5 554,-19.5 652,-19.5 652,-0.5 554,-0.5"/>
<text text-anchor="middle" x="603" y="-7.5" font-family="Helvetica,sans-Serif" font-size="10.00">tr1/unordered_map</text>
</g>
<!-- Node12&#45;&gt;Node17 -->
<g id="edge22" class="edge"><title>Node12&#45;&gt;Node17</title>
<path fill="none" stroke="midnightblue" d="M597.991,-56.083C598.786,-48.9272 599.929,-38.6353 600.923,-29.6911"/>
<polygon fill="midnightblue" stroke="midnightblue" points="604.402,-30.0765 602.028,-19.7511 597.445,-29.3034 604.402,-30.0765"/>
</g>
<!-- Node18&#45;&gt;Node12 -->
<g id="edge25" class="edge"><title>Node18&#45;&gt;Node12</title>
<path fill="none" stroke="midnightblue" d="M622.881,-112.083C618.592,-104.613 612.342,-93.7244 607.058,-84.5199"/>
<polygon fill="midnightblue" stroke="midnightblue" points="610.038,-82.6811 602.024,-75.7511 603.967,-86.1662 610.038,-82.6811"/>
</g>
<!-- Node19 -->
<g id="node20" class="node"><title>Node19</title>
<polygon fill="white" stroke="#bfbfbf" points="692.5,-56.5 692.5,-75.5 737.5,-75.5 737.5,-56.5 692.5,-56.5"/>
<text text-anchor="middle" x="715" y="-63.5" font-family="Helvetica,sans-Serif" font-size="10.00">iosfwd</text>
</g>
<!-- Node18&#45;&gt;Node19 -->
<g id="edge24" class="edge"><title>Node18&#45;&gt;Node19</title>
<path fill="none" stroke="midnightblue" d="M641.978,-112.324C655.55,-103.9 676.38,-90.9709 692.325,-81.0741"/>
<polygon fill="midnightblue" stroke="midnightblue" points="694.406,-83.9019 701.057,-75.6545 690.714,-77.9544 694.406,-83.9019"/>
</g>
<!-- Node20&#45;&gt;Node13 -->
<g id="edge28" class="edge"><title>Node20&#45;&gt;Node13</title>
<path fill="none" stroke="midnightblue" d="M760.454,-112.408C776.161,-105.28 795.619,-93.4581 805,-76 812.94,-61.2236 807.094,-42.3599 800.519,-28.7644"/>
<polygon fill="midnightblue" stroke="midnightblue" points="803.595,-27.0943 795.79,-19.9296 797.424,-30.3977 803.595,-27.0943"/>
</g>
<!-- Node20&#45;&gt;Node19 -->
<g id="edge27" class="edge"><title>Node20&#45;&gt;Node19</title>
<path fill="none" stroke="midnightblue" d="M733.367,-112.083C730.388,-104.77 726.074,-94.1814 722.375,-85.1034"/>
<polygon fill="midnightblue" stroke="midnightblue" points="725.58,-83.6914 718.565,-75.7511 719.097,-86.3326 725.58,-83.6914"/>
</g>
<!-- Node21 -->
<g id="node22" class="node"><title>Node21</title>
<polygon fill="white" stroke="#bfbfbf" points="755.5,-56.5 755.5,-75.5 796.5,-75.5 796.5,-56.5 755.5,-56.5"/>
<text text-anchor="middle" x="776" y="-63.5" font-family="Helvetica,sans-Serif" font-size="10.00">string</text>
</g>
<!-- Node20&#45;&gt;Node21 -->
<g id="edge29" class="edge"><title>Node20&#45;&gt;Node21</title>
<path fill="none" stroke="midnightblue" d="M743.44,-112.083C748.949,-104.455 757.031,-93.2645 763.765,-83.9408"/>
<polygon fill="midnightblue" stroke="midnightblue" points="766.662,-85.9071 769.68,-75.7511 760.987,-81.8087 766.662,-85.9071"/>
</g>
<!-- Node22&#45;&gt;Node3 -->
<g id="edge31" class="edge"><title>Node22&#45;&gt;Node3</title>
<path fill="none" stroke="midnightblue" d="M434.89,-112.444C383.594,-102.925 300.727,-87.5472 245.809,-77.3563"/>
<polygon fill="midnightblue" stroke="midnightblue" points="246.365,-73.8998 235.894,-75.5164 245.088,-80.7823 246.365,-73.8998"/>
</g>
<!-- Node22&#45;&gt;Node11 -->
<g id="edge34" class="edge"><title>Node22&#45;&gt;Node11</title>
<path fill="none" stroke="midnightblue" d="M461.028,-112.43C445.499,-104.862 424.409,-92.4694 411,-76 400.037,-62.5351 393.507,-43.7221 389.886,-29.7987"/>
<polygon fill="midnightblue" stroke="midnightblue" points="393.252,-28.8224 387.576,-19.8762 386.435,-30.4093 393.252,-28.8224"/>
</g>
<!-- Node22&#45;&gt;Node12 -->
<g id="edge35" class="edge"><title>Node22&#45;&gt;Node12</title>
<path fill="none" stroke="midnightblue" d="M499.381,-112.444C518.216,-103.675 547.731,-89.9355 569.379,-79.8579"/>
<polygon fill="midnightblue" stroke="midnightblue" points="571.117,-82.9098 578.705,-75.5164 568.162,-76.5637 571.117,-82.9098"/>
</g>
<!-- Node22&#45;&gt;Node15 -->
<g id="edge33" class="edge"><title>Node22&#45;&gt;Node15</title>
<path fill="none" stroke="midnightblue" d="M537.769,-114.988C571.338,-109.22 613.337,-97.9546 645,-76 662.295,-64.0082 675.549,-43.5227 683.507,-28.7508"/>
<polygon fill="midnightblue" stroke="midnightblue" points="686.741,-30.1117 688.154,-19.6115 680.501,-26.9388 686.741,-30.1117"/>
</g>
<!-- Node23 -->
<g id="node24" class="node"><title>Node23</title>
<polygon fill="white" stroke="#bfbfbf" points="420.5,-56.5 420.5,-75.5 539.5,-75.5 539.5,-56.5 420.5,-56.5"/>
<text text-anchor="middle" x="480" y="-63.5" font-family="Helvetica,sans-Serif" font-size="10.00">eigen3/Eigen/StdVector</text>
</g>
<!-- Node22&#45;&gt;Node23 -->
<g id="edge32" class="edge"><title>Node22&#45;&gt;Node23</title>
<path fill="none" stroke="midnightblue" d="M480.835,-112.083C480.704,-105.006 480.516,-94.8611 480.352,-85.9865"/>
<polygon fill="midnightblue" stroke="midnightblue" points="483.847,-85.6845 480.162,-75.7511 476.848,-85.8142 483.847,-85.6845"/>
</g>
<!-- Node25 -->
<g id="node26" class="node"><title>Node25</title>
<polygon fill="white" stroke="#bfbfbf" points="853.5,-56.5 853.5,-75.5 900.5,-75.5 900.5,-56.5 853.5,-56.5"/>
<text text-anchor="middle" x="877" y="-63.5" font-family="Helvetica,sans-Serif" font-size="10.00">math.h</text>
</g>
<!-- Node24&#45;&gt;Node25 -->
<g id="edge37" class="edge"><title>Node24&#45;&gt;Node25</title>
<path fill="none" stroke="midnightblue" d="M859.468,-112.083C862.312,-104.77 866.429,-94.1814 869.96,-85.1034"/>
<polygon fill="midnightblue" stroke="midnightblue" points="873.234,-86.3397 873.597,-75.7511 866.71,-83.8025 873.234,-86.3397"/>
</g>
</g>
</svg>
