<?xml version="1.0" encoding="UTF-8" standalone="no"?>
<!DOCTYPE svg PUBLIC "-//W3C//DTD SVG 1.1//EN"
 "http://www.w3.org/Graphics/SVG/1.1/DTD/svg11.dtd">
<!-- Generated by graphviz version 2.38.0 (20140413.2041)
 -->
<!-- Title: /home/alejandro/Desarrollo eclipse/os1/Thirdparty/g2o/g2o/core/base_unary_edge.h Pages: 1 -->
<svg width="1353pt" height="330pt"
 viewBox="0.00 0.00 1353.00 330.00" xmlns="http://www.w3.org/2000/svg" xmlns:xlink="http://www.w3.org/1999/xlink">
<g id="graph0" class="graph" transform="scale(1 1) rotate(0) translate(4 326)">
<title>/home/alejandro/Desarrollo eclipse/os1/Thirdparty/g2o/g2o/core/base_unary_edge.h</title>
<polygon fill="white" stroke="none" points="-4,4 -4,-326 1349,-326 1349,4 -4,4"/>
<!-- Node0 -->
<g id="node1" class="node"><title>Node0</title>
<polygon fill="#bfbfbf" stroke="black" points="1005,-280.5 1005,-321.5 1169,-321.5 1169,-280.5 1005,-280.5"/>
<text text-anchor="start" x="1013" y="-309.5" font-family="Helvetica,sans-Serif" font-size="10.00">/home/alejandro/Desarrollo</text>
<text text-anchor="start" x="1013" y="-298.5" font-family="Helvetica,sans-Serif" font-size="10.00"> eclipse/os1/Thirdparty</text>
<text text-anchor="middle" x="1087" y="-287.5" font-family="Helvetica,sans-Serif" font-size="10.00">/g2o/g2o/core/base_unary_edge.h</text>
</g>
<!-- Node1 -->
<g id="node2" class="node"><title>Node1</title>
<polygon fill="white" stroke="#bfbfbf" points="925,-112.5 925,-131.5 979,-131.5 979,-112.5 925,-112.5"/>
<text text-anchor="middle" x="952" y="-119.5" font-family="Helvetica,sans-Serif" font-size="10.00">iostream</text>
</g>
<!-- Node0&#45;&gt;Node1 -->
<g id="edge1" class="edge"><title>Node0&#45;&gt;Node1</title>
<path fill="none" stroke="midnightblue" d="M1067.93,-280.346C1058.05,-269.853 1046,-256.547 1036,-244 1007.85,-208.667 978.549,-164.478 963.092,-140.481"/>
<polygon fill="midnightblue" stroke="midnightblue" points="965.868,-138.326 957.53,-131.789 959.971,-142.099 965.868,-138.326"/>
</g>
<!-- Node2 -->
<g id="node3" class="node"><title>Node2</title>
<polygon fill="white" stroke="#bfbfbf" points="855.5,-0.5 855.5,-19.5 904.5,-19.5 904.5,-0.5 855.5,-0.5"/>
<text text-anchor="middle" x="880" y="-7.5" font-family="Helvetica,sans-Serif" font-size="10.00">cassert</text>
</g>
<!-- Node0&#45;&gt;Node2 -->
<g id="edge2" class="edge"><title>Node0&#45;&gt;Node2</title>
<path fill="none" stroke="midnightblue" d="M1126.29,-280.377C1160.62,-260.14 1205,-225.067 1205,-179 1205,-179 1205,-179 1205,-121 1205,-87.9763 1196.07,-74.9111 1169,-56 1128.5,-27.7084 982.591,-16.4266 914.92,-12.6421"/>
<polygon fill="midnightblue" stroke="midnightblue" points="914.932,-9.13777 904.759,-12.0976 914.558,-16.1277 914.932,-9.13777"/>
</g>
<!-- Node3 -->
<g id="node4" class="node"><title>Node3</title>
<polygon fill="white" stroke="#bfbfbf" points="37,-0.5 37,-19.5 77,-19.5 77,-0.5 37,-0.5"/>
<text text-anchor="middle" x="57" y="-7.5" font-family="Helvetica,sans-Serif" font-size="10.00">limits</text>
</g>
<!-- Node0&#45;&gt;Node3 -->
<g id="edge3" class="edge"><title>Node0&#45;&gt;Node3</title>
<path fill="none" stroke="midnightblue" d="M1004.85,-299.459C751.621,-296.713 0,-280.052 0,-179 0,-179 0,-179 0,-121 0,-84.3005 25.321,-47.6567 42.2099,-27.2973"/>
<polygon fill="midnightblue" stroke="midnightblue" points="44.9535,-29.475 48.8333,-19.6161 39.6522,-24.9037 44.9535,-29.475"/>
</g>
<!-- Node4 -->
<g id="node5" class="node"><title>Node4</title>
<g id="a_node5"><a xlink:href="base__edge_8h.html" target="_top" xlink:title="base_edge.h">
<polygon fill="white" stroke="black" points="895,-224.5 895,-243.5 967,-243.5 967,-224.5 895,-224.5"/>
<text text-anchor="middle" x="931" y="-231.5" font-family="Helvetica,sans-Serif" font-size="10.00">base_edge.h</text>
</a>
</g>
</g>
<!-- Node0&#45;&gt;Node4 -->
<g id="edge4" class="edge"><title>Node0&#45;&gt;Node4</title>
<path fill="none" stroke="midnightblue" d="M1040.19,-280.498C1014.55,-269.813 983.524,-256.885 961.107,-247.545"/>
<polygon fill="midnightblue" stroke="midnightblue" points="962.343,-244.268 951.766,-243.652 959.651,-250.729 962.343,-244.268"/>
</g>
<!-- Node12 -->
<g id="node13" class="node"><title>Node12</title>
<g id="a_node13"><a xlink:href="config_8h.html" target="_top" xlink:title="../../config.h">
<polygon fill="white" stroke="black" points="1090.5,-56.5 1090.5,-75.5 1159.5,-75.5 1159.5,-56.5 1090.5,-56.5"/>
<text text-anchor="middle" x="1125" y="-63.5" font-family="Helvetica,sans-Serif" font-size="10.00">../../config.h</text>
</a>
</g>
</g>
<!-- Node0&#45;&gt;Node12 -->
<g id="edge45" class="edge"><title>Node0&#45;&gt;Node12</title>
<path fill="none" stroke="midnightblue" d="M1110.03,-280.351C1120.16,-270.465 1131.26,-257.684 1138,-244 1164.05,-191.125 1143.91,-118.437 1132.06,-85.072"/>
<polygon fill="midnightblue" stroke="midnightblue" points="1135.34,-83.8499 1128.58,-75.6958 1128.78,-86.2887 1135.34,-83.8499"/>
</g>
<!-- Node27 -->
<g id="node28" class="node"><title>Node27</title>
<g id="a_node28"><a xlink:href="robust__kernel_8h.html" target="_top" xlink:title="robust_kernel.h">
<polygon fill="white" stroke="black" points="1045.5,-224.5 1045.5,-243.5 1128.5,-243.5 1128.5,-224.5 1045.5,-224.5"/>
<text text-anchor="middle" x="1087" y="-231.5" font-family="Helvetica,sans-Serif" font-size="10.00">robust_kernel.h</text>
</a>
</g>
</g>
<!-- Node0&#45;&gt;Node27 -->
<g id="edge42" class="edge"><title>Node0&#45;&gt;Node27</title>
<path fill="none" stroke="midnightblue" d="M1087,-280.498C1087,-272.065 1087,-262.235 1087,-253.874"/>
<polygon fill="midnightblue" stroke="midnightblue" points="1090.5,-253.652 1087,-243.652 1083.5,-253.653 1090.5,-253.652"/>
</g>
<!-- Node29 -->
<g id="node30" class="node"><title>Node29</title>
<g id="a_node30"><a xlink:href="base__unary__edge_8hpp.html" target="_top" xlink:title="base_unary_edge.hpp">
<polygon fill="white" stroke="black" points="1233,-224.5 1233,-243.5 1345,-243.5 1345,-224.5 1233,-224.5"/>
<text text-anchor="middle" x="1289" y="-231.5" font-family="Helvetica,sans-Serif" font-size="10.00">base_unary_edge.hpp</text>
</a>
</g>
</g>
<!-- Node0&#45;&gt;Node29 -->
<g id="edge46" class="edge"><title>Node0&#45;&gt;Node29</title>
<path fill="none" stroke="midnightblue" d="M1147.61,-280.498C1181.81,-269.493 1223.41,-256.106 1252.6,-246.713"/>
<polygon fill="midnightblue" stroke="midnightblue" points="1253.93,-249.962 1262.38,-243.567 1251.78,-243.299 1253.93,-249.962"/>
</g>
<!-- Node4&#45;&gt;Node1 -->
<g id="edge5" class="edge"><title>Node4&#45;&gt;Node1</title>
<path fill="none" stroke="midnightblue" d="M932.648,-224.368C936.037,-206.617 943.855,-165.666 948.45,-141.597"/>
<polygon fill="midnightblue" stroke="midnightblue" points="951.922,-142.07 950.36,-131.591 945.047,-140.758 951.922,-142.07"/>
</g>
<!-- Node4&#45;&gt;Node3 -->
<g id="edge6" class="edge"><title>Node4&#45;&gt;Node3</title>
<path fill="none" stroke="midnightblue" d="M894.818,-233.141C751.702,-233.029 226.622,-226.103 96,-132 63.5642,-108.633 57.5036,-57.7604 56.733,-30.001"/>
<polygon fill="midnightblue" stroke="midnightblue" points="60.2309,-29.6436 56.6652,-19.6668 53.231,-29.6896 60.2309,-29.6436"/>
</g>
<!-- Node5 -->
<g id="node6" class="node"><title>Node5</title>
<polygon fill="white" stroke="#bfbfbf" points="958.5,-56.5 958.5,-75.5 1055.5,-75.5 1055.5,-56.5 958.5,-56.5"/>
<text text-anchor="middle" x="1007" y="-63.5" font-family="Helvetica,sans-Serif" font-size="10.00">eigen3/Eigen/Core</text>
</g>
<!-- Node4&#45;&gt;Node5 -->
<g id="edge7" class="edge"><title>Node4&#45;&gt;Node5</title>
<path fill="none" stroke="midnightblue" d="M936.74,-224.43C947.914,-207.435 972.822,-167.991 988,-132 994.424,-116.766 999.524,-98.655 1002.82,-85.4245"/>
<polygon fill="midnightblue" stroke="midnightblue" points="1006.24,-86.1675 1005.14,-75.6291 999.426,-84.5482 1006.24,-86.1675"/>
</g>
<!-- Node6 -->
<g id="node7" class="node"><title>Node6</title>
<g id="a_node7"><a xlink:href="optimizable__graph_8h.html" target="_top" xlink:title="optimizable_graph.h">
<polygon fill="white" stroke="black" points="432,-168.5 432,-187.5 536,-187.5 536,-168.5 432,-168.5"/>
<text text-anchor="middle" x="484" y="-175.5" font-family="Helvetica,sans-Serif" font-size="10.00">optimizable_graph.h</text>
</a>
</g>
</g>
<!-- Node4&#45;&gt;Node6 -->
<g id="edge8" class="edge"><title>Node4&#45;&gt;Node6</title>
<path fill="none" stroke="midnightblue" d="M894.799,-228.627C818.595,-219.421 640.875,-197.951 546.106,-186.503"/>
<polygon fill="midnightblue" stroke="midnightblue" points="546.434,-183.017 536.086,-185.292 545.594,-189.966 546.434,-183.017"/>
</g>
<!-- Node6&#45;&gt;Node1 -->
<g id="edge10" class="edge"><title>Node6&#45;&gt;Node1</title>
<path fill="none" stroke="midnightblue" d="M536.198,-173.95C615.831,-168.774 772.534,-156.534 914.748,-131.984"/>
<polygon fill="midnightblue" stroke="midnightblue" points="915.715,-135.368 924.961,-130.195 914.507,-128.473 915.715,-135.368"/>
</g>
<!-- Node6&#45;&gt;Node3 -->
<g id="edge12" class="edge"><title>Node6&#45;&gt;Node3</title>
<path fill="none" stroke="midnightblue" d="M431.708,-176.403C343.35,-174.447 169.298,-166.227 120,-132 84.6056,-107.426 67.7002,-56.6679 60.8808,-29.3539"/>
<polygon fill="midnightblue" stroke="midnightblue" points="64.2727,-28.4864 58.6146,-19.529 57.4518,-30.0598 64.2727,-28.4864"/>
</g>
<!-- Node7 -->
<g id="node8" class="node"><title>Node7</title>
<polygon fill="white" stroke="#bfbfbf" points="264,-0.5 264,-19.5 294,-19.5 294,-0.5 264,-0.5"/>
<text text-anchor="middle" x="279" y="-7.5" font-family="Helvetica,sans-Serif" font-size="10.00">set</text>
</g>
<!-- Node6&#45;&gt;Node7 -->
<g id="edge9" class="edge"><title>Node6&#45;&gt;Node7</title>
<path fill="none" stroke="midnightblue" d="M431.719,-174.052C338.714,-168.27 152.405,-154.052 133,-132 89.6738,-82.7645 202.197,-36.8823 254.244,-18.9509"/>
<polygon fill="midnightblue" stroke="midnightblue" points="255.419,-22.2484 263.783,-15.7446 253.189,-15.6132 255.419,-22.2484"/>
</g>
<!-- Node8 -->
<g id="node9" class="node"><title>Node8</title>
<polygon fill="white" stroke="#bfbfbf" points="142.5,-112.5 142.5,-131.5 171.5,-131.5 171.5,-112.5 142.5,-112.5"/>
<text text-anchor="middle" x="157" y="-119.5" font-family="Helvetica,sans-Serif" font-size="10.00">list</text>
</g>
<!-- Node6&#45;&gt;Node8 -->
<g id="edge11" class="edge"><title>Node6&#45;&gt;Node8</title>
<path fill="none" stroke="midnightblue" d="M431.91,-172.896C372.872,-167.449 273.811,-155.9 181.684,-131.989"/>
<polygon fill="midnightblue" stroke="midnightblue" points="182.494,-128.583 171.931,-129.403 180.7,-135.349 182.494,-128.583"/>
</g>
<!-- Node9 -->
<g id="node10" class="node"><title>Node9</title>
<polygon fill="white" stroke="#bfbfbf" points="189,-112.5 189,-131.5 233,-131.5 233,-112.5 189,-112.5"/>
<text text-anchor="middle" x="211" y="-119.5" font-family="Helvetica,sans-Serif" font-size="10.00">cmath</text>
</g>
<!-- Node6&#45;&gt;Node9 -->
<g id="edge13" class="edge"><title>Node6&#45;&gt;Node9</title>
<path fill="none" stroke="midnightblue" d="M431.761,-168.817C384.747,-161.109 313.606,-148.594 243.207,-132.107"/>
<polygon fill="midnightblue" stroke="midnightblue" points="243.819,-128.655 233.281,-129.754 242.204,-135.466 243.819,-128.655"/>
</g>
<!-- Node10 -->
<g id="node11" class="node"><title>Node10</title>
<polygon fill="white" stroke="#bfbfbf" points="251.5,-112.5 251.5,-131.5 302.5,-131.5 302.5,-112.5 251.5,-112.5"/>
<text text-anchor="middle" x="277" y="-119.5" font-family="Helvetica,sans-Serif" font-size="10.00">typeinfo</text>
</g>
<!-- Node6&#45;&gt;Node10 -->
<g id="edge14" class="edge"><title>Node6&#45;&gt;Node10</title>
<path fill="none" stroke="midnightblue" d="M451.146,-168.499C418.31,-159.993 366.116,-146.445 312.32,-132.339"/>
<polygon fill="midnightblue" stroke="midnightblue" points="313.178,-128.946 302.617,-129.793 311.401,-135.717 313.178,-128.946"/>
</g>
<!-- Node11 -->
<g id="node12" class="node"><title>Node11</title>
<g id="a_node12"><a xlink:href="openmp__mutex_8h.html" target="_top" xlink:title="openmp_mutex.h">
<polygon fill="white" stroke="black" points="815,-112.5 815,-131.5 907,-131.5 907,-112.5 815,-112.5"/>
<text text-anchor="middle" x="861" y="-119.5" font-family="Helvetica,sans-Serif" font-size="10.00">openmp_mutex.h</text>
</a>
</g>
</g>
<!-- Node6&#45;&gt;Node11 -->
<g id="edge15" class="edge"><title>Node6&#45;&gt;Node11</title>
<path fill="none" stroke="midnightblue" d="M536.03,-170.033C597.513,-161.727 703.173,-147.225 804.736,-132.011"/>
<polygon fill="midnightblue" stroke="midnightblue" points="805.498,-135.436 814.867,-130.489 804.458,-128.514 805.498,-135.436"/>
</g>
<!-- Node13 -->
<g id="node14" class="node"><title>Node13</title>
<g id="a_node14"><a xlink:href="hyper__graph_8h.html" target="_top" xlink:title="hyper_graph.h">
<polygon fill="white" stroke="black" points="572,-56.5 572,-75.5 650,-75.5 650,-56.5 572,-56.5"/>
<text text-anchor="middle" x="611" y="-63.5" font-family="Helvetica,sans-Serif" font-size="10.00">hyper_graph.h</text>
</a>
</g>
</g>
<!-- Node6&#45;&gt;Node13 -->
<g id="edge18" class="edge"><title>Node6&#45;&gt;Node13</title>
<path fill="none" stroke="midnightblue" d="M536.255,-176.563C570.573,-173.206 613.192,-162.539 636,-132 646.904,-117.4 636.303,-97.4608 625.74,-83.5301"/>
<polygon fill="midnightblue" stroke="midnightblue" points="628.402,-81.2565 619.36,-75.7342 622.984,-85.6898 628.402,-81.2565"/>
</g>
<!-- Node19 -->
<g id="node20" class="node"><title>Node19</title>
<g id="a_node20"><a xlink:href="parameter_8h.html" target="_top" xlink:title="parameter.h">
<polygon fill="white" stroke="black" points="559,-112.5 559,-131.5 627,-131.5 627,-112.5 559,-112.5"/>
<text text-anchor="middle" x="593" y="-119.5" font-family="Helvetica,sans-Serif" font-size="10.00">parameter.h</text>
</a>
</g>
</g>
<!-- Node6&#45;&gt;Node19 -->
<g id="edge27" class="edge"><title>Node6&#45;&gt;Node19</title>
<path fill="none" stroke="midnightblue" d="M501.513,-168.324C519.072,-159.625 546.331,-146.12 566.531,-136.113"/>
<polygon fill="midnightblue" stroke="midnightblue" points="568.124,-139.23 575.531,-131.655 565.016,-132.958 568.124,-139.23"/>
</g>
<!-- Node21 -->
<g id="node22" class="node"><title>Node21</title>
<g id="a_node22"><a xlink:href="parameter__container_8h.html" target="_top" xlink:title="parameter_container.h">
<polygon fill="white" stroke="black" points="427.5,-112.5 427.5,-131.5 540.5,-131.5 540.5,-112.5 427.5,-112.5"/>
<text text-anchor="middle" x="484" y="-119.5" font-family="Helvetica,sans-Serif" font-size="10.00">parameter_container.h</text>
</a>
</g>
</g>
<!-- Node6&#45;&gt;Node21 -->
<g id="edge30" class="edge"><title>Node6&#45;&gt;Node21</title>
<path fill="none" stroke="midnightblue" d="M484,-168.083C484,-161.006 484,-150.861 484,-141.986"/>
<polygon fill="midnightblue" stroke="midnightblue" points="487.5,-141.751 484,-131.751 480.5,-141.751 487.5,-141.751"/>
</g>
<!-- Node23 -->
<g id="node24" class="node"><title>Node23</title>
<g id="a_node24"><a xlink:href="jacobian__workspace_8h.html" target="_top" xlink:title="jacobian_workspace.h">
<polygon fill="white" stroke="black" points="683.5,-112.5 683.5,-131.5 796.5,-131.5 796.5,-112.5 683.5,-112.5"/>
<text text-anchor="middle" x="740" y="-119.5" font-family="Helvetica,sans-Serif" font-size="10.00">jacobian_workspace.h</text>
</a>
</g>
</g>
<!-- Node6&#45;&gt;Node23 -->
<g id="edge34" class="edge"><title>Node6&#45;&gt;Node23</title>
<path fill="none" stroke="midnightblue" d="M524.564,-168.444C569.316,-159.004 641.383,-143.802 689.695,-133.611"/>
<polygon fill="midnightblue" stroke="midnightblue" points="690.564,-137.005 699.626,-131.516 689.119,-130.156 690.564,-137.005"/>
</g>
<!-- Node25 -->
<g id="node26" class="node"><title>Node25</title>
<g id="a_node26"><a xlink:href="macros_8h.html" target="_top" xlink:title="../stuff/macros.h">
<polygon fill="white" stroke="black" points="320.5,-112.5 320.5,-131.5 409.5,-131.5 409.5,-112.5 320.5,-112.5"/>
<text text-anchor="middle" x="365" y="-119.5" font-family="Helvetica,sans-Serif" font-size="10.00">../stuff/macros.h</text>
</a>
</g>
</g>
<!-- Node6&#45;&gt;Node25 -->
<g id="edge40" class="edge"><title>Node6&#45;&gt;Node25</title>
<path fill="none" stroke="midnightblue" d="M465.144,-168.444C445.734,-159.636 415.27,-145.812 393.035,-135.722"/>
<polygon fill="midnightblue" stroke="midnightblue" points="394.32,-132.462 383.768,-131.516 391.428,-138.836 394.32,-132.462"/>
</g>
<!-- Node11&#45;&gt;Node2 -->
<g id="edge17" class="edge"><title>Node11&#45;&gt;Node2</title>
<path fill="none" stroke="midnightblue" d="M862.491,-112.368C865.557,-94.617 872.63,-53.6664 876.788,-29.5974"/>
<polygon fill="midnightblue" stroke="midnightblue" points="880.263,-30.0413 878.516,-19.5914 873.365,-28.8498 880.263,-30.0413"/>
</g>
<!-- Node11&#45;&gt;Node12 -->
<g id="edge16" class="edge"><title>Node11&#45;&gt;Node12</title>
<path fill="none" stroke="midnightblue" d="M902.832,-112.444C951.255,-102.539 1030.69,-86.2907 1080.3,-76.1432"/>
<polygon fill="midnightblue" stroke="midnightblue" points="1081.01,-79.5699 1090.11,-74.1368 1079.61,-72.7119 1081.01,-79.5699"/>
</g>
<!-- Node13&#45;&gt;Node2 -->
<g id="edge22" class="edge"><title>Node13&#45;&gt;Node2</title>
<path fill="none" stroke="midnightblue" d="M650.115,-57.1479C702.626,-46.6067 795.102,-28.0428 845.271,-17.9717"/>
<polygon fill="midnightblue" stroke="midnightblue" points="846.189,-21.3572 855.305,-15.9574 844.811,-14.4941 846.189,-21.3572"/>
</g>
<!-- Node13&#45;&gt;Node3 -->
<g id="edge24" class="edge"><title>Node13&#45;&gt;Node3</title>
<path fill="none" stroke="midnightblue" d="M571.737,-57.4571C568.449,-56.9264 565.171,-56.4315 562,-56 382.907,-31.6268 166.209,-17.4013 87.4593,-12.7257"/>
<polygon fill="midnightblue" stroke="midnightblue" points="87.4689,-9.22037 77.2813,-12.1293 87.0594,-16.2084 87.4689,-9.22037"/>
</g>
<!-- Node13&#45;&gt;Node7 -->
<g id="edge20" class="edge"><title>Node13&#45;&gt;Node7</title>
<path fill="none" stroke="midnightblue" d="M571.966,-57.7434C568.597,-57.1435 565.24,-56.555 562,-56 466.951,-39.7165 353.589,-22.2924 304.141,-14.7908"/>
<polygon fill="midnightblue" stroke="midnightblue" points="304.465,-11.3001 294.054,-13.2638 303.418,-18.2212 304.465,-11.3001"/>
</g>
<!-- Node14 -->
<g id="node15" class="node"><title>Node14</title>
<polygon fill="white" stroke="#bfbfbf" points="468.5,-0.5 468.5,-19.5 503.5,-19.5 503.5,-0.5 468.5,-0.5"/>
<text text-anchor="middle" x="486" y="-7.5" font-family="Helvetica,sans-Serif" font-size="10.00">map</text>
</g>
<!-- Node13&#45;&gt;Node14 -->
<g id="edge19" class="edge"><title>Node13&#45;&gt;Node14</title>
<path fill="none" stroke="midnightblue" d="M591.193,-56.4435C570.111,-47.3359 536.613,-32.865 513.096,-22.7053"/>
<polygon fill="midnightblue" stroke="midnightblue" points="514.261,-19.3961 503.693,-18.6433 511.485,-25.8222 514.261,-19.3961"/>
</g>
<!-- Node15 -->
<g id="node16" class="node"><title>Node15</title>
<polygon fill="white" stroke="#bfbfbf" points="527.5,-0.5 527.5,-19.5 568.5,-19.5 568.5,-0.5 527.5,-0.5"/>
<text text-anchor="middle" x="548" y="-7.5" font-family="Helvetica,sans-Serif" font-size="10.00">bitset</text>
</g>
<!-- Node13&#45;&gt;Node15 -->
<g id="edge21" class="edge"><title>Node13&#45;&gt;Node15</title>
<path fill="none" stroke="midnightblue" d="M600.878,-56.324C591.474,-48.2631 577.256,-36.0765 565.931,-26.3695"/>
<polygon fill="midnightblue" stroke="midnightblue" points="568.177,-23.6844 558.306,-19.8339 563.621,-28.9993 568.177,-23.6844"/>
</g>
<!-- Node16 -->
<g id="node17" class="node"><title>Node16</title>
<polygon fill="white" stroke="#bfbfbf" points="781,-0.5 781,-19.5 825,-19.5 825,-0.5 781,-0.5"/>
<text text-anchor="middle" x="803" y="-7.5" font-family="Helvetica,sans-Serif" font-size="10.00">vector</text>
</g>
<!-- Node13&#45;&gt;Node16 -->
<g id="edge23" class="edge"><title>Node13&#45;&gt;Node16</title>
<path fill="none" stroke="midnightblue" d="M641.423,-56.4435C676.743,-46.5098 734.748,-30.1958 770.806,-20.0544"/>
<polygon fill="midnightblue" stroke="midnightblue" points="772.121,-23.3205 780.8,-17.2437 770.226,-16.582 772.121,-23.3205"/>
</g>
<!-- Node17 -->
<g id="node18" class="node"><title>Node17</title>
<polygon fill="white" stroke="#bfbfbf" points="586.5,-0.5 586.5,-19.5 635.5,-19.5 635.5,-0.5 586.5,-0.5"/>
<text text-anchor="middle" x="611" y="-7.5" font-family="Helvetica,sans-Serif" font-size="10.00">cstddef</text>
</g>
<!-- Node13&#45;&gt;Node17 -->
<g id="edge25" class="edge"><title>Node13&#45;&gt;Node17</title>
<path fill="none" stroke="midnightblue" d="M611,-56.083C611,-49.0059 611,-38.8611 611,-29.9865"/>
<polygon fill="midnightblue" stroke="midnightblue" points="614.5,-29.751 611,-19.7511 607.5,-29.7511 614.5,-29.751"/>
</g>
<!-- Node18 -->
<g id="node19" class="node"><title>Node18</title>
<polygon fill="white" stroke="#bfbfbf" points="653,-0.5 653,-19.5 751,-19.5 751,-0.5 653,-0.5"/>
<text text-anchor="middle" x="702" y="-7.5" font-family="Helvetica,sans-Serif" font-size="10.00">tr1/unordered_map</text>
</g>
<!-- Node13&#45;&gt;Node18 -->
<g id="edge26" class="edge"><title>Node13&#45;&gt;Node18</title>
<path fill="none" stroke="midnightblue" d="M625.621,-56.324C639.949,-47.8215 662.013,-34.7288 678.749,-24.7975"/>
<polygon fill="midnightblue" stroke="midnightblue" points="680.602,-27.7677 687.416,-19.6545 677.03,-21.7478 680.602,-27.7677"/>
</g>
<!-- Node19&#45;&gt;Node13 -->
<g id="edge29" class="edge"><title>Node19&#45;&gt;Node13</title>
<path fill="none" stroke="midnightblue" d="M595.972,-112.083C598.384,-104.849 601.864,-94.4087 604.868,-85.3968"/>
<polygon fill="midnightblue" stroke="midnightblue" points="608.241,-86.3447 608.083,-75.7511 601.6,-84.1311 608.241,-86.3447"/>
</g>
<!-- Node20 -->
<g id="node21" class="node"><title>Node20</title>
<polygon fill="white" stroke="#bfbfbf" points="508.5,-56.5 508.5,-75.5 553.5,-75.5 553.5,-56.5 508.5,-56.5"/>
<text text-anchor="middle" x="531" y="-63.5" font-family="Helvetica,sans-Serif" font-size="10.00">iosfwd</text>
</g>
<!-- Node19&#45;&gt;Node20 -->
<g id="edge28" class="edge"><title>Node19&#45;&gt;Node20</title>
<path fill="none" stroke="midnightblue" d="M583.039,-112.324C573.873,-104.341 560.063,-92.3128 548.972,-82.6529"/>
<polygon fill="midnightblue" stroke="midnightblue" points="550.982,-79.7624 541.143,-75.8339 546.385,-85.041 550.982,-79.7624"/>
</g>
<!-- Node21&#45;&gt;Node14 -->
<g id="edge32" class="edge"><title>Node21&#45;&gt;Node14</title>
<path fill="none" stroke="midnightblue" d="M484.157,-112.368C484.48,-94.617 485.224,-53.6664 485.662,-29.5974"/>
<polygon fill="midnightblue" stroke="midnightblue" points="489.161,-29.6534 485.844,-19.5914 482.162,-29.5261 489.161,-29.6534"/>
</g>
<!-- Node21&#45;&gt;Node20 -->
<g id="edge31" class="edge"><title>Node21&#45;&gt;Node20</title>
<path fill="none" stroke="midnightblue" d="M491.761,-112.083C498.537,-104.298 508.543,-92.8015 516.755,-83.3665"/>
<polygon fill="midnightblue" stroke="midnightblue" points="519.458,-85.592 523.383,-75.7511 514.178,-80.9963 519.458,-85.592"/>
</g>
<!-- Node22 -->
<g id="node23" class="node"><title>Node22</title>
<polygon fill="white" stroke="#bfbfbf" points="410.5,-56.5 410.5,-75.5 451.5,-75.5 451.5,-56.5 410.5,-56.5"/>
<text text-anchor="middle" x="431" y="-63.5" font-family="Helvetica,sans-Serif" font-size="10.00">string</text>
</g>
<!-- Node21&#45;&gt;Node22 -->
<g id="edge33" class="edge"><title>Node21&#45;&gt;Node22</title>
<path fill="none" stroke="midnightblue" d="M475.248,-112.083C467.53,-104.22 456.095,-92.5688 446.783,-83.0813"/>
<polygon fill="midnightblue" stroke="midnightblue" points="449.092,-80.4363 439.589,-75.7511 444.096,-85.3396 449.092,-80.4363"/>
</g>
<!-- Node23&#45;&gt;Node2 -->
<g id="edge38" class="edge"><title>Node23&#45;&gt;Node2</title>
<path fill="none" stroke="midnightblue" d="M756.584,-112.366C772.067,-103.976 795.499,-90.4197 814,-76 833.118,-61.0992 852.602,-41.2136 865.394,-27.3777"/>
<polygon fill="midnightblue" stroke="midnightblue" points="868.29,-29.3954 872.431,-19.6433 863.112,-24.6845 868.29,-29.3954"/>
</g>
<!-- Node23&#45;&gt;Node5 -->
<g id="edge35" class="edge"><title>Node23&#45;&gt;Node5</title>
<path fill="none" stroke="midnightblue" d="M782.307,-112.444C829.08,-102.984 904.46,-87.7384 954.85,-77.5472"/>
<polygon fill="midnightblue" stroke="midnightblue" points="955.783,-80.9294 964.891,-75.5164 954.396,-74.0683 955.783,-80.9294"/>
</g>
<!-- Node23&#45;&gt;Node13 -->
<g id="edge39" class="edge"><title>Node23&#45;&gt;Node13</title>
<path fill="none" stroke="midnightblue" d="M719.56,-112.444C698.33,-103.557 664.901,-89.5632 640.745,-79.4514"/>
<polygon fill="midnightblue" stroke="midnightblue" points="641.921,-76.1493 631.345,-75.5164 639.218,-82.6064 641.921,-76.1493"/>
</g>
<!-- Node23&#45;&gt;Node16 -->
<g id="edge37" class="edge"><title>Node23&#45;&gt;Node16</title>
<path fill="none" stroke="midnightblue" d="M756.761,-112.377C769.808,-104.704 787.141,-92.1941 796,-76 803.745,-61.8419 805.046,-43.3592 804.672,-29.7236"/>
<polygon fill="midnightblue" stroke="midnightblue" points="808.158,-29.3846 804.069,-19.6109 801.171,-29.8017 808.158,-29.3846"/>
</g>
<!-- Node24 -->
<g id="node25" class="node"><title>Node24</title>
<polygon fill="white" stroke="#bfbfbf" points="668.5,-56.5 668.5,-75.5 787.5,-75.5 787.5,-56.5 668.5,-56.5"/>
<text text-anchor="middle" x="728" y="-63.5" font-family="Helvetica,sans-Serif" font-size="10.00">eigen3/Eigen/StdVector</text>
</g>
<!-- Node23&#45;&gt;Node24 -->
<g id="edge36" class="edge"><title>Node23&#45;&gt;Node24</title>
<path fill="none" stroke="midnightblue" d="M738.018,-112.083C736.428,-104.927 734.141,-94.6353 732.154,-85.6911"/>
<polygon fill="midnightblue" stroke="midnightblue" points="735.531,-84.7537 729.945,-75.7511 728.697,-86.2722 735.531,-84.7537"/>
</g>
<!-- Node26 -->
<g id="node27" class="node"><title>Node26</title>
<polygon fill="white" stroke="#bfbfbf" points="341.5,-56.5 341.5,-75.5 388.5,-75.5 388.5,-56.5 341.5,-56.5"/>
<text text-anchor="middle" x="365" y="-63.5" font-family="Helvetica,sans-Serif" font-size="10.00">math.h</text>
</g>
<!-- Node25&#45;&gt;Node26 -->
<g id="edge41" class="edge"><title>Node25&#45;&gt;Node26</title>
<path fill="none" stroke="midnightblue" d="M365,-112.083C365,-105.006 365,-94.8611 365,-85.9865"/>
<polygon fill="midnightblue" stroke="midnightblue" points="368.5,-85.751 365,-75.7511 361.5,-85.7511 368.5,-85.751"/>
</g>
<!-- Node27&#45;&gt;Node5 -->
<g id="edge44" class="edge"><title>Node27&#45;&gt;Node5</title>
<path fill="none" stroke="midnightblue" d="M1082.51,-224.415C1077.81,-215.39 1070.26,-200.759 1064,-188 1046.08,-151.503 1026.01,-108.329 1015.11,-84.6831"/>
<polygon fill="midnightblue" stroke="midnightblue" points="1018.27,-83.1765 1010.91,-75.5537 1011.91,-86.1014 1018.27,-83.1765"/>
</g>
<!-- Node28 -->
<g id="node29" class="node"><title>Node28</title>
<polygon fill="white" stroke="#bfbfbf" points="1073,-168.5 1073,-187.5 1139,-187.5 1139,-168.5 1073,-168.5"/>
<text text-anchor="middle" x="1106" y="-175.5" font-family="Helvetica,sans-Serif" font-size="10.00">tr1/memory</text>
</g>
<!-- Node27&#45;&gt;Node28 -->
<g id="edge43" class="edge"><title>Node27&#45;&gt;Node28</title>
<path fill="none" stroke="midnightblue" d="M1090.14,-224.083C1092.68,-216.849 1096.36,-206.409 1099.53,-197.397"/>
<polygon fill="midnightblue" stroke="midnightblue" points="1102.9,-198.346 1102.92,-187.751 1096.3,-196.023 1102.9,-198.346"/>
</g>
</g>
</svg>
