<?xml version="1.0" encoding="UTF-8" standalone="no"?>
<!DOCTYPE svg PUBLIC "-//W3C//DTD SVG 1.1//EN"
 "http://www.w3.org/Graphics/SVG/1.1/DTD/svg11.dtd">
<!-- Generated by graphviz version 2.38.0 (20140413.2041)
 -->
<!-- Title: /home/alejandro/Desarrollo eclipse/os1/Thirdparty/g2o/g2o/core/base_unary_edge.hpp Pages: 1 -->
<svg width="1919pt" height="607pt"
 viewBox="0.00 0.00 1919.00 607.00" xmlns="http://www.w3.org/2000/svg" xmlns:xlink="http://www.w3.org/1999/xlink">
<g id="graph0" class="graph" transform="scale(1 1) rotate(0) translate(4 603)">
<title>/home/alejandro/Desarrollo eclipse/os1/Thirdparty/g2o/g2o/core/base_unary_edge.hpp</title>
<polygon fill="white" stroke="none" points="-4,4 -4,-603 1915,-603 1915,4 -4,4"/>
<!-- Node1 -->
<g id="node1" class="node"><title>Node1</title>
<polygon fill="#bfbfbf" stroke="black" points="611,-546.5 611,-598.5 744,-598.5 744,-546.5 611,-546.5"/>
<text text-anchor="start" x="619" y="-586.5" font-family="Helvetica,sans-Serif" font-size="10.00">/home/alejandro/Desarrollo</text>
<text text-anchor="start" x="619" y="-575.5" font-family="Helvetica,sans-Serif" font-size="10.00"> eclipse/os1/Thirdparty</text>
<text text-anchor="start" x="619" y="-564.5" font-family="Helvetica,sans-Serif" font-size="10.00">/g2o/g2o/core/base_unary</text>
<text text-anchor="middle" x="677.5" y="-553.5" font-family="Helvetica,sans-Serif" font-size="10.00">_edge.hpp</text>
</g>
<!-- Node2 -->
<g id="node2" class="node"><title>Node2</title>
<g id="a_node2"><a xlink:href="base__unary__edge_8h.html" target="_top" xlink:title="/home/alejandro/Desarrollo\l eclipse/os1/Thirdparty\l/g2o/g2o/core/base_unary_edge.h">
<polygon fill="white" stroke="black" points="595.5,-468.5 595.5,-509.5 759.5,-509.5 759.5,-468.5 595.5,-468.5"/>
<text text-anchor="start" x="603.5" y="-497.5" font-family="Helvetica,sans-Serif" font-size="10.00">/home/alejandro/Desarrollo</text>
<text text-anchor="start" x="603.5" y="-486.5" font-family="Helvetica,sans-Serif" font-size="10.00"> eclipse/os1/Thirdparty</text>
<text text-anchor="middle" x="677.5" y="-475.5" font-family="Helvetica,sans-Serif" font-size="10.00">/g2o/g2o/core/base_unary_edge.h</text>
</a>
</g>
</g>
<!-- Node1&#45;&gt;Node2 -->
<g id="edge1" class="edge"><title>Node1&#45;&gt;Node2</title>
<path fill="none" stroke="midnightblue" d="M677.5,-536.147C677.5,-527.055 677.5,-517.597 677.5,-509.628"/>
<polygon fill="midnightblue" stroke="midnightblue" points="674,-536.16 677.5,-546.16 681,-536.16 674,-536.16"/>
</g>
<!-- Node3 -->
<g id="node3" class="node"><title>Node3</title>
<g id="a_node3"><a xlink:href="types__six__dof__expmap_8h.html" target="_top" xlink:title="/home/alejandro/Desarrollo\l eclipse/os1/Thirdparty\l/g2o/g2o/types/types_six\l_dof_expmap.h">
<polygon fill="white" stroke="black" points="611,-379.5 611,-431.5 744,-431.5 744,-379.5 611,-379.5"/>
<text text-anchor="start" x="619" y="-419.5" font-family="Helvetica,sans-Serif" font-size="10.00">/home/alejandro/Desarrollo</text>
<text text-anchor="start" x="619" y="-408.5" font-family="Helvetica,sans-Serif" font-size="10.00"> eclipse/os1/Thirdparty</text>
<text text-anchor="start" x="619" y="-397.5" font-family="Helvetica,sans-Serif" font-size="10.00">/g2o/g2o/types/types_six</text>
<text text-anchor="middle" x="677.5" y="-386.5" font-family="Helvetica,sans-Serif" font-size="10.00">_dof_expmap.h</text>
</a>
</g>
</g>
<!-- Node2&#45;&gt;Node3 -->
<g id="edge2" class="edge"><title>Node2&#45;&gt;Node3</title>
<path fill="none" stroke="midnightblue" d="M677.5,-458.121C677.5,-449.413 677.5,-439.989 677.5,-431.607"/>
<polygon fill="midnightblue" stroke="midnightblue" points="674,-458.271 677.5,-468.271 681,-458.271 674,-458.271"/>
</g>
<!-- Node4 -->
<g id="node4" class="node"><title>Node4</title>
<g id="a_node4"><a xlink:href="_converter_8h.html" target="_top" xlink:title="/home/alejandro/Desarrollo\l eclipse/os1/include/Converter.h">
<polygon fill="white" stroke="black" points="443,-134.5 443,-164.5 600,-164.5 600,-134.5 443,-134.5"/>
<text text-anchor="start" x="451" y="-152.5" font-family="Helvetica,sans-Serif" font-size="10.00">/home/alejandro/Desarrollo</text>
<text text-anchor="middle" x="521.5" y="-141.5" font-family="Helvetica,sans-Serif" font-size="10.00"> eclipse/os1/include/Converter.h</text>
</a>
</g>
</g>
<!-- Node3&#45;&gt;Node4 -->
<g id="edge3" class="edge"><title>Node3&#45;&gt;Node4</title>
<path fill="none" stroke="midnightblue" d="M640.435,-372.517C631.28,-363.538 621.967,-353.377 614.5,-343 570.926,-282.445 538.445,-198.31 526.5,-164.953"/>
<polygon fill="midnightblue" stroke="midnightblue" points="638.052,-375.08 647.706,-379.446 642.881,-370.013 638.052,-375.08"/>
</g>
<!-- Node9 -->
<g id="node9" class="node"><title>Node9</title>
<g id="a_node9"><a xlink:href="_optimizer_8cc.html" target="_top" xlink:title="/home/alejandro/Desarrollo\l eclipse/os1/src/Optimizer.cc">
<polygon fill="white" stroke="black" points="556.5,-67.5 556.5,-97.5 700.5,-97.5 700.5,-67.5 556.5,-67.5"/>
<text text-anchor="start" x="564.5" y="-85.5" font-family="Helvetica,sans-Serif" font-size="10.00">/home/alejandro/Desarrollo</text>
<text text-anchor="middle" x="628.5" y="-74.5" font-family="Helvetica,sans-Serif" font-size="10.00"> eclipse/os1/src/Optimizer.cc</text>
</a>
</g>
</g>
<!-- Node3&#45;&gt;Node9 -->
<g id="edge40" class="edge"><title>Node3&#45;&gt;Node9</title>
<path fill="none" stroke="midnightblue" d="M657.975,-370.29C653.837,-361.634 649.976,-352.181 647.5,-343 622.972,-252.065 625.794,-137.119 627.686,-97.5945"/>
<polygon fill="midnightblue" stroke="midnightblue" points="654.898,-371.962 662.52,-379.32 661.15,-368.814 654.898,-371.962"/>
</g>
<!-- Node12 -->
<g id="node12" class="node"><title>Node12</title>
<g id="a_node12"><a xlink:href="types__seven__dof__expmap_8h.html" target="_top" xlink:title="/home/alejandro/Desarrollo\l eclipse/os1/Thirdparty\l/g2o/g2o/types/types_seven\l_dof_expmap.h">
<polygon fill="white" stroke="black" points="656.5,-290.5 656.5,-342.5 796.5,-342.5 796.5,-290.5 656.5,-290.5"/>
<text text-anchor="start" x="664.5" y="-330.5" font-family="Helvetica,sans-Serif" font-size="10.00">/home/alejandro/Desarrollo</text>
<text text-anchor="start" x="664.5" y="-319.5" font-family="Helvetica,sans-Serif" font-size="10.00"> eclipse/os1/Thirdparty</text>
<text text-anchor="start" x="664.5" y="-308.5" font-family="Helvetica,sans-Serif" font-size="10.00">/g2o/g2o/types/types_seven</text>
<text text-anchor="middle" x="726.5" y="-297.5" font-family="Helvetica,sans-Serif" font-size="10.00">_dof_expmap.h</text>
</a>
</g>
</g>
<!-- Node3&#45;&gt;Node12 -->
<g id="edge11" class="edge"><title>Node3&#45;&gt;Node12</title>
<path fill="none" stroke="midnightblue" d="M696.734,-370.35C701.943,-361.1 707.486,-351.259 712.359,-342.607"/>
<polygon fill="midnightblue" stroke="midnightblue" points="693.531,-368.905 691.673,-379.336 699.63,-372.34 693.531,-368.905"/>
</g>
<!-- Node24 -->
<g id="node24" class="node"><title>Node24</title>
<g id="a_node24"><a xlink:href="types__six__dof__expmap_8cpp.html" target="_top" xlink:title="/home/alejandro/Desarrollo\l eclipse/os1/Thirdparty\l/g2o/g2o/types/types_six\l_dof_expmap.cpp">
<polygon fill="white" stroke="black" points="815,-290.5 815,-342.5 948,-342.5 948,-290.5 815,-290.5"/>
<text text-anchor="start" x="823" y="-330.5" font-family="Helvetica,sans-Serif" font-size="10.00">/home/alejandro/Desarrollo</text>
<text text-anchor="start" x="823" y="-319.5" font-family="Helvetica,sans-Serif" font-size="10.00"> eclipse/os1/Thirdparty</text>
<text text-anchor="start" x="823" y="-308.5" font-family="Helvetica,sans-Serif" font-size="10.00">/g2o/g2o/types/types_six</text>
<text text-anchor="middle" x="881.5" y="-297.5" font-family="Helvetica,sans-Serif" font-size="10.00">_dof_expmap.cpp</text>
</a>
</g>
</g>
<!-- Node3&#45;&gt;Node24 -->
<g id="edge41" class="edge"><title>Node3&#45;&gt;Node24</title>
<path fill="none" stroke="midnightblue" d="M745.651,-375.436C770.658,-364.771 798.727,-352.8 822.83,-342.521"/>
<polygon fill="midnightblue" stroke="midnightblue" points="744.057,-372.31 736.232,-379.453 746.803,-378.749 744.057,-372.31"/>
</g>
<!-- Node5 -->
<g id="node5" class="node"><title>Node5</title>
<g id="a_node5"><a xlink:href="_converter_8cc.html" target="_top" xlink:title="/home/alejandro/Desarrollo\l eclipse/os1/src/Converter.cc">
<polygon fill="white" stroke="black" points="355,-67.5 355,-97.5 500,-97.5 500,-67.5 355,-67.5"/>
<text text-anchor="start" x="363" y="-85.5" font-family="Helvetica,sans-Serif" font-size="10.00">/home/alejandro/Desarrollo</text>
<text text-anchor="middle" x="427.5" y="-74.5" font-family="Helvetica,sans-Serif" font-size="10.00"> eclipse/os1/src/Converter.cc</text>
</a>
</g>
</g>
<!-- Node4&#45;&gt;Node5 -->
<g id="edge4" class="edge"><title>Node4&#45;&gt;Node5</title>
<path fill="none" stroke="midnightblue" d="M492.506,-128.451C478.045,-118.452 460.905,-106.6 447.857,-97.5765"/>
<polygon fill="midnightblue" stroke="midnightblue" points="490.888,-131.587 501.103,-134.396 494.869,-125.83 490.888,-131.587"/>
</g>
<!-- Node6 -->
<g id="node6" class="node"><title>Node6</title>
<g id="a_node6"><a xlink:href="_frame_8cc.html" target="_top" xlink:title="/home/alejandro/Desarrollo\l eclipse/os1/src/Frame.cc">
<polygon fill="white" stroke="black" points="0,-67.5 0,-97.5 133,-97.5 133,-67.5 0,-67.5"/>
<text text-anchor="start" x="8" y="-85.5" font-family="Helvetica,sans-Serif" font-size="10.00">/home/alejandro/Desarrollo</text>
<text text-anchor="middle" x="66.5" y="-74.5" font-family="Helvetica,sans-Serif" font-size="10.00"> eclipse/os1/src/Frame.cc</text>
</a>
</g>
</g>
<!-- Node4&#45;&gt;Node6 -->
<g id="edge5" class="edge"><title>Node4&#45;&gt;Node6</title>
<path fill="none" stroke="midnightblue" d="M432.922,-137.628C357.041,-128.054 244.91,-113.288 147.5,-98 142.843,-97.269 138.04,-96.4856 133.207,-95.6753"/>
<polygon fill="midnightblue" stroke="midnightblue" points="432.56,-141.11 442.918,-138.885 433.434,-134.164 432.56,-141.11"/>
</g>
<!-- Node7 -->
<g id="node7" class="node"><title>Node7</title>
<g id="a_node7"><a xlink:href="_key_frame_8cc.html" target="_top" xlink:title="/home/alejandro/Desarrollo\l eclipse/os1/src/KeyFrame.cc">
<polygon fill="white" stroke="black" points="190,-67.5 190,-97.5 337,-97.5 337,-67.5 190,-67.5"/>
<text text-anchor="start" x="198" y="-85.5" font-family="Helvetica,sans-Serif" font-size="10.00">/home/alejandro/Desarrollo</text>
<text text-anchor="middle" x="263.5" y="-74.5" font-family="Helvetica,sans-Serif" font-size="10.00"> eclipse/os1/src/KeyFrame.cc</text>
</a>
</g>
</g>
<!-- Node4&#45;&gt;Node7 -->
<g id="edge6" class="edge"><title>Node4&#45;&gt;Node7</title>
<path fill="none" stroke="midnightblue" d="M455.946,-131.984C413.805,-121.367 359.635,-107.72 319.509,-97.6109"/>
<polygon fill="midnightblue" stroke="midnightblue" points="455.283,-135.427 465.835,-134.476 456.994,-128.639 455.283,-135.427"/>
</g>
<!-- Node8 -->
<g id="node8" class="node"><title>Node8</title>
<g id="a_node8"><a xlink:href="_loop_closing_8cc.html" target="_top" xlink:title="/home/alejandro/Desarrollo\l eclipse/os1/src/LoopClosing.cc">
<polygon fill="white" stroke="black" points="718.5,-67.5 718.5,-97.5 874.5,-97.5 874.5,-67.5 718.5,-67.5"/>
<text text-anchor="start" x="726.5" y="-85.5" font-family="Helvetica,sans-Serif" font-size="10.00">/home/alejandro/Desarrollo</text>
<text text-anchor="middle" x="796.5" y="-74.5" font-family="Helvetica,sans-Serif" font-size="10.00"> eclipse/os1/src/LoopClosing.cc</text>
</a>
</g>
</g>
<!-- Node4&#45;&gt;Node8 -->
<g id="edge7" class="edge"><title>Node4&#45;&gt;Node8</title>
<path fill="none" stroke="midnightblue" d="M590.806,-132.119C635.804,-121.483 693.85,-107.763 736.8,-97.6109"/>
<polygon fill="midnightblue" stroke="midnightblue" points="589.759,-128.77 580.832,-134.476 591.369,-135.582 589.759,-128.77"/>
</g>
<!-- Node4&#45;&gt;Node9 -->
<g id="edge8" class="edge"><title>Node4&#45;&gt;Node9</title>
<path fill="none" stroke="midnightblue" d="M553.575,-129.015C570.226,-118.9 590.194,-106.77 605.328,-97.5765"/>
<polygon fill="midnightblue" stroke="midnightblue" points="551.447,-126.213 544.717,-134.396 555.081,-132.195 551.447,-126.213"/>
</g>
<!-- Node10 -->
<g id="node10" class="node"><title>Node10</title>
<g id="a_node10"><a xlink:href="_system_8cc.html" target="_top" xlink:title="/home/alejandro/Desarrollo\l eclipse/os1/src/System.cc">
<polygon fill="white" stroke="black" points="1127.5,-0.5 1127.5,-30.5 1263.5,-30.5 1263.5,-0.5 1127.5,-0.5"/>
<text text-anchor="start" x="1135.5" y="-18.5" font-family="Helvetica,sans-Serif" font-size="10.00">/home/alejandro/Desarrollo</text>
<text text-anchor="middle" x="1195.5" y="-7.5" font-family="Helvetica,sans-Serif" font-size="10.00"> eclipse/os1/src/System.cc</text>
</a>
</g>
</g>
<!-- Node4&#45;&gt;Node10 -->
<g id="edge9" class="edge"><title>Node4&#45;&gt;Node10</title>
<path fill="none" stroke="midnightblue" d="M522.314,-124.177C524.343,-105.458 530.371,-80.567 547.5,-67 553.146,-62.5281 962.278,-33.0454 1127.46,-21.3084"/>
<polygon fill="midnightblue" stroke="midnightblue" points="518.808,-124.112 521.527,-134.352 525.787,-124.652 518.808,-124.112"/>
</g>
<!-- Node11 -->
<g id="node11" class="node"><title>Node11</title>
<g id="a_node11"><a xlink:href="_tracking_8cc.html" target="_top" xlink:title="/home/alejandro/Desarrollo\l eclipse/os1/src/Tracking.cc">
<polygon fill="white" stroke="black" points="832.5,-0.5 832.5,-30.5 972.5,-30.5 972.5,-0.5 832.5,-0.5"/>
<text text-anchor="start" x="840.5" y="-18.5" font-family="Helvetica,sans-Serif" font-size="10.00">/home/alejandro/Desarrollo</text>
<text text-anchor="middle" x="902.5" y="-7.5" font-family="Helvetica,sans-Serif" font-size="10.00"> eclipse/os1/src/Tracking.cc</text>
</a>
</g>
</g>
<!-- Node4&#45;&gt;Node11 -->
<g id="edge10" class="edge"><title>Node4&#45;&gt;Node11</title>
<path fill="none" stroke="midnightblue" d="M432.549,-147.991C342.613,-145.362 212.451,-135.031 180.5,-98 171.499,-87.5684 171.104,-77.0765 180.5,-67 224.338,-19.9885 659.386,-15.8663 832.234,-16.1052"/>
<polygon fill="midnightblue" stroke="midnightblue" points="432.671,-151.496 442.76,-148.262 432.856,-144.498 432.671,-151.496"/>
</g>
<!-- Node12&#45;&gt;Node4 -->
<g id="edge12" class="edge"><title>Node12&#45;&gt;Node4</title>
<path fill="none" stroke="midnightblue" d="M687.348,-283.988C642.688,-248.042 571.635,-190.853 538.97,-164.561"/>
<polygon fill="midnightblue" stroke="midnightblue" points="685.38,-286.896 695.365,-290.44 689.769,-281.443 685.38,-286.896"/>
</g>
<!-- Node12&#45;&gt;Node9 -->
<g id="edge38" class="edge"><title>Node12&#45;&gt;Node9</title>
<path fill="none" stroke="midnightblue" d="M711.834,-280.78C689.944,-228.958 649.675,-133.629 634.499,-97.7007"/>
<polygon fill="midnightblue" stroke="midnightblue" points="708.71,-282.38 715.826,-290.23 715.159,-279.656 708.71,-282.38"/>
</g>
<!-- Node13 -->
<g id="node13" class="node"><title>Node13</title>
<g id="a_node13"><a xlink:href="_loop_closing_8h.html" target="_top" xlink:title="/home/alejandro/Desarrollo\l eclipse/os1/include/LoopClosing.h">
<polygon fill="white" stroke="black" points="1123.5,-212.5 1123.5,-242.5 1291.5,-242.5 1291.5,-212.5 1123.5,-212.5"/>
<text text-anchor="start" x="1131.5" y="-230.5" font-family="Helvetica,sans-Serif" font-size="10.00">/home/alejandro/Desarrollo</text>
<text text-anchor="middle" x="1207.5" y="-219.5" font-family="Helvetica,sans-Serif" font-size="10.00"> eclipse/os1/include/LoopClosing.h</text>
</a>
</g>
</g>
<!-- Node12&#45;&gt;Node13 -->
<g id="edge13" class="edge"><title>Node12&#45;&gt;Node13</title>
<path fill="none" stroke="midnightblue" d="M806.539,-289.904C921.075,-263.41 1043.66,-246.718 1123.21,-237.406"/>
<polygon fill="midnightblue" stroke="midnightblue" points="805.484,-286.557 796.546,-292.246 807.081,-293.372 805.484,-286.557"/>
</g>
<!-- Node21 -->
<g id="node21" class="node"><title>Node21</title>
<g id="a_node21"><a xlink:href="_optimizer_8h.html" target="_top" xlink:title="/home/alejandro/Desarrollo\l eclipse/os1/include/Optimizer.h">
<polygon fill="white" stroke="black" points="824.5,-134.5 824.5,-164.5 980.5,-164.5 980.5,-134.5 824.5,-134.5"/>
<text text-anchor="start" x="832.5" y="-152.5" font-family="Helvetica,sans-Serif" font-size="10.00">/home/alejandro/Desarrollo</text>
<text text-anchor="middle" x="902.5" y="-141.5" font-family="Helvetica,sans-Serif" font-size="10.00"> eclipse/os1/include/Optimizer.h</text>
</a>
</g>
</g>
<!-- Node12&#45;&gt;Node21 -->
<g id="edge37" class="edge"><title>Node12&#45;&gt;Node21</title>
<path fill="none" stroke="midnightblue" d="M723.319,-279.897C723.065,-255.002 726.953,-222.49 745.5,-201 765.33,-178.023 795.655,-165.416 824.385,-158.531"/>
<polygon fill="midnightblue" stroke="midnightblue" points="719.826,-280.165 723.651,-290.046 726.822,-279.937 719.826,-280.165"/>
</g>
<!-- Node23 -->
<g id="node23" class="node"><title>Node23</title>
<g id="a_node23"><a xlink:href="types__seven__dof__expmap_8cpp.html" target="_top" xlink:title="/home/alejandro/Desarrollo\l eclipse/os1/Thirdparty\l/g2o/g2o/types/types_seven\l_dof_expmap.cpp">
<polygon fill="white" stroke="black" points="754.5,-201.5 754.5,-253.5 894.5,-253.5 894.5,-201.5 754.5,-201.5"/>
<text text-anchor="start" x="762.5" y="-241.5" font-family="Helvetica,sans-Serif" font-size="10.00">/home/alejandro/Desarrollo</text>
<text text-anchor="start" x="762.5" y="-230.5" font-family="Helvetica,sans-Serif" font-size="10.00"> eclipse/os1/Thirdparty</text>
<text text-anchor="start" x="762.5" y="-219.5" font-family="Helvetica,sans-Serif" font-size="10.00">/g2o/g2o/types/types_seven</text>
<text text-anchor="middle" x="824.5" y="-208.5" font-family="Helvetica,sans-Serif" font-size="10.00">_dof_expmap.cpp</text>
</a>
</g>
</g>
<!-- Node12&#45;&gt;Node23 -->
<g id="edge39" class="edge"><title>Node12&#45;&gt;Node23</title>
<path fill="none" stroke="midnightblue" d="M762.378,-283.649C773.53,-273.749 785.66,-262.98 796.218,-253.607"/>
<polygon fill="midnightblue" stroke="midnightblue" points="760,-281.08 754.846,-290.336 764.648,-286.314 760,-281.08"/>
</g>
<!-- Node13&#45;&gt;Node8 -->
<g id="edge35" class="edge"><title>Node13&#45;&gt;Node8</title>
<path fill="none" stroke="midnightblue" d="M1113.48,-223.56C1011.51,-218.385 857.624,-204.14 815.5,-165 796.874,-147.694 794.834,-115.963 795.409,-97.6166"/>
<polygon fill="midnightblue" stroke="midnightblue" points="1113.33,-227.057 1123.49,-224.048 1113.67,-220.065 1113.33,-227.057"/>
</g>
<!-- Node13&#45;&gt;Node10 -->
<g id="edge36" class="edge"><title>Node13&#45;&gt;Node10</title>
<path fill="none" stroke="midnightblue" d="M1208.77,-202.045C1210.63,-182.626 1215.23,-155.294 1226.5,-134 1236.94,-114.278 1253.11,-118.676 1261.5,-98 1266.68,-85.2342 1267.6,-79.3527 1261.5,-67 1253.7,-51.2187 1238.35,-39.0098 1224.41,-30.5525"/>
<polygon fill="midnightblue" stroke="midnightblue" points="1205.26,-201.95 1207.97,-212.194 1212.24,-202.499 1205.26,-201.95"/>
</g>
<!-- Node14 -->
<g id="node14" class="node"><title>Node14</title>
<g id="a_node14"><a xlink:href="_local_mapping_8h.html" target="_top" xlink:title="/home/alejandro/Desarrollo\l eclipse/os1/include/LocalMapping.h">
<polygon fill="white" stroke="black" points="1235.5,-134.5 1235.5,-164.5 1409.5,-164.5 1409.5,-134.5 1235.5,-134.5"/>
<text text-anchor="start" x="1243.5" y="-152.5" font-family="Helvetica,sans-Serif" font-size="10.00">/home/alejandro/Desarrollo</text>
<text text-anchor="middle" x="1322.5" y="-141.5" font-family="Helvetica,sans-Serif" font-size="10.00"> eclipse/os1/include/LocalMapping.h</text>
</a>
</g>
</g>
<!-- Node13&#45;&gt;Node14 -->
<g id="edge14" class="edge"><title>Node13&#45;&gt;Node14</title>
<path fill="none" stroke="midnightblue" d="M1232.04,-206.289C1250.74,-193.187 1276.29,-176.443 1295.56,-164.731"/>
<polygon fill="midnightblue" stroke="midnightblue" points="1229.84,-203.557 1223.72,-212.205 1233.9,-209.262 1229.84,-203.557"/>
</g>
<!-- Node15 -->
<g id="node15" class="node"><title>Node15</title>
<g id="a_node15"><a xlink:href="_tracking_8h.html" target="_top" xlink:title="/home/alejandro/Desarrollo\l eclipse/os1/include/Tracking.h">
<polygon fill="white" stroke="black" points="1359.5,-67.5 1359.5,-97.5 1511.5,-97.5 1511.5,-67.5 1359.5,-67.5"/>
<text text-anchor="start" x="1367.5" y="-85.5" font-family="Helvetica,sans-Serif" font-size="10.00">/home/alejandro/Desarrollo</text>
<text text-anchor="middle" x="1435.5" y="-74.5" font-family="Helvetica,sans-Serif" font-size="10.00"> eclipse/os1/include/Tracking.h</text>
</a>
</g>
</g>
<!-- Node13&#45;&gt;Node15 -->
<g id="edge27" class="edge"><title>Node13&#45;&gt;Node15</title>
<path fill="none" stroke="midnightblue" d="M1301.78,-218.802C1340.06,-210.751 1381.67,-195.085 1409.5,-165 1426.58,-146.537 1428.29,-115.521 1430.47,-97.5459"/>
<polygon fill="midnightblue" stroke="midnightblue" points="1300.76,-215.435 1291.62,-220.782 1302.1,-222.306 1300.76,-215.435"/>
</g>
<!-- Node20 -->
<g id="node20" class="node"><title>Node20</title>
<g id="a_node20"><a xlink:href="_local_mapping_8cc.html" target="_top" xlink:title="/home/alejandro/Desarrollo\l eclipse/os1/src/LocalMapping.cc">
<polygon fill="white" stroke="black" points="1090.5,-67.5 1090.5,-97.5 1252.5,-97.5 1252.5,-67.5 1090.5,-67.5"/>
<text text-anchor="start" x="1098.5" y="-85.5" font-family="Helvetica,sans-Serif" font-size="10.00">/home/alejandro/Desarrollo</text>
<text text-anchor="middle" x="1171.5" y="-74.5" font-family="Helvetica,sans-Serif" font-size="10.00"> eclipse/os1/src/LocalMapping.cc</text>
</a>
</g>
</g>
<!-- Node13&#45;&gt;Node20 -->
<g id="edge34" class="edge"><title>Node13&#45;&gt;Node20</title>
<path fill="none" stroke="midnightblue" d="M1201.38,-202.194C1193.82,-172.159 1181.2,-122.048 1175.07,-97.6766"/>
<polygon fill="midnightblue" stroke="midnightblue" points="1198.08,-203.423 1203.92,-212.266 1204.87,-201.714 1198.08,-203.423"/>
</g>
<!-- Node13&#45;&gt;Node21 -->
<g id="edge28" class="edge"><title>Node13&#45;&gt;Node21</title>
<path fill="none" stroke="midnightblue" d="M1141.29,-210.001C1086.77,-196.416 1010.31,-177.365 958.727,-164.511"/>
<polygon fill="midnightblue" stroke="midnightblue" points="1140.65,-213.45 1151.2,-212.472 1142.35,-206.658 1140.65,-213.45"/>
</g>
<!-- Node14&#45;&gt;Node10 -->
<g id="edge26" class="edge"><title>Node14&#45;&gt;Node10</title>
<path fill="none" stroke="midnightblue" d="M1319.11,-124.115C1315.56,-106.507 1308.47,-83.091 1294.5,-67 1280.08,-50.3914 1258.87,-38.5605 1239.78,-30.5457"/>
<polygon fill="midnightblue" stroke="midnightblue" points="1315.7,-124.968 1320.88,-134.21 1322.6,-123.755 1315.7,-124.968"/>
</g>
<!-- Node14&#45;&gt;Node13 -->
<g id="edge15" class="edge"><title>Node14&#45;&gt;Node13</title>
<path fill="none" stroke="midnightblue" d="M1298.29,-170.484C1279.49,-183.661 1253.65,-200.599 1234.25,-212.383"/>
<polygon fill="midnightblue" stroke="midnightblue" points="1300.52,-173.193 1306.63,-164.541 1296.46,-167.491 1300.52,-173.193"/>
</g>
<!-- Node14&#45;&gt;Node15 -->
<g id="edge16" class="edge"><title>Node14&#45;&gt;Node15</title>
<path fill="none" stroke="midnightblue" d="M1350.13,-129.015C1366.89,-118.9 1388.16,-106.77 1405.35,-97.5765"/>
<polygon fill="midnightblue" stroke="midnightblue" points="1348.04,-126.189 1341.34,-134.396 1351.7,-132.159 1348.04,-126.189"/>
</g>
<!-- Node14&#45;&gt;Node20 -->
<g id="edge25" class="edge"><title>Node14&#45;&gt;Node20</title>
<path fill="none" stroke="midnightblue" d="M1280.47,-130.407C1256.36,-120.029 1226.55,-107.195 1204.2,-97.5765"/>
<polygon fill="midnightblue" stroke="midnightblue" points="1279.17,-133.657 1289.74,-134.396 1281.93,-127.227 1279.17,-133.657"/>
</g>
<!-- Node15&#45;&gt;Node10 -->
<g id="edge22" class="edge"><title>Node15&#45;&gt;Node10</title>
<path fill="none" stroke="midnightblue" d="M1374.02,-64.8498C1334.89,-54.2523 1284.77,-40.6775 1247.6,-30.6109"/>
<polygon fill="midnightblue" stroke="midnightblue" points="1373.15,-68.2401 1383.72,-67.476 1374.98,-61.4835 1373.15,-68.2401"/>
</g>
<!-- Node15&#45;&gt;Node11 -->
<g id="edge23" class="edge"><title>Node15&#45;&gt;Node11</title>
<path fill="none" stroke="midnightblue" d="M1349.19,-70.9745C1244.44,-58.2005 1069.84,-36.9067 972.858,-25.0802"/>
<polygon fill="midnightblue" stroke="midnightblue" points="1349.07,-74.4853 1359.42,-72.2216 1349.91,-67.5367 1349.07,-74.4853"/>
</g>
<!-- Node15&#45;&gt;Node13 -->
<g id="edge17" class="edge"><title>Node15&#45;&gt;Node13</title>
<path fill="none" stroke="midnightblue" d="M1444.08,-107.586C1445.28,-125.586 1441.71,-149.638 1427.5,-165 1393.3,-201.975 1338.27,-217.171 1291.75,-223.216"/>
<polygon fill="midnightblue" stroke="midnightblue" points="1447.54,-107.03 1442.82,-97.5459 1440.59,-107.905 1447.54,-107.03"/>
</g>
<!-- Node15&#45;&gt;Node14 -->
<g id="edge18" class="edge"><title>Node15&#45;&gt;Node14</title>
<path fill="none" stroke="midnightblue" d="M1407.92,-102.955C1391.17,-113.066 1369.9,-125.197 1352.7,-134.396"/>
<polygon fill="midnightblue" stroke="midnightblue" points="1410,-105.783 1416.7,-97.5765 1406.35,-99.8137 1410,-105.783"/>
</g>
<!-- Node16 -->
<g id="node16" class="node"><title>Node16</title>
<g id="a_node16"><a xlink:href="_frame_drawer_8cc.html" target="_top" xlink:title="/home/alejandro/Desarrollo\l eclipse/os1/src/FrameDrawer.cc">
<polygon fill="white" stroke="black" points="1599,-0.5 1599,-30.5 1760,-30.5 1760,-0.5 1599,-0.5"/>
<text text-anchor="start" x="1607" y="-18.5" font-family="Helvetica,sans-Serif" font-size="10.00">/home/alejandro/Desarrollo</text>
<text text-anchor="middle" x="1679.5" y="-7.5" font-family="Helvetica,sans-Serif" font-size="10.00"> eclipse/os1/src/FrameDrawer.cc</text>
</a>
</g>
</g>
<!-- Node15&#45;&gt;Node16 -->
<g id="edge19" class="edge"><title>Node15&#45;&gt;Node16</title>
<path fill="none" stroke="midnightblue" d="M1498,-64.8498C1537.78,-54.2523 1588.74,-40.6775 1626.53,-30.6109"/>
<polygon fill="midnightblue" stroke="midnightblue" points="1496.91,-61.5197 1488.14,-67.476 1498.71,-68.2838 1496.91,-61.5197"/>
</g>
<!-- Node17 -->
<g id="node17" class="node"><title>Node17</title>
<g id="a_node17"><a xlink:href="main_8cc.html" target="_top" xlink:title="/home/alejandro/Desarrollo\l eclipse/os1/src/main.cc">
<polygon fill="white" stroke="black" points="1778,-0.5 1778,-30.5 1911,-30.5 1911,-0.5 1778,-0.5"/>
<text text-anchor="start" x="1786" y="-18.5" font-family="Helvetica,sans-Serif" font-size="10.00">/home/alejandro/Desarrollo</text>
<text text-anchor="middle" x="1844.5" y="-7.5" font-family="Helvetica,sans-Serif" font-size="10.00"> eclipse/os1/src/main.cc</text>
</a>
</g>
</g>
<!-- Node15&#45;&gt;Node17 -->
<g id="edge20" class="edge"><title>Node15&#45;&gt;Node17</title>
<path fill="none" stroke="midnightblue" d="M1521.75,-69.4477C1589.29,-59.7722 1685.53,-45.459 1769.5,-31 1772.24,-30.5274 1775.04,-30.0348 1777.87,-29.5286"/>
<polygon fill="midnightblue" stroke="midnightblue" points="1520.99,-66.0212 1511.59,-70.9005 1521.98,-72.9508 1520.99,-66.0212"/>
</g>
<!-- Node18 -->
<g id="node18" class="node"><title>Node18</title>
<g id="a_node18"><a xlink:href="_serializer_8cpp.html" target="_top" xlink:title="/home/alejandro/Desarrollo\l eclipse/os1/src/Serializer.cpp">
<polygon fill="white" stroke="black" points="1281.5,-0.5 1281.5,-30.5 1429.5,-30.5 1429.5,-0.5 1281.5,-0.5"/>
<text text-anchor="start" x="1289.5" y="-18.5" font-family="Helvetica,sans-Serif" font-size="10.00">/home/alejandro/Desarrollo</text>
<text text-anchor="middle" x="1355.5" y="-7.5" font-family="Helvetica,sans-Serif" font-size="10.00"> eclipse/os1/src/Serializer.cpp</text>
</a>
</g>
</g>
<!-- Node15&#45;&gt;Node18 -->
<g id="edge21" class="edge"><title>Node15&#45;&gt;Node18</title>
<path fill="none" stroke="midnightblue" d="M1410.13,-60.8832C1397.97,-51.0054 1383.72,-39.4293 1372.82,-30.5765"/>
<polygon fill="midnightblue" stroke="midnightblue" points="1408.17,-63.8064 1418.14,-67.396 1412.59,-58.3736 1408.17,-63.8064"/>
</g>
<!-- Node19 -->
<g id="node19" class="node"><title>Node19</title>
<g id="a_node19"><a xlink:href="_viewer_8cc.html" target="_top" xlink:title="/home/alejandro/Desarrollo\l eclipse/os1/src/Viewer.cc">
<polygon fill="white" stroke="black" points="1448,-0.5 1448,-30.5 1581,-30.5 1581,-0.5 1448,-0.5"/>
<text text-anchor="start" x="1456" y="-18.5" font-family="Helvetica,sans-Serif" font-size="10.00">/home/alejandro/Desarrollo</text>
<text text-anchor="middle" x="1514.5" y="-7.5" font-family="Helvetica,sans-Serif" font-size="10.00"> eclipse/os1/src/Viewer.cc</text>
</a>
</g>
</g>
<!-- Node15&#45;&gt;Node19 -->
<g id="edge24" class="edge"><title>Node15&#45;&gt;Node19</title>
<path fill="none" stroke="midnightblue" d="M1460.56,-60.8832C1472.56,-51.0054 1486.63,-39.4293 1497.39,-30.5765"/>
<polygon fill="midnightblue" stroke="midnightblue" points="1458.14,-58.3395 1452.64,-67.396 1462.59,-63.745 1458.14,-58.3395"/>
</g>
<!-- Node21&#45;&gt;Node8 -->
<g id="edge31" class="edge"><title>Node21&#45;&gt;Node8</title>
<path fill="none" stroke="midnightblue" d="M870.725,-129.015C854.229,-118.9 834.448,-106.77 819.456,-97.5765"/>
<polygon fill="midnightblue" stroke="midnightblue" points="869.145,-132.152 879.5,-134.396 872.804,-126.185 869.145,-132.152"/>
</g>
<!-- Node21&#45;&gt;Node9 -->
<g id="edge32" class="edge"><title>Node21&#45;&gt;Node9</title>
<path fill="none" stroke="midnightblue" d="M833.446,-132.119C788.611,-121.483 730.777,-107.763 687.983,-97.6109"/>
<polygon fill="midnightblue" stroke="midnightblue" points="832.846,-135.573 843.383,-134.476 834.461,-128.762 832.846,-135.573"/>
</g>
<!-- Node21&#45;&gt;Node11 -->
<g id="edge33" class="edge"><title>Node21&#45;&gt;Node11</title>
<path fill="none" stroke="midnightblue" d="M902.5,-124.024C902.5,-96.5121 902.5,-52.7894 902.5,-30.5247"/>
<polygon fill="midnightblue" stroke="midnightblue" points="899,-124.374 902.5,-134.374 906,-124.374 899,-124.374"/>
</g>
<!-- Node21&#45;&gt;Node20 -->
<g id="edge30" class="edge"><title>Node21&#45;&gt;Node20</title>
<path fill="none" stroke="midnightblue" d="M970.294,-132.119C1014.31,-121.483 1071.09,-107.763 1113.1,-97.6109"/>
<polygon fill="midnightblue" stroke="midnightblue" points="969.436,-128.725 960.538,-134.476 971.08,-135.529 969.436,-128.725"/>
</g>
<!-- Node22 -->
<g id="node22" class="node"><title>Node22</title>
<g id="a_node22"><a xlink:href="_initializer_8cc.html" target="_top" xlink:title="/home/alejandro/Desarrollo\l eclipse/os1/src/Initializer.cc">
<polygon fill="white" stroke="black" points="931,-67.5 931,-97.5 1072,-97.5 1072,-67.5 931,-67.5"/>
<text text-anchor="start" x="939" y="-85.5" font-family="Helvetica,sans-Serif" font-size="10.00">/home/alejandro/Desarrollo</text>
<text text-anchor="middle" x="1001.5" y="-74.5" font-family="Helvetica,sans-Serif" font-size="10.00"> eclipse/os1/src/Initializer.cc</text>
</a>
</g>
</g>
<!-- Node21&#45;&gt;Node22 -->
<g id="edge29" class="edge"><title>Node21&#45;&gt;Node22</title>
<path fill="none" stroke="midnightblue" d="M932.606,-128.734C947.925,-118.676 966.188,-106.685 980.06,-97.5765"/>
<polygon fill="midnightblue" stroke="midnightblue" points="930.42,-125.982 923.982,-134.396 934.262,-131.833 930.42,-125.982"/>
</g>
</g>
</svg>
