<?xml version="1.0" encoding="UTF-8" standalone="no"?>
<!DOCTYPE svg PUBLIC "-//W3C//DTD SVG 1.1//EN"
 "http://www.w3.org/Graphics/SVG/1.1/DTD/svg11.dtd">
<!-- Generated by graphviz version 2.38.0 (20140413.2041)
 -->
<!-- Title: /home/alejandro/Desarrollo eclipse/os1/Thirdparty/g2o/g2o/core/base_vertex.h Pages: 1 -->
<svg width="1430pt" height="274pt"
 viewBox="0.00 0.00 1429.50 274.00" xmlns="http://www.w3.org/2000/svg" xmlns:xlink="http://www.w3.org/1999/xlink">
<g id="graph0" class="graph" transform="scale(1 1) rotate(0) translate(4 270)">
<title>/home/alejandro/Desarrollo eclipse/os1/Thirdparty/g2o/g2o/core/base_vertex.h</title>
<polygon fill="white" stroke="none" points="-4,4 -4,-270 1425.5,-270 1425.5,4 -4,4"/>
<!-- Node0 -->
<g id="node1" class="node"><title>Node0</title>
<polygon fill="#bfbfbf" stroke="black" points="918,-224.5 918,-265.5 1058,-265.5 1058,-224.5 918,-224.5"/>
<text text-anchor="start" x="926" y="-253.5" font-family="Helvetica,sans-Serif" font-size="10.00">/home/alejandro/Desarrollo</text>
<text text-anchor="start" x="926" y="-242.5" font-family="Helvetica,sans-Serif" font-size="10.00"> eclipse/os1/Thirdparty</text>
<text text-anchor="middle" x="988" y="-231.5" font-family="Helvetica,sans-Serif" font-size="10.00">/g2o/g2o/core/base_vertex.h</text>
</g>
<!-- Node1 -->
<g id="node2" class="node"><title>Node1</title>
<g id="a_node2"><a xlink:href="optimizable__graph_8h.html" target="_top" xlink:title="optimizable_graph.h">
<polygon fill="white" stroke="black" points="373,-168.5 373,-187.5 477,-187.5 477,-168.5 373,-168.5"/>
<text text-anchor="middle" x="425" y="-175.5" font-family="Helvetica,sans-Serif" font-size="10.00">optimizable_graph.h</text>
</a>
</g>
</g>
<!-- Node0&#45;&gt;Node1 -->
<g id="edge1" class="edge"><title>Node0&#45;&gt;Node1</title>
<path fill="none" stroke="midnightblue" d="M917.834,-235.899C807.007,-223.104 593.188,-198.418 487.402,-186.204"/>
<polygon fill="midnightblue" stroke="midnightblue" points="487.537,-182.697 477.201,-185.027 486.734,-189.651 487.537,-182.697"/>
</g>
<!-- Node22 -->
<g id="node23" class="node"><title>Node22</title>
<polygon fill="white" stroke="#bfbfbf" points="778.5,-56.5 778.5,-75.5 875.5,-75.5 875.5,-56.5 778.5,-56.5"/>
<text text-anchor="middle" x="827" y="-63.5" font-family="Helvetica,sans-Serif" font-size="10.00">eigen3/Eigen/Core</text>
</g>
<!-- Node0&#45;&gt;Node22 -->
<g id="edge40" class="edge"><title>Node0&#45;&gt;Node22</title>
<path fill="none" stroke="midnightblue" d="M976.465,-224.061C960.034,-196.734 927.875,-147.051 892,-112 879.755,-100.037 864.013,-89.0487 851.087,-80.9256"/>
<polygon fill="midnightblue" stroke="midnightblue" points="852.623,-77.763 842.264,-75.544 848.978,-83.7392 852.623,-77.763"/>
</g>
<!-- Node23 -->
<g id="node24" class="node"><title>Node23</title>
<polygon fill="white" stroke="#bfbfbf" points="893.5,-56.5 893.5,-75.5 1012.5,-75.5 1012.5,-56.5 893.5,-56.5"/>
<text text-anchor="middle" x="953" y="-63.5" font-family="Helvetica,sans-Serif" font-size="10.00">eigen3/Eigen/StdVector</text>
</g>
<!-- Node0&#45;&gt;Node23 -->
<g id="edge43" class="edge"><title>Node0&#45;&gt;Node23</title>
<path fill="none" stroke="midnightblue" d="M984.121,-224.382C977.309,-189.932 963.291,-119.042 956.647,-85.4424"/>
<polygon fill="midnightblue" stroke="midnightblue" points="960.071,-84.7149 954.697,-75.5838 953.204,-86.0728 960.071,-84.7149"/>
</g>
<!-- Node24 -->
<g id="node25" class="node"><title>Node24</title>
<g id="a_node25"><a xlink:href="macros_8h.html" target="_top" xlink:title="../stuff/macros.h">
<polygon fill="white" stroke="black" points="978.5,-112.5 978.5,-131.5 1067.5,-131.5 1067.5,-112.5 978.5,-112.5"/>
<text text-anchor="middle" x="1023" y="-119.5" font-family="Helvetica,sans-Serif" font-size="10.00">../stuff/macros.h</text>
</a>
</g>
</g>
<!-- Node0&#45;&gt;Node24 -->
<g id="edge39" class="edge"><title>Node0&#45;&gt;Node24</title>
<path fill="none" stroke="midnightblue" d="M992.33,-224.492C995.887,-209.055 1001.26,-187.009 1007,-168 1009.7,-159.059 1013.12,-149.274 1016.11,-141.119"/>
<polygon fill="midnightblue" stroke="midnightblue" points="1019.46,-142.137 1019.68,-131.545 1012.91,-139.688 1019.46,-142.137"/>
</g>
<!-- Node26 -->
<g id="node27" class="node"><title>Node26</title>
<g id="a_node27"><a xlink:href="creators_8h.html" target="_top" xlink:title="creators.h">
<polygon fill="white" stroke="black" points="693,-168.5 693,-187.5 753,-187.5 753,-168.5 693,-168.5"/>
<text text-anchor="middle" x="723" y="-175.5" font-family="Helvetica,sans-Serif" font-size="10.00">creators.h</text>
</a>
</g>
</g>
<!-- Node0&#45;&gt;Node26 -->
<g id="edge35" class="edge"><title>Node0&#45;&gt;Node26</title>
<path fill="none" stroke="midnightblue" d="M917.681,-226.752C868.206,-214.617 803.773,-198.812 762.883,-188.783"/>
<polygon fill="midnightblue" stroke="midnightblue" points="763.564,-185.346 753.018,-186.363 761.897,-192.144 763.564,-185.346"/>
</g>
<!-- Node27 -->
<g id="node28" class="node"><title>Node27</title>
<polygon fill="white" stroke="#bfbfbf" points="1016,-168.5 1016,-187.5 1120,-187.5 1120,-168.5 1016,-168.5"/>
<text text-anchor="middle" x="1068" y="-175.5" font-family="Helvetica,sans-Serif" font-size="10.00">eigen3/Eigen/Dense</text>
</g>
<!-- Node0&#45;&gt;Node27 -->
<g id="edge41" class="edge"><title>Node0&#45;&gt;Node27</title>
<path fill="none" stroke="midnightblue" d="M1012,-224.498C1024.03,-214.724 1038.37,-203.072 1049.53,-194.007"/>
<polygon fill="midnightblue" stroke="midnightblue" points="1051.8,-196.675 1057.35,-187.652 1047.38,-191.242 1051.8,-196.675"/>
</g>
<!-- Node28 -->
<g id="node29" class="node"><title>Node28</title>
<polygon fill="white" stroke="#bfbfbf" points="1138.5,-168.5 1138.5,-187.5 1255.5,-187.5 1255.5,-168.5 1138.5,-168.5"/>
<text text-anchor="middle" x="1197" y="-175.5" font-family="Helvetica,sans-Serif" font-size="10.00">eigen3/Eigen/Cholesky</text>
</g>
<!-- Node0&#45;&gt;Node28 -->
<g id="edge42" class="edge"><title>Node0&#45;&gt;Node28</title>
<path fill="none" stroke="midnightblue" d="M1050.71,-224.498C1086.25,-213.444 1129.51,-199.99 1159.73,-190.59"/>
<polygon fill="midnightblue" stroke="midnightblue" points="1160.94,-193.879 1169.45,-187.567 1158.87,-187.195 1160.94,-193.879"/>
</g>
<!-- Node29 -->
<g id="node30" class="node"><title>Node29</title>
<polygon fill="white" stroke="#bfbfbf" points="1273.5,-168.5 1273.5,-187.5 1314.5,-187.5 1314.5,-168.5 1273.5,-168.5"/>
<text text-anchor="middle" x="1294" y="-175.5" font-family="Helvetica,sans-Serif" font-size="10.00">stack</text>
</g>
<!-- Node0&#45;&gt;Node29 -->
<g id="edge44" class="edge"><title>Node0&#45;&gt;Node29</title>
<path fill="none" stroke="midnightblue" d="M1058.17,-231.848C1112.02,-222.057 1188.34,-207.174 1263.38,-188.227"/>
<polygon fill="midnightblue" stroke="midnightblue" points="1264.65,-191.515 1273.48,-185.651 1262.92,-184.732 1264.65,-191.515"/>
</g>
<!-- Node30 -->
<g id="node31" class="node"><title>Node30</title>
<g id="a_node31"><a xlink:href="base__vertex_8hpp.html" target="_top" xlink:title="base_vertex.hpp">
<polygon fill="white" stroke="black" points="1332.5,-168.5 1332.5,-187.5 1421.5,-187.5 1421.5,-168.5 1332.5,-168.5"/>
<text text-anchor="middle" x="1377" y="-175.5" font-family="Helvetica,sans-Serif" font-size="10.00">base_vertex.hpp</text>
</a>
</g>
</g>
<!-- Node0&#45;&gt;Node30 -->
<g id="edge45" class="edge"><title>Node0&#45;&gt;Node30</title>
<path fill="none" stroke="midnightblue" d="M1058.16,-232.371C1123.88,-221.463 1225.15,-204.617 1322.46,-188.256"/>
<polygon fill="midnightblue" stroke="midnightblue" points="1323.19,-191.682 1332.47,-186.572 1322.03,-184.779 1323.19,-191.682"/>
</g>
<!-- Node2 -->
<g id="node3" class="node"><title>Node2</title>
<polygon fill="white" stroke="#bfbfbf" points="162,-0.5 162,-19.5 192,-19.5 192,-0.5 162,-0.5"/>
<text text-anchor="middle" x="177" y="-7.5" font-family="Helvetica,sans-Serif" font-size="10.00">set</text>
</g>
<!-- Node1&#45;&gt;Node2 -->
<g id="edge2" class="edge"><title>Node1&#45;&gt;Node2</title>
<path fill="none" stroke="midnightblue" d="M372.751,-176.221C300.869,-173.915 177.145,-165.105 149,-132 123.625,-102.153 148.372,-53.7244 164.877,-28.1234"/>
<polygon fill="midnightblue" stroke="midnightblue" points="167.798,-30.0516 170.477,-19.801 161.99,-26.1437 167.798,-30.0516"/>
</g>
<!-- Node3 -->
<g id="node4" class="node"><title>Node3</title>
<polygon fill="white" stroke="#bfbfbf" points="0,-112.5 0,-131.5 54,-131.5 54,-112.5 0,-112.5"/>
<text text-anchor="middle" x="27" y="-119.5" font-family="Helvetica,sans-Serif" font-size="10.00">iostream</text>
</g>
<!-- Node1&#45;&gt;Node3 -->
<g id="edge3" class="edge"><title>Node1&#45;&gt;Node3</title>
<path fill="none" stroke="midnightblue" d="M372.841,-172.52C304.216,-166.184 179.723,-153.165 64.1322,-132.007"/>
<polygon fill="midnightblue" stroke="midnightblue" points="64.5202,-128.519 54.0495,-130.136 63.2432,-135.402 64.5202,-128.519"/>
</g>
<!-- Node4 -->
<g id="node5" class="node"><title>Node4</title>
<polygon fill="white" stroke="#bfbfbf" points="72.5,-112.5 72.5,-131.5 101.5,-131.5 101.5,-112.5 72.5,-112.5"/>
<text text-anchor="middle" x="87" y="-119.5" font-family="Helvetica,sans-Serif" font-size="10.00">list</text>
</g>
<!-- Node1&#45;&gt;Node4 -->
<g id="edge4" class="edge"><title>Node1&#45;&gt;Node4</title>
<path fill="none" stroke="midnightblue" d="M372.879,-171.925C311.083,-165.33 205.222,-152.211 116,-132 114.522,-131.665 113.01,-131.292 111.491,-130.893"/>
<polygon fill="midnightblue" stroke="midnightblue" points="112.212,-127.458 101.632,-128.029 110.259,-134.18 112.212,-127.458"/>
</g>
<!-- Node5 -->
<g id="node6" class="node"><title>Node5</title>
<polygon fill="white" stroke="#bfbfbf" points="282,-0.5 282,-19.5 322,-19.5 322,-0.5 282,-0.5"/>
<text text-anchor="middle" x="302" y="-7.5" font-family="Helvetica,sans-Serif" font-size="10.00">limits</text>
</g>
<!-- Node1&#45;&gt;Node5 -->
<g id="edge5" class="edge"><title>Node1&#45;&gt;Node5</title>
<path fill="none" stroke="midnightblue" d="M372.764,-170.724C326.541,-163.97 264.136,-151.493 249,-132 238.509,-118.489 246.443,-82.5281 260,-56 265.675,-44.8946 274.905,-34.5626 283.268,-26.6068"/>
<polygon fill="midnightblue" stroke="midnightblue" points="285.785,-29.0504 290.877,-19.7594 281.103,-23.847 285.785,-29.0504"/>
</g>
<!-- Node6 -->
<g id="node7" class="node"><title>Node6</title>
<polygon fill="white" stroke="#bfbfbf" points="158,-112.5 158,-131.5 202,-131.5 202,-112.5 158,-112.5"/>
<text text-anchor="middle" x="180" y="-119.5" font-family="Helvetica,sans-Serif" font-size="10.00">cmath</text>
</g>
<!-- Node1&#45;&gt;Node6 -->
<g id="edge6" class="edge"><title>Node1&#45;&gt;Node6</title>
<path fill="none" stroke="midnightblue" d="M383.273,-168.437C341.022,-159.668 273.842,-145.453 216,-132 214.729,-131.704 213.434,-131.399 212.127,-131.088"/>
<polygon fill="midnightblue" stroke="midnightblue" points="212.601,-127.601 202.057,-128.636 210.945,-134.403 212.601,-127.601"/>
</g>
<!-- Node7 -->
<g id="node8" class="node"><title>Node7</title>
<polygon fill="white" stroke="#bfbfbf" points="624.5,-112.5 624.5,-131.5 675.5,-131.5 675.5,-112.5 624.5,-112.5"/>
<text text-anchor="middle" x="650" y="-119.5" font-family="Helvetica,sans-Serif" font-size="10.00">typeinfo</text>
</g>
<!-- Node1&#45;&gt;Node7 -->
<g id="edge7" class="edge"><title>Node1&#45;&gt;Node7</title>
<path fill="none" stroke="midnightblue" d="M460.652,-168.444C502.779,-158.333 572.444,-141.613 614.503,-131.519"/>
<polygon fill="midnightblue" stroke="midnightblue" points="615.406,-134.902 624.313,-129.165 613.772,-128.095 615.406,-134.902"/>
</g>
<!-- Node8 -->
<g id="node9" class="node"><title>Node8</title>
<g id="a_node9"><a xlink:href="openmp__mutex_8h.html" target="_top" xlink:title="openmp_mutex.h">
<polygon fill="white" stroke="black" points="258,-112.5 258,-131.5 350,-131.5 350,-112.5 258,-112.5"/>
<text text-anchor="middle" x="304" y="-119.5" font-family="Helvetica,sans-Serif" font-size="10.00">openmp_mutex.h</text>
</a>
</g>
</g>
<!-- Node1&#45;&gt;Node8 -->
<g id="edge8" class="edge"><title>Node1&#45;&gt;Node8</title>
<path fill="none" stroke="midnightblue" d="M405.827,-168.444C386.091,-159.636 355.115,-145.812 332.507,-135.722"/>
<polygon fill="midnightblue" stroke="midnightblue" points="333.641,-132.396 323.083,-131.516 330.789,-138.788 333.641,-132.396"/>
</g>
<!-- Node11 -->
<g id="node12" class="node"><title>Node11</title>
<g id="a_node12"><a xlink:href="hyper__graph_8h.html" target="_top" xlink:title="hyper_graph.h">
<polygon fill="white" stroke="black" points="557,-56.5 557,-75.5 635,-75.5 635,-56.5 557,-56.5"/>
<text text-anchor="middle" x="596" y="-63.5" font-family="Helvetica,sans-Serif" font-size="10.00">hyper_graph.h</text>
</a>
</g>
</g>
<!-- Node1&#45;&gt;Node11 -->
<g id="edge11" class="edge"><title>Node1&#45;&gt;Node11</title>
<path fill="none" stroke="midnightblue" d="M477.195,-173.982C509.938,-169.392 550.774,-158.317 577,-132 589.049,-119.909 593.543,-100.626 595.175,-86.197"/>
<polygon fill="midnightblue" stroke="midnightblue" points="598.69,-86.1336 595.96,-75.8964 591.71,-85.6013 598.69,-86.1336"/>
</g>
<!-- Node17 -->
<g id="node18" class="node"><title>Node17</title>
<g id="a_node18"><a xlink:href="parameter_8h.html" target="_top" xlink:title="parameter.h">
<polygon fill="white" stroke="black" points="500,-112.5 500,-131.5 568,-131.5 568,-112.5 500,-112.5"/>
<text text-anchor="middle" x="534" y="-119.5" font-family="Helvetica,sans-Serif" font-size="10.00">parameter.h</text>
</a>
</g>
</g>
<!-- Node1&#45;&gt;Node17 -->
<g id="edge20" class="edge"><title>Node1&#45;&gt;Node17</title>
<path fill="none" stroke="midnightblue" d="M442.513,-168.324C460.072,-159.625 487.331,-146.12 507.531,-136.113"/>
<polygon fill="midnightblue" stroke="midnightblue" points="509.124,-139.23 516.531,-131.655 506.016,-132.958 509.124,-139.23"/>
</g>
<!-- Node19 -->
<g id="node20" class="node"><title>Node19</title>
<g id="a_node20"><a xlink:href="parameter__container_8h.html" target="_top" xlink:title="parameter_container.h">
<polygon fill="white" stroke="black" points="368.5,-112.5 368.5,-131.5 481.5,-131.5 481.5,-112.5 368.5,-112.5"/>
<text text-anchor="middle" x="425" y="-119.5" font-family="Helvetica,sans-Serif" font-size="10.00">parameter_container.h</text>
</a>
</g>
</g>
<!-- Node1&#45;&gt;Node19 -->
<g id="edge23" class="edge"><title>Node1&#45;&gt;Node19</title>
<path fill="none" stroke="midnightblue" d="M425,-168.083C425,-161.006 425,-150.861 425,-141.986"/>
<polygon fill="midnightblue" stroke="midnightblue" points="428.5,-141.751 425,-131.751 421.5,-141.751 428.5,-141.751"/>
</g>
<!-- Node21 -->
<g id="node22" class="node"><title>Node21</title>
<g id="a_node22"><a xlink:href="jacobian__workspace_8h.html" target="_top" xlink:title="jacobian_workspace.h">
<polygon fill="white" stroke="black" points="770.5,-112.5 770.5,-131.5 883.5,-131.5 883.5,-112.5 770.5,-112.5"/>
<text text-anchor="middle" x="827" y="-119.5" font-family="Helvetica,sans-Serif" font-size="10.00">jacobian_workspace.h</text>
</a>
</g>
</g>
<!-- Node1&#45;&gt;Node21 -->
<g id="edge27" class="edge"><title>Node1&#45;&gt;Node21</title>
<path fill="none" stroke="midnightblue" d="M477.142,-169.996C549.523,-160.273 680.493,-142.68 760.027,-131.996"/>
<polygon fill="midnightblue" stroke="midnightblue" points="760.973,-135.401 770.418,-130.601 760.042,-128.463 760.973,-135.401"/>
</g>
<!-- Node1&#45;&gt;Node24 -->
<g id="edge33" class="edge"><title>Node1&#45;&gt;Node24</title>
<path fill="none" stroke="midnightblue" d="M477.022,-172.302C589.287,-162.165 853.382,-138.317 968.149,-127.953"/>
<polygon fill="midnightblue" stroke="midnightblue" points="968.479,-131.438 978.124,-127.052 967.849,-124.466 968.479,-131.438"/>
</g>
<!-- Node9 -->
<g id="node10" class="node"><title>Node9</title>
<g id="a_node10"><a xlink:href="config_8h.html" target="_top" xlink:title="../../config.h">
<polygon fill="white" stroke="black" points="269.5,-56.5 269.5,-75.5 338.5,-75.5 338.5,-56.5 269.5,-56.5"/>
<text text-anchor="middle" x="304" y="-63.5" font-family="Helvetica,sans-Serif" font-size="10.00">../../config.h</text>
</a>
</g>
</g>
<!-- Node8&#45;&gt;Node9 -->
<g id="edge9" class="edge"><title>Node8&#45;&gt;Node9</title>
<path fill="none" stroke="midnightblue" d="M304,-112.083C304,-105.006 304,-94.8611 304,-85.9865"/>
<polygon fill="midnightblue" stroke="midnightblue" points="307.5,-85.751 304,-75.7511 300.5,-85.7511 307.5,-85.751"/>
</g>
<!-- Node10 -->
<g id="node11" class="node"><title>Node10</title>
<polygon fill="white" stroke="#bfbfbf" points="545.5,-0.5 545.5,-19.5 594.5,-19.5 594.5,-0.5 545.5,-0.5"/>
<text text-anchor="middle" x="570" y="-7.5" font-family="Helvetica,sans-Serif" font-size="10.00">cassert</text>
</g>
<!-- Node8&#45;&gt;Node10 -->
<g id="edge10" class="edge"><title>Node8&#45;&gt;Node10</title>
<path fill="none" stroke="midnightblue" d="M317.599,-112.474C339.399,-99.0767 383.807,-72.8846 424,-56 444.229,-47.5021 499.29,-31.1932 535.713,-20.7185"/>
<polygon fill="midnightblue" stroke="midnightblue" points="536.798,-24.0486 545.447,-17.9302 534.87,-17.3192 536.798,-24.0486"/>
</g>
<!-- Node11&#45;&gt;Node2 -->
<g id="edge13" class="edge"><title>Node11&#45;&gt;Node2</title>
<path fill="none" stroke="midnightblue" d="M556.731,-57.7145C553.108,-57.1078 549.489,-56.5263 546,-56 417.137,-36.5609 261.976,-19.7898 202.183,-13.5727"/>
<polygon fill="midnightblue" stroke="midnightblue" points="202.463,-10.0831 192.156,-12.5364 201.743,-17.046 202.463,-10.0831"/>
</g>
<!-- Node11&#45;&gt;Node5 -->
<g id="edge17" class="edge"><title>Node11&#45;&gt;Node5</title>
<path fill="none" stroke="midnightblue" d="M556.959,-57.8292C497.506,-46.9093 385.544,-26.3448 332.001,-16.5105"/>
<polygon fill="midnightblue" stroke="midnightblue" points="332.573,-13.0569 322.105,-14.6927 331.308,-19.9417 332.573,-13.0569"/>
</g>
<!-- Node11&#45;&gt;Node10 -->
<g id="edge15" class="edge"><title>Node11&#45;&gt;Node10</title>
<path fill="none" stroke="midnightblue" d="M591.707,-56.083C588.148,-48.6913 582.978,-37.9533 578.576,-28.8111"/>
<polygon fill="midnightblue" stroke="midnightblue" points="581.705,-27.2427 574.213,-19.7511 575.398,-30.2795 581.705,-27.2427"/>
</g>
<!-- Node12 -->
<g id="node13" class="node"><title>Node12</title>
<polygon fill="white" stroke="#bfbfbf" points="376.5,-0.5 376.5,-19.5 411.5,-19.5 411.5,-0.5 376.5,-0.5"/>
<text text-anchor="middle" x="394" y="-7.5" font-family="Helvetica,sans-Serif" font-size="10.00">map</text>
</g>
<!-- Node11&#45;&gt;Node12 -->
<g id="edge12" class="edge"><title>Node11&#45;&gt;Node12</title>
<path fill="none" stroke="midnightblue" d="M559.6,-56.4279C526.073,-48.358 474.767,-35.57 421.311,-19.9318"/>
<polygon fill="midnightblue" stroke="midnightblue" points="422.244,-16.5581 411.663,-17.0846 420.263,-23.2719 422.244,-16.5581"/>
</g>
<!-- Node13 -->
<g id="node14" class="node"><title>Node13</title>
<polygon fill="white" stroke="#bfbfbf" points="612.5,-0.5 612.5,-19.5 653.5,-19.5 653.5,-0.5 612.5,-0.5"/>
<text text-anchor="middle" x="633" y="-7.5" font-family="Helvetica,sans-Serif" font-size="10.00">bitset</text>
</g>
<!-- Node11&#45;&gt;Node13 -->
<g id="edge14" class="edge"><title>Node11&#45;&gt;Node13</title>
<path fill="none" stroke="midnightblue" d="M602.11,-56.083C607.282,-48.5341 614.846,-37.4948 621.194,-28.2298"/>
<polygon fill="midnightblue" stroke="midnightblue" points="624.239,-29.9787 627.004,-19.7511 618.464,-26.0221 624.239,-29.9787"/>
</g>
<!-- Node14 -->
<g id="node15" class="node"><title>Node14</title>
<polygon fill="white" stroke="#bfbfbf" points="739,-0.5 739,-19.5 783,-19.5 783,-0.5 739,-0.5"/>
<text text-anchor="middle" x="761" y="-7.5" font-family="Helvetica,sans-Serif" font-size="10.00">vector</text>
</g>
<!-- Node11&#45;&gt;Node14 -->
<g id="edge16" class="edge"><title>Node11&#45;&gt;Node14</title>
<path fill="none" stroke="midnightblue" d="M622.145,-56.4435C651.253,-46.9171 698.291,-31.5228 729.43,-21.3321"/>
<polygon fill="midnightblue" stroke="midnightblue" points="730.523,-24.6572 738.938,-18.2203 728.345,-18.0044 730.523,-24.6572"/>
</g>
<!-- Node15 -->
<g id="node16" class="node"><title>Node15</title>
<polygon fill="white" stroke="#bfbfbf" points="671.5,-0.5 671.5,-19.5 720.5,-19.5 720.5,-0.5 671.5,-0.5"/>
<text text-anchor="middle" x="696" y="-7.5" font-family="Helvetica,sans-Serif" font-size="10.00">cstddef</text>
</g>
<!-- Node11&#45;&gt;Node15 -->
<g id="edge18" class="edge"><title>Node11&#45;&gt;Node15</title>
<path fill="none" stroke="midnightblue" d="M612.067,-56.324C627.958,-47.7428 652.507,-34.486 670.958,-24.5224"/>
<polygon fill="midnightblue" stroke="midnightblue" points="672.837,-27.4857 679.973,-19.6545 669.511,-21.3264 672.837,-27.4857"/>
</g>
<!-- Node16 -->
<g id="node17" class="node"><title>Node16</title>
<polygon fill="white" stroke="#bfbfbf" points="430,-0.5 430,-19.5 528,-19.5 528,-0.5 430,-0.5"/>
<text text-anchor="middle" x="479" y="-7.5" font-family="Helvetica,sans-Serif" font-size="10.00">tr1/unordered_map</text>
</g>
<!-- Node11&#45;&gt;Node16 -->
<g id="edge19" class="edge"><title>Node11&#45;&gt;Node16</title>
<path fill="none" stroke="midnightblue" d="M577.461,-56.4435C558.377,-47.6356 528.425,-33.8116 506.564,-23.722"/>
<polygon fill="midnightblue" stroke="midnightblue" points="507.999,-20.5292 497.452,-19.5164 505.065,-26.8849 507.999,-20.5292"/>
</g>
<!-- Node17&#45;&gt;Node11 -->
<g id="edge22" class="edge"><title>Node17&#45;&gt;Node11</title>
<path fill="none" stroke="midnightblue" d="M543.961,-112.324C553.127,-104.341 566.937,-92.3128 578.028,-82.6529"/>
<polygon fill="midnightblue" stroke="midnightblue" points="580.615,-85.041 585.857,-75.8339 576.018,-79.7624 580.615,-85.041"/>
</g>
<!-- Node18 -->
<g id="node19" class="node"><title>Node18</title>
<polygon fill="white" stroke="#bfbfbf" points="433.5,-56.5 433.5,-75.5 478.5,-75.5 478.5,-56.5 433.5,-56.5"/>
<text text-anchor="middle" x="456" y="-63.5" font-family="Helvetica,sans-Serif" font-size="10.00">iosfwd</text>
</g>
<!-- Node17&#45;&gt;Node18 -->
<g id="edge21" class="edge"><title>Node17&#45;&gt;Node18</title>
<path fill="none" stroke="midnightblue" d="M521.468,-112.324C509.414,-103.979 490.973,-91.2122 476.731,-81.3524"/>
<polygon fill="midnightblue" stroke="midnightblue" points="478.715,-78.469 468.501,-75.6545 474.731,-84.2243 478.715,-78.469"/>
</g>
<!-- Node19&#45;&gt;Node12 -->
<g id="edge25" class="edge"><title>Node19&#45;&gt;Node12</title>
<path fill="none" stroke="midnightblue" d="M422.567,-112.368C417.542,-94.5366 405.92,-53.2953 399.149,-29.2717"/>
<polygon fill="midnightblue" stroke="midnightblue" points="402.503,-28.2671 396.421,-19.5914 395.765,-30.1659 402.503,-28.2671"/>
</g>
<!-- Node19&#45;&gt;Node18 -->
<g id="edge24" class="edge"><title>Node19&#45;&gt;Node18</title>
<path fill="none" stroke="midnightblue" d="M430.119,-112.083C434.408,-104.613 440.658,-93.7244 445.942,-84.5199"/>
<polygon fill="midnightblue" stroke="midnightblue" points="449.033,-86.1662 450.976,-75.7511 442.962,-82.6811 449.033,-86.1662"/>
</g>
<!-- Node20 -->
<g id="node21" class="node"><title>Node20</title>
<polygon fill="white" stroke="#bfbfbf" points="496.5,-56.5 496.5,-75.5 537.5,-75.5 537.5,-56.5 496.5,-56.5"/>
<text text-anchor="middle" x="517" y="-63.5" font-family="Helvetica,sans-Serif" font-size="10.00">string</text>
</g>
<!-- Node19&#45;&gt;Node20 -->
<g id="edge26" class="edge"><title>Node19&#45;&gt;Node20</title>
<path fill="none" stroke="midnightblue" d="M439.781,-112.324C454.267,-103.822 476.573,-90.7288 493.493,-80.7975"/>
<polygon fill="midnightblue" stroke="midnightblue" points="495.403,-83.735 502.255,-75.6545 491.859,-77.6981 495.403,-83.735"/>
</g>
<!-- Node21&#45;&gt;Node10 -->
<g id="edge31" class="edge"><title>Node21&#45;&gt;Node10</title>
<path fill="none" stroke="midnightblue" d="M806.834,-112.368C761.7,-93.0507 652.378,-46.2592 599.55,-23.6481"/>
<polygon fill="midnightblue" stroke="midnightblue" points="600.643,-20.3087 590.073,-19.5914 597.889,-26.744 600.643,-20.3087"/>
</g>
<!-- Node21&#45;&gt;Node11 -->
<g id="edge32" class="edge"><title>Node21&#45;&gt;Node11</title>
<path fill="none" stroke="midnightblue" d="M790.397,-112.444C750.269,-103.063 685.802,-87.9926 642.215,-77.8036"/>
<polygon fill="midnightblue" stroke="midnightblue" points="642.966,-74.3847 632.431,-75.5164 641.372,-81.2009 642.966,-74.3847"/>
</g>
<!-- Node21&#45;&gt;Node14 -->
<g id="edge30" class="edge"><title>Node21&#45;&gt;Node14</title>
<path fill="none" stroke="midnightblue" d="M809.717,-112.487C796.248,-104.878 778.318,-92.3998 769,-76 761.013,-61.944 759.431,-43.45 759.602,-29.7841"/>
<polygon fill="midnightblue" stroke="midnightblue" points="763.105,-29.7904 760.056,-19.6437 756.112,-29.477 763.105,-29.7904"/>
</g>
<!-- Node21&#45;&gt;Node22 -->
<g id="edge28" class="edge"><title>Node21&#45;&gt;Node22</title>
<path fill="none" stroke="midnightblue" d="M827,-112.083C827,-105.006 827,-94.8611 827,-85.9865"/>
<polygon fill="midnightblue" stroke="midnightblue" points="830.5,-85.751 827,-75.7511 823.5,-85.7511 830.5,-85.751"/>
</g>
<!-- Node21&#45;&gt;Node23 -->
<g id="edge29" class="edge"><title>Node21&#45;&gt;Node23</title>
<path fill="none" stroke="midnightblue" d="M846.965,-112.444C867.609,-103.596 900.063,-89.6875 923.632,-79.5865"/>
<polygon fill="midnightblue" stroke="midnightblue" points="925.316,-82.6727 933.128,-75.5164 922.558,-76.2387 925.316,-82.6727"/>
</g>
<!-- Node25 -->
<g id="node26" class="node"><title>Node25</title>
<polygon fill="white" stroke="#bfbfbf" points="1030.5,-56.5 1030.5,-75.5 1077.5,-75.5 1077.5,-56.5 1030.5,-56.5"/>
<text text-anchor="middle" x="1054" y="-63.5" font-family="Helvetica,sans-Serif" font-size="10.00">math.h</text>
</g>
<!-- Node24&#45;&gt;Node25 -->
<g id="edge34" class="edge"><title>Node24&#45;&gt;Node25</title>
<path fill="none" stroke="midnightblue" d="M1028.12,-112.083C1032.41,-104.613 1038.66,-93.7244 1043.94,-84.5199"/>
<polygon fill="midnightblue" stroke="midnightblue" points="1047.03,-86.1662 1048.98,-75.7511 1040.96,-82.6811 1047.03,-86.1662"/>
</g>
<!-- Node26&#45;&gt;Node7 -->
<g id="edge38" class="edge"><title>Node26&#45;&gt;Node7</title>
<path fill="none" stroke="midnightblue" d="M711.271,-168.324C700.163,-160.107 683.258,-147.602 670.017,-137.807"/>
<polygon fill="midnightblue" stroke="midnightblue" points="672.063,-134.967 661.942,-131.834 667.9,-140.595 672.063,-134.967"/>
</g>
<!-- Node26&#45;&gt;Node11 -->
<g id="edge36" class="edge"><title>Node26&#45;&gt;Node11</title>
<path fill="none" stroke="midnightblue" d="M725.015,-168.41C727.645,-154.925 730.555,-128.615 718,-112 700.878,-89.3414 671.123,-78.0853 645.286,-72.4969"/>
<polygon fill="midnightblue" stroke="midnightblue" points="645.724,-69.017 635.242,-70.5576 644.397,-75.8901 645.724,-69.017"/>
</g>
<!-- Node26&#45;&gt;Node20 -->
<g id="edge37" class="edge"><title>Node26&#45;&gt;Node20</title>
<path fill="none" stroke="midnightblue" d="M720.236,-168.377C715.288,-154.356 703.567,-126.708 684,-112 634.019,-74.4306 608.25,-92.7177 548,-76 547.791,-75.9419 547.581,-75.8836 547.37,-75.8249"/>
<polygon fill="midnightblue" stroke="midnightblue" points="548.233,-72.4317 537.658,-73.0715 546.324,-79.1663 548.233,-72.4317"/>
</g>
</g>
</svg>
