<?xml version="1.0" encoding="UTF-8" standalone="no"?>
<!DOCTYPE svg PUBLIC "-//W3C//DTD SVG 1.1//EN"
 "http://www.w3.org/Graphics/SVG/1.1/DTD/svg11.dtd">
<!-- Generated by graphviz version 2.38.0 (20140413.2041)
 -->
<!-- Title: /home/alejandro/Desarrollo eclipse/os1/Thirdparty/g2o/g2o/core/base_multi_edge.h Pages: 1 -->
<svg width="1327pt" height="330pt"
 viewBox="0.00 0.00 1327.00 330.00" xmlns="http://www.w3.org/2000/svg" xmlns:xlink="http://www.w3.org/1999/xlink">
<g id="graph0" class="graph" transform="scale(1 1) rotate(0) translate(4 326)">
<title>/home/alejandro/Desarrollo eclipse/os1/Thirdparty/g2o/g2o/core/base_multi_edge.h</title>
<polygon fill="white" stroke="none" points="-4,4 -4,-326 1323,-326 1323,4 -4,4"/>
<!-- Node0 -->
<g id="node1" class="node"><title>Node0</title>
<polygon fill="#bfbfbf" stroke="black" points="987,-280.5 987,-321.5 1148,-321.5 1148,-280.5 987,-280.5"/>
<text text-anchor="start" x="995" y="-309.5" font-family="Helvetica,sans-Serif" font-size="10.00">/home/alejandro/Desarrollo</text>
<text text-anchor="start" x="995" y="-298.5" font-family="Helvetica,sans-Serif" font-size="10.00"> eclipse/os1/Thirdparty</text>
<text text-anchor="middle" x="1067.5" y="-287.5" font-family="Helvetica,sans-Serif" font-size="10.00">/g2o/g2o/core/base_multi_edge.h</text>
</g>
<!-- Node1 -->
<g id="node2" class="node"><title>Node1</title>
<polygon fill="white" stroke="#bfbfbf" points="1061.5,-112.5 1061.5,-131.5 1115.5,-131.5 1115.5,-112.5 1061.5,-112.5"/>
<text text-anchor="middle" x="1088.5" y="-119.5" font-family="Helvetica,sans-Serif" font-size="10.00">iostream</text>
</g>
<!-- Node0&#45;&gt;Node1 -->
<g id="edge1" class="edge"><title>Node0&#45;&gt;Node1</title>
<path fill="none" stroke="midnightblue" d="M1070.01,-280.309C1071.36,-269.578 1073.05,-256.062 1074.5,-244 1078.86,-207.733 1083.71,-165.319 1086.41,-141.565"/>
<polygon fill="midnightblue" stroke="midnightblue" points="1089.9,-141.842 1087.54,-131.512 1082.94,-141.055 1089.9,-141.842"/>
</g>
<!-- Node2 -->
<g id="node3" class="node"><title>Node2</title>
<polygon fill="white" stroke="#bfbfbf" points="502.5,-224.5 502.5,-243.5 552.5,-243.5 552.5,-224.5 502.5,-224.5"/>
<text text-anchor="middle" x="527.5" y="-231.5" font-family="Helvetica,sans-Serif" font-size="10.00">iomanip</text>
</g>
<!-- Node0&#45;&gt;Node2 -->
<g id="edge2" class="edge"><title>Node0&#45;&gt;Node2</title>
<path fill="none" stroke="midnightblue" d="M986.77,-294.781C888.598,-287.602 717.822,-272.437 562.841,-243.997"/>
<polygon fill="midnightblue" stroke="midnightblue" points="563.127,-240.49 552.656,-242.105 561.848,-247.373 563.127,-240.49"/>
</g>
<!-- Node3 -->
<g id="node4" class="node"><title>Node3</title>
<polygon fill="white" stroke="#bfbfbf" points="994.5,-0.5 994.5,-19.5 1034.5,-19.5 1034.5,-0.5 994.5,-0.5"/>
<text text-anchor="middle" x="1014.5" y="-7.5" font-family="Helvetica,sans-Serif" font-size="10.00">limits</text>
</g>
<!-- Node0&#45;&gt;Node3 -->
<g id="edge3" class="edge"><title>Node0&#45;&gt;Node3</title>
<path fill="none" stroke="midnightblue" d="M1104.83,-280.428C1138.08,-260.005 1181.5,-224.602 1181.5,-179 1181.5,-179 1181.5,-179 1181.5,-121 1181.5,-89.1826 1175.25,-77.1677 1151.5,-56 1121.4,-29.1822 1074.97,-18.2975 1044.66,-13.9121"/>
<polygon fill="midnightblue" stroke="midnightblue" points="1045.03,-10.4309 1034.66,-12.6166 1044.13,-17.3728 1045.03,-10.4309"/>
</g>
<!-- Node4 -->
<g id="node5" class="node"><title>Node4</title>
<polygon fill="white" stroke="#bfbfbf" points="0,-56.5 0,-75.5 119,-75.5 119,-56.5 0,-56.5"/>
<text text-anchor="middle" x="59.5" y="-63.5" font-family="Helvetica,sans-Serif" font-size="10.00">eigen3/Eigen/StdVector</text>
</g>
<!-- Node0&#45;&gt;Node4 -->
<g id="edge4" class="edge"><title>Node0&#45;&gt;Node4</title>
<path fill="none" stroke="midnightblue" d="M986.965,-296.913C836.432,-289.454 503.322,-264.95 234.5,-188 163.679,-167.728 128.996,-185.635 78.5,-132 66.7991,-119.572 62.259,-100.334 60.5209,-86.0073"/>
<polygon fill="midnightblue" stroke="midnightblue" points="63.9868,-85.459 59.6444,-75.795 57.0124,-86.0577 63.9868,-85.459"/>
</g>
<!-- Node5 -->
<g id="node6" class="node"><title>Node5</title>
<g id="a_node6"><a xlink:href="base__edge_8h.html" target="_top" xlink:title="base_edge.h">
<polygon fill="white" stroke="black" points="993.5,-224.5 993.5,-243.5 1065.5,-243.5 1065.5,-224.5 993.5,-224.5"/>
<text text-anchor="middle" x="1029.5" y="-231.5" font-family="Helvetica,sans-Serif" font-size="10.00">base_edge.h</text>
</a>
</g>
</g>
<!-- Node0&#45;&gt;Node5 -->
<g id="edge5" class="edge"><title>Node0&#45;&gt;Node5</title>
<path fill="none" stroke="midnightblue" d="M1056.1,-280.498C1050.89,-271.586 1044.77,-261.113 1039.71,-252.464"/>
<polygon fill="midnightblue" stroke="midnightblue" points="1042.63,-250.519 1034.56,-243.652 1036.58,-254.052 1042.63,-250.519"/>
</g>
<!-- Node13 -->
<g id="node14" class="node"><title>Node13</title>
<g id="a_node14"><a xlink:href="config_8h.html" target="_top" xlink:title="../../config.h">
<polygon fill="white" stroke="black" points="1073,-56.5 1073,-75.5 1142,-75.5 1142,-56.5 1073,-56.5"/>
<text text-anchor="middle" x="1107.5" y="-63.5" font-family="Helvetica,sans-Serif" font-size="10.00">../../config.h</text>
</a>
</g>
</g>
<!-- Node0&#45;&gt;Node13 -->
<g id="edge46" class="edge"><title>Node0&#45;&gt;Node13</title>
<path fill="none" stroke="midnightblue" d="M1076.69,-280.401C1090.52,-249.625 1116,-187.718 1124.5,-132 1125.84,-123.213 1126.1,-120.744 1124.5,-112 1122.81,-102.757 1119.33,-92.9479 1115.95,-84.8546"/>
<polygon fill="midnightblue" stroke="midnightblue" points="1119.13,-83.4045 1111.87,-75.6928 1112.74,-86.2518 1119.13,-83.4045"/>
</g>
<!-- Node28 -->
<g id="node29" class="node"><title>Node28</title>
<g id="a_node29"><a xlink:href="robust__kernel_8h.html" target="_top" xlink:title="robust_kernel.h">
<polygon fill="white" stroke="black" points="571,-224.5 571,-243.5 654,-243.5 654,-224.5 571,-224.5"/>
<text text-anchor="middle" x="612.5" y="-231.5" font-family="Helvetica,sans-Serif" font-size="10.00">robust_kernel.h</text>
</a>
</g>
</g>
<!-- Node0&#45;&gt;Node28 -->
<g id="edge43" class="edge"><title>Node0&#45;&gt;Node28</title>
<path fill="none" stroke="midnightblue" d="M986.941,-288.492C893.749,-275.178 743.06,-253.651 664.265,-242.395"/>
<polygon fill="midnightblue" stroke="midnightblue" points="664.493,-238.892 654.098,-240.943 663.503,-245.822 664.493,-238.892"/>
</g>
<!-- Node30 -->
<g id="node31" class="node"><title>Node30</title>
<g id="a_node31"><a xlink:href="base__multi__edge_8hpp.html" target="_top" xlink:title="base_multi_edge.hpp">
<polygon fill="white" stroke="black" points="1210,-224.5 1210,-243.5 1319,-243.5 1319,-224.5 1210,-224.5"/>
<text text-anchor="middle" x="1264.5" y="-231.5" font-family="Helvetica,sans-Serif" font-size="10.00">base_multi_edge.hpp</text>
</a>
</g>
</g>
<!-- Node0&#45;&gt;Node30 -->
<g id="edge47" class="edge"><title>Node0&#45;&gt;Node30</title>
<path fill="none" stroke="midnightblue" d="M1126.61,-280.498C1159.96,-269.493 1200.53,-256.106 1229,-246.713"/>
<polygon fill="midnightblue" stroke="midnightblue" points="1230.14,-250.024 1238.54,-243.567 1227.94,-243.377 1230.14,-250.024"/>
</g>
<!-- Node5&#45;&gt;Node1 -->
<g id="edge6" class="edge"><title>Node5&#45;&gt;Node1</title>
<path fill="none" stroke="midnightblue" d="M1034.13,-224.368C1043.78,-206.376 1066.21,-164.55 1079.05,-140.627"/>
<polygon fill="midnightblue" stroke="midnightblue" points="1082.25,-142.058 1083.89,-131.591 1076.08,-138.749 1082.25,-142.058"/>
</g>
<!-- Node5&#45;&gt;Node3 -->
<g id="edge7" class="edge"><title>Node5&#45;&gt;Node3</title>
<path fill="none" stroke="midnightblue" d="M1028.91,-224.297C1026.7,-191.633 1018.88,-75.8661 1015.78,-29.9573"/>
<polygon fill="midnightblue" stroke="midnightblue" points="1019.27,-29.625 1015.1,-19.8837 1012.28,-30.097 1019.27,-29.625"/>
</g>
<!-- Node6 -->
<g id="node7" class="node"><title>Node6</title>
<polygon fill="white" stroke="#bfbfbf" points="214,-56.5 214,-75.5 311,-75.5 311,-56.5 214,-56.5"/>
<text text-anchor="middle" x="262.5" y="-63.5" font-family="Helvetica,sans-Serif" font-size="10.00">eigen3/Eigen/Core</text>
</g>
<!-- Node5&#45;&gt;Node6 -->
<g id="edge8" class="edge"><title>Node5&#45;&gt;Node6</title>
<path fill="none" stroke="midnightblue" d="M993.145,-231.286C864.893,-224.716 434.942,-198.119 316.5,-132 296.955,-121.089 281.525,-100.094 272.249,-84.9119"/>
<polygon fill="midnightblue" stroke="midnightblue" points="275.096,-82.8433 267.06,-75.9385 269.036,-86.3475 275.096,-82.8433"/>
</g>
<!-- Node7 -->
<g id="node8" class="node"><title>Node7</title>
<g id="a_node8"><a xlink:href="optimizable__graph_8h.html" target="_top" xlink:title="optimizable_graph.h">
<polygon fill="white" stroke="black" points="722.5,-168.5 722.5,-187.5 826.5,-187.5 826.5,-168.5 722.5,-168.5"/>
<text text-anchor="middle" x="774.5" y="-175.5" font-family="Helvetica,sans-Serif" font-size="10.00">optimizable_graph.h</text>
</a>
</g>
</g>
<!-- Node5&#45;&gt;Node7 -->
<g id="edge9" class="edge"><title>Node5&#45;&gt;Node7</title>
<path fill="none" stroke="midnightblue" d="M993.236,-225.32C949.112,-215.977 874.376,-200.15 824.732,-189.637"/>
<polygon fill="midnightblue" stroke="midnightblue" points="825.355,-186.192 814.847,-187.544 823.905,-193.04 825.355,-186.192"/>
</g>
<!-- Node7&#45;&gt;Node1 -->
<g id="edge11" class="edge"><title>Node7&#45;&gt;Node1</title>
<path fill="none" stroke="midnightblue" d="M824.254,-168.444C887.419,-157.581 994.948,-139.089 1051.39,-129.381"/>
<polygon fill="midnightblue" stroke="midnightblue" points="1052.05,-132.819 1061.32,-127.675 1050.87,-125.921 1052.05,-132.819"/>
</g>
<!-- Node7&#45;&gt;Node3 -->
<g id="edge13" class="edge"><title>Node7&#45;&gt;Node3</title>
<path fill="none" stroke="midnightblue" d="M826.761,-175.937C866.582,-172.563 920.66,-162.148 957.5,-132 989.892,-105.492 1004.93,-56.3256 1010.99,-29.5503"/>
<polygon fill="midnightblue" stroke="midnightblue" points="1014.45,-30.0804 1013.06,-19.5773 1007.6,-28.6557 1014.45,-30.0804"/>
</g>
<!-- Node8 -->
<g id="node9" class="node"><title>Node8</title>
<polygon fill="white" stroke="#bfbfbf" points="767.5,-0.5 767.5,-19.5 797.5,-19.5 797.5,-0.5 767.5,-0.5"/>
<text text-anchor="middle" x="782.5" y="-7.5" font-family="Helvetica,sans-Serif" font-size="10.00">set</text>
</g>
<!-- Node7&#45;&gt;Node8 -->
<g id="edge10" class="edge"><title>Node7&#45;&gt;Node8</title>
<path fill="none" stroke="midnightblue" d="M826.55,-169.659C869.264,-162.444 924.849,-149.901 938.5,-132 980.1,-77.4476 861.286,-34.2319 807.47,-17.9737"/>
<polygon fill="midnightblue" stroke="midnightblue" points="808.221,-14.5466 797.64,-15.0861 806.248,-21.2628 808.221,-14.5466"/>
</g>
<!-- Node9 -->
<g id="node10" class="node"><title>Node9</title>
<polygon fill="white" stroke="#bfbfbf" points="839,-112.5 839,-131.5 868,-131.5 868,-112.5 839,-112.5"/>
<text text-anchor="middle" x="853.5" y="-119.5" font-family="Helvetica,sans-Serif" font-size="10.00">list</text>
</g>
<!-- Node7&#45;&gt;Node9 -->
<g id="edge12" class="edge"><title>Node7&#45;&gt;Node9</title>
<path fill="none" stroke="midnightblue" d="M787.193,-168.324C799.401,-159.979 818.078,-147.212 832.503,-137.352"/>
<polygon fill="midnightblue" stroke="midnightblue" points="834.558,-140.187 840.839,-131.655 830.608,-134.408 834.558,-140.187"/>
</g>
<!-- Node10 -->
<g id="node11" class="node"><title>Node10</title>
<polygon fill="white" stroke="#bfbfbf" points="885.5,-112.5 885.5,-131.5 929.5,-131.5 929.5,-112.5 885.5,-112.5"/>
<text text-anchor="middle" x="907.5" y="-119.5" font-family="Helvetica,sans-Serif" font-size="10.00">cmath</text>
</g>
<!-- Node7&#45;&gt;Node10 -->
<g id="edge14" class="edge"><title>Node7&#45;&gt;Node10</title>
<path fill="none" stroke="midnightblue" d="M795.574,-168.444C817.56,-159.517 852.234,-145.439 877.164,-135.317"/>
<polygon fill="midnightblue" stroke="midnightblue" points="878.576,-138.521 886.524,-131.516 875.942,-132.035 878.576,-138.521"/>
</g>
<!-- Node11 -->
<g id="node12" class="node"><title>Node11</title>
<polygon fill="white" stroke="#bfbfbf" points="334,-112.5 334,-131.5 385,-131.5 385,-112.5 334,-112.5"/>
<text text-anchor="middle" x="359.5" y="-119.5" font-family="Helvetica,sans-Serif" font-size="10.00">typeinfo</text>
</g>
<!-- Node7&#45;&gt;Node11 -->
<g id="edge15" class="edge"><title>Node7&#45;&gt;Node11</title>
<path fill="none" stroke="midnightblue" d="M722.228,-173.038C650.599,-167.118 517.812,-154.39 394.982,-131.838"/>
<polygon fill="midnightblue" stroke="midnightblue" points="395.498,-128.374 385.026,-129.985 394.216,-135.256 395.498,-128.374"/>
</g>
<!-- Node12 -->
<g id="node13" class="node"><title>Node12</title>
<g id="a_node13"><a xlink:href="openmp__mutex_8h.html" target="_top" xlink:title="openmp_mutex.h">
<polygon fill="white" stroke="black" points="728.5,-112.5 728.5,-131.5 820.5,-131.5 820.5,-112.5 728.5,-112.5"/>
<text text-anchor="middle" x="774.5" y="-119.5" font-family="Helvetica,sans-Serif" font-size="10.00">openmp_mutex.h</text>
</a>
</g>
</g>
<!-- Node7&#45;&gt;Node12 -->
<g id="edge16" class="edge"><title>Node7&#45;&gt;Node12</title>
<path fill="none" stroke="midnightblue" d="M774.5,-168.083C774.5,-161.006 774.5,-150.861 774.5,-141.986"/>
<polygon fill="midnightblue" stroke="midnightblue" points="778,-141.751 774.5,-131.751 771,-141.751 778,-141.751"/>
</g>
<!-- Node15 -->
<g id="node16" class="node"><title>Node15</title>
<g id="a_node16"><a xlink:href="hyper__graph_8h.html" target="_top" xlink:title="hyper_graph.h">
<polygon fill="white" stroke="black" points="342.5,-56.5 342.5,-75.5 420.5,-75.5 420.5,-56.5 342.5,-56.5"/>
<text text-anchor="middle" x="381.5" y="-63.5" font-family="Helvetica,sans-Serif" font-size="10.00">hyper_graph.h</text>
</a>
</g>
</g>
<!-- Node7&#45;&gt;Node15 -->
<g id="edge19" class="edge"><title>Node7&#45;&gt;Node15</title>
<path fill="none" stroke="midnightblue" d="M722.257,-175.635C609.385,-172.145 350.776,-161.035 324.5,-132 308.656,-114.492 333.813,-93.9546 355.56,-80.7234"/>
<polygon fill="midnightblue" stroke="midnightblue" points="357.339,-83.7377 364.239,-75.6976 353.831,-77.6801 357.339,-83.7377"/>
</g>
<!-- Node21 -->
<g id="node22" class="node"><title>Node21</title>
<g id="a_node22"><a xlink:href="parameter_8h.html" target="_top" xlink:title="parameter.h">
<polygon fill="white" stroke="black" points="403.5,-112.5 403.5,-131.5 471.5,-131.5 471.5,-112.5 403.5,-112.5"/>
<text text-anchor="middle" x="437.5" y="-119.5" font-family="Helvetica,sans-Serif" font-size="10.00">parameter.h</text>
</a>
</g>
</g>
<!-- Node7&#45;&gt;Node21 -->
<g id="edge28" class="edge"><title>Node7&#45;&gt;Node21</title>
<path fill="none" stroke="midnightblue" d="M722.312,-169.887C665.551,-161.955 571.917,-148.302 481.847,-132.166"/>
<polygon fill="midnightblue" stroke="midnightblue" points="482.197,-128.672 471.735,-130.341 480.954,-135.561 482.197,-128.672"/>
</g>
<!-- Node23 -->
<g id="node24" class="node"><title>Node23</title>
<g id="a_node24"><a xlink:href="parameter__container_8h.html" target="_top" xlink:title="parameter_container.h">
<polygon fill="white" stroke="black" points="490,-112.5 490,-131.5 603,-131.5 603,-112.5 490,-112.5"/>
<text text-anchor="middle" x="546.5" y="-119.5" font-family="Helvetica,sans-Serif" font-size="10.00">parameter_container.h</text>
</a>
</g>
</g>
<!-- Node7&#45;&gt;Node23 -->
<g id="edge31" class="edge"><title>Node7&#45;&gt;Node23</title>
<path fill="none" stroke="midnightblue" d="M738.373,-168.444C698.849,-159.083 635.403,-144.056 592.387,-133.868"/>
<polygon fill="midnightblue" stroke="midnightblue" points="592.996,-130.415 582.458,-131.516 591.382,-137.227 592.996,-130.415"/>
</g>
<!-- Node25 -->
<g id="node26" class="node"><title>Node25</title>
<g id="a_node26"><a xlink:href="jacobian__workspace_8h.html" target="_top" xlink:title="jacobian_workspace.h">
<polygon fill="white" stroke="black" points="88,-112.5 88,-131.5 201,-131.5 201,-112.5 88,-112.5"/>
<text text-anchor="middle" x="144.5" y="-119.5" font-family="Helvetica,sans-Serif" font-size="10.00">jacobian_workspace.h</text>
</a>
</g>
</g>
<!-- Node7&#45;&gt;Node25 -->
<g id="edge35" class="edge"><title>Node7&#45;&gt;Node25</title>
<path fill="none" stroke="midnightblue" d="M722.408,-172.535C608.571,-162.778 337.729,-139.562 211.455,-128.739"/>
<polygon fill="midnightblue" stroke="midnightblue" points="211.417,-125.223 201.155,-127.856 210.819,-132.197 211.417,-125.223"/>
</g>
<!-- Node26 -->
<g id="node27" class="node"><title>Node26</title>
<g id="a_node27"><a xlink:href="macros_8h.html" target="_top" xlink:title="../stuff/macros.h">
<polygon fill="white" stroke="black" points="621,-112.5 621,-131.5 710,-131.5 710,-112.5 621,-112.5"/>
<text text-anchor="middle" x="665.5" y="-119.5" font-family="Helvetica,sans-Serif" font-size="10.00">../stuff/macros.h</text>
</a>
</g>
</g>
<!-- Node7&#45;&gt;Node26 -->
<g id="edge41" class="edge"><title>Node7&#45;&gt;Node26</title>
<path fill="none" stroke="midnightblue" d="M756.987,-168.324C739.428,-159.625 712.169,-146.12 691.969,-136.113"/>
<polygon fill="midnightblue" stroke="midnightblue" points="693.484,-132.958 682.969,-131.655 690.376,-139.23 693.484,-132.958"/>
</g>
<!-- Node12&#45;&gt;Node13 -->
<g id="edge17" class="edge"><title>Node12&#45;&gt;Node13</title>
<path fill="none" stroke="midnightblue" d="M820.713,-113.432C823.686,-112.947 826.635,-112.466 829.5,-112 911.784,-98.6081 1007.79,-83.0923 1062.73,-74.2229"/>
<polygon fill="midnightblue" stroke="midnightblue" points="1063.51,-77.6421 1072.82,-72.5932 1062.39,-70.7315 1063.51,-77.6421"/>
</g>
<!-- Node14 -->
<g id="node15" class="node"><title>Node14</title>
<polygon fill="white" stroke="#bfbfbf" points="448,-0.5 448,-19.5 497,-19.5 497,-0.5 448,-0.5"/>
<text text-anchor="middle" x="472.5" y="-7.5" font-family="Helvetica,sans-Serif" font-size="10.00">cassert</text>
</g>
<!-- Node12&#45;&gt;Node14 -->
<g id="edge18" class="edge"><title>Node12&#45;&gt;Node14</title>
<path fill="none" stroke="midnightblue" d="M766.97,-112.208C754.223,-97.9444 726.895,-69.9545 697.5,-56 621.903,-20.1124 592.273,-38.0197 507.127,-20.1619"/>
<polygon fill="midnightblue" stroke="midnightblue" points="507.831,-16.7331 497.312,-17.998 506.324,-23.5689 507.831,-16.7331"/>
</g>
<!-- Node15&#45;&gt;Node3 -->
<g id="edge25" class="edge"><title>Node15&#45;&gt;Node3</title>
<path fill="none" stroke="midnightblue" d="M420.756,-58.4961C427.015,-57.5782 433.427,-56.7078 439.5,-56 647.188,-31.7947 898.639,-17.1365 984.27,-12.5556"/>
<polygon fill="midnightblue" stroke="midnightblue" points="984.53,-16.0468 994.331,-12.0232 984.16,-9.05661 984.53,-16.0468"/>
</g>
<!-- Node15&#45;&gt;Node8 -->
<g id="edge21" class="edge"><title>Node15&#45;&gt;Node8</title>
<path fill="none" stroke="midnightblue" d="M420.792,-58.7751C427.046,-57.8212 433.448,-56.8665 439.5,-56 558.22,-39.0037 700.427,-21.1425 757.245,-14.1071"/>
<polygon fill="midnightblue" stroke="midnightblue" points="757.942,-17.5476 767.438,-12.8478 757.084,-10.6005 757.942,-17.5476"/>
</g>
<!-- Node15&#45;&gt;Node14 -->
<g id="edge23" class="edge"><title>Node15&#45;&gt;Node14</title>
<path fill="none" stroke="midnightblue" d="M396.121,-56.324C410.449,-47.8215 432.513,-34.7288 449.249,-24.7975"/>
<polygon fill="midnightblue" stroke="midnightblue" points="451.102,-27.7677 457.916,-19.6545 447.53,-21.7478 451.102,-27.7677"/>
</g>
<!-- Node16 -->
<g id="node17" class="node"><title>Node16</title>
<polygon fill="white" stroke="#bfbfbf" points="515,-0.5 515,-19.5 550,-19.5 550,-0.5 515,-0.5"/>
<text text-anchor="middle" x="532.5" y="-7.5" font-family="Helvetica,sans-Serif" font-size="10.00">map</text>
</g>
<!-- Node15&#45;&gt;Node16 -->
<g id="edge20" class="edge"><title>Node15&#45;&gt;Node16</title>
<path fill="none" stroke="midnightblue" d="M405.426,-56.4435C432.534,-46.7494 476.632,-30.9792 505.099,-20.799"/>
<polygon fill="midnightblue" stroke="midnightblue" points="506.582,-23.986 514.819,-17.323 504.225,-17.3947 506.582,-23.986"/>
</g>
<!-- Node17 -->
<g id="node18" class="node"><title>Node17</title>
<polygon fill="white" stroke="#bfbfbf" points="207,-0.5 207,-19.5 248,-19.5 248,-0.5 207,-0.5"/>
<text text-anchor="middle" x="227.5" y="-7.5" font-family="Helvetica,sans-Serif" font-size="10.00">bitset</text>
</g>
<!-- Node15&#45;&gt;Node17 -->
<g id="edge22" class="edge"><title>Node15&#45;&gt;Node17</title>
<path fill="none" stroke="midnightblue" d="M357.098,-56.4435C330.241,-47.0262 287.031,-31.8746 257.97,-21.6842"/>
<polygon fill="midnightblue" stroke="midnightblue" points="258.925,-18.3104 248.33,-18.3042 256.609,-24.916 258.925,-18.3104"/>
</g>
<!-- Node18 -->
<g id="node19" class="node"><title>Node18</title>
<polygon fill="white" stroke="#bfbfbf" points="134.5,-0.5 134.5,-19.5 178.5,-19.5 178.5,-0.5 134.5,-0.5"/>
<text text-anchor="middle" x="156.5" y="-7.5" font-family="Helvetica,sans-Serif" font-size="10.00">vector</text>
</g>
<!-- Node15&#45;&gt;Node18 -->
<g id="edge24" class="edge"><title>Node15&#45;&gt;Node18</title>
<path fill="none" stroke="midnightblue" d="M345.848,-56.4435C302.554,-46.0529 230.173,-28.6816 188.565,-18.6955"/>
<polygon fill="midnightblue" stroke="midnightblue" points="189.226,-15.255 178.686,-16.3245 187.593,-22.0617 189.226,-15.255"/>
</g>
<!-- Node19 -->
<g id="node20" class="node"><title>Node19</title>
<polygon fill="white" stroke="#bfbfbf" points="266,-0.5 266,-19.5 315,-19.5 315,-0.5 266,-0.5"/>
<text text-anchor="middle" x="290.5" y="-7.5" font-family="Helvetica,sans-Serif" font-size="10.00">cstddef</text>
</g>
<!-- Node15&#45;&gt;Node19 -->
<g id="edge26" class="edge"><title>Node15&#45;&gt;Node19</title>
<path fill="none" stroke="midnightblue" d="M366.879,-56.324C352.551,-47.8215 330.487,-34.7288 313.751,-24.7975"/>
<polygon fill="midnightblue" stroke="midnightblue" points="315.47,-21.7478 305.084,-19.6545 311.898,-27.7677 315.47,-21.7478"/>
</g>
<!-- Node20 -->
<g id="node21" class="node"><title>Node20</title>
<polygon fill="white" stroke="#bfbfbf" points="332.5,-0.5 332.5,-19.5 430.5,-19.5 430.5,-0.5 332.5,-0.5"/>
<text text-anchor="middle" x="381.5" y="-7.5" font-family="Helvetica,sans-Serif" font-size="10.00">tr1/unordered_map</text>
</g>
<!-- Node15&#45;&gt;Node20 -->
<g id="edge27" class="edge"><title>Node15&#45;&gt;Node20</title>
<path fill="none" stroke="midnightblue" d="M381.5,-56.083C381.5,-49.0059 381.5,-38.8611 381.5,-29.9865"/>
<polygon fill="midnightblue" stroke="midnightblue" points="385,-29.751 381.5,-19.7511 378,-29.7511 385,-29.751"/>
</g>
<!-- Node21&#45;&gt;Node15 -->
<g id="edge30" class="edge"><title>Node21&#45;&gt;Node15</title>
<path fill="none" stroke="midnightblue" d="M428.503,-112.324C420.306,-104.42 407.994,-92.5482 398.028,-82.9377"/>
<polygon fill="midnightblue" stroke="midnightblue" points="400.289,-80.2558 390.661,-75.8339 395.43,-85.2947 400.289,-80.2558"/>
</g>
<!-- Node22 -->
<g id="node23" class="node"><title>Node22</title>
<polygon fill="white" stroke="#bfbfbf" points="449,-56.5 449,-75.5 494,-75.5 494,-56.5 449,-56.5"/>
<text text-anchor="middle" x="471.5" y="-63.5" font-family="Helvetica,sans-Serif" font-size="10.00">iosfwd</text>
</g>
<!-- Node21&#45;&gt;Node22 -->
<g id="edge29" class="edge"><title>Node21&#45;&gt;Node22</title>
<path fill="none" stroke="midnightblue" d="M443.114,-112.083C447.867,-104.534 454.818,-93.4948 460.652,-84.2298"/>
<polygon fill="midnightblue" stroke="midnightblue" points="463.624,-86.0783 465.99,-75.7511 457.7,-82.3486 463.624,-86.0783"/>
</g>
<!-- Node23&#45;&gt;Node16 -->
<g id="edge33" class="edge"><title>Node23&#45;&gt;Node16</title>
<path fill="none" stroke="midnightblue" d="M545.401,-112.368C543.142,-94.617 537.93,-53.6664 534.867,-29.5974"/>
<polygon fill="midnightblue" stroke="midnightblue" points="538.328,-29.0695 533.593,-19.5914 531.384,-29.9533 538.328,-29.0695"/>
</g>
<!-- Node23&#45;&gt;Node22 -->
<g id="edge32" class="edge"><title>Node23&#45;&gt;Node22</title>
<path fill="none" stroke="midnightblue" d="M534.45,-112.324C523.037,-104.107 505.669,-91.6017 492.065,-81.8069"/>
<polygon fill="midnightblue" stroke="midnightblue" points="493.93,-78.8366 483.769,-75.8339 489.84,-84.5174 493.93,-78.8366"/>
</g>
<!-- Node24 -->
<g id="node25" class="node"><title>Node24</title>
<polygon fill="white" stroke="#bfbfbf" points="561,-56.5 561,-75.5 602,-75.5 602,-56.5 561,-56.5"/>
<text text-anchor="middle" x="581.5" y="-63.5" font-family="Helvetica,sans-Serif" font-size="10.00">string</text>
</g>
<!-- Node23&#45;&gt;Node24 -->
<g id="edge34" class="edge"><title>Node23&#45;&gt;Node24</title>
<path fill="none" stroke="midnightblue" d="M552.28,-112.083C557.172,-104.534 564.327,-93.4948 570.333,-84.2298"/>
<polygon fill="midnightblue" stroke="midnightblue" points="573.326,-86.0463 575.828,-75.7511 567.452,-82.239 573.326,-86.0463"/>
</g>
<!-- Node25&#45;&gt;Node4 -->
<g id="edge37" class="edge"><title>Node25&#45;&gt;Node4</title>
<path fill="none" stroke="midnightblue" d="M130.843,-112.324C117.584,-103.9 97.232,-90.9709 81.6538,-81.0741"/>
<polygon fill="midnightblue" stroke="midnightblue" points="83.4404,-78.0626 73.1228,-75.6545 79.6867,-83.9711 83.4404,-78.0626"/>
</g>
<!-- Node25&#45;&gt;Node6 -->
<g id="edge36" class="edge"><title>Node25&#45;&gt;Node6</title>
<path fill="none" stroke="midnightblue" d="M163.197,-112.444C182.444,-103.636 212.652,-89.8116 234.7,-79.722"/>
<polygon fill="midnightblue" stroke="midnightblue" points="236.253,-82.8603 243.89,-75.5164 233.34,-76.4951 236.253,-82.8603"/>
</g>
<!-- Node25&#45;&gt;Node14 -->
<g id="edge39" class="edge"><title>Node25&#45;&gt;Node14</title>
<path fill="none" stroke="midnightblue" d="M149.848,-112.086C159.034,-97.6469 179.279,-69.4104 204.5,-56 294.97,-7.89592 333.767,-39.8627 437.773,-20.0945"/>
<polygon fill="midnightblue" stroke="midnightblue" points="438.599,-23.4984 447.708,-18.0878 437.213,-16.637 438.599,-23.4984"/>
</g>
<!-- Node25&#45;&gt;Node15 -->
<g id="edge40" class="edge"><title>Node25&#45;&gt;Node15</title>
<path fill="none" stroke="midnightblue" d="M182.053,-112.444C223.311,-103.043 289.644,-87.9291 334.366,-77.7393"/>
<polygon fill="midnightblue" stroke="midnightblue" points="335.15,-81.1506 344.122,-75.5164 333.595,-74.3255 335.15,-81.1506"/>
</g>
<!-- Node25&#45;&gt;Node18 -->
<g id="edge38" class="edge"><title>Node25&#45;&gt;Node18</title>
<path fill="none" stroke="midnightblue" d="M145.442,-112.368C147.378,-94.617 151.845,-53.6664 154.471,-29.5974"/>
<polygon fill="midnightblue" stroke="midnightblue" points="157.958,-29.912 155.563,-19.5914 150.999,-29.1528 157.958,-29.912"/>
</g>
<!-- Node27 -->
<g id="node28" class="node"><title>Node27</title>
<polygon fill="white" stroke="#bfbfbf" points="642,-56.5 642,-75.5 689,-75.5 689,-56.5 642,-56.5"/>
<text text-anchor="middle" x="665.5" y="-63.5" font-family="Helvetica,sans-Serif" font-size="10.00">math.h</text>
</g>
<!-- Node26&#45;&gt;Node27 -->
<g id="edge42" class="edge"><title>Node26&#45;&gt;Node27</title>
<path fill="none" stroke="midnightblue" d="M665.5,-112.083C665.5,-105.006 665.5,-94.8611 665.5,-85.9865"/>
<polygon fill="midnightblue" stroke="midnightblue" points="669,-85.751 665.5,-75.7511 662,-85.7511 669,-85.751"/>
</g>
<!-- Node28&#45;&gt;Node6 -->
<g id="edge45" class="edge"><title>Node28&#45;&gt;Node6</title>
<path fill="none" stroke="midnightblue" d="M570.784,-225.428C567.646,-224.923 564.525,-224.44 561.5,-224 492.217,-213.912 295.093,-240.259 248.5,-188 223.031,-159.434 240.569,-110.785 253.035,-84.7249"/>
<polygon fill="midnightblue" stroke="midnightblue" points="256.239,-86.1452 257.62,-75.6407 249.99,-82.9916 256.239,-86.1452"/>
</g>
<!-- Node29 -->
<g id="node30" class="node"><title>Node29</title>
<polygon fill="white" stroke="#bfbfbf" points="257.5,-168.5 257.5,-187.5 323.5,-187.5 323.5,-168.5 257.5,-168.5"/>
<text text-anchor="middle" x="290.5" y="-175.5" font-family="Helvetica,sans-Serif" font-size="10.00">tr1/memory</text>
</g>
<!-- Node28&#45;&gt;Node29 -->
<g id="edge44" class="edge"><title>Node28&#45;&gt;Node29</title>
<path fill="none" stroke="midnightblue" d="M570.76,-225.581C567.628,-225.04 564.514,-224.508 561.5,-224 462.07,-207.238 436.806,-205.484 337.5,-188 336.234,-187.777 334.95,-187.548 333.654,-187.315"/>
<polygon fill="midnightblue" stroke="midnightblue" points="334.069,-183.833 323.601,-185.467 332.803,-190.718 334.069,-183.833"/>
</g>
</g>
</svg>
