<?xml version="1.0" encoding="UTF-8" standalone="no"?>
<!DOCTYPE svg PUBLIC "-//W3C//DTD SVG 1.1//EN"
 "http://www.w3.org/Graphics/SVG/1.1/DTD/svg11.dtd">
<!-- Generated by graphviz version 2.38.0 (20140413.2041)
 -->
<!-- Title: /home/alejandro/Desarrollo eclipse/os1/Thirdparty/g2o/g2o/core/batch_stats.h Pages: 1 -->
<svg width="1569pt" height="406pt"
 viewBox="0.00 0.00 1568.83 406.00" xmlns="http://www.w3.org/2000/svg" xmlns:xlink="http://www.w3.org/1999/xlink">
<g id="graph0" class="graph" transform="scale(1 1) rotate(0) translate(4 402)">
<title>/home/alejandro/Desarrollo eclipse/os1/Thirdparty/g2o/g2o/core/batch_stats.h</title>
<polygon fill="white" stroke="none" points="-4,4 -4,-402 1564.83,-402 1564.83,4 -4,4"/>
<!-- Node3 -->
<g id="node1" class="node"><title>Node3</title>
<polygon fill="#bfbfbf" stroke="black" points="687.328,-356.5 687.328,-397.5 825.328,-397.5 825.328,-356.5 687.328,-356.5"/>
<text text-anchor="start" x="695.328" y="-385.5" font-family="Helvetica,sans-Serif" font-size="10.00">/home/alejandro/Desarrollo</text>
<text text-anchor="start" x="695.328" y="-374.5" font-family="Helvetica,sans-Serif" font-size="10.00"> eclipse/os1/Thirdparty</text>
<text text-anchor="middle" x="756.328" y="-363.5" font-family="Helvetica,sans-Serif" font-size="10.00">/g2o/g2o/core/batch_stats.h</text>
</g>
<!-- Node4 -->
<g id="node2" class="node"><title>Node4</title>
<g id="a_node2"><a xlink:href="solver_8h.html" target="_top" xlink:title="/home/alejandro/Desarrollo\l eclipse/os1/Thirdparty\l/g2o/g2o/core/solver.h">
<polygon fill="white" stroke="black" points="257.828,-273 257.828,-314 390.828,-314 390.828,-273 257.828,-273"/>
<text text-anchor="start" x="265.828" y="-302" font-family="Helvetica,sans-Serif" font-size="10.00">/home/alejandro/Desarrollo</text>
<text text-anchor="start" x="265.828" y="-291" font-family="Helvetica,sans-Serif" font-size="10.00"> eclipse/os1/Thirdparty</text>
<text text-anchor="middle" x="324.328" y="-280" font-family="Helvetica,sans-Serif" font-size="10.00">/g2o/g2o/core/solver.h</text>
</a>
</g>
</g>
<!-- Node3&#45;&gt;Node4 -->
<g id="edge1" class="edge"><title>Node3&#45;&gt;Node4</title>
<path fill="none" stroke="midnightblue" d="M676.89,-361.013C594.817,-345.53 468.149,-321.633 391.079,-307.093"/>
<polygon fill="midnightblue" stroke="midnightblue" points="676.445,-364.491 686.92,-362.906 677.742,-357.612 676.445,-364.491"/>
</g>
<!-- Node7 -->
<g id="node5" class="node"><title>Node7</title>
<g id="a_node5"><a xlink:href="optimization__algorithm__dogleg_8cpp.html" target="_top" xlink:title="/home/alejandro/Desarrollo\l eclipse/os1/Thirdparty\l/g2o/g2o/core/optimization\l_algorithm_dogleg.cpp">
<polygon fill="white" stroke="black" points="302.828,-0.5 302.828,-52.5 435.828,-52.5 435.828,-0.5 302.828,-0.5"/>
<text text-anchor="start" x="310.828" y="-40.5" font-family="Helvetica,sans-Serif" font-size="10.00">/home/alejandro/Desarrollo</text>
<text text-anchor="start" x="310.828" y="-29.5" font-family="Helvetica,sans-Serif" font-size="10.00"> eclipse/os1/Thirdparty</text>
<text text-anchor="start" x="310.828" y="-18.5" font-family="Helvetica,sans-Serif" font-size="10.00">/g2o/g2o/core/optimization</text>
<text text-anchor="middle" x="369.328" y="-7.5" font-family="Helvetica,sans-Serif" font-size="10.00">_algorithm_dogleg.cpp</text>
</a>
</g>
</g>
<!-- Node3&#45;&gt;Node7 -->
<g id="edge27" class="edge"><title>Node3&#45;&gt;Node7</title>
<path fill="none" stroke="midnightblue" d="M676.826,-373.747C501.192,-366.81 89.7621,-339.111 15.3284,-231 -62.4594,-118.018 179.595,-59.5685 302.421,-37.7632"/>
<polygon fill="midnightblue" stroke="midnightblue" points="676.91,-377.253 687.037,-374.137 677.178,-370.258 676.91,-377.253"/>
</g>
<!-- Node8 -->
<g id="node6" class="node"><title>Node8</title>
<g id="a_node6"><a xlink:href="optimization__algorithm__gauss__newton_8cpp.html" target="_top" xlink:title="/home/alejandro/Desarrollo\l eclipse/os1/Thirdparty\l/g2o/g2o/core/optimization\l_algorithm_gauss_newton.cpp">
<polygon fill="white" stroke="black" points="413.828,-178.5 413.828,-230.5 562.828,-230.5 562.828,-178.5 413.828,-178.5"/>
<text text-anchor="start" x="421.828" y="-218.5" font-family="Helvetica,sans-Serif" font-size="10.00">/home/alejandro/Desarrollo</text>
<text text-anchor="start" x="421.828" y="-207.5" font-family="Helvetica,sans-Serif" font-size="10.00"> eclipse/os1/Thirdparty</text>
<text text-anchor="start" x="421.828" y="-196.5" font-family="Helvetica,sans-Serif" font-size="10.00">/g2o/g2o/core/optimization</text>
<text text-anchor="middle" x="488.328" y="-185.5" font-family="Helvetica,sans-Serif" font-size="10.00">_algorithm_gauss_newton.cpp</text>
</a>
</g>
</g>
<!-- Node3&#45;&gt;Node8 -->
<g id="edge28" class="edge"><title>Node3&#45;&gt;Node8</title>
<path fill="none" stroke="midnightblue" d="M703.709,-351.973C684.623,-342.668 663.141,-331.493 644.328,-320 598.888,-292.24 549.915,-254.963 519.203,-230.595"/>
<polygon fill="midnightblue" stroke="midnightblue" points="702.335,-355.196 712.863,-356.384 705.374,-348.89 702.335,-355.196"/>
</g>
<!-- Node9 -->
<g id="node7" class="node"><title>Node9</title>
<g id="a_node7"><a xlink:href="optimization__algorithm__levenberg_8cpp.html" target="_top" xlink:title="/home/alejandro/Desarrollo\l eclipse/os1/Thirdparty\l/g2o/g2o/core/optimization\l_algorithm_levenberg.cpp">
<polygon fill="white" stroke="black" points="580.828,-178.5 580.828,-230.5 713.828,-230.5 713.828,-178.5 580.828,-178.5"/>
<text text-anchor="start" x="588.828" y="-218.5" font-family="Helvetica,sans-Serif" font-size="10.00">/home/alejandro/Desarrollo</text>
<text text-anchor="start" x="588.828" y="-207.5" font-family="Helvetica,sans-Serif" font-size="10.00"> eclipse/os1/Thirdparty</text>
<text text-anchor="start" x="588.828" y="-196.5" font-family="Helvetica,sans-Serif" font-size="10.00">/g2o/g2o/core/optimization</text>
<text text-anchor="middle" x="647.328" y="-185.5" font-family="Helvetica,sans-Serif" font-size="10.00">_algorithm_levenberg.cpp</text>
</a>
</g>
</g>
<!-- Node3&#45;&gt;Node9 -->
<g id="edge29" class="edge"><title>Node3&#45;&gt;Node9</title>
<path fill="none" stroke="midnightblue" d="M699.768,-350.961C686.982,-342.814 674.722,-332.554 666.328,-320 648.521,-293.365 645.505,-255.647 645.775,-230.887"/>
<polygon fill="midnightblue" stroke="midnightblue" points="698.281,-354.149 708.662,-356.265 701.867,-348.137 698.281,-354.149"/>
</g>
<!-- Node12 -->
<g id="node10" class="node"><title>Node12</title>
<g id="a_node10"><a xlink:href="sparse__optimizer_8h.html" target="_top" xlink:title="/home/alejandro/Desarrollo\l eclipse/os1/Thirdparty\l/g2o/g2o/core/sparse_optimizer.h">
<polygon fill="white" stroke="black" points="675.828,-273 675.828,-314 836.828,-314 836.828,-273 675.828,-273"/>
<text text-anchor="start" x="683.828" y="-302" font-family="Helvetica,sans-Serif" font-size="10.00">/home/alejandro/Desarrollo</text>
<text text-anchor="start" x="683.828" y="-291" font-family="Helvetica,sans-Serif" font-size="10.00"> eclipse/os1/Thirdparty</text>
<text text-anchor="middle" x="756.328" y="-280" font-family="Helvetica,sans-Serif" font-size="10.00">/g2o/g2o/core/sparse_optimizer.h</text>
</a>
</g>
</g>
<!-- Node3&#45;&gt;Node12 -->
<g id="edge10" class="edge"><title>Node3&#45;&gt;Node12</title>
<path fill="none" stroke="midnightblue" d="M756.328,-346.065C756.328,-335.382 756.328,-323.63 756.328,-314.047"/>
<polygon fill="midnightblue" stroke="midnightblue" points="752.828,-346.271 756.328,-356.271 759.828,-346.271 752.828,-346.271"/>
</g>
<!-- Node17 -->
<g id="node15" class="node"><title>Node17</title>
<g id="a_node15"><a xlink:href="sparse__optimizer_8cpp.html" target="_top" xlink:title="/home/alejandro/Desarrollo\l eclipse/os1/Thirdparty\l/g2o/g2o/core/sparse_optimizer.cpp">
<polygon fill="white" stroke="black" points="1096.33,-95 1096.33,-136 1268.33,-136 1268.33,-95 1096.33,-95"/>
<text text-anchor="start" x="1104.33" y="-124" font-family="Helvetica,sans-Serif" font-size="10.00">/home/alejandro/Desarrollo</text>
<text text-anchor="start" x="1104.33" y="-113" font-family="Helvetica,sans-Serif" font-size="10.00"> eclipse/os1/Thirdparty</text>
<text text-anchor="middle" x="1182.33" y="-102" font-family="Helvetica,sans-Serif" font-size="10.00">/g2o/g2o/core/sparse_optimizer.cpp</text>
</a>
</g>
</g>
<!-- Node3&#45;&gt;Node17 -->
<g id="edge30" class="edge"><title>Node3&#45;&gt;Node17</title>
<path fill="none" stroke="midnightblue" d="M835.625,-370.141C927.626,-358.924 1077.17,-326.237 1159.33,-231 1182.24,-204.441 1184.69,-161.488 1183.87,-136.428"/>
<polygon fill="midnightblue" stroke="midnightblue" points="835.057,-366.684 825.528,-371.314 835.865,-373.637 835.057,-366.684"/>
</g>
<!-- Node18 -->
<g id="node16" class="node"><title>Node18</title>
<g id="a_node16"><a xlink:href="linear__solver__eigen_8h.html" target="_top" xlink:title="/home/alejandro/Desarrollo\l eclipse/os1/Thirdparty\l/g2o/g2o/solvers/linear_solver\l_eigen.h">
<polygon fill="white" stroke="black" points="1324.33,-89.5 1324.33,-141.5 1470.33,-141.5 1470.33,-89.5 1324.33,-89.5"/>
<text text-anchor="start" x="1332.33" y="-129.5" font-family="Helvetica,sans-Serif" font-size="10.00">/home/alejandro/Desarrollo</text>
<text text-anchor="start" x="1332.33" y="-118.5" font-family="Helvetica,sans-Serif" font-size="10.00"> eclipse/os1/Thirdparty</text>
<text text-anchor="start" x="1332.33" y="-107.5" font-family="Helvetica,sans-Serif" font-size="10.00">/g2o/g2o/solvers/linear_solver</text>
<text text-anchor="middle" x="1397.33" y="-96.5" font-family="Helvetica,sans-Serif" font-size="10.00">_eigen.h</text>
</a>
</g>
</g>
<!-- Node3&#45;&gt;Node18 -->
<g id="edge22" class="edge"><title>Node3&#45;&gt;Node18</title>
<path fill="none" stroke="midnightblue" d="M835.462,-374.057C991.574,-369.465 1327.43,-355.533 1365.33,-320 1414.64,-273.764 1408.58,-184.879 1402.03,-141.52"/>
<polygon fill="midnightblue" stroke="midnightblue" points="835.339,-370.559 825.445,-374.346 835.541,-377.556 835.339,-370.559"/>
</g>
<!-- Node19 -->
<g id="node17" class="node"><title>Node19</title>
<g id="a_node17"><a xlink:href="linear__solver__dense_8h.html" target="_top" xlink:title="/home/alejandro/Desarrollo\l eclipse/os1/Thirdparty\l/g2o/g2o/solvers/linear_solver\l_dense.h">
<polygon fill="white" stroke="black" points="1210.33,-267.5 1210.33,-319.5 1356.33,-319.5 1356.33,-267.5 1210.33,-267.5"/>
<text text-anchor="start" x="1218.33" y="-307.5" font-family="Helvetica,sans-Serif" font-size="10.00">/home/alejandro/Desarrollo</text>
<text text-anchor="start" x="1218.33" y="-296.5" font-family="Helvetica,sans-Serif" font-size="10.00"> eclipse/os1/Thirdparty</text>
<text text-anchor="start" x="1218.33" y="-285.5" font-family="Helvetica,sans-Serif" font-size="10.00">/g2o/g2o/solvers/linear_solver</text>
<text text-anchor="middle" x="1283.33" y="-274.5" font-family="Helvetica,sans-Serif" font-size="10.00">_dense.h</text>
</a>
</g>
</g>
<!-- Node3&#45;&gt;Node19 -->
<g id="edge24" class="edge"><title>Node3&#45;&gt;Node19</title>
<path fill="none" stroke="midnightblue" d="M835.454,-369.736C924.021,-361.845 1071.49,-346.068 1196.33,-320 1200.8,-319.067 1205.37,-318.018 1209.96,-316.892"/>
<polygon fill="midnightblue" stroke="midnightblue" points="835.136,-366.25 825.482,-370.613 835.75,-373.223 835.136,-366.25"/>
</g>
<!-- Node20 -->
<g id="node18" class="node"><title>Node20</title>
<g id="a_node18"><a xlink:href="batch__stats_8cpp.html" target="_top" xlink:title="/home/alejandro/Desarrollo\l eclipse/os1/Thirdparty\l/g2o/g2o/core/batch_stats.cpp">
<polygon fill="white" stroke="black" points="1411.83,-273 1411.83,-314 1560.83,-314 1560.83,-273 1411.83,-273"/>
<text text-anchor="start" x="1419.83" y="-302" font-family="Helvetica,sans-Serif" font-size="10.00">/home/alejandro/Desarrollo</text>
<text text-anchor="start" x="1419.83" y="-291" font-family="Helvetica,sans-Serif" font-size="10.00"> eclipse/os1/Thirdparty</text>
<text text-anchor="middle" x="1486.33" y="-280" font-family="Helvetica,sans-Serif" font-size="10.00">/g2o/g2o/core/batch_stats.cpp</text>
</a>
</g>
</g>
<!-- Node3&#45;&gt;Node20 -->
<g id="edge26" class="edge"><title>Node3&#45;&gt;Node20</title>
<path fill="none" stroke="midnightblue" d="M835.689,-374.046C957.618,-369.93 1197.95,-357.4 1398.33,-320 1406.93,-318.395 1415.89,-316.302 1424.67,-314.006"/>
<polygon fill="midnightblue" stroke="midnightblue" points="835.213,-370.559 825.333,-374.385 835.442,-377.556 835.213,-370.559"/>
</g>
<!-- Node5 -->
<g id="node3" class="node"><title>Node5</title>
<g id="a_node3"><a xlink:href="block__solver_8h.html" target="_top" xlink:title="/home/alejandro/Desarrollo\l eclipse/os1/Thirdparty\l/g2o/g2o/core/block_solver.h">
<polygon fill="white" stroke="black" points="580.328,-95 580.328,-136 722.328,-136 722.328,-95 580.328,-95"/>
<text text-anchor="start" x="588.328" y="-124" font-family="Helvetica,sans-Serif" font-size="10.00">/home/alejandro/Desarrollo</text>
<text text-anchor="start" x="588.328" y="-113" font-family="Helvetica,sans-Serif" font-size="10.00"> eclipse/os1/Thirdparty</text>
<text text-anchor="middle" x="651.328" y="-102" font-family="Helvetica,sans-Serif" font-size="10.00">/g2o/g2o/core/block_solver.h</text>
</a>
</g>
</g>
<!-- Node4&#45;&gt;Node5 -->
<g id="edge2" class="edge"><title>Node4&#45;&gt;Node5</title>
<path fill="none" stroke="midnightblue" d="M276.031,-266.995C263.008,-257.553 250.54,-245.531 243.328,-231 232.856,-209.9 227.963,-195.855 243.328,-178 285.965,-128.455 475.162,-118.295 580.288,-116.545"/>
<polygon fill="midnightblue" stroke="midnightblue" points="274.38,-270.105 284.619,-272.829 278.313,-264.315 274.38,-270.105"/>
</g>
<!-- Node4&#45;&gt;Node7 -->
<g id="edge5" class="edge"><title>Node4&#45;&gt;Node7</title>
<path fill="none" stroke="midnightblue" d="M267.272,-267.761C252.6,-258.473 238.626,-246.344 230.328,-231 219.124,-210.28 221.748,-199.937 230.328,-178 251.123,-124.836 300.48,-79.1778 334.411,-52.5108"/>
<polygon fill="midnightblue" stroke="midnightblue" points="265.566,-270.819 275.953,-272.905 269.134,-264.796 265.566,-270.819"/>
</g>
<!-- Node4&#45;&gt;Node8 -->
<g id="edge6" class="edge"><title>Node4&#45;&gt;Node8</title>
<path fill="none" stroke="midnightblue" d="M370.007,-268.268C392.141,-256.526 418.7,-242.437 441.042,-230.585"/>
<polygon fill="midnightblue" stroke="midnightblue" points="368.327,-265.197 361.133,-272.976 371.607,-271.381 368.327,-265.197"/>
</g>
<!-- Node4&#45;&gt;Node9 -->
<g id="edge7" class="edge"><title>Node4&#45;&gt;Node9</title>
<path fill="none" stroke="midnightblue" d="M400.915,-275.094C449.909,-263.55 514.673,-247.529 571.328,-231 574.401,-230.103 577.535,-229.162 580.695,-228.191"/>
<polygon fill="midnightblue" stroke="midnightblue" points="399.958,-271.723 391.022,-277.415 401.557,-278.538 399.958,-271.723"/>
</g>
<!-- Node10 -->
<g id="node8" class="node"><title>Node10</title>
<g id="a_node8"><a xlink:href="optimization__algorithm__with__hessian_8cpp.html" target="_top" xlink:title="/home/alejandro/Desarrollo\l eclipse/os1/Thirdparty\l/g2o/g2o/core/optimization\l_algorithm_with_hessian.cpp">
<polygon fill="white" stroke="black" points="252.828,-178.5 252.828,-230.5 395.828,-230.5 395.828,-178.5 252.828,-178.5"/>
<text text-anchor="start" x="260.828" y="-218.5" font-family="Helvetica,sans-Serif" font-size="10.00">/home/alejandro/Desarrollo</text>
<text text-anchor="start" x="260.828" y="-207.5" font-family="Helvetica,sans-Serif" font-size="10.00"> eclipse/os1/Thirdparty</text>
<text text-anchor="start" x="260.828" y="-196.5" font-family="Helvetica,sans-Serif" font-size="10.00">/g2o/g2o/core/optimization</text>
<text text-anchor="middle" x="324.328" y="-185.5" font-family="Helvetica,sans-Serif" font-size="10.00">_algorithm_with_hessian.cpp</text>
</a>
</g>
</g>
<!-- Node4&#45;&gt;Node10 -->
<g id="edge8" class="edge"><title>Node4&#45;&gt;Node10</title>
<path fill="none" stroke="midnightblue" d="M324.328,-262.509C324.328,-252.174 324.328,-240.71 324.328,-230.788"/>
<polygon fill="midnightblue" stroke="midnightblue" points="320.828,-262.758 324.328,-272.758 327.828,-262.758 320.828,-262.758"/>
</g>
<!-- Node11 -->
<g id="node9" class="node"><title>Node11</title>
<g id="a_node9"><a xlink:href="solver_8cpp.html" target="_top" xlink:title="/home/alejandro/Desarrollo\l eclipse/os1/Thirdparty\l/g2o/g2o/core/solver.cpp">
<polygon fill="white" stroke="black" points="24.8284,-184 24.8284,-225 157.828,-225 157.828,-184 24.8284,-184"/>
<text text-anchor="start" x="32.8284" y="-213" font-family="Helvetica,sans-Serif" font-size="10.00">/home/alejandro/Desarrollo</text>
<text text-anchor="start" x="32.8284" y="-202" font-family="Helvetica,sans-Serif" font-size="10.00"> eclipse/os1/Thirdparty</text>
<text text-anchor="middle" x="91.3284" y="-191" font-family="Helvetica,sans-Serif" font-size="10.00">/g2o/g2o/core/solver.cpp</text>
</a>
</g>
</g>
<!-- Node4&#45;&gt;Node11 -->
<g id="edge9" class="edge"><title>Node4&#45;&gt;Node11</title>
<path fill="none" stroke="midnightblue" d="M262.372,-269.366C225.414,-255.566 178.997,-238.235 143.846,-225.11"/>
<polygon fill="midnightblue" stroke="midnightblue" points="261.446,-272.756 272.039,-272.976 263.895,-266.199 261.446,-272.756"/>
</g>
<!-- Node6 -->
<g id="node4" class="node"><title>Node6</title>
<g id="a_node4"><a xlink:href="_optimizer_8cc.html" target="_top" xlink:title="/home/alejandro/Desarrollo\l eclipse/os1/src/Optimizer.cc">
<polygon fill="white" stroke="black" points="1224.33,-11.5 1224.33,-41.5 1368.33,-41.5 1368.33,-11.5 1224.33,-11.5"/>
<text text-anchor="start" x="1232.33" y="-29.5" font-family="Helvetica,sans-Serif" font-size="10.00">/home/alejandro/Desarrollo</text>
<text text-anchor="middle" x="1296.33" y="-18.5" font-family="Helvetica,sans-Serif" font-size="10.00"> eclipse/os1/src/Optimizer.cc</text>
</a>
</g>
</g>
<!-- Node5&#45;&gt;Node6 -->
<g id="edge3" class="edge"><title>Node5&#45;&gt;Node6</title>
<path fill="none" stroke="midnightblue" d="M717.752,-92.2239C722.32,-91.0334 726.876,-89.942 731.328,-89 906.053,-52.0335 1116.15,-36.5965 1224.25,-30.7243"/>
<polygon fill="midnightblue" stroke="midnightblue" points="716.481,-88.9432 707.766,-94.9686 718.336,-95.6929 716.481,-88.9432"/>
</g>
<!-- Node5&#45;&gt;Node7 -->
<g id="edge4" class="edge"><title>Node5&#45;&gt;Node7</title>
<path fill="none" stroke="midnightblue" d="M578.265,-91.9591C534.249,-78.3796 478.625,-61.2193 435.839,-48.0192"/>
<polygon fill="midnightblue" stroke="midnightblue" points="577.455,-95.3719 588.042,-94.9755 579.518,-88.683 577.455,-95.3719"/>
</g>
<!-- Node12&#45;&gt;Node7 -->
<g id="edge17" class="edge"><title>Node12&#45;&gt;Node7</title>
<path fill="none" stroke="midnightblue" d="M755.472,-262.813C753.092,-236.839 745.488,-199.929 722.328,-178 672.23,-130.565 635.53,-167.261 571.328,-142 510.371,-118.016 445.41,-78.3449 406.089,-52.5662"/>
<polygon fill="midnightblue" stroke="midnightblue" points="751.986,-263.132 756.185,-272.858 758.968,-262.636 751.986,-263.132"/>
</g>
<!-- Node12&#45;&gt;Node8 -->
<g id="edge18" class="edge"><title>Node12&#45;&gt;Node8</title>
<path fill="none" stroke="midnightblue" d="M686.262,-269.755C648.412,-257.467 601.673,-242.295 563.119,-229.779"/>
<polygon fill="midnightblue" stroke="midnightblue" points="685.592,-273.217 696.184,-272.976 687.753,-266.559 685.592,-273.217"/>
</g>
<!-- Node12&#45;&gt;Node9 -->
<g id="edge19" class="edge"><title>Node12&#45;&gt;Node9</title>
<path fill="none" stroke="midnightblue" d="M723.791,-266.529C709.538,-255.154 692.88,-241.857 678.756,-230.585"/>
<polygon fill="midnightblue" stroke="midnightblue" points="721.868,-269.473 731.867,-272.976 726.234,-264.002 721.868,-269.473"/>
</g>
<!-- Node12&#45;&gt;Node10 -->
<g id="edge20" class="edge"><title>Node12&#45;&gt;Node10</title>
<path fill="none" stroke="midnightblue" d="M665.326,-280.067C593.837,-269.468 492.042,-252.537 404.328,-231 401.639,-230.34 398.907,-229.637 396.156,-228.901"/>
<polygon fill="midnightblue" stroke="midnightblue" points="665.246,-283.593 675.649,-281.584 666.264,-276.667 665.246,-283.593"/>
</g>
<!-- Node13 -->
<g id="node11" class="node"><title>Node13</title>
<g id="a_node11"><a xlink:href="block__solver_8hpp.html" target="_top" xlink:title="/home/alejandro/Desarrollo\l eclipse/os1/Thirdparty\l/g2o/g2o/core/block_solver.hpp">
<polygon fill="white" stroke="black" points="770.328,-184 770.328,-225 922.328,-225 922.328,-184 770.328,-184"/>
<text text-anchor="start" x="778.328" y="-213" font-family="Helvetica,sans-Serif" font-size="10.00">/home/alejandro/Desarrollo</text>
<text text-anchor="start" x="778.328" y="-202" font-family="Helvetica,sans-Serif" font-size="10.00"> eclipse/os1/Thirdparty</text>
<text text-anchor="middle" x="846.328" y="-191" font-family="Helvetica,sans-Serif" font-size="10.00">/g2o/g2o/core/block_solver.hpp</text>
</a>
</g>
</g>
<!-- Node12&#45;&gt;Node13 -->
<g id="edge11" class="edge"><title>Node12&#45;&gt;Node13</title>
<path fill="none" stroke="midnightblue" d="M783.987,-265.763C797.542,-252.66 813.575,-237.162 825.987,-225.164"/>
<polygon fill="midnightblue" stroke="midnightblue" points="781.508,-263.292 776.751,-272.758 786.373,-268.325 781.508,-263.292"/>
</g>
<!-- Node14 -->
<g id="node12" class="node"><title>Node14</title>
<g id="a_node12"><a xlink:href="estimate__propagator_8h.html" target="_top" xlink:title="/home/alejandro/Desarrollo\l eclipse/os1/Thirdparty\l/g2o/g2o/core/estimate_propagator.h">
<polygon fill="white" stroke="black" points="940.328,-184 940.328,-225 1116.33,-225 1116.33,-184 940.328,-184"/>
<text text-anchor="start" x="948.328" y="-213" font-family="Helvetica,sans-Serif" font-size="10.00">/home/alejandro/Desarrollo</text>
<text text-anchor="start" x="948.328" y="-202" font-family="Helvetica,sans-Serif" font-size="10.00"> eclipse/os1/Thirdparty</text>
<text text-anchor="middle" x="1028.33" y="-191" font-family="Helvetica,sans-Serif" font-size="10.00">/g2o/g2o/core/estimate_propagator.h</text>
</a>
</g>
</g>
<!-- Node12&#45;&gt;Node14 -->
<g id="edge13" class="edge"><title>Node12&#45;&gt;Node14</title>
<path fill="none" stroke="midnightblue" d="M827.008,-269.893C870.414,-256.009 925.461,-238.402 967.02,-225.11"/>
<polygon fill="midnightblue" stroke="midnightblue" points="825.829,-266.595 817.37,-272.976 827.961,-273.263 825.829,-266.595"/>
</g>
<!-- Node12&#45;&gt;Node17 -->
<g id="edge21" class="edge"><title>Node12&#45;&gt;Node17</title>
<path fill="none" stroke="midnightblue" d="M847.167,-286.758C941.848,-279.156 1082.32,-262.821 1125.33,-231 1156.74,-207.754 1171.91,-162.352 1178.31,-136.246"/>
<polygon fill="midnightblue" stroke="midnightblue" points="846.702,-283.283 837.006,-287.554 847.249,-290.262 846.702,-283.283"/>
</g>
<!-- Node13&#45;&gt;Node5 -->
<g id="edge12" class="edge"><title>Node13&#45;&gt;Node5</title>
<path fill="none" stroke="midnightblue" d="M793.288,-179.836C762.556,-166.124 724.324,-149.067 695.281,-136.11"/>
<polygon fill="midnightblue" stroke="midnightblue" points="792.008,-183.097 802.567,-183.976 794.86,-176.705 792.008,-183.097"/>
</g>
<!-- Node15 -->
<g id="node13" class="node"><title>Node15</title>
<g id="a_node13"><a xlink:href="estimate__propagator_8cpp.html" target="_top" xlink:title="/home/alejandro/Desarrollo\l eclipse/os1/Thirdparty\l/g2o/g2o/core/estimate_propagator.cpp">
<polygon fill="white" stroke="black" points="740.328,-95 740.328,-136 926.328,-136 926.328,-95 740.328,-95"/>
<text text-anchor="start" x="748.328" y="-124" font-family="Helvetica,sans-Serif" font-size="10.00">/home/alejandro/Desarrollo</text>
<text text-anchor="start" x="748.328" y="-113" font-family="Helvetica,sans-Serif" font-size="10.00"> eclipse/os1/Thirdparty</text>
<text text-anchor="middle" x="833.328" y="-102" font-family="Helvetica,sans-Serif" font-size="10.00">/g2o/g2o/core/estimate_propagator.cpp</text>
</a>
</g>
</g>
<!-- Node14&#45;&gt;Node15 -->
<g id="edge14" class="edge"><title>Node14&#45;&gt;Node15</title>
<path fill="none" stroke="midnightblue" d="M975.288,-179.836C944.556,-166.124 906.324,-149.067 877.281,-136.11"/>
<polygon fill="midnightblue" stroke="midnightblue" points="974.008,-183.097 984.567,-183.976 976.86,-176.705 974.008,-183.097"/>
</g>
<!-- Node16 -->
<g id="node14" class="node"><title>Node16</title>
<g id="a_node14"><a xlink:href="optimizable__graph_8cpp.html" target="_top" xlink:title="/home/alejandro/Desarrollo\l eclipse/os1/Thirdparty\l/g2o/g2o/core/optimizable\l_graph.cpp">
<polygon fill="white" stroke="black" points="944.828,-89.5 944.828,-141.5 1077.83,-141.5 1077.83,-89.5 944.828,-89.5"/>
<text text-anchor="start" x="952.828" y="-129.5" font-family="Helvetica,sans-Serif" font-size="10.00">/home/alejandro/Desarrollo</text>
<text text-anchor="start" x="952.828" y="-118.5" font-family="Helvetica,sans-Serif" font-size="10.00"> eclipse/os1/Thirdparty</text>
<text text-anchor="start" x="952.828" y="-107.5" font-family="Helvetica,sans-Serif" font-size="10.00">/g2o/g2o/core/optimizable</text>
<text text-anchor="middle" x="1011.33" y="-96.5" font-family="Helvetica,sans-Serif" font-size="10.00">_graph.cpp</text>
</a>
</g>
</g>
<!-- Node14&#45;&gt;Node16 -->
<g id="edge15" class="edge"><title>Node14&#45;&gt;Node16</title>
<path fill="none" stroke="midnightblue" d="M1022.53,-173.835C1020.5,-163.416 1018.23,-151.814 1016.27,-141.788"/>
<polygon fill="midnightblue" stroke="midnightblue" points="1019.12,-174.615 1024.47,-183.758 1025.99,-173.273 1019.12,-174.615"/>
</g>
<!-- Node14&#45;&gt;Node17 -->
<g id="edge16" class="edge"><title>Node14&#45;&gt;Node17</title>
<path fill="none" stroke="midnightblue" d="M1071.79,-178.945C1095.79,-165.391 1125.18,-148.788 1147.62,-136.11"/>
<polygon fill="midnightblue" stroke="midnightblue" points="1069.87,-176.009 1062.89,-183.976 1073.32,-182.104 1069.87,-176.009"/>
</g>
<!-- Node18&#45;&gt;Node6 -->
<g id="edge23" class="edge"><title>Node18&#45;&gt;Node6</title>
<path fill="none" stroke="midnightblue" d="M1360.27,-82.5744C1343.87,-68.455 1325.45,-52.5811 1312.6,-41.5158"/>
<polygon fill="midnightblue" stroke="midnightblue" points="1358.25,-85.4614 1368.11,-89.336 1362.82,-80.1577 1358.25,-85.4614"/>
</g>
<!-- Node19&#45;&gt;Node6 -->
<g id="edge25" class="edge"><title>Node19&#45;&gt;Node6</title>
<path fill="none" stroke="midnightblue" d="M1285.08,-256.738C1287.98,-197.61 1293.65,-81.9988 1295.63,-41.7344"/>
<polygon fill="midnightblue" stroke="midnightblue" points="1281.57,-256.931 1284.57,-267.091 1288.56,-257.274 1281.57,-256.931"/>
</g>
</g>
</svg>
