<?xml version="1.0" encoding="UTF-8" standalone="no"?>
<!DOCTYPE svg PUBLIC "-//W3C//DTD SVG 1.1//EN"
 "http://www.w3.org/Graphics/SVG/1.1/DTD/svg11.dtd">
<!-- Generated by graphviz version 2.38.0 (20140413.2041)
 -->
<!-- Title: /home/alejandro/Desarrollo eclipse/os1/Thirdparty/g2o/g2o/core/cache.h Pages: 1 -->
<svg width="981pt" height="274pt"
 viewBox="0.00 0.00 980.89 274.00" xmlns="http://www.w3.org/2000/svg" xmlns:xlink="http://www.w3.org/1999/xlink">
<g id="graph0" class="graph" transform="scale(1 1) rotate(0) translate(4 270)">
<title>/home/alejandro/Desarrollo eclipse/os1/Thirdparty/g2o/g2o/core/cache.h</title>
<polygon fill="white" stroke="none" points="-4,4 -4,-270 976.885,-270 976.885,4 -4,4"/>
<!-- Node0 -->
<g id="node1" class="node"><title>Node0</title>
<polygon fill="#bfbfbf" stroke="black" points="165.885,-224.5 165.885,-265.5 298.885,-265.5 298.885,-224.5 165.885,-224.5"/>
<text text-anchor="start" x="173.885" y="-253.5" font-family="Helvetica,sans-Serif" font-size="10.00">/home/alejandro/Desarrollo</text>
<text text-anchor="start" x="173.885" y="-242.5" font-family="Helvetica,sans-Serif" font-size="10.00"> eclipse/os1/Thirdparty</text>
<text text-anchor="middle" x="232.385" y="-231.5" font-family="Helvetica,sans-Serif" font-size="10.00">/g2o/g2o/core/cache.h</text>
</g>
<!-- Node1 -->
<g id="node2" class="node"><title>Node1</title>
<polygon fill="white" stroke="#bfbfbf" points="48.8851,-0.5 48.8851,-19.5 83.8851,-19.5 83.8851,-0.5 48.8851,-0.5"/>
<text text-anchor="middle" x="66.3851" y="-7.5" font-family="Helvetica,sans-Serif" font-size="10.00">map</text>
</g>
<!-- Node0&#45;&gt;Node1 -->
<g id="edge1" class="edge"><title>Node0&#45;&gt;Node1</title>
<path fill="none" stroke="midnightblue" d="M165.479,-224.926C118.275,-208.041 57.2806,-178.687 21.3851,-132 0.497866,-104.833 -6.6891,-86.7748 8.38514,-56 15.0417,-42.4103 28.0003,-31.7463 39.9831,-24.2175"/>
<polygon fill="midnightblue" stroke="midnightblue" points="41.9471,-27.1244 48.8358,-19.0748 38.4308,-21.0716 41.9471,-27.1244"/>
</g>
<!-- Node2 -->
<g id="node3" class="node"><title>Node2</title>
<g id="a_node3"><a xlink:href="optimizable__graph_8h.html" target="_top" xlink:title="optimizable_graph.h">
<polygon fill="white" stroke="black" points="423.385,-168.5 423.385,-187.5 527.385,-187.5 527.385,-168.5 423.385,-168.5"/>
<text text-anchor="middle" x="475.385" y="-175.5" font-family="Helvetica,sans-Serif" font-size="10.00">optimizable_graph.h</text>
</a>
</g>
</g>
<!-- Node0&#45;&gt;Node2 -->
<g id="edge2" class="edge"><title>Node0&#45;&gt;Node2</title>
<path fill="none" stroke="midnightblue" d="M299.107,-226.152C342.003,-214.678 396.419,-200.123 433.365,-190.24"/>
<polygon fill="midnightblue" stroke="midnightblue" points="434.542,-193.548 443.298,-187.583 432.733,-186.786 434.542,-193.548"/>
</g>
<!-- Node3 -->
<g id="node4" class="node"><title>Node3</title>
<polygon fill="white" stroke="#bfbfbf" points="696.385,-0.5 696.385,-19.5 726.385,-19.5 726.385,-0.5 696.385,-0.5"/>
<text text-anchor="middle" x="711.385" y="-7.5" font-family="Helvetica,sans-Serif" font-size="10.00">set</text>
</g>
<!-- Node2&#45;&gt;Node3 -->
<g id="edge3" class="edge"><title>Node2&#45;&gt;Node3</title>
<path fill="none" stroke="midnightblue" d="M527.505,-176.138C600.77,-173.742 728.716,-164.832 759.385,-132 782.493,-107.263 778.602,-86.7207 764.385,-56 758.305,-42.8614 746.289,-32.1565 735.233,-24.4887"/>
<polygon fill="midnightblue" stroke="midnightblue" points="737.008,-21.4688 726.704,-19.0019 733.221,-27.3558 737.008,-21.4688"/>
</g>
<!-- Node4 -->
<g id="node5" class="node"><title>Node4</title>
<polygon fill="white" stroke="#bfbfbf" points="871.385,-112.5 871.385,-131.5 925.385,-131.5 925.385,-112.5 871.385,-112.5"/>
<text text-anchor="middle" x="898.385" y="-119.5" font-family="Helvetica,sans-Serif" font-size="10.00">iostream</text>
</g>
<!-- Node2&#45;&gt;Node4 -->
<g id="edge4" class="edge"><title>Node2&#45;&gt;Node4</title>
<path fill="none" stroke="midnightblue" d="M527.518,-172.505C601.274,-165.773 740.167,-151.72 857.385,-132 858.638,-131.789 859.911,-131.565 861.195,-131.331"/>
<polygon fill="midnightblue" stroke="midnightblue" points="861.975,-134.745 871.111,-129.381 860.624,-127.876 861.975,-134.745"/>
</g>
<!-- Node5 -->
<g id="node6" class="node"><title>Node5</title>
<polygon fill="white" stroke="#bfbfbf" points="943.885,-112.5 943.885,-131.5 972.885,-131.5 972.885,-112.5 943.885,-112.5"/>
<text text-anchor="middle" x="958.385" y="-119.5" font-family="Helvetica,sans-Serif" font-size="10.00">list</text>
</g>
<!-- Node2&#45;&gt;Node5 -->
<g id="edge5" class="edge"><title>Node2&#45;&gt;Node5</title>
<path fill="none" stroke="midnightblue" d="M527.727,-176.288C611.851,-174.184 782.187,-165.972 933.885,-131.453"/>
<polygon fill="midnightblue" stroke="midnightblue" points="934.899,-134.811 943.849,-129.141 933.317,-127.992 934.899,-134.811"/>
</g>
<!-- Node6 -->
<g id="node7" class="node"><title>Node6</title>
<polygon fill="white" stroke="#bfbfbf" points="783.385,-0.5 783.385,-19.5 823.385,-19.5 823.385,-0.5 783.385,-0.5"/>
<text text-anchor="middle" x="803.385" y="-7.5" font-family="Helvetica,sans-Serif" font-size="10.00">limits</text>
</g>
<!-- Node2&#45;&gt;Node6 -->
<g id="edge6" class="edge"><title>Node2&#45;&gt;Node6</title>
<path fill="none" stroke="midnightblue" d="M527.658,-176.364C605.143,-174.286 745.142,-165.814 780.385,-132 808.197,-105.315 808.246,-56.2213 805.841,-29.5039"/>
<polygon fill="midnightblue" stroke="midnightblue" points="809.318,-29.1056 804.733,-19.5542 802.361,-29.8801 809.318,-29.1056"/>
</g>
<!-- Node7 -->
<g id="node8" class="node"><title>Node7</title>
<polygon fill="white" stroke="#bfbfbf" points="162.385,-112.5 162.385,-131.5 206.385,-131.5 206.385,-112.5 162.385,-112.5"/>
<text text-anchor="middle" x="184.385" y="-119.5" font-family="Helvetica,sans-Serif" font-size="10.00">cmath</text>
</g>
<!-- Node2&#45;&gt;Node7 -->
<g id="edge7" class="edge"><title>Node2&#45;&gt;Node7</title>
<path fill="none" stroke="midnightblue" d="M423.248,-169.72C372.673,-162.267 293.616,-149.587 216.535,-132.063"/>
<polygon fill="midnightblue" stroke="midnightblue" points="217.189,-128.622 206.658,-129.788 215.618,-135.443 217.189,-128.622"/>
</g>
<!-- Node8 -->
<g id="node9" class="node"><title>Node8</title>
<polygon fill="white" stroke="#bfbfbf" points="224.885,-112.5 224.885,-131.5 275.885,-131.5 275.885,-112.5 224.885,-112.5"/>
<text text-anchor="middle" x="250.385" y="-119.5" font-family="Helvetica,sans-Serif" font-size="10.00">typeinfo</text>
</g>
<!-- Node2&#45;&gt;Node8 -->
<g id="edge8" class="edge"><title>Node2&#45;&gt;Node8</title>
<path fill="none" stroke="midnightblue" d="M438.556,-168.497C402.262,-160.069 344.978,-146.637 285.87,-132.083"/>
<polygon fill="midnightblue" stroke="midnightblue" points="286.533,-128.642 275.985,-129.643 284.855,-135.438 286.533,-128.642"/>
</g>
<!-- Node9 -->
<g id="node10" class="node"><title>Node9</title>
<g id="a_node10"><a xlink:href="openmp__mutex_8h.html" target="_top" xlink:title="openmp_mutex.h">
<polygon fill="white" stroke="black" points="658.385,-112.5 658.385,-131.5 750.385,-131.5 750.385,-112.5 658.385,-112.5"/>
<text text-anchor="middle" x="704.385" y="-119.5" font-family="Helvetica,sans-Serif" font-size="10.00">openmp_mutex.h</text>
</a>
</g>
</g>
<!-- Node2&#45;&gt;Node9 -->
<g id="edge9" class="edge"><title>Node2&#45;&gt;Node9</title>
<path fill="none" stroke="midnightblue" d="M511.671,-168.444C551.368,-159.083 615.092,-144.056 658.297,-133.868"/>
<polygon fill="midnightblue" stroke="midnightblue" points="659.339,-137.218 668.269,-131.516 657.733,-130.405 659.339,-137.218"/>
</g>
<!-- Node12 -->
<g id="node13" class="node"><title>Node12</title>
<g id="a_node13"><a xlink:href="hyper__graph_8h.html" target="_top" xlink:title="hyper_graph.h">
<polygon fill="white" stroke="black" points="179.385,-56.5 179.385,-75.5 257.385,-75.5 257.385,-56.5 179.385,-56.5"/>
<text text-anchor="middle" x="218.385" y="-63.5" font-family="Helvetica,sans-Serif" font-size="10.00">hyper_graph.h</text>
</a>
</g>
</g>
<!-- Node2&#45;&gt;Node12 -->
<g id="edge12" class="edge"><title>Node2&#45;&gt;Node12</title>
<path fill="none" stroke="midnightblue" d="M464.115,-168.5C445.627,-154.901 407.314,-128.145 371.385,-112 337.917,-96.9608 298.1,-85.4334 267.476,-77.8119"/>
<polygon fill="midnightblue" stroke="midnightblue" points="268.009,-74.3396 257.465,-75.3775 266.355,-81.1414 268.009,-74.3396"/>
</g>
<!-- Node17 -->
<g id="node18" class="node"><title>Node17</title>
<g id="a_node18"><a xlink:href="parameter_8h.html" target="_top" xlink:title="parameter.h">
<polygon fill="white" stroke="black" points="294.385,-112.5 294.385,-131.5 362.385,-131.5 362.385,-112.5 294.385,-112.5"/>
<text text-anchor="middle" x="328.385" y="-119.5" font-family="Helvetica,sans-Serif" font-size="10.00">parameter.h</text>
</a>
</g>
</g>
<!-- Node2&#45;&gt;Node17 -->
<g id="edge21" class="edge"><title>Node2&#45;&gt;Node17</title>
<path fill="none" stroke="midnightblue" d="M452.093,-168.444C427.578,-159.438 388.789,-145.189 361.185,-135.049"/>
<polygon fill="midnightblue" stroke="midnightblue" points="362.162,-131.679 351.569,-131.516 359.749,-138.25 362.162,-131.679"/>
</g>
<!-- Node19 -->
<g id="node20" class="node"><title>Node19</title>
<g id="a_node20"><a xlink:href="parameter__container_8h.html" target="_top" xlink:title="parameter_container.h">
<polygon fill="white" stroke="black" points="30.8851,-112.5 30.8851,-131.5 143.885,-131.5 143.885,-112.5 30.8851,-112.5"/>
<text text-anchor="middle" x="87.3851" y="-119.5" font-family="Helvetica,sans-Serif" font-size="10.00">parameter_container.h</text>
</a>
</g>
</g>
<!-- Node2&#45;&gt;Node19 -->
<g id="edge24" class="edge"><title>Node2&#45;&gt;Node19</title>
<path fill="none" stroke="midnightblue" d="M423.058,-169.717C353.375,-160.019 230.073,-142.859 153.877,-132.254"/>
<polygon fill="midnightblue" stroke="midnightblue" points="154.294,-128.778 143.907,-130.867 153.329,-135.712 154.294,-128.778"/>
</g>
<!-- Node21 -->
<g id="node22" class="node"><title>Node21</title>
<g id="a_node22"><a xlink:href="jacobian__workspace_8h.html" target="_top" xlink:title="jacobian_workspace.h">
<polygon fill="white" stroke="black" points="418.885,-112.5 418.885,-131.5 531.885,-131.5 531.885,-112.5 418.885,-112.5"/>
<text text-anchor="middle" x="475.385" y="-119.5" font-family="Helvetica,sans-Serif" font-size="10.00">jacobian_workspace.h</text>
</a>
</g>
</g>
<!-- Node2&#45;&gt;Node21 -->
<g id="edge28" class="edge"><title>Node2&#45;&gt;Node21</title>
<path fill="none" stroke="midnightblue" d="M475.385,-168.083C475.385,-161.006 475.385,-150.861 475.385,-141.986"/>
<polygon fill="midnightblue" stroke="midnightblue" points="478.885,-141.751 475.385,-131.751 471.885,-141.751 478.885,-141.751"/>
</g>
<!-- Node24 -->
<g id="node25" class="node"><title>Node24</title>
<g id="a_node25"><a xlink:href="macros_8h.html" target="_top" xlink:title="../stuff/macros.h">
<polygon fill="white" stroke="black" points="549.885,-112.5 549.885,-131.5 638.885,-131.5 638.885,-112.5 549.885,-112.5"/>
<text text-anchor="middle" x="594.385" y="-119.5" font-family="Helvetica,sans-Serif" font-size="10.00">../stuff/macros.h</text>
</a>
</g>
</g>
<!-- Node2&#45;&gt;Node24 -->
<g id="edge34" class="edge"><title>Node2&#45;&gt;Node24</title>
<path fill="none" stroke="midnightblue" d="M494.241,-168.444C513.651,-159.636 544.115,-145.812 566.35,-135.722"/>
<polygon fill="midnightblue" stroke="midnightblue" points="567.957,-138.836 575.617,-131.516 565.065,-132.462 567.957,-138.836"/>
</g>
<!-- Node10 -->
<g id="node11" class="node"><title>Node10</title>
<g id="a_node11"><a xlink:href="config_8h.html" target="_top" xlink:title="../../config.h">
<polygon fill="white" stroke="black" points="669.885,-56.5 669.885,-75.5 738.885,-75.5 738.885,-56.5 669.885,-56.5"/>
<text text-anchor="middle" x="704.385" y="-63.5" font-family="Helvetica,sans-Serif" font-size="10.00">../../config.h</text>
</a>
</g>
</g>
<!-- Node9&#45;&gt;Node10 -->
<g id="edge10" class="edge"><title>Node9&#45;&gt;Node10</title>
<path fill="none" stroke="midnightblue" d="M704.385,-112.083C704.385,-105.006 704.385,-94.8611 704.385,-85.9865"/>
<polygon fill="midnightblue" stroke="midnightblue" points="707.885,-85.751 704.385,-75.7511 700.885,-85.7511 707.885,-85.751"/>
</g>
<!-- Node11 -->
<g id="node12" class="node"><title>Node11</title>
<polygon fill="white" stroke="#bfbfbf" points="551.885,-0.5 551.885,-19.5 600.885,-19.5 600.885,-0.5 551.885,-0.5"/>
<text text-anchor="middle" x="576.385" y="-7.5" font-family="Helvetica,sans-Serif" font-size="10.00">cassert</text>
</g>
<!-- Node9&#45;&gt;Node11 -->
<g id="edge11" class="edge"><title>Node9&#45;&gt;Node11</title>
<path fill="none" stroke="midnightblue" d="M717.436,-112.315C734.955,-99.5878 762.255,-75.2889 747.385,-56 730.867,-34.5721 656.024,-21.3179 611.007,-15.1405"/>
<polygon fill="midnightblue" stroke="midnightblue" points="611.445,-11.668 601.072,-13.8252 610.526,-18.6075 611.445,-11.668"/>
</g>
<!-- Node12&#45;&gt;Node1 -->
<g id="edge13" class="edge"><title>Node12&#45;&gt;Node1</title>
<path fill="none" stroke="midnightblue" d="M194.3,-56.4435C167.013,-46.7494 122.623,-30.9792 93.9676,-20.799"/>
<polygon fill="midnightblue" stroke="midnightblue" points="94.7779,-17.3726 84.1831,-17.323 92.4345,-23.9687 94.7779,-17.3726"/>
</g>
<!-- Node12&#45;&gt;Node3 -->
<g id="edge14" class="edge"><title>Node12&#45;&gt;Node3</title>
<path fill="none" stroke="midnightblue" d="M257.633,-57.3613C260.59,-56.8716 263.532,-56.411 266.385,-56 348.599,-44.1572 604.182,-20.6811 685.951,-13.2862"/>
<polygon fill="midnightblue" stroke="midnightblue" points="686.654,-16.737 696.299,-12.3524 686.025,-9.76537 686.654,-16.737"/>
</g>
<!-- Node12&#45;&gt;Node6 -->
<g id="edge18" class="edge"><title>Node12&#45;&gt;Node6</title>
<path fill="none" stroke="midnightblue" d="M257.622,-57.2835C260.582,-56.8117 263.527,-56.3765 266.385,-56 473.652,-28.6962 527.459,-41.7233 735.385,-20 747.718,-18.7115 761.268,-16.9823 773.005,-15.384"/>
<polygon fill="midnightblue" stroke="midnightblue" points="773.763,-18.8123 783.186,-13.9693 772.8,-11.8789 773.763,-18.8123"/>
</g>
<!-- Node12&#45;&gt;Node11 -->
<g id="edge16" class="edge"><title>Node12&#45;&gt;Node11</title>
<path fill="none" stroke="midnightblue" d="M257.394,-57.5468C260.434,-57.0085 263.458,-56.4867 266.385,-56 366.13,-39.4166 484.509,-23.1849 541.841,-15.5414"/>
<polygon fill="midnightblue" stroke="midnightblue" points="542.366,-19.0026 551.818,-14.216 541.444,-12.0635 542.366,-19.0026"/>
</g>
<!-- Node13 -->
<g id="node14" class="node"><title>Node13</title>
<polygon fill="white" stroke="#bfbfbf" points="218.885,-0.5 218.885,-19.5 259.885,-19.5 259.885,-0.5 218.885,-0.5"/>
<text text-anchor="middle" x="239.385" y="-7.5" font-family="Helvetica,sans-Serif" font-size="10.00">bitset</text>
</g>
<!-- Node12&#45;&gt;Node13 -->
<g id="edge15" class="edge"><title>Node12&#45;&gt;Node13</title>
<path fill="none" stroke="midnightblue" d="M221.853,-56.083C224.697,-48.77 228.815,-38.1814 232.345,-29.1034"/>
<polygon fill="midnightblue" stroke="midnightblue" points="235.619,-30.3397 235.982,-19.7511 229.095,-27.8025 235.619,-30.3397"/>
</g>
<!-- Node14 -->
<g id="node15" class="node"><title>Node14</title>
<polygon fill="white" stroke="#bfbfbf" points="407.385,-0.5 407.385,-19.5 451.385,-19.5 451.385,-0.5 407.385,-0.5"/>
<text text-anchor="middle" x="429.385" y="-7.5" font-family="Helvetica,sans-Serif" font-size="10.00">vector</text>
</g>
<!-- Node12&#45;&gt;Node14 -->
<g id="edge17" class="edge"><title>Node12&#45;&gt;Node14</title>
<path fill="none" stroke="midnightblue" d="M251.819,-56.4435C291.714,-46.2334 357.946,-29.2831 397.256,-19.2226"/>
<polygon fill="midnightblue" stroke="midnightblue" points="398.292,-22.5705 407.112,-16.7003 396.556,-15.789 398.292,-22.5705"/>
</g>
<!-- Node15 -->
<g id="node16" class="node"><title>Node15</title>
<polygon fill="white" stroke="#bfbfbf" points="277.885,-0.5 277.885,-19.5 326.885,-19.5 326.885,-0.5 277.885,-0.5"/>
<text text-anchor="middle" x="302.385" y="-7.5" font-family="Helvetica,sans-Serif" font-size="10.00">cstddef</text>
</g>
<!-- Node12&#45;&gt;Node15 -->
<g id="edge19" class="edge"><title>Node12&#45;&gt;Node15</title>
<path fill="none" stroke="midnightblue" d="M231.881,-56.324C244.985,-47.9002 265.097,-34.9709 280.492,-25.0741"/>
<polygon fill="midnightblue" stroke="midnightblue" points="282.403,-28.0063 288.923,-19.6545 278.618,-22.118 282.403,-28.0063"/>
</g>
<!-- Node16 -->
<g id="node17" class="node"><title>Node16</title>
<polygon fill="white" stroke="#bfbfbf" points="102.385,-0.5 102.385,-19.5 200.385,-19.5 200.385,-0.5 102.385,-0.5"/>
<text text-anchor="middle" x="151.385" y="-7.5" font-family="Helvetica,sans-Serif" font-size="10.00">tr1/unordered_map</text>
</g>
<!-- Node12&#45;&gt;Node16 -->
<g id="edge20" class="edge"><title>Node12&#45;&gt;Node16</title>
<path fill="none" stroke="midnightblue" d="M207.62,-56.324C197.619,-48.2631 182.499,-36.0765 170.455,-26.3695"/>
<polygon fill="midnightblue" stroke="midnightblue" points="172.328,-23.3841 162.346,-19.8339 167.935,-28.8343 172.328,-23.3841"/>
</g>
<!-- Node17&#45;&gt;Node12 -->
<g id="edge23" class="edge"><title>Node17&#45;&gt;Node12</title>
<path fill="none" stroke="midnightblue" d="M310.712,-112.324C292.991,-103.625 265.482,-90.1202 245.097,-80.113"/>
<polygon fill="midnightblue" stroke="midnightblue" points="246.534,-76.9195 236.015,-75.6545 243.449,-83.2031 246.534,-76.9195"/>
</g>
<!-- Node18 -->
<g id="node19" class="node"><title>Node18</title>
<polygon fill="white" stroke="#bfbfbf" points="115.885,-56.5 115.885,-75.5 160.885,-75.5 160.885,-56.5 115.885,-56.5"/>
<text text-anchor="middle" x="138.385" y="-63.5" font-family="Helvetica,sans-Serif" font-size="10.00">iosfwd</text>
</g>
<!-- Node17&#45;&gt;Node18 -->
<g id="edge22" class="edge"><title>Node17&#45;&gt;Node18</title>
<path fill="none" stroke="midnightblue" d="M298.279,-112.444C263.517,-102.564 206.551,-86.3734 170.829,-76.2208"/>
<polygon fill="midnightblue" stroke="midnightblue" points="171.489,-72.7698 160.913,-73.4026 169.575,-79.5032 171.489,-72.7698"/>
</g>
<!-- Node19&#45;&gt;Node1 -->
<g id="edge26" class="edge"><title>Node19&#45;&gt;Node1</title>
<path fill="none" stroke="midnightblue" d="M85.7373,-112.368C82.3484,-94.617 74.5305,-53.6664 69.9356,-29.5974"/>
<polygon fill="midnightblue" stroke="midnightblue" points="73.3385,-28.7577 68.0253,-19.5914 66.4627,-30.0704 73.3385,-28.7577"/>
</g>
<!-- Node19&#45;&gt;Node18 -->
<g id="edge25" class="edge"><title>Node19&#45;&gt;Node18</title>
<path fill="none" stroke="midnightblue" d="M95.8068,-112.083C103.233,-104.22 114.237,-92.5688 123.197,-83.0813"/>
<polygon fill="midnightblue" stroke="midnightblue" points="125.799,-85.4244 130.12,-75.7511 120.709,-80.618 125.799,-85.4244"/>
</g>
<!-- Node20 -->
<g id="node21" class="node"><title>Node20</title>
<polygon fill="white" stroke="#bfbfbf" points="17.8851,-56.5 17.8851,-75.5 58.8851,-75.5 58.8851,-56.5 17.8851,-56.5"/>
<text text-anchor="middle" x="38.3851" y="-63.5" font-family="Helvetica,sans-Serif" font-size="10.00">string</text>
</g>
<!-- Node19&#45;&gt;Node20 -->
<g id="edge27" class="edge"><title>Node19&#45;&gt;Node20</title>
<path fill="none" stroke="midnightblue" d="M79.2938,-112.083C72.2298,-104.298 61.7976,-92.8015 53.2362,-83.3665"/>
<polygon fill="midnightblue" stroke="midnightblue" points="55.6378,-80.8047 46.3259,-75.7511 50.4539,-85.5087 55.6378,-80.8047"/>
</g>
<!-- Node21&#45;&gt;Node11 -->
<g id="edge32" class="edge"><title>Node21&#45;&gt;Node11</title>
<path fill="none" stroke="midnightblue" d="M489.605,-112.197C502.3,-103.89 520.914,-90.5639 534.385,-76 547.746,-61.5551 559.566,-42.3644 567.235,-28.5855"/>
<polygon fill="midnightblue" stroke="midnightblue" points="570.385,-30.1174 572.048,-19.6539 564.223,-26.7965 570.385,-30.1174"/>
</g>
<!-- Node21&#45;&gt;Node12 -->
<g id="edge33" class="edge"><title>Node21&#45;&gt;Node12</title>
<path fill="none" stroke="midnightblue" d="M434.663,-112.444C389.339,-102.92 316.109,-87.5333 267.608,-77.3425"/>
<polygon fill="midnightblue" stroke="midnightblue" points="268.159,-73.8819 257.653,-75.2508 266.719,-80.7323 268.159,-73.8819"/>
</g>
<!-- Node21&#45;&gt;Node14 -->
<g id="edge31" class="edge"><title>Node21&#45;&gt;Node14</title>
<path fill="none" stroke="midnightblue" d="M488.159,-112.495C504.994,-100.19 531.072,-76.631 518.385,-56 505.971,-35.8127 481.39,-24.3483 461.2,-18.05"/>
<polygon fill="midnightblue" stroke="midnightblue" points="461.999,-14.6385 451.423,-15.2829 460.092,-21.3739 461.999,-14.6385"/>
</g>
<!-- Node22 -->
<g id="node23" class="node"><title>Node22</title>
<polygon fill="white" stroke="#bfbfbf" points="275.885,-56.5 275.885,-75.5 372.885,-75.5 372.885,-56.5 275.885,-56.5"/>
<text text-anchor="middle" x="324.385" y="-63.5" font-family="Helvetica,sans-Serif" font-size="10.00">eigen3/Eigen/Core</text>
</g>
<!-- Node21&#45;&gt;Node22 -->
<g id="edge29" class="edge"><title>Node21&#45;&gt;Node22</title>
<path fill="none" stroke="midnightblue" d="M451.459,-112.444C426.166,-103.399 386.083,-89.064 357.705,-78.9158"/>
<polygon fill="midnightblue" stroke="midnightblue" points="358.794,-75.5882 348.2,-75.5164 356.437,-82.1794 358.794,-75.5882"/>
</g>
<!-- Node23 -->
<g id="node24" class="node"><title>Node23</title>
<polygon fill="white" stroke="#bfbfbf" points="390.885,-56.5 390.885,-75.5 509.885,-75.5 509.885,-56.5 390.885,-56.5"/>
<text text-anchor="middle" x="450.385" y="-63.5" font-family="Helvetica,sans-Serif" font-size="10.00">eigen3/Eigen/StdVector</text>
</g>
<!-- Node21&#45;&gt;Node23 -->
<g id="edge30" class="edge"><title>Node21&#45;&gt;Node23</title>
<path fill="none" stroke="midnightblue" d="M471.257,-112.083C467.871,-104.77 462.969,-94.1814 458.766,-85.1034"/>
<polygon fill="midnightblue" stroke="midnightblue" points="461.814,-83.3553 454.437,-75.7511 455.462,-86.2962 461.814,-83.3553"/>
</g>
<!-- Node25 -->
<g id="node26" class="node"><title>Node25</title>
<polygon fill="white" stroke="#bfbfbf" points="604.885,-56.5 604.885,-75.5 651.885,-75.5 651.885,-56.5 604.885,-56.5"/>
<text text-anchor="middle" x="628.385" y="-63.5" font-family="Helvetica,sans-Serif" font-size="10.00">math.h</text>
</g>
<!-- Node24&#45;&gt;Node25 -->
<g id="edge35" class="edge"><title>Node24&#45;&gt;Node25</title>
<path fill="none" stroke="midnightblue" d="M600,-112.083C604.753,-104.534 611.703,-93.4948 617.537,-84.2298"/>
<polygon fill="midnightblue" stroke="midnightblue" points="620.509,-86.0783 622.875,-75.7511 614.585,-82.3486 620.509,-86.0783"/>
</g>
</g>
</svg>
