<?xml version="1.0" encoding="UTF-8" standalone="no"?>
<!DOCTYPE svg PUBLIC "-//W3C//DTD SVG 1.1//EN"
 "http://www.w3.org/Graphics/SVG/1.1/DTD/svg11.dtd">
<!-- Generated by graphviz version 2.38.0 (20140413.2041)
 -->
<!-- Title: ORB_SLAM2::Sim3Solver Pages: 1 -->
<svg width="1087pt" height="181pt"
 viewBox="0.00 0.00 1087.00 181.00" xmlns="http://www.w3.org/2000/svg" xmlns:xlink="http://www.w3.org/1999/xlink">
<g id="graph0" class="graph" transform="scale(1 1) rotate(0) translate(4 177)">
<title>ORB_SLAM2::Sim3Solver</title>
<polygon fill="white" stroke="none" points="-4,4 -4,-177 1083,-177 1083,4 -4,4"/>
<!-- Node1 -->
<g id="node1" class="node"><title>Node1</title>
<polygon fill="#bfbfbf" stroke="black" points="947,-80.5 947,-99.5 1079,-99.5 1079,-80.5 947,-80.5"/>
<text text-anchor="middle" x="1013" y="-87.5" font-family="Helvetica,sans-Serif" font-size="10.00">ORB_SLAM2::Sim3Solver</text>
</g>
<!-- Node2 -->
<g id="node2" class="node"><title>Node2</title>
<g id="a_node2"><a xlink:href="class_o_r_b___s_l_a_m2_1_1_key_frame.html" target="_top" xlink:title="Cuadro clave, keyframe. ">
<polygon fill="white" stroke="black" points="749,-80.5 749,-99.5 876,-99.5 876,-80.5 749,-80.5"/>
<text text-anchor="middle" x="812.5" y="-87.5" font-family="Helvetica,sans-Serif" font-size="10.00">ORB_SLAM2::KeyFrame</text>
</a>
</g>
</g>
<!-- Node2&#45;&gt;Node1 -->
<g id="edge1" class="edge"><title>Node2&#45;&gt;Node1</title>
<path fill="none" stroke="#9a32cd" stroke-dasharray="5,2" d="M886.229,-90C906.026,-90 927.341,-90 946.698,-90"/>
<polygon fill="#9a32cd" stroke="#9a32cd" points="886.034,-86.5001 876.034,-90 886.034,-93.5001 886.034,-86.5001"/>
<text text-anchor="middle" x="911.5" y="-104" font-family="Helvetica,sans-Serif" font-size="10.00"> mpKF1</text>
<text text-anchor="middle" x="911.5" y="-93" font-family="Helvetica,sans-Serif" font-size="10.00">mpKF2</text>
</g>
<!-- Node2&#45;&gt;Node2 -->
<g id="edge5" class="edge"><title>Node2&#45;&gt;Node2</title>
<path fill="none" stroke="#9a32cd" stroke-dasharray="5,2" d="M794.353,-109.4C795.565,-114.315 801.614,-118 812.5,-118 829.918,-118 834.953,-108.565 827.605,-99.7571"/>
<polygon fill="#9a32cd" stroke="#9a32cd" points="797.724,-110.347 797.395,-99.7571 791.048,-108.24 797.724,-110.347"/>
<text text-anchor="middle" x="812.5" y="-121" font-family="Helvetica,sans-Serif" font-size="10.00"> mpParent</text>
</g>
<!-- Node3 -->
<g id="node3" class="node"><title>Node3</title>
<g id="a_node3"><a xlink:href="class_o_r_b___s_l_a_m2_1_1_key_frame_database.html" target="_top" xlink:title="Lista invertida de KeyFrames, accesible por BoW. ">
<polygon fill="white" stroke="black" points="468,-118.5 468,-137.5 637,-137.5 637,-118.5 468,-118.5"/>
<text text-anchor="middle" x="552.5" y="-125.5" font-family="Helvetica,sans-Serif" font-size="10.00">ORB_SLAM2::KeyFrameDatabase</text>
</a>
</g>
</g>
<!-- Node3&#45;&gt;Node2 -->
<g id="edge2" class="edge"><title>Node3&#45;&gt;Node2</title>
<path fill="none" stroke="#9a32cd" stroke-dasharray="5,2" d="M638.909,-117.117C668.147,-113.214 701.035,-108.63 731,-104 739.832,-102.635 749.192,-101.095 758.286,-99.5469"/>
<polygon fill="#9a32cd" stroke="#9a32cd" points="638.183,-113.682 628.73,-118.467 639.104,-120.621 638.183,-113.682"/>
<text text-anchor="middle" x="693" y="-118" font-family="Helvetica,sans-Serif" font-size="10.00"> mpKeyFrameDB</text>
</g>
<!-- Node4 -->
<g id="node4" class="node"><title>Node4</title>
<g id="a_node4"><a xlink:href="class_d_bo_w2_1_1_templated_vocabulary.html" target="_top" xlink:title="Generic Vocabulary. ">
<polygon fill="white" stroke="black" points="243,-136 243,-166 395,-166 395,-136 243,-136"/>
<text text-anchor="start" x="251" y="-154" font-family="Helvetica,sans-Serif" font-size="10.00">DBoW2::TemplatedVocabulary</text>
<text text-anchor="middle" x="319" y="-143" font-family="Helvetica,sans-Serif" font-size="10.00">&lt; TDescriptor, F &gt;</text>
</a>
</g>
</g>
<!-- Node4&#45;&gt;Node2 -->
<g id="edge7" class="edge"><title>Node4&#45;&gt;Node2</title>
<path fill="none" stroke="#9a32cd" stroke-dasharray="5,2" d="M405.42,-159.604C490.278,-165.183 622.98,-165.801 731,-130 754.553,-122.194 779.903,-108.654 795.731,-99.5141"/>
<polygon fill="#9a32cd" stroke="#9a32cd" points="405.532,-156.104 395.314,-158.901 405.047,-163.087 405.532,-156.104"/>
<text text-anchor="middle" x="552.5" y="-165" font-family="Helvetica,sans-Serif" font-size="10.00"> mpORBvocabulary</text>
</g>
<!-- Node4&#45;&gt;Node3 -->
<g id="edge3" class="edge"><title>Node4&#45;&gt;Node3</title>
<path fill="none" stroke="#9a32cd" stroke-dasharray="5,2" d="M405.38,-142.517C425.796,-140.489 447.568,-138.326 467.903,-136.306"/>
<polygon fill="#9a32cd" stroke="#9a32cd" points="404.766,-139.061 395.161,-143.533 405.458,-146.027 404.766,-139.061"/>
<text text-anchor="middle" x="433" y="-143" font-family="Helvetica,sans-Serif" font-size="10.00"> mpVoc</text>
</g>
<!-- Node5 -->
<g id="node5" class="node"><title>Node5</title>
<g id="a_node5"><a xlink:href="class_d_bo_w2_1_1_general_scoring.html" target="_top" xlink:title="Base class of scoring functions. ">
<polygon fill="white" stroke="black" points="0,-141.5 0,-160.5 124,-160.5 124,-141.5 0,-141.5"/>
<text text-anchor="middle" x="62" y="-148.5" font-family="Helvetica,sans-Serif" font-size="10.00">DBoW2::GeneralScoring</text>
</a>
</g>
</g>
<!-- Node5&#45;&gt;Node4 -->
<g id="edge4" class="edge"><title>Node5&#45;&gt;Node4</title>
<path fill="none" stroke="#9a32cd" stroke-dasharray="5,2" d="M134.347,-151C168.159,-151 208.555,-151 242.841,-151"/>
<polygon fill="#9a32cd" stroke="#9a32cd" points="134.079,-147.5 124.079,-151 134.079,-154.5 134.079,-147.5"/>
<text text-anchor="middle" x="182" y="-154" font-family="Helvetica,sans-Serif" font-size="10.00"> m_scoring_object</text>
</g>
<!-- Node6 -->
<g id="node6" class="node"><title>Node6</title>
<g id="a_node6"><a xlink:href="class_o_r_b___s_l_a_m2_1_1_map.html" target="_top" xlink:title="Mapa del mundo, de puntos y keyframes. ">
<polygon fill="white" stroke="black" points="502,-80.5 502,-99.5 603,-99.5 603,-80.5 502,-80.5"/>
<text text-anchor="middle" x="552.5" y="-87.5" font-family="Helvetica,sans-Serif" font-size="10.00">ORB_SLAM2::Map</text>
</a>
</g>
</g>
<!-- Node6&#45;&gt;Node2 -->
<g id="edge6" class="edge"><title>Node6&#45;&gt;Node2</title>
<path fill="none" stroke="#9a32cd" stroke-dasharray="5,2" d="M613.268,-90C653.854,-90 707.432,-90 748.654,-90"/>
<polygon fill="#9a32cd" stroke="#9a32cd" points="613.245,-86.5001 603.245,-90 613.245,-93.5001 613.245,-86.5001"/>
<text text-anchor="middle" x="693" y="-93" font-family="Helvetica,sans-Serif" font-size="10.00"> mpMap</text>
</g>
<!-- Node7 -->
<g id="node7" class="node"><title>Node7</title>
<g id="a_node7"><a xlink:href="class_d_bo_w2_1_1_feature_vector.html" target="_top" xlink:title="Vector of nodes with indexes of local features. ">
<polygon fill="white" stroke="black" points="493,-42.5 493,-61.5 612,-61.5 612,-42.5 493,-42.5"/>
<text text-anchor="middle" x="552.5" y="-49.5" font-family="Helvetica,sans-Serif" font-size="10.00">DBoW2::FeatureVector</text>
</a>
</g>
</g>
<!-- Node7&#45;&gt;Node2 -->
<g id="edge8" class="edge"><title>Node7&#45;&gt;Node2</title>
<path fill="none" stroke="#9a32cd" stroke-dasharray="5,2" d="M622.364,-60.0229C655.302,-64.0902 695.256,-69.3585 731,-75 741.251,-76.6179 752.201,-78.5329 762.619,-80.4438"/>
<polygon fill="#9a32cd" stroke="#9a32cd" points="622.731,-56.5418 612.38,-58.8002 621.88,-63.4899 622.731,-56.5418"/>
<text text-anchor="middle" x="693" y="-78" font-family="Helvetica,sans-Serif" font-size="10.00"> mFeatVec</text>
</g>
<!-- Node8 -->
<g id="node8" class="node"><title>Node8</title>
<polygon fill="white" stroke="#bfbfbf" points="254.5,-39 254.5,-69 383.5,-69 383.5,-39 254.5,-39"/>
<text text-anchor="start" x="262.5" y="-57" font-family="Helvetica,sans-Serif" font-size="10.00">std::map&lt; NodeId, std</text>
<text text-anchor="middle" x="319" y="-46" font-family="Helvetica,sans-Serif" font-size="10.00">::vector&lt; unsigned int &gt; &gt;</text>
</g>
<!-- Node8&#45;&gt;Node7 -->
<g id="edge9" class="edge"><title>Node8&#45;&gt;Node7</title>
<path fill="none" stroke="midnightblue" d="M393.769,-53.3627C425.779,-53.0861 462.744,-52.7668 492.84,-52.5068"/>
<polygon fill="midnightblue" stroke="midnightblue" points="393.534,-49.8645 383.565,-53.4508 393.594,-56.8642 393.534,-49.8645"/>
</g>
<!-- Node9 -->
<g id="node9" class="node"><title>Node9</title>
<g id="a_node9"><a xlink:href="class_d_bo_w2_1_1_bow_vector.html" target="_top" xlink:title="Vector of words to represent images. ">
<polygon fill="white" stroke="black" points="500,-3.5 500,-22.5 605,-22.5 605,-3.5 500,-3.5"/>
<text text-anchor="middle" x="552.5" y="-10.5" font-family="Helvetica,sans-Serif" font-size="10.00">DBoW2::BowVector</text>
</a>
</g>
</g>
<!-- Node9&#45;&gt;Node2 -->
<g id="edge10" class="edge"><title>Node9&#45;&gt;Node2</title>
<path fill="none" stroke="#9a32cd" stroke-dasharray="5,2" d="M615.288,-21.8859C649.897,-27.8483 693.504,-37.0167 731,-50 754.3,-58.0678 779.503,-71.4137 795.385,-80.4494"/>
<polygon fill="#9a32cd" stroke="#9a32cd" points="615.758,-18.4159 605.317,-20.2133 614.6,-25.3195 615.758,-18.4159"/>
<text text-anchor="middle" x="693" y="-53" font-family="Helvetica,sans-Serif" font-size="10.00"> mBowVec</text>
</g>
<!-- Node10 -->
<g id="node10" class="node"><title>Node10</title>
<polygon fill="white" stroke="#bfbfbf" points="240,-0.5 240,-19.5 398,-19.5 398,-0.5 240,-0.5"/>
<text text-anchor="middle" x="319" y="-7.5" font-family="Helvetica,sans-Serif" font-size="10.00">std::map&lt; WordId, WordValue &gt;</text>
</g>
<!-- Node10&#45;&gt;Node9 -->
<g id="edge11" class="edge"><title>Node10&#45;&gt;Node9</title>
<path fill="none" stroke="midnightblue" d="M408.425,-11.1459C439.362,-11.5468 473.061,-11.9835 499.979,-12.3323"/>
<polygon fill="midnightblue" stroke="midnightblue" points="408.097,-7.64145 398.053,-11.0115 408.006,-14.6409 408.097,-7.64145"/>
</g>
</g>
</svg>
