<?xml version="1.0" encoding="UTF-8" standalone="no"?>
<!DOCTYPE svg PUBLIC "-//W3C//DTD SVG 1.1//EN"
 "http://www.w3.org/Graphics/SVG/1.1/DTD/svg11.dtd">
<!-- Generated by graphviz version 2.38.0 (20140413.2041)
 -->
<!-- Title: g2o::BaseEdge&lt; D, E &gt; Pages: 1 -->
<svg width="370pt" height="285pt"
 viewBox="0.00 0.00 369.50 285.00" xmlns="http://www.w3.org/2000/svg" xmlns:xlink="http://www.w3.org/1999/xlink">
<g id="graph0" class="graph" transform="scale(1 1) rotate(0) translate(4 281)">
<title>g2o::BaseEdge&lt; D, E &gt;</title>
<polygon fill="white" stroke="none" points="-4,4 -4,-281 365.5,-281 365.5,4 -4,4"/>
<!-- Node0 -->
<g id="node1" class="node"><title>Node0</title>
<polygon fill="#bfbfbf" stroke="black" points="120.5,-67.5 120.5,-86.5 242.5,-86.5 242.5,-67.5 120.5,-67.5"/>
<text text-anchor="middle" x="181.5" y="-74.5" font-family="Helvetica,sans-Serif" font-size="10.00">g2o::BaseEdge&lt; D, E &gt;</text>
</g>
<!-- Node4 -->
<g id="node5" class="node"><title>Node4</title>
<g id="a_node5"><a xlink:href="classg2o_1_1_base_binary_edge.html" target="_top" xlink:title="g2o::BaseBinaryEdge\l\&lt; D, E \&gt;">
<polygon fill="white" stroke="black" points="0,-0.5 0,-30.5 111,-30.5 111,-0.5 0,-0.5"/>
<text text-anchor="start" x="8" y="-18.5" font-family="Helvetica,sans-Serif" font-size="10.00">g2o::BaseBinaryEdge</text>
<text text-anchor="middle" x="55.5" y="-7.5" font-family="Helvetica,sans-Serif" font-size="10.00">&lt; D, E &gt;</text>
</a>
</g>
</g>
<!-- Node0&#45;&gt;Node4 -->
<g id="edge4" class="edge"><title>Node0&#45;&gt;Node4</title>
<path fill="none" stroke="midnightblue" d="M154.395,-63.2003C134.032,-53.5845 106.161,-40.4232 85.1957,-30.523"/>
<polygon fill="midnightblue" stroke="midnightblue" points="152.91,-66.3699 163.447,-67.4751 155.899,-60.0401 152.91,-66.3699"/>
</g>
<!-- Node5 -->
<g id="node6" class="node"><title>Node5</title>
<g id="a_node6"><a xlink:href="classg2o_1_1_base_multi_edge.html" target="_top" xlink:title="base class to represent an edge connecting an arbitrary number of nodes ">
<polygon fill="white" stroke="black" points="129.5,-0.5 129.5,-30.5 233.5,-30.5 233.5,-0.5 129.5,-0.5"/>
<text text-anchor="start" x="137.5" y="-18.5" font-family="Helvetica,sans-Serif" font-size="10.00">g2o::BaseMultiEdge</text>
<text text-anchor="middle" x="181.5" y="-7.5" font-family="Helvetica,sans-Serif" font-size="10.00">&lt; D, E &gt;</text>
</a>
</g>
</g>
<!-- Node0&#45;&gt;Node5 -->
<g id="edge5" class="edge"><title>Node0&#45;&gt;Node5</title>
<path fill="none" stroke="midnightblue" d="M181.5,-57.2349C181.5,-48.5864 181.5,-38.4969 181.5,-30.523"/>
<polygon fill="midnightblue" stroke="midnightblue" points="178,-57.4751 181.5,-67.4751 185,-57.4751 178,-57.4751"/>
</g>
<!-- Node6 -->
<g id="node7" class="node"><title>Node6</title>
<g id="a_node7"><a xlink:href="classg2o_1_1_base_unary_edge.html" target="_top" xlink:title="g2o::BaseUnaryEdge\l\&lt; D, E \&gt;">
<polygon fill="white" stroke="black" points="251.5,-0.5 251.5,-30.5 361.5,-30.5 361.5,-0.5 251.5,-0.5"/>
<text text-anchor="start" x="259.5" y="-18.5" font-family="Helvetica,sans-Serif" font-size="10.00">g2o::BaseUnaryEdge</text>
<text text-anchor="middle" x="306.5" y="-7.5" font-family="Helvetica,sans-Serif" font-size="10.00">&lt; D, E &gt;</text>
</a>
</g>
</g>
<!-- Node0&#45;&gt;Node6 -->
<g id="edge6" class="edge"><title>Node0&#45;&gt;Node6</title>
<path fill="none" stroke="midnightblue" d="M208.665,-63.0696C228.841,-53.4655 256.335,-40.3784 277.04,-30.523"/>
<polygon fill="midnightblue" stroke="midnightblue" points="206.934,-60.0169 199.409,-67.4751 209.943,-66.3374 206.934,-60.0169"/>
</g>
<!-- Node1 -->
<g id="node2" class="node"><title>Node1</title>
<g id="a_node2"><a xlink:href="classg2o_1_1_optimizable_graph_1_1_edge.html" target="_top" xlink:title="g2o::OptimizableGraph\l::Edge">
<polygon fill="white" stroke="black" points="123.5,-123.5 123.5,-153.5 239.5,-153.5 239.5,-123.5 123.5,-123.5"/>
<text text-anchor="start" x="131.5" y="-141.5" font-family="Helvetica,sans-Serif" font-size="10.00">g2o::OptimizableGraph</text>
<text text-anchor="middle" x="181.5" y="-130.5" font-family="Helvetica,sans-Serif" font-size="10.00">::Edge</text>
</a>
</g>
</g>
<!-- Node1&#45;&gt;Node0 -->
<g id="edge1" class="edge"><title>Node1&#45;&gt;Node0</title>
<path fill="none" stroke="midnightblue" d="M181.5,-113.289C181.5,-103.857 181.5,-93.6548 181.5,-86.6578"/>
<polygon fill="midnightblue" stroke="midnightblue" points="178,-113.399 181.5,-123.399 185,-113.399 178,-113.399"/>
</g>
<!-- Node2 -->
<g id="node3" class="node"><title>Node2</title>
<g id="a_node3"><a xlink:href="classg2o_1_1_hyper_graph_1_1_edge.html" target="_top" xlink:title="Abstract Edge class. ">
<polygon fill="white" stroke="black" points="122,-190.5 122,-209.5 241,-209.5 241,-190.5 122,-190.5"/>
<text text-anchor="middle" x="181.5" y="-197.5" font-family="Helvetica,sans-Serif" font-size="10.00">g2o::HyperGraph::Edge</text>
</a>
</g>
</g>
<!-- Node2&#45;&gt;Node1 -->
<g id="edge2" class="edge"><title>Node2&#45;&gt;Node1</title>
<path fill="none" stroke="midnightblue" d="M181.5,-180.235C181.5,-171.586 181.5,-161.497 181.5,-153.523"/>
<polygon fill="midnightblue" stroke="midnightblue" points="178,-180.475 181.5,-190.475 185,-180.475 178,-180.475"/>
</g>
<!-- Node3 -->
<g id="node4" class="node"><title>Node3</title>
<g id="a_node4"><a xlink:href="structg2o_1_1_hyper_graph_1_1_hyper_graph_element.html" target="_top" xlink:title="base hyper graph element, specialized in vertex and edge ">
<polygon fill="white" stroke="black" points="107,-246.5 107,-276.5 256,-276.5 256,-246.5 107,-246.5"/>
<text text-anchor="start" x="115" y="-264.5" font-family="Helvetica,sans-Serif" font-size="10.00">g2o::HyperGraph::HyperGraph</text>
<text text-anchor="middle" x="181.5" y="-253.5" font-family="Helvetica,sans-Serif" font-size="10.00">Element</text>
</a>
</g>
</g>
<!-- Node3&#45;&gt;Node2 -->
<g id="edge3" class="edge"><title>Node3&#45;&gt;Node2</title>
<path fill="none" stroke="midnightblue" d="M181.5,-236.289C181.5,-226.857 181.5,-216.655 181.5,-209.658"/>
<polygon fill="midnightblue" stroke="midnightblue" points="178,-236.399 181.5,-246.399 185,-236.399 178,-236.399"/>
</g>
</g>
</svg>
