<?xml version="1.0" encoding="UTF-8" standalone="no"?>
<!DOCTYPE svg PUBLIC "-//W3C//DTD SVG 1.1//EN"
 "http://www.w3.org/Graphics/SVG/1.1/DTD/svg11.dtd">
<!-- Generated by graphviz version 2.38.0 (20140413.2041)
 -->
<!-- Title: ORB_SLAM2::System Pages: 1 -->
<svg width="1409pt" height="795pt"
 viewBox="0.00 0.00 1409.00 795.47" xmlns="http://www.w3.org/2000/svg" xmlns:xlink="http://www.w3.org/1999/xlink">
<g id="graph0" class="graph" transform="scale(1 1) rotate(0) translate(4 791.475)">
<title>ORB_SLAM2::System</title>
<polygon fill="white" stroke="none" points="-4,4 -4,-791.475 1405,-791.475 1405,4 -4,4"/>
<!-- Node1 -->
<g id="node1" class="node"><title>Node1</title>
<polygon fill="#bfbfbf" stroke="black" points="555.5,-602.975 555.5,-621.975 671.5,-621.975 671.5,-602.975 555.5,-602.975"/>
<text text-anchor="middle" x="613.5" y="-609.975" font-family="Helvetica,sans-Serif" font-size="10.00">ORB_SLAM2::System</text>
</g>
<!-- Node8 -->
<g id="node8" class="node"><title>Node8</title>
<g id="a_node8"><a xlink:href="class_o_r_b___s_l_a_m2_1_1_tracking.html" target="_top" xlink:title="Objeto único que se ejecuta en su propio Trhead, y se inicia con Run(). ">
<polygon fill="white" stroke="black" points="786,-403.975 786,-422.975 905,-422.975 905,-403.975 786,-403.975"/>
<text text-anchor="middle" x="845.5" y="-410.975" font-family="Helvetica,sans-Serif" font-size="10.00">ORB_SLAM2::Tracking</text>
</a>
</g>
</g>
<!-- Node1&#45;&gt;Node8 -->
<g id="edge33" class="edge"><title>Node1&#45;&gt;Node8</title>
<path fill="none" stroke="#9a32cd" stroke-dasharray="5,2" d="M632.141,-595.749C647.063,-582.395 669.544,-564.061 692,-552.475 723.362,-536.293 742.409,-553.776 768,-529.475 785.127,-513.211 773.95,-499.788 786,-479.475 799.28,-457.087 820.72,-435.329 833.626,-423.236"/>
<polygon fill="#9a32cd" stroke="#9a32cd" points="629.691,-593.248 624.678,-602.582 634.417,-598.411 629.691,-593.248"/>
<text text-anchor="middle" x="730" y="-555.475" font-family="Helvetica,sans-Serif" font-size="10.00"> mpSystem</text>
</g>
<!-- Node13 -->
<g id="node13" class="node"><title>Node13</title>
<g id="a_node13"><a xlink:href="class_o_r_b___s_l_a_m2_1_1_viewer.html" target="_top" xlink:title="Viewer representa la interfaz de usuario. ">
<polygon fill="white" stroke="black" points="1026,-591.975 1026,-610.975 1138,-610.975 1138,-591.975 1026,-591.975"/>
<text text-anchor="middle" x="1082" y="-598.975" font-family="Helvetica,sans-Serif" font-size="10.00">ORB_SLAM2::Viewer</text>
</a>
</g>
</g>
<!-- Node1&#45;&gt;Node13 -->
<g id="edge32" class="edge"><title>Node1&#45;&gt;Node13</title>
<path fill="none" stroke="#9a32cd" stroke-dasharray="5,2" d="M681.548,-621.666C685.079,-621.981 688.579,-622.255 692,-622.475 810.958,-630.118 950.502,-617.283 1025.9,-608.544"/>
<polygon fill="#9a32cd" stroke="#9a32cd" points="681.852,-618.179 671.557,-620.68 681.165,-625.145 681.852,-618.179"/>
<text text-anchor="middle" x="845.5" y="-627.475" font-family="Helvetica,sans-Serif" font-size="10.00"> mpSystem</text>
</g>
<!-- Node2 -->
<g id="node2" class="node"><title>Node2</title>
<g id="a_node2"><a xlink:href="class_o_r_b___s_l_a_m2_1_1_frame_drawer.html" target="_top" xlink:title="Clase de instancia única que se ocupa de mostrar la imagen de la cámara, con marcas verdes sobre los ...">
<polygon fill="white" stroke="black" points="281.5,-578.975 281.5,-597.975 422.5,-597.975 422.5,-578.975 281.5,-578.975"/>
<text text-anchor="middle" x="352" y="-585.975" font-family="Helvetica,sans-Serif" font-size="10.00">ORB_SLAM2::FrameDrawer</text>
</a>
</g>
</g>
<!-- Node2&#45;&gt;Node1 -->
<g id="edge1" class="edge"><title>Node2&#45;&gt;Node1</title>
<path fill="none" stroke="#9a32cd" stroke-dasharray="5,2" d="M432.724,-595.848C472.402,-599.518 519.451,-603.869 555.464,-607.2"/>
<polygon fill="#9a32cd" stroke="#9a32cd" points="432.821,-592.342 422.541,-594.906 432.176,-599.312 432.821,-592.342"/>
<text text-anchor="middle" x="488" y="-607.475" font-family="Helvetica,sans-Serif" font-size="10.00"> mpFrameDrawer</text>
</g>
<!-- Node2&#45;&gt;Node8 -->
<g id="edge16" class="edge"><title>Node2&#45;&gt;Node8</title>
<path fill="none" stroke="#9a32cd" stroke-dasharray="5,2" d="M399.013,-575.781C407.136,-573.043 415.414,-569.922 423,-566.475 431.536,-562.596 432.463,-559.35 441,-555.475 539.817,-510.623 571.174,-517.161 674,-482.475 716.096,-468.275 726.877,-465.286 768,-448.475 787.603,-440.461 809.542,-430.297 824.882,-422.989"/>
<polygon fill="#9a32cd" stroke="#9a32cd" points="397.687,-572.531 389.24,-578.926 399.831,-579.195 397.687,-572.531"/>
<text text-anchor="middle" x="613.5" y="-518.475" font-family="Helvetica,sans-Serif" font-size="10.00"> mpFrameDrawer</text>
</g>
<!-- Node2&#45;&gt;Node13 -->
<g id="edge29" class="edge"><title>Node2&#45;&gt;Node13</title>
<path fill="none" stroke="#9a32cd" stroke-dasharray="5,2" d="M417.169,-603.333C419.251,-604.884 421.208,-606.593 423,-608.475 447.239,-633.923 413.465,-663.634 441,-685.475 468.701,-707.447 406.262,-725.598 905,-666.475 945.858,-661.631 957.342,-663.559 996,-649.475 1022.75,-639.729 1051,-622.102 1067.26,-611.136"/>
<polygon fill="#9a32cd" stroke="#9a32cd" points="418.955,-600.322 408.596,-598.099 415.307,-606.297 418.955,-600.322"/>
<text text-anchor="middle" x="730" y="-692.475" font-family="Helvetica,sans-Serif" font-size="10.00"> mpFrameDrawer</text>
</g>
<!-- Node3 -->
<g id="node3" class="node"><title>Node3</title>
<g id="a_node3"><a xlink:href="class_o_r_b___s_l_a_m2_1_1_map.html" target="_top" xlink:title="Mapa del mundo, de puntos y keyframes. ">
<polygon fill="white" stroke="black" points="34,-557.975 34,-576.975 135,-576.975 135,-557.975 34,-557.975"/>
<text text-anchor="middle" x="84.5" y="-564.975" font-family="Helvetica,sans-Serif" font-size="10.00">ORB_SLAM2::Map</text>
</a>
</g>
</g>
<!-- Node3&#45;&gt;Node1 -->
<g id="edge37" class="edge"><title>Node3&#45;&gt;Node1</title>
<path fill="none" stroke="#9a32cd" stroke-dasharray="5,2" d="M125.473,-579.916C144.036,-585.327 166.491,-591.358 187,-595.475 339.003,-625.982 380.123,-626.455 535,-619.475 541.613,-619.177 548.534,-618.736 555.402,-618.219"/>
<polygon fill="#9a32cd" stroke="#9a32cd" points="126.457,-576.557 115.875,-577.073 124.469,-583.269 126.457,-576.557"/>
<text text-anchor="middle" x="352" y="-625.475" font-family="Helvetica,sans-Serif" font-size="10.00"> mpMap</text>
</g>
<!-- Node3&#45;&gt;Node2 -->
<g id="edge2" class="edge"><title>Node3&#45;&gt;Node2</title>
<path fill="none" stroke="#9a32cd" stroke-dasharray="5,2" d="M145.352,-572.209C185.703,-575.4 239.078,-579.622 281.338,-582.965"/>
<polygon fill="#9a32cd" stroke="#9a32cd" points="145.372,-568.699 135.127,-571.4 144.82,-575.678 145.372,-568.699"/>
<text text-anchor="middle" x="225" y="-583.475" font-family="Helvetica,sans-Serif" font-size="10.00"> mpMap</text>
</g>
<!-- Node5 -->
<g id="node5" class="node"><title>Node5</title>
<g id="a_node5"><a xlink:href="class_o_r_b___s_l_a_m2_1_1_loop_closing.html" target="_top" xlink:title="Cierre de bucles. ">
<polygon fill="white" stroke="black" points="1014,-343.975 1014,-362.975 1150,-362.975 1150,-343.975 1014,-343.975"/>
<text text-anchor="middle" x="1082" y="-350.975" font-family="Helvetica,sans-Serif" font-size="10.00">ORB_SLAM2::LoopClosing</text>
</a>
</g>
</g>
<!-- Node3&#45;&gt;Node5 -->
<g id="edge10" class="edge"><title>Node3&#45;&gt;Node5</title>
<path fill="none" stroke="#9a32cd" stroke-dasharray="5,2" d="M92.6213,-548.195C113.387,-494.455 178.938,-341.31 281,-255.475 380.926,-171.435 424.875,-169.612 553,-144.475 771.638,-101.58 1015.74,-297.307 1069.95,-343.77"/>
<polygon fill="#9a32cd" stroke="#9a32cd" points="89.2401,-547.24 88.9699,-557.832 95.786,-549.721 89.2401,-547.24"/>
<text text-anchor="middle" x="613.5" y="-147.475" font-family="Helvetica,sans-Serif" font-size="10.00"> mpMap</text>
</g>
<!-- Node6 -->
<g id="node6" class="node"><title>Node6</title>
<g id="a_node6"><a xlink:href="class_o_r_b___s_l_a_m2_1_1_key_frame.html" target="_top" xlink:title="Cuadro clave, keyframe. ">
<polygon fill="white" stroke="black" points="288.5,-88.9746 288.5,-107.975 415.5,-107.975 415.5,-88.9746 288.5,-88.9746"/>
<text text-anchor="middle" x="352" y="-95.9746" font-family="Helvetica,sans-Serif" font-size="10.00">ORB_SLAM2::KeyFrame</text>
</a>
</g>
</g>
<!-- Node3&#45;&gt;Node6 -->
<g id="edge9" class="edge"><title>Node3&#45;&gt;Node6</title>
<path fill="none" stroke="#9a32cd" stroke-dasharray="5,2" d="M90.8521,-548.157C104.796,-497.463 142.963,-356.333 169,-237.475 178.383,-194.643 157.055,-172.504 187,-140.475 195.054,-131.86 257.473,-117.538 302.922,-108.052"/>
<polygon fill="#9a32cd" stroke="#9a32cd" points="87.4744,-547.24 88.1884,-557.81 94.2222,-549.102 87.4744,-547.24"/>
<text text-anchor="middle" x="225" y="-143.475" font-family="Helvetica,sans-Serif" font-size="10.00"> mpMap</text>
</g>
<!-- Node7 -->
<g id="node7" class="node"><title>Node7</title>
<g id="a_node7"><a xlink:href="class_o_r_b___s_l_a_m2_1_1_local_mapping.html" target="_top" xlink:title="LocalMapping tiene una única instancia ejecutando el método Run en su propio thread. ">
<polygon fill="white" stroke="black" points="1259,-403.975 1259,-422.975 1401,-422.975 1401,-403.975 1259,-403.975"/>
<text text-anchor="middle" x="1330" y="-410.975" font-family="Helvetica,sans-Serif" font-size="10.00">ORB_SLAM2::LocalMapping</text>
</a>
</g>
</g>
<!-- Node3&#45;&gt;Node7 -->
<g id="edge14" class="edge"><title>Node3&#45;&gt;Node7</title>
<path fill="none" stroke="#9a32cd" stroke-dasharray="5,2" d="M96.4335,-585.658C128.547,-636.507 228.105,-776.475 351,-776.475 351,-776.475 351,-776.475 1083,-776.475 1258.86,-776.475 1317.65,-480.911 1327.45,-423.184"/>
<polygon fill="#9a32cd" stroke="#9a32cd" points="99.314,-583.661 91.0767,-576.998 93.3609,-587.344 99.314,-583.661"/>
<text text-anchor="middle" x="730" y="-779.475" font-family="Helvetica,sans-Serif" font-size="10.00"> mpMap</text>
</g>
<!-- Node3&#45;&gt;Node8 -->
<g id="edge23" class="edge"><title>Node3&#45;&gt;Node8</title>
<path fill="none" stroke="#9a32cd" stroke-dasharray="5,2" d="M101.409,-550.439C132.362,-518.668 204.4,-451.263 281,-425.475 373.042,-394.488 661.141,-404.34 785.916,-410.329"/>
<polygon fill="#9a32cd" stroke="#9a32cd" points="98.8406,-548.061 94.4471,-557.702 103.894,-552.905 98.8406,-548.061"/>
<text text-anchor="middle" x="488" y="-408.475" font-family="Helvetica,sans-Serif" font-size="10.00"> mpMap</text>
</g>
<!-- Node10 -->
<g id="node10" class="node"><title>Node10</title>
<g id="a_node10"><a xlink:href="class_o_r_b___s_l_a_m2_1_1_map_drawer.html" target="_top" xlink:title="Esta clase contiene los métodos para dibujar en pangolin. ">
<polygon fill="white" stroke="black" points="286,-537.975 286,-556.975 418,-556.975 418,-537.975 286,-537.975"/>
<text text-anchor="middle" x="352" y="-544.975" font-family="Helvetica,sans-Serif" font-size="10.00">ORB_SLAM2::MapDrawer</text>
</a>
</g>
</g>
<!-- Node3&#45;&gt;Node10 -->
<g id="edge22" class="edge"><title>Node3&#45;&gt;Node10</title>
<path fill="none" stroke="#9a32cd" stroke-dasharray="5,2" d="M145.42,-557.44C159.053,-555.486 173.497,-553.674 187,-552.475 219.488,-549.589 255.722,-548.284 285.852,-547.724"/>
<polygon fill="#9a32cd" stroke="#9a32cd" points="144.562,-554.029 135.182,-558.955 145.587,-560.954 144.562,-554.029"/>
<text text-anchor="middle" x="225" y="-555.475" font-family="Helvetica,sans-Serif" font-size="10.00"> mpMap</text>
</g>
<!-- Node14 -->
<g id="node14" class="node"><title>Node14</title>
<g id="a_node14"><a xlink:href="class_o_r_b___s_l_a_m2_1_1_serializer.html" target="_top" xlink:title="Clase encargada de la serialización (guarda y carga) del mapa. ">
<polygon fill="white" stroke="black" points="291,-667.975 291,-686.975 413,-686.975 413,-667.975 291,-667.975"/>
<text text-anchor="middle" x="352" y="-674.975" font-family="Helvetica,sans-Serif" font-size="10.00">ORB_SLAM2::Serializer</text>
</a>
</g>
</g>
<!-- Node3&#45;&gt;Node14 -->
<g id="edge40" class="edge"><title>Node3&#45;&gt;Node14</title>
<path fill="none" stroke="#9a32cd" stroke-dasharray="5,2" d="M100.475,-584.758C118.753,-604.611 151.625,-636.498 187,-652.475 219.417,-667.115 258.724,-673.448 290.73,-676.082"/>
<polygon fill="#9a32cd" stroke="#9a32cd" points="102.855,-582.17 93.5704,-577.067 97.6467,-586.846 102.855,-582.17"/>
<text text-anchor="middle" x="225" y="-675.475" font-family="Helvetica,sans-Serif" font-size="10.00"> mapa</text>
</g>
<!-- Node4 -->
<g id="node4" class="node"><title>Node4</title>
<g id="a_node4"><a xlink:href="class_o_r_b___s_l_a_m2_1_1_key_frame_database.html" target="_top" xlink:title="Lista invertida de KeyFrames, accesible por BoW. ">
<polygon fill="white" stroke="black" points="0,-208.975 0,-227.975 169,-227.975 169,-208.975 0,-208.975"/>
<text text-anchor="middle" x="84.5" y="-215.975" font-family="Helvetica,sans-Serif" font-size="10.00">ORB_SLAM2::KeyFrameDatabase</text>
</a>
</g>
</g>
<!-- Node4&#45;&gt;Node1 -->
<g id="edge3" class="edge"><title>Node4&#45;&gt;Node1</title>
<path fill="none" stroke="#9a32cd" stroke-dasharray="5,2" d="M96.2307,-236.791C112.97,-264.231 147.506,-316.515 187,-351.475 321.244,-470.306 385.251,-456.897 535,-555.475 558.716,-571.087 585.11,-591.1 600.167,-602.784"/>
<polygon fill="#9a32cd" stroke="#9a32cd" points="99.2176,-234.967 91.0729,-228.191 93.2143,-238.567 99.2176,-234.967"/>
<text text-anchor="middle" x="352" y="-494.475" font-family="Helvetica,sans-Serif" font-size="10.00"> mpKeyFrameDatabase</text>
</g>
<!-- Node4&#45;&gt;Node5 -->
<g id="edge5" class="edge"><title>Node4&#45;&gt;Node5</title>
<path fill="none" stroke="#9a32cd" stroke-dasharray="5,2" d="M94.0991,-199.437C108.617,-169.695 140.972,-112.793 187,-85.4746 461.424,77.401 589.159,-34.8514 905,-80.4746 945.805,-86.3689 965.063,-71.2225 996,-98.4746 1073.04,-166.337 1080.44,-305.885 1081,-343.791"/>
<polygon fill="#9a32cd" stroke="#9a32cd" points="90.8157,-198.193 89.7148,-208.731 97.1467,-201.18 90.8157,-198.193"/>
<text text-anchor="middle" x="613.5" y="-36.4746" font-family="Helvetica,sans-Serif" font-size="10.00"> mpKeyFrameDB</text>
</g>
<!-- Node4&#45;&gt;Node6 -->
<g id="edge7" class="edge"><title>Node4&#45;&gt;Node6</title>
<path fill="none" stroke="#9a32cd" stroke-dasharray="5,2" d="M95.4087,-200.024C110.907,-173.323 143.652,-124.88 187,-104.475 218.191,-89.7921 256.536,-87.6487 288.302,-89.4712"/>
<polygon fill="#9a32cd" stroke="#9a32cd" points="92.3337,-198.352 90.4916,-208.785 98.4381,-201.778 92.3337,-198.352"/>
<text text-anchor="middle" x="225" y="-107.475" font-family="Helvetica,sans-Serif" font-size="10.00"> mpKeyFrameDB</text>
</g>
<!-- Node4&#45;&gt;Node8 -->
<g id="edge17" class="edge"><title>Node4&#45;&gt;Node8</title>
<path fill="none" stroke="#9a32cd" stroke-dasharray="5,2" d="M115.554,-232.257C153.389,-249.077 220.736,-277.273 281,-293.475 451.831,-339.402 499.777,-325.836 674,-356.475 715.894,-363.842 727.763,-360.678 768,-374.475 790.14,-382.066 813.896,-395.015 828.96,-403.894"/>
<polygon fill="#9a32cd" stroke="#9a32cd" points="116.701,-228.935 106.144,-228.037 113.836,-235.322 116.701,-228.935"/>
<text text-anchor="middle" x="488" y="-339.475" font-family="Helvetica,sans-Serif" font-size="10.00"> mpKeyFrameDB</text>
</g>
<!-- Node5&#45;&gt;Node1 -->
<g id="edge4" class="edge"><title>Node5&#45;&gt;Node1</title>
<path fill="none" stroke="#9a32cd" stroke-dasharray="5,2" d="M1061.62,-369.614C998.715,-421.859 802.302,-583.783 768,-597.475 737.661,-609.585 701.377,-613.559 671.705,-614.402"/>
<polygon fill="#9a32cd" stroke="#9a32cd" points="1064.13,-372.082 1069.58,-362.997 1059.65,-366.699 1064.13,-372.082"/>
<text text-anchor="middle" x="845.5" y="-589.475" font-family="Helvetica,sans-Serif" font-size="10.00"> mpLoopCloser</text>
</g>
<!-- Node5&#45;&gt;Node7 -->
<g id="edge13" class="edge"><title>Node5&#45;&gt;Node7</title>
<path fill="none" stroke="#9a32cd" stroke-dasharray="5,2" d="M1160.24,-346.502C1186.38,-346.347 1215.41,-348.645 1241,-356.475 1272.33,-366.06 1303.11,-390.346 1318.62,-403.921"/>
<polygon fill="#9a32cd" stroke="#9a32cd" points="1159.94,-343.007 1150.01,-346.686 1160.07,-350.005 1159.94,-343.007"/>
<text text-anchor="middle" x="1204.5" y="-359.475" font-family="Helvetica,sans-Serif" font-size="10.00"> mpLoopCloser</text>
</g>
<!-- Node5&#45;&gt;Node8 -->
<g id="edge19" class="edge"><title>Node5&#45;&gt;Node8</title>
<path fill="none" stroke="#9a32cd" stroke-dasharray="5,2" d="M1003.42,-344.136C977.262,-343.544 948.301,-345.762 923,-354.475 894.455,-364.305 868.231,-389.48 855.176,-403.561"/>
<polygon fill="#9a32cd" stroke="#9a32cd" points="1003.55,-347.644 1013.67,-344.512 1003.81,-340.648 1003.55,-347.644"/>
<text text-anchor="middle" x="959.5" y="-357.475" font-family="Helvetica,sans-Serif" font-size="10.00"> mpLoopClosing</text>
</g>
<!-- Node6&#45;&gt;Node5 -->
<g id="edge6" class="edge"><title>Node6&#45;&gt;Node5</title>
<path fill="none" stroke="#9a32cd" stroke-dasharray="5,2" d="M425.548,-92.1704C574.548,-80.7737 908.408,-63.6912 996,-130.475 1067.83,-185.238 1078.96,-308.443 1080.69,-343.813"/>
<polygon fill="#9a32cd" stroke="#9a32cd" points="425.274,-88.6811 415.576,-92.9459 425.817,-95.66 425.274,-88.6811"/>
<text text-anchor="middle" x="730" y="-97.4746" font-family="Helvetica,sans-Serif" font-size="10.00"> mpMatchedKF</text>
<text text-anchor="middle" x="730" y="-86.4746" font-family="Helvetica,sans-Serif" font-size="10.00">mpCurrentKF</text>
</g>
<!-- Node6&#45;&gt;Node6 -->
<g id="edge8" class="edge"><title>Node6&#45;&gt;Node6</title>
<path fill="none" stroke="#9a32cd" stroke-dasharray="5,2" d="M328.563,-117.504C329.841,-122.603 337.654,-126.475 352,-126.475 374.395,-126.475 380.868,-117.04 371.42,-108.232"/>
<polygon fill="#9a32cd" stroke="#9a32cd" points="331.816,-118.799 332.58,-108.232 325.393,-116.016 331.816,-118.799"/>
<text text-anchor="middle" x="352" y="-129.475" font-family="Helvetica,sans-Serif" font-size="10.00"> mpParent</text>
</g>
<!-- Node6&#45;&gt;Node7 -->
<g id="edge12" class="edge"><title>Node6&#45;&gt;Node7</title>
<path fill="none" stroke="#9a32cd" stroke-dasharray="5,2" d="M405.366,-86.9772C417.043,-84.8002 429.401,-82.7941 441,-81.4746 490.49,-75.845 503.221,-79.2181 553,-77.4746 749.989,-70.5752 826.239,1.69214 996,-98.4746 1149.18,-188.86 1288.71,-361.52 1321.67,-403.903"/>
<polygon fill="#9a32cd" stroke="#9a32cd" points="404.47,-83.5856 395.317,-88.9213 405.799,-90.4582 404.47,-83.5856"/>
<text text-anchor="middle" x="845.5" y="-60.4746" font-family="Helvetica,sans-Serif" font-size="10.00"> mpCurrentKeyFrame</text>
</g>
<!-- Node6&#45;&gt;Node8 -->
<g id="edge18" class="edge"><title>Node6&#45;&gt;Node8</title>
<path fill="none" stroke="#9a32cd" stroke-dasharray="5,2" d="M393.15,-111.029C433.473,-123.564 497.426,-143.248 553,-159.475 648.23,-187.281 694.317,-153.046 768,-219.475 825.545,-271.354 840.339,-372.063 843.645,-403.712"/>
<polygon fill="#9a32cd" stroke="#9a32cd" points="394.016,-107.633 383.427,-108.002 391.935,-114.316 394.016,-107.633"/>
<text text-anchor="middle" x="613.5" y="-188.475" font-family="Helvetica,sans-Serif" font-size="10.00"> mpLastKeyFrame</text>
<text text-anchor="middle" x="613.5" y="-177.475" font-family="Helvetica,sans-Serif" font-size="10.00">mpReferenceKF</text>
</g>
<!-- Node11 -->
<g id="node11" class="node"><title>Node11</title>
<g id="a_node11"><a xlink:href="class_o_r_b___s_l_a_m2_1_1_frame.html" target="_top" xlink:title="Frame representa un cuadro, una imagen, con los puntos singulares detectados. ">
<polygon fill="white" stroke="black" points="558.5,-231.975 558.5,-250.975 668.5,-250.975 668.5,-231.975 558.5,-231.975"/>
<text text-anchor="middle" x="613.5" y="-238.975" font-family="Helvetica,sans-Serif" font-size="10.00">ORB_SLAM2::Frame</text>
</a>
</g>
</g>
<!-- Node6&#45;&gt;Node11 -->
<g id="edge26" class="edge"><title>Node6&#45;&gt;Node11</title>
<path fill="none" stroke="#9a32cd" stroke-dasharray="5,2" d="M363.193,-116.91C377.394,-140.784 405.441,-181.885 441,-203.475 476.452,-224.999 522.639,-234.379 558.148,-238.442"/>
<polygon fill="#9a32cd" stroke="#9a32cd" points="366.153,-115.037 358.128,-108.12 360.088,-118.532 366.153,-115.037"/>
<text text-anchor="middle" x="488" y="-237.475" font-family="Helvetica,sans-Serif" font-size="10.00"> mpReferenceKF</text>
</g>
<!-- Node7&#45;&gt;Node1 -->
<g id="edge38" class="edge"><title>Node7&#45;&gt;Node1</title>
<path fill="none" stroke="#9a32cd" stroke-dasharray="5,2" d="M1318.86,-432.075C1295.27,-473.436 1232.35,-573.106 1150,-620.475 1008.65,-701.777 948.836,-675.112 786,-666.475 744.045,-664.249 731.996,-669.338 692,-656.475 667.55,-648.611 642.222,-632.445 627.435,-622.05"/>
<polygon fill="#9a32cd" stroke="#9a32cd" points="1321.94,-433.745 1323.77,-423.309 1315.83,-430.326 1321.94,-433.745"/>
<text text-anchor="middle" x="959.5" y="-680.475" font-family="Helvetica,sans-Serif" font-size="10.00"> mpLocalMapper</text>
</g>
<!-- Node7&#45;&gt;Node5 -->
<g id="edge11" class="edge"><title>Node7&#45;&gt;Node5</title>
<path fill="none" stroke="#9a32cd" stroke-dasharray="5,2" d="M1287.2,-401.056C1272.63,-396.872 1256.14,-392.298 1241,-388.475 1203.68,-379.049 1161.06,-369.688 1129.49,-363.022"/>
<polygon fill="#9a32cd" stroke="#9a32cd" points="1286.36,-404.457 1296.94,-403.876 1288.31,-397.733 1286.36,-404.457"/>
<text text-anchor="middle" x="1204.5" y="-391.475" font-family="Helvetica,sans-Serif" font-size="10.00"> mpLocalMapper</text>
</g>
<!-- Node7&#45;&gt;Node8 -->
<g id="edge24" class="edge"><title>Node7&#45;&gt;Node8</title>
<path fill="none" stroke="#9a32cd" stroke-dasharray="5,2" d="M1248.59,-413.475C1151.68,-413.475 991.17,-413.475 905.182,-413.475"/>
<polygon fill="#9a32cd" stroke="#9a32cd" points="1248.63,-416.975 1258.63,-413.475 1248.63,-409.975 1248.63,-416.975"/>
<text text-anchor="middle" x="1082" y="-416.475" font-family="Helvetica,sans-Serif" font-size="10.00"> mpLocalMapper</text>
</g>
<!-- Node8&#45;&gt;Node1 -->
<g id="edge41" class="edge"><title>Node8&#45;&gt;Node1</title>
<path fill="none" stroke="#9a32cd" stroke-dasharray="5,2" d="M825.064,-430.296C812.055,-442.624 795.613,-460.465 786,-479.475 768.771,-513.547 793.858,-535.383 768,-563.475 744.1,-589.44 725.622,-575.75 692,-586.475 675.505,-591.736 657.13,-597.888 642.414,-602.886"/>
<polygon fill="#9a32cd" stroke="#9a32cd" points="827.616,-432.706 832.629,-423.372 822.89,-427.542 827.616,-432.706"/>
<text text-anchor="middle" x="730" y="-589.475" font-family="Helvetica,sans-Serif" font-size="10.00"> mpTracker</text>
</g>
<!-- Node8&#45;&gt;Node5 -->
<g id="edge35" class="edge"><title>Node8&#45;&gt;Node5</title>
<path fill="none" stroke="#9a32cd" stroke-dasharray="5,2" d="M883.223,-400.667C895.761,-396.51 909.919,-392.052 923,-388.475 959.315,-378.544 1000.9,-369.42 1032.29,-362.979"/>
<polygon fill="#9a32cd" stroke="#9a32cd" points="881.93,-397.409 873.567,-403.913 884.161,-404.044 881.93,-397.409"/>
<text text-anchor="middle" x="959.5" y="-391.475" font-family="Helvetica,sans-Serif" font-size="10.00"> mpTracker</text>
</g>
<!-- Node8&#45;&gt;Node7 -->
<g id="edge15" class="edge"><title>Node8&#45;&gt;Node7</title>
<path fill="none" stroke="#9a32cd" stroke-dasharray="5,2" d="M901.11,-424.633C908.442,-425.789 915.885,-426.79 923,-427.475 1063.68,-441.021 1100.17,-439.386 1241,-427.475 1252.72,-426.484 1265.23,-424.847 1277.04,-423.036"/>
<polygon fill="#9a32cd" stroke="#9a32cd" points="901.663,-421.177 891.222,-422.975 900.506,-428.081 901.663,-421.177"/>
<text text-anchor="middle" x="1082" y="-439.475" font-family="Helvetica,sans-Serif" font-size="10.00"> mpTracker</text>
</g>
<!-- Node8&#45;&gt;Node13 -->
<g id="edge31" class="edge"><title>Node8&#45;&gt;Node13</title>
<path fill="none" stroke="#9a32cd" stroke-dasharray="5,2" d="M865.624,-429.527C880.873,-442.13 902.927,-459.919 923,-474.475 954.435,-497.269 965.45,-498.507 996,-522.475 1025.16,-545.356 1056.32,-576.157 1071.53,-591.672"/>
<polygon fill="#9a32cd" stroke="#9a32cd" points="867.835,-426.814 857.908,-423.113 863.36,-432.197 867.835,-426.814"/>
<text text-anchor="middle" x="959.5" y="-525.475" font-family="Helvetica,sans-Serif" font-size="10.00"> mpTracker</text>
</g>
<!-- Node9 -->
<g id="node9" class="node"><title>Node9</title>
<g id="a_node9"><a xlink:href="class_o_r_b___s_l_a_m2_1_1_initializer.html" target="_top" xlink:title="Inicializador de mapa en modo monocular. ">
<polygon fill="white" stroke="black" points="553,-365.975 553,-384.975 674,-384.975 674,-365.975 553,-365.975"/>
<text text-anchor="middle" x="613.5" y="-372.975" font-family="Helvetica,sans-Serif" font-size="10.00">ORB_SLAM2::Initializer</text>
</a>
</g>
</g>
<!-- Node9&#45;&gt;Node8 -->
<g id="edge20" class="edge"><title>Node9&#45;&gt;Node8</title>
<path fill="none" stroke="#9a32cd" stroke-dasharray="5,2" d="M684.637,-377.993C710.971,-379.832 741.043,-383.005 768,-388.475 785.801,-392.086 805.251,-398.477 820.084,-403.892"/>
<polygon fill="#9a32cd" stroke="#9a32cd" points="684.569,-374.482 674.364,-377.329 684.117,-381.467 684.569,-374.482"/>
<text text-anchor="middle" x="730" y="-391.475" font-family="Helvetica,sans-Serif" font-size="10.00"> mpInitializer</text>
</g>
<!-- Node10&#45;&gt;Node1 -->
<g id="edge36" class="edge"><title>Node10&#45;&gt;Node1</title>
<path fill="none" stroke="#9a32cd" stroke-dasharray="5,2" d="M428.225,-558.128C461.324,-563.684 500.451,-571.443 535,-581.475 554.761,-587.213 576.445,-596.123 591.838,-602.921"/>
<polygon fill="#9a32cd" stroke="#9a32cd" points="428.594,-554.642 418.159,-556.475 427.459,-561.549 428.594,-554.642"/>
<text text-anchor="middle" x="488" y="-584.475" font-family="Helvetica,sans-Serif" font-size="10.00"> mpMapDrawer</text>
</g>
<!-- Node10&#45;&gt;Node8 -->
<g id="edge21" class="edge"><title>Node10&#45;&gt;Node8</title>
<path fill="none" stroke="#9a32cd" stroke-dasharray="5,2" d="M374.22,-532.186C391.434,-520.48 416.74,-504.803 441,-495.475 473.568,-482.951 691.175,-441.831 792.619,-423.02"/>
<polygon fill="#9a32cd" stroke="#9a32cd" points="372.222,-529.312 366.004,-537.891 376.214,-535.062 372.222,-529.312"/>
<text text-anchor="middle" x="613.5" y="-470.475" font-family="Helvetica,sans-Serif" font-size="10.00"> mpMapDrawer</text>
</g>
<!-- Node10&#45;&gt;Node13 -->
<g id="edge30" class="edge"><title>Node10&#45;&gt;Node13</title>
<path fill="none" stroke="#9a32cd" stroke-dasharray="5,2" d="M428.043,-555.911C494.785,-560.557 593.925,-560.339 674,-530.475 683.496,-526.933 682.414,-519.764 692,-516.475 723.949,-505.513 738.843,-499.422 768,-516.475 782.086,-524.713 772.701,-539.019 786,-548.475 857.352,-599.207 962.339,-606.148 1025.93,-604.944"/>
<polygon fill="#9a32cd" stroke="#9a32cd" points="428.261,-552.417 418.027,-555.16 427.738,-559.398 428.261,-552.417"/>
<text text-anchor="middle" x="730" y="-519.475" font-family="Helvetica,sans-Serif" font-size="10.00"> mpMapDrawer</text>
</g>
<!-- Node11&#45;&gt;Node8 -->
<g id="edge25" class="edge"><title>Node11&#45;&gt;Node8</title>
<path fill="none" stroke="#9a32cd" stroke-dasharray="5,2" d="M655.343,-229.687C688.419,-222.68 734.809,-218.86 768,-240.475 826.616,-278.646 840.651,-373.062 843.711,-403.702"/>
<polygon fill="#9a32cd" stroke="#9a32cd" points="654.498,-226.29 645.535,-231.939 656.064,-233.112 654.498,-226.29"/>
<text text-anchor="middle" x="730" y="-265.475" font-family="Helvetica,sans-Serif" font-size="10.00"> mLastFrame</text>
<text text-anchor="middle" x="730" y="-254.475" font-family="Helvetica,sans-Serif" font-size="10.00">mCurrentFrame</text>
<text text-anchor="middle" x="730" y="-243.475" font-family="Helvetica,sans-Serif" font-size="10.00">mInitialFrame</text>
</g>
<!-- Node12 -->
<g id="node12" class="node"><title>Node12</title>
<g id="a_node12"><a xlink:href="class_o_r_b___s_l_a_m2_1_1_o_r_bextractor.html" target="_top" xlink:title="Empaqueta todos los métodos de detección de puntos singulares y extracción de descriptores. ">
<polygon fill="white" stroke="black" points="281,-264.975 281,-283.975 423,-283.975 423,-264.975 281,-264.975"/>
<text text-anchor="middle" x="352" y="-271.975" font-family="Helvetica,sans-Serif" font-size="10.00">ORB_SLAM2::ORBextractor</text>
</a>
</g>
</g>
<!-- Node12&#45;&gt;Node8 -->
<g id="edge34" class="edge"><title>Node12&#45;&gt;Node8</title>
<path fill="none" stroke="#9a32cd" stroke-dasharray="5,2" d="M433.479,-276.1C538.005,-279.536 713.542,-290.228 768,-323.475 801.956,-344.205 828.38,-385.201 839.187,-403.843"/>
<polygon fill="#9a32cd" stroke="#9a32cd" points="433.385,-272.595 423.281,-275.78 433.166,-279.592 433.385,-272.595"/>
<text text-anchor="middle" x="613.5" y="-309.475" font-family="Helvetica,sans-Serif" font-size="10.00"> mpORBextractorLeft</text>
<text text-anchor="middle" x="613.5" y="-298.475" font-family="Helvetica,sans-Serif" font-size="10.00">mpIniORBextractor</text>
</g>
<!-- Node12&#45;&gt;Node11 -->
<g id="edge27" class="edge"><title>Node12&#45;&gt;Node11</title>
<path fill="none" stroke="#9a32cd" stroke-dasharray="5,2" d="M432.265,-263.614C435.214,-263.227 438.133,-262.846 441,-262.475 480.268,-257.393 524.638,-251.969 558.407,-247.906"/>
<polygon fill="#9a32cd" stroke="#9a32cd" points="431.616,-260.17 422.162,-264.952 432.535,-267.109 431.616,-260.17"/>
<text text-anchor="middle" x="488" y="-265.475" font-family="Helvetica,sans-Serif" font-size="10.00"> mpORBextractorLeft</text>
</g>
<!-- Node13&#45;&gt;Node1 -->
<g id="edge42" class="edge"><title>Node13&#45;&gt;Node1</title>
<path fill="none" stroke="#9a32cd" stroke-dasharray="5,2" d="M1045.8,-614.286C1030.65,-619.373 1012.63,-624.861 996,-628.475 863.911,-657.172 825.297,-659.898 692,-637.475 673.458,-634.355 653.264,-627.729 638.139,-622.082"/>
<polygon fill="#9a32cd" stroke="#9a32cd" points="1046.98,-617.583 1055.3,-611.025 1044.71,-610.962 1046.98,-617.583"/>
<text text-anchor="middle" x="845.5" y="-654.475" font-family="Helvetica,sans-Serif" font-size="10.00"> mpViewer</text>
</g>
<!-- Node13&#45;&gt;Node8 -->
<g id="edge28" class="edge"><title>Node13&#45;&gt;Node8</title>
<path fill="none" stroke="#9a32cd" stroke-dasharray="5,2" d="M1055.06,-586.962C1038.49,-578.039 1016.36,-566.766 996,-558.475 964.496,-545.643 947.123,-559.459 923,-535.475 904.461,-517.042 917.947,-502.187 905,-479.475 892.109,-456.861 870.542,-435.177 857.506,-423.159"/>
<polygon fill="#9a32cd" stroke="#9a32cd" points="1053.67,-590.189 1064.13,-591.905 1057.02,-584.044 1053.67,-590.189"/>
<text text-anchor="middle" x="959.5" y="-561.475" font-family="Helvetica,sans-Serif" font-size="10.00"> mpViewer</text>
</g>
<!-- Node14&#45;&gt;Node1 -->
<g id="edge39" class="edge"><title>Node14&#45;&gt;Node1</title>
<path fill="none" stroke="#9a32cd" stroke-dasharray="5,2" d="M423.526,-673.395C457.779,-670.008 499.176,-663.811 535,-652.475 558.097,-645.165 582.596,-631.368 597.723,-622.047"/>
<polygon fill="#9a32cd" stroke="#9a32cd" points="422.773,-669.95 413.139,-674.359 423.42,-676.92 422.773,-669.95"/>
<text text-anchor="middle" x="488" y="-673.475" font-family="Helvetica,sans-Serif" font-size="10.00"> serializer</text>
</g>
</g>
</svg>
