<?xml version="1.0" encoding="UTF-8" standalone="no"?>
<!DOCTYPE svg PUBLIC "-//W3C//DTD SVG 1.1//EN"
 "http://www.w3.org/Graphics/SVG/1.1/DTD/svg11.dtd">
<!-- Generated by graphviz version 2.38.0 (20140413.2041)
 -->
<!-- Title: g2o::EdgeStereoSE3ProjectXYZ Pages: 1 -->
<svg width="261pt" height="367pt"
 viewBox="0.00 0.00 260.50 367.00" xmlns="http://www.w3.org/2000/svg" xmlns:xlink="http://www.w3.org/1999/xlink">
<g id="graph0" class="graph" transform="scale(1 1) rotate(0) translate(4 363)">
<title>g2o::EdgeStereoSE3ProjectXYZ</title>
<polygon fill="white" stroke="none" points="-4,4 -4,-363 256.5,-363 256.5,4 -4,4"/>
<!-- Node6 -->
<g id="node1" class="node"><title>Node6</title>
<polygon fill="#bfbfbf" stroke="black" points="90.5,-0.5 90.5,-19.5 248.5,-19.5 248.5,-0.5 90.5,-0.5"/>
<text text-anchor="middle" x="169.5" y="-7.5" font-family="Helvetica,sans-Serif" font-size="10.00">g2o::EdgeStereoSE3ProjectXYZ</text>
</g>
<!-- Node7 -->
<g id="node2" class="node"><title>Node7</title>
<g id="a_node2"><a xlink:href="classg2o_1_1_base_binary_edge.html" target="_top" xlink:title="g2o::BaseBinaryEdge\l\&lt; 3, Vector3d, VertexSBAPoint\lXYZ, VertexSE3Expmap \&gt;">
<polygon fill="white" stroke="black" points="93,-57.5 93,-98.5 246,-98.5 246,-57.5 93,-57.5"/>
<text text-anchor="start" x="101" y="-86.5" font-family="Helvetica,sans-Serif" font-size="10.00">g2o::BaseBinaryEdge</text>
<text text-anchor="start" x="101" y="-75.5" font-family="Helvetica,sans-Serif" font-size="10.00">&lt; 3, Vector3d, VertexSBAPoint</text>
<text text-anchor="middle" x="169.5" y="-64.5" font-family="Helvetica,sans-Serif" font-size="10.00">XYZ, VertexSE3Expmap &gt;</text>
</a>
</g>
</g>
<!-- Node7&#45;&gt;Node6 -->
<g id="edge1" class="edge"><title>Node7&#45;&gt;Node6</title>
<path fill="none" stroke="midnightblue" d="M169.5,-47.1201C169.5,-37.1695 169.5,-26.8372 169.5,-19.7856"/>
<polygon fill="midnightblue" stroke="midnightblue" points="166,-47.1978 169.5,-57.1978 173,-47.1979 166,-47.1978"/>
</g>
<!-- Node8 -->
<g id="node3" class="node"><title>Node8</title>
<g id="a_node3"><a xlink:href="classg2o_1_1_base_edge.html" target="_top" xlink:title="g2o::BaseEdge\&lt; D, Vector3d \&gt;">
<polygon fill="white" stroke="black" points="92.5,-136.5 92.5,-155.5 246.5,-155.5 246.5,-136.5 92.5,-136.5"/>
<text text-anchor="middle" x="169.5" y="-143.5" font-family="Helvetica,sans-Serif" font-size="10.00">g2o::BaseEdge&lt; D, Vector3d &gt;</text>
</a>
</g>
</g>
<!-- Node8&#45;&gt;Node7 -->
<g id="edge2" class="edge"><title>Node8&#45;&gt;Node7</title>
<path fill="none" stroke="midnightblue" d="M169.5,-126.246C169.5,-117.647 169.5,-107.451 169.5,-98.7351"/>
<polygon fill="midnightblue" stroke="midnightblue" points="166,-126.372 169.5,-136.372 173,-126.372 166,-126.372"/>
</g>
<!-- Node9 -->
<g id="node4" class="node"><title>Node9</title>
<g id="a_node4"><a xlink:href="classg2o_1_1_optimizable_graph_1_1_edge.html" target="_top" xlink:title="g2o::OptimizableGraph\l::Edge">
<polygon fill="white" stroke="black" points="111.5,-193.5 111.5,-223.5 227.5,-223.5 227.5,-193.5 111.5,-193.5"/>
<text text-anchor="start" x="119.5" y="-211.5" font-family="Helvetica,sans-Serif" font-size="10.00">g2o::OptimizableGraph</text>
<text text-anchor="middle" x="169.5" y="-200.5" font-family="Helvetica,sans-Serif" font-size="10.00">::Edge</text>
</a>
</g>
</g>
<!-- Node9&#45;&gt;Node8 -->
<g id="edge3" class="edge"><title>Node9&#45;&gt;Node8</title>
<path fill="none" stroke="midnightblue" d="M169.5,-183.352C169.5,-173.513 169.5,-162.775 169.5,-155.54"/>
<polygon fill="midnightblue" stroke="midnightblue" points="166,-183.468 169.5,-193.468 173,-183.468 166,-183.468"/>
</g>
<!-- Node10 -->
<g id="node5" class="node"><title>Node10</title>
<g id="a_node5"><a xlink:href="classg2o_1_1_hyper_graph_1_1_edge.html" target="_top" xlink:title="Abstract Edge class. ">
<polygon fill="white" stroke="black" points="15,-271.5 15,-290.5 134,-290.5 134,-271.5 15,-271.5"/>
<text text-anchor="middle" x="74.5" y="-278.5" font-family="Helvetica,sans-Serif" font-size="10.00">g2o::HyperGraph::Edge</text>
</a>
</g>
</g>
<!-- Node10&#45;&gt;Node9 -->
<g id="edge4" class="edge"><title>Node10&#45;&gt;Node9</title>
<path fill="none" stroke="midnightblue" d="M94.5428,-265.126C111.058,-252.87 134.318,-235.608 150.532,-223.576"/>
<polygon fill="midnightblue" stroke="midnightblue" points="92.0934,-262.585 86.1489,-271.355 96.265,-268.207 92.0934,-262.585"/>
</g>
<!-- Node11 -->
<g id="node6" class="node"><title>Node11</title>
<g id="a_node6"><a xlink:href="structg2o_1_1_hyper_graph_1_1_hyper_graph_element.html" target="_top" xlink:title="base hyper graph element, specialized in vertex and edge ">
<polygon fill="white" stroke="black" points="0,-328.5 0,-358.5 149,-358.5 149,-328.5 0,-328.5"/>
<text text-anchor="start" x="8" y="-346.5" font-family="Helvetica,sans-Serif" font-size="10.00">g2o::HyperGraph::HyperGraph</text>
<text text-anchor="middle" x="74.5" y="-335.5" font-family="Helvetica,sans-Serif" font-size="10.00">Element</text>
</a>
</g>
</g>
<!-- Node11&#45;&gt;Node10 -->
<g id="edge5" class="edge"><title>Node11&#45;&gt;Node10</title>
<path fill="none" stroke="midnightblue" d="M74.5,-318.352C74.5,-308.513 74.5,-297.775 74.5,-290.54"/>
<polygon fill="midnightblue" stroke="midnightblue" points="71.0001,-318.468 74.5,-328.468 78.0001,-318.468 71.0001,-318.468"/>
</g>
<!-- Node12 -->
<g id="node7" class="node"><title>Node12</title>
<g id="a_node7"><a xlink:href="classg2o_1_1_robust_kernel.html" target="_top" xlink:title="base for all robust cost functions ">
<polygon fill="white" stroke="black" points="152.5,-271.5 152.5,-290.5 250.5,-290.5 250.5,-271.5 152.5,-271.5"/>
<text text-anchor="middle" x="201.5" y="-278.5" font-family="Helvetica,sans-Serif" font-size="10.00">g2o::RobustKernel</text>
</a>
</g>
</g>
<!-- Node12&#45;&gt;Node9 -->
<g id="edge6" class="edge"><title>Node12&#45;&gt;Node9</title>
<path fill="none" stroke="#9a32cd" stroke-dasharray="5,2" d="M193.313,-261.964C187.896,-250.029 180.896,-234.606 175.889,-223.576"/>
<polygon fill="#9a32cd" stroke="#9a32cd" points="190.256,-263.696 197.576,-271.355 196.63,-260.803 190.256,-263.696"/>
<text text-anchor="middle" x="220.5" y="-245" font-family="Helvetica,sans-Serif" font-size="10.00"> _robustKernel</text>
</g>
</g>
</svg>
