<?xml version="1.0" encoding="UTF-8" standalone="no"?>
<!DOCTYPE svg PUBLIC "-//W3C//DTD SVG 1.1//EN"
 "http://www.w3.org/Graphics/SVG/1.1/DTD/svg11.dtd">
<!-- Generated by graphviz version 2.40.1 (20161225.0304)
 -->
<!-- Title: ORB_SLAM2::LocalMapping Pages: 1 -->
<svg width="2147pt" height="948pt"
 viewBox="0.00 0.00 2147.00 948.00" xmlns="http://www.w3.org/2000/svg" xmlns:xlink="http://www.w3.org/1999/xlink">
<g id="graph0" class="graph" transform="scale(1 1) rotate(0) translate(4 944)">
<title>ORB_SLAM2::LocalMapping</title>
<polygon fill="#ffffff" stroke="transparent" points="-4,4 -4,-944 2143,-944 2143,4 -4,4"/>
<!-- Node1 -->
<g id="node1" class="node">
<title>Node1</title>
<polygon fill="#bfbfbf" stroke="#000000" points="1069,-455.5 1069,-474.5 1211,-474.5 1211,-455.5 1069,-455.5"/>
<text text-anchor="middle" x="1140" y="-462.5" font-family="Helvetica,sans-Serif" font-size="10.00" fill="#000000">ORB_SLAM2::LocalMapping</text>
</g>
<!-- Node11 -->
<g id="node11" class="node">
<title>Node11</title>
<g id="a_node11"><a xlink:href="class_o_r_b___s_l_a_m2_1_1_loop_closing.html" target="_top" xlink:title="Cierre de bucles. ">
<polygon fill="#ffffff" stroke="#000000" points="1338.5,-515.5 1338.5,-534.5 1474.5,-534.5 1474.5,-515.5 1338.5,-515.5"/>
<text text-anchor="middle" x="1406.5" y="-522.5" font-family="Helvetica,sans-Serif" font-size="10.00" fill="#000000">ORB_SLAM2::LoopClosing</text>
</a>
</g>
</g>
<!-- Node1&#45;&gt;Node11 -->
<g id="edge18" class="edge">
<title>Node1&#45;&gt;Node11</title>
<path fill="none" stroke="#9a32cd" stroke-dasharray="5,2" d="M1204.6281,-476.401C1238.5284,-482.7106 1280.6639,-491.0714 1318,-500 1337.0995,-504.5675 1358.2758,-510.5171 1375.1241,-515.4664"/>
<polygon fill="#9a32cd" stroke="#9a32cd" points="1204.8554,-472.8839 1194.3862,-474.5104 1203.5846,-479.7676 1204.8554,-472.8839"/>
<text text-anchor="middle" x="1273.5" y="-503" font-family="Helvetica,sans-Serif" font-size="10.00" fill="#000000"> mpLocalMapper</text>
</g>
<!-- Node13 -->
<g id="node13" class="node">
<title>Node13</title>
<g id="a_node13"><a xlink:href="class_o_r_b___s_l_a_m2_1_1_tracking.html" target="_top" xlink:title="Objeto único que se ejecuta en su propio Trhead, y se inicia con Run(). ">
<polygon fill="#ffffff" stroke="#000000" points="1822,-613.5 1822,-632.5 1941,-632.5 1941,-613.5 1822,-613.5"/>
<text text-anchor="middle" x="1881.5" y="-620.5" font-family="Helvetica,sans-Serif" font-size="10.00" fill="#000000">ORB_SLAM2::Tracking</text>
</a>
</g>
</g>
<!-- Node1&#45;&gt;Node13 -->
<g id="edge30" class="edge">
<title>Node1&#45;&gt;Node13</title>
<path fill="none" stroke="#9a32cd" stroke-dasharray="5,2" d="M1206.919,-454.1627C1214.3524,-453.2757 1221.8261,-452.5212 1229,-452 1268.4516,-449.1339 1278.4629,-450.7908 1318,-452 1426.2134,-455.3096 1713.4997,-426.5796 1804,-486 1851.285,-517.0462 1872.7726,-587.4587 1879.266,-613.2761"/>
<polygon fill="#9a32cd" stroke="#9a32cd" points="1206.318,-450.7108 1196.8396,-455.4449 1207.2014,-457.6549 1206.318,-450.7108"/>
<text text-anchor="middle" x="1533" y="-452" font-family="Helvetica,sans-Serif" font-size="10.00" fill="#000000"> mpLocalMapper</text>
</g>
<!-- Node20 -->
<g id="node20" class="node">
<title>Node20</title>
<g id="a_node20"><a xlink:href="class_o_r_b___s_l_a_m2_1_1_system.html" target="_top" xlink:title="System se instancia una única vez en main, en la variable SLAM. ">
<polygon fill="#ffffff" stroke="#000000" points="1591.5,-710.5 1591.5,-729.5 1707.5,-729.5 1707.5,-710.5 1591.5,-710.5"/>
<text text-anchor="middle" x="1649.5" y="-717.5" font-family="Helvetica,sans-Serif" font-size="10.00" fill="#000000">ORB_SLAM2::System</text>
</a>
</g>
</g>
<!-- Node1&#45;&gt;Node20 -->
<g id="edge56" class="edge">
<title>Node1&#45;&gt;Node20</title>
<path fill="none" stroke="#9a32cd" stroke-dasharray="5,2" d="M1165.3295,-479.7853C1183.0146,-489.9711 1207.2552,-503.6605 1229,-515 1378.6407,-593.0349 1419.8064,-605.0182 1571,-680 1591.5548,-690.1938 1614.9728,-702.1746 1630.8417,-710.3486"/>
<polygon fill="#9a32cd" stroke="#9a32cd" points="1166.6448,-476.5027 1156.2363,-474.5241 1163.1391,-482.5616 1166.6448,-476.5027"/>
<text text-anchor="middle" x="1406.5" y="-637" font-family="Helvetica,sans-Serif" font-size="10.00" fill="#000000"> mpLocalMapper</text>
</g>
<!-- Node2 -->
<g id="node2" class="node">
<title>Node2</title>
<g id="a_node2"><a xlink:href="class_o_r_b___s_l_a_m2_1_1_key_frame.html" target="_top" xlink:title="Cuadro clave, keyframe. ">
<polygon fill="#ffffff" stroke="#000000" points="766.5,-328.5 766.5,-347.5 893.5,-347.5 893.5,-328.5 766.5,-328.5"/>
<text text-anchor="middle" x="830" y="-335.5" font-family="Helvetica,sans-Serif" font-size="10.00" fill="#000000">ORB_SLAM2::KeyFrame</text>
</a>
</g>
</g>
<!-- Node2&#45;&gt;Node1 -->
<g id="edge1" class="edge">
<title>Node2&#45;&gt;Node1</title>
<path fill="none" stroke="#9a32cd" stroke-dasharray="5,2" d="M862.729,-351.4083C925.5435,-377.142 1061.6282,-432.8929 1116.4292,-455.3436"/>
<polygon fill="#9a32cd" stroke="#9a32cd" points="863.8808,-348.0979 853.3004,-347.5456 861.2271,-354.5754 863.8808,-348.0979"/>
<text text-anchor="middle" x="985" y="-431" font-family="Helvetica,sans-Serif" font-size="10.00" fill="#000000"> mpCurrentKeyFrame</text>
</g>
<!-- Node2&#45;&gt;Node2 -->
<g id="edge5" class="edge">
<title>Node2&#45;&gt;Node2</title>
<path fill="none" stroke="#9a32cd" stroke-dasharray="5,2" d="M805.4465,-357.0292C806.7858,-362.128 814.9703,-366 830,-366 853.4609,-366 860.2426,-356.5653 850.345,-347.7571"/>
<polygon fill="#9a32cd" stroke="#9a32cd" points="808.709,-358.3096 809.655,-347.7571 802.3348,-355.4164 808.709,-358.3096"/>
<text text-anchor="middle" x="830" y="-369" font-family="Helvetica,sans-Serif" font-size="10.00" fill="#000000"> mpParent</text>
</g>
<!-- Node2&#45;&gt;Node11 -->
<g id="edge14" class="edge">
<title>Node2&#45;&gt;Node11</title>
<path fill="none" stroke="#9a32cd" stroke-dasharray="5,2" d="M903.8748,-343.5537C1003.1391,-353.5468 1182.7208,-380.6681 1318,-452 1350.7693,-469.279 1382.6392,-499.9857 1397.618,-515.4864"/>
<polygon fill="#9a32cd" stroke="#9a32cd" points="903.9359,-340.0432 893.6434,-342.5559 903.2564,-347.0101 903.9359,-340.0432"/>
<text text-anchor="middle" x="1140" y="-420" font-family="Helvetica,sans-Serif" font-size="10.00" fill="#000000"> mpMatchedKF</text>
<text text-anchor="middle" x="1140" y="-409" font-family="Helvetica,sans-Serif" font-size="10.00" fill="#000000">mpCurrentKF</text>
</g>
<!-- Node2&#45;&gt;Node13 -->
<g id="edge23" class="edge">
<title>Node2&#45;&gt;Node13</title>
<path fill="none" stroke="#9a32cd" stroke-dasharray="5,2" d="M903.9811,-332.4064C966.7554,-328.1433 1059.2277,-323 1140,-323 1140,-323 1140,-323 1649.5,-323 1720.0061,-323 1752.7536,-310.5757 1804,-359 1842.8854,-395.744 1873.0573,-570.311 1879.9927,-613.3786"/>
<polygon fill="#9a32cd" stroke="#9a32cd" points="903.5161,-328.9301 893.7804,-333.1092 903.9973,-335.9135 903.5161,-328.9301"/>
<text text-anchor="middle" x="1406.5" y="-337" font-family="Helvetica,sans-Serif" font-size="10.00" fill="#000000"> mpLastKeyFrame</text>
<text text-anchor="middle" x="1406.5" y="-326" font-family="Helvetica,sans-Serif" font-size="10.00" fill="#000000">mpReferenceKF</text>
</g>
<!-- Node17 -->
<g id="node17" class="node">
<title>Node17</title>
<g id="a_node17"><a xlink:href="class_o_r_b___s_l_a_m2_1_1_frame.html" target="_top" xlink:title="Frame representa un cuadro, una imagen, con los puntos singulares detectados. ">
<polygon fill="#ffffff" stroke="#000000" points="1085,-67.5 1085,-86.5 1195,-86.5 1195,-67.5 1085,-67.5"/>
<text text-anchor="middle" x="1140" y="-74.5" font-family="Helvetica,sans-Serif" font-size="10.00" fill="#000000">ORB_SLAM2::Frame</text>
</a>
</g>
</g>
<!-- Node2&#45;&gt;Node17 -->
<g id="edge32" class="edge">
<title>Node2&#45;&gt;Node17</title>
<path fill="none" stroke="#9a32cd" stroke-dasharray="5,2" d="M839.1178,-319.3558C852.9158,-292.9752 881.5162,-244.8699 919,-217 968.9747,-179.8429 998.7301,-203.8524 1051,-170 1087.3899,-146.4322 1119.7373,-105.1763 1133.2711,-86.5754"/>
<polygon fill="#9a32cd" stroke="#9a32cd" points="835.9752,-317.8144 834.5667,-328.3152 842.2162,-320.9846 835.9752,-317.8144"/>
<text text-anchor="middle" x="985" y="-220" font-family="Helvetica,sans-Serif" font-size="10.00" fill="#000000"> mpReferenceKF</text>
</g>
<!-- Node22 -->
<g id="node22" class="node">
<title>Node22</title>
<g id="a_node22"><a xlink:href="class_o_r_b___s_l_a_m2_1_1_osmap.html" target="_top" xlink:title="This is a class for a singleton attached to ORB&#45;SLAM2&#39;s map. ">
<polygon fill="#ffffff" stroke="#000000" points="1825,-215.5 1825,-234.5 1938,-234.5 1938,-215.5 1825,-215.5"/>
<text text-anchor="middle" x="1881.5" y="-222.5" font-family="Helvetica,sans-Serif" font-size="10.00" fill="#000000">ORB_SLAM2::Osmap</text>
</a>
</g>
</g>
<!-- Node2&#45;&gt;Node22 -->
<g id="edge51" class="edge">
<title>Node2&#45;&gt;Node22</title>
<path fill="none" stroke="#9a32cd" stroke-dasharray="5,2" d="M865.0081,-325.0972C881.2506,-319.4992 900.9241,-313.2631 919,-309 1015.6594,-286.2036 1040.6888,-276 1140,-276 1140,-276 1140,-276 1533,-276 1646.2765,-276 1778.1019,-249.2941 1842.3144,-234.5329"/>
<polygon fill="#9a32cd" stroke="#9a32cd" points="863.6587,-321.8614 855.3831,-328.4769 865.978,-328.4661 863.6587,-321.8614"/>
<text text-anchor="middle" x="1406.5" y="-279" font-family="Helvetica,sans-Serif" font-size="10.00" fill="#000000"> pRefKF</text>
</g>
<!-- Node3 -->
<g id="node3" class="node">
<title>Node3</title>
<g id="a_node3"><a xlink:href="class_o_r_b___s_l_a_m2_1_1_key_frame_database.html" target="_top" xlink:title="Lista invertida de KeyFrames, accesible por BoW. ">
<polygon fill="#ffffff" stroke="#000000" points="468,-426.5 468,-445.5 637,-445.5 637,-426.5 468,-426.5"/>
<text text-anchor="middle" x="552.5" y="-433.5" font-family="Helvetica,sans-Serif" font-size="10.00" fill="#000000">ORB_SLAM2::KeyFrameDatabase</text>
</a>
</g>
</g>
<!-- Node3&#45;&gt;Node2 -->
<g id="edge2" class="edge">
<title>Node3&#45;&gt;Node2</title>
<path fill="none" stroke="#9a32cd" stroke-dasharray="5,2" d="M584.4502,-422.5926C604.5684,-414.3068 631.1529,-403.6426 655,-395 704.7177,-376.9815 763.2918,-358.4377 798.4922,-347.5784"/>
<polygon fill="#9a32cd" stroke="#9a32cd" points="583.0342,-419.3906 575.1337,-426.4498 585.712,-425.8582 583.0342,-419.3906"/>
<text text-anchor="middle" x="698" y="-398" font-family="Helvetica,sans-Serif" font-size="10.00" fill="#000000"> mpKeyFrameDB</text>
</g>
<!-- Node3&#45;&gt;Node11 -->
<g id="edge13" class="edge">
<title>Node3&#45;&gt;Node11</title>
<path fill="none" stroke="#9a32cd" stroke-dasharray="5,2" d="M647.3414,-436.6648C679.0026,-440.5118 713.2533,-448.9004 741,-466 752.6558,-473.1832 746.9821,-484.4405 759,-491 808.8365,-518.201 1182.271,-523.6453 1338.3051,-524.7312"/>
<polygon fill="#9a32cd" stroke="#9a32cd" points="647.4813,-433.1598 637.1643,-435.5701 646.7325,-440.1196 647.4813,-433.1598"/>
<text text-anchor="middle" x="985" y="-523" font-family="Helvetica,sans-Serif" font-size="10.00" fill="#000000"> mpKeyFrameDB</text>
</g>
<!-- Node3&#45;&gt;Node13 -->
<g id="edge22" class="edge">
<title>Node3&#45;&gt;Node13</title>
<path fill="none" stroke="#9a32cd" stroke-dasharray="5,2" d="M647.3419,-431.9735C885.5004,-422.1945 1504.3372,-398.9256 1710,-412 1752.032,-414.672 1770.8107,-398.0712 1804,-424 1866.8167,-473.0748 1878.7846,-580.0815 1881.0069,-613.0982"/>
<polygon fill="#9a32cd" stroke="#9a32cd" points="647.165,-428.4778 637.3175,-432.3864 647.4531,-435.4718 647.165,-428.4778"/>
<text text-anchor="middle" x="1273.5" y="-416" font-family="Helvetica,sans-Serif" font-size="10.00" fill="#000000"> mpKeyFrameDB</text>
</g>
<!-- Node3&#45;&gt;Node20 -->
<g id="edge43" class="edge">
<title>Node3&#45;&gt;Node20</title>
<path fill="none" stroke="#9a32cd" stroke-dasharray="5,2" d="M572.6751,-451.7513C592.5572,-466.5348 624.3286,-488.2311 655,-501 758.5181,-544.0958 792.0093,-530.6513 901,-557 975.9155,-575.111 993.9073,-582.6384 1069,-600 1264.2701,-645.1469 1498.3918,-691.0509 1599.2446,-710.4323"/>
<polygon fill="#9a32cd" stroke="#9a32cd" points="574.7576,-448.938 564.6717,-445.6936 570.533,-454.5195 574.7576,-448.938"/>
<text text-anchor="middle" x="1140" y="-634" font-family="Helvetica,sans-Serif" font-size="10.00" fill="#000000"> mpKeyFrameDatabase</text>
</g>
<!-- Node3&#45;&gt;Node22 -->
<g id="edge50" class="edge">
<title>Node3&#45;&gt;Node22</title>
<path fill="none" stroke="#9a32cd" stroke-dasharray="5,2" d="M637.0049,-418.1192C660.1901,-376.1859 634.6668,-273.2056 655,-242 723.7577,-136.477 794.1849,-155.8493 919,-139 1276.8711,-90.6895 1713.3987,-184.4201 1843.3036,-215.4842"/>
<polygon fill="#9a32cd" stroke="#9a32cd" points="634.1039,-416.158 631.0772,-426.3113 639.775,-420.2615 634.1039,-416.158"/>
<text text-anchor="middle" x="1273.5" y="-136" font-family="Helvetica,sans-Serif" font-size="10.00" fill="#000000"> keyFrameDatabase</text>
</g>
<!-- Node4 -->
<g id="node4" class="node">
<title>Node4</title>
<g id="a_node4"><a xlink:href="class_d_bo_w2_1_1_templated_vocabulary.html" target="_top" xlink:title="Generic Vocabulary. ">
<polygon fill="#ffffff" stroke="#000000" points="243,-547 243,-577 395,-577 395,-547 243,-547"/>
<text text-anchor="start" x="251" y="-565" font-family="Helvetica,sans-Serif" font-size="10.00" fill="#000000">DBoW2::TemplatedVocabulary</text>
<text text-anchor="middle" x="319" y="-554" font-family="Helvetica,sans-Serif" font-size="10.00" fill="#000000">&lt; TDescriptor, F &gt;</text>
</a>
</g>
</g>
<!-- Node4&#45;&gt;Node2 -->
<g id="edge7" class="edge">
<title>Node4&#45;&gt;Node2</title>
<path fill="none" stroke="#9a32cd" stroke-dasharray="5,2" d="M334.7433,-538.1761C359.0296,-503.4207 409.0444,-439.3373 468,-406 562.3496,-352.6486 690.4564,-340.1357 766.2567,-337.7708"/>
<polygon fill="#9a32cd" stroke="#9a32cd" points="331.6333,-536.5224 328.8609,-546.7481 337.405,-540.4832 331.6333,-536.5224"/>
<text text-anchor="middle" x="552.5" y="-409" font-family="Helvetica,sans-Serif" font-size="10.00" fill="#000000"> mpORBvocabulary</text>
</g>
<!-- Node4&#45;&gt;Node3 -->
<g id="edge3" class="edge">
<title>Node4&#45;&gt;Node3</title>
<path fill="none" stroke="#9a32cd" stroke-dasharray="5,2" d="M356.2301,-541.9101C407.3007,-514.3517 497.0552,-465.9188 534.8912,-445.5019"/>
<polygon fill="#9a32cd" stroke="#9a32cd" points="354.3039,-538.9724 347.1656,-546.8015 357.6282,-545.1327 354.3039,-538.9724"/>
<text text-anchor="middle" x="433" y="-510" font-family="Helvetica,sans-Serif" font-size="10.00" fill="#000000"> mpVoc</text>
</g>
<!-- Node4&#45;&gt;Node11 -->
<g id="edge17" class="edge">
<title>Node4&#45;&gt;Node11</title>
<path fill="none" stroke="#9a32cd" stroke-dasharray="5,2" d="M405.3679,-562.8854C578.7028,-563.9708 981.2049,-563.0078 1318,-536 1324.6363,-535.4678 1331.5401,-534.8041 1338.4343,-534.068"/>
<polygon fill="#9a32cd" stroke="#9a32cd" points="405.3075,-559.3851 395.2844,-562.8183 405.2608,-566.3849 405.3075,-559.3851"/>
<text text-anchor="middle" x="830" y="-564" font-family="Helvetica,sans-Serif" font-size="10.00" fill="#000000"> mpORBVocabulary</text>
</g>
<!-- Node4&#45;&gt;Node13 -->
<g id="edge29" class="edge">
<title>Node4&#45;&gt;Node13</title>
<path fill="none" stroke="#9a32cd" stroke-dasharray="5,2" d="M338.2856,-585.232C364.7982,-615.9341 415.2488,-670.0848 468,-704 582.5559,-777.6512 624.3922,-779.305 759,-800 887.4879,-819.7541 922.171,-834.3912 1051,-817 1124.088,-807.1335 1142.6006,-800.5813 1211,-773 1269.6548,-749.3481 1276.0409,-725.1173 1336,-705 1347.4983,-701.1421 1682.5387,-652.0201 1821.7481,-631.7043"/>
<polygon fill="#9a32cd" stroke="#9a32cd" points="340.6131,-582.5673 331.4605,-577.2305 335.2873,-587.1101 340.6131,-582.5673"/>
<text text-anchor="middle" x="1140" y="-817" font-family="Helvetica,sans-Serif" font-size="10.00" fill="#000000"> mpORBVocabulary</text>
</g>
<!-- Node4&#45;&gt;Node17 -->
<g id="edge33" class="edge">
<title>Node4&#45;&gt;Node17</title>
<path fill="none" stroke="#9a32cd" stroke-dasharray="5,2" d="M328.5171,-536.8642C360.2427,-457.1159 470.9184,-209.3799 655,-113 733.1418,-72.0872 963.1099,-93.4381 1051,-86 1061.9872,-85.0702 1073.7257,-83.9638 1084.9538,-82.8504"/>
<polygon fill="#9a32cd" stroke="#9a32cd" points="325.1073,-535.9731 324.7218,-546.561 331.6258,-538.5245 325.1073,-535.9731"/>
<text text-anchor="middle" x="698" y="-116" font-family="Helvetica,sans-Serif" font-size="10.00" fill="#000000"> mpORBvocabulary</text>
</g>
<!-- Node4&#45;&gt;Node20 -->
<g id="edge48" class="edge">
<title>Node4&#45;&gt;Node20</title>
<path fill="none" stroke="#9a32cd" stroke-dasharray="5,2" d="M323.0835,-587.3193C334.5179,-654.6989 369.111,-835.6076 416,-870 589.8125,-997.4888 685.5563,-876.9426 901,-870 1038.9926,-865.5532 1074.784,-872.5153 1211,-850 1251.872,-843.2442 1531.8164,-766.4465 1571,-753 1590.9961,-746.138 1613.1469,-736.6453 1628.8059,-729.6019"/>
<polygon fill="#9a32cd" stroke="#9a32cd" points="326.4878,-586.455 321.391,-577.1666 319.5831,-587.606 326.4878,-586.455"/>
<text text-anchor="middle" x="985" y="-872" font-family="Helvetica,sans-Serif" font-size="10.00" fill="#000000"> mpVocabulary</text>
</g>
<!-- Node5 -->
<g id="node5" class="node">
<title>Node5</title>
<g id="a_node5"><a xlink:href="class_d_bo_w2_1_1_general_scoring.html" target="_top" xlink:title="Base class of scoring functions. ">
<polygon fill="#ffffff" stroke="#000000" points="0,-552.5 0,-571.5 124,-571.5 124,-552.5 0,-552.5"/>
<text text-anchor="middle" x="62" y="-559.5" font-family="Helvetica,sans-Serif" font-size="10.00" fill="#000000">DBoW2::GeneralScoring</text>
</a>
</g>
</g>
<!-- Node5&#45;&gt;Node4 -->
<g id="edge4" class="edge">
<title>Node5&#45;&gt;Node4</title>
<path fill="none" stroke="#9a32cd" stroke-dasharray="5,2" d="M134.4735,-562C168.2447,-562 208.4358,-562 242.6742,-562"/>
<polygon fill="#9a32cd" stroke="#9a32cd" points="134.2126,-558.5001 124.2125,-562 134.2125,-565.5001 134.2126,-558.5001"/>
<text text-anchor="middle" x="182" y="-565" font-family="Helvetica,sans-Serif" font-size="10.00" fill="#000000"> m_scoring_object</text>
</g>
<!-- Node6 -->
<g id="node6" class="node">
<title>Node6</title>
<g id="a_node6"><a xlink:href="class_o_r_b___s_l_a_m2_1_1_map.html" target="_top" xlink:title="Mapa del mundo, de puntos y keyframes. ">
<polygon fill="#ffffff" stroke="#000000" points="502,-675.5 502,-694.5 603,-694.5 603,-675.5 502,-675.5"/>
<text text-anchor="middle" x="552.5" y="-682.5" font-family="Helvetica,sans-Serif" font-size="10.00" fill="#000000">ORB_SLAM2::Map</text>
</a>
</g>
</g>
<!-- Node6&#45;&gt;Node1 -->
<g id="edge61" class="edge">
<title>Node6&#45;&gt;Node1</title>
<path fill="none" stroke="#9a32cd" stroke-dasharray="5,2" d="M572.7097,-668.9732C625.6766,-628.1141 774.439,-520.63 919,-483 967.9886,-470.248 1024.9618,-465.8473 1068.7907,-464.5828"/>
<polygon fill="#9a32cd" stroke="#9a32cd" points="570.2368,-666.4629 564.4983,-675.3691 574.5383,-671.9853 570.2368,-666.4629"/>
<text text-anchor="middle" x="830" y="-551" font-family="Helvetica,sans-Serif" font-size="10.00" fill="#000000"> mpMap</text>
</g>
<!-- Node6&#45;&gt;Node2 -->
<g id="edge6" class="edge">
<title>Node6&#45;&gt;Node2</title>
<path fill="none" stroke="#9a32cd" stroke-dasharray="5,2" d="M559.5919,-665.4114C573.77,-627.9509 608.3047,-544.6723 655,-486 668.2254,-469.3824 781.109,-377.544 818.2254,-347.5088"/>
<polygon fill="#9a32cd" stroke="#9a32cd" points="556.1951,-664.5048 555.9962,-675.0978 562.7576,-666.9409 556.1951,-664.5048"/>
<text text-anchor="middle" x="698" y="-489" font-family="Helvetica,sans-Serif" font-size="10.00" fill="#000000"> mpMap</text>
</g>
<!-- Node6&#45;&gt;Node11 -->
<g id="edge16" class="edge">
<title>Node6&#45;&gt;Node11</title>
<path fill="none" stroke="#9a32cd" stroke-dasharray="5,2" d="M613.6275,-683.5974C754.5087,-679.9466 1098.5448,-668.5271 1211,-642 1261.2119,-630.1555 1279.2626,-631.0726 1318,-597 1329.9628,-586.4777 1324.7383,-577.2694 1336,-566 1349.6115,-552.3792 1368.6577,-541.6592 1383.5228,-534.6021"/>
<polygon fill="#9a32cd" stroke="#9a32cd" points="613.3469,-680.1033 603.4393,-683.857 613.5253,-687.1011 613.3469,-680.1033"/>
<text text-anchor="middle" x="985" y="-674" font-family="Helvetica,sans-Serif" font-size="10.00" fill="#000000"> mpMap</text>
</g>
<!-- Node6&#45;&gt;Node13 -->
<g id="edge28" class="edge">
<title>Node6&#45;&gt;Node13</title>
<path fill="none" stroke="#9a32cd" stroke-dasharray="5,2" d="M613.347,-688.4578C627.0442,-689.0998 641.5165,-689.6713 655,-690 695.2336,-690.9807 881.767,-689.2524 901,-689 967.6743,-688.1249 984.5087,-691.013 1051,-686 1122.518,-680.608 1140.5267,-678.3197 1211,-665 1267.2428,-654.3699 1279.3502,-642.1882 1336,-634 1406.0076,-623.8811 1424.291,-628.9218 1495,-627 1610.7122,-623.855 1745.9722,-623.1322 1821.8979,-622.9953"/>
<polygon fill="#9a32cd" stroke="#9a32cd" points="613.2115,-684.9471 603.0529,-687.956 612.8706,-691.9388 613.2115,-684.9471"/>
<text text-anchor="middle" x="1273.5" y="-664" font-family="Helvetica,sans-Serif" font-size="10.00" fill="#000000"> mpMap</text>
</g>
<!-- Node14 -->
<g id="node14" class="node">
<title>Node14</title>
<g id="a_node14"><a xlink:href="class_o_r_b___s_l_a_m2_1_1_frame_drawer.html" target="_top" xlink:title="Clase de instancia única que se ocupa de mostrar la imagen de la cámara, con marcas verdes sobre los ...">
<polygon fill="#ffffff" stroke="#000000" points="1336,-828.5 1336,-847.5 1477,-847.5 1477,-828.5 1336,-828.5"/>
<text text-anchor="middle" x="1406.5" y="-835.5" font-family="Helvetica,sans-Serif" font-size="10.00" fill="#000000">ORB_SLAM2::FrameDrawer</text>
</a>
</g>
</g>
<!-- Node6&#45;&gt;Node14 -->
<g id="edge21" class="edge">
<title>Node6&#45;&gt;Node14</title>
<path fill="none" stroke="#9a32cd" stroke-dasharray="5,2" d="M570.1868,-701.4926C589.4401,-718.3622 621.9239,-743.7769 655,-756 771.5026,-799.053 1087.6126,-798.7883 1211,-813 1252.471,-817.7766 1298.8153,-823.6783 1335.9695,-828.5479"/>
<polygon fill="#9a32cd" stroke="#9a32cd" points="572.3287,-698.7119 562.5496,-694.6352 567.652,-703.9205 572.3287,-698.7119"/>
<text text-anchor="middle" x="985" y="-805" font-family="Helvetica,sans-Serif" font-size="10.00" fill="#000000"> mpMap</text>
</g>
<!-- Node16 -->
<g id="node16" class="node">
<title>Node16</title>
<g id="a_node16"><a xlink:href="class_o_r_b___s_l_a_m2_1_1_map_drawer.html" target="_top" xlink:title="Esta clase contiene los métodos para dibujar en pangolin. ">
<polygon fill="#ffffff" stroke="#000000" points="1340.5,-894.5 1340.5,-913.5 1472.5,-913.5 1472.5,-894.5 1340.5,-894.5"/>
<text text-anchor="middle" x="1406.5" y="-901.5" font-family="Helvetica,sans-Serif" font-size="10.00" fill="#000000">ORB_SLAM2::MapDrawer</text>
</a>
</g>
</g>
<!-- Node6&#45;&gt;Node16 -->
<g id="edge27" class="edge">
<title>Node6&#45;&gt;Node16</title>
<path fill="none" stroke="#9a32cd" stroke-dasharray="5,2" d="M567.843,-702.3503C586.7066,-722.8504 620.4845,-756.9506 655,-779 762.1191,-847.4304 794.7554,-862.1575 919,-889 1066.7372,-920.918 1245.4627,-915.618 1340.1355,-909.4838"/>
<polygon fill="#9a32cd" stroke="#9a32cd" points="570.2391,-699.782 560.9325,-694.7186 565.0502,-704.4805 570.2391,-699.782"/>
<text text-anchor="middle" x="985" y="-910" font-family="Helvetica,sans-Serif" font-size="10.00" fill="#000000"> mpMap</text>
</g>
<!-- Node6&#45;&gt;Node20 -->
<g id="edge47" class="edge">
<title>Node6&#45;&gt;Node20</title>
<path fill="none" stroke="#9a32cd" stroke-dasharray="5,2" d="M585.5321,-698.193C605.3366,-705.4534 631.216,-713.8173 655,-718 1014.978,-781.3069 1111.6834,-754.6472 1477,-743 1518.8415,-741.666 1529.5381,-742.7797 1571,-737 1584.1203,-735.1711 1598.3132,-732.3585 1610.9757,-729.5441"/>
<polygon fill="#9a32cd" stroke="#9a32cd" points="586.6459,-694.8727 576.0538,-694.633 584.1846,-701.4257 586.6459,-694.8727"/>
<text text-anchor="middle" x="1140" y="-761" font-family="Helvetica,sans-Serif" font-size="10.00" fill="#000000"> mpMap</text>
</g>
<!-- Node23 -->
<g id="node23" class="node">
<title>Node23</title>
<g id="a_node23"><a xlink:href="class_o_r_b___s_l_a_m2_1_1_osmap_map.html" target="_top" xlink:title="Wrapped Map to let Osmap access protected properties without modifying Map code. ">
<polygon fill="#ffffff" stroke="#000000" points="919,-237.5 919,-256.5 1051,-256.5 1051,-237.5 919,-237.5"/>
<text text-anchor="middle" x="985" y="-244.5" font-family="Helvetica,sans-Serif" font-size="10.00" fill="#000000">ORB_SLAM2::OsmapMap</text>
</a>
</g>
</g>
<!-- Node6&#45;&gt;Node23 -->
<g id="edge53" class="edge">
<title>Node6&#45;&gt;Node23</title>
<path fill="none" stroke="#191970" d="M561.5366,-665.6376C579.2723,-626.7002 618.5163,-535.7348 637,-455 646.1193,-415.1677 625.7833,-300.5686 655,-272 691.0995,-236.7013 833.1665,-238.0865 918.6884,-242.4237"/>
<polygon fill="#191970" stroke="#191970" points="558.1422,-664.6412 557.1397,-675.1885 564.5008,-667.5685 558.1422,-664.6412"/>
</g>
<!-- Node7 -->
<g id="node7" class="node">
<title>Node7</title>
<g id="a_node7"><a xlink:href="class_d_bo_w2_1_1_feature_vector.html" target="_top" xlink:title="Vector of nodes with indexes of local features. ">
<polygon fill="#ffffff" stroke="#000000" points="493,-51.5 493,-70.5 612,-70.5 612,-51.5 493,-51.5"/>
<text text-anchor="middle" x="552.5" y="-58.5" font-family="Helvetica,sans-Serif" font-size="10.00" fill="#000000">DBoW2::FeatureVector</text>
</a>
</g>
</g>
<!-- Node7&#45;&gt;Node2 -->
<g id="edge8" class="edge">
<title>Node7&#45;&gt;Node2</title>
<path fill="none" stroke="#9a32cd" stroke-dasharray="5,2" d="M569.1911,-77.661C621.1853,-129.5616 779.206,-287.2975 820.2007,-328.2183"/>
<polygon fill="#9a32cd" stroke="#9a32cd" points="571.6023,-75.1226 562.0522,-70.535 566.657,-80.0768 571.6023,-75.1226"/>
<text text-anchor="middle" x="698" y="-252" font-family="Helvetica,sans-Serif" font-size="10.00" fill="#000000"> mFeatVec</text>
</g>
<!-- Node7&#45;&gt;Node17 -->
<g id="edge34" class="edge">
<title>Node7&#45;&gt;Node17</title>
<path fill="none" stroke="#9a32cd" stroke-dasharray="5,2" d="M622.072,-62.8947C740.0496,-66.1077 977.002,-72.5609 1084.591,-75.491"/>
<polygon fill="#9a32cd" stroke="#9a32cd" points="622.1574,-59.3958 612.0657,-62.6222 621.9667,-66.3933 622.1574,-59.3958"/>
<text text-anchor="middle" x="830" y="-74" font-family="Helvetica,sans-Serif" font-size="10.00" fill="#000000"> mFeatVec</text>
</g>
<!-- Node8 -->
<g id="node8" class="node">
<title>Node8</title>
<polygon fill="#ffffff" stroke="#bfbfbf" points="254.5,-46 254.5,-76 383.5,-76 383.5,-46 254.5,-46"/>
<text text-anchor="start" x="262.5" y="-64" font-family="Helvetica,sans-Serif" font-size="10.00" fill="#000000">std::map&lt; NodeId, std</text>
<text text-anchor="middle" x="319" y="-53" font-family="Helvetica,sans-Serif" font-size="10.00" fill="#000000">::vector&lt; unsigned int &gt; &gt;</text>
</g>
<!-- Node8&#45;&gt;Node7 -->
<g id="edge9" class="edge">
<title>Node8&#45;&gt;Node7</title>
<path fill="none" stroke="#191970" d="M393.9354,-61C425.9274,-61 462.7459,-61 492.8468,-61"/>
<polygon fill="#191970" stroke="#191970" points="393.7327,-57.5001 383.7327,-61 393.7326,-64.5001 393.7327,-57.5001"/>
</g>
<!-- Node9 -->
<g id="node9" class="node">
<title>Node9</title>
<g id="a_node9"><a xlink:href="class_d_bo_w2_1_1_bow_vector.html" target="_top" xlink:title="Vector of words to represent images. ">
<polygon fill="#ffffff" stroke="#000000" points="500,-.5 500,-19.5 605,-19.5 605,-.5 500,-.5"/>
<text text-anchor="middle" x="552.5" y="-7.5" font-family="Helvetica,sans-Serif" font-size="10.00" fill="#000000">DBoW2::BowVector</text>
</a>
</g>
</g>
<!-- Node9&#45;&gt;Node2 -->
<g id="edge10" class="edge">
<title>Node9&#45;&gt;Node2</title>
<path fill="none" stroke="#9a32cd" stroke-dasharray="5,2" d="M615.4873,-11.9927C657.5237,-16.8738 710.4951,-30.5438 741,-67 763.111,-93.4247 747.8059,-188.4139 759,-221 773.9755,-264.5939 807.0276,-309.3065 822.1589,-328.4072"/>
<polygon fill="#9a32cd" stroke="#9a32cd" points="615.6347,-8.4896 605.3311,-10.9567 614.9243,-15.4535 615.6347,-8.4896"/>
<text text-anchor="middle" x="698" y="-70" font-family="Helvetica,sans-Serif" font-size="10.00" fill="#000000"> mBowVec</text>
</g>
<!-- Node9&#45;&gt;Node17 -->
<g id="edge35" class="edge">
<title>Node9&#45;&gt;Node17</title>
<path fill="none" stroke="#9a32cd" stroke-dasharray="5,2" d="M615.0839,-10.1143C651.8277,-10.6496 699.1274,-12.1468 741,-16 867.6523,-27.6548 1015.2765,-53.4456 1090.4722,-67.4697"/>
<polygon fill="#9a32cd" stroke="#9a32cd" points="615.0567,-6.6138 605.0134,-9.9877 614.9686,-13.6133 615.0567,-6.6138"/>
<text text-anchor="middle" x="830" y="-39" font-family="Helvetica,sans-Serif" font-size="10.00" fill="#000000"> mBowVec</text>
</g>
<!-- Node10 -->
<g id="node10" class="node">
<title>Node10</title>
<polygon fill="#ffffff" stroke="#bfbfbf" points="240,-.5 240,-19.5 398,-19.5 398,-.5 240,-.5"/>
<text text-anchor="middle" x="319" y="-7.5" font-family="Helvetica,sans-Serif" font-size="10.00" fill="#000000">std::map&lt; WordId, WordValue &gt;</text>
</g>
<!-- Node10&#45;&gt;Node9 -->
<g id="edge11" class="edge">
<title>Node10&#45;&gt;Node9</title>
<path fill="none" stroke="#191970" d="M408.4225,-10C439.3473,-10 472.9823,-10 499.9707,-10"/>
<polygon fill="#191970" stroke="#191970" points="408.0525,-6.5001 398.0524,-10 408.0524,-13.5001 408.0525,-6.5001"/>
</g>
<!-- Node11&#45;&gt;Node1 -->
<g id="edge12" class="edge">
<title>Node11&#45;&gt;Node1</title>
<path fill="none" stroke="#9a32cd" stroke-dasharray="5,2" d="M1388.5418,-508.3629C1371.7421,-494.0124 1345.2175,-474.3243 1318,-466 1283.8674,-455.5607 1244.3012,-454.3377 1211.1522,-456.1397"/>
<polygon fill="#9a32cd" stroke="#9a32cd" points="1386.5792,-511.2989 1396.3927,-515.2922 1391.2114,-506.0508 1386.5792,-511.2989"/>
<text text-anchor="middle" x="1273.5" y="-469" font-family="Helvetica,sans-Serif" font-size="10.00" fill="#000000"> mpLoopCloser</text>
</g>
<!-- Node11&#45;&gt;Node13 -->
<g id="edge24" class="edge">
<title>Node11&#45;&gt;Node13</title>
<path fill="none" stroke="#9a32cd" stroke-dasharray="5,2" d="M1471.5846,-514.1207C1553.1715,-503.5395 1695.4743,-495.3566 1804,-544 1837.6624,-559.0881 1864.4249,-595.9816 1875.7023,-613.4853"/>
<polygon fill="#9a32cd" stroke="#9a32cd" points="1470.8989,-510.6815 1461.4568,-515.4873 1471.835,-517.6186 1470.8989,-510.6815"/>
<text text-anchor="middle" x="1649.5" y="-519" font-family="Helvetica,sans-Serif" font-size="10.00" fill="#000000"> mpLoopClosing</text>
</g>
<!-- Node11&#45;&gt;Node20 -->
<g id="edge44" class="edge">
<title>Node11&#45;&gt;Node20</title>
<path fill="none" stroke="#9a32cd" stroke-dasharray="5,2" d="M1454.3602,-538.0394C1462.201,-541.081 1470.0315,-544.7143 1477,-549 1552.7904,-595.6118 1620.8306,-681.5535 1642.4092,-710.3271"/>
<polygon fill="#9a32cd" stroke="#9a32cd" points="1455.4427,-534.7094 1444.8483,-534.6187 1453.0739,-541.2964 1455.4427,-534.7094"/>
<text text-anchor="middle" x="1533" y="-627" font-family="Helvetica,sans-Serif" font-size="10.00" fill="#000000"> mpLoopCloser</text>
</g>
<!-- Node12 -->
<g id="node12" class="node">
<title>Node12</title>
<g id="a_node12"><a xlink:href="structg2o_1_1_sim3.html" target="_top" xlink:title="g2o::Sim3">
<polygon fill="#ffffff" stroke="#000000" points="1109.5,-571.5 1109.5,-590.5 1170.5,-590.5 1170.5,-571.5 1109.5,-571.5"/>
<text text-anchor="middle" x="1140" y="-578.5" font-family="Helvetica,sans-Serif" font-size="10.00" fill="#000000">g2o::Sim3</text>
</a>
</g>
</g>
<!-- Node12&#45;&gt;Node11 -->
<g id="edge15" class="edge">
<title>Node12&#45;&gt;Node11</title>
<path fill="none" stroke="#9a32cd" stroke-dasharray="5,2" d="M1181.044,-583.8099C1218.2274,-584.8193 1273.7963,-582.4279 1318,-564 1327.6119,-559.993 1326.9188,-554.0967 1336,-549 1346.5985,-543.0517 1358.919,-538.2359 1370.268,-534.5228"/>
<polygon fill="#9a32cd" stroke="#9a32cd" points="1180.7212,-580.2957 1170.5986,-583.4237 1180.4625,-587.2909 1180.7212,-580.2957"/>
<text text-anchor="middle" x="1273.5" y="-585" font-family="Helvetica,sans-Serif" font-size="10.00" fill="#000000"> mg2oScw</text>
</g>
<!-- Node13&#45;&gt;Node1 -->
<g id="edge62" class="edge">
<title>Node13&#45;&gt;Node1</title>
<path fill="none" stroke="#9a32cd" stroke-dasharray="5,2" d="M1878.6434,-603.2577C1872.315,-567.3699 1853.5356,-491.8445 1804,-456 1700.4688,-381.0837 1355.7792,-430.9318 1229,-447 1213.0481,-449.0218 1195.6789,-452.29 1180.5542,-455.4904"/>
<polygon fill="#9a32cd" stroke="#9a32cd" points="1875.2343,-604.1021 1880.2838,-613.4162 1882.1448,-602.9861 1875.2343,-604.1021"/>
<text text-anchor="middle" x="1533" y="-422" font-family="Helvetica,sans-Serif" font-size="10.00" fill="#000000"> mpTracker</text>
</g>
<!-- Node13&#45;&gt;Node11 -->
<g id="edge19" class="edge">
<title>Node13&#45;&gt;Node11</title>
<path fill="none" stroke="#9a32cd" stroke-dasharray="5,2" d="M1873.8282,-603.8944C1862.6283,-578.8111 1839.2242,-535.6632 1804,-516 1681.194,-447.4461 1502.0721,-493.7172 1434.0698,-515.4609"/>
<polygon fill="#9a32cd" stroke="#9a32cd" points="1870.7441,-605.5858 1877.8798,-613.4173 1877.1854,-602.8453 1870.7441,-605.5858"/>
<text text-anchor="middle" x="1649.5" y="-488" font-family="Helvetica,sans-Serif" font-size="10.00" fill="#000000"> mpTracker</text>
</g>
<!-- Node19 -->
<g id="node19" class="node">
<title>Node19</title>
<g id="a_node19"><a xlink:href="class_o_r_b___s_l_a_m2_1_1_viewer.html" target="_top" xlink:title="Viewer representa la interfaz de usuario. ">
<polygon fill="#ffffff" stroke="#000000" points="2027,-800.5 2027,-819.5 2139,-819.5 2139,-800.5 2027,-800.5"/>
<text text-anchor="middle" x="2083" y="-807.5" font-family="Helvetica,sans-Serif" font-size="10.00" fill="#000000">ORB_SLAM2::Viewer</text>
</a>
</g>
</g>
<!-- Node13&#45;&gt;Node19 -->
<g id="edge40" class="edge">
<title>Node13&#45;&gt;Node19</title>
<path fill="none" stroke="#9a32cd" stroke-dasharray="5,2" d="M1903.1825,-638.7006C1938.9621,-664.6249 2006.6814,-713.765 2009,-716 2037.561,-743.5312 2064.6962,-782.3064 2076.6345,-800.222"/>
<polygon fill="#9a32cd" stroke="#9a32cd" points="1904.9851,-635.6846 1894.8334,-632.6525 1900.8786,-641.3535 1904.9851,-635.6846"/>
<text text-anchor="middle" x="1984" y="-719" font-family="Helvetica,sans-Serif" font-size="10.00" fill="#000000"> mpTracker</text>
</g>
<!-- Node13&#45;&gt;Node20 -->
<g id="edge57" class="edge">
<title>Node13&#45;&gt;Node20</title>
<path fill="none" stroke="#9a32cd" stroke-dasharray="5,2" d="M1867.5482,-640.2786C1853.3501,-656.6033 1829.8108,-680.4107 1804,-693 1774.1424,-707.5631 1737.654,-714.3778 1707.6359,-717.5218"/>
<polygon fill="#9a32cd" stroke="#9a32cd" points="1870.3162,-642.4253 1874.0839,-632.523 1864.9634,-637.9144 1870.3162,-642.4253"/>
<text text-anchor="middle" x="1766" y="-717" font-family="Helvetica,sans-Serif" font-size="10.00" fill="#000000"> mpTracker</text>
</g>
<!-- Node14&#45;&gt;Node13 -->
<g id="edge20" class="edge">
<title>Node14&#45;&gt;Node13</title>
<path fill="none" stroke="#9a32cd" stroke-dasharray="5,2" d="M1487.0848,-846.474C1574.0254,-851.2182 1712.298,-845.4848 1804,-776 1816.7562,-766.3344 1862.7496,-664.9873 1877.1547,-632.7725"/>
<polygon fill="#9a32cd" stroke="#9a32cd" points="1487.1984,-842.9746 1477.0053,-845.8645 1486.7758,-849.9618 1487.1984,-842.9746"/>
<text text-anchor="middle" x="1649.5" y="-848" font-family="Helvetica,sans-Serif" font-size="10.00" fill="#000000"> mpFrameDrawer</text>
</g>
<!-- Node14&#45;&gt;Node19 -->
<g id="edge38" class="edge">
<title>Node14&#45;&gt;Node19</title>
<path fill="none" stroke="#9a32cd" stroke-dasharray="5,2" d="M1432.9225,-852.1858C1467.5656,-869.7859 1530.7874,-898.5143 1589,-907 1773.2184,-933.8538 1992.8702,-848.8704 2061.4621,-819.5637"/>
<polygon fill="#9a32cd" stroke="#9a32cd" points="1434.4279,-849.024 1423.9371,-847.5428 1431.2145,-855.2429 1434.4279,-849.024"/>
<text text-anchor="middle" x="1766" y="-911" font-family="Helvetica,sans-Serif" font-size="10.00" fill="#000000"> mpFrameDrawer</text>
</g>
<!-- Node14&#45;&gt;Node20 -->
<g id="edge42" class="edge">
<title>Node14&#45;&gt;Node20</title>
<path fill="none" stroke="#9a32cd" stroke-dasharray="5,2" d="M1447.582,-825.4455C1462.5109,-820.8889 1479.5149,-815.7053 1495,-811 1528.7663,-800.7399 1543.618,-810.2634 1571,-788 1583.9626,-777.4605 1577.336,-766.9608 1589,-755 1599.5899,-744.1407 1614.2624,-735.5415 1626.5058,-729.5844"/>
<polygon fill="#9a32cd" stroke="#9a32cd" points="1446.1644,-822.2188 1437.6223,-828.4864 1448.2085,-828.9137 1446.1644,-822.2188"/>
<text text-anchor="middle" x="1533" y="-814" font-family="Helvetica,sans-Serif" font-size="10.00" fill="#000000"> mpFrameDrawer</text>
</g>
<!-- Node15 -->
<g id="node15" class="node">
<title>Node15</title>
<g id="a_node15"><a xlink:href="class_o_r_b___s_l_a_m2_1_1_initializer.html" target="_top" xlink:title="Inicializador de mapa en modo monocular. ">
<polygon fill="#ffffff" stroke="#000000" points="1589,-764.5 1589,-783.5 1710,-783.5 1710,-764.5 1589,-764.5"/>
<text text-anchor="middle" x="1649.5" y="-771.5" font-family="Helvetica,sans-Serif" font-size="10.00" fill="#000000">ORB_SLAM2::Initializer</text>
</a>
</g>
</g>
<!-- Node15&#45;&gt;Node13 -->
<g id="edge25" class="edge">
<title>Node15&#45;&gt;Node13</title>
<path fill="none" stroke="#9a32cd" stroke-dasharray="5,2" d="M1720.4651,-763.5116C1748.3308,-756.901 1779.4498,-746.2117 1804,-729 1841.1462,-702.9575 1867.3721,-653.3511 1877.2092,-632.5517"/>
<polygon fill="#9a32cd" stroke="#9a32cd" points="1719.3611,-760.1718 1710.3642,-765.7671 1720.8866,-767.0036 1719.3611,-760.1718"/>
<text text-anchor="middle" x="1766" y="-764" font-family="Helvetica,sans-Serif" font-size="10.00" fill="#000000"> mpInitializer</text>
</g>
<!-- Node16&#45;&gt;Node13 -->
<g id="edge26" class="edge">
<title>Node16&#45;&gt;Node13</title>
<path fill="none" stroke="#9a32cd" stroke-dasharray="5,2" d="M1482.8016,-910.4719C1574.7892,-913.5805 1726.6406,-902.7721 1804,-809 1820.9061,-788.5071 1812.4174,-776.7781 1822,-752 1839.7033,-706.224 1865.8371,-653.6654 1876.5972,-632.5298"/>
<polygon fill="#9a32cd" stroke="#9a32cd" points="1482.8483,-906.971 1472.716,-910.0672 1482.5676,-913.9654 1482.8483,-906.971"/>
<text text-anchor="middle" x="1649.5" y="-909" font-family="Helvetica,sans-Serif" font-size="10.00" fill="#000000"> mpMapDrawer</text>
</g>
<!-- Node16&#45;&gt;Node19 -->
<g id="edge39" class="edge">
<title>Node16&#45;&gt;Node19</title>
<path fill="none" stroke="#9a32cd" stroke-dasharray="5,2" d="M1482.628,-913.707C1515.3133,-917.4124 1553.9715,-921.1815 1589,-923 1745.8004,-931.1402 1791.7399,-941.7245 1941,-893 1972.4019,-882.7492 1980.3091,-879.3706 2009,-863 2032.0586,-849.8431 2056.7219,-831.1295 2070.9533,-819.8185"/>
<polygon fill="#9a32cd" stroke="#9a32cd" points="1483.0216,-910.2293 1472.6867,-912.5613 1482.2202,-917.1833 1483.0216,-910.2293"/>
<text text-anchor="middle" x="1766" y="-932" font-family="Helvetica,sans-Serif" font-size="10.00" fill="#000000"> mpMapDrawer</text>
</g>
<!-- Node16&#45;&gt;Node20 -->
<g id="edge46" class="edge">
<title>Node16&#45;&gt;Node20</title>
<path fill="none" stroke="#9a32cd" stroke-dasharray="5,2" d="M1438.7922,-890.4504C1484.0749,-871.1883 1561.953,-837.0028 1571,-826 1591.6755,-800.8549 1569.3687,-780.9685 1589,-755 1597.6348,-743.5778 1611.1634,-735.2493 1623.2398,-729.5892"/>
<polygon fill="#9a32cd" stroke="#9a32cd" points="1437.2326,-887.31 1429.3909,-894.4344 1439.9639,-893.7552 1437.2326,-887.31"/>
<text text-anchor="middle" x="1533" y="-867" font-family="Helvetica,sans-Serif" font-size="10.00" fill="#000000"> mpMapDrawer</text>
</g>
<!-- Node17&#45;&gt;Node13 -->
<g id="edge31" class="edge">
<title>Node17&#45;&gt;Node13</title>
<path fill="none" stroke="#9a32cd" stroke-dasharray="5,2" d="M1205.4202,-71.6815C1343.279,-64.5568 1662.5526,-70.4354 1804,-260 1848.0296,-319.0075 1875.2034,-561.8779 1880.5334,-613.3762"/>
<polygon fill="#9a32cd" stroke="#9a32cd" points="1205.2069,-68.1879 1195.4169,-72.2382 1205.5959,-75.1771 1205.2069,-68.1879"/>
<text text-anchor="middle" x="1533" y="-134" font-family="Helvetica,sans-Serif" font-size="10.00" fill="#000000"> mLastFrame</text>
<text text-anchor="middle" x="1533" y="-123" font-family="Helvetica,sans-Serif" font-size="10.00" fill="#000000">mCurrentFrame</text>
<text text-anchor="middle" x="1533" y="-112" font-family="Helvetica,sans-Serif" font-size="10.00" fill="#000000">mInitialFrame</text>
</g>
<!-- Node17&#45;&gt;Node22 -->
<g id="edge54" class="edge">
<title>Node17&#45;&gt;Node22</title>
<path fill="none" stroke="#9a32cd" stroke-dasharray="5,2" d="M1193.7488,-65.5263C1275.5261,-49.7275 1435.9595,-25.2431 1571,-44 1677.6065,-58.8075 1716.8367,-46.8592 1804,-110 1843.1903,-138.3893 1868.616,-193.0926 1877.7322,-215.2876"/>
<polygon fill="#9a32cd" stroke="#9a32cd" points="1193.0722,-62.0923 1183.9343,-67.4541 1194.4214,-68.961 1193.0722,-62.0923"/>
<text text-anchor="middle" x="1533" y="-47" font-family="Helvetica,sans-Serif" font-size="10.00" fill="#000000"> currentFrame</text>
</g>
<!-- Node18 -->
<g id="node18" class="node">
<title>Node18</title>
<g id="a_node18"><a xlink:href="class_o_r_b___s_l_a_m2_1_1_o_r_bextractor.html" target="_top" xlink:title="Empaqueta todos los métodos de detección de puntos singulares y extracción de descriptores. ">
<polygon fill="#ffffff" stroke="#000000" points="759,-192.5 759,-211.5 901,-211.5 901,-192.5 759,-192.5"/>
<text text-anchor="middle" x="830" y="-199.5" font-family="Helvetica,sans-Serif" font-size="10.00" fill="#000000">ORB_SLAM2::ORBextractor</text>
</a>
</g>
</g>
<!-- Node18&#45;&gt;Node13 -->
<g id="edge60" class="edge">
<title>Node18&#45;&gt;Node13</title>
<path fill="none" stroke="#9a32cd" stroke-dasharray="5,2" d="M911.6668,-203.8726C914.139,-203.9173 916.5879,-203.9599 919,-204 949.9975,-204.5149 1446.4257,-204.8696 1477,-210 1628.0825,-235.3517 1699.6515,-206.8393 1804,-319 1845.9223,-364.0608 1874.2258,-566.4859 1880.2837,-613.3105"/>
<polygon fill="#9a32cd" stroke="#9a32cd" points="911.4715,-200.3684 901.4069,-203.6782 911.3388,-207.3671 911.4715,-200.3684"/>
<text text-anchor="middle" x="1406.5" y="-224" font-family="Helvetica,sans-Serif" font-size="10.00" fill="#000000"> mpORBextractorLeft</text>
<text text-anchor="middle" x="1406.5" y="-213" font-family="Helvetica,sans-Serif" font-size="10.00" fill="#000000">mpIniORBextractor</text>
</g>
<!-- Node18&#45;&gt;Node17 -->
<g id="edge36" class="edge">
<title>Node18&#45;&gt;Node17</title>
<path fill="none" stroke="#9a32cd" stroke-dasharray="5,2" d="M857.1478,-187.8206C874.5782,-178.9834 897.8351,-167.683 919,-159 976.3439,-135.4745 993.019,-135.9085 1051,-114 1074.1668,-105.2463 1100.2933,-94.2476 1118.2144,-86.5254"/>
<polygon fill="#9a32cd" stroke="#9a32cd" points="855.421,-184.7726 848.1139,-192.4445 858.6104,-191.0038 855.421,-184.7726"/>
<text text-anchor="middle" x="985" y="-162" font-family="Helvetica,sans-Serif" font-size="10.00" fill="#000000"> mpORBextractorLeft</text>
</g>
<!-- Node19&#45;&gt;Node13 -->
<g id="edge37" class="edge">
<title>Node19&#45;&gt;Node13</title>
<path fill="none" stroke="#9a32cd" stroke-dasharray="5,2" d="M2077.8212,-790.314C2068.8341,-759.879 2047.5176,-701.4326 2009,-668 1988.3478,-650.0742 1960.0876,-639.1444 1935.4208,-632.5554"/>
<polygon fill="#9a32cd" stroke="#9a32cd" points="2074.5126,-791.4782 2080.5834,-800.1613 2081.2524,-789.5876 2074.5126,-791.4782"/>
<text text-anchor="middle" x="1984" y="-671" font-family="Helvetica,sans-Serif" font-size="10.00" fill="#000000"> mpViewer</text>
</g>
<!-- Node19&#45;&gt;Node20 -->
<g id="edge58" class="edge">
<title>Node19&#45;&gt;Node20</title>
<path fill="none" stroke="#9a32cd" stroke-dasharray="5,2" d="M2016.4062,-819.3552C1941.1085,-826.5465 1817.3822,-827.8537 1728,-776 1717.367,-769.8314 1719.4547,-762.8562 1710,-755 1697.7738,-744.8409 1682.2181,-735.914 1669.9419,-729.6185"/>
<polygon fill="#9a32cd" stroke="#9a32cd" points="2017.1073,-822.802 2026.701,-818.3063 2016.3978,-815.838 2017.1073,-822.802"/>
<text text-anchor="middle" x="1881.5" y="-825" font-family="Helvetica,sans-Serif" font-size="10.00" fill="#000000"> mpViewer</text>
</g>
<!-- Node20&#45;&gt;Node13 -->
<g id="edge59" class="edge">
<title>Node20&#45;&gt;Node13</title>
<path fill="none" stroke="#9a32cd" stroke-dasharray="5,2" d="M1674.644,-705.5443C1689.7601,-697.2735 1709.58,-687.1534 1728,-680 1760.6667,-667.3138 1771.1079,-671.0895 1804,-659 1824.748,-651.374 1847.598,-640.4298 1863.0745,-632.6133"/>
<polygon fill="#9a32cd" stroke="#9a32cd" points="1672.9315,-702.4918 1665.8945,-710.412 1676.3348,-708.6088 1672.9315,-702.4918"/>
<text text-anchor="middle" x="1766" y="-683" font-family="Helvetica,sans-Serif" font-size="10.00" fill="#000000"> mpSystem</text>
</g>
<!-- Node20&#45;&gt;Node19 -->
<g id="edge41" class="edge">
<title>Node20&#45;&gt;Node19</title>
<path fill="none" stroke="#9a32cd" stroke-dasharray="5,2" d="M1705.3939,-731.6043C1792.0337,-749.5918 1957.0938,-783.8603 2037.1642,-800.4839"/>
<polygon fill="#9a32cd" stroke="#9a32cd" points="1705.9844,-728.1523 1695.4817,-729.5464 1704.5614,-735.0062 1705.9844,-728.1523"/>
<text text-anchor="middle" x="1881.5" y="-782" font-family="Helvetica,sans-Serif" font-size="10.00" fill="#000000"> mpSystem</text>
</g>
<!-- Node20&#45;&gt;Node22 -->
<g id="edge55" class="edge">
<title>Node20&#45;&gt;Node22</title>
<path fill="none" stroke="#9a32cd" stroke-dasharray="5,2" d="M1666.7071,-703.3339C1705.0274,-666.0729 1794.7594,-577.9605 1804,-561 1867.7268,-444.0342 1879.2224,-276.5716 1881.1398,-234.7465"/>
<polygon fill="#9a32cd" stroke="#9a32cd" points="1664.0945,-700.9922 1659.3578,-710.4692 1668.9706,-706.0145 1664.0945,-700.9922"/>
<text text-anchor="middle" x="1766" y="-642" font-family="Helvetica,sans-Serif" font-size="10.00" fill="#000000"> system</text>
</g>
<!-- Node21 -->
<g id="node21" class="node">
<title>Node21</title>
<g id="a_node21"><a xlink:href="class_o_r_b___s_l_a_m2_1_1_video.html" target="_top" xlink:title="Singleton que se ejecuta en su propio thread. ">
<polygon fill="#ffffff" stroke="#000000" points="1353,-714.5 1353,-733.5 1460,-733.5 1460,-714.5 1353,-714.5"/>
<text text-anchor="middle" x="1406.5" y="-721.5" font-family="Helvetica,sans-Serif" font-size="10.00" fill="#000000">ORB_SLAM2::Video</text>
</a>
</g>
</g>
<!-- Node21&#45;&gt;Node20 -->
<g id="edge45" class="edge">
<title>Node21&#45;&gt;Node20</title>
<path fill="none" stroke="#9a32cd" stroke-dasharray="5,2" d="M1470.431,-722.9476C1507.9121,-722.3307 1554.8998,-721.5572 1591.3377,-720.9574"/>
<polygon fill="#9a32cd" stroke="#9a32cd" points="1470.0692,-719.453 1460.1282,-723.1172 1470.1845,-726.4521 1470.0692,-719.453"/>
<text text-anchor="middle" x="1533" y="-725" font-family="Helvetica,sans-Serif" font-size="10.00" fill="#000000"> mpVideo</text>
</g>
<!-- Node22&#45;&gt;Node20 -->
<g id="edge49" class="edge">
<title>Node22&#45;&gt;Node20</title>
<path fill="none" stroke="#9a32cd" stroke-dasharray="5,2" d="M1872.7883,-243.5875C1834.6061,-325.0538 1682.674,-649.2192 1654.1343,-710.1122"/>
<polygon fill="#9a32cd" stroke="#9a32cd" points="1875.9699,-245.0463 1877.0446,-234.5061 1869.6315,-242.0755 1875.9699,-245.0463"/>
<text text-anchor="middle" x="1766" y="-549" font-family="Helvetica,sans-Serif" font-size="10.00" fill="#000000"> mpSerializer</text>
</g>
<!-- Node23&#45;&gt;Node22 -->
<g id="edge52" class="edge">
<title>Node23&#45;&gt;Node22</title>
<path fill="none" stroke="#9a32cd" stroke-dasharray="5,2" d="M1061.5198,-245.1222C1237.9297,-240.7931 1669.9016,-230.1926 1824.9461,-226.3878"/>
<polygon fill="#9a32cd" stroke="#9a32cd" points="1061.197,-241.629 1051.2859,-245.3734 1061.3687,-248.6269 1061.197,-241.629"/>
<text text-anchor="middle" x="1406.5" y="-242" font-family="Helvetica,sans-Serif" font-size="10.00" fill="#000000"> map</text>
</g>
</g>
</svg>
