<?xml version="1.0" encoding="UTF-8" standalone="no"?>
<!DOCTYPE svg PUBLIC "-//W3C//DTD SVG 1.1//EN"
 "http://www.w3.org/Graphics/SVG/1.1/DTD/svg11.dtd">
<!-- Generated by graphviz version 2.38.0 (20140413.2041)
 -->
<!-- Title: g2o::HyperGraphElementAction Pages: 1 -->
<svg width="411pt" height="95pt"
 viewBox="0.00 0.00 411.00 95.00" xmlns="http://www.w3.org/2000/svg" xmlns:xlink="http://www.w3.org/1999/xlink">
<g id="graph0" class="graph" transform="scale(1 1) rotate(0) translate(4 91)">
<title>g2o::HyperGraphElementAction</title>
<polygon fill="white" stroke="none" points="-4,4 -4,-91 407,-91 407,4 -4,4"/>
<!-- Node0 -->
<g id="node1" class="node"><title>Node0</title>
<polygon fill="#bfbfbf" stroke="black" points="107,-67.5 107,-86.5 262,-86.5 262,-67.5 107,-67.5"/>
<text text-anchor="middle" x="184.5" y="-74.5" font-family="Helvetica,sans-Serif" font-size="10.00">g2o::HyperGraphElementAction</text>
</g>
<!-- Node1 -->
<g id="node2" class="node"><title>Node1</title>
<g id="a_node2"><a xlink:href="classg2o_1_1_draw_action.html" target="_top" xlink:title="draw actions ">
<polygon fill="white" stroke="black" points="0,-6 0,-25 89,-25 89,-6 0,-6"/>
<text text-anchor="middle" x="44.5" y="-13" font-family="Helvetica,sans-Serif" font-size="10.00">g2o::DrawAction</text>
</a>
</g>
</g>
<!-- Node0&#45;&gt;Node1 -->
<g id="edge1" class="edge"><title>Node0&#45;&gt;Node1</title>
<path fill="none" stroke="midnightblue" d="M155.04,-63.4795C127.85,-51.9238 88.2078,-35.0758 64.5214,-25.0091"/>
<polygon fill="midnightblue" stroke="midnightblue" points="153.869,-66.7848 164.441,-67.4751 156.607,-60.3425 153.869,-66.7848"/>
</g>
<!-- Node2 -->
<g id="node3" class="node"><title>Node2</title>
<g id="a_node3"><a xlink:href="classg2o_1_1_hyper_graph_element_action_collection.html" target="_top" xlink:title="collection of actions ">
<polygon fill="white" stroke="black" points="107,-0.5 107,-30.5 262,-30.5 262,-0.5 107,-0.5"/>
<text text-anchor="start" x="115" y="-18.5" font-family="Helvetica,sans-Serif" font-size="10.00">g2o::HyperGraphElementAction</text>
<text text-anchor="middle" x="184.5" y="-7.5" font-family="Helvetica,sans-Serif" font-size="10.00">Collection</text>
</a>
</g>
</g>
<!-- Node0&#45;&gt;Node2 -->
<g id="edge2" class="edge"><title>Node0&#45;&gt;Node2</title>
<path fill="none" stroke="midnightblue" d="M184.5,-57.2349C184.5,-48.5864 184.5,-38.4969 184.5,-30.523"/>
<polygon fill="midnightblue" stroke="midnightblue" points="181,-57.4751 184.5,-67.4751 188,-57.4751 181,-57.4751"/>
</g>
<!-- Node3 -->
<g id="node4" class="node"><title>Node3</title>
<g id="a_node4"><a xlink:href="classg2o_1_1_write_gnuplot_action.html" target="_top" xlink:title="brief write into gnuplot ">
<polygon fill="white" stroke="black" points="280,-6 280,-25 403,-25 403,-6 280,-6"/>
<text text-anchor="middle" x="341.5" y="-13" font-family="Helvetica,sans-Serif" font-size="10.00">g2o::WriteGnuplotAction</text>
</a>
</g>
</g>
<!-- Node0&#45;&gt;Node3 -->
<g id="edge3" class="edge"><title>Node0&#45;&gt;Node3</title>
<path fill="none" stroke="midnightblue" d="M216.738,-63.7824C247.248,-52.2199 292.252,-35.1641 319.047,-25.0091"/>
<polygon fill="midnightblue" stroke="midnightblue" points="215.105,-60.6583 206.994,-67.4751 217.586,-67.204 215.105,-60.6583"/>
</g>
</g>
</svg>
