<?xml version="1.0" encoding="UTF-8" standalone="no"?>
<!DOCTYPE svg PUBLIC "-//W3C//DTD SVG 1.1//EN"
 "http://www.w3.org/Graphics/SVG/1.1/DTD/svg11.dtd">
<!-- Generated by graphviz version 2.38.0 (20140413.2041)
 -->
<!-- Title: g2o::HyperGraphAction::ParametersIteration Pages: 1 -->
<svg width="127pt" height="106pt"
 viewBox="0.00 0.00 127.00 106.00" xmlns="http://www.w3.org/2000/svg" xmlns:xlink="http://www.w3.org/1999/xlink">
<g id="graph0" class="graph" transform="scale(1 1) rotate(0) translate(4 102)">
<title>g2o::HyperGraphAction::ParametersIteration</title>
<polygon fill="white" stroke="none" points="-4,4 -4,-102 123,-102 123,4 -4,4"/>
<!-- Node2 -->
<g id="node1" class="node"><title>Node2</title>
<polygon fill="#bfbfbf" stroke="black" points="0,-0.5 0,-30.5 119,-30.5 119,-0.5 0,-0.5"/>
<text text-anchor="start" x="8" y="-18.5" font-family="Helvetica,sans-Serif" font-size="10.00">g2o::HyperGraphAction</text>
<text text-anchor="middle" x="59.5" y="-7.5" font-family="Helvetica,sans-Serif" font-size="10.00">::ParametersIteration</text>
</g>
<!-- Node3 -->
<g id="node2" class="node"><title>Node3</title>
<g id="a_node2"><a xlink:href="classg2o_1_1_hyper_graph_action_1_1_parameters.html" target="_top" xlink:title="g2o::HyperGraphAction\l::Parameters">
<polygon fill="white" stroke="black" points="0,-67.5 0,-97.5 119,-97.5 119,-67.5 0,-67.5"/>
<text text-anchor="start" x="8" y="-85.5" font-family="Helvetica,sans-Serif" font-size="10.00">g2o::HyperGraphAction</text>
<text text-anchor="middle" x="59.5" y="-74.5" font-family="Helvetica,sans-Serif" font-size="10.00">::Parameters</text>
</a>
</g>
</g>
<!-- Node3&#45;&gt;Node2 -->
<g id="edge1" class="edge"><title>Node3&#45;&gt;Node2</title>
<path fill="none" stroke="midnightblue" d="M59.5,-57.1081C59.5,-48.1539 59.5,-38.3227 59.5,-30.5765"/>
<polygon fill="midnightblue" stroke="midnightblue" points="56.0001,-57.3959 59.5,-67.396 63.0001,-57.396 56.0001,-57.3959"/>
</g>
</g>
</svg>
