<?xml version="1.0" encoding="UTF-8" standalone="no"?>
<!DOCTYPE svg PUBLIC "-//W3C//DTD SVG 1.1//EN"
 "http://www.w3.org/Graphics/SVG/1.1/DTD/svg11.dtd">
<!-- Generated by graphviz version 2.38.0 (20140413.2041)
 -->
<!-- Title: g2o::OptimizableGraph::Edge Pages: 1 -->
<svg width="261pt" height="174pt"
 viewBox="0.00 0.00 260.50 174.00" xmlns="http://www.w3.org/2000/svg" xmlns:xlink="http://www.w3.org/1999/xlink">
<g id="graph0" class="graph" transform="scale(1 1) rotate(0) translate(4 170)">
<title>g2o::OptimizableGraph::Edge</title>
<polygon fill="white" stroke="none" points="-4,4 -4,-170 256.5,-170 256.5,4 -4,4"/>
<!-- Node23 -->
<g id="node1" class="node"><title>Node23</title>
<polygon fill="#bfbfbf" stroke="black" points="111.5,-0.5 111.5,-30.5 227.5,-30.5 227.5,-0.5 111.5,-0.5"/>
<text text-anchor="start" x="119.5" y="-18.5" font-family="Helvetica,sans-Serif" font-size="10.00">g2o::OptimizableGraph</text>
<text text-anchor="middle" x="169.5" y="-7.5" font-family="Helvetica,sans-Serif" font-size="10.00">::Edge</text>
</g>
<!-- Node24 -->
<g id="node2" class="node"><title>Node24</title>
<g id="a_node2"><a xlink:href="classg2o_1_1_hyper_graph_1_1_edge.html" target="_top" xlink:title="Abstract Edge class. ">
<polygon fill="white" stroke="black" points="15,-78.5 15,-97.5 134,-97.5 134,-78.5 15,-78.5"/>
<text text-anchor="middle" x="74.5" y="-85.5" font-family="Helvetica,sans-Serif" font-size="10.00">g2o::HyperGraph::Edge</text>
</a>
</g>
</g>
<!-- Node24&#45;&gt;Node23 -->
<g id="edge1" class="edge"><title>Node24&#45;&gt;Node23</title>
<path fill="none" stroke="midnightblue" d="M94.5428,-72.1262C111.058,-59.8698 134.318,-42.6084 150.532,-30.5762"/>
<polygon fill="midnightblue" stroke="midnightblue" points="92.0934,-69.5853 86.1489,-78.3553 96.265,-75.2066 92.0934,-69.5853"/>
</g>
<!-- Node25 -->
<g id="node3" class="node"><title>Node25</title>
<g id="a_node3"><a xlink:href="structg2o_1_1_hyper_graph_1_1_hyper_graph_element.html" target="_top" xlink:title="base hyper graph element, specialized in vertex and edge ">
<polygon fill="white" stroke="black" points="0,-135.5 0,-165.5 149,-165.5 149,-135.5 0,-135.5"/>
<text text-anchor="start" x="8" y="-153.5" font-family="Helvetica,sans-Serif" font-size="10.00">g2o::HyperGraph::HyperGraph</text>
<text text-anchor="middle" x="74.5" y="-142.5" font-family="Helvetica,sans-Serif" font-size="10.00">Element</text>
</a>
</g>
</g>
<!-- Node25&#45;&gt;Node24 -->
<g id="edge2" class="edge"><title>Node25&#45;&gt;Node24</title>
<path fill="none" stroke="midnightblue" d="M74.5,-125.352C74.5,-115.513 74.5,-104.775 74.5,-97.5399"/>
<polygon fill="midnightblue" stroke="midnightblue" points="71.0001,-125.468 74.5,-135.468 78.0001,-125.468 71.0001,-125.468"/>
</g>
<!-- Node26 -->
<g id="node4" class="node"><title>Node26</title>
<g id="a_node4"><a xlink:href="classg2o_1_1_robust_kernel.html" target="_top" xlink:title="base for all robust cost functions ">
<polygon fill="white" stroke="black" points="152.5,-78.5 152.5,-97.5 250.5,-97.5 250.5,-78.5 152.5,-78.5"/>
<text text-anchor="middle" x="201.5" y="-85.5" font-family="Helvetica,sans-Serif" font-size="10.00">g2o::RobustKernel</text>
</a>
</g>
</g>
<!-- Node26&#45;&gt;Node23 -->
<g id="edge3" class="edge"><title>Node26&#45;&gt;Node23</title>
<path fill="none" stroke="#9a32cd" stroke-dasharray="5,2" d="M193.313,-68.9637C187.896,-57.0293 180.896,-41.6057 175.889,-30.5762"/>
<polygon fill="#9a32cd" stroke="#9a32cd" points="190.256,-70.6961 197.576,-78.3553 196.63,-67.8028 190.256,-70.6961"/>
<text text-anchor="middle" x="220.5" y="-52" font-family="Helvetica,sans-Serif" font-size="10.00"> _robustKernel</text>
</g>
</g>
</svg>
