<?xml version="1.0" encoding="UTF-8" standalone="no"?>
<!DOCTYPE svg PUBLIC "-//W3C//DTD SVG 1.1//EN"
 "http://www.w3.org/Graphics/SVG/1.1/DTD/svg11.dtd">
<!-- Generated by graphviz version 2.38.0 (20140413.2041)
 -->
<!-- Title: ORB_SLAM2::System Pages: 1 -->
<svg width="1887pt" height="899pt"
 viewBox="0.00 0.00 1887.00 898.51" xmlns="http://www.w3.org/2000/svg" xmlns:xlink="http://www.w3.org/1999/xlink">
<g id="graph0" class="graph" transform="scale(1 1) rotate(0) translate(4 894.51)">
<title>ORB_SLAM2::System</title>
<polygon fill="white" stroke="none" points="-4,4 -4,-894.51 1883,-894.51 1883,4 -4,4"/>
<!-- Node1 -->
<g id="node1" class="node"><title>Node1</title>
<polygon fill="#bfbfbf" stroke="black" points="1033.5,-686 1033.5,-705 1149.5,-705 1149.5,-686 1033.5,-686"/>
<text text-anchor="middle" x="1091.5" y="-693" font-family="Helvetica,sans-Serif" font-size="10.00">ORB_SLAM2::System</text>
</g>
<!-- Node1&#45;&gt;Node1 -->
<g id="edge55" class="edge"><title>Node1&#45;&gt;Node1</title>
<path fill="none" stroke="#9a32cd" stroke-dasharray="5,2" d="M1070.02,-714.9C1071.45,-719.815 1078.61,-723.5 1091.5,-723.5 1112.12,-723.5 1118.08,-714.065 1109.38,-705.257"/>
<polygon fill="#9a32cd" stroke="#9a32cd" points="1073.4,-715.85 1073.62,-705.257 1066.84,-713.4 1073.4,-715.85"/>
<text text-anchor="middle" x="1091.5" y="-726.5" font-family="Helvetica,sans-Serif" font-size="10.00"> sistema</text>
</g>
<!-- Node15 -->
<g id="node15" class="node"><title>Node15</title>
<g id="a_node15"><a xlink:href="class_o_r_b___s_l_a_m2_1_1_tracking.html" target="_top" xlink:title="Objeto único que se ejecuta en su propio Trhead, y se inicia con Run(). ">
<polygon fill="white" stroke="black" points="1264,-522 1264,-541 1383,-541 1383,-522 1264,-522"/>
<text text-anchor="middle" x="1323.5" y="-529" font-family="Helvetica,sans-Serif" font-size="10.00">ORB_SLAM2::Tracking</text>
</a>
</g>
</g>
<!-- Node1&#45;&gt;Node15 -->
<g id="edge46" class="edge"><title>Node1&#45;&gt;Node15</title>
<path fill="none" stroke="#9a32cd" stroke-dasharray="5,2" d="M1159.87,-690.891C1194.83,-687.196 1232.92,-680.704 1246,-669.5 1265.21,-653.04 1252.65,-638.112 1264,-615.5 1278.58,-586.432 1302.21,-555.998 1314.5,-541.005"/>
<polygon fill="#9a32cd" stroke="#9a32cd" points="1159.24,-687.436 1149.64,-691.905 1159.93,-694.402 1159.24,-687.436"/>
<text text-anchor="middle" x="1208" y="-692.5" font-family="Helvetica,sans-Serif" font-size="10.00"> mpSystem</text>
</g>
<!-- Node20 -->
<g id="node20" class="node"><title>Node20</title>
<g id="a_node20"><a xlink:href="class_o_r_b___s_l_a_m2_1_1_viewer.html" target="_top" xlink:title="Viewer representa la interfaz de usuario. ">
<polygon fill="white" stroke="black" points="1504,-703 1504,-722 1616,-722 1616,-703 1504,-703"/>
<text text-anchor="middle" x="1560" y="-710" font-family="Helvetica,sans-Serif" font-size="10.00">ORB_SLAM2::Viewer</text>
</a>
</g>
</g>
<!-- Node1&#45;&gt;Node20 -->
<g id="edge45" class="edge"><title>Node1&#45;&gt;Node20</title>
<path fill="none" stroke="#9a32cd" stroke-dasharray="5,2" d="M1107.86,-712.851C1122.23,-727.664 1145.15,-747.895 1170,-756.5 1209.01,-770.011 1320.74,-789.594 1474,-753.5 1500.31,-747.303 1528.02,-732.062 1544.39,-722.01"/>
<polygon fill="#9a32cd" stroke="#9a32cd" points="1110.18,-710.21 1100.8,-705.288 1105.07,-714.986 1110.18,-710.21"/>
<text text-anchor="middle" x="1323.5" y="-777.5" font-family="Helvetica,sans-Serif" font-size="10.00"> mpSystem</text>
</g>
<!-- Node2 -->
<g id="node2" class="node"><title>Node2</title>
<g id="a_node2"><a xlink:href="class_o_r_b___s_l_a_m2_1_1_frame_drawer.html" target="_top" xlink:title="Clase de instancia única que se ocupa de mostrar la imagen de la cámara, con marcas verdes sobre los ...">
<polygon fill="white" stroke="black" points="759.5,-759 759.5,-778 900.5,-778 900.5,-759 759.5,-759"/>
<text text-anchor="middle" x="830" y="-766" font-family="Helvetica,sans-Serif" font-size="10.00">ORB_SLAM2::FrameDrawer</text>
</a>
</g>
</g>
<!-- Node2&#45;&gt;Node1 -->
<g id="edge1" class="edge"><title>Node2&#45;&gt;Node1</title>
<path fill="none" stroke="#9a32cd" stroke-dasharray="5,2" d="M876.979,-756.337C890.505,-752.799 905.337,-748.957 919,-745.5 960.696,-734.951 971.756,-734.7 1013,-722.5 1030.49,-717.327 1049.86,-710.577 1064.87,-705.12"/>
<polygon fill="#9a32cd" stroke="#9a32cd" points="875.717,-753.05 866.932,-758.973 877.493,-759.821 875.717,-753.05"/>
<text text-anchor="middle" x="966" y="-748.5" font-family="Helvetica,sans-Serif" font-size="10.00"> mpFrameDrawer</text>
</g>
<!-- Node2&#45;&gt;Node15 -->
<g id="edge25" class="edge"><title>Node2&#45;&gt;Node15</title>
<path fill="none" stroke="#9a32cd" stroke-dasharray="5,2" d="M885.198,-779.811C976.384,-795.275 1159.03,-810.196 1246,-704.5 1271.64,-673.338 1248.14,-652.609 1264,-615.5 1276.71,-585.759 1300.92,-555.85 1313.85,-541.043"/>
<polygon fill="#9a32cd" stroke="#9a32cd" points="885.529,-776.316 875.074,-778.028 884.315,-783.21 885.529,-776.316"/>
<text text-anchor="middle" x="1091.5" y="-793.5" font-family="Helvetica,sans-Serif" font-size="10.00"> mpFrameDrawer</text>
</g>
<!-- Node2&#45;&gt;Node20 -->
<g id="edge42" class="edge"><title>Node2&#45;&gt;Node20</title>
<path fill="none" stroke="#9a32cd" stroke-dasharray="5,2" d="M859.293,-782.283C876.192,-789.784 898.326,-798.358 919,-802.5 1121.28,-843.029 1178.09,-813.431 1383,-789.5 1423.71,-784.745 1436.19,-790.341 1474,-774.5 1504.32,-761.794 1534.03,-736.304 1548.99,-722.289"/>
<polygon fill="#9a32cd" stroke="#9a32cd" points="860.549,-779.008 850,-778.032 857.638,-785.374 860.549,-779.008"/>
<text text-anchor="middle" x="1208" y="-821.5" font-family="Helvetica,sans-Serif" font-size="10.00"> mpFrameDrawer</text>
</g>
<!-- Node3 -->
<g id="node3" class="node"><title>Node3</title>
<g id="a_node3"><a xlink:href="class_o_r_b___s_l_a_m2_1_1_map.html" target="_top" xlink:title="Mapa del mundo, de puntos y keyframes. ">
<polygon fill="white" stroke="black" points="502,-613 502,-632 603,-632 603,-613 502,-613"/>
<text text-anchor="middle" x="552.5" y="-620" font-family="Helvetica,sans-Serif" font-size="10.00">ORB_SLAM2::Map</text>
</a>
</g>
</g>
<!-- Node3&#45;&gt;Node1 -->
<g id="edge50" class="edge"><title>Node3&#45;&gt;Node1</title>
<path fill="none" stroke="#9a32cd" stroke-dasharray="5,2" d="M613.351,-632.328C654.309,-638.929 709.88,-647.64 759,-654.5 855.057,-667.916 967.095,-681.302 1033.23,-688.971"/>
<polygon fill="#9a32cd" stroke="#9a32cd" points="613.696,-628.838 603.266,-630.698 612.579,-635.749 613.696,-628.838"/>
<text text-anchor="middle" x="830" y="-676.5" font-family="Helvetica,sans-Serif" font-size="10.00"> mpMap</text>
</g>
<!-- Node3&#45;&gt;Node2 -->
<g id="edge2" class="edge"><title>Node3&#45;&gt;Node2</title>
<path fill="none" stroke="#9a32cd" stroke-dasharray="5,2" d="M571.252,-638.9C590.515,-655.868 622.845,-682.013 655,-697.5 690.646,-714.669 704.262,-705.812 741,-720.5 767.824,-731.224 796.862,-748.223 813.964,-758.85"/>
<polygon fill="#9a32cd" stroke="#9a32cd" points="573.381,-636.108 563.601,-632.034 568.706,-641.318 573.381,-636.108"/>
<text text-anchor="middle" x="698" y="-723.5" font-family="Helvetica,sans-Serif" font-size="10.00"> mpMap</text>
</g>
<!-- Node7 -->
<g id="node7" class="node"><title>Node7</title>
<g id="a_node7"><a xlink:href="class_o_r_b___s_l_a_m2_1_1_loop_closing.html" target="_top" xlink:title="Cierre de bucles. ">
<polygon fill="white" stroke="black" points="1492,-438 1492,-457 1628,-457 1628,-438 1492,-438"/>
<text text-anchor="middle" x="1560" y="-445" font-family="Helvetica,sans-Serif" font-size="10.00">ORB_SLAM2::LoopClosing</text>
</a>
</g>
</g>
<!-- Node3&#45;&gt;Node7 -->
<g id="edge18" class="edge"><title>Node3&#45;&gt;Node7</title>
<path fill="none" stroke="#9a32cd" stroke-dasharray="5,2" d="M578.725,-607.878C615.79,-585.917 686.472,-542.202 741,-497.5 749.749,-490.327 749.468,-485.594 759,-479.5 867.516,-410.12 905.183,-407.06 1031,-379.5 1224.32,-337.154 1282.38,-375.049 1474,-424.5 1490.58,-428.778 1508.92,-433.716 1524.31,-437.916"/>
<polygon fill="#9a32cd" stroke="#9a32cd" points="576.899,-604.892 570.056,-612.98 580.449,-610.924 576.899,-604.892"/>
<text text-anchor="middle" x="1091.5" y="-382.5" font-family="Helvetica,sans-Serif" font-size="10.00"> mpMap</text>
</g>
<!-- Node8 -->
<g id="node8" class="node"><title>Node8</title>
<g id="a_node8"><a xlink:href="class_o_r_b___s_l_a_m2_1_1_key_frame.html" target="_top" xlink:title="Cuadro clave, keyframe. ">
<polygon fill="white" stroke="black" points="766.5,-133 766.5,-152 893.5,-152 893.5,-133 766.5,-133"/>
<text text-anchor="middle" x="830" y="-140" font-family="Helvetica,sans-Serif" font-size="10.00">ORB_SLAM2::KeyFrame</text>
</a>
</g>
</g>
<!-- Node3&#45;&gt;Node8 -->
<g id="edge11" class="edge"><title>Node3&#45;&gt;Node8</title>
<path fill="none" stroke="#9a32cd" stroke-dasharray="5,2" d="M568.013,-604.927C604.02,-560.285 697.665,-437.592 741,-318.5 759.892,-266.581 730.878,-243.056 759,-195.5 770.638,-175.819 792.671,-161.005 808.921,-152.112"/>
<polygon fill="#9a32cd" stroke="#9a32cd" points="565.211,-602.826 561.612,-612.791 570.639,-607.245 565.211,-602.826"/>
<text text-anchor="middle" x="698" y="-485.5" font-family="Helvetica,sans-Serif" font-size="10.00"> mpMap</text>
</g>
<!-- Node14 -->
<g id="node14" class="node"><title>Node14</title>
<g id="a_node14"><a xlink:href="class_o_r_b___s_l_a_m2_1_1_local_mapping.html" target="_top" xlink:title="LocalMapping tiene una única instancia ejecutando el método Run en su propio thread. ">
<polygon fill="white" stroke="black" points="1737,-515 1737,-534 1879,-534 1879,-515 1737,-515"/>
<text text-anchor="middle" x="1808" y="-522" font-family="Helvetica,sans-Serif" font-size="10.00">ORB_SLAM2::LocalMapping</text>
</a>
</g>
</g>
<!-- Node3&#45;&gt;Node14 -->
<g id="edge23" class="edge"><title>Node3&#45;&gt;Node14</title>
<path fill="none" stroke="#9a32cd" stroke-dasharray="5,2" d="M565.667,-640.423C582.872,-664.462 616.534,-706.959 655,-731.5 688.888,-753.12 709.174,-734.946 741,-759.5 752.713,-768.537 746.903,-778.984 759,-787.5 986.827,-947.874 1106.44,-881.27 1383,-847.5 1545.69,-827.634 1618.19,-824.735 1719,-695.5 1761.92,-640.479 1793.41,-561.322 1803.53,-534.111"/>
<polygon fill="#9a32cd" stroke="#9a32cd" points="568.505,-638.374 559.903,-632.189 562.771,-642.388 568.505,-638.374"/>
<text text-anchor="middle" x="1208" y="-882.5" font-family="Helvetica,sans-Serif" font-size="10.00"> mpMap</text>
</g>
<!-- Node3&#45;&gt;Node15 -->
<g id="edge32" class="edge"><title>Node3&#45;&gt;Node15</title>
<path fill="none" stroke="#9a32cd" stroke-dasharray="5,2" d="M598.283,-610.352C639.696,-599.522 703.102,-583.961 759,-574.5 941.352,-543.638 1160.68,-534.911 1263.66,-532.455"/>
<polygon fill="#9a32cd" stroke="#9a32cd" points="597.282,-606.996 588.504,-612.928 599.066,-613.765 597.282,-606.996"/>
<text text-anchor="middle" x="966" y="-556.5" font-family="Helvetica,sans-Serif" font-size="10.00"> mpMap</text>
</g>
<!-- Node17 -->
<g id="node17" class="node"><title>Node17</title>
<g id="a_node17"><a xlink:href="class_o_r_b___s_l_a_m2_1_1_map_drawer.html" target="_top" xlink:title="Esta clase contiene los métodos para dibujar en pangolin. ">
<polygon fill="white" stroke="black" points="764,-584 764,-603 896,-603 896,-584 764,-584"/>
<text text-anchor="middle" x="830" y="-591" font-family="Helvetica,sans-Serif" font-size="10.00">ORB_SLAM2::MapDrawer</text>
</a>
</g>
</g>
<!-- Node3&#45;&gt;Node17 -->
<g id="edge31" class="edge"><title>Node3&#45;&gt;Node17</title>
<path fill="none" stroke="#9a32cd" stroke-dasharray="5,2" d="M613.135,-616.223C657.522,-611.55 718.071,-605.177 763.747,-600.369"/>
<polygon fill="#9a32cd" stroke="#9a32cd" points="612.651,-612.754 603.072,-617.282 613.384,-619.716 612.651,-612.754"/>
<text text-anchor="middle" x="698" y="-614.5" font-family="Helvetica,sans-Serif" font-size="10.00"> mpMap</text>
</g>
<!-- Node4 -->
<g id="node4" class="node"><title>Node4</title>
<g id="a_node4"><a xlink:href="class_o_r_b___s_l_a_m2_1_1_key_frame_database.html" target="_top" xlink:title="Lista invertida de KeyFrames, accesible por BoW. ">
<polygon fill="white" stroke="black" points="468,-332 468,-351 637,-351 637,-332 468,-332"/>
<text text-anchor="middle" x="552.5" y="-339" font-family="Helvetica,sans-Serif" font-size="10.00">ORB_SLAM2::KeyFrameDatabase</text>
</a>
</g>
</g>
<!-- Node4&#45;&gt;Node1 -->
<g id="edge3" class="edge"><title>Node4&#45;&gt;Node1</title>
<path fill="none" stroke="#9a32cd" stroke-dasharray="5,2" d="M564.413,-360.311C582.095,-390.292 618.7,-450.342 655,-497.5 676.017,-524.804 728.958,-595.627 759,-612.5 815.012,-643.959 839.686,-620.327 901,-639.5 909.356,-642.113 910.763,-644.535 919,-647.5 943.727,-656.402 1011.24,-674.648 1053.81,-685.902"/>
<polygon fill="#9a32cd" stroke="#9a32cd" points="567.243,-358.218 559.169,-351.358 561.203,-361.755 567.243,-358.218"/>
<text text-anchor="middle" x="830" y="-642.5" font-family="Helvetica,sans-Serif" font-size="10.00"> mpKeyFrameDatabase</text>
</g>
<!-- Node4&#45;&gt;Node7 -->
<g id="edge7" class="edge"><title>Node4&#45;&gt;Node7</title>
<path fill="none" stroke="#9a32cd" stroke-dasharray="5,2" d="M644.591,-351.89C738.402,-359.87 888.113,-364.988 1013,-334.5 1021.69,-332.379 1022.29,-327.555 1031,-325.5 1124,-303.546 1150.47,-323.406 1246,-325.5 1347.41,-327.723 1384.16,-288.417 1474,-335.5 1517.67,-358.388 1545.35,-414.889 1555.08,-437.707"/>
<polygon fill="#9a32cd" stroke="#9a32cd" points="644.831,-348.397 634.563,-351.008 644.218,-355.371 644.831,-348.397"/>
<text text-anchor="middle" x="1091.5" y="-328.5" font-family="Helvetica,sans-Serif" font-size="10.00"> mpKeyFrameDB</text>
</g>
<!-- Node4&#45;&gt;Node8 -->
<g id="edge9" class="edge"><title>Node4&#45;&gt;Node8</title>
<path fill="none" stroke="#9a32cd" stroke-dasharray="5,2" d="M575.048,-325.936C629.582,-286.544 771.855,-183.777 815.845,-152.002"/>
<polygon fill="#9a32cd" stroke="#9a32cd" points="572.845,-323.209 566.788,-331.902 576.944,-328.884 572.845,-323.209"/>
<text text-anchor="middle" x="698" y="-269.5" font-family="Helvetica,sans-Serif" font-size="10.00"> mpKeyFrameDB</text>
</g>
<!-- Node4&#45;&gt;Node15 -->
<g id="edge26" class="edge"><title>Node4&#45;&gt;Node15</title>
<path fill="none" stroke="#9a32cd" stroke-dasharray="5,2" d="M593.911,-354.023C635.132,-366.484 701.083,-385.567 759,-398.5 785.786,-404.481 1220.45,-471.477 1246,-481.5 1271.11,-491.351 1296.61,-510.167 1310.9,-521.698"/>
<polygon fill="#9a32cd" stroke="#9a32cd" points="594.824,-350.642 584.238,-351.082 592.788,-357.339 594.824,-350.642"/>
<text text-anchor="middle" x="966" y="-442.5" font-family="Helvetica,sans-Serif" font-size="10.00"> mpKeyFrameDB</text>
</g>
<!-- Node5 -->
<g id="node5" class="node"><title>Node5</title>
<g id="a_node5"><a xlink:href="class_d_bo_w2_1_1_templated_vocabulary.html" target="_top" xlink:title="Generic Vocabulary. ">
<polygon fill="white" stroke="black" points="243,-306.5 243,-336.5 395,-336.5 395,-306.5 243,-306.5"/>
<text text-anchor="start" x="251" y="-324.5" font-family="Helvetica,sans-Serif" font-size="10.00">DBoW2::TemplatedVocabulary</text>
<text text-anchor="middle" x="319" y="-313.5" font-family="Helvetica,sans-Serif" font-size="10.00">&lt; TDescriptor, F &gt;</text>
</a>
</g>
</g>
<!-- Node5&#45;&gt;Node1 -->
<g id="edge51" class="edge"><title>Node5&#45;&gt;Node1</title>
<path fill="none" stroke="#9a32cd" stroke-dasharray="5,2" d="M325.513,-346.408C339.603,-404.882 382.036,-552.688 468,-641.5 532.695,-708.338 564.491,-714.032 655,-735.5 725.736,-752.278 934.339,-721.572 1034.96,-705.033"/>
<polygon fill="#9a32cd" stroke="#9a32cd" points="328.896,-345.503 323.208,-336.564 322.08,-347.099 328.896,-345.503"/>
<text text-anchor="middle" x="698" y="-743.5" font-family="Helvetica,sans-Serif" font-size="10.00"> mpVocabulary</text>
</g>
<!-- Node5&#45;&gt;Node4 -->
<g id="edge4" class="edge"><title>Node5&#45;&gt;Node4</title>
<path fill="none" stroke="#9a32cd" stroke-dasharray="5,2" d="M405.38,-328.876C425.796,-330.64 447.568,-332.521 467.903,-334.278"/>
<polygon fill="#9a32cd" stroke="#9a32cd" points="405.426,-325.367 395.161,-327.993 404.823,-332.341 405.426,-325.367"/>
<text text-anchor="middle" x="433" y="-336.5" font-family="Helvetica,sans-Serif" font-size="10.00"> mpVoc</text>
</g>
<!-- Node5&#45;&gt;Node7 -->
<g id="edge19" class="edge"><title>Node5&#45;&gt;Node7</title>
<path fill="none" stroke="#9a32cd" stroke-dasharray="5,2" d="M329.393,-297.041C348.264,-251.341 395.295,-153.139 468,-103.5 499.432,-82.0396 513.44,-84.5 551.5,-84.5 551.5,-84.5 551.5,-84.5 1209,-84.5 1346.58,-84.5 1396.07,-131.121 1474,-244.5 1520.1,-311.567 1548.33,-407.562 1556.51,-437.919"/>
<polygon fill="#9a32cd" stroke="#9a32cd" points="326.087,-295.882 325.596,-306.466 332.579,-298.498 326.087,-295.882"/>
<text text-anchor="middle" x="966" y="-87.5" font-family="Helvetica,sans-Serif" font-size="10.00"> mpORBVocabulary</text>
</g>
<!-- Node5&#45;&gt;Node8 -->
<g id="edge12" class="edge"><title>Node5&#45;&gt;Node8</title>
<path fill="none" stroke="#9a32cd" stroke-dasharray="5,2" d="M372.302,-303.05C438.214,-279.806 554.983,-238.647 655,-203.5 706.794,-185.299 767.282,-164.108 801.571,-152.102"/>
<polygon fill="#9a32cd" stroke="#9a32cd" points="370.829,-299.858 362.563,-306.485 373.158,-306.46 370.829,-299.858"/>
<text text-anchor="middle" x="552.5" y="-271.5" font-family="Helvetica,sans-Serif" font-size="10.00"> mpORBvocabulary</text>
</g>
<!-- Node5&#45;&gt;Node15 -->
<g id="edge33" class="edge"><title>Node5&#45;&gt;Node15</title>
<path fill="none" stroke="#9a32cd" stroke-dasharray="5,2" d="M381.588,-339.287C393.003,-342.452 404.843,-345.645 416,-348.5 438.978,-354.379 444.862,-355.286 468,-360.5 597.185,-389.611 629.27,-397.923 759,-424.5 946.3,-462.871 1169.62,-503.873 1269.57,-521.976"/>
<polygon fill="#9a32cd" stroke="#9a32cd" points="382.267,-335.843 371.694,-336.524 380.384,-342.585 382.267,-335.843"/>
<text text-anchor="middle" x="830" y="-456.5" font-family="Helvetica,sans-Serif" font-size="10.00"> mpORBVocabulary</text>
</g>
<!-- Node18 -->
<g id="node18" class="node"><title>Node18</title>
<g id="a_node18"><a xlink:href="class_o_r_b___s_l_a_m2_1_1_frame.html" target="_top" xlink:title="Frame representa un cuadro, una imagen, con los puntos singulares detectados. ">
<polygon fill="white" stroke="black" points="1036.5,-256 1036.5,-275 1146.5,-275 1146.5,-256 1036.5,-256"/>
<text text-anchor="middle" x="1091.5" y="-263" font-family="Helvetica,sans-Serif" font-size="10.00">ORB_SLAM2::Frame</text>
</a>
</g>
</g>
<!-- Node5&#45;&gt;Node18 -->
<g id="edge37" class="edge"><title>Node5&#45;&gt;Node18</title>
<path fill="none" stroke="#9a32cd" stroke-dasharray="5,2" d="M405.316,-318.226C518.676,-313.517 725.127,-303.688 901,-288.5 946.73,-284.551 998.445,-278.143 1036.28,-273.092"/>
<polygon fill="#9a32cd" stroke="#9a32cd" points="405.158,-314.73 395.31,-318.639 405.446,-321.724 405.158,-314.73"/>
<text text-anchor="middle" x="698" y="-309.5" font-family="Helvetica,sans-Serif" font-size="10.00"> mpORBvocabulary</text>
</g>
<!-- Node6 -->
<g id="node6" class="node"><title>Node6</title>
<g id="a_node6"><a xlink:href="class_d_bo_w2_1_1_general_scoring.html" target="_top" xlink:title="Base class of scoring functions. ">
<polygon fill="white" stroke="black" points="0,-312 0,-331 124,-331 124,-312 0,-312"/>
<text text-anchor="middle" x="62" y="-319" font-family="Helvetica,sans-Serif" font-size="10.00">DBoW2::GeneralScoring</text>
</a>
</g>
</g>
<!-- Node6&#45;&gt;Node5 -->
<g id="edge5" class="edge"><title>Node6&#45;&gt;Node5</title>
<path fill="none" stroke="#9a32cd" stroke-dasharray="5,2" d="M134.347,-321.5C168.159,-321.5 208.555,-321.5 242.841,-321.5"/>
<polygon fill="#9a32cd" stroke="#9a32cd" points="134.079,-318 124.079,-321.5 134.079,-325 134.079,-318"/>
<text text-anchor="middle" x="182" y="-324.5" font-family="Helvetica,sans-Serif" font-size="10.00"> m_scoring_object</text>
</g>
<!-- Node7&#45;&gt;Node1 -->
<g id="edge6" class="edge"><title>Node7&#45;&gt;Node1</title>
<path fill="none" stroke="#9a32cd" stroke-dasharray="5,2" d="M1539.7,-463.881C1524.31,-478.057 1503.49,-499.942 1492,-523.5 1472.96,-562.514 1502.02,-586.342 1474,-619.5 1471.82,-622.078 1249.32,-702.907 1246,-703.5 1212.75,-709.431 1203.73,-705.236 1170,-703.5 1163.38,-703.159 1156.46,-702.656 1149.59,-702.065"/>
<polygon fill="#9a32cd" stroke="#9a32cd" points="1542.05,-466.475 1547.18,-457.202 1537.39,-461.255 1542.05,-466.475"/>
<text text-anchor="middle" x="1323.5" y="-699.5" font-family="Helvetica,sans-Serif" font-size="10.00"> mpLoopCloser</text>
</g>
<!-- Node7&#45;&gt;Node14 -->
<g id="edge22" class="edge"><title>Node7&#45;&gt;Node14</title>
<path fill="none" stroke="#9a32cd" stroke-dasharray="5,2" d="M1638.37,-445.517C1664.64,-447.009 1693.72,-451.114 1719,-460.5 1751.41,-472.531 1782.45,-500.065 1797.52,-514.79"/>
<polygon fill="#9a32cd" stroke="#9a32cd" points="1638.23,-442.007 1628.08,-445.055 1637.91,-449 1638.23,-442.007"/>
<text text-anchor="middle" x="1682.5" y="-463.5" font-family="Helvetica,sans-Serif" font-size="10.00"> mpLoopCloser</text>
</g>
<!-- Node7&#45;&gt;Node15 -->
<g id="edge28" class="edge"><title>Node7&#45;&gt;Node15</title>
<path fill="none" stroke="#9a32cd" stroke-dasharray="5,2" d="M1481.76,-447.147C1455.26,-449.378 1426,-454.554 1401,-465.5 1371.43,-478.443 1344.85,-506.876 1332.23,-521.846"/>
<polygon fill="#9a32cd" stroke="#9a32cd" points="1482.04,-450.636 1491.76,-446.431 1481.54,-443.654 1482.04,-450.636"/>
<text text-anchor="middle" x="1437.5" y="-468.5" font-family="Helvetica,sans-Serif" font-size="10.00"> mpLoopClosing</text>
</g>
<!-- Node8&#45;&gt;Node7 -->
<g id="edge8" class="edge"><title>Node8&#45;&gt;Node7</title>
<path fill="none" stroke="#9a32cd" stroke-dasharray="5,2" d="M903.763,-147.691C969.338,-153.389 1068.05,-164.508 1152,-184.5 1299.54,-219.638 1357.64,-200.214 1474,-297.5 1521.76,-337.435 1548.02,-411.499 1556.19,-437.869"/>
<polygon fill="#9a32cd" stroke="#9a32cd" points="903.791,-144.181 893.531,-146.822 903.199,-151.156 903.791,-144.181"/>
<text text-anchor="middle" x="1208" y="-217.5" font-family="Helvetica,sans-Serif" font-size="10.00"> mpMatchedKF</text>
<text text-anchor="middle" x="1208" y="-206.5" font-family="Helvetica,sans-Serif" font-size="10.00">mpCurrentKF</text>
</g>
<!-- Node8&#45;&gt;Node8 -->
<g id="edge10" class="edge"><title>Node8&#45;&gt;Node8</title>
<path fill="none" stroke="#9a32cd" stroke-dasharray="5,2" d="M805.447,-161.529C806.786,-166.628 814.97,-170.5 830,-170.5 853.461,-170.5 860.243,-161.065 850.345,-152.257"/>
<polygon fill="#9a32cd" stroke="#9a32cd" points="808.709,-162.81 809.655,-152.257 802.335,-159.916 808.709,-162.81"/>
<text text-anchor="middle" x="830" y="-173.5" font-family="Helvetica,sans-Serif" font-size="10.00"> mpParent</text>
</g>
<!-- Node8&#45;&gt;Node14 -->
<g id="edge21" class="edge"><title>Node8&#45;&gt;Node14</title>
<path fill="none" stroke="#9a32cd" stroke-dasharray="5,2" d="M904.012,-137.975C1011.92,-133.705 1218.92,-134.835 1383,-191.5 1582.95,-260.551 1760.31,-467.21 1799.13,-514.697"/>
<polygon fill="#9a32cd" stroke="#9a32cd" points="903.726,-134.484 893.883,-138.404 904.022,-141.478 903.726,-134.484"/>
<text text-anchor="middle" x="1323.5" y="-194.5" font-family="Helvetica,sans-Serif" font-size="10.00"> mpCurrentKeyFrame</text>
</g>
<!-- Node8&#45;&gt;Node15 -->
<g id="edge27" class="edge"><title>Node8&#45;&gt;Node15</title>
<path fill="none" stroke="#9a32cd" stroke-dasharray="5,2" d="M875.11,-154.737C889.124,-158.569 904.697,-162.77 919,-166.5 970.631,-179.965 1108.85,-193.109 1152,-224.5 1215.92,-271.008 1215.38,-302.618 1246,-375.5 1259.11,-406.706 1249.92,-418.721 1264,-449.5 1277.1,-478.123 1300.7,-507.035 1313.56,-521.678"/>
<polygon fill="#9a32cd" stroke="#9a32cd" points="875.791,-151.294 865.221,-152.023 873.939,-158.045 875.791,-151.294"/>
<text text-anchor="middle" x="1091.5" y="-238.5" font-family="Helvetica,sans-Serif" font-size="10.00"> mpLastKeyFrame</text>
<text text-anchor="middle" x="1091.5" y="-227.5" font-family="Helvetica,sans-Serif" font-size="10.00">mpReferenceKF</text>
</g>
<!-- Node8&#45;&gt;Node18 -->
<g id="edge36" class="edge"><title>Node8&#45;&gt;Node18</title>
<path fill="none" stroke="#9a32cd" stroke-dasharray="5,2" d="M854.15,-157.656C871.425,-168.394 895.926,-182.444 919,-191.5 959.037,-207.214 977.781,-189.812 1013,-214.5 1024.81,-222.778 1019.81,-232.397 1031,-241.5 1038.52,-247.617 1047.8,-252.348 1056.77,-255.929"/>
<polygon fill="#9a32cd" stroke="#9a32cd" points="855.673,-154.478 845.352,-152.085 851.928,-160.392 855.673,-154.478"/>
<text text-anchor="middle" x="966" y="-217.5" font-family="Helvetica,sans-Serif" font-size="10.00"> mpReferenceKF</text>
</g>
<!-- Node9 -->
<g id="node9" class="node"><title>Node9</title>
<g id="a_node9"><a xlink:href="class_d_bo_w2_1_1_feature_vector.html" target="_top" xlink:title="Vector of nodes with indexes of local features. ">
<polygon fill="white" stroke="black" points="493,-113 493,-132 612,-132 612,-113 493,-113"/>
<text text-anchor="middle" x="552.5" y="-120" font-family="Helvetica,sans-Serif" font-size="10.00">DBoW2::FeatureVector</text>
</a>
</g>
</g>
<!-- Node9&#45;&gt;Node8 -->
<g id="edge13" class="edge"><title>Node9&#45;&gt;Node8</title>
<path fill="none" stroke="#9a32cd" stroke-dasharray="5,2" d="M622.478,-125.831C657.926,-127.724 701.803,-130.347 741,-133.5 749.113,-134.153 757.639,-134.921 766.059,-135.729"/>
<polygon fill="#9a32cd" stroke="#9a32cd" points="622.41,-122.322 612.239,-125.292 622.042,-129.313 622.41,-122.322"/>
<text text-anchor="middle" x="698" y="-136.5" font-family="Helvetica,sans-Serif" font-size="10.00"> mFeatVec</text>
</g>
<!-- Node9&#45;&gt;Node18 -->
<g id="edge38" class="edge"><title>Node9&#45;&gt;Node18</title>
<path fill="none" stroke="#9a32cd" stroke-dasharray="5,2" d="M621.912,-133.289C627.249,-135.539 632.359,-138.246 637,-141.5 649.112,-149.994 642.859,-161.047 655,-169.5 716.474,-212.302 933.828,-245.246 1036.29,-258.781"/>
<polygon fill="#9a32cd" stroke="#9a32cd" points="622.706,-129.854 612.112,-129.714 620.307,-136.43 622.706,-129.854"/>
<text text-anchor="middle" x="830" y="-241.5" font-family="Helvetica,sans-Serif" font-size="10.00"> mFeatVec</text>
</g>
<!-- Node10 -->
<g id="node10" class="node"><title>Node10</title>
<polygon fill="white" stroke="#bfbfbf" points="254.5,-0.5 254.5,-30.5 383.5,-30.5 383.5,-0.5 254.5,-0.5"/>
<text text-anchor="start" x="262.5" y="-18.5" font-family="Helvetica,sans-Serif" font-size="10.00">std::map&lt; NodeId, std</text>
<text text-anchor="middle" x="319" y="-7.5" font-family="Helvetica,sans-Serif" font-size="10.00">::vector&lt; unsigned int &gt; &gt;</text>
</g>
<!-- Node10&#45;&gt;Node9 -->
<g id="edge14" class="edge"><title>Node10&#45;&gt;Node9</title>
<path fill="none" stroke="midnightblue" d="M381.278,-33.9729C386.981,-36.0415 392.631,-38.2274 398,-40.5 450.309,-62.6404 508.572,-96.4852 535.834,-112.903"/>
<polygon fill="midnightblue" stroke="midnightblue" points="382.264,-30.61 371.669,-30.6075 379.95,-37.2165 382.264,-30.61"/>
</g>
<!-- Node11 -->
<g id="node11" class="node"><title>Node11</title>
<g id="a_node11"><a xlink:href="class_d_bo_w2_1_1_bow_vector.html" target="_top" xlink:title="Vector of words to represent images. ">
<polygon fill="white" stroke="black" points="500,-151 500,-170 605,-170 605,-151 500,-151"/>
<text text-anchor="middle" x="552.5" y="-158" font-family="Helvetica,sans-Serif" font-size="10.00">DBoW2::BowVector</text>
</a>
</g>
</g>
<!-- Node11&#45;&gt;Node8 -->
<g id="edge15" class="edge"><title>Node11&#45;&gt;Node8</title>
<path fill="none" stroke="#9a32cd" stroke-dasharray="5,2" d="M615.535,-156.447C660.529,-153.507 721.158,-149.546 766.304,-146.596"/>
<polygon fill="#9a32cd" stroke="#9a32cd" points="615.07,-152.97 605.319,-157.114 615.526,-159.955 615.07,-152.97"/>
<text text-anchor="middle" x="698" y="-157.5" font-family="Helvetica,sans-Serif" font-size="10.00"> mBowVec</text>
</g>
<!-- Node11&#45;&gt;Node18 -->
<g id="edge39" class="edge"><title>Node11&#45;&gt;Node18</title>
<path fill="none" stroke="#9a32cd" stroke-dasharray="5,2" d="M614.819,-169.917C623.09,-173.397 630.834,-178.115 637,-184.5 659.913,-208.227 629.212,-235.933 655,-256.5 684.118,-279.723 926.315,-272.534 1036.41,-267.987"/>
<polygon fill="#9a32cd" stroke="#9a32cd" points="615.908,-166.589 605.314,-166.492 613.535,-173.175 615.908,-166.589"/>
<text text-anchor="middle" x="830" y="-276.5" font-family="Helvetica,sans-Serif" font-size="10.00"> mBowVec</text>
</g>
<!-- Node12 -->
<g id="node12" class="node"><title>Node12</title>
<polygon fill="white" stroke="#bfbfbf" points="240,-50 240,-69 398,-69 398,-50 240,-50"/>
<text text-anchor="middle" x="319" y="-57" font-family="Helvetica,sans-Serif" font-size="10.00">std::map&lt; WordId, WordValue &gt;</text>
</g>
<!-- Node12&#45;&gt;Node11 -->
<g id="edge16" class="edge"><title>Node12&#45;&gt;Node11</title>
<path fill="none" stroke="midnightblue" d="M342.741,-74.785C370.979,-93.1175 421.157,-123.609 468,-141.5 478,-145.319 488.98,-148.493 499.597,-151.083"/>
<polygon fill="midnightblue" stroke="midnightblue" points="344.322,-71.6358 334.043,-69.0698 340.478,-77.4861 344.322,-71.6358"/>
</g>
<!-- Node13 -->
<g id="node13" class="node"><title>Node13</title>
<g id="a_node13"><a xlink:href="structg2o_1_1_sim3.html" target="_top" xlink:title="g2o::Sim3">
<polygon fill="white" stroke="black" points="1293,-421 1293,-440 1354,-440 1354,-421 1293,-421"/>
<text text-anchor="middle" x="1323.5" y="-428" font-family="Helvetica,sans-Serif" font-size="10.00">g2o::Sim3</text>
</a>
</g>
</g>
<!-- Node13&#45;&gt;Node7 -->
<g id="edge17" class="edge"><title>Node13&#45;&gt;Node7</title>
<path fill="none" stroke="#9a32cd" stroke-dasharray="5,2" d="M1364.21,-428.834C1394.4,-428.036 1436.91,-427.914 1474,-431.5 1487.9,-432.844 1502.92,-435.323 1516.41,-437.935"/>
<polygon fill="#9a32cd" stroke="#9a32cd" points="1363.97,-425.34 1354.08,-429.14 1364.18,-432.337 1363.97,-425.34"/>
<text text-anchor="middle" x="1437.5" y="-434.5" font-family="Helvetica,sans-Serif" font-size="10.00"> mg2oScw</text>
</g>
<!-- Node14&#45;&gt;Node1 -->
<g id="edge52" class="edge"><title>Node14&#45;&gt;Node1</title>
<path fill="none" stroke="#9a32cd" stroke-dasharray="5,2" d="M1795.42,-542.954C1769.76,-582.51 1704.32,-676.339 1628,-731.5 1567.93,-774.918 1545.24,-775.052 1474,-795.5 1320.83,-839.463 1212.79,-866.44 1170,-833.5 1145.23,-814.431 1166.48,-793.207 1152,-765.5 1139.29,-741.187 1116.8,-717.946 1103.41,-705.311"/>
<polygon fill="#9a32cd" stroke="#9a32cd" points="1798.63,-544.434 1801.07,-534.124 1792.73,-540.662 1798.63,-544.434"/>
<text text-anchor="middle" x="1437.5" y="-818.5" font-family="Helvetica,sans-Serif" font-size="10.00"> mpLocalMapper</text>
</g>
<!-- Node14&#45;&gt;Node7 -->
<g id="edge20" class="edge"><title>Node14&#45;&gt;Node7</title>
<path fill="none" stroke="#9a32cd" stroke-dasharray="5,2" d="M1766.69,-511.883C1717.63,-496.527 1635.88,-470.938 1591.66,-457.096"/>
<polygon fill="#9a32cd" stroke="#9a32cd" points="1765.75,-515.257 1776.34,-514.904 1767.84,-508.576 1765.75,-515.257"/>
<text text-anchor="middle" x="1682.5" y="-498.5" font-family="Helvetica,sans-Serif" font-size="10.00"> mpLocalMapper</text>
</g>
<!-- Node14&#45;&gt;Node15 -->
<g id="edge34" class="edge"><title>Node14&#45;&gt;Node15</title>
<path fill="none" stroke="#9a32cd" stroke-dasharray="5,2" d="M1726.57,-525.406C1662.92,-526.151 1571.77,-527.279 1492,-528.5 1455.79,-529.054 1415.19,-529.779 1383.02,-530.377"/>
<polygon fill="#9a32cd" stroke="#9a32cd" points="1726.98,-528.902 1736.94,-525.285 1726.9,-521.902 1726.98,-528.902"/>
<text text-anchor="middle" x="1560" y="-531.5" font-family="Helvetica,sans-Serif" font-size="10.00"> mpLocalMapper</text>
</g>
<!-- Node15&#45;&gt;Node1 -->
<g id="edge53" class="edge"><title>Node15&#45;&gt;Node1</title>
<path fill="none" stroke="#9a32cd" stroke-dasharray="5,2" d="M1310.11,-549.669C1290.72,-577.883 1254.54,-629.618 1246,-635.5 1217.14,-655.376 1202.7,-643.896 1170,-656.5 1148.22,-664.897 1124.4,-677.423 1109,-686"/>
<polygon fill="#9a32cd" stroke="#9a32cd" points="1313.21,-551.331 1315.97,-541.103 1307.43,-547.375 1313.21,-551.331"/>
<text text-anchor="middle" x="1208" y="-659.5" font-family="Helvetica,sans-Serif" font-size="10.00"> mpTracker</text>
</g>
<!-- Node15&#45;&gt;Node7 -->
<g id="edge48" class="edge"><title>Node15&#45;&gt;Node7</title>
<path fill="none" stroke="#9a32cd" stroke-dasharray="5,2" d="M1355.57,-517.75C1369.37,-511.839 1385.88,-505.032 1401,-499.5 1432.95,-487.813 1441.68,-487.104 1474,-476.5 1493.26,-470.181 1514.88,-462.802 1531.49,-457.068"/>
<polygon fill="#9a32cd" stroke="#9a32cd" points="1353.84,-514.682 1346.06,-521.865 1356.62,-521.107 1353.84,-514.682"/>
<text text-anchor="middle" x="1437.5" y="-502.5" font-family="Helvetica,sans-Serif" font-size="10.00"> mpTracker</text>
</g>
<!-- Node15&#45;&gt;Node14 -->
<g id="edge24" class="edge"><title>Node15&#45;&gt;Node14</title>
<path fill="none" stroke="#9a32cd" stroke-dasharray="5,2" d="M1393.37,-538.062C1395.94,-538.225 1398.49,-538.372 1401,-538.5 1542.15,-545.722 1578.17,-550.411 1719,-538.5 1730.72,-537.509 1743.23,-535.873 1755.04,-534.061"/>
<polygon fill="#9a32cd" stroke="#9a32cd" points="1393.57,-534.568 1383.36,-537.365 1393.09,-541.551 1393.57,-534.568"/>
<text text-anchor="middle" x="1560" y="-549.5" font-family="Helvetica,sans-Serif" font-size="10.00"> mpTracker</text>
</g>
<!-- Node15&#45;&gt;Node20 -->
<g id="edge44" class="edge"><title>Node15&#45;&gt;Node20</title>
<path fill="none" stroke="#9a32cd" stroke-dasharray="5,2" d="M1337.5,-549.581C1349.55,-566.465 1367.84,-592.451 1383,-615.5 1391.34,-628.173 1389.02,-635.196 1401,-644.5 1427.87,-665.363 1442.62,-654.377 1474,-667.5 1498.96,-677.935 1526.37,-693.184 1543.13,-702.975"/>
<polygon fill="#9a32cd" stroke="#9a32cd" points="1340.18,-547.307 1331.51,-541.213 1334.49,-551.382 1340.18,-547.307"/>
<text text-anchor="middle" x="1437.5" y="-670.5" font-family="Helvetica,sans-Serif" font-size="10.00"> mpTracker</text>
</g>
<!-- Node16 -->
<g id="node16" class="node"><title>Node16</title>
<g id="a_node16"><a xlink:href="class_o_r_b___s_l_a_m2_1_1_initializer.html" target="_top" xlink:title="Inicializador de mapa en modo monocular. ">
<polygon fill="white" stroke="black" points="1031,-607 1031,-626 1152,-626 1152,-607 1031,-607"/>
<text text-anchor="middle" x="1091.5" y="-614" font-family="Helvetica,sans-Serif" font-size="10.00">ORB_SLAM2::Initializer</text>
</a>
</g>
</g>
<!-- Node16&#45;&gt;Node15 -->
<g id="edge29" class="edge"><title>Node16&#45;&gt;Node15</title>
<path fill="none" stroke="#9a32cd" stroke-dasharray="5,2" d="M1130.16,-603.614C1142.8,-599.358 1156.98,-594.652 1170,-590.5 1203.62,-579.775 1213.06,-580.158 1246,-567.5 1266.28,-559.708 1288.68,-548.893 1303.97,-541.155"/>
<polygon fill="#9a32cd" stroke="#9a32cd" points="1128.77,-600.392 1120.41,-606.911 1131.01,-607.023 1128.77,-600.392"/>
<text text-anchor="middle" x="1208" y="-593.5" font-family="Helvetica,sans-Serif" font-size="10.00"> mpInitializer</text>
</g>
<!-- Node17&#45;&gt;Node1 -->
<g id="edge49" class="edge"><title>Node17&#45;&gt;Node1</title>
<path fill="none" stroke="#9a32cd" stroke-dasharray="5,2" d="M883.201,-605.305C936.031,-617.33 1010.33,-634.494 1013,-636.5 1026.04,-646.313 1018.97,-657.471 1031,-668.5 1039.19,-676.014 1049.83,-681.732 1059.85,-685.927"/>
<polygon fill="#9a32cd" stroke="#9a32cd" points="883.806,-601.853 873.279,-603.049 882.255,-608.679 883.806,-601.853"/>
<text text-anchor="middle" x="966" y="-639.5" font-family="Helvetica,sans-Serif" font-size="10.00"> mpMapDrawer</text>
</g>
<!-- Node17&#45;&gt;Node15 -->
<g id="edge30" class="edge"><title>Node17&#45;&gt;Node15</title>
<path fill="none" stroke="#9a32cd" stroke-dasharray="5,2" d="M906.222,-584.726C989.407,-574.914 1127.37,-558.317 1246,-542.5 1251.72,-541.737 1257.68,-540.921 1263.63,-540.09"/>
<polygon fill="#9a32cd" stroke="#9a32cd" points="905.626,-581.272 896.104,-585.918 906.445,-588.224 905.626,-581.272"/>
<text text-anchor="middle" x="1091.5" y="-573.5" font-family="Helvetica,sans-Serif" font-size="10.00"> mpMapDrawer</text>
</g>
<!-- Node17&#45;&gt;Node20 -->
<g id="edge43" class="edge"><title>Node17&#45;&gt;Node20</title>
<path fill="none" stroke="#9a32cd" stroke-dasharray="5,2" d="M906.404,-591.696C940.535,-593.66 980.432,-599.995 1013,-616.5 1023.38,-621.758 1020.31,-630.904 1031,-635.5 1080.4,-656.749 1100.83,-652.046 1152,-635.5 1161.39,-632.464 1160.61,-625.536 1170,-622.5 1202.14,-612.108 1218.3,-603.167 1246,-622.5 1265.02,-635.779 1245.94,-656.94 1264,-671.5 1332.14,-726.422 1439.12,-726.643 1503.81,-720.487"/>
<polygon fill="#9a32cd" stroke="#9a32cd" points="906.161,-588.182 896.011,-591.221 905.841,-595.174 906.161,-588.182"/>
<text text-anchor="middle" x="1208" y="-625.5" font-family="Helvetica,sans-Serif" font-size="10.00"> mpMapDrawer</text>
</g>
<!-- Node18&#45;&gt;Node15 -->
<g id="edge35" class="edge"><title>Node18&#45;&gt;Node15</title>
<path fill="none" stroke="#9a32cd" stroke-dasharray="5,2" d="M1140.85,-279.919C1145.02,-282.594 1148.85,-285.758 1152,-289.5 1176.33,-318.358 1144.4,-344.759 1170,-372.5 1193.93,-398.436 1220.7,-370.896 1246,-395.5 1264.14,-413.137 1252.53,-426.953 1264,-449.5 1278.28,-477.554 1301.4,-506.697 1313.87,-521.528"/>
<polygon fill="#9a32cd" stroke="#9a32cd" points="1142.37,-276.76 1131.9,-275.088 1139.04,-282.919 1142.37,-276.76"/>
<text text-anchor="middle" x="1208" y="-420.5" font-family="Helvetica,sans-Serif" font-size="10.00"> mLastFrame</text>
<text text-anchor="middle" x="1208" y="-409.5" font-family="Helvetica,sans-Serif" font-size="10.00">mCurrentFrame</text>
<text text-anchor="middle" x="1208" y="-398.5" font-family="Helvetica,sans-Serif" font-size="10.00">mInitialFrame</text>
</g>
<!-- Node19 -->
<g id="node19" class="node"><title>Node19</title>
<g id="a_node19"><a xlink:href="class_o_r_b___s_l_a_m2_1_1_o_r_bextractor.html" target="_top" xlink:title="Empaqueta todos los métodos de detección de puntos singulares y extracción de descriptores. ">
<polygon fill="white" stroke="black" points="759,-370 759,-389 901,-389 901,-370 759,-370"/>
<text text-anchor="middle" x="830" y="-377" font-family="Helvetica,sans-Serif" font-size="10.00">ORB_SLAM2::ORBextractor</text>
</a>
</g>
</g>
<!-- Node19&#45;&gt;Node15 -->
<g id="edge47" class="edge"><title>Node19&#45;&gt;Node15</title>
<path fill="none" stroke="#9a32cd" stroke-dasharray="5,2" d="M911.607,-381.992C977.488,-385.811 1072.4,-395.417 1152,-419.5 1160.56,-422.09 1161.79,-424.949 1170,-428.5 1203.04,-442.793 1215.58,-437.249 1246,-456.5 1275.23,-475 1302.37,-506.209 1315.03,-521.894"/>
<polygon fill="#9a32cd" stroke="#9a32cd" points="911.466,-378.48 901.29,-381.428 911.084,-385.469 911.466,-378.48"/>
<text text-anchor="middle" x="1091.5" y="-433.5" font-family="Helvetica,sans-Serif" font-size="10.00"> mpORBextractorLeft</text>
<text text-anchor="middle" x="1091.5" y="-422.5" font-family="Helvetica,sans-Serif" font-size="10.00">mpIniORBextractor</text>
</g>
<!-- Node19&#45;&gt;Node18 -->
<g id="edge40" class="edge"><title>Node19&#45;&gt;Node18</title>
<path fill="none" stroke="#9a32cd" stroke-dasharray="5,2" d="M865.295,-366.275C902.38,-351.593 962.912,-326.515 1013,-300.5 1021.32,-296.179 1022.62,-293.712 1031,-289.5 1041.55,-284.195 1053.56,-279.169 1064.02,-275.1"/>
<polygon fill="#9a32cd" stroke="#9a32cd" points="863.963,-363.037 855.938,-369.955 866.526,-369.552 863.963,-363.037"/>
<text text-anchor="middle" x="966" y="-347.5" font-family="Helvetica,sans-Serif" font-size="10.00"> mpORBextractorLeft</text>
</g>
<!-- Node20&#45;&gt;Node1 -->
<g id="edge54" class="edge"><title>Node20&#45;&gt;Node1</title>
<path fill="none" stroke="#9a32cd" stroke-dasharray="5,2" d="M1499.91,-723.675C1423.06,-736.225 1285.04,-751.972 1170,-728.5 1148.08,-724.027 1124.68,-713.113 1109.4,-705.055"/>
<polygon fill="#9a32cd" stroke="#9a32cd" points="1500.6,-727.109 1509.88,-722.008 1499.44,-720.205 1500.6,-727.109"/>
<text text-anchor="middle" x="1323.5" y="-744.5" font-family="Helvetica,sans-Serif" font-size="10.00"> mpViewer</text>
</g>
<!-- Node20&#45;&gt;Node15 -->
<g id="edge41" class="edge"><title>Node20&#45;&gt;Node15</title>
<path fill="none" stroke="#9a32cd" stroke-dasharray="5,2" d="M1542.14,-695.403C1525.47,-678.839 1498.89,-653.377 1474,-633.5 1470.82,-630.964 1375.04,-565.839 1338.49,-541.001"/>
<polygon fill="#9a32cd" stroke="#9a32cd" points="1539.94,-698.153 1549.49,-702.757 1544.9,-693.207 1539.94,-698.153"/>
<text text-anchor="middle" x="1437.5" y="-636.5" font-family="Helvetica,sans-Serif" font-size="10.00"> mpViewer</text>
</g>
</g>
</svg>
