<?xml version="1.0" encoding="UTF-8" standalone="no"?>
<!DOCTYPE svg PUBLIC "-//W3C//DTD SVG 1.1//EN"
 "http://www.w3.org/Graphics/SVG/1.1/DTD/svg11.dtd">
<!-- Generated by graphviz version 2.38.0 (20140413.2041)
 -->
<!-- Title: g2o::OptimizableGraph::Data Pages: 1 -->
<svg width="187pt" height="107pt"
 viewBox="0.00 0.00 186.50 107.00" xmlns="http://www.w3.org/2000/svg" xmlns:xlink="http://www.w3.org/1999/xlink">
<g id="graph0" class="graph" transform="scale(1 1) rotate(0) translate(4 103)">
<title>g2o::OptimizableGraph::Data</title>
<polygon fill="white" stroke="none" points="-4,4 -4,-103 182.5,-103 182.5,4 -4,4"/>
<!-- Node2 -->
<g id="node1" class="node"><title>Node2</title>
<polygon fill="#bfbfbf" stroke="black" points="16.5,-0.5 16.5,-30.5 132.5,-30.5 132.5,-0.5 16.5,-0.5"/>
<text text-anchor="start" x="24.5" y="-18.5" font-family="Helvetica,sans-Serif" font-size="10.00">g2o::OptimizableGraph</text>
<text text-anchor="middle" x="74.5" y="-7.5" font-family="Helvetica,sans-Serif" font-size="10.00">::Data</text>
</g>
<!-- Node2&#45;&gt;Node2 -->
<g id="edge2" class="edge"><title>Node2&#45;&gt;Node2</title>
<path fill="none" stroke="#9a32cd" stroke-dasharray="5,2" d="M142.985,-20.1087C147.659,-19.0492 150.5,-17.5129 150.5,-15.5 150.5,-12.2793 143.226,-10.2789 132.812,-9.49892"/>
<polygon fill="#9a32cd" stroke="#9a32cd" points="142.245,-16.6773 132.812,-21.5011 143.194,-23.6127 142.245,-16.6773"/>
<text text-anchor="middle" x="164.5" y="-13" font-family="Helvetica,sans-Serif" font-size="10.00"> _next</text>
</g>
<!-- Node3 -->
<g id="node2" class="node"><title>Node3</title>
<g id="a_node2"><a xlink:href="structg2o_1_1_hyper_graph_1_1_hyper_graph_element.html" target="_top" xlink:title="base hyper graph element, specialized in vertex and edge ">
<polygon fill="white" stroke="black" points="-1.42109e-14,-68.5 -1.42109e-14,-98.5 149,-98.5 149,-68.5 -1.42109e-14,-68.5"/>
<text text-anchor="start" x="8" y="-86.5" font-family="Helvetica,sans-Serif" font-size="10.00">g2o::HyperGraph::HyperGraph</text>
<text text-anchor="middle" x="74.5" y="-75.5" font-family="Helvetica,sans-Serif" font-size="10.00">Element</text>
</a>
</g>
</g>
<!-- Node3&#45;&gt;Node2 -->
<g id="edge1" class="edge"><title>Node3&#45;&gt;Node2</title>
<path fill="none" stroke="midnightblue" d="M74.5,-58.0322C74.5,-48.8606 74.5,-38.7449 74.5,-30.7931"/>
<polygon fill="midnightblue" stroke="midnightblue" points="71.0001,-58.1789 74.5,-68.179 78.0001,-58.179 71.0001,-58.1789"/>
</g>
</g>
</svg>
