<?xml version="1.0" encoding="UTF-8" standalone="no"?>
<!DOCTYPE svg PUBLIC "-//W3C//DTD SVG 1.1//EN"
 "http://www.w3.org/Graphics/SVG/1.1/DTD/svg11.dtd">
<!-- Generated by graphviz version 2.38.0 (20140413.2041)
 -->
<!-- Title: g2o::BaseEdge&lt; D, E &gt; Pages: 1 -->
<svg width="326pt" height="241pt"
 viewBox="0.00 0.00 325.50 241.00" xmlns="http://www.w3.org/2000/svg" xmlns:xlink="http://www.w3.org/1999/xlink">
<g id="graph0" class="graph" transform="scale(1 1) rotate(0) translate(4 237)">
<title>g2o::BaseEdge&lt; D, E &gt;</title>
<polygon fill="white" stroke="none" points="-4,4 -4,-237 321.5,-237 321.5,4 -4,4"/>
<!-- Node7 -->
<g id="node1" class="node"><title>Node7</title>
<polygon fill="#bfbfbf" stroke="black" points="175.5,-0.5 175.5,-19.5 297.5,-19.5 297.5,-0.5 175.5,-0.5"/>
<text text-anchor="middle" x="236.5" y="-7.5" font-family="Helvetica,sans-Serif" font-size="10.00">g2o::BaseEdge&lt; D, E &gt;</text>
</g>
<!-- Node8 -->
<g id="node2" class="node"><title>Node8</title>
<g id="a_node2"><a xlink:href="classg2o_1_1_optimizable_graph_1_1_edge.html" target="_top" xlink:title="g2o::OptimizableGraph\l::Edge">
<polygon fill="white" stroke="black" points="111.5,-67.5 111.5,-97.5 227.5,-97.5 227.5,-67.5 111.5,-67.5"/>
<text text-anchor="start" x="119.5" y="-85.5" font-family="Helvetica,sans-Serif" font-size="10.00">g2o::OptimizableGraph</text>
<text text-anchor="middle" x="169.5" y="-74.5" font-family="Helvetica,sans-Serif" font-size="10.00">::Edge</text>
</a>
</g>
</g>
<!-- Node8&#45;&gt;Node7 -->
<g id="edge1" class="edge"><title>Node8&#45;&gt;Node7</title>
<path fill="none" stroke="midnightblue" d="M190.159,-59.7615C202.911,-46.3439 218.587,-29.8487 228.048,-19.8932"/>
<polygon fill="midnightblue" stroke="midnightblue" points="187.41,-57.5734 183.058,-67.2333 192.484,-62.3956 187.41,-57.5734"/>
</g>
<!-- Node9 -->
<g id="node3" class="node"><title>Node9</title>
<g id="a_node3"><a xlink:href="classg2o_1_1_hyper_graph_1_1_edge.html" target="_top" xlink:title="Abstract Edge class. ">
<polygon fill="white" stroke="black" points="15,-145.5 15,-164.5 134,-164.5 134,-145.5 15,-145.5"/>
<text text-anchor="middle" x="74.5" y="-152.5" font-family="Helvetica,sans-Serif" font-size="10.00">g2o::HyperGraph::Edge</text>
</a>
</g>
</g>
<!-- Node9&#45;&gt;Node8 -->
<g id="edge2" class="edge"><title>Node9&#45;&gt;Node8</title>
<path fill="none" stroke="midnightblue" d="M94.5428,-139.126C111.058,-126.87 134.318,-109.608 150.532,-97.5762"/>
<polygon fill="midnightblue" stroke="midnightblue" points="92.0934,-136.585 86.1489,-145.355 96.265,-142.207 92.0934,-136.585"/>
</g>
<!-- Node10 -->
<g id="node4" class="node"><title>Node10</title>
<g id="a_node4"><a xlink:href="structg2o_1_1_hyper_graph_1_1_hyper_graph_element.html" target="_top" xlink:title="base hyper graph element, specialized in vertex and edge ">
<polygon fill="white" stroke="black" points="0,-202.5 0,-232.5 149,-232.5 149,-202.5 0,-202.5"/>
<text text-anchor="start" x="8" y="-220.5" font-family="Helvetica,sans-Serif" font-size="10.00">g2o::HyperGraph::HyperGraph</text>
<text text-anchor="middle" x="74.5" y="-209.5" font-family="Helvetica,sans-Serif" font-size="10.00">Element</text>
</a>
</g>
</g>
<!-- Node10&#45;&gt;Node9 -->
<g id="edge3" class="edge"><title>Node10&#45;&gt;Node9</title>
<path fill="none" stroke="midnightblue" d="M74.5,-192.352C74.5,-182.513 74.5,-171.775 74.5,-164.54"/>
<polygon fill="midnightblue" stroke="midnightblue" points="71.0001,-192.468 74.5,-202.468 78.0001,-192.468 71.0001,-192.468"/>
</g>
<!-- Node11 -->
<g id="node5" class="node"><title>Node11</title>
<g id="a_node5"><a xlink:href="classg2o_1_1_robust_kernel.html" target="_top" xlink:title="base for all robust cost functions ">
<polygon fill="white" stroke="black" points="152.5,-145.5 152.5,-164.5 250.5,-164.5 250.5,-145.5 152.5,-145.5"/>
<text text-anchor="middle" x="201.5" y="-152.5" font-family="Helvetica,sans-Serif" font-size="10.00">g2o::RobustKernel</text>
</a>
</g>
</g>
<!-- Node11&#45;&gt;Node8 -->
<g id="edge4" class="edge"><title>Node11&#45;&gt;Node8</title>
<path fill="none" stroke="#9a32cd" stroke-dasharray="5,2" d="M193.313,-135.964C187.896,-124.029 180.896,-108.606 175.889,-97.5762"/>
<polygon fill="#9a32cd" stroke="#9a32cd" points="190.256,-137.696 197.576,-145.355 196.63,-134.803 190.256,-137.696"/>
<text text-anchor="middle" x="220.5" y="-119" font-family="Helvetica,sans-Serif" font-size="10.00"> _robustKernel</text>
</g>
<!-- Node12 -->
<g id="node6" class="node"><title>Node12</title>
<polygon fill="white" stroke="#bfbfbf" points="245,-73 245,-92 274,-92 274,-73 245,-73"/>
<text text-anchor="middle" x="259.5" y="-80" font-family="Helvetica,sans-Serif" font-size="10.00">E</text>
</g>
<!-- Node12&#45;&gt;Node7 -->
<g id="edge5" class="edge"><title>Node12&#45;&gt;Node7</title>
<path fill="none" stroke="#9a32cd" stroke-dasharray="5,2" d="M253.553,-63.2714C248.983,-49.2619 242.872,-30.5324 239.343,-19.7154"/>
<polygon fill="#9a32cd" stroke="#9a32cd" points="250.251,-64.434 256.68,-72.8553 256.906,-62.2629 250.251,-64.434"/>
<text text-anchor="middle" x="283.5" y="-41" font-family="Helvetica,sans-Serif" font-size="10.00"> _measurement</text>
</g>
</g>
</svg>
