<?xml version="1.0" encoding="UTF-8" standalone="no"?>
<!DOCTYPE svg PUBLIC "-//W3C//DTD SVG 1.1//EN"
 "http://www.w3.org/Graphics/SVG/1.1/DTD/svg11.dtd">
<!-- Generated by graphviz version 2.38.0 (20140413.2041)
 -->
<!-- Title: ORB_SLAM2::Frame Pages: 1 -->
<svg width="1379pt" height="292pt"
 viewBox="0.00 0.00 1379.00 292.00" xmlns="http://www.w3.org/2000/svg" xmlns:xlink="http://www.w3.org/1999/xlink">
<g id="graph0" class="graph" transform="scale(1 1) rotate(0) translate(4 288)">
<title>ORB_SLAM2::Frame</title>
<polygon fill="white" stroke="none" points="-4,4 -4,-288 1375,-288 1375,4 -4,4"/>
<!-- Node1 -->
<g id="node1" class="node"><title>Node1</title>
<polygon fill="#bfbfbf" stroke="black" points="1031,-104.5 1031,-123.5 1141,-123.5 1141,-104.5 1031,-104.5"/>
<text text-anchor="middle" x="1086" y="-111.5" font-family="Helvetica,sans-Serif" font-size="10.00">ORB_SLAM2::Frame</text>
</g>
<!-- Node2 -->
<g id="node2" class="node"><title>Node2</title>
<g id="a_node2"><a xlink:href="class_o_r_b___s_l_a_m2_1_1_key_frame.html" target="_top" xlink:title="Cuadro clave, keyframe. ">
<polygon fill="white" stroke="black" points="766.5,-203.5 766.5,-222.5 893.5,-222.5 893.5,-203.5 766.5,-203.5"/>
<text text-anchor="middle" x="830" y="-210.5" font-family="Helvetica,sans-Serif" font-size="10.00">ORB_SLAM2::KeyFrame</text>
</a>
</g>
</g>
<!-- Node2&#45;&gt;Node1 -->
<g id="edge1" class="edge"><title>Node2&#45;&gt;Node1</title>
<path fill="none" stroke="#9a32cd" stroke-dasharray="5,2" d="M871.742,-200.526C886.576,-196.1 903.504,-191.182 919,-187 960.524,-175.792 973.789,-181.674 1013,-164 1036.59,-153.369 1060.6,-134.808 1074.07,-123.538"/>
<polygon fill="#9a32cd" stroke="#9a32cd" points="870.421,-197.268 861.85,-203.497 872.434,-203.972 870.421,-197.268"/>
<text text-anchor="middle" x="966" y="-190" font-family="Helvetica,sans-Serif" font-size="10.00"> mpReferenceKF</text>
</g>
<!-- Node2&#45;&gt;Node2 -->
<g id="edge5" class="edge"><title>Node2&#45;&gt;Node2</title>
<path fill="none" stroke="#9a32cd" stroke-dasharray="5,2" d="M805.447,-232.029C806.786,-237.128 814.97,-241 830,-241 853.461,-241 860.243,-231.565 850.345,-222.757"/>
<polygon fill="#9a32cd" stroke="#9a32cd" points="808.709,-233.31 809.655,-222.757 802.335,-230.416 808.709,-233.31"/>
<text text-anchor="middle" x="830" y="-244" font-family="Helvetica,sans-Serif" font-size="10.00"> mpParent</text>
</g>
<!-- Node6 -->
<g id="node6" class="node"><title>Node6</title>
<g id="a_node6"><a xlink:href="class_o_r_b___s_l_a_m2_1_1_map.html" target="_top" xlink:title="Mapa del mundo, de puntos y keyframes. ">
<polygon fill="white" stroke="black" points="1035.5,-255.5 1035.5,-274.5 1136.5,-274.5 1136.5,-255.5 1035.5,-255.5"/>
<text text-anchor="middle" x="1086" y="-262.5" font-family="Helvetica,sans-Serif" font-size="10.00">ORB_SLAM2::Map</text>
</a>
</g>
</g>
<!-- Node2&#45;&gt;Node6 -->
<g id="edge11" class="edge"><title>Node2&#45;&gt;Node6</title>
<path fill="none" stroke="#9a32cd" stroke-dasharray="5,2" d="M854.248,-227.99C871.403,-238.192 895.715,-250.908 919,-257 957.102,-266.969 1001.77,-268.581 1035.16,-267.914"/>
<polygon fill="#9a32cd" stroke="#9a32cd" points="855.863,-224.874 845.507,-222.638 852.208,-230.845 855.863,-224.874"/>
<text text-anchor="middle" x="966" y="-270" font-family="Helvetica,sans-Serif" font-size="10.00"> keyFrameBuffer</text>
</g>
<!-- Node7 -->
<g id="node7" class="node"><title>Node7</title>
<g id="a_node7"><a xlink:href="class_o_r_b___s_l_a_m2_1_1_map_point.html" target="_top" xlink:title="Cada instancia representa un mapa 3D en el sistema de referencia del mapa. ">
<polygon fill="white" stroke="black" points="1248,-235.5 1248,-254.5 1371,-254.5 1371,-235.5 1248,-235.5"/>
<text text-anchor="middle" x="1309.5" y="-242.5" font-family="Helvetica,sans-Serif" font-size="10.00">ORB_SLAM2::MapPoint</text>
</a>
</g>
</g>
<!-- Node2&#45;&gt;Node7 -->
<g id="edge9" class="edge"><title>Node2&#45;&gt;Node7</title>
<path fill="none" stroke="#9a32cd" stroke-dasharray="5,2" d="M904.062,-216.484C984.121,-220.514 1116.31,-227.791 1230,-237 1235.73,-237.464 1241.7,-237.992 1247.67,-238.549"/>
<polygon fill="#9a32cd" stroke="#9a32cd" points="903.762,-212.965 893.6,-215.961 903.413,-219.956 903.762,-212.965"/>
<text text-anchor="middle" x="1086" y="-233" font-family="Helvetica,sans-Serif" font-size="10.00"> mpRefKF</text>
</g>
<!-- Node3 -->
<g id="node3" class="node"><title>Node3</title>
<g id="a_node3"><a xlink:href="class_o_r_b___s_l_a_m2_1_1_key_frame_database.html" target="_top" xlink:title="Lista invertida de KeyFrames, accesible por BoW. ">
<polygon fill="white" stroke="black" points="468,-242.5 468,-261.5 637,-261.5 637,-242.5 468,-242.5"/>
<text text-anchor="middle" x="552.5" y="-249.5" font-family="Helvetica,sans-Serif" font-size="10.00">ORB_SLAM2::KeyFrameDatabase</text>
</a>
</g>
</g>
<!-- Node3&#45;&gt;Node2 -->
<g id="edge2" class="edge"><title>Node3&#45;&gt;Node2</title>
<path fill="none" stroke="#9a32cd" stroke-dasharray="5,2" d="M638.626,-241.111C670.736,-236.883 707.574,-231.887 741,-227 750.49,-225.613 760.546,-224.076 770.335,-222.544"/>
<polygon fill="#9a32cd" stroke="#9a32cd" points="637.836,-237.685 628.377,-242.456 638.747,-244.625 637.836,-237.685"/>
<text text-anchor="middle" x="698" y="-241" font-family="Helvetica,sans-Serif" font-size="10.00"> mpKeyFrameDB</text>
</g>
<!-- Node4 -->
<g id="node4" class="node"><title>Node4</title>
<g id="a_node4"><a xlink:href="class_d_bo_w2_1_1_templated_vocabulary.html" target="_top" xlink:title="Generic Vocabulary. ">
<polygon fill="white" stroke="black" points="243,-198 243,-228 395,-228 395,-198 243,-198"/>
<text text-anchor="start" x="251" y="-216" font-family="Helvetica,sans-Serif" font-size="10.00">DBoW2::TemplatedVocabulary</text>
<text text-anchor="middle" x="319" y="-205" font-family="Helvetica,sans-Serif" font-size="10.00">&lt; TDescriptor, F &gt;</text>
</a>
</g>
</g>
<!-- Node4&#45;&gt;Node1 -->
<g id="edge17" class="edge"><title>Node4&#45;&gt;Node1</title>
<path fill="none" stroke="#9a32cd" stroke-dasharray="5,2" d="M399.408,-195.856C467.038,-181.901 566.959,-162.807 655,-152 813.251,-132.575 855.007,-150.424 1013,-129 1023.12,-127.627 1033.95,-125.648 1044.05,-123.575"/>
<polygon fill="#9a32cd" stroke="#9a32cd" points="398.335,-192.504 389.255,-197.962 399.757,-199.358 398.335,-192.504"/>
<text text-anchor="middle" x="698" y="-155" font-family="Helvetica,sans-Serif" font-size="10.00"> mpORBvocabulary</text>
</g>
<!-- Node4&#45;&gt;Node2 -->
<g id="edge12" class="edge"><title>Node4&#45;&gt;Node2</title>
<path fill="none" stroke="#9a32cd" stroke-dasharray="5,2" d="M405.377,-213C507.416,-213 675.718,-213 766.427,-213"/>
<polygon fill="#9a32cd" stroke="#9a32cd" points="405.105,-209.5 395.105,-213 405.105,-216.5 405.105,-209.5"/>
<text text-anchor="middle" x="552.5" y="-216" font-family="Helvetica,sans-Serif" font-size="10.00"> mpORBvocabulary</text>
</g>
<!-- Node4&#45;&gt;Node3 -->
<g id="edge3" class="edge"><title>Node4&#45;&gt;Node3</title>
<path fill="none" stroke="#9a32cd" stroke-dasharray="5,2" d="M405.195,-227.353C435.153,-232.399 468.051,-237.942 495.051,-242.49"/>
<polygon fill="#9a32cd" stroke="#9a32cd" points="405.604,-223.872 395.161,-225.662 404.441,-230.775 405.604,-223.872"/>
<text text-anchor="middle" x="433" y="-237" font-family="Helvetica,sans-Serif" font-size="10.00"> mpVoc</text>
</g>
<!-- Node5 -->
<g id="node5" class="node"><title>Node5</title>
<g id="a_node5"><a xlink:href="class_d_bo_w2_1_1_general_scoring.html" target="_top" xlink:title="Base class of scoring functions. ">
<polygon fill="white" stroke="black" points="0,-203.5 0,-222.5 124,-222.5 124,-203.5 0,-203.5"/>
<text text-anchor="middle" x="62" y="-210.5" font-family="Helvetica,sans-Serif" font-size="10.00">DBoW2::GeneralScoring</text>
</a>
</g>
</g>
<!-- Node5&#45;&gt;Node4 -->
<g id="edge4" class="edge"><title>Node5&#45;&gt;Node4</title>
<path fill="none" stroke="#9a32cd" stroke-dasharray="5,2" d="M134.347,-213C168.159,-213 208.555,-213 242.841,-213"/>
<polygon fill="#9a32cd" stroke="#9a32cd" points="134.079,-209.5 124.079,-213 134.079,-216.5 134.079,-209.5"/>
<text text-anchor="middle" x="182" y="-216" font-family="Helvetica,sans-Serif" font-size="10.00"> m_scoring_object</text>
</g>
<!-- Node6&#45;&gt;Node2 -->
<g id="edge6" class="edge"><title>Node6&#45;&gt;Node2</title>
<path fill="none" stroke="#9a32cd" stroke-dasharray="5,2" d="M1041.23,-252.863C1031.95,-250.452 1022.18,-248.039 1013,-246 972.248,-236.943 925.952,-228.575 890.251,-222.531"/>
<polygon fill="#9a32cd" stroke="#9a32cd" points="1040.51,-256.292 1051.07,-255.46 1042.3,-249.523 1040.51,-256.292"/>
<text text-anchor="middle" x="966" y="-249" font-family="Helvetica,sans-Serif" font-size="10.00"> mpMap</text>
</g>
<!-- Node6&#45;&gt;Node7 -->
<g id="edge10" class="edge"><title>Node6&#45;&gt;Node7</title>
<path fill="none" stroke="#9a32cd" stroke-dasharray="5,2" d="M1147.03,-262.922C1172.64,-261.705 1202.83,-259.83 1230,-257 1236.58,-256.314 1243.46,-255.464 1250.28,-254.535"/>
<polygon fill="#9a32cd" stroke="#9a32cd" points="1146.56,-259.44 1136.73,-263.389 1146.88,-266.433 1146.56,-259.44"/>
<text text-anchor="middle" x="1194.5" y="-265" font-family="Helvetica,sans-Serif" font-size="10.00"> mpMap</text>
</g>
<!-- Node7&#45;&gt;Node6 -->
<g id="edge7" class="edge"><title>Node7&#45;&gt;Node6</title>
<path fill="none" stroke="#9a32cd" stroke-dasharray="5,2" d="M1237.76,-241.842C1212.78,-241.685 1184.55,-242.598 1159,-246 1144.78,-247.894 1129.35,-251.717 1116.44,-255.441"/>
<polygon fill="#9a32cd" stroke="#9a32cd" points="1237.84,-245.344 1247.89,-241.964 1237.93,-238.344 1237.84,-245.344"/>
<text text-anchor="middle" x="1194.5" y="-249" font-family="Helvetica,sans-Serif" font-size="10.00"> mapPointBuffer</text>
</g>
<!-- Node7&#45;&gt;Node7 -->
<g id="edge8" class="edge"><title>Node7&#45;&gt;Node7</title>
<path fill="none" stroke="#9a32cd" stroke-dasharray="5,2" d="M1288.39,-264.4C1289.8,-269.315 1296.84,-273 1309.5,-273 1329.76,-273 1335.62,-263.565 1327.07,-254.757"/>
<polygon fill="#9a32cd" stroke="#9a32cd" points="1291.77,-265.351 1291.93,-254.757 1285.2,-262.939 1291.77,-265.351"/>
<text text-anchor="middle" x="1309.5" y="-276" font-family="Helvetica,sans-Serif" font-size="10.00"> mpReplaced</text>
</g>
<!-- Node8 -->
<g id="node8" class="node"><title>Node8</title>
<g id="a_node8"><a xlink:href="class_d_bo_w2_1_1_feature_vector.html" target="_top" xlink:title="Vector of nodes with indexes of local features. ">
<polygon fill="white" stroke="black" points="493,-105.5 493,-124.5 612,-124.5 612,-105.5 493,-105.5"/>
<text text-anchor="middle" x="552.5" y="-112.5" font-family="Helvetica,sans-Serif" font-size="10.00">DBoW2::FeatureVector</text>
</a>
</g>
</g>
<!-- Node8&#45;&gt;Node1 -->
<g id="edge18" class="edge"><title>Node8&#45;&gt;Node1</title>
<path fill="none" stroke="#9a32cd" stroke-dasharray="5,2" d="M622.204,-114.871C729.259,-114.669 933.661,-114.285 1030.95,-114.102"/>
<polygon fill="#9a32cd" stroke="#9a32cd" points="622.149,-111.371 612.155,-114.89 622.162,-118.371 622.149,-111.371"/>
<text text-anchor="middle" x="830" y="-118" font-family="Helvetica,sans-Serif" font-size="10.00"> mFeatVec</text>
</g>
<!-- Node8&#45;&gt;Node2 -->
<g id="edge13" class="edge"><title>Node8&#45;&gt;Node2</title>
<path fill="none" stroke="#9a32cd" stroke-dasharray="5,2" d="M579.148,-129.39C599.304,-140.263 628.332,-154.977 655,-165 692.036,-178.92 702.858,-177.482 741,-188 759.067,-192.982 779.175,-198.683 795.604,-203.381"/>
<polygon fill="#9a32cd" stroke="#9a32cd" points="580.738,-126.27 570.285,-124.547 577.382,-132.413 580.738,-126.27"/>
<text text-anchor="middle" x="698" y="-191" font-family="Helvetica,sans-Serif" font-size="10.00"> mFeatVec</text>
</g>
<!-- Node9 -->
<g id="node9" class="node"><title>Node9</title>
<polygon fill="white" stroke="#bfbfbf" points="254.5,-100 254.5,-130 383.5,-130 383.5,-100 254.5,-100"/>
<text text-anchor="start" x="262.5" y="-118" font-family="Helvetica,sans-Serif" font-size="10.00">std::map&lt; NodeId, std</text>
<text text-anchor="middle" x="319" y="-107" font-family="Helvetica,sans-Serif" font-size="10.00">::vector&lt; unsigned int &gt; &gt;</text>
</g>
<!-- Node9&#45;&gt;Node8 -->
<g id="edge14" class="edge"><title>Node9&#45;&gt;Node8</title>
<path fill="none" stroke="midnightblue" d="M393.769,-115C425.779,-115 462.744,-115 492.84,-115"/>
<polygon fill="midnightblue" stroke="midnightblue" points="393.565,-111.5 383.565,-115 393.565,-118.5 393.565,-111.5"/>
</g>
<!-- Node10 -->
<g id="node10" class="node"><title>Node10</title>
<g id="a_node10"><a xlink:href="class_d_bo_w2_1_1_bow_vector.html" target="_top" xlink:title="Vector of words to represent images. ">
<polygon fill="white" stroke="black" points="500,-54.5 500,-73.5 605,-73.5 605,-54.5 500,-54.5"/>
<text text-anchor="middle" x="552.5" y="-61.5" font-family="Helvetica,sans-Serif" font-size="10.00">DBoW2::BowVector</text>
</a>
</g>
</g>
<!-- Node10&#45;&gt;Node1 -->
<g id="edge19" class="edge"><title>Node10&#45;&gt;Node1</title>
<path fill="none" stroke="#9a32cd" stroke-dasharray="5,2" d="M615.255,-69.5174C651.821,-72.8049 699.056,-77.0867 741,-81 843.449,-90.5583 963.018,-102.12 1030.79,-108.711"/>
<polygon fill="#9a32cd" stroke="#9a32cd" points="615.51,-66.0264 605.237,-68.6177 614.884,-72.9983 615.51,-66.0264"/>
<text text-anchor="middle" x="830" y="-99" font-family="Helvetica,sans-Serif" font-size="10.00"> mBowVec</text>
</g>
<!-- Node10&#45;&gt;Node2 -->
<g id="edge15" class="edge"><title>Node10&#45;&gt;Node2</title>
<path fill="none" stroke="#9a32cd" stroke-dasharray="5,2" d="M615.018,-73.9414C653.335,-82.1077 702.487,-96.3016 741,-120 777.727,-142.599 809.326,-184.355 822.478,-203.254"/>
<polygon fill="#9a32cd" stroke="#9a32cd" points="615.519,-70.4716 605.02,-71.8941 614.115,-77.3293 615.519,-70.4716"/>
<text text-anchor="middle" x="698" y="-123" font-family="Helvetica,sans-Serif" font-size="10.00"> mBowVec</text>
</g>
<!-- Node11 -->
<g id="node11" class="node"><title>Node11</title>
<polygon fill="white" stroke="#bfbfbf" points="240,-54.5 240,-73.5 398,-73.5 398,-54.5 240,-54.5"/>
<text text-anchor="middle" x="319" y="-61.5" font-family="Helvetica,sans-Serif" font-size="10.00">std::map&lt; WordId, WordValue &gt;</text>
</g>
<!-- Node11&#45;&gt;Node10 -->
<g id="edge16" class="edge"><title>Node11&#45;&gt;Node10</title>
<path fill="none" stroke="midnightblue" d="M408.425,-64C439.362,-64 473.061,-64 499.979,-64"/>
<polygon fill="midnightblue" stroke="midnightblue" points="408.053,-60.5001 398.053,-64 408.053,-67.5001 408.053,-60.5001"/>
</g>
<!-- Node12 -->
<g id="node12" class="node"><title>Node12</title>
<g id="a_node12"><a xlink:href="class_o_r_b___s_l_a_m2_1_1_o_r_bextractor.html" target="_top" xlink:title="Empaqueta todos los métodos de detección de puntos singulares y extracción de descriptores. ">
<polygon fill="white" stroke="black" points="759,-0.5 759,-19.5 901,-19.5 901,-0.5 759,-0.5"/>
<text text-anchor="middle" x="830" y="-7.5" font-family="Helvetica,sans-Serif" font-size="10.00">ORB_SLAM2::ORBextractor</text>
</a>
</g>
</g>
<!-- Node12&#45;&gt;Node1 -->
<g id="edge20" class="edge"><title>Node12&#45;&gt;Node1</title>
<path fill="none" stroke="#9a32cd" stroke-dasharray="5,2" d="M911.187,-6.78339C944.339,-8.5363 982.153,-14.7222 1013,-31 1045.39,-48.0934 1069.7,-86.2342 1079.82,-104.236"/>
<polygon fill="#9a32cd" stroke="#9a32cd" points="911.193,-3.28091 901.061,-6.37543 910.912,-10.2752 911.193,-3.28091"/>
<text text-anchor="middle" x="966" y="-34" font-family="Helvetica,sans-Serif" font-size="10.00"> mpORBextractorLeft</text>
</g>
</g>
</svg>
