<?xml version="1.0" encoding="UTF-8" standalone="no"?>
<!DOCTYPE svg PUBLIC "-//W3C//DTD SVG 1.1//EN"
 "http://www.w3.org/Graphics/SVG/1.1/DTD/svg11.dtd">
<!-- Generated by graphviz version 2.38.0 (20140413.2041)
 -->
<!-- Title: g2o::OptimizationAlgorithmDogleg Pages: 1 -->
<svg width="142pt" height="162pt"
 viewBox="0.00 0.00 142.00 162.00" xmlns="http://www.w3.org/2000/svg" xmlns:xlink="http://www.w3.org/1999/xlink">
<g id="graph0" class="graph" transform="scale(1 1) rotate(0) translate(4 158)">
<title>g2o::OptimizationAlgorithmDogleg</title>
<polygon fill="white" stroke="none" points="-4,4 -4,-158 138,-158 138,4 -4,4"/>
<!-- Node0 -->
<g id="node1" class="node"><title>Node0</title>
<polygon fill="#bfbfbf" stroke="black" points="0,-0.5 0,-30.5 134,-30.5 134,-0.5 0,-0.5"/>
<text text-anchor="start" x="8" y="-18.5" font-family="Helvetica,sans-Serif" font-size="10.00">g2o::OptimizationAlgorithm</text>
<text text-anchor="middle" x="67" y="-7.5" font-family="Helvetica,sans-Serif" font-size="10.00">Dogleg</text>
</g>
<!-- Node1 -->
<g id="node2" class="node"><title>Node1</title>
<g id="a_node2"><a xlink:href="classg2o_1_1_optimization_algorithm_with_hessian.html" target="_top" xlink:title="Base for solvers operating on the approximated Hessian, e.g., Gauss&#45;Newton, Levenberg. ">
<polygon fill="white" stroke="black" points="0,-67.5 0,-97.5 134,-97.5 134,-67.5 0,-67.5"/>
<text text-anchor="start" x="8" y="-85.5" font-family="Helvetica,sans-Serif" font-size="10.00">g2o::OptimizationAlgorithm</text>
<text text-anchor="middle" x="67" y="-74.5" font-family="Helvetica,sans-Serif" font-size="10.00">WithHessian</text>
</a>
</g>
</g>
<!-- Node1&#45;&gt;Node0 -->
<g id="edge1" class="edge"><title>Node1&#45;&gt;Node0</title>
<path fill="none" stroke="midnightblue" d="M67,-57.1081C67,-48.1539 67,-38.3227 67,-30.5765"/>
<polygon fill="midnightblue" stroke="midnightblue" points="63.5001,-57.3959 67,-67.396 70.5001,-57.396 63.5001,-57.3959"/>
</g>
<!-- Node2 -->
<g id="node3" class="node"><title>Node2</title>
<g id="a_node3"><a xlink:href="classg2o_1_1_optimization_algorithm.html" target="_top" xlink:title="Generic interface for a non&#45;linear solver operating on a graph. ">
<polygon fill="white" stroke="black" points="0,-134.5 0,-153.5 134,-153.5 134,-134.5 0,-134.5"/>
<text text-anchor="middle" x="67" y="-141.5" font-family="Helvetica,sans-Serif" font-size="10.00">g2o::OptimizationAlgorithm</text>
</a>
</g>
</g>
<!-- Node2&#45;&gt;Node1 -->
<g id="edge2" class="edge"><title>Node2&#45;&gt;Node1</title>
<path fill="none" stroke="midnightblue" d="M67,-124.235C67,-115.586 67,-105.497 67,-97.523"/>
<polygon fill="midnightblue" stroke="midnightblue" points="63.5001,-124.475 67,-134.475 70.5001,-124.475 63.5001,-124.475"/>
</g>
</g>
</svg>
