<?xml version="1.0" encoding="UTF-8" standalone="no"?>
<!DOCTYPE svg PUBLIC "-//W3C//DTD SVG 1.1//EN"
 "http://www.w3.org/Graphics/SVG/1.1/DTD/svg11.dtd">
<!-- Generated by graphviz version 2.38.0 (20140413.2041)
 -->
<!-- Title: ORB_SLAM2::Map Pages: 1 -->
<svg width="322pt" height="240pt"
 viewBox="0.00 0.00 321.50 240.00" xmlns="http://www.w3.org/2000/svg" xmlns:xlink="http://www.w3.org/1999/xlink">
<g id="graph0" class="graph" transform="scale(1 1) rotate(0) translate(4 236)">
<title>ORB_SLAM2::Map</title>
<polygon fill="white" stroke="none" points="-4,4 -4,-236 317.5,-236 317.5,4 -4,4"/>
<!-- Node1 -->
<g id="node1" class="node"><title>Node1</title>
<polygon fill="#bfbfbf" stroke="black" points="59.5,-0.5 59.5,-19.5 160.5,-19.5 160.5,-0.5 59.5,-0.5"/>
<text text-anchor="middle" x="110" y="-7.5" font-family="Helvetica,sans-Serif" font-size="10.00">ORB_SLAM2::Map</text>
</g>
<!-- Node1&#45;&gt;Node1 -->
<g id="edge4" class="edge"><title>Node1&#45;&gt;Node1</title>
<path fill="none" stroke="#9a32cd" stroke-dasharray="5,2" d="M170.926,-14.5175C175.612,-13.5176 178.5,-12.0117 178.5,-10 178.5,-6.78125 171.107,-4.85754 160.784,-4.22888"/>
<polygon fill="#9a32cd" stroke="#9a32cd" points="170.279,-11.0708 160.784,-15.7711 171.138,-18.0179 170.279,-11.0708"/>
<text text-anchor="middle" x="196.5" y="-7.5" font-family="Helvetica,sans-Serif" font-size="10.00"> mpMap</text>
</g>
<!-- Node2 -->
<g id="node2" class="node"><title>Node2</title>
<g id="a_node2"><a xlink:href="class_o_r_b___s_l_a_m2_1_1_key_frame_database.html" target="_top" xlink:title="Lista invertida de KeyFrames, accesible por BoW. ">
<polygon fill="white" stroke="black" points="144.5,-67.5 144.5,-86.5 313.5,-86.5 313.5,-67.5 144.5,-67.5"/>
<text text-anchor="middle" x="229" y="-74.5" font-family="Helvetica,sans-Serif" font-size="10.00">ORB_SLAM2::KeyFrameDatabase</text>
</a>
</g>
</g>
<!-- Node2&#45;&gt;Node1 -->
<g id="edge1" class="edge"><title>Node2&#45;&gt;Node1</title>
<path fill="none" stroke="#9a32cd" stroke-dasharray="5,2" d="M203.895,-62.2872C180.31,-49.4047 145.744,-30.5243 125.795,-19.6273"/>
<polygon fill="#9a32cd" stroke="#9a32cd" points="202.497,-65.5117 212.951,-67.2338 205.853,-59.3684 202.497,-65.5117"/>
<text text-anchor="middle" x="228" y="-41" font-family="Helvetica,sans-Serif" font-size="10.00"> mpKeyFrameDatabase</text>
</g>
<!-- Node3 -->
<g id="node3" class="node"><title>Node3</title>
<g id="a_node3"><a xlink:href="class_d_bo_w2_1_1_templated_vocabulary.html" target="_top" xlink:title="Generic Vocabulary. ">
<polygon fill="white" stroke="black" points="0,-134.5 0,-164.5 152,-164.5 152,-134.5 0,-134.5"/>
<text text-anchor="start" x="8" y="-152.5" font-family="Helvetica,sans-Serif" font-size="10.00">DBoW2::TemplatedVocabulary</text>
<text text-anchor="middle" x="76" y="-141.5" font-family="Helvetica,sans-Serif" font-size="10.00">&lt; TDescriptor, F &gt;</text>
</a>
</g>
</g>
<!-- Node3&#45;&gt;Node1 -->
<g id="edge5" class="edge"><title>Node3&#45;&gt;Node1</title>
<path fill="none" stroke="#9a32cd" stroke-dasharray="5,2" d="M69.5289,-124.332C66.2293,-107.811 64.0331,-85.6196 70,-67 76.1255,-47.8854 91.4379,-29.7416 101.241,-19.5263"/>
<polygon fill="#9a32cd" stroke="#9a32cd" points="66.1586,-125.297 71.7819,-134.276 72.9856,-123.75 66.1586,-125.297"/>
<text text-anchor="middle" x="103" y="-74.5" font-family="Helvetica,sans-Serif" font-size="10.00"> mpVocabulary</text>
</g>
<!-- Node3&#45;&gt;Node2 -->
<g id="edge2" class="edge"><title>Node3&#45;&gt;Node2</title>
<path fill="none" stroke="#9a32cd" stroke-dasharray="5,2" d="M115.717,-130.199C146.275,-116.119 187.108,-97.303 210.48,-86.5336"/>
<polygon fill="#9a32cd" stroke="#9a32cd" points="114.212,-127.039 106.594,-134.403 117.141,-133.396 114.212,-127.039"/>
<text text-anchor="middle" x="183" y="-108" font-family="Helvetica,sans-Serif" font-size="10.00"> mpVoc</text>
</g>
<!-- Node4 -->
<g id="node4" class="node"><title>Node4</title>
<g id="a_node4"><a xlink:href="class_d_bo_w2_1_1_general_scoring.html" target="_top" xlink:title="Base class of scoring functions. ">
<polygon fill="white" stroke="black" points="14,-212.5 14,-231.5 138,-231.5 138,-212.5 14,-212.5"/>
<text text-anchor="middle" x="76" y="-219.5" font-family="Helvetica,sans-Serif" font-size="10.00">DBoW2::GeneralScoring</text>
</a>
</g>
</g>
<!-- Node4&#45;&gt;Node3 -->
<g id="edge3" class="edge"><title>Node4&#45;&gt;Node3</title>
<path fill="none" stroke="#9a32cd" stroke-dasharray="5,2" d="M76,-202.236C76,-190.408 76,-175.383 76,-164.576"/>
<polygon fill="#9a32cd" stroke="#9a32cd" points="72.5001,-202.355 76,-212.355 79.5001,-202.355 72.5001,-202.355"/>
<text text-anchor="middle" x="116" y="-186" font-family="Helvetica,sans-Serif" font-size="10.00"> m_scoring_object</text>
</g>
</g>
</svg>
