<?xml version="1.0" encoding="UTF-8" standalone="no"?>
<!DOCTYPE svg PUBLIC "-//W3C//DTD SVG 1.1//EN"
 "http://www.w3.org/Graphics/SVG/1.1/DTD/svg11.dtd">
<!-- Generated by graphviz version 2.38.0 (20140413.2041)
 -->
<!-- Title: g2o::BlockSolver&lt; Traits &gt; Pages: 1 -->
<svg width="1405pt" height="479pt"
 viewBox="0.00 0.00 1405.00 479.00" xmlns="http://www.w3.org/2000/svg" xmlns:xlink="http://www.w3.org/1999/xlink">
<g id="graph0" class="graph" transform="scale(1 1) rotate(0) translate(4 475)">
<title>g2o::BlockSolver&lt; Traits &gt;</title>
<polygon fill="white" stroke="none" points="-4,4 -4,-475 1401,-475 1401,4 -4,4"/>
<!-- Node3 -->
<g id="node1" class="node"><title>Node3</title>
<polygon fill="#bfbfbf" stroke="black" points="1263,-177 1263,-196 1397,-196 1397,-177 1263,-177"/>
<text text-anchor="middle" x="1330" y="-184" font-family="Helvetica,sans-Serif" font-size="10.00">g2o::BlockSolver&lt; Traits &gt;</text>
</g>
<!-- Node4 -->
<g id="node2" class="node"><title>Node4</title>
<g id="a_node2"><a xlink:href="classg2o_1_1_block_solver_base.html" target="_top" xlink:title="base for the block solvers with some basic function interfaces ">
<polygon fill="white" stroke="black" points="978,-344 978,-363 1091,-363 1091,-344 978,-344"/>
<text text-anchor="middle" x="1034.5" y="-351" font-family="Helvetica,sans-Serif" font-size="10.00">g2o::BlockSolverBase</text>
</a>
</g>
</g>
<!-- Node4&#45;&gt;Node3 -->
<g id="edge1" class="edge"><title>Node4&#45;&gt;Node3</title>
<path fill="none" stroke="midnightblue" d="M1101.21,-357.594C1145.25,-357.205 1202.69,-350.353 1245,-322.5 1292.98,-290.912 1318.29,-221.488 1326.22,-196.068"/>
<polygon fill="midnightblue" stroke="midnightblue" points="1101.18,-354.094 1091.18,-357.574 1101.17,-361.094 1101.18,-354.094"/>
</g>
<!-- Node5 -->
<g id="node3" class="node"><title>Node5</title>
<g id="a_node3"><a xlink:href="classg2o_1_1_solver.html" target="_top" xlink:title="Generic interface for a sparse solver operating on a graph which solves one iteration of the lineariz...">
<polygon fill="white" stroke="black" points="818,-344 818,-363 884,-363 884,-344 818,-344"/>
<text text-anchor="middle" x="851" y="-351" font-family="Helvetica,sans-Serif" font-size="10.00">g2o::Solver</text>
</a>
</g>
</g>
<!-- Node5&#45;&gt;Node4 -->
<g id="edge2" class="edge"><title>Node5&#45;&gt;Node4</title>
<path fill="none" stroke="midnightblue" d="M894.254,-353.5C919.176,-353.5 951.007,-353.5 977.943,-353.5"/>
<polygon fill="midnightblue" stroke="midnightblue" points="894.031,-350 884.031,-353.5 894.031,-357 894.031,-350"/>
</g>
<!-- Node6 -->
<g id="node4" class="node"><title>Node6</title>
<g id="a_node4"><a xlink:href="classg2o_1_1_sparse_optimizer.html" target="_top" xlink:title="g2o::SparseOptimizer">
<polygon fill="white" stroke="black" points="585,-378 585,-397 696,-397 696,-378 585,-378"/>
<text text-anchor="middle" x="640.5" y="-385" font-family="Helvetica,sans-Serif" font-size="10.00">g2o::SparseOptimizer</text>
</a>
</g>
</g>
<!-- Node6&#45;&gt;Node5 -->
<g id="edge3" class="edge"><title>Node6&#45;&gt;Node5</title>
<path fill="none" stroke="#9a32cd" stroke-dasharray="5,2" d="M666.384,-373.023C679.971,-365.943 697.374,-358.17 714,-354.5 748.931,-346.79 790.148,-347.855 817.978,-350.009"/>
<polygon fill="#9a32cd" stroke="#9a32cd" points="664.352,-370.143 657.231,-377.987 667.69,-376.296 664.352,-370.143"/>
<text text-anchor="middle" x="740" y="-357.5" font-family="Helvetica,sans-Serif" font-size="10.00"> _optimizer</text>
</g>
<!-- Node12 -->
<g id="node10" class="node"><title>Node12</title>
<g id="a_node10"><a xlink:href="classg2o_1_1_optimization_algorithm.html" target="_top" xlink:title="Generic interface for a non&#45;linear solver operating on a graph. ">
<polygon fill="white" stroke="black" points="784,-412 784,-431 918,-431 918,-412 784,-412"/>
<text text-anchor="middle" x="851" y="-419" font-family="Helvetica,sans-Serif" font-size="10.00">g2o::OptimizationAlgorithm</text>
</a>
</g>
</g>
<!-- Node6&#45;&gt;Node12 -->
<g id="edge12" class="edge"><title>Node6&#45;&gt;Node12</title>
<path fill="none" stroke="#9a32cd" stroke-dasharray="5,2" d="M706.273,-398.233C708.883,-398.662 711.466,-399.085 714,-399.5 739.138,-403.614 766.898,-408.112 790.748,-411.963"/>
<polygon fill="#9a32cd" stroke="#9a32cd" points="706.562,-394.734 696.127,-396.564 705.426,-401.641 706.562,-394.734"/>
<text text-anchor="middle" x="740" y="-410.5" font-family="Helvetica,sans-Serif" font-size="10.00"> _optimizer</text>
</g>
<!-- Node7 -->
<g id="node5" class="node"><title>Node7</title>
<g id="a_node5"><a xlink:href="structg2o_1_1_optimizable_graph.html" target="_top" xlink:title="This is an abstract class that represents one optimization problem. ">
<polygon fill="white" stroke="black" points="432,-378 432,-397 548,-397 548,-378 432,-378"/>
<text text-anchor="middle" x="490" y="-385" font-family="Helvetica,sans-Serif" font-size="10.00">g2o::OptimizableGraph</text>
</a>
</g>
</g>
<!-- Node7&#45;&gt;Node6 -->
<g id="edge4" class="edge"><title>Node7&#45;&gt;Node6</title>
<path fill="none" stroke="midnightblue" d="M558.584,-387.5C567.32,-387.5 576.181,-387.5 584.677,-387.5"/>
<polygon fill="midnightblue" stroke="midnightblue" points="558.414,-384 548.414,-387.5 558.414,-391 558.414,-384"/>
</g>
<!-- Node8 -->
<g id="node6" class="node"><title>Node8</title>
<g id="a_node6"><a xlink:href="classg2o_1_1_hyper_graph.html" target="_top" xlink:title="Class that models a directed Hyper&#45;Graph. ">
<polygon fill="white" stroke="black" points="193,-416 193,-435 284,-435 284,-416 193,-416"/>
<text text-anchor="middle" x="238.5" y="-423" font-family="Helvetica,sans-Serif" font-size="10.00">g2o::HyperGraph</text>
</a>
</g>
</g>
<!-- Node8&#45;&gt;Node7 -->
<g id="edge5" class="edge"><title>Node8&#45;&gt;Node7</title>
<path fill="none" stroke="midnightblue" d="M294.409,-419.21C328.843,-415.031 374.113,-409.11 414,-402.5 423.694,-400.894 434.05,-398.962 443.876,-397.029"/>
<polygon fill="midnightblue" stroke="midnightblue" points="293.6,-415.782 284.088,-420.45 294.434,-422.732 293.6,-415.782"/>
</g>
<!-- Node9 -->
<g id="node7" class="node"><title>Node9</title>
<g id="a_node7"><a xlink:href="classg2o_1_1_jacobian_workspace.html" target="_top" xlink:title="provide memory workspace for computing the Jacobians ">
<polygon fill="white" stroke="black" points="175,-378 175,-397 302,-397 302,-378 175,-378"/>
<text text-anchor="middle" x="238.5" y="-385" font-family="Helvetica,sans-Serif" font-size="10.00">g2o::JacobianWorkspace</text>
</a>
</g>
</g>
<!-- Node9&#45;&gt;Node7 -->
<g id="edge6" class="edge"><title>Node9&#45;&gt;Node7</title>
<path fill="none" stroke="#9a32cd" stroke-dasharray="5,2" d="M312.158,-387.5C350.292,-387.5 396.342,-387.5 431.889,-387.5"/>
<polygon fill="#9a32cd" stroke="#9a32cd" points="312.137,-384 302.137,-387.5 312.137,-391 312.137,-384"/>
<text text-anchor="middle" x="367" y="-390.5" font-family="Helvetica,sans-Serif" font-size="10.00"> _jacobianWorkspace</text>
</g>
<!-- Node10 -->
<g id="node8" class="node"><title>Node10</title>
<g id="a_node8"><a xlink:href="classg2o_1_1_parameter_container.html" target="_top" xlink:title="map id to parameters ">
<polygon fill="white" stroke="black" points="176,-340 176,-359 301,-359 301,-340 176,-340"/>
<text text-anchor="middle" x="238.5" y="-347" font-family="Helvetica,sans-Serif" font-size="10.00">g2o::ParameterContainer</text>
</a>
</g>
</g>
<!-- Node10&#45;&gt;Node7 -->
<g id="edge7" class="edge"><title>Node10&#45;&gt;Node7</title>
<path fill="none" stroke="#9a32cd" stroke-dasharray="5,2" d="M311.068,-357.846C342.689,-361.813 380.269,-366.91 414,-372.5 423.694,-374.106 434.05,-376.038 443.876,-377.971"/>
<polygon fill="#9a32cd" stroke="#9a32cd" points="311.378,-354.357 301.023,-356.598 310.515,-361.304 311.378,-354.357"/>
<text text-anchor="middle" x="367" y="-375.5" font-family="Helvetica,sans-Serif" font-size="10.00"> _parameters</text>
</g>
<!-- Node11 -->
<g id="node9" class="node"><title>Node11</title>
<polygon fill="white" stroke="#bfbfbf" points="0,-340 0,-359 138,-359 138,-340 0,-340"/>
<text text-anchor="middle" x="69" y="-347" font-family="Helvetica,sans-Serif" font-size="10.00">std::map&lt; int, Parameter *&gt;</text>
</g>
<!-- Node11&#45;&gt;Node10 -->
<g id="edge8" class="edge"><title>Node11&#45;&gt;Node10</title>
<path fill="none" stroke="darkgreen" d="M148.169,-349.5C157.475,-349.5 166.874,-349.5 175.902,-349.5"/>
<polygon fill="darkgreen" stroke="darkgreen" points="148.129,-346 138.129,-349.5 148.129,-353 148.129,-346"/>
</g>
<!-- Node12&#45;&gt;Node6 -->
<g id="edge9" class="edge"><title>Node12&#45;&gt;Node6</title>
<path fill="none" stroke="#9a32cd" stroke-dasharray="5,2" d="M822.277,-407.636C806.265,-400.394 785.491,-392.272 766,-388.5 743.399,-384.126 718.056,-383.218 696.163,-383.649"/>
<polygon fill="#9a32cd" stroke="#9a32cd" points="821.037,-410.92 831.578,-411.985 824.002,-404.579 821.037,-410.92"/>
<text text-anchor="middle" x="740" y="-391.5" font-family="Helvetica,sans-Serif" font-size="10.00"> _algorithm</text>
</g>
<!-- Node13 -->
<g id="node11" class="node"><title>Node13</title>
<g id="a_node11"><a xlink:href="classg2o_1_1_property_map.html" target="_top" xlink:title="a collection of properties mapping from name to the property itself ">
<polygon fill="white" stroke="black" points="593.5,-446 593.5,-465 687.5,-465 687.5,-446 593.5,-446"/>
<text text-anchor="middle" x="640.5" y="-453" font-family="Helvetica,sans-Serif" font-size="10.00">g2o::PropertyMap</text>
</a>
</g>
</g>
<!-- Node13&#45;&gt;Node12 -->
<g id="edge10" class="edge"><title>Node13&#45;&gt;Node12</title>
<path fill="none" stroke="#9a32cd" stroke-dasharray="5,2" d="M697.498,-446.368C726.538,-441.633 761.987,-435.852 791.396,-431.057"/>
<polygon fill="#9a32cd" stroke="#9a32cd" points="696.821,-442.933 687.514,-447.996 697.947,-449.841 696.821,-442.933"/>
<text text-anchor="middle" x="740" y="-446.5" font-family="Helvetica,sans-Serif" font-size="10.00"> _properties</text>
</g>
<!-- Node14 -->
<g id="node12" class="node"><title>Node14</title>
<polygon fill="white" stroke="#bfbfbf" points="435,-440.5 435,-470.5 545,-470.5 545,-440.5 435,-440.5"/>
<text text-anchor="start" x="443" y="-458.5" font-family="Helvetica,sans-Serif" font-size="10.00">std::map&lt; std::string,</text>
<text text-anchor="middle" x="490" y="-447.5" font-family="Helvetica,sans-Serif" font-size="10.00"> BaseProperty *&gt;</text>
</g>
<!-- Node14&#45;&gt;Node13 -->
<g id="edge11" class="edge"><title>Node14&#45;&gt;Node13</title>
<path fill="none" stroke="darkgreen" d="M555.149,-455.5C567.909,-455.5 581.075,-455.5 593.101,-455.5"/>
<polygon fill="darkgreen" stroke="darkgreen" points="555.032,-452 545.032,-455.5 555.032,-459 555.032,-452"/>
</g>
<!-- Node15 -->
<g id="node13" class="node"><title>Node15</title>
<g id="a_node13"><a xlink:href="classg2o_1_1_sparse_block_matrix.html" target="_top" xlink:title="g2o::SparseBlockMatrix\l\&lt; PoseMatrixType \&gt;">
<polygon fill="white" stroke="black" points="974,-294.5 974,-324.5 1095,-324.5 1095,-294.5 974,-294.5"/>
<text text-anchor="start" x="982" y="-312.5" font-family="Helvetica,sans-Serif" font-size="10.00">g2o::SparseBlockMatrix</text>
<text text-anchor="middle" x="1034.5" y="-301.5" font-family="Helvetica,sans-Serif" font-size="10.00">&lt; PoseMatrixType &gt;</text>
</a>
</g>
</g>
<!-- Node15&#45;&gt;Node3 -->
<g id="edge13" class="edge"><title>Node15&#45;&gt;Node3</title>
<path fill="none" stroke="#9a32cd" stroke-dasharray="5,2" d="M1104.96,-301.471C1147.22,-294.553 1201.28,-281.976 1245,-259.5 1276.96,-243.069 1306.82,-211.978 1320.76,-196.204"/>
<polygon fill="#9a32cd" stroke="#9a32cd" points="1104.38,-298.02 1095.04,-303.028 1105.46,-304.936 1104.38,-298.02"/>
<text text-anchor="middle" x="1188.5" y="-310.5" font-family="Helvetica,sans-Serif" font-size="10.00"> _Hpp</text>
<text text-anchor="middle" x="1188.5" y="-299.5" font-family="Helvetica,sans-Serif" font-size="10.00">_Hschur</text>
</g>
<!-- Node16 -->
<g id="node14" class="node"><title>Node16</title>
<g id="a_node14"><a xlink:href="classg2o_1_1_sparse_block_matrix_c_c_s.html" target="_top" xlink:title="g2o::SparseBlockMatrixCCS\l\&lt; PoseLandmarkMatrixType \&gt;">
<polygon fill="white" stroke="black" points="960,-245.5 960,-275.5 1109,-275.5 1109,-245.5 960,-245.5"/>
<text text-anchor="start" x="968" y="-263.5" font-family="Helvetica,sans-Serif" font-size="10.00">g2o::SparseBlockMatrixCCS</text>
<text text-anchor="middle" x="1034.5" y="-252.5" font-family="Helvetica,sans-Serif" font-size="10.00">&lt; PoseLandmarkMatrixType &gt;</text>
</a>
</g>
</g>
<!-- Node16&#45;&gt;Node3 -->
<g id="edge14" class="edge"><title>Node16&#45;&gt;Node3</title>
<path fill="none" stroke="#9a32cd" stroke-dasharray="5,2" d="M1119.57,-246.943C1158.15,-239.883 1204.27,-230.253 1245,-218.5 1266.44,-212.313 1290.14,-203.053 1306.88,-196.084"/>
<polygon fill="#9a32cd" stroke="#9a32cd" points="1118.64,-243.555 1109.42,-248.774 1119.88,-250.444 1118.64,-243.555"/>
<text text-anchor="middle" x="1188.5" y="-247.5" font-family="Helvetica,sans-Serif" font-size="10.00"> _HplCCS</text>
</g>
<!-- Node17 -->
<g id="node15" class="node"><title>Node17</title>
<g id="a_node15"><a xlink:href="classg2o_1_1_sparse_block_matrix.html" target="_top" xlink:title="g2o::SparseBlockMatrix\l\&lt; LandmarkMatrixType \&gt;">
<polygon fill="white" stroke="black" points="971.5,-196.5 971.5,-226.5 1097.5,-226.5 1097.5,-196.5 971.5,-196.5"/>
<text text-anchor="start" x="979.5" y="-214.5" font-family="Helvetica,sans-Serif" font-size="10.00">g2o::SparseBlockMatrix</text>
<text text-anchor="middle" x="1034.5" y="-203.5" font-family="Helvetica,sans-Serif" font-size="10.00">&lt; LandmarkMatrixType &gt;</text>
</a>
</g>
</g>
<!-- Node17&#45;&gt;Node3 -->
<g id="edge15" class="edge"><title>Node17&#45;&gt;Node3</title>
<path fill="none" stroke="#9a32cd" stroke-dasharray="5,2" d="M1107.93,-205.33C1155.3,-201.296 1216.7,-196.066 1262.77,-192.142"/>
<polygon fill="#9a32cd" stroke="#9a32cd" points="1107.41,-201.862 1097.74,-206.198 1108,-208.837 1107.41,-201.862"/>
<text text-anchor="middle" x="1188.5" y="-206.5" font-family="Helvetica,sans-Serif" font-size="10.00"> _Hll</text>
</g>
<!-- Node18 -->
<g id="node16" class="node"><title>Node18</title>
<g id="a_node16"><a xlink:href="classg2o_1_1_sparse_block_matrix.html" target="_top" xlink:title="g2o::SparseBlockMatrix\l\&lt; PoseLandmarkMatrixType \&gt;">
<polygon fill="white" stroke="black" points="960,-147.5 960,-177.5 1109,-177.5 1109,-147.5 960,-147.5"/>
<text text-anchor="start" x="968" y="-165.5" font-family="Helvetica,sans-Serif" font-size="10.00">g2o::SparseBlockMatrix</text>
<text text-anchor="middle" x="1034.5" y="-154.5" font-family="Helvetica,sans-Serif" font-size="10.00">&lt; PoseLandmarkMatrixType &gt;</text>
</a>
</g>
</g>
<!-- Node18&#45;&gt;Node3 -->
<g id="edge16" class="edge"><title>Node18&#45;&gt;Node3</title>
<path fill="none" stroke="#9a32cd" stroke-dasharray="5,2" d="M1119.3,-168.539C1157.63,-171.394 1203.63,-174.951 1245,-178.5 1250.84,-179.001 1256.9,-179.541 1262.98,-180.095"/>
<polygon fill="#9a32cd" stroke="#9a32cd" points="1119.44,-165.04 1109.21,-167.791 1118.93,-172.021 1119.44,-165.04"/>
<text text-anchor="middle" x="1188.5" y="-181.5" font-family="Helvetica,sans-Serif" font-size="10.00"> _Hpl</text>
</g>
<!-- Node19 -->
<g id="node17" class="node"><title>Node19</title>
<g id="a_node17"><a xlink:href="classg2o_1_1_sparse_block_matrix_diagonal.html" target="_top" xlink:title="g2o::SparseBlockMatrixDiagonal\l\&lt; LandmarkMatrixType \&gt;">
<polygon fill="white" stroke="black" points="955,-98.5 955,-128.5 1114,-128.5 1114,-98.5 955,-98.5"/>
<text text-anchor="start" x="963" y="-116.5" font-family="Helvetica,sans-Serif" font-size="10.00">g2o::SparseBlockMatrixDiagonal</text>
<text text-anchor="middle" x="1034.5" y="-105.5" font-family="Helvetica,sans-Serif" font-size="10.00">&lt; LandmarkMatrixType &gt;</text>
</a>
</g>
</g>
<!-- Node19&#45;&gt;Node3 -->
<g id="edge17" class="edge"><title>Node19&#45;&gt;Node3</title>
<path fill="none" stroke="#9a32cd" stroke-dasharray="5,2" d="M1124.2,-128.12C1161.78,-135.127 1205.84,-144.423 1245,-155.5 1266.09,-161.467 1289.43,-170.265 1306.14,-176.965"/>
<polygon fill="#9a32cd" stroke="#9a32cd" points="1124.76,-124.664 1114.29,-126.296 1123.49,-131.548 1124.76,-124.664"/>
<text text-anchor="middle" x="1188.5" y="-158.5" font-family="Helvetica,sans-Serif" font-size="10.00"> _DInvSchur</text>
</g>
<!-- Node20 -->
<g id="node18" class="node"><title>Node20</title>
<g id="a_node18"><a xlink:href="classg2o_1_1_sparse_block_matrix_c_c_s.html" target="_top" xlink:title="g2o::SparseBlockMatrixCCS\l\&lt; PoseMatrixType \&gt;">
<polygon fill="white" stroke="black" points="963,-49.5 963,-79.5 1106,-79.5 1106,-49.5 963,-49.5"/>
<text text-anchor="start" x="971" y="-67.5" font-family="Helvetica,sans-Serif" font-size="10.00">g2o::SparseBlockMatrixCCS</text>
<text text-anchor="middle" x="1034.5" y="-56.5" font-family="Helvetica,sans-Serif" font-size="10.00">&lt; PoseMatrixType &gt;</text>
</a>
</g>
</g>
<!-- Node20&#45;&gt;Node3 -->
<g id="edge18" class="edge"><title>Node20&#45;&gt;Node3</title>
<path fill="none" stroke="#9a32cd" stroke-dasharray="5,2" d="M1116.25,-75.7542C1156.47,-83.5099 1204.94,-96.1995 1245,-116.5 1276.16,-132.288 1305.92,-161.543 1320.2,-176.75"/>
<polygon fill="#9a32cd" stroke="#9a32cd" points="1116.68,-72.2749 1106.21,-73.8871 1115.4,-79.1569 1116.68,-72.2749"/>
<text text-anchor="middle" x="1188.5" y="-119.5" font-family="Helvetica,sans-Serif" font-size="10.00"> _HschurTransposedCCS</text>
</g>
<!-- Node21 -->
<g id="node19" class="node"><title>Node21</title>
<g id="a_node19"><a xlink:href="classg2o_1_1_linear_solver.html" target="_top" xlink:title="g2o::LinearSolver\&lt;\l PoseMatrixType \&gt;">
<polygon fill="white" stroke="black" points="984.5,-0.5 984.5,-30.5 1084.5,-30.5 1084.5,-0.5 984.5,-0.5"/>
<text text-anchor="start" x="992.5" y="-18.5" font-family="Helvetica,sans-Serif" font-size="10.00">g2o::LinearSolver&lt;</text>
<text text-anchor="middle" x="1034.5" y="-7.5" font-family="Helvetica,sans-Serif" font-size="10.00"> PoseMatrixType &gt;</text>
</a>
</g>
</g>
<!-- Node21&#45;&gt;Node3 -->
<g id="edge19" class="edge"><title>Node21&#45;&gt;Node3</title>
<path fill="none" stroke="#9a32cd" stroke-dasharray="5,2" d="M1094.95,-17.9971C1139.61,-22.4257 1200.49,-34.1273 1245,-64.5 1288.12,-93.9235 1315.67,-153.397 1325.23,-176.761"/>
<polygon fill="#9a32cd" stroke="#9a32cd" points="1095.1,-14.4963 1084.83,-17.0892 1094.48,-21.4683 1095.1,-14.4963"/>
<text text-anchor="middle" x="1188.5" y="-67.5" font-family="Helvetica,sans-Serif" font-size="10.00"> _linearSolver</text>
</g>
</g>
</svg>
