<?xml version="1.0" encoding="UTF-8" standalone="no"?>
<!DOCTYPE svg PUBLIC "-//W3C//DTD SVG 1.1//EN"
 "http://www.w3.org/Graphics/SVG/1.1/DTD/svg11.dtd">
<!-- Generated by graphviz version 2.38.0 (20140413.2041)
 -->
<!-- Title: g2o::BaseUnaryEdge&lt; D, E, VertexXi &gt; Pages: 1 -->
<svg width="157pt" height="285pt"
 viewBox="0.00 0.00 157.00 285.00" xmlns="http://www.w3.org/2000/svg" xmlns:xlink="http://www.w3.org/1999/xlink">
<g id="graph0" class="graph" transform="scale(1 1) rotate(0) translate(4 281)">
<title>g2o::BaseUnaryEdge&lt; D, E, VertexXi &gt;</title>
<polygon fill="white" stroke="none" points="-4,4 -4,-281 153,-281 153,4 -4,4"/>
<!-- Node0 -->
<g id="node1" class="node"><title>Node0</title>
<polygon fill="#bfbfbf" stroke="black" points="19.5,-0.5 19.5,-30.5 129.5,-30.5 129.5,-0.5 19.5,-0.5"/>
<text text-anchor="start" x="27.5" y="-18.5" font-family="Helvetica,sans-Serif" font-size="10.00">g2o::BaseUnaryEdge</text>
<text text-anchor="middle" x="74.5" y="-7.5" font-family="Helvetica,sans-Serif" font-size="10.00">&lt; D, E, VertexXi &gt;</text>
</g>
<!-- Node1 -->
<g id="node2" class="node"><title>Node1</title>
<g id="a_node2"><a xlink:href="classg2o_1_1_base_edge.html" target="_top" xlink:title="g2o::BaseEdge\&lt; D, E \&gt;">
<polygon fill="white" stroke="black" points="13.5,-67.5 13.5,-86.5 135.5,-86.5 135.5,-67.5 13.5,-67.5"/>
<text text-anchor="middle" x="74.5" y="-74.5" font-family="Helvetica,sans-Serif" font-size="10.00">g2o::BaseEdge&lt; D, E &gt;</text>
</a>
</g>
</g>
<!-- Node1&#45;&gt;Node0 -->
<g id="edge1" class="edge"><title>Node1&#45;&gt;Node0</title>
<path fill="none" stroke="midnightblue" d="M74.5,-57.2349C74.5,-48.5864 74.5,-38.4969 74.5,-30.523"/>
<polygon fill="midnightblue" stroke="midnightblue" points="71.0001,-57.4751 74.5,-67.4751 78.0001,-57.4751 71.0001,-57.4751"/>
</g>
<!-- Node2 -->
<g id="node3" class="node"><title>Node2</title>
<g id="a_node3"><a xlink:href="classg2o_1_1_optimizable_graph_1_1_edge.html" target="_top" xlink:title="g2o::OptimizableGraph\l::Edge">
<polygon fill="white" stroke="black" points="16.5,-123.5 16.5,-153.5 132.5,-153.5 132.5,-123.5 16.5,-123.5"/>
<text text-anchor="start" x="24.5" y="-141.5" font-family="Helvetica,sans-Serif" font-size="10.00">g2o::OptimizableGraph</text>
<text text-anchor="middle" x="74.5" y="-130.5" font-family="Helvetica,sans-Serif" font-size="10.00">::Edge</text>
</a>
</g>
</g>
<!-- Node2&#45;&gt;Node1 -->
<g id="edge2" class="edge"><title>Node2&#45;&gt;Node1</title>
<path fill="none" stroke="midnightblue" d="M74.5,-113.289C74.5,-103.857 74.5,-93.6548 74.5,-86.6578"/>
<polygon fill="midnightblue" stroke="midnightblue" points="71.0001,-113.399 74.5,-123.399 78.0001,-113.399 71.0001,-113.399"/>
</g>
<!-- Node3 -->
<g id="node4" class="node"><title>Node3</title>
<g id="a_node4"><a xlink:href="classg2o_1_1_hyper_graph_1_1_edge.html" target="_top" xlink:title="Abstract Edge class. ">
<polygon fill="white" stroke="black" points="15,-190.5 15,-209.5 134,-209.5 134,-190.5 15,-190.5"/>
<text text-anchor="middle" x="74.5" y="-197.5" font-family="Helvetica,sans-Serif" font-size="10.00">g2o::HyperGraph::Edge</text>
</a>
</g>
</g>
<!-- Node3&#45;&gt;Node2 -->
<g id="edge3" class="edge"><title>Node3&#45;&gt;Node2</title>
<path fill="none" stroke="midnightblue" d="M74.5,-180.235C74.5,-171.586 74.5,-161.497 74.5,-153.523"/>
<polygon fill="midnightblue" stroke="midnightblue" points="71.0001,-180.475 74.5,-190.475 78.0001,-180.475 71.0001,-180.475"/>
</g>
<!-- Node4 -->
<g id="node5" class="node"><title>Node4</title>
<g id="a_node5"><a xlink:href="structg2o_1_1_hyper_graph_1_1_hyper_graph_element.html" target="_top" xlink:title="base hyper graph element, specialized in vertex and edge ">
<polygon fill="white" stroke="black" points="-1.42109e-14,-246.5 -1.42109e-14,-276.5 149,-276.5 149,-246.5 -1.42109e-14,-246.5"/>
<text text-anchor="start" x="8" y="-264.5" font-family="Helvetica,sans-Serif" font-size="10.00">g2o::HyperGraph::HyperGraph</text>
<text text-anchor="middle" x="74.5" y="-253.5" font-family="Helvetica,sans-Serif" font-size="10.00">Element</text>
</a>
</g>
</g>
<!-- Node4&#45;&gt;Node3 -->
<g id="edge4" class="edge"><title>Node4&#45;&gt;Node3</title>
<path fill="none" stroke="midnightblue" d="M74.5,-236.289C74.5,-226.857 74.5,-216.655 74.5,-209.658"/>
<polygon fill="midnightblue" stroke="midnightblue" points="71.0001,-236.399 74.5,-246.399 78.0001,-236.399 71.0001,-236.399"/>
</g>
</g>
</svg>
