<?xml version="1.0" encoding="UTF-8" standalone="no"?>
<!DOCTYPE svg PUBLIC "-//W3C//DTD SVG 1.1//EN"
 "http://www.w3.org/Graphics/SVG/1.1/DTD/svg11.dtd">
<!-- Generated by graphviz version 2.38.0 (20140413.2041)
 -->
<!-- Title: ORB_SLAM2::LocalMapping Pages: 1 -->
<svg width="2013pt" height="739pt"
 viewBox="0.00 0.00 2013.00 739.30" xmlns="http://www.w3.org/2000/svg" xmlns:xlink="http://www.w3.org/1999/xlink">
<g id="graph0" class="graph" transform="scale(1 1) rotate(0) translate(4 735.302)">
<title>ORB_SLAM2::LocalMapping</title>
<polygon fill="white" stroke="none" points="-4,4 -4,-735.302 2009,-735.302 2009,4 -4,4"/>
<!-- Node1 -->
<g id="node1" class="node"><title>Node1</title>
<polygon fill="#bfbfbf" stroke="black" points="1333,-498.802 1333,-517.802 1475,-517.802 1475,-498.802 1333,-498.802"/>
<text text-anchor="middle" x="1404" y="-505.802" font-family="Helvetica,sans-Serif" font-size="10.00">ORB_SLAM2::LocalMapping</text>
</g>
<!-- Node11 -->
<g id="node11" class="node"><title>Node11</title>
<g id="a_node11"><a xlink:href="class_o_r_b___s_l_a_m2_1_1_loop_closing.html" target="_top" xlink:title="ORB_SLAM2::LoopClosing">
<polygon fill="white" stroke="black" points="1643,-386.802 1643,-405.802 1779,-405.802 1779,-386.802 1643,-386.802"/>
<text text-anchor="middle" x="1711" y="-393.802" font-family="Helvetica,sans-Serif" font-size="10.00">ORB_SLAM2::LoopClosing</text>
</a>
</g>
</g>
<!-- Node1&#45;&gt;Node11 -->
<g id="edge21" class="edge"><title>Node1&#45;&gt;Node11</title>
<path fill="none" stroke="#9a32cd" stroke-dasharray="5,2" d="M1452.91,-494.958C1460.84,-491.365 1468.56,-486.876 1475,-481.302 1487.34,-470.625 1479.61,-458.624 1493,-449.302 1541.76,-415.364 1567.58,-443.511 1625,-428.302 1647.1,-422.448 1671.44,-412.959 1688.38,-405.831"/>
<polygon fill="#9a32cd" stroke="#9a32cd" points="1451.51,-491.75 1443.58,-498.777 1454.16,-498.229 1451.51,-491.75"/>
<text text-anchor="middle" x="1559" y="-452.302" font-family="Helvetica,sans-Serif" font-size="10.00"> mpLocalMapper</text>
</g>
<!-- Node13 -->
<g id="node13" class="node"><title>Node13</title>
<g id="a_node13"><a xlink:href="class_o_r_b___s_l_a_m2_1_1_tracking.html" target="_top" xlink:title="Objeto único que se ejecuta en su propio Trhead, y se inicia con Run(). ">
<polygon fill="white" stroke="black" points="1886,-352.802 1886,-371.802 2005,-371.802 2005,-352.802 1886,-352.802"/>
<text text-anchor="middle" x="1945.5" y="-359.802" font-family="Helvetica,sans-Serif" font-size="10.00">ORB_SLAM2::Tracking</text>
</a>
</g>
</g>
<!-- Node1&#45;&gt;Node13 -->
<g id="edge33" class="edge"><title>Node1&#45;&gt;Node13</title>
<path fill="none" stroke="#9a32cd" stroke-dasharray="5,2" d="M1485.33,-510.143C1527.38,-509.55 1579.45,-506.351 1625,-496.302 1747.17,-469.348 1881.73,-397.733 1927.9,-371.825"/>
<polygon fill="#9a32cd" stroke="#9a32cd" points="1485.11,-506.645 1475.14,-510.24 1485.17,-513.645 1485.11,-506.645"/>
<text text-anchor="middle" x="1711" y="-495.302" font-family="Helvetica,sans-Serif" font-size="10.00"> mpLocalMapper</text>
</g>
<!-- Node2 -->
<g id="node2" class="node"><title>Node2</title>
<g id="a_node2"><a xlink:href="class_o_r_b___s_l_a_m2_1_1_key_frame.html" target="_top" xlink:title="Cuadro clave, keyframe. ">
<polygon fill="white" stroke="black" points="1021.5,-326.802 1021.5,-345.802 1148.5,-345.802 1148.5,-326.802 1021.5,-326.802"/>
<text text-anchor="middle" x="1085" y="-333.802" font-family="Helvetica,sans-Serif" font-size="10.00">ORB_SLAM2::KeyFrame</text>
</a>
</g>
</g>
<!-- Node2&#45;&gt;Node1 -->
<g id="edge1" class="edge"><title>Node2&#45;&gt;Node1</title>
<path fill="none" stroke="#9a32cd" stroke-dasharray="5,2" d="M1108.5,-351.483C1126.06,-363.118 1151.22,-379.326 1174,-392.302 1249.13,-435.097 1341.9,-479.647 1382.43,-498.716"/>
<polygon fill="#9a32cd" stroke="#9a32cd" points="1110.33,-348.492 1100.06,-345.856 1106.44,-354.316 1110.33,-348.492"/>
<text text-anchor="middle" x="1244.5" y="-469.302" font-family="Helvetica,sans-Serif" font-size="10.00"> mpCurrentKeyFrame</text>
</g>
<!-- Node2&#45;&gt;Node2 -->
<g id="edge5" class="edge"><title>Node2&#45;&gt;Node2</title>
<path fill="none" stroke="#9a32cd" stroke-dasharray="5,2" d="M1060.45,-355.331C1061.79,-360.43 1069.97,-364.302 1085,-364.302 1108.46,-364.302 1115.24,-354.867 1105.35,-346.059"/>
<polygon fill="#9a32cd" stroke="#9a32cd" points="1063.71,-356.611 1064.65,-346.059 1057.33,-353.718 1063.71,-356.611"/>
<text text-anchor="middle" x="1085" y="-367.302" font-family="Helvetica,sans-Serif" font-size="10.00"> mpParent</text>
</g>
<!-- Node2&#45;&gt;Node11 -->
<g id="edge17" class="edge"><title>Node2&#45;&gt;Node11</title>
<path fill="none" stroke="#9a32cd" stroke-dasharray="5,2" d="M1129.54,-348.584C1178.54,-361.758 1260.75,-381.914 1333,-390.302 1440.94,-402.833 1567.41,-401.635 1643,-399.245"/>
<polygon fill="#9a32cd" stroke="#9a32cd" points="1130.17,-345.129 1119.6,-345.886 1128.33,-351.884 1130.17,-345.129"/>
<text text-anchor="middle" x="1404" y="-414.302" font-family="Helvetica,sans-Serif" font-size="10.00"> mpMatchedKF</text>
<text text-anchor="middle" x="1404" y="-403.302" font-family="Helvetica,sans-Serif" font-size="10.00">mpCurrentKF</text>
</g>
<!-- Node2&#45;&gt;Node13 -->
<g id="edge26" class="edge"><title>Node2&#45;&gt;Node13</title>
<path fill="none" stroke="#9a32cd" stroke-dasharray="5,2" d="M1158.91,-331.282C1208.09,-327.897 1274.45,-323.329 1333,-319.302 1462.56,-310.389 1495.58,-297.442 1625,-308.302 1725.06,-316.698 1840.92,-339.639 1901.9,-352.76"/>
<polygon fill="#9a32cd" stroke="#9a32cd" points="1158.42,-327.807 1148.69,-331.986 1158.9,-334.791 1158.42,-327.807"/>
<text text-anchor="middle" x="1559" y="-311.302" font-family="Helvetica,sans-Serif" font-size="10.00"> mpReferenceKF</text>
</g>
<!-- Node17 -->
<g id="node17" class="node"><title>Node17</title>
<g id="a_node17"><a xlink:href="class_o_r_b___s_l_a_m2_1_1_frame.html" target="_top" xlink:title="Frame representa un cuadro, una imagen, con los puntos singulares detectados. ">
<polygon fill="white" stroke="black" points="1349,-223.802 1349,-242.802 1459,-242.802 1459,-223.802 1349,-223.802"/>
<text text-anchor="middle" x="1404" y="-230.802" font-family="Helvetica,sans-Serif" font-size="10.00">ORB_SLAM2::Frame</text>
</a>
</g>
</g>
<!-- Node2&#45;&gt;Node17 -->
<g id="edge35" class="edge"><title>Node2&#45;&gt;Node17</title>
<path fill="none" stroke="#9a32cd" stroke-dasharray="5,2" d="M1119.17,-323.051C1135.48,-316.943 1155.55,-310.018 1174,-305.302 1235.52,-289.581 1255.03,-303.17 1315,-282.302 1343.08,-272.532 1372.67,-254.13 1389.38,-242.868"/>
<polygon fill="#9a32cd" stroke="#9a32cd" points="1117.65,-319.887 1109.55,-326.723 1120.14,-326.427 1117.65,-319.887"/>
<text text-anchor="middle" x="1244.5" y="-308.302" font-family="Helvetica,sans-Serif" font-size="10.00"> mpReferenceKF</text>
</g>
<!-- Node3 -->
<g id="node3" class="node"><title>Node3</title>
<g id="a_node3"><a xlink:href="class_o_r_b___s_l_a_m2_1_1_key_frame_database.html" target="_top" xlink:title="Lista invertida de KeyFrames, accesible por BoW. ">
<polygon fill="white" stroke="black" points="462,-458.802 462,-477.802 631,-477.802 631,-458.802 462,-458.802"/>
<text text-anchor="middle" x="546.5" y="-465.802" font-family="Helvetica,sans-Serif" font-size="10.00">ORB_SLAM2::KeyFrameDatabase</text>
</a>
</g>
</g>
<!-- Node3&#45;&gt;Node2 -->
<g id="edge2" class="edge"><title>Node3&#45;&gt;Node2</title>
<path fill="none" stroke="#9a32cd" stroke-dasharray="5,2" d="M596.27,-456.303C701.747,-430.351 949.278,-369.449 1045.13,-345.865"/>
<polygon fill="#9a32cd" stroke="#9a32cd" points="595.39,-452.915 586.516,-458.702 597.063,-459.712 595.39,-452.915"/>
<text text-anchor="middle" x="830.5" y="-416.302" font-family="Helvetica,sans-Serif" font-size="10.00"> mpKeyFrameDB</text>
</g>
<!-- Node6 -->
<g id="node6" class="node"><title>Node6</title>
<g id="a_node6"><a xlink:href="class_o_r_b___s_l_a_m2_1_1_map.html" target="_top" xlink:title="Mapa del mundo, de puntos y keyframes. ">
<polygon fill="white" stroke="black" points="780,-564.802 780,-583.802 881,-583.802 881,-564.802 780,-564.802"/>
<text text-anchor="middle" x="830.5" y="-571.802" font-family="Helvetica,sans-Serif" font-size="10.00">ORB_SLAM2::Map</text>
</a>
</g>
</g>
<!-- Node3&#45;&gt;Node6 -->
<g id="edge7" class="edge"><title>Node3&#45;&gt;Node6</title>
<path fill="none" stroke="#9a32cd" stroke-dasharray="5,2" d="M582.415,-481.426C639.884,-503.028 753.087,-545.579 803.832,-564.653"/>
<polygon fill="#9a32cd" stroke="#9a32cd" points="583.615,-478.138 573.023,-477.896 581.152,-484.69 583.615,-478.138"/>
<text text-anchor="middle" x="701" y="-546.302" font-family="Helvetica,sans-Serif" font-size="10.00"> mpKeyFrameDatabase</text>
</g>
<!-- Node3&#45;&gt;Node11 -->
<g id="edge16" class="edge"><title>Node3&#45;&gt;Node11</title>
<path fill="none" stroke="#9a32cd" stroke-dasharray="5,2" d="M641.324,-470.199C786.146,-472.286 1072.75,-473.071 1315,-453.302 1378.88,-448.089 1556.71,-420.643 1650.44,-405.82"/>
<polygon fill="#9a32cd" stroke="#9a32cd" points="641.196,-466.697 631.145,-470.047 641.091,-473.696 641.196,-466.697"/>
<text text-anchor="middle" x="1085" y="-472.302" font-family="Helvetica,sans-Serif" font-size="10.00"> mpKeyFrameDB</text>
</g>
<!-- Node3&#45;&gt;Node13 -->
<g id="edge25" class="edge"><title>Node3&#45;&gt;Node13</title>
<path fill="none" stroke="#9a32cd" stroke-dasharray="5,2" d="M631.112,-485.205C652.033,-510.671 632.959,-531.385 649,-558.302 704.185,-650.899 721.706,-720.302 829.5,-720.302 829.5,-720.302 829.5,-720.302 1712,-720.302 1784.16,-720.302 1818.03,-727.365 1868,-675.302 1911.87,-629.594 1937.99,-419.748 1943.43,-371.992"/>
<polygon fill="#9a32cd" stroke="#9a32cd" points="633.539,-482.678 624.089,-477.887 628.488,-487.525 633.539,-482.678"/>
<text text-anchor="middle" x="1244.5" y="-723.302" font-family="Helvetica,sans-Serif" font-size="10.00"> mpKeyFrameDB</text>
</g>
<!-- Node4 -->
<g id="node4" class="node"><title>Node4</title>
<g id="a_node4"><a xlink:href="class_d_bo_w2_1_1_templated_vocabulary.html" target="_top" xlink:title="Generic Vocabulary. ">
<polygon fill="white" stroke="black" points="240,-349.302 240,-379.302 392,-379.302 392,-349.302 240,-349.302"/>
<text text-anchor="start" x="248" y="-367.302" font-family="Helvetica,sans-Serif" font-size="10.00">DBoW2::TemplatedVocabulary</text>
<text text-anchor="middle" x="316" y="-356.302" font-family="Helvetica,sans-Serif" font-size="10.00">&lt; TDescriptor, F &gt;</text>
</a>
</g>
</g>
<!-- Node4&#45;&gt;Node2 -->
<g id="edge10" class="edge"><title>Node4&#45;&gt;Node2</title>
<path fill="none" stroke="#9a32cd" stroke-dasharray="5,2" d="M402.288,-361.188C557.885,-355.508 884.38,-343.589 1021.38,-338.588"/>
<polygon fill="#9a32cd" stroke="#9a32cd" points="402.156,-357.691 392.291,-361.553 402.412,-364.686 402.156,-357.691"/>
<text text-anchor="middle" x="701" y="-355.302" font-family="Helvetica,sans-Serif" font-size="10.00"> mpORBvocabulary</text>
</g>
<!-- Node4&#45;&gt;Node3 -->
<g id="edge3" class="edge"><title>Node4&#45;&gt;Node3</title>
<path fill="none" stroke="#9a32cd" stroke-dasharray="5,2" d="M359.62,-383.7C408.661,-406.021 487.217,-441.775 524.523,-458.754"/>
<polygon fill="#9a32cd" stroke="#9a32cd" points="360.777,-380.381 350.226,-379.424 357.878,-386.753 360.777,-380.381"/>
<text text-anchor="middle" x="427" y="-423.302" font-family="Helvetica,sans-Serif" font-size="10.00"> mpVoc</text>
</g>
<!-- Node4&#45;&gt;Node6 -->
<g id="edge9" class="edge"><title>Node4&#45;&gt;Node6</title>
<path fill="none" stroke="#9a32cd" stroke-dasharray="5,2" d="M338.64,-386.867C365.474,-413.792 413.615,-458.745 462,-487.302 538.56,-532.487 562.353,-538.412 649,-558.302 692.54,-568.296 743.314,-572.126 779.9,-573.555"/>
<polygon fill="#9a32cd" stroke="#9a32cd" points="340.848,-384.121 331.337,-379.454 335.862,-389.034 340.848,-384.121"/>
<text text-anchor="middle" x="546.5" y="-557.302" font-family="Helvetica,sans-Serif" font-size="10.00"> mpVocabulary</text>
</g>
<!-- Node4&#45;&gt;Node11 -->
<g id="edge20" class="edge"><title>Node4&#45;&gt;Node11</title>
<path fill="none" stroke="#9a32cd" stroke-dasharray="5,2" d="M402.264,-368.983C404.872,-369.095 407.455,-369.202 410,-369.302 741.367,-382.321 825.703,-413.919 1156,-384.302 1235.62,-377.162 1253.38,-359.441 1333,-352.302 1395.86,-346.665 1411.9,-351.25 1475,-352.302 1541.69,-353.413 1560.08,-341.982 1625,-357.302 1650.44,-363.306 1677.5,-377.183 1694.08,-386.656"/>
<polygon fill="#9a32cd" stroke="#9a32cd" points="402.26,-365.48 392.113,-368.527 401.946,-372.473 402.26,-365.48"/>
<text text-anchor="middle" x="952" y="-400.302" font-family="Helvetica,sans-Serif" font-size="10.00"> mpORBVocabulary</text>
</g>
<!-- Node4&#45;&gt;Node13 -->
<g id="edge32" class="edge"><title>Node4&#45;&gt;Node13</title>
<path fill="none" stroke="#9a32cd" stroke-dasharray="5,2" d="M325.932,-339.644C350.409,-276.935 424.88,-116.302 545.5,-116.302 545.5,-116.302 545.5,-116.302 1712,-116.302 1791.6,-116.302 1813.5,-146.277 1868,-204.302 1911.4,-250.509 1934.78,-325.934 1942.02,-352.594"/>
<polygon fill="#9a32cd" stroke="#9a32cd" points="322.596,-338.571 322.31,-349.162 329.138,-341.061 322.596,-338.571"/>
<text text-anchor="middle" x="1085" y="-119.302" font-family="Helvetica,sans-Serif" font-size="10.00"> mpORBVocabulary</text>
</g>
<!-- Node4&#45;&gt;Node17 -->
<g id="edge36" class="edge"><title>Node4&#45;&gt;Node17</title>
<path fill="none" stroke="#9a32cd" stroke-dasharray="5,2" d="M332.592,-340.773C365.744,-293.893 448.213,-193.302 545.5,-193.302 545.5,-193.302 545.5,-193.302 953,-193.302 1096.34,-193.302 1264.35,-213.686 1348.76,-225.351"/>
<polygon fill="#9a32cd" stroke="#9a32cd" points="329.623,-338.913 326.806,-349.127 335.377,-342.899 329.623,-338.913"/>
<text text-anchor="middle" x="830.5" y="-196.302" font-family="Helvetica,sans-Serif" font-size="10.00"> mpORBvocabulary</text>
</g>
<!-- Node5 -->
<g id="node5" class="node"><title>Node5</title>
<g id="a_node5"><a xlink:href="class_d_bo_w2_1_1_general_scoring.html" target="_top" xlink:title="Base class of scoring functions. ">
<polygon fill="white" stroke="black" points="0,-354.802 0,-373.802 124,-373.802 124,-354.802 0,-354.802"/>
<text text-anchor="middle" x="62" y="-361.802" font-family="Helvetica,sans-Serif" font-size="10.00">DBoW2::GeneralScoring</text>
</a>
</g>
</g>
<!-- Node5&#45;&gt;Node4 -->
<g id="edge4" class="edge"><title>Node5&#45;&gt;Node4</title>
<path fill="none" stroke="#9a32cd" stroke-dasharray="5,2" d="M134.021,-364.302C166.991,-364.302 206.21,-364.302 239.696,-364.302"/>
<polygon fill="#9a32cd" stroke="#9a32cd" points="134.002,-360.802 124.002,-364.302 134.002,-367.802 134.002,-360.802"/>
<text text-anchor="middle" x="182" y="-367.302" font-family="Helvetica,sans-Serif" font-size="10.00"> m_scoring_object</text>
</g>
<!-- Node6&#45;&gt;Node1 -->
<g id="edge44" class="edge"><title>Node6&#45;&gt;Node1</title>
<path fill="none" stroke="#9a32cd" stroke-dasharray="5,2" d="M858.735,-560.148C873.031,-553.344 891.057,-545.724 908,-541.302 1055.5,-502.799 1235.67,-501.763 1332.82,-504.79"/>
<polygon fill="#9a32cd" stroke="#9a32cd" points="856.931,-557.134 849.492,-564.679 860.012,-563.42 856.931,-557.134"/>
<text text-anchor="middle" x="1085" y="-523.302" font-family="Helvetica,sans-Serif" font-size="10.00"> mpMap</text>
</g>
<!-- Node6&#45;&gt;Node2 -->
<g id="edge6" class="edge"><title>Node6&#45;&gt;Node2</title>
<path fill="none" stroke="#9a32cd" stroke-dasharray="5,2" d="M849.21,-557.317C864.688,-542.494 887.784,-520.423 908,-501.302 970.683,-442.014 1046.45,-371.301 1073.65,-345.941"/>
<polygon fill="#9a32cd" stroke="#9a32cd" points="846.665,-554.909 841.866,-564.354 851.508,-559.963 846.665,-554.909"/>
<text text-anchor="middle" x="952" y="-504.302" font-family="Helvetica,sans-Serif" font-size="10.00"> mpMap</text>
</g>
<!-- Node6&#45;&gt;Node6 -->
<g id="edge8" class="edge"><title>Node6&#45;&gt;Node6</title>
<path fill="none" stroke="#9a32cd" stroke-dasharray="5,2" d="M808.179,-593.331C809.396,-598.43 816.837,-602.302 830.5,-602.302 851.828,-602.302 857.993,-592.867 848.995,-584.059"/>
<polygon fill="#9a32cd" stroke="#9a32cd" points="811.426,-594.638 812.005,-584.059 804.955,-591.968 811.426,-594.638"/>
<text text-anchor="middle" x="830.5" y="-605.302" font-family="Helvetica,sans-Serif" font-size="10.00"> mpMap</text>
</g>
<!-- Node6&#45;&gt;Node11 -->
<g id="edge19" class="edge"><title>Node6&#45;&gt;Node11</title>
<path fill="none" stroke="#9a32cd" stroke-dasharray="5,2" d="M891.242,-572.718C1066.46,-567.529 1570.19,-548.519 1625,-500.302 1644.95,-482.754 1627.3,-464.73 1643,-443.302 1655.09,-426.799 1674.78,-413.991 1689.69,-405.942"/>
<polygon fill="#9a32cd" stroke="#9a32cd" points="891.061,-569.222 881.167,-573.012 891.265,-576.219 891.061,-569.222"/>
<text text-anchor="middle" x="1244.5" y="-564.302" font-family="Helvetica,sans-Serif" font-size="10.00"> mpMap</text>
</g>
<!-- Node6&#45;&gt;Node13 -->
<g id="edge31" class="edge"><title>Node6&#45;&gt;Node13</title>
<path fill="none" stroke="#9a32cd" stroke-dasharray="5,2" d="M867.411,-587.003C880.081,-590.973 894.528,-594.931 908,-597.302 1221.97,-652.553 1308.2,-652.849 1625,-617.302 1739.15,-604.494 1791.26,-614.771 1868,-529.302 1912.53,-479.708 1935.34,-399.783 1942.21,-372.107"/>
<polygon fill="#9a32cd" stroke="#9a32cd" points="868.274,-583.603 857.682,-583.846 866.114,-590.261 868.274,-583.603"/>
<text text-anchor="middle" x="1404" y="-645.302" font-family="Helvetica,sans-Serif" font-size="10.00"> mpMap</text>
</g>
<!-- Node14 -->
<g id="node14" class="node"><title>Node14</title>
<g id="a_node14"><a xlink:href="class_o_r_b___s_l_a_m2_1_1_frame_drawer.html" target="_top" xlink:title="Clase de instancia única que se ocupa de mostrar la imagen de la cámara, con marcas verdes sobre los ...">
<polygon fill="white" stroke="black" points="1174,-583.802 1174,-602.802 1315,-602.802 1315,-583.802 1174,-583.802"/>
<text text-anchor="middle" x="1244.5" y="-590.802" font-family="Helvetica,sans-Serif" font-size="10.00">ORB_SLAM2::FrameDrawer</text>
</a>
</g>
</g>
<!-- Node6&#45;&gt;Node14 -->
<g id="edge24" class="edge"><title>Node6&#45;&gt;Node14</title>
<path fill="none" stroke="#9a32cd" stroke-dasharray="5,2" d="M891.406,-577.065C966.332,-580.52 1094.39,-586.425 1173.68,-590.082"/>
<polygon fill="#9a32cd" stroke="#9a32cd" points="891.347,-573.558 881.197,-576.594 891.025,-580.551 891.347,-573.558"/>
<text text-anchor="middle" x="952" y="-585.302" font-family="Helvetica,sans-Serif" font-size="10.00"> mpMap</text>
</g>
<!-- Node16 -->
<g id="node16" class="node"><title>Node16</title>
<g id="a_node16"><a xlink:href="class_o_r_b___s_l_a_m2_1_1_map_drawer.html" target="_top" xlink:title="ORB_SLAM2::MapDrawer">
<polygon fill="white" stroke="black" points="1493,-671.802 1493,-690.802 1625,-690.802 1625,-671.802 1493,-671.802"/>
<text text-anchor="middle" x="1559" y="-678.802" font-family="Helvetica,sans-Serif" font-size="10.00">ORB_SLAM2::MapDrawer</text>
</a>
</g>
</g>
<!-- Node6&#45;&gt;Node16 -->
<g id="edge30" class="edge"><title>Node6&#45;&gt;Node16</title>
<path fill="none" stroke="#9a32cd" stroke-dasharray="5,2" d="M843.753,-592.396C857.151,-610.468 880.429,-637.242 908,-649.302 1011.45,-694.553 1349.59,-688.65 1492.89,-683.887"/>
<polygon fill="#9a32cd" stroke="#9a32cd" points="846.328,-589.978 837.676,-583.863 840.626,-594.039 846.328,-589.978"/>
<text text-anchor="middle" x="1085" y="-686.302" font-family="Helvetica,sans-Serif" font-size="10.00"> mpMap</text>
</g>
<!-- Node7 -->
<g id="node7" class="node"><title>Node7</title>
<g id="a_node7"><a xlink:href="class_d_bo_w2_1_1_feature_vector.html" target="_top" xlink:title="Vector of nodes with indexes of local features. ">
<polygon fill="white" stroke="black" points="771,-285.802 771,-304.802 890,-304.802 890,-285.802 771,-285.802"/>
<text text-anchor="middle" x="830.5" y="-292.802" font-family="Helvetica,sans-Serif" font-size="10.00">DBoW2::FeatureVector</text>
</a>
</g>
</g>
<!-- Node7&#45;&gt;Node2 -->
<g id="edge11" class="edge"><title>Node7&#45;&gt;Node2</title>
<path fill="none" stroke="#9a32cd" stroke-dasharray="5,2" d="M900.38,-305.315C929.861,-309.718 964.65,-315.071 996,-320.302 1007.95,-322.295 1020.78,-324.559 1032.86,-326.744"/>
<polygon fill="#9a32cd" stroke="#9a32cd" points="900.595,-301.808 890.188,-303.799 899.565,-308.732 900.595,-301.808"/>
<text text-anchor="middle" x="952" y="-323.302" font-family="Helvetica,sans-Serif" font-size="10.00"> mFeatVec</text>
</g>
<!-- Node7&#45;&gt;Node17 -->
<g id="edge37" class="edge"><title>Node7&#45;&gt;Node17</title>
<path fill="none" stroke="#9a32cd" stroke-dasharray="5,2" d="M900.337,-290.603C994.303,-283.767 1167.87,-269.639 1315,-249.302 1327.92,-247.516 1341.84,-245.179 1354.7,-242.846"/>
<polygon fill="#9a32cd" stroke="#9a32cd" points="899.833,-287.13 890.11,-291.341 900.336,-294.112 899.833,-287.13"/>
<text text-anchor="middle" x="1085" y="-284.302" font-family="Helvetica,sans-Serif" font-size="10.00"> mFeatVec</text>
</g>
<!-- Node8 -->
<g id="node8" class="node"><title>Node8</title>
<polygon fill="white" stroke="#bfbfbf" points="482,-280.302 482,-310.302 611,-310.302 611,-280.302 482,-280.302"/>
<text text-anchor="start" x="490" y="-298.302" font-family="Helvetica,sans-Serif" font-size="10.00">std::map&lt; NodeId, std</text>
<text text-anchor="middle" x="546.5" y="-287.302" font-family="Helvetica,sans-Serif" font-size="10.00">::vector&lt; unsigned int &gt; &gt;</text>
</g>
<!-- Node8&#45;&gt;Node7 -->
<g id="edge12" class="edge"><title>Node8&#45;&gt;Node7</title>
<path fill="none" stroke="midnightblue" d="M621.196,-295.302C667.886,-295.302 727.439,-295.302 770.9,-295.302"/>
<polygon fill="midnightblue" stroke="midnightblue" points="621.138,-291.802 611.138,-295.302 621.138,-298.802 621.138,-291.802"/>
</g>
<!-- Node9 -->
<g id="node9" class="node"><title>Node9</title>
<g id="a_node9"><a xlink:href="class_d_bo_w2_1_1_bow_vector.html" target="_top" xlink:title="Vector of words to represent images. ">
<polygon fill="white" stroke="black" points="778,-229.802 778,-248.802 883,-248.802 883,-229.802 778,-229.802"/>
<text text-anchor="middle" x="830.5" y="-236.802" font-family="Helvetica,sans-Serif" font-size="10.00">DBoW2::BowVector</text>
</a>
</g>
</g>
<!-- Node9&#45;&gt;Node2 -->
<g id="edge13" class="edge"><title>Node9&#45;&gt;Node2</title>
<path fill="none" stroke="#9a32cd" stroke-dasharray="5,2" d="M876.326,-251.739C909.777,-261.5 956.351,-276.112 996,-292.302 996.221,-292.392 1039.16,-313.868 1064.97,-326.779"/>
<polygon fill="#9a32cd" stroke="#9a32cd" points="876.967,-248.281 866.388,-248.869 875.025,-255.006 876.967,-248.281"/>
<text text-anchor="middle" x="952" y="-295.302" font-family="Helvetica,sans-Serif" font-size="10.00"> mBowVec</text>
</g>
<!-- Node9&#45;&gt;Node17 -->
<g id="edge38" class="edge"><title>Node9&#45;&gt;Node17</title>
<path fill="none" stroke="#9a32cd" stroke-dasharray="5,2" d="M893.397,-238.652C1005.96,-237.47 1242.35,-234.988 1348.9,-233.87"/>
<polygon fill="#9a32cd" stroke="#9a32cd" points="893.187,-235.154 883.225,-238.759 893.261,-242.154 893.187,-235.154"/>
<text text-anchor="middle" x="1085" y="-241.302" font-family="Helvetica,sans-Serif" font-size="10.00"> mBowVec</text>
</g>
<!-- Node10 -->
<g id="node10" class="node"><title>Node10</title>
<polygon fill="white" stroke="#bfbfbf" points="467.5,-229.802 467.5,-248.802 625.5,-248.802 625.5,-229.802 467.5,-229.802"/>
<text text-anchor="middle" x="546.5" y="-236.802" font-family="Helvetica,sans-Serif" font-size="10.00">std::map&lt; WordId, WordValue &gt;</text>
</g>
<!-- Node10&#45;&gt;Node9 -->
<g id="edge14" class="edge"><title>Node10&#45;&gt;Node9</title>
<path fill="none" stroke="midnightblue" d="M635.805,-239.302C682.516,-239.302 738.24,-239.302 777.901,-239.302"/>
<polygon fill="midnightblue" stroke="midnightblue" points="635.678,-235.802 625.678,-239.302 635.678,-242.802 635.678,-235.802"/>
</g>
<!-- Node11&#45;&gt;Node1 -->
<g id="edge15" class="edge"><title>Node11&#45;&gt;Node1</title>
<path fill="none" stroke="#9a32cd" stroke-dasharray="5,2" d="M1693.11,-413.551C1677.05,-428.869 1651.48,-450.591 1625,-462.302 1570.54,-486.387 1551.19,-472.651 1493,-485.302 1474.95,-489.227 1455.01,-494.368 1438.69,-498.795"/>
<polygon fill="#9a32cd" stroke="#9a32cd" points="1695.91,-415.712 1700.59,-406.211 1691,-410.714 1695.91,-415.712"/>
<text text-anchor="middle" x="1559" y="-488.302" font-family="Helvetica,sans-Serif" font-size="10.00"> mpLoopCloser</text>
</g>
<!-- Node11&#45;&gt;Node13 -->
<g id="edge27" class="edge"><title>Node11&#45;&gt;Node13</title>
<path fill="none" stroke="#9a32cd" stroke-dasharray="5,2" d="M1789.41,-385.626C1814.5,-382.102 1842.44,-378.109 1868,-374.302 1873.72,-373.45 1879.67,-372.546 1885.62,-371.631"/>
<polygon fill="#9a32cd" stroke="#9a32cd" points="1788.64,-382.2 1779.22,-387.054 1789.61,-389.133 1788.64,-382.2"/>
<text text-anchor="middle" x="1832.5" y="-387.302" font-family="Helvetica,sans-Serif" font-size="10.00"> mpLoopClosing</text>
</g>
<!-- Node12 -->
<g id="node12" class="node"><title>Node12</title>
<g id="a_node12"><a xlink:href="structg2o_1_1_sim3.html" target="_top" xlink:title="g2o::Sim3">
<polygon fill="white" stroke="black" points="1373.5,-361.802 1373.5,-380.802 1434.5,-380.802 1434.5,-361.802 1373.5,-361.802"/>
<text text-anchor="middle" x="1404" y="-368.802" font-family="Helvetica,sans-Serif" font-size="10.00">g2o::Sim3</text>
</a>
</g>
</g>
<!-- Node12&#45;&gt;Node11 -->
<g id="edge18" class="edge"><title>Node12&#45;&gt;Node11</title>
<path fill="none" stroke="#9a32cd" stroke-dasharray="5,2" d="M1444.86,-366.256C1489.18,-361.644 1562.72,-356.971 1625,-367.302 1647.3,-371.002 1671.61,-379.814 1688.5,-386.76"/>
<polygon fill="#9a32cd" stroke="#9a32cd" points="1444.35,-362.791 1434.78,-367.356 1445.11,-369.749 1444.35,-362.791"/>
<text text-anchor="middle" x="1559" y="-370.302" font-family="Helvetica,sans-Serif" font-size="10.00"> mg2oScw</text>
</g>
<!-- Node13&#45;&gt;Node1 -->
<g id="edge45" class="edge"><title>Node13&#45;&gt;Node1</title>
<path fill="none" stroke="#9a32cd" stroke-dasharray="5,2" d="M1931.43,-379.977C1906.22,-412.425 1847.3,-480.613 1779,-507.302 1666.06,-551.436 1518.87,-531.711 1447.5,-517.81"/>
<polygon fill="#9a32cd" stroke="#9a32cd" points="1934.36,-381.913 1937.63,-371.836 1928.79,-377.674 1934.36,-381.913"/>
<text text-anchor="middle" x="1711" y="-537.302" font-family="Helvetica,sans-Serif" font-size="10.00"> mpTracker</text>
</g>
<!-- Node13&#45;&gt;Node11 -->
<g id="edge22" class="edge"><title>Node13&#45;&gt;Node11</title>
<path fill="none" stroke="#9a32cd" stroke-dasharray="5,2" d="M1875.76,-357.627C1850.77,-357.274 1822.42,-358.45 1797,-363.302 1773.21,-367.842 1747.49,-378.742 1730.65,-386.779"/>
<polygon fill="#9a32cd" stroke="#9a32cd" points="1875.8,-361.129 1885.88,-357.854 1875.96,-354.13 1875.8,-361.129"/>
<text text-anchor="middle" x="1832.5" y="-366.302" font-family="Helvetica,sans-Serif" font-size="10.00"> mpTracker</text>
</g>
<!-- Node14&#45;&gt;Node13 -->
<g id="edge23" class="edge"><title>Node14&#45;&gt;Node13</title>
<path fill="none" stroke="#9a32cd" stroke-dasharray="5,2" d="M1325.34,-600.534C1432.49,-607.204 1626.94,-608.52 1779,-549.302 1823.69,-531.899 1835.04,-523.134 1868,-488.302 1903.35,-450.94 1930.35,-394.573 1940.32,-372.077"/>
<polygon fill="#9a32cd" stroke="#9a32cd" points="1325.45,-597.034 1315.25,-599.874 1325,-604.019 1325.45,-597.034"/>
<text text-anchor="middle" x="1559" y="-605.302" font-family="Helvetica,sans-Serif" font-size="10.00"> mpFrameDrawer</text>
</g>
<!-- Node15 -->
<g id="node15" class="node"><title>Node15</title>
<g id="a_node15"><a xlink:href="class_o_r_b___s_l_a_m2_1_1_initializer.html" target="_top" xlink:title="Inicializador de mapa en modo monocular. ">
<polygon fill="white" stroke="black" points="1650.5,-269.802 1650.5,-288.802 1771.5,-288.802 1771.5,-269.802 1650.5,-269.802"/>
<text text-anchor="middle" x="1711" y="-276.802" font-family="Helvetica,sans-Serif" font-size="10.00">ORB_SLAM2::Initializer</text>
</a>
</g>
</g>
<!-- Node15&#45;&gt;Node13 -->
<g id="edge28" class="edge"><title>Node15&#45;&gt;Node13</title>
<path fill="none" stroke="#9a32cd" stroke-dasharray="5,2" d="M1781.69,-275.542C1809.54,-276.448 1841.28,-280.62 1868,-292.302 1898.85,-305.786 1925.45,-336.921 1937.55,-352.726"/>
<polygon fill="#9a32cd" stroke="#9a32cd" points="1781.69,-272.041 1771.63,-275.348 1781.56,-279.04 1781.69,-272.041"/>
<text text-anchor="middle" x="1832.5" y="-295.302" font-family="Helvetica,sans-Serif" font-size="10.00"> mpInitializer</text>
</g>
<!-- Node16&#45;&gt;Node13 -->
<g id="edge29" class="edge"><title>Node16&#45;&gt;Node13</title>
<path fill="none" stroke="#9a32cd" stroke-dasharray="5,2" d="M1635.34,-682.964C1715.12,-683.114 1834.14,-678.224 1868,-649.302 1912.21,-611.54 1937.89,-417.617 1943.38,-371.945"/>
<polygon fill="#9a32cd" stroke="#9a32cd" points="1635.34,-679.464 1625.33,-682.919 1635.31,-686.464 1635.34,-679.464"/>
<text text-anchor="middle" x="1711" y="-685.302" font-family="Helvetica,sans-Serif" font-size="10.00"> mpMapDrawer</text>
</g>
<!-- Node17&#45;&gt;Node13 -->
<g id="edge34" class="edge"><title>Node17&#45;&gt;Node13</title>
<path fill="none" stroke="#9a32cd" stroke-dasharray="5,2" d="M1469.44,-227.197C1544.56,-221.68 1672.05,-217.286 1779,-238.302 1820.71,-246.497 1833.35,-248.684 1868,-273.302 1899.89,-295.96 1926.98,-334.693 1938.53,-352.644"/>
<polygon fill="#9a32cd" stroke="#9a32cd" points="1468.91,-223.728 1459.2,-227.981 1469.44,-230.708 1468.91,-223.728"/>
<text text-anchor="middle" x="1711" y="-252.302" font-family="Helvetica,sans-Serif" font-size="10.00"> mCurrentFrame</text>
<text text-anchor="middle" x="1711" y="-241.302" font-family="Helvetica,sans-Serif" font-size="10.00">mInitialFrame</text>
</g>
<!-- Node18 -->
<g id="node18" class="node"><title>Node18</title>
<g id="a_node18"><a xlink:href="class_o_r_b___s_l_a_m2_1_1_o_r_bextractor.html" target="_top" xlink:title="Empaqueta todos los métodos de detección de puntos singulares y extracción de descriptores. ">
<polygon fill="white" stroke="black" points="1014,-145.802 1014,-164.802 1156,-164.802 1156,-145.802 1014,-145.802"/>
<text text-anchor="middle" x="1085" y="-152.802" font-family="Helvetica,sans-Serif" font-size="10.00">ORB_SLAM2::ORBextractor</text>
</a>
</g>
</g>
<!-- Node18&#45;&gt;Node13 -->
<g id="edge43" class="edge"><title>Node18&#45;&gt;Node13</title>
<path fill="none" stroke="#9a32cd" stroke-dasharray="5,2" d="M1166.48,-154.178C1342.85,-153.224 1756.57,-159.687 1868,-238.302 1910.16,-268.049 1933.71,-329.128 1941.53,-352.714"/>
<polygon fill="#9a32cd" stroke="#9a32cd" points="1166.21,-150.679 1156.23,-154.243 1166.25,-157.679 1166.21,-150.679"/>
<text text-anchor="middle" x="1559" y="-199.302" font-family="Helvetica,sans-Serif" font-size="10.00"> mpORBextractorRight</text>
<text text-anchor="middle" x="1559" y="-188.302" font-family="Helvetica,sans-Serif" font-size="10.00">mpORBextractorLeft</text>
<text text-anchor="middle" x="1559" y="-177.302" font-family="Helvetica,sans-Serif" font-size="10.00">mpIniORBextractor</text>
</g>
<!-- Node18&#45;&gt;Node17 -->
<g id="edge39" class="edge"><title>Node18&#45;&gt;Node17</title>
<path fill="none" stroke="#9a32cd" stroke-dasharray="5,2" d="M1166.02,-165.522C1226.26,-173.437 1300.81,-183.79 1315,-188.302 1342.14,-196.935 1371.09,-213.293 1388.08,-223.728"/>
<polygon fill="#9a32cd" stroke="#9a32cd" points="1166.47,-162.051 1156.1,-164.224 1165.56,-168.992 1166.47,-162.051"/>
<text text-anchor="middle" x="1244.5" y="-191.302" font-family="Helvetica,sans-Serif" font-size="10.00"> mpORBextractorLeft</text>
</g>
<!-- Node19 -->
<g id="node19" class="node"><title>Node19</title>
<g id="a_node19"><a xlink:href="class_o_r_b___s_l_a_m2_1_1_viewer.html" target="_top" xlink:title="ORB_SLAM2::Viewer">
<polygon fill="white" stroke="black" points="1348,-48.8019 1348,-67.8019 1460,-67.8019 1460,-48.8019 1348,-48.8019"/>
<text text-anchor="middle" x="1404" y="-55.8019" font-family="Helvetica,sans-Serif" font-size="10.00">ORB_SLAM2::Viewer</text>
</a>
</g>
</g>
<!-- Node19&#45;&gt;Node13 -->
<g id="edge40" class="edge"><title>Node19&#45;&gt;Node13</title>
<path fill="none" stroke="#9a32cd" stroke-dasharray="5,2" d="M1438.87,-45.4112C1523.77,-15.5414 1747.48,47.6793 1868,-64.3019 1912.22,-105.386 1937.98,-306.18 1943.42,-352.676"/>
<polygon fill="#9a32cd" stroke="#9a32cd" points="1437.68,-42.1183 1429.45,-48.7894 1440.05,-48.7071 1437.68,-42.1183"/>
<text text-anchor="middle" x="1711" y="-16.3019" font-family="Helvetica,sans-Serif" font-size="10.00"> mpViewer</text>
</g>
<!-- Node20 -->
<g id="node20" class="node"><title>Node20</title>
<g id="a_node20"><a xlink:href="class_o_r_b___s_l_a_m2_1_1_system.html" target="_top" xlink:title="System se instancia una única vez en main, en la variable SLAM. ">
<polygon fill="white" stroke="black" points="1653,-68.8019 1653,-87.8019 1769,-87.8019 1769,-68.8019 1653,-68.8019"/>
<text text-anchor="middle" x="1711" y="-75.8019" font-family="Helvetica,sans-Serif" font-size="10.00">ORB_SLAM2::System</text>
</a>
</g>
</g>
<!-- Node19&#45;&gt;Node20 -->
<g id="edge42" class="edge"><title>Node19&#45;&gt;Node20</title>
<path fill="none" stroke="#9a32cd" stroke-dasharray="5,2" d="M1470.43,-62.5926C1524.68,-66.1497 1601.03,-71.1563 1652.85,-74.5543"/>
<polygon fill="#9a32cd" stroke="#9a32cd" points="1470.44,-59.0856 1460.23,-61.9237 1469.98,-66.0706 1470.44,-59.0856"/>
<text text-anchor="middle" x="1559" y="-76.3019" font-family="Helvetica,sans-Serif" font-size="10.00"> mpViewer</text>
</g>
<!-- Node20&#45;&gt;Node13 -->
<g id="edge41" class="edge"><title>Node20&#45;&gt;Node13</title>
<path fill="none" stroke="#9a32cd" stroke-dasharray="5,2" d="M1772.86,-68.0125C1804.54,-66.142 1841.98,-69.8537 1868,-91.3019 1910.34,-126.207 1937.25,-308.304 1943.23,-352.588"/>
<polygon fill="#9a32cd" stroke="#9a32cd" points="1772.49,-64.5303 1762.8,-68.8005 1773.04,-71.5089 1772.49,-64.5303"/>
<text text-anchor="middle" x="1832.5" y="-94.3019" font-family="Helvetica,sans-Serif" font-size="10.00"> mpSystem</text>
</g>
</g>
</svg>
