<?xml version="1.0" encoding="UTF-8" standalone="no"?>
<!DOCTYPE svg PUBLIC "-//W3C//DTD SVG 1.1//EN"
 "http://www.w3.org/Graphics/SVG/1.1/DTD/svg11.dtd">
<!-- Generated by graphviz version 2.38.0 (20140413.2041)
 -->
<!-- Title: ORB_SLAM2::LoopClosing Pages: 1 -->
<svg width="1762pt" height="733pt"
 viewBox="0.00 0.00 1762.00 732.66" xmlns="http://www.w3.org/2000/svg" xmlns:xlink="http://www.w3.org/1999/xlink">
<g id="graph0" class="graph" transform="scale(1 1) rotate(0) translate(4 728.664)">
<title>ORB_SLAM2::LoopClosing</title>
<polygon fill="white" stroke="none" points="-4,4 -4,-728.664 1758,-728.664 1758,4 -4,4"/>
<!-- Node1 -->
<g id="node1" class="node"><title>Node1</title>
<polygon fill="#bfbfbf" stroke="black" points="1080,-435.164 1080,-454.164 1216,-454.164 1216,-435.164 1080,-435.164"/>
<text text-anchor="middle" x="1148" y="-442.164" font-family="Helvetica,sans-Serif" font-size="10.00">ORB_SLAM2::LoopClosing</text>
</g>
<!-- Node12 -->
<g id="node12" class="node"><title>Node12</title>
<g id="a_node12"><a xlink:href="class_o_r_b___s_l_a_m2_1_1_local_mapping.html" target="_top" xlink:title="LocalMapping tiene una única instancia ejecutando el método Run en su propio thread. ">
<polygon fill="white" stroke="black" points="1384,-440.164 1384,-459.164 1526,-459.164 1526,-440.164 1384,-440.164"/>
<text text-anchor="middle" x="1455" y="-447.164" font-family="Helvetica,sans-Serif" font-size="10.00">ORB_SLAM2::LocalMapping</text>
</a>
</g>
</g>
<!-- Node1&#45;&gt;Node12 -->
<g id="edge18" class="edge"><title>Node1&#45;&gt;Node12</title>
<path fill="none" stroke="#9a32cd" stroke-dasharray="5,2" d="M1219.12,-455.349C1224.15,-455.874 1229.15,-456.323 1234,-456.664 1292.52,-460.775 1307.38,-458.992 1366,-456.664 1371.82,-456.433 1377.85,-456.116 1383.9,-455.744"/>
<polygon fill="#9a32cd" stroke="#9a32cd" points="1219.12,-451.828 1208.79,-454.178 1218.34,-458.783 1219.12,-451.828"/>
<text text-anchor="middle" x="1300" y="-462.664" font-family="Helvetica,sans-Serif" font-size="10.00"> mpLoopCloser</text>
</g>
<!-- Node13 -->
<g id="node13" class="node"><title>Node13</title>
<g id="a_node13"><a xlink:href="class_o_r_b___s_l_a_m2_1_1_tracking.html" target="_top" xlink:title="Objeto único que se ejecuta en su propio Trhead, y se inicia con Run(). ">
<polygon fill="white" stroke="black" points="1635,-377.164 1635,-396.164 1754,-396.164 1754,-377.164 1635,-377.164"/>
<text text-anchor="middle" x="1694.5" y="-384.164" font-family="Helvetica,sans-Serif" font-size="10.00">ORB_SLAM2::Tracking</text>
</a>
</g>
</g>
<!-- Node1&#45;&gt;Node13 -->
<g id="edge25" class="edge"><title>Node1&#45;&gt;Node13</title>
<path fill="none" stroke="#9a32cd" stroke-dasharray="5,2" d="M1226,-435.682C1305.57,-426.495 1433.41,-412 1544,-400.664 1573.95,-397.594 1607.31,-394.444 1634.9,-391.912"/>
<polygon fill="#9a32cd" stroke="#9a32cd" points="1225.59,-432.206 1216.06,-436.831 1226.39,-439.16 1225.59,-432.206"/>
<text text-anchor="middle" x="1455" y="-420.664" font-family="Helvetica,sans-Serif" font-size="10.00"> mpLoopClosing</text>
</g>
<!-- Node2 -->
<g id="node2" class="node"><title>Node2</title>
<g id="a_node2"><a xlink:href="class_o_r_b___s_l_a_m2_1_1_key_frame_database.html" target="_top" xlink:title="Lista invertida de KeyFrames, accesible por BoW. ">
<polygon fill="white" stroke="black" points="468,-332.164 468,-351.164 637,-351.164 637,-332.164 468,-332.164"/>
<text text-anchor="middle" x="552.5" y="-339.164" font-family="Helvetica,sans-Serif" font-size="10.00">ORB_SLAM2::KeyFrameDatabase</text>
</a>
</g>
</g>
<!-- Node2&#45;&gt;Node1 -->
<g id="edge1" class="edge"><title>Node2&#45;&gt;Node1</title>
<path fill="none" stroke="#9a32cd" stroke-dasharray="5,2" d="M631.237,-352.642C731.247,-367.156 910.179,-394.45 1062,-424.664 1077.46,-427.741 1094.39,-431.619 1109.04,-435.139"/>
<polygon fill="#9a32cd" stroke="#9a32cd" points="631.614,-349.16 621.216,-351.192 630.612,-356.088 631.614,-349.16"/>
<text text-anchor="middle" x="832" y="-398.664" font-family="Helvetica,sans-Serif" font-size="10.00"> mpKeyFrameDB</text>
</g>
<!-- Node5 -->
<g id="node5" class="node"><title>Node5</title>
<g id="a_node5"><a xlink:href="class_o_r_b___s_l_a_m2_1_1_key_frame.html" target="_top" xlink:title="Cuadro clave, keyframe. ">
<polygon fill="white" stroke="black" points="768.5,-265.164 768.5,-284.164 895.5,-284.164 895.5,-265.164 768.5,-265.164"/>
<text text-anchor="middle" x="832" y="-272.164" font-family="Helvetica,sans-Serif" font-size="10.00">ORB_SLAM2::KeyFrame</text>
</a>
</g>
</g>
<!-- Node2&#45;&gt;Node5 -->
<g id="edge5" class="edge"><title>Node2&#45;&gt;Node5</title>
<path fill="none" stroke="#9a32cd" stroke-dasharray="5,2" d="M602.158,-329.603C618.899,-325.474 637.765,-320.843 655,-316.664 701.557,-305.375 755.101,-292.632 790.787,-284.173"/>
<polygon fill="#9a32cd" stroke="#9a32cd" points="600.912,-326.306 592.042,-332.101 602.59,-333.102 600.912,-326.306"/>
<text text-anchor="middle" x="699" y="-319.664" font-family="Helvetica,sans-Serif" font-size="10.00"> mpKeyFrameDB</text>
</g>
<!-- Node2&#45;&gt;Node13 -->
<g id="edge23" class="edge"><title>Node2&#45;&gt;Node13</title>
<path fill="none" stroke="#9a32cd" stroke-dasharray="5,2" d="M647.42,-338.599C775.878,-335.074 1013.54,-330.935 1216,-340.664 1367.4,-347.94 1544.87,-368.12 1634.82,-379.179"/>
<polygon fill="#9a32cd" stroke="#9a32cd" points="647.125,-335.106 637.227,-338.884 647.321,-342.103 647.125,-335.106"/>
<text text-anchor="middle" x="1148" y="-343.664" font-family="Helvetica,sans-Serif" font-size="10.00"> mpKeyFrameDB</text>
</g>
<!-- Node3 -->
<g id="node3" class="node"><title>Node3</title>
<g id="a_node3"><a xlink:href="class_d_bo_w2_1_1_templated_vocabulary.html" target="_top" xlink:title="Generic Vocabulary. ">
<polygon fill="white" stroke="black" points="243,-326.664 243,-356.664 395,-356.664 395,-326.664 243,-326.664"/>
<text text-anchor="start" x="251" y="-344.664" font-family="Helvetica,sans-Serif" font-size="10.00">DBoW2::TemplatedVocabulary</text>
<text text-anchor="middle" x="319" y="-333.664" font-family="Helvetica,sans-Serif" font-size="10.00">&lt; TDescriptor, F &gt;</text>
</a>
</g>
</g>
<!-- Node3&#45;&gt;Node1 -->
<g id="edge15" class="edge"><title>Node3&#45;&gt;Node1</title>
<path fill="none" stroke="#9a32cd" stroke-dasharray="5,2" d="M389.549,-359.149C456.964,-375.394 562.338,-398.938 655,-411.664 805.966,-432.397 984.857,-440.252 1079.85,-443.114"/>
<polygon fill="#9a32cd" stroke="#9a32cd" points="390.016,-355.661 379.473,-356.707 388.368,-362.464 390.016,-355.661"/>
<text text-anchor="middle" x="699" y="-425.664" font-family="Helvetica,sans-Serif" font-size="10.00"> mpORBVocabulary</text>
</g>
<!-- Node3&#45;&gt;Node2 -->
<g id="edge2" class="edge"><title>Node3&#45;&gt;Node2</title>
<path fill="none" stroke="#9a32cd" stroke-dasharray="5,2" d="M405.38,-341.664C425.796,-341.664 447.568,-341.664 467.903,-341.664"/>
<polygon fill="#9a32cd" stroke="#9a32cd" points="405.161,-338.164 395.161,-341.664 405.161,-345.164 405.161,-338.164"/>
<text text-anchor="middle" x="433" y="-344.664" font-family="Helvetica,sans-Serif" font-size="10.00"> mpVoc</text>
</g>
<!-- Node3&#45;&gt;Node5 -->
<g id="edge8" class="edge"><title>Node3&#45;&gt;Node5</title>
<path fill="none" stroke="#9a32cd" stroke-dasharray="5,2" d="M397.104,-324.54C419.854,-319.893 444.857,-315.18 468,-311.664 572.903,-295.725 695.932,-284.804 768.459,-279.158"/>
<polygon fill="#9a32cd" stroke="#9a32cd" points="396.249,-321.143 387.165,-326.595 397.667,-327.998 396.249,-321.143"/>
<text text-anchor="middle" x="552.5" y="-314.664" font-family="Helvetica,sans-Serif" font-size="10.00"> mpORBvocabulary</text>
</g>
<!-- Node3&#45;&gt;Node13 -->
<g id="edge30" class="edge"><title>Node3&#45;&gt;Node13</title>
<path fill="none" stroke="#9a32cd" stroke-dasharray="5,2" d="M323.269,-366.845C335.668,-450.467 387.702,-713.664 551.5,-713.664 551.5,-713.664 551.5,-713.664 1456,-713.664 1532.21,-713.664 1565.12,-710.488 1617,-654.664 1689.63,-576.511 1693.9,-434.163 1693.68,-396.187"/>
<polygon fill="#9a32cd" stroke="#9a32cd" points="326.701,-366.117 321.833,-356.708 319.771,-367.1 326.701,-366.117"/>
<text text-anchor="middle" x="991.5" y="-716.664" font-family="Helvetica,sans-Serif" font-size="10.00"> mpORBVocabulary</text>
</g>
<!-- Node17 -->
<g id="node17" class="node"><title>Node17</title>
<g id="a_node17"><a xlink:href="class_o_r_b___s_l_a_m2_1_1_frame.html" target="_top" xlink:title="Frame es un cuadro, una imagen, con los puntos detectados. ">
<polygon fill="white" stroke="black" points="1093,-188.164 1093,-207.164 1203,-207.164 1203,-188.164 1093,-188.164"/>
<text text-anchor="middle" x="1148" y="-195.164" font-family="Helvetica,sans-Serif" font-size="10.00">ORB_SLAM2::Frame</text>
</a>
</g>
</g>
<!-- Node3&#45;&gt;Node17 -->
<g id="edge34" class="edge"><title>Node3&#45;&gt;Node17</title>
<path fill="none" stroke="#9a32cd" stroke-dasharray="5,2" d="M370.553,-323.069C399.129,-312.596 435.53,-299.317 468,-287.664 550.955,-257.892 568.518,-238.657 655,-221.664 676.162,-217.506 969.54,-204.996 1092.93,-199.88"/>
<polygon fill="#9a32cd" stroke="#9a32cd" points="368.974,-319.92 360.791,-326.65 371.384,-326.492 368.974,-319.92"/>
<text text-anchor="middle" x="699" y="-224.664" font-family="Helvetica,sans-Serif" font-size="10.00"> mpORBvocabulary</text>
</g>
<!-- Node4 -->
<g id="node4" class="node"><title>Node4</title>
<g id="a_node4"><a xlink:href="class_d_bo_w2_1_1_general_scoring.html" target="_top" xlink:title="Base class of scoring functions. ">
<polygon fill="white" stroke="black" points="0,-332.164 0,-351.164 124,-351.164 124,-332.164 0,-332.164"/>
<text text-anchor="middle" x="62" y="-339.164" font-family="Helvetica,sans-Serif" font-size="10.00">DBoW2::GeneralScoring</text>
</a>
</g>
</g>
<!-- Node4&#45;&gt;Node3 -->
<g id="edge3" class="edge"><title>Node4&#45;&gt;Node3</title>
<path fill="none" stroke="#9a32cd" stroke-dasharray="5,2" d="M134.347,-341.664C168.159,-341.664 208.555,-341.664 242.841,-341.664"/>
<polygon fill="#9a32cd" stroke="#9a32cd" points="134.079,-338.164 124.079,-341.664 134.079,-345.164 134.079,-338.164"/>
<text text-anchor="middle" x="182" y="-344.664" font-family="Helvetica,sans-Serif" font-size="10.00"> m_scoring_object</text>
</g>
<!-- Node5&#45;&gt;Node1 -->
<g id="edge4" class="edge"><title>Node5&#45;&gt;Node1</title>
<path fill="none" stroke="#9a32cd" stroke-dasharray="5,2" d="M854.393,-290.163C871.704,-302.169 897.056,-318.573 921,-329.664 980.689,-357.311 1012.26,-331.613 1062,-374.664 1075.83,-386.632 1067.1,-398.701 1080,-411.664 1090.43,-422.142 1104.85,-429.832 1117.65,-435.139"/>
<polygon fill="#9a32cd" stroke="#9a32cd" points="856.315,-287.235 846.124,-284.336 852.283,-292.957 856.315,-287.235"/>
<text text-anchor="middle" x="991.5" y="-388.664" font-family="Helvetica,sans-Serif" font-size="10.00"> mpMatchedKF</text>
<text text-anchor="middle" x="991.5" y="-377.664" font-family="Helvetica,sans-Serif" font-size="10.00">mpCurrentKF</text>
</g>
<!-- Node5&#45;&gt;Node5 -->
<g id="edge6" class="edge"><title>Node5&#45;&gt;Node5</title>
<path fill="none" stroke="#9a32cd" stroke-dasharray="5,2" d="M807.447,-293.693C808.786,-298.792 816.97,-302.664 832,-302.664 855.461,-302.664 862.243,-293.229 852.345,-284.421"/>
<polygon fill="#9a32cd" stroke="#9a32cd" points="810.709,-294.974 811.655,-284.421 804.335,-292.08 810.709,-294.974"/>
<text text-anchor="middle" x="832" y="-305.664" font-family="Helvetica,sans-Serif" font-size="10.00"> mpParent</text>
</g>
<!-- Node5&#45;&gt;Node12 -->
<g id="edge17" class="edge"><title>Node5&#45;&gt;Node12</title>
<path fill="none" stroke="#9a32cd" stroke-dasharray="5,2" d="M903.651,-285.946C961.027,-296.133 1036.46,-312.174 1062,-329.664 1073.6,-337.605 1068.45,-347.651 1080,-355.664 1194.51,-435.127 1248.72,-399.106 1384,-432.664 1393.83,-435.103 1404.45,-437.7 1414.37,-440.112"/>
<polygon fill="#9a32cd" stroke="#9a32cd" points="903.98,-282.45 893.526,-284.175 902.774,-289.346 903.98,-282.45"/>
<text text-anchor="middle" x="1148" y="-413.664" font-family="Helvetica,sans-Serif" font-size="10.00"> mpCurrentKeyFrame</text>
</g>
<!-- Node5&#45;&gt;Node13 -->
<g id="edge24" class="edge"><title>Node5&#45;&gt;Node13</title>
<path fill="none" stroke="#9a32cd" stroke-dasharray="5,2" d="M906.023,-272.783C1032.5,-270.158 1300.42,-267.383 1526,-283.664 1566.69,-286.601 1581.23,-276.055 1617,-295.664 1652.29,-315.01 1678.21,-357.683 1688.55,-376.921"/>
<polygon fill="#9a32cd" stroke="#9a32cd" points="905.619,-269.291 895.696,-273.004 905.769,-276.29 905.619,-269.291"/>
<text text-anchor="middle" x="1300" y="-278.664" font-family="Helvetica,sans-Serif" font-size="10.00"> mpReferenceKF</text>
</g>
<!-- Node5&#45;&gt;Node17 -->
<g id="edge33" class="edge"><title>Node5&#45;&gt;Node17</title>
<path fill="none" stroke="#9a32cd" stroke-dasharray="5,2" d="M870.61,-261.892C886.089,-256.959 904.278,-251.574 921,-247.664 982.827,-233.207 1000.24,-239.426 1062,-224.664 1081.88,-219.912 1103.86,-212.882 1120.48,-207.187"/>
<polygon fill="#9a32cd" stroke="#9a32cd" points="869.307,-258.635 860.873,-265.048 871.465,-265.294 869.307,-258.635"/>
<text text-anchor="middle" x="991.5" y="-250.664" font-family="Helvetica,sans-Serif" font-size="10.00"> mpReferenceKF</text>
</g>
<!-- Node6 -->
<g id="node6" class="node"><title>Node6</title>
<g id="a_node6"><a xlink:href="class_o_r_b___s_l_a_m2_1_1_map.html" target="_top" xlink:title="Mapa del mundo, de puntos y keyframes. ">
<polygon fill="white" stroke="black" points="502,-562.164 502,-581.164 603,-581.164 603,-562.164 502,-562.164"/>
<text text-anchor="middle" x="552.5" y="-569.164" font-family="Helvetica,sans-Serif" font-size="10.00">ORB_SLAM2::Map</text>
</a>
</g>
</g>
<!-- Node6&#45;&gt;Node1 -->
<g id="edge14" class="edge"><title>Node6&#45;&gt;Node1</title>
<path fill="none" stroke="#9a32cd" stroke-dasharray="5,2" d="M588.643,-558.671C608.001,-551.914 632.584,-543.978 655,-538.664 833.042,-496.458 884.97,-522.928 1062,-476.664 1084.12,-470.883 1108.45,-461.385 1125.39,-454.235"/>
<polygon fill="#9a32cd" stroke="#9a32cd" points="587.291,-555.437 579.035,-562.078 589.63,-562.035 587.291,-555.437"/>
<text text-anchor="middle" x="832" y="-521.664" font-family="Helvetica,sans-Serif" font-size="10.00"> mpMap</text>
</g>
<!-- Node6&#45;&gt;Node5 -->
<g id="edge7" class="edge"><title>Node6&#45;&gt;Node5</title>
<path fill="none" stroke="#9a32cd" stroke-dasharray="5,2" d="M561.749,-552.316C576.731,-518.726 610.975,-448.631 655,-400.664 681.045,-372.286 778.238,-308.56 815.929,-284.295"/>
<polygon fill="#9a32cd" stroke="#9a32cd" points="558.374,-551.3 557.574,-561.864 564.787,-554.104 558.374,-551.3"/>
<text text-anchor="middle" x="699" y="-403.664" font-family="Helvetica,sans-Serif" font-size="10.00"> mpMap</text>
</g>
<!-- Node6&#45;&gt;Node12 -->
<g id="edge19" class="edge"><title>Node6&#45;&gt;Node12</title>
<path fill="none" stroke="#9a32cd" stroke-dasharray="5,2" d="M613.585,-567.916C749.004,-558.723 1087.93,-531.545 1366,-474.664 1385.76,-470.622 1407.57,-464.437 1424.54,-459.231"/>
<polygon fill="#9a32cd" stroke="#9a32cd" points="613.164,-564.436 603.421,-568.598 613.632,-571.42 613.164,-564.436"/>
<text text-anchor="middle" x="991.5" y="-543.664" font-family="Helvetica,sans-Serif" font-size="10.00"> mpMap</text>
</g>
<!-- Node6&#45;&gt;Node13 -->
<g id="edge29" class="edge"><title>Node6&#45;&gt;Node13</title>
<path fill="none" stroke="#9a32cd" stroke-dasharray="5,2" d="M613.178,-578.117C669.319,-583.626 755.763,-590.664 831,-590.664 831,-590.664 831,-590.664 1456,-590.664 1576.94,-590.664 1667.06,-436.561 1688.58,-396.23"/>
<polygon fill="#9a32cd" stroke="#9a32cd" points="613.355,-574.618 603.057,-577.109 612.66,-581.583 613.355,-574.618"/>
<text text-anchor="middle" x="1148" y="-593.664" font-family="Helvetica,sans-Serif" font-size="10.00"> mpMap</text>
</g>
<!-- Node14 -->
<g id="node14" class="node"><title>Node14</title>
<g id="a_node14"><a xlink:href="class_o_r_b___s_l_a_m2_1_1_frame_drawer.html" target="_top" xlink:title="ORB_SLAM2::FrameDrawer">
<polygon fill="white" stroke="black" points="921,-666.164 921,-685.164 1062,-685.164 1062,-666.164 921,-666.164"/>
<text text-anchor="middle" x="991.5" y="-673.164" font-family="Helvetica,sans-Serif" font-size="10.00">ORB_SLAM2::FrameDrawer</text>
</a>
</g>
</g>
<!-- Node6&#45;&gt;Node14 -->
<g id="edge22" class="edge"><title>Node6&#45;&gt;Node14</title>
<path fill="none" stroke="#9a32cd" stroke-dasharray="5,2" d="M569.115,-588.765C587.564,-607.676 620.178,-637.243 655,-650.664 742.064,-684.221 851.113,-685.632 920.806,-681.95"/>
<polygon fill="#9a32cd" stroke="#9a32cd" points="571.535,-586.23 562.111,-581.39 566.46,-591.051 571.535,-586.23"/>
<text text-anchor="middle" x="699" y="-675.664" font-family="Helvetica,sans-Serif" font-size="10.00"> mpMap</text>
</g>
<!-- Node16 -->
<g id="node16" class="node"><title>Node16</title>
<g id="a_node16"><a xlink:href="class_o_r_b___s_l_a_m2_1_1_map_drawer.html" target="_top" xlink:title="ORB_SLAM2::MapDrawer">
<polygon fill="white" stroke="black" points="1234,-627.164 1234,-646.164 1366,-646.164 1366,-627.164 1234,-627.164"/>
<text text-anchor="middle" x="1300" y="-634.164" font-family="Helvetica,sans-Serif" font-size="10.00">ORB_SLAM2::MapDrawer</text>
</a>
</g>
</g>
<!-- Node6&#45;&gt;Node16 -->
<g id="edge28" class="edge"><title>Node6&#45;&gt;Node16</title>
<path fill="none" stroke="#9a32cd" stroke-dasharray="5,2" d="M586.218,-584.747C605.833,-591.969 631.46,-600.332 655,-604.664 863.905,-643.109 1116.93,-642.143 1233.91,-639.068"/>
<polygon fill="#9a32cd" stroke="#9a32cd" points="587.423,-581.461 576.831,-581.209 584.954,-588.011 587.423,-581.461"/>
<text text-anchor="middle" x="832" y="-636.664" font-family="Helvetica,sans-Serif" font-size="10.00"> mpMap</text>
</g>
<!-- Node7 -->
<g id="node7" class="node"><title>Node7</title>
<g id="a_node7"><a xlink:href="class_d_bo_w2_1_1_feature_vector.html" target="_top" xlink:title="Vector of nodes with indexes of local features. ">
<polygon fill="white" stroke="black" points="493,-175.164 493,-194.164 612,-194.164 612,-175.164 493,-175.164"/>
<text text-anchor="middle" x="552.5" y="-182.164" font-family="Helvetica,sans-Serif" font-size="10.00">DBoW2::FeatureVector</text>
</a>
</g>
</g>
<!-- Node7&#45;&gt;Node5 -->
<g id="edge9" class="edge"><title>Node7&#45;&gt;Node5</title>
<path fill="none" stroke="#9a32cd" stroke-dasharray="5,2" d="M578.686,-199.143C598.798,-210.189 627.987,-225.09 655,-234.664 678.259,-242.907 739.517,-256.148 783.213,-265.117"/>
<polygon fill="#9a32cd" stroke="#9a32cd" points="580.297,-196.034 569.859,-194.221 576.888,-202.148 580.297,-196.034"/>
<text text-anchor="middle" x="699" y="-259.664" font-family="Helvetica,sans-Serif" font-size="10.00"> mFeatVec</text>
</g>
<!-- Node7&#45;&gt;Node17 -->
<g id="edge35" class="edge"><title>Node7&#45;&gt;Node17</title>
<path fill="none" stroke="#9a32cd" stroke-dasharray="5,2" d="M622.137,-186.167C741.391,-188.779 984.45,-194.103 1092.79,-196.476"/>
<polygon fill="#9a32cd" stroke="#9a32cd" points="622.106,-182.666 612.031,-185.946 621.952,-189.664 622.106,-182.666"/>
<text text-anchor="middle" x="832" y="-195.664" font-family="Helvetica,sans-Serif" font-size="10.00"> mFeatVec</text>
</g>
<!-- Node8 -->
<g id="node8" class="node"><title>Node8</title>
<polygon fill="white" stroke="#bfbfbf" points="254.5,-169.664 254.5,-199.664 383.5,-199.664 383.5,-169.664 254.5,-169.664"/>
<text text-anchor="start" x="262.5" y="-187.664" font-family="Helvetica,sans-Serif" font-size="10.00">std::map&lt; NodeId, std</text>
<text text-anchor="middle" x="319" y="-176.664" font-family="Helvetica,sans-Serif" font-size="10.00">::vector&lt; unsigned int &gt; &gt;</text>
</g>
<!-- Node8&#45;&gt;Node7 -->
<g id="edge10" class="edge"><title>Node8&#45;&gt;Node7</title>
<path fill="none" stroke="midnightblue" d="M393.769,-184.664C425.779,-184.664 462.744,-184.664 492.84,-184.664"/>
<polygon fill="midnightblue" stroke="midnightblue" points="393.565,-181.164 383.565,-184.664 393.565,-188.164 393.565,-181.164"/>
</g>
<!-- Node9 -->
<g id="node9" class="node"><title>Node9</title>
<g id="a_node9"><a xlink:href="class_d_bo_w2_1_1_bow_vector.html" target="_top" xlink:title="Vector of words to represent images. ">
<polygon fill="white" stroke="black" points="500,-125.164 500,-144.164 605,-144.164 605,-125.164 500,-125.164"/>
<text text-anchor="middle" x="552.5" y="-132.164" font-family="Helvetica,sans-Serif" font-size="10.00">DBoW2::BowVector</text>
</a>
</g>
</g>
<!-- Node9&#45;&gt;Node5 -->
<g id="edge11" class="edge"><title>Node9&#45;&gt;Node5</title>
<path fill="none" stroke="#9a32cd" stroke-dasharray="5,2" d="M615.309,-144.712C653.893,-152.842 703.549,-166.799 743,-189.664 778.101,-210.008 809.81,-247.31 823.65,-264.942"/>
<polygon fill="#9a32cd" stroke="#9a32cd" points="615.742,-141.228 605.246,-142.669 614.35,-148.088 615.742,-141.228"/>
<text text-anchor="middle" x="699" y="-192.664" font-family="Helvetica,sans-Serif" font-size="10.00"> mBowVec</text>
</g>
<!-- Node9&#45;&gt;Node17 -->
<g id="edge36" class="edge"><title>Node9&#45;&gt;Node17</title>
<path fill="none" stroke="#9a32cd" stroke-dasharray="5,2" d="M615.157,-139.82C652.231,-143.014 700.347,-147.323 743,-151.664 868.359,-164.422 1015.32,-181.753 1092.81,-191.077"/>
<polygon fill="#9a32cd" stroke="#9a32cd" points="615.269,-136.317 605.006,-138.95 614.671,-143.291 615.269,-136.317"/>
<text text-anchor="middle" x="832" y="-171.664" font-family="Helvetica,sans-Serif" font-size="10.00"> mBowVec</text>
</g>
<!-- Node10 -->
<g id="node10" class="node"><title>Node10</title>
<polygon fill="white" stroke="#bfbfbf" points="240,-125.164 240,-144.164 398,-144.164 398,-125.164 240,-125.164"/>
<text text-anchor="middle" x="319" y="-132.164" font-family="Helvetica,sans-Serif" font-size="10.00">std::map&lt; WordId, WordValue &gt;</text>
</g>
<!-- Node10&#45;&gt;Node9 -->
<g id="edge12" class="edge"><title>Node10&#45;&gt;Node9</title>
<path fill="none" stroke="midnightblue" d="M408.425,-134.664C439.362,-134.664 473.061,-134.664 499.979,-134.664"/>
<polygon fill="midnightblue" stroke="midnightblue" points="408.053,-131.164 398.053,-134.664 408.053,-138.164 408.053,-131.164"/>
</g>
<!-- Node11 -->
<g id="node11" class="node"><title>Node11</title>
<g id="a_node11"><a xlink:href="structg2o_1_1_sim3.html" target="_top" xlink:title="g2o::Sim3">
<polygon fill="white" stroke="black" points="801.5,-458.164 801.5,-477.164 862.5,-477.164 862.5,-458.164 801.5,-458.164"/>
<text text-anchor="middle" x="832" y="-465.164" font-family="Helvetica,sans-Serif" font-size="10.00">g2o::Sim3</text>
</a>
</g>
</g>
<!-- Node11&#45;&gt;Node1 -->
<g id="edge13" class="edge"><title>Node11&#45;&gt;Node1</title>
<path fill="none" stroke="#9a32cd" stroke-dasharray="5,2" d="M872.705,-464.756C924.751,-460.943 1016.81,-454.2 1079.8,-449.586"/>
<polygon fill="#9a32cd" stroke="#9a32cd" points="872.258,-461.279 862.54,-465.5 872.769,-468.26 872.258,-461.279"/>
<text text-anchor="middle" x="991.5" y="-464.664" font-family="Helvetica,sans-Serif" font-size="10.00"> mg2oScw</text>
</g>
<!-- Node12&#45;&gt;Node1 -->
<g id="edge16" class="edge"><title>Node12&#45;&gt;Node1</title>
<path fill="none" stroke="#9a32cd" stroke-dasharray="5,2" d="M1373.73,-445.879C1371.12,-445.8 1368.54,-445.728 1366,-445.664 1315.91,-444.411 1259.29,-444.19 1216.46,-444.267"/>
<polygon fill="#9a32cd" stroke="#9a32cd" points="1373.77,-449.382 1383.88,-446.218 1374,-442.386 1373.77,-449.382"/>
<text text-anchor="middle" x="1300" y="-448.664" font-family="Helvetica,sans-Serif" font-size="10.00"> mpLocalMapper</text>
</g>
<!-- Node12&#45;&gt;Node13 -->
<g id="edge31" class="edge"><title>Node12&#45;&gt;Node13</title>
<path fill="none" stroke="#9a32cd" stroke-dasharray="5,2" d="M1489.97,-436.555C1506.17,-430.598 1525.92,-423.76 1544,-418.664 1575.81,-409.697 1612.03,-401.884 1640.86,-396.222"/>
<polygon fill="#9a32cd" stroke="#9a32cd" points="1488.53,-433.355 1480.39,-440.127 1490.98,-439.914 1488.53,-433.355"/>
<text text-anchor="middle" x="1580.5" y="-421.664" font-family="Helvetica,sans-Serif" font-size="10.00"> mpLocalMapper</text>
</g>
<!-- Node13&#45;&gt;Node1 -->
<g id="edge41" class="edge"><title>Node13&#45;&gt;Node1</title>
<path fill="none" stroke="#9a32cd" stroke-dasharray="5,2" d="M1680.97,-404.888C1667.48,-422.831 1644.26,-449.29 1617,-461.664 1461.91,-532.067 1401.88,-503.42 1234,-474.664 1211.33,-470.78 1186.66,-461.465 1169.77,-454.236"/>
<polygon fill="#9a32cd" stroke="#9a32cd" points="1684.08,-406.556 1687.1,-396.401 1678.41,-402.455 1684.08,-406.556"/>
<text text-anchor="middle" x="1455" y="-508.664" font-family="Helvetica,sans-Serif" font-size="10.00"> mpTracker</text>
</g>
<!-- Node13&#45;&gt;Node12 -->
<g id="edge20" class="edge"><title>Node13&#45;&gt;Node12</title>
<path fill="none" stroke="#9a32cd" stroke-dasharray="5,2" d="M1672.68,-402.184C1657.92,-412.339 1637.22,-424.93 1617,-431.664 1588.18,-441.263 1555.02,-445.967 1526.32,-448.197"/>
<polygon fill="#9a32cd" stroke="#9a32cd" points="1674.91,-404.891 1681.04,-396.25 1670.86,-399.181 1674.91,-404.891"/>
<text text-anchor="middle" x="1580.5" y="-449.664" font-family="Helvetica,sans-Serif" font-size="10.00"> mpTracker</text>
</g>
<!-- Node14&#45;&gt;Node13 -->
<g id="edge21" class="edge"><title>Node14&#45;&gt;Node13</title>
<path fill="none" stroke="#9a32cd" stroke-dasharray="5,2" d="M1072.45,-675.407C1232.02,-674.113 1578.07,-667.088 1617,-630.664 1688,-564.244 1693.51,-432.899 1693.62,-396.319"/>
<polygon fill="#9a32cd" stroke="#9a32cd" points="1072.19,-671.909 1062.22,-675.485 1072.25,-678.909 1072.19,-671.909"/>
<text text-anchor="middle" x="1300" y="-674.664" font-family="Helvetica,sans-Serif" font-size="10.00"> mpFrameDrawer</text>
</g>
<!-- Node15 -->
<g id="node15" class="node"><title>Node15</title>
<g id="a_node15"><a xlink:href="class_o_r_b___s_l_a_m2_1_1_initializer.html" target="_top" xlink:title="Inicializador de mapa en modo monocular. ">
<polygon fill="white" stroke="black" points="1394.5,-293.164 1394.5,-312.164 1515.5,-312.164 1515.5,-293.164 1394.5,-293.164"/>
<text text-anchor="middle" x="1455" y="-300.164" font-family="Helvetica,sans-Serif" font-size="10.00">ORB_SLAM2::Initializer</text>
</a>
</g>
</g>
<!-- Node15&#45;&gt;Node13 -->
<g id="edge26" class="edge"><title>Node15&#45;&gt;Node13</title>
<path fill="none" stroke="#9a32cd" stroke-dasharray="5,2" d="M1525.79,-298.408C1555.05,-299.097 1588.76,-303.242 1617,-315.664 1648.02,-329.306 1674.54,-360.902 1686.58,-376.944"/>
<polygon fill="#9a32cd" stroke="#9a32cd" points="1525.68,-294.906 1515.65,-298.3 1525.61,-301.906 1525.68,-294.906"/>
<text text-anchor="middle" x="1580.5" y="-318.664" font-family="Helvetica,sans-Serif" font-size="10.00"> mpInitializer</text>
</g>
<!-- Node16&#45;&gt;Node13 -->
<g id="edge27" class="edge"><title>Node16&#45;&gt;Node13</title>
<path fill="none" stroke="#9a32cd" stroke-dasharray="5,2" d="M1376.46,-638.08C1457.93,-638.067 1580.91,-633.088 1617,-604.664 1685.38,-550.811 1692.8,-431.618 1693.48,-396.551"/>
<polygon fill="#9a32cd" stroke="#9a32cd" points="1376.25,-634.579 1366.24,-638.056 1376.24,-641.579 1376.25,-634.579"/>
<text text-anchor="middle" x="1455" y="-640.664" font-family="Helvetica,sans-Serif" font-size="10.00"> mpMapDrawer</text>
</g>
<!-- Node17&#45;&gt;Node13 -->
<g id="edge32" class="edge"><title>Node17&#45;&gt;Node13</title>
<path fill="none" stroke="#9a32cd" stroke-dasharray="5,2" d="M1209.18,-186.57C1305.67,-172.353 1496.37,-159.375 1617,-250.664 1661.5,-284.339 1683.92,-351.881 1690.98,-376.98"/>
<polygon fill="#9a32cd" stroke="#9a32cd" points="1208.37,-183.153 1199.01,-188.124 1209.43,-190.073 1208.37,-183.153"/>
<text text-anchor="middle" x="1455" y="-217.664" font-family="Helvetica,sans-Serif" font-size="10.00"> mCurrentFrame</text>
<text text-anchor="middle" x="1455" y="-206.664" font-family="Helvetica,sans-Serif" font-size="10.00">mInitialFrame</text>
</g>
<!-- Node18 -->
<g id="node18" class="node"><title>Node18</title>
<g id="a_node18"><a xlink:href="class_o_r_b___s_l_a_m2_1_1_o_r_bextractor.html" target="_top" xlink:title="Empaqueta todos los métodos de detección de puntos singulares y extracción de descriptores. ">
<polygon fill="white" stroke="black" points="761,-80.1639 761,-99.1639 903,-99.1639 903,-80.1639 761,-80.1639"/>
<text text-anchor="middle" x="832" y="-87.1639" font-family="Helvetica,sans-Serif" font-size="10.00">ORB_SLAM2::ORBextractor</text>
</a>
</g>
</g>
<!-- Node18&#45;&gt;Node13 -->
<g id="edge40" class="edge"><title>Node18&#45;&gt;Node13</title>
<path fill="none" stroke="#9a32cd" stroke-dasharray="5,2" d="M913.591,-91.5137C1044.47,-96.2898 1310.3,-113.396 1526,-174.664 1567.24,-186.378 1585.73,-177.33 1617,-206.664 1669.5,-255.918 1687.51,-347.037 1692.15,-376.905"/>
<polygon fill="#9a32cd" stroke="#9a32cd" points="913.375,-88.0041 903.259,-91.1522 913.13,-94.9999 913.375,-88.0041"/>
<text text-anchor="middle" x="1300" y="-162.664" font-family="Helvetica,sans-Serif" font-size="10.00"> mpORBextractorRight</text>
<text text-anchor="middle" x="1300" y="-151.664" font-family="Helvetica,sans-Serif" font-size="10.00">mpORBextractorLeft</text>
<text text-anchor="middle" x="1300" y="-140.664" font-family="Helvetica,sans-Serif" font-size="10.00">mpIniORBextractor</text>
</g>
<!-- Node18&#45;&gt;Node17 -->
<g id="edge37" class="edge"><title>Node18&#45;&gt;Node17</title>
<path fill="none" stroke="#9a32cd" stroke-dasharray="5,2" d="M913.088,-98.926C973.592,-106.306 1048.47,-116.407 1062,-122.664 1095.76,-138.273 1126,-171.714 1139.52,-188.149"/>
<polygon fill="#9a32cd" stroke="#9a32cd" points="913.478,-95.4477 903.129,-97.7198 912.636,-102.397 913.478,-95.4477"/>
<text text-anchor="middle" x="991.5" y="-136.664" font-family="Helvetica,sans-Serif" font-size="10.00"> mpORBextractorRight</text>
<text text-anchor="middle" x="991.5" y="-125.664" font-family="Helvetica,sans-Serif" font-size="10.00">mpORBextractorLeft</text>
</g>
<!-- Node19 -->
<g id="node19" class="node"><title>Node19</title>
<g id="a_node19"><a xlink:href="class_o_r_b___s_l_a_m2_1_1_viewer.html" target="_top" xlink:title="ORB_SLAM2::Viewer">
<polygon fill="white" stroke="black" points="1399,-41.1639 1399,-60.1639 1511,-60.1639 1511,-41.1639 1399,-41.1639"/>
<text text-anchor="middle" x="1455" y="-48.1639" font-family="Helvetica,sans-Serif" font-size="10.00">ORB_SLAM2::Viewer</text>
</a>
</g>
</g>
<!-- Node19&#45;&gt;Node13 -->
<g id="edge38" class="edge"><title>Node19&#45;&gt;Node13</title>
<path fill="none" stroke="#9a32cd" stroke-dasharray="5,2" d="M1512.02,-39.9739C1546.21,-36.8015 1588.65,-39.3298 1617,-63.6639 1666.74,-106.363 1688.49,-328.256 1692.72,-377.133"/>
<polygon fill="#9a32cd" stroke="#9a32cd" points="1511.25,-36.538 1501.7,-41.1236 1512.02,-43.495 1511.25,-36.538"/>
<text text-anchor="middle" x="1580.5" y="-66.6639" font-family="Helvetica,sans-Serif" font-size="10.00"> mpViewer</text>
</g>
<!-- Node20 -->
<g id="node20" class="node"><title>Node20</title>
<g id="a_node20"><a xlink:href="class_o_r_b___s_l_a_m2_1_1_system.html" target="_top" xlink:title="System se instancia una única vez en main, en la variable SLAM. ">
<polygon fill="white" stroke="black" points="1397,-3.16395 1397,-22.1639 1513,-22.1639 1513,-3.16395 1397,-3.16395"/>
<text text-anchor="middle" x="1455" y="-10.1639" font-family="Helvetica,sans-Serif" font-size="10.00">ORB_SLAM2::System</text>
</a>
</g>
</g>
<!-- Node20&#45;&gt;Node13 -->
<g id="edge39" class="edge"><title>Node20&#45;&gt;Node13</title>
<path fill="none" stroke="#9a32cd" stroke-dasharray="5,2" d="M1508.27,-1.76432C1543.15,2.30163 1587.81,0.859763 1617,-24.6639 1672.37,-73.0763 1689.89,-324.543 1692.97,-377.049"/>
<polygon fill="#9a32cd" stroke="#9a32cd" points="1507.69,1.68981 1498.24,-3.11154 1508.62,-5.24777 1507.69,1.68981"/>
<text text-anchor="middle" x="1580.5" y="-27.6639" font-family="Helvetica,sans-Serif" font-size="10.00"> mpSystem</text>
</g>
</g>
</svg>
