<?xml version="1.0" encoding="UTF-8" standalone="no"?>
<!DOCTYPE svg PUBLIC "-//W3C//DTD SVG 1.1//EN"
 "http://www.w3.org/Graphics/SVG/1.1/DTD/svg11.dtd">
<!-- Generated by graphviz version 2.38.0 (20140413.2041)
 -->
<!-- Title: g2o::VertexSBAPointXYZ Pages: 1 -->
<svg width="1256pt" height="183pt"
 viewBox="0.00 0.00 1256.00 183.00" xmlns="http://www.w3.org/2000/svg" xmlns:xlink="http://www.w3.org/1999/xlink">
<g id="graph0" class="graph" transform="scale(1 1) rotate(0) translate(4 179)">
<title>g2o::VertexSBAPointXYZ</title>
<polygon fill="white" stroke="none" points="-4,4 -4,-179 1252,-179 1252,4 -4,4"/>
<!-- Node5 -->
<g id="node1" class="node"><title>Node5</title>
<polygon fill="#bfbfbf" stroke="black" points="1119,-26.5 1119,-45.5 1248,-45.5 1248,-26.5 1119,-26.5"/>
<text text-anchor="middle" x="1183.5" y="-33.5" font-family="Helvetica,sans-Serif" font-size="10.00">g2o::VertexSBAPointXYZ</text>
</g>
<!-- Node6 -->
<g id="node2" class="node"><title>Node6</title>
<g id="a_node2"><a xlink:href="classg2o_1_1_base_vertex.html" target="_top" xlink:title="g2o::BaseVertex\&lt; 3,\l Vector3d \&gt;">
<polygon fill="white" stroke="black" points="974,-21 974,-51 1081,-51 1081,-21 974,-21"/>
<text text-anchor="start" x="982" y="-39" font-family="Helvetica,sans-Serif" font-size="10.00">g2o::BaseVertex&lt; 3,</text>
<text text-anchor="middle" x="1027.5" y="-28" font-family="Helvetica,sans-Serif" font-size="10.00"> Vector3d &gt;</text>
</a>
</g>
</g>
<!-- Node6&#45;&gt;Node5 -->
<g id="edge1" class="edge"><title>Node6&#45;&gt;Node5</title>
<path fill="none" stroke="midnightblue" d="M1091.25,-36C1100.4,-36 1109.83,-36 1118.99,-36"/>
<polygon fill="midnightblue" stroke="midnightblue" points="1091.07,-32.5001 1081.07,-36 1091.07,-39.5001 1091.07,-32.5001"/>
</g>
<!-- Node7 -->
<g id="node3" class="node"><title>Node7</title>
<g id="a_node3"><a xlink:href="classg2o_1_1_optimizable_graph_1_1_vertex.html" target="_top" xlink:title="A general case Vertex for optimization. ">
<polygon fill="white" stroke="black" points="728.5,-54 728.5,-84 844.5,-84 844.5,-54 728.5,-54"/>
<text text-anchor="start" x="736.5" y="-72" font-family="Helvetica,sans-Serif" font-size="10.00">g2o::OptimizableGraph</text>
<text text-anchor="middle" x="786.5" y="-61" font-family="Helvetica,sans-Serif" font-size="10.00">::Vertex</text>
</a>
</g>
</g>
<!-- Node7&#45;&gt;Node6 -->
<g id="edge2" class="edge"><title>Node7&#45;&gt;Node6</title>
<path fill="none" stroke="midnightblue" d="M854.651,-54.0236C862.5,-52.5342 870.411,-51.1506 878,-50 909.62,-45.206 945.292,-41.7792 973.748,-39.5162"/>
<polygon fill="midnightblue" stroke="midnightblue" points="853.914,-50.6014 844.773,-55.9572 855.259,-57.471 853.914,-50.6014"/>
</g>
<!-- Node10 -->
<g id="node6" class="node"><title>Node10</title>
<g id="a_node6"><a xlink:href="classg2o_1_1_cache_container.html" target="_top" xlink:title="g2o::CacheContainer">
<polygon fill="white" stroke="black" points="973,-93.5 973,-112.5 1082,-112.5 1082,-93.5 973,-93.5"/>
<text text-anchor="middle" x="1027.5" y="-100.5" font-family="Helvetica,sans-Serif" font-size="10.00">g2o::CacheContainer</text>
</a>
</g>
</g>
<!-- Node7&#45;&gt;Node10 -->
<g id="edge7" class="edge"><title>Node7&#45;&gt;Node10</title>
<path fill="none" stroke="#9a32cd" stroke-dasharray="5,2" d="M855.042,-78.6084C892.39,-83.9216 938.148,-90.4311 972.996,-95.3886"/>
<polygon fill="#9a32cd" stroke="#9a32cd" points="855.14,-75.0872 844.746,-77.1438 854.154,-82.0175 855.14,-75.0872"/>
<text text-anchor="middle" x="916.5" y="-96" font-family="Helvetica,sans-Serif" font-size="10.00"> _vertex</text>
</g>
<!-- Node8 -->
<g id="node4" class="node"><title>Node8</title>
<g id="a_node4"><a xlink:href="classg2o_1_1_hyper_graph_1_1_vertex.html" target="_top" xlink:title="abstract Vertex, your types must derive from that one ">
<polygon fill="white" stroke="black" points="454,-155.5 454,-174.5 579,-174.5 579,-155.5 454,-155.5"/>
<text text-anchor="middle" x="516.5" y="-162.5" font-family="Helvetica,sans-Serif" font-size="10.00">g2o::HyperGraph::Vertex</text>
</a>
</g>
</g>
<!-- Node8&#45;&gt;Node7 -->
<g id="edge3" class="edge"><title>Node8&#45;&gt;Node7</title>
<path fill="none" stroke="midnightblue" d="M557.274,-152.312C564.519,-149.93 571.998,-147.426 579,-145 637.476,-124.739 704.637,-99.6867 746.074,-84.0204"/>
<polygon fill="midnightblue" stroke="midnightblue" points="556.029,-149.036 547.606,-155.463 558.199,-155.691 556.029,-149.036"/>
</g>
<!-- Node9 -->
<g id="node5" class="node"><title>Node9</title>
<g id="a_node5"><a xlink:href="structg2o_1_1_hyper_graph_1_1_hyper_graph_element.html" target="_top" xlink:title="base hyper graph element, specialized in vertex and edge ">
<polygon fill="white" stroke="black" points="175,-127 175,-157 324,-157 324,-127 175,-127"/>
<text text-anchor="start" x="183" y="-145" font-family="Helvetica,sans-Serif" font-size="10.00">g2o::HyperGraph::HyperGraph</text>
<text text-anchor="middle" x="249.5" y="-134" font-family="Helvetica,sans-Serif" font-size="10.00">Element</text>
</a>
</g>
</g>
<!-- Node9&#45;&gt;Node8 -->
<g id="edge4" class="edge"><title>Node9&#45;&gt;Node8</title>
<path fill="none" stroke="midnightblue" d="M334.518,-149.292C373.183,-152.648 418.237,-156.558 453.719,-159.638"/>
<polygon fill="midnightblue" stroke="midnightblue" points="334.582,-145.785 324.317,-148.407 333.977,-152.758 334.582,-145.785"/>
</g>
<!-- Node18 -->
<g id="node14" class="node"><title>Node18</title>
<g id="a_node14"><a xlink:href="classg2o_1_1_optimizable_graph_1_1_data.html" target="_top" xlink:title="data packet for a vertex. ">
<polygon fill="white" stroke="black" points="458.5,-77 458.5,-107 574.5,-107 574.5,-77 458.5,-77"/>
<text text-anchor="start" x="466.5" y="-95" font-family="Helvetica,sans-Serif" font-size="10.00">g2o::OptimizableGraph</text>
<text text-anchor="middle" x="516.5" y="-84" font-family="Helvetica,sans-Serif" font-size="10.00">::Data</text>
</a>
</g>
</g>
<!-- Node9&#45;&gt;Node18 -->
<g id="edge15" class="edge"><title>Node9&#45;&gt;Node18</title>
<path fill="none" stroke="midnightblue" d="M334.176,-126.212C374.657,-118.574 422.207,-109.603 458.455,-102.763"/>
<polygon fill="midnightblue" stroke="midnightblue" points="333.495,-122.779 324.317,-128.072 334.793,-129.657 333.495,-122.779"/>
</g>
<!-- Node10&#45;&gt;Node7 -->
<g id="edge5" class="edge"><title>Node10&#45;&gt;Node7</title>
<path fill="none" stroke="#9a32cd" stroke-dasharray="5,2" d="M1001.99,-88.5147C988.593,-81.4321 971.429,-73.6599 955,-70 918.952,-61.9696 877.447,-61.6607 844.771,-63.3886"/>
<polygon fill="#9a32cd" stroke="#9a32cd" points="1000.56,-91.724 1011.01,-93.4813 1003.93,-85.5921 1000.56,-91.724"/>
<text text-anchor="middle" x="916.5" y="-73" font-family="Helvetica,sans-Serif" font-size="10.00"> _cacheContainer</text>
</g>
<!-- Node11 -->
<g id="node7" class="node"><title>Node11</title>
<polygon fill="white" stroke="#bfbfbf" points="713,-114 713,-144 860,-144 860,-114 713,-114"/>
<text text-anchor="start" x="721" y="-132" font-family="Helvetica,sans-Serif" font-size="10.00">std::map&lt; Cache::CacheKey,</text>
<text text-anchor="middle" x="786.5" y="-121" font-family="Helvetica,sans-Serif" font-size="10.00"> Cache * &gt;</text>
</g>
<!-- Node11&#45;&gt;Node10 -->
<g id="edge6" class="edge"><title>Node11&#45;&gt;Node10</title>
<path fill="none" stroke="midnightblue" d="M870.385,-123.44C897.412,-121.262 927.529,-118.447 955,-115 960.745,-114.279 966.734,-113.43 972.693,-112.522"/>
<polygon fill="midnightblue" stroke="midnightblue" points="869.884,-119.969 860.19,-124.244 870.434,-126.947 869.884,-119.969"/>
</g>
<!-- Node12 -->
<g id="node8" class="node"><title>Node12</title>
<g id="a_node8"><a xlink:href="structg2o_1_1_optimizable_graph.html" target="_top" xlink:title="This is an abstract class that represents one optimization problem. ">
<polygon fill="white" stroke="black" points="458.5,-38.5 458.5,-57.5 574.5,-57.5 574.5,-38.5 458.5,-38.5"/>
<text text-anchor="middle" x="516.5" y="-45.5" font-family="Helvetica,sans-Serif" font-size="10.00">g2o::OptimizableGraph</text>
</a>
</g>
</g>
<!-- Node12&#45;&gt;Node7 -->
<g id="edge8" class="edge"><title>Node12&#45;&gt;Node7</title>
<path fill="none" stroke="#9a32cd" stroke-dasharray="5,2" d="M584.813,-49.4863C618.034,-50.6136 658.679,-52.581 695,-56 705.746,-57.0116 717.169,-58.403 728.15,-59.901"/>
<polygon fill="#9a32cd" stroke="#9a32cd" points="584.861,-45.9862 574.754,-49.1628 584.636,-52.9826 584.861,-45.9862"/>
<text text-anchor="middle" x="646" y="-59" font-family="Helvetica,sans-Serif" font-size="10.00"> _graph</text>
</g>
<!-- Node13 -->
<g id="node9" class="node"><title>Node13</title>
<g id="a_node9"><a xlink:href="classg2o_1_1_hyper_graph.html" target="_top" xlink:title="Class that models a directed Hyper&#45;Graph. ">
<polygon fill="white" stroke="black" points="204,-76.5 204,-95.5 295,-95.5 295,-76.5 204,-76.5"/>
<text text-anchor="middle" x="249.5" y="-83.5" font-family="Helvetica,sans-Serif" font-size="10.00">g2o::HyperGraph</text>
</a>
</g>
</g>
<!-- Node13&#45;&gt;Node12 -->
<g id="edge9" class="edge"><title>Node13&#45;&gt;Node12</title>
<path fill="none" stroke="midnightblue" d="M305.291,-80.1259C342.291,-75.9338 392.185,-69.8427 436,-63 446.269,-61.3962 457.244,-59.4662 467.659,-57.5327"/>
<polygon fill="midnightblue" stroke="midnightblue" points="304.761,-76.6634 295.214,-81.257 305.542,-83.6198 304.761,-76.6634"/>
</g>
<!-- Node14 -->
<g id="node10" class="node"><title>Node14</title>
<g id="a_node10"><a xlink:href="classg2o_1_1_jacobian_workspace.html" target="_top" xlink:title="provide memory workspace for computing the Jacobians ">
<polygon fill="white" stroke="black" points="186,-38.5 186,-57.5 313,-57.5 313,-38.5 186,-38.5"/>
<text text-anchor="middle" x="249.5" y="-45.5" font-family="Helvetica,sans-Serif" font-size="10.00">g2o::JacobianWorkspace</text>
</a>
</g>
</g>
<!-- Node14&#45;&gt;Node12 -->
<g id="edge10" class="edge"><title>Node14&#45;&gt;Node12</title>
<path fill="none" stroke="#9a32cd" stroke-dasharray="5,2" d="M323.306,-48C365.784,-48 418.61,-48 458.124,-48"/>
<polygon fill="#9a32cd" stroke="#9a32cd" points="323.301,-44.5001 313.301,-48 323.301,-51.5001 323.301,-44.5001"/>
<text text-anchor="middle" x="389" y="-51" font-family="Helvetica,sans-Serif" font-size="10.00"> _jacobianWorkspace</text>
</g>
<!-- Node15 -->
<g id="node11" class="node"><title>Node15</title>
<g id="a_node11"><a xlink:href="classg2o_1_1_parameter_container.html" target="_top" xlink:title="map id to parameters ">
<polygon fill="white" stroke="black" points="187,-0.5 187,-19.5 312,-19.5 312,-0.5 187,-0.5"/>
<text text-anchor="middle" x="249.5" y="-7.5" font-family="Helvetica,sans-Serif" font-size="10.00">g2o::ParameterContainer</text>
</a>
</g>
</g>
<!-- Node15&#45;&gt;Node12 -->
<g id="edge11" class="edge"><title>Node15&#45;&gt;Node12</title>
<path fill="none" stroke="#9a32cd" stroke-dasharray="5,2" d="M322.038,-17.8018C356.548,-21.8378 398.501,-27.1436 436,-33 446.269,-34.6038 457.244,-36.5338 467.659,-38.4673"/>
<polygon fill="#9a32cd" stroke="#9a32cd" points="322.383,-14.3185 312.047,-16.6444 321.578,-21.272 322.383,-14.3185"/>
<text text-anchor="middle" x="389" y="-36" font-family="Helvetica,sans-Serif" font-size="10.00"> _parameters</text>
</g>
<!-- Node16 -->
<g id="node12" class="node"><title>Node16</title>
<polygon fill="white" stroke="#bfbfbf" points="0,-0.5 0,-19.5 138,-19.5 138,-0.5 0,-0.5"/>
<text text-anchor="middle" x="69" y="-7.5" font-family="Helvetica,sans-Serif" font-size="10.00">std::map&lt; int, Parameter *&gt;</text>
</g>
<!-- Node16&#45;&gt;Node15 -->
<g id="edge12" class="edge"><title>Node16&#45;&gt;Node15</title>
<path fill="none" stroke="darkgreen" d="M148.443,-10C161.262,-10 174.383,-10 186.728,-10"/>
<polygon fill="darkgreen" stroke="darkgreen" points="148.247,-6.5001 138.247,-10 148.247,-13.5001 148.247,-6.5001"/>
</g>
<!-- Node17 -->
<g id="node13" class="node"><title>Node17</title>
<g id="a_node13"><a xlink:href="classg2o_1_1_open_m_p_mutex.html" target="_top" xlink:title="g2o::OpenMPMutex">
<polygon fill="white" stroke="black" points="464.5,-0.5 464.5,-19.5 568.5,-19.5 568.5,-0.5 464.5,-0.5"/>
<text text-anchor="middle" x="516.5" y="-7.5" font-family="Helvetica,sans-Serif" font-size="10.00">g2o::OpenMPMutex</text>
</a>
</g>
</g>
<!-- Node17&#45;&gt;Node7 -->
<g id="edge13" class="edge"><title>Node17&#45;&gt;Node7</title>
<path fill="none" stroke="#9a32cd" stroke-dasharray="5,2" d="M578.516,-15.252C613.057,-19.0543 656.85,-25.2729 695,-35 713.866,-39.8102 734.216,-47.2421 750.832,-53.9322"/>
<polygon fill="#9a32cd" stroke="#9a32cd" points="578.886,-11.7717 568.572,-14.1956 578.146,-18.7325 578.886,-11.7717"/>
<text text-anchor="middle" x="646" y="-38" font-family="Helvetica,sans-Serif" font-size="10.00"> _quadraticFormMutex</text>
</g>
<!-- Node18&#45;&gt;Node7 -->
<g id="edge14" class="edge"><title>Node18&#45;&gt;Node7</title>
<path fill="none" stroke="#9a32cd" stroke-dasharray="5,2" d="M584.76,-86.2277C629.039,-82.4277 686.373,-77.5072 728.424,-73.8983"/>
<polygon fill="#9a32cd" stroke="#9a32cd" points="584.328,-82.7518 574.664,-87.0941 584.927,-89.7262 584.328,-82.7518"/>
<text text-anchor="middle" x="646" y="-88" font-family="Helvetica,sans-Serif" font-size="10.00"> _userData</text>
</g>
<!-- Node18&#45;&gt;Node18 -->
<g id="edge16" class="edge"><title>Node18&#45;&gt;Node18</title>
<path fill="none" stroke="#9a32cd" stroke-dasharray="5,2" d="M494.111,-117.458C496.89,-122.179 504.353,-125.5 516.5,-125.5 536.434,-125.5 543.753,-116.557 538.458,-107.159"/>
<polygon fill="#9a32cd" stroke="#9a32cd" points="497.621,-117.297 494.542,-107.159 490.627,-117.004 497.621,-117.297"/>
<text text-anchor="middle" x="516.5" y="-128.5" font-family="Helvetica,sans-Serif" font-size="10.00"> _next</text>
</g>
</g>
</svg>
