<?xml version="1.0" encoding="UTF-8" standalone="no"?>
<!DOCTYPE svg PUBLIC "-//W3C//DTD SVG 1.1//EN"
 "http://www.w3.org/Graphics/SVG/1.1/DTD/svg11.dtd">
<!-- Generated by graphviz version 2.38.0 (20140413.2041)
 -->
<!-- Title: g2o::CacheContainer Pages: 1 -->
<svg width="837pt" height="249pt"
 viewBox="0.00 0.00 837.00 248.68" xmlns="http://www.w3.org/2000/svg" xmlns:xlink="http://www.w3.org/1999/xlink">
<g id="graph0" class="graph" transform="scale(1 1) rotate(0) translate(4 244.679)">
<title>g2o::CacheContainer</title>
<polygon fill="white" stroke="none" points="-4,4 -4,-244.679 833,-244.679 833,4 -4,4"/>
<!-- Node2 -->
<g id="node1" class="node"><title>Node2</title>
<polygon fill="#bfbfbf" stroke="black" points="462,-12.179 462,-31.179 571,-31.179 571,-12.179 462,-12.179"/>
<text text-anchor="middle" x="516.5" y="-19.179" font-family="Helvetica,sans-Serif" font-size="10.00">g2o::CacheContainer</text>
</g>
<!-- Node4 -->
<g id="node3" class="node"><title>Node4</title>
<g id="a_node3"><a xlink:href="classg2o_1_1_optimizable_graph_1_1_vertex.html" target="_top" xlink:title="A general case Vertex for optimization. ">
<polygon fill="white" stroke="black" points="713,-81.679 713,-111.679 829,-111.679 829,-81.679 713,-81.679"/>
<text text-anchor="start" x="721" y="-99.679" font-family="Helvetica,sans-Serif" font-size="10.00">g2o::OptimizableGraph</text>
<text text-anchor="middle" x="771" y="-88.679" font-family="Helvetica,sans-Serif" font-size="10.00">::Vertex</text>
</a>
</g>
</g>
<!-- Node2&#45;&gt;Node4 -->
<g id="edge5" class="edge"><title>Node2&#45;&gt;Node4</title>
<path fill="none" stroke="#9a32cd" stroke-dasharray="5,2" d="M574.09,-33.445C609.257,-41.3121 655.194,-52.5996 695,-65.679 708.787,-70.2091 723.621,-76.1122 736.427,-81.5501"/>
<polygon fill="#9a32cd" stroke="#9a32cd" points="574.526,-29.957 564.006,-31.2168 573.015,-36.7922 574.526,-29.957"/>
<text text-anchor="middle" x="646" y="-68.679" font-family="Helvetica,sans-Serif" font-size="10.00"> _cacheContainer</text>
</g>
<!-- Node3 -->
<g id="node2" class="node"><title>Node3</title>
<polygon fill="white" stroke="#bfbfbf" points="176,-6.67902 176,-36.679 323,-36.679 323,-6.67902 176,-6.67902"/>
<text text-anchor="start" x="184" y="-24.679" font-family="Helvetica,sans-Serif" font-size="10.00">std::map&lt; Cache::CacheKey,</text>
<text text-anchor="middle" x="249.5" y="-13.679" font-family="Helvetica,sans-Serif" font-size="10.00"> Cache * &gt;</text>
</g>
<!-- Node3&#45;&gt;Node2 -->
<g id="edge1" class="edge"><title>Node3&#45;&gt;Node2</title>
<path fill="none" stroke="midnightblue" d="M333.457,-21.679C375.354,-21.679 424.971,-21.679 461.815,-21.679"/>
<polygon fill="midnightblue" stroke="midnightblue" points="333.263,-18.1791 323.263,-21.679 333.263,-25.1791 333.263,-18.1791"/>
</g>
<!-- Node4&#45;&gt;Node2 -->
<g id="edge2" class="edge"><title>Node4&#45;&gt;Node2</title>
<path fill="none" stroke="#9a32cd" stroke-dasharray="5,2" d="M756.729,-72.9586C743.896,-52.6971 722.388,-24.9418 695,-12.679 646.984,8.81937 584.192,-2.31096 547.605,-12.1437"/>
<polygon fill="#9a32cd" stroke="#9a32cd" points="753.826,-74.9224 762.004,-81.658 759.812,-71.2926 753.826,-74.9224"/>
<text text-anchor="middle" x="646" y="-15.679" font-family="Helvetica,sans-Serif" font-size="10.00"> _vertex</text>
</g>
<!-- Node5 -->
<g id="node4" class="node"><title>Node5</title>
<g id="a_node4"><a xlink:href="classg2o_1_1_hyper_graph_1_1_vertex.html" target="_top" xlink:title="abstract Vertex, your types must derive from that one ">
<polygon fill="white" stroke="black" points="454,-221.179 454,-240.179 579,-240.179 579,-221.179 454,-221.179"/>
<text text-anchor="middle" x="516.5" y="-228.179" font-family="Helvetica,sans-Serif" font-size="10.00">g2o::HyperGraph::Vertex</text>
</a>
</g>
</g>
<!-- Node5&#45;&gt;Node4 -->
<g id="edge3" class="edge"><title>Node5&#45;&gt;Node4</title>
<path fill="none" stroke="midnightblue" d="M560.578,-218.059C566.798,-216.038 573.091,-213.883 579,-211.679 631.769,-192.001 647.294,-190.61 695,-160.679 717.62,-146.488 740.522,-125.826 754.963,-111.85"/>
<polygon fill="midnightblue" stroke="midnightblue" points="559.407,-214.759 550.929,-221.113 561.519,-221.433 559.407,-214.759"/>
</g>
<!-- Node6 -->
<g id="node5" class="node"><title>Node6</title>
<g id="a_node5"><a xlink:href="structg2o_1_1_hyper_graph_1_1_hyper_graph_element.html" target="_top" xlink:title="base hyper graph element, specialized in vertex and edge ">
<polygon fill="white" stroke="black" points="175,-194.679 175,-224.679 324,-224.679 324,-194.679 175,-194.679"/>
<text text-anchor="start" x="183" y="-212.679" font-family="Helvetica,sans-Serif" font-size="10.00">g2o::HyperGraph::HyperGraph</text>
<text text-anchor="middle" x="249.5" y="-201.679" font-family="Helvetica,sans-Serif" font-size="10.00">Element</text>
</a>
</g>
</g>
<!-- Node6&#45;&gt;Node5 -->
<g id="edge4" class="edge"><title>Node6&#45;&gt;Node5</title>
<path fill="none" stroke="midnightblue" d="M334.518,-216.337C373.183,-219.401 418.237,-222.971 453.719,-225.783"/>
<polygon fill="midnightblue" stroke="midnightblue" points="334.563,-212.83 324.317,-215.529 334.009,-219.808 334.563,-212.83"/>
</g>
<!-- Node13 -->
<g id="node12" class="node"><title>Node13</title>
<g id="a_node12"><a xlink:href="classg2o_1_1_optimizable_graph_1_1_data.html" target="_top" xlink:title="data packet for a vertex. ">
<polygon fill="white" stroke="black" points="458.5,-142.679 458.5,-172.679 574.5,-172.679 574.5,-142.679 458.5,-142.679"/>
<text text-anchor="start" x="466.5" y="-160.679" font-family="Helvetica,sans-Serif" font-size="10.00">g2o::OptimizableGraph</text>
<text text-anchor="middle" x="516.5" y="-149.679" font-family="Helvetica,sans-Serif" font-size="10.00">::Data</text>
</a>
</g>
</g>
<!-- Node6&#45;&gt;Node13 -->
<g id="edge13" class="edge"><title>Node6&#45;&gt;Node13</title>
<path fill="none" stroke="midnightblue" d="M334.176,-193.26C374.657,-185.316 422.207,-175.986 458.455,-168.873"/>
<polygon fill="midnightblue" stroke="midnightblue" points="333.456,-189.834 324.317,-195.194 334.804,-196.703 333.456,-189.834"/>
</g>
<!-- Node7 -->
<g id="node6" class="node"><title>Node7</title>
<g id="a_node6"><a xlink:href="structg2o_1_1_optimizable_graph.html" target="_top" xlink:title="This is an abstract class that represents one optimization problem. ">
<polygon fill="white" stroke="black" points="458.5,-104.179 458.5,-123.179 574.5,-123.179 574.5,-104.179 458.5,-104.179"/>
<text text-anchor="middle" x="516.5" y="-111.179" font-family="Helvetica,sans-Serif" font-size="10.00">g2o::OptimizableGraph</text>
</a>
</g>
</g>
<!-- Node7&#45;&gt;Node4 -->
<g id="edge6" class="edge"><title>Node7&#45;&gt;Node4</title>
<path fill="none" stroke="#9a32cd" stroke-dasharray="5,2" d="M584.982,-109.136C624.923,-106.447 674.964,-103.077 712.931,-100.521"/>
<polygon fill="#9a32cd" stroke="#9a32cd" points="584.538,-105.658 574.796,-109.821 585.009,-112.642 584.538,-105.658"/>
<text text-anchor="middle" x="646" y="-111.679" font-family="Helvetica,sans-Serif" font-size="10.00"> _graph</text>
</g>
<!-- Node8 -->
<g id="node7" class="node"><title>Node8</title>
<g id="a_node7"><a xlink:href="classg2o_1_1_hyper_graph.html" target="_top" xlink:title="Class that models a directed Hyper&#45;Graph. ">
<polygon fill="white" stroke="black" points="204,-142.179 204,-161.179 295,-161.179 295,-142.179 204,-142.179"/>
<text text-anchor="middle" x="249.5" y="-149.179" font-family="Helvetica,sans-Serif" font-size="10.00">g2o::HyperGraph</text>
</a>
</g>
</g>
<!-- Node8&#45;&gt;Node7 -->
<g id="edge7" class="edge"><title>Node8&#45;&gt;Node7</title>
<path fill="none" stroke="midnightblue" d="M305.291,-145.805C342.291,-141.613 392.185,-135.522 436,-128.679 446.269,-127.075 457.244,-125.145 467.659,-123.212"/>
<polygon fill="midnightblue" stroke="midnightblue" points="304.761,-142.342 295.214,-146.936 305.542,-149.299 304.761,-142.342"/>
</g>
<!-- Node9 -->
<g id="node8" class="node"><title>Node9</title>
<g id="a_node8"><a xlink:href="classg2o_1_1_jacobian_workspace.html" target="_top" xlink:title="provide memory workspace for computing the Jacobians ">
<polygon fill="white" stroke="black" points="186,-104.179 186,-123.179 313,-123.179 313,-104.179 186,-104.179"/>
<text text-anchor="middle" x="249.5" y="-111.179" font-family="Helvetica,sans-Serif" font-size="10.00">g2o::JacobianWorkspace</text>
</a>
</g>
</g>
<!-- Node9&#45;&gt;Node7 -->
<g id="edge8" class="edge"><title>Node9&#45;&gt;Node7</title>
<path fill="none" stroke="#9a32cd" stroke-dasharray="5,2" d="M323.306,-113.679C365.784,-113.679 418.61,-113.679 458.124,-113.679"/>
<polygon fill="#9a32cd" stroke="#9a32cd" points="323.301,-110.179 313.301,-113.679 323.301,-117.179 323.301,-110.179"/>
<text text-anchor="middle" x="389" y="-116.679" font-family="Helvetica,sans-Serif" font-size="10.00"> _jacobianWorkspace</text>
</g>
<!-- Node10 -->
<g id="node9" class="node"><title>Node10</title>
<g id="a_node9"><a xlink:href="classg2o_1_1_parameter_container.html" target="_top" xlink:title="map id to parameters ">
<polygon fill="white" stroke="black" points="187,-66.179 187,-85.179 312,-85.179 312,-66.179 187,-66.179"/>
<text text-anchor="middle" x="249.5" y="-73.179" font-family="Helvetica,sans-Serif" font-size="10.00">g2o::ParameterContainer</text>
</a>
</g>
</g>
<!-- Node10&#45;&gt;Node7 -->
<g id="edge9" class="edge"><title>Node10&#45;&gt;Node7</title>
<path fill="none" stroke="#9a32cd" stroke-dasharray="5,2" d="M322.038,-83.4808C356.548,-87.5168 398.501,-92.8226 436,-98.679 446.269,-100.283 457.244,-102.213 467.659,-104.146"/>
<polygon fill="#9a32cd" stroke="#9a32cd" points="322.383,-79.9975 312.047,-82.3234 321.578,-86.951 322.383,-79.9975"/>
<text text-anchor="middle" x="389" y="-101.679" font-family="Helvetica,sans-Serif" font-size="10.00"> _parameters</text>
</g>
<!-- Node11 -->
<g id="node10" class="node"><title>Node11</title>
<polygon fill="white" stroke="#bfbfbf" points="0,-66.179 0,-85.179 138,-85.179 138,-66.179 0,-66.179"/>
<text text-anchor="middle" x="69" y="-73.179" font-family="Helvetica,sans-Serif" font-size="10.00">std::map&lt; int, Parameter *&gt;</text>
</g>
<!-- Node11&#45;&gt;Node10 -->
<g id="edge10" class="edge"><title>Node11&#45;&gt;Node10</title>
<path fill="none" stroke="darkgreen" d="M148.443,-75.679C161.262,-75.679 174.383,-75.679 186.728,-75.679"/>
<polygon fill="darkgreen" stroke="darkgreen" points="148.247,-72.1791 138.247,-75.679 148.247,-79.1791 148.247,-72.1791"/>
</g>
<!-- Node12 -->
<g id="node11" class="node"><title>Node12</title>
<g id="a_node11"><a xlink:href="classg2o_1_1_open_m_p_mutex.html" target="_top" xlink:title="g2o::OpenMPMutex">
<polygon fill="white" stroke="black" points="464.5,-66.179 464.5,-85.179 568.5,-85.179 568.5,-66.179 464.5,-66.179"/>
<text text-anchor="middle" x="516.5" y="-73.179" font-family="Helvetica,sans-Serif" font-size="10.00">g2o::OpenMPMutex</text>
</a>
</g>
</g>
<!-- Node12&#45;&gt;Node4 -->
<g id="edge11" class="edge"><title>Node12&#45;&gt;Node4</title>
<path fill="none" stroke="#9a32cd" stroke-dasharray="5,2" d="M579.122,-79.0562C613.297,-81.1273 656.541,-84.0739 695,-87.679 700.745,-88.2176 706.731,-88.8368 712.705,-89.4932"/>
<polygon fill="#9a32cd" stroke="#9a32cd" points="579.013,-75.5436 568.822,-78.4418 578.596,-82.5311 579.013,-75.5436"/>
<text text-anchor="middle" x="646" y="-90.679" font-family="Helvetica,sans-Serif" font-size="10.00"> _quadraticFormMutex</text>
</g>
<!-- Node13&#45;&gt;Node4 -->
<g id="edge12" class="edge"><title>Node13&#45;&gt;Node4</title>
<path fill="none" stroke="#9a32cd" stroke-dasharray="5,2" d="M584.893,-147.324C618.296,-141.547 659.074,-133.521 695,-123.679 707.146,-120.351 720.134,-115.978 731.83,-111.722"/>
<polygon fill="#9a32cd" stroke="#9a32cd" points="584.048,-143.918 574.776,-149.045 585.222,-150.819 584.048,-143.918"/>
<text text-anchor="middle" x="646" y="-148.679" font-family="Helvetica,sans-Serif" font-size="10.00"> _userData</text>
</g>
<!-- Node13&#45;&gt;Node13 -->
<g id="edge14" class="edge"><title>Node13&#45;&gt;Node13</title>
<path fill="none" stroke="#9a32cd" stroke-dasharray="5,2" d="M494.111,-183.137C496.89,-187.858 504.353,-191.179 516.5,-191.179 536.434,-191.179 543.753,-182.236 538.458,-172.838"/>
<polygon fill="#9a32cd" stroke="#9a32cd" points="497.621,-182.976 494.542,-172.838 490.627,-182.683 497.621,-182.976"/>
<text text-anchor="middle" x="516.5" y="-194.179" font-family="Helvetica,sans-Serif" font-size="10.00"> _next</text>
</g>
</g>
</svg>
