<?xml version="1.0" encoding="UTF-8" standalone="no"?>
<!DOCTYPE svg PUBLIC "-//W3C//DTD SVG 1.1//EN"
 "http://www.w3.org/Graphics/SVG/1.1/DTD/svg11.dtd">
<!-- Generated by graphviz version 2.38.0 (20140413.2041)
 -->
<!-- Title: g2o::Solver Pages: 1 -->
<svg width="423pt" height="287pt"
 viewBox="0.00 0.00 423.00 287.00" xmlns="http://www.w3.org/2000/svg" xmlns:xlink="http://www.w3.org/1999/xlink">
<g id="graph0" class="graph" transform="scale(1 1) rotate(0) translate(4 283)">
<title>g2o::Solver</title>
<polygon fill="white" stroke="none" points="-4,4 -4,-283 419,-283 419,4 -4,4"/>
<!-- Node3 -->
<g id="node1" class="node"><title>Node3</title>
<polygon fill="#bfbfbf" stroke="black" points="241,-0.5 241,-19.5 307,-19.5 307,-0.5 241,-0.5"/>
<text text-anchor="middle" x="274" y="-7.5" font-family="Helvetica,sans-Serif" font-size="10.00">g2o::Solver</text>
</g>
<!-- Node4 -->
<g id="node2" class="node"><title>Node4</title>
<g id="a_node2"><a xlink:href="classg2o_1_1_sparse_optimizer.html" target="_top" xlink:title="g2o::SparseOptimizer">
<polygon fill="white" stroke="black" points="146.5,-67.5 146.5,-86.5 257.5,-86.5 257.5,-67.5 146.5,-67.5"/>
<text text-anchor="middle" x="202" y="-74.5" font-family="Helvetica,sans-Serif" font-size="10.00">g2o::SparseOptimizer</text>
</a>
</g>
</g>
<!-- Node4&#45;&gt;Node3 -->
<g id="edge1" class="edge"><title>Node4&#45;&gt;Node3</title>
<path fill="none" stroke="#9a32cd" stroke-dasharray="5,2" d="M233.156,-62.6192C239.854,-58.842 246.55,-54.2911 252,-49 260.642,-40.6105 266.997,-28.1018 270.596,-19.7543"/>
<polygon fill="#9a32cd" stroke="#9a32cd" points="231.41,-59.5822 224.138,-67.2873 234.627,-65.7988 231.41,-59.5822"/>
<text text-anchor="middle" x="284.5" y="-41" font-family="Helvetica,sans-Serif" font-size="10.00"> _optimizer</text>
</g>
<!-- Node10 -->
<g id="node8" class="node"><title>Node10</title>
<g id="a_node8"><a xlink:href="classg2o_1_1_optimization_algorithm.html" target="_top" xlink:title="Generic interface for a non&#45;linear solver operating on a graph. ">
<polygon fill="white" stroke="black" points="63,-0.5 63,-19.5 197,-19.5 197,-0.5 63,-0.5"/>
<text text-anchor="middle" x="130" y="-7.5" font-family="Helvetica,sans-Serif" font-size="10.00">g2o::OptimizationAlgorithm</text>
</a>
</g>
</g>
<!-- Node4&#45;&gt;Node10 -->
<g id="edge10" class="edge"><title>Node4&#45;&gt;Node10</title>
<path fill="none" stroke="#9a32cd" stroke-dasharray="5,2" d="M142.573,-62.9093C136.49,-59.3307 131.063,-54.7814 127,-49 120.988,-40.4454 123.54,-27.9754 126.374,-19.6817"/>
<polygon fill="#9a32cd" stroke="#9a32cd" points="141.358,-66.2119 151.875,-67.4884 144.449,-59.9316 141.358,-66.2119"/>
<text text-anchor="middle" x="151.5" y="-41" font-family="Helvetica,sans-Serif" font-size="10.00"> _optimizer</text>
</g>
<!-- Node5 -->
<g id="node3" class="node"><title>Node5</title>
<g id="a_node3"><a xlink:href="structg2o_1_1_optimizable_graph.html" target="_top" xlink:title="This is an abstract class that represents one optimization problem. ">
<polygon fill="white" stroke="black" points="144,-130 144,-149 260,-149 260,-130 144,-130"/>
<text text-anchor="middle" x="202" y="-137" font-family="Helvetica,sans-Serif" font-size="10.00">g2o::OptimizableGraph</text>
</a>
</g>
</g>
<!-- Node5&#45;&gt;Node4 -->
<g id="edge2" class="edge"><title>Node5&#45;&gt;Node4</title>
<path fill="none" stroke="midnightblue" d="M202,-119.503C202,-108.5 202,-95.182 202,-86.6521"/>
<polygon fill="midnightblue" stroke="midnightblue" points="198.5,-119.832 202,-129.832 205.5,-119.832 198.5,-119.832"/>
</g>
<!-- Node6 -->
<g id="node4" class="node"><title>Node6</title>
<g id="a_node4"><a xlink:href="classg2o_1_1_hyper_graph.html" target="_top" xlink:title="Class that models a directed Hyper&#45;Graph. ">
<polygon fill="white" stroke="black" points="29.5,-202.5 29.5,-221.5 120.5,-221.5 120.5,-202.5 29.5,-202.5"/>
<text text-anchor="middle" x="75" y="-209.5" font-family="Helvetica,sans-Serif" font-size="10.00">g2o::HyperGraph</text>
</a>
</g>
</g>
<!-- Node6&#45;&gt;Node5 -->
<g id="edge3" class="edge"><title>Node6&#45;&gt;Node5</title>
<path fill="none" stroke="midnightblue" d="M99.3202,-197.499C124.938,-183.278 164.522,-161.305 186.3,-149.215"/>
<polygon fill="midnightblue" stroke="midnightblue" points="97.6172,-194.442 90.5727,-202.355 101.015,-200.562 97.6172,-194.442"/>
</g>
<!-- Node7 -->
<g id="node5" class="node"><title>Node7</title>
<g id="a_node5"><a xlink:href="classg2o_1_1_jacobian_workspace.html" target="_top" xlink:title="provide memory workspace for computing the Jacobians ">
<polygon fill="white" stroke="black" points="138.5,-202.5 138.5,-221.5 265.5,-221.5 265.5,-202.5 138.5,-202.5"/>
<text text-anchor="middle" x="202" y="-209.5" font-family="Helvetica,sans-Serif" font-size="10.00">g2o::JacobianWorkspace</text>
</a>
</g>
</g>
<!-- Node7&#45;&gt;Node5 -->
<g id="edge4" class="edge"><title>Node7&#45;&gt;Node5</title>
<path fill="none" stroke="#9a32cd" stroke-dasharray="5,2" d="M202,-191.942C202,-178.03 202,-159.82 202,-149.215"/>
<polygon fill="#9a32cd" stroke="#9a32cd" points="198.5,-192.355 202,-202.355 205.5,-192.355 198.5,-192.355"/>
<text text-anchor="middle" x="249" y="-176" font-family="Helvetica,sans-Serif" font-size="10.00"> _jacobianWorkspace</text>
</g>
<!-- Node8 -->
<g id="node6" class="node"><title>Node8</title>
<g id="a_node6"><a xlink:href="classg2o_1_1_parameter_container.html" target="_top" xlink:title="map id to parameters ">
<polygon fill="white" stroke="black" points="283.5,-202.5 283.5,-221.5 408.5,-221.5 408.5,-202.5 283.5,-202.5"/>
<text text-anchor="middle" x="346" y="-209.5" font-family="Helvetica,sans-Serif" font-size="10.00">g2o::ParameterContainer</text>
</a>
</g>
</g>
<!-- Node8&#45;&gt;Node5 -->
<g id="edge5" class="edge"><title>Node8&#45;&gt;Node5</title>
<path fill="none" stroke="#9a32cd" stroke-dasharray="5,2" d="M330.056,-195.316C321.664,-187.743 310.877,-179.018 300,-173 280.708,-162.327 257.331,-154.407 238.248,-149.059"/>
<polygon fill="#9a32cd" stroke="#9a32cd" points="327.876,-198.071 337.563,-202.361 332.666,-192.966 327.876,-198.071"/>
<text text-anchor="middle" x="345" y="-176" font-family="Helvetica,sans-Serif" font-size="10.00"> _parameters</text>
</g>
<!-- Node9 -->
<g id="node7" class="node"><title>Node9</title>
<polygon fill="white" stroke="#bfbfbf" points="277,-259.5 277,-278.5 415,-278.5 415,-259.5 277,-259.5"/>
<text text-anchor="middle" x="346" y="-266.5" font-family="Helvetica,sans-Serif" font-size="10.00">std::map&lt; int, Parameter *&gt;</text>
</g>
<!-- Node9&#45;&gt;Node8 -->
<g id="edge6" class="edge"><title>Node9&#45;&gt;Node8</title>
<path fill="none" stroke="darkgreen" d="M346,-249.117C346,-239.817 346,-229.056 346,-221.715"/>
<polygon fill="darkgreen" stroke="darkgreen" points="342.5,-249.406 346,-259.406 349.5,-249.406 342.5,-249.406"/>
</g>
<!-- Node10&#45;&gt;Node4 -->
<g id="edge7" class="edge"><title>Node10&#45;&gt;Node4</title>
<path fill="none" stroke="#9a32cd" stroke-dasharray="5,2" d="M161.156,-24.3808C167.854,-28.158 174.55,-32.7089 180,-38 188.642,-46.3895 194.997,-58.8982 198.596,-67.2457"/>
<polygon fill="#9a32cd" stroke="#9a32cd" points="162.627,-21.2012 152.138,-19.7127 159.41,-27.4178 162.627,-21.2012"/>
<text text-anchor="middle" x="213.5" y="-41" font-family="Helvetica,sans-Serif" font-size="10.00"> _algorithm</text>
</g>
<!-- Node11 -->
<g id="node9" class="node"><title>Node11</title>
<g id="a_node9"><a xlink:href="classg2o_1_1_property_map.html" target="_top" xlink:title="a collection of properties mapping from name to the property itself ">
<polygon fill="white" stroke="black" points="8,-67.5 8,-86.5 102,-86.5 102,-67.5 8,-67.5"/>
<text text-anchor="middle" x="55" y="-74.5" font-family="Helvetica,sans-Serif" font-size="10.00">g2o::PropertyMap</text>
</a>
</g>
</g>
<!-- Node11&#45;&gt;Node10 -->
<g id="edge8" class="edge"><title>Node11&#45;&gt;Node10</title>
<path fill="none" stroke="#9a32cd" stroke-dasharray="5,2" d="M58.0532,-57.552C59.9585,-50.7423 63.0372,-43.3825 68,-38 75.7195,-29.6276 86.4905,-23.7236 96.8921,-19.6193"/>
<polygon fill="#9a32cd" stroke="#9a32cd" points="54.6083,-56.9238 55.9229,-67.4367 61.4512,-58.3986 54.6083,-56.9238"/>
<text text-anchor="middle" x="94" y="-41" font-family="Helvetica,sans-Serif" font-size="10.00"> _properties</text>
</g>
<!-- Node12 -->
<g id="node10" class="node"><title>Node12</title>
<polygon fill="white" stroke="#bfbfbf" points="0,-124.5 0,-154.5 110,-154.5 110,-124.5 0,-124.5"/>
<text text-anchor="start" x="8" y="-142.5" font-family="Helvetica,sans-Serif" font-size="10.00">std::map&lt; std::string,</text>
<text text-anchor="middle" x="55" y="-131.5" font-family="Helvetica,sans-Serif" font-size="10.00"> BaseProperty *&gt;</text>
</g>
<!-- Node12&#45;&gt;Node11 -->
<g id="edge9" class="edge"><title>Node12&#45;&gt;Node11</title>
<path fill="none" stroke="darkgreen" d="M55,-114.352C55,-104.513 55,-93.7753 55,-86.5399"/>
<polygon fill="darkgreen" stroke="darkgreen" points="51.5001,-114.468 55,-124.468 58.5001,-114.468 51.5001,-114.468"/>
</g>
</g>
</svg>
