<?xml version="1.0" encoding="UTF-8" standalone="no"?>
<!DOCTYPE svg PUBLIC "-//W3C//DTD SVG 1.1//EN"
 "http://www.w3.org/Graphics/SVG/1.1/DTD/svg11.dtd">
<!-- Generated by graphviz version 2.38.0 (20140413.2041)
 -->
<!-- Title: ORB_SLAM2::Tracking Pages: 1 -->
<svg width="2332pt" height="888pt"
 viewBox="0.00 0.00 2332.00 888.00" xmlns="http://www.w3.org/2000/svg" xmlns:xlink="http://www.w3.org/1999/xlink">
<g id="graph0" class="graph" transform="scale(1 1) rotate(0) translate(4 884)">
<title>ORB_SLAM2::Tracking</title>
<polygon fill="white" stroke="none" points="-4,4 -4,-884 2328,-884 2328,4 -4,4"/>
<!-- Node1 -->
<g id="node1" class="node"><title>Node1</title>
<polygon fill="#bfbfbf" stroke="black" points="1284,-490.5 1284,-509.5 1403,-509.5 1403,-490.5 1284,-490.5"/>
<text text-anchor="middle" x="1343.5" y="-497.5" font-family="Helvetica,sans-Serif" font-size="10.00">ORB_SLAM2::Tracking</text>
</g>
<!-- Node13 -->
<g id="node13" class="node"><title>Node13</title>
<g id="a_node13"><a xlink:href="class_o_r_b___s_l_a_m2_1_1_loop_closing.html" target="_top" xlink:title="Cierre de bucles. ">
<polygon fill="white" stroke="black" points="1510,-286.5 1510,-305.5 1646,-305.5 1646,-286.5 1510,-286.5"/>
<text text-anchor="middle" x="1578" y="-293.5" font-family="Helvetica,sans-Serif" font-size="10.00">ORB_SLAM2::LoopClosing</text>
</a>
</g>
</g>
<!-- Node1&#45;&gt;Node13 -->
<g id="edge31" class="edge"><title>Node1&#45;&gt;Node13</title>
<path fill="none" stroke="#9a32cd" stroke-dasharray="5,2" d="M1354.43,-481.363C1367.08,-459.338 1390.94,-423.035 1421,-402 1448.18,-382.981 1463.61,-396.15 1492,-379 1525.54,-358.738 1556.12,-322.833 1569.65,-305.666"/>
<polygon fill="#9a32cd" stroke="#9a32cd" points="1351.22,-479.929 1349.43,-490.371 1357.34,-483.328 1351.22,-479.929"/>
<text text-anchor="middle" x="1456.5" y="-405" font-family="Helvetica,sans-Serif" font-size="10.00"> mpTracker</text>
</g>
<!-- Node15 -->
<g id="node15" class="node"><title>Node15</title>
<g id="a_node15"><a xlink:href="class_o_r_b___s_l_a_m2_1_1_local_mapping.html" target="_top" xlink:title="LocalMapping tiene una única instancia ejecutando el método Run en su propio thread. ">
<polygon fill="white" stroke="black" points="1758,-381.5 1758,-400.5 1900,-400.5 1900,-381.5 1758,-381.5"/>
<text text-anchor="middle" x="1829" y="-388.5" font-family="Helvetica,sans-Serif" font-size="10.00">ORB_SLAM2::LocalMapping</text>
</a>
</g>
</g>
<!-- Node1&#45;&gt;Node15 -->
<g id="edge30" class="edge"><title>Node1&#45;&gt;Node15</title>
<path fill="none" stroke="#9a32cd" stroke-dasharray="5,2" d="M1363.42,-483.691C1378.17,-471.802 1399.68,-456.22 1421,-447 1531.8,-399.09 1673.99,-390.053 1757.64,-389.429"/>
<polygon fill="#9a32cd" stroke="#9a32cd" points="1361.04,-481.117 1355.57,-490.188 1365.5,-486.511 1361.04,-481.117"/>
<text text-anchor="middle" x="1578" y="-420" font-family="Helvetica,sans-Serif" font-size="10.00"> mpTracker</text>
</g>
<!-- Node20 -->
<g id="node20" class="node"><title>Node20</title>
<g id="a_node20"><a xlink:href="class_o_r_b___s_l_a_m2_1_1_viewer.html" target="_top" xlink:title="Viewer representa la interfaz de usuario. ">
<polygon fill="white" stroke="black" points="2212,-621.5 2212,-640.5 2324,-640.5 2324,-621.5 2212,-621.5"/>
<text text-anchor="middle" x="2268" y="-628.5" font-family="Helvetica,sans-Serif" font-size="10.00">ORB_SLAM2::Viewer</text>
</a>
</g>
</g>
<!-- Node1&#45;&gt;Node20 -->
<g id="edge47" class="edge"><title>Node1&#45;&gt;Node20</title>
<path fill="none" stroke="#9a32cd" stroke-dasharray="5,2" d="M1358.01,-517.742C1371.96,-534.866 1395.29,-560.298 1421,-575 1456.56,-595.337 1469.51,-592.763 1510,-599 1770.34,-639.099 2086.58,-636.045 2211.97,-632.813"/>
<polygon fill="#9a32cd" stroke="#9a32cd" points="1360.55,-515.314 1351.6,-509.646 1355.06,-519.659 1360.55,-515.314"/>
<text text-anchor="middle" x="1829" y="-635" font-family="Helvetica,sans-Serif" font-size="10.00"> mpTracker</text>
</g>
<!-- Node21 -->
<g id="node21" class="node"><title>Node21</title>
<g id="a_node21"><a xlink:href="class_o_r_b___s_l_a_m2_1_1_system.html" target="_top" xlink:title="System se instancia una única vez en main, en la variable SLAM. ">
<polygon fill="white" stroke="black" points="2009,-381.5 2009,-400.5 2125,-400.5 2125,-381.5 2009,-381.5"/>
<text text-anchor="middle" x="2067" y="-388.5" font-family="Helvetica,sans-Serif" font-size="10.00">ORB_SLAM2::System</text>
</a>
</g>
</g>
<!-- Node1&#45;&gt;Node21 -->
<g id="edge56" class="edge"><title>Node1&#45;&gt;Node21</title>
<path fill="none" stroke="#9a32cd" stroke-dasharray="5,2" d="M1399.11,-511.205C1406.44,-512.353 1413.88,-513.339 1421,-514 1547.12,-525.707 1880.68,-576.234 1991,-514 2035.66,-488.809 2056.89,-425.089 2063.57,-400.701"/>
<polygon fill="#9a32cd" stroke="#9a32cd" points="1399.66,-507.748 1389.22,-509.553 1398.5,-514.653 1399.66,-507.748"/>
<text text-anchor="middle" x="1702" y="-547" font-family="Helvetica,sans-Serif" font-size="10.00"> mpTracker</text>
</g>
<!-- Node2 -->
<g id="node2" class="node"><title>Node2</title>
<g id="a_node2"><a xlink:href="class_o_r_b___s_l_a_m2_1_1_frame_drawer.html" target="_top" xlink:title="Clase de instancia única que se ocupa de mostrar la imagen de la cámara, con marcas verdes sobre los ...">
<polygon fill="white" stroke="black" points="1031,-396.5 1031,-415.5 1172,-415.5 1172,-396.5 1031,-396.5"/>
<text text-anchor="middle" x="1101.5" y="-403.5" font-family="Helvetica,sans-Serif" font-size="10.00">ORB_SLAM2::FrameDrawer</text>
</a>
</g>
</g>
<!-- Node2&#45;&gt;Node1 -->
<g id="edge1" class="edge"><title>Node2&#45;&gt;Node1</title>
<path fill="none" stroke="#9a32cd" stroke-dasharray="5,2" d="M1147.33,-418.233C1155.53,-420.48 1164.03,-422.807 1172,-425 1213.79,-436.493 1226.42,-433.334 1266,-451 1290.2,-461.799 1315.58,-479.527 1330.17,-490.439"/>
<polygon fill="#9a32cd" stroke="#9a32cd" points="1148.07,-414.81 1137.51,-415.548 1146.23,-421.562 1148.07,-414.81"/>
<text text-anchor="middle" x="1228" y="-454" font-family="Helvetica,sans-Serif" font-size="10.00"> mpFrameDrawer</text>
</g>
<!-- Node2&#45;&gt;Node20 -->
<g id="edge45" class="edge"><title>Node2&#45;&gt;Node20</title>
<path fill="none" stroke="#9a32cd" stroke-dasharray="5,2" d="M1167.49,-420.986C1169.08,-422.223 1170.59,-423.558 1172,-425 1195.07,-448.578 1178.14,-466.221 1190,-497 1221.88,-579.75 1207.94,-627.397 1284,-673 1318.42,-693.637 1279.49,-767.744 2194,-648 2206.64,-646.344 2220.31,-643.465 2232.35,-640.542"/>
<polygon fill="#9a32cd" stroke="#9a32cd" points="1169.29,-417.979 1158.96,-415.587 1165.54,-423.893 1169.29,-417.979"/>
<text text-anchor="middle" x="1702" y="-709" font-family="Helvetica,sans-Serif" font-size="10.00"> mpFrameDrawer</text>
</g>
<!-- Node2&#45;&gt;Node21 -->
<g id="edge49" class="edge"><title>Node2&#45;&gt;Node21</title>
<path fill="none" stroke="#9a32cd" stroke-dasharray="5,2" d="M1181.94,-394.043C1212.6,-385.415 1245.22,-370.562 1266,-345 1299.46,-303.834 1245.73,-263.735 1284,-227 1339.33,-173.897 1378.81,-208 1455.5,-208 1455.5,-208 1455.5,-208 1830,-208 1944.32,-208 2036.79,-343.765 2060.24,-381.419"/>
<polygon fill="#9a32cd" stroke="#9a32cd" points="1180.86,-390.709 1172.07,-396.632 1182.63,-397.48 1180.86,-390.709"/>
<text text-anchor="middle" x="1578" y="-211" font-family="Helvetica,sans-Serif" font-size="10.00"> mpFrameDrawer</text>
</g>
<!-- Node3 -->
<g id="node3" class="node"><title>Node3</title>
<g id="a_node3"><a xlink:href="class_o_r_b___s_l_a_m2_1_1_map.html" target="_top" xlink:title="Mapa del mundo, de puntos y keyframes. ">
<polygon fill="white" stroke="black" points="502,-444.5 502,-463.5 603,-463.5 603,-444.5 502,-444.5"/>
<text text-anchor="middle" x="552.5" y="-451.5" font-family="Helvetica,sans-Serif" font-size="10.00">ORB_SLAM2::Map</text>
</a>
</g>
</g>
<!-- Node3&#45;&gt;Node1 -->
<g id="edge35" class="edge"><title>Node3&#45;&gt;Node1</title>
<path fill="none" stroke="#9a32cd" stroke-dasharray="5,2" d="M601.341,-466.027C624.879,-471.9 649.404,-477.934 655,-479 820.665,-510.544 862.742,-518.641 1031,-530 1093.52,-534.221 1109.57,-535.45 1172,-530 1216.16,-526.144 1266.04,-516.772 1300.38,-509.521"/>
<polygon fill="#9a32cd" stroke="#9a32cd" points="601.922,-462.565 591.371,-463.535 600.224,-469.356 601.922,-462.565"/>
<text text-anchor="middle" x="966" y="-532" font-family="Helvetica,sans-Serif" font-size="10.00"> mpMap</text>
</g>
<!-- Node3&#45;&gt;Node2 -->
<g id="edge2" class="edge"><title>Node3&#45;&gt;Node2</title>
<path fill="none" stroke="#9a32cd" stroke-dasharray="5,2" d="M613.317,-445.445C654.259,-439.833 709.827,-432.69 759,-428 852.889,-419.045 961.656,-412.736 1030.74,-409.235"/>
<polygon fill="#9a32cd" stroke="#9a32cd" points="612.663,-442.002 603.235,-446.837 613.62,-448.937 612.663,-442.002"/>
<text text-anchor="middle" x="830" y="-431" font-family="Helvetica,sans-Serif" font-size="10.00"> mpMap</text>
</g>
<!-- Node4 -->
<g id="node4" class="node"><title>Node4</title>
<g id="a_node4"><a xlink:href="class_o_r_b___s_l_a_m2_1_1_map_point.html" target="_top" xlink:title="Cada instancia representa un mapa 3D en el sistema de referencia del mapa. ">
<polygon fill="white" stroke="black" points="1040,-472.5 1040,-491.5 1163,-491.5 1163,-472.5 1040,-472.5"/>
<text text-anchor="middle" x="1101.5" y="-479.5" font-family="Helvetica,sans-Serif" font-size="10.00">ORB_SLAM2::MapPoint</text>
</a>
</g>
</g>
<!-- Node3&#45;&gt;Node4 -->
<g id="edge16" class="edge"><title>Node3&#45;&gt;Node4</title>
<path fill="none" stroke="#9a32cd" stroke-dasharray="5,2" d="M613.319,-459.053C627.01,-460.115 641.504,-461.165 655,-462 792.548,-470.506 954.199,-476.852 1039.94,-479.93"/>
<polygon fill="#9a32cd" stroke="#9a32cd" points="613.281,-455.539 603.037,-458.241 612.731,-462.517 613.281,-455.539"/>
<text text-anchor="middle" x="830" y="-478" font-family="Helvetica,sans-Serif" font-size="10.00"> mpMap</text>
</g>
<!-- Node5 -->
<g id="node5" class="node"><title>Node5</title>
<g id="a_node5"><a xlink:href="class_o_r_b___s_l_a_m2_1_1_key_frame.html" target="_top" xlink:title="Cuadro clave, keyframe. ">
<polygon fill="white" stroke="black" points="766.5,-587.5 766.5,-606.5 893.5,-606.5 893.5,-587.5 766.5,-587.5"/>
<text text-anchor="middle" x="830" y="-594.5" font-family="Helvetica,sans-Serif" font-size="10.00">ORB_SLAM2::KeyFrame</text>
</a>
</g>
</g>
<!-- Node3&#45;&gt;Node5 -->
<g id="edge10" class="edge"><title>Node3&#45;&gt;Node5</title>
<path fill="none" stroke="#9a32cd" stroke-dasharray="5,2" d="M563.137,-472.639C578.483,-500.204 611.264,-551.147 655,-575 673.779,-585.242 724.356,-590.868 766.171,-593.861"/>
<polygon fill="#9a32cd" stroke="#9a32cd" points="566.109,-470.776 558.284,-463.634 559.947,-474.098 566.109,-470.776"/>
<text text-anchor="middle" x="698" y="-595" font-family="Helvetica,sans-Serif" font-size="10.00"> mpMap</text>
</g>
<!-- Node3&#45;&gt;Node13 -->
<g id="edge24" class="edge"><title>Node3&#45;&gt;Node13</title>
<path fill="none" stroke="#9a32cd" stroke-dasharray="5,2" d="M564.741,-435.968C581.7,-409.904 616.022,-361.396 655,-330 695.402,-297.457 708.787,-290.037 759,-277 977.136,-220.363 1040.92,-256.688 1266,-268 1350.19,-272.231 1446.85,-281.653 1509.77,-288.399"/>
<polygon fill="#9a32cd" stroke="#9a32cd" points="561.736,-434.17 559.301,-444.481 567.635,-437.939 561.736,-434.17"/>
<text text-anchor="middle" x="1101.5" y="-265" font-family="Helvetica,sans-Serif" font-size="10.00"> mpMap</text>
</g>
<!-- Node3&#45;&gt;Node15 -->
<g id="edge29" class="edge"><title>Node3&#45;&gt;Node15</title>
<path fill="none" stroke="#9a32cd" stroke-dasharray="5,2" d="M595.545,-441.728C613.753,-436.588 635.355,-430.724 655,-426 923.275,-361.492 992.07,-282.911 1266,-316 1336.42,-324.506 1351.04,-342.312 1421,-354 1483.9,-364.508 1659.12,-378.501 1757.93,-385.905"/>
<polygon fill="#9a32cd" stroke="#9a32cd" points="594.473,-438.393 585.813,-444.496 596.389,-445.126 594.473,-438.393"/>
<text text-anchor="middle" x="1228" y="-319" font-family="Helvetica,sans-Serif" font-size="10.00"> mpMap</text>
</g>
<!-- Node17 -->
<g id="node17" class="node"><title>Node17</title>
<g id="a_node17"><a xlink:href="class_o_r_b___s_l_a_m2_1_1_map_drawer.html" target="_top" xlink:title="Esta clase contiene los métodos para dibujar en pangolin. ">
<polygon fill="white" stroke="black" points="1035.5,-790.5 1035.5,-809.5 1167.5,-809.5 1167.5,-790.5 1035.5,-790.5"/>
<text text-anchor="middle" x="1101.5" y="-797.5" font-family="Helvetica,sans-Serif" font-size="10.00">ORB_SLAM2::MapDrawer</text>
</a>
</g>
</g>
<!-- Node3&#45;&gt;Node17 -->
<g id="edge34" class="edge"><title>Node3&#45;&gt;Node17</title>
<path fill="none" stroke="#9a32cd" stroke-dasharray="5,2" d="M563.667,-472.448C580.564,-502.309 616.404,-562.381 655,-607 688.564,-645.802 717.273,-638.512 741,-684 756.323,-713.375 734.199,-810.032 759,-832 853.947,-916.099 1027.31,-838.099 1082.87,-809.523"/>
<polygon fill="#9a32cd" stroke="#9a32cd" points="566.624,-470.564 558.687,-463.546 560.515,-473.982 566.624,-470.564"/>
<text text-anchor="middle" x="830" y="-872" font-family="Helvetica,sans-Serif" font-size="10.00"> mpMap</text>
</g>
<!-- Node3&#45;&gt;Node21 -->
<g id="edge53" class="edge"><title>Node3&#45;&gt;Node21</title>
<path fill="none" stroke="#9a32cd" stroke-dasharray="5,2" d="M560.146,-434.714C573.176,-399.455 605.22,-324.083 655,-279 750.532,-192.483 794.94,-193.939 919,-159 976.812,-142.719 1395.44,-93 1455.5,-93 1455.5,-93 1455.5,-93 1830,-93 1980.8,-93 2050.42,-330.415 2063.64,-381.423"/>
<polygon fill="#9a32cd" stroke="#9a32cd" points="556.793,-433.696 556.714,-444.29 563.383,-436.057 556.793,-433.696"/>
<text text-anchor="middle" x="1343.5" y="-112" font-family="Helvetica,sans-Serif" font-size="10.00"> mpMap</text>
</g>
<!-- Node4&#45;&gt;Node3 -->
<g id="edge3" class="edge"><title>Node4&#45;&gt;Node3</title>
<path fill="none" stroke="#9a32cd" stroke-dasharray="5,2" d="M1048.68,-470.26C1036.97,-467.743 1024.58,-465.186 1013,-463 963.459,-453.647 951.257,-449.013 901,-445 838.089,-439.977 822.096,-443.619 759,-445 705.803,-446.164 644.915,-449.022 603.31,-451.208"/>
<polygon fill="#9a32cd" stroke="#9a32cd" points="1048.24,-473.746 1058.76,-472.451 1049.73,-466.906 1048.24,-473.746"/>
<text text-anchor="middle" x="830" y="-448" font-family="Helvetica,sans-Serif" font-size="10.00"> mapPointBuffer</text>
</g>
<!-- Node4&#45;&gt;Node4 -->
<g id="edge4" class="edge"><title>Node4&#45;&gt;Node4</title>
<path fill="none" stroke="#9a32cd" stroke-dasharray="5,2" d="M1078.06,-501.029C1079.34,-506.128 1087.15,-510 1101.5,-510 1123.89,-510 1130.37,-500.565 1120.92,-491.757"/>
<polygon fill="#9a32cd" stroke="#9a32cd" points="1081.32,-502.324 1082.08,-491.757 1074.89,-499.541 1081.32,-502.324"/>
<text text-anchor="middle" x="1101.5" y="-513" font-family="Helvetica,sans-Serif" font-size="10.00"> mpReplaced</text>
</g>
<!-- Node5&#45;&gt;Node1 -->
<g id="edge19" class="edge"><title>Node5&#45;&gt;Node1</title>
<path fill="none" stroke="#9a32cd" stroke-dasharray="5,2" d="M903.805,-604.308C992.728,-610.357 1146.1,-611.37 1266,-563 1295.04,-551.285 1321.45,-524.385 1334.3,-509.812"/>
<polygon fill="#9a32cd" stroke="#9a32cd" points="904.042,-600.816 893.816,-603.588 903.539,-607.798 904.042,-600.816"/>
<text text-anchor="middle" x="1101.5" y="-621" font-family="Helvetica,sans-Serif" font-size="10.00"> mpLastKeyFrame</text>
<text text-anchor="middle" x="1101.5" y="-610" font-family="Helvetica,sans-Serif" font-size="10.00">mpReferenceKF</text>
</g>
<!-- Node5&#45;&gt;Node3 -->
<g id="edge17" class="edge"><title>Node5&#45;&gt;Node3</title>
<path fill="none" stroke="#9a32cd" stroke-dasharray="5,2" d="M797.975,-583.435C781.293,-576.455 760.247,-568.145 741,-562 703.518,-550.034 690.006,-558.961 655,-541 615.353,-520.658 578.083,-481.891 561.926,-463.78"/>
<polygon fill="#9a32cd" stroke="#9a32cd" points="796.674,-586.685 807.247,-587.366 799.406,-580.24 796.674,-586.685"/>
<text text-anchor="middle" x="698" y="-565" font-family="Helvetica,sans-Serif" font-size="10.00"> keyFrameBuffer</text>
</g>
<!-- Node5&#45;&gt;Node4 -->
<g id="edge5" class="edge"><title>Node5&#45;&gt;Node4</title>
<path fill="none" stroke="#9a32cd" stroke-dasharray="5,2" d="M870.205,-584.441C885.389,-579.716 902.949,-574.422 919,-570 960.465,-558.576 974.076,-565.298 1013,-547 1044,-532.428 1074.9,-505.969 1090.35,-491.716"/>
<polygon fill="#9a32cd" stroke="#9a32cd" points="869.106,-581.117 860.611,-587.448 871.2,-587.797 869.106,-581.117"/>
<text text-anchor="middle" x="966" y="-573" font-family="Helvetica,sans-Serif" font-size="10.00"> mpRefKF</text>
</g>
<!-- Node5&#45;&gt;Node5 -->
<g id="edge9" class="edge"><title>Node5&#45;&gt;Node5</title>
<path fill="none" stroke="#9a32cd" stroke-dasharray="5,2" d="M805.447,-616.029C806.786,-621.128 814.97,-625 830,-625 853.461,-625 860.243,-615.565 850.345,-606.757"/>
<polygon fill="#9a32cd" stroke="#9a32cd" points="808.709,-617.31 809.655,-606.757 802.335,-614.416 808.709,-617.31"/>
<text text-anchor="middle" x="830" y="-628" font-family="Helvetica,sans-Serif" font-size="10.00"> mpParent</text>
</g>
<!-- Node5&#45;&gt;Node13 -->
<g id="edge22" class="edge"><title>Node5&#45;&gt;Node13</title>
<path fill="none" stroke="#9a32cd" stroke-dasharray="5,2" d="M842.219,-578.847C869.058,-537.151 941.448,-434.475 1031,-387 1113.15,-343.451 1383.05,-313.745 1509.95,-301.836"/>
<polygon fill="#9a32cd" stroke="#9a32cd" points="839.18,-577.105 836.79,-587.427 845.095,-580.848 839.18,-577.105"/>
<text text-anchor="middle" x="1228" y="-357" font-family="Helvetica,sans-Serif" font-size="10.00"> mpMatchedKF</text>
<text text-anchor="middle" x="1228" y="-346" font-family="Helvetica,sans-Serif" font-size="10.00">mpCurrentKF</text>
</g>
<!-- Node5&#45;&gt;Node15 -->
<g id="edge27" class="edge"><title>Node5&#45;&gt;Node15</title>
<path fill="none" stroke="#9a32cd" stroke-dasharray="5,2" d="M876.799,-609.017C890.321,-612.27 905.196,-615.561 919,-618 968.347,-626.72 980.972,-628.106 1031,-631 1347.63,-649.314 1478.86,-729.991 1740,-550 1794.81,-512.221 1819.05,-428.704 1825.88,-400.51"/>
<polygon fill="#9a32cd" stroke="#9a32cd" points="877.31,-605.539 866.764,-606.553 875.64,-612.337 877.31,-605.539"/>
<text text-anchor="middle" x="1343.5" y="-668" font-family="Helvetica,sans-Serif" font-size="10.00"> mpCurrentKeyFrame</text>
</g>
<!-- Node18 -->
<g id="node18" class="node"><title>Node18</title>
<g id="a_node18"><a xlink:href="class_o_r_b___s_l_a_m2_1_1_frame.html" target="_top" xlink:title="Frame representa un cuadro, una imagen, con los puntos singulares detectados. ">
<polygon fill="white" stroke="black" points="1046.5,-742.5 1046.5,-761.5 1156.5,-761.5 1156.5,-742.5 1046.5,-742.5"/>
<text text-anchor="middle" x="1101.5" y="-749.5" font-family="Helvetica,sans-Serif" font-size="10.00">ORB_SLAM2::Frame</text>
</a>
</g>
</g>
<!-- Node5&#45;&gt;Node18 -->
<g id="edge39" class="edge"><title>Node5&#45;&gt;Node18</title>
<path fill="none" stroke="#9a32cd" stroke-dasharray="5,2" d="M858.194,-611.3C875.566,-620.414 898.582,-632.451 919,-643 960.676,-664.532 980.152,-657.511 1013,-691 1025.81,-704.055 1017.32,-715.87 1031,-728 1038.16,-734.351 1047.1,-739.04 1056.14,-742.497"/>
<polygon fill="#9a32cd" stroke="#9a32cd" points="859.657,-608.115 849.176,-606.565 856.403,-614.313 859.657,-608.115"/>
<text text-anchor="middle" x="966" y="-694" font-family="Helvetica,sans-Serif" font-size="10.00"> mpReferenceKF</text>
</g>
<!-- Node6 -->
<g id="node6" class="node"><title>Node6</title>
<g id="a_node6"><a xlink:href="class_o_r_b___s_l_a_m2_1_1_key_frame_database.html" target="_top" xlink:title="Lista invertida de KeyFrames, accesible por BoW. ">
<polygon fill="white" stroke="black" points="468,-157.5 468,-176.5 637,-176.5 637,-157.5 468,-157.5"/>
<text text-anchor="middle" x="552.5" y="-164.5" font-family="Helvetica,sans-Serif" font-size="10.00">ORB_SLAM2::KeyFrameDatabase</text>
</a>
</g>
</g>
<!-- Node6&#45;&gt;Node1 -->
<g id="edge18" class="edge"><title>Node6&#45;&gt;Node1</title>
<path fill="none" stroke="#9a32cd" stroke-dasharray="5,2" d="M647.201,-161.411C803.954,-154.417 1108.48,-151.699 1172,-231 1210.67,-279.275 1151.69,-320.441 1190,-369 1212.39,-397.383 1237.13,-376.238 1266,-398 1300.82,-424.248 1327.35,-470.501 1337.73,-490.426"/>
<polygon fill="#9a32cd" stroke="#9a32cd" points="646.922,-157.92 637.094,-161.877 647.244,-164.912 646.922,-157.92"/>
<text text-anchor="middle" x="966" y="-175" font-family="Helvetica,sans-Serif" font-size="10.00"> mpKeyFrameDB</text>
</g>
<!-- Node6&#45;&gt;Node5 -->
<g id="edge6" class="edge"><title>Node6&#45;&gt;Node5</title>
<path fill="none" stroke="#9a32cd" stroke-dasharray="5,2" d="M564.812,-185.369C595.54,-235.177 683.332,-376.859 759,-493 781.811,-528.012 809.781,-569.006 822.34,-587.315"/>
<polygon fill="#9a32cd" stroke="#9a32cd" points="567.674,-183.343 559.447,-176.668 561.716,-187.017 567.674,-183.343"/>
<text text-anchor="middle" x="698" y="-461" font-family="Helvetica,sans-Serif" font-size="10.00"> mpKeyFrameDB</text>
</g>
<!-- Node6&#45;&gt;Node13 -->
<g id="edge21" class="edge"><title>Node6&#45;&gt;Node13</title>
<path fill="none" stroke="#9a32cd" stroke-dasharray="5,2" d="M592.635,-154.515C633.606,-142.149 700.06,-124.067 759,-117 990.176,-89.2807 1419.53,-96.5379 1492,-156 1515.84,-175.558 1495.15,-195.978 1510,-223 1524.42,-249.232 1550.19,-273.529 1565.22,-286.403"/>
<polygon fill="#9a32cd" stroke="#9a32cd" points="591.58,-151.178 583.039,-157.448 593.626,-157.873 591.58,-151.178"/>
<text text-anchor="middle" x="1101.5" y="-107" font-family="Helvetica,sans-Serif" font-size="10.00"> mpKeyFrameDB</text>
</g>
<!-- Node6&#45;&gt;Node21 -->
<g id="edge50" class="edge"><title>Node6&#45;&gt;Node21</title>
<path fill="none" stroke="#9a32cd" stroke-dasharray="5,2" d="M573.676,-151.116C617.47,-118.287 725.634,-46 829,-46 829,-46 829,-46 1830,-46 1908.75,-46 1939.97,-60.0206 1991,-120 2060.6,-201.797 2065.96,-343.146 2066.1,-381.283"/>
<polygon fill="#9a32cd" stroke="#9a32cd" points="571.393,-148.455 565.564,-157.303 575.638,-154.021 571.393,-148.455"/>
<text text-anchor="middle" x="1343.5" y="-49" font-family="Helvetica,sans-Serif" font-size="10.00"> mpKeyFrameDatabase</text>
</g>
<!-- Node7 -->
<g id="node7" class="node"><title>Node7</title>
<g id="a_node7"><a xlink:href="class_d_bo_w2_1_1_templated_vocabulary.html" target="_top" xlink:title="Generic Vocabulary. ">
<polygon fill="white" stroke="black" points="243,-232 243,-262 395,-262 395,-232 243,-232"/>
<text text-anchor="start" x="251" y="-250" font-family="Helvetica,sans-Serif" font-size="10.00">DBoW2::TemplatedVocabulary</text>
<text text-anchor="middle" x="319" y="-239" font-family="Helvetica,sans-Serif" font-size="10.00">&lt; TDescriptor, F &gt;</text>
</a>
</g>
</g>
<!-- Node7&#45;&gt;Node1 -->
<g id="edge36" class="edge"><title>Node7&#45;&gt;Node1</title>
<path fill="none" stroke="#9a32cd" stroke-dasharray="5,2" d="M405.657,-253.793C561.082,-267.712 898.762,-305.3 1172,-387 1180.39,-389.508 1181.95,-391.569 1190,-395 1223.56,-409.298 1235.45,-406.068 1266,-426 1294.48,-444.577 1321.54,-474.678 1334.51,-490.14"/>
<polygon fill="#9a32cd" stroke="#9a32cd" points="405.504,-250.266 395.235,-252.871 404.887,-257.239 405.504,-250.266"/>
<text text-anchor="middle" x="830" y="-326" font-family="Helvetica,sans-Serif" font-size="10.00"> mpORBVocabulary</text>
</g>
<!-- Node7&#45;&gt;Node5 -->
<g id="edge11" class="edge"><title>Node7&#45;&gt;Node5</title>
<path fill="none" stroke="#9a32cd" stroke-dasharray="5,2" d="M331.48,-271.279C367.048,-342.923 483.436,-551.876 655,-607 700.804,-621.717 756.833,-614.295 792.716,-606.558"/>
<polygon fill="#9a32cd" stroke="#9a32cd" points="334.535,-269.559 327,-262.111 328.246,-272.632 334.535,-269.559"/>
<text text-anchor="middle" x="552.5" y="-603" font-family="Helvetica,sans-Serif" font-size="10.00"> mpORBvocabulary</text>
</g>
<!-- Node7&#45;&gt;Node6 -->
<g id="edge7" class="edge"><title>Node7&#45;&gt;Node6</title>
<path fill="none" stroke="#9a32cd" stroke-dasharray="5,2" d="M343.958,-224.973C362.257,-209.548 388.872,-189.979 416,-180 432.302,-174.003 450.412,-170.379 467.949,-168.258"/>
<polygon fill="#9a32cd" stroke="#9a32cd" points="341.435,-222.528 336.163,-231.719 346.015,-227.821 341.435,-222.528"/>
<text text-anchor="middle" x="433" y="-183" font-family="Helvetica,sans-Serif" font-size="10.00"> mpVoc</text>
</g>
<!-- Node7&#45;&gt;Node13 -->
<g id="edge25" class="edge"><title>Node7&#45;&gt;Node13</title>
<path fill="none" stroke="#9a32cd" stroke-dasharray="5,2" d="M405.323,-244.434C573.441,-239.554 959.402,-229.223 1284,-227 1376.79,-226.364 1405.49,-211.447 1492,-245 1519.44,-255.641 1548.15,-274.822 1564.18,-286.386"/>
<polygon fill="#9a32cd" stroke="#9a32cd" points="405.189,-240.936 395.295,-244.726 405.392,-247.933 405.189,-240.936"/>
<text text-anchor="middle" x="966" y="-235" font-family="Helvetica,sans-Serif" font-size="10.00"> mpORBVocabulary</text>
</g>
<!-- Node7&#45;&gt;Node18 -->
<g id="edge40" class="edge"><title>Node7&#45;&gt;Node18</title>
<path fill="none" stroke="#9a32cd" stroke-dasharray="5,2" d="M322.773,-272.098C331.405,-338.125 363.803,-518.229 468,-615 561.311,-701.66 621.969,-656.739 741,-702 749.183,-705.112 750.61,-707.499 759,-710 828.043,-730.578 847.514,-727.053 919,-736 961.687,-741.343 1010.24,-745.524 1046.39,-748.271"/>
<polygon fill="#9a32cd" stroke="#9a32cd" points="326.246,-271.66 321.544,-262.165 319.298,-272.519 326.246,-271.66"/>
<text text-anchor="middle" x="698" y="-705" font-family="Helvetica,sans-Serif" font-size="10.00"> mpORBvocabulary</text>
</g>
<!-- Node7&#45;&gt;Node21 -->
<g id="edge54" class="edge"><title>Node7&#45;&gt;Node21</title>
<path fill="none" stroke="#9a32cd" stroke-dasharray="5,2" d="M329.177,-222.441C354.283,-159.985 430.411,-0 551.5,-0 551.5,-0 551.5,-0 1830,-0 1905.91,-0 1940.62,-0.218809 1991,-57 2035.86,-107.568 2060.22,-332.032 2065.09,-381.383"/>
<polygon fill="#9a32cd" stroke="#9a32cd" points="325.852,-221.333 325.459,-231.921 332.369,-223.889 325.852,-221.333"/>
<text text-anchor="middle" x="1228" y="-3" font-family="Helvetica,sans-Serif" font-size="10.00"> mpVocabulary</text>
</g>
<!-- Node8 -->
<g id="node8" class="node"><title>Node8</title>
<g id="a_node8"><a xlink:href="class_d_bo_w2_1_1_general_scoring.html" target="_top" xlink:title="Base class of scoring functions. ">
<polygon fill="white" stroke="black" points="0,-237.5 0,-256.5 124,-256.5 124,-237.5 0,-237.5"/>
<text text-anchor="middle" x="62" y="-244.5" font-family="Helvetica,sans-Serif" font-size="10.00">DBoW2::GeneralScoring</text>
</a>
</g>
</g>
<!-- Node8&#45;&gt;Node7 -->
<g id="edge8" class="edge"><title>Node8&#45;&gt;Node7</title>
<path fill="none" stroke="#9a32cd" stroke-dasharray="5,2" d="M134.347,-247C168.159,-247 208.555,-247 242.841,-247"/>
<polygon fill="#9a32cd" stroke="#9a32cd" points="134.079,-243.5 124.079,-247 134.079,-250.5 134.079,-243.5"/>
<text text-anchor="middle" x="182" y="-250" font-family="Helvetica,sans-Serif" font-size="10.00"> m_scoring_object</text>
</g>
<!-- Node9 -->
<g id="node9" class="node"><title>Node9</title>
<g id="a_node9"><a xlink:href="class_d_bo_w2_1_1_feature_vector.html" target="_top" xlink:title="Vector of nodes with indexes of local features. ">
<polygon fill="white" stroke="black" points="493,-749.5 493,-768.5 612,-768.5 612,-749.5 493,-749.5"/>
<text text-anchor="middle" x="552.5" y="-756.5" font-family="Helvetica,sans-Serif" font-size="10.00">DBoW2::FeatureVector</text>
</a>
</g>
</g>
<!-- Node9&#45;&gt;Node5 -->
<g id="edge12" class="edge"><title>Node9&#45;&gt;Node5</title>
<path fill="none" stroke="#9a32cd" stroke-dasharray="5,2" d="M608.63,-747.341C662.069,-735.844 735.83,-719.376 741,-715 756.814,-701.615 747.756,-689.401 759,-672 776.013,-645.671 802.719,-620.095 817.749,-606.681"/>
<polygon fill="#9a32cd" stroke="#9a32cd" points="607.618,-743.978 598.574,-749.497 609.086,-750.822 607.618,-743.978"/>
<text text-anchor="middle" x="698" y="-740" font-family="Helvetica,sans-Serif" font-size="10.00"> mFeatVec</text>
</g>
<!-- Node9&#45;&gt;Node18 -->
<g id="edge41" class="edge"><title>Node9&#45;&gt;Node18</title>
<path fill="none" stroke="#9a32cd" stroke-dasharray="5,2" d="M595.318,-771.196C613.486,-775.891 635.12,-780.682 655,-783 797.851,-799.659 967.594,-775.899 1050.25,-761.549"/>
<polygon fill="#9a32cd" stroke="#9a32cd" points="596.178,-767.803 585.614,-768.613 594.377,-774.567 596.178,-767.803"/>
<text text-anchor="middle" x="830" y="-791" font-family="Helvetica,sans-Serif" font-size="10.00"> mFeatVec</text>
</g>
<!-- Node10 -->
<g id="node10" class="node"><title>Node10</title>
<polygon fill="white" stroke="#bfbfbf" points="254.5,-744 254.5,-774 383.5,-774 383.5,-744 254.5,-744"/>
<text text-anchor="start" x="262.5" y="-762" font-family="Helvetica,sans-Serif" font-size="10.00">std::map&lt; NodeId, std</text>
<text text-anchor="middle" x="319" y="-751" font-family="Helvetica,sans-Serif" font-size="10.00">::vector&lt; unsigned int &gt; &gt;</text>
</g>
<!-- Node10&#45;&gt;Node9 -->
<g id="edge13" class="edge"><title>Node10&#45;&gt;Node9</title>
<path fill="none" stroke="midnightblue" d="M393.769,-759C425.779,-759 462.744,-759 492.84,-759"/>
<polygon fill="midnightblue" stroke="midnightblue" points="393.565,-755.5 383.565,-759 393.565,-762.5 393.565,-755.5"/>
</g>
<!-- Node11 -->
<g id="node11" class="node"><title>Node11</title>
<g id="a_node11"><a xlink:href="class_d_bo_w2_1_1_bow_vector.html" target="_top" xlink:title="Vector of words to represent images. ">
<polygon fill="white" stroke="black" points="500,-802.5 500,-821.5 605,-821.5 605,-802.5 500,-802.5"/>
<text text-anchor="middle" x="552.5" y="-809.5" font-family="Helvetica,sans-Serif" font-size="10.00">DBoW2::BowVector</text>
</a>
</g>
</g>
<!-- Node11&#45;&gt;Node5 -->
<g id="edge14" class="edge"><title>Node11&#45;&gt;Node5</title>
<path fill="none" stroke="#9a32cd" stroke-dasharray="5,2" d="M607.202,-800.113C655.907,-788.274 722.786,-769.022 741,-749 764.65,-723.003 742.451,-703.005 759,-672 773.677,-644.503 800.999,-619.552 816.819,-606.515"/>
<polygon fill="#9a32cd" stroke="#9a32cd" points="606.329,-796.723 597.417,-802.452 607.957,-803.531 606.329,-796.723"/>
<text text-anchor="middle" x="698" y="-789" font-family="Helvetica,sans-Serif" font-size="10.00"> mBowVec</text>
</g>
<!-- Node11&#45;&gt;Node18 -->
<g id="edge42" class="edge"><title>Node11&#45;&gt;Node18</title>
<path fill="none" stroke="#9a32cd" stroke-dasharray="5,2" d="M615.345,-816.093C704.656,-820.339 874.248,-822.138 1013,-787 1025.77,-783.767 1057.08,-770.757 1078.57,-761.547"/>
<polygon fill="#9a32cd" stroke="#9a32cd" points="615.284,-812.585 605.121,-815.579 614.933,-819.577 615.284,-812.585"/>
<text text-anchor="middle" x="830" y="-820" font-family="Helvetica,sans-Serif" font-size="10.00"> mBowVec</text>
</g>
<!-- Node12 -->
<g id="node12" class="node"><title>Node12</title>
<polygon fill="white" stroke="#bfbfbf" points="240,-802.5 240,-821.5 398,-821.5 398,-802.5 240,-802.5"/>
<text text-anchor="middle" x="319" y="-809.5" font-family="Helvetica,sans-Serif" font-size="10.00">std::map&lt; WordId, WordValue &gt;</text>
</g>
<!-- Node12&#45;&gt;Node11 -->
<g id="edge15" class="edge"><title>Node12&#45;&gt;Node11</title>
<path fill="none" stroke="midnightblue" d="M408.425,-812C439.362,-812 473.061,-812 499.979,-812"/>
<polygon fill="midnightblue" stroke="midnightblue" points="408.053,-808.5 398.053,-812 408.053,-815.5 408.053,-808.5"/>
</g>
<!-- Node13&#45;&gt;Node1 -->
<g id="edge20" class="edge"><title>Node13&#45;&gt;Node1</title>
<path fill="none" stroke="#9a32cd" stroke-dasharray="5,2" d="M1531.96,-308.612C1498.3,-319.835 1452.81,-339.017 1421,-368 1381.06,-404.394 1356.2,-466.606 1347.74,-490.378"/>
<polygon fill="#9a32cd" stroke="#9a32cd" points="1533.11,-311.918 1541.56,-305.519 1530.97,-305.255 1533.11,-311.918"/>
<text text-anchor="middle" x="1456.5" y="-371" font-family="Helvetica,sans-Serif" font-size="10.00"> mpLoopClosing</text>
</g>
<!-- Node13&#45;&gt;Node15 -->
<g id="edge28" class="edge"><title>Node13&#45;&gt;Node15</title>
<path fill="none" stroke="#9a32cd" stroke-dasharray="5,2" d="M1656.41,-290.671C1683.8,-291.496 1714.2,-295.627 1740,-307 1777.3,-323.442 1808.38,-362.836 1821.41,-381.229"/>
<polygon fill="#9a32cd" stroke="#9a32cd" points="1656.13,-287.166 1646.07,-290.508 1656.02,-294.165 1656.13,-287.166"/>
<text text-anchor="middle" x="1702" y="-310" font-family="Helvetica,sans-Serif" font-size="10.00"> mpLoopCloser</text>
</g>
<!-- Node13&#45;&gt;Node21 -->
<g id="edge51" class="edge"><title>Node13&#45;&gt;Node21</title>
<path fill="none" stroke="#9a32cd" stroke-dasharray="5,2" d="M1656.32,-286.559C1682.96,-284.914 1712.9,-284.86 1740,-289 1857.83,-307.003 1991.6,-359.616 2043.64,-381.392"/>
<polygon fill="#9a32cd" stroke="#9a32cd" points="1656.02,-283.071 1646.29,-287.262 1656.51,-290.054 1656.02,-283.071"/>
<text text-anchor="middle" x="1829" y="-331" font-family="Helvetica,sans-Serif" font-size="10.00"> mpLoopCloser</text>
</g>
<!-- Node14 -->
<g id="node14" class="node"><title>Node14</title>
<g id="a_node14"><a xlink:href="structg2o_1_1_sim3.html" target="_top" xlink:title="g2o::Sim3">
<polygon fill="white" stroke="black" points="1313,-236.5 1313,-255.5 1374,-255.5 1374,-236.5 1313,-236.5"/>
<text text-anchor="middle" x="1343.5" y="-243.5" font-family="Helvetica,sans-Serif" font-size="10.00">g2o::Sim3</text>
</a>
</g>
</g>
<!-- Node14&#45;&gt;Node13 -->
<g id="edge23" class="edge"><title>Node14&#45;&gt;Node13</title>
<path fill="none" stroke="#9a32cd" stroke-dasharray="5,2" d="M1384.16,-246.052C1414.19,-246.915 1456.23,-249.896 1492,-259 1516.49,-265.233 1542.91,-277.737 1559.68,-286.476"/>
<polygon fill="#9a32cd" stroke="#9a32cd" points="1384.15,-242.551 1374.07,-245.829 1383.99,-249.549 1384.15,-242.551"/>
<text text-anchor="middle" x="1456.5" y="-262" font-family="Helvetica,sans-Serif" font-size="10.00"> mg2oScw</text>
</g>
<!-- Node15&#45;&gt;Node1 -->
<g id="edge37" class="edge"><title>Node15&#45;&gt;Node1</title>
<path fill="none" stroke="#9a32cd" stroke-dasharray="5,2" d="M1775.98,-402.727C1679.72,-424.428 1475.56,-470.453 1386.98,-490.423"/>
<polygon fill="#9a32cd" stroke="#9a32cd" points="1776.8,-406.13 1785.79,-400.517 1775.26,-399.302 1776.8,-406.13"/>
<text text-anchor="middle" x="1578" y="-465" font-family="Helvetica,sans-Serif" font-size="10.00"> mpLocalMapper</text>
</g>
<!-- Node15&#45;&gt;Node13 -->
<g id="edge26" class="edge"><title>Node15&#45;&gt;Node13</title>
<path fill="none" stroke="#9a32cd" stroke-dasharray="5,2" d="M1804.06,-376.108C1786.75,-365.796 1762.53,-352.305 1740,-343 1733.98,-340.513 1657.66,-318.525 1612.3,-305.523"/>
<polygon fill="#9a32cd" stroke="#9a32cd" points="1802.55,-379.283 1812.92,-381.463 1806.17,-373.293 1802.55,-379.283"/>
<text text-anchor="middle" x="1702" y="-346" font-family="Helvetica,sans-Serif" font-size="10.00"> mpLocalMapper</text>
</g>
<!-- Node15&#45;&gt;Node21 -->
<g id="edge55" class="edge"><title>Node15&#45;&gt;Node21</title>
<path fill="none" stroke="#9a32cd" stroke-dasharray="5,2" d="M1910.49,-391C1942.79,-391 1979.28,-391 2008.79,-391"/>
<polygon fill="#9a32cd" stroke="#9a32cd" points="1910.17,-387.5 1900.17,-391 1910.17,-394.5 1910.17,-387.5"/>
<text text-anchor="middle" x="1954.5" y="-394" font-family="Helvetica,sans-Serif" font-size="10.00"> mpLocalMapper</text>
</g>
<!-- Node16 -->
<g id="node16" class="node"><title>Node16</title>
<g id="a_node16"><a xlink:href="class_o_r_b___s_l_a_m2_1_1_initializer.html" target="_top" xlink:title="Inicializador de mapa en modo monocular. ">
<polygon fill="white" stroke="black" points="1041,-434.5 1041,-453.5 1162,-453.5 1162,-434.5 1041,-434.5"/>
<text text-anchor="middle" x="1101.5" y="-441.5" font-family="Helvetica,sans-Serif" font-size="10.00">ORB_SLAM2::Initializer</text>
</a>
</g>
</g>
<!-- Node16&#45;&gt;Node1 -->
<g id="edge32" class="edge"><title>Node16&#45;&gt;Node1</title>
<path fill="none" stroke="#9a32cd" stroke-dasharray="5,2" d="M1153.45,-455.888C1197.63,-466.198 1260.76,-480.927 1301.68,-490.476"/>
<polygon fill="#9a32cd" stroke="#9a32cd" points="1154.02,-452.427 1143.48,-453.563 1152.43,-459.244 1154.02,-452.427"/>
<text text-anchor="middle" x="1228" y="-485" font-family="Helvetica,sans-Serif" font-size="10.00"> mpInitializer</text>
</g>
<!-- Node17&#45;&gt;Node1 -->
<g id="edge33" class="edge"><title>Node17&#45;&gt;Node1</title>
<path fill="none" stroke="#9a32cd" stroke-dasharray="5,2" d="M1137.49,-786.623C1148.68,-782.022 1161.01,-776.608 1172,-771 1180.35,-766.738 1181.44,-763.833 1190,-760 1222.21,-745.571 1242.92,-763.696 1266,-737 1301.27,-696.204 1267.74,-668.42 1284,-617 1297.35,-574.776 1324.31,-528.992 1336.39,-509.571"/>
<polygon fill="#9a32cd" stroke="#9a32cd" points="1135.98,-783.458 1128.01,-790.441 1138.6,-789.951 1135.98,-783.458"/>
<text text-anchor="middle" x="1228" y="-763" font-family="Helvetica,sans-Serif" font-size="10.00"> mpMapDrawer</text>
</g>
<!-- Node17&#45;&gt;Node20 -->
<g id="edge46" class="edge"><title>Node17&#45;&gt;Node20</title>
<path fill="none" stroke="#9a32cd" stroke-dasharray="5,2" d="M1177.82,-804.749C1225.09,-807.329 1287.33,-810 1342.5,-810 1342.5,-810 1342.5,-810 2068,-810 2170.23,-810 2243.72,-677.804 2262.37,-640.624"/>
<polygon fill="#9a32cd" stroke="#9a32cd" points="1177.84,-801.245 1167.66,-804.183 1177.45,-808.234 1177.84,-801.245"/>
<text text-anchor="middle" x="1702" y="-813" font-family="Helvetica,sans-Serif" font-size="10.00"> mpMapDrawer</text>
</g>
<!-- Node17&#45;&gt;Node21 -->
<g id="edge52" class="edge"><title>Node17&#45;&gt;Node21</title>
<path fill="none" stroke="#9a32cd" stroke-dasharray="5,2" d="M1173.29,-788.747C1202.15,-783.821 1235.78,-777.649 1266,-771 1270.45,-770.022 1895.88,-605.935 1900,-604 1944.99,-582.879 1958.61,-576.699 1991,-539 2029.67,-493.992 2054.67,-425.585 2062.96,-400.581"/>
<polygon fill="#9a32cd" stroke="#9a32cd" points="1172.58,-785.318 1163.3,-790.436 1173.74,-792.221 1172.58,-785.318"/>
<text text-anchor="middle" x="1578" y="-710" font-family="Helvetica,sans-Serif" font-size="10.00"> mpMapDrawer</text>
</g>
<!-- Node18&#45;&gt;Node1 -->
<g id="edge38" class="edge"><title>Node18&#45;&gt;Node1</title>
<path fill="none" stroke="#9a32cd" stroke-dasharray="5,2" d="M1152.52,-738.819C1159.4,-735.861 1166.11,-732.291 1172,-728 1182.77,-720.146 1179.08,-711.645 1190,-704 1218.91,-683.766 1241.29,-706.199 1266,-681 1286.69,-659.902 1273.35,-644.56 1284,-617 1299.97,-575.695 1325.55,-529.43 1336.84,-509.728"/>
<polygon fill="#9a32cd" stroke="#9a32cd" points="1151.14,-735.598 1143.09,-742.483 1153.68,-742.122 1151.14,-735.598"/>
<text text-anchor="middle" x="1228" y="-729" font-family="Helvetica,sans-Serif" font-size="10.00"> mLastFrame</text>
<text text-anchor="middle" x="1228" y="-718" font-family="Helvetica,sans-Serif" font-size="10.00">mCurrentFrame</text>
<text text-anchor="middle" x="1228" y="-707" font-family="Helvetica,sans-Serif" font-size="10.00">mInitialFrame</text>
</g>
<!-- Node19 -->
<g id="node19" class="node"><title>Node19</title>
<g id="a_node19"><a xlink:href="class_o_r_b___s_l_a_m2_1_1_o_r_bextractor.html" target="_top" xlink:title="Empaqueta todos los métodos de detección de puntos singulares y extracción de descriptores. ">
<polygon fill="white" stroke="black" points="759,-681.5 759,-700.5 901,-700.5 901,-681.5 759,-681.5"/>
<text text-anchor="middle" x="830" y="-688.5" font-family="Helvetica,sans-Serif" font-size="10.00">ORB_SLAM2::ORBextractor</text>
</a>
</g>
</g>
<!-- Node19&#45;&gt;Node1 -->
<g id="edge60" class="edge"><title>Node19&#45;&gt;Node1</title>
<path fill="none" stroke="#9a32cd" stroke-dasharray="5,2" d="M911.245,-691.134C1005.29,-687.345 1161.53,-668.302 1266,-589 1297,-565.471 1324.32,-527.509 1336.2,-509.749"/>
<polygon fill="#9a32cd" stroke="#9a32cd" points="911.088,-687.637 901.218,-691.49 911.336,-694.633 911.088,-687.637"/>
<text text-anchor="middle" x="1101.5" y="-704" font-family="Helvetica,sans-Serif" font-size="10.00"> mpORBextractorRight</text>
<text text-anchor="middle" x="1101.5" y="-693" font-family="Helvetica,sans-Serif" font-size="10.00">mpORBextractorLeft</text>
<text text-anchor="middle" x="1101.5" y="-682" font-family="Helvetica,sans-Serif" font-size="10.00">mpIniORBextractor</text>
</g>
<!-- Node19&#45;&gt;Node18 -->
<g id="edge43" class="edge"><title>Node19&#45;&gt;Node18</title>
<path fill="none" stroke="#9a32cd" stroke-dasharray="5,2" d="M901.884,-702.298C935.719,-708.185 976.658,-716.03 1013,-725 1033.06,-729.953 1055.32,-736.838 1072.36,-742.416"/>
<polygon fill="#9a32cd" stroke="#9a32cd" points="902.074,-698.779 891.625,-700.535 900.888,-705.678 902.074,-698.779"/>
<text text-anchor="middle" x="966" y="-728" font-family="Helvetica,sans-Serif" font-size="10.00"> mpORBextractorLeft</text>
</g>
<!-- Node20&#45;&gt;Node1 -->
<g id="edge44" class="edge"><title>Node20&#45;&gt;Node1</title>
<path fill="none" stroke="#9a32cd" stroke-dasharray="5,2" d="M2229.95,-618.359C2190.36,-605.991 2125.49,-589 2068,-589 1577,-589 1577,-589 1577,-589 1488.83,-589 1393.54,-532.484 1358.47,-509.525"/>
<polygon fill="#9a32cd" stroke="#9a32cd" points="2229.11,-621.763 2239.7,-621.47 2231.24,-615.094 2229.11,-621.763"/>
<text text-anchor="middle" x="1829" y="-592" font-family="Helvetica,sans-Serif" font-size="10.00"> mpViewer</text>
</g>
<!-- Node20&#45;&gt;Node21 -->
<g id="edge57" class="edge"><title>Node20&#45;&gt;Node21</title>
<path fill="none" stroke="#9a32cd" stroke-dasharray="5,2" d="M2262.4,-611.752C2253.78,-578.993 2232.46,-511.709 2194,-468 2165.55,-435.668 2120.18,-412.61 2092.34,-400.579"/>
<polygon fill="#9a32cd" stroke="#9a32cd" points="2259.01,-612.613 2264.85,-621.454 2265.8,-610.902 2259.01,-612.613"/>
<text text-anchor="middle" x="2168.5" y="-471" font-family="Helvetica,sans-Serif" font-size="10.00"> mpViewer</text>
</g>
<!-- Node21&#45;&gt;Node1 -->
<g id="edge59" class="edge"><title>Node21&#45;&gt;Node1</title>
<path fill="none" stroke="#9a32cd" stroke-dasharray="5,2" d="M2017.8,-402.934C1940.07,-421.711 1781.97,-457.97 1646,-477 1562.04,-488.751 1464.02,-494.829 1403.1,-497.715"/>
<polygon fill="#9a32cd" stroke="#9a32cd" points="2018.88,-406.273 2027.77,-400.514 2017.23,-399.47 2018.88,-406.273"/>
<text text-anchor="middle" x="1702" y="-477" font-family="Helvetica,sans-Serif" font-size="10.00"> mpSystem</text>
</g>
<!-- Node21&#45;&gt;Node20 -->
<g id="edge48" class="edge"><title>Node21&#45;&gt;Node20</title>
<path fill="none" stroke="#9a32cd" stroke-dasharray="5,2" d="M2082.56,-408.555C2121.83,-455.919 2229.01,-585.188 2259.07,-621.437"/>
<polygon fill="#9a32cd" stroke="#9a32cd" points="2085.12,-406.169 2076.05,-400.706 2079.74,-410.638 2085.12,-406.169"/>
<text text-anchor="middle" x="2168.5" y="-543" font-family="Helvetica,sans-Serif" font-size="10.00"> mpSystem</text>
</g>
<!-- Node21&#45;&gt;Node21 -->
<g id="edge58" class="edge"><title>Node21&#45;&gt;Node21</title>
<path fill="none" stroke="#9a32cd" stroke-dasharray="5,2" d="M2048.48,-410.4C2049.72,-415.315 2055.89,-419 2067,-419 2084.77,-419 2089.91,-409.565 2082.41,-400.757"/>
<polygon fill="#9a32cd" stroke="#9a32cd" points="2051.85,-411.349 2051.59,-400.757 2045.19,-409.203 2051.85,-411.349"/>
<text text-anchor="middle" x="2067" y="-422" font-family="Helvetica,sans-Serif" font-size="10.00"> sistema</text>
</g>
</g>
</svg>
