<?xml version="1.0" encoding="UTF-8" standalone="no"?>
<!DOCTYPE svg PUBLIC "-//W3C//DTD SVG 1.1//EN"
 "http://www.w3.org/Graphics/SVG/1.1/DTD/svg11.dtd">
<!-- Generated by graphviz version 2.38.0 (20140413.2041)
 -->
<!-- Title: g2o::AbstractOptimizationAlgorithmCreator Pages: 1 -->
<svg width="142pt" height="117pt"
 viewBox="0.00 0.00 142.00 117.00" xmlns="http://www.w3.org/2000/svg" xmlns:xlink="http://www.w3.org/1999/xlink">
<g id="graph0" class="graph" transform="scale(1 1) rotate(0) translate(4 113)">
<title>g2o::AbstractOptimizationAlgorithmCreator</title>
<polygon fill="white" stroke="none" points="-4,4 -4,-113 138,-113 138,4 -4,4"/>
<!-- Node1 -->
<g id="node1" class="node"><title>Node1</title>
<polygon fill="#bfbfbf" stroke="black" points="2,-0.5 2,-30.5 132,-30.5 132,-0.5 2,-0.5"/>
<text text-anchor="start" x="10" y="-18.5" font-family="Helvetica,sans-Serif" font-size="10.00">g2o::AbstractOptimization</text>
<text text-anchor="middle" x="67" y="-7.5" font-family="Helvetica,sans-Serif" font-size="10.00">AlgorithmCreator</text>
</g>
<!-- Node2 -->
<g id="node2" class="node"><title>Node2</title>
<g id="a_node2"><a xlink:href="structg2o_1_1_optimization_algorithm_property.html" target="_top" xlink:title="describe the properties of a solver ">
<polygon fill="white" stroke="black" points="0,-78.5 0,-108.5 134,-108.5 134,-78.5 0,-78.5"/>
<text text-anchor="start" x="8" y="-96.5" font-family="Helvetica,sans-Serif" font-size="10.00">g2o::OptimizationAlgorithm</text>
<text text-anchor="middle" x="67" y="-85.5" font-family="Helvetica,sans-Serif" font-size="10.00">Property</text>
</a>
</g>
</g>
<!-- Node2&#45;&gt;Node1 -->
<g id="edge1" class="edge"><title>Node2&#45;&gt;Node1</title>
<path fill="none" stroke="#9a32cd" stroke-dasharray="5,2" d="M67,-68.0898C67,-55.7565 67,-41.2237 67,-30.7309"/>
<polygon fill="#9a32cd" stroke="#9a32cd" points="63.5001,-68.2049 67,-78.205 70.5001,-68.205 63.5001,-68.2049"/>
<text text-anchor="middle" x="89" y="-52" font-family="Helvetica,sans-Serif" font-size="10.00"> _property</text>
</g>
</g>
</svg>
