<?xml version="1.0" encoding="UTF-8" standalone="no"?>
<!DOCTYPE svg PUBLIC "-//W3C//DTD SVG 1.1//EN"
 "http://www.w3.org/Graphics/SVG/1.1/DTD/svg11.dtd">
<!-- Generated by graphviz version 2.38.0 (20140413.2041)
 -->
<!-- Title: g2o::EdgeStereoSE3ProjectXYZOnlyPose Pages: 1 -->
<svg width="182pt" height="352pt"
 viewBox="0.00 0.00 182.00 352.00" xmlns="http://www.w3.org/2000/svg" xmlns:xlink="http://www.w3.org/1999/xlink">
<g id="graph0" class="graph" transform="scale(1 1) rotate(0) translate(4 348)">
<title>g2o::EdgeStereoSE3ProjectXYZOnlyPose</title>
<polygon fill="white" stroke="none" points="-4,4 -4,-348 178,-348 178,4 -4,4"/>
<!-- Node0 -->
<g id="node1" class="node"><title>Node0</title>
<polygon fill="#bfbfbf" stroke="black" points="17.5,-0.5 17.5,-30.5 156.5,-30.5 156.5,-0.5 17.5,-0.5"/>
<text text-anchor="start" x="25.5" y="-18.5" font-family="Helvetica,sans-Serif" font-size="10.00">g2o::EdgeStereoSE3Project</text>
<text text-anchor="middle" x="87" y="-7.5" font-family="Helvetica,sans-Serif" font-size="10.00">XYZOnlyPose</text>
</g>
<!-- Node1 -->
<g id="node2" class="node"><title>Node1</title>
<g id="a_node2"><a xlink:href="classg2o_1_1_base_unary_edge.html" target="_top" xlink:title="g2o::BaseUnaryEdge\l\&lt; 3, Vector3d, VertexSE3Expmap \&gt;">
<polygon fill="white" stroke="black" points="0,-67.5 0,-97.5 174,-97.5 174,-67.5 0,-67.5"/>
<text text-anchor="start" x="8" y="-85.5" font-family="Helvetica,sans-Serif" font-size="10.00">g2o::BaseUnaryEdge</text>
<text text-anchor="middle" x="87" y="-74.5" font-family="Helvetica,sans-Serif" font-size="10.00">&lt; 3, Vector3d, VertexSE3Expmap &gt;</text>
</a>
</g>
</g>
<!-- Node1&#45;&gt;Node0 -->
<g id="edge1" class="edge"><title>Node1&#45;&gt;Node0</title>
<path fill="none" stroke="midnightblue" d="M87,-57.1081C87,-48.1539 87,-38.3227 87,-30.5765"/>
<polygon fill="midnightblue" stroke="midnightblue" points="83.5001,-57.3959 87,-67.396 90.5001,-57.396 83.5001,-57.3959"/>
</g>
<!-- Node2 -->
<g id="node3" class="node"><title>Node2</title>
<g id="a_node3"><a xlink:href="classg2o_1_1_base_edge.html" target="_top" xlink:title="g2o::BaseEdge\&lt; D, Vector3d \&gt;">
<polygon fill="white" stroke="black" points="10,-134.5 10,-153.5 164,-153.5 164,-134.5 10,-134.5"/>
<text text-anchor="middle" x="87" y="-141.5" font-family="Helvetica,sans-Serif" font-size="10.00">g2o::BaseEdge&lt; D, Vector3d &gt;</text>
</a>
</g>
</g>
<!-- Node2&#45;&gt;Node1 -->
<g id="edge2" class="edge"><title>Node2&#45;&gt;Node1</title>
<path fill="none" stroke="midnightblue" d="M87,-124.235C87,-115.586 87,-105.497 87,-97.523"/>
<polygon fill="midnightblue" stroke="midnightblue" points="83.5001,-124.475 87,-134.475 90.5001,-124.475 83.5001,-124.475"/>
</g>
<!-- Node3 -->
<g id="node4" class="node"><title>Node3</title>
<g id="a_node4"><a xlink:href="classg2o_1_1_optimizable_graph_1_1_edge.html" target="_top" xlink:title="g2o::OptimizableGraph\l::Edge">
<polygon fill="white" stroke="black" points="29,-190.5 29,-220.5 145,-220.5 145,-190.5 29,-190.5"/>
<text text-anchor="start" x="37" y="-208.5" font-family="Helvetica,sans-Serif" font-size="10.00">g2o::OptimizableGraph</text>
<text text-anchor="middle" x="87" y="-197.5" font-family="Helvetica,sans-Serif" font-size="10.00">::Edge</text>
</a>
</g>
</g>
<!-- Node3&#45;&gt;Node2 -->
<g id="edge3" class="edge"><title>Node3&#45;&gt;Node2</title>
<path fill="none" stroke="midnightblue" d="M87,-180.289C87,-170.857 87,-160.655 87,-153.658"/>
<polygon fill="midnightblue" stroke="midnightblue" points="83.5001,-180.399 87,-190.399 90.5001,-180.399 83.5001,-180.399"/>
</g>
<!-- Node4 -->
<g id="node5" class="node"><title>Node4</title>
<g id="a_node5"><a xlink:href="classg2o_1_1_hyper_graph_1_1_edge.html" target="_top" xlink:title="Abstract Edge class. ">
<polygon fill="white" stroke="black" points="27.5,-257.5 27.5,-276.5 146.5,-276.5 146.5,-257.5 27.5,-257.5"/>
<text text-anchor="middle" x="87" y="-264.5" font-family="Helvetica,sans-Serif" font-size="10.00">g2o::HyperGraph::Edge</text>
</a>
</g>
</g>
<!-- Node4&#45;&gt;Node3 -->
<g id="edge4" class="edge"><title>Node4&#45;&gt;Node3</title>
<path fill="none" stroke="midnightblue" d="M87,-247.235C87,-238.586 87,-228.497 87,-220.523"/>
<polygon fill="midnightblue" stroke="midnightblue" points="83.5001,-247.475 87,-257.475 90.5001,-247.475 83.5001,-247.475"/>
</g>
<!-- Node5 -->
<g id="node6" class="node"><title>Node5</title>
<g id="a_node6"><a xlink:href="structg2o_1_1_hyper_graph_1_1_hyper_graph_element.html" target="_top" xlink:title="base hyper graph element, specialized in vertex and edge ">
<polygon fill="white" stroke="black" points="12.5,-313.5 12.5,-343.5 161.5,-343.5 161.5,-313.5 12.5,-313.5"/>
<text text-anchor="start" x="20.5" y="-331.5" font-family="Helvetica,sans-Serif" font-size="10.00">g2o::HyperGraph::HyperGraph</text>
<text text-anchor="middle" x="87" y="-320.5" font-family="Helvetica,sans-Serif" font-size="10.00">Element</text>
</a>
</g>
</g>
<!-- Node5&#45;&gt;Node4 -->
<g id="edge5" class="edge"><title>Node5&#45;&gt;Node4</title>
<path fill="none" stroke="midnightblue" d="M87,-303.289C87,-293.857 87,-283.655 87,-276.658"/>
<polygon fill="midnightblue" stroke="midnightblue" points="83.5001,-303.399 87,-313.399 90.5001,-303.399 83.5001,-303.399"/>
</g>
</g>
</svg>
