<?xml version="1.0" encoding="UTF-8" standalone="no"?>
<!DOCTYPE svg PUBLIC "-//W3C//DTD SVG 1.1//EN"
 "http://www.w3.org/Graphics/SVG/1.1/DTD/svg11.dtd">
<!-- Generated by graphviz version 2.38.0 (20140413.2041)
 -->
<!-- Title: ORB_SLAM2::LoopClosing Pages: 1 -->
<svg width="1644pt" height="718pt"
 viewBox="0.00 0.00 1644.00 718.00" xmlns="http://www.w3.org/2000/svg" xmlns:xlink="http://www.w3.org/1999/xlink">
<g id="graph0" class="graph" transform="scale(1 1) rotate(0) translate(4 713.997)">
<title>ORB_SLAM2::LoopClosing</title>
<polygon fill="white" stroke="none" points="-4,4 -4,-713.997 1640,-713.997 1640,4 -4,4"/>
<!-- Node1 -->
<g id="node1" class="node"><title>Node1</title>
<polygon fill="#bfbfbf" stroke="black" points="566,-413.497 566,-432.497 702,-432.497 702,-413.497 566,-413.497"/>
<text text-anchor="middle" x="634" y="-420.497" font-family="Helvetica,sans-Serif" font-size="10.00">ORB_SLAM2::LoopClosing</text>
</g>
<!-- Node5 -->
<g id="node5" class="node"><title>Node5</title>
<g id="a_node5"><a xlink:href="class_o_r_b___s_l_a_m2_1_1_local_mapping.html" target="_top" xlink:title="LocalMapping tiene una única instancia ejecutando el método Run en su propio thread. ">
<polygon fill="white" stroke="black" points="814,-472.497 814,-491.497 956,-491.497 956,-472.497 814,-472.497"/>
<text text-anchor="middle" x="885" y="-479.497" font-family="Helvetica,sans-Serif" font-size="10.00">ORB_SLAM2::LocalMapping</text>
</a>
</g>
</g>
<!-- Node1&#45;&gt;Node5 -->
<g id="edge9" class="edge"><title>Node1&#45;&gt;Node5</title>
<path fill="none" stroke="#9a32cd" stroke-dasharray="5,2" d="M712.377,-430.855C739.138,-434.538 769.143,-439.759 796,-446.997 819.972,-453.458 846.281,-464.474 863.83,-472.424"/>
<polygon fill="#9a32cd" stroke="#9a32cd" points="712.666,-427.362 702.292,-429.517 711.745,-434.302 712.666,-427.362"/>
<text text-anchor="middle" x="758" y="-449.997" font-family="Helvetica,sans-Serif" font-size="10.00"> mpLoopCloser</text>
</g>
<!-- Node6 -->
<g id="node6" class="node"><title>Node6</title>
<g id="a_node6"><a xlink:href="class_o_r_b___s_l_a_m2_1_1_tracking.html" target="_top" xlink:title="Objeto único que se ejecuta en su propio Trhead, y se inicia con Run(). ">
<polygon fill="white" stroke="black" points="1319,-354.497 1319,-373.497 1438,-373.497 1438,-354.497 1319,-354.497"/>
<text text-anchor="middle" x="1378.5" y="-361.497" font-family="Helvetica,sans-Serif" font-size="10.00">ORB_SLAM2::Tracking</text>
</a>
</g>
</g>
<!-- Node1&#45;&gt;Node6 -->
<g id="edge16" class="edge"><title>Node1&#45;&gt;Node6</title>
<path fill="none" stroke="#9a32cd" stroke-dasharray="5,2" d="M675.571,-410.749C689.528,-407.004 705.334,-403.276 720,-400.997 975.547,-361.291 1042.85,-384.542 1301,-368.997 1306.71,-368.653 1312.66,-368.283 1318.61,-367.907"/>
<polygon fill="#9a32cd" stroke="#9a32cd" points="674.482,-407.418 665.778,-413.458 676.349,-414.165 674.482,-407.418"/>
<text text-anchor="middle" x="1021" y="-378.997" font-family="Helvetica,sans-Serif" font-size="10.00"> mpLoopClosing</text>
</g>
<!-- Node13 -->
<g id="node13" class="node"><title>Node13</title>
<g id="a_node13"><a xlink:href="class_o_r_b___s_l_a_m2_1_1_system.html" target="_top" xlink:title="System se instancia una única vez en main, en la variable SLAM. ">
<polygon fill="white" stroke="black" points="1088.5,-197.497 1088.5,-216.497 1204.5,-216.497 1204.5,-197.497 1088.5,-197.497"/>
<text text-anchor="middle" x="1146.5" y="-204.497" font-family="Helvetica,sans-Serif" font-size="10.00">ORB_SLAM2::System</text>
</a>
</g>
</g>
<!-- Node1&#45;&gt;Node13 -->
<g id="edge32" class="edge"><title>Node1&#45;&gt;Node13</title>
<path fill="none" stroke="#9a32cd" stroke-dasharray="5,2" d="M642.909,-403.843C655.128,-376.887 681.3,-328.439 720,-304.997 853.648,-224.042 923.13,-313.549 1068,-254.997 1077.15,-251.299 1077.74,-247.393 1086,-241.997 1099.95,-232.887 1116.29,-223.352 1128.32,-216.538"/>
<polygon fill="#9a32cd" stroke="#9a32cd" points="639.561,-402.766 638.784,-413.333 645.981,-405.557 639.561,-402.766"/>
<text text-anchor="middle" x="885" y="-278.997" font-family="Helvetica,sans-Serif" font-size="10.00"> mpLoopCloser</text>
</g>
<!-- Node2 -->
<g id="node2" class="node"><title>Node2</title>
<g id="a_node2"><a xlink:href="class_o_r_b___s_l_a_m2_1_1_key_frame_database.html" target="_top" xlink:title="Lista invertida de KeyFrames, accesible por BoW. ">
<polygon fill="white" stroke="black" points="0,-498.497 0,-517.497 169,-517.497 169,-498.497 0,-498.497"/>
<text text-anchor="middle" x="84.5" y="-505.497" font-family="Helvetica,sans-Serif" font-size="10.00">ORB_SLAM2::KeyFrameDatabase</text>
</a>
</g>
</g>
<!-- Node2&#45;&gt;Node1 -->
<g id="edge1" class="edge"><title>Node2&#45;&gt;Node1</title>
<path fill="none" stroke="#9a32cd" stroke-dasharray="5,2" d="M140.38,-496.371C155.473,-493.247 171.856,-489.925 187,-486.997 292.965,-466.506 319.122,-459.01 426,-443.997 472.502,-437.465 525.155,-432.152 565.721,-428.504"/>
<polygon fill="#9a32cd" stroke="#9a32cd" points="139.246,-493.032 130.168,-498.494 140.671,-499.885 139.246,-493.032"/>
<text text-anchor="middle" x="344.5" y="-470.997" font-family="Helvetica,sans-Serif" font-size="10.00"> mpKeyFrameDB</text>
</g>
<!-- Node3 -->
<g id="node3" class="node"><title>Node3</title>
<g id="a_node3"><a xlink:href="class_o_r_b___s_l_a_m2_1_1_key_frame.html" target="_top" xlink:title="Cuadro clave, keyframe. ">
<polygon fill="white" stroke="black" points="281,-537.497 281,-556.497 408,-556.497 408,-537.497 281,-537.497"/>
<text text-anchor="middle" x="344.5" y="-544.497" font-family="Helvetica,sans-Serif" font-size="10.00">ORB_SLAM2::KeyFrame</text>
</a>
</g>
</g>
<!-- Node2&#45;&gt;Node3 -->
<g id="edge3" class="edge"><title>Node2&#45;&gt;Node3</title>
<path fill="none" stroke="#9a32cd" stroke-dasharray="5,2" d="M158.711,-519.064C197.156,-524.875 243.79,-531.924 280.591,-537.487"/>
<polygon fill="#9a32cd" stroke="#9a32cd" points="159.025,-515.571 148.614,-517.537 157.978,-522.493 159.025,-515.571"/>
<text text-anchor="middle" x="225" y="-536.997" font-family="Helvetica,sans-Serif" font-size="10.00"> mpKeyFrameDB</text>
</g>
<!-- Node2&#45;&gt;Node6 -->
<g id="edge14" class="edge"><title>Node2&#45;&gt;Node6</title>
<path fill="none" stroke="#9a32cd" stroke-dasharray="5,2" d="M97.4691,-526.181C130.475,-573.89 228.034,-698.997 343.5,-698.997 343.5,-698.997 343.5,-698.997 1147.5,-698.997 1217.89,-698.997 1251.12,-709.668 1301,-659.997 1343.4,-617.767 1370.46,-420.264 1376.31,-373.802"/>
<polygon fill="#9a32cd" stroke="#9a32cd" points="100.25,-524.046 91.7424,-517.731 94.4553,-527.973 100.25,-524.046"/>
<text text-anchor="middle" x="758" y="-701.997" font-family="Helvetica,sans-Serif" font-size="10.00"> mpKeyFrameDB</text>
</g>
<!-- Node2&#45;&gt;Node13 -->
<g id="edge31" class="edge"><title>Node2&#45;&gt;Node13</title>
<path fill="none" stroke="#9a32cd" stroke-dasharray="5,2" d="M118.135,-494.639C229.845,-449.091 596.785,-300.984 720,-269.997 871.416,-231.918 913.967,-247.507 1068,-221.997 1077.87,-220.362 1088.41,-218.44 1098.44,-216.528"/>
<polygon fill="#9a32cd" stroke="#9a32cd" points="116.667,-491.458 108.731,-498.477 119.312,-497.939 116.667,-491.458"/>
<text text-anchor="middle" x="634" y="-322.997" font-family="Helvetica,sans-Serif" font-size="10.00"> mpKeyFrameDatabase</text>
</g>
<!-- Node3&#45;&gt;Node1 -->
<g id="edge2" class="edge"><title>Node3&#45;&gt;Node1</title>
<path fill="none" stroke="#9a32cd" stroke-dasharray="5,2" d="M364.866,-530.281C377.647,-518.88 394.467,-503.154 408,-487.997 416.88,-478.051 414.681,-471.043 426,-463.997 472.842,-434.836 493.895,-451.824 548,-440.997 561.312,-438.333 575.769,-435.317 588.922,-432.527"/>
<polygon fill="#9a32cd" stroke="#9a32cd" points="362.316,-527.863 357.126,-537.099 366.943,-533.115 362.316,-527.863"/>
<text text-anchor="middle" x="487" y="-477.997" font-family="Helvetica,sans-Serif" font-size="10.00"> mpMatchedKF</text>
<text text-anchor="middle" x="487" y="-466.997" font-family="Helvetica,sans-Serif" font-size="10.00">mpCurrentKF</text>
</g>
<!-- Node3&#45;&gt;Node3 -->
<g id="edge4" class="edge"><title>Node3&#45;&gt;Node3</title>
<path fill="none" stroke="#9a32cd" stroke-dasharray="5,2" d="M322.551,-566.026C323.748,-571.125 331.064,-574.997 344.5,-574.997 365.473,-574.997 371.535,-565.562 362.687,-556.754"/>
<polygon fill="#9a32cd" stroke="#9a32cd" points="325.796,-567.336 326.313,-556.754 319.31,-564.704 325.796,-567.336"/>
<text text-anchor="middle" x="344.5" y="-577.997" font-family="Helvetica,sans-Serif" font-size="10.00"> mpParent</text>
</g>
<!-- Node3&#45;&gt;Node5 -->
<g id="edge8" class="edge"><title>Node3&#45;&gt;Node5</title>
<path fill="none" stroke="#9a32cd" stroke-dasharray="5,2" d="M418.251,-551.125C508.333,-554.385 665.807,-554 796,-521.997 822.401,-515.507 850.628,-501.213 867.798,-491.591"/>
<polygon fill="#9a32cd" stroke="#9a32cd" points="418.27,-547.623 408.142,-550.733 417.999,-554.618 418.27,-547.623"/>
<text text-anchor="middle" x="634" y="-553.997" font-family="Helvetica,sans-Serif" font-size="10.00"> mpCurrentKeyFrame</text>
</g>
<!-- Node3&#45;&gt;Node6 -->
<g id="edge15" class="edge"><title>Node3&#45;&gt;Node6</title>
<path fill="none" stroke="#9a32cd" stroke-dasharray="5,2" d="M369.447,-561.815C417.513,-590.099 529.973,-648.997 633,-648.997 633,-648.997 633,-648.997 1147.5,-648.997 1216.01,-648.997 1248.31,-678.778 1301,-634.997 1343.21,-599.926 1370.22,-417.955 1376.23,-373.704"/>
<polygon fill="#9a32cd" stroke="#9a32cd" points="371.093,-558.721 360.714,-556.593 367.5,-564.729 371.093,-558.721"/>
<text text-anchor="middle" x="885" y="-662.997" font-family="Helvetica,sans-Serif" font-size="10.00"> mpLastKeyFrame</text>
<text text-anchor="middle" x="885" y="-651.997" font-family="Helvetica,sans-Serif" font-size="10.00">mpReferenceKF</text>
</g>
<!-- Node10 -->
<g id="node10" class="node"><title>Node10</title>
<g id="a_node10"><a xlink:href="class_o_r_b___s_l_a_m2_1_1_frame.html" target="_top" xlink:title="Frame representa un cuadro, una imagen, con los puntos singulares detectados. ">
<polygon fill="white" stroke="black" points="1091.5,-601.497 1091.5,-620.497 1201.5,-620.497 1201.5,-601.497 1091.5,-601.497"/>
<text text-anchor="middle" x="1146.5" y="-608.497" font-family="Helvetica,sans-Serif" font-size="10.00">ORB_SLAM2::Frame</text>
</a>
</g>
</g>
<!-- Node3&#45;&gt;Node10 -->
<g id="edge23" class="edge"><title>Node3&#45;&gt;Node10</title>
<path fill="none" stroke="#9a32cd" stroke-dasharray="5,2" d="M392.382,-558.773C403.352,-561.168 415.037,-563.431 426,-564.997 672.581,-600.227 970.573,-608.482 1091.05,-610.411"/>
<polygon fill="#9a32cd" stroke="#9a32cd" points="393.075,-555.342 382.549,-556.552 391.532,-562.17 393.075,-555.342"/>
<text text-anchor="middle" x="758" y="-601.997" font-family="Helvetica,sans-Serif" font-size="10.00"> mpReferenceKF</text>
</g>
<!-- Node4 -->
<g id="node4" class="node"><title>Node4</title>
<g id="a_node4"><a xlink:href="class_o_r_b___s_l_a_m2_1_1_map.html" target="_top" xlink:title="Mapa del mundo, de puntos y keyframes. ">
<polygon fill="white" stroke="black" points="34,-254.497 34,-273.497 135,-273.497 135,-254.497 34,-254.497"/>
<text text-anchor="middle" x="84.5" y="-261.497" font-family="Helvetica,sans-Serif" font-size="10.00">ORB_SLAM2::Map</text>
</a>
</g>
</g>
<!-- Node4&#45;&gt;Node1 -->
<g id="edge6" class="edge"><title>Node4&#45;&gt;Node1</title>
<path fill="none" stroke="#9a32cd" stroke-dasharray="5,2" d="M109.145,-278.836C129.21,-290.867 159.102,-307.494 187,-317.997 319.142,-367.747 482.453,-398.986 570.184,-413.467"/>
<polygon fill="#9a32cd" stroke="#9a32cd" points="110.76,-275.721 100.399,-273.508 107.118,-281.7 110.76,-275.721"/>
<text text-anchor="middle" x="344.5" y="-383.997" font-family="Helvetica,sans-Serif" font-size="10.00"> mpMap</text>
</g>
<!-- Node4&#45;&gt;Node3 -->
<g id="edge5" class="edge"><title>Node4&#45;&gt;Node3</title>
<path fill="none" stroke="#9a32cd" stroke-dasharray="5,2" d="M95.903,-282.459C112.884,-311.777 148.541,-370.053 187,-412.997 234.009,-465.489 301.344,-516.545 329.885,-537.29"/>
<polygon fill="#9a32cd" stroke="#9a32cd" points="98.889,-280.63 90.8833,-273.69 92.814,-284.108 98.889,-280.63"/>
<text text-anchor="middle" x="225" y="-484.997" font-family="Helvetica,sans-Serif" font-size="10.00"> mpMap</text>
</g>
<!-- Node4&#45;&gt;Node5 -->
<g id="edge10" class="edge"><title>Node4&#45;&gt;Node5</title>
<path fill="none" stroke="#9a32cd" stroke-dasharray="5,2" d="M104.305,-280.338C124.171,-297.231 156.748,-323.899 187,-343.997 226.768,-370.417 237.531,-376.25 281,-395.997 335.658,-420.826 364.693,-400.422 408,-441.997 423.242,-456.629 408.518,-474.131 426,-485.997 487.927,-528.031 706.437,-506.083 817.757,-491.521"/>
<polygon fill="#9a32cd" stroke="#9a32cd" points="106.483,-277.595 96.6131,-273.744 101.927,-282.91 106.483,-277.595"/>
<text text-anchor="middle" x="487" y="-511.997" font-family="Helvetica,sans-Serif" font-size="10.00"> mpMap</text>
</g>
<!-- Node4&#45;&gt;Node6 -->
<g id="edge20" class="edge"><title>Node4&#45;&gt;Node6</title>
<path fill="none" stroke="#9a32cd" stroke-dasharray="5,2" d="M145.328,-270.702C236.128,-280.6 414.226,-298.926 566,-307.997 850.494,-325 924.176,-290.837 1207,-325.997 1255,-331.964 1309.37,-345.247 1343.55,-354.413"/>
<polygon fill="#9a32cd" stroke="#9a32cd" points="145.547,-267.205 135.226,-269.596 144.785,-274.163 145.547,-267.205"/>
<text text-anchor="middle" x="758" y="-315.997" font-family="Helvetica,sans-Serif" font-size="10.00"> mpMap</text>
</g>
<!-- Node7 -->
<g id="node7" class="node"><title>Node7</title>
<g id="a_node7"><a xlink:href="class_o_r_b___s_l_a_m2_1_1_frame_drawer.html" target="_top" xlink:title="Clase de instancia única que se ocupa de mostrar la imagen de la cámara, con marcas verdes sobre los ...">
<polygon fill="white" stroke="black" points="814.5,-51.497 814.5,-70.497 955.5,-70.497 955.5,-51.497 814.5,-51.497"/>
<text text-anchor="middle" x="885" y="-58.497" font-family="Helvetica,sans-Serif" font-size="10.00">ORB_SLAM2::FrameDrawer</text>
</a>
</g>
</g>
<!-- Node4&#45;&gt;Node7 -->
<g id="edge13" class="edge"><title>Node4&#45;&gt;Node7</title>
<path fill="none" stroke="#9a32cd" stroke-dasharray="5,2" d="M93.1237,-245.231C106.789,-214.311 138.625,-153.362 187,-125.997 397.237,-7.06733 701.146,-33.6253 826.559,-51.4517"/>
<polygon fill="#9a32cd" stroke="#9a32cd" points="89.8856,-243.902 89.1882,-254.474 96.3261,-246.645 89.8856,-243.902"/>
<text text-anchor="middle" x="487" y="-51.997" font-family="Helvetica,sans-Serif" font-size="10.00"> mpMap</text>
</g>
<!-- Node9 -->
<g id="node9" class="node"><title>Node9</title>
<g id="a_node9"><a xlink:href="class_o_r_b___s_l_a_m2_1_1_map_drawer.html" target="_top" xlink:title="Esta clase contiene los métodos para dibujar en pangolin. ">
<polygon fill="white" stroke="black" points="819,-197.497 819,-216.497 951,-216.497 951,-197.497 819,-197.497"/>
<text text-anchor="middle" x="885" y="-204.497" font-family="Helvetica,sans-Serif" font-size="10.00">ORB_SLAM2::MapDrawer</text>
</a>
</g>
</g>
<!-- Node4&#45;&gt;Node9 -->
<g id="edge19" class="edge"><title>Node4&#45;&gt;Node9</title>
<path fill="none" stroke="#9a32cd" stroke-dasharray="5,2" d="M145.283,-259.729C291.627,-249.283 666.949,-222.491 818.786,-211.652"/>
<polygon fill="#9a32cd" stroke="#9a32cd" points="144.873,-256.25 135.148,-260.453 145.372,-263.232 144.873,-256.25"/>
<text text-anchor="middle" x="487" y="-241.997" font-family="Helvetica,sans-Serif" font-size="10.00"> mpMap</text>
</g>
<!-- Node4&#45;&gt;Node13 -->
<g id="edge34" class="edge"><title>Node4&#45;&gt;Node13</title>
<path fill="none" stroke="#9a32cd" stroke-dasharray="5,2" d="M145.637,-253.039C286.848,-228.559 650.762,-172.733 956,-187.997 1000.58,-190.226 1050.84,-195.388 1088.39,-199.77"/>
<polygon fill="#9a32cd" stroke="#9a32cd" points="144.708,-249.648 135.459,-254.816 145.912,-256.544 144.708,-249.648"/>
<text text-anchor="middle" x="634" y="-200.997" font-family="Helvetica,sans-Serif" font-size="10.00"> mpMap</text>
</g>
<!-- Node14 -->
<g id="node14" class="node"><title>Node14</title>
<g id="a_node14"><a xlink:href="class_o_r_b___s_l_a_m2_1_1_serializer.html" target="_top" xlink:title="Clase encargada de la serialización (guarda y carga) del mapa. ">
<polygon fill="white" stroke="black" points="426,-125.497 426,-144.497 548,-144.497 548,-125.497 426,-125.497"/>
<text text-anchor="middle" x="487" y="-132.497" font-family="Helvetica,sans-Serif" font-size="10.00">ORB_SLAM2::Serializer</text>
</a>
</g>
</g>
<!-- Node4&#45;&gt;Node14 -->
<g id="edge37" class="edge"><title>Node4&#45;&gt;Node14</title>
<path fill="none" stroke="#9a32cd" stroke-dasharray="5,2" d="M95.9895,-245.242C111.837,-218.996 144.588,-172.258 187,-151.997 263.237,-115.577 363.164,-118.544 425.988,-125.569"/>
<polygon fill="#9a32cd" stroke="#9a32cd" points="92.7791,-243.799 90.7588,-254.199 98.8239,-247.329 92.7791,-243.799"/>
<text text-anchor="middle" x="225" y="-154.997" font-family="Helvetica,sans-Serif" font-size="10.00"> mapa</text>
</g>
<!-- Node5&#45;&gt;Node1 -->
<g id="edge7" class="edge"><title>Node5&#45;&gt;Node1</title>
<path fill="none" stroke="#9a32cd" stroke-dasharray="5,2" d="M803.566,-475.706C776.672,-472.418 746.745,-467.455 720,-459.997 695.97,-453.296 669.879,-441.146 653.031,-432.601"/>
<polygon fill="#9a32cd" stroke="#9a32cd" points="803.374,-479.207 813.712,-476.886 804.183,-472.254 803.374,-479.207"/>
<text text-anchor="middle" x="758" y="-476.997" font-family="Helvetica,sans-Serif" font-size="10.00"> mpLocalMapper</text>
</g>
<!-- Node5&#45;&gt;Node6 -->
<g id="edge21" class="edge"><title>Node5&#45;&gt;Node6</title>
<path fill="none" stroke="#9a32cd" stroke-dasharray="5,2" d="M933.884,-493.653C1016.52,-510.864 1187.92,-533.481 1301,-457.997 1335.13,-435.218 1361.65,-392.601 1372.35,-373.585"/>
<polygon fill="#9a32cd" stroke="#9a32cd" points="934.529,-490.212 924.017,-491.536 933.06,-497.056 934.529,-490.212"/>
<text text-anchor="middle" x="1146.5" y="-512.997" font-family="Helvetica,sans-Serif" font-size="10.00"> mpLocalMapper</text>
</g>
<!-- Node5&#45;&gt;Node13 -->
<g id="edge35" class="edge"><title>Node5&#45;&gt;Node13</title>
<path fill="none" stroke="#9a32cd" stroke-dasharray="5,2" d="M894.562,-463.008C907.981,-435.062 936.368,-382.647 974,-349.997 1008.99,-319.643 1037.88,-340.187 1068,-304.997 1086.1,-283.845 1069.22,-267.212 1086,-244.997 1095.46,-232.479 1110.33,-222.979 1122.84,-216.608"/>
<polygon fill="#9a32cd" stroke="#9a32cd" points="891.223,-461.887 890.164,-472.428 897.566,-464.848 891.223,-461.887"/>
<text text-anchor="middle" x="1021" y="-352.997" font-family="Helvetica,sans-Serif" font-size="10.00"> mpLocalMapper</text>
</g>
<!-- Node6&#45;&gt;Node1 -->
<g id="edge42" class="edge"><title>Node6&#45;&gt;Node1</title>
<path fill="none" stroke="#9a32cd" stroke-dasharray="5,2" d="M1336.77,-376.233C1325.3,-379.245 1312.75,-382.136 1301,-383.997 1083.93,-418.382 822.754,-423.22 702.112,-423.422"/>
<polygon fill="#9a32cd" stroke="#9a32cd" points="1337.8,-379.582 1346.53,-373.579 1335.96,-372.827 1337.8,-379.582"/>
<text text-anchor="middle" x="1021" y="-417.997" font-family="Helvetica,sans-Serif" font-size="10.00"> mpTracker</text>
</g>
<!-- Node6&#45;&gt;Node5 -->
<g id="edge11" class="edge"><title>Node6&#45;&gt;Node5</title>
<path fill="none" stroke="#9a32cd" stroke-dasharray="5,2" d="M1364.21,-381.598C1350.42,-398.423 1327.22,-422.957 1301,-434.997 1241.28,-462.417 1058.1,-474.57 956.211,-479.329"/>
<polygon fill="#9a32cd" stroke="#9a32cd" points="1367.07,-383.623 1370.53,-373.609 1361.58,-379.28 1367.07,-383.623"/>
<text text-anchor="middle" x="1146.5" y="-473.997" font-family="Helvetica,sans-Serif" font-size="10.00"> mpTracker</text>
</g>
<!-- Node12 -->
<g id="node12" class="node"><title>Node12</title>
<g id="a_node12"><a xlink:href="class_o_r_b___s_l_a_m2_1_1_viewer.html" target="_top" xlink:title="Viewer representa la interfaz de usuario. ">
<polygon fill="white" stroke="black" points="1524,-171.497 1524,-190.497 1636,-190.497 1636,-171.497 1524,-171.497"/>
<text text-anchor="middle" x="1580" y="-178.497" font-family="Helvetica,sans-Serif" font-size="10.00">ORB_SLAM2::Viewer</text>
</a>
</g>
</g>
<!-- Node6&#45;&gt;Node12 -->
<g id="edge28" class="edge"><title>Node6&#45;&gt;Node12</title>
<path fill="none" stroke="#9a32cd" stroke-dasharray="5,2" d="M1395.18,-346.51C1410.29,-329.933 1434.02,-304.575 1456,-283.997 1494.84,-247.64 1544.19,-208.199 1566.75,-190.514"/>
<polygon fill="#9a32cd" stroke="#9a32cd" points="1392.24,-344.544 1388.12,-354.307 1397.43,-349.242 1392.24,-344.544"/>
<text text-anchor="middle" x="1481" y="-286.997" font-family="Helvetica,sans-Serif" font-size="10.00"> mpTracker</text>
</g>
<!-- Node6&#45;&gt;Node13 -->
<g id="edge38" class="edge"><title>Node6&#45;&gt;Node13</title>
<path fill="none" stroke="#9a32cd" stroke-dasharray="5,2" d="M1373.14,-344.62C1364.96,-313.203 1344.09,-251.774 1301,-222.997 1273.04,-204.323 1235.6,-200.113 1204.7,-200.673"/>
<polygon fill="#9a32cd" stroke="#9a32cd" points="1369.75,-345.493 1375.52,-354.378 1376.55,-343.833 1369.75,-345.493"/>
<text text-anchor="middle" x="1263" y="-225.997" font-family="Helvetica,sans-Serif" font-size="10.00"> mpTracker</text>
</g>
<!-- Node7&#45;&gt;Node6 -->
<g id="edge12" class="edge"><title>Node7&#45;&gt;Node6</title>
<path fill="none" stroke="#9a32cd" stroke-dasharray="5,2" d="M927.775,-48.8244C1010.92,-27.4244 1197.96,6.13121 1301,-89.997 1321.04,-108.691 1312.04,-185.492 1319,-211.997 1333.59,-267.513 1361.82,-330.561 1372.89,-354.288"/>
<polygon fill="#9a32cd" stroke="#9a32cd" points="926.7,-45.4882 917.927,-51.4283 928.49,-52.2556 926.7,-45.4882"/>
<text text-anchor="middle" x="1146.5" y="-41.997" font-family="Helvetica,sans-Serif" font-size="10.00"> mpFrameDrawer</text>
</g>
<!-- Node7&#45;&gt;Node12 -->
<g id="edge26" class="edge"><title>Node7&#45;&gt;Node12</title>
<path fill="none" stroke="#9a32cd" stroke-dasharray="5,2" d="M911.82,-46.5872C928.892,-37.8926 952.087,-27.6281 974,-22.997 1116.25,7.06604 1162.06,10.8288 1301,-31.997 1410.63,-65.7892 1527.01,-144.06 1565.67,-171.38"/>
<polygon fill="#9a32cd" stroke="#9a32cd" points="909.754,-43.7191 902.532,-51.4706 913.012,-49.915 909.754,-43.7191"/>
<text text-anchor="middle" x="1263" y="-34.997" font-family="Helvetica,sans-Serif" font-size="10.00"> mpFrameDrawer</text>
</g>
<!-- Node7&#45;&gt;Node13 -->
<g id="edge30" class="edge"><title>Node7&#45;&gt;Node13</title>
<path fill="none" stroke="#9a32cd" stroke-dasharray="5,2" d="M965.661,-72.3319C999.24,-79.7928 1037.52,-92.0331 1068,-111.997 1102.72,-134.738 1129.51,-177.955 1140.31,-197.259"/>
<polygon fill="#9a32cd" stroke="#9a32cd" points="966.375,-68.9055 955.867,-70.2593 964.925,-75.7538 966.375,-68.9055"/>
<text text-anchor="middle" x="1021" y="-114.997" font-family="Helvetica,sans-Serif" font-size="10.00"> mpFrameDrawer</text>
</g>
<!-- Node8 -->
<g id="node8" class="node"><title>Node8</title>
<g id="a_node8"><a xlink:href="class_o_r_b___s_l_a_m2_1_1_initializer.html" target="_top" xlink:title="Inicializador de mapa en modo monocular. ">
<polygon fill="white" stroke="black" points="1086,-335.497 1086,-354.497 1207,-354.497 1207,-335.497 1086,-335.497"/>
<text text-anchor="middle" x="1146.5" y="-342.497" font-family="Helvetica,sans-Serif" font-size="10.00">ORB_SLAM2::Initializer</text>
</a>
</g>
</g>
<!-- Node8&#45;&gt;Node6 -->
<g id="edge17" class="edge"><title>Node8&#45;&gt;Node6</title>
<path fill="none" stroke="#9a32cd" stroke-dasharray="5,2" d="M1217.32,-350.765C1249.69,-353.439 1287.73,-356.581 1318.62,-359.133"/>
<polygon fill="#9a32cd" stroke="#9a32cd" points="1217.28,-347.25 1207.03,-349.915 1216.71,-354.226 1217.28,-347.25"/>
<text text-anchor="middle" x="1263" y="-359.997" font-family="Helvetica,sans-Serif" font-size="10.00"> mpInitializer</text>
</g>
<!-- Node9&#45;&gt;Node6 -->
<g id="edge18" class="edge"><title>Node9&#45;&gt;Node6</title>
<path fill="none" stroke="#9a32cd" stroke-dasharray="5,2" d="M947.691,-218.424C1055.49,-238.659 1269.72,-280.148 1301,-295.997 1330.17,-310.774 1356.93,-339.438 1369.67,-354.393"/>
<polygon fill="#9a32cd" stroke="#9a32cd" points="948.074,-214.935 937.601,-216.534 946.785,-221.816 948.074,-214.935"/>
<text text-anchor="middle" x="1146.5" y="-271.997" font-family="Helvetica,sans-Serif" font-size="10.00"> mpMapDrawer</text>
</g>
<!-- Node9&#45;&gt;Node12 -->
<g id="edge27" class="edge"><title>Node9&#45;&gt;Node12</title>
<path fill="none" stroke="#9a32cd" stroke-dasharray="5,2" d="M938.591,-195.353C1004.94,-181.312 1122.75,-158.533 1225,-149.997 1258.66,-147.187 1267.24,-149.012 1301,-149.997 1361.97,-151.776 1377.11,-154.428 1438,-157.997 1468.22,-159.768 1476.1,-157.273 1506,-161.997 1519.84,-164.184 1534.86,-167.862 1547.66,-171.402"/>
<polygon fill="#9a32cd" stroke="#9a32cd" points="937.838,-191.935 928.788,-197.444 939.298,-198.781 937.838,-191.935"/>
<text text-anchor="middle" x="1263" y="-152.997" font-family="Helvetica,sans-Serif" font-size="10.00"> mpMapDrawer</text>
</g>
<!-- Node9&#45;&gt;Node13 -->
<g id="edge33" class="edge"><title>Node9&#45;&gt;Node13</title>
<path fill="none" stroke="#9a32cd" stroke-dasharray="5,2" d="M961.247,-206.997C1001.75,-206.997 1050.92,-206.997 1088.28,-206.997"/>
<polygon fill="#9a32cd" stroke="#9a32cd" points="961.148,-203.497 951.148,-206.997 961.148,-210.497 961.148,-203.497"/>
<text text-anchor="middle" x="1021" y="-209.997" font-family="Helvetica,sans-Serif" font-size="10.00"> mpMapDrawer</text>
</g>
<!-- Node10&#45;&gt;Node6 -->
<g id="edge22" class="edge"><title>Node10&#45;&gt;Node6</title>
<path fill="none" stroke="#9a32cd" stroke-dasharray="5,2" d="M1211.83,-602.173C1247.62,-596.08 1287.58,-586.924 1301,-574.997 1363.9,-519.079 1375.12,-407.309 1377.09,-373.746"/>
<polygon fill="#9a32cd" stroke="#9a32cd" points="1211.17,-598.734 1201.87,-603.81 1212.31,-605.641 1211.17,-598.734"/>
<text text-anchor="middle" x="1263" y="-623.997" font-family="Helvetica,sans-Serif" font-size="10.00"> mLastFrame</text>
<text text-anchor="middle" x="1263" y="-612.997" font-family="Helvetica,sans-Serif" font-size="10.00">mCurrentFrame</text>
<text text-anchor="middle" x="1263" y="-601.997" font-family="Helvetica,sans-Serif" font-size="10.00">mInitialFrame</text>
</g>
<!-- Node11 -->
<g id="node11" class="node"><title>Node11</title>
<g id="a_node11"><a xlink:href="class_o_r_b___s_l_a_m2_1_1_o_r_bextractor.html" target="_top" xlink:title="Empaqueta todos los métodos de detección de puntos singulares y extracción de descriptores. ">
<polygon fill="white" stroke="black" points="814,-551.497 814,-570.497 956,-570.497 956,-551.497 814,-551.497"/>
<text text-anchor="middle" x="885" y="-558.497" font-family="Helvetica,sans-Serif" font-size="10.00">ORB_SLAM2::ORBextractor</text>
</a>
</g>
</g>
<!-- Node11&#45;&gt;Node6 -->
<g id="edge41" class="edge"><title>Node11&#45;&gt;Node6</title>
<path fill="none" stroke="#9a32cd" stroke-dasharray="5,2" d="M966.392,-557.846C1031.95,-553.883 1126.54,-544.973 1207,-524.997 1250.57,-514.179 1266.56,-516.801 1301,-487.997 1340.39,-455.055 1365.41,-396.386 1374.09,-373.505"/>
<polygon fill="#9a32cd" stroke="#9a32cd" points="965.906,-554.368 956.125,-558.44 966.311,-561.356 965.906,-554.368"/>
<text text-anchor="middle" x="1146.5" y="-559.997" font-family="Helvetica,sans-Serif" font-size="10.00"> mpORBextractorLeft</text>
<text text-anchor="middle" x="1146.5" y="-548.997" font-family="Helvetica,sans-Serif" font-size="10.00">mpIniORBextractor</text>
</g>
<!-- Node11&#45;&gt;Node10 -->
<g id="edge24" class="edge"><title>Node11&#45;&gt;Node10</title>
<path fill="none" stroke="#9a32cd" stroke-dasharray="5,2" d="M966.512,-571.193C998.292,-575.787 1035.02,-581.809 1068,-588.997 1083.72,-592.423 1100.95,-597.21 1115.17,-601.445"/>
<polygon fill="#9a32cd" stroke="#9a32cd" points="966.772,-567.695 956.379,-569.752 965.787,-574.625 966.772,-567.695"/>
<text text-anchor="middle" x="1021" y="-591.997" font-family="Helvetica,sans-Serif" font-size="10.00"> mpORBextractorLeft</text>
</g>
<!-- Node12&#45;&gt;Node6 -->
<g id="edge25" class="edge"><title>Node12&#45;&gt;Node6</title>
<path fill="none" stroke="#9a32cd" stroke-dasharray="5,2" d="M1571.15,-200.032C1559.91,-225.356 1537.11,-270.266 1506,-298.997 1477.25,-325.551 1435.61,-344.14 1408.06,-354.448"/>
<polygon fill="#9a32cd" stroke="#9a32cd" points="1574.4,-201.343 1575.13,-190.773 1567.97,-198.58 1574.4,-201.343"/>
<text text-anchor="middle" x="1481" y="-333.997" font-family="Helvetica,sans-Serif" font-size="10.00"> mpViewer</text>
</g>
<!-- Node12&#45;&gt;Node13 -->
<g id="edge39" class="edge"><title>Node12&#45;&gt;Node13</title>
<path fill="none" stroke="#9a32cd" stroke-dasharray="5,2" d="M1513.66,-184.934C1429.56,-190.001 1284.8,-198.724 1204.8,-203.544"/>
<polygon fill="#9a32cd" stroke="#9a32cd" points="1514.08,-188.415 1523.85,-184.32 1513.66,-181.428 1514.08,-188.415"/>
<text text-anchor="middle" x="1378.5" y="-199.997" font-family="Helvetica,sans-Serif" font-size="10.00"> mpViewer</text>
</g>
<!-- Node13&#45;&gt;Node6 -->
<g id="edge40" class="edge"><title>Node13&#45;&gt;Node6</title>
<path fill="none" stroke="#9a32cd" stroke-dasharray="5,2" d="M1183.51,-219.89C1196.54,-224.463 1211.4,-229.571 1225,-233.997 1258.56,-244.916 1272.32,-236.435 1301,-256.997 1337.93,-283.475 1363.67,-333.444 1373.3,-354.383"/>
<polygon fill="#9a32cd" stroke="#9a32cd" points="1184.55,-216.544 1173.95,-216.516 1182.22,-223.145 1184.55,-216.544"/>
<text text-anchor="middle" x="1263" y="-259.997" font-family="Helvetica,sans-Serif" font-size="10.00"> mpSystem</text>
</g>
<!-- Node13&#45;&gt;Node12 -->
<g id="edge29" class="edge"><title>Node13&#45;&gt;Node12</title>
<path fill="none" stroke="#9a32cd" stroke-dasharray="5,2" d="M1174.75,-192.92C1189.26,-186.157 1207.66,-178.725 1225,-174.997 1328.81,-152.681 1453.72,-163.215 1523.97,-172.426"/>
<polygon fill="#9a32cd" stroke="#9a32cd" points="1172.86,-189.942 1165.38,-197.442 1175.91,-196.246 1172.86,-189.942"/>
<text text-anchor="middle" x="1378.5" y="-166.997" font-family="Helvetica,sans-Serif" font-size="10.00"> mpSystem</text>
</g>
<!-- Node14&#45;&gt;Node13 -->
<g id="edge36" class="edge"><title>Node14&#45;&gt;Node13</title>
<path fill="none" stroke="#9a32cd" stroke-dasharray="5,2" d="M558.4,-125.269C669.721,-112.546 891.83,-98.0359 1068,-154.997 1094.83,-163.671 1120.99,-184.576 1135,-197.079"/>
<polygon fill="#9a32cd" stroke="#9a32cd" points="557.827,-121.813 548.303,-126.454 558.642,-128.765 557.827,-121.813"/>
<text text-anchor="middle" x="758" y="-117.997" font-family="Helvetica,sans-Serif" font-size="10.00"> serializer</text>
</g>
</g>
</svg>
