<?xml version="1.0" encoding="UTF-8" standalone="no"?>
<!DOCTYPE svg PUBLIC "-//W3C//DTD SVG 1.1//EN"
 "http://www.w3.org/Graphics/SVG/1.1/DTD/svg11.dtd">
<!-- Generated by graphviz version 2.38.0 (20140413.2041)
 -->
<!-- Title: ORB_SLAM2::MapPoint Pages: 1 -->
<svg width="1315pt" height="224pt"
 viewBox="0.00 0.00 1315.00 224.00" xmlns="http://www.w3.org/2000/svg" xmlns:xlink="http://www.w3.org/1999/xlink">
<g id="graph0" class="graph" transform="scale(1 1) rotate(0) translate(4 220)">
<title>ORB_SLAM2::MapPoint</title>
<polygon fill="white" stroke="none" points="-4,4 -4,-220 1311,-220 1311,4 -4,4"/>
<!-- Node1 -->
<g id="node1" class="node"><title>Node1</title>
<polygon fill="#bfbfbf" stroke="black" points="1184,-133.5 1184,-152.5 1307,-152.5 1307,-133.5 1184,-133.5"/>
<text text-anchor="middle" x="1245.5" y="-140.5" font-family="Helvetica,sans-Serif" font-size="10.00">ORB_SLAM2::MapPoint</text>
</g>
<!-- Node1&#45;&gt;Node1 -->
<g id="edge1" class="edge"><title>Node1&#45;&gt;Node1</title>
<path fill="none" stroke="#9a32cd" stroke-dasharray="5,2" d="M1226.61,-162.4C1227.87,-167.315 1234.17,-171 1245.5,-171 1263.63,-171 1268.87,-161.565 1261.22,-152.757"/>
<polygon fill="#9a32cd" stroke="#9a32cd" points="1229.98,-163.35 1229.78,-152.757 1223.33,-161.166 1229.98,-163.35"/>
<text text-anchor="middle" x="1245.5" y="-174" font-family="Helvetica,sans-Serif" font-size="10.00"> mpReplaced</text>
</g>
<!-- Node2 -->
<g id="node2" class="node"><title>Node2</title>
<g id="a_node2"><a xlink:href="class_o_r_b___s_l_a_m2_1_1_key_frame.html" target="_top" xlink:title="Cuadro clave, keyframe. ">
<polygon fill="white" stroke="black" points="975,-83.5 975,-102.5 1102,-102.5 1102,-83.5 975,-83.5"/>
<text text-anchor="middle" x="1038.5" y="-90.5" font-family="Helvetica,sans-Serif" font-size="10.00">ORB_SLAM2::KeyFrame</text>
</a>
</g>
</g>
<!-- Node2&#45;&gt;Node1 -->
<g id="edge2" class="edge"><title>Node2&#45;&gt;Node1</title>
<path fill="none" stroke="#9a32cd" stroke-dasharray="5,2" d="M1088.28,-104.898C1124.04,-113.62 1171.96,-125.307 1205.26,-133.428"/>
<polygon fill="#9a32cd" stroke="#9a32cd" points="1089.09,-101.492 1078.54,-102.522 1087.43,-108.292 1089.09,-101.492"/>
<text text-anchor="middle" x="1143" y="-126" font-family="Helvetica,sans-Serif" font-size="10.00"> mpRefKF</text>
</g>
<!-- Node2&#45;&gt;Node2 -->
<g id="edge6" class="edge"><title>Node2&#45;&gt;Node2</title>
<path fill="none" stroke="#9a32cd" stroke-dasharray="5,2" d="M1019.24,-112.4C1020.53,-117.315 1026.95,-121 1038.5,-121 1056.98,-121 1062.33,-111.565 1054.53,-102.757"/>
<polygon fill="#9a32cd" stroke="#9a32cd" points="1022.61,-113.351 1022.47,-102.757 1015.98,-111.128 1022.61,-113.351"/>
<text text-anchor="middle" x="1038.5" y="-124" font-family="Helvetica,sans-Serif" font-size="10.00"> mpParent</text>
</g>
<!-- Node3 -->
<g id="node3" class="node"><title>Node3</title>
<g id="a_node3"><a xlink:href="class_o_r_b___s_l_a_m2_1_1_key_frame_database.html" target="_top" xlink:title="Lista invertida de KeyFrames, accesible por BoW. ">
<polygon fill="white" stroke="black" points="462,-173.5 462,-192.5 631,-192.5 631,-173.5 462,-173.5"/>
<text text-anchor="middle" x="546.5" y="-180.5" font-family="Helvetica,sans-Serif" font-size="10.00">ORB_SLAM2::KeyFrameDatabase</text>
</a>
</g>
</g>
<!-- Node3&#45;&gt;Node2 -->
<g id="edge3" class="edge"><title>Node3&#45;&gt;Node2</title>
<path fill="none" stroke="#9a32cd" stroke-dasharray="5,2" d="M606.083,-194.199C675.437,-205.121 793.679,-216.334 890,-188 904.903,-183.616 989.718,-125.893 1023.56,-102.624"/>
<polygon fill="#9a32cd" stroke="#9a32cd" points="606.231,-190.677 595.798,-192.525 605.106,-197.586 606.231,-190.677"/>
<text text-anchor="middle" x="830.5" y="-208" font-family="Helvetica,sans-Serif" font-size="10.00"> mpKeyFrameDB</text>
</g>
<!-- Node6 -->
<g id="node6" class="node"><title>Node6</title>
<g id="a_node6"><a xlink:href="class_o_r_b___s_l_a_m2_1_1_map.html" target="_top" xlink:title="Mapa del mundo, de puntos y keyframes. ">
<polygon fill="white" stroke="black" points="780,-130.5 780,-149.5 881,-149.5 881,-130.5 780,-130.5"/>
<text text-anchor="middle" x="830.5" y="-137.5" font-family="Helvetica,sans-Serif" font-size="10.00">ORB_SLAM2::Map</text>
</a>
</g>
</g>
<!-- Node3&#45;&gt;Node6 -->
<g id="edge8" class="edge"><title>Node3&#45;&gt;Node6</title>
<path fill="none" stroke="#9a32cd" stroke-dasharray="5,2" d="M641.539,-173.761C676.645,-169.735 716.769,-164.446 753,-158 766.03,-155.682 780.169,-152.536 792.705,-149.523"/>
<polygon fill="#9a32cd" stroke="#9a32cd" points="640.843,-170.318 631.298,-174.917 641.628,-177.274 640.843,-170.318"/>
<text text-anchor="middle" x="701" y="-175" font-family="Helvetica,sans-Serif" font-size="10.00"> mpKeyFrameDatabase</text>
</g>
<!-- Node4 -->
<g id="node4" class="node"><title>Node4</title>
<g id="a_node4"><a xlink:href="class_d_bo_w2_1_1_templated_vocabulary.html" target="_top" xlink:title="Generic Vocabulary. ">
<polygon fill="white" stroke="black" points="240,-129 240,-159 392,-159 392,-129 240,-129"/>
<text text-anchor="start" x="248" y="-147" font-family="Helvetica,sans-Serif" font-size="10.00">DBoW2::TemplatedVocabulary</text>
<text text-anchor="middle" x="316" y="-136" font-family="Helvetica,sans-Serif" font-size="10.00">&lt; TDescriptor, F &gt;</text>
</a>
</g>
</g>
<!-- Node4&#45;&gt;Node2 -->
<g id="edge11" class="edge"><title>Node4&#45;&gt;Node2</title>
<path fill="none" stroke="#9a32cd" stroke-dasharray="5,2" d="M402.364,-137.958C549.035,-127.576 845.557,-106.587 974.849,-97.4347"/>
<polygon fill="#9a32cd" stroke="#9a32cd" points="401.795,-134.489 392.067,-138.686 402.289,-141.472 401.795,-134.489"/>
<text text-anchor="middle" x="701" y="-124" font-family="Helvetica,sans-Serif" font-size="10.00"> mpORBvocabulary</text>
</g>
<!-- Node4&#45;&gt;Node3 -->
<g id="edge4" class="edge"><title>Node4&#45;&gt;Node3</title>
<path fill="none" stroke="#9a32cd" stroke-dasharray="5,2" d="M402.317,-158.562C431.458,-163.535 463.286,-168.968 489.518,-173.445"/>
<polygon fill="#9a32cd" stroke="#9a32cd" points="402.582,-155.057 392.136,-156.824 401.404,-161.957 402.582,-155.057"/>
<text text-anchor="middle" x="427" y="-167" font-family="Helvetica,sans-Serif" font-size="10.00"> mpVoc</text>
</g>
<!-- Node4&#45;&gt;Node6 -->
<g id="edge10" class="edge"><title>Node4&#45;&gt;Node6</title>
<path fill="none" stroke="#9a32cd" stroke-dasharray="5,2" d="M402.271,-143.334C510.131,-142.493 692.323,-141.071 779.761,-140.388"/>
<polygon fill="#9a32cd" stroke="#9a32cd" points="402.043,-139.836 392.071,-143.414 402.098,-146.836 402.043,-139.836"/>
<text text-anchor="middle" x="546.5" y="-146" font-family="Helvetica,sans-Serif" font-size="10.00"> mpVocabulary</text>
</g>
<!-- Node5 -->
<g id="node5" class="node"><title>Node5</title>
<g id="a_node5"><a xlink:href="class_d_bo_w2_1_1_general_scoring.html" target="_top" xlink:title="Base class of scoring functions. ">
<polygon fill="white" stroke="black" points="0,-134.5 0,-153.5 124,-153.5 124,-134.5 0,-134.5"/>
<text text-anchor="middle" x="62" y="-141.5" font-family="Helvetica,sans-Serif" font-size="10.00">DBoW2::GeneralScoring</text>
</a>
</g>
</g>
<!-- Node5&#45;&gt;Node4 -->
<g id="edge5" class="edge"><title>Node5&#45;&gt;Node4</title>
<path fill="none" stroke="#9a32cd" stroke-dasharray="5,2" d="M134.021,-144C166.991,-144 206.21,-144 239.696,-144"/>
<polygon fill="#9a32cd" stroke="#9a32cd" points="134.002,-140.5 124.002,-144 134.002,-147.5 134.002,-140.5"/>
<text text-anchor="middle" x="182" y="-147" font-family="Helvetica,sans-Serif" font-size="10.00"> m_scoring_object</text>
</g>
<!-- Node6&#45;&gt;Node1 -->
<g id="edge16" class="edge"><title>Node6&#45;&gt;Node1</title>
<path fill="none" stroke="#9a32cd" stroke-dasharray="5,2" d="M891.477,-140.436C969.571,-141.003 1105.33,-141.989 1183.79,-142.559"/>
<polygon fill="#9a32cd" stroke="#9a32cd" points="891.343,-136.935 881.317,-140.362 891.292,-143.935 891.343,-136.935"/>
<text text-anchor="middle" x="1038.5" y="-145" font-family="Helvetica,sans-Serif" font-size="10.00"> mpMap</text>
</g>
<!-- Node6&#45;&gt;Node2 -->
<g id="edge7" class="edge"><title>Node6&#45;&gt;Node2</title>
<path fill="none" stroke="#9a32cd" stroke-dasharray="5,2" d="M884.763,-128.268C907.093,-123.31 933.32,-117.436 957,-112 970.156,-108.98 984.504,-105.616 997.395,-102.568"/>
<polygon fill="#9a32cd" stroke="#9a32cd" points="883.806,-124.895 874.801,-130.477 885.321,-131.729 883.806,-124.895"/>
<text text-anchor="middle" x="932.5" y="-126" font-family="Helvetica,sans-Serif" font-size="10.00"> mpMap</text>
</g>
<!-- Node6&#45;&gt;Node6 -->
<g id="edge9" class="edge"><title>Node6&#45;&gt;Node6</title>
<path fill="none" stroke="#9a32cd" stroke-dasharray="5,2" d="M811.612,-159.4C812.873,-164.315 819.169,-168 830.5,-168 848.629,-168 853.869,-158.565 846.221,-149.757"/>
<polygon fill="#9a32cd" stroke="#9a32cd" points="814.984,-160.35 814.779,-149.757 808.333,-158.166 814.984,-160.35"/>
<text text-anchor="middle" x="830.5" y="-171" font-family="Helvetica,sans-Serif" font-size="10.00"> mpMap</text>
</g>
<!-- Node7 -->
<g id="node7" class="node"><title>Node7</title>
<g id="a_node7"><a xlink:href="class_d_bo_w2_1_1_feature_vector.html" target="_top" xlink:title="Vector of nodes with indexes of local features. ">
<polygon fill="white" stroke="black" points="771,-47.5 771,-66.5 890,-66.5 890,-47.5 771,-47.5"/>
<text text-anchor="middle" x="830.5" y="-54.5" font-family="Helvetica,sans-Serif" font-size="10.00">DBoW2::FeatureVector</text>
</a>
</g>
</g>
<!-- Node7&#45;&gt;Node2 -->
<g id="edge12" class="edge"><title>Node7&#45;&gt;Node2</title>
<path fill="none" stroke="#9a32cd" stroke-dasharray="5,2" d="M900.25,-64.2957C918.744,-66.6581 938.693,-69.571 957,-73 972.145,-75.8368 988.693,-79.7962 1002.83,-83.4441"/>
<polygon fill="#9a32cd" stroke="#9a32cd" points="900.5,-60.7999 890.145,-63.0401 899.637,-67.7465 900.5,-60.7999"/>
<text text-anchor="middle" x="932.5" y="-76" font-family="Helvetica,sans-Serif" font-size="10.00"> mFeatVec</text>
</g>
<!-- Node8 -->
<g id="node8" class="node"><title>Node8</title>
<polygon fill="white" stroke="#bfbfbf" points="482,-39 482,-69 611,-69 611,-39 482,-39"/>
<text text-anchor="start" x="490" y="-57" font-family="Helvetica,sans-Serif" font-size="10.00">std::map&lt; NodeId, std</text>
<text text-anchor="middle" x="546.5" y="-46" font-family="Helvetica,sans-Serif" font-size="10.00">::vector&lt; unsigned int &gt; &gt;</text>
</g>
<!-- Node8&#45;&gt;Node7 -->
<g id="edge13" class="edge"><title>Node8&#45;&gt;Node7</title>
<path fill="none" stroke="midnightblue" d="M621.196,-54.784C667.886,-55.2807 727.439,-55.9142 770.9,-56.3766"/>
<polygon fill="midnightblue" stroke="midnightblue" points="621.175,-51.2837 611.138,-54.677 621.1,-58.2833 621.175,-51.2837"/>
</g>
<!-- Node9 -->
<g id="node9" class="node"><title>Node9</title>
<g id="a_node9"><a xlink:href="class_d_bo_w2_1_1_bow_vector.html" target="_top" xlink:title="Vector of words to represent images. ">
<polygon fill="white" stroke="black" points="778,-3.5 778,-22.5 883,-22.5 883,-3.5 778,-3.5"/>
<text text-anchor="middle" x="830.5" y="-10.5" font-family="Helvetica,sans-Serif" font-size="10.00">DBoW2::BowVector</text>
</a>
</g>
</g>
<!-- Node9&#45;&gt;Node2 -->
<g id="edge14" class="edge"><title>Node9&#45;&gt;Node2</title>
<path fill="none" stroke="#9a32cd" stroke-dasharray="5,2" d="M879.307,-25.2065C903.036,-31.8337 931.918,-40.7644 957,-51 980.06,-60.4103 1005.32,-74.2035 1021.28,-83.3848"/>
<polygon fill="#9a32cd" stroke="#9a32cd" points="880.049,-21.7807 869.479,-22.5101 878.197,-28.5312 880.049,-21.7807"/>
<text text-anchor="middle" x="932.5" y="-54" font-family="Helvetica,sans-Serif" font-size="10.00"> mBowVec</text>
</g>
<!-- Node10 -->
<g id="node10" class="node"><title>Node10</title>
<polygon fill="white" stroke="#bfbfbf" points="467.5,-0.5 467.5,-19.5 625.5,-19.5 625.5,-0.5 467.5,-0.5"/>
<text text-anchor="middle" x="546.5" y="-7.5" font-family="Helvetica,sans-Serif" font-size="10.00">std::map&lt; WordId, WordValue &gt;</text>
</g>
<!-- Node10&#45;&gt;Node9 -->
<g id="edge15" class="edge"><title>Node10&#45;&gt;Node9</title>
<path fill="none" stroke="midnightblue" d="M635.805,-10.9394C682.516,-11.4363 738.24,-12.0292 777.901,-12.4511"/>
<polygon fill="midnightblue" stroke="midnightblue" points="635.715,-7.43836 625.678,-10.8317 635.64,-14.438 635.715,-7.43836"/>
</g>
</g>
</svg>
