<?xml version="1.0" encoding="UTF-8" standalone="no"?>
<!DOCTYPE svg PUBLIC "-//W3C//DTD SVG 1.1//EN"
 "http://www.w3.org/Graphics/SVG/1.1/DTD/svg11.dtd">
<!-- Generated by graphviz version 2.38.0 (20140413.2041)
 -->
<!-- Title: ORB_SLAM2::LocalMapping Pages: 1 -->
<svg width="2096pt" height="909pt"
 viewBox="0.00 0.00 2096.00 909.38" xmlns="http://www.w3.org/2000/svg" xmlns:xlink="http://www.w3.org/1999/xlink">
<g id="graph0" class="graph" transform="scale(1 1) rotate(0) translate(4 905.38)">
<title>ORB_SLAM2::LocalMapping</title>
<polygon fill="white" stroke="none" points="-4,4 -4,-905.38 2092,-905.38 2092,4 -4,4"/>
<!-- Node1 -->
<g id="node1" class="node"><title>Node1</title>
<polygon fill="#bfbfbf" stroke="black" points="1031,-357.88 1031,-376.88 1173,-376.88 1173,-357.88 1031,-357.88"/>
<text text-anchor="middle" x="1102" y="-364.88" font-family="Helvetica,sans-Serif" font-size="10.00">ORB_SLAM2::LocalMapping</text>
</g>
<!-- Node11 -->
<g id="node11" class="node"><title>Node11</title>
<g id="a_node11"><a xlink:href="class_o_r_b___s_l_a_m2_1_1_loop_closing.html" target="_top" xlink:title="Cierre de bucles. ">
<polygon fill="white" stroke="black" points="1287.5,-462.88 1287.5,-481.88 1423.5,-481.88 1423.5,-462.88 1287.5,-462.88"/>
<text text-anchor="middle" x="1355.5" y="-469.88" font-family="Helvetica,sans-Serif" font-size="10.00">ORB_SLAM2::LoopClosing</text>
</a>
</g>
</g>
<!-- Node1&#45;&gt;Node11 -->
<g id="edge18" class="edge"><title>Node1&#45;&gt;Node11</title>
<path fill="none" stroke="#9a32cd" stroke-dasharray="5,2" d="M1183.41,-378.019C1217.4,-383.542 1252.46,-390.908 1267,-399.38 1277.62,-405.567 1276.02,-411.98 1285,-420.38 1302.6,-436.855 1325.35,-453.049 1339.94,-462.877"/>
<polygon fill="#9a32cd" stroke="#9a32cd" points="1183.83,-374.541 1173.4,-376.438 1182.73,-381.455 1183.83,-374.541"/>
<text text-anchor="middle" x="1229" y="-402.38" font-family="Helvetica,sans-Serif" font-size="10.00"> mpLocalMapper</text>
</g>
<!-- Node13 -->
<g id="node13" class="node"><title>Node13</title>
<g id="a_node13"><a xlink:href="class_o_r_b___s_l_a_m2_1_1_tracking.html" target="_top" xlink:title="Objeto único que se ejecuta en su propio Trhead, y se inicia con Run(). ">
<polygon fill="white" stroke="black" points="1771,-399.88 1771,-418.88 1890,-418.88 1890,-399.88 1771,-399.88"/>
<text text-anchor="middle" x="1830.5" y="-406.88" font-family="Helvetica,sans-Serif" font-size="10.00">ORB_SLAM2::Tracking</text>
</a>
</g>
</g>
<!-- Node1&#45;&gt;Node13 -->
<g id="edge30" class="edge"><title>Node1&#45;&gt;Node13</title>
<path fill="none" stroke="#9a32cd" stroke-dasharray="5,2" d="M1182.74,-356.97C1185.52,-356.747 1188.28,-356.549 1191,-356.38 1224.71,-354.281 1233.25,-355.048 1267,-356.38 1483.53,-364.925 1538.17,-367.035 1753,-395.38 1762.24,-396.599 1772.05,-398.177 1781.46,-399.834"/>
<polygon fill="#9a32cd" stroke="#9a32cd" points="1182.23,-353.501 1172.58,-357.872 1182.85,-360.474 1182.23,-353.501"/>
<text text-anchor="middle" x="1482" y="-372.38" font-family="Helvetica,sans-Serif" font-size="10.00"> mpLocalMapper</text>
</g>
<!-- Node20 -->
<g id="node20" class="node"><title>Node20</title>
<g id="a_node20"><a xlink:href="class_o_r_b___s_l_a_m2_1_1_system.html" target="_top" xlink:title="System se instancia una única vez en main, en la variable SLAM. ">
<polygon fill="white" stroke="black" points="1540.5,-184.88 1540.5,-203.88 1656.5,-203.88 1656.5,-184.88 1540.5,-184.88"/>
<text text-anchor="middle" x="1598.5" y="-191.88" font-family="Helvetica,sans-Serif" font-size="10.00">ORB_SLAM2::System</text>
</a>
</g>
</g>
<!-- Node1&#45;&gt;Node20 -->
<g id="edge48" class="edge"><title>Node1&#45;&gt;Node20</title>
<path fill="none" stroke="#9a32cd" stroke-dasharray="5,2" d="M1118.72,-350.235C1135.04,-333.658 1162.18,-309.344 1191,-297.38 1326.95,-240.945 1384.8,-317.573 1520,-259.38 1527.74,-256.048 1567.46,-221.151 1586.84,-203.911"/>
<polygon fill="#9a32cd" stroke="#9a32cd" points="1116,-348.017 1111.62,-357.664 1121.06,-352.855 1116,-348.017"/>
<text text-anchor="middle" x="1355.5" y="-286.38" font-family="Helvetica,sans-Serif" font-size="10.00"> mpLocalMapper</text>
</g>
<!-- Node2 -->
<g id="node2" class="node"><title>Node2</title>
<g id="a_node2"><a xlink:href="class_o_r_b___s_l_a_m2_1_1_key_frame.html" target="_top" xlink:title="Cuadro clave, keyframe. ">
<polygon fill="white" stroke="black" points="766.5,-629.88 766.5,-648.88 893.5,-648.88 893.5,-629.88 766.5,-629.88"/>
<text text-anchor="middle" x="830" y="-636.88" font-family="Helvetica,sans-Serif" font-size="10.00">ORB_SLAM2::KeyFrame</text>
</a>
</g>
</g>
<!-- Node2&#45;&gt;Node1 -->
<g id="edge1" class="edge"><title>Node2&#45;&gt;Node1</title>
<path fill="none" stroke="#9a32cd" stroke-dasharray="5,2" d="M837.343,-619.76C848.95,-586.395 876.402,-517.988 919,-474.38 952.514,-440.071 971.665,-445.704 1013,-421.38 1038.8,-406.198 1068.39,-387.844 1085.84,-376.917"/>
<polygon fill="#9a32cd" stroke="#9a32cd" points="833.888,-619.051 834.015,-629.645 840.523,-621.285 833.888,-619.051"/>
<text text-anchor="middle" x="966" y="-477.38" font-family="Helvetica,sans-Serif" font-size="10.00"> mpCurrentKeyFrame</text>
</g>
<!-- Node2&#45;&gt;Node2 -->
<g id="edge5" class="edge"><title>Node2&#45;&gt;Node2</title>
<path fill="none" stroke="#9a32cd" stroke-dasharray="5,2" d="M805.447,-658.409C806.786,-663.508 814.97,-667.38 830,-667.38 853.461,-667.38 860.243,-657.945 850.345,-649.137"/>
<polygon fill="#9a32cd" stroke="#9a32cd" points="808.709,-659.69 809.655,-649.137 802.335,-656.796 808.709,-659.69"/>
<text text-anchor="middle" x="830" y="-670.38" font-family="Helvetica,sans-Serif" font-size="10.00"> mpParent</text>
</g>
<!-- Node2&#45;&gt;Node11 -->
<g id="edge14" class="edge"><title>Node2&#45;&gt;Node11</title>
<path fill="none" stroke="#9a32cd" stroke-dasharray="5,2" d="M903.881,-637.707C993.891,-632.946 1149.48,-615.766 1267,-555.38 1302.76,-537.006 1334.1,-499.506 1347.53,-481.904"/>
<polygon fill="#9a32cd" stroke="#9a32cd" points="903.589,-634.217 893.773,-638.203 903.933,-641.208 903.589,-634.217"/>
<text text-anchor="middle" x="1102" y="-639.38" font-family="Helvetica,sans-Serif" font-size="10.00"> mpMatchedKF</text>
<text text-anchor="middle" x="1102" y="-628.38" font-family="Helvetica,sans-Serif" font-size="10.00">mpCurrentKF</text>
</g>
<!-- Node2&#45;&gt;Node13 -->
<g id="edge23" class="edge"><title>Node2&#45;&gt;Node13</title>
<path fill="none" stroke="#9a32cd" stroke-dasharray="5,2" d="M903.954,-646.623C941.814,-650.025 988.846,-653.696 1031,-655.38 1270.73,-664.954 1741.11,-643.227 1753,-634.38 1825.16,-580.693 1829.9,-455.281 1829.71,-419.232"/>
<polygon fill="#9a32cd" stroke="#9a32cd" points="903.807,-643.095 893.53,-645.672 903.171,-650.066 903.807,-643.095"/>
<text text-anchor="middle" x="1355.5" y="-671.38" font-family="Helvetica,sans-Serif" font-size="10.00"> mpLastKeyFrame</text>
<text text-anchor="middle" x="1355.5" y="-660.38" font-family="Helvetica,sans-Serif" font-size="10.00">mpReferenceKF</text>
</g>
<!-- Node17 -->
<g id="node17" class="node"><title>Node17</title>
<g id="a_node17"><a xlink:href="class_o_r_b___s_l_a_m2_1_1_frame.html" target="_top" xlink:title="Frame representa un cuadro, una imagen, con los puntos singulares detectados. ">
<polygon fill="white" stroke="black" points="1047,-768.88 1047,-787.88 1157,-787.88 1157,-768.88 1047,-768.88"/>
<text text-anchor="middle" x="1102" y="-775.88" font-family="Helvetica,sans-Serif" font-size="10.00">ORB_SLAM2::Frame</text>
</a>
</g>
</g>
<!-- Node2&#45;&gt;Node17 -->
<g id="edge32" class="edge"><title>Node2&#45;&gt;Node17</title>
<path fill="none" stroke="#9a32cd" stroke-dasharray="5,2" d="M864.761,-652.786C901.864,-667.931 962.86,-694.05 1013,-721.38 1040.49,-736.364 1070.77,-756.944 1087.67,-768.836"/>
<polygon fill="#9a32cd" stroke="#9a32cd" points="865.993,-649.509 855.411,-648.995 863.363,-655.996 865.993,-649.509"/>
<text text-anchor="middle" x="966" y="-724.38" font-family="Helvetica,sans-Serif" font-size="10.00"> mpReferenceKF</text>
</g>
<!-- Node3 -->
<g id="node3" class="node"><title>Node3</title>
<g id="a_node3"><a xlink:href="class_o_r_b___s_l_a_m2_1_1_key_frame_database.html" target="_top" xlink:title="Lista invertida de KeyFrames, accesible por BoW. ">
<polygon fill="white" stroke="black" points="468,-570.88 468,-589.88 637,-589.88 637,-570.88 468,-570.88"/>
<text text-anchor="middle" x="552.5" y="-577.88" font-family="Helvetica,sans-Serif" font-size="10.00">ORB_SLAM2::KeyFrameDatabase</text>
</a>
</g>
</g>
<!-- Node3&#45;&gt;Node2 -->
<g id="edge2" class="edge"><title>Node3&#45;&gt;Node2</title>
<path fill="none" stroke="#9a32cd" stroke-dasharray="5,2" d="M624.778,-591.624C659.933,-597.596 702.87,-605.529 741,-614.38 760.184,-618.833 781.43,-624.838 798.239,-629.846"/>
<polygon fill="#9a32cd" stroke="#9a32cd" points="625.049,-588.121 614.607,-589.914 623.888,-595.024 625.049,-588.121"/>
<text text-anchor="middle" x="698" y="-617.38" font-family="Helvetica,sans-Serif" font-size="10.00"> mpKeyFrameDB</text>
</g>
<!-- Node3&#45;&gt;Node11 -->
<g id="edge13" class="edge"><title>Node3&#45;&gt;Node11</title>
<path fill="none" stroke="#9a32cd" stroke-dasharray="5,2" d="M630.82,-569.526C638.981,-568.437 647.158,-567.369 655,-566.38 722.905,-557.815 1199.8,-509.359 1267,-496.38 1286.18,-492.676 1307.31,-486.929 1324,-481.988"/>
<polygon fill="#9a32cd" stroke="#9a32cd" points="630.343,-566.058 620.899,-570.861 631.276,-572.996 630.343,-566.058"/>
<text text-anchor="middle" x="966" y="-540.38" font-family="Helvetica,sans-Serif" font-size="10.00"> mpKeyFrameDB</text>
</g>
<!-- Node3&#45;&gt;Node13 -->
<g id="edge22" class="edge"><title>Node3&#45;&gt;Node13</title>
<path fill="none" stroke="#9a32cd" stroke-dasharray="5,2" d="M647.134,-586.654C677.137,-588.857 710.488,-591.506 741,-594.38 870.149,-606.545 901.487,-620.035 1031,-627.38 1356.85,-645.86 1471.34,-658.25 1753,-493.38 1785.68,-474.249 1812.37,-436.564 1823.68,-418.918"/>
<polygon fill="#9a32cd" stroke="#9a32cd" points="647.323,-583.159 637.096,-585.925 646.816,-590.141 647.323,-583.159"/>
<text text-anchor="middle" x="1229" y="-641.38" font-family="Helvetica,sans-Serif" font-size="10.00"> mpKeyFrameDB</text>
</g>
<!-- Node3&#45;&gt;Node20 -->
<g id="edge43" class="edge"><title>Node3&#45;&gt;Node20</title>
<path fill="none" stroke="#9a32cd" stroke-dasharray="5,2" d="M560.189,-560.671C572.947,-526.136 604.113,-454.81 655,-417.38 746.006,-350.441 791.878,-382.624 901,-353.38 1030.15,-318.769 1060.79,-303.755 1191,-273.38 1335.99,-239.557 1373.98,-239.431 1520,-210.38 1530.38,-208.316 1541.52,-206.046 1552.03,-203.88"/>
<polygon fill="#9a32cd" stroke="#9a32cd" points="556.746,-559.906 556.691,-570.501 563.341,-562.252 556.746,-559.906"/>
<text text-anchor="middle" x="1102" y="-319.38" font-family="Helvetica,sans-Serif" font-size="10.00"> mpKeyFrameDatabase</text>
</g>
<!-- Node4 -->
<g id="node4" class="node"><title>Node4</title>
<g id="a_node4"><a xlink:href="class_d_bo_w2_1_1_templated_vocabulary.html" target="_top" xlink:title="Generic Vocabulary. ">
<polygon fill="white" stroke="black" points="243,-603.38 243,-633.38 395,-633.38 395,-603.38 243,-603.38"/>
<text text-anchor="start" x="251" y="-621.38" font-family="Helvetica,sans-Serif" font-size="10.00">DBoW2::TemplatedVocabulary</text>
<text text-anchor="middle" x="319" y="-610.38" font-family="Helvetica,sans-Serif" font-size="10.00">&lt; TDescriptor, F &gt;</text>
</a>
</g>
</g>
<!-- Node4&#45;&gt;Node2 -->
<g id="edge7" class="edge"><title>Node4&#45;&gt;Node2</title>
<path fill="none" stroke="#9a32cd" stroke-dasharray="5,2" d="M405.377,-621.902C507.416,-626.112 675.718,-633.056 766.427,-636.798"/>
<polygon fill="#9a32cd" stroke="#9a32cd" points="405.241,-618.394 395.105,-621.479 404.952,-625.388 405.241,-618.394"/>
<text text-anchor="middle" x="552.5" y="-634.38" font-family="Helvetica,sans-Serif" font-size="10.00"> mpORBvocabulary</text>
</g>
<!-- Node4&#45;&gt;Node3 -->
<g id="edge3" class="edge"><title>Node4&#45;&gt;Node3</title>
<path fill="none" stroke="#9a32cd" stroke-dasharray="5,2" d="M405.03,-604.423C434.49,-599.587 466.811,-594.281 493.58,-589.887"/>
<polygon fill="#9a32cd" stroke="#9a32cd" points="404.462,-600.969 395.161,-606.042 405.596,-607.876 404.462,-600.969"/>
<text text-anchor="middle" x="433" y="-605.38" font-family="Helvetica,sans-Serif" font-size="10.00"> mpVoc</text>
</g>
<!-- Node4&#45;&gt;Node11 -->
<g id="edge17" class="edge"><title>Node4&#45;&gt;Node11</title>
<path fill="none" stroke="#9a32cd" stroke-dasharray="5,2" d="M338.593,-595.527C374.821,-553.766 459.418,-469.38 551.5,-469.38 551.5,-469.38 551.5,-469.38 967,-469.38 1079.35,-469.38 1210.02,-470.657 1287.3,-471.544"/>
<polygon fill="#9a32cd" stroke="#9a32cd" points="335.818,-593.388 332.005,-603.273 341.15,-597.923 335.818,-593.388"/>
<text text-anchor="middle" x="830" y="-472.38" font-family="Helvetica,sans-Serif" font-size="10.00"> mpORBVocabulary</text>
</g>
<!-- Node4&#45;&gt;Node13 -->
<g id="edge29" class="edge"><title>Node4&#45;&gt;Node13</title>
<path fill="none" stroke="#9a32cd" stroke-dasharray="5,2" d="M331.671,-642.805C359.009,-699.097 427.904,-835.497 468,-866.38 498.591,-889.942 512.886,-890.38 551.5,-890.38 551.5,-890.38 551.5,-890.38 1599.5,-890.38 1672.43,-890.38 1706.34,-888.43 1753,-832.38 1808.03,-766.277 1825.98,-476.284 1829.01,-419.167"/>
<polygon fill="#9a32cd" stroke="#9a32cd" points="334.713,-641.054 327.212,-633.572 328.409,-644.099 334.713,-641.054"/>
<text text-anchor="middle" x="1102" y="-893.38" font-family="Helvetica,sans-Serif" font-size="10.00"> mpORBVocabulary</text>
</g>
<!-- Node4&#45;&gt;Node17 -->
<g id="edge33" class="edge"><title>Node4&#45;&gt;Node17</title>
<path fill="none" stroke="#9a32cd" stroke-dasharray="5,2" d="M363.672,-637.409C426.721,-664.034 547.491,-711.883 655,-736.38 770.089,-762.605 801.442,-754.729 919,-765.38 961.906,-769.267 1010.59,-772.693 1046.8,-775.051"/>
<polygon fill="#9a32cd" stroke="#9a32cd" points="365,-634.171 354.428,-633.482 362.264,-640.614 365,-634.171"/>
<text text-anchor="middle" x="698" y="-754.38" font-family="Helvetica,sans-Serif" font-size="10.00"> mpORBvocabulary</text>
</g>
<!-- Node4&#45;&gt;Node20 -->
<g id="edge47" class="edge"><title>Node4&#45;&gt;Node20</title>
<path fill="none" stroke="#9a32cd" stroke-dasharray="5,2" d="M324.915,-593.51C346.595,-487.329 437.668,-77.38 551.5,-77.38 551.5,-77.38 551.5,-77.38 967,-77.38 970.976,-77.38 1054.75,-85.5063 1426,-147.38 1467.88,-154.359 1479.13,-152.887 1520,-164.38 1539.44,-169.848 1560.8,-178.307 1576.16,-184.851"/>
<polygon fill="#9a32cd" stroke="#9a32cd" points="321.477,-592.851 322.929,-603.346 328.339,-594.237 321.477,-592.851"/>
<text text-anchor="middle" x="966" y="-80.38" font-family="Helvetica,sans-Serif" font-size="10.00"> mpVocabulary</text>
</g>
<!-- Node5 -->
<g id="node5" class="node"><title>Node5</title>
<g id="a_node5"><a xlink:href="class_d_bo_w2_1_1_general_scoring.html" target="_top" xlink:title="Base class of scoring functions. ">
<polygon fill="white" stroke="black" points="0,-608.88 0,-627.88 124,-627.88 124,-608.88 0,-608.88"/>
<text text-anchor="middle" x="62" y="-615.88" font-family="Helvetica,sans-Serif" font-size="10.00">DBoW2::GeneralScoring</text>
</a>
</g>
</g>
<!-- Node5&#45;&gt;Node4 -->
<g id="edge4" class="edge"><title>Node5&#45;&gt;Node4</title>
<path fill="none" stroke="#9a32cd" stroke-dasharray="5,2" d="M134.347,-618.38C168.159,-618.38 208.555,-618.38 242.841,-618.38"/>
<polygon fill="#9a32cd" stroke="#9a32cd" points="134.079,-614.88 124.079,-618.38 134.079,-621.88 134.079,-614.88"/>
<text text-anchor="middle" x="182" y="-621.38" font-family="Helvetica,sans-Serif" font-size="10.00"> m_scoring_object</text>
</g>
<!-- Node6 -->
<g id="node6" class="node"><title>Node6</title>
<g id="a_node6"><a xlink:href="class_o_r_b___s_l_a_m2_1_1_map.html" target="_top" xlink:title="Mapa del mundo, de puntos y keyframes. ">
<polygon fill="white" stroke="black" points="502,-276.88 502,-295.88 603,-295.88 603,-276.88 502,-276.88"/>
<text text-anchor="middle" x="552.5" y="-283.88" font-family="Helvetica,sans-Serif" font-size="10.00">ORB_SLAM2::Map</text>
</a>
</g>
</g>
<!-- Node6&#45;&gt;Node1 -->
<g id="edge54" class="edge"><title>Node6&#45;&gt;Node1</title>
<path fill="none" stroke="#9a32cd" stroke-dasharray="5,2" d="M613.038,-295.188C716.711,-310.526 929.517,-342.01 1036.54,-357.843"/>
<polygon fill="#9a32cd" stroke="#9a32cd" points="613.457,-291.712 603.053,-293.711 612.433,-298.637 613.457,-291.712"/>
<text text-anchor="middle" x="830" y="-341.38" font-family="Helvetica,sans-Serif" font-size="10.00"> mpMap</text>
</g>
<!-- Node6&#45;&gt;Node2 -->
<g id="edge6" class="edge"><title>Node6&#45;&gt;Node2</title>
<path fill="none" stroke="#9a32cd" stroke-dasharray="5,2" d="M567.33,-304.1C616.804,-367.492 784.044,-581.778 821.511,-629.784"/>
<polygon fill="#9a32cd" stroke="#9a32cd" points="570.068,-301.92 561.156,-296.19 564.549,-306.226 570.068,-301.92"/>
<text text-anchor="middle" x="698" y="-528.38" font-family="Helvetica,sans-Serif" font-size="10.00"> mpMap</text>
</g>
<!-- Node6&#45;&gt;Node11 -->
<g id="edge16" class="edge"><title>Node6&#45;&gt;Node11</title>
<path fill="none" stroke="#9a32cd" stroke-dasharray="5,2" d="M588.894,-299.434C608.326,-306.474 632.9,-315.172 655,-322.38 700.855,-337.335 712.278,-341.407 759,-353.38 770.891,-356.427 1178.93,-444.124 1191,-446.38 1223.35,-452.429 1259.47,-458.269 1289.51,-462.876"/>
<polygon fill="#9a32cd" stroke="#9a32cd" points="589.835,-296.052 579.241,-295.92 587.44,-302.63 589.835,-296.052"/>
<text text-anchor="middle" x="966" y="-411.38" font-family="Helvetica,sans-Serif" font-size="10.00"> mpMap</text>
</g>
<!-- Node6&#45;&gt;Node13 -->
<g id="edge28" class="edge"><title>Node6&#45;&gt;Node13</title>
<path fill="none" stroke="#9a32cd" stroke-dasharray="5,2" d="M613.321,-287.86C810.234,-292.836 1430.73,-309.378 1520,-322.38 1627.98,-338.107 1751.54,-380.551 1803.9,-399.735"/>
<polygon fill="#9a32cd" stroke="#9a32cd" points="613.248,-284.357 603.163,-287.604 613.072,-291.355 613.248,-284.357"/>
<text text-anchor="middle" x="1229" y="-311.38" font-family="Helvetica,sans-Serif" font-size="10.00"> mpMap</text>
</g>
<!-- Node14 -->
<g id="node14" class="node"><title>Node14</title>
<g id="a_node14"><a xlink:href="class_o_r_b___s_l_a_m2_1_1_frame_drawer.html" target="_top" xlink:title="Clase de instancia única que se ocupa de mostrar la imagen de la cámara, con marcas verdes sobre los ...">
<polygon fill="white" stroke="black" points="1285,-53.88 1285,-72.88 1426,-72.88 1426,-53.88 1285,-53.88"/>
<text text-anchor="middle" x="1355.5" y="-60.88" font-family="Helvetica,sans-Serif" font-size="10.00">ORB_SLAM2::FrameDrawer</text>
</a>
</g>
</g>
<!-- Node6&#45;&gt;Node14 -->
<g id="edge21" class="edge"><title>Node6&#45;&gt;Node14</title>
<path fill="none" stroke="#9a32cd" stroke-dasharray="5,2" d="M561.165,-267.622C574.892,-236.689 606.815,-175.599 655,-147.38 682.013,-131.56 1113.28,-87.312 1284.87,-70.2296"/>
<polygon fill="#9a32cd" stroke="#9a32cd" points="557.926,-266.294 557.21,-276.865 564.362,-269.048 557.926,-266.294"/>
<text text-anchor="middle" x="966" y="-112.38" font-family="Helvetica,sans-Serif" font-size="10.00"> mpMap</text>
</g>
<!-- Node16 -->
<g id="node16" class="node"><title>Node16</title>
<g id="a_node16"><a xlink:href="class_o_r_b___s_l_a_m2_1_1_map_drawer.html" target="_top" xlink:title="Esta clase contiene los métodos para dibujar en pangolin. ">
<polygon fill="white" stroke="black" points="1289.5,-189.88 1289.5,-208.88 1421.5,-208.88 1421.5,-189.88 1289.5,-189.88"/>
<text text-anchor="middle" x="1355.5" y="-196.88" font-family="Helvetica,sans-Serif" font-size="10.00">ORB_SLAM2::MapDrawer</text>
</a>
</g>
</g>
<!-- Node6&#45;&gt;Node16 -->
<g id="edge27" class="edge"><title>Node6&#45;&gt;Node16</title>
<path fill="none" stroke="#9a32cd" stroke-dasharray="5,2" d="M613.3,-277.797C626.991,-275.925 641.491,-274.016 655,-272.38 888.035,-244.157 1165.56,-217.154 1289.32,-205.455"/>
<polygon fill="#9a32cd" stroke="#9a32cd" points="612.446,-274.381 603.018,-279.216 613.403,-281.315 612.446,-274.381"/>
<text text-anchor="middle" x="966" y="-245.38" font-family="Helvetica,sans-Serif" font-size="10.00"> mpMap</text>
</g>
<!-- Node6&#45;&gt;Node20 -->
<g id="edge46" class="edge"><title>Node6&#45;&gt;Node20</title>
<path fill="none" stroke="#9a32cd" stroke-dasharray="5,2" d="M572.975,-270.449C616.195,-236.764 724.583,-161.38 829,-161.38 829,-161.38 829,-161.38 1356.5,-161.38 1426.18,-161.38 1506.15,-175.089 1554.21,-184.835"/>
<polygon fill="#9a32cd" stroke="#9a32cd" points="570.653,-267.823 564.993,-276.779 575.003,-273.308 570.653,-267.823"/>
<text text-anchor="middle" x="1102" y="-164.38" font-family="Helvetica,sans-Serif" font-size="10.00"> mpMap</text>
</g>
<!-- Node7 -->
<g id="node7" class="node"><title>Node7</title>
<g id="a_node7"><a xlink:href="class_d_bo_w2_1_1_feature_vector.html" target="_top" xlink:title="Vector of nodes with indexes of local features. ">
<polygon fill="white" stroke="black" points="493,-790.88 493,-809.88 612,-809.88 612,-790.88 493,-790.88"/>
<text text-anchor="middle" x="552.5" y="-797.88" font-family="Helvetica,sans-Serif" font-size="10.00">DBoW2::FeatureVector</text>
</a>
</g>
</g>
<!-- Node7&#45;&gt;Node2 -->
<g id="edge8" class="edge"><title>Node7&#45;&gt;Node2</title>
<path fill="none" stroke="#9a32cd" stroke-dasharray="5,2" d="M564.844,-782.277C581.518,-757.177 615.032,-712.109 655,-687.38 688.71,-666.523 731.592,-654.558 766.35,-647.79"/>
<polygon fill="#9a32cd" stroke="#9a32cd" points="561.8,-780.54 559.3,-790.835 567.675,-784.346 561.8,-780.54"/>
<text text-anchor="middle" x="698" y="-690.38" font-family="Helvetica,sans-Serif" font-size="10.00"> mFeatVec</text>
</g>
<!-- Node7&#45;&gt;Node17 -->
<g id="edge34" class="edge"><title>Node7&#45;&gt;Node17</title>
<path fill="none" stroke="#9a32cd" stroke-dasharray="5,2" d="M622.437,-801.319C712.423,-801.986 874.747,-801.275 1013,-790.38 1023.91,-789.52 1035.54,-788.214 1046.65,-786.775"/>
<polygon fill="#9a32cd" stroke="#9a32cd" points="622.389,-797.818 612.361,-801.236 622.331,-804.818 622.389,-797.818"/>
<text text-anchor="middle" x="830" y="-803.38" font-family="Helvetica,sans-Serif" font-size="10.00"> mFeatVec</text>
</g>
<!-- Node8 -->
<g id="node8" class="node"><title>Node8</title>
<polygon fill="white" stroke="#bfbfbf" points="254.5,-785.38 254.5,-815.38 383.5,-815.38 383.5,-785.38 254.5,-785.38"/>
<text text-anchor="start" x="262.5" y="-803.38" font-family="Helvetica,sans-Serif" font-size="10.00">std::map&lt; NodeId, std</text>
<text text-anchor="middle" x="319" y="-792.38" font-family="Helvetica,sans-Serif" font-size="10.00">::vector&lt; unsigned int &gt; &gt;</text>
</g>
<!-- Node8&#45;&gt;Node7 -->
<g id="edge9" class="edge"><title>Node8&#45;&gt;Node7</title>
<path fill="none" stroke="midnightblue" d="M393.769,-800.38C425.779,-800.38 462.744,-800.38 492.84,-800.38"/>
<polygon fill="midnightblue" stroke="midnightblue" points="393.565,-796.88 383.565,-800.38 393.565,-803.88 393.565,-796.88"/>
</g>
<!-- Node9 -->
<g id="node9" class="node"><title>Node9</title>
<g id="a_node9"><a xlink:href="class_d_bo_w2_1_1_bow_vector.html" target="_top" xlink:title="Vector of words to represent images. ">
<polygon fill="white" stroke="black" points="500,-837.88 500,-856.88 605,-856.88 605,-837.88 500,-837.88"/>
<text text-anchor="middle" x="552.5" y="-844.88" font-family="Helvetica,sans-Serif" font-size="10.00">DBoW2::BowVector</text>
</a>
</g>
</g>
<!-- Node9&#45;&gt;Node2 -->
<g id="edge10" class="edge"><title>Node9&#45;&gt;Node2</title>
<path fill="none" stroke="#9a32cd" stroke-dasharray="5,2" d="M614.682,-835.464C623.112,-831.533 630.941,-826.313 637,-819.38 664.991,-787.351 626.7,-757.137 655,-725.38 681.653,-695.471 704.882,-715.712 741,-698.38 770.187,-684.374 800.835,-661.74 817.141,-648.961"/>
<polygon fill="#9a32cd" stroke="#9a32cd" points="613.307,-832.244 605.353,-839.242 615.935,-838.732 613.307,-832.244"/>
<text text-anchor="middle" x="698" y="-728.38" font-family="Helvetica,sans-Serif" font-size="10.00"> mBowVec</text>
</g>
<!-- Node9&#45;&gt;Node17 -->
<g id="edge35" class="edge"><title>Node9&#45;&gt;Node17</title>
<path fill="none" stroke="#9a32cd" stroke-dasharray="5,2" d="M615.184,-846.154C703.957,-843.426 872.518,-834.641 1013,-806.38 1034.69,-802.016 1058.57,-794.221 1075.97,-787.961"/>
<polygon fill="#9a32cd" stroke="#9a32cd" points="614.915,-842.66 605.021,-846.45 615.119,-849.657 614.915,-842.66"/>
<text text-anchor="middle" x="830" y="-840.38" font-family="Helvetica,sans-Serif" font-size="10.00"> mBowVec</text>
</g>
<!-- Node10 -->
<g id="node10" class="node"><title>Node10</title>
<polygon fill="white" stroke="#bfbfbf" points="240,-837.88 240,-856.88 398,-856.88 398,-837.88 240,-837.88"/>
<text text-anchor="middle" x="319" y="-844.88" font-family="Helvetica,sans-Serif" font-size="10.00">std::map&lt; WordId, WordValue &gt;</text>
</g>
<!-- Node10&#45;&gt;Node9 -->
<g id="edge11" class="edge"><title>Node10&#45;&gt;Node9</title>
<path fill="none" stroke="midnightblue" d="M408.425,-847.38C439.362,-847.38 473.061,-847.38 499.979,-847.38"/>
<polygon fill="midnightblue" stroke="midnightblue" points="408.053,-843.88 398.053,-847.38 408.053,-850.88 408.053,-843.88"/>
</g>
<!-- Node11&#45;&gt;Node1 -->
<g id="edge12" class="edge"><title>Node11&#45;&gt;Node1</title>
<path fill="none" stroke="#9a32cd" stroke-dasharray="5,2" d="M1324.26,-458.658C1307.55,-451.312 1286.32,-442.365 1267,-435.38 1233.81,-423.38 1223.73,-425.578 1191,-412.38 1165.22,-401.984 1136.83,-386.725 1119.45,-376.921"/>
<polygon fill="#9a32cd" stroke="#9a32cd" points="1322.97,-461.914 1333.53,-462.771 1325.81,-455.516 1322.97,-461.914"/>
<text text-anchor="middle" x="1229" y="-438.38" font-family="Helvetica,sans-Serif" font-size="10.00"> mpLoopCloser</text>
</g>
<!-- Node11&#45;&gt;Node13 -->
<g id="edge24" class="edge"><title>Node11&#45;&gt;Node13</title>
<path fill="none" stroke="#9a32cd" stroke-dasharray="5,2" d="M1433.66,-464.187C1513.69,-455.374 1642.38,-440.323 1753,-423.38 1761.68,-422.051 1770.88,-420.495 1779.78,-418.912"/>
<polygon fill="#9a32cd" stroke="#9a32cd" points="1433.22,-460.714 1423.66,-465.283 1433.98,-467.672 1433.22,-460.714"/>
<text text-anchor="middle" x="1598.5" y="-455.38" font-family="Helvetica,sans-Serif" font-size="10.00"> mpLoopClosing</text>
</g>
<!-- Node11&#45;&gt;Node20 -->
<g id="edge44" class="edge"><title>Node11&#45;&gt;Node20</title>
<path fill="none" stroke="#9a32cd" stroke-dasharray="5,2" d="M1365.64,-453.699C1379.59,-426.609 1408.39,-375.992 1444,-342.38 1472.55,-315.437 1494.99,-327.633 1520,-297.38 1535.05,-279.178 1524.77,-266.948 1538,-247.38 1550.16,-229.385 1569.79,-213.528 1583.14,-203.955"/>
<polygon fill="#9a32cd" stroke="#9a32cd" points="1362.41,-452.339 1361.03,-462.845 1368.66,-455.488 1362.41,-452.339"/>
<text text-anchor="middle" x="1482" y="-345.38" font-family="Helvetica,sans-Serif" font-size="10.00"> mpLoopCloser</text>
</g>
<!-- Node12 -->
<g id="node12" class="node"><title>Node12</title>
<g id="a_node12"><a xlink:href="structg2o_1_1_sim3.html" target="_top" xlink:title="g2o::Sim3">
<polygon fill="white" stroke="black" points="1071.5,-535.88 1071.5,-554.88 1132.5,-554.88 1132.5,-535.88 1071.5,-535.88"/>
<text text-anchor="middle" x="1102" y="-542.88" font-family="Helvetica,sans-Serif" font-size="10.00">g2o::Sim3</text>
</a>
</g>
</g>
<!-- Node12&#45;&gt;Node11 -->
<g id="edge15" class="edge"><title>Node12&#45;&gt;Node11</title>
<path fill="none" stroke="#9a32cd" stroke-dasharray="5,2" d="M1142.94,-544.39C1176.78,-542.531 1226.18,-537.387 1267,-523.38 1295.61,-513.565 1325.27,-493.916 1341.66,-482.079"/>
<polygon fill="#9a32cd" stroke="#9a32cd" points="1142.35,-540.914 1132.53,-544.885 1142.69,-547.906 1142.35,-540.914"/>
<text text-anchor="middle" x="1229" y="-543.38" font-family="Helvetica,sans-Serif" font-size="10.00"> mg2oScw</text>
</g>
<!-- Node13&#45;&gt;Node1 -->
<g id="edge55" class="edge"><title>Node13&#45;&gt;Node1</title>
<path fill="none" stroke="#9a32cd" stroke-dasharray="5,2" d="M1760.95,-405.417C1622.92,-397.437 1312.8,-379.509 1173.32,-371.445"/>
<polygon fill="#9a32cd" stroke="#9a32cd" points="1760.79,-408.914 1770.98,-405.997 1761.2,-401.925 1760.79,-408.914"/>
<text text-anchor="middle" x="1482" y="-394.38" font-family="Helvetica,sans-Serif" font-size="10.00"> mpTracker</text>
</g>
<!-- Node13&#45;&gt;Node11 -->
<g id="edge19" class="edge"><title>Node13&#45;&gt;Node11</title>
<path fill="none" stroke="#9a32cd" stroke-dasharray="5,2" d="M1814.3,-426.386C1800.1,-440.915 1777.45,-460.788 1753,-469.38 1633.98,-511.195 1482.19,-494.683 1405.53,-481.922"/>
<polygon fill="#9a32cd" stroke="#9a32cd" points="1816.98,-428.65 1821.28,-418.969 1811.88,-423.851 1816.98,-428.65"/>
<text text-anchor="middle" x="1598.5" y="-499.38" font-family="Helvetica,sans-Serif" font-size="10.00"> mpTracker</text>
</g>
<!-- Node19 -->
<g id="node19" class="node"><title>Node19</title>
<g id="a_node19"><a xlink:href="class_o_r_b___s_l_a_m2_1_1_viewer.html" target="_top" xlink:title="Viewer representa la interfaz de usuario. ">
<polygon fill="white" stroke="black" points="1976,-164.88 1976,-183.88 2088,-183.88 2088,-164.88 1976,-164.88"/>
<text text-anchor="middle" x="2032" y="-171.88" font-family="Helvetica,sans-Serif" font-size="10.00">ORB_SLAM2::Viewer</text>
</a>
</g>
</g>
<!-- Node13&#45;&gt;Node19 -->
<g id="edge40" class="edge"><title>Node13&#45;&gt;Node19</title>
<path fill="none" stroke="#9a32cd" stroke-dasharray="5,2" d="M1843.51,-391.191C1858,-369.622 1883.49,-332.877 1908,-303.38 1947.16,-256.257 1999.32,-204.859 2020.95,-183.988"/>
<polygon fill="#9a32cd" stroke="#9a32cd" points="1840.47,-389.436 1837.84,-399.698 1846.3,-393.32 1840.47,-389.436"/>
<text text-anchor="middle" x="1933" y="-306.38" font-family="Helvetica,sans-Serif" font-size="10.00"> mpTracker</text>
</g>
<!-- Node13&#45;&gt;Node20 -->
<g id="edge49" class="edge"><title>Node13&#45;&gt;Node20</title>
<path fill="none" stroke="#9a32cd" stroke-dasharray="5,2" d="M1824.87,-389.595C1816.3,-357.343 1794.9,-293.516 1753,-258.38 1725.96,-235.703 1709.64,-248.805 1677,-235.38 1654.9,-226.289 1630.76,-212.928 1615.39,-203.954"/>
<polygon fill="#9a32cd" stroke="#9a32cd" points="1821.55,-390.741 1827.38,-399.588 1828.34,-389.036 1821.55,-390.741"/>
<text text-anchor="middle" x="1715" y="-261.38" font-family="Helvetica,sans-Serif" font-size="10.00"> mpTracker</text>
</g>
<!-- Node14&#45;&gt;Node13 -->
<g id="edge20" class="edge"><title>Node14&#45;&gt;Node13</title>
<path fill="none" stroke="#9a32cd" stroke-dasharray="5,2" d="M1396.04,-50.9746C1475,-28.9137 1653.17,6.8479 1753,-83.38 1772.68,-101.166 1765.4,-175.453 1771,-201.38 1787.71,-278.746 1816.62,-369.881 1826.26,-399.53"/>
<polygon fill="#9a32cd" stroke="#9a32cd" points="1394.67,-47.7273 1386.02,-53.8505 1396.6,-54.4556 1394.67,-47.7273"/>
<text text-anchor="middle" x="1598.5" y="-38.38" font-family="Helvetica,sans-Serif" font-size="10.00"> mpFrameDrawer</text>
</g>
<!-- Node14&#45;&gt;Node19 -->
<g id="edge38" class="edge"><title>Node14&#45;&gt;Node19</title>
<path fill="none" stroke="#9a32cd" stroke-dasharray="5,2" d="M1382.15,-48.7623C1399.12,-39.9084 1422.18,-29.3869 1444,-24.38 1577.86,6.34016 1620.68,10.4075 1753,-26.38 1863.63,-57.1368 1979.83,-137.024 2018.01,-164.741"/>
<polygon fill="#9a32cd" stroke="#9a32cd" points="1380.07,-45.9082 1372.92,-53.7284 1383.39,-52.0727 1380.07,-45.9082"/>
<text text-anchor="middle" x="1715" y="-29.38" font-family="Helvetica,sans-Serif" font-size="10.00"> mpFrameDrawer</text>
</g>
<!-- Node14&#45;&gt;Node20 -->
<g id="edge42" class="edge"><title>Node14&#45;&gt;Node20</title>
<path fill="none" stroke="#9a32cd" stroke-dasharray="5,2" d="M1436.33,-73.8964C1464.27,-80.0887 1494.9,-89.8906 1520,-105.38 1553.65,-126.146 1580.61,-166.186 1591.84,-184.636"/>
<polygon fill="#9a32cd" stroke="#9a32cd" points="1436.68,-70.3938 1426.17,-71.7745 1435.25,-77.2458 1436.68,-70.3938"/>
<text text-anchor="middle" x="1482" y="-108.38" font-family="Helvetica,sans-Serif" font-size="10.00"> mpFrameDrawer</text>
</g>
<!-- Node15 -->
<g id="node15" class="node"><title>Node15</title>
<g id="a_node15"><a xlink:href="class_o_r_b___s_l_a_m2_1_1_initializer.html" target="_top" xlink:title="Inicializador de mapa en modo monocular. ">
<polygon fill="white" stroke="black" points="1538,-802.88 1538,-821.88 1659,-821.88 1659,-802.88 1538,-802.88"/>
<text text-anchor="middle" x="1598.5" y="-809.88" font-family="Helvetica,sans-Serif" font-size="10.00">ORB_SLAM2::Initializer</text>
</a>
</g>
</g>
<!-- Node15&#45;&gt;Node13 -->
<g id="edge25" class="edge"><title>Node15&#45;&gt;Node13</title>
<path fill="none" stroke="#9a32cd" stroke-dasharray="5,2" d="M1669.29,-817.995C1698.66,-816.561 1731.03,-809.398 1753,-788.38 1808.65,-735.127 1826,-472.759 1829,-419.011"/>
<polygon fill="#9a32cd" stroke="#9a32cd" points="1668.95,-814.502 1659.05,-818.276 1669.14,-821.5 1668.95,-814.502"/>
<text text-anchor="middle" x="1715" y="-820.38" font-family="Helvetica,sans-Serif" font-size="10.00"> mpInitializer</text>
</g>
<!-- Node16&#45;&gt;Node13 -->
<g id="edge26" class="edge"><title>Node16&#45;&gt;Node13</title>
<path fill="none" stroke="#9a32cd" stroke-dasharray="5,2" d="M1406.28,-211.196C1511.14,-236.152 1745.77,-292.36 1753,-297.38 1791.88,-324.375 1816.87,-378.024 1825.81,-399.83"/>
<polygon fill="#9a32cd" stroke="#9a32cd" points="1407.09,-207.791 1396.55,-208.882 1405.47,-214.601 1407.09,-207.791"/>
<text text-anchor="middle" x="1598.5" y="-275.38" font-family="Helvetica,sans-Serif" font-size="10.00"> mpMapDrawer</text>
</g>
<!-- Node16&#45;&gt;Node19 -->
<g id="edge39" class="edge"><title>Node16&#45;&gt;Node19</title>
<path fill="none" stroke="#9a32cd" stroke-dasharray="5,2" d="M1417,-188.068C1481.24,-176.678 1585.86,-159.887 1677,-153.38 1755.36,-147.785 1956.69,-163.25 1958,-163.38 1963.74,-163.951 1969.72,-164.661 1975.67,-165.444"/>
<polygon fill="#9a32cd" stroke="#9a32cd" points="1416.28,-184.642 1407.05,-189.848 1417.51,-191.533 1416.28,-184.642"/>
<text text-anchor="middle" x="1715" y="-156.38" font-family="Helvetica,sans-Serif" font-size="10.00"> mpMapDrawer</text>
</g>
<!-- Node16&#45;&gt;Node20 -->
<g id="edge45" class="edge"><title>Node16&#45;&gt;Node20</title>
<path fill="none" stroke="#9a32cd" stroke-dasharray="5,2" d="M1432.04,-195.74C1436.09,-195.604 1440.09,-195.482 1444,-195.38 1475.84,-194.549 1511.4,-194.276 1540.27,-194.221"/>
<polygon fill="#9a32cd" stroke="#9a32cd" points="1431.81,-192.246 1421.95,-196.108 1432.07,-199.242 1431.81,-192.246"/>
<text text-anchor="middle" x="1482" y="-198.38" font-family="Helvetica,sans-Serif" font-size="10.00"> mpMapDrawer</text>
</g>
<!-- Node17&#45;&gt;Node13 -->
<g id="edge31" class="edge"><title>Node17&#45;&gt;Node13</title>
<path fill="none" stroke="#9a32cd" stroke-dasharray="5,2" d="M1167.19,-783.727C1313.56,-794.491 1666.05,-811.896 1753,-738.38 1803.94,-695.311 1824.76,-468.967 1828.76,-419.103"/>
<polygon fill="#9a32cd" stroke="#9a32cd" points="1167.25,-780.221 1157.02,-782.964 1166.73,-787.202 1167.25,-780.221"/>
<text text-anchor="middle" x="1482" y="-817.38" font-family="Helvetica,sans-Serif" font-size="10.00"> mLastFrame</text>
<text text-anchor="middle" x="1482" y="-806.38" font-family="Helvetica,sans-Serif" font-size="10.00">mCurrentFrame</text>
<text text-anchor="middle" x="1482" y="-795.38" font-family="Helvetica,sans-Serif" font-size="10.00">mInitialFrame</text>
</g>
<!-- Node18 -->
<g id="node18" class="node"><title>Node18</title>
<g id="a_node18"><a xlink:href="class_o_r_b___s_l_a_m2_1_1_o_r_bextractor.html" target="_top" xlink:title="Empaqueta todos los métodos de detección de puntos singulares y extracción de descriptores. ">
<polygon fill="white" stroke="black" points="759,-710.88 759,-729.88 901,-729.88 901,-710.88 759,-710.88"/>
<text text-anchor="middle" x="830" y="-717.88" font-family="Helvetica,sans-Serif" font-size="10.00">ORB_SLAM2::ORBextractor</text>
</a>
</g>
</g>
<!-- Node18&#45;&gt;Node13 -->
<g id="edge53" class="edge"><title>Node18&#45;&gt;Node13</title>
<path fill="none" stroke="#9a32cd" stroke-dasharray="5,2" d="M911.159,-725.696C1111.14,-737.246 1625.18,-755.875 1753,-652.38 1828.45,-591.288 1830.76,-456.312 1829.88,-419.065"/>
<polygon fill="#9a32cd" stroke="#9a32cd" points="911.204,-722.193 901.016,-725.101 910.794,-729.181 911.204,-722.193"/>
<text text-anchor="middle" x="1355.5" y="-748.38" font-family="Helvetica,sans-Serif" font-size="10.00"> mpORBextractorLeft</text>
<text text-anchor="middle" x="1355.5" y="-737.38" font-family="Helvetica,sans-Serif" font-size="10.00">mpIniORBextractor</text>
</g>
<!-- Node18&#45;&gt;Node17 -->
<g id="edge36" class="edge"><title>Node18&#45;&gt;Node17</title>
<path fill="none" stroke="#9a32cd" stroke-dasharray="5,2" d="M898.567,-731.649C932.964,-737.728 975.36,-745.746 1013,-754.38 1031.52,-758.628 1052.02,-764.167 1068.56,-768.853"/>
<polygon fill="#9a32cd" stroke="#9a32cd" points="899.081,-728.186 888.627,-729.907 897.873,-735.081 899.081,-728.186"/>
<text text-anchor="middle" x="966" y="-757.38" font-family="Helvetica,sans-Serif" font-size="10.00"> mpORBextractorLeft</text>
</g>
<!-- Node19&#45;&gt;Node13 -->
<g id="edge37" class="edge"><title>Node19&#45;&gt;Node13</title>
<path fill="none" stroke="#9a32cd" stroke-dasharray="5,2" d="M2024.64,-193.529C2014.23,-222.839 1991.29,-279.511 1958,-318.38 1926.32,-355.367 1876.65,-385.33 1849.95,-399.861"/>
<polygon fill="#9a32cd" stroke="#9a32cd" points="2027.96,-194.647 2027.91,-184.052 2021.34,-192.364 2027.96,-194.647"/>
<text text-anchor="middle" x="1933" y="-364.38" font-family="Helvetica,sans-Serif" font-size="10.00"> mpViewer</text>
</g>
<!-- Node19&#45;&gt;Node20 -->
<g id="edge50" class="edge"><title>Node19&#45;&gt;Node20</title>
<path fill="none" stroke="#9a32cd" stroke-dasharray="5,2" d="M1965.79,-169.907C1941.96,-168.477 1914.77,-167.082 1890,-166.38 1837.13,-164.881 1823.72,-162.105 1771,-166.38 1728,-169.867 1679.53,-178.195 1645.11,-184.868"/>
<polygon fill="#9a32cd" stroke="#9a32cd" points="1965.59,-173.402 1975.79,-170.521 1966.02,-166.415 1965.59,-173.402"/>
<text text-anchor="middle" x="1830.5" y="-169.38" font-family="Helvetica,sans-Serif" font-size="10.00"> mpViewer</text>
</g>
<!-- Node20&#45;&gt;Node13 -->
<g id="edge52" class="edge"><title>Node20&#45;&gt;Node13</title>
<path fill="none" stroke="#9a32cd" stroke-dasharray="5,2" d="M1667,-200.293C1701.78,-204.572 1739.64,-211.547 1753,-222.38 1811.3,-269.665 1825.59,-368.569 1828.71,-399.75"/>
<polygon fill="#9a32cd" stroke="#9a32cd" points="1667.16,-196.788 1656.82,-199.104 1666.34,-203.74 1667.16,-196.788"/>
<text text-anchor="middle" x="1715" y="-225.38" font-family="Helvetica,sans-Serif" font-size="10.00"> mpSystem</text>
</g>
<!-- Node20&#45;&gt;Node19 -->
<g id="edge41" class="edge"><title>Node20&#45;&gt;Node19</title>
<path fill="none" stroke="#9a32cd" stroke-dasharray="5,2" d="M1666.88,-191.257C1752.03,-187.31 1896.96,-180.593 1975.85,-176.936"/>
<polygon fill="#9a32cd" stroke="#9a32cd" points="1666.63,-187.765 1656.8,-191.724 1666.95,-194.757 1666.63,-187.765"/>
<text text-anchor="middle" x="1830.5" y="-189.38" font-family="Helvetica,sans-Serif" font-size="10.00"> mpSystem</text>
</g>
<!-- Node20&#45;&gt;Node20 -->
<g id="edge51" class="edge"><title>Node20&#45;&gt;Node20</title>
<path fill="none" stroke="#9a32cd" stroke-dasharray="5,2" d="M1577.02,-213.78C1578.45,-218.695 1585.61,-222.38 1598.5,-222.38 1619.12,-222.38 1625.08,-212.945 1616.38,-204.137"/>
<polygon fill="#9a32cd" stroke="#9a32cd" points="1580.4,-214.73 1580.62,-204.137 1573.84,-212.28 1580.4,-214.73"/>
<text text-anchor="middle" x="1598.5" y="-225.38" font-family="Helvetica,sans-Serif" font-size="10.00"> sistema</text>
</g>
</g>
</svg>
