<?xml version="1.0" encoding="UTF-8" standalone="no"?>
<!DOCTYPE svg PUBLIC "-//W3C//DTD SVG 1.1//EN"
 "http://www.w3.org/Graphics/SVG/1.1/DTD/svg11.dtd">
<!-- Generated by graphviz version 2.38.0 (20140413.2041)
 -->
<!-- Title: g2o::BlockSolverBase Pages: 1 -->
<svg width="423pt" height="344pt"
 viewBox="0.00 0.00 423.00 344.00" xmlns="http://www.w3.org/2000/svg" xmlns:xlink="http://www.w3.org/1999/xlink">
<g id="graph0" class="graph" transform="scale(1 1) rotate(0) translate(4 340)">
<title>g2o::BlockSolverBase</title>
<polygon fill="white" stroke="none" points="-4,4 -4,-340 419,-340 419,4 -4,4"/>
<!-- Node3 -->
<g id="node1" class="node"><title>Node3</title>
<polygon fill="#bfbfbf" stroke="black" points="217.5,-0.5 217.5,-19.5 330.5,-19.5 330.5,-0.5 217.5,-0.5"/>
<text text-anchor="middle" x="274" y="-7.5" font-family="Helvetica,sans-Serif" font-size="10.00">g2o::BlockSolverBase</text>
</g>
<!-- Node4 -->
<g id="node2" class="node"><title>Node4</title>
<g id="a_node2"><a xlink:href="classg2o_1_1_solver.html" target="_top" xlink:title="Generic interface for a sparse solver operating on a graph which solves one iteration of the lineariz...">
<polygon fill="white" stroke="black" points="241,-57.5 241,-76.5 307,-76.5 307,-57.5 241,-57.5"/>
<text text-anchor="middle" x="274" y="-64.5" font-family="Helvetica,sans-Serif" font-size="10.00">g2o::Solver</text>
</a>
</g>
</g>
<!-- Node4&#45;&gt;Node3 -->
<g id="edge1" class="edge"><title>Node4&#45;&gt;Node3</title>
<path fill="none" stroke="midnightblue" d="M274,-47.1166C274,-37.8173 274,-27.0557 274,-19.7149"/>
<polygon fill="midnightblue" stroke="midnightblue" points="270.5,-47.4062 274,-57.4062 277.5,-47.4063 270.5,-47.4062"/>
</g>
<!-- Node5 -->
<g id="node3" class="node"><title>Node5</title>
<g id="a_node3"><a xlink:href="classg2o_1_1_sparse_optimizer.html" target="_top" xlink:title="g2o::SparseOptimizer">
<polygon fill="white" stroke="black" points="146.5,-124.5 146.5,-143.5 257.5,-143.5 257.5,-124.5 146.5,-124.5"/>
<text text-anchor="middle" x="202" y="-131.5" font-family="Helvetica,sans-Serif" font-size="10.00">g2o::SparseOptimizer</text>
</a>
</g>
</g>
<!-- Node5&#45;&gt;Node4 -->
<g id="edge2" class="edge"><title>Node5&#45;&gt;Node4</title>
<path fill="none" stroke="#9a32cd" stroke-dasharray="5,2" d="M233.156,-119.619C239.854,-115.842 246.55,-111.291 252,-106 260.642,-97.6105 266.997,-85.1018 270.596,-76.7543"/>
<polygon fill="#9a32cd" stroke="#9a32cd" points="231.41,-116.582 224.138,-124.287 234.627,-122.799 231.41,-116.582"/>
<text text-anchor="middle" x="284.5" y="-98" font-family="Helvetica,sans-Serif" font-size="10.00"> _optimizer</text>
</g>
<!-- Node11 -->
<g id="node9" class="node"><title>Node11</title>
<g id="a_node9"><a xlink:href="classg2o_1_1_optimization_algorithm.html" target="_top" xlink:title="Generic interface for a non&#45;linear solver operating on a graph. ">
<polygon fill="white" stroke="black" points="63,-57.5 63,-76.5 197,-76.5 197,-57.5 63,-57.5"/>
<text text-anchor="middle" x="130" y="-64.5" font-family="Helvetica,sans-Serif" font-size="10.00">g2o::OptimizationAlgorithm</text>
</a>
</g>
</g>
<!-- Node5&#45;&gt;Node11 -->
<g id="edge11" class="edge"><title>Node5&#45;&gt;Node11</title>
<path fill="none" stroke="#9a32cd" stroke-dasharray="5,2" d="M142.573,-119.909C136.49,-116.331 131.063,-111.781 127,-106 120.988,-97.4454 123.54,-84.9754 126.374,-76.6817"/>
<polygon fill="#9a32cd" stroke="#9a32cd" points="141.358,-123.212 151.875,-124.488 144.449,-116.932 141.358,-123.212"/>
<text text-anchor="middle" x="151.5" y="-98" font-family="Helvetica,sans-Serif" font-size="10.00"> _optimizer</text>
</g>
<!-- Node6 -->
<g id="node4" class="node"><title>Node6</title>
<g id="a_node4"><a xlink:href="structg2o_1_1_optimizable_graph.html" target="_top" xlink:title="This is an abstract class that represents one optimization problem. ">
<polygon fill="white" stroke="black" points="144,-187 144,-206 260,-206 260,-187 144,-187"/>
<text text-anchor="middle" x="202" y="-194" font-family="Helvetica,sans-Serif" font-size="10.00">g2o::OptimizableGraph</text>
</a>
</g>
</g>
<!-- Node6&#45;&gt;Node5 -->
<g id="edge3" class="edge"><title>Node6&#45;&gt;Node5</title>
<path fill="none" stroke="midnightblue" d="M202,-176.503C202,-165.5 202,-152.182 202,-143.652"/>
<polygon fill="midnightblue" stroke="midnightblue" points="198.5,-176.832 202,-186.832 205.5,-176.832 198.5,-176.832"/>
</g>
<!-- Node7 -->
<g id="node5" class="node"><title>Node7</title>
<g id="a_node5"><a xlink:href="classg2o_1_1_hyper_graph.html" target="_top" xlink:title="Class that models a directed Hyper&#45;Graph. ">
<polygon fill="white" stroke="black" points="29.5,-259.5 29.5,-278.5 120.5,-278.5 120.5,-259.5 29.5,-259.5"/>
<text text-anchor="middle" x="75" y="-266.5" font-family="Helvetica,sans-Serif" font-size="10.00">g2o::HyperGraph</text>
</a>
</g>
</g>
<!-- Node7&#45;&gt;Node6 -->
<g id="edge4" class="edge"><title>Node7&#45;&gt;Node6</title>
<path fill="none" stroke="midnightblue" d="M99.3202,-254.499C124.938,-240.278 164.522,-218.305 186.3,-206.215"/>
<polygon fill="midnightblue" stroke="midnightblue" points="97.6172,-251.442 90.5727,-259.355 101.015,-257.562 97.6172,-251.442"/>
</g>
<!-- Node8 -->
<g id="node6" class="node"><title>Node8</title>
<g id="a_node6"><a xlink:href="classg2o_1_1_jacobian_workspace.html" target="_top" xlink:title="provide memory workspace for computing the Jacobians ">
<polygon fill="white" stroke="black" points="138.5,-259.5 138.5,-278.5 265.5,-278.5 265.5,-259.5 138.5,-259.5"/>
<text text-anchor="middle" x="202" y="-266.5" font-family="Helvetica,sans-Serif" font-size="10.00">g2o::JacobianWorkspace</text>
</a>
</g>
</g>
<!-- Node8&#45;&gt;Node6 -->
<g id="edge5" class="edge"><title>Node8&#45;&gt;Node6</title>
<path fill="none" stroke="#9a32cd" stroke-dasharray="5,2" d="M202,-248.942C202,-235.03 202,-216.82 202,-206.215"/>
<polygon fill="#9a32cd" stroke="#9a32cd" points="198.5,-249.355 202,-259.355 205.5,-249.355 198.5,-249.355"/>
<text text-anchor="middle" x="249" y="-233" font-family="Helvetica,sans-Serif" font-size="10.00"> _jacobianWorkspace</text>
</g>
<!-- Node9 -->
<g id="node7" class="node"><title>Node9</title>
<g id="a_node7"><a xlink:href="classg2o_1_1_parameter_container.html" target="_top" xlink:title="map id to parameters ">
<polygon fill="white" stroke="black" points="283.5,-259.5 283.5,-278.5 408.5,-278.5 408.5,-259.5 283.5,-259.5"/>
<text text-anchor="middle" x="346" y="-266.5" font-family="Helvetica,sans-Serif" font-size="10.00">g2o::ParameterContainer</text>
</a>
</g>
</g>
<!-- Node9&#45;&gt;Node6 -->
<g id="edge6" class="edge"><title>Node9&#45;&gt;Node6</title>
<path fill="none" stroke="#9a32cd" stroke-dasharray="5,2" d="M330.056,-252.316C321.664,-244.743 310.877,-236.018 300,-230 280.708,-219.327 257.331,-211.407 238.248,-206.059"/>
<polygon fill="#9a32cd" stroke="#9a32cd" points="327.876,-255.071 337.563,-259.361 332.666,-249.966 327.876,-255.071"/>
<text text-anchor="middle" x="345" y="-233" font-family="Helvetica,sans-Serif" font-size="10.00"> _parameters</text>
</g>
<!-- Node10 -->
<g id="node8" class="node"><title>Node10</title>
<polygon fill="white" stroke="#bfbfbf" points="277,-316.5 277,-335.5 415,-335.5 415,-316.5 277,-316.5"/>
<text text-anchor="middle" x="346" y="-323.5" font-family="Helvetica,sans-Serif" font-size="10.00">std::map&lt; int, Parameter *&gt;</text>
</g>
<!-- Node10&#45;&gt;Node9 -->
<g id="edge7" class="edge"><title>Node10&#45;&gt;Node9</title>
<path fill="none" stroke="darkgreen" d="M346,-306.117C346,-296.817 346,-286.056 346,-278.715"/>
<polygon fill="darkgreen" stroke="darkgreen" points="342.5,-306.406 346,-316.406 349.5,-306.406 342.5,-306.406"/>
</g>
<!-- Node11&#45;&gt;Node5 -->
<g id="edge8" class="edge"><title>Node11&#45;&gt;Node5</title>
<path fill="none" stroke="#9a32cd" stroke-dasharray="5,2" d="M161.156,-81.3808C167.854,-85.158 174.55,-89.7089 180,-95 188.642,-103.389 194.997,-115.898 198.596,-124.246"/>
<polygon fill="#9a32cd" stroke="#9a32cd" points="162.627,-78.2012 152.138,-76.7127 159.41,-84.4178 162.627,-78.2012"/>
<text text-anchor="middle" x="213.5" y="-98" font-family="Helvetica,sans-Serif" font-size="10.00"> _algorithm</text>
</g>
<!-- Node12 -->
<g id="node10" class="node"><title>Node12</title>
<g id="a_node10"><a xlink:href="classg2o_1_1_property_map.html" target="_top" xlink:title="a collection of properties mapping from name to the property itself ">
<polygon fill="white" stroke="black" points="8,-124.5 8,-143.5 102,-143.5 102,-124.5 8,-124.5"/>
<text text-anchor="middle" x="55" y="-131.5" font-family="Helvetica,sans-Serif" font-size="10.00">g2o::PropertyMap</text>
</a>
</g>
</g>
<!-- Node12&#45;&gt;Node11 -->
<g id="edge9" class="edge"><title>Node12&#45;&gt;Node11</title>
<path fill="none" stroke="#9a32cd" stroke-dasharray="5,2" d="M58.0532,-114.552C59.9585,-107.742 63.0372,-100.382 68,-95 75.7195,-86.6276 86.4905,-80.7236 96.8921,-76.6193"/>
<polygon fill="#9a32cd" stroke="#9a32cd" points="54.6083,-113.924 55.9229,-124.437 61.4512,-115.399 54.6083,-113.924"/>
<text text-anchor="middle" x="94" y="-98" font-family="Helvetica,sans-Serif" font-size="10.00"> _properties</text>
</g>
<!-- Node13 -->
<g id="node11" class="node"><title>Node13</title>
<polygon fill="white" stroke="#bfbfbf" points="0,-181.5 0,-211.5 110,-211.5 110,-181.5 0,-181.5"/>
<text text-anchor="start" x="8" y="-199.5" font-family="Helvetica,sans-Serif" font-size="10.00">std::map&lt; std::string,</text>
<text text-anchor="middle" x="55" y="-188.5" font-family="Helvetica,sans-Serif" font-size="10.00"> BaseProperty *&gt;</text>
</g>
<!-- Node13&#45;&gt;Node12 -->
<g id="edge10" class="edge"><title>Node13&#45;&gt;Node12</title>
<path fill="none" stroke="darkgreen" d="M55,-171.352C55,-161.513 55,-150.775 55,-143.54"/>
<polygon fill="darkgreen" stroke="darkgreen" points="51.5001,-171.468 55,-181.468 58.5001,-171.468 51.5001,-171.468"/>
</g>
</g>
</svg>
