<?xml version="1.0" encoding="UTF-8" standalone="no"?>
<!DOCTYPE svg PUBLIC "-//W3C//DTD SVG 1.1//EN"
 "http://www.w3.org/Graphics/SVG/1.1/DTD/svg11.dtd">
<!-- Generated by graphviz version 2.38.0 (20140413.2041)
 -->
<!-- Title: ORB_SLAM2::KeyFrame Pages: 1 -->
<svg width="1324pt" height="146pt"
 viewBox="0.00 0.00 1324.00 145.50" xmlns="http://www.w3.org/2000/svg" xmlns:xlink="http://www.w3.org/1999/xlink">
<g id="graph0" class="graph" transform="scale(1 1) rotate(0) translate(4 141.5)">
<title>ORB_SLAM2::KeyFrame</title>
<polygon fill="white" stroke="none" points="-4,4 -4,-141.5 1320,-141.5 1320,4 -4,4"/>
<!-- Node1 -->
<g id="node1" class="node"><title>Node1</title>
<polygon fill="#bfbfbf" stroke="black" points="749,-60.5 749,-79.5 876,-79.5 876,-60.5 749,-60.5"/>
<text text-anchor="middle" x="812.5" y="-67.5" font-family="Helvetica,sans-Serif" font-size="10.00">ORB_SLAM2::KeyFrame</text>
</g>
<!-- Node1&#45;&gt;Node1 -->
<g id="edge4" class="edge"><title>Node1&#45;&gt;Node1</title>
<path fill="none" stroke="#9a32cd" stroke-dasharray="5,2" d="M790.551,-89.0292C791.748,-94.128 799.064,-98 812.5,-98 833.473,-98 839.535,-88.5653 830.687,-79.7571"/>
<polygon fill="#9a32cd" stroke="#9a32cd" points="793.796,-90.3393 794.313,-79.7571 787.31,-87.7074 793.796,-90.3393"/>
<text text-anchor="middle" x="812.5" y="-101" font-family="Helvetica,sans-Serif" font-size="10.00"> mpParent</text>
</g>
<!-- Node5 -->
<g id="node5" class="node"><title>Node5</title>
<g id="a_node5"><a xlink:href="class_o_r_b___s_l_a_m2_1_1_map.html" target="_top" xlink:title="Mapa del mundo, de puntos y keyframes. ">
<polygon fill="white" stroke="black" points="985,-80.5 985,-99.5 1086,-99.5 1086,-80.5 985,-80.5"/>
<text text-anchor="middle" x="1035.5" y="-87.5" font-family="Helvetica,sans-Serif" font-size="10.00">ORB_SLAM2::Map</text>
</a>
</g>
</g>
<!-- Node1&#45;&gt;Node5 -->
<g id="edge10" class="edge"><title>Node1&#45;&gt;Node5</title>
<path fill="none" stroke="#9a32cd" stroke-dasharray="5,2" d="M883.372,-80.8098C886.962,-81.2418 890.521,-81.6424 894,-82 924.137,-85.0977 958.042,-87.0715 984.995,-88.2833"/>
<polygon fill="#9a32cd" stroke="#9a32cd" points="883.57,-77.307 873.209,-79.5191 882.688,-84.2512 883.57,-77.307"/>
<text text-anchor="middle" x="930.5" y="-91" font-family="Helvetica,sans-Serif" font-size="10.00"> keyFrameBuffer</text>
</g>
<!-- Node6 -->
<g id="node6" class="node"><title>Node6</title>
<g id="a_node6"><a xlink:href="class_o_r_b___s_l_a_m2_1_1_map_point.html" target="_top" xlink:title="Cada instancia representa un mapa 3D en el sistema de referencia del mapa. ">
<polygon fill="white" stroke="black" points="1193,-60.5 1193,-79.5 1316,-79.5 1316,-60.5 1193,-60.5"/>
<text text-anchor="middle" x="1254.5" y="-67.5" font-family="Helvetica,sans-Serif" font-size="10.00">ORB_SLAM2::MapPoint</text>
</a>
</g>
</g>
<!-- Node1&#45;&gt;Node6 -->
<g id="edge8" class="edge"><title>Node1&#45;&gt;Node6</title>
<path fill="none" stroke="#9a32cd" stroke-dasharray="5,2" d="M886.353,-63.4887C888.933,-63.3143 891.488,-63.1505 894,-63 1018.67,-55.5303 1050.35,-55.3471 1175,-63 1180.74,-63.3521 1186.7,-63.7772 1192.67,-64.2416"/>
<polygon fill="#9a32cd" stroke="#9a32cd" points="886.042,-60.002 876.318,-64.2091 886.543,-66.984 886.042,-60.002"/>
<text text-anchor="middle" x="1035.5" y="-62" font-family="Helvetica,sans-Serif" font-size="10.00"> mpRefKF</text>
</g>
<!-- Node2 -->
<g id="node2" class="node"><title>Node2</title>
<g id="a_node2"><a xlink:href="class_o_r_b___s_l_a_m2_1_1_key_frame_database.html" target="_top" xlink:title="Lista invertida de KeyFrames, accesible por BoW. ">
<polygon fill="white" stroke="black" points="468,-80.5 468,-99.5 637,-99.5 637,-80.5 468,-80.5"/>
<text text-anchor="middle" x="552.5" y="-87.5" font-family="Helvetica,sans-Serif" font-size="10.00">ORB_SLAM2::KeyFrameDatabase</text>
</a>
</g>
</g>
<!-- Node2&#45;&gt;Node1 -->
<g id="edge1" class="edge"><title>Node2&#45;&gt;Node1</title>
<path fill="none" stroke="#9a32cd" stroke-dasharray="5,2" d="M647.62,-82.7039C681.378,-80.087 718.582,-77.2029 748.998,-74.8451"/>
<polygon fill="#9a32cd" stroke="#9a32cd" points="646.965,-79.2441 637.265,-83.5066 647.506,-86.2231 646.965,-79.2441"/>
<text text-anchor="middle" x="693" y="-85" font-family="Helvetica,sans-Serif" font-size="10.00"> mpKeyFrameDB</text>
</g>
<!-- Node3 -->
<g id="node3" class="node"><title>Node3</title>
<g id="a_node3"><a xlink:href="class_d_bo_w2_1_1_templated_vocabulary.html" target="_top" xlink:title="Generic Vocabulary. ">
<polygon fill="white" stroke="black" points="243,-107 243,-137 395,-137 395,-107 243,-107"/>
<text text-anchor="start" x="251" y="-125" font-family="Helvetica,sans-Serif" font-size="10.00">DBoW2::TemplatedVocabulary</text>
<text text-anchor="middle" x="319" y="-114" font-family="Helvetica,sans-Serif" font-size="10.00">&lt; TDescriptor, F &gt;</text>
</a>
</g>
</g>
<!-- Node3&#45;&gt;Node1 -->
<g id="edge11" class="edge"><title>Node3&#45;&gt;Node1</title>
<path fill="none" stroke="#9a32cd" stroke-dasharray="5,2" d="M405.549,-124.9C489.5,-125.859 620.632,-122.294 731,-97 750.254,-92.5874 771.407,-85.3966 787.196,-79.545"/>
<polygon fill="#9a32cd" stroke="#9a32cd" points="405.343,-121.397 395.296,-124.757 405.246,-128.396 405.343,-121.397"/>
<text text-anchor="middle" x="552.5" y="-127" font-family="Helvetica,sans-Serif" font-size="10.00"> mpORBvocabulary</text>
</g>
<!-- Node3&#45;&gt;Node2 -->
<g id="edge2" class="edge"><title>Node3&#45;&gt;Node2</title>
<path fill="none" stroke="#9a32cd" stroke-dasharray="5,2" d="M405.186,-110.225C430.673,-106.702 458.289,-102.884 482.592,-99.5251"/>
<polygon fill="#9a32cd" stroke="#9a32cd" points="404.588,-106.774 395.161,-111.611 405.547,-113.708 404.588,-106.774"/>
<text text-anchor="middle" x="433" y="-110" font-family="Helvetica,sans-Serif" font-size="10.00"> mpVoc</text>
</g>
<!-- Node4 -->
<g id="node4" class="node"><title>Node4</title>
<g id="a_node4"><a xlink:href="class_d_bo_w2_1_1_general_scoring.html" target="_top" xlink:title="Base class of scoring functions. ">
<polygon fill="white" stroke="black" points="0,-112.5 0,-131.5 124,-131.5 124,-112.5 0,-112.5"/>
<text text-anchor="middle" x="62" y="-119.5" font-family="Helvetica,sans-Serif" font-size="10.00">DBoW2::GeneralScoring</text>
</a>
</g>
</g>
<!-- Node4&#45;&gt;Node3 -->
<g id="edge3" class="edge"><title>Node4&#45;&gt;Node3</title>
<path fill="none" stroke="#9a32cd" stroke-dasharray="5,2" d="M134.347,-122C168.159,-122 208.555,-122 242.841,-122"/>
<polygon fill="#9a32cd" stroke="#9a32cd" points="134.079,-118.5 124.079,-122 134.079,-125.5 134.079,-118.5"/>
<text text-anchor="middle" x="182" y="-125" font-family="Helvetica,sans-Serif" font-size="10.00"> m_scoring_object</text>
</g>
<!-- Node5&#45;&gt;Node1 -->
<g id="edge5" class="edge"><title>Node5&#45;&gt;Node1</title>
<path fill="none" stroke="#9a32cd" stroke-dasharray="5,2" d="M997.175,-77.5738C987.46,-74.872 976.931,-72.404 967,-71 937.314,-66.803 904.076,-66.1017 876.14,-66.6342"/>
<polygon fill="#9a32cd" stroke="#9a32cd" points="996.363,-80.9831 1006.94,-80.4392 998.333,-74.2661 996.363,-80.9831"/>
<text text-anchor="middle" x="930.5" y="-74" font-family="Helvetica,sans-Serif" font-size="10.00"> mpMap</text>
</g>
<!-- Node5&#45;&gt;Node6 -->
<g id="edge9" class="edge"><title>Node5&#45;&gt;Node6</title>
<path fill="none" stroke="#9a32cd" stroke-dasharray="5,2" d="M1096.46,-87.7679C1120.87,-86.5391 1149.33,-84.6979 1175,-82 1181.58,-81.3084 1188.45,-80.4543 1195.28,-79.5229"/>
<polygon fill="#9a32cd" stroke="#9a32cd" points="1096.09,-84.2817 1086.27,-88.2578 1096.43,-91.2736 1096.09,-84.2817"/>
<text text-anchor="middle" x="1139.5" y="-91" font-family="Helvetica,sans-Serif" font-size="10.00"> mpMap</text>
</g>
<!-- Node6&#45;&gt;Node5 -->
<g id="edge6" class="edge"><title>Node6&#45;&gt;Node5</title>
<path fill="none" stroke="#9a32cd" stroke-dasharray="5,2" d="M1182.73,-66.6074C1157.74,-66.4295 1129.52,-67.3892 1104,-71 1090.62,-72.8929 1076.15,-76.7163 1064.06,-80.4403"/>
<polygon fill="#9a32cd" stroke="#9a32cd" points="1182.81,-70.1087 1192.85,-66.7418 1182.9,-63.1093 1182.81,-70.1087"/>
<text text-anchor="middle" x="1139.5" y="-74" font-family="Helvetica,sans-Serif" font-size="10.00"> mapPointBuffer</text>
</g>
<!-- Node6&#45;&gt;Node6 -->
<g id="edge7" class="edge"><title>Node6&#45;&gt;Node6</title>
<path fill="none" stroke="#9a32cd" stroke-dasharray="5,2" d="M1233.39,-89.4C1234.8,-94.3146 1241.84,-98 1254.5,-98 1274.76,-98 1280.62,-88.5653 1272.07,-79.7571"/>
<polygon fill="#9a32cd" stroke="#9a32cd" points="1236.77,-90.3507 1236.93,-79.7571 1230.2,-87.9387 1236.77,-90.3507"/>
<text text-anchor="middle" x="1254.5" y="-101" font-family="Helvetica,sans-Serif" font-size="10.00"> mpReplaced</text>
</g>
<!-- Node7 -->
<g id="node7" class="node"><title>Node7</title>
<g id="a_node7"><a xlink:href="class_d_bo_w2_1_1_feature_vector.html" target="_top" xlink:title="Vector of nodes with indexes of local features. ">
<polygon fill="white" stroke="black" points="493,-42.5 493,-61.5 612,-61.5 612,-42.5 493,-42.5"/>
<text text-anchor="middle" x="552.5" y="-49.5" font-family="Helvetica,sans-Serif" font-size="10.00">DBoW2::FeatureVector</text>
</a>
</g>
</g>
<!-- Node7&#45;&gt;Node1 -->
<g id="edge12" class="edge"><title>Node7&#45;&gt;Node1</title>
<path fill="none" stroke="#9a32cd" stroke-dasharray="5,2" d="M622.01,-50.491C655.028,-50.4437 695.151,-51.3828 731,-55 743.023,-56.2131 755.936,-58.2743 767.824,-60.4867"/>
<polygon fill="#9a32cd" stroke="#9a32cd" points="621.988,-46.9909 612.004,-50.5355 622.019,-53.9909 621.988,-46.9909"/>
<text text-anchor="middle" x="693" y="-58" font-family="Helvetica,sans-Serif" font-size="10.00"> mFeatVec</text>
</g>
<!-- Node8 -->
<g id="node8" class="node"><title>Node8</title>
<polygon fill="white" stroke="#bfbfbf" points="254.5,-39 254.5,-69 383.5,-69 383.5,-39 254.5,-39"/>
<text text-anchor="start" x="262.5" y="-57" font-family="Helvetica,sans-Serif" font-size="10.00">std::map&lt; NodeId, std</text>
<text text-anchor="middle" x="319" y="-46" font-family="Helvetica,sans-Serif" font-size="10.00">::vector&lt; unsigned int &gt; &gt;</text>
</g>
<!-- Node8&#45;&gt;Node7 -->
<g id="edge13" class="edge"><title>Node8&#45;&gt;Node7</title>
<path fill="none" stroke="midnightblue" d="M393.769,-53.3627C425.779,-53.0861 462.744,-52.7668 492.84,-52.5068"/>
<polygon fill="midnightblue" stroke="midnightblue" points="393.534,-49.8645 383.565,-53.4508 393.594,-56.8642 393.534,-49.8645"/>
</g>
<!-- Node9 -->
<g id="node9" class="node"><title>Node9</title>
<g id="a_node9"><a xlink:href="class_d_bo_w2_1_1_bow_vector.html" target="_top" xlink:title="Vector of words to represent images. ">
<polygon fill="white" stroke="black" points="500,-3.5 500,-22.5 605,-22.5 605,-3.5 500,-3.5"/>
<text text-anchor="middle" x="552.5" y="-10.5" font-family="Helvetica,sans-Serif" font-size="10.00">DBoW2::BowVector</text>
</a>
</g>
</g>
<!-- Node9&#45;&gt;Node1 -->
<g id="edge14" class="edge"><title>Node9&#45;&gt;Node1</title>
<path fill="none" stroke="#9a32cd" stroke-dasharray="5,2" d="M615.49,-16.8953C649.952,-20.0867 693.352,-25.8133 731,-36 752.967,-41.9436 776.829,-52.595 792.823,-60.3967"/>
<polygon fill="#9a32cd" stroke="#9a32cd" points="615.366,-13.3711 605.099,-15.9842 614.755,-20.3443 615.366,-13.3711"/>
<text text-anchor="middle" x="693" y="-39" font-family="Helvetica,sans-Serif" font-size="10.00"> mBowVec</text>
</g>
<!-- Node10 -->
<g id="node10" class="node"><title>Node10</title>
<polygon fill="white" stroke="#bfbfbf" points="240,-0.5 240,-19.5 398,-19.5 398,-0.5 240,-0.5"/>
<text text-anchor="middle" x="319" y="-7.5" font-family="Helvetica,sans-Serif" font-size="10.00">std::map&lt; WordId, WordValue &gt;</text>
</g>
<!-- Node10&#45;&gt;Node9 -->
<g id="edge15" class="edge"><title>Node10&#45;&gt;Node9</title>
<path fill="none" stroke="midnightblue" d="M408.425,-11.1459C439.362,-11.5468 473.061,-11.9835 499.979,-12.3323"/>
<polygon fill="midnightblue" stroke="midnightblue" points="408.097,-7.64145 398.053,-11.0115 408.006,-14.6409 408.097,-7.64145"/>
</g>
</g>
</svg>
