<?xml version="1.0" encoding="UTF-8" standalone="no"?>
<!DOCTYPE svg PUBLIC "-//W3C//DTD SVG 1.1//EN"
 "http://www.w3.org/Graphics/SVG/1.1/DTD/svg11.dtd">
<!-- Generated by graphviz version 2.38.0 (20140413.2041)
 -->
<!-- Title: g2o::BaseMultiEdge&lt; D, E &gt; Pages: 1 -->
<svg width="326pt" height="309pt"
 viewBox="0.00 0.00 325.50 309.00" xmlns="http://www.w3.org/2000/svg" xmlns:xlink="http://www.w3.org/1999/xlink">
<g id="graph0" class="graph" transform="scale(1 1) rotate(0) translate(4 305)">
<title>g2o::BaseMultiEdge&lt; D, E &gt;</title>
<polygon fill="white" stroke="none" points="-4,4 -4,-305 321.5,-305 321.5,4 -4,4"/>
<!-- Node5 -->
<g id="node1" class="node"><title>Node5</title>
<polygon fill="#bfbfbf" stroke="black" points="184.5,-0.5 184.5,-30.5 288.5,-30.5 288.5,-0.5 184.5,-0.5"/>
<text text-anchor="start" x="192.5" y="-18.5" font-family="Helvetica,sans-Serif" font-size="10.00">g2o::BaseMultiEdge</text>
<text text-anchor="middle" x="236.5" y="-7.5" font-family="Helvetica,sans-Serif" font-size="10.00">&lt; D, E &gt;</text>
</g>
<!-- Node6 -->
<g id="node2" class="node"><title>Node6</title>
<g id="a_node2"><a xlink:href="classg2o_1_1_base_edge.html" target="_top" xlink:title="g2o::BaseEdge\&lt; D, E \&gt;">
<polygon fill="white" stroke="black" points="175.5,-68.5 175.5,-87.5 297.5,-87.5 297.5,-68.5 175.5,-68.5"/>
<text text-anchor="middle" x="236.5" y="-75.5" font-family="Helvetica,sans-Serif" font-size="10.00">g2o::BaseEdge&lt; D, E &gt;</text>
</a>
</g>
</g>
<!-- Node6&#45;&gt;Node5 -->
<g id="edge1" class="edge"><title>Node6&#45;&gt;Node5</title>
<path fill="none" stroke="midnightblue" d="M236.5,-58.2154C236.5,-49.3565 236.5,-38.9577 236.5,-30.7587"/>
<polygon fill="midnightblue" stroke="midnightblue" points="233,-58.3318 236.5,-68.3318 240,-58.3319 233,-58.3318"/>
</g>
<!-- Node7 -->
<g id="node3" class="node"><title>Node7</title>
<g id="a_node3"><a xlink:href="classg2o_1_1_optimizable_graph_1_1_edge.html" target="_top" xlink:title="g2o::OptimizableGraph\l::Edge">
<polygon fill="white" stroke="black" points="111.5,-135.5 111.5,-165.5 227.5,-165.5 227.5,-135.5 111.5,-135.5"/>
<text text-anchor="start" x="119.5" y="-153.5" font-family="Helvetica,sans-Serif" font-size="10.00">g2o::OptimizableGraph</text>
<text text-anchor="middle" x="169.5" y="-142.5" font-family="Helvetica,sans-Serif" font-size="10.00">::Edge</text>
</a>
</g>
</g>
<!-- Node7&#45;&gt;Node6 -->
<g id="edge2" class="edge"><title>Node7&#45;&gt;Node6</title>
<path fill="none" stroke="midnightblue" d="M190.159,-127.762C202.911,-114.344 218.587,-97.8487 228.048,-87.8932"/>
<polygon fill="midnightblue" stroke="midnightblue" points="187.41,-125.573 183.058,-135.233 192.484,-130.396 187.41,-125.573"/>
</g>
<!-- Node8 -->
<g id="node4" class="node"><title>Node8</title>
<g id="a_node4"><a xlink:href="classg2o_1_1_hyper_graph_1_1_edge.html" target="_top" xlink:title="Abstract Edge class. ">
<polygon fill="white" stroke="black" points="15,-213.5 15,-232.5 134,-232.5 134,-213.5 15,-213.5"/>
<text text-anchor="middle" x="74.5" y="-220.5" font-family="Helvetica,sans-Serif" font-size="10.00">g2o::HyperGraph::Edge</text>
</a>
</g>
</g>
<!-- Node8&#45;&gt;Node7 -->
<g id="edge3" class="edge"><title>Node8&#45;&gt;Node7</title>
<path fill="none" stroke="midnightblue" d="M94.5428,-207.126C111.058,-194.87 134.318,-177.608 150.532,-165.576"/>
<polygon fill="midnightblue" stroke="midnightblue" points="92.0934,-204.585 86.1489,-213.355 96.265,-210.207 92.0934,-204.585"/>
</g>
<!-- Node9 -->
<g id="node5" class="node"><title>Node9</title>
<g id="a_node5"><a xlink:href="structg2o_1_1_hyper_graph_1_1_hyper_graph_element.html" target="_top" xlink:title="base hyper graph element, specialized in vertex and edge ">
<polygon fill="white" stroke="black" points="0,-270.5 0,-300.5 149,-300.5 149,-270.5 0,-270.5"/>
<text text-anchor="start" x="8" y="-288.5" font-family="Helvetica,sans-Serif" font-size="10.00">g2o::HyperGraph::HyperGraph</text>
<text text-anchor="middle" x="74.5" y="-277.5" font-family="Helvetica,sans-Serif" font-size="10.00">Element</text>
</a>
</g>
</g>
<!-- Node9&#45;&gt;Node8 -->
<g id="edge4" class="edge"><title>Node9&#45;&gt;Node8</title>
<path fill="none" stroke="midnightblue" d="M74.5,-260.352C74.5,-250.513 74.5,-239.775 74.5,-232.54"/>
<polygon fill="midnightblue" stroke="midnightblue" points="71.0001,-260.468 74.5,-270.468 78.0001,-260.468 71.0001,-260.468"/>
</g>
<!-- Node10 -->
<g id="node6" class="node"><title>Node10</title>
<g id="a_node6"><a xlink:href="classg2o_1_1_robust_kernel.html" target="_top" xlink:title="base for all robust cost functions ">
<polygon fill="white" stroke="black" points="152.5,-213.5 152.5,-232.5 250.5,-232.5 250.5,-213.5 152.5,-213.5"/>
<text text-anchor="middle" x="201.5" y="-220.5" font-family="Helvetica,sans-Serif" font-size="10.00">g2o::RobustKernel</text>
</a>
</g>
</g>
<!-- Node10&#45;&gt;Node7 -->
<g id="edge5" class="edge"><title>Node10&#45;&gt;Node7</title>
<path fill="none" stroke="#9a32cd" stroke-dasharray="5,2" d="M193.313,-203.964C187.896,-192.029 180.896,-176.606 175.889,-165.576"/>
<polygon fill="#9a32cd" stroke="#9a32cd" points="190.256,-205.696 197.576,-213.355 196.63,-202.803 190.256,-205.696"/>
<text text-anchor="middle" x="220.5" y="-187" font-family="Helvetica,sans-Serif" font-size="10.00"> _robustKernel</text>
</g>
<!-- Node11 -->
<g id="node7" class="node"><title>Node11</title>
<polygon fill="white" stroke="#bfbfbf" points="245,-141 245,-160 274,-160 274,-141 245,-141"/>
<text text-anchor="middle" x="259.5" y="-148" font-family="Helvetica,sans-Serif" font-size="10.00">E</text>
</g>
<!-- Node11&#45;&gt;Node6 -->
<g id="edge6" class="edge"><title>Node11&#45;&gt;Node6</title>
<path fill="none" stroke="#9a32cd" stroke-dasharray="5,2" d="M253.553,-131.271C248.983,-117.262 242.872,-98.5324 239.343,-87.7154"/>
<polygon fill="#9a32cd" stroke="#9a32cd" points="250.251,-132.434 256.68,-140.855 256.906,-130.263 250.251,-132.434"/>
<text text-anchor="middle" x="283.5" y="-109" font-family="Helvetica,sans-Serif" font-size="10.00"> _measurement</text>
</g>
</g>
</svg>
