<?xml version="1.0" encoding="UTF-8" standalone="no"?>
<!DOCTYPE svg PUBLIC "-//W3C//DTD SVG 1.1//EN"
 "http://www.w3.org/Graphics/SVG/1.1/DTD/svg11.dtd">
<!-- Generated by graphviz version 2.38.0 (20140413.2041)
 -->
<!-- Title: ORB_SLAM2::LocalMapping Pages: 1 -->
<svg width="1758pt" height="778pt"
 viewBox="0.00 0.00 1758.00 778.30" xmlns="http://www.w3.org/2000/svg" xmlns:xlink="http://www.w3.org/1999/xlink">
<g id="graph0" class="graph" transform="scale(1 1) rotate(0) translate(4 774.298)">
<title>ORB_SLAM2::LocalMapping</title>
<polygon fill="white" stroke="none" points="-4,4 -4,-774.298 1754,-774.298 1754,4 -4,4"/>
<!-- Node1 -->
<g id="node1" class="node"><title>Node1</title>
<polygon fill="#bfbfbf" stroke="black" points="1078,-435.798 1078,-454.798 1220,-454.798 1220,-435.798 1078,-435.798"/>
<text text-anchor="middle" x="1149" y="-442.798" font-family="Helvetica,sans-Serif" font-size="10.00">ORB_SLAM2::LocalMapping</text>
</g>
<!-- Node11 -->
<g id="node11" class="node"><title>Node11</title>
<g id="a_node11"><a xlink:href="class_o_r_b___s_l_a_m2_1_1_loop_closing.html" target="_top" xlink:title="ORB_SLAM2::LoopClosing">
<polygon fill="white" stroke="black" points="1388,-459.798 1388,-478.798 1524,-478.798 1524,-459.798 1388,-459.798"/>
<text text-anchor="middle" x="1456" y="-466.798" font-family="Helvetica,sans-Serif" font-size="10.00">ORB_SLAM2::LoopClosing</text>
</a>
</g>
</g>
<!-- Node1&#45;&gt;Node11 -->
<g id="edge18" class="edge"><title>Node1&#45;&gt;Node11</title>
<path fill="none" stroke="#9a32cd" stroke-dasharray="5,2" d="M1230.61,-451.641C1279.64,-455.499 1341.52,-460.368 1387.88,-464.016"/>
<polygon fill="#9a32cd" stroke="#9a32cd" points="1230.6,-448.129 1220.36,-450.834 1230.05,-455.108 1230.6,-448.129"/>
<text text-anchor="middle" x="1304" y="-465.298" font-family="Helvetica,sans-Serif" font-size="10.00"> mpLocalMapper</text>
</g>
<!-- Node13 -->
<g id="node13" class="node"><title>Node13</title>
<g id="a_node13"><a xlink:href="class_o_r_b___s_l_a_m2_1_1_tracking.html" target="_top" xlink:title="Objeto único que se ejecuta en su propio Trhead, y se inicia con Run(). ">
<polygon fill="white" stroke="black" points="1631,-285.798 1631,-304.798 1750,-304.798 1750,-285.798 1631,-285.798"/>
<text text-anchor="middle" x="1690.5" y="-292.798" font-family="Helvetica,sans-Serif" font-size="10.00">ORB_SLAM2::Tracking</text>
</a>
</g>
</g>
<!-- Node1&#45;&gt;Node13 -->
<g id="edge30" class="edge"><title>Node1&#45;&gt;Node13</title>
<path fill="none" stroke="#9a32cd" stroke-dasharray="5,2" d="M1185.99,-431.622C1197.52,-426.28 1209.9,-419.455 1220,-411.298 1230.1,-403.141 1226.97,-395.137 1238,-388.298 1255.09,-377.703 1523.68,-326.413 1638.3,-304.864"/>
<polygon fill="#9a32cd" stroke="#9a32cd" points="1184.33,-428.53 1176.58,-435.757 1187.15,-434.939 1184.33,-428.53"/>
<text text-anchor="middle" x="1456" y="-356.298" font-family="Helvetica,sans-Serif" font-size="10.00"> mpLocalMapper</text>
</g>
<!-- Node2 -->
<g id="node2" class="node"><title>Node2</title>
<g id="a_node2"><a xlink:href="class_o_r_b___s_l_a_m2_1_1_key_frame.html" target="_top" xlink:title="Cuadro clave, keyframe. ">
<polygon fill="white" stroke="black" points="766.5,-513.798 766.5,-532.798 893.5,-532.798 893.5,-513.798 766.5,-513.798"/>
<text text-anchor="middle" x="830" y="-520.798" font-family="Helvetica,sans-Serif" font-size="10.00">ORB_SLAM2::KeyFrame</text>
</a>
</g>
</g>
<!-- Node2&#45;&gt;Node1 -->
<g id="edge1" class="edge"><title>Node2&#45;&gt;Node1</title>
<path fill="none" stroke="#9a32cd" stroke-dasharray="5,2" d="M903.945,-521.058C960.273,-518.39 1033.01,-512.625 1060,-500.298 1070.01,-495.726 1069.09,-489.755 1078,-483.298 1093.45,-472.1 1112.59,-461.933 1126.94,-454.938"/>
<polygon fill="#9a32cd" stroke="#9a32cd" points="903.466,-517.576 893.633,-521.521 903.78,-524.569 903.466,-517.576"/>
<text text-anchor="middle" x="989.5" y="-523.298" font-family="Helvetica,sans-Serif" font-size="10.00"> mpCurrentKeyFrame</text>
</g>
<!-- Node2&#45;&gt;Node2 -->
<g id="edge5" class="edge"><title>Node2&#45;&gt;Node2</title>
<path fill="none" stroke="#9a32cd" stroke-dasharray="5,2" d="M805.447,-542.327C806.786,-547.426 814.97,-551.298 830,-551.298 853.461,-551.298 860.243,-541.863 850.345,-533.055"/>
<polygon fill="#9a32cd" stroke="#9a32cd" points="808.709,-543.607 809.655,-533.055 802.335,-540.714 808.709,-543.607"/>
<text text-anchor="middle" x="830" y="-554.298" font-family="Helvetica,sans-Serif" font-size="10.00"> mpParent</text>
</g>
<!-- Node2&#45;&gt;Node11 -->
<g id="edge14" class="edge"><title>Node2&#45;&gt;Node11</title>
<path fill="none" stroke="#9a32cd" stroke-dasharray="5,2" d="M904.178,-533.145C909.188,-533.603 914.164,-533.997 919,-534.298 1119.39,-546.773 1175.88,-559.585 1370,-508.298 1395.12,-501.662 1422.04,-488.086 1438.7,-478.838"/>
<polygon fill="#9a32cd" stroke="#9a32cd" points="904.18,-529.628 893.883,-532.122 903.487,-536.594 904.18,-529.628"/>
<text text-anchor="middle" x="1149" y="-560.298" font-family="Helvetica,sans-Serif" font-size="10.00"> mpMatchedKF</text>
<text text-anchor="middle" x="1149" y="-549.298" font-family="Helvetica,sans-Serif" font-size="10.00">mpCurrentKF</text>
</g>
<!-- Node2&#45;&gt;Node13 -->
<g id="edge23" class="edge"><title>Node2&#45;&gt;Node13</title>
<path fill="none" stroke="#9a32cd" stroke-dasharray="5,2" d="M859.175,-538.092C873.826,-547.202 890.764,-560.218 901,-576.298 921.504,-608.505 889.308,-636.294 919,-660.298 959.572,-693.096 1217.79,-694.464 1370,-645.298 1492.59,-605.701 1531.33,-586.92 1613,-487.298 1661.23,-428.471 1682.04,-335.404 1687.77,-305.15"/>
<polygon fill="#9a32cd" stroke="#9a32cd" points="860.821,-534.999 850.43,-532.933 857.264,-541.028 860.821,-534.999"/>
<text text-anchor="middle" x="1304" y="-676.298" font-family="Helvetica,sans-Serif" font-size="10.00"> mpReferenceKF</text>
</g>
<!-- Node17 -->
<g id="node17" class="node"><title>Node17</title>
<g id="a_node17"><a xlink:href="class_o_r_b___s_l_a_m2_1_1_frame.html" target="_top" xlink:title="Frame es un cuadro, una imagen, con los puntos detectados. ">
<polygon fill="white" stroke="black" points="1094,-382.798 1094,-401.798 1204,-401.798 1204,-382.798 1094,-382.798"/>
<text text-anchor="middle" x="1149" y="-389.798" font-family="Helvetica,sans-Serif" font-size="10.00">ORB_SLAM2::Frame</text>
</a>
</g>
</g>
<!-- Node2&#45;&gt;Node17 -->
<g id="edge32" class="edge"><title>Node2&#45;&gt;Node17</title>
<path fill="none" stroke="#9a32cd" stroke-dasharray="5,2" d="M862.137,-509.739C878.852,-502.67 899.892,-494.103 919,-487.298 980.718,-465.315 1003.83,-478.021 1060,-444.298 1069.7,-438.474 1068.78,-432.86 1078,-426.298 1091.98,-416.345 1109.31,-407.9 1123.24,-401.915"/>
<polygon fill="#9a32cd" stroke="#9a32cd" points="860.668,-506.561 852.843,-513.704 863.415,-513 860.668,-506.561"/>
<text text-anchor="middle" x="989.5" y="-490.298" font-family="Helvetica,sans-Serif" font-size="10.00"> mpReferenceKF</text>
</g>
<!-- Node3 -->
<g id="node3" class="node"><title>Node3</title>
<g id="a_node3"><a xlink:href="class_o_r_b___s_l_a_m2_1_1_key_frame_database.html" target="_top" xlink:title="Lista invertida de KeyFrames, accesible por BoW. ">
<polygon fill="white" stroke="black" points="468,-640.798 468,-659.798 637,-659.798 637,-640.798 468,-640.798"/>
<text text-anchor="middle" x="552.5" y="-647.798" font-family="Helvetica,sans-Serif" font-size="10.00">ORB_SLAM2::KeyFrameDatabase</text>
</a>
</g>
</g>
<!-- Node3&#45;&gt;Node2 -->
<g id="edge2" class="edge"><title>Node3&#45;&gt;Node2</title>
<path fill="none" stroke="#9a32cd" stroke-dasharray="5,2" d="M595.114,-637.652C633.849,-625.213 692.701,-604.592 741,-580.298 769.132,-566.147 799.43,-545.091 816.119,-532.925"/>
<polygon fill="#9a32cd" stroke="#9a32cd" points="593.706,-634.426 585.233,-640.787 595.824,-641.098 593.706,-634.426"/>
<text text-anchor="middle" x="698" y="-620.298" font-family="Helvetica,sans-Serif" font-size="10.00"> mpKeyFrameDB</text>
</g>
<!-- Node3&#45;&gt;Node11 -->
<g id="edge13" class="edge"><title>Node3&#45;&gt;Node11</title>
<path fill="none" stroke="#9a32cd" stroke-dasharray="5,2" d="M647.327,-656.803C835.408,-668.113 1250.74,-683.865 1370,-612.298 1421.76,-581.237 1445.66,-505.58 1452.69,-478.847"/>
<polygon fill="#9a32cd" stroke="#9a32cd" points="647.374,-653.3 637.179,-656.184 646.948,-660.287 647.374,-653.3"/>
<text text-anchor="middle" x="989.5" y="-670.298" font-family="Helvetica,sans-Serif" font-size="10.00"> mpKeyFrameDB</text>
</g>
<!-- Node3&#45;&gt;Node13 -->
<g id="edge22" class="edge"><title>Node3&#45;&gt;Node13</title>
<path fill="none" stroke="#9a32cd" stroke-dasharray="5,2" d="M584.891,-663.722C635.355,-684.049 738.089,-720.298 829,-720.298 829,-720.298 829,-720.298 1457,-720.298 1652.96,-720.298 1684.81,-368.234 1688.95,-304.973"/>
<polygon fill="#9a32cd" stroke="#9a32cd" points="586.095,-660.433 575.514,-659.884 583.443,-666.911 586.095,-660.433"/>
<text text-anchor="middle" x="1149" y="-723.298" font-family="Helvetica,sans-Serif" font-size="10.00"> mpKeyFrameDB</text>
</g>
<!-- Node4 -->
<g id="node4" class="node"><title>Node4</title>
<g id="a_node4"><a xlink:href="class_d_bo_w2_1_1_templated_vocabulary.html" target="_top" xlink:title="Generic Vocabulary. ">
<polygon fill="white" stroke="black" points="243,-590.298 243,-620.298 395,-620.298 395,-590.298 243,-590.298"/>
<text text-anchor="start" x="251" y="-608.298" font-family="Helvetica,sans-Serif" font-size="10.00">DBoW2::TemplatedVocabulary</text>
<text text-anchor="middle" x="319" y="-597.298" font-family="Helvetica,sans-Serif" font-size="10.00">&lt; TDescriptor, F &gt;</text>
</a>
</g>
</g>
<!-- Node4&#45;&gt;Node2 -->
<g id="edge7" class="edge"><title>Node4&#45;&gt;Node2</title>
<path fill="none" stroke="#9a32cd" stroke-dasharray="5,2" d="M405.181,-590.42C425.729,-586.967 447.632,-583.397 468,-580.298 589.049,-561.876 620.516,-565.109 741,-543.298 757.342,-540.339 775.238,-536.402 790.599,-532.803"/>
<polygon fill="#9a32cd" stroke="#9a32cd" points="404.492,-586.987 395.215,-592.104 405.658,-593.889 404.492,-586.987"/>
<text text-anchor="middle" x="552.5" y="-583.298" font-family="Helvetica,sans-Serif" font-size="10.00"> mpORBvocabulary</text>
</g>
<!-- Node4&#45;&gt;Node3 -->
<g id="edge3" class="edge"><title>Node4&#45;&gt;Node3</title>
<path fill="none" stroke="#9a32cd" stroke-dasharray="5,2" d="M405.214,-621.862C438.013,-628.237 474.335,-635.298 502.581,-640.788"/>
<polygon fill="#9a32cd" stroke="#9a32cd" points="405.646,-618.38 395.161,-619.908 404.31,-625.252 405.646,-618.38"/>
<text text-anchor="middle" x="433" y="-634.298" font-family="Helvetica,sans-Serif" font-size="10.00"> mpVoc</text>
</g>
<!-- Node4&#45;&gt;Node11 -->
<g id="edge17" class="edge"><title>Node4&#45;&gt;Node11</title>
<path fill="none" stroke="#9a32cd" stroke-dasharray="5,2" d="M405.362,-607.613C565.759,-610.759 922.774,-612.046 1220,-572.298 1287.85,-563.224 1308.42,-567.197 1370,-537.298 1401.28,-522.111 1431.51,-493.626 1446.03,-478.805"/>
<polygon fill="#9a32cd" stroke="#9a32cd" points="405.154,-604.108 395.084,-607.403 405.011,-611.106 405.154,-604.108"/>
<text text-anchor="middle" x="830" y="-609.298" font-family="Helvetica,sans-Serif" font-size="10.00"> mpORBVocabulary</text>
</g>
<!-- Node4&#45;&gt;Node13 -->
<g id="edge29" class="edge"><title>Node4&#45;&gt;Node13</title>
<path fill="none" stroke="#9a32cd" stroke-dasharray="5,2" d="M337.904,-628.291C373.549,-671.228 458.049,-759.298 551.5,-759.298 551.5,-759.298 551.5,-759.298 1457,-759.298 1537.04,-759.298 1569.75,-736.649 1613,-669.298 1693.58,-543.825 1691.61,-350.004 1689.95,-304.902"/>
<polygon fill="#9a32cd" stroke="#9a32cd" points="340.464,-625.892 331.438,-620.344 335.035,-630.31 340.464,-625.892"/>
<text text-anchor="middle" x="989.5" y="-762.298" font-family="Helvetica,sans-Serif" font-size="10.00"> mpORBVocabulary</text>
</g>
<!-- Node4&#45;&gt;Node17 -->
<g id="edge33" class="edge"><title>Node4&#45;&gt;Node17</title>
<path fill="none" stroke="#9a32cd" stroke-dasharray="5,2" d="M336.156,-581.731C360.601,-547.986 410.301,-486.434 468,-454.298 542.417,-412.849 570.545,-423.402 655,-412.298 655.337,-412.253 965.901,-399.672 1093.87,-394.489"/>
<polygon fill="#9a32cd" stroke="#9a32cd" points="333.168,-579.894 330.221,-590.071 338.871,-583.953 333.168,-579.894"/>
<text text-anchor="middle" x="698" y="-415.298" font-family="Helvetica,sans-Serif" font-size="10.00"> mpORBvocabulary</text>
</g>
<!-- Node5 -->
<g id="node5" class="node"><title>Node5</title>
<g id="a_node5"><a xlink:href="class_d_bo_w2_1_1_general_scoring.html" target="_top" xlink:title="Base class of scoring functions. ">
<polygon fill="white" stroke="black" points="0,-595.798 0,-614.798 124,-614.798 124,-595.798 0,-595.798"/>
<text text-anchor="middle" x="62" y="-602.798" font-family="Helvetica,sans-Serif" font-size="10.00">DBoW2::GeneralScoring</text>
</a>
</g>
</g>
<!-- Node5&#45;&gt;Node4 -->
<g id="edge4" class="edge"><title>Node5&#45;&gt;Node4</title>
<path fill="none" stroke="#9a32cd" stroke-dasharray="5,2" d="M134.347,-605.298C168.159,-605.298 208.555,-605.298 242.841,-605.298"/>
<polygon fill="#9a32cd" stroke="#9a32cd" points="134.079,-601.798 124.079,-605.298 134.079,-608.798 134.079,-601.798"/>
<text text-anchor="middle" x="182" y="-608.298" font-family="Helvetica,sans-Serif" font-size="10.00"> m_scoring_object</text>
</g>
<!-- Node6 -->
<g id="node6" class="node"><title>Node6</title>
<g id="a_node6"><a xlink:href="class_o_r_b___s_l_a_m2_1_1_map.html" target="_top" xlink:title="Mapa del mundo, de puntos y keyframes. ">
<polygon fill="white" stroke="black" points="502,-238.798 502,-257.798 603,-257.798 603,-238.798 502,-238.798"/>
<text text-anchor="middle" x="552.5" y="-245.798" font-family="Helvetica,sans-Serif" font-size="10.00">ORB_SLAM2::Map</text>
</a>
</g>
</g>
<!-- Node6&#45;&gt;Node1 -->
<g id="edge40" class="edge"><title>Node6&#45;&gt;Node1</title>
<path fill="none" stroke="#9a32cd" stroke-dasharray="5,2" d="M577.981,-262.994C598.115,-274.606 627.678,-290.588 655,-301.298 760.501,-342.651 792.225,-336.541 901,-368.298 979.905,-391.333 1072.22,-420.782 1118.45,-435.704"/>
<polygon fill="#9a32cd" stroke="#9a32cd" points="579.571,-259.869 569.171,-257.843 576.038,-265.912 579.571,-259.869"/>
<text text-anchor="middle" x="830" y="-371.298" font-family="Helvetica,sans-Serif" font-size="10.00"> mpMap</text>
</g>
<!-- Node6&#45;&gt;Node2 -->
<g id="edge6" class="edge"><title>Node6&#45;&gt;Node2</title>
<path fill="none" stroke="#9a32cd" stroke-dasharray="5,2" d="M569.747,-265.455C588.513,-286.157 619.095,-322.755 637,-359.298 650.378,-386.601 633.331,-403.969 655,-425.298 683.117,-452.974 710.428,-422.36 741,-447.298 755.171,-458.856 746.433,-471.013 759,-484.298 771.333,-497.335 789.011,-507.136 803.516,-513.652"/>
<polygon fill="#9a32cd" stroke="#9a32cd" points="572.08,-262.823 562.727,-257.846 566.935,-267.569 572.08,-262.823"/>
<text text-anchor="middle" x="698" y="-450.298" font-family="Helvetica,sans-Serif" font-size="10.00"> mpMap</text>
</g>
<!-- Node6&#45;&gt;Node11 -->
<g id="edge16" class="edge"><title>Node6&#45;&gt;Node11</title>
<path fill="none" stroke="#9a32cd" stroke-dasharray="5,2" d="M613.404,-254.353C654.385,-258.44 709.962,-263.875 759,-268.298 892.696,-280.355 929.74,-260.858 1060,-293.298 1205.48,-329.528 1234.15,-362.872 1370,-426.298 1393.38,-437.212 1419.83,-450.792 1436.92,-459.736"/>
<polygon fill="#9a32cd" stroke="#9a32cd" points="613.611,-250.856 603.312,-253.344 612.914,-257.822 613.611,-250.856"/>
<text text-anchor="middle" x="989.5" y="-296.298" font-family="Helvetica,sans-Serif" font-size="10.00"> mpMap</text>
</g>
<!-- Node6&#45;&gt;Node13 -->
<g id="edge28" class="edge"><title>Node6&#45;&gt;Node13</title>
<path fill="none" stroke="#9a32cd" stroke-dasharray="5,2" d="M580.83,-234.041C629.389,-210.073 734.503,-164.298 829,-164.298 829,-164.298 829,-164.298 1457,-164.298 1529.41,-164.298 1551.74,-172.689 1613,-211.298 1644.87,-231.385 1671.77,-268.257 1683.37,-285.687"/>
<polygon fill="#9a32cd" stroke="#9a32cd" points="578.989,-231.048 571.62,-238.662 582.128,-237.305 578.989,-231.048"/>
<text text-anchor="middle" x="1149" y="-167.298" font-family="Helvetica,sans-Serif" font-size="10.00"> mpMap</text>
</g>
<!-- Node14 -->
<g id="node14" class="node"><title>Node14</title>
<g id="a_node14"><a xlink:href="class_o_r_b___s_l_a_m2_1_1_frame_drawer.html" target="_top" xlink:title="Clase de instancia única que se ocupa de muestra la imagen de la cámara con marcas sobre los puntos r...">
<polygon fill="white" stroke="black" points="919,-110.798 919,-129.798 1060,-129.798 1060,-110.798 919,-110.798"/>
<text text-anchor="middle" x="989.5" y="-117.798" font-family="Helvetica,sans-Serif" font-size="10.00">ORB_SLAM2::FrameDrawer</text>
</a>
</g>
</g>
<!-- Node6&#45;&gt;Node14 -->
<g id="edge21" class="edge"><title>Node6&#45;&gt;Node14</title>
<path fill="none" stroke="#9a32cd" stroke-dasharray="5,2" d="M564.121,-230.035C580.129,-204.481 613.075,-158.982 655,-139.298 743.06,-97.9521 858.913,-102.634 928.323,-110.774"/>
<polygon fill="#9a32cd" stroke="#9a32cd" points="561.025,-228.392 558.832,-238.757 567.01,-232.021 561.025,-228.392"/>
<text text-anchor="middle" x="698" y="-142.298" font-family="Helvetica,sans-Serif" font-size="10.00"> mpMap</text>
</g>
<!-- Node16 -->
<g id="node16" class="node"><title>Node16</title>
<g id="a_node16"><a xlink:href="class_o_r_b___s_l_a_m2_1_1_map_drawer.html" target="_top" xlink:title="ORB_SLAM2::MapDrawer">
<polygon fill="white" stroke="black" points="1238,-200.798 1238,-219.798 1370,-219.798 1370,-200.798 1238,-200.798"/>
<text text-anchor="middle" x="1304" y="-207.798" font-family="Helvetica,sans-Serif" font-size="10.00">ORB_SLAM2::MapDrawer</text>
</a>
</g>
</g>
<!-- Node6&#45;&gt;Node16 -->
<g id="edge27" class="edge"><title>Node6&#45;&gt;Node16</title>
<path fill="none" stroke="#9a32cd" stroke-dasharray="5,2" d="M613.21,-237.882C654.105,-231.238 709.661,-223.172 759,-219.298 931.562,-205.746 1135.82,-206.984 1237.98,-208.782"/>
<polygon fill="#9a32cd" stroke="#9a32cd" points="612.441,-234.461 603.141,-239.537 613.576,-241.368 612.441,-234.461"/>
<text text-anchor="middle" x="830" y="-222.298" font-family="Helvetica,sans-Serif" font-size="10.00"> mpMap</text>
</g>
<!-- Node7 -->
<g id="node7" class="node"><title>Node7</title>
<g id="a_node7"><a xlink:href="class_d_bo_w2_1_1_feature_vector.html" target="_top" xlink:title="Vector of nodes with indexes of local features. ">
<polygon fill="white" stroke="black" points="493,-463.798 493,-482.798 612,-482.798 612,-463.798 493,-463.798"/>
<text text-anchor="middle" x="552.5" y="-470.798" font-family="Helvetica,sans-Serif" font-size="10.00">DBoW2::FeatureVector</text>
</a>
</g>
</g>
<!-- Node7&#45;&gt;Node2 -->
<g id="edge8" class="edge"><title>Node7&#45;&gt;Node2</title>
<path fill="none" stroke="#9a32cd" stroke-dasharray="5,2" d="M578.729,-487.803C598.706,-498.456 627.698,-512.106 655,-518.298 691.251,-526.519 732.835,-527.994 766.259,-527.308"/>
<polygon fill="#9a32cd" stroke="#9a32cd" points="580.146,-484.589 569.693,-482.86 576.786,-490.73 580.146,-484.589"/>
<text text-anchor="middle" x="698" y="-531.298" font-family="Helvetica,sans-Serif" font-size="10.00"> mFeatVec</text>
</g>
<!-- Node7&#45;&gt;Node17 -->
<g id="edge34" class="edge"><title>Node7&#45;&gt;Node17</title>
<path fill="none" stroke="#9a32cd" stroke-dasharray="5,2" d="M622.199,-469.415C720.157,-463.01 905.255,-447.685 1060,-416.298 1079.09,-412.426 1100.15,-406.734 1116.88,-401.865"/>
<polygon fill="#9a32cd" stroke="#9a32cd" points="621.886,-465.927 612.131,-470.061 622.335,-472.913 621.886,-465.927"/>
<text text-anchor="middle" x="830" y="-461.298" font-family="Helvetica,sans-Serif" font-size="10.00"> mFeatVec</text>
</g>
<!-- Node8 -->
<g id="node8" class="node"><title>Node8</title>
<polygon fill="white" stroke="#bfbfbf" points="254.5,-376.298 254.5,-406.298 383.5,-406.298 383.5,-376.298 254.5,-376.298"/>
<text text-anchor="start" x="262.5" y="-394.298" font-family="Helvetica,sans-Serif" font-size="10.00">std::map&lt; NodeId, std</text>
<text text-anchor="middle" x="319" y="-383.298" font-family="Helvetica,sans-Serif" font-size="10.00">::vector&lt; unsigned int &gt; &gt;</text>
</g>
<!-- Node8&#45;&gt;Node7 -->
<g id="edge9" class="edge"><title>Node8&#45;&gt;Node7</title>
<path fill="none" stroke="midnightblue" d="M371.926,-409.69C419.227,-426.445 487.216,-450.527 524.498,-463.733"/>
<polygon fill="midnightblue" stroke="midnightblue" points="373.055,-406.377 362.461,-406.338 370.718,-412.976 373.055,-406.377"/>
</g>
<!-- Node9 -->
<g id="node9" class="node"><title>Node9</title>
<g id="a_node9"><a xlink:href="class_d_bo_w2_1_1_bow_vector.html" target="_top" xlink:title="Vector of words to represent images. ">
<polygon fill="white" stroke="black" points="500,-368.798 500,-387.798 605,-387.798 605,-368.798 500,-368.798"/>
<text text-anchor="middle" x="552.5" y="-375.798" font-family="Helvetica,sans-Serif" font-size="10.00">DBoW2::BowVector</text>
</a>
</g>
</g>
<!-- Node9&#45;&gt;Node2 -->
<g id="edge10" class="edge"><title>Node9&#45;&gt;Node2</title>
<path fill="none" stroke="#9a32cd" stroke-dasharray="5,2" d="M569.971,-395.135C588.979,-413.756 621.892,-443.592 655,-462.298 698.339,-486.782 753.227,-504.029 789.643,-513.796"/>
<polygon fill="#9a32cd" stroke="#9a32cd" points="572.27,-392.485 562.716,-387.906 567.329,-397.443 572.27,-392.485"/>
<text text-anchor="middle" x="698" y="-501.298" font-family="Helvetica,sans-Serif" font-size="10.00"> mBowVec</text>
</g>
<!-- Node9&#45;&gt;Node17 -->
<g id="edge35" class="edge"><title>Node9&#45;&gt;Node17</title>
<path fill="none" stroke="#9a32cd" stroke-dasharray="5,2" d="M615.42,-379.756C732.227,-382.506 983.275,-388.418 1093.84,-391.022"/>
<polygon fill="#9a32cd" stroke="#9a32cd" points="615.298,-376.252 605.218,-379.515 615.133,-383.25 615.298,-376.252"/>
<text text-anchor="middle" x="830" y="-390.298" font-family="Helvetica,sans-Serif" font-size="10.00"> mBowVec</text>
</g>
<!-- Node10 -->
<g id="node10" class="node"><title>Node10</title>
<polygon fill="white" stroke="#bfbfbf" points="240,-337.798 240,-356.798 398,-356.798 398,-337.798 240,-337.798"/>
<text text-anchor="middle" x="319" y="-344.798" font-family="Helvetica,sans-Serif" font-size="10.00">std::map&lt; WordId, WordValue &gt;</text>
</g>
<!-- Node10&#45;&gt;Node9 -->
<g id="edge11" class="edge"><title>Node10&#45;&gt;Node9</title>
<path fill="none" stroke="midnightblue" d="M401.057,-358.152C433.829,-362.54 470.69,-367.476 499.723,-371.364"/>
<polygon fill="midnightblue" stroke="midnightblue" points="401.407,-354.668 391.031,-356.809 400.478,-361.606 401.407,-354.668"/>
</g>
<!-- Node11&#45;&gt;Node1 -->
<g id="edge12" class="edge"><title>Node11&#45;&gt;Node1</title>
<path fill="none" stroke="#9a32cd" stroke-dasharray="5,2" d="M1426.94,-455.373C1410.74,-448.111 1389.71,-439.99 1370,-436.298 1316.08,-426.198 1253.49,-430.249 1208.88,-435.76"/>
<polygon fill="#9a32cd" stroke="#9a32cd" points="1425.81,-458.706 1436.35,-459.736 1428.75,-452.355 1425.81,-458.706"/>
<text text-anchor="middle" x="1304" y="-439.298" font-family="Helvetica,sans-Serif" font-size="10.00"> mpLoopCloser</text>
</g>
<!-- Node11&#45;&gt;Node13 -->
<g id="edge24" class="edge"><title>Node11&#45;&gt;Node13</title>
<path fill="none" stroke="#9a32cd" stroke-dasharray="5,2" d="M1487.83,-455.706C1503.83,-448.879 1523.8,-440.716 1542,-434.298 1573.03,-423.352 1586.64,-432.991 1613,-413.298 1652.51,-383.782 1677.3,-327.377 1686,-304.894"/>
<polygon fill="#9a32cd" stroke="#9a32cd" points="1486.22,-452.587 1478.42,-459.758 1488.99,-459.015 1486.22,-452.587"/>
<text text-anchor="middle" x="1577.5" y="-437.298" font-family="Helvetica,sans-Serif" font-size="10.00"> mpLoopClosing</text>
</g>
<!-- Node12 -->
<g id="node12" class="node"><title>Node12</title>
<g id="a_node12"><a xlink:href="structg2o_1_1_sim3.html" target="_top" xlink:title="g2o::Sim3">
<polygon fill="white" stroke="black" points="1118.5,-492.798 1118.5,-511.798 1179.5,-511.798 1179.5,-492.798 1118.5,-492.798"/>
<text text-anchor="middle" x="1149" y="-499.798" font-family="Helvetica,sans-Serif" font-size="10.00">g2o::Sim3</text>
</a>
</g>
</g>
<!-- Node12&#45;&gt;Node11 -->
<g id="edge15" class="edge"><title>Node12&#45;&gt;Node11</title>
<path fill="none" stroke="#9a32cd" stroke-dasharray="5,2" d="M1189.65,-498.008C1239.83,-492.579 1327.03,-483.144 1387.71,-476.578"/>
<polygon fill="#9a32cd" stroke="#9a32cd" points="1189.09,-494.548 1179.52,-499.103 1189.84,-501.507 1189.09,-494.548"/>
<text text-anchor="middle" x="1304" y="-496.298" font-family="Helvetica,sans-Serif" font-size="10.00"> mg2oScw</text>
</g>
<!-- Node13&#45;&gt;Node1 -->
<g id="edge41" class="edge"><title>Node13&#45;&gt;Node1</title>
<path fill="none" stroke="#9a32cd" stroke-dasharray="5,2" d="M1660.51,-309.321C1646.27,-316.113 1628.81,-324.295 1613,-331.298 1573.83,-348.644 1564.96,-355.759 1524,-368.298 1399.98,-406.259 1364.95,-399.722 1238,-426.298 1223.62,-429.308 1207.94,-432.669 1193.84,-435.718"/>
<polygon fill="#9a32cd" stroke="#9a32cd" points="1662.29,-312.349 1669.8,-304.872 1659.27,-306.036 1662.29,-312.349"/>
<text text-anchor="middle" x="1456" y="-403.298" font-family="Helvetica,sans-Serif" font-size="10.00"> mpTracker</text>
</g>
<!-- Node13&#45;&gt;Node11 -->
<g id="edge19" class="edge"><title>Node13&#45;&gt;Node11</title>
<path fill="none" stroke="#9a32cd" stroke-dasharray="5,2" d="M1685.7,-315.041C1678.18,-348.285 1658.07,-414.961 1613,-447.298 1587.66,-465.473 1553.96,-471.824 1524.36,-473.277"/>
<polygon fill="#9a32cd" stroke="#9a32cd" points="1689.15,-315.654 1687.78,-305.147 1682.3,-314.211 1689.15,-315.654"/>
<text text-anchor="middle" x="1577.5" y="-475.298" font-family="Helvetica,sans-Serif" font-size="10.00"> mpTracker</text>
</g>
<!-- Node14&#45;&gt;Node13 -->
<g id="edge20" class="edge"><title>Node14&#45;&gt;Node13</title>
<path fill="none" stroke="#9a32cd" stroke-dasharray="5,2" d="M1070.45,-114.583C1217.81,-105.584 1525.19,-94.42 1613,-150.298 1663.19,-182.235 1682.42,-258.67 1687.79,-285.659"/>
<polygon fill="#9a32cd" stroke="#9a32cd" points="1069.89,-111.111 1060.13,-115.226 1070.32,-118.097 1069.89,-111.111"/>
<text text-anchor="middle" x="1304" y="-111.298" font-family="Helvetica,sans-Serif" font-size="10.00"> mpFrameDrawer</text>
</g>
<!-- Node15 -->
<g id="node15" class="node"><title>Node15</title>
<g id="a_node15"><a xlink:href="class_o_r_b___s_l_a_m2_1_1_initializer.html" target="_top" xlink:title="Inicializador de mapa en modo monocular. ">
<polygon fill="white" stroke="black" points="1395.5,-76.7976 1395.5,-95.7976 1516.5,-95.7976 1516.5,-76.7976 1395.5,-76.7976"/>
<text text-anchor="middle" x="1456" y="-83.7976" font-family="Helvetica,sans-Serif" font-size="10.00">ORB_SLAM2::Initializer</text>
</a>
</g>
</g>
<!-- Node15&#45;&gt;Node13 -->
<g id="edge25" class="edge"><title>Node15&#45;&gt;Node13</title>
<path fill="none" stroke="#9a32cd" stroke-dasharray="5,2" d="M1526.89,-76.728C1556.06,-76.3885 1588.74,-81.2002 1613,-99.2976 1675.95,-146.255 1687.12,-252.585 1689.09,-285.439"/>
<polygon fill="#9a32cd" stroke="#9a32cd" points="1526.61,-73.2348 1516.73,-77.0496 1526.84,-80.2313 1526.61,-73.2348"/>
<text text-anchor="middle" x="1577.5" y="-102.298" font-family="Helvetica,sans-Serif" font-size="10.00"> mpInitializer</text>
</g>
<!-- Node16&#45;&gt;Node13 -->
<g id="edge26" class="edge"><title>Node16&#45;&gt;Node13</title>
<path fill="none" stroke="#9a32cd" stroke-dasharray="5,2" d="M1380.28,-203.765C1444.57,-201.09 1538.24,-204.212 1613,-235.298 1641.05,-246.962 1667.48,-271.886 1680.69,-285.657"/>
<polygon fill="#9a32cd" stroke="#9a32cd" points="1380.05,-200.272 1370.22,-204.24 1380.38,-207.264 1380.05,-200.272"/>
<text text-anchor="middle" x="1456" y="-214.298" font-family="Helvetica,sans-Serif" font-size="10.00"> mpMapDrawer</text>
</g>
<!-- Node17&#45;&gt;Node13 -->
<g id="edge31" class="edge"><title>Node17&#45;&gt;Node13</title>
<path fill="none" stroke="#9a32cd" stroke-dasharray="5,2" d="M1170.51,-376.748C1187.67,-364.493 1213.24,-347.919 1238,-338.298 1371.21,-286.527 1542.48,-286.551 1630.89,-290.95"/>
<polygon fill="#9a32cd" stroke="#9a32cd" points="1168.37,-373.979 1162.35,-382.703 1172.49,-379.632 1168.37,-373.979"/>
<text text-anchor="middle" x="1456" y="-314.298" font-family="Helvetica,sans-Serif" font-size="10.00"> mCurrentFrame</text>
<text text-anchor="middle" x="1456" y="-303.298" font-family="Helvetica,sans-Serif" font-size="10.00">mInitialFrame</text>
</g>
<!-- Node18 -->
<g id="node18" class="node"><title>Node18</title>
<g id="a_node18"><a xlink:href="class_o_r_b___s_l_a_m2_1_1_o_r_bextractor.html" target="_top" xlink:title="Empaqueta todos los métodos de detección de puntos singulares y extracción de descriptores. ">
<polygon fill="white" stroke="black" points="759,-239.798 759,-258.798 901,-258.798 901,-239.798 759,-239.798"/>
<text text-anchor="middle" x="830" y="-246.798" font-family="Helvetica,sans-Serif" font-size="10.00">ORB_SLAM2::ORBextractor</text>
</a>
</g>
</g>
<!-- Node18&#45;&gt;Node13 -->
<g id="edge39" class="edge"><title>Node18&#45;&gt;Node13</title>
<path fill="none" stroke="#9a32cd" stroke-dasharray="5,2" d="M911.366,-250.143C1053.31,-252.272 1357.55,-259.69 1613,-285.298 1618.73,-285.872 1624.69,-286.536 1630.65,-287.242"/>
<polygon fill="#9a32cd" stroke="#9a32cd" points="911.067,-246.638 901.017,-249.993 910.966,-253.638 911.067,-246.638"/>
<text text-anchor="middle" x="1304" y="-291.298" font-family="Helvetica,sans-Serif" font-size="10.00"> mpORBextractorRight</text>
<text text-anchor="middle" x="1304" y="-280.298" font-family="Helvetica,sans-Serif" font-size="10.00">mpORBextractorLeft</text>
<text text-anchor="middle" x="1304" y="-269.298" font-family="Helvetica,sans-Serif" font-size="10.00">mpIniORBextractor</text>
</g>
<!-- Node18&#45;&gt;Node17 -->
<g id="edge36" class="edge"><title>Node18&#45;&gt;Node17</title>
<path fill="none" stroke="#9a32cd" stroke-dasharray="5,2" d="M850.564,-265.284C867.677,-278.541 893.689,-296.985 919,-308.298 978.048,-334.688 999.81,-320.628 1060,-344.298 1087.05,-354.933 1116.25,-372.119 1133.29,-382.783"/>
<polygon fill="#9a32cd" stroke="#9a32cd" points="852.492,-262.347 842.477,-258.89 848.15,-267.838 852.492,-262.347"/>
<text text-anchor="middle" x="989.5" y="-358.298" font-family="Helvetica,sans-Serif" font-size="10.00"> mpORBextractorRight</text>
<text text-anchor="middle" x="989.5" y="-347.298" font-family="Helvetica,sans-Serif" font-size="10.00">mpORBextractorLeft</text>
</g>
<!-- Node19 -->
<g id="node19" class="node"><title>Node19</title>
<g id="a_node19"><a xlink:href="class_o_r_b___s_l_a_m2_1_1_viewer.html" target="_top" xlink:title="ORB_SLAM2::Viewer">
<polygon fill="white" stroke="black" points="1400,-38.7976 1400,-57.7976 1512,-57.7976 1512,-38.7976 1400,-38.7976"/>
<text text-anchor="middle" x="1456" y="-45.7976" font-family="Helvetica,sans-Serif" font-size="10.00">ORB_SLAM2::Viewer</text>
</a>
</g>
</g>
<!-- Node19&#45;&gt;Node13 -->
<g id="edge37" class="edge"><title>Node19&#45;&gt;Node13</title>
<path fill="none" stroke="#9a32cd" stroke-dasharray="5,2" d="M1522.46,-38.7054C1552.95,-37.823 1587.95,-42.3852 1613,-62.2976 1686,-120.311 1690.09,-249.583 1689.74,-285.738"/>
<polygon fill="#9a32cd" stroke="#9a32cd" points="1522.13,-35.2172 1512.31,-39.1991 1522.47,-42.209 1522.13,-35.2172"/>
<text text-anchor="middle" x="1577.5" y="-65.2976" font-family="Helvetica,sans-Serif" font-size="10.00"> mpViewer</text>
</g>
<!-- Node20 -->
<g id="node20" class="node"><title>Node20</title>
<g id="a_node20"><a xlink:href="class_o_r_b___s_l_a_m2_1_1_system.html" target="_top" xlink:title="System se instancia una única vez en main, en la variable SLAM. ">
<polygon fill="white" stroke="black" points="1398,-0.797567 1398,-19.7976 1514,-19.7976 1514,-0.797567 1398,-0.797567"/>
<text text-anchor="middle" x="1456" y="-7.79757" font-family="Helvetica,sans-Serif" font-size="10.00">ORB_SLAM2::System</text>
</a>
</g>
</g>
<!-- Node20&#45;&gt;Node13 -->
<g id="edge38" class="edge"><title>Node20&#45;&gt;Node13</title>
<path fill="none" stroke="#9a32cd" stroke-dasharray="5,2" d="M1522.83,-0.247393C1553.41,0.742178 1588.37,-3.86213 1613,-24.2976 1655.23,-59.3375 1682.23,-241.332 1688.23,-285.59"/>
<polygon fill="#9a32cd" stroke="#9a32cd" points="1522.45,3.23757 1512.65,-0.782648 1522.82,-3.75277 1522.45,3.23757"/>
<text text-anchor="middle" x="1577.5" y="-27.2976" font-family="Helvetica,sans-Serif" font-size="10.00"> mpSystem</text>
</g>
</g>
</svg>
