<?xml version="1.0" encoding="UTF-8" standalone="no"?>
<!DOCTYPE svg PUBLIC "-//W3C//DTD SVG 1.1//EN"
 "http://www.w3.org/Graphics/SVG/1.1/DTD/svg11.dtd">
<!-- Generated by graphviz version 2.38.0 (20140413.2041)
 -->
<!-- Title: ORB_SLAM2::System Pages: 1 -->
<svg width="124pt" height="95pt"
 viewBox="0.00 0.00 124.00 95.00" xmlns="http://www.w3.org/2000/svg" xmlns:xlink="http://www.w3.org/1999/xlink">
<g id="graph0" class="graph" transform="scale(1 1) rotate(0) translate(4 91)">
<title>ORB_SLAM2::System</title>
<polygon fill="white" stroke="none" points="-4,4 -4,-91 120,-91 120,4 -4,4"/>
<!-- Node1 -->
<g id="node1" class="node"><title>Node1</title>
<polygon fill="#bfbfbf" stroke="black" points="-7.10543e-15,-0.5 -7.10543e-15,-19.5 116,-19.5 116,-0.5 -7.10543e-15,-0.5"/>
<text text-anchor="middle" x="58" y="-7.5" font-family="Helvetica,sans-Serif" font-size="10.00">ORB_SLAM2::System</text>
</g>
<!-- Node2 -->
<g id="node2" class="node"><title>Node2</title>
<g id="a_node2"><a xlink:href="class_o_r_b___s_l_a_m2_1_1_viewer.html" target="_top" xlink:title="ORB_SLAM2::Viewer">
<polygon fill="white" stroke="black" points="2,-67.5 2,-86.5 114,-86.5 114,-67.5 2,-67.5"/>
<text text-anchor="middle" x="58" y="-74.5" font-family="Helvetica,sans-Serif" font-size="10.00">ORB_SLAM2::Viewer</text>
</a>
</g>
</g>
<!-- Node2&#45;&gt;Node1 -->
<g id="edge1" class="edge"><title>Node2&#45;&gt;Node1</title>
<path fill="none" stroke="#9a32cd" stroke-dasharray="5,2" d="M58,-57.037C58,-44.6703 58,-29.1198 58,-19.6273"/>
<polygon fill="#9a32cd" stroke="#9a32cd" points="54.5001,-57.2338 58,-67.2338 61.5001,-57.2338 54.5001,-57.2338"/>
<text text-anchor="middle" x="81.5" y="-41" font-family="Helvetica,sans-Serif" font-size="10.00"> mpViewer</text>
</g>
</g>
</svg>
