<?xml version="1.0" encoding="UTF-8" standalone="no"?>
<!DOCTYPE svg PUBLIC "-//W3C//DTD SVG 1.1//EN"
 "http://www.w3.org/Graphics/SVG/1.1/DTD/svg11.dtd">
<!-- Generated by graphviz version 2.38.0 (20140413.2041)
 -->
<!-- Title: ORB_SLAM2::LoopClosing Pages: 1 -->
<svg width="2121pt" height="904pt"
 viewBox="0.00 0.00 2121.00 903.65" xmlns="http://www.w3.org/2000/svg" xmlns:xlink="http://www.w3.org/1999/xlink">
<g id="graph0" class="graph" transform="scale(1 1) rotate(0) translate(4 899.646)">
<title>ORB_SLAM2::LoopClosing</title>
<polygon fill="white" stroke="none" points="-4,4 -4,-899.646 2117,-899.646 2117,4 -4,4"/>
<!-- Node1 -->
<g id="node1" class="node"><title>Node1</title>
<polygon fill="#bfbfbf" stroke="black" points="1061,-360.646 1061,-379.646 1197,-379.646 1197,-360.646 1061,-360.646"/>
<text text-anchor="middle" x="1129" y="-367.646" font-family="Helvetica,sans-Serif" font-size="10.00">ORB_SLAM2::LoopClosing</text>
</g>
<!-- Node12 -->
<g id="node12" class="node"><title>Node12</title>
<g id="a_node12"><a xlink:href="class_o_r_b___s_l_a_m2_1_1_local_mapping.html" target="_top" xlink:title="LocalMapping tiene una única instancia ejecutando el método Run en su propio thread. ">
<polygon fill="white" stroke="black" points="1309,-321.646 1309,-340.646 1451,-340.646 1451,-321.646 1309,-321.646"/>
<text text-anchor="middle" x="1380" y="-328.646" font-family="Helvetica,sans-Serif" font-size="10.00">ORB_SLAM2::LocalMapping</text>
</a>
</g>
</g>
<!-- Node1&#45;&gt;Node12 -->
<g id="edge18" class="edge"><title>Node1&#45;&gt;Node12</title>
<path fill="none" stroke="#9a32cd" stroke-dasharray="5,2" d="M1153.16,-355.057C1169.65,-345.245 1192.76,-333.341 1215,-328.146 1245.23,-321.085 1279.44,-320.581 1308.78,-322.33"/>
<polygon fill="#9a32cd" stroke="#9a32cd" points="1150.95,-352.307 1144.26,-360.527 1154.62,-358.269 1150.95,-352.307"/>
<text text-anchor="middle" x="1253" y="-331.146" font-family="Helvetica,sans-Serif" font-size="10.00"> mpLoopCloser</text>
</g>
<!-- Node13 -->
<g id="node13" class="node"><title>Node13</title>
<g id="a_node13"><a xlink:href="class_o_r_b___s_l_a_m2_1_1_tracking.html" target="_top" xlink:title="Objeto único que se ejecuta en su propio Trhead, y se inicia con Run(). ">
<polygon fill="white" stroke="black" points="1796,-368.646 1796,-387.646 1915,-387.646 1915,-368.646 1796,-368.646"/>
<text text-anchor="middle" x="1855.5" y="-375.646" font-family="Helvetica,sans-Serif" font-size="10.00">ORB_SLAM2::Tracking</text>
</a>
</g>
</g>
<!-- Node1&#45;&gt;Node13 -->
<g id="edge25" class="edge"><title>Node1&#45;&gt;Node13</title>
<path fill="none" stroke="#9a32cd" stroke-dasharray="5,2" d="M1156.02,-384.9C1179.81,-398.334 1211.78,-416.22 1215,-417.146 1455.55,-486.337 1539.1,-505.817 1778,-431.146 1805.14,-422.662 1831.12,-400.793 1844.71,-387.953"/>
<polygon fill="#9a32cd" stroke="#9a32cd" points="1157.49,-381.712 1147.06,-379.836 1154.04,-387.805 1157.49,-381.712"/>
<text text-anchor="middle" x="1507" y="-482.146" font-family="Helvetica,sans-Serif" font-size="10.00"> mpLoopClosing</text>
</g>
<!-- Node20 -->
<g id="node20" class="node"><title>Node20</title>
<g id="a_node20"><a xlink:href="class_o_r_b___s_l_a_m2_1_1_system.html" target="_top" xlink:title="System se instancia una única vez en main, en la variable SLAM. ">
<polygon fill="white" stroke="black" points="1565.5,-140.646 1565.5,-159.646 1681.5,-159.646 1681.5,-140.646 1565.5,-140.646"/>
<text text-anchor="middle" x="1623.5" y="-147.646" font-family="Helvetica,sans-Serif" font-size="10.00">ORB_SLAM2::System</text>
</a>
</g>
</g>
<!-- Node1&#45;&gt;Node20 -->
<g id="edge45" class="edge"><title>Node1&#45;&gt;Node20</title>
<path fill="none" stroke="#9a32cd" stroke-dasharray="5,2" d="M1135.05,-350.611C1144.64,-317.705 1168.79,-251.641 1215,-219.146 1270.54,-180.088 1466.66,-161.069 1565.16,-153.806"/>
<polygon fill="#9a32cd" stroke="#9a32cd" points="1131.63,-349.832 1132.34,-360.403 1138.38,-351.696 1131.63,-349.832"/>
<text text-anchor="middle" x="1380" y="-189.146" font-family="Helvetica,sans-Serif" font-size="10.00"> mpLoopCloser</text>
</g>
<!-- Node2 -->
<g id="node2" class="node"><title>Node2</title>
<g id="a_node2"><a xlink:href="class_o_r_b___s_l_a_m2_1_1_key_frame_database.html" target="_top" xlink:title="Lista invertida de KeyFrames, accesible por BoW. ">
<polygon fill="white" stroke="black" points="468,-500.646 468,-519.646 637,-519.646 637,-500.646 468,-500.646"/>
<text text-anchor="middle" x="552.5" y="-507.646" font-family="Helvetica,sans-Serif" font-size="10.00">ORB_SLAM2::KeyFrameDatabase</text>
</a>
</g>
</g>
<!-- Node2&#45;&gt;Node1 -->
<g id="edge1" class="edge"><title>Node2&#45;&gt;Node1</title>
<path fill="none" stroke="#9a32cd" stroke-dasharray="5,2" d="M577.031,-495.355C597.027,-483.47 626.882,-467.298 655,-458.146 820.99,-404.114 873.104,-437.24 1043,-397.146 1062.89,-392.451 1084.87,-385.42 1101.49,-379.709"/>
<polygon fill="#9a32cd" stroke="#9a32cd" points="575.057,-492.459 568.319,-500.635 578.685,-498.446 575.057,-492.459"/>
<text text-anchor="middle" x="832" y="-434.146" font-family="Helvetica,sans-Serif" font-size="10.00"> mpKeyFrameDB</text>
</g>
<!-- Node5 -->
<g id="node5" class="node"><title>Node5</title>
<g id="a_node5"><a xlink:href="class_o_r_b___s_l_a_m2_1_1_key_frame.html" target="_top" xlink:title="Cuadro clave, keyframe. ">
<polygon fill="white" stroke="black" points="768.5,-593.646 768.5,-612.646 895.5,-612.646 895.5,-593.646 768.5,-593.646"/>
<text text-anchor="middle" x="832" y="-600.646" font-family="Helvetica,sans-Serif" font-size="10.00">ORB_SLAM2::KeyFrame</text>
</a>
</g>
</g>
<!-- Node2&#45;&gt;Node5 -->
<g id="edge5" class="edge"><title>Node2&#45;&gt;Node5</title>
<path fill="none" stroke="#9a32cd" stroke-dasharray="5,2" d="M581.781,-524.164C601.872,-533.754 629.669,-546.286 655,-555.146 693.158,-568.493 703.999,-567.51 743,-578.146 761.234,-583.118 781.531,-588.87 798.033,-593.602"/>
<polygon fill="#9a32cd" stroke="#9a32cd" points="583.11,-520.919 572.583,-519.722 580.065,-527.222 583.11,-520.919"/>
<text text-anchor="middle" x="699" y="-581.146" font-family="Helvetica,sans-Serif" font-size="10.00"> mpKeyFrameDB</text>
</g>
<!-- Node2&#45;&gt;Node13 -->
<g id="edge23" class="edge"><title>Node2&#45;&gt;Node13</title>
<path fill="none" stroke="#9a32cd" stroke-dasharray="5,2" d="M647.306,-506.89C721.557,-504.483 827.894,-501.412 921,-500.146 975.217,-499.408 988.861,-497.147 1043,-500.146 1051.04,-500.591 1052.96,-501.701 1061,-502.146 1168.93,-508.123 1485.58,-497.39 1545,-494.146 1649.77,-488.425 1687.6,-509.412 1778,-456.146 1808.72,-438.043 1835.58,-404.463 1847.68,-387.9"/>
<polygon fill="#9a32cd" stroke="#9a32cd" points="646.927,-503.4 637.047,-507.225 647.156,-510.397 646.927,-503.4"/>
<text text-anchor="middle" x="1253" y="-507.146" font-family="Helvetica,sans-Serif" font-size="10.00"> mpKeyFrameDB</text>
</g>
<!-- Node2&#45;&gt;Node20 -->
<g id="edge44" class="edge"><title>Node2&#45;&gt;Node20</title>
<path fill="none" stroke="#9a32cd" stroke-dasharray="5,2" d="M626.156,-499.047C826.102,-468.243 1374.74,-381.875 1451,-350.146 1498.13,-330.536 1514.02,-324.719 1545,-284.146 1559.33,-265.374 1552.07,-255.085 1563,-234.146 1578.13,-205.151 1602.03,-174.686 1614.44,-159.668"/>
<polygon fill="#9a32cd" stroke="#9a32cd" points="625.398,-495.622 616.047,-500.603 626.463,-502.541 625.398,-495.622"/>
<text text-anchor="middle" x="1129" y="-432.146" font-family="Helvetica,sans-Serif" font-size="10.00"> mpKeyFrameDatabase</text>
</g>
<!-- Node3 -->
<g id="node3" class="node"><title>Node3</title>
<g id="a_node3"><a xlink:href="class_d_bo_w2_1_1_templated_vocabulary.html" target="_top" xlink:title="Generic Vocabulary. ">
<polygon fill="white" stroke="black" points="243,-558.146 243,-588.146 395,-588.146 395,-558.146 243,-558.146"/>
<text text-anchor="start" x="251" y="-576.146" font-family="Helvetica,sans-Serif" font-size="10.00">DBoW2::TemplatedVocabulary</text>
<text text-anchor="middle" x="319" y="-565.146" font-family="Helvetica,sans-Serif" font-size="10.00">&lt; TDescriptor, F &gt;</text>
</a>
</g>
</g>
<!-- Node3&#45;&gt;Node1 -->
<g id="edge15" class="edge"><title>Node3&#45;&gt;Node1</title>
<path fill="none" stroke="#9a32cd" stroke-dasharray="5,2" d="M351.29,-552.158C421.063,-506.857 596.239,-401.326 761,-368.146 864.063,-347.39 986.73,-354.221 1060.92,-361.699"/>
<polygon fill="#9a32cd" stroke="#9a32cd" points="348.992,-549.48 342.54,-557.884 352.825,-555.337 348.992,-549.48"/>
<text text-anchor="middle" x="699" y="-400.146" font-family="Helvetica,sans-Serif" font-size="10.00"> mpORBVocabulary</text>
</g>
<!-- Node3&#45;&gt;Node2 -->
<g id="edge2" class="edge"><title>Node3&#45;&gt;Node2</title>
<path fill="none" stroke="#9a32cd" stroke-dasharray="5,2" d="M384.905,-555.483C427.58,-543.869 481.765,-529.123 516.54,-519.659"/>
<polygon fill="#9a32cd" stroke="#9a32cd" points="383.886,-552.133 375.156,-558.136 385.724,-558.887 383.886,-552.133"/>
<text text-anchor="middle" x="433" y="-549.146" font-family="Helvetica,sans-Serif" font-size="10.00"> mpVoc</text>
</g>
<!-- Node3&#45;&gt;Node5 -->
<g id="edge8" class="edge"><title>Node3&#45;&gt;Node5</title>
<path fill="none" stroke="#9a32cd" stroke-dasharray="5,2" d="M405.136,-578.144C507.634,-584.161 677.334,-594.124 768.495,-599.476"/>
<polygon fill="#9a32cd" stroke="#9a32cd" points="405.313,-574.648 395.125,-577.556 404.903,-581.636 405.313,-574.648"/>
<text text-anchor="middle" x="552.5" y="-595.146" font-family="Helvetica,sans-Serif" font-size="10.00"> mpORBvocabulary</text>
</g>
<!-- Node3&#45;&gt;Node13 -->
<g id="edge30" class="edge"><title>Node3&#45;&gt;Node13</title>
<path fill="none" stroke="#9a32cd" stroke-dasharray="5,2" d="M329.36,-597.715C348.177,-643.623 395.12,-742.273 468,-792.146 499.41,-813.639 513.44,-811.146 551.5,-811.146 551.5,-811.146 551.5,-811.146 1624.5,-811.146 1822.83,-811.146 1850.67,-452.455 1854.07,-388.003"/>
<polygon fill="#9a32cd" stroke="#9a32cd" points="332.538,-596.234 325.575,-588.248 326.038,-598.833 332.538,-596.234"/>
<text text-anchor="middle" x="1129" y="-814.146" font-family="Helvetica,sans-Serif" font-size="10.00"> mpORBVocabulary</text>
</g>
<!-- Node17 -->
<g id="node17" class="node"><title>Node17</title>
<g id="a_node17"><a xlink:href="class_o_r_b___s_l_a_m2_1_1_frame.html" target="_top" xlink:title="Frame representa un cuadro, una imagen, con los puntos singulares detectados. ">
<polygon fill="white" stroke="black" points="1074,-665.646 1074,-684.646 1184,-684.646 1184,-665.646 1074,-665.646"/>
<text text-anchor="middle" x="1129" y="-672.646" font-family="Helvetica,sans-Serif" font-size="10.00">ORB_SLAM2::Frame</text>
</a>
</g>
</g>
<!-- Node3&#45;&gt;Node17 -->
<g id="edge34" class="edge"><title>Node3&#45;&gt;Node17</title>
<path fill="none" stroke="#9a32cd" stroke-dasharray="5,2" d="M381.409,-590.998C448.191,-609.792 558.342,-638.983 655,-656.146 772.091,-676.937 802.253,-678.692 921,-685.146 975.142,-688.088 988.871,-688.319 1043,-685.146 1052.94,-684.563 1063.5,-683.6 1073.67,-682.497"/>
<polygon fill="#9a32cd" stroke="#9a32cd" points="382.049,-587.542 371.474,-588.189 380.145,-594.278 382.049,-587.542"/>
<text text-anchor="middle" x="699" y="-674.146" font-family="Helvetica,sans-Serif" font-size="10.00"> mpORBvocabulary</text>
</g>
<!-- Node3&#45;&gt;Node20 -->
<g id="edge48" class="edge"><title>Node3&#45;&gt;Node20</title>
<path fill="none" stroke="#9a32cd" stroke-dasharray="5,2" d="M319.784,-547.859C320.34,-445.215 336.887,-65.1457 551.5,-65.1457 551.5,-65.1457 551.5,-65.1457 983,-65.1457 1191.49,-65.1457 1244.24,-70.3805 1451,-97.1457 1493.18,-102.607 1504.45,-102.303 1545,-115.146 1566.11,-121.831 1589.09,-132.699 1604.5,-140.552"/>
<polygon fill="#9a32cd" stroke="#9a32cd" points="316.284,-547.94 319.778,-557.942 323.284,-547.944 316.284,-547.94"/>
<text text-anchor="middle" x="982" y="-68.1457" font-family="Helvetica,sans-Serif" font-size="10.00"> mpVocabulary</text>
</g>
<!-- Node4 -->
<g id="node4" class="node"><title>Node4</title>
<g id="a_node4"><a xlink:href="class_d_bo_w2_1_1_general_scoring.html" target="_top" xlink:title="Base class of scoring functions. ">
<polygon fill="white" stroke="black" points="0,-563.646 0,-582.646 124,-582.646 124,-563.646 0,-563.646"/>
<text text-anchor="middle" x="62" y="-570.646" font-family="Helvetica,sans-Serif" font-size="10.00">DBoW2::GeneralScoring</text>
</a>
</g>
</g>
<!-- Node4&#45;&gt;Node3 -->
<g id="edge3" class="edge"><title>Node4&#45;&gt;Node3</title>
<path fill="none" stroke="#9a32cd" stroke-dasharray="5,2" d="M134.347,-573.146C168.159,-573.146 208.555,-573.146 242.841,-573.146"/>
<polygon fill="#9a32cd" stroke="#9a32cd" points="134.079,-569.646 124.079,-573.146 134.079,-576.646 134.079,-569.646"/>
<text text-anchor="middle" x="182" y="-576.146" font-family="Helvetica,sans-Serif" font-size="10.00"> m_scoring_object</text>
</g>
<!-- Node5&#45;&gt;Node1 -->
<g id="edge4" class="edge"><title>Node5&#45;&gt;Node1</title>
<path fill="none" stroke="#9a32cd" stroke-dasharray="5,2" d="M888.788,-589.425C893.897,-586.843 898.744,-583.779 903,-580.146 916.304,-568.789 909.939,-558.697 921,-545.146 964.977,-491.265 1000.18,-501.951 1043,-447.146 1054.75,-432.102 1048.08,-422.196 1061,-408.146 1072.59,-395.547 1089.34,-386.047 1103.19,-379.697"/>
<polygon fill="#9a32cd" stroke="#9a32cd" points="887.116,-586.337 879.376,-593.571 889.938,-592.742 887.116,-586.337"/>
<text text-anchor="middle" x="982" y="-559.146" font-family="Helvetica,sans-Serif" font-size="10.00"> mpMatchedKF</text>
<text text-anchor="middle" x="982" y="-548.146" font-family="Helvetica,sans-Serif" font-size="10.00">mpCurrentKF</text>
</g>
<!-- Node5&#45;&gt;Node5 -->
<g id="edge6" class="edge"><title>Node5&#45;&gt;Node5</title>
<path fill="none" stroke="#9a32cd" stroke-dasharray="5,2" d="M807.447,-622.175C808.786,-627.274 816.97,-631.146 832,-631.146 855.461,-631.146 862.243,-621.711 852.345,-612.903"/>
<polygon fill="#9a32cd" stroke="#9a32cd" points="810.709,-623.455 811.655,-612.903 804.335,-620.562 810.709,-623.455"/>
<text text-anchor="middle" x="832" y="-634.146" font-family="Helvetica,sans-Serif" font-size="10.00"> mpParent</text>
</g>
<!-- Node5&#45;&gt;Node12 -->
<g id="edge17" class="edge"><title>Node5&#45;&gt;Node12</title>
<path fill="none" stroke="#9a32cd" stroke-dasharray="5,2" d="M905.617,-594.149C956.121,-587.241 1018.59,-577.208 1043,-567.146 1187.33,-507.642 1330.61,-377.234 1369.02,-340.781"/>
<polygon fill="#9a32cd" stroke="#9a32cd" points="905.133,-590.683 895.691,-595.488 906.069,-597.62 905.133,-590.683"/>
<text text-anchor="middle" x="1129" y="-561.146" font-family="Helvetica,sans-Serif" font-size="10.00"> mpCurrentKeyFrame</text>
</g>
<!-- Node5&#45;&gt;Node13 -->
<g id="edge24" class="edge"><title>Node5&#45;&gt;Node13</title>
<path fill="none" stroke="#9a32cd" stroke-dasharray="5,2" d="M905.835,-607.801C1115.18,-620.519 1708.07,-651.653 1778,-601.146 1850.33,-548.904 1854.95,-423.926 1854.73,-387.974"/>
<polygon fill="#9a32cd" stroke="#9a32cd" points="905.76,-604.29 895.565,-607.173 905.333,-611.277 905.76,-604.29"/>
<text text-anchor="middle" x="1380" y="-643.146" font-family="Helvetica,sans-Serif" font-size="10.00"> mpLastKeyFrame</text>
<text text-anchor="middle" x="1380" y="-632.146" font-family="Helvetica,sans-Serif" font-size="10.00">mpReferenceKF</text>
</g>
<!-- Node5&#45;&gt;Node17 -->
<g id="edge33" class="edge"><title>Node5&#45;&gt;Node17</title>
<path fill="none" stroke="#9a32cd" stroke-dasharray="5,2" d="M855.279,-618.444C872.451,-629.435 897.208,-643.593 921,-651.146 971.172,-667.073 1031.18,-672.648 1073.64,-674.494"/>
<polygon fill="#9a32cd" stroke="#9a32cd" points="856.854,-615.291 846.574,-612.726 853.011,-621.142 856.854,-615.291"/>
<text text-anchor="middle" x="982" y="-676.146" font-family="Helvetica,sans-Serif" font-size="10.00"> mpReferenceKF</text>
</g>
<!-- Node6 -->
<g id="node6" class="node"><title>Node6</title>
<g id="a_node6"><a xlink:href="class_o_r_b___s_l_a_m2_1_1_map.html" target="_top" xlink:title="Mapa del mundo, de puntos y keyframes. ">
<polygon fill="white" stroke="black" points="502,-197.646 502,-216.646 603,-216.646 603,-197.646 502,-197.646"/>
<text text-anchor="middle" x="552.5" y="-204.646" font-family="Helvetica,sans-Serif" font-size="10.00">ORB_SLAM2::Map</text>
</a>
</g>
</g>
<!-- Node6&#45;&gt;Node1 -->
<g id="edge14" class="edge"><title>Node6&#45;&gt;Node1</title>
<path fill="none" stroke="#9a32cd" stroke-dasharray="5,2" d="M571.401,-223.624C590.568,-240.261 622.619,-265.282 655,-278.146 816.983,-342.493 874.937,-288.952 1043,-335.146 1066.24,-341.532 1091.63,-352.562 1108.56,-360.535"/>
<polygon fill="#9a32cd" stroke="#9a32cd" points="573.58,-220.879 563.779,-216.856 568.932,-226.113 573.58,-220.879"/>
<text text-anchor="middle" x="832" y="-317.146" font-family="Helvetica,sans-Serif" font-size="10.00"> mpMap</text>
</g>
<!-- Node6&#45;&gt;Node5 -->
<g id="edge7" class="edge"><title>Node6&#45;&gt;Node5</title>
<path fill="none" stroke="#9a32cd" stroke-dasharray="5,2" d="M564.588,-225.636C594.563,-275.855 679.244,-419.257 743,-542.146 751.606,-558.734 746.987,-567.782 761,-580.146 767.619,-585.985 775.755,-590.348 784.109,-593.605"/>
<polygon fill="#9a32cd" stroke="#9a32cd" points="567.481,-223.654 559.344,-216.868 561.473,-227.247 567.481,-223.654"/>
<text text-anchor="middle" x="699" y="-545.146" font-family="Helvetica,sans-Serif" font-size="10.00"> mpMap</text>
</g>
<!-- Node6&#45;&gt;Node12 -->
<g id="edge19" class="edge"><title>Node6&#45;&gt;Node12</title>
<path fill="none" stroke="#9a32cd" stroke-dasharray="5,2" d="M588.186,-220.258C607.587,-227.124 632.355,-235.125 655,-240.146 933.033,-301.79 1008.78,-280 1291,-318.146 1298.96,-319.221 1307.31,-320.396 1315.58,-321.586"/>
<polygon fill="#9a32cd" stroke="#9a32cd" points="589.165,-216.89 578.57,-216.792 586.791,-223.475 589.165,-216.89"/>
<text text-anchor="middle" x="982" y="-297.146" font-family="Helvetica,sans-Serif" font-size="10.00"> mpMap</text>
</g>
<!-- Node6&#45;&gt;Node13 -->
<g id="edge29" class="edge"><title>Node6&#45;&gt;Node13</title>
<path fill="none" stroke="#9a32cd" stroke-dasharray="5,2" d="M613.351,-210.745C798.998,-222.094 1363.49,-258.04 1545,-286.146 1650.05,-302.412 1677.94,-304.257 1778,-340.146 1799.5,-347.856 1822.81,-360.041 1837.98,-368.527"/>
<polygon fill="#9a32cd" stroke="#9a32cd" points="613.427,-207.243 603.233,-210.128 613.001,-214.23 613.427,-207.243"/>
<text text-anchor="middle" x="1253" y="-262.146" font-family="Helvetica,sans-Serif" font-size="10.00"> mpMap</text>
</g>
<!-- Node14 -->
<g id="node14" class="node"><title>Node14</title>
<g id="a_node14"><a xlink:href="class_o_r_b___s_l_a_m2_1_1_frame_drawer.html" target="_top" xlink:title="Clase de instancia única que se ocupa de mostrar la imagen de la cámara, con marcas verdes sobre los ...">
<polygon fill="white" stroke="black" points="1309.5,-17.6457 1309.5,-36.6457 1450.5,-36.6457 1450.5,-17.6457 1309.5,-17.6457"/>
<text text-anchor="middle" x="1380" y="-24.6457" font-family="Helvetica,sans-Serif" font-size="10.00">ORB_SLAM2::FrameDrawer</text>
</a>
</g>
</g>
<!-- Node6&#45;&gt;Node14 -->
<g id="edge22" class="edge"><title>Node6&#45;&gt;Node14</title>
<path fill="none" stroke="#9a32cd" stroke-dasharray="5,2" d="M565.114,-189.001C581.895,-164.314 615.3,-120.546 655,-97.1457 873.665,31.743 1195.28,1.38913 1323.38,-17.6028"/>
<polygon fill="#9a32cd" stroke="#9a32cd" points="562.125,-187.177 559.519,-197.446 567.96,-191.043 562.125,-187.177"/>
<text text-anchor="middle" x="982" y="-14.1457" font-family="Helvetica,sans-Serif" font-size="10.00"> mpMap</text>
</g>
<!-- Node16 -->
<g id="node16" class="node"><title>Node16</title>
<g id="a_node16"><a xlink:href="class_o_r_b___s_l_a_m2_1_1_map_drawer.html" target="_top" xlink:title="Esta clase contiene los métodos para dibujar en pangolin. ">
<polygon fill="white" stroke="black" points="1314,-224.646 1314,-243.646 1446,-243.646 1446,-224.646 1314,-224.646"/>
<text text-anchor="middle" x="1380" y="-231.646" font-family="Helvetica,sans-Serif" font-size="10.00">ORB_SLAM2::MapDrawer</text>
</a>
</g>
</g>
<!-- Node6&#45;&gt;Node16 -->
<g id="edge28" class="edge"><title>Node6&#45;&gt;Node16</title>
<path fill="none" stroke="#9a32cd" stroke-dasharray="5,2" d="M613.65,-203.073C739.852,-195.583 1041.27,-183.22 1291,-216.146 1306.61,-218.204 1323.61,-221.44 1338.46,-224.604"/>
<polygon fill="#9a32cd" stroke="#9a32cd" points="613.197,-199.594 603.427,-203.692 613.62,-206.582 613.197,-199.594"/>
<text text-anchor="middle" x="982" y="-200.146" font-family="Helvetica,sans-Serif" font-size="10.00"> mpMap</text>
</g>
<!-- Node6&#45;&gt;Node20 -->
<g id="edge47" class="edge"><title>Node6&#45;&gt;Node20</title>
<path fill="none" stroke="#9a32cd" stroke-dasharray="5,2" d="M574.463,-191.577C594.246,-177.629 625.232,-157.648 655,-146.146 729.394,-117.4 751.246,-111.146 831,-111.146 831,-111.146 831,-111.146 1381,-111.146 1454.69,-111.146 1539.42,-129.059 1586.38,-140.605"/>
<polygon fill="#9a32cd" stroke="#9a32cd" points="572.286,-188.832 566.207,-197.509 576.371,-194.517 572.286,-188.832"/>
<text text-anchor="middle" x="1129" y="-114.146" font-family="Helvetica,sans-Serif" font-size="10.00"> mpMap</text>
</g>
<!-- Node21 -->
<g id="node21" class="node"><title>Node21</title>
<g id="a_node21"><a xlink:href="class_o_r_b___s_l_a_m2_1_1_serializer.html" target="_top" xlink:title="Clase encargada de la serialización (guarda y carga) del mapa. ">
<polygon fill="white" stroke="black" points="921,-140.646 921,-159.646 1043,-159.646 1043,-140.646 921,-140.646"/>
<text text-anchor="middle" x="982" y="-147.646" font-family="Helvetica,sans-Serif" font-size="10.00">ORB_SLAM2::Serializer</text>
</a>
</g>
</g>
<!-- Node6&#45;&gt;Node21 -->
<g id="edge51" class="edge"><title>Node6&#45;&gt;Node21</title>
<path fill="none" stroke="#9a32cd" stroke-dasharray="5,2" d="M579.503,-192.679C599.486,-182.365 628.128,-169.281 655,-163.146 745.977,-142.376 854.874,-142.955 920.946,-146.007"/>
<polygon fill="#9a32cd" stroke="#9a32cd" points="577.637,-189.707 570.435,-197.478 580.911,-195.894 577.637,-189.707"/>
<text text-anchor="middle" x="699" y="-166.146" font-family="Helvetica,sans-Serif" font-size="10.00"> mapa</text>
</g>
<!-- Node7 -->
<g id="node7" class="node"><title>Node7</title>
<g id="a_node7"><a xlink:href="class_d_bo_w2_1_1_feature_vector.html" target="_top" xlink:title="Vector of nodes with indexes of local features. ">
<polygon fill="white" stroke="black" points="493,-763.646 493,-782.646 612,-782.646 612,-763.646 493,-763.646"/>
<text text-anchor="middle" x="552.5" y="-770.646" font-family="Helvetica,sans-Serif" font-size="10.00">DBoW2::FeatureVector</text>
</a>
</g>
</g>
<!-- Node7&#45;&gt;Node5 -->
<g id="edge9" class="edge"><title>Node7&#45;&gt;Node5</title>
<path fill="none" stroke="#9a32cd" stroke-dasharray="5,2" d="M596.382,-760.484C636.464,-747.433 696.884,-724.563 743,-693.146 777.675,-669.522 809.838,-630.709 823.752,-612.779"/>
<polygon fill="#9a32cd" stroke="#9a32cd" points="595.114,-757.215 586.651,-763.59 597.242,-763.884 595.114,-757.215"/>
<text text-anchor="middle" x="699" y="-741.146" font-family="Helvetica,sans-Serif" font-size="10.00"> mFeatVec</text>
</g>
<!-- Node7&#45;&gt;Node17 -->
<g id="edge35" class="edge"><title>Node7&#45;&gt;Node17</title>
<path fill="none" stroke="#9a32cd" stroke-dasharray="5,2" d="M622.511,-777.359C719.295,-781 899.573,-779.427 1043,-730.146 1072.42,-720.036 1101.79,-697.614 1117.12,-684.738"/>
<polygon fill="#9a32cd" stroke="#9a32cd" points="622.404,-773.852 612.27,-776.943 622.119,-780.846 622.404,-773.852"/>
<text text-anchor="middle" x="832" y="-779.146" font-family="Helvetica,sans-Serif" font-size="10.00"> mFeatVec</text>
</g>
<!-- Node8 -->
<g id="node8" class="node"><title>Node8</title>
<polygon fill="white" stroke="#bfbfbf" points="254.5,-865.146 254.5,-895.146 383.5,-895.146 383.5,-865.146 254.5,-865.146"/>
<text text-anchor="start" x="262.5" y="-883.146" font-family="Helvetica,sans-Serif" font-size="10.00">std::map&lt; NodeId, std</text>
<text text-anchor="middle" x="319" y="-872.146" font-family="Helvetica,sans-Serif" font-size="10.00">::vector&lt; unsigned int &gt; &gt;</text>
</g>
<!-- Node8&#45;&gt;Node7 -->
<g id="edge10" class="edge"><title>Node8&#45;&gt;Node7</title>
<path fill="none" stroke="midnightblue" d="M393.415,-868.87C412.383,-864.444 432.405,-858.384 450,-850.146 487.659,-832.513 524.746,-799.252 541.791,-782.826"/>
<polygon fill="midnightblue" stroke="midnightblue" points="392.618,-865.461 383.61,-871.038 394.13,-872.296 392.618,-865.461"/>
</g>
<!-- Node9 -->
<g id="node9" class="node"><title>Node9</title>
<g id="a_node9"><a xlink:href="class_d_bo_w2_1_1_bow_vector.html" target="_top" xlink:title="Vector of words to represent images. ">
<polygon fill="white" stroke="black" points="500,-706.646 500,-725.646 605,-725.646 605,-706.646 500,-706.646"/>
<text text-anchor="middle" x="552.5" y="-713.646" font-family="Helvetica,sans-Serif" font-size="10.00">DBoW2::BowVector</text>
</a>
</g>
</g>
<!-- Node9&#45;&gt;Node5 -->
<g id="edge11" class="edge"><title>Node9&#45;&gt;Node5</title>
<path fill="none" stroke="#9a32cd" stroke-dasharray="5,2" d="M571.957,-699.979C591.355,-683.807 623.389,-659.35 655,-645.146 690.96,-628.986 733.961,-618.577 768.456,-612.163"/>
<polygon fill="#9a32cd" stroke="#9a32cd" points="569.572,-697.412 564.217,-706.554 574.105,-702.747 569.572,-697.412"/>
<text text-anchor="middle" x="699" y="-648.146" font-family="Helvetica,sans-Serif" font-size="10.00"> mBowVec</text>
</g>
<!-- Node9&#45;&gt;Node17 -->
<g id="edge36" class="edge"><title>Node9&#45;&gt;Node17</title>
<path fill="none" stroke="#9a32cd" stroke-dasharray="5,2" d="M615.413,-718.282C728.266,-721.694 963.159,-726.449 1043,-710.146 1067.39,-705.165 1093.62,-693.257 1110.39,-684.715"/>
<polygon fill="#9a32cd" stroke="#9a32cd" points="615.312,-714.777 605.209,-717.966 615.096,-721.773 615.312,-714.777"/>
<text text-anchor="middle" x="832" y="-725.146" font-family="Helvetica,sans-Serif" font-size="10.00"> mBowVec</text>
</g>
<!-- Node10 -->
<g id="node10" class="node"><title>Node10</title>
<polygon fill="white" stroke="#bfbfbf" points="240,-826.646 240,-845.646 398,-845.646 398,-826.646 240,-826.646"/>
<text text-anchor="middle" x="319" y="-833.646" font-family="Helvetica,sans-Serif" font-size="10.00">std::map&lt; WordId, WordValue &gt;</text>
</g>
<!-- Node10&#45;&gt;Node9 -->
<g id="edge12" class="edge"><title>Node10&#45;&gt;Node9</title>
<path fill="none" stroke="midnightblue" d="M344.902,-821.558C374.057,-804.665 423.967,-776.32 468,-754.146 488.484,-743.83 512.344,-733.096 529.3,-725.678"/>
<polygon fill="midnightblue" stroke="midnightblue" points="343.085,-818.565 336.2,-826.618 346.604,-824.617 343.085,-818.565"/>
</g>
<!-- Node11 -->
<g id="node11" class="node"><title>Node11</title>
<g id="a_node11"><a xlink:href="structg2o_1_1_sim3.html" target="_top" xlink:title="g2o::Sim3">
<polygon fill="white" stroke="black" points="801.5,-377.646 801.5,-396.646 862.5,-396.646 862.5,-377.646 801.5,-377.646"/>
<text text-anchor="middle" x="832" y="-384.646" font-family="Helvetica,sans-Serif" font-size="10.00">g2o::Sim3</text>
</a>
</g>
</g>
<!-- Node11&#45;&gt;Node1 -->
<g id="edge13" class="edge"><title>Node11&#45;&gt;Node1</title>
<path fill="none" stroke="#9a32cd" stroke-dasharray="5,2" d="M872.666,-384.86C920.815,-382.085 1002.76,-377.363 1060.82,-374.017"/>
<polygon fill="#9a32cd" stroke="#9a32cd" points="872.418,-381.368 862.636,-385.438 872.821,-388.357 872.418,-381.368"/>
<text text-anchor="middle" x="982" y="-385.146" font-family="Helvetica,sans-Serif" font-size="10.00"> mg2oScw</text>
</g>
<!-- Node12&#45;&gt;Node1 -->
<g id="edge16" class="edge"><title>Node12&#45;&gt;Node1</title>
<path fill="none" stroke="#9a32cd" stroke-dasharray="5,2" d="M1298.57,-340.89C1271.92,-344.398 1242.14,-348.617 1215,-353.146 1201.94,-355.326 1187.81,-358.016 1174.9,-360.608"/>
<polygon fill="#9a32cd" stroke="#9a32cd" points="1299.16,-344.344 1308.62,-339.582 1298.25,-337.402 1299.16,-344.344"/>
<text text-anchor="middle" x="1253" y="-356.146" font-family="Helvetica,sans-Serif" font-size="10.00"> mpLocalMapper</text>
</g>
<!-- Node12&#45;&gt;Node13 -->
<g id="edge31" class="edge"><title>Node12&#45;&gt;Node13</title>
<path fill="none" stroke="#9a32cd" stroke-dasharray="5,2" d="M1461.45,-329.858C1522.69,-329.831 1608.95,-331.841 1684,-341.146 1731.49,-347.034 1785.31,-359.748 1819.55,-368.619"/>
<polygon fill="#9a32cd" stroke="#9a32cd" points="1461.07,-326.359 1451.08,-329.883 1461.09,-333.359 1461.07,-326.359"/>
<text text-anchor="middle" x="1623.5" y="-344.146" font-family="Helvetica,sans-Serif" font-size="10.00"> mpLocalMapper</text>
</g>
<!-- Node12&#45;&gt;Node20 -->
<g id="edge49" class="edge"><title>Node12&#45;&gt;Node20</title>
<path fill="none" stroke="#9a32cd" stroke-dasharray="5,2" d="M1403.32,-315.454C1435.1,-292.994 1495.09,-250.185 1545,-212.146 1568.71,-194.077 1595.77,-172.115 1610.82,-159.773"/>
<polygon fill="#9a32cd" stroke="#9a32cd" points="1400.92,-312.862 1394.77,-321.487 1404.96,-318.582 1400.92,-312.862"/>
<text text-anchor="middle" x="1507" y="-272.146" font-family="Helvetica,sans-Serif" font-size="10.00"> mpLocalMapper</text>
</g>
<!-- Node13&#45;&gt;Node1 -->
<g id="edge56" class="edge"><title>Node13&#45;&gt;Node1</title>
<path fill="none" stroke="#9a32cd" stroke-dasharray="5,2" d="M1785.63,-384.743C1783.06,-384.896 1780.51,-385.031 1778,-385.146 1744.26,-386.686 1735.78,-385.51 1702,-385.146 1519.47,-383.176 1304.28,-376.306 1197.35,-372.585"/>
<polygon fill="#9a32cd" stroke="#9a32cd" points="1785.9,-388.233 1795.65,-384.076 1785.44,-381.249 1785.9,-388.233"/>
<text text-anchor="middle" x="1507" y="-386.146" font-family="Helvetica,sans-Serif" font-size="10.00"> mpTracker</text>
</g>
<!-- Node13&#45;&gt;Node12 -->
<g id="edge20" class="edge"><title>Node13&#45;&gt;Node12</title>
<path fill="none" stroke="#9a32cd" stroke-dasharray="5,2" d="M1785.83,-373.773C1708.61,-368.507 1579.55,-358.653 1469,-345.146 1458.71,-343.889 1447.78,-342.331 1437.25,-340.715"/>
<polygon fill="#9a32cd" stroke="#9a32cd" points="1785.7,-377.272 1795.91,-374.455 1786.17,-370.288 1785.7,-377.272"/>
<text text-anchor="middle" x="1623.5" y="-370.146" font-family="Helvetica,sans-Serif" font-size="10.00"> mpTracker</text>
</g>
<!-- Node19 -->
<g id="node19" class="node"><title>Node19</title>
<g id="a_node19"><a xlink:href="class_o_r_b___s_l_a_m2_1_1_viewer.html" target="_top" xlink:title="Viewer representa la interfaz de usuario. ">
<polygon fill="white" stroke="black" points="2001,-144.646 2001,-163.646 2113,-163.646 2113,-144.646 2001,-144.646"/>
<text text-anchor="middle" x="2057" y="-151.646" font-family="Helvetica,sans-Serif" font-size="10.00">ORB_SLAM2::Viewer</text>
</a>
</g>
</g>
<!-- Node13&#45;&gt;Node19 -->
<g id="edge41" class="edge"><title>Node13&#45;&gt;Node19</title>
<path fill="none" stroke="#9a32cd" stroke-dasharray="5,2" d="M1890.06,-364.461C1917.87,-351.734 1956.92,-330.474 1983,-302.146 2022.97,-258.722 2045.88,-189.35 2053.31,-163.908"/>
<polygon fill="#9a32cd" stroke="#9a32cd" points="1888.45,-361.346 1880.73,-368.605 1891.29,-367.744 1888.45,-361.346"/>
<text text-anchor="middle" x="1958" y="-343.146" font-family="Helvetica,sans-Serif" font-size="10.00"> mpTracker</text>
</g>
<!-- Node13&#45;&gt;Node20 -->
<g id="edge52" class="edge"><title>Node13&#45;&gt;Node20</title>
<path fill="none" stroke="#9a32cd" stroke-dasharray="5,2" d="M1849.31,-358.549C1840.14,-327.728 1818.14,-268.055 1778,-235.146 1750.71,-212.771 1733.23,-228.577 1702,-212.146 1674.86,-197.866 1647.99,-173.469 1634.14,-159.928"/>
<polygon fill="#9a32cd" stroke="#9a32cd" points="1846.03,-359.822 1852.12,-368.495 1852.77,-357.921 1846.03,-359.822"/>
<text text-anchor="middle" x="1740" y="-238.146" font-family="Helvetica,sans-Serif" font-size="10.00"> mpTracker</text>
</g>
<!-- Node14&#45;&gt;Node13 -->
<g id="edge21" class="edge"><title>Node14&#45;&gt;Node13</title>
<path fill="none" stroke="#9a32cd" stroke-dasharray="5,2" d="M1460.8,-28.2504C1551.44,-34.052 1697.2,-57.9851 1778,-148.146 1838.94,-216.15 1851.54,-334.126 1853.96,-368.493"/>
<polygon fill="#9a32cd" stroke="#9a32cd" points="1460.76,-24.7422 1450.58,-27.6576 1460.36,-31.7305 1460.76,-24.7422"/>
<text text-anchor="middle" x="1623.5" y="-83.1457" font-family="Helvetica,sans-Serif" font-size="10.00"> mpFrameDrawer</text>
</g>
<!-- Node14&#45;&gt;Node19 -->
<g id="edge39" class="edge"><title>Node14&#45;&gt;Node19</title>
<path fill="none" stroke="#9a32cd" stroke-dasharray="5,2" d="M1460.94,-24.1744C1487.68,-23.7124 1517.64,-23.7713 1545,-25.1457 1607.01,-28.2607 1623.14,-26.8443 1684,-39.1457 1820.28,-66.6918 1850.25,-89.8102 1983,-131.146 1997.08,-135.531 2012.68,-140.437 2025.82,-144.588"/>
<polygon fill="#9a32cd" stroke="#9a32cd" points="1460.79,-20.6766 1450.86,-24.3753 1460.93,-27.6752 1460.79,-20.6766"/>
<text text-anchor="middle" x="1740" y="-65.1457" font-family="Helvetica,sans-Serif" font-size="10.00"> mpFrameDrawer</text>
</g>
<!-- Node14&#45;&gt;Node20 -->
<g id="edge43" class="edge"><title>Node14&#45;&gt;Node20</title>
<path fill="none" stroke="#9a32cd" stroke-dasharray="5,2" d="M1450,-38.4331C1491.31,-45.7137 1537.27,-54.9465 1545,-61.1457 1560.21,-73.3459 1551.17,-85.654 1563,-101.146 1575.43,-117.416 1594.25,-131.74 1607.39,-140.633"/>
<polygon fill="#9a32cd" stroke="#9a32cd" points="1450.35,-34.9421 1439.9,-36.6748 1449.15,-41.8383 1450.35,-34.9421"/>
<text text-anchor="middle" x="1507" y="-64.1457" font-family="Helvetica,sans-Serif" font-size="10.00"> mpFrameDrawer</text>
</g>
<!-- Node15 -->
<g id="node15" class="node"><title>Node15</title>
<g id="a_node15"><a xlink:href="class_o_r_b___s_l_a_m2_1_1_initializer.html" target="_top" xlink:title="Inicializador de mapa en modo monocular. ">
<polygon fill="white" stroke="black" points="1563,-573.646 1563,-592.646 1684,-592.646 1684,-573.646 1563,-573.646"/>
<text text-anchor="middle" x="1623.5" y="-580.646" font-family="Helvetica,sans-Serif" font-size="10.00">ORB_SLAM2::Initializer</text>
</a>
</g>
</g>
<!-- Node15&#45;&gt;Node13 -->
<g id="edge26" class="edge"><title>Node15&#45;&gt;Node13</title>
<path fill="none" stroke="#9a32cd" stroke-dasharray="5,2" d="M1694.52,-586.45C1722.99,-584.406 1754.62,-577.406 1778,-559.146 1835.27,-514.421 1850.2,-418.819 1853.6,-387.965"/>
<polygon fill="#9a32cd" stroke="#9a32cd" points="1694,-582.972 1684.2,-586.991 1694.37,-589.963 1694,-582.972"/>
<text text-anchor="middle" x="1740" y="-589.146" font-family="Helvetica,sans-Serif" font-size="10.00"> mpInitializer</text>
</g>
<!-- Node16&#45;&gt;Node13 -->
<g id="edge27" class="edge"><title>Node16&#45;&gt;Node13</title>
<path fill="none" stroke="#9a32cd" stroke-dasharray="5,2" d="M1456.21,-234.186C1555.95,-235.504 1725.51,-242.523 1778,-274.146 1816.21,-297.163 1841.24,-347.239 1850.49,-368.397"/>
<polygon fill="#9a32cd" stroke="#9a32cd" points="1456.23,-230.686 1446.19,-234.069 1456.15,-237.685 1456.23,-230.686"/>
<text text-anchor="middle" x="1623.5" y="-252.146" font-family="Helvetica,sans-Serif" font-size="10.00"> mpMapDrawer</text>
</g>
<!-- Node16&#45;&gt;Node19 -->
<g id="edge40" class="edge"><title>Node16&#45;&gt;Node19</title>
<path fill="none" stroke="#9a32cd" stroke-dasharray="5,2" d="M1456.14,-225.87C1594.11,-210.619 1882.85,-178.426 1983,-165.146 1988.72,-164.387 1994.68,-163.556 2000.63,-162.7"/>
<polygon fill="#9a32cd" stroke="#9a32cd" points="1455.63,-222.405 1446.07,-226.983 1456.4,-229.363 1455.63,-222.405"/>
<text text-anchor="middle" x="1740" y="-201.146" font-family="Helvetica,sans-Serif" font-size="10.00"> mpMapDrawer</text>
</g>
<!-- Node16&#45;&gt;Node20 -->
<g id="edge46" class="edge"><title>Node16&#45;&gt;Node20</title>
<path fill="none" stroke="#9a32cd" stroke-dasharray="5,2" d="M1424.79,-221.362C1433.66,-218.156 1442.79,-214.398 1451,-210.146 1459.76,-205.607 1460.16,-201.524 1469,-197.146 1500.63,-181.489 1511.26,-184.477 1545,-174.146 1560.49,-169.404 1577.7,-164.079 1591.96,-159.652"/>
<polygon fill="#9a32cd" stroke="#9a32cd" points="1423.62,-218.061 1415.3,-224.621 1425.9,-224.68 1423.62,-218.061"/>
<text text-anchor="middle" x="1507" y="-200.146" font-family="Helvetica,sans-Serif" font-size="10.00"> mpMapDrawer</text>
</g>
<!-- Node17&#45;&gt;Node13 -->
<g id="edge32" class="edge"><title>Node17&#45;&gt;Node13</title>
<path fill="none" stroke="#9a32cd" stroke-dasharray="5,2" d="M1172.39,-687.355C1285.02,-716.999 1595.53,-780.175 1778,-635.146 1818.82,-602.704 1846.77,-430.27 1853.13,-387.668"/>
<polygon fill="#9a32cd" stroke="#9a32cd" points="1173,-683.893 1162.43,-684.684 1171.19,-690.655 1173,-683.893"/>
<text text-anchor="middle" x="1507" y="-752.146" font-family="Helvetica,sans-Serif" font-size="10.00"> mLastFrame</text>
<text text-anchor="middle" x="1507" y="-741.146" font-family="Helvetica,sans-Serif" font-size="10.00">mCurrentFrame</text>
<text text-anchor="middle" x="1507" y="-730.146" font-family="Helvetica,sans-Serif" font-size="10.00">mInitialFrame</text>
</g>
<!-- Node18 -->
<g id="node18" class="node"><title>Node18</title>
<g id="a_node18"><a xlink:href="class_o_r_b___s_l_a_m2_1_1_o_r_bextractor.html" target="_top" xlink:title="Empaqueta todos los métodos de detección de puntos singulares y extracción de descriptores. ">
<polygon fill="white" stroke="black" points="761,-551.646 761,-570.646 903,-570.646 903,-551.646 761,-551.646"/>
<text text-anchor="middle" x="832" y="-558.646" font-family="Helvetica,sans-Serif" font-size="10.00">ORB_SLAM2::ORBextractor</text>
</a>
</g>
</g>
<!-- Node18&#45;&gt;Node13 -->
<g id="edge55" class="edge"><title>Node18&#45;&gt;Node13</title>
<path fill="none" stroke="#9a32cd" stroke-dasharray="5,2" d="M913.442,-562.255C1128.58,-564.592 1705.79,-566.51 1778,-521.146 1827.83,-489.841 1847.28,-414.339 1852.75,-387.67"/>
<polygon fill="#9a32cd" stroke="#9a32cd" points="913.206,-558.752 903.167,-562.14 913.128,-565.751 913.206,-558.752"/>
<text text-anchor="middle" x="1380" y="-576.146" font-family="Helvetica,sans-Serif" font-size="10.00"> mpORBextractorLeft</text>
<text text-anchor="middle" x="1380" y="-565.146" font-family="Helvetica,sans-Serif" font-size="10.00">mpIniORBextractor</text>
</g>
<!-- Node18&#45;&gt;Node17 -->
<g id="edge37" class="edge"><title>Node18&#45;&gt;Node17</title>
<path fill="none" stroke="#9a32cd" stroke-dasharray="5,2" d="M872.73,-573.813C882.65,-577.082 893.241,-580.663 903,-584.146 965.81,-606.562 981.301,-612.831 1043,-638.146 1064.89,-647.126 1089.67,-657.993 1106.8,-665.619"/>
<polygon fill="#9a32cd" stroke="#9a32cd" points="873.682,-570.442 863.09,-570.663 871.508,-577.096 873.682,-570.442"/>
<text text-anchor="middle" x="982" y="-641.146" font-family="Helvetica,sans-Serif" font-size="10.00"> mpORBextractorLeft</text>
</g>
<!-- Node19&#45;&gt;Node13 -->
<g id="edge38" class="edge"><title>Node19&#45;&gt;Node13</title>
<path fill="none" stroke="#9a32cd" stroke-dasharray="5,2" d="M2040.63,-171.4C2000.92,-215.991 1895.83,-333.985 1865.07,-368.521"/>
<polygon fill="#9a32cd" stroke="#9a32cd" points="2043.42,-173.53 2047.46,-163.735 2038.2,-168.875 2043.42,-173.53"/>
<text text-anchor="middle" x="1958" y="-290.146" font-family="Helvetica,sans-Serif" font-size="10.00"> mpViewer</text>
</g>
<!-- Node19&#45;&gt;Node20 -->
<g id="edge53" class="edge"><title>Node19&#45;&gt;Node20</title>
<path fill="none" stroke="#9a32cd" stroke-dasharray="5,2" d="M1994.69,-143C1970.02,-139.042 1941.25,-135.09 1915,-133.146 1834.01,-127.148 1740.19,-135.385 1681.59,-142.346"/>
<polygon fill="#9a32cd" stroke="#9a32cd" points="1994.2,-146.466 2004.64,-144.63 1995.34,-139.559 1994.2,-146.466"/>
<text text-anchor="middle" x="1855.5" y="-136.146" font-family="Helvetica,sans-Serif" font-size="10.00"> mpViewer</text>
</g>
<!-- Node20&#45;&gt;Node13 -->
<g id="edge54" class="edge"><title>Node20&#45;&gt;Node13</title>
<path fill="none" stroke="#9a32cd" stroke-dasharray="5,2" d="M1691.98,-150.727C1726.76,-152.354 1764.62,-156.621 1778,-167.146 1844.45,-219.43 1853.21,-334.684 1854.34,-368.587"/>
<polygon fill="#9a32cd" stroke="#9a32cd" points="1691.94,-147.222 1681.8,-150.319 1691.65,-154.217 1691.94,-147.222"/>
<text text-anchor="middle" x="1740" y="-170.146" font-family="Helvetica,sans-Serif" font-size="10.00"> mpSystem</text>
</g>
<!-- Node20&#45;&gt;Node19 -->
<g id="edge42" class="edge"><title>Node20&#45;&gt;Node19</title>
<path fill="none" stroke="#9a32cd" stroke-dasharray="5,2" d="M1691.92,-148.301C1695.33,-148.241 1698.7,-148.188 1702,-148.146 1807.71,-146.782 1931.18,-149.959 2000.82,-152.191"/>
<polygon fill="#9a32cd" stroke="#9a32cd" points="1691.56,-144.808 1681.63,-148.504 1691.7,-151.806 1691.56,-144.808"/>
<text text-anchor="middle" x="1855.5" y="-153.146" font-family="Helvetica,sans-Serif" font-size="10.00"> mpSystem</text>
</g>
<!-- Node21&#45;&gt;Node20 -->
<g id="edge50" class="edge"><title>Node21&#45;&gt;Node20</title>
<path fill="none" stroke="#9a32cd" stroke-dasharray="5,2" d="M1053.21,-150.146C1180.72,-150.146 1447.99,-150.146 1565.27,-150.146"/>
<polygon fill="#9a32cd" stroke="#9a32cd" points="1053.16,-146.646 1043.16,-150.146 1053.16,-153.646 1053.16,-146.646"/>
<text text-anchor="middle" x="1253" y="-153.146" font-family="Helvetica,sans-Serif" font-size="10.00"> serializer</text>
</g>
</g>
</svg>
