<?xml version="1.0" encoding="UTF-8" standalone="no"?>
<!DOCTYPE svg PUBLIC "-//W3C//DTD SVG 1.1//EN"
 "http://www.w3.org/Graphics/SVG/1.1/DTD/svg11.dtd">
<!-- Generated by graphviz version 2.38.0 (20140413.2041)
 -->
<!-- Title: ORB_SLAM2::Tracking Pages: 1 -->
<svg width="1882pt" height="764pt"
 viewBox="0.00 0.00 1882.00 764.00" xmlns="http://www.w3.org/2000/svg" xmlns:xlink="http://www.w3.org/1999/xlink">
<g id="graph0" class="graph" transform="scale(1 1) rotate(0) translate(4 760)">
<title>ORB_SLAM2::Tracking</title>
<polygon fill="white" stroke="none" points="-4,4 -4,-760 1878,-760 1878,4 -4,4"/>
<!-- Node1 -->
<g id="node1" class="node"><title>Node1</title>
<polygon fill="#bfbfbf" stroke="black" points="834,-388.5 834,-407.5 953,-407.5 953,-388.5 834,-388.5"/>
<text text-anchor="middle" x="893.5" y="-395.5" font-family="Helvetica,sans-Serif" font-size="10.00">ORB_SLAM2::Tracking</text>
</g>
<!-- Node6 -->
<g id="node6" class="node"><title>Node6</title>
<g id="a_node6"><a xlink:href="class_o_r_b___s_l_a_m2_1_1_loop_closing.html" target="_top" xlink:title="Cierre de bucles. ">
<polygon fill="white" stroke="black" points="1060,-535.5 1060,-554.5 1196,-554.5 1196,-535.5 1060,-535.5"/>
<text text-anchor="middle" x="1128" y="-542.5" font-family="Helvetica,sans-Serif" font-size="10.00">ORB_SLAM2::LoopClosing</text>
</a>
</g>
</g>
<!-- Node1&#45;&gt;Node6 -->
<g id="edge17" class="edge"><title>Node1&#45;&gt;Node6</title>
<path fill="none" stroke="#9a32cd" stroke-dasharray="5,2" d="M902.003,-417.073C913.088,-442.645 936.343,-487.537 971,-511 985.69,-520.946 1024.69,-529.446 1060.02,-535.459"/>
<polygon fill="#9a32cd" stroke="#9a32cd" points="905.182,-415.603 898.116,-407.71 898.717,-418.287 905.182,-415.603"/>
<text text-anchor="middle" x="1006.5" y="-534" font-family="Helvetica,sans-Serif" font-size="10.00"> mpTracker</text>
</g>
<!-- Node7 -->
<g id="node7" class="node"><title>Node7</title>
<g id="a_node7"><a xlink:href="class_o_r_b___s_l_a_m2_1_1_local_mapping.html" target="_top" xlink:title="LocalMapping tiene una única instancia ejecutando el método Run en su propio thread. ">
<polygon fill="white" stroke="black" points="1308,-482.5 1308,-501.5 1450,-501.5 1450,-482.5 1308,-482.5"/>
<text text-anchor="middle" x="1379" y="-489.5" font-family="Helvetica,sans-Serif" font-size="10.00">ORB_SLAM2::LocalMapping</text>
</a>
</g>
</g>
<!-- Node1&#45;&gt;Node7 -->
<g id="edge16" class="edge"><title>Node1&#45;&gt;Node7</title>
<path fill="none" stroke="#9a32cd" stroke-dasharray="5,2" d="M912.078,-414.467C926.667,-427.068 948.585,-443.657 971,-452 1083.45,-493.855 1224.81,-497.881 1307.89,-495.783"/>
<polygon fill="#9a32cd" stroke="#9a32cd" points="914.178,-411.649 904.387,-407.6 909.516,-416.871 914.178,-411.649"/>
<text text-anchor="middle" x="1128" y="-496" font-family="Helvetica,sans-Serif" font-size="10.00"> mpTracker</text>
</g>
<!-- Node12 -->
<g id="node12" class="node"><title>Node12</title>
<g id="a_node12"><a xlink:href="class_o_r_b___s_l_a_m2_1_1_viewer.html" target="_top" xlink:title="Viewer representa la interfaz de usuario. ">
<polygon fill="white" stroke="black" points="1762,-252.5 1762,-271.5 1874,-271.5 1874,-252.5 1762,-252.5"/>
<text text-anchor="middle" x="1818" y="-259.5" font-family="Helvetica,sans-Serif" font-size="10.00">ORB_SLAM2::Viewer</text>
</a>
</g>
</g>
<!-- Node1&#45;&gt;Node12 -->
<g id="edge29" class="edge"><title>Node1&#45;&gt;Node12</title>
<path fill="none" stroke="#9a32cd" stroke-dasharray="5,2" d="M908.086,-380.662C940.999,-340.794 1029.5,-246 1127,-246 1127,-246 1127,-246 1618,-246 1666.7,-246 1721.88,-250.819 1761.77,-255.168"/>
<polygon fill="#9a32cd" stroke="#9a32cd" points="905.322,-378.514 901.758,-388.492 910.766,-382.915 905.322,-378.514"/>
<text text-anchor="middle" x="1379" y="-249" font-family="Helvetica,sans-Serif" font-size="10.00"> mpTracker</text>
</g>
<!-- Node13 -->
<g id="node13" class="node"><title>Node13</title>
<g id="a_node13"><a xlink:href="class_o_r_b___s_l_a_m2_1_1_system.html" target="_top" xlink:title="System se instancia una única vez en main, en la variable SLAM. ">
<polygon fill="white" stroke="black" points="1559,-275.5 1559,-294.5 1675,-294.5 1675,-275.5 1559,-275.5"/>
<text text-anchor="middle" x="1617" y="-282.5" font-family="Helvetica,sans-Serif" font-size="10.00">ORB_SLAM2::System</text>
</a>
</g>
</g>
<!-- Node1&#45;&gt;Node13 -->
<g id="edge39" class="edge"><title>Node1&#45;&gt;Node13</title>
<path fill="none" stroke="#9a32cd" stroke-dasharray="5,2" d="M955.524,-386.646C960.755,-385.729 965.968,-384.835 971,-384 1223.68,-342.051 1288.4,-341.396 1541,-299 1549.23,-297.619 1557.95,-296.069 1566.42,-294.518"/>
<polygon fill="#9a32cd" stroke="#9a32cd" points="954.719,-383.234 945.485,-388.428 955.943,-390.126 954.719,-383.234"/>
<text text-anchor="middle" x="1252" y="-350" font-family="Helvetica,sans-Serif" font-size="10.00"> mpTracker</text>
</g>
<!-- Node2 -->
<g id="node2" class="node"><title>Node2</title>
<g id="a_node2"><a xlink:href="class_o_r_b___s_l_a_m2_1_1_frame_drawer.html" target="_top" xlink:title="Clase de instancia única que se ocupa de mostrar la imagen de la cámara, con marcas verdes sobre los ...">
<polygon fill="white" stroke="black" points="581,-254.5 581,-273.5 722,-273.5 722,-254.5 581,-254.5"/>
<text text-anchor="middle" x="651.5" y="-261.5" font-family="Helvetica,sans-Serif" font-size="10.00">ORB_SLAM2::FrameDrawer</text>
</a>
</g>
</g>
<!-- Node2&#45;&gt;Node1 -->
<g id="edge1" class="edge"><title>Node2&#45;&gt;Node1</title>
<path fill="none" stroke="#9a32cd" stroke-dasharray="5,2" d="M732.597,-259.256C760.699,-260.971 791.371,-266.943 816,-282 857.782,-307.543 881.404,-365.517 889.393,-388.427"/>
<polygon fill="#9a32cd" stroke="#9a32cd" points="732.52,-255.749 722.376,-258.808 732.213,-262.743 732.52,-255.749"/>
<text text-anchor="middle" x="778" y="-285" font-family="Helvetica,sans-Serif" font-size="10.00"> mpFrameDrawer</text>
</g>
<!-- Node2&#45;&gt;Node12 -->
<g id="edge27" class="edge"><title>Node2&#45;&gt;Node12</title>
<path fill="none" stroke="#9a32cd" stroke-dasharray="5,2" d="M672.167,-248.088C689.315,-234.765 715.254,-215.911 740,-203 771.914,-186.349 788.753,-198.525 816,-175 828.645,-164.082 821.391,-152.961 834,-142 914.99,-71.595 955.499,-81.4072 1060,-57 1143.07,-37.5978 1165.69,-38 1251,-38 1251,-38 1251,-38 1618,-38 1734.52,-38 1799.49,-209.5 1813.91,-252.375"/>
<polygon fill="#9a32cd" stroke="#9a32cd" points="669.735,-245.548 664.053,-254.49 674.072,-251.043 669.735,-245.548"/>
<text text-anchor="middle" x="1252" y="-42" font-family="Helvetica,sans-Serif" font-size="10.00"> mpFrameDrawer</text>
</g>
<!-- Node2&#45;&gt;Node13 -->
<g id="edge31" class="edge"><title>Node2&#45;&gt;Node13</title>
<path fill="none" stroke="#9a32cd" stroke-dasharray="5,2" d="M731.532,-253.171C813.488,-242.526 945.43,-227.028 1060,-221 1133.31,-217.143 1436.47,-221.51 1450,-224 1505.26,-234.169 1566.34,-260.97 1596.68,-275.429"/>
<polygon fill="#9a32cd" stroke="#9a32cd" points="731.005,-249.71 721.543,-254.476 731.912,-256.651 731.005,-249.71"/>
<text text-anchor="middle" x="1128" y="-224" font-family="Helvetica,sans-Serif" font-size="10.00"> mpFrameDrawer</text>
</g>
<!-- Node3 -->
<g id="node3" class="node"><title>Node3</title>
<g id="a_node3"><a xlink:href="class_o_r_b___s_l_a_m2_1_1_map.html" target="_top" xlink:title="Mapa del mundo, de puntos y keyframes. ">
<polygon fill="white" stroke="black" points="34,-235.5 34,-254.5 135,-254.5 135,-235.5 34,-235.5"/>
<text text-anchor="middle" x="84.5" y="-242.5" font-family="Helvetica,sans-Serif" font-size="10.00">ORB_SLAM2::Map</text>
</a>
</g>
</g>
<!-- Node3&#45;&gt;Node1 -->
<g id="edge21" class="edge"><title>Node3&#45;&gt;Node1</title>
<path fill="none" stroke="#9a32cd" stroke-dasharray="5,2" d="M144.902,-255.765C158.711,-258.204 173.361,-260.739 187,-263 466.053,-309.254 546.367,-274.515 816,-360 838.052,-366.992 861.636,-379.573 876.695,-388.335"/>
<polygon fill="#9a32cd" stroke="#9a32cd" points="145.48,-252.313 135.022,-254.012 144.257,-259.206 145.48,-252.313"/>
<text text-anchor="middle" x="502" y="-305" font-family="Helvetica,sans-Serif" font-size="10.00"> mpMap</text>
</g>
<!-- Node3&#45;&gt;Node2 -->
<g id="edge2" class="edge"><title>Node3&#45;&gt;Node2</title>
<path fill="none" stroke="#9a32cd" stroke-dasharray="5,2" d="M145.286,-247.01C250.634,-250.553 468.761,-257.888 580.778,-261.655"/>
<polygon fill="#9a32cd" stroke="#9a32cd" points="145.257,-243.508 135.145,-246.669 145.021,-250.504 145.257,-243.508"/>
<text text-anchor="middle" x="352" y="-259" font-family="Helvetica,sans-Serif" font-size="10.00"> mpMap</text>
</g>
<!-- Node5 -->
<g id="node5" class="node"><title>Node5</title>
<g id="a_node5"><a xlink:href="class_o_r_b___s_l_a_m2_1_1_key_frame.html" target="_top" xlink:title="Cuadro clave, keyframe. ">
<polygon fill="white" stroke="black" points="288.5,-569.5 288.5,-588.5 415.5,-588.5 415.5,-569.5 288.5,-569.5"/>
<text text-anchor="middle" x="352" y="-576.5" font-family="Helvetica,sans-Serif" font-size="10.00">ORB_SLAM2::KeyFrame</text>
</a>
</g>
</g>
<!-- Node3&#45;&gt;Node5 -->
<g id="edge7" class="edge"><title>Node3&#45;&gt;Node5</title>
<path fill="none" stroke="#9a32cd" stroke-dasharray="5,2" d="M86.8438,-264.847C91.3579,-315.711 110.358,-451.924 187,-526 214.217,-552.306 254.58,-565.555 288.452,-572.228"/>
<polygon fill="#9a32cd" stroke="#9a32cd" points="90.3098,-264.277 86.0323,-254.584 83.3316,-264.829 90.3098,-264.277"/>
<text text-anchor="middle" x="225" y="-568" font-family="Helvetica,sans-Serif" font-size="10.00"> mpMap</text>
</g>
<!-- Node3&#45;&gt;Node6 -->
<g id="edge11" class="edge"><title>Node3&#45;&gt;Node6</title>
<path fill="none" stroke="#9a32cd" stroke-dasharray="5,2" d="M102.082,-261.983C149.61,-309.411 292.472,-443.364 441,-498 655.83,-577.026 933.706,-564.036 1059.65,-552.538"/>
<polygon fill="#9a32cd" stroke="#9a32cd" points="104.336,-259.286 94.8073,-254.653 99.3668,-264.217 104.336,-259.286"/>
<text text-anchor="middle" x="651.5" y="-558" font-family="Helvetica,sans-Serif" font-size="10.00"> mpMap</text>
</g>
<!-- Node3&#45;&gt;Node7 -->
<g id="edge15" class="edge"><title>Node3&#45;&gt;Node7</title>
<path fill="none" stroke="#9a32cd" stroke-dasharray="5,2" d="M145.621,-236.487C271.645,-220.472 572.01,-191.923 816,-244 1041.69,-292.172 1105.08,-317.927 1290,-456 1299.85,-463.355 1297.44,-470.715 1308,-477 1311.52,-479.097 1315.3,-480.902 1319.21,-482.457"/>
<polygon fill="#9a32cd" stroke="#9a32cd" points="144.881,-233.053 135.411,-237.805 145.777,-239.995 144.881,-233.053"/>
<text text-anchor="middle" x="778" y="-247" font-family="Helvetica,sans-Serif" font-size="10.00"> mpMap</text>
</g>
<!-- Node9 -->
<g id="node9" class="node"><title>Node9</title>
<g id="a_node9"><a xlink:href="class_o_r_b___s_l_a_m2_1_1_map_drawer.html" target="_top" xlink:title="Esta clase contiene los métodos para dibujar en pangolin. ">
<polygon fill="white" stroke="black" points="585.5,-45.5 585.5,-64.5 717.5,-64.5 717.5,-45.5 585.5,-45.5"/>
<text text-anchor="middle" x="651.5" y="-52.5" font-family="Helvetica,sans-Serif" font-size="10.00">ORB_SLAM2::MapDrawer</text>
</a>
</g>
</g>
<!-- Node3&#45;&gt;Node9 -->
<g id="edge20" class="edge"><title>Node3&#45;&gt;Node9</title>
<path fill="none" stroke="#9a32cd" stroke-dasharray="5,2" d="M94.2108,-225.99C108.882,-196.234 141.447,-139.062 187,-110 310.137,-31.4414 489.657,-36.2425 585.114,-45.9621"/>
<polygon fill="#9a32cd" stroke="#9a32cd" points="90.9252,-224.748 89.7755,-235.28 97.2423,-227.764 90.9252,-224.748"/>
<text text-anchor="middle" x="352" y="-71" font-family="Helvetica,sans-Serif" font-size="10.00"> mpMap</text>
</g>
<!-- Node3&#45;&gt;Node13 -->
<g id="edge35" class="edge"><title>Node3&#45;&gt;Node13</title>
<path fill="none" stroke="#9a32cd" stroke-dasharray="5,2" d="M112.536,-230.908C159.635,-207.705 260.379,-164 351,-164 351,-164 351,-164 779,-164 1078.12,-164 1151.9,-191.347 1450,-216 1490.46,-219.346 1503.38,-208.743 1541,-224 1569,-235.353 1594.7,-260.898 1607.5,-275.065"/>
<polygon fill="#9a32cd" stroke="#9a32cd" points="110.96,-227.782 103.586,-235.39 114.094,-234.041 110.96,-227.782"/>
<text text-anchor="middle" x="893.5" y="-170" font-family="Helvetica,sans-Serif" font-size="10.00"> mpMap</text>
</g>
<!-- Node14 -->
<g id="node14" class="node"><title>Node14</title>
<g id="a_node14"><a xlink:href="class_o_r_b___s_l_a_m2_1_1_serializer.html" target="_top" xlink:title="Clase encargada de la serialización (guarda y carga) del mapa. ">
<polygon fill="white" stroke="black" points="441,-105.5 441,-124.5 563,-124.5 563,-105.5 441,-105.5"/>
<text text-anchor="middle" x="502" y="-112.5" font-family="Helvetica,sans-Serif" font-size="10.00">ORB_SLAM2::Serializer</text>
</a>
</g>
</g>
<!-- Node3&#45;&gt;Node14 -->
<g id="edge38" class="edge"><title>Node3&#45;&gt;Node14</title>
<path fill="none" stroke="#9a32cd" stroke-dasharray="5,2" d="M96.544,-226.971C112.859,-202.174 145.947,-158.412 187,-139 268.43,-100.497 375.097,-101.612 440.794,-107.298"/>
<polygon fill="#9a32cd" stroke="#9a32cd" points="93.5587,-225.143 91.1309,-235.456 99.46,-228.908 93.5587,-225.143"/>
<text text-anchor="middle" x="225" y="-142" font-family="Helvetica,sans-Serif" font-size="10.00"> mapa</text>
</g>
<!-- Node4 -->
<g id="node4" class="node"><title>Node4</title>
<g id="a_node4"><a xlink:href="class_o_r_b___s_l_a_m2_1_1_key_frame_database.html" target="_top" xlink:title="Lista invertida de KeyFrames, accesible por BoW. ">
<polygon fill="white" stroke="black" points="0,-666.5 0,-685.5 169,-685.5 169,-666.5 0,-666.5"/>
<text text-anchor="middle" x="84.5" y="-673.5" font-family="Helvetica,sans-Serif" font-size="10.00">ORB_SLAM2::KeyFrameDatabase</text>
</a>
</g>
</g>
<!-- Node4&#45;&gt;Node1 -->
<g id="edge3" class="edge"><title>Node4&#45;&gt;Node1</title>
<path fill="none" stroke="#9a32cd" stroke-dasharray="5,2" d="M179.255,-670.952C306.44,-661.451 538.794,-634.589 722,-560 767.467,-541.489 779.905,-535.272 816,-502 848.302,-472.225 875.985,-427.08 887.186,-407.554"/>
<polygon fill="#9a32cd" stroke="#9a32cd" points="178.876,-667.47 169.156,-671.686 179.384,-674.452 178.876,-667.47"/>
<text text-anchor="middle" x="502" y="-639" font-family="Helvetica,sans-Serif" font-size="10.00"> mpKeyFrameDB</text>
</g>
<!-- Node4&#45;&gt;Node5 -->
<g id="edge5" class="edge"><title>Node4&#45;&gt;Node5</title>
<path fill="none" stroke="#9a32cd" stroke-dasharray="5,2" d="M109.565,-661.136C129.668,-649.231 159.397,-632.791 187,-622 224.831,-607.21 269.532,-595.87 302.703,-588.559"/>
<polygon fill="#9a32cd" stroke="#9a32cd" points="107.555,-658.261 100.785,-666.411 111.159,-664.262 107.555,-658.261"/>
<text text-anchor="middle" x="225" y="-625" font-family="Helvetica,sans-Serif" font-size="10.00"> mpKeyFrameDB</text>
</g>
<!-- Node4&#45;&gt;Node6 -->
<g id="edge9" class="edge"><title>Node4&#45;&gt;Node6</title>
<path fill="none" stroke="#9a32cd" stroke-dasharray="5,2" d="M179.28,-680.539C206.31,-681.19 235.834,-681.271 263,-680 510.048,-668.445 570.796,-650.266 816,-618 916.46,-604.781 945.205,-617.959 1042,-588 1067.91,-579.981 1095.51,-564.589 1112,-554.562"/>
<polygon fill="#9a32cd" stroke="#9a32cd" points="179.144,-677.034 169.053,-680.263 178.955,-684.032 179.144,-677.034"/>
<text text-anchor="middle" x="651.5" y="-654" font-family="Helvetica,sans-Serif" font-size="10.00"> mpKeyFrameDB</text>
</g>
<!-- Node4&#45;&gt;Node13 -->
<g id="edge32" class="edge"><title>Node4&#45;&gt;Node13</title>
<path fill="none" stroke="#9a32cd" stroke-dasharray="5,2" d="M116.4,-689.511C165.23,-709.599 263.672,-745 351,-745 351,-745 351,-745 1380,-745 1590.03,-745 1613.28,-360.665 1615.72,-294.608"/>
<polygon fill="#9a32cd" stroke="#9a32cd" points="117.61,-686.224 107.034,-685.594 114.909,-692.682 117.61,-686.224"/>
<text text-anchor="middle" x="893.5" y="-748" font-family="Helvetica,sans-Serif" font-size="10.00"> mpKeyFrameDatabase</text>
</g>
<!-- Node5&#45;&gt;Node1 -->
<g id="edge4" class="edge"><title>Node5&#45;&gt;Node1</title>
<path fill="none" stroke="#9a32cd" stroke-dasharray="5,2" d="M424.812,-567.668C477.591,-557.94 543.387,-542.426 563,-523 584.297,-501.905 558.056,-477.291 581,-458 661.326,-390.466 714.972,-463.399 816,-435 838.298,-428.732 862.019,-416.236 877.031,-407.508"/>
<polygon fill="#9a32cd" stroke="#9a32cd" points="424.005,-564.257 414.785,-569.476 425.247,-571.146 424.005,-564.257"/>
<text text-anchor="middle" x="651.5" y="-472" font-family="Helvetica,sans-Serif" font-size="10.00"> mpLastKeyFrame</text>
<text text-anchor="middle" x="651.5" y="-461" font-family="Helvetica,sans-Serif" font-size="10.00">mpReferenceKF</text>
</g>
<!-- Node5&#45;&gt;Node5 -->
<g id="edge6" class="edge"><title>Node5&#45;&gt;Node5</title>
<path fill="none" stroke="#9a32cd" stroke-dasharray="5,2" d="M328.563,-598.029C329.841,-603.128 337.654,-607 352,-607 374.395,-607 380.868,-597.565 371.42,-588.757"/>
<polygon fill="#9a32cd" stroke="#9a32cd" points="331.816,-599.324 332.58,-588.757 325.393,-596.541 331.816,-599.324"/>
<text text-anchor="middle" x="352" y="-610" font-family="Helvetica,sans-Serif" font-size="10.00"> mpParent</text>
</g>
<!-- Node5&#45;&gt;Node6 -->
<g id="edge10" class="edge"><title>Node5&#45;&gt;Node6</title>
<path fill="none" stroke="#9a32cd" stroke-dasharray="5,2" d="M426.01,-584.53C552.37,-592.66 819.65,-603.504 1042,-570 1062.38,-566.929 1084.72,-560.223 1101.37,-554.529"/>
<polygon fill="#9a32cd" stroke="#9a32cd" points="425.9,-581.015 415.692,-583.852 425.44,-588 425.9,-581.015"/>
<text text-anchor="middle" x="778" y="-606" font-family="Helvetica,sans-Serif" font-size="10.00"> mpMatchedKF</text>
<text text-anchor="middle" x="778" y="-595" font-family="Helvetica,sans-Serif" font-size="10.00">mpCurrentKF</text>
</g>
<!-- Node5&#45;&gt;Node7 -->
<g id="edge13" class="edge"><title>Node5&#45;&gt;Node7</title>
<path fill="none" stroke="#9a32cd" stroke-dasharray="5,2" d="M396.869,-591.056C410.871,-594.476 426.497,-597.85 441,-600 572.69,-619.525 606.931,-613.998 740,-618 985.263,-625.376 1065.26,-668.5 1290,-570 1325.71,-554.347 1357.12,-518.632 1370.77,-501.505"/>
<polygon fill="#9a32cd" stroke="#9a32cd" points="397.551,-587.619 386.999,-588.575 395.844,-594.407 397.551,-587.619"/>
<text text-anchor="middle" x="893.5" y="-634" font-family="Helvetica,sans-Serif" font-size="10.00"> mpCurrentKeyFrame</text>
</g>
<!-- Node10 -->
<g id="node10" class="node"><title>Node10</title>
<g id="a_node10"><a xlink:href="class_o_r_b___s_l_a_m2_1_1_frame.html" target="_top" xlink:title="Frame representa un cuadro, una imagen, con los puntos singulares detectados. ">
<polygon fill="white" stroke="black" points="596.5,-393.5 596.5,-412.5 706.5,-412.5 706.5,-393.5 596.5,-393.5"/>
<text text-anchor="middle" x="651.5" y="-400.5" font-family="Helvetica,sans-Serif" font-size="10.00">ORB_SLAM2::Frame</text>
</a>
</g>
</g>
<!-- Node5&#45;&gt;Node10 -->
<g id="edge24" class="edge"><title>Node5&#45;&gt;Node10</title>
<path fill="none" stroke="#9a32cd" stroke-dasharray="5,2" d="M372.788,-562.799C410.903,-532.302 498.081,-465.943 581,-427 592.785,-421.465 606.213,-416.531 618.102,-412.597"/>
<polygon fill="#9a32cd" stroke="#9a32cd" points="370.18,-560.406 364.595,-569.409 374.575,-565.854 370.18,-560.406"/>
<text text-anchor="middle" x="502" y="-513" font-family="Helvetica,sans-Serif" font-size="10.00"> mpReferenceKF</text>
</g>
<!-- Node6&#45;&gt;Node1 -->
<g id="edge8" class="edge"><title>Node6&#45;&gt;Node1</title>
<path fill="none" stroke="#9a32cd" stroke-dasharray="5,2" d="M1101.74,-530.142C1085.13,-520.74 1062.7,-508.753 1042,-500 1011.45,-487.08 999.15,-494.546 971,-477 940.54,-458.014 913.561,-424.309 901.378,-407.742"/>
<polygon fill="#9a32cd" stroke="#9a32cd" points="1100.38,-533.396 1110.8,-535.334 1103.87,-527.324 1100.38,-533.396"/>
<text text-anchor="middle" x="1006.5" y="-503" font-family="Helvetica,sans-Serif" font-size="10.00"> mpLoopClosing</text>
</g>
<!-- Node6&#45;&gt;Node7 -->
<g id="edge14" class="edge"><title>Node6&#45;&gt;Node7</title>
<path fill="none" stroke="#9a32cd" stroke-dasharray="5,2" d="M1206.48,-554.947C1233.37,-556.055 1263.43,-554.619 1290,-547 1321,-538.109 1351.67,-514.762 1367.32,-501.521"/>
<polygon fill="#9a32cd" stroke="#9a32cd" points="1206.51,-551.444 1196.34,-554.405 1206.14,-558.434 1206.51,-551.444"/>
<text text-anchor="middle" x="1252" y="-558" font-family="Helvetica,sans-Serif" font-size="10.00"> mpLoopCloser</text>
</g>
<!-- Node6&#45;&gt;Node13 -->
<g id="edge33" class="edge"><title>Node6&#45;&gt;Node13</title>
<path fill="none" stroke="#9a32cd" stroke-dasharray="5,2" d="M1156.16,-530.81C1190.76,-513.109 1252.71,-482.661 1308,-462 1369.53,-439.005 1395.16,-457.168 1450,-421 1460.55,-414.044 1457.76,-406.399 1468,-399 1496.17,-378.65 1512.52,-390.905 1541,-371 1572.02,-349.326 1598.5,-312.121 1609.95,-294.625"/>
<polygon fill="#9a32cd" stroke="#9a32cd" points="1154.45,-527.757 1147.16,-535.446 1157.65,-533.981 1154.45,-527.757"/>
<text text-anchor="middle" x="1379" y="-465" font-family="Helvetica,sans-Serif" font-size="10.00"> mpLoopCloser</text>
</g>
<!-- Node7&#45;&gt;Node1 -->
<g id="edge22" class="edge"><title>Node7&#45;&gt;Node1</title>
<path fill="none" stroke="#9a32cd" stroke-dasharray="5,2" d="M1318.97,-480.524C1222.54,-461.776 1033.02,-424.931 943.521,-407.531"/>
<polygon fill="#9a32cd" stroke="#9a32cd" points="1318.36,-483.971 1328.85,-482.444 1319.7,-477.1 1318.36,-483.971"/>
<text text-anchor="middle" x="1128" y="-458" font-family="Helvetica,sans-Serif" font-size="10.00"> mpLocalMapper</text>
</g>
<!-- Node7&#45;&gt;Node6 -->
<g id="edge12" class="edge"><title>Node7&#45;&gt;Node6</title>
<path fill="none" stroke="#9a32cd" stroke-dasharray="5,2" d="M1339.28,-504.542C1324.03,-509.19 1306.3,-514.24 1290,-518 1259.48,-525.04 1225.32,-531.033 1196.33,-535.571"/>
<polygon fill="#9a32cd" stroke="#9a32cd" points="1340.38,-507.864 1348.9,-501.562 1338.31,-501.177 1340.38,-507.864"/>
<text text-anchor="middle" x="1252" y="-535" font-family="Helvetica,sans-Serif" font-size="10.00"> mpLocalMapper</text>
</g>
<!-- Node7&#45;&gt;Node13 -->
<g id="edge36" class="edge"><title>Node7&#45;&gt;Node13</title>
<path fill="none" stroke="#9a32cd" stroke-dasharray="5,2" d="M1424.68,-479.065C1433.3,-475.913 1442.09,-472.214 1450,-468 1494.8,-444.134 1506.33,-436.069 1541,-399 1573.04,-364.741 1600.38,-315.281 1611.13,-294.628"/>
<polygon fill="#9a32cd" stroke="#9a32cd" points="1423.4,-475.807 1415.1,-482.39 1425.69,-482.42 1423.4,-475.807"/>
<text text-anchor="middle" x="1504.5" y="-460" font-family="Helvetica,sans-Serif" font-size="10.00"> mpLocalMapper</text>
</g>
<!-- Node8 -->
<g id="node8" class="node"><title>Node8</title>
<g id="a_node8"><a xlink:href="class_o_r_b___s_l_a_m2_1_1_initializer.html" target="_top" xlink:title="Inicializador de mapa en modo monocular. ">
<polygon fill="white" stroke="black" points="591,-489.5 591,-508.5 712,-508.5 712,-489.5 591,-489.5"/>
<text text-anchor="middle" x="651.5" y="-496.5" font-family="Helvetica,sans-Serif" font-size="10.00">ORB_SLAM2::Initializer</text>
</a>
</g>
</g>
<!-- Node8&#45;&gt;Node1 -->
<g id="edge18" class="edge"><title>Node8&#45;&gt;Node1</title>
<path fill="none" stroke="#9a32cd" stroke-dasharray="5,2" d="M722.296,-491.292C752.268,-486.074 786.993,-477.39 816,-463 844.415,-448.904 871.093,-421.998 884.142,-407.62"/>
<polygon fill="#9a32cd" stroke="#9a32cd" points="721.628,-487.855 712.329,-492.932 722.765,-494.762 721.628,-487.855"/>
<text text-anchor="middle" x="778" y="-490" font-family="Helvetica,sans-Serif" font-size="10.00"> mpInitializer</text>
</g>
<!-- Node9&#45;&gt;Node1 -->
<g id="edge19" class="edge"><title>Node9&#45;&gt;Node1</title>
<path fill="none" stroke="#9a32cd" stroke-dasharray="5,2" d="M678.199,-69.874C713.841,-91.7181 778.154,-135.713 816,-189 863.88,-256.415 885.168,-357.168 890.865,-388.413"/>
<polygon fill="#9a32cd" stroke="#9a32cd" points="679.743,-66.7178 669.37,-64.5577 676.132,-72.7146 679.743,-66.7178"/>
<text text-anchor="middle" x="778" y="-192" font-family="Helvetica,sans-Serif" font-size="10.00"> mpMapDrawer</text>
</g>
<!-- Node9&#45;&gt;Node12 -->
<g id="edge28" class="edge"><title>Node9&#45;&gt;Node12</title>
<path fill="none" stroke="#9a32cd" stroke-dasharray="5,2" d="M686.792,-42.0071C732.866,-25.7451 817.63,-0 892.5,-0 892.5,-0 892.5,-0 1618,-0 1680.41,-0 1703.38,-14.6154 1744,-62 1795.48,-122.055 1811.9,-221.464 1815.91,-252.466"/>
<polygon fill="#9a32cd" stroke="#9a32cd" points="685.522,-38.7444 677.294,-45.4197 687.889,-45.3321 685.522,-38.7444"/>
<text text-anchor="middle" x="1252" y="-3" font-family="Helvetica,sans-Serif" font-size="10.00"> mpMapDrawer</text>
</g>
<!-- Node9&#45;&gt;Node13 -->
<g id="edge34" class="edge"><title>Node9&#45;&gt;Node13</title>
<path fill="none" stroke="#9a32cd" stroke-dasharray="5,2" d="M727.904,-55.0995C930.427,-55.9888 1475.37,-62.705 1541,-109 1598.81,-149.779 1612.34,-244.54 1615.26,-275.223"/>
<polygon fill="#9a32cd" stroke="#9a32cd" points="727.669,-51.5986 717.655,-55.0582 727.641,-58.5986 727.669,-51.5986"/>
<text text-anchor="middle" x="1128" y="-69" font-family="Helvetica,sans-Serif" font-size="10.00"> mpMapDrawer</text>
</g>
<!-- Node10&#45;&gt;Node1 -->
<g id="edge23" class="edge"><title>Node10&#45;&gt;Node1</title>
<path fill="none" stroke="#9a32cd" stroke-dasharray="5,2" d="M716.692,-401.663C753.144,-400.903 798.437,-399.96 833.92,-399.22"/>
<polygon fill="#9a32cd" stroke="#9a32cd" points="716.585,-398.164 706.66,-401.872 716.731,-405.163 716.585,-398.164"/>
<text text-anchor="middle" x="778" y="-426" font-family="Helvetica,sans-Serif" font-size="10.00"> mLastFrame</text>
<text text-anchor="middle" x="778" y="-415" font-family="Helvetica,sans-Serif" font-size="10.00">mCurrentFrame</text>
<text text-anchor="middle" x="778" y="-404" font-family="Helvetica,sans-Serif" font-size="10.00">mInitialFrame</text>
</g>
<!-- Node11 -->
<g id="node11" class="node"><title>Node11</title>
<g id="a_node11"><a xlink:href="class_o_r_b___s_l_a_m2_1_1_o_r_bextractor.html" target="_top" xlink:title="Empaqueta todos los métodos de detección de puntos singulares y extracción de descriptores. ">
<polygon fill="white" stroke="black" points="281,-368.5 281,-387.5 423,-387.5 423,-368.5 281,-368.5"/>
<text text-anchor="middle" x="352" y="-375.5" font-family="Helvetica,sans-Serif" font-size="10.00">ORB_SLAM2::ORBextractor</text>
</a>
</g>
</g>
<!-- Node11&#45;&gt;Node1 -->
<g id="edge42" class="edge"><title>Node11&#45;&gt;Node1</title>
<path fill="none" stroke="#9a32cd" stroke-dasharray="5,2" d="M433.538,-367.704C508.431,-359.741 623.02,-351.664 722,-362 769.692,-366.98 823.687,-379.593 857.897,-388.479"/>
<polygon fill="#9a32cd" stroke="#9a32cd" points="432.802,-364.264 423.24,-368.825 433.56,-371.223 432.802,-364.264"/>
<text text-anchor="middle" x="651.5" y="-376" font-family="Helvetica,sans-Serif" font-size="10.00"> mpORBextractorLeft</text>
<text text-anchor="middle" x="651.5" y="-365" font-family="Helvetica,sans-Serif" font-size="10.00">mpIniORBextractor</text>
</g>
<!-- Node11&#45;&gt;Node10 -->
<g id="edge25" class="edge"><title>Node11&#45;&gt;Node10</title>
<path fill="none" stroke="#9a32cd" stroke-dasharray="5,2" d="M433.255,-384.744C484.889,-389.083 550.608,-394.606 596.175,-398.435"/>
<polygon fill="#9a32cd" stroke="#9a32cd" points="433.385,-381.243 423.127,-383.893 432.798,-388.218 433.385,-381.243"/>
<text text-anchor="middle" x="502" y="-398" font-family="Helvetica,sans-Serif" font-size="10.00"> mpORBextractorLeft</text>
</g>
<!-- Node12&#45;&gt;Node1 -->
<g id="edge26" class="edge"><title>Node12&#45;&gt;Node1</title>
<path fill="none" stroke="#9a32cd" stroke-dasharray="5,2" d="M1797.59,-278.02C1783.59,-288.658 1763.74,-301.925 1744,-309 1513.17,-391.732 1440,-348.643 1196,-373 1111.72,-381.413 1014,-389.146 953.198,-393.718"/>
<polygon fill="#9a32cd" stroke="#9a32cd" points="1799.79,-280.74 1805.5,-271.814 1795.47,-275.232 1799.79,-280.74"/>
<text text-anchor="middle" x="1379" y="-368" font-family="Helvetica,sans-Serif" font-size="10.00"> mpViewer</text>
</g>
<!-- Node12&#45;&gt;Node13 -->
<g id="edge40" class="edge"><title>Node12&#45;&gt;Node13</title>
<path fill="none" stroke="#9a32cd" stroke-dasharray="5,2" d="M1751.65,-269.553C1726.91,-272.413 1698.95,-275.644 1675.03,-278.409"/>
<polygon fill="#9a32cd" stroke="#9a32cd" points="1752.15,-273.019 1761.68,-268.394 1751.35,-266.065 1752.15,-273.019"/>
<text text-anchor="middle" x="1718.5" y="-279" font-family="Helvetica,sans-Serif" font-size="10.00"> mpViewer</text>
</g>
<!-- Node13&#45;&gt;Node1 -->
<g id="edge41" class="edge"><title>Node13&#45;&gt;Node1</title>
<path fill="none" stroke="#9a32cd" stroke-dasharray="5,2" d="M1548.49,-288.514C1443.27,-294.863 1234.13,-310.98 1060,-346 1020.05,-354.034 1009.83,-355.647 971,-368 952.376,-373.926 931.776,-382.101 916.649,-388.421"/>
<polygon fill="#9a32cd" stroke="#9a32cd" points="1548.88,-291.997 1558.66,-287.912 1548.47,-285.01 1548.88,-291.997"/>
<text text-anchor="middle" x="1252" y="-323" font-family="Helvetica,sans-Serif" font-size="10.00"> mpSystem</text>
</g>
<!-- Node13&#45;&gt;Node12 -->
<g id="edge30" class="edge"><title>Node13&#45;&gt;Node12</title>
<path fill="none" stroke="#9a32cd" stroke-dasharray="5,2" d="M1685.29,-294.049C1704.39,-295.042 1725.13,-294.611 1744,-291 1763.42,-287.284 1784.26,-278.474 1798.68,-271.532"/>
<polygon fill="#9a32cd" stroke="#9a32cd" points="1685.37,-290.547 1675.17,-293.386 1684.92,-297.532 1685.37,-290.547"/>
<text text-anchor="middle" x="1718.5" y="-297" font-family="Helvetica,sans-Serif" font-size="10.00"> mpSystem</text>
</g>
<!-- Node14&#45;&gt;Node13 -->
<g id="edge37" class="edge"><title>Node14&#45;&gt;Node13</title>
<path fill="none" stroke="#9a32cd" stroke-dasharray="5,2" d="M573.37,-113.136C793.52,-107.856 1459.35,-96.2886 1541,-147 1589.18,-176.925 1608.58,-249.323 1614.16,-275.421"/>
<polygon fill="#9a32cd" stroke="#9a32cd" points="573.14,-109.64 563.228,-113.382 573.31,-116.638 573.14,-109.64"/>
<text text-anchor="middle" x="1006.5" y="-112" font-family="Helvetica,sans-Serif" font-size="10.00"> serializer</text>
</g>
</g>
</svg>
