<?xml version="1.0" encoding="UTF-8" standalone="no"?>
<!DOCTYPE svg PUBLIC "-//W3C//DTD SVG 1.1//EN"
 "http://www.w3.org/Graphics/SVG/1.1/DTD/svg11.dtd">
<!-- Generated by graphviz version 2.38.0 (20140413.2041)
 -->
<!-- Title: ORB_SLAM2::MapPoint Pages: 1 -->
<svg width="353pt" height="162pt"
 viewBox="0.00 0.00 353.00 162.00" xmlns="http://www.w3.org/2000/svg" xmlns:xlink="http://www.w3.org/1999/xlink">
<g id="graph0" class="graph" transform="scale(1 1) rotate(0) translate(4 158)">
<title>ORB_SLAM2::MapPoint</title>
<polygon fill="white" stroke="none" points="-4,4 -4,-158 349,-158 349,4 -4,4"/>
<!-- Node1 -->
<g id="node1" class="node"><title>Node1</title>
<polygon fill="#bfbfbf" stroke="black" points="146,-0.5 146,-19.5 269,-19.5 269,-0.5 146,-0.5"/>
<text text-anchor="middle" x="207.5" y="-7.5" font-family="Helvetica,sans-Serif" font-size="10.00">ORB_SLAM2::MapPoint</text>
</g>
<!-- Node1&#45;&gt;Node1 -->
<g id="edge1" class="edge"><title>Node1&#45;&gt;Node1</title>
<path fill="none" stroke="#9a32cd" stroke-dasharray="5,2" d="M279.439,-14.2754C284.149,-13.2806 287,-11.8555 287,-10 287,-7.03125 279.701,-5.16418 269.167,-4.3988"/>
<polygon fill="#9a32cd" stroke="#9a32cd" points="278.636,-10.8498 269.167,-15.6012 279.533,-17.7922 278.636,-10.8498"/>
<text text-anchor="middle" x="316" y="-7.5" font-family="Helvetica,sans-Serif" font-size="10.00"> mpReplaced</text>
</g>
<!-- Node2 -->
<g id="node2" class="node"><title>Node2</title>
<g id="a_node2"><a xlink:href="class_o_r_b___s_l_a_m2_1_1_key_frame.html" target="_top" xlink:title="Cuadro clave, keyframe. ">
<polygon fill="white" stroke="black" points="21,-67.5 21,-86.5 148,-86.5 148,-67.5 21,-67.5"/>
<text text-anchor="middle" x="84.5" y="-74.5" font-family="Helvetica,sans-Serif" font-size="10.00">ORB_SLAM2::KeyFrame</text>
</a>
</g>
</g>
<!-- Node2&#45;&gt;Node1 -->
<g id="edge2" class="edge"><title>Node2&#45;&gt;Node1</title>
<path fill="none" stroke="#9a32cd" stroke-dasharray="5,2" d="M109.851,-62.6034C134.209,-49.7309 170.297,-30.66 191.099,-19.6672"/>
<polygon fill="#9a32cd" stroke="#9a32cd" points="108.04,-59.6017 100.833,-67.3685 111.31,-65.7907 108.04,-59.6017"/>
<text text-anchor="middle" x="176.5" y="-41" font-family="Helvetica,sans-Serif" font-size="10.00"> mpRefKF</text>
</g>
<!-- Node2&#45;&gt;Node2 -->
<g id="edge4" class="edge"><title>Node2&#45;&gt;Node2</title>
<path fill="none" stroke="#9a32cd" stroke-dasharray="5,2" d="M158.042,-81.3175C162.994,-80.321 166,-78.8818 166,-77 166,-74.0625 158.674,-72.2036 148.058,-71.4233"/>
<polygon fill="#9a32cd" stroke="#9a32cd" points="157.541,-77.8528 148.058,-82.5767 158.417,-84.7978 157.541,-77.8528"/>
<text text-anchor="middle" x="189" y="-74.5" font-family="Helvetica,sans-Serif" font-size="10.00"> mpParent</text>
</g>
<!-- Node3 -->
<g id="node3" class="node"><title>Node3</title>
<g id="a_node3"><a xlink:href="class_o_r_b___s_l_a_m2_1_1_key_frame_database.html" target="_top" xlink:title="Lista invertida de KeyFrames, accesible por BoW. ">
<polygon fill="white" stroke="black" points="0,-134.5 0,-153.5 169,-153.5 169,-134.5 0,-134.5"/>
<text text-anchor="middle" x="84.5" y="-141.5" font-family="Helvetica,sans-Serif" font-size="10.00">ORB_SLAM2::KeyFrameDatabase</text>
</a>
</g>
</g>
<!-- Node3&#45;&gt;Node2 -->
<g id="edge3" class="edge"><title>Node3&#45;&gt;Node2</title>
<path fill="none" stroke="#9a32cd" stroke-dasharray="5,2" d="M84.5,-124.037C84.5,-111.67 84.5,-96.1198 84.5,-86.6273"/>
<polygon fill="#9a32cd" stroke="#9a32cd" points="81.0001,-124.234 84.5,-134.234 88.0001,-124.234 81.0001,-124.234"/>
<text text-anchor="middle" x="122.5" y="-108" font-family="Helvetica,sans-Serif" font-size="10.00"> mpKeyFrameDB</text>
</g>
<!-- Node4 -->
<g id="node4" class="node"><title>Node4</title>
<g id="a_node4"><a xlink:href="class_o_r_b___s_l_a_m2_1_1_map.html" target="_top" xlink:title="Mapa del mundo, de puntos y keyframes. ">
<polygon fill="white" stroke="black" points="192,-134.5 192,-153.5 293,-153.5 293,-134.5 192,-134.5"/>
<text text-anchor="middle" x="242.5" y="-141.5" font-family="Helvetica,sans-Serif" font-size="10.00">ORB_SLAM2::Map</text>
</a>
</g>
</g>
<!-- Node4&#45;&gt;Node1 -->
<g id="edge6" class="edge"><title>Node4&#45;&gt;Node1</title>
<path fill="none" stroke="#9a32cd" stroke-dasharray="5,2" d="M237.637,-124.659C229.967,-95.731 215.357,-40.6311 209.759,-19.5212"/>
<polygon fill="#9a32cd" stroke="#9a32cd" points="234.257,-125.57 240.204,-134.339 241.024,-123.776 234.257,-125.57"/>
<text text-anchor="middle" x="245.5" y="-74.5" font-family="Helvetica,sans-Serif" font-size="10.00"> mpMap</text>
</g>
<!-- Node4&#45;&gt;Node2 -->
<g id="edge5" class="edge"><title>Node4&#45;&gt;Node2</title>
<path fill="none" stroke="#9a32cd" stroke-dasharray="5,2" d="M217.156,-129.632C202.078,-121.937 182.447,-112.365 164.5,-105 147.549,-98.0436 128.078,-91.4433 112.59,-86.5098"/>
<polygon fill="#9a32cd" stroke="#9a32cd" points="215.852,-132.897 226.343,-134.375 219.063,-126.677 215.852,-132.897"/>
<text text-anchor="middle" x="206.5" y="-108" font-family="Helvetica,sans-Serif" font-size="10.00"> mpMap</text>
</g>
</g>
</svg>
