<?xml version="1.0" encoding="UTF-8" standalone="no"?>
<!DOCTYPE svg PUBLIC "-//W3C//DTD SVG 1.1//EN"
 "http://www.w3.org/Graphics/SVG/1.1/DTD/svg11.dtd">
<!-- Generated by graphviz version 2.38.0 (20140413.2041)
 -->
<!-- Title: ORB_SLAM2::FrameDrawer Pages: 1 -->
<svg width="1103pt" height="333pt"
 viewBox="0.00 0.00 1103.00 333.00" xmlns="http://www.w3.org/2000/svg" xmlns:xlink="http://www.w3.org/1999/xlink">
<g id="graph0" class="graph" transform="scale(1 1) rotate(0) translate(4 329)">
<title>ORB_SLAM2::FrameDrawer</title>
<polygon fill="white" stroke="none" points="-4,4 -4,-329 1099,-329 1099,4 -4,4"/>
<!-- Node1 -->
<g id="node1" class="node"><title>Node1</title>
<polygon fill="#bfbfbf" stroke="black" points="749,-305.5 749,-324.5 890,-324.5 890,-305.5 749,-305.5"/>
<text text-anchor="middle" x="819.5" y="-312.5" font-family="Helvetica,sans-Serif" font-size="10.00">ORB_SLAM2::FrameDrawer</text>
</g>
<!-- Node2 -->
<g id="node2" class="node"><title>Node2</title>
<g id="a_node2"><a xlink:href="class_o_r_b___s_l_a_m2_1_1_map.html" target="_top" xlink:title="Mapa del mundo, de puntos y keyframes. ">
<polygon fill="white" stroke="black" points="502,-219.5 502,-238.5 603,-238.5 603,-219.5 502,-219.5"/>
<text text-anchor="middle" x="552.5" y="-226.5" font-family="Helvetica,sans-Serif" font-size="10.00">ORB_SLAM2::Map</text>
</a>
</g>
</g>
<!-- Node2&#45;&gt;Node1 -->
<g id="edge1" class="edge"><title>Node2&#45;&gt;Node1</title>
<path fill="none" stroke="#9a32cd" stroke-dasharray="5,2" d="M574.019,-244.641C593.704,-258.816 624.815,-279.103 655,-290 684.71,-300.725 719.075,-306.849 748.61,-310.346"/>
<polygon fill="#9a32cd" stroke="#9a32cd" points="575.952,-241.719 565.822,-238.614 571.805,-247.358 575.952,-241.719"/>
<text text-anchor="middle" x="693" y="-310" font-family="Helvetica,sans-Serif" font-size="10.00"> mpMap</text>
</g>
<!-- Node3 -->
<g id="node3" class="node"><title>Node3</title>
<g id="a_node3"><a xlink:href="class_o_r_b___s_l_a_m2_1_1_map_point.html" target="_top" xlink:title="Cada instancia representa un mapa 3D en el sistema de referencia del mapa. ">
<polygon fill="white" stroke="black" points="972,-219.5 972,-238.5 1095,-238.5 1095,-219.5 972,-219.5"/>
<text text-anchor="middle" x="1033.5" y="-226.5" font-family="Helvetica,sans-Serif" font-size="10.00">ORB_SLAM2::MapPoint</text>
</a>
</g>
</g>
<!-- Node2&#45;&gt;Node3 -->
<g id="edge15" class="edge"><title>Node2&#45;&gt;Node3</title>
<path fill="none" stroke="#9a32cd" stroke-dasharray="5,2" d="M613.424,-238.544C627.056,-240.359 641.5,-242.001 655,-243 787.527,-252.805 821.724,-255.745 954,-243 964.473,-241.991 975.646,-240.347 986.18,-238.534"/>
<polygon fill="#9a32cd" stroke="#9a32cd" points="613.57,-235.031 603.186,-237.131 612.613,-241.966 613.57,-235.031"/>
<text text-anchor="middle" x="819.5" y="-254" font-family="Helvetica,sans-Serif" font-size="10.00"> mpMap</text>
</g>
<!-- Node4 -->
<g id="node4" class="node"><title>Node4</title>
<g id="a_node4"><a xlink:href="class_o_r_b___s_l_a_m2_1_1_key_frame.html" target="_top" xlink:title="Cuadro clave, keyframe. ">
<polygon fill="white" stroke="black" points="756,-126.5 756,-145.5 883,-145.5 883,-126.5 756,-126.5"/>
<text text-anchor="middle" x="819.5" y="-133.5" font-family="Helvetica,sans-Serif" font-size="10.00">ORB_SLAM2::KeyFrame</text>
</a>
</g>
</g>
<!-- Node2&#45;&gt;Node4 -->
<g id="edge9" class="edge"><title>Node2&#45;&gt;Node4</title>
<path fill="none" stroke="#9a32cd" stroke-dasharray="5,2" d="M602.692,-216.935C646.696,-205.916 707.733,-190.013 731,-181 756.964,-170.943 785.338,-155.449 802.527,-145.52"/>
<polygon fill="#9a32cd" stroke="#9a32cd" points="601.6,-213.6 592.744,-219.415 603.294,-220.392 601.6,-213.6"/>
<text text-anchor="middle" x="693" y="-205" font-family="Helvetica,sans-Serif" font-size="10.00"> mpMap</text>
</g>
<!-- Node3&#45;&gt;Node2 -->
<g id="edge2" class="edge"><title>Node3&#45;&gt;Node2</title>
<path fill="none" stroke="#9a32cd" stroke-dasharray="5,2" d="M961.746,-229C863.69,-229 688.918,-229 603.406,-229"/>
<polygon fill="#9a32cd" stroke="#9a32cd" points="961.861,-232.5 971.861,-229 961.861,-225.5 961.861,-232.5"/>
<text text-anchor="middle" x="819.5" y="-232" font-family="Helvetica,sans-Serif" font-size="10.00"> mapPointBuffer</text>
</g>
<!-- Node3&#45;&gt;Node3 -->
<g id="edge3" class="edge"><title>Node3&#45;&gt;Node3</title>
<path fill="none" stroke="#9a32cd" stroke-dasharray="5,2" d="M1014.61,-248.4C1015.87,-253.315 1022.17,-257 1033.5,-257 1051.63,-257 1056.87,-247.565 1049.22,-238.757"/>
<polygon fill="#9a32cd" stroke="#9a32cd" points="1017.98,-249.35 1017.78,-238.757 1011.33,-247.166 1017.98,-249.35"/>
<text text-anchor="middle" x="1033.5" y="-260" font-family="Helvetica,sans-Serif" font-size="10.00"> mpReplaced</text>
</g>
<!-- Node4&#45;&gt;Node2 -->
<g id="edge16" class="edge"><title>Node4&#45;&gt;Node2</title>
<path fill="none" stroke="#9a32cd" stroke-dasharray="5,2" d="M745.72,-144.686C716.845,-149.552 683.737,-156.946 655,-168 620.653,-181.212 584.714,-205.771 566.202,-219.35"/>
<polygon fill="#9a32cd" stroke="#9a32cd" points="746.429,-148.117 755.743,-143.068 745.313,-141.206 746.429,-148.117"/>
<text text-anchor="middle" x="693" y="-171" font-family="Helvetica,sans-Serif" font-size="10.00"> keyFrameBuffer</text>
</g>
<!-- Node4&#45;&gt;Node3 -->
<g id="edge4" class="edge"><title>Node4&#45;&gt;Node3</title>
<path fill="none" stroke="#9a32cd" stroke-dasharray="5,2" d="M851.634,-149.658C895.12,-168.734 972.948,-202.876 1010.73,-219.45"/>
<polygon fill="#9a32cd" stroke="#9a32cd" points="852.953,-146.414 842.389,-145.602 850.141,-152.825 852.953,-146.414"/>
<text text-anchor="middle" x="931" y="-196" font-family="Helvetica,sans-Serif" font-size="10.00"> mpRefKF</text>
</g>
<!-- Node4&#45;&gt;Node4 -->
<g id="edge8" class="edge"><title>Node4&#45;&gt;Node4</title>
<path fill="none" stroke="#9a32cd" stroke-dasharray="5,2" d="M799.131,-155.4C800.491,-160.315 807.281,-164 819.5,-164 839.051,-164 844.702,-154.565 836.454,-145.757"/>
<polygon fill="#9a32cd" stroke="#9a32cd" points="802.507,-156.352 802.546,-145.757 795.908,-154.015 802.507,-156.352"/>
<text text-anchor="middle" x="819.5" y="-167" font-family="Helvetica,sans-Serif" font-size="10.00"> mpParent</text>
</g>
<!-- Node5 -->
<g id="node5" class="node"><title>Node5</title>
<g id="a_node5"><a xlink:href="class_o_r_b___s_l_a_m2_1_1_key_frame_database.html" target="_top" xlink:title="Lista invertida de KeyFrames, accesible por BoW. ">
<polygon fill="white" stroke="black" points="468,-80.5 468,-99.5 637,-99.5 637,-80.5 468,-80.5"/>
<text text-anchor="middle" x="552.5" y="-87.5" font-family="Helvetica,sans-Serif" font-size="10.00">ORB_SLAM2::KeyFrameDatabase</text>
</a>
</g>
</g>
<!-- Node5&#45;&gt;Node4 -->
<g id="edge5" class="edge"><title>Node5&#45;&gt;Node4</title>
<path fill="none" stroke="#9a32cd" stroke-dasharray="5,2" d="M647.289,-98.2487C674.437,-101.404 704.022,-105.587 731,-111 750.827,-114.979 772.702,-121.229 789.62,-126.484"/>
<polygon fill="#9a32cd" stroke="#9a32cd" points="647.343,-94.7326 637.013,-97.0893 646.558,-101.689 647.343,-94.7326"/>
<text text-anchor="middle" x="693" y="-114" font-family="Helvetica,sans-Serif" font-size="10.00"> mpKeyFrameDB</text>
</g>
<!-- Node6 -->
<g id="node6" class="node"><title>Node6</title>
<g id="a_node6"><a xlink:href="class_d_bo_w2_1_1_templated_vocabulary.html" target="_top" xlink:title="Generic Vocabulary. ">
<polygon fill="white" stroke="black" points="243,-107 243,-137 395,-137 395,-107 243,-107"/>
<text text-anchor="start" x="251" y="-125" font-family="Helvetica,sans-Serif" font-size="10.00">DBoW2::TemplatedVocabulary</text>
<text text-anchor="middle" x="319" y="-114" font-family="Helvetica,sans-Serif" font-size="10.00">&lt; TDescriptor, F &gt;</text>
</a>
</g>
</g>
<!-- Node6&#45;&gt;Node4 -->
<g id="edge10" class="edge"><title>Node6&#45;&gt;Node4</title>
<path fill="none" stroke="#9a32cd" stroke-dasharray="5,2" d="M405.198,-124.393C504.732,-127.188 667.057,-131.747 755.759,-134.238"/>
<polygon fill="#9a32cd" stroke="#9a32cd" points="405.265,-120.893 395.17,-124.111 405.068,-127.891 405.265,-120.893"/>
<text text-anchor="middle" x="552.5" y="-134" font-family="Helvetica,sans-Serif" font-size="10.00"> mpORBvocabulary</text>
</g>
<!-- Node6&#45;&gt;Node5 -->
<g id="edge6" class="edge"><title>Node6&#45;&gt;Node5</title>
<path fill="none" stroke="#9a32cd" stroke-dasharray="5,2" d="M405.186,-110.225C430.673,-106.702 458.289,-102.884 482.592,-99.5251"/>
<polygon fill="#9a32cd" stroke="#9a32cd" points="404.588,-106.774 395.161,-111.611 405.547,-113.708 404.588,-106.774"/>
<text text-anchor="middle" x="433" y="-111" font-family="Helvetica,sans-Serif" font-size="10.00"> mpVoc</text>
</g>
<!-- Node7 -->
<g id="node7" class="node"><title>Node7</title>
<g id="a_node7"><a xlink:href="class_d_bo_w2_1_1_general_scoring.html" target="_top" xlink:title="Base class of scoring functions. ">
<polygon fill="white" stroke="black" points="0,-112.5 0,-131.5 124,-131.5 124,-112.5 0,-112.5"/>
<text text-anchor="middle" x="62" y="-119.5" font-family="Helvetica,sans-Serif" font-size="10.00">DBoW2::GeneralScoring</text>
</a>
</g>
</g>
<!-- Node7&#45;&gt;Node6 -->
<g id="edge7" class="edge"><title>Node7&#45;&gt;Node6</title>
<path fill="none" stroke="#9a32cd" stroke-dasharray="5,2" d="M134.347,-122C168.159,-122 208.555,-122 242.841,-122"/>
<polygon fill="#9a32cd" stroke="#9a32cd" points="134.079,-118.5 124.079,-122 134.079,-125.5 134.079,-118.5"/>
<text text-anchor="middle" x="182" y="-125" font-family="Helvetica,sans-Serif" font-size="10.00"> m_scoring_object</text>
</g>
<!-- Node8 -->
<g id="node8" class="node"><title>Node8</title>
<g id="a_node8"><a xlink:href="class_d_bo_w2_1_1_feature_vector.html" target="_top" xlink:title="Vector of nodes with indexes of local features. ">
<polygon fill="white" stroke="black" points="493,-42.5 493,-61.5 612,-61.5 612,-42.5 493,-42.5"/>
<text text-anchor="middle" x="552.5" y="-49.5" font-family="Helvetica,sans-Serif" font-size="10.00">DBoW2::FeatureVector</text>
</a>
</g>
</g>
<!-- Node8&#45;&gt;Node4 -->
<g id="edge11" class="edge"><title>Node8&#45;&gt;Node4</title>
<path fill="none" stroke="#9a32cd" stroke-dasharray="5,2" d="M622.179,-59.166C655.727,-64.0636 696.252,-72.0884 731,-85 759.184,-95.4726 788.757,-114.71 805.288,-126.33"/>
<polygon fill="#9a32cd" stroke="#9a32cd" points="622.394,-55.6621 612.006,-57.7445 621.425,-62.5948 622.394,-55.6621"/>
<text text-anchor="middle" x="693" y="-88" font-family="Helvetica,sans-Serif" font-size="10.00"> mFeatVec</text>
</g>
<!-- Node9 -->
<g id="node9" class="node"><title>Node9</title>
<polygon fill="white" stroke="#bfbfbf" points="254.5,-39 254.5,-69 383.5,-69 383.5,-39 254.5,-39"/>
<text text-anchor="start" x="262.5" y="-57" font-family="Helvetica,sans-Serif" font-size="10.00">std::map&lt; NodeId, std</text>
<text text-anchor="middle" x="319" y="-46" font-family="Helvetica,sans-Serif" font-size="10.00">::vector&lt; unsigned int &gt; &gt;</text>
</g>
<!-- Node9&#45;&gt;Node8 -->
<g id="edge12" class="edge"><title>Node9&#45;&gt;Node8</title>
<path fill="none" stroke="midnightblue" d="M393.769,-53.3627C425.779,-53.0861 462.744,-52.7668 492.84,-52.5068"/>
<polygon fill="midnightblue" stroke="midnightblue" points="393.534,-49.8645 383.565,-53.4508 393.594,-56.8642 393.534,-49.8645"/>
</g>
<!-- Node10 -->
<g id="node10" class="node"><title>Node10</title>
<g id="a_node10"><a xlink:href="class_d_bo_w2_1_1_bow_vector.html" target="_top" xlink:title="Vector of words to represent images. ">
<polygon fill="white" stroke="black" points="500,-3.5 500,-22.5 605,-22.5 605,-3.5 500,-3.5"/>
<text text-anchor="middle" x="552.5" y="-10.5" font-family="Helvetica,sans-Serif" font-size="10.00">DBoW2::BowVector</text>
</a>
</g>
</g>
<!-- Node10&#45;&gt;Node4 -->
<g id="edge13" class="edge"><title>Node10&#45;&gt;Node4</title>
<path fill="none" stroke="#9a32cd" stroke-dasharray="5,2" d="M615.293,-17.7009C650.82,-22.4344 695.333,-31.9343 731,-51 766.861,-70.1694 798.149,-108.397 811.552,-126.313"/>
<polygon fill="#9a32cd" stroke="#9a32cd" points="615.406,-14.1883 605.052,-16.4338 614.547,-21.1353 615.406,-14.1883"/>
<text text-anchor="middle" x="693" y="-54" font-family="Helvetica,sans-Serif" font-size="10.00"> mBowVec</text>
</g>
<!-- Node11 -->
<g id="node11" class="node"><title>Node11</title>
<polygon fill="white" stroke="#bfbfbf" points="240,-0.5 240,-19.5 398,-19.5 398,-0.5 240,-0.5"/>
<text text-anchor="middle" x="319" y="-7.5" font-family="Helvetica,sans-Serif" font-size="10.00">std::map&lt; WordId, WordValue &gt;</text>
</g>
<!-- Node11&#45;&gt;Node10 -->
<g id="edge14" class="edge"><title>Node11&#45;&gt;Node10</title>
<path fill="none" stroke="midnightblue" d="M408.425,-11.1459C439.362,-11.5468 473.061,-11.9835 499.979,-12.3323"/>
<polygon fill="midnightblue" stroke="midnightblue" points="408.097,-7.64145 398.053,-11.0115 408.006,-14.6409 408.097,-7.64145"/>
</g>
</g>
</svg>
