<?xml version="1.0" encoding="UTF-8" standalone="no"?>
<!DOCTYPE svg PUBLIC "-//W3C//DTD SVG 1.1//EN"
 "http://www.w3.org/Graphics/SVG/1.1/DTD/svg11.dtd">
<!-- Generated by graphviz version 2.38.0 (20140413.2041)
 -->
<!-- Title: ORB_SLAM2::LocalMapping Pages: 1 -->
<svg width="1650pt" height="661pt"
 viewBox="0.00 0.00 1650.00 660.78" xmlns="http://www.w3.org/2000/svg" xmlns:xlink="http://www.w3.org/1999/xlink">
<g id="graph0" class="graph" transform="scale(1 1) rotate(0) translate(4 656.783)">
<title>ORB_SLAM2::LocalMapping</title>
<polygon fill="white" stroke="none" points="-4,4 -4,-656.783 1646,-656.783 1646,4 -4,4"/>
<!-- Node1 -->
<g id="node1" class="node"><title>Node1</title>
<polygon fill="#bfbfbf" stroke="black" points="566,-375.283 566,-394.283 708,-394.283 708,-375.283 566,-375.283"/>
<text text-anchor="middle" x="637" y="-382.283" font-family="Helvetica,sans-Serif" font-size="10.00">ORB_SLAM2::LocalMapping</text>
</g>
<!-- Node5 -->
<g id="node5" class="node"><title>Node5</title>
<g id="a_node5"><a xlink:href="class_o_r_b___s_l_a_m2_1_1_loop_closing.html" target="_top" xlink:title="Cierre de bucles. ">
<polygon fill="white" stroke="black" points="823,-355.283 823,-374.283 959,-374.283 959,-355.283 823,-355.283"/>
<text text-anchor="middle" x="891" y="-362.283" font-family="Helvetica,sans-Serif" font-size="10.00">ORB_SLAM2::LoopClosing</text>
</a>
</g>
</g>
<!-- Node1&#45;&gt;Node5 -->
<g id="edge9" class="edge"><title>Node1&#45;&gt;Node5</title>
<path fill="none" stroke="#9a32cd" stroke-dasharray="5,2" d="M671.017,-371.616C687.287,-365.819 707.37,-359.676 726,-356.783 757.549,-351.885 792.883,-352.804 822.652,-355.388"/>
<polygon fill="#9a32cd" stroke="#9a32cd" points="669.6,-368.408 661.427,-375.149 672.02,-374.977 669.6,-368.408"/>
<text text-anchor="middle" x="764" y="-359.783" font-family="Helvetica,sans-Serif" font-size="10.00"> mpLocalMapper</text>
</g>
<!-- Node6 -->
<g id="node6" class="node"><title>Node6</title>
<g id="a_node6"><a xlink:href="class_o_r_b___s_l_a_m2_1_1_tracking.html" target="_top" xlink:title="Objeto único que se ejecuta en su propio Trhead, y se inicia con Run(). ">
<polygon fill="white" stroke="black" points="1325,-301.283 1325,-320.283 1444,-320.283 1444,-301.283 1325,-301.283"/>
<text text-anchor="middle" x="1384.5" y="-308.283" font-family="Helvetica,sans-Serif" font-size="10.00">ORB_SLAM2::Tracking</text>
</a>
</g>
</g>
<!-- Node1&#45;&gt;Node6 -->
<g id="edge20" class="edge"><title>Node1&#45;&gt;Node6</title>
<path fill="none" stroke="#9a32cd" stroke-dasharray="5,2" d="M718.257,-391.433C720.868,-391.565 723.454,-391.682 726,-391.783 759.751,-393.123 768.223,-391.948 802,-391.783 984.673,-390.894 1031.32,-406.854 1213,-387.783 1255.39,-383.334 1268.15,-386.322 1307,-368.783 1333.74,-356.713 1359.87,-333.825 1373.59,-320.699"/>
<polygon fill="#9a32cd" stroke="#9a32cd" points="718.279,-387.929 708.099,-390.864 717.887,-394.918 718.279,-387.929"/>
<text text-anchor="middle" x="1027" y="-399.783" font-family="Helvetica,sans-Serif" font-size="10.00"> mpLocalMapper</text>
</g>
<!-- Node13 -->
<g id="node13" class="node"><title>Node13</title>
<g id="a_node13"><a xlink:href="class_o_r_b___s_l_a_m2_1_1_system.html" target="_top" xlink:title="System se instancia una única vez en main, en la variable SLAM. ">
<polygon fill="white" stroke="black" points="1094.5,-155.283 1094.5,-174.283 1210.5,-174.283 1210.5,-155.283 1094.5,-155.283"/>
<text text-anchor="middle" x="1152.5" y="-162.283" font-family="Helvetica,sans-Serif" font-size="10.00">ORB_SLAM2::System</text>
</a>
</g>
</g>
<!-- Node1&#45;&gt;Node13 -->
<g id="edge34" class="edge"><title>Node1&#45;&gt;Node13</title>
<path fill="none" stroke="#9a32cd" stroke-dasharray="5,2" d="M645.478,-365.548C657.661,-337.024 684.664,-284.156 726,-258.783 792.558,-217.929 1007.53,-250.774 1074,-209.783 1085.96,-202.406 1080.7,-192.145 1092,-183.783 1097.23,-179.913 1103.28,-176.812 1109.47,-174.335"/>
<polygon fill="#9a32cd" stroke="#9a32cd" points="642.085,-364.6 641.536,-375.18 648.563,-367.252 642.085,-364.6"/>
<text text-anchor="middle" x="891" y="-239.783" font-family="Helvetica,sans-Serif" font-size="10.00"> mpLocalMapper</text>
</g>
<!-- Node2 -->
<g id="node2" class="node"><title>Node2</title>
<g id="a_node2"><a xlink:href="class_o_r_b___s_l_a_m2_1_1_key_frame.html" target="_top" xlink:title="Cuadro clave, keyframe. ">
<polygon fill="white" stroke="black" points="281,-418.283 281,-437.283 408,-437.283 408,-418.283 281,-418.283"/>
<text text-anchor="middle" x="344.5" y="-425.283" font-family="Helvetica,sans-Serif" font-size="10.00">ORB_SLAM2::KeyFrame</text>
</a>
</g>
</g>
<!-- Node2&#45;&gt;Node1 -->
<g id="edge1" class="edge"><title>Node2&#45;&gt;Node1</title>
<path fill="none" stroke="#9a32cd" stroke-dasharray="5,2" d="M397.618,-416.103C407.038,-414.184 416.792,-412.323 426,-410.783 472.379,-403.029 524.879,-396.529 565.784,-391.968"/>
<polygon fill="#9a32cd" stroke="#9a32cd" points="396.645,-412.73 387.569,-418.195 398.072,-419.583 396.645,-412.73"/>
<text text-anchor="middle" x="487" y="-413.783" font-family="Helvetica,sans-Serif" font-size="10.00"> mpCurrentKeyFrame</text>
</g>
<!-- Node2&#45;&gt;Node2 -->
<g id="edge3" class="edge"><title>Node2&#45;&gt;Node2</title>
<path fill="none" stroke="#9a32cd" stroke-dasharray="5,2" d="M322.551,-446.812C323.748,-451.911 331.064,-455.783 344.5,-455.783 365.473,-455.783 371.535,-446.348 362.687,-437.54"/>
<polygon fill="#9a32cd" stroke="#9a32cd" points="325.796,-448.123 326.313,-437.54 319.31,-445.491 325.796,-448.123"/>
<text text-anchor="middle" x="344.5" y="-458.783" font-family="Helvetica,sans-Serif" font-size="10.00"> mpParent</text>
</g>
<!-- Node2&#45;&gt;Node5 -->
<g id="edge7" class="edge"><title>Node2&#45;&gt;Node5</title>
<path fill="none" stroke="#9a32cd" stroke-dasharray="5,2" d="M418.48,-427.995C509.336,-426.9 668.802,-420.499 802,-391.783 822.777,-387.304 845.718,-380.191 862.966,-374.391"/>
<polygon fill="#9a32cd" stroke="#9a32cd" points="418.25,-424.497 408.286,-428.099 418.322,-431.497 418.25,-424.497"/>
<text text-anchor="middle" x="637" y="-435.783" font-family="Helvetica,sans-Serif" font-size="10.00"> mpMatchedKF</text>
<text text-anchor="middle" x="637" y="-424.783" font-family="Helvetica,sans-Serif" font-size="10.00">mpCurrentKF</text>
</g>
<!-- Node2&#45;&gt;Node6 -->
<g id="edge14" class="edge"><title>Node2&#45;&gt;Node6</title>
<path fill="none" stroke="#9a32cd" stroke-dasharray="5,2" d="M355.089,-446.203C368.08,-469.36 393.438,-508.742 426,-530.783 506.486,-585.264 538.809,-591.783 636,-591.783 636,-591.783 636,-591.783 1153.5,-591.783 1222.01,-591.783 1254.22,-621.461 1307,-577.783 1348.7,-543.273 1376.09,-363.955 1382.2,-320.348"/>
<polygon fill="#9a32cd" stroke="#9a32cd" points="358.141,-444.488 350.293,-437.37 351.989,-447.828 358.141,-444.488"/>
<text text-anchor="middle" x="891" y="-605.783" font-family="Helvetica,sans-Serif" font-size="10.00"> mpLastKeyFrame</text>
<text text-anchor="middle" x="891" y="-594.783" font-family="Helvetica,sans-Serif" font-size="10.00">mpReferenceKF</text>
</g>
<!-- Node10 -->
<g id="node10" class="node"><title>Node10</title>
<g id="a_node10"><a xlink:href="class_o_r_b___s_l_a_m2_1_1_frame.html" target="_top" xlink:title="Frame representa un cuadro, una imagen, con los puntos singulares detectados. ">
<polygon fill="white" stroke="black" points="1097.5,-544.283 1097.5,-563.283 1207.5,-563.283 1207.5,-544.283 1097.5,-544.283"/>
<text text-anchor="middle" x="1152.5" y="-551.283" font-family="Helvetica,sans-Serif" font-size="10.00">ORB_SLAM2::Frame</text>
</a>
</g>
</g>
<!-- Node2&#45;&gt;Node10 -->
<g id="edge22" class="edge"><title>Node2&#45;&gt;Node10</title>
<path fill="none" stroke="#9a32cd" stroke-dasharray="5,2" d="M359.657,-445.32C374.304,-462.049 398.817,-486.342 426,-497.783 653.687,-593.618 733.617,-524.876 980,-542.783 1019.28,-545.638 1063.65,-548.473 1097.42,-550.55"/>
<polygon fill="#9a32cd" stroke="#9a32cd" points="362.064,-442.746 352.935,-437.37 356.719,-447.266 362.064,-442.746"/>
<text text-anchor="middle" x="764" y="-550.783" font-family="Helvetica,sans-Serif" font-size="10.00"> mpReferenceKF</text>
</g>
<!-- Node3 -->
<g id="node3" class="node"><title>Node3</title>
<g id="a_node3"><a xlink:href="class_o_r_b___s_l_a_m2_1_1_key_frame_database.html" target="_top" xlink:title="Lista invertida de KeyFrames, accesible por BoW. ">
<polygon fill="white" stroke="black" points="0,-468.283 0,-487.283 169,-487.283 169,-468.283 0,-468.283"/>
<text text-anchor="middle" x="84.5" y="-475.283" font-family="Helvetica,sans-Serif" font-size="10.00">ORB_SLAM2::KeyFrameDatabase</text>
</a>
</g>
</g>
<!-- Node3&#45;&gt;Node2 -->
<g id="edge2" class="edge"><title>Node3&#45;&gt;Node2</title>
<path fill="none" stroke="#9a32cd" stroke-dasharray="5,2" d="M144.601,-466.33C189.832,-457.564 251.489,-445.615 294.109,-437.355"/>
<polygon fill="#9a32cd" stroke="#9a32cd" points="143.787,-462.922 134.635,-468.261 145.118,-469.794 143.787,-462.922"/>
<text text-anchor="middle" x="225" y="-459.783" font-family="Helvetica,sans-Serif" font-size="10.00"> mpKeyFrameDB</text>
</g>
<!-- Node3&#45;&gt;Node5 -->
<g id="edge6" class="edge"><title>Node3&#45;&gt;Node5</title>
<path fill="none" stroke="#9a32cd" stroke-dasharray="5,2" d="M179.278,-483.677C302.394,-489.064 524.428,-490.65 708,-447.783 773.607,-432.463 844.297,-392.697 874.69,-374.334"/>
<polygon fill="#9a32cd" stroke="#9a32cd" points="179.281,-480.174 169.132,-483.215 178.963,-487.167 179.281,-480.174"/>
<text text-anchor="middle" x="487" y="-485.783" font-family="Helvetica,sans-Serif" font-size="10.00"> mpKeyFrameDB</text>
</g>
<!-- Node3&#45;&gt;Node6 -->
<g id="edge13" class="edge"><title>Node3&#45;&gt;Node6</title>
<path fill="none" stroke="#9a32cd" stroke-dasharray="5,2" d="M99.7354,-495.366C135.731,-537.693 235.254,-641.783 343.5,-641.783 343.5,-641.783 343.5,-641.783 1153.5,-641.783 1223.89,-641.783 1257.04,-652.371 1307,-602.783 1348.94,-561.158 1376.35,-366.298 1382.29,-320.457"/>
<polygon fill="#9a32cd" stroke="#9a32cd" points="102.311,-492.989 93.2183,-487.551 96.9351,-497.473 102.311,-492.989"/>
<text text-anchor="middle" x="764" y="-644.783" font-family="Helvetica,sans-Serif" font-size="10.00"> mpKeyFrameDB</text>
</g>
<!-- Node3&#45;&gt;Node13 -->
<g id="edge30" class="edge"><title>Node3&#45;&gt;Node13</title>
<path fill="none" stroke="#9a32cd" stroke-dasharray="5,2" d="M101.159,-460.852C120.059,-441.142 153.497,-408.521 187,-386.783 225.386,-361.877 236.942,-357.14 281,-344.783 396.181,-312.48 432.554,-342.125 548,-310.783 631.015,-288.246 643.4,-258.799 726,-234.783 876.496,-191.028 919.382,-203.414 1074,-177.783 1080.73,-176.668 1087.79,-175.492 1094.79,-174.322"/>
<polygon fill="#9a32cd" stroke="#9a32cd" points="98.5374,-458.53 94.212,-468.202 103.625,-463.339 98.5374,-458.53"/>
<text text-anchor="middle" x="637" y="-307.783" font-family="Helvetica,sans-Serif" font-size="10.00"> mpKeyFrameDatabase</text>
</g>
<!-- Node4 -->
<g id="node4" class="node"><title>Node4</title>
<g id="a_node4"><a xlink:href="class_o_r_b___s_l_a_m2_1_1_map.html" target="_top" xlink:title="Mapa del mundo, de puntos y keyframes. ">
<polygon fill="white" stroke="black" points="34,-201.283 34,-220.283 135,-220.283 135,-201.283 34,-201.283"/>
<text text-anchor="middle" x="84.5" y="-208.283" font-family="Helvetica,sans-Serif" font-size="10.00">ORB_SLAM2::Map</text>
</a>
</g>
</g>
<!-- Node4&#45;&gt;Node1 -->
<g id="edge41" class="edge"><title>Node4&#45;&gt;Node1</title>
<path fill="none" stroke="#9a32cd" stroke-dasharray="5,2" d="M98.7171,-228.527C116.269,-250.684 149.459,-287.96 187,-306.783 310.417,-368.666 474.202,-382.427 565.979,-384.916"/>
<polygon fill="#9a32cd" stroke="#9a32cd" points="101.263,-226.096 92.3825,-220.317 95.7206,-230.373 101.263,-226.096"/>
<text text-anchor="middle" x="344.5" y="-372.783" font-family="Helvetica,sans-Serif" font-size="10.00"> mpMap</text>
</g>
<!-- Node4&#45;&gt;Node2 -->
<g id="edge4" class="edge"><title>Node4&#45;&gt;Node2</title>
<path fill="none" stroke="#9a32cd" stroke-dasharray="5,2" d="M90.7118,-230.061C101.808,-267.267 131.412,-348.983 187,-390.783 213.889,-411.003 250.139,-420.385 280.979,-424.653"/>
<polygon fill="#9a32cd" stroke="#9a32cd" points="94.0715,-229.079 87.9596,-220.425 87.3406,-231.002 94.0715,-229.079"/>
<text text-anchor="middle" x="225" y="-423.783" font-family="Helvetica,sans-Serif" font-size="10.00"> mpMap</text>
</g>
<!-- Node4&#45;&gt;Node5 -->
<g id="edge8" class="edge"><title>Node4&#45;&gt;Node5</title>
<path fill="none" stroke="#9a32cd" stroke-dasharray="5,2" d="M106.752,-226.232C126.517,-239.771 157.304,-258.802 187,-268.783 448.273,-356.6 529.651,-306.338 802,-348.783 814.274,-350.696 827.471,-352.976 839.815,-355.207"/>
<polygon fill="#9a32cd" stroke="#9a32cd" points="108.689,-223.316 98.4892,-220.45 104.676,-229.051 108.689,-223.316"/>
<text text-anchor="middle" x="487" y="-329.783" font-family="Helvetica,sans-Serif" font-size="10.00"> mpMap</text>
</g>
<!-- Node4&#45;&gt;Node6 -->
<g id="edge19" class="edge"><title>Node4&#45;&gt;Node6</title>
<path fill="none" stroke="#9a32cd" stroke-dasharray="5,2" d="M145.746,-217.431C289.752,-233.091 665.374,-272.572 980,-293.783 1102.6,-302.048 1246.44,-306.964 1324.98,-309.243"/>
<polygon fill="#9a32cd" stroke="#9a32cd" points="145.694,-213.905 135.374,-216.301 144.936,-220.864 145.694,-213.905"/>
<text text-anchor="middle" x="764" y="-282.783" font-family="Helvetica,sans-Serif" font-size="10.00"> mpMap</text>
</g>
<!-- Node7 -->
<g id="node7" class="node"><title>Node7</title>
<g id="a_node7"><a xlink:href="class_o_r_b___s_l_a_m2_1_1_frame_drawer.html" target="_top" xlink:title="Clase de instancia única que se ocupa de mostrar la imagen de la cámara, con marcas verdes sobre los ...">
<polygon fill="white" stroke="black" points="820.5,-29.2832 820.5,-48.2832 961.5,-48.2832 961.5,-29.2832 820.5,-29.2832"/>
<text text-anchor="middle" x="891" y="-36.2832" font-family="Helvetica,sans-Serif" font-size="10.00">ORB_SLAM2::FrameDrawer</text>
</a>
</g>
</g>
<!-- Node4&#45;&gt;Node7 -->
<g id="edge12" class="edge"><title>Node4&#45;&gt;Node7</title>
<path fill="none" stroke="#9a32cd" stroke-dasharray="5,2" d="M94.0042,-191.722C108.391,-162.001 140.569,-105.376 187,-79.7832 408.363,42.2343 730.701,-6.09301 846.533,-29.2037"/>
<polygon fill="#9a32cd" stroke="#9a32cd" points="90.7232,-190.476 89.6632,-201.018 97.0657,-193.438 90.7232,-190.476"/>
<text text-anchor="middle" x="487" y="-10.7832" font-family="Helvetica,sans-Serif" font-size="10.00"> mpMap</text>
</g>
<!-- Node9 -->
<g id="node9" class="node"><title>Node9</title>
<g id="a_node9"><a xlink:href="class_o_r_b___s_l_a_m2_1_1_map_drawer.html" target="_top" xlink:title="Esta clase contiene los métodos para dibujar en pangolin. ">
<polygon fill="white" stroke="black" points="825,-151.283 825,-170.283 957,-170.283 957,-151.283 825,-151.283"/>
<text text-anchor="middle" x="891" y="-158.283" font-family="Helvetica,sans-Serif" font-size="10.00">ORB_SLAM2::MapDrawer</text>
</a>
</g>
</g>
<!-- Node4&#45;&gt;Node9 -->
<g id="edge18" class="edge"><title>Node4&#45;&gt;Node9</title>
<path fill="none" stroke="#9a32cd" stroke-dasharray="5,2" d="M145.423,-207.059C292.809,-197.899 672.05,-174.329 824.804,-164.835"/>
<polygon fill="#9a32cd" stroke="#9a32cd" points="144.982,-203.58 135.218,-207.693 145.416,-210.566 144.982,-203.58"/>
<text text-anchor="middle" x="487" y="-191.783" font-family="Helvetica,sans-Serif" font-size="10.00"> mpMap</text>
</g>
<!-- Node4&#45;&gt;Node13 -->
<g id="edge33" class="edge"><title>Node4&#45;&gt;Node13</title>
<path fill="none" stroke="#9a32cd" stroke-dasharray="5,2" d="M145.59,-200.28C287.516,-176.735 654.681,-123.201 962,-141.783 1006.66,-144.483 1056.91,-150.732 1094.45,-156.035"/>
<polygon fill="#9a32cd" stroke="#9a32cd" points="144.648,-196.889 135.362,-201.99 145.803,-203.793 144.648,-196.889"/>
<text text-anchor="middle" x="637" y="-150.783" font-family="Helvetica,sans-Serif" font-size="10.00"> mpMap</text>
</g>
<!-- Node14 -->
<g id="node14" class="node"><title>Node14</title>
<g id="a_node14"><a xlink:href="class_o_r_b___s_l_a_m2_1_1_serializer.html" target="_top" xlink:title="Clase encargada de la serialización (guarda y carga) del mapa. ">
<polygon fill="white" stroke="black" points="426,-77.2832 426,-96.2832 548,-96.2832 548,-77.2832 426,-77.2832"/>
<text text-anchor="middle" x="487" y="-84.2832" font-family="Helvetica,sans-Serif" font-size="10.00">ORB_SLAM2::Serializer</text>
</a>
</g>
</g>
<!-- Node4&#45;&gt;Node14 -->
<g id="edge36" class="edge"><title>Node4&#45;&gt;Node14</title>
<path fill="none" stroke="#9a32cd" stroke-dasharray="5,2" d="M96.7982,-192.479C113.209,-167.764 146.184,-124.646 187,-105.783 263.608,-70.3796 363.214,-72.2207 425.894,-78.3172"/>
<polygon fill="#9a32cd" stroke="#9a32cd" points="93.8077,-190.659 91.3381,-200.962 99.6937,-194.448 93.8077,-190.659"/>
<text text-anchor="middle" x="225" y="-108.783" font-family="Helvetica,sans-Serif" font-size="10.00"> mapa</text>
</g>
<!-- Node5&#45;&gt;Node1 -->
<g id="edge5" class="edge"><title>Node5&#45;&gt;Node1</title>
<path fill="none" stroke="#9a32cd" stroke-dasharray="5,2" d="M812.632,-370.924C779.326,-373.567 740.663,-376.635 708.196,-379.212"/>
<polygon fill="#9a32cd" stroke="#9a32cd" points="813.092,-374.398 822.784,-370.118 812.539,-367.42 813.092,-374.398"/>
<text text-anchor="middle" x="764" y="-379.783" font-family="Helvetica,sans-Serif" font-size="10.00"> mpLoopCloser</text>
</g>
<!-- Node5&#45;&gt;Node6 -->
<g id="edge15" class="edge"><title>Node5&#45;&gt;Node6</title>
<path fill="none" stroke="#9a32cd" stroke-dasharray="5,2" d="M969.255,-356.295C1067.88,-345.46 1236.32,-326.954 1324.98,-317.213"/>
<polygon fill="#9a32cd" stroke="#9a32cd" points="968.612,-352.845 959.054,-357.416 969.376,-359.803 968.612,-352.845"/>
<text text-anchor="middle" x="1152.5" y="-344.783" font-family="Helvetica,sans-Serif" font-size="10.00"> mpLoopClosing</text>
</g>
<!-- Node5&#45;&gt;Node13 -->
<g id="edge31" class="edge"><title>Node5&#45;&gt;Node13</title>
<path fill="none" stroke="#9a32cd" stroke-dasharray="5,2" d="M915.489,-349.588C962.082,-319.276 1062.7,-252.903 1074,-237.783 1089.14,-217.517 1074,-201.558 1092,-183.783 1095.94,-179.898 1100.66,-176.806 1105.71,-174.346"/>
<polygon fill="#9a32cd" stroke="#9a32cd" points="913.414,-346.762 906.933,-355.144 917.226,-352.633 913.414,-346.762"/>
<text text-anchor="middle" x="1027" y="-307.783" font-family="Helvetica,sans-Serif" font-size="10.00"> mpLoopCloser</text>
</g>
<!-- Node6&#45;&gt;Node1 -->
<g id="edge42" class="edge"><title>Node6&#45;&gt;Node1</title>
<path fill="none" stroke="#9a32cd" stroke-dasharray="5,2" d="M1371.81,-328.634C1358.5,-347.381 1334.93,-376.134 1307,-390.783 1269.53,-410.432 1255.09,-401.531 1213,-405.783 997.652,-427.54 940.648,-433.614 726,-405.783 707.464,-403.38 687.146,-398.673 670.707,-394.324"/>
<polygon fill="#9a32cd" stroke="#9a32cd" points="1374.73,-330.567 1377.5,-320.34 1368.95,-326.608 1374.73,-330.567"/>
<text text-anchor="middle" x="1027" y="-426.783" font-family="Helvetica,sans-Serif" font-size="10.00"> mpTracker</text>
</g>
<!-- Node6&#45;&gt;Node5 -->
<g id="edge10" class="edge"><title>Node6&#45;&gt;Node5</title>
<path fill="none" stroke="#9a32cd" stroke-dasharray="5,2" d="M1359.53,-325.533C1344.92,-333.706 1325.55,-343.132 1307,-347.783 1187.4,-377.778 1042.41,-375.286 959.316,-370.325"/>
<polygon fill="#9a32cd" stroke="#9a32cd" points="1361.49,-328.445 1368.39,-320.406 1357.98,-322.387 1361.49,-328.445"/>
<text text-anchor="middle" x="1152.5" y="-375.783" font-family="Helvetica,sans-Serif" font-size="10.00"> mpTracker</text>
</g>
<!-- Node12 -->
<g id="node12" class="node"><title>Node12</title>
<g id="a_node12"><a xlink:href="class_o_r_b___s_l_a_m2_1_1_viewer.html" target="_top" xlink:title="Viewer representa la interfaz de usuario. ">
<polygon fill="white" stroke="black" points="1530,-102.283 1530,-121.283 1642,-121.283 1642,-102.283 1530,-102.283"/>
<text text-anchor="middle" x="1586" y="-109.283" font-family="Helvetica,sans-Serif" font-size="10.00">ORB_SLAM2::Viewer</text>
</a>
</g>
</g>
<!-- Node6&#45;&gt;Node12 -->
<g id="edge27" class="edge"><title>Node6&#45;&gt;Node12</title>
<path fill="none" stroke="#9a32cd" stroke-dasharray="5,2" d="M1423.4,-297.481C1450.63,-286.434 1486.81,-268.52 1512,-243.783 1549.93,-206.534 1573.61,-145.358 1581.79,-121.624"/>
<polygon fill="#9a32cd" stroke="#9a32cd" points="1421.85,-294.331 1413.82,-301.239 1424.4,-300.847 1421.85,-294.331"/>
<text text-anchor="middle" x="1487" y="-280.783" font-family="Helvetica,sans-Serif" font-size="10.00"> mpTracker</text>
</g>
<!-- Node6&#45;&gt;Node13 -->
<g id="edge37" class="edge"><title>Node6&#45;&gt;Node13</title>
<path fill="none" stroke="#9a32cd" stroke-dasharray="5,2" d="M1379.36,-291.058C1371.5,-259.14 1351.09,-197.006 1307,-169.783 1274.33,-149.612 1229.85,-150.552 1197.17,-155.234"/>
<polygon fill="#9a32cd" stroke="#9a32cd" points="1375.99,-292.016 1381.64,-300.981 1382.81,-290.451 1375.99,-292.016"/>
<text text-anchor="middle" x="1269" y="-172.783" font-family="Helvetica,sans-Serif" font-size="10.00"> mpTracker</text>
</g>
<!-- Node7&#45;&gt;Node6 -->
<g id="edge11" class="edge"><title>Node7&#45;&gt;Node6</title>
<path fill="none" stroke="#9a32cd" stroke-dasharray="5,2" d="M971.744,-34.8588C1003.87,-34.9684 1041.04,-37.2546 1074,-44.7832 1184.38,-69.999 1226.04,-68.6316 1307,-147.783 1353.72,-193.457 1375.14,-273.197 1381.44,-300.937"/>
<polygon fill="#9a32cd" stroke="#9a32cd" points="971.491,-31.3595 961.504,-34.8957 971.516,-38.3595 971.491,-31.3595"/>
<text text-anchor="middle" x="1152.5" y="-83.7832" font-family="Helvetica,sans-Serif" font-size="10.00"> mpFrameDrawer</text>
</g>
<!-- Node7&#45;&gt;Node12 -->
<g id="edge25" class="edge"><title>Node7&#45;&gt;Node12</title>
<path fill="none" stroke="#9a32cd" stroke-dasharray="5,2" d="M971.788,-29.1206C1080.3,-18.379 1279.72,-7.20057 1444,-45.7832 1492.94,-57.2776 1545.2,-86.9101 1570.12,-102.256"/>
<polygon fill="#9a32cd" stroke="#9a32cd" points="971.171,-25.6653 961.575,-30.1571 971.877,-32.6295 971.171,-25.6653"/>
<text text-anchor="middle" x="1269" y="-27.7832" font-family="Helvetica,sans-Serif" font-size="10.00"> mpFrameDrawer</text>
</g>
<!-- Node7&#45;&gt;Node13 -->
<g id="edge29" class="edge"><title>Node7&#45;&gt;Node13</title>
<path fill="none" stroke="#9a32cd" stroke-dasharray="5,2" d="M971.864,-41.8549C1013.35,-45.0465 1058.55,-51.5475 1074,-64.7832 1094.82,-82.6179 1075.81,-101.66 1092,-123.783 1102.08,-137.551 1118.24,-148.262 1131.18,-155.278"/>
<polygon fill="#9a32cd" stroke="#9a32cd" points="971.92,-38.3501 961.696,-41.131 971.423,-45.3324 971.92,-38.3501"/>
<text text-anchor="middle" x="1027" y="-67.7832" font-family="Helvetica,sans-Serif" font-size="10.00"> mpFrameDrawer</text>
</g>
<!-- Node8 -->
<g id="node8" class="node"><title>Node8</title>
<g id="a_node8"><a xlink:href="class_o_r_b___s_l_a_m2_1_1_initializer.html" target="_top" xlink:title="Inicializador de mapa en modo monocular. ">
<polygon fill="white" stroke="black" points="1092,-193.283 1092,-212.283 1213,-212.283 1213,-193.283 1092,-193.283"/>
<text text-anchor="middle" x="1152.5" y="-200.283" font-family="Helvetica,sans-Serif" font-size="10.00">ORB_SLAM2::Initializer</text>
</a>
</g>
</g>
<!-- Node8&#45;&gt;Node6 -->
<g id="edge16" class="edge"><title>Node8&#45;&gt;Node6</title>
<path fill="none" stroke="#9a32cd" stroke-dasharray="5,2" d="M1219.53,-214.235C1253.83,-220.894 1291.71,-229.57 1307,-237.783 1337.24,-254.033 1364.12,-285.494 1376.41,-301.274"/>
<polygon fill="#9a32cd" stroke="#9a32cd" points="1219.98,-210.758 1209.5,-212.324 1218.67,-217.634 1219.98,-210.758"/>
<text text-anchor="middle" x="1269" y="-240.783" font-family="Helvetica,sans-Serif" font-size="10.00"> mpInitializer</text>
</g>
<!-- Node9&#45;&gt;Node6 -->
<g id="edge17" class="edge"><title>Node9&#45;&gt;Node6</title>
<path fill="none" stroke="#9a32cd" stroke-dasharray="5,2" d="M931.381,-173.375C971.604,-186.099 1035.93,-206.07 1092,-221.783 1186.97,-248.4 1213.83,-244.418 1307,-276.783 1327.04,-283.746 1349.11,-293.826 1364.37,-301.202"/>
<polygon fill="#9a32cd" stroke="#9a32cd" points="932.284,-169.99 921.694,-170.303 930.168,-176.662 932.284,-169.99"/>
<text text-anchor="middle" x="1152.5" y="-251.783" font-family="Helvetica,sans-Serif" font-size="10.00"> mpMapDrawer</text>
</g>
<!-- Node9&#45;&gt;Node12 -->
<g id="edge26" class="edge"><title>Node9&#45;&gt;Node12</title>
<path fill="none" stroke="#9a32cd" stroke-dasharray="5,2" d="M927.302,-147.595C964.758,-133.03 1025.15,-107.887 1074,-79.7832 1082.55,-74.8618 1082.61,-69.8194 1092,-66.7832 1262.91,-11.5174 1483.35,-76.4837 1558.53,-102.201"/>
<polygon fill="#9a32cd" stroke="#9a32cd" points="925.909,-144.381 917.835,-151.241 928.424,-150.914 925.909,-144.381"/>
<text text-anchor="middle" x="1269" y="-50.7832" font-family="Helvetica,sans-Serif" font-size="10.00"> mpMapDrawer</text>
</g>
<!-- Node9&#45;&gt;Node13 -->
<g id="edge32" class="edge"><title>Node9&#45;&gt;Node13</title>
<path fill="none" stroke="#9a32cd" stroke-dasharray="5,2" d="M967.247,-161.943C1007.75,-162.567 1056.92,-163.325 1094.28,-163.901"/>
<polygon fill="#9a32cd" stroke="#9a32cd" points="967.201,-158.442 957.148,-161.787 967.093,-165.441 967.201,-158.442"/>
<text text-anchor="middle" x="1027" y="-165.783" font-family="Helvetica,sans-Serif" font-size="10.00"> mpMapDrawer</text>
</g>
<!-- Node10&#45;&gt;Node6 -->
<g id="edge21" class="edge"><title>Node10&#45;&gt;Node6</title>
<path fill="none" stroke="#9a32cd" stroke-dasharray="5,2" d="M1217.8,-544.93C1253.58,-538.826 1293.55,-529.669 1307,-517.783 1369.02,-462.992 1380.84,-353.295 1383.02,-320.352"/>
<polygon fill="#9a32cd" stroke="#9a32cd" points="1217.15,-541.491 1207.85,-546.57 1218.29,-548.397 1217.15,-541.491"/>
<text text-anchor="middle" x="1269" y="-566.783" font-family="Helvetica,sans-Serif" font-size="10.00"> mLastFrame</text>
<text text-anchor="middle" x="1269" y="-555.783" font-family="Helvetica,sans-Serif" font-size="10.00">mCurrentFrame</text>
<text text-anchor="middle" x="1269" y="-544.783" font-family="Helvetica,sans-Serif" font-size="10.00">mInitialFrame</text>
</g>
<!-- Node11 -->
<g id="node11" class="node"><title>Node11</title>
<g id="a_node11"><a xlink:href="class_o_r_b___s_l_a_m2_1_1_o_r_bextractor.html" target="_top" xlink:title="Empaqueta todos los métodos de detección de puntos singulares y extracción de descriptores. ">
<polygon fill="white" stroke="black" points="820,-492.283 820,-511.283 962,-511.283 962,-492.283 820,-492.283"/>
<text text-anchor="middle" x="891" y="-499.283" font-family="Helvetica,sans-Serif" font-size="10.00">ORB_SLAM2::ORBextractor</text>
</a>
</g>
</g>
<!-- Node11&#45;&gt;Node6 -->
<g id="edge40" class="edge"><title>Node11&#45;&gt;Node6</title>
<path fill="none" stroke="#9a32cd" stroke-dasharray="5,2" d="M972.637,-505.329C1077.78,-508.387 1254.48,-507.688 1307,-471.783 1360.9,-434.931 1377.92,-349.454 1382.24,-320.542"/>
<polygon fill="#9a32cd" stroke="#9a32cd" points="972.482,-501.823 962.379,-505.012 972.266,-508.819 972.482,-501.823"/>
<text text-anchor="middle" x="1152.5" y="-519.783" font-family="Helvetica,sans-Serif" font-size="10.00"> mpORBextractorLeft</text>
<text text-anchor="middle" x="1152.5" y="-508.783" font-family="Helvetica,sans-Serif" font-size="10.00">mpIniORBextractor</text>
</g>
<!-- Node11&#45;&gt;Node10 -->
<g id="edge23" class="edge"><title>Node11&#45;&gt;Node10</title>
<path fill="none" stroke="#9a32cd" stroke-dasharray="5,2" d="M971.275,-512.853C1003.33,-517.847 1040.58,-524.311 1074,-531.783 1089.56,-535.263 1106.63,-540.006 1120.78,-544.197"/>
<polygon fill="#9a32cd" stroke="#9a32cd" points="971.477,-509.343 961.061,-511.284 970.414,-516.262 971.477,-509.343"/>
<text text-anchor="middle" x="1027" y="-534.783" font-family="Helvetica,sans-Serif" font-size="10.00"> mpORBextractorLeft</text>
</g>
<!-- Node12&#45;&gt;Node6 -->
<g id="edge24" class="edge"><title>Node12&#45;&gt;Node6</title>
<path fill="none" stroke="#9a32cd" stroke-dasharray="5,2" d="M1568.28,-128.463C1528.04,-168.603 1426.79,-269.596 1395.12,-301.185"/>
<polygon fill="#9a32cd" stroke="#9a32cd" points="1570.87,-130.825 1575.47,-121.285 1565.92,-125.869 1570.87,-130.825"/>
<text text-anchor="middle" x="1487" y="-231.783" font-family="Helvetica,sans-Serif" font-size="10.00"> mpViewer</text>
</g>
<!-- Node12&#45;&gt;Node13 -->
<g id="edge38" class="edge"><title>Node12&#45;&gt;Node13</title>
<path fill="none" stroke="#9a32cd" stroke-dasharray="5,2" d="M1519.77,-117.126C1448.59,-123.343 1331.35,-134.713 1231,-149.783 1220.7,-151.33 1209.69,-153.28 1199.29,-155.258"/>
<polygon fill="#9a32cd" stroke="#9a32cd" points="1520.27,-120.596 1529.93,-116.246 1519.67,-113.622 1520.27,-120.596"/>
<text text-anchor="middle" x="1384.5" y="-139.783" font-family="Helvetica,sans-Serif" font-size="10.00"> mpViewer</text>
</g>
<!-- Node13&#45;&gt;Node6 -->
<g id="edge39" class="edge"><title>Node13&#45;&gt;Node6</title>
<path fill="none" stroke="#9a32cd" stroke-dasharray="5,2" d="M1210.25,-176.431C1250.5,-185.034 1298.77,-196.184 1307,-201.783 1345.22,-227.803 1370.41,-279.695 1379.61,-301.153"/>
<polygon fill="#9a32cd" stroke="#9a32cd" points="1210.73,-172.954 1200.22,-174.303 1209.28,-179.802 1210.73,-172.954"/>
<text text-anchor="middle" x="1269" y="-204.783" font-family="Helvetica,sans-Serif" font-size="10.00"> mpSystem</text>
</g>
<!-- Node13&#45;&gt;Node12 -->
<g id="edge28" class="edge"><title>Node13&#45;&gt;Node12</title>
<path fill="none" stroke="#9a32cd" stroke-dasharray="5,2" d="M1176.29,-149.683C1191.28,-140.385 1211.63,-128.92 1231,-121.783 1331.24,-84.8522 1458.48,-93.4457 1529.9,-102.78"/>
<polygon fill="#9a32cd" stroke="#9a32cd" points="1174.28,-146.817 1167.71,-155.134 1178.03,-152.726 1174.28,-146.817"/>
<text text-anchor="middle" x="1384.5" y="-102.783" font-family="Helvetica,sans-Serif" font-size="10.00"> mpSystem</text>
</g>
<!-- Node14&#45;&gt;Node13 -->
<g id="edge35" class="edge"><title>Node14&#45;&gt;Node13</title>
<path fill="none" stroke="#9a32cd" stroke-dasharray="5,2" d="M558.245,-83.3642C692.674,-77.7127 981.215,-70.1333 1074,-103.783 1103.3,-114.408 1130.11,-140.757 1143.16,-155.102"/>
<polygon fill="#9a32cd" stroke="#9a32cd" points="557.899,-79.8757 548.058,-83.8012 558.199,-86.8693 557.899,-79.8757"/>
<text text-anchor="middle" x="764" y="-81.7832" font-family="Helvetica,sans-Serif" font-size="10.00"> serializer</text>
</g>
</g>
</svg>
