<?xml version="1.0" encoding="UTF-8" standalone="no"?>
<!DOCTYPE svg PUBLIC "-//W3C//DTD SVG 1.1//EN"
 "http://www.w3.org/Graphics/SVG/1.1/DTD/svg11.dtd">
<!-- Generated by graphviz version 2.40.1 (20161225.0304)
 -->
<!-- Title: ORB_SLAM2::KeyFrame Pages: 1 -->
<svg width="884pt" height="183pt"
 viewBox="0.00 0.00 884.00 183.00" xmlns="http://www.w3.org/2000/svg" xmlns:xlink="http://www.w3.org/1999/xlink">
<g id="graph0" class="graph" transform="scale(1 1) rotate(0) translate(4 179)">
<title>ORB_SLAM2::KeyFrame</title>
<polygon fill="#ffffff" stroke="transparent" points="-4,4 -4,-179 880,-179 880,4 -4,4"/>
<!-- Node2 -->
<g id="node1" class="node">
<title>Node2</title>
<polygon fill="#bfbfbf" stroke="#000000" points="749,-80.5 749,-99.5 876,-99.5 876,-80.5 749,-80.5"/>
<text text-anchor="middle" x="812.5" y="-87.5" font-family="Helvetica,sans-Serif" font-size="10.00" fill="#000000">ORB_SLAM2::KeyFrame</text>
</g>
<!-- Node2&#45;&gt;Node2 -->
<g id="edge4" class="edge">
<title>Node2&#45;&gt;Node2</title>
<path fill="none" stroke="#9a32cd" stroke-dasharray="5,2" d="M790.5507,-109.0292C791.748,-114.128 799.0644,-118 812.5,-118 833.4727,-118 839.5351,-108.5653 830.6872,-99.7571"/>
<polygon fill="#9a32cd" stroke="#9a32cd" points="793.7962,-110.3393 794.3128,-99.7571 787.3098,-107.7074 793.7962,-110.3393"/>
<text text-anchor="middle" x="812.5" y="-121" font-family="Helvetica,sans-Serif" font-size="10.00" fill="#000000"> mpParent</text>
</g>
<!-- Node3 -->
<g id="node2" class="node">
<title>Node3</title>
<g id="a_node2"><a xlink:href="class_o_r_b___s_l_a_m2_1_1_key_frame_database.html" target="_top" xlink:title="Lista invertida de KeyFrames, accesible por BoW. ">
<polygon fill="#ffffff" stroke="#000000" points="468,-118.5 468,-137.5 637,-137.5 637,-118.5 468,-118.5"/>
<text text-anchor="middle" x="552.5" y="-125.5" font-family="Helvetica,sans-Serif" font-size="10.00" fill="#000000">ORB_SLAM2::KeyFrameDatabase</text>
</a>
</g>
</g>
<!-- Node3&#45;&gt;Node2 -->
<g id="edge1" class="edge">
<title>Node3&#45;&gt;Node2</title>
<path fill="none" stroke="#9a32cd" stroke-dasharray="5,2" d="M638.3864,-117.0972C667.7887,-113.1935 700.863,-108.6129 731,-104 739.9405,-102.6315 749.4164,-101.0887 758.6228,-99.5403"/>
<polygon fill="#9a32cd" stroke="#9a32cd" points="637.6062,-113.6698 628.1504,-118.4487 638.5225,-120.6095 637.6062,-113.6698"/>
<text text-anchor="middle" x="693" y="-117" font-family="Helvetica,sans-Serif" font-size="10.00" fill="#000000"> mpKeyFrameDB</text>
</g>
<!-- Node4 -->
<g id="node3" class="node">
<title>Node4</title>
<g id="a_node3"><a xlink:href="class_d_bo_w2_1_1_templated_vocabulary.html" target="_top" xlink:title="Generic Vocabulary. ">
<polygon fill="#ffffff" stroke="#000000" points="243,-141 243,-171 395,-171 395,-141 243,-141"/>
<text text-anchor="start" x="251" y="-159" font-family="Helvetica,sans-Serif" font-size="10.00" fill="#000000">DBoW2::TemplatedVocabulary</text>
<text text-anchor="middle" x="319" y="-148" font-family="Helvetica,sans-Serif" font-size="10.00" fill="#000000">&lt; TDescriptor, F &gt;</text>
</a>
</g>
</g>
<!-- Node4&#45;&gt;Node2 -->
<g id="edge6" class="edge">
<title>Node4&#45;&gt;Node2</title>
<path fill="none" stroke="#9a32cd" stroke-dasharray="5,2" d="M405.3247,-162.6604C490.3639,-166.3963 622.8723,-164.5639 731,-129 754.394,-121.3056 779.747,-108.3804 795.8575,-99.5343"/>
<polygon fill="#9a32cd" stroke="#9a32cd" points="405.349,-159.1577 395.1942,-162.1791 405.0168,-166.1498 405.349,-159.1577"/>
<text text-anchor="middle" x="552.5" y="-167" font-family="Helvetica,sans-Serif" font-size="10.00" fill="#000000"> mpORBvocabulary</text>
</g>
<!-- Node4&#45;&gt;Node3 -->
<g id="edge2" class="edge">
<title>Node4&#45;&gt;Node3</title>
<path fill="none" stroke="#9a32cd" stroke-dasharray="5,2" d="M405.2401,-145.6586C427.5086,-142.9883 451.3696,-140.127 473.2618,-137.5018"/>
<polygon fill="#9a32cd" stroke="#9a32cd" points="404.6457,-142.2047 395.1335,-146.8705 405.4792,-149.1549 404.6457,-142.2047"/>
<text text-anchor="middle" x="433" y="-146" font-family="Helvetica,sans-Serif" font-size="10.00" fill="#000000"> mpVoc</text>
</g>
<!-- Node5 -->
<g id="node4" class="node">
<title>Node5</title>
<g id="a_node4"><a xlink:href="class_d_bo_w2_1_1_general_scoring.html" target="_top" xlink:title="Base class of scoring functions. ">
<polygon fill="#ffffff" stroke="#000000" points="0,-146.5 0,-165.5 124,-165.5 124,-146.5 0,-146.5"/>
<text text-anchor="middle" x="62" y="-153.5" font-family="Helvetica,sans-Serif" font-size="10.00" fill="#000000">DBoW2::GeneralScoring</text>
</a>
</g>
</g>
<!-- Node5&#45;&gt;Node4 -->
<g id="edge3" class="edge">
<title>Node5&#45;&gt;Node4</title>
<path fill="none" stroke="#9a32cd" stroke-dasharray="5,2" d="M134.4735,-156C168.2447,-156 208.4358,-156 242.6742,-156"/>
<polygon fill="#9a32cd" stroke="#9a32cd" points="134.2126,-152.5001 124.2125,-156 134.2125,-159.5001 134.2126,-152.5001"/>
<text text-anchor="middle" x="182" y="-159" font-family="Helvetica,sans-Serif" font-size="10.00" fill="#000000"> m_scoring_object</text>
</g>
<!-- Node6 -->
<g id="node5" class="node">
<title>Node6</title>
<g id="a_node5"><a xlink:href="class_o_r_b___s_l_a_m2_1_1_map.html" target="_top" xlink:title="Mapa del mundo, de puntos y keyframes. ">
<polygon fill="#ffffff" stroke="#000000" points="502,-80.5 502,-99.5 603,-99.5 603,-80.5 502,-80.5"/>
<text text-anchor="middle" x="552.5" y="-87.5" font-family="Helvetica,sans-Serif" font-size="10.00" fill="#000000">ORB_SLAM2::Map</text>
</a>
</g>
</g>
<!-- Node6&#45;&gt;Node2 -->
<g id="edge5" class="edge">
<title>Node6&#45;&gt;Node2</title>
<path fill="none" stroke="#9a32cd" stroke-dasharray="5,2" d="M613.3218,-90C654.0917,-90 707.6702,-90 748.9878,-90"/>
<polygon fill="#9a32cd" stroke="#9a32cd" points="613.2479,-86.5001 603.2478,-90 613.2478,-93.5001 613.2479,-86.5001"/>
<text text-anchor="middle" x="693" y="-93" font-family="Helvetica,sans-Serif" font-size="10.00" fill="#000000"> mpMap</text>
</g>
<!-- Node7 -->
<g id="node6" class="node">
<title>Node7</title>
<g id="a_node6"><a xlink:href="class_d_bo_w2_1_1_feature_vector.html" target="_top" xlink:title="Vector of nodes with indexes of local features. ">
<polygon fill="#ffffff" stroke="#000000" points="493,-42.5 493,-61.5 612,-61.5 612,-42.5 493,-42.5"/>
<text text-anchor="middle" x="552.5" y="-49.5" font-family="Helvetica,sans-Serif" font-size="10.00" fill="#000000">DBoW2::FeatureVector</text>
</a>
</g>
</g>
<!-- Node7&#45;&gt;Node2 -->
<g id="edge7" class="edge">
<title>Node7&#45;&gt;Node2</title>
<path fill="none" stroke="#9a32cd" stroke-dasharray="5,2" d="M622.1346,-60.0895C655.1826,-64.1544 695.1899,-69.4017 731,-75 741.3764,-76.6222 752.4622,-78.5389 763.0089,-80.4503"/>
<polygon fill="#9a32cd" stroke="#9a32cd" points="622.4643,-56.6039 612.114,-58.8669 621.6165,-63.5524 622.4643,-56.6039"/>
<text text-anchor="middle" x="693" y="-78" font-family="Helvetica,sans-Serif" font-size="10.00" fill="#000000"> mFeatVec</text>
</g>
<!-- Node8 -->
<g id="node7" class="node">
<title>Node8</title>
<polygon fill="#ffffff" stroke="#bfbfbf" points="254.5,-39 254.5,-69 383.5,-69 383.5,-39 254.5,-39"/>
<text text-anchor="start" x="262.5" y="-57" font-family="Helvetica,sans-Serif" font-size="10.00" fill="#000000">std::map&lt; NodeId, std</text>
<text text-anchor="middle" x="319" y="-46" font-family="Helvetica,sans-Serif" font-size="10.00" fill="#000000">::vector&lt; unsigned int &gt; &gt;</text>
</g>
<!-- Node8&#45;&gt;Node7 -->
<g id="edge8" class="edge">
<title>Node8&#45;&gt;Node7</title>
<path fill="none" stroke="#191970" d="M393.9354,-53.3582C425.9274,-53.0841 462.7459,-52.7688 492.8468,-52.5109"/>
<polygon fill="#191970" stroke="#191970" points="393.7023,-49.8599 383.7327,-53.4455 393.7623,-56.8597 393.7023,-49.8599"/>
</g>
<!-- Node9 -->
<g id="node8" class="node">
<title>Node9</title>
<g id="a_node8"><a xlink:href="class_d_bo_w2_1_1_bow_vector.html" target="_top" xlink:title="Vector of words to represent images. ">
<polygon fill="#ffffff" stroke="#000000" points="500,-3.5 500,-22.5 605,-22.5 605,-3.5 500,-3.5"/>
<text text-anchor="middle" x="552.5" y="-10.5" font-family="Helvetica,sans-Serif" font-size="10.00" fill="#000000">DBoW2::BowVector</text>
</a>
</g>
</g>
<!-- Node9&#45;&gt;Node2 -->
<g id="edge9" class="edge">
<title>Node9&#45;&gt;Node2</title>
<path fill="none" stroke="#9a32cd" stroke-dasharray="5,2" d="M615.0447,-21.4161C649.7968,-27.1285 693.4684,-36.0373 731,-49 754.804,-57.2215 780.4782,-71.0464 796.5169,-80.3427"/>
<polygon fill="#9a32cd" stroke="#9a32cd" points="615.4553,-17.9374 605.0286,-19.817 614.3517,-24.8498 615.4553,-17.9374"/>
<text text-anchor="middle" x="693" y="-52" font-family="Helvetica,sans-Serif" font-size="10.00" fill="#000000"> mBowVec</text>
</g>
<!-- Node10 -->
<g id="node9" class="node">
<title>Node10</title>
<polygon fill="#ffffff" stroke="#bfbfbf" points="240,-.5 240,-19.5 398,-19.5 398,-.5 240,-.5"/>
<text text-anchor="middle" x="319" y="-7.5" font-family="Helvetica,sans-Serif" font-size="10.00" fill="#000000">std::map&lt; WordId, WordValue &gt;</text>
</g>
<!-- Node10&#45;&gt;Node9 -->
<g id="edge10" class="edge">
<title>Node10&#45;&gt;Node9</title>
<path fill="none" stroke="#191970" d="M408.4225,-11.1489C439.3473,-11.5462 472.9823,-11.9784 499.9707,-12.3251"/>
<polygon fill="#191970" stroke="#191970" points="408.0966,-7.6445 398.0524,-11.0157 408.0066,-14.6439 408.0966,-7.6445"/>
</g>
</g>
</svg>
