<?xml version="1.0" encoding="UTF-8" standalone="no"?>
<!DOCTYPE svg PUBLIC "-//W3C//DTD SVG 1.1//EN"
 "http://www.w3.org/Graphics/SVG/1.1/DTD/svg11.dtd">
<!-- Generated by graphviz version 2.38.0 (20140413.2041)
 -->
<!-- Title: ORB_SLAM2::Tracking Pages: 1 -->
<svg width="2183pt" height="706pt"
 viewBox="0.00 0.00 2183.00 705.92" xmlns="http://www.w3.org/2000/svg" xmlns:xlink="http://www.w3.org/1999/xlink">
<g id="graph0" class="graph" transform="scale(1 1) rotate(0) translate(4 701.917)">
<title>ORB_SLAM2::Tracking</title>
<polygon fill="white" stroke="none" points="-4,4 -4,-701.917 2179,-701.917 2179,4 -4,4"/>
<!-- Node1 -->
<g id="node1" class="node"><title>Node1</title>
<polygon fill="#bfbfbf" stroke="black" points="1562,-323.417 1562,-342.417 1681,-342.417 1681,-323.417 1562,-323.417"/>
<text text-anchor="middle" x="1621.5" y="-330.417" font-family="Helvetica,sans-Serif" font-size="10.00">ORB_SLAM2::Tracking</text>
</g>
<!-- Node12 -->
<g id="node12" class="node"><title>Node12</title>
<g id="a_node12"><a xlink:href="class_o_r_b___s_l_a_m2_1_1_loop_closing.html" target="_top" xlink:title="ORB_SLAM2::LoopClosing">
<polygon fill="white" stroke="black" points="1788,-178.417 1788,-197.417 1924,-197.417 1924,-178.417 1788,-178.417"/>
<text text-anchor="middle" x="1856" y="-185.417" font-family="Helvetica,sans-Serif" font-size="10.00">ORB_SLAM2::LoopClosing</text>
</a>
</g>
</g>
<!-- Node1&#45;&gt;Node12 -->
<g id="edge29" class="edge"><title>Node1&#45;&gt;Node12</title>
<path fill="none" stroke="#9a32cd" stroke-dasharray="5,2" d="M1630.1,-314.178C1641.29,-289.055 1664.67,-244.954 1699,-221.917 1707.69,-216.087 1760.4,-205.305 1802.18,-197.442"/>
<polygon fill="#9a32cd" stroke="#9a32cd" points="1626.88,-312.806 1626.17,-323.377 1633.31,-315.556 1626.88,-312.806"/>
<text text-anchor="middle" x="1734.5" y="-224.917" font-family="Helvetica,sans-Serif" font-size="10.00"> mpTracker</text>
</g>
<!-- Node14 -->
<g id="node14" class="node"><title>Node14</title>
<g id="a_node14"><a xlink:href="class_o_r_b___s_l_a_m2_1_1_local_mapping.html" target="_top" xlink:title="LocalMapping tiene una única instancia ejecutando el método Run en su propio thread. ">
<polygon fill="white" stroke="black" points="2033,-257.417 2033,-276.417 2175,-276.417 2175,-257.417 2033,-257.417"/>
<text text-anchor="middle" x="2104" y="-264.417" font-family="Helvetica,sans-Serif" font-size="10.00">ORB_SLAM2::LocalMapping</text>
</a>
</g>
</g>
<!-- Node1&#45;&gt;Node14 -->
<g id="edge28" class="edge"><title>Node1&#45;&gt;Node14</title>
<path fill="none" stroke="#9a32cd" stroke-dasharray="5,2" d="M1691.39,-332.387C1770.42,-330.531 1903.47,-323.575 2015,-298.917 2038.49,-293.723 2064.23,-283.839 2081.77,-276.424"/>
<polygon fill="#9a32cd" stroke="#9a32cd" points="1691,-328.894 1681.08,-332.607 1691.15,-335.893 1691,-328.894"/>
<text text-anchor="middle" x="1856" y="-331.917" font-family="Helvetica,sans-Serif" font-size="10.00"> mpTracker</text>
</g>
<!-- Node2 -->
<g id="node2" class="node"><title>Node2</title>
<g id="a_node2"><a xlink:href="class_o_r_b___s_l_a_m2_1_1_frame_drawer.html" target="_top" xlink:title="Clase de instancia única que se ocupa de mostrar la imagen de la cámara, con marcas verdes sobre los ...">
<polygon fill="white" stroke="black" points="1174,-466.417 1174,-485.417 1315,-485.417 1315,-466.417 1174,-466.417"/>
<text text-anchor="middle" x="1244.5" y="-473.417" font-family="Helvetica,sans-Serif" font-size="10.00">ORB_SLAM2::FrameDrawer</text>
</a>
</g>
</g>
<!-- Node2&#45;&gt;Node1 -->
<g id="edge1" class="edge"><title>Node2&#45;&gt;Node1</title>
<path fill="none" stroke="#9a32cd" stroke-dasharray="5,2" d="M1325.22,-485.521C1388.86,-489.246 1477.98,-485.305 1544,-445.917 1585.1,-421.398 1608.97,-365.217 1617.21,-342.606"/>
<polygon fill="#9a32cd" stroke="#9a32cd" points="1325.44,-482.029 1315.23,-484.862 1324.98,-489.013 1325.44,-482.029"/>
<text text-anchor="middle" x="1393.5" y="-489.917" font-family="Helvetica,sans-Serif" font-size="10.00"> mpFrameDrawer</text>
</g>
<!-- Node3 -->
<g id="node3" class="node"><title>Node3</title>
<g id="a_node3"><a xlink:href="class_o_r_b___s_l_a_m2_1_1_map.html" target="_top" xlink:title="Mapa del mundo, de puntos y keyframes. ">
<polygon fill="white" stroke="black" points="780,-433.417 780,-452.417 881,-452.417 881,-433.417 780,-433.417"/>
<text text-anchor="middle" x="830.5" y="-440.417" font-family="Helvetica,sans-Serif" font-size="10.00">ORB_SLAM2::Map</text>
</a>
</g>
</g>
<!-- Node3&#45;&gt;Node1 -->
<g id="edge33" class="edge"><title>Node3&#45;&gt;Node1</title>
<path fill="none" stroke="#9a32cd" stroke-dasharray="5,2" d="M891.182,-442.407C1051.78,-440.695 1485.01,-433.714 1544,-407.917 1576.38,-393.756 1602.83,-359.302 1614.32,-342.478"/>
<polygon fill="#9a32cd" stroke="#9a32cd" points="890.967,-438.909 881.004,-442.512 891.04,-445.908 890.967,-438.909"/>
<text text-anchor="middle" x="1244.5" y="-439.917" font-family="Helvetica,sans-Serif" font-size="10.00"> mpMap</text>
</g>
<!-- Node3&#45;&gt;Node2 -->
<g id="edge2" class="edge"><title>Node3&#45;&gt;Node2</title>
<path fill="none" stroke="#9a32cd" stroke-dasharray="5,2" d="M891.406,-447.715C966.332,-453.716 1094.39,-463.973 1173.68,-470.324"/>
<polygon fill="#9a32cd" stroke="#9a32cd" points="891.444,-444.207 881.197,-446.897 890.885,-451.185 891.444,-444.207"/>
<text text-anchor="middle" x="952" y="-458.917" font-family="Helvetica,sans-Serif" font-size="10.00"> mpMap</text>
</g>
<!-- Node3&#45;&gt;Node3 -->
<g id="edge6" class="edge"><title>Node3&#45;&gt;Node3</title>
<path fill="none" stroke="#9a32cd" stroke-dasharray="5,2" d="M808.179,-461.946C809.396,-467.045 816.837,-470.917 830.5,-470.917 851.828,-470.917 857.993,-461.482 848.995,-452.674"/>
<polygon fill="#9a32cd" stroke="#9a32cd" points="811.426,-463.253 812.005,-452.674 804.955,-460.583 811.426,-463.253"/>
<text text-anchor="middle" x="830.5" y="-473.917" font-family="Helvetica,sans-Serif" font-size="10.00"> mpMap</text>
</g>
<!-- Node7 -->
<g id="node7" class="node"><title>Node7</title>
<g id="a_node7"><a xlink:href="class_o_r_b___s_l_a_m2_1_1_key_frame.html" target="_top" xlink:title="Cuadro clave, keyframe. ">
<polygon fill="white" stroke="black" points="1021.5,-101.417 1021.5,-120.417 1148.5,-120.417 1148.5,-101.417 1021.5,-101.417"/>
<text text-anchor="middle" x="1085" y="-108.417" font-family="Helvetica,sans-Serif" font-size="10.00">ORB_SLAM2::KeyFrame</text>
</a>
</g>
</g>
<!-- Node3&#45;&gt;Node7 -->
<g id="edge12" class="edge"><title>Node3&#45;&gt;Node7</title>
<path fill="none" stroke="#9a32cd" stroke-dasharray="5,2" d="M842.312,-424.638C856.624,-400.761 882.978,-357.881 908,-322.917 944.436,-272.003 965.251,-267.454 996,-212.917 1007.39,-192.707 1000.19,-182.562 1014,-163.917 1027.97,-145.051 1050.46,-129.704 1066.17,-120.469"/>
<polygon fill="#9a32cd" stroke="#9a32cd" points="839.23,-422.973 837.117,-433.355 845.243,-426.557 839.23,-422.973"/>
<text text-anchor="middle" x="952" y="-325.917" font-family="Helvetica,sans-Serif" font-size="10.00"> mpMap</text>
</g>
<!-- Node3&#45;&gt;Node12 -->
<g id="edge22" class="edge"><title>Node3&#45;&gt;Node12</title>
<path fill="none" stroke="#9a32cd" stroke-dasharray="5,2" d="M861.813,-429.239C897.571,-413.549 959.109,-387.932 1014,-371.917 1144.95,-333.709 1212.95,-402.44 1315,-311.917 1334.24,-294.849 1313.66,-273.871 1333,-256.917 1380.26,-215.489 1409.91,-240.681 1472,-230.917 1572.47,-215.116 1597.89,-212.909 1699,-201.917 1728.06,-198.758 1760.22,-195.783 1787.76,-193.395"/>
<polygon fill="#9a32cd" stroke="#9a32cd" points="860.168,-426.14 852.437,-433.385 862.999,-432.542 860.168,-426.14"/>
<text text-anchor="middle" x="1393.5" y="-259.917" font-family="Helvetica,sans-Serif" font-size="10.00"> mpMap</text>
</g>
<!-- Node3&#45;&gt;Node14 -->
<g id="edge27" class="edge"><title>Node3&#45;&gt;Node14</title>
<path fill="none" stroke="#9a32cd" stroke-dasharray="5,2" d="M846.647,-460.424C875.621,-492.678 942.408,-561.258 1014,-594.917 1215.71,-689.751 1284.11,-686.917 1507,-686.917 1507,-686.917 1507,-686.917 1857,-686.917 2053.89,-686.917 2096.16,-338.995 2102.17,-276.478"/>
<polygon fill="#9a32cd" stroke="#9a32cd" points="849.058,-457.867 839.809,-452.698 843.816,-462.506 849.058,-457.867"/>
<text text-anchor="middle" x="1508" y="-689.917" font-family="Helvetica,sans-Serif" font-size="10.00"> mpMap</text>
</g>
<!-- Node16 -->
<g id="node16" class="node"><title>Node16</title>
<g id="a_node16"><a xlink:href="class_o_r_b___s_l_a_m2_1_1_map_drawer.html" target="_top" xlink:title="ORB_SLAM2::MapDrawer">
<polygon fill="white" stroke="black" points="1178.5,-510.417 1178.5,-529.417 1310.5,-529.417 1310.5,-510.417 1178.5,-510.417"/>
<text text-anchor="middle" x="1244.5" y="-517.417" font-family="Helvetica,sans-Serif" font-size="10.00">ORB_SLAM2::MapDrawer</text>
</a>
</g>
</g>
<!-- Node3&#45;&gt;Node16 -->
<g id="edge32" class="edge"><title>Node3&#45;&gt;Node16</title>
<path fill="none" stroke="#9a32cd" stroke-dasharray="5,2" d="M863.258,-456.206C876.84,-461.451 892.996,-467.118 908,-470.917 1000.44,-494.32 1110.24,-507.725 1178.41,-514.415"/>
<polygon fill="#9a32cd" stroke="#9a32cd" points="864.464,-452.919 853.878,-452.494 861.889,-459.428 864.464,-452.919"/>
<text text-anchor="middle" x="952" y="-492.917" font-family="Helvetica,sans-Serif" font-size="10.00"> mpMap</text>
</g>
<!-- Node4 -->
<g id="node4" class="node"><title>Node4</title>
<g id="a_node4"><a xlink:href="class_o_r_b___s_l_a_m2_1_1_key_frame_database.html" target="_top" xlink:title="Lista invertida de KeyFrames, accesible por BoW. ">
<polygon fill="white" stroke="black" points="462,-224.417 462,-243.417 631,-243.417 631,-224.417 462,-224.417"/>
<text text-anchor="middle" x="546.5" y="-231.417" font-family="Helvetica,sans-Serif" font-size="10.00">ORB_SLAM2::KeyFrameDatabase</text>
</a>
</g>
</g>
<!-- Node4&#45;&gt;Node1 -->
<g id="edge8" class="edge"><title>Node4&#45;&gt;Node1</title>
<path fill="none" stroke="#9a32cd" stroke-dasharray="5,2" d="M563.244,-250.813C603.37,-291.941 714.458,-393.917 829.5,-393.917 829.5,-393.917 829.5,-393.917 1394.5,-393.917 1472.53,-393.917 1560.64,-359.604 1599.82,-342.448"/>
<polygon fill="#9a32cd" stroke="#9a32cd" points="565.631,-248.245 556.185,-243.446 560.577,-253.088 565.631,-248.245"/>
<text text-anchor="middle" x="1085" y="-396.917" font-family="Helvetica,sans-Serif" font-size="10.00"> mpKeyFrameDB</text>
</g>
<!-- Node4&#45;&gt;Node3 -->
<g id="edge3" class="edge"><title>Node4&#45;&gt;Node3</title>
<path fill="none" stroke="#9a32cd" stroke-dasharray="5,2" d="M553.231,-253.331C564.918,-289.337 595.067,-366.307 649,-404.917 651.75,-406.886 729.532,-422.816 782.082,-433.416"/>
<polygon fill="#9a32cd" stroke="#9a32cd" points="556.503,-252.068 550.19,-243.559 549.819,-254.148 556.503,-252.068"/>
<text text-anchor="middle" x="701" y="-430.917" font-family="Helvetica,sans-Serif" font-size="10.00"> mpKeyFrameDatabase</text>
</g>
<!-- Node4&#45;&gt;Node7 -->
<g id="edge10" class="edge"><title>Node4&#45;&gt;Node7</title>
<path fill="none" stroke="#9a32cd" stroke-dasharray="5,2" d="M599.406,-222.122C609.867,-219.741 620.786,-217.251 631,-214.917 782.623,-180.261 962.73,-138.834 1042.47,-120.479"/>
<polygon fill="#9a32cd" stroke="#9a32cd" points="598.528,-218.732 589.554,-224.364 600.081,-225.558 598.528,-218.732"/>
<text text-anchor="middle" x="830.5" y="-184.917" font-family="Helvetica,sans-Serif" font-size="10.00"> mpKeyFrameDB</text>
</g>
<!-- Node4&#45;&gt;Node12 -->
<g id="edge19" class="edge"><title>Node4&#45;&gt;Node12</title>
<path fill="none" stroke="#9a32cd" stroke-dasharray="5,2" d="M622.891,-219.977C625.717,-218.457 628.434,-216.776 631,-214.917 643.591,-205.793 638.417,-196.309 649,-184.917 694.152,-136.313 708.057,-119.874 771,-98.9168 1174.11,35.2987 1705.99,-135.162 1828.9,-178.413"/>
<polygon fill="#9a32cd" stroke="#9a32cd" points="621.153,-216.925 613.55,-224.305 624.095,-223.277 621.153,-216.925"/>
<text text-anchor="middle" x="1244.5" y="-62.9168" font-family="Helvetica,sans-Serif" font-size="10.00"> mpKeyFrameDB</text>
</g>
<!-- Node5 -->
<g id="node5" class="node"><title>Node5</title>
<g id="a_node5"><a xlink:href="class_d_bo_w2_1_1_templated_vocabulary.html" target="_top" xlink:title="Generic Vocabulary. ">
<polygon fill="white" stroke="black" points="240,-240.917 240,-270.917 392,-270.917 392,-240.917 240,-240.917"/>
<text text-anchor="start" x="248" y="-258.917" font-family="Helvetica,sans-Serif" font-size="10.00">DBoW2::TemplatedVocabulary</text>
<text text-anchor="middle" x="316" y="-247.917" font-family="Helvetica,sans-Serif" font-size="10.00">&lt; TDescriptor, F &gt;</text>
</a>
</g>
</g>
<!-- Node5&#45;&gt;Node1 -->
<g id="edge34" class="edge"><title>Node5&#45;&gt;Node1</title>
<path fill="none" stroke="#9a32cd" stroke-dasharray="5,2" d="M319.245,-281.266C328.548,-369.222 372.166,-655.917 545.5,-655.917 545.5,-655.917 545.5,-655.917 1086,-655.917 1187.95,-655.917 1465.26,-693.687 1544,-628.917 1590.32,-590.814 1614.48,-389.296 1619.5,-342.589"/>
<polygon fill="#9a32cd" stroke="#9a32cd" points="322.707,-280.712 318.232,-271.109 315.742,-281.407 322.707,-280.712"/>
<text text-anchor="middle" x="952" y="-658.917" font-family="Helvetica,sans-Serif" font-size="10.00"> mpORBVocabulary</text>
</g>
<!-- Node5&#45;&gt;Node3 -->
<g id="edge7" class="edge"><title>Node5&#45;&gt;Node3</title>
<path fill="none" stroke="#9a32cd" stroke-dasharray="5,2" d="M344.595,-277.305C399.09,-318.073 525.936,-405.788 649,-438.917 692.13,-450.527 743.172,-450.451 779.954,-448.102"/>
<polygon fill="#9a32cd" stroke="#9a32cd" points="346.572,-274.412 336.482,-271.181 342.355,-279.999 346.572,-274.412"/>
<text text-anchor="middle" x="546.5" y="-435.917" font-family="Helvetica,sans-Serif" font-size="10.00"> mpVocabulary</text>
</g>
<!-- Node5&#45;&gt;Node4 -->
<g id="edge4" class="edge"><title>Node5&#45;&gt;Node4</title>
<path fill="none" stroke="#9a32cd" stroke-dasharray="5,2" d="M402.268,-247.662C404.875,-247.411 407.457,-247.162 410,-246.917 426.702,-245.307 444.562,-243.591 461.653,-241.95"/>
<polygon fill="#9a32cd" stroke="#9a32cd" points="401.739,-244.197 392.121,-248.642 402.411,-251.165 401.739,-244.197"/>
<text text-anchor="middle" x="427" y="-249.917" font-family="Helvetica,sans-Serif" font-size="10.00"> mpVoc</text>
</g>
<!-- Node5&#45;&gt;Node7 -->
<g id="edge13" class="edge"><title>Node5&#45;&gt;Node7</title>
<path fill="none" stroke="#9a32cd" stroke-dasharray="5,2" d="M331.295,-232.046C353.926,-196.838 401.689,-132.309 462,-105.917 669.015,-15.3264 953.176,-76.1706 1050.06,-101.414"/>
<polygon fill="#9a32cd" stroke="#9a32cd" points="328.193,-230.404 325.839,-240.734 334.121,-234.127 328.193,-230.404"/>
<text text-anchor="middle" x="701" y="-64.9168" font-family="Helvetica,sans-Serif" font-size="10.00"> mpORBvocabulary</text>
</g>
<!-- Node5&#45;&gt;Node12 -->
<g id="edge23" class="edge"><title>Node5&#45;&gt;Node12</title>
<path fill="none" stroke="#9a32cd" stroke-dasharray="5,2" d="M325.616,-231.201C349.555,-167.542 423.278,-2.91677 545.5,-2.91677 545.5,-2.91677 545.5,-2.91677 1622.5,-2.91677 1689.31,-2.91677 1719.84,12.2169 1770,-31.9168 1788.99,-48.6283 1776.96,-63.1532 1788,-85.9168 1805.56,-122.139 1833.96,-160.78 1847.44,-178.296"/>
<polygon fill="#9a32cd" stroke="#9a32cd" points="322.235,-230.254 322.081,-240.848 328.808,-232.663 322.235,-230.254"/>
<text text-anchor="middle" x="1085" y="-5.91677" font-family="Helvetica,sans-Serif" font-size="10.00"> mpORBVocabulary</text>
</g>
<!-- Node17 -->
<g id="node17" class="node"><title>Node17</title>
<g id="a_node17"><a xlink:href="class_o_r_b___s_l_a_m2_1_1_frame.html" target="_top" xlink:title="Frame representa un cuadro, una imagen, con los puntos singulares detectados. ">
<polygon fill="white" stroke="black" points="1338.5,-192.417 1338.5,-211.417 1448.5,-211.417 1448.5,-192.417 1338.5,-192.417"/>
<text text-anchor="middle" x="1393.5" y="-199.417" font-family="Helvetica,sans-Serif" font-size="10.00">ORB_SLAM2::Frame</text>
</a>
</g>
</g>
<!-- Node5&#45;&gt;Node17 -->
<g id="edge38" class="edge"><title>Node5&#45;&gt;Node17</title>
<path fill="none" stroke="#9a32cd" stroke-dasharray="5,2" d="M402.161,-264.719C445.098,-268.435 498.008,-271.917 545.5,-271.917 545.5,-271.917 545.5,-271.917 953,-271.917 1114.77,-271.917 1158.72,-275.725 1315,-233.917 1323.46,-231.654 1324.94,-229.333 1333,-225.917 1344.59,-221.006 1357.54,-215.754 1368.39,-211.42"/>
<polygon fill="#9a32cd" stroke="#9a32cd" points="402.305,-261.218 392.035,-263.823 401.688,-268.191 402.305,-261.218"/>
<text text-anchor="middle" x="830.5" y="-274.917" font-family="Helvetica,sans-Serif" font-size="10.00"> mpORBvocabulary</text>
</g>
<!-- Node6 -->
<g id="node6" class="node"><title>Node6</title>
<g id="a_node6"><a xlink:href="class_d_bo_w2_1_1_general_scoring.html" target="_top" xlink:title="Base class of scoring functions. ">
<polygon fill="white" stroke="black" points="0,-246.417 0,-265.417 124,-265.417 124,-246.417 0,-246.417"/>
<text text-anchor="middle" x="62" y="-253.417" font-family="Helvetica,sans-Serif" font-size="10.00">DBoW2::GeneralScoring</text>
</a>
</g>
</g>
<!-- Node6&#45;&gt;Node5 -->
<g id="edge5" class="edge"><title>Node6&#45;&gt;Node5</title>
<path fill="none" stroke="#9a32cd" stroke-dasharray="5,2" d="M134.021,-255.917C166.991,-255.917 206.21,-255.917 239.696,-255.917"/>
<polygon fill="#9a32cd" stroke="#9a32cd" points="134.002,-252.417 124.002,-255.917 134.002,-259.417 134.002,-252.417"/>
<text text-anchor="middle" x="182" y="-258.917" font-family="Helvetica,sans-Serif" font-size="10.00"> m_scoring_object</text>
</g>
<!-- Node7&#45;&gt;Node1 -->
<g id="edge9" class="edge"><title>Node7&#45;&gt;Node1</title>
<path fill="none" stroke="#9a32cd" stroke-dasharray="5,2" d="M1140.64,-122.529C1151.66,-124.749 1163.19,-126.982 1174,-128.917 1297.93,-151.094 1336.45,-126.82 1454,-171.917 1498.66,-189.048 1509.13,-198.183 1544,-230.917 1575.47,-260.458 1603.38,-304.177 1614.9,-323.335"/>
<polygon fill="#9a32cd" stroke="#9a32cd" points="1141.18,-119.068 1130.69,-120.502 1139.79,-125.927 1141.18,-119.068"/>
<text text-anchor="middle" x="1393.5" y="-174.917" font-family="Helvetica,sans-Serif" font-size="10.00"> mpReferenceKF</text>
</g>
<!-- Node7&#45;&gt;Node7 -->
<g id="edge11" class="edge"><title>Node7&#45;&gt;Node7</title>
<path fill="none" stroke="#9a32cd" stroke-dasharray="5,2" d="M1060.45,-129.946C1061.79,-135.045 1069.97,-138.917 1085,-138.917 1108.46,-138.917 1115.24,-129.482 1105.35,-120.674"/>
<polygon fill="#9a32cd" stroke="#9a32cd" points="1063.71,-131.226 1064.65,-120.674 1057.33,-128.333 1063.71,-131.226"/>
<text text-anchor="middle" x="1085" y="-141.917" font-family="Helvetica,sans-Serif" font-size="10.00"> mpParent</text>
</g>
<!-- Node7&#45;&gt;Node12 -->
<g id="edge20" class="edge"><title>Node7&#45;&gt;Node12</title>
<path fill="none" stroke="#9a32cd" stroke-dasharray="5,2" d="M1159.16,-115.564C1284.56,-123.995 1548.47,-143.779 1770,-173.917 1779.63,-175.227 1789.85,-176.775 1799.74,-178.354"/>
<polygon fill="#9a32cd" stroke="#9a32cd" points="1159.13,-112.054 1148.92,-114.879 1158.66,-119.038 1159.13,-112.054"/>
<text text-anchor="middle" x="1508" y="-161.917" font-family="Helvetica,sans-Serif" font-size="10.00"> mpMatchedKF</text>
<text text-anchor="middle" x="1508" y="-150.917" font-family="Helvetica,sans-Serif" font-size="10.00">mpCurrentKF</text>
</g>
<!-- Node7&#45;&gt;Node14 -->
<g id="edge25" class="edge"><title>Node7&#45;&gt;Node14</title>
<path fill="none" stroke="#9a32cd" stroke-dasharray="5,2" d="M1135.95,-99.0503C1240.38,-74.4676 1478.99,-19.5423 1562,-10.9168 1614.61,-5.45063 1628.47,-4.80285 1681,-10.9168 1846.85,-30.2186 1882.81,-80.9078 2015,-182.917 2046.27,-207.046 2078.81,-240.745 2094.08,-257.158"/>
<polygon fill="#9a32cd" stroke="#9a32cd" points="1134.9,-95.7008 1125.97,-101.402 1136.51,-102.514 1134.9,-95.7008"/>
<text text-anchor="middle" x="1621.5" y="-13.9168" font-family="Helvetica,sans-Serif" font-size="10.00"> mpCurrentKeyFrame</text>
</g>
<!-- Node7&#45;&gt;Node17 -->
<g id="edge37" class="edge"><title>Node7&#45;&gt;Node17</title>
<path fill="none" stroke="#9a32cd" stroke-dasharray="5,2" d="M1110.78,-125.463C1127.98,-134.942 1151.72,-146.825 1174,-153.917 1234.5,-173.172 1253.28,-162.017 1315,-176.917 1332.32,-181.097 1351.36,-187.218 1366.24,-192.358"/>
<polygon fill="#9a32cd" stroke="#9a32cd" points="1112.38,-122.347 1101.95,-120.49 1108.94,-128.447 1112.38,-122.347"/>
<text text-anchor="middle" x="1244.5" y="-179.917" font-family="Helvetica,sans-Serif" font-size="10.00"> mpReferenceKF</text>
</g>
<!-- Node8 -->
<g id="node8" class="node"><title>Node8</title>
<g id="a_node8"><a xlink:href="class_d_bo_w2_1_1_feature_vector.html" target="_top" xlink:title="Vector of nodes with indexes of local features. ">
<polygon fill="white" stroke="black" points="771,-108.417 771,-127.417 890,-127.417 890,-108.417 771,-108.417"/>
<text text-anchor="middle" x="830.5" y="-115.417" font-family="Helvetica,sans-Serif" font-size="10.00">DBoW2::FeatureVector</text>
</a>
</g>
</g>
<!-- Node8&#45;&gt;Node7 -->
<g id="edge14" class="edge"><title>Node8&#45;&gt;Node7</title>
<path fill="none" stroke="#9a32cd" stroke-dasharray="5,2" d="M900.465,-116.005C938.212,-114.958 984.631,-113.672 1021.34,-112.654"/>
<polygon fill="#9a32cd" stroke="#9a32cd" points="899.962,-112.517 890.063,-116.293 900.156,-119.515 899.962,-112.517"/>
<text text-anchor="middle" x="952" y="-118.917" font-family="Helvetica,sans-Serif" font-size="10.00"> mFeatVec</text>
</g>
<!-- Node8&#45;&gt;Node17 -->
<g id="edge39" class="edge"><title>Node8&#45;&gt;Node17</title>
<path fill="none" stroke="#9a32cd" stroke-dasharray="5,2" d="M881.557,-129.753C918.16,-138.264 969.055,-149.799 1014,-158.917 1084.83,-173.285 1102.26,-179.147 1174,-187.917 1229.84,-194.743 1294.15,-198.356 1338.46,-200.189"/>
<polygon fill="#9a32cd" stroke="#9a32cd" points="882.162,-126.301 871.629,-127.437 880.572,-133.118 882.162,-126.301"/>
<text text-anchor="middle" x="1085" y="-188.917" font-family="Helvetica,sans-Serif" font-size="10.00"> mFeatVec</text>
</g>
<!-- Node9 -->
<g id="node9" class="node"><title>Node9</title>
<polygon fill="white" stroke="#bfbfbf" points="482,-115.917 482,-145.917 611,-145.917 611,-115.917 482,-115.917"/>
<text text-anchor="start" x="490" y="-133.917" font-family="Helvetica,sans-Serif" font-size="10.00">std::map&lt; NodeId, std</text>
<text text-anchor="middle" x="546.5" y="-122.917" font-family="Helvetica,sans-Serif" font-size="10.00">::vector&lt; unsigned int &gt; &gt;</text>
</g>
<!-- Node9&#45;&gt;Node8 -->
<g id="edge15" class="edge"><title>Node9&#45;&gt;Node8</title>
<path fill="none" stroke="midnightblue" d="M621.196,-127.519C667.886,-125.367 727.439,-122.622 770.9,-120.618"/>
<polygon fill="midnightblue" stroke="midnightblue" points="620.966,-124.026 611.138,-127.983 621.289,-131.019 620.966,-124.026"/>
</g>
<!-- Node10 -->
<g id="node10" class="node"><title>Node10</title>
<g id="a_node10"><a xlink:href="class_d_bo_w2_1_1_bow_vector.html" target="_top" xlink:title="Vector of words to represent images. ">
<polygon fill="white" stroke="black" points="778,-203.417 778,-222.417 883,-222.417 883,-203.417 778,-203.417"/>
<text text-anchor="middle" x="830.5" y="-210.417" font-family="Helvetica,sans-Serif" font-size="10.00">DBoW2::BowVector</text>
</a>
</g>
</g>
<!-- Node10&#45;&gt;Node7 -->
<g id="edge16" class="edge"><title>Node10&#45;&gt;Node7</title>
<path fill="none" stroke="#9a32cd" stroke-dasharray="5,2" d="M893.333,-201.323C924.888,-194.186 963.391,-183.559 996,-168.917 1025.38,-155.725 1055.96,-133.258 1072.2,-120.504"/>
<polygon fill="#9a32cd" stroke="#9a32cd" points="892.364,-197.953 883.349,-203.519 893.867,-204.789 892.364,-197.953"/>
<text text-anchor="middle" x="952" y="-200.917" font-family="Helvetica,sans-Serif" font-size="10.00"> mBowVec</text>
</g>
<!-- Node10&#45;&gt;Node17 -->
<g id="edge40" class="edge"><title>Node10&#45;&gt;Node17</title>
<path fill="none" stroke="#9a32cd" stroke-dasharray="5,2" d="M893.415,-217.07C985.538,-222.398 1164.05,-229.441 1315,-215.917 1325.62,-214.965 1336.97,-213.294 1347.61,-211.429"/>
<polygon fill="#9a32cd" stroke="#9a32cd" points="893.344,-213.56 883.155,-216.463 892.931,-220.548 893.344,-213.56"/>
<text text-anchor="middle" x="1085" y="-226.917" font-family="Helvetica,sans-Serif" font-size="10.00"> mBowVec</text>
</g>
<!-- Node11 -->
<g id="node11" class="node"><title>Node11</title>
<polygon fill="white" stroke="#bfbfbf" points="467.5,-186.417 467.5,-205.417 625.5,-205.417 625.5,-186.417 467.5,-186.417"/>
<text text-anchor="middle" x="546.5" y="-193.417" font-family="Helvetica,sans-Serif" font-size="10.00">std::map&lt; WordId, WordValue &gt;</text>
</g>
<!-- Node11&#45;&gt;Node10 -->
<g id="edge17" class="edge"><title>Node11&#45;&gt;Node10</title>
<path fill="none" stroke="midnightblue" d="M635.805,-201.24C682.516,-204.056 738.24,-207.415 777.901,-209.806"/>
<polygon fill="midnightblue" stroke="midnightblue" points="635.871,-197.738 625.678,-200.63 635.449,-204.725 635.871,-197.738"/>
</g>
<!-- Node12&#45;&gt;Node1 -->
<g id="edge18" class="edge"><title>Node12&#45;&gt;Node1</title>
<path fill="none" stroke="#9a32cd" stroke-dasharray="5,2" d="M1831.52,-202.763C1814.79,-212.943 1791.54,-226.296 1770,-235.917 1739.59,-249.5 1727.5,-242.678 1699,-259.917 1670.1,-277.399 1643.22,-307.462 1630.39,-322.99"/>
<polygon fill="#9a32cd" stroke="#9a32cd" points="1833.42,-205.706 1840.09,-197.478 1829.74,-199.748 1833.42,-205.706"/>
<text text-anchor="middle" x="1734.5" y="-262.917" font-family="Helvetica,sans-Serif" font-size="10.00"> mpLoopClosing</text>
</g>
<!-- Node12&#45;&gt;Node14 -->
<g id="edge26" class="edge"><title>Node12&#45;&gt;Node14</title>
<path fill="none" stroke="#9a32cd" stroke-dasharray="5,2" d="M1934.45,-185.721C1960.72,-187.196 1989.78,-191.345 2015,-200.917 2047.85,-213.387 2078.94,-242.027 2093.83,-257.151"/>
<polygon fill="#9a32cd" stroke="#9a32cd" points="1934.3,-182.211 1924.16,-185.269 1933.99,-189.205 1934.3,-182.211"/>
<text text-anchor="middle" x="1978.5" y="-203.917" font-family="Helvetica,sans-Serif" font-size="10.00"> mpLoopCloser</text>
</g>
<!-- Node13 -->
<g id="node13" class="node"><title>Node13</title>
<g id="a_node13"><a xlink:href="structg2o_1_1_sim3.html" target="_top" xlink:title="g2o::Sim3">
<polygon fill="white" stroke="black" points="1591,-31.4168 1591,-50.4168 1652,-50.4168 1652,-31.4168 1591,-31.4168"/>
<text text-anchor="middle" x="1621.5" y="-38.4168" font-family="Helvetica,sans-Serif" font-size="10.00">g2o::Sim3</text>
</a>
</g>
</g>
<!-- Node13&#45;&gt;Node12 -->
<g id="edge21" class="edge"><title>Node13&#45;&gt;Node12</title>
<path fill="none" stroke="#9a32cd" stroke-dasharray="5,2" d="M1662.17,-35.3122C1693.67,-32.8943 1737.64,-34.2249 1770,-53.9168 1818.72,-83.5643 1844.22,-152.879 1852.2,-178.327"/>
<polygon fill="#9a32cd" stroke="#9a32cd" points="1661.64,-31.8467 1652,-36.2548 1662.28,-38.8168 1661.64,-31.8467"/>
<text text-anchor="middle" x="1734.5" y="-56.9168" font-family="Helvetica,sans-Serif" font-size="10.00"> mg2oScw</text>
</g>
<!-- Node14&#45;&gt;Node1 -->
<g id="edge35" class="edge"><title>Node14&#45;&gt;Node1</title>
<path fill="none" stroke="#9a32cd" stroke-dasharray="5,2" d="M2022.73,-273.718C1958.93,-279.572 1867.51,-288.96 1788,-300.917 1746.62,-307.14 1699.83,-316.395 1666.58,-323.354"/>
<polygon fill="#9a32cd" stroke="#9a32cd" points="2023.08,-277.201 2032.72,-272.809 2022.45,-270.229 2023.08,-277.201"/>
<text text-anchor="middle" x="1856" y="-303.917" font-family="Helvetica,sans-Serif" font-size="10.00"> mpLocalMapper</text>
</g>
<!-- Node14&#45;&gt;Node12 -->
<g id="edge24" class="edge"><title>Node14&#45;&gt;Node12</title>
<path fill="none" stroke="#9a32cd" stroke-dasharray="5,2" d="M2063.53,-254.243C2014.21,-238.403 1930.91,-211.652 1886.67,-197.446"/>
<polygon fill="#9a32cd" stroke="#9a32cd" points="2062.63,-257.628 2073.22,-257.354 2064.77,-250.964 2062.63,-257.628"/>
<text text-anchor="middle" x="1978.5" y="-239.917" font-family="Helvetica,sans-Serif" font-size="10.00"> mpLocalMapper</text>
</g>
<!-- Node15 -->
<g id="node15" class="node"><title>Node15</title>
<g id="a_node15"><a xlink:href="class_o_r_b___s_l_a_m2_1_1_initializer.html" target="_top" xlink:title="Inicializador de mapa en modo monocular. ">
<polygon fill="white" stroke="black" points="1333,-277.417 1333,-296.417 1454,-296.417 1454,-277.417 1333,-277.417"/>
<text text-anchor="middle" x="1393.5" y="-284.417" font-family="Helvetica,sans-Serif" font-size="10.00">ORB_SLAM2::Initializer</text>
</a>
</g>
</g>
<!-- Node15&#45;&gt;Node1 -->
<g id="edge30" class="edge"><title>Node15&#45;&gt;Node1</title>
<path fill="none" stroke="#9a32cd" stroke-dasharray="5,2" d="M1464.46,-294.153C1489.71,-297.444 1518.3,-301.963 1544,-307.917 1561.29,-311.923 1580.25,-318.107 1594.97,-323.322"/>
<polygon fill="#9a32cd" stroke="#9a32cd" points="1464.6,-290.642 1454.24,-292.863 1463.72,-297.587 1464.6,-290.642"/>
<text text-anchor="middle" x="1508" y="-310.917" font-family="Helvetica,sans-Serif" font-size="10.00"> mpInitializer</text>
</g>
<!-- Node16&#45;&gt;Node1 -->
<g id="edge31" class="edge"><title>Node16&#45;&gt;Node1</title>
<path fill="none" stroke="#9a32cd" stroke-dasharray="5,2" d="M1321.09,-528.281C1387.12,-531.348 1481.89,-524.937 1544,-473.917 1588.33,-437.502 1610.85,-368.392 1617.96,-342.785"/>
<polygon fill="#9a32cd" stroke="#9a32cd" points="1320.92,-524.767 1310.75,-527.713 1320.54,-531.756 1320.92,-524.767"/>
<text text-anchor="middle" x="1393.5" y="-531.917" font-family="Helvetica,sans-Serif" font-size="10.00"> mpMapDrawer</text>
</g>
<!-- Node17&#45;&gt;Node1 -->
<g id="edge36" class="edge"><title>Node17&#45;&gt;Node1</title>
<path fill="none" stroke="#9a32cd" stroke-dasharray="5,2" d="M1428.73,-215.237C1437.05,-218.608 1445.88,-222.301 1454,-225.917 1494.67,-244.034 1506.56,-245.822 1544,-269.917 1569.46,-286.304 1596.07,-309.936 1610.22,-323.106"/>
<polygon fill="#9a32cd" stroke="#9a32cd" points="1429.86,-211.919 1419.27,-211.451 1427.25,-218.418 1429.86,-211.919"/>
<text text-anchor="middle" x="1508" y="-283.917" font-family="Helvetica,sans-Serif" font-size="10.00"> mCurrentFrame</text>
<text text-anchor="middle" x="1508" y="-272.917" font-family="Helvetica,sans-Serif" font-size="10.00">mInitialFrame</text>
</g>
<!-- Node18 -->
<g id="node18" class="node"><title>Node18</title>
<g id="a_node18"><a xlink:href="class_o_r_b___s_l_a_m2_1_1_o_r_bextractor.html" target="_top" xlink:title="Empaqueta todos los métodos de detección de puntos singulares y extracción de descriptores. ">
<polygon fill="white" stroke="black" points="1014,-300.417 1014,-319.417 1156,-319.417 1156,-300.417 1014,-300.417"/>
<text text-anchor="middle" x="1085" y="-307.417" font-family="Helvetica,sans-Serif" font-size="10.00">ORB_SLAM2::ORBextractor</text>
</a>
</g>
</g>
<!-- Node18&#45;&gt;Node1 -->
<g id="edge45" class="edge"><title>Node18&#45;&gt;Node1</title>
<path fill="none" stroke="#9a32cd" stroke-dasharray="5,2" d="M1166.39,-313.376C1274.91,-318.046 1465.72,-326.256 1561.76,-330.389"/>
<polygon fill="#9a32cd" stroke="#9a32cd" points="1166.29,-309.869 1156.15,-312.935 1165.99,-316.862 1166.29,-309.869"/>
<text text-anchor="middle" x="1393.5" y="-350.917" font-family="Helvetica,sans-Serif" font-size="10.00"> mpORBextractorRight</text>
<text text-anchor="middle" x="1393.5" y="-339.917" font-family="Helvetica,sans-Serif" font-size="10.00">mpORBextractorLeft</text>
<text text-anchor="middle" x="1393.5" y="-328.917" font-family="Helvetica,sans-Serif" font-size="10.00">mpIniORBextractor</text>
</g>
<!-- Node18&#45;&gt;Node17 -->
<g id="edge41" class="edge"><title>Node18&#45;&gt;Node17</title>
<path fill="none" stroke="#9a32cd" stroke-dasharray="5,2" d="M1164.05,-298.93C1229.22,-289.611 1311.99,-277.374 1315,-274.917 1332.96,-260.235 1316.85,-242.577 1333,-225.917 1339.05,-219.678 1346.93,-215.013 1354.97,-211.542"/>
<polygon fill="#9a32cd" stroke="#9a32cd" points="1163.16,-295.521 1153.76,-300.399 1164.15,-302.451 1163.16,-295.521"/>
<text text-anchor="middle" x="1244.5" y="-299.917" font-family="Helvetica,sans-Serif" font-size="10.00"> mpORBextractorLeft</text>
</g>
<!-- Node19 -->
<g id="node19" class="node"><title>Node19</title>
<g id="a_node19"><a xlink:href="class_o_r_b___s_l_a_m2_1_1_viewer.html" target="_top" xlink:title="ORB_SLAM2::Viewer">
<polygon fill="white" stroke="black" points="1029,-566.417 1029,-585.417 1141,-585.417 1141,-566.417 1029,-566.417"/>
<text text-anchor="middle" x="1085" y="-573.417" font-family="Helvetica,sans-Serif" font-size="10.00">ORB_SLAM2::Viewer</text>
</a>
</g>
</g>
<!-- Node19&#45;&gt;Node1 -->
<g id="edge42" class="edge"><title>Node19&#45;&gt;Node1</title>
<path fill="none" stroke="#9a32cd" stroke-dasharray="5,2" d="M1151.48,-575.145C1264.52,-572.385 1489.46,-560.159 1544,-506.917 1593.83,-458.281 1613.49,-371.614 1618.86,-342.648"/>
<polygon fill="#9a32cd" stroke="#9a32cd" points="1151.14,-571.651 1141.22,-575.376 1151.3,-578.649 1151.14,-571.651"/>
<text text-anchor="middle" x="1393.5" y="-566.917" font-family="Helvetica,sans-Serif" font-size="10.00"> mpViewer</text>
</g>
<!-- Node20 -->
<g id="node20" class="node"><title>Node20</title>
<g id="a_node20"><a xlink:href="class_o_r_b___s_l_a_m2_1_1_system.html" target="_top" xlink:title="System se instancia una única vez en main, en la variable SLAM. ">
<polygon fill="white" stroke="black" points="1335.5,-601.417 1335.5,-620.417 1451.5,-620.417 1451.5,-601.417 1335.5,-601.417"/>
<text text-anchor="middle" x="1393.5" y="-608.417" font-family="Helvetica,sans-Serif" font-size="10.00">ORB_SLAM2::System</text>
</a>
</g>
</g>
<!-- Node19&#45;&gt;Node20 -->
<g id="edge44" class="edge"><title>Node19&#45;&gt;Node20</title>
<path fill="none" stroke="#9a32cd" stroke-dasharray="5,2" d="M1151.09,-583.349C1205.77,-589.594 1283.16,-598.431 1335.46,-604.403"/>
<polygon fill="#9a32cd" stroke="#9a32cd" points="1151.48,-579.872 1141.15,-582.214 1150.69,-586.827 1151.48,-579.872"/>
<text text-anchor="middle" x="1244.5" y="-604.917" font-family="Helvetica,sans-Serif" font-size="10.00"> mpViewer</text>
</g>
<!-- Node20&#45;&gt;Node1 -->
<g id="edge43" class="edge"><title>Node20&#45;&gt;Node1</title>
<path fill="none" stroke="#9a32cd" stroke-dasharray="5,2" d="M1462.02,-614.574C1490.37,-612.629 1521.83,-605.421 1544,-585.917 1619.8,-519.242 1621.82,-380.317 1620.88,-342.564"/>
<polygon fill="#9a32cd" stroke="#9a32cd" points="1461.56,-611.092 1451.74,-615.065 1461.9,-618.084 1461.56,-611.092"/>
<text text-anchor="middle" x="1508" y="-616.917" font-family="Helvetica,sans-Serif" font-size="10.00"> mpSystem</text>
</g>
</g>
</svg>
