<?xml version="1.0" encoding="UTF-8" standalone="no"?>
<!DOCTYPE svg PUBLIC "-//W3C//DTD SVG 1.1//EN"
 "http://www.w3.org/Graphics/SVG/1.1/DTD/svg11.dtd">
<!-- Generated by graphviz version 2.38.0 (20140413.2041)
 -->
<!-- Title: /home/alejandro/Desarrollo eclipse/os1/Thirdparty/g2o/g2o/core/creators.h Pages: 1 -->
<svg width="2157pt" height="685pt"
 viewBox="0.00 0.00 2156.50 685.00" xmlns="http://www.w3.org/2000/svg" xmlns:xlink="http://www.w3.org/1999/xlink">
<g id="graph0" class="graph" transform="scale(1 1) rotate(0) translate(4 681)">
<title>/home/alejandro/Desarrollo eclipse/os1/Thirdparty/g2o/g2o/core/creators.h</title>
<polygon fill="white" stroke="none" points="-4,4 -4,-681 2152.5,-681 2152.5,4 -4,4"/>
<!-- Node12 -->
<g id="node1" class="node"><title>Node12</title>
<polygon fill="#bfbfbf" stroke="black" points="1659.5,-635.5 1659.5,-676.5 1792.5,-676.5 1792.5,-635.5 1659.5,-635.5"/>
<text text-anchor="start" x="1667.5" y="-664.5" font-family="Helvetica,sans-Serif" font-size="10.00">/home/alejandro/Desarrollo</text>
<text text-anchor="start" x="1667.5" y="-653.5" font-family="Helvetica,sans-Serif" font-size="10.00"> eclipse/os1/Thirdparty</text>
<text text-anchor="middle" x="1726" y="-642.5" font-family="Helvetica,sans-Serif" font-size="10.00">/g2o/g2o/core/creators.h</text>
</g>
<!-- Node13 -->
<g id="node2" class="node"><title>Node13</title>
<g id="a_node2"><a xlink:href="base__vertex_8h.html" target="_top" xlink:title="/home/alejandro/Desarrollo\l eclipse/os1/Thirdparty\l/g2o/g2o/core/base_vertex.h">
<polygon fill="white" stroke="black" points="1267,-557.5 1267,-598.5 1407,-598.5 1407,-557.5 1267,-557.5"/>
<text text-anchor="start" x="1275" y="-586.5" font-family="Helvetica,sans-Serif" font-size="10.00">/home/alejandro/Desarrollo</text>
<text text-anchor="start" x="1275" y="-575.5" font-family="Helvetica,sans-Serif" font-size="10.00"> eclipse/os1/Thirdparty</text>
<text text-anchor="middle" x="1337" y="-564.5" font-family="Helvetica,sans-Serif" font-size="10.00">/g2o/g2o/core/base_vertex.h</text>
</a>
</g>
</g>
<!-- Node12&#45;&gt;Node13 -->
<g id="edge1" class="edge"><title>Node12&#45;&gt;Node13</title>
<path fill="none" stroke="midnightblue" d="M1648.99,-639.955C1578.62,-626.206 1475.43,-606.046 1407.26,-592.727"/>
<polygon fill="midnightblue" stroke="midnightblue" points="1648.64,-643.453 1659.13,-641.935 1649.99,-636.583 1648.64,-643.453"/>
</g>
<!-- Node38 -->
<g id="node27" class="node"><title>Node38</title>
<g id="a_node27"><a xlink:href="factory_8h.html" target="_top" xlink:title="/home/alejandro/Desarrollo\l eclipse/os1/Thirdparty\l/g2o/g2o/core/factory.h">
<polygon fill="white" stroke="black" points="1659.5,-557.5 1659.5,-598.5 1792.5,-598.5 1792.5,-557.5 1659.5,-557.5"/>
<text text-anchor="start" x="1667.5" y="-586.5" font-family="Helvetica,sans-Serif" font-size="10.00">/home/alejandro/Desarrollo</text>
<text text-anchor="start" x="1667.5" y="-575.5" font-family="Helvetica,sans-Serif" font-size="10.00"> eclipse/os1/Thirdparty</text>
<text text-anchor="middle" x="1726" y="-564.5" font-family="Helvetica,sans-Serif" font-size="10.00">/g2o/g2o/core/factory.h</text>
</a>
</g>
</g>
<!-- Node12&#45;&gt;Node38 -->
<g id="edge46" class="edge"><title>Node12&#45;&gt;Node38</title>
<path fill="none" stroke="midnightblue" d="M1726,-625.297C1726,-616.301 1726,-606.653 1726,-598.506"/>
<polygon fill="midnightblue" stroke="midnightblue" points="1722.5,-625.428 1726,-635.428 1729.5,-625.428 1722.5,-625.428"/>
</g>
<!-- Node40 -->
<g id="node29" class="node"><title>Node40</title>
<g id="a_node29"><a xlink:href="factory_8cpp.html" target="_top" xlink:title="/home/alejandro/Desarrollo\l eclipse/os1/Thirdparty\l/g2o/g2o/core/factory.cpp">
<polygon fill="white" stroke="black" points="2015.5,-474 2015.5,-515 2148.5,-515 2148.5,-474 2015.5,-474"/>
<text text-anchor="start" x="2023.5" y="-503" font-family="Helvetica,sans-Serif" font-size="10.00">/home/alejandro/Desarrollo</text>
<text text-anchor="start" x="2023.5" y="-492" font-family="Helvetica,sans-Serif" font-size="10.00"> eclipse/os1/Thirdparty</text>
<text text-anchor="middle" x="2082" y="-481" font-family="Helvetica,sans-Serif" font-size="10.00">/g2o/g2o/core/factory.cpp</text>
</a>
</g>
</g>
<!-- Node12&#45;&gt;Node40 -->
<g id="edge52" class="edge"><title>Node12&#45;&gt;Node40</title>
<path fill="none" stroke="midnightblue" d="M1778.81,-631.338C1849.28,-599.769 1972.74,-544.45 2038.27,-515.093"/>
<polygon fill="midnightblue" stroke="midnightblue" points="1777.35,-628.159 1769.65,-635.442 1780.21,-634.547 1777.35,-628.159"/>
</g>
<!-- Node14 -->
<g id="node3" class="node"><title>Node14</title>
<g id="a_node3"><a xlink:href="types__six__dof__expmap_8h.html" target="_top" xlink:title="/home/alejandro/Desarrollo\l eclipse/os1/Thirdparty\l/g2o/g2o/types/types_six\l_dof_expmap.h">
<polygon fill="white" stroke="black" points="1318.5,-379.5 1318.5,-431.5 1451.5,-431.5 1451.5,-379.5 1318.5,-379.5"/>
<text text-anchor="start" x="1326.5" y="-419.5" font-family="Helvetica,sans-Serif" font-size="10.00">/home/alejandro/Desarrollo</text>
<text text-anchor="start" x="1326.5" y="-408.5" font-family="Helvetica,sans-Serif" font-size="10.00"> eclipse/os1/Thirdparty</text>
<text text-anchor="start" x="1326.5" y="-397.5" font-family="Helvetica,sans-Serif" font-size="10.00">/g2o/g2o/types/types_six</text>
<text text-anchor="middle" x="1385" y="-386.5" font-family="Helvetica,sans-Serif" font-size="10.00">_dof_expmap.h</text>
</a>
</g>
</g>
<!-- Node13&#45;&gt;Node14 -->
<g id="edge2" class="edge"><title>Node13&#45;&gt;Node14</title>
<path fill="none" stroke="midnightblue" d="M1353.25,-548.501C1357.61,-539.884 1361.95,-530.249 1365,-521 1374.85,-491.101 1380.12,-455.123 1382.74,-431.578"/>
<polygon fill="midnightblue" stroke="midnightblue" points="1350.13,-546.906 1348.57,-557.385 1356.33,-550.166 1350.13,-546.906"/>
</g>
<!-- Node23 -->
<g id="node12" class="node"><title>Node23</title>
<g id="a_node12"><a xlink:href="types__seven__dof__expmap_8h.html" target="_top" xlink:title="/home/alejandro/Desarrollo\l eclipse/os1/Thirdparty\l/g2o/g2o/types/types_seven\l_dof_expmap.h">
<polygon fill="white" stroke="black" points="1097,-290.5 1097,-342.5 1237,-342.5 1237,-290.5 1097,-290.5"/>
<text text-anchor="start" x="1105" y="-330.5" font-family="Helvetica,sans-Serif" font-size="10.00">/home/alejandro/Desarrollo</text>
<text text-anchor="start" x="1105" y="-319.5" font-family="Helvetica,sans-Serif" font-size="10.00"> eclipse/os1/Thirdparty</text>
<text text-anchor="start" x="1105" y="-308.5" font-family="Helvetica,sans-Serif" font-size="10.00">/g2o/g2o/types/types_seven</text>
<text text-anchor="middle" x="1167" y="-297.5" font-family="Helvetica,sans-Serif" font-size="10.00">_dof_expmap.h</text>
</a>
</g>
</g>
<!-- Node13&#45;&gt;Node23 -->
<g id="edge45" class="edge"><title>Node13&#45;&gt;Node23</title>
<path fill="none" stroke="midnightblue" d="M1266.51,-553.472C1247.05,-545.035 1226.71,-534.252 1210,-521 1171.2,-490.239 1158.7,-478.956 1143,-432 1132.95,-401.951 1144.06,-366.006 1154.28,-342.509"/>
<polygon fill="midnightblue" stroke="midnightblue" points="1265.4,-556.799 1275.97,-557.426 1268.1,-550.341 1265.4,-556.799"/>
</g>
<!-- Node36 -->
<g id="node25" class="node"><title>Node36</title>
<g id="a_node25"><a xlink:href="types__sba_8h.html" target="_top" xlink:title="/home/alejandro/Desarrollo\l eclipse/os1/Thirdparty\l/g2o/g2o/types/types_sba.h">
<polygon fill="white" stroke="black" points="1219.5,-474 1219.5,-515 1356.5,-515 1356.5,-474 1219.5,-474"/>
<text text-anchor="start" x="1227.5" y="-503" font-family="Helvetica,sans-Serif" font-size="10.00">/home/alejandro/Desarrollo</text>
<text text-anchor="start" x="1227.5" y="-492" font-family="Helvetica,sans-Serif" font-size="10.00"> eclipse/os1/Thirdparty</text>
<text text-anchor="middle" x="1288" y="-481" font-family="Helvetica,sans-Serif" font-size="10.00">/g2o/g2o/types/types_sba.h</text>
</a>
</g>
</g>
<!-- Node13&#45;&gt;Node36 -->
<g id="edge42" class="edge"><title>Node13&#45;&gt;Node36</title>
<path fill="none" stroke="midnightblue" d="M1319.8,-548.394C1313.17,-537.365 1305.75,-525.03 1299.75,-515.047"/>
<polygon fill="midnightblue" stroke="midnightblue" points="1316.99,-550.504 1325.14,-557.271 1322.99,-546.897 1316.99,-550.504"/>
</g>
<!-- Node15 -->
<g id="node4" class="node"><title>Node15</title>
<g id="a_node4"><a xlink:href="_converter_8h.html" target="_top" xlink:title="/home/alejandro/Desarrollo\l eclipse/os1/include/Converter.h">
<polygon fill="white" stroke="black" points="1314.5,-134.5 1314.5,-164.5 1471.5,-164.5 1471.5,-134.5 1314.5,-134.5"/>
<text text-anchor="start" x="1322.5" y="-152.5" font-family="Helvetica,sans-Serif" font-size="10.00">/home/alejandro/Desarrollo</text>
<text text-anchor="middle" x="1393" y="-141.5" font-family="Helvetica,sans-Serif" font-size="10.00"> eclipse/os1/include/Converter.h</text>
</a>
</g>
</g>
<!-- Node14&#45;&gt;Node15 -->
<g id="edge3" class="edge"><title>Node14&#45;&gt;Node15</title>
<path fill="none" stroke="midnightblue" d="M1386.12,-368.909C1387.91,-312.078 1391.34,-203.304 1392.56,-164.6"/>
<polygon fill="midnightblue" stroke="midnightblue" points="1382.61,-369.112 1385.8,-379.217 1389.61,-369.332 1382.61,-369.112"/>
</g>
<!-- Node20 -->
<g id="node9" class="node"><title>Node20</title>
<g id="a_node9"><a xlink:href="_optimizer_8cc.html" target="_top" xlink:title="/home/alejandro/Desarrollo\l eclipse/os1/src/Optimizer.cc">
<polygon fill="white" stroke="black" points="1214,-67.5 1214,-97.5 1358,-97.5 1358,-67.5 1214,-67.5"/>
<text text-anchor="start" x="1222" y="-85.5" font-family="Helvetica,sans-Serif" font-size="10.00">/home/alejandro/Desarrollo</text>
<text text-anchor="middle" x="1286" y="-74.5" font-family="Helvetica,sans-Serif" font-size="10.00"> eclipse/os1/src/Optimizer.cc</text>
</a>
</g>
</g>
<!-- Node14&#45;&gt;Node20 -->
<g id="edge40" class="edge"><title>Node14&#45;&gt;Node20</title>
<path fill="none" stroke="midnightblue" d="M1372.22,-369.66C1355.49,-323.325 1325.85,-238.686 1305,-165 1298.39,-141.653 1292.32,-114.084 1288.9,-97.7369"/>
<polygon fill="midnightblue" stroke="midnightblue" points="1368.99,-371.013 1375.69,-379.222 1375.57,-368.628 1368.99,-371.013"/>
</g>
<!-- Node14&#45;&gt;Node23 -->
<g id="edge11" class="edge"><title>Node14&#45;&gt;Node23</title>
<path fill="none" stroke="midnightblue" d="M1312.88,-375.717C1285.98,-364.982 1255.68,-352.891 1229.7,-342.521"/>
<polygon fill="midnightblue" stroke="midnightblue" points="1311.65,-378.997 1322.24,-379.453 1314.25,-372.495 1311.65,-378.997"/>
</g>
<!-- Node35 -->
<g id="node24" class="node"><title>Node35</title>
<g id="a_node24"><a xlink:href="types__six__dof__expmap_8cpp.html" target="_top" xlink:title="/home/alejandro/Desarrollo\l eclipse/os1/Thirdparty\l/g2o/g2o/types/types_six\l_dof_expmap.cpp">
<polygon fill="white" stroke="black" points="1413.5,-290.5 1413.5,-342.5 1546.5,-342.5 1546.5,-290.5 1413.5,-290.5"/>
<text text-anchor="start" x="1421.5" y="-330.5" font-family="Helvetica,sans-Serif" font-size="10.00">/home/alejandro/Desarrollo</text>
<text text-anchor="start" x="1421.5" y="-319.5" font-family="Helvetica,sans-Serif" font-size="10.00"> eclipse/os1/Thirdparty</text>
<text text-anchor="start" x="1421.5" y="-308.5" font-family="Helvetica,sans-Serif" font-size="10.00">/g2o/g2o/types/types_six</text>
<text text-anchor="middle" x="1480" y="-297.5" font-family="Helvetica,sans-Serif" font-size="10.00">_dof_expmap.cpp</text>
</a>
</g>
</g>
<!-- Node14&#45;&gt;Node35 -->
<g id="edge41" class="edge"><title>Node14&#45;&gt;Node35</title>
<path fill="none" stroke="midnightblue" d="M1420.09,-372.363C1430.82,-362.542 1442.45,-351.89 1452.58,-342.607"/>
<polygon fill="midnightblue" stroke="midnightblue" points="1417.49,-370.001 1412.48,-379.336 1422.22,-375.163 1417.49,-370.001"/>
</g>
<!-- Node16 -->
<g id="node5" class="node"><title>Node16</title>
<g id="a_node5"><a xlink:href="_converter_8cc.html" target="_top" xlink:title="/home/alejandro/Desarrollo\l eclipse/os1/src/Converter.cc">
<polygon fill="white" stroke="black" points="1769.5,-67.5 1769.5,-97.5 1914.5,-97.5 1914.5,-67.5 1769.5,-67.5"/>
<text text-anchor="start" x="1777.5" y="-85.5" font-family="Helvetica,sans-Serif" font-size="10.00">/home/alejandro/Desarrollo</text>
<text text-anchor="middle" x="1842" y="-74.5" font-family="Helvetica,sans-Serif" font-size="10.00"> eclipse/os1/src/Converter.cc</text>
</a>
</g>
</g>
<!-- Node15&#45;&gt;Node16 -->
<g id="edge4" class="edge"><title>Node15&#45;&gt;Node16</title>
<path fill="none" stroke="midnightblue" d="M1481.95,-136.761C1555.28,-126.922 1661.99,-112.235 1755,-98 1759.69,-97.2818 1764.52,-96.525 1769.39,-95.7493"/>
<polygon fill="midnightblue" stroke="midnightblue" points="1481.27,-133.32 1471.82,-138.117 1482.2,-140.258 1481.27,-133.32"/>
</g>
<!-- Node17 -->
<g id="node6" class="node"><title>Node17</title>
<g id="a_node6"><a xlink:href="_frame_8cc.html" target="_top" xlink:title="/home/alejandro/Desarrollo\l eclipse/os1/src/Frame.cc">
<polygon fill="white" stroke="black" points="1414.5,-67.5 1414.5,-97.5 1547.5,-97.5 1547.5,-67.5 1414.5,-67.5"/>
<text text-anchor="start" x="1422.5" y="-85.5" font-family="Helvetica,sans-Serif" font-size="10.00">/home/alejandro/Desarrollo</text>
<text text-anchor="middle" x="1481" y="-74.5" font-family="Helvetica,sans-Serif" font-size="10.00"> eclipse/os1/src/Frame.cc</text>
</a>
</g>
</g>
<!-- Node15&#45;&gt;Node17 -->
<g id="edge5" class="edge"><title>Node15&#45;&gt;Node17</title>
<path fill="none" stroke="midnightblue" d="M1420.14,-128.451C1433.68,-118.452 1449.73,-106.6 1461.94,-97.5765"/>
<polygon fill="midnightblue" stroke="midnightblue" points="1418.06,-125.639 1412.09,-134.396 1422.22,-131.27 1418.06,-125.639"/>
</g>
<!-- Node18 -->
<g id="node7" class="node"><title>Node18</title>
<g id="a_node7"><a xlink:href="_key_frame_8cc.html" target="_top" xlink:title="/home/alejandro/Desarrollo\l eclipse/os1/src/KeyFrame.cc">
<polygon fill="white" stroke="black" points="1565.5,-67.5 1565.5,-97.5 1712.5,-97.5 1712.5,-67.5 1565.5,-67.5"/>
<text text-anchor="start" x="1573.5" y="-85.5" font-family="Helvetica,sans-Serif" font-size="10.00">/home/alejandro/Desarrollo</text>
<text text-anchor="middle" x="1639" y="-74.5" font-family="Helvetica,sans-Serif" font-size="10.00"> eclipse/os1/src/KeyFrame.cc</text>
</a>
</g>
</g>
<!-- Node15&#45;&gt;Node18 -->
<g id="edge6" class="edge"><title>Node15&#45;&gt;Node18</title>
<path fill="none" stroke="midnightblue" d="M1455.76,-131.917C1495.9,-121.31 1547.42,-107.699 1585.6,-97.6109"/>
<polygon fill="midnightblue" stroke="midnightblue" points="1454.85,-128.537 1446.08,-134.476 1456.64,-135.305 1454.85,-128.537"/>
</g>
<!-- Node19 -->
<g id="node8" class="node"><title>Node19</title>
<g id="a_node8"><a xlink:href="_loop_closing_8cc.html" target="_top" xlink:title="/home/alejandro/Desarrollo\l eclipse/os1/src/LoopClosing.cc">
<polygon fill="white" stroke="black" points="1040,-67.5 1040,-97.5 1196,-97.5 1196,-67.5 1040,-67.5"/>
<text text-anchor="start" x="1048" y="-85.5" font-family="Helvetica,sans-Serif" font-size="10.00">/home/alejandro/Desarrollo</text>
<text text-anchor="middle" x="1118" y="-74.5" font-family="Helvetica,sans-Serif" font-size="10.00"> eclipse/os1/src/LoopClosing.cc</text>
</a>
</g>
</g>
<!-- Node15&#45;&gt;Node19 -->
<g id="edge7" class="edge"><title>Node15&#45;&gt;Node19</title>
<path fill="none" stroke="midnightblue" d="M1323.69,-132.119C1278.7,-121.483 1220.65,-107.763 1177.7,-97.6109"/>
<polygon fill="midnightblue" stroke="midnightblue" points="1323.13,-135.582 1333.67,-134.476 1324.74,-128.77 1323.13,-135.582"/>
</g>
<!-- Node15&#45;&gt;Node20 -->
<g id="edge8" class="edge"><title>Node15&#45;&gt;Node20</title>
<path fill="none" stroke="midnightblue" d="M1360.92,-129.015C1344.27,-118.9 1324.31,-106.77 1309.17,-97.5765"/>
<polygon fill="midnightblue" stroke="midnightblue" points="1359.42,-132.195 1369.78,-134.396 1363.05,-126.213 1359.42,-132.195"/>
</g>
<!-- Node21 -->
<g id="node10" class="node"><title>Node21</title>
<g id="a_node10"><a xlink:href="_system_8cc.html" target="_top" xlink:title="/home/alejandro/Desarrollo\l eclipse/os1/src/System.cc">
<polygon fill="white" stroke="black" points="648,-0.5 648,-30.5 784,-30.5 784,-0.5 648,-0.5"/>
<text text-anchor="start" x="656" y="-18.5" font-family="Helvetica,sans-Serif" font-size="10.00">/home/alejandro/Desarrollo</text>
<text text-anchor="middle" x="716" y="-7.5" font-family="Helvetica,sans-Serif" font-size="10.00"> eclipse/os1/src/System.cc</text>
</a>
</g>
</g>
<!-- Node15&#45;&gt;Node21 -->
<g id="edge9" class="edge"><title>Node15&#45;&gt;Node21</title>
<path fill="none" stroke="midnightblue" d="M1392.19,-124.175C1390.16,-105.456 1384.13,-80.5639 1367,-67 1361.32,-62.5058 949.798,-33.0014 784.052,-21.2844"/>
<polygon fill="midnightblue" stroke="midnightblue" points="1388.71,-124.65 1392.97,-134.351 1395.69,-124.111 1388.71,-124.65"/>
</g>
<!-- Node22 -->
<g id="node11" class="node"><title>Node22</title>
<g id="a_node11"><a xlink:href="_tracking_8cc.html" target="_top" xlink:title="/home/alejandro/Desarrollo\l eclipse/os1/src/Tracking.cc">
<polygon fill="white" stroke="black" points="942,-0.5 942,-30.5 1082,-30.5 1082,-0.5 942,-0.5"/>
<text text-anchor="start" x="950" y="-18.5" font-family="Helvetica,sans-Serif" font-size="10.00">/home/alejandro/Desarrollo</text>
<text text-anchor="middle" x="1012" y="-7.5" font-family="Helvetica,sans-Serif" font-size="10.00"> eclipse/os1/src/Tracking.cc</text>
</a>
</g>
</g>
<!-- Node15&#45;&gt;Node22 -->
<g id="edge10" class="edge"><title>Node15&#45;&gt;Node22</title>
<path fill="none" stroke="midnightblue" d="M1481.93,-147.363C1568.31,-144.15 1690.73,-133.282 1721,-98 1729.97,-87.5426 1730.39,-77.0825 1721,-67 1678.08,-20.9162 1252.83,-16.2162 1082.25,-16.2036"/>
<polygon fill="midnightblue" stroke="midnightblue" points="1481.72,-143.868 1471.84,-147.71 1481.96,-150.864 1481.72,-143.868"/>
</g>
<!-- Node23&#45;&gt;Node15 -->
<g id="edge12" class="edge"><title>Node23&#45;&gt;Node15</title>
<path fill="none" stroke="midnightblue" d="M1209.55,-284.434C1258.75,-248.517 1337.58,-190.962 1373.74,-164.561"/>
<polygon fill="midnightblue" stroke="midnightblue" points="1207.34,-281.717 1201.32,-290.44 1211.46,-287.37 1207.34,-281.717"/>
</g>
<!-- Node23&#45;&gt;Node20 -->
<g id="edge38" class="edge"><title>Node23&#45;&gt;Node20</title>
<path fill="none" stroke="midnightblue" d="M1184.64,-281.103C1211.19,-229.355 1260.25,-133.704 1278.72,-97.7007"/>
<polygon fill="midnightblue" stroke="midnightblue" points="1181.41,-279.735 1179.96,-290.23 1187.64,-282.93 1181.41,-279.735"/>
</g>
<!-- Node24 -->
<g id="node13" class="node"><title>Node24</title>
<g id="a_node13"><a xlink:href="_loop_closing_8h.html" target="_top" xlink:title="/home/alejandro/Desarrollo\l eclipse/os1/include/LoopClosing.h">
<polygon fill="white" stroke="black" points="623,-212.5 623,-242.5 791,-242.5 791,-212.5 623,-212.5"/>
<text text-anchor="start" x="631" y="-230.5" font-family="Helvetica,sans-Serif" font-size="10.00">/home/alejandro/Desarrollo</text>
<text text-anchor="middle" x="707" y="-219.5" font-family="Helvetica,sans-Serif" font-size="10.00"> eclipse/os1/include/LoopClosing.h</text>
</a>
</g>
</g>
<!-- Node23&#45;&gt;Node24 -->
<g id="edge13" class="edge"><title>Node23&#45;&gt;Node24</title>
<path fill="none" stroke="midnightblue" d="M1086.9,-300.35C1000.79,-284.065 865.029,-258.388 781.256,-242.544"/>
<polygon fill="midnightblue" stroke="midnightblue" points="1086.41,-303.82 1096.89,-302.239 1087.71,-296.942 1086.41,-303.82"/>
</g>
<!-- Node32 -->
<g id="node21" class="node"><title>Node32</title>
<g id="a_node21"><a xlink:href="_optimizer_8h.html" target="_top" xlink:title="/home/alejandro/Desarrollo\l eclipse/os1/include/Optimizer.h">
<polygon fill="white" stroke="black" points="934,-134.5 934,-164.5 1090,-164.5 1090,-134.5 934,-134.5"/>
<text text-anchor="start" x="942" y="-152.5" font-family="Helvetica,sans-Serif" font-size="10.00">/home/alejandro/Desarrollo</text>
<text text-anchor="middle" x="1012" y="-141.5" font-family="Helvetica,sans-Serif" font-size="10.00"> eclipse/os1/include/Optimizer.h</text>
</a>
</g>
</g>
<!-- Node23&#45;&gt;Node32 -->
<g id="edge37" class="edge"><title>Node23&#45;&gt;Node32</title>
<path fill="none" stroke="midnightblue" d="M1169.89,-280.143C1170,-255.367 1166.07,-222.896 1148,-201 1133.33,-183.224 1111.78,-171.704 1090.13,-164.238"/>
<polygon fill="midnightblue" stroke="midnightblue" points="1166.39,-280.148 1169.62,-290.237 1173.39,-280.333 1166.39,-280.148"/>
</g>
<!-- Node34 -->
<g id="node23" class="node"><title>Node34</title>
<g id="a_node23"><a xlink:href="types__seven__dof__expmap_8cpp.html" target="_top" xlink:title="/home/alejandro/Desarrollo\l eclipse/os1/Thirdparty\l/g2o/g2o/types/types_seven\l_dof_expmap.cpp">
<polygon fill="white" stroke="black" points="999,-201.5 999,-253.5 1139,-253.5 1139,-201.5 999,-201.5"/>
<text text-anchor="start" x="1007" y="-241.5" font-family="Helvetica,sans-Serif" font-size="10.00">/home/alejandro/Desarrollo</text>
<text text-anchor="start" x="1007" y="-230.5" font-family="Helvetica,sans-Serif" font-size="10.00"> eclipse/os1/Thirdparty</text>
<text text-anchor="start" x="1007" y="-219.5" font-family="Helvetica,sans-Serif" font-size="10.00">/g2o/g2o/types/types_seven</text>
<text text-anchor="middle" x="1069" y="-208.5" font-family="Helvetica,sans-Serif" font-size="10.00">_dof_expmap.cpp</text>
</a>
</g>
</g>
<!-- Node23&#45;&gt;Node34 -->
<g id="edge39" class="edge"><title>Node23&#45;&gt;Node34</title>
<path fill="none" stroke="midnightblue" d="M1131.12,-283.649C1119.97,-273.749 1107.84,-262.98 1097.28,-253.607"/>
<polygon fill="midnightblue" stroke="midnightblue" points="1128.85,-286.314 1138.65,-290.336 1133.5,-281.08 1128.85,-286.314"/>
</g>
<!-- Node24&#45;&gt;Node19 -->
<g id="edge35" class="edge"><title>Node24&#45;&gt;Node19</title>
<path fill="none" stroke="midnightblue" d="M801.442,-217.226C910.413,-205.672 1077.47,-185.007 1099,-165 1117.63,-147.694 1119.67,-115.963 1119.09,-97.6166"/>
<polygon fill="midnightblue" stroke="midnightblue" points="800.992,-213.754 791.413,-218.281 801.724,-220.715 800.992,-213.754"/>
</g>
<!-- Node24&#45;&gt;Node21 -->
<g id="edge36" class="edge"><title>Node24&#45;&gt;Node21</title>
<path fill="none" stroke="midnightblue" d="M705.732,-202.045C703.866,-182.626 699.275,-155.294 688,-134 677.558,-114.278 661.394,-118.676 653,-98 647.817,-85.2342 647.038,-79.4208 653,-67 660.461,-51.4563 675.296,-39.1912 688.697,-30.6424"/>
<polygon fill="midnightblue" stroke="midnightblue" points="702.257,-202.499 706.529,-212.194 709.235,-201.95 702.257,-202.499"/>
</g>
<!-- Node25 -->
<g id="node14" class="node"><title>Node25</title>
<g id="a_node14"><a xlink:href="_local_mapping_8h.html" target="_top" xlink:title="/home/alejandro/Desarrollo\l eclipse/os1/include/LocalMapping.h">
<polygon fill="white" stroke="black" points="505,-134.5 505,-164.5 679,-164.5 679,-134.5 505,-134.5"/>
<text text-anchor="start" x="513" y="-152.5" font-family="Helvetica,sans-Serif" font-size="10.00">/home/alejandro/Desarrollo</text>
<text text-anchor="middle" x="592" y="-141.5" font-family="Helvetica,sans-Serif" font-size="10.00"> eclipse/os1/include/LocalMapping.h</text>
</a>
</g>
</g>
<!-- Node24&#45;&gt;Node25 -->
<g id="edge14" class="edge"><title>Node24&#45;&gt;Node25</title>
<path fill="none" stroke="midnightblue" d="M671.459,-206.967C650.189,-193.699 624.311,-176.463 607.869,-164.541"/>
<polygon fill="midnightblue" stroke="midnightblue" points="669.901,-210.118 680.251,-212.383 673.572,-204.158 669.901,-210.118"/>
</g>
<!-- Node26 -->
<g id="node15" class="node"><title>Node26</title>
<g id="a_node15"><a xlink:href="_tracking_8h.html" target="_top" xlink:title="/home/alejandro/Desarrollo\l eclipse/os1/include/Tracking.h">
<polygon fill="white" stroke="black" points="403,-67.5 403,-97.5 555,-97.5 555,-67.5 403,-67.5"/>
<text text-anchor="start" x="411" y="-85.5" font-family="Helvetica,sans-Serif" font-size="10.00">/home/alejandro/Desarrollo</text>
<text text-anchor="middle" x="479" y="-74.5" font-family="Helvetica,sans-Serif" font-size="10.00"> eclipse/os1/include/Tracking.h</text>
</a>
</g>
</g>
<!-- Node24&#45;&gt;Node26 -->
<g id="edge27" class="edge"><title>Node24&#45;&gt;Node26</title>
<path fill="none" stroke="midnightblue" d="M612.82,-221.801C568.593,-214.926 518.795,-199.376 487,-165 469.923,-146.537 468.207,-115.521 471.685,-97.5459"/>
<polygon fill="midnightblue" stroke="midnightblue" points="612.355,-225.27 622.749,-223.216 613.343,-218.34 612.355,-225.27"/>
</g>
<!-- Node31 -->
<g id="node20" class="node"><title>Node31</title>
<g id="a_node20"><a xlink:href="_local_mapping_8cc.html" target="_top" xlink:title="/home/alejandro/Desarrollo\l eclipse/os1/src/LocalMapping.cc">
<polygon fill="white" stroke="black" points="662,-67.5 662,-97.5 824,-97.5 824,-67.5 662,-67.5"/>
<text text-anchor="start" x="670" y="-85.5" font-family="Helvetica,sans-Serif" font-size="10.00">/home/alejandro/Desarrollo</text>
<text text-anchor="middle" x="743" y="-74.5" font-family="Helvetica,sans-Serif" font-size="10.00"> eclipse/os1/src/LocalMapping.cc</text>
</a>
</g>
</g>
<!-- Node24&#45;&gt;Node31 -->
<g id="edge34" class="edge"><title>Node24&#45;&gt;Node31</title>
<path fill="none" stroke="midnightblue" d="M713.119,-202.194C720.68,-172.159 733.296,-122.048 739.431,-97.6766"/>
<polygon fill="midnightblue" stroke="midnightblue" points="709.631,-201.714 710.583,-212.266 716.419,-203.423 709.631,-201.714"/>
</g>
<!-- Node24&#45;&gt;Node32 -->
<g id="edge28" class="edge"><title>Node24&#45;&gt;Node32</title>
<path fill="none" stroke="midnightblue" d="M773.211,-210.001C827.732,-196.416 904.186,-177.365 955.773,-164.511"/>
<polygon fill="midnightblue" stroke="midnightblue" points="772.154,-206.658 763.297,-212.472 773.847,-213.45 772.154,-206.658"/>
</g>
<!-- Node25&#45;&gt;Node21 -->
<g id="edge26" class="edge"><title>Node25&#45;&gt;Node21</title>
<path fill="none" stroke="midnightblue" d="M595.453,-124.166C599.026,-106.584 606.13,-83.1785 620,-67 634.096,-50.5584 654.9,-38.6977 673.541,-30.6203"/>
<polygon fill="midnightblue" stroke="midnightblue" points="591.966,-123.785 593.656,-134.244 598.857,-125.014 591.966,-123.785"/>
</g>
<!-- Node25&#45;&gt;Node24 -->
<g id="edge15" class="edge"><title>Node25&#45;&gt;Node24</title>
<path fill="none" stroke="midnightblue" d="M627.662,-170.109C648.758,-183.272 674.355,-200.316 690.781,-212.205"/>
<polygon fill="midnightblue" stroke="midnightblue" points="629.286,-166.998 618.937,-164.731 625.613,-172.957 629.286,-166.998"/>
</g>
<!-- Node25&#45;&gt;Node26 -->
<g id="edge16" class="edge"><title>Node25&#45;&gt;Node26</title>
<path fill="none" stroke="midnightblue" d="M552.903,-129.575C534.244,-119.35 512.844,-106.94 497.797,-97.5765"/>
<polygon fill="midnightblue" stroke="midnightblue" points="551.342,-132.71 561.802,-134.396 554.677,-126.555 551.342,-132.71"/>
</g>
<!-- Node25&#45;&gt;Node31 -->
<g id="edge25" class="edge"><title>Node25&#45;&gt;Node31</title>
<path fill="none" stroke="midnightblue" d="M634.032,-130.407C658.139,-120.029 687.954,-107.195 710.299,-97.5765"/>
<polygon fill="midnightblue" stroke="midnightblue" points="632.566,-127.227 624.765,-134.396 635.334,-133.657 632.566,-127.227"/>
</g>
<!-- Node26&#45;&gt;Node21 -->
<g id="edge22" class="edge"><title>Node26&#45;&gt;Node21</title>
<path fill="none" stroke="midnightblue" d="M540.201,-64.7149C578.768,-54.1373 628.001,-40.6348 664.549,-30.6109"/>
<polygon fill="midnightblue" stroke="midnightblue" points="538.852,-61.4556 530.134,-67.476 540.703,-68.2063 538.852,-61.4556"/>
</g>
<!-- Node26&#45;&gt;Node22 -->
<g id="edge23" class="edge"><title>Node26&#45;&gt;Node22</title>
<path fill="none" stroke="midnightblue" d="M565.309,-70.9745C670.056,-58.2005 844.665,-36.9067 941.642,-25.0802"/>
<polygon fill="midnightblue" stroke="midnightblue" points="564.585,-67.5367 555.083,-72.2216 565.433,-74.4853 564.585,-67.5367"/>
</g>
<!-- Node26&#45;&gt;Node24 -->
<g id="edge17" class="edge"><title>Node26&#45;&gt;Node24</title>
<path fill="none" stroke="midnightblue" d="M485.165,-107.586C487.217,-125.586 490.792,-149.638 505,-165 535.313,-197.774 581.991,-213.436 622.885,-220.782"/>
<polygon fill="midnightblue" stroke="midnightblue" points="488.631,-107.091 484.033,-97.5459 481.675,-107.875 488.631,-107.091"/>
</g>
<!-- Node26&#45;&gt;Node25 -->
<g id="edge18" class="edge"><title>Node26&#45;&gt;Node25</title>
<path fill="none" stroke="midnightblue" d="M518.042,-102.395C536.695,-112.615 558.099,-125.026 573.159,-134.396"/>
<polygon fill="midnightblue" stroke="midnightblue" points="519.606,-99.2616 509.146,-97.5765 516.272,-105.417 519.606,-99.2616"/>
</g>
<!-- Node27 -->
<g id="node16" class="node"><title>Node27</title>
<g id="a_node16"><a xlink:href="_frame_drawer_8cc.html" target="_top" xlink:title="/home/alejandro/Desarrollo\l eclipse/os1/src/FrameDrawer.cc">
<polygon fill="white" stroke="black" points="317.5,-0.5 317.5,-30.5 478.5,-30.5 478.5,-0.5 317.5,-0.5"/>
<text text-anchor="start" x="325.5" y="-18.5" font-family="Helvetica,sans-Serif" font-size="10.00">/home/alejandro/Desarrollo</text>
<text text-anchor="middle" x="398" y="-7.5" font-family="Helvetica,sans-Serif" font-size="10.00"> eclipse/os1/src/FrameDrawer.cc</text>
</a>
</g>
</g>
<!-- Node26&#45;&gt;Node27 -->
<g id="edge19" class="edge"><title>Node26&#45;&gt;Node27</title>
<path fill="none" stroke="midnightblue" d="M453.308,-60.8832C440.999,-51.0054 426.573,-39.4293 415.541,-30.5765"/>
<polygon fill="midnightblue" stroke="midnightblue" points="451.434,-63.867 461.424,-67.396 455.815,-58.4075 451.434,-63.867"/>
</g>
<!-- Node28 -->
<g id="node17" class="node"><title>Node28</title>
<g id="a_node17"><a xlink:href="main_8cc.html" target="_top" xlink:title="/home/alejandro/Desarrollo\l eclipse/os1/src/main.cc">
<polygon fill="white" stroke="black" points="496.5,-0.5 496.5,-30.5 629.5,-30.5 629.5,-0.5 496.5,-0.5"/>
<text text-anchor="start" x="504.5" y="-18.5" font-family="Helvetica,sans-Serif" font-size="10.00">/home/alejandro/Desarrollo</text>
<text text-anchor="middle" x="563" y="-7.5" font-family="Helvetica,sans-Serif" font-size="10.00"> eclipse/os1/src/main.cc</text>
</a>
</g>
</g>
<!-- Node26&#45;&gt;Node28 -->
<g id="edge20" class="edge"><title>Node26&#45;&gt;Node28</title>
<path fill="none" stroke="midnightblue" d="M505.276,-61.1677C518.12,-51.2283 533.258,-39.5144 544.809,-30.5765"/>
<polygon fill="midnightblue" stroke="midnightblue" points="502.994,-58.508 497.227,-67.396 507.277,-64.0442 502.994,-58.508"/>
</g>
<!-- Node29 -->
<g id="node18" class="node"><title>Node29</title>
<g id="a_node18"><a xlink:href="_serializer_8cpp.html" target="_top" xlink:title="/home/alejandro/Desarrollo\l eclipse/os1/src/Serializer.cpp">
<polygon fill="white" stroke="black" points="0,-0.5 0,-30.5 148,-30.5 148,-0.5 0,-0.5"/>
<text text-anchor="start" x="8" y="-18.5" font-family="Helvetica,sans-Serif" font-size="10.00">/home/alejandro/Desarrollo</text>
<text text-anchor="middle" x="74" y="-7.5" font-family="Helvetica,sans-Serif" font-size="10.00"> eclipse/os1/src/Serializer.cpp</text>
</a>
</g>
</g>
<!-- Node26&#45;&gt;Node29 -->
<g id="edge21" class="edge"><title>Node26&#45;&gt;Node29</title>
<path fill="none" stroke="midnightblue" d="M392.639,-68.3726C327.765,-58.4103 236.749,-44.2187 157,-31 154.114,-30.5216 151.172,-30.0295 148.201,-29.5286"/>
<polygon fill="midnightblue" stroke="midnightblue" points="392.405,-71.8777 402.82,-69.9344 393.466,-64.9586 392.405,-71.8777"/>
</g>
<!-- Node30 -->
<g id="node19" class="node"><title>Node30</title>
<g id="a_node19"><a xlink:href="_viewer_8cc.html" target="_top" xlink:title="/home/alejandro/Desarrollo\l eclipse/os1/src/Viewer.cc">
<polygon fill="white" stroke="black" points="166.5,-0.5 166.5,-30.5 299.5,-30.5 299.5,-0.5 166.5,-0.5"/>
<text text-anchor="start" x="174.5" y="-18.5" font-family="Helvetica,sans-Serif" font-size="10.00">/home/alejandro/Desarrollo</text>
<text text-anchor="middle" x="233" y="-7.5" font-family="Helvetica,sans-Serif" font-size="10.00"> eclipse/os1/src/Viewer.cc</text>
</a>
</g>
</g>
<!-- Node26&#45;&gt;Node30 -->
<g id="edge24" class="edge"><title>Node26&#45;&gt;Node30</title>
<path fill="none" stroke="midnightblue" d="M416.24,-64.9171C376.096,-54.3099 324.583,-40.6988 286.404,-30.6109"/>
<polygon fill="midnightblue" stroke="midnightblue" points="415.362,-68.3052 425.925,-67.476 417.15,-61.5374 415.362,-68.3052"/>
</g>
<!-- Node32&#45;&gt;Node19 -->
<g id="edge31" class="edge"><title>Node32&#45;&gt;Node19</title>
<path fill="none" stroke="midnightblue" d="M1043.78,-129.015C1060.27,-118.9 1080.05,-106.77 1095.04,-97.5765"/>
<polygon fill="midnightblue" stroke="midnightblue" points="1041.7,-126.185 1035,-134.396 1045.35,-132.152 1041.7,-126.185"/>
</g>
<!-- Node32&#45;&gt;Node20 -->
<g id="edge32" class="edge"><title>Node32&#45;&gt;Node20</title>
<path fill="none" stroke="midnightblue" d="M1081.05,-132.119C1125.89,-121.483 1183.72,-107.763 1226.52,-97.6109"/>
<polygon fill="midnightblue" stroke="midnightblue" points="1080.04,-128.762 1071.12,-134.476 1081.65,-135.573 1080.04,-128.762"/>
</g>
<!-- Node32&#45;&gt;Node22 -->
<g id="edge33" class="edge"><title>Node32&#45;&gt;Node22</title>
<path fill="none" stroke="midnightblue" d="M1012,-124.024C1012,-96.5121 1012,-52.7894 1012,-30.5247"/>
<polygon fill="midnightblue" stroke="midnightblue" points="1008.5,-124.374 1012,-134.374 1015.5,-124.374 1008.5,-124.374"/>
</g>
<!-- Node32&#45;&gt;Node31 -->
<g id="edge30" class="edge"><title>Node32&#45;&gt;Node31</title>
<path fill="none" stroke="midnightblue" d="M944.206,-132.119C900.19,-121.483 843.411,-107.763 801.397,-97.6109"/>
<polygon fill="midnightblue" stroke="midnightblue" points="943.42,-135.529 953.962,-134.476 945.064,-128.725 943.42,-135.529"/>
</g>
<!-- Node33 -->
<g id="node22" class="node"><title>Node33</title>
<g id="a_node22"><a xlink:href="_initializer_8cc.html" target="_top" xlink:title="/home/alejandro/Desarrollo\l eclipse/os1/src/Initializer.cc">
<polygon fill="white" stroke="black" points="842.5,-67.5 842.5,-97.5 983.5,-97.5 983.5,-67.5 842.5,-67.5"/>
<text text-anchor="start" x="850.5" y="-85.5" font-family="Helvetica,sans-Serif" font-size="10.00">/home/alejandro/Desarrollo</text>
<text text-anchor="middle" x="913" y="-74.5" font-family="Helvetica,sans-Serif" font-size="10.00"> eclipse/os1/src/Initializer.cc</text>
</a>
</g>
</g>
<!-- Node32&#45;&gt;Node33 -->
<g id="edge29" class="edge"><title>Node32&#45;&gt;Node33</title>
<path fill="none" stroke="midnightblue" d="M981.894,-128.734C966.575,-118.676 948.312,-106.685 934.44,-97.5765"/>
<polygon fill="midnightblue" stroke="midnightblue" points="980.238,-131.833 990.518,-134.396 984.08,-125.982 980.238,-131.833"/>
</g>
<!-- Node36&#45;&gt;Node14 -->
<g id="edge43" class="edge"><title>Node36&#45;&gt;Node14</title>
<path fill="none" stroke="midnightblue" d="M1317.49,-467.05C1329.98,-455.85 1344.46,-442.859 1356.81,-431.788"/>
<polygon fill="midnightblue" stroke="midnightblue" points="1315.12,-464.476 1310.01,-473.758 1319.79,-469.687 1315.12,-464.476"/>
</g>
<!-- Node37 -->
<g id="node26" class="node"><title>Node37</title>
<g id="a_node26"><a xlink:href="types__sba_8cpp.html" target="_top" xlink:title="/home/alejandro/Desarrollo\l eclipse/os1/Thirdparty\l/g2o/g2o/types/types_sba.cpp">
<polygon fill="white" stroke="black" points="1152,-385 1152,-426 1300,-426 1300,-385 1152,-385"/>
<text text-anchor="start" x="1160" y="-414" font-family="Helvetica,sans-Serif" font-size="10.00">/home/alejandro/Desarrollo</text>
<text text-anchor="start" x="1160" y="-403" font-family="Helvetica,sans-Serif" font-size="10.00"> eclipse/os1/Thirdparty</text>
<text text-anchor="middle" x="1226" y="-392" font-family="Helvetica,sans-Serif" font-size="10.00">/g2o/g2o/types/types_sba.cpp</text>
</a>
</g>
</g>
<!-- Node36&#45;&gt;Node37 -->
<g id="edge44" class="edge"><title>Node36&#45;&gt;Node37</title>
<path fill="none" stroke="midnightblue" d="M1267.9,-465.297C1258.79,-452.517 1248.25,-437.717 1240.01,-426.164"/>
<polygon fill="midnightblue" stroke="midnightblue" points="1265.28,-467.646 1273.93,-473.758 1270.98,-463.583 1265.28,-467.646"/>
</g>
<!-- Node38&#45;&gt;Node35 -->
<g id="edge51" class="edge"><title>Node38&#45;&gt;Node35</title>
<path fill="none" stroke="midnightblue" d="M1649.56,-567.693C1591.58,-558.956 1518.63,-543.787 1499,-521 1455.58,-470.589 1465.57,-384.856 1474.03,-342.585"/>
<polygon fill="midnightblue" stroke="midnightblue" points="1649.06,-571.156 1659.46,-569.144 1650.07,-564.23 1649.06,-571.156"/>
</g>
<!-- Node39 -->
<g id="node28" class="node"><title>Node39</title>
<g id="a_node28"><a xlink:href="cache_8cpp.html" target="_top" xlink:title="/home/alejandro/Desarrollo\l eclipse/os1/Thirdparty\l/g2o/g2o/core/cache.cpp">
<polygon fill="white" stroke="black" points="1508.5,-474 1508.5,-515 1641.5,-515 1641.5,-474 1508.5,-474"/>
<text text-anchor="start" x="1516.5" y="-503" font-family="Helvetica,sans-Serif" font-size="10.00">/home/alejandro/Desarrollo</text>
<text text-anchor="start" x="1516.5" y="-492" font-family="Helvetica,sans-Serif" font-size="10.00"> eclipse/os1/Thirdparty</text>
<text text-anchor="middle" x="1575" y="-481" font-family="Helvetica,sans-Serif" font-size="10.00">/g2o/g2o/core/cache.cpp</text>
</a>
</g>
</g>
<!-- Node38&#45;&gt;Node39 -->
<g id="edge47" class="edge"><title>Node38&#45;&gt;Node39</title>
<path fill="none" stroke="midnightblue" d="M1680.89,-552.65C1658.6,-540.619 1632.06,-526.299 1611.13,-515.003"/>
<polygon fill="midnightblue" stroke="midnightblue" points="1679.37,-555.809 1689.83,-557.479 1682.69,-549.649 1679.37,-555.809"/>
</g>
<!-- Node38&#45;&gt;Node40 -->
<g id="edge48" class="edge"><title>Node38&#45;&gt;Node40</title>
<path fill="none" stroke="midnightblue" d="M1802.69,-564.359C1859.3,-554.376 1937.99,-539.132 2006,-521 2012.59,-519.243 2019.44,-517.225 2026.21,-515.109"/>
<polygon fill="midnightblue" stroke="midnightblue" points="1801.98,-560.929 1792.74,-566.1 1803.19,-567.824 1801.98,-560.929"/>
</g>
<!-- Node41 -->
<g id="node30" class="node"><title>Node41</title>
<g id="a_node30"><a xlink:href="optimizable__graph_8cpp.html" target="_top" xlink:title="/home/alejandro/Desarrollo\l eclipse/os1/Thirdparty\l/g2o/g2o/core/optimizable\l_graph.cpp">
<polygon fill="white" stroke="black" points="1659.5,-468.5 1659.5,-520.5 1792.5,-520.5 1792.5,-468.5 1659.5,-468.5"/>
<text text-anchor="start" x="1667.5" y="-508.5" font-family="Helvetica,sans-Serif" font-size="10.00">/home/alejandro/Desarrollo</text>
<text text-anchor="start" x="1667.5" y="-497.5" font-family="Helvetica,sans-Serif" font-size="10.00"> eclipse/os1/Thirdparty</text>
<text text-anchor="start" x="1667.5" y="-486.5" font-family="Helvetica,sans-Serif" font-size="10.00">/g2o/g2o/core/optimizable</text>
<text text-anchor="middle" x="1726" y="-475.5" font-family="Helvetica,sans-Serif" font-size="10.00">_graph.cpp</text>
</a>
</g>
</g>
<!-- Node38&#45;&gt;Node41 -->
<g id="edge49" class="edge"><title>Node38&#45;&gt;Node41</title>
<path fill="none" stroke="midnightblue" d="M1726,-547.121C1726,-538.413 1726,-528.989 1726,-520.607"/>
<polygon fill="midnightblue" stroke="midnightblue" points="1722.5,-547.271 1726,-557.271 1729.5,-547.271 1722.5,-547.271"/>
</g>
<!-- Node42 -->
<g id="node31" class="node"><title>Node42</title>
<g id="a_node31"><a xlink:href="parameter__container_8cpp.html" target="_top" xlink:title="/home/alejandro/Desarrollo\l eclipse/os1/Thirdparty\l/g2o/g2o/core/parameter_container.cpp">
<polygon fill="white" stroke="black" points="1811,-474 1811,-515 1997,-515 1997,-474 1811,-474"/>
<text text-anchor="start" x="1819" y="-503" font-family="Helvetica,sans-Serif" font-size="10.00">/home/alejandro/Desarrollo</text>
<text text-anchor="start" x="1819" y="-492" font-family="Helvetica,sans-Serif" font-size="10.00"> eclipse/os1/Thirdparty</text>
<text text-anchor="middle" x="1904" y="-481" font-family="Helvetica,sans-Serif" font-size="10.00">/g2o/g2o/core/parameter_container.cpp</text>
</a>
</g>
</g>
<!-- Node38&#45;&gt;Node42 -->
<g id="edge50" class="edge"><title>Node38&#45;&gt;Node42</title>
<path fill="none" stroke="midnightblue" d="M1777.78,-553.29C1804.34,-541.129 1836.29,-526.5 1861.4,-515.003"/>
<polygon fill="midnightblue" stroke="midnightblue" points="1776.27,-550.133 1768.64,-557.479 1779.18,-556.498 1776.27,-550.133"/>
</g>
</g>
</svg>
