<?xml version="1.0" encoding="UTF-8" standalone="no"?>
<!DOCTYPE svg PUBLIC "-//W3C//DTD SVG 1.1//EN"
 "http://www.w3.org/Graphics/SVG/1.1/DTD/svg11.dtd">
<!-- Generated by graphviz version 2.38.0 (20140413.2041)
 -->
<!-- Title: /home/alejandro/Desarrollo eclipse/os1/Thirdparty/g2o/g2o/core/creators.h Pages: 1 -->
<svg width="1597pt" height="886pt"
 viewBox="0.00 0.00 1596.69 886.00" xmlns="http://www.w3.org/2000/svg" xmlns:xlink="http://www.w3.org/1999/xlink">
<g id="graph0" class="graph" transform="scale(1 1) rotate(0) translate(4 882)">
<title>/home/alejandro/Desarrollo eclipse/os1/Thirdparty/g2o/g2o/core/creators.h</title>
<polygon fill="white" stroke="none" points="-4,4 -4,-882 1592.69,-882 1592.69,4 -4,4"/>
<!-- Node12 -->
<g id="node1" class="node"><title>Node12</title>
<polygon fill="#bfbfbf" stroke="black" points="1099.69,-836.5 1099.69,-877.5 1232.69,-877.5 1232.69,-836.5 1099.69,-836.5"/>
<text text-anchor="start" x="1107.69" y="-865.5" font-family="Helvetica,sans-Serif" font-size="10.00">/home/alejandro/Desarrollo</text>
<text text-anchor="start" x="1107.69" y="-854.5" font-family="Helvetica,sans-Serif" font-size="10.00"> eclipse/os1/Thirdparty</text>
<text text-anchor="middle" x="1166.19" y="-843.5" font-family="Helvetica,sans-Serif" font-size="10.00">/g2o/g2o/core/creators.h</text>
</g>
<!-- Node13 -->
<g id="node2" class="node"><title>Node13</title>
<g id="a_node2"><a xlink:href="base__vertex_8h.html" target="_top" xlink:title="/home/alejandro/Desarrollo\l eclipse/os1/Thirdparty\l/g2o/g2o/core/base_vertex.h">
<polygon fill="white" stroke="black" points="761.189,-758.5 761.189,-799.5 901.189,-799.5 901.189,-758.5 761.189,-758.5"/>
<text text-anchor="start" x="769.189" y="-787.5" font-family="Helvetica,sans-Serif" font-size="10.00">/home/alejandro/Desarrollo</text>
<text text-anchor="start" x="769.189" y="-776.5" font-family="Helvetica,sans-Serif" font-size="10.00"> eclipse/os1/Thirdparty</text>
<text text-anchor="middle" x="831.189" y="-765.5" font-family="Helvetica,sans-Serif" font-size="10.00">/g2o/g2o/core/base_vertex.h</text>
</a>
</g>
</g>
<!-- Node12&#45;&gt;Node13 -->
<g id="edge1" class="edge"><title>Node12&#45;&gt;Node13</title>
<path fill="none" stroke="midnightblue" d="M1089.63,-838.631C1033,-825.783 956.465,-808.421 901.402,-795.929"/>
<polygon fill="midnightblue" stroke="midnightblue" points="1089.08,-842.095 1099.6,-840.894 1090.63,-835.268 1089.08,-842.095"/>
</g>
<!-- Node40 -->
<g id="node29" class="node"><title>Node40</title>
<g id="a_node29"><a xlink:href="factory_8h.html" target="_top" xlink:title="/home/alejandro/Desarrollo\l eclipse/os1/Thirdparty\l/g2o/g2o/core/factory.h">
<polygon fill="white" stroke="black" points="1099.69,-758.5 1099.69,-799.5 1232.69,-799.5 1232.69,-758.5 1099.69,-758.5"/>
<text text-anchor="start" x="1107.69" y="-787.5" font-family="Helvetica,sans-Serif" font-size="10.00">/home/alejandro/Desarrollo</text>
<text text-anchor="start" x="1107.69" y="-776.5" font-family="Helvetica,sans-Serif" font-size="10.00"> eclipse/os1/Thirdparty</text>
<text text-anchor="middle" x="1166.19" y="-765.5" font-family="Helvetica,sans-Serif" font-size="10.00">/g2o/g2o/core/factory.h</text>
</a>
</g>
</g>
<!-- Node12&#45;&gt;Node40 -->
<g id="edge57" class="edge"><title>Node12&#45;&gt;Node40</title>
<path fill="none" stroke="midnightblue" d="M1166.19,-826.297C1166.19,-817.301 1166.19,-807.653 1166.19,-799.506"/>
<polygon fill="midnightblue" stroke="midnightblue" points="1162.69,-826.428 1166.19,-836.428 1169.69,-826.428 1162.69,-826.428"/>
</g>
<!-- Node42 -->
<g id="node31" class="node"><title>Node42</title>
<g id="a_node31"><a xlink:href="factory_8cpp.html" target="_top" xlink:title="/home/alejandro/Desarrollo\l eclipse/os1/Thirdparty\l/g2o/g2o/core/factory.cpp">
<polygon fill="white" stroke="black" points="1455.69,-675 1455.69,-716 1588.69,-716 1588.69,-675 1455.69,-675"/>
<text text-anchor="start" x="1463.69" y="-704" font-family="Helvetica,sans-Serif" font-size="10.00">/home/alejandro/Desarrollo</text>
<text text-anchor="start" x="1463.69" y="-693" font-family="Helvetica,sans-Serif" font-size="10.00"> eclipse/os1/Thirdparty</text>
<text text-anchor="middle" x="1522.19" y="-682" font-family="Helvetica,sans-Serif" font-size="10.00">/g2o/g2o/core/factory.cpp</text>
</a>
</g>
</g>
<!-- Node12&#45;&gt;Node42 -->
<g id="edge63" class="edge"><title>Node12&#45;&gt;Node42</title>
<path fill="none" stroke="midnightblue" d="M1219,-832.338C1289.46,-800.769 1412.93,-745.45 1478.46,-716.093"/>
<polygon fill="midnightblue" stroke="midnightblue" points="1217.54,-829.159 1209.84,-836.442 1220.4,-835.547 1217.54,-829.159"/>
</g>
<!-- Node14 -->
<g id="node3" class="node"><title>Node14</title>
<g id="a_node3"><a xlink:href="types__six__dof__expmap_8h.html" target="_top" xlink:title="/home/alejandro/Desarrollo\l eclipse/os1/Thirdparty\l/g2o/g2o/types/types_six\l_dof_expmap.h">
<polygon fill="white" stroke="black" points="554.689,-580.5 554.689,-632.5 687.689,-632.5 687.689,-580.5 554.689,-580.5"/>
<text text-anchor="start" x="562.689" y="-620.5" font-family="Helvetica,sans-Serif" font-size="10.00">/home/alejandro/Desarrollo</text>
<text text-anchor="start" x="562.689" y="-609.5" font-family="Helvetica,sans-Serif" font-size="10.00"> eclipse/os1/Thirdparty</text>
<text text-anchor="start" x="562.689" y="-598.5" font-family="Helvetica,sans-Serif" font-size="10.00">/g2o/g2o/types/types_six</text>
<text text-anchor="middle" x="621.189" y="-587.5" font-family="Helvetica,sans-Serif" font-size="10.00">_dof_expmap.h</text>
</a>
</g>
</g>
<!-- Node13&#45;&gt;Node14 -->
<g id="edge2" class="edge"><title>Node13&#45;&gt;Node14</title>
<path fill="none" stroke="midnightblue" d="M758.175,-754.461C738.759,-746.103 718.636,-735.363 702.189,-722 671.763,-697.278 647.57,-658.365 633.804,-632.888"/>
<polygon fill="midnightblue" stroke="midnightblue" points="757.053,-757.784 767.631,-758.374 759.729,-751.316 757.053,-757.784"/>
</g>
<!-- Node23 -->
<g id="node12" class="node"><title>Node23</title>
<g id="a_node12"><a xlink:href="types__seven__dof__expmap_8h.html" target="_top" xlink:title="/home/alejandro/Desarrollo\l eclipse/os1/Thirdparty\l/g2o/g2o/types/types_seven\l_dof_expmap.h">
<polygon fill="white" stroke="black" points="695.189,-491.5 695.189,-543.5 835.189,-543.5 835.189,-491.5 695.189,-491.5"/>
<text text-anchor="start" x="703.189" y="-531.5" font-family="Helvetica,sans-Serif" font-size="10.00">/home/alejandro/Desarrollo</text>
<text text-anchor="start" x="703.189" y="-520.5" font-family="Helvetica,sans-Serif" font-size="10.00"> eclipse/os1/Thirdparty</text>
<text text-anchor="start" x="703.189" y="-509.5" font-family="Helvetica,sans-Serif" font-size="10.00">/g2o/g2o/types/types_seven</text>
<text text-anchor="middle" x="765.189" y="-498.5" font-family="Helvetica,sans-Serif" font-size="10.00">_dof_expmap.h</text>
</a>
</g>
</g>
<!-- Node13&#45;&gt;Node23 -->
<g id="edge56" class="edge"><title>Node13&#45;&gt;Node23</title>
<path fill="none" stroke="midnightblue" d="M846.575,-749.308C865.932,-708.955 893.222,-634.304 863.189,-580 854.731,-564.708 840.704,-552.706 825.869,-543.525"/>
<polygon fill="midnightblue" stroke="midnightblue" points="843.412,-747.809 842.107,-758.324 849.684,-750.918 843.412,-747.809"/>
</g>
<!-- Node38 -->
<g id="node27" class="node"><title>Node38</title>
<g id="a_node27"><a xlink:href="types__sba_8h.html" target="_top" xlink:title="/home/alejandro/Desarrollo\l eclipse/os1/Thirdparty\l/g2o/g2o/types/types_sba.h">
<polygon fill="white" stroke="black" points="711.689,-675 711.689,-716 848.689,-716 848.689,-675 711.689,-675"/>
<text text-anchor="start" x="719.689" y="-704" font-family="Helvetica,sans-Serif" font-size="10.00">/home/alejandro/Desarrollo</text>
<text text-anchor="start" x="719.689" y="-693" font-family="Helvetica,sans-Serif" font-size="10.00"> eclipse/os1/Thirdparty</text>
<text text-anchor="middle" x="780.189" y="-682" font-family="Helvetica,sans-Serif" font-size="10.00">/g2o/g2o/types/types_sba.h</text>
</a>
</g>
</g>
<!-- Node13&#45;&gt;Node38 -->
<g id="edge53" class="edge"><title>Node13&#45;&gt;Node38</title>
<path fill="none" stroke="midnightblue" d="M813.495,-749.725C806.541,-738.612 798.73,-726.129 792.421,-716.047"/>
<polygon fill="midnightblue" stroke="midnightblue" points="810.571,-751.651 818.843,-758.271 816.505,-747.937 810.571,-751.651"/>
</g>
<!-- Node15 -->
<g id="node4" class="node"><title>Node15</title>
<g id="a_node4"><a xlink:href="_converter_8h.html" target="_top" xlink:title="/home/alejandro/Desarrollo\l eclipse/os1/include/Converter.h">
<polygon fill="white" stroke="black" points="379.689,-335.5 379.689,-365.5 536.689,-365.5 536.689,-335.5 379.689,-335.5"/>
<text text-anchor="start" x="387.689" y="-353.5" font-family="Helvetica,sans-Serif" font-size="10.00">/home/alejandro/Desarrollo</text>
<text text-anchor="middle" x="458.189" y="-342.5" font-family="Helvetica,sans-Serif" font-size="10.00"> eclipse/os1/include/Converter.h</text>
</a>
</g>
</g>
<!-- Node14&#45;&gt;Node15 -->
<g id="edge3" class="edge"><title>Node14&#45;&gt;Node15</title>
<path fill="none" stroke="midnightblue" d="M599.475,-571.664C563.334,-515.347 492.333,-404.706 467.238,-365.6"/>
<polygon fill="midnightblue" stroke="midnightblue" points="596.617,-573.691 604.964,-580.217 602.509,-569.91 596.617,-573.691"/>
</g>
<!-- Node20 -->
<g id="node9" class="node"><title>Node20</title>
<g id="a_node9"><a xlink:href="_optimizer_8cc.html" target="_top" xlink:title="/home/alejandro/Desarrollo\l eclipse/os1/src/Optimizer.cc">
<polygon fill="white" stroke="black" points="549.189,-268.5 549.189,-298.5 693.189,-298.5 693.189,-268.5 549.189,-268.5"/>
<text text-anchor="start" x="557.189" y="-286.5" font-family="Helvetica,sans-Serif" font-size="10.00">/home/alejandro/Desarrollo</text>
<text text-anchor="middle" x="621.189" y="-275.5" font-family="Helvetica,sans-Serif" font-size="10.00"> eclipse/os1/src/Optimizer.cc</text>
</a>
</g>
</g>
<!-- Node14&#45;&gt;Node20 -->
<g id="edge51" class="edge"><title>Node14&#45;&gt;Node20</title>
<path fill="none" stroke="midnightblue" d="M621.189,-570.199C621.189,-500.048 621.189,-345.795 621.189,-298.538"/>
<polygon fill="midnightblue" stroke="midnightblue" points="617.689,-570.312 621.189,-580.312 624.689,-570.312 617.689,-570.312"/>
</g>
<!-- Node14&#45;&gt;Node23 -->
<g id="edge11" class="edge"><title>Node14&#45;&gt;Node23</title>
<path fill="none" stroke="midnightblue" d="M671.555,-575.07C688.575,-564.788 707.373,-553.431 723.632,-543.607"/>
<polygon fill="midnightblue" stroke="midnightblue" points="669.589,-572.169 662.84,-580.336 673.209,-578.161 669.589,-572.169"/>
</g>
<!-- Node37 -->
<g id="node26" class="node"><title>Node37</title>
<g id="a_node26"><a xlink:href="types__six__dof__expmap_8cpp.html" target="_top" xlink:title="/home/alejandro/Desarrollo\l eclipse/os1/Thirdparty\l/g2o/g2o/types/types_six\l_dof_expmap.cpp">
<polygon fill="white" stroke="black" points="853.689,-491.5 853.689,-543.5 986.689,-543.5 986.689,-491.5 853.689,-491.5"/>
<text text-anchor="start" x="861.689" y="-531.5" font-family="Helvetica,sans-Serif" font-size="10.00">/home/alejandro/Desarrollo</text>
<text text-anchor="start" x="861.689" y="-520.5" font-family="Helvetica,sans-Serif" font-size="10.00"> eclipse/os1/Thirdparty</text>
<text text-anchor="start" x="861.689" y="-509.5" font-family="Helvetica,sans-Serif" font-size="10.00">/g2o/g2o/types/types_six</text>
<text text-anchor="middle" x="920.189" y="-498.5" font-family="Helvetica,sans-Serif" font-size="10.00">_dof_expmap.cpp</text>
</a>
</g>
</g>
<!-- Node14&#45;&gt;Node37 -->
<g id="edge52" class="edge"><title>Node14&#45;&gt;Node37</title>
<path fill="none" stroke="midnightblue" d="M697.457,-580.03C763.489,-561.373 782.483,-561.874 844.189,-544 847.263,-543.109 850.399,-542.173 853.56,-541.206"/>
<polygon fill="midnightblue" stroke="midnightblue" points="696.466,-576.673 687.818,-582.794 698.395,-583.402 696.466,-576.673"/>
</g>
<!-- Node16 -->
<g id="node5" class="node"><title>Node16</title>
<g id="a_node5"><a xlink:href="_converter_8cc.html" target="_top" xlink:title="/home/alejandro/Desarrollo\l eclipse/os1/src/Converter.cc">
<polygon fill="white" stroke="black" points="385.689,-268.5 385.689,-298.5 530.689,-298.5 530.689,-268.5 385.689,-268.5"/>
<text text-anchor="start" x="393.689" y="-286.5" font-family="Helvetica,sans-Serif" font-size="10.00">/home/alejandro/Desarrollo</text>
<text text-anchor="middle" x="458.189" y="-275.5" font-family="Helvetica,sans-Serif" font-size="10.00"> eclipse/os1/src/Converter.cc</text>
</a>
</g>
</g>
<!-- Node15&#45;&gt;Node16 -->
<g id="edge4" class="edge"><title>Node15&#45;&gt;Node16</title>
<path fill="none" stroke="midnightblue" d="M458.189,-325.108C458.189,-316.154 458.189,-306.323 458.189,-298.577"/>
<polygon fill="midnightblue" stroke="midnightblue" points="454.689,-325.396 458.189,-335.396 461.689,-325.396 454.689,-325.396"/>
</g>
<!-- Node17 -->
<g id="node6" class="node"><title>Node17</title>
<g id="a_node6"><a xlink:href="_frame_8cc.html" target="_top" xlink:title="/home/alejandro/Desarrollo\l eclipse/os1/src/Frame.cc">
<polygon fill="white" stroke="black" points="30.6888,-268.5 30.6888,-298.5 163.689,-298.5 163.689,-268.5 30.6888,-268.5"/>
<text text-anchor="start" x="38.6888" y="-286.5" font-family="Helvetica,sans-Serif" font-size="10.00">/home/alejandro/Desarrollo</text>
<text text-anchor="middle" x="97.1888" y="-275.5" font-family="Helvetica,sans-Serif" font-size="10.00"> eclipse/os1/src/Frame.cc</text>
</a>
</g>
</g>
<!-- Node15&#45;&gt;Node17 -->
<g id="edge5" class="edge"><title>Node15&#45;&gt;Node17</title>
<path fill="none" stroke="midnightblue" d="M369.549,-334.23C313.03,-324.399 238.254,-311.218 172.189,-299 169.45,-298.494 166.656,-297.973 163.834,-297.443"/>
<polygon fill="midnightblue" stroke="midnightblue" points="369.075,-337.7 379.526,-335.963 370.273,-330.803 369.075,-337.7"/>
</g>
<!-- Node18 -->
<g id="node7" class="node"><title>Node18</title>
<g id="a_node7"><a xlink:href="_key_frame_8cc.html" target="_top" xlink:title="/home/alejandro/Desarrollo\l eclipse/os1/src/KeyFrame.cc">
<polygon fill="white" stroke="black" points="181.689,-268.5 181.689,-298.5 328.689,-298.5 328.689,-268.5 181.689,-268.5"/>
<text text-anchor="start" x="189.689" y="-286.5" font-family="Helvetica,sans-Serif" font-size="10.00">/home/alejandro/Desarrollo</text>
<text text-anchor="middle" x="255.189" y="-275.5" font-family="Helvetica,sans-Serif" font-size="10.00"> eclipse/os1/src/KeyFrame.cc</text>
</a>
</g>
</g>
<!-- Node15&#45;&gt;Node18 -->
<g id="edge6" class="edge"><title>Node15&#45;&gt;Node18</title>
<path fill="none" stroke="midnightblue" d="M404.246,-332.228C371.408,-321.713 329.989,-308.451 299.151,-298.577"/>
<polygon fill="midnightblue" stroke="midnightblue" points="403.55,-335.68 414.141,-335.396 405.684,-329.013 403.55,-335.68"/>
</g>
<!-- Node19 -->
<g id="node8" class="node"><title>Node19</title>
<g id="a_node8"><a xlink:href="_loop_closing_8cc.html" target="_top" xlink:title="/home/alejandro/Desarrollo\l eclipse/os1/src/LoopClosing.cc">
<polygon fill="white" stroke="black" points="711.189,-268.5 711.189,-298.5 867.189,-298.5 867.189,-268.5 711.189,-268.5"/>
<text text-anchor="start" x="719.189" y="-286.5" font-family="Helvetica,sans-Serif" font-size="10.00">/home/alejandro/Desarrollo</text>
<text text-anchor="middle" x="789.189" y="-275.5" font-family="Helvetica,sans-Serif" font-size="10.00"> eclipse/os1/src/LoopClosing.cc</text>
</a>
</g>
</g>
<!-- Node15&#45;&gt;Node19 -->
<g id="edge7" class="edge"><title>Node15&#45;&gt;Node19</title>
<path fill="none" stroke="midnightblue" d="M539.585,-333.516C594.119,-322.807 665.248,-308.839 717.617,-298.555"/>
<polygon fill="midnightblue" stroke="midnightblue" points="538.741,-330.115 529.603,-335.476 540.09,-336.983 538.741,-330.115"/>
</g>
<!-- Node15&#45;&gt;Node20 -->
<g id="edge8" class="edge"><title>Node15&#45;&gt;Node20</title>
<path fill="none" stroke="midnightblue" d="M502.872,-331.682C529.014,-321.257 561.555,-308.281 585.889,-298.577"/>
<polygon fill="midnightblue" stroke="midnightblue" points="501.55,-328.441 493.557,-335.396 504.143,-334.943 501.55,-328.441"/>
</g>
<!-- Node21 -->
<g id="node10" class="node"><title>Node21</title>
<g id="a_node10"><a xlink:href="_system_8cc.html" target="_top" xlink:title="/home/alejandro/Desarrollo\l eclipse/os1/src/System.cc">
<polygon fill="white" stroke="black" points="586.189,-201.5 586.189,-231.5 722.189,-231.5 722.189,-201.5 586.189,-201.5"/>
<text text-anchor="start" x="594.189" y="-219.5" font-family="Helvetica,sans-Serif" font-size="10.00">/home/alejandro/Desarrollo</text>
<text text-anchor="middle" x="654.189" y="-208.5" font-family="Helvetica,sans-Serif" font-size="10.00"> eclipse/os1/src/System.cc</text>
</a>
</g>
</g>
<!-- Node15&#45;&gt;Node21 -->
<g id="edge9" class="edge"><title>Node15&#45;&gt;Node21</title>
<path fill="none" stroke="midnightblue" d="M410.236,-330.79C396.81,-323.066 383.813,-312.65 376.189,-299 369.47,-286.971 367.36,-278.577 376.189,-268 402.397,-236.602 512.412,-224.681 585.937,-220.185"/>
<polygon fill="midnightblue" stroke="midnightblue" points="408.595,-333.882 419.068,-335.483 411.88,-327.7 408.595,-333.882"/>
</g>
<!-- Node22 -->
<g id="node11" class="node"><title>Node22</title>
<g id="a_node11"><a xlink:href="_tracking_8cc.html" target="_top" xlink:title="/home/alejandro/Desarrollo\l eclipse/os1/src/Tracking.cc">
<polygon fill="white" stroke="black" points="1063.19,-0.5 1063.19,-30.5 1203.19,-30.5 1203.19,-0.5 1063.19,-0.5"/>
<text text-anchor="start" x="1071.19" y="-18.5" font-family="Helvetica,sans-Serif" font-size="10.00">/home/alejandro/Desarrollo</text>
<text text-anchor="middle" x="1133.19" y="-7.5" font-family="Helvetica,sans-Serif" font-size="10.00"> eclipse/os1/src/Tracking.cc</text>
</a>
</g>
</g>
<!-- Node15&#45;&gt;Node22 -->
<g id="edge10" class="edge"><title>Node15&#45;&gt;Node22</title>
<path fill="none" stroke="midnightblue" d="M369.373,-344.661C249.153,-337.297 46.6282,-321.693 21.1888,-299 -6.5664,-274.241 2.1888,-254.694 2.1888,-217.5 2.1888,-217.5 2.1888,-217.5 2.1888,-148.5 2.1888,-41.193 815.773,-20.9556 1062.87,-17.2838"/>
<polygon fill="midnightblue" stroke="midnightblue" points="369.476,-348.174 379.669,-345.284 369.898,-341.186 369.476,-348.174"/>
</g>
<!-- Node23&#45;&gt;Node15 -->
<g id="edge12" class="edge"><title>Node23&#45;&gt;Node15</title>
<path fill="none" stroke="midnightblue" d="M709.445,-486.54C642.778,-450.709 533.979,-392.234 484.351,-365.561"/>
<polygon fill="midnightblue" stroke="midnightblue" points="708.097,-489.789 718.562,-491.44 711.411,-483.623 708.097,-489.789"/>
</g>
<!-- Node23&#45;&gt;Node20 -->
<g id="edge49" class="edge"><title>Node23&#45;&gt;Node20</title>
<path fill="none" stroke="midnightblue" d="M744.038,-482.424C711.966,-430.752 652.396,-334.778 630.003,-298.701"/>
<polygon fill="midnightblue" stroke="midnightblue" points="741.257,-484.58 749.504,-491.23 747.204,-480.888 741.257,-484.58"/>
</g>
<!-- Node24 -->
<g id="node13" class="node"><title>Node24</title>
<g id="a_node13"><a xlink:href="_loop_closing_8h.html" target="_top" xlink:title="/home/alejandro/Desarrollo\l eclipse/os1/include/LoopClosing.h">
<polygon fill="white" stroke="black" points="1111.19,-413.5 1111.19,-443.5 1279.19,-443.5 1279.19,-413.5 1111.19,-413.5"/>
<text text-anchor="start" x="1119.19" y="-431.5" font-family="Helvetica,sans-Serif" font-size="10.00">/home/alejandro/Desarrollo</text>
<text text-anchor="middle" x="1195.19" y="-420.5" font-family="Helvetica,sans-Serif" font-size="10.00"> eclipse/os1/include/LoopClosing.h</text>
</a>
</g>
</g>
<!-- Node23&#45;&gt;Node24 -->
<g id="edge13" class="edge"><title>Node23&#45;&gt;Node24</title>
<path fill="none" stroke="midnightblue" d="M845.151,-490.893C941.365,-467.507 1042.01,-451.001 1111.18,-440.871"/>
<polygon fill="midnightblue" stroke="midnightblue" points="844.129,-487.539 835.255,-493.326 845.801,-494.337 844.129,-487.539"/>
</g>
<!-- Node34 -->
<g id="node23" class="node"><title>Node34</title>
<g id="a_node23"><a xlink:href="_optimizer_8h.html" target="_top" xlink:title="/home/alejandro/Desarrollo\l eclipse/os1/include/Optimizer.h">
<polygon fill="white" stroke="black" points="878.189,-335.5 878.189,-365.5 1034.19,-365.5 1034.19,-335.5 878.189,-335.5"/>
<text text-anchor="start" x="886.189" y="-353.5" font-family="Helvetica,sans-Serif" font-size="10.00">/home/alejandro/Desarrollo</text>
<text text-anchor="middle" x="956.189" y="-342.5" font-family="Helvetica,sans-Serif" font-size="10.00"> eclipse/os1/include/Optimizer.h</text>
</a>
</g>
</g>
<!-- Node23&#45;&gt;Node34 -->
<g id="edge48" class="edge"><title>Node23&#45;&gt;Node34</title>
<path fill="none" stroke="midnightblue" d="M801.926,-484.764C843.551,-448.805 909.541,-391.798 939.912,-365.561"/>
<polygon fill="midnightblue" stroke="midnightblue" points="799.477,-482.254 794.198,-491.44 804.053,-487.551 799.477,-482.254"/>
</g>
<!-- Node36 -->
<g id="node25" class="node"><title>Node36</title>
<g id="a_node25"><a xlink:href="types__seven__dof__expmap_8cpp.html" target="_top" xlink:title="/home/alejandro/Desarrollo\l eclipse/os1/Thirdparty\l/g2o/g2o/types/types_seven\l_dof_expmap.cpp">
<polygon fill="white" stroke="black" points="1297.19,-402.5 1297.19,-454.5 1437.19,-454.5 1437.19,-402.5 1297.19,-402.5"/>
<text text-anchor="start" x="1305.19" y="-442.5" font-family="Helvetica,sans-Serif" font-size="10.00">/home/alejandro/Desarrollo</text>
<text text-anchor="start" x="1305.19" y="-431.5" font-family="Helvetica,sans-Serif" font-size="10.00"> eclipse/os1/Thirdparty</text>
<text text-anchor="start" x="1305.19" y="-420.5" font-family="Helvetica,sans-Serif" font-size="10.00">/g2o/g2o/types/types_seven</text>
<text text-anchor="middle" x="1367.19" y="-409.5" font-family="Helvetica,sans-Serif" font-size="10.00">_dof_expmap.cpp</text>
</a>
</g>
</g>
<!-- Node23&#45;&gt;Node36 -->
<g id="edge50" class="edge"><title>Node23&#45;&gt;Node36</title>
<path fill="none" stroke="midnightblue" d="M845.588,-490.926C1040.24,-453.684 1097.24,-493.024 1288.19,-455 1291.02,-454.437 1293.88,-453.806 1296.77,-453.122"/>
<polygon fill="midnightblue" stroke="midnightblue" points="844.752,-487.523 835.61,-492.878 846.096,-494.392 844.752,-487.523"/>
</g>
<!-- Node24&#45;&gt;Node19 -->
<g id="edge47" class="edge"><title>Node24&#45;&gt;Node19</title>
<path fill="none" stroke="midnightblue" d="M1100.66,-424.61C1032.76,-419.083 940.947,-404.328 869.189,-366 838.409,-349.56 812.139,-317.203 798.726,-298.586"/>
<polygon fill="midnightblue" stroke="midnightblue" points="1100.68,-428.122 1110.92,-425.391 1101.22,-421.142 1100.68,-428.122"/>
</g>
<!-- Node25 -->
<g id="node14" class="node"><title>Node25</title>
<g id="a_node14"><a xlink:href="_local_mapping_8h.html" target="_top" xlink:title="/home/alejandro/Desarrollo\l eclipse/os1/include/LocalMapping.h">
<polygon fill="white" stroke="black" points="1240.19,-335.5 1240.19,-365.5 1414.19,-365.5 1414.19,-335.5 1240.19,-335.5"/>
<text text-anchor="start" x="1248.19" y="-353.5" font-family="Helvetica,sans-Serif" font-size="10.00">/home/alejandro/Desarrollo</text>
<text text-anchor="middle" x="1327.19" y="-342.5" font-family="Helvetica,sans-Serif" font-size="10.00"> eclipse/os1/include/LocalMapping.h</text>
</a>
</g>
</g>
<!-- Node24&#45;&gt;Node25 -->
<g id="edge14" class="edge"><title>Node24&#45;&gt;Node25</title>
<path fill="none" stroke="midnightblue" d="M1223.13,-407.967C1244.98,-394.699 1275.12,-377.463 1297.42,-365.541"/>
<polygon fill="midnightblue" stroke="midnightblue" points="1221.01,-405.164 1214.32,-413.383 1224.67,-411.128 1221.01,-405.164"/>
</g>
<!-- Node26 -->
<g id="node15" class="node"><title>Node26</title>
<g id="a_node15"><a xlink:href="_system_8h.html" target="_top" xlink:title="/home/alejandro/Desarrollo\l eclipse/os1/include/System.h">
<polygon fill="white" stroke="black" points="1263.19,-268.5 1263.19,-298.5 1411.19,-298.5 1411.19,-268.5 1263.19,-268.5"/>
<text text-anchor="start" x="1271.19" y="-286.5" font-family="Helvetica,sans-Serif" font-size="10.00">/home/alejandro/Desarrollo</text>
<text text-anchor="middle" x="1337.19" y="-275.5" font-family="Helvetica,sans-Serif" font-size="10.00"> eclipse/os1/include/System.h</text>
</a>
</g>
</g>
<!-- Node24&#45;&gt;Node26 -->
<g id="edge38" class="edge"><title>Node24&#45;&gt;Node26</title>
<path fill="none" stroke="midnightblue" d="M1199.4,-403.436C1204.06,-383.04 1213.41,-354.136 1231.19,-335 1246.73,-318.274 1268.96,-306.518 1289.05,-298.583"/>
<polygon fill="midnightblue" stroke="midnightblue" points="1195.97,-402.727 1197.36,-413.23 1202.82,-404.15 1195.97,-402.727"/>
</g>
<!-- Node28 -->
<g id="node17" class="node"><title>Node28</title>
<g id="a_node17"><a xlink:href="_tracking_8h.html" target="_top" xlink:title="/home/alejandro/Desarrollo\l eclipse/os1/include/Tracking.h">
<polygon fill="white" stroke="black" points="1370.19,-134.5 1370.19,-164.5 1522.19,-164.5 1522.19,-134.5 1370.19,-134.5"/>
<text text-anchor="start" x="1378.19" y="-152.5" font-family="Helvetica,sans-Serif" font-size="10.00">/home/alejandro/Desarrollo</text>
<text text-anchor="middle" x="1446.19" y="-141.5" font-family="Helvetica,sans-Serif" font-size="10.00"> eclipse/os1/include/Tracking.h</text>
</a>
</g>
</g>
<!-- Node24&#45;&gt;Node28 -->
<g id="edge39" class="edge"><title>Node24&#45;&gt;Node28</title>
<path fill="none" stroke="midnightblue" d="M1247.51,-410.657C1257.98,-407.757 1268.9,-404.782 1279.19,-402 1339.13,-385.79 1366.9,-406.25 1414.19,-366 1472.44,-316.414 1481.2,-275.347 1463.19,-201 1460.03,-187.966 1452.89,-174.528 1448.24,-164.794"/>
<polygon fill="midnightblue" stroke="midnightblue" points="1246.35,-407.349 1237.65,-413.406 1248.23,-414.092 1246.35,-407.349"/>
</g>
<!-- Node33 -->
<g id="node22" class="node"><title>Node33</title>
<g id="a_node22"><a xlink:href="_local_mapping_8cc.html" target="_top" xlink:title="/home/alejandro/Desarrollo\l eclipse/os1/src/LocalMapping.cc">
<polygon fill="white" stroke="black" points="1083.19,-268.5 1083.19,-298.5 1245.19,-298.5 1245.19,-268.5 1083.19,-268.5"/>
<text text-anchor="start" x="1091.19" y="-286.5" font-family="Helvetica,sans-Serif" font-size="10.00">/home/alejandro/Desarrollo</text>
<text text-anchor="middle" x="1164.19" y="-275.5" font-family="Helvetica,sans-Serif" font-size="10.00"> eclipse/os1/src/LocalMapping.cc</text>
</a>
</g>
</g>
<!-- Node24&#45;&gt;Node33 -->
<g id="edge46" class="edge"><title>Node24&#45;&gt;Node33</title>
<path fill="none" stroke="midnightblue" d="M1189.92,-403.194C1183.41,-373.159 1172.55,-323.048 1167.26,-298.677"/>
<polygon fill="midnightblue" stroke="midnightblue" points="1186.56,-404.234 1192.1,-413.266 1193.4,-402.751 1186.56,-404.234"/>
</g>
<!-- Node24&#45;&gt;Node34 -->
<g id="edge40" class="edge"><title>Node24&#45;&gt;Node34</title>
<path fill="none" stroke="midnightblue" d="M1141.45,-410.411C1098.93,-396.891 1040.29,-378.243 1000.45,-365.575"/>
<polygon fill="midnightblue" stroke="midnightblue" points="1140.48,-413.777 1151.07,-413.472 1142.6,-407.106 1140.48,-413.777"/>
</g>
<!-- Node25&#45;&gt;Node24 -->
<g id="edge35" class="edge"><title>Node25&#45;&gt;Node24</title>
<path fill="none" stroke="midnightblue" d="M1299.39,-370.949C1277.57,-384.2 1247.43,-401.439 1225.1,-413.383"/>
<polygon fill="midnightblue" stroke="midnightblue" points="1301.49,-373.761 1308.18,-365.541 1297.83,-367.799 1301.49,-373.761"/>
</g>
<!-- Node25&#45;&gt;Node26 -->
<g id="edge15" class="edge"><title>Node25&#45;&gt;Node26</title>
<path fill="none" stroke="midnightblue" d="M1330.9,-325.403C1332.29,-316.37 1333.82,-306.408 1335.02,-298.577"/>
<polygon fill="midnightblue" stroke="midnightblue" points="1327.42,-324.98 1329.36,-335.396 1334.34,-326.044 1327.42,-324.98"/>
</g>
<!-- Node25&#45;&gt;Node28 -->
<g id="edge36" class="edge"><title>Node25&#45;&gt;Node28</title>
<path fill="none" stroke="midnightblue" d="M1367.1,-330.85C1382.37,-322.917 1398.97,-312.359 1411.19,-299 1441.85,-265.485 1441.54,-246.403 1440.19,-201 1439.82,-188.709 1438.96,-174.759 1439.73,-164.639"/>
<polygon fill="midnightblue" stroke="midnightblue" points="1365.22,-327.876 1357.81,-335.452 1368.32,-334.149 1365.22,-327.876"/>
</g>
<!-- Node25&#45;&gt;Node33 -->
<g id="edge37" class="edge"><title>Node25&#45;&gt;Node33</title>
<path fill="none" stroke="midnightblue" d="M1282.51,-331.682C1256.36,-321.257 1223.82,-308.281 1199.49,-298.577"/>
<polygon fill="midnightblue" stroke="midnightblue" points="1281.24,-334.943 1291.82,-335.396 1283.83,-328.441 1281.24,-334.943"/>
</g>
<!-- Node26&#45;&gt;Node21 -->
<g id="edge34" class="edge"><title>Node26&#45;&gt;Node21</title>
<path fill="none" stroke="midnightblue" d="M1253,-267.92C1054.59,-242.685 831.995,-227.734 722.333,-221.255"/>
<polygon fill="midnightblue" stroke="midnightblue" points="1252.66,-271.406 1263.03,-269.207 1253.55,-264.463 1252.66,-271.406"/>
</g>
<!-- Node27 -->
<g id="node16" class="node"><title>Node27</title>
<g id="a_node16"><a xlink:href="_viewer_8h.html" target="_top" xlink:title="/home/alejandro/Desarrollo\l eclipse/os1/include/Viewer.h">
<polygon fill="white" stroke="black" points="1265.19,-201.5 1265.19,-231.5 1409.19,-231.5 1409.19,-201.5 1265.19,-201.5"/>
<text text-anchor="start" x="1273.19" y="-219.5" font-family="Helvetica,sans-Serif" font-size="10.00">/home/alejandro/Desarrollo</text>
<text text-anchor="middle" x="1337.19" y="-208.5" font-family="Helvetica,sans-Serif" font-size="10.00"> eclipse/os1/include/Viewer.h</text>
</a>
</g>
</g>
<!-- Node26&#45;&gt;Node27 -->
<g id="edge16" class="edge"><title>Node26&#45;&gt;Node27</title>
<path fill="none" stroke="midnightblue" d="M1330.64,-258.403C1330.19,-249.37 1330.48,-239.408 1331.51,-231.577"/>
<polygon fill="midnightblue" stroke="midnightblue" points="1327.16,-258.736 1331.51,-268.396 1334.13,-258.131 1327.16,-258.736"/>
</g>
<!-- Node26&#45;&gt;Node28 -->
<g id="edge32" class="edge"><title>Node26&#45;&gt;Node28</title>
<path fill="none" stroke="midnightblue" d="M1371.16,-263.331C1384.51,-255.325 1398.96,-244.854 1409.19,-232 1425.21,-211.864 1432.34,-181.995 1438.03,-164.562"/>
<polygon fill="midnightblue" stroke="midnightblue" points="1369.1,-260.476 1362.16,-268.48 1372.58,-266.552 1369.1,-260.476"/>
</g>
<!-- Node32 -->
<g id="node21" class="node"><title>Node32</title>
<g id="a_node21"><a xlink:href="main_8cc.html" target="_top" xlink:title="/home/alejandro/Desarrollo\l eclipse/os1/src/main.cc">
<polygon fill="white" stroke="black" points="1113.69,-201.5 1113.69,-231.5 1246.69,-231.5 1246.69,-201.5 1113.69,-201.5"/>
<text text-anchor="start" x="1121.69" y="-219.5" font-family="Helvetica,sans-Serif" font-size="10.00">/home/alejandro/Desarrollo</text>
<text text-anchor="middle" x="1180.19" y="-208.5" font-family="Helvetica,sans-Serif" font-size="10.00"> eclipse/os1/src/main.cc</text>
</a>
</g>
</g>
<!-- Node26&#45;&gt;Node32 -->
<g id="edge33" class="edge"><title>Node26&#45;&gt;Node32</title>
<path fill="none" stroke="midnightblue" d="M1293.82,-264.544C1268.7,-254.143 1237.53,-241.238 1214.19,-231.577"/>
<polygon fill="midnightblue" stroke="midnightblue" points="1292.54,-267.804 1303.12,-268.396 1295.22,-261.337 1292.54,-267.804"/>
</g>
<!-- Node27&#45;&gt;Node26 -->
<g id="edge30" class="edge"><title>Node27&#45;&gt;Node26</title>
<path fill="none" stroke="midnightblue" d="M1343.73,-241.565C1344.18,-250.596 1343.9,-260.56 1342.87,-268.396"/>
<polygon fill="midnightblue" stroke="midnightblue" points="1347.22,-241.236 1342.86,-231.577 1340.24,-241.842 1347.22,-241.236"/>
</g>
<!-- Node27&#45;&gt;Node28 -->
<g id="edge17" class="edge"><title>Node27&#45;&gt;Node28</title>
<path fill="none" stroke="midnightblue" d="M1363.62,-196.015C1379.75,-185.9 1400.28,-173.77 1416.91,-164.577"/>
<polygon fill="midnightblue" stroke="midnightblue" points="1361.72,-193.075 1355.16,-201.396 1365.48,-198.981 1361.72,-193.075"/>
</g>
<!-- Node31 -->
<g id="node20" class="node"><title>Node31</title>
<g id="a_node20"><a xlink:href="_viewer_8cc.html" target="_top" xlink:title="/home/alejandro/Desarrollo\l eclipse/os1/src/Viewer.cc">
<polygon fill="white" stroke="black" points="1175.69,-134.5 1175.69,-164.5 1308.69,-164.5 1308.69,-134.5 1175.69,-134.5"/>
<text text-anchor="start" x="1183.69" y="-152.5" font-family="Helvetica,sans-Serif" font-size="10.00">/home/alejandro/Desarrollo</text>
<text text-anchor="middle" x="1242.19" y="-141.5" font-family="Helvetica,sans-Serif" font-size="10.00"> eclipse/os1/src/Viewer.cc</text>
</a>
</g>
</g>
<!-- Node27&#45;&gt;Node31 -->
<g id="edge31" class="edge"><title>Node27&#45;&gt;Node31</title>
<path fill="none" stroke="midnightblue" d="M1308.3,-195.734C1293.6,-185.676 1276.07,-173.685 1262.76,-164.577"/>
<polygon fill="midnightblue" stroke="midnightblue" points="1306.35,-198.638 1316.58,-201.396 1310.3,-192.861 1306.35,-198.638"/>
</g>
<!-- Node28&#45;&gt;Node22 -->
<g id="edge29" class="edge"><title>Node28&#45;&gt;Node22</title>
<path fill="none" stroke="midnightblue" d="M1441.26,-124.38C1436.18,-105.816 1426.34,-81.0327 1408.19,-67 1376.89,-42.8051 1273.96,-28.9476 1203.31,-22.0724"/>
<polygon fill="midnightblue" stroke="midnightblue" points="1437.89,-125.328 1443.68,-134.204 1444.69,-123.658 1437.89,-125.328"/>
</g>
<!-- Node28&#45;&gt;Node24 -->
<g id="edge26" class="edge"><title>Node28&#45;&gt;Node24</title>
<path fill="none" stroke="midnightblue" d="M1469.28,-173.258C1474.4,-181.639 1478.87,-191.428 1481.19,-201 1499.2,-275.347 1490.44,-316.414 1432.19,-366 1384.9,-406.25 1357.13,-385.79 1297.19,-402 1283.61,-405.671 1268.93,-409.679 1255.02,-413.406"/>
<polygon fill="midnightblue" stroke="midnightblue" points="1472.05,-171.105 1463.54,-164.794 1466.26,-175.035 1472.05,-171.105"/>
</g>
<!-- Node28&#45;&gt;Node25 -->
<g id="edge27" class="edge"><title>Node28&#45;&gt;Node25</title>
<path fill="none" stroke="midnightblue" d="M1456.4,-174.521C1457.43,-182.896 1457.93,-192.358 1458.19,-201 1459.54,-246.403 1459.85,-265.485 1429.19,-299 1414.43,-315.132 1393.3,-327.178 1374,-335.452"/>
<polygon fill="midnightblue" stroke="midnightblue" points="1459.85,-173.944 1454.78,-164.639 1452.94,-175.073 1459.85,-173.944"/>
</g>
<!-- Node28&#45;&gt;Node26 -->
<g id="edge25" class="edge"><title>Node28&#45;&gt;Node26</title>
<path fill="none" stroke="midnightblue" d="M1449.83,-174.54C1447.63,-191.975 1440.46,-215.325 1427.19,-232 1414.6,-247.82 1395.61,-260.031 1378.21,-268.48"/>
<polygon fill="midnightblue" stroke="midnightblue" points="1453.32,-174.793 1450.57,-164.562 1446.34,-174.276 1453.32,-174.793"/>
</g>
<!-- Node28&#45;&gt;Node27 -->
<g id="edge24" class="edge"><title>Node28&#45;&gt;Node27</title>
<path fill="none" stroke="midnightblue" d="M1419.81,-169.955C1403.68,-180.066 1383.15,-192.197 1366.52,-201.396"/>
<polygon fill="midnightblue" stroke="midnightblue" points="1421.7,-172.898 1428.26,-164.577 1417.94,-166.992 1421.7,-172.898"/>
</g>
<!-- Node29 -->
<g id="node18" class="node"><title>Node29</title>
<g id="a_node18"><a xlink:href="_frame_drawer_8h.html" target="_top" xlink:title="/home/alejandro/Desarrollo\l eclipse/os1/include/FrameDrawer.h">
<polygon fill="white" stroke="black" points="1225.69,-67.5 1225.69,-97.5 1398.69,-97.5 1398.69,-67.5 1225.69,-67.5"/>
<text text-anchor="start" x="1233.69" y="-85.5" font-family="Helvetica,sans-Serif" font-size="10.00">/home/alejandro/Desarrollo</text>
<text text-anchor="middle" x="1312.19" y="-74.5" font-family="Helvetica,sans-Serif" font-size="10.00"> eclipse/os1/include/FrameDrawer.h</text>
</a>
</g>
</g>
<!-- Node28&#45;&gt;Node29 -->
<g id="edge18" class="edge"><title>Node28&#45;&gt;Node29</title>
<path fill="none" stroke="midnightblue" d="M1402.17,-130.131C1379.94,-119.802 1353.93,-107.11 1335.53,-97.5765"/>
<polygon fill="midnightblue" stroke="midnightblue" points="1400.89,-133.392 1411.43,-134.396 1403.82,-127.034 1400.89,-133.392"/>
</g>
<!-- Node30 -->
<g id="node19" class="node"><title>Node30</title>
<g id="a_node19"><a xlink:href="_frame_drawer_8cc.html" target="_top" xlink:title="/home/alejandro/Desarrollo\l eclipse/os1/src/FrameDrawer.cc">
<polygon fill="white" stroke="black" points="1307.69,-0.5 1307.69,-30.5 1468.69,-30.5 1468.69,-0.5 1307.69,-0.5"/>
<text text-anchor="start" x="1315.69" y="-18.5" font-family="Helvetica,sans-Serif" font-size="10.00">/home/alejandro/Desarrollo</text>
<text text-anchor="middle" x="1388.19" y="-7.5" font-family="Helvetica,sans-Serif" font-size="10.00"> eclipse/os1/src/FrameDrawer.cc</text>
</a>
</g>
</g>
<!-- Node28&#45;&gt;Node30 -->
<g id="edge28" class="edge"><title>Node28&#45;&gt;Node30</title>
<path fill="none" stroke="midnightblue" d="M1449.21,-124.35C1450.26,-107.505 1449.53,-84.9243 1441.19,-67 1434.33,-52.2497 1421.08,-39.6247 1409.54,-30.6873"/>
<polygon fill="midnightblue" stroke="midnightblue" points="1445.71,-124.216 1448.32,-134.485 1452.68,-124.83 1445.71,-124.216"/>
</g>
<!-- Node29&#45;&gt;Node22 -->
<g id="edge23" class="edge"><title>Node29&#45;&gt;Node22</title>
<path fill="none" stroke="midnightblue" d="M1263.87,-63.9553C1235.04,-53.4847 1198.91,-40.3656 1171.95,-30.5765"/>
<polygon fill="midnightblue" stroke="midnightblue" points="1262.75,-67.2725 1273.35,-67.396 1265.14,-60.6929 1262.75,-67.2725"/>
</g>
<!-- Node29&#45;&gt;Node26 -->
<g id="edge20" class="edge"><title>Node29&#45;&gt;Node26</title>
<path fill="none" stroke="midnightblue" d="M1248.59,-100.436C1170.88,-124.221 1055.37,-171.471 1104.19,-232 1109.32,-238.363 1196.87,-256.108 1263.15,-268.762"/>
<polygon fill="midnightblue" stroke="midnightblue" points="1249.77,-103.738 1258.34,-97.5137 1247.76,-97.0325 1249.77,-103.738"/>
</g>
<!-- Node29&#45;&gt;Node27 -->
<g id="edge19" class="edge"><title>Node29&#45;&gt;Node27</title>
<path fill="none" stroke="midnightblue" d="M1316.73,-107.486C1321.93,-134.924 1330.27,-178.945 1334.51,-201.374"/>
<polygon fill="midnightblue" stroke="midnightblue" points="1320.14,-106.699 1314.85,-97.5247 1313.27,-108.001 1320.14,-106.699"/>
</g>
<!-- Node29&#45;&gt;Node28 -->
<g id="edge21" class="edge"><title>Node29&#45;&gt;Node28</title>
<path fill="none" stroke="midnightblue" d="M1356.14,-101.84C1378.36,-112.163 1404.38,-124.856 1422.79,-134.396"/>
<polygon fill="midnightblue" stroke="midnightblue" points="1357.43,-98.5798 1346.88,-97.5765 1354.5,-104.938 1357.43,-98.5798"/>
</g>
<!-- Node29&#45;&gt;Node30 -->
<g id="edge22" class="edge"><title>Node29&#45;&gt;Node30</title>
<path fill="none" stroke="midnightblue" d="M1336.29,-60.8832C1347.84,-51.0054 1361.38,-39.4293 1371.73,-30.5765"/>
<polygon fill="midnightblue" stroke="midnightblue" points="1334,-58.2364 1328.68,-67.396 1338.55,-63.5561 1334,-58.2364"/>
</g>
<!-- Node34&#45;&gt;Node19 -->
<g id="edge43" class="edge"><title>Node34&#45;&gt;Node19</title>
<path fill="none" stroke="midnightblue" d="M910.409,-331.682C883.625,-321.257 850.286,-308.281 825.355,-298.577"/>
<polygon fill="midnightblue" stroke="midnightblue" points="909.364,-335.03 919.952,-335.396 911.903,-328.507 909.364,-335.03"/>
</g>
<!-- Node34&#45;&gt;Node20 -->
<g id="edge44" class="edge"><title>Node34&#45;&gt;Node20</title>
<path fill="none" stroke="midnightblue" d="M873.792,-333.512C818.5,-322.784 746.361,-308.787 693.337,-298.499"/>
<polygon fill="midnightblue" stroke="midnightblue" points="873.428,-337.007 883.911,-335.476 874.761,-330.135 873.428,-337.007"/>
</g>
<!-- Node34&#45;&gt;Node22 -->
<g id="edge45" class="edge"><title>Node34&#45;&gt;Node22</title>
<path fill="none" stroke="midnightblue" d="M996.844,-330.55C1010.59,-322.469 1025.02,-311.894 1035.19,-299 1070.16,-254.678 1116.45,-81.7502 1129.58,-30.7391"/>
<polygon fill="midnightblue" stroke="midnightblue" points="994.992,-327.575 987.96,-335.499 998.399,-333.69 994.992,-327.575"/>
</g>
<!-- Node34&#45;&gt;Node33 -->
<g id="edge42" class="edge"><title>Node34&#45;&gt;Node33</title>
<path fill="none" stroke="midnightblue" d="M1010.77,-332.444C1044.48,-321.908 1087.23,-308.549 1119.03,-298.611"/>
<polygon fill="midnightblue" stroke="midnightblue" points="1009.57,-329.152 1001.07,-335.476 1011.65,-335.834 1009.57,-329.152"/>
</g>
<!-- Node35 -->
<g id="node24" class="node"><title>Node35</title>
<g id="a_node24"><a xlink:href="_initializer_8cc.html" target="_top" xlink:title="/home/alejandro/Desarrollo\l eclipse/os1/src/Initializer.cc">
<polygon fill="white" stroke="black" points="885.689,-268.5 885.689,-298.5 1026.69,-298.5 1026.69,-268.5 885.689,-268.5"/>
<text text-anchor="start" x="893.689" y="-286.5" font-family="Helvetica,sans-Serif" font-size="10.00">/home/alejandro/Desarrollo</text>
<text text-anchor="middle" x="956.189" y="-275.5" font-family="Helvetica,sans-Serif" font-size="10.00"> eclipse/os1/src/Initializer.cc</text>
</a>
</g>
</g>
<!-- Node34&#45;&gt;Node35 -->
<g id="edge41" class="edge"><title>Node34&#45;&gt;Node35</title>
<path fill="none" stroke="midnightblue" d="M956.189,-325.108C956.189,-316.154 956.189,-306.323 956.189,-298.577"/>
<polygon fill="midnightblue" stroke="midnightblue" points="952.689,-325.396 956.189,-335.396 959.689,-325.396 952.689,-325.396"/>
</g>
<!-- Node38&#45;&gt;Node14 -->
<g id="edge54" class="edge"><title>Node38&#45;&gt;Node14</title>
<path fill="none" stroke="midnightblue" d="M735.616,-670.111C714.214,-658.401 688.598,-644.384 667.033,-632.585"/>
<polygon fill="midnightblue" stroke="midnightblue" points="734.053,-673.246 744.506,-674.976 737.414,-667.105 734.053,-673.246"/>
</g>
<!-- Node39 -->
<g id="node28" class="node"><title>Node39</title>
<g id="a_node28"><a xlink:href="types__sba_8cpp.html" target="_top" xlink:title="/home/alejandro/Desarrollo\l eclipse/os1/Thirdparty\l/g2o/g2o/types/types_sba.cpp">
<polygon fill="white" stroke="black" points="706.189,-586 706.189,-627 854.189,-627 854.189,-586 706.189,-586"/>
<text text-anchor="start" x="714.189" y="-615" font-family="Helvetica,sans-Serif" font-size="10.00">/home/alejandro/Desarrollo</text>
<text text-anchor="start" x="714.189" y="-604" font-family="Helvetica,sans-Serif" font-size="10.00"> eclipse/os1/Thirdparty</text>
<text text-anchor="middle" x="780.189" y="-593" font-family="Helvetica,sans-Serif" font-size="10.00">/g2o/g2o/types/types_sba.cpp</text>
</a>
</g>
</g>
<!-- Node38&#45;&gt;Node39 -->
<g id="edge55" class="edge"><title>Node38&#45;&gt;Node39</title>
<path fill="none" stroke="midnightblue" d="M780.189,-664.441C780.189,-652.101 780.189,-638.162 780.189,-627.164"/>
<polygon fill="midnightblue" stroke="midnightblue" points="776.689,-664.758 780.189,-674.758 783.689,-664.758 776.689,-664.758"/>
</g>
<!-- Node40&#45;&gt;Node37 -->
<g id="edge62" class="edge"><title>Node40&#45;&gt;Node37</title>
<path fill="none" stroke="midnightblue" d="M1089.75,-768.693C1031.77,-759.956 958.815,-744.787 939.189,-722 895.77,-671.589 905.761,-585.856 914.216,-543.585"/>
<polygon fill="midnightblue" stroke="midnightblue" points="1089.25,-772.156 1099.65,-770.144 1090.26,-765.23 1089.25,-772.156"/>
</g>
<!-- Node41 -->
<g id="node30" class="node"><title>Node41</title>
<g id="a_node30"><a xlink:href="cache_8cpp.html" target="_top" xlink:title="/home/alejandro/Desarrollo\l eclipse/os1/Thirdparty\l/g2o/g2o/core/cache.cpp">
<polygon fill="white" stroke="black" points="948.689,-675 948.689,-716 1081.69,-716 1081.69,-675 948.689,-675"/>
<text text-anchor="start" x="956.689" y="-704" font-family="Helvetica,sans-Serif" font-size="10.00">/home/alejandro/Desarrollo</text>
<text text-anchor="start" x="956.689" y="-693" font-family="Helvetica,sans-Serif" font-size="10.00"> eclipse/os1/Thirdparty</text>
<text text-anchor="middle" x="1015.19" y="-682" font-family="Helvetica,sans-Serif" font-size="10.00">/g2o/g2o/core/cache.cpp</text>
</a>
</g>
</g>
<!-- Node40&#45;&gt;Node41 -->
<g id="edge58" class="edge"><title>Node40&#45;&gt;Node41</title>
<path fill="none" stroke="midnightblue" d="M1121.07,-753.65C1098.78,-741.619 1072.25,-727.299 1051.32,-716.003"/>
<polygon fill="midnightblue" stroke="midnightblue" points="1119.56,-756.809 1130.02,-758.479 1122.88,-750.649 1119.56,-756.809"/>
</g>
<!-- Node40&#45;&gt;Node42 -->
<g id="edge59" class="edge"><title>Node40&#45;&gt;Node42</title>
<path fill="none" stroke="midnightblue" d="M1242.88,-765.359C1299.49,-755.376 1378.18,-740.132 1446.19,-722 1452.78,-720.243 1459.63,-718.225 1466.4,-716.109"/>
<polygon fill="midnightblue" stroke="midnightblue" points="1242.17,-761.929 1232.92,-767.1 1243.38,-768.824 1242.17,-761.929"/>
</g>
<!-- Node43 -->
<g id="node32" class="node"><title>Node43</title>
<g id="a_node32"><a xlink:href="optimizable__graph_8cpp.html" target="_top" xlink:title="/home/alejandro/Desarrollo\l eclipse/os1/Thirdparty\l/g2o/g2o/core/optimizable\l_graph.cpp">
<polygon fill="white" stroke="black" points="1099.69,-669.5 1099.69,-721.5 1232.69,-721.5 1232.69,-669.5 1099.69,-669.5"/>
<text text-anchor="start" x="1107.69" y="-709.5" font-family="Helvetica,sans-Serif" font-size="10.00">/home/alejandro/Desarrollo</text>
<text text-anchor="start" x="1107.69" y="-698.5" font-family="Helvetica,sans-Serif" font-size="10.00"> eclipse/os1/Thirdparty</text>
<text text-anchor="start" x="1107.69" y="-687.5" font-family="Helvetica,sans-Serif" font-size="10.00">/g2o/g2o/core/optimizable</text>
<text text-anchor="middle" x="1166.19" y="-676.5" font-family="Helvetica,sans-Serif" font-size="10.00">_graph.cpp</text>
</a>
</g>
</g>
<!-- Node40&#45;&gt;Node43 -->
<g id="edge60" class="edge"><title>Node40&#45;&gt;Node43</title>
<path fill="none" stroke="midnightblue" d="M1166.19,-748.121C1166.19,-739.413 1166.19,-729.989 1166.19,-721.607"/>
<polygon fill="midnightblue" stroke="midnightblue" points="1162.69,-748.271 1166.19,-758.271 1169.69,-748.271 1162.69,-748.271"/>
</g>
<!-- Node44 -->
<g id="node33" class="node"><title>Node44</title>
<g id="a_node33"><a xlink:href="parameter__container_8cpp.html" target="_top" xlink:title="/home/alejandro/Desarrollo\l eclipse/os1/Thirdparty\l/g2o/g2o/core/parameter_container.cpp">
<polygon fill="white" stroke="black" points="1251.19,-675 1251.19,-716 1437.19,-716 1437.19,-675 1251.19,-675"/>
<text text-anchor="start" x="1259.19" y="-704" font-family="Helvetica,sans-Serif" font-size="10.00">/home/alejandro/Desarrollo</text>
<text text-anchor="start" x="1259.19" y="-693" font-family="Helvetica,sans-Serif" font-size="10.00"> eclipse/os1/Thirdparty</text>
<text text-anchor="middle" x="1344.19" y="-682" font-family="Helvetica,sans-Serif" font-size="10.00">/g2o/g2o/core/parameter_container.cpp</text>
</a>
</g>
</g>
<!-- Node40&#45;&gt;Node44 -->
<g id="edge61" class="edge"><title>Node40&#45;&gt;Node44</title>
<path fill="none" stroke="midnightblue" d="M1217.97,-754.29C1244.53,-742.129 1276.48,-727.5 1301.59,-716.003"/>
<polygon fill="midnightblue" stroke="midnightblue" points="1216.46,-751.133 1208.82,-758.479 1219.37,-757.498 1216.46,-751.133"/>
</g>
</g>
</svg>
