<?xml version="1.0" encoding="UTF-8" standalone="no"?>
<!DOCTYPE svg PUBLIC "-//W3C//DTD SVG 1.1//EN"
 "http://www.w3.org/Graphics/SVG/1.1/DTD/svg11.dtd">
<!-- Generated by graphviz version 2.38.0 (20140413.2041)
 -->
<!-- Title: /home/alejandro/Desarrollo eclipse/os1/Thirdparty/g2o/g2o/core/creators.h Pages: 1 -->
<svg width="1919pt" height="685pt"
 viewBox="0.00 0.00 1919.00 685.00" xmlns="http://www.w3.org/2000/svg" xmlns:xlink="http://www.w3.org/1999/xlink">
<g id="graph0" class="graph" transform="scale(1 1) rotate(0) translate(4 681)">
<title>/home/alejandro/Desarrollo eclipse/os1/Thirdparty/g2o/g2o/core/creators.h</title>
<polygon fill="white" stroke="none" points="-4,4 -4,-681 1915,-681 1915,4 -4,4"/>
<!-- Node12 -->
<g id="node1" class="node"><title>Node12</title>
<polygon fill="#bfbfbf" stroke="black" points="1422,-635.5 1422,-676.5 1555,-676.5 1555,-635.5 1422,-635.5"/>
<text text-anchor="start" x="1430" y="-664.5" font-family="Helvetica,sans-Serif" font-size="10.00">/home/alejandro/Desarrollo</text>
<text text-anchor="start" x="1430" y="-653.5" font-family="Helvetica,sans-Serif" font-size="10.00"> eclipse/os1/Thirdparty</text>
<text text-anchor="middle" x="1488.5" y="-642.5" font-family="Helvetica,sans-Serif" font-size="10.00">/g2o/g2o/core/creators.h</text>
</g>
<!-- Node13 -->
<g id="node2" class="node"><title>Node13</title>
<g id="a_node2"><a xlink:href="base__vertex_8h.html" target="_top" xlink:title="/home/alejandro/Desarrollo\l eclipse/os1/Thirdparty\l/g2o/g2o/core/base_vertex.h">
<polygon fill="white" stroke="black" points="1029.5,-557.5 1029.5,-598.5 1169.5,-598.5 1169.5,-557.5 1029.5,-557.5"/>
<text text-anchor="start" x="1037.5" y="-586.5" font-family="Helvetica,sans-Serif" font-size="10.00">/home/alejandro/Desarrollo</text>
<text text-anchor="start" x="1037.5" y="-575.5" font-family="Helvetica,sans-Serif" font-size="10.00"> eclipse/os1/Thirdparty</text>
<text text-anchor="middle" x="1099.5" y="-564.5" font-family="Helvetica,sans-Serif" font-size="10.00">/g2o/g2o/core/base_vertex.h</text>
</a>
</g>
</g>
<!-- Node12&#45;&gt;Node13 -->
<g id="edge1" class="edge"><title>Node12&#45;&gt;Node13</title>
<path fill="none" stroke="midnightblue" d="M1411.49,-639.955C1341.12,-626.206 1237.93,-606.046 1169.76,-592.727"/>
<polygon fill="midnightblue" stroke="midnightblue" points="1411.14,-643.453 1421.63,-641.935 1412.49,-636.583 1411.14,-643.453"/>
</g>
<!-- Node36 -->
<g id="node25" class="node"><title>Node36</title>
<g id="a_node25"><a xlink:href="factory_8h.html" target="_top" xlink:title="/home/alejandro/Desarrollo\l eclipse/os1/Thirdparty\l/g2o/g2o/core/factory.h">
<polygon fill="white" stroke="black" points="1422,-557.5 1422,-598.5 1555,-598.5 1555,-557.5 1422,-557.5"/>
<text text-anchor="start" x="1430" y="-586.5" font-family="Helvetica,sans-Serif" font-size="10.00">/home/alejandro/Desarrollo</text>
<text text-anchor="start" x="1430" y="-575.5" font-family="Helvetica,sans-Serif" font-size="10.00"> eclipse/os1/Thirdparty</text>
<text text-anchor="middle" x="1488.5" y="-564.5" font-family="Helvetica,sans-Serif" font-size="10.00">/g2o/g2o/core/factory.h</text>
</a>
</g>
</g>
<!-- Node12&#45;&gt;Node36 -->
<g id="edge44" class="edge"><title>Node12&#45;&gt;Node36</title>
<path fill="none" stroke="midnightblue" d="M1488.5,-625.297C1488.5,-616.301 1488.5,-606.653 1488.5,-598.506"/>
<polygon fill="midnightblue" stroke="midnightblue" points="1485,-625.428 1488.5,-635.428 1492,-625.428 1485,-625.428"/>
</g>
<!-- Node38 -->
<g id="node27" class="node"><title>Node38</title>
<g id="a_node27"><a xlink:href="factory_8cpp.html" target="_top" xlink:title="/home/alejandro/Desarrollo\l eclipse/os1/Thirdparty\l/g2o/g2o/core/factory.cpp">
<polygon fill="white" stroke="black" points="1778,-474 1778,-515 1911,-515 1911,-474 1778,-474"/>
<text text-anchor="start" x="1786" y="-503" font-family="Helvetica,sans-Serif" font-size="10.00">/home/alejandro/Desarrollo</text>
<text text-anchor="start" x="1786" y="-492" font-family="Helvetica,sans-Serif" font-size="10.00"> eclipse/os1/Thirdparty</text>
<text text-anchor="middle" x="1844.5" y="-481" font-family="Helvetica,sans-Serif" font-size="10.00">/g2o/g2o/core/factory.cpp</text>
</a>
</g>
</g>
<!-- Node12&#45;&gt;Node38 -->
<g id="edge50" class="edge"><title>Node12&#45;&gt;Node38</title>
<path fill="none" stroke="midnightblue" d="M1541.31,-631.338C1611.78,-599.769 1735.24,-544.45 1800.77,-515.093"/>
<polygon fill="midnightblue" stroke="midnightblue" points="1539.85,-628.159 1532.15,-635.442 1542.71,-634.547 1539.85,-628.159"/>
</g>
<!-- Node14 -->
<g id="node3" class="node"><title>Node14</title>
<g id="a_node3"><a xlink:href="types__six__dof__expmap_8h.html" target="_top" xlink:title="/home/alejandro/Desarrollo\l eclipse/os1/Thirdparty\l/g2o/g2o/types/types_six\l_dof_expmap.h">
<polygon fill="white" stroke="black" points="1081,-379.5 1081,-431.5 1214,-431.5 1214,-379.5 1081,-379.5"/>
<text text-anchor="start" x="1089" y="-419.5" font-family="Helvetica,sans-Serif" font-size="10.00">/home/alejandro/Desarrollo</text>
<text text-anchor="start" x="1089" y="-408.5" font-family="Helvetica,sans-Serif" font-size="10.00"> eclipse/os1/Thirdparty</text>
<text text-anchor="start" x="1089" y="-397.5" font-family="Helvetica,sans-Serif" font-size="10.00">/g2o/g2o/types/types_six</text>
<text text-anchor="middle" x="1147.5" y="-386.5" font-family="Helvetica,sans-Serif" font-size="10.00">_dof_expmap.h</text>
</a>
</g>
</g>
<!-- Node13&#45;&gt;Node14 -->
<g id="edge2" class="edge"><title>Node13&#45;&gt;Node14</title>
<path fill="none" stroke="midnightblue" d="M1115.75,-548.501C1120.11,-539.884 1124.45,-530.249 1127.5,-521 1137.35,-491.101 1142.62,-455.123 1145.24,-431.578"/>
<polygon fill="midnightblue" stroke="midnightblue" points="1112.63,-546.906 1111.07,-557.385 1118.83,-550.166 1112.63,-546.906"/>
</g>
<!-- Node23 -->
<g id="node12" class="node"><title>Node23</title>
<g id="a_node12"><a xlink:href="types__seven__dof__expmap_8h.html" target="_top" xlink:title="/home/alejandro/Desarrollo\l eclipse/os1/Thirdparty\l/g2o/g2o/types/types_seven\l_dof_expmap.h">
<polygon fill="white" stroke="black" points="859.5,-290.5 859.5,-342.5 999.5,-342.5 999.5,-290.5 859.5,-290.5"/>
<text text-anchor="start" x="867.5" y="-330.5" font-family="Helvetica,sans-Serif" font-size="10.00">/home/alejandro/Desarrollo</text>
<text text-anchor="start" x="867.5" y="-319.5" font-family="Helvetica,sans-Serif" font-size="10.00"> eclipse/os1/Thirdparty</text>
<text text-anchor="start" x="867.5" y="-308.5" font-family="Helvetica,sans-Serif" font-size="10.00">/g2o/g2o/types/types_seven</text>
<text text-anchor="middle" x="929.5" y="-297.5" font-family="Helvetica,sans-Serif" font-size="10.00">_dof_expmap.h</text>
</a>
</g>
</g>
<!-- Node13&#45;&gt;Node23 -->
<g id="edge43" class="edge"><title>Node13&#45;&gt;Node23</title>
<path fill="none" stroke="midnightblue" d="M1029.01,-553.472C1009.55,-545.035 989.213,-534.252 972.5,-521 933.704,-490.239 921.199,-478.956 905.5,-432 895.454,-401.951 906.563,-366.006 916.776,-342.509"/>
<polygon fill="midnightblue" stroke="midnightblue" points="1027.9,-556.799 1038.47,-557.426 1030.6,-550.341 1027.9,-556.799"/>
</g>
<!-- Node34 -->
<g id="node23" class="node"><title>Node34</title>
<g id="a_node23"><a xlink:href="types__sba_8h.html" target="_top" xlink:title="/home/alejandro/Desarrollo\l eclipse/os1/Thirdparty\l/g2o/g2o/types/types_sba.h">
<polygon fill="white" stroke="black" points="982,-474 982,-515 1119,-515 1119,-474 982,-474"/>
<text text-anchor="start" x="990" y="-503" font-family="Helvetica,sans-Serif" font-size="10.00">/home/alejandro/Desarrollo</text>
<text text-anchor="start" x="990" y="-492" font-family="Helvetica,sans-Serif" font-size="10.00"> eclipse/os1/Thirdparty</text>
<text text-anchor="middle" x="1050.5" y="-481" font-family="Helvetica,sans-Serif" font-size="10.00">/g2o/g2o/types/types_sba.h</text>
</a>
</g>
</g>
<!-- Node13&#45;&gt;Node34 -->
<g id="edge40" class="edge"><title>Node13&#45;&gt;Node34</title>
<path fill="none" stroke="midnightblue" d="M1082.3,-548.394C1075.67,-537.365 1068.25,-525.03 1062.25,-515.047"/>
<polygon fill="midnightblue" stroke="midnightblue" points="1079.49,-550.504 1087.64,-557.271 1085.49,-546.897 1079.49,-550.504"/>
</g>
<!-- Node15 -->
<g id="node4" class="node"><title>Node15</title>
<g id="a_node4"><a xlink:href="_converter_8h.html" target="_top" xlink:title="/home/alejandro/Desarrollo\l eclipse/os1/include/Converter.h">
<polygon fill="white" stroke="black" points="1077,-134.5 1077,-164.5 1234,-164.5 1234,-134.5 1077,-134.5"/>
<text text-anchor="start" x="1085" y="-152.5" font-family="Helvetica,sans-Serif" font-size="10.00">/home/alejandro/Desarrollo</text>
<text text-anchor="middle" x="1155.5" y="-141.5" font-family="Helvetica,sans-Serif" font-size="10.00"> eclipse/os1/include/Converter.h</text>
</a>
</g>
</g>
<!-- Node14&#45;&gt;Node15 -->
<g id="edge3" class="edge"><title>Node14&#45;&gt;Node15</title>
<path fill="none" stroke="midnightblue" d="M1148.62,-368.909C1150.41,-312.078 1153.84,-203.304 1155.06,-164.6"/>
<polygon fill="midnightblue" stroke="midnightblue" points="1145.11,-369.112 1148.3,-379.217 1152.11,-369.332 1145.11,-369.112"/>
</g>
<!-- Node20 -->
<g id="node9" class="node"><title>Node20</title>
<g id="a_node9"><a xlink:href="_optimizer_8cc.html" target="_top" xlink:title="/home/alejandro/Desarrollo\l eclipse/os1/src/Optimizer.cc">
<polygon fill="white" stroke="black" points="976.5,-67.5 976.5,-97.5 1120.5,-97.5 1120.5,-67.5 976.5,-67.5"/>
<text text-anchor="start" x="984.5" y="-85.5" font-family="Helvetica,sans-Serif" font-size="10.00">/home/alejandro/Desarrollo</text>
<text text-anchor="middle" x="1048.5" y="-74.5" font-family="Helvetica,sans-Serif" font-size="10.00"> eclipse/os1/src/Optimizer.cc</text>
</a>
</g>
</g>
<!-- Node14&#45;&gt;Node20 -->
<g id="edge38" class="edge"><title>Node14&#45;&gt;Node20</title>
<path fill="none" stroke="midnightblue" d="M1134.72,-369.66C1117.99,-323.325 1088.35,-238.686 1067.5,-165 1060.89,-141.653 1054.82,-114.084 1051.4,-97.7369"/>
<polygon fill="midnightblue" stroke="midnightblue" points="1131.49,-371.013 1138.19,-379.222 1138.07,-368.628 1131.49,-371.013"/>
</g>
<!-- Node14&#45;&gt;Node23 -->
<g id="edge11" class="edge"><title>Node14&#45;&gt;Node23</title>
<path fill="none" stroke="midnightblue" d="M1075.38,-375.717C1048.48,-364.982 1018.18,-352.891 992.197,-342.521"/>
<polygon fill="midnightblue" stroke="midnightblue" points="1074.15,-378.997 1084.74,-379.453 1076.75,-372.495 1074.15,-378.997"/>
</g>
<!-- Node33 -->
<g id="node22" class="node"><title>Node33</title>
<g id="a_node22"><a xlink:href="types__six__dof__expmap_8cpp.html" target="_top" xlink:title="/home/alejandro/Desarrollo\l eclipse/os1/Thirdparty\l/g2o/g2o/types/types_six\l_dof_expmap.cpp">
<polygon fill="white" stroke="black" points="1176,-290.5 1176,-342.5 1309,-342.5 1309,-290.5 1176,-290.5"/>
<text text-anchor="start" x="1184" y="-330.5" font-family="Helvetica,sans-Serif" font-size="10.00">/home/alejandro/Desarrollo</text>
<text text-anchor="start" x="1184" y="-319.5" font-family="Helvetica,sans-Serif" font-size="10.00"> eclipse/os1/Thirdparty</text>
<text text-anchor="start" x="1184" y="-308.5" font-family="Helvetica,sans-Serif" font-size="10.00">/g2o/g2o/types/types_six</text>
<text text-anchor="middle" x="1242.5" y="-297.5" font-family="Helvetica,sans-Serif" font-size="10.00">_dof_expmap.cpp</text>
</a>
</g>
</g>
<!-- Node14&#45;&gt;Node33 -->
<g id="edge39" class="edge"><title>Node14&#45;&gt;Node33</title>
<path fill="none" stroke="midnightblue" d="M1182.59,-372.363C1193.32,-362.542 1204.95,-351.89 1215.08,-342.607"/>
<polygon fill="midnightblue" stroke="midnightblue" points="1179.99,-370.001 1174.98,-379.336 1184.72,-375.163 1179.99,-370.001"/>
</g>
<!-- Node16 -->
<g id="node5" class="node"><title>Node16</title>
<g id="a_node5"><a xlink:href="_converter_8cc.html" target="_top" xlink:title="/home/alejandro/Desarrollo\l eclipse/os1/src/Converter.cc">
<polygon fill="white" stroke="black" points="1532,-67.5 1532,-97.5 1677,-97.5 1677,-67.5 1532,-67.5"/>
<text text-anchor="start" x="1540" y="-85.5" font-family="Helvetica,sans-Serif" font-size="10.00">/home/alejandro/Desarrollo</text>
<text text-anchor="middle" x="1604.5" y="-74.5" font-family="Helvetica,sans-Serif" font-size="10.00"> eclipse/os1/src/Converter.cc</text>
</a>
</g>
</g>
<!-- Node15&#45;&gt;Node16 -->
<g id="edge4" class="edge"><title>Node15&#45;&gt;Node16</title>
<path fill="none" stroke="midnightblue" d="M1244.45,-136.761C1317.78,-126.922 1424.49,-112.235 1517.5,-98 1522.19,-97.2818 1527.02,-96.525 1531.89,-95.7493"/>
<polygon fill="midnightblue" stroke="midnightblue" points="1243.77,-133.32 1234.32,-138.117 1244.7,-140.258 1243.77,-133.32"/>
</g>
<!-- Node17 -->
<g id="node6" class="node"><title>Node17</title>
<g id="a_node6"><a xlink:href="_frame_8cc.html" target="_top" xlink:title="/home/alejandro/Desarrollo\l eclipse/os1/src/Frame.cc">
<polygon fill="white" stroke="black" points="1177,-67.5 1177,-97.5 1310,-97.5 1310,-67.5 1177,-67.5"/>
<text text-anchor="start" x="1185" y="-85.5" font-family="Helvetica,sans-Serif" font-size="10.00">/home/alejandro/Desarrollo</text>
<text text-anchor="middle" x="1243.5" y="-74.5" font-family="Helvetica,sans-Serif" font-size="10.00"> eclipse/os1/src/Frame.cc</text>
</a>
</g>
</g>
<!-- Node15&#45;&gt;Node17 -->
<g id="edge5" class="edge"><title>Node15&#45;&gt;Node17</title>
<path fill="none" stroke="midnightblue" d="M1182.64,-128.451C1196.18,-118.452 1212.23,-106.6 1224.44,-97.5765"/>
<polygon fill="midnightblue" stroke="midnightblue" points="1180.56,-125.639 1174.59,-134.396 1184.72,-131.27 1180.56,-125.639"/>
</g>
<!-- Node18 -->
<g id="node7" class="node"><title>Node18</title>
<g id="a_node7"><a xlink:href="_key_frame_8cc.html" target="_top" xlink:title="/home/alejandro/Desarrollo\l eclipse/os1/src/KeyFrame.cc">
<polygon fill="white" stroke="black" points="1328,-67.5 1328,-97.5 1475,-97.5 1475,-67.5 1328,-67.5"/>
<text text-anchor="start" x="1336" y="-85.5" font-family="Helvetica,sans-Serif" font-size="10.00">/home/alejandro/Desarrollo</text>
<text text-anchor="middle" x="1401.5" y="-74.5" font-family="Helvetica,sans-Serif" font-size="10.00"> eclipse/os1/src/KeyFrame.cc</text>
</a>
</g>
</g>
<!-- Node15&#45;&gt;Node18 -->
<g id="edge6" class="edge"><title>Node15&#45;&gt;Node18</title>
<path fill="none" stroke="midnightblue" d="M1218.26,-131.917C1258.4,-121.31 1309.92,-107.699 1348.1,-97.6109"/>
<polygon fill="midnightblue" stroke="midnightblue" points="1217.35,-128.537 1208.58,-134.476 1219.14,-135.305 1217.35,-128.537"/>
</g>
<!-- Node19 -->
<g id="node8" class="node"><title>Node19</title>
<g id="a_node8"><a xlink:href="_loop_closing_8cc.html" target="_top" xlink:title="/home/alejandro/Desarrollo\l eclipse/os1/src/LoopClosing.cc">
<polygon fill="white" stroke="black" points="802.5,-67.5 802.5,-97.5 958.5,-97.5 958.5,-67.5 802.5,-67.5"/>
<text text-anchor="start" x="810.5" y="-85.5" font-family="Helvetica,sans-Serif" font-size="10.00">/home/alejandro/Desarrollo</text>
<text text-anchor="middle" x="880.5" y="-74.5" font-family="Helvetica,sans-Serif" font-size="10.00"> eclipse/os1/src/LoopClosing.cc</text>
</a>
</g>
</g>
<!-- Node15&#45;&gt;Node19 -->
<g id="edge7" class="edge"><title>Node15&#45;&gt;Node19</title>
<path fill="none" stroke="midnightblue" d="M1086.19,-132.119C1041.2,-121.483 983.15,-107.763 940.2,-97.6109"/>
<polygon fill="midnightblue" stroke="midnightblue" points="1085.63,-135.582 1096.17,-134.476 1087.24,-128.77 1085.63,-135.582"/>
</g>
<!-- Node15&#45;&gt;Node20 -->
<g id="edge8" class="edge"><title>Node15&#45;&gt;Node20</title>
<path fill="none" stroke="midnightblue" d="M1123.42,-129.015C1106.77,-118.9 1086.81,-106.77 1071.67,-97.5765"/>
<polygon fill="midnightblue" stroke="midnightblue" points="1121.92,-132.195 1132.28,-134.396 1125.55,-126.213 1121.92,-132.195"/>
</g>
<!-- Node21 -->
<g id="node10" class="node"><title>Node21</title>
<g id="a_node10"><a xlink:href="_system_8cc.html" target="_top" xlink:title="/home/alejandro/Desarrollo\l eclipse/os1/src/System.cc">
<polygon fill="white" stroke="black" points="330.5,-0.5 330.5,-30.5 466.5,-30.5 466.5,-0.5 330.5,-0.5"/>
<text text-anchor="start" x="338.5" y="-18.5" font-family="Helvetica,sans-Serif" font-size="10.00">/home/alejandro/Desarrollo</text>
<text text-anchor="middle" x="398.5" y="-7.5" font-family="Helvetica,sans-Serif" font-size="10.00"> eclipse/os1/src/System.cc</text>
</a>
</g>
</g>
<!-- Node15&#45;&gt;Node21 -->
<g id="edge9" class="edge"><title>Node15&#45;&gt;Node21</title>
<path fill="none" stroke="midnightblue" d="M1154.72,-124.136C1152.71,-105.394 1146.69,-80.4915 1129.5,-67 1116.54,-56.8259 645.463,-30.0272 466.52,-20.1896"/>
<polygon fill="midnightblue" stroke="midnightblue" points="1151.25,-124.62 1155.49,-134.326 1158.23,-124.089 1151.25,-124.62"/>
</g>
<!-- Node22 -->
<g id="node11" class="node"><title>Node22</title>
<g id="a_node11"><a xlink:href="_tracking_8cc.html" target="_top" xlink:title="/home/alejandro/Desarrollo\l eclipse/os1/src/Tracking.cc">
<polygon fill="white" stroke="black" points="704.5,-0.5 704.5,-30.5 844.5,-30.5 844.5,-0.5 704.5,-0.5"/>
<text text-anchor="start" x="712.5" y="-18.5" font-family="Helvetica,sans-Serif" font-size="10.00">/home/alejandro/Desarrollo</text>
<text text-anchor="middle" x="774.5" y="-7.5" font-family="Helvetica,sans-Serif" font-size="10.00"> eclipse/os1/src/Tracking.cc</text>
</a>
</g>
</g>
<!-- Node15&#45;&gt;Node22 -->
<g id="edge10" class="edge"><title>Node15&#45;&gt;Node22</title>
<path fill="none" stroke="midnightblue" d="M1244.43,-147.363C1330.81,-144.15 1453.23,-133.282 1483.5,-98 1492.47,-87.5426 1492.89,-77.0825 1483.5,-67 1440.58,-20.9162 1015.33,-16.2162 844.753,-16.2036"/>
<polygon fill="midnightblue" stroke="midnightblue" points="1244.22,-143.868 1234.34,-147.71 1244.46,-150.864 1244.22,-143.868"/>
</g>
<!-- Node23&#45;&gt;Node15 -->
<g id="edge12" class="edge"><title>Node23&#45;&gt;Node15</title>
<path fill="none" stroke="midnightblue" d="M972.051,-284.434C1021.25,-248.517 1100.08,-190.962 1136.24,-164.561"/>
<polygon fill="midnightblue" stroke="midnightblue" points="969.837,-281.717 963.825,-290.44 973.965,-287.37 969.837,-281.717"/>
</g>
<!-- Node23&#45;&gt;Node20 -->
<g id="edge36" class="edge"><title>Node23&#45;&gt;Node20</title>
<path fill="none" stroke="midnightblue" d="M947.143,-281.103C973.687,-229.355 1022.75,-133.704 1041.22,-97.7007"/>
<polygon fill="midnightblue" stroke="midnightblue" points="943.911,-279.735 942.462,-290.23 950.14,-282.93 943.911,-279.735"/>
</g>
<!-- Node24 -->
<g id="node13" class="node"><title>Node24</title>
<g id="a_node13"><a xlink:href="_loop_closing_8h.html" target="_top" xlink:title="/home/alejandro/Desarrollo\l eclipse/os1/include/LoopClosing.h">
<polygon fill="white" stroke="black" points="385.5,-212.5 385.5,-242.5 553.5,-242.5 553.5,-212.5 385.5,-212.5"/>
<text text-anchor="start" x="393.5" y="-230.5" font-family="Helvetica,sans-Serif" font-size="10.00">/home/alejandro/Desarrollo</text>
<text text-anchor="middle" x="469.5" y="-219.5" font-family="Helvetica,sans-Serif" font-size="10.00"> eclipse/os1/include/LoopClosing.h</text>
</a>
</g>
</g>
<!-- Node23&#45;&gt;Node24 -->
<g id="edge13" class="edge"><title>Node23&#45;&gt;Node24</title>
<path fill="none" stroke="midnightblue" d="M849.398,-300.35C763.292,-284.065 627.529,-258.388 543.756,-242.544"/>
<polygon fill="midnightblue" stroke="midnightblue" points="848.909,-303.82 859.386,-302.239 850.21,-296.942 848.909,-303.82"/>
</g>
<!-- Node30 -->
<g id="node19" class="node"><title>Node30</title>
<g id="a_node19"><a xlink:href="_optimizer_8h.html" target="_top" xlink:title="/home/alejandro/Desarrollo\l eclipse/os1/include/Optimizer.h">
<polygon fill="white" stroke="black" points="696.5,-134.5 696.5,-164.5 852.5,-164.5 852.5,-134.5 696.5,-134.5"/>
<text text-anchor="start" x="704.5" y="-152.5" font-family="Helvetica,sans-Serif" font-size="10.00">/home/alejandro/Desarrollo</text>
<text text-anchor="middle" x="774.5" y="-141.5" font-family="Helvetica,sans-Serif" font-size="10.00"> eclipse/os1/include/Optimizer.h</text>
</a>
</g>
</g>
<!-- Node23&#45;&gt;Node30 -->
<g id="edge35" class="edge"><title>Node23&#45;&gt;Node30</title>
<path fill="none" stroke="midnightblue" d="M932.389,-280.143C932.502,-255.367 928.566,-222.896 910.5,-201 895.833,-183.224 874.277,-171.704 852.63,-164.238"/>
<polygon fill="midnightblue" stroke="midnightblue" points="928.888,-280.148 932.122,-290.237 935.886,-280.333 928.888,-280.148"/>
</g>
<!-- Node32 -->
<g id="node21" class="node"><title>Node32</title>
<g id="a_node21"><a xlink:href="types__seven__dof__expmap_8cpp.html" target="_top" xlink:title="/home/alejandro/Desarrollo\l eclipse/os1/Thirdparty\l/g2o/g2o/types/types_seven\l_dof_expmap.cpp">
<polygon fill="white" stroke="black" points="761.5,-201.5 761.5,-253.5 901.5,-253.5 901.5,-201.5 761.5,-201.5"/>
<text text-anchor="start" x="769.5" y="-241.5" font-family="Helvetica,sans-Serif" font-size="10.00">/home/alejandro/Desarrollo</text>
<text text-anchor="start" x="769.5" y="-230.5" font-family="Helvetica,sans-Serif" font-size="10.00"> eclipse/os1/Thirdparty</text>
<text text-anchor="start" x="769.5" y="-219.5" font-family="Helvetica,sans-Serif" font-size="10.00">/g2o/g2o/types/types_seven</text>
<text text-anchor="middle" x="831.5" y="-208.5" font-family="Helvetica,sans-Serif" font-size="10.00">_dof_expmap.cpp</text>
</a>
</g>
</g>
<!-- Node23&#45;&gt;Node32 -->
<g id="edge37" class="edge"><title>Node23&#45;&gt;Node32</title>
<path fill="none" stroke="midnightblue" d="M893.622,-283.649C882.47,-273.749 870.34,-262.98 859.782,-253.607"/>
<polygon fill="midnightblue" stroke="midnightblue" points="891.352,-286.314 901.154,-290.336 896,-281.08 891.352,-286.314"/>
</g>
<!-- Node24&#45;&gt;Node19 -->
<g id="edge33" class="edge"><title>Node24&#45;&gt;Node19</title>
<path fill="none" stroke="midnightblue" d="M563.942,-217.226C672.913,-205.672 839.967,-185.007 861.5,-165 880.126,-147.694 882.166,-115.963 881.591,-97.6166"/>
<polygon fill="midnightblue" stroke="midnightblue" points="563.492,-213.754 553.913,-218.281 564.224,-220.715 563.492,-213.754"/>
</g>
<!-- Node24&#45;&gt;Node21 -->
<g id="edge34" class="edge"><title>Node24&#45;&gt;Node21</title>
<path fill="none" stroke="midnightblue" d="M468.232,-202.045C466.366,-182.626 461.775,-155.294 450.5,-134 440.058,-114.278 425.972,-117.706 415.5,-98 403.969,-76.3021 400.256,-47.482 399.063,-30.5671"/>
<polygon fill="midnightblue" stroke="midnightblue" points="464.757,-202.499 469.029,-212.194 471.735,-201.95 464.757,-202.499"/>
</g>
<!-- Node25 -->
<g id="node14" class="node"><title>Node25</title>
<g id="a_node14"><a xlink:href="_local_mapping_8h.html" target="_top" xlink:title="/home/alejandro/Desarrollo\l eclipse/os1/include/LocalMapping.h">
<polygon fill="white" stroke="black" points="267.5,-134.5 267.5,-164.5 441.5,-164.5 441.5,-134.5 267.5,-134.5"/>
<text text-anchor="start" x="275.5" y="-152.5" font-family="Helvetica,sans-Serif" font-size="10.00">/home/alejandro/Desarrollo</text>
<text text-anchor="middle" x="354.5" y="-141.5" font-family="Helvetica,sans-Serif" font-size="10.00"> eclipse/os1/include/LocalMapping.h</text>
</a>
</g>
</g>
<!-- Node24&#45;&gt;Node25 -->
<g id="edge14" class="edge"><title>Node24&#45;&gt;Node25</title>
<path fill="none" stroke="midnightblue" d="M433.959,-206.967C412.689,-193.699 386.811,-176.463 370.369,-164.541"/>
<polygon fill="midnightblue" stroke="midnightblue" points="432.401,-210.118 442.751,-212.383 436.072,-204.158 432.401,-210.118"/>
</g>
<!-- Node26 -->
<g id="node15" class="node"><title>Node26</title>
<g id="a_node15"><a xlink:href="_tracking_8h.html" target="_top" xlink:title="/home/alejandro/Desarrollo\l eclipse/os1/include/Tracking.h">
<polygon fill="white" stroke="black" points="170.5,-67.5 170.5,-97.5 322.5,-97.5 322.5,-67.5 170.5,-67.5"/>
<text text-anchor="start" x="178.5" y="-85.5" font-family="Helvetica,sans-Serif" font-size="10.00">/home/alejandro/Desarrollo</text>
<text text-anchor="middle" x="246.5" y="-74.5" font-family="Helvetica,sans-Serif" font-size="10.00"> eclipse/os1/include/Tracking.h</text>
</a>
</g>
</g>
<!-- Node24&#45;&gt;Node26 -->
<g id="edge25" class="edge"><title>Node24&#45;&gt;Node26</title>
<path fill="none" stroke="midnightblue" d="M375.235,-222.67C330.581,-216.071 280.434,-200.506 249.5,-165 233.247,-146.345 233.481,-115.684 238.118,-97.7631"/>
<polygon fill="midnightblue" stroke="midnightblue" points="374.885,-226.154 385.262,-224.018 375.817,-219.216 374.885,-226.154"/>
</g>
<!-- Node29 -->
<g id="node18" class="node"><title>Node29</title>
<g id="a_node18"><a xlink:href="_local_mapping_8cc.html" target="_top" xlink:title="/home/alejandro/Desarrollo\l eclipse/os1/src/LocalMapping.cc">
<polygon fill="white" stroke="black" points="424.5,-67.5 424.5,-97.5 586.5,-97.5 586.5,-67.5 424.5,-67.5"/>
<text text-anchor="start" x="432.5" y="-85.5" font-family="Helvetica,sans-Serif" font-size="10.00">/home/alejandro/Desarrollo</text>
<text text-anchor="middle" x="505.5" y="-74.5" font-family="Helvetica,sans-Serif" font-size="10.00"> eclipse/os1/src/LocalMapping.cc</text>
</a>
</g>
</g>
<!-- Node24&#45;&gt;Node29 -->
<g id="edge32" class="edge"><title>Node24&#45;&gt;Node29</title>
<path fill="none" stroke="midnightblue" d="M475.619,-202.194C483.18,-172.159 495.796,-122.048 501.931,-97.6766"/>
<polygon fill="midnightblue" stroke="midnightblue" points="472.131,-201.714 473.083,-212.266 478.919,-203.423 472.131,-201.714"/>
</g>
<!-- Node24&#45;&gt;Node30 -->
<g id="edge26" class="edge"><title>Node24&#45;&gt;Node30</title>
<path fill="none" stroke="midnightblue" d="M535.711,-210.001C590.232,-196.416 666.686,-177.365 718.273,-164.511"/>
<polygon fill="midnightblue" stroke="midnightblue" points="534.654,-206.658 525.797,-212.472 536.347,-213.45 534.654,-206.658"/>
</g>
<!-- Node25&#45;&gt;Node21 -->
<g id="edge24" class="edge"><title>Node25&#45;&gt;Node21</title>
<path fill="none" stroke="midnightblue" d="M362.415,-124.754C371.57,-97.291 386.338,-52.9873 393.825,-30.5247"/>
<polygon fill="midnightblue" stroke="midnightblue" points="359.051,-123.78 359.209,-134.374 365.692,-125.994 359.051,-123.78"/>
</g>
<!-- Node25&#45;&gt;Node24 -->
<g id="edge15" class="edge"><title>Node25&#45;&gt;Node24</title>
<path fill="none" stroke="midnightblue" d="M390.162,-170.109C411.258,-183.272 436.855,-200.316 453.281,-212.205"/>
<polygon fill="midnightblue" stroke="midnightblue" points="391.786,-166.998 381.437,-164.731 388.113,-172.957 391.786,-166.998"/>
</g>
<!-- Node25&#45;&gt;Node26 -->
<g id="edge16" class="edge"><title>Node25&#45;&gt;Node26</title>
<path fill="none" stroke="midnightblue" d="M316.371,-129.296C298.615,-119.125 278.411,-106.855 264.214,-97.5765"/>
<polygon fill="midnightblue" stroke="midnightblue" points="314.96,-132.519 325.387,-134.396 318.406,-126.426 314.96,-132.519"/>
</g>
<!-- Node25&#45;&gt;Node29 -->
<g id="edge23" class="edge"><title>Node25&#45;&gt;Node29</title>
<path fill="none" stroke="midnightblue" d="M396.532,-130.407C420.639,-120.029 450.454,-107.195 472.799,-97.5765"/>
<polygon fill="midnightblue" stroke="midnightblue" points="395.066,-127.227 387.265,-134.396 397.834,-133.657 395.066,-127.227"/>
</g>
<!-- Node26&#45;&gt;Node21 -->
<g id="edge20" class="edge"><title>Node26&#45;&gt;Node21</title>
<path fill="none" stroke="midnightblue" d="M288.811,-63.4066C313.077,-53.0294 343.089,-40.1954 365.583,-30.5765"/>
<polygon fill="midnightblue" stroke="midnightblue" points="287.3,-60.2459 279.482,-67.396 290.053,-66.6821 287.3,-60.2459"/>
</g>
<!-- Node26&#45;&gt;Node22 -->
<g id="edge21" class="edge"><title>Node26&#45;&gt;Node22</title>
<path fill="none" stroke="midnightblue" d="M332.834,-70.8718C436.478,-58.1126 608.292,-36.9612 704.217,-25.1522"/>
<polygon fill="midnightblue" stroke="midnightblue" points="332.209,-67.4222 322.712,-72.1179 333.065,-74.3697 332.209,-67.4222"/>
</g>
<!-- Node26&#45;&gt;Node24 -->
<g id="edge17" class="edge"><title>Node26&#45;&gt;Node24</title>
<path fill="none" stroke="midnightblue" d="M251.012,-107.754C251.867,-125.645 253.977,-149.478 267.5,-165 297.013,-198.876 344.017,-214.6 385.301,-221.703"/>
<polygon fill="midnightblue" stroke="midnightblue" points="254.508,-107.596 250.563,-97.7631 247.515,-107.91 254.508,-107.596"/>
</g>
<!-- Node26&#45;&gt;Node25 -->
<g id="edge18" class="edge"><title>Node26&#45;&gt;Node25</title>
<path fill="none" stroke="midnightblue" d="M284.577,-102.674C302.327,-112.841 322.536,-125.112 336.744,-134.396"/>
<polygon fill="midnightblue" stroke="midnightblue" points="285.991,-99.453 275.563,-97.5765 282.545,-105.546 285.991,-99.453"/>
</g>
<!-- Node27 -->
<g id="node16" class="node"><title>Node27</title>
<g id="a_node16"><a xlink:href="_frame_drawer_8cc.html" target="_top" xlink:title="/home/alejandro/Desarrollo\l eclipse/os1/src/FrameDrawer.cc">
<polygon fill="white" stroke="black" points="0,-0.5 0,-30.5 161,-30.5 161,-0.5 0,-0.5"/>
<text text-anchor="start" x="8" y="-18.5" font-family="Helvetica,sans-Serif" font-size="10.00">/home/alejandro/Desarrollo</text>
<text text-anchor="middle" x="80.5" y="-7.5" font-family="Helvetica,sans-Serif" font-size="10.00"> eclipse/os1/src/FrameDrawer.cc</text>
</a>
</g>
</g>
<!-- Node26&#45;&gt;Node27 -->
<g id="edge19" class="edge"><title>Node26&#45;&gt;Node27</title>
<path fill="none" stroke="midnightblue" d="M200.994,-63.6815C174.371,-53.2568 141.232,-40.2805 116.449,-30.5765"/>
<polygon fill="midnightblue" stroke="midnightblue" points="199.893,-67.0089 210.48,-67.396 202.445,-60.4907 199.893,-67.0089"/>
</g>
<!-- Node28 -->
<g id="node17" class="node"><title>Node28</title>
<g id="a_node17"><a xlink:href="_viewer_8cc.html" target="_top" xlink:title="/home/alejandro/Desarrollo\l eclipse/os1/src/Viewer.cc">
<polygon fill="white" stroke="black" points="179,-0.5 179,-30.5 312,-30.5 312,-0.5 179,-0.5"/>
<text text-anchor="start" x="187" y="-18.5" font-family="Helvetica,sans-Serif" font-size="10.00">/home/alejandro/Desarrollo</text>
<text text-anchor="middle" x="245.5" y="-7.5" font-family="Helvetica,sans-Serif" font-size="10.00"> eclipse/os1/src/Viewer.cc</text>
</a>
</g>
</g>
<!-- Node26&#45;&gt;Node28 -->
<g id="edge22" class="edge"><title>Node26&#45;&gt;Node28</title>
<path fill="none" stroke="midnightblue" d="M246.125,-57.1081C245.987,-48.1539 245.836,-38.3227 245.717,-30.5765"/>
<polygon fill="midnightblue" stroke="midnightblue" points="242.63,-57.451 246.283,-67.396 249.629,-57.3433 242.63,-57.451"/>
</g>
<!-- Node30&#45;&gt;Node19 -->
<g id="edge29" class="edge"><title>Node30&#45;&gt;Node19</title>
<path fill="none" stroke="midnightblue" d="M806.275,-129.015C822.771,-118.9 842.552,-106.77 857.544,-97.5765"/>
<polygon fill="midnightblue" stroke="midnightblue" points="804.196,-126.185 797.5,-134.396 807.855,-132.152 804.196,-126.185"/>
</g>
<!-- Node30&#45;&gt;Node20 -->
<g id="edge30" class="edge"><title>Node30&#45;&gt;Node20</title>
<path fill="none" stroke="midnightblue" d="M843.554,-132.119C888.389,-121.483 946.223,-107.763 989.017,-97.6109"/>
<polygon fill="midnightblue" stroke="midnightblue" points="842.539,-128.762 833.617,-134.476 844.154,-135.573 842.539,-128.762"/>
</g>
<!-- Node30&#45;&gt;Node22 -->
<g id="edge31" class="edge"><title>Node30&#45;&gt;Node22</title>
<path fill="none" stroke="midnightblue" d="M774.5,-124.024C774.5,-96.5121 774.5,-52.7894 774.5,-30.5247"/>
<polygon fill="midnightblue" stroke="midnightblue" points="771,-124.374 774.5,-134.374 778,-124.374 771,-124.374"/>
</g>
<!-- Node30&#45;&gt;Node29 -->
<g id="edge28" class="edge"><title>Node30&#45;&gt;Node29</title>
<path fill="none" stroke="midnightblue" d="M706.706,-132.119C662.69,-121.483 605.911,-107.763 563.897,-97.6109"/>
<polygon fill="midnightblue" stroke="midnightblue" points="705.92,-135.529 716.462,-134.476 707.564,-128.725 705.92,-135.529"/>
</g>
<!-- Node31 -->
<g id="node20" class="node"><title>Node31</title>
<g id="a_node20"><a xlink:href="_initializer_8cc.html" target="_top" xlink:title="/home/alejandro/Desarrollo\l eclipse/os1/src/Initializer.cc">
<polygon fill="white" stroke="black" points="605,-67.5 605,-97.5 746,-97.5 746,-67.5 605,-67.5"/>
<text text-anchor="start" x="613" y="-85.5" font-family="Helvetica,sans-Serif" font-size="10.00">/home/alejandro/Desarrollo</text>
<text text-anchor="middle" x="675.5" y="-74.5" font-family="Helvetica,sans-Serif" font-size="10.00"> eclipse/os1/src/Initializer.cc</text>
</a>
</g>
</g>
<!-- Node30&#45;&gt;Node31 -->
<g id="edge27" class="edge"><title>Node30&#45;&gt;Node31</title>
<path fill="none" stroke="midnightblue" d="M744.394,-128.734C729.075,-118.676 710.812,-106.685 696.94,-97.5765"/>
<polygon fill="midnightblue" stroke="midnightblue" points="742.738,-131.833 753.018,-134.396 746.58,-125.982 742.738,-131.833"/>
</g>
<!-- Node34&#45;&gt;Node14 -->
<g id="edge41" class="edge"><title>Node34&#45;&gt;Node14</title>
<path fill="none" stroke="midnightblue" d="M1079.99,-467.05C1092.48,-455.85 1106.96,-442.859 1119.31,-431.788"/>
<polygon fill="midnightblue" stroke="midnightblue" points="1077.62,-464.476 1072.51,-473.758 1082.29,-469.687 1077.62,-464.476"/>
</g>
<!-- Node35 -->
<g id="node24" class="node"><title>Node35</title>
<g id="a_node24"><a xlink:href="types__sba_8cpp.html" target="_top" xlink:title="/home/alejandro/Desarrollo\l eclipse/os1/Thirdparty\l/g2o/g2o/types/types_sba.cpp">
<polygon fill="white" stroke="black" points="914.5,-385 914.5,-426 1062.5,-426 1062.5,-385 914.5,-385"/>
<text text-anchor="start" x="922.5" y="-414" font-family="Helvetica,sans-Serif" font-size="10.00">/home/alejandro/Desarrollo</text>
<text text-anchor="start" x="922.5" y="-403" font-family="Helvetica,sans-Serif" font-size="10.00"> eclipse/os1/Thirdparty</text>
<text text-anchor="middle" x="988.5" y="-392" font-family="Helvetica,sans-Serif" font-size="10.00">/g2o/g2o/types/types_sba.cpp</text>
</a>
</g>
</g>
<!-- Node34&#45;&gt;Node35 -->
<g id="edge42" class="edge"><title>Node34&#45;&gt;Node35</title>
<path fill="none" stroke="midnightblue" d="M1030.4,-465.297C1021.29,-452.517 1010.75,-437.717 1002.51,-426.164"/>
<polygon fill="midnightblue" stroke="midnightblue" points="1027.78,-467.646 1036.43,-473.758 1033.48,-463.583 1027.78,-467.646"/>
</g>
<!-- Node36&#45;&gt;Node33 -->
<g id="edge49" class="edge"><title>Node36&#45;&gt;Node33</title>
<path fill="none" stroke="midnightblue" d="M1412.06,-567.693C1354.08,-558.956 1281.13,-543.787 1261.5,-521 1218.08,-470.589 1228.07,-384.856 1236.53,-342.585"/>
<polygon fill="midnightblue" stroke="midnightblue" points="1411.56,-571.156 1421.96,-569.144 1412.57,-564.23 1411.56,-571.156"/>
</g>
<!-- Node37 -->
<g id="node26" class="node"><title>Node37</title>
<g id="a_node26"><a xlink:href="cache_8cpp.html" target="_top" xlink:title="/home/alejandro/Desarrollo\l eclipse/os1/Thirdparty\l/g2o/g2o/core/cache.cpp">
<polygon fill="white" stroke="black" points="1271,-474 1271,-515 1404,-515 1404,-474 1271,-474"/>
<text text-anchor="start" x="1279" y="-503" font-family="Helvetica,sans-Serif" font-size="10.00">/home/alejandro/Desarrollo</text>
<text text-anchor="start" x="1279" y="-492" font-family="Helvetica,sans-Serif" font-size="10.00"> eclipse/os1/Thirdparty</text>
<text text-anchor="middle" x="1337.5" y="-481" font-family="Helvetica,sans-Serif" font-size="10.00">/g2o/g2o/core/cache.cpp</text>
</a>
</g>
</g>
<!-- Node36&#45;&gt;Node37 -->
<g id="edge45" class="edge"><title>Node36&#45;&gt;Node37</title>
<path fill="none" stroke="midnightblue" d="M1443.39,-552.65C1421.1,-540.619 1394.56,-526.299 1373.63,-515.003"/>
<polygon fill="midnightblue" stroke="midnightblue" points="1441.87,-555.809 1452.33,-557.479 1445.19,-549.649 1441.87,-555.809"/>
</g>
<!-- Node36&#45;&gt;Node38 -->
<g id="edge46" class="edge"><title>Node36&#45;&gt;Node38</title>
<path fill="none" stroke="midnightblue" d="M1565.19,-564.359C1621.8,-554.376 1700.49,-539.132 1768.5,-521 1775.09,-519.243 1781.94,-517.225 1788.71,-515.109"/>
<polygon fill="midnightblue" stroke="midnightblue" points="1564.48,-560.929 1555.24,-566.1 1565.69,-567.824 1564.48,-560.929"/>
</g>
<!-- Node39 -->
<g id="node28" class="node"><title>Node39</title>
<g id="a_node28"><a xlink:href="optimizable__graph_8cpp.html" target="_top" xlink:title="/home/alejandro/Desarrollo\l eclipse/os1/Thirdparty\l/g2o/g2o/core/optimizable\l_graph.cpp">
<polygon fill="white" stroke="black" points="1422,-468.5 1422,-520.5 1555,-520.5 1555,-468.5 1422,-468.5"/>
<text text-anchor="start" x="1430" y="-508.5" font-family="Helvetica,sans-Serif" font-size="10.00">/home/alejandro/Desarrollo</text>
<text text-anchor="start" x="1430" y="-497.5" font-family="Helvetica,sans-Serif" font-size="10.00"> eclipse/os1/Thirdparty</text>
<text text-anchor="start" x="1430" y="-486.5" font-family="Helvetica,sans-Serif" font-size="10.00">/g2o/g2o/core/optimizable</text>
<text text-anchor="middle" x="1488.5" y="-475.5" font-family="Helvetica,sans-Serif" font-size="10.00">_graph.cpp</text>
</a>
</g>
</g>
<!-- Node36&#45;&gt;Node39 -->
<g id="edge47" class="edge"><title>Node36&#45;&gt;Node39</title>
<path fill="none" stroke="midnightblue" d="M1488.5,-547.121C1488.5,-538.413 1488.5,-528.989 1488.5,-520.607"/>
<polygon fill="midnightblue" stroke="midnightblue" points="1485,-547.271 1488.5,-557.271 1492,-547.271 1485,-547.271"/>
</g>
<!-- Node40 -->
<g id="node29" class="node"><title>Node40</title>
<g id="a_node29"><a xlink:href="parameter__container_8cpp.html" target="_top" xlink:title="/home/alejandro/Desarrollo\l eclipse/os1/Thirdparty\l/g2o/g2o/core/parameter_container.cpp">
<polygon fill="white" stroke="black" points="1573.5,-474 1573.5,-515 1759.5,-515 1759.5,-474 1573.5,-474"/>
<text text-anchor="start" x="1581.5" y="-503" font-family="Helvetica,sans-Serif" font-size="10.00">/home/alejandro/Desarrollo</text>
<text text-anchor="start" x="1581.5" y="-492" font-family="Helvetica,sans-Serif" font-size="10.00"> eclipse/os1/Thirdparty</text>
<text text-anchor="middle" x="1666.5" y="-481" font-family="Helvetica,sans-Serif" font-size="10.00">/g2o/g2o/core/parameter_container.cpp</text>
</a>
</g>
</g>
<!-- Node36&#45;&gt;Node40 -->
<g id="edge48" class="edge"><title>Node36&#45;&gt;Node40</title>
<path fill="none" stroke="midnightblue" d="M1540.28,-553.29C1566.84,-541.129 1598.79,-526.5 1623.9,-515.003"/>
<polygon fill="midnightblue" stroke="midnightblue" points="1538.77,-550.133 1531.14,-557.479 1541.68,-556.498 1538.77,-550.133"/>
</g>
</g>
</svg>
