<?xml version="1.0" encoding="UTF-8" standalone="no"?>
<!DOCTYPE svg PUBLIC "-//W3C//DTD SVG 1.1//EN"
 "http://www.w3.org/Graphics/SVG/1.1/DTD/svg11.dtd">
<!-- Generated by graphviz version 2.38.0 (20140413.2041)
 -->
<!-- Title: /home/alejandro/Desarrollo eclipse/os1/Thirdparty/g2o Pages: 1 -->
<svg width="254pt" height="111pt"
 viewBox="0.00 0.00 254.00 111.00" xmlns="http://www.w3.org/2000/svg" xmlns:xlink="http://www.w3.org/1999/xlink">
<g id="graph0" class="graph" transform="scale(1 1) rotate(0) translate(4 107)">
<title>/home/alejandro/Desarrollo eclipse/os1/Thirdparty/g2o</title>
<polygon fill="white" stroke="none" points="-4,4 -4,-107 250,-107 250,4 -4,4"/>
<g id="clust1" class="cluster"><title>clusterdir_08235c883c2d11e586a63e6645937db5</title>
<g id="a_clust1"><a xlink:href="dir_08235c883c2d11e586a63e6645937db5.html" target="_top" xlink:title="Thirdparty">
<polygon fill="#ddddee" stroke="black" points="8,-8 8,-95 238,-95 238,-8 8,-8"/>
<text text-anchor="middle" x="123" y="-83" font-family="Helvetica,sans-Serif" font-size="10.00">Thirdparty</text>
</a>
</g>
</g>
<g id="clust2" class="cluster"><title>clusterdir_6238d635334f7e809f450ee18181fd21</title>
<g id="a_clust2"><a xlink:href="dir_6238d635334f7e809f450ee18181fd21.html" target="_top">
<polygon fill="#eeeeff" stroke="black" points="16,-16 16,-68 230,-68 230,-16 16,-16"/>
</a>
</g>
</g>
<!-- dir_6238d635334f7e809f450ee18181fd21 -->
<g id="node1" class="node"><title>dir_6238d635334f7e809f450ee18181fd21</title>
<text text-anchor="middle" x="195" y="-39.5" font-family="Helvetica,sans-Serif" font-size="10.00">g2o</text>
</g>
<!-- dir_62a53d30c17c36057e41412a1a4f77b8 -->
<g id="node2" class="node"><title>dir_62a53d30c17c36057e41412a1a4f77b8</title>
<g id="a_node2"><a xlink:href="dir_62a53d30c17c36057e41412a1a4f77b8.html" target="_top" xlink:title="g2o">
<polygon fill="white" stroke="red" points="150,-60 96,-60 96,-24 150,-24 150,-60"/>
<text text-anchor="middle" x="123" y="-39.5" font-family="Helvetica,sans-Serif" font-size="10.00">g2o</text>
</a>
</g>
</g>
<!-- dir_3ef54c86c1f5ebf2dc593590028d6fdc -->
<g id="node3" class="node"><title>dir_3ef54c86c1f5ebf2dc593590028d6fdc</title>
<g id="a_node3"><a xlink:href="dir_3ef54c86c1f5ebf2dc593590028d6fdc.html" target="_top" xlink:title="Release">
<polygon fill="white" stroke="red" points="78,-60 24,-60 24,-24 78,-24 78,-60"/>
<text text-anchor="middle" x="51" y="-39.5" font-family="Helvetica,sans-Serif" font-size="10.00">Release</text>
</a>
</g>
</g>
</g>
</svg>
