<?xml version="1.0" encoding="UTF-8" standalone="no"?>
<!DOCTYPE svg PUBLIC "-//W3C//DTD SVG 1.1//EN"
 "http://www.w3.org/Graphics/SVG/1.1/DTD/svg11.dtd">
<!-- Generated by graphviz version 2.38.0 (20140413.2041)
 -->
<!-- Title: /home/alejandro/Desarrollo eclipse/os1/Thirdparty/DBoW2 Pages: 1 -->
<svg width="254pt" height="183pt"
 viewBox="0.00 0.00 254.00 183.00" xmlns="http://www.w3.org/2000/svg" xmlns:xlink="http://www.w3.org/1999/xlink">
<g id="graph0" class="graph" transform="scale(1 1) rotate(0) translate(4 179)">
<title>/home/alejandro/Desarrollo eclipse/os1/Thirdparty/DBoW2</title>
<polygon fill="white" stroke="none" points="-4,4 -4,-179 250,-179 250,4 -4,4"/>
<g id="clust1" class="cluster"><title>clusterdir_08235c883c2d11e586a63e6645937db5</title>
<g id="a_clust1"><a xlink:href="dir_08235c883c2d11e586a63e6645937db5.html" target="_top" xlink:title="Thirdparty">
<polygon fill="#ddddee" stroke="black" points="8,-8 8,-167 238,-167 238,-8 8,-8"/>
<text text-anchor="middle" x="123" y="-155" font-family="Helvetica,sans-Serif" font-size="10.00">Thirdparty</text>
</a>
</g>
</g>
<g id="clust2" class="cluster"><title>clusterdir_d1a1b6b9a428c17d660585cf3877a970</title>
<g id="a_clust2"><a xlink:href="dir_d1a1b6b9a428c17d660585cf3877a970.html" target="_top">
<polygon fill="#eeeeff" stroke="black" points="16,-16 16,-140 230,-140 230,-16 16,-16"/>
</a>
</g>
</g>
<!-- dir_d1a1b6b9a428c17d660585cf3877a970 -->
<g id="node1" class="node"><title>dir_d1a1b6b9a428c17d660585cf3877a970</title>
<text text-anchor="middle" x="195" y="-111.5" font-family="Helvetica,sans-Serif" font-size="10.00">DBoW2</text>
</g>
<!-- dir_004f071c35dfaac2458bd63a15bbc95f -->
<g id="node2" class="node"><title>dir_004f071c35dfaac2458bd63a15bbc95f</title>
<g id="a_node2"><a xlink:href="dir_004f071c35dfaac2458bd63a15bbc95f.html" target="_top" xlink:title="DBoW2">
<polygon fill="white" stroke="black" points="150,-132 96,-132 96,-96 150,-96 150,-132"/>
<text text-anchor="middle" x="123" y="-111.5" font-family="Helvetica,sans-Serif" font-size="10.00">DBoW2</text>
</a>
</g>
</g>
<!-- dir_e9a4af7428d78393e998361510b02141 -->
<g id="node3" class="node"><title>dir_e9a4af7428d78393e998361510b02141</title>
<g id="a_node3"><a xlink:href="dir_e9a4af7428d78393e998361510b02141.html" target="_top" xlink:title="DUtils">
<polygon fill="white" stroke="black" points="150,-60 96,-60 96,-24 150,-24 150,-60"/>
<text text-anchor="middle" x="123" y="-39.5" font-family="Helvetica,sans-Serif" font-size="10.00">DUtils</text>
</a>
</g>
</g>
<!-- dir_004f071c35dfaac2458bd63a15bbc95f&#45;&gt;dir_e9a4af7428d78393e998361510b02141 -->
<g id="edge1" class="edge"><title>dir_004f071c35dfaac2458bd63a15bbc95f&#45;&gt;dir_e9a4af7428d78393e998361510b02141</title>
<path fill="none" stroke="black" d="M123,-95.6966C123,-87.9827 123,-78.7125 123,-70.1124"/>
<polygon fill="black" stroke="black" points="126.5,-70.1043 123,-60.1043 119.5,-70.1044 126.5,-70.1043"/>
<g id="a_edge1&#45;headlabel"><a xlink:href="dir_000004_000005.html" target="_top" xlink:title="1">
<text text-anchor="middle" x="129.339" y="-71.199" font-family="Helvetica,sans-Serif" font-size="10.00">1</text>
</a>
</g>
</g>
<!-- dir_a4e8e7d2ae2c0f4f4fc1af010c961630 -->
<g id="node4" class="node"><title>dir_a4e8e7d2ae2c0f4f4fc1af010c961630</title>
<g id="a_node4"><a xlink:href="dir_a4e8e7d2ae2c0f4f4fc1af010c961630.html" target="_top" xlink:title="Release">
<polygon fill="white" stroke="red" points="78,-132 24,-132 24,-96 78,-96 78,-132"/>
<text text-anchor="middle" x="51" y="-111.5" font-family="Helvetica,sans-Serif" font-size="10.00">Release</text>
</a>
</g>
</g>
</g>
</svg>
