<?xml version="1.0" encoding="UTF-8" standalone="no"?>
<!DOCTYPE svg PUBLIC "-//W3C//DTD SVG 1.1//EN"
 "http://www.w3.org/Graphics/SVG/1.1/DTD/svg11.dtd">
<!-- Generated by graphviz version 2.38.0 (20140413.2041)
 -->
<!-- Title: /home/alejandro/Desarrollo eclipse/os1/Thirdparty/g2o/g2o/core/factory.cpp Pages: 1 -->
<svg width="1386pt" height="330pt"
 viewBox="0.00 0.00 1385.95 330.00" xmlns="http://www.w3.org/2000/svg" xmlns:xlink="http://www.w3.org/1999/xlink">
<g id="graph0" class="graph" transform="scale(1 1) rotate(0) translate(4 326)">
<title>/home/alejandro/Desarrollo eclipse/os1/Thirdparty/g2o/g2o/core/factory.cpp</title>
<polygon fill="white" stroke="none" points="-4,4 -4,-326 1381.95,-326 1381.95,4 -4,4"/>
<!-- Node0 -->
<g id="node1" class="node"><title>Node0</title>
<polygon fill="#bfbfbf" stroke="black" points="179.95,-280.5 179.95,-321.5 312.95,-321.5 312.95,-280.5 179.95,-280.5"/>
<text text-anchor="start" x="187.95" y="-309.5" font-family="Helvetica,sans-Serif" font-size="10.00">/home/alejandro/Desarrollo</text>
<text text-anchor="start" x="187.95" y="-298.5" font-family="Helvetica,sans-Serif" font-size="10.00"> eclipse/os1/Thirdparty</text>
<text text-anchor="middle" x="246.45" y="-287.5" font-family="Helvetica,sans-Serif" font-size="10.00">/g2o/g2o/core/factory.cpp</text>
</g>
<!-- Node1 -->
<g id="node2" class="node"><title>Node1</title>
<g id="a_node2"><a xlink:href="factory_8h.html" target="_top" xlink:title="factory.h">
<polygon fill="white" stroke="black" points="162.95,-168.5 162.95,-187.5 217.95,-187.5 217.95,-168.5 162.95,-168.5"/>
<text text-anchor="middle" x="190.45" y="-175.5" font-family="Helvetica,sans-Serif" font-size="10.00">factory.h</text>
</a>
</g>
</g>
<!-- Node0&#45;&gt;Node1 -->
<g id="edge1" class="edge"><title>Node0&#45;&gt;Node1</title>
<path fill="none" stroke="midnightblue" d="M237.328,-280.29C226.625,-257.166 209.036,-219.16 198.717,-196.864"/>
<polygon fill="midnightblue" stroke="midnightblue" points="201.795,-195.18 194.418,-187.575 195.442,-198.12 201.795,-195.18"/>
</g>
<!-- Node11 -->
<g id="node12" class="node"><title>Node11</title>
<polygon fill="white" stroke="#bfbfbf" points="1118.95,-0.5 1118.95,-19.5 1167.95,-19.5 1167.95,-0.5 1118.95,-0.5"/>
<text text-anchor="middle" x="1143.45" y="-7.5" font-family="Helvetica,sans-Serif" font-size="10.00">cassert</text>
</g>
<!-- Node0&#45;&gt;Node11 -->
<g id="edge56" class="edge"><title>Node0&#45;&gt;Node11</title>
<path fill="none" stroke="midnightblue" d="M313.195,-298.855C535.143,-294.175 1234.45,-272.047 1234.45,-179 1234.45,-179 1234.45,-179 1234.45,-121 1234.45,-78.4684 1193.56,-43.5303 1166.6,-25.1161"/>
<polygon fill="midnightblue" stroke="midnightblue" points="1168.35,-22.0787 1158.07,-19.5177 1164.51,-27.9308 1168.35,-22.0787"/>
</g>
<!-- Node16 -->
<g id="node17" class="node"><title>Node16</title>
<g id="a_node17"><a xlink:href="creators_8h.html" target="_top" xlink:title="creators.h">
<polygon fill="white" stroke="black" points="31.4496,-112.5 31.4496,-131.5 91.4496,-131.5 91.4496,-112.5 31.4496,-112.5"/>
<text text-anchor="middle" x="61.4496" y="-119.5" font-family="Helvetica,sans-Serif" font-size="10.00">creators.h</text>
</a>
</g>
</g>
<!-- Node0&#45;&gt;Node16 -->
<g id="edge23" class="edge"><title>Node0&#45;&gt;Node16</title>
<path fill="none" stroke="midnightblue" d="M225.945,-280.382C188.999,-245.034 111.952,-171.319 78.0581,-138.89"/>
<polygon fill="midnightblue" stroke="midnightblue" points="80.0666,-135.968 70.4214,-131.584 75.2274,-141.026 80.0666,-135.968"/>
</g>
<!-- Node18 -->
<g id="node19" class="node"><title>Node18</title>
<polygon fill="white" stroke="#bfbfbf" points="32.9496,-56.5 32.9496,-75.5 83.9496,-75.5 83.9496,-56.5 32.9496,-56.5"/>
<text text-anchor="middle" x="58.4496" y="-63.5" font-family="Helvetica,sans-Serif" font-size="10.00">typeinfo</text>
</g>
<!-- Node0&#45;&gt;Node18 -->
<g id="edge55" class="edge"><title>Node0&#45;&gt;Node18</title>
<path fill="none" stroke="midnightblue" d="M179.921,-298.621C135.703,-294.064 79.6781,-280.682 45.4496,-244 4.82231,-200.46 2.73795,-168.194 22.4496,-112 26.2348,-101.209 33.8161,-91.084 41.0494,-83.1808"/>
<polygon fill="midnightblue" stroke="midnightblue" points="43.7752,-85.4005 48.2875,-75.8145 38.7822,-80.4943 43.7752,-85.4005"/>
</g>
<!-- Node19 -->
<g id="node20" class="node"><title>Node19</title>
<polygon fill="white" stroke="#bfbfbf" points="185.45,-112.5 185.45,-131.5 239.45,-131.5 239.45,-112.5 185.45,-112.5"/>
<text text-anchor="middle" x="212.45" y="-119.5" font-family="Helvetica,sans-Serif" font-size="10.00">iostream</text>
</g>
<!-- Node0&#45;&gt;Node19 -->
<g id="edge54" class="edge"><title>Node0&#45;&gt;Node19</title>
<path fill="none" stroke="midnightblue" d="M244.39,-280.144C241.478,-254.16 235.487,-207.305 226.45,-168 224.384,-159.018 221.426,-149.228 218.761,-141.08"/>
<polygon fill="midnightblue" stroke="midnightblue" points="222.046,-139.871 215.525,-131.521 215.416,-142.115 222.046,-139.871"/>
</g>
<!-- Node20 -->
<g id="node21" class="node"><title>Node20</title>
<g id="a_node21"><a xlink:href="parameter_8h.html" target="_top" xlink:title="parameter.h">
<polygon fill="white" stroke="black" points="871.45,-112.5 871.45,-131.5 939.45,-131.5 939.45,-112.5 871.45,-112.5"/>
<text text-anchor="middle" x="905.45" y="-119.5" font-family="Helvetica,sans-Serif" font-size="10.00">parameter.h</text>
</a>
</g>
</g>
<!-- Node0&#45;&gt;Node20 -->
<g id="edge24" class="edge"><title>Node0&#45;&gt;Node20</title>
<path fill="none" stroke="midnightblue" d="M313.308,-282.752C397.265,-261.018 545.68,-222.345 672.45,-188 740.424,-169.584 819.325,-147.403 865.669,-134.293"/>
<polygon fill="midnightblue" stroke="midnightblue" points="866.659,-137.65 875.328,-131.558 864.753,-130.915 866.659,-137.65"/>
</g>
<!-- Node22 -->
<g id="node23" class="node"><title>Node22</title>
<g id="a_node23"><a xlink:href="cache_8h.html" target="_top" xlink:title="cache.h">
<polygon fill="white" stroke="black" points="54.9496,-224.5 54.9496,-243.5 105.95,-243.5 105.95,-224.5 54.9496,-224.5"/>
<text text-anchor="middle" x="80.4496" y="-231.5" font-family="Helvetica,sans-Serif" font-size="10.00">cache.h</text>
</a>
</g>
</g>
<!-- Node0&#45;&gt;Node22 -->
<g id="edge27" class="edge"><title>Node0&#45;&gt;Node22</title>
<path fill="none" stroke="midnightblue" d="M196.644,-280.498C169.235,-269.766 136.045,-256.769 112.166,-247.419"/>
<polygon fill="midnightblue" stroke="midnightblue" points="113.134,-244.04 102.547,-243.652 110.582,-250.558 113.134,-244.04"/>
</g>
<!-- Node23 -->
<g id="node24" class="node"><title>Node23</title>
<g id="a_node24"><a xlink:href="optimizable__graph_8h.html" target="_top" xlink:title="optimizable_graph.h">
<polygon fill="white" stroke="black" points="559.45,-168.5 559.45,-187.5 663.45,-187.5 663.45,-168.5 559.45,-168.5"/>
<text text-anchor="middle" x="611.45" y="-175.5" font-family="Helvetica,sans-Serif" font-size="10.00">optimizable_graph.h</text>
</a>
</g>
</g>
<!-- Node0&#45;&gt;Node23 -->
<g id="edge52" class="edge"><title>Node0&#45;&gt;Node23</title>
<path fill="none" stroke="midnightblue" d="M305.499,-280.425C381.948,-255.081 512.807,-211.701 575.674,-190.86"/>
<polygon fill="midnightblue" stroke="midnightblue" points="577.129,-194.065 585.52,-187.596 574.926,-187.42 577.129,-194.065"/>
</g>
<!-- Node30 -->
<g id="node31" class="node"><title>Node30</title>
<g id="a_node31"><a xlink:href="color__macros_8h.html" target="_top" xlink:title="../stuff/color_macros.h">
<polygon fill="white" stroke="black" points="1262.95,-224.5 1262.95,-243.5 1377.95,-243.5 1377.95,-224.5 1262.95,-224.5"/>
<text text-anchor="middle" x="1320.45" y="-231.5" font-family="Helvetica,sans-Serif" font-size="10.00">../stuff/color_macros.h</text>
</a>
</g>
</g>
<!-- Node0&#45;&gt;Node30 -->
<g id="edge53" class="edge"><title>Node0&#45;&gt;Node30</title>
<path fill="none" stroke="midnightblue" d="M313.106,-297.854C474.103,-292.328 896.848,-275.763 1248.45,-244 1249.76,-243.882 1251.07,-243.759 1252.4,-243.631"/>
<polygon fill="midnightblue" stroke="midnightblue" points="1253.13,-247.075 1262.72,-242.57 1252.41,-240.111 1253.13,-247.075"/>
</g>
<!-- Node2 -->
<g id="node3" class="node"><title>Node2</title>
<g id="a_node3"><a xlink:href="config_8h.html" target="_top" xlink:title="../../config.h">
<polygon fill="white" stroke="black" points="434.95,-56.5 434.95,-75.5 503.95,-75.5 503.95,-56.5 434.95,-56.5"/>
<text text-anchor="middle" x="469.45" y="-63.5" font-family="Helvetica,sans-Serif" font-size="10.00">../../config.h</text>
</a>
</g>
</g>
<!-- Node1&#45;&gt;Node2 -->
<g id="edge2" class="edge"><title>Node1&#45;&gt;Node2</title>
<path fill="none" stroke="midnightblue" d="M184.468,-168.292C175.901,-154.646 162.617,-128.119 176.45,-112 207.875,-75.3802 350.483,-68.2636 424.523,-67.0764"/>
<polygon fill="midnightblue" stroke="midnightblue" points="424.974,-70.5709 434.928,-66.9415 424.883,-63.5715 424.974,-70.5709"/>
</g>
<!-- Node3 -->
<g id="node4" class="node"><title>Node3</title>
<g id="a_node4"><a xlink:href="misc_8h.html" target="_top" xlink:title="some general case utility functions ">
<polygon fill="white" stroke="black" points="465.95,-112.5 465.95,-131.5 542.95,-131.5 542.95,-112.5 465.95,-112.5"/>
<text text-anchor="middle" x="504.45" y="-119.5" font-family="Helvetica,sans-Serif" font-size="10.00">../stuff/misc.h</text>
</a>
</g>
</g>
<!-- Node1&#45;&gt;Node3 -->
<g id="edge3" class="edge"><title>Node1&#45;&gt;Node3</title>
<path fill="none" stroke="midnightblue" d="M218.04,-172.255C271.348,-163.088 389.114,-142.835 455.844,-131.359"/>
<polygon fill="midnightblue" stroke="midnightblue" points="456.439,-134.808 465.701,-129.664 455.253,-127.909 456.439,-134.808"/>
</g>
<!-- Node7 -->
<g id="node8" class="node"><title>Node7</title>
<g id="a_node8"><a xlink:href="hyper__graph_8h.html" target="_top" xlink:title="hyper_graph.h">
<polygon fill="white" stroke="black" points="761.45,-56.5 761.45,-75.5 839.45,-75.5 839.45,-56.5 761.45,-56.5"/>
<text text-anchor="middle" x="800.45" y="-63.5" font-family="Helvetica,sans-Serif" font-size="10.00">hyper_graph.h</text>
</a>
</g>
</g>
<!-- Node1&#45;&gt;Node7 -->
<g id="edge7" class="edge"><title>Node1&#45;&gt;Node7</title>
<path fill="none" stroke="midnightblue" d="M218.271,-174.787C279.097,-169.674 428.328,-155.638 551.45,-132 554.031,-131.504 687.449,-96.5924 757.895,-78.1461"/>
<polygon fill="midnightblue" stroke="midnightblue" points="759.021,-81.4692 767.809,-75.5501 757.248,-74.6975 759.021,-81.4692"/>
</g>
<!-- Node8 -->
<g id="node9" class="node"><title>Node8</title>
<polygon fill="white" stroke="#bfbfbf" points="94.9496,-0.5 94.9496,-19.5 129.95,-19.5 129.95,-0.5 94.9496,-0.5"/>
<text text-anchor="middle" x="112.45" y="-7.5" font-family="Helvetica,sans-Serif" font-size="10.00">map</text>
</g>
<!-- Node1&#45;&gt;Node8 -->
<g id="edge21" class="edge"><title>Node1&#45;&gt;Node8</title>
<path fill="none" stroke="midnightblue" d="M162.774,-173.649C119.616,-167.791 39.4534,-154.158 22.4496,-132 14.6584,-121.847 3.12274,-88.4031 23.4496,-56 36.9091,-34.5442 64.0474,-22.9154 84.8367,-16.8888"/>
<polygon fill="midnightblue" stroke="midnightblue" points="85.9484,-20.2157 94.7335,-14.2935 84.1727,-13.4446 85.9484,-20.2157"/>
</g>
<!-- Node1&#45;&gt;Node16 -->
<g id="edge16" class="edge"><title>Node1&#45;&gt;Node16</title>
<path fill="none" stroke="midnightblue" d="M170.009,-168.444C148.779,-159.557 115.351,-145.563 91.1946,-135.451"/>
<polygon fill="midnightblue" stroke="midnightblue" points="92.3703,-132.149 81.7944,-131.516 89.6673,-138.606 92.3703,-132.149"/>
</g>
<!-- Node17 -->
<g id="node18" class="node"><title>Node17</title>
<polygon fill="white" stroke="#bfbfbf" points="101.95,-56.5 101.95,-75.5 142.95,-75.5 142.95,-56.5 101.95,-56.5"/>
<text text-anchor="middle" x="122.45" y="-63.5" font-family="Helvetica,sans-Serif" font-size="10.00">string</text>
</g>
<!-- Node1&#45;&gt;Node17 -->
<g id="edge20" class="edge"><title>Node1&#45;&gt;Node17</title>
<path fill="none" stroke="midnightblue" d="M178.411,-168.282C167.82,-160.032 152.688,-146.741 143.45,-132 134.495,-117.712 129.01,-99.2436 125.902,-85.6465"/>
<polygon fill="midnightblue" stroke="midnightblue" points="129.271,-84.6577 123.826,-75.5692 122.415,-86.0697 129.271,-84.6577"/>
</g>
<!-- Node1&#45;&gt;Node19 -->
<g id="edge22" class="edge"><title>Node1&#45;&gt;Node19</title>
<path fill="none" stroke="midnightblue" d="M194.082,-168.083C197.062,-160.77 201.376,-150.181 205.074,-141.103"/>
<polygon fill="midnightblue" stroke="midnightblue" points="208.353,-142.333 208.884,-131.751 201.87,-139.691 208.353,-142.333"/>
</g>
<!-- Node4 -->
<g id="node5" class="node"><title>Node4</title>
<g id="a_node5"><a xlink:href="macros_8h.html" target="_top" xlink:title="macros.h">
<polygon fill="white" stroke="black" points="584.95,-56.5 584.95,-75.5 641.95,-75.5 641.95,-56.5 584.95,-56.5"/>
<text text-anchor="middle" x="613.45" y="-63.5" font-family="Helvetica,sans-Serif" font-size="10.00">macros.h</text>
</a>
</g>
</g>
<!-- Node3&#45;&gt;Node4 -->
<g id="edge4" class="edge"><title>Node3&#45;&gt;Node4</title>
<path fill="none" stroke="midnightblue" d="M521.962,-112.324C539.522,-103.625 566.781,-90.1202 586.981,-80.113"/>
<polygon fill="midnightblue" stroke="midnightblue" points="588.573,-83.23 595.98,-75.6545 585.466,-76.9575 588.573,-83.23"/>
</g>
<!-- Node6 -->
<g id="node7" class="node"><title>Node6</title>
<polygon fill="white" stroke="#bfbfbf" points="522.45,-56.5 522.45,-75.5 566.45,-75.5 566.45,-56.5 522.45,-56.5"/>
<text text-anchor="middle" x="544.45" y="-63.5" font-family="Helvetica,sans-Serif" font-size="10.00">cmath</text>
</g>
<!-- Node3&#45;&gt;Node6 -->
<g id="edge6" class="edge"><title>Node3&#45;&gt;Node6</title>
<path fill="none" stroke="midnightblue" d="M511.055,-112.083C516.705,-104.455 524.994,-93.2645 531.901,-83.9408"/>
<polygon fill="midnightblue" stroke="midnightblue" points="534.827,-85.87 537.967,-75.7511 529.203,-81.7034 534.827,-85.87"/>
</g>
<!-- Node5 -->
<g id="node6" class="node"><title>Node5</title>
<polygon fill="white" stroke="#bfbfbf" points="550.95,-0.5 550.95,-19.5 597.95,-19.5 597.95,-0.5 550.95,-0.5"/>
<text text-anchor="middle" x="574.45" y="-7.5" font-family="Helvetica,sans-Serif" font-size="10.00">math.h</text>
</g>
<!-- Node4&#45;&gt;Node5 -->
<g id="edge5" class="edge"><title>Node4&#45;&gt;Node5</title>
<path fill="none" stroke="midnightblue" d="M607.01,-56.083C601.501,-48.4554 593.418,-37.2645 586.685,-27.9408"/>
<polygon fill="midnightblue" stroke="midnightblue" points="589.462,-25.8087 580.77,-19.7511 583.787,-29.9071 589.462,-25.8087"/>
</g>
<!-- Node7&#45;&gt;Node8 -->
<g id="edge8" class="edge"><title>Node7&#45;&gt;Node8</title>
<path fill="none" stroke="midnightblue" d="M761.061,-60.6865C746.154,-59.1169 729.028,-57.3887 713.45,-56 492.797,-36.3302 226.046,-18.4164 140.368,-12.8078"/>
<polygon fill="midnightblue" stroke="midnightblue" points="140.371,-9.30062 130.164,-12.1421 139.915,-16.2858 140.371,-9.30062"/>
</g>
<!-- Node9 -->
<g id="node10" class="node"><title>Node9</title>
<polygon fill="white" stroke="#bfbfbf" points="616.45,-0.5 616.45,-19.5 646.45,-19.5 646.45,-0.5 616.45,-0.5"/>
<text text-anchor="middle" x="631.45" y="-7.5" font-family="Helvetica,sans-Serif" font-size="10.00">set</text>
</g>
<!-- Node7&#45;&gt;Node9 -->
<g id="edge9" class="edge"><title>Node7&#45;&gt;Node9</title>
<path fill="none" stroke="midnightblue" d="M771.127,-56.4426C743.676,-48.3126 701.325,-35.4681 656.285,-20.1516"/>
<polygon fill="midnightblue" stroke="midnightblue" points="657.232,-16.7765 646.637,-16.8466 654.963,-23.3987 657.232,-16.7765"/>
</g>
<!-- Node10 -->
<g id="node11" class="node"><title>Node10</title>
<polygon fill="white" stroke="#bfbfbf" points="905.95,-0.5 905.95,-19.5 946.95,-19.5 946.95,-0.5 905.95,-0.5"/>
<text text-anchor="middle" x="926.45" y="-7.5" font-family="Helvetica,sans-Serif" font-size="10.00">bitset</text>
</g>
<!-- Node7&#45;&gt;Node10 -->
<g id="edge10" class="edge"><title>Node7&#45;&gt;Node10</title>
<path fill="none" stroke="midnightblue" d="M820.415,-56.4435C841.059,-47.5961 873.512,-33.6875 897.081,-23.5865"/>
<polygon fill="midnightblue" stroke="midnightblue" points="898.765,-26.6727 906.578,-19.5164 896.008,-20.2387 898.765,-26.6727"/>
</g>
<!-- Node7&#45;&gt;Node11 -->
<g id="edge11" class="edge"><title>Node7&#45;&gt;Node11</title>
<path fill="none" stroke="midnightblue" d="M839.514,-58.3016C844.208,-57.5159 848.936,-56.7335 853.45,-56 945.386,-41.0618 1053.9,-24.5107 1108.44,-16.2681"/>
<polygon fill="midnightblue" stroke="midnightblue" points="1109.24,-19.687 1118.6,-14.7333 1108.19,-12.7654 1109.24,-19.687"/>
</g>
<!-- Node12 -->
<g id="node13" class="node"><title>Node12</title>
<polygon fill="white" stroke="#bfbfbf" points="965.45,-0.5 965.45,-19.5 1009.45,-19.5 1009.45,-0.5 965.45,-0.5"/>
<text text-anchor="middle" x="987.45" y="-7.5" font-family="Helvetica,sans-Serif" font-size="10.00">vector</text>
</g>
<!-- Node7&#45;&gt;Node12 -->
<g id="edge12" class="edge"><title>Node7&#45;&gt;Node12</title>
<path fill="none" stroke="midnightblue" d="M830.08,-56.4435C864.293,-46.5639 920.36,-30.3734 955.518,-20.2208"/>
<polygon fill="midnightblue" stroke="midnightblue" points="956.641,-23.5396 965.278,-17.4026 954.699,-16.8144 956.641,-23.5396"/>
</g>
<!-- Node13 -->
<g id="node14" class="node"><title>Node13</title>
<polygon fill="white" stroke="#bfbfbf" points="664.45,-0.5 664.45,-19.5 704.45,-19.5 704.45,-0.5 664.45,-0.5"/>
<text text-anchor="middle" x="684.45" y="-7.5" font-family="Helvetica,sans-Serif" font-size="10.00">limits</text>
</g>
<!-- Node7&#45;&gt;Node13 -->
<g id="edge13" class="edge"><title>Node7&#45;&gt;Node13</title>
<path fill="none" stroke="midnightblue" d="M782.069,-56.4435C763.233,-47.6751 733.718,-33.9355 712.07,-23.8579"/>
<polygon fill="midnightblue" stroke="midnightblue" points="713.287,-20.5637 702.744,-19.5164 710.333,-26.9098 713.287,-20.5637"/>
</g>
<!-- Node14 -->
<g id="node15" class="node"><title>Node14</title>
<polygon fill="white" stroke="#bfbfbf" points="722.95,-0.5 722.95,-19.5 771.95,-19.5 771.95,-0.5 722.95,-0.5"/>
<text text-anchor="middle" x="747.45" y="-7.5" font-family="Helvetica,sans-Serif" font-size="10.00">cstddef</text>
</g>
<!-- Node7&#45;&gt;Node14 -->
<g id="edge14" class="edge"><title>Node7&#45;&gt;Node14</title>
<path fill="none" stroke="midnightblue" d="M791.698,-56.083C783.98,-48.2195 772.545,-36.5688 763.233,-27.0813"/>
<polygon fill="midnightblue" stroke="midnightblue" points="765.541,-24.4363 756.039,-19.7511 760.545,-29.3396 765.541,-24.4363"/>
</g>
<!-- Node15 -->
<g id="node16" class="node"><title>Node15</title>
<polygon fill="white" stroke="#bfbfbf" points="789.45,-0.5 789.45,-19.5 887.45,-19.5 887.45,-0.5 789.45,-0.5"/>
<text text-anchor="middle" x="838.45" y="-7.5" font-family="Helvetica,sans-Serif" font-size="10.00">tr1/unordered_map</text>
</g>
<!-- Node7&#45;&gt;Node15 -->
<g id="edge15" class="edge"><title>Node7&#45;&gt;Node15</title>
<path fill="none" stroke="midnightblue" d="M806.725,-56.083C812.092,-48.4554 819.967,-37.2645 826.528,-27.9408"/>
<polygon fill="midnightblue" stroke="midnightblue" points="829.399,-29.9434 832.291,-19.7511 823.674,-25.9149 829.399,-29.9434"/>
</g>
<!-- Node16&#45;&gt;Node7 -->
<g id="edge17" class="edge"><title>Node16&#45;&gt;Node7</title>
<path fill="none" stroke="midnightblue" d="M91.7088,-118.539C114.896,-116.676 147.687,-114.09 176.45,-112 415.023,-94.6682 475.111,-96.3102 713.45,-76 725.624,-74.9625 738.741,-73.688 751.005,-72.428"/>
<polygon fill="midnightblue" stroke="midnightblue" points="751.484,-75.8972 761.067,-71.3786 750.758,-68.9349 751.484,-75.8972"/>
</g>
<!-- Node16&#45;&gt;Node17 -->
<g id="edge18" class="edge"><title>Node16&#45;&gt;Node17</title>
<path fill="none" stroke="midnightblue" d="M71.2503,-112.324C80.2677,-104.341 93.8556,-92.3128 104.768,-82.6529"/>
<polygon fill="midnightblue" stroke="midnightblue" points="107.303,-85.083 112.471,-75.8339 102.663,-79.8416 107.303,-85.083"/>
</g>
<!-- Node16&#45;&gt;Node18 -->
<g id="edge19" class="edge"><title>Node16&#45;&gt;Node18</title>
<path fill="none" stroke="midnightblue" d="M60.9542,-112.083C60.561,-105.006 59.9974,-94.8611 59.5044,-85.9865"/>
<polygon fill="midnightblue" stroke="midnightblue" points="62.9852,-85.5415 58.9358,-75.7511 55.996,-85.9299 62.9852,-85.5415"/>
</g>
<!-- Node20&#45;&gt;Node7 -->
<g id="edge26" class="edge"><title>Node20&#45;&gt;Node7</title>
<path fill="none" stroke="midnightblue" d="M888.58,-112.324C871.741,-103.664 845.643,-90.2424 826.212,-80.249"/>
<polygon fill="midnightblue" stroke="midnightblue" points="827.771,-77.1155 817.278,-75.6545 824.57,-83.3405 827.771,-77.1155"/>
</g>
<!-- Node21 -->
<g id="node22" class="node"><title>Node21</title>
<polygon fill="white" stroke="#bfbfbf" points="659.95,-56.5 659.95,-75.5 704.95,-75.5 704.95,-56.5 659.95,-56.5"/>
<text text-anchor="middle" x="682.45" y="-63.5" font-family="Helvetica,sans-Serif" font-size="10.00">iosfwd</text>
</g>
<!-- Node20&#45;&gt;Node21 -->
<g id="edge25" class="edge"><title>Node20&#45;&gt;Node21</title>
<path fill="none" stroke="midnightblue" d="M871.095,-112.681C828.521,-102.371 756.514,-84.935 714.86,-74.8483"/>
<polygon fill="midnightblue" stroke="midnightblue" points="715.504,-71.403 704.961,-72.4511 713.856,-78.2064 715.504,-71.403"/>
</g>
<!-- Node22&#45;&gt;Node8 -->
<g id="edge28" class="edge"><title>Node22&#45;&gt;Node8</title>
<path fill="none" stroke="midnightblue" d="M71.6148,-224.278C45.5018,-197.427 -27.1463,-114.303 11.4496,-56 27.7874,-31.32 61.0821,-20.0452 84.9818,-14.9807"/>
<polygon fill="midnightblue" stroke="midnightblue" points="85.7088,-18.4054 94.8894,-13.117 84.4147,-11.5261 85.7088,-18.4054"/>
</g>
<!-- Node22&#45;&gt;Node23 -->
<g id="edge29" class="edge"><title>Node22&#45;&gt;Node23</title>
<path fill="none" stroke="midnightblue" d="M106.061,-230.395C185.997,-222.266 432.483,-197.2 549.089,-185.342"/>
<polygon fill="midnightblue" stroke="midnightblue" points="549.689,-188.799 559.284,-184.305 548.981,-181.835 549.689,-188.799"/>
</g>
<!-- Node23&#45;&gt;Node4 -->
<g id="edge51" class="edge"><title>Node23&#45;&gt;Node4</title>
<path fill="none" stroke="midnightblue" d="M632.932,-168.36C647.841,-161.09 666.56,-149.117 675.45,-132 686.281,-111.143 662.875,-92.3174 641.788,-80.3589"/>
<polygon fill="midnightblue" stroke="midnightblue" points="643.168,-77.1287 632.697,-75.5168 639.877,-83.307 643.168,-77.1287"/>
</g>
<!-- Node23&#45;&gt;Node6 -->
<g id="edge34" class="edge"><title>Node23&#45;&gt;Node6</title>
<path fill="none" stroke="midnightblue" d="M606.192,-168.368C595.184,-150.296 569.53,-108.176 554.991,-84.3074"/>
<polygon fill="midnightblue" stroke="midnightblue" points="557.874,-82.3112 549.683,-75.5914 551.895,-85.9526 557.874,-82.3112"/>
</g>
<!-- Node23&#45;&gt;Node7 -->
<g id="edge39" class="edge"><title>Node23&#45;&gt;Node7</title>
<path fill="none" stroke="midnightblue" d="M663.771,-173.752C753.758,-167.628 930.007,-153.069 948.45,-132 979.88,-96.0938 904.26,-79.2096 849.934,-71.9192"/>
<polygon fill="midnightblue" stroke="midnightblue" points="850.091,-68.4111 839.73,-70.6266 849.211,-75.3556 850.091,-68.4111"/>
</g>
<!-- Node23&#45;&gt;Node9 -->
<g id="edge30" class="edge"><title>Node23&#45;&gt;Node9</title>
<path fill="none" stroke="midnightblue" d="M559.385,-172.045C526.882,-166.662 485.79,-155.431 456.45,-132 427.944,-109.236 402.307,-84.199 425.45,-56 477.483,7.40202 527.422,-41.952 606.45,-20 606.55,-19.9722 606.65,-19.9442 606.75,-19.916"/>
<polygon fill="midnightblue" stroke="midnightblue" points="607.769,-23.2648 616.229,-16.887 605.639,-16.5969 607.769,-23.2648"/>
</g>
<!-- Node23&#45;&gt;Node13 -->
<g id="edge33" class="edge"><title>Node23&#45;&gt;Node13</title>
<path fill="none" stroke="midnightblue" d="M635.704,-168.483C653.277,-161.213 676.486,-149.186 691.45,-132 714.54,-105.479 723.378,-89.7339 713.45,-56 710.437,-45.7645 704.295,-35.6599 698.436,-27.627"/>
<polygon fill="midnightblue" stroke="midnightblue" points="701.035,-25.2694 692.123,-19.5413 695.518,-29.5773 701.035,-25.2694"/>
</g>
<!-- Node23&#45;&gt;Node18 -->
<g id="edge35" class="edge"><title>Node23&#45;&gt;Node18</title>
<path fill="none" stroke="midnightblue" d="M559.281,-175.315C494.037,-171.962 379.588,-161.941 286.45,-132 268.28,-126.159 266.341,-118.645 248.45,-112 184.743,-88.3374 163.429,-92.6397 94.1502,-76.315"/>
<polygon fill="midnightblue" stroke="midnightblue" points="94.5896,-72.8203 84.0469,-73.8695 92.9428,-79.6239 94.5896,-72.8203"/>
</g>
<!-- Node23&#45;&gt;Node19 -->
<g id="edge31" class="edge"><title>Node23&#45;&gt;Node19</title>
<path fill="none" stroke="midnightblue" d="M559.354,-171.955C489.472,-164.844 361.636,-150.634 253.45,-132 252.197,-131.784 250.925,-131.556 249.642,-131.318"/>
<polygon fill="midnightblue" stroke="midnightblue" points="250.219,-127.865 239.729,-129.351 248.856,-134.731 250.219,-127.865"/>
</g>
<!-- Node23&#45;&gt;Node20 -->
<g id="edge40" class="edge"><title>Node23&#45;&gt;Node20</title>
<path fill="none" stroke="midnightblue" d="M661.533,-168.46C710.073,-160.084 786.039,-146.717 861.098,-132.221"/>
<polygon fill="midnightblue" stroke="midnightblue" points="862.049,-135.602 871.2,-130.262 860.717,-128.73 862.049,-135.602"/>
</g>
<!-- Node24 -->
<g id="node25" class="node"><title>Node24</title>
<polygon fill="white" stroke="#bfbfbf" points="637.95,-112.5 637.95,-131.5 666.95,-131.5 666.95,-112.5 637.95,-112.5"/>
<text text-anchor="middle" x="652.45" y="-119.5" font-family="Helvetica,sans-Serif" font-size="10.00">list</text>
</g>
<!-- Node23&#45;&gt;Node24 -->
<g id="edge32" class="edge"><title>Node23&#45;&gt;Node24</title>
<path fill="none" stroke="midnightblue" d="M618.22,-168.083C624.011,-160.455 632.508,-149.264 639.587,-139.941"/>
<polygon fill="midnightblue" stroke="midnightblue" points="642.546,-141.832 645.805,-131.751 636.971,-137.599 642.546,-141.832"/>
</g>
<!-- Node25 -->
<g id="node26" class="node"><title>Node25</title>
<g id="a_node26"><a xlink:href="openmp__mutex_8h.html" target="_top" xlink:title="openmp_mutex.h">
<polygon fill="white" stroke="black" points="761.45,-112.5 761.45,-131.5 853.45,-131.5 853.45,-112.5 761.45,-112.5"/>
<text text-anchor="middle" x="807.45" y="-119.5" font-family="Helvetica,sans-Serif" font-size="10.00">openmp_mutex.h</text>
</a>
</g>
</g>
<!-- Node23&#45;&gt;Node25 -->
<g id="edge36" class="edge"><title>Node23&#45;&gt;Node25</title>
<path fill="none" stroke="midnightblue" d="M642.506,-168.444C676.053,-159.201 729.646,-144.436 766.59,-134.257"/>
<polygon fill="midnightblue" stroke="midnightblue" points="767.827,-137.547 776.538,-131.516 765.968,-130.798 767.827,-137.547"/>
</g>
<!-- Node26 -->
<g id="node27" class="node"><title>Node26</title>
<g id="a_node27"><a xlink:href="parameter__container_8h.html" target="_top" xlink:title="parameter_container.h">
<polygon fill="white" stroke="black" points="295.95,-112.5 295.95,-131.5 408.95,-131.5 408.95,-112.5 295.95,-112.5"/>
<text text-anchor="middle" x="352.45" y="-119.5" font-family="Helvetica,sans-Serif" font-size="10.00">parameter_container.h</text>
</a>
</g>
</g>
<!-- Node23&#45;&gt;Node26 -->
<g id="edge41" class="edge"><title>Node23&#45;&gt;Node26</title>
<path fill="none" stroke="midnightblue" d="M570.41,-168.444C525.134,-159.004 452.222,-143.802 403.344,-133.611"/>
<polygon fill="midnightblue" stroke="midnightblue" points="403.801,-130.131 393.297,-131.516 402.372,-136.984 403.801,-130.131"/>
</g>
<!-- Node27 -->
<g id="node28" class="node"><title>Node27</title>
<g id="a_node28"><a xlink:href="jacobian__workspace_8h.html" target="_top" xlink:title="jacobian_workspace.h">
<polygon fill="white" stroke="black" points="995.95,-112.5 995.95,-131.5 1108.95,-131.5 1108.95,-112.5 995.95,-112.5"/>
<text text-anchor="middle" x="1052.45" y="-119.5" font-family="Helvetica,sans-Serif" font-size="10.00">jacobian_workspace.h</text>
</a>
</g>
</g>
<!-- Node23&#45;&gt;Node27 -->
<g id="edge45" class="edge"><title>Node23&#45;&gt;Node27</title>
<path fill="none" stroke="midnightblue" d="M663.543,-170.749C735.176,-162.133 868.108,-146.076 981.45,-132 982.914,-131.818 984.395,-131.634 985.888,-131.448"/>
<polygon fill="midnightblue" stroke="midnightblue" points="986.384,-134.913 995.872,-130.198 985.514,-127.967 986.384,-134.913"/>
</g>
<!-- Node25&#45;&gt;Node2 -->
<g id="edge37" class="edge"><title>Node25&#45;&gt;Node2</title>
<path fill="none" stroke="midnightblue" d="M761.247,-114.655C705.226,-106.801 607.706,-92.6121 513.944,-76.0094"/>
<polygon fill="midnightblue" stroke="midnightblue" points="514.465,-72.5471 504.006,-74.2378 513.236,-79.4385 514.465,-72.5471"/>
</g>
<!-- Node25&#45;&gt;Node11 -->
<g id="edge38" class="edge"><title>Node25&#45;&gt;Node11</title>
<path fill="none" stroke="midnightblue" d="M819.819,-112.447C840.523,-98.526 883.923,-71.018 924.45,-56 987.159,-32.7621 1064.66,-20.4203 1108.63,-14.8338"/>
<polygon fill="midnightblue" stroke="midnightblue" points="1109.3,-18.2783 1118.8,-13.5873 1108.45,-11.3303 1109.3,-18.2783"/>
</g>
<!-- Node26&#45;&gt;Node8 -->
<g id="edge43" class="edge"><title>Node26&#45;&gt;Node8</title>
<path fill="none" stroke="midnightblue" d="M333.617,-112.368C291.334,-92.9888 188.725,-45.9594 139.573,-23.4317"/>
<polygon fill="midnightblue" stroke="midnightblue" points="140.762,-20.1265 130.213,-19.1416 137.845,-26.49 140.762,-20.1265"/>
</g>
<!-- Node26&#45;&gt;Node17 -->
<g id="edge44" class="edge"><title>Node26&#45;&gt;Node17</title>
<path fill="none" stroke="midnightblue" d="M316.005,-112.444C270.932,-101.861 195.017,-84.0375 152.903,-74.1498"/>
<polygon fill="midnightblue" stroke="midnightblue" points="153.499,-70.6946 142.963,-71.8162 151.899,-77.5093 153.499,-70.6946"/>
</g>
<!-- Node26&#45;&gt;Node21 -->
<g id="edge42" class="edge"><title>Node26&#45;&gt;Node21</title>
<path fill="none" stroke="midnightblue" d="M409.126,-114.57C467.242,-107.5 560.368,-94.849 650.026,-75.8453"/>
<polygon fill="midnightblue" stroke="midnightblue" points="650.77,-79.2655 659.811,-73.7426 649.299,-72.4218 650.77,-79.2655"/>
</g>
<!-- Node27&#45;&gt;Node7 -->
<g id="edge50" class="edge"><title>Node27&#45;&gt;Node7</title>
<path fill="none" stroke="midnightblue" d="M1012.52,-112.444C968.429,-102.996 897.406,-87.7764 849.848,-77.5854"/>
<polygon fill="midnightblue" stroke="midnightblue" points="850.29,-74.1006 839.778,-75.4275 848.823,-80.9452 850.29,-74.1006"/>
</g>
<!-- Node27&#45;&gt;Node11 -->
<g id="edge49" class="edge"><title>Node27&#45;&gt;Node11</title>
<path fill="none" stroke="midnightblue" d="M1109.26,-115.134C1134.49,-109.375 1161.93,-98.0783 1177.45,-76 1188.47,-60.3222 1174.79,-40.6186 1161.64,-27.0379"/>
<polygon fill="midnightblue" stroke="midnightblue" points="1163.78,-24.2399 1154.15,-19.826 1158.92,-29.2829 1163.78,-24.2399"/>
</g>
<!-- Node27&#45;&gt;Node12 -->
<g id="edge48" class="edge"><title>Node27&#45;&gt;Node12</title>
<path fill="none" stroke="midnightblue" d="M1013.33,-112.47C979.7,-104.251 935.003,-90.8962 924.45,-76 910.477,-56.2763 936.036,-36.7896 958.668,-24.3749"/>
<polygon fill="midnightblue" stroke="midnightblue" points="960.481,-27.3772 967.745,-19.6641 957.257,-21.1641 960.481,-27.3772"/>
</g>
<!-- Node28 -->
<g id="node29" class="node"><title>Node28</title>
<polygon fill="white" stroke="#bfbfbf" points="933.95,-56.5 933.95,-75.5 1030.95,-75.5 1030.95,-56.5 933.95,-56.5"/>
<text text-anchor="middle" x="982.45" y="-63.5" font-family="Helvetica,sans-Serif" font-size="10.00">eigen3/Eigen/Core</text>
</g>
<!-- Node27&#45;&gt;Node28 -->
<g id="edge46" class="edge"><title>Node27&#45;&gt;Node28</title>
<path fill="none" stroke="midnightblue" d="M1041.2,-112.324C1030.65,-104.185 1014.65,-91.8395 1002.01,-82.0874"/>
<polygon fill="midnightblue" stroke="midnightblue" points="1003.96,-79.1707 993.901,-75.8339 999.681,-84.7132 1003.96,-79.1707"/>
</g>
<!-- Node29 -->
<g id="node30" class="node"><title>Node29</title>
<polygon fill="white" stroke="#bfbfbf" points="1048.95,-56.5 1048.95,-75.5 1167.95,-75.5 1167.95,-56.5 1048.95,-56.5"/>
<text text-anchor="middle" x="1108.45" y="-63.5" font-family="Helvetica,sans-Serif" font-size="10.00">eigen3/Eigen/StdVector</text>
</g>
<!-- Node27&#45;&gt;Node29 -->
<g id="edge47" class="edge"><title>Node27&#45;&gt;Node29</title>
<path fill="none" stroke="midnightblue" d="M1061.45,-112.324C1069.64,-104.42 1081.96,-92.5482 1091.92,-82.9377"/>
<polygon fill="midnightblue" stroke="midnightblue" points="1094.52,-85.2947 1099.29,-75.8339 1089.66,-80.2558 1094.52,-85.2947"/>
</g>
</g>
</svg>
