<?xml version="1.0" encoding="UTF-8" standalone="no"?>
<!DOCTYPE svg PUBLIC "-//W3C//DTD SVG 1.1//EN"
 "http://www.w3.org/Graphics/SVG/1.1/DTD/svg11.dtd">
<!-- Generated by graphviz version 2.38.0 (20140413.2041)
 -->
<!-- Title: /home/alejandro/Desarrollo eclipse/os1/Thirdparty/g2o/g2o/core/hyper_dijkstra.cpp Pages: 1 -->
<svg width="522pt" height="218pt"
 viewBox="0.00 0.00 521.50 218.00" xmlns="http://www.w3.org/2000/svg" xmlns:xlink="http://www.w3.org/1999/xlink">
<g id="graph0" class="graph" transform="scale(1 1) rotate(0) translate(4 214)">
<title>/home/alejandro/Desarrollo eclipse/os1/Thirdparty/g2o/g2o/core/hyper_dijkstra.cpp</title>
<polygon fill="white" stroke="none" points="-4,4 -4,-214 517.5,-214 517.5,4 -4,4"/>
<!-- Node0 -->
<g id="node1" class="node"><title>Node0</title>
<polygon fill="#bfbfbf" stroke="black" points="124.5,-168.5 124.5,-209.5 282.5,-209.5 282.5,-168.5 124.5,-168.5"/>
<text text-anchor="start" x="132.5" y="-197.5" font-family="Helvetica,sans-Serif" font-size="10.00">/home/alejandro/Desarrollo</text>
<text text-anchor="start" x="132.5" y="-186.5" font-family="Helvetica,sans-Serif" font-size="10.00"> eclipse/os1/Thirdparty</text>
<text text-anchor="middle" x="203.5" y="-175.5" font-family="Helvetica,sans-Serif" font-size="10.00">/g2o/g2o/core/hyper_dijkstra.cpp</text>
</g>
<!-- Node1 -->
<g id="node2" class="node"><title>Node1</title>
<polygon fill="white" stroke="#bfbfbf" points="0,-112.5 0,-131.5 43,-131.5 43,-112.5 0,-112.5"/>
<text text-anchor="middle" x="21.5" y="-119.5" font-family="Helvetica,sans-Serif" font-size="10.00">queue</text>
</g>
<!-- Node0&#45;&gt;Node1 -->
<g id="edge1" class="edge"><title>Node0&#45;&gt;Node1</title>
<path fill="none" stroke="midnightblue" d="M148.894,-168.498C117.513,-157.29 79.2178,-143.614 52.8567,-134.199"/>
<polygon fill="midnightblue" stroke="midnightblue" points="53.9717,-130.881 43.3771,-130.813 51.6173,-137.473 53.9717,-130.881"/>
</g>
<!-- Node2 -->
<g id="node3" class="node"><title>Node2</title>
<polygon fill="white" stroke="#bfbfbf" points="61,-112.5 61,-131.5 104,-131.5 104,-112.5 61,-112.5"/>
<text text-anchor="middle" x="82.5" y="-119.5" font-family="Helvetica,sans-Serif" font-size="10.00">deque</text>
</g>
<!-- Node0&#45;&gt;Node2 -->
<g id="edge2" class="edge"><title>Node0&#45;&gt;Node2</title>
<path fill="none" stroke="midnightblue" d="M167.196,-168.498C147.931,-158.149 124.747,-145.695 107.509,-136.435"/>
<polygon fill="midnightblue" stroke="midnightblue" points="109.073,-133.302 98.6069,-131.652 105.76,-139.468 109.073,-133.302"/>
</g>
<!-- Node3 -->
<g id="node4" class="node"><title>Node3</title>
<polygon fill="white" stroke="#bfbfbf" points="0.5,-0.5 0.5,-19.5 44.5,-19.5 44.5,-0.5 0.5,-0.5"/>
<text text-anchor="middle" x="22.5" y="-7.5" font-family="Helvetica,sans-Serif" font-size="10.00">vector</text>
</g>
<!-- Node0&#45;&gt;Node3 -->
<g id="edge3" class="edge"><title>Node0&#45;&gt;Node3</title>
<path fill="none" stroke="midnightblue" d="M183.438,-168.382C147.292,-133.034 71.9107,-59.3187 38.7494,-26.8903"/>
<polygon fill="midnightblue" stroke="midnightblue" points="40.8745,-24.0731 31.2778,-19.5838 35.9804,-29.0778 40.8745,-24.0731"/>
</g>
<!-- Node4 -->
<g id="node5" class="node"><title>Node4</title>
<polygon fill="white" stroke="#bfbfbf" points="264.5,-112.5 264.5,-131.5 316.5,-131.5 316.5,-112.5 264.5,-112.5"/>
<text text-anchor="middle" x="290.5" y="-119.5" font-family="Helvetica,sans-Serif" font-size="10.00">assert.h</text>
</g>
<!-- Node0&#45;&gt;Node4 -->
<g id="edge4" class="edge"><title>Node0&#45;&gt;Node4</title>
<path fill="none" stroke="midnightblue" d="M229.603,-168.498C242.813,-158.628 258.587,-146.843 270.77,-137.741"/>
<polygon fill="midnightblue" stroke="midnightblue" points="273.003,-140.442 278.919,-131.652 268.813,-134.834 273.003,-140.442"/>
</g>
<!-- Node5 -->
<g id="node6" class="node"><title>Node5</title>
<polygon fill="white" stroke="#bfbfbf" points="334.5,-112.5 334.5,-131.5 388.5,-131.5 388.5,-112.5 334.5,-112.5"/>
<text text-anchor="middle" x="361.5" y="-119.5" font-family="Helvetica,sans-Serif" font-size="10.00">iostream</text>
</g>
<!-- Node0&#45;&gt;Node5 -->
<g id="edge5" class="edge"><title>Node0&#45;&gt;Node5</title>
<path fill="none" stroke="midnightblue" d="M250.905,-168.498C276.877,-157.813 308.302,-144.885 331.007,-135.545"/>
<polygon fill="midnightblue" stroke="midnightblue" points="332.551,-138.694 340.468,-131.652 329.888,-132.22 332.551,-138.694"/>
</g>
<!-- Node6 -->
<g id="node7" class="node"><title>Node6</title>
<g id="a_node7"><a xlink:href="hyper__dijkstra_8h.html" target="_top" xlink:title="hyper_dijkstra.h">
<polygon fill="white" stroke="black" points="160.5,-112.5 160.5,-131.5 246.5,-131.5 246.5,-112.5 160.5,-112.5"/>
<text text-anchor="middle" x="203.5" y="-119.5" font-family="Helvetica,sans-Serif" font-size="10.00">hyper_dijkstra.h</text>
</a>
</g>
</g>
<!-- Node0&#45;&gt;Node6 -->
<g id="edge6" class="edge"><title>Node0&#45;&gt;Node6</title>
<path fill="none" stroke="midnightblue" d="M203.5,-168.498C203.5,-160.065 203.5,-150.235 203.5,-141.874"/>
<polygon fill="midnightblue" stroke="midnightblue" points="207,-141.652 203.5,-131.652 200,-141.653 207,-141.652"/>
</g>
<!-- Node15 -->
<g id="node16" class="node"><title>Node15</title>
<g id="a_node16"><a xlink:href="macros_8h.html" target="_top" xlink:title="../stuff/macros.h">
<polygon fill="white" stroke="black" points="407,-112.5 407,-131.5 496,-131.5 496,-112.5 407,-112.5"/>
<text text-anchor="middle" x="451.5" y="-119.5" font-family="Helvetica,sans-Serif" font-size="10.00">../stuff/macros.h</text>
</a>
</g>
</g>
<!-- Node0&#45;&gt;Node15 -->
<g id="edge19" class="edge"><title>Node0&#45;&gt;Node15</title>
<path fill="none" stroke="midnightblue" d="M277.908,-168.498C320.815,-157.252 373.205,-143.521 409.137,-134.103"/>
<polygon fill="midnightblue" stroke="midnightblue" points="410.027,-137.488 418.813,-131.567 408.253,-130.717 410.027,-137.488"/>
</g>
<!-- Node7 -->
<g id="node8" class="node"><title>Node7</title>
<polygon fill="white" stroke="#bfbfbf" points="430,-0.5 430,-19.5 465,-19.5 465,-0.5 430,-0.5"/>
<text text-anchor="middle" x="447.5" y="-7.5" font-family="Helvetica,sans-Serif" font-size="10.00">map</text>
</g>
<!-- Node6&#45;&gt;Node7 -->
<g id="edge7" class="edge"><title>Node6&#45;&gt;Node7</title>
<path fill="none" stroke="midnightblue" d="M222.646,-112.368C265.829,-92.9009 370.902,-45.532 420.601,-23.1266"/>
<polygon fill="midnightblue" stroke="midnightblue" points="422.09,-26.2947 429.768,-18.994 419.213,-19.9132 422.09,-26.2947"/>
</g>
<!-- Node8 -->
<g id="node9" class="node"><title>Node8</title>
<polygon fill="white" stroke="#bfbfbf" points="483.5,-0.5 483.5,-19.5 513.5,-19.5 513.5,-0.5 483.5,-0.5"/>
<text text-anchor="middle" x="498.5" y="-7.5" font-family="Helvetica,sans-Serif" font-size="10.00">set</text>
</g>
<!-- Node6&#45;&gt;Node8 -->
<g id="edge8" class="edge"><title>Node6&#45;&gt;Node8</title>
<path fill="none" stroke="midnightblue" d="M231.043,-112.497C258.653,-103.83 302.289,-89.7438 339.5,-76 387.505,-58.2694 442.596,-35.1029 473.703,-21.7548"/>
<polygon fill="midnightblue" stroke="midnightblue" points="475.488,-24.7968 483.288,-17.6265 472.719,-18.3678 475.488,-24.7968"/>
</g>
<!-- Node9 -->
<g id="node10" class="node"><title>Node9</title>
<polygon fill="white" stroke="#bfbfbf" points="62.5,-0.5 62.5,-19.5 102.5,-19.5 102.5,-0.5 62.5,-0.5"/>
<text text-anchor="middle" x="82.5" y="-7.5" font-family="Helvetica,sans-Serif" font-size="10.00">limits</text>
</g>
<!-- Node6&#45;&gt;Node9 -->
<g id="edge9" class="edge"><title>Node6&#45;&gt;Node9</title>
<path fill="none" stroke="midnightblue" d="M197.059,-112.422C187.058,-99.4063 166.822,-74.2542 146.5,-56 133.734,-44.5329 117.981,-33.4245 105.299,-25.1134"/>
<polygon fill="midnightblue" stroke="midnightblue" points="107,-22.0462 96.6934,-19.5909 103.219,-27.9375 107,-22.0462"/>
</g>
<!-- Node10 -->
<g id="node11" class="node"><title>Node10</title>
<g id="a_node11"><a xlink:href="hyper__graph_8h.html" target="_top" xlink:title="hyper_graph.h">
<polygon fill="white" stroke="black" points="198.5,-56.5 198.5,-75.5 276.5,-75.5 276.5,-56.5 198.5,-56.5"/>
<text text-anchor="middle" x="237.5" y="-63.5" font-family="Helvetica,sans-Serif" font-size="10.00">hyper_graph.h</text>
</a>
</g>
</g>
<!-- Node6&#45;&gt;Node10 -->
<g id="edge10" class="edge"><title>Node6&#45;&gt;Node10</title>
<path fill="none" stroke="midnightblue" d="M209.114,-112.083C213.867,-104.534 220.818,-93.4948 226.652,-84.2298"/>
<polygon fill="midnightblue" stroke="midnightblue" points="229.624,-86.0783 231.99,-75.7511 223.7,-82.3486 229.624,-86.0783"/>
</g>
<!-- Node10&#45;&gt;Node3 -->
<g id="edge15" class="edge"><title>Node10&#45;&gt;Node3</title>
<path fill="none" stroke="midnightblue" d="M200.726,-56.4943C165.535,-48.2464 110.738,-35.123 54.5765,-20.2089"/>
<polygon fill="midnightblue" stroke="midnightblue" points="55.3837,-16.8019 44.8192,-17.6032 53.5775,-23.5649 55.3837,-16.8019"/>
</g>
<!-- Node10&#45;&gt;Node7 -->
<g id="edge11" class="edge"><title>Node10&#45;&gt;Node7</title>
<path fill="none" stroke="midnightblue" d="M275.943,-56.4968C311.104,-48.5084 364.731,-35.798 420.203,-19.9021"/>
<polygon fill="midnightblue" stroke="midnightblue" points="421.212,-23.2536 429.845,-17.1117 419.266,-16.5295 421.212,-23.2536"/>
</g>
<!-- Node10&#45;&gt;Node8 -->
<g id="edge12" class="edge"><title>Node10&#45;&gt;Node8</title>
<path fill="none" stroke="midnightblue" d="M276.558,-59.6807C321.891,-53.0489 398.959,-40.3619 473.389,-19.9128"/>
<polygon fill="midnightblue" stroke="midnightblue" points="474.709,-23.1779 483.395,-17.1113 472.821,-16.4371 474.709,-23.1779"/>
</g>
<!-- Node10&#45;&gt;Node9 -->
<g id="edge16" class="edge"><title>Node10&#45;&gt;Node9</title>
<path fill="none" stroke="midnightblue" d="M212.94,-56.4435C185.603,-46.9198 141.433,-31.5314 112.182,-21.3407"/>
<polygon fill="midnightblue" stroke="midnightblue" points="113.104,-17.9558 102.509,-17.971 110.801,-24.5661 113.104,-17.9558"/>
</g>
<!-- Node11 -->
<g id="node12" class="node"><title>Node11</title>
<polygon fill="white" stroke="#bfbfbf" points="121,-0.5 121,-19.5 162,-19.5 162,-0.5 121,-0.5"/>
<text text-anchor="middle" x="141.5" y="-7.5" font-family="Helvetica,sans-Serif" font-size="10.00">bitset</text>
</g>
<!-- Node10&#45;&gt;Node11 -->
<g id="edge13" class="edge"><title>Node10&#45;&gt;Node11</title>
<path fill="none" stroke="midnightblue" d="M222.076,-56.324C206.96,-47.8215 183.685,-34.7288 166.029,-24.7975"/>
<polygon fill="midnightblue" stroke="midnightblue" points="167.317,-21.5066 156.886,-19.6545 163.886,-27.6077 167.317,-21.5066"/>
</g>
<!-- Node12 -->
<g id="node13" class="node"><title>Node12</title>
<polygon fill="white" stroke="#bfbfbf" points="180,-0.5 180,-19.5 229,-19.5 229,-0.5 180,-0.5"/>
<text text-anchor="middle" x="204.5" y="-7.5" font-family="Helvetica,sans-Serif" font-size="10.00">cassert</text>
</g>
<!-- Node10&#45;&gt;Node12 -->
<g id="edge14" class="edge"><title>Node10&#45;&gt;Node12</title>
<path fill="none" stroke="midnightblue" d="M232.051,-56.083C227.486,-48.6127 220.832,-37.7244 215.207,-28.5199"/>
<polygon fill="midnightblue" stroke="midnightblue" points="218.049,-26.4588 209.848,-19.7511 212.076,-30.109 218.049,-26.4588"/>
</g>
<!-- Node13 -->
<g id="node14" class="node"><title>Node13</title>
<polygon fill="white" stroke="#bfbfbf" points="247,-0.5 247,-19.5 296,-19.5 296,-0.5 247,-0.5"/>
<text text-anchor="middle" x="271.5" y="-7.5" font-family="Helvetica,sans-Serif" font-size="10.00">cstddef</text>
</g>
<!-- Node10&#45;&gt;Node13 -->
<g id="edge17" class="edge"><title>Node10&#45;&gt;Node13</title>
<path fill="none" stroke="midnightblue" d="M243.114,-56.083C247.867,-48.5341 254.818,-37.4948 260.652,-28.2298"/>
<polygon fill="midnightblue" stroke="midnightblue" points="263.624,-30.0783 265.99,-19.7511 257.7,-26.3486 263.624,-30.0783"/>
</g>
<!-- Node14 -->
<g id="node15" class="node"><title>Node14</title>
<polygon fill="white" stroke="#bfbfbf" points="313.5,-0.5 313.5,-19.5 411.5,-19.5 411.5,-0.5 313.5,-0.5"/>
<text text-anchor="middle" x="362.5" y="-7.5" font-family="Helvetica,sans-Serif" font-size="10.00">tr1/unordered_map</text>
</g>
<!-- Node10&#45;&gt;Node14 -->
<g id="edge18" class="edge"><title>Node10&#45;&gt;Node14</title>
<path fill="none" stroke="midnightblue" d="M257.307,-56.4435C277.787,-47.5961 309.983,-33.6875 333.365,-23.5865"/>
<polygon fill="midnightblue" stroke="midnightblue" points="334.994,-26.6953 342.786,-19.5164 332.218,-20.2692 334.994,-26.6953"/>
</g>
<!-- Node16 -->
<g id="node17" class="node"><title>Node16</title>
<polygon fill="white" stroke="#bfbfbf" points="428,-56.5 428,-75.5 475,-75.5 475,-56.5 428,-56.5"/>
<text text-anchor="middle" x="451.5" y="-63.5" font-family="Helvetica,sans-Serif" font-size="10.00">math.h</text>
</g>
<!-- Node15&#45;&gt;Node16 -->
<g id="edge20" class="edge"><title>Node15&#45;&gt;Node16</title>
<path fill="none" stroke="midnightblue" d="M451.5,-112.083C451.5,-105.006 451.5,-94.8611 451.5,-85.9865"/>
<polygon fill="midnightblue" stroke="midnightblue" points="455,-85.751 451.5,-75.7511 448,-85.7511 455,-85.751"/>
</g>
</g>
</svg>
