<?xml version="1.0" encoding="UTF-8" standalone="no"?>
<!DOCTYPE svg PUBLIC "-//W3C//DTD SVG 1.1//EN"
 "http://www.w3.org/Graphics/SVG/1.1/DTD/svg11.dtd">
<!-- Generated by graphviz version 2.38.0 (20140413.2041)
 -->
<!-- Title: /home/alejandro/Desarrollo eclipse/os1/Thirdparty/g2o/g2o/core/hyper_graph_action.cpp Pages: 1 -->
<svg width="1192pt" height="341pt"
 viewBox="0.00 0.00 1192.29 341.00" xmlns="http://www.w3.org/2000/svg" xmlns:xlink="http://www.w3.org/1999/xlink">
<g id="graph0" class="graph" transform="scale(1 1) rotate(0) translate(4 337)">
<title>/home/alejandro/Desarrollo eclipse/os1/Thirdparty/g2o/g2o/core/hyper_graph_action.cpp</title>
<polygon fill="white" stroke="none" points="-4,4 -4,-337 1188.29,-337 1188.29,4 -4,4"/>
<!-- Node0 -->
<g id="node1" class="node"><title>Node0</title>
<polygon fill="#bfbfbf" stroke="black" points="186,-280.5 186,-332.5 319,-332.5 319,-280.5 186,-280.5"/>
<text text-anchor="start" x="194" y="-320.5" font-family="Helvetica,sans-Serif" font-size="10.00">/home/alejandro/Desarrollo</text>
<text text-anchor="start" x="194" y="-309.5" font-family="Helvetica,sans-Serif" font-size="10.00"> eclipse/os1/Thirdparty</text>
<text text-anchor="start" x="194" y="-298.5" font-family="Helvetica,sans-Serif" font-size="10.00">/g2o/g2o/core/hyper_graph</text>
<text text-anchor="middle" x="252.5" y="-287.5" font-family="Helvetica,sans-Serif" font-size="10.00">_action.cpp</text>
</g>
<!-- Node1 -->
<g id="node2" class="node"><title>Node1</title>
<g id="a_node2"><a xlink:href="hyper__graph__action_8h.html" target="_top" xlink:title="hyper_graph_action.h">
<polygon fill="white" stroke="black" points="239.5,-224.5 239.5,-243.5 349.5,-243.5 349.5,-224.5 239.5,-224.5"/>
<text text-anchor="middle" x="294.5" y="-231.5" font-family="Helvetica,sans-Serif" font-size="10.00">hyper_graph_action.h</text>
</a>
</g>
</g>
<!-- Node0&#45;&gt;Node1 -->
<g id="edge1" class="edge"><title>Node0&#45;&gt;Node1</title>
<path fill="none" stroke="midnightblue" d="M267.426,-280.446C272.976,-271.129 279.146,-260.772 284.193,-252.302"/>
<polygon fill="midnightblue" stroke="midnightblue" points="287.208,-254.078 289.32,-243.695 281.195,-250.495 287.208,-254.078"/>
</g>
<!-- Node16 -->
<g id="node17" class="node"><title>Node16</title>
<g id="a_node17"><a xlink:href="macros_8h.html" target="_top" xlink:title="macros.h">
<polygon fill="white" stroke="black" points="199,-56.5 199,-75.5 256,-75.5 256,-56.5 199,-56.5"/>
<text text-anchor="middle" x="227.5" y="-63.5" font-family="Helvetica,sans-Serif" font-size="10.00">macros.h</text>
</a>
</g>
</g>
<!-- Node0&#45;&gt;Node16 -->
<g id="edge52" class="edge"><title>Node0&#45;&gt;Node16</title>
<path fill="none" stroke="midnightblue" d="M232.55,-280.211C216.021,-257.535 193.79,-222.6 184.5,-188 182.195,-179.415 182.363,-176.628 184.5,-168 188.85,-150.439 196.129,-148.522 203.5,-132 210.393,-116.552 216.955,-98.4616 221.47,-85.2938"/>
<polygon fill="midnightblue" stroke="midnightblue" points="224.874,-86.1505 224.743,-75.5565 218.239,-83.92 224.874,-86.1505"/>
</g>
<!-- Node20 -->
<g id="node21" class="node"><title>Node20</title>
<polygon fill="white" stroke="#bfbfbf" points="193.5,-168.5 193.5,-187.5 247.5,-187.5 247.5,-168.5 193.5,-168.5"/>
<text text-anchor="middle" x="220.5" y="-175.5" font-family="Helvetica,sans-Serif" font-size="10.00">iostream</text>
</g>
<!-- Node0&#45;&gt;Node20 -->
<g id="edge53" class="edge"><title>Node0&#45;&gt;Node20</title>
<path fill="none" stroke="midnightblue" d="M242.296,-280.404C238.137,-269.384 233.591,-256.202 230.5,-244 226.597,-228.591 223.981,-210.719 222.408,-197.619"/>
<polygon fill="midnightblue" stroke="midnightblue" points="225.868,-197.07 221.286,-187.517 218.911,-197.842 225.868,-197.07"/>
</g>
<!-- Node21 -->
<g id="node22" class="node"><title>Node21</title>
<g id="a_node22"><a xlink:href="optimizable__graph_8h.html" target="_top" xlink:title="optimizable_graph.h">
<polygon fill="white" stroke="black" points="668.5,-224.5 668.5,-243.5 772.5,-243.5 772.5,-224.5 668.5,-224.5"/>
<text text-anchor="middle" x="720.5" y="-231.5" font-family="Helvetica,sans-Serif" font-size="10.00">optimizable_graph.h</text>
</a>
</g>
</g>
<!-- Node0&#45;&gt;Node21 -->
<g id="edge27" class="edge"><title>Node0&#45;&gt;Node21</title>
<path fill="none" stroke="midnightblue" d="M319.056,-295.474C409.479,-281.853 569.952,-257.679 658.144,-244.393"/>
<polygon fill="midnightblue" stroke="midnightblue" points="658.904,-247.819 668.271,-242.868 657.861,-240.897 658.904,-247.819"/>
</g>
<!-- Node2 -->
<g id="node3" class="node"><title>Node2</title>
<g id="a_node3"><a xlink:href="hyper__graph_8h.html" target="_top" xlink:title="hyper_graph.h">
<polygon fill="white" stroke="black" points="638.5,-112.5 638.5,-131.5 716.5,-131.5 716.5,-112.5 638.5,-112.5"/>
<text text-anchor="middle" x="677.5" y="-119.5" font-family="Helvetica,sans-Serif" font-size="10.00">hyper_graph.h</text>
</a>
</g>
</g>
<!-- Node1&#45;&gt;Node2 -->
<g id="edge2" class="edge"><title>Node1&#45;&gt;Node2</title>
<path fill="none" stroke="midnightblue" d="M349.615,-229.899C405.852,-225.367 494.926,-214.371 567.5,-188 601.613,-175.604 637.057,-152.5 658.194,-137.44"/>
<polygon fill="midnightblue" stroke="midnightblue" points="660.295,-140.24 666.331,-131.533 656.182,-134.575 660.295,-140.24"/>
</g>
<!-- Node4 -->
<g id="node5" class="node"><title>Node4</title>
<polygon fill="white" stroke="#bfbfbf" points="546.5,-56.5 546.5,-75.5 576.5,-75.5 576.5,-56.5 546.5,-56.5"/>
<text text-anchor="middle" x="561.5" y="-63.5" font-family="Helvetica,sans-Serif" font-size="10.00">set</text>
</g>
<!-- Node1&#45;&gt;Node4 -->
<g id="edge24" class="edge"><title>Node1&#45;&gt;Node4</title>
<path fill="none" stroke="midnightblue" d="M349.628,-229.5C411.845,-224.401 507.757,-212.702 533.5,-188 561.418,-161.211 563.955,-112.526 562.976,-85.8032"/>
<polygon fill="midnightblue" stroke="midnightblue" points="566.453,-85.3059 562.381,-75.5249 559.465,-85.7105 566.453,-85.3059"/>
</g>
<!-- Node11 -->
<g id="node12" class="node"><title>Node11</title>
<g id="a_node12"><a xlink:href="property_8h.html" target="_top" xlink:title="../stuff/property.h">
<polygon fill="white" stroke="black" points="45.5,-168.5 45.5,-187.5 137.5,-187.5 137.5,-168.5 45.5,-168.5"/>
<text text-anchor="middle" x="91.5" y="-175.5" font-family="Helvetica,sans-Serif" font-size="10.00">../stuff/property.h</text>
</a>
</g>
</g>
<!-- Node1&#45;&gt;Node11 -->
<g id="edge11" class="edge"><title>Node1&#45;&gt;Node11</title>
<path fill="none" stroke="midnightblue" d="M262.334,-224.444C227.441,-215.162 171.607,-200.309 133.329,-190.127"/>
<polygon fill="midnightblue" stroke="midnightblue" points="134.079,-186.705 123.515,-187.516 132.28,-193.47 134.079,-186.705"/>
</g>
<!-- Node12 -->
<g id="node13" class="node"><title>Node12</title>
<polygon fill="white" stroke="#bfbfbf" points="0,-56.5 0,-75.5 41,-75.5 41,-56.5 0,-56.5"/>
<text text-anchor="middle" x="20.5" y="-63.5" font-family="Helvetica,sans-Serif" font-size="10.00">string</text>
</g>
<!-- Node1&#45;&gt;Node12 -->
<g id="edge25" class="edge"><title>Node1&#45;&gt;Node12</title>
<path fill="none" stroke="midnightblue" d="M239.221,-230.611C172.081,-226.516 64.326,-215.714 36.5,-188 9.43799,-161.047 12.5526,-112.062 16.7653,-85.4334"/>
<polygon fill="midnightblue" stroke="midnightblue" points="20.2229,-85.9815 18.5532,-75.5191 13.334,-84.7392 20.2229,-85.9815"/>
</g>
<!-- Node18 -->
<g id="node19" class="node"><title>Node18</title>
<polygon fill="white" stroke="#bfbfbf" points="304,-168.5 304,-187.5 355,-187.5 355,-168.5 304,-168.5"/>
<text text-anchor="middle" x="329.5" y="-175.5" font-family="Helvetica,sans-Serif" font-size="10.00">typeinfo</text>
</g>
<!-- Node1&#45;&gt;Node18 -->
<g id="edge22" class="edge"><title>Node1&#45;&gt;Node18</title>
<path fill="none" stroke="midnightblue" d="M300.28,-224.083C305.172,-216.534 312.327,-205.495 318.333,-196.23"/>
<polygon fill="midnightblue" stroke="midnightblue" points="321.326,-198.046 323.828,-187.751 315.452,-194.239 321.326,-198.046"/>
</g>
<!-- Node19 -->
<g id="node20" class="node"><title>Node19</title>
<polygon fill="white" stroke="#bfbfbf" points="424,-112.5 424,-131.5 469,-131.5 469,-112.5 424,-112.5"/>
<text text-anchor="middle" x="446.5" y="-119.5" font-family="Helvetica,sans-Serif" font-size="10.00">iosfwd</text>
</g>
<!-- Node1&#45;&gt;Node19 -->
<g id="edge23" class="edge"><title>Node1&#45;&gt;Node19</title>
<path fill="none" stroke="midnightblue" d="M291.552,-224.415C287.511,-210.937 282.075,-184.636 294.5,-168 321.811,-131.431 377.528,-123.357 413.384,-122.206"/>
<polygon fill="midnightblue" stroke="midnightblue" points="413.876,-125.699 423.821,-122.047 413.769,-118.7 413.876,-125.699"/>
</g>
<!-- Node1&#45;&gt;Node20 -->
<g id="edge26" class="edge"><title>Node1&#45;&gt;Node20</title>
<path fill="none" stroke="midnightblue" d="M282.611,-224.324C271.35,-216.107 254.213,-203.602 240.791,-193.807"/>
<polygon fill="midnightblue" stroke="midnightblue" points="242.747,-190.901 232.606,-187.834 238.62,-196.556 242.747,-190.901"/>
</g>
<!-- Node3 -->
<g id="node4" class="node"><title>Node3</title>
<polygon fill="white" stroke="#bfbfbf" points="480,-56.5 480,-75.5 515,-75.5 515,-56.5 480,-56.5"/>
<text text-anchor="middle" x="497.5" y="-63.5" font-family="Helvetica,sans-Serif" font-size="10.00">map</text>
</g>
<!-- Node2&#45;&gt;Node3 -->
<g id="edge3" class="edge"><title>Node2&#45;&gt;Node3</title>
<path fill="none" stroke="midnightblue" d="M648.978,-112.444C614.84,-102.202 558.096,-85.1789 524.6,-75.1301"/>
<polygon fill="midnightblue" stroke="midnightblue" points="525.586,-71.7718 515.002,-72.2506 523.575,-78.4766 525.586,-71.7718"/>
</g>
<!-- Node2&#45;&gt;Node4 -->
<g id="edge4" class="edge"><title>Node2&#45;&gt;Node4</title>
<path fill="none" stroke="midnightblue" d="M659.119,-112.444C639.397,-103.262 607.967,-88.6313 586.119,-78.4605"/>
<polygon fill="midnightblue" stroke="midnightblue" points="587.374,-75.1841 576.831,-74.1368 584.42,-81.5302 587.374,-75.1841"/>
</g>
<!-- Node5 -->
<g id="node6" class="node"><title>Node5</title>
<polygon fill="white" stroke="#bfbfbf" points="657,-56.5 657,-75.5 698,-75.5 698,-56.5 657,-56.5"/>
<text text-anchor="middle" x="677.5" y="-63.5" font-family="Helvetica,sans-Serif" font-size="10.00">bitset</text>
</g>
<!-- Node2&#45;&gt;Node5 -->
<g id="edge5" class="edge"><title>Node2&#45;&gt;Node5</title>
<path fill="none" stroke="midnightblue" d="M677.5,-112.083C677.5,-105.006 677.5,-94.8611 677.5,-85.9865"/>
<polygon fill="midnightblue" stroke="midnightblue" points="681,-85.751 677.5,-75.7511 674,-85.7511 681,-85.751"/>
</g>
<!-- Node6 -->
<g id="node7" class="node"><title>Node6</title>
<polygon fill="white" stroke="#bfbfbf" points="1049,-56.5 1049,-75.5 1098,-75.5 1098,-56.5 1049,-56.5"/>
<text text-anchor="middle" x="1073.5" y="-63.5" font-family="Helvetica,sans-Serif" font-size="10.00">cassert</text>
</g>
<!-- Node2&#45;&gt;Node6 -->
<g id="edge6" class="edge"><title>Node2&#45;&gt;Node6</title>
<path fill="none" stroke="midnightblue" d="M716.554,-115.674C793.735,-105.15 964.702,-81.8361 1038.48,-71.7753"/>
<polygon fill="midnightblue" stroke="midnightblue" points="1039.2,-75.2093 1048.64,-70.3902 1038.26,-68.2735 1039.2,-75.2093"/>
</g>
<!-- Node7 -->
<g id="node8" class="node"><title>Node7</title>
<polygon fill="white" stroke="#bfbfbf" points="594.5,-56.5 594.5,-75.5 638.5,-75.5 638.5,-56.5 594.5,-56.5"/>
<text text-anchor="middle" x="616.5" y="-63.5" font-family="Helvetica,sans-Serif" font-size="10.00">vector</text>
</g>
<!-- Node2&#45;&gt;Node7 -->
<g id="edge7" class="edge"><title>Node2&#45;&gt;Node7</title>
<path fill="none" stroke="midnightblue" d="M667.699,-112.324C658.682,-104.341 645.094,-92.3128 634.182,-82.6529"/>
<polygon fill="midnightblue" stroke="midnightblue" points="636.287,-79.8416 626.479,-75.8339 631.647,-85.083 636.287,-79.8416"/>
</g>
<!-- Node8 -->
<g id="node9" class="node"><title>Node8</title>
<polygon fill="white" stroke="#bfbfbf" points="944.5,-56.5 944.5,-75.5 984.5,-75.5 984.5,-56.5 944.5,-56.5"/>
<text text-anchor="middle" x="964.5" y="-63.5" font-family="Helvetica,sans-Serif" font-size="10.00">limits</text>
</g>
<!-- Node2&#45;&gt;Node8 -->
<g id="edge8" class="edge"><title>Node2&#45;&gt;Node8</title>
<path fill="none" stroke="midnightblue" d="M716.505,-113.661C774.433,-102.762 881.979,-82.5265 934.32,-72.6785"/>
<polygon fill="midnightblue" stroke="midnightblue" points="935.137,-76.0863 944.317,-70.7975 933.842,-69.207 935.137,-76.0863"/>
</g>
<!-- Node9 -->
<g id="node10" class="node"><title>Node9</title>
<polygon fill="white" stroke="#bfbfbf" points="716,-56.5 716,-75.5 765,-75.5 765,-56.5 716,-56.5"/>
<text text-anchor="middle" x="740.5" y="-63.5" font-family="Helvetica,sans-Serif" font-size="10.00">cstddef</text>
</g>
<!-- Node2&#45;&gt;Node9 -->
<g id="edge9" class="edge"><title>Node2&#45;&gt;Node9</title>
<path fill="none" stroke="midnightblue" d="M687.622,-112.324C697.026,-104.263 711.244,-92.0765 722.569,-82.3695"/>
<polygon fill="midnightblue" stroke="midnightblue" points="724.879,-84.9993 730.194,-75.8339 720.323,-79.6844 724.879,-84.9993"/>
</g>
<!-- Node10 -->
<g id="node11" class="node"><title>Node10</title>
<polygon fill="white" stroke="#bfbfbf" points="782.5,-56.5 782.5,-75.5 880.5,-75.5 880.5,-56.5 782.5,-56.5"/>
<text text-anchor="middle" x="831.5" y="-63.5" font-family="Helvetica,sans-Serif" font-size="10.00">tr1/unordered_map</text>
</g>
<!-- Node2&#45;&gt;Node10 -->
<g id="edge10" class="edge"><title>Node2&#45;&gt;Node10</title>
<path fill="none" stroke="midnightblue" d="M701.902,-112.444C727.697,-103.399 768.577,-89.064 797.518,-78.9158"/>
<polygon fill="midnightblue" stroke="midnightblue" points="798.934,-82.1283 807.212,-75.5164 796.618,-75.5226 798.934,-82.1283"/>
</g>
<!-- Node11&#45;&gt;Node3 -->
<g id="edge13" class="edge"><title>Node11&#45;&gt;Node3</title>
<path fill="none" stroke="midnightblue" d="M123.02,-168.46C200.089,-147.579 397.064,-94.2117 469.89,-74.4806"/>
<polygon fill="midnightblue" stroke="midnightblue" points="470.968,-77.8148 479.705,-71.8214 469.137,-71.0584 470.968,-77.8148"/>
</g>
<!-- Node11&#45;&gt;Node12 -->
<g id="edge12" class="edge"><title>Node11&#45;&gt;Node12</title>
<path fill="none" stroke="midnightblue" d="M77.5822,-168.314C65.7999,-160.27 49.3066,-147.269 39.5,-132 30.4662,-117.934 25.6062,-99.4414 23.0704,-85.7783"/>
<polygon fill="midnightblue" stroke="midnightblue" points="26.4842,-84.961 21.4464,-75.6406 19.5723,-86.0684 26.4842,-84.961"/>
</g>
<!-- Node13 -->
<g id="node14" class="node"><title>Node13</title>
<polygon fill="white" stroke="#bfbfbf" points="65.5,-56.5 65.5,-75.5 117.5,-75.5 117.5,-56.5 65.5,-56.5"/>
<text text-anchor="middle" x="91.5" y="-63.5" font-family="Helvetica,sans-Serif" font-size="10.00">sstream</text>
</g>
<!-- Node11&#45;&gt;Node13 -->
<g id="edge14" class="edge"><title>Node11&#45;&gt;Node13</title>
<path fill="none" stroke="midnightblue" d="M91.5,-168.368C91.5,-150.617 91.5,-109.666 91.5,-85.5974"/>
<polygon fill="midnightblue" stroke="midnightblue" points="95.0001,-85.5914 91.5,-75.5914 88.0001,-85.5915 95.0001,-85.5914"/>
</g>
<!-- Node14 -->
<g id="node15" class="node"><title>Node14</title>
<g id="a_node15"><a xlink:href="string__tools_8h.html" target="_top" xlink:title="string_tools.h">
<polygon fill="white" stroke="black" points="120,-112.5 120,-131.5 195,-131.5 195,-112.5 120,-112.5"/>
<text text-anchor="middle" x="157.5" y="-119.5" font-family="Helvetica,sans-Serif" font-size="10.00">string_tools.h</text>
</a>
</g>
</g>
<!-- Node11&#45;&gt;Node14 -->
<g id="edge15" class="edge"><title>Node11&#45;&gt;Node14</title>
<path fill="none" stroke="midnightblue" d="M102.104,-168.324C111.956,-160.263 126.851,-148.077 138.715,-138.369"/>
<polygon fill="midnightblue" stroke="midnightblue" points="141.18,-140.875 146.703,-131.834 136.747,-135.457 141.18,-140.875"/>
</g>
<!-- Node14&#45;&gt;Node7 -->
<g id="edge19" class="edge"><title>Node14&#45;&gt;Node7</title>
<path fill="none" stroke="midnightblue" d="M195.045,-119.299C268.241,-115.5 435.175,-104.477 584.034,-75.9619"/>
<polygon fill="midnightblue" stroke="midnightblue" points="585.119,-79.3164 594.265,-73.9685 583.781,-72.4456 585.119,-79.3164"/>
</g>
<!-- Node14&#45;&gt;Node12 -->
<g id="edge16" class="edge"><title>Node14&#45;&gt;Node12</title>
<path fill="none" stroke="midnightblue" d="M135.792,-112.444C112.879,-103.412 76.5856,-89.1067 50.8461,-78.9612"/>
<polygon fill="midnightblue" stroke="midnightblue" points="51.7966,-75.5738 41.2097,-75.1629 49.2296,-82.0862 51.7966,-75.5738"/>
</g>
<!-- Node14&#45;&gt;Node13 -->
<g id="edge17" class="edge"><title>Node14&#45;&gt;Node13</title>
<path fill="none" stroke="midnightblue" d="M146.896,-112.324C137.044,-104.263 122.149,-92.0765 110.285,-82.3695"/>
<polygon fill="midnightblue" stroke="midnightblue" points="112.253,-79.4575 102.297,-75.8339 107.82,-84.8752 112.253,-79.4575"/>
</g>
<!-- Node15 -->
<g id="node16" class="node"><title>Node15</title>
<polygon fill="white" stroke="#bfbfbf" points="136,-56.5 136,-75.5 181,-75.5 181,-56.5 136,-56.5"/>
<text text-anchor="middle" x="158.5" y="-63.5" font-family="Helvetica,sans-Serif" font-size="10.00">cstdlib</text>
</g>
<!-- Node14&#45;&gt;Node15 -->
<g id="edge18" class="edge"><title>Node14&#45;&gt;Node15</title>
<path fill="none" stroke="midnightblue" d="M157.665,-112.083C157.796,-105.006 157.984,-94.8611 158.148,-85.9865"/>
<polygon fill="midnightblue" stroke="midnightblue" points="161.652,-85.8142 158.338,-75.7511 154.653,-85.6845 161.652,-85.8142"/>
</g>
<!-- Node14&#45;&gt;Node16 -->
<g id="edge20" class="edge"><title>Node14&#45;&gt;Node16</title>
<path fill="none" stroke="midnightblue" d="M168.747,-112.324C179.297,-104.185 195.301,-91.8395 207.942,-82.0874"/>
<polygon fill="midnightblue" stroke="midnightblue" points="210.269,-84.7132 216.049,-75.8339 205.993,-79.1707 210.269,-84.7132"/>
</g>
<!-- Node17 -->
<g id="node18" class="node"><title>Node17</title>
<polygon fill="white" stroke="#bfbfbf" points="204,-0.5 204,-19.5 251,-19.5 251,-0.5 204,-0.5"/>
<text text-anchor="middle" x="227.5" y="-7.5" font-family="Helvetica,sans-Serif" font-size="10.00">math.h</text>
</g>
<!-- Node16&#45;&gt;Node17 -->
<g id="edge21" class="edge"><title>Node16&#45;&gt;Node17</title>
<path fill="none" stroke="midnightblue" d="M227.5,-56.083C227.5,-49.0059 227.5,-38.8611 227.5,-29.9865"/>
<polygon fill="midnightblue" stroke="midnightblue" points="231,-29.751 227.5,-19.7511 224,-29.7511 231,-29.751"/>
</g>
<!-- Node21&#45;&gt;Node2 -->
<g id="edge37" class="edge"><title>Node21&#45;&gt;Node2</title>
<path fill="none" stroke="midnightblue" d="M769.751,-224.48C811.286,-215.072 860.697,-197.252 838.5,-168 831.548,-158.838 771.479,-143.769 726.737,-133.621"/>
<polygon fill="midnightblue" stroke="midnightblue" points="727.402,-130.184 716.878,-131.408 725.869,-137.014 727.402,-130.184"/>
</g>
<!-- Node21&#45;&gt;Node4 -->
<g id="edge28" class="edge"><title>Node21&#45;&gt;Node4</title>
<path fill="none" stroke="midnightblue" d="M748.754,-224.497C780.651,-213.466 825.645,-192.683 805.5,-168 755.016,-106.145 700.234,-169.032 629.5,-132 607.004,-120.222 586.75,-98.7735 574.313,-83.746"/>
<polygon fill="midnightblue" stroke="midnightblue" points="576.912,-81.391 567.936,-75.7617 571.442,-85.7596 576.912,-81.391"/>
</g>
<!-- Node21&#45;&gt;Node8 -->
<g id="edge31" class="edge"><title>Node21&#45;&gt;Node8</title>
<path fill="none" stroke="midnightblue" d="M772.669,-232.545C847.91,-230.682 981.304,-222.461 1012.5,-188 1035.19,-162.939 1029.4,-142.812 1015.5,-112 1009.88,-99.5553 998.937,-89.1723 988.621,-81.5273"/>
<polygon fill="midnightblue" stroke="midnightblue" points="990.458,-78.5431 980.234,-75.7643 986.494,-84.3123 990.458,-78.5431"/>
</g>
<!-- Node21&#45;&gt;Node16 -->
<g id="edge51" class="edge"><title>Node21&#45;&gt;Node16</title>
<path fill="none" stroke="midnightblue" d="M668.259,-232.904C603.682,-231.162 491.429,-222.775 402.5,-188 368.901,-174.861 284.685,-111.322 246.661,-81.9487"/>
<polygon fill="midnightblue" stroke="midnightblue" points="248.504,-78.9486 238.457,-75.5864 244.214,-84.4803 248.504,-78.9486"/>
</g>
<!-- Node21&#45;&gt;Node18 -->
<g id="edge33" class="edge"><title>Node21&#45;&gt;Node18</title>
<path fill="none" stroke="midnightblue" d="M668.233,-227.847C599.454,-220.713 474.929,-206.577 369.5,-188 368.054,-187.745 366.582,-187.473 365.096,-187.188"/>
<polygon fill="midnightblue" stroke="midnightblue" points="365.749,-183.749 355.249,-185.167 364.341,-190.606 365.749,-183.749"/>
</g>
<!-- Node21&#45;&gt;Node20 -->
<g id="edge29" class="edge"><title>Node21&#45;&gt;Node20</title>
<path fill="none" stroke="midnightblue" d="M668.336,-227.758C588.001,-219.623 429.172,-203.302 294.5,-188 282.466,-186.633 269.341,-185.062 257.531,-183.62"/>
<polygon fill="midnightblue" stroke="midnightblue" points="257.903,-180.14 247.551,-182.394 257.05,-187.087 257.903,-180.14"/>
</g>
<!-- Node22 -->
<g id="node23" class="node"><title>Node22</title>
<polygon fill="white" stroke="#bfbfbf" points="706,-168.5 706,-187.5 735,-187.5 735,-168.5 706,-168.5"/>
<text text-anchor="middle" x="720.5" y="-175.5" font-family="Helvetica,sans-Serif" font-size="10.00">list</text>
</g>
<!-- Node21&#45;&gt;Node22 -->
<g id="edge30" class="edge"><title>Node21&#45;&gt;Node22</title>
<path fill="none" stroke="midnightblue" d="M720.5,-224.083C720.5,-217.006 720.5,-206.861 720.5,-197.986"/>
<polygon fill="midnightblue" stroke="midnightblue" points="724,-197.751 720.5,-187.751 717,-197.751 724,-197.751"/>
</g>
<!-- Node23 -->
<g id="node24" class="node"><title>Node23</title>
<polygon fill="white" stroke="#bfbfbf" points="752.5,-168.5 752.5,-187.5 796.5,-187.5 796.5,-168.5 752.5,-168.5"/>
<text text-anchor="middle" x="774.5" y="-175.5" font-family="Helvetica,sans-Serif" font-size="10.00">cmath</text>
</g>
<!-- Node21&#45;&gt;Node23 -->
<g id="edge32" class="edge"><title>Node21&#45;&gt;Node23</title>
<path fill="none" stroke="midnightblue" d="M729.417,-224.083C737.28,-216.22 748.931,-204.569 758.419,-195.081"/>
<polygon fill="midnightblue" stroke="midnightblue" points="761.153,-197.297 765.749,-187.751 756.203,-192.347 761.153,-197.297"/>
</g>
<!-- Node24 -->
<g id="node25" class="node"><title>Node24</title>
<g id="a_node25"><a xlink:href="openmp__mutex_8h.html" target="_top" xlink:title="openmp_mutex.h">
<polygon fill="white" stroke="black" points="1090.5,-168.5 1090.5,-187.5 1182.5,-187.5 1182.5,-168.5 1090.5,-168.5"/>
<text text-anchor="middle" x="1136.5" y="-175.5" font-family="Helvetica,sans-Serif" font-size="10.00">openmp_mutex.h</text>
</a>
</g>
</g>
<!-- Node21&#45;&gt;Node24 -->
<g id="edge34" class="edge"><title>Node21&#45;&gt;Node24</title>
<path fill="none" stroke="midnightblue" d="M772.765,-226.216C851.346,-216.015 999.316,-196.808 1080.2,-186.308"/>
<polygon fill="midnightblue" stroke="midnightblue" points="1080.73,-189.769 1090.2,-185.01 1079.83,-182.827 1080.73,-189.769"/>
</g>
<!-- Node26 -->
<g id="node27" class="node"><title>Node26</title>
<g id="a_node27"><a xlink:href="parameter_8h.html" target="_top" xlink:title="parameter.h">
<polygon fill="white" stroke="black" points="619.5,-168.5 619.5,-187.5 687.5,-187.5 687.5,-168.5 619.5,-168.5"/>
<text text-anchor="middle" x="653.5" y="-175.5" font-family="Helvetica,sans-Serif" font-size="10.00">parameter.h</text>
</a>
</g>
</g>
<!-- Node21&#45;&gt;Node26 -->
<g id="edge38" class="edge"><title>Node21&#45;&gt;Node26</title>
<path fill="none" stroke="midnightblue" d="M709.735,-224.324C699.734,-216.263 684.613,-204.077 672.57,-194.369"/>
<polygon fill="midnightblue" stroke="midnightblue" points="674.443,-191.384 664.461,-187.834 670.05,-196.834 674.443,-191.384"/>
</g>
<!-- Node27 -->
<g id="node28" class="node"><title>Node27</title>
<g id="a_node28"><a xlink:href="parameter__container_8h.html" target="_top" xlink:title="parameter_container.h">
<polygon fill="white" stroke="black" points="412,-168.5 412,-187.5 525,-187.5 525,-168.5 412,-168.5"/>
<text text-anchor="middle" x="468.5" y="-175.5" font-family="Helvetica,sans-Serif" font-size="10.00">parameter_container.h</text>
</a>
</g>
</g>
<!-- Node21&#45;&gt;Node27 -->
<g id="edge41" class="edge"><title>Node21&#45;&gt;Node27</title>
<path fill="none" stroke="midnightblue" d="M680.57,-224.444C636.609,-215.023 565.873,-199.866 518.317,-189.675"/>
<polygon fill="midnightblue" stroke="midnightblue" points="518.755,-186.189 508.243,-187.516 517.288,-193.034 518.755,-186.189"/>
</g>
<!-- Node28 -->
<g id="node29" class="node"><title>Node28</title>
<g id="a_node29"><a xlink:href="jacobian__workspace_8h.html" target="_top" xlink:title="jacobian_workspace.h">
<polygon fill="white" stroke="black" points="891,-168.5 891,-187.5 1004,-187.5 1004,-168.5 891,-168.5"/>
<text text-anchor="middle" x="947.5" y="-175.5" font-family="Helvetica,sans-Serif" font-size="10.00">jacobian_workspace.h</text>
</a>
</g>
</g>
<!-- Node21&#45;&gt;Node28 -->
<g id="edge45" class="edge"><title>Node21&#45;&gt;Node28</title>
<path fill="none" stroke="midnightblue" d="M756.469,-224.444C795.819,-215.083 858.987,-200.056 901.814,-189.868"/>
<polygon fill="midnightblue" stroke="midnightblue" points="902.781,-193.236 911.699,-187.516 901.161,-186.426 902.781,-193.236"/>
</g>
<!-- Node24&#45;&gt;Node6 -->
<g id="edge36" class="edge"><title>Node24&#45;&gt;Node6</title>
<path fill="none" stroke="midnightblue" d="M1149.71,-168.41C1167.11,-156.002 1194,-132.318 1180.5,-112 1164.6,-88.0586 1133.2,-76.8264 1108.51,-71.5733"/>
<polygon fill="midnightblue" stroke="midnightblue" points="1108.88,-68.0815 1098.41,-69.6685 1107.59,-74.9603 1108.88,-68.0815"/>
</g>
<!-- Node25 -->
<g id="node26" class="node"><title>Node25</title>
<g id="a_node26"><a xlink:href="config_8h.html" target="_top" xlink:title="../../config.h">
<polygon fill="white" stroke="black" points="1102,-112.5 1102,-131.5 1171,-131.5 1171,-112.5 1102,-112.5"/>
<text text-anchor="middle" x="1136.5" y="-119.5" font-family="Helvetica,sans-Serif" font-size="10.00">../../config.h</text>
</a>
</g>
</g>
<!-- Node24&#45;&gt;Node25 -->
<g id="edge35" class="edge"><title>Node24&#45;&gt;Node25</title>
<path fill="none" stroke="midnightblue" d="M1136.5,-168.083C1136.5,-161.006 1136.5,-150.861 1136.5,-141.986"/>
<polygon fill="midnightblue" stroke="midnightblue" points="1140,-141.751 1136.5,-131.751 1133,-141.751 1140,-141.751"/>
</g>
<!-- Node26&#45;&gt;Node2 -->
<g id="edge40" class="edge"><title>Node26&#45;&gt;Node2</title>
<path fill="none" stroke="midnightblue" d="M657.463,-168.083C660.713,-160.77 665.419,-150.181 669.454,-141.103"/>
<polygon fill="midnightblue" stroke="midnightblue" points="672.748,-142.311 673.611,-131.751 666.351,-139.468 672.748,-142.311"/>
</g>
<!-- Node26&#45;&gt;Node19 -->
<g id="edge39" class="edge"><title>Node26&#45;&gt;Node19</title>
<path fill="none" stroke="midnightblue" d="M620.7,-168.444C581.875,-158.315 517.626,-141.555 478.953,-131.466"/>
<polygon fill="midnightblue" stroke="midnightblue" points="479.794,-128.068 469.235,-128.931 478.027,-134.842 479.794,-128.068"/>
</g>
<!-- Node27&#45;&gt;Node3 -->
<g id="edge43" class="edge"><title>Node27&#45;&gt;Node3</title>
<path fill="none" stroke="midnightblue" d="M470.776,-168.368C475.477,-150.537 486.349,-109.295 492.683,-85.2717"/>
<polygon fill="midnightblue" stroke="midnightblue" points="496.07,-86.1533 495.235,-75.5914 489.301,-84.3688 496.07,-86.1533"/>
</g>
<!-- Node27&#45;&gt;Node12 -->
<g id="edge44" class="edge"><title>Node27&#45;&gt;Node12</title>
<path fill="none" stroke="midnightblue" d="M411.939,-171.446C318.124,-162.001 137.893,-142.791 110.5,-132 81.5275,-120.587 53.278,-97.6905 36.3785,-82.3509"/>
<polygon fill="midnightblue" stroke="midnightblue" points="38.7421,-79.7693 29.0407,-75.511 33.9691,-84.8898 38.7421,-79.7693"/>
</g>
<!-- Node27&#45;&gt;Node19 -->
<g id="edge42" class="edge"><title>Node27&#45;&gt;Node19</title>
<path fill="none" stroke="midnightblue" d="M464.867,-168.083C461.888,-160.77 457.574,-150.181 453.875,-141.103"/>
<polygon fill="midnightblue" stroke="midnightblue" points="457.08,-139.691 450.065,-131.751 450.597,-142.333 457.08,-139.691"/>
</g>
<!-- Node28&#45;&gt;Node2 -->
<g id="edge50" class="edge"><title>Node28&#45;&gt;Node2</title>
<path fill="none" stroke="midnightblue" d="M904.718,-168.444C856.306,-158.761 777.589,-143.018 726.682,-132.836"/>
<polygon fill="midnightblue" stroke="midnightblue" points="727.068,-129.344 716.575,-130.815 725.695,-136.208 727.068,-129.344"/>
</g>
<!-- Node28&#45;&gt;Node6 -->
<g id="edge49" class="edge"><title>Node28&#45;&gt;Node6</title>
<path fill="none" stroke="midnightblue" d="M962.878,-168.381C977.203,-160.001 998.802,-146.452 1015.5,-132 1032.57,-117.223 1049.46,-97.5745 1060.57,-83.7622"/>
<polygon fill="midnightblue" stroke="midnightblue" points="1063.53,-85.6566 1066.98,-75.6382 1058.04,-81.3202 1063.53,-85.6566"/>
</g>
<!-- Node28&#45;&gt;Node7 -->
<g id="edge48" class="edge"><title>Node28&#45;&gt;Node7</title>
<path fill="none" stroke="midnightblue" d="M898.87,-168.485C861.199,-161.088 808.091,-148.895 763.5,-132 745.653,-125.238 742.784,-120.095 725.5,-112 699.936,-100.027 670.29,-87.8975 648.374,-79.2529"/>
<polygon fill="midnightblue" stroke="midnightblue" points="649.479,-75.9269 638.891,-75.5395 646.927,-82.4449 649.479,-75.9269"/>
</g>
<!-- Node29 -->
<g id="node30" class="node"><title>Node29</title>
<polygon fill="white" stroke="#bfbfbf" points="773,-112.5 773,-131.5 870,-131.5 870,-112.5 773,-112.5"/>
<text text-anchor="middle" x="821.5" y="-119.5" font-family="Helvetica,sans-Serif" font-size="10.00">eigen3/Eigen/Core</text>
</g>
<!-- Node28&#45;&gt;Node29 -->
<g id="edge46" class="edge"><title>Node28&#45;&gt;Node29</title>
<path fill="none" stroke="midnightblue" d="M927.535,-168.444C906.891,-159.596 874.437,-145.687 850.868,-135.586"/>
<polygon fill="midnightblue" stroke="midnightblue" points="851.942,-132.239 841.372,-131.516 849.184,-138.673 851.942,-132.239"/>
</g>
<!-- Node30 -->
<g id="node31" class="node"><title>Node30</title>
<polygon fill="white" stroke="#bfbfbf" points="888,-112.5 888,-131.5 1007,-131.5 1007,-112.5 888,-112.5"/>
<text text-anchor="middle" x="947.5" y="-119.5" font-family="Helvetica,sans-Serif" font-size="10.00">eigen3/Eigen/StdVector</text>
</g>
<!-- Node28&#45;&gt;Node30 -->
<g id="edge47" class="edge"><title>Node28&#45;&gt;Node30</title>
<path fill="none" stroke="midnightblue" d="M947.5,-168.083C947.5,-161.006 947.5,-150.861 947.5,-141.986"/>
<polygon fill="midnightblue" stroke="midnightblue" points="951,-141.751 947.5,-131.751 944,-141.751 951,-141.751"/>
</g>
</g>
</svg>
