<?xml version="1.0" encoding="UTF-8" standalone="no"?>
<!DOCTYPE svg PUBLIC "-//W3C//DTD SVG 1.1//EN"
 "http://www.w3.org/Graphics/SVG/1.1/DTD/svg11.dtd">
<!-- Generated by graphviz version 2.38.0 (20140413.2041)
 -->
<!-- Title: /home/alejandro/Desarrollo eclipse/os1/Thirdparty/g2o/g2o/core/hyper_graph_action.h Pages: 1 -->
<svg width="910pt" height="285pt"
 viewBox="0.00 0.00 910.00 285.00" xmlns="http://www.w3.org/2000/svg" xmlns:xlink="http://www.w3.org/1999/xlink">
<g id="graph0" class="graph" transform="scale(1 1) rotate(0) translate(4 281)">
<title>/home/alejandro/Desarrollo eclipse/os1/Thirdparty/g2o/g2o/core/hyper_graph_action.h</title>
<polygon fill="white" stroke="none" points="-4,4 -4,-281 906,-281 906,4 -4,4"/>
<!-- Node0 -->
<g id="node1" class="node"><title>Node0</title>
<polygon fill="#bfbfbf" stroke="black" points="620.5,-224.5 620.5,-276.5 753.5,-276.5 753.5,-224.5 620.5,-224.5"/>
<text text-anchor="start" x="628.5" y="-264.5" font-family="Helvetica,sans-Serif" font-size="10.00">/home/alejandro/Desarrollo</text>
<text text-anchor="start" x="628.5" y="-253.5" font-family="Helvetica,sans-Serif" font-size="10.00"> eclipse/os1/Thirdparty</text>
<text text-anchor="start" x="628.5" y="-242.5" font-family="Helvetica,sans-Serif" font-size="10.00">/g2o/g2o/core/hyper_graph</text>
<text text-anchor="middle" x="687" y="-231.5" font-family="Helvetica,sans-Serif" font-size="10.00">_action.h</text>
</g>
<!-- Node1 -->
<g id="node2" class="node"><title>Node1</title>
<g id="a_node2"><a xlink:href="hyper__graph_8h.html" target="_top" xlink:title="hyper_graph.h">
<polygon fill="white" stroke="black" points="194,-168.5 194,-187.5 272,-187.5 272,-168.5 194,-168.5"/>
<text text-anchor="middle" x="233" y="-175.5" font-family="Helvetica,sans-Serif" font-size="10.00">hyper_graph.h</text>
</a>
</g>
</g>
<!-- Node0&#45;&gt;Node1 -->
<g id="edge1" class="edge"><title>Node0&#45;&gt;Node1</title>
<path fill="none" stroke="midnightblue" d="M620.498,-239.173C528.383,-224.869 364.076,-199.354 282.199,-186.64"/>
<polygon fill="midnightblue" stroke="midnightblue" points="282.576,-183.157 272.158,-185.081 281.502,-190.074 282.576,-183.157"/>
</g>
<!-- Node3 -->
<g id="node4" class="node"><title>Node3</title>
<polygon fill="white" stroke="#bfbfbf" points="0,-112.5 0,-131.5 30,-131.5 30,-112.5 0,-112.5"/>
<text text-anchor="middle" x="15" y="-119.5" font-family="Helvetica,sans-Serif" font-size="10.00">set</text>
</g>
<!-- Node0&#45;&gt;Node3 -->
<g id="edge23" class="edge"><title>Node0&#45;&gt;Node3</title>
<path fill="none" stroke="midnightblue" d="M620.285,-246.489C523.22,-240.951 337.957,-226.008 185,-188 131.365,-174.672 71.6636,-149.214 39.2224,-134.423"/>
<polygon fill="midnightblue" stroke="midnightblue" points="40.6131,-131.21 30.0665,-130.2 37.6813,-137.567 40.6131,-131.21"/>
</g>
<!-- Node10 -->
<g id="node11" class="node"><title>Node10</title>
<g id="a_node11"><a xlink:href="property_8h.html" target="_top" xlink:title="../stuff/property.h">
<polygon fill="white" stroke="black" points="565,-168.5 565,-187.5 657,-187.5 657,-168.5 565,-168.5"/>
<text text-anchor="middle" x="611" y="-175.5" font-family="Helvetica,sans-Serif" font-size="10.00">../stuff/property.h</text>
</a>
</g>
</g>
<!-- Node0&#45;&gt;Node10 -->
<g id="edge10" class="edge"><title>Node0&#45;&gt;Node10</title>
<path fill="none" stroke="midnightblue" d="M659.991,-224.446C649.3,-214.528 637.338,-203.432 627.91,-194.687"/>
<polygon fill="midnightblue" stroke="midnightblue" points="630.086,-191.93 620.374,-187.695 625.325,-197.062 630.086,-191.93"/>
</g>
<!-- Node11 -->
<g id="node12" class="node"><title>Node11</title>
<polygon fill="white" stroke="#bfbfbf" points="655.5,-56.5 655.5,-75.5 696.5,-75.5 696.5,-56.5 655.5,-56.5"/>
<text text-anchor="middle" x="676" y="-63.5" font-family="Helvetica,sans-Serif" font-size="10.00">string</text>
</g>
<!-- Node0&#45;&gt;Node11 -->
<g id="edge24" class="edge"><title>Node0&#45;&gt;Node11</title>
<path fill="none" stroke="midnightblue" d="M685.47,-224.124C683.231,-186.977 679.113,-118.642 677.128,-85.7114"/>
<polygon fill="midnightblue" stroke="midnightblue" points="680.617,-85.4203 676.521,-75.649 673.629,-85.8415 680.617,-85.4203"/>
</g>
<!-- Node17 -->
<g id="node18" class="node"><title>Node17</title>
<polygon fill="white" stroke="#bfbfbf" points="715.5,-168.5 715.5,-187.5 766.5,-187.5 766.5,-168.5 715.5,-168.5"/>
<text text-anchor="middle" x="741" y="-175.5" font-family="Helvetica,sans-Serif" font-size="10.00">typeinfo</text>
</g>
<!-- Node0&#45;&gt;Node17 -->
<g id="edge21" class="edge"><title>Node0&#45;&gt;Node17</title>
<path fill="none" stroke="midnightblue" d="M706.19,-224.446C713.48,-214.929 721.601,-204.327 728.164,-195.758"/>
<polygon fill="midnightblue" stroke="midnightblue" points="731.037,-197.763 734.34,-187.695 725.48,-193.506 731.037,-197.763"/>
</g>
<!-- Node18 -->
<g id="node19" class="node"><title>Node18</title>
<polygon fill="white" stroke="#bfbfbf" points="784.5,-168.5 784.5,-187.5 829.5,-187.5 829.5,-168.5 784.5,-168.5"/>
<text text-anchor="middle" x="807" y="-175.5" font-family="Helvetica,sans-Serif" font-size="10.00">iosfwd</text>
</g>
<!-- Node0&#45;&gt;Node18 -->
<g id="edge22" class="edge"><title>Node0&#45;&gt;Node18</title>
<path fill="none" stroke="midnightblue" d="M729.645,-224.446C747.832,-213.761 768.346,-201.709 783.677,-192.702"/>
<polygon fill="midnightblue" stroke="midnightblue" points="785.637,-195.61 792.486,-187.527 782.091,-189.575 785.637,-195.61"/>
</g>
<!-- Node19 -->
<g id="node20" class="node"><title>Node19</title>
<polygon fill="white" stroke="#bfbfbf" points="848,-168.5 848,-187.5 902,-187.5 902,-168.5 848,-168.5"/>
<text text-anchor="middle" x="875" y="-175.5" font-family="Helvetica,sans-Serif" font-size="10.00">iostream</text>
</g>
<!-- Node0&#45;&gt;Node19 -->
<g id="edge25" class="edge"><title>Node0&#45;&gt;Node19</title>
<path fill="none" stroke="midnightblue" d="M753.546,-224.545C783.811,-213.196 818.238,-200.286 842.691,-191.116"/>
<polygon fill="midnightblue" stroke="midnightblue" points="844.059,-194.341 852.193,-187.552 841.601,-187.787 844.059,-194.341"/>
</g>
<!-- Node2 -->
<g id="node3" class="node"><title>Node2</title>
<polygon fill="white" stroke="#bfbfbf" points="454.5,-112.5 454.5,-131.5 489.5,-131.5 489.5,-112.5 454.5,-112.5"/>
<text text-anchor="middle" x="472" y="-119.5" font-family="Helvetica,sans-Serif" font-size="10.00">map</text>
</g>
<!-- Node1&#45;&gt;Node2 -->
<g id="edge2" class="edge"><title>Node1&#45;&gt;Node2</title>
<path fill="none" stroke="midnightblue" d="M272.39,-170.014C313.191,-162.474 378.929,-149.48 444.671,-131.831"/>
<polygon fill="midnightblue" stroke="midnightblue" points="445.637,-135.196 454.368,-129.194 443.8,-128.441 445.637,-135.196"/>
</g>
<!-- Node1&#45;&gt;Node3 -->
<g id="edge3" class="edge"><title>Node1&#45;&gt;Node3</title>
<path fill="none" stroke="midnightblue" d="M193.958,-169.51C156.579,-161.994 98.4885,-149.413 39.916,-131.974"/>
<polygon fill="midnightblue" stroke="midnightblue" points="40.7178,-128.56 30.1328,-129.017 38.6922,-135.261 40.7178,-128.56"/>
</g>
<!-- Node4 -->
<g id="node5" class="node"><title>Node4</title>
<polygon fill="white" stroke="#bfbfbf" points="48.5,-112.5 48.5,-131.5 89.5,-131.5 89.5,-112.5 48.5,-112.5"/>
<text text-anchor="middle" x="69" y="-119.5" font-family="Helvetica,sans-Serif" font-size="10.00">bitset</text>
</g>
<!-- Node1&#45;&gt;Node4 -->
<g id="edge4" class="edge"><title>Node1&#45;&gt;Node4</title>
<path fill="none" stroke="midnightblue" d="M207.014,-168.444C177.801,-158.825 130.42,-143.224 99.4833,-133.037"/>
<polygon fill="midnightblue" stroke="midnightblue" points="100.265,-129.61 89.6721,-129.807 98.0758,-136.259 100.265,-129.61"/>
</g>
<!-- Node5 -->
<g id="node6" class="node"><title>Node5</title>
<polygon fill="white" stroke="#bfbfbf" points="107.5,-112.5 107.5,-131.5 156.5,-131.5 156.5,-112.5 107.5,-112.5"/>
<text text-anchor="middle" x="132" y="-119.5" font-family="Helvetica,sans-Serif" font-size="10.00">cassert</text>
</g>
<!-- Node1&#45;&gt;Node5 -->
<g id="edge5" class="edge"><title>Node1&#45;&gt;Node5</title>
<path fill="none" stroke="midnightblue" d="M216.773,-168.324C200.649,-159.703 175.7,-146.364 157.036,-136.386"/>
<polygon fill="midnightblue" stroke="midnightblue" points="158.656,-133.283 148.187,-131.655 155.356,-139.456 158.656,-133.283"/>
</g>
<!-- Node6 -->
<g id="node7" class="node"><title>Node6</title>
<polygon fill="white" stroke="#bfbfbf" points="274,-56.5 274,-75.5 318,-75.5 318,-56.5 274,-56.5"/>
<text text-anchor="middle" x="296" y="-63.5" font-family="Helvetica,sans-Serif" font-size="10.00">vector</text>
</g>
<!-- Node1&#45;&gt;Node6 -->
<g id="edge6" class="edge"><title>Node1&#45;&gt;Node6</title>
<path fill="none" stroke="midnightblue" d="M223.736,-168.204C211.345,-155.339 192.224,-130.869 204,-112 217.025,-91.1298 242.844,-79.6742 263.824,-73.5529"/>
<polygon fill="midnightblue" stroke="midnightblue" points="264.88,-76.894 273.656,-70.9586 263.094,-70.1256 264.88,-76.894"/>
</g>
<!-- Node7 -->
<g id="node8" class="node"><title>Node7</title>
<polygon fill="white" stroke="#bfbfbf" points="213,-112.5 213,-131.5 253,-131.5 253,-112.5 213,-112.5"/>
<text text-anchor="middle" x="233" y="-119.5" font-family="Helvetica,sans-Serif" font-size="10.00">limits</text>
</g>
<!-- Node1&#45;&gt;Node7 -->
<g id="edge7" class="edge"><title>Node1&#45;&gt;Node7</title>
<path fill="none" stroke="midnightblue" d="M233,-168.083C233,-161.006 233,-150.861 233,-141.986"/>
<polygon fill="midnightblue" stroke="midnightblue" points="236.5,-141.751 233,-131.751 229.5,-141.751 236.5,-141.751"/>
</g>
<!-- Node8 -->
<g id="node9" class="node"><title>Node8</title>
<polygon fill="white" stroke="#bfbfbf" points="271.5,-112.5 271.5,-131.5 320.5,-131.5 320.5,-112.5 271.5,-112.5"/>
<text text-anchor="middle" x="296" y="-119.5" font-family="Helvetica,sans-Serif" font-size="10.00">cstddef</text>
</g>
<!-- Node1&#45;&gt;Node8 -->
<g id="edge8" class="edge"><title>Node1&#45;&gt;Node8</title>
<path fill="none" stroke="midnightblue" d="M243.122,-168.324C252.526,-160.263 266.744,-148.077 278.069,-138.369"/>
<polygon fill="midnightblue" stroke="midnightblue" points="280.379,-140.999 285.694,-131.834 275.823,-135.684 280.379,-140.999"/>
</g>
<!-- Node9 -->
<g id="node10" class="node"><title>Node9</title>
<polygon fill="white" stroke="#bfbfbf" points="338,-112.5 338,-131.5 436,-131.5 436,-112.5 338,-112.5"/>
<text text-anchor="middle" x="387" y="-119.5" font-family="Helvetica,sans-Serif" font-size="10.00">tr1/unordered_map</text>
</g>
<!-- Node1&#45;&gt;Node9 -->
<g id="edge9" class="edge"><title>Node1&#45;&gt;Node9</title>
<path fill="none" stroke="midnightblue" d="M257.402,-168.444C283.197,-159.399 324.077,-145.064 353.018,-134.916"/>
<polygon fill="midnightblue" stroke="midnightblue" points="354.434,-138.128 362.712,-131.516 352.118,-131.523 354.434,-138.128"/>
</g>
<!-- Node10&#45;&gt;Node2 -->
<g id="edge12" class="edge"><title>Node10&#45;&gt;Node2</title>
<path fill="none" stroke="midnightblue" d="M588.975,-168.444C564.538,-158.95 525.102,-143.63 498.87,-133.439"/>
<polygon fill="midnightblue" stroke="midnightblue" points="500.11,-130.165 489.521,-129.807 497.575,-136.69 500.11,-130.165"/>
</g>
<!-- Node10&#45;&gt;Node11 -->
<g id="edge11" class="edge"><title>Node10&#45;&gt;Node11</title>
<path fill="none" stroke="midnightblue" d="M616.1,-168.368C626.78,-150.296 651.668,-108.176 665.773,-84.3074"/>
<polygon fill="midnightblue" stroke="midnightblue" points="668.849,-85.9813 670.923,-75.5914 662.823,-82.4201 668.849,-85.9813"/>
</g>
<!-- Node12 -->
<g id="node13" class="node"><title>Node12</title>
<polygon fill="white" stroke="#bfbfbf" points="585,-56.5 585,-75.5 637,-75.5 637,-56.5 585,-56.5"/>
<text text-anchor="middle" x="611" y="-63.5" font-family="Helvetica,sans-Serif" font-size="10.00">sstream</text>
</g>
<!-- Node10&#45;&gt;Node12 -->
<g id="edge13" class="edge"><title>Node10&#45;&gt;Node12</title>
<path fill="none" stroke="midnightblue" d="M611,-168.368C611,-150.617 611,-109.666 611,-85.5974"/>
<polygon fill="midnightblue" stroke="midnightblue" points="614.5,-85.5914 611,-75.5914 607.5,-85.5915 614.5,-85.5914"/>
</g>
<!-- Node13 -->
<g id="node14" class="node"><title>Node13</title>
<g id="a_node14"><a xlink:href="string__tools_8h.html" target="_top" xlink:title="string_tools.h">
<polygon fill="white" stroke="black" points="507.5,-112.5 507.5,-131.5 582.5,-131.5 582.5,-112.5 507.5,-112.5"/>
<text text-anchor="middle" x="545" y="-119.5" font-family="Helvetica,sans-Serif" font-size="10.00">string_tools.h</text>
</a>
</g>
</g>
<!-- Node10&#45;&gt;Node13 -->
<g id="edge14" class="edge"><title>Node10&#45;&gt;Node13</title>
<path fill="none" stroke="midnightblue" d="M600.396,-168.324C590.544,-160.263 575.649,-148.077 563.785,-138.369"/>
<polygon fill="midnightblue" stroke="midnightblue" points="565.753,-135.457 555.797,-131.834 561.32,-140.875 565.753,-135.457"/>
</g>
<!-- Node13&#45;&gt;Node6 -->
<g id="edge18" class="edge"><title>Node13&#45;&gt;Node6</title>
<path fill="none" stroke="midnightblue" d="M507.453,-112.857C458.674,-102.279 374.328,-83.9868 328.283,-74.0011"/>
<polygon fill="midnightblue" stroke="midnightblue" points="328.77,-70.5254 318.255,-71.8264 327.286,-77.3663 328.77,-70.5254"/>
</g>
<!-- Node13&#45;&gt;Node11 -->
<g id="edge15" class="edge"><title>Node13&#45;&gt;Node11</title>
<path fill="none" stroke="midnightblue" d="M565.757,-112.444C587.316,-103.557 621.263,-89.5632 645.794,-79.4514"/>
<polygon fill="midnightblue" stroke="midnightblue" points="647.428,-82.5634 655.34,-75.5164 644.761,-76.0917 647.428,-82.5634"/>
</g>
<!-- Node13&#45;&gt;Node12 -->
<g id="edge16" class="edge"><title>Node13&#45;&gt;Node12</title>
<path fill="none" stroke="midnightblue" d="M555.604,-112.324C565.456,-104.263 580.351,-92.0765 592.215,-82.3695"/>
<polygon fill="midnightblue" stroke="midnightblue" points="594.68,-84.8752 600.203,-75.8339 590.247,-79.4575 594.68,-84.8752"/>
</g>
<!-- Node14 -->
<g id="node15" class="node"><title>Node14</title>
<polygon fill="white" stroke="#bfbfbf" points="521.5,-56.5 521.5,-75.5 566.5,-75.5 566.5,-56.5 521.5,-56.5"/>
<text text-anchor="middle" x="544" y="-63.5" font-family="Helvetica,sans-Serif" font-size="10.00">cstdlib</text>
</g>
<!-- Node13&#45;&gt;Node14 -->
<g id="edge17" class="edge"><title>Node13&#45;&gt;Node14</title>
<path fill="none" stroke="midnightblue" d="M544.835,-112.083C544.704,-105.006 544.516,-94.8611 544.352,-85.9865"/>
<polygon fill="midnightblue" stroke="midnightblue" points="547.847,-85.6845 544.162,-75.7511 540.848,-85.8142 547.847,-85.6845"/>
</g>
<!-- Node15 -->
<g id="node16" class="node"><title>Node15</title>
<g id="a_node16"><a xlink:href="macros_8h.html" target="_top" xlink:title="macros.h">
<polygon fill="white" stroke="black" points="446.5,-56.5 446.5,-75.5 503.5,-75.5 503.5,-56.5 446.5,-56.5"/>
<text text-anchor="middle" x="475" y="-63.5" font-family="Helvetica,sans-Serif" font-size="10.00">macros.h</text>
</a>
</g>
</g>
<!-- Node13&#45;&gt;Node15 -->
<g id="edge19" class="edge"><title>Node13&#45;&gt;Node15</title>
<path fill="none" stroke="midnightblue" d="M533.753,-112.324C523.203,-104.185 507.199,-91.8395 494.558,-82.0874"/>
<polygon fill="midnightblue" stroke="midnightblue" points="496.507,-79.1707 486.451,-75.8339 492.231,-84.7132 496.507,-79.1707"/>
</g>
<!-- Node16 -->
<g id="node17" class="node"><title>Node16</title>
<polygon fill="white" stroke="#bfbfbf" points="451.5,-0.5 451.5,-19.5 498.5,-19.5 498.5,-0.5 451.5,-0.5"/>
<text text-anchor="middle" x="475" y="-7.5" font-family="Helvetica,sans-Serif" font-size="10.00">math.h</text>
</g>
<!-- Node15&#45;&gt;Node16 -->
<g id="edge20" class="edge"><title>Node15&#45;&gt;Node16</title>
<path fill="none" stroke="midnightblue" d="M475,-56.083C475,-49.0059 475,-38.8611 475,-29.9865"/>
<polygon fill="midnightblue" stroke="midnightblue" points="478.5,-29.751 475,-19.7511 471.5,-29.7511 478.5,-29.751"/>
</g>
</g>
</svg>
