<?xml version="1.0" encoding="UTF-8" standalone="no"?>
<!DOCTYPE svg PUBLIC "-//W3C//DTD SVG 1.1//EN"
 "http://www.w3.org/Graphics/SVG/1.1/DTD/svg11.dtd">
<!-- Generated by graphviz version 2.38.0 (20140413.2041)
 -->
<!-- Title: /home/alejandro/Desarrollo eclipse/os1/Thirdparty/g2o/g2o/core/hyper_dijkstra.h Pages: 1 -->
<svg width="522pt" height="162pt"
 viewBox="0.00 0.00 522.00 162.00" xmlns="http://www.w3.org/2000/svg" xmlns:xlink="http://www.w3.org/1999/xlink">
<g id="graph0" class="graph" transform="scale(1 1) rotate(0) translate(4 158)">
<title>/home/alejandro/Desarrollo eclipse/os1/Thirdparty/g2o/g2o/core/hyper_dijkstra.h</title>
<polygon fill="white" stroke="none" points="-4,4 -4,-158 518,-158 518,4 -4,4"/>
<!-- Node0 -->
<g id="node1" class="node"><title>Node0</title>
<polygon fill="#bfbfbf" stroke="black" points="20.5,-112.5 20.5,-153.5 168.5,-153.5 168.5,-112.5 20.5,-112.5"/>
<text text-anchor="start" x="28.5" y="-141.5" font-family="Helvetica,sans-Serif" font-size="10.00">/home/alejandro/Desarrollo</text>
<text text-anchor="start" x="28.5" y="-130.5" font-family="Helvetica,sans-Serif" font-size="10.00"> eclipse/os1/Thirdparty</text>
<text text-anchor="middle" x="94.5" y="-119.5" font-family="Helvetica,sans-Serif" font-size="10.00">/g2o/g2o/core/hyper_dijkstra.h</text>
</g>
<!-- Node1 -->
<g id="node2" class="node"><title>Node1</title>
<polygon fill="white" stroke="#bfbfbf" points="0,-0.5 0,-19.5 35,-19.5 35,-0.5 0,-0.5"/>
<text text-anchor="middle" x="17.5" y="-7.5" font-family="Helvetica,sans-Serif" font-size="10.00">map</text>
</g>
<!-- Node0&#45;&gt;Node1 -->
<g id="edge1" class="edge"><title>Node0&#45;&gt;Node1</title>
<path fill="none" stroke="midnightblue" d="M81.9572,-112.29C67.1086,-88.9564 42.6176,-50.4706 28.4853,-28.2627"/>
<polygon fill="midnightblue" stroke="midnightblue" points="31.2783,-26.1324 22.9567,-19.5748 25.3727,-29.8905 31.2783,-26.1324"/>
</g>
<!-- Node2 -->
<g id="node3" class="node"><title>Node2</title>
<polygon fill="white" stroke="#bfbfbf" points="53.5,-0.5 53.5,-19.5 83.5,-19.5 83.5,-0.5 53.5,-0.5"/>
<text text-anchor="middle" x="68.5" y="-7.5" font-family="Helvetica,sans-Serif" font-size="10.00">set</text>
</g>
<!-- Node0&#45;&gt;Node2 -->
<g id="edge2" class="edge"><title>Node0&#45;&gt;Node2</title>
<path fill="none" stroke="midnightblue" d="M90.2648,-112.29C85.3409,-89.3749 77.2769,-51.8464 72.4695,-29.4732"/>
<polygon fill="midnightblue" stroke="midnightblue" points="75.8653,-28.6163 70.3425,-19.5748 69.0215,-30.087 75.8653,-28.6163"/>
</g>
<!-- Node3 -->
<g id="node4" class="node"><title>Node3</title>
<polygon fill="white" stroke="#bfbfbf" points="101.5,-0.5 101.5,-19.5 141.5,-19.5 141.5,-0.5 101.5,-0.5"/>
<text text-anchor="middle" x="121.5" y="-7.5" font-family="Helvetica,sans-Serif" font-size="10.00">limits</text>
</g>
<!-- Node0&#45;&gt;Node3 -->
<g id="edge3" class="edge"><title>Node0&#45;&gt;Node3</title>
<path fill="none" stroke="midnightblue" d="M98.8981,-112.29C104.011,-89.3749 112.386,-51.8464 117.378,-29.4732"/>
<polygon fill="midnightblue" stroke="midnightblue" points="120.825,-30.097 119.587,-19.5748 113.993,-28.5725 120.825,-30.097"/>
</g>
<!-- Node4 -->
<g id="node5" class="node"><title>Node4</title>
<g id="a_node5"><a xlink:href="hyper__graph_8h.html" target="_top" xlink:title="hyper_graph.h">
<polygon fill="white" stroke="black" points="169.5,-56.5 169.5,-75.5 247.5,-75.5 247.5,-56.5 169.5,-56.5"/>
<text text-anchor="middle" x="208.5" y="-63.5" font-family="Helvetica,sans-Serif" font-size="10.00">hyper_graph.h</text>
</a>
</g>
</g>
<!-- Node0&#45;&gt;Node4 -->
<g id="edge4" class="edge"><title>Node0&#45;&gt;Node4</title>
<path fill="none" stroke="midnightblue" d="M128.704,-112.498C146.686,-102.245 168.293,-89.925 184.485,-80.6927"/>
<polygon fill="midnightblue" stroke="midnightblue" points="186.371,-83.6462 193.325,-75.6525 182.904,-77.5652 186.371,-83.6462"/>
</g>
<!-- Node4&#45;&gt;Node1 -->
<g id="edge5" class="edge"><title>Node4&#45;&gt;Node1</title>
<path fill="none" stroke="midnightblue" d="M175.367,-56.4701C144.146,-48.3088 95.856,-35.3691 45.0299,-20.037"/>
<polygon fill="midnightblue" stroke="midnightblue" points="45.7607,-16.6011 35.1751,-17.0434 43.726,-23.2989 45.7607,-16.6011"/>
</g>
<!-- Node4&#45;&gt;Node2 -->
<g id="edge6" class="edge"><title>Node4&#45;&gt;Node2</title>
<path fill="none" stroke="midnightblue" d="M186.317,-56.4435C160.996,-46.677 119.686,-30.743 93.3153,-20.5716"/>
<polygon fill="midnightblue" stroke="midnightblue" points="94.2655,-17.1868 83.6759,-16.8536 91.7463,-23.7179 94.2655,-17.1868"/>
</g>
<!-- Node4&#45;&gt;Node3 -->
<g id="edge10" class="edge"><title>Node4&#45;&gt;Node3</title>
<path fill="none" stroke="midnightblue" d="M194.522,-56.324C180.95,-47.9002 160.12,-34.9709 144.175,-25.0741"/>
<polygon fill="midnightblue" stroke="midnightblue" points="145.786,-21.9544 135.443,-19.6545 142.094,-27.9019 145.786,-21.9544"/>
</g>
<!-- Node5 -->
<g id="node6" class="node"><title>Node5</title>
<polygon fill="white" stroke="#bfbfbf" points="276,-0.5 276,-19.5 317,-19.5 317,-0.5 276,-0.5"/>
<text text-anchor="middle" x="296.5" y="-7.5" font-family="Helvetica,sans-Serif" font-size="10.00">bitset</text>
</g>
<!-- Node4&#45;&gt;Node5 -->
<g id="edge7" class="edge"><title>Node4&#45;&gt;Node5</title>
<path fill="none" stroke="midnightblue" d="M222.639,-56.324C236.366,-47.9002 257.436,-34.9709 273.564,-25.0741"/>
<polygon fill="midnightblue" stroke="midnightblue" points="275.704,-27.8678 282.396,-19.6545 272.043,-21.9016 275.704,-27.8678"/>
</g>
<!-- Node6 -->
<g id="node7" class="node"><title>Node6</title>
<polygon fill="white" stroke="#bfbfbf" points="335,-0.5 335,-19.5 384,-19.5 384,-0.5 335,-0.5"/>
<text text-anchor="middle" x="359.5" y="-7.5" font-family="Helvetica,sans-Serif" font-size="10.00">cassert</text>
</g>
<!-- Node4&#45;&gt;Node6 -->
<g id="edge8" class="edge"><title>Node4&#45;&gt;Node6</title>
<path fill="none" stroke="midnightblue" d="M232.426,-56.4435C257.719,-47.3986 297.802,-33.064 326.18,-22.9158"/>
<polygon fill="midnightblue" stroke="midnightblue" points="327.448,-26.1794 335.686,-19.5164 325.091,-19.5882 327.448,-26.1794"/>
</g>
<!-- Node7 -->
<g id="node8" class="node"><title>Node7</title>
<polygon fill="white" stroke="#bfbfbf" points="402.5,-0.5 402.5,-19.5 446.5,-19.5 446.5,-0.5 402.5,-0.5"/>
<text text-anchor="middle" x="424.5" y="-7.5" font-family="Helvetica,sans-Serif" font-size="10.00">vector</text>
</g>
<!-- Node4&#45;&gt;Node7 -->
<g id="edge9" class="edge"><title>Node4&#45;&gt;Node7</title>
<path fill="none" stroke="midnightblue" d="M245.828,-56.4284C281.232,-48.1859 336.14,-35.1123 392.406,-20.2105"/>
<polygon fill="midnightblue" stroke="midnightblue" points="393.42,-23.5627 402.182,-17.6065 391.618,-16.7986 393.42,-23.5627"/>
</g>
<!-- Node8 -->
<g id="node9" class="node"><title>Node8</title>
<polygon fill="white" stroke="#bfbfbf" points="465,-0.5 465,-19.5 514,-19.5 514,-0.5 465,-0.5"/>
<text text-anchor="middle" x="489.5" y="-7.5" font-family="Helvetica,sans-Serif" font-size="10.00">cstddef</text>
</g>
<!-- Node4&#45;&gt;Node8 -->
<g id="edge11" class="edge"><title>Node4&#45;&gt;Node8</title>
<path fill="none" stroke="midnightblue" d="M247.62,-58.8481C294.479,-51.2649 375.544,-37.4677 454.55,-20.0653"/>
<polygon fill="midnightblue" stroke="midnightblue" points="455.672,-23.4013 464.673,-17.8128 454.151,-16.5684 455.672,-23.4013"/>
</g>
<!-- Node9 -->
<g id="node10" class="node"><title>Node9</title>
<polygon fill="white" stroke="#bfbfbf" points="159.5,-0.5 159.5,-19.5 257.5,-19.5 257.5,-0.5 159.5,-0.5"/>
<text text-anchor="middle" x="208.5" y="-7.5" font-family="Helvetica,sans-Serif" font-size="10.00">tr1/unordered_map</text>
</g>
<!-- Node4&#45;&gt;Node9 -->
<g id="edge12" class="edge"><title>Node4&#45;&gt;Node9</title>
<path fill="none" stroke="midnightblue" d="M208.5,-56.083C208.5,-49.0059 208.5,-38.8611 208.5,-29.9865"/>
<polygon fill="midnightblue" stroke="midnightblue" points="212,-29.751 208.5,-19.7511 205,-29.7511 212,-29.751"/>
</g>
</g>
</svg>
