<?xml version="1.0" encoding="UTF-8" standalone="no"?>
<!DOCTYPE svg PUBLIC "-//W3C//DTD SVG 1.1//EN"
 "http://www.w3.org/Graphics/SVG/1.1/DTD/svg11.dtd">
<!-- Generated by graphviz version 2.38.0 (20140413.2041)
 -->
<!-- Title: /home/alejandro/Desarrollo eclipse/os1/Thirdparty/g2o/g2o/core/hyper_graph_action.h Pages: 1 -->
<svg width="483pt" height="150pt"
 viewBox="0.00 0.00 482.50 150.00" xmlns="http://www.w3.org/2000/svg" xmlns:xlink="http://www.w3.org/1999/xlink">
<g id="graph0" class="graph" transform="scale(1 1) rotate(0) translate(4 146)">
<title>/home/alejandro/Desarrollo eclipse/os1/Thirdparty/g2o/g2o/core/hyper_graph_action.h</title>
<polygon fill="white" stroke="none" points="-4,4 -4,-146 478.5,-146 478.5,4 -4,4"/>
<!-- Node20 -->
<g id="node1" class="node"><title>Node20</title>
<polygon fill="#bfbfbf" stroke="black" points="151,-89.5 151,-141.5 284,-141.5 284,-89.5 151,-89.5"/>
<text text-anchor="start" x="159" y="-129.5" font-family="Helvetica,sans-Serif" font-size="10.00">/home/alejandro/Desarrollo</text>
<text text-anchor="start" x="159" y="-118.5" font-family="Helvetica,sans-Serif" font-size="10.00"> eclipse/os1/Thirdparty</text>
<text text-anchor="start" x="159" y="-107.5" font-family="Helvetica,sans-Serif" font-size="10.00">/g2o/g2o/core/hyper_graph</text>
<text text-anchor="middle" x="217.5" y="-96.5" font-family="Helvetica,sans-Serif" font-size="10.00">_action.h</text>
</g>
<!-- Node21 -->
<g id="node2" class="node"><title>Node21</title>
<g id="a_node2"><a xlink:href="hyper__graph__action_8cpp.html" target="_top" xlink:title="/home/alejandro/Desarrollo\l eclipse/os1/Thirdparty\l/g2o/g2o/core/hyper_graph\l_action.cpp">
<polygon fill="white" stroke="black" points="0,-0.5 0,-52.5 133,-52.5 133,-0.5 0,-0.5"/>
<text text-anchor="start" x="8" y="-40.5" font-family="Helvetica,sans-Serif" font-size="10.00">/home/alejandro/Desarrollo</text>
<text text-anchor="start" x="8" y="-29.5" font-family="Helvetica,sans-Serif" font-size="10.00"> eclipse/os1/Thirdparty</text>
<text text-anchor="start" x="8" y="-18.5" font-family="Helvetica,sans-Serif" font-size="10.00">/g2o/g2o/core/hyper_graph</text>
<text text-anchor="middle" x="66.5" y="-7.5" font-family="Helvetica,sans-Serif" font-size="10.00">_action.cpp</text>
</a>
</g>
</g>
<!-- Node20&#45;&gt;Node21 -->
<g id="edge1" class="edge"><title>Node20&#45;&gt;Node21</title>
<path fill="none" stroke="midnightblue" d="M164.686,-84.0705C146.838,-73.7877 127.127,-62.4307 110.077,-52.6075"/>
<polygon fill="midnightblue" stroke="midnightblue" points="163.413,-87.3763 173.825,-89.336 166.907,-81.311 163.413,-87.3763"/>
</g>
<!-- Node22 -->
<g id="node3" class="node"><title>Node22</title>
<g id="a_node3"><a xlink:href="optimizable__graph_8cpp.html" target="_top" xlink:title="/home/alejandro/Desarrollo\l eclipse/os1/Thirdparty\l/g2o/g2o/core/optimizable\l_graph.cpp">
<polygon fill="white" stroke="black" points="151,-0.5 151,-52.5 284,-52.5 284,-0.5 151,-0.5"/>
<text text-anchor="start" x="159" y="-40.5" font-family="Helvetica,sans-Serif" font-size="10.00">/home/alejandro/Desarrollo</text>
<text text-anchor="start" x="159" y="-29.5" font-family="Helvetica,sans-Serif" font-size="10.00"> eclipse/os1/Thirdparty</text>
<text text-anchor="start" x="159" y="-18.5" font-family="Helvetica,sans-Serif" font-size="10.00">/g2o/g2o/core/optimizable</text>
<text text-anchor="middle" x="217.5" y="-7.5" font-family="Helvetica,sans-Serif" font-size="10.00">_graph.cpp</text>
</a>
</g>
</g>
<!-- Node20&#45;&gt;Node22 -->
<g id="edge2" class="edge"><title>Node20&#45;&gt;Node22</title>
<path fill="none" stroke="midnightblue" d="M217.5,-79.1908C217.5,-70.2824 217.5,-60.8986 217.5,-52.6075"/>
<polygon fill="midnightblue" stroke="midnightblue" points="214,-79.336 217.5,-89.336 221,-79.336 214,-79.336"/>
</g>
<!-- Node23 -->
<g id="node4" class="node"><title>Node23</title>
<g id="a_node4"><a xlink:href="sparse__optimizer_8cpp.html" target="_top" xlink:title="/home/alejandro/Desarrollo\l eclipse/os1/Thirdparty\l/g2o/g2o/core/sparse_optimizer.cpp">
<polygon fill="white" stroke="black" points="302.5,-6 302.5,-47 474.5,-47 474.5,-6 302.5,-6"/>
<text text-anchor="start" x="310.5" y="-35" font-family="Helvetica,sans-Serif" font-size="10.00">/home/alejandro/Desarrollo</text>
<text text-anchor="start" x="310.5" y="-24" font-family="Helvetica,sans-Serif" font-size="10.00"> eclipse/os1/Thirdparty</text>
<text text-anchor="middle" x="388.5" y="-13" font-family="Helvetica,sans-Serif" font-size="10.00">/g2o/g2o/core/sparse_optimizer.cpp</text>
</a>
</g>
</g>
<!-- Node20&#45;&gt;Node23 -->
<g id="edge3" class="edge"><title>Node20&#45;&gt;Node23</title>
<path fill="none" stroke="midnightblue" d="M276.142,-84.6648C300.563,-72.2399 328.238,-58.1596 350.011,-47.0821"/>
<polygon fill="midnightblue" stroke="midnightblue" points="274.286,-81.6819 266.96,-89.336 277.46,-87.9208 274.286,-81.6819"/>
</g>
</g>
</svg>
