<?xml version="1.0" encoding="UTF-8" standalone="no"?>
<!DOCTYPE svg PUBLIC "-//W3C//DTD SVG 1.1//EN"
 "http://www.w3.org/Graphics/SVG/1.1/DTD/svg11.dtd">
<!-- Generated by graphviz version 2.38.0 (20140413.2041)
 -->
<!-- Title: Graphical Class Hierarchy Pages: 1 -->
<svg width="354pt" height="116pt"
 viewBox="0.00 0.00 354.00 116.00" xmlns="http://www.w3.org/2000/svg" xmlns:xlink="http://www.w3.org/1999/xlink">
<g id="graph0" class="graph" transform="scale(1 1) rotate(0) translate(4 112)">
<title>Graphical Class Hierarchy</title>
<polygon fill="white" stroke="none" points="-4,4 -4,-112 350,-112 350,4 -4,4"/>
<!-- Node0 -->
<g id="node1" class="node"><title>Node0</title>
<g id="a_node1"><a xlink:href="classg2o_1_1_hyper_graph_element_action.html" target="_top" xlink:title="Abstract action that operates on a graph entity. ">
<polygon fill="white" stroke="black" points="0,-44.5 0,-63.5 155,-63.5 155,-44.5 0,-44.5"/>
<text text-anchor="middle" x="77.5" y="-51.5" font-family="Helvetica,sans-Serif" font-size="10.00">g2o::HyperGraphElementAction</text>
</a>
</g>
</g>
<!-- Node1 -->
<g id="node2" class="node"><title>Node1</title>
<g id="a_node2"><a xlink:href="classg2o_1_1_draw_action.html" target="_top" xlink:title="draw actions ">
<polygon fill="white" stroke="black" points="224,-88.5 224,-107.5 313,-107.5 313,-88.5 224,-88.5"/>
<text text-anchor="middle" x="268.5" y="-95.5" font-family="Helvetica,sans-Serif" font-size="10.00">g2o::DrawAction</text>
</a>
</g>
</g>
<!-- Node0&#45;&gt;Node1 -->
<g id="edge1" class="edge"><title>Node0&#45;&gt;Node1</title>
<path fill="none" stroke="midnightblue" d="M129.515,-65.8764C159.96,-72.9642 198.106,-81.8448 226.57,-88.4713"/>
<polygon fill="midnightblue" stroke="midnightblue" points="130.043,-62.406 119.51,-63.5473 128.456,-69.2237 130.043,-62.406"/>
</g>
<!-- Node2 -->
<g id="node3" class="node"><title>Node2</title>
<g id="a_node3"><a xlink:href="classg2o_1_1_hyper_graph_element_action_collection.html" target="_top" xlink:title="collection of actions ">
<polygon fill="white" stroke="black" points="191,-39 191,-69 346,-69 346,-39 191,-39"/>
<text text-anchor="start" x="199" y="-57" font-family="Helvetica,sans-Serif" font-size="10.00">g2o::HyperGraphElementAction</text>
<text text-anchor="middle" x="268.5" y="-46" font-family="Helvetica,sans-Serif" font-size="10.00">Collection</text>
</a>
</g>
</g>
<!-- Node0&#45;&gt;Node2 -->
<g id="edge2" class="edge"><title>Node0&#45;&gt;Node2</title>
<path fill="none" stroke="midnightblue" d="M165.104,-54C173.674,-54 182.33,-54 190.79,-54"/>
<polygon fill="midnightblue" stroke="midnightblue" points="165.101,-50.5001 155.101,-54 165.101,-57.5001 165.101,-50.5001"/>
</g>
<!-- Node3 -->
<g id="node4" class="node"><title>Node3</title>
<g id="a_node4"><a xlink:href="classg2o_1_1_write_gnuplot_action.html" target="_top" xlink:title="brief write into gnuplot ">
<polygon fill="white" stroke="black" points="207,-0.5 207,-19.5 330,-19.5 330,-0.5 207,-0.5"/>
<text text-anchor="middle" x="268.5" y="-7.5" font-family="Helvetica,sans-Serif" font-size="10.00">g2o::WriteGnuplotAction</text>
</a>
</g>
</g>
<!-- Node0&#45;&gt;Node3 -->
<g id="edge3" class="edge"><title>Node0&#45;&gt;Node3</title>
<path fill="none" stroke="midnightblue" d="M129.515,-42.1236C159.96,-35.0358 198.106,-26.1552 226.57,-19.5287"/>
<polygon fill="midnightblue" stroke="midnightblue" points="128.456,-38.7763 119.51,-44.4527 130.043,-45.594 128.456,-38.7763"/>
</g>
</g>
</svg>
