<?xml version="1.0" encoding="UTF-8" standalone="no"?>
<!DOCTYPE svg PUBLIC "-//W3C//DTD SVG 1.1//EN"
 "http://www.w3.org/Graphics/SVG/1.1/DTD/svg11.dtd">
<!-- Generated by graphviz version 2.38.0 (20140413.2041)
 -->
<!-- Title: Graphical Class Hierarchy Pages: 1 -->
<svg width="482pt" height="137pt"
 viewBox="0.00 0.00 482.00 137.00" xmlns="http://www.w3.org/2000/svg" xmlns:xlink="http://www.w3.org/1999/xlink">
<g id="graph0" class="graph" transform="scale(1 1) rotate(0) translate(4 133)">
<title>Graphical Class Hierarchy</title>
<polygon fill="white" stroke="none" points="-4,4 -4,-133 478,-133 478,4 -4,4"/>
<!-- Node0 -->
<g id="node1" class="node"><title>Node0</title>
<g id="a_node1"><a xlink:href="classg2o_1_1_optimization_algorithm.html" target="_top" xlink:title="Generic interface for a non&#45;linear solver operating on a graph. ">
<polygon fill="white" stroke="black" points="0,-55 0,-74 134,-74 134,-55 0,-55"/>
<text text-anchor="middle" x="67" y="-62" font-family="Helvetica,sans-Serif" font-size="10.00">g2o::OptimizationAlgorithm</text>
</a>
</g>
</g>
<!-- Node1 -->
<g id="node2" class="node"><title>Node1</title>
<g id="a_node2"><a xlink:href="classg2o_1_1_optimization_algorithm_with_hessian.html" target="_top" xlink:title="Base for solvers operating on the approximated Hessian, e.g., Gauss&#45;Newton, Levenberg. ">
<polygon fill="white" stroke="black" points="170,-49.5 170,-79.5 304,-79.5 304,-49.5 170,-49.5"/>
<text text-anchor="start" x="178" y="-67.5" font-family="Helvetica,sans-Serif" font-size="10.00">g2o::OptimizationAlgorithm</text>
<text text-anchor="middle" x="237" y="-56.5" font-family="Helvetica,sans-Serif" font-size="10.00">WithHessian</text>
</a>
</g>
</g>
<!-- Node0&#45;&gt;Node1 -->
<g id="edge1" class="edge"><title>Node0&#45;&gt;Node1</title>
<path fill="none" stroke="midnightblue" d="M144.595,-64.5C153.013,-64.5 161.532,-64.5 169.809,-64.5"/>
<polygon fill="midnightblue" stroke="midnightblue" points="144.398,-61.0001 134.398,-64.5 144.398,-68.0001 144.398,-61.0001"/>
</g>
<!-- Node2 -->
<g id="node3" class="node"><title>Node2</title>
<g id="a_node3"><a xlink:href="classg2o_1_1_optimization_algorithm_dogleg.html" target="_top" xlink:title="Implementation of Powell&#39;s Dogleg Algorithm. ">
<polygon fill="white" stroke="black" points="340,-98.5 340,-128.5 474,-128.5 474,-98.5 340,-98.5"/>
<text text-anchor="start" x="348" y="-116.5" font-family="Helvetica,sans-Serif" font-size="10.00">g2o::OptimizationAlgorithm</text>
<text text-anchor="middle" x="407" y="-105.5" font-family="Helvetica,sans-Serif" font-size="10.00">Dogleg</text>
</a>
</g>
</g>
<!-- Node1&#45;&gt;Node2 -->
<g id="edge2" class="edge"><title>Node1&#45;&gt;Node2</title>
<path fill="none" stroke="midnightblue" d="M299.601,-82.467C317.601,-87.717 337.082,-93.3989 354.395,-98.4484"/>
<polygon fill="midnightblue" stroke="midnightblue" points="300.356,-79.0415 289.776,-79.6014 298.396,-85.7615 300.356,-79.0415"/>
</g>
<!-- Node3 -->
<g id="node4" class="node"><title>Node3</title>
<g id="a_node4"><a xlink:href="classg2o_1_1_optimization_algorithm_gauss_newton.html" target="_top" xlink:title="Implementation of the Gauss Newton Algorithm. ">
<polygon fill="white" stroke="black" points="340,-49.5 340,-79.5 474,-79.5 474,-49.5 340,-49.5"/>
<text text-anchor="start" x="348" y="-67.5" font-family="Helvetica,sans-Serif" font-size="10.00">g2o::OptimizationAlgorithm</text>
<text text-anchor="middle" x="407" y="-56.5" font-family="Helvetica,sans-Serif" font-size="10.00">GaussNewton</text>
</a>
</g>
</g>
<!-- Node1&#45;&gt;Node3 -->
<g id="edge3" class="edge"><title>Node1&#45;&gt;Node3</title>
<path fill="none" stroke="midnightblue" d="M314.595,-64.5C323.013,-64.5 331.532,-64.5 339.809,-64.5"/>
<polygon fill="midnightblue" stroke="midnightblue" points="314.398,-61.0001 304.398,-64.5 314.398,-68.0001 314.398,-61.0001"/>
</g>
<!-- Node4 -->
<g id="node5" class="node"><title>Node4</title>
<g id="a_node5"><a xlink:href="classg2o_1_1_optimization_algorithm_levenberg.html" target="_top" xlink:title="Implementation of the Levenberg Algorithm. ">
<polygon fill="white" stroke="black" points="340,-0.5 340,-30.5 474,-30.5 474,-0.5 340,-0.5"/>
<text text-anchor="start" x="348" y="-18.5" font-family="Helvetica,sans-Serif" font-size="10.00">g2o::OptimizationAlgorithm</text>
<text text-anchor="middle" x="407" y="-7.5" font-family="Helvetica,sans-Serif" font-size="10.00">Levenberg</text>
</a>
</g>
</g>
<!-- Node1&#45;&gt;Node4 -->
<g id="edge4" class="edge"><title>Node1&#45;&gt;Node4</title>
<path fill="none" stroke="midnightblue" d="M299.601,-46.533C317.601,-41.283 337.082,-35.6011 354.395,-30.5516"/>
<polygon fill="midnightblue" stroke="midnightblue" points="298.396,-43.2385 289.776,-49.3986 300.356,-49.9585 298.396,-43.2385"/>
</g>
</g>
</svg>
