<?xml version="1.0" encoding="UTF-8" standalone="no"?>
<!DOCTYPE svg PUBLIC "-//W3C//DTD SVG 1.1//EN"
 "http://www.w3.org/Graphics/SVG/1.1/DTD/svg11.dtd">
<!-- Generated by graphviz version 2.40.1 (20161225.0304)
 -->
<!-- Title: Graphical Class Hierarchy Pages: 1 -->
<svg width="482pt" height="137pt"
 viewBox="0.00 0.00 482.00 137.00" xmlns="http://www.w3.org/2000/svg" xmlns:xlink="http://www.w3.org/1999/xlink">
<g id="graph0" class="graph" transform="scale(1 1) rotate(0) translate(4 133)">
<title>Graphical Class Hierarchy</title>
<polygon fill="#ffffff" stroke="transparent" points="-4,4 -4,-133 478,-133 478,4 -4,4"/>
<!-- Node0 -->
<g id="node1" class="node">
<title>Node0</title>
<g id="a_node1"><a xlink:href="da/d0c/classg2o_1_1_optimization_algorithm.html" target="_top" xlink:title="Generic interface for a non&#45;linear solver operating on a graph. ">
<polygon fill="#ffffff" stroke="#000000" points="0,-55 0,-74 134,-74 134,-55 0,-55"/>
<text text-anchor="middle" x="67" y="-62" font-family="Helvetica,sans-Serif" font-size="10.00" fill="#000000">g2o::OptimizationAlgorithm</text>
</a>
</g>
</g>
<!-- Node1 -->
<g id="node2" class="node">
<title>Node1</title>
<g id="a_node2"><a xlink:href="d9/dc9/classg2o_1_1_optimization_algorithm_with_hessian.html" target="_top" xlink:title="Base for solvers operating on the approximated Hessian, e.g., Gauss&#45;Newton, Levenberg. ">
<polygon fill="#ffffff" stroke="#000000" points="170,-49.5 170,-79.5 304,-79.5 304,-49.5 170,-49.5"/>
<text text-anchor="start" x="178" y="-67.5" font-family="Helvetica,sans-Serif" font-size="10.00" fill="#000000">g2o::OptimizationAlgorithm</text>
<text text-anchor="middle" x="237" y="-56.5" font-family="Helvetica,sans-Serif" font-size="10.00" fill="#000000">WithHessian</text>
</a>
</g>
</g>
<!-- Node0&#45;&gt;Node1 -->
<g id="edge1" class="edge">
<title>Node0&#45;&gt;Node1</title>
<path fill="none" stroke="#191970" d="M144.4246,-64.5C152.8759,-64.5 161.4279,-64.5 169.7428,-64.5"/>
<polygon fill="#191970" stroke="#191970" points="144.1885,-61.0001 134.1885,-64.5 144.1885,-68.0001 144.1885,-61.0001"/>
</g>
<!-- Node2 -->
<g id="node3" class="node">
<title>Node2</title>
<g id="a_node3"><a xlink:href="d8/dcf/classg2o_1_1_optimization_algorithm_dogleg.html" target="_top" xlink:title="Implementation of Powell&#39;s Dogleg Algorithm. ">
<polygon fill="#ffffff" stroke="#000000" points="340,-98.5 340,-128.5 474,-128.5 474,-98.5 340,-98.5"/>
<text text-anchor="start" x="348" y="-116.5" font-family="Helvetica,sans-Serif" font-size="10.00" fill="#000000">g2o::OptimizationAlgorithm</text>
<text text-anchor="middle" x="407" y="-105.5" font-family="Helvetica,sans-Serif" font-size="10.00" fill="#000000">Dogleg</text>
</a>
</g>
</g>
<!-- Node1&#45;&gt;Node2 -->
<g id="edge2" class="edge">
<title>Node1&#45;&gt;Node2</title>
<path fill="none" stroke="#191970" d="M299.0815,-82.3941C317.3664,-87.6644 337.1804,-93.3755 354.7802,-98.4484"/>
<polygon fill="#191970" stroke="#191970" points="299.971,-79.008 289.3928,-79.6014 298.0322,-85.7342 299.971,-79.008"/>
</g>
<!-- Node3 -->
<g id="node4" class="node">
<title>Node3</title>
<g id="a_node4"><a xlink:href="d8/dc0/classg2o_1_1_optimization_algorithm_gauss_newton.html" target="_top" xlink:title="Implementation of the Gauss Newton Algorithm. ">
<polygon fill="#ffffff" stroke="#000000" points="340,-49.5 340,-79.5 474,-79.5 474,-49.5 340,-49.5"/>
<text text-anchor="start" x="348" y="-67.5" font-family="Helvetica,sans-Serif" font-size="10.00" fill="#000000">g2o::OptimizationAlgorithm</text>
<text text-anchor="middle" x="407" y="-56.5" font-family="Helvetica,sans-Serif" font-size="10.00" fill="#000000">GaussNewton</text>
</a>
</g>
</g>
<!-- Node1&#45;&gt;Node3 -->
<g id="edge3" class="edge">
<title>Node1&#45;&gt;Node3</title>
<path fill="none" stroke="#191970" d="M314.4246,-64.5C322.8759,-64.5 331.4279,-64.5 339.7428,-64.5"/>
<polygon fill="#191970" stroke="#191970" points="314.1885,-61.0001 304.1885,-64.5 314.1885,-68.0001 314.1885,-61.0001"/>
</g>
<!-- Node4 -->
<g id="node5" class="node">
<title>Node4</title>
<g id="a_node5"><a xlink:href="dd/d66/classg2o_1_1_optimization_algorithm_levenberg.html" target="_top" xlink:title="Implementation of the Levenberg Algorithm. ">
<polygon fill="#ffffff" stroke="#000000" points="340,-.5 340,-30.5 474,-30.5 474,-.5 340,-.5"/>
<text text-anchor="start" x="348" y="-18.5" font-family="Helvetica,sans-Serif" font-size="10.00" fill="#000000">g2o::OptimizationAlgorithm</text>
<text text-anchor="middle" x="407" y="-7.5" font-family="Helvetica,sans-Serif" font-size="10.00" fill="#000000">Levenberg</text>
</a>
</g>
</g>
<!-- Node1&#45;&gt;Node4 -->
<g id="edge4" class="edge">
<title>Node1&#45;&gt;Node4</title>
<path fill="none" stroke="#191970" d="M299.0815,-46.6059C317.3664,-41.3356 337.1804,-35.6245 354.7802,-30.5516"/>
<polygon fill="#191970" stroke="#191970" points="298.0322,-43.2658 289.3928,-49.3986 299.971,-49.992 298.0322,-43.2658"/>
</g>
</g>
</svg>
