<?xml version="1.0" encoding="UTF-8" standalone="no"?>
<!DOCTYPE svg PUBLIC "-//W3C//DTD SVG 1.1//EN"
 "http://www.w3.org/Graphics/SVG/1.1/DTD/svg11.dtd">
<!-- Generated by graphviz version 2.40.1 (20161225.0304)
 -->
<!-- Title: Graphical Class Hierarchy Pages: 1 -->
<svg width="1079pt" height="651pt"
 viewBox="0.00 0.00 1079.00 651.00" xmlns="http://www.w3.org/2000/svg" xmlns:xlink="http://www.w3.org/1999/xlink">
<g id="graph0" class="graph" transform="scale(1 1) rotate(0) translate(4 647)">
<title>Graphical Class Hierarchy</title>
<polygon fill="#ffffff" stroke="transparent" points="-4,4 -4,-647 1075,-647 1075,4 -4,4"/>
<!-- Node0 -->
<g id="node1" class="node">
<title>Node0</title>
<g id="a_node1"><a xlink:href="de/d88/structg2o_1_1_hyper_graph_1_1_hyper_graph_element.html" target="_top" xlink:title="base hyper graph element, specialized in vertex and edge ">
<polygon fill="#ffffff" stroke="#000000" points="0,-186 0,-216 149,-216 149,-186 0,-186"/>
<text text-anchor="start" x="8" y="-204" font-family="Helvetica,sans-Serif" font-size="10.00" fill="#000000">g2o::HyperGraph::HyperGraph</text>
<text text-anchor="middle" x="74.5" y="-193" font-family="Helvetica,sans-Serif" font-size="10.00" fill="#000000">Element</text>
</a>
</g>
</g>
<!-- Node1 -->
<g id="node2" class="node">
<title>Node1</title>
<g id="a_node2"><a xlink:href="dc/def/classg2o_1_1_cache.html" target="_top" xlink:title="g2o::Cache">
<polygon fill="#ffffff" stroke="#000000" points="214,-267.5 214,-286.5 281,-286.5 281,-267.5 214,-267.5"/>
<text text-anchor="middle" x="247.5" y="-274.5" font-family="Helvetica,sans-Serif" font-size="10.00" fill="#000000">g2o::Cache</text>
</a>
</g>
</g>
<!-- Node0&#45;&gt;Node1 -->
<g id="edge1" class="edge">
<title>Node0&#45;&gt;Node1</title>
<path fill="none" stroke="#191970" d="M109.6615,-221.2163C131.0003,-232.9559 159.041,-247.4603 185,-258 194.1419,-261.7117 204.2885,-265.095 213.7011,-267.9444"/>
<polygon fill="#191970" stroke="#191970" points="111.0975,-218.0101 100.6571,-216.208 107.695,-224.1275 111.0975,-218.0101"/>
</g>
<!-- Node2 -->
<g id="node3" class="node">
<title>Node2</title>
<g id="a_node3"><a xlink:href="d9/d46/classg2o_1_1_hyper_graph_1_1_edge.html" target="_top" xlink:title="Abstract Edge class. ">
<polygon fill="#ffffff" stroke="#000000" points="188,-229.5 188,-248.5 307,-248.5 307,-229.5 188,-229.5"/>
<text text-anchor="middle" x="247.5" y="-236.5" font-family="Helvetica,sans-Serif" font-size="10.00" fill="#000000">g2o::HyperGraph::Edge</text>
</a>
</g>
</g>
<!-- Node0&#45;&gt;Node2 -->
<g id="edge2" class="edge">
<title>Node0&#45;&gt;Node2</title>
<path fill="none" stroke="#191970" d="M152.6566,-218.1673C170.3867,-222.0618 188.5888,-226.06 204.2458,-229.4991"/>
<polygon fill="#191970" stroke="#191970" points="153.3923,-214.7456 142.8742,-216.0186 151.8904,-221.5826 153.3923,-214.7456"/>
</g>
<!-- Node24 -->
<g id="node25" class="node">
<title>Node24</title>
<g id="a_node25"><a xlink:href="d4/d3e/classg2o_1_1_hyper_graph_1_1_vertex.html" target="_top" xlink:title="abstract Vertex, your types must derive from that one ">
<polygon fill="#ffffff" stroke="#000000" points="185,-191.5 185,-210.5 310,-210.5 310,-191.5 185,-191.5"/>
<text text-anchor="middle" x="247.5" y="-198.5" font-family="Helvetica,sans-Serif" font-size="10.00" fill="#000000">g2o::HyperGraph::Vertex</text>
</a>
</g>
</g>
<!-- Node0&#45;&gt;Node24 -->
<g id="edge24" class="edge">
<title>Node0&#45;&gt;Node24</title>
<path fill="none" stroke="#191970" d="M159.2056,-201C167.8214,-201 176.461,-201 184.7822,-201"/>
<polygon fill="#191970" stroke="#191970" points="159.1228,-197.5001 149.1228,-201 159.1228,-204.5001 159.1228,-197.5001"/>
</g>
<!-- Node33 -->
<g id="node34" class="node">
<title>Node33</title>
<g id="a_node34"><a xlink:href="df/dd2/classg2o_1_1_optimizable_graph_1_1_data.html" target="_top" xlink:title="data packet for a vertex. ">
<polygon fill="#ffffff" stroke="#000000" points="189.5,-142 189.5,-172 305.5,-172 305.5,-142 189.5,-142"/>
<text text-anchor="start" x="197.5" y="-160" font-family="Helvetica,sans-Serif" font-size="10.00" fill="#000000">g2o::OptimizableGraph</text>
<text text-anchor="middle" x="247.5" y="-149" font-family="Helvetica,sans-Serif" font-size="10.00" fill="#000000">::Data</text>
</a>
</g>
</g>
<!-- Node0&#45;&gt;Node33 -->
<g id="edge33" class="edge">
<title>Node0&#45;&gt;Node33</title>
<path fill="none" stroke="#191970" d="M143.4125,-183.4731C158.6137,-179.6069 174.5715,-175.5483 189.2993,-171.8025"/>
<polygon fill="#191970" stroke="#191970" points="142.3816,-180.1238 133.5529,-185.9808 144.1071,-186.9078 142.3816,-180.1238"/>
</g>
<!-- Node34 -->
<g id="node35" class="node">
<title>Node34</title>
<g id="a_node35"><a xlink:href="d9/df4/classg2o_1_1_parameter.html" target="_top" xlink:title="g2o::Parameter">
<polygon fill="#ffffff" stroke="#000000" points="206,-103.5 206,-122.5 289,-122.5 289,-103.5 206,-103.5"/>
<text text-anchor="middle" x="247.5" y="-110.5" font-family="Helvetica,sans-Serif" font-size="10.00" fill="#000000">g2o::Parameter</text>
</a>
</g>
</g>
<!-- Node0&#45;&gt;Node34 -->
<g id="edge34" class="edge">
<title>Node0&#45;&gt;Node34</title>
<path fill="none" stroke="#191970" d="M103.5554,-179.8871C125.1775,-164.9286 155.8651,-145.2442 185,-132 192.9497,-128.3862 201.7715,-125.2274 210.2216,-122.5768"/>
<polygon fill="#191970" stroke="#191970" points="101.3411,-177.1651 95.1623,-185.7717 105.3596,-182.8967 101.3411,-177.1651"/>
</g>
<!-- Node3 -->
<g id="node4" class="node">
<title>Node3</title>
<g id="a_node4"><a xlink:href="d9/dc5/classg2o_1_1_optimizable_graph_1_1_edge.html" target="_top" xlink:title="g2o::OptimizableGraph\l::Edge">
<polygon fill="#ffffff" stroke="#000000" points="346,-349 346,-379 462,-379 462,-349 346,-349"/>
<text text-anchor="start" x="354" y="-367" font-family="Helvetica,sans-Serif" font-size="10.00" fill="#000000">g2o::OptimizableGraph</text>
<text text-anchor="middle" x="404" y="-356" font-family="Helvetica,sans-Serif" font-size="10.00" fill="#000000">::Edge</text>
</a>
</g>
</g>
<!-- Node2&#45;&gt;Node3 -->
<g id="edge3" class="edge">
<title>Node2&#45;&gt;Node3</title>
<path fill="none" stroke="#191970" d="M299.5185,-252.321C303.1751,-254.0051 306.7109,-255.8907 310,-258 347.8898,-282.2982 379.6432,-326.0237 394.6716,-348.9852"/>
<polygon fill="#191970" stroke="#191970" points="300.8334,-249.0775 290.2523,-248.5378 298.1874,-255.5581 300.8334,-249.0775"/>
</g>
<!-- Node4 -->
<g id="node5" class="node">
<title>Node4</title>
<g id="a_node5"><a xlink:href="dc/d29/classg2o_1_1_base_edge.html" target="_top" xlink:title="g2o::BaseEdge\&lt; D, Sim3 \&gt;">
<polygon fill="#ffffff" stroke="#000000" points="506.5,-570.5 506.5,-589.5 643.5,-589.5 643.5,-570.5 506.5,-570.5"/>
<text text-anchor="middle" x="575" y="-577.5" font-family="Helvetica,sans-Serif" font-size="10.00" fill="#000000">g2o::BaseEdge&lt; D, Sim3 &gt;</text>
</a>
</g>
</g>
<!-- Node3&#45;&gt;Node4 -->
<g id="edge4" class="edge">
<title>Node3&#45;&gt;Node4</title>
<path fill="none" stroke="#191970" d="M420.1675,-387.5707C438.4018,-413.8195 469.2678,-457.2585 498,-493 521.3794,-522.0829 551.1801,-554.5661 565.9119,-570.3471"/>
<polygon fill="#191970" stroke="#191970" points="422.8364,-385.2766 414.2688,-379.0438 417.0796,-389.259 422.8364,-385.2766"/>
</g>
<!-- Node7 -->
<g id="node8" class="node">
<title>Node7</title>
<g id="a_node8"><a xlink:href="dc/d29/classg2o_1_1_base_edge.html" target="_top" xlink:title="g2o::BaseEdge\&lt; D, Vector2d \&gt;">
<polygon fill="#ffffff" stroke="#000000" points="498,-464.5 498,-483.5 652,-483.5 652,-464.5 498,-464.5"/>
<text text-anchor="middle" x="575" y="-471.5" font-family="Helvetica,sans-Serif" font-size="10.00" fill="#000000">g2o::BaseEdge&lt; D, Vector2d &gt;</text>
</a>
</g>
</g>
<!-- Node3&#45;&gt;Node7 -->
<g id="edge7" class="edge">
<title>Node3&#45;&gt;Node7</title>
<path fill="none" stroke="#191970" d="M435.8502,-384.4884C472.8262,-408.2742 532.2659,-446.5102 559.9315,-464.3068"/>
<polygon fill="#191970" stroke="#191970" points="437.722,-381.5309 427.4183,-379.0644 433.9349,-387.4181 437.722,-381.5309"/>
</g>
<!-- Node15 -->
<g id="node16" class="node">
<title>Node15</title>
<g id="a_node16"><a xlink:href="dc/d29/classg2o_1_1_base_edge.html" target="_top" xlink:title="g2o::BaseEdge\&lt; D, Vector3d \&gt;">
<polygon fill="#ffffff" stroke="#000000" points="498,-354.5 498,-373.5 652,-373.5 652,-354.5 498,-354.5"/>
<text text-anchor="middle" x="575" y="-361.5" font-family="Helvetica,sans-Serif" font-size="10.00" fill="#000000">g2o::BaseEdge&lt; D, Vector3d &gt;</text>
</a>
</g>
</g>
<!-- Node3&#45;&gt;Node15 -->
<g id="edge15" class="edge">
<title>Node3&#45;&gt;Node15</title>
<path fill="none" stroke="#191970" d="M472.4286,-364C480.7854,-364 489.369,-364 497.8424,-364"/>
<polygon fill="#191970" stroke="#191970" points="472.3703,-360.5001 462.3702,-364 472.3702,-367.5001 472.3703,-360.5001"/>
</g>
<!-- Node20 -->
<g id="node21" class="node">
<title>Node20</title>
<g id="a_node21"><a xlink:href="dc/d29/classg2o_1_1_base_edge.html" target="_top" xlink:title="g2o::BaseEdge\&lt; D, E \&gt;">
<polygon fill="#ffffff" stroke="#000000" points="514,-254.5 514,-273.5 636,-273.5 636,-254.5 514,-254.5"/>
<text text-anchor="middle" x="575" y="-261.5" font-family="Helvetica,sans-Serif" font-size="10.00" fill="#000000">g2o::BaseEdge&lt; D, E &gt;</text>
</a>
</g>
</g>
<!-- Node3&#45;&gt;Node20 -->
<g id="edge20" class="edge">
<title>Node3&#45;&gt;Node20</title>
<path fill="none" stroke="#191970" d="M438.8103,-343.6431C475.3276,-322.288 531.1527,-289.6417 558.6014,-273.5898"/>
<polygon fill="#191970" stroke="#191970" points="436.8367,-340.7427 429.9712,-348.8122 440.3704,-346.7853 436.8367,-340.7427"/>
</g>
<!-- Node5 -->
<g id="node6" class="node">
<title>Node5</title>
<g id="a_node6"><a xlink:href="de/de9/classg2o_1_1_base_binary_edge.html" target="_top" xlink:title="g2o::BaseBinaryEdge\l\&lt; 7, Sim3, VertexSim3Expmap,\l VertexSim3Expmap \&gt;">
<polygon fill="#ffffff" stroke="#000000" points="697.5,-601.5 697.5,-642.5 852.5,-642.5 852.5,-601.5 697.5,-601.5"/>
<text text-anchor="start" x="705.5" y="-630.5" font-family="Helvetica,sans-Serif" font-size="10.00" fill="#000000">g2o::BaseBinaryEdge</text>
<text text-anchor="start" x="705.5" y="-619.5" font-family="Helvetica,sans-Serif" font-size="10.00" fill="#000000">&lt; 7, Sim3, VertexSim3Expmap,</text>
<text text-anchor="middle" x="775" y="-608.5" font-family="Helvetica,sans-Serif" font-size="10.00" fill="#000000"> VertexSim3Expmap &gt;</text>
</a>
</g>
</g>
<!-- Node4&#45;&gt;Node5 -->
<g id="edge5" class="edge">
<title>Node4&#45;&gt;Node5</title>
<path fill="none" stroke="#191970" d="M630.262,-591.605C650.9553,-595.9506 674.8681,-600.9723 697.2207,-605.6663"/>
<polygon fill="#191970" stroke="#191970" points="630.889,-588.1604 620.3831,-589.5305 629.4503,-595.011 630.889,-588.1604"/>
</g>
<!-- Node6 -->
<g id="node7" class="node">
<title>Node6</title>
<g id="a_node7"><a xlink:href="d9/df6/classg2o_1_1_edge_sim3.html" target="_top" xlink:title="7D edge between two Vertex7 ">
<polygon fill="#ffffff" stroke="#000000" points="943,-612.5 943,-631.5 1026,-631.5 1026,-612.5 943,-612.5"/>
<text text-anchor="middle" x="984.5" y="-619.5" font-family="Helvetica,sans-Serif" font-size="10.00" fill="#000000">g2o::EdgeSim3</text>
</a>
</g>
</g>
<!-- Node5&#45;&gt;Node6 -->
<g id="edge6" class="edge">
<title>Node5&#45;&gt;Node6</title>
<path fill="none" stroke="#191970" d="M862.8263,-622C890.5178,-622 919.8302,-622 942.7444,-622"/>
<polygon fill="#191970" stroke="#191970" points="862.7124,-618.5001 852.7124,-622 862.7123,-625.5001 862.7124,-618.5001"/>
</g>
<!-- Node8 -->
<g id="node9" class="node">
<title>Node8</title>
<g id="a_node9"><a xlink:href="de/de9/classg2o_1_1_base_binary_edge.html" target="_top" xlink:title="g2o::BaseBinaryEdge\l\&lt; 2, Vector2d, VertexSBAPoint\lXYZ, VertexSE3Expmap \&gt;">
<polygon fill="#ffffff" stroke="#000000" points="698.5,-541.5 698.5,-582.5 851.5,-582.5 851.5,-541.5 698.5,-541.5"/>
<text text-anchor="start" x="706.5" y="-570.5" font-family="Helvetica,sans-Serif" font-size="10.00" fill="#000000">g2o::BaseBinaryEdge</text>
<text text-anchor="start" x="706.5" y="-559.5" font-family="Helvetica,sans-Serif" font-size="10.00" fill="#000000">&lt; 2, Vector2d, VertexSBAPoint</text>
<text text-anchor="middle" x="775" y="-548.5" font-family="Helvetica,sans-Serif" font-size="10.00" fill="#000000">XYZ, VertexSE3Expmap &gt;</text>
</a>
</g>
</g>
<!-- Node7&#45;&gt;Node8 -->
<g id="edge8" class="edge">
<title>Node7&#45;&gt;Node8</title>
<path fill="none" stroke="#191970" d="M600.8097,-488.5826C623.3928,-501.0168 657.2957,-518.9048 688,-532 695.642,-535.2593 703.769,-538.4322 711.8688,-541.4195"/>
<polygon fill="#191970" stroke="#191970" points="602.3085,-485.4115 591.8666,-483.6175 598.9107,-491.5316 602.3085,-485.4115"/>
</g>
<!-- Node10 -->
<g id="node11" class="node">
<title>Node10</title>
<g id="a_node11"><a xlink:href="de/de9/classg2o_1_1_base_binary_edge.html" target="_top" xlink:title="g2o::BaseBinaryEdge\l\&lt; 2, Vector2d, VertexSBAPoint\lXYZ, VertexSim3Expmap \&gt;">
<polygon fill="#ffffff" stroke="#000000" points="698.5,-481.5 698.5,-522.5 851.5,-522.5 851.5,-481.5 698.5,-481.5"/>
<text text-anchor="start" x="706.5" y="-510.5" font-family="Helvetica,sans-Serif" font-size="10.00" fill="#000000">g2o::BaseBinaryEdge</text>
<text text-anchor="start" x="706.5" y="-499.5" font-family="Helvetica,sans-Serif" font-size="10.00" fill="#000000">&lt; 2, Vector2d, VertexSBAPoint</text>
<text text-anchor="middle" x="775" y="-488.5" font-family="Helvetica,sans-Serif" font-size="10.00" fill="#000000">XYZ, VertexSim3Expmap &gt;</text>
</a>
</g>
</g>
<!-- Node7&#45;&gt;Node10 -->
<g id="edge10" class="edge">
<title>Node7&#45;&gt;Node10</title>
<path fill="none" stroke="#191970" d="M653.1327,-484.9386C667.9639,-487.0149 683.4698,-489.1858 698.2574,-491.256"/>
<polygon fill="#191970" stroke="#191970" points="653.3787,-481.439 642.99,-483.5186 652.4081,-488.3714 653.3787,-481.439"/>
</g>
<!-- Node13 -->
<g id="node14" class="node">
<title>Node13</title>
<g id="a_node14"><a xlink:href="d4/da8/classg2o_1_1_base_unary_edge.html" target="_top" xlink:title="g2o::BaseUnaryEdge\l\&lt; 2, Vector2d, VertexSE3Expmap \&gt;">
<polygon fill="#ffffff" stroke="#000000" points="688,-432 688,-462 862,-462 862,-432 688,-432"/>
<text text-anchor="start" x="696" y="-450" font-family="Helvetica,sans-Serif" font-size="10.00" fill="#000000">g2o::BaseUnaryEdge</text>
<text text-anchor="middle" x="775" y="-439" font-family="Helvetica,sans-Serif" font-size="10.00" fill="#000000">&lt; 2, Vector2d, VertexSE3Expmap &gt;</text>
</a>
</g>
</g>
<!-- Node7&#45;&gt;Node13 -->
<g id="edge13" class="edge">
<title>Node7&#45;&gt;Node13</title>
<path fill="none" stroke="#191970" d="M655.6079,-463.1179C666.2522,-461.681 677.2013,-460.2028 687.9475,-458.7521"/>
<polygon fill="#191970" stroke="#191970" points="654.9543,-459.6743 645.5125,-464.4808 655.8909,-466.6114 654.9543,-459.6743"/>
</g>
<!-- Node9 -->
<g id="node10" class="node">
<title>Node9</title>
<g id="a_node10"><a xlink:href="de/d37/classg2o_1_1_edge_s_e3_project_x_y_z.html" target="_top" xlink:title="g2o::EdgeSE3ProjectXYZ">
<polygon fill="#ffffff" stroke="#000000" points="919.5,-552.5 919.5,-571.5 1049.5,-571.5 1049.5,-552.5 919.5,-552.5"/>
<text text-anchor="middle" x="984.5" y="-559.5" font-family="Helvetica,sans-Serif" font-size="10.00" fill="#000000">g2o::EdgeSE3ProjectXYZ</text>
</a>
</g>
</g>
<!-- Node8&#45;&gt;Node9 -->
<g id="edge9" class="edge">
<title>Node8&#45;&gt;Node9</title>
<path fill="none" stroke="#191970" d="M861.7854,-562C880.9963,-562 901.0381,-562 919.2214,-562"/>
<polygon fill="#191970" stroke="#191970" points="861.5236,-558.5001 851.5236,-562 861.5236,-565.5001 861.5236,-558.5001"/>
</g>
<!-- Node11 -->
<g id="node12" class="node">
<title>Node11</title>
<g id="a_node12"><a xlink:href="d4/db9/classg2o_1_1_edge_inverse_sim3_project_x_y_z.html" target="_top" xlink:title="g2o::EdgeInverseSim3ProjectXYZ">
<polygon fill="#ffffff" stroke="#000000" points="901.5,-514.5 901.5,-533.5 1067.5,-533.5 1067.5,-514.5 901.5,-514.5"/>
<text text-anchor="middle" x="984.5" y="-521.5" font-family="Helvetica,sans-Serif" font-size="10.00" fill="#000000">g2o::EdgeInverseSim3ProjectXYZ</text>
</a>
</g>
</g>
<!-- Node10&#45;&gt;Node11 -->
<g id="edge11" class="edge">
<title>Node10&#45;&gt;Node11</title>
<path fill="none" stroke="#191970" d="M861.531,-511.0868C874.7383,-512.4737 888.3442,-513.9025 901.4738,-515.2813"/>
<polygon fill="#191970" stroke="#191970" points="861.8345,-507.5995 851.5236,-510.0359 861.1033,-514.5612 861.8345,-507.5995"/>
</g>
<!-- Node12 -->
<g id="node13" class="node">
<title>Node12</title>
<g id="a_node13"><a xlink:href="d7/d1a/classg2o_1_1_edge_sim3_project_x_y_z.html" target="_top" xlink:title="g2o::EdgeSim3ProjectXYZ">
<polygon fill="#ffffff" stroke="#000000" points="917.5,-476.5 917.5,-495.5 1051.5,-495.5 1051.5,-476.5 917.5,-476.5"/>
<text text-anchor="middle" x="984.5" y="-483.5" font-family="Helvetica,sans-Serif" font-size="10.00" fill="#000000">g2o::EdgeSim3ProjectXYZ</text>
</a>
</g>
</g>
<!-- Node10&#45;&gt;Node12 -->
<g id="edge12" class="edge">
<title>Node10&#45;&gt;Node12</title>
<path fill="none" stroke="#191970" d="M861.7155,-495.3773C880.2321,-493.9632 899.5238,-492.4898 917.1815,-491.1413"/>
<polygon fill="#191970" stroke="#191970" points="861.228,-491.9043 851.5236,-496.1557 861.7611,-498.884 861.228,-491.9043"/>
</g>
<!-- Node14 -->
<g id="node15" class="node">
<title>Node14</title>
<g id="a_node15"><a xlink:href="dd/deb/classg2o_1_1_edge_s_e3_project_x_y_z_only_pose.html" target="_top" xlink:title="g2o::EdgeSE3ProjectXYZOnlyPose">
<polygon fill="#ffffff" stroke="#000000" points="898,-437.5 898,-456.5 1071,-456.5 1071,-437.5 898,-437.5"/>
<text text-anchor="middle" x="984.5" y="-444.5" font-family="Helvetica,sans-Serif" font-size="10.00" fill="#000000">g2o::EdgeSE3ProjectXYZOnlyPose</text>
</a>
</g>
</g>
<!-- Node13&#45;&gt;Node14 -->
<g id="edge14" class="edge">
<title>Node13&#45;&gt;Node14</title>
<path fill="none" stroke="#191970" d="M872.0462,-447C880.6201,-447 889.2632,-447 897.7441,-447"/>
<polygon fill="#191970" stroke="#191970" points="872.0269,-443.5001 862.0268,-447 872.0268,-450.5001 872.0269,-443.5001"/>
</g>
<!-- Node16 -->
<g id="node17" class="node">
<title>Node16</title>
<g id="a_node17"><a xlink:href="de/de9/classg2o_1_1_base_binary_edge.html" target="_top" xlink:title="g2o::BaseBinaryEdge\l\&lt; 3, Vector3d, VertexSBAPoint\lXYZ, VertexSE3Expmap \&gt;">
<polygon fill="#ffffff" stroke="#000000" points="698.5,-371.5 698.5,-412.5 851.5,-412.5 851.5,-371.5 698.5,-371.5"/>
<text text-anchor="start" x="706.5" y="-400.5" font-family="Helvetica,sans-Serif" font-size="10.00" fill="#000000">g2o::BaseBinaryEdge</text>
<text text-anchor="start" x="706.5" y="-389.5" font-family="Helvetica,sans-Serif" font-size="10.00" fill="#000000">&lt; 3, Vector3d, VertexSBAPoint</text>
<text text-anchor="middle" x="775" y="-378.5" font-family="Helvetica,sans-Serif" font-size="10.00" fill="#000000">XYZ, VertexSE3Expmap &gt;</text>
</a>
</g>
</g>
<!-- Node15&#45;&gt;Node16 -->
<g id="edge16" class="edge">
<title>Node15&#45;&gt;Node16</title>
<path fill="none" stroke="#191970" d="M653.1327,-374.9386C667.9639,-377.0149 683.4698,-379.1858 698.2574,-381.256"/>
<polygon fill="#191970" stroke="#191970" points="653.3787,-371.439 642.99,-373.5186 652.4081,-378.3714 653.3787,-371.439"/>
</g>
<!-- Node18 -->
<g id="node19" class="node">
<title>Node18</title>
<g id="a_node19"><a xlink:href="d4/da8/classg2o_1_1_base_unary_edge.html" target="_top" xlink:title="g2o::BaseUnaryEdge\l\&lt; 3, Vector3d, VertexSE3Expmap \&gt;">
<polygon fill="#ffffff" stroke="#000000" points="688,-322 688,-352 862,-352 862,-322 688,-322"/>
<text text-anchor="start" x="696" y="-340" font-family="Helvetica,sans-Serif" font-size="10.00" fill="#000000">g2o::BaseUnaryEdge</text>
<text text-anchor="middle" x="775" y="-329" font-family="Helvetica,sans-Serif" font-size="10.00" fill="#000000">&lt; 3, Vector3d, VertexSE3Expmap &gt;</text>
</a>
</g>
</g>
<!-- Node15&#45;&gt;Node18 -->
<g id="edge18" class="edge">
<title>Node15&#45;&gt;Node18</title>
<path fill="none" stroke="#191970" d="M655.6079,-353.1179C666.2522,-351.681 677.2013,-350.2028 687.9475,-348.7521"/>
<polygon fill="#191970" stroke="#191970" points="654.9543,-349.6743 645.5125,-354.4808 655.8909,-356.6114 654.9543,-349.6743"/>
</g>
<!-- Node17 -->
<g id="node18" class="node">
<title>Node17</title>
<g id="a_node18"><a xlink:href="d0/dc9/classg2o_1_1_edge_stereo_s_e3_project_x_y_z.html" target="_top" xlink:title="g2o::EdgeStereoSE3ProjectXYZ">
<polygon fill="#ffffff" stroke="#000000" points="905.5,-382.5 905.5,-401.5 1063.5,-401.5 1063.5,-382.5 905.5,-382.5"/>
<text text-anchor="middle" x="984.5" y="-389.5" font-family="Helvetica,sans-Serif" font-size="10.00" fill="#000000">g2o::EdgeStereoSE3ProjectXYZ</text>
</a>
</g>
</g>
<!-- Node16&#45;&gt;Node17 -->
<g id="edge17" class="edge">
<title>Node16&#45;&gt;Node17</title>
<path fill="none" stroke="#191970" d="M861.9112,-392C876.3116,-392 891.1754,-392 905.3705,-392"/>
<polygon fill="#191970" stroke="#191970" points="861.5236,-388.5001 851.5236,-392 861.5236,-395.5001 861.5236,-388.5001"/>
</g>
<!-- Node19 -->
<g id="node20" class="node">
<title>Node19</title>
<g id="a_node20"><a xlink:href="d4/dd9/classg2o_1_1_edge_stereo_s_e3_project_x_y_z_only_pose.html" target="_top" xlink:title="g2o::EdgeStereoSE3Project\lXYZOnlyPose">
<polygon fill="#ffffff" stroke="#000000" points="915,-322 915,-352 1054,-352 1054,-322 915,-322"/>
<text text-anchor="start" x="923" y="-340" font-family="Helvetica,sans-Serif" font-size="10.00" fill="#000000">g2o::EdgeStereoSE3Project</text>
<text text-anchor="middle" x="984.5" y="-329" font-family="Helvetica,sans-Serif" font-size="10.00" fill="#000000">XYZOnlyPose</text>
</a>
</g>
</g>
<!-- Node18&#45;&gt;Node19 -->
<g id="edge19" class="edge">
<title>Node18&#45;&gt;Node19</title>
<path fill="none" stroke="#191970" d="M872.4323,-337C886.7886,-337 901.3291,-337 914.968,-337"/>
<polygon fill="#191970" stroke="#191970" points="872.0269,-333.5001 862.0268,-337 872.0268,-340.5001 872.0269,-333.5001"/>
</g>
<!-- Node21 -->
<g id="node22" class="node">
<title>Node21</title>
<g id="a_node22"><a xlink:href="de/de9/classg2o_1_1_base_binary_edge.html" target="_top" xlink:title="g2o::BaseBinaryEdge\l\&lt; D, E, VertexXi, VertexXj \&gt;">
<polygon fill="#ffffff" stroke="#000000" points="704,-273 704,-303 846,-303 846,-273 704,-273"/>
<text text-anchor="start" x="712" y="-291" font-family="Helvetica,sans-Serif" font-size="10.00" fill="#000000">g2o::BaseBinaryEdge</text>
<text text-anchor="middle" x="775" y="-280" font-family="Helvetica,sans-Serif" font-size="10.00" fill="#000000">&lt; D, E, VertexXi, VertexXj &gt;</text>
</a>
</g>
</g>
<!-- Node20&#45;&gt;Node21 -->
<g id="edge21" class="edge">
<title>Node20&#45;&gt;Node21</title>
<path fill="none" stroke="#191970" d="M646.037,-272.5244C664.7782,-274.7734 685.0049,-277.2006 703.757,-279.4508"/>
<polygon fill="#191970" stroke="#191970" points="646.4391,-269.0477 636.0933,-271.3312 645.6051,-275.9978 646.4391,-269.0477"/>
</g>
<!-- Node22 -->
<g id="node23" class="node">
<title>Node22</title>
<g id="a_node23"><a xlink:href="d0/dfe/classg2o_1_1_base_multi_edge.html" target="_top" xlink:title="base class to represent an edge connecting an arbitrary number of nodes ">
<polygon fill="#ffffff" stroke="#000000" points="723,-224 723,-254 827,-254 827,-224 723,-224"/>
<text text-anchor="start" x="731" y="-242" font-family="Helvetica,sans-Serif" font-size="10.00" fill="#000000">g2o::BaseMultiEdge</text>
<text text-anchor="middle" x="775" y="-231" font-family="Helvetica,sans-Serif" font-size="10.00" fill="#000000">&lt; D, E &gt;</text>
</a>
</g>
</g>
<!-- Node20&#45;&gt;Node22 -->
<g id="edge22" class="edge">
<title>Node20&#45;&gt;Node22</title>
<path fill="none" stroke="#191970" d="M646.3394,-255.0826C671.539,-251.9326 699.3908,-248.4511 722.7177,-245.5353"/>
<polygon fill="#191970" stroke="#191970" points="645.582,-251.6499 636.0933,-256.3633 646.4503,-258.5959 645.582,-251.6499"/>
</g>
<!-- Node23 -->
<g id="node24" class="node">
<title>Node23</title>
<g id="a_node24"><a xlink:href="d4/da8/classg2o_1_1_base_unary_edge.html" target="_top" xlink:title="g2o::BaseUnaryEdge\l\&lt; D, E, VertexXi \&gt;">
<polygon fill="#ffffff" stroke="#000000" points="720,-175 720,-205 830,-205 830,-175 720,-175"/>
<text text-anchor="start" x="728" y="-193" font-family="Helvetica,sans-Serif" font-size="10.00" fill="#000000">g2o::BaseUnaryEdge</text>
<text text-anchor="middle" x="775" y="-182" font-family="Helvetica,sans-Serif" font-size="10.00" fill="#000000">&lt; D, E, VertexXi &gt;</text>
</a>
</g>
</g>
<!-- Node20&#45;&gt;Node23 -->
<g id="edge23" class="edge">
<title>Node20&#45;&gt;Node23</title>
<path fill="none" stroke="#191970" d="M604.4459,-249.9823C627.0066,-239.5497 659.0717,-225.3793 688,-215 698.2066,-211.338 709.2314,-207.8338 719.892,-204.6685"/>
<polygon fill="#191970" stroke="#191970" points="602.6785,-246.9446 595.0955,-254.3439 605.6377,-253.2884 602.6785,-246.9446"/>
</g>
<!-- Node25 -->
<g id="node26" class="node">
<title>Node25</title>
<g id="a_node26"><a xlink:href="d9/d08/classg2o_1_1_optimizable_graph_1_1_vertex.html" target="_top" xlink:title="A general case Vertex for optimization. ">
<polygon fill="#ffffff" stroke="#000000" points="346,-88 346,-118 462,-118 462,-88 346,-88"/>
<text text-anchor="start" x="354" y="-106" font-family="Helvetica,sans-Serif" font-size="10.00" fill="#000000">g2o::OptimizableGraph</text>
<text text-anchor="middle" x="404" y="-95" font-family="Helvetica,sans-Serif" font-size="10.00" fill="#000000">::Vertex</text>
</a>
</g>
</g>
<!-- Node24&#45;&gt;Node25 -->
<g id="edge25" class="edge">
<title>Node24&#45;&gt;Node25</title>
<path fill="none" stroke="#191970" d="M294.8987,-187.9841C300.1174,-185.9237 305.254,-183.6 310,-181 341.245,-163.8832 371.9634,-135.6404 389.3902,-118.2461"/>
<polygon fill="#191970" stroke="#191970" points="293.6826,-184.7021 285.4828,-191.4114 296.0768,-191.2799 293.6826,-184.7021"/>
</g>
<!-- Node26 -->
<g id="node27" class="node">
<title>Node26</title>
<g id="a_node27"><a xlink:href="dc/d7a/classg2o_1_1_base_vertex.html" target="_top" xlink:title="g2o::BaseVertex\&lt; 3,\l Vector3d \&gt;">
<polygon fill="#ffffff" stroke="#000000" points="521.5,-137 521.5,-167 628.5,-167 628.5,-137 521.5,-137"/>
<text text-anchor="start" x="529.5" y="-155" font-family="Helvetica,sans-Serif" font-size="10.00" fill="#000000">g2o::BaseVertex&lt; 3,</text>
<text text-anchor="middle" x="575" y="-144" font-family="Helvetica,sans-Serif" font-size="10.00" fill="#000000"> Vector3d &gt;</text>
</a>
</g>
</g>
<!-- Node25&#45;&gt;Node26 -->
<g id="edge26" class="edge">
<title>Node25&#45;&gt;Node26</title>
<path fill="none" stroke="#191970" d="M466.4467,-120.8941C484.8391,-126.1644 504.7697,-131.8755 522.4731,-136.9484"/>
<polygon fill="#191970" stroke="#191970" points="467.2782,-117.4916 456.7009,-118.1014 465.3499,-124.2207 467.2782,-117.4916"/>
</g>
<!-- Node28 -->
<g id="node29" class="node">
<title>Node28</title>
<g id="a_node29"><a xlink:href="dc/d7a/classg2o_1_1_base_vertex.html" target="_top" xlink:title="g2o::BaseVertex\&lt; 6,\l SE3Quat \&gt;">
<polygon fill="#ffffff" stroke="#000000" points="521.5,-88 521.5,-118 628.5,-118 628.5,-88 521.5,-88"/>
<text text-anchor="start" x="529.5" y="-106" font-family="Helvetica,sans-Serif" font-size="10.00" fill="#000000">g2o::BaseVertex&lt; 6,</text>
<text text-anchor="middle" x="575" y="-95" font-family="Helvetica,sans-Serif" font-size="10.00" fill="#000000"> SE3Quat &gt;</text>
</a>
</g>
</g>
<!-- Node25&#45;&gt;Node28 -->
<g id="edge28" class="edge">
<title>Node25&#45;&gt;Node28</title>
<path fill="none" stroke="#191970" d="M472.4052,-103C488.7383,-103 505.939,-103 521.49,-103"/>
<polygon fill="#191970" stroke="#191970" points="472.3703,-99.5001 462.3702,-103 472.3702,-106.5001 472.3703,-99.5001"/>
</g>
<!-- Node30 -->
<g id="node31" class="node">
<title>Node30</title>
<g id="a_node31"><a xlink:href="dc/d7a/classg2o_1_1_base_vertex.html" target="_top" xlink:title="g2o::BaseVertex\&lt; 7,\l Sim3 \&gt;">
<polygon fill="#ffffff" stroke="#000000" points="521.5,-39 521.5,-69 628.5,-69 628.5,-39 521.5,-39"/>
<text text-anchor="start" x="529.5" y="-57" font-family="Helvetica,sans-Serif" font-size="10.00" fill="#000000">g2o::BaseVertex&lt; 7,</text>
<text text-anchor="middle" x="575" y="-46" font-family="Helvetica,sans-Serif" font-size="10.00" fill="#000000"> Sim3 &gt;</text>
</a>
</g>
</g>
<!-- Node25&#45;&gt;Node30 -->
<g id="edge30" class="edge">
<title>Node25&#45;&gt;Node30</title>
<path fill="none" stroke="#191970" d="M466.4467,-85.1059C484.8391,-79.8356 504.7697,-74.1245 522.4731,-69.0516"/>
<polygon fill="#191970" stroke="#191970" points="465.3499,-81.7793 456.7009,-87.8986 467.2782,-88.5084 465.3499,-81.7793"/>
</g>
<!-- Node32 -->
<g id="node33" class="node">
<title>Node32</title>
<g id="a_node33"><a xlink:href="dc/d7a/classg2o_1_1_base_vertex.html" target="_top" xlink:title="Templatized BaseVertex. ">
<polygon fill="#ffffff" stroke="#000000" points="511.5,-.5 511.5,-19.5 638.5,-19.5 638.5,-.5 511.5,-.5"/>
<text text-anchor="middle" x="575" y="-7.5" font-family="Helvetica,sans-Serif" font-size="10.00" fill="#000000">g2o::BaseVertex&lt; D, T &gt;</text>
</a>
</g>
</g>
<!-- Node25&#45;&gt;Node32 -->
<g id="edge32" class="edge">
<title>Node25&#45;&gt;Node32</title>
<path fill="none" stroke="#191970" d="M426.4966,-80.7217C444.4433,-64.1492 470.9739,-42.2026 498,-29 505.9179,-25.132 514.6893,-22.0105 523.3927,-19.504"/>
<polygon fill="#191970" stroke="#191970" points="423.7536,-78.4979 418.8839,-87.9072 428.5585,-83.5884 423.7536,-78.4979"/>
</g>
<!-- Node27 -->
<g id="node28" class="node">
<title>Node27</title>
<g id="a_node28"><a xlink:href="d5/d51/classg2o_1_1_vertex_s_b_a_point_x_y_z.html" target="_top" xlink:title="Point vertex, XYZ. ">
<polygon fill="#ffffff" stroke="#000000" points="710.5,-136.5 710.5,-155.5 839.5,-155.5 839.5,-136.5 710.5,-136.5"/>
<text text-anchor="middle" x="775" y="-143.5" font-family="Helvetica,sans-Serif" font-size="10.00" fill="#000000">g2o::VertexSBAPointXYZ</text>
</a>
</g>
</g>
<!-- Node26&#45;&gt;Node27 -->
<g id="edge27" class="edge">
<title>Node26&#45;&gt;Node27</title>
<path fill="none" stroke="#191970" d="M638.8454,-150.0846C661.6405,-149.4008 687.3319,-148.63 710.206,-147.9438"/>
<polygon fill="#191970" stroke="#191970" points="638.4868,-146.5937 628.5963,-150.3921 638.6968,-153.5906 638.4868,-146.5937"/>
</g>
<!-- Node29 -->
<g id="node30" class="node">
<title>Node29</title>
<g id="a_node30"><a xlink:href="d5/dc4/classg2o_1_1_vertex_s_e3_expmap.html" target="_top" xlink:title="SE3 Vertex parameterized internally with a transformation matrix and externally with its exponential ...">
<polygon fill="#ffffff" stroke="#000000" points="714,-93.5 714,-112.5 836,-112.5 836,-93.5 714,-93.5"/>
<text text-anchor="middle" x="775" y="-100.5" font-family="Helvetica,sans-Serif" font-size="10.00" fill="#000000">g2o::VertexSE3Expmap</text>
</a>
</g>
</g>
<!-- Node28&#45;&gt;Node29 -->
<g id="edge29" class="edge">
<title>Node28&#45;&gt;Node29</title>
<path fill="none" stroke="#191970" d="M638.6836,-103C662.7295,-103 690.0172,-103 713.8279,-103"/>
<polygon fill="#191970" stroke="#191970" points="638.5964,-99.5001 628.5963,-103 638.5963,-106.5001 638.5964,-99.5001"/>
</g>
<!-- Node31 -->
<g id="node32" class="node">
<title>Node31</title>
<g id="a_node32"><a xlink:href="d6/d4e/classg2o_1_1_vertex_sim3_expmap.html" target="_top" xlink:title="Sim3 Vertex, (x,y,z,qw,qx,qy,qz) the parameterization for the increments constructed is a 7d vector (...">
<polygon fill="#ffffff" stroke="#000000" points="712.5,-44.5 712.5,-63.5 837.5,-63.5 837.5,-44.5 712.5,-44.5"/>
<text text-anchor="middle" x="775" y="-51.5" font-family="Helvetica,sans-Serif" font-size="10.00" fill="#000000">g2o::VertexSim3Expmap</text>
</a>
</g>
</g>
<!-- Node30&#45;&gt;Node31 -->
<g id="edge31" class="edge">
<title>Node30&#45;&gt;Node31</title>
<path fill="none" stroke="#191970" d="M638.8184,-54C662.3469,-54 688.9642,-54 712.3852,-54"/>
<polygon fill="#191970" stroke="#191970" points="638.5964,-50.5001 628.5963,-54 638.5963,-57.5001 638.5964,-50.5001"/>
</g>
</g>
</svg>
