<?xml version="1.0" encoding="UTF-8" standalone="no"?>
<!DOCTYPE svg PUBLIC "-//W3C//DTD SVG 1.1//EN"
 "http://www.w3.org/Graphics/SVG/1.1/DTD/svg11.dtd">
<!-- Generated by graphviz version 2.40.1 (20161225.0304)
 -->
<!-- Title: Graphical Class Hierarchy Pages: 1 -->
<svg width="299pt" height="256pt"
 viewBox="0.00 0.00 299.00 256.00" xmlns="http://www.w3.org/2000/svg" xmlns:xlink="http://www.w3.org/1999/xlink">
<g id="graph0" class="graph" transform="scale(1 1) rotate(0) translate(4 252)">
<title>Graphical Class Hierarchy</title>
<polygon fill="#ffffff" stroke="transparent" points="-4,4 -4,-252 295,-252 295,4 -4,4"/>
<!-- Node0 -->
<g id="node1" class="node">
<title>Node0</title>
<g id="a_node1"><a xlink:href="d0/dea/classg2o_1_1_robust_kernel.html" target="_top" xlink:title="base for all robust cost functions ">
<polygon fill="#ffffff" stroke="#000000" points="0,-114.5 0,-133.5 98,-133.5 98,-114.5 0,-114.5"/>
<text text-anchor="middle" x="49" y="-121.5" font-family="Helvetica,sans-Serif" font-size="10.00" fill="#000000">g2o::RobustKernel</text>
</a>
</g>
</g>
<!-- Node1 -->
<g id="node2" class="node">
<title>Node1</title>
<g id="a_node2"><a xlink:href="df/dc4/classg2o_1_1_robust_kernel_cauchy.html" target="_top" xlink:title="Cauchy cost function. ">
<polygon fill="#ffffff" stroke="#000000" points="147,-228.5 147,-247.5 278,-247.5 278,-228.5 147,-228.5"/>
<text text-anchor="middle" x="212.5" y="-235.5" font-family="Helvetica,sans-Serif" font-size="10.00" fill="#000000">g2o::RobustKernelCauchy</text>
</a>
</g>
</g>
<!-- Node0&#45;&gt;Node1 -->
<g id="edge1" class="edge">
<title>Node0&#45;&gt;Node1</title>
<path fill="none" stroke="#191970" d="M60.2159,-142.1396C74.5929,-163.8209 101.5752,-199.5996 134,-219 140.4976,-222.8877 147.7469,-225.9806 155.1416,-228.4412"/>
<polygon fill="#191970" stroke="#191970" points="63.0377,-140.0566 54.6847,-133.5391 57.1502,-143.8431 63.0377,-140.0566"/>
</g>
<!-- Node2 -->
<g id="node3" class="node">
<title>Node2</title>
<g id="a_node3"><a xlink:href="dd/dae/classg2o_1_1_robust_kernel_d_c_s.html" target="_top" xlink:title="Dynamic covariance scaling &#45; DCS. ">
<polygon fill="#ffffff" stroke="#000000" points="153,-190.5 153,-209.5 272,-209.5 272,-190.5 153,-190.5"/>
<text text-anchor="middle" x="212.5" y="-197.5" font-family="Helvetica,sans-Serif" font-size="10.00" fill="#000000">g2o::RobustKernelDCS</text>
</a>
</g>
</g>
<!-- Node0&#45;&gt;Node2 -->
<g id="edge2" class="edge">
<title>Node0&#45;&gt;Node2</title>
<path fill="none" stroke="#191970" d="M68.5992,-140.0958C85.1117,-152.904 109.8448,-170.3837 134,-181 142.6007,-184.7801 152.0765,-187.8829 161.3801,-190.4041"/>
<polygon fill="#191970" stroke="#191970" points="70.3367,-137.0066 60.3271,-133.534 65.9864,-142.4907 70.3367,-137.0066"/>
</g>
<!-- Node3 -->
<g id="node4" class="node">
<title>Node3</title>
<g id="a_node4"><a xlink:href="df/dd2/classg2o_1_1_robust_kernel_huber.html" target="_top" xlink:title="Huber Cost Function. ">
<polygon fill="#ffffff" stroke="#000000" points="150.5,-152.5 150.5,-171.5 274.5,-171.5 274.5,-152.5 150.5,-152.5"/>
<text text-anchor="middle" x="212.5" y="-159.5" font-family="Helvetica,sans-Serif" font-size="10.00" fill="#000000">g2o::RobustKernelHuber</text>
</a>
</g>
</g>
<!-- Node0&#45;&gt;Node3 -->
<g id="edge3" class="edge">
<title>Node0&#45;&gt;Node3</title>
<path fill="none" stroke="#191970" d="M100.1844,-135.8961C123.1661,-141.2374 149.9125,-147.4537 171.5387,-152.4799"/>
<polygon fill="#191970" stroke="#191970" points="100.7907,-132.4438 90.258,-133.589 99.206,-139.262 100.7907,-132.4438"/>
</g>
<!-- Node4 -->
<g id="node5" class="node">
<title>Node4</title>
<g id="a_node5"><a xlink:href="d3/dde/classg2o_1_1_robust_kernel_pseudo_huber.html" target="_top" xlink:title="Pseudo Huber Cost Function. ">
<polygon fill="#ffffff" stroke="#000000" points="134,-114.5 134,-133.5 291,-133.5 291,-114.5 134,-114.5"/>
<text text-anchor="middle" x="212.5" y="-121.5" font-family="Helvetica,sans-Serif" font-size="10.00" fill="#000000">g2o::RobustKernelPseudoHuber</text>
</a>
</g>
</g>
<!-- Node0&#45;&gt;Node4 -->
<g id="edge4" class="edge">
<title>Node0&#45;&gt;Node4</title>
<path fill="none" stroke="#191970" d="M108.0671,-124C116.4364,-124 125.1502,-124 133.818,-124"/>
<polygon fill="#191970" stroke="#191970" points="108.0554,-120.5001 98.0554,-124 108.0554,-127.5001 108.0554,-120.5001"/>
</g>
<!-- Node5 -->
<g id="node6" class="node">
<title>Node5</title>
<g id="a_node6"><a xlink:href="d9/dd4/classg2o_1_1_robust_kernel_saturated.html" target="_top" xlink:title="Saturated cost function. ">
<polygon fill="#ffffff" stroke="#000000" points="142.5,-76.5 142.5,-95.5 282.5,-95.5 282.5,-76.5 142.5,-76.5"/>
<text text-anchor="middle" x="212.5" y="-83.5" font-family="Helvetica,sans-Serif" font-size="10.00" fill="#000000">g2o::RobustKernelSaturated</text>
</a>
</g>
</g>
<!-- Node0&#45;&gt;Node5 -->
<g id="edge5" class="edge">
<title>Node0&#45;&gt;Node5</title>
<path fill="none" stroke="#191970" d="M100.1844,-112.1039C123.1661,-106.7626 149.9125,-100.5463 171.5387,-95.5201"/>
<polygon fill="#191970" stroke="#191970" points="99.206,-108.738 90.258,-114.411 100.7907,-115.5562 99.206,-108.738"/>
</g>
<!-- Node6 -->
<g id="node7" class="node">
<title>Node6</title>
<g id="a_node7"><a xlink:href="d0/d07/classg2o_1_1_robust_kernel_scale_delta.html" target="_top" xlink:title="scale a robust kernel to another delta (window size) ">
<polygon fill="#ffffff" stroke="#000000" points="139.5,-38.5 139.5,-57.5 285.5,-57.5 285.5,-38.5 139.5,-38.5"/>
<text text-anchor="middle" x="212.5" y="-45.5" font-family="Helvetica,sans-Serif" font-size="10.00" fill="#000000">g2o::RobustKernelScaleDelta</text>
</a>
</g>
</g>
<!-- Node0&#45;&gt;Node6 -->
<g id="edge6" class="edge">
<title>Node0&#45;&gt;Node6</title>
<path fill="none" stroke="#191970" d="M68.5992,-107.9042C85.1117,-95.096 109.8448,-77.6163 134,-67 142.6007,-63.2199 152.0765,-60.1171 161.3801,-57.5959"/>
<polygon fill="#191970" stroke="#191970" points="65.9864,-105.5093 60.3271,-114.466 70.3367,-110.9934 65.9864,-105.5093"/>
</g>
<!-- Node7 -->
<g id="node8" class="node">
<title>Node7</title>
<g id="a_node8"><a xlink:href="df/d5e/classg2o_1_1_robust_kernel_tukey.html" target="_top" xlink:title="Tukey Cost Function. ">
<polygon fill="#ffffff" stroke="#000000" points="150,-.5 150,-19.5 275,-19.5 275,-.5 150,-.5"/>
<text text-anchor="middle" x="212.5" y="-7.5" font-family="Helvetica,sans-Serif" font-size="10.00" fill="#000000">g2o::RobustKernelTukey</text>
</a>
</g>
</g>
<!-- Node0&#45;&gt;Node7 -->
<g id="edge7" class="edge">
<title>Node0&#45;&gt;Node7</title>
<path fill="none" stroke="#191970" d="M60.2159,-105.8604C74.5929,-84.1791 101.5752,-48.4004 134,-29 140.4976,-25.1123 147.7469,-22.0194 155.1416,-19.5588"/>
<polygon fill="#191970" stroke="#191970" points="57.1502,-104.1569 54.6847,-114.4609 63.0377,-107.9434 57.1502,-104.1569"/>
</g>
</g>
</svg>
