<?xml version="1.0" encoding="UTF-8" standalone="no"?>
<!DOCTYPE svg PUBLIC "-//W3C//DTD SVG 1.1//EN"
 "http://www.w3.org/Graphics/SVG/1.1/DTD/svg11.dtd">
<!-- Generated by graphviz version 2.38.0 (20140413.2041)
 -->
<!-- Title: Graphical Class Hierarchy Pages: 1 -->
<svg width="263pt" height="137pt"
 viewBox="0.00 0.00 263.00 137.00" xmlns="http://www.w3.org/2000/svg" xmlns:xlink="http://www.w3.org/1999/xlink">
<g id="graph0" class="graph" transform="scale(1 1) rotate(0) translate(4 133)">
<title>Graphical Class Hierarchy</title>
<polygon fill="white" stroke="none" points="-4,4 -4,-133 259,-133 259,4 -4,4"/>
<!-- Node0 -->
<g id="node1" class="node"><title>Node0</title>
<g id="a_node1"><a xlink:href="classg2o_1_1_linear_solver.html" target="_top" xlink:title="basic solver for Ax = b ">
<polygon fill="white" stroke="black" points="0,-49.5 0,-79.5 98,-79.5 98,-49.5 0,-49.5"/>
<text text-anchor="start" x="8" y="-67.5" font-family="Helvetica,sans-Serif" font-size="10.00">g2o::LinearSolver&lt;</text>
<text text-anchor="middle" x="49" y="-56.5" font-family="Helvetica,sans-Serif" font-size="10.00"> MatrixType &gt;</text>
</a>
</g>
</g>
<!-- Node1 -->
<g id="node2" class="node"><title>Node1</title>
<g id="a_node2"><a xlink:href="classg2o_1_1_linear_solver_c_c_s.html" target="_top" xlink:title="Solver with faster iterating structure for the linear matrix. ">
<polygon fill="white" stroke="black" points="137.5,-98.5 137.5,-128.5 251.5,-128.5 251.5,-98.5 137.5,-98.5"/>
<text text-anchor="start" x="145.5" y="-116.5" font-family="Helvetica,sans-Serif" font-size="10.00">g2o::LinearSolverCCS</text>
<text text-anchor="middle" x="194.5" y="-105.5" font-family="Helvetica,sans-Serif" font-size="10.00">&lt; MatrixType &gt;</text>
</a>
</g>
</g>
<!-- Node0&#45;&gt;Node1 -->
<g id="edge1" class="edge"><title>Node0&#45;&gt;Node1</title>
<path fill="none" stroke="midnightblue" d="M103.855,-82.8896C118.797,-87.9916 134.844,-93.4711 149.173,-98.3641"/>
<polygon fill="midnightblue" stroke="midnightblue" points="104.82,-79.5207 94.2256,-79.6014 102.558,-86.1452 104.82,-79.5207"/>
</g>
<!-- Node2 -->
<g id="node3" class="node"><title>Node2</title>
<g id="a_node3"><a xlink:href="classg2o_1_1_linear_solver_dense.html" target="_top" xlink:title="linear solver using dense cholesky decomposition ">
<polygon fill="white" stroke="black" points="134,-49.5 134,-79.5 255,-79.5 255,-49.5 134,-49.5"/>
<text text-anchor="start" x="142" y="-67.5" font-family="Helvetica,sans-Serif" font-size="10.00">g2o::LinearSolverDense</text>
<text text-anchor="middle" x="194.5" y="-56.5" font-family="Helvetica,sans-Serif" font-size="10.00">&lt; MatrixType &gt;</text>
</a>
</g>
</g>
<!-- Node0&#45;&gt;Node2 -->
<g id="edge2" class="edge"><title>Node0&#45;&gt;Node2</title>
<path fill="none" stroke="midnightblue" d="M108.332,-64.5C116.785,-64.5 125.496,-64.5 133.972,-64.5"/>
<polygon fill="midnightblue" stroke="midnightblue" points="108.183,-61.0001 98.1826,-64.5 108.183,-68.0001 108.183,-61.0001"/>
</g>
<!-- Node3 -->
<g id="node4" class="node"><title>Node3</title>
<g id="a_node4"><a xlink:href="classg2o_1_1_linear_solver_eigen.html" target="_top" xlink:title="linear solver which uses the sparse Cholesky solver from Eigen ">
<polygon fill="white" stroke="black" points="136,-0.5 136,-30.5 253,-30.5 253,-0.5 136,-0.5"/>
<text text-anchor="start" x="144" y="-18.5" font-family="Helvetica,sans-Serif" font-size="10.00">g2o::LinearSolverEigen</text>
<text text-anchor="middle" x="194.5" y="-7.5" font-family="Helvetica,sans-Serif" font-size="10.00">&lt; MatrixType &gt;</text>
</a>
</g>
</g>
<!-- Node0&#45;&gt;Node3 -->
<g id="edge3" class="edge"><title>Node0&#45;&gt;Node3</title>
<path fill="none" stroke="midnightblue" d="M103.855,-46.1104C118.797,-41.0084 134.844,-35.5289 149.173,-30.6359"/>
<polygon fill="midnightblue" stroke="midnightblue" points="102.558,-42.8548 94.2256,-49.3986 104.82,-49.4793 102.558,-42.8548"/>
</g>
</g>
</svg>
