<?xml version="1.0" encoding="UTF-8" standalone="no"?>
<!DOCTYPE svg PUBLIC "-//W3C//DTD SVG 1.1//EN"
 "http://www.w3.org/Graphics/SVG/1.1/DTD/svg11.dtd">
<!-- Generated by graphviz version 2.40.1 (20161225.0304)
 -->
<!-- Title: Graphical Class Hierarchy Pages: 1 -->
<svg width="263pt" height="137pt"
 viewBox="0.00 0.00 263.00 137.00" xmlns="http://www.w3.org/2000/svg" xmlns:xlink="http://www.w3.org/1999/xlink">
<g id="graph0" class="graph" transform="scale(1 1) rotate(0) translate(4 133)">
<title>Graphical Class Hierarchy</title>
<polygon fill="#ffffff" stroke="transparent" points="-4,4 -4,-133 259,-133 259,4 -4,4"/>
<!-- Node0 -->
<g id="node1" class="node">
<title>Node0</title>
<g id="a_node1"><a xlink:href="dd/d8c/classg2o_1_1_linear_solver.html" target="_top" xlink:title="basic solver for Ax = b ">
<polygon fill="#ffffff" stroke="#000000" points="0,-49.5 0,-79.5 98,-79.5 98,-49.5 0,-49.5"/>
<text text-anchor="start" x="8" y="-67.5" font-family="Helvetica,sans-Serif" font-size="10.00" fill="#000000">g2o::LinearSolver&lt;</text>
<text text-anchor="middle" x="49" y="-56.5" font-family="Helvetica,sans-Serif" font-size="10.00" fill="#000000"> MatrixType &gt;</text>
</a>
</g>
</g>
<!-- Node1 -->
<g id="node2" class="node">
<title>Node1</title>
<g id="a_node2"><a xlink:href="d6/d54/classg2o_1_1_linear_solver_c_c_s.html" target="_top" xlink:title="Solver with faster iterating structure for the linear matrix. ">
<polygon fill="#ffffff" stroke="#000000" points="137.5,-98.5 137.5,-128.5 251.5,-128.5 251.5,-98.5 137.5,-98.5"/>
<text text-anchor="start" x="145.5" y="-116.5" font-family="Helvetica,sans-Serif" font-size="10.00" fill="#000000">g2o::LinearSolverCCS</text>
<text text-anchor="middle" x="194.5" y="-105.5" font-family="Helvetica,sans-Serif" font-size="10.00" fill="#000000">&lt; MatrixType &gt;</text>
</a>
</g>
</g>
<!-- Node0&#45;&gt;Node1 -->
<g id="edge1" class="edge">
<title>Node0&#45;&gt;Node1</title>
<path fill="none" stroke="#191970" d="M103.6529,-82.9055C118.8763,-88.0322 135.2286,-93.5392 149.806,-98.4484"/>
<polygon fill="#191970" stroke="#191970" points="104.4361,-79.4761 93.842,-79.6014 102.202,-86.11 104.4361,-79.4761"/>
</g>
<!-- Node2 -->
<g id="node3" class="node">
<title>Node2</title>
<g id="a_node3"><a xlink:href="df/d3f/classg2o_1_1_linear_solver_dense.html" target="_top" xlink:title="linear solver using dense cholesky decomposition ">
<polygon fill="#ffffff" stroke="#000000" points="134,-49.5 134,-79.5 255,-79.5 255,-49.5 134,-49.5"/>
<text text-anchor="start" x="142" y="-67.5" font-family="Helvetica,sans-Serif" font-size="10.00" fill="#000000">g2o::LinearSolverDense</text>
<text text-anchor="middle" x="194.5" y="-56.5" font-family="Helvetica,sans-Serif" font-size="10.00" fill="#000000">&lt; MatrixType &gt;</text>
</a>
</g>
</g>
<!-- Node0&#45;&gt;Node2 -->
<g id="edge2" class="edge">
<title>Node0&#45;&gt;Node2</title>
<path fill="none" stroke="#191970" d="M108.3838,-64.5C116.8105,-64.5 125.4851,-64.5 133.934,-64.5"/>
<polygon fill="#191970" stroke="#191970" points="108.2597,-61.0001 98.2597,-64.5 108.2596,-68.0001 108.2597,-61.0001"/>
</g>
<!-- Node3 -->
<g id="node4" class="node">
<title>Node3</title>
<g id="a_node4"><a xlink:href="d1/dfe/classg2o_1_1_linear_solver_eigen.html" target="_top" xlink:title="linear solver which uses the sparse Cholesky solver from Eigen ">
<polygon fill="#ffffff" stroke="#000000" points="136,-.5 136,-30.5 253,-30.5 253,-.5 136,-.5"/>
<text text-anchor="start" x="144" y="-18.5" font-family="Helvetica,sans-Serif" font-size="10.00" fill="#000000">g2o::LinearSolverEigen</text>
<text text-anchor="middle" x="194.5" y="-7.5" font-family="Helvetica,sans-Serif" font-size="10.00" fill="#000000">&lt; MatrixType &gt;</text>
</a>
</g>
</g>
<!-- Node0&#45;&gt;Node3 -->
<g id="edge3" class="edge">
<title>Node0&#45;&gt;Node3</title>
<path fill="none" stroke="#191970" d="M103.6529,-46.0945C118.8763,-40.9678 135.2286,-35.4608 149.806,-30.5516"/>
<polygon fill="#191970" stroke="#191970" points="102.202,-42.89 93.842,-49.3986 104.4361,-49.5239 102.202,-42.89"/>
</g>
</g>
</svg>
