<?xml version="1.0" encoding="UTF-8" standalone="no"?>
<!DOCTYPE svg PUBLIC "-//W3C//DTD SVG 1.1//EN"
 "http://www.w3.org/Graphics/SVG/1.1/DTD/svg11.dtd">
<!-- Generated by graphviz version 2.38.0 (20140413.2041)
 -->
<!-- Title: /home/alejandro/Desarrollo eclipse/os1/Thirdparty/g2o/g2o/core/jacobian_workspace.cpp Pages: 1 -->
<svg width="1027pt" height="274pt"
 viewBox="0.00 0.00 1026.98 274.00" xmlns="http://www.w3.org/2000/svg" xmlns:xlink="http://www.w3.org/1999/xlink">
<g id="graph0" class="graph" transform="scale(1 1) rotate(0) translate(4 270)">
<title>/home/alejandro/Desarrollo eclipse/os1/Thirdparty/g2o/g2o/core/jacobian_workspace.cpp</title>
<polygon fill="white" stroke="none" points="-4,4 -4,-270 1022.98,-270 1022.98,4 -4,4"/>
<!-- Node0 -->
<g id="node1" class="node"><title>Node0</title>
<polygon fill="#bfbfbf" stroke="black" points="151.5,-224.5 151.5,-265.5 337.5,-265.5 337.5,-224.5 151.5,-224.5"/>
<text text-anchor="start" x="159.5" y="-253.5" font-family="Helvetica,sans-Serif" font-size="10.00">/home/alejandro/Desarrollo</text>
<text text-anchor="start" x="159.5" y="-242.5" font-family="Helvetica,sans-Serif" font-size="10.00"> eclipse/os1/Thirdparty</text>
<text text-anchor="middle" x="244.5" y="-231.5" font-family="Helvetica,sans-Serif" font-size="10.00">/g2o/g2o/core/jacobian_workspace.cpp</text>
</g>
<!-- Node1 -->
<g id="node2" class="node"><title>Node1</title>
<g id="a_node2"><a xlink:href="jacobian__workspace_8h.html" target="_top" xlink:title="jacobian_workspace.h">
<polygon fill="white" stroke="black" points="188,-112.5 188,-131.5 301,-131.5 301,-112.5 188,-112.5"/>
<text text-anchor="middle" x="244.5" y="-119.5" font-family="Helvetica,sans-Serif" font-size="10.00">jacobian_workspace.h</text>
</a>
</g>
</g>
<!-- Node0&#45;&gt;Node1 -->
<g id="edge1" class="edge"><title>Node0&#45;&gt;Node1</title>
<path fill="none" stroke="midnightblue" d="M244.5,-224.29C244.5,-201.48 244.5,-164.189 244.5,-141.781"/>
<polygon fill="midnightblue" stroke="midnightblue" points="248,-141.575 244.5,-131.575 241,-141.575 248,-141.575"/>
</g>
<!-- Node13 -->
<g id="node14" class="node"><title>Node13</title>
<polygon fill="white" stroke="#bfbfbf" points="125.5,-112.5 125.5,-131.5 169.5,-131.5 169.5,-112.5 125.5,-112.5"/>
<text text-anchor="middle" x="147.5" y="-119.5" font-family="Helvetica,sans-Serif" font-size="10.00">cmath</text>
</g>
<!-- Node0&#45;&gt;Node13 -->
<g id="edge15" class="edge"><title>Node0&#45;&gt;Node13</title>
<path fill="none" stroke="midnightblue" d="M228.699,-224.29C209.826,-200.747 178.587,-161.779 160.863,-139.669"/>
<polygon fill="midnightblue" stroke="midnightblue" points="163.36,-137.188 154.374,-131.575 157.898,-141.566 163.36,-137.188"/>
</g>
<!-- Node14 -->
<g id="node15" class="node"><title>Node14</title>
<g id="a_node15"><a xlink:href="optimizable__graph_8h.html" target="_top" xlink:title="optimizable_graph.h">
<polygon fill="white" stroke="black" points="558.5,-168.5 558.5,-187.5 662.5,-187.5 662.5,-168.5 558.5,-168.5"/>
<text text-anchor="middle" x="610.5" y="-175.5" font-family="Helvetica,sans-Serif" font-size="10.00">optimizable_graph.h</text>
</a>
</g>
</g>
<!-- Node0&#45;&gt;Node14 -->
<g id="edge16" class="edge"><title>Node0&#45;&gt;Node14</title>
<path fill="none" stroke="midnightblue" d="M337.804,-227.43C405.435,-215.419 494.779,-199.552 552.445,-189.31"/>
<polygon fill="midnightblue" stroke="midnightblue" points="553.244,-192.723 562.478,-187.529 552.02,-185.831 553.244,-192.723"/>
</g>
<!-- Node2 -->
<g id="node3" class="node"><title>Node2</title>
<polygon fill="white" stroke="#bfbfbf" points="176,-56.5 176,-75.5 273,-75.5 273,-56.5 176,-56.5"/>
<text text-anchor="middle" x="224.5" y="-63.5" font-family="Helvetica,sans-Serif" font-size="10.00">eigen3/Eigen/Core</text>
</g>
<!-- Node1&#45;&gt;Node2 -->
<g id="edge2" class="edge"><title>Node1&#45;&gt;Node2</title>
<path fill="none" stroke="midnightblue" d="M241.197,-112.083C238.518,-104.849 234.651,-94.4087 231.314,-85.3968"/>
<polygon fill="midnightblue" stroke="midnightblue" points="234.496,-83.9129 227.741,-75.7511 227.932,-86.3442 234.496,-83.9129"/>
</g>
<!-- Node3 -->
<g id="node4" class="node"><title>Node3</title>
<polygon fill="white" stroke="#bfbfbf" points="0,-56.5 0,-75.5 119,-75.5 119,-56.5 0,-56.5"/>
<text text-anchor="middle" x="59.5" y="-63.5" font-family="Helvetica,sans-Serif" font-size="10.00">eigen3/Eigen/StdVector</text>
</g>
<!-- Node1&#45;&gt;Node3 -->
<g id="edge3" class="edge"><title>Node1&#45;&gt;Node3</title>
<path fill="none" stroke="midnightblue" d="M215.186,-112.444C183.658,-103.241 133.369,-88.5617 98.5143,-78.3879"/>
<polygon fill="midnightblue" stroke="midnightblue" points="99.2568,-74.9587 88.6767,-75.5164 97.2954,-81.6783 99.2568,-74.9587"/>
</g>
<!-- Node4 -->
<g id="node5" class="node"><title>Node4</title>
<polygon fill="white" stroke="#bfbfbf" points="189.5,-0.5 189.5,-19.5 233.5,-19.5 233.5,-0.5 189.5,-0.5"/>
<text text-anchor="middle" x="211.5" y="-7.5" font-family="Helvetica,sans-Serif" font-size="10.00">vector</text>
</g>
<!-- Node1&#45;&gt;Node4 -->
<g id="edge4" class="edge"><title>Node1&#45;&gt;Node4</title>
<path fill="none" stroke="midnightblue" d="M215.379,-112.441C197.857,-105.62 176.977,-94.1408 166.5,-76 156.095,-57.9846 173.788,-38.5151 189.953,-25.6294"/>
<polygon fill="midnightblue" stroke="midnightblue" points="192.195,-28.3234 198.11,-19.5337 188.004,-22.7161 192.195,-28.3234"/>
</g>
<!-- Node5 -->
<g id="node6" class="node"><title>Node5</title>
<polygon fill="white" stroke="#bfbfbf" points="315,-0.5 315,-19.5 364,-19.5 364,-0.5 315,-0.5"/>
<text text-anchor="middle" x="339.5" y="-7.5" font-family="Helvetica,sans-Serif" font-size="10.00">cassert</text>
</g>
<!-- Node1&#45;&gt;Node5 -->
<g id="edge5" class="edge"><title>Node1&#45;&gt;Node5</title>
<path fill="none" stroke="midnightblue" d="M251.954,-112.368C267.771,-94.0547 304.912,-51.0489 325.369,-27.3624"/>
<polygon fill="midnightblue" stroke="midnightblue" points="328.193,-29.4474 332.08,-19.5914 322.895,-24.872 328.193,-29.4474"/>
</g>
<!-- Node6 -->
<g id="node7" class="node"><title>Node6</title>
<g id="a_node7"><a xlink:href="hyper__graph_8h.html" target="_top" xlink:title="hyper_graph.h">
<polygon fill="white" stroke="black" points="455.5,-56.5 455.5,-75.5 533.5,-75.5 533.5,-56.5 455.5,-56.5"/>
<text text-anchor="middle" x="494.5" y="-63.5" font-family="Helvetica,sans-Serif" font-size="10.00">hyper_graph.h</text>
</a>
</g>
</g>
<!-- Node1&#45;&gt;Node6 -->
<g id="edge6" class="edge"><title>Node1&#45;&gt;Node6</title>
<path fill="none" stroke="midnightblue" d="M284.113,-112.444C327.853,-102.996 398.313,-87.7764 445.494,-77.5854"/>
<polygon fill="midnightblue" stroke="midnightblue" points="446.448,-80.96 455.484,-75.4275 444.97,-74.1178 446.448,-80.96"/>
</g>
<!-- Node6&#45;&gt;Node4 -->
<g id="edge11" class="edge"><title>Node6&#45;&gt;Node4</title>
<path fill="none" stroke="midnightblue" d="M455.447,-57.5482C399.13,-46.8022 296.148,-27.1519 243.84,-17.1708"/>
<polygon fill="midnightblue" stroke="midnightblue" points="244.261,-13.6881 233.782,-15.2516 242.948,-20.564 244.261,-13.6881"/>
</g>
<!-- Node6&#45;&gt;Node5 -->
<g id="edge10" class="edge"><title>Node6&#45;&gt;Node5</title>
<path fill="none" stroke="midnightblue" d="M469.94,-56.4435C443.977,-47.3986 402.832,-33.064 373.703,-22.9158"/>
<polygon fill="midnightblue" stroke="midnightblue" points="374.54,-19.5013 363.945,-19.5164 372.237,-26.1116 374.54,-19.5013"/>
</g>
<!-- Node7 -->
<g id="node8" class="node"><title>Node7</title>
<polygon fill="white" stroke="#bfbfbf" points="660,-0.5 660,-19.5 695,-19.5 695,-0.5 660,-0.5"/>
<text text-anchor="middle" x="677.5" y="-7.5" font-family="Helvetica,sans-Serif" font-size="10.00">map</text>
</g>
<!-- Node6&#45;&gt;Node7 -->
<g id="edge7" class="edge"><title>Node6&#45;&gt;Node7</title>
<path fill="none" stroke="midnightblue" d="M523.497,-56.4435C558.204,-46.2021 615.894,-29.1789 649.948,-19.1301"/>
<polygon fill="midnightblue" stroke="midnightblue" points="651.106,-22.4378 659.706,-16.2506 649.124,-15.724 651.106,-22.4378"/>
</g>
<!-- Node8 -->
<g id="node9" class="node"><title>Node8</title>
<polygon fill="white" stroke="#bfbfbf" points="782.5,-0.5 782.5,-19.5 812.5,-19.5 812.5,-0.5 782.5,-0.5"/>
<text text-anchor="middle" x="797.5" y="-7.5" font-family="Helvetica,sans-Serif" font-size="10.00">set</text>
</g>
<!-- Node6&#45;&gt;Node8 -->
<g id="edge8" class="edge"><title>Node6&#45;&gt;Node8</title>
<path fill="none" stroke="midnightblue" d="M533.526,-57.6465C536.562,-57.0855 539.58,-56.5313 542.5,-56 626.644,-40.6875 726.555,-23.2815 772.328,-15.3504"/>
<polygon fill="midnightblue" stroke="midnightblue" points="773,-18.7862 782.256,-13.6316 771.806,-11.8888 773,-18.7862"/>
</g>
<!-- Node9 -->
<g id="node10" class="node"><title>Node9</title>
<polygon fill="white" stroke="#bfbfbf" points="411,-0.5 411,-19.5 452,-19.5 452,-0.5 411,-0.5"/>
<text text-anchor="middle" x="431.5" y="-7.5" font-family="Helvetica,sans-Serif" font-size="10.00">bitset</text>
</g>
<!-- Node6&#45;&gt;Node9 -->
<g id="edge9" class="edge"><title>Node6&#45;&gt;Node9</title>
<path fill="none" stroke="midnightblue" d="M484.378,-56.324C474.974,-48.2631 460.756,-36.0765 449.431,-26.3695"/>
<polygon fill="midnightblue" stroke="midnightblue" points="451.677,-23.6844 441.806,-19.8339 447.121,-28.9993 451.677,-23.6844"/>
</g>
<!-- Node10 -->
<g id="node11" class="node"><title>Node10</title>
<polygon fill="white" stroke="#bfbfbf" points="916.5,-0.5 916.5,-19.5 956.5,-19.5 956.5,-0.5 916.5,-0.5"/>
<text text-anchor="middle" x="936.5" y="-7.5" font-family="Helvetica,sans-Serif" font-size="10.00">limits</text>
</g>
<!-- Node6&#45;&gt;Node10 -->
<g id="edge12" class="edge"><title>Node6&#45;&gt;Node10</title>
<path fill="none" stroke="midnightblue" d="M533.754,-57.403C536.709,-56.9036 539.649,-56.4295 542.5,-56 677.605,-35.6453 840.013,-19.8063 906.203,-13.7139"/>
<polygon fill="midnightblue" stroke="midnightblue" points="906.701,-17.183 916.341,-12.7879 906.065,-10.212 906.701,-17.183"/>
</g>
<!-- Node11 -->
<g id="node12" class="node"><title>Node11</title>
<polygon fill="white" stroke="#bfbfbf" points="470,-0.5 470,-19.5 519,-19.5 519,-0.5 470,-0.5"/>
<text text-anchor="middle" x="494.5" y="-7.5" font-family="Helvetica,sans-Serif" font-size="10.00">cstddef</text>
</g>
<!-- Node6&#45;&gt;Node11 -->
<g id="edge13" class="edge"><title>Node6&#45;&gt;Node11</title>
<path fill="none" stroke="midnightblue" d="M494.5,-56.083C494.5,-49.0059 494.5,-38.8611 494.5,-29.9865"/>
<polygon fill="midnightblue" stroke="midnightblue" points="498,-29.751 494.5,-19.7511 491,-29.7511 498,-29.751"/>
</g>
<!-- Node12 -->
<g id="node13" class="node"><title>Node12</title>
<polygon fill="white" stroke="#bfbfbf" points="536.5,-0.5 536.5,-19.5 634.5,-19.5 634.5,-0.5 536.5,-0.5"/>
<text text-anchor="middle" x="585.5" y="-7.5" font-family="Helvetica,sans-Serif" font-size="10.00">tr1/unordered_map</text>
</g>
<!-- Node6&#45;&gt;Node12 -->
<g id="edge14" class="edge"><title>Node6&#45;&gt;Node12</title>
<path fill="none" stroke="midnightblue" d="M509.121,-56.324C523.449,-47.8215 545.513,-34.7288 562.249,-24.7975"/>
<polygon fill="midnightblue" stroke="midnightblue" points="564.102,-27.7677 570.916,-19.6545 560.53,-21.7478 564.102,-27.7677"/>
</g>
<!-- Node14&#45;&gt;Node1 -->
<g id="edge34" class="edge"><title>Node14&#45;&gt;Node1</title>
<path fill="none" stroke="midnightblue" d="M558.45,-169.32C493.554,-159.746 382.519,-143.363 311.378,-132.867"/>
<polygon fill="midnightblue" stroke="midnightblue" points="311.586,-129.36 301.182,-131.363 310.564,-136.285 311.586,-129.36"/>
</g>
<!-- Node14&#45;&gt;Node6 -->
<g id="edge26" class="edge"><title>Node14&#45;&gt;Node6</title>
<path fill="none" stroke="midnightblue" d="M558.245,-176.563C523.927,-173.206 481.308,-162.539 458.5,-132 446.711,-116.216 461.8,-96.1316 475.893,-82.4952"/>
<polygon fill="midnightblue" stroke="midnightblue" points="478.385,-84.9604 483.443,-75.6511 473.684,-79.7741 478.385,-84.9604"/>
</g>
<!-- Node14&#45;&gt;Node8 -->
<g id="edge17" class="edge"><title>Node14&#45;&gt;Node8</title>
<path fill="none" stroke="midnightblue" d="M662.674,-174.989C727.189,-171.278 831.453,-160.866 855.5,-132 882.931,-99.0721 840.984,-50.9825 815.207,-26.5272"/>
<polygon fill="midnightblue" stroke="midnightblue" points="817.552,-23.929 807.821,-19.7394 812.815,-29.0831 817.552,-23.929"/>
</g>
<!-- Node14&#45;&gt;Node10 -->
<g id="edge20" class="edge"><title>Node14&#45;&gt;Node10</title>
<path fill="none" stroke="midnightblue" d="M662.622,-174.923C765.51,-170.285 986.769,-157.438 1009.5,-132 1039.83,-98.0539 987.842,-49.7481 956.932,-25.7332"/>
<polygon fill="midnightblue" stroke="midnightblue" points="958.948,-22.8697 948.858,-19.6361 954.729,-28.4557 958.948,-22.8697"/>
</g>
<!-- Node14&#45;&gt;Node13 -->
<g id="edge21" class="edge"><title>Node14&#45;&gt;Node13</title>
<path fill="none" stroke="midnightblue" d="M558.187,-174.572C478.403,-170.208 321.502,-159.031 179.902,-131.949"/>
<polygon fill="midnightblue" stroke="midnightblue" points="180.218,-128.445 169.734,-129.971 178.882,-135.316 180.218,-128.445"/>
</g>
<!-- Node15 -->
<g id="node16" class="node"><title>Node15</title>
<polygon fill="white" stroke="#bfbfbf" points="792.5,-112.5 792.5,-131.5 846.5,-131.5 846.5,-112.5 792.5,-112.5"/>
<text text-anchor="middle" x="819.5" y="-119.5" font-family="Helvetica,sans-Serif" font-size="10.00">iostream</text>
</g>
<!-- Node14&#45;&gt;Node15 -->
<g id="edge18" class="edge"><title>Node14&#45;&gt;Node15</title>
<path fill="none" stroke="midnightblue" d="M643.617,-168.444C681.418,-158.677 743.089,-142.742 782.456,-132.571"/>
<polygon fill="midnightblue" stroke="midnightblue" points="783.393,-135.944 792.2,-130.054 781.642,-129.167 783.393,-135.944"/>
</g>
<!-- Node16 -->
<g id="node17" class="node"><title>Node16</title>
<polygon fill="white" stroke="#bfbfbf" points="903,-112.5 903,-131.5 932,-131.5 932,-112.5 903,-112.5"/>
<text text-anchor="middle" x="917.5" y="-119.5" font-family="Helvetica,sans-Serif" font-size="10.00">list</text>
</g>
<!-- Node14&#45;&gt;Node16 -->
<g id="edge19" class="edge"><title>Node14&#45;&gt;Node16</title>
<path fill="none" stroke="midnightblue" d="M662.676,-170.78C718.866,-163.565 810.679,-150.279 888.5,-132 889.975,-131.653 891.485,-131.271 893.003,-130.866"/>
<polygon fill="midnightblue" stroke="midnightblue" points="894.242,-134.15 902.857,-127.983 892.277,-127.432 894.242,-134.15"/>
</g>
<!-- Node17 -->
<g id="node18" class="node"><title>Node17</title>
<polygon fill="white" stroke="#bfbfbf" points="950,-112.5 950,-131.5 1001,-131.5 1001,-112.5 950,-112.5"/>
<text text-anchor="middle" x="975.5" y="-119.5" font-family="Helvetica,sans-Serif" font-size="10.00">typeinfo</text>
</g>
<!-- Node14&#45;&gt;Node17 -->
<g id="edge22" class="edge"><title>Node14&#45;&gt;Node17</title>
<path fill="none" stroke="midnightblue" d="M662.535,-171.795C725.781,-165.049 835.894,-151.958 939.918,-131.895"/>
<polygon fill="midnightblue" stroke="midnightblue" points="940.821,-135.285 949.964,-129.932 939.478,-128.415 940.821,-135.285"/>
</g>
<!-- Node18 -->
<g id="node19" class="node"><title>Node18</title>
<g id="a_node19"><a xlink:href="openmp__mutex_8h.html" target="_top" xlink:title="openmp_mutex.h">
<polygon fill="white" stroke="black" points="319.5,-112.5 319.5,-131.5 411.5,-131.5 411.5,-112.5 319.5,-112.5"/>
<text text-anchor="middle" x="365.5" y="-119.5" font-family="Helvetica,sans-Serif" font-size="10.00">openmp_mutex.h</text>
</a>
</g>
</g>
<!-- Node14&#45;&gt;Node18 -->
<g id="edge23" class="edge"><title>Node14&#45;&gt;Node18</title>
<path fill="none" stroke="midnightblue" d="M571.679,-168.444C528.939,-159.023 460.168,-143.866 413.934,-133.675"/>
<polygon fill="midnightblue" stroke="midnightblue" points="414.658,-130.251 404.139,-131.516 413.152,-137.087 414.658,-130.251"/>
</g>
<!-- Node20 -->
<g id="node21" class="node"><title>Node20</title>
<g id="a_node21"><a xlink:href="parameter_8h.html" target="_top" xlink:title="parameter.h">
<polygon fill="white" stroke="black" points="467.5,-112.5 467.5,-131.5 535.5,-131.5 535.5,-112.5 467.5,-112.5"/>
<text text-anchor="middle" x="501.5" y="-119.5" font-family="Helvetica,sans-Serif" font-size="10.00">parameter.h</text>
</a>
</g>
</g>
<!-- Node14&#45;&gt;Node20 -->
<g id="edge27" class="edge"><title>Node14&#45;&gt;Node20</title>
<path fill="none" stroke="midnightblue" d="M592.987,-168.324C575.428,-159.625 548.169,-146.12 527.969,-136.113"/>
<polygon fill="midnightblue" stroke="midnightblue" points="529.484,-132.958 518.969,-131.655 526.376,-139.23 529.484,-132.958"/>
</g>
<!-- Node22 -->
<g id="node23" class="node"><title>Node22</title>
<g id="a_node23"><a xlink:href="parameter__container_8h.html" target="_top" xlink:title="parameter_container.h">
<polygon fill="white" stroke="black" points="554,-112.5 554,-131.5 667,-131.5 667,-112.5 554,-112.5"/>
<text text-anchor="middle" x="610.5" y="-119.5" font-family="Helvetica,sans-Serif" font-size="10.00">parameter_container.h</text>
</a>
</g>
</g>
<!-- Node14&#45;&gt;Node22 -->
<g id="edge30" class="edge"><title>Node14&#45;&gt;Node22</title>
<path fill="none" stroke="midnightblue" d="M610.5,-168.083C610.5,-161.006 610.5,-150.861 610.5,-141.986"/>
<polygon fill="midnightblue" stroke="midnightblue" points="614,-141.751 610.5,-131.751 607,-141.751 614,-141.751"/>
</g>
<!-- Node24 -->
<g id="node25" class="node"><title>Node24</title>
<g id="a_node25"><a xlink:href="macros_8h.html" target="_top" xlink:title="../stuff/macros.h">
<polygon fill="white" stroke="black" points="685,-112.5 685,-131.5 774,-131.5 774,-112.5 685,-112.5"/>
<text text-anchor="middle" x="729.5" y="-119.5" font-family="Helvetica,sans-Serif" font-size="10.00">../stuff/macros.h</text>
</a>
</g>
</g>
<!-- Node14&#45;&gt;Node24 -->
<g id="edge35" class="edge"><title>Node14&#45;&gt;Node24</title>
<path fill="none" stroke="midnightblue" d="M629.356,-168.444C648.766,-159.636 679.23,-145.812 701.465,-135.722"/>
<polygon fill="midnightblue" stroke="midnightblue" points="703.072,-138.836 710.732,-131.516 700.18,-132.462 703.072,-138.836"/>
</g>
<!-- Node18&#45;&gt;Node5 -->
<g id="edge25" class="edge"><title>Node18&#45;&gt;Node5</title>
<path fill="none" stroke="midnightblue" d="M363.46,-112.368C359.264,-94.617 349.585,-53.6664 343.896,-29.5974"/>
<polygon fill="midnightblue" stroke="midnightblue" points="347.237,-28.5182 341.531,-19.5914 340.425,-30.1284 347.237,-28.5182"/>
</g>
<!-- Node19 -->
<g id="node20" class="node"><title>Node19</title>
<g id="a_node20"><a xlink:href="config_8h.html" target="_top" xlink:title="../../config.h">
<polygon fill="white" stroke="black" points="368,-56.5 368,-75.5 437,-75.5 437,-56.5 368,-56.5"/>
<text text-anchor="middle" x="402.5" y="-63.5" font-family="Helvetica,sans-Serif" font-size="10.00">../../config.h</text>
</a>
</g>
</g>
<!-- Node18&#45;&gt;Node19 -->
<g id="edge24" class="edge"><title>Node18&#45;&gt;Node19</title>
<path fill="none" stroke="midnightblue" d="M371.61,-112.083C376.782,-104.534 384.346,-93.4948 390.694,-84.2298"/>
<polygon fill="midnightblue" stroke="midnightblue" points="393.739,-85.9787 396.504,-75.7511 387.964,-82.0221 393.739,-85.9787"/>
</g>
<!-- Node20&#45;&gt;Node6 -->
<g id="edge29" class="edge"><title>Node20&#45;&gt;Node6</title>
<path fill="none" stroke="midnightblue" d="M500.344,-112.083C499.416,-104.927 498.082,-94.6353 496.923,-85.6911"/>
<polygon fill="midnightblue" stroke="midnightblue" points="500.391,-85.2181 495.634,-75.7511 493.449,-86.1181 500.391,-85.2181"/>
</g>
<!-- Node21 -->
<g id="node22" class="node"><title>Node21</title>
<polygon fill="white" stroke="#bfbfbf" points="552,-56.5 552,-75.5 597,-75.5 597,-56.5 552,-56.5"/>
<text text-anchor="middle" x="574.5" y="-63.5" font-family="Helvetica,sans-Serif" font-size="10.00">iosfwd</text>
</g>
<!-- Node20&#45;&gt;Node21 -->
<g id="edge28" class="edge"><title>Node20&#45;&gt;Node21</title>
<path fill="none" stroke="midnightblue" d="M513.229,-112.324C524.337,-104.107 541.242,-91.6017 554.483,-81.8069"/>
<polygon fill="midnightblue" stroke="midnightblue" points="556.6,-84.5948 562.558,-75.8339 552.437,-78.9671 556.6,-84.5948"/>
</g>
<!-- Node22&#45;&gt;Node7 -->
<g id="edge32" class="edge"><title>Node22&#45;&gt;Node7</title>
<path fill="none" stroke="midnightblue" d="M625.793,-112.335C638.209,-104.477 655.14,-91.7313 664.5,-76 672.867,-61.9377 675.95,-43.4444 677.037,-29.7804"/>
<polygon fill="midnightblue" stroke="midnightblue" points="680.541,-29.8068 677.554,-19.6417 673.55,-29.4507 680.541,-29.8068"/>
</g>
<!-- Node22&#45;&gt;Node21 -->
<g id="edge31" class="edge"><title>Node22&#45;&gt;Node21</title>
<path fill="none" stroke="midnightblue" d="M604.555,-112.083C599.523,-104.534 592.163,-93.4948 585.987,-84.2298"/>
<polygon fill="midnightblue" stroke="midnightblue" points="588.793,-82.1301 580.334,-75.7511 582.969,-86.0131 588.793,-82.1301"/>
</g>
<!-- Node23 -->
<g id="node24" class="node"><title>Node23</title>
<polygon fill="white" stroke="#bfbfbf" points="615,-56.5 615,-75.5 656,-75.5 656,-56.5 615,-56.5"/>
<text text-anchor="middle" x="635.5" y="-63.5" font-family="Helvetica,sans-Serif" font-size="10.00">string</text>
</g>
<!-- Node22&#45;&gt;Node23 -->
<g id="edge33" class="edge"><title>Node22&#45;&gt;Node23</title>
<path fill="none" stroke="midnightblue" d="M614.628,-112.083C618.014,-104.77 622.916,-94.1814 627.119,-85.1034"/>
<polygon fill="midnightblue" stroke="midnightblue" points="630.423,-86.2962 631.449,-75.7511 624.071,-83.3553 630.423,-86.2962"/>
</g>
<!-- Node25 -->
<g id="node26" class="node"><title>Node25</title>
<polygon fill="white" stroke="#bfbfbf" points="713,-56.5 713,-75.5 760,-75.5 760,-56.5 713,-56.5"/>
<text text-anchor="middle" x="736.5" y="-63.5" font-family="Helvetica,sans-Serif" font-size="10.00">math.h</text>
</g>
<!-- Node24&#45;&gt;Node25 -->
<g id="edge36" class="edge"><title>Node24&#45;&gt;Node25</title>
<path fill="none" stroke="midnightblue" d="M730.656,-112.083C731.584,-104.927 732.918,-94.6353 734.077,-85.6911"/>
<polygon fill="midnightblue" stroke="midnightblue" points="737.551,-86.1181 735.366,-75.7511 730.609,-85.2181 737.551,-86.1181"/>
</g>
</g>
</svg>
