<?xml version="1.0" encoding="UTF-8" standalone="no"?>
<!DOCTYPE svg PUBLIC "-//W3C//DTD SVG 1.1//EN"
 "http://www.w3.org/Graphics/SVG/1.1/DTD/svg11.dtd">
<!-- Generated by graphviz version 2.38.0 (20140413.2041)
 -->
<!-- Title: /home/alejandro/Desarrollo eclipse/os1/Thirdparty/g2o/g2o/core/linear_solver.h Pages: 1 -->
<svg width="905pt" height="285pt"
 viewBox="0.00 0.00 904.62 285.00" xmlns="http://www.w3.org/2000/svg" xmlns:xlink="http://www.w3.org/1999/xlink">
<g id="graph0" class="graph" transform="scale(1 1) rotate(0) translate(4 281)">
<title>/home/alejandro/Desarrollo eclipse/os1/Thirdparty/g2o/g2o/core/linear_solver.h</title>
<polygon fill="white" stroke="none" points="-4,4 -4,-281 900.624,-281 900.624,4 -4,4"/>
<!-- Node0 -->
<g id="node1" class="node"><title>Node0</title>
<polygon fill="#bfbfbf" stroke="black" points="304,-235.5 304,-276.5 446,-276.5 446,-235.5 304,-235.5"/>
<text text-anchor="start" x="312" y="-264.5" font-family="Helvetica,sans-Serif" font-size="10.00">/home/alejandro/Desarrollo</text>
<text text-anchor="start" x="312" y="-253.5" font-family="Helvetica,sans-Serif" font-size="10.00"> eclipse/os1/Thirdparty</text>
<text text-anchor="middle" x="375" y="-242.5" font-family="Helvetica,sans-Serif" font-size="10.00">/g2o/g2o/core/linear_solver.h</text>
</g>
<!-- Node1 -->
<g id="node2" class="node"><title>Node1</title>
<g id="a_node2"><a xlink:href="sparse__block__matrix_8h.html" target="_top" xlink:title="sparse_block_matrix.h">
<polygon fill="white" stroke="black" points="399.5,-179.5 399.5,-198.5 514.5,-198.5 514.5,-179.5 399.5,-179.5"/>
<text text-anchor="middle" x="457" y="-186.5" font-family="Helvetica,sans-Serif" font-size="10.00">sparse_block_matrix.h</text>
</a>
</g>
</g>
<!-- Node0&#45;&gt;Node1 -->
<g id="edge1" class="edge"><title>Node0&#45;&gt;Node1</title>
<path fill="none" stroke="midnightblue" d="M399.603,-235.498C411.933,-225.724 426.632,-214.072 438.069,-205.007"/>
<polygon fill="midnightblue" stroke="midnightblue" points="440.422,-207.607 446.085,-198.652 436.074,-202.122 440.422,-207.607"/>
</g>
<!-- Node9 -->
<g id="node10" class="node"><title>Node9</title>
<g id="a_node10"><a xlink:href="sparse__block__matrix__ccs_8h.html" target="_top" xlink:title="sparse_block_matrix\l_ccs.h">
<polygon fill="white" stroke="black" points="160.5,-112.5 160.5,-142.5 267.5,-142.5 267.5,-112.5 160.5,-112.5"/>
<text text-anchor="start" x="168.5" y="-130.5" font-family="Helvetica,sans-Serif" font-size="10.00">sparse_block_matrix</text>
<text text-anchor="middle" x="214" y="-119.5" font-family="Helvetica,sans-Serif" font-size="10.00">_ccs.h</text>
</a>
</g>
</g>
<!-- Node0&#45;&gt;Node9 -->
<g id="edge21" class="edge"><title>Node0&#45;&gt;Node9</title>
<path fill="none" stroke="midnightblue" d="M349.844,-235.234C319.933,-211.733 270.265,-172.708 239.992,-148.922"/>
<polygon fill="midnightblue" stroke="midnightblue" points="242.026,-146.069 232,-142.643 237.701,-151.573 242.026,-146.069"/>
</g>
<!-- Node2 -->
<g id="node3" class="node"><title>Node2</title>
<polygon fill="white" stroke="#bfbfbf" points="826.5,-118 826.5,-137 861.5,-137 861.5,-118 826.5,-118"/>
<text text-anchor="middle" x="844" y="-125" font-family="Helvetica,sans-Serif" font-size="10.00">map</text>
</g>
<!-- Node1&#45;&gt;Node2 -->
<g id="edge2" class="edge"><title>Node1&#45;&gt;Node2</title>
<path fill="none" stroke="midnightblue" d="M514.749,-187.561C587.287,-185.494 714.759,-176.798 818,-143 819.243,-142.593 820.495,-142.125 821.741,-141.611"/>
<polygon fill="midnightblue" stroke="midnightblue" points="823.542,-144.625 830.957,-137.058 820.441,-138.349 823.542,-144.625"/>
</g>
<!-- Node3 -->
<g id="node4" class="node"><title>Node3</title>
<polygon fill="white" stroke="#bfbfbf" points="274,-56.5 274,-75.5 318,-75.5 318,-56.5 274,-56.5"/>
<text text-anchor="middle" x="296" y="-63.5" font-family="Helvetica,sans-Serif" font-size="10.00">vector</text>
</g>
<!-- Node1&#45;&gt;Node3 -->
<g id="edge3" class="edge"><title>Node1&#45;&gt;Node3</title>
<path fill="none" stroke="midnightblue" d="M418.64,-179.467C394.856,-172.677 364.791,-161.222 343,-143 324.275,-127.341 310.813,-102.221 303.218,-85.1851"/>
<polygon fill="midnightblue" stroke="midnightblue" points="306.362,-83.6343 299.252,-75.7794 299.912,-86.3537 306.362,-83.6343"/>
</g>
<!-- Node4 -->
<g id="node5" class="node"><title>Node4</title>
<polygon fill="white" stroke="#bfbfbf" points="362,-118 362,-137 412,-137 412,-118 362,-118"/>
<text text-anchor="middle" x="387" y="-125" font-family="Helvetica,sans-Serif" font-size="10.00">fstream</text>
</g>
<!-- Node1&#45;&gt;Node4 -->
<g id="edge4" class="edge"><title>Node1&#45;&gt;Node4</title>
<path fill="none" stroke="midnightblue" d="M446.971,-179.475C435.951,-170.108 418.04,-154.884 404.657,-143.508"/>
<polygon fill="midnightblue" stroke="midnightblue" points="406.897,-140.819 397.011,-137.009 402.363,-146.152 406.897,-140.819"/>
</g>
<!-- Node5 -->
<g id="node6" class="node"><title>Node5</title>
<polygon fill="white" stroke="#bfbfbf" points="430,-118 430,-137 484,-137 484,-118 430,-118"/>
<text text-anchor="middle" x="457" y="-125" font-family="Helvetica,sans-Serif" font-size="10.00">iostream</text>
</g>
<!-- Node1&#45;&gt;Node5 -->
<g id="edge5" class="edge"><title>Node1&#45;&gt;Node5</title>
<path fill="none" stroke="midnightblue" d="M457,-179.475C457,-171.08 457,-157.981 457,-147.163"/>
<polygon fill="midnightblue" stroke="midnightblue" points="460.5,-147.009 457,-137.009 453.5,-147.009 460.5,-147.009"/>
</g>
<!-- Node6 -->
<g id="node7" class="node"><title>Node6</title>
<polygon fill="white" stroke="#bfbfbf" points="502,-118 502,-137 552,-137 552,-118 502,-118"/>
<text text-anchor="middle" x="527" y="-125" font-family="Helvetica,sans-Serif" font-size="10.00">iomanip</text>
</g>
<!-- Node1&#45;&gt;Node6 -->
<g id="edge6" class="edge"><title>Node1&#45;&gt;Node6</title>
<path fill="none" stroke="midnightblue" d="M467.029,-179.475C478.049,-170.108 495.96,-154.884 509.343,-143.508"/>
<polygon fill="midnightblue" stroke="midnightblue" points="511.637,-146.152 516.989,-137.009 507.103,-140.819 511.637,-146.152"/>
</g>
<!-- Node7 -->
<g id="node8" class="node"><title>Node7</title>
<polygon fill="white" stroke="#bfbfbf" points="336.5,-56.5 336.5,-75.5 385.5,-75.5 385.5,-56.5 336.5,-56.5"/>
<text text-anchor="middle" x="361" y="-63.5" font-family="Helvetica,sans-Serif" font-size="10.00">cassert</text>
</g>
<!-- Node1&#45;&gt;Node7 -->
<g id="edge7" class="edge"><title>Node1&#45;&gt;Node7</title>
<path fill="none" stroke="midnightblue" d="M408.951,-179.458C388.058,-173.101 365.53,-162.074 353,-143 341.766,-125.899 346.971,-101.821 352.885,-85.3782"/>
<polygon fill="midnightblue" stroke="midnightblue" points="356.241,-86.4101 356.708,-75.8255 349.743,-83.8091 356.241,-86.4101"/>
</g>
<!-- Node8 -->
<g id="node9" class="node"><title>Node8</title>
<polygon fill="white" stroke="#bfbfbf" points="197.5,-0.5 197.5,-19.5 294.5,-19.5 294.5,-0.5 197.5,-0.5"/>
<text text-anchor="middle" x="246" y="-7.5" font-family="Helvetica,sans-Serif" font-size="10.00">eigen3/Eigen/Core</text>
</g>
<!-- Node1&#45;&gt;Node8 -->
<g id="edge8" class="edge"><title>Node1&#45;&gt;Node8</title>
<path fill="none" stroke="midnightblue" d="M514.836,-186.214C627.01,-182.152 865.33,-170.366 890,-143 899.225,-132.766 898.282,-123.011 890,-112 820.41,-19.4809 450.735,-10.333 305.065,-10.3901"/>
<polygon fill="midnightblue" stroke="midnightblue" points="304.964,-6.89018 294.971,-10.4091 304.977,-13.8902 304.964,-6.89018"/>
</g>
<!-- Node1&#45;&gt;Node9 -->
<g id="edge9" class="edge"><title>Node1&#45;&gt;Node9</title>
<path fill="none" stroke="midnightblue" d="M422.184,-179.475C384.527,-170.255 323.69,-155.358 277.483,-144.044"/>
<polygon fill="midnightblue" stroke="midnightblue" points="278.108,-140.594 267.562,-141.615 276.443,-147.393 278.108,-140.594"/>
</g>
<!-- Node10 -->
<g id="node11" class="node"><title>Node10</title>
<g id="a_node11"><a xlink:href="config_8h.html" target="_top" xlink:title="../../config.h">
<polygon fill="white" stroke="black" points="617.5,-56.5 617.5,-75.5 686.5,-75.5 686.5,-56.5 617.5,-56.5"/>
<text text-anchor="middle" x="652" y="-63.5" font-family="Helvetica,sans-Serif" font-size="10.00">../../config.h</text>
</a>
</g>
</g>
<!-- Node1&#45;&gt;Node10 -->
<g id="edge19" class="edge"><title>Node1&#45;&gt;Node10</title>
<path fill="none" stroke="midnightblue" d="M514.804,-185.918C623.068,-181.421 847.644,-169.032 871,-143 922.443,-85.6628 774.533,-71.5794 696.617,-68.1228"/>
<polygon fill="midnightblue" stroke="midnightblue" points="696.703,-64.6235 686.57,-67.7185 696.421,-71.6178 696.703,-64.6235"/>
</g>
<!-- Node11 -->
<g id="node12" class="node"><title>Node11</title>
<g id="a_node12"><a xlink:href="matrix__operations_8h.html" target="_top" xlink:title="matrix_operations.h">
<polygon fill="white" stroke="black" points="0,-56.5 0,-75.5 102,-75.5 102,-56.5 0,-56.5"/>
<text text-anchor="middle" x="51" y="-63.5" font-family="Helvetica,sans-Serif" font-size="10.00">matrix_operations.h</text>
</a>
</g>
</g>
<!-- Node1&#45;&gt;Node11 -->
<g id="edge18" class="edge"><title>Node1&#45;&gt;Node11</title>
<path fill="none" stroke="midnightblue" d="M399.453,-187.999C336.185,-186.103 232.676,-177.334 151,-143 117.379,-128.867 85.006,-100.762 66.6005,-82.9735"/>
<polygon fill="midnightblue" stroke="midnightblue" points="68.9571,-80.3814 59.3882,-75.8329 64.0321,-85.3558 68.9571,-80.3814"/>
</g>
<!-- Node13 -->
<g id="node14" class="node"><title>Node13</title>
<g id="a_node14"><a xlink:href="matrix__structure_8h.html" target="_top" xlink:title="matrix_structure.h">
<polygon fill="white" stroke="black" points="570.5,-118 570.5,-137 665.5,-137 665.5,-118 570.5,-118"/>
<text text-anchor="middle" x="618" y="-125" font-family="Helvetica,sans-Serif" font-size="10.00">matrix_structure.h</text>
</a>
</g>
</g>
<!-- Node1&#45;&gt;Node13 -->
<g id="edge17" class="edge"><title>Node1&#45;&gt;Node13</title>
<path fill="none" stroke="midnightblue" d="M480.067,-179.475C507.685,-169.269 554.12,-152.108 585.396,-140.549"/>
<polygon fill="midnightblue" stroke="midnightblue" points="586.809,-143.759 594.975,-137.009 584.382,-137.193 586.809,-143.759"/>
</g>
<!-- Node14 -->
<g id="node15" class="node"><title>Node14</title>
<g id="a_node15"><a xlink:href="sparse__block__matrix_8hpp.html" target="_top" xlink:title="sparse_block_matrix.hpp">
<polygon fill="white" stroke="black" points="683.5,-118 683.5,-137 808.5,-137 808.5,-118 683.5,-118"/>
<text text-anchor="middle" x="746" y="-125" font-family="Helvetica,sans-Serif" font-size="10.00">sparse_block_matrix.hpp</text>
</a>
</g>
</g>
<!-- Node1&#45;&gt;Node14 -->
<g id="edge20" class="edge"><title>Node1&#45;&gt;Node14</title>
<path fill="none" stroke="midnightblue" d="M498.407,-179.475C550.126,-168.827 638.613,-150.609 694.609,-139.081"/>
<polygon fill="midnightblue" stroke="midnightblue" points="695.581,-142.454 704.67,-137.009 694.17,-135.598 695.581,-142.454"/>
</g>
<!-- Node9&#45;&gt;Node3 -->
<g id="edge10" class="edge"><title>Node9&#45;&gt;Node3</title>
<path fill="none" stroke="midnightblue" d="M233.433,-112.399C246.208,-103.129 262.889,-91.0254 275.814,-81.6469"/>
<polygon fill="midnightblue" stroke="midnightblue" points="278.03,-84.3635 284.068,-75.6578 273.919,-78.6979 278.03,-84.3635"/>
</g>
<!-- Node9&#45;&gt;Node7 -->
<g id="edge11" class="edge"><title>Node9&#45;&gt;Node7</title>
<path fill="none" stroke="midnightblue" d="M248.837,-112.399C273.501,-102.416 306.285,-89.1465 330.035,-79.5335"/>
<polygon fill="midnightblue" stroke="midnightblue" points="331.654,-82.6541 339.61,-75.6578 329.028,-76.1654 331.654,-82.6541"/>
</g>
<!-- Node9&#45;&gt;Node8 -->
<g id="edge12" class="edge"><title>Node9&#45;&gt;Node8</title>
<path fill="none" stroke="midnightblue" d="M217.924,-112.337C223.689,-91.5271 234.457,-52.6632 240.851,-29.5834"/>
<polygon fill="midnightblue" stroke="midnightblue" points="244.301,-30.2409 243.598,-19.6695 237.555,-28.3719 244.301,-30.2409"/>
</g>
<!-- Node9&#45;&gt;Node10 -->
<g id="edge13" class="edge"><title>Node9&#45;&gt;Node10</title>
<path fill="none" stroke="midnightblue" d="M267.707,-119.204C354.936,-107.355 525.81,-84.1423 607.041,-73.1074"/>
<polygon fill="midnightblue" stroke="midnightblue" points="607.987,-76.5111 617.425,-71.6968 607.045,-69.5748 607.987,-76.5111"/>
</g>
<!-- Node9&#45;&gt;Node11 -->
<g id="edge14" class="edge"><title>Node9&#45;&gt;Node11</title>
<path fill="none" stroke="midnightblue" d="M175.371,-112.399C147.656,-102.283 110.695,-88.7905 84.2829,-79.1493"/>
<polygon fill="midnightblue" stroke="midnightblue" points="85.3118,-75.799 74.7179,-75.6578 82.9115,-82.3746 85.3118,-75.799"/>
</g>
<!-- Node12 -->
<g id="node13" class="node"><title>Node12</title>
<polygon fill="white" stroke="#bfbfbf" points="120,-56.5 120,-75.5 218,-75.5 218,-56.5 120,-56.5"/>
<text text-anchor="middle" x="169" y="-63.5" font-family="Helvetica,sans-Serif" font-size="10.00">tr1/unordered_map</text>
</g>
<!-- Node9&#45;&gt;Node12 -->
<g id="edge16" class="edge"><title>Node9&#45;&gt;Node12</title>
<path fill="none" stroke="midnightblue" d="M203.336,-112.399C196.864,-103.842 188.566,-92.8708 181.749,-83.857"/>
<polygon fill="midnightblue" stroke="midnightblue" points="184.372,-81.5223 175.548,-75.6578 178.789,-85.7449 184.372,-81.5223"/>
</g>
<!-- Node11&#45;&gt;Node8 -->
<g id="edge15" class="edge"><title>Node11&#45;&gt;Node8</title>
<path fill="none" stroke="midnightblue" d="M81.8983,-56.4435C115.274,-47.2011 168.594,-32.4356 205.349,-22.2572"/>
<polygon fill="midnightblue" stroke="midnightblue" points="206.543,-25.5583 215.246,-19.5164 204.675,-18.8122 206.543,-25.5583"/>
</g>
</g>
</svg>
