<?xml version="1.0" encoding="UTF-8" standalone="no"?>
<!DOCTYPE svg PUBLIC "-//W3C//DTD SVG 1.1//EN"
 "http://www.w3.org/Graphics/SVG/1.1/DTD/svg11.dtd">
<!-- Generated by graphviz version 2.38.0 (20140413.2041)
 -->
<!-- Title: /home/alejandro/Desarrollo eclipse/os1/Thirdparty/g2o/g2o/stuff/misc.h Pages: 1 -->
<svg width="1528pt" height="317pt"
 viewBox="0.00 0.00 1528.00 317.00" xmlns="http://www.w3.org/2000/svg" xmlns:xlink="http://www.w3.org/1999/xlink">
<g id="graph0" class="graph" transform="scale(1 1) rotate(0) translate(4 313)">
<title>/home/alejandro/Desarrollo eclipse/os1/Thirdparty/g2o/g2o/stuff/misc.h</title>
<polygon fill="white" stroke="none" points="-4,4 -4,-313 1524,-313 1524,4 -4,4"/>
<!-- Node4 -->
<g id="node1" class="node"><title>Node4</title>
<polygon fill="#bfbfbf" stroke="black" points="958.5,-267.5 958.5,-308.5 1091.5,-308.5 1091.5,-267.5 958.5,-267.5"/>
<text text-anchor="start" x="966.5" y="-296.5" font-family="Helvetica,sans-Serif" font-size="10.00">/home/alejandro/Desarrollo</text>
<text text-anchor="start" x="966.5" y="-285.5" font-family="Helvetica,sans-Serif" font-size="10.00"> eclipse/os1/Thirdparty</text>
<text text-anchor="middle" x="1025" y="-274.5" font-family="Helvetica,sans-Serif" font-size="10.00">/g2o/g2o/stuff/misc.h</text>
</g>
<!-- Node5 -->
<g id="node2" class="node"><title>Node5</title>
<g id="a_node2"><a xlink:href="block__solver_8hpp.html" target="_top" xlink:title="/home/alejandro/Desarrollo\l eclipse/os1/Thirdparty\l/g2o/g2o/core/block_solver.hpp">
<polygon fill="white" stroke="black" points="325,-184 325,-225 477,-225 477,-184 325,-184"/>
<text text-anchor="start" x="333" y="-213" font-family="Helvetica,sans-Serif" font-size="10.00">/home/alejandro/Desarrollo</text>
<text text-anchor="start" x="333" y="-202" font-family="Helvetica,sans-Serif" font-size="10.00"> eclipse/os1/Thirdparty</text>
<text text-anchor="middle" x="401" y="-191" font-family="Helvetica,sans-Serif" font-size="10.00">/g2o/g2o/core/block_solver.hpp</text>
</a>
</g>
</g>
<!-- Node4&#45;&gt;Node5 -->
<g id="edge1" class="edge"><title>Node4&#45;&gt;Node5</title>
<path fill="none" stroke="midnightblue" d="M948.005,-276.944C827.883,-261.255 597.263,-231.134 477.466,-215.487"/>
<polygon fill="midnightblue" stroke="midnightblue" points="947.852,-280.453 958.221,-278.278 948.759,-273.512 947.852,-280.453"/>
</g>
<!-- Node9 -->
<g id="node6" class="node"><title>Node9</title>
<g id="a_node6"><a xlink:href="factory_8h.html" target="_top" xlink:title="/home/alejandro/Desarrollo\l eclipse/os1/Thirdparty\l/g2o/g2o/core/factory.h">
<polygon fill="white" stroke="black" points="657.5,-184 657.5,-225 790.5,-225 790.5,-184 657.5,-184"/>
<text text-anchor="start" x="665.5" y="-213" font-family="Helvetica,sans-Serif" font-size="10.00">/home/alejandro/Desarrollo</text>
<text text-anchor="start" x="665.5" y="-202" font-family="Helvetica,sans-Serif" font-size="10.00"> eclipse/os1/Thirdparty</text>
<text text-anchor="middle" x="724" y="-191" font-family="Helvetica,sans-Serif" font-size="10.00">/g2o/g2o/core/factory.h</text>
</a>
</g>
</g>
<!-- Node4&#45;&gt;Node9 -->
<g id="edge5" class="edge"><title>Node4&#45;&gt;Node9</title>
<path fill="none" stroke="midnightblue" d="M948.339,-266.243C899.644,-253.058 837.239,-236.161 790.615,-223.537"/>
<polygon fill="midnightblue" stroke="midnightblue" points="947.631,-269.677 958.198,-268.913 949.461,-262.921 947.631,-269.677"/>
</g>
<!-- Node12 -->
<g id="node9" class="node"><title>Node12</title>
<g id="a_node9"><a xlink:href="optimizable__graph_8cpp.html" target="_top" xlink:title="/home/alejandro/Desarrollo\l eclipse/os1/Thirdparty\l/g2o/g2o/core/optimizable\l_graph.cpp">
<polygon fill="white" stroke="black" points="897.5,-89.5 897.5,-141.5 1030.5,-141.5 1030.5,-89.5 897.5,-89.5"/>
<text text-anchor="start" x="905.5" y="-129.5" font-family="Helvetica,sans-Serif" font-size="10.00">/home/alejandro/Desarrollo</text>
<text text-anchor="start" x="905.5" y="-118.5" font-family="Helvetica,sans-Serif" font-size="10.00"> eclipse/os1/Thirdparty</text>
<text text-anchor="start" x="905.5" y="-107.5" font-family="Helvetica,sans-Serif" font-size="10.00">/g2o/g2o/core/optimizable</text>
<text text-anchor="middle" x="964" y="-96.5" font-family="Helvetica,sans-Serif" font-size="10.00">_graph.cpp</text>
</a>
</g>
</g>
<!-- Node4&#45;&gt;Node12 -->
<g id="edge11" class="edge"><title>Node4&#45;&gt;Node12</title>
<path fill="none" stroke="midnightblue" d="M1013.88,-257.728C1010.65,-249.131 1007.15,-239.701 1004,-231 992.887,-200.312 980.568,-164.811 972.577,-141.574"/>
<polygon fill="midnightblue" stroke="midnightblue" points="1010.7,-259.221 1017.5,-267.344 1017.25,-256.752 1010.7,-259.221"/>
</g>
<!-- Node15 -->
<g id="node12" class="node"><title>Node15</title>
<g id="a_node12"><a xlink:href="optimization__algorithm__factory_8h.html" target="_top" xlink:title="/home/alejandro/Desarrollo\l eclipse/os1/Thirdparty\l/g2o/g2o/core/optimization\l_algorithm_factory.h">
<polygon fill="white" stroke="black" points="1013.5,-178.5 1013.5,-230.5 1146.5,-230.5 1146.5,-178.5 1013.5,-178.5"/>
<text text-anchor="start" x="1021.5" y="-218.5" font-family="Helvetica,sans-Serif" font-size="10.00">/home/alejandro/Desarrollo</text>
<text text-anchor="start" x="1021.5" y="-207.5" font-family="Helvetica,sans-Serif" font-size="10.00"> eclipse/os1/Thirdparty</text>
<text text-anchor="start" x="1021.5" y="-196.5" font-family="Helvetica,sans-Serif" font-size="10.00">/g2o/g2o/core/optimization</text>
<text text-anchor="middle" x="1080" y="-185.5" font-family="Helvetica,sans-Serif" font-size="10.00">_algorithm_factory.h</text>
</a>
</g>
</g>
<!-- Node4&#45;&gt;Node15 -->
<g id="edge12" class="edge"><title>Node4&#45;&gt;Node15</title>
<path fill="none" stroke="midnightblue" d="M1044.01,-258.834C1050.2,-249.66 1057.03,-239.542 1063.06,-230.607"/>
<polygon fill="midnightblue" stroke="midnightblue" points="1041.01,-257.024 1038.31,-267.271 1046.81,-260.94 1041.01,-257.024"/>
</g>
<!-- Node17 -->
<g id="node14" class="node"><title>Node17</title>
<g id="a_node14"><a xlink:href="robust__kernel__factory_8h.html" target="_top" xlink:title="/home/alejandro/Desarrollo\l eclipse/os1/Thirdparty\l/g2o/g2o/core/robust_kernel\l_factory.h">
<polygon fill="white" stroke="black" points="1192.5,-178.5 1192.5,-230.5 1329.5,-230.5 1329.5,-178.5 1192.5,-178.5"/>
<text text-anchor="start" x="1200.5" y="-218.5" font-family="Helvetica,sans-Serif" font-size="10.00">/home/alejandro/Desarrollo</text>
<text text-anchor="start" x="1200.5" y="-207.5" font-family="Helvetica,sans-Serif" font-size="10.00"> eclipse/os1/Thirdparty</text>
<text text-anchor="start" x="1200.5" y="-196.5" font-family="Helvetica,sans-Serif" font-size="10.00">/g2o/g2o/core/robust_kernel</text>
<text text-anchor="middle" x="1261" y="-185.5" font-family="Helvetica,sans-Serif" font-size="10.00">_factory.h</text>
</a>
</g>
</g>
<!-- Node4&#45;&gt;Node17 -->
<g id="edge14" class="edge"><title>Node4&#45;&gt;Node17</title>
<path fill="none" stroke="midnightblue" d="M1091.11,-264.169C1122.67,-253.27 1160.42,-240.234 1192.31,-229.222"/>
<polygon fill="midnightblue" stroke="midnightblue" points="1089.84,-260.906 1081.53,-267.479 1092.12,-267.523 1089.84,-260.906"/>
</g>
<!-- Node20 -->
<g id="node17" class="node"><title>Node20</title>
<g id="a_node17"><a xlink:href="sparse__optimizer_8cpp.html" target="_top" xlink:title="/home/alejandro/Desarrollo\l eclipse/os1/Thirdparty\l/g2o/g2o/core/sparse_optimizer.cpp">
<polygon fill="white" stroke="black" points="1348,-184 1348,-225 1520,-225 1520,-184 1348,-184"/>
<text text-anchor="start" x="1356" y="-213" font-family="Helvetica,sans-Serif" font-size="10.00">/home/alejandro/Desarrollo</text>
<text text-anchor="start" x="1356" y="-202" font-family="Helvetica,sans-Serif" font-size="10.00"> eclipse/os1/Thirdparty</text>
<text text-anchor="middle" x="1434" y="-191" font-family="Helvetica,sans-Serif" font-size="10.00">/g2o/g2o/core/sparse_optimizer.cpp</text>
</a>
</g>
</g>
<!-- Node4&#45;&gt;Node20 -->
<g id="edge17" class="edge"><title>Node4&#45;&gt;Node20</title>
<path fill="none" stroke="midnightblue" d="M1101.77,-275.195C1165.57,-264.934 1258.58,-248.929 1339,-231 1347.08,-229.198 1355.51,-227.163 1363.87,-225.049"/>
<polygon fill="midnightblue" stroke="midnightblue" points="1101.11,-271.756 1091.79,-276.792 1102.22,-278.668 1101.11,-271.756"/>
</g>
<!-- Node6 -->
<g id="node3" class="node"><title>Node6</title>
<g id="a_node3"><a xlink:href="block__solver_8h.html" target="_top" xlink:title="/home/alejandro/Desarrollo\l eclipse/os1/Thirdparty\l/g2o/g2o/core/block_solver.h">
<polygon fill="white" stroke="black" points="79,-95 79,-136 221,-136 221,-95 79,-95"/>
<text text-anchor="start" x="87" y="-124" font-family="Helvetica,sans-Serif" font-size="10.00">/home/alejandro/Desarrollo</text>
<text text-anchor="start" x="87" y="-113" font-family="Helvetica,sans-Serif" font-size="10.00"> eclipse/os1/Thirdparty</text>
<text text-anchor="middle" x="150" y="-102" font-family="Helvetica,sans-Serif" font-size="10.00">/g2o/g2o/core/block_solver.h</text>
</a>
</g>
</g>
<!-- Node5&#45;&gt;Node6 -->
<g id="edge2" class="edge"><title>Node5&#45;&gt;Node6</title>
<path fill="none" stroke="midnightblue" d="M335.018,-180.63C295.083,-166.788 244.683,-149.319 206.575,-136.11"/>
<polygon fill="midnightblue" stroke="midnightblue" points="334.076,-184.007 344.671,-183.976 336.368,-177.393 334.076,-184.007"/>
</g>
<!-- Node7 -->
<g id="node4" class="node"><title>Node7</title>
<g id="a_node4"><a xlink:href="_optimizer_8cc.html" target="_top" xlink:title="/home/alejandro/Desarrollo\l eclipse/os1/src/Optimizer.cc">
<polygon fill="white" stroke="black" points="0,-11.5 0,-41.5 144,-41.5 144,-11.5 0,-11.5"/>
<text text-anchor="start" x="8" y="-29.5" font-family="Helvetica,sans-Serif" font-size="10.00">/home/alejandro/Desarrollo</text>
<text text-anchor="middle" x="72" y="-18.5" font-family="Helvetica,sans-Serif" font-size="10.00"> eclipse/os1/src/Optimizer.cc</text>
</a>
</g>
</g>
<!-- Node6&#45;&gt;Node7 -->
<g id="edge3" class="edge"><title>Node6&#45;&gt;Node7</title>
<path fill="none" stroke="midnightblue" d="M125.524,-87.2001C112.013,-72.1297 95.7879,-54.0326 84.7696,-41.743"/>
<polygon fill="midnightblue" stroke="midnightblue" points="123.019,-89.6491 132.301,-94.7584 128.231,-84.9762 123.019,-89.6491"/>
</g>
<!-- Node8 -->
<g id="node5" class="node"><title>Node8</title>
<g id="a_node5"><a xlink:href="optimization__algorithm__dogleg_8cpp.html" target="_top" xlink:title="/home/alejandro/Desarrollo\l eclipse/os1/Thirdparty\l/g2o/g2o/core/optimization\l_algorithm_dogleg.cpp">
<polygon fill="white" stroke="black" points="162.5,-0.5 162.5,-52.5 295.5,-52.5 295.5,-0.5 162.5,-0.5"/>
<text text-anchor="start" x="170.5" y="-40.5" font-family="Helvetica,sans-Serif" font-size="10.00">/home/alejandro/Desarrollo</text>
<text text-anchor="start" x="170.5" y="-29.5" font-family="Helvetica,sans-Serif" font-size="10.00"> eclipse/os1/Thirdparty</text>
<text text-anchor="start" x="170.5" y="-18.5" font-family="Helvetica,sans-Serif" font-size="10.00">/g2o/g2o/core/optimization</text>
<text text-anchor="middle" x="229" y="-7.5" font-family="Helvetica,sans-Serif" font-size="10.00">_algorithm_dogleg.cpp</text>
</a>
</g>
</g>
<!-- Node6&#45;&gt;Node8 -->
<g id="edge4" class="edge"><title>Node6&#45;&gt;Node8</title>
<path fill="none" stroke="midnightblue" d="M174.885,-87.0945C184.854,-76.1161 196.269,-63.5455 206.037,-52.7882"/>
<polygon fill="midnightblue" stroke="midnightblue" points="172.058,-85.0022 167.926,-94.7584 177.24,-89.708 172.058,-85.0022"/>
</g>
<!-- Node10 -->
<g id="node7" class="node"><title>Node10</title>
<g id="a_node7"><a xlink:href="cache_8cpp.html" target="_top" xlink:title="/home/alejandro/Desarrollo\l eclipse/os1/Thirdparty\l/g2o/g2o/core/cache.cpp">
<polygon fill="white" stroke="black" points="239.5,-95 239.5,-136 372.5,-136 372.5,-95 239.5,-95"/>
<text text-anchor="start" x="247.5" y="-124" font-family="Helvetica,sans-Serif" font-size="10.00">/home/alejandro/Desarrollo</text>
<text text-anchor="start" x="247.5" y="-113" font-family="Helvetica,sans-Serif" font-size="10.00"> eclipse/os1/Thirdparty</text>
<text text-anchor="middle" x="306" y="-102" font-family="Helvetica,sans-Serif" font-size="10.00">/g2o/g2o/core/cache.cpp</text>
</a>
</g>
</g>
<!-- Node9&#45;&gt;Node10 -->
<g id="edge6" class="edge"><title>Node9&#45;&gt;Node10</title>
<path fill="none" stroke="midnightblue" d="M647.228,-193.112C577.242,-182.847 471.31,-165.308 381,-142 374.342,-140.282 367.423,-138.262 360.6,-136.124"/>
<polygon fill="midnightblue" stroke="midnightblue" points="646.887,-196.6 657.287,-194.574 647.894,-189.672 646.887,-196.6"/>
</g>
<!-- Node11 -->
<g id="node8" class="node"><title>Node11</title>
<g id="a_node8"><a xlink:href="factory_8cpp.html" target="_top" xlink:title="/home/alejandro/Desarrollo\l eclipse/os1/Thirdparty\l/g2o/g2o/core/factory.cpp">
<polygon fill="white" stroke="black" points="390.5,-95 390.5,-136 523.5,-136 523.5,-95 390.5,-95"/>
<text text-anchor="start" x="398.5" y="-124" font-family="Helvetica,sans-Serif" font-size="10.00">/home/alejandro/Desarrollo</text>
<text text-anchor="start" x="398.5" y="-113" font-family="Helvetica,sans-Serif" font-size="10.00"> eclipse/os1/Thirdparty</text>
<text text-anchor="middle" x="457" y="-102" font-family="Helvetica,sans-Serif" font-size="10.00">/g2o/g2o/core/factory.cpp</text>
</a>
</g>
</g>
<!-- Node9&#45;&gt;Node11 -->
<g id="edge7" class="edge"><title>Node9&#45;&gt;Node11</title>
<path fill="none" stroke="midnightblue" d="M652.538,-180.718C616.633,-169.214 572.476,-154.978 533,-142 527.183,-140.088 521.12,-138.079 515.068,-136.064"/>
<polygon fill="midnightblue" stroke="midnightblue" points="651.844,-184.171 662.435,-183.887 653.979,-177.504 651.844,-184.171"/>
</g>
<!-- Node9&#45;&gt;Node12 -->
<g id="edge8" class="edge"><title>Node9&#45;&gt;Node12</title>
<path fill="none" stroke="midnightblue" d="M787.652,-180.426C821.531,-168.145 863.162,-153.054 897.465,-140.619"/>
<polygon fill="midnightblue" stroke="midnightblue" points="786.069,-177.277 777.861,-183.976 788.455,-183.858 786.069,-177.277"/>
</g>
<!-- Node13 -->
<g id="node10" class="node"><title>Node13</title>
<g id="a_node10"><a xlink:href="parameter__container_8cpp.html" target="_top" xlink:title="/home/alejandro/Desarrollo\l eclipse/os1/Thirdparty\l/g2o/g2o/core/parameter_container.cpp">
<polygon fill="white" stroke="black" points="542,-95 542,-136 728,-136 728,-95 542,-95"/>
<text text-anchor="start" x="550" y="-124" font-family="Helvetica,sans-Serif" font-size="10.00">/home/alejandro/Desarrollo</text>
<text text-anchor="start" x="550" y="-113" font-family="Helvetica,sans-Serif" font-size="10.00"> eclipse/os1/Thirdparty</text>
<text text-anchor="middle" x="635" y="-102" font-family="Helvetica,sans-Serif" font-size="10.00">/g2o/g2o/core/parameter_container.cpp</text>
</a>
</g>
</g>
<!-- Node9&#45;&gt;Node13 -->
<g id="edge9" class="edge"><title>Node9&#45;&gt;Node13</title>
<path fill="none" stroke="midnightblue" d="M696.648,-176.763C683.244,-163.66 667.39,-148.162 655.116,-136.164"/>
<polygon fill="midnightblue" stroke="midnightblue" points="694.207,-179.271 703.805,-183.758 699.1,-174.265 694.207,-179.271"/>
</g>
<!-- Node14 -->
<g id="node11" class="node"><title>Node14</title>
<g id="a_node11"><a xlink:href="types__six__dof__expmap_8cpp.html" target="_top" xlink:title="/home/alejandro/Desarrollo\l eclipse/os1/Thirdparty\l/g2o/g2o/types/types_six\l_dof_expmap.cpp">
<polygon fill="white" stroke="black" points="746.5,-89.5 746.5,-141.5 879.5,-141.5 879.5,-89.5 746.5,-89.5"/>
<text text-anchor="start" x="754.5" y="-129.5" font-family="Helvetica,sans-Serif" font-size="10.00">/home/alejandro/Desarrollo</text>
<text text-anchor="start" x="754.5" y="-118.5" font-family="Helvetica,sans-Serif" font-size="10.00"> eclipse/os1/Thirdparty</text>
<text text-anchor="start" x="754.5" y="-107.5" font-family="Helvetica,sans-Serif" font-size="10.00">/g2o/g2o/types/types_six</text>
<text text-anchor="middle" x="813" y="-96.5" font-family="Helvetica,sans-Serif" font-size="10.00">_dof_expmap.cpp</text>
</a>
</g>
</g>
<!-- Node9&#45;&gt;Node14 -->
<g id="edge10" class="edge"><title>Node9&#45;&gt;Node14</title>
<path fill="none" stroke="midnightblue" d="M751.383,-176.732C762.766,-165.605 775.912,-152.754 787.13,-141.788"/>
<polygon fill="midnightblue" stroke="midnightblue" points="748.9,-174.265 744.195,-183.758 753.793,-179.271 748.9,-174.265"/>
</g>
<!-- Node16 -->
<g id="node13" class="node"><title>Node16</title>
<g id="a_node13"><a xlink:href="optimization__algorithm__factory_8cpp.html" target="_top" xlink:title="/home/alejandro/Desarrollo\l eclipse/os1/Thirdparty\l/g2o/g2o/core/optimization\l_algorithm_factory.cpp">
<polygon fill="white" stroke="black" points="1048.5,-89.5 1048.5,-141.5 1181.5,-141.5 1181.5,-89.5 1048.5,-89.5"/>
<text text-anchor="start" x="1056.5" y="-129.5" font-family="Helvetica,sans-Serif" font-size="10.00">/home/alejandro/Desarrollo</text>
<text text-anchor="start" x="1056.5" y="-118.5" font-family="Helvetica,sans-Serif" font-size="10.00"> eclipse/os1/Thirdparty</text>
<text text-anchor="start" x="1056.5" y="-107.5" font-family="Helvetica,sans-Serif" font-size="10.00">/g2o/g2o/core/optimization</text>
<text text-anchor="middle" x="1115" y="-96.5" font-family="Helvetica,sans-Serif" font-size="10.00">_algorithm_factory.cpp</text>
</a>
</g>
</g>
<!-- Node15&#45;&gt;Node16 -->
<g id="edge13" class="edge"><title>Node15&#45;&gt;Node16</title>
<path fill="none" stroke="midnightblue" d="M1093.97,-168.771C1097.62,-159.691 1101.49,-150.079 1104.9,-141.607"/>
<polygon fill="midnightblue" stroke="midnightblue" points="1090.61,-167.752 1090.12,-178.336 1097.1,-170.365 1090.61,-167.752"/>
</g>
<!-- Node18 -->
<g id="node15" class="node"><title>Node18</title>
<g id="a_node15"><a xlink:href="robust__kernel__factory_8cpp.html" target="_top" xlink:title="/home/alejandro/Desarrollo\l eclipse/os1/Thirdparty\l/g2o/g2o/core/robust_kernel\l_factory.cpp">
<polygon fill="white" stroke="black" points="1199.5,-89.5 1199.5,-141.5 1336.5,-141.5 1336.5,-89.5 1199.5,-89.5"/>
<text text-anchor="start" x="1207.5" y="-129.5" font-family="Helvetica,sans-Serif" font-size="10.00">/home/alejandro/Desarrollo</text>
<text text-anchor="start" x="1207.5" y="-118.5" font-family="Helvetica,sans-Serif" font-size="10.00"> eclipse/os1/Thirdparty</text>
<text text-anchor="start" x="1207.5" y="-107.5" font-family="Helvetica,sans-Serif" font-size="10.00">/g2o/g2o/core/robust_kernel</text>
<text text-anchor="middle" x="1268" y="-96.5" font-family="Helvetica,sans-Serif" font-size="10.00">_factory.cpp</text>
</a>
</g>
</g>
<!-- Node17&#45;&gt;Node18 -->
<g id="edge15" class="edge"><title>Node17&#45;&gt;Node18</title>
<path fill="none" stroke="midnightblue" d="M1263.84,-168.191C1264.56,-159.282 1265.31,-149.899 1265.98,-141.607"/>
<polygon fill="midnightblue" stroke="midnightblue" points="1260.34,-168.087 1263.02,-178.336 1267.32,-168.649 1260.34,-168.087"/>
</g>
<!-- Node19 -->
<g id="node16" class="node"><title>Node19</title>
<g id="a_node16"><a xlink:href="robust__kernel__impl_8cpp.html" target="_top" xlink:title="/home/alejandro/Desarrollo\l eclipse/os1/Thirdparty\l/g2o/g2o/core/robust_kernel\l_impl.cpp">
<polygon fill="white" stroke="black" points="1354.5,-89.5 1354.5,-141.5 1491.5,-141.5 1491.5,-89.5 1354.5,-89.5"/>
<text text-anchor="start" x="1362.5" y="-129.5" font-family="Helvetica,sans-Serif" font-size="10.00">/home/alejandro/Desarrollo</text>
<text text-anchor="start" x="1362.5" y="-118.5" font-family="Helvetica,sans-Serif" font-size="10.00"> eclipse/os1/Thirdparty</text>
<text text-anchor="start" x="1362.5" y="-107.5" font-family="Helvetica,sans-Serif" font-size="10.00">/g2o/g2o/core/robust_kernel</text>
<text text-anchor="middle" x="1423" y="-96.5" font-family="Helvetica,sans-Serif" font-size="10.00">_impl.cpp</text>
</a>
</g>
</g>
<!-- Node17&#45;&gt;Node19 -->
<g id="edge16" class="edge"><title>Node17&#45;&gt;Node19</title>
<path fill="none" stroke="midnightblue" d="M1316.87,-173.494C1336.23,-163.101 1357.7,-151.566 1376.25,-141.607"/>
<polygon fill="midnightblue" stroke="midnightblue" points="1315.01,-170.521 1307.86,-178.336 1318.32,-176.688 1315.01,-170.521"/>
</g>
</g>
</svg>
