<?xml version="1.0" encoding="UTF-8" standalone="no"?>
<!DOCTYPE svg PUBLIC "-//W3C//DTD SVG 1.1//EN"
 "http://www.w3.org/Graphics/SVG/1.1/DTD/svg11.dtd">
<!-- Generated by graphviz version 2.38.0 (20140413.2041)
 -->
<!-- Title: /home/alejandro/Desarrollo eclipse/os1/Thirdparty/g2o/g2o/core/optimization_algorithm_factory.h Pages: 1 -->
<svg width="494pt" height="240pt"
 viewBox="0.00 0.00 494.00 240.00" xmlns="http://www.w3.org/2000/svg" xmlns:xlink="http://www.w3.org/1999/xlink">
<g id="graph0" class="graph" transform="scale(1 1) rotate(0) translate(4 236)">
<title>/home/alejandro/Desarrollo eclipse/os1/Thirdparty/g2o/g2o/core/optimization_algorithm_factory.h</title>
<polygon fill="white" stroke="none" points="-4,4 -4,-236 490,-236 490,4 -4,4"/>
<!-- Node0 -->
<g id="node1" class="node"><title>Node0</title>
<polygon fill="#bfbfbf" stroke="black" points="218,-179.5 218,-231.5 351,-231.5 351,-179.5 218,-179.5"/>
<text text-anchor="start" x="226" y="-219.5" font-family="Helvetica,sans-Serif" font-size="10.00">/home/alejandro/Desarrollo</text>
<text text-anchor="start" x="226" y="-208.5" font-family="Helvetica,sans-Serif" font-size="10.00"> eclipse/os1/Thirdparty</text>
<text text-anchor="start" x="226" y="-197.5" font-family="Helvetica,sans-Serif" font-size="10.00">/g2o/g2o/core/optimization</text>
<text text-anchor="middle" x="284.5" y="-186.5" font-family="Helvetica,sans-Serif" font-size="10.00">_algorithm_factory.h</text>
</g>
<!-- Node1 -->
<g id="node2" class="node"><title>Node1</title>
<g id="a_node2"><a xlink:href="config_8h.html" target="_top" xlink:title="../../config.h">
<polygon fill="white" stroke="black" points="0,-118 0,-137 69,-137 69,-118 0,-118"/>
<text text-anchor="middle" x="34.5" y="-125" font-family="Helvetica,sans-Serif" font-size="10.00">../../config.h</text>
</a>
</g>
</g>
<!-- Node0&#45;&gt;Node1 -->
<g id="edge1" class="edge"><title>Node0&#45;&gt;Node1</title>
<path fill="none" stroke="midnightblue" d="M217.656,-185.311C177.017,-173.478 124.137,-157.786 77.5,-143 74.7542,-142.129 71.9156,-141.212 69.0667,-140.278"/>
<polygon fill="midnightblue" stroke="midnightblue" points="70.0545,-136.918 59.461,-137.088 67.8483,-143.562 70.0545,-136.918"/>
</g>
<!-- Node2 -->
<g id="node3" class="node"><title>Node2</title>
<g id="a_node3"><a xlink:href="misc_8h.html" target="_top" xlink:title="some general case utility functions ">
<polygon fill="white" stroke="black" points="87,-118 87,-137 164,-137 164,-118 87,-118"/>
<text text-anchor="middle" x="125.5" y="-125" font-family="Helvetica,sans-Serif" font-size="10.00">../stuff/misc.h</text>
</a>
</g>
</g>
<!-- Node0&#45;&gt;Node2 -->
<g id="edge2" class="edge"><title>Node0&#45;&gt;Node2</title>
<path fill="none" stroke="midnightblue" d="M231.997,-179.404C205.483,-166.731 174.424,-151.885 152.713,-141.508"/>
<polygon fill="midnightblue" stroke="midnightblue" points="153.978,-138.233 143.446,-137.078 150.959,-144.548 153.978,-138.233"/>
</g>
<!-- Node6 -->
<g id="node7" class="node"><title>Node6</title>
<g id="a_node7"><a xlink:href="optimization__algorithm__property_8h.html" target="_top" xlink:title="optimization_algorithm\l_property.h">
<polygon fill="white" stroke="black" points="182.5,-112.5 182.5,-142.5 296.5,-142.5 296.5,-112.5 182.5,-112.5"/>
<text text-anchor="start" x="190.5" y="-130.5" font-family="Helvetica,sans-Serif" font-size="10.00">optimization_algorithm</text>
<text text-anchor="middle" x="239.5" y="-119.5" font-family="Helvetica,sans-Serif" font-size="10.00">_property.h</text>
</a>
</g>
</g>
<!-- Node0&#45;&gt;Node6 -->
<g id="edge6" class="edge"><title>Node0&#45;&gt;Node6</title>
<path fill="none" stroke="midnightblue" d="M269.516,-179.193C264.258,-170.314 258.383,-160.391 253.233,-151.694"/>
<polygon fill="midnightblue" stroke="midnightblue" points="256.101,-149.667 247.994,-142.845 250.077,-153.233 256.101,-149.667"/>
</g>
<!-- Node8 -->
<g id="node9" class="node"><title>Node8</title>
<polygon fill="white" stroke="#bfbfbf" points="315,-118 315,-137 344,-137 344,-118 315,-118"/>
<text text-anchor="middle" x="329.5" y="-125" font-family="Helvetica,sans-Serif" font-size="10.00">list</text>
</g>
<!-- Node0&#45;&gt;Node8 -->
<g id="edge8" class="edge"><title>Node0&#45;&gt;Node8</title>
<path fill="none" stroke="midnightblue" d="M299.484,-179.193C305.927,-168.312 313.299,-155.861 319.125,-146.022"/>
<polygon fill="midnightblue" stroke="midnightblue" points="322.26,-147.597 324.343,-137.209 316.237,-144.03 322.26,-147.597"/>
</g>
<!-- Node9 -->
<g id="node10" class="node"><title>Node9</title>
<polygon fill="white" stroke="#bfbfbf" points="362.5,-118 362.5,-137 416.5,-137 416.5,-118 362.5,-118"/>
<text text-anchor="middle" x="389.5" y="-125" font-family="Helvetica,sans-Serif" font-size="10.00">iostream</text>
</g>
<!-- Node0&#45;&gt;Node9 -->
<g id="edge9" class="edge"><title>Node0&#45;&gt;Node9</title>
<path fill="none" stroke="midnightblue" d="M319.172,-179.404C335.636,-167.487 354.755,-153.649 368.899,-143.411"/>
<polygon fill="midnightblue" stroke="midnightblue" points="371.349,-145.959 377.398,-137.26 367.245,-140.288 371.349,-145.959"/>
</g>
<!-- Node10 -->
<g id="node11" class="node"><title>Node10</title>
<polygon fill="white" stroke="#bfbfbf" points="435,-118 435,-137 486,-137 486,-118 435,-118"/>
<text text-anchor="middle" x="460.5" y="-125" font-family="Helvetica,sans-Serif" font-size="10.00">typeinfo</text>
</g>
<!-- Node0&#45;&gt;Node10 -->
<g id="edge10" class="edge"><title>Node0&#45;&gt;Node10</title>
<path fill="none" stroke="midnightblue" d="M342.617,-179.404C372.361,-166.56 407.275,-151.484 431.346,-141.089"/>
<polygon fill="midnightblue" stroke="midnightblue" points="432.842,-144.256 440.635,-137.078 430.067,-137.829 432.842,-144.256"/>
</g>
<!-- Node3 -->
<g id="node4" class="node"><title>Node3</title>
<g id="a_node4"><a xlink:href="macros_8h.html" target="_top" xlink:title="macros.h">
<polygon fill="white" stroke="black" points="54,-56.5 54,-75.5 111,-75.5 111,-56.5 54,-56.5"/>
<text text-anchor="middle" x="82.5" y="-63.5" font-family="Helvetica,sans-Serif" font-size="10.00">macros.h</text>
</a>
</g>
</g>
<!-- Node2&#45;&gt;Node3 -->
<g id="edge3" class="edge"><title>Node2&#45;&gt;Node3</title>
<path fill="none" stroke="midnightblue" d="M119.339,-117.975C112.889,-109.05 102.596,-94.8071 94.5274,-83.6425"/>
<polygon fill="midnightblue" stroke="midnightblue" points="97.3436,-81.564 88.6494,-75.5091 91.6701,-85.6642 97.3436,-81.564"/>
</g>
<!-- Node5 -->
<g id="node6" class="node"><title>Node5</title>
<polygon fill="white" stroke="#bfbfbf" points="129.5,-56.5 129.5,-75.5 173.5,-75.5 173.5,-56.5 129.5,-56.5"/>
<text text-anchor="middle" x="151.5" y="-63.5" font-family="Helvetica,sans-Serif" font-size="10.00">cmath</text>
</g>
<!-- Node2&#45;&gt;Node5 -->
<g id="edge5" class="edge"><title>Node2&#45;&gt;Node5</title>
<path fill="none" stroke="midnightblue" d="M129.225,-117.975C132.971,-109.404 138.86,-95.9269 143.642,-84.983"/>
<polygon fill="midnightblue" stroke="midnightblue" points="146.985,-86.0739 147.782,-75.5091 140.57,-83.271 146.985,-86.0739"/>
</g>
<!-- Node4 -->
<g id="node5" class="node"><title>Node4</title>
<polygon fill="white" stroke="#bfbfbf" points="59,-0.5 59,-19.5 106,-19.5 106,-0.5 59,-0.5"/>
<text text-anchor="middle" x="82.5" y="-7.5" font-family="Helvetica,sans-Serif" font-size="10.00">math.h</text>
</g>
<!-- Node3&#45;&gt;Node4 -->
<g id="edge4" class="edge"><title>Node3&#45;&gt;Node4</title>
<path fill="none" stroke="midnightblue" d="M82.5,-56.083C82.5,-49.0059 82.5,-38.8611 82.5,-29.9865"/>
<polygon fill="midnightblue" stroke="midnightblue" points="86.0001,-29.751 82.5,-19.7511 79.0001,-29.7511 86.0001,-29.751"/>
</g>
<!-- Node7 -->
<g id="node8" class="node"><title>Node7</title>
<polygon fill="white" stroke="#bfbfbf" points="219,-56.5 219,-75.5 260,-75.5 260,-56.5 219,-56.5"/>
<text text-anchor="middle" x="239.5" y="-63.5" font-family="Helvetica,sans-Serif" font-size="10.00">string</text>
</g>
<!-- Node6&#45;&gt;Node7 -->
<g id="edge7" class="edge"><title>Node6&#45;&gt;Node7</title>
<path fill="none" stroke="midnightblue" d="M239.5,-112.399C239.5,-104.466 239.5,-94.458 239.5,-85.8583"/>
<polygon fill="midnightblue" stroke="midnightblue" points="243,-85.6577 239.5,-75.6578 236,-85.6578 243,-85.6577"/>
</g>
</g>
</svg>
