<?xml version="1.0" encoding="UTF-8" standalone="no"?>
<!DOCTYPE svg PUBLIC "-//W3C//DTD SVG 1.1//EN"
 "http://www.w3.org/Graphics/SVG/1.1/DTD/svg11.dtd">
<!-- Generated by graphviz version 2.38.0 (20140413.2041)
 -->
<!-- Title: /home/alejandro/Desarrollo eclipse/os1/Thirdparty/g2o/g2o/core/optimization_algorithm_with_hessian.cpp Pages: 1 -->
<svg width="2061pt" height="419pt"
 viewBox="0.00 0.00 2060.68 419.00" xmlns="http://www.w3.org/2000/svg" xmlns:xlink="http://www.w3.org/1999/xlink">
<g id="graph0" class="graph" transform="scale(1 1) rotate(0) translate(4 415)">
<title>/home/alejandro/Desarrollo eclipse/os1/Thirdparty/g2o/g2o/core/optimization_algorithm_with_hessian.cpp</title>
<polygon fill="white" stroke="none" points="-4,4 -4,-415 2056.68,-415 2056.68,4 -4,4"/>
<!-- Node0 -->
<g id="node1" class="node"><title>Node0</title>
<polygon fill="#bfbfbf" stroke="black" points="735.5,-358.5 735.5,-410.5 878.5,-410.5 878.5,-358.5 735.5,-358.5"/>
<text text-anchor="start" x="743.5" y="-398.5" font-family="Helvetica,sans-Serif" font-size="10.00">/home/alejandro/Desarrollo</text>
<text text-anchor="start" x="743.5" y="-387.5" font-family="Helvetica,sans-Serif" font-size="10.00"> eclipse/os1/Thirdparty</text>
<text text-anchor="start" x="743.5" y="-376.5" font-family="Helvetica,sans-Serif" font-size="10.00">/g2o/g2o/core/optimization</text>
<text text-anchor="middle" x="807" y="-365.5" font-family="Helvetica,sans-Serif" font-size="10.00">_algorithm_with_hessian.cpp</text>
</g>
<!-- Node1 -->
<g id="node2" class="node"><title>Node1</title>
<g id="a_node2"><a xlink:href="optimization__algorithm__with__hessian_8h.html" target="_top" xlink:title="optimization_algorithm\l_with_hessian.h">
<polygon fill="white" stroke="black" points="750,-291.5 750,-321.5 864,-321.5 864,-291.5 750,-291.5"/>
<text text-anchor="start" x="758" y="-309.5" font-family="Helvetica,sans-Serif" font-size="10.00">optimization_algorithm</text>
<text text-anchor="middle" x="807" y="-298.5" font-family="Helvetica,sans-Serif" font-size="10.00">_with_hessian.h</text>
</a>
</g>
</g>
<!-- Node0&#45;&gt;Node1 -->
<g id="edge1" class="edge"><title>Node0&#45;&gt;Node1</title>
<path fill="none" stroke="midnightblue" d="M807,-358.193C807,-349.786 807,-340.443 807,-332.091"/>
<polygon fill="midnightblue" stroke="midnightblue" points="810.5,-331.845 807,-321.845 803.5,-331.845 810.5,-331.845"/>
</g>
<!-- Node23 -->
<g id="node24" class="node"><title>Node23</title>
<polygon fill="white" stroke="#bfbfbf" points="269,-118 269,-137 323,-137 323,-118 269,-118"/>
<text text-anchor="middle" x="296" y="-125" font-family="Helvetica,sans-Serif" font-size="10.00">iostream</text>
</g>
<!-- Node0&#45;&gt;Node23 -->
<g id="edge84" class="edge"><title>Node0&#45;&gt;Node23</title>
<path fill="none" stroke="midnightblue" d="M735.344,-371.422C681.924,-361.287 607.681,-344.791 545,-322 430.866,-280.501 368.298,-300.092 301,-199 290.922,-183.861 290.838,-162.619 292.553,-147.417"/>
<polygon fill="midnightblue" stroke="midnightblue" points="296.068,-147.576 294.08,-137.169 289.144,-146.544 296.068,-147.576"/>
</g>
<!-- Node31 -->
<g id="node32" class="node"><title>Node31</title>
<g id="a_node32"><a xlink:href="solver_8h.html" target="_top" xlink:title="solver.h">
<polygon fill="white" stroke="black" points="886.5,-235.5 886.5,-254.5 937.5,-254.5 937.5,-235.5 886.5,-235.5"/>
<text text-anchor="middle" x="912" y="-242.5" font-family="Helvetica,sans-Serif" font-size="10.00">solver.h</text>
</a>
</g>
</g>
<!-- Node0&#45;&gt;Node31 -->
<g id="edge46" class="edge"><title>Node0&#45;&gt;Node31</title>
<path fill="none" stroke="midnightblue" d="M838.447,-358.242C850.197,-347.82 863.082,-335.117 873,-322 886.794,-303.757 898.122,-279.913 904.949,-263.836"/>
<polygon fill="midnightblue" stroke="midnightblue" points="908.209,-265.111 908.766,-254.531 901.733,-262.454 908.209,-265.111"/>
</g>
<!-- Node33 -->
<g id="node34" class="node"><title>Node33</title>
<g id="a_node34"><a xlink:href="optimizable__graph_8h.html" target="_top" xlink:title="optimizable_graph.h">
<polygon fill="white" stroke="black" points="1561,-235.5 1561,-254.5 1665,-254.5 1665,-235.5 1561,-235.5"/>
<text text-anchor="middle" x="1613" y="-242.5" font-family="Helvetica,sans-Serif" font-size="10.00">optimizable_graph.h</text>
</a>
</g>
</g>
<!-- Node0&#45;&gt;Node33 -->
<g id="edge53" class="edge"><title>Node0&#45;&gt;Node33</title>
<path fill="none" stroke="midnightblue" d="M878.527,-371.298C1035.42,-344.533 1407.37,-281.08 1553.03,-256.231"/>
<polygon fill="midnightblue" stroke="midnightblue" points="1553.85,-259.642 1563.12,-254.51 1552.67,-252.741 1553.85,-259.642"/>
</g>
<!-- Node42 -->
<g id="node43" class="node"><title>Node42</title>
<g id="a_node43"><a xlink:href="sparse__optimizer_8h.html" target="_top" xlink:title="sparse_optimizer.h">
<polygon fill="white" stroke="black" points="554.5,-297 554.5,-316 653.5,-316 653.5,-297 554.5,-297"/>
<text text-anchor="middle" x="604" y="-304" font-family="Helvetica,sans-Serif" font-size="10.00">sparse_optimizer.h</text>
</a>
</g>
</g>
<!-- Node0&#45;&gt;Node42 -->
<g id="edge78" class="edge"><title>Node0&#45;&gt;Node42</title>
<path fill="none" stroke="midnightblue" d="M739.968,-358.404C705.202,-345.389 664.315,-330.081 636.523,-319.676"/>
<polygon fill="midnightblue" stroke="midnightblue" points="637.504,-316.306 626.912,-316.078 635.05,-322.862 637.504,-316.306"/>
</g>
<!-- Node2 -->
<g id="node3" class="node"><title>Node2</title>
<g id="a_node3"><a xlink:href="optimization__algorithm_8h.html" target="_top" xlink:title="optimization_algorithm.h">
<polygon fill="white" stroke="black" points="746,-235.5 746,-254.5 868,-254.5 868,-235.5 746,-235.5"/>
<text text-anchor="middle" x="807" y="-242.5" font-family="Helvetica,sans-Serif" font-size="10.00">optimization_algorithm.h</text>
</a>
</g>
</g>
<!-- Node1&#45;&gt;Node2 -->
<g id="edge2" class="edge"><title>Node1&#45;&gt;Node2</title>
<path fill="none" stroke="midnightblue" d="M807,-291.399C807,-283.466 807,-273.458 807,-264.858"/>
<polygon fill="midnightblue" stroke="midnightblue" points="810.5,-264.658 807,-254.658 803.5,-264.658 810.5,-264.658"/>
</g>
<!-- Node3 -->
<g id="node4" class="node"><title>Node3</title>
<polygon fill="white" stroke="#bfbfbf" points="912,-56.5 912,-75.5 956,-75.5 956,-56.5 912,-56.5"/>
<text text-anchor="middle" x="934" y="-63.5" font-family="Helvetica,sans-Serif" font-size="10.00">vector</text>
</g>
<!-- Node2&#45;&gt;Node3 -->
<g id="edge3" class="edge"><title>Node2&#45;&gt;Node3</title>
<path fill="none" stroke="midnightblue" d="M824.662,-235.409C839.208,-227.596 859.557,-214.875 873,-199 902.538,-164.118 920.807,-112.551 928.972,-85.3468"/>
<polygon fill="midnightblue" stroke="midnightblue" points="932.375,-86.1751 931.774,-75.5974 925.648,-84.2412 932.375,-86.1751"/>
</g>
<!-- Node4 -->
<g id="node5" class="node"><title>Node4</title>
<polygon fill="white" stroke="#bfbfbf" points="404,-179.5 404,-198.5 444,-198.5 444,-179.5 404,-179.5"/>
<text text-anchor="middle" x="424" y="-186.5" font-family="Helvetica,sans-Serif" font-size="10.00">utility</text>
</g>
<!-- Node2&#45;&gt;Node4 -->
<g id="edge4" class="edge"><title>Node2&#45;&gt;Node4</title>
<path fill="none" stroke="midnightblue" d="M745.772,-238.548C675.779,-231.752 557.969,-218.589 458,-199 456.719,-198.749 455.415,-198.477 454.101,-198.19"/>
<polygon fill="midnightblue" stroke="midnightblue" points="454.577,-194.704 444.035,-195.768 452.939,-201.51 454.577,-194.704"/>
</g>
<!-- Node5 -->
<g id="node6" class="node"><title>Node5</title>
<polygon fill="white" stroke="#bfbfbf" points="1316.5,-118 1316.5,-137 1361.5,-137 1361.5,-118 1316.5,-118"/>
<text text-anchor="middle" x="1339" y="-125" font-family="Helvetica,sans-Serif" font-size="10.00">iosfwd</text>
</g>
<!-- Node2&#45;&gt;Node5 -->
<g id="edge5" class="edge"><title>Node2&#45;&gt;Node5</title>
<path fill="none" stroke="midnightblue" d="M868.281,-236.123C961.562,-224.086 1129.82,-202.168 1143,-199 1204.16,-184.299 1272.7,-157.024 1310.36,-141.052"/>
<polygon fill="midnightblue" stroke="midnightblue" points="1311.87,-144.212 1319.68,-137.058 1309.11,-137.778 1311.87,-144.212"/>
</g>
<!-- Node6 -->
<g id="node7" class="node"><title>Node6</title>
<g id="a_node7"><a xlink:href="property_8h.html" target="_top" xlink:title="../stuff/property.h">
<polygon fill="white" stroke="black" points="49,-179.5 49,-198.5 141,-198.5 141,-179.5 49,-179.5"/>
<text text-anchor="middle" x="95" y="-186.5" font-family="Helvetica,sans-Serif" font-size="10.00">../stuff/property.h</text>
</a>
</g>
</g>
<!-- Node2&#45;&gt;Node6 -->
<g id="edge6" class="edge"><title>Node2&#45;&gt;Node6</title>
<path fill="none" stroke="midnightblue" d="M745.987,-239.373C609.899,-229.051 283.173,-204.272 151.457,-194.282"/>
<polygon fill="midnightblue" stroke="midnightblue" points="151.429,-190.77 141.193,-193.503 150.899,-197.75 151.429,-190.77"/>
</g>
<!-- Node14 -->
<g id="node15" class="node"><title>Node14</title>
<g id="a_node15"><a xlink:href="hyper__graph_8h.html" target="_top" xlink:title="hyper_graph.h">
<polygon fill="white" stroke="black" points="1704,-118 1704,-137 1782,-137 1782,-118 1704,-118"/>
<text text-anchor="middle" x="1743" y="-125" font-family="Helvetica,sans-Serif" font-size="10.00">hyper_graph.h</text>
</a>
</g>
</g>
<!-- Node2&#45;&gt;Node14 -->
<g id="edge17" class="edge"><title>Node2&#45;&gt;Node14</title>
<path fill="none" stroke="midnightblue" d="M868.053,-235.868C871.076,-235.554 874.071,-235.262 877,-235 1034.35,-220.917 1435.97,-245.349 1587,-199 1603.4,-193.968 1604.69,-186.725 1620,-179 1649.48,-164.13 1684.41,-150.114 1709.5,-140.638"/>
<polygon fill="midnightblue" stroke="midnightblue" points="1710.79,-143.891 1718.93,-137.113 1708.34,-137.334 1710.79,-143.891"/>
</g>
<!-- Node21 -->
<g id="node22" class="node"><title>Node21</title>
<g id="a_node22"><a xlink:href="sparse__block__matrix_8h.html" target="_top" xlink:title="sparse_block_matrix.h">
<polygon fill="white" stroke="black" points="749.5,-179.5 749.5,-198.5 864.5,-198.5 864.5,-179.5 749.5,-179.5"/>
<text text-anchor="middle" x="807" y="-186.5" font-family="Helvetica,sans-Serif" font-size="10.00">sparse_block_matrix.h</text>
</a>
</g>
</g>
<!-- Node2&#45;&gt;Node21 -->
<g id="edge26" class="edge"><title>Node2&#45;&gt;Node21</title>
<path fill="none" stroke="midnightblue" d="M807,-235.083C807,-228.006 807,-217.861 807,-208.986"/>
<polygon fill="midnightblue" stroke="midnightblue" points="810.5,-208.751 807,-198.751 803.5,-208.751 810.5,-208.751"/>
</g>
<!-- Node7 -->
<g id="node8" class="node"><title>Node7</title>
<polygon fill="white" stroke="#bfbfbf" points="208.5,-56.5 208.5,-75.5 249.5,-75.5 249.5,-56.5 208.5,-56.5"/>
<text text-anchor="middle" x="229" y="-63.5" font-family="Helvetica,sans-Serif" font-size="10.00">string</text>
</g>
<!-- Node6&#45;&gt;Node7 -->
<g id="edge7" class="edge"><title>Node6&#45;&gt;Node7</title>
<path fill="none" stroke="midnightblue" d="M104.592,-179.381C114.662,-170.328 130.954,-155.675 145,-143 168.087,-122.167 194.702,-98.074 211.678,-82.6969"/>
<polygon fill="midnightblue" stroke="midnightblue" points="214.118,-85.2086 219.179,-75.9007 209.418,-80.0209 214.118,-85.2086"/>
</g>
<!-- Node8 -->
<g id="node9" class="node"><title>Node8</title>
<polygon fill="white" stroke="#bfbfbf" points="545.5,-56.5 545.5,-75.5 580.5,-75.5 580.5,-56.5 545.5,-56.5"/>
<text text-anchor="middle" x="563" y="-63.5" font-family="Helvetica,sans-Serif" font-size="10.00">map</text>
</g>
<!-- Node6&#45;&gt;Node8 -->
<g id="edge8" class="edge"><title>Node6&#45;&gt;Node8</title>
<path fill="none" stroke="midnightblue" d="M110.935,-179.387C127.345,-170.46 153.609,-156.018 176,-143 198.931,-129.668 201.99,-120.837 227,-112 336.217,-73.4089 476.099,-67.5582 534.94,-66.9155"/>
<polygon fill="midnightblue" stroke="midnightblue" points="535.3,-70.4134 545.277,-66.8488 535.255,-63.4135 535.3,-70.4134"/>
</g>
<!-- Node9 -->
<g id="node10" class="node"><title>Node9</title>
<polygon fill="white" stroke="#bfbfbf" points="0,-56.5 0,-75.5 52,-75.5 52,-56.5 0,-56.5"/>
<text text-anchor="middle" x="26" y="-63.5" font-family="Helvetica,sans-Serif" font-size="10.00">sstream</text>
</g>
<!-- Node6&#45;&gt;Node9 -->
<g id="edge9" class="edge"><title>Node6&#45;&gt;Node9</title>
<path fill="none" stroke="midnightblue" d="M84.4501,-179.359C74.8078,-170.964 60.7556,-157.405 52,-143 41.0538,-124.991 33.9706,-101.759 30.0041,-85.747"/>
<polygon fill="midnightblue" stroke="midnightblue" points="33.4064,-84.9245 27.7469,-75.9679 26.5857,-86.4989 33.4064,-84.9245"/>
</g>
<!-- Node10 -->
<g id="node11" class="node"><title>Node10</title>
<g id="a_node11"><a xlink:href="string__tools_8h.html" target="_top" xlink:title="string_tools.h">
<polygon fill="white" stroke="black" points="61.5,-118 61.5,-137 136.5,-137 136.5,-118 61.5,-118"/>
<text text-anchor="middle" x="99" y="-125" font-family="Helvetica,sans-Serif" font-size="10.00">string_tools.h</text>
</a>
</g>
</g>
<!-- Node6&#45;&gt;Node10 -->
<g id="edge10" class="edge"><title>Node6&#45;&gt;Node10</title>
<path fill="none" stroke="midnightblue" d="M95.5731,-179.475C96.1375,-171.08 97.0181,-157.981 97.7453,-147.163"/>
<polygon fill="midnightblue" stroke="midnightblue" points="101.249,-147.221 98.428,-137.009 94.265,-146.752 101.249,-147.221"/>
</g>
<!-- Node10&#45;&gt;Node3 -->
<g id="edge14" class="edge"><title>Node10&#45;&gt;Node3</title>
<path fill="none" stroke="midnightblue" d="M136.714,-122.855C169.329,-119.762 217.752,-115.312 260,-112 506.794,-92.6506 804.846,-74.6153 901.831,-68.8826"/>
<polygon fill="midnightblue" stroke="midnightblue" points="902.101,-72.3728 911.877,-68.2903 901.689,-65.385 902.101,-72.3728"/>
</g>
<!-- Node10&#45;&gt;Node7 -->
<g id="edge11" class="edge"><title>Node10&#45;&gt;Node7</title>
<path fill="none" stroke="midnightblue" d="M117.626,-117.975C139.443,-107.99 175.804,-91.3476 201.017,-79.8075"/>
<polygon fill="midnightblue" stroke="midnightblue" points="202.772,-82.8534 210.409,-75.5091 199.859,-76.4884 202.772,-82.8534"/>
</g>
<!-- Node10&#45;&gt;Node9 -->
<g id="edge12" class="edge"><title>Node10&#45;&gt;Node9</title>
<path fill="none" stroke="midnightblue" d="M88.5409,-117.975C77.0487,-108.608 58.3702,-93.3839 44.4132,-82.0081"/>
<polygon fill="midnightblue" stroke="midnightblue" points="46.4024,-79.114 36.4397,-75.5091 41.9798,-84.54 46.4024,-79.114"/>
</g>
<!-- Node11 -->
<g id="node12" class="node"><title>Node11</title>
<polygon fill="white" stroke="#bfbfbf" points="145.5,-56.5 145.5,-75.5 190.5,-75.5 190.5,-56.5 145.5,-56.5"/>
<text text-anchor="middle" x="168" y="-63.5" font-family="Helvetica,sans-Serif" font-size="10.00">cstdlib</text>
</g>
<!-- Node10&#45;&gt;Node11 -->
<g id="edge13" class="edge"><title>Node10&#45;&gt;Node11</title>
<path fill="none" stroke="midnightblue" d="M108.886,-117.975C119.646,-108.697 137.071,-93.6706 150.221,-82.331"/>
<polygon fill="midnightblue" stroke="midnightblue" points="152.845,-84.6902 158.132,-75.5091 148.273,-79.389 152.845,-84.6902"/>
</g>
<!-- Node12 -->
<g id="node13" class="node"><title>Node12</title>
<g id="a_node13"><a xlink:href="macros_8h.html" target="_top" xlink:title="macros.h">
<polygon fill="white" stroke="black" points="70.5,-56.5 70.5,-75.5 127.5,-75.5 127.5,-56.5 70.5,-56.5"/>
<text text-anchor="middle" x="99" y="-63.5" font-family="Helvetica,sans-Serif" font-size="10.00">macros.h</text>
</a>
</g>
</g>
<!-- Node10&#45;&gt;Node12 -->
<g id="edge15" class="edge"><title>Node10&#45;&gt;Node12</title>
<path fill="none" stroke="midnightblue" d="M99,-117.975C99,-109.58 99,-96.4806 99,-85.6631"/>
<polygon fill="midnightblue" stroke="midnightblue" points="102.5,-85.5091 99,-75.5091 95.5001,-85.5091 102.5,-85.5091"/>
</g>
<!-- Node13 -->
<g id="node14" class="node"><title>Node13</title>
<polygon fill="white" stroke="#bfbfbf" points="75.5,-0.5 75.5,-19.5 122.5,-19.5 122.5,-0.5 75.5,-0.5"/>
<text text-anchor="middle" x="99" y="-7.5" font-family="Helvetica,sans-Serif" font-size="10.00">math.h</text>
</g>
<!-- Node12&#45;&gt;Node13 -->
<g id="edge16" class="edge"><title>Node12&#45;&gt;Node13</title>
<path fill="none" stroke="midnightblue" d="M99,-56.083C99,-49.0059 99,-38.8611 99,-29.9865"/>
<polygon fill="midnightblue" stroke="midnightblue" points="102.5,-29.751 99,-19.7511 95.5001,-29.7511 102.5,-29.751"/>
</g>
<!-- Node14&#45;&gt;Node3 -->
<g id="edge22" class="edge"><title>Node14&#45;&gt;Node3</title>
<path fill="none" stroke="midnightblue" d="M1703.74,-118.917C1689.12,-116.347 1672.35,-113.7 1657,-112 1359.72,-79.0835 1282.15,-110.052 985,-76 978.877,-75.2983 972.377,-74.3272 966.14,-73.2811"/>
<polygon fill="midnightblue" stroke="midnightblue" points="966.463,-69.784 956.006,-71.4844 965.241,-76.6765 966.463,-69.784"/>
</g>
<!-- Node14&#45;&gt;Node8 -->
<g id="edge18" class="edge"><title>Node14&#45;&gt;Node8</title>
<path fill="none" stroke="midnightblue" d="M1703.75,-118.813C1689.13,-116.232 1672.36,-113.604 1657,-112 1440.97,-89.4355 738.817,-71.2966 590.622,-67.6637"/>
<polygon fill="midnightblue" stroke="midnightblue" points="590.636,-64.1631 580.554,-67.4184 590.465,-71.1611 590.636,-64.1631"/>
</g>
<!-- Node15 -->
<g id="node16" class="node"><title>Node15</title>
<polygon fill="white" stroke="#bfbfbf" points="1833,-56.5 1833,-75.5 1863,-75.5 1863,-56.5 1833,-56.5"/>
<text text-anchor="middle" x="1848" y="-63.5" font-family="Helvetica,sans-Serif" font-size="10.00">set</text>
</g>
<!-- Node14&#45;&gt;Node15 -->
<g id="edge19" class="edge"><title>Node14&#45;&gt;Node15</title>
<path fill="none" stroke="midnightblue" d="M1758.04,-117.975C1775.28,-108.211 1803.74,-92.0807 1824.03,-80.5808"/>
<polygon fill="midnightblue" stroke="midnightblue" points="1826.01,-83.4843 1832.98,-75.5091 1822.56,-77.3942 1826.01,-83.4843"/>
</g>
<!-- Node16 -->
<g id="node17" class="node"><title>Node16</title>
<polygon fill="white" stroke="#bfbfbf" points="1707.5,-56.5 1707.5,-75.5 1748.5,-75.5 1748.5,-56.5 1707.5,-56.5"/>
<text text-anchor="middle" x="1728" y="-63.5" font-family="Helvetica,sans-Serif" font-size="10.00">bitset</text>
</g>
<!-- Node14&#45;&gt;Node16 -->
<g id="edge20" class="edge"><title>Node14&#45;&gt;Node16</title>
<path fill="none" stroke="midnightblue" d="M1740.85,-117.975C1738.71,-109.492 1735.36,-96.2043 1732.62,-85.3222"/>
<polygon fill="midnightblue" stroke="midnightblue" points="1735.98,-84.3501 1730.15,-75.5091 1729.2,-86.0613 1735.98,-84.3501"/>
</g>
<!-- Node17 -->
<g id="node18" class="node"><title>Node17</title>
<polygon fill="white" stroke="#bfbfbf" points="1401.5,-56.5 1401.5,-75.5 1450.5,-75.5 1450.5,-56.5 1401.5,-56.5"/>
<text text-anchor="middle" x="1426" y="-63.5" font-family="Helvetica,sans-Serif" font-size="10.00">cassert</text>
</g>
<!-- Node14&#45;&gt;Node17 -->
<g id="edge21" class="edge"><title>Node14&#45;&gt;Node17</title>
<path fill="none" stroke="midnightblue" d="M1703.81,-119.144C1641.3,-107.412 1520.03,-84.6499 1460.57,-73.4886"/>
<polygon fill="midnightblue" stroke="midnightblue" points="1461.03,-70.0135 1450.55,-71.6086 1459.74,-76.8933 1461.03,-70.0135"/>
</g>
<!-- Node18 -->
<g id="node19" class="node"><title>Node18</title>
<polygon fill="white" stroke="#bfbfbf" points="1961,-56.5 1961,-75.5 2001,-75.5 2001,-56.5 1961,-56.5"/>
<text text-anchor="middle" x="1981" y="-63.5" font-family="Helvetica,sans-Serif" font-size="10.00">limits</text>
</g>
<!-- Node14&#45;&gt;Node18 -->
<g id="edge23" class="edge"><title>Node14&#45;&gt;Node18</title>
<path fill="none" stroke="midnightblue" d="M1777.1,-117.975C1823.75,-106.314 1906.71,-85.5737 1951.07,-74.4836"/>
<polygon fill="midnightblue" stroke="midnightblue" points="1952.1,-77.833 1960.95,-72.0121 1950.4,-71.042 1952.1,-77.833"/>
</g>
<!-- Node19 -->
<g id="node20" class="node"><title>Node19</title>
<polygon fill="white" stroke="#bfbfbf" points="1766.5,-56.5 1766.5,-75.5 1815.5,-75.5 1815.5,-56.5 1766.5,-56.5"/>
<text text-anchor="middle" x="1791" y="-63.5" font-family="Helvetica,sans-Serif" font-size="10.00">cstddef</text>
</g>
<!-- Node14&#45;&gt;Node19 -->
<g id="edge24" class="edge"><title>Node14&#45;&gt;Node19</title>
<path fill="none" stroke="midnightblue" d="M1749.88,-117.975C1757.15,-108.962 1768.8,-94.5246 1777.84,-83.3118"/>
<polygon fill="midnightblue" stroke="midnightblue" points="1780.58,-85.4898 1784.14,-75.5091 1775.13,-81.0946 1780.58,-85.4898"/>
</g>
<!-- Node20 -->
<g id="node21" class="node"><title>Node20</title>
<polygon fill="white" stroke="#bfbfbf" points="1282,-56.5 1282,-75.5 1380,-75.5 1380,-56.5 1282,-56.5"/>
<text text-anchor="middle" x="1331" y="-63.5" font-family="Helvetica,sans-Serif" font-size="10.00">tr1/unordered_map</text>
</g>
<!-- Node14&#45;&gt;Node20 -->
<g id="edge25" class="edge"><title>Node14&#45;&gt;Node20</title>
<path fill="none" stroke="midnightblue" d="M1703.65,-119.598C1689.02,-117.102 1672.27,-114.327 1657,-112 1539.93,-94.1537 1510.26,-92.5059 1393,-76 1392.08,-75.8707 1391.15,-75.7399 1390.22,-75.6081"/>
<polygon fill="midnightblue" stroke="midnightblue" points="1390.46,-72.1068 1380.07,-74.1625 1389.47,-79.037 1390.46,-72.1068"/>
</g>
<!-- Node21&#45;&gt;Node3 -->
<g id="edge28" class="edge"><title>Node21&#45;&gt;Node3</title>
<path fill="none" stroke="midnightblue" d="M816.134,-179.298C837.369,-159.066 890.314,-108.622 917.428,-82.7893"/>
<polygon fill="midnightblue" stroke="midnightblue" points="920.123,-85.0552 924.949,-75.6232 915.295,-79.9872 920.123,-85.0552"/>
</g>
<!-- Node21&#45;&gt;Node8 -->
<g id="edge27" class="edge"><title>Node21&#45;&gt;Node8</title>
<path fill="none" stroke="midnightblue" d="M749.333,-183.423C690.81,-177.596 605.569,-165.473 582,-143 566.578,-128.295 562.916,-103.122 562.397,-85.802"/>
<polygon fill="midnightblue" stroke="midnightblue" points="565.897,-85.7507 562.417,-75.7437 558.897,-85.7366 565.897,-85.7507"/>
</g>
<!-- Node21&#45;&gt;Node17 -->
<g id="edge32" class="edge"><title>Node21&#45;&gt;Node17</title>
<path fill="none" stroke="midnightblue" d="M864.569,-186.059C970.565,-181.874 1192.32,-170.096 1264,-143 1286.04,-134.67 1286.25,-123.152 1307,-112 1334.36,-97.2977 1367.57,-85.1691 1391.95,-77.2231"/>
<polygon fill="midnightblue" stroke="midnightblue" points="1393.02,-80.5552 1401.48,-74.1812 1390.89,-73.8864 1393.02,-80.5552"/>
</g>
<!-- Node22 -->
<g id="node23" class="node"><title>Node22</title>
<polygon fill="white" stroke="#bfbfbf" points="417,-118 417,-137 467,-137 467,-118 417,-118"/>
<text text-anchor="middle" x="442" y="-125" font-family="Helvetica,sans-Serif" font-size="10.00">fstream</text>
</g>
<!-- Node21&#45;&gt;Node22 -->
<g id="edge29" class="edge"><title>Node21&#45;&gt;Node22</title>
<path fill="none" stroke="midnightblue" d="M749.251,-184.845C682.448,-180.122 569.643,-168.828 476,-143 473.703,-142.367 471.358,-141.612 469.026,-140.785"/>
<polygon fill="midnightblue" stroke="midnightblue" points="470.263,-137.51 459.676,-137.098 467.695,-144.022 470.263,-137.51"/>
</g>
<!-- Node21&#45;&gt;Node23 -->
<g id="edge30" class="edge"><title>Node21&#45;&gt;Node23</title>
<path fill="none" stroke="midnightblue" d="M749.48,-181.813C671.903,-173.4 529.453,-157.71 408,-143 383.076,-139.981 355.065,-136.355 333.29,-133.484"/>
<polygon fill="midnightblue" stroke="midnightblue" points="333.515,-129.983 323.143,-132.141 332.597,-136.923 333.515,-129.983"/>
</g>
<!-- Node24 -->
<g id="node25" class="node"><title>Node24</title>
<polygon fill="white" stroke="#bfbfbf" points="485,-118 485,-137 535,-137 535,-118 485,-118"/>
<text text-anchor="middle" x="510" y="-125" font-family="Helvetica,sans-Serif" font-size="10.00">iomanip</text>
</g>
<!-- Node21&#45;&gt;Node24 -->
<g id="edge31" class="edge"><title>Node21&#45;&gt;Node24</title>
<path fill="none" stroke="midnightblue" d="M749.467,-181.042C696.741,-173.943 616.808,-161.352 549,-143 546.189,-142.239 543.296,-141.358 540.417,-140.414"/>
<polygon fill="midnightblue" stroke="midnightblue" points="541.415,-137.055 530.82,-137.043 539.095,-143.66 541.415,-137.055"/>
</g>
<!-- Node25 -->
<g id="node26" class="node"><title>Node25</title>
<polygon fill="white" stroke="#bfbfbf" points="1138.5,-0.5 1138.5,-19.5 1235.5,-19.5 1235.5,-0.5 1138.5,-0.5"/>
<text text-anchor="middle" x="1187" y="-7.5" font-family="Helvetica,sans-Serif" font-size="10.00">eigen3/Eigen/Core</text>
</g>
<!-- Node21&#45;&gt;Node25 -->
<g id="edge33" class="edge"><title>Node21&#45;&gt;Node25</title>
<path fill="none" stroke="midnightblue" d="M864.866,-185.096C970.267,-179.296 1185.12,-164.921 1211,-143 1241.2,-117.422 1244.73,-92.735 1230,-56 1225.32,-44.328 1216.01,-33.9687 1207.24,-26.1405"/>
<polygon fill="midnightblue" stroke="midnightblue" points="1209.42,-23.4011 1199.5,-19.698 1204.95,-28.7832 1209.42,-23.4011"/>
</g>
<!-- Node26 -->
<g id="node27" class="node"><title>Node26</title>
<g id="a_node27"><a xlink:href="sparse__block__matrix__ccs_8h.html" target="_top" xlink:title="sparse_block_matrix\l_ccs.h">
<polygon fill="white" stroke="black" points="1076.5,-112.5 1076.5,-142.5 1183.5,-142.5 1183.5,-112.5 1076.5,-112.5"/>
<text text-anchor="start" x="1084.5" y="-130.5" font-family="Helvetica,sans-Serif" font-size="10.00">sparse_block_matrix</text>
<text text-anchor="middle" x="1130" y="-119.5" font-family="Helvetica,sans-Serif" font-size="10.00">_ccs.h</text>
</a>
</g>
</g>
<!-- Node21&#45;&gt;Node26 -->
<g id="edge34" class="edge"><title>Node21&#45;&gt;Node26</title>
<path fill="none" stroke="midnightblue" d="M853.278,-179.475C909.129,-169.187 1003.34,-151.832 1066.1,-140.272"/>
<polygon fill="midnightblue" stroke="midnightblue" points="1067.07,-143.651 1076.27,-138.397 1065.8,-136.767 1067.07,-143.651"/>
</g>
<!-- Node27 -->
<g id="node28" class="node"><title>Node27</title>
<g id="a_node28"><a xlink:href="config_8h.html" target="_top" xlink:title="../../config.h">
<polygon fill="white" stroke="black" points="1152.5,-56.5 1152.5,-75.5 1221.5,-75.5 1221.5,-56.5 1152.5,-56.5"/>
<text text-anchor="middle" x="1187" y="-63.5" font-family="Helvetica,sans-Serif" font-size="10.00">../../config.h</text>
</a>
</g>
</g>
<!-- Node21&#45;&gt;Node27 -->
<g id="edge44" class="edge"><title>Node21&#45;&gt;Node27</title>
<path fill="none" stroke="midnightblue" d="M864.725,-185.413C966.839,-180.239 1170.64,-167.005 1192,-143 1205.83,-127.458 1200.77,-102.311 1194.82,-85.237"/>
<polygon fill="midnightblue" stroke="midnightblue" points="1198.04,-83.8623 1191.16,-75.8075 1191.51,-86.3963 1198.04,-83.8623"/>
</g>
<!-- Node28 -->
<g id="node29" class="node"><title>Node28</title>
<g id="a_node29"><a xlink:href="matrix__operations_8h.html" target="_top" xlink:title="matrix_operations.h">
<polygon fill="white" stroke="black" points="994,-56.5 994,-75.5 1096,-75.5 1096,-56.5 994,-56.5"/>
<text text-anchor="middle" x="1045" y="-63.5" font-family="Helvetica,sans-Serif" font-size="10.00">matrix_operations.h</text>
</a>
</g>
</g>
<!-- Node21&#45;&gt;Node28 -->
<g id="edge43" class="edge"><title>Node21&#45;&gt;Node28</title>
<path fill="none" stroke="midnightblue" d="M823.736,-179.492C864.604,-158.714 969.735,-105.265 1018.91,-80.2639"/>
<polygon fill="midnightblue" stroke="midnightblue" points="1020.64,-83.313 1027.96,-75.661 1017.46,-77.0731 1020.64,-83.313"/>
</g>
<!-- Node29 -->
<g id="node30" class="node"><title>Node29</title>
<g id="a_node30"><a xlink:href="matrix__structure_8h.html" target="_top" xlink:title="matrix_structure.h">
<polygon fill="white" stroke="black" points="591.5,-118 591.5,-137 686.5,-137 686.5,-118 591.5,-118"/>
<text text-anchor="middle" x="639" y="-125" font-family="Helvetica,sans-Serif" font-size="10.00">matrix_structure.h</text>
</a>
</g>
</g>
<!-- Node21&#45;&gt;Node29 -->
<g id="edge42" class="edge"><title>Node21&#45;&gt;Node29</title>
<path fill="none" stroke="midnightblue" d="M782.93,-179.475C753.987,-169.225 705.238,-151.959 672.598,-140.399"/>
<polygon fill="midnightblue" stroke="midnightblue" points="673.62,-137.048 663.026,-137.009 671.283,-143.647 673.62,-137.048"/>
</g>
<!-- Node30 -->
<g id="node31" class="node"><title>Node30</title>
<g id="a_node31"><a xlink:href="sparse__block__matrix_8hpp.html" target="_top" xlink:title="sparse_block_matrix.hpp">
<polygon fill="white" stroke="black" points="704.5,-118 704.5,-137 829.5,-137 829.5,-118 704.5,-118"/>
<text text-anchor="middle" x="767" y="-125" font-family="Helvetica,sans-Serif" font-size="10.00">sparse_block_matrix.hpp</text>
</a>
</g>
</g>
<!-- Node21&#45;&gt;Node30 -->
<g id="edge45" class="edge"><title>Node21&#45;&gt;Node30</title>
<path fill="none" stroke="midnightblue" d="M801.269,-179.475C795.328,-170.638 785.883,-156.589 778.412,-145.475"/>
<polygon fill="midnightblue" stroke="midnightblue" points="781.204,-143.355 772.72,-137.009 775.395,-147.261 781.204,-143.355"/>
</g>
<!-- Node26&#45;&gt;Node3 -->
<g id="edge35" class="edge"><title>Node26&#45;&gt;Node3</title>
<path fill="none" stroke="midnightblue" d="M1083.55,-112.399C1047.29,-101.391 997.861,-86.3865 965.937,-76.6952"/>
<polygon fill="midnightblue" stroke="midnightblue" points="966.811,-73.303 956.226,-73.7472 964.778,-80.0011 966.811,-73.303"/>
</g>
<!-- Node26&#45;&gt;Node17 -->
<g id="edge36" class="edge"><title>Node26&#45;&gt;Node17</title>
<path fill="none" stroke="midnightblue" d="M1183.72,-116.772C1236.21,-107.092 1318.29,-91.4842 1389,-76 1389.75,-75.8356 1390.51,-75.6676 1391.27,-75.4966"/>
<polygon fill="midnightblue" stroke="midnightblue" points="1392.41,-78.8274 1401.36,-73.1614 1390.83,-72.0079 1392.41,-78.8274"/>
</g>
<!-- Node26&#45;&gt;Node20 -->
<g id="edge41" class="edge"><title>Node26&#45;&gt;Node20</title>
<path fill="none" stroke="midnightblue" d="M1177.38,-112.475C1212.51,-102.075 1259.79,-88.0783 1292.58,-78.3722"/>
<polygon fill="midnightblue" stroke="midnightblue" points="1293.67,-81.7009 1302.26,-75.5064 1291.68,-74.9888 1293.67,-81.7009"/>
</g>
<!-- Node26&#45;&gt;Node25 -->
<g id="edge37" class="edge"><title>Node26&#45;&gt;Node25</title>
<path fill="none" stroke="midnightblue" d="M1130.2,-112.478C1130.95,-97.6673 1133.66,-74.0107 1143,-56 1148.93,-44.5625 1158.73,-34.1149 1167.58,-26.1715"/>
<polygon fill="midnightblue" stroke="midnightblue" points="1169.94,-28.7615 1175.3,-19.6241 1165.41,-23.4229 1169.94,-28.7615"/>
</g>
<!-- Node26&#45;&gt;Node27 -->
<g id="edge38" class="edge"><title>Node26&#45;&gt;Node27</title>
<path fill="none" stroke="midnightblue" d="M1143.51,-112.399C1151.96,-103.575 1162.88,-92.1827 1171.66,-83.0178"/>
<polygon fill="midnightblue" stroke="midnightblue" points="1174.32,-85.3002 1178.71,-75.6578 1169.26,-80.4577 1174.32,-85.3002"/>
</g>
<!-- Node26&#45;&gt;Node28 -->
<g id="edge39" class="edge"><title>Node26&#45;&gt;Node28</title>
<path fill="none" stroke="midnightblue" d="M1109.86,-112.399C1096.61,-103.129 1079.32,-91.0254 1065.92,-81.6469"/>
<polygon fill="midnightblue" stroke="midnightblue" points="1067.57,-78.5251 1057.37,-75.6578 1063.55,-84.2598 1067.57,-78.5251"/>
</g>
<!-- Node28&#45;&gt;Node25 -->
<g id="edge40" class="edge"><title>Node28&#45;&gt;Node25</title>
<path fill="none" stroke="midnightblue" d="M1067.5,-56.4435C1091.08,-47.4776 1128.32,-33.314 1154.96,-23.1827"/>
<polygon fill="midnightblue" stroke="midnightblue" points="1156.5,-26.3424 1164.6,-19.5164 1154.01,-19.7995 1156.5,-26.3424"/>
</g>
<!-- Node31&#45;&gt;Node14 -->
<g id="edge47" class="edge"><title>Node31&#45;&gt;Node14</title>
<path fill="none" stroke="midnightblue" d="M937.705,-243.92C1048.86,-243.337 1488.48,-238.528 1620,-199 1640.84,-192.735 1691.59,-161.478 1720.98,-142.751"/>
<polygon fill="midnightblue" stroke="midnightblue" points="1723.17,-145.502 1729.7,-137.159 1719.4,-139.608 1723.17,-145.502"/>
</g>
<!-- Node31&#45;&gt;Node19 -->
<g id="edge52" class="edge"><title>Node31&#45;&gt;Node19</title>
<path fill="none" stroke="midnightblue" d="M937.658,-243.903C1070.41,-243.231 1675.91,-238.031 1749,-199 1776.44,-184.344 1781.16,-172.515 1791,-143 1797.24,-124.265 1796.19,-101.459 1794.23,-85.7455"/>
<polygon fill="midnightblue" stroke="midnightblue" points="1797.67,-85.0937 1792.74,-75.7173 1790.75,-86.1233 1797.67,-85.0937"/>
</g>
<!-- Node31&#45;&gt;Node21 -->
<g id="edge51" class="edge"><title>Node31&#45;&gt;Node21</title>
<path fill="none" stroke="midnightblue" d="M895.13,-235.324C878.291,-226.664 852.193,-213.242 832.762,-203.249"/>
<polygon fill="midnightblue" stroke="midnightblue" points="834.322,-200.116 823.828,-198.655 831.12,-206.341 834.322,-200.116"/>
</g>
<!-- Node32 -->
<g id="node33" class="node"><title>Node32</title>
<g id="a_node33"><a xlink:href="batch__stats_8h.html" target="_top" xlink:title="batch_stats.h">
<polygon fill="white" stroke="black" points="310,-179.5 310,-198.5 386,-198.5 386,-179.5 310,-179.5"/>
<text text-anchor="middle" x="348" y="-186.5" font-family="Helvetica,sans-Serif" font-size="10.00">batch_stats.h</text>
</a>
</g>
</g>
<!-- Node31&#45;&gt;Node32 -->
<g id="edge48" class="edge"><title>Node31&#45;&gt;Node32</title>
<path fill="none" stroke="midnightblue" d="M886.497,-236.885C883.317,-236.163 880.095,-235.509 877,-235 668.241,-200.642 609.717,-226.44 396.12,-198.99"/>
<polygon fill="midnightblue" stroke="midnightblue" points="396.53,-195.514 386.16,-197.686 395.621,-202.455 396.53,-195.514"/>
</g>
<!-- Node32&#45;&gt;Node3 -->
<g id="edge50" class="edge"><title>Node32&#45;&gt;Node3</title>
<path fill="none" stroke="midnightblue" d="M351.922,-179.252C359.837,-162.767 379.433,-127.382 408,-112 451.447,-88.6064 794.027,-72.7266 901.717,-68.2738"/>
<polygon fill="midnightblue" stroke="midnightblue" points="902.11,-71.7607 911.959,-67.8556 901.825,-64.7666 902.11,-71.7607"/>
</g>
<!-- Node32&#45;&gt;Node23 -->
<g id="edge49" class="edge"><title>Node32&#45;&gt;Node23</title>
<path fill="none" stroke="midnightblue" d="M340.55,-179.475C332.672,-170.462 320.055,-156.025 310.256,-144.812"/>
<polygon fill="midnightblue" stroke="midnightblue" points="312.653,-142.236 303.437,-137.009 307.382,-146.842 312.653,-142.236"/>
</g>
<!-- Node33&#45;&gt;Node12 -->
<g id="edge77" class="edge"><title>Node33&#45;&gt;Node12</title>
<path fill="none" stroke="midnightblue" d="M1560.68,-243.409C1424.86,-241.419 1050.01,-233.02 740,-199 591.253,-182.677 551.928,-183.951 408,-143 372.913,-133.017 367.014,-122.238 332,-112 250.063,-88.0414 224.461,-93.9864 137.671,-76.2374"/>
<polygon fill="midnightblue" stroke="midnightblue" points="138.151,-72.7622 127.646,-74.1386 136.717,-79.6136 138.151,-72.7622"/>
</g>
<!-- Node33&#45;&gt;Node14 -->
<g id="edge63" class="edge"><title>Node33&#45;&gt;Node14</title>
<path fill="none" stroke="midnightblue" d="M1665.3,-241.127C1695.02,-236.488 1729.99,-225.308 1749,-199 1759.87,-183.952 1755.82,-162.102 1750.67,-146.725"/>
<polygon fill="midnightblue" stroke="midnightblue" points="1753.91,-145.395 1747.1,-137.277 1747.36,-147.868 1753.91,-145.395"/>
</g>
<!-- Node33&#45;&gt;Node15 -->
<g id="edge54" class="edge"><title>Node33&#45;&gt;Node15</title>
<path fill="none" stroke="midnightblue" d="M1663.68,-235.491C1694.72,-228.77 1734.41,-217.38 1766,-199 1796.97,-180.98 1805.14,-173.465 1824,-143 1835.02,-125.203 1841.4,-101.9 1844.77,-85.8131"/>
<polygon fill="midnightblue" stroke="midnightblue" points="1848.29,-86.0344 1846.72,-75.5568 1841.41,-84.7277 1848.29,-86.0344"/>
</g>
<!-- Node33&#45;&gt;Node18 -->
<g id="edge57" class="edge"><title>Node33&#45;&gt;Node18</title>
<path fill="none" stroke="midnightblue" d="M1665.26,-242.359C1774.13,-238.401 2017.19,-226.545 2042,-199 2073.68,-163.828 2026.23,-109.371 1998.57,-82.7434"/>
<polygon fill="midnightblue" stroke="midnightblue" points="2000.75,-79.9881 1991.05,-75.7168 1995.97,-85.1022 2000.75,-79.9881"/>
</g>
<!-- Node33&#45;&gt;Node23 -->
<g id="edge55" class="edge"><title>Node33&#45;&gt;Node23</title>
<path fill="none" stroke="midnightblue" d="M1560.87,-243.104C1354.38,-239.392 600.035,-224.218 496,-199 475.516,-194.035 472.665,-186.585 453,-179 402.636,-159.573 388.234,-160.002 337,-143 334.555,-142.188 332.033,-141.336 329.498,-140.467"/>
<polygon fill="midnightblue" stroke="midnightblue" points="330.389,-137.071 319.794,-137.092 328.089,-143.683 330.389,-137.071"/>
</g>
<!-- Node34 -->
<g id="node35" class="node"><title>Node34</title>
<polygon fill="white" stroke="#bfbfbf" points="1872.5,-179.5 1872.5,-198.5 1901.5,-198.5 1901.5,-179.5 1872.5,-179.5"/>
<text text-anchor="middle" x="1887" y="-186.5" font-family="Helvetica,sans-Serif" font-size="10.00">list</text>
</g>
<!-- Node33&#45;&gt;Node34 -->
<g id="edge56" class="edge"><title>Node33&#45;&gt;Node34</title>
<path fill="none" stroke="midnightblue" d="M1665,-236.295C1714.86,-228.473 1792.07,-215.224 1858,-199 1859.47,-198.638 1860.98,-198.244 1862.49,-197.829"/>
<polygon fill="midnightblue" stroke="midnightblue" points="1863.74,-201.11 1872.34,-194.922 1861.76,-194.396 1863.74,-201.11"/>
</g>
<!-- Node35 -->
<g id="node36" class="node"><title>Node35</title>
<polygon fill="white" stroke="#bfbfbf" points="1919,-179.5 1919,-198.5 1963,-198.5 1963,-179.5 1919,-179.5"/>
<text text-anchor="middle" x="1941" y="-186.5" font-family="Helvetica,sans-Serif" font-size="10.00">cmath</text>
</g>
<!-- Node33&#45;&gt;Node35 -->
<g id="edge58" class="edge"><title>Node33&#45;&gt;Node35</title>
<path fill="none" stroke="midnightblue" d="M1665.09,-238.4C1722.8,-231.692 1818.7,-219.054 1908.97,-199.233"/>
<polygon fill="midnightblue" stroke="midnightblue" points="1909.81,-202.631 1918.81,-197.038 1908.29,-195.799 1909.81,-202.631"/>
</g>
<!-- Node36 -->
<g id="node37" class="node"><title>Node36</title>
<polygon fill="white" stroke="#bfbfbf" points="1981.5,-179.5 1981.5,-198.5 2032.5,-198.5 2032.5,-179.5 1981.5,-179.5"/>
<text text-anchor="middle" x="2007" y="-186.5" font-family="Helvetica,sans-Serif" font-size="10.00">typeinfo</text>
</g>
<!-- Node33&#45;&gt;Node36 -->
<g id="edge59" class="edge"><title>Node33&#45;&gt;Node36</title>
<path fill="none" stroke="midnightblue" d="M1665.05,-239.567C1733.19,-233.302 1856.47,-220.383 1971.44,-198.867"/>
<polygon fill="midnightblue" stroke="midnightblue" points="1972.3,-202.267 1981.47,-196.964 1970.99,-195.39 1972.3,-202.267"/>
</g>
<!-- Node37 -->
<g id="node38" class="node"><title>Node37</title>
<g id="a_node38"><a xlink:href="openmp__mutex_8h.html" target="_top" xlink:title="openmp_mutex.h">
<polygon fill="white" stroke="black" points="1380,-118 1380,-137 1472,-137 1472,-118 1380,-118"/>
<text text-anchor="middle" x="1426" y="-125" font-family="Helvetica,sans-Serif" font-size="10.00">openmp_mutex.h</text>
</a>
</g>
</g>
<!-- Node33&#45;&gt;Node37 -->
<g id="edge60" class="edge"><title>Node33&#45;&gt;Node37</title>
<path fill="none" stroke="midnightblue" d="M1560.9,-240.44C1527.4,-235.642 1484.89,-224.537 1456,-199 1440.78,-185.544 1433.04,-163.046 1429.27,-147.087"/>
<polygon fill="midnightblue" stroke="midnightblue" points="1432.7,-146.366 1427.26,-137.275 1425.84,-147.774 1432.7,-146.366"/>
</g>
<!-- Node38 -->
<g id="node39" class="node"><title>Node38</title>
<g id="a_node39"><a xlink:href="parameter_8h.html" target="_top" xlink:title="parameter.h">
<polygon fill="white" stroke="black" points="1672,-179.5 1672,-198.5 1740,-198.5 1740,-179.5 1672,-179.5"/>
<text text-anchor="middle" x="1706" y="-186.5" font-family="Helvetica,sans-Serif" font-size="10.00">parameter.h</text>
</a>
</g>
</g>
<!-- Node33&#45;&gt;Node38 -->
<g id="edge64" class="edge"><title>Node33&#45;&gt;Node38</title>
<path fill="none" stroke="midnightblue" d="M1627.94,-235.324C1642.59,-226.822 1665.13,-213.729 1682.24,-203.797"/>
<polygon fill="midnightblue" stroke="midnightblue" points="1684.2,-206.703 1691.1,-198.655 1680.69,-200.649 1684.2,-206.703"/>
</g>
<!-- Node39 -->
<g id="node40" class="node"><title>Node39</title>
<g id="a_node40"><a xlink:href="parameter__container_8h.html" target="_top" xlink:title="parameter_container.h">
<polygon fill="white" stroke="black" points="1021.5,-179.5 1021.5,-198.5 1134.5,-198.5 1134.5,-179.5 1021.5,-179.5"/>
<text text-anchor="middle" x="1078" y="-186.5" font-family="Helvetica,sans-Serif" font-size="10.00">parameter_container.h</text>
</a>
</g>
</g>
<!-- Node33&#45;&gt;Node39 -->
<g id="edge67" class="edge"><title>Node33&#45;&gt;Node39</title>
<path fill="none" stroke="midnightblue" d="M1560.73,-238.724C1463.05,-228.864 1252.96,-207.659 1145.02,-196.765"/>
<polygon fill="midnightblue" stroke="midnightblue" points="1145.2,-193.266 1134.9,-195.743 1144.5,-200.23 1145.2,-193.266"/>
</g>
<!-- Node40 -->
<g id="node41" class="node"><title>Node40</title>
<g id="a_node41"><a xlink:href="jacobian__workspace_8h.html" target="_top" xlink:title="jacobian_workspace.h">
<polygon fill="white" stroke="black" points="1464.5,-179.5 1464.5,-198.5 1577.5,-198.5 1577.5,-179.5 1464.5,-179.5"/>
<text text-anchor="middle" x="1521" y="-186.5" font-family="Helvetica,sans-Serif" font-size="10.00">jacobian_workspace.h</text>
</a>
</g>
</g>
<!-- Node33&#45;&gt;Node40 -->
<g id="edge71" class="edge"><title>Node33&#45;&gt;Node40</title>
<path fill="none" stroke="midnightblue" d="M1598.22,-235.324C1583.73,-226.822 1561.43,-213.729 1544.51,-203.797"/>
<polygon fill="midnightblue" stroke="midnightblue" points="1546.14,-200.698 1535.74,-198.655 1542.6,-206.735 1546.14,-200.698"/>
</g>
<!-- Node37&#45;&gt;Node17 -->
<g id="edge62" class="edge"><title>Node37&#45;&gt;Node17</title>
<path fill="none" stroke="midnightblue" d="M1426,-117.975C1426,-109.58 1426,-96.4806 1426,-85.6631"/>
<polygon fill="midnightblue" stroke="midnightblue" points="1429.5,-85.5091 1426,-75.5091 1422.5,-85.5091 1429.5,-85.5091"/>
</g>
<!-- Node37&#45;&gt;Node27 -->
<g id="edge61" class="edge"><title>Node37&#45;&gt;Node27</title>
<path fill="none" stroke="midnightblue" d="M1393.44,-117.998C1385.76,-116.012 1377.6,-113.917 1370,-112 1322.88,-100.107 1268.83,-86.8657 1231.76,-77.8446"/>
<polygon fill="midnightblue" stroke="midnightblue" points="1232.32,-74.3781 1221.77,-75.4167 1230.66,-81.18 1232.32,-74.3781"/>
</g>
<!-- Node38&#45;&gt;Node5 -->
<g id="edge65" class="edge"><title>Node38&#45;&gt;Node5</title>
<path fill="none" stroke="midnightblue" d="M1671.92,-184.696C1598.42,-177.365 1427.12,-159.107 1371,-143 1369.07,-142.445 1367.1,-141.792 1365.14,-141.075"/>
<polygon fill="midnightblue" stroke="midnightblue" points="1366.17,-137.714 1355.59,-137.125 1363.49,-144.182 1366.17,-137.714"/>
</g>
<!-- Node38&#45;&gt;Node14 -->
<g id="edge66" class="edge"><title>Node38&#45;&gt;Node14</title>
<path fill="none" stroke="midnightblue" d="M1711.3,-179.475C1716.74,-170.727 1725.36,-156.869 1732.24,-145.809"/>
<polygon fill="midnightblue" stroke="midnightblue" points="1735.4,-147.349 1737.71,-137.009 1729.46,-143.653 1735.4,-147.349"/>
</g>
<!-- Node39&#45;&gt;Node5 -->
<g id="edge68" class="edge"><title>Node39&#45;&gt;Node5</title>
<path fill="none" stroke="midnightblue" d="M1134.35,-179.493C1180.06,-171.924 1245.87,-159.499 1302,-143 1304.43,-142.285 1306.93,-141.476 1309.42,-140.616"/>
<polygon fill="midnightblue" stroke="midnightblue" points="1310.7,-143.876 1318.87,-137.128 1308.27,-137.309 1310.7,-143.876"/>
</g>
<!-- Node39&#45;&gt;Node7 -->
<g id="edge70" class="edge"><title>Node39&#45;&gt;Node7</title>
<path fill="none" stroke="midnightblue" d="M1039.83,-179.445C1005.46,-171.351 953.786,-158.201 910,-143 877.087,-131.574 871.84,-120.287 838,-112 726.498,-84.6944 367.829,-71.3838 259.967,-67.9307"/>
<polygon fill="midnightblue" stroke="midnightblue" points="259.867,-64.4259 249.762,-67.6097 259.647,-71.4225 259.867,-64.4259"/>
</g>
<!-- Node39&#45;&gt;Node8 -->
<g id="edge69" class="edge"><title>Node39&#45;&gt;Node8</title>
<path fill="none" stroke="midnightblue" d="M1062.84,-179.275C1034.06,-163.151 969.122,-128.802 910,-112 794.48,-79.1693 650.441,-70.209 590.823,-67.8305"/>
<polygon fill="midnightblue" stroke="midnightblue" points="590.821,-64.3281 580.699,-67.4587 590.564,-71.3234 590.821,-64.3281"/>
</g>
<!-- Node40&#45;&gt;Node3 -->
<g id="edge74" class="edge"><title>Node40&#45;&gt;Node3</title>
<path fill="none" stroke="midnightblue" d="M1464.46,-185.346C1359.74,-179.945 1139.63,-166.182 1067,-143 1023.45,-129.1 978.422,-99.602 953.534,-81.7195"/>
<polygon fill="midnightblue" stroke="midnightblue" points="955.453,-78.787 945.316,-75.7071 951.32,-84.4365 955.453,-78.787"/>
</g>
<!-- Node40&#45;&gt;Node14 -->
<g id="edge76" class="edge"><title>Node40&#45;&gt;Node14</title>
<path fill="none" stroke="midnightblue" d="M1553.42,-179.439C1587.45,-170.434 1642.51,-155.818 1690,-143 1693.88,-141.953 1697.91,-140.858 1701.95,-139.76"/>
<polygon fill="midnightblue" stroke="midnightblue" points="1703.18,-143.054 1711.9,-137.046 1701.33,-136.301 1703.18,-143.054"/>
</g>
<!-- Node40&#45;&gt;Node17 -->
<g id="edge75" class="edge"><title>Node40&#45;&gt;Node17</title>
<path fill="none" stroke="midnightblue" d="M1517.79,-179.358C1511.99,-164.522 1498.73,-133.712 1481,-112 1471.52,-100.388 1458.65,-89.6606 1447.74,-81.5944"/>
<polygon fill="midnightblue" stroke="midnightblue" points="1449.69,-78.6861 1439.51,-75.73 1445.62,-84.3856 1449.69,-78.6861"/>
</g>
<!-- Node40&#45;&gt;Node25 -->
<g id="edge72" class="edge"><title>Node40&#45;&gt;Node25</title>
<path fill="none" stroke="midnightblue" d="M1570.98,-179.42C1620.02,-168.76 1683.82,-147.503 1657,-112 1607.93,-47.0314 1360.64,-22.4262 1245.79,-14.397"/>
<polygon fill="midnightblue" stroke="midnightblue" points="1245.97,-10.9017 1235.76,-13.7147 1245.5,-17.8856 1245.97,-10.9017"/>
</g>
<!-- Node41 -->
<g id="node42" class="node"><title>Node41</title>
<polygon fill="white" stroke="#bfbfbf" points="1528.5,-118 1528.5,-137 1647.5,-137 1647.5,-118 1528.5,-118"/>
<text text-anchor="middle" x="1588" y="-125" font-family="Helvetica,sans-Serif" font-size="10.00">eigen3/Eigen/StdVector</text>
</g>
<!-- Node40&#45;&gt;Node41 -->
<g id="edge73" class="edge"><title>Node40&#45;&gt;Node41</title>
<path fill="none" stroke="midnightblue" d="M1530.6,-179.475C1541.05,-170.197 1557.97,-155.171 1570.74,-143.831"/>
<polygon fill="midnightblue" stroke="midnightblue" points="1573.27,-146.266 1578.42,-137.009 1568.62,-141.032 1573.27,-146.266"/>
</g>
<!-- Node42&#45;&gt;Node8 -->
<g id="edge83" class="edge"><title>Node42&#45;&gt;Node8</title>
<path fill="none" stroke="midnightblue" d="M554.296,-302.384C468.701,-293.849 298.896,-261.968 260,-143 255.718,-129.904 251.002,-122.433 260,-112 295.451,-70.895 467.029,-66.7312 535.095,-66.7312"/>
<polygon fill="midnightblue" stroke="midnightblue" points="535.448,-70.2323 545.459,-66.7643 535.47,-63.2323 535.448,-70.2323"/>
</g>
<!-- Node42&#45;&gt;Node12 -->
<g id="edge79" class="edge"><title>Node42&#45;&gt;Node12</title>
<path fill="none" stroke="midnightblue" d="M554.44,-303.909C429.194,-298.74 105.3,-277.862 40,-199 27.7225,-184.173 27.7829,-157.165 52,-112 58.2758,-100.296 68.6994,-89.8511 78.1377,-81.9777"/>
<polygon fill="midnightblue" stroke="midnightblue" points="80.3541,-84.6874 86.0494,-75.7535 76.0259,-79.1858 80.3541,-84.6874"/>
</g>
<!-- Node42&#45;&gt;Node21 -->
<g id="edge81" class="edge"><title>Node42&#45;&gt;Node21</title>
<path fill="none" stroke="midnightblue" d="M619.258,-296.819C654.319,-276.87 740.851,-227.636 783.066,-203.618"/>
<polygon fill="midnightblue" stroke="midnightblue" points="784.881,-206.612 791.842,-198.624 781.419,-200.528 784.881,-206.612"/>
</g>
<!-- Node42&#45;&gt;Node32 -->
<g id="edge82" class="edge"><title>Node42&#45;&gt;Node32</title>
<path fill="none" stroke="midnightblue" d="M584.758,-296.819C540.079,-276.661 429.119,-226.599 376.524,-202.869"/>
<polygon fill="midnightblue" stroke="midnightblue" points="377.67,-199.547 367.116,-198.624 374.791,-205.927 377.67,-199.547"/>
</g>
<!-- Node42&#45;&gt;Node33 -->
<g id="edge80" class="edge"><title>Node42&#45;&gt;Node33</title>
<path fill="none" stroke="midnightblue" d="M653.723,-299.585C679.699,-296.661 712.03,-293.279 741,-291 1043.98,-267.166 1407.21,-253.064 1550.5,-248.068"/>
<polygon fill="midnightblue" stroke="midnightblue" points="1550.97,-251.554 1560.84,-247.71 1550.73,-244.559 1550.97,-251.554"/>
</g>
</g>
</svg>
