<?xml version="1.0" encoding="UTF-8" standalone="no"?>
<!DOCTYPE svg PUBLIC "-//W3C//DTD SVG 1.1//EN"
 "http://www.w3.org/Graphics/SVG/1.1/DTD/svg11.dtd">
<!-- Generated by graphviz version 2.38.0 (20140413.2041)
 -->
<!-- Title: /home/alejandro/Desarrollo eclipse/os1/Thirdparty/g2o/g2o/core/optimization_algorithm_with_hessian.h Pages: 1 -->
<svg width="773pt" height="239pt"
 viewBox="0.00 0.00 772.50 239.00" xmlns="http://www.w3.org/2000/svg" xmlns:xlink="http://www.w3.org/1999/xlink">
<g id="graph0" class="graph" transform="scale(1 1) rotate(0) translate(4 235)">
<title>/home/alejandro/Desarrollo eclipse/os1/Thirdparty/g2o/g2o/core/optimization_algorithm_with_hessian.h</title>
<polygon fill="white" stroke="none" points="-4,4 -4,-235 768.5,-235 768.5,4 -4,4"/>
<!-- Node30 -->
<g id="node1" class="node"><title>Node30</title>
<polygon fill="#bfbfbf" stroke="black" points="390.5,-178.5 390.5,-230.5 523.5,-230.5 523.5,-178.5 390.5,-178.5"/>
<text text-anchor="start" x="398.5" y="-218.5" font-family="Helvetica,sans-Serif" font-size="10.00">/home/alejandro/Desarrollo</text>
<text text-anchor="start" x="398.5" y="-207.5" font-family="Helvetica,sans-Serif" font-size="10.00"> eclipse/os1/Thirdparty</text>
<text text-anchor="start" x="398.5" y="-196.5" font-family="Helvetica,sans-Serif" font-size="10.00">/g2o/g2o/core/optimization</text>
<text text-anchor="middle" x="457" y="-185.5" font-family="Helvetica,sans-Serif" font-size="10.00">_algorithm_with_hessian.h</text>
</g>
<!-- Node31 -->
<g id="node2" class="node"><title>Node31</title>
<g id="a_node2"><a xlink:href="optimization__algorithm__levenberg_8h.html" target="_top" xlink:title="/home/alejandro/Desarrollo\l eclipse/os1/Thirdparty\l/g2o/g2o/core/optimization\l_algorithm_levenberg.h">
<polygon fill="white" stroke="black" points="162.5,-89.5 162.5,-141.5 295.5,-141.5 295.5,-89.5 162.5,-89.5"/>
<text text-anchor="start" x="170.5" y="-129.5" font-family="Helvetica,sans-Serif" font-size="10.00">/home/alejandro/Desarrollo</text>
<text text-anchor="start" x="170.5" y="-118.5" font-family="Helvetica,sans-Serif" font-size="10.00"> eclipse/os1/Thirdparty</text>
<text text-anchor="start" x="170.5" y="-107.5" font-family="Helvetica,sans-Serif" font-size="10.00">/g2o/g2o/core/optimization</text>
<text text-anchor="middle" x="229" y="-96.5" font-family="Helvetica,sans-Serif" font-size="10.00">_algorithm_levenberg.h</text>
</a>
</g>
</g>
<!-- Node30&#45;&gt;Node31 -->
<g id="edge1" class="edge"><title>Node30&#45;&gt;Node31</title>
<path fill="none" stroke="midnightblue" d="M381.937,-174.858C353.712,-164.087 321.868,-151.936 294.573,-141.521"/>
<polygon fill="midnightblue" stroke="midnightblue" points="380.768,-178.158 391.359,-178.453 383.264,-171.618 380.768,-178.158"/>
</g>
<!-- Node34 -->
<g id="node5" class="node"><title>Node34</title>
<g id="a_node5"><a xlink:href="optimization__algorithm__dogleg_8h.html" target="_top" xlink:title="/home/alejandro/Desarrollo\l eclipse/os1/Thirdparty\l/g2o/g2o/core/optimization\l_algorithm_dogleg.h">
<polygon fill="white" stroke="black" points="313.5,-89.5 313.5,-141.5 446.5,-141.5 446.5,-89.5 313.5,-89.5"/>
<text text-anchor="start" x="321.5" y="-129.5" font-family="Helvetica,sans-Serif" font-size="10.00">/home/alejandro/Desarrollo</text>
<text text-anchor="start" x="321.5" y="-118.5" font-family="Helvetica,sans-Serif" font-size="10.00"> eclipse/os1/Thirdparty</text>
<text text-anchor="start" x="321.5" y="-107.5" font-family="Helvetica,sans-Serif" font-size="10.00">/g2o/g2o/core/optimization</text>
<text text-anchor="middle" x="380" y="-96.5" font-family="Helvetica,sans-Serif" font-size="10.00">_algorithm_dogleg.h</text>
</a>
</g>
</g>
<!-- Node30&#45;&gt;Node34 -->
<g id="edge4" class="edge"><title>Node30&#45;&gt;Node34</title>
<path fill="none" stroke="midnightblue" d="M428.05,-170.79C419.499,-161.129 410.278,-150.71 402.222,-141.607"/>
<polygon fill="midnightblue" stroke="midnightblue" points="425.48,-173.167 434.728,-178.336 430.722,-168.528 425.48,-173.167"/>
</g>
<!-- Node36 -->
<g id="node7" class="node"><title>Node36</title>
<g id="a_node7"><a xlink:href="optimization__algorithm__gauss__newton_8h.html" target="_top" xlink:title="/home/alejandro/Desarrollo\l eclipse/os1/Thirdparty\l/g2o/g2o/core/optimization\l_algorithm_gauss_newton.h">
<polygon fill="white" stroke="black" points="465,-89.5 465,-141.5 603,-141.5 603,-89.5 465,-89.5"/>
<text text-anchor="start" x="473" y="-129.5" font-family="Helvetica,sans-Serif" font-size="10.00">/home/alejandro/Desarrollo</text>
<text text-anchor="start" x="473" y="-118.5" font-family="Helvetica,sans-Serif" font-size="10.00"> eclipse/os1/Thirdparty</text>
<text text-anchor="start" x="473" y="-107.5" font-family="Helvetica,sans-Serif" font-size="10.00">/g2o/g2o/core/optimization</text>
<text text-anchor="middle" x="534" y="-96.5" font-family="Helvetica,sans-Serif" font-size="10.00">_algorithm_gauss_newton.h</text>
</a>
</g>
</g>
<!-- Node30&#45;&gt;Node36 -->
<g id="edge6" class="edge"><title>Node30&#45;&gt;Node36</title>
<path fill="none" stroke="midnightblue" d="M485.95,-170.79C494.501,-161.129 503.722,-150.71 511.778,-141.607"/>
<polygon fill="midnightblue" stroke="midnightblue" points="483.278,-168.528 479.272,-178.336 488.52,-173.167 483.278,-168.528"/>
</g>
<!-- Node38 -->
<g id="node9" class="node"><title>Node38</title>
<g id="a_node9"><a xlink:href="optimization__algorithm__with__hessian_8cpp.html" target="_top" xlink:title="/home/alejandro/Desarrollo\l eclipse/os1/Thirdparty\l/g2o/g2o/core/optimization\l_algorithm_with_hessian.cpp">
<polygon fill="white" stroke="black" points="621.5,-89.5 621.5,-141.5 764.5,-141.5 764.5,-89.5 621.5,-89.5"/>
<text text-anchor="start" x="629.5" y="-129.5" font-family="Helvetica,sans-Serif" font-size="10.00">/home/alejandro/Desarrollo</text>
<text text-anchor="start" x="629.5" y="-118.5" font-family="Helvetica,sans-Serif" font-size="10.00"> eclipse/os1/Thirdparty</text>
<text text-anchor="start" x="629.5" y="-107.5" font-family="Helvetica,sans-Serif" font-size="10.00">/g2o/g2o/core/optimization</text>
<text text-anchor="middle" x="693" y="-96.5" font-family="Helvetica,sans-Serif" font-size="10.00">_algorithm_with_hessian.cpp</text>
</a>
</g>
</g>
<!-- Node30&#45;&gt;Node38 -->
<g id="edge8" class="edge"><title>Node30&#45;&gt;Node38</title>
<path fill="none" stroke="midnightblue" d="M533.11,-175.443C562.617,-164.565 596.14,-152.207 624.843,-141.626"/>
<polygon fill="midnightblue" stroke="midnightblue" points="531.854,-172.175 523.682,-178.918 534.275,-178.743 531.854,-172.175"/>
</g>
<!-- Node32 -->
<g id="node3" class="node"><title>Node32</title>
<g id="a_node3"><a xlink:href="_optimizer_8cc.html" target="_top" xlink:title="/home/alejandro/Desarrollo\l eclipse/os1/src/Optimizer.cc">
<polygon fill="white" stroke="black" points="0,-11.5 0,-41.5 144,-41.5 144,-11.5 0,-11.5"/>
<text text-anchor="start" x="8" y="-29.5" font-family="Helvetica,sans-Serif" font-size="10.00">/home/alejandro/Desarrollo</text>
<text text-anchor="middle" x="72" y="-18.5" font-family="Helvetica,sans-Serif" font-size="10.00"> eclipse/os1/src/Optimizer.cc</text>
</a>
</g>
</g>
<!-- Node31&#45;&gt;Node32 -->
<g id="edge2" class="edge"><title>Node31&#45;&gt;Node32</title>
<path fill="none" stroke="midnightblue" d="M174.841,-84.4882C148.529,-69.908 118.169,-53.0841 97.2929,-41.5158"/>
<polygon fill="midnightblue" stroke="midnightblue" points="173.146,-87.5504 183.589,-89.336 176.539,-81.4276 173.146,-87.5504"/>
</g>
<!-- Node33 -->
<g id="node4" class="node"><title>Node33</title>
<g id="a_node4"><a xlink:href="optimization__algorithm__levenberg_8cpp.html" target="_top" xlink:title="/home/alejandro/Desarrollo\l eclipse/os1/Thirdparty\l/g2o/g2o/core/optimization\l_algorithm_levenberg.cpp">
<polygon fill="white" stroke="black" points="162.5,-0.5 162.5,-52.5 295.5,-52.5 295.5,-0.5 162.5,-0.5"/>
<text text-anchor="start" x="170.5" y="-40.5" font-family="Helvetica,sans-Serif" font-size="10.00">/home/alejandro/Desarrollo</text>
<text text-anchor="start" x="170.5" y="-29.5" font-family="Helvetica,sans-Serif" font-size="10.00"> eclipse/os1/Thirdparty</text>
<text text-anchor="start" x="170.5" y="-18.5" font-family="Helvetica,sans-Serif" font-size="10.00">/g2o/g2o/core/optimization</text>
<text text-anchor="middle" x="229" y="-7.5" font-family="Helvetica,sans-Serif" font-size="10.00">_algorithm_levenberg.cpp</text>
</a>
</g>
</g>
<!-- Node31&#45;&gt;Node33 -->
<g id="edge3" class="edge"><title>Node31&#45;&gt;Node33</title>
<path fill="none" stroke="midnightblue" d="M229,-79.1908C229,-70.2824 229,-60.8986 229,-52.6075"/>
<polygon fill="midnightblue" stroke="midnightblue" points="225.5,-79.336 229,-89.336 232.5,-79.336 225.5,-79.336"/>
</g>
<!-- Node35 -->
<g id="node6" class="node"><title>Node35</title>
<g id="a_node6"><a xlink:href="optimization__algorithm__dogleg_8cpp.html" target="_top" xlink:title="/home/alejandro/Desarrollo\l eclipse/os1/Thirdparty\l/g2o/g2o/core/optimization\l_algorithm_dogleg.cpp">
<polygon fill="white" stroke="black" points="313.5,-0.5 313.5,-52.5 446.5,-52.5 446.5,-0.5 313.5,-0.5"/>
<text text-anchor="start" x="321.5" y="-40.5" font-family="Helvetica,sans-Serif" font-size="10.00">/home/alejandro/Desarrollo</text>
<text text-anchor="start" x="321.5" y="-29.5" font-family="Helvetica,sans-Serif" font-size="10.00"> eclipse/os1/Thirdparty</text>
<text text-anchor="start" x="321.5" y="-18.5" font-family="Helvetica,sans-Serif" font-size="10.00">/g2o/g2o/core/optimization</text>
<text text-anchor="middle" x="380" y="-7.5" font-family="Helvetica,sans-Serif" font-size="10.00">_algorithm_dogleg.cpp</text>
</a>
</g>
</g>
<!-- Node34&#45;&gt;Node35 -->
<g id="edge5" class="edge"><title>Node34&#45;&gt;Node35</title>
<path fill="none" stroke="midnightblue" d="M380,-79.1908C380,-70.2824 380,-60.8986 380,-52.6075"/>
<polygon fill="midnightblue" stroke="midnightblue" points="376.5,-79.336 380,-89.336 383.5,-79.336 376.5,-79.336"/>
</g>
<!-- Node37 -->
<g id="node8" class="node"><title>Node37</title>
<g id="a_node8"><a xlink:href="optimization__algorithm__gauss__newton_8cpp.html" target="_top" xlink:title="/home/alejandro/Desarrollo\l eclipse/os1/Thirdparty\l/g2o/g2o/core/optimization\l_algorithm_gauss_newton.cpp">
<polygon fill="white" stroke="black" points="464.5,-0.5 464.5,-52.5 613.5,-52.5 613.5,-0.5 464.5,-0.5"/>
<text text-anchor="start" x="472.5" y="-40.5" font-family="Helvetica,sans-Serif" font-size="10.00">/home/alejandro/Desarrollo</text>
<text text-anchor="start" x="472.5" y="-29.5" font-family="Helvetica,sans-Serif" font-size="10.00"> eclipse/os1/Thirdparty</text>
<text text-anchor="start" x="472.5" y="-18.5" font-family="Helvetica,sans-Serif" font-size="10.00">/g2o/g2o/core/optimization</text>
<text text-anchor="middle" x="539" y="-7.5" font-family="Helvetica,sans-Serif" font-size="10.00">_algorithm_gauss_newton.cpp</text>
</a>
</g>
</g>
<!-- Node36&#45;&gt;Node37 -->
<g id="edge7" class="edge"><title>Node36&#45;&gt;Node37</title>
<path fill="none" stroke="midnightblue" d="M536.029,-79.1908C536.541,-70.2824 537.081,-60.8986 537.557,-52.6075"/>
<polygon fill="midnightblue" stroke="midnightblue" points="532.526,-79.1516 535.446,-89.336 539.514,-79.5533 532.526,-79.1516"/>
</g>
</g>
</svg>
