<?xml version="1.0" encoding="UTF-8" standalone="no"?>
<!DOCTYPE svg PUBLIC "-//W3C//DTD SVG 1.1//EN"
 "http://www.w3.org/Graphics/SVG/1.1/DTD/svg11.dtd">
<!-- Generated by graphviz version 2.38.0 (20140413.2041)
 -->
<!-- Title: /home/alejandro/Desarrollo eclipse/os1/Thirdparty/g2o/g2o/core/optimization_algorithm_factory.cpp Pages: 1 -->
<svg width="513pt" height="307pt"
 viewBox="0.00 0.00 512.50 307.00" xmlns="http://www.w3.org/2000/svg" xmlns:xlink="http://www.w3.org/1999/xlink">
<g id="graph0" class="graph" transform="scale(1 1) rotate(0) translate(4 303)">
<title>/home/alejandro/Desarrollo eclipse/os1/Thirdparty/g2o/g2o/core/optimization_algorithm_factory.cpp</title>
<polygon fill="white" stroke="none" points="-4,4 -4,-303 508.5,-303 508.5,4 -4,4"/>
<!-- Node0 -->
<g id="node1" class="node"><title>Node0</title>
<polygon fill="#bfbfbf" stroke="black" points="341.5,-246.5 341.5,-298.5 474.5,-298.5 474.5,-246.5 341.5,-246.5"/>
<text text-anchor="start" x="349.5" y="-286.5" font-family="Helvetica,sans-Serif" font-size="10.00">/home/alejandro/Desarrollo</text>
<text text-anchor="start" x="349.5" y="-275.5" font-family="Helvetica,sans-Serif" font-size="10.00"> eclipse/os1/Thirdparty</text>
<text text-anchor="start" x="349.5" y="-264.5" font-family="Helvetica,sans-Serif" font-size="10.00">/g2o/g2o/core/optimization</text>
<text text-anchor="middle" x="408" y="-253.5" font-family="Helvetica,sans-Serif" font-size="10.00">_algorithm_factory.cpp</text>
</g>
<!-- Node1 -->
<g id="node2" class="node"><title>Node1</title>
<g id="a_node2"><a xlink:href="optimization__algorithm__factory_8h.html" target="_top" xlink:title="optimization_algorithm\l_factory.h">
<polygon fill="white" stroke="black" points="247,-179.5 247,-209.5 361,-209.5 361,-179.5 247,-179.5"/>
<text text-anchor="start" x="255" y="-197.5" font-family="Helvetica,sans-Serif" font-size="10.00">optimization_algorithm</text>
<text text-anchor="middle" x="304" y="-186.5" font-family="Helvetica,sans-Serif" font-size="10.00">_factory.h</text>
</a>
</g>
</g>
<!-- Node0&#45;&gt;Node1 -->
<g id="edge1" class="edge"><title>Node0&#45;&gt;Node1</title>
<path fill="none" stroke="midnightblue" d="M373.658,-246.404C360.102,-236.498 344.729,-225.263 331.88,-215.873"/>
<polygon fill="midnightblue" stroke="midnightblue" points="333.58,-212.781 323.441,-209.707 329.449,-218.433 333.58,-212.781"/>
</g>
<!-- Node10 -->
<g id="node11" class="node"><title>Node10</title>
<polygon fill="white" stroke="#bfbfbf" points="362,-118 362,-137 416,-137 416,-118 362,-118"/>
<text text-anchor="middle" x="389" y="-125" font-family="Helvetica,sans-Serif" font-size="10.00">iostream</text>
</g>
<!-- Node0&#45;&gt;Node10 -->
<g id="edge12" class="edge"><title>Node0&#45;&gt;Node10</title>
<path fill="none" stroke="midnightblue" d="M404.647,-246.264C400.878,-217.895 394.846,-172.498 391.478,-147.154"/>
<polygon fill="midnightblue" stroke="midnightblue" points="394.923,-146.505 390.136,-137.053 387.984,-147.427 394.923,-146.505"/>
</g>
<!-- Node11 -->
<g id="node12" class="node"><title>Node11</title>
<polygon fill="white" stroke="#bfbfbf" points="434.5,-118 434.5,-137 485.5,-137 485.5,-118 434.5,-118"/>
<text text-anchor="middle" x="460" y="-125" font-family="Helvetica,sans-Serif" font-size="10.00">typeinfo</text>
</g>
<!-- Node0&#45;&gt;Node11 -->
<g id="edge13" class="edge"><title>Node0&#45;&gt;Node11</title>
<path fill="none" stroke="midnightblue" d="M417.177,-246.264C427.586,-217.639 444.299,-171.678 453.464,-146.474"/>
<polygon fill="midnightblue" stroke="midnightblue" points="456.761,-147.648 456.89,-137.053 450.183,-145.255 456.761,-147.648"/>
</g>
<!-- Node12 -->
<g id="node13" class="node"><title>Node12</title>
<polygon fill="white" stroke="#bfbfbf" points="455.5,-185 455.5,-204 504.5,-204 504.5,-185 455.5,-185"/>
<text text-anchor="middle" x="480" y="-192" font-family="Helvetica,sans-Serif" font-size="10.00">cassert</text>
</g>
<!-- Node0&#45;&gt;Node12 -->
<g id="edge14" class="edge"><title>Node0&#45;&gt;Node12</title>
<path fill="none" stroke="midnightblue" d="M431.975,-246.193C442.821,-234.745 455.312,-221.56 464.836,-211.507"/>
<polygon fill="midnightblue" stroke="midnightblue" points="467.413,-213.876 471.749,-204.209 462.331,-209.061 467.413,-213.876"/>
</g>
<!-- Node2 -->
<g id="node3" class="node"><title>Node2</title>
<g id="a_node3"><a xlink:href="config_8h.html" target="_top" xlink:title="../../config.h">
<polygon fill="white" stroke="black" points="179.5,-118 179.5,-137 248.5,-137 248.5,-118 179.5,-118"/>
<text text-anchor="middle" x="214" y="-125" font-family="Helvetica,sans-Serif" font-size="10.00">../../config.h</text>
</a>
</g>
</g>
<!-- Node1&#45;&gt;Node2 -->
<g id="edge2" class="edge"><title>Node1&#45;&gt;Node2</title>
<path fill="none" stroke="midnightblue" d="M284.471,-179.396C269.518,-168.597 248.97,-153.756 233.921,-142.887"/>
<polygon fill="midnightblue" stroke="midnightblue" points="235.935,-140.025 225.779,-137.007 231.837,-145.699 235.935,-140.025"/>
</g>
<!-- Node3 -->
<g id="node4" class="node"><title>Node3</title>
<g id="a_node4"><a xlink:href="misc_8h.html" target="_top" xlink:title="some general case utility functions ">
<polygon fill="white" stroke="black" points="266.5,-118 266.5,-137 343.5,-137 343.5,-118 266.5,-118"/>
<text text-anchor="middle" x="305" y="-125" font-family="Helvetica,sans-Serif" font-size="10.00">../stuff/misc.h</text>
</a>
</g>
</g>
<!-- Node1&#45;&gt;Node3 -->
<g id="edge3" class="edge"><title>Node1&#45;&gt;Node3</title>
<path fill="none" stroke="midnightblue" d="M304.217,-179.396C304.361,-170.064 304.551,-157.714 304.707,-147.517"/>
<polygon fill="midnightblue" stroke="midnightblue" points="308.212,-147.247 304.866,-137.195 301.213,-147.139 308.212,-147.247"/>
</g>
<!-- Node7 -->
<g id="node8" class="node"><title>Node7</title>
<g id="a_node8"><a xlink:href="optimization__algorithm__property_8h.html" target="_top" xlink:title="optimization_algorithm\l_property.h">
<polygon fill="white" stroke="black" points="0,-112.5 0,-142.5 114,-142.5 114,-112.5 0,-112.5"/>
<text text-anchor="start" x="8" y="-130.5" font-family="Helvetica,sans-Serif" font-size="10.00">optimization_algorithm</text>
<text text-anchor="middle" x="57" y="-119.5" font-family="Helvetica,sans-Serif" font-size="10.00">_property.h</text>
</a>
</g>
</g>
<!-- Node1&#45;&gt;Node7 -->
<g id="edge7" class="edge"><title>Node1&#45;&gt;Node7</title>
<path fill="none" stroke="midnightblue" d="M250.709,-179.476C212.452,-169.408 160.736,-155.799 120.363,-145.174"/>
<polygon fill="midnightblue" stroke="midnightblue" points="121.183,-141.771 110.621,-142.611 119.401,-148.541 121.183,-141.771"/>
</g>
<!-- Node9 -->
<g id="node10" class="node"><title>Node9</title>
<polygon fill="white" stroke="#bfbfbf" points="132.5,-118 132.5,-137 161.5,-137 161.5,-118 132.5,-118"/>
<text text-anchor="middle" x="147" y="-125" font-family="Helvetica,sans-Serif" font-size="10.00">list</text>
</g>
<!-- Node1&#45;&gt;Node9 -->
<g id="edge9" class="edge"><title>Node1&#45;&gt;Node9</title>
<path fill="none" stroke="midnightblue" d="M259.908,-179.405C233.304,-170.286 199.05,-157.446 170,-143 169.577,-142.79 169.153,-142.574 168.727,-142.353"/>
<polygon fill="midnightblue" stroke="midnightblue" points="170.283,-139.211 159.871,-137.253 166.79,-145.277 170.283,-139.211"/>
</g>
<!-- Node1&#45;&gt;Node10 -->
<g id="edge10" class="edge"><title>Node1&#45;&gt;Node10</title>
<path fill="none" stroke="midnightblue" d="M322.444,-179.396C336.353,-168.759 355.389,-154.203 369.54,-143.381"/>
<polygon fill="midnightblue" stroke="midnightblue" points="371.813,-146.049 377.63,-137.195 367.561,-140.489 371.813,-146.049"/>
</g>
<!-- Node1&#45;&gt;Node11 -->
<g id="edge11" class="edge"><title>Node1&#45;&gt;Node11</title>
<path fill="none" stroke="midnightblue" d="M337.85,-179.396C365.343,-167.941 403.748,-151.938 430.115,-140.952"/>
<polygon fill="midnightblue" stroke="midnightblue" points="431.699,-144.084 439.583,-137.007 429.006,-137.622 431.699,-144.084"/>
</g>
<!-- Node4 -->
<g id="node5" class="node"><title>Node4</title>
<g id="a_node5"><a xlink:href="macros_8h.html" target="_top" xlink:title="macros.h">
<polygon fill="white" stroke="black" points="241.5,-56.5 241.5,-75.5 298.5,-75.5 298.5,-56.5 241.5,-56.5"/>
<text text-anchor="middle" x="270" y="-63.5" font-family="Helvetica,sans-Serif" font-size="10.00">macros.h</text>
</a>
</g>
</g>
<!-- Node3&#45;&gt;Node4 -->
<g id="edge4" class="edge"><title>Node3&#45;&gt;Node4</title>
<path fill="none" stroke="midnightblue" d="M299.985,-117.975C294.839,-109.227 286.688,-95.3691 280.182,-84.3093"/>
<polygon fill="midnightblue" stroke="midnightblue" points="283.092,-82.3539 275.005,-75.5091 277.059,-85.903 283.092,-82.3539"/>
</g>
<!-- Node6 -->
<g id="node7" class="node"><title>Node6</title>
<polygon fill="white" stroke="#bfbfbf" points="317,-56.5 317,-75.5 361,-75.5 361,-56.5 317,-56.5"/>
<text text-anchor="middle" x="339" y="-63.5" font-family="Helvetica,sans-Serif" font-size="10.00">cmath</text>
</g>
<!-- Node3&#45;&gt;Node6 -->
<g id="edge6" class="edge"><title>Node3&#45;&gt;Node6</title>
<path fill="none" stroke="midnightblue" d="M309.871,-117.975C314.87,-109.227 322.789,-95.3691 329.109,-84.3093"/>
<polygon fill="midnightblue" stroke="midnightblue" points="332.215,-85.928 334.138,-75.5091 326.137,-82.455 332.215,-85.928"/>
</g>
<!-- Node5 -->
<g id="node6" class="node"><title>Node5</title>
<polygon fill="white" stroke="#bfbfbf" points="246.5,-0.5 246.5,-19.5 293.5,-19.5 293.5,-0.5 246.5,-0.5"/>
<text text-anchor="middle" x="270" y="-7.5" font-family="Helvetica,sans-Serif" font-size="10.00">math.h</text>
</g>
<!-- Node4&#45;&gt;Node5 -->
<g id="edge5" class="edge"><title>Node4&#45;&gt;Node5</title>
<path fill="none" stroke="midnightblue" d="M270,-56.083C270,-49.0059 270,-38.8611 270,-29.9865"/>
<polygon fill="midnightblue" stroke="midnightblue" points="273.5,-29.751 270,-19.7511 266.5,-29.7511 273.5,-29.751"/>
</g>
<!-- Node8 -->
<g id="node9" class="node"><title>Node8</title>
<polygon fill="white" stroke="#bfbfbf" points="36.5,-56.5 36.5,-75.5 77.5,-75.5 77.5,-56.5 36.5,-56.5"/>
<text text-anchor="middle" x="57" y="-63.5" font-family="Helvetica,sans-Serif" font-size="10.00">string</text>
</g>
<!-- Node7&#45;&gt;Node8 -->
<g id="edge8" class="edge"><title>Node7&#45;&gt;Node8</title>
<path fill="none" stroke="midnightblue" d="M57,-112.399C57,-104.466 57,-94.458 57,-85.8583"/>
<polygon fill="midnightblue" stroke="midnightblue" points="60.5001,-85.6577 57,-75.6578 53.5001,-85.6578 60.5001,-85.6577"/>
</g>
</g>
</svg>
