<?xml version="1.0" encoding="UTF-8" standalone="no"?>
<!DOCTYPE svg PUBLIC "-//W3C//DTD SVG 1.1//EN"
 "http://www.w3.org/Graphics/SVG/1.1/DTD/svg11.dtd">
<!-- Generated by graphviz version 2.38.0 (20140413.2041)
 -->
<!-- Title: /home/alejandro/Desarrollo eclipse/os1/Thirdparty/g2o/g2o/core/optimization_algorithm_property.h Pages: 1 -->
<svg width="292pt" height="239pt"
 viewBox="0.00 0.00 292.00 239.00" xmlns="http://www.w3.org/2000/svg" xmlns:xlink="http://www.w3.org/1999/xlink">
<g id="graph0" class="graph" transform="scale(1 1) rotate(0) translate(4 235)">
<title>/home/alejandro/Desarrollo eclipse/os1/Thirdparty/g2o/g2o/core/optimization_algorithm_property.h</title>
<polygon fill="white" stroke="none" points="-4,4 -4,-235 288,-235 288,4 -4,4"/>
<!-- Node2 -->
<g id="node1" class="node"><title>Node2</title>
<polygon fill="#bfbfbf" stroke="black" points="75,-178.5 75,-230.5 208,-230.5 208,-178.5 75,-178.5"/>
<text text-anchor="start" x="83" y="-218.5" font-family="Helvetica,sans-Serif" font-size="10.00">/home/alejandro/Desarrollo</text>
<text text-anchor="start" x="83" y="-207.5" font-family="Helvetica,sans-Serif" font-size="10.00"> eclipse/os1/Thirdparty</text>
<text text-anchor="start" x="83" y="-196.5" font-family="Helvetica,sans-Serif" font-size="10.00">/g2o/g2o/core/optimization</text>
<text text-anchor="middle" x="141.5" y="-185.5" font-family="Helvetica,sans-Serif" font-size="10.00">_algorithm_property.h</text>
</g>
<!-- Node3 -->
<g id="node2" class="node"><title>Node3</title>
<g id="a_node2"><a xlink:href="optimizable__graph_8cpp.html" target="_top" xlink:title="/home/alejandro/Desarrollo\l eclipse/os1/Thirdparty\l/g2o/g2o/core/optimizable\l_graph.cpp">
<polygon fill="white" stroke="black" points="0,-89.5 0,-141.5 133,-141.5 133,-89.5 0,-89.5"/>
<text text-anchor="start" x="8" y="-129.5" font-family="Helvetica,sans-Serif" font-size="10.00">/home/alejandro/Desarrollo</text>
<text text-anchor="start" x="8" y="-118.5" font-family="Helvetica,sans-Serif" font-size="10.00"> eclipse/os1/Thirdparty</text>
<text text-anchor="start" x="8" y="-107.5" font-family="Helvetica,sans-Serif" font-size="10.00">/g2o/g2o/core/optimizable</text>
<text text-anchor="middle" x="66.5" y="-96.5" font-family="Helvetica,sans-Serif" font-size="10.00">_graph.cpp</text>
</a>
</g>
</g>
<!-- Node2&#45;&gt;Node3 -->
<g id="edge1" class="edge"><title>Node2&#45;&gt;Node3</title>
<path fill="none" stroke="midnightblue" d="M113.054,-170.503C104.795,-160.923 95.9134,-150.62 88.1444,-141.607"/>
<polygon fill="midnightblue" stroke="midnightblue" points="110.627,-173.047 119.807,-178.336 115.928,-168.477 110.627,-173.047"/>
</g>
<!-- Node4 -->
<g id="node3" class="node"><title>Node4</title>
<g id="a_node3"><a xlink:href="optimization__algorithm__factory_8h.html" target="_top" xlink:title="/home/alejandro/Desarrollo\l eclipse/os1/Thirdparty\l/g2o/g2o/core/optimization\l_algorithm_factory.h">
<polygon fill="white" stroke="black" points="151,-89.5 151,-141.5 284,-141.5 284,-89.5 151,-89.5"/>
<text text-anchor="start" x="159" y="-129.5" font-family="Helvetica,sans-Serif" font-size="10.00">/home/alejandro/Desarrollo</text>
<text text-anchor="start" x="159" y="-118.5" font-family="Helvetica,sans-Serif" font-size="10.00"> eclipse/os1/Thirdparty</text>
<text text-anchor="start" x="159" y="-107.5" font-family="Helvetica,sans-Serif" font-size="10.00">/g2o/g2o/core/optimization</text>
<text text-anchor="middle" x="217.5" y="-96.5" font-family="Helvetica,sans-Serif" font-size="10.00">_algorithm_factory.h</text>
</a>
</g>
</g>
<!-- Node2&#45;&gt;Node4 -->
<g id="edge2" class="edge"><title>Node2&#45;&gt;Node4</title>
<path fill="none" stroke="midnightblue" d="M170.074,-170.79C178.514,-161.129 187.616,-150.71 195.567,-141.607"/>
<polygon fill="midnightblue" stroke="midnightblue" points="167.425,-168.502 163.482,-178.336 172.697,-173.107 167.425,-168.502"/>
</g>
<!-- Node5 -->
<g id="node4" class="node"><title>Node5</title>
<g id="a_node4"><a xlink:href="optimization__algorithm__factory_8cpp.html" target="_top" xlink:title="/home/alejandro/Desarrollo\l eclipse/os1/Thirdparty\l/g2o/g2o/core/optimization\l_algorithm_factory.cpp">
<polygon fill="white" stroke="black" points="151,-0.5 151,-52.5 284,-52.5 284,-0.5 151,-0.5"/>
<text text-anchor="start" x="159" y="-40.5" font-family="Helvetica,sans-Serif" font-size="10.00">/home/alejandro/Desarrollo</text>
<text text-anchor="start" x="159" y="-29.5" font-family="Helvetica,sans-Serif" font-size="10.00"> eclipse/os1/Thirdparty</text>
<text text-anchor="start" x="159" y="-18.5" font-family="Helvetica,sans-Serif" font-size="10.00">/g2o/g2o/core/optimization</text>
<text text-anchor="middle" x="217.5" y="-7.5" font-family="Helvetica,sans-Serif" font-size="10.00">_algorithm_factory.cpp</text>
</a>
</g>
</g>
<!-- Node4&#45;&gt;Node5 -->
<g id="edge3" class="edge"><title>Node4&#45;&gt;Node5</title>
<path fill="none" stroke="midnightblue" d="M217.5,-79.1908C217.5,-70.2824 217.5,-60.8986 217.5,-52.6075"/>
<polygon fill="midnightblue" stroke="midnightblue" points="214,-79.336 217.5,-89.336 221,-79.336 214,-79.336"/>
</g>
</g>
</svg>
