<?xml version="1.0" encoding="UTF-8" standalone="no"?>
<!DOCTYPE svg PUBLIC "-//W3C//DTD SVG 1.1//EN"
 "http://www.w3.org/Graphics/SVG/1.1/DTD/svg11.dtd">
<!-- Generated by graphviz version 2.38.0 (20140413.2041)
 -->
<!-- Title: /home/alejandro/Desarrollo eclipse/os1/Thirdparty/g2o/g2o/core/optimization_algorithm_dogleg.h Pages: 1 -->
<svg width="1423pt" height="419pt"
 viewBox="0.00 0.00 1422.78 419.00" xmlns="http://www.w3.org/2000/svg" xmlns:xlink="http://www.w3.org/1999/xlink">
<g id="graph0" class="graph" transform="scale(1 1) rotate(0) translate(4 415)">
<title>/home/alejandro/Desarrollo eclipse/os1/Thirdparty/g2o/g2o/core/optimization_algorithm_dogleg.h</title>
<polygon fill="white" stroke="none" points="-4,4 -4,-415 1418.78,-415 1418.78,4 -4,4"/>
<!-- Node0 -->
<g id="node1" class="node"><title>Node0</title>
<polygon fill="#bfbfbf" stroke="black" points="604,-358.5 604,-410.5 737,-410.5 737,-358.5 604,-358.5"/>
<text text-anchor="start" x="612" y="-398.5" font-family="Helvetica,sans-Serif" font-size="10.00">/home/alejandro/Desarrollo</text>
<text text-anchor="start" x="612" y="-387.5" font-family="Helvetica,sans-Serif" font-size="10.00"> eclipse/os1/Thirdparty</text>
<text text-anchor="start" x="612" y="-376.5" font-family="Helvetica,sans-Serif" font-size="10.00">/g2o/g2o/core/optimization</text>
<text text-anchor="middle" x="670.5" y="-365.5" font-family="Helvetica,sans-Serif" font-size="10.00">_algorithm_dogleg.h</text>
</g>
<!-- Node1 -->
<g id="node2" class="node"><title>Node1</title>
<g id="a_node2"><a xlink:href="optimization__algorithm__with__hessian_8h.html" target="_top" xlink:title="optimization_algorithm\l_with_hessian.h">
<polygon fill="white" stroke="black" points="613.5,-291.5 613.5,-321.5 727.5,-321.5 727.5,-291.5 613.5,-291.5"/>
<text text-anchor="start" x="621.5" y="-309.5" font-family="Helvetica,sans-Serif" font-size="10.00">optimization_algorithm</text>
<text text-anchor="middle" x="670.5" y="-298.5" font-family="Helvetica,sans-Serif" font-size="10.00">_with_hessian.h</text>
</a>
</g>
</g>
<!-- Node0&#45;&gt;Node1 -->
<g id="edge1" class="edge"><title>Node0&#45;&gt;Node1</title>
<path fill="none" stroke="midnightblue" d="M670.5,-358.193C670.5,-349.786 670.5,-340.443 670.5,-332.091"/>
<polygon fill="midnightblue" stroke="midnightblue" points="674,-331.845 670.5,-321.845 667,-331.845 674,-331.845"/>
</g>
<!-- Node2 -->
<g id="node3" class="node"><title>Node2</title>
<g id="a_node3"><a xlink:href="optimization__algorithm_8h.html" target="_top" xlink:title="optimization_algorithm.h">
<polygon fill="white" stroke="black" points="609.5,-235.5 609.5,-254.5 731.5,-254.5 731.5,-235.5 609.5,-235.5"/>
<text text-anchor="middle" x="670.5" y="-242.5" font-family="Helvetica,sans-Serif" font-size="10.00">optimization_algorithm.h</text>
</a>
</g>
</g>
<!-- Node1&#45;&gt;Node2 -->
<g id="edge2" class="edge"><title>Node1&#45;&gt;Node2</title>
<path fill="none" stroke="midnightblue" d="M670.5,-291.399C670.5,-283.466 670.5,-273.458 670.5,-264.858"/>
<polygon fill="midnightblue" stroke="midnightblue" points="674,-264.658 670.5,-254.658 667,-264.658 674,-264.658"/>
</g>
<!-- Node3 -->
<g id="node4" class="node"><title>Node3</title>
<polygon fill="white" stroke="#bfbfbf" points="482.5,-56.5 482.5,-75.5 526.5,-75.5 526.5,-56.5 482.5,-56.5"/>
<text text-anchor="middle" x="504.5" y="-63.5" font-family="Helvetica,sans-Serif" font-size="10.00">vector</text>
</g>
<!-- Node2&#45;&gt;Node3 -->
<g id="edge3" class="edge"><title>Node2&#45;&gt;Node3</title>
<path fill="none" stroke="midnightblue" d="M609.095,-238.293C504.655,-227.157 299.617,-198.605 257.5,-143 249.181,-132.017 248.674,-122.579 257.5,-112 284.5,-79.6368 411.662,-70.4895 472.248,-67.951"/>
<polygon fill="midnightblue" stroke="midnightblue" points="472.546,-71.4422 482.405,-67.5616 472.278,-64.4474 472.546,-71.4422"/>
</g>
<!-- Node4 -->
<g id="node5" class="node"><title>Node4</title>
<polygon fill="white" stroke="#bfbfbf" points="913.5,-179.5 913.5,-198.5 953.5,-198.5 953.5,-179.5 913.5,-179.5"/>
<text text-anchor="middle" x="933.5" y="-186.5" font-family="Helvetica,sans-Serif" font-size="10.00">utility</text>
</g>
<!-- Node2&#45;&gt;Node4 -->
<g id="edge4" class="edge"><title>Node2&#45;&gt;Node4</title>
<path fill="none" stroke="midnightblue" d="M723.841,-235.477C769.276,-227.826 836.443,-215.595 903.421,-199.055"/>
<polygon fill="midnightblue" stroke="midnightblue" points="904.448,-202.406 913.299,-196.583 902.749,-195.615 904.448,-202.406"/>
</g>
<!-- Node5 -->
<g id="node6" class="node"><title>Node5</title>
<polygon fill="white" stroke="#bfbfbf" points="972,-179.5 972,-198.5 1017,-198.5 1017,-179.5 972,-179.5"/>
<text text-anchor="middle" x="994.5" y="-186.5" font-family="Helvetica,sans-Serif" font-size="10.00">iosfwd</text>
</g>
<!-- Node2&#45;&gt;Node5 -->
<g id="edge5" class="edge"><title>Node2&#45;&gt;Node5</title>
<path fill="none" stroke="midnightblue" d="M731.574,-236.78C788.723,-229.529 876.604,-217.112 961.999,-198.869"/>
<polygon fill="midnightblue" stroke="midnightblue" points="962.827,-202.271 971.86,-196.734 961.345,-195.43 962.827,-202.271"/>
</g>
<!-- Node6 -->
<g id="node7" class="node"><title>Node6</title>
<g id="a_node7"><a xlink:href="property_8h.html" target="_top" xlink:title="../stuff/property.h">
<polygon fill="white" stroke="black" points="118.5,-179.5 118.5,-198.5 210.5,-198.5 210.5,-179.5 118.5,-179.5"/>
<text text-anchor="middle" x="164.5" y="-186.5" font-family="Helvetica,sans-Serif" font-size="10.00">../stuff/property.h</text>
</a>
</g>
</g>
<!-- Node2&#45;&gt;Node6 -->
<g id="edge6" class="edge"><title>Node2&#45;&gt;Node6</title>
<path fill="none" stroke="midnightblue" d="M609.436,-238.781C523.427,-231.215 361.757,-216.208 224.5,-199 223.236,-198.842 221.958,-198.678 220.669,-198.51"/>
<polygon fill="midnightblue" stroke="midnightblue" points="221.036,-195.028 210.657,-197.153 220.096,-201.965 221.036,-195.028"/>
</g>
<!-- Node14 -->
<g id="node15" class="node"><title>Node14</title>
<g id="a_node15"><a xlink:href="hyper__graph_8h.html" target="_top" xlink:title="hyper_graph.h">
<polygon fill="white" stroke="black" points="465.5,-179.5 465.5,-198.5 543.5,-198.5 543.5,-179.5 465.5,-179.5"/>
<text text-anchor="middle" x="504.5" y="-186.5" font-family="Helvetica,sans-Serif" font-size="10.00">hyper_graph.h</text>
</a>
</g>
</g>
<!-- Node2&#45;&gt;Node14 -->
<g id="edge17" class="edge"><title>Node2&#45;&gt;Node14</title>
<path fill="none" stroke="midnightblue" d="M644.197,-235.444C616.149,-226.32 571.556,-211.813 540.316,-201.651"/>
<polygon fill="midnightblue" stroke="midnightblue" points="541.272,-198.282 530.68,-198.516 539.107,-204.938 541.272,-198.282"/>
</g>
<!-- Node21 -->
<g id="node22" class="node"><title>Node21</title>
<g id="a_node22"><a xlink:href="sparse__block__matrix_8h.html" target="_top" xlink:title="sparse_block_matrix.h">
<polygon fill="white" stroke="black" points="780,-179.5 780,-198.5 895,-198.5 895,-179.5 780,-179.5"/>
<text text-anchor="middle" x="837.5" y="-186.5" font-family="Helvetica,sans-Serif" font-size="10.00">sparse_block_matrix.h</text>
</a>
</g>
</g>
<!-- Node2&#45;&gt;Node21 -->
<g id="edge26" class="edge"><title>Node2&#45;&gt;Node21</title>
<path fill="none" stroke="midnightblue" d="M696.962,-235.444C725.178,-226.32 770.04,-211.813 801.468,-201.651"/>
<polygon fill="midnightblue" stroke="midnightblue" points="802.724,-204.923 811.162,-198.516 800.57,-198.263 802.724,-204.923"/>
</g>
<!-- Node7 -->
<g id="node8" class="node"><title>Node7</title>
<polygon fill="white" stroke="#bfbfbf" points="0,-56.5 0,-75.5 41,-75.5 41,-56.5 0,-56.5"/>
<text text-anchor="middle" x="20.5" y="-63.5" font-family="Helvetica,sans-Serif" font-size="10.00">string</text>
</g>
<!-- Node6&#45;&gt;Node7 -->
<g id="edge7" class="edge"><title>Node6&#45;&gt;Node7</title>
<path fill="none" stroke="midnightblue" d="M146.338,-179.477C130.036,-171.358 105.912,-158.152 87.5,-143 65.9556,-125.27 45.3863,-100.333 32.8554,-83.9271"/>
<polygon fill="midnightblue" stroke="midnightblue" points="35.5598,-81.6993 26.7657,-75.7904 29.9556,-85.8937 35.5598,-81.6993"/>
</g>
<!-- Node8 -->
<g id="node9" class="node"><title>Node8</title>
<polygon fill="white" stroke="#bfbfbf" points="441,-118 441,-137 476,-137 476,-118 441,-118"/>
<text text-anchor="middle" x="458.5" y="-125" font-family="Helvetica,sans-Serif" font-size="10.00">map</text>
</g>
<!-- Node6&#45;&gt;Node8 -->
<g id="edge8" class="edge"><title>Node6&#45;&gt;Node8</title>
<path fill="none" stroke="midnightblue" d="M210.973,-184.773C265.146,-179.969 356.785,-168.584 431.5,-143 432.746,-142.573 434.003,-142.094 435.258,-141.575"/>
<polygon fill="midnightblue" stroke="midnightblue" points="437.109,-144.569 444.601,-137.078 434.072,-138.262 437.109,-144.569"/>
</g>
<!-- Node9 -->
<g id="node10" class="node"><title>Node9</title>
<polygon fill="white" stroke="#bfbfbf" points="197.5,-56.5 197.5,-75.5 249.5,-75.5 249.5,-56.5 197.5,-56.5"/>
<text text-anchor="middle" x="223.5" y="-63.5" font-family="Helvetica,sans-Serif" font-size="10.00">sstream</text>
</g>
<!-- Node6&#45;&gt;Node9 -->
<g id="edge9" class="edge"><title>Node6&#45;&gt;Node9</title>
<path fill="none" stroke="midnightblue" d="M168.743,-179.298C178.353,-159.589 201.943,-111.211 214.8,-84.842"/>
<polygon fill="midnightblue" stroke="midnightblue" points="218.058,-86.1456 219.295,-75.6232 211.767,-83.0776 218.058,-86.1456"/>
</g>
<!-- Node10 -->
<g id="node11" class="node"><title>Node10</title>
<g id="a_node11"><a xlink:href="string__tools_8h.html" target="_top" xlink:title="string_tools.h">
<polygon fill="white" stroke="black" points="97,-118 97,-137 172,-137 172,-118 97,-118"/>
<text text-anchor="middle" x="134.5" y="-125" font-family="Helvetica,sans-Serif" font-size="10.00">string_tools.h</text>
</a>
</g>
</g>
<!-- Node6&#45;&gt;Node10 -->
<g id="edge10" class="edge"><title>Node6&#45;&gt;Node10</title>
<path fill="none" stroke="midnightblue" d="M160.202,-179.475C155.835,-170.815 148.945,-157.149 143.397,-146.145"/>
<polygon fill="midnightblue" stroke="midnightblue" points="146.418,-144.363 138.79,-137.009 140.167,-147.514 146.418,-144.363"/>
</g>
<!-- Node10&#45;&gt;Node3 -->
<g id="edge14" class="edge"><title>Node10&#45;&gt;Node3</title>
<path fill="none" stroke="midnightblue" d="M172.158,-120.43C188.278,-117.832 207.312,-114.766 224.5,-112 314.316,-97.5474 420.343,-80.5153 472.392,-72.1561"/>
<polygon fill="midnightblue" stroke="midnightblue" points="473.039,-75.597 482.358,-70.5556 471.929,-68.6856 473.039,-75.597"/>
</g>
<!-- Node10&#45;&gt;Node7 -->
<g id="edge11" class="edge"><title>Node10&#45;&gt;Node7</title>
<path fill="none" stroke="midnightblue" d="M118.167,-117.975C99.2888,-108.122 67.9935,-91.7883 45.9244,-80.2697"/>
<polygon fill="midnightblue" stroke="midnightblue" points="47.2878,-77.0333 36.8031,-75.5091 44.0488,-83.2389 47.2878,-77.0333"/>
</g>
<!-- Node10&#45;&gt;Node9 -->
<g id="edge12" class="edge"><title>Node10&#45;&gt;Node9</title>
<path fill="none" stroke="midnightblue" d="M147.252,-117.975C161.527,-108.431 184.897,-92.8073 202.008,-81.3683"/>
<polygon fill="midnightblue" stroke="midnightblue" points="204.404,-83.9766 210.772,-75.5091 200.514,-78.1572 204.404,-83.9766"/>
</g>
<!-- Node11 -->
<g id="node12" class="node"><title>Node11</title>
<polygon fill="white" stroke="#bfbfbf" points="59,-56.5 59,-75.5 104,-75.5 104,-56.5 59,-56.5"/>
<text text-anchor="middle" x="81.5" y="-63.5" font-family="Helvetica,sans-Serif" font-size="10.00">cstdlib</text>
</g>
<!-- Node10&#45;&gt;Node11 -->
<g id="edge13" class="edge"><title>Node10&#45;&gt;Node11</title>
<path fill="none" stroke="midnightblue" d="M126.906,-117.975C118.799,-108.873 105.765,-94.241 95.7369,-82.983"/>
<polygon fill="midnightblue" stroke="midnightblue" points="98.3445,-80.6483 89.0795,-75.5091 93.1175,-85.3043 98.3445,-80.6483"/>
</g>
<!-- Node12 -->
<g id="node13" class="node"><title>Node12</title>
<g id="a_node13"><a xlink:href="macros_8h.html" target="_top" xlink:title="macros.h">
<polygon fill="white" stroke="black" points="122,-56.5 122,-75.5 179,-75.5 179,-56.5 122,-56.5"/>
<text text-anchor="middle" x="150.5" y="-63.5" font-family="Helvetica,sans-Serif" font-size="10.00">macros.h</text>
</a>
</g>
</g>
<!-- Node10&#45;&gt;Node12 -->
<g id="edge15" class="edge"><title>Node10&#45;&gt;Node12</title>
<path fill="none" stroke="midnightblue" d="M136.792,-117.975C139.074,-109.492 142.647,-96.2043 145.573,-85.3222"/>
<polygon fill="midnightblue" stroke="midnightblue" points="148.995,-86.0749 148.212,-75.5091 142.235,-84.2571 148.995,-86.0749"/>
</g>
<!-- Node13 -->
<g id="node14" class="node"><title>Node13</title>
<polygon fill="white" stroke="#bfbfbf" points="127,-0.5 127,-19.5 174,-19.5 174,-0.5 127,-0.5"/>
<text text-anchor="middle" x="150.5" y="-7.5" font-family="Helvetica,sans-Serif" font-size="10.00">math.h</text>
</g>
<!-- Node12&#45;&gt;Node13 -->
<g id="edge16" class="edge"><title>Node12&#45;&gt;Node13</title>
<path fill="none" stroke="midnightblue" d="M150.5,-56.083C150.5,-49.0059 150.5,-38.8611 150.5,-29.9865"/>
<polygon fill="midnightblue" stroke="midnightblue" points="154,-29.751 150.5,-19.7511 147,-29.7511 154,-29.751"/>
</g>
<!-- Node14&#45;&gt;Node3 -->
<g id="edge22" class="edge"><title>Node14&#45;&gt;Node3</title>
<path fill="none" stroke="midnightblue" d="M504.5,-179.298C504.5,-159.85 504.5,-112.49 504.5,-85.9036"/>
<polygon fill="midnightblue" stroke="midnightblue" points="508,-85.6231 504.5,-75.6232 501,-85.6232 508,-85.6231"/>
</g>
<!-- Node14&#45;&gt;Node8 -->
<g id="edge18" class="edge"><title>Node14&#45;&gt;Node8</title>
<path fill="none" stroke="midnightblue" d="M497.909,-179.475C491.009,-170.55 479.998,-156.307 471.366,-145.143"/>
<polygon fill="midnightblue" stroke="midnightblue" points="473.964,-142.78 465.078,-137.009 468.426,-147.061 473.964,-142.78"/>
</g>
<!-- Node15 -->
<g id="node16" class="node"><title>Node15</title>
<polygon fill="white" stroke="#bfbfbf" points="333.5,-118 333.5,-137 363.5,-137 363.5,-118 333.5,-118"/>
<text text-anchor="middle" x="348.5" y="-125" font-family="Helvetica,sans-Serif" font-size="10.00">set</text>
</g>
<!-- Node14&#45;&gt;Node15 -->
<g id="edge19" class="edge"><title>Node14&#45;&gt;Node15</title>
<path fill="none" stroke="midnightblue" d="M473.361,-179.449C446.139,-171.493 405.859,-158.543 372.5,-143 371.805,-142.676 371.105,-142.337 370.402,-141.987"/>
<polygon fill="midnightblue" stroke="midnightblue" points="371.866,-138.796 361.424,-137.002 368.468,-144.916 371.866,-138.796"/>
</g>
<!-- Node16 -->
<g id="node17" class="node"><title>Node16</title>
<polygon fill="white" stroke="#bfbfbf" points="382,-118 382,-137 423,-137 423,-118 382,-118"/>
<text text-anchor="middle" x="402.5" y="-125" font-family="Helvetica,sans-Serif" font-size="10.00">bitset</text>
</g>
<!-- Node14&#45;&gt;Node16 -->
<g id="edge20" class="edge"><title>Node14&#45;&gt;Node16</title>
<path fill="none" stroke="midnightblue" d="M489.886,-179.475C473.147,-169.711 445.496,-153.581 425.781,-142.081"/>
<polygon fill="midnightblue" stroke="midnightblue" points="427.488,-139.025 417.087,-137.009 423.961,-145.071 427.488,-139.025"/>
</g>
<!-- Node17 -->
<g id="node18" class="node"><title>Node17</title>
<polygon fill="white" stroke="#bfbfbf" points="690,-56.5 690,-75.5 739,-75.5 739,-56.5 690,-56.5"/>
<text text-anchor="middle" x="714.5" y="-63.5" font-family="Helvetica,sans-Serif" font-size="10.00">cassert</text>
</g>
<!-- Node14&#45;&gt;Node17 -->
<g id="edge21" class="edge"><title>Node14&#45;&gt;Node17</title>
<path fill="none" stroke="midnightblue" d="M526.515,-179.446C547.159,-171.113 578.634,-157.595 604.5,-143 637.903,-124.152 674.013,-97.9729 695.419,-81.7786"/>
<polygon fill="midnightblue" stroke="midnightblue" points="697.559,-84.5485 703.384,-75.6989 693.312,-78.9842 697.559,-84.5485"/>
</g>
<!-- Node18 -->
<g id="node19" class="node"><title>Node18</title>
<polygon fill="white" stroke="#bfbfbf" points="532.5,-118 532.5,-137 572.5,-137 572.5,-118 532.5,-118"/>
<text text-anchor="middle" x="552.5" y="-125" font-family="Helvetica,sans-Serif" font-size="10.00">limits</text>
</g>
<!-- Node14&#45;&gt;Node18 -->
<g id="edge23" class="edge"><title>Node14&#45;&gt;Node18</title>
<path fill="none" stroke="midnightblue" d="M511.377,-179.475C518.649,-170.462 530.295,-156.025 539.341,-144.812"/>
<polygon fill="midnightblue" stroke="midnightblue" points="542.081,-146.99 545.636,-137.009 536.633,-142.595 542.081,-146.99"/>
</g>
<!-- Node19 -->
<g id="node20" class="node"><title>Node19</title>
<polygon fill="white" stroke="#bfbfbf" points="267,-118 267,-137 316,-137 316,-118 267,-118"/>
<text text-anchor="middle" x="291.5" y="-125" font-family="Helvetica,sans-Serif" font-size="10.00">cstddef</text>
</g>
<!-- Node14&#45;&gt;Node19 -->
<g id="edge24" class="edge"><title>Node14&#45;&gt;Node19</title>
<path fill="none" stroke="midnightblue" d="M465.326,-180.208C428.487,-172.413 372.047,-159.259 324.5,-143 322.635,-142.362 320.729,-141.662 318.821,-140.924"/>
<polygon fill="midnightblue" stroke="midnightblue" points="320.015,-137.63 309.437,-137.038 317.337,-144.098 320.015,-137.63"/>
</g>
<!-- Node20 -->
<g id="node21" class="node"><title>Node20</title>
<polygon fill="white" stroke="#bfbfbf" points="562.5,-56.5 562.5,-75.5 660.5,-75.5 660.5,-56.5 562.5,-56.5"/>
<text text-anchor="middle" x="611.5" y="-63.5" font-family="Helvetica,sans-Serif" font-size="10.00">tr1/unordered_map</text>
</g>
<!-- Node14&#45;&gt;Node20 -->
<g id="edge25" class="edge"><title>Node14&#45;&gt;Node20</title>
<path fill="none" stroke="midnightblue" d="M527.484,-179.415C544.436,-172.047 566.984,-159.924 581.5,-143 595.606,-126.553 603.56,-102.675 607.68,-86.0897"/>
<polygon fill="midnightblue" stroke="midnightblue" points="611.18,-86.4765 609.949,-75.9534 604.349,-84.9473 611.18,-86.4765"/>
</g>
<!-- Node21&#45;&gt;Node3 -->
<g id="edge28" class="edge"><title>Node21&#45;&gt;Node3</title>
<path fill="none" stroke="midnightblue" d="M814.084,-179.492C755.505,-158.206 602.566,-102.634 536.102,-78.4831"/>
<polygon fill="midnightblue" stroke="midnightblue" points="537.169,-75.1468 526.575,-75.0211 534.778,-81.7259 537.169,-75.1468"/>
</g>
<!-- Node21&#45;&gt;Node8 -->
<g id="edge27" class="edge"><title>Node21&#45;&gt;Node8</title>
<path fill="none" stroke="midnightblue" d="M779.987,-181.11C716.855,-173.233 612.613,-159.3 523.5,-143 511.135,-140.738 497.549,-137.782 486.01,-135.13"/>
<polygon fill="midnightblue" stroke="midnightblue" points="486.616,-131.677 476.081,-132.808 485.021,-138.493 486.616,-131.677"/>
</g>
<!-- Node21&#45;&gt;Node17 -->
<g id="edge32" class="edge"><title>Node21&#45;&gt;Node17</title>
<path fill="none" stroke="midnightblue" d="M796.172,-179.438C774.58,-172.918 749.412,-161.75 733.5,-143 719.915,-126.992 715.805,-102.654 714.683,-85.853"/>
<polygon fill="midnightblue" stroke="midnightblue" points="718.172,-85.4846 714.303,-75.6211 711.176,-85.744 718.172,-85.4846"/>
</g>
<!-- Node22 -->
<g id="node23" class="node"><title>Node22</title>
<polygon fill="white" stroke="#bfbfbf" points="742.5,-118 742.5,-137 792.5,-137 792.5,-118 742.5,-118"/>
<text text-anchor="middle" x="767.5" y="-125" font-family="Helvetica,sans-Serif" font-size="10.00">fstream</text>
</g>
<!-- Node21&#45;&gt;Node22 -->
<g id="edge29" class="edge"><title>Node21&#45;&gt;Node22</title>
<path fill="none" stroke="midnightblue" d="M827.471,-179.475C816.451,-170.108 798.54,-154.884 785.157,-143.508"/>
<polygon fill="midnightblue" stroke="midnightblue" points="787.397,-140.819 777.511,-137.009 782.863,-146.152 787.397,-140.819"/>
</g>
<!-- Node23 -->
<g id="node24" class="node"><title>Node23</title>
<polygon fill="white" stroke="#bfbfbf" points="810.5,-118 810.5,-137 864.5,-137 864.5,-118 810.5,-118"/>
<text text-anchor="middle" x="837.5" y="-125" font-family="Helvetica,sans-Serif" font-size="10.00">iostream</text>
</g>
<!-- Node21&#45;&gt;Node23 -->
<g id="edge30" class="edge"><title>Node21&#45;&gt;Node23</title>
<path fill="none" stroke="midnightblue" d="M837.5,-179.475C837.5,-171.08 837.5,-157.981 837.5,-147.163"/>
<polygon fill="midnightblue" stroke="midnightblue" points="841,-147.009 837.5,-137.009 834,-147.009 841,-147.009"/>
</g>
<!-- Node24 -->
<g id="node25" class="node"><title>Node24</title>
<polygon fill="white" stroke="#bfbfbf" points="882.5,-118 882.5,-137 932.5,-137 932.5,-118 882.5,-118"/>
<text text-anchor="middle" x="907.5" y="-125" font-family="Helvetica,sans-Serif" font-size="10.00">iomanip</text>
</g>
<!-- Node21&#45;&gt;Node24 -->
<g id="edge31" class="edge"><title>Node21&#45;&gt;Node24</title>
<path fill="none" stroke="midnightblue" d="M847.529,-179.475C858.549,-170.108 876.46,-154.884 889.843,-143.508"/>
<polygon fill="midnightblue" stroke="midnightblue" points="892.137,-146.152 897.489,-137.009 887.603,-140.819 892.137,-146.152"/>
</g>
<!-- Node25 -->
<g id="node26" class="node"><title>Node25</title>
<polygon fill="white" stroke="#bfbfbf" points="1099,-0.5 1099,-19.5 1196,-19.5 1196,-0.5 1099,-0.5"/>
<text text-anchor="middle" x="1147.5" y="-7.5" font-family="Helvetica,sans-Serif" font-size="10.00">eigen3/Eigen/Core</text>
</g>
<!-- Node21&#45;&gt;Node25 -->
<g id="edge33" class="edge"><title>Node21&#45;&gt;Node25</title>
<path fill="none" stroke="midnightblue" d="M895.217,-180.019C898.355,-179.657 901.465,-179.314 904.5,-179 959.463,-173.319 1362.87,-183.461 1400.5,-143 1463.65,-75.0956 1299.2,-35.922 1206.21,-19.7674"/>
<polygon fill="midnightblue" stroke="midnightblue" points="1206.79,-16.3158 1196.35,-18.0929 1205.62,-23.2171 1206.79,-16.3158"/>
</g>
<!-- Node26 -->
<g id="node27" class="node"><title>Node26</title>
<g id="a_node27"><a xlink:href="sparse__block__matrix__ccs_8h.html" target="_top" xlink:title="sparse_block_matrix\l_ccs.h">
<polygon fill="white" stroke="black" points="951,-112.5 951,-142.5 1058,-142.5 1058,-112.5 951,-112.5"/>
<text text-anchor="start" x="959" y="-130.5" font-family="Helvetica,sans-Serif" font-size="10.00">sparse_block_matrix</text>
<text text-anchor="middle" x="1004.5" y="-119.5" font-family="Helvetica,sans-Serif" font-size="10.00">_ccs.h</text>
</a>
</g>
</g>
<!-- Node21&#45;&gt;Node26 -->
<g id="edge34" class="edge"><title>Node21&#45;&gt;Node26</title>
<path fill="none" stroke="midnightblue" d="M861.427,-179.475C885.842,-170.776 924.434,-157.026 955.388,-145.998"/>
<polygon fill="midnightblue" stroke="midnightblue" points="956.896,-149.176 965.141,-142.523 954.547,-142.582 956.896,-149.176"/>
</g>
<!-- Node27 -->
<g id="node28" class="node"><title>Node27</title>
<g id="a_node28"><a xlink:href="config_8h.html" target="_top" xlink:title="../../config.h">
<polygon fill="white" stroke="black" points="1009,-56.5 1009,-75.5 1078,-75.5 1078,-56.5 1009,-56.5"/>
<text text-anchor="middle" x="1043.5" y="-63.5" font-family="Helvetica,sans-Serif" font-size="10.00">../../config.h</text>
</a>
</g>
</g>
<!-- Node21&#45;&gt;Node27 -->
<g id="edge44" class="edge"><title>Node21&#45;&gt;Node27</title>
<path fill="none" stroke="midnightblue" d="M889.742,-179.494C955.838,-168.483 1061.83,-149.891 1067.5,-143 1081.6,-125.875 1068.63,-100.395 1056.96,-83.7389"/>
<polygon fill="midnightblue" stroke="midnightblue" points="1059.59,-81.4098 1050.8,-75.5028 1053.99,-85.6054 1059.59,-81.4098"/>
</g>
<!-- Node28 -->
<g id="node29" class="node"><title>Node28</title>
<g id="a_node29"><a xlink:href="matrix__operations_8h.html" target="_top" xlink:title="matrix_operations.h">
<polygon fill="white" stroke="black" points="1096.5,-56.5 1096.5,-75.5 1198.5,-75.5 1198.5,-56.5 1096.5,-56.5"/>
<text text-anchor="middle" x="1147.5" y="-63.5" font-family="Helvetica,sans-Serif" font-size="10.00">matrix_operations.h</text>
</a>
</g>
</g>
<!-- Node21&#45;&gt;Node28 -->
<g id="edge43" class="edge"><title>Node21&#45;&gt;Node28</title>
<path fill="none" stroke="midnightblue" d="M895.196,-179.613C962.999,-169.427 1068.37,-152.438 1084.5,-143 1108.46,-128.978 1127.33,-102.268 1137.95,-84.5438"/>
<polygon fill="midnightblue" stroke="midnightblue" points="1141.05,-86.1757 1142.98,-75.759 1134.97,-82.6958 1141.05,-86.1757"/>
</g>
<!-- Node29 -->
<g id="node30" class="node"><title>Node29</title>
<g id="a_node30"><a xlink:href="matrix__structure_8h.html" target="_top" xlink:title="matrix_structure.h">
<polygon fill="white" stroke="black" points="1153,-118 1153,-137 1248,-137 1248,-118 1153,-118"/>
<text text-anchor="middle" x="1200.5" y="-125" font-family="Helvetica,sans-Serif" font-size="10.00">matrix_structure.h</text>
</a>
</g>
</g>
<!-- Node21&#45;&gt;Node29 -->
<g id="edge42" class="edge"><title>Node21&#45;&gt;Node29</title>
<path fill="none" stroke="midnightblue" d="M895.195,-179.945C969.107,-169.527 1093.09,-151.689 1138.5,-143 1144.27,-141.895 1150.32,-140.624 1156.28,-139.303"/>
<polygon fill="midnightblue" stroke="midnightblue" points="1157.2,-142.685 1166.17,-137.053 1155.64,-135.859 1157.2,-142.685"/>
</g>
<!-- Node30 -->
<g id="node31" class="node"><title>Node30</title>
<g id="a_node31"><a xlink:href="sparse__block__matrix_8hpp.html" target="_top" xlink:title="sparse_block_matrix.hpp">
<polygon fill="white" stroke="black" points="1266,-118 1266,-137 1391,-137 1391,-118 1266,-118"/>
<text text-anchor="middle" x="1328.5" y="-125" font-family="Helvetica,sans-Serif" font-size="10.00">sparse_block_matrix.hpp</text>
</a>
</g>
</g>
<!-- Node21&#45;&gt;Node30 -->
<g id="edge45" class="edge"><title>Node21&#45;&gt;Node30</title>
<path fill="none" stroke="midnightblue" d="M895.229,-180.126C898.364,-179.736 901.47,-179.358 904.5,-179 1061.11,-160.5 1101.6,-166.807 1257.5,-143 1264.94,-141.864 1272.77,-140.468 1280.42,-138.995"/>
<polygon fill="midnightblue" stroke="midnightblue" points="1281.18,-142.412 1290.3,-137.029 1279.81,-135.546 1281.18,-142.412"/>
</g>
<!-- Node26&#45;&gt;Node3 -->
<g id="edge35" class="edge"><title>Node26&#45;&gt;Node3</title>
<path fill="none" stroke="midnightblue" d="M950.98,-113.669C947.78,-113.062 944.603,-112.499 941.5,-112 770.51,-84.5164 725.06,-99.6666 553.5,-76 548.174,-75.2653 542.546,-74.3569 537.077,-73.4023"/>
<polygon fill="midnightblue" stroke="midnightblue" points="537.34,-69.8927 526.874,-71.5434 536.085,-76.7793 537.34,-69.8927"/>
</g>
<!-- Node26&#45;&gt;Node17 -->
<g id="edge36" class="edge"><title>Node26&#45;&gt;Node17</title>
<path fill="none" stroke="midnightblue" d="M950.909,-114.048C947.727,-113.346 944.573,-112.658 941.5,-112 873.488,-97.4354 793.651,-81.9902 749.086,-73.516"/>
<polygon fill="midnightblue" stroke="midnightblue" points="749.549,-70.0416 739.072,-71.6164 748.245,-76.9189 749.549,-70.0416"/>
</g>
<!-- Node26&#45;&gt;Node20 -->
<g id="edge41" class="edge"><title>Node26&#45;&gt;Node20</title>
<path fill="none" stroke="midnightblue" d="M950.952,-113.828C947.76,-113.18 944.591,-112.565 941.5,-112 915.512,-107.247 758.435,-86.3451 670.69,-74.7745"/>
<polygon fill="midnightblue" stroke="midnightblue" points="670.977,-71.2823 660.605,-73.4456 670.062,-78.2223 670.977,-71.2823"/>
</g>
<!-- Node26&#45;&gt;Node25 -->
<g id="edge37" class="edge"><title>Node26&#45;&gt;Node25</title>
<path fill="none" stroke="midnightblue" d="M998.783,-112.273C993.61,-96.8487 988.471,-72.2624 1000.5,-56 1020.69,-28.6993 1057.12,-17.42 1088.67,-12.9805"/>
<polygon fill="midnightblue" stroke="midnightblue" points="1089.2,-16.4415 1098.71,-11.7677 1088.36,-9.49203 1089.2,-16.4415"/>
</g>
<!-- Node26&#45;&gt;Node27 -->
<g id="edge38" class="edge"><title>Node26&#45;&gt;Node27</title>
<path fill="none" stroke="midnightblue" d="M1013.74,-112.399C1019.29,-103.932 1026.39,-93.0991 1032.27,-84.1393"/>
<polygon fill="midnightblue" stroke="midnightblue" points="1035.27,-85.94 1037.83,-75.6578 1029.42,-82.1026 1035.27,-85.94"/>
</g>
<!-- Node26&#45;&gt;Node28 -->
<g id="edge39" class="edge"><title>Node26&#45;&gt;Node28</title>
<path fill="none" stroke="midnightblue" d="M1038.39,-112.399C1062.38,-102.416 1094.27,-89.1465 1117.38,-79.5335"/>
<polygon fill="midnightblue" stroke="midnightblue" points="1118.8,-82.7308 1126.69,-75.6578 1116.11,-76.268 1118.8,-82.7308"/>
</g>
<!-- Node28&#45;&gt;Node25 -->
<g id="edge40" class="edge"><title>Node28&#45;&gt;Node25</title>
<path fill="none" stroke="midnightblue" d="M1147.5,-56.083C1147.5,-49.0059 1147.5,-38.8611 1147.5,-29.9865"/>
<polygon fill="midnightblue" stroke="midnightblue" points="1151,-29.751 1147.5,-19.7511 1144,-29.7511 1151,-29.751"/>
</g>
</g>
</svg>
