<?xml version="1.0" encoding="UTF-8" standalone="no"?>
<!DOCTYPE svg PUBLIC "-//W3C//DTD SVG 1.1//EN"
 "http://www.w3.org/Graphics/SVG/1.1/DTD/svg11.dtd">
<!-- Generated by graphviz version 2.38.0 (20140413.2041)
 -->
<!-- Title: /home/alejandro/Desarrollo eclipse/os1/Thirdparty/g2o/g2o/core/parameter_container.cpp Pages: 1 -->
<svg width="977pt" height="274pt"
 viewBox="0.00 0.00 977.00 274.00" xmlns="http://www.w3.org/2000/svg" xmlns:xlink="http://www.w3.org/1999/xlink">
<g id="graph0" class="graph" transform="scale(1 1) rotate(0) translate(4 270)">
<title>/home/alejandro/Desarrollo eclipse/os1/Thirdparty/g2o/g2o/core/parameter_container.cpp</title>
<polygon fill="white" stroke="none" points="-4,4 -4,-270 973,-270 973,4 -4,4"/>
<!-- Node0 -->
<g id="node1" class="node"><title>Node0</title>
<polygon fill="#bfbfbf" stroke="black" points="551.5,-224.5 551.5,-265.5 737.5,-265.5 737.5,-224.5 551.5,-224.5"/>
<text text-anchor="start" x="559.5" y="-253.5" font-family="Helvetica,sans-Serif" font-size="10.00">/home/alejandro/Desarrollo</text>
<text text-anchor="start" x="559.5" y="-242.5" font-family="Helvetica,sans-Serif" font-size="10.00"> eclipse/os1/Thirdparty</text>
<text text-anchor="middle" x="644.5" y="-231.5" font-family="Helvetica,sans-Serif" font-size="10.00">/g2o/g2o/core/parameter_container.cpp</text>
</g>
<!-- Node1 -->
<g id="node2" class="node"><title>Node1</title>
<g id="a_node2"><a xlink:href="parameter__container_8h.html" target="_top" xlink:title="parameter_container.h">
<polygon fill="white" stroke="black" points="110,-112.5 110,-131.5 223,-131.5 223,-112.5 110,-112.5"/>
<text text-anchor="middle" x="166.5" y="-119.5" font-family="Helvetica,sans-Serif" font-size="10.00">parameter_container.h</text>
</a>
</g>
</g>
<!-- Node0&#45;&gt;Node1 -->
<g id="edge1" class="edge"><title>Node0&#45;&gt;Node1</title>
<path fill="none" stroke="midnightblue" d="M567.436,-224.492C466.015,-198.819 291.142,-154.552 210.087,-134.034"/>
<polygon fill="midnightblue" stroke="midnightblue" points="210.768,-130.596 200.215,-131.535 209.05,-137.382 210.768,-130.596"/>
</g>
<!-- Node5 -->
<g id="node6" class="node"><title>Node5</title>
<polygon fill="white" stroke="#bfbfbf" points="617.5,-112.5 617.5,-131.5 671.5,-131.5 671.5,-112.5 617.5,-112.5"/>
<text text-anchor="middle" x="644.5" y="-119.5" font-family="Helvetica,sans-Serif" font-size="10.00">iostream</text>
</g>
<!-- Node0&#45;&gt;Node5 -->
<g id="edge5" class="edge"><title>Node0&#45;&gt;Node5</title>
<path fill="none" stroke="midnightblue" d="M644.5,-224.29C644.5,-201.48 644.5,-164.189 644.5,-141.781"/>
<polygon fill="midnightblue" stroke="midnightblue" points="648,-141.575 644.5,-131.575 641,-141.575 648,-141.575"/>
</g>
<!-- Node6 -->
<g id="node7" class="node"><title>Node6</title>
<g id="a_node7"><a xlink:href="factory_8h.html" target="_top" xlink:title="factory.h">
<polygon fill="white" stroke="black" points="447,-168.5 447,-187.5 502,-187.5 502,-168.5 447,-168.5"/>
<text text-anchor="middle" x="474.5" y="-175.5" font-family="Helvetica,sans-Serif" font-size="10.00">factory.h</text>
</a>
</g>
</g>
<!-- Node0&#45;&gt;Node6 -->
<g id="edge6" class="edge"><title>Node0&#45;&gt;Node6</title>
<path fill="none" stroke="midnightblue" d="M593.494,-224.498C565.3,-213.718 531.131,-200.653 506.654,-191.294"/>
<polygon fill="midnightblue" stroke="midnightblue" points="507.72,-187.955 497.13,-187.652 505.22,-194.493 507.72,-187.955"/>
</g>
<!-- Node9 -->
<g id="node10" class="node"><title>Node9</title>
<g id="a_node10"><a xlink:href="macros_8h.html" target="_top" xlink:title="macros.h">
<polygon fill="white" stroke="black" points="784,-56.5 784,-75.5 841,-75.5 841,-56.5 784,-56.5"/>
<text text-anchor="middle" x="812.5" y="-63.5" font-family="Helvetica,sans-Serif" font-size="10.00">macros.h</text>
</a>
</g>
</g>
<!-- Node0&#45;&gt;Node9 -->
<g id="edge31" class="edge"><title>Node0&#45;&gt;Node9</title>
<path fill="none" stroke="midnightblue" d="M693.035,-224.345C730.808,-206.295 780.963,-175.688 806.5,-132 814.632,-118.089 815.581,-99.5786 814.818,-85.8699"/>
<polygon fill="midnightblue" stroke="midnightblue" points="818.284,-85.333 813.895,-75.6901 811.313,-85.9655 818.284,-85.333"/>
</g>
<!-- Node22 -->
<g id="node23" class="node"><title>Node22</title>
<g id="a_node23"><a xlink:href="parameter_8h.html" target="_top" xlink:title="parameter.h">
<polygon fill="white" stroke="black" points="23.5,-112.5 23.5,-131.5 91.5,-131.5 91.5,-112.5 23.5,-112.5"/>
<text text-anchor="middle" x="57.5" y="-119.5" font-family="Helvetica,sans-Serif" font-size="10.00">parameter.h</text>
</a>
</g>
</g>
<!-- Node0&#45;&gt;Node22 -->
<g id="edge28" class="edge"><title>Node0&#45;&gt;Node22</title>
<path fill="none" stroke="midnightblue" d="M551.396,-227.474C492.307,-216.76 414.29,-202.2 345.5,-188 258.782,-170.1 157.957,-146.76 101.551,-133.472"/>
<polygon fill="midnightblue" stroke="midnightblue" points="102.085,-130.002 91.5488,-131.112 100.478,-136.815 102.085,-130.002"/>
</g>
<!-- Node23 -->
<g id="node24" class="node"><title>Node23</title>
<g id="a_node24"><a xlink:href="color__macros_8h.html" target="_top" xlink:title="../stuff/color_macros.h">
<polygon fill="white" stroke="black" points="854,-168.5 854,-187.5 969,-187.5 969,-168.5 854,-168.5"/>
<text text-anchor="middle" x="911.5" y="-175.5" font-family="Helvetica,sans-Serif" font-size="10.00">../stuff/color_macros.h</text>
</a>
</g>
</g>
<!-- Node0&#45;&gt;Node23 -->
<g id="edge32" class="edge"><title>Node0&#45;&gt;Node23</title>
<path fill="none" stroke="midnightblue" d="M724.609,-224.498C771,-213.204 827.689,-199.403 866.386,-189.983"/>
<polygon fill="midnightblue" stroke="midnightblue" points="867.421,-193.333 876.309,-187.567 865.765,-186.532 867.421,-193.333"/>
</g>
<!-- Node24 -->
<g id="node25" class="node"><title>Node24</title>
<g id="a_node25"><a xlink:href="string__tools_8h.html" target="_top" xlink:title="../stuff/string_tools.h">
<polygon fill="white" stroke="black" points="690,-112.5 690,-131.5 797,-131.5 797,-112.5 690,-112.5"/>
<text text-anchor="middle" x="743.5" y="-119.5" font-family="Helvetica,sans-Serif" font-size="10.00">../stuff/string_tools.h</text>
</a>
</g>
</g>
<!-- Node0&#45;&gt;Node24 -->
<g id="edge33" class="edge"><title>Node0&#45;&gt;Node24</title>
<path fill="none" stroke="midnightblue" d="M660.626,-224.29C679.974,-200.642 712.055,-161.432 730.102,-139.375"/>
<polygon fill="midnightblue" stroke="midnightblue" points="732.861,-141.531 736.484,-131.575 727.443,-137.098 732.861,-141.531"/>
</g>
<!-- Node2 -->
<g id="node3" class="node"><title>Node2</title>
<polygon fill="white" stroke="#bfbfbf" points="90,-56.5 90,-75.5 135,-75.5 135,-56.5 90,-56.5"/>
<text text-anchor="middle" x="112.5" y="-63.5" font-family="Helvetica,sans-Serif" font-size="10.00">iosfwd</text>
</g>
<!-- Node1&#45;&gt;Node2 -->
<g id="edge2" class="edge"><title>Node1&#45;&gt;Node2</title>
<path fill="none" stroke="midnightblue" d="M157.583,-112.083C149.72,-104.22 138.069,-92.5688 128.581,-83.0813"/>
<polygon fill="midnightblue" stroke="midnightblue" points="130.797,-80.3473 121.251,-75.7511 125.847,-85.2971 130.797,-80.3473"/>
</g>
<!-- Node3 -->
<g id="node4" class="node"><title>Node3</title>
<polygon fill="white" stroke="#bfbfbf" points="416,-0.5 416,-19.5 451,-19.5 451,-0.5 416,-0.5"/>
<text text-anchor="middle" x="433.5" y="-7.5" font-family="Helvetica,sans-Serif" font-size="10.00">map</text>
</g>
<!-- Node1&#45;&gt;Node3 -->
<g id="edge3" class="edge"><title>Node1&#45;&gt;Node3</title>
<path fill="none" stroke="midnightblue" d="M196.058,-112.471C223.346,-104.254 264.779,-90.8999 299.5,-76 317.039,-68.4736 320.411,-64.4969 337.5,-56 360.624,-44.5028 387.235,-32.092 406.566,-23.222"/>
<polygon fill="midnightblue" stroke="midnightblue" points="408.05,-26.3922 415.689,-19.0509 405.139,-20.026 408.05,-26.3922"/>
</g>
<!-- Node4 -->
<g id="node5" class="node"><title>Node4</title>
<polygon fill="white" stroke="#bfbfbf" points="420,-56.5 420,-75.5 461,-75.5 461,-56.5 420,-56.5"/>
<text text-anchor="middle" x="440.5" y="-63.5" font-family="Helvetica,sans-Serif" font-size="10.00">string</text>
</g>
<!-- Node1&#45;&gt;Node4 -->
<g id="edge4" class="edge"><title>Node1&#45;&gt;Node4</title>
<path fill="none" stroke="midnightblue" d="M218.223,-112.432C266.981,-104.089 341.991,-90.565 406.5,-76 407.572,-75.7579 408.662,-75.5054 409.761,-75.2451"/>
<polygon fill="midnightblue" stroke="midnightblue" points="410.847,-78.5814 419.702,-72.7641 409.152,-71.7897 410.847,-78.5814"/>
</g>
<!-- Node6&#45;&gt;Node3 -->
<g id="edge26" class="edge"><title>Node6&#45;&gt;Node3</title>
<path fill="none" stroke="midnightblue" d="M475.913,-168.429C478.892,-148.118 484.382,-95.7773 469.5,-56 465.398,-45.0365 457.526,-34.6949 450.187,-26.6967"/>
<polygon fill="midnightblue" stroke="midnightblue" points="452.681,-24.2411 443.184,-19.5434 447.679,-29.1378 452.681,-24.2411"/>
</g>
<!-- Node6&#45;&gt;Node4 -->
<g id="edge25" class="edge"><title>Node6&#45;&gt;Node4</title>
<path fill="none" stroke="midnightblue" d="M471.832,-168.368C466.32,-150.537 453.573,-109.295 446.148,-85.2717"/>
<polygon fill="midnightblue" stroke="midnightblue" points="449.453,-84.1119 443.156,-75.5914 442.765,-86.179 449.453,-84.1119"/>
</g>
<!-- Node6&#45;&gt;Node5 -->
<g id="edge27" class="edge"><title>Node6&#45;&gt;Node5</title>
<path fill="none" stroke="midnightblue" d="M501.437,-168.444C530.16,-159.32 575.829,-144.813 607.821,-134.651"/>
<polygon fill="midnightblue" stroke="midnightblue" points="609.218,-137.88 617.689,-131.516 607.099,-131.208 609.218,-137.88"/>
</g>
<!-- Node7 -->
<g id="node8" class="node"><title>Node7</title>
<g id="a_node8"><a xlink:href="config_8h.html" target="_top" xlink:title="../../config.h">
<polygon fill="white" stroke="black" points="358,-112.5 358,-131.5 427,-131.5 427,-112.5 358,-112.5"/>
<text text-anchor="middle" x="392.5" y="-119.5" font-family="Helvetica,sans-Serif" font-size="10.00">../../config.h</text>
</a>
</g>
</g>
<!-- Node6&#45;&gt;Node7 -->
<g id="edge7" class="edge"><title>Node6&#45;&gt;Node7</title>
<path fill="none" stroke="midnightblue" d="M461.325,-168.324C448.653,-159.979 429.267,-147.212 414.294,-137.352"/>
<polygon fill="midnightblue" stroke="midnightblue" points="415.919,-134.231 405.642,-131.655 412.069,-140.078 415.919,-134.231"/>
</g>
<!-- Node8 -->
<g id="node9" class="node"><title>Node8</title>
<g id="a_node9"><a xlink:href="misc_8h.html" target="_top" xlink:title="some general case utility functions ">
<polygon fill="white" stroke="black" points="522,-112.5 522,-131.5 599,-131.5 599,-112.5 522,-112.5"/>
<text text-anchor="middle" x="560.5" y="-119.5" font-family="Helvetica,sans-Serif" font-size="10.00">../stuff/misc.h</text>
</a>
</g>
</g>
<!-- Node6&#45;&gt;Node8 -->
<g id="edge8" class="edge"><title>Node6&#45;&gt;Node8</title>
<path fill="none" stroke="midnightblue" d="M488.317,-168.324C501.733,-159.9 522.324,-146.971 538.086,-137.074"/>
<polygon fill="midnightblue" stroke="midnightblue" points="540.109,-139.936 546.717,-131.655 536.387,-134.008 540.109,-139.936"/>
</g>
<!-- Node12 -->
<g id="node13" class="node"><title>Node12</title>
<g id="a_node13"><a xlink:href="hyper__graph_8h.html" target="_top" xlink:title="hyper_graph.h">
<polygon fill="white" stroke="black" points="212.5,-56.5 212.5,-75.5 290.5,-75.5 290.5,-56.5 212.5,-56.5"/>
<text text-anchor="middle" x="251.5" y="-63.5" font-family="Helvetica,sans-Serif" font-size="10.00">hyper_graph.h</text>
</a>
</g>
</g>
<!-- Node6&#45;&gt;Node12 -->
<g id="edge12" class="edge"><title>Node6&#45;&gt;Node12</title>
<path fill="none" stroke="midnightblue" d="M446.617,-174.345C396.906,-169.061 295.801,-155.654 270.5,-132 257.895,-120.216 253.498,-100.58 252.041,-85.9676"/>
<polygon fill="midnightblue" stroke="midnightblue" points="255.509,-85.3385 251.402,-75.5722 248.522,-85.7682 255.509,-85.3385"/>
</g>
<!-- Node20 -->
<g id="node21" class="node"><title>Node20</title>
<g id="a_node21"><a xlink:href="creators_8h.html" target="_top" xlink:title="creators.h">
<polygon fill="white" stroke="black" points="279.5,-112.5 279.5,-131.5 339.5,-131.5 339.5,-112.5 279.5,-112.5"/>
<text text-anchor="middle" x="309.5" y="-119.5" font-family="Helvetica,sans-Serif" font-size="10.00">creators.h</text>
</a>
</g>
</g>
<!-- Node6&#45;&gt;Node20 -->
<g id="edge21" class="edge"><title>Node6&#45;&gt;Node20</title>
<path fill="none" stroke="midnightblue" d="M448.355,-168.444C420.477,-159.32 376.152,-144.813 345.1,-134.651"/>
<polygon fill="midnightblue" stroke="midnightblue" points="346.115,-131.3 335.522,-131.516 343.938,-137.953 346.115,-131.3"/>
</g>
<!-- Node8&#45;&gt;Node9 -->
<g id="edge9" class="edge"><title>Node8&#45;&gt;Node9</title>
<path fill="none" stroke="midnightblue" d="M599.031,-113.326C640.099,-105.059 707.271,-91.2926 774,-76.2904"/>
<polygon fill="midnightblue" stroke="midnightblue" points="774.855,-79.6854 783.838,-74.0685 773.313,-72.8574 774.855,-79.6854"/>
</g>
<!-- Node11 -->
<g id="node12" class="node"><title>Node11</title>
<polygon fill="white" stroke="#bfbfbf" points="538.5,-56.5 538.5,-75.5 582.5,-75.5 582.5,-56.5 538.5,-56.5"/>
<text text-anchor="middle" x="560.5" y="-63.5" font-family="Helvetica,sans-Serif" font-size="10.00">cmath</text>
</g>
<!-- Node8&#45;&gt;Node11 -->
<g id="edge11" class="edge"><title>Node8&#45;&gt;Node11</title>
<path fill="none" stroke="midnightblue" d="M560.5,-112.083C560.5,-105.006 560.5,-94.8611 560.5,-85.9865"/>
<polygon fill="midnightblue" stroke="midnightblue" points="564,-85.751 560.5,-75.7511 557,-85.7511 564,-85.751"/>
</g>
<!-- Node10 -->
<g id="node11" class="node"><title>Node10</title>
<polygon fill="white" stroke="#bfbfbf" points="789,-0.5 789,-19.5 836,-19.5 836,-0.5 789,-0.5"/>
<text text-anchor="middle" x="812.5" y="-7.5" font-family="Helvetica,sans-Serif" font-size="10.00">math.h</text>
</g>
<!-- Node9&#45;&gt;Node10 -->
<g id="edge10" class="edge"><title>Node9&#45;&gt;Node10</title>
<path fill="none" stroke="midnightblue" d="M812.5,-56.083C812.5,-49.0059 812.5,-38.8611 812.5,-29.9865"/>
<polygon fill="midnightblue" stroke="midnightblue" points="816,-29.751 812.5,-19.7511 809,-29.7511 816,-29.751"/>
</g>
<!-- Node12&#45;&gt;Node3 -->
<g id="edge13" class="edge"><title>Node12&#45;&gt;Node3</title>
<path fill="none" stroke="midnightblue" d="M282.192,-56.4725C311.581,-48.2231 357.384,-35.1478 406.047,-20.0512"/>
<polygon fill="midnightblue" stroke="midnightblue" points="407.309,-23.324 415.813,-17.0058 405.225,-16.6414 407.309,-23.324"/>
</g>
<!-- Node13 -->
<g id="node14" class="node"><title>Node13</title>
<polygon fill="white" stroke="#bfbfbf" points="182.5,-0.5 182.5,-19.5 212.5,-19.5 212.5,-0.5 182.5,-0.5"/>
<text text-anchor="middle" x="197.5" y="-7.5" font-family="Helvetica,sans-Serif" font-size="10.00">set</text>
</g>
<!-- Node12&#45;&gt;Node13 -->
<g id="edge14" class="edge"><title>Node12&#45;&gt;Node13</title>
<path fill="none" stroke="midnightblue" d="M242.583,-56.083C234.72,-48.2195 223.069,-36.5688 213.581,-27.0813"/>
<polygon fill="midnightblue" stroke="midnightblue" points="215.797,-24.3473 206.251,-19.7511 210.847,-29.2971 215.797,-24.3473"/>
</g>
<!-- Node14 -->
<g id="node15" class="node"><title>Node14</title>
<polygon fill="white" stroke="#bfbfbf" points="231,-0.5 231,-19.5 272,-19.5 272,-0.5 231,-0.5"/>
<text text-anchor="middle" x="251.5" y="-7.5" font-family="Helvetica,sans-Serif" font-size="10.00">bitset</text>
</g>
<!-- Node12&#45;&gt;Node14 -->
<g id="edge15" class="edge"><title>Node12&#45;&gt;Node14</title>
<path fill="none" stroke="midnightblue" d="M251.5,-56.083C251.5,-49.0059 251.5,-38.8611 251.5,-29.9865"/>
<polygon fill="midnightblue" stroke="midnightblue" points="255,-29.751 251.5,-19.7511 248,-29.7511 255,-29.751"/>
</g>
<!-- Node15 -->
<g id="node16" class="node"><title>Node15</title>
<polygon fill="white" stroke="#bfbfbf" points="290,-0.5 290,-19.5 339,-19.5 339,-0.5 290,-0.5"/>
<text text-anchor="middle" x="314.5" y="-7.5" font-family="Helvetica,sans-Serif" font-size="10.00">cassert</text>
</g>
<!-- Node12&#45;&gt;Node15 -->
<g id="edge16" class="edge"><title>Node12&#45;&gt;Node15</title>
<path fill="none" stroke="midnightblue" d="M261.622,-56.324C271.026,-48.2631 285.244,-36.0765 296.569,-26.3695"/>
<polygon fill="midnightblue" stroke="midnightblue" points="298.879,-28.9993 304.194,-19.8339 294.323,-23.6844 298.879,-28.9993"/>
</g>
<!-- Node16 -->
<g id="node17" class="node"><title>Node16</title>
<polygon fill="white" stroke="#bfbfbf" points="569.5,-0.5 569.5,-19.5 613.5,-19.5 613.5,-0.5 569.5,-0.5"/>
<text text-anchor="middle" x="591.5" y="-7.5" font-family="Helvetica,sans-Serif" font-size="10.00">vector</text>
</g>
<!-- Node12&#45;&gt;Node16 -->
<g id="edge17" class="edge"><title>Node12&#45;&gt;Node16</title>
<path fill="none" stroke="midnightblue" d="M290.502,-58.8055C358.272,-48.0422 496.513,-26.0862 559.25,-16.1221"/>
<polygon fill="midnightblue" stroke="midnightblue" points="560.024,-19.543 569.351,-14.5177 558.926,-12.6297 560.024,-19.543"/>
</g>
<!-- Node17 -->
<g id="node18" class="node"><title>Node17</title>
<polygon fill="white" stroke="#bfbfbf" points="357.5,-0.5 357.5,-19.5 397.5,-19.5 397.5,-0.5 357.5,-0.5"/>
<text text-anchor="middle" x="377.5" y="-7.5" font-family="Helvetica,sans-Serif" font-size="10.00">limits</text>
</g>
<!-- Node12&#45;&gt;Node17 -->
<g id="edge18" class="edge"><title>Node12&#45;&gt;Node17</title>
<path fill="none" stroke="midnightblue" d="M271.465,-56.4435C292.109,-47.5961 324.563,-33.6875 348.132,-23.5865"/>
<polygon fill="midnightblue" stroke="midnightblue" points="349.816,-26.6727 357.628,-19.5164 347.058,-20.2387 349.816,-26.6727"/>
</g>
<!-- Node18 -->
<g id="node19" class="node"><title>Node18</title>
<polygon fill="white" stroke="#bfbfbf" points="0,-0.5 0,-19.5 49,-19.5 49,-0.5 0,-0.5"/>
<text text-anchor="middle" x="24.5" y="-7.5" font-family="Helvetica,sans-Serif" font-size="10.00">cstddef</text>
</g>
<!-- Node12&#45;&gt;Node18 -->
<g id="edge19" class="edge"><title>Node12&#45;&gt;Node18</title>
<path fill="none" stroke="midnightblue" d="M212.746,-56.4698C175.58,-48.1869 117.653,-35.0123 59.1177,-20.3465"/>
<polygon fill="midnightblue" stroke="midnightblue" points="59.8914,-16.9322 49.3394,-17.8839 58.1818,-23.7202 59.8914,-16.9322"/>
</g>
<!-- Node19 -->
<g id="node20" class="node"><title>Node19</title>
<polygon fill="white" stroke="#bfbfbf" points="66.5,-0.5 66.5,-19.5 164.5,-19.5 164.5,-0.5 66.5,-0.5"/>
<text text-anchor="middle" x="115.5" y="-7.5" font-family="Helvetica,sans-Serif" font-size="10.00">tr1/unordered_map</text>
</g>
<!-- Node12&#45;&gt;Node19 -->
<g id="edge20" class="edge"><title>Node12&#45;&gt;Node19</title>
<path fill="none" stroke="midnightblue" d="M229.95,-56.4435C207.469,-47.5171 172.012,-33.4387 146.52,-23.3168"/>
<polygon fill="midnightblue" stroke="midnightblue" points="147.535,-19.9539 136.949,-19.5164 144.951,-26.4598 147.535,-19.9539"/>
</g>
<!-- Node20&#45;&gt;Node4 -->
<g id="edge23" class="edge"><title>Node20&#45;&gt;Node4</title>
<path fill="none" stroke="midnightblue" d="M330.257,-112.444C351.816,-103.557 385.763,-89.5632 410.294,-79.4514"/>
<polygon fill="midnightblue" stroke="midnightblue" points="411.928,-82.5634 419.84,-75.5164 409.261,-76.0917 411.928,-82.5634"/>
</g>
<!-- Node20&#45;&gt;Node12 -->
<g id="edge22" class="edge"><title>Node20&#45;&gt;Node12</title>
<path fill="none" stroke="midnightblue" d="M300.181,-112.324C291.607,-104.341 278.688,-92.3128 268.312,-82.6529"/>
<polygon fill="midnightblue" stroke="midnightblue" points="270.692,-80.0865 260.988,-75.8339 265.922,-85.2098 270.692,-80.0865"/>
</g>
<!-- Node21 -->
<g id="node22" class="node"><title>Node21</title>
<polygon fill="white" stroke="#bfbfbf" points="347,-56.5 347,-75.5 398,-75.5 398,-56.5 347,-56.5"/>
<text text-anchor="middle" x="372.5" y="-63.5" font-family="Helvetica,sans-Serif" font-size="10.00">typeinfo</text>
</g>
<!-- Node20&#45;&gt;Node21 -->
<g id="edge24" class="edge"><title>Node20&#45;&gt;Node21</title>
<path fill="none" stroke="midnightblue" d="M319.622,-112.324C329.026,-104.263 343.244,-92.0765 354.569,-82.3695"/>
<polygon fill="midnightblue" stroke="midnightblue" points="356.879,-84.9993 362.194,-75.8339 352.323,-79.6844 356.879,-84.9993"/>
</g>
<!-- Node22&#45;&gt;Node2 -->
<g id="edge29" class="edge"><title>Node22&#45;&gt;Node2</title>
<path fill="none" stroke="midnightblue" d="M66.5821,-112.083C74.6713,-104.141 86.6954,-92.3354 96.4102,-82.7973"/>
<polygon fill="midnightblue" stroke="midnightblue" points="98.9033,-85.2545 103.587,-75.7511 93.9991,-80.2595 98.9033,-85.2545"/>
</g>
<!-- Node22&#45;&gt;Node12 -->
<g id="edge30" class="edge"><title>Node22&#45;&gt;Node12</title>
<path fill="none" stroke="midnightblue" d="M88.2399,-112.444C121.444,-103.201 174.491,-88.4356 211.057,-78.2572"/>
<polygon fill="midnightblue" stroke="midnightblue" points="212.209,-81.5699 220.904,-75.5164 210.332,-74.8262 212.209,-81.5699"/>
</g>
<!-- Node24&#45;&gt;Node4 -->
<g id="edge34" class="edge"><title>Node24&#45;&gt;Node4</title>
<path fill="none" stroke="midnightblue" d="M695.489,-112.444C632.574,-101.231 524.049,-81.89 471.202,-72.4717"/>
<polygon fill="midnightblue" stroke="midnightblue" points="471.565,-68.9812 461.106,-70.6723 470.337,-75.8726 471.565,-68.9812"/>
</g>
<!-- Node24&#45;&gt;Node9 -->
<g id="edge38" class="edge"><title>Node24&#45;&gt;Node9</title>
<path fill="none" stroke="midnightblue" d="M754.586,-112.324C764.986,-104.185 780.761,-91.8395 793.222,-82.0874"/>
<polygon fill="midnightblue" stroke="midnightblue" points="795.494,-84.7533 801.212,-75.8339 791.18,-79.2407 795.494,-84.7533"/>
</g>
<!-- Node24&#45;&gt;Node16 -->
<g id="edge37" class="edge"><title>Node24&#45;&gt;Node16</title>
<path fill="none" stroke="midnightblue" d="M735.47,-112.274C723.03,-99.0649 697.975,-73.6636 673.5,-56 656.438,-43.6867 635.642,-32.31 619.261,-24.0762"/>
<polygon fill="midnightblue" stroke="midnightblue" points="620.706,-20.8864 610.189,-19.6081 617.614,-27.1662 620.706,-20.8864"/>
</g>
<!-- Node25 -->
<g id="node26" class="node"><title>Node25</title>
<polygon fill="white" stroke="#bfbfbf" points="612.5,-56.5 612.5,-75.5 664.5,-75.5 664.5,-56.5 612.5,-56.5"/>
<text text-anchor="middle" x="638.5" y="-63.5" font-family="Helvetica,sans-Serif" font-size="10.00">sstream</text>
</g>
<!-- Node24&#45;&gt;Node25 -->
<g id="edge35" class="edge"><title>Node24&#45;&gt;Node25</title>
<path fill="none" stroke="midnightblue" d="M726.63,-112.324C709.791,-103.664 683.693,-90.2424 664.262,-80.249"/>
<polygon fill="midnightblue" stroke="midnightblue" points="665.822,-77.1155 655.328,-75.6545 662.62,-83.3405 665.822,-77.1155"/>
</g>
<!-- Node26 -->
<g id="node27" class="node"><title>Node26</title>
<polygon fill="white" stroke="#bfbfbf" points="721,-56.5 721,-75.5 766,-75.5 766,-56.5 721,-56.5"/>
<text text-anchor="middle" x="743.5" y="-63.5" font-family="Helvetica,sans-Serif" font-size="10.00">cstdlib</text>
</g>
<!-- Node24&#45;&gt;Node26 -->
<g id="edge36" class="edge"><title>Node24&#45;&gt;Node26</title>
<path fill="none" stroke="midnightblue" d="M743.5,-112.083C743.5,-105.006 743.5,-94.8611 743.5,-85.9865"/>
<polygon fill="midnightblue" stroke="midnightblue" points="747,-85.751 743.5,-75.7511 740,-85.7511 747,-85.751"/>
</g>
</g>
</svg>
