<?xml version="1.0" encoding="UTF-8" standalone="no"?>
<!DOCTYPE svg PUBLIC "-//W3C//DTD SVG 1.1//EN"
 "http://www.w3.org/Graphics/SVG/1.1/DTD/svg11.dtd">
<!-- Generated by graphviz version 2.38.0 (20140413.2041)
 -->
<!-- Title: /home/alejandro/Desarrollo eclipse/os1/Thirdparty/g2o/g2o/stuff/property.cpp Pages: 1 -->
<svg width="372pt" height="274pt"
 viewBox="0.00 0.00 371.50 274.00" xmlns="http://www.w3.org/2000/svg" xmlns:xlink="http://www.w3.org/1999/xlink">
<g id="graph0" class="graph" transform="scale(1 1) rotate(0) translate(4 270)">
<title>/home/alejandro/Desarrollo eclipse/os1/Thirdparty/g2o/g2o/stuff/property.cpp</title>
<polygon fill="white" stroke="none" points="-4,4 -4,-270 367.5,-270 367.5,4 -4,4"/>
<!-- Node0 -->
<g id="node1" class="node"><title>Node0</title>
<polygon fill="#bfbfbf" stroke="black" points="176.5,-224.5 176.5,-265.5 310.5,-265.5 310.5,-224.5 176.5,-224.5"/>
<text text-anchor="start" x="184.5" y="-253.5" font-family="Helvetica,sans-Serif" font-size="10.00">/home/alejandro/Desarrollo</text>
<text text-anchor="start" x="184.5" y="-242.5" font-family="Helvetica,sans-Serif" font-size="10.00"> eclipse/os1/Thirdparty</text>
<text text-anchor="middle" x="243.5" y="-231.5" font-family="Helvetica,sans-Serif" font-size="10.00">/g2o/g2o/stuff/property.cpp</text>
</g>
<!-- Node1 -->
<g id="node2" class="node"><title>Node1</title>
<g id="a_node2"><a xlink:href="property_8h.html" target="_top" xlink:title="property.h">
<polygon fill="white" stroke="black" points="74.5,-168.5 74.5,-187.5 134.5,-187.5 134.5,-168.5 74.5,-168.5"/>
<text text-anchor="middle" x="104.5" y="-175.5" font-family="Helvetica,sans-Serif" font-size="10.00">property.h</text>
</a>
</g>
</g>
<!-- Node0&#45;&gt;Node1 -->
<g id="edge1" class="edge"><title>Node0&#45;&gt;Node1</title>
<path fill="none" stroke="midnightblue" d="M201.795,-224.498C179.255,-213.957 152.044,-201.233 132.136,-191.923"/>
<polygon fill="midnightblue" stroke="midnightblue" points="133.544,-188.718 123.003,-187.652 130.579,-195.059 133.544,-188.718"/>
</g>
<!-- Node5 -->
<g id="node6" class="node"><title>Node5</title>
<g id="a_node6"><a xlink:href="string__tools_8h.html" target="_top" xlink:title="string_tools.h">
<polygon fill="white" stroke="black" points="140,-112.5 140,-131.5 215,-131.5 215,-112.5 140,-112.5"/>
<text text-anchor="middle" x="177.5" y="-119.5" font-family="Helvetica,sans-Serif" font-size="10.00">string_tools.h</text>
</a>
</g>
</g>
<!-- Node0&#45;&gt;Node5 -->
<g id="edge15" class="edge"><title>Node0&#45;&gt;Node5</title>
<path fill="none" stroke="midnightblue" d="M232.749,-224.29C220.079,-201.061 199.218,-162.815 187.079,-140.562"/>
<polygon fill="midnightblue" stroke="midnightblue" points="190.038,-138.678 182.177,-131.575 183.893,-142.03 190.038,-138.678"/>
</g>
<!-- Node7 -->
<g id="node8" class="node"><title>Node7</title>
<polygon fill="white" stroke="#bfbfbf" points="193.5,-56.5 193.5,-75.5 237.5,-75.5 237.5,-56.5 193.5,-56.5"/>
<text text-anchor="middle" x="215.5" y="-63.5" font-family="Helvetica,sans-Serif" font-size="10.00">vector</text>
</g>
<!-- Node0&#45;&gt;Node7 -->
<g id="edge12" class="edge"><title>Node0&#45;&gt;Node7</title>
<path fill="none" stroke="midnightblue" d="M240.675,-224.295C236.936,-198.474 230.051,-151.795 223.5,-112 222.064,-103.28 220.364,-93.6297 218.9,-85.5095"/>
<polygon fill="midnightblue" stroke="midnightblue" points="222.334,-84.8269 217.099,-75.6156 215.447,-86.0808 222.334,-84.8269"/>
</g>
<!-- Node8 -->
<g id="node9" class="node"><title>Node8</title>
<g id="a_node9"><a xlink:href="macros_8h.html" target="_top" xlink:title="macros.h">
<polygon fill="white" stroke="black" points="256,-56.5 256,-75.5 313,-75.5 313,-56.5 256,-56.5"/>
<text text-anchor="middle" x="284.5" y="-63.5" font-family="Helvetica,sans-Serif" font-size="10.00">macros.h</text>
</a>
</g>
</g>
<!-- Node0&#45;&gt;Node8 -->
<g id="edge14" class="edge"><title>Node0&#45;&gt;Node8</title>
<path fill="none" stroke="midnightblue" d="M248.044,-224.382C256.024,-189.932 272.445,-119.042 280.228,-85.4424"/>
<polygon fill="midnightblue" stroke="midnightblue" points="283.665,-86.1157 282.512,-75.5838 276.845,-84.536 283.665,-86.1157"/>
</g>
<!-- Node10 -->
<g id="node11" class="node"><title>Node10</title>
<polygon fill="white" stroke="#bfbfbf" points="309.5,-168.5 309.5,-187.5 363.5,-187.5 363.5,-168.5 309.5,-168.5"/>
<text text-anchor="middle" x="336.5" y="-175.5" font-family="Helvetica,sans-Serif" font-size="10.00">iostream</text>
</g>
<!-- Node0&#45;&gt;Node10 -->
<g id="edge13" class="edge"><title>Node0&#45;&gt;Node10</title>
<path fill="none" stroke="midnightblue" d="M271.403,-224.498C285.662,-214.532 302.713,-202.614 315.788,-193.476"/>
<polygon fill="midnightblue" stroke="midnightblue" points="317.929,-196.25 324.12,-187.652 313.919,-190.512 317.929,-196.25"/>
</g>
<!-- Node2 -->
<g id="node3" class="node"><title>Node2</title>
<polygon fill="white" stroke="#bfbfbf" points="0,-56.5 0,-75.5 41,-75.5 41,-56.5 0,-56.5"/>
<text text-anchor="middle" x="20.5" y="-63.5" font-family="Helvetica,sans-Serif" font-size="10.00">string</text>
</g>
<!-- Node1&#45;&gt;Node2 -->
<g id="edge2" class="edge"><title>Node1&#45;&gt;Node2</title>
<path fill="none" stroke="midnightblue" d="M97.9087,-168.368C83.9849,-150.135 51.3705,-107.426 33.2338,-83.6752"/>
<polygon fill="midnightblue" stroke="midnightblue" points="35.9116,-81.4149 27.0607,-75.5914 30.3482,-85.6633 35.9116,-81.4149"/>
</g>
<!-- Node3 -->
<g id="node4" class="node"><title>Node3</title>
<polygon fill="white" stroke="#bfbfbf" points="87,-112.5 87,-131.5 122,-131.5 122,-112.5 87,-112.5"/>
<text text-anchor="middle" x="104.5" y="-119.5" font-family="Helvetica,sans-Serif" font-size="10.00">map</text>
</g>
<!-- Node1&#45;&gt;Node3 -->
<g id="edge3" class="edge"><title>Node1&#45;&gt;Node3</title>
<path fill="none" stroke="midnightblue" d="M104.5,-168.083C104.5,-161.006 104.5,-150.861 104.5,-141.986"/>
<polygon fill="midnightblue" stroke="midnightblue" points="108,-141.751 104.5,-131.751 101,-141.751 108,-141.751"/>
</g>
<!-- Node4 -->
<g id="node5" class="node"><title>Node4</title>
<polygon fill="white" stroke="#bfbfbf" points="59.5,-56.5 59.5,-75.5 111.5,-75.5 111.5,-56.5 59.5,-56.5"/>
<text text-anchor="middle" x="85.5" y="-63.5" font-family="Helvetica,sans-Serif" font-size="10.00">sstream</text>
</g>
<!-- Node1&#45;&gt;Node4 -->
<g id="edge4" class="edge"><title>Node1&#45;&gt;Node4</title>
<path fill="none" stroke="midnightblue" d="M97.3485,-168.364C90.7268,-159.763 81.3426,-145.873 77.5,-132 73.232,-116.591 76.067,-98.4974 79.4892,-85.318"/>
<polygon fill="midnightblue" stroke="midnightblue" points="82.8923,-86.1513 82.359,-75.5699 76.1773,-84.1744 82.8923,-86.1513"/>
</g>
<!-- Node1&#45;&gt;Node5 -->
<g id="edge5" class="edge"><title>Node1&#45;&gt;Node5</title>
<path fill="none" stroke="midnightblue" d="M116.229,-168.324C127.337,-160.107 144.242,-147.602 157.483,-137.807"/>
<polygon fill="midnightblue" stroke="midnightblue" points="159.6,-140.595 165.558,-131.834 155.437,-134.967 159.6,-140.595"/>
</g>
<!-- Node5&#45;&gt;Node2 -->
<g id="edge6" class="edge"><title>Node5&#45;&gt;Node2</title>
<path fill="none" stroke="midnightblue" d="M152.623,-112.444C125.088,-102.973 80.6926,-87.7032 51.0626,-77.512"/>
<polygon fill="midnightblue" stroke="midnightblue" points="51.8443,-74.0797 41.2497,-74.1368 49.5676,-80.6991 51.8443,-74.0797"/>
</g>
<!-- Node5&#45;&gt;Node4 -->
<g id="edge7" class="edge"><title>Node5&#45;&gt;Node4</title>
<path fill="none" stroke="midnightblue" d="M162.719,-112.324C148.233,-103.822 125.927,-90.7288 109.007,-80.7975"/>
<polygon fill="midnightblue" stroke="midnightblue" points="110.641,-77.6981 100.245,-75.6545 107.097,-83.735 110.641,-77.6981"/>
</g>
<!-- Node6 -->
<g id="node7" class="node"><title>Node6</title>
<polygon fill="white" stroke="#bfbfbf" points="130,-56.5 130,-75.5 175,-75.5 175,-56.5 130,-56.5"/>
<text text-anchor="middle" x="152.5" y="-63.5" font-family="Helvetica,sans-Serif" font-size="10.00">cstdlib</text>
</g>
<!-- Node5&#45;&gt;Node6 -->
<g id="edge8" class="edge"><title>Node5&#45;&gt;Node6</title>
<path fill="none" stroke="midnightblue" d="M173.372,-112.083C169.986,-104.77 165.084,-94.1814 160.881,-85.1034"/>
<polygon fill="midnightblue" stroke="midnightblue" points="163.929,-83.3553 156.551,-75.7511 157.577,-86.2962 163.929,-83.3553"/>
</g>
<!-- Node5&#45;&gt;Node7 -->
<g id="edge9" class="edge"><title>Node5&#45;&gt;Node7</title>
<path fill="none" stroke="midnightblue" d="M183.775,-112.083C189.142,-104.455 197.018,-93.2645 203.579,-83.9408"/>
<polygon fill="midnightblue" stroke="midnightblue" points="206.449,-85.9434 209.342,-75.7511 200.725,-81.9149 206.449,-85.9434"/>
</g>
<!-- Node5&#45;&gt;Node8 -->
<g id="edge10" class="edge"><title>Node5&#45;&gt;Node8</title>
<path fill="none" stroke="midnightblue" d="M194.691,-112.324C211.851,-103.664 238.446,-90.2424 258.247,-80.249"/>
<polygon fill="midnightblue" stroke="midnightblue" points="260.001,-83.2847 267.351,-75.6545 256.847,-77.0354 260.001,-83.2847"/>
</g>
<!-- Node9 -->
<g id="node10" class="node"><title>Node9</title>
<polygon fill="white" stroke="#bfbfbf" points="261,-0.5 261,-19.5 308,-19.5 308,-0.5 261,-0.5"/>
<text text-anchor="middle" x="284.5" y="-7.5" font-family="Helvetica,sans-Serif" font-size="10.00">math.h</text>
</g>
<!-- Node8&#45;&gt;Node9 -->
<g id="edge11" class="edge"><title>Node8&#45;&gt;Node9</title>
<path fill="none" stroke="midnightblue" d="M284.5,-56.083C284.5,-49.0059 284.5,-38.8611 284.5,-29.9865"/>
<polygon fill="midnightblue" stroke="midnightblue" points="288,-29.751 284.5,-19.7511 281,-29.7511 288,-29.751"/>
</g>
</g>
</svg>
