<?xml version="1.0" encoding="UTF-8" standalone="no"?>
<!DOCTYPE svg PUBLIC "-//W3C//DTD SVG 1.1//EN"
 "http://www.w3.org/Graphics/SVG/1.1/DTD/svg11.dtd">
<!-- Generated by graphviz version 2.38.0 (20140413.2041)
 -->
<!-- Title: /home/alejandro/Desarrollo eclipse/os1/Thirdparty/g2o/g2o/core/robust_kernel.h Pages: 1 -->
<svg width="1826pt" height="808pt"
 viewBox="0.00 0.00 1826.17 808.00" xmlns="http://www.w3.org/2000/svg" xmlns:xlink="http://www.w3.org/1999/xlink">
<g id="graph0" class="graph" transform="scale(1 1) rotate(0) translate(4 804)">
<title>/home/alejandro/Desarrollo eclipse/os1/Thirdparty/g2o/g2o/core/robust_kernel.h</title>
<polygon fill="white" stroke="none" points="-4,4 -4,-804 1822.17,-804 1822.17,4 -4,4"/>
<!-- Node3 -->
<g id="node1" class="node"><title>Node3</title>
<polygon fill="#bfbfbf" stroke="black" points="1075.17,-758.5 1075.17,-799.5 1221.17,-799.5 1221.17,-758.5 1075.17,-758.5"/>
<text text-anchor="start" x="1083.17" y="-787.5" font-family="Helvetica,sans-Serif" font-size="10.00">/home/alejandro/Desarrollo</text>
<text text-anchor="start" x="1083.17" y="-776.5" font-family="Helvetica,sans-Serif" font-size="10.00"> eclipse/os1/Thirdparty</text>
<text text-anchor="middle" x="1148.17" y="-765.5" font-family="Helvetica,sans-Serif" font-size="10.00">/g2o/g2o/core/robust_kernel.h</text>
</g>
<!-- Node4 -->
<g id="node2" class="node"><title>Node4</title>
<g id="a_node2"><a xlink:href="base__binary__edge_8h.html" target="_top" xlink:title="/home/alejandro/Desarrollo\l eclipse/os1/Thirdparty\l/g2o/g2o/core/base_binary_edge.h">
<polygon fill="white" stroke="black" points="614.166,-675 614.166,-716 780.166,-716 780.166,-675 614.166,-675"/>
<text text-anchor="start" x="622.166" y="-704" font-family="Helvetica,sans-Serif" font-size="10.00">/home/alejandro/Desarrollo</text>
<text text-anchor="start" x="622.166" y="-693" font-family="Helvetica,sans-Serif" font-size="10.00"> eclipse/os1/Thirdparty</text>
<text text-anchor="middle" x="697.166" y="-682" font-family="Helvetica,sans-Serif" font-size="10.00">/g2o/g2o/core/base_binary_edge.h</text>
</a>
</g>
</g>
<!-- Node3&#45;&gt;Node4 -->
<g id="edge1" class="edge"><title>Node3&#45;&gt;Node4</title>
<path fill="none" stroke="midnightblue" d="M1064.76,-767.771C991.674,-758.147 882.802,-742.209 789.166,-722 780.985,-720.234 772.451,-718.173 764.022,-716.001"/>
<polygon fill="midnightblue" stroke="midnightblue" points="1064.46,-771.261 1074.83,-769.087 1065.37,-764.32 1064.46,-771.261"/>
</g>
<!-- Node29 -->
<g id="node27" class="node"><title>Node29</title>
<g id="a_node27"><a xlink:href="base__unary__edge_8h.html" target="_top" xlink:title="/home/alejandro/Desarrollo\l eclipse/os1/Thirdparty\l/g2o/g2o/core/base_unary_edge.h">
<polygon fill="white" stroke="black" points="432.166,-675 432.166,-716 596.166,-716 596.166,-675 432.166,-675"/>
<text text-anchor="start" x="440.166" y="-704" font-family="Helvetica,sans-Serif" font-size="10.00">/home/alejandro/Desarrollo</text>
<text text-anchor="start" x="440.166" y="-693" font-family="Helvetica,sans-Serif" font-size="10.00"> eclipse/os1/Thirdparty</text>
<text text-anchor="middle" x="514.166" y="-682" font-family="Helvetica,sans-Serif" font-size="10.00">/g2o/g2o/core/base_unary_edge.h</text>
</a>
</g>
</g>
<!-- Node3&#45;&gt;Node29 -->
<g id="edge54" class="edge"><title>Node3&#45;&gt;Node29</title>
<path fill="none" stroke="midnightblue" d="M1065.04,-773.838C957.947,-767.471 766.384,-752.669 605.166,-722 596.624,-720.375 587.718,-718.33 578.965,-716.108"/>
<polygon fill="midnightblue" stroke="midnightblue" points="1064.95,-777.339 1075.13,-774.428 1065.36,-770.35 1064.95,-777.339"/>
</g>
<!-- Node30 -->
<g id="node28" class="node"><title>Node30</title>
<g id="a_node28"><a xlink:href="robust__kernel__impl_8h.html" target="_top" xlink:title="/home/alejandro/Desarrollo\l eclipse/os1/Thirdparty\l/g2o/g2o/core/robust_kernel_impl.h">
<polygon fill="white" stroke="black" points="798.666,-675 798.666,-716 967.666,-716 967.666,-675 798.666,-675"/>
<text text-anchor="start" x="806.666" y="-704" font-family="Helvetica,sans-Serif" font-size="10.00">/home/alejandro/Desarrollo</text>
<text text-anchor="start" x="806.666" y="-693" font-family="Helvetica,sans-Serif" font-size="10.00"> eclipse/os1/Thirdparty</text>
<text text-anchor="middle" x="883.166" y="-682" font-family="Helvetica,sans-Serif" font-size="10.00">/g2o/g2o/core/robust_kernel_impl.h</text>
</a>
</g>
</g>
<!-- Node3&#45;&gt;Node30 -->
<g id="edge56" class="edge"><title>Node3&#45;&gt;Node30</title>
<path fill="none" stroke="midnightblue" d="M1074.93,-755.476C1034.66,-743.091 985.188,-727.876 946.581,-716.003"/>
<polygon fill="midnightblue" stroke="midnightblue" points="1074.11,-758.884 1084.69,-758.479 1076.16,-752.194 1074.11,-758.884"/>
</g>
<!-- Node32 -->
<g id="node30" class="node"><title>Node32</title>
<g id="a_node30"><a xlink:href="base__multi__edge_8h.html" target="_top" xlink:title="/home/alejandro/Desarrollo\l eclipse/os1/Thirdparty\l/g2o/g2o/core/base_multi_edge.h">
<polygon fill="white" stroke="black" points="985.666,-675 985.666,-716 1146.67,-716 1146.67,-675 985.666,-675"/>
<text text-anchor="start" x="993.666" y="-704" font-family="Helvetica,sans-Serif" font-size="10.00">/home/alejandro/Desarrollo</text>
<text text-anchor="start" x="993.666" y="-693" font-family="Helvetica,sans-Serif" font-size="10.00"> eclipse/os1/Thirdparty</text>
<text text-anchor="middle" x="1066.17" y="-682" font-family="Helvetica,sans-Serif" font-size="10.00">/g2o/g2o/core/base_multi_edge.h</text>
</a>
</g>
</g>
<!-- Node3&#45;&gt;Node32 -->
<g id="edge59" class="edge"><title>Node3&#45;&gt;Node32</title>
<path fill="none" stroke="midnightblue" d="M1121.04,-751.038C1109.54,-739.604 1096.38,-726.529 1085.83,-716.047"/>
<polygon fill="midnightblue" stroke="midnightblue" points="1118.76,-753.704 1128.32,-758.271 1123.69,-748.739 1118.76,-753.704"/>
</g>
<!-- Node33 -->
<g id="node31" class="node"><title>Node33</title>
<g id="a_node31"><a xlink:href="optimizable__graph_8cpp.html" target="_top" xlink:title="/home/alejandro/Desarrollo\l eclipse/os1/Thirdparty\l/g2o/g2o/core/optimizable\l_graph.cpp">
<polygon fill="white" stroke="black" points="1164.67,-669.5 1164.67,-721.5 1297.67,-721.5 1297.67,-669.5 1164.67,-669.5"/>
<text text-anchor="start" x="1172.67" y="-709.5" font-family="Helvetica,sans-Serif" font-size="10.00">/home/alejandro/Desarrollo</text>
<text text-anchor="start" x="1172.67" y="-698.5" font-family="Helvetica,sans-Serif" font-size="10.00"> eclipse/os1/Thirdparty</text>
<text text-anchor="start" x="1172.67" y="-687.5" font-family="Helvetica,sans-Serif" font-size="10.00">/g2o/g2o/core/optimizable</text>
<text text-anchor="middle" x="1231.17" y="-676.5" font-family="Helvetica,sans-Serif" font-size="10.00">_graph.cpp</text>
</a>
</g>
</g>
<!-- Node3&#45;&gt;Node33 -->
<g id="edge60" class="edge"><title>Node3&#45;&gt;Node33</title>
<path fill="none" stroke="midnightblue" d="M1175.41,-751.245C1185.13,-741.706 1196.03,-731.003 1205.6,-721.607"/>
<polygon fill="midnightblue" stroke="midnightblue" points="1172.94,-748.767 1168.26,-758.271 1177.85,-753.762 1172.94,-748.767"/>
</g>
<!-- Node34 -->
<g id="node32" class="node"><title>Node34</title>
<g id="a_node32"><a xlink:href="robust__kernel_8cpp.html" target="_top" xlink:title="/home/alejandro/Desarrollo\l eclipse/os1/Thirdparty\l/g2o/g2o/core/robust_kernel.cpp">
<polygon fill="white" stroke="black" points="1316.17,-675 1316.17,-716 1472.17,-716 1472.17,-675 1316.17,-675"/>
<text text-anchor="start" x="1324.17" y="-704" font-family="Helvetica,sans-Serif" font-size="10.00">/home/alejandro/Desarrollo</text>
<text text-anchor="start" x="1324.17" y="-693" font-family="Helvetica,sans-Serif" font-size="10.00"> eclipse/os1/Thirdparty</text>
<text text-anchor="middle" x="1394.17" y="-682" font-family="Helvetica,sans-Serif" font-size="10.00">/g2o/g2o/core/robust_kernel.cpp</text>
</a>
</g>
</g>
<!-- Node3&#45;&gt;Node34 -->
<g id="edge61" class="edge"><title>Node3&#45;&gt;Node34</title>
<path fill="none" stroke="midnightblue" d="M1216.86,-755.24C1254.12,-742.898 1299.69,-727.801 1335.3,-716.003"/>
<polygon fill="midnightblue" stroke="midnightblue" points="1215.48,-752.011 1207.09,-758.479 1217.68,-758.656 1215.48,-752.011"/>
</g>
<!-- Node35 -->
<g id="node33" class="node"><title>Node35</title>
<g id="a_node33"><a xlink:href="robust__kernel__factory_8cpp.html" target="_top" xlink:title="/home/alejandro/Desarrollo\l eclipse/os1/Thirdparty\l/g2o/g2o/core/robust_kernel\l_factory.cpp">
<polygon fill="white" stroke="black" points="1490.67,-669.5 1490.67,-721.5 1627.67,-721.5 1627.67,-669.5 1490.67,-669.5"/>
<text text-anchor="start" x="1498.67" y="-709.5" font-family="Helvetica,sans-Serif" font-size="10.00">/home/alejandro/Desarrollo</text>
<text text-anchor="start" x="1498.67" y="-698.5" font-family="Helvetica,sans-Serif" font-size="10.00"> eclipse/os1/Thirdparty</text>
<text text-anchor="start" x="1498.67" y="-687.5" font-family="Helvetica,sans-Serif" font-size="10.00">/g2o/g2o/core/robust_kernel</text>
<text text-anchor="middle" x="1559.17" y="-676.5" font-family="Helvetica,sans-Serif" font-size="10.00">_factory.cpp</text>
</a>
</g>
</g>
<!-- Node3&#45;&gt;Node35 -->
<g id="edge62" class="edge"><title>Node3&#45;&gt;Node35</title>
<path fill="none" stroke="midnightblue" d="M1231.43,-767.516C1299.22,-758.141 1397.1,-742.686 1481.17,-722 1484.21,-721.251 1487.31,-720.442 1490.42,-719.59"/>
<polygon fill="midnightblue" stroke="midnightblue" points="1230.67,-764.088 1221.24,-768.912 1231.62,-771.023 1230.67,-764.088"/>
</g>
<!-- Node36 -->
<g id="node34" class="node"><title>Node36</title>
<g id="a_node34"><a xlink:href="sparse__optimizer_8cpp.html" target="_top" xlink:title="/home/alejandro/Desarrollo\l eclipse/os1/Thirdparty\l/g2o/g2o/core/sparse_optimizer.cpp">
<polygon fill="white" stroke="black" points="1646.17,-675 1646.17,-716 1818.17,-716 1818.17,-675 1646.17,-675"/>
<text text-anchor="start" x="1654.17" y="-704" font-family="Helvetica,sans-Serif" font-size="10.00">/home/alejandro/Desarrollo</text>
<text text-anchor="start" x="1654.17" y="-693" font-family="Helvetica,sans-Serif" font-size="10.00"> eclipse/os1/Thirdparty</text>
<text text-anchor="middle" x="1732.17" y="-682" font-family="Helvetica,sans-Serif" font-size="10.00">/g2o/g2o/core/sparse_optimizer.cpp</text>
</a>
</g>
</g>
<!-- Node3&#45;&gt;Node36 -->
<g id="edge63" class="edge"><title>Node3&#45;&gt;Node36</title>
<path fill="none" stroke="midnightblue" d="M1231.28,-772.255C1329.03,-764.631 1495.9,-748.896 1637.17,-722 1645.97,-720.323 1655.16,-718.262 1664.21,-716.044"/>
<polygon fill="midnightblue" stroke="midnightblue" points="1230.87,-768.777 1221.17,-773.035 1231.41,-775.756 1230.87,-768.777"/>
</g>
<!-- Node5 -->
<g id="node3" class="node"><title>Node5</title>
<g id="a_node3"><a xlink:href="types__six__dof__expmap_8h.html" target="_top" xlink:title="/home/alejandro/Desarrollo\l eclipse/os1/Thirdparty\l/g2o/g2o/types/types_six\l_dof_expmap.h">
<polygon fill="white" stroke="black" points="451.666,-580.5 451.666,-632.5 584.666,-632.5 584.666,-580.5 451.666,-580.5"/>
<text text-anchor="start" x="459.666" y="-620.5" font-family="Helvetica,sans-Serif" font-size="10.00">/home/alejandro/Desarrollo</text>
<text text-anchor="start" x="459.666" y="-609.5" font-family="Helvetica,sans-Serif" font-size="10.00"> eclipse/os1/Thirdparty</text>
<text text-anchor="start" x="459.666" y="-598.5" font-family="Helvetica,sans-Serif" font-size="10.00">/g2o/g2o/types/types_six</text>
<text text-anchor="middle" x="518.166" y="-587.5" font-family="Helvetica,sans-Serif" font-size="10.00">_dof_expmap.h</text>
</a>
</g>
</g>
<!-- Node4&#45;&gt;Node5 -->
<g id="edge2" class="edge"><title>Node4&#45;&gt;Node5</title>
<path fill="none" stroke="midnightblue" d="M647.953,-670.58C623.667,-658.777 594.38,-644.542 569.777,-632.585"/>
<polygon fill="midnightblue" stroke="midnightblue" points="646.471,-673.752 656.995,-674.976 649.531,-667.456 646.471,-673.752"/>
</g>
<!-- Node14 -->
<g id="node12" class="node"><title>Node14</title>
<g id="a_node12"><a xlink:href="types__seven__dof__expmap_8h.html" target="_top" xlink:title="/home/alejandro/Desarrollo\l eclipse/os1/Thirdparty\l/g2o/g2o/types/types_seven\l_dof_expmap.h">
<polygon fill="white" stroke="black" points="627.166,-491.5 627.166,-543.5 767.166,-543.5 767.166,-491.5 627.166,-491.5"/>
<text text-anchor="start" x="635.166" y="-531.5" font-family="Helvetica,sans-Serif" font-size="10.00">/home/alejandro/Desarrollo</text>
<text text-anchor="start" x="635.166" y="-520.5" font-family="Helvetica,sans-Serif" font-size="10.00"> eclipse/os1/Thirdparty</text>
<text text-anchor="start" x="635.166" y="-509.5" font-family="Helvetica,sans-Serif" font-size="10.00">/g2o/g2o/types/types_seven</text>
<text text-anchor="middle" x="697.166" y="-498.5" font-family="Helvetica,sans-Serif" font-size="10.00">_dof_expmap.h</text>
</a>
</g>
</g>
<!-- Node4&#45;&gt;Node14 -->
<g id="edge53" class="edge"><title>Node4&#45;&gt;Node14</title>
<path fill="none" stroke="midnightblue" d="M697.166,-664.754C697.166,-630.771 697.166,-575.746 697.166,-543.76"/>
<polygon fill="midnightblue" stroke="midnightblue" points="693.667,-664.992 697.166,-674.992 700.667,-664.992 693.667,-664.992"/>
</g>
<!-- Node6 -->
<g id="node4" class="node"><title>Node6</title>
<g id="a_node4"><a xlink:href="_converter_8h.html" target="_top" xlink:title="/home/alejandro/Desarrollo\l eclipse/os1/include/Converter.h">
<polygon fill="white" stroke="black" points="353.666,-335.5 353.666,-365.5 510.666,-365.5 510.666,-335.5 353.666,-335.5"/>
<text text-anchor="start" x="361.666" y="-353.5" font-family="Helvetica,sans-Serif" font-size="10.00">/home/alejandro/Desarrollo</text>
<text text-anchor="middle" x="432.166" y="-342.5" font-family="Helvetica,sans-Serif" font-size="10.00"> eclipse/os1/include/Converter.h</text>
</a>
</g>
</g>
<!-- Node5&#45;&gt;Node6 -->
<g id="edge3" class="edge"><title>Node5&#45;&gt;Node6</title>
<path fill="none" stroke="midnightblue" d="M507.224,-570.862C499.976,-548.113 490.178,-517.728 481.166,-491 465.667,-445.027 446.346,-390.9 437.294,-365.717"/>
<polygon fill="midnightblue" stroke="midnightblue" points="503.899,-571.954 510.264,-580.424 510.57,-569.833 503.899,-571.954"/>
</g>
<!-- Node11 -->
<g id="node9" class="node"><title>Node11</title>
<g id="a_node9"><a xlink:href="_optimizer_8cc.html" target="_top" xlink:title="/home/alejandro/Desarrollo\l eclipse/os1/src/Optimizer.cc">
<polygon fill="white" stroke="black" points="548.166,-268.5 548.166,-298.5 692.166,-298.5 692.166,-268.5 548.166,-268.5"/>
<text text-anchor="start" x="556.166" y="-286.5" font-family="Helvetica,sans-Serif" font-size="10.00">/home/alejandro/Desarrollo</text>
<text text-anchor="middle" x="620.166" y="-275.5" font-family="Helvetica,sans-Serif" font-size="10.00"> eclipse/os1/src/Optimizer.cc</text>
</a>
</g>
</g>
<!-- Node5&#45;&gt;Node11 -->
<g id="edge51" class="edge"><title>Node5&#45;&gt;Node11</title>
<path fill="none" stroke="midnightblue" d="M529.247,-570.63C551.473,-500.682 600.659,-345.892 615.706,-298.538"/>
<polygon fill="midnightblue" stroke="midnightblue" points="525.863,-569.721 526.17,-580.312 532.534,-571.841 525.863,-569.721"/>
</g>
<!-- Node5&#45;&gt;Node14 -->
<g id="edge11" class="edge"><title>Node5&#45;&gt;Node14</title>
<path fill="none" stroke="midnightblue" d="M579.033,-575.917C600.642,-565.414 624.741,-553.701 645.509,-543.607"/>
<polygon fill="midnightblue" stroke="midnightblue" points="577.405,-572.817 569.941,-580.336 580.465,-579.112 577.405,-572.817"/>
</g>
<!-- Node28 -->
<g id="node26" class="node"><title>Node28</title>
<g id="a_node26"><a xlink:href="types__six__dof__expmap_8cpp.html" target="_top" xlink:title="/home/alejandro/Desarrollo\l eclipse/os1/Thirdparty\l/g2o/g2o/types/types_six\l_dof_expmap.cpp">
<polygon fill="white" stroke="black" points="339.666,-491.5 339.666,-543.5 472.666,-543.5 472.666,-491.5 339.666,-491.5"/>
<text text-anchor="start" x="347.666" y="-531.5" font-family="Helvetica,sans-Serif" font-size="10.00">/home/alejandro/Desarrollo</text>
<text text-anchor="start" x="347.666" y="-520.5" font-family="Helvetica,sans-Serif" font-size="10.00"> eclipse/os1/Thirdparty</text>
<text text-anchor="start" x="347.666" y="-509.5" font-family="Helvetica,sans-Serif" font-size="10.00">/g2o/g2o/types/types_six</text>
<text text-anchor="middle" x="406.166" y="-498.5" font-family="Helvetica,sans-Serif" font-size="10.00">_dof_expmap.cpp</text>
</a>
</g>
</g>
<!-- Node5&#45;&gt;Node28 -->
<g id="edge52" class="edge"><title>Node5&#45;&gt;Node28</title>
<path fill="none" stroke="midnightblue" d="M477.53,-573.934C464.685,-563.956 450.671,-553.07 438.489,-543.607"/>
<polygon fill="midnightblue" stroke="midnightblue" points="475.727,-576.966 485.771,-580.336 480.021,-571.437 475.727,-576.966"/>
</g>
<!-- Node7 -->
<g id="node5" class="node"><title>Node7</title>
<g id="a_node5"><a xlink:href="_converter_8cc.html" target="_top" xlink:title="/home/alejandro/Desarrollo\l eclipse/os1/src/Converter.cc">
<polygon fill="white" stroke="black" points="30.6664,-268.5 30.6664,-298.5 175.666,-298.5 175.666,-268.5 30.6664,-268.5"/>
<text text-anchor="start" x="38.6664" y="-286.5" font-family="Helvetica,sans-Serif" font-size="10.00">/home/alejandro/Desarrollo</text>
<text text-anchor="middle" x="103.166" y="-275.5" font-family="Helvetica,sans-Serif" font-size="10.00"> eclipse/os1/src/Converter.cc</text>
</a>
</g>
</g>
<!-- Node6&#45;&gt;Node7 -->
<g id="edge4" class="edge"><title>Node6&#45;&gt;Node7</title>
<path fill="none" stroke="midnightblue" d="M351.262,-333.516C297.057,-322.807 226.359,-308.839 174.306,-298.555"/>
<polygon fill="midnightblue" stroke="midnightblue" points="350.695,-336.971 361.183,-335.476 352.051,-330.104 350.695,-336.971"/>
</g>
<!-- Node8 -->
<g id="node6" class="node"><title>Node8</title>
<g id="a_node6"><a xlink:href="_frame_8cc.html" target="_top" xlink:title="/home/alejandro/Desarrollo\l eclipse/os1/src/Frame.cc">
<polygon fill="white" stroke="black" points="193.666,-268.5 193.666,-298.5 326.666,-298.5 326.666,-268.5 193.666,-268.5"/>
<text text-anchor="start" x="201.666" y="-286.5" font-family="Helvetica,sans-Serif" font-size="10.00">/home/alejandro/Desarrollo</text>
<text text-anchor="middle" x="260.166" y="-275.5" font-family="Helvetica,sans-Serif" font-size="10.00"> eclipse/os1/src/Frame.cc</text>
</a>
</g>
</g>
<!-- Node6&#45;&gt;Node8 -->
<g id="edge5" class="edge"><title>Node6&#45;&gt;Node8</title>
<path fill="none" stroke="midnightblue" d="M385.379,-331.819C357.732,-321.371 323.206,-308.323 297.415,-298.577"/>
<polygon fill="midnightblue" stroke="midnightblue" points="384.253,-335.135 394.845,-335.396 386.728,-328.587 384.253,-335.135"/>
</g>
<!-- Node9 -->
<g id="node7" class="node"><title>Node9</title>
<g id="a_node7"><a xlink:href="_key_frame_8cc.html" target="_top" xlink:title="/home/alejandro/Desarrollo\l eclipse/os1/src/KeyFrame.cc">
<polygon fill="white" stroke="black" points="344.666,-268.5 344.666,-298.5 491.666,-298.5 491.666,-268.5 344.666,-268.5"/>
<text text-anchor="start" x="352.666" y="-286.5" font-family="Helvetica,sans-Serif" font-size="10.00">/home/alejandro/Desarrollo</text>
<text text-anchor="middle" x="418.166" y="-275.5" font-family="Helvetica,sans-Serif" font-size="10.00"> eclipse/os1/src/KeyFrame.cc</text>
</a>
</g>
</g>
<!-- Node6&#45;&gt;Node9 -->
<g id="edge6" class="edge"><title>Node6&#45;&gt;Node9</title>
<path fill="none" stroke="midnightblue" d="M426.976,-325.403C425.031,-316.37 422.885,-306.408 421.198,-298.577"/>
<polygon fill="midnightblue" stroke="midnightblue" points="423.601,-326.357 429.129,-335.396 430.445,-324.883 423.601,-326.357"/>
</g>
<!-- Node10 -->
<g id="node8" class="node"><title>Node10</title>
<g id="a_node8"><a xlink:href="_loop_closing_8cc.html" target="_top" xlink:title="/home/alejandro/Desarrollo\l eclipse/os1/src/LoopClosing.cc">
<polygon fill="white" stroke="black" points="710.166,-268.5 710.166,-298.5 866.166,-298.5 866.166,-268.5 710.166,-268.5"/>
<text text-anchor="start" x="718.166" y="-286.5" font-family="Helvetica,sans-Serif" font-size="10.00">/home/alejandro/Desarrollo</text>
<text text-anchor="middle" x="788.166" y="-275.5" font-family="Helvetica,sans-Serif" font-size="10.00"> eclipse/os1/src/LoopClosing.cc</text>
</a>
</g>
</g>
<!-- Node6&#45;&gt;Node10 -->
<g id="edge7" class="edge"><title>Node6&#45;&gt;Node10</title>
<path fill="none" stroke="midnightblue" d="M518.981,-333.649C577.728,-322.923 654.63,-308.882 711.189,-298.555"/>
<polygon fill="midnightblue" stroke="midnightblue" points="518.184,-330.237 508.975,-335.476 519.441,-337.123 518.184,-330.237"/>
</g>
<!-- Node6&#45;&gt;Node11 -->
<g id="edge8" class="edge"><title>Node6&#45;&gt;Node11</title>
<path fill="none" stroke="midnightblue" d="M482.517,-332.092C512.865,-321.599 551.017,-308.408 579.453,-298.577"/>
<polygon fill="midnightblue" stroke="midnightblue" points="481.267,-328.82 472.96,-335.396 483.554,-335.436 481.267,-328.82"/>
</g>
<!-- Node12 -->
<g id="node10" class="node"><title>Node12</title>
<g id="a_node10"><a xlink:href="_system_8cc.html" target="_top" xlink:title="/home/alejandro/Desarrollo\l eclipse/os1/src/System.cc">
<polygon fill="white" stroke="black" points="591.166,-201.5 591.166,-231.5 727.166,-231.5 727.166,-201.5 591.166,-201.5"/>
<text text-anchor="start" x="599.166" y="-219.5" font-family="Helvetica,sans-Serif" font-size="10.00">/home/alejandro/Desarrollo</text>
<text text-anchor="middle" x="659.166" y="-208.5" font-family="Helvetica,sans-Serif" font-size="10.00"> eclipse/os1/src/System.cc</text>
</a>
</g>
</g>
<!-- Node6&#45;&gt;Node12 -->
<g id="edge9" class="edge"><title>Node6&#45;&gt;Node12</title>
<path fill="none" stroke="midnightblue" d="M459.803,-329.294C472.214,-320.138 486.998,-309.119 500.166,-299 517.724,-285.509 520.118,-279.288 539.166,-268 564.153,-253.192 594.29,-240.526 618.112,-231.583"/>
<polygon fill="midnightblue" stroke="midnightblue" points="457.619,-326.556 451.638,-335.301 461.767,-332.194 457.619,-326.556"/>
</g>
<!-- Node13 -->
<g id="node11" class="node"><title>Node13</title>
<g id="a_node11"><a xlink:href="_tracking_8cc.html" target="_top" xlink:title="/home/alejandro/Desarrollo\l eclipse/os1/src/Tracking.cc">
<polygon fill="white" stroke="black" points="959.166,-0.5 959.166,-30.5 1099.17,-30.5 1099.17,-0.5 959.166,-0.5"/>
<text text-anchor="start" x="967.166" y="-18.5" font-family="Helvetica,sans-Serif" font-size="10.00">/home/alejandro/Desarrollo</text>
<text text-anchor="middle" x="1029.17" y="-7.5" font-family="Helvetica,sans-Serif" font-size="10.00"> eclipse/os1/src/Tracking.cc</text>
</a>
</g>
</g>
<!-- Node6&#45;&gt;Node13 -->
<g id="edge10" class="edge"><title>Node6&#45;&gt;Node13</title>
<path fill="none" stroke="midnightblue" d="M343.221,-350.103C236.786,-348.91 67.1422,-340.311 21.1664,-299 -6.49934,-274.141 2.16645,-254.694 2.16645,-217.5 2.16645,-217.5 2.16645,-217.5 2.16645,-148.5 2.16645,-51.82 727.391,-24.4137 958.981,-18.1267"/>
<polygon fill="midnightblue" stroke="midnightblue" points="343.286,-353.603 353.317,-350.196 343.35,-346.604 343.286,-353.603"/>
</g>
<!-- Node14&#45;&gt;Node6 -->
<g id="edge12" class="edge"><title>Node14&#45;&gt;Node6</title>
<path fill="none" stroke="midnightblue" d="M649.004,-485.926C612.388,-462.748 560.719,-430.185 515.166,-402 495.085,-389.575 472.145,-375.637 455.478,-365.556"/>
<polygon fill="midnightblue" stroke="midnightblue" points="647.188,-488.919 657.509,-491.312 650.934,-483.005 647.188,-488.919"/>
</g>
<!-- Node14&#45;&gt;Node11 -->
<g id="edge49" class="edge"><title>Node14&#45;&gt;Node11</title>
<path fill="none" stroke="midnightblue" d="M655.296,-484.079C646.941,-475.545 639.199,-465.697 634.166,-455 609.135,-401.787 614.449,-328.894 618.142,-298.596"/>
<polygon fill="midnightblue" stroke="midnightblue" points="653.106,-486.828 662.743,-491.229 657.954,-481.779 653.106,-486.828"/>
</g>
<!-- Node15 -->
<g id="node13" class="node"><title>Node15</title>
<g id="a_node13"><a xlink:href="_loop_closing_8h.html" target="_top" xlink:title="/home/alejandro/Desarrollo\l eclipse/os1/include/LoopClosing.h">
<polygon fill="white" stroke="black" points="1137.17,-413.5 1137.17,-443.5 1305.17,-443.5 1305.17,-413.5 1137.17,-413.5"/>
<text text-anchor="start" x="1145.17" y="-431.5" font-family="Helvetica,sans-Serif" font-size="10.00">/home/alejandro/Desarrollo</text>
<text text-anchor="middle" x="1221.17" y="-420.5" font-family="Helvetica,sans-Serif" font-size="10.00"> eclipse/os1/include/LoopClosing.h</text>
</a>
</g>
</g>
<!-- Node14&#45;&gt;Node15 -->
<g id="edge13" class="edge"><title>Node14&#45;&gt;Node15</title>
<path fill="none" stroke="midnightblue" d="M777.359,-503.186C874.569,-487.046 1037.64,-459.971 1136.73,-443.52"/>
<polygon fill="midnightblue" stroke="midnightblue" points="776.583,-499.766 767.292,-504.857 777.73,-506.672 776.583,-499.766"/>
</g>
<!-- Node25 -->
<g id="node23" class="node"><title>Node25</title>
<g id="a_node23"><a xlink:href="_optimizer_8h.html" target="_top" xlink:title="/home/alejandro/Desarrollo\l eclipse/os1/include/Optimizer.h">
<polygon fill="white" stroke="black" points="915.166,-335.5 915.166,-365.5 1071.17,-365.5 1071.17,-335.5 915.166,-335.5"/>
<text text-anchor="start" x="923.166" y="-353.5" font-family="Helvetica,sans-Serif" font-size="10.00">/home/alejandro/Desarrollo</text>
<text text-anchor="middle" x="993.166" y="-342.5" font-family="Helvetica,sans-Serif" font-size="10.00"> eclipse/os1/include/Optimizer.h</text>
</a>
</g>
</g>
<!-- Node14&#45;&gt;Node25 -->
<g id="edge48" class="edge"><title>Node14&#45;&gt;Node25</title>
<path fill="none" stroke="midnightblue" d="M750.913,-486.54C815.191,-450.709 920.091,-392.234 967.942,-365.561"/>
<polygon fill="midnightblue" stroke="midnightblue" points="749.153,-483.514 742.122,-491.44 752.561,-489.628 749.153,-483.514"/>
</g>
<!-- Node27 -->
<g id="node25" class="node"><title>Node27</title>
<g id="a_node25"><a xlink:href="types__seven__dof__expmap_8cpp.html" target="_top" xlink:title="/home/alejandro/Desarrollo\l eclipse/os1/Thirdparty\l/g2o/g2o/types/types_seven\l_dof_expmap.cpp">
<polygon fill="white" stroke="black" points="643.166,-402.5 643.166,-454.5 783.166,-454.5 783.166,-402.5 643.166,-402.5"/>
<text text-anchor="start" x="651.166" y="-442.5" font-family="Helvetica,sans-Serif" font-size="10.00">/home/alejandro/Desarrollo</text>
<text text-anchor="start" x="651.166" y="-431.5" font-family="Helvetica,sans-Serif" font-size="10.00"> eclipse/os1/Thirdparty</text>
<text text-anchor="start" x="651.166" y="-420.5" font-family="Helvetica,sans-Serif" font-size="10.00">/g2o/g2o/types/types_seven</text>
<text text-anchor="middle" x="713.166" y="-409.5" font-family="Helvetica,sans-Serif" font-size="10.00">_dof_expmap.cpp</text>
</a>
</g>
</g>
<!-- Node14&#45;&gt;Node27 -->
<g id="edge50" class="edge"><title>Node14&#45;&gt;Node27</title>
<path fill="none" stroke="midnightblue" d="M703.607,-481.481C705.261,-472.487 707.008,-462.989 708.549,-454.607"/>
<polygon fill="midnightblue" stroke="midnightblue" points="700.161,-480.868 701.794,-491.336 707.045,-482.134 700.161,-480.868"/>
</g>
<!-- Node15&#45;&gt;Node10 -->
<g id="edge47" class="edge"><title>Node15&#45;&gt;Node10</title>
<path fill="none" stroke="midnightblue" d="M1126.88,-419.804C1062.59,-412.016 976.662,-396.533 906.166,-366 884.547,-356.636 882.496,-348.47 863.166,-335 845.265,-322.525 824.692,-308.709 809.627,-298.686"/>
<polygon fill="midnightblue" stroke="midnightblue" points="1126.67,-423.303 1137.01,-420.989 1127.49,-416.35 1126.67,-423.303"/>
</g>
<!-- Node16 -->
<g id="node14" class="node"><title>Node16</title>
<g id="a_node14"><a xlink:href="_local_mapping_8h.html" target="_top" xlink:title="/home/alejandro/Desarrollo\l eclipse/os1/include/LocalMapping.h">
<polygon fill="white" stroke="black" points="1249.17,-335.5 1249.17,-365.5 1423.17,-365.5 1423.17,-335.5 1249.17,-335.5"/>
<text text-anchor="start" x="1257.17" y="-353.5" font-family="Helvetica,sans-Serif" font-size="10.00">/home/alejandro/Desarrollo</text>
<text text-anchor="middle" x="1336.17" y="-342.5" font-family="Helvetica,sans-Serif" font-size="10.00"> eclipse/os1/include/LocalMapping.h</text>
</a>
</g>
</g>
<!-- Node15&#45;&gt;Node16 -->
<g id="edge14" class="edge"><title>Node15&#45;&gt;Node16</title>
<path fill="none" stroke="midnightblue" d="M1245.7,-407.289C1264.41,-394.187 1289.96,-377.443 1309.23,-365.731"/>
<polygon fill="midnightblue" stroke="midnightblue" points="1243.51,-404.557 1237.39,-413.205 1247.56,-410.262 1243.51,-404.557"/>
</g>
<!-- Node17 -->
<g id="node15" class="node"><title>Node17</title>
<g id="a_node15"><a xlink:href="_system_8h.html" target="_top" xlink:title="/home/alejandro/Desarrollo\l eclipse/os1/include/System.h">
<polygon fill="white" stroke="black" points="1262.17,-268.5 1262.17,-298.5 1410.17,-298.5 1410.17,-268.5 1262.17,-268.5"/>
<text text-anchor="start" x="1270.17" y="-286.5" font-family="Helvetica,sans-Serif" font-size="10.00">/home/alejandro/Desarrollo</text>
<text text-anchor="middle" x="1336.17" y="-275.5" font-family="Helvetica,sans-Serif" font-size="10.00"> eclipse/os1/include/System.h</text>
</a>
</g>
</g>
<!-- Node15&#45;&gt;Node17 -->
<g id="edge38" class="edge"><title>Node15&#45;&gt;Node17</title>
<path fill="none" stroke="midnightblue" d="M1220.64,-403.243C1221.4,-383.107 1225.37,-354.682 1240.17,-335 1252.73,-318.29 1272.44,-306.577 1290.75,-298.669"/>
<polygon fill="midnightblue" stroke="midnightblue" points="1217.14,-403.421 1220.5,-413.468 1224.14,-403.516 1217.14,-403.421"/>
</g>
<!-- Node19 -->
<g id="node17" class="node"><title>Node19</title>
<g id="a_node17"><a xlink:href="_tracking_8h.html" target="_top" xlink:title="/home/alejandro/Desarrollo\l eclipse/os1/include/Tracking.h">
<polygon fill="white" stroke="black" points="1315.17,-134.5 1315.17,-164.5 1467.17,-164.5 1467.17,-134.5 1315.17,-134.5"/>
<text text-anchor="start" x="1323.17" y="-152.5" font-family="Helvetica,sans-Serif" font-size="10.00">/home/alejandro/Desarrollo</text>
<text text-anchor="middle" x="1391.17" y="-141.5" font-family="Helvetica,sans-Serif" font-size="10.00"> eclipse/os1/include/Tracking.h</text>
</a>
</g>
</g>
<!-- Node15&#45;&gt;Node19 -->
<g id="edge39" class="edge"><title>Node15&#45;&gt;Node19</title>
<path fill="none" stroke="midnightblue" d="M1315.44,-419.797C1353.72,-411.746 1395.33,-396.08 1423.17,-366 1473.1,-312.03 1465.13,-268.146 1435.17,-201 1428.54,-186.144 1415.29,-173.519 1404.82,-164.608"/>
<polygon fill="midnightblue" stroke="midnightblue" points="1314.42,-416.43 1305.28,-421.778 1315.76,-423.301 1314.42,-416.43"/>
</g>
<!-- Node24 -->
<g id="node22" class="node"><title>Node24</title>
<g id="a_node22"><a xlink:href="_local_mapping_8cc.html" target="_top" xlink:title="/home/alejandro/Desarrollo\l eclipse/os1/src/LocalMapping.cc">
<polygon fill="white" stroke="black" points="1082.17,-268.5 1082.17,-298.5 1244.17,-298.5 1244.17,-268.5 1082.17,-268.5"/>
<text text-anchor="start" x="1090.17" y="-286.5" font-family="Helvetica,sans-Serif" font-size="10.00">/home/alejandro/Desarrollo</text>
<text text-anchor="middle" x="1163.17" y="-275.5" font-family="Helvetica,sans-Serif" font-size="10.00"> eclipse/os1/src/LocalMapping.cc</text>
</a>
</g>
</g>
<!-- Node15&#45;&gt;Node24 -->
<g id="edge46" class="edge"><title>Node15&#45;&gt;Node24</title>
<path fill="none" stroke="midnightblue" d="M1211.63,-403.979C1199.48,-374.041 1178.89,-323.262 1168.92,-298.677"/>
<polygon fill="midnightblue" stroke="midnightblue" points="1208.39,-405.315 1215.39,-413.266 1214.88,-402.684 1208.39,-405.315"/>
</g>
<!-- Node15&#45;&gt;Node25 -->
<g id="edge40" class="edge"><title>Node15&#45;&gt;Node25</title>
<path fill="none" stroke="midnightblue" d="M1169.39,-410.24C1128.87,-396.734 1073.24,-378.19 1035.39,-365.575"/>
<polygon fill="midnightblue" stroke="midnightblue" points="1168.49,-413.63 1179.08,-413.472 1170.7,-406.989 1168.49,-413.63"/>
</g>
<!-- Node16&#45;&gt;Node15 -->
<g id="edge35" class="edge"><title>Node16&#45;&gt;Node15</title>
<path fill="none" stroke="midnightblue" d="M1311.95,-371.484C1293.16,-384.661 1267.32,-401.599 1247.92,-413.383"/>
<polygon fill="midnightblue" stroke="midnightblue" points="1314.18,-374.193 1320.3,-365.541 1310.12,-368.491 1314.18,-374.193"/>
</g>
<!-- Node16&#45;&gt;Node17 -->
<g id="edge15" class="edge"><title>Node16&#45;&gt;Node17</title>
<path fill="none" stroke="midnightblue" d="M1336.17,-325.108C1336.17,-316.154 1336.17,-306.323 1336.17,-298.577"/>
<polygon fill="midnightblue" stroke="midnightblue" points="1332.67,-325.396 1336.17,-335.396 1339.67,-325.396 1332.67,-325.396"/>
</g>
<!-- Node16&#45;&gt;Node19 -->
<g id="edge36" class="edge"><title>Node16&#45;&gt;Node19</title>
<path fill="none" stroke="midnightblue" d="M1376.85,-330.486C1389.76,-322.812 1402.58,-312.5 1410.17,-299 1435.11,-254.632 1406.17,-192.229 1394.6,-164.605"/>
<polygon fill="midnightblue" stroke="midnightblue" points="1375.03,-327.493 1367.96,-335.385 1378.41,-333.623 1375.03,-327.493"/>
</g>
<!-- Node16&#45;&gt;Node24 -->
<g id="edge37" class="edge"><title>Node16&#45;&gt;Node24</title>
<path fill="none" stroke="midnightblue" d="M1289.11,-331.819C1261.3,-321.371 1226.57,-308.323 1200.63,-298.577"/>
<polygon fill="midnightblue" stroke="midnightblue" points="1288.04,-335.155 1298.63,-335.396 1290.5,-328.602 1288.04,-335.155"/>
</g>
<!-- Node17&#45;&gt;Node12 -->
<g id="edge34" class="edge"><title>Node17&#45;&gt;Node12</title>
<path fill="none" stroke="midnightblue" d="M1251.81,-267.897C1055.87,-242.9 836.353,-227.905 727.525,-221.347"/>
<polygon fill="midnightblue" stroke="midnightblue" points="1251.64,-271.405 1262,-269.21 1252.53,-264.462 1251.64,-271.405"/>
</g>
<!-- Node18 -->
<g id="node16" class="node"><title>Node18</title>
<g id="a_node16"><a xlink:href="_viewer_8h.html" target="_top" xlink:title="/home/alejandro/Desarrollo\l eclipse/os1/include/Viewer.h">
<polygon fill="white" stroke="black" points="1210.17,-201.5 1210.17,-231.5 1354.17,-231.5 1354.17,-201.5 1210.17,-201.5"/>
<text text-anchor="start" x="1218.17" y="-219.5" font-family="Helvetica,sans-Serif" font-size="10.00">/home/alejandro/Desarrollo</text>
<text text-anchor="middle" x="1282.17" y="-208.5" font-family="Helvetica,sans-Serif" font-size="10.00"> eclipse/os1/include/Viewer.h</text>
</a>
</g>
</g>
<!-- Node17&#45;&gt;Node18 -->
<g id="edge16" class="edge"><title>Node17&#45;&gt;Node18</title>
<path fill="none" stroke="midnightblue" d="M1311.93,-261.024C1303.24,-251.34 1294.2,-240.174 1288.19,-231.577"/>
<polygon fill="midnightblue" stroke="midnightblue" points="1309.4,-263.445 1318.77,-268.396 1314.54,-258.684 1309.4,-263.445"/>
</g>
<!-- Node17&#45;&gt;Node19 -->
<g id="edge32" class="edge"><title>Node17&#45;&gt;Node19</title>
<path fill="none" stroke="midnightblue" d="M1341.24,-259.044C1345.29,-250.656 1350.23,-241.04 1354.17,-232 1364.21,-208.958 1373.13,-181.06 1380.62,-164.602"/>
<polygon fill="midnightblue" stroke="midnightblue" points="1338.01,-257.673 1337,-268.22 1344.37,-260.605 1338.01,-257.673"/>
</g>
<!-- Node23 -->
<g id="node21" class="node"><title>Node23</title>
<g id="a_node21"><a xlink:href="main_8cc.html" target="_top" xlink:title="/home/alejandro/Desarrollo\l eclipse/os1/src/main.cc">
<polygon fill="white" stroke="black" points="1058.67,-201.5 1058.67,-231.5 1191.67,-231.5 1191.67,-201.5 1058.67,-201.5"/>
<text text-anchor="start" x="1066.67" y="-219.5" font-family="Helvetica,sans-Serif" font-size="10.00">/home/alejandro/Desarrollo</text>
<text text-anchor="middle" x="1125.17" y="-208.5" font-family="Helvetica,sans-Serif" font-size="10.00"> eclipse/os1/src/main.cc</text>
</a>
</g>
</g>
<!-- Node17&#45;&gt;Node23 -->
<g id="edge33" class="edge"><title>Node17&#45;&gt;Node23</title>
<path fill="none" stroke="midnightblue" d="M1280.8,-265.444C1246.6,-254.908 1203.23,-241.549 1170.97,-231.611"/>
<polygon fill="midnightblue" stroke="midnightblue" points="1280.06,-268.877 1290.64,-268.476 1282.12,-262.187 1280.06,-268.877"/>
</g>
<!-- Node18&#45;&gt;Node17 -->
<g id="edge30" class="edge"><title>Node18&#45;&gt;Node17</title>
<path fill="none" stroke="midnightblue" d="M1306.37,-238.945C1315.07,-248.626 1324.11,-259.793 1330.13,-268.396"/>
<polygon fill="midnightblue" stroke="midnightblue" points="1308.9,-236.526 1299.54,-231.577 1303.77,-241.288 1308.9,-236.526"/>
</g>
<!-- Node18&#45;&gt;Node19 -->
<g id="edge17" class="edge"><title>Node18&#45;&gt;Node19</title>
<path fill="none" stroke="midnightblue" d="M1308.6,-196.015C1324.73,-185.9 1345.26,-173.77 1361.89,-164.577"/>
<polygon fill="midnightblue" stroke="midnightblue" points="1306.7,-193.075 1300.14,-201.396 1310.46,-198.981 1306.7,-193.075"/>
</g>
<!-- Node22 -->
<g id="node20" class="node"><title>Node22</title>
<g id="a_node20"><a xlink:href="_viewer_8cc.html" target="_top" xlink:title="/home/alejandro/Desarrollo\l eclipse/os1/src/Viewer.cc">
<polygon fill="white" stroke="black" points="1120.67,-134.5 1120.67,-164.5 1253.67,-164.5 1253.67,-134.5 1120.67,-134.5"/>
<text text-anchor="start" x="1128.67" y="-152.5" font-family="Helvetica,sans-Serif" font-size="10.00">/home/alejandro/Desarrollo</text>
<text text-anchor="middle" x="1187.17" y="-141.5" font-family="Helvetica,sans-Serif" font-size="10.00"> eclipse/os1/src/Viewer.cc</text>
</a>
</g>
</g>
<!-- Node18&#45;&gt;Node22 -->
<g id="edge31" class="edge"><title>Node18&#45;&gt;Node22</title>
<path fill="none" stroke="midnightblue" d="M1253.28,-195.734C1238.58,-185.676 1221.05,-173.685 1207.74,-164.577"/>
<polygon fill="midnightblue" stroke="midnightblue" points="1251.32,-198.638 1261.55,-201.396 1255.28,-192.861 1251.32,-198.638"/>
</g>
<!-- Node19&#45;&gt;Node13 -->
<g id="edge29" class="edge"><title>Node19&#45;&gt;Node13</title>
<path fill="none" stroke="midnightblue" d="M1386.43,-124.565C1381.43,-105.89 1371.61,-80.8652 1353.17,-67 1314.2,-37.7113 1182.38,-25.0095 1099.37,-19.8095"/>
<polygon fill="midnightblue" stroke="midnightblue" points="1383.06,-125.523 1388.79,-134.434 1389.86,-123.894 1383.06,-125.523"/>
</g>
<!-- Node19&#45;&gt;Node15 -->
<g id="edge26" class="edge"><title>Node19&#45;&gt;Node15</title>
<path fill="none" stroke="midnightblue" d="M1428.62,-170.729C1438.58,-178.944 1447.94,-189.277 1453.17,-201 1483.13,-268.146 1491.1,-312.03 1441.17,-366 1406.96,-402.969 1351.93,-418.165 1305.41,-424.212"/>
<polygon fill="midnightblue" stroke="midnightblue" points="1430.65,-167.873 1420.57,-164.608 1426.41,-173.446 1430.65,-167.873"/>
</g>
<!-- Node19&#45;&gt;Node16 -->
<g id="edge27" class="edge"><title>Node19&#45;&gt;Node16</title>
<path fill="none" stroke="midnightblue" d="M1410.42,-173.247C1429.12,-203.771 1450.77,-258.792 1428.17,-299 1418.83,-315.615 1401.56,-327.401 1384.41,-335.385"/>
<polygon fill="midnightblue" stroke="midnightblue" points="1413.17,-171.056 1404.77,-164.605 1407.32,-174.889 1413.17,-171.056"/>
</g>
<!-- Node19&#45;&gt;Node17 -->
<g id="edge25" class="edge"><title>Node19&#45;&gt;Node17</title>
<path fill="none" stroke="midnightblue" d="M1391.64,-174.487C1387.89,-190.929 1380.4,-213.098 1372.17,-232 1366.69,-244.577 1359.27,-258.269 1352.18,-268.22"/>
<polygon fill="midnightblue" stroke="midnightblue" points="1395.09,-175.082 1393.53,-164.602 1388.21,-173.764 1395.09,-175.082"/>
</g>
<!-- Node19&#45;&gt;Node18 -->
<g id="edge24" class="edge"><title>Node19&#45;&gt;Node18</title>
<path fill="none" stroke="midnightblue" d="M1364.78,-169.955C1348.66,-180.066 1328.13,-192.197 1311.5,-201.396"/>
<polygon fill="midnightblue" stroke="midnightblue" points="1366.68,-172.898 1373.24,-164.577 1362.92,-166.992 1366.68,-172.898"/>
</g>
<!-- Node20 -->
<g id="node18" class="node"><title>Node20</title>
<g id="a_node18"><a xlink:href="_frame_drawer_8h.html" target="_top" xlink:title="/home/alejandro/Desarrollo\l eclipse/os1/include/FrameDrawer.h">
<polygon fill="white" stroke="black" points="1170.67,-67.5 1170.67,-97.5 1343.67,-97.5 1343.67,-67.5 1170.67,-67.5"/>
<text text-anchor="start" x="1178.67" y="-85.5" font-family="Helvetica,sans-Serif" font-size="10.00">/home/alejandro/Desarrollo</text>
<text text-anchor="middle" x="1257.17" y="-74.5" font-family="Helvetica,sans-Serif" font-size="10.00"> eclipse/os1/include/FrameDrawer.h</text>
</a>
</g>
</g>
<!-- Node19&#45;&gt;Node20 -->
<g id="edge18" class="edge"><title>Node19&#45;&gt;Node20</title>
<path fill="none" stroke="midnightblue" d="M1347.15,-130.131C1324.92,-119.802 1298.91,-107.11 1280.51,-97.5765"/>
<polygon fill="midnightblue" stroke="midnightblue" points="1345.86,-133.392 1356.41,-134.396 1348.79,-127.034 1345.86,-133.392"/>
</g>
<!-- Node21 -->
<g id="node19" class="node"><title>Node21</title>
<g id="a_node19"><a xlink:href="_frame_drawer_8cc.html" target="_top" xlink:title="/home/alejandro/Desarrollo\l eclipse/os1/src/FrameDrawer.cc">
<polygon fill="white" stroke="black" points="1252.67,-0.5 1252.67,-30.5 1413.67,-30.5 1413.67,-0.5 1252.67,-0.5"/>
<text text-anchor="start" x="1260.67" y="-18.5" font-family="Helvetica,sans-Serif" font-size="10.00">/home/alejandro/Desarrollo</text>
<text text-anchor="middle" x="1333.17" y="-7.5" font-family="Helvetica,sans-Serif" font-size="10.00"> eclipse/os1/src/FrameDrawer.cc</text>
</a>
</g>
</g>
<!-- Node19&#45;&gt;Node21 -->
<g id="edge28" class="edge"><title>Node19&#45;&gt;Node21</title>
<path fill="none" stroke="midnightblue" d="M1394.19,-124.35C1395.24,-107.505 1394.5,-84.9243 1386.17,-67 1379.3,-52.2497 1366.05,-39.6247 1354.52,-30.6873"/>
<polygon fill="midnightblue" stroke="midnightblue" points="1390.68,-124.216 1393.29,-134.485 1397.66,-124.83 1390.68,-124.216"/>
</g>
<!-- Node20&#45;&gt;Node13 -->
<g id="edge23" class="edge"><title>Node20&#45;&gt;Node13</title>
<path fill="none" stroke="midnightblue" d="M1198.29,-64.7149C1161.19,-54.1373 1113.82,-40.6348 1078.66,-30.6109"/>
<polygon fill="midnightblue" stroke="midnightblue" points="1197.4,-68.1002 1207.97,-67.476 1199.32,-61.3684 1197.4,-68.1002"/>
</g>
<!-- Node20&#45;&gt;Node17 -->
<g id="edge20" class="edge"><title>Node20&#45;&gt;Node17</title>
<path fill="none" stroke="midnightblue" d="M1193.86,-100.528C1115.75,-124.572 999.036,-172.278 1049.17,-232 1049.38,-232.258 1176.99,-254.639 1261.96,-269.515"/>
<polygon fill="midnightblue" stroke="midnightblue" points="1195.09,-103.812 1203.66,-97.5738 1193.07,-97.1106 1195.09,-103.812"/>
</g>
<!-- Node20&#45;&gt;Node18 -->
<g id="edge19" class="edge"><title>Node20&#45;&gt;Node18</title>
<path fill="none" stroke="midnightblue" d="M1261.71,-107.486C1266.91,-134.924 1275.24,-178.945 1279.49,-201.374"/>
<polygon fill="midnightblue" stroke="midnightblue" points="1265.12,-106.699 1259.82,-97.5247 1258.24,-108.001 1265.12,-106.699"/>
</g>
<!-- Node20&#45;&gt;Node19 -->
<g id="edge21" class="edge"><title>Node20&#45;&gt;Node19</title>
<path fill="none" stroke="midnightblue" d="M1301.12,-101.84C1323.34,-112.163 1349.35,-124.856 1367.77,-134.396"/>
<polygon fill="midnightblue" stroke="midnightblue" points="1302.41,-98.5798 1291.86,-97.5765 1299.48,-104.938 1302.41,-98.5798"/>
</g>
<!-- Node20&#45;&gt;Node21 -->
<g id="edge22" class="edge"><title>Node20&#45;&gt;Node21</title>
<path fill="none" stroke="midnightblue" d="M1281.27,-60.8832C1292.82,-51.0054 1306.36,-39.4293 1316.71,-30.5765"/>
<polygon fill="midnightblue" stroke="midnightblue" points="1278.98,-58.2364 1273.66,-67.396 1283.53,-63.5561 1278.98,-58.2364"/>
</g>
<!-- Node25&#45;&gt;Node10 -->
<g id="edge43" class="edge"><title>Node25&#45;&gt;Node10</title>
<path fill="none" stroke="midnightblue" d="M939.375,-332.444C906.145,-321.908 864.015,-308.549 832.67,-298.611"/>
<polygon fill="midnightblue" stroke="midnightblue" points="938.347,-335.79 948.937,-335.476 940.462,-329.117 938.347,-335.79"/>
</g>
<!-- Node25&#45;&gt;Node11 -->
<g id="edge44" class="edge"><title>Node25&#45;&gt;Node11</title>
<path fill="none" stroke="midnightblue" d="M905.206,-334.427C847.237,-324.458 769.66,-311.053 701.166,-299 698.352,-298.505 695.484,-297.998 692.586,-297.486"/>
<polygon fill="midnightblue" stroke="midnightblue" points="904.616,-337.876 915.065,-336.121 905.802,-330.978 904.616,-337.876"/>
</g>
<!-- Node25&#45;&gt;Node13 -->
<g id="edge45" class="edge"><title>Node25&#45;&gt;Node13</title>
<path fill="none" stroke="midnightblue" d="M950.207,-330.63C936.532,-322.683 922.539,-312.174 913.166,-299 891.605,-268.694 894.166,-254.694 894.166,-217.5 894.166,-217.5 894.166,-217.5 894.166,-148.5 894.166,-91.136 957.252,-50.5157 997.173,-30.5535"/>
<polygon fill="midnightblue" stroke="midnightblue" points="948.641,-333.762 959.095,-335.483 951.996,-327.619 948.641,-333.762"/>
</g>
<!-- Node25&#45;&gt;Node24 -->
<g id="edge42" class="edge"><title>Node25&#45;&gt;Node24</title>
<path fill="none" stroke="midnightblue" d="M1039.41,-331.819C1066.74,-321.371 1100.86,-308.323 1126.35,-298.577"/>
<polygon fill="midnightblue" stroke="midnightblue" points="1038.14,-328.555 1030.05,-335.396 1040.64,-335.094 1038.14,-328.555"/>
</g>
<!-- Node26 -->
<g id="node24" class="node"><title>Node26</title>
<g id="a_node24"><a xlink:href="_initializer_8cc.html" target="_top" xlink:title="/home/alejandro/Desarrollo\l eclipse/os1/src/Initializer.cc">
<polygon fill="white" stroke="black" points="922.666,-268.5 922.666,-298.5 1063.67,-298.5 1063.67,-268.5 922.666,-268.5"/>
<text text-anchor="start" x="930.666" y="-286.5" font-family="Helvetica,sans-Serif" font-size="10.00">/home/alejandro/Desarrollo</text>
<text text-anchor="middle" x="993.166" y="-275.5" font-family="Helvetica,sans-Serif" font-size="10.00"> eclipse/os1/src/Initializer.cc</text>
</a>
</g>
</g>
<!-- Node25&#45;&gt;Node26 -->
<g id="edge41" class="edge"><title>Node25&#45;&gt;Node26</title>
<path fill="none" stroke="midnightblue" d="M993.166,-325.108C993.166,-316.154 993.166,-306.323 993.166,-298.577"/>
<polygon fill="midnightblue" stroke="midnightblue" points="989.667,-325.396 993.166,-335.396 996.667,-325.396 989.667,-325.396"/>
</g>
<!-- Node29&#45;&gt;Node5 -->
<g id="edge55" class="edge"><title>Node29&#45;&gt;Node5</title>
<path fill="none" stroke="midnightblue" d="M515.545,-664.509C516.021,-654.174 516.548,-642.71 517.004,-632.788"/>
<polygon fill="midnightblue" stroke="midnightblue" points="512.037,-664.608 515.074,-674.758 519.03,-664.93 512.037,-664.608"/>
</g>
<!-- Node30&#45;&gt;Node11 -->
<g id="edge57" class="edge"><title>Node30&#45;&gt;Node11</title>
<path fill="none" stroke="midnightblue" d="M873.895,-665.009C863.828,-630.318 849.166,-570.816 849.166,-518.5 849.166,-518.5 849.166,-518.5 849.166,-427.5 849.166,-352.388 759.434,-315.279 692.309,-298.027"/>
<polygon fill="midnightblue" stroke="midnightblue" points="870.645,-666.356 876.851,-674.943 877.354,-664.36 870.645,-666.356"/>
</g>
<!-- Node31 -->
<g id="node29" class="node"><title>Node31</title>
<g id="a_node29"><a xlink:href="robust__kernel__impl_8cpp.html" target="_top" xlink:title="/home/alejandro/Desarrollo\l eclipse/os1/Thirdparty\l/g2o/g2o/core/robust_kernel\l_impl.cpp">
<polygon fill="white" stroke="black" points="877.666,-580.5 877.666,-632.5 1014.67,-632.5 1014.67,-580.5 877.666,-580.5"/>
<text text-anchor="start" x="885.666" y="-620.5" font-family="Helvetica,sans-Serif" font-size="10.00">/home/alejandro/Desarrollo</text>
<text text-anchor="start" x="885.666" y="-609.5" font-family="Helvetica,sans-Serif" font-size="10.00"> eclipse/os1/Thirdparty</text>
<text text-anchor="start" x="885.666" y="-598.5" font-family="Helvetica,sans-Serif" font-size="10.00">/g2o/g2o/core/robust_kernel</text>
<text text-anchor="middle" x="946.166" y="-587.5" font-family="Helvetica,sans-Serif" font-size="10.00">_impl.cpp</text>
</a>
</g>
</g>
<!-- Node30&#45;&gt;Node31 -->
<g id="edge58" class="edge"><title>Node30&#45;&gt;Node31</title>
<path fill="none" stroke="midnightblue" d="M903.476,-666.453C911.315,-655.629 920.216,-643.337 927.854,-632.788"/>
<polygon fill="midnightblue" stroke="midnightblue" points="900.492,-664.606 897.462,-674.758 906.162,-668.712 900.492,-664.606"/>
</g>
</g>
</svg>
