<?xml version="1.0" encoding="UTF-8" standalone="no"?>
<!DOCTYPE svg PUBLIC "-//W3C//DTD SVG 1.1//EN"
 "http://www.w3.org/Graphics/SVG/1.1/DTD/svg11.dtd">
<!-- Generated by graphviz version 2.38.0 (20140413.2041)
 -->
<!-- Title: /home/alejandro/Desarrollo eclipse/os1/Thirdparty/g2o/g2o/core/robust_kernel.h Pages: 1 -->
<svg width="1909pt" height="607pt"
 viewBox="0.00 0.00 1909.00 607.00" xmlns="http://www.w3.org/2000/svg" xmlns:xlink="http://www.w3.org/1999/xlink">
<g id="graph0" class="graph" transform="scale(1 1) rotate(0) translate(4 603)">
<title>/home/alejandro/Desarrollo eclipse/os1/Thirdparty/g2o/g2o/core/robust_kernel.h</title>
<polygon fill="white" stroke="none" points="-4,4 -4,-603 1905,-603 1905,4 -4,4"/>
<!-- Node3 -->
<g id="node1" class="node"><title>Node3</title>
<polygon fill="#bfbfbf" stroke="black" points="1052.5,-557.5 1052.5,-598.5 1198.5,-598.5 1198.5,-557.5 1052.5,-557.5"/>
<text text-anchor="start" x="1060.5" y="-586.5" font-family="Helvetica,sans-Serif" font-size="10.00">/home/alejandro/Desarrollo</text>
<text text-anchor="start" x="1060.5" y="-575.5" font-family="Helvetica,sans-Serif" font-size="10.00"> eclipse/os1/Thirdparty</text>
<text text-anchor="middle" x="1125.5" y="-564.5" font-family="Helvetica,sans-Serif" font-size="10.00">/g2o/g2o/core/robust_kernel.h</text>
</g>
<!-- Node4 -->
<g id="node2" class="node"><title>Node4</title>
<g id="a_node2"><a xlink:href="base__binary__edge_8h.html" target="_top" xlink:title="/home/alejandro/Desarrollo\l eclipse/os1/Thirdparty\l/g2o/g2o/core/base_binary_edge.h">
<polygon fill="white" stroke="black" points="591.5,-474 591.5,-515 757.5,-515 757.5,-474 591.5,-474"/>
<text text-anchor="start" x="599.5" y="-503" font-family="Helvetica,sans-Serif" font-size="10.00">/home/alejandro/Desarrollo</text>
<text text-anchor="start" x="599.5" y="-492" font-family="Helvetica,sans-Serif" font-size="10.00"> eclipse/os1/Thirdparty</text>
<text text-anchor="middle" x="674.5" y="-481" font-family="Helvetica,sans-Serif" font-size="10.00">/g2o/g2o/core/base_binary_edge.h</text>
</a>
</g>
</g>
<!-- Node3&#45;&gt;Node4 -->
<g id="edge1" class="edge"><title>Node3&#45;&gt;Node4</title>
<path fill="none" stroke="midnightblue" d="M1042.09,-566.771C969.008,-557.147 860.136,-541.209 766.5,-521 758.318,-519.234 749.784,-517.173 741.356,-515.001"/>
<polygon fill="midnightblue" stroke="midnightblue" points="1041.79,-570.261 1052.16,-568.087 1042.7,-563.32 1041.79,-570.261"/>
</g>
<!-- Node27 -->
<g id="node25" class="node"><title>Node27</title>
<g id="a_node25"><a xlink:href="base__unary__edge_8h.html" target="_top" xlink:title="/home/alejandro/Desarrollo\l eclipse/os1/Thirdparty\l/g2o/g2o/core/base_unary_edge.h">
<polygon fill="white" stroke="black" points="409.5,-474 409.5,-515 573.5,-515 573.5,-474 409.5,-474"/>
<text text-anchor="start" x="417.5" y="-503" font-family="Helvetica,sans-Serif" font-size="10.00">/home/alejandro/Desarrollo</text>
<text text-anchor="start" x="417.5" y="-492" font-family="Helvetica,sans-Serif" font-size="10.00"> eclipse/os1/Thirdparty</text>
<text text-anchor="middle" x="491.5" y="-481" font-family="Helvetica,sans-Serif" font-size="10.00">/g2o/g2o/core/base_unary_edge.h</text>
</a>
</g>
</g>
<!-- Node3&#45;&gt;Node27 -->
<g id="edge43" class="edge"><title>Node3&#45;&gt;Node27</title>
<path fill="none" stroke="midnightblue" d="M1042.37,-572.838C935.281,-566.471 743.718,-551.669 582.5,-521 573.957,-519.375 565.052,-517.33 556.299,-515.108"/>
<polygon fill="midnightblue" stroke="midnightblue" points="1042.28,-576.339 1052.47,-573.428 1042.69,-569.35 1042.28,-576.339"/>
</g>
<!-- Node28 -->
<g id="node26" class="node"><title>Node28</title>
<g id="a_node26"><a xlink:href="robust__kernel__impl_8h.html" target="_top" xlink:title="/home/alejandro/Desarrollo\l eclipse/os1/Thirdparty\l/g2o/g2o/core/robust_kernel_impl.h">
<polygon fill="white" stroke="black" points="776,-474 776,-515 945,-515 945,-474 776,-474"/>
<text text-anchor="start" x="784" y="-503" font-family="Helvetica,sans-Serif" font-size="10.00">/home/alejandro/Desarrollo</text>
<text text-anchor="start" x="784" y="-492" font-family="Helvetica,sans-Serif" font-size="10.00"> eclipse/os1/Thirdparty</text>
<text text-anchor="middle" x="860.5" y="-481" font-family="Helvetica,sans-Serif" font-size="10.00">/g2o/g2o/core/robust_kernel_impl.h</text>
</a>
</g>
</g>
<!-- Node3&#45;&gt;Node28 -->
<g id="edge45" class="edge"><title>Node3&#45;&gt;Node28</title>
<path fill="none" stroke="midnightblue" d="M1052.26,-554.476C1011.99,-542.091 962.522,-526.876 923.915,-515.003"/>
<polygon fill="midnightblue" stroke="midnightblue" points="1051.44,-557.884 1062.03,-557.479 1053.5,-551.194 1051.44,-557.884"/>
</g>
<!-- Node30 -->
<g id="node28" class="node"><title>Node30</title>
<g id="a_node28"><a xlink:href="base__multi__edge_8h.html" target="_top" xlink:title="/home/alejandro/Desarrollo\l eclipse/os1/Thirdparty\l/g2o/g2o/core/base_multi_edge.h">
<polygon fill="white" stroke="black" points="963,-474 963,-515 1124,-515 1124,-474 963,-474"/>
<text text-anchor="start" x="971" y="-503" font-family="Helvetica,sans-Serif" font-size="10.00">/home/alejandro/Desarrollo</text>
<text text-anchor="start" x="971" y="-492" font-family="Helvetica,sans-Serif" font-size="10.00"> eclipse/os1/Thirdparty</text>
<text text-anchor="middle" x="1043.5" y="-481" font-family="Helvetica,sans-Serif" font-size="10.00">/g2o/g2o/core/base_multi_edge.h</text>
</a>
</g>
</g>
<!-- Node3&#45;&gt;Node30 -->
<g id="edge48" class="edge"><title>Node3&#45;&gt;Node30</title>
<path fill="none" stroke="midnightblue" d="M1098.37,-550.038C1086.87,-538.604 1073.71,-525.529 1063.17,-515.047"/>
<polygon fill="midnightblue" stroke="midnightblue" points="1096.09,-552.704 1105.65,-557.271 1101.02,-547.739 1096.09,-552.704"/>
</g>
<!-- Node31 -->
<g id="node29" class="node"><title>Node31</title>
<g id="a_node29"><a xlink:href="optimizable__graph_8cpp.html" target="_top" xlink:title="/home/alejandro/Desarrollo\l eclipse/os1/Thirdparty\l/g2o/g2o/core/optimizable\l_graph.cpp">
<polygon fill="white" stroke="black" points="1142,-468.5 1142,-520.5 1275,-520.5 1275,-468.5 1142,-468.5"/>
<text text-anchor="start" x="1150" y="-508.5" font-family="Helvetica,sans-Serif" font-size="10.00">/home/alejandro/Desarrollo</text>
<text text-anchor="start" x="1150" y="-497.5" font-family="Helvetica,sans-Serif" font-size="10.00"> eclipse/os1/Thirdparty</text>
<text text-anchor="start" x="1150" y="-486.5" font-family="Helvetica,sans-Serif" font-size="10.00">/g2o/g2o/core/optimizable</text>
<text text-anchor="middle" x="1208.5" y="-475.5" font-family="Helvetica,sans-Serif" font-size="10.00">_graph.cpp</text>
</a>
</g>
</g>
<!-- Node3&#45;&gt;Node31 -->
<g id="edge49" class="edge"><title>Node3&#45;&gt;Node31</title>
<path fill="none" stroke="midnightblue" d="M1152.75,-550.245C1162.46,-540.706 1173.36,-530.003 1182.93,-520.607"/>
<polygon fill="midnightblue" stroke="midnightblue" points="1150.28,-547.767 1145.59,-557.271 1155.18,-552.762 1150.28,-547.767"/>
</g>
<!-- Node32 -->
<g id="node30" class="node"><title>Node32</title>
<g id="a_node30"><a xlink:href="robust__kernel_8cpp.html" target="_top" xlink:title="/home/alejandro/Desarrollo\l eclipse/os1/Thirdparty\l/g2o/g2o/core/robust_kernel.cpp">
<polygon fill="white" stroke="black" points="1293.5,-474 1293.5,-515 1449.5,-515 1449.5,-474 1293.5,-474"/>
<text text-anchor="start" x="1301.5" y="-503" font-family="Helvetica,sans-Serif" font-size="10.00">/home/alejandro/Desarrollo</text>
<text text-anchor="start" x="1301.5" y="-492" font-family="Helvetica,sans-Serif" font-size="10.00"> eclipse/os1/Thirdparty</text>
<text text-anchor="middle" x="1371.5" y="-481" font-family="Helvetica,sans-Serif" font-size="10.00">/g2o/g2o/core/robust_kernel.cpp</text>
</a>
</g>
</g>
<!-- Node3&#45;&gt;Node32 -->
<g id="edge50" class="edge"><title>Node3&#45;&gt;Node32</title>
<path fill="none" stroke="midnightblue" d="M1194.2,-554.24C1231.45,-541.898 1277.02,-526.801 1312.63,-515.003"/>
<polygon fill="midnightblue" stroke="midnightblue" points="1192.81,-551.011 1184.42,-557.479 1195.02,-557.656 1192.81,-551.011"/>
</g>
<!-- Node33 -->
<g id="node31" class="node"><title>Node33</title>
<g id="a_node31"><a xlink:href="robust__kernel__factory_8cpp.html" target="_top" xlink:title="/home/alejandro/Desarrollo\l eclipse/os1/Thirdparty\l/g2o/g2o/core/robust_kernel\l_factory.cpp">
<polygon fill="white" stroke="black" points="1468,-468.5 1468,-520.5 1605,-520.5 1605,-468.5 1468,-468.5"/>
<text text-anchor="start" x="1476" y="-508.5" font-family="Helvetica,sans-Serif" font-size="10.00">/home/alejandro/Desarrollo</text>
<text text-anchor="start" x="1476" y="-497.5" font-family="Helvetica,sans-Serif" font-size="10.00"> eclipse/os1/Thirdparty</text>
<text text-anchor="start" x="1476" y="-486.5" font-family="Helvetica,sans-Serif" font-size="10.00">/g2o/g2o/core/robust_kernel</text>
<text text-anchor="middle" x="1536.5" y="-475.5" font-family="Helvetica,sans-Serif" font-size="10.00">_factory.cpp</text>
</a>
</g>
</g>
<!-- Node3&#45;&gt;Node33 -->
<g id="edge51" class="edge"><title>Node3&#45;&gt;Node33</title>
<path fill="none" stroke="midnightblue" d="M1208.76,-566.516C1276.55,-557.141 1374.44,-541.686 1458.5,-521 1461.54,-520.251 1464.64,-519.442 1467.76,-518.59"/>
<polygon fill="midnightblue" stroke="midnightblue" points="1208,-563.088 1198.57,-567.912 1208.95,-570.023 1208,-563.088"/>
</g>
<!-- Node34 -->
<g id="node32" class="node"><title>Node34</title>
<g id="a_node32"><a xlink:href="sparse__optimizer_8cpp.html" target="_top" xlink:title="/home/alejandro/Desarrollo\l eclipse/os1/Thirdparty\l/g2o/g2o/core/sparse_optimizer.cpp">
<polygon fill="white" stroke="black" points="1623.5,-474 1623.5,-515 1795.5,-515 1795.5,-474 1623.5,-474"/>
<text text-anchor="start" x="1631.5" y="-503" font-family="Helvetica,sans-Serif" font-size="10.00">/home/alejandro/Desarrollo</text>
<text text-anchor="start" x="1631.5" y="-492" font-family="Helvetica,sans-Serif" font-size="10.00"> eclipse/os1/Thirdparty</text>
<text text-anchor="middle" x="1709.5" y="-481" font-family="Helvetica,sans-Serif" font-size="10.00">/g2o/g2o/core/sparse_optimizer.cpp</text>
</a>
</g>
</g>
<!-- Node3&#45;&gt;Node34 -->
<g id="edge52" class="edge"><title>Node3&#45;&gt;Node34</title>
<path fill="none" stroke="midnightblue" d="M1208.62,-571.255C1306.37,-563.631 1473.23,-547.896 1614.5,-521 1623.31,-519.323 1632.5,-517.262 1641.54,-515.044"/>
<polygon fill="midnightblue" stroke="midnightblue" points="1208.2,-567.777 1198.5,-572.035 1208.74,-574.756 1208.2,-567.777"/>
</g>
<!-- Node5 -->
<g id="node3" class="node"><title>Node5</title>
<g id="a_node3"><a xlink:href="types__six__dof__expmap_8h.html" target="_top" xlink:title="/home/alejandro/Desarrollo\l eclipse/os1/Thirdparty\l/g2o/g2o/types/types_six\l_dof_expmap.h">
<polygon fill="white" stroke="black" points="454,-379.5 454,-431.5 587,-431.5 587,-379.5 454,-379.5"/>
<text text-anchor="start" x="462" y="-419.5" font-family="Helvetica,sans-Serif" font-size="10.00">/home/alejandro/Desarrollo</text>
<text text-anchor="start" x="462" y="-408.5" font-family="Helvetica,sans-Serif" font-size="10.00"> eclipse/os1/Thirdparty</text>
<text text-anchor="start" x="462" y="-397.5" font-family="Helvetica,sans-Serif" font-size="10.00">/g2o/g2o/types/types_six</text>
<text text-anchor="middle" x="520.5" y="-386.5" font-family="Helvetica,sans-Serif" font-size="10.00">_dof_expmap.h</text>
</a>
</g>
</g>
<!-- Node4&#45;&gt;Node5 -->
<g id="edge2" class="edge"><title>Node4&#45;&gt;Node5</title>
<path fill="none" stroke="midnightblue" d="M631.051,-468.954C610.379,-457.276 585.696,-443.332 564.903,-431.585"/>
<polygon fill="midnightblue" stroke="midnightblue" points="629.511,-472.104 639.939,-473.976 632.954,-466.009 629.511,-472.104"/>
</g>
<!-- Node14 -->
<g id="node12" class="node"><title>Node14</title>
<g id="a_node12"><a xlink:href="types__seven__dof__expmap_8h.html" target="_top" xlink:title="/home/alejandro/Desarrollo\l eclipse/os1/Thirdparty\l/g2o/g2o/types/types_seven\l_dof_expmap.h">
<polygon fill="white" stroke="black" points="594.5,-290.5 594.5,-342.5 734.5,-342.5 734.5,-290.5 594.5,-290.5"/>
<text text-anchor="start" x="602.5" y="-330.5" font-family="Helvetica,sans-Serif" font-size="10.00">/home/alejandro/Desarrollo</text>
<text text-anchor="start" x="602.5" y="-319.5" font-family="Helvetica,sans-Serif" font-size="10.00"> eclipse/os1/Thirdparty</text>
<text text-anchor="start" x="602.5" y="-308.5" font-family="Helvetica,sans-Serif" font-size="10.00">/g2o/g2o/types/types_seven</text>
<text text-anchor="middle" x="664.5" y="-297.5" font-family="Helvetica,sans-Serif" font-size="10.00">_dof_expmap.h</text>
</a>
</g>
</g>
<!-- Node4&#45;&gt;Node14 -->
<g id="edge42" class="edge"><title>Node4&#45;&gt;Node14</title>
<path fill="none" stroke="midnightblue" d="M672.81,-463.754C670.879,-429.771 667.753,-374.746 665.935,-342.76"/>
<polygon fill="midnightblue" stroke="midnightblue" points="669.33,-464.207 673.392,-473.992 676.319,-463.81 669.33,-464.207"/>
</g>
<!-- Node6 -->
<g id="node4" class="node"><title>Node6</title>
<g id="a_node4"><a xlink:href="_converter_8h.html" target="_top" xlink:title="/home/alejandro/Desarrollo\l eclipse/os1/include/Converter.h">
<polygon fill="white" stroke="black" points="355,-134.5 355,-164.5 512,-164.5 512,-134.5 355,-134.5"/>
<text text-anchor="start" x="363" y="-152.5" font-family="Helvetica,sans-Serif" font-size="10.00">/home/alejandro/Desarrollo</text>
<text text-anchor="middle" x="433.5" y="-141.5" font-family="Helvetica,sans-Serif" font-size="10.00"> eclipse/os1/include/Converter.h</text>
</a>
</g>
</g>
<!-- Node5&#45;&gt;Node6 -->
<g id="edge3" class="edge"><title>Node5&#45;&gt;Node6</title>
<path fill="none" stroke="midnightblue" d="M444.339,-389.005C419.383,-379.923 394.289,-365.585 379.5,-343 341.09,-284.342 396.917,-198.399 422.178,-164.752"/>
<polygon fill="midnightblue" stroke="midnightblue" points="443.28,-392.342 453.874,-392.235 445.526,-385.712 443.28,-392.342"/>
</g>
<!-- Node11 -->
<g id="node9" class="node"><title>Node11</title>
<g id="a_node9"><a xlink:href="_optimizer_8cc.html" target="_top" xlink:title="/home/alejandro/Desarrollo\l eclipse/os1/src/Optimizer.cc">
<polygon fill="white" stroke="black" points="556.5,-67.5 556.5,-97.5 700.5,-97.5 700.5,-67.5 556.5,-67.5"/>
<text text-anchor="start" x="564.5" y="-85.5" font-family="Helvetica,sans-Serif" font-size="10.00">/home/alejandro/Desarrollo</text>
<text text-anchor="middle" x="628.5" y="-74.5" font-family="Helvetica,sans-Serif" font-size="10.00"> eclipse/os1/src/Optimizer.cc</text>
</a>
</g>
</g>
<!-- Node5&#45;&gt;Node11 -->
<g id="edge40" class="edge"><title>Node5&#45;&gt;Node11</title>
<path fill="none" stroke="midnightblue" d="M532.232,-369.63C555.766,-299.682 607.845,-144.892 623.777,-97.5382"/>
<polygon fill="midnightblue" stroke="midnightblue" points="528.846,-368.718 528.975,-379.312 535.481,-370.95 528.846,-368.718"/>
</g>
<!-- Node5&#45;&gt;Node14 -->
<g id="edge11" class="edge"><title>Node5&#45;&gt;Node14</title>
<path fill="none" stroke="midnightblue" d="M570.866,-374.07C587.886,-363.788 606.684,-352.431 622.943,-342.607"/>
<polygon fill="midnightblue" stroke="midnightblue" points="568.9,-371.169 562.151,-379.336 572.52,-377.161 568.9,-371.169"/>
</g>
<!-- Node26 -->
<g id="node24" class="node"><title>Node26</title>
<g id="a_node24"><a xlink:href="types__six__dof__expmap_8cpp.html" target="_top" xlink:title="/home/alejandro/Desarrollo\l eclipse/os1/Thirdparty\l/g2o/g2o/types/types_six\l_dof_expmap.cpp">
<polygon fill="white" stroke="black" points="389,-290.5 389,-342.5 522,-342.5 522,-290.5 389,-290.5"/>
<text text-anchor="start" x="397" y="-330.5" font-family="Helvetica,sans-Serif" font-size="10.00">/home/alejandro/Desarrollo</text>
<text text-anchor="start" x="397" y="-319.5" font-family="Helvetica,sans-Serif" font-size="10.00"> eclipse/os1/Thirdparty</text>
<text text-anchor="start" x="397" y="-308.5" font-family="Helvetica,sans-Serif" font-size="10.00">/g2o/g2o/types/types_six</text>
<text text-anchor="middle" x="455.5" y="-297.5" font-family="Helvetica,sans-Serif" font-size="10.00">_dof_expmap.cpp</text>
</a>
</g>
</g>
<!-- Node5&#45;&gt;Node26 -->
<g id="edge41" class="edge"><title>Node5&#45;&gt;Node26</title>
<path fill="none" stroke="midnightblue" d="M495.632,-371.215C488.535,-361.717 480.924,-351.529 474.258,-342.607"/>
<polygon fill="midnightblue" stroke="midnightblue" points="492.91,-373.42 501.699,-379.336 498.518,-369.23 492.91,-373.42"/>
</g>
<!-- Node7 -->
<g id="node5" class="node"><title>Node7</title>
<g id="a_node5"><a xlink:href="_converter_8cc.html" target="_top" xlink:title="/home/alejandro/Desarrollo\l eclipse/os1/src/Converter.cc">
<polygon fill="white" stroke="black" points="204,-67.5 204,-97.5 349,-97.5 349,-67.5 204,-67.5"/>
<text text-anchor="start" x="212" y="-85.5" font-family="Helvetica,sans-Serif" font-size="10.00">/home/alejandro/Desarrollo</text>
<text text-anchor="middle" x="276.5" y="-74.5" font-family="Helvetica,sans-Serif" font-size="10.00"> eclipse/os1/src/Converter.cc</text>
</a>
</g>
</g>
<!-- Node6&#45;&gt;Node7 -->
<g id="edge4" class="edge"><title>Node6&#45;&gt;Node7</title>
<path fill="none" stroke="midnightblue" d="M390.13,-130.544C365.007,-120.143 333.836,-107.238 310.5,-97.5765"/>
<polygon fill="midnightblue" stroke="midnightblue" points="388.855,-133.804 399.433,-134.396 391.533,-127.337 388.855,-133.804"/>
</g>
<!-- Node8 -->
<g id="node6" class="node"><title>Node8</title>
<g id="a_node6"><a xlink:href="_frame_8cc.html" target="_top" xlink:title="/home/alejandro/Desarrollo\l eclipse/os1/src/Frame.cc">
<polygon fill="white" stroke="black" points="367,-67.5 367,-97.5 500,-97.5 500,-67.5 367,-67.5"/>
<text text-anchor="start" x="375" y="-85.5" font-family="Helvetica,sans-Serif" font-size="10.00">/home/alejandro/Desarrollo</text>
<text text-anchor="middle" x="433.5" y="-74.5" font-family="Helvetica,sans-Serif" font-size="10.00"> eclipse/os1/src/Frame.cc</text>
</a>
</g>
</g>
<!-- Node6&#45;&gt;Node8 -->
<g id="edge5" class="edge"><title>Node6&#45;&gt;Node8</title>
<path fill="none" stroke="midnightblue" d="M433.5,-124.108C433.5,-115.154 433.5,-105.323 433.5,-97.5765"/>
<polygon fill="midnightblue" stroke="midnightblue" points="430,-124.396 433.5,-134.396 437,-124.396 430,-124.396"/>
</g>
<!-- Node9 -->
<g id="node7" class="node"><title>Node9</title>
<g id="a_node7"><a xlink:href="_key_frame_8cc.html" target="_top" xlink:title="/home/alejandro/Desarrollo\l eclipse/os1/src/KeyFrame.cc">
<polygon fill="white" stroke="black" points="0,-67.5 0,-97.5 147,-97.5 147,-67.5 0,-67.5"/>
<text text-anchor="start" x="8" y="-85.5" font-family="Helvetica,sans-Serif" font-size="10.00">/home/alejandro/Desarrollo</text>
<text text-anchor="middle" x="73.5" y="-74.5" font-family="Helvetica,sans-Serif" font-size="10.00"> eclipse/os1/src/KeyFrame.cc</text>
</a>
</g>
</g>
<!-- Node6&#45;&gt;Node9 -->
<g id="edge6" class="edge"><title>Node6&#45;&gt;Node9</title>
<path fill="none" stroke="midnightblue" d="M345.84,-132.673C284.913,-121.672 204.628,-107.176 147.039,-96.7778"/>
<polygon fill="midnightblue" stroke="midnightblue" points="345.366,-136.143 355.829,-134.476 346.61,-129.255 345.366,-136.143"/>
</g>
<!-- Node10 -->
<g id="node8" class="node"><title>Node10</title>
<g id="a_node8"><a xlink:href="_loop_closing_8cc.html" target="_top" xlink:title="/home/alejandro/Desarrollo\l eclipse/os1/src/LoopClosing.cc">
<polygon fill="white" stroke="black" points="718.5,-67.5 718.5,-97.5 874.5,-97.5 874.5,-67.5 718.5,-67.5"/>
<text text-anchor="start" x="726.5" y="-85.5" font-family="Helvetica,sans-Serif" font-size="10.00">/home/alejandro/Desarrollo</text>
<text text-anchor="middle" x="796.5" y="-74.5" font-family="Helvetica,sans-Serif" font-size="10.00"> eclipse/os1/src/LoopClosing.cc</text>
</a>
</g>
</g>
<!-- Node6&#45;&gt;Node10 -->
<g id="edge7" class="edge"><title>Node6&#45;&gt;Node10</title>
<path fill="none" stroke="midnightblue" d="M521.668,-132.712C581.723,-121.959 660.508,-107.851 718.322,-97.4989"/>
<polygon fill="midnightblue" stroke="midnightblue" points="521.045,-129.268 511.819,-134.476 522.279,-136.159 521.045,-129.268"/>
</g>
<!-- Node6&#45;&gt;Node11 -->
<g id="edge8" class="edge"><title>Node6&#45;&gt;Node11</title>
<path fill="none" stroke="midnightblue" d="M485.317,-131.228C516.861,-120.713 556.648,-107.451 586.27,-97.5765"/>
<polygon fill="midnightblue" stroke="midnightblue" points="484.192,-127.913 475.812,-134.396 486.406,-134.554 484.192,-127.913"/>
</g>
<!-- Node12 -->
<g id="node10" class="node"><title>Node12</title>
<g id="a_node10"><a xlink:href="_system_8cc.html" target="_top" xlink:title="/home/alejandro/Desarrollo\l eclipse/os1/src/System.cc">
<polygon fill="white" stroke="black" points="1116.5,-0.5 1116.5,-30.5 1252.5,-30.5 1252.5,-0.5 1116.5,-0.5"/>
<text text-anchor="start" x="1124.5" y="-18.5" font-family="Helvetica,sans-Serif" font-size="10.00">/home/alejandro/Desarrollo</text>
<text text-anchor="middle" x="1184.5" y="-7.5" font-family="Helvetica,sans-Serif" font-size="10.00"> eclipse/os1/src/System.cc</text>
</a>
</g>
</g>
<!-- Node6&#45;&gt;Node12 -->
<g id="edge9" class="edge"><title>Node6&#45;&gt;Node12</title>
<path fill="none" stroke="midnightblue" d="M464.091,-128.691C477.841,-119.588 494.163,-108.499 508.5,-98 526.364,-84.9175 526.9,-75.1174 547.5,-67 560.619,-61.8304 954.92,-33.0028 1116.48,-21.3693"/>
<polygon fill="midnightblue" stroke="midnightblue" points="461.905,-125.94 455.475,-134.361 465.752,-131.788 461.905,-125.94"/>
</g>
<!-- Node13 -->
<g id="node11" class="node"><title>Node13</title>
<g id="a_node11"><a xlink:href="_tracking_8cc.html" target="_top" xlink:title="/home/alejandro/Desarrollo\l eclipse/os1/src/Tracking.cc">
<polygon fill="white" stroke="black" points="832.5,-0.5 832.5,-30.5 972.5,-30.5 972.5,-0.5 832.5,-0.5"/>
<text text-anchor="start" x="840.5" y="-18.5" font-family="Helvetica,sans-Serif" font-size="10.00">/home/alejandro/Desarrollo</text>
<text text-anchor="middle" x="902.5" y="-7.5" font-family="Helvetica,sans-Serif" font-size="10.00"> eclipse/os1/src/Tracking.cc</text>
</a>
</g>
</g>
<!-- Node6&#45;&gt;Node13 -->
<g id="edge10" class="edge"><title>Node6&#45;&gt;Node13</title>
<path fill="none" stroke="midnightblue" d="M344.492,-144.904C257.707,-138.321 145.43,-119.695 194.5,-67 237.356,-20.9787 662.006,-16.2415 832.346,-16.2113"/>
<polygon fill="midnightblue" stroke="midnightblue" points="344.446,-148.409 354.67,-145.631 344.944,-141.427 344.446,-148.409"/>
</g>
<!-- Node14&#45;&gt;Node6 -->
<g id="edge12" class="edge"><title>Node14&#45;&gt;Node6</title>
<path fill="none" stroke="midnightblue" d="M621.008,-284.434C570.724,-248.517 490.146,-190.962 453.186,-164.561"/>
<polygon fill="midnightblue" stroke="midnightblue" points="619.244,-287.476 629.416,-290.44 623.313,-281.78 619.244,-287.476"/>
</g>
<!-- Node14&#45;&gt;Node11 -->
<g id="edge38" class="edge"><title>Node14&#45;&gt;Node11</title>
<path fill="none" stroke="midnightblue" d="M659.012,-280.132C650.948,-228.166 636.255,-133.479 630.704,-97.7007"/>
<polygon fill="midnightblue" stroke="midnightblue" points="655.587,-280.885 660.579,-290.23 662.504,-279.812 655.587,-280.885"/>
</g>
<!-- Node15 -->
<g id="node13" class="node"><title>Node15</title>
<g id="a_node13"><a xlink:href="_loop_closing_8h.html" target="_top" xlink:title="/home/alejandro/Desarrollo\l eclipse/os1/include/LoopClosing.h">
<polygon fill="white" stroke="black" points="1123.5,-212.5 1123.5,-242.5 1291.5,-242.5 1291.5,-212.5 1123.5,-212.5"/>
<text text-anchor="start" x="1131.5" y="-230.5" font-family="Helvetica,sans-Serif" font-size="10.00">/home/alejandro/Desarrollo</text>
<text text-anchor="middle" x="1207.5" y="-219.5" font-family="Helvetica,sans-Serif" font-size="10.00"> eclipse/os1/include/LoopClosing.h</text>
</a>
</g>
</g>
<!-- Node14&#45;&gt;Node15 -->
<g id="edge13" class="edge"><title>Node14&#45;&gt;Node15</title>
<path fill="none" stroke="midnightblue" d="M744.537,-302.676C845.946,-286.428 1019.93,-258.553 1123.29,-241.993"/>
<polygon fill="midnightblue" stroke="midnightblue" points="743.974,-299.222 734.653,-304.26 745.081,-306.134 743.974,-299.222"/>
</g>
<!-- Node23 -->
<g id="node21" class="node"><title>Node23</title>
<g id="a_node21"><a xlink:href="_optimizer_8h.html" target="_top" xlink:title="/home/alejandro/Desarrollo\l eclipse/os1/include/Optimizer.h">
<polygon fill="white" stroke="black" points="924.5,-134.5 924.5,-164.5 1080.5,-164.5 1080.5,-134.5 924.5,-134.5"/>
<text text-anchor="start" x="932.5" y="-152.5" font-family="Helvetica,sans-Serif" font-size="10.00">/home/alejandro/Desarrollo</text>
<text text-anchor="middle" x="1002.5" y="-141.5" font-family="Helvetica,sans-Serif" font-size="10.00"> eclipse/os1/include/Optimizer.h</text>
</a>
</g>
</g>
<!-- Node14&#45;&gt;Node23 -->
<g id="edge37" class="edge"><title>Node14&#45;&gt;Node23</title>
<path fill="none" stroke="midnightblue" d="M660.389,-280.273C659.504,-254.77 663.012,-221.336 683.5,-201 716.53,-168.214 840.855,-156.714 924.188,-152.68"/>
<polygon fill="midnightblue" stroke="midnightblue" points="656.897,-280.527 660.971,-290.307 663.886,-280.121 656.897,-280.527"/>
</g>
<!-- Node25 -->
<g id="node23" class="node"><title>Node25</title>
<g id="a_node23"><a xlink:href="types__seven__dof__expmap_8cpp.html" target="_top" xlink:title="/home/alejandro/Desarrollo\l eclipse/os1/Thirdparty\l/g2o/g2o/types/types_seven\l_dof_expmap.cpp">
<polygon fill="white" stroke="black" points="692.5,-201.5 692.5,-253.5 832.5,-253.5 832.5,-201.5 692.5,-201.5"/>
<text text-anchor="start" x="700.5" y="-241.5" font-family="Helvetica,sans-Serif" font-size="10.00">/home/alejandro/Desarrollo</text>
<text text-anchor="start" x="700.5" y="-230.5" font-family="Helvetica,sans-Serif" font-size="10.00"> eclipse/os1/Thirdparty</text>
<text text-anchor="start" x="700.5" y="-219.5" font-family="Helvetica,sans-Serif" font-size="10.00">/g2o/g2o/types/types_seven</text>
<text text-anchor="middle" x="762.5" y="-208.5" font-family="Helvetica,sans-Serif" font-size="10.00">_dof_expmap.cpp</text>
</a>
</g>
</g>
<!-- Node14&#45;&gt;Node25 -->
<g id="edge39" class="edge"><title>Node14&#45;&gt;Node25</title>
<path fill="none" stroke="midnightblue" d="M700.378,-283.649C711.53,-273.749 723.66,-262.98 734.218,-253.607"/>
<polygon fill="midnightblue" stroke="midnightblue" points="698,-281.08 692.846,-290.336 702.648,-286.314 698,-281.08"/>
</g>
<!-- Node15&#45;&gt;Node10 -->
<g id="edge35" class="edge"><title>Node15&#45;&gt;Node10</title>
<path fill="none" stroke="midnightblue" d="M1113.45,-216.804C1054.67,-208.32 978.436,-192.812 915.5,-165 893.951,-155.477 891.87,-147.411 872.5,-134 854.396,-121.466 833.545,-107.655 818.269,-97.6488"/>
<polygon fill="midnightblue" stroke="midnightblue" points="1113.09,-220.287 1123.48,-218.207 1114.06,-213.354 1113.09,-220.287"/>
</g>
<!-- Node15&#45;&gt;Node12 -->
<g id="edge36" class="edge"><title>Node15&#45;&gt;Node12</title>
<path fill="none" stroke="midnightblue" d="M1208.77,-202.045C1210.63,-182.626 1215.23,-155.294 1226.5,-134 1236.94,-114.278 1253.11,-118.676 1261.5,-98 1266.68,-85.2342 1268.05,-79.123 1261.5,-67 1252.69,-50.6829 1236.05,-38.7844 1220.49,-30.6504"/>
<polygon fill="midnightblue" stroke="midnightblue" points="1205.26,-201.95 1207.97,-212.194 1212.24,-202.499 1205.26,-201.95"/>
</g>
<!-- Node16 -->
<g id="node14" class="node"><title>Node16</title>
<g id="a_node14"><a xlink:href="_local_mapping_8h.html" target="_top" xlink:title="/home/alejandro/Desarrollo\l eclipse/os1/include/LocalMapping.h">
<polygon fill="white" stroke="black" points="1235.5,-134.5 1235.5,-164.5 1409.5,-164.5 1409.5,-134.5 1235.5,-134.5"/>
<text text-anchor="start" x="1243.5" y="-152.5" font-family="Helvetica,sans-Serif" font-size="10.00">/home/alejandro/Desarrollo</text>
<text text-anchor="middle" x="1322.5" y="-141.5" font-family="Helvetica,sans-Serif" font-size="10.00"> eclipse/os1/include/LocalMapping.h</text>
</a>
</g>
</g>
<!-- Node15&#45;&gt;Node16 -->
<g id="edge14" class="edge"><title>Node15&#45;&gt;Node16</title>
<path fill="none" stroke="midnightblue" d="M1232.04,-206.289C1250.74,-193.187 1276.29,-176.443 1295.56,-164.731"/>
<polygon fill="midnightblue" stroke="midnightblue" points="1229.84,-203.557 1223.72,-212.205 1233.9,-209.262 1229.84,-203.557"/>
</g>
<!-- Node17 -->
<g id="node15" class="node"><title>Node17</title>
<g id="a_node15"><a xlink:href="_tracking_8h.html" target="_top" xlink:title="/home/alejandro/Desarrollo\l eclipse/os1/include/Tracking.h">
<polygon fill="white" stroke="black" points="1358.5,-67.5 1358.5,-97.5 1510.5,-97.5 1510.5,-67.5 1358.5,-67.5"/>
<text text-anchor="start" x="1366.5" y="-85.5" font-family="Helvetica,sans-Serif" font-size="10.00">/home/alejandro/Desarrollo</text>
<text text-anchor="middle" x="1434.5" y="-74.5" font-family="Helvetica,sans-Serif" font-size="10.00"> eclipse/os1/include/Tracking.h</text>
</a>
</g>
</g>
<!-- Node15&#45;&gt;Node17 -->
<g id="edge27" class="edge"><title>Node15&#45;&gt;Node17</title>
<path fill="none" stroke="midnightblue" d="M1301.72,-219.018C1340.09,-211.008 1381.79,-195.313 1409.5,-165 1426.43,-146.481 1427.74,-115.485 1429.66,-97.5287"/>
<polygon fill="midnightblue" stroke="midnightblue" points="1300.68,-215.654 1291.52,-220.987 1302.01,-222.527 1300.68,-215.654"/>
</g>
<!-- Node22 -->
<g id="node20" class="node"><title>Node22</title>
<g id="a_node20"><a xlink:href="_local_mapping_8cc.html" target="_top" xlink:title="/home/alejandro/Desarrollo\l eclipse/os1/src/LocalMapping.cc">
<polygon fill="white" stroke="black" points="1090.5,-67.5 1090.5,-97.5 1252.5,-97.5 1252.5,-67.5 1090.5,-67.5"/>
<text text-anchor="start" x="1098.5" y="-85.5" font-family="Helvetica,sans-Serif" font-size="10.00">/home/alejandro/Desarrollo</text>
<text text-anchor="middle" x="1171.5" y="-74.5" font-family="Helvetica,sans-Serif" font-size="10.00"> eclipse/os1/src/LocalMapping.cc</text>
</a>
</g>
</g>
<!-- Node15&#45;&gt;Node22 -->
<g id="edge34" class="edge"><title>Node15&#45;&gt;Node22</title>
<path fill="none" stroke="midnightblue" d="M1201.38,-202.194C1193.82,-172.159 1181.2,-122.048 1175.07,-97.6766"/>
<polygon fill="midnightblue" stroke="midnightblue" points="1198.08,-203.423 1203.92,-212.266 1204.87,-201.714 1198.08,-203.423"/>
</g>
<!-- Node15&#45;&gt;Node23 -->
<g id="edge28" class="edge"><title>Node15&#45;&gt;Node23</title>
<path fill="none" stroke="midnightblue" d="M1160,-208.892C1123.63,-195.405 1074.11,-177.049 1040.37,-164.541"/>
<polygon fill="midnightblue" stroke="midnightblue" points="1158.83,-212.189 1169.42,-212.383 1161.26,-205.625 1158.83,-212.189"/>
</g>
<!-- Node16&#45;&gt;Node12 -->
<g id="edge26" class="edge"><title>Node16&#45;&gt;Node12</title>
<path fill="none" stroke="midnightblue" d="M1319.41,-124.501C1316,-106.744 1308.95,-82.9658 1294.5,-67 1279.13,-50.0188 1256.91,-38.343 1236.45,-30.5332"/>
<polygon fill="midnightblue" stroke="midnightblue" points="1315.96,-125.115 1321.06,-134.405 1322.87,-123.967 1315.96,-125.115"/>
</g>
<!-- Node16&#45;&gt;Node15 -->
<g id="edge15" class="edge"><title>Node16&#45;&gt;Node15</title>
<path fill="none" stroke="midnightblue" d="M1298.29,-170.484C1279.49,-183.661 1253.65,-200.599 1234.25,-212.383"/>
<polygon fill="midnightblue" stroke="midnightblue" points="1300.52,-173.193 1306.63,-164.541 1296.46,-167.491 1300.52,-173.193"/>
</g>
<!-- Node16&#45;&gt;Node17 -->
<g id="edge16" class="edge"><title>Node16&#45;&gt;Node17</title>
<path fill="none" stroke="midnightblue" d="M1349.83,-129.015C1366.43,-118.9 1387.52,-106.77 1404.57,-97.5765"/>
<polygon fill="midnightblue" stroke="midnightblue" points="1347.79,-126.161 1341.12,-134.396 1351.47,-132.116 1347.79,-126.161"/>
</g>
<!-- Node16&#45;&gt;Node22 -->
<g id="edge25" class="edge"><title>Node16&#45;&gt;Node22</title>
<path fill="none" stroke="midnightblue" d="M1280.47,-130.407C1256.36,-120.029 1226.55,-107.195 1204.2,-97.5765"/>
<polygon fill="midnightblue" stroke="midnightblue" points="1279.17,-133.657 1289.74,-134.396 1281.93,-127.227 1279.17,-133.657"/>
</g>
<!-- Node17&#45;&gt;Node12 -->
<g id="edge22" class="edge"><title>Node17&#45;&gt;Node12</title>
<path fill="none" stroke="midnightblue" d="M1370.72,-64.9171C1329.92,-54.3099 1277.57,-40.6988 1238.77,-30.6109"/>
<polygon fill="midnightblue" stroke="midnightblue" points="1370,-68.347 1380.56,-67.476 1371.76,-61.5722 1370,-68.347"/>
</g>
<!-- Node17&#45;&gt;Node13 -->
<g id="edge23" class="edge"><title>Node17&#45;&gt;Node13</title>
<path fill="none" stroke="midnightblue" d="M1348.06,-70.9391C1243.45,-58.1576 1069.33,-36.8838 972.644,-25.0702"/>
<polygon fill="midnightblue" stroke="midnightblue" points="1347.93,-74.4484 1358.28,-72.1871 1348.78,-67.5 1347.93,-74.4484"/>
</g>
<!-- Node17&#45;&gt;Node15 -->
<g id="edge17" class="edge"><title>Node17&#45;&gt;Node15</title>
<path fill="none" stroke="midnightblue" d="M1443.41,-107.56C1444.86,-125.546 1441.58,-149.591 1427.5,-165 1393.45,-202.247 1338.27,-217.423 1291.64,-223.392"/>
<polygon fill="midnightblue" stroke="midnightblue" points="1446.86,-106.949 1442.01,-97.5287 1439.93,-107.917 1446.86,-106.949"/>
</g>
<!-- Node17&#45;&gt;Node16 -->
<g id="edge18" class="edge"><title>Node17&#45;&gt;Node16</title>
<path fill="none" stroke="midnightblue" d="M1407.22,-102.955C1390.63,-113.066 1369.54,-125.197 1352.48,-134.396"/>
<polygon fill="midnightblue" stroke="midnightblue" points="1409.25,-105.812 1415.92,-97.5765 1405.57,-99.8575 1409.25,-105.812"/>
</g>
<!-- Node18 -->
<g id="node16" class="node"><title>Node18</title>
<g id="a_node16"><a xlink:href="_frame_drawer_8cc.html" target="_top" xlink:title="/home/alejandro/Desarrollo\l eclipse/os1/src/FrameDrawer.cc">
<polygon fill="white" stroke="black" points="1271,-0.5 1271,-30.5 1432,-30.5 1432,-0.5 1271,-0.5"/>
<text text-anchor="start" x="1279" y="-18.5" font-family="Helvetica,sans-Serif" font-size="10.00">/home/alejandro/Desarrollo</text>
<text text-anchor="middle" x="1351.5" y="-7.5" font-family="Helvetica,sans-Serif" font-size="10.00"> eclipse/os1/src/FrameDrawer.cc</text>
</a>
</g>
</g>
<!-- Node17&#45;&gt;Node18 -->
<g id="edge19" class="edge"><title>Node17&#45;&gt;Node18</title>
<path fill="none" stroke="midnightblue" d="M1408.54,-61.1677C1395.85,-51.2283 1380.89,-39.5144 1369.47,-30.5765"/>
<polygon fill="midnightblue" stroke="midnightblue" points="1406.46,-63.9859 1416.49,-67.396 1410.78,-58.4747 1406.46,-63.9859"/>
</g>
<!-- Node19 -->
<g id="node17" class="node"><title>Node19</title>
<g id="a_node17"><a xlink:href="main_8cc.html" target="_top" xlink:title="/home/alejandro/Desarrollo\l eclipse/os1/src/main.cc">
<polygon fill="white" stroke="black" points="1450,-0.5 1450,-30.5 1583,-30.5 1583,-0.5 1450,-0.5"/>
<text text-anchor="start" x="1458" y="-18.5" font-family="Helvetica,sans-Serif" font-size="10.00">/home/alejandro/Desarrollo</text>
<text text-anchor="middle" x="1516.5" y="-7.5" font-family="Helvetica,sans-Serif" font-size="10.00"> eclipse/os1/src/main.cc</text>
</a>
</g>
</g>
<!-- Node17&#45;&gt;Node19 -->
<g id="edge20" class="edge"><title>Node17&#45;&gt;Node19</title>
<path fill="none" stroke="midnightblue" d="M1460.15,-61.1677C1472.69,-51.2283 1487.47,-39.5144 1498.74,-30.5765"/>
<polygon fill="midnightblue" stroke="midnightblue" points="1457.96,-58.4412 1452.29,-67.396 1462.3,-63.9268 1457.96,-58.4412"/>
</g>
<!-- Node20 -->
<g id="node18" class="node"><title>Node20</title>
<g id="a_node18"><a xlink:href="_serializer_8cpp.html" target="_top" xlink:title="/home/alejandro/Desarrollo\l eclipse/os1/src/Serializer.cpp">
<polygon fill="white" stroke="black" points="1601.5,-0.5 1601.5,-30.5 1749.5,-30.5 1749.5,-0.5 1601.5,-0.5"/>
<text text-anchor="start" x="1609.5" y="-18.5" font-family="Helvetica,sans-Serif" font-size="10.00">/home/alejandro/Desarrollo</text>
<text text-anchor="middle" x="1675.5" y="-7.5" font-family="Helvetica,sans-Serif" font-size="10.00"> eclipse/os1/src/Serializer.cpp</text>
</a>
</g>
</g>
<!-- Node17&#45;&gt;Node20 -->
<g id="edge21" class="edge"><title>Node17&#45;&gt;Node20</title>
<path fill="none" stroke="midnightblue" d="M1496.23,-64.8498C1535.53,-54.2523 1585.86,-40.6775 1623.18,-30.6109"/>
<polygon fill="midnightblue" stroke="midnightblue" points="1495.24,-61.4926 1486.5,-67.476 1497.06,-68.2511 1495.24,-61.4926"/>
</g>
<!-- Node21 -->
<g id="node19" class="node"><title>Node21</title>
<g id="a_node19"><a xlink:href="_viewer_8cc.html" target="_top" xlink:title="/home/alejandro/Desarrollo\l eclipse/os1/src/Viewer.cc">
<polygon fill="white" stroke="black" points="1768,-0.5 1768,-30.5 1901,-30.5 1901,-0.5 1768,-0.5"/>
<text text-anchor="start" x="1776" y="-18.5" font-family="Helvetica,sans-Serif" font-size="10.00">/home/alejandro/Desarrollo</text>
<text text-anchor="middle" x="1834.5" y="-7.5" font-family="Helvetica,sans-Serif" font-size="10.00"> eclipse/os1/src/Viewer.cc</text>
</a>
</g>
</g>
<!-- Node17&#45;&gt;Node21 -->
<g id="edge24" class="edge"><title>Node17&#45;&gt;Node21</title>
<path fill="none" stroke="midnightblue" d="M1520.81,-68.8603C1586.16,-59.0932 1678.1,-44.9313 1758.5,-31 1761.54,-30.4725 1764.65,-29.9228 1767.8,-29.3591"/>
<polygon fill="midnightblue" stroke="midnightblue" points="1519.93,-65.4528 1510.56,-70.3895 1520.97,-72.3762 1519.93,-65.4528"/>
</g>
<!-- Node23&#45;&gt;Node10 -->
<g id="edge31" class="edge"><title>Node23&#45;&gt;Node10</title>
<path fill="none" stroke="midnightblue" d="M948.446,-131.444C915.054,-120.908 872.718,-107.549 841.221,-97.6109"/>
<polygon fill="midnightblue" stroke="midnightblue" points="947.465,-134.805 958.055,-134.476 949.571,-128.129 947.465,-134.805"/>
</g>
<!-- Node23&#45;&gt;Node11 -->
<g id="edge32" class="edge"><title>Node23&#45;&gt;Node11</title>
<path fill="none" stroke="midnightblue" d="M914.541,-133.492C856.34,-123.524 778.345,-110.095 709.5,-98 706.686,-97.5056 703.817,-97 700.919,-96.4879"/>
<polygon fill="midnightblue" stroke="midnightblue" points="913.991,-136.949 924.438,-135.187 915.172,-130.049 913.991,-136.949"/>
</g>
<!-- Node23&#45;&gt;Node13 -->
<g id="edge33" class="edge"><title>Node23&#45;&gt;Node13</title>
<path fill="none" stroke="midnightblue" d="M958.662,-129.534C944.927,-121.62 930.915,-111.155 921.5,-98 906.956,-77.6787 903.379,-47.8737 902.597,-30.5022"/>
<polygon fill="midnightblue" stroke="midnightblue" points="957.136,-132.688 967.596,-134.369 960.467,-126.532 957.136,-132.688"/>
</g>
<!-- Node23&#45;&gt;Node22 -->
<g id="edge30" class="edge"><title>Node23&#45;&gt;Node22</title>
<path fill="none" stroke="midnightblue" d="M1048.83,-130.682C1075.93,-120.257 1109.67,-107.281 1134.9,-97.5765"/>
<polygon fill="midnightblue" stroke="midnightblue" points="1047.25,-127.539 1039.17,-134.396 1049.76,-134.073 1047.25,-127.539"/>
</g>
<!-- Node24 -->
<g id="node22" class="node"><title>Node24</title>
<g id="a_node22"><a xlink:href="_initializer_8cc.html" target="_top" xlink:title="/home/alejandro/Desarrollo\l eclipse/os1/src/Initializer.cc">
<polygon fill="white" stroke="black" points="931,-67.5 931,-97.5 1072,-97.5 1072,-67.5 931,-67.5"/>
<text text-anchor="start" x="939" y="-85.5" font-family="Helvetica,sans-Serif" font-size="10.00">/home/alejandro/Desarrollo</text>
<text text-anchor="middle" x="1001.5" y="-74.5" font-family="Helvetica,sans-Serif" font-size="10.00"> eclipse/os1/src/Initializer.cc</text>
</a>
</g>
</g>
<!-- Node23&#45;&gt;Node24 -->
<g id="edge29" class="edge"><title>Node23&#45;&gt;Node24</title>
<path fill="none" stroke="midnightblue" d="M1002.12,-124.108C1001.99,-115.154 1001.84,-105.323 1001.72,-97.5765"/>
<polygon fill="midnightblue" stroke="midnightblue" points="998.63,-124.451 1002.28,-134.396 1005.63,-124.343 998.63,-124.451"/>
</g>
<!-- Node27&#45;&gt;Node5 -->
<g id="edge44" class="edge"><title>Node27&#45;&gt;Node5</title>
<path fill="none" stroke="midnightblue" d="M501.28,-464.16C504.781,-453.658 508.694,-441.919 512.071,-431.788"/>
<polygon fill="midnightblue" stroke="midnightblue" points="497.923,-463.165 498.081,-473.758 504.563,-465.378 497.923,-463.165"/>
</g>
<!-- Node28&#45;&gt;Node11 -->
<g id="edge46" class="edge"><title>Node28&#45;&gt;Node11</title>
<path fill="none" stroke="midnightblue" d="M867.251,-463.779C878.281,-407.527 894.038,-283.733 841.5,-201 805.956,-145.027 733.896,-113.515 683.479,-97.5133"/>
<polygon fill="midnightblue" stroke="midnightblue" points="863.779,-463.285 865.197,-473.784 870.636,-464.693 863.779,-463.285"/>
</g>
<!-- Node29 -->
<g id="node27" class="node"><title>Node29</title>
<g id="a_node27"><a xlink:href="robust__kernel__impl_8cpp.html" target="_top" xlink:title="/home/alejandro/Desarrollo\l eclipse/os1/Thirdparty\l/g2o/g2o/core/robust_kernel\l_impl.cpp">
<polygon fill="white" stroke="black" points="889,-379.5 889,-431.5 1026,-431.5 1026,-379.5 889,-379.5"/>
<text text-anchor="start" x="897" y="-419.5" font-family="Helvetica,sans-Serif" font-size="10.00">/home/alejandro/Desarrollo</text>
<text text-anchor="start" x="897" y="-408.5" font-family="Helvetica,sans-Serif" font-size="10.00"> eclipse/os1/Thirdparty</text>
<text text-anchor="start" x="897" y="-397.5" font-family="Helvetica,sans-Serif" font-size="10.00">/g2o/g2o/core/robust_kernel</text>
<text text-anchor="middle" x="957.5" y="-386.5" font-family="Helvetica,sans-Serif" font-size="10.00">_impl.cpp</text>
</a>
</g>
</g>
<!-- Node28&#45;&gt;Node29 -->
<g id="edge47" class="edge"><title>Node28&#45;&gt;Node29</title>
<path fill="none" stroke="midnightblue" d="M889.991,-467.05C902.478,-455.85 916.962,-442.859 929.305,-431.788"/>
<polygon fill="midnightblue" stroke="midnightblue" points="887.618,-464.476 882.511,-473.758 892.292,-469.687 887.618,-464.476"/>
</g>
</g>
</svg>
