<?xml version="1.0" encoding="UTF-8" standalone="no"?>
<!DOCTYPE svg PUBLIC "-//W3C//DTD SVG 1.1//EN"
 "http://www.w3.org/Graphics/SVG/1.1/DTD/svg11.dtd">
<!-- Generated by graphviz version 2.38.0 (20140413.2041)
 -->
<!-- Title: /home/alejandro/Desarrollo eclipse/os1/Thirdparty/g2o/g2o/core/robust_kernel_factory.h Pages: 1 -->
<svg width="356pt" height="229pt"
 viewBox="0.00 0.00 355.50 229.00" xmlns="http://www.w3.org/2000/svg" xmlns:xlink="http://www.w3.org/1999/xlink">
<g id="graph0" class="graph" transform="scale(1 1) rotate(0) translate(4 225)">
<title>/home/alejandro/Desarrollo eclipse/os1/Thirdparty/g2o/g2o/core/robust_kernel_factory.h</title>
<polygon fill="white" stroke="none" points="-4,4 -4,-225 351.5,-225 351.5,4 -4,4"/>
<!-- Node0 -->
<g id="node1" class="node"><title>Node0</title>
<polygon fill="#bfbfbf" stroke="black" points="127,-168.5 127,-220.5 264,-220.5 264,-168.5 127,-168.5"/>
<text text-anchor="start" x="135" y="-208.5" font-family="Helvetica,sans-Serif" font-size="10.00">/home/alejandro/Desarrollo</text>
<text text-anchor="start" x="135" y="-197.5" font-family="Helvetica,sans-Serif" font-size="10.00"> eclipse/os1/Thirdparty</text>
<text text-anchor="start" x="135" y="-186.5" font-family="Helvetica,sans-Serif" font-size="10.00">/g2o/g2o/core/robust_kernel</text>
<text text-anchor="middle" x="195.5" y="-175.5" font-family="Helvetica,sans-Serif" font-size="10.00">_factory.h</text>
</g>
<!-- Node1 -->
<g id="node2" class="node"><title>Node1</title>
<g id="a_node2"><a xlink:href="misc_8h.html" target="_top" xlink:title="some general case utility functions ">
<polygon fill="white" stroke="black" points="24,-112.5 24,-131.5 101,-131.5 101,-112.5 24,-112.5"/>
<text text-anchor="middle" x="62.5" y="-119.5" font-family="Helvetica,sans-Serif" font-size="10.00">../stuff/misc.h</text>
</a>
</g>
</g>
<!-- Node0&#45;&gt;Node1 -->
<g id="edge1" class="edge"><title>Node0&#45;&gt;Node1</title>
<path fill="none" stroke="midnightblue" d="M148.235,-168.446C127.888,-157.66 104.912,-145.481 87.8699,-136.448"/>
<polygon fill="midnightblue" stroke="midnightblue" points="89.061,-133.118 78.5863,-131.527 85.7826,-139.303 89.061,-133.118"/>
</g>
<!-- Node5 -->
<g id="node6" class="node"><title>Node5</title>
<polygon fill="white" stroke="#bfbfbf" points="119,-112.5 119,-131.5 160,-131.5 160,-112.5 119,-112.5"/>
<text text-anchor="middle" x="139.5" y="-119.5" font-family="Helvetica,sans-Serif" font-size="10.00">string</text>
</g>
<!-- Node0&#45;&gt;Node5 -->
<g id="edge5" class="edge"><title>Node0&#45;&gt;Node5</title>
<path fill="none" stroke="midnightblue" d="M175.599,-168.446C168.039,-158.929 159.618,-148.327 152.811,-139.758"/>
<polygon fill="midnightblue" stroke="midnightblue" points="155.368,-137.349 146.407,-131.695 149.886,-141.703 155.368,-137.349"/>
</g>
<!-- Node6 -->
<g id="node7" class="node"><title>Node6</title>
<polygon fill="white" stroke="#bfbfbf" points="178,-112.5 178,-131.5 213,-131.5 213,-112.5 178,-112.5"/>
<text text-anchor="middle" x="195.5" y="-119.5" font-family="Helvetica,sans-Serif" font-size="10.00">map</text>
</g>
<!-- Node0&#45;&gt;Node6 -->
<g id="edge6" class="edge"><title>Node0&#45;&gt;Node6</title>
<path fill="none" stroke="midnightblue" d="M195.5,-168.446C195.5,-159.73 195.5,-150.104 195.5,-141.964"/>
<polygon fill="midnightblue" stroke="midnightblue" points="199,-141.695 195.5,-131.695 192,-141.696 199,-141.695"/>
</g>
<!-- Node7 -->
<g id="node8" class="node"><title>Node7</title>
<polygon fill="white" stroke="#bfbfbf" points="231.5,-112.5 231.5,-131.5 275.5,-131.5 275.5,-112.5 231.5,-112.5"/>
<text text-anchor="middle" x="253.5" y="-119.5" font-family="Helvetica,sans-Serif" font-size="10.00">vector</text>
</g>
<!-- Node0&#45;&gt;Node7 -->
<g id="edge7" class="edge"><title>Node0&#45;&gt;Node7</title>
<path fill="none" stroke="midnightblue" d="M216.112,-168.446C224.024,-158.828 232.848,-148.103 239.935,-139.488"/>
<polygon fill="midnightblue" stroke="midnightblue" points="242.696,-141.642 246.346,-131.695 237.29,-137.194 242.696,-141.642"/>
</g>
<!-- Node8 -->
<g id="node9" class="node"><title>Node8</title>
<polygon fill="white" stroke="#bfbfbf" points="293.5,-112.5 293.5,-131.5 347.5,-131.5 347.5,-112.5 293.5,-112.5"/>
<text text-anchor="middle" x="320.5" y="-119.5" font-family="Helvetica,sans-Serif" font-size="10.00">iostream</text>
</g>
<!-- Node0&#45;&gt;Node8 -->
<g id="edge8" class="edge"><title>Node0&#45;&gt;Node8</title>
<path fill="none" stroke="midnightblue" d="M239.922,-168.446C259.046,-157.66 280.639,-145.481 296.656,-136.448"/>
<polygon fill="midnightblue" stroke="midnightblue" points="298.39,-139.488 305.381,-131.527 294.952,-133.391 298.39,-139.488"/>
</g>
<!-- Node2 -->
<g id="node3" class="node"><title>Node2</title>
<g id="a_node3"><a xlink:href="macros_8h.html" target="_top" xlink:title="macros.h">
<polygon fill="white" stroke="black" points="0,-56.5 0,-75.5 57,-75.5 57,-56.5 0,-56.5"/>
<text text-anchor="middle" x="28.5" y="-63.5" font-family="Helvetica,sans-Serif" font-size="10.00">macros.h</text>
</a>
</g>
</g>
<!-- Node1&#45;&gt;Node2 -->
<g id="edge2" class="edge"><title>Node1&#45;&gt;Node2</title>
<path fill="none" stroke="midnightblue" d="M56.8856,-112.083C52.1326,-104.534 45.1819,-93.4948 39.3484,-84.2298"/>
<polygon fill="midnightblue" stroke="midnightblue" points="42.2999,-82.3486 34.0099,-75.7511 36.3763,-86.0783 42.2999,-82.3486"/>
</g>
<!-- Node4 -->
<g id="node5" class="node"><title>Node4</title>
<polygon fill="white" stroke="#bfbfbf" points="75.5,-56.5 75.5,-75.5 119.5,-75.5 119.5,-56.5 75.5,-56.5"/>
<text text-anchor="middle" x="97.5" y="-63.5" font-family="Helvetica,sans-Serif" font-size="10.00">cmath</text>
</g>
<!-- Node1&#45;&gt;Node4 -->
<g id="edge4" class="edge"><title>Node1&#45;&gt;Node4</title>
<path fill="none" stroke="midnightblue" d="M68.2795,-112.083C73.1724,-104.534 80.3274,-93.4948 86.3326,-84.2298"/>
<polygon fill="midnightblue" stroke="midnightblue" points="89.326,-86.0463 91.828,-75.7511 83.452,-82.239 89.326,-86.0463"/>
</g>
<!-- Node3 -->
<g id="node4" class="node"><title>Node3</title>
<polygon fill="white" stroke="#bfbfbf" points="5,-0.5 5,-19.5 52,-19.5 52,-0.5 5,-0.5"/>
<text text-anchor="middle" x="28.5" y="-7.5" font-family="Helvetica,sans-Serif" font-size="10.00">math.h</text>
</g>
<!-- Node2&#45;&gt;Node3 -->
<g id="edge3" class="edge"><title>Node2&#45;&gt;Node3</title>
<path fill="none" stroke="midnightblue" d="M28.5,-56.083C28.5,-49.0059 28.5,-38.8611 28.5,-29.9865"/>
<polygon fill="midnightblue" stroke="midnightblue" points="32.0001,-29.751 28.5,-19.7511 25.0001,-29.7511 32.0001,-29.751"/>
</g>
</g>
</svg>
