<?xml version="1.0" encoding="UTF-8" standalone="no"?>
<!DOCTYPE svg PUBLIC "-//W3C//DTD SVG 1.1//EN"
 "http://www.w3.org/Graphics/SVG/1.1/DTD/svg11.dtd">
<!-- Generated by graphviz version 2.38.0 (20140413.2041)
 -->
<!-- Title: /home/alejandro/Desarrollo eclipse/os1/Thirdparty/g2o/g2o/types/se3_ops.hpp Pages: 1 -->
<svg width="1908pt" height="674pt"
 viewBox="0.00 0.00 1908.00 674.00" xmlns="http://www.w3.org/2000/svg" xmlns:xlink="http://www.w3.org/1999/xlink">
<g id="graph0" class="graph" transform="scale(1 1) rotate(0) translate(4 670)">
<title>/home/alejandro/Desarrollo eclipse/os1/Thirdparty/g2o/g2o/types/se3_ops.hpp</title>
<polygon fill="white" stroke="none" points="-4,4 -4,-670 1904,-670 1904,4 -4,4"/>
<!-- Node1 -->
<g id="node1" class="node"><title>Node1</title>
<polygon fill="#bfbfbf" stroke="black" points="595.5,-624.5 595.5,-665.5 735.5,-665.5 735.5,-624.5 595.5,-624.5"/>
<text text-anchor="start" x="603.5" y="-653.5" font-family="Helvetica,sans-Serif" font-size="10.00">/home/alejandro/Desarrollo</text>
<text text-anchor="start" x="603.5" y="-642.5" font-family="Helvetica,sans-Serif" font-size="10.00"> eclipse/os1/Thirdparty</text>
<text text-anchor="middle" x="665.5" y="-631.5" font-family="Helvetica,sans-Serif" font-size="10.00">/g2o/g2o/types/se3_ops.hpp</text>
</g>
<!-- Node2 -->
<g id="node2" class="node"><title>Node2</title>
<g id="a_node2"><a xlink:href="se3__ops_8h.html" target="_top" xlink:title="/home/alejandro/Desarrollo\l eclipse/os1/Thirdparty\l/g2o/g2o/types/se3_ops.h">
<polygon fill="white" stroke="black" points="599,-546.5 599,-587.5 732,-587.5 732,-546.5 599,-546.5"/>
<text text-anchor="start" x="607" y="-575.5" font-family="Helvetica,sans-Serif" font-size="10.00">/home/alejandro/Desarrollo</text>
<text text-anchor="start" x="607" y="-564.5" font-family="Helvetica,sans-Serif" font-size="10.00"> eclipse/os1/Thirdparty</text>
<text text-anchor="middle" x="665.5" y="-553.5" font-family="Helvetica,sans-Serif" font-size="10.00">/g2o/g2o/types/se3_ops.h</text>
</a>
</g>
</g>
<!-- Node1&#45;&gt;Node2 -->
<g id="edge1" class="edge"><title>Node1&#45;&gt;Node2</title>
<path fill="none" stroke="midnightblue" d="M665.5,-614.297C665.5,-605.301 665.5,-595.653 665.5,-587.506"/>
<polygon fill="midnightblue" stroke="midnightblue" points="662,-614.428 665.5,-624.428 669,-614.428 662,-614.428"/>
</g>
<!-- Node3 -->
<g id="node3" class="node"><title>Node3</title>
<g id="a_node3"><a xlink:href="types__six__dof__expmap_8h.html" target="_top" xlink:title="/home/alejandro/Desarrollo\l eclipse/os1/Thirdparty\l/g2o/g2o/types/types_six\l_dof_expmap.h">
<polygon fill="white" stroke="black" points="523,-379.5 523,-431.5 656,-431.5 656,-379.5 523,-379.5"/>
<text text-anchor="start" x="531" y="-419.5" font-family="Helvetica,sans-Serif" font-size="10.00">/home/alejandro/Desarrollo</text>
<text text-anchor="start" x="531" y="-408.5" font-family="Helvetica,sans-Serif" font-size="10.00"> eclipse/os1/Thirdparty</text>
<text text-anchor="start" x="531" y="-397.5" font-family="Helvetica,sans-Serif" font-size="10.00">/g2o/g2o/types/types_six</text>
<text text-anchor="middle" x="589.5" y="-386.5" font-family="Helvetica,sans-Serif" font-size="10.00">_dof_expmap.h</text>
</a>
</g>
</g>
<!-- Node2&#45;&gt;Node3 -->
<g id="edge2" class="edge"><title>Node2&#45;&gt;Node3</title>
<path fill="none" stroke="midnightblue" d="M616.643,-540.44C605.75,-532.266 595.626,-522.123 589.5,-510 577.182,-485.623 579.492,-453.706 583.401,-431.796"/>
<polygon fill="midnightblue" stroke="midnightblue" points="614.862,-543.465 625.068,-546.307 618.862,-537.72 614.862,-543.465"/>
</g>
<!-- Node25 -->
<g id="node25" class="node"><title>Node25</title>
<g id="a_node25"><a xlink:href="se3quat_8h.html" target="_top" xlink:title="/home/alejandro/Desarrollo\l eclipse/os1/Thirdparty\l/g2o/g2o/types/se3quat.h">
<polygon fill="white" stroke="black" points="599,-468.5 599,-509.5 732,-509.5 732,-468.5 599,-468.5"/>
<text text-anchor="start" x="607" y="-497.5" font-family="Helvetica,sans-Serif" font-size="10.00">/home/alejandro/Desarrollo</text>
<text text-anchor="start" x="607" y="-486.5" font-family="Helvetica,sans-Serif" font-size="10.00"> eclipse/os1/Thirdparty</text>
<text text-anchor="middle" x="665.5" y="-475.5" font-family="Helvetica,sans-Serif" font-size="10.00">/g2o/g2o/types/se3quat.h</text>
</a>
</g>
</g>
<!-- Node2&#45;&gt;Node25 -->
<g id="edge42" class="edge"><title>Node2&#45;&gt;Node25</title>
<path fill="none" stroke="midnightblue" d="M665.5,-536.297C665.5,-527.301 665.5,-517.653 665.5,-509.506"/>
<polygon fill="midnightblue" stroke="midnightblue" points="662,-536.428 665.5,-546.428 669,-536.428 662,-536.428"/>
</g>
<!-- Node26 -->
<g id="node26" class="node"><title>Node26</title>
<g id="a_node26"><a xlink:href="sim3_8h.html" target="_top" xlink:title="/home/alejandro/Desarrollo\l eclipse/os1/Thirdparty\l/g2o/g2o/types/sim3.h">
<polygon fill="white" stroke="black" points="694,-385 694,-426 827,-426 827,-385 694,-385"/>
<text text-anchor="start" x="702" y="-414" font-family="Helvetica,sans-Serif" font-size="10.00">/home/alejandro/Desarrollo</text>
<text text-anchor="start" x="702" y="-403" font-family="Helvetica,sans-Serif" font-size="10.00"> eclipse/os1/Thirdparty</text>
<text text-anchor="middle" x="760.5" y="-392" font-family="Helvetica,sans-Serif" font-size="10.00">/g2o/g2o/types/sim3.h</text>
</a>
</g>
</g>
<!-- Node2&#45;&gt;Node26 -->
<g id="edge44" class="edge"><title>Node2&#45;&gt;Node26</title>
<path fill="none" stroke="midnightblue" d="M710.617,-540.639C721.944,-532.259 732.997,-521.964 740.5,-510 756.641,-484.263 760.259,-448.385 760.807,-426.339"/>
<polygon fill="midnightblue" stroke="midnightblue" points="708.563,-537.804 702.368,-546.399 712.571,-543.544 708.563,-537.804"/>
</g>
<!-- Node4 -->
<g id="node4" class="node"><title>Node4</title>
<g id="a_node4"><a xlink:href="_converter_8h.html" target="_top" xlink:title="/home/alejandro/Desarrollo\l eclipse/os1/include/Converter.h">
<polygon fill="white" stroke="black" points="358,-134.5 358,-164.5 515,-164.5 515,-134.5 358,-134.5"/>
<text text-anchor="start" x="366" y="-152.5" font-family="Helvetica,sans-Serif" font-size="10.00">/home/alejandro/Desarrollo</text>
<text text-anchor="middle" x="436.5" y="-141.5" font-family="Helvetica,sans-Serif" font-size="10.00"> eclipse/os1/include/Converter.h</text>
</a>
</g>
</g>
<!-- Node3&#45;&gt;Node4 -->
<g id="edge3" class="edge"><title>Node3&#45;&gt;Node4</title>
<path fill="none" stroke="midnightblue" d="M513.259,-385.34C491.276,-376.104 469.479,-362.604 455.5,-343 415.92,-287.494 427.164,-198.973 433.516,-164.699"/>
<polygon fill="midnightblue" stroke="midnightblue" points="512.082,-388.638 522.669,-389.042 514.645,-382.124 512.082,-388.638"/>
</g>
<!-- Node9 -->
<g id="node9" class="node"><title>Node9</title>
<g id="a_node9"><a xlink:href="_optimizer_8cc.html" target="_top" xlink:title="/home/alejandro/Desarrollo\l eclipse/os1/src/Optimizer.cc">
<polygon fill="white" stroke="black" points="556.5,-67.5 556.5,-97.5 700.5,-97.5 700.5,-67.5 556.5,-67.5"/>
<text text-anchor="start" x="564.5" y="-85.5" font-family="Helvetica,sans-Serif" font-size="10.00">/home/alejandro/Desarrollo</text>
<text text-anchor="middle" x="628.5" y="-74.5" font-family="Helvetica,sans-Serif" font-size="10.00"> eclipse/os1/src/Optimizer.cc</text>
</a>
</g>
</g>
<!-- Node3&#45;&gt;Node9 -->
<g id="edge40" class="edge"><title>Node3&#45;&gt;Node9</title>
<path fill="none" stroke="midnightblue" d="M600.362,-369.562C602.705,-360.95 604.943,-351.699 606.5,-343 623.071,-250.427 627.238,-136.975 628.217,-97.6844"/>
<polygon fill="midnightblue" stroke="midnightblue" points="596.959,-368.734 597.598,-379.309 603.694,-370.643 596.959,-368.734"/>
</g>
<!-- Node12 -->
<g id="node12" class="node"><title>Node12</title>
<g id="a_node12"><a xlink:href="types__seven__dof__expmap_8h.html" target="_top" xlink:title="/home/alejandro/Desarrollo\l eclipse/os1/Thirdparty\l/g2o/g2o/types/types_seven\l_dof_expmap.h">
<polygon fill="white" stroke="black" points="690.5,-290.5 690.5,-342.5 830.5,-342.5 830.5,-290.5 690.5,-290.5"/>
<text text-anchor="start" x="698.5" y="-330.5" font-family="Helvetica,sans-Serif" font-size="10.00">/home/alejandro/Desarrollo</text>
<text text-anchor="start" x="698.5" y="-319.5" font-family="Helvetica,sans-Serif" font-size="10.00"> eclipse/os1/Thirdparty</text>
<text text-anchor="start" x="698.5" y="-308.5" font-family="Helvetica,sans-Serif" font-size="10.00">/g2o/g2o/types/types_seven</text>
<text text-anchor="middle" x="760.5" y="-297.5" font-family="Helvetica,sans-Serif" font-size="10.00">_dof_expmap.h</text>
</a>
</g>
</g>
<!-- Node3&#45;&gt;Node12 -->
<g id="edge11" class="edge"><title>Node3&#45;&gt;Node12</title>
<path fill="none" stroke="midnightblue" d="M647.922,-374.776C668.495,-364.309 691.4,-352.656 711.151,-342.607"/>
<polygon fill="midnightblue" stroke="midnightblue" points="646.286,-371.682 638.96,-379.336 649.46,-377.921 646.286,-371.682"/>
</g>
<!-- Node24 -->
<g id="node24" class="node"><title>Node24</title>
<g id="a_node24"><a xlink:href="types__six__dof__expmap_8cpp.html" target="_top" xlink:title="/home/alejandro/Desarrollo\l eclipse/os1/Thirdparty\l/g2o/g2o/types/types_six\l_dof_expmap.cpp">
<polygon fill="white" stroke="black" points="465,-290.5 465,-342.5 598,-342.5 598,-290.5 465,-290.5"/>
<text text-anchor="start" x="473" y="-330.5" font-family="Helvetica,sans-Serif" font-size="10.00">/home/alejandro/Desarrollo</text>
<text text-anchor="start" x="473" y="-319.5" font-family="Helvetica,sans-Serif" font-size="10.00"> eclipse/os1/Thirdparty</text>
<text text-anchor="start" x="473" y="-308.5" font-family="Helvetica,sans-Serif" font-size="10.00">/g2o/g2o/types/types_six</text>
<text text-anchor="middle" x="531.5" y="-297.5" font-family="Helvetica,sans-Serif" font-size="10.00">_dof_expmap.cpp</text>
</a>
</g>
</g>
<!-- Node3&#45;&gt;Node24 -->
<g id="edge41" class="edge"><title>Node3&#45;&gt;Node24</title>
<path fill="none" stroke="midnightblue" d="M567.118,-370.927C560.841,-361.511 554.126,-351.439 548.238,-342.607"/>
<polygon fill="midnightblue" stroke="midnightblue" points="564.265,-372.957 572.724,-379.336 570.089,-369.074 564.265,-372.957"/>
</g>
<!-- Node5 -->
<g id="node5" class="node"><title>Node5</title>
<g id="a_node5"><a xlink:href="_converter_8cc.html" target="_top" xlink:title="/home/alejandro/Desarrollo\l eclipse/os1/src/Converter.cc">
<polygon fill="white" stroke="black" points="204,-67.5 204,-97.5 349,-97.5 349,-67.5 204,-67.5"/>
<text text-anchor="start" x="212" y="-85.5" font-family="Helvetica,sans-Serif" font-size="10.00">/home/alejandro/Desarrollo</text>
<text text-anchor="middle" x="276.5" y="-74.5" font-family="Helvetica,sans-Serif" font-size="10.00"> eclipse/os1/src/Converter.cc</text>
</a>
</g>
</g>
<!-- Node4&#45;&gt;Node5 -->
<g id="edge4" class="edge"><title>Node4&#45;&gt;Node5</title>
<path fill="none" stroke="midnightblue" d="M392.301,-130.544C366.698,-120.143 334.932,-107.238 311.15,-97.5765"/>
<polygon fill="midnightblue" stroke="midnightblue" points="391.2,-133.875 401.782,-134.396 393.835,-127.39 391.2,-133.875"/>
</g>
<!-- Node6 -->
<g id="node6" class="node"><title>Node6</title>
<g id="a_node6"><a xlink:href="_frame_8cc.html" target="_top" xlink:title="/home/alejandro/Desarrollo\l eclipse/os1/src/Frame.cc">
<polygon fill="white" stroke="black" points="367,-67.5 367,-97.5 500,-97.5 500,-67.5 367,-67.5"/>
<text text-anchor="start" x="375" y="-85.5" font-family="Helvetica,sans-Serif" font-size="10.00">/home/alejandro/Desarrollo</text>
<text text-anchor="middle" x="433.5" y="-74.5" font-family="Helvetica,sans-Serif" font-size="10.00"> eclipse/os1/src/Frame.cc</text>
</a>
</g>
</g>
<!-- Node4&#45;&gt;Node6 -->
<g id="edge5" class="edge"><title>Node4&#45;&gt;Node6</title>
<path fill="none" stroke="midnightblue" d="M435.388,-124.403C434.971,-115.37 434.511,-105.408 434.15,-97.5765"/>
<polygon fill="midnightblue" stroke="midnightblue" points="431.892,-124.568 435.849,-134.396 438.884,-124.245 431.892,-124.568"/>
</g>
<!-- Node7 -->
<g id="node7" class="node"><title>Node7</title>
<g id="a_node7"><a xlink:href="_key_frame_8cc.html" target="_top" xlink:title="/home/alejandro/Desarrollo\l eclipse/os1/src/KeyFrame.cc">
<polygon fill="white" stroke="black" points="0,-67.5 0,-97.5 147,-97.5 147,-67.5 0,-67.5"/>
<text text-anchor="start" x="8" y="-85.5" font-family="Helvetica,sans-Serif" font-size="10.00">/home/alejandro/Desarrollo</text>
<text text-anchor="middle" x="73.5" y="-74.5" font-family="Helvetica,sans-Serif" font-size="10.00"> eclipse/os1/src/KeyFrame.cc</text>
</a>
</g>
</g>
<!-- Node4&#45;&gt;Node7 -->
<g id="edge6" class="edge"><title>Node4&#45;&gt;Node7</title>
<path fill="none" stroke="midnightblue" d="M348.076,-132.666C286.428,-121.628 205.139,-107.072 147.038,-96.668"/>
<polygon fill="midnightblue" stroke="midnightblue" points="347.721,-136.159 358.181,-134.476 348.955,-129.268 347.721,-136.159"/>
</g>
<!-- Node8 -->
<g id="node8" class="node"><title>Node8</title>
<g id="a_node8"><a xlink:href="_loop_closing_8cc.html" target="_top" xlink:title="/home/alejandro/Desarrollo\l eclipse/os1/src/LoopClosing.cc">
<polygon fill="white" stroke="black" points="718.5,-67.5 718.5,-97.5 874.5,-97.5 874.5,-67.5 718.5,-67.5"/>
<text text-anchor="start" x="726.5" y="-85.5" font-family="Helvetica,sans-Serif" font-size="10.00">/home/alejandro/Desarrollo</text>
<text text-anchor="middle" x="796.5" y="-74.5" font-family="Helvetica,sans-Serif" font-size="10.00"> eclipse/os1/src/LoopClosing.cc</text>
</a>
</g>
</g>
<!-- Node4&#45;&gt;Node8 -->
<g id="edge7" class="edge"><title>Node4&#45;&gt;Node8</title>
<path fill="none" stroke="midnightblue" d="M524.29,-132.649C583.698,-121.923 661.463,-107.882 718.658,-97.5549"/>
<polygon fill="midnightblue" stroke="midnightblue" points="523.39,-129.255 514.171,-134.476 524.634,-136.143 523.39,-129.255"/>
</g>
<!-- Node4&#45;&gt;Node9 -->
<g id="edge8" class="edge"><title>Node4&#45;&gt;Node9</title>
<path fill="none" stroke="midnightblue" d="M487.922,-131.092C518.916,-120.599 557.879,-107.408 586.92,-97.5765"/>
<polygon fill="midnightblue" stroke="midnightblue" points="486.511,-127.874 478.161,-134.396 488.755,-134.504 486.511,-127.874"/>
</g>
<!-- Node10 -->
<g id="node10" class="node"><title>Node10</title>
<g id="a_node10"><a xlink:href="_system_8cc.html" target="_top" xlink:title="/home/alejandro/Desarrollo\l eclipse/os1/src/System.cc">
<polygon fill="white" stroke="black" points="1115.5,-0.5 1115.5,-30.5 1251.5,-30.5 1251.5,-0.5 1115.5,-0.5"/>
<text text-anchor="start" x="1123.5" y="-18.5" font-family="Helvetica,sans-Serif" font-size="10.00">/home/alejandro/Desarrollo</text>
<text text-anchor="middle" x="1183.5" y="-7.5" font-family="Helvetica,sans-Serif" font-size="10.00"> eclipse/os1/src/System.cc</text>
</a>
</g>
</g>
<!-- Node4&#45;&gt;Node10 -->
<g id="edge9" class="edge"><title>Node4&#45;&gt;Node10</title>
<path fill="none" stroke="midnightblue" d="M465.504,-128.745C478.746,-119.576 494.553,-108.42 508.5,-98 526.238,-84.7479 526.9,-75.1187 547.5,-67 560.591,-61.8408 953.797,-33.0412 1115.28,-21.3917"/>
<polygon fill="midnightblue" stroke="midnightblue" points="463.465,-125.9 457.217,-134.456 467.437,-131.663 463.465,-125.9"/>
</g>
<!-- Node11 -->
<g id="node11" class="node"><title>Node11</title>
<g id="a_node11"><a xlink:href="_tracking_8cc.html" target="_top" xlink:title="/home/alejandro/Desarrollo\l eclipse/os1/src/Tracking.cc">
<polygon fill="white" stroke="black" points="832.5,-0.5 832.5,-30.5 972.5,-30.5 972.5,-0.5 832.5,-0.5"/>
<text text-anchor="start" x="840.5" y="-18.5" font-family="Helvetica,sans-Serif" font-size="10.00">/home/alejandro/Desarrollo</text>
<text text-anchor="middle" x="902.5" y="-7.5" font-family="Helvetica,sans-Serif" font-size="10.00"> eclipse/os1/src/Tracking.cc</text>
</a>
</g>
</g>
<!-- Node4&#45;&gt;Node11 -->
<g id="edge10" class="edge"><title>Node4&#45;&gt;Node11</title>
<path fill="none" stroke="midnightblue" d="M347.824,-145.235C259.781,-138.945 144.609,-120.576 194.5,-67 237.356,-20.9787 662.006,-16.2415 832.346,-16.2113"/>
<polygon fill="midnightblue" stroke="midnightblue" points="347.659,-148.732 357.871,-145.91 348.128,-141.748 347.659,-148.732"/>
</g>
<!-- Node12&#45;&gt;Node4 -->
<g id="edge12" class="edge"><title>Node12&#45;&gt;Node4</title>
<path fill="none" stroke="midnightblue" d="M702.101,-285.76C631.781,-249.949 516.595,-191.289 464.111,-164.561"/>
<polygon fill="midnightblue" stroke="midnightblue" points="700.792,-289.021 711.291,-290.44 703.969,-282.783 700.792,-289.021"/>
</g>
<!-- Node12&#45;&gt;Node9 -->
<g id="edge38" class="edge"><title>Node12&#45;&gt;Node9</title>
<path fill="none" stroke="midnightblue" d="M789.198,-282.197C795.063,-273.553 800.389,-263.879 803.5,-254 810.576,-231.532 814.581,-221.787 803.5,-201 775.268,-148.039 711.388,-114.712 669.121,-97.5986"/>
<polygon fill="midnightblue" stroke="midnightblue" points="786.241,-280.313 783.216,-290.467 791.913,-284.416 786.241,-280.313"/>
</g>
<!-- Node13 -->
<g id="node13" class="node"><title>Node13</title>
<g id="a_node13"><a xlink:href="_loop_closing_8h.html" target="_top" xlink:title="/home/alejandro/Desarrollo\l eclipse/os1/include/LoopClosing.h">
<polygon fill="white" stroke="black" points="1123.5,-212.5 1123.5,-242.5 1291.5,-242.5 1291.5,-212.5 1123.5,-212.5"/>
<text text-anchor="start" x="1131.5" y="-230.5" font-family="Helvetica,sans-Serif" font-size="10.00">/home/alejandro/Desarrollo</text>
<text text-anchor="middle" x="1207.5" y="-219.5" font-family="Helvetica,sans-Serif" font-size="10.00"> eclipse/os1/include/LoopClosing.h</text>
</a>
</g>
</g>
<!-- Node12&#45;&gt;Node13 -->
<g id="edge13" class="edge"><title>Node12&#45;&gt;Node13</title>
<path fill="none" stroke="midnightblue" d="M840.817,-299.868C924.6,-283.561 1054.75,-258.23 1135.35,-242.542"/>
<polygon fill="midnightblue" stroke="midnightblue" points="839.983,-296.464 830.835,-301.811 841.32,-303.336 839.983,-296.464"/>
</g>
<!-- Node21 -->
<g id="node21" class="node"><title>Node21</title>
<g id="a_node21"><a xlink:href="_optimizer_8h.html" target="_top" xlink:title="/home/alejandro/Desarrollo\l eclipse/os1/include/Optimizer.h">
<polygon fill="white" stroke="black" points="888.5,-134.5 888.5,-164.5 1044.5,-164.5 1044.5,-134.5 888.5,-134.5"/>
<text text-anchor="start" x="896.5" y="-152.5" font-family="Helvetica,sans-Serif" font-size="10.00">/home/alejandro/Desarrollo</text>
<text text-anchor="middle" x="966.5" y="-141.5" font-family="Helvetica,sans-Serif" font-size="10.00"> eclipse/os1/include/Optimizer.h</text>
</a>
</g>
</g>
<!-- Node12&#45;&gt;Node21 -->
<g id="edge37" class="edge"><title>Node12&#45;&gt;Node21</title>
<path fill="none" stroke="midnightblue" d="M799.843,-283.988C844.721,-248.042 916.12,-190.853 948.945,-164.561"/>
<polygon fill="midnightblue" stroke="midnightblue" points="797.404,-281.457 791.787,-290.44 801.78,-286.92 797.404,-281.457"/>
</g>
<!-- Node23 -->
<g id="node23" class="node"><title>Node23</title>
<g id="a_node23"><a xlink:href="types__seven__dof__expmap_8cpp.html" target="_top" xlink:title="/home/alejandro/Desarrollo\l eclipse/os1/Thirdparty\l/g2o/g2o/types/types_seven\l_dof_expmap.cpp">
<polygon fill="white" stroke="black" points="654.5,-201.5 654.5,-253.5 794.5,-253.5 794.5,-201.5 654.5,-201.5"/>
<text text-anchor="start" x="662.5" y="-241.5" font-family="Helvetica,sans-Serif" font-size="10.00">/home/alejandro/Desarrollo</text>
<text text-anchor="start" x="662.5" y="-230.5" font-family="Helvetica,sans-Serif" font-size="10.00"> eclipse/os1/Thirdparty</text>
<text text-anchor="start" x="662.5" y="-219.5" font-family="Helvetica,sans-Serif" font-size="10.00">/g2o/g2o/types/types_seven</text>
<text text-anchor="middle" x="724.5" y="-208.5" font-family="Helvetica,sans-Serif" font-size="10.00">_dof_expmap.cpp</text>
</a>
</g>
</g>
<!-- Node12&#45;&gt;Node23 -->
<g id="edge39" class="edge"><title>Node12&#45;&gt;Node23</title>
<path fill="none" stroke="midnightblue" d="M746.249,-281.061C742.457,-271.896 738.432,-262.169 734.889,-253.607"/>
<polygon fill="midnightblue" stroke="midnightblue" points="743.03,-282.434 750.087,-290.336 749.498,-279.758 743.03,-282.434"/>
</g>
<!-- Node13&#45;&gt;Node8 -->
<g id="edge35" class="edge"><title>Node13&#45;&gt;Node8</title>
<path fill="none" stroke="midnightblue" d="M1112.95,-223.35C1044.71,-217.704 952.179,-202.913 879.5,-165 847.987,-148.561 820.574,-116.204 806.518,-97.5865"/>
<polygon fill="midnightblue" stroke="midnightblue" points="1113.02,-226.866 1123.26,-224.149 1113.56,-219.887 1113.02,-226.866"/>
</g>
<!-- Node13&#45;&gt;Node10 -->
<g id="edge36" class="edge"><title>Node13&#45;&gt;Node10</title>
<path fill="none" stroke="midnightblue" d="M1208.77,-202.045C1210.63,-182.626 1215.23,-155.294 1226.5,-134 1236.94,-114.278 1253.11,-118.676 1261.5,-98 1266.68,-85.2342 1268.08,-79.1036 1261.5,-67 1252.56,-50.5607 1235.71,-38.6508 1219.95,-30.5408"/>
<polygon fill="midnightblue" stroke="midnightblue" points="1205.26,-201.95 1207.97,-212.194 1212.24,-202.499 1205.26,-201.95"/>
</g>
<!-- Node14 -->
<g id="node14" class="node"><title>Node14</title>
<g id="a_node14"><a xlink:href="_local_mapping_8h.html" target="_top" xlink:title="/home/alejandro/Desarrollo\l eclipse/os1/include/LocalMapping.h">
<polygon fill="white" stroke="black" points="1235.5,-134.5 1235.5,-164.5 1409.5,-164.5 1409.5,-134.5 1235.5,-134.5"/>
<text text-anchor="start" x="1243.5" y="-152.5" font-family="Helvetica,sans-Serif" font-size="10.00">/home/alejandro/Desarrollo</text>
<text text-anchor="middle" x="1322.5" y="-141.5" font-family="Helvetica,sans-Serif" font-size="10.00"> eclipse/os1/include/LocalMapping.h</text>
</a>
</g>
</g>
<!-- Node13&#45;&gt;Node14 -->
<g id="edge14" class="edge"><title>Node13&#45;&gt;Node14</title>
<path fill="none" stroke="midnightblue" d="M1232.04,-206.289C1250.74,-193.187 1276.29,-176.443 1295.56,-164.731"/>
<polygon fill="midnightblue" stroke="midnightblue" points="1229.84,-203.557 1223.72,-212.205 1233.9,-209.262 1229.84,-203.557"/>
</g>
<!-- Node15 -->
<g id="node15" class="node"><title>Node15</title>
<g id="a_node15"><a xlink:href="_tracking_8h.html" target="_top" xlink:title="/home/alejandro/Desarrollo\l eclipse/os1/include/Tracking.h">
<polygon fill="white" stroke="black" points="1357.5,-67.5 1357.5,-97.5 1509.5,-97.5 1509.5,-67.5 1357.5,-67.5"/>
<text text-anchor="start" x="1365.5" y="-85.5" font-family="Helvetica,sans-Serif" font-size="10.00">/home/alejandro/Desarrollo</text>
<text text-anchor="middle" x="1433.5" y="-74.5" font-family="Helvetica,sans-Serif" font-size="10.00"> eclipse/os1/include/Tracking.h</text>
</a>
</g>
</g>
<!-- Node13&#45;&gt;Node15 -->
<g id="edge27" class="edge"><title>Node13&#45;&gt;Node15</title>
<path fill="none" stroke="midnightblue" d="M1301.9,-219.183C1340.29,-211.198 1381.97,-195.477 1409.5,-165 1426.28,-146.423 1427.18,-115.448 1428.86,-97.5108"/>
<polygon fill="midnightblue" stroke="midnightblue" points="1300.86,-215.819 1291.7,-221.144 1302.18,-222.693 1300.86,-215.819"/>
</g>
<!-- Node20 -->
<g id="node20" class="node"><title>Node20</title>
<g id="a_node20"><a xlink:href="_local_mapping_8cc.html" target="_top" xlink:title="/home/alejandro/Desarrollo\l eclipse/os1/src/LocalMapping.cc">
<polygon fill="white" stroke="black" points="1090.5,-67.5 1090.5,-97.5 1252.5,-97.5 1252.5,-67.5 1090.5,-67.5"/>
<text text-anchor="start" x="1098.5" y="-85.5" font-family="Helvetica,sans-Serif" font-size="10.00">/home/alejandro/Desarrollo</text>
<text text-anchor="middle" x="1171.5" y="-74.5" font-family="Helvetica,sans-Serif" font-size="10.00"> eclipse/os1/src/LocalMapping.cc</text>
</a>
</g>
</g>
<!-- Node13&#45;&gt;Node20 -->
<g id="edge34" class="edge"><title>Node13&#45;&gt;Node20</title>
<path fill="none" stroke="midnightblue" d="M1201.38,-202.194C1193.82,-172.159 1181.2,-122.048 1175.07,-97.6766"/>
<polygon fill="midnightblue" stroke="midnightblue" points="1198.08,-203.423 1203.92,-212.266 1204.87,-201.714 1198.08,-203.423"/>
</g>
<!-- Node13&#45;&gt;Node21 -->
<g id="edge28" class="edge"><title>Node13&#45;&gt;Node21</title>
<path fill="none" stroke="midnightblue" d="M1153.31,-209.411C1110.44,-195.891 1051.3,-177.243 1011.13,-164.575"/>
<polygon fill="midnightblue" stroke="midnightblue" points="1152.43,-212.802 1163.02,-212.472 1154.53,-206.126 1152.43,-212.802"/>
</g>
<!-- Node14&#45;&gt;Node10 -->
<g id="edge26" class="edge"><title>Node14&#45;&gt;Node10</title>
<path fill="none" stroke="midnightblue" d="M1319.42,-124.487C1316.03,-106.722 1308.98,-82.9411 1294.5,-67 1279.06,-49.996 1256.76,-38.3342 1236.2,-30.5407"/>
<polygon fill="midnightblue" stroke="midnightblue" points="1315.98,-125.102 1321.07,-134.396 1322.88,-123.958 1315.98,-125.102"/>
</g>
<!-- Node14&#45;&gt;Node13 -->
<g id="edge15" class="edge"><title>Node14&#45;&gt;Node13</title>
<path fill="none" stroke="midnightblue" d="M1298.29,-170.484C1279.49,-183.661 1253.65,-200.599 1234.25,-212.383"/>
<polygon fill="midnightblue" stroke="midnightblue" points="1300.52,-173.193 1306.63,-164.541 1296.46,-167.491 1300.52,-173.193"/>
</g>
<!-- Node14&#45;&gt;Node15 -->
<g id="edge16" class="edge"><title>Node14&#45;&gt;Node15</title>
<path fill="none" stroke="midnightblue" d="M1349.53,-129.015C1365.97,-118.9 1386.88,-106.77 1403.79,-97.5765"/>
<polygon fill="midnightblue" stroke="midnightblue" points="1347.54,-126.133 1340.91,-134.396 1351.24,-132.071 1347.54,-126.133"/>
</g>
<!-- Node14&#45;&gt;Node20 -->
<g id="edge25" class="edge"><title>Node14&#45;&gt;Node20</title>
<path fill="none" stroke="midnightblue" d="M1280.47,-130.407C1256.36,-120.029 1226.55,-107.195 1204.2,-97.5765"/>
<polygon fill="midnightblue" stroke="midnightblue" points="1279.17,-133.657 1289.74,-134.396 1281.93,-127.227 1279.17,-133.657"/>
</g>
<!-- Node15&#45;&gt;Node10 -->
<g id="edge22" class="edge"><title>Node15&#45;&gt;Node10</title>
<path fill="none" stroke="midnightblue" d="M1369.72,-64.9171C1328.92,-54.3099 1276.57,-40.6988 1237.77,-30.6109"/>
<polygon fill="midnightblue" stroke="midnightblue" points="1369,-68.347 1379.56,-67.476 1370.76,-61.5722 1369,-68.347"/>
</g>
<!-- Node15&#45;&gt;Node11 -->
<g id="edge23" class="edge"><title>Node15&#45;&gt;Node11</title>
<path fill="none" stroke="midnightblue" d="M1347.23,-70.9391C1242.81,-58.1576 1069.02,-36.8838 972.512,-25.0702"/>
<polygon fill="midnightblue" stroke="midnightblue" points="1347.07,-74.446 1357.42,-72.1871 1347.92,-67.4979 1347.07,-74.446"/>
</g>
<!-- Node15&#45;&gt;Node13 -->
<g id="edge17" class="edge"><title>Node15&#45;&gt;Node13</title>
<path fill="none" stroke="midnightblue" d="M1442.74,-107.532C1444.43,-125.504 1441.46,-149.543 1427.5,-165 1393.61,-202.518 1338.28,-217.674 1291.53,-223.566"/>
<polygon fill="midnightblue" stroke="midnightblue" points="1446.18,-106.865 1441.21,-97.5108 1439.26,-107.926 1446.18,-106.865"/>
</g>
<!-- Node15&#45;&gt;Node14 -->
<g id="edge18" class="edge"><title>Node15&#45;&gt;Node14</title>
<path fill="none" stroke="midnightblue" d="M1406.52,-102.955C1390.08,-113.066 1369.18,-125.197 1352.26,-134.396"/>
<polygon fill="midnightblue" stroke="midnightblue" points="1408.51,-105.84 1415.14,-97.5765 1404.8,-99.9018 1408.51,-105.84"/>
</g>
<!-- Node16 -->
<g id="node16" class="node"><title>Node16</title>
<g id="a_node16"><a xlink:href="_frame_drawer_8cc.html" target="_top" xlink:title="/home/alejandro/Desarrollo\l eclipse/os1/src/FrameDrawer.cc">
<polygon fill="white" stroke="black" points="1270,-0.5 1270,-30.5 1431,-30.5 1431,-0.5 1270,-0.5"/>
<text text-anchor="start" x="1278" y="-18.5" font-family="Helvetica,sans-Serif" font-size="10.00">/home/alejandro/Desarrollo</text>
<text text-anchor="middle" x="1350.5" y="-7.5" font-family="Helvetica,sans-Serif" font-size="10.00"> eclipse/os1/src/FrameDrawer.cc</text>
</a>
</g>
</g>
<!-- Node15&#45;&gt;Node16 -->
<g id="edge19" class="edge"><title>Node15&#45;&gt;Node16</title>
<path fill="none" stroke="midnightblue" d="M1407.54,-61.1677C1394.85,-51.2283 1379.89,-39.5144 1368.47,-30.5765"/>
<polygon fill="midnightblue" stroke="midnightblue" points="1405.46,-63.9859 1415.49,-67.396 1409.78,-58.4747 1405.46,-63.9859"/>
</g>
<!-- Node17 -->
<g id="node17" class="node"><title>Node17</title>
<g id="a_node17"><a xlink:href="main_8cc.html" target="_top" xlink:title="/home/alejandro/Desarrollo\l eclipse/os1/src/main.cc">
<polygon fill="white" stroke="black" points="1449,-0.5 1449,-30.5 1582,-30.5 1582,-0.5 1449,-0.5"/>
<text text-anchor="start" x="1457" y="-18.5" font-family="Helvetica,sans-Serif" font-size="10.00">/home/alejandro/Desarrollo</text>
<text text-anchor="middle" x="1515.5" y="-7.5" font-family="Helvetica,sans-Serif" font-size="10.00"> eclipse/os1/src/main.cc</text>
</a>
</g>
</g>
<!-- Node15&#45;&gt;Node17 -->
<g id="edge20" class="edge"><title>Node15&#45;&gt;Node17</title>
<path fill="none" stroke="midnightblue" d="M1459.15,-61.1677C1471.69,-51.2283 1486.47,-39.5144 1497.74,-30.5765"/>
<polygon fill="midnightblue" stroke="midnightblue" points="1456.96,-58.4412 1451.29,-67.396 1461.3,-63.9268 1456.96,-58.4412"/>
</g>
<!-- Node18 -->
<g id="node18" class="node"><title>Node18</title>
<g id="a_node18"><a xlink:href="_serializer_8cpp.html" target="_top" xlink:title="/home/alejandro/Desarrollo\l eclipse/os1/src/Serializer.cpp">
<polygon fill="white" stroke="black" points="1600.5,-0.5 1600.5,-30.5 1748.5,-30.5 1748.5,-0.5 1600.5,-0.5"/>
<text text-anchor="start" x="1608.5" y="-18.5" font-family="Helvetica,sans-Serif" font-size="10.00">/home/alejandro/Desarrollo</text>
<text text-anchor="middle" x="1674.5" y="-7.5" font-family="Helvetica,sans-Serif" font-size="10.00"> eclipse/os1/src/Serializer.cpp</text>
</a>
</g>
</g>
<!-- Node15&#45;&gt;Node18 -->
<g id="edge21" class="edge"><title>Node15&#45;&gt;Node18</title>
<path fill="none" stroke="midnightblue" d="M1495.23,-64.8498C1534.53,-54.2523 1584.86,-40.6775 1622.18,-30.6109"/>
<polygon fill="midnightblue" stroke="midnightblue" points="1494.24,-61.4926 1485.5,-67.476 1496.06,-68.2511 1494.24,-61.4926"/>
</g>
<!-- Node19 -->
<g id="node19" class="node"><title>Node19</title>
<g id="a_node19"><a xlink:href="_viewer_8cc.html" target="_top" xlink:title="/home/alejandro/Desarrollo\l eclipse/os1/src/Viewer.cc">
<polygon fill="white" stroke="black" points="1767,-0.5 1767,-30.5 1900,-30.5 1900,-0.5 1767,-0.5"/>
<text text-anchor="start" x="1775" y="-18.5" font-family="Helvetica,sans-Serif" font-size="10.00">/home/alejandro/Desarrollo</text>
<text text-anchor="middle" x="1833.5" y="-7.5" font-family="Helvetica,sans-Serif" font-size="10.00"> eclipse/os1/src/Viewer.cc</text>
</a>
</g>
</g>
<!-- Node15&#45;&gt;Node19 -->
<g id="edge24" class="edge"><title>Node15&#45;&gt;Node19</title>
<path fill="none" stroke="midnightblue" d="M1519.81,-68.8603C1585.16,-59.0932 1677.1,-44.9313 1757.5,-31 1760.54,-30.4725 1763.65,-29.9228 1766.8,-29.3591"/>
<polygon fill="midnightblue" stroke="midnightblue" points="1518.93,-65.4528 1509.56,-70.3895 1519.97,-72.3762 1518.93,-65.4528"/>
</g>
<!-- Node21&#45;&gt;Node8 -->
<g id="edge31" class="edge"><title>Node21&#45;&gt;Node8</title>
<path fill="none" stroke="midnightblue" d="M920.256,-130.819C892.931,-120.371 858.807,-107.323 833.315,-97.5765"/>
<polygon fill="midnightblue" stroke="midnightblue" points="919.022,-134.094 929.613,-134.396 921.522,-127.555 919.022,-134.094"/>
</g>
<!-- Node21&#45;&gt;Node9 -->
<g id="edge32" class="edge"><title>Node21&#45;&gt;Node9</title>
<path fill="none" stroke="midnightblue" d="M883.678,-132.573C827.648,-121.798 754.365,-107.705 700.713,-97.3871"/>
<polygon fill="midnightblue" stroke="midnightblue" points="883.094,-136.024 893.575,-134.476 884.416,-129.15 883.094,-136.024"/>
</g>
<!-- Node21&#45;&gt;Node11 -->
<g id="edge33" class="edge"><title>Node21&#45;&gt;Node11</title>
<path fill="none" stroke="midnightblue" d="M943.007,-126.974C935.127,-118.623 926.964,-108.535 921.5,-98 910.195,-76.2036 905.536,-47.6671 903.675,-30.7885"/>
<polygon fill="midnightblue" stroke="midnightblue" points="940.556,-129.473 950.078,-134.119 945.531,-124.549 940.556,-129.473"/>
</g>
<!-- Node21&#45;&gt;Node20 -->
<g id="edge30" class="edge"><title>Node21&#45;&gt;Node20</title>
<path fill="none" stroke="midnightblue" d="M1020.29,-131.444C1053.52,-120.908 1095.65,-107.549 1127,-97.6109"/>
<polygon fill="midnightblue" stroke="midnightblue" points="1019.2,-128.117 1010.73,-134.476 1021.32,-134.79 1019.2,-128.117"/>
</g>
<!-- Node22 -->
<g id="node22" class="node"><title>Node22</title>
<g id="a_node22"><a xlink:href="_initializer_8cc.html" target="_top" xlink:title="/home/alejandro/Desarrollo\l eclipse/os1/src/Initializer.cc">
<polygon fill="white" stroke="black" points="931,-67.5 931,-97.5 1072,-97.5 1072,-67.5 931,-67.5"/>
<text text-anchor="start" x="939" y="-85.5" font-family="Helvetica,sans-Serif" font-size="10.00">/home/alejandro/Desarrollo</text>
<text text-anchor="middle" x="1001.5" y="-74.5" font-family="Helvetica,sans-Serif" font-size="10.00"> eclipse/os1/src/Initializer.cc</text>
</a>
</g>
</g>
<!-- Node21&#45;&gt;Node22 -->
<g id="edge29" class="edge"><title>Node21&#45;&gt;Node22</title>
<path fill="none" stroke="midnightblue" d="M978.844,-125.576C983.87,-116.241 989.52,-105.748 993.92,-97.5765"/>
<polygon fill="midnightblue" stroke="midnightblue" points="975.754,-123.932 974.094,-134.396 981.917,-127.251 975.754,-123.932"/>
</g>
<!-- Node25&#45;&gt;Node3 -->
<g id="edge43" class="edge"><title>Node25&#45;&gt;Node3</title>
<path fill="none" stroke="midnightblue" d="M640.026,-460.682C631.264,-451.287 621.502,-440.818 612.913,-431.607"/>
<polygon fill="midnightblue" stroke="midnightblue" points="637.723,-463.345 647.103,-468.271 642.842,-458.571 637.723,-463.345"/>
</g>
<!-- Node26&#45;&gt;Node12 -->
<g id="edge45" class="edge"><title>Node26&#45;&gt;Node12</title>
<path fill="none" stroke="midnightblue" d="M760.5,-374.509C760.5,-364.174 760.5,-352.71 760.5,-342.788"/>
<polygon fill="midnightblue" stroke="midnightblue" points="757,-374.758 760.5,-384.758 764,-374.758 757,-374.758"/>
</g>
</g>
</svg>
