<?xml version="1.0" encoding="UTF-8" standalone="no"?>
<!DOCTYPE svg PUBLIC "-//W3C//DTD SVG 1.1//EN"
 "http://www.w3.org/Graphics/SVG/1.1/DTD/svg11.dtd">
<!-- Generated by graphviz version 2.38.0 (20140413.2041)
 -->
<!-- Title: /home/alejandro/Desarrollo eclipse/os1/src/serialize.cpp Pages: 1 -->
<svg width="2512pt" height="520pt"
 viewBox="0.00 0.00 2511.50 520.00" xmlns="http://www.w3.org/2000/svg" xmlns:xlink="http://www.w3.org/1999/xlink">
<g id="graph0" class="graph" transform="scale(1 1) rotate(0) translate(4 516)">
<title>/home/alejandro/Desarrollo eclipse/os1/src/serialize.cpp</title>
<polygon fill="white" stroke="none" points="-4,4 -4,-516 2507.5,-516 2507.5,4 -4,4"/>
<!-- Node0 -->
<g id="node1" class="node"><title>Node0</title>
<polygon fill="#bfbfbf" stroke="black" points="982,-481.5 982,-511.5 1125,-511.5 1125,-481.5 982,-481.5"/>
<text text-anchor="start" x="990" y="-499.5" font-family="Helvetica,sans-Serif" font-size="10.00">/home/alejandro/Desarrollo</text>
<text text-anchor="middle" x="1053.5" y="-488.5" font-family="Helvetica,sans-Serif" font-size="10.00"> eclipse/os1/src/serialize.cpp</text>
</g>
<!-- Node1 -->
<g id="node2" class="node"><title>Node1</title>
<polygon fill="white" stroke="#bfbfbf" points="0,-414.5 0,-444.5 95,-444.5 95,-414.5 0,-414.5"/>
<text text-anchor="start" x="8" y="-432.5" font-family="Helvetica,sans-Serif" font-size="10.00">boost/serialization</text>
<text text-anchor="middle" x="47.5" y="-421.5" font-family="Helvetica,sans-Serif" font-size="10.00">/serialization.hpp</text>
</g>
<!-- Node0&#45;&gt;Node1 -->
<g id="edge1" class="edge"><title>Node0&#45;&gt;Node1</title>
<path fill="none" stroke="midnightblue" d="M981.753,-493.504C794.301,-488.003 292.108,-471.357 105.245,-444.844"/>
<polygon fill="midnightblue" stroke="midnightblue" points="105.658,-441.368 95.2546,-443.371 104.637,-448.293 105.658,-441.368"/>
</g>
<!-- Node2 -->
<g id="node3" class="node"><title>Node2</title>
<polygon fill="white" stroke="#bfbfbf" points="113.5,-420 113.5,-439 237.5,-439 237.5,-420 113.5,-420"/>
<text text-anchor="middle" x="175.5" y="-427" font-family="Helvetica,sans-Serif" font-size="10.00">boost/archive/tmpdir.hpp</text>
</g>
<!-- Node0&#45;&gt;Node2 -->
<g id="edge2" class="edge"><title>Node0&#45;&gt;Node2</title>
<path fill="none" stroke="midnightblue" d="M981.929,-494.355C840.708,-491.36 516.465,-480.837 246.5,-445 238.608,-443.952 230.279,-442.537 222.212,-440.999"/>
<polygon fill="midnightblue" stroke="midnightblue" points="222.676,-437.523 212.186,-439.004 221.311,-444.388 222.676,-437.523"/>
</g>
<!-- Node3 -->
<g id="node4" class="node"><title>Node3</title>
<polygon fill="white" stroke="#bfbfbf" points="256,-414.5 256,-444.5 351,-444.5 351,-414.5 256,-414.5"/>
<text text-anchor="start" x="264" y="-432.5" font-family="Helvetica,sans-Serif" font-size="10.00">boost/serialization</text>
<text text-anchor="middle" x="303.5" y="-421.5" font-family="Helvetica,sans-Serif" font-size="10.00">/base_object.hpp</text>
</g>
<!-- Node0&#45;&gt;Node3 -->
<g id="edge3" class="edge"><title>Node0&#45;&gt;Node3</title>
<path fill="none" stroke="midnightblue" d="M981.817,-494.542C857.131,-491.944 592.283,-482.306 360.98,-445.054"/>
<polygon fill="midnightblue" stroke="midnightblue" points="361.467,-441.587 351.034,-443.432 360.34,-448.496 361.467,-441.587"/>
</g>
<!-- Node4 -->
<g id="node5" class="node"><title>Node4</title>
<polygon fill="white" stroke="#bfbfbf" points="369,-414.5 369,-444.5 464,-444.5 464,-414.5 369,-414.5"/>
<text text-anchor="start" x="377" y="-432.5" font-family="Helvetica,sans-Serif" font-size="10.00">boost/serialization</text>
<text text-anchor="middle" x="416.5" y="-421.5" font-family="Helvetica,sans-Serif" font-size="10.00">/vector.hpp</text>
</g>
<!-- Node0&#45;&gt;Node4 -->
<g id="edge4" class="edge"><title>Node0&#45;&gt;Node4</title>
<path fill="none" stroke="midnightblue" d="M981.906,-493.116C873.685,-488.665 661.973,-476.656 474.103,-445.098"/>
<polygon fill="midnightblue" stroke="midnightblue" points="474.487,-441.613 464.042,-443.385 473.312,-448.514 474.487,-441.613"/>
</g>
<!-- Node5 -->
<g id="node6" class="node"><title>Node5</title>
<polygon fill="white" stroke="#bfbfbf" points="482,-414.5 482,-444.5 577,-444.5 577,-414.5 482,-414.5"/>
<text text-anchor="start" x="490" y="-432.5" font-family="Helvetica,sans-Serif" font-size="10.00">boost/serialization</text>
<text text-anchor="middle" x="529.5" y="-421.5" font-family="Helvetica,sans-Serif" font-size="10.00">/list.hpp</text>
</g>
<!-- Node0&#45;&gt;Node5 -->
<g id="edge5" class="edge"><title>Node0&#45;&gt;Node5</title>
<path fill="none" stroke="midnightblue" d="M981.675,-491.017C891.486,-484.66 731.951,-471.002 587.02,-445.12"/>
<polygon fill="midnightblue" stroke="midnightblue" points="587.517,-441.653 577.054,-443.317 586.271,-448.542 587.517,-441.653"/>
</g>
<!-- Node6 -->
<g id="node7" class="node"><title>Node6</title>
<polygon fill="white" stroke="#bfbfbf" points="595,-414.5 595,-444.5 690,-444.5 690,-414.5 595,-414.5"/>
<text text-anchor="start" x="603" y="-432.5" font-family="Helvetica,sans-Serif" font-size="10.00">boost/serialization</text>
<text text-anchor="middle" x="642.5" y="-421.5" font-family="Helvetica,sans-Serif" font-size="10.00">/set.hpp</text>
</g>
<!-- Node0&#45;&gt;Node6 -->
<g id="edge6" class="edge"><title>Node0&#45;&gt;Node6</title>
<path fill="none" stroke="midnightblue" d="M981.705,-487.681C911.961,-479.542 802.94,-465.387 700.015,-445.18"/>
<polygon fill="midnightblue" stroke="midnightblue" points="700.565,-441.721 690.075,-443.206 699.202,-448.587 700.565,-441.721"/>
</g>
<!-- Node7 -->
<g id="node8" class="node"><title>Node7</title>
<polygon fill="white" stroke="#bfbfbf" points="708,-414.5 708,-444.5 803,-444.5 803,-414.5 708,-414.5"/>
<text text-anchor="start" x="716" y="-432.5" font-family="Helvetica,sans-Serif" font-size="10.00">boost/serialization</text>
<text text-anchor="middle" x="755.5" y="-421.5" font-family="Helvetica,sans-Serif" font-size="10.00">/map.hpp</text>
</g>
<!-- Node0&#45;&gt;Node7 -->
<g id="edge7" class="edge"><title>Node0&#45;&gt;Node7</title>
<path fill="none" stroke="midnightblue" d="M981.827,-481.475C936.012,-472.293 875.107,-459.688 813.083,-445.317"/>
<polygon fill="midnightblue" stroke="midnightblue" points="813.654,-441.856 803.121,-442.995 812.065,-448.673 813.654,-441.856"/>
</g>
<!-- Node8 -->
<g id="node9" class="node"><title>Node8</title>
<polygon fill="white" stroke="#bfbfbf" points="821,-414.5 821,-444.5 916,-444.5 916,-414.5 821,-414.5"/>
<text text-anchor="start" x="829" y="-432.5" font-family="Helvetica,sans-Serif" font-size="10.00">boost/serialization</text>
<text text-anchor="middle" x="868.5" y="-421.5" font-family="Helvetica,sans-Serif" font-size="10.00">/utility.hpp</text>
</g>
<!-- Node0&#45;&gt;Node8 -->
<g id="edge8" class="edge"><title>Node0&#45;&gt;Node8</title>
<path fill="none" stroke="midnightblue" d="M1013.36,-481.396C985.479,-471.601 948.138,-458.481 918.351,-448.015"/>
<polygon fill="midnightblue" stroke="midnightblue" points="919.159,-444.589 908.564,-444.577 916.838,-451.194 919.159,-444.589"/>
</g>
<!-- Node9 -->
<g id="node10" class="node"><title>Node9</title>
<polygon fill="white" stroke="#bfbfbf" points="934,-414.5 934,-444.5 1047,-444.5 1047,-414.5 934,-414.5"/>
<text text-anchor="start" x="942" y="-432.5" font-family="Helvetica,sans-Serif" font-size="10.00">boost/serialization</text>
<text text-anchor="middle" x="990.5" y="-421.5" font-family="Helvetica,sans-Serif" font-size="10.00">/assume_abstract.hpp</text>
</g>
<!-- Node0&#45;&gt;Node9 -->
<g id="edge9" class="edge"><title>Node0&#45;&gt;Node9</title>
<path fill="none" stroke="midnightblue" d="M1039.83,-481.396C1031.49,-472.793 1020.67,-461.626 1011.28,-451.945"/>
<polygon fill="midnightblue" stroke="midnightblue" points="1013.62,-449.321 1004.14,-444.577 1008.59,-454.193 1013.62,-449.321"/>
</g>
<!-- Node10 -->
<g id="node11" class="node"><title>Node10</title>
<polygon fill="white" stroke="#bfbfbf" points="1065.5,-414.5 1065.5,-444.5 1169.5,-444.5 1169.5,-414.5 1065.5,-414.5"/>
<text text-anchor="start" x="1073.5" y="-432.5" font-family="Helvetica,sans-Serif" font-size="10.00">boost/archive/binary</text>
<text text-anchor="middle" x="1117.5" y="-421.5" font-family="Helvetica,sans-Serif" font-size="10.00">_oarchive.hpp</text>
</g>
<!-- Node0&#45;&gt;Node10 -->
<g id="edge10" class="edge"><title>Node0&#45;&gt;Node10</title>
<path fill="none" stroke="midnightblue" d="M1067.39,-481.396C1075.86,-472.793 1086.85,-461.626 1096.39,-451.945"/>
<polygon fill="midnightblue" stroke="midnightblue" points="1099.12,-454.158 1103.64,-444.577 1094.13,-449.247 1099.12,-454.158"/>
</g>
<!-- Node11 -->
<g id="node12" class="node"><title>Node11</title>
<polygon fill="white" stroke="#bfbfbf" points="1187.5,-414.5 1187.5,-444.5 1291.5,-444.5 1291.5,-414.5 1187.5,-414.5"/>
<text text-anchor="start" x="1195.5" y="-432.5" font-family="Helvetica,sans-Serif" font-size="10.00">boost/archive/binary</text>
<text text-anchor="middle" x="1239.5" y="-421.5" font-family="Helvetica,sans-Serif" font-size="10.00">_iarchive.hpp</text>
</g>
<!-- Node0&#45;&gt;Node11 -->
<g id="edge11" class="edge"><title>Node0&#45;&gt;Node11</title>
<path fill="none" stroke="midnightblue" d="M1093.86,-481.396C1122.01,-471.558 1159.76,-458.367 1189.77,-447.879"/>
<polygon fill="midnightblue" stroke="midnightblue" points="1190.93,-451.18 1199.22,-444.577 1188.62,-444.571 1190.93,-451.18"/>
</g>
<!-- Node12 -->
<g id="node13" class="node"><title>Node12</title>
<polygon fill="white" stroke="#bfbfbf" points="1310,-414.5 1310,-444.5 1405,-444.5 1405,-414.5 1310,-414.5"/>
<text text-anchor="start" x="1318" y="-432.5" font-family="Helvetica,sans-Serif" font-size="10.00">boost/archive/text</text>
<text text-anchor="middle" x="1357.5" y="-421.5" font-family="Helvetica,sans-Serif" font-size="10.00">_oarchive.hpp</text>
</g>
<!-- Node0&#45;&gt;Node12 -->
<g id="edge12" class="edge"><title>Node0&#45;&gt;Node12</title>
<path fill="none" stroke="midnightblue" d="M1125.03,-481.807C1172.04,-472.592 1235.11,-459.819 1299.96,-445.062"/>
<polygon fill="midnightblue" stroke="midnightblue" points="1300.99,-448.417 1309.96,-442.774 1299.43,-441.593 1300.99,-448.417"/>
</g>
<!-- Node13 -->
<g id="node14" class="node"><title>Node13</title>
<polygon fill="white" stroke="#bfbfbf" points="1423,-414.5 1423,-444.5 1518,-444.5 1518,-414.5 1423,-414.5"/>
<text text-anchor="start" x="1431" y="-432.5" font-family="Helvetica,sans-Serif" font-size="10.00">boost/archive/text</text>
<text text-anchor="middle" x="1470.5" y="-421.5" font-family="Helvetica,sans-Serif" font-size="10.00">_iarchive.hpp</text>
</g>
<!-- Node0&#45;&gt;Node13 -->
<g id="edge13" class="edge"><title>Node0&#45;&gt;Node13</title>
<path fill="none" stroke="midnightblue" d="M1125.14,-487.926C1196.06,-479.873 1307.86,-465.69 1413.09,-445.155"/>
<polygon fill="midnightblue" stroke="midnightblue" points="1413.79,-448.584 1422.93,-443.213 1412.44,-441.717 1413.79,-448.584"/>
</g>
<!-- Node14 -->
<g id="node15" class="node"><title>Node14</title>
<g id="a_node15"><a xlink:href="_map_8h.html" target="_top" xlink:title="Map.h">
<polygon fill="white" stroke="black" points="1553.5,-302.5 1553.5,-321.5 1597.5,-321.5 1597.5,-302.5 1553.5,-302.5"/>
<text text-anchor="middle" x="1575.5" y="-309.5" font-family="Helvetica,sans-Serif" font-size="10.00">Map.h</text>
</a>
</g>
</g>
<!-- Node0&#45;&gt;Node14 -->
<g id="edge14" class="edge"><title>Node0&#45;&gt;Node14</title>
<path fill="none" stroke="midnightblue" d="M1125.11,-492.018C1249.79,-485.352 1496.5,-469.26 1527.5,-445 1562.93,-417.27 1572.22,-360.943 1574.65,-331.646"/>
<polygon fill="midnightblue" stroke="midnightblue" points="1578.15,-331.741 1575.3,-321.538 1571.17,-331.293 1578.15,-331.741"/>
</g>
<!-- Node37 -->
<g id="node38" class="node"><title>Node37</title>
<g id="a_node38"><a xlink:href="_key_frame_8h.html" target="_top" xlink:title="KeyFrame.h">
<polygon fill="white" stroke="black" points="1739.5,-420 1739.5,-439 1809.5,-439 1809.5,-420 1739.5,-420"/>
<text text-anchor="middle" x="1774.5" y="-427" font-family="Helvetica,sans-Serif" font-size="10.00">KeyFrame.h</text>
</a>
</g>
</g>
<!-- Node0&#45;&gt;Node37 -->
<g id="edge50" class="edge"><title>Node0&#45;&gt;Node37</title>
<path fill="none" stroke="midnightblue" d="M1125.13,-491.855C1242.95,-485.4 1484.91,-470.21 1688.5,-445 1701.78,-443.356 1716.14,-441.119 1729.25,-438.894"/>
<polygon fill="midnightblue" stroke="midnightblue" points="1730.2,-442.282 1739.45,-437.124 1729,-435.385 1730.2,-442.282"/>
</g>
<!-- Node38 -->
<g id="node39" class="node"><title>Node38</title>
<g id="a_node39"><a xlink:href="_map_point_8h.html" target="_top" xlink:title="MapPoint.h">
<polygon fill="white" stroke="black" points="1596.5,-358.5 1596.5,-377.5 1662.5,-377.5 1662.5,-358.5 1596.5,-358.5"/>
<text text-anchor="middle" x="1629.5" y="-365.5" font-family="Helvetica,sans-Serif" font-size="10.00">MapPoint.h</text>
</a>
</g>
</g>
<!-- Node0&#45;&gt;Node38 -->
<g id="edge83" class="edge"><title>Node0&#45;&gt;Node38</title>
<path fill="none" stroke="midnightblue" d="M1125.13,-494.639C1246.35,-492.152 1486.04,-482.494 1560.5,-445 1586.29,-432.016 1607.07,-405.031 1618.85,-386.964"/>
<polygon fill="midnightblue" stroke="midnightblue" points="1622.13,-388.327 1624.45,-377.99 1616.19,-384.623 1622.13,-388.327"/>
</g>
<!-- Node43 -->
<g id="node44" class="node"><title>Node43</title>
<g id="a_node44"><a xlink:href="_key_frame_database_8h.html" target="_top" xlink:title="KeyFrameDatabase.h">
<polygon fill="white" stroke="black" points="1718.5,-358.5 1718.5,-377.5 1830.5,-377.5 1830.5,-358.5 1718.5,-358.5"/>
<text text-anchor="middle" x="1774.5" y="-365.5" font-family="Helvetica,sans-Serif" font-size="10.00">KeyFrameDatabase.h</text>
</a>
</g>
</g>
<!-- Node0&#45;&gt;Node43 -->
<g id="edge82" class="edge"><title>Node0&#45;&gt;Node43</title>
<path fill="none" stroke="midnightblue" d="M1125.28,-495.607C1229.68,-494.235 1428.81,-485.838 1592.5,-445 1650.86,-430.44 1714.82,-400.078 1749.22,-382.455"/>
<polygon fill="midnightblue" stroke="midnightblue" points="1751.24,-385.348 1758.51,-377.636 1748.02,-379.135 1751.24,-385.348"/>
</g>
<!-- Node44 -->
<g id="node45" class="node"><title>Node44</title>
<polygon fill="white" stroke="#bfbfbf" points="1828,-420 1828,-439 1879,-439 1879,-420 1828,-420"/>
<text text-anchor="middle" x="1853.5" y="-427" font-family="Helvetica,sans-Serif" font-size="10.00">typeinfo</text>
</g>
<!-- Node0&#45;&gt;Node44 -->
<g id="edge84" class="edge"><title>Node0&#45;&gt;Node44</title>
<path fill="none" stroke="midnightblue" d="M1125.3,-493.745C1289.44,-489.25 1687.99,-475.467 1818.5,-445 1821.17,-444.377 1823.9,-443.572 1826.6,-442.661"/>
<polygon fill="midnightblue" stroke="midnightblue" points="1827.98,-445.879 1836.07,-439.034 1825.48,-439.342 1827.98,-445.879"/>
</g>
<!-- Node15 -->
<g id="node16" class="node"><title>Node15</title>
<g id="a_node16"><a xlink:href="_o_r_b_vocabulary_8h.html" target="_top" xlink:title="ORBVocabulary.h">
<polygon fill="white" stroke="black" points="1793,-241 1793,-260 1888,-260 1888,-241 1793,-241"/>
<text text-anchor="middle" x="1840.5" y="-248" font-family="Helvetica,sans-Serif" font-size="10.00">ORBVocabulary.h</text>
</a>
</g>
</g>
<!-- Node14&#45;&gt;Node15 -->
<g id="edge15" class="edge"><title>Node14&#45;&gt;Node15</title>
<path fill="none" stroke="midnightblue" d="M1597.64,-306.029C1640.24,-296.465 1734.49,-275.302 1792.25,-262.334"/>
<polygon fill="midnightblue" stroke="midnightblue" points="1793.25,-265.696 1802.24,-260.09 1791.72,-258.866 1793.25,-265.696"/>
</g>
<!-- Node34 -->
<g id="node35" class="node"><title>Node34</title>
<polygon fill="white" stroke="#bfbfbf" points="1578.5,-241 1578.5,-260 1608.5,-260 1608.5,-241 1578.5,-241"/>
<text text-anchor="middle" x="1593.5" y="-248" font-family="Helvetica,sans-Serif" font-size="10.00">set</text>
</g>
<!-- Node14&#45;&gt;Node34 -->
<g id="edge47" class="edge"><title>Node14&#45;&gt;Node34</title>
<path fill="none" stroke="midnightblue" d="M1578.08,-302.475C1580.65,-293.992 1584.67,-280.704 1587.96,-269.822"/>
<polygon fill="midnightblue" stroke="midnightblue" points="1591.38,-270.594 1590.93,-260.009 1584.68,-268.567 1591.38,-270.594"/>
</g>
<!-- Node35 -->
<g id="node36" class="node"><title>Node35</title>
<polygon fill="white" stroke="#bfbfbf" points="1661.5,-241 1661.5,-260 1705.5,-260 1705.5,-241 1661.5,-241"/>
<text text-anchor="middle" x="1683.5" y="-248" font-family="Helvetica,sans-Serif" font-size="10.00">mutex</text>
</g>
<!-- Node14&#45;&gt;Node35 -->
<g id="edge48" class="edge"><title>Node14&#45;&gt;Node35</title>
<path fill="none" stroke="midnightblue" d="M1590.97,-302.475C1608.78,-292.666 1638.24,-276.435 1659.13,-264.925"/>
<polygon fill="midnightblue" stroke="midnightblue" points="1660.99,-267.9 1668.05,-260.009 1657.61,-261.769 1660.99,-267.9"/>
</g>
<!-- Node36 -->
<g id="node37" class="node"><title>Node36</title>
<polygon fill="white" stroke="#bfbfbf" points="1402,-235.5 1402,-265.5 1497,-265.5 1497,-235.5 1402,-235.5"/>
<text text-anchor="start" x="1410" y="-253.5" font-family="Helvetica,sans-Serif" font-size="10.00">boost/serialization</text>
<text text-anchor="middle" x="1449.5" y="-242.5" font-family="Helvetica,sans-Serif" font-size="10.00">/access.hpp</text>
</g>
<!-- Node14&#45;&gt;Node36 -->
<g id="edge49" class="edge"><title>Node14&#45;&gt;Node36</title>
<path fill="none" stroke="midnightblue" d="M1557.45,-302.475C1539.51,-294.002 1511.41,-280.737 1488.39,-269.863"/>
<polygon fill="midnightblue" stroke="midnightblue" points="1489.73,-266.628 1479.2,-265.523 1486.74,-272.958 1489.73,-266.628"/>
</g>
<!-- Node16 -->
<g id="node17" class="node"><title>Node16</title>
<g id="a_node17"><a xlink:href="_f_o_r_b_8h.html" target="_top" xlink:title="../Thirdparty/DBoW2\l/DBoW2/FORB.h">
<polygon fill="white" stroke="black" points="1378,-168.5 1378,-198.5 1485,-198.5 1485,-168.5 1378,-168.5"/>
<text text-anchor="start" x="1386" y="-186.5" font-family="Helvetica,sans-Serif" font-size="10.00">../Thirdparty/DBoW2</text>
<text text-anchor="middle" x="1431.5" y="-175.5" font-family="Helvetica,sans-Serif" font-size="10.00">/DBoW2/FORB.h</text>
</a>
</g>
</g>
<!-- Node15&#45;&gt;Node16 -->
<g id="edge16" class="edge"><title>Node15&#45;&gt;Node16</title>
<path fill="none" stroke="midnightblue" d="M1802.46,-240.947C1792.72,-238.878 1782.24,-236.758 1772.5,-235 1676.29,-217.635 1564.01,-201.868 1495.34,-192.731"/>
<polygon fill="midnightblue" stroke="midnightblue" points="1495.5,-189.22 1485.12,-191.377 1494.58,-196.16 1495.5,-189.22"/>
</g>
<!-- Node21 -->
<g id="node22" class="node"><title>Node21</title>
<g id="a_node22"><a xlink:href="_templated_vocabulary_8h.html" target="_top" xlink:title="../Thirdparty/DBoW2\l/DBoW2/TemplatedVocabulary.h">
<polygon fill="white" stroke="black" points="1800.5,-168.5 1800.5,-198.5 1960.5,-198.5 1960.5,-168.5 1800.5,-168.5"/>
<text text-anchor="start" x="1808.5" y="-186.5" font-family="Helvetica,sans-Serif" font-size="10.00">../Thirdparty/DBoW2</text>
<text text-anchor="middle" x="1880.5" y="-175.5" font-family="Helvetica,sans-Serif" font-size="10.00">/DBoW2/TemplatedVocabulary.h</text>
</a>
</g>
</g>
<!-- Node15&#45;&gt;Node21 -->
<g id="edge24" class="edge"><title>Node15&#45;&gt;Node21</title>
<path fill="none" stroke="midnightblue" d="M1845.89,-240.734C1851.14,-232.203 1859.35,-218.874 1866.45,-207.334"/>
<polygon fill="midnightblue" stroke="midnightblue" points="1869.57,-208.94 1871.83,-198.589 1863.61,-205.271 1869.57,-208.94"/>
</g>
<!-- Node17 -->
<g id="node18" class="node"><title>Node17</title>
<polygon fill="white" stroke="#bfbfbf" points="1467.5,-56.5 1467.5,-75.5 1583.5,-75.5 1583.5,-56.5 1467.5,-56.5"/>
<text text-anchor="middle" x="1525.5" y="-63.5" font-family="Helvetica,sans-Serif" font-size="10.00">opencv2/core/core.hpp</text>
</g>
<!-- Node16&#45;&gt;Node17 -->
<g id="edge17" class="edge"><title>Node16&#45;&gt;Node17</title>
<path fill="none" stroke="midnightblue" d="M1443.03,-168.337C1460.5,-146.865 1493.62,-106.172 1512.13,-83.4293"/>
<polygon fill="midnightblue" stroke="midnightblue" points="1514.85,-85.6348 1518.44,-75.6695 1509.42,-81.2162 1514.85,-85.6348"/>
</g>
<!-- Node18 -->
<g id="node19" class="node"><title>Node18</title>
<polygon fill="white" stroke="#bfbfbf" points="2073.5,-0.5 2073.5,-19.5 2117.5,-19.5 2117.5,-0.5 2073.5,-0.5"/>
<text text-anchor="middle" x="2095.5" y="-7.5" font-family="Helvetica,sans-Serif" font-size="10.00">vector</text>
</g>
<!-- Node16&#45;&gt;Node18 -->
<g id="edge18" class="edge"><title>Node16&#45;&gt;Node18</title>
<path fill="none" stroke="midnightblue" d="M1396.76,-168.354C1380.98,-160.114 1363.62,-148.125 1353.5,-132 1335.47,-103.266 1323.24,-80.6944 1346.5,-56 1371.42,-29.5424 1922.18,-15.0142 2062.96,-11.7244"/>
<polygon fill="midnightblue" stroke="midnightblue" points="2063.2,-15.22 2073.12,-11.4902 2063.04,-8.2219 2063.2,-15.22"/>
</g>
<!-- Node19 -->
<g id="node20" class="node"><title>Node19</title>
<polygon fill="white" stroke="#bfbfbf" points="1355,-56.5 1355,-75.5 1396,-75.5 1396,-56.5 1355,-56.5"/>
<text text-anchor="middle" x="1375.5" y="-63.5" font-family="Helvetica,sans-Serif" font-size="10.00">string</text>
</g>
<!-- Node16&#45;&gt;Node19 -->
<g id="edge19" class="edge"><title>Node16&#45;&gt;Node19</title>
<path fill="none" stroke="midnightblue" d="M1400.16,-168.44C1385.58,-160.105 1369.69,-148.009 1361.5,-132 1353.96,-117.26 1359.26,-98.6313 1365.39,-85.0995"/>
<polygon fill="midnightblue" stroke="midnightblue" points="1368.65,-86.3988 1370.03,-75.8939 1362.4,-83.2467 1368.65,-86.3988"/>
</g>
<!-- Node20 -->
<g id="node21" class="node"><title>Node20</title>
<g id="a_node21"><a xlink:href="_f_class_8h.html" target="_top" xlink:title="FClass.h">
<polygon fill="white" stroke="black" points="1403.5,-112.5 1403.5,-131.5 1459.5,-131.5 1459.5,-112.5 1403.5,-112.5"/>
<text text-anchor="middle" x="1431.5" y="-119.5" font-family="Helvetica,sans-Serif" font-size="10.00">FClass.h</text>
</a>
</g>
</g>
<!-- Node16&#45;&gt;Node20 -->
<g id="edge20" class="edge"><title>Node16&#45;&gt;Node20</title>
<path fill="none" stroke="midnightblue" d="M1431.5,-168.399C1431.5,-160.466 1431.5,-150.458 1431.5,-141.858"/>
<polygon fill="midnightblue" stroke="midnightblue" points="1435,-141.658 1431.5,-131.658 1428,-141.658 1435,-141.658"/>
</g>
<!-- Node20&#45;&gt;Node17 -->
<g id="edge21" class="edge"><title>Node20&#45;&gt;Node17</title>
<path fill="none" stroke="midnightblue" d="M1446.6,-112.324C1461.4,-103.822 1484.19,-90.7288 1501.48,-80.7975"/>
<polygon fill="midnightblue" stroke="midnightblue" points="1503.51,-83.6707 1510.43,-75.6545 1500.02,-77.6009 1503.51,-83.6707"/>
</g>
<!-- Node20&#45;&gt;Node18 -->
<g id="edge22" class="edge"><title>Node20&#45;&gt;Node18</title>
<path fill="none" stroke="midnightblue" d="M1432.31,-112.056C1434.16,-97.5736 1440.05,-69.2764 1458.5,-56 1507.85,-20.4823 1940.41,-12.792 2063.15,-11.3187"/>
<polygon fill="midnightblue" stroke="midnightblue" points="2063.44,-14.8157 2073.4,-11.2017 2063.36,-7.81615 2063.44,-14.8157"/>
</g>
<!-- Node20&#45;&gt;Node19 -->
<g id="edge23" class="edge"><title>Node20&#45;&gt;Node19</title>
<path fill="none" stroke="midnightblue" d="M1422.5,-112.324C1414.31,-104.42 1401.99,-92.5482 1392.03,-82.9377"/>
<polygon fill="midnightblue" stroke="midnightblue" points="1394.29,-80.2558 1384.66,-75.8339 1389.43,-85.2947 1394.29,-80.2558"/>
</g>
<!-- Node21&#45;&gt;Node17 -->
<g id="edge31" class="edge"><title>Node21&#45;&gt;Node17</title>
<path fill="none" stroke="midnightblue" d="M1800.41,-175.476C1747.71,-168.817 1678.09,-156.075 1620.5,-132 1591.03,-119.68 1561.32,-97.4039 1543.17,-82.4078"/>
<polygon fill="midnightblue" stroke="midnightblue" points="1545.13,-79.4852 1535.23,-75.7064 1540.61,-84.8329 1545.13,-79.4852"/>
</g>
<!-- Node21&#45;&gt;Node18 -->
<g id="edge26" class="edge"><title>Node21&#45;&gt;Node18</title>
<path fill="none" stroke="midnightblue" d="M1960.57,-170.947C2007.52,-162.498 2060.64,-149.463 2076.5,-132 2102.03,-103.887 2101.19,-56.1179 2098.34,-29.7947"/>
<polygon fill="midnightblue" stroke="midnightblue" points="2101.78,-29.1178 2097.03,-19.6507 2094.84,-30.0177 2101.78,-29.1178"/>
</g>
<!-- Node21&#45;&gt;Node19 -->
<g id="edge29" class="edge"><title>Node21&#45;&gt;Node19</title>
<path fill="none" stroke="midnightblue" d="M1800.25,-179.006C1670.24,-172.636 1424.96,-157.395 1394.5,-132 1381.12,-120.841 1376.86,-100.815 1375.65,-85.9295"/>
<polygon fill="midnightblue" stroke="midnightblue" points="1379.14,-85.6227 1375.22,-75.781 1372.15,-85.9211 1379.14,-85.6227"/>
</g>
<!-- Node22 -->
<g id="node23" class="node"><title>Node22</title>
<polygon fill="white" stroke="#bfbfbf" points="1949,-112.5 1949,-131.5 1998,-131.5 1998,-112.5 1949,-112.5"/>
<text text-anchor="middle" x="1973.5" y="-119.5" font-family="Helvetica,sans-Serif" font-size="10.00">cassert</text>
</g>
<!-- Node21&#45;&gt;Node22 -->
<g id="edge25" class="edge"><title>Node21&#45;&gt;Node22</title>
<path fill="none" stroke="midnightblue" d="M1902.54,-168.399C1917.31,-158.951 1936.68,-146.559 1951.45,-137.109"/>
<polygon fill="midnightblue" stroke="midnightblue" points="1953.43,-139.995 1959.97,-131.658 1949.66,-134.099 1953.43,-139.995"/>
</g>
<!-- Node23 -->
<g id="node24" class="node"><title>Node23</title>
<polygon fill="white" stroke="#bfbfbf" points="2016,-112.5 2016,-131.5 2067,-131.5 2067,-112.5 2016,-112.5"/>
<text text-anchor="middle" x="2041.5" y="-119.5" font-family="Helvetica,sans-Serif" font-size="10.00">numeric</text>
</g>
<!-- Node21&#45;&gt;Node23 -->
<g id="edge27" class="edge"><title>Node21&#45;&gt;Node23</title>
<path fill="none" stroke="midnightblue" d="M1918.65,-168.399C1946.03,-158.283 1982.54,-144.791 2008.63,-135.149"/>
<polygon fill="midnightblue" stroke="midnightblue" points="2009.91,-138.407 2018.07,-131.658 2007.48,-131.841 2009.91,-138.407"/>
</g>
<!-- Node24 -->
<g id="node25" class="node"><title>Node24</title>
<polygon fill="white" stroke="#bfbfbf" points="1629.5,-112.5 1629.5,-131.5 1679.5,-131.5 1679.5,-112.5 1629.5,-112.5"/>
<text text-anchor="middle" x="1654.5" y="-119.5" font-family="Helvetica,sans-Serif" font-size="10.00">fstream</text>
</g>
<!-- Node21&#45;&gt;Node24 -->
<g id="edge28" class="edge"><title>Node21&#45;&gt;Node24</title>
<path fill="none" stroke="midnightblue" d="M1827.11,-168.482C1790.84,-158.953 1741.51,-145.983 1689.49,-132.259"/>
<polygon fill="midnightblue" stroke="midnightblue" points="1690.31,-128.856 1679.75,-129.689 1688.53,-135.624 1690.31,-128.856"/>
</g>
<!-- Node25 -->
<g id="node26" class="node"><title>Node25</title>
<polygon fill="white" stroke="#bfbfbf" points="1697.5,-112.5 1697.5,-131.5 1753.5,-131.5 1753.5,-112.5 1697.5,-112.5"/>
<text text-anchor="middle" x="1725.5" y="-119.5" font-family="Helvetica,sans-Serif" font-size="10.00">algorithm</text>
</g>
<!-- Node21&#45;&gt;Node25 -->
<g id="edge30" class="edge"><title>Node21&#45;&gt;Node25</title>
<path fill="none" stroke="midnightblue" d="M1843.77,-168.399C1817.53,-158.327 1782.57,-144.909 1757.48,-135.277"/>
<polygon fill="midnightblue" stroke="midnightblue" points="1758.64,-131.974 1748.05,-131.658 1756.14,-138.509 1758.64,-131.974"/>
</g>
<!-- Node26 -->
<g id="node27" class="node"><title>Node26</title>
<polygon fill="white" stroke="#bfbfbf" points="1771.5,-112.5 1771.5,-131.5 1811.5,-131.5 1811.5,-112.5 1771.5,-112.5"/>
<text text-anchor="middle" x="1791.5" y="-119.5" font-family="Helvetica,sans-Serif" font-size="10.00">limits</text>
</g>
<!-- Node21&#45;&gt;Node26 -->
<g id="edge32" class="edge"><title>Node21&#45;&gt;Node26</title>
<path fill="none" stroke="midnightblue" d="M1859.41,-168.399C1845.41,-159.04 1827.09,-146.792 1813.01,-137.377"/>
<polygon fill="midnightblue" stroke="midnightblue" points="1814.71,-134.306 1804.45,-131.658 1810.82,-140.125 1814.71,-134.306"/>
</g>
<!-- Node27 -->
<g id="node28" class="node"><title>Node27</title>
<g id="a_node28"><a xlink:href="_feature_vector_8h.html" target="_top" xlink:title="FeatureVector.h">
<polygon fill="white" stroke="black" points="2417.5,-112.5 2417.5,-131.5 2503.5,-131.5 2503.5,-112.5 2417.5,-112.5"/>
<text text-anchor="middle" x="2460.5" y="-119.5" font-family="Helvetica,sans-Serif" font-size="10.00">FeatureVector.h</text>
</a>
</g>
</g>
<!-- Node21&#45;&gt;Node27 -->
<g id="edge33" class="edge"><title>Node21&#45;&gt;Node27</title>
<path fill="none" stroke="midnightblue" d="M1960.54,-174.289C2080.86,-161.945 2305.13,-138.938 2407.32,-128.456"/>
<polygon fill="midnightblue" stroke="midnightblue" points="2407.81,-131.924 2417.4,-127.421 2407.1,-124.96 2407.81,-131.924"/>
</g>
<!-- Node28 -->
<g id="node29" class="node"><title>Node28</title>
<g id="a_node29"><a xlink:href="_bow_vector_8h.html" target="_top" xlink:title="BowVector.h">
<polygon fill="white" stroke="black" points="2321,-56.5 2321,-75.5 2394,-75.5 2394,-56.5 2321,-56.5"/>
<text text-anchor="middle" x="2357.5" y="-63.5" font-family="Helvetica,sans-Serif" font-size="10.00">BowVector.h</text>
</a>
</g>
</g>
<!-- Node21&#45;&gt;Node28 -->
<g id="edge41" class="edge"><title>Node21&#45;&gt;Node28</title>
<path fill="none" stroke="midnightblue" d="M1947.3,-168.494C1993.06,-158.721 2055.08,-145.126 2109.5,-132 2182.62,-114.364 2267.26,-91.6892 2316.36,-78.312"/>
<polygon fill="midnightblue" stroke="midnightblue" points="2317.55,-81.6139 2326.28,-75.6038 2315.71,-74.861 2317.55,-81.6139"/>
</g>
<!-- Node31 -->
<g id="node32" class="node"><title>Node31</title>
<g id="a_node32"><a xlink:href="_scoring_object_8h.html" target="_top" xlink:title="ScoringObject.h">
<polygon fill="white" stroke="black" points="2199.5,-112.5 2199.5,-131.5 2285.5,-131.5 2285.5,-112.5 2199.5,-112.5"/>
<text text-anchor="middle" x="2242.5" y="-119.5" font-family="Helvetica,sans-Serif" font-size="10.00">ScoringObject.h</text>
</a>
</g>
</g>
<!-- Node21&#45;&gt;Node31 -->
<g id="edge42" class="edge"><title>Node21&#45;&gt;Node31</title>
<path fill="none" stroke="midnightblue" d="M1960.84,-169.295C2030.35,-157.87 2128.89,-141.673 2189.1,-131.777"/>
<polygon fill="midnightblue" stroke="midnightblue" points="2189.85,-135.2 2199.15,-130.124 2188.72,-128.293 2189.85,-135.2"/>
</g>
<!-- Node32 -->
<g id="node33" class="node"><title>Node32</title>
<g id="a_node33"><a xlink:href="_random_8h.html" target="_top" xlink:title="../DUtils/Random.h">
<polygon fill="white" stroke="black" points="1830,-112.5 1830,-131.5 1931,-131.5 1931,-112.5 1830,-112.5"/>
<text text-anchor="middle" x="1880.5" y="-119.5" font-family="Helvetica,sans-Serif" font-size="10.00">../DUtils/Random.h</text>
</a>
</g>
</g>
<!-- Node21&#45;&gt;Node32 -->
<g id="edge44" class="edge"><title>Node21&#45;&gt;Node32</title>
<path fill="none" stroke="midnightblue" d="M1880.5,-168.399C1880.5,-160.466 1880.5,-150.458 1880.5,-141.858"/>
<polygon fill="midnightblue" stroke="midnightblue" points="1884,-141.658 1880.5,-131.658 1877,-141.658 1884,-141.658"/>
</g>
<!-- Node27&#45;&gt;Node18 -->
<g id="edge39" class="edge"><title>Node27&#45;&gt;Node18</title>
<path fill="none" stroke="midnightblue" d="M2455.55,-112.069C2447,-97.6054 2428.03,-69.3345 2403.5,-56 2356.41,-30.396 2197.34,-17.4511 2128.12,-12.9213"/>
<polygon fill="midnightblue" stroke="midnightblue" points="2128.02,-9.40768 2117.82,-12.2659 2127.57,-16.3936 2128.02,-9.40768"/>
</g>
<!-- Node27&#45;&gt;Node28 -->
<g id="edge34" class="edge"><title>Node27&#45;&gt;Node28</title>
<path fill="none" stroke="midnightblue" d="M2443.95,-112.324C2427.51,-103.703 2402.07,-90.3643 2383.03,-80.3855"/>
<polygon fill="midnightblue" stroke="midnightblue" points="2384.49,-77.198 2374.01,-75.6545 2381.24,-83.3977 2384.49,-77.198"/>
</g>
<!-- Node29 -->
<g id="node30" class="node"><title>Node29</title>
<polygon fill="white" stroke="#bfbfbf" points="2349.5,-0.5 2349.5,-19.5 2403.5,-19.5 2403.5,-0.5 2349.5,-0.5"/>
<text text-anchor="middle" x="2376.5" y="-7.5" font-family="Helvetica,sans-Serif" font-size="10.00">iostream</text>
</g>
<!-- Node27&#45;&gt;Node29 -->
<g id="edge40" class="edge"><title>Node27&#45;&gt;Node29</title>
<path fill="none" stroke="midnightblue" d="M2458.92,-112.247C2456.19,-99.0016 2449.58,-73.5541 2436.5,-56 2427.14,-43.4377 2413.32,-32.7429 2401.3,-24.9354"/>
<polygon fill="midnightblue" stroke="midnightblue" points="2402.92,-21.8189 2392.57,-19.5447 2399.24,-27.7756 2402.92,-21.8189"/>
</g>
<!-- Node30 -->
<g id="node31" class="node"><title>Node30</title>
<polygon fill="white" stroke="#bfbfbf" points="2461,-0.5 2461,-19.5 2496,-19.5 2496,-0.5 2461,-0.5"/>
<text text-anchor="middle" x="2478.5" y="-7.5" font-family="Helvetica,sans-Serif" font-size="10.00">map</text>
</g>
<!-- Node27&#45;&gt;Node30 -->
<g id="edge38" class="edge"><title>Node27&#45;&gt;Node30</title>
<path fill="none" stroke="midnightblue" d="M2463.93,-112.194C2467.26,-103.235 2472.14,-88.8758 2474.5,-76 2477.31,-60.6905 2478.25,-43.0488 2478.53,-30.0109"/>
<polygon fill="midnightblue" stroke="midnightblue" points="2482.03,-29.946 2478.62,-19.9129 2475.03,-29.8789 2482.03,-29.946"/>
</g>
<!-- Node28&#45;&gt;Node18 -->
<g id="edge37" class="edge"><title>Node28&#45;&gt;Node18</title>
<path fill="none" stroke="midnightblue" d="M2320.79,-57.4347C2269.36,-46.8341 2176.68,-27.7311 2127.76,-17.6483"/>
<polygon fill="midnightblue" stroke="midnightblue" points="2128.23,-14.1722 2117.73,-15.5814 2126.82,-21.0281 2128.23,-14.1722"/>
</g>
<!-- Node28&#45;&gt;Node29 -->
<g id="edge35" class="edge"><title>Node28&#45;&gt;Node29</title>
<path fill="none" stroke="midnightblue" d="M2360.64,-56.083C2363.18,-48.8486 2366.86,-38.4087 2370.03,-29.3968"/>
<polygon fill="midnightblue" stroke="midnightblue" points="2373.4,-30.3459 2373.42,-19.7511 2366.8,-28.0225 2373.4,-30.3459"/>
</g>
<!-- Node28&#45;&gt;Node30 -->
<g id="edge36" class="edge"><title>Node28&#45;&gt;Node30</title>
<path fill="none" stroke="midnightblue" d="M2376.67,-56.4435C2396.87,-47.4283 2428.85,-33.1583 2451.58,-23.0161"/>
<polygon fill="midnightblue" stroke="midnightblue" points="2453.28,-26.0867 2460.99,-18.8151 2450.43,-19.6944 2453.28,-26.0867"/>
</g>
<!-- Node31&#45;&gt;Node28 -->
<g id="edge43" class="edge"><title>Node31&#45;&gt;Node28</title>
<path fill="none" stroke="midnightblue" d="M2260.72,-112.444C2279.4,-103.675 2308.66,-89.9355 2330.12,-79.8579"/>
<polygon fill="midnightblue" stroke="midnightblue" points="2331.8,-82.935 2339.36,-75.5164 2328.82,-76.5988 2331.8,-82.935"/>
</g>
<!-- Node32&#45;&gt;Node18 -->
<g id="edge46" class="edge"><title>Node32&#45;&gt;Node18</title>
<path fill="none" stroke="midnightblue" d="M1897.37,-112.368C1934.81,-93.2113 2025.07,-47.0355 2069.67,-24.2172"/>
<polygon fill="midnightblue" stroke="midnightblue" points="2071.4,-27.2621 2078.71,-19.5914 2068.21,-21.0304 2071.4,-27.2621"/>
</g>
<!-- Node33 -->
<g id="node34" class="node"><title>Node33</title>
<polygon fill="white" stroke="#bfbfbf" points="1858,-56.5 1858,-75.5 1903,-75.5 1903,-56.5 1858,-56.5"/>
<text text-anchor="middle" x="1880.5" y="-63.5" font-family="Helvetica,sans-Serif" font-size="10.00">cstdlib</text>
</g>
<!-- Node32&#45;&gt;Node33 -->
<g id="edge45" class="edge"><title>Node32&#45;&gt;Node33</title>
<path fill="none" stroke="midnightblue" d="M1880.5,-112.083C1880.5,-105.006 1880.5,-94.8611 1880.5,-85.9865"/>
<polygon fill="midnightblue" stroke="midnightblue" points="1884,-85.751 1880.5,-75.7511 1877,-85.7511 1884,-85.751"/>
</g>
<!-- Node37&#45;&gt;Node15 -->
<g id="edge66" class="edge"><title>Node37&#45;&gt;Node15</title>
<path fill="none" stroke="midnightblue" d="M1793.2,-419.909C1808.76,-411.624 1829.87,-397.472 1839.5,-378 1856.79,-343.013 1850.56,-295.645 1845.13,-269.943"/>
<polygon fill="midnightblue" stroke="midnightblue" points="1848.51,-269.023 1842.85,-260.066 1841.69,-270.597 1848.51,-269.023"/>
</g>
<!-- Node37&#45;&gt;Node27 -->
<g id="edge65" class="edge"><title>Node37&#45;&gt;Node27</title>
<path fill="none" stroke="midnightblue" d="M1797.11,-419.997C1804.18,-417.668 1812.08,-415.401 1819.5,-414 1947.27,-389.873 2292,-444.89 2403.5,-378 2432.59,-360.55 2443.5,-346.921 2443.5,-313 2443.5,-313 2443.5,-313 2443.5,-249.5 2443.5,-210.858 2451.39,-166.163 2456.42,-141.592"/>
<polygon fill="midnightblue" stroke="midnightblue" points="2459.9,-142.045 2458.55,-131.536 2453.05,-140.593 2459.9,-142.045"/>
</g>
<!-- Node37&#45;&gt;Node28 -->
<g id="edge64" class="edge"><title>Node37&#45;&gt;Node28</title>
<path fill="none" stroke="midnightblue" d="M1799.08,-419.911C1805.66,-417.795 1812.81,-415.663 1819.5,-414 1944.34,-382.979 2389.5,-441.64 2389.5,-313 2389.5,-313 2389.5,-313 2389.5,-182.5 2389.5,-146.934 2375.23,-107.371 2365.75,-85.0039"/>
<polygon fill="midnightblue" stroke="midnightblue" points="2368.91,-83.4991 2361.68,-75.7553 2362.51,-86.3181 2368.91,-83.4991"/>
</g>
<!-- Node37&#45;&gt;Node35 -->
<g id="edge80" class="edge"><title>Node37&#45;&gt;Node35</title>
<path fill="none" stroke="midnightblue" d="M1757.59,-419.903C1742.56,-411.353 1721.2,-396.808 1709.5,-378 1688.45,-344.169 1684.1,-296.352 1683.4,-270.267"/>
<polygon fill="midnightblue" stroke="midnightblue" points="1686.9,-270.191 1683.29,-260.23 1679.9,-270.269 1686.9,-270.191"/>
</g>
<!-- Node37&#45;&gt;Node36 -->
<g id="edge81" class="edge"><title>Node37&#45;&gt;Node36</title>
<path fill="none" stroke="midnightblue" d="M1739.46,-425.278C1679.21,-417.886 1555.7,-394.333 1485.5,-322 1472.67,-308.778 1463.4,-290.071 1457.49,-275.248"/>
<polygon fill="midnightblue" stroke="midnightblue" points="1460.71,-273.863 1453.93,-265.723 1454.15,-276.315 1460.71,-273.863"/>
</g>
<!-- Node37&#45;&gt;Node38 -->
<g id="edge51" class="edge"><title>Node37&#45;&gt;Node38</title>
<path fill="none" stroke="midnightblue" d="M1748.82,-419.975C1722.19,-409.945 1681.14,-393.2 1654.7,-381.655"/>
<polygon fill="midnightblue" stroke="midnightblue" points="1655.9,-378.359 1645.34,-377.509 1653.06,-384.759 1655.9,-378.359"/>
</g>
<!-- Node39 -->
<g id="node40" class="node"><title>Node39</title>
<g id="a_node40"><a xlink:href="_frame_8h.html" target="_top" xlink:title="Frame.h">
<polygon fill="white" stroke="black" points="1974,-302.5 1974,-321.5 2027,-321.5 2027,-302.5 1974,-302.5"/>
<text text-anchor="middle" x="2000.5" y="-309.5" font-family="Helvetica,sans-Serif" font-size="10.00">Frame.h</text>
</a>
</g>
</g>
<!-- Node37&#45;&gt;Node39 -->
<g id="edge71" class="edge"><title>Node37&#45;&gt;Node39</title>
<path fill="none" stroke="midnightblue" d="M1799.6,-419.955C1806.05,-417.886 1813,-415.764 1819.5,-414 1890.68,-394.669 1927.66,-428.412 1981.5,-378 1994.1,-366.206 1998.49,-346.571 1999.95,-331.962"/>
<polygon fill="midnightblue" stroke="midnightblue" points="2003.47,-331.766 2000.6,-321.569 1996.49,-331.335 2003.47,-331.766"/>
</g>
<!-- Node41 -->
<g id="node42" class="node"><title>Node41</title>
<g id="a_node42"><a xlink:href="_o_r_bextractor_8h.html" target="_top" xlink:title="ORBextractor.h">
<polygon fill="white" stroke="black" points="1887,-358.5 1887,-377.5 1972,-377.5 1972,-358.5 1887,-358.5"/>
<text text-anchor="middle" x="1929.5" y="-365.5" font-family="Helvetica,sans-Serif" font-size="10.00">ORBextractor.h</text>
</a>
</g>
</g>
<!-- Node37&#45;&gt;Node41 -->
<g id="edge67" class="edge"><title>Node37&#45;&gt;Node41</title>
<path fill="none" stroke="midnightblue" d="M1796.71,-419.975C1823.18,-409.813 1867.61,-392.756 1897.72,-381.2"/>
<polygon fill="midnightblue" stroke="midnightblue" points="1899.25,-384.36 1907.33,-377.509 1896.74,-377.825 1899.25,-384.36"/>
</g>
<!-- Node37&#45;&gt;Node43 -->
<g id="edge72" class="edge"><title>Node37&#45;&gt;Node43</title>
<path fill="none" stroke="midnightblue" d="M1769.6,-419.975C1767.77,-411.58 1767.3,-398.481 1768.19,-387.663"/>
<polygon fill="midnightblue" stroke="midnightblue" points="1771.69,-387.897 1769.6,-377.509 1764.75,-386.929 1771.69,-387.897"/>
</g>
<!-- Node38&#45;&gt;Node14 -->
<g id="edge60" class="edge"><title>Node38&#45;&gt;Node14</title>
<path fill="none" stroke="midnightblue" d="M1620.58,-358.083C1612.72,-350.22 1601.07,-338.569 1591.58,-329.081"/>
<polygon fill="midnightblue" stroke="midnightblue" points="1593.8,-326.347 1584.25,-321.751 1588.85,-331.297 1593.8,-326.347"/>
</g>
<!-- Node38&#45;&gt;Node17 -->
<g id="edge61" class="edge"><title>Node38&#45;&gt;Node17</title>
<path fill="none" stroke="midnightblue" d="M1600.72,-358.459C1582.11,-351.51 1558.77,-339.879 1544.5,-322 1524.26,-296.636 1525.5,-283.951 1525.5,-251.5 1525.5,-251.5 1525.5,-251.5 1525.5,-182.5 1525.5,-148.364 1525.5,-108.552 1525.5,-85.7092"/>
<polygon fill="midnightblue" stroke="midnightblue" points="1529,-85.6934 1525.5,-75.6934 1522,-85.6934 1529,-85.6934"/>
</g>
<!-- Node38&#45;&gt;Node35 -->
<g id="edge62" class="edge"><title>Node38&#45;&gt;Node35</title>
<path fill="none" stroke="midnightblue" d="M1633.56,-358.319C1642.35,-339.506 1663.33,-294.648 1675.11,-269.455"/>
<polygon fill="midnightblue" stroke="midnightblue" points="1678.33,-270.823 1679.39,-260.282 1671.99,-267.858 1678.33,-270.823"/>
</g>
<!-- Node38&#45;&gt;Node36 -->
<g id="edge63" class="edge"><title>Node38&#45;&gt;Node36</title>
<path fill="none" stroke="midnightblue" d="M1596.4,-359.036C1571.53,-351.994 1537.43,-340.006 1511.5,-322 1492.81,-309.023 1476.07,-289.234 1464.7,-273.922"/>
<polygon fill="midnightblue" stroke="midnightblue" points="1467.34,-271.59 1458.66,-265.509 1461.65,-275.673 1467.34,-271.59"/>
</g>
<!-- Node38&#45;&gt;Node37 -->
<g id="edge52" class="edge"><title>Node38&#45;&gt;Node37</title>
<path fill="none" stroke="midnightblue" d="M1655.13,-377.509C1681.75,-387.532 1722.8,-404.276 1749.26,-415.827"/>
<polygon fill="midnightblue" stroke="midnightblue" points="1748.06,-419.125 1758.63,-419.975 1750.9,-412.725 1748.06,-419.125"/>
</g>
<!-- Node38&#45;&gt;Node39 -->
<g id="edge53" class="edge"><title>Node38&#45;&gt;Node39</title>
<path fill="none" stroke="midnightblue" d="M1662.51,-361.575C1731.8,-350.996 1891.44,-327.771 1963.81,-317.754"/>
<polygon fill="midnightblue" stroke="midnightblue" points="1964.4,-321.205 1973.83,-316.375 1963.45,-314.27 1964.4,-321.205"/>
</g>
<!-- Node39&#45;&gt;Node15 -->
<g id="edge58" class="edge"><title>Node39&#45;&gt;Node15</title>
<path fill="none" stroke="midnightblue" d="M1977.58,-302.475C1950.13,-292.269 1903.98,-275.108 1872.9,-263.549"/>
<polygon fill="midnightblue" stroke="midnightblue" points="1873.97,-260.214 1863.38,-260.009 1871.53,-266.775 1873.97,-260.214"/>
</g>
<!-- Node39&#45;&gt;Node18 -->
<g id="edge54" class="edge"><title>Node39&#45;&gt;Node18</title>
<path fill="none" stroke="midnightblue" d="M2007.16,-302.252C2029.19,-272.578 2099.02,-172.231 2112.5,-76 2113.73,-67.197 2114.1,-64.7443 2112.5,-56 2110.81,-46.7575 2107.33,-36.9479 2103.95,-28.8546"/>
<polygon fill="midnightblue" stroke="midnightblue" points="2107.13,-27.4045 2099.87,-19.6928 2100.74,-30.2518 2107.13,-27.4045"/>
</g>
<!-- Node39&#45;&gt;Node27 -->
<g id="edge57" class="edge"><title>Node39&#45;&gt;Node27</title>
<path fill="none" stroke="midnightblue" d="M2027.35,-310.701C2077.27,-309.257 2186.86,-301.871 2270.5,-266 2343.99,-234.48 2415.04,-168.796 2445.27,-138.689"/>
<polygon fill="midnightblue" stroke="midnightblue" points="2447.82,-141.088 2452.37,-131.519 2442.85,-136.162 2447.82,-141.088"/>
</g>
<!-- Node39&#45;&gt;Node28 -->
<g id="edge56" class="edge"><title>Node39&#45;&gt;Node28</title>
<path fill="none" stroke="midnightblue" d="M2027.07,-308.686C2081.55,-303.508 2203.64,-289.561 2237.5,-266 2271.38,-242.428 2327.75,-129.425 2349.03,-84.9962"/>
<polygon fill="midnightblue" stroke="midnightblue" points="2352.31,-86.2486 2353.44,-75.7142 2345.98,-83.2447 2352.31,-86.2486"/>
</g>
<!-- Node39&#45;&gt;Node38 -->
<g id="edge55" class="edge"><title>Node39&#45;&gt;Node38</title>
<path fill="none" stroke="midnightblue" d="M1973.96,-317.434C1910.51,-327.197 1750.27,-350.541 1672.71,-361.341"/>
<polygon fill="midnightblue" stroke="midnightblue" points="1672.21,-357.878 1662.78,-362.718 1673.17,-364.811 1672.21,-357.878"/>
</g>
<!-- Node40 -->
<g id="node41" class="node"><title>Node40</title>
<polygon fill="white" stroke="#bfbfbf" points="2121,-241 2121,-260 2228,-260 2228,-241 2121,-241"/>
<text text-anchor="middle" x="2174.5" y="-248" font-family="Helvetica,sans-Serif" font-size="10.00">opencv2/opencv.hpp</text>
</g>
<!-- Node39&#45;&gt;Node40 -->
<g id="edge59" class="edge"><title>Node39&#45;&gt;Node40</title>
<path fill="none" stroke="midnightblue" d="M2025.43,-302.475C2055.54,-292.18 2106.33,-274.81 2140.14,-263.25"/>
<polygon fill="midnightblue" stroke="midnightblue" points="2141.29,-266.556 2149.62,-260.009 2139.02,-259.933 2141.29,-266.556"/>
</g>
<!-- Node41&#45;&gt;Node17 -->
<g id="edge70" class="edge"><title>Node41&#45;&gt;Node17</title>
<path fill="none" stroke="midnightblue" d="M1930.24,-358.444C1931.74,-335.032 1932.48,-269.378 1897.5,-235 1890.88,-228.492 1587.19,-137.208 1579.5,-132 1561.17,-119.581 1545.68,-99.2105 1536.06,-84.5823"/>
<polygon fill="midnightblue" stroke="midnightblue" points="1538.9,-82.5327 1530.61,-75.9399 1532.98,-86.2658 1538.9,-82.5327"/>
</g>
<!-- Node41&#45;&gt;Node18 -->
<g id="edge68" class="edge"><title>Node41&#45;&gt;Node18</title>
<path fill="none" stroke="midnightblue" d="M1972.11,-364.008C2037.19,-357.272 2161.75,-335.552 2237.5,-266 2285.17,-222.229 2281.57,-195.416 2294.5,-132 2310.16,-55.1943 2187.98,-25.3256 2127.75,-15.3507"/>
<polygon fill="midnightblue" stroke="midnightblue" points="2128.03,-11.8527 2117.61,-13.7633 2126.95,-18.7684 2128.03,-11.8527"/>
</g>
<!-- Node42 -->
<g id="node43" class="node"><title>Node42</title>
<polygon fill="white" stroke="#bfbfbf" points="1882,-302.5 1882,-321.5 1911,-321.5 1911,-302.5 1882,-302.5"/>
<text text-anchor="middle" x="1896.5" y="-309.5" font-family="Helvetica,sans-Serif" font-size="10.00">list</text>
</g>
<!-- Node41&#45;&gt;Node42 -->
<g id="edge69" class="edge"><title>Node41&#45;&gt;Node42</title>
<path fill="none" stroke="midnightblue" d="M1924.05,-358.083C1919.49,-350.613 1912.83,-339.724 1907.21,-330.52"/>
<polygon fill="midnightblue" stroke="midnightblue" points="1910.05,-328.459 1901.85,-321.751 1904.08,-332.109 1910.05,-328.459"/>
</g>
<!-- Node43&#45;&gt;Node15 -->
<g id="edge78" class="edge"><title>Node43&#45;&gt;Node15</title>
<path fill="none" stroke="midnightblue" d="M1779.46,-358.319C1790.26,-339.422 1816.07,-294.248 1830.43,-269.121"/>
<polygon fill="midnightblue" stroke="midnightblue" points="1833.56,-270.701 1835.48,-260.282 1827.48,-267.228 1833.56,-270.701"/>
</g>
<!-- Node43&#45;&gt;Node18 -->
<g id="edge73" class="edge"><title>Node43&#45;&gt;Node18</title>
<path fill="none" stroke="midnightblue" d="M1773.49,-358.395C1770.17,-334.269 1757.19,-265.743 1714.5,-235 1589.39,-144.914 1495.45,-287.896 1369.5,-199 1315.68,-161.014 1285.31,-103.93 1330.5,-56 1356.02,-28.9362 1920.94,-14.8123 2063.21,-11.6768"/>
<polygon fill="midnightblue" stroke="midnightblue" points="2063.53,-15.1708 2073.45,-11.4541 2063.37,-8.17243 2063.53,-15.1708"/>
</g>
<!-- Node43&#45;&gt;Node34 -->
<g id="edge75" class="edge"><title>Node43&#45;&gt;Node34</title>
<path fill="none" stroke="midnightblue" d="M1760.9,-358.319C1729.97,-338.586 1654.15,-290.199 1616.08,-265.907"/>
<polygon fill="midnightblue" stroke="midnightblue" points="1617.57,-262.711 1607.26,-260.282 1613.81,-268.612 1617.57,-262.711"/>
</g>
<!-- Node43&#45;&gt;Node35 -->
<g id="edge79" class="edge"><title>Node43&#45;&gt;Node35</title>
<path fill="none" stroke="midnightblue" d="M1767.66,-358.319C1752.64,-339.255 1716.55,-293.447 1696.86,-268.458"/>
<polygon fill="midnightblue" stroke="midnightblue" points="1699.36,-265.971 1690.42,-260.282 1693.86,-270.303 1699.36,-265.971"/>
</g>
<!-- Node43&#45;&gt;Node37 -->
<g id="edge76" class="edge"><title>Node43&#45;&gt;Node37</title>
<path fill="none" stroke="midnightblue" d="M1779.4,-377.509C1781.23,-385.898 1781.7,-398.996 1780.82,-409.817"/>
<polygon fill="midnightblue" stroke="midnightblue" points="1777.31,-409.588 1779.4,-419.975 1784.25,-410.554 1777.31,-409.588"/>
</g>
<!-- Node43&#45;&gt;Node39 -->
<g id="edge77" class="edge"><title>Node43&#45;&gt;Node39</title>
<path fill="none" stroke="midnightblue" d="M1810.31,-358.444C1852.28,-348.416 1921.46,-331.886 1963.81,-321.767"/>
<polygon fill="midnightblue" stroke="midnightblue" points="1964.79,-325.131 1973.7,-319.403 1963.16,-318.322 1964.79,-325.131"/>
</g>
<!-- Node43&#45;&gt;Node42 -->
<g id="edge74" class="edge"><title>Node43&#45;&gt;Node42</title>
<path fill="none" stroke="midnightblue" d="M1793.83,-358.444C1815.14,-349.014 1849.43,-333.835 1872.45,-323.644"/>
<polygon fill="midnightblue" stroke="midnightblue" points="1874.13,-326.731 1881.85,-319.483 1871.29,-320.33 1874.13,-326.731"/>
</g>
</g>
</svg>
