<?xml version="1.0" encoding="UTF-8" standalone="no"?>
<!DOCTYPE svg PUBLIC "-//W3C//DTD SVG 1.1//EN"
 "http://www.w3.org/Graphics/SVG/1.1/DTD/svg11.dtd">
<!-- Generated by graphviz version 2.38.0 (20140413.2041)
 -->
<!-- Title: /home/alejandro/Desarrollo eclipse/os1/Thirdparty/g2o/g2o/types/sim3.h Pages: 1 -->
<svg width="1916pt" height="429pt"
 viewBox="0.00 0.00 1916.00 429.00" xmlns="http://www.w3.org/2000/svg" xmlns:xlink="http://www.w3.org/1999/xlink">
<g id="graph0" class="graph" transform="scale(1 1) rotate(0) translate(4 425)">
<title>/home/alejandro/Desarrollo eclipse/os1/Thirdparty/g2o/g2o/types/sim3.h</title>
<polygon fill="white" stroke="none" points="-4,4 -4,-425 1912,-425 1912,4 -4,4"/>
<!-- Node5 -->
<g id="node1" class="node"><title>Node5</title>
<polygon fill="#bfbfbf" stroke="black" points="910,-379.5 910,-420.5 1043,-420.5 1043,-379.5 910,-379.5"/>
<text text-anchor="start" x="918" y="-408.5" font-family="Helvetica,sans-Serif" font-size="10.00">/home/alejandro/Desarrollo</text>
<text text-anchor="start" x="918" y="-397.5" font-family="Helvetica,sans-Serif" font-size="10.00"> eclipse/os1/Thirdparty</text>
<text text-anchor="middle" x="976.5" y="-386.5" font-family="Helvetica,sans-Serif" font-size="10.00">/g2o/g2o/types/sim3.h</text>
</g>
<!-- Node6 -->
<g id="node2" class="node"><title>Node6</title>
<g id="a_node2"><a xlink:href="types__seven__dof__expmap_8h.html" target="_top" xlink:title="/home/alejandro/Desarrollo\l eclipse/os1/Thirdparty\l/g2o/g2o/types/types_seven\l_dof_expmap.h">
<polygon fill="white" stroke="black" points="906.5,-290.5 906.5,-342.5 1046.5,-342.5 1046.5,-290.5 906.5,-290.5"/>
<text text-anchor="start" x="914.5" y="-330.5" font-family="Helvetica,sans-Serif" font-size="10.00">/home/alejandro/Desarrollo</text>
<text text-anchor="start" x="914.5" y="-319.5" font-family="Helvetica,sans-Serif" font-size="10.00"> eclipse/os1/Thirdparty</text>
<text text-anchor="start" x="914.5" y="-308.5" font-family="Helvetica,sans-Serif" font-size="10.00">/g2o/g2o/types/types_seven</text>
<text text-anchor="middle" x="976.5" y="-297.5" font-family="Helvetica,sans-Serif" font-size="10.00">_dof_expmap.h</text>
</a>
</g>
</g>
<!-- Node5&#45;&gt;Node6 -->
<g id="edge1" class="edge"><title>Node5&#45;&gt;Node6</title>
<path fill="none" stroke="midnightblue" d="M976.5,-369.121C976.5,-360.413 976.5,-350.989 976.5,-342.607"/>
<polygon fill="midnightblue" stroke="midnightblue" points="973,-369.271 976.5,-379.271 980,-369.271 973,-369.271"/>
</g>
<!-- Node7 -->
<g id="node3" class="node"><title>Node7</title>
<g id="a_node3"><a xlink:href="_converter_8h.html" target="_top" xlink:title="/home/alejandro/Desarrollo\l eclipse/os1/include/Converter.h">
<polygon fill="white" stroke="black" points="399,-134.5 399,-164.5 556,-164.5 556,-134.5 399,-134.5"/>
<text text-anchor="start" x="407" y="-152.5" font-family="Helvetica,sans-Serif" font-size="10.00">/home/alejandro/Desarrollo</text>
<text text-anchor="middle" x="477.5" y="-141.5" font-family="Helvetica,sans-Serif" font-size="10.00"> eclipse/os1/include/Converter.h</text>
</a>
</g>
</g>
<!-- Node6&#45;&gt;Node7 -->
<g id="edge2" class="edge"><title>Node6&#45;&gt;Node7</title>
<path fill="none" stroke="midnightblue" d="M896.271,-302.959C839.331,-292.852 761.588,-276.59 695.5,-254 622.555,-229.066 541.849,-186.507 502.222,-164.539"/>
<polygon fill="midnightblue" stroke="midnightblue" points="895.842,-306.437 906.295,-304.713 897.048,-299.542 895.842,-306.437"/>
</g>
<!-- Node12 -->
<g id="node8" class="node"><title>Node12</title>
<g id="a_node8"><a xlink:href="_optimizer_8cc.html" target="_top" xlink:title="/home/alejandro/Desarrollo\l eclipse/os1/src/Optimizer.cc">
<polygon fill="white" stroke="black" points="556.5,-67.5 556.5,-97.5 700.5,-97.5 700.5,-67.5 556.5,-67.5"/>
<text text-anchor="start" x="564.5" y="-85.5" font-family="Helvetica,sans-Serif" font-size="10.00">/home/alejandro/Desarrollo</text>
<text text-anchor="middle" x="628.5" y="-74.5" font-family="Helvetica,sans-Serif" font-size="10.00"> eclipse/os1/src/Optimizer.cc</text>
</a>
</g>
</g>
<!-- Node6&#45;&gt;Node12 -->
<g id="edge35" class="edge"><title>Node6&#45;&gt;Node12</title>
<path fill="none" stroke="midnightblue" d="M930.463,-284.809C854.355,-234.07 705.211,-134.641 649.851,-97.7337"/>
<polygon fill="midnightblue" stroke="midnightblue" points="928.665,-287.817 938.927,-290.452 932.548,-281.992 928.665,-287.817"/>
</g>
<!-- Node15 -->
<g id="node11" class="node"><title>Node15</title>
<g id="a_node11"><a xlink:href="_loop_closing_8h.html" target="_top" xlink:title="/home/alejandro/Desarrollo\l eclipse/os1/include/LoopClosing.h">
<polygon fill="white" stroke="black" points="1100.5,-212.5 1100.5,-242.5 1268.5,-242.5 1268.5,-212.5 1100.5,-212.5"/>
<text text-anchor="start" x="1108.5" y="-230.5" font-family="Helvetica,sans-Serif" font-size="10.00">/home/alejandro/Desarrollo</text>
<text text-anchor="middle" x="1184.5" y="-219.5" font-family="Helvetica,sans-Serif" font-size="10.00"> eclipse/os1/include/LoopClosing.h</text>
</a>
</g>
</g>
<!-- Node6&#45;&gt;Node15 -->
<g id="edge10" class="edge"><title>Node6&#45;&gt;Node15</title>
<path fill="none" stroke="midnightblue" d="M1045.71,-286.551C1081.1,-271.748 1122.57,-254.403 1150.9,-242.554"/>
<polygon fill="midnightblue" stroke="midnightblue" points="1044.26,-283.365 1036.38,-290.453 1046.96,-289.823 1044.26,-283.365"/>
</g>
<!-- Node23 -->
<g id="node19" class="node"><title>Node23</title>
<g id="a_node19"><a xlink:href="_optimizer_8h.html" target="_top" xlink:title="/home/alejandro/Desarrollo\l eclipse/os1/include/Optimizer.h">
<polygon fill="white" stroke="black" points="898.5,-134.5 898.5,-164.5 1054.5,-164.5 1054.5,-134.5 898.5,-134.5"/>
<text text-anchor="start" x="906.5" y="-152.5" font-family="Helvetica,sans-Serif" font-size="10.00">/home/alejandro/Desarrollo</text>
<text text-anchor="middle" x="976.5" y="-141.5" font-family="Helvetica,sans-Serif" font-size="10.00"> eclipse/os1/include/Optimizer.h</text>
</a>
</g>
</g>
<!-- Node6&#45;&gt;Node23 -->
<g id="edge34" class="edge"><title>Node6&#45;&gt;Node23</title>
<path fill="none" stroke="midnightblue" d="M976.5,-280.34C976.5,-244.279 976.5,-189.98 976.5,-164.561"/>
<polygon fill="midnightblue" stroke="midnightblue" points="973,-280.44 976.5,-290.44 980,-280.44 973,-280.44"/>
</g>
<!-- Node25 -->
<g id="node21" class="node"><title>Node25</title>
<g id="a_node21"><a xlink:href="types__seven__dof__expmap_8cpp.html" target="_top" xlink:title="/home/alejandro/Desarrollo\l eclipse/os1/Thirdparty\l/g2o/g2o/types/types_seven\l_dof_expmap.cpp">
<polygon fill="white" stroke="black" points="1286.5,-201.5 1286.5,-253.5 1426.5,-253.5 1426.5,-201.5 1286.5,-201.5"/>
<text text-anchor="start" x="1294.5" y="-241.5" font-family="Helvetica,sans-Serif" font-size="10.00">/home/alejandro/Desarrollo</text>
<text text-anchor="start" x="1294.5" y="-230.5" font-family="Helvetica,sans-Serif" font-size="10.00"> eclipse/os1/Thirdparty</text>
<text text-anchor="start" x="1294.5" y="-219.5" font-family="Helvetica,sans-Serif" font-size="10.00">/g2o/g2o/types/types_seven</text>
<text text-anchor="middle" x="1356.5" y="-208.5" font-family="Helvetica,sans-Serif" font-size="10.00">_dof_expmap.cpp</text>
</a>
</g>
</g>
<!-- Node6&#45;&gt;Node25 -->
<g id="edge36" class="edge"><title>Node6&#45;&gt;Node25</title>
<path fill="none" stroke="midnightblue" d="M1056.59,-301.632C1117.56,-290.474 1203.35,-273.48 1277.5,-254 1280.43,-253.231 1283.41,-252.417 1286.41,-251.569"/>
<polygon fill="midnightblue" stroke="midnightblue" points="1055.86,-298.208 1046.65,-303.441 1057.11,-305.095 1055.86,-298.208"/>
</g>
<!-- Node8 -->
<g id="node4" class="node"><title>Node8</title>
<g id="a_node4"><a xlink:href="_converter_8cc.html" target="_top" xlink:title="/home/alejandro/Desarrollo\l eclipse/os1/src/Converter.cc">
<polygon fill="white" stroke="black" points="0,-67.5 0,-97.5 145,-97.5 145,-67.5 0,-67.5"/>
<text text-anchor="start" x="8" y="-85.5" font-family="Helvetica,sans-Serif" font-size="10.00">/home/alejandro/Desarrollo</text>
<text text-anchor="middle" x="72.5" y="-74.5" font-family="Helvetica,sans-Serif" font-size="10.00"> eclipse/os1/src/Converter.cc</text>
</a>
</g>
</g>
<!-- Node7&#45;&gt;Node8 -->
<g id="edge3" class="edge"><title>Node7&#45;&gt;Node8</title>
<path fill="none" stroke="midnightblue" d="M388.711,-134.586C324.918,-124.544 236.88,-110.592 159.5,-98 154.815,-97.2376 149.988,-96.4471 145.124,-95.6467"/>
<polygon fill="midnightblue" stroke="midnightblue" points="388.313,-138.067 398.736,-136.164 389.402,-131.152 388.313,-138.067"/>
</g>
<!-- Node9 -->
<g id="node5" class="node"><title>Node9</title>
<g id="a_node5"><a xlink:href="_frame_8cc.html" target="_top" xlink:title="/home/alejandro/Desarrollo\l eclipse/os1/src/Frame.cc">
<polygon fill="white" stroke="black" points="202,-67.5 202,-97.5 335,-97.5 335,-67.5 202,-67.5"/>
<text text-anchor="start" x="210" y="-85.5" font-family="Helvetica,sans-Serif" font-size="10.00">/home/alejandro/Desarrollo</text>
<text text-anchor="middle" x="268.5" y="-74.5" font-family="Helvetica,sans-Serif" font-size="10.00"> eclipse/os1/src/Frame.cc</text>
</a>
</g>
</g>
<!-- Node7&#45;&gt;Node9 -->
<g id="edge4" class="edge"><title>Node7&#45;&gt;Node9</title>
<path fill="none" stroke="midnightblue" d="M422.659,-131.444C388.78,-120.908 345.828,-107.549 313.872,-97.6109"/>
<polygon fill="midnightblue" stroke="midnightblue" points="421.819,-134.848 432.407,-134.476 423.898,-128.164 421.819,-134.848"/>
</g>
<!-- Node10 -->
<g id="node6" class="node"><title>Node10</title>
<g id="a_node6"><a xlink:href="_key_frame_8cc.html" target="_top" xlink:title="/home/alejandro/Desarrollo\l eclipse/os1/src/KeyFrame.cc">
<polygon fill="white" stroke="black" points="353,-67.5 353,-97.5 500,-97.5 500,-67.5 353,-67.5"/>
<text text-anchor="start" x="361" y="-85.5" font-family="Helvetica,sans-Serif" font-size="10.00">/home/alejandro/Desarrollo</text>
<text text-anchor="middle" x="426.5" y="-74.5" font-family="Helvetica,sans-Serif" font-size="10.00"> eclipse/os1/src/KeyFrame.cc</text>
</a>
</g>
</g>
<!-- Node7&#45;&gt;Node10 -->
<g id="edge5" class="edge"><title>Node7&#45;&gt;Node10</title>
<path fill="none" stroke="midnightblue" d="M460.197,-126.447C452.705,-116.899 444.157,-106.004 437.545,-97.5765"/>
<polygon fill="midnightblue" stroke="midnightblue" points="457.507,-128.689 466.434,-134.396 463.014,-124.368 457.507,-128.689"/>
</g>
<!-- Node11 -->
<g id="node7" class="node"><title>Node11</title>
<g id="a_node7"><a xlink:href="_loop_closing_8cc.html" target="_top" xlink:title="/home/alejandro/Desarrollo\l eclipse/os1/src/LoopClosing.cc">
<polygon fill="white" stroke="black" points="718.5,-67.5 718.5,-97.5 874.5,-97.5 874.5,-67.5 718.5,-67.5"/>
<text text-anchor="start" x="726.5" y="-85.5" font-family="Helvetica,sans-Serif" font-size="10.00">/home/alejandro/Desarrollo</text>
<text text-anchor="middle" x="796.5" y="-74.5" font-family="Helvetica,sans-Serif" font-size="10.00"> eclipse/os1/src/LoopClosing.cc</text>
</a>
</g>
</g>
<!-- Node7&#45;&gt;Node11 -->
<g id="edge6" class="edge"><title>Node7&#45;&gt;Node11</title>
<path fill="none" stroke="midnightblue" d="M556.272,-132.449C608.787,-121.749 677.157,-107.818 727.523,-97.5549"/>
<polygon fill="midnightblue" stroke="midnightblue" points="555.425,-129.05 546.326,-134.476 556.823,-135.909 555.425,-129.05"/>
</g>
<!-- Node7&#45;&gt;Node12 -->
<g id="edge7" class="edge"><title>Node7&#45;&gt;Node12</title>
<path fill="none" stroke="midnightblue" d="M519.532,-130.407C543.639,-120.029 573.454,-107.195 595.799,-97.5765"/>
<polygon fill="midnightblue" stroke="midnightblue" points="518.066,-127.227 510.265,-134.396 520.834,-133.657 518.066,-127.227"/>
</g>
<!-- Node13 -->
<g id="node9" class="node"><title>Node13</title>
<g id="a_node9"><a xlink:href="_system_8cc.html" target="_top" xlink:title="/home/alejandro/Desarrollo\l eclipse/os1/src/System.cc">
<polygon fill="white" stroke="black" points="1124.5,-0.5 1124.5,-30.5 1260.5,-30.5 1260.5,-0.5 1124.5,-0.5"/>
<text text-anchor="start" x="1132.5" y="-18.5" font-family="Helvetica,sans-Serif" font-size="10.00">/home/alejandro/Desarrollo</text>
<text text-anchor="middle" x="1192.5" y="-7.5" font-family="Helvetica,sans-Serif" font-size="10.00"> eclipse/os1/src/System.cc</text>
</a>
</g>
</g>
<!-- Node7&#45;&gt;Node13 -->
<g id="edge8" class="edge"><title>Node7&#45;&gt;Node13</title>
<path fill="none" stroke="midnightblue" d="M490.228,-125.471C502.253,-106.195 522.201,-79.84 547.5,-67 560.255,-60.5266 961.285,-32.3681 1124.45,-21.1434"/>
<polygon fill="midnightblue" stroke="midnightblue" points="487.094,-123.894 484.974,-134.275 493.104,-127.482 487.094,-123.894"/>
</g>
<!-- Node14 -->
<g id="node10" class="node"><title>Node14</title>
<g id="a_node10"><a xlink:href="_tracking_8cc.html" target="_top" xlink:title="/home/alejandro/Desarrollo\l eclipse/os1/src/Tracking.cc">
<polygon fill="white" stroke="black" points="832.5,-0.5 832.5,-30.5 972.5,-30.5 972.5,-0.5 832.5,-0.5"/>
<text text-anchor="start" x="840.5" y="-18.5" font-family="Helvetica,sans-Serif" font-size="10.00">/home/alejandro/Desarrollo</text>
<text text-anchor="middle" x="902.5" y="-7.5" font-family="Helvetica,sans-Serif" font-size="10.00"> eclipse/os1/src/Tracking.cc</text>
</a>
</g>
</g>
<!-- Node7&#45;&gt;Node14 -->
<g id="edge9" class="edge"><title>Node7&#45;&gt;Node14</title>
<path fill="none" stroke="midnightblue" d="M388.335,-148.909C283.713,-146.503 131.739,-132.236 192.5,-67 235.507,-20.8254 661.85,-16.1851 832.462,-16.1959"/>
<polygon fill="midnightblue" stroke="midnightblue" points="388.552,-152.413 398.619,-149.111 388.69,-145.415 388.552,-152.413"/>
</g>
<!-- Node15&#45;&gt;Node11 -->
<g id="edge32" class="edge"><title>Node15&#45;&gt;Node11</title>
<path fill="none" stroke="midnightblue" d="M1090.11,-219.225C1030.12,-211.667 952.236,-196.283 889.5,-165 855.878,-148.235 824.765,-116.306 808.442,-97.7791"/>
<polygon fill="midnightblue" stroke="midnightblue" points="1089.98,-222.735 1100.33,-220.459 1090.82,-215.786 1089.98,-222.735"/>
</g>
<!-- Node15&#45;&gt;Node13 -->
<g id="edge33" class="edge"><title>Node15&#45;&gt;Node13</title>
<path fill="none" stroke="midnightblue" d="M1191.1,-202.735C1197.26,-183.16 1207.71,-155.265 1222.5,-134 1235.97,-114.633 1252.04,-119.609 1261.5,-98 1267.03,-85.3789 1267.73,-79.287 1261.5,-67 1253.44,-51.1138 1237.78,-39.0247 1223.41,-30.6636"/>
<polygon fill="midnightblue" stroke="midnightblue" points="1187.73,-201.812 1188.2,-212.396 1194.43,-203.825 1187.73,-201.812"/>
</g>
<!-- Node16 -->
<g id="node12" class="node"><title>Node16</title>
<g id="a_node12"><a xlink:href="_local_mapping_8h.html" target="_top" xlink:title="/home/alejandro/Desarrollo\l eclipse/os1/include/LocalMapping.h">
<polygon fill="white" stroke="black" points="1231.5,-134.5 1231.5,-164.5 1405.5,-164.5 1405.5,-134.5 1231.5,-134.5"/>
<text text-anchor="start" x="1239.5" y="-152.5" font-family="Helvetica,sans-Serif" font-size="10.00">/home/alejandro/Desarrollo</text>
<text text-anchor="middle" x="1318.5" y="-141.5" font-family="Helvetica,sans-Serif" font-size="10.00"> eclipse/os1/include/LocalMapping.h</text>
</a>
</g>
</g>
<!-- Node15&#45;&gt;Node16 -->
<g id="edge11" class="edge"><title>Node15&#45;&gt;Node16</title>
<path fill="none" stroke="midnightblue" d="M1212.66,-207.144C1234.88,-193.853 1265.65,-176.517 1288.37,-164.541"/>
<polygon fill="midnightblue" stroke="midnightblue" points="1210.75,-204.211 1204,-212.383 1214.37,-210.2 1210.75,-204.211"/>
</g>
<!-- Node17 -->
<g id="node13" class="node"><title>Node17</title>
<g id="a_node13"><a xlink:href="_tracking_8h.html" target="_top" xlink:title="/home/alejandro/Desarrollo\l eclipse/os1/include/Tracking.h">
<polygon fill="white" stroke="black" points="1356.5,-67.5 1356.5,-97.5 1508.5,-97.5 1508.5,-67.5 1356.5,-67.5"/>
<text text-anchor="start" x="1364.5" y="-85.5" font-family="Helvetica,sans-Serif" font-size="10.00">/home/alejandro/Desarrollo</text>
<text text-anchor="middle" x="1432.5" y="-74.5" font-family="Helvetica,sans-Serif" font-size="10.00"> eclipse/os1/include/Tracking.h</text>
</a>
</g>
</g>
<!-- Node15&#45;&gt;Node17 -->
<g id="edge24" class="edge"><title>Node15&#45;&gt;Node17</title>
<path fill="none" stroke="midnightblue" d="M1236.82,-209.626C1247.28,-206.729 1258.21,-203.763 1268.5,-201 1329.3,-184.676 1361.87,-210.389 1405.5,-165 1422.97,-146.822 1425.01,-115.704 1427.35,-97.6337"/>
<polygon fill="midnightblue" stroke="midnightblue" points="1235.65,-206.317 1226.96,-212.373 1237.53,-213.06 1235.65,-206.317"/>
</g>
<!-- Node22 -->
<g id="node18" class="node"><title>Node22</title>
<g id="a_node18"><a xlink:href="_local_mapping_8cc.html" target="_top" xlink:title="/home/alejandro/Desarrollo\l eclipse/os1/src/LocalMapping.cc">
<polygon fill="white" stroke="black" points="1090.5,-67.5 1090.5,-97.5 1252.5,-97.5 1252.5,-67.5 1090.5,-67.5"/>
<text text-anchor="start" x="1098.5" y="-85.5" font-family="Helvetica,sans-Serif" font-size="10.00">/home/alejandro/Desarrollo</text>
<text text-anchor="middle" x="1171.5" y="-74.5" font-family="Helvetica,sans-Serif" font-size="10.00"> eclipse/os1/src/LocalMapping.cc</text>
</a>
</g>
</g>
<!-- Node15&#45;&gt;Node22 -->
<g id="edge31" class="edge"><title>Node15&#45;&gt;Node22</title>
<path fill="none" stroke="midnightblue" d="M1182.29,-202.194C1179.56,-172.159 1175,-122.048 1172.79,-97.6766"/>
<polygon fill="midnightblue" stroke="midnightblue" points="1178.81,-202.624 1183.21,-212.266 1185.79,-201.99 1178.81,-202.624"/>
</g>
<!-- Node15&#45;&gt;Node23 -->
<g id="edge25" class="edge"><title>Node15&#45;&gt;Node23</title>
<path fill="none" stroke="midnightblue" d="M1136.31,-208.892C1099.4,-195.405 1049.16,-177.049 1014.93,-164.541"/>
<polygon fill="midnightblue" stroke="midnightblue" points="1135.27,-212.239 1145.86,-212.383 1137.67,-205.664 1135.27,-212.239"/>
</g>
<!-- Node16&#45;&gt;Node13 -->
<g id="edge23" class="edge"><title>Node16&#45;&gt;Node13</title>
<path fill="none" stroke="midnightblue" d="M1316.5,-124.112C1313.92,-106.502 1308.01,-83.0862 1294.5,-67 1280.39,-50.2065 1259.34,-38.4819 1240.02,-30.5878"/>
<polygon fill="midnightblue" stroke="midnightblue" points="1313.05,-124.698 1317.71,-134.208 1319.99,-123.862 1313.05,-124.698"/>
</g>
<!-- Node16&#45;&gt;Node15 -->
<g id="edge12" class="edge"><title>Node16&#45;&gt;Node15</title>
<path fill="none" stroke="midnightblue" d="M1290.48,-169.772C1268.29,-183.046 1237.53,-200.385 1214.78,-212.383"/>
<polygon fill="midnightblue" stroke="midnightblue" points="1292.38,-172.715 1299.12,-164.541 1288.75,-166.727 1292.38,-172.715"/>
</g>
<!-- Node16&#45;&gt;Node17 -->
<g id="edge13" class="edge"><title>Node16&#45;&gt;Node17</title>
<path fill="none" stroke="midnightblue" d="M1346.43,-129.015C1363.34,-118.9 1384.8,-106.77 1402.14,-97.5765"/>
<polygon fill="midnightblue" stroke="midnightblue" points="1344.29,-126.217 1337.56,-134.396 1347.92,-132.203 1344.29,-126.217"/>
</g>
<!-- Node16&#45;&gt;Node22 -->
<g id="edge22" class="edge"><title>Node16&#45;&gt;Node22</title>
<path fill="none" stroke="midnightblue" d="M1277.27,-130.269C1253.86,-119.916 1224.99,-107.153 1203.33,-97.5765"/>
<polygon fill="midnightblue" stroke="midnightblue" points="1276.04,-133.553 1286.6,-134.396 1278.87,-127.151 1276.04,-133.553"/>
</g>
<!-- Node17&#45;&gt;Node13 -->
<g id="edge19" class="edge"><title>Node17&#45;&gt;Node13</title>
<path fill="none" stroke="midnightblue" d="M1371.02,-64.8498C1331.89,-54.2523 1281.77,-40.6775 1244.6,-30.6109"/>
<polygon fill="midnightblue" stroke="midnightblue" points="1370.15,-68.2401 1380.72,-67.476 1371.98,-61.4835 1370.15,-68.2401"/>
</g>
<!-- Node17&#45;&gt;Node14 -->
<g id="edge20" class="edge"><title>Node17&#45;&gt;Node14</title>
<path fill="none" stroke="midnightblue" d="M1346.11,-70.9055C1241.99,-58.135 1069.02,-36.9226 972.715,-25.1112"/>
<polygon fill="midnightblue" stroke="midnightblue" points="1345.93,-74.4091 1356.28,-72.1525 1346.78,-67.4611 1345.93,-74.4091"/>
</g>
<!-- Node17&#45;&gt;Node15 -->
<g id="edge14" class="edge"><title>Node17&#45;&gt;Node15</title>
<path fill="none" stroke="midnightblue" d="M1440.86,-107.721C1441.89,-125.793 1438.04,-149.876 1423.5,-165 1379.87,-210.389 1347.3,-184.676 1286.5,-201 1272.92,-204.646 1258.24,-208.645 1244.32,-212.373"/>
<polygon fill="midnightblue" stroke="midnightblue" points="1444.32,-107.164 1439.69,-97.6337 1437.37,-107.97 1444.32,-107.164"/>
</g>
<!-- Node17&#45;&gt;Node16 -->
<g id="edge15" class="edge"><title>Node17&#45;&gt;Node16</title>
<path fill="none" stroke="midnightblue" d="M1404.62,-102.955C1387.72,-113.066 1366.26,-125.197 1348.91,-134.396"/>
<polygon fill="midnightblue" stroke="midnightblue" points="1406.75,-105.755 1413.49,-97.5765 1403.12,-99.7706 1406.75,-105.755"/>
</g>
<!-- Node18 -->
<g id="node14" class="node"><title>Node18</title>
<g id="a_node14"><a xlink:href="_frame_drawer_8cc.html" target="_top" xlink:title="/home/alejandro/Desarrollo\l eclipse/os1/src/FrameDrawer.cc">
<polygon fill="white" stroke="black" points="1596,-0.5 1596,-30.5 1757,-30.5 1757,-0.5 1596,-0.5"/>
<text text-anchor="start" x="1604" y="-18.5" font-family="Helvetica,sans-Serif" font-size="10.00">/home/alejandro/Desarrollo</text>
<text text-anchor="middle" x="1676.5" y="-7.5" font-family="Helvetica,sans-Serif" font-size="10.00"> eclipse/os1/src/FrameDrawer.cc</text>
</a>
</g>
</g>
<!-- Node17&#45;&gt;Node18 -->
<g id="edge16" class="edge"><title>Node17&#45;&gt;Node18</title>
<path fill="none" stroke="midnightblue" d="M1495,-64.8498C1534.78,-54.2523 1585.74,-40.6775 1623.53,-30.6109"/>
<polygon fill="midnightblue" stroke="midnightblue" points="1493.91,-61.5197 1485.14,-67.476 1495.71,-68.2838 1493.91,-61.5197"/>
</g>
<!-- Node19 -->
<g id="node15" class="node"><title>Node19</title>
<g id="a_node15"><a xlink:href="main_8cc.html" target="_top" xlink:title="/home/alejandro/Desarrollo\l eclipse/os1/src/main.cc">
<polygon fill="white" stroke="black" points="1775,-0.5 1775,-30.5 1908,-30.5 1908,-0.5 1775,-0.5"/>
<text text-anchor="start" x="1783" y="-18.5" font-family="Helvetica,sans-Serif" font-size="10.00">/home/alejandro/Desarrollo</text>
<text text-anchor="middle" x="1841.5" y="-7.5" font-family="Helvetica,sans-Serif" font-size="10.00"> eclipse/os1/src/main.cc</text>
</a>
</g>
</g>
<!-- Node17&#45;&gt;Node19 -->
<g id="edge17" class="edge"><title>Node17&#45;&gt;Node19</title>
<path fill="none" stroke="midnightblue" d="M1518.75,-69.4477C1586.29,-59.7722 1682.53,-45.459 1766.5,-31 1769.24,-30.5274 1772.04,-30.0348 1774.87,-29.5286"/>
<polygon fill="midnightblue" stroke="midnightblue" points="1517.99,-66.0212 1508.59,-70.9005 1518.98,-72.9508 1517.99,-66.0212"/>
</g>
<!-- Node20 -->
<g id="node16" class="node"><title>Node20</title>
<g id="a_node16"><a xlink:href="_serializer_8cpp.html" target="_top" xlink:title="/home/alejandro/Desarrollo\l eclipse/os1/src/Serializer.cpp">
<polygon fill="white" stroke="black" points="1278.5,-0.5 1278.5,-30.5 1426.5,-30.5 1426.5,-0.5 1278.5,-0.5"/>
<text text-anchor="start" x="1286.5" y="-18.5" font-family="Helvetica,sans-Serif" font-size="10.00">/home/alejandro/Desarrollo</text>
<text text-anchor="middle" x="1352.5" y="-7.5" font-family="Helvetica,sans-Serif" font-size="10.00"> eclipse/os1/src/Serializer.cpp</text>
</a>
</g>
</g>
<!-- Node17&#45;&gt;Node20 -->
<g id="edge18" class="edge"><title>Node17&#45;&gt;Node20</title>
<path fill="none" stroke="midnightblue" d="M1407.13,-60.8832C1394.97,-51.0054 1380.72,-39.4293 1369.82,-30.5765"/>
<polygon fill="midnightblue" stroke="midnightblue" points="1405.17,-63.8064 1415.14,-67.396 1409.59,-58.3736 1405.17,-63.8064"/>
</g>
<!-- Node21 -->
<g id="node17" class="node"><title>Node21</title>
<g id="a_node17"><a xlink:href="_viewer_8cc.html" target="_top" xlink:title="/home/alejandro/Desarrollo\l eclipse/os1/src/Viewer.cc">
<polygon fill="white" stroke="black" points="1445,-0.5 1445,-30.5 1578,-30.5 1578,-0.5 1445,-0.5"/>
<text text-anchor="start" x="1453" y="-18.5" font-family="Helvetica,sans-Serif" font-size="10.00">/home/alejandro/Desarrollo</text>
<text text-anchor="middle" x="1511.5" y="-7.5" font-family="Helvetica,sans-Serif" font-size="10.00"> eclipse/os1/src/Viewer.cc</text>
</a>
</g>
</g>
<!-- Node17&#45;&gt;Node21 -->
<g id="edge21" class="edge"><title>Node17&#45;&gt;Node21</title>
<path fill="none" stroke="midnightblue" d="M1457.56,-60.8832C1469.56,-51.0054 1483.63,-39.4293 1494.39,-30.5765"/>
<polygon fill="midnightblue" stroke="midnightblue" points="1455.14,-58.3395 1449.64,-67.396 1459.59,-63.745 1455.14,-58.3395"/>
</g>
<!-- Node23&#45;&gt;Node11 -->
<g id="edge28" class="edge"><title>Node23&#45;&gt;Node11</title>
<path fill="none" stroke="midnightblue" d="M927.915,-130.955C898.919,-120.485 862.589,-107.366 835.481,-97.5765"/>
<polygon fill="midnightblue" stroke="midnightblue" points="926.848,-134.291 937.443,-134.396 929.226,-127.708 926.848,-134.291"/>
</g>
<!-- Node23&#45;&gt;Node12 -->
<g id="edge29" class="edge"><title>Node23&#45;&gt;Node12</title>
<path fill="none" stroke="midnightblue" d="M891.466,-132.617C833.021,-121.701 756.257,-107.363 700.768,-96.9983"/>
<polygon fill="midnightblue" stroke="midnightblue" points="890.945,-136.08 901.418,-134.476 892.23,-129.199 890.945,-136.08"/>
</g>
<!-- Node23&#45;&gt;Node14 -->
<g id="edge30" class="edge"><title>Node23&#45;&gt;Node14</title>
<path fill="none" stroke="midnightblue" d="M947.85,-127.951C938.167,-119.666 928.139,-109.369 921.5,-98 909.045,-76.6714 904.753,-47.73 903.275,-30.6921"/>
<polygon fill="midnightblue" stroke="midnightblue" points="945.849,-130.836 955.82,-134.418 950.26,-125.399 945.849,-130.836"/>
</g>
<!-- Node23&#45;&gt;Node22 -->
<g id="edge27" class="edge"><title>Node23&#45;&gt;Node22</title>
<path fill="none" stroke="midnightblue" d="M1028.32,-131.228C1059.86,-120.713 1099.65,-107.451 1129.27,-97.5765"/>
<polygon fill="midnightblue" stroke="midnightblue" points="1027.19,-127.913 1018.81,-134.396 1029.41,-134.554 1027.19,-127.913"/>
</g>
<!-- Node24 -->
<g id="node20" class="node"><title>Node24</title>
<g id="a_node20"><a xlink:href="_initializer_8cc.html" target="_top" xlink:title="/home/alejandro/Desarrollo\l eclipse/os1/src/Initializer.cc">
<polygon fill="white" stroke="black" points="931,-67.5 931,-97.5 1072,-97.5 1072,-67.5 931,-67.5"/>
<text text-anchor="start" x="939" y="-85.5" font-family="Helvetica,sans-Serif" font-size="10.00">/home/alejandro/Desarrollo</text>
<text text-anchor="middle" x="1001.5" y="-74.5" font-family="Helvetica,sans-Serif" font-size="10.00"> eclipse/os1/src/Initializer.cc</text>
</a>
</g>
</g>
<!-- Node23&#45;&gt;Node24 -->
<g id="edge26" class="edge"><title>Node23&#45;&gt;Node24</title>
<path fill="none" stroke="midnightblue" d="M985.542,-124.991C989.075,-115.804 993.008,-105.578 996.086,-97.5765"/>
<polygon fill="midnightblue" stroke="midnightblue" points="982.248,-123.806 981.925,-134.396 988.781,-126.319 982.248,-123.806"/>
</g>
</g>
</svg>
