<?xml version="1.0" encoding="UTF-8" standalone="no"?>
<!DOCTYPE svg PUBLIC "-//W3C//DTD SVG 1.1//EN"
 "http://www.w3.org/Graphics/SVG/1.1/DTD/svg11.dtd">
<!-- Generated by graphviz version 2.38.0 (20140413.2041)
 -->
<!-- Title: /home/alejandro/Desarrollo eclipse/os1/Thirdparty/g2o/g2o/types/sim3.h Pages: 1 -->
<svg width="1538pt" height="630pt"
 viewBox="0.00 0.00 1537.50 630.00" xmlns="http://www.w3.org/2000/svg" xmlns:xlink="http://www.w3.org/1999/xlink">
<g id="graph0" class="graph" transform="scale(1 1) rotate(0) translate(4 626)">
<title>/home/alejandro/Desarrollo eclipse/os1/Thirdparty/g2o/g2o/types/sim3.h</title>
<polygon fill="white" stroke="none" points="-4,4 -4,-626 1533.5,-626 1533.5,4 -4,4"/>
<!-- Node5 -->
<g id="node1" class="node"><title>Node5</title>
<polygon fill="#bfbfbf" stroke="black" points="886,-580.5 886,-621.5 1019,-621.5 1019,-580.5 886,-580.5"/>
<text text-anchor="start" x="894" y="-609.5" font-family="Helvetica,sans-Serif" font-size="10.00">/home/alejandro/Desarrollo</text>
<text text-anchor="start" x="894" y="-598.5" font-family="Helvetica,sans-Serif" font-size="10.00"> eclipse/os1/Thirdparty</text>
<text text-anchor="middle" x="952.5" y="-587.5" font-family="Helvetica,sans-Serif" font-size="10.00">/g2o/g2o/types/sim3.h</text>
</g>
<!-- Node6 -->
<g id="node2" class="node"><title>Node6</title>
<g id="a_node2"><a xlink:href="types__seven__dof__expmap_8h.html" target="_top" xlink:title="/home/alejandro/Desarrollo\l eclipse/os1/Thirdparty\l/g2o/g2o/types/types_seven\l_dof_expmap.h">
<polygon fill="white" stroke="black" points="882.5,-491.5 882.5,-543.5 1022.5,-543.5 1022.5,-491.5 882.5,-491.5"/>
<text text-anchor="start" x="890.5" y="-531.5" font-family="Helvetica,sans-Serif" font-size="10.00">/home/alejandro/Desarrollo</text>
<text text-anchor="start" x="890.5" y="-520.5" font-family="Helvetica,sans-Serif" font-size="10.00"> eclipse/os1/Thirdparty</text>
<text text-anchor="start" x="890.5" y="-509.5" font-family="Helvetica,sans-Serif" font-size="10.00">/g2o/g2o/types/types_seven</text>
<text text-anchor="middle" x="952.5" y="-498.5" font-family="Helvetica,sans-Serif" font-size="10.00">_dof_expmap.h</text>
</a>
</g>
</g>
<!-- Node5&#45;&gt;Node6 -->
<g id="edge1" class="edge"><title>Node5&#45;&gt;Node6</title>
<path fill="none" stroke="midnightblue" d="M952.5,-570.121C952.5,-561.413 952.5,-551.989 952.5,-543.607"/>
<polygon fill="midnightblue" stroke="midnightblue" points="949,-570.271 952.5,-580.271 956,-570.271 949,-570.271"/>
</g>
<!-- Node7 -->
<g id="node3" class="node"><title>Node7</title>
<g id="a_node3"><a xlink:href="_converter_8h.html" target="_top" xlink:title="/home/alejandro/Desarrollo\l eclipse/os1/include/Converter.h">
<polygon fill="white" stroke="black" points="400,-335.5 400,-365.5 557,-365.5 557,-335.5 400,-335.5"/>
<text text-anchor="start" x="408" y="-353.5" font-family="Helvetica,sans-Serif" font-size="10.00">/home/alejandro/Desarrollo</text>
<text text-anchor="middle" x="478.5" y="-342.5" font-family="Helvetica,sans-Serif" font-size="10.00"> eclipse/os1/include/Converter.h</text>
</a>
</g>
</g>
<!-- Node6&#45;&gt;Node7 -->
<g id="edge2" class="edge"><title>Node6&#45;&gt;Node7</title>
<path fill="none" stroke="midnightblue" d="M872.425,-499.049C826.053,-488.12 766.872,-472.758 715.5,-455 638.057,-428.23 550.584,-387.028 506.74,-365.576"/>
<polygon fill="midnightblue" stroke="midnightblue" points="871.884,-502.516 882.418,-501.382 873.475,-495.7 871.884,-502.516"/>
</g>
<!-- Node12 -->
<g id="node8" class="node"><title>Node12</title>
<g id="a_node8"><a xlink:href="_optimizer_8cc.html" target="_top" xlink:title="/home/alejandro/Desarrollo\l eclipse/os1/src/Optimizer.cc">
<polygon fill="white" stroke="black" points="556.5,-268.5 556.5,-298.5 700.5,-298.5 700.5,-268.5 556.5,-268.5"/>
<text text-anchor="start" x="564.5" y="-286.5" font-family="Helvetica,sans-Serif" font-size="10.00">/home/alejandro/Desarrollo</text>
<text text-anchor="middle" x="628.5" y="-275.5" font-family="Helvetica,sans-Serif" font-size="10.00"> eclipse/os1/src/Optimizer.cc</text>
</a>
</g>
</g>
<!-- Node6&#45;&gt;Node12 -->
<g id="edge46" class="edge"><title>Node6&#45;&gt;Node12</title>
<path fill="none" stroke="midnightblue" d="M909.206,-485.499C838.216,-434.667 699.816,-335.566 648.378,-298.734"/>
<polygon fill="midnightblue" stroke="midnightblue" points="907.35,-488.475 917.518,-491.452 911.426,-482.784 907.35,-488.475"/>
</g>
<!-- Node15 -->
<g id="node11" class="node"><title>Node15</title>
<g id="a_node11"><a xlink:href="_loop_closing_8h.html" target="_top" xlink:title="/home/alejandro/Desarrollo\l eclipse/os1/include/LoopClosing.h">
<polygon fill="white" stroke="black" points="1110.5,-413.5 1110.5,-443.5 1278.5,-443.5 1278.5,-413.5 1110.5,-413.5"/>
<text text-anchor="start" x="1118.5" y="-431.5" font-family="Helvetica,sans-Serif" font-size="10.00">/home/alejandro/Desarrollo</text>
<text text-anchor="middle" x="1194.5" y="-420.5" font-family="Helvetica,sans-Serif" font-size="10.00"> eclipse/os1/include/LoopClosing.h</text>
</a>
</g>
</g>
<!-- Node6&#45;&gt;Node15 -->
<g id="edge10" class="edge"><title>Node6&#45;&gt;Node15</title>
<path fill="none" stroke="midnightblue" d="M1031.71,-488.022C1073.17,-473.117 1122.1,-455.53 1155.41,-443.554"/>
<polygon fill="midnightblue" stroke="midnightblue" points="1030.4,-484.776 1022.17,-491.453 1032.77,-491.363 1030.4,-484.776"/>
</g>
<!-- Node25 -->
<g id="node21" class="node"><title>Node25</title>
<g id="a_node21"><a xlink:href="_optimizer_8h.html" target="_top" xlink:title="/home/alejandro/Desarrollo\l eclipse/os1/include/Optimizer.h">
<polygon fill="white" stroke="black" points="874.5,-335.5 874.5,-365.5 1030.5,-365.5 1030.5,-335.5 874.5,-335.5"/>
<text text-anchor="start" x="882.5" y="-353.5" font-family="Helvetica,sans-Serif" font-size="10.00">/home/alejandro/Desarrollo</text>
<text text-anchor="middle" x="952.5" y="-342.5" font-family="Helvetica,sans-Serif" font-size="10.00"> eclipse/os1/include/Optimizer.h</text>
</a>
</g>
</g>
<!-- Node6&#45;&gt;Node25 -->
<g id="edge45" class="edge"><title>Node6&#45;&gt;Node25</title>
<path fill="none" stroke="midnightblue" d="M952.5,-481.34C952.5,-445.279 952.5,-390.98 952.5,-365.561"/>
<polygon fill="midnightblue" stroke="midnightblue" points="949,-481.44 952.5,-491.44 956,-481.44 949,-481.44"/>
</g>
<!-- Node27 -->
<g id="node23" class="node"><title>Node27</title>
<g id="a_node23"><a xlink:href="types__seven__dof__expmap_8cpp.html" target="_top" xlink:title="/home/alejandro/Desarrollo\l eclipse/os1/Thirdparty\l/g2o/g2o/types/types_seven\l_dof_expmap.cpp">
<polygon fill="white" stroke="black" points="1296.5,-402.5 1296.5,-454.5 1436.5,-454.5 1436.5,-402.5 1296.5,-402.5"/>
<text text-anchor="start" x="1304.5" y="-442.5" font-family="Helvetica,sans-Serif" font-size="10.00">/home/alejandro/Desarrollo</text>
<text text-anchor="start" x="1304.5" y="-431.5" font-family="Helvetica,sans-Serif" font-size="10.00"> eclipse/os1/Thirdparty</text>
<text text-anchor="start" x="1304.5" y="-420.5" font-family="Helvetica,sans-Serif" font-size="10.00">/g2o/g2o/types/types_seven</text>
<text text-anchor="middle" x="1366.5" y="-409.5" font-family="Helvetica,sans-Serif" font-size="10.00">_dof_expmap.cpp</text>
</a>
</g>
</g>
<!-- Node6&#45;&gt;Node27 -->
<g id="edge47" class="edge"><title>Node6&#45;&gt;Node27</title>
<path fill="none" stroke="midnightblue" d="M1032.94,-504.759C1101.2,-494.077 1201.46,-476.684 1287.5,-455 1290.43,-454.26 1293.42,-453.47 1296.43,-452.644"/>
<polygon fill="midnightblue" stroke="midnightblue" points="1032.03,-501.358 1022.69,-506.351 1033.11,-508.275 1032.03,-501.358"/>
</g>
<!-- Node8 -->
<g id="node4" class="node"><title>Node8</title>
<g id="a_node4"><a xlink:href="_converter_8cc.html" target="_top" xlink:title="/home/alejandro/Desarrollo\l eclipse/os1/src/Converter.cc">
<polygon fill="white" stroke="black" points="355,-268.5 355,-298.5 500,-298.5 500,-268.5 355,-268.5"/>
<text text-anchor="start" x="363" y="-286.5" font-family="Helvetica,sans-Serif" font-size="10.00">/home/alejandro/Desarrollo</text>
<text text-anchor="middle" x="427.5" y="-275.5" font-family="Helvetica,sans-Serif" font-size="10.00"> eclipse/os1/src/Converter.cc</text>
</a>
</g>
</g>
<!-- Node7&#45;&gt;Node8 -->
<g id="edge3" class="edge"><title>Node7&#45;&gt;Node8</title>
<path fill="none" stroke="midnightblue" d="M461.197,-327.447C453.705,-317.899 445.157,-307.004 438.545,-298.577"/>
<polygon fill="midnightblue" stroke="midnightblue" points="458.507,-329.689 467.434,-335.396 464.014,-325.368 458.507,-329.689"/>
</g>
<!-- Node9 -->
<g id="node5" class="node"><title>Node9</title>
<g id="a_node5"><a xlink:href="_frame_8cc.html" target="_top" xlink:title="/home/alejandro/Desarrollo\l eclipse/os1/src/Frame.cc">
<polygon fill="white" stroke="black" points="0,-268.5 0,-298.5 133,-298.5 133,-268.5 0,-268.5"/>
<text text-anchor="start" x="8" y="-286.5" font-family="Helvetica,sans-Serif" font-size="10.00">/home/alejandro/Desarrollo</text>
<text text-anchor="middle" x="66.5" y="-275.5" font-family="Helvetica,sans-Serif" font-size="10.00"> eclipse/os1/src/Frame.cc</text>
</a>
</g>
</g>
<!-- Node7&#45;&gt;Node9 -->
<g id="edge4" class="edge"><title>Node7&#45;&gt;Node9</title>
<path fill="none" stroke="midnightblue" d="M389.772,-336.596C323.065,-326.741 229.458,-312.585 147.5,-299 142.849,-298.229 138.051,-297.416 133.222,-296.584"/>
<polygon fill="midnightblue" stroke="midnightblue" points="389.424,-340.082 399.828,-338.079 390.445,-333.157 389.424,-340.082"/>
</g>
<!-- Node10 -->
<g id="node6" class="node"><title>Node10</title>
<g id="a_node6"><a xlink:href="_key_frame_8cc.html" target="_top" xlink:title="/home/alejandro/Desarrollo\l eclipse/os1/src/KeyFrame.cc">
<polygon fill="white" stroke="black" points="190,-268.5 190,-298.5 337,-298.5 337,-268.5 190,-268.5"/>
<text text-anchor="start" x="198" y="-286.5" font-family="Helvetica,sans-Serif" font-size="10.00">/home/alejandro/Desarrollo</text>
<text text-anchor="middle" x="263.5" y="-275.5" font-family="Helvetica,sans-Serif" font-size="10.00"> eclipse/os1/src/KeyFrame.cc</text>
</a>
</g>
</g>
<!-- Node7&#45;&gt;Node10 -->
<g id="edge5" class="edge"><title>Node7&#45;&gt;Node10</title>
<path fill="none" stroke="midnightblue" d="M422.533,-332.58C387.613,-322.022 343.189,-308.592 310.175,-298.611"/>
<polygon fill="midnightblue" stroke="midnightblue" points="421.528,-335.932 432.113,-335.476 423.554,-329.232 421.528,-335.932"/>
</g>
<!-- Node11 -->
<g id="node7" class="node"><title>Node11</title>
<g id="a_node7"><a xlink:href="_loop_closing_8cc.html" target="_top" xlink:title="/home/alejandro/Desarrollo\l eclipse/os1/src/LoopClosing.cc">
<polygon fill="white" stroke="black" points="718.5,-268.5 718.5,-298.5 874.5,-298.5 874.5,-268.5 718.5,-268.5"/>
<text text-anchor="start" x="726.5" y="-286.5" font-family="Helvetica,sans-Serif" font-size="10.00">/home/alejandro/Desarrollo</text>
<text text-anchor="middle" x="796.5" y="-275.5" font-family="Helvetica,sans-Serif" font-size="10.00"> eclipse/os1/src/LoopClosing.cc</text>
</a>
</g>
</g>
<!-- Node7&#45;&gt;Node11 -->
<g id="edge6" class="edge"><title>Node7&#45;&gt;Node11</title>
<path fill="none" stroke="midnightblue" d="M557.025,-333.449C609.375,-322.749 677.531,-308.818 727.739,-298.555"/>
<polygon fill="midnightblue" stroke="midnightblue" points="556.206,-330.044 547.11,-335.476 557.608,-336.902 556.206,-330.044"/>
</g>
<!-- Node7&#45;&gt;Node12 -->
<g id="edge7" class="edge"><title>Node7&#45;&gt;Node12</title>
<path fill="none" stroke="midnightblue" d="M520.254,-331.407C544.201,-321.029 573.818,-308.195 596.016,-298.577"/>
<polygon fill="midnightblue" stroke="midnightblue" points="518.832,-328.208 511.048,-335.396 521.615,-334.631 518.832,-328.208"/>
</g>
<!-- Node13 -->
<g id="node9" class="node"><title>Node13</title>
<g id="a_node9"><a xlink:href="_system_8cc.html" target="_top" xlink:title="/home/alejandro/Desarrollo\l eclipse/os1/src/System.cc">
<polygon fill="white" stroke="black" points="928.5,-201.5 928.5,-231.5 1064.5,-231.5 1064.5,-201.5 928.5,-201.5"/>
<text text-anchor="start" x="936.5" y="-219.5" font-family="Helvetica,sans-Serif" font-size="10.00">/home/alejandro/Desarrollo</text>
<text text-anchor="middle" x="996.5" y="-208.5" font-family="Helvetica,sans-Serif" font-size="10.00"> eclipse/os1/src/System.cc</text>
</a>
</g>
</g>
<!-- Node7&#45;&gt;Node13 -->
<g id="edge8" class="edge"><title>Node7&#45;&gt;Node13</title>
<path fill="none" stroke="midnightblue" d="M491.075,-326.686C502.946,-307.548 522.62,-281.275 547.5,-268 611.777,-233.705 819.164,-222.591 928.144,-219.074"/>
<polygon fill="midnightblue" stroke="midnightblue" points="487.985,-325.035 485.886,-335.419 494.003,-328.61 487.985,-325.035"/>
</g>
<!-- Node14 -->
<g id="node10" class="node"><title>Node14</title>
<g id="a_node10"><a xlink:href="_tracking_8cc.html" target="_top" xlink:title="/home/alejandro/Desarrollo\l eclipse/os1/src/Tracking.cc">
<polygon fill="white" stroke="black" points="957.5,-0.5 957.5,-30.5 1097.5,-30.5 1097.5,-0.5 957.5,-0.5"/>
<text text-anchor="start" x="965.5" y="-18.5" font-family="Helvetica,sans-Serif" font-size="10.00">/home/alejandro/Desarrollo</text>
<text text-anchor="middle" x="1027.5" y="-7.5" font-family="Helvetica,sans-Serif" font-size="10.00"> eclipse/os1/src/Tracking.cc</text>
</a>
</g>
</g>
<!-- Node7&#45;&gt;Node14 -->
<g id="edge9" class="edge"><title>Node7&#45;&gt;Node14</title>
<path fill="none" stroke="midnightblue" d="M389.836,-345.136C313.17,-339.505 210.129,-326.87 180.5,-299 153.408,-273.517 161.5,-254.694 161.5,-217.5 161.5,-217.5 161.5,-217.5 161.5,-148.5 161.5,-68.1808 751.2,-30.5346 957.365,-19.8274"/>
<polygon fill="midnightblue" stroke="midnightblue" points="389.772,-348.64 399.994,-345.853 390.265,-341.658 389.772,-348.64"/>
</g>
<!-- Node15&#45;&gt;Node11 -->
<g id="edge44" class="edge"><title>Node15&#45;&gt;Node11</title>
<path fill="none" stroke="midnightblue" d="M1100.38,-426.513C1031.22,-422 937.204,-407.679 865.5,-366 837.29,-349.603 815.256,-317.23 804.239,-298.599"/>
<polygon fill="midnightblue" stroke="midnightblue" points="1100.21,-430.009 1110.4,-427.11 1100.63,-423.021 1100.21,-430.009"/>
</g>
<!-- Node16 -->
<g id="node12" class="node"><title>Node16</title>
<g id="a_node12"><a xlink:href="_local_mapping_8h.html" target="_top" xlink:title="/home/alejandro/Desarrollo\l eclipse/os1/include/LocalMapping.h">
<polygon fill="white" stroke="black" points="1247.5,-335.5 1247.5,-365.5 1421.5,-365.5 1421.5,-335.5 1247.5,-335.5"/>
<text text-anchor="start" x="1255.5" y="-353.5" font-family="Helvetica,sans-Serif" font-size="10.00">/home/alejandro/Desarrollo</text>
<text text-anchor="middle" x="1334.5" y="-342.5" font-family="Helvetica,sans-Serif" font-size="10.00"> eclipse/os1/include/LocalMapping.h</text>
</a>
</g>
</g>
<!-- Node15&#45;&gt;Node16 -->
<g id="edge11" class="edge"><title>Node15&#45;&gt;Node16</title>
<path fill="none" stroke="midnightblue" d="M1223.88,-408.321C1247.17,-395.008 1279.49,-377.57 1303.26,-365.541"/>
<polygon fill="midnightblue" stroke="midnightblue" points="1222.02,-405.349 1215.12,-413.383 1225.53,-411.41 1222.02,-405.349"/>
</g>
<!-- Node17 -->
<g id="node13" class="node"><title>Node17</title>
<g id="a_node13"><a xlink:href="_system_8h.html" target="_top" xlink:title="/home/alejandro/Desarrollo\l eclipse/os1/include/System.h">
<polygon fill="white" stroke="black" points="1270.5,-268.5 1270.5,-298.5 1418.5,-298.5 1418.5,-268.5 1270.5,-268.5"/>
<text text-anchor="start" x="1278.5" y="-286.5" font-family="Helvetica,sans-Serif" font-size="10.00">/home/alejandro/Desarrollo</text>
<text text-anchor="middle" x="1344.5" y="-275.5" font-family="Helvetica,sans-Serif" font-size="10.00"> eclipse/os1/include/System.h</text>
</a>
</g>
</g>
<!-- Node15&#45;&gt;Node17 -->
<g id="edge35" class="edge"><title>Node15&#45;&gt;Node17</title>
<path fill="none" stroke="midnightblue" d="M1200.98,-403.401C1207.53,-382.983 1219.45,-354.066 1238.5,-335 1255,-318.491 1277.94,-306.647 1298.27,-298.599"/>
<polygon fill="midnightblue" stroke="midnightblue" points="1197.56,-402.623 1198.03,-413.207 1204.26,-404.637 1197.56,-402.623"/>
</g>
<!-- Node19 -->
<g id="node15" class="node"><title>Node19</title>
<g id="a_node15"><a xlink:href="_tracking_8h.html" target="_top" xlink:title="/home/alejandro/Desarrollo\l eclipse/os1/include/Tracking.h">
<polygon fill="white" stroke="black" points="1377.5,-134.5 1377.5,-164.5 1529.5,-164.5 1529.5,-134.5 1377.5,-134.5"/>
<text text-anchor="start" x="1385.5" y="-152.5" font-family="Helvetica,sans-Serif" font-size="10.00">/home/alejandro/Desarrollo</text>
<text text-anchor="middle" x="1453.5" y="-141.5" font-family="Helvetica,sans-Serif" font-size="10.00"> eclipse/os1/include/Tracking.h</text>
</a>
</g>
</g>
<!-- Node15&#45;&gt;Node19 -->
<g id="edge36" class="edge"><title>Node15&#45;&gt;Node19</title>
<path fill="none" stroke="midnightblue" d="M1246.09,-410.729C1256.77,-407.78 1267.96,-404.771 1278.5,-402 1341.88,-385.334 1370.78,-407.511 1421.5,-366 1480.8,-317.466 1490.12,-275.329 1471.5,-201 1468.21,-187.885 1460.8,-174.452 1455.92,-164.74"/>
<polygon fill="midnightblue" stroke="midnightblue" points="1245.15,-407.357 1236.46,-413.411 1247.03,-414.101 1245.15,-407.357"/>
</g>
<!-- Node24 -->
<g id="node20" class="node"><title>Node24</title>
<g id="a_node20"><a xlink:href="_local_mapping_8cc.html" target="_top" xlink:title="/home/alejandro/Desarrollo\l eclipse/os1/src/LocalMapping.cc">
<polygon fill="white" stroke="black" points="1090.5,-268.5 1090.5,-298.5 1252.5,-298.5 1252.5,-268.5 1090.5,-268.5"/>
<text text-anchor="start" x="1098.5" y="-286.5" font-family="Helvetica,sans-Serif" font-size="10.00">/home/alejandro/Desarrollo</text>
<text text-anchor="middle" x="1171.5" y="-275.5" font-family="Helvetica,sans-Serif" font-size="10.00"> eclipse/os1/src/LocalMapping.cc</text>
</a>
</g>
</g>
<!-- Node15&#45;&gt;Node24 -->
<g id="edge43" class="edge"><title>Node15&#45;&gt;Node24</title>
<path fill="none" stroke="midnightblue" d="M1190.59,-403.194C1185.76,-373.159 1177.7,-323.048 1173.78,-298.677"/>
<polygon fill="midnightblue" stroke="midnightblue" points="1187.17,-403.949 1192.21,-413.266 1194.08,-402.837 1187.17,-403.949"/>
</g>
<!-- Node15&#45;&gt;Node25 -->
<g id="edge37" class="edge"><title>Node15&#45;&gt;Node25</title>
<path fill="none" stroke="midnightblue" d="M1140.09,-410.411C1097.04,-396.891 1037.66,-378.243 997.318,-365.575"/>
<polygon fill="midnightblue" stroke="midnightblue" points="1139.24,-413.815 1149.83,-413.472 1141.34,-407.136 1139.24,-413.815"/>
</g>
<!-- Node16&#45;&gt;Node15 -->
<g id="edge32" class="edge"><title>Node16&#45;&gt;Node15</title>
<path fill="none" stroke="midnightblue" d="M1305.27,-370.595C1282.01,-383.892 1249.7,-401.332 1225.89,-413.383"/>
<polygon fill="midnightblue" stroke="midnightblue" points="1307.11,-373.576 1314.01,-365.541 1303.6,-367.516 1307.11,-373.576"/>
</g>
<!-- Node16&#45;&gt;Node17 -->
<g id="edge12" class="edge"><title>Node16&#45;&gt;Node17</title>
<path fill="none" stroke="midnightblue" d="M1338.21,-325.403C1339.6,-316.37 1341.13,-306.408 1342.33,-298.577"/>
<polygon fill="midnightblue" stroke="midnightblue" points="1334.73,-324.98 1336.67,-335.396 1341.65,-326.044 1334.73,-324.98"/>
</g>
<!-- Node16&#45;&gt;Node19 -->
<g id="edge33" class="edge"><title>Node16&#45;&gt;Node19</title>
<path fill="none" stroke="midnightblue" d="M1374.32,-330.763C1389.58,-322.822 1406.2,-312.283 1418.5,-299 1449.45,-265.583 1450.3,-246.515 1448.5,-201 1448.01,-188.697 1446.86,-174.747 1447.39,-164.631"/>
<polygon fill="midnightblue" stroke="midnightblue" points="1372.43,-327.789 1365.03,-335.372 1375.55,-334.059 1372.43,-327.789"/>
</g>
<!-- Node16&#45;&gt;Node24 -->
<g id="edge34" class="edge"><title>Node16&#45;&gt;Node24</title>
<path fill="none" stroke="midnightblue" d="M1289.82,-331.682C1263.67,-321.257 1231.13,-308.281 1206.8,-298.577"/>
<polygon fill="midnightblue" stroke="midnightblue" points="1288.55,-334.943 1299.13,-335.396 1291.14,-328.441 1288.55,-334.943"/>
</g>
<!-- Node17&#45;&gt;Node13 -->
<g id="edge31" class="edge"><title>Node17&#45;&gt;Node13</title>
<path fill="none" stroke="midnightblue" d="M1260.07,-266.73C1200.12,-255.532 1120.65,-240.69 1064.71,-230.24"/>
<polygon fill="midnightblue" stroke="midnightblue" points="1259.8,-270.24 1270.27,-268.636 1261.08,-263.359 1259.8,-270.24"/>
</g>
<!-- Node18 -->
<g id="node14" class="node"><title>Node18</title>
<g id="a_node14"><a xlink:href="_viewer_8h.html" target="_top" xlink:title="/home/alejandro/Desarrollo\l eclipse/os1/include/Viewer.h">
<polygon fill="white" stroke="black" points="1272.5,-201.5 1272.5,-231.5 1416.5,-231.5 1416.5,-201.5 1272.5,-201.5"/>
<text text-anchor="start" x="1280.5" y="-219.5" font-family="Helvetica,sans-Serif" font-size="10.00">/home/alejandro/Desarrollo</text>
<text text-anchor="middle" x="1344.5" y="-208.5" font-family="Helvetica,sans-Serif" font-size="10.00"> eclipse/os1/include/Viewer.h</text>
</a>
</g>
</g>
<!-- Node17&#45;&gt;Node18 -->
<g id="edge13" class="edge"><title>Node17&#45;&gt;Node18</title>
<path fill="none" stroke="midnightblue" d="M1337.95,-258.403C1337.51,-249.37 1337.8,-239.408 1338.83,-231.577"/>
<polygon fill="midnightblue" stroke="midnightblue" points="1334.47,-258.736 1338.82,-268.396 1341.44,-258.131 1334.47,-258.736"/>
</g>
<!-- Node17&#45;&gt;Node19 -->
<g id="edge29" class="edge"><title>Node17&#45;&gt;Node19</title>
<path fill="none" stroke="midnightblue" d="M1378.47,-263.331C1391.82,-255.325 1406.27,-244.854 1416.5,-232 1432.52,-211.864 1439.65,-181.995 1445.34,-164.562"/>
<polygon fill="midnightblue" stroke="midnightblue" points="1376.41,-260.476 1369.47,-268.48 1379.89,-266.552 1376.41,-260.476"/>
</g>
<!-- Node23 -->
<g id="node19" class="node"><title>Node23</title>
<g id="a_node19"><a xlink:href="main_8cc.html" target="_top" xlink:title="/home/alejandro/Desarrollo\l eclipse/os1/src/main.cc">
<polygon fill="white" stroke="black" points="1121,-201.5 1121,-231.5 1254,-231.5 1254,-201.5 1121,-201.5"/>
<text text-anchor="start" x="1129" y="-219.5" font-family="Helvetica,sans-Serif" font-size="10.00">/home/alejandro/Desarrollo</text>
<text text-anchor="middle" x="1187.5" y="-208.5" font-family="Helvetica,sans-Serif" font-size="10.00"> eclipse/os1/src/main.cc</text>
</a>
</g>
</g>
<!-- Node17&#45;&gt;Node23 -->
<g id="edge30" class="edge"><title>Node17&#45;&gt;Node23</title>
<path fill="none" stroke="midnightblue" d="M1301.13,-264.544C1276.01,-254.143 1244.84,-241.238 1221.5,-231.577"/>
<polygon fill="midnightblue" stroke="midnightblue" points="1299.86,-267.804 1310.43,-268.396 1302.53,-261.337 1299.86,-267.804"/>
</g>
<!-- Node18&#45;&gt;Node17 -->
<g id="edge27" class="edge"><title>Node18&#45;&gt;Node17</title>
<path fill="none" stroke="midnightblue" d="M1351.04,-241.565C1351.49,-250.596 1351.21,-260.56 1350.18,-268.396"/>
<polygon fill="midnightblue" stroke="midnightblue" points="1354.53,-241.236 1350.17,-231.577 1347.55,-241.842 1354.53,-241.236"/>
</g>
<!-- Node18&#45;&gt;Node19 -->
<g id="edge14" class="edge"><title>Node18&#45;&gt;Node19</title>
<path fill="none" stroke="midnightblue" d="M1370.93,-196.015C1387.06,-185.9 1407.59,-173.77 1424.22,-164.577"/>
<polygon fill="midnightblue" stroke="midnightblue" points="1369.03,-193.075 1362.47,-201.396 1372.79,-198.981 1369.03,-193.075"/>
</g>
<!-- Node22 -->
<g id="node18" class="node"><title>Node22</title>
<g id="a_node18"><a xlink:href="_viewer_8cc.html" target="_top" xlink:title="/home/alejandro/Desarrollo\l eclipse/os1/src/Viewer.cc">
<polygon fill="white" stroke="black" points="1226,-134.5 1226,-164.5 1359,-164.5 1359,-134.5 1226,-134.5"/>
<text text-anchor="start" x="1234" y="-152.5" font-family="Helvetica,sans-Serif" font-size="10.00">/home/alejandro/Desarrollo</text>
<text text-anchor="middle" x="1292.5" y="-141.5" font-family="Helvetica,sans-Serif" font-size="10.00"> eclipse/os1/src/Viewer.cc</text>
</a>
</g>
</g>
<!-- Node18&#45;&gt;Node22 -->
<g id="edge28" class="edge"><title>Node18&#45;&gt;Node22</title>
<path fill="none" stroke="midnightblue" d="M1326.86,-193.447C1319.22,-183.899 1310.5,-173.004 1303.76,-164.577"/>
<polygon fill="midnightblue" stroke="midnightblue" points="1324.24,-195.774 1333.22,-201.396 1329.7,-191.401 1324.24,-195.774"/>
</g>
<!-- Node19&#45;&gt;Node14 -->
<g id="edge26" class="edge"><title>Node19&#45;&gt;Node14</title>
<path fill="none" stroke="midnightblue" d="M1431.93,-127.51C1411.08,-108.514 1377.69,-81.3784 1343.5,-67 1263.48,-33.3502 1163.42,-21.9641 1097.59,-18.1998"/>
<polygon fill="midnightblue" stroke="midnightblue" points="1429.58,-130.102 1439.28,-134.348 1434.34,-124.975 1429.58,-130.102"/>
</g>
<!-- Node19&#45;&gt;Node15 -->
<g id="edge23" class="edge"><title>Node19&#45;&gt;Node15</title>
<path fill="none" stroke="midnightblue" d="M1476.98,-172.924C1482.35,-181.357 1487.06,-191.266 1489.5,-201 1508.12,-275.329 1498.8,-317.466 1439.5,-366 1388.78,-407.511 1359.88,-385.334 1296.5,-402 1282.74,-405.619 1267.86,-409.646 1253.8,-413.411"/>
<polygon fill="midnightblue" stroke="midnightblue" points="1479.84,-170.903 1471.22,-164.74 1474.11,-174.932 1479.84,-170.903"/>
</g>
<!-- Node19&#45;&gt;Node16 -->
<g id="edge24" class="edge"><title>Node19&#45;&gt;Node16</title>
<path fill="none" stroke="midnightblue" d="M1464.28,-174.511C1465.49,-182.885 1466.16,-192.349 1466.5,-201 1468.3,-246.515 1467.45,-265.583 1436.5,-299 1421.64,-315.039 1400.5,-327.079 1381.23,-335.372"/>
<polygon fill="midnightblue" stroke="midnightblue" points="1467.71,-173.825 1462.45,-164.631 1460.83,-175.102 1467.71,-173.825"/>
</g>
<!-- Node19&#45;&gt;Node17 -->
<g id="edge22" class="edge"><title>Node19&#45;&gt;Node17</title>
<path fill="none" stroke="midnightblue" d="M1457.14,-174.54C1454.94,-191.975 1447.77,-215.325 1434.5,-232 1421.91,-247.82 1402.93,-260.031 1385.52,-268.48"/>
<polygon fill="midnightblue" stroke="midnightblue" points="1460.63,-174.793 1457.88,-164.562 1453.65,-174.276 1460.63,-174.793"/>
</g>
<!-- Node19&#45;&gt;Node18 -->
<g id="edge21" class="edge"><title>Node19&#45;&gt;Node18</title>
<path fill="none" stroke="midnightblue" d="M1427.12,-169.955C1410.99,-180.066 1390.46,-192.197 1373.83,-201.396"/>
<polygon fill="midnightblue" stroke="midnightblue" points="1429.01,-172.898 1435.57,-164.577 1425.25,-166.992 1429.01,-172.898"/>
</g>
<!-- Node20 -->
<g id="node16" class="node"><title>Node20</title>
<g id="a_node16"><a xlink:href="_frame_drawer_8h.html" target="_top" xlink:title="/home/alejandro/Desarrollo\l eclipse/os1/include/FrameDrawer.h">
<polygon fill="white" stroke="black" points="1162,-67.5 1162,-97.5 1335,-97.5 1335,-67.5 1162,-67.5"/>
<text text-anchor="start" x="1170" y="-85.5" font-family="Helvetica,sans-Serif" font-size="10.00">/home/alejandro/Desarrollo</text>
<text text-anchor="middle" x="1248.5" y="-74.5" font-family="Helvetica,sans-Serif" font-size="10.00"> eclipse/os1/include/FrameDrawer.h</text>
</a>
</g>
</g>
<!-- Node19&#45;&gt;Node20 -->
<g id="edge15" class="edge"><title>Node19&#45;&gt;Node20</title>
<path fill="none" stroke="midnightblue" d="M1393.69,-131.444C1359.38,-120.908 1317.37,-107.549 1287.32,-97.6109"/>
<polygon fill="midnightblue" stroke="midnightblue" points="1393.02,-134.899 1403.6,-134.476 1395.06,-128.205 1393.02,-134.899"/>
</g>
<!-- Node21 -->
<g id="node17" class="node"><title>Node21</title>
<g id="a_node17"><a xlink:href="_frame_drawer_8cc.html" target="_top" xlink:title="/home/alejandro/Desarrollo\l eclipse/os1/src/FrameDrawer.cc">
<polygon fill="white" stroke="black" points="1244,-0.5 1244,-30.5 1405,-30.5 1405,-0.5 1244,-0.5"/>
<text text-anchor="start" x="1252" y="-18.5" font-family="Helvetica,sans-Serif" font-size="10.00">/home/alejandro/Desarrollo</text>
<text text-anchor="middle" x="1324.5" y="-7.5" font-family="Helvetica,sans-Serif" font-size="10.00"> eclipse/os1/src/FrameDrawer.cc</text>
</a>
</g>
</g>
<!-- Node19&#45;&gt;Node21 -->
<g id="edge25" class="edge"><title>Node19&#45;&gt;Node21</title>
<path fill="none" stroke="midnightblue" d="M1442.58,-124.762C1433.77,-107.367 1420.12,-83.9331 1403.5,-67 1388.9,-52.1312 1369.15,-39.5062 1353.05,-30.5984"/>
<polygon fill="midnightblue" stroke="midnightblue" points="1439.67,-126.762 1447.2,-134.211 1445.96,-123.69 1439.67,-126.762"/>
</g>
<!-- Node20&#45;&gt;Node14 -->
<g id="edge20" class="edge"><title>Node20&#45;&gt;Node14</title>
<path fill="none" stroke="midnightblue" d="M1190.97,-64.5797C1155.08,-54.0225 1109.41,-40.5921 1075.48,-30.6109"/>
<polygon fill="midnightblue" stroke="midnightblue" points="1190.24,-68.012 1200.82,-67.476 1192.21,-61.2965 1190.24,-68.012"/>
</g>
<!-- Node20&#45;&gt;Node17 -->
<g id="edge17" class="edge"><title>Node20&#45;&gt;Node17</title>
<path fill="none" stroke="midnightblue" d="M1208.29,-102.348C1154.99,-129.855 1072.03,-183.061 1111.5,-232 1116.63,-238.363 1204.18,-256.108 1270.46,-268.762"/>
<polygon fill="midnightblue" stroke="midnightblue" points="1210.19,-105.31 1217.53,-97.6773 1207.03,-99.0616 1210.19,-105.31"/>
</g>
<!-- Node20&#45;&gt;Node18 -->
<g id="edge16" class="edge"><title>Node20&#45;&gt;Node18</title>
<path fill="none" stroke="midnightblue" d="M1228.61,-105.985C1215.97,-123.128 1204.12,-146.807 1216.5,-165 1229.47,-184.059 1250.85,-195.925 1272.46,-203.313"/>
<polygon fill="midnightblue" stroke="midnightblue" points="1231.72,-107.698 1235.17,-97.68 1226.23,-103.36 1231.72,-107.698"/>
</g>
<!-- Node20&#45;&gt;Node19 -->
<g id="edge18" class="edge"><title>Node20&#45;&gt;Node19</title>
<path fill="none" stroke="midnightblue" d="M1308.48,-100.607C1342.76,-111.138 1384.7,-124.473 1414.7,-134.396"/>
<polygon fill="midnightblue" stroke="midnightblue" points="1309.16,-97.1542 1298.57,-97.5765 1307.11,-103.848 1309.16,-97.1542"/>
</g>
<!-- Node20&#45;&gt;Node21 -->
<g id="edge19" class="edge"><title>Node20&#45;&gt;Node21</title>
<path fill="none" stroke="midnightblue" d="M1272.61,-60.8832C1284.16,-51.0054 1297.69,-39.4293 1308.04,-30.5765"/>
<polygon fill="midnightblue" stroke="midnightblue" points="1270.32,-58.2364 1264.99,-67.396 1274.87,-63.5561 1270.32,-58.2364"/>
</g>
<!-- Node25&#45;&gt;Node11 -->
<g id="edge40" class="edge"><title>Node25&#45;&gt;Node11</title>
<path fill="none" stroke="midnightblue" d="M909.406,-331.544C884.443,-321.143 853.471,-308.238 830.284,-298.577"/>
<polygon fill="midnightblue" stroke="midnightblue" points="908.073,-334.781 918.65,-335.396 910.766,-328.319 908.073,-334.781"/>
</g>
<!-- Node25&#45;&gt;Node12 -->
<g id="edge41" class="edge"><title>Node25&#45;&gt;Node12</title>
<path fill="none" stroke="midnightblue" d="M872.493,-333.449C819.155,-322.749 749.714,-308.818 698.558,-298.555"/>
<polygon fill="midnightblue" stroke="midnightblue" points="872.103,-336.941 882.596,-335.476 873.48,-330.077 872.103,-336.941"/>
</g>
<!-- Node25&#45;&gt;Node14 -->
<g id="edge42" class="edge"><title>Node25&#45;&gt;Node14</title>
<path fill="none" stroke="midnightblue" d="M935.254,-327.047C929.804,-318.695 924.44,-308.845 921.5,-299 909.034,-257.257 908.099,-243.046 919.5,-201 938.539,-130.789 991.732,-59.9381 1015.62,-30.5835"/>
<polygon fill="midnightblue" stroke="midnightblue" points="932.511,-329.234 941.09,-335.451 938.261,-325.241 932.511,-329.234"/>
</g>
<!-- Node25&#45;&gt;Node24 -->
<g id="edge39" class="edge"><title>Node25&#45;&gt;Node24</title>
<path fill="none" stroke="midnightblue" d="M1009.51,-332.58C1045.08,-322.022 1090.33,-308.592 1123.96,-298.611"/>
<polygon fill="midnightblue" stroke="midnightblue" points="1008.34,-329.275 999.75,-335.476 1010.33,-335.986 1008.34,-329.275"/>
</g>
<!-- Node26 -->
<g id="node22" class="node"><title>Node26</title>
<g id="a_node22"><a xlink:href="_initializer_8cc.html" target="_top" xlink:title="/home/alejandro/Desarrollo\l eclipse/os1/src/Initializer.cc">
<polygon fill="white" stroke="black" points="931,-268.5 931,-298.5 1072,-298.5 1072,-268.5 931,-268.5"/>
<text text-anchor="start" x="939" y="-286.5" font-family="Helvetica,sans-Serif" font-size="10.00">/home/alejandro/Desarrollo</text>
<text text-anchor="middle" x="1001.5" y="-275.5" font-family="Helvetica,sans-Serif" font-size="10.00"> eclipse/os1/src/Initializer.cc</text>
</a>
</g>
</g>
<!-- Node25&#45;&gt;Node26 -->
<g id="edge38" class="edge"><title>Node25&#45;&gt;Node26</title>
<path fill="none" stroke="midnightblue" d="M969.343,-327.157C976.488,-317.679 984.6,-306.919 990.888,-298.577"/>
<polygon fill="midnightblue" stroke="midnightblue" points="966.357,-325.304 963.132,-335.396 971.947,-329.518 966.357,-325.304"/>
</g>
</g>
</svg>
