<?xml version="1.0" encoding="UTF-8" standalone="no"?>
<!DOCTYPE svg PUBLIC "-//W3C//DTD SVG 1.1//EN"
 "http://www.w3.org/Graphics/SVG/1.1/DTD/svg11.dtd">
<!-- Generated by graphviz version 2.38.0 (20140413.2041)
 -->
<!-- Title: /home/alejandro/Desarrollo eclipse/os1/Thirdparty/g2o/g2o/core/solver.h Pages: 1 -->
<svg width="877pt" height="228pt"
 viewBox="0.00 0.00 876.50 228.00" xmlns="http://www.w3.org/2000/svg" xmlns:xlink="http://www.w3.org/1999/xlink">
<g id="graph0" class="graph" transform="scale(1 1) rotate(0) translate(4 224)">
<title>/home/alejandro/Desarrollo eclipse/os1/Thirdparty/g2o/g2o/core/solver.h</title>
<polygon fill="white" stroke="none" points="-4,4 -4,-224 872.5,-224 872.5,4 -4,4"/>
<!-- Node21 -->
<g id="node1" class="node"><title>Node21</title>
<polygon fill="#bfbfbf" stroke="black" points="343.5,-178.5 343.5,-219.5 476.5,-219.5 476.5,-178.5 343.5,-178.5"/>
<text text-anchor="start" x="351.5" y="-207.5" font-family="Helvetica,sans-Serif" font-size="10.00">/home/alejandro/Desarrollo</text>
<text text-anchor="start" x="351.5" y="-196.5" font-family="Helvetica,sans-Serif" font-size="10.00"> eclipse/os1/Thirdparty</text>
<text text-anchor="middle" x="410" y="-185.5" font-family="Helvetica,sans-Serif" font-size="10.00">/g2o/g2o/core/solver.h</text>
</g>
<!-- Node22 -->
<g id="node2" class="node"><title>Node22</title>
<g id="a_node2"><a xlink:href="block__solver_8h.html" target="_top" xlink:title="/home/alejandro/Desarrollo\l eclipse/os1/Thirdparty\l/g2o/g2o/core/block_solver.h">
<polygon fill="white" stroke="black" points="59,-95 59,-136 201,-136 201,-95 59,-95"/>
<text text-anchor="start" x="67" y="-124" font-family="Helvetica,sans-Serif" font-size="10.00">/home/alejandro/Desarrollo</text>
<text text-anchor="start" x="67" y="-113" font-family="Helvetica,sans-Serif" font-size="10.00"> eclipse/os1/Thirdparty</text>
<text text-anchor="middle" x="130" y="-102" font-family="Helvetica,sans-Serif" font-size="10.00">/g2o/g2o/core/block_solver.h</text>
</a>
</g>
</g>
<!-- Node21&#45;&gt;Node22 -->
<g id="edge1" class="edge"><title>Node21&#45;&gt;Node22</title>
<path fill="none" stroke="midnightblue" d="M333.229,-176.179C297.293,-165.907 253.924,-153.427 215,-142 208.496,-140.09 201.716,-138.084 194.948,-136.07"/>
<polygon fill="midnightblue" stroke="midnightblue" points="332.582,-179.634 343.158,-179.015 334.504,-172.903 332.582,-179.634"/>
</g>
<!-- Node24 -->
<g id="node4" class="node"><title>Node24</title>
<g id="a_node4"><a xlink:href="optimization__algorithm__dogleg_8cpp.html" target="_top" xlink:title="/home/alejandro/Desarrollo\l eclipse/os1/Thirdparty\l/g2o/g2o/core/optimization\l_algorithm_dogleg.cpp">
<polygon fill="white" stroke="black" points="162.5,-0.5 162.5,-52.5 295.5,-52.5 295.5,-0.5 162.5,-0.5"/>
<text text-anchor="start" x="170.5" y="-40.5" font-family="Helvetica,sans-Serif" font-size="10.00">/home/alejandro/Desarrollo</text>
<text text-anchor="start" x="170.5" y="-29.5" font-family="Helvetica,sans-Serif" font-size="10.00"> eclipse/os1/Thirdparty</text>
<text text-anchor="start" x="170.5" y="-18.5" font-family="Helvetica,sans-Serif" font-size="10.00">/g2o/g2o/core/optimization</text>
<text text-anchor="middle" x="229" y="-7.5" font-family="Helvetica,sans-Serif" font-size="10.00">_algorithm_dogleg.cpp</text>
</a>
</g>
</g>
<!-- Node21&#45;&gt;Node24 -->
<g id="edge4" class="edge"><title>Node21&#45;&gt;Node24</title>
<path fill="none" stroke="midnightblue" d="M333.458,-188.743C302.59,-181.115 269.308,-167.235 248,-142 227.07,-117.212 224.951,-78.3155 226.261,-52.8603"/>
<polygon fill="midnightblue" stroke="midnightblue" points="332.849,-192.194 343.377,-191.006 334.406,-185.369 332.849,-192.194"/>
</g>
<!-- Node25 -->
<g id="node5" class="node"><title>Node25</title>
<g id="a_node5"><a xlink:href="optimization__algorithm__gauss__newton_8cpp.html" target="_top" xlink:title="/home/alejandro/Desarrollo\l eclipse/os1/Thirdparty\l/g2o/g2o/core/optimization\l_algorithm_gauss_newton.cpp">
<polygon fill="white" stroke="black" points="256.5,-89.5 256.5,-141.5 405.5,-141.5 405.5,-89.5 256.5,-89.5"/>
<text text-anchor="start" x="264.5" y="-129.5" font-family="Helvetica,sans-Serif" font-size="10.00">/home/alejandro/Desarrollo</text>
<text text-anchor="start" x="264.5" y="-118.5" font-family="Helvetica,sans-Serif" font-size="10.00"> eclipse/os1/Thirdparty</text>
<text text-anchor="start" x="264.5" y="-107.5" font-family="Helvetica,sans-Serif" font-size="10.00">/g2o/g2o/core/optimization</text>
<text text-anchor="middle" x="331" y="-96.5" font-family="Helvetica,sans-Serif" font-size="10.00">_algorithm_gauss_newton.cpp</text>
</a>
</g>
</g>
<!-- Node21&#45;&gt;Node25 -->
<g id="edge5" class="edge"><title>Node21&#45;&gt;Node25</title>
<path fill="none" stroke="midnightblue" d="M383.793,-170.964C374.616,-161.496 364.355,-150.911 355.337,-141.607"/>
<polygon fill="midnightblue" stroke="midnightblue" points="381.403,-173.527 390.876,-178.271 386.429,-168.655 381.403,-173.527"/>
</g>
<!-- Node26 -->
<g id="node6" class="node"><title>Node26</title>
<g id="a_node6"><a xlink:href="optimization__algorithm__levenberg_8cpp.html" target="_top" xlink:title="/home/alejandro/Desarrollo\l eclipse/os1/Thirdparty\l/g2o/g2o/core/optimization\l_algorithm_levenberg.cpp">
<polygon fill="white" stroke="black" points="423.5,-89.5 423.5,-141.5 556.5,-141.5 556.5,-89.5 423.5,-89.5"/>
<text text-anchor="start" x="431.5" y="-129.5" font-family="Helvetica,sans-Serif" font-size="10.00">/home/alejandro/Desarrollo</text>
<text text-anchor="start" x="431.5" y="-118.5" font-family="Helvetica,sans-Serif" font-size="10.00"> eclipse/os1/Thirdparty</text>
<text text-anchor="start" x="431.5" y="-107.5" font-family="Helvetica,sans-Serif" font-size="10.00">/g2o/g2o/core/optimization</text>
<text text-anchor="middle" x="490" y="-96.5" font-family="Helvetica,sans-Serif" font-size="10.00">_algorithm_levenberg.cpp</text>
</a>
</g>
</g>
<!-- Node21&#45;&gt;Node26 -->
<g id="edge6" class="edge"><title>Node21&#45;&gt;Node26</title>
<path fill="none" stroke="midnightblue" d="M436.539,-170.964C445.832,-161.496 456.223,-150.911 465.355,-141.607"/>
<polygon fill="midnightblue" stroke="midnightblue" points="433.873,-168.683 429.366,-178.271 438.869,-173.586 433.873,-168.683"/>
</g>
<!-- Node27 -->
<g id="node7" class="node"><title>Node27</title>
<g id="a_node7"><a xlink:href="optimization__algorithm__with__hessian_8cpp.html" target="_top" xlink:title="/home/alejandro/Desarrollo\l eclipse/os1/Thirdparty\l/g2o/g2o/core/optimization\l_algorithm_with_hessian.cpp">
<polygon fill="white" stroke="black" points="574.5,-89.5 574.5,-141.5 717.5,-141.5 717.5,-89.5 574.5,-89.5"/>
<text text-anchor="start" x="582.5" y="-129.5" font-family="Helvetica,sans-Serif" font-size="10.00">/home/alejandro/Desarrollo</text>
<text text-anchor="start" x="582.5" y="-118.5" font-family="Helvetica,sans-Serif" font-size="10.00"> eclipse/os1/Thirdparty</text>
<text text-anchor="start" x="582.5" y="-107.5" font-family="Helvetica,sans-Serif" font-size="10.00">/g2o/g2o/core/optimization</text>
<text text-anchor="middle" x="646" y="-96.5" font-family="Helvetica,sans-Serif" font-size="10.00">_algorithm_with_hessian.cpp</text>
</a>
</g>
</g>
<!-- Node21&#45;&gt;Node27 -->
<g id="edge7" class="edge"><title>Node21&#45;&gt;Node27</title>
<path fill="none" stroke="midnightblue" d="M476.227,-175.129C506.765,-164.583 543.075,-152.044 574.262,-141.274"/>
<polygon fill="midnightblue" stroke="midnightblue" points="474.838,-171.906 466.528,-178.479 477.123,-178.523 474.838,-171.906"/>
</g>
<!-- Node28 -->
<g id="node8" class="node"><title>Node28</title>
<g id="a_node8"><a xlink:href="solver_8cpp.html" target="_top" xlink:title="/home/alejandro/Desarrollo\l eclipse/os1/Thirdparty\l/g2o/g2o/core/solver.cpp">
<polygon fill="white" stroke="black" points="735.5,-95 735.5,-136 868.5,-136 868.5,-95 735.5,-95"/>
<text text-anchor="start" x="743.5" y="-124" font-family="Helvetica,sans-Serif" font-size="10.00">/home/alejandro/Desarrollo</text>
<text text-anchor="start" x="743.5" y="-113" font-family="Helvetica,sans-Serif" font-size="10.00"> eclipse/os1/Thirdparty</text>
<text text-anchor="middle" x="802" y="-102" font-family="Helvetica,sans-Serif" font-size="10.00">/g2o/g2o/core/solver.cpp</text>
</a>
</g>
</g>
<!-- Node21&#45;&gt;Node28 -->
<g id="edge8" class="edge"><title>Node21&#45;&gt;Node28</title>
<path fill="none" stroke="midnightblue" d="M486.613,-187.82C551.255,-178.434 645.944,-162.809 727,-142 733.794,-140.256 740.857,-138.195 747.813,-136.012"/>
<polygon fill="midnightblue" stroke="midnightblue" points="485.904,-184.386 476.503,-189.273 486.899,-191.315 485.904,-184.386"/>
</g>
<!-- Node23 -->
<g id="node3" class="node"><title>Node23</title>
<g id="a_node3"><a xlink:href="_optimizer_8cc.html" target="_top" xlink:title="/home/alejandro/Desarrollo\l eclipse/os1/src/Optimizer.cc">
<polygon fill="white" stroke="black" points="0,-11.5 0,-41.5 144,-41.5 144,-11.5 0,-11.5"/>
<text text-anchor="start" x="8" y="-29.5" font-family="Helvetica,sans-Serif" font-size="10.00">/home/alejandro/Desarrollo</text>
<text text-anchor="middle" x="72" y="-18.5" font-family="Helvetica,sans-Serif" font-size="10.00"> eclipse/os1/src/Optimizer.cc</text>
</a>
</g>
</g>
<!-- Node22&#45;&gt;Node23 -->
<g id="edge2" class="edge"><title>Node22&#45;&gt;Node23</title>
<path fill="none" stroke="midnightblue" d="M111.245,-86.3676C101.312,-71.4675 89.5381,-53.8071 81.4953,-41.743"/>
<polygon fill="midnightblue" stroke="midnightblue" points="108.38,-88.3793 116.839,-94.7584 114.204,-84.4964 108.38,-88.3793"/>
</g>
<!-- Node22&#45;&gt;Node24 -->
<g id="edge3" class="edge"><title>Node22&#45;&gt;Node24</title>
<path fill="none" stroke="midnightblue" d="M160.099,-88.0496C172.843,-76.8499 187.626,-63.8588 200.224,-52.7882"/>
<polygon fill="midnightblue" stroke="midnightblue" points="157.666,-85.5281 152.465,-94.7584 162.287,-90.7863 157.666,-85.5281"/>
</g>
</g>
</svg>
