<?xml version="1.0" encoding="UTF-8" standalone="no"?>
<!DOCTYPE svg PUBLIC "-//W3C//DTD SVG 1.1//EN"
 "http://www.w3.org/Graphics/SVG/1.1/DTD/svg11.dtd">
<!-- Generated by graphviz version 2.38.0 (20140413.2041)
 -->
<!-- Title: /home/alejandro/Desarrollo eclipse/os1/Thirdparty/g2o/g2o/core/sparse_block_matrix_ccs.h Pages: 1 -->
<svg width="482pt" height="173pt"
 viewBox="0.00 0.00 482.00 173.00" xmlns="http://www.w3.org/2000/svg" xmlns:xlink="http://www.w3.org/1999/xlink">
<g id="graph0" class="graph" transform="scale(1 1) rotate(0) translate(4 169)">
<title>/home/alejandro/Desarrollo eclipse/os1/Thirdparty/g2o/g2o/core/sparse_block_matrix_ccs.h</title>
<polygon fill="white" stroke="none" points="-4,4 -4,-169 478,-169 478,4 -4,4"/>
<!-- Node0 -->
<g id="node1" class="node"><title>Node0</title>
<polygon fill="#bfbfbf" stroke="black" points="102.5,-112.5 102.5,-164.5 239.5,-164.5 239.5,-112.5 102.5,-112.5"/>
<text text-anchor="start" x="110.5" y="-152.5" font-family="Helvetica,sans-Serif" font-size="10.00">/home/alejandro/Desarrollo</text>
<text text-anchor="start" x="110.5" y="-141.5" font-family="Helvetica,sans-Serif" font-size="10.00"> eclipse/os1/Thirdparty</text>
<text text-anchor="start" x="110.5" y="-130.5" font-family="Helvetica,sans-Serif" font-size="10.00">/g2o/g2o/core/sparse_block</text>
<text text-anchor="middle" x="171" y="-119.5" font-family="Helvetica,sans-Serif" font-size="10.00">_matrix_ccs.h</text>
</g>
<!-- Node1 -->
<g id="node2" class="node"><title>Node1</title>
<polygon fill="white" stroke="#bfbfbf" points="0,-56.5 0,-75.5 44,-75.5 44,-56.5 0,-56.5"/>
<text text-anchor="middle" x="22" y="-63.5" font-family="Helvetica,sans-Serif" font-size="10.00">vector</text>
</g>
<!-- Node0&#45;&gt;Node1 -->
<g id="edge1" class="edge"><title>Node0&#45;&gt;Node1</title>
<path fill="none" stroke="midnightblue" d="M118.049,-112.446C94.7211,-101.408 68.3096,-88.9116 49.0947,-79.82"/>
<polygon fill="midnightblue" stroke="midnightblue" points="50.5577,-76.6402 40.0215,-75.527 47.5638,-82.9677 50.5577,-76.6402"/>
</g>
<!-- Node2 -->
<g id="node3" class="node"><title>Node2</title>
<polygon fill="white" stroke="#bfbfbf" points="62.5,-56.5 62.5,-75.5 111.5,-75.5 111.5,-56.5 62.5,-56.5"/>
<text text-anchor="middle" x="87" y="-63.5" font-family="Helvetica,sans-Serif" font-size="10.00">cassert</text>
</g>
<!-- Node0&#45;&gt;Node2 -->
<g id="edge2" class="edge"><title>Node0&#45;&gt;Node2</title>
<path fill="none" stroke="midnightblue" d="M141.148,-112.446C129.092,-102.328 115.576,-90.983 105.062,-82.1596"/>
<polygon fill="midnightblue" stroke="midnightblue" points="107.27,-79.4433 97.3606,-75.6955 102.77,-84.8051 107.27,-79.4433"/>
</g>
<!-- Node3 -->
<g id="node4" class="node"><title>Node3</title>
<polygon fill="white" stroke="#bfbfbf" points="174.5,-0.5 174.5,-19.5 271.5,-19.5 271.5,-0.5 174.5,-0.5"/>
<text text-anchor="middle" x="223" y="-7.5" font-family="Helvetica,sans-Serif" font-size="10.00">eigen3/Eigen/Core</text>
</g>
<!-- Node0&#45;&gt;Node3 -->
<g id="edge3" class="edge"><title>Node0&#45;&gt;Node3</title>
<path fill="none" stroke="midnightblue" d="M160.277,-112.315C154.829,-95.5105 151.05,-73.3924 160,-56 167.077,-42.2475 180.521,-31.7663 193.178,-24.3942"/>
<polygon fill="midnightblue" stroke="midnightblue" points="194.999,-27.3888 202.153,-19.5733 191.687,-21.2221 194.999,-27.3888"/>
</g>
<!-- Node4 -->
<g id="node5" class="node"><title>Node4</title>
<g id="a_node5"><a xlink:href="config_8h.html" target="_top" xlink:title="../../config.h">
<polygon fill="white" stroke="black" points="168.5,-56.5 168.5,-75.5 237.5,-75.5 237.5,-56.5 168.5,-56.5"/>
<text text-anchor="middle" x="203" y="-63.5" font-family="Helvetica,sans-Serif" font-size="10.00">../../config.h</text>
</a>
</g>
</g>
<!-- Node0&#45;&gt;Node4 -->
<g id="edge4" class="edge"><title>Node0&#45;&gt;Node4</title>
<path fill="none" stroke="midnightblue" d="M182.372,-112.446C186.51,-103.329 191.1,-93.2174 194.897,-84.8509"/>
<polygon fill="midnightblue" stroke="midnightblue" points="198.107,-86.248 199.053,-75.6955 191.733,-83.3547 198.107,-86.248"/>
</g>
<!-- Node5 -->
<g id="node6" class="node"><title>Node5</title>
<g id="a_node6"><a xlink:href="matrix__operations_8h.html" target="_top" xlink:title="matrix_operations.h">
<polygon fill="white" stroke="black" points="256,-56.5 256,-75.5 358,-75.5 358,-56.5 256,-56.5"/>
<text text-anchor="middle" x="307" y="-63.5" font-family="Helvetica,sans-Serif" font-size="10.00">matrix_operations.h</text>
</a>
</g>
</g>
<!-- Node0&#45;&gt;Node5 -->
<g id="edge5" class="edge"><title>Node0&#45;&gt;Node5</title>
<path fill="none" stroke="midnightblue" d="M219.331,-112.446C240.332,-101.56 264.071,-89.2537 281.545,-80.1955"/>
<polygon fill="midnightblue" stroke="midnightblue" points="283.284,-83.2366 290.551,-75.527 280.062,-77.0219 283.284,-83.2366"/>
</g>
<!-- Node6 -->
<g id="node7" class="node"><title>Node6</title>
<polygon fill="white" stroke="#bfbfbf" points="376,-56.5 376,-75.5 474,-75.5 474,-56.5 376,-56.5"/>
<text text-anchor="middle" x="425" y="-63.5" font-family="Helvetica,sans-Serif" font-size="10.00">tr1/unordered_map</text>
</g>
<!-- Node0&#45;&gt;Node6 -->
<g id="edge7" class="edge"><title>Node0&#45;&gt;Node6</title>
<path fill="none" stroke="midnightblue" d="M239.736,-118.422C285.996,-105.582 345.423,-89.0873 384.328,-78.2889"/>
<polygon fill="midnightblue" stroke="midnightblue" points="385.542,-81.5842 394.242,-75.5371 383.67,-74.8392 385.542,-81.5842"/>
</g>
<!-- Node5&#45;&gt;Node3 -->
<g id="edge6" class="edge"><title>Node5&#45;&gt;Node3</title>
<path fill="none" stroke="midnightblue" d="M293.504,-56.324C280.4,-47.9002 260.288,-34.9709 244.893,-25.0741"/>
<polygon fill="midnightblue" stroke="midnightblue" points="246.767,-22.118 236.463,-19.6545 242.982,-28.0063 246.767,-22.118"/>
</g>
</g>
</svg>
