<?xml version="1.0" encoding="UTF-8" standalone="no"?>
<!DOCTYPE svg PUBLIC "-//W3C//DTD SVG 1.1//EN"
 "http://www.w3.org/Graphics/SVG/1.1/DTD/svg11.dtd">
<!-- Generated by graphviz version 2.38.0 (20140413.2041)
 -->
<!-- Title: /home/alejandro/Desarrollo eclipse/os1/Thirdparty/g2o/g2o/core/sparse_block_matrix.h Pages: 1 -->
<svg width="943pt" height="240pt"
 viewBox="0.00 0.00 942.50 240.00" xmlns="http://www.w3.org/2000/svg" xmlns:xlink="http://www.w3.org/1999/xlink">
<g id="graph0" class="graph" transform="scale(1 1) rotate(0) translate(4 236)">
<title>/home/alejandro/Desarrollo eclipse/os1/Thirdparty/g2o/g2o/core/sparse_block_matrix.h</title>
<polygon fill="white" stroke="none" points="-4,4 -4,-236 938.5,-236 938.5,4 -4,4"/>
<!-- Node0 -->
<g id="node1" class="node"><title>Node0</title>
<polygon fill="#bfbfbf" stroke="black" points="372.5,-179.5 372.5,-231.5 509.5,-231.5 509.5,-179.5 372.5,-179.5"/>
<text text-anchor="start" x="380.5" y="-219.5" font-family="Helvetica,sans-Serif" font-size="10.00">/home/alejandro/Desarrollo</text>
<text text-anchor="start" x="380.5" y="-208.5" font-family="Helvetica,sans-Serif" font-size="10.00"> eclipse/os1/Thirdparty</text>
<text text-anchor="start" x="380.5" y="-197.5" font-family="Helvetica,sans-Serif" font-size="10.00">/g2o/g2o/core/sparse_block</text>
<text text-anchor="middle" x="441" y="-186.5" font-family="Helvetica,sans-Serif" font-size="10.00">_matrix.h</text>
</g>
<!-- Node1 -->
<g id="node2" class="node"><title>Node1</title>
<polygon fill="white" stroke="#bfbfbf" points="51.5,-118 51.5,-137 86.5,-137 86.5,-118 51.5,-118"/>
<text text-anchor="middle" x="69" y="-125" font-family="Helvetica,sans-Serif" font-size="10.00">map</text>
</g>
<!-- Node0&#45;&gt;Node1 -->
<g id="edge1" class="edge"><title>Node0&#45;&gt;Node1</title>
<path fill="none" stroke="midnightblue" d="M372.403,-197.132C302.877,-188.5 192.771,-171.609 101,-143 99.1221,-142.415 97.2095,-141.747 95.3008,-141.026"/>
<polygon fill="midnightblue" stroke="midnightblue" points="96.5438,-137.752 85.9675,-137.125 93.8443,-144.211 96.5438,-137.752"/>
</g>
<!-- Node2 -->
<g id="node3" class="node"><title>Node2</title>
<polygon fill="white" stroke="#bfbfbf" points="0,-56.5 0,-75.5 44,-75.5 44,-56.5 0,-56.5"/>
<text text-anchor="middle" x="22" y="-63.5" font-family="Helvetica,sans-Serif" font-size="10.00">vector</text>
</g>
<!-- Node0&#45;&gt;Node2 -->
<g id="edge2" class="edge"><title>Node0&#45;&gt;Node2</title>
<path fill="none" stroke="midnightblue" d="M372.208,-200.923C307.175,-195.267 208.317,-180.671 131,-143 112.019,-133.752 112.04,-124.468 95,-112 79.4269,-100.606 60.9109,-89.2143 46.4237,-80.7435"/>
<polygon fill="midnightblue" stroke="midnightblue" points="47.9677,-77.5936 37.5567,-75.6281 44.4696,-83.6569 47.9677,-77.5936"/>
</g>
<!-- Node3 -->
<g id="node4" class="node"><title>Node3</title>
<polygon fill="white" stroke="#bfbfbf" points="488,-118 488,-137 538,-137 538,-118 488,-118"/>
<text text-anchor="middle" x="513" y="-125" font-family="Helvetica,sans-Serif" font-size="10.00">fstream</text>
</g>
<!-- Node0&#45;&gt;Node3 -->
<g id="edge3" class="edge"><title>Node0&#45;&gt;Node3</title>
<path fill="none" stroke="midnightblue" d="M464.975,-179.193C475.821,-167.745 488.312,-154.56 497.836,-144.507"/>
<polygon fill="midnightblue" stroke="midnightblue" points="500.413,-146.876 504.749,-137.209 495.331,-142.061 500.413,-146.876"/>
</g>
<!-- Node4 -->
<g id="node5" class="node"><title>Node4</title>
<polygon fill="white" stroke="#bfbfbf" points="556,-118 556,-137 610,-137 610,-118 556,-118"/>
<text text-anchor="middle" x="583" y="-125" font-family="Helvetica,sans-Serif" font-size="10.00">iostream</text>
</g>
<!-- Node0&#45;&gt;Node4 -->
<g id="edge4" class="edge"><title>Node0&#45;&gt;Node4</title>
<path fill="none" stroke="midnightblue" d="M487.89,-179.404C511.248,-166.902 538.558,-152.286 557.906,-141.931"/>
<polygon fill="midnightblue" stroke="midnightblue" points="559.808,-144.883 566.973,-137.078 556.505,-138.711 559.808,-144.883"/>
</g>
<!-- Node5 -->
<g id="node6" class="node"><title>Node5</title>
<polygon fill="white" stroke="#bfbfbf" points="628,-118 628,-137 678,-137 678,-118 628,-118"/>
<text text-anchor="middle" x="653" y="-125" font-family="Helvetica,sans-Serif" font-size="10.00">iomanip</text>
</g>
<!-- Node0&#45;&gt;Node5 -->
<g id="edge5" class="edge"><title>Node0&#45;&gt;Node5</title>
<path fill="none" stroke="midnightblue" d="M509.875,-181.964C543.058,-170.786 583.306,-156.758 619,-143 620.647,-142.365 622.332,-141.7 624.028,-141.017"/>
<polygon fill="midnightblue" stroke="midnightblue" points="625.779,-144.08 633.678,-137.019 623.1,-137.613 625.779,-144.08"/>
</g>
<!-- Node6 -->
<g id="node7" class="node"><title>Node6</title>
<polygon fill="white" stroke="#bfbfbf" points="62.5,-56.5 62.5,-75.5 111.5,-75.5 111.5,-56.5 62.5,-56.5"/>
<text text-anchor="middle" x="87" y="-63.5" font-family="Helvetica,sans-Serif" font-size="10.00">cassert</text>
</g>
<!-- Node0&#45;&gt;Node6 -->
<g id="edge6" class="edge"><title>Node0&#45;&gt;Node6</title>
<path fill="none" stroke="midnightblue" d="M372.25,-198.394C315.86,-191.186 235.301,-175.727 172,-143 156.632,-135.054 122.622,-102.527 102.592,-82.6909"/>
<polygon fill="midnightblue" stroke="midnightblue" points="104.984,-80.1327 95.4315,-75.5497 100.041,-85.0893 104.984,-80.1327"/>
</g>
<!-- Node7 -->
<g id="node8" class="node"><title>Node7</title>
<polygon fill="white" stroke="#bfbfbf" points="286.5,-0.5 286.5,-19.5 383.5,-19.5 383.5,-0.5 286.5,-0.5"/>
<text text-anchor="middle" x="335" y="-7.5" font-family="Helvetica,sans-Serif" font-size="10.00">eigen3/Eigen/Core</text>
</g>
<!-- Node0&#45;&gt;Node7 -->
<g id="edge7" class="edge"><title>Node0&#45;&gt;Node7</title>
<path fill="none" stroke="midnightblue" d="M451.797,-179.487C462.164,-154.009 477.093,-113.085 483,-76 484.398,-67.2218 488.293,-63.1413 483,-56 462.582,-28.4514 425.715,-17.1887 393.887,-12.8196"/>
<polygon fill="midnightblue" stroke="midnightblue" points="394.097,-9.32026 383.757,-11.6313 393.281,-16.2726 394.097,-9.32026"/>
</g>
<!-- Node8 -->
<g id="node9" class="node"><title>Node8</title>
<g id="a_node9"><a xlink:href="sparse__block__matrix__ccs_8h.html" target="_top" xlink:title="sparse_block_matrix\l_ccs.h">
<polygon fill="white" stroke="black" points="181.5,-112.5 181.5,-142.5 288.5,-142.5 288.5,-112.5 181.5,-112.5"/>
<text text-anchor="start" x="189.5" y="-130.5" font-family="Helvetica,sans-Serif" font-size="10.00">sparse_block_matrix</text>
<text text-anchor="middle" x="235" y="-119.5" font-family="Helvetica,sans-Serif" font-size="10.00">_ccs.h</text>
</a>
</g>
</g>
<!-- Node0&#45;&gt;Node8 -->
<g id="edge8" class="edge"><title>Node0&#45;&gt;Node8</title>
<path fill="none" stroke="midnightblue" d="M372.977,-179.404C343.439,-168.506 309.545,-156.002 282.743,-146.114"/>
<polygon fill="midnightblue" stroke="midnightblue" points="283.804,-142.775 273.211,-142.597 281.381,-149.342 283.804,-142.775"/>
</g>
<!-- Node9 -->
<g id="node10" class="node"><title>Node9</title>
<g id="a_node10"><a xlink:href="config_8h.html" target="_top" xlink:title="../../config.h">
<polygon fill="white" stroke="black" points="404.5,-56.5 404.5,-75.5 473.5,-75.5 473.5,-56.5 404.5,-56.5"/>
<text text-anchor="middle" x="439" y="-63.5" font-family="Helvetica,sans-Serif" font-size="10.00">../../config.h</text>
</a>
</g>
</g>
<!-- Node0&#45;&gt;Node9 -->
<g id="edge18" class="edge"><title>Node0&#45;&gt;Node9</title>
<path fill="none" stroke="midnightblue" d="M440.633,-179.28C440.24,-152.241 439.625,-109.94 439.272,-85.7156"/>
<polygon fill="midnightblue" stroke="midnightblue" points="442.772,-85.647 439.127,-75.699 435.772,-85.7489 442.772,-85.647"/>
</g>
<!-- Node10 -->
<g id="node11" class="node"><title>Node10</title>
<g id="a_node11"><a xlink:href="matrix__operations_8h.html" target="_top" xlink:title="matrix_operations.h">
<polygon fill="white" stroke="black" points="284,-56.5 284,-75.5 386,-75.5 386,-56.5 284,-56.5"/>
<text text-anchor="middle" x="335" y="-63.5" font-family="Helvetica,sans-Serif" font-size="10.00">matrix_operations.h</text>
</a>
</g>
</g>
<!-- Node0&#45;&gt;Node10 -->
<g id="edge17" class="edge"><title>Node0&#45;&gt;Node10</title>
<path fill="none" stroke="midnightblue" d="M421.558,-179.28C400.147,-151.507 366.323,-107.632 347.938,-83.7833"/>
<polygon fill="midnightblue" stroke="midnightblue" points="350.584,-81.4819 341.706,-75.699 345.04,-85.7558 350.584,-81.4819"/>
</g>
<!-- Node12 -->
<g id="node13" class="node"><title>Node12</title>
<g id="a_node13"><a xlink:href="matrix__structure_8h.html" target="_top" xlink:title="matrix_structure.h">
<polygon fill="white" stroke="black" points="696.5,-118 696.5,-137 791.5,-137 791.5,-118 696.5,-118"/>
<text text-anchor="middle" x="744" y="-125" font-family="Helvetica,sans-Serif" font-size="10.00">matrix_structure.h</text>
</a>
</g>
</g>
<!-- Node0&#45;&gt;Node12 -->
<g id="edge16" class="edge"><title>Node0&#45;&gt;Node12</title>
<path fill="none" stroke="midnightblue" d="M509.679,-187.411C559.027,-175.112 627.133,-158.098 687,-143 691.407,-141.888 696.006,-140.725 700.595,-139.561"/>
<polygon fill="midnightblue" stroke="midnightblue" points="701.719,-142.887 710.55,-137.034 699.996,-136.102 701.719,-142.887"/>
</g>
<!-- Node13 -->
<g id="node14" class="node"><title>Node13</title>
<g id="a_node14"><a xlink:href="sparse__block__matrix_8hpp.html" target="_top" xlink:title="sparse_block_matrix.hpp">
<polygon fill="white" stroke="black" points="809.5,-118 809.5,-137 934.5,-137 934.5,-118 809.5,-118"/>
<text text-anchor="middle" x="872" y="-125" font-family="Helvetica,sans-Serif" font-size="10.00">sparse_block_matrix.hpp</text>
</a>
</g>
</g>
<!-- Node0&#45;&gt;Node13 -->
<g id="edge19" class="edge"><title>Node0&#45;&gt;Node13</title>
<path fill="none" stroke="midnightblue" d="M509.797,-193.424C582.334,-181.588 699.886,-161.957 801,-143 807.646,-141.754 814.632,-140.392 821.521,-139.018"/>
<polygon fill="midnightblue" stroke="midnightblue" points="822.383,-142.414 831.494,-137.007 821,-135.552 822.383,-142.414"/>
</g>
<!-- Node8&#45;&gt;Node2 -->
<g id="edge9" class="edge"><title>Node8&#45;&gt;Node2</title>
<path fill="none" stroke="midnightblue" d="M183.57,-112.405C149.374,-102.993 103.213,-90.2115 53.9067,-76.2346"/>
<polygon fill="midnightblue" stroke="midnightblue" points="54.5819,-72.788 44.0062,-73.4239 52.6701,-79.5219 54.5819,-72.788"/>
</g>
<!-- Node8&#45;&gt;Node6 -->
<g id="edge10" class="edge"><title>Node8&#45;&gt;Node6</title>
<path fill="none" stroke="midnightblue" d="M199.926,-112.399C174.983,-102.372 141.792,-89.028 117.856,-79.405"/>
<polygon fill="midnightblue" stroke="midnightblue" points="119.119,-76.1406 108.535,-75.6578 116.508,-82.6354 119.119,-76.1406"/>
</g>
<!-- Node8&#45;&gt;Node7 -->
<g id="edge11" class="edge"><title>Node8&#45;&gt;Node7</title>
<path fill="none" stroke="midnightblue" d="M200.59,-112.398C173.159,-99.0937 141.947,-77.9623 159,-56 173.431,-37.4149 230.833,-25.207 276.21,-18.2562"/>
<polygon fill="midnightblue" stroke="midnightblue" points="276.895,-21.6931 286.276,-16.7688 275.872,-14.7683 276.895,-21.6931"/>
</g>
<!-- Node8&#45;&gt;Node9 -->
<g id="edge12" class="edge"><title>Node8&#45;&gt;Node9</title>
<path fill="none" stroke="midnightblue" d="M283.087,-112.475C318.742,-102.075 366.731,-88.0783 400.01,-78.3722"/>
<polygon fill="midnightblue" stroke="midnightblue" points="401.215,-81.6664 409.835,-75.5064 399.255,-74.9464 401.215,-81.6664"/>
</g>
<!-- Node8&#45;&gt;Node10 -->
<g id="edge13" class="edge"><title>Node8&#45;&gt;Node10</title>
<path fill="none" stroke="midnightblue" d="M258.699,-112.399C274.728,-102.862 295.799,-90.3248 311.736,-80.8422"/>
<polygon fill="midnightblue" stroke="midnightblue" points="313.645,-83.779 320.449,-75.6578 310.066,-77.7633 313.645,-83.779"/>
</g>
<!-- Node11 -->
<g id="node12" class="node"><title>Node11</title>
<polygon fill="white" stroke="#bfbfbf" points="168,-56.5 168,-75.5 266,-75.5 266,-56.5 168,-56.5"/>
<text text-anchor="middle" x="217" y="-63.5" font-family="Helvetica,sans-Serif" font-size="10.00">tr1/unordered_map</text>
</g>
<!-- Node8&#45;&gt;Node11 -->
<g id="edge15" class="edge"><title>Node8&#45;&gt;Node11</title>
<path fill="none" stroke="midnightblue" d="M230.734,-112.399C228.28,-104.288 225.17,-94.0071 222.53,-85.2807"/>
<polygon fill="midnightblue" stroke="midnightblue" points="225.865,-84.2159 219.619,-75.6578 219.165,-86.2429 225.865,-84.2159"/>
</g>
<!-- Node10&#45;&gt;Node7 -->
<g id="edge14" class="edge"><title>Node10&#45;&gt;Node7</title>
<path fill="none" stroke="midnightblue" d="M335,-56.083C335,-49.0059 335,-38.8611 335,-29.9865"/>
<polygon fill="midnightblue" stroke="midnightblue" points="338.5,-29.751 335,-19.7511 331.5,-29.7511 338.5,-29.751"/>
</g>
</g>
</svg>
