<?xml version="1.0" encoding="UTF-8" standalone="no"?>
<!DOCTYPE svg PUBLIC "-//W3C//DTD SVG 1.1//EN"
 "http://www.w3.org/Graphics/SVG/1.1/DTD/svg11.dtd">
<!-- Generated by graphviz version 2.38.0 (20140413.2041)
 -->
<!-- Title: /home/alejandro/Desarrollo eclipse/os1/Thirdparty/g2o/g2o/core/sparse_optimizer.h Pages: 1 -->
<svg width="1665pt" height="341pt"
 viewBox="0.00 0.00 1664.83 341.00" xmlns="http://www.w3.org/2000/svg" xmlns:xlink="http://www.w3.org/1999/xlink">
<g id="graph0" class="graph" transform="scale(1 1) rotate(0) translate(4 337)">
<title>/home/alejandro/Desarrollo eclipse/os1/Thirdparty/g2o/g2o/core/sparse_optimizer.h</title>
<polygon fill="white" stroke="none" points="-4,4 -4,-337 1660.83,-337 1660.83,4 -4,4"/>
<!-- Node0 -->
<g id="node1" class="node"><title>Node0</title>
<polygon fill="#bfbfbf" stroke="black" points="429,-291.5 429,-332.5 590,-332.5 590,-291.5 429,-291.5"/>
<text text-anchor="start" x="437" y="-320.5" font-family="Helvetica,sans-Serif" font-size="10.00">/home/alejandro/Desarrollo</text>
<text text-anchor="start" x="437" y="-309.5" font-family="Helvetica,sans-Serif" font-size="10.00"> eclipse/os1/Thirdparty</text>
<text text-anchor="middle" x="509.5" y="-298.5" font-family="Helvetica,sans-Serif" font-size="10.00">/g2o/g2o/core/sparse_optimizer.h</text>
</g>
<!-- Node1 -->
<g id="node2" class="node"><title>Node1</title>
<g id="a_node2"><a xlink:href="macros_8h.html" target="_top" xlink:title="../stuff/macros.h">
<polygon fill="white" stroke="black" points="0,-179.5 0,-198.5 89,-198.5 89,-179.5 0,-179.5"/>
<text text-anchor="middle" x="44.5" y="-186.5" font-family="Helvetica,sans-Serif" font-size="10.00">../stuff/macros.h</text>
</a>
</g>
</g>
<!-- Node0&#45;&gt;Node1 -->
<g id="edge1" class="edge"><title>Node0&#45;&gt;Node1</title>
<path fill="none" stroke="midnightblue" d="M428.949,-306.394C327.104,-299.462 158.41,-283.965 103.5,-255 82.7369,-244.047 65.6001,-222.743 55.2425,-207.509"/>
<polygon fill="midnightblue" stroke="midnightblue" points="58.074,-205.443 49.6977,-198.955 52.2001,-209.25 58.074,-205.443"/>
</g>
<!-- Node3 -->
<g id="node4" class="node"><title>Node3</title>
<g id="a_node4"><a xlink:href="optimizable__graph_8h.html" target="_top" xlink:title="optimizable_graph.h">
<polygon fill="white" stroke="black" points="457.5,-235.5 457.5,-254.5 561.5,-254.5 561.5,-235.5 457.5,-235.5"/>
<text text-anchor="middle" x="509.5" y="-242.5" font-family="Helvetica,sans-Serif" font-size="10.00">optimizable_graph.h</text>
</a>
</g>
</g>
<!-- Node0&#45;&gt;Node3 -->
<g id="edge3" class="edge"><title>Node0&#45;&gt;Node3</title>
<path fill="none" stroke="midnightblue" d="M509.5,-291.498C509.5,-283.065 509.5,-273.235 509.5,-264.874"/>
<polygon fill="midnightblue" stroke="midnightblue" points="513,-264.652 509.5,-254.652 506,-264.653 513,-264.652"/>
</g>
<!-- Node14 -->
<g id="node15" class="node"><title>Node14</title>
<polygon fill="white" stroke="#bfbfbf" points="188,-56.5 188,-75.5 223,-75.5 223,-56.5 188,-56.5"/>
<text text-anchor="middle" x="205.5" y="-63.5" font-family="Helvetica,sans-Serif" font-size="10.00">map</text>
</g>
<!-- Node0&#45;&gt;Node14 -->
<g id="edge59" class="edge"><title>Node0&#45;&gt;Node14</title>
<path fill="none" stroke="midnightblue" d="M428.851,-297.043C334.05,-278.802 185.421,-243.831 152.5,-199 125.462,-162.18 165.171,-109.651 189.284,-83.3392"/>
<polygon fill="midnightblue" stroke="midnightblue" points="192.119,-85.4355 196.46,-75.7708 187.04,-80.619 192.119,-85.4355"/>
</g>
<!-- Node26 -->
<g id="node27" class="node"><title>Node26</title>
<g id="a_node27"><a xlink:href="sparse__block__matrix_8h.html" target="_top" xlink:title="sparse_block_matrix.h">
<polygon fill="white" stroke="black" points="1071,-179.5 1071,-198.5 1186,-198.5 1186,-179.5 1071,-179.5"/>
<text text-anchor="middle" x="1128.5" y="-186.5" font-family="Helvetica,sans-Serif" font-size="10.00">sparse_block_matrix.h</text>
</a>
</g>
</g>
<!-- Node0&#45;&gt;Node26 -->
<g id="edge36" class="edge"><title>Node0&#45;&gt;Node26</title>
<path fill="none" stroke="midnightblue" d="M590.106,-295.243C718.407,-270.164 965.688,-221.826 1074.67,-200.522"/>
<polygon fill="midnightblue" stroke="midnightblue" points="1075.64,-203.9 1084.78,-198.546 1074.29,-197.03 1075.64,-203.9"/>
</g>
<!-- Node33 -->
<g id="node34" class="node"><title>Node33</title>
<g id="a_node34"><a xlink:href="batch__stats_8h.html" target="_top" xlink:title="batch_stats.h">
<polygon fill="white" stroke="black" points="1576.5,-179.5 1576.5,-198.5 1652.5,-198.5 1652.5,-179.5 1576.5,-179.5"/>
<text text-anchor="middle" x="1614.5" y="-186.5" font-family="Helvetica,sans-Serif" font-size="10.00">batch_stats.h</text>
</a>
</g>
</g>
<!-- Node0&#45;&gt;Node33 -->
<g id="edge56" class="edge"><title>Node0&#45;&gt;Node33</title>
<path fill="none" stroke="midnightblue" d="M590.306,-302.152C806.541,-278.473 1393.68,-214.18 1566.21,-195.288"/>
<polygon fill="midnightblue" stroke="midnightblue" points="1566.7,-198.756 1576.26,-194.188 1565.93,-191.797 1566.7,-198.756"/>
</g>
<!-- Node2 -->
<g id="node3" class="node"><title>Node2</title>
<polygon fill="white" stroke="#bfbfbf" points="21,-118 21,-137 68,-137 68,-118 21,-118"/>
<text text-anchor="middle" x="44.5" y="-125" font-family="Helvetica,sans-Serif" font-size="10.00">math.h</text>
</g>
<!-- Node1&#45;&gt;Node2 -->
<g id="edge2" class="edge"><title>Node1&#45;&gt;Node2</title>
<path fill="none" stroke="midnightblue" d="M44.5,-179.475C44.5,-171.08 44.5,-157.981 44.5,-147.163"/>
<polygon fill="midnightblue" stroke="midnightblue" points="48.0001,-147.009 44.5,-137.009 41.0001,-147.009 48.0001,-147.009"/>
</g>
<!-- Node3&#45;&gt;Node1 -->
<g id="edge35" class="edge"><title>Node3&#45;&gt;Node1</title>
<path fill="none" stroke="midnightblue" d="M457.062,-237.91C368.325,-227.606 189.421,-206.83 99.1862,-196.351"/>
<polygon fill="midnightblue" stroke="midnightblue" points="99.4957,-192.863 89.1587,-195.186 98.6881,-199.816 99.4957,-192.863"/>
</g>
<!-- Node4 -->
<g id="node5" class="node"><title>Node4</title>
<polygon fill="white" stroke="#bfbfbf" points="477.5,-56.5 477.5,-75.5 507.5,-75.5 507.5,-56.5 477.5,-56.5"/>
<text text-anchor="middle" x="492.5" y="-63.5" font-family="Helvetica,sans-Serif" font-size="10.00">set</text>
</g>
<!-- Node3&#45;&gt;Node4 -->
<g id="edge4" class="edge"><title>Node3&#45;&gt;Node4</title>
<path fill="none" stroke="midnightblue" d="M508.68,-235.463C506.083,-208.428 497.998,-124.239 494.335,-86.109"/>
<polygon fill="midnightblue" stroke="midnightblue" points="497.792,-85.4879 493.352,-75.8684 490.824,-86.1572 497.792,-85.4879"/>
</g>
<!-- Node5 -->
<g id="node6" class="node"><title>Node5</title>
<polygon fill="white" stroke="#bfbfbf" points="1587.5,-118 1587.5,-137 1641.5,-137 1641.5,-118 1587.5,-118"/>
<text text-anchor="middle" x="1614.5" y="-125" font-family="Helvetica,sans-Serif" font-size="10.00">iostream</text>
</g>
<!-- Node3&#45;&gt;Node5 -->
<g id="edge5" class="edge"><title>Node3&#45;&gt;Node5</title>
<path fill="none" stroke="midnightblue" d="M561.702,-242.144C676.554,-237.717 959.706,-224.921 1195.5,-199 1357.33,-181.21 1397.98,-175.55 1557.5,-143 1563.93,-141.687 1570.73,-140.119 1577.31,-138.506"/>
<polygon fill="midnightblue" stroke="midnightblue" points="1578.53,-141.807 1587.37,-135.966 1576.82,-135.02 1578.53,-141.807"/>
</g>
<!-- Node6 -->
<g id="node7" class="node"><title>Node6</title>
<polygon fill="white" stroke="#bfbfbf" points="517,-179.5 517,-198.5 546,-198.5 546,-179.5 517,-179.5"/>
<text text-anchor="middle" x="531.5" y="-186.5" font-family="Helvetica,sans-Serif" font-size="10.00">list</text>
</g>
<!-- Node3&#45;&gt;Node6 -->
<g id="edge6" class="edge"><title>Node3&#45;&gt;Node6</title>
<path fill="none" stroke="midnightblue" d="M513.133,-235.083C516.112,-227.77 520.426,-217.181 524.125,-208.103"/>
<polygon fill="midnightblue" stroke="midnightblue" points="527.403,-209.333 527.935,-198.751 520.92,-206.691 527.403,-209.333"/>
</g>
<!-- Node7 -->
<g id="node8" class="node"><title>Node7</title>
<polygon fill="white" stroke="#bfbfbf" points="293.5,-56.5 293.5,-75.5 333.5,-75.5 333.5,-56.5 293.5,-56.5"/>
<text text-anchor="middle" x="313.5" y="-63.5" font-family="Helvetica,sans-Serif" font-size="10.00">limits</text>
</g>
<!-- Node3&#45;&gt;Node7 -->
<g id="edge7" class="edge"><title>Node3&#45;&gt;Node7</title>
<path fill="none" stroke="midnightblue" d="M457.115,-242.964C420.967,-239.416 374.39,-228.768 345.5,-199 315.622,-168.214 312.05,-114.517 312.483,-86.0233"/>
<polygon fill="midnightblue" stroke="midnightblue" points="315.988,-85.9205 312.832,-75.8068 308.993,-85.6814 315.988,-85.9205"/>
</g>
<!-- Node8 -->
<g id="node9" class="node"><title>Node8</title>
<polygon fill="white" stroke="#bfbfbf" points="733.5,-179.5 733.5,-198.5 777.5,-198.5 777.5,-179.5 733.5,-179.5"/>
<text text-anchor="middle" x="755.5" y="-186.5" font-family="Helvetica,sans-Serif" font-size="10.00">cmath</text>
</g>
<!-- Node3&#45;&gt;Node8 -->
<g id="edge8" class="edge"><title>Node3&#45;&gt;Node8</title>
<path fill="none" stroke="midnightblue" d="M551.429,-235.451C593.884,-226.693 661.387,-212.486 719.5,-199 720.771,-198.705 722.066,-198.401 723.373,-198.09"/>
<polygon fill="midnightblue" stroke="midnightblue" points="724.555,-201.404 733.444,-195.64 722.9,-194.603 724.555,-201.404"/>
</g>
<!-- Node9 -->
<g id="node10" class="node"><title>Node9</title>
<polygon fill="white" stroke="#bfbfbf" points="796,-179.5 796,-198.5 847,-198.5 847,-179.5 796,-179.5"/>
<text text-anchor="middle" x="821.5" y="-186.5" font-family="Helvetica,sans-Serif" font-size="10.00">typeinfo</text>
</g>
<!-- Node3&#45;&gt;Node9 -->
<g id="edge9" class="edge"><title>Node3&#45;&gt;Node9</title>
<path fill="none" stroke="midnightblue" d="M561.577,-236.977C615.319,-229.409 701.755,-216.341 785.959,-198.942"/>
<polygon fill="midnightblue" stroke="midnightblue" points="786.876,-202.327 795.948,-196.855 785.444,-195.475 786.876,-202.327"/>
</g>
<!-- Node10 -->
<g id="node11" class="node"><title>Node10</title>
<g id="a_node11"><a xlink:href="openmp__mutex_8h.html" target="_top" xlink:title="openmp_mutex.h">
<polygon fill="white" stroke="black" points="730.5,-118 730.5,-137 822.5,-137 822.5,-118 730.5,-118"/>
<text text-anchor="middle" x="776.5" y="-125" font-family="Helvetica,sans-Serif" font-size="10.00">openmp_mutex.h</text>
</a>
</g>
</g>
<!-- Node3&#45;&gt;Node10 -->
<g id="edge10" class="edge"><title>Node3&#45;&gt;Node10</title>
<path fill="none" stroke="midnightblue" d="M561.505,-236.459C597.613,-229.867 646.116,-218.255 685.5,-199 714.507,-184.818 743.146,-160.457 760.328,-144.414"/>
<polygon fill="midnightblue" stroke="midnightblue" points="762.977,-146.724 767.794,-137.287 758.143,-141.66 762.977,-146.724"/>
</g>
<!-- Node13 -->
<g id="node14" class="node"><title>Node13</title>
<g id="a_node14"><a xlink:href="hyper__graph_8h.html" target="_top" xlink:title="hyper_graph.h">
<polygon fill="white" stroke="black" points="382.5,-118 382.5,-137 460.5,-137 460.5,-118 382.5,-118"/>
<text text-anchor="middle" x="421.5" y="-125" font-family="Helvetica,sans-Serif" font-size="10.00">hyper_graph.h</text>
</a>
</g>
</g>
<!-- Node3&#45;&gt;Node13 -->
<g id="edge13" class="edge"><title>Node3&#45;&gt;Node13</title>
<path fill="none" stroke="midnightblue" d="M502.748,-235.406C495.668,-226.374 484.24,-211.737 474.5,-199 460.613,-180.84 444.898,-159.884 434.21,-145.569"/>
<polygon fill="midnightblue" stroke="midnightblue" points="436.766,-143.142 427.982,-137.217 431.154,-147.326 436.766,-143.142"/>
</g>
<!-- Node19 -->
<g id="node20" class="node"><title>Node19</title>
<g id="a_node20"><a xlink:href="parameter_8h.html" target="_top" xlink:title="parameter.h">
<polygon fill="white" stroke="black" points="354.5,-179.5 354.5,-198.5 422.5,-198.5 422.5,-179.5 354.5,-179.5"/>
<text text-anchor="middle" x="388.5" y="-186.5" font-family="Helvetica,sans-Serif" font-size="10.00">parameter.h</text>
</a>
</g>
</g>
<!-- Node3&#45;&gt;Node19 -->
<g id="edge22" class="edge"><title>Node3&#45;&gt;Node19</title>
<path fill="none" stroke="midnightblue" d="M490.327,-235.444C470.591,-226.636 439.615,-212.812 417.007,-202.722"/>
<polygon fill="midnightblue" stroke="midnightblue" points="418.141,-199.396 407.583,-198.516 415.289,-205.788 418.141,-199.396"/>
</g>
<!-- Node21 -->
<g id="node22" class="node"><title>Node21</title>
<g id="a_node22"><a xlink:href="parameter__container_8h.html" target="_top" xlink:title="parameter_container.h">
<polygon fill="white" stroke="black" points="162,-179.5 162,-198.5 275,-198.5 275,-179.5 162,-179.5"/>
<text text-anchor="middle" x="218.5" y="-186.5" font-family="Helvetica,sans-Serif" font-size="10.00">parameter_container.h</text>
</a>
</g>
</g>
<!-- Node3&#45;&gt;Node21 -->
<g id="edge25" class="edge"><title>Node3&#45;&gt;Node21</title>
<path fill="none" stroke="midnightblue" d="M463.39,-235.444C412.094,-225.925 329.227,-210.547 274.309,-200.356"/>
<polygon fill="midnightblue" stroke="midnightblue" points="274.865,-196.9 264.394,-198.516 273.588,-203.782 274.865,-196.9"/>
</g>
<!-- Node23 -->
<g id="node24" class="node"><title>Node23</title>
<g id="a_node24"><a xlink:href="jacobian__workspace_8h.html" target="_top" xlink:title="jacobian_workspace.h">
<polygon fill="white" stroke="black" points="564,-179.5 564,-198.5 677,-198.5 677,-179.5 564,-179.5"/>
<text text-anchor="middle" x="620.5" y="-186.5" font-family="Helvetica,sans-Serif" font-size="10.00">jacobian_workspace.h</text>
</a>
</g>
</g>
<!-- Node3&#45;&gt;Node23 -->
<g id="edge29" class="edge"><title>Node3&#45;&gt;Node23</title>
<path fill="none" stroke="midnightblue" d="M527.334,-235.324C545.216,-226.625 572.975,-213.12 593.546,-203.113"/>
<polygon fill="midnightblue" stroke="midnightblue" points="595.249,-206.177 602.71,-198.655 592.187,-199.882 595.249,-206.177"/>
</g>
<!-- Node11 -->
<g id="node12" class="node"><title>Node11</title>
<g id="a_node12"><a xlink:href="config_8h.html" target="_top" xlink:title="../../config.h">
<polygon fill="white" stroke="black" points="917,-56.5 917,-75.5 986,-75.5 986,-56.5 917,-56.5"/>
<text text-anchor="middle" x="951.5" y="-63.5" font-family="Helvetica,sans-Serif" font-size="10.00">../../config.h</text>
</a>
</g>
</g>
<!-- Node10&#45;&gt;Node11 -->
<g id="edge11" class="edge"><title>Node10&#45;&gt;Node11</title>
<path fill="none" stroke="midnightblue" d="M801.573,-117.975C831.852,-107.68 882.94,-90.3103 916.941,-78.7502"/>
<polygon fill="midnightblue" stroke="midnightblue" points="918.132,-82.0419 926.473,-75.5091 915.879,-75.4145 918.132,-82.0419"/>
</g>
<!-- Node12 -->
<g id="node13" class="node"><title>Node12</title>
<polygon fill="white" stroke="#bfbfbf" points="696,-56.5 696,-75.5 745,-75.5 745,-56.5 696,-56.5"/>
<text text-anchor="middle" x="720.5" y="-63.5" font-family="Helvetica,sans-Serif" font-size="10.00">cassert</text>
</g>
<!-- Node10&#45;&gt;Node12 -->
<g id="edge12" class="edge"><title>Node10&#45;&gt;Node12</title>
<path fill="none" stroke="midnightblue" d="M768.477,-117.975C759.91,-108.873 746.139,-94.241 735.543,-82.983"/>
<polygon fill="midnightblue" stroke="midnightblue" points="737.911,-80.3923 728.509,-75.5091 732.814,-85.1899 737.911,-80.3923"/>
</g>
<!-- Node13&#45;&gt;Node4 -->
<g id="edge15" class="edge"><title>Node13&#45;&gt;Node4</title>
<path fill="none" stroke="midnightblue" d="M431.673,-117.975C442.85,-108.608 461.017,-93.3839 474.591,-82.0081"/>
<polygon fill="midnightblue" stroke="midnightblue" points="476.93,-84.6148 482.346,-75.5091 472.434,-79.2496 476.93,-84.6148"/>
</g>
<!-- Node13&#45;&gt;Node7 -->
<g id="edge19" class="edge"><title>Node13&#45;&gt;Node7</title>
<path fill="none" stroke="midnightblue" d="M406.026,-117.975C388.222,-108.166 358.759,-91.9346 337.868,-80.425"/>
<polygon fill="midnightblue" stroke="midnightblue" points="339.393,-77.269 328.945,-75.5091 336.015,-83.4001 339.393,-77.269"/>
</g>
<!-- Node13&#45;&gt;Node12 -->
<g id="edge17" class="edge"><title>Node13&#45;&gt;Node12</title>
<path fill="none" stroke="midnightblue" d="M460.589,-118.721C519.452,-107.008 629.912,-85.0268 685.971,-73.8711"/>
<polygon fill="midnightblue" stroke="midnightblue" points="686.657,-77.3034 695.781,-71.919 685.29,-70.438 686.657,-77.3034"/>
</g>
<!-- Node13&#45;&gt;Node14 -->
<g id="edge14" class="edge"><title>Node13&#45;&gt;Node14</title>
<path fill="none" stroke="midnightblue" d="M390.552,-117.975C348.272,-106.328 273.117,-85.6259 232.82,-74.5255"/>
<polygon fill="midnightblue" stroke="midnightblue" points="233.704,-71.1388 223.133,-71.8573 231.845,-77.8874 233.704,-71.1388"/>
</g>
<!-- Node15 -->
<g id="node16" class="node"><title>Node15</title>
<polygon fill="white" stroke="#bfbfbf" points="352,-56.5 352,-75.5 393,-75.5 393,-56.5 352,-56.5"/>
<text text-anchor="middle" x="372.5" y="-63.5" font-family="Helvetica,sans-Serif" font-size="10.00">bitset</text>
</g>
<!-- Node13&#45;&gt;Node15 -->
<g id="edge16" class="edge"><title>Node13&#45;&gt;Node15</title>
<path fill="none" stroke="midnightblue" d="M414.479,-117.975C407.057,-108.962 395.167,-94.5246 385.933,-83.3118"/>
<polygon fill="midnightblue" stroke="midnightblue" points="388.566,-81.0034 379.507,-75.5091 383.163,-85.4534 388.566,-81.0034"/>
</g>
<!-- Node16 -->
<g id="node17" class="node"><title>Node16</title>
<polygon fill="white" stroke="#bfbfbf" points="1055.5,-56.5 1055.5,-75.5 1099.5,-75.5 1099.5,-56.5 1055.5,-56.5"/>
<text text-anchor="middle" x="1077.5" y="-63.5" font-family="Helvetica,sans-Serif" font-size="10.00">vector</text>
</g>
<!-- Node13&#45;&gt;Node16 -->
<g id="edge18" class="edge"><title>Node13&#45;&gt;Node16</title>
<path fill="none" stroke="midnightblue" d="M460.776,-119.085C475.401,-116.534 492.168,-113.855 507.5,-112 722.964,-85.9298 778.361,-95.7013 994.5,-76 1011.27,-74.4713 1029.92,-72.4764 1045.28,-70.7533"/>
<polygon fill="midnightblue" stroke="midnightblue" points="1045.79,-74.2183 1055.33,-69.6129 1045,-67.263 1045.79,-74.2183"/>
</g>
<!-- Node17 -->
<g id="node18" class="node"><title>Node17</title>
<polygon fill="white" stroke="#bfbfbf" points="411,-56.5 411,-75.5 460,-75.5 460,-56.5 411,-56.5"/>
<text text-anchor="middle" x="435.5" y="-63.5" font-family="Helvetica,sans-Serif" font-size="10.00">cstddef</text>
</g>
<!-- Node13&#45;&gt;Node17 -->
<g id="edge20" class="edge"><title>Node13&#45;&gt;Node17</title>
<path fill="none" stroke="midnightblue" d="M423.506,-117.975C425.502,-109.492 428.628,-96.2043 431.189,-85.3222"/>
<polygon fill="midnightblue" stroke="midnightblue" points="434.614,-86.0449 433.498,-75.5091 427.8,-84.4416 434.614,-86.0449"/>
</g>
<!-- Node18 -->
<g id="node19" class="node"><title>Node18</title>
<polygon fill="white" stroke="#bfbfbf" points="762.5,-56.5 762.5,-75.5 860.5,-75.5 860.5,-56.5 762.5,-56.5"/>
<text text-anchor="middle" x="811.5" y="-63.5" font-family="Helvetica,sans-Serif" font-size="10.00">tr1/unordered_map</text>
</g>
<!-- Node13&#45;&gt;Node18 -->
<g id="edge21" class="edge"><title>Node13&#45;&gt;Node18</title>
<path fill="none" stroke="midnightblue" d="M460.859,-119.679C475.492,-117.192 492.244,-114.402 507.5,-112 613.455,-95.3169 642.551,-92.6218 752.295,-76.1687"/>
<polygon fill="midnightblue" stroke="midnightblue" points="753.089,-79.5889 762.457,-74.6406 752.048,-72.6667 753.089,-79.5889"/>
</g>
<!-- Node19&#45;&gt;Node13 -->
<g id="edge24" class="edge"><title>Node19&#45;&gt;Node13</title>
<path fill="none" stroke="midnightblue" d="M393.228,-179.475C398.08,-170.727 405.766,-156.869 411.9,-145.809"/>
<polygon fill="midnightblue" stroke="midnightblue" points="414.991,-147.452 416.781,-137.009 408.87,-144.057 414.991,-147.452"/>
</g>
<!-- Node20 -->
<g id="node21" class="node"><title>Node20</title>
<polygon fill="white" stroke="#bfbfbf" points="243,-118 243,-137 288,-137 288,-118 243,-118"/>
<text text-anchor="middle" x="265.5" y="-125" font-family="Helvetica,sans-Serif" font-size="10.00">iosfwd</text>
</g>
<!-- Node19&#45;&gt;Node20 -->
<g id="edge23" class="edge"><title>Node19&#45;&gt;Node20</title>
<path fill="none" stroke="midnightblue" d="M370.877,-179.475C350.326,-169.534 316.136,-152.995 292.293,-141.461"/>
<polygon fill="midnightblue" stroke="midnightblue" points="293.616,-138.213 283.09,-137.009 290.568,-144.515 293.616,-138.213"/>
</g>
<!-- Node21&#45;&gt;Node14 -->
<g id="edge27" class="edge"><title>Node21&#45;&gt;Node14</title>
<path fill="none" stroke="midnightblue" d="M205.719,-179.369C195.106,-171.36 180.769,-158.379 174.5,-143 169.299,-130.242 170.407,-125.156 174.5,-112 177.729,-101.622 184.276,-91.5209 190.525,-83.5268"/>
<polygon fill="midnightblue" stroke="midnightblue" points="193.285,-85.6818 197.017,-75.7661 187.916,-81.1902 193.285,-85.6818"/>
</g>
<!-- Node21&#45;&gt;Node20 -->
<g id="edge26" class="edge"><title>Node21&#45;&gt;Node20</title>
<path fill="none" stroke="midnightblue" d="M225.234,-179.475C232.284,-170.55 243.535,-156.307 252.354,-145.143"/>
<polygon fill="midnightblue" stroke="midnightblue" points="255.326,-147.026 258.779,-137.009 249.833,-142.687 255.326,-147.026"/>
</g>
<!-- Node22 -->
<g id="node23" class="node"><title>Node22</title>
<polygon fill="white" stroke="#bfbfbf" points="184,-118 184,-137 225,-137 225,-118 184,-118"/>
<text text-anchor="middle" x="204.5" y="-125" font-family="Helvetica,sans-Serif" font-size="10.00">string</text>
</g>
<!-- Node21&#45;&gt;Node22 -->
<g id="edge28" class="edge"><title>Node21&#45;&gt;Node22</title>
<path fill="none" stroke="midnightblue" d="M216.494,-179.475C214.498,-170.992 211.372,-157.704 208.811,-146.822"/>
<polygon fill="midnightblue" stroke="midnightblue" points="212.2,-145.942 206.502,-137.009 205.386,-147.545 212.2,-145.942"/>
</g>
<!-- Node23&#45;&gt;Node12 -->
<g id="edge33" class="edge"><title>Node23&#45;&gt;Node12</title>
<path fill="none" stroke="midnightblue" d="M634.707,-179.363C647.341,-171.167 665.738,-157.911 678.5,-143 693.617,-125.337 705.763,-101.374 713.031,-85.1118"/>
<polygon fill="midnightblue" stroke="midnightblue" points="716.351,-86.25 717.085,-75.6806 709.92,-83.4856 716.351,-86.25"/>
</g>
<!-- Node23&#45;&gt;Node13 -->
<g id="edge34" class="edge"><title>Node23&#45;&gt;Node13</title>
<path fill="none" stroke="midnightblue" d="M591.988,-179.475C557.262,-169.092 498.463,-151.512 459.808,-139.954"/>
<polygon fill="midnightblue" stroke="midnightblue" points="460.543,-136.52 449.959,-137.009 458.537,-143.227 460.543,-136.52"/>
</g>
<!-- Node23&#45;&gt;Node16 -->
<g id="edge32" class="edge"><title>Node23&#45;&gt;Node16</title>
<path fill="none" stroke="midnightblue" d="M677.435,-182.774C797.728,-171.672 1067.07,-146.462 1070.5,-143 1085.12,-128.263 1084.47,-103.097 1081.76,-85.7875"/>
<polygon fill="midnightblue" stroke="midnightblue" points="1085.15,-84.8933 1079.82,-75.7361 1078.28,-86.2177 1085.15,-84.8933"/>
</g>
<!-- Node24 -->
<g id="node25" class="node"><title>Node24</title>
<polygon fill="white" stroke="#bfbfbf" points="903,-0.5 903,-19.5 1000,-19.5 1000,-0.5 903,-0.5"/>
<text text-anchor="middle" x="951.5" y="-7.5" font-family="Helvetica,sans-Serif" font-size="10.00">eigen3/Eigen/Core</text>
</g>
<!-- Node23&#45;&gt;Node24 -->
<g id="edge30" class="edge"><title>Node23&#45;&gt;Node24</title>
<path fill="none" stroke="midnightblue" d="M625.204,-179.427C630.12,-170.413 638.006,-155.789 644.5,-143 663.94,-104.716 652.18,-81.8005 686.5,-56 718.21,-32.1619 824.689,-20.1387 892.635,-14.7515"/>
<polygon fill="midnightblue" stroke="midnightblue" points="893.076,-18.2281 902.779,-13.9736 892.541,-11.2486 893.076,-18.2281"/>
</g>
<!-- Node25 -->
<g id="node26" class="node"><title>Node25</title>
<polygon fill="white" stroke="#bfbfbf" points="517,-118 517,-137 636,-137 636,-118 517,-118"/>
<text text-anchor="middle" x="576.5" y="-125" font-family="Helvetica,sans-Serif" font-size="10.00">eigen3/Eigen/StdVector</text>
</g>
<!-- Node23&#45;&gt;Node25 -->
<g id="edge31" class="edge"><title>Node23&#45;&gt;Node25</title>
<path fill="none" stroke="midnightblue" d="M614.196,-179.475C607.596,-170.55 597.063,-156.307 588.807,-145.143"/>
<polygon fill="midnightblue" stroke="midnightblue" points="591.552,-142.968 582.792,-137.009 585.924,-147.131 591.552,-142.968"/>
</g>
<!-- Node26&#45;&gt;Node5 -->
<g id="edge40" class="edge"><title>Node26&#45;&gt;Node5</title>
<path fill="none" stroke="midnightblue" d="M1186.1,-186.561C1271.6,-183.441 1436.73,-173.636 1573.5,-143 1576.92,-142.234 1580.45,-141.27 1583.93,-140.203"/>
<polygon fill="midnightblue" stroke="midnightblue" points="1585.12,-143.494 1593.5,-137.01 1582.91,-136.854 1585.12,-143.494"/>
</g>
<!-- Node26&#45;&gt;Node11 -->
<g id="edge54" class="edge"><title>Node26&#45;&gt;Node11</title>
<path fill="none" stroke="midnightblue" d="M1070.96,-181.574C1023.29,-174.924 960.941,-162.698 945.5,-143 932.773,-126.765 937.767,-102.128 943.622,-85.337"/>
<polygon fill="midnightblue" stroke="midnightblue" points="947.045,-86.1918 947.416,-75.6034 940.523,-83.6496 947.045,-86.1918"/>
</g>
<!-- Node26&#45;&gt;Node12 -->
<g id="edge42" class="edge"><title>Node26&#45;&gt;Node12</title>
<path fill="none" stroke="midnightblue" d="M1070.94,-185.136C1018.06,-180.826 938.436,-170.031 874.5,-143 852.8,-133.826 852.12,-123.396 831.5,-112 806.768,-98.3314 777.016,-86.4942 754.542,-78.3956"/>
<polygon fill="midnightblue" stroke="midnightblue" points="755.678,-75.0848 745.083,-75.052 753.345,-81.6847 755.678,-75.0848"/>
</g>
<!-- Node26&#45;&gt;Node14 -->
<g id="edge37" class="edge"><title>Node26&#45;&gt;Node14</title>
<path fill="none" stroke="midnightblue" d="M1070.91,-185.776C906.154,-179.246 440.465,-159.542 373.5,-143 345.065,-135.976 271.44,-100.161 231.76,-80.3041"/>
<polygon fill="midnightblue" stroke="midnightblue" points="232.958,-76.9891 222.451,-75.6269 229.815,-83.244 232.958,-76.9891"/>
</g>
<!-- Node26&#45;&gt;Node16 -->
<g id="edge38" class="edge"><title>Node26&#45;&gt;Node16</title>
<path fill="none" stroke="midnightblue" d="M1126.47,-179.324C1122.95,-164.953 1115.07,-135.466 1104.5,-112 1100.2,-102.447 1094.31,-92.3955 1089.13,-84.2216"/>
<polygon fill="midnightblue" stroke="midnightblue" points="1091.92,-82.0856 1083.52,-75.6309 1086.06,-85.9161 1091.92,-82.0856"/>
</g>
<!-- Node26&#45;&gt;Node24 -->
<g id="edge43" class="edge"><title>Node26&#45;&gt;Node24</title>
<path fill="none" stroke="midnightblue" d="M1070.76,-180.577C1021.25,-173.161 954.793,-160.366 934.5,-143 903.74,-116.677 892.217,-93.4906 907.5,-56 912.3,-44.2251 921.829,-33.8564 930.795,-26.0486"/>
<polygon fill="midnightblue" stroke="midnightblue" points="933.15,-28.6448 938.719,-19.6314 928.745,-23.2048 933.15,-28.6448"/>
</g>
<!-- Node27 -->
<g id="node28" class="node"><title>Node27</title>
<polygon fill="white" stroke="#bfbfbf" points="1156.5,-118 1156.5,-137 1206.5,-137 1206.5,-118 1156.5,-118"/>
<text text-anchor="middle" x="1181.5" y="-125" font-family="Helvetica,sans-Serif" font-size="10.00">fstream</text>
</g>
<!-- Node26&#45;&gt;Node27 -->
<g id="edge39" class="edge"><title>Node26&#45;&gt;Node27</title>
<path fill="none" stroke="midnightblue" d="M1136.09,-179.475C1144.2,-170.373 1157.23,-155.741 1167.26,-144.483"/>
<polygon fill="midnightblue" stroke="midnightblue" points="1169.88,-146.804 1173.92,-137.009 1164.66,-142.148 1169.88,-146.804"/>
</g>
<!-- Node28 -->
<g id="node29" class="node"><title>Node28</title>
<polygon fill="white" stroke="#bfbfbf" points="1224.5,-118 1224.5,-137 1274.5,-137 1274.5,-118 1224.5,-118"/>
<text text-anchor="middle" x="1249.5" y="-125" font-family="Helvetica,sans-Serif" font-size="10.00">iomanip</text>
</g>
<!-- Node26&#45;&gt;Node28 -->
<g id="edge41" class="edge"><title>Node26&#45;&gt;Node28</title>
<path fill="none" stroke="midnightblue" d="M1145.84,-179.475C1166.05,-169.534 1199.69,-152.995 1223.14,-141.461"/>
<polygon fill="midnightblue" stroke="midnightblue" points="1224.77,-144.563 1232.2,-137.009 1221.68,-138.281 1224.77,-144.563"/>
</g>
<!-- Node29 -->
<g id="node30" class="node"><title>Node29</title>
<g id="a_node30"><a xlink:href="sparse__block__matrix__ccs_8h.html" target="_top" xlink:title="sparse_block_matrix\l_ccs.h">
<polygon fill="white" stroke="black" points="955,-112.5 955,-142.5 1062,-142.5 1062,-112.5 955,-112.5"/>
<text text-anchor="start" x="963" y="-130.5" font-family="Helvetica,sans-Serif" font-size="10.00">sparse_block_matrix</text>
<text text-anchor="middle" x="1008.5" y="-119.5" font-family="Helvetica,sans-Serif" font-size="10.00">_ccs.h</text>
</a>
</g>
</g>
<!-- Node26&#45;&gt;Node29 -->
<g id="edge44" class="edge"><title>Node26&#45;&gt;Node29</title>
<path fill="none" stroke="midnightblue" d="M1111.31,-179.475C1094.3,-171.04 1067.7,-157.855 1045.83,-147.008"/>
<polygon fill="midnightblue" stroke="midnightblue" points="1047.3,-143.83 1036.78,-142.523 1044.19,-150.101 1047.3,-143.83"/>
</g>
<!-- Node30 -->
<g id="node31" class="node"><title>Node30</title>
<g id="a_node31"><a xlink:href="matrix__operations_8h.html" target="_top" xlink:title="matrix_operations.h">
<polygon fill="white" stroke="black" points="1117.5,-56.5 1117.5,-75.5 1219.5,-75.5 1219.5,-56.5 1117.5,-56.5"/>
<text text-anchor="middle" x="1168.5" y="-63.5" font-family="Helvetica,sans-Serif" font-size="10.00">matrix_operations.h</text>
</a>
</g>
</g>
<!-- Node26&#45;&gt;Node30 -->
<g id="edge53" class="edge"><title>Node26&#45;&gt;Node30</title>
<path fill="none" stroke="midnightblue" d="M1186.03,-185.897C1293.77,-181.363 1517.26,-168.914 1540.5,-143 1549.7,-132.742 1549.64,-122.311 1540.5,-112 1520.27,-89.1722 1330,-75.639 1229.71,-70.0345"/>
<polygon fill="midnightblue" stroke="midnightblue" points="1229.88,-66.5388 1219.71,-69.4851 1229.5,-73.5283 1229.88,-66.5388"/>
</g>
<!-- Node31 -->
<g id="node32" class="node"><title>Node31</title>
<g id="a_node32"><a xlink:href="matrix__structure_8h.html" target="_top" xlink:title="matrix_structure.h">
<polygon fill="white" stroke="black" points="1293,-118 1293,-137 1388,-137 1388,-118 1293,-118"/>
<text text-anchor="middle" x="1340.5" y="-125" font-family="Helvetica,sans-Serif" font-size="10.00">matrix_structure.h</text>
</a>
</g>
</g>
<!-- Node26&#45;&gt;Node31 -->
<g id="edge52" class="edge"><title>Node26&#45;&gt;Node31</title>
<path fill="none" stroke="midnightblue" d="M1158.87,-179.475C1196.11,-169.026 1259.31,-151.287 1300.48,-139.733"/>
<polygon fill="midnightblue" stroke="midnightblue" points="1301.5,-143.081 1310.18,-137.009 1299.61,-136.342 1301.5,-143.081"/>
</g>
<!-- Node32 -->
<g id="node33" class="node"><title>Node32</title>
<g id="a_node33"><a xlink:href="sparse__block__matrix_8hpp.html" target="_top" xlink:title="sparse_block_matrix.hpp">
<polygon fill="white" stroke="black" points="1406,-118 1406,-137 1531,-137 1531,-118 1406,-118"/>
<text text-anchor="middle" x="1468.5" y="-125" font-family="Helvetica,sans-Serif" font-size="10.00">sparse_block_matrix.hpp</text>
</a>
</g>
</g>
<!-- Node26&#45;&gt;Node32 -->
<g id="edge55" class="edge"><title>Node26&#45;&gt;Node32</title>
<path fill="none" stroke="midnightblue" d="M1182.96,-179.475C1237.37,-170.82 1323.36,-156.767 1397.5,-143 1404.15,-141.765 1411.14,-140.41 1418.02,-139.039"/>
<polygon fill="midnightblue" stroke="midnightblue" points="1418.89,-142.436 1428,-137.031 1417.5,-135.574 1418.89,-142.436"/>
</g>
<!-- Node29&#45;&gt;Node11 -->
<g id="edge48" class="edge"><title>Node29&#45;&gt;Node11</title>
<path fill="none" stroke="midnightblue" d="M994.992,-112.399C986.538,-103.575 975.625,-92.1827 966.845,-83.0178"/>
<polygon fill="midnightblue" stroke="midnightblue" points="969.239,-80.4577 959.794,-75.6578 964.184,-85.3002 969.239,-80.4577"/>
</g>
<!-- Node29&#45;&gt;Node12 -->
<g id="edge46" class="edge"><title>Node29&#45;&gt;Node12</title>
<path fill="none" stroke="midnightblue" d="M954.535,-116.959C904.982,-107.939 829.322,-93.5198 755.279,-76.306"/>
<polygon fill="midnightblue" stroke="midnightblue" points="755.853,-72.8458 745.318,-73.9707 754.255,-79.661 755.853,-72.8458"/>
</g>
<!-- Node29&#45;&gt;Node16 -->
<g id="edge45" class="edge"><title>Node29&#45;&gt;Node16</title>
<path fill="none" stroke="midnightblue" d="M1024.85,-112.399C1035.4,-103.308 1049.1,-91.4899 1059.88,-82.1909"/>
<polygon fill="midnightblue" stroke="midnightblue" points="1062.17,-84.8389 1067.46,-75.6578 1057.6,-79.5377 1062.17,-84.8389"/>
</g>
<!-- Node29&#45;&gt;Node18 -->
<g id="edge51" class="edge"><title>Node29&#45;&gt;Node18</title>
<path fill="none" stroke="midnightblue" d="M961.814,-112.399C927.625,-102.073 881.794,-88.2309 849.761,-78.5559"/>
<polygon fill="midnightblue" stroke="midnightblue" points="850.463,-75.1118 839.878,-75.5709 848.439,-81.8128 850.463,-75.1118"/>
</g>
<!-- Node29&#45;&gt;Node24 -->
<g id="edge47" class="edge"><title>Node29&#45;&gt;Node24</title>
<path fill="none" stroke="midnightblue" d="M1008.01,-112.493C1006.99,-97.6942 1003.88,-74.0476 994.5,-56 988.684,-44.8106 979.234,-34.4712 970.673,-26.5322"/>
<polygon fill="midnightblue" stroke="midnightblue" points="972.712,-23.6651 962.884,-19.7067 968.098,-28.9297 972.712,-23.6651"/>
</g>
<!-- Node29&#45;&gt;Node30 -->
<g id="edge49" class="edge"><title>Node29&#45;&gt;Node30</title>
<path fill="none" stroke="midnightblue" d="M1046.42,-112.399C1073.62,-102.283 1109.9,-88.7905 1135.83,-79.1493"/>
<polygon fill="midnightblue" stroke="midnightblue" points="1137.07,-82.4239 1145.22,-75.6578 1134.63,-75.8629 1137.07,-82.4239"/>
</g>
<!-- Node30&#45;&gt;Node24 -->
<g id="edge50" class="edge"><title>Node30&#45;&gt;Node24</title>
<path fill="none" stroke="midnightblue" d="M1134.12,-56.4435C1096.58,-47.1024 1036.37,-32.1194 995.433,-21.9326"/>
<polygon fill="midnightblue" stroke="midnightblue" points="996.273,-18.5349 985.723,-19.5164 994.582,-25.3278 996.273,-18.5349"/>
</g>
<!-- Node33&#45;&gt;Node5 -->
<g id="edge57" class="edge"><title>Node33&#45;&gt;Node5</title>
<path fill="none" stroke="midnightblue" d="M1614.5,-179.475C1614.5,-171.08 1614.5,-157.981 1614.5,-147.163"/>
<polygon fill="midnightblue" stroke="midnightblue" points="1618,-147.009 1614.5,-137.009 1611,-147.009 1618,-147.009"/>
</g>
<!-- Node33&#45;&gt;Node16 -->
<g id="edge58" class="edge"><title>Node33&#45;&gt;Node16</title>
<path fill="none" stroke="midnightblue" d="M1624.22,-179.489C1640.44,-164.308 1669.45,-132.255 1650.5,-112 1610.91,-69.6956 1202.64,-85.0904 1109.65,-75.4202"/>
<polygon fill="midnightblue" stroke="midnightblue" points="1110.09,-71.9479 1099.72,-74.0733 1109.15,-78.8845 1110.09,-71.9479"/>
</g>
</g>
</svg>
