<?xml version="1.0" encoding="UTF-8" standalone="no"?>
<!DOCTYPE svg PUBLIC "-//W3C//DTD SVG 1.1//EN"
 "http://www.w3.org/Graphics/SVG/1.1/DTD/svg11.dtd">
<!-- Generated by graphviz version 2.38.0 (20140413.2041)
 -->
<!-- Title: /home/alejandro/Desarrollo eclipse/os1/Thirdparty/g2o/g2o/stuff/string_tools.h Pages: 1 -->
<svg width="321pt" height="162pt"
 viewBox="0.00 0.00 321.00 162.00" xmlns="http://www.w3.org/2000/svg" xmlns:xlink="http://www.w3.org/1999/xlink">
<g id="graph0" class="graph" transform="scale(1 1) rotate(0) translate(4 158)">
<title>/home/alejandro/Desarrollo eclipse/os1/Thirdparty/g2o/g2o/stuff/string_tools.h</title>
<polygon fill="white" stroke="none" points="-4,4 -4,-158 317,-158 317,4 -4,4"/>
<!-- Node0 -->
<g id="node1" class="node"><title>Node0</title>
<polygon fill="#bfbfbf" stroke="black" points="83.5,-112.5 83.5,-153.5 221.5,-153.5 221.5,-112.5 83.5,-112.5"/>
<text text-anchor="start" x="91.5" y="-141.5" font-family="Helvetica,sans-Serif" font-size="10.00">/home/alejandro/Desarrollo</text>
<text text-anchor="start" x="91.5" y="-130.5" font-family="Helvetica,sans-Serif" font-size="10.00"> eclipse/os1/Thirdparty</text>
<text text-anchor="middle" x="152.5" y="-119.5" font-family="Helvetica,sans-Serif" font-size="10.00">/g2o/g2o/stuff/string_tools.h</text>
</g>
<!-- Node1 -->
<g id="node2" class="node"><title>Node1</title>
<polygon fill="white" stroke="#bfbfbf" points="0,-56.5 0,-75.5 41,-75.5 41,-56.5 0,-56.5"/>
<text text-anchor="middle" x="20.5" y="-63.5" font-family="Helvetica,sans-Serif" font-size="10.00">string</text>
</g>
<!-- Node0&#45;&gt;Node1 -->
<g id="edge1" class="edge"><title>Node0&#45;&gt;Node1</title>
<path fill="none" stroke="midnightblue" d="M112.896,-112.498C91.6846,-102.053 66.1187,-89.4638 47.2619,-80.1782"/>
<polygon fill="midnightblue" stroke="midnightblue" points="48.5887,-76.9303 38.0712,-75.6525 45.4963,-83.2102 48.5887,-76.9303"/>
</g>
<!-- Node2 -->
<g id="node3" class="node"><title>Node2</title>
<polygon fill="white" stroke="#bfbfbf" points="59.5,-56.5 59.5,-75.5 111.5,-75.5 111.5,-56.5 59.5,-56.5"/>
<text text-anchor="middle" x="85.5" y="-63.5" font-family="Helvetica,sans-Serif" font-size="10.00">sstream</text>
</g>
<!-- Node0&#45;&gt;Node2 -->
<g id="edge2" class="edge"><title>Node0&#45;&gt;Node2</title>
<path fill="none" stroke="midnightblue" d="M132.398,-112.498C122.619,-103.011 111.017,-91.7557 101.8,-82.8131"/>
<polygon fill="midnightblue" stroke="midnightblue" points="104.033,-80.1036 94.4187,-75.6525 99.159,-85.1277 104.033,-80.1036"/>
</g>
<!-- Node3 -->
<g id="node4" class="node"><title>Node3</title>
<polygon fill="white" stroke="#bfbfbf" points="130,-56.5 130,-75.5 175,-75.5 175,-56.5 130,-56.5"/>
<text text-anchor="middle" x="152.5" y="-63.5" font-family="Helvetica,sans-Serif" font-size="10.00">cstdlib</text>
</g>
<!-- Node0&#45;&gt;Node3 -->
<g id="edge3" class="edge"><title>Node0&#45;&gt;Node3</title>
<path fill="none" stroke="midnightblue" d="M152.5,-112.498C152.5,-104.065 152.5,-94.2351 152.5,-85.874"/>
<polygon fill="midnightblue" stroke="midnightblue" points="156,-85.6525 152.5,-75.6525 149,-85.6525 156,-85.6525"/>
</g>
<!-- Node4 -->
<g id="node5" class="node"><title>Node4</title>
<polygon fill="white" stroke="#bfbfbf" points="193.5,-56.5 193.5,-75.5 237.5,-75.5 237.5,-56.5 193.5,-56.5"/>
<text text-anchor="middle" x="215.5" y="-63.5" font-family="Helvetica,sans-Serif" font-size="10.00">vector</text>
</g>
<!-- Node0&#45;&gt;Node4 -->
<g id="edge4" class="edge"><title>Node0&#45;&gt;Node4</title>
<path fill="none" stroke="midnightblue" d="M171.402,-112.498C180.504,-103.107 191.286,-91.9829 199.91,-83.0848"/>
<polygon fill="midnightblue" stroke="midnightblue" points="202.667,-85.2691 207.114,-75.6525 197.641,-80.3973 202.667,-85.2691"/>
</g>
<!-- Node5 -->
<g id="node6" class="node"><title>Node5</title>
<g id="a_node6"><a xlink:href="macros_8h.html" target="_top" xlink:title="macros.h">
<polygon fill="white" stroke="black" points="256,-56.5 256,-75.5 313,-75.5 313,-56.5 256,-56.5"/>
<text text-anchor="middle" x="284.5" y="-63.5" font-family="Helvetica,sans-Serif" font-size="10.00">macros.h</text>
</a>
</g>
</g>
<!-- Node0&#45;&gt;Node5 -->
<g id="edge5" class="edge"><title>Node0&#45;&gt;Node5</title>
<path fill="none" stroke="midnightblue" d="M192.104,-112.498C213.315,-102.053 238.881,-89.4638 257.738,-80.1782"/>
<polygon fill="midnightblue" stroke="midnightblue" points="259.504,-83.2102 266.929,-75.6525 256.411,-76.9303 259.504,-83.2102"/>
</g>
<!-- Node6 -->
<g id="node7" class="node"><title>Node6</title>
<polygon fill="white" stroke="#bfbfbf" points="261,-0.5 261,-19.5 308,-19.5 308,-0.5 261,-0.5"/>
<text text-anchor="middle" x="284.5" y="-7.5" font-family="Helvetica,sans-Serif" font-size="10.00">math.h</text>
</g>
<!-- Node5&#45;&gt;Node6 -->
<g id="edge6" class="edge"><title>Node5&#45;&gt;Node6</title>
<path fill="none" stroke="midnightblue" d="M284.5,-56.083C284.5,-49.0059 284.5,-38.8611 284.5,-29.9865"/>
<polygon fill="midnightblue" stroke="midnightblue" points="288,-29.751 284.5,-19.7511 281,-29.7511 288,-29.751"/>
</g>
</g>
</svg>
