<?xml version="1.0" encoding="UTF-8" standalone="no"?>
<!DOCTYPE svg PUBLIC "-//W3C//DTD SVG 1.1//EN"
 "http://www.w3.org/Graphics/SVG/1.1/DTD/svg11.dtd">
<!-- Generated by graphviz version 2.38.0 (20140413.2041)
 -->
<!-- Title: g2o::HyperDijkstra::AdjacencyMapEntry Pages: 1 -->
<svg width="270pt" height="185pt"
 viewBox="0.00 0.00 270.00 185.00" xmlns="http://www.w3.org/2000/svg" xmlns:xlink="http://www.w3.org/1999/xlink">
<g id="graph0" class="graph" transform="scale(1 1) rotate(0) translate(4 181)">
<title>g2o::HyperDijkstra::AdjacencyMapEntry</title>
<polygon fill="white" stroke="none" points="-4,4 -4,-181 266,-181 266,4 -4,4"/>
<!-- Node1 -->
<g id="node1" class="node"><title>Node1</title>
<polygon fill="#bfbfbf" stroke="black" points="56.5,-0.5 56.5,-30.5 166.5,-30.5 166.5,-0.5 56.5,-0.5"/>
<text text-anchor="start" x="64.5" y="-18.5" font-family="Helvetica,sans-Serif" font-size="10.00">g2o::HyperDijkstra</text>
<text text-anchor="middle" x="111.5" y="-7.5" font-family="Helvetica,sans-Serif" font-size="10.00">::AdjacencyMapEntry</text>
</g>
<!-- Node2 -->
<g id="node2" class="node"><title>Node2</title>
<g id="a_node2"><a xlink:href="classg2o_1_1_hyper_graph_1_1_vertex.html" target="_top" xlink:title="abstract Vertex, your types must derive from that one ">
<polygon fill="white" stroke="black" points="0,-89.5 0,-108.5 125,-108.5 125,-89.5 0,-89.5"/>
<text text-anchor="middle" x="62.5" y="-96.5" font-family="Helvetica,sans-Serif" font-size="10.00">g2o::HyperGraph::Vertex</text>
</a>
</g>
</g>
<!-- Node2&#45;&gt;Node1 -->
<g id="edge1" class="edge"><title>Node2&#45;&gt;Node1</title>
<path fill="none" stroke="#9a32cd" stroke-dasharray="5,2" d="M73.0082,-80.5221C81.9732,-65.611 94.698,-44.4462 103.024,-30.5974"/>
<polygon fill="#9a32cd" stroke="#9a32cd" points="69.897,-78.9043 67.7439,-89.2781 75.8962,-82.5112 69.897,-78.9043"/>
<text text-anchor="middle" x="109.5" y="-63" font-family="Helvetica,sans-Serif" font-size="10.00"> _parent</text>
<text text-anchor="middle" x="109.5" y="-52" font-family="Helvetica,sans-Serif" font-size="10.00">_child</text>
</g>
<!-- Node3 -->
<g id="node3" class="node"><title>Node3</title>
<g id="a_node3"><a xlink:href="structg2o_1_1_hyper_graph_1_1_hyper_graph_element.html" target="_top" xlink:title="base hyper graph element, specialized in vertex and edge ">
<polygon fill="white" stroke="black" points="72,-146.5 72,-176.5 221,-176.5 221,-146.5 72,-146.5"/>
<text text-anchor="start" x="80" y="-164.5" font-family="Helvetica,sans-Serif" font-size="10.00">g2o::HyperGraph::HyperGraph</text>
<text text-anchor="middle" x="146.5" y="-153.5" font-family="Helvetica,sans-Serif" font-size="10.00">Element</text>
</a>
</g>
</g>
<!-- Node3&#45;&gt;Node2 -->
<g id="edge2" class="edge"><title>Node3&#45;&gt;Node2</title>
<path fill="none" stroke="midnightblue" d="M118.553,-140.371C103.529,-129.55 85.7923,-116.776 74.357,-108.54"/>
<polygon fill="midnightblue" stroke="midnightblue" points="116.858,-143.464 127.018,-146.468 120.949,-137.784 116.858,-143.464"/>
</g>
<!-- Node4 -->
<g id="node4" class="node"><title>Node4</title>
<g id="a_node4"><a xlink:href="classg2o_1_1_hyper_graph_1_1_edge.html" target="_top" xlink:title="Abstract Edge class. ">
<polygon fill="white" stroke="black" points="143,-89.5 143,-108.5 262,-108.5 262,-89.5 143,-89.5"/>
<text text-anchor="middle" x="202.5" y="-96.5" font-family="Helvetica,sans-Serif" font-size="10.00">g2o::HyperGraph::Edge</text>
</a>
</g>
</g>
<!-- Node3&#45;&gt;Node4 -->
<g id="edge4" class="edge"><title>Node3&#45;&gt;Node4</title>
<path fill="none" stroke="midnightblue" d="M166.547,-138.842C176.244,-128.366 187.328,-116.391 194.595,-108.54"/>
<polygon fill="midnightblue" stroke="midnightblue" points="163.713,-136.752 159.488,-146.468 168.85,-141.507 163.713,-136.752"/>
</g>
<!-- Node4&#45;&gt;Node1 -->
<g id="edge3" class="edge"><title>Node4&#45;&gt;Node1</title>
<path fill="none" stroke="#9a32cd" stroke-dasharray="5,2" d="M184.856,-82.1983C168.148,-67.2341 143.293,-44.9738 127.241,-30.5974"/>
<polygon fill="#9a32cd" stroke="#9a32cd" points="182.977,-85.2137 192.761,-89.2781 187.647,-79.9993 182.977,-85.2137"/>
<text text-anchor="middle" x="184.5" y="-57.5" font-family="Helvetica,sans-Serif" font-size="10.00"> _edge</text>
</g>
</g>
</svg>
