<?xml version="1.0" encoding="UTF-8" standalone="no"?>
<!DOCTYPE svg PUBLIC "-//W3C//DTD SVG 1.1//EN"
 "http://www.w3.org/Graphics/SVG/1.1/DTD/svg11.dtd">
<!-- Generated by graphviz version 2.38.0 (20140413.2041)
 -->
<!-- Title: g2o::OptimizableGraph Pages: 1 -->
<svg width="394pt" height="152pt"
 viewBox="0.00 0.00 393.50 152.00" xmlns="http://www.w3.org/2000/svg" xmlns:xlink="http://www.w3.org/1999/xlink">
<g id="graph0" class="graph" transform="scale(1 1) rotate(0) translate(4 148)">
<title>g2o::OptimizableGraph</title>
<polygon fill="white" stroke="none" points="-4,4 -4,-148 389.5,-148 389.5,4 -4,4"/>
<!-- Node3 -->
<g id="node1" class="node"><title>Node3</title>
<polygon fill="#bfbfbf" stroke="black" points="114.5,-0.5 114.5,-19.5 230.5,-19.5 230.5,-0.5 114.5,-0.5"/>
<text text-anchor="middle" x="172.5" y="-7.5" font-family="Helvetica,sans-Serif" font-size="10.00">g2o::OptimizableGraph</text>
</g>
<!-- Node4 -->
<g id="node2" class="node"><title>Node4</title>
<g id="a_node2"><a xlink:href="classg2o_1_1_hyper_graph.html" target="_top" xlink:title="Class that models a directed Hyper&#45;Graph. ">
<polygon fill="white" stroke="black" points="0,-67.5 0,-86.5 91,-86.5 91,-67.5 0,-67.5"/>
<text text-anchor="middle" x="45.5" y="-74.5" font-family="Helvetica,sans-Serif" font-size="10.00">g2o::HyperGraph</text>
</a>
</g>
</g>
<!-- Node4&#45;&gt;Node3 -->
<g id="edge1" class="edge"><title>Node4&#45;&gt;Node3</title>
<path fill="none" stroke="midnightblue" d="M71.3418,-62.7739C96.4957,-49.8999 133.992,-30.7086 155.566,-19.6672"/>
<polygon fill="midnightblue" stroke="midnightblue" points="69.6718,-59.6968 62.3646,-67.3685 72.8611,-65.928 69.6718,-59.6968"/>
</g>
<!-- Node5 -->
<g id="node3" class="node"><title>Node5</title>
<g id="a_node3"><a xlink:href="classg2o_1_1_jacobian_workspace.html" target="_top" xlink:title="provide memory workspace for computing the Jacobians ">
<polygon fill="white" stroke="black" points="109,-67.5 109,-86.5 236,-86.5 236,-67.5 109,-67.5"/>
<text text-anchor="middle" x="172.5" y="-74.5" font-family="Helvetica,sans-Serif" font-size="10.00">g2o::JacobianWorkspace</text>
</a>
</g>
</g>
<!-- Node5&#45;&gt;Node3 -->
<g id="edge2" class="edge"><title>Node5&#45;&gt;Node3</title>
<path fill="none" stroke="#9a32cd" stroke-dasharray="5,2" d="M172.5,-57.037C172.5,-44.6703 172.5,-29.1198 172.5,-19.6273"/>
<polygon fill="#9a32cd" stroke="#9a32cd" points="169,-57.2338 172.5,-67.2338 176,-57.2338 169,-57.2338"/>
<text text-anchor="middle" x="219.5" y="-41" font-family="Helvetica,sans-Serif" font-size="10.00"> _jacobianWorkspace</text>
</g>
<!-- Node6 -->
<g id="node4" class="node"><title>Node6</title>
<g id="a_node4"><a xlink:href="classg2o_1_1_parameter_container.html" target="_top" xlink:title="map id to parameters ">
<polygon fill="white" stroke="black" points="254,-67.5 254,-86.5 379,-86.5 379,-67.5 254,-67.5"/>
<text text-anchor="middle" x="316.5" y="-74.5" font-family="Helvetica,sans-Serif" font-size="10.00">g2o::ParameterContainer</text>
</a>
</g>
</g>
<!-- Node6&#45;&gt;Node3 -->
<g id="edge3" class="edge"><title>Node6&#45;&gt;Node3</title>
<path fill="none" stroke="#9a32cd" stroke-dasharray="5,2" d="M300.683,-60.0778C292.324,-52.4443 281.528,-43.7362 270.5,-38 254.53,-29.6933 235.729,-23.7197 218.887,-19.5387"/>
<polygon fill="#9a32cd" stroke="#9a32cd" points="298.498,-62.8302 308.148,-67.2031 303.331,-57.7667 298.498,-62.8302"/>
<text text-anchor="middle" x="315.5" y="-41" font-family="Helvetica,sans-Serif" font-size="10.00"> _parameters</text>
</g>
<!-- Node7 -->
<g id="node5" class="node"><title>Node7</title>
<polygon fill="white" stroke="#bfbfbf" points="247.5,-124.5 247.5,-143.5 385.5,-143.5 385.5,-124.5 247.5,-124.5"/>
<text text-anchor="middle" x="316.5" y="-131.5" font-family="Helvetica,sans-Serif" font-size="10.00">std::map&lt; int, Parameter *&gt;</text>
</g>
<!-- Node7&#45;&gt;Node6 -->
<g id="edge4" class="edge"><title>Node7&#45;&gt;Node6</title>
<path fill="none" stroke="darkgreen" d="M316.5,-114.117C316.5,-104.817 316.5,-94.0557 316.5,-86.7149"/>
<polygon fill="darkgreen" stroke="darkgreen" points="313,-114.406 316.5,-124.406 320,-114.406 313,-114.406"/>
</g>
</g>
</svg>
