<?xml version="1.0" encoding="UTF-8" standalone="no"?>
<!DOCTYPE svg PUBLIC "-//W3C//DTD SVG 1.1//EN"
 "http://www.w3.org/Graphics/SVG/1.1/DTD/svg11.dtd">
<!-- Generated by graphviz version 2.38.0 (20140413.2041)
 -->
<!-- Title: /home/alejandro/Desarrollo eclipse/os1/Thirdparty/g2o/g2o/stuff/timeutil.cpp Pages: 1 -->
<svg width="177pt" height="162pt"
 viewBox="0.00 0.00 176.50 162.00" xmlns="http://www.w3.org/2000/svg" xmlns:xlink="http://www.w3.org/1999/xlink">
<g id="graph0" class="graph" transform="scale(1 1) rotate(0) translate(4 158)">
<title>/home/alejandro/Desarrollo eclipse/os1/Thirdparty/g2o/g2o/stuff/timeutil.cpp</title>
<polygon fill="white" stroke="none" points="-4,4 -4,-158 172.5,-158 172.5,4 -4,4"/>
<!-- Node0 -->
<g id="node1" class="node"><title>Node0</title>
<polygon fill="#bfbfbf" stroke="black" points="35.5,-112.5 35.5,-153.5 168.5,-153.5 168.5,-112.5 35.5,-112.5"/>
<text text-anchor="start" x="43.5" y="-141.5" font-family="Helvetica,sans-Serif" font-size="10.00">/home/alejandro/Desarrollo</text>
<text text-anchor="start" x="43.5" y="-130.5" font-family="Helvetica,sans-Serif" font-size="10.00"> eclipse/os1/Thirdparty</text>
<text text-anchor="middle" x="102" y="-119.5" font-family="Helvetica,sans-Serif" font-size="10.00">/g2o/g2o/stuff/timeutil.cpp</text>
</g>
<!-- Node1 -->
<g id="node2" class="node"><title>Node1</title>
<g id="a_node2"><a xlink:href="timeutil_8h.html" target="_top" xlink:title="utility functions for handling time related stuff ">
<polygon fill="white" stroke="black" points="38,-56.5 38,-75.5 94,-75.5 94,-56.5 38,-56.5"/>
<text text-anchor="middle" x="66" y="-63.5" font-family="Helvetica,sans-Serif" font-size="10.00">timeutil.h</text>
</a>
</g>
</g>
<!-- Node0&#45;&gt;Node1 -->
<g id="edge1" class="edge"><title>Node0&#45;&gt;Node1</title>
<path fill="none" stroke="midnightblue" d="M91.1988,-112.498C86.2631,-103.586 80.4629,-93.1135 75.6721,-84.4636"/>
<polygon fill="midnightblue" stroke="midnightblue" points="78.699,-82.7046 70.7921,-75.6525 72.5754,-86.0962 78.699,-82.7046"/>
</g>
<!-- Node4 -->
<g id="node5" class="node"><title>Node4</title>
<polygon fill="white" stroke="#bfbfbf" points="112,-56.5 112,-75.5 166,-75.5 166,-56.5 112,-56.5"/>
<text text-anchor="middle" x="139" y="-63.5" font-family="Helvetica,sans-Serif" font-size="10.00">iostream</text>
</g>
<!-- Node0&#45;&gt;Node4 -->
<g id="edge4" class="edge"><title>Node0&#45;&gt;Node4</title>
<path fill="none" stroke="midnightblue" d="M113.101,-112.498C118.174,-103.586 124.135,-93.1135 129.059,-84.4636"/>
<polygon fill="midnightblue" stroke="midnightblue" points="132.169,-86.0746 134.075,-75.6525 126.086,-82.6117 132.169,-86.0746"/>
</g>
<!-- Node2 -->
<g id="node3" class="node"><title>Node2</title>
<polygon fill="white" stroke="#bfbfbf" points="0,-0.5 0,-19.5 62,-19.5 62,-0.5 0,-0.5"/>
<text text-anchor="middle" x="31" y="-7.5" font-family="Helvetica,sans-Serif" font-size="10.00">sys/time.h</text>
</g>
<!-- Node1&#45;&gt;Node2 -->
<g id="edge2" class="edge"><title>Node1&#45;&gt;Node2</title>
<path fill="none" stroke="midnightblue" d="M60.2205,-56.083C55.3276,-48.5341 48.1726,-37.4948 42.1674,-28.2298"/>
<polygon fill="midnightblue" stroke="midnightblue" points="45.048,-26.239 36.672,-19.7511 39.174,-30.0463 45.048,-26.239"/>
</g>
<!-- Node3 -->
<g id="node4" class="node"><title>Node3</title>
<polygon fill="white" stroke="#bfbfbf" points="80.5,-0.5 80.5,-19.5 121.5,-19.5 121.5,-0.5 80.5,-0.5"/>
<text text-anchor="middle" x="101" y="-7.5" font-family="Helvetica,sans-Serif" font-size="10.00">string</text>
</g>
<!-- Node1&#45;&gt;Node3 -->
<g id="edge3" class="edge"><title>Node1&#45;&gt;Node3</title>
<path fill="none" stroke="midnightblue" d="M71.7795,-56.083C76.6724,-48.5341 83.8274,-37.4948 89.8326,-28.2298"/>
<polygon fill="midnightblue" stroke="midnightblue" points="92.826,-30.0463 95.328,-19.7511 86.952,-26.239 92.826,-30.0463"/>
</g>
</g>
</svg>
