<?xml version="1.0" encoding="UTF-8" standalone="no"?>
<!DOCTYPE svg PUBLIC "-//W3C//DTD SVG 1.1//EN"
 "http://www.w3.org/Graphics/SVG/1.1/DTD/svg11.dtd">
<!-- Generated by graphviz version 2.38.0 (20140413.2041)
 -->
<!-- Title: /home/alejandro/Desarrollo eclipse/os1/Thirdparty/g2o/g2o/types/types_sba.cpp Pages: 1 -->
<svg width="1081pt" height="386pt"
 viewBox="0.00 0.00 1080.50 386.00" xmlns="http://www.w3.org/2000/svg" xmlns:xlink="http://www.w3.org/1999/xlink">
<g id="graph0" class="graph" transform="scale(1 1) rotate(0) translate(4 382)">
<title>/home/alejandro/Desarrollo eclipse/os1/Thirdparty/g2o/g2o/types/types_sba.cpp</title>
<polygon fill="white" stroke="none" points="-4,4 -4,-382 1076.5,-382 1076.5,4 -4,4"/>
<!-- Node0 -->
<g id="node1" class="node"><title>Node0</title>
<polygon fill="#bfbfbf" stroke="black" points="0,-336.5 0,-377.5 148,-377.5 148,-336.5 0,-336.5"/>
<text text-anchor="start" x="8" y="-365.5" font-family="Helvetica,sans-Serif" font-size="10.00">/home/alejandro/Desarrollo</text>
<text text-anchor="start" x="8" y="-354.5" font-family="Helvetica,sans-Serif" font-size="10.00"> eclipse/os1/Thirdparty</text>
<text text-anchor="middle" x="74" y="-343.5" font-family="Helvetica,sans-Serif" font-size="10.00">/g2o/g2o/types/types_sba.cpp</text>
</g>
<!-- Node1 -->
<g id="node2" class="node"><title>Node1</title>
<g id="a_node2"><a xlink:href="types__sba_8h.html" target="_top" xlink:title="types_sba.h">
<polygon fill="white" stroke="black" points="86,-280.5 86,-299.5 156,-299.5 156,-280.5 86,-280.5"/>
<text text-anchor="middle" x="121" y="-287.5" font-family="Helvetica,sans-Serif" font-size="10.00">types_sba.h</text>
</a>
</g>
</g>
<!-- Node0&#45;&gt;Node1 -->
<g id="edge1" class="edge"><title>Node0&#45;&gt;Node1</title>
<path fill="none" stroke="midnightblue" d="M88.1015,-336.498C94.6839,-327.395 102.444,-316.662 108.774,-307.908"/>
<polygon fill="midnightblue" stroke="midnightblue" points="111.72,-309.807 114.744,-299.652 106.048,-305.705 111.72,-309.807"/>
</g>
<!-- Node5 -->
<g id="node6" class="node"><title>Node5</title>
<polygon fill="white" stroke="#bfbfbf" points="0,-112.5 0,-131.5 54,-131.5 54,-112.5 0,-112.5"/>
<text text-anchor="middle" x="27" y="-119.5" font-family="Helvetica,sans-Serif" font-size="10.00">iostream</text>
</g>
<!-- Node0&#45;&gt;Node5 -->
<g id="edge50" class="edge"><title>Node0&#45;&gt;Node5</title>
<path fill="none" stroke="midnightblue" d="M69.9928,-336.135C61.0265,-291.684 39.4511,-184.726 30.7407,-141.545"/>
<polygon fill="midnightblue" stroke="midnightblue" points="34.1403,-140.697 28.732,-131.586 27.2785,-142.081 34.1403,-140.697"/>
</g>
<!-- Node2 -->
<g id="node3" class="node"><title>Node2</title>
<g id="a_node3"><a xlink:href="base__vertex_8h.html" target="_top" xlink:title="../core/base_vertex.h">
<polygon fill="white" stroke="black" points="466.5,-224.5 466.5,-243.5 575.5,-243.5 575.5,-224.5 466.5,-224.5"/>
<text text-anchor="middle" x="521" y="-231.5" font-family="Helvetica,sans-Serif" font-size="10.00">../core/base_vertex.h</text>
</a>
</g>
</g>
<!-- Node1&#45;&gt;Node2 -->
<g id="edge2" class="edge"><title>Node1&#45;&gt;Node2</title>
<path fill="none" stroke="midnightblue" d="M156.147,-284.255C223.287,-275.191 370.691,-255.292 456.172,-243.752"/>
<polygon fill="midnightblue" stroke="midnightblue" points="456.838,-247.194 466.28,-242.387 455.901,-240.257 456.838,-247.194"/>
</g>
<!-- Node1&#45;&gt;Node5 -->
<g id="edge49" class="edge"><title>Node1&#45;&gt;Node5</title>
<path fill="none" stroke="midnightblue" d="M112.642,-280.202C104.637,-271.48 92.5453,-257.504 84,-244 62.1507,-209.472 43.4081,-165.244 33.824,-140.962"/>
<polygon fill="midnightblue" stroke="midnightblue" points="37.0684,-139.648 30.1905,-131.589 30.5417,-142.178 37.0684,-139.648"/>
</g>
<!-- Node33 -->
<g id="node34" class="node"><title>Node33</title>
<polygon fill="white" stroke="#bfbfbf" points="93.5,-224.5 93.5,-243.5 212.5,-243.5 212.5,-224.5 93.5,-224.5"/>
<text text-anchor="middle" x="153" y="-231.5" font-family="Helvetica,sans-Serif" font-size="10.00">eigen3/Eigen/Geometry</text>
</g>
<!-- Node1&#45;&gt;Node33 -->
<g id="edge48" class="edge"><title>Node1&#45;&gt;Node33</title>
<path fill="none" stroke="midnightblue" d="M126.284,-280.083C130.711,-272.613 137.163,-261.724 142.618,-252.52"/>
<polygon fill="midnightblue" stroke="midnightblue" points="145.727,-254.138 147.814,-243.751 139.705,-250.57 145.727,-254.138"/>
</g>
<!-- Node3 -->
<g id="node4" class="node"><title>Node3</title>
<g id="a_node4"><a xlink:href="optimizable__graph_8h.html" target="_top" xlink:title="optimizable_graph.h">
<polygon fill="white" stroke="black" points="283,-168.5 283,-187.5 387,-187.5 387,-168.5 283,-168.5"/>
<text text-anchor="middle" x="335" y="-175.5" font-family="Helvetica,sans-Serif" font-size="10.00">optimizable_graph.h</text>
</a>
</g>
</g>
<!-- Node2&#45;&gt;Node3 -->
<g id="edge3" class="edge"><title>Node2&#45;&gt;Node3</title>
<path fill="none" stroke="midnightblue" d="M491.528,-224.444C459.829,-215.241 409.268,-200.562 374.225,-190.388"/>
<polygon fill="midnightblue" stroke="midnightblue" points="374.914,-186.943 364.334,-187.516 372.962,-193.666 374.914,-186.943"/>
</g>
<!-- Node24 -->
<g id="node25" class="node"><title>Node24</title>
<polygon fill="white" stroke="#bfbfbf" points="784.5,-56.5 784.5,-75.5 881.5,-75.5 881.5,-56.5 784.5,-56.5"/>
<text text-anchor="middle" x="833" y="-63.5" font-family="Helvetica,sans-Serif" font-size="10.00">eigen3/Eigen/Core</text>
</g>
<!-- Node2&#45;&gt;Node24 -->
<g id="edge42" class="edge"><title>Node2&#45;&gt;Node24</title>
<path fill="none" stroke="midnightblue" d="M575.548,-232.412C652.249,-230.358 786.284,-221.87 819,-188 845.353,-160.717 841.649,-112.261 837.071,-85.6988"/>
<polygon fill="midnightblue" stroke="midnightblue" points="840.487,-84.9278 835.14,-75.7808 833.616,-86.2654 840.487,-84.9278"/>
</g>
<!-- Node25 -->
<g id="node26" class="node"><title>Node25</title>
<polygon fill="white" stroke="#bfbfbf" points="294.5,-56.5 294.5,-75.5 413.5,-75.5 413.5,-56.5 294.5,-56.5"/>
<text text-anchor="middle" x="354" y="-63.5" font-family="Helvetica,sans-Serif" font-size="10.00">eigen3/Eigen/StdVector</text>
</g>
<!-- Node2&#45;&gt;Node25 -->
<g id="edge45" class="edge"><title>Node2&#45;&gt;Node25</title>
<path fill="none" stroke="midnightblue" d="M466.262,-232.213C379.132,-229.957 213.936,-221.282 167,-188 144.301,-171.904 145.393,-159.082 139,-132 136.958,-123.349 133.395,-118.899 139,-112 157.137,-89.6733 228.562,-78.0335 284.171,-72.2385"/>
<polygon fill="midnightblue" stroke="midnightblue" points="284.75,-75.6982 294.353,-71.2232 284.056,-68.7327 284.75,-75.6982"/>
</g>
<!-- Node26 -->
<g id="node27" class="node"><title>Node26</title>
<g id="a_node27"><a xlink:href="macros_8h.html" target="_top" xlink:title="../stuff/macros.h">
<polygon fill="white" stroke="black" points="977.5,-112.5 977.5,-131.5 1066.5,-131.5 1066.5,-112.5 977.5,-112.5"/>
<text text-anchor="middle" x="1022" y="-119.5" font-family="Helvetica,sans-Serif" font-size="10.00">../stuff/macros.h</text>
</a>
</g>
</g>
<!-- Node2&#45;&gt;Node26 -->
<g id="edge41" class="edge"><title>Node2&#45;&gt;Node26</title>
<path fill="none" stroke="midnightblue" d="M575.507,-229.513C641.901,-224.376 757.074,-212.591 853,-188 904.329,-174.842 961.333,-150.831 994.286,-135.963"/>
<polygon fill="midnightblue" stroke="midnightblue" points="996.062,-139 1003.71,-131.665 993.156,-132.632 996.062,-139"/>
</g>
<!-- Node28 -->
<g id="node29" class="node"><title>Node28</title>
<g id="a_node29"><a xlink:href="creators_8h.html" target="_top" xlink:title="creators.h">
<polygon fill="white" stroke="black" points="176,-168.5 176,-187.5 236,-187.5 236,-168.5 176,-168.5"/>
<text text-anchor="middle" x="206" y="-175.5" font-family="Helvetica,sans-Serif" font-size="10.00">creators.h</text>
</a>
</g>
</g>
<!-- Node2&#45;&gt;Node28 -->
<g id="edge37" class="edge"><title>Node2&#45;&gt;Node28</title>
<path fill="none" stroke="midnightblue" d="M471.087,-224.444C408.864,-213.777 303.728,-195.753 246.339,-185.915"/>
<polygon fill="midnightblue" stroke="midnightblue" points="246.648,-182.417 236.2,-184.177 245.465,-189.317 246.648,-182.417"/>
</g>
<!-- Node29 -->
<g id="node30" class="node"><title>Node29</title>
<polygon fill="white" stroke="#bfbfbf" points="405,-168.5 405,-187.5 509,-187.5 509,-168.5 405,-168.5"/>
<text text-anchor="middle" x="457" y="-175.5" font-family="Helvetica,sans-Serif" font-size="10.00">eigen3/Eigen/Dense</text>
</g>
<!-- Node2&#45;&gt;Node29 -->
<g id="edge43" class="edge"><title>Node2&#45;&gt;Node29</title>
<path fill="none" stroke="midnightblue" d="M510.717,-224.324C501.164,-216.263 486.72,-204.077 475.216,-194.369"/>
<polygon fill="midnightblue" stroke="midnightblue" points="477.37,-191.608 467.47,-187.834 472.856,-196.958 477.37,-191.608"/>
</g>
<!-- Node30 -->
<g id="node31" class="node"><title>Node30</title>
<polygon fill="white" stroke="#bfbfbf" points="527.5,-168.5 527.5,-187.5 644.5,-187.5 644.5,-168.5 527.5,-168.5"/>
<text text-anchor="middle" x="586" y="-175.5" font-family="Helvetica,sans-Serif" font-size="10.00">eigen3/Eigen/Cholesky</text>
</g>
<!-- Node2&#45;&gt;Node30 -->
<g id="edge44" class="edge"><title>Node2&#45;&gt;Node30</title>
<path fill="none" stroke="midnightblue" d="M531.443,-224.324C541.146,-216.263 555.815,-204.077 567.5,-194.369"/>
<polygon fill="midnightblue" stroke="midnightblue" points="569.911,-196.916 575.367,-187.834 565.438,-191.532 569.911,-196.916"/>
</g>
<!-- Node31 -->
<g id="node32" class="node"><title>Node31</title>
<polygon fill="white" stroke="#bfbfbf" points="662.5,-168.5 662.5,-187.5 703.5,-187.5 703.5,-168.5 662.5,-168.5"/>
<text text-anchor="middle" x="683" y="-175.5" font-family="Helvetica,sans-Serif" font-size="10.00">stack</text>
</g>
<!-- Node2&#45;&gt;Node31 -->
<g id="edge46" class="edge"><title>Node2&#45;&gt;Node31</title>
<path fill="none" stroke="midnightblue" d="M546.669,-224.444C575.366,-214.878 621.809,-199.397 652.378,-189.207"/>
<polygon fill="midnightblue" stroke="midnightblue" points="653.707,-192.454 662.087,-185.971 651.493,-185.813 653.707,-192.454"/>
</g>
<!-- Node32 -->
<g id="node33" class="node"><title>Node32</title>
<g id="a_node33"><a xlink:href="base__vertex_8hpp.html" target="_top" xlink:title="base_vertex.hpp">
<polygon fill="white" stroke="black" points="721.5,-168.5 721.5,-187.5 810.5,-187.5 810.5,-168.5 721.5,-168.5"/>
<text text-anchor="middle" x="766" y="-175.5" font-family="Helvetica,sans-Serif" font-size="10.00">base_vertex.hpp</text>
</a>
</g>
</g>
<!-- Node2&#45;&gt;Node32 -->
<g id="edge47" class="edge"><title>Node2&#45;&gt;Node32</title>
<path fill="none" stroke="midnightblue" d="M559.821,-224.444C602.561,-215.023 671.332,-199.866 717.566,-189.675"/>
<polygon fill="midnightblue" stroke="midnightblue" points="718.348,-193.087 727.361,-187.516 716.842,-186.251 718.348,-193.087"/>
</g>
<!-- Node4 -->
<g id="node5" class="node"><title>Node4</title>
<polygon fill="white" stroke="#bfbfbf" points="224,-0.5 224,-19.5 254,-19.5 254,-0.5 224,-0.5"/>
<text text-anchor="middle" x="239" y="-7.5" font-family="Helvetica,sans-Serif" font-size="10.00">set</text>
</g>
<!-- Node3&#45;&gt;Node4 -->
<g id="edge4" class="edge"><title>Node3&#45;&gt;Node4</title>
<path fill="none" stroke="midnightblue" d="M307.377,-168.397C270.942,-155.285 208.882,-126.356 187,-76 178.368,-56.1353 197.666,-37.2514 215.15,-25.0084"/>
<polygon fill="midnightblue" stroke="midnightblue" points="217.515,-27.6435 223.97,-19.2415 213.685,-21.7847 217.515,-27.6435"/>
</g>
<!-- Node3&#45;&gt;Node5 -->
<g id="edge5" class="edge"><title>Node3&#45;&gt;Node5</title>
<path fill="none" stroke="midnightblue" d="M286.196,-168.444C224.526,-157.631 119.744,-139.26 64.1727,-129.517"/>
<polygon fill="midnightblue" stroke="midnightblue" points="64.5204,-126.025 54.0662,-127.745 63.3115,-132.92 64.5204,-126.025"/>
</g>
<!-- Node6 -->
<g id="node7" class="node"><title>Node6</title>
<polygon fill="white" stroke="#bfbfbf" points="550.5,-112.5 550.5,-131.5 579.5,-131.5 579.5,-112.5 550.5,-112.5"/>
<text text-anchor="middle" x="565" y="-119.5" font-family="Helvetica,sans-Serif" font-size="10.00">list</text>
</g>
<!-- Node3&#45;&gt;Node6 -->
<g id="edge6" class="edge"><title>Node3&#45;&gt;Node6</title>
<path fill="none" stroke="midnightblue" d="M383.363,-168.472C423.209,-160.99 481.285,-149.04 540.494,-131.79"/>
<polygon fill="midnightblue" stroke="midnightblue" points="541.795,-135.055 550.39,-128.859 539.808,-128.343 541.795,-135.055"/>
</g>
<!-- Node7 -->
<g id="node8" class="node"><title>Node7</title>
<polygon fill="white" stroke="#bfbfbf" points="397,-0.5 397,-19.5 437,-19.5 437,-0.5 397,-0.5"/>
<text text-anchor="middle" x="417" y="-7.5" font-family="Helvetica,sans-Serif" font-size="10.00">limits</text>
</g>
<!-- Node3&#45;&gt;Node7 -->
<g id="edge7" class="edge"><title>Node3&#45;&gt;Node7</title>
<path fill="none" stroke="midnightblue" d="M346.82,-168.361C367.096,-152.689 407.703,-117.338 422,-76 427.202,-60.9582 425.181,-42.8282 422.301,-29.5416"/>
<polygon fill="midnightblue" stroke="midnightblue" points="425.658,-28.5364 419.821,-19.6941 418.87,-30.2462 425.658,-28.5364"/>
</g>
<!-- Node8 -->
<g id="node9" class="node"><title>Node8</title>
<polygon fill="white" stroke="#bfbfbf" points="597,-112.5 597,-131.5 641,-131.5 641,-112.5 597,-112.5"/>
<text text-anchor="middle" x="619" y="-119.5" font-family="Helvetica,sans-Serif" font-size="10.00">cmath</text>
</g>
<!-- Node3&#45;&gt;Node8 -->
<g id="edge8" class="edge"><title>Node3&#45;&gt;Node8</title>
<path fill="none" stroke="midnightblue" d="M386.774,-168.461C445.122,-158.729 537.346,-142.99 586.839,-132.036"/>
<polygon fill="midnightblue" stroke="midnightblue" points="587.756,-135.417 596.724,-129.775 586.195,-128.593 587.756,-135.417"/>
</g>
<!-- Node9 -->
<g id="node10" class="node"><title>Node9</title>
<polygon fill="white" stroke="#bfbfbf" points="148.5,-112.5 148.5,-131.5 199.5,-131.5 199.5,-112.5 148.5,-112.5"/>
<text text-anchor="middle" x="174" y="-119.5" font-family="Helvetica,sans-Serif" font-size="10.00">typeinfo</text>
</g>
<!-- Node3&#45;&gt;Node9 -->
<g id="edge9" class="edge"><title>Node3&#45;&gt;Node9</title>
<path fill="none" stroke="midnightblue" d="M309.489,-168.444C282.404,-159.359 239.41,-144.939 209.131,-134.783"/>
<polygon fill="midnightblue" stroke="midnightblue" points="209.986,-131.378 199.392,-131.516 207.76,-138.015 209.986,-131.378"/>
</g>
<!-- Node10 -->
<g id="node11" class="node"><title>Node10</title>
<g id="a_node11"><a xlink:href="openmp__mutex_8h.html" target="_top" xlink:title="openmp_mutex.h">
<polygon fill="white" stroke="black" points="867,-112.5 867,-131.5 959,-131.5 959,-112.5 867,-112.5"/>
<text text-anchor="middle" x="913" y="-119.5" font-family="Helvetica,sans-Serif" font-size="10.00">openmp_mutex.h</text>
</a>
</g>
</g>
<!-- Node3&#45;&gt;Node10 -->
<g id="edge10" class="edge"><title>Node3&#45;&gt;Node10</title>
<path fill="none" stroke="midnightblue" d="M387.215,-169.08C390.185,-168.697 393.129,-168.334 396,-168 583.418,-146.22 631.087,-148.992 819,-132 831.118,-130.904 844.111,-129.687 856.452,-128.512"/>
<polygon fill="midnightblue" stroke="midnightblue" points="857.011,-131.974 866.632,-127.537 856.344,-125.006 857.011,-131.974"/>
</g>
<!-- Node13 -->
<g id="node14" class="node"><title>Node13</title>
<g id="a_node14"><a xlink:href="hyper__graph_8h.html" target="_top" xlink:title="hyper_graph.h">
<polygon fill="white" stroke="black" points="534,-56.5 534,-75.5 612,-75.5 612,-56.5 534,-56.5"/>
<text text-anchor="middle" x="573" y="-63.5" font-family="Helvetica,sans-Serif" font-size="10.00">hyper_graph.h</text>
</a>
</g>
</g>
<!-- Node3&#45;&gt;Node13 -->
<g id="edge13" class="edge"><title>Node3&#45;&gt;Node13</title>
<path fill="none" stroke="midnightblue" d="M387.241,-169.272C390.204,-168.84 393.139,-168.414 396,-168 452.421,-159.839 612.624,-175.047 650,-132 667.982,-111.29 635.06,-91.568 606.839,-79.3911"/>
<polygon fill="midnightblue" stroke="midnightblue" points="608.109,-76.1287 597.529,-75.5602 605.445,-82.6022 608.109,-76.1287"/>
</g>
<!-- Node19 -->
<g id="node20" class="node"><title>Node19</title>
<g id="a_node20"><a xlink:href="parameter_8h.html" target="_top" xlink:title="parameter.h">
<polygon fill="white" stroke="black" points="464,-112.5 464,-131.5 532,-131.5 532,-112.5 464,-112.5"/>
<text text-anchor="middle" x="498" y="-119.5" font-family="Helvetica,sans-Serif" font-size="10.00">parameter.h</text>
</a>
</g>
</g>
<!-- Node3&#45;&gt;Node19 -->
<g id="edge22" class="edge"><title>Node3&#45;&gt;Node19</title>
<path fill="none" stroke="midnightblue" d="M360.828,-168.444C388.249,-159.359 431.777,-144.939 462.432,-134.783"/>
<polygon fill="midnightblue" stroke="midnightblue" points="463.901,-137.984 472.293,-131.516 461.7,-131.339 463.901,-137.984"/>
</g>
<!-- Node21 -->
<g id="node22" class="node"><title>Node21</title>
<g id="a_node22"><a xlink:href="parameter__container_8h.html" target="_top" xlink:title="parameter_container.h">
<polygon fill="white" stroke="black" points="256.5,-112.5 256.5,-131.5 369.5,-131.5 369.5,-112.5 256.5,-112.5"/>
<text text-anchor="middle" x="313" y="-119.5" font-family="Helvetica,sans-Serif" font-size="10.00">parameter_container.h</text>
</a>
</g>
</g>
<!-- Node3&#45;&gt;Node21 -->
<g id="edge25" class="edge"><title>Node3&#45;&gt;Node21</title>
<path fill="none" stroke="midnightblue" d="M331.367,-168.083C328.388,-160.77 324.074,-150.181 320.375,-141.103"/>
<polygon fill="midnightblue" stroke="midnightblue" points="323.58,-139.691 316.565,-131.751 317.097,-142.333 323.58,-139.691"/>
</g>
<!-- Node23 -->
<g id="node24" class="node"><title>Node23</title>
<g id="a_node24"><a xlink:href="jacobian__workspace_8h.html" target="_top" xlink:title="jacobian_workspace.h">
<polygon fill="white" stroke="black" points="697.5,-112.5 697.5,-131.5 810.5,-131.5 810.5,-112.5 697.5,-112.5"/>
<text text-anchor="middle" x="754" y="-119.5" font-family="Helvetica,sans-Serif" font-size="10.00">jacobian_workspace.h</text>
</a>
</g>
</g>
<!-- Node3&#45;&gt;Node23 -->
<g id="edge29" class="edge"><title>Node3&#45;&gt;Node23</title>
<path fill="none" stroke="midnightblue" d="M387.233,-169.217C390.198,-168.799 393.136,-168.391 396,-168 523.374,-150.617 555.455,-148.083 683,-132 684.464,-131.815 685.945,-131.629 687.438,-131.44"/>
<polygon fill="midnightblue" stroke="midnightblue" points="687.937,-134.905 697.42,-130.179 687.06,-127.96 687.937,-134.905"/>
</g>
<!-- Node3&#45;&gt;Node26 -->
<g id="edge35" class="edge"><title>Node3&#45;&gt;Node26</title>
<path fill="none" stroke="midnightblue" d="M387.207,-169.004C390.179,-168.64 393.125,-168.302 396,-168 645.991,-141.738 713.166,-160.468 966.987,-131.986"/>
<polygon fill="midnightblue" stroke="midnightblue" points="967.72,-135.425 977.261,-130.819 966.929,-128.47 967.72,-135.425"/>
</g>
<!-- Node11 -->
<g id="node12" class="node"><title>Node11</title>
<g id="a_node12"><a xlink:href="config_8h.html" target="_top" xlink:title="../../config.h">
<polygon fill="white" stroke="black" points="938.5,-56.5 938.5,-75.5 1007.5,-75.5 1007.5,-56.5 938.5,-56.5"/>
<text text-anchor="middle" x="973" y="-63.5" font-family="Helvetica,sans-Serif" font-size="10.00">../../config.h</text>
</a>
</g>
</g>
<!-- Node10&#45;&gt;Node11 -->
<g id="edge11" class="edge"><title>Node10&#45;&gt;Node11</title>
<path fill="none" stroke="midnightblue" d="M922.64,-112.324C931.51,-104.341 944.875,-92.3128 955.608,-82.6529"/>
<polygon fill="midnightblue" stroke="midnightblue" points="958.093,-85.1251 963.185,-75.8339 953.41,-79.922 958.093,-85.1251"/>
</g>
<!-- Node12 -->
<g id="node13" class="node"><title>Node12</title>
<polygon fill="white" stroke="#bfbfbf" points="760.5,-0.5 760.5,-19.5 809.5,-19.5 809.5,-0.5 760.5,-0.5"/>
<text text-anchor="middle" x="785" y="-7.5" font-family="Helvetica,sans-Serif" font-size="10.00">cassert</text>
</g>
<!-- Node10&#45;&gt;Node12 -->
<g id="edge12" class="edge"><title>Node10&#45;&gt;Node12</title>
<path fill="none" stroke="midnightblue" d="M912.14,-112.281C910.354,-98.6188 905.062,-72.0707 890,-56 871.3,-36.0473 842.284,-24.5336 819.489,-18.1564"/>
<polygon fill="midnightblue" stroke="midnightblue" points="820.071,-14.6918 809.513,-15.576 818.318,-21.4687 820.071,-14.6918"/>
</g>
<!-- Node13&#45;&gt;Node4 -->
<g id="edge15" class="edge"><title>Node13&#45;&gt;Node4</title>
<path fill="none" stroke="midnightblue" d="M533.97,-57.7167C530.6,-57.1226 527.242,-56.5427 524,-56 418.488,-38.3347 391.445,-38.0635 286,-20 279.014,-18.8032 271.465,-17.4046 264.503,-16.0716"/>
<polygon fill="midnightblue" stroke="midnightblue" points="264.697,-12.5438 254.213,-14.0692 263.36,-19.4149 264.697,-12.5438"/>
</g>
<!-- Node13&#45;&gt;Node7 -->
<g id="edge19" class="edge"><title>Node13&#45;&gt;Node7</title>
<path fill="none" stroke="midnightblue" d="M548.281,-56.4435C520.768,-46.9198 476.313,-31.5314 446.873,-21.3407"/>
<polygon fill="midnightblue" stroke="midnightblue" points="447.733,-17.9347 437.138,-17.971 445.443,-24.5496 447.733,-17.9347"/>
</g>
<!-- Node13&#45;&gt;Node12 -->
<g id="edge17" class="edge"><title>Node13&#45;&gt;Node12</title>
<path fill="none" stroke="midnightblue" d="M607.153,-56.486C641.047,-48.0099 694.731,-34.5135 750.752,-20.0422"/>
<polygon fill="midnightblue" stroke="midnightblue" points="751.69,-23.4148 760.495,-17.5216 749.937,-16.6379 751.69,-23.4148"/>
</g>
<!-- Node14 -->
<g id="node15" class="node"><title>Node14</title>
<polygon fill="white" stroke="#bfbfbf" points="295.5,-0.5 295.5,-19.5 330.5,-19.5 330.5,-0.5 295.5,-0.5"/>
<text text-anchor="middle" x="313" y="-7.5" font-family="Helvetica,sans-Serif" font-size="10.00">map</text>
</g>
<!-- Node13&#45;&gt;Node14 -->
<g id="edge14" class="edge"><title>Node13&#45;&gt;Node14</title>
<path fill="none" stroke="midnightblue" d="M533.794,-56.8572C480.623,-45.8141 386.979,-26.3649 340.611,-16.7346"/>
<polygon fill="midnightblue" stroke="midnightblue" points="341.18,-13.2782 330.678,-14.6715 339.757,-20.132 341.18,-13.2782"/>
</g>
<!-- Node15 -->
<g id="node16" class="node"><title>Node15</title>
<polygon fill="white" stroke="#bfbfbf" points="638.5,-0.5 638.5,-19.5 679.5,-19.5 679.5,-0.5 638.5,-0.5"/>
<text text-anchor="middle" x="659" y="-7.5" font-family="Helvetica,sans-Serif" font-size="10.00">bitset</text>
</g>
<!-- Node13&#45;&gt;Node15 -->
<g id="edge16" class="edge"><title>Node13&#45;&gt;Node15</title>
<path fill="none" stroke="midnightblue" d="M586.817,-56.324C600.233,-47.9002 620.824,-34.9709 636.586,-25.0741"/>
<polygon fill="midnightblue" stroke="midnightblue" points="638.609,-27.9364 645.217,-19.6545 634.887,-22.0081 638.609,-27.9364"/>
</g>
<!-- Node16 -->
<g id="node17" class="node"><title>Node16</title>
<polygon fill="white" stroke="#bfbfbf" points="698,-0.5 698,-19.5 742,-19.5 742,-0.5 698,-0.5"/>
<text text-anchor="middle" x="720" y="-7.5" font-family="Helvetica,sans-Serif" font-size="10.00">vector</text>
</g>
<!-- Node13&#45;&gt;Node16 -->
<g id="edge18" class="edge"><title>Node13&#45;&gt;Node16</title>
<path fill="none" stroke="midnightblue" d="M596.293,-56.4435C621.096,-47.3322 660.511,-32.8531 688.169,-22.6929"/>
<polygon fill="midnightblue" stroke="midnightblue" points="689.599,-25.8965 697.779,-19.1629 687.185,-19.3258 689.599,-25.8965"/>
</g>
<!-- Node17 -->
<g id="node18" class="node"><title>Node17</title>
<polygon fill="white" stroke="#bfbfbf" points="455.5,-0.5 455.5,-19.5 504.5,-19.5 504.5,-0.5 455.5,-0.5"/>
<text text-anchor="middle" x="480" y="-7.5" font-family="Helvetica,sans-Serif" font-size="10.00">cstddef</text>
</g>
<!-- Node13&#45;&gt;Node17 -->
<g id="edge20" class="edge"><title>Node13&#45;&gt;Node17</title>
<path fill="none" stroke="midnightblue" d="M558.058,-56.324C543.415,-47.8215 520.866,-34.7288 503.762,-24.7975"/>
<polygon fill="midnightblue" stroke="midnightblue" points="505.31,-21.6491 494.905,-19.6545 501.795,-27.7027 505.31,-21.6491"/>
</g>
<!-- Node18 -->
<g id="node19" class="node"><title>Node18</title>
<polygon fill="white" stroke="#bfbfbf" points="522,-0.5 522,-19.5 620,-19.5 620,-0.5 522,-0.5"/>
<text text-anchor="middle" x="571" y="-7.5" font-family="Helvetica,sans-Serif" font-size="10.00">tr1/unordered_map</text>
</g>
<!-- Node13&#45;&gt;Node18 -->
<g id="edge21" class="edge"><title>Node13&#45;&gt;Node18</title>
<path fill="none" stroke="midnightblue" d="M572.67,-56.083C572.408,-49.0059 572.032,-38.8611 571.703,-29.9865"/>
<polygon fill="midnightblue" stroke="midnightblue" points="575.192,-29.6147 571.324,-19.7511 568.197,-29.8738 575.192,-29.6147"/>
</g>
<!-- Node19&#45;&gt;Node13 -->
<g id="edge24" class="edge"><title>Node19&#45;&gt;Node13</title>
<path fill="none" stroke="midnightblue" d="M510.05,-112.324C521.463,-104.107 538.831,-91.6017 552.435,-81.8069"/>
<polygon fill="midnightblue" stroke="midnightblue" points="554.66,-84.5174 560.731,-75.8339 550.57,-78.8366 554.66,-84.5174"/>
</g>
<!-- Node20 -->
<g id="node21" class="node"><title>Node20</title>
<polygon fill="white" stroke="#bfbfbf" points="470.5,-56.5 470.5,-75.5 515.5,-75.5 515.5,-56.5 470.5,-56.5"/>
<text text-anchor="middle" x="493" y="-63.5" font-family="Helvetica,sans-Serif" font-size="10.00">iosfwd</text>
</g>
<!-- Node19&#45;&gt;Node20 -->
<g id="edge23" class="edge"><title>Node19&#45;&gt;Node20</title>
<path fill="none" stroke="midnightblue" d="M497.174,-112.083C496.519,-105.006 495.58,-94.8611 494.758,-85.9865"/>
<polygon fill="midnightblue" stroke="midnightblue" points="498.217,-85.3858 493.81,-75.7511 491.247,-86.0312 498.217,-85.3858"/>
</g>
<!-- Node21&#45;&gt;Node14 -->
<g id="edge27" class="edge"><title>Node21&#45;&gt;Node14</title>
<path fill="none" stroke="midnightblue" d="M305.588,-112.411C298.724,-103.844 288.994,-89.9788 285,-76 280.118,-58.9134 289.689,-40.3873 298.94,-27.5015"/>
<polygon fill="midnightblue" stroke="midnightblue" points="301.734,-29.6105 305.113,-19.5688 296.209,-25.3118 301.734,-29.6105"/>
</g>
<!-- Node21&#45;&gt;Node20 -->
<g id="edge26" class="edge"><title>Node21&#45;&gt;Node20</title>
<path fill="none" stroke="midnightblue" d="M341.522,-112.444C373.863,-102.741 426.493,-86.952 460.424,-76.7727"/>
<polygon fill="midnightblue" stroke="midnightblue" points="461.739,-80.0326 470.311,-73.8067 459.727,-73.3278 461.739,-80.0326"/>
</g>
<!-- Node22 -->
<g id="node23" class="node"><title>Node22</title>
<polygon fill="white" stroke="#bfbfbf" points="196.5,-56.5 196.5,-75.5 237.5,-75.5 237.5,-56.5 196.5,-56.5"/>
<text text-anchor="middle" x="217" y="-63.5" font-family="Helvetica,sans-Serif" font-size="10.00">string</text>
</g>
<!-- Node21&#45;&gt;Node22 -->
<g id="edge28" class="edge"><title>Node21&#45;&gt;Node22</title>
<path fill="none" stroke="midnightblue" d="M297.576,-112.324C282.46,-103.822 259.185,-90.7288 241.529,-80.7975"/>
<polygon fill="midnightblue" stroke="midnightblue" points="242.817,-77.5066 232.386,-75.6545 239.386,-83.6077 242.817,-77.5066"/>
</g>
<!-- Node23&#45;&gt;Node12 -->
<g id="edge33" class="edge"><title>Node23&#45;&gt;Node12</title>
<path fill="none" stroke="midnightblue" d="M756.433,-112.368C761.458,-94.5366 773.08,-53.2953 779.851,-29.2717"/>
<polygon fill="midnightblue" stroke="midnightblue" points="783.235,-30.1659 782.579,-19.5914 776.497,-28.2671 783.235,-30.1659"/>
</g>
<!-- Node23&#45;&gt;Node13 -->
<g id="edge34" class="edge"><title>Node23&#45;&gt;Node13</title>
<path fill="none" stroke="midnightblue" d="M725.32,-112.444C694.473,-103.241 645.272,-88.5617 611.171,-78.3879"/>
<polygon fill="midnightblue" stroke="midnightblue" points="612.129,-75.0215 601.546,-75.5164 610.128,-81.7293 612.129,-75.0215"/>
</g>
<!-- Node23&#45;&gt;Node16 -->
<g id="edge32" class="edge"><title>Node23&#45;&gt;Node16</title>
<path fill="none" stroke="midnightblue" d="M751.332,-112.368C745.82,-94.5366 733.073,-53.2953 725.648,-29.2717"/>
<polygon fill="midnightblue" stroke="midnightblue" points="728.953,-28.1119 722.656,-19.5914 722.265,-30.179 728.953,-28.1119"/>
</g>
<!-- Node23&#45;&gt;Node24 -->
<g id="edge30" class="edge"><title>Node23&#45;&gt;Node24</title>
<path fill="none" stroke="midnightblue" d="M766.693,-112.324C778.901,-103.979 797.578,-91.2122 812.003,-81.3524"/>
<polygon fill="midnightblue" stroke="midnightblue" points="814.058,-84.1871 820.339,-75.6545 810.108,-78.4082 814.058,-84.1871"/>
</g>
<!-- Node23&#45;&gt;Node25 -->
<g id="edge31" class="edge"><title>Node23&#45;&gt;Node25</title>
<path fill="none" stroke="midnightblue" d="M697.115,-113.32C625.177,-103.609 501.363,-86.8941 423.786,-76.4211"/>
<polygon fill="midnightblue" stroke="midnightblue" points="424.004,-72.9188 413.625,-75.0494 423.067,-79.8559 424.004,-72.9188"/>
</g>
<!-- Node27 -->
<g id="node28" class="node"><title>Node27</title>
<polygon fill="white" stroke="#bfbfbf" points="1025.5,-56.5 1025.5,-75.5 1072.5,-75.5 1072.5,-56.5 1025.5,-56.5"/>
<text text-anchor="middle" x="1049" y="-63.5" font-family="Helvetica,sans-Serif" font-size="10.00">math.h</text>
</g>
<!-- Node26&#45;&gt;Node27 -->
<g id="edge36" class="edge"><title>Node26&#45;&gt;Node27</title>
<path fill="none" stroke="midnightblue" d="M1026.46,-112.083C1030.15,-104.691 1035.52,-93.9533 1040.09,-84.8111"/>
<polygon fill="midnightblue" stroke="midnightblue" points="1043.28,-86.2606 1044.62,-75.7511 1037.02,-83.1301 1043.28,-86.2606"/>
</g>
<!-- Node28&#45;&gt;Node9 -->
<g id="edge40" class="edge"><title>Node28&#45;&gt;Node9</title>
<path fill="none" stroke="midnightblue" d="M200.716,-168.083C196.289,-160.613 189.837,-149.724 184.382,-140.52"/>
<polygon fill="midnightblue" stroke="midnightblue" points="187.295,-138.57 179.186,-131.751 181.273,-142.138 187.295,-138.57"/>
</g>
<!-- Node28&#45;&gt;Node13 -->
<g id="edge38" class="edge"><title>Node28&#45;&gt;Node13</title>
<path fill="none" stroke="midnightblue" d="M236.305,-169.713C270.797,-161.27 328.736,-146.638 378,-132 435.15,-115.019 500.759,-92.518 539.444,-78.9343"/>
<polygon fill="midnightblue" stroke="midnightblue" points="540.876,-82.1407 549.145,-75.5167 538.55,-75.5385 540.876,-82.1407"/>
</g>
<!-- Node28&#45;&gt;Node22 -->
<g id="edge39" class="edge"><title>Node28&#45;&gt;Node22</title>
<path fill="none" stroke="midnightblue" d="M184.59,-168.394C160.096,-157.183 125.059,-136.138 139,-112 149.196,-94.3457 169.245,-83.0006 186.462,-76.118"/>
<polygon fill="midnightblue" stroke="midnightblue" points="187.986,-79.2877 196.176,-72.5674 185.583,-72.7131 187.986,-79.2877"/>
</g>
</g>
</svg>
