<?xml version="1.0" encoding="UTF-8" standalone="no"?>
<!DOCTYPE svg PUBLIC "-//W3C//DTD SVG 1.1//EN"
 "http://www.w3.org/Graphics/SVG/1.1/DTD/svg11.dtd">
<!-- Generated by graphviz version 2.38.0 (20140413.2041)
 -->
<!-- Title: /home/alejandro/Desarrollo eclipse/os1/Thirdparty/g2o/g2o/types/types_six_dof_expmap.h Pages: 1 -->
<svg width="2097pt" height="408pt"
 viewBox="0.00 0.00 2096.59 408.00" xmlns="http://www.w3.org/2000/svg" xmlns:xlink="http://www.w3.org/1999/xlink">
<g id="graph0" class="graph" transform="scale(1 1) rotate(0) translate(4 404)">
<title>/home/alejandro/Desarrollo eclipse/os1/Thirdparty/g2o/g2o/types/types_six_dof_expmap.h</title>
<polygon fill="white" stroke="none" points="-4,4 -4,-404 2092.59,-404 2092.59,4 -4,4"/>
<!-- Node0 -->
<g id="node1" class="node"><title>Node0</title>
<polygon fill="#bfbfbf" stroke="black" points="1554.32,-347.5 1554.32,-399.5 1687.32,-399.5 1687.32,-347.5 1554.32,-347.5"/>
<text text-anchor="start" x="1562.32" y="-387.5" font-family="Helvetica,sans-Serif" font-size="10.00">/home/alejandro/Desarrollo</text>
<text text-anchor="start" x="1562.32" y="-376.5" font-family="Helvetica,sans-Serif" font-size="10.00"> eclipse/os1/Thirdparty</text>
<text text-anchor="start" x="1562.32" y="-365.5" font-family="Helvetica,sans-Serif" font-size="10.00">/g2o/g2o/types/types_six</text>
<text text-anchor="middle" x="1620.82" y="-354.5" font-family="Helvetica,sans-Serif" font-size="10.00">_dof_expmap.h</text>
</g>
<!-- Node1 -->
<g id="node2" class="node"><title>Node1</title>
<g id="a_node2"><a xlink:href="base__vertex_8h.html" target="_top" xlink:title="../core/base_vertex.h">
<polygon fill="white" stroke="black" points="1503.32,-224.5 1503.32,-243.5 1612.32,-243.5 1612.32,-224.5 1503.32,-224.5"/>
<text text-anchor="middle" x="1557.82" y="-231.5" font-family="Helvetica,sans-Serif" font-size="10.00">../core/base_vertex.h</text>
</a>
</g>
</g>
<!-- Node0&#45;&gt;Node1 -->
<g id="edge1" class="edge"><title>Node0&#45;&gt;Node1</title>
<path fill="none" stroke="midnightblue" d="M1599.44,-347.209C1591.37,-336.587 1582.71,-323.751 1576.82,-311 1568.28,-292.522 1563.23,-269.672 1560.51,-253.879"/>
<polygon fill="midnightblue" stroke="midnightblue" points="1563.93,-253.124 1558.92,-243.789 1557.02,-254.211 1563.93,-253.124"/>
</g>
<!-- Node32 -->
<g id="node33" class="node"><title>Node32</title>
<g id="a_node33"><a xlink:href="base__binary__edge_8h.html" target="_top" xlink:title="../core/base_binary\l_edge.h">
<polygon fill="white" stroke="black" points="234.82,-280.5 234.82,-310.5 334.82,-310.5 334.82,-280.5 234.82,-280.5"/>
<text text-anchor="start" x="242.82" y="-298.5" font-family="Helvetica,sans-Serif" font-size="10.00">../core/base_binary</text>
<text text-anchor="middle" x="284.82" y="-287.5" font-family="Helvetica,sans-Serif" font-size="10.00">_edge.h</text>
</a>
</g>
</g>
<!-- Node0&#45;&gt;Node32 -->
<g id="edge47" class="edge"><title>Node0&#45;&gt;Node32</title>
<path fill="none" stroke="midnightblue" d="M1554.09,-372.079C1366.68,-370.281 819.821,-360.815 368.82,-311 361.063,-310.143 352.937,-309.024 344.924,-307.787"/>
<polygon fill="midnightblue" stroke="midnightblue" points="345.3,-304.303 334.87,-306.168 344.187,-311.214 345.3,-304.303"/>
</g>
<!-- Node37 -->
<g id="node38" class="node"><title>Node37</title>
<g id="a_node38"><a xlink:href="base__unary__edge_8h.html" target="_top" xlink:title="../core/base_unary\l_edge.h">
<polygon fill="white" stroke="black" points="377.82,-280.5 377.82,-310.5 475.82,-310.5 475.82,-280.5 377.82,-280.5"/>
<text text-anchor="start" x="385.82" y="-298.5" font-family="Helvetica,sans-Serif" font-size="10.00">../core/base_unary</text>
<text text-anchor="middle" x="426.82" y="-287.5" font-family="Helvetica,sans-Serif" font-size="10.00">_edge.h</text>
</a>
</g>
</g>
<!-- Node0&#45;&gt;Node37 -->
<g id="edge60" class="edge"><title>Node0&#45;&gt;Node37</title>
<path fill="none" stroke="midnightblue" d="M1554.07,-368.251C1342.15,-354.762 686.791,-313.048 485.942,-300.263"/>
<polygon fill="midnightblue" stroke="midnightblue" points="486.085,-296.765 475.883,-299.623 485.64,-303.751 486.085,-296.765"/>
</g>
<!-- Node39 -->
<g id="node40" class="node"><title>Node39</title>
<g id="a_node40"><a xlink:href="se3__ops_8h.html" target="_top" xlink:title="se3_ops.h">
<polygon fill="white" stroke="black" points="1885.82,-224.5 1885.82,-243.5 1947.82,-243.5 1947.82,-224.5 1885.82,-224.5"/>
<text text-anchor="middle" x="1916.82" y="-231.5" font-family="Helvetica,sans-Serif" font-size="10.00">se3_ops.h</text>
</a>
</g>
</g>
<!-- Node0&#45;&gt;Node39 -->
<g id="edge68" class="edge"><title>Node0&#45;&gt;Node39</title>
<path fill="none" stroke="midnightblue" d="M1687.34,-365.5C1758.86,-356.647 1866.32,-339.076 1895.82,-311 1911.36,-296.215 1915.74,-271.059 1916.81,-253.766"/>
<polygon fill="midnightblue" stroke="midnightblue" points="1920.31,-253.826 1917.11,-243.725 1913.31,-253.615 1920.31,-253.826"/>
</g>
<!-- Node42 -->
<g id="node43" class="node"><title>Node42</title>
<g id="a_node43"><a xlink:href="se3quat_8h.html" target="_top" xlink:title="se3quat.h">
<polygon fill="white" stroke="black" points="1828.32,-286 1828.32,-305 1887.32,-305 1887.32,-286 1828.32,-286"/>
<text text-anchor="middle" x="1857.82" y="-293" font-family="Helvetica,sans-Serif" font-size="10.00">se3quat.h</text>
</a>
</g>
</g>
<!-- Node0&#45;&gt;Node42 -->
<g id="edge72" class="edge"><title>Node0&#45;&gt;Node42</title>
<path fill="none" stroke="midnightblue" d="M1687.47,-351.128C1730.83,-337.222 1785.74,-319.615 1821.31,-308.208"/>
<polygon fill="midnightblue" stroke="midnightblue" points="1822.79,-311.408 1831.25,-305.021 1820.66,-304.742 1822.79,-311.408"/>
</g>
<!-- Node43 -->
<g id="node44" class="node"><title>Node43</title>
<g id="a_node44"><a xlink:href="types__sba_8h.html" target="_top" xlink:title="types_sba.h">
<polygon fill="white" stroke="black" points="1585.82,-286 1585.82,-305 1655.82,-305 1655.82,-286 1585.82,-286"/>
<text text-anchor="middle" x="1620.82" y="-293" font-family="Helvetica,sans-Serif" font-size="10.00">types_sba.h</text>
</a>
</g>
</g>
<!-- Node0&#45;&gt;Node43 -->
<g id="edge76" class="edge"><title>Node0&#45;&gt;Node43</title>
<path fill="none" stroke="midnightblue" d="M1620.82,-347.193C1620.82,-336.765 1620.82,-324.896 1620.82,-315.266"/>
<polygon fill="midnightblue" stroke="midnightblue" points="1624.32,-315.209 1620.82,-305.209 1617.32,-315.209 1624.32,-315.209"/>
</g>
<!-- Node44 -->
<g id="node45" class="node"><title>Node44</title>
<polygon fill="white" stroke="#bfbfbf" points="1944.32,-286 1944.32,-305 2031.32,-305 2031.32,-286 1944.32,-286"/>
<text text-anchor="middle" x="1987.82" y="-293" font-family="Helvetica,sans-Serif" font-size="10.00">Eigen/Geometry</text>
</g>
<!-- Node0&#45;&gt;Node44 -->
<g id="edge80" class="edge"><title>Node0&#45;&gt;Node44</title>
<path fill="none" stroke="midnightblue" d="M1687.32,-360.231C1750.03,-348.432 1846.56,-329.681 1929.82,-311 1934.76,-309.892 1939.92,-308.681 1945.04,-307.445"/>
<polygon fill="midnightblue" stroke="midnightblue" points="1945.88,-310.841 1954.76,-305.059 1944.21,-304.043 1945.88,-310.841"/>
</g>
<!-- Node2 -->
<g id="node3" class="node"><title>Node2</title>
<g id="a_node3"><a xlink:href="optimizable__graph_8h.html" target="_top" xlink:title="optimizable_graph.h">
<polygon fill="white" stroke="black" points="748.82,-168.5 748.82,-187.5 852.82,-187.5 852.82,-168.5 748.82,-168.5"/>
<text text-anchor="middle" x="800.82" y="-175.5" font-family="Helvetica,sans-Serif" font-size="10.00">optimizable_graph.h</text>
</a>
</g>
</g>
<!-- Node1&#45;&gt;Node2 -->
<g id="edge2" class="edge"><title>Node1&#45;&gt;Node2</title>
<path fill="none" stroke="midnightblue" d="M1503.07,-229.095C1365.85,-219.306 1007.86,-193.769 863.006,-183.436"/>
<polygon fill="midnightblue" stroke="midnightblue" points="863.174,-179.939 852.951,-182.719 862.676,-186.921 863.174,-179.939"/>
</g>
<!-- Node23 -->
<g id="node24" class="node"><title>Node23</title>
<polygon fill="white" stroke="#bfbfbf" points="1492.32,-56.5 1492.32,-75.5 1589.32,-75.5 1589.32,-56.5 1492.32,-56.5"/>
<text text-anchor="middle" x="1540.82" y="-63.5" font-family="Helvetica,sans-Serif" font-size="10.00">eigen3/Eigen/Core</text>
</g>
<!-- Node1&#45;&gt;Node23 -->
<g id="edge41" class="edge"><title>Node1&#45;&gt;Node23</title>
<path fill="none" stroke="midnightblue" d="M1612.44,-232.687C1677.19,-230.103 1772.67,-218.032 1741.82,-168 1710.34,-116.949 1644.29,-90.8011 1596.48,-78.0497"/>
<polygon fill="midnightblue" stroke="midnightblue" points="1597.13,-74.6031 1586.57,-75.5279 1595.4,-81.3868 1597.13,-74.6031"/>
</g>
<!-- Node24 -->
<g id="node25" class="node"><title>Node24</title>
<polygon fill="white" stroke="#bfbfbf" points="1109.32,-56.5 1109.32,-75.5 1228.32,-75.5 1228.32,-56.5 1109.32,-56.5"/>
<text text-anchor="middle" x="1168.82" y="-63.5" font-family="Helvetica,sans-Serif" font-size="10.00">eigen3/Eigen/StdVector</text>
</g>
<!-- Node1&#45;&gt;Node24 -->
<g id="edge44" class="edge"><title>Node1&#45;&gt;Node24</title>
<path fill="none" stroke="midnightblue" d="M1503.32,-230.321C1453.32,-226.139 1378.24,-215.427 1318.82,-188 1303.91,-181.12 1223.7,-113.669 1187.07,-82.5658"/>
<polygon fill="midnightblue" stroke="midnightblue" points="1189.05,-79.6493 1179.16,-75.836 1184.51,-84.9813 1189.05,-79.6493"/>
</g>
<!-- Node25 -->
<g id="node26" class="node"><title>Node25</title>
<g id="a_node26"><a xlink:href="macros_8h.html" target="_top" xlink:title="../stuff/macros.h">
<polygon fill="white" stroke="black" points="1790.32,-112.5 1790.32,-131.5 1879.32,-131.5 1879.32,-112.5 1790.32,-112.5"/>
<text text-anchor="middle" x="1834.82" y="-119.5" font-family="Helvetica,sans-Serif" font-size="10.00">../stuff/macros.h</text>
</a>
</g>
</g>
<!-- Node1&#45;&gt;Node25 -->
<g id="edge40" class="edge"><title>Node1&#45;&gt;Node25</title>
<path fill="none" stroke="midnightblue" d="M1612.64,-231.061C1658.84,-227.316 1725.31,-216.831 1775.82,-188 1796.21,-176.363 1813.42,-155.198 1823.9,-140.184"/>
<polygon fill="midnightblue" stroke="midnightblue" points="1826.87,-142.029 1829.52,-131.77 1821.05,-138.14 1826.87,-142.029"/>
</g>
<!-- Node27 -->
<g id="node28" class="node"><title>Node27</title>
<g id="a_node28"><a xlink:href="creators_8h.html" target="_top" xlink:title="creators.h">
<polygon fill="white" stroke="black" points="1135.82,-168.5 1135.82,-187.5 1195.82,-187.5 1195.82,-168.5 1135.82,-168.5"/>
<text text-anchor="middle" x="1165.82" y="-175.5" font-family="Helvetica,sans-Serif" font-size="10.00">creators.h</text>
</a>
</g>
</g>
<!-- Node1&#45;&gt;Node27 -->
<g id="edge36" class="edge"><title>Node1&#45;&gt;Node27</title>
<path fill="none" stroke="midnightblue" d="M1503.31,-225.492C1423.67,-214.521 1277.3,-194.357 1206.41,-184.592"/>
<polygon fill="midnightblue" stroke="midnightblue" points="1206.5,-181.07 1196.11,-183.173 1205.54,-188.005 1206.5,-181.07"/>
</g>
<!-- Node28 -->
<g id="node29" class="node"><title>Node28</title>
<polygon fill="white" stroke="#bfbfbf" points="1327.82,-168.5 1327.82,-187.5 1431.82,-187.5 1431.82,-168.5 1327.82,-168.5"/>
<text text-anchor="middle" x="1379.82" y="-175.5" font-family="Helvetica,sans-Serif" font-size="10.00">eigen3/Eigen/Dense</text>
</g>
<!-- Node1&#45;&gt;Node28 -->
<g id="edge42" class="edge"><title>Node1&#45;&gt;Node28</title>
<path fill="none" stroke="midnightblue" d="M1529.62,-224.444C1499.41,-215.28 1451.31,-200.688 1417.79,-190.519"/>
<polygon fill="midnightblue" stroke="midnightblue" points="1418.48,-187.07 1407.89,-187.516 1416.45,-193.769 1418.48,-187.07"/>
</g>
<!-- Node29 -->
<g id="node30" class="node"><title>Node29</title>
<polygon fill="white" stroke="#bfbfbf" points="1450.32,-168.5 1450.32,-187.5 1567.32,-187.5 1567.32,-168.5 1450.32,-168.5"/>
<text text-anchor="middle" x="1508.82" y="-175.5" font-family="Helvetica,sans-Serif" font-size="10.00">eigen3/Eigen/Cholesky</text>
</g>
<!-- Node1&#45;&gt;Node29 -->
<g id="edge43" class="edge"><title>Node1&#45;&gt;Node29</title>
<path fill="none" stroke="midnightblue" d="M1549.73,-224.083C1542.66,-216.298 1532.23,-204.801 1523.67,-195.367"/>
<polygon fill="midnightblue" stroke="midnightblue" points="1526.07,-192.805 1516.76,-187.751 1520.89,-197.509 1526.07,-192.805"/>
</g>
<!-- Node30 -->
<g id="node31" class="node"><title>Node30</title>
<polygon fill="white" stroke="#bfbfbf" points="1585.32,-168.5 1585.32,-187.5 1626.32,-187.5 1626.32,-168.5 1585.32,-168.5"/>
<text text-anchor="middle" x="1605.82" y="-175.5" font-family="Helvetica,sans-Serif" font-size="10.00">stack</text>
</g>
<!-- Node1&#45;&gt;Node30 -->
<g id="edge45" class="edge"><title>Node1&#45;&gt;Node30</title>
<path fill="none" stroke="midnightblue" d="M1565.75,-224.083C1572.67,-216.298 1582.89,-204.801 1591.27,-195.367"/>
<polygon fill="midnightblue" stroke="midnightblue" points="1594.01,-197.55 1598.04,-187.751 1588.78,-192.9 1594.01,-197.55"/>
</g>
<!-- Node31 -->
<g id="node32" class="node"><title>Node31</title>
<g id="a_node32"><a xlink:href="base__vertex_8hpp.html" target="_top" xlink:title="base_vertex.hpp">
<polygon fill="white" stroke="black" points="1644.32,-168.5 1644.32,-187.5 1733.32,-187.5 1733.32,-168.5 1644.32,-168.5"/>
<text text-anchor="middle" x="1688.82" y="-175.5" font-family="Helvetica,sans-Serif" font-size="10.00">base_vertex.hpp</text>
</a>
</g>
</g>
<!-- Node1&#45;&gt;Node31 -->
<g id="edge46" class="edge"><title>Node1&#45;&gt;Node31</title>
<path fill="none" stroke="midnightblue" d="M1578.58,-224.444C1600.14,-215.557 1634.08,-201.563 1658.61,-191.451"/>
<polygon fill="midnightblue" stroke="midnightblue" points="1660.25,-194.563 1668.16,-187.516 1657.58,-188.092 1660.25,-194.563"/>
</g>
<!-- Node3 -->
<g id="node4" class="node"><title>Node3</title>
<polygon fill="white" stroke="#bfbfbf" points="575.82,-0.5 575.82,-19.5 605.82,-19.5 605.82,-0.5 575.82,-0.5"/>
<text text-anchor="middle" x="590.82" y="-7.5" font-family="Helvetica,sans-Serif" font-size="10.00">set</text>
</g>
<!-- Node2&#45;&gt;Node3 -->
<g id="edge3" class="edge"><title>Node2&#45;&gt;Node3</title>
<path fill="none" stroke="midnightblue" d="M748.621,-168.605C692.389,-159.053 609.593,-143.316 599.82,-132 575.122,-103.404 580.616,-55.4757 586.118,-29.3461"/>
<polygon fill="midnightblue" stroke="midnightblue" points="589.528,-30.1356 588.388,-19.6022 582.71,-28.5471 589.528,-30.1356"/>
</g>
<!-- Node4 -->
<g id="node5" class="node"><title>Node4</title>
<polygon fill="white" stroke="#bfbfbf" points="350.82,-112.5 350.82,-131.5 404.82,-131.5 404.82,-112.5 350.82,-112.5"/>
<text text-anchor="middle" x="377.82" y="-119.5" font-family="Helvetica,sans-Serif" font-size="10.00">iostream</text>
</g>
<!-- Node2&#45;&gt;Node4 -->
<g id="edge4" class="edge"><title>Node2&#45;&gt;Node4</title>
<path fill="none" stroke="midnightblue" d="M748.596,-169.762C743.939,-169.152 739.296,-168.556 734.82,-168 595.554,-150.698 556.831,-157.157 414.818,-131.959"/>
<polygon fill="midnightblue" stroke="midnightblue" points="415.324,-128.494 404.863,-130.171 414.087,-135.384 415.324,-128.494"/>
</g>
<!-- Node5 -->
<g id="node6" class="node"><title>Node5</title>
<polygon fill="white" stroke="#bfbfbf" points="864.32,-112.5 864.32,-131.5 893.32,-131.5 893.32,-112.5 864.32,-112.5"/>
<text text-anchor="middle" x="878.82" y="-119.5" font-family="Helvetica,sans-Serif" font-size="10.00">list</text>
</g>
<!-- Node2&#45;&gt;Node5 -->
<g id="edge5" class="edge"><title>Node2&#45;&gt;Node5</title>
<path fill="none" stroke="midnightblue" d="M813.352,-168.324C825.406,-159.979 843.847,-147.212 858.089,-137.352"/>
<polygon fill="midnightblue" stroke="midnightblue" points="860.089,-140.224 866.319,-131.655 856.105,-134.469 860.089,-140.224"/>
</g>
<!-- Node6 -->
<g id="node7" class="node"><title>Node6</title>
<polygon fill="white" stroke="#bfbfbf" points="302.82,-0.5 302.82,-19.5 342.82,-19.5 342.82,-0.5 302.82,-0.5"/>
<text text-anchor="middle" x="322.82" y="-7.5" font-family="Helvetica,sans-Serif" font-size="10.00">limits</text>
</g>
<!-- Node2&#45;&gt;Node6 -->
<g id="edge6" class="edge"><title>Node2&#45;&gt;Node6</title>
<path fill="none" stroke="midnightblue" d="M748.451,-169.513C704.159,-162.373 639.379,-150.021 584.82,-132 493.768,-101.925 392.423,-49.1901 347.065,-24.4858"/>
<polygon fill="midnightblue" stroke="midnightblue" points="348.711,-21.3967 338.26,-19.6578 345.345,-27.5346 348.711,-21.3967"/>
</g>
<!-- Node7 -->
<g id="node8" class="node"><title>Node7</title>
<polygon fill="white" stroke="#bfbfbf" points="1081.82,-112.5 1081.82,-131.5 1125.82,-131.5 1125.82,-112.5 1081.82,-112.5"/>
<text text-anchor="middle" x="1103.82" y="-119.5" font-family="Helvetica,sans-Serif" font-size="10.00">cmath</text>
</g>
<!-- Node2&#45;&gt;Node7 -->
<g id="edge7" class="edge"><title>Node2&#45;&gt;Node7</title>
<path fill="none" stroke="midnightblue" d="M852.846,-170.09C905.504,-162.709 989.419,-149.89 1071.52,-131.836"/>
<polygon fill="midnightblue" stroke="midnightblue" points="1072.52,-135.199 1081.52,-129.609 1071,-128.367 1072.52,-135.199"/>
</g>
<!-- Node8 -->
<g id="node9" class="node"><title>Node8</title>
<polygon fill="white" stroke="#bfbfbf" points="1144.32,-112.5 1144.32,-131.5 1195.32,-131.5 1195.32,-112.5 1144.32,-112.5"/>
<text text-anchor="middle" x="1169.82" y="-119.5" font-family="Helvetica,sans-Serif" font-size="10.00">typeinfo</text>
</g>
<!-- Node2&#45;&gt;Node8 -->
<g id="edge8" class="edge"><title>Node2&#45;&gt;Node8</title>
<path fill="none" stroke="midnightblue" d="M852.911,-171.903C916.891,-165.217 1028.87,-152.135 1134.42,-131.857"/>
<polygon fill="midnightblue" stroke="midnightblue" points="1135.14,-135.283 1144.28,-129.936 1133.8,-128.412 1135.14,-135.283"/>
</g>
<!-- Node9 -->
<g id="node10" class="node"><title>Node9</title>
<g id="a_node10"><a xlink:href="openmp__mutex_8h.html" target="_top" xlink:title="openmp_mutex.h">
<polygon fill="white" stroke="black" points="422.82,-112.5 422.82,-131.5 514.82,-131.5 514.82,-112.5 422.82,-112.5"/>
<text text-anchor="middle" x="468.82" y="-119.5" font-family="Helvetica,sans-Serif" font-size="10.00">openmp_mutex.h</text>
</a>
</g>
</g>
<!-- Node2&#45;&gt;Node9 -->
<g id="edge9" class="edge"><title>Node2&#45;&gt;Node9</title>
<path fill="none" stroke="midnightblue" d="M748.58,-168.503C687.691,-158.6 587.458,-142.296 524.95,-132.13"/>
<polygon fill="midnightblue" stroke="midnightblue" points="525.306,-128.642 514.874,-130.491 524.182,-135.551 525.306,-128.642"/>
</g>
<!-- Node12 -->
<g id="node13" class="node"><title>Node12</title>
<g id="a_node13"><a xlink:href="hyper__graph_8h.html" target="_top" xlink:title="hyper_graph.h">
<polygon fill="white" stroke="black" points="721.82,-56.5 721.82,-75.5 799.82,-75.5 799.82,-56.5 721.82,-56.5"/>
<text text-anchor="middle" x="760.82" y="-63.5" font-family="Helvetica,sans-Serif" font-size="10.00">hyper_graph.h</text>
</a>
</g>
</g>
<!-- Node2&#45;&gt;Node12 -->
<g id="edge12" class="edge"><title>Node2&#45;&gt;Node12</title>
<path fill="none" stroke="midnightblue" d="M772.448,-168.495C755.068,-161.653 734.223,-150.13 723.82,-132 714.204,-115.242 728.266,-96.0053 741.73,-82.8328"/>
<polygon fill="midnightblue" stroke="midnightblue" points="744.368,-85.1638 749.405,-75.8424 739.655,-79.9887 744.368,-85.1638"/>
</g>
<!-- Node18 -->
<g id="node19" class="node"><title>Node18</title>
<g id="a_node19"><a xlink:href="parameter_8h.html" target="_top" xlink:title="parameter.h">
<polygon fill="white" stroke="black" points="608.82,-112.5 608.82,-131.5 676.82,-131.5 676.82,-112.5 608.82,-112.5"/>
<text text-anchor="middle" x="642.82" y="-119.5" font-family="Helvetica,sans-Serif" font-size="10.00">parameter.h</text>
</a>
</g>
</g>
<!-- Node2&#45;&gt;Node18 -->
<g id="edge21" class="edge"><title>Node2&#45;&gt;Node18</title>
<path fill="none" stroke="midnightblue" d="M775.784,-168.444C749.204,-159.359 707.011,-144.939 677.297,-134.783"/>
<polygon fill="midnightblue" stroke="midnightblue" points="678.333,-131.439 667.738,-131.516 676.069,-138.062 678.333,-131.439"/>
</g>
<!-- Node20 -->
<g id="node21" class="node"><title>Node20</title>
<g id="a_node21"><a xlink:href="parameter__container_8h.html" target="_top" xlink:title="parameter_container.h">
<polygon fill="white" stroke="black" points="733.32,-112.5 733.32,-131.5 846.32,-131.5 846.32,-112.5 733.32,-112.5"/>
<text text-anchor="middle" x="789.82" y="-119.5" font-family="Helvetica,sans-Serif" font-size="10.00">parameter_container.h</text>
</a>
</g>
</g>
<!-- Node2&#45;&gt;Node20 -->
<g id="edge24" class="edge"><title>Node2&#45;&gt;Node20</title>
<path fill="none" stroke="midnightblue" d="M799.004,-168.083C797.546,-160.927 795.449,-150.635 793.627,-141.691"/>
<polygon fill="midnightblue" stroke="midnightblue" points="797.028,-140.851 791.603,-131.751 790.169,-142.248 797.028,-140.851"/>
</g>
<!-- Node22 -->
<g id="node23" class="node"><title>Node22</title>
<g id="a_node23"><a xlink:href="jacobian__workspace_8h.html" target="_top" xlink:title="jacobian_workspace.h">
<polygon fill="white" stroke="black" points="950.32,-112.5 950.32,-131.5 1063.32,-131.5 1063.32,-112.5 950.32,-112.5"/>
<text text-anchor="middle" x="1006.82" y="-119.5" font-family="Helvetica,sans-Serif" font-size="10.00">jacobian_workspace.h</text>
</a>
</g>
</g>
<!-- Node2&#45;&gt;Node22 -->
<g id="edge28" class="edge"><title>Node2&#45;&gt;Node22</title>
<path fill="none" stroke="midnightblue" d="M833.461,-168.444C868.87,-159.162 925.529,-144.309 964.373,-134.127"/>
<polygon fill="midnightblue" stroke="midnightblue" points="965.546,-137.438 974.331,-131.516 963.771,-130.667 965.546,-137.438"/>
</g>
<!-- Node2&#45;&gt;Node25 -->
<g id="edge34" class="edge"><title>Node2&#45;&gt;Node25</title>
<path fill="none" stroke="midnightblue" d="M853.161,-174.267C1029.45,-165.06 1600.55,-135.235 1780.2,-125.853"/>
<polygon fill="midnightblue" stroke="midnightblue" points="1780.41,-129.347 1790.21,-125.33 1780.04,-122.356 1780.41,-129.347"/>
</g>
<!-- Node10 -->
<g id="node11" class="node"><title>Node10</title>
<g id="a_node11"><a xlink:href="config_8h.html" target="_top" xlink:title="../../config.h">
<polygon fill="white" stroke="black" points="225.32,-56.5 225.32,-75.5 294.32,-75.5 294.32,-56.5 225.32,-56.5"/>
<text text-anchor="middle" x="259.82" y="-63.5" font-family="Helvetica,sans-Serif" font-size="10.00">../../config.h</text>
</a>
</g>
</g>
<!-- Node9&#45;&gt;Node10 -->
<g id="edge10" class="edge"><title>Node9&#45;&gt;Node10</title>
<path fill="none" stroke="midnightblue" d="M435.703,-112.444C399.702,-103.142 342.05,-88.246 302.634,-78.062"/>
<polygon fill="midnightblue" stroke="midnightblue" points="303.339,-74.6294 292.782,-75.5164 301.588,-81.4068 303.339,-74.6294"/>
</g>
<!-- Node11 -->
<g id="node12" class="node"><title>Node11</title>
<polygon fill="white" stroke="#bfbfbf" points="509.32,-0.5 509.32,-19.5 558.32,-19.5 558.32,-0.5 509.32,-0.5"/>
<text text-anchor="middle" x="533.82" y="-7.5" font-family="Helvetica,sans-Serif" font-size="10.00">cassert</text>
</g>
<!-- Node9&#45;&gt;Node11 -->
<g id="edge11" class="edge"><title>Node9&#45;&gt;Node11</title>
<path fill="none" stroke="midnightblue" d="M473.92,-112.368C484.6,-94.2957 509.488,-52.1764 523.593,-28.3074"/>
<polygon fill="midnightblue" stroke="midnightblue" points="526.669,-29.9813 528.743,-19.5914 520.643,-26.4201 526.669,-29.9813"/>
</g>
<!-- Node12&#45;&gt;Node3 -->
<g id="edge14" class="edge"><title>Node12&#45;&gt;Node3</title>
<path fill="none" stroke="midnightblue" d="M731.291,-56.4626C703.647,-48.3469 661.001,-35.5134 615.707,-20.1639"/>
<polygon fill="midnightblue" stroke="midnightblue" points="616.601,-16.7706 606.006,-16.8511 614.338,-23.395 616.601,-16.7706"/>
</g>
<!-- Node12&#45;&gt;Node6 -->
<g id="edge18" class="edge"><title>Node12&#45;&gt;Node6</title>
<path fill="none" stroke="midnightblue" d="M721.565,-60.1603C635.331,-49.5288 430.888,-24.3234 353.352,-14.7643"/>
<polygon fill="midnightblue" stroke="midnightblue" points="353.633,-11.2724 343.28,-13.5224 352.776,-18.2198 353.633,-11.2724"/>
</g>
<!-- Node12&#45;&gt;Node11 -->
<g id="edge16" class="edge"><title>Node12&#45;&gt;Node11</title>
<path fill="none" stroke="midnightblue" d="M722.066,-56.4698C684.9,-48.1869 626.973,-35.0123 568.438,-20.3465"/>
<polygon fill="midnightblue" stroke="midnightblue" points="569.211,-16.9322 558.659,-17.8839 567.502,-23.7202 569.211,-16.9322"/>
</g>
<!-- Node13 -->
<g id="node14" class="node"><title>Node13</title>
<polygon fill="white" stroke="#bfbfbf" points="866.32,-0.5 866.32,-19.5 901.32,-19.5 901.32,-0.5 866.32,-0.5"/>
<text text-anchor="middle" x="883.82" y="-7.5" font-family="Helvetica,sans-Serif" font-size="10.00">map</text>
</g>
<!-- Node12&#45;&gt;Node13 -->
<g id="edge13" class="edge"><title>Node12&#45;&gt;Node13</title>
<path fill="none" stroke="midnightblue" d="M780.31,-56.4435C800.936,-47.3879 833.64,-33.0302 856.76,-22.8799"/>
<polygon fill="midnightblue" stroke="midnightblue" points="858.269,-26.0398 866.019,-18.8151 855.455,-19.6303 858.269,-26.0398"/>
</g>
<!-- Node14 -->
<g id="node15" class="node"><title>Node14</title>
<polygon fill="white" stroke="#bfbfbf" points="740.32,-0.5 740.32,-19.5 781.32,-19.5 781.32,-0.5 740.32,-0.5"/>
<text text-anchor="middle" x="760.82" y="-7.5" font-family="Helvetica,sans-Serif" font-size="10.00">bitset</text>
</g>
<!-- Node12&#45;&gt;Node14 -->
<g id="edge15" class="edge"><title>Node12&#45;&gt;Node14</title>
<path fill="none" stroke="midnightblue" d="M760.82,-56.083C760.82,-49.0059 760.82,-38.8611 760.82,-29.9865"/>
<polygon fill="midnightblue" stroke="midnightblue" points="764.32,-29.751 760.82,-19.7511 757.32,-29.7511 764.32,-29.751"/>
</g>
<!-- Node15 -->
<g id="node16" class="node"><title>Node15</title>
<polygon fill="white" stroke="#bfbfbf" points="951.82,-0.5 951.82,-19.5 995.82,-19.5 995.82,-0.5 951.82,-0.5"/>
<text text-anchor="middle" x="973.82" y="-7.5" font-family="Helvetica,sans-Serif" font-size="10.00">vector</text>
</g>
<!-- Node12&#45;&gt;Node15 -->
<g id="edge17" class="edge"><title>Node12&#45;&gt;Node15</title>
<path fill="none" stroke="midnightblue" d="M794.57,-56.4435C834.951,-46.2061 902.061,-29.1924 941.704,-19.1421"/>
<polygon fill="midnightblue" stroke="midnightblue" points="942.802,-22.4746 951.635,-16.6243 941.082,-15.6892 942.802,-22.4746"/>
</g>
<!-- Node16 -->
<g id="node17" class="node"><title>Node16</title>
<polygon fill="white" stroke="#bfbfbf" points="799.32,-0.5 799.32,-19.5 848.32,-19.5 848.32,-0.5 799.32,-0.5"/>
<text text-anchor="middle" x="823.82" y="-7.5" font-family="Helvetica,sans-Serif" font-size="10.00">cstddef</text>
</g>
<!-- Node12&#45;&gt;Node16 -->
<g id="edge19" class="edge"><title>Node12&#45;&gt;Node16</title>
<path fill="none" stroke="midnightblue" d="M770.942,-56.324C780.346,-48.2631 794.564,-36.0765 805.889,-26.3695"/>
<polygon fill="midnightblue" stroke="midnightblue" points="808.199,-28.9993 813.514,-19.8339 803.643,-23.6844 808.199,-28.9993"/>
</g>
<!-- Node17 -->
<g id="node18" class="node"><title>Node17</title>
<polygon fill="white" stroke="#bfbfbf" points="623.82,-0.5 623.82,-19.5 721.82,-19.5 721.82,-0.5 623.82,-0.5"/>
<text text-anchor="middle" x="672.82" y="-7.5" font-family="Helvetica,sans-Serif" font-size="10.00">tr1/unordered_map</text>
</g>
<!-- Node12&#45;&gt;Node17 -->
<g id="edge20" class="edge"><title>Node12&#45;&gt;Node17</title>
<path fill="none" stroke="midnightblue" d="M746.681,-56.324C732.954,-47.9002 711.884,-34.9709 695.756,-25.0741"/>
<polygon fill="midnightblue" stroke="midnightblue" points="697.277,-21.9016 686.924,-19.6545 693.616,-27.8678 697.277,-21.9016"/>
</g>
<!-- Node18&#45;&gt;Node12 -->
<g id="edge23" class="edge"><title>Node18&#45;&gt;Node12</title>
<path fill="none" stroke="midnightblue" d="M661.517,-112.444C680.764,-103.636 710.972,-89.8116 733.02,-79.722"/>
<polygon fill="midnightblue" stroke="midnightblue" points="734.573,-82.8603 742.21,-75.5164 731.66,-76.4951 734.573,-82.8603"/>
</g>
<!-- Node19 -->
<g id="node20" class="node"><title>Node19</title>
<polygon fill="white" stroke="#bfbfbf" points="620.32,-56.5 620.32,-75.5 665.32,-75.5 665.32,-56.5 620.32,-56.5"/>
<text text-anchor="middle" x="642.82" y="-63.5" font-family="Helvetica,sans-Serif" font-size="10.00">iosfwd</text>
</g>
<!-- Node18&#45;&gt;Node19 -->
<g id="edge22" class="edge"><title>Node18&#45;&gt;Node19</title>
<path fill="none" stroke="midnightblue" d="M642.82,-112.083C642.82,-105.006 642.82,-94.8611 642.82,-85.9865"/>
<polygon fill="midnightblue" stroke="midnightblue" points="646.32,-85.751 642.82,-75.7511 639.32,-85.7511 646.32,-85.751"/>
</g>
<!-- Node20&#45;&gt;Node13 -->
<g id="edge26" class="edge"><title>Node20&#45;&gt;Node13</title>
<path fill="none" stroke="midnightblue" d="M797.196,-112.368C812.846,-94.0547 849.596,-51.0489 869.838,-27.3624"/>
<polygon fill="midnightblue" stroke="midnightblue" points="872.642,-29.4676 876.478,-19.5914 867.321,-24.92 872.642,-29.4676"/>
</g>
<!-- Node20&#45;&gt;Node19 -->
<g id="edge25" class="edge"><title>Node20&#45;&gt;Node19</title>
<path fill="none" stroke="midnightblue" d="M766.527,-112.444C741.868,-103.385 702.767,-89.0213 675.134,-78.8705"/>
<polygon fill="midnightblue" stroke="midnightblue" points="676.114,-75.5019 665.521,-75.339 673.7,-82.0726 676.114,-75.5019"/>
</g>
<!-- Node21 -->
<g id="node22" class="node"><title>Node21</title>
<polygon fill="white" stroke="#bfbfbf" points="916.32,-56.5 916.32,-75.5 957.32,-75.5 957.32,-56.5 916.32,-56.5"/>
<text text-anchor="middle" x="936.82" y="-63.5" font-family="Helvetica,sans-Serif" font-size="10.00">string</text>
</g>
<!-- Node20&#45;&gt;Node21 -->
<g id="edge27" class="edge"><title>Node20&#45;&gt;Node21</title>
<path fill="none" stroke="midnightblue" d="M813.113,-112.444C838.348,-103.173 878.71,-88.3464 906.426,-78.1652"/>
<polygon fill="midnightblue" stroke="midnightblue" points="907.833,-81.3769 916.013,-74.6433 905.42,-74.8062 907.833,-81.3769"/>
</g>
<!-- Node22&#45;&gt;Node11 -->
<g id="edge32" class="edge"><title>Node22&#45;&gt;Node11</title>
<path fill="none" stroke="midnightblue" d="M950.057,-114.512C877.41,-105.829 755.808,-89.9063 712.82,-76 694.286,-70.0044 691.819,-63.4496 673.82,-56 654.604,-48.0467 603.146,-31.9912 568.265,-21.3671"/>
<polygon fill="midnightblue" stroke="midnightblue" points="569.053,-17.9486 558.468,-18.3927 567.02,-24.6467 569.053,-17.9486"/>
</g>
<!-- Node22&#45;&gt;Node12 -->
<g id="edge33" class="edge"><title>Node22&#45;&gt;Node12</title>
<path fill="none" stroke="midnightblue" d="M967.841,-112.444C924.926,-103.023 855.874,-87.8656 809.451,-77.6752"/>
<polygon fill="midnightblue" stroke="midnightblue" points="810.135,-74.242 799.617,-75.5164 808.634,-81.0792 810.135,-74.242"/>
</g>
<!-- Node22&#45;&gt;Node15 -->
<g id="edge31" class="edge"><title>Node22&#45;&gt;Node15</title>
<path fill="none" stroke="midnightblue" d="M1004.23,-112.368C998.881,-94.5366 986.509,-53.2953 979.301,-29.2717"/>
<polygon fill="midnightblue" stroke="midnightblue" points="982.623,-28.1639 976.397,-19.5914 975.919,-30.1754 982.623,-28.1639"/>
</g>
<!-- Node22&#45;&gt;Node23 -->
<g id="edge29" class="edge"><title>Node22&#45;&gt;Node23</title>
<path fill="none" stroke="midnightblue" d="M1063.33,-113.144C1066.54,-112.745 1069.72,-112.36 1072.82,-112 1219.83,-94.9152 1393.37,-79.4572 1482.11,-71.8924"/>
<polygon fill="midnightblue" stroke="midnightblue" points="1482.58,-75.3654 1492.24,-71.0313 1481.98,-68.3906 1482.58,-75.3654"/>
</g>
<!-- Node22&#45;&gt;Node24 -->
<g id="edge30" class="edge"><title>Node22&#45;&gt;Node24</title>
<path fill="none" stroke="midnightblue" d="M1032.49,-112.444C1059.74,-103.359 1103,-88.9388 1133.47,-78.7831"/>
<polygon fill="midnightblue" stroke="midnightblue" points="1134.89,-81.9992 1143.27,-75.5164 1132.68,-75.3584 1134.89,-81.9992"/>
</g>
<!-- Node26 -->
<g id="node27" class="node"><title>Node26</title>
<polygon fill="white" stroke="#bfbfbf" points="1811.32,-56.5 1811.32,-75.5 1858.32,-75.5 1858.32,-56.5 1811.32,-56.5"/>
<text text-anchor="middle" x="1834.82" y="-63.5" font-family="Helvetica,sans-Serif" font-size="10.00">math.h</text>
</g>
<!-- Node25&#45;&gt;Node26 -->
<g id="edge35" class="edge"><title>Node25&#45;&gt;Node26</title>
<path fill="none" stroke="midnightblue" d="M1834.82,-112.083C1834.82,-105.006 1834.82,-94.8611 1834.82,-85.9865"/>
<polygon fill="midnightblue" stroke="midnightblue" points="1838.32,-85.751 1834.82,-75.7511 1831.32,-85.7511 1838.32,-85.751"/>
</g>
<!-- Node27&#45;&gt;Node8 -->
<g id="edge39" class="edge"><title>Node27&#45;&gt;Node8</title>
<path fill="none" stroke="midnightblue" d="M1166.48,-168.083C1167,-161.006 1167.76,-150.861 1168.41,-141.986"/>
<polygon fill="midnightblue" stroke="midnightblue" points="1171.92,-141.982 1169.17,-131.751 1164.94,-141.465 1171.92,-141.982"/>
</g>
<!-- Node27&#45;&gt;Node12 -->
<g id="edge37" class="edge"><title>Node27&#45;&gt;Node12</title>
<path fill="none" stroke="midnightblue" d="M1135.64,-173.656C1091.79,-168.199 1008.34,-155.551 940.82,-132 922.427,-125.584 919.827,-119.431 901.82,-112 869.099,-98.4967 830.764,-86.4954 802.332,-78.2899"/>
<polygon fill="midnightblue" stroke="midnightblue" points="803.29,-74.9236 792.714,-75.5495 801.372,-81.6557 803.29,-74.9236"/>
</g>
<!-- Node27&#45;&gt;Node21 -->
<g id="edge38" class="edge"><title>Node27&#45;&gt;Node21</title>
<path fill="none" stroke="midnightblue" d="M1177.36,-168.4C1193.49,-155.356 1219.18,-130.167 1203.82,-112 1173.91,-76.6253 1031.79,-69.047 967.97,-67.4324"/>
<polygon fill="midnightblue" stroke="midnightblue" points="967.792,-63.9278 957.717,-67.2078 967.638,-70.9261 967.792,-63.9278"/>
</g>
<!-- Node32&#45;&gt;Node4 -->
<g id="edge48" class="edge"><title>Node32&#45;&gt;Node4</title>
<path fill="none" stroke="midnightblue" d="M292.431,-280.465C309.329,-249.302 349.943,-174.407 368.403,-140.365"/>
<polygon fill="midnightblue" stroke="midnightblue" points="371.488,-142.019 373.178,-131.56 365.334,-138.682 371.488,-142.019"/>
</g>
<!-- Node32&#45;&gt;Node6 -->
<g id="edge49" class="edge"><title>Node32&#45;&gt;Node6</title>
<path fill="none" stroke="midnightblue" d="M234.601,-291.097C166.739,-285.492 50.6757,-272.025 19.8199,-244 -2.45983,-223.764 0.819942,-209.098 0.819942,-179 0.819942,-179 0.819942,-179 0.819942,-121 0.819942,-59.658 212.728,-25.4504 292.73,-14.7217"/>
<polygon fill="midnightblue" stroke="midnightblue" points="293.217,-18.1879 302.677,-13.4182 292.307,-11.2473 293.217,-18.1879"/>
</g>
<!-- Node32&#45;&gt;Node10 -->
<g id="edge58" class="edge"><title>Node32&#45;&gt;Node10</title>
<path fill="none" stroke="midnightblue" d="M239.635,-280.339C222.469,-272.509 204.688,-260.853 194.82,-244 162.629,-189.025 216.944,-115.346 244.845,-83.1701"/>
<polygon fill="midnightblue" stroke="midnightblue" points="247.569,-85.3746 251.612,-75.5814 242.344,-80.7159 247.569,-85.3746"/>
</g>
<!-- Node33 -->
<g id="node34" class="node"><title>Node33</title>
<g id="a_node34"><a xlink:href="base__edge_8h.html" target="_top" xlink:title="base_edge.h">
<polygon fill="white" stroke="black" points="350.82,-224.5 350.82,-243.5 422.82,-243.5 422.82,-224.5 350.82,-224.5"/>
<text text-anchor="middle" x="386.82" y="-231.5" font-family="Helvetica,sans-Serif" font-size="10.00">base_edge.h</text>
</a>
</g>
</g>
<!-- Node32&#45;&gt;Node33 -->
<g id="edge50" class="edge"><title>Node32&#45;&gt;Node33</title>
<path fill="none" stroke="midnightblue" d="M308.993,-280.399C325.342,-270.862 346.835,-258.325 363.09,-248.842"/>
<polygon fill="midnightblue" stroke="midnightblue" points="365.104,-251.72 371.978,-243.658 361.577,-245.673 365.104,-251.72"/>
</g>
<!-- Node34 -->
<g id="node35" class="node"><title>Node34</title>
<g id="a_node35"><a xlink:href="robust__kernel_8h.html" target="_top" xlink:title="robust_kernel.h">
<polygon fill="white" stroke="black" points="479.32,-224.5 479.32,-243.5 562.32,-243.5 562.32,-224.5 479.32,-224.5"/>
<text text-anchor="middle" x="520.82" y="-231.5" font-family="Helvetica,sans-Serif" font-size="10.00">robust_kernel.h</text>
</a>
</g>
</g>
<!-- Node32&#45;&gt;Node34 -->
<g id="edge55" class="edge"><title>Node32&#45;&gt;Node34</title>
<path fill="none" stroke="midnightblue" d="M334.869,-281.882C377.029,-271.252 436.745,-256.197 477.033,-246.04"/>
<polygon fill="midnightblue" stroke="midnightblue" points="477.993,-249.407 486.834,-243.568 476.282,-242.619 477.993,-249.407"/>
</g>
<!-- Node36 -->
<g id="node37" class="node"><title>Node36</title>
<g id="a_node37"><a xlink:href="base__binary__edge_8hpp.html" target="_top" xlink:title="base_binary_edge.hpp">
<polygon fill="white" stroke="black" points="28.8199,-224.5 28.8199,-243.5 142.82,-243.5 142.82,-224.5 28.8199,-224.5"/>
<text text-anchor="middle" x="85.8199" y="-231.5" font-family="Helvetica,sans-Serif" font-size="10.00">base_binary_edge.hpp</text>
</a>
</g>
</g>
<!-- Node32&#45;&gt;Node36 -->
<g id="edge59" class="edge"><title>Node32&#45;&gt;Node36</title>
<path fill="none" stroke="midnightblue" d="M237.912,-280.475C203.13,-270.075 156.317,-256.078 123.855,-246.372"/>
<polygon fill="midnightblue" stroke="midnightblue" points="124.853,-243.018 114.27,-243.506 122.848,-249.724 124.853,-243.018"/>
</g>
<!-- Node33&#45;&gt;Node2 -->
<g id="edge54" class="edge"><title>Node33&#45;&gt;Node2</title>
<path fill="none" stroke="midnightblue" d="M422.835,-228.302C493.42,-219.096 650.697,-198.581 738.502,-187.128"/>
<polygon fill="midnightblue" stroke="midnightblue" points="739.131,-190.576 748.595,-185.812 738.226,-183.635 739.131,-190.576"/>
</g>
<!-- Node33&#45;&gt;Node4 -->
<g id="edge51" class="edge"><title>Node33&#45;&gt;Node4</title>
<path fill="none" stroke="midnightblue" d="M386.114,-224.368C384.661,-206.617 381.311,-165.666 379.342,-141.597"/>
<polygon fill="midnightblue" stroke="midnightblue" points="382.827,-141.273 378.523,-131.591 375.85,-141.844 382.827,-141.273"/>
</g>
<!-- Node33&#45;&gt;Node6 -->
<g id="edge52" class="edge"><title>Node33&#45;&gt;Node6</title>
<path fill="none" stroke="midnightblue" d="M382.038,-224.381C372.777,-207.301 352.378,-167.713 341.82,-132 331.407,-96.7762 326.396,-53.9977 324.238,-29.8962"/>
<polygon fill="midnightblue" stroke="midnightblue" points="327.705,-29.3587 323.396,-19.6797 320.729,-29.9333 327.705,-29.3587"/>
</g>
<!-- Node33&#45;&gt;Node23 -->
<g id="edge53" class="edge"><title>Node33&#45;&gt;Node23</title>
<path fill="none" stroke="midnightblue" d="M423.138,-228.592C437.641,-226.955 454.503,-225.204 469.82,-224 632.846,-211.18 1048.45,-235.842 1204.82,-188 1221.22,-182.983 1222.28,-175.258 1237.82,-168 1326.39,-126.63 1436.67,-94.3396 1496.76,-78.2434"/>
<polygon fill="midnightblue" stroke="midnightblue" points="1497.9,-81.5617 1506.67,-75.6138 1496.1,-74.7958 1497.9,-81.5617"/>
</g>
<!-- Node34&#45;&gt;Node23 -->
<g id="edge57" class="edge"><title>Node34&#45;&gt;Node23</title>
<path fill="none" stroke="midnightblue" d="M562.509,-225.221C565.653,-224.764 568.783,-224.349 571.82,-224 866.317,-190.181 948.338,-251.813 1237.82,-188 1345.65,-164.23 1464.95,-106.5 1515.73,-80.3118"/>
<polygon fill="midnightblue" stroke="midnightblue" points="1517.42,-83.3795 1524.67,-75.6589 1514.19,-77.1697 1517.42,-83.3795"/>
</g>
<!-- Node35 -->
<g id="node36" class="node"><title>Node35</title>
<polygon fill="white" stroke="#bfbfbf" points="487.82,-168.5 487.82,-187.5 553.82,-187.5 553.82,-168.5 487.82,-168.5"/>
<text text-anchor="middle" x="520.82" y="-175.5" font-family="Helvetica,sans-Serif" font-size="10.00">tr1/memory</text>
</g>
<!-- Node34&#45;&gt;Node35 -->
<g id="edge56" class="edge"><title>Node34&#45;&gt;Node35</title>
<path fill="none" stroke="midnightblue" d="M520.82,-224.083C520.82,-217.006 520.82,-206.861 520.82,-197.986"/>
<polygon fill="midnightblue" stroke="midnightblue" points="524.32,-197.751 520.82,-187.751 517.32,-197.751 524.32,-197.751"/>
</g>
<!-- Node37&#45;&gt;Node4 -->
<g id="edge61" class="edge"><title>Node37&#45;&gt;Node4</title>
<path fill="none" stroke="midnightblue" d="M430.358,-280.497C433.406,-266.107 436.621,-243.163 431.82,-224 423.805,-192.01 403.509,-159.076 390.209,-139.85"/>
<polygon fill="midnightblue" stroke="midnightblue" points="392.974,-137.698 384.327,-131.576 387.269,-141.755 392.974,-137.698"/>
</g>
<!-- Node37&#45;&gt;Node6 -->
<g id="edge63" class="edge"><title>Node37&#45;&gt;Node6</title>
<path fill="none" stroke="midnightblue" d="M377.763,-287.431C347.635,-280.797 310.106,-268.1 284.82,-244 226.389,-188.31 231.449,-155.191 215.82,-76 214.099,-67.2793 210.902,-63.4042 215.82,-56 232.699,-30.5898 267.029,-19.4961 292.27,-14.6725"/>
<polygon fill="midnightblue" stroke="midnightblue" points="293.17,-18.0706 302.454,-12.9657 292.013,-11.1668 293.17,-18.0706"/>
</g>
<!-- Node37&#45;&gt;Node10 -->
<g id="edge66" class="edge"><title>Node37&#45;&gt;Node10</title>
<path fill="none" stroke="midnightblue" d="M377.733,-280.568C355.087,-272.456 328.85,-260.514 308.82,-244 285.613,-224.866 280.948,-216.322 270.82,-188 258.49,-153.521 257.824,-110.164 258.673,-85.8239"/>
<polygon fill="midnightblue" stroke="midnightblue" points="262.184,-85.6809 259.167,-75.5247 255.192,-85.3456 262.184,-85.6809"/>
</g>
<!-- Node37&#45;&gt;Node11 -->
<g id="edge62" class="edge"><title>Node37&#45;&gt;Node11</title>
<path fill="none" stroke="midnightblue" d="M385.418,-280.401C368.786,-272.463 351.328,-260.709 341.82,-244 312.804,-193.011 311.493,-162.22 341.82,-112 376.049,-55.3179 453.815,-28.8547 499.178,-17.8373"/>
<polygon fill="midnightblue" stroke="midnightblue" points="500.195,-21.1947 509.152,-15.5369 498.622,-14.3738 500.195,-21.1947"/>
</g>
<!-- Node37&#45;&gt;Node33 -->
<g id="edge64" class="edge"><title>Node37&#45;&gt;Node33</title>
<path fill="none" stroke="midnightblue" d="M417.341,-280.399C411.648,-271.932 404.366,-261.099 398.342,-252.139"/>
<polygon fill="midnightblue" stroke="midnightblue" points="401.124,-250.004 392.64,-243.658 395.315,-253.909 401.124,-250.004"/>
</g>
<!-- Node37&#45;&gt;Node34 -->
<g id="edge65" class="edge"><title>Node37&#45;&gt;Node34</title>
<path fill="none" stroke="midnightblue" d="M449.097,-280.399C464.023,-270.951 483.601,-258.559 498.53,-249.109"/>
<polygon fill="midnightblue" stroke="midnightblue" points="500.564,-251.964 507.142,-243.658 496.821,-246.049 500.564,-251.964"/>
</g>
<!-- Node38 -->
<g id="node39" class="node"><title>Node38</title>
<g id="a_node39"><a xlink:href="base__unary__edge_8hpp.html" target="_top" xlink:title="base_unary_edge.hpp">
<polygon fill="white" stroke="black" points="580.82,-224.5 580.82,-243.5 692.82,-243.5 692.82,-224.5 580.82,-224.5"/>
<text text-anchor="middle" x="636.82" y="-231.5" font-family="Helvetica,sans-Serif" font-size="10.00">base_unary_edge.hpp</text>
</a>
</g>
</g>
<!-- Node37&#45;&gt;Node38 -->
<g id="edge67" class="edge"><title>Node37&#45;&gt;Node38</title>
<path fill="none" stroke="midnightblue" d="M476.056,-280.55C512.909,-270.108 562.673,-256.008 597.025,-246.275"/>
<polygon fill="midnightblue" stroke="midnightblue" points="598.053,-249.622 606.72,-243.528 596.144,-242.887 598.053,-249.622"/>
</g>
<!-- Node39&#45;&gt;Node23 -->
<g id="edge69" class="edge"><title>Node39&#45;&gt;Node23</title>
<path fill="none" stroke="midnightblue" d="M1928.26,-224.474C1943.06,-212.334 1965.82,-189.184 1955.82,-168 1939.11,-132.593 1923.74,-127.568 1887.82,-112 1837.34,-90.1226 1684.57,-76.6754 1599.54,-70.6814"/>
<polygon fill="midnightblue" stroke="midnightblue" points="1599.73,-67.1867 1589.51,-69.9874 1599.25,-74.1699 1599.73,-67.1867"/>
</g>
<!-- Node40 -->
<g id="node41" class="node"><title>Node40</title>
<polygon fill="white" stroke="#bfbfbf" points="1828.32,-168.5 1828.32,-187.5 1947.32,-187.5 1947.32,-168.5 1828.32,-168.5"/>
<text text-anchor="middle" x="1887.82" y="-175.5" font-family="Helvetica,sans-Serif" font-size="10.00">eigen3/Eigen/Geometry</text>
</g>
<!-- Node39&#45;&gt;Node40 -->
<g id="edge70" class="edge"><title>Node39&#45;&gt;Node40</title>
<path fill="none" stroke="midnightblue" d="M1912.03,-224.083C1908.06,-216.691 1902.29,-205.953 1897.39,-196.811"/>
<polygon fill="midnightblue" stroke="midnightblue" points="1900.33,-194.905 1892.52,-187.751 1894.17,-198.217 1900.33,-194.905"/>
</g>
<!-- Node41 -->
<g id="node42" class="node"><title>Node41</title>
<g id="a_node42"><a xlink:href="se3__ops_8hpp.html" target="_top" xlink:title="se3_ops.hpp">
<polygon fill="white" stroke="black" points="2003.82,-168.5 2003.82,-187.5 2075.82,-187.5 2075.82,-168.5 2003.82,-168.5"/>
<text text-anchor="middle" x="2039.82" y="-175.5" font-family="Helvetica,sans-Serif" font-size="10.00">se3_ops.hpp</text>
</a>
</g>
</g>
<!-- Node39&#45;&gt;Node41 -->
<g id="edge71" class="edge"><title>Node39&#45;&gt;Node41</title>
<path fill="none" stroke="midnightblue" d="M1936.31,-224.444C1956.46,-215.596 1988.14,-201.687 2011.15,-191.586"/>
<polygon fill="midnightblue" stroke="midnightblue" points="2012.67,-194.741 2020.42,-187.516 2009.86,-188.332 2012.67,-194.741"/>
</g>
<!-- Node42&#45;&gt;Node23 -->
<g id="edge74" class="edge"><title>Node42&#45;&gt;Node23</title>
<path fill="none" stroke="midnightblue" d="M1884.77,-285.904C1939.8,-267.748 2061.82,-224.19 2084.82,-188 2089.59,-180.498 2089.98,-175.24 2084.82,-168 2029.13,-89.827 1728.89,-72.1547 1599.84,-68.1631"/>
<polygon fill="midnightblue" stroke="midnightblue" points="1599.84,-64.6616 1589.74,-67.8679 1599.63,-71.6586 1599.84,-64.6616"/>
</g>
<!-- Node42&#45;&gt;Node39 -->
<g id="edge73" class="edge"><title>Node42&#45;&gt;Node39</title>
<path fill="none" stroke="midnightblue" d="M1866.27,-285.975C1875.39,-276.785 1890.09,-261.956 1901.3,-250.656"/>
<polygon fill="midnightblue" stroke="midnightblue" points="1903.83,-253.074 1908.38,-243.509 1898.86,-248.146 1903.83,-253.074"/>
</g>
<!-- Node42&#45;&gt;Node40 -->
<g id="edge75" class="edge"><title>Node42&#45;&gt;Node40</title>
<path fill="none" stroke="midnightblue" d="M1860.07,-285.819C1864.92,-267.173 1876.41,-222.943 1882.98,-197.632"/>
<polygon fill="midnightblue" stroke="midnightblue" points="1886.41,-198.341 1885.54,-187.782 1879.64,-196.581 1886.41,-198.341"/>
</g>
<!-- Node43&#45;&gt;Node1 -->
<g id="edge77" class="edge"><title>Node43&#45;&gt;Node1</title>
<path fill="none" stroke="midnightblue" d="M1611.79,-285.975C1602.06,-276.785 1586.36,-261.956 1574.4,-250.656"/>
<polygon fill="midnightblue" stroke="midnightblue" points="1576.5,-247.831 1566.83,-243.509 1571.7,-252.92 1576.5,-247.831"/>
</g>
<!-- Node43&#45;&gt;Node4 -->
<g id="edge79" class="edge"><title>Node43&#45;&gt;Node4</title>
<path fill="none" stroke="midnightblue" d="M1585.49,-290.868C1466.21,-278.471 1067.57,-235.931 739.82,-188 597.623,-167.205 559.379,-162.501 415.018,-132.134"/>
<polygon fill="midnightblue" stroke="midnightblue" points="415.404,-128.639 404.896,-130 413.959,-135.488 415.404,-128.639"/>
</g>
<!-- Node43&#45;&gt;Node40 -->
<g id="edge78" class="edge"><title>Node43&#45;&gt;Node40</title>
<path fill="none" stroke="midnightblue" d="M1640.89,-285.819C1687.58,-265.619 1803.7,-215.391 1858.41,-191.722"/>
<polygon fill="midnightblue" stroke="midnightblue" points="1860.09,-194.807 1867.88,-187.624 1857.32,-188.382 1860.09,-194.807"/>
</g>
</g>
</svg>
